<?xml version="1.0" encoding="UTF-8" standalone="no"?>
<!DOCTYPE svg PUBLIC "-//W3C//DTD SVG 1.1//EN"
 "http://www.w3.org/Graphics/SVG/1.1/DTD/svg11.dtd">
<!-- Generated by graphviz version 2.43.0 (0)
 -->
<!-- Title: /home/runner/work/realm/realm/realm&#45;src/src/realm/bgwork.h Pages: 1 -->
<svg width="1540pt" height="324pt"
 viewBox="0.00 0.00 1540.00 324.00" xmlns="http://www.w3.org/2000/svg" xmlns:xlink="http://www.w3.org/1999/xlink">
<g id="graph0" class="graph" transform="scale(1 1) rotate(0) translate(4 320)">
<title>/home/runner/work/realm/realm/realm&#45;src/src/realm/bgwork.h</title>
<!-- Node1 -->
<g id="Node000001" class="node">
<title>Node1</title>
<g id="a_Node000001"><a xlink:title=" ">
<polygon fill="#999999" stroke="#666666" points="1045,-316 899,-316 899,-275 1045,-275 1045,-316"/>
<text text-anchor="start" x="907" y="-304" font-family="Helvetica,sans-Serif" font-size="10.00">/home/runner/work/realm</text>
<text text-anchor="start" x="907" y="-293" font-family="Helvetica,sans-Serif" font-size="10.00">/realm/realm&#45;src/src/realm</text>
<text text-anchor="middle" x="972" y="-282" font-family="Helvetica,sans-Serif" font-size="10.00">/bgwork.h</text>
</a>
</g>
</g>
<!-- Node2 -->
<g id="Node000002" class="node">
<title>Node2</title>
<g id="a_Node000002"><a xlink:href="atomics_8h.html" target="_top" xlink:title=" ">
<polygon fill="white" stroke="#666666" points="1482,-129 1386,-129 1386,-110 1482,-110 1482,-129"/>
<text text-anchor="middle" x="1434" y="-117" font-family="Helvetica,sans-Serif" font-size="10.00">realm/atomics.h</text>
</a>
</g>
</g>
<!-- Node1&#45;&gt;Node2 -->
<g id="edge1_Node000001_Node000002" class="edge">
<title>Node1&#45;&gt;Node2</title>
<g id="a_edge1_Node000001_Node000002"><a xlink:title=" ">
<path fill="none" stroke="#63b8ff" d="M1045.23,-278.85C1120.58,-261.27 1240.26,-229.16 1337,-184 1365.97,-170.47 1396.33,-149.29 1415.21,-135.15"/>
<polygon fill="#63b8ff" stroke="#63b8ff" points="1417.42,-137.87 1423.26,-129.03 1413.18,-132.3 1417.42,-137.87"/>
</a>
</g>
</g>
<!-- Node8 -->
<g id="Node000008" class="node">
<title>Node8</title>
<g id="a_Node000008"><a xlink:href="threads_8h.html" target="_top" xlink:title=" ">
<polygon fill="white" stroke="#666666" points="516,-239 422,-239 422,-220 516,-220 516,-239"/>
<text text-anchor="middle" x="469" y="-227" font-family="Helvetica,sans-Serif" font-size="10.00">realm/threads.h</text>
</a>
</g>
</g>
<!-- Node1&#45;&gt;Node8 -->
<g id="edge7_Node000001_Node000008" class="edge">
<title>Node1&#45;&gt;Node8</title>
<g id="a_edge7_Node000001_Node000008"><a xlink:title=" ">
<path fill="none" stroke="#63b8ff" d="M898.86,-285.19C797.88,-272.35 617.86,-249.44 526.14,-237.77"/>
<polygon fill="#63b8ff" stroke="#63b8ff" points="526.57,-234.3 516.2,-236.51 525.68,-241.24 526.57,-234.3"/>
</a>
</g>
</g>
<!-- Node9 -->
<g id="Node000009" class="node">
<title>Node9</title>
<g id="a_Node000009"><a xlink:href="mutex_8h.html" target="_top" xlink:title=" ">
<polygon fill="white" stroke="#666666" points="1098.5,-184 1009.5,-184 1009.5,-165 1098.5,-165 1098.5,-184"/>
<text text-anchor="middle" x="1054" y="-172" font-family="Helvetica,sans-Serif" font-size="10.00">realm/mutex.h</text>
</a>
</g>
</g>
<!-- Node1&#45;&gt;Node9 -->
<g id="edge41_Node000001_Node000009" class="edge">
<title>Node1&#45;&gt;Node9</title>
<g id="a_edge41_Node000001_Node000009"><a xlink:title=" ">
<path fill="none" stroke="#63b8ff" d="M985.54,-274.85C1001.38,-251.86 1027.35,-214.18 1042.33,-192.43"/>
<polygon fill="#63b8ff" stroke="#63b8ff" points="1045.23,-194.4 1048.02,-184.18 1039.47,-190.42 1045.23,-194.4"/>
</a>
</g>
</g>
<!-- Node11 -->
<g id="Node000011" class="node">
<title>Node11</title>
<g id="a_Node000011"><a xlink:title=" ">
<polygon fill="#e0e0e0" stroke="#999999" points="44,-74 0,-74 0,-55 44,-55 44,-74"/>
<text text-anchor="middle" x="22" y="-62" font-family="Helvetica,sans-Serif" font-size="10.00">string</text>
</a>
</g>
</g>
<!-- Node1&#45;&gt;Node11 -->
<g id="edge56_Node000001_Node000011" class="edge">
<title>Node1&#45;&gt;Node11</title>
<g id="a_edge56_Node000001_Node000011"><a xlink:title=" ">
<path fill="none" stroke="#63b8ff" d="M898.91,-293.28C710.57,-288.93 213.87,-269.45 77,-184 42,-162.15 28.97,-111.5 24.36,-84.03"/>
<polygon fill="#63b8ff" stroke="#63b8ff" points="27.82,-83.51 22.9,-74.13 20.89,-84.53 27.82,-83.51"/>
</a>
</g>
</g>
<!-- Node29 -->
<g id="Node000029" class="node">
<title>Node29</title>
<g id="a_Node000029"><a xlink:href="cmdline_8h.html" target="_top" xlink:title=" ">
<polygon fill="white" stroke="#666666" points="874,-184 778,-184 778,-165 874,-165 874,-184"/>
<text text-anchor="middle" x="826" y="-172" font-family="Helvetica,sans-Serif" font-size="10.00">realm/cmdline.h</text>
</a>
</g>
</g>
<!-- Node1&#45;&gt;Node29 -->
<g id="edge42_Node000001_Node000029" class="edge">
<title>Node1&#45;&gt;Node29</title>
<g id="a_edge42_Node000001_Node000029"><a xlink:title=" ">
<path fill="none" stroke="#63b8ff" d="M947.89,-274.85C918.93,-251.24 870.97,-212.15 844.67,-190.72"/>
<polygon fill="#63b8ff" stroke="#63b8ff" points="846.61,-187.78 836.64,-184.18 842.18,-193.21 846.61,-187.78"/>
</a>
</g>
</g>
<!-- Node32 -->
<g id="Node000032" class="node">
<title>Node32</title>
<g id="a_Node000032"><a xlink:href="timers_8h.html" target="_top" xlink:title=" ">
<polygon fill="white" stroke="#666666" points="1288.5,-184 1199.5,-184 1199.5,-165 1288.5,-165 1288.5,-184"/>
<text text-anchor="middle" x="1244" y="-172" font-family="Helvetica,sans-Serif" font-size="10.00">realm/timers.h</text>
</a>
</g>
</g>
<!-- Node1&#45;&gt;Node32 -->
<g id="edge51_Node000001_Node000032" class="edge">
<title>Node1&#45;&gt;Node32</title>
<g id="a_edge51_Node000001_Node000032"><a xlink:title=" ">
<path fill="none" stroke="#63b8ff" d="M1016.61,-274.98C1072.75,-250.42 1167.57,-208.94 1215.06,-188.16"/>
<polygon fill="#63b8ff" stroke="#63b8ff" points="1216.69,-191.27 1224.45,-184.05 1213.88,-184.86 1216.69,-191.27"/>
</a>
</g>
</g>
<!-- Node3 -->
<g id="Node000003" class="node">
<title>Node3</title>
<g id="a_Node000003"><a xlink:href="realm__config_8h.html" target="_top" xlink:title=" ">
<polygon fill="white" stroke="#666666" points="1020,-74 900,-74 900,-55 1020,-55 1020,-74"/>
<text text-anchor="middle" x="960" y="-62" font-family="Helvetica,sans-Serif" font-size="10.00">realm/realm_config.h</text>
</a>
</g>
</g>
<!-- Node2&#45;&gt;Node3 -->
<g id="edge2_Node000002_Node000003" class="edge">
<title>Node2&#45;&gt;Node3</title>
<g id="a_edge2_Node000002_Node000003"><a xlink:title=" ">
<path fill="none" stroke="#63b8ff" d="M1385.82,-111.17C1382.84,-110.76 1379.88,-110.37 1377,-110 1255.33,-94.44 1113.2,-80.09 1030.24,-72.09"/>
<polygon fill="#63b8ff" stroke="#63b8ff" points="1030.46,-68.6 1020.17,-71.13 1029.79,-75.57 1030.46,-68.6"/>
</a>
</g>
</g>
<!-- Node6 -->
<g id="Node000006" class="node">
<title>Node6</title>
<g id="a_Node000006"><a xlink:title=" ">
<polygon fill="#e0e0e0" stroke="#999999" points="1412,-74 1362,-74 1362,-55 1412,-55 1412,-74"/>
<text text-anchor="middle" x="1387" y="-62" font-family="Helvetica,sans-Serif" font-size="10.00">atomic</text>
</a>
</g>
</g>
<!-- Node2&#45;&gt;Node6 -->
<g id="edge5_Node000002_Node000006" class="edge">
<title>Node2&#45;&gt;Node6</title>
<g id="a_edge5_Node000002_Node000006"><a xlink:title=" ">
<path fill="none" stroke="#63b8ff" d="M1426.24,-109.75C1419.53,-102.18 1409.66,-91.05 1401.49,-81.84"/>
<polygon fill="#63b8ff" stroke="#63b8ff" points="1403.87,-79.25 1394.62,-74.09 1398.63,-83.89 1403.87,-79.25"/>
</a>
</g>
</g>
<!-- Node7 -->
<g id="Node000007" class="node">
<title>Node7</title>
<g id="a_Node000007"><a xlink:title=" ">
<polygon fill="#e0e0e0" stroke="#999999" points="1532,-74 1430,-74 1430,-55 1532,-55 1532,-74"/>
<text text-anchor="middle" x="1481" y="-62" font-family="Helvetica,sans-Serif" font-size="10.00">realm/atomics.inl</text>
</a>
</g>
</g>
<!-- Node2&#45;&gt;Node7 -->
<g id="edge6_Node000002_Node000007" class="edge">
<title>Node2&#45;&gt;Node7</title>
<g id="a_edge6_Node000002_Node000007"><a xlink:title=" ">
<path fill="none" stroke="#63b8ff" d="M1441.76,-109.75C1448.47,-102.18 1458.34,-91.05 1466.51,-81.84"/>
<polygon fill="#63b8ff" stroke="#63b8ff" points="1469.37,-83.89 1473.38,-74.09 1464.13,-79.25 1469.37,-83.89"/>
</a>
</g>
</g>
<!-- Node4 -->
<g id="Node000004" class="node">
<title>Node4</title>
<g id="a_Node000004"><a xlink:href="realm__defines_8h.html" target="_top" xlink:title=" ">
<polygon fill="white" stroke="#666666" points="938.5,-19 843.5,-19 843.5,0 938.5,0 938.5,-19"/>
<text text-anchor="middle" x="891" y="-7" font-family="Helvetica,sans-Serif" font-size="10.00">realm_defines.h</text>
</a>
</g>
</g>
<!-- Node3&#45;&gt;Node4 -->
<g id="edge3_Node000003_Node000004" class="edge">
<title>Node3&#45;&gt;Node4</title>
<g id="a_edge3_Node000003_Node000004"><a xlink:title=" ">
<path fill="none" stroke="#63b8ff" d="M948.91,-54.98C938.51,-47 922.74,-34.88 910.28,-25.31"/>
<polygon fill="#63b8ff" stroke="#63b8ff" points="912.35,-22.49 902.29,-19.17 908.09,-28.04 912.35,-22.49"/>
</a>
</g>
</g>
<!-- Node5 -->
<g id="Node000005" class="node">
<title>Node5</title>
<g id="a_Node000005"><a xlink:href="compiler__support_8h.html" target="_top" xlink:title=" ">
<polygon fill="white" stroke="#666666" points="1099,-19 957,-19 957,0 1099,0 1099,-19"/>
<text text-anchor="middle" x="1028" y="-7" font-family="Helvetica,sans-Serif" font-size="10.00">realm/compiler_support.h</text>
</a>
</g>
</g>
<!-- Node3&#45;&gt;Node5 -->
<g id="edge4_Node000003_Node000005" class="edge">
<title>Node3&#45;&gt;Node5</title>
<g id="a_edge4_Node000003_Node000005"><a xlink:title=" ">
<path fill="none" stroke="#63b8ff" d="M970.93,-54.98C981.08,-47.07 996.42,-35.11 1008.65,-25.58"/>
<polygon fill="#63b8ff" stroke="#63b8ff" points="1011.14,-28.08 1016.88,-19.17 1006.84,-22.56 1011.14,-28.08"/>
</a>
</g>
</g>
<!-- Node8&#45;&gt;Node2 -->
<g id="edge24_Node000008_Node000002" class="edge">
<title>Node8&#45;&gt;Node2</title>
<g id="a_edge24_Node000008_Node000002"><a xlink:title=" ">
<path fill="none" stroke="#63b8ff" d="M516,-228.33C668.49,-227.4 1148.22,-221.48 1298,-184 1340.33,-173.41 1385.46,-149.51 1411.63,-134.24"/>
<polygon fill="#63b8ff" stroke="#63b8ff" points="1413.56,-137.16 1420.37,-129.04 1409.99,-131.14 1413.56,-137.16"/>
</a>
</g>
</g>
<!-- Node8&#45;&gt;Node3 -->
<g id="edge8_Node000008_Node000003" class="edge">
<title>Node8&#45;&gt;Node3</title>
<g id="a_edge8_Node000008_Node000003"><a xlink:title=" ">
<path fill="none" stroke="#63b8ff" d="M516.31,-227.15C610.65,-223.86 818.65,-213.41 883,-184 915.6,-169.1 923.31,-159.59 942,-129 950.4,-115.25 955,-97.44 957.45,-84.19"/>
<polygon fill="#63b8ff" stroke="#63b8ff" points="960.9,-84.74 959.03,-74.31 953.99,-83.63 960.9,-84.74"/>
</a>
</g>
</g>
<!-- Node8&#45;&gt;Node9 -->
<g id="edge9_Node000008_Node000009" class="edge">
<title>Node8&#45;&gt;Node9</title>
<g id="a_edge9_Node000008_Node000009"><a xlink:title=" ">
<path fill="none" stroke="#63b8ff" d="M516.32,-225.29C608.17,-218.88 816.97,-203.43 992,-184 994.37,-183.74 996.79,-183.46 999.23,-183.16"/>
<polygon fill="#63b8ff" stroke="#63b8ff" points="999.84,-186.61 1009.33,-181.9 998.98,-179.67 999.84,-186.61"/>
</a>
</g>
</g>
<!-- Node10 -->
<g id="Node000010" class="node">
<title>Node10</title>
<g id="a_Node000010"><a xlink:href="utils_8h.html" target="_top" xlink:title=" ">
<polygon fill="white" stroke="#666666" points="360,-129 282,-129 282,-110 360,-110 360,-129"/>
<text text-anchor="middle" x="321" y="-117" font-family="Helvetica,sans-Serif" font-size="10.00">realm/utils.h</text>
</a>
</g>
</g>
<!-- Node8&#45;&gt;Node10 -->
<g id="edge25_Node000008_Node000010" class="edge">
<title>Node8&#45;&gt;Node10</title>
<g id="a_edge25_Node000008_Node000010"><a xlink:title=" ">
<path fill="none" stroke="#63b8ff" d="M421.95,-225.96C330.7,-220.55 136.86,-206.53 117,-184 71.67,-132.58 198.1,-122.31 271.93,-120.57"/>
<polygon fill="#63b8ff" stroke="#63b8ff" points="272.04,-124.07 281.97,-120.38 271.91,-117.07 272.04,-124.07"/>
</a>
</g>
</g>
<!-- Node8&#45;&gt;Node11 -->
<g id="edge34_Node000008_Node000011" class="edge">
<title>Node8&#45;&gt;Node11</title>
<g id="a_edge34_Node000008_Node000011"><a xlink:title=" ">
<path fill="none" stroke="#63b8ff" d="M421.8,-227.49C335.54,-224.87 156.46,-215.69 104,-184 65.06,-160.48 40.06,-110.57 28.85,-83.64"/>
<polygon fill="#63b8ff" stroke="#63b8ff" points="32.06,-82.24 25.11,-74.25 25.56,-84.83 32.06,-82.24"/>
</a>
</g>
</g>
<!-- Node14 -->
<g id="Node000014" class="node">
<title>Node14</title>
<g id="a_Node000014"><a xlink:title=" ">
<polygon fill="#e0e0e0" stroke="#999999" points="422,-74 384,-74 384,-55 422,-55 422,-74"/>
<text text-anchor="middle" x="403" y="-62" font-family="Helvetica,sans-Serif" font-size="10.00">map</text>
</a>
</g>
</g>
<!-- Node8&#45;&gt;Node14 -->
<g id="edge37_Node000008_Node000014" class="edge">
<title>Node8&#45;&gt;Node14</title>
<g id="a_edge37_Node000008_Node000014"><a xlink:title=" ">
<path fill="none" stroke="#63b8ff" d="M456.06,-219.87C445.18,-211.89 430.13,-199.02 422,-184 404.7,-152.05 402.15,-108.64 402.29,-84.21"/>
<polygon fill="#63b8ff" stroke="#63b8ff" points="405.79,-84.23 402.5,-74.15 398.79,-84.08 405.79,-84.23"/>
</a>
</g>
</g>
<!-- Node21 -->
<g id="Node000021" class="node">
<title>Node21</title>
<g id="a_Node000021"><a xlink:href="hardware__topology_8h.html" target="_top" xlink:title=" ">
<polygon fill="white" stroke="#666666" points="640.5,-129 491.5,-129 491.5,-110 640.5,-110 640.5,-129"/>
<text text-anchor="middle" x="566" y="-117" font-family="Helvetica,sans-Serif" font-size="10.00">realm/hardware_topology.h</text>
</a>
</g>
</g>
<!-- Node8&#45;&gt;Node21 -->
<g id="edge26_Node000008_Node000021" class="edge">
<title>Node8&#45;&gt;Node21</title>
<g id="a_edge26_Node000008_Node000021"><a xlink:title=" ">
<path fill="none" stroke="#63b8ff" d="M476.94,-219.66C493.22,-201.54 530.6,-159.91 551.39,-136.77"/>
<polygon fill="#63b8ff" stroke="#63b8ff" points="554.15,-138.94 558.22,-129.16 548.94,-134.26 554.15,-138.94"/>
</a>
</g>
</g>
<!-- Node22 -->
<g id="Node000022" class="node">
<title>Node22</title>
<g id="a_Node000022"><a xlink:title=" ">
<polygon fill="#e0e0e0" stroke="#999999" points="756,-74 700,-74 700,-55 756,-55 756,-74"/>
<text text-anchor="middle" x="728" y="-62" font-family="Helvetica,sans-Serif" font-size="10.00">stddef.h</text>
</a>
</g>
</g>
<!-- Node8&#45;&gt;Node22 -->
<g id="edge33_Node000008_Node000022" class="edge">
<title>Node8&#45;&gt;Node22</title>
<g id="a_edge33_Node000008_Node000022"><a xlink:title=" ">
<path fill="none" stroke="#63b8ff" d="M486.71,-219.99C519.67,-203.88 592.22,-167.1 649,-129 671.19,-114.11 694.86,-94.54 710.44,-81.08"/>
<polygon fill="#63b8ff" stroke="#63b8ff" points="712.97,-83.51 718.2,-74.3 708.37,-78.24 712.97,-83.51"/>
</a>
</g>
</g>
<!-- Node24 -->
<g id="Node000024" class="node">
<title>Node24</title>
<g id="a_Node000024"><a xlink:title=" ">
<polygon fill="#e0e0e0" stroke="#999999" points="606,-74 574,-74 574,-55 606,-55 606,-74"/>
<text text-anchor="middle" x="590" y="-62" font-family="Helvetica,sans-Serif" font-size="10.00">set</text>
</a>
</g>
</g>
<!-- Node8&#45;&gt;Node24 -->
<g id="edge36_Node000008_Node000024" class="edge">
<title>Node8&#45;&gt;Node24</title>
<g id="a_edge36_Node000008_Node000024"><a xlink:title=" ">
<path fill="none" stroke="#63b8ff" d="M467.25,-220C463.44,-198.96 456.63,-143.75 482,-110 487.23,-103.05 533.97,-85.42 564.23,-74.55"/>
<polygon fill="#63b8ff" stroke="#63b8ff" points="565.53,-77.81 573.77,-71.15 563.18,-71.21 565.53,-77.81"/>
</a>
</g>
</g>
<!-- Node25 -->
<g id="Node000025" class="node">
<title>Node25</title>
<g id="a_Node000025"><a xlink:title=" ">
<polygon fill="#e0e0e0" stroke="#999999" points="728,-184 696,-184 696,-165 728,-165 728,-184"/>
<text text-anchor="middle" x="712" y="-172" font-family="Helvetica,sans-Serif" font-size="10.00">list</text>
</a>
</g>
</g>
<!-- Node8&#45;&gt;Node25 -->
<g id="edge35_Node000008_Node000025" class="edge">
<title>Node8&#45;&gt;Node25</title>
<g id="a_edge35_Node000008_Node000025"><a xlink:title=" ">
<path fill="none" stroke="#63b8ff" d="M514.5,-219.95C557.77,-211.6 624.59,-198.11 682,-184 683.27,-183.69 684.57,-183.36 685.88,-183.02"/>
<polygon fill="#63b8ff" stroke="#63b8ff" points="687.14,-186.3 695.86,-180.3 685.29,-179.55 687.14,-186.3"/>
</a>
</g>
</g>
<!-- Node26 -->
<g id="Node000026" class="node">
<title>Node26</title>
<g id="a_Node000026"><a xlink:title=" ">
<polygon fill="#e0e0e0" stroke="#999999" points="173.5,-184 126.5,-184 126.5,-165 173.5,-165 173.5,-184"/>
<text text-anchor="middle" x="150" y="-172" font-family="Helvetica,sans-Serif" font-size="10.00">deque</text>
</a>
</g>
</g>
<!-- Node8&#45;&gt;Node26 -->
<g id="edge38_Node000008_Node000026" class="edge">
<title>Node8&#45;&gt;Node26</title>
<g id="a_edge38_Node000008_Node000026"><a xlink:title=" ">
<path fill="none" stroke="#63b8ff" d="M421.93,-222.61C367.04,-215.43 273.42,-202.19 183.54,-183.92"/>
<polygon fill="#63b8ff" stroke="#63b8ff" points="184.23,-180.49 173.73,-181.91 182.82,-187.35 184.23,-180.49"/>
</a>
</g>
</g>
<!-- Node27 -->
<g id="Node000027" class="node">
<title>Node27</title>
<g id="a_Node000027"><a xlink:title=" ">
<polygon fill="#e0e0e0" stroke="#999999" points="252,-184 192,-184 192,-165 252,-165 252,-184"/>
<text text-anchor="middle" x="222" y="-172" font-family="Helvetica,sans-Serif" font-size="10.00">iostream</text>
</a>
</g>
</g>
<!-- Node8&#45;&gt;Node27 -->
<g id="edge39_Node000008_Node000027" class="edge">
<title>Node8&#45;&gt;Node27</title>
<g id="a_edge39_Node000008_Node000027"><a xlink:title=" ">
<path fill="none" stroke="#63b8ff" d="M428.73,-219.93C388.87,-211.44 325.83,-197.98 262.06,-184.22"/>
<polygon fill="#63b8ff" stroke="#63b8ff" points="262.74,-180.79 252.23,-182.1 261.27,-187.63 262.74,-180.79"/>
</a>
</g>
</g>
<!-- Node28 -->
<g id="Node000028" class="node">
<title>Node28</title>
<g id="a_Node000028"><a xlink:title=" ">
<polygon fill="#e0e0e0" stroke="#999999" points="370,-184 270,-184 270,-165 370,-165 370,-184"/>
<text text-anchor="middle" x="320" y="-172" font-family="Helvetica,sans-Serif" font-size="10.00">realm/threads.inl</text>
</a>
</g>
</g>
<!-- Node8&#45;&gt;Node28 -->
<g id="edge40_Node000008_Node000028" class="edge">
<title>Node8&#45;&gt;Node28</title>
<g id="a_edge40_Node000008_Node000028"><a xlink:title=" ">
<path fill="none" stroke="#63b8ff" d="M445.06,-219.98C420.44,-211.23 381.88,-197.51 354.08,-187.62"/>
<polygon fill="#63b8ff" stroke="#63b8ff" points="354.97,-184.22 344.38,-184.17 352.62,-190.82 354.97,-184.22"/>
</a>
</g>
</g>
<!-- Node9&#45;&gt;Node2 -->
<g id="edge21_Node000009_Node000002" class="edge">
<title>Node9&#45;&gt;Node2</title>
<g id="a_edge21_Node000009_Node000002"><a xlink:title=" ">
<path fill="none" stroke="#63b8ff" d="M1098.7,-167.5C1159.1,-159.36 1270.45,-144.23 1375.64,-129.18"/>
<polygon fill="#63b8ff" stroke="#63b8ff" points="1376.4,-132.61 1385.8,-127.73 1375.41,-125.68 1376.4,-132.61"/>
</a>
</g>
</g>
<!-- Node9&#45;&gt;Node3 -->
<g id="edge10_Node000009_Node000003" class="edge">
<title>Node9&#45;&gt;Node3</title>
<g id="a_edge10_Node000009_Node000003"><a xlink:title=" ">
<path fill="none" stroke="#63b8ff" d="M1098.76,-167.5C1145.41,-159.41 1208.34,-142.14 1182,-110 1163.02,-86.84 1088,-75.48 1030.37,-70.09"/>
<polygon fill="#63b8ff" stroke="#63b8ff" points="1030.47,-66.58 1020.19,-69.18 1029.84,-73.55 1030.47,-66.58"/>
</a>
</g>
</g>
<!-- Node9&#45;&gt;Node10 -->
<g id="edge11_Node000009_Node000010" class="edge">
<title>Node9&#45;&gt;Node10</title>
<g id="a_edge11_Node000009_Node000010"><a xlink:title=" ">
<path fill="none" stroke="#63b8ff" d="M1009.25,-170.26C879.74,-160.9 505.25,-133.82 370.25,-124.06"/>
<polygon fill="#63b8ff" stroke="#63b8ff" points="370.42,-120.56 360.19,-123.33 369.92,-127.55 370.42,-120.56"/>
</a>
</g>
</g>
<!-- Node19 -->
<g id="Node000019" class="node">
<title>Node19</title>
<g id="a_Node000019"><a xlink:title=" ">
<polygon fill="#e0e0e0" stroke="#999999" points="845.5,-74 792.5,-74 792.5,-55 845.5,-55 845.5,-74"/>
<text text-anchor="middle" x="819" y="-62" font-family="Helvetica,sans-Serif" font-size="10.00">stdint.h</text>
</a>
</g>
</g>
<!-- Node9&#45;&gt;Node19 -->
<g id="edge22_Node000009_Node000019" class="edge">
<title>Node9&#45;&gt;Node19</title>
<g id="a_edge22_Node000009_Node000019"><a xlink:title=" ">
<path fill="none" stroke="#63b8ff" d="M1071.44,-164.98C1093.91,-152.89 1128.18,-130 1111,-110 1102.72,-100.36 932.27,-78.98 855.69,-69.81"/>
<polygon fill="#63b8ff" stroke="#63b8ff" points="855.88,-66.31 845.54,-68.6 855.05,-73.26 855.88,-66.31"/>
</a>
</g>
</g>
<!-- Node20 -->
<g id="Node000020" class="node">
<title>Node20</title>
<g id="a_Node000020"><a xlink:title=" ">
<polygon fill="#e0e0e0" stroke="#999999" points="1101.5,-129 1006.5,-129 1006.5,-110 1101.5,-110 1101.5,-129"/>
<text text-anchor="middle" x="1054" y="-117" font-family="Helvetica,sans-Serif" font-size="10.00">realm/mutex.inl</text>
</a>
</g>
</g>
<!-- Node9&#45;&gt;Node20 -->
<g id="edge23_Node000009_Node000020" class="edge">
<title>Node9&#45;&gt;Node20</title>
<g id="a_edge23_Node000009_Node000020"><a xlink:title=" ">
<path fill="none" stroke="#63b8ff" d="M1054,-164.75C1054,-157.8 1054,-147.85 1054,-139.13"/>
<polygon fill="#63b8ff" stroke="#63b8ff" points="1057.5,-139.09 1054,-129.09 1050.5,-139.09 1057.5,-139.09"/>
</a>
</g>
</g>
<!-- Node10&#45;&gt;Node3 -->
<g id="edge12_Node000010_Node000003" class="edge">
<title>Node10&#45;&gt;Node3</title>
<g id="a_edge12_Node000010_Node000003"><a xlink:title=" ">
<path fill="none" stroke="#63b8ff" d="M360.01,-115.26C464.99,-106.56 754.61,-82.54 889.35,-71.36"/>
<polygon fill="#63b8ff" stroke="#63b8ff" points="889.89,-74.83 899.56,-70.51 889.31,-67.85 889.89,-74.83"/>
</a>
</g>
</g>
<!-- Node10&#45;&gt;Node11 -->
<g id="edge13_Node000010_Node000011" class="edge">
<title>Node10&#45;&gt;Node11</title>
<g id="a_edge13_Node000010_Node000011"><a xlink:title=" ">
<path fill="none" stroke="#63b8ff" d="M281.7,-113.27C231.2,-106.26 140.66,-92.75 54.25,-74.09"/>
<polygon fill="#63b8ff" stroke="#63b8ff" points="54.8,-70.62 44.28,-71.91 53.3,-77.46 54.8,-70.62"/>
</a>
</g>
</g>
<!-- Node12 -->
<g id="Node000012" class="node">
<title>Node12</title>
<g id="a_Node000012"><a xlink:title=" ">
<polygon fill="#e0e0e0" stroke="#999999" points="119.5,-74 62.5,-74 62.5,-55 119.5,-55 119.5,-74"/>
<text text-anchor="middle" x="91" y="-62" font-family="Helvetica,sans-Serif" font-size="10.00">ostream</text>
</a>
</g>
</g>
<!-- Node10&#45;&gt;Node12 -->
<g id="edge14_Node000010_Node000012" class="edge">
<title>Node10&#45;&gt;Node12</title>
<g id="a_edge14_Node000010_Node000012"><a xlink:title=" ">
<path fill="none" stroke="#63b8ff" d="M284.05,-109.98C241.61,-100.21 172.32,-84.24 129.32,-74.33"/>
<polygon fill="#63b8ff" stroke="#63b8ff" points="130.04,-70.9 119.51,-72.07 128.47,-77.73 130.04,-70.9"/>
</a>
</g>
</g>
<!-- Node13 -->
<g id="Node000013" class="node">
<title>Node13</title>
<g id="a_Node000013"><a xlink:title=" ">
<polygon fill="#e0e0e0" stroke="#999999" points="487.5,-74 440.5,-74 440.5,-55 487.5,-55 487.5,-74"/>
<text text-anchor="middle" x="464" y="-62" font-family="Helvetica,sans-Serif" font-size="10.00">vector</text>
</a>
</g>
</g>
<!-- Node10&#45;&gt;Node13 -->
<g id="edge15_Node000010_Node000013" class="edge">
<title>Node10&#45;&gt;Node13</title>
<g id="a_edge15_Node000010_Node000013"><a xlink:title=" ">
<path fill="none" stroke="#63b8ff" d="M343.98,-109.98C367.5,-101.27 404.29,-87.63 430.94,-77.75"/>
<polygon fill="#63b8ff" stroke="#63b8ff" points="432.45,-80.93 440.61,-74.17 430.01,-74.36 432.45,-80.93"/>
</a>
</g>
</g>
<!-- Node10&#45;&gt;Node14 -->
<g id="edge16_Node000010_Node000014" class="edge">
<title>Node10&#45;&gt;Node14</title>
<g id="a_edge16_Node000010_Node000014"><a xlink:title=" ">
<path fill="none" stroke="#63b8ff" d="M334.17,-109.98C346.77,-101.84 366,-89.41 380.94,-79.76"/>
<polygon fill="#63b8ff" stroke="#63b8ff" points="383.09,-82.54 389.59,-74.17 379.29,-76.66 383.09,-82.54"/>
</a>
</g>
</g>
<!-- Node15 -->
<g id="Node000015" class="node">
<title>Node15</title>
<g id="a_Node000015"><a xlink:title=" ">
<polygon fill="#e0e0e0" stroke="#999999" points="190,-74 138,-74 138,-55 190,-55 190,-74"/>
<text text-anchor="middle" x="164" y="-62" font-family="Helvetica,sans-Serif" font-size="10.00">cassert</text>
</a>
</g>
</g>
<!-- Node10&#45;&gt;Node15 -->
<g id="edge17_Node000010_Node000015" class="edge">
<title>Node10&#45;&gt;Node15</title>
<g id="a_edge17_Node000010_Node000015"><a xlink:title=" ">
<path fill="none" stroke="#63b8ff" d="M295.78,-109.98C269.64,-101.16 228.6,-87.31 199.27,-77.41"/>
<polygon fill="#63b8ff" stroke="#63b8ff" points="200.02,-73.96 189.42,-74.08 197.78,-80.6 200.02,-73.96"/>
</a>
</g>
</g>
<!-- Node16 -->
<g id="Node000016" class="node">
<title>Node16</title>
<g id="a_Node000016"><a xlink:title=" ">
<polygon fill="#e0e0e0" stroke="#999999" points="556,-74 506,-74 506,-55 556,-55 556,-74"/>
<text text-anchor="middle" x="531" y="-62" font-family="Helvetica,sans-Serif" font-size="10.00">cstdint</text>
</a>
</g>
</g>
<!-- Node10&#45;&gt;Node16 -->
<g id="edge18_Node000010_Node000016" class="edge">
<title>Node10&#45;&gt;Node16</title>
<g id="a_edge18_Node000010_Node000016"><a xlink:title=" ">
<path fill="none" stroke="#63b8ff" d="M354.74,-109.98C393.48,-100.21 456.73,-84.25 495.99,-74.34"/>
<polygon fill="#63b8ff" stroke="#63b8ff" points="497.07,-77.67 505.91,-71.83 495.36,-70.89 497.07,-77.67"/>
</a>
</g>
</g>
<!-- Node17 -->
<g id="Node000017" class="node">
<title>Node17</title>
<g id="a_Node000017"><a xlink:title=" ">
<polygon fill="#e0e0e0" stroke="#999999" points="264,-74 208,-74 208,-55 264,-55 264,-74"/>
<text text-anchor="middle" x="236" y="-62" font-family="Helvetica,sans-Serif" font-size="10.00">sstream</text>
</a>
</g>
</g>
<!-- Node10&#45;&gt;Node17 -->
<g id="edge19_Node000010_Node000017" class="edge">
<title>Node10&#45;&gt;Node17</title>
<g id="a_edge19_Node000010_Node000017"><a xlink:title=" ">
<path fill="none" stroke="#63b8ff" d="M307.34,-109.98C294.16,-101.77 273.97,-89.18 258.43,-79.49"/>
<polygon fill="#63b8ff" stroke="#63b8ff" points="260.24,-76.49 249.91,-74.17 256.54,-82.43 260.24,-76.49"/>
</a>
</g>
</g>
<!-- Node18 -->
<g id="Node000018" class="node">
<title>Node18</title>
<g id="a_Node000018"><a xlink:title=" ">
<polygon fill="#e0e0e0" stroke="#999999" points="366,-74 282,-74 282,-55 366,-55 366,-74"/>
<text text-anchor="middle" x="324" y="-62" font-family="Helvetica,sans-Serif" font-size="10.00">realm/utils.inl</text>
</a>
</g>
</g>
<!-- Node10&#45;&gt;Node18 -->
<g id="edge20_Node000010_Node000018" class="edge">
<title>Node10&#45;&gt;Node18</title>
<g id="a_edge20_Node000010_Node000018"><a xlink:title=" ">
<path fill="none" stroke="#63b8ff" d="M321.5,-109.75C321.89,-102.8 322.45,-92.85 322.95,-84.13"/>
<polygon fill="#63b8ff" stroke="#63b8ff" points="326.44,-84.27 323.51,-74.09 319.45,-83.88 326.44,-84.27"/>
</a>
</g>
</g>
<!-- Node21&#45;&gt;Node3 -->
<g id="edge27_Node000021_Node000003" class="edge">
<title>Node21&#45;&gt;Node3</title>
<g id="a_edge27_Node000021_Node000003"><a xlink:title=" ">
<path fill="none" stroke="#63b8ff" d="M629.3,-109.98C700.46,-100.41 815.68,-84.91 889.61,-74.97"/>
<polygon fill="#63b8ff" stroke="#63b8ff" points="890.32,-78.4 899.76,-73.6 889.39,-71.47 890.32,-78.4"/>
</a>
</g>
</g>
<!-- Node21&#45;&gt;Node13 -->
<g id="edge32_Node000021_Node000013" class="edge">
<title>Node21&#45;&gt;Node13</title>
<g id="a_edge32_Node000021_Node000013"><a xlink:title=" ">
<path fill="none" stroke="#63b8ff" d="M549.61,-109.98C533.43,-101.57 508.43,-88.59 489.62,-78.81"/>
<polygon fill="#63b8ff" stroke="#63b8ff" points="491.17,-75.68 480.69,-74.17 487.95,-81.89 491.17,-75.68"/>
</a>
</g>
</g>
<!-- Node21&#45;&gt;Node14 -->
<g id="edge31_Node000021_Node000014" class="edge">
<title>Node21&#45;&gt;Node14</title>
<g id="a_edge31_Node000021_Node000014"><a xlink:title=" ">
<path fill="none" stroke="#63b8ff" d="M539.81,-109.98C510.38,-100.42 462.73,-84.92 432.14,-74.98"/>
<polygon fill="#63b8ff" stroke="#63b8ff" points="433.07,-71.6 422.47,-71.83 430.9,-78.25 433.07,-71.6"/>
</a>
</g>
</g>
<!-- Node21&#45;&gt;Node22 -->
<g id="edge28_Node000021_Node000022" class="edge">
<title>Node21&#45;&gt;Node22</title>
<g id="a_edge28_Node000021_Node000022"><a xlink:title=" ">
<path fill="none" stroke="#63b8ff" d="M592.03,-109.98C619.11,-101.13 661.71,-87.19 692.01,-77.28"/>
<polygon fill="#63b8ff" stroke="#63b8ff" points="693.35,-80.52 701.77,-74.08 691.18,-73.87 693.35,-80.52"/>
</a>
</g>
</g>
<!-- Node23 -->
<g id="Node000023" class="node">
<title>Node23</title>
<g id="a_Node000023"><a xlink:title=" ">
<polygon fill="#e0e0e0" stroke="#999999" points="682,-74 624,-74 624,-55 682,-55 682,-74"/>
<text text-anchor="middle" x="653" y="-62" font-family="Helvetica,sans-Serif" font-size="10.00">memory</text>
</a>
</g>
</g>
<!-- Node21&#45;&gt;Node23 -->
<g id="edge29_Node000021_Node000023" class="edge">
<title>Node21&#45;&gt;Node23</title>
<g id="a_edge29_Node000021_Node000023"><a xlink:title=" ">
<path fill="none" stroke="#63b8ff" d="M579.98,-109.98C593.47,-101.77 614.13,-89.18 630.04,-79.49"/>
<polygon fill="#63b8ff" stroke="#63b8ff" points="632.05,-82.36 638.77,-74.17 628.41,-76.38 632.05,-82.36"/>
</a>
</g>
</g>
<!-- Node21&#45;&gt;Node24 -->
<g id="edge30_Node000021_Node000024" class="edge">
<title>Node21&#45;&gt;Node24</title>
<g id="a_edge30_Node000021_Node000024"><a xlink:title=" ">
<path fill="none" stroke="#63b8ff" d="M569.96,-109.75C573.21,-102.57 577.92,-92.18 581.95,-83.27"/>
<polygon fill="#63b8ff" stroke="#63b8ff" points="585.17,-84.64 586.11,-74.09 578.8,-81.75 585.17,-84.64"/>
</a>
</g>
</g>
<!-- Node29&#45;&gt;Node3 -->
<g id="edge43_Node000029_Node000003" class="edge">
<title>Node29&#45;&gt;Node3</title>
<g id="a_edge43_Node000029_Node000003"><a xlink:title=" ">
<path fill="none" stroke="#63b8ff" d="M854.69,-164.98C874.97,-157.87 901.85,-146.11 921,-129 934.99,-116.5 945.65,-97.78 952.26,-83.9"/>
<polygon fill="#63b8ff" stroke="#63b8ff" points="955.61,-84.98 956.51,-74.42 949.23,-82.11 955.61,-84.98"/>
</a>
</g>
</g>
<!-- Node29&#45;&gt;Node11 -->
<g id="edge49_Node000029_Node000011" class="edge">
<title>Node29&#45;&gt;Node11</title>
<g id="a_edge49_Node000029_Node000011"><a xlink:title=" ">
<path fill="none" stroke="#63b8ff" d="M777.98,-168.76C764.71,-167.49 750.3,-166.15 737,-165 530.93,-147.17 477.16,-162.2 273,-129 193.02,-115.99 101.22,-89.82 53.9,-75.47"/>
<polygon fill="#63b8ff" stroke="#63b8ff" points="54.81,-72.09 44.23,-72.51 52.77,-78.78 54.81,-72.09"/>
</a>
</g>
</g>
<!-- Node29&#45;&gt;Node13 -->
<g id="edge48_Node000029_Node000013" class="edge">
<title>Node29&#45;&gt;Node13</title>
<g id="a_edge48_Node000029_Node000013"><a xlink:title=" ">
<path fill="none" stroke="#63b8ff" d="M777.9,-168.68C685.9,-159.28 493.09,-138.56 482,-129 469.26,-118.02 465.22,-98.76 464.08,-84.32"/>
<polygon fill="#63b8ff" stroke="#63b8ff" points="467.56,-83.88 463.68,-74.02 460.57,-84.15 467.56,-83.88"/>
</a>
</g>
</g>
<!-- Node30 -->
<g id="Node000030" class="node">
<title>Node30</title>
<g id="a_Node000030"><a xlink:href="realm__c_8h.html" target="_top" xlink:title=" ">
<polygon fill="white" stroke="#666666" points="792,-129 696,-129 696,-110 792,-110 792,-129"/>
<text text-anchor="middle" x="744" y="-117" font-family="Helvetica,sans-Serif" font-size="10.00">realm/realm_c.h</text>
</a>
</g>
</g>
<!-- Node29&#45;&gt;Node30 -->
<g id="edge44_Node000029_Node000030" class="edge">
<title>Node29&#45;&gt;Node30</title>
<g id="a_edge44_Node000029_Node000030"><a xlink:title=" ">
<path fill="none" stroke="#63b8ff" d="M812.83,-164.98C800.23,-156.84 781,-144.41 766.06,-134.76"/>
<polygon fill="#63b8ff" stroke="#63b8ff" points="767.71,-131.66 757.41,-129.17 763.91,-137.54 767.71,-131.66"/>
</a>
</g>
</g>
<!-- Node31 -->
<g id="Node000031" class="node">
<title>Node31</title>
<g id="a_Node000031"><a xlink:title=" ">
<polygon fill="#e0e0e0" stroke="#999999" points="912,-129 810,-129 810,-110 912,-110 912,-129"/>
<text text-anchor="middle" x="861" y="-117" font-family="Helvetica,sans-Serif" font-size="10.00">realm/cmdline.inl</text>
</a>
</g>
</g>
<!-- Node29&#45;&gt;Node31 -->
<g id="edge50_Node000029_Node000031" class="edge">
<title>Node29&#45;&gt;Node31</title>
<g id="a_edge50_Node000029_Node000031"><a xlink:title=" ">
<path fill="none" stroke="#63b8ff" d="M831.78,-164.75C836.62,-157.42 843.68,-146.73 849.64,-137.7"/>
<polygon fill="#63b8ff" stroke="#63b8ff" points="852.74,-139.36 855.33,-129.09 846.9,-135.5 852.74,-139.36"/>
</a>
</g>
</g>
<!-- Node30&#45;&gt;Node3 -->
<g id="edge45_Node000030_Node000003" class="edge">
<title>Node30&#45;&gt;Node3</title>
<g id="a_edge45_Node000030_Node000003"><a xlink:title=" ">
<path fill="none" stroke="#63b8ff" d="M778.7,-109.98C815.75,-100.89 874.59,-86.46 915.13,-76.51"/>
<polygon fill="#63b8ff" stroke="#63b8ff" points="916.15,-79.86 925.02,-74.08 914.48,-73.07 916.15,-79.86"/>
</a>
</g>
</g>
<!-- Node30&#45;&gt;Node19 -->
<g id="edge47_Node000030_Node000019" class="edge">
<title>Node30&#45;&gt;Node19</title>
<g id="a_edge47_Node000030_Node000019"><a xlink:title=" ">
<path fill="none" stroke="#63b8ff" d="M756.05,-109.98C767.46,-101.92 784.83,-89.65 798.43,-80.03"/>
<polygon fill="#63b8ff" stroke="#63b8ff" points="800.58,-82.8 806.73,-74.17 796.54,-77.08 800.58,-82.8"/>
</a>
</g>
</g>
<!-- Node30&#45;&gt;Node22 -->
<g id="edge46_Node000030_Node000022" class="edge">
<title>Node30&#45;&gt;Node22</title>
<g id="a_edge46_Node000030_Node000022"><a xlink:title=" ">
<path fill="none" stroke="#63b8ff" d="M741.36,-109.75C739.24,-102.72 736.19,-92.62 733.54,-83.84"/>
<polygon fill="#63b8ff" stroke="#63b8ff" points="736.83,-82.65 730.59,-74.09 730.13,-84.67 736.83,-82.65"/>
</a>
</g>
</g>
<!-- Node32&#45;&gt;Node2 -->
<g id="edge53_Node000032_Node000002" class="edge">
<title>Node32&#45;&gt;Node2</title>
<g id="a_edge53_Node000032_Node000002"><a xlink:title=" ">
<path fill="none" stroke="#63b8ff" d="M1274.53,-164.98C1306.7,-156.01 1357.56,-141.82 1393.17,-131.89"/>
<polygon fill="#63b8ff" stroke="#63b8ff" points="1394.54,-135.14 1403.23,-129.08 1392.66,-128.4 1394.54,-135.14"/>
</a>
</g>
</g>
<!-- Node32&#45;&gt;Node3 -->
<g id="edge52_Node000032_Node000003" class="edge">
<title>Node32&#45;&gt;Node3</title>
<g id="a_edge52_Node000032_Node000003"><a xlink:title=" ">
<path fill="none" stroke="#63b8ff" d="M1240.49,-164.89C1234.33,-150.93 1220.17,-123.54 1199,-110 1171.61,-92.48 1090.61,-79.93 1030.45,-72.71"/>
<polygon fill="#63b8ff" stroke="#63b8ff" points="1030.58,-69.2 1020.24,-71.51 1029.76,-76.15 1030.58,-69.2"/>
</a>
</g>
</g>
<!-- Node32&#45;&gt;Node16 -->
<g id="edge54_Node000032_Node000016" class="edge">
<title>Node32&#45;&gt;Node16</title>
<g id="a_edge54_Node000032_Node000016"><a xlink:title=" ">
<path fill="none" stroke="#63b8ff" d="M1230.31,-164.78C1206.92,-150.4 1157.29,-122.1 1111,-110 878.93,-49.35 807.22,-109.94 566.27,-73.88"/>
<polygon fill="#63b8ff" stroke="#63b8ff" points="566.56,-70.38 556.15,-72.32 565.5,-77.3 566.56,-70.38"/>
</a>
</g>
</g>
<!-- Node33 -->
<g id="Node000033" class="node">
<title>Node33</title>
<g id="a_Node000033"><a xlink:title=" ">
<polygon fill="#e0e0e0" stroke="#999999" points="1367.5,-129 1272.5,-129 1272.5,-110 1367.5,-110 1367.5,-129"/>
<text text-anchor="middle" x="1320" y="-117" font-family="Helvetica,sans-Serif" font-size="10.00">realm/timers.inl</text>
</a>
</g>
</g>
<!-- Node32&#45;&gt;Node33 -->
<g id="edge55_Node000032_Node000033" class="edge">
<title>Node32&#45;&gt;Node33</title>
<g id="a_edge55_Node000032_Node000033"><a xlink:title=" ">
<path fill="none" stroke="#63b8ff" d="M1256.21,-164.98C1267.78,-156.92 1285.38,-144.65 1299.16,-135.03"/>
<polygon fill="#63b8ff" stroke="#63b8ff" points="1301.37,-137.76 1307.57,-129.17 1297.36,-132.02 1301.37,-137.76"/>
</a>
</g>
</g>
</g>
</svg>
