<?xml version="1.0" encoding="UTF-8" standalone="no"?>
<!DOCTYPE svg PUBLIC "-//W3C//DTD SVG 1.1//EN"
 "http://www.w3.org/Graphics/SVG/1.1/DTD/svg11.dtd">
<!-- Generated by graphviz version 2.43.0 (0)
 -->
<!-- Title: Realm::MetadataBase Pages: 1 -->
<svg width="1550pt" height="226pt"
 viewBox="0.00 0.00 1550.00 226.00" xmlns="http://www.w3.org/2000/svg" xmlns:xlink="http://www.w3.org/1999/xlink">
<g id="graph0" class="graph" transform="scale(1 1) rotate(0) translate(4 222)">
<title>Realm::MetadataBase</title>
<!-- Node1 -->
<g id="Node000001" class="node">
<title>Node1</title>
<g id="a_Node000001"><a xlink:title=" ">
<polygon fill="#999999" stroke="#666666" points="1542,-93 1417,-93 1417,-74 1542,-74 1542,-93"/>
<text text-anchor="middle" x="1479.5" y="-81" font-family="Helvetica,sans-Serif" font-size="10.00">Realm::MetadataBase</text>
</a>
</g>
</g>
<!-- Node2 -->
<g id="Node000002" class="node">
<title>Node2</title>
<g id="a_Node000002"><a xlink:href="classRealm_1_1UnfairMutex.html" target="_top" xlink:title=" ">
<polygon fill="white" stroke="#666666" points="600,-181 485,-181 485,-162 600,-162 600,-181"/>
<text text-anchor="middle" x="542.5" y="-169" font-family="Helvetica,sans-Serif" font-size="10.00">Realm::UnfairMutex</text>
</a>
</g>
</g>
<!-- Node2&#45;&gt;Node1 -->
<g id="edge1_Node000001_Node000002" class="edge">
<title>Node2&#45;&gt;Node1</title>
<g id="a_edge1_Node000001_Node000002"><a xlink:title=" ">
<path fill="none" stroke="#9a32cd" stroke-dasharray="5,2" d="M609.96,-180.04C657.96,-185.48 724.37,-191.5 783,-191.5 783,-191.5 783,-191.5 1209,-191.5 1296.1,-191.5 1320.46,-181.15 1399,-143.5 1426.76,-130.2 1454.35,-106.39 1468.59,-93.11"/>
<polygon fill="#9a32cd" stroke="#9a32cd" points="610.34,-176.56 600.01,-178.89 609.54,-183.51 610.34,-176.56"/>
</a>
</g>
<text text-anchor="middle" x="1004" y="-194.5" font-family="Helvetica,sans-Serif" font-size="10.00" fill="grey"> mutex</text>
</g>
<!-- Node10 -->
<g id="Node000010" class="node">
<title>Node10</title>
<g id="a_Node000010"><a xlink:href="classRealm_1_1NodeSetBitmask.html" target="_top" xlink:title=" ">
<polygon fill="white" stroke="#666666" points="852,-160 716,-160 716,-141 852,-141 852,-160"/>
<text text-anchor="middle" x="784" y="-148" font-family="Helvetica,sans-Serif" font-size="10.00">Realm::NodeSetBitmask</text>
</a>
</g>
</g>
<!-- Node2&#45;&gt;Node10 -->
<g id="edge11_Node000010_Node000002" class="edge">
<title>Node2&#45;&gt;Node10</title>
<g id="a_edge11_Node000010_Node000002"><a xlink:title=" ">
<path fill="none" stroke="#9a32cd" stroke-dasharray="5,2" d="M610.23,-165.65C643.09,-162.77 682.63,-159.3 715.58,-156.41"/>
<polygon fill="#9a32cd" stroke="#9a32cd" points="609.91,-162.16 600.26,-166.52 610.53,-169.14 609.91,-162.16"/>
</a>
</g>
<text text-anchor="middle" x="658" y="-168.5" font-family="Helvetica,sans-Serif" font-size="10.00" fill="grey"> free_list_mutex</text>
</g>
<!-- Node3 -->
<g id="Node000003" class="node">
<title>Node3</title>
<g id="a_Node000003"><a xlink:href="classRealm_1_1noncopyable.html" target="_top" xlink:title=" ">
<polygon fill="white" stroke="#666666" points="396,-218 280,-218 280,-199 396,-199 396,-218"/>
<text text-anchor="middle" x="338" y="-206" font-family="Helvetica,sans-Serif" font-size="10.00">Realm::noncopyable</text>
</a>
</g>
</g>
<!-- Node3&#45;&gt;Node2 -->
<g id="edge2_Node000002_Node000003" class="edge">
<title>Node3&#45;&gt;Node2</title>
<g id="a_edge2_Node000002_Node000003"><a xlink:title=" ">
<path fill="none" stroke="#63b8ff" d="M406.17,-197.33C425.8,-193.96 447.28,-190.18 467,-186.5 476.08,-184.81 485.76,-182.92 495.04,-181.07"/>
<polygon fill="#63b8ff" stroke="#63b8ff" points="405.36,-193.91 396.09,-199.05 406.54,-200.81 405.36,-193.91"/>
</a>
</g>
</g>
<!-- Node4 -->
<g id="Node000004" class="node">
<title>Node4</title>
<g id="a_Node000004"><a xlink:href="classRealm_1_1atomic.html" target="_top" xlink:title=" ">
<polygon fill="white" stroke="#666666" points="413,-181 263,-181 263,-162 413,-162 413,-181"/>
<text text-anchor="middle" x="338" y="-169" font-family="Helvetica,sans-Serif" font-size="10.00">Realm::atomic&lt; uint32_t &gt;</text>
</a>
</g>
</g>
<!-- Node4&#45;&gt;Node2 -->
<g id="edge3_Node000002_Node000004" class="edge">
<title>Node4&#45;&gt;Node2</title>
<g id="a_edge3_Node000002_Node000004"><a xlink:title=" ">
<path fill="none" stroke="#9a32cd" stroke-dasharray="5,2" d="M423.32,-171.5C444,-171.5 465.66,-171.5 484.7,-171.5"/>
<polygon fill="#9a32cd" stroke="#9a32cd" points="423.25,-168 413.25,-171.5 423.25,-175 423.25,-168"/>
</a>
</g>
<text text-anchor="middle" x="449" y="-174.5" font-family="Helvetica,sans-Serif" font-size="10.00" fill="grey"> state</text>
</g>
<!-- Node5 -->
<g id="Node000005" class="node">
<title>Node5</title>
<g id="a_Node000005"><a xlink:href="classRealm_1_1DoorbellList.html" target="_top" xlink:title=" ">
<polygon fill="white" stroke="#666666" points="394.5,-144 281.5,-144 281.5,-125 394.5,-125 394.5,-144"/>
<text text-anchor="middle" x="338" y="-132" font-family="Helvetica,sans-Serif" font-size="10.00">Realm::DoorbellList</text>
</a>
</g>
</g>
<!-- Node5&#45;&gt;Node2 -->
<g id="edge4_Node000002_Node000005" class="edge">
<title>Node5&#45;&gt;Node2</title>
<g id="a_edge4_Node000002_Node000005"><a xlink:title=" ">
<path fill="none" stroke="#9a32cd" stroke-dasharray="5,2" d="M404.49,-145.39C424.57,-148.82 446.71,-152.71 467,-156.5 476.08,-158.19 485.76,-160.08 495.04,-161.93"/>
<polygon fill="#9a32cd" stroke="#9a32cd" points="404.95,-141.92 394.51,-143.69 403.78,-148.82 404.95,-141.92"/>
</a>
</g>
<text text-anchor="middle" x="449" y="-159.5" font-family="Helvetica,sans-Serif" font-size="10.00" fill="grey"> db_list</text>
</g>
<!-- Node6 -->
<g id="Node000006" class="node">
<title>Node6</title>
<g id="a_Node000006"><a xlink:href="classRealm_1_1atomic.html" target="_top" xlink:title=" ">
<polygon fill="white" stroke="#666666" points="152,-144 0,-144 0,-125 152,-125 152,-144"/>
<text text-anchor="middle" x="76" y="-132" font-family="Helvetica,sans-Serif" font-size="10.00">Realm::atomic&lt; uintptr_t &gt;</text>
</a>
</g>
</g>
<!-- Node6&#45;&gt;Node5 -->
<g id="edge5_Node000005_Node000006" class="edge">
<title>Node6&#45;&gt;Node5</title>
<g id="a_edge5_Node000005_Node000006"><a xlink:title=" ">
<path fill="none" stroke="#9a32cd" stroke-dasharray="5,2" d="M162.52,-134.5C201.61,-134.5 246.79,-134.5 281.38,-134.5"/>
<polygon fill="#9a32cd" stroke="#9a32cd" points="162.2,-131 152.2,-134.5 162.2,-138 162.2,-131"/>
</a>
</g>
<text text-anchor="middle" x="207.5" y="-137.5" font-family="Helvetica,sans-Serif" font-size="10.00" fill="grey"> head_or_count</text>
</g>
<!-- Node7 -->
<g id="Node000007" class="node">
<title>Node7</title>
<g id="a_Node000007"><a xlink:href="classRealm_1_1Event.html" target="_top" xlink:title=" ">
<polygon fill="white" stroke="#666666" points="1249,-93 1167,-93 1167,-74 1249,-74 1249,-93"/>
<text text-anchor="middle" x="1208" y="-81" font-family="Helvetica,sans-Serif" font-size="10.00">Realm::Event</text>
</a>
</g>
</g>
<!-- Node7&#45;&gt;Node1 -->
<g id="edge6_Node000001_Node000007" class="edge">
<title>Node7&#45;&gt;Node1</title>
<g id="a_edge6_Node000001_Node000007"><a xlink:title=" ">
<path fill="none" stroke="#9a32cd" stroke-dasharray="5,2" d="M1259.09,-83.5C1303.72,-83.5 1369.17,-83.5 1416.97,-83.5"/>
<polygon fill="#9a32cd" stroke="#9a32cd" points="1259.06,-80 1249.06,-83.5 1259.06,-87 1259.06,-80"/>
</a>
</g>
<text text-anchor="middle" x="1347.5" y="-86.5" font-family="Helvetica,sans-Serif" font-size="10.00" fill="grey"> valid_event</text>
</g>
<!-- Node7&#45;&gt;Node7 -->
<g id="edge7_Node000007_Node000007" class="edge">
<title>Node7&#45;&gt;Node7</title>
<g id="a_edge7_Node000007_Node000007"><a xlink:title=" ">
<path fill="none" stroke="#9a32cd" stroke-dasharray="5,2" d="M1189.58,-102.91C1191.03,-107.56 1197.17,-111 1208,-111 1225.77,-111 1230.91,-101.73 1223.41,-93.08"/>
<polygon fill="#9a32cd" stroke="#9a32cd" points="1193.01,-103.67 1192.59,-93.08 1186.32,-101.62 1193.01,-103.67"/>
</a>
</g>
<text text-anchor="middle" x="1208" y="-114" font-family="Helvetica,sans-Serif" font-size="10.00" fill="grey"> NO_EVENT</text>
</g>
<!-- Node8 -->
<g id="Node000008" class="node">
<title>Node8</title>
<g id="a_Node000008"><a xlink:href="classRealm_1_1NodeSet.html" target="_top" xlink:title=" ">
<polygon fill="white" stroke="#666666" points="1255.5,-159 1160.5,-159 1160.5,-140 1255.5,-140 1255.5,-159"/>
<text text-anchor="middle" x="1208" y="-147" font-family="Helvetica,sans-Serif" font-size="10.00">Realm::NodeSet</text>
</a>
</g>
</g>
<!-- Node8&#45;&gt;Node1 -->
<g id="edge8_Node000001_Node000008" class="edge">
<title>Node8&#45;&gt;Node1</title>
<g id="a_edge8_Node000001_Node000008"><a xlink:title=" ">
<path fill="none" stroke="#9a32cd" stroke-dasharray="5,2" d="M1257.92,-137.52C1310.09,-124.74 1391.65,-104.77 1439.61,-93.02"/>
<polygon fill="#9a32cd" stroke="#9a32cd" points="1256.78,-134.2 1247.9,-139.97 1258.45,-140.99 1256.78,-134.2"/>
</a>
</g>
<text text-anchor="middle" x="1347.5" y="-131.5" font-family="Helvetica,sans-Serif" font-size="10.00" fill="grey"> remote_copies</text>
</g>
<!-- Node9 -->
<g id="Node000009" class="node">
<title>Node9</title>
<g id="a_Node000009"><a xlink:href="unionRealm_1_1NodeSet_1_1EncodingUnion.html" target="_top" xlink:title=" ">
<polygon fill="white" stroke="#666666" points="1077,-155.5 931,-155.5 931,-125.5 1077,-125.5 1077,-155.5"/>
<text text-anchor="start" x="939" y="-143.5" font-family="Helvetica,sans-Serif" font-size="10.00">Realm::NodeSet::Encoding</text>
<text text-anchor="middle" x="1004" y="-132.5" font-family="Helvetica,sans-Serif" font-size="10.00">Union</text>
</a>
</g>
</g>
<!-- Node9&#45;&gt;Node8 -->
<g id="edge9_Node000008_Node000009" class="edge">
<title>Node9&#45;&gt;Node8</title>
<g id="a_edge9_Node000008_Node000009"><a xlink:title=" ">
<path fill="none" stroke="#9a32cd" stroke-dasharray="5,2" d="M1087.28,-144.17C1112.23,-145.28 1138.77,-146.46 1160.5,-147.43"/>
<polygon fill="#9a32cd" stroke="#9a32cd" points="1087.22,-140.66 1077.07,-143.71 1086.91,-147.65 1087.22,-140.66"/>
</a>
</g>
<text text-anchor="middle" x="1107.5" y="-149.5" font-family="Helvetica,sans-Serif" font-size="10.00" fill="grey"> data</text>
</g>
<!-- Node10&#45;&gt;Node9 -->
<g id="edge10_Node000009_Node000010" class="edge">
<title>Node10&#45;&gt;Node9</title>
<g id="a_edge10_Node000009_Node000010"><a xlink:title=" ">
<path fill="none" stroke="#9a32cd" stroke-dasharray="5,2" d="M862.27,-146.96C884.55,-145.93 908.77,-144.82 930.74,-143.81"/>
<polygon fill="#9a32cd" stroke="#9a32cd" points="862.02,-143.46 852.19,-147.42 862.34,-150.46 862.02,-143.46"/>
</a>
</g>
<text text-anchor="middle" x="891.5" y="-149.5" font-family="Helvetica,sans-Serif" font-size="10.00" fill="grey"> bitmask</text>
</g>
<!-- Node11 -->
<g id="Node000011" class="node">
<title>Node11</title>
<g id="a_Node000011"><a xlink:href="classRealm_1_1atomic.html" target="_top" xlink:title=" ">
<polygon fill="white" stroke="#666666" points="1278,-56 1138,-56 1138,-37 1278,-37 1278,-56"/>
<text text-anchor="middle" x="1208" y="-44" font-family="Helvetica,sans-Serif" font-size="10.00">Realm::atomic&lt; char * &gt;</text>
</a>
</g>
</g>
<!-- Node11&#45;&gt;Node1 -->
<g id="edge12_Node000001_Node000011" class="edge">
<title>Node11&#45;&gt;Node1</title>
<g id="a_edge12_Node000001_Node000011"><a xlink:title=" ">
<path fill="none" stroke="#9a32cd" stroke-dasharray="5,2" d="M1288.57,-54.44C1322.65,-58.17 1362.85,-63 1399,-68.5 1409.41,-70.08 1420.55,-72.03 1431.09,-73.98"/>
<polygon fill="#9a32cd" stroke="#9a32cd" points="1288.52,-50.91 1278.2,-53.32 1287.76,-57.87 1288.52,-50.91"/>
</a>
</g>
<text text-anchor="middle" x="1347.5" y="-71.5" font-family="Helvetica,sans-Serif" font-size="10.00" fill="grey"> frag_buffer</text>
</g>
<!-- Node12 -->
<g id="Node000012" class="node">
<title>Node12</title>
<g id="a_Node000012"><a xlink:href="classRealm_1_1atomic.html" target="_top" xlink:title=" ">
<polygon fill="white" stroke="#666666" points="1277.5,-19 1138.5,-19 1138.5,0 1277.5,0 1277.5,-19"/>
<text text-anchor="middle" x="1208" y="-7" font-family="Helvetica,sans-Serif" font-size="10.00">Realm::atomic&lt; size_t &gt;</text>
</a>
</g>
</g>
<!-- Node12&#45;&gt;Node1 -->
<g id="edge13_Node000001_Node000012" class="edge">
<title>Node12&#45;&gt;Node1</title>
<g id="a_edge13_Node000001_Node000012"><a xlink:title=" ">
<path fill="none" stroke="#9a32cd" stroke-dasharray="5,2" d="M1287.66,-17.03C1322.42,-21.8 1363.39,-29.44 1399,-41.5 1422.95,-49.61 1448.43,-64.27 1463.9,-73.95"/>
<polygon fill="#9a32cd" stroke="#9a32cd" points="1287.93,-13.53 1277.56,-15.7 1287.02,-20.47 1287.93,-13.53"/>
</a>
</g>
<text text-anchor="middle" x="1347.5" y="-44.5" font-family="Helvetica,sans-Serif" font-size="10.00" fill="grey"> frag_bytes_received</text>
</g>
</g>
</svg>
