<?xml version="1.0" encoding="UTF-8" standalone="no"?>
<!DOCTYPE svg PUBLIC "-//W3C//DTD SVG 1.1//EN"
 "http://www.w3.org/Graphics/SVG/1.1/DTD/svg11.dtd">
<!-- Generated by graphviz version 2.43.0 (0)
 -->
<!-- Title: Realm::RWLock Pages: 1 -->
<svg width="296pt" height="93pt"
 viewBox="0.00 0.00 295.50 93.00" xmlns="http://www.w3.org/2000/svg" xmlns:xlink="http://www.w3.org/1999/xlink">
<g id="graph0" class="graph" transform="scale(1 1) rotate(0) translate(4 89)">
<title>Realm::RWLock</title>
<!-- Node1 -->
<g id="Node000001" class="node">
<title>Node1</title>
<g id="a_Node000001"><a xlink:title=" ">
<polygon fill="#999999" stroke="#666666" points="186,-85 93,-85 93,-66 186,-66 186,-85"/>
<text text-anchor="middle" x="139.5" y="-73" font-family="Helvetica,sans-Serif" font-size="10.00">Realm::RWLock</text>
</a>
</g>
</g>
<!-- Node2 -->
<g id="Node000002" class="node">
<title>Node2</title>
<g id="a_Node000002"><a xlink:href="structRealm_1_1RWLock_1_1Writer.html" target="_top" xlink:title=" ">
<polygon fill="white" stroke="#666666" points="129,-19 0,-19 0,0 129,0 129,-19"/>
<text text-anchor="middle" x="64.5" y="-7" font-family="Helvetica,sans-Serif" font-size="10.00">Realm::RWLock::Writer</text>
</a>
</g>
</g>
<!-- Node1&#45;&gt;Node2 -->
<g id="edge2_Node000002_Node000001" class="edge">
<title>Node1&#45;&gt;Node2</title>
<g id="a_edge2_Node000002_Node000001"><a xlink:title=" ">
<path fill="none" stroke="#9a32cd" stroke-dasharray="5,2" d="M82.88,-66.1C73.33,-62.12 64.56,-56.36 58.5,-48 52.39,-39.57 56.1,-27.26 59.85,-19.07"/>
<polygon fill="#9a32cd" stroke="#9a32cd" points="82.03,-69.51 92.63,-69.5 84.34,-62.9 82.03,-69.51"/>
</a>
</g>
<text text-anchor="middle" x="76.5" y="-40" font-family="Helvetica,sans-Serif" font-size="10.00" fill="grey"> rwlock</text>
</g>
<!-- Node3 -->
<g id="Node000003" class="node">
<title>Node3</title>
<g id="a_Node000003"><a xlink:href="structRealm_1_1RWLock_1_1Reader.html" target="_top" xlink:title=" ">
<polygon fill="white" stroke="#666666" points="287.5,-19 153.5,-19 153.5,0 287.5,0 287.5,-19"/>
<text text-anchor="middle" x="220.5" y="-7" font-family="Helvetica,sans-Serif" font-size="10.00">Realm::RWLock::Reader</text>
</a>
</g>
</g>
<!-- Node1&#45;&gt;Node3 -->
<g id="edge4_Node000003_Node000001" class="edge">
<title>Node1&#45;&gt;Node3</title>
<g id="a_edge4_Node000003_Node000001"><a xlink:title=" ">
<path fill="none" stroke="#9a32cd" stroke-dasharray="5,2" d="M148.71,-56.58C152.84,-49.8 158.21,-42.43 164.5,-37 173.37,-29.34 184.84,-23.4 195.09,-19.1"/>
<polygon fill="#9a32cd" stroke="#9a32cd" points="145.39,-55.34 143.57,-65.77 151.5,-58.75 145.39,-55.34"/>
</a>
</g>
<text text-anchor="middle" x="182.5" y="-40" font-family="Helvetica,sans-Serif" font-size="10.00" fill="grey"> rwlock</text>
</g>
<!-- Node2&#45;&gt;Node1 -->
<g id="edge1_Node000001_Node000002" class="edge">
<title>Node2&#45;&gt;Node1</title>
<g id="a_edge1_Node000001_Node000002"><a xlink:title=" ">
<path fill="none" stroke="#9a32cd" stroke-dasharray="5,2" d="M82.85,-26.15C97.5,-38.66 117.49,-55.71 129.39,-65.87"/>
<polygon fill="#9a32cd" stroke="#9a32cd" points="84.81,-23.23 74.94,-19.41 80.27,-28.56 84.81,-23.23"/>
</a>
</g>
<text text-anchor="middle" x="122.5" y="-40" font-family="Helvetica,sans-Serif" font-size="10.00" fill="grey"> writer</text>
</g>
<!-- Node3&#45;&gt;Node1 -->
<g id="edge3_Node000001_Node000003" class="edge">
<title>Node3&#45;&gt;Node1</title>
<g id="a_edge3_Node000001_Node000003"><a xlink:title=" ">
<path fill="none" stroke="#9a32cd" stroke-dasharray="5,2" d="M215.9,-28.81C213.44,-35.54 209.8,-42.79 204.5,-48 196.25,-56.12 185.17,-61.86 174.5,-65.87"/>
<polygon fill="#9a32cd" stroke="#9a32cd" points="219.31,-29.6 218.84,-19.01 212.61,-27.58 219.31,-29.6"/>
</a>
</g>
<text text-anchor="middle" x="229" y="-40" font-family="Helvetica,sans-Serif" font-size="10.00" fill="grey"> reader</text>
</g>
</g>
</svg>
