<?xml version="1.0" encoding="UTF-8" standalone="no"?>
<!DOCTYPE svg PUBLIC "-//W3C//DTD SVG 1.1//EN"
 "http://www.w3.org/Graphics/SVG/1.1/DTD/svg11.dtd">
<!-- Generated by graphviz version 2.43.0 (0)
 -->
<!-- Title: PRealm::AffineAccessor&lt; FT, N, T &gt; Pages: 1 -->
<svg width="151pt" height="171pt"
 viewBox="0.00 0.00 151.00 171.00" xmlns="http://www.w3.org/2000/svg" xmlns:xlink="http://www.w3.org/1999/xlink">
<g id="graph0" class="graph" transform="scale(1 1) rotate(0) translate(4 167)">
<title>PRealm::AffineAccessor&lt; FT, N, T &gt;</title>
<!-- Node1 -->
<g id="Node000001" class="node">
<title>Node1</title>
<g id="a_Node000001"><a xlink:title=" ">
<polygon fill="#999999" stroke="#666666" points="137.5,-30 5.5,-30 5.5,0 137.5,0 137.5,-30"/>
<text text-anchor="start" x="13.5" y="-18" font-family="Helvetica,sans-Serif" font-size="10.00">PRealm::AffineAccessor</text>
<text text-anchor="middle" x="71.5" y="-7" font-family="Helvetica,sans-Serif" font-size="10.00">&lt; FT, N, T &gt;</text>
</a>
</g>
</g>
<!-- Node2 -->
<g id="Node000002" class="node">
<title>Node2</title>
<g id="a_Node000002"><a xlink:href="classRealm_1_1AffineAccessor.html" target="_top" xlink:title=" ">
<polygon fill="white" stroke="#666666" points="134.5,-97 8.5,-97 8.5,-67 134.5,-67 134.5,-97"/>
<text text-anchor="start" x="16.5" y="-85" font-family="Helvetica,sans-Serif" font-size="10.00">Realm::AffineAccessor</text>
<text text-anchor="middle" x="71.5" y="-74" font-family="Helvetica,sans-Serif" font-size="10.00">&lt; FT, N, T &gt;</text>
</a>
</g>
</g>
<!-- Node2&#45;&gt;Node1 -->
<g id="edge1_Node000001_Node000002" class="edge">
<title>Node2&#45;&gt;Node1</title>
<g id="a_edge1_Node000001_Node000002"><a xlink:title=" ">
<path fill="none" stroke="#63b8ff" d="M71.5,-56.61C71.5,-47.65 71.5,-37.82 71.5,-30.08"/>
<polygon fill="#63b8ff" stroke="#63b8ff" points="68,-56.9 71.5,-66.9 75,-56.9 68,-56.9"/>
</a>
</g>
</g>
<!-- Node3 -->
<g id="Node000003" class="node">
<title>Node3</title>
<g id="a_Node000003"><a xlink:href="structRealm_1_1Point.html" target="_top" xlink:title=" ">
<polygon fill="white" stroke="#666666" points="143,-163 0,-163 0,-144 143,-144 143,-163"/>
<text text-anchor="middle" x="71.5" y="-151" font-family="Helvetica,sans-Serif" font-size="10.00">Realm::Point&lt; N, size_t &gt;</text>
</a>
</g>
</g>
<!-- Node3&#45;&gt;Node2 -->
<g id="edge2_Node000002_Node000003" class="edge">
<title>Node3&#45;&gt;Node2</title>
<g id="a_edge2_Node000002_Node000003"><a xlink:title=" ">
<path fill="none" stroke="#9a32cd" stroke-dasharray="5,2" d="M71.5,-133.71C71.5,-122.19 71.5,-107.68 71.5,-97.14"/>
<polygon fill="#9a32cd" stroke="#9a32cd" points="68,-133.98 71.5,-143.98 75,-133.98 68,-133.98"/>
</a>
</g>
<text text-anchor="middle" x="90" y="-118" font-family="Helvetica,sans-Serif" font-size="10.00" fill="grey"> strides</text>
</g>
</g>
</svg>
