<?xml version="1.0" encoding="UTF-8" standalone="no"?>
<!DOCTYPE svg PUBLIC "-//W3C//DTD SVG 1.1//EN"
 "http://www.w3.org/Graphics/SVG/1.1/DTD/svg11.dtd">
<!-- Generated by graphviz version 2.43.0 (0)
 -->
<!-- Title: Graphical Class Hierarchy Pages: 1 -->
<svg width="369pt" height="64pt"
 viewBox="0.00 0.00 369.00 64.00" xmlns="http://www.w3.org/2000/svg" xmlns:xlink="http://www.w3.org/1999/xlink">
<g id="graph0" class="graph" transform="scale(1 1) rotate(0) translate(4 60)">
<title>Graphical Class Hierarchy</title>
<!-- Node0 -->
<g id="Node000000" class="node">
<title>Node0</title>
<g id="a_Node000000"><a xlink:title=" ">
<polygon fill="#e0e0e0" stroke="#999999" points="89.5,-56 3.5,-56 3.5,-37 89.5,-37 89.5,-56"/>
<text text-anchor="middle" x="46.5" y="-44" font-family="Helvetica,sans-Serif" font-size="10.00">MemoryQuery</text>
</a>
</g>
</g>
<!-- Node1 -->
<g id="Node000001" class="node">
<title>Node1</title>
<g id="a_Node000001"><a xlink:href="classRealm_1_1Machine.html" target="_top" xlink:title=" ">
<polygon fill="white" stroke="#666666" points="224,-37 129,-37 129,-18 224,-18 224,-37"/>
<text text-anchor="middle" x="176.5" y="-25" font-family="Helvetica,sans-Serif" font-size="10.00">Realm::Machine</text>
</a>
</g>
</g>
<!-- Node0&#45;&gt;Node1 -->
<g id="edge1_Node000000_Node000001" class="edge">
<title>Node0&#45;&gt;Node1</title>
<g id="a_edge1_Node000000_Node000001"><a xlink:title=" ">
<path fill="none" stroke="#8b1a1a" d="M99.67,-38.76C109.33,-37.32 119.37,-35.83 128.86,-34.42"/>
<polygon fill="#8b1a1a" stroke="#8b1a1a" points="99.14,-35.3 89.77,-40.23 100.17,-42.22 99.14,-35.3"/>
</a>
</g>
</g>
<!-- Node2 -->
<g id="Node000002" class="node">
<title>Node2</title>
<g id="a_Node000002"><a xlink:href="classPRealm_1_1Machine.html" target="_top" xlink:title=" ">
<polygon fill="white" stroke="#666666" points="361,-37 260,-37 260,-18 361,-18 361,-37"/>
<text text-anchor="middle" x="310.5" y="-25" font-family="Helvetica,sans-Serif" font-size="10.00">PRealm::Machine</text>
</a>
</g>
</g>
<!-- Node1&#45;&gt;Node2 -->
<g id="edge2_Node000001_Node000002" class="edge">
<title>Node1&#45;&gt;Node2</title>
<g id="a_edge2_Node000001_Node000002"><a xlink:title=" ">
<path fill="none" stroke="#63b8ff" d="M234.26,-27.5C242.76,-27.5 251.46,-27.5 259.8,-27.5"/>
<polygon fill="#63b8ff" stroke="#63b8ff" points="234.04,-24 224.04,-27.5 234.04,-31 234.04,-24"/>
</a>
</g>
</g>
<!-- Node3 -->
<g id="Node000003" class="node">
<title>Node3</title>
<g id="a_Node000003"><a xlink:title=" ">
<polygon fill="#e0e0e0" stroke="#999999" points="93,-19 0,-19 0,0 93,0 93,-19"/>
<text text-anchor="middle" x="46.5" y="-7" font-family="Helvetica,sans-Serif" font-size="10.00">ProcessorQuery</text>
</a>
</g>
</g>
<!-- Node3&#45;&gt;Node1 -->
<g id="edge3_Node000003_Node000001" class="edge">
<title>Node3&#45;&gt;Node1</title>
<g id="a_edge3_Node000003_Node000001"><a xlink:title=" ">
<path fill="none" stroke="#8b1a1a" d="M103.48,-17.37C111.89,-18.55 120.48,-19.76 128.68,-20.92"/>
<polygon fill="#8b1a1a" stroke="#8b1a1a" points="103.74,-13.87 93.35,-15.95 102.76,-20.81 103.74,-13.87"/>
</a>
</g>
</g>
</g>
</svg>
