<?xml version="1.0" encoding="UTF-8" standalone="no"?>
<!DOCTYPE svg PUBLIC "-//W3C//DTD SVG 1.1//EN"
 "http://www.w3.org/Graphics/SVG/1.1/DTD/svg11.dtd">
<!-- Generated by graphviz version 2.43.0 (0)
 -->
<!-- Title: /home/runner/work/realm/realm/realm&#45;src/src/realm/inst_layout.h Pages: 1 -->
<svg width="1045pt" height="511pt"
 viewBox="0.00 0.00 1045.00 511.00" xmlns="http://www.w3.org/2000/svg" xmlns:xlink="http://www.w3.org/1999/xlink">
<g id="graph0" class="graph" transform="scale(1 1) rotate(0) translate(4 507)">
<title>/home/runner/work/realm/realm/realm&#45;src/src/realm/inst_layout.h</title>
<!-- Node1 -->
<g id="Node000001" class="node">
<title>Node1</title>
<g id="a_Node000001"><a xlink:title=" ">
<polygon fill="#999999" stroke="#666666" points="709,-503 563,-503 563,-462 709,-462 709,-503"/>
<text text-anchor="start" x="571" y="-491" font-family="Helvetica,sans-Serif" font-size="10.00">/home/runner/work/realm</text>
<text text-anchor="start" x="571" y="-480" font-family="Helvetica,sans-Serif" font-size="10.00">/realm/realm&#45;src/src/realm</text>
<text text-anchor="middle" x="636" y="-469" font-family="Helvetica,sans-Serif" font-size="10.00">/inst_layout.h</text>
</a>
</g>
</g>
<!-- Node2 -->
<g id="Node000002" class="node">
<title>Node2</title>
<g id="a_Node000002"><a xlink:href="cuda__access_8h.html" target="_top" xlink:title=" ">
<polygon fill="white" stroke="#666666" points="381,-426 235,-426 235,-385 381,-385 381,-426"/>
<text text-anchor="start" x="243" y="-414" font-family="Helvetica,sans-Serif" font-size="10.00">/home/runner/work/realm</text>
<text text-anchor="start" x="243" y="-403" font-family="Helvetica,sans-Serif" font-size="10.00">/realm/realm&#45;src/src/realm</text>
<text text-anchor="middle" x="308" y="-392" font-family="Helvetica,sans-Serif" font-size="10.00">/cuda/cuda_access.h</text>
</a>
</g>
</g>
<!-- Node1&#45;&gt;Node2 -->
<g id="edge1_Node000001_Node000002" class="edge">
<title>Node1&#45;&gt;Node2</title>
<g id="a_edge1_Node000001_Node000002"><a xlink:title=" ">
<path fill="none" stroke="#63b8ff" d="M552.79,-462.98C505.1,-452.3 444.15,-438.55 390,-426 387.15,-425.34 384.24,-424.66 381.31,-423.98"/>
<polygon fill="#63b8ff" stroke="#63b8ff" points="552.23,-466.44 562.75,-465.21 553.76,-459.61 552.23,-466.44"/>
</a>
</g>
</g>
<!-- Node3 -->
<g id="Node000003" class="node">
<title>Node3</title>
<g id="a_Node000003"><a xlink:href="hdf5__access_8h.html" target="_top" xlink:title=" ">
<polygon fill="white" stroke="#666666" points="545,-426 399,-426 399,-385 545,-385 545,-426"/>
<text text-anchor="start" x="407" y="-414" font-family="Helvetica,sans-Serif" font-size="10.00">/home/runner/work/realm</text>
<text text-anchor="start" x="407" y="-403" font-family="Helvetica,sans-Serif" font-size="10.00">/realm/realm&#45;src/src/realm</text>
<text text-anchor="middle" x="472" y="-392" font-family="Helvetica,sans-Serif" font-size="10.00">/hdf5/hdf5_access.h</text>
</a>
</g>
</g>
<!-- Node1&#45;&gt;Node3 -->
<g id="edge2_Node000001_Node000003" class="edge">
<title>Node1&#45;&gt;Node3</title>
<g id="a_edge2_Node000001_Node000003"><a xlink:title=" ">
<path fill="none" stroke="#63b8ff" d="M584.01,-457.72C561.68,-447.51 535.92,-435.73 514.73,-426.04"/>
<polygon fill="#63b8ff" stroke="#63b8ff" points="582.79,-461.01 593.34,-461.99 585.7,-454.65 582.79,-461.01"/>
</a>
</g>
</g>
<!-- Node4 -->
<g id="Node000004" class="node">
<title>Node4</title>
<g id="a_Node000004"><a xlink:href="hip__access_8h.html" target="_top" xlink:title=" ">
<polygon fill="white" stroke="#666666" points="709,-426 563,-426 563,-385 709,-385 709,-426"/>
<text text-anchor="start" x="571" y="-414" font-family="Helvetica,sans-Serif" font-size="10.00">/home/runner/work/realm</text>
<text text-anchor="start" x="571" y="-403" font-family="Helvetica,sans-Serif" font-size="10.00">/realm/realm&#45;src/src/realm</text>
<text text-anchor="middle" x="636" y="-392" font-family="Helvetica,sans-Serif" font-size="10.00">/hip/hip_access.h</text>
</a>
</g>
</g>
<!-- Node1&#45;&gt;Node4 -->
<g id="edge3_Node000001_Node000004" class="edge">
<title>Node1&#45;&gt;Node4</title>
<g id="a_edge3_Node000001_Node000004"><a xlink:title=" ">
<path fill="none" stroke="#63b8ff" d="M636,-451.69C636,-443.08 636,-433.9 636,-426.07"/>
<polygon fill="#63b8ff" stroke="#63b8ff" points="632.5,-451.79 636,-461.79 639.5,-451.79 632.5,-451.79"/>
</a>
</g>
</g>
<!-- Node5 -->
<g id="Node000005" class="node">
<title>Node5</title>
<g id="a_Node000005"><a xlink:href="inst__impl_8h.html" target="_top" xlink:title=" ">
<polygon fill="white" stroke="#666666" points="873,-426 727,-426 727,-385 873,-385 873,-426"/>
<text text-anchor="start" x="735" y="-414" font-family="Helvetica,sans-Serif" font-size="10.00">/home/runner/work/realm</text>
<text text-anchor="start" x="735" y="-403" font-family="Helvetica,sans-Serif" font-size="10.00">/realm/realm&#45;src/src/realm</text>
<text text-anchor="middle" x="800" y="-392" font-family="Helvetica,sans-Serif" font-size="10.00">/inst_impl.h</text>
</a>
</g>
</g>
<!-- Node1&#45;&gt;Node5 -->
<g id="edge4_Node000001_Node000005" class="edge">
<title>Node1&#45;&gt;Node5</title>
<g id="a_edge4_Node000001_Node000005"><a xlink:title=" ">
<path fill="none" stroke="#63b8ff" d="M687.99,-457.72C710.32,-447.51 736.08,-435.73 757.27,-426.04"/>
<polygon fill="#63b8ff" stroke="#63b8ff" points="686.3,-454.65 678.66,-461.99 689.21,-461.01 686.3,-454.65"/>
</a>
</g>
</g>
<!-- Node20 -->
<g id="Node000020" class="node">
<title>Node20</title>
<g id="a_Node000020"><a xlink:href="transfer__utils_8h.html" target="_top" xlink:title=" ">
<polygon fill="white" stroke="#666666" points="1037,-426 891,-426 891,-385 1037,-385 1037,-426"/>
<text text-anchor="start" x="899" y="-414" font-family="Helvetica,sans-Serif" font-size="10.00">/home/runner/work/realm</text>
<text text-anchor="start" x="899" y="-403" font-family="Helvetica,sans-Serif" font-size="10.00">/realm/realm&#45;src/src/realm</text>
<text text-anchor="middle" x="964" y="-392" font-family="Helvetica,sans-Serif" font-size="10.00">/transfer/transfer_utils.h</text>
</a>
</g>
</g>
<!-- Node1&#45;&gt;Node20 -->
<g id="edge25_Node000001_Node000020" class="edge">
<title>Node1&#45;&gt;Node20</title>
<g id="a_edge25_Node000001_Node000020"><a xlink:title=" ">
<path fill="none" stroke="#63b8ff" d="M719.21,-462.98C766.9,-452.3 827.85,-438.55 882,-426 884.85,-425.34 887.76,-424.66 890.69,-423.98"/>
<polygon fill="#63b8ff" stroke="#63b8ff" points="718.24,-459.61 709.25,-465.21 719.77,-466.44 718.24,-459.61"/>
</a>
</g>
</g>
<!-- Node6 -->
<g id="Node000006" class="node">
<title>Node6</title>
<g id="a_Node000006"><a xlink:href="channel_8h.html" target="_top" xlink:title=" ">
<polygon fill="white" stroke="#666666" points="628,-349 482,-349 482,-308 628,-308 628,-349"/>
<text text-anchor="start" x="490" y="-337" font-family="Helvetica,sans-Serif" font-size="10.00">/home/runner/work/realm</text>
<text text-anchor="start" x="490" y="-326" font-family="Helvetica,sans-Serif" font-size="10.00">/realm/realm&#45;src/src/realm</text>
<text text-anchor="middle" x="555" y="-315" font-family="Helvetica,sans-Serif" font-size="10.00">/transfer/channel.h</text>
</a>
</g>
</g>
<!-- Node5&#45;&gt;Node6 -->
<g id="edge5_Node000005_Node000006" class="edge">
<title>Node5&#45;&gt;Node6</title>
<g id="a_edge5_Node000005_Node000006"><a xlink:title=" ">
<path fill="none" stroke="#63b8ff" d="M726.32,-381.94C692.08,-371.46 651.76,-359.12 618.84,-349.04"/>
<polygon fill="#63b8ff" stroke="#63b8ff" points="725.68,-385.41 736.27,-384.99 727.73,-378.72 725.68,-385.41"/>
</a>
</g>
</g>
<!-- Node12 -->
<g id="Node000012" class="node">
<title>Node12</title>
<g id="a_Node000012"><a xlink:href="lowlevel__dma_8h.html" target="_top" xlink:title=" ">
<polygon fill="white" stroke="#666666" points="923,-118 777,-118 777,-77 923,-77 923,-118"/>
<text text-anchor="start" x="785" y="-106" font-family="Helvetica,sans-Serif" font-size="10.00">/home/runner/work/realm</text>
<text text-anchor="start" x="785" y="-95" font-family="Helvetica,sans-Serif" font-size="10.00">/realm/realm&#45;src/src/realm</text>
<text text-anchor="middle" x="850" y="-84" font-family="Helvetica,sans-Serif" font-size="10.00">/transfer/lowlevel_dma.h</text>
</a>
</g>
</g>
<!-- Node5&#45;&gt;Node12 -->
<g id="edge23_Node000005_Node000012" class="edge">
<title>Node5&#45;&gt;Node12</title>
<g id="a_edge23_Node000005_Node000012"><a xlink:title=" ">
<path fill="none" stroke="#63b8ff" d="M823.75,-376.61C843.69,-351.23 870.7,-311.74 882,-272 896.35,-221.56 895.56,-204.66 882,-154 878.58,-141.21 871.42,-128.32 864.74,-118.19"/>
<polygon fill="#63b8ff" stroke="#63b8ff" points="820.82,-374.67 817.29,-384.66 826.27,-379.06 820.82,-374.67"/>
</a>
</g>
</g>
<!-- Node14 -->
<g id="Node000014" class="node">
<title>Node14</title>
<g id="a_Node000014"><a xlink:href="transfer_8h.html" target="_top" xlink:title=" ">
<polygon fill="white" stroke="#666666" points="873,-272 727,-272 727,-231 873,-231 873,-272"/>
<text text-anchor="start" x="735" y="-260" font-family="Helvetica,sans-Serif" font-size="10.00">/home/runner/work/realm</text>
<text text-anchor="start" x="735" y="-249" font-family="Helvetica,sans-Serif" font-size="10.00">/realm/realm&#45;src/src/realm</text>
<text text-anchor="middle" x="800" y="-238" font-family="Helvetica,sans-Serif" font-size="10.00">/transfer/transfer.h</text>
</a>
</g>
</g>
<!-- Node5&#45;&gt;Node14 -->
<g id="edge24_Node000005_Node000014" class="edge">
<title>Node5&#45;&gt;Node14</title>
<g id="a_edge24_Node000005_Node000014"><a xlink:title=" ">
<path fill="none" stroke="#63b8ff" d="M800,-374.58C800,-344.36 800,-298.53 800,-272.47"/>
<polygon fill="#63b8ff" stroke="#63b8ff" points="796.5,-374.94 800,-384.94 803.5,-374.94 796.5,-374.94"/>
</a>
</g>
</g>
<!-- Node7 -->
<g id="Node000007" class="node">
<title>Node7</title>
<g id="a_Node000007"><a xlink:href="cuda__internal_8h.html" target="_top" xlink:title=" ">
<polygon fill="white" stroke="#666666" points="310,-41 164,-41 164,0 310,0 310,-41"/>
<text text-anchor="start" x="172" y="-29" font-family="Helvetica,sans-Serif" font-size="10.00">/home/runner/work/realm</text>
<text text-anchor="start" x="172" y="-18" font-family="Helvetica,sans-Serif" font-size="10.00">/realm/realm&#45;src/src/realm</text>
<text text-anchor="middle" x="237" y="-7" font-family="Helvetica,sans-Serif" font-size="10.00">/cuda/cuda_internal.h</text>
</a>
</g>
</g>
<!-- Node6&#45;&gt;Node7 -->
<g id="edge6_Node000006_Node000007" class="edge">
<title>Node6&#45;&gt;Node7</title>
<g id="a_edge6_Node000006_Node000007"><a xlink:title=" ">
<path fill="none" stroke="#63b8ff" d="M511.01,-302.51C496.74,-293.62 481.2,-283.05 468,-272 466.5,-270.74 309.07,-99.78 254.99,-41.04"/>
<polygon fill="#63b8ff" stroke="#63b8ff" points="509.34,-305.6 519.7,-307.83 512.99,-299.62 509.34,-305.6"/>
</a>
</g>
</g>
<!-- Node8 -->
<g id="Node000008" class="node">
<title>Node8</title>
<g id="a_Node000008"><a xlink:href="hdf5__internal_8h.html" target="_top" xlink:title=" ">
<polygon fill="white" stroke="#666666" points="974,-41 828,-41 828,0 974,0 974,-41"/>
<text text-anchor="start" x="836" y="-29" font-family="Helvetica,sans-Serif" font-size="10.00">/home/runner/work/realm</text>
<text text-anchor="start" x="836" y="-18" font-family="Helvetica,sans-Serif" font-size="10.00">/realm/realm&#45;src/src/realm</text>
<text text-anchor="middle" x="901" y="-7" font-family="Helvetica,sans-Serif" font-size="10.00">/hdf5/hdf5_internal.h</text>
</a>
</g>
</g>
<!-- Node6&#45;&gt;Node8 -->
<g id="edge7_Node000006_Node000008" class="edge">
<title>Node6&#45;&gt;Node8</title>
<g id="a_edge7_Node000006_Node000008"><a xlink:title=" ">
<path fill="none" stroke="#63b8ff" d="M605.12,-302.61C618.37,-294.26 631.8,-283.97 642,-272 679.04,-228.5 661.21,-201.47 693,-154 719.58,-114.31 728.49,-103.85 768,-77 789.83,-62.16 816.26,-50.13 839.78,-41.11"/>
<polygon fill="#63b8ff" stroke="#63b8ff" points="603.24,-299.66 596.48,-307.81 606.85,-305.65 603.24,-299.66"/>
</a>
</g>
</g>
<!-- Node9 -->
<g id="Node000009" class="node">
<title>Node9</title>
<g id="a_Node000009"><a xlink:href="hip__internal_8h.html" target="_top" xlink:title=" ">
<polygon fill="white" stroke="#666666" points="146,-41 0,-41 0,0 146,0 146,-41"/>
<text text-anchor="start" x="8" y="-29" font-family="Helvetica,sans-Serif" font-size="10.00">/home/runner/work/realm</text>
<text text-anchor="start" x="8" y="-18" font-family="Helvetica,sans-Serif" font-size="10.00">/realm/realm&#45;src/src/realm</text>
<text text-anchor="middle" x="73" y="-7" font-family="Helvetica,sans-Serif" font-size="10.00">/hip/hip_internal.h</text>
</a>
</g>
</g>
<!-- Node6&#45;&gt;Node9 -->
<g id="edge8_Node000006_Node000009" class="edge">
<title>Node6&#45;&gt;Node9</title>
<g id="a_edge8_Node000006_Node000009"><a xlink:title=" ">
<path fill="none" stroke="#63b8ff" d="M471.87,-323.18C345.71,-315.81 117.76,-298.9 92,-272 30.77,-208.04 54.7,-88 67.23,-41.04"/>
<polygon fill="#63b8ff" stroke="#63b8ff" points="471.71,-326.68 481.89,-323.76 472.11,-319.69 471.71,-326.68"/>
</a>
</g>
</g>
<!-- Node10 -->
<g id="Node000010" class="node">
<title>Node10</title>
<g id="a_Node000010"><a xlink:href="addrsplit__channel_8h.html" target="_top" xlink:title=" ">
<polygon fill="white" stroke="#666666" points="257,-272 101,-272 101,-231 257,-231 257,-272"/>
<text text-anchor="start" x="109" y="-260" font-family="Helvetica,sans-Serif" font-size="10.00">/home/runner/work/realm</text>
<text text-anchor="start" x="109" y="-249" font-family="Helvetica,sans-Serif" font-size="10.00">/realm/realm&#45;src/src/realm</text>
<text text-anchor="middle" x="179" y="-238" font-family="Helvetica,sans-Serif" font-size="10.00">/transfer/addrsplit_channel.h</text>
</a>
</g>
</g>
<!-- Node6&#45;&gt;Node10 -->
<g id="edge9_Node000006_Node000010" class="edge">
<title>Node6&#45;&gt;Node10</title>
<g id="a_edge9_Node000006_Node000010"><a xlink:title=" ">
<path fill="none" stroke="#63b8ff" d="M471.65,-312.2C413.84,-301.41 335.13,-286.38 266,-272 263.12,-271.4 260.19,-270.78 257.23,-270.15"/>
<polygon fill="#63b8ff" stroke="#63b8ff" points="471.36,-315.7 481.83,-314.09 472.64,-308.82 471.36,-315.7"/>
</a>
</g>
</g>
<!-- Node11 -->
<g id="Node000011" class="node">
<title>Node11</title>
<g id="a_Node000011"><a xlink:href="channel__disk_8h.html" target="_top" xlink:title=" ">
<polygon fill="white" stroke="#666666" points="421,-272 275,-272 275,-231 421,-231 421,-272"/>
<text text-anchor="start" x="283" y="-260" font-family="Helvetica,sans-Serif" font-size="10.00">/home/runner/work/realm</text>
<text text-anchor="start" x="283" y="-249" font-family="Helvetica,sans-Serif" font-size="10.00">/realm/realm&#45;src/src/realm</text>
<text text-anchor="middle" x="348" y="-238" font-family="Helvetica,sans-Serif" font-size="10.00">/transfer/channel_disk.h</text>
</a>
</g>
</g>
<!-- Node6&#45;&gt;Node11 -->
<g id="edge10_Node000006_Node000011" class="edge">
<title>Node6&#45;&gt;Node11</title>
<g id="a_edge10_Node000006_Node000011"><a xlink:title=" ">
<path fill="none" stroke="#63b8ff" d="M491.63,-304.54C462.94,-294.15 429.39,-281.99 401.94,-272.04"/>
<polygon fill="#63b8ff" stroke="#63b8ff" points="490.56,-307.87 501.15,-307.99 492.94,-301.29 490.56,-307.87"/>
</a>
</g>
</g>
<!-- Node6&#45;&gt;Node12 -->
<g id="edge11_Node000006_Node000012" class="edge">
<title>Node6&#45;&gt;Node12</title>
<g id="a_edge11_Node000006_Node000012"><a xlink:title=" ">
<path fill="none" stroke="#63b8ff" d="M630.24,-303.7C646.64,-295.71 662.74,-285.33 675,-272 712.78,-230.91 679.5,-194.42 718,-154 733.95,-137.26 755.73,-125.36 777,-116.99"/>
<polygon fill="#63b8ff" stroke="#63b8ff" points="628.73,-300.54 621.11,-307.9 631.66,-306.9 628.73,-300.54"/>
</a>
</g>
</g>
<!-- Node13 -->
<g id="Node000013" class="node">
<title>Node13</title>
<g id="a_Node000013"><a xlink:href="memcpy__channel_8h.html" target="_top" xlink:title=" ">
<polygon fill="white" stroke="#666666" points="633,-272 477,-272 477,-231 633,-231 633,-272"/>
<text text-anchor="start" x="485" y="-260" font-family="Helvetica,sans-Serif" font-size="10.00">/home/runner/work/realm</text>
<text text-anchor="start" x="485" y="-249" font-family="Helvetica,sans-Serif" font-size="10.00">/realm/realm&#45;src/src/realm</text>
<text text-anchor="middle" x="555" y="-238" font-family="Helvetica,sans-Serif" font-size="10.00">/transfer/memcpy_channel.h</text>
</a>
</g>
</g>
<!-- Node6&#45;&gt;Node13 -->
<g id="edge13_Node000006_Node000013" class="edge">
<title>Node6&#45;&gt;Node13</title>
<g id="a_edge13_Node000006_Node000013"><a xlink:title=" ">
<path fill="none" stroke="#63b8ff" d="M555,-297.69C555,-289.08 555,-279.9 555,-272.07"/>
<polygon fill="#63b8ff" stroke="#63b8ff" points="551.5,-297.79 555,-307.79 558.5,-297.79 551.5,-297.79"/>
</a>
</g>
</g>
<!-- Node6&#45;&gt;Node14 -->
<g id="edge14_Node000006_Node000014" class="edge">
<title>Node6&#45;&gt;Node14</title>
<g id="a_edge14_Node000006_Node000014"><a xlink:title=" ">
<path fill="none" stroke="#63b8ff" d="M628.68,-304.94C662.92,-294.46 703.24,-282.12 736.16,-272.04"/>
<polygon fill="#63b8ff" stroke="#63b8ff" points="627.27,-301.72 618.73,-307.99 629.32,-308.41 627.27,-301.72"/>
</a>
</g>
</g>
<!-- Node12&#45;&gt;Node8 -->
<g id="edge12_Node000012_Node000008" class="edge">
<title>Node12&#45;&gt;Node8</title>
<g id="a_edge12_Node000012_Node000008"><a xlink:title=" ">
<path fill="none" stroke="#63b8ff" d="M869.11,-68.39C875.3,-59.3 882.02,-49.41 887.69,-41.07"/>
<polygon fill="#63b8ff" stroke="#63b8ff" points="866.13,-66.56 863.4,-76.79 871.92,-70.49 866.13,-66.56"/>
</a>
</g>
</g>
<!-- Node15 -->
<g id="Node000015" class="node">
<title>Node15</title>
<g id="a_Node000015"><a xlink:href="runtime__impl_8h.html" target="_top" xlink:title=" ">
<polygon fill="white" stroke="#666666" points="873,-195 727,-195 727,-154 873,-154 873,-195"/>
<text text-anchor="start" x="735" y="-183" font-family="Helvetica,sans-Serif" font-size="10.00">/home/runner/work/realm</text>
<text text-anchor="start" x="735" y="-172" font-family="Helvetica,sans-Serif" font-size="10.00">/realm/realm&#45;src/src/realm</text>
<text text-anchor="middle" x="800" y="-161" font-family="Helvetica,sans-Serif" font-size="10.00">/runtime_impl.h</text>
</a>
</g>
</g>
<!-- Node14&#45;&gt;Node15 -->
<g id="edge15_Node000014_Node000015" class="edge">
<title>Node14&#45;&gt;Node15</title>
<g id="a_edge15_Node000014_Node000015"><a xlink:title=" ">
<path fill="none" stroke="#63b8ff" d="M800,-220.69C800,-212.08 800,-202.9 800,-195.07"/>
<polygon fill="#63b8ff" stroke="#63b8ff" points="796.5,-220.79 800,-230.79 803.5,-220.79 796.5,-220.79"/>
</a>
</g>
</g>
<!-- Node15&#45;&gt;Node12 -->
<g id="edge22_Node000015_Node000012" class="edge">
<title>Node15&#45;&gt;Node12</title>
<g id="a_edge22_Node000015_Node000012"><a xlink:title=" ">
<path fill="none" stroke="#63b8ff" d="M818.74,-145.39C824.8,-136.3 831.39,-126.41 836.95,-118.07"/>
<polygon fill="#63b8ff" stroke="#63b8ff" points="815.77,-143.53 813.14,-153.79 821.6,-147.42 815.77,-143.53"/>
</a>
</g>
</g>
<!-- Node16 -->
<g id="Node000016" class="node">
<title>Node16</title>
<g id="a_Node000016"><a xlink:href="proc__impl_8h.html" target="_top" xlink:title=" ">
<polygon fill="white" stroke="#666666" points="628,-118 482,-118 482,-77 628,-77 628,-118"/>
<text text-anchor="start" x="490" y="-106" font-family="Helvetica,sans-Serif" font-size="10.00">/home/runner/work/realm</text>
<text text-anchor="start" x="490" y="-95" font-family="Helvetica,sans-Serif" font-size="10.00">/realm/realm&#45;src/src/realm</text>
<text text-anchor="middle" x="555" y="-84" font-family="Helvetica,sans-Serif" font-size="10.00">/proc_impl.h</text>
</a>
</g>
</g>
<!-- Node15&#45;&gt;Node16 -->
<g id="edge16_Node000015_Node000016" class="edge">
<title>Node15&#45;&gt;Node16</title>
<g id="a_edge16_Node000015_Node000016"><a xlink:title=" ">
<path fill="none" stroke="#63b8ff" d="M726.32,-150.94C692.08,-140.46 651.76,-128.12 618.84,-118.04"/>
<polygon fill="#63b8ff" stroke="#63b8ff" points="725.68,-154.41 736.27,-153.99 727.73,-147.72 725.68,-154.41"/>
</a>
</g>
</g>
<!-- Node16&#45;&gt;Node7 -->
<g id="edge17_Node000016_Node000007" class="edge">
<title>Node16&#45;&gt;Node7</title>
<g id="a_edge17_Node000016_Node000007"><a xlink:title=" ">
<path fill="none" stroke="#63b8ff" d="M472.14,-77.07C426.88,-66.44 369.85,-53.02 319,-41 316.15,-40.33 313.25,-39.64 310.32,-38.94"/>
<polygon fill="#63b8ff" stroke="#63b8ff" points="471.37,-80.48 481.9,-79.36 472.97,-73.67 471.37,-80.48"/>
</a>
</g>
</g>
<!-- Node16&#45;&gt;Node9 -->
<g id="edge18_Node000016_Node000009" class="edge">
<title>Node16&#45;&gt;Node9</title>
<g id="a_edge18_Node000016_Node000009"><a xlink:title=" ">
<path fill="none" stroke="#63b8ff" d="M471.51,-87.27C390.32,-77.75 263.7,-61.42 155,-41 152.12,-40.46 149.2,-39.88 146.24,-39.28"/>
<polygon fill="#63b8ff" stroke="#63b8ff" points="471.33,-90.78 481.67,-88.46 472.14,-83.82 471.33,-90.78"/>
</a>
</g>
</g>
<!-- Node17 -->
<g id="Node000017" class="node">
<title>Node17</title>
<g id="a_Node000017"><a xlink:href="kokkos__interop_8h.html" target="_top" xlink:title=" ">
<polygon fill="white" stroke="#666666" points="810,-41 664,-41 664,0 810,0 810,-41"/>
<text text-anchor="start" x="672" y="-29" font-family="Helvetica,sans-Serif" font-size="10.00">/home/runner/work/realm</text>
<text text-anchor="start" x="672" y="-18" font-family="Helvetica,sans-Serif" font-size="10.00">/realm/realm&#45;src/src/realm</text>
<text text-anchor="middle" x="737" y="-7" font-family="Helvetica,sans-Serif" font-size="10.00">/kokkos/kokkos_interop.h</text>
</a>
</g>
</g>
<!-- Node16&#45;&gt;Node17 -->
<g id="edge19_Node000016_Node000017" class="edge">
<title>Node16&#45;&gt;Node17</title>
<g id="a_edge19_Node000016_Node000017"><a xlink:title=" ">
<path fill="none" stroke="#63b8ff" d="M611.71,-73.13C636.71,-62.83 665.75,-50.86 689.58,-41.04"/>
<polygon fill="#63b8ff" stroke="#63b8ff" points="610.26,-69.94 602.34,-76.99 612.92,-76.42 610.26,-69.94"/>
</a>
</g>
</g>
<!-- Node18 -->
<g id="Node000018" class="node">
<title>Node18</title>
<g id="a_Node000018"><a xlink:href="openmp__internal_8h.html" target="_top" xlink:title=" ">
<polygon fill="white" stroke="#666666" points="482,-41 328,-41 328,0 482,0 482,-41"/>
<text text-anchor="start" x="336" y="-29" font-family="Helvetica,sans-Serif" font-size="10.00">/home/runner/work/realm</text>
<text text-anchor="start" x="336" y="-18" font-family="Helvetica,sans-Serif" font-size="10.00">/realm/realm&#45;src/src/realm</text>
<text text-anchor="middle" x="405" y="-7" font-family="Helvetica,sans-Serif" font-size="10.00">/openmp/openmp_internal.h</text>
</a>
</g>
</g>
<!-- Node16&#45;&gt;Node18 -->
<g id="edge20_Node000016_Node000018" class="edge">
<title>Node16&#45;&gt;Node18</title>
<g id="a_edge20_Node000016_Node000018"><a xlink:title=" ">
<path fill="none" stroke="#63b8ff" d="M506.9,-72.45C486.61,-62.3 463.29,-50.64 444.08,-41.04"/>
<polygon fill="#63b8ff" stroke="#63b8ff" points="505.47,-75.65 515.98,-76.99 508.6,-69.39 505.47,-75.65"/>
</a>
</g>
</g>
<!-- Node19 -->
<g id="Node000019" class="node">
<title>Node19</title>
<g id="a_Node000019"><a xlink:href="python__internal_8h.html" target="_top" xlink:title=" ">
<polygon fill="white" stroke="#666666" points="646,-41 500,-41 500,0 646,0 646,-41"/>
<text text-anchor="start" x="508" y="-29" font-family="Helvetica,sans-Serif" font-size="10.00">/home/runner/work/realm</text>
<text text-anchor="start" x="508" y="-18" font-family="Helvetica,sans-Serif" font-size="10.00">/realm/realm&#45;src/src/realm</text>
<text text-anchor="middle" x="573" y="-7" font-family="Helvetica,sans-Serif" font-size="10.00">/python/python_internal.h</text>
</a>
</g>
</g>
<!-- Node16&#45;&gt;Node19 -->
<g id="edge21_Node000016_Node000019" class="edge">
<title>Node16&#45;&gt;Node19</title>
<g id="a_edge21_Node000016_Node000019"><a xlink:title=" ">
<path fill="none" stroke="#63b8ff" d="M562.09,-66.98C564.17,-58.28 566.4,-48.98 568.3,-41.07"/>
<polygon fill="#63b8ff" stroke="#63b8ff" points="558.66,-66.25 559.73,-76.79 565.47,-67.89 558.66,-66.25"/>
</a>
</g>
</g>
</g>
</svg>
