<?xml version="1.0" encoding="UTF-8" standalone="no"?>
<!DOCTYPE svg PUBLIC "-//W3C//DTD SVG 1.1//EN"
 "http://www.w3.org/Graphics/SVG/1.1/DTD/svg11.dtd">
<!-- Generated by graphviz version 2.43.0 (0)
 -->
<!-- Title: Realm::MemoryQueryImpl::BestProcAffinityCostFn Pages: 1 -->
<svg width="201pt" height="104pt"
 viewBox="0.00 0.00 200.50 104.00" xmlns="http://www.w3.org/2000/svg" xmlns:xlink="http://www.w3.org/1999/xlink">
<g id="graph0" class="graph" transform="scale(1 1) rotate(0) translate(4 100)">
<title>Realm::MemoryQueryImpl::BestProcAffinityCostFn</title>
<!-- Node1 -->
<g id="Node000001" class="node">
<title>Node1</title>
<g id="a_Node000001"><a xlink:title=" ">
<polygon fill="#999999" stroke="#666666" points="146,-30 0,-30 0,0 146,0 146,-30"/>
<text text-anchor="start" x="8" y="-18" font-family="Helvetica,sans-Serif" font-size="10.00">Realm::MemoryQueryImpl</text>
<text text-anchor="middle" x="73" y="-7" font-family="Helvetica,sans-Serif" font-size="10.00">::BestProcAffinityCostFn</text>
</a>
</g>
</g>
<!-- Node2 -->
<g id="Node000002" class="node">
<title>Node2</title>
<g id="a_Node000002"><a xlink:href="classRealm_1_1Processor.html" target="_top" xlink:title=" ">
<polygon fill="white" stroke="#666666" points="123.5,-96 22.5,-96 22.5,-77 123.5,-77 123.5,-96"/>
<text text-anchor="middle" x="73" y="-84" font-family="Helvetica,sans-Serif" font-size="10.00">Realm::Processor</text>
</a>
</g>
</g>
<!-- Node2&#45;&gt;Node1 -->
<g id="edge1_Node000001_Node000002" class="edge">
<title>Node2&#45;&gt;Node1</title>
<g id="a_edge1_Node000001_Node000002"><a xlink:title=" ">
<path fill="none" stroke="#9a32cd" stroke-dasharray="5,2" d="M73,-66.71C73,-55.19 73,-40.68 73,-30.14"/>
<polygon fill="#9a32cd" stroke="#9a32cd" points="69.5,-66.98 73,-76.98 76.5,-66.98 69.5,-66.98"/>
</a>
</g>
<text text-anchor="middle" x="85.5" y="-51" font-family="Helvetica,sans-Serif" font-size="10.00" fill="grey"> proc</text>
</g>
<!-- Node2&#45;&gt;Node2 -->
<g id="edge2_Node000002_Node000002" class="edge">
<title>Node2&#45;&gt;Node2</title>
<g id="a_edge2_Node000002_Node000002"><a xlink:title=" ">
<path fill="none" stroke="#9a32cd" stroke-dasharray="5,2" d="M133.93,-91.02C138.61,-90.02 141.5,-88.51 141.5,-86.5 141.5,-83.28 134.11,-81.36 123.78,-80.73"/>
<polygon fill="#9a32cd" stroke="#9a32cd" points="133.28,-87.57 123.78,-92.27 134.14,-94.52 133.28,-87.57"/>
</a>
</g>
<text text-anchor="middle" x="167" y="-84" font-family="Helvetica,sans-Serif" font-size="10.00" fill="grey"> NO_PROC</text>
</g>
</g>
</svg>
