<?xml version="1.0" encoding="UTF-8" standalone="no"?>
<!DOCTYPE svg PUBLIC "-//W3C//DTD SVG 1.1//EN"
 "http://www.w3.org/Graphics/SVG/1.1/DTD/svg11.dtd">
<!-- Generated by graphviz version 2.43.0 (0)
 -->
<!-- Title: Realm::MachineProcInfo Pages: 1 -->
<svg width="408pt" height="115pt"
 viewBox="0.00 0.00 408.00 115.00" xmlns="http://www.w3.org/2000/svg" xmlns:xlink="http://www.w3.org/1999/xlink">
<g id="graph0" class="graph" transform="scale(1 1) rotate(0) translate(4 111)">
<title>Realm::MachineProcInfo</title>
<!-- Node1 -->
<g id="Node000001" class="node">
<title>Node1</title>
<g id="a_Node000001"><a xlink:title=" ">
<polygon fill="#999999" stroke="#666666" points="400,-47 265,-47 265,-28 400,-28 400,-47"/>
<text text-anchor="middle" x="332.5" y="-35" font-family="Helvetica,sans-Serif" font-size="10.00">Realm::MachineProcInfo</text>
</a>
</g>
</g>
<!-- Node2 -->
<g id="Node000002" class="node">
<title>Node2</title>
<g id="a_Node000002"><a xlink:href="classRealm_1_1Processor.html" target="_top" xlink:title=" ">
<polygon fill="white" stroke="#666666" points="149.5,-78 48.5,-78 48.5,-59 149.5,-59 149.5,-78"/>
<text text-anchor="middle" x="99" y="-66" font-family="Helvetica,sans-Serif" font-size="10.00">Realm::Processor</text>
</a>
</g>
</g>
<!-- Node2&#45;&gt;Node1 -->
<g id="edge1_Node000001_Node000002" class="edge">
<title>Node2&#45;&gt;Node1</title>
<g id="a_edge1_Node000001_Node000002"><a xlink:title=" ">
<path fill="none" stroke="#9a32cd" stroke-dasharray="5,2" d="M159.81,-60.49C191.95,-56.19 231.65,-50.87 264.79,-46.43"/>
<polygon fill="#9a32cd" stroke="#9a32cd" points="159.11,-57.05 149.66,-61.85 160.04,-63.99 159.11,-57.05"/>
</a>
</g>
<text text-anchor="middle" x="231.5" y="-54.5" font-family="Helvetica,sans-Serif" font-size="10.00" fill="grey"> p</text>
</g>
<!-- Node2&#45;&gt;Node2 -->
<g id="edge2_Node000002_Node000002" class="edge">
<title>Node2&#45;&gt;Node2</title>
<g id="a_edge2_Node000002_Node000002"><a xlink:title=" ">
<path fill="none" stroke="#9a32cd" stroke-dasharray="5,2" d="M74.45,-87.19C75.79,-92.2 83.97,-96 99,-96 122.46,-96 129.24,-86.73 119.35,-78.08"/>
<polygon fill="#9a32cd" stroke="#9a32cd" points="77.64,-88.63 78.65,-78.08 71.28,-85.69 77.64,-88.63"/>
</a>
</g>
<text text-anchor="middle" x="99" y="-99" font-family="Helvetica,sans-Serif" font-size="10.00" fill="grey"> NO_PROC</text>
</g>
<!-- Node3 -->
<g id="Node000003" class="node">
<title>Node3</title>
<g id="a_Node000003"><a xlink:href="structRealm_1_1MachineAffinityInfo.html" target="_top" xlink:title=" ">
<polygon fill="white" stroke="#666666" points="198,-41 0,-41 0,0 198,0 198,-41"/>
<text text-anchor="start" x="8" y="-29" font-family="Helvetica,sans-Serif" font-size="10.00">Realm::MachineAffinityInfo</text>
<text text-anchor="start" x="8" y="-18" font-family="Helvetica,sans-Serif" font-size="10.00">&lt; Realm::Memory, Realm::</text>
<text text-anchor="middle" x="99" y="-7" font-family="Helvetica,sans-Serif" font-size="10.00">Machine::ProcessorMemoryAffinity &gt;</text>
</a>
</g>
</g>
<!-- Node3&#45;&gt;Node1 -->
<g id="edge3_Node000001_Node000003" class="edge">
<title>Node3&#45;&gt;Node1</title>
<g id="a_edge3_Node000001_Node000003"><a xlink:title=" ">
<path fill="none" stroke="#9a32cd" stroke-dasharray="5,2" d="M208.1,-25.74C221.21,-26.57 234.41,-27.49 247,-28.5 252.74,-28.96 258.68,-29.49 264.65,-30.06"/>
<polygon fill="#9a32cd" stroke="#9a32cd" points="208.29,-22.25 198.1,-25.13 207.86,-29.24 208.29,-22.25"/>
</a>
</g>
<text text-anchor="middle" x="231.5" y="-31.5" font-family="Helvetica,sans-Serif" font-size="10.00" fill="grey"> pmas</text>
</g>
</g>
</svg>
