<?xml version="1.0" encoding="UTF-8" standalone="no"?>
<!DOCTYPE svg PUBLIC "-//W3C//DTD SVG 1.1//EN"
 "http://www.w3.org/Graphics/SVG/1.1/DTD/svg11.dtd">
<!-- Generated by graphviz version 2.43.0 (0)
 -->
<!-- Title: /home/runner/work/realm/realm/realm&#45;src/src/realm/ucx/bootstrap/bootstrap.h Pages: 1 -->
<svg width="387pt" height="302pt"
 viewBox="0.00 0.00 387.14 302.00" xmlns="http://www.w3.org/2000/svg" xmlns:xlink="http://www.w3.org/1999/xlink">
<g id="graph0" class="graph" transform="scale(1 1) rotate(0) translate(4 298)">
<title>/home/runner/work/realm/realm/realm&#45;src/src/realm/ucx/bootstrap/bootstrap.h</title>
<!-- Node1 -->
<g id="Node000001" class="node">
<title>Node1</title>
<g id="a_Node000001"><a xlink:title=" ">
<polygon fill="#999999" stroke="#666666" points="279,-294 133,-294 133,-253 279,-253 279,-294"/>
<text text-anchor="start" x="141" y="-282" font-family="Helvetica,sans-Serif" font-size="10.00">/home/runner/work/realm</text>
<text text-anchor="start" x="141" y="-271" font-family="Helvetica,sans-Serif" font-size="10.00">/realm/realm&#45;src/src/realm</text>
<text text-anchor="middle" x="206" y="-260" font-family="Helvetica,sans-Serif" font-size="10.00">/ucx/bootstrap/bootstrap.h</text>
</a>
</g>
</g>
<!-- Node2 -->
<g id="Node000002" class="node">
<title>Node2</title>
<g id="a_Node000002"><a xlink:href="bootstrap__internal_8h.html" target="_top" xlink:title=" ">
<polygon fill="white" stroke="#666666" points="146,-129 0,-129 0,-77 146,-77 146,-129"/>
<text text-anchor="start" x="8" y="-117" font-family="Helvetica,sans-Serif" font-size="10.00">/home/runner/work/realm</text>
<text text-anchor="start" x="8" y="-106" font-family="Helvetica,sans-Serif" font-size="10.00">/realm/realm&#45;src/src/realm</text>
<text text-anchor="start" x="8" y="-95" font-family="Helvetica,sans-Serif" font-size="10.00">/ucx/bootstrap/bootstrap</text>
<text text-anchor="middle" x="73" y="-84" font-family="Helvetica,sans-Serif" font-size="10.00">_internal.h</text>
</a>
</g>
</g>
<!-- Node1&#45;&gt;Node2 -->
<g id="edge1_Node000001_Node000002" class="edge">
<title>Node1&#45;&gt;Node2</title>
<g id="a_edge1_Node000001_Node000002"><a xlink:title=" ">
<path fill="none" stroke="#63b8ff" d="M122.99,-264.53C92.43,-257.1 60.73,-243.12 42,-217 23.15,-190.72 39.67,-153.49 54.9,-129.06"/>
<polygon fill="#63b8ff" stroke="#63b8ff" points="122.33,-267.97 132.86,-266.72 123.85,-261.13 122.33,-267.97"/>
</a>
</g>
</g>
<!-- Node4 -->
<g id="Node000004" class="node">
<title>Node4</title>
<g id="a_Node000004"><a xlink:href="bootstrap__loader_8h.html" target="_top" xlink:title=" ">
<polygon fill="white" stroke="#666666" points="197,-217 51,-217 51,-165 197,-165 197,-217"/>
<text text-anchor="start" x="59" y="-205" font-family="Helvetica,sans-Serif" font-size="10.00">/home/runner/work/realm</text>
<text text-anchor="start" x="59" y="-194" font-family="Helvetica,sans-Serif" font-size="10.00">/realm/realm&#45;src/src/realm</text>
<text text-anchor="start" x="59" y="-183" font-family="Helvetica,sans-Serif" font-size="10.00">/ucx/bootstrap/bootstrap</text>
<text text-anchor="middle" x="124" y="-172" font-family="Helvetica,sans-Serif" font-size="10.00">_loader.h</text>
</a>
</g>
</g>
<!-- Node1&#45;&gt;Node4 -->
<g id="edge3_Node000001_Node000004" class="edge">
<title>Node1&#45;&gt;Node4</title>
<g id="a_edge3_Node000001_Node000004"><a xlink:title=" ">
<path fill="none" stroke="#63b8ff" d="M178.52,-245.52C169.19,-236.36 158.8,-226.17 149.62,-217.16"/>
<polygon fill="#63b8ff" stroke="#63b8ff" points="176.14,-248.09 185.73,-252.6 181.05,-243.1 176.14,-248.09"/>
</a>
</g>
</g>
<!-- Node5 -->
<g id="Node000005" class="node">
<title>Node5</title>
<g id="a_Node000005"><a xlink:href="oob__group__comm_8h.html" target="_top" xlink:title=" ">
<polygon fill="white" stroke="#666666" points="361,-211.5 215,-211.5 215,-170.5 361,-170.5 361,-211.5"/>
<text text-anchor="start" x="223" y="-199.5" font-family="Helvetica,sans-Serif" font-size="10.00">/home/runner/work/realm</text>
<text text-anchor="start" x="223" y="-188.5" font-family="Helvetica,sans-Serif" font-size="10.00">/realm/realm&#45;src/src/realm</text>
<text text-anchor="middle" x="288" y="-177.5" font-family="Helvetica,sans-Serif" font-size="10.00">/ucx/oob_group_comm.h</text>
</a>
</g>
</g>
<!-- Node1&#45;&gt;Node5 -->
<g id="edge4_Node000001_Node000005" class="edge">
<title>Node1&#45;&gt;Node5</title>
<g id="a_edge4_Node000001_Node000005"><a xlink:title=" ">
<path fill="none" stroke="#63b8ff" d="M233.43,-245.57C244.73,-234.48 257.57,-221.87 267.96,-211.67"/>
<polygon fill="#63b8ff" stroke="#63b8ff" points="230.95,-243.1 226.27,-252.6 235.86,-248.09 230.95,-243.1"/>
</a>
</g>
</g>
<!-- Node6 -->
<g id="Node000006" class="node">
<title>Node6</title>
<g id="a_Node000006"><a xlink:href="ucc__comm_8h.html" target="_top" xlink:title=" ">
<polygon fill="white" stroke="#666666" points="361,-123.5 215,-123.5 215,-82.5 361,-82.5 361,-123.5"/>
<text text-anchor="start" x="223" y="-111.5" font-family="Helvetica,sans-Serif" font-size="10.00">/home/runner/work/realm</text>
<text text-anchor="start" x="223" y="-100.5" font-family="Helvetica,sans-Serif" font-size="10.00">/realm/realm&#45;src/src/realm</text>
<text text-anchor="middle" x="288" y="-89.5" font-family="Helvetica,sans-Serif" font-size="10.00">/ucx/ucc_comm.h</text>
</a>
</g>
</g>
<!-- Node1&#45;&gt;Node6 -->
<g id="edge7_Node000001_Node000006" class="edge">
<title>Node1&#45;&gt;Node6</title>
<g id="a_edge7_Node000001_Node000006"><a xlink:title=" ">
<path fill="none" stroke="#63b8ff" d="M289.01,-264.53C319.57,-257.1 351.27,-243.12 370,-217 383.47,-198.22 380.38,-185.65 370,-165 361.16,-147.4 344.57,-133.6 328.61,-123.6"/>
<polygon fill="#63b8ff" stroke="#63b8ff" points="288.15,-261.13 279.14,-266.72 289.67,-267.97 288.15,-261.13"/>
</a>
</g>
</g>
<!-- Node3 -->
<g id="Node000003" class="node">
<title>Node3</title>
<g id="a_Node000003"><a xlink:href="ucp__internal_8h.html" target="_top" xlink:title=" ">
<polygon fill="white" stroke="#666666" points="253,-41 107,-41 107,0 253,0 253,-41"/>
<text text-anchor="start" x="115" y="-29" font-family="Helvetica,sans-Serif" font-size="10.00">/home/runner/work/realm</text>
<text text-anchor="start" x="115" y="-18" font-family="Helvetica,sans-Serif" font-size="10.00">/realm/realm&#45;src/src/realm</text>
<text text-anchor="middle" x="180" y="-7" font-family="Helvetica,sans-Serif" font-size="10.00">/ucx/ucp_internal.h</text>
</a>
</g>
</g>
<!-- Node2&#45;&gt;Node3 -->
<g id="edge2_Node000002_Node000003" class="edge">
<title>Node2&#45;&gt;Node3</title>
<g id="a_edge2_Node000002_Node000003"><a xlink:title=" ">
<path fill="none" stroke="#63b8ff" d="M114.38,-70.87C127.67,-60.87 142.01,-50.08 153.89,-41.15"/>
<polygon fill="#63b8ff" stroke="#63b8ff" points="112.16,-68.16 106.27,-76.97 116.36,-73.76 112.16,-68.16"/>
</a>
</g>
</g>
<!-- Node5&#45;&gt;Node6 -->
<g id="edge5_Node000005_Node000006" class="edge">
<title>Node5&#45;&gt;Node6</title>
<g id="a_edge5_Node000005_Node000006"><a xlink:title=" ">
<path fill="none" stroke="#63b8ff" d="M288,-160.36C288,-148.26 288,-134.58 288,-123.74"/>
<polygon fill="#63b8ff" stroke="#63b8ff" points="284.5,-160.49 288,-170.49 291.5,-160.49 284.5,-160.49"/>
</a>
</g>
</g>
<!-- Node6&#45;&gt;Node3 -->
<g id="edge6_Node000006_Node000003" class="edge">
<title>Node6&#45;&gt;Node3</title>
<g id="a_edge6_Node000006_Node000003"><a xlink:title=" ">
<path fill="none" stroke="#63b8ff" d="M253.42,-76.22C238.22,-64.9 220.66,-51.81 206.52,-41.27"/>
<polygon fill="#63b8ff" stroke="#63b8ff" points="251.47,-79.14 261.58,-82.31 255.65,-73.52 251.47,-79.14"/>
</a>
</g>
</g>
</g>
</svg>
