<?xml version="1.0" encoding="UTF-8" standalone="no"?>
<!DOCTYPE svg PUBLIC "-//W3C//DTD SVG 1.1//EN"
 "http://www.w3.org/Graphics/SVG/1.1/DTD/svg11.dtd">
<!-- Generated by graphviz version 2.43.0 (0)
 -->
<!-- Title: /home/runner/work/realm/realm/realm&#45;src/src/realm/bytearray.h Pages: 1 -->
<svg width="192pt" height="104pt"
 viewBox="0.00 0.00 191.50 104.00" xmlns="http://www.w3.org/2000/svg" xmlns:xlink="http://www.w3.org/1999/xlink">
<g id="graph0" class="graph" transform="scale(1 1) rotate(0) translate(4 100)">
<title>/home/runner/work/realm/realm/realm&#45;src/src/realm/bytearray.h</title>
<!-- Node1 -->
<g id="Node000001" class="node">
<title>Node1</title>
<g id="a_Node000001"><a xlink:title=" ">
<polygon fill="#999999" stroke="#666666" points="151,-96 5,-96 5,-55 151,-55 151,-96"/>
<text text-anchor="start" x="13" y="-84" font-family="Helvetica,sans-Serif" font-size="10.00">/home/runner/work/realm</text>
<text text-anchor="start" x="13" y="-73" font-family="Helvetica,sans-Serif" font-size="10.00">/realm/realm&#45;src/src/realm</text>
<text text-anchor="middle" x="78" y="-62" font-family="Helvetica,sans-Serif" font-size="10.00">/bytearray.h</text>
</a>
</g>
</g>
<!-- Node2 -->
<g id="Node000002" class="node">
<title>Node2</title>
<g id="a_Node000002"><a xlink:title=" ">
<polygon fill="#e0e0e0" stroke="#999999" points="56,-19 0,-19 0,0 56,0 56,-19"/>
<text text-anchor="middle" x="28" y="-7" font-family="Helvetica,sans-Serif" font-size="10.00">stddef.h</text>
</a>
</g>
</g>
<!-- Node1&#45;&gt;Node2 -->
<g id="edge1_Node000001_Node000002" class="edge">
<title>Node1&#45;&gt;Node2</title>
<g id="a_edge1_Node000001_Node000002"><a xlink:title=" ">
<path fill="none" stroke="#63b8ff" d="M62.73,-54.95C55.82,-46.11 47.74,-35.77 41.11,-27.29"/>
<polygon fill="#63b8ff" stroke="#63b8ff" points="43.76,-24.99 34.84,-19.26 38.24,-29.3 43.76,-24.99"/>
</a>
</g>
</g>
<!-- Node3 -->
<g id="Node000003" class="node">
<title>Node3</title>
<g id="a_Node000003"><a xlink:title=" ">
<polygon fill="#e0e0e0" stroke="#999999" points="183.5,-19 74.5,-19 74.5,0 183.5,0 183.5,-19"/>
<text text-anchor="middle" x="129" y="-7" font-family="Helvetica,sans-Serif" font-size="10.00">realm/bytearray.inl</text>
</a>
</g>
</g>
<!-- Node1&#45;&gt;Node3 -->
<g id="edge2_Node000001_Node000003" class="edge">
<title>Node1&#45;&gt;Node3</title>
<g id="a_edge2_Node000001_Node000003"><a xlink:title=" ">
<path fill="none" stroke="#63b8ff" d="M93.58,-54.95C100.62,-46.11 108.86,-35.77 115.62,-27.29"/>
<polygon fill="#63b8ff" stroke="#63b8ff" points="118.52,-29.26 122.02,-19.26 113.05,-24.9 118.52,-29.26"/>
</a>
</g>
</g>
</g>
</svg>
