<?xml version="1.0" encoding="UTF-8" standalone="no"?>
<!DOCTYPE svg PUBLIC "-//W3C//DTD SVG 1.1//EN"
 "http://www.w3.org/Graphics/SVG/1.1/DTD/svg11.dtd">
<!-- Generated by graphviz version 2.43.0 (0)
 -->
<!-- Title: /home/runner/work/realm/realm/realm&#45;src/src/realm/caching_allocator.h Pages: 1 -->
<svg width="918pt" height="269pt"
 viewBox="0.00 0.00 918.00 269.00" xmlns="http://www.w3.org/2000/svg" xmlns:xlink="http://www.w3.org/1999/xlink">
<g id="graph0" class="graph" transform="scale(1 1) rotate(0) translate(4 265)">
<title>/home/runner/work/realm/realm/realm&#45;src/src/realm/caching_allocator.h</title>
<!-- Node1 -->
<g id="Node000001" class="node">
<title>Node1</title>
<g id="a_Node000001"><a xlink:title=" ">
<polygon fill="#999999" stroke="#666666" points="272,-261 126,-261 126,-220 272,-220 272,-261"/>
<text text-anchor="start" x="134" y="-249" font-family="Helvetica,sans-Serif" font-size="10.00">/home/runner/work/realm</text>
<text text-anchor="start" x="134" y="-238" font-family="Helvetica,sans-Serif" font-size="10.00">/realm/realm&#45;src/src/realm</text>
<text text-anchor="middle" x="199" y="-227" font-family="Helvetica,sans-Serif" font-size="10.00">/caching_allocator.h</text>
</a>
</g>
</g>
<!-- Node2 -->
<g id="Node000002" class="node">
<title>Node2</title>
<g id="a_Node000002"><a xlink:href="atomics_8h.html" target="_top" xlink:title=" ">
<polygon fill="white" stroke="#666666" points="227,-129 131,-129 131,-110 227,-110 227,-129"/>
<text text-anchor="middle" x="179" y="-117" font-family="Helvetica,sans-Serif" font-size="10.00">realm/atomics.h</text>
</a>
</g>
</g>
<!-- Node1&#45;&gt;Node2 -->
<g id="edge1_Node000001_Node000002" class="edge">
<title>Node1&#45;&gt;Node2</title>
<g id="a_edge1_Node000001_Node000002"><a xlink:title=" ">
<path fill="none" stroke="#63b8ff" d="M195.7,-219.85C191.94,-197.48 185.84,-161.19 182.15,-139.21"/>
<polygon fill="#63b8ff" stroke="#63b8ff" points="185.57,-138.46 180.46,-129.18 178.66,-139.62 185.57,-138.46"/>
</a>
</g>
</g>
<!-- Node5 -->
<g id="Node000005" class="node">
<title>Node5</title>
<g id="a_Node000005"><a xlink:href="compiler__support_8h.html" target="_top" xlink:title=" ">
<polygon fill="white" stroke="#666666" points="142,-19 0,-19 0,0 142,0 142,-19"/>
<text text-anchor="middle" x="71" y="-7" font-family="Helvetica,sans-Serif" font-size="10.00">realm/compiler_support.h</text>
</a>
</g>
</g>
<!-- Node1&#45;&gt;Node5 -->
<g id="edge7_Node000001_Node000005" class="edge">
<title>Node1&#45;&gt;Node5</title>
<g id="a_edge7_Node000001_Node000005"><a xlink:title=" ">
<path fill="none" stroke="#63b8ff" d="M133.48,-219.85C91.56,-203.26 41.21,-174.72 20,-129 6.16,-99.16 6.39,-84.94 20,-55 25.62,-42.63 36.57,-32.36 46.89,-24.81"/>
<polygon fill="#63b8ff" stroke="#63b8ff" points="48.96,-27.63 55.27,-19.12 45.03,-21.84 48.96,-27.63"/>
</a>
</g>
</g>
<!-- Node8 -->
<g id="Node000008" class="node">
<title>Node8</title>
<g id="a_Node000008"><a xlink:href="lists_8h.html" target="_top" xlink:title=" ">
<polygon fill="white" stroke="#666666" points="170.5,-184 93.5,-184 93.5,-165 170.5,-165 170.5,-184"/>
<text text-anchor="middle" x="132" y="-172" font-family="Helvetica,sans-Serif" font-size="10.00">realm/lists.h</text>
</a>
</g>
</g>
<!-- Node1&#45;&gt;Node8 -->
<g id="edge8_Node000001_Node000008" class="edge">
<title>Node1&#45;&gt;Node8</title>
<g id="a_edge8_Node000001_Node000008"><a xlink:title=" ">
<path fill="none" stroke="#63b8ff" d="M178.53,-219.95C168.89,-210.74 157.54,-199.9 148.46,-191.23"/>
<polygon fill="#63b8ff" stroke="#63b8ff" points="150.82,-188.64 141.17,-184.26 145.98,-193.7 150.82,-188.64"/>
</a>
</g>
</g>
<!-- Node10 -->
<g id="Node000010" class="node">
<title>Node10</title>
<g id="a_Node000010"><a xlink:href="mutex_8h.html" target="_top" xlink:title=" ">
<polygon fill="white" stroke="#666666" points="337.5,-184 248.5,-184 248.5,-165 337.5,-165 337.5,-184"/>
<text text-anchor="middle" x="293" y="-172" font-family="Helvetica,sans-Serif" font-size="10.00">realm/mutex.h</text>
</a>
</g>
</g>
<!-- Node1&#45;&gt;Node10 -->
<g id="edge11_Node000001_Node000010" class="edge">
<title>Node1&#45;&gt;Node10</title>
<g id="a_edge11_Node000001_Node000010"><a xlink:title=" ">
<path fill="none" stroke="#63b8ff" d="M227.71,-219.95C241.93,-210.27 258.78,-198.8 271.81,-189.93"/>
<polygon fill="#63b8ff" stroke="#63b8ff" points="273.84,-192.78 280.13,-184.26 269.9,-187 273.84,-192.78"/>
</a>
</g>
</g>
<!-- Node22 -->
<g id="Node000022" class="node">
<title>Node22</title>
<g id="a_Node000022"><a xlink:title=" ">
<polygon fill="#e0e0e0" stroke="#999999" points="413,-184 355,-184 355,-165 413,-165 413,-184"/>
<text text-anchor="middle" x="384" y="-172" font-family="Helvetica,sans-Serif" font-size="10.00">memory</text>
</a>
</g>
</g>
<!-- Node1&#45;&gt;Node22 -->
<g id="edge26_Node000001_Node000022" class="edge">
<title>Node1&#45;&gt;Node22</title>
<g id="a_edge26_Node000001_Node000022"><a xlink:title=" ">
<path fill="none" stroke="#63b8ff" d="M255.51,-219.95C286.23,-209.32 323.22,-196.53 349.61,-187.4"/>
<polygon fill="#63b8ff" stroke="#63b8ff" points="350.86,-190.67 359.16,-184.09 348.57,-184.05 350.86,-190.67"/>
</a>
</g>
</g>
<!-- Node3 -->
<g id="Node000003" class="node">
<title>Node3</title>
<g id="a_Node000003"><a xlink:href="realm__config_8h.html" target="_top" xlink:title=" ">
<polygon fill="white" stroke="#666666" points="337,-74 217,-74 217,-55 337,-55 337,-74"/>
<text text-anchor="middle" x="277" y="-62" font-family="Helvetica,sans-Serif" font-size="10.00">realm/realm_config.h</text>
</a>
</g>
</g>
<!-- Node2&#45;&gt;Node3 -->
<g id="edge2_Node000002_Node000003" class="edge">
<title>Node2&#45;&gt;Node3</title>
<g id="a_edge2_Node000002_Node000003"><a xlink:title=" ">
<path fill="none" stroke="#63b8ff" d="M194.75,-109.98C210.23,-101.61 234.09,-88.7 252.14,-78.95"/>
<polygon fill="#63b8ff" stroke="#63b8ff" points="253.84,-82.01 260.97,-74.17 250.51,-75.85 253.84,-82.01"/>
</a>
</g>
</g>
<!-- Node6 -->
<g id="Node000006" class="node">
<title>Node6</title>
<g id="a_Node000006"><a xlink:title=" ">
<polygon fill="#e0e0e0" stroke="#999999" points="79,-74 29,-74 29,-55 79,-55 79,-74"/>
<text text-anchor="middle" x="54" y="-62" font-family="Helvetica,sans-Serif" font-size="10.00">atomic</text>
</a>
</g>
</g>
<!-- Node2&#45;&gt;Node6 -->
<g id="edge5_Node000002_Node000006" class="edge">
<title>Node2&#45;&gt;Node6</title>
<g id="a_edge5_Node000002_Node000006"><a xlink:title=" ">
<path fill="none" stroke="#63b8ff" d="M158.92,-109.98C138.63,-101.38 107.04,-87.99 83.83,-78.15"/>
<polygon fill="#63b8ff" stroke="#63b8ff" points="85.02,-74.85 74.45,-74.17 82.29,-81.3 85.02,-74.85"/>
</a>
</g>
</g>
<!-- Node7 -->
<g id="Node000007" class="node">
<title>Node7</title>
<g id="a_Node000007"><a xlink:title=" ">
<polygon fill="#e0e0e0" stroke="#999999" points="199,-74 97,-74 97,-55 199,-55 199,-74"/>
<text text-anchor="middle" x="148" y="-62" font-family="Helvetica,sans-Serif" font-size="10.00">realm/atomics.inl</text>
</a>
</g>
</g>
<!-- Node2&#45;&gt;Node7 -->
<g id="edge6_Node000002_Node000007" class="edge">
<title>Node2&#45;&gt;Node7</title>
<g id="a_edge6_Node000002_Node000007"><a xlink:title=" ">
<path fill="none" stroke="#63b8ff" d="M173.88,-109.75C169.64,-102.49 163.47,-91.95 158.22,-82.98"/>
<polygon fill="#63b8ff" stroke="#63b8ff" points="161.09,-80.95 153.02,-74.09 155.05,-84.49 161.09,-80.95"/>
</a>
</g>
</g>
<!-- Node4 -->
<g id="Node000004" class="node">
<title>Node4</title>
<g id="a_Node000004"><a xlink:href="realm__defines_8h.html" target="_top" xlink:title=" ">
<polygon fill="white" stroke="#666666" points="324.5,-19 229.5,-19 229.5,0 324.5,0 324.5,-19"/>
<text text-anchor="middle" x="277" y="-7" font-family="Helvetica,sans-Serif" font-size="10.00">realm_defines.h</text>
</a>
</g>
</g>
<!-- Node3&#45;&gt;Node4 -->
<g id="edge3_Node000003_Node000004" class="edge">
<title>Node3&#45;&gt;Node4</title>
<g id="a_edge3_Node000003_Node000004"><a xlink:title=" ">
<path fill="none" stroke="#63b8ff" d="M277,-54.75C277,-47.8 277,-37.85 277,-29.13"/>
<polygon fill="#63b8ff" stroke="#63b8ff" points="280.5,-29.09 277,-19.09 273.5,-29.09 280.5,-29.09"/>
</a>
</g>
</g>
<!-- Node3&#45;&gt;Node5 -->
<g id="edge4_Node000003_Node000005" class="edge">
<title>Node3&#45;&gt;Node5</title>
<g id="a_edge4_Node000003_Node000005"><a xlink:title=" ">
<path fill="none" stroke="#63b8ff" d="M243.9,-54.98C208.72,-45.93 152.93,-31.58 114.28,-21.64"/>
<polygon fill="#63b8ff" stroke="#63b8ff" points="114.91,-18.18 104.36,-19.08 113.17,-24.96 114.91,-18.18"/>
</a>
</g>
</g>
<!-- Node8&#45;&gt;Node2 -->
<g id="edge9_Node000008_Node000002" class="edge">
<title>Node8&#45;&gt;Node2</title>
<g id="a_edge9_Node000008_Node000002"><a xlink:title=" ">
<path fill="none" stroke="#63b8ff" d="M139.76,-164.75C146.47,-157.18 156.34,-146.05 164.51,-136.84"/>
<polygon fill="#63b8ff" stroke="#63b8ff" points="167.37,-138.89 171.38,-129.09 162.13,-134.25 167.37,-138.89"/>
</a>
</g>
</g>
<!-- Node9 -->
<g id="Node000009" class="node">
<title>Node9</title>
<g id="a_Node000009"><a xlink:title=" ">
<polygon fill="#e0e0e0" stroke="#999999" points="112.5,-129 29.5,-129 29.5,-110 112.5,-110 112.5,-129"/>
<text text-anchor="middle" x="71" y="-117" font-family="Helvetica,sans-Serif" font-size="10.00">realm/lists.inl</text>
</a>
</g>
</g>
<!-- Node8&#45;&gt;Node9 -->
<g id="edge10_Node000008_Node000009" class="edge">
<title>Node8&#45;&gt;Node9</title>
<g id="a_edge10_Node000008_Node000009"><a xlink:title=" ">
<path fill="none" stroke="#63b8ff" d="M122.2,-164.98C113.18,-157.15 99.59,-145.34 88.68,-135.86"/>
<polygon fill="#63b8ff" stroke="#63b8ff" points="90.82,-133.09 80.98,-129.17 86.23,-138.37 90.82,-133.09"/>
</a>
</g>
</g>
<!-- Node10&#45;&gt;Node2 -->
<g id="edge23_Node000010_Node000002" class="edge">
<title>Node10&#45;&gt;Node2</title>
<g id="a_edge23_Node000010_Node000002"><a xlink:title=" ">
<path fill="none" stroke="#63b8ff" d="M274.68,-164.98C256.34,-156.46 227.89,-143.23 206.77,-133.41"/>
<polygon fill="#63b8ff" stroke="#63b8ff" points="208.19,-130.21 197.65,-129.17 205.24,-136.56 208.19,-130.21"/>
</a>
</g>
</g>
<!-- Node10&#45;&gt;Node3 -->
<g id="edge12_Node000010_Node000003" class="edge">
<title>Node10&#45;&gt;Node3</title>
<g id="a_edge12_Node000010_Node000003"><a xlink:title=" ">
<path fill="none" stroke="#63b8ff" d="M311.05,-164.85C332.11,-153.49 362.55,-132.35 350,-110 341.89,-95.56 326.99,-85.26 312.75,-78.22"/>
<polygon fill="#63b8ff" stroke="#63b8ff" points="314.12,-75 303.57,-74.06 311.23,-81.38 314.12,-75"/>
</a>
</g>
</g>
<!-- Node11 -->
<g id="Node000011" class="node">
<title>Node11</title>
<g id="a_Node000011"><a xlink:href="utils_8h.html" target="_top" xlink:title=" ">
<polygon fill="white" stroke="#666666" points="560,-129 482,-129 482,-110 560,-110 560,-129"/>
<text text-anchor="middle" x="521" y="-117" font-family="Helvetica,sans-Serif" font-size="10.00">realm/utils.h</text>
</a>
</g>
</g>
<!-- Node10&#45;&gt;Node11 -->
<g id="edge13_Node000010_Node000011" class="edge">
<title>Node10&#45;&gt;Node11</title>
<g id="a_edge13_Node000010_Node000011"><a xlink:title=" ">
<path fill="none" stroke="#63b8ff" d="M329.63,-164.98C368.91,-155.86 431.37,-141.33 474.19,-131.38"/>
<polygon fill="#63b8ff" stroke="#63b8ff" points="475.13,-134.76 484.08,-129.08 473.55,-127.94 475.13,-134.76"/>
</a>
</g>
</g>
<!-- Node20 -->
<g id="Node000020" class="node">
<title>Node20</title>
<g id="a_Node000020"><a xlink:title=" ">
<polygon fill="#e0e0e0" stroke="#999999" points="631.5,-129 578.5,-129 578.5,-110 631.5,-110 631.5,-129"/>
<text text-anchor="middle" x="605" y="-117" font-family="Helvetica,sans-Serif" font-size="10.00">stdint.h</text>
</a>
</g>
</g>
<!-- Node10&#45;&gt;Node20 -->
<g id="edge24_Node000010_Node000020" class="edge">
<title>Node10&#45;&gt;Node20</title>
<g id="a_edge24_Node000010_Node000020"><a xlink:title=" ">
<path fill="none" stroke="#63b8ff" d="M337.75,-166.33C405.76,-155.42 530.54,-135.39 568.37,-128.83"/>
<polygon fill="#63b8ff" stroke="#63b8ff" points="569.1,-132.26 578.31,-127.03 567.85,-125.37 569.1,-132.26"/>
</a>
</g>
</g>
<!-- Node21 -->
<g id="Node000021" class="node">
<title>Node21</title>
<g id="a_Node000021"><a xlink:title=" ">
<polygon fill="#e0e0e0" stroke="#999999" points="340.5,-129 245.5,-129 245.5,-110 340.5,-110 340.5,-129"/>
<text text-anchor="middle" x="293" y="-117" font-family="Helvetica,sans-Serif" font-size="10.00">realm/mutex.inl</text>
</a>
</g>
</g>
<!-- Node10&#45;&gt;Node21 -->
<g id="edge25_Node000010_Node000021" class="edge">
<title>Node10&#45;&gt;Node21</title>
<g id="a_edge25_Node000010_Node000021"><a xlink:title=" ">
<path fill="none" stroke="#63b8ff" d="M293,-164.75C293,-157.8 293,-147.85 293,-139.13"/>
<polygon fill="#63b8ff" stroke="#63b8ff" points="296.5,-139.09 293,-129.09 289.5,-139.09 296.5,-139.09"/>
</a>
</g>
</g>
<!-- Node11&#45;&gt;Node3 -->
<g id="edge14_Node000011_Node000003" class="edge">
<title>Node11&#45;&gt;Node3</title>
<g id="a_edge14_Node000011_Node000003"><a xlink:title=" ">
<path fill="none" stroke="#63b8ff" d="M481.8,-109.98C439.59,-100.82 372.35,-86.21 326.52,-76.26"/>
<polygon fill="#63b8ff" stroke="#63b8ff" points="327.03,-72.78 316.51,-74.08 325.54,-79.63 327.03,-72.78"/>
</a>
</g>
</g>
<!-- Node12 -->
<g id="Node000012" class="node">
<title>Node12</title>
<g id="a_Node000012"><a xlink:title=" ">
<polygon fill="#e0e0e0" stroke="#999999" points="713,-74 669,-74 669,-55 713,-55 713,-74"/>
<text text-anchor="middle" x="691" y="-62" font-family="Helvetica,sans-Serif" font-size="10.00">string</text>
</a>
</g>
</g>
<!-- Node11&#45;&gt;Node12 -->
<g id="edge15_Node000011_Node000012" class="edge">
<title>Node11&#45;&gt;Node12</title>
<g id="a_edge15_Node000011_Node000012"><a xlink:title=" ">
<path fill="none" stroke="#63b8ff" d="M548.31,-109.98C578.55,-100.56 627.22,-85.38 659.16,-75.43"/>
<polygon fill="#63b8ff" stroke="#63b8ff" points="660.39,-78.71 668.9,-72.39 658.31,-72.03 660.39,-78.71"/>
</a>
</g>
</g>
<!-- Node13 -->
<g id="Node000013" class="node">
<title>Node13</title>
<g id="a_Node000013"><a xlink:title=" ">
<polygon fill="#e0e0e0" stroke="#999999" points="788.5,-74 731.5,-74 731.5,-55 788.5,-55 788.5,-74"/>
<text text-anchor="middle" x="760" y="-62" font-family="Helvetica,sans-Serif" font-size="10.00">ostream</text>
</a>
</g>
</g>
<!-- Node11&#45;&gt;Node13 -->
<g id="edge16_Node000011_Node000013" class="edge">
<title>Node11&#45;&gt;Node13</title>
<g id="a_edge16_Node000011_Node000013"><a xlink:title=" ">
<path fill="none" stroke="#63b8ff" d="M559.54,-109.99C597.95,-101.51 658.9,-88.03 721.34,-74.14"/>
<polygon fill="#63b8ff" stroke="#63b8ff" points="722.37,-77.5 731.37,-71.91 720.85,-70.67 722.37,-77.5"/>
</a>
</g>
</g>
<!-- Node14 -->
<g id="Node000014" class="node">
<title>Node14</title>
<g id="a_Node000014"><a xlink:title=" ">
<polygon fill="#e0e0e0" stroke="#999999" points="853.5,-74 806.5,-74 806.5,-55 853.5,-55 853.5,-74"/>
<text text-anchor="middle" x="830" y="-62" font-family="Helvetica,sans-Serif" font-size="10.00">vector</text>
</a>
</g>
</g>
<!-- Node11&#45;&gt;Node14 -->
<g id="edge17_Node000011_Node000014" class="edge">
<title>Node11&#45;&gt;Node14</title>
<g id="a_edge17_Node000011_Node000014"><a xlink:title=" ">
<path fill="none" stroke="#63b8ff" d="M560.04,-111.67C563.41,-111.1 566.76,-110.54 570,-110 668.05,-93.76 695.9,-95.09 796.35,-74.18"/>
<polygon fill="#63b8ff" stroke="#63b8ff" points="797.23,-77.57 806.3,-72.09 795.79,-70.72 797.23,-77.57"/>
</a>
</g>
</g>
<!-- Node15 -->
<g id="Node000015" class="node">
<title>Node15</title>
<g id="a_Node000015"><a xlink:title=" ">
<polygon fill="#e0e0e0" stroke="#999999" points="910,-74 872,-74 872,-55 910,-55 910,-74"/>
<text text-anchor="middle" x="891" y="-62" font-family="Helvetica,sans-Serif" font-size="10.00">map</text>
</a>
</g>
</g>
<!-- Node11&#45;&gt;Node15 -->
<g id="edge18_Node000011_Node000015" class="edge">
<title>Node11&#45;&gt;Node15</title>
<g id="a_edge18_Node000011_Node000015"><a xlink:title=" ">
<path fill="none" stroke="#63b8ff" d="M560.02,-111.55C563.39,-111.01 566.75,-110.48 570,-110 696.62,-91.25 732.88,-100.67 861.97,-73.87"/>
<polygon fill="#63b8ff" stroke="#63b8ff" points="862.77,-77.28 871.83,-71.79 861.33,-70.43 862.77,-77.28"/>
</a>
</g>
</g>
<!-- Node16 -->
<g id="Node000016" class="node">
<title>Node16</title>
<g id="a_Node000016"><a xlink:title=" ">
<polygon fill="#e0e0e0" stroke="#999999" points="407,-74 355,-74 355,-55 407,-55 407,-74"/>
<text text-anchor="middle" x="381" y="-62" font-family="Helvetica,sans-Serif" font-size="10.00">cassert</text>
</a>
</g>
</g>
<!-- Node11&#45;&gt;Node16 -->
<g id="edge19_Node000011_Node000016" class="edge">
<title>Node11&#45;&gt;Node16</title>
<g id="a_edge19_Node000011_Node000016"><a xlink:title=" ">
<path fill="none" stroke="#63b8ff" d="M498.51,-109.98C475.48,-101.27 439.46,-87.63 413.37,-77.75"/>
<polygon fill="#63b8ff" stroke="#63b8ff" points="414.49,-74.44 403.9,-74.17 412.02,-80.98 414.49,-74.44"/>
</a>
</g>
</g>
<!-- Node17 -->
<g id="Node000017" class="node">
<title>Node17</title>
<g id="a_Node000017"><a xlink:title=" ">
<polygon fill="#e0e0e0" stroke="#999999" points="475,-74 425,-74 425,-55 475,-55 475,-74"/>
<text text-anchor="middle" x="450" y="-62" font-family="Helvetica,sans-Serif" font-size="10.00">cstdint</text>
</a>
</g>
</g>
<!-- Node11&#45;&gt;Node17 -->
<g id="edge20_Node000011_Node000017" class="edge">
<title>Node11&#45;&gt;Node17</title>
<g id="a_edge20_Node000011_Node000017"><a xlink:title=" ">
<path fill="none" stroke="#63b8ff" d="M509.59,-109.98C498.89,-102 482.66,-89.88 469.84,-80.31"/>
<polygon fill="#63b8ff" stroke="#63b8ff" points="471.72,-77.35 461.61,-74.17 467.53,-82.96 471.72,-77.35"/>
</a>
</g>
</g>
<!-- Node18 -->
<g id="Node000018" class="node">
<title>Node18</title>
<g id="a_Node000018"><a xlink:title=" ">
<polygon fill="#e0e0e0" stroke="#999999" points="549,-74 493,-74 493,-55 549,-55 549,-74"/>
<text text-anchor="middle" x="521" y="-62" font-family="Helvetica,sans-Serif" font-size="10.00">sstream</text>
</a>
</g>
</g>
<!-- Node11&#45;&gt;Node18 -->
<g id="edge21_Node000011_Node000018" class="edge">
<title>Node11&#45;&gt;Node18</title>
<g id="a_edge21_Node000011_Node000018"><a xlink:title=" ">
<path fill="none" stroke="#63b8ff" d="M521,-109.75C521,-102.8 521,-92.85 521,-84.13"/>
<polygon fill="#63b8ff" stroke="#63b8ff" points="524.5,-84.09 521,-74.09 517.5,-84.09 524.5,-84.09"/>
</a>
</g>
</g>
<!-- Node19 -->
<g id="Node000019" class="node">
<title>Node19</title>
<g id="a_Node000019"><a xlink:title=" ">
<polygon fill="#e0e0e0" stroke="#999999" points="651,-74 567,-74 567,-55 651,-55 651,-74"/>
<text text-anchor="middle" x="609" y="-62" font-family="Helvetica,sans-Serif" font-size="10.00">realm/utils.inl</text>
</a>
</g>
</g>
<!-- Node11&#45;&gt;Node19 -->
<g id="edge22_Node000011_Node000019" class="edge">
<title>Node11&#45;&gt;Node19</title>
<g id="a_edge22_Node000011_Node000019"><a xlink:title=" ">
<path fill="none" stroke="#63b8ff" d="M535.14,-109.98C548.79,-101.77 569.69,-89.18 585.78,-79.49"/>
<polygon fill="#63b8ff" stroke="#63b8ff" points="587.84,-82.33 594.6,-74.17 584.23,-76.33 587.84,-82.33"/>
</a>
</g>
</g>
</g>
</svg>
