<?xml version="1.0" encoding="UTF-8" standalone="no"?>
<!DOCTYPE svg PUBLIC "-//W3C//DTD SVG 1.1//EN"
 "http://www.w3.org/Graphics/SVG/1.1/DTD/svg11.dtd">
<!-- Generated by graphviz version 2.43.0 (0)
 -->
<!-- Title: Realm::XferDes::SequenceCache&lt; UPDATE &gt; Pages: 1 -->
<svg width="1480pt" height="381pt"
 viewBox="0.00 0.00 1480.00 381.00" xmlns="http://www.w3.org/2000/svg" xmlns:xlink="http://www.w3.org/1999/xlink">
<g id="graph0" class="graph" transform="scale(1 1) rotate(0) translate(4 377)">
<title>Realm::XferDes::SequenceCache&lt; UPDATE &gt;</title>
<!-- Node1 -->
<g id="Node000001" class="node">
<title>Node1</title>
<g id="a_Node000001"><a xlink:title=" ">
<polygon fill="#999999" stroke="#666666" points="1468.5,-88 1322.5,-88 1322.5,-58 1468.5,-58 1468.5,-88"/>
<text text-anchor="start" x="1330.5" y="-76" font-family="Helvetica,sans-Serif" font-size="10.00">Realm::XferDes::Sequence</text>
<text text-anchor="middle" x="1395.5" y="-65" font-family="Helvetica,sans-Serif" font-size="10.00">Cache&lt; UPDATE &gt;</text>
</a>
</g>
</g>
<!-- Node2 -->
<g id="Node000002" class="node">
<title>Node2</title>
<g id="a_Node000002"><a xlink:href="classRealm_1_1XferDes.html" target="_top" xlink:title=" ">
<polygon fill="white" stroke="#666666" points="1180,-194.5 1087,-194.5 1087,-175.5 1180,-175.5 1180,-194.5"/>
<text text-anchor="middle" x="1133.5" y="-182.5" font-family="Helvetica,sans-Serif" font-size="10.00">Realm::XferDes</text>
</a>
</g>
</g>
<!-- Node2&#45;&gt;Node1 -->
<g id="edge1_Node000001_Node000002" class="edge">
<title>Node2&#45;&gt;Node1</title>
<g id="a_edge1_Node000001_Node000002"><a xlink:title=" ">
<path fill="none" stroke="#9a32cd" stroke-dasharray="5,2" d="M1147.91,-166.96C1161.27,-150.33 1183.31,-126.27 1208,-113 1243,-94.19 1286.17,-84.22 1322.15,-78.94"/>
<polygon fill="#9a32cd" stroke="#9a32cd" points="1144.78,-165.28 1141.42,-175.32 1150.31,-169.57 1144.78,-165.28"/>
</a>
</g>
<text text-anchor="middle" x="1254.5" y="-116" font-family="Helvetica,sans-Serif" font-size="10.00" fill="grey"> xd</text>
</g>
<!-- Node16 -->
<g id="Node000016" class="node">
<title>Node16</title>
<g id="a_Node000016"><a xlink:href="structRealm_1_1IntrusivePriorityListLink.html" target="_top" xlink:title=" ">
<polygon fill="white" stroke="#666666" points="1472,-180 1319,-180 1319,-150 1472,-150 1472,-180"/>
<text text-anchor="start" x="1327" y="-168" font-family="Helvetica,sans-Serif" font-size="10.00">Realm::IntrusivePriority</text>
<text text-anchor="middle" x="1395.5" y="-157" font-family="Helvetica,sans-Serif" font-size="10.00">ListLink&lt; Realm::XferDes &gt;</text>
</a>
</g>
</g>
<!-- Node2&#45;&gt;Node16 -->
<g id="edge17_Node000016_Node000002" class="edge">
<title>Node2&#45;&gt;Node16</title>
<g id="a_edge17_Node000016_Node000002"><a xlink:title=" ">
<path fill="none" stroke="#9a32cd" stroke-dasharray="5,2" d="M1152.17,-168.44C1166.13,-156.56 1186.75,-141.54 1208,-135 1259.25,-119.22 1321.11,-135.83 1359.12,-149.9"/>
<polygon fill="#9a32cd" stroke="#9a32cd" points="1149.56,-166.08 1144.39,-175.33 1154.2,-171.32 1149.56,-166.08"/>
</a>
</g>
<text text-anchor="middle" x="1254.5" y="-160" font-family="Helvetica,sans-Serif" font-size="10.00" fill="grey"> lastlink_within_pri</text>
<text text-anchor="middle" x="1254.5" y="-149" font-family="Helvetica,sans-Serif" font-size="10.00" fill="grey">next_lower_pri</text>
<text text-anchor="middle" x="1254.5" y="-138" font-family="Helvetica,sans-Serif" font-size="10.00" fill="grey">next_within_pri</text>
</g>
<!-- Node17 -->
<g id="Node000017" class="node">
<title>Node17</title>
<g id="a_Node000017"><a xlink:href="classRealm_1_1XferDes_1_1DeferredXDEnqueue.html" target="_top" xlink:title=" ">
<polygon fill="white" stroke="#666666" points="1466.5,-254 1324.5,-254 1324.5,-224 1466.5,-224 1466.5,-254"/>
<text text-anchor="start" x="1332.5" y="-242" font-family="Helvetica,sans-Serif" font-size="10.00">Realm::XferDes::Deferred</text>
<text text-anchor="middle" x="1395.5" y="-231" font-family="Helvetica,sans-Serif" font-size="10.00">XDEnqueue</text>
</a>
</g>
</g>
<!-- Node2&#45;&gt;Node17 -->
<g id="edge23_Node000017_Node000002" class="edge">
<title>Node2&#45;&gt;Node17</title>
<g id="a_edge23_Node000017_Node000002"><a xlink:title=" ">
<path fill="none" stroke="#9a32cd" stroke-dasharray="5,2" d="M1152.84,-201.1C1166.88,-212.35 1187.3,-226.47 1208,-233 1245.23,-244.74 1288.73,-246.75 1324.35,-245.6"/>
<polygon fill="#9a32cd" stroke="#9a32cd" points="1154.9,-198.27 1144.97,-194.57 1150.42,-203.65 1154.9,-198.27"/>
</a>
</g>
<text text-anchor="middle" x="1254.5" y="-248" font-family="Helvetica,sans-Serif" font-size="10.00" fill="grey"> xd</text>
</g>
<!-- Node3 -->
<g id="Node000003" class="node">
<title>Node3</title>
<g id="a_Node000003"><a xlink:href="classRealm_1_1XferDesQueue.html" target="_top" xlink:title=" ">
<polygon fill="white" stroke="#666666" points="918,-282.5 793,-282.5 793,-263.5 918,-263.5 918,-282.5"/>
<text text-anchor="middle" x="855.5" y="-270.5" font-family="Helvetica,sans-Serif" font-size="10.00">Realm::XferDesQueue</text>
</a>
</g>
</g>
<!-- Node3&#45;&gt;Node2 -->
<g id="edge2_Node000002_Node000003" class="edge">
<title>Node3&#45;&gt;Node2</title>
<g id="a_edge2_Node000002_Node000003"><a xlink:title=" ">
<path fill="none" stroke="#9a32cd" stroke-dasharray="5,2" d="M928.24,-261.8C976.57,-253.69 1035.61,-242.53 1059,-233 1082.71,-223.34 1106.96,-205.69 1120.82,-194.69"/>
<polygon fill="#9a32cd" stroke="#9a32cd" points="927.4,-258.39 918.11,-263.48 928.55,-265.3 927.4,-258.39"/>
</a>
</g>
<text text-anchor="middle" x="1005" y="-260" font-family="Helvetica,sans-Serif" font-size="10.00" fill="grey"> xferDes_queue</text>
</g>
<!-- Node3&#45;&gt;Node17 -->
<g id="edge22_Node000017_Node000003" class="edge">
<title>Node3&#45;&gt;Node17</title>
<g id="a_edge22_Node000017_Node000003"><a xlink:title=" ">
<path fill="none" stroke="#9a32cd" stroke-dasharray="5,2" d="M928.48,-275.56C1016.71,-277.62 1170.57,-277.75 1301,-260 1311.96,-258.51 1323.54,-256.37 1334.67,-254.03"/>
<polygon fill="#9a32cd" stroke="#9a32cd" points="928.4,-272.05 918.32,-275.3 928.23,-279.05 928.4,-272.05"/>
</a>
</g>
<text text-anchor="middle" x="1133.5" y="-278" font-family="Helvetica,sans-Serif" font-size="10.00" fill="grey"> xferDes_queue</text>
</g>
<!-- Node4 -->
<g id="Node000004" class="node">
<title>Node4</title>
<g id="a_Node000004"><a xlink:href="classRealm_1_1UnfairMutex.html" target="_top" xlink:title=" ">
<polygon fill="white" stroke="#666666" points="622.5,-313.5 507.5,-313.5 507.5,-294.5 622.5,-294.5 622.5,-313.5"/>
<text text-anchor="middle" x="565" y="-301.5" font-family="Helvetica,sans-Serif" font-size="10.00">Realm::UnfairMutex</text>
</a>
</g>
</g>
<!-- Node4&#45;&gt;Node2 -->
<g id="edge14_Node000002_Node000004" class="edge">
<title>Node4&#45;&gt;Node2</title>
<g id="a_edge14_Node000002_Node000004"><a xlink:title=" ">
<path fill="none" stroke="#9a32cd" stroke-dasharray="5,2" d="M622.66,-315.28C719.22,-331.4 918.79,-351.05 1059,-272 1092.41,-253.16 1117.39,-212.91 1127.53,-194.52"/>
<polygon fill="#9a32cd" stroke="#9a32cd" points="622.97,-311.78 612.53,-313.53 621.79,-318.68 622.97,-311.78"/>
</a>
</g>
<text text-anchor="middle" x="855.5" y="-365" font-family="Helvetica,sans-Serif" font-size="10.00" fill="grey"> available_req_mutex</text>
<text text-anchor="middle" x="855.5" y="-354" font-family="Helvetica,sans-Serif" font-size="10.00" fill="grey">update_read_lock</text>
<text text-anchor="middle" x="855.5" y="-343" font-family="Helvetica,sans-Serif" font-size="10.00" fill="grey">update_write_lock</text>
<text text-anchor="middle" x="855.5" y="-332" font-family="Helvetica,sans-Serif" font-size="10.00" fill="grey">xd_lock</text>
</g>
<!-- Node4&#45;&gt;Node3 -->
<g id="edge3_Node000003_Node000004" class="edge">
<title>Node4&#45;&gt;Node3</title>
<g id="a_edge3_Node000003_Node000004"><a xlink:title=" ">
<path fill="none" stroke="#9a32cd" stroke-dasharray="5,2" d="M618.51,-292.41C632.87,-289.6 648.48,-286.87 663,-285 706.12,-279.45 755.04,-276.44 792.64,-274.82"/>
<polygon fill="#9a32cd" stroke="#9a32cd" points="617.41,-289.06 608.3,-294.47 618.79,-295.93 617.41,-289.06"/>
</a>
</g>
<text text-anchor="middle" x="711.5" y="-299" font-family="Helvetica,sans-Serif" font-size="10.00" fill="grey"> guid_lock</text>
<text text-anchor="middle" x="711.5" y="-288" font-family="Helvetica,sans-Serif" font-size="10.00" fill="grey">queues_lock</text>
</g>
<!-- Node5 -->
<g id="Node000005" class="node">
<title>Node5</title>
<g id="a_Node000005"><a xlink:href="classRealm_1_1noncopyable.html" target="_top" xlink:title=" ">
<polygon fill="white" stroke="#666666" points="396,-350.5 280,-350.5 280,-331.5 396,-331.5 396,-350.5"/>
<text text-anchor="middle" x="338" y="-338.5" font-family="Helvetica,sans-Serif" font-size="10.00">Realm::noncopyable</text>
</a>
</g>
</g>
<!-- Node5&#45;&gt;Node4 -->
<g id="edge4_Node000004_Node000005" class="edge">
<title>Node5&#45;&gt;Node4</title>
<g id="a_edge4_Node000004_Node000005"><a xlink:title=" ">
<path fill="none" stroke="#63b8ff" d="M406.3,-329.93C438.52,-324.63 476.68,-318.36 507.38,-313.31"/>
<polygon fill="#63b8ff" stroke="#63b8ff" points="405.37,-326.54 396.07,-331.62 406.5,-333.45 405.37,-326.54"/>
</a>
</g>
</g>
<!-- Node6 -->
<g id="Node000006" class="node">
<title>Node6</title>
<g id="a_Node000006"><a xlink:href="classRealm_1_1atomic.html" target="_top" xlink:title=" ">
<polygon fill="white" stroke="#666666" points="413,-313.5 263,-313.5 263,-294.5 413,-294.5 413,-313.5"/>
<text text-anchor="middle" x="338" y="-301.5" font-family="Helvetica,sans-Serif" font-size="10.00">Realm::atomic&lt; uint32_t &gt;</text>
</a>
</g>
</g>
<!-- Node6&#45;&gt;Node4 -->
<g id="edge5_Node000004_Node000006" class="edge">
<title>Node6&#45;&gt;Node4</title>
<g id="a_edge5_Node000004_Node000006"><a xlink:title=" ">
<path fill="none" stroke="#9a32cd" stroke-dasharray="5,2" d="M423.47,-304C451.44,-304 481.88,-304 507.25,-304"/>
<polygon fill="#9a32cd" stroke="#9a32cd" points="423.3,-300.5 413.3,-304 423.3,-307.5 423.3,-300.5"/>
</a>
</g>
<text text-anchor="middle" x="449" y="-307" font-family="Helvetica,sans-Serif" font-size="10.00" fill="grey"> state</text>
</g>
<!-- Node7 -->
<g id="Node000007" class="node">
<title>Node7</title>
<g id="a_Node000007"><a xlink:href="classRealm_1_1DoorbellList.html" target="_top" xlink:title=" ">
<polygon fill="white" stroke="#666666" points="394.5,-276.5 281.5,-276.5 281.5,-257.5 394.5,-257.5 394.5,-276.5"/>
<text text-anchor="middle" x="338" y="-264.5" font-family="Helvetica,sans-Serif" font-size="10.00">Realm::DoorbellList</text>
</a>
</g>
</g>
<!-- Node7&#45;&gt;Node4 -->
<g id="edge6_Node000004_Node000007" class="edge">
<title>Node7&#45;&gt;Node4</title>
<g id="a_edge6_Node000004_Node000007"><a xlink:title=" ">
<path fill="none" stroke="#9a32cd" stroke-dasharray="5,2" d="M404.52,-277.77C437.13,-283.14 476.17,-289.56 507.46,-294.7"/>
<polygon fill="#9a32cd" stroke="#9a32cd" points="405.05,-274.32 394.62,-276.15 403.92,-281.22 405.05,-274.32"/>
</a>
</g>
<text text-anchor="middle" x="449" y="-290" font-family="Helvetica,sans-Serif" font-size="10.00" fill="grey"> db_list</text>
</g>
<!-- Node8 -->
<g id="Node000008" class="node">
<title>Node8</title>
<g id="a_Node000008"><a xlink:href="classRealm_1_1atomic.html" target="_top" xlink:title=" ">
<polygon fill="white" stroke="#666666" points="152,-276.5 0,-276.5 0,-257.5 152,-257.5 152,-276.5"/>
<text text-anchor="middle" x="76" y="-264.5" font-family="Helvetica,sans-Serif" font-size="10.00">Realm::atomic&lt; uintptr_t &gt;</text>
</a>
</g>
</g>
<!-- Node8&#45;&gt;Node7 -->
<g id="edge7_Node000007_Node000008" class="edge">
<title>Node8&#45;&gt;Node7</title>
<g id="a_edge7_Node000007_Node000008"><a xlink:title=" ">
<path fill="none" stroke="#9a32cd" stroke-dasharray="5,2" d="M162.52,-267C201.61,-267 246.79,-267 281.38,-267"/>
<polygon fill="#9a32cd" stroke="#9a32cd" points="162.2,-263.5 152.2,-267 162.2,-270.5 162.2,-263.5"/>
</a>
</g>
<text text-anchor="middle" x="207.5" y="-270" font-family="Helvetica,sans-Serif" font-size="10.00" fill="grey"> head_or_count</text>
</g>
<!-- Node9 -->
<g id="Node000009" class="node">
<title>Node9</title>
<g id="a_Node000009"><a xlink:href="classRealm_1_1atomic.html" target="_top" xlink:title=" ">
<polygon fill="white" stroke="#666666" points="645,-259.5 485,-259.5 485,-240.5 645,-240.5 645,-259.5"/>
<text text-anchor="middle" x="565" y="-247.5" font-family="Helvetica,sans-Serif" font-size="10.00">Realm::atomic&lt; XferDesID &gt;</text>
</a>
</g>
</g>
<!-- Node9&#45;&gt;Node3 -->
<g id="edge8_Node000003_Node000009" class="edge">
<title>Node9&#45;&gt;Node3</title>
<g id="a_edge8_Node000003_Node000009"><a xlink:title=" ">
<path fill="none" stroke="#9a32cd" stroke-dasharray="5,2" d="M655.15,-246.3C688.19,-246.02 725.9,-246.99 760,-251 780.75,-253.44 803.56,-258.67 821.58,-263.43"/>
<polygon fill="#9a32cd" stroke="#9a32cd" points="655.02,-242.8 645.06,-246.42 655.1,-249.8 655.02,-242.8"/>
</a>
</g>
<text text-anchor="middle" x="711.5" y="-254" font-family="Helvetica,sans-Serif" font-size="10.00" fill="grey"> next_to_assign_idx</text>
</g>
<!-- Node10 -->
<g id="Node000010" class="node">
<title>Node10</title>
<g id="a_Node000010"><a xlink:href="classRealm_1_1atomic.html" target="_top" xlink:title=" ">
<polygon fill="white" stroke="#666666" points="921,-79.5 790,-79.5 790,-60.5 921,-60.5 921,-79.5"/>
<text text-anchor="middle" x="855.5" y="-67.5" font-family="Helvetica,sans-Serif" font-size="10.00">Realm::atomic&lt; bool &gt;</text>
</a>
</g>
</g>
<!-- Node10&#45;&gt;Node2 -->
<g id="edge9_Node000002_Node000010" class="edge">
<title>Node10&#45;&gt;Node2</title>
<g id="a_edge9_Node000002_Node000010"><a xlink:title=" ">
<path fill="none" stroke="#9a32cd" stroke-dasharray="5,2" d="M931.1,-61C971.33,-59.59 1020.47,-63.68 1059,-85 1096.52,-105.76 1120.12,-154.67 1128.77,-175.42"/>
<polygon fill="#9a32cd" stroke="#9a32cd" points="930.91,-57.5 921.08,-61.47 931.23,-64.5 930.91,-57.5"/>
</a>
</g>
<text text-anchor="middle" x="1005" y="-99" font-family="Helvetica,sans-Serif" font-size="10.00" fill="grey"> iteration_completed</text>
<text text-anchor="middle" x="1005" y="-88" font-family="Helvetica,sans-Serif" font-size="10.00" fill="grey">transfer_completed</text>
</g>
<!-- Node11 -->
<g id="Node000011" class="node">
<title>Node11</title>
<g id="a_Node000011"><a xlink:href="classRealm_1_1atomic.html" target="_top" xlink:title=" ">
<polygon fill="white" stroke="#666666" points="927.5,-42.5 783.5,-42.5 783.5,-23.5 927.5,-23.5 927.5,-42.5"/>
<text text-anchor="middle" x="855.5" y="-30.5" font-family="Helvetica,sans-Serif" font-size="10.00">Realm::atomic&lt; int64_t &gt;</text>
</a>
</g>
</g>
<!-- Node11&#45;&gt;Node2 -->
<g id="edge10_Node000002_Node000011" class="edge">
<title>Node11&#45;&gt;Node2</title>
<g id="a_edge10_Node000002_Node000011"><a xlink:title=" ">
<path fill="none" stroke="#9a32cd" stroke-dasharray="5,2" d="M916.12,-22.28C959.2,-17.8 1016.97,-18.81 1059,-46 1106.67,-76.84 1125.4,-149.33 1130.74,-175.43"/>
<polygon fill="#9a32cd" stroke="#9a32cd" points="915.59,-18.82 906.06,-23.46 916.4,-25.77 915.59,-18.82"/>
</a>
</g>
<text text-anchor="middle" x="1005" y="-49" font-family="Helvetica,sans-Serif" font-size="10.00" fill="grey"> bytes_write_pending</text>
</g>
<!-- Node12 -->
<g id="Node000012" class="node">
<title>Node12</title>
<g id="a_Node000012"><a xlink:href="structRealm_1_1XferDes_1_1ControlPortState.html" target="_top" xlink:title=" ">
<polygon fill="white" stroke="#666666" points="932.5,-235 778.5,-235 778.5,-205 932.5,-205 932.5,-235"/>
<text text-anchor="start" x="786.5" y="-223" font-family="Helvetica,sans-Serif" font-size="10.00">Realm::XferDes::ControlPort</text>
<text text-anchor="middle" x="855.5" y="-212" font-family="Helvetica,sans-Serif" font-size="10.00">State</text>
</a>
</g>
</g>
<!-- Node12&#45;&gt;Node2 -->
<g id="edge11_Node000002_Node000012" class="edge">
<title>Node12&#45;&gt;Node2</title>
<g id="a_edge11_Node000002_Node000012"><a xlink:title=" ">
<path fill="none" stroke="#9a32cd" stroke-dasharray="5,2" d="M942.67,-209.07C990.36,-203.02 1047.72,-195.75 1086.82,-190.79"/>
<polygon fill="#9a32cd" stroke="#9a32cd" points="942.13,-205.61 932.65,-210.34 943.01,-212.56 942.13,-205.61"/>
</a>
</g>
<text text-anchor="middle" x="1005" y="-221" font-family="Helvetica,sans-Serif" font-size="10.00" fill="grey"> input_control</text>
<text text-anchor="middle" x="1005" y="-210" font-family="Helvetica,sans-Serif" font-size="10.00" fill="grey">output_control</text>
</g>
<!-- Node13 -->
<g id="Node000013" class="node">
<title>Node13</title>
<g id="a_Node000013"><a xlink:href="classRealm_1_1ControlPort_1_1Decoder.html" target="_top" xlink:title=" ">
<polygon fill="white" stroke="#666666" points="619.5,-222 510.5,-222 510.5,-192 619.5,-192 619.5,-222"/>
<text text-anchor="start" x="518.5" y="-210" font-family="Helvetica,sans-Serif" font-size="10.00">Realm::ControlPort</text>
<text text-anchor="middle" x="565" y="-199" font-family="Helvetica,sans-Serif" font-size="10.00">::Decoder</text>
</a>
</g>
</g>
<!-- Node13&#45;&gt;Node12 -->
<g id="edge12_Node000012_Node000013" class="edge">
<title>Node13&#45;&gt;Node12</title>
<g id="a_edge12_Node000012_Node000013"><a xlink:title=" ">
<path fill="none" stroke="#9a32cd" stroke-dasharray="5,2" d="M629.84,-209.88C673.68,-211.85 732.08,-214.48 778.36,-216.57"/>
<polygon fill="#9a32cd" stroke="#9a32cd" points="629.74,-206.37 619.59,-209.41 629.42,-213.36 629.74,-206.37"/>
</a>
</g>
<text text-anchor="middle" x="711.5" y="-218" font-family="Helvetica,sans-Serif" font-size="10.00" fill="grey"> decoder</text>
</g>
<!-- Node14 -->
<g id="Node000014" class="node">
<title>Node14</title>
<g id="a_Node000014"><a xlink:href="classRealm_1_1Channel.html" target="_top" xlink:title=" ">
<polygon fill="white" stroke="#666666" points="902.5,-186.5 808.5,-186.5 808.5,-167.5 902.5,-167.5 902.5,-186.5"/>
<text text-anchor="middle" x="855.5" y="-174.5" font-family="Helvetica,sans-Serif" font-size="10.00">Realm::Channel</text>
</a>
</g>
</g>
<!-- Node14&#45;&gt;Node2 -->
<g id="edge13_Node000002_Node000014" class="edge">
<title>Node14&#45;&gt;Node2</title>
<g id="a_edge13_Node000002_Node000014"><a xlink:title=" ">
<path fill="none" stroke="#9a32cd" stroke-dasharray="5,2" d="M912.94,-178.64C964.22,-180.12 1038.92,-182.29 1086.61,-183.67"/>
<polygon fill="#9a32cd" stroke="#9a32cd" points="912.79,-175.13 902.7,-178.34 912.59,-182.13 912.79,-175.13"/>
</a>
</g>
<text text-anchor="middle" x="1005" y="-185" font-family="Helvetica,sans-Serif" font-size="10.00" fill="grey"> channel</text>
</g>
<!-- Node15 -->
<g id="Node000015" class="node">
<title>Node15</title>
<g id="a_Node000015"><a xlink:href="classRealm_1_1atomic.html" target="_top" xlink:title=" ">
<polygon fill="white" stroke="#666666" points="933,-124.5 778,-124.5 778,-105.5 933,-105.5 933,-124.5"/>
<text text-anchor="middle" x="855.5" y="-112.5" font-family="Helvetica,sans-Serif" font-size="10.00">Realm::atomic&lt; unsigned &gt;</text>
</a>
</g>
</g>
<!-- Node15&#45;&gt;Node2 -->
<g id="edge15_Node000002_Node000015" class="edge">
<title>Node15&#45;&gt;Node2</title>
<g id="a_edge15_Node000002_Node000015"><a xlink:title=" ">
<path fill="none" stroke="#9a32cd" stroke-dasharray="5,2" d="M943.35,-111.47C980.03,-112.6 1022.6,-117.45 1059,-131 1085.12,-140.72 1110.06,-162.6 1123.1,-175.32"/>
<polygon fill="#9a32cd" stroke="#9a32cd" points="943.24,-107.97 933.17,-111.25 943.09,-114.97 943.24,-107.97"/>
</a>
</g>
<text text-anchor="start" x="951" y="-167" font-family="Helvetica,sans-Serif" font-size="10.00" fill="grey"> nb_update_pre_bytes</text>
<text text-anchor="middle" x="1005" y="-156" font-family="Helvetica,sans-Serif" font-size="10.00" fill="grey">_total_calls_received</text>
<text text-anchor="middle" x="1005" y="-145" font-family="Helvetica,sans-Serif" font-size="10.00" fill="grey">progress_counter</text>
<text text-anchor="middle" x="1005" y="-134" font-family="Helvetica,sans-Serif" font-size="10.00" fill="grey">reference_count</text>
</g>
<!-- Node16&#45;&gt;Node2 -->
<g id="edge16_Node000002_Node000016" class="edge">
<title>Node16&#45;&gt;Node2</title>
<g id="a_edge16_Node000002_Node000016"><a xlink:title=" ">
<path fill="none" stroke="#9a32cd" stroke-dasharray="5,2" d="M1308.69,-171.6C1265.77,-174.9 1215.55,-178.77 1180.09,-181.49"/>
<polygon fill="#9a32cd" stroke="#9a32cd" points="1309.16,-175.07 1318.87,-170.82 1308.63,-168.1 1309.16,-175.07"/>
</a>
</g>
<text text-anchor="middle" x="1254.5" y="-182" font-family="Helvetica,sans-Serif" font-size="10.00" fill="grey"> xd_link</text>
</g>
<!-- Node17&#45;&gt;Node2 -->
<g id="edge18_Node000002_Node000017" class="edge">
<title>Node17&#45;&gt;Node2</title>
<g id="a_edge18_Node000002_Node000017"><a xlink:title=" ">
<path fill="none" stroke="#9a32cd" stroke-dasharray="5,2" d="M1314.6,-222.41C1270.44,-213.23 1217.19,-202.17 1180.09,-194.47"/>
<polygon fill="#9a32cd" stroke="#9a32cd" points="1313.95,-225.84 1324.45,-224.45 1315.37,-218.99 1313.95,-225.84"/>
</a>
</g>
<text text-anchor="middle" x="1254.5" y="-221" font-family="Helvetica,sans-Serif" font-size="10.00" fill="grey"> deferred_enqueue</text>
</g>
<!-- Node18 -->
<g id="Node000018" class="node">
<title>Node18</title>
<g id="a_Node000018"><a xlink:href="classRealm_1_1EventWaiter.html" target="_top" xlink:title=" ">
<polygon fill="white" stroke="#666666" points="1190,-48.5 1077,-48.5 1077,-29.5 1190,-29.5 1190,-48.5"/>
<text text-anchor="middle" x="1133.5" y="-36.5" font-family="Helvetica,sans-Serif" font-size="10.00">Realm::EventWaiter</text>
</a>
</g>
</g>
<!-- Node18&#45;&gt;Node17 -->
<g id="edge19_Node000017_Node000018" class="edge">
<title>Node18&#45;&gt;Node17</title>
<g id="a_edge19_Node000017_Node000018"><a xlink:title=" ">
<path fill="none" stroke="#63b8ff" d="M1143.25,-57.86C1154.86,-80.83 1177.5,-119.25 1208,-141 1243.15,-166.06 1264.55,-145.88 1301,-169 1311.1,-175.41 1309.94,-181.19 1319,-189 1334.24,-202.14 1353.12,-214.64 1368.18,-223.85"/>
<polygon fill="#63b8ff" stroke="#63b8ff" points="1146.36,-56.24 1138.83,-48.78 1140.06,-59.3 1146.36,-56.24"/>
</a>
</g>
</g>
<!-- Node19 -->
<g id="Node000019" class="node">
<title>Node19</title>
<g id="a_Node000019"><a xlink:href="structRealm_1_1IntrusiveListLink.html" target="_top" xlink:title=" ">
<polygon fill="white" stroke="#666666" points="1463.5,-30 1327.5,-30 1327.5,0 1463.5,0 1463.5,-30"/>
<text text-anchor="start" x="1335.5" y="-18" font-family="Helvetica,sans-Serif" font-size="10.00">Realm::IntrusiveListLink</text>
<text text-anchor="middle" x="1395.5" y="-7" font-family="Helvetica,sans-Serif" font-size="10.00">&lt; Realm::EventWaiter &gt;</text>
</a>
</g>
</g>
<!-- Node18&#45;&gt;Node19 -->
<g id="edge21_Node000019_Node000018" class="edge">
<title>Node18&#45;&gt;Node19</title>
<g id="a_edge21_Node000019_Node000018"><a xlink:title=" ">
<path fill="none" stroke="#9a32cd" stroke-dasharray="5,2" d="M1162.14,-25.24C1175.62,-19.28 1192.28,-12.99 1208,-10 1247.14,-2.56 1291.72,-3.42 1327.48,-6.33"/>
<polygon fill="#9a32cd" stroke="#9a32cd" points="1160.57,-22.11 1152.95,-29.47 1163.5,-28.47 1160.57,-22.11"/>
</a>
</g>
<text text-anchor="middle" x="1254.5" y="-13" font-family="Helvetica,sans-Serif" font-size="10.00" fill="grey"> next</text>
</g>
<!-- Node19&#45;&gt;Node18 -->
<g id="edge20_Node000018_Node000019" class="edge">
<title>Node19&#45;&gt;Node18</title>
<g id="a_edge20_Node000018_Node000019"><a xlink:title=" ">
<path fill="none" stroke="#9a32cd" stroke-dasharray="5,2" d="M1317.11,-22.14C1276.35,-25.91 1227.28,-30.44 1190.28,-33.85"/>
<polygon fill="#9a32cd" stroke="#9a32cd" points="1317.65,-25.61 1327.28,-21.2 1317,-18.64 1317.65,-25.61"/>
</a>
</g>
<text text-anchor="middle" x="1254.5" y="-35" font-family="Helvetica,sans-Serif" font-size="10.00" fill="grey"> ew_list_link</text>
</g>
</g>
</svg>
