<?xml version="1.0" encoding="UTF-8" standalone="no"?>
<!DOCTYPE svg PUBLIC "-//W3C//DTD SVG 1.1//EN"
 "http://www.w3.org/Graphics/SVG/1.1/DTD/svg11.dtd">
<!-- Generated by graphviz version 2.43.0 (0)
 -->
<!-- Title: Realm::Type Pages: 1 -->
<svg width="552pt" height="82pt"
 viewBox="0.00 0.00 551.50 82.00" xmlns="http://www.w3.org/2000/svg" xmlns:xlink="http://www.w3.org/1999/xlink">
<g id="graph0" class="graph" transform="scale(1 1) rotate(0) translate(4 78)">
<title>Realm::Type</title>
<!-- Node1 -->
<g id="Node000001" class="node">
<title>Node1</title>
<g id="a_Node000001"><a xlink:title=" ">
<polygon fill="#999999" stroke="#666666" points="329.5,-74 252.5,-74 252.5,-55 329.5,-55 329.5,-74"/>
<text text-anchor="middle" x="291" y="-62" font-family="Helvetica,sans-Serif" font-size="10.00">Realm::Type</text>
</a>
</g>
</g>
<!-- Node2 -->
<g id="Node000002" class="node">
<title>Node2</title>
<g id="a_Node000002"><a xlink:href="classRealm_1_1FunctionPointerType.html" target="_top" xlink:title=" ">
<polygon fill="white" stroke="#666666" points="152,-19 0,-19 0,0 152,0 152,-19"/>
<text text-anchor="middle" x="76" y="-7" font-family="Helvetica,sans-Serif" font-size="10.00">Realm::FunctionPointerType</text>
</a>
</g>
</g>
<!-- Node1&#45;&gt;Node2 -->
<g id="edge1_Node000001_Node000002" class="edge">
<title>Node1&#45;&gt;Node2</title>
<g id="a_edge1_Node000001_Node000002"><a xlink:title=" ">
<path fill="none" stroke="#63b8ff" d="M246.64,-52.56C206.37,-42.64 147.8,-28.2 110.81,-19.08"/>
<polygon fill="#63b8ff" stroke="#63b8ff" points="245.91,-55.99 256.46,-54.98 247.58,-49.19 245.91,-55.99"/>
</a>
</g>
</g>
<!-- Node3 -->
<g id="Node000003" class="node">
<title>Node3</title>
<g id="a_Node000003"><a xlink:href="classRealm_1_1IntegerType.html" target="_top" xlink:title=" ">
<polygon fill="white" stroke="#666666" points="281.5,-19 170.5,-19 170.5,0 281.5,0 281.5,-19"/>
<text text-anchor="middle" x="226" y="-7" font-family="Helvetica,sans-Serif" font-size="10.00">Realm::IntegerType</text>
</a>
</g>
</g>
<!-- Node1&#45;&gt;Node3 -->
<g id="edge2_Node000001_Node000003" class="edge">
<title>Node1&#45;&gt;Node3</title>
<g id="a_edge2_Node000001_Node000003"><a xlink:title=" ">
<path fill="none" stroke="#63b8ff" d="M272.73,-48.6C261.08,-39.11 246.4,-27.13 236.63,-19.17"/>
<polygon fill="#63b8ff" stroke="#63b8ff" points="270.59,-51.38 280.56,-54.98 275.02,-45.95 270.59,-51.38"/>
</a>
</g>
</g>
<!-- Node4 -->
<g id="Node000004" class="node">
<title>Node4</title>
<g id="a_Node000004"><a xlink:href="classRealm_1_1OpaqueType.html" target="_top" xlink:title=" ">
<polygon fill="white" stroke="#666666" points="414,-19 300,-19 300,0 414,0 414,-19"/>
<text text-anchor="middle" x="357" y="-7" font-family="Helvetica,sans-Serif" font-size="10.00">Realm::OpaqueType</text>
</a>
</g>
</g>
<!-- Node1&#45;&gt;Node4 -->
<g id="edge3_Node000001_Node000004" class="edge">
<title>Node1&#45;&gt;Node4</title>
<g id="a_edge3_Node000001_Node000004"><a xlink:title=" ">
<path fill="none" stroke="#63b8ff" d="M309.55,-48.6C321.38,-39.11 336.29,-27.13 346.2,-19.17"/>
<polygon fill="#63b8ff" stroke="#63b8ff" points="307.21,-45.99 301.6,-54.98 311.59,-51.45 307.21,-45.99"/>
</a>
</g>
</g>
<!-- Node5 -->
<g id="Node000005" class="node">
<title>Node5</title>
<g id="a_Node000005"><a xlink:href="classRealm_1_1PointerType.html" target="_top" xlink:title=" ">
<polygon fill="white" stroke="#666666" points="543.5,-19 432.5,-19 432.5,0 543.5,0 543.5,-19"/>
<text text-anchor="middle" x="488" y="-7" font-family="Helvetica,sans-Serif" font-size="10.00">Realm::PointerType</text>
</a>
</g>
</g>
<!-- Node1&#45;&gt;Node5 -->
<g id="edge4_Node000001_Node000005" class="edge">
<title>Node1&#45;&gt;Node5</title>
<g id="a_edge4_Node000001_Node000005"><a xlink:title=" ">
<path fill="none" stroke="#63b8ff" d="M332.59,-52.31C369.45,-42.39 422.5,-28.12 456.1,-19.08"/>
<polygon fill="#63b8ff" stroke="#63b8ff" points="331.4,-49.01 322.65,-54.98 333.22,-55.77 331.4,-49.01"/>
</a>
</g>
</g>
</g>
</svg>
