<?xml version="1.0" encoding="UTF-8" standalone="no"?>
<!DOCTYPE svg PUBLIC "-//W3C//DTD SVG 1.1//EN"
 "http://www.w3.org/Graphics/SVG/1.1/DTD/svg11.dtd">
<!-- Generated by graphviz version 2.43.0 (0)
 -->
<!-- Title: Realm::IncomingMessageManager Pages: 1 -->
<svg width="1370pt" height="686pt"
 viewBox="0.00 0.00 1370.00 685.85" xmlns="http://www.w3.org/2000/svg" xmlns:xlink="http://www.w3.org/1999/xlink">
<g id="graph0" class="graph" transform="scale(1 1) rotate(0) translate(4 681.85)">
<title>Realm::IncomingMessageManager</title>
<!-- Node1 -->
<g id="Node000001" class="node">
<title>Node1</title>
<g id="a_Node000001"><a xlink:title=" ">
<polygon fill="#999999" stroke="#666666" points="1362,-188 1177,-188 1177,-169 1362,-169 1362,-188"/>
<text text-anchor="middle" x="1269.5" y="-176" font-family="Helvetica,sans-Serif" font-size="10.00">Realm::IncomingMessageManager</text>
</a>
</g>
</g>
<!-- Node2 -->
<g id="Node000002" class="node">
<title>Node2</title>
<g id="a_Node000002"><a xlink:href="classRealm_1_1BackgroundWorkItem.html" target="_top" xlink:title=" ">
<polygon fill="white" stroke="#666666" points="711,-301 552,-301 552,-282 711,-282 711,-301"/>
<text text-anchor="middle" x="631.5" y="-289" font-family="Helvetica,sans-Serif" font-size="10.00">Realm::BackgroundWorkItem</text>
</a>
</g>
</g>
<!-- Node2&#45;&gt;Node1 -->
<g id="edge1_Node000001_Node000002" class="edge">
<title>Node2&#45;&gt;Node1</title>
<g id="a_edge1_Node000001_Node000002"><a xlink:title=" ">
<path fill="none" stroke="#63b8ff" d="M720.3,-277.71C722.61,-276.42 724.85,-275.02 727,-273.5 740,-264.29 731.68,-251.24 745,-242.5 805.99,-202.51 998.62,-213.48 1071,-204.5 1113.21,-199.26 1160.46,-193.05 1198.15,-188.02"/>
<polygon fill="#63b8ff" stroke="#63b8ff" points="718.54,-274.68 711.05,-282.17 721.58,-280.98 718.54,-274.68"/>
</a>
</g>
</g>
<!-- Node3 -->
<g id="Node000003" class="node">
<title>Node3</title>
<g id="a_Node000003"><a xlink:href="classRealm_1_1BackgroundWorkManager.html" target="_top" xlink:title=" ">
<polygon fill="white" stroke="#666666" points="1068,-417 889,-417 889,-398 1068,-398 1068,-417"/>
<text text-anchor="middle" x="978.5" y="-405" font-family="Helvetica,sans-Serif" font-size="10.00">Realm::BackgroundWorkManager</text>
</a>
</g>
</g>
<!-- Node2&#45;&gt;Node3 -->
<g id="edge12_Node000003_Node000002" class="edge">
<title>Node2&#45;&gt;Node3</title>
<g id="a_edge12_Node000003_Node000002"><a xlink:title=" ">
<path fill="none" stroke="#9a32cd" stroke-dasharray="5,2" d="M689.09,-280.43C738.44,-273.46 810.86,-269.87 868,-294.5 918.93,-316.45 957.94,-374.64 971.91,-397.8"/>
<polygon fill="#9a32cd" stroke="#9a32cd" points="688.29,-277.01 678.93,-281.96 689.33,-283.93 688.29,-277.01"/>
</a>
</g>
<text text-anchor="middle" x="806.5" y="-297.5" font-family="Helvetica,sans-Serif" font-size="10.00" fill="grey"> work_items</text>
</g>
<!-- Node3&#45;&gt;Node2 -->
<g id="edge2_Node000002_Node000003" class="edge">
<title>Node3&#45;&gt;Node2</title>
<g id="a_edge2_Node000002_Node000003"><a xlink:title=" ">
<path fill="none" stroke="#9a32cd" stroke-dasharray="5,2" d="M959.7,-391.1C939.19,-373.19 903.73,-345.12 868,-330.5 852.56,-324.18 763.4,-310.39 699.35,-301.02"/>
<polygon fill="#9a32cd" stroke="#9a32cd" points="957.48,-393.81 967.28,-397.86 962.14,-388.59 957.48,-393.81"/>
</a>
</g>
<text text-anchor="middle" x="806.5" y="-333.5" font-family="Helvetica,sans-Serif" font-size="10.00" fill="grey"> manager</text>
</g>
<!-- Node4 -->
<g id="Node000004" class="node">
<title>Node4</title>
<g id="a_Node000004"><a xlink:href="structRealm_1_1BackgroundWorkManager_1_1Config.html" target="_top" xlink:title=" ">
<polygon fill="white" stroke="#666666" points="721,-528.5 542,-528.5 542,-498.5 721,-498.5 721,-528.5"/>
<text text-anchor="start" x="550" y="-516.5" font-family="Helvetica,sans-Serif" font-size="10.00">Realm::BackgroundWorkManager</text>
<text text-anchor="middle" x="631.5" y="-505.5" font-family="Helvetica,sans-Serif" font-size="10.00">::Config</text>
</a>
</g>
</g>
<!-- Node4&#45;&gt;Node3 -->
<g id="edge3_Node000003_Node000004" class="edge">
<title>Node4&#45;&gt;Node3</title>
<g id="a_edge3_Node000003_Node000004"><a xlink:title=" ">
<path fill="none" stroke="#9a32cd" stroke-dasharray="5,2" d="M731.4,-503.05C784.16,-496.64 843.21,-487.87 868,-478.5 907.42,-463.6 947.36,-432.87 966.26,-417.18"/>
<polygon fill="#9a32cd" stroke="#9a32cd" points="730.8,-499.6 721.29,-504.26 731.63,-506.55 730.8,-499.6"/>
</a>
</g>
<text text-anchor="middle" x="806.5" y="-503.5" font-family="Helvetica,sans-Serif" font-size="10.00" fill="grey"> cfg</text>
</g>
<!-- Node5 -->
<g id="Node000005" class="node">
<title>Node5</title>
<g id="a_Node000005"><a xlink:href="classRealm_1_1UnfairMutex.html" target="_top" xlink:title=" ">
<polygon fill="white" stroke="#666666" points="689,-604 574,-604 574,-585 689,-585 689,-604"/>
<text text-anchor="middle" x="631.5" y="-592" font-family="Helvetica,sans-Serif" font-size="10.00">Realm::UnfairMutex</text>
</a>
</g>
</g>
<!-- Node5&#45;&gt;Node1 -->
<g id="edge28_Node000001_Node000005" class="edge">
<title>Node5&#45;&gt;Node1</title>
<g id="a_edge28_Node000001_Node000005"><a xlink:title=" ">
<path fill="none" stroke="#9a32cd" stroke-dasharray="5,2" d="M699.13,-600.67C747.48,-602.76 813.67,-600.59 868,-580.5 1080.06,-502.08 1233.78,-241.18 1263.33,-188.01"/>
<polygon fill="#9a32cd" stroke="#9a32cd" points="699.26,-597.17 689.09,-600.16 698.91,-604.16 699.26,-597.17"/>
</a>
</g>
<text text-anchor="middle" x="978.5" y="-573.5" font-family="Helvetica,sans-Serif" font-size="10.00" fill="grey"> mutex</text>
</g>
<!-- Node5&#45;&gt;Node3 -->
<g id="edge4_Node000003_Node000005" class="edge">
<title>Node5&#45;&gt;Node3</title>
<g id="a_edge4_Node000003_Node000005"><a xlink:title=" ">
<path fill="none" stroke="#9a32cd" stroke-dasharray="5,2" d="M695.71,-582.92C706.21,-580.67 716.95,-578.17 727,-575.5 735.15,-573.33 736.84,-571.61 745,-569.5 798.84,-555.56 820.42,-575.29 868,-546.5 922.4,-513.58 960.42,-443.01 972.98,-417.21"/>
<polygon fill="#9a32cd" stroke="#9a32cd" points="694.82,-579.53 685.75,-584.99 696.25,-586.38 694.82,-579.53"/>
</a>
</g>
<text text-anchor="middle" x="806.5" y="-572.5" font-family="Helvetica,sans-Serif" font-size="10.00" fill="grey"> mutex</text>
</g>
<!-- Node22 -->
<g id="Node000022" class="node">
<title>Node22</title>
<g id="a_Node000022"><a xlink:href="classRealm_1_1UnfairCondVar.html" target="_top" xlink:title=" ">
<polygon fill="white" stroke="#666666" points="1041,-653 916,-653 916,-634 1041,-634 1041,-653"/>
<text text-anchor="middle" x="978.5" y="-641" font-family="Helvetica,sans-Serif" font-size="10.00">Realm::UnfairCondVar</text>
</a>
</g>
</g>
<!-- Node5&#45;&gt;Node22 -->
<g id="edge31_Node000022_Node000005" class="edge">
<title>Node5&#45;&gt;Node22</title>
<g id="a_edge31_Node000022_Node000005"><a xlink:title=" ">
<path fill="none" stroke="#9a32cd" stroke-dasharray="5,2" d="M699.26,-603.98C761.96,-612.89 854.99,-626.1 915.93,-634.76"/>
<polygon fill="#9a32cd" stroke="#9a32cd" points="699.48,-600.48 689.08,-602.54 698.49,-607.41 699.48,-600.48"/>
</a>
</g>
<text text-anchor="middle" x="806.5" y="-630.5" font-family="Helvetica,sans-Serif" font-size="10.00" fill="grey"> mutex</text>
</g>
<!-- Node6 -->
<g id="Node000006" class="node">
<title>Node6</title>
<g id="a_Node000006"><a xlink:href="classRealm_1_1noncopyable.html" target="_top" xlink:title=" ">
<polygon fill="white" stroke="#666666" points="404.5,-671 288.5,-671 288.5,-652 404.5,-652 404.5,-671"/>
<text text-anchor="middle" x="346.5" y="-659" font-family="Helvetica,sans-Serif" font-size="10.00">Realm::noncopyable</text>
</a>
</g>
</g>
<!-- Node6&#45;&gt;Node5 -->
<g id="edge5_Node000005_Node000006" class="edge">
<title>Node6&#45;&gt;Node5</title>
<g id="a_edge5_Node000005_Node000006"><a xlink:title=" ">
<path fill="none" stroke="#63b8ff" d="M397.59,-649.64C452.41,-636.66 539.21,-616.11 589.93,-604.1"/>
<polygon fill="#63b8ff" stroke="#63b8ff" points="396.67,-646.26 387.75,-651.97 398.28,-653.07 396.67,-646.26"/>
</a>
</g>
</g>
<!-- Node6&#45;&gt;Node22 -->
<g id="edge30_Node000022_Node000006" class="edge">
<title>Node6&#45;&gt;Node22</title>
<g id="a_edge30_Node000022_Node000006"><a xlink:title=" ">
<path fill="none" stroke="#63b8ff" d="M414.93,-667.54C514.42,-675.26 706.23,-685.6 868,-667.5 893.34,-664.67 921.42,-658.45 942.8,-653.05"/>
<polygon fill="#63b8ff" stroke="#63b8ff" points="414.97,-664.03 404.72,-666.73 414.42,-671.01 414.97,-664.03"/>
</a>
</g>
</g>
<!-- Node7 -->
<g id="Node000007" class="node">
<title>Node7</title>
<g id="a_Node000007"><a xlink:href="classRealm_1_1atomic.html" target="_top" xlink:title=" ">
<polygon fill="white" stroke="#666666" points="421.5,-499 271.5,-499 271.5,-480 421.5,-480 421.5,-499"/>
<text text-anchor="middle" x="346.5" y="-487" font-family="Helvetica,sans-Serif" font-size="10.00">Realm::atomic&lt; uint32_t &gt;</text>
</a>
</g>
</g>
<!-- Node7&#45;&gt;Node3 -->
<g id="edge13_Node000003_Node000007" class="edge">
<title>Node7&#45;&gt;Node3</title>
<g id="a_edge13_Node000003_Node000007"><a xlink:title=" ">
<path fill="none" stroke="#9a32cd" stroke-dasharray="5,2" d="M382.79,-476.47C401.92,-469.68 426.08,-461.55 448,-455.5 486.57,-444.85 496.37,-442.05 536,-436.5 657.53,-419.48 799.3,-412.41 888.74,-409.5"/>
<polygon fill="#9a32cd" stroke="#9a32cd" points="381.51,-473.21 373.28,-479.88 383.87,-479.8 381.51,-473.21"/>
</a>
</g>
<text text-anchor="middle" x="631.5" y="-439.5" font-family="Helvetica,sans-Serif" font-size="10.00" fill="grey"> worker_state</text>
</g>
<!-- Node7&#45;&gt;Node5 -->
<g id="edge6_Node000005_Node000007" class="edge">
<title>Node7&#45;&gt;Node5</title>
<g id="a_edge6_Node000005_Node000007"><a xlink:title=" ">
<path fill="none" stroke="#9a32cd" stroke-dasharray="5,2" d="M374.16,-504.04C409.98,-523.02 476.1,-556.1 536,-575.5 548.1,-579.42 561.34,-582.69 573.99,-585.34"/>
<polygon fill="#9a32cd" stroke="#9a32cd" points="375.36,-500.71 364.89,-499.08 372.06,-506.89 375.36,-500.71"/>
</a>
</g>
<text text-anchor="middle" x="483" y="-570.5" font-family="Helvetica,sans-Serif" font-size="10.00" fill="grey"> state</text>
</g>
<!-- Node8 -->
<g id="Node000008" class="node">
<title>Node8</title>
<g id="a_Node000008"><a xlink:href="classRealm_1_1DoorbellList.html" target="_top" xlink:title=" ">
<polygon fill="white" stroke="#666666" points="403,-604 290,-604 290,-585 403,-585 403,-604"/>
<text text-anchor="middle" x="346.5" y="-592" font-family="Helvetica,sans-Serif" font-size="10.00">Realm::DoorbellList</text>
</a>
</g>
</g>
<!-- Node8&#45;&gt;Node3 -->
<g id="edge16_Node000003_Node000008" class="edge">
<title>Node8&#45;&gt;Node3</title>
<g id="a_edge16_Node000003_Node000008"><a xlink:title=" ">
<path fill="none" stroke="#9a32cd" stroke-dasharray="5,2" d="M367.34,-578.54C400.25,-552.96 469.15,-503.17 536,-478.5 544.76,-475.27 858.79,-428.02 868,-426.5 886.18,-423.5 906.03,-420.09 923.78,-417"/>
<polygon fill="#9a32cd" stroke="#9a32cd" points="365.1,-575.85 359.4,-584.78 369.43,-581.35 365.1,-575.85"/>
</a>
</g>
<text text-anchor="middle" x="631.5" y="-481.5" font-family="Helvetica,sans-Serif" font-size="10.00" fill="grey"> db_list</text>
</g>
<!-- Node8&#45;&gt;Node5 -->
<g id="edge7_Node000005_Node000008" class="edge">
<title>Node8&#45;&gt;Node5</title>
<g id="a_edge7_Node000005_Node000008"><a xlink:title=" ">
<path fill="none" stroke="#9a32cd" stroke-dasharray="5,2" d="M413.17,-594.5C461.75,-594.5 527.24,-594.5 573.6,-594.5"/>
<polygon fill="#9a32cd" stroke="#9a32cd" points="413.07,-591 403.07,-594.5 413.07,-598 413.07,-591"/>
</a>
</g>
<text text-anchor="middle" x="483" y="-597.5" font-family="Helvetica,sans-Serif" font-size="10.00" fill="grey"> db_list</text>
</g>
<!-- Node8&#45;&gt;Node22 -->
<g id="edge32_Node000022_Node000008" class="edge">
<title>Node8&#45;&gt;Node22</title>
<g id="a_edge32_Node000022_Node000008"><a xlink:title=" ">
<path fill="none" stroke="#9a32cd" stroke-dasharray="5,2" d="M413.29,-604.78C424.84,-606.45 436.76,-608.09 448,-609.5 579.65,-625.96 612.56,-631.69 745,-639.5 802.83,-642.91 868.88,-643.76 915.77,-643.84"/>
<polygon fill="#9a32cd" stroke="#9a32cd" points="413.65,-601.29 403.25,-603.3 412.64,-608.22 413.65,-601.29"/>
</a>
</g>
<text text-anchor="middle" x="631.5" y="-640.5" font-family="Helvetica,sans-Serif" font-size="10.00" fill="grey"> db_list</text>
</g>
<!-- Node9 -->
<g id="Node000009" class="node">
<title>Node9</title>
<g id="a_Node000009"><a xlink:href="classRealm_1_1atomic.html" target="_top" xlink:title=" ">
<polygon fill="white" stroke="#666666" points="152,-604 0,-604 0,-585 152,-585 152,-604"/>
<text text-anchor="middle" x="76" y="-592" font-family="Helvetica,sans-Serif" font-size="10.00">Realm::atomic&lt; uintptr_t &gt;</text>
</a>
</g>
</g>
<!-- Node9&#45;&gt;Node8 -->
<g id="edge8_Node000008_Node000009" class="edge">
<title>Node9&#45;&gt;Node8</title>
<g id="a_edge8_Node000008_Node000009"><a xlink:title=" ">
<path fill="none" stroke="#9a32cd" stroke-dasharray="5,2" d="M162.32,-594.5C204.07,-594.5 253.15,-594.5 289.99,-594.5"/>
<polygon fill="#9a32cd" stroke="#9a32cd" points="162.15,-591 152.15,-594.5 162.15,-598 162.15,-591"/>
</a>
</g>
<text text-anchor="middle" x="207.5" y="-597.5" font-family="Helvetica,sans-Serif" font-size="10.00" fill="grey"> head_or_count</text>
</g>
<!-- Node10 -->
<g id="Node000010" class="node">
<title>Node10</title>
<g id="a_Node000010"><a xlink:href="classRealm_1_1atomic.html" target="_top" xlink:title=" ">
<polygon fill="white" stroke="#666666" points="424,-301 269,-301 269,-282 424,-282 424,-301"/>
<text text-anchor="middle" x="346.5" y="-289" font-family="Helvetica,sans-Serif" font-size="10.00">Realm::atomic&lt; unsigned &gt;</text>
</a>
</g>
</g>
<!-- Node10&#45;&gt;Node3 -->
<g id="edge9_Node000003_Node000010" class="edge">
<title>Node10&#45;&gt;Node3</title>
<g id="a_edge9_Node000003_Node000010"><a xlink:title=" ">
<path fill="none" stroke="#9a32cd" stroke-dasharray="5,2" d="M434.31,-302.09C511.47,-312.02 627.18,-328.22 727,-347.5 804.28,-362.43 893.7,-385.19 942.04,-397.96"/>
<polygon fill="#9a32cd" stroke="#9a32cd" points="434.52,-298.58 424.16,-300.79 433.63,-305.53 434.52,-298.58"/>
</a>
</g>
<text text-anchor="middle" x="631.5" y="-350.5" font-family="Helvetica,sans-Serif" font-size="10.00" fill="grey"> num_work_items</text>
</g>
<!-- Node17 -->
<g id="Node000017" class="node">
<title>Node17</title>
<g id="a_Node000017"><a xlink:href="structRealm_1_1IncomingMessageManager_1_1MessageBlock.html" target="_top" xlink:title=" ">
<polygon fill="white" stroke="#666666" points="724,-193.5 539,-193.5 539,-163.5 724,-163.5 724,-193.5"/>
<text text-anchor="start" x="547" y="-181.5" font-family="Helvetica,sans-Serif" font-size="10.00">Realm::IncomingMessageManager</text>
<text text-anchor="middle" x="631.5" y="-170.5" font-family="Helvetica,sans-Serif" font-size="10.00">::MessageBlock</text>
</a>
</g>
</g>
<!-- Node10&#45;&gt;Node17 -->
<g id="edge20_Node000017_Node000010" class="edge">
<title>Node10&#45;&gt;Node17</title>
<g id="a_edge20_Node000017_Node000010"><a xlink:title=" ">
<path fill="none" stroke="#9a32cd" stroke-dasharray="5,2" d="M380.93,-278.15C433.97,-256.97 537.1,-215.79 592.74,-193.58"/>
<polygon fill="#9a32cd" stroke="#9a32cd" points="379.62,-274.91 371.63,-281.87 382.21,-281.41 379.62,-274.91"/>
</a>
</g>
<text text-anchor="middle" x="483" y="-250.5" font-family="Helvetica,sans-Serif" font-size="10.00" fill="grey"> use_count</text>
</g>
<!-- Node11 -->
<g id="Node000011" class="node">
<title>Node11</title>
<g id="a_Node000011"><a xlink:href="classRealm_1_1atomic.html" target="_top" xlink:title=" ">
<polygon fill="white" stroke="#666666" points="706.5,-264 556.5,-264 556.5,-245 706.5,-245 706.5,-264"/>
<text text-anchor="middle" x="631.5" y="-252" font-family="Helvetica,sans-Serif" font-size="10.00">Realm::atomic&lt; BitMask &gt;</text>
</a>
</g>
</g>
<!-- Node11&#45;&gt;Node3 -->
<g id="edge10_Node000003_Node000011" class="edge">
<title>Node11&#45;&gt;Node3</title>
<g id="a_edge10_Node000003_Node000011"><a xlink:title=" ">
<path fill="none" stroke="#9a32cd" stroke-dasharray="5,2" d="M685.17,-243.27C735.16,-235.41 810.92,-230.93 868,-260.5 927.34,-291.24 963.01,-370.47 973.91,-397.94"/>
<polygon fill="#9a32cd" stroke="#9a32cd" points="684.51,-239.83 675.22,-244.93 685.66,-246.74 684.51,-239.83"/>
</a>
</g>
<text text-anchor="middle" x="806.5" y="-263.5" font-family="Helvetica,sans-Serif" font-size="10.00" fill="grey"> active_work_item_mask</text>
</g>
<!-- Node12 -->
<g id="Node000012" class="node">
<title>Node12</title>
<g id="a_Node000012"><a xlink:href="classRealm_1_1atomic.html" target="_top" xlink:title=" ">
<polygon fill="white" stroke="#666666" points="693,-566 570,-566 570,-547 693,-547 693,-566"/>
<text text-anchor="middle" x="631.5" y="-554" font-family="Helvetica,sans-Serif" font-size="10.00">Realm::atomic&lt; int &gt;</text>
</a>
</g>
</g>
<!-- Node12&#45;&gt;Node3 -->
<g id="edge11_Node000003_Node000012" class="edge">
<title>Node12&#45;&gt;Node3</title>
<g id="a_edge11_Node000003_Node000012"><a xlink:title=" ">
<path fill="none" stroke="#9a32cd" stroke-dasharray="5,2" d="M693.58,-545.1C763.32,-532.08 867.88,-512.56 868,-512.5 914.62,-488.55 954.93,-438.39 970.57,-417.24"/>
<polygon fill="#9a32cd" stroke="#9a32cd" points="692.75,-541.7 683.56,-546.97 694.04,-548.58 692.75,-541.7"/>
</a>
</g>
<text text-anchor="middle" x="806.5" y="-537.5" font-family="Helvetica,sans-Serif" font-size="10.00" fill="grey"> work_item_usecounts</text>
</g>
<!-- Node13 -->
<g id="Node000013" class="node">
<title>Node13</title>
<g id="a_Node000013"><a xlink:href="classRealm_1_1DelegatingMutex.html" target="_top" xlink:title=" ">
<polygon fill="white" stroke="#666666" points="700.5,-386 562.5,-386 562.5,-367 700.5,-367 700.5,-386"/>
<text text-anchor="middle" x="631.5" y="-374" font-family="Helvetica,sans-Serif" font-size="10.00">Realm::DelegatingMutex</text>
</a>
</g>
</g>
<!-- Node13&#45;&gt;Node3 -->
<g id="edge14_Node000003_Node000013" class="edge">
<title>Node13&#45;&gt;Node3</title>
<g id="a_edge14_Node000003_Node000013"><a xlink:title=" ">
<path fill="none" stroke="#9a32cd" stroke-dasharray="5,2" d="M710.69,-383.43C756.52,-387.5 815.55,-392.77 868,-397.5 874.75,-398.11 881.73,-398.74 888.75,-399.38"/>
<polygon fill="#9a32cd" stroke="#9a32cd" points="710.79,-379.93 700.52,-382.53 710.17,-386.9 710.79,-379.93"/>
</a>
</g>
<text text-anchor="middle" x="806.5" y="-400.5" font-family="Helvetica,sans-Serif" font-size="10.00" fill="grey"> db_mutex</text>
</g>
<!-- Node14 -->
<g id="Node000014" class="node">
<title>Node14</title>
<g id="a_Node000014"><a xlink:href="classRealm_1_1atomic.html" target="_top" xlink:title=" ">
<polygon fill="white" stroke="#666666" points="421.5,-386 271.5,-386 271.5,-367 421.5,-367 421.5,-386"/>
<text text-anchor="middle" x="346.5" y="-374" font-family="Helvetica,sans-Serif" font-size="10.00">Realm::atomic&lt; uint64_t &gt;</text>
</a>
</g>
</g>
<!-- Node14&#45;&gt;Node13 -->
<g id="edge15_Node000013_Node000014" class="edge">
<title>Node14&#45;&gt;Node13</title>
<g id="a_edge15_Node000013_Node000014"><a xlink:title=" ">
<path fill="none" stroke="#9a32cd" stroke-dasharray="5,2" d="M431.99,-376.5C473.67,-376.5 523.26,-376.5 562.46,-376.5"/>
<polygon fill="#9a32cd" stroke="#9a32cd" points="431.85,-373 421.85,-376.5 431.85,-380 431.85,-373"/>
</a>
</g>
<text text-anchor="middle" x="483" y="-379.5" font-family="Helvetica,sans-Serif" font-size="10.00" fill="grey"> state</text>
</g>
<!-- Node15 -->
<g id="Node000015" class="node">
<title>Node15</title>
<g id="a_Node000015"><a xlink:href="classRealm_1_1atomic.html" target="_top" xlink:title=" ">
<polygon fill="white" stroke="#666666" points="141.5,-83 10.5,-83 10.5,-64 141.5,-64 141.5,-83"/>
<text text-anchor="middle" x="76" y="-71" font-family="Helvetica,sans-Serif" font-size="10.00">Realm::atomic&lt; bool &gt;</text>
</a>
</g>
</g>
<!-- Node15&#45;&gt;Node1 -->
<g id="edge17_Node000001_Node000015" class="edge">
<title>Node15&#45;&gt;Node1</title>
<g id="a_edge17_Node000001_Node000015"><a xlink:title=" ">
<path fill="none" stroke="#9a32cd" stroke-dasharray="5,2" d="M151.89,-65.78C205.7,-60.9 279.99,-55.5 345.5,-55.5 345.5,-55.5 345.5,-55.5 979.5,-55.5 1095.1,-55.5 1217.43,-139.85 1256.07,-168.85"/>
<polygon fill="#9a32cd" stroke="#9a32cd" points="151.39,-62.32 141.75,-66.72 152.03,-69.29 151.39,-62.32"/>
</a>
</g>
<text text-anchor="middle" x="631.5" y="-58.5" font-family="Helvetica,sans-Serif" font-size="10.00" fill="grey"> bgwork_requested</text>
</g>
<!-- Node19 -->
<g id="Node000019" class="node">
<title>Node19</title>
<g id="a_Node000019"><a xlink:href="classRealm_1_1TimeLimit.html" target="_top" xlink:title=" ">
<polygon fill="white" stroke="#666666" points="398.5,-103 294.5,-103 294.5,-84 398.5,-84 398.5,-103"/>
<text text-anchor="middle" x="346.5" y="-91" font-family="Helvetica,sans-Serif" font-size="10.00">Realm::TimeLimit</text>
</a>
</g>
</g>
<!-- Node15&#45;&gt;Node19 -->
<g id="edge25_Node000019_Node000015" class="edge">
<title>Node15&#45;&gt;Node19</title>
<g id="a_edge25_Node000019_Node000015"><a xlink:title=" ">
<path fill="none" stroke="#9a32cd" stroke-dasharray="5,2" d="M151.76,-79.07C197.21,-82.45 254.07,-86.69 294.4,-89.69"/>
<polygon fill="#9a32cd" stroke="#9a32cd" points="151.89,-75.57 141.65,-78.32 151.37,-82.55 151.89,-75.57"/>
</a>
</g>
<text text-anchor="middle" x="207.5" y="-89.5" font-family="Helvetica,sans-Serif" font-size="10.00" fill="grey"> interrupt_flag</text>
</g>
<!-- Node16 -->
<g id="Node000016" class="node">
<title>Node16</title>
<g id="a_Node000016"><a xlink:href="structRealm_1_1IncomingMessageManager_1_1Message.html" target="_top" xlink:title=" ">
<polygon fill="white" stroke="#666666" points="1071,-113.5 886,-113.5 886,-83.5 1071,-83.5 1071,-113.5"/>
<text text-anchor="start" x="894" y="-101.5" font-family="Helvetica,sans-Serif" font-size="10.00">Realm::IncomingMessageManager</text>
<text text-anchor="middle" x="978.5" y="-90.5" font-family="Helvetica,sans-Serif" font-size="10.00">::Message</text>
</a>
</g>
</g>
<!-- Node16&#45;&gt;Node1 -->
<g id="edge18_Node000001_Node000016" class="edge">
<title>Node16&#45;&gt;Node1</title>
<g id="a_edge18_Node000001_Node000016"><a xlink:title=" ">
<path fill="none" stroke="#9a32cd" stroke-dasharray="5,2" d="M1056.05,-115.89C1088.02,-123.5 1125.46,-132.89 1159,-142.5 1187.28,-150.6 1219.19,-161.27 1241.23,-168.88"/>
<polygon fill="#9a32cd" stroke="#9a32cd" points="1056.85,-112.48 1046.31,-113.58 1055.24,-119.29 1056.85,-112.48"/>
</a>
</g>
<text text-anchor="middle" x="1124" y="-156.5" font-family="Helvetica,sans-Serif" font-size="10.00" fill="grey"> heads</text>
<text text-anchor="middle" x="1124" y="-145.5" font-family="Helvetica,sans-Serif" font-size="10.00" fill="grey">tails</text>
</g>
<!-- Node16&#45;&gt;Node16 -->
<g id="edge22_Node000016_Node000016" class="edge">
<title>Node16&#45;&gt;Node16</title>
<g id="a_edge22_Node000016_Node000016"><a xlink:title=" ">
<path fill="none" stroke="#9a32cd" stroke-dasharray="5,2" d="M953.29,-124.1C956.74,-128.47 965.14,-131.5 978.5,-131.5 1001,-131.5 1009.44,-122.91 1003.81,-113.78"/>
<polygon fill="#9a32cd" stroke="#9a32cd" points="956.79,-123.74 953.19,-113.78 949.79,-123.81 956.79,-123.74"/>
</a>
</g>
<text text-anchor="middle" x="978.5" y="-134.5" font-family="Helvetica,sans-Serif" font-size="10.00" fill="grey"> next_msg</text>
</g>
<!-- Node17&#45;&gt;Node1 -->
<g id="edge35_Node000001_Node000017" class="edge">
<title>Node17&#45;&gt;Node1</title>
<g id="a_edge35_Node000001_Node000017"><a xlink:title=" ">
<path fill="none" stroke="#9a32cd" stroke-dasharray="5,2" d="M734.41,-178.5C856.61,-178.5 1059.6,-178.5 1176.99,-178.5"/>
<polygon fill="#9a32cd" stroke="#9a32cd" points="734.3,-175 724.3,-178.5 734.3,-182 734.3,-175"/>
</a>
</g>
<text text-anchor="middle" x="978.5" y="-192.5" font-family="Helvetica,sans-Serif" font-size="10.00" fill="grey"> available_blocks</text>
<text text-anchor="middle" x="978.5" y="-181.5" font-family="Helvetica,sans-Serif" font-size="10.00" fill="grey">current_block</text>
</g>
<!-- Node17&#45;&gt;Node16 -->
<g id="edge19_Node000016_Node000017" class="edge">
<title>Node17&#45;&gt;Node16</title>
<g id="a_edge19_Node000016_Node000017"><a xlink:title=" ">
<path fill="none" stroke="#9a32cd" stroke-dasharray="5,2" d="M707.38,-161.14C768.6,-146.94 854.27,-127.07 912.61,-113.55"/>
<polygon fill="#9a32cd" stroke="#9a32cd" points="706.34,-157.78 697.39,-163.45 707.92,-164.6 706.34,-157.78"/>
</a>
</g>
<text text-anchor="middle" x="806.5" y="-153.5" font-family="Helvetica,sans-Serif" font-size="10.00" fill="grey"> block</text>
</g>
<!-- Node17&#45;&gt;Node17 -->
<g id="edge21_Node000017_Node000017" class="edge">
<title>Node17&#45;&gt;Node17</title>
<g id="a_edge21_Node000017_Node000017"><a xlink:title=" ">
<path fill="none" stroke="#9a32cd" stroke-dasharray="5,2" d="M605.59,-204.1C609.13,-208.47 617.77,-211.5 631.5,-211.5 654.62,-211.5 663.3,-202.91 657.52,-193.78"/>
<polygon fill="#9a32cd" stroke="#9a32cd" points="609.09,-203.74 605.48,-193.78 602.09,-203.81 609.09,-203.74"/>
</a>
</g>
<text text-anchor="middle" x="631.5" y="-214.5" font-family="Helvetica,sans-Serif" font-size="10.00" fill="grey"> next_free</text>
</g>
<!-- Node18 -->
<g id="Node000018" class="node">
<title>Node18</title>
<g id="a_Node000018"><a xlink:href="structRealm_1_1ActiveMessageHandlerTable_1_1HandlerEntry.html" target="_top" xlink:title=" ">
<polygon fill="white" stroke="#666666" points="715,-114.5 548,-114.5 548,-84.5 715,-84.5 715,-114.5"/>
<text text-anchor="start" x="556" y="-102.5" font-family="Helvetica,sans-Serif" font-size="10.00">Realm::ActiveMessageHandler</text>
<text text-anchor="middle" x="631.5" y="-91.5" font-family="Helvetica,sans-Serif" font-size="10.00">Table::HandlerEntry</text>
</a>
</g>
</g>
<!-- Node18&#45;&gt;Node16 -->
<g id="edge23_Node000016_Node000018" class="edge">
<title>Node18&#45;&gt;Node16</title>
<g id="a_edge23_Node000016_Node000018"><a xlink:title=" ">
<path fill="none" stroke="#9a32cd" stroke-dasharray="5,2" d="M725.26,-99.23C775.05,-99.09 836.2,-98.91 885.83,-98.77"/>
<polygon fill="#9a32cd" stroke="#9a32cd" points="725.13,-95.73 715.14,-99.26 725.15,-102.73 725.13,-95.73"/>
</a>
</g>
<text text-anchor="middle" x="806.5" y="-102.5" font-family="Helvetica,sans-Serif" font-size="10.00" fill="grey"> handler</text>
</g>
<!-- Node19&#45;&gt;Node18 -->
<g id="edge24_Node000018_Node000019" class="edge">
<title>Node19&#45;&gt;Node18</title>
<g id="a_edge24_Node000018_Node000019"><a xlink:title=" ">
<path fill="none" stroke="#9a32cd" stroke-dasharray="5,2" d="M408.85,-93.29C441.31,-93.32 481.82,-93.59 518,-94.5 527.67,-94.74 537.81,-95.08 547.88,-95.46"/>
<polygon fill="#9a32cd" stroke="#9a32cd" points="408.62,-89.79 398.61,-93.29 408.61,-96.79 408.62,-89.79"/>
</a>
</g>
<text text-anchor="middle" x="483" y="-108.5" font-family="Helvetica,sans-Serif" font-size="10.00" fill="grey"> handler</text>
<text text-anchor="middle" x="483" y="-97.5" font-family="Helvetica,sans-Serif" font-size="10.00" fill="grey">handler_inline</text>
</g>
<!-- Node20 -->
<g id="Node000020" class="node">
<title>Node20</title>
<g id="a_Node000020"><a xlink:href="structRealm_1_1ActiveMessageHandlerStats.html" target="_top" xlink:title=" ">
<polygon fill="white" stroke="#666666" points="430,-153.5 263,-153.5 263,-123.5 430,-123.5 430,-153.5"/>
<text text-anchor="start" x="271" y="-141.5" font-family="Helvetica,sans-Serif" font-size="10.00">Realm::ActiveMessageHandler</text>
<text text-anchor="middle" x="346.5" y="-130.5" font-family="Helvetica,sans-Serif" font-size="10.00">Stats</text>
</a>
</g>
</g>
<!-- Node20&#45;&gt;Node18 -->
<g id="edge26_Node000018_Node000020" class="edge">
<title>Node20&#45;&gt;Node18</title>
<g id="a_edge26_Node000018_Node000020"><a xlink:title=" ">
<path fill="none" stroke="#9a32cd" stroke-dasharray="5,2" d="M440.29,-126.9C465.52,-123.64 492.82,-120.03 518,-116.5 527.68,-115.14 537.83,-113.68 547.89,-112.19"/>
<polygon fill="#9a32cd" stroke="#9a32cd" points="439.84,-123.43 430.37,-128.17 440.73,-130.37 439.84,-123.43"/>
</a>
</g>
<text text-anchor="middle" x="483" y="-128.5" font-family="Helvetica,sans-Serif" font-size="10.00" fill="grey"> stats</text>
</g>
<!-- Node21 -->
<g id="Node000021" class="node">
<title>Node21</title>
<g id="a_Node000021"><a xlink:href="classRealm_1_1atomic.html" target="_top" xlink:title=" ">
<polygon fill="white" stroke="#666666" points="145.5,-148 6.5,-148 6.5,-129 145.5,-129 145.5,-148"/>
<text text-anchor="middle" x="76" y="-136" font-family="Helvetica,sans-Serif" font-size="10.00">Realm::atomic&lt; size_t &gt;</text>
</a>
</g>
</g>
<!-- Node21&#45;&gt;Node20 -->
<g id="edge27_Node000020_Node000021" class="edge">
<title>Node21&#45;&gt;Node20</title>
<g id="a_edge27_Node000020_Node000021"><a xlink:title=" ">
<path fill="none" stroke="#9a32cd" stroke-dasharray="5,2" d="M156.01,-138.5C189.52,-138.5 228.59,-138.5 262.52,-138.5"/>
<polygon fill="#9a32cd" stroke="#9a32cd" points="155.8,-135 145.8,-138.5 155.8,-142 155.8,-135"/>
</a>
</g>
<text text-anchor="middle" x="207.5" y="-185.5" font-family="Helvetica,sans-Serif" font-size="10.00" fill="grey"> count</text>
<text text-anchor="middle" x="207.5" y="-174.5" font-family="Helvetica,sans-Serif" font-size="10.00" fill="grey">maxval</text>
<text text-anchor="middle" x="207.5" y="-163.5" font-family="Helvetica,sans-Serif" font-size="10.00" fill="grey">minval</text>
<text text-anchor="middle" x="207.5" y="-152.5" font-family="Helvetica,sans-Serif" font-size="10.00" fill="grey">sum</text>
<text text-anchor="middle" x="207.5" y="-141.5" font-family="Helvetica,sans-Serif" font-size="10.00" fill="grey">sum2</text>
</g>
<!-- Node22&#45;&gt;Node1 -->
<g id="edge29_Node000001_Node000022" class="edge">
<title>Node22&#45;&gt;Node1</title>
<g id="a_edge29_Node000001_Node000022"><a xlink:title=" ">
<path fill="none" stroke="#9a32cd" stroke-dasharray="5,2" d="M1051.17,-646.71C1087.79,-644.51 1130.52,-635.41 1159,-608.5 1223.68,-547.4 1260.79,-246.45 1267.42,-188.25"/>
<polygon fill="#9a32cd" stroke="#9a32cd" points="1050.85,-643.22 1041.01,-647.16 1051.16,-650.22 1050.85,-643.22"/>
</a>
</g>
<text text-anchor="middle" x="1124" y="-655.5" font-family="Helvetica,sans-Serif" font-size="10.00" fill="grey"> condvar</text>
<text text-anchor="middle" x="1124" y="-644.5" font-family="Helvetica,sans-Serif" font-size="10.00" fill="grey">drain_condvar</text>
</g>
<!-- Node23 -->
<g id="Node000023" class="node">
<title>Node23</title>
<g id="a_Node000023"><a xlink:href="classRealm_1_1CoreReservation.html" target="_top" xlink:title=" ">
<polygon fill="white" stroke="#666666" points="1046,-23 911,-23 911,-4 1046,-4 1046,-23"/>
<text text-anchor="middle" x="978.5" y="-11" font-family="Helvetica,sans-Serif" font-size="10.00">Realm::CoreReservation</text>
</a>
</g>
</g>
<!-- Node23&#45;&gt;Node1 -->
<g id="edge33_Node000001_Node000023" class="edge">
<title>Node23&#45;&gt;Node1</title>
<g id="a_edge33_Node000001_Node000023"><a xlink:title=" ">
<path fill="none" stroke="#9a32cd" stroke-dasharray="5,2" d="M1056.28,-7.21C1089.74,-7.77 1128.25,-13.13 1159,-30.5 1217.17,-63.35 1253.34,-141.21 1264.66,-168.69"/>
<polygon fill="#9a32cd" stroke="#9a32cd" points="1056.08,-3.71 1046.07,-7.18 1056.06,-10.71 1056.08,-3.71"/>
</a>
</g>
<text text-anchor="middle" x="1124" y="-33.5" font-family="Helvetica,sans-Serif" font-size="10.00" fill="grey"> core_rsrv</text>
</g>
<!-- Node24 -->
<g id="Node000024" class="node">
<title>Node24</title>
<g id="a_Node000024"><a xlink:href="classRealm_1_1CoreReservationParameters.html" target="_top" xlink:title=" ">
<polygon fill="white" stroke="#666666" points="727,-19 536,-19 536,0 727,0 727,-19"/>
<text text-anchor="middle" x="631.5" y="-7" font-family="Helvetica,sans-Serif" font-size="10.00">Realm::CoreReservationParameters</text>
</a>
</g>
</g>
<!-- Node24&#45;&gt;Node23 -->
<g id="edge34_Node000023_Node000024" class="edge">
<title>Node24&#45;&gt;Node23</title>
<g id="a_edge34_Node000023_Node000024"><a xlink:title=" ">
<path fill="none" stroke="#9a32cd" stroke-dasharray="5,2" d="M737.26,-10.71C793.7,-11.37 861.64,-12.16 910.85,-12.73"/>
<polygon fill="#9a32cd" stroke="#9a32cd" points="737.27,-7.21 727.23,-10.6 737.19,-14.21 737.27,-7.21"/>
</a>
</g>
<text text-anchor="middle" x="806.5" y="-15.5" font-family="Helvetica,sans-Serif" font-size="10.00" fill="grey"> params</text>
</g>
</g>
</svg>
