<?xml version="1.0" encoding="UTF-8" standalone="no"?>
<!DOCTYPE svg PUBLIC "-//W3C//DTD SVG 1.1//EN"
 "http://www.w3.org/Graphics/SVG/1.1/DTD/svg11.dtd">
<!-- Generated by graphviz version 2.43.0 (0)
 -->
<!-- Title: Realm::Cuda::GPUIndirectXferDes Pages: 1 -->
<svg width="1480pt" height="376pt"
 viewBox="0.00 0.00 1480.00 376.00" xmlns="http://www.w3.org/2000/svg" xmlns:xlink="http://www.w3.org/1999/xlink">
<g id="graph0" class="graph" transform="scale(1 1) rotate(0) translate(4 372)">
<title>Realm::Cuda::GPUIndirectXferDes</title>
<!-- Node1 -->
<g id="Node000001" class="node">
<title>Node1</title>
<g id="a_Node000001"><a xlink:title=" ">
<polygon fill="#999999" stroke="#666666" points="1467,-84 1324,-84 1324,-54 1467,-54 1467,-84"/>
<text text-anchor="start" x="1332" y="-72" font-family="Helvetica,sans-Serif" font-size="10.00">Realm::Cuda::GPUIndirect</text>
<text text-anchor="middle" x="1395.5" y="-61" font-family="Helvetica,sans-Serif" font-size="10.00">XferDes</text>
</a>
</g>
</g>
<!-- Node2 -->
<g id="Node000002" class="node">
<title>Node2</title>
<g id="a_Node000002"><a xlink:href="classRealm_1_1XferDes.html" target="_top" xlink:title=" ">
<polygon fill="white" stroke="#666666" points="1180,-189.5 1087,-189.5 1087,-170.5 1180,-170.5 1180,-189.5"/>
<text text-anchor="middle" x="1133.5" y="-177.5" font-family="Helvetica,sans-Serif" font-size="10.00">Realm::XferDes</text>
</a>
</g>
</g>
<!-- Node2&#45;&gt;Node1 -->
<g id="edge1_Node000001_Node000002" class="edge">
<title>Node2&#45;&gt;Node1</title>
<g id="a_edge1_Node000001_Node000002"><a xlink:title=" ">
<path fill="none" stroke="#63b8ff" d="M1150.84,-162.83C1164.81,-149.1 1186.08,-130.34 1208,-119 1244.03,-100.37 1287.66,-88.18 1323.67,-80.5"/>
<polygon fill="#63b8ff" stroke="#63b8ff" points="1148.06,-160.67 1143.51,-170.24 1153.03,-165.59 1148.06,-160.67"/>
</a>
</g>
</g>
<!-- Node16 -->
<g id="Node000016" class="node">
<title>Node16</title>
<g id="a_Node000016"><a xlink:href="structRealm_1_1IntrusivePriorityListLink.html" target="_top" xlink:title=" ">
<polygon fill="white" stroke="#666666" points="1472,-175 1319,-175 1319,-145 1472,-145 1472,-175"/>
<text text-anchor="start" x="1327" y="-163" font-family="Helvetica,sans-Serif" font-size="10.00">Realm::IntrusivePriority</text>
<text text-anchor="middle" x="1395.5" y="-152" font-family="Helvetica,sans-Serif" font-size="10.00">ListLink&lt; Realm::XferDes &gt;</text>
</a>
</g>
</g>
<!-- Node2&#45;&gt;Node16 -->
<g id="edge17_Node000016_Node000002" class="edge">
<title>Node2&#45;&gt;Node16</title>
<g id="a_edge17_Node000016_Node000002"><a xlink:title=" ">
<path fill="none" stroke="#9a32cd" stroke-dasharray="5,2" d="M1152.17,-163.44C1166.13,-151.56 1186.75,-136.54 1208,-130 1259.25,-114.22 1321.11,-130.83 1359.12,-144.9"/>
<polygon fill="#9a32cd" stroke="#9a32cd" points="1149.56,-161.08 1144.39,-170.33 1154.2,-166.32 1149.56,-161.08"/>
</a>
</g>
<text text-anchor="middle" x="1254.5" y="-155" font-family="Helvetica,sans-Serif" font-size="10.00" fill="grey"> lastlink_within_pri</text>
<text text-anchor="middle" x="1254.5" y="-144" font-family="Helvetica,sans-Serif" font-size="10.00" fill="grey">next_lower_pri</text>
<text text-anchor="middle" x="1254.5" y="-133" font-family="Helvetica,sans-Serif" font-size="10.00" fill="grey">next_within_pri</text>
</g>
<!-- Node17 -->
<g id="Node000017" class="node">
<title>Node17</title>
<g id="a_Node000017"><a xlink:href="classRealm_1_1XferDes_1_1DeferredXDEnqueue.html" target="_top" xlink:title=" ">
<polygon fill="white" stroke="#666666" points="1466.5,-249 1324.5,-249 1324.5,-219 1466.5,-219 1466.5,-249"/>
<text text-anchor="start" x="1332.5" y="-237" font-family="Helvetica,sans-Serif" font-size="10.00">Realm::XferDes::Deferred</text>
<text text-anchor="middle" x="1395.5" y="-226" font-family="Helvetica,sans-Serif" font-size="10.00">XDEnqueue</text>
</a>
</g>
</g>
<!-- Node2&#45;&gt;Node17 -->
<g id="edge23_Node000017_Node000002" class="edge">
<title>Node2&#45;&gt;Node17</title>
<g id="a_edge23_Node000017_Node000002"><a xlink:title=" ">
<path fill="none" stroke="#9a32cd" stroke-dasharray="5,2" d="M1152.84,-196.1C1166.88,-207.35 1187.3,-221.47 1208,-228 1245.23,-239.74 1288.73,-241.75 1324.35,-240.6"/>
<polygon fill="#9a32cd" stroke="#9a32cd" points="1154.9,-193.27 1144.97,-189.57 1150.42,-198.65 1154.9,-193.27"/>
</a>
</g>
<text text-anchor="middle" x="1254.5" y="-243" font-family="Helvetica,sans-Serif" font-size="10.00" fill="grey"> xd</text>
</g>
<!-- Node3 -->
<g id="Node000003" class="node">
<title>Node3</title>
<g id="a_Node000003"><a xlink:href="classRealm_1_1XferDesQueue.html" target="_top" xlink:title=" ">
<polygon fill="white" stroke="#666666" points="918,-277.5 793,-277.5 793,-258.5 918,-258.5 918,-277.5"/>
<text text-anchor="middle" x="855.5" y="-265.5" font-family="Helvetica,sans-Serif" font-size="10.00">Realm::XferDesQueue</text>
</a>
</g>
</g>
<!-- Node3&#45;&gt;Node2 -->
<g id="edge2_Node000002_Node000003" class="edge">
<title>Node3&#45;&gt;Node2</title>
<g id="a_edge2_Node000002_Node000003"><a xlink:title=" ">
<path fill="none" stroke="#9a32cd" stroke-dasharray="5,2" d="M928.24,-256.8C976.57,-248.69 1035.61,-237.53 1059,-228 1082.71,-218.34 1106.96,-200.69 1120.82,-189.69"/>
<polygon fill="#9a32cd" stroke="#9a32cd" points="927.4,-253.39 918.11,-258.48 928.55,-260.3 927.4,-253.39"/>
</a>
</g>
<text text-anchor="middle" x="1005" y="-255" font-family="Helvetica,sans-Serif" font-size="10.00" fill="grey"> xferDes_queue</text>
</g>
<!-- Node3&#45;&gt;Node17 -->
<g id="edge22_Node000017_Node000003" class="edge">
<title>Node3&#45;&gt;Node17</title>
<g id="a_edge22_Node000017_Node000003"><a xlink:title=" ">
<path fill="none" stroke="#9a32cd" stroke-dasharray="5,2" d="M928.48,-270.56C1016.71,-272.62 1170.57,-272.75 1301,-255 1311.96,-253.51 1323.54,-251.37 1334.67,-249.03"/>
<polygon fill="#9a32cd" stroke="#9a32cd" points="928.4,-267.05 918.32,-270.3 928.23,-274.05 928.4,-267.05"/>
</a>
</g>
<text text-anchor="middle" x="1133.5" y="-273" font-family="Helvetica,sans-Serif" font-size="10.00" fill="grey"> xferDes_queue</text>
</g>
<!-- Node4 -->
<g id="Node000004" class="node">
<title>Node4</title>
<g id="a_Node000004"><a xlink:href="classRealm_1_1UnfairMutex.html" target="_top" xlink:title=" ">
<polygon fill="white" stroke="#666666" points="622.5,-308.5 507.5,-308.5 507.5,-289.5 622.5,-289.5 622.5,-308.5"/>
<text text-anchor="middle" x="565" y="-296.5" font-family="Helvetica,sans-Serif" font-size="10.00">Realm::UnfairMutex</text>
</a>
</g>
</g>
<!-- Node4&#45;&gt;Node2 -->
<g id="edge14_Node000002_Node000004" class="edge">
<title>Node4&#45;&gt;Node2</title>
<g id="a_edge14_Node000002_Node000004"><a xlink:title=" ">
<path fill="none" stroke="#9a32cd" stroke-dasharray="5,2" d="M622.66,-310.28C719.22,-326.4 918.79,-346.05 1059,-267 1092.41,-248.16 1117.39,-207.91 1127.53,-189.52"/>
<polygon fill="#9a32cd" stroke="#9a32cd" points="622.97,-306.78 612.53,-308.53 621.79,-313.68 622.97,-306.78"/>
</a>
</g>
<text text-anchor="middle" x="855.5" y="-360" font-family="Helvetica,sans-Serif" font-size="10.00" fill="grey"> available_req_mutex</text>
<text text-anchor="middle" x="855.5" y="-349" font-family="Helvetica,sans-Serif" font-size="10.00" fill="grey">update_read_lock</text>
<text text-anchor="middle" x="855.5" y="-338" font-family="Helvetica,sans-Serif" font-size="10.00" fill="grey">update_write_lock</text>
<text text-anchor="middle" x="855.5" y="-327" font-family="Helvetica,sans-Serif" font-size="10.00" fill="grey">xd_lock</text>
</g>
<!-- Node4&#45;&gt;Node3 -->
<g id="edge3_Node000003_Node000004" class="edge">
<title>Node4&#45;&gt;Node3</title>
<g id="a_edge3_Node000003_Node000004"><a xlink:title=" ">
<path fill="none" stroke="#9a32cd" stroke-dasharray="5,2" d="M618.51,-287.41C632.87,-284.6 648.48,-281.87 663,-280 706.12,-274.45 755.04,-271.44 792.64,-269.82"/>
<polygon fill="#9a32cd" stroke="#9a32cd" points="617.41,-284.06 608.3,-289.47 618.79,-290.93 617.41,-284.06"/>
</a>
</g>
<text text-anchor="middle" x="711.5" y="-294" font-family="Helvetica,sans-Serif" font-size="10.00" fill="grey"> guid_lock</text>
<text text-anchor="middle" x="711.5" y="-283" font-family="Helvetica,sans-Serif" font-size="10.00" fill="grey">queues_lock</text>
</g>
<!-- Node5 -->
<g id="Node000005" class="node">
<title>Node5</title>
<g id="a_Node000005"><a xlink:href="classRealm_1_1noncopyable.html" target="_top" xlink:title=" ">
<polygon fill="white" stroke="#666666" points="396,-345.5 280,-345.5 280,-326.5 396,-326.5 396,-345.5"/>
<text text-anchor="middle" x="338" y="-333.5" font-family="Helvetica,sans-Serif" font-size="10.00">Realm::noncopyable</text>
</a>
</g>
</g>
<!-- Node5&#45;&gt;Node4 -->
<g id="edge4_Node000004_Node000005" class="edge">
<title>Node5&#45;&gt;Node4</title>
<g id="a_edge4_Node000004_Node000005"><a xlink:title=" ">
<path fill="none" stroke="#63b8ff" d="M406.3,-324.93C438.52,-319.63 476.68,-313.36 507.38,-308.31"/>
<polygon fill="#63b8ff" stroke="#63b8ff" points="405.37,-321.54 396.07,-326.62 406.5,-328.45 405.37,-321.54"/>
</a>
</g>
</g>
<!-- Node6 -->
<g id="Node000006" class="node">
<title>Node6</title>
<g id="a_Node000006"><a xlink:href="classRealm_1_1atomic.html" target="_top" xlink:title=" ">
<polygon fill="white" stroke="#666666" points="413,-308.5 263,-308.5 263,-289.5 413,-289.5 413,-308.5"/>
<text text-anchor="middle" x="338" y="-296.5" font-family="Helvetica,sans-Serif" font-size="10.00">Realm::atomic&lt; uint32_t &gt;</text>
</a>
</g>
</g>
<!-- Node6&#45;&gt;Node4 -->
<g id="edge5_Node000004_Node000006" class="edge">
<title>Node6&#45;&gt;Node4</title>
<g id="a_edge5_Node000004_Node000006"><a xlink:title=" ">
<path fill="none" stroke="#9a32cd" stroke-dasharray="5,2" d="M423.47,-299C451.44,-299 481.88,-299 507.25,-299"/>
<polygon fill="#9a32cd" stroke="#9a32cd" points="423.3,-295.5 413.3,-299 423.3,-302.5 423.3,-295.5"/>
</a>
</g>
<text text-anchor="middle" x="449" y="-302" font-family="Helvetica,sans-Serif" font-size="10.00" fill="grey"> state</text>
</g>
<!-- Node7 -->
<g id="Node000007" class="node">
<title>Node7</title>
<g id="a_Node000007"><a xlink:href="classRealm_1_1DoorbellList.html" target="_top" xlink:title=" ">
<polygon fill="white" stroke="#666666" points="394.5,-271.5 281.5,-271.5 281.5,-252.5 394.5,-252.5 394.5,-271.5"/>
<text text-anchor="middle" x="338" y="-259.5" font-family="Helvetica,sans-Serif" font-size="10.00">Realm::DoorbellList</text>
</a>
</g>
</g>
<!-- Node7&#45;&gt;Node4 -->
<g id="edge6_Node000004_Node000007" class="edge">
<title>Node7&#45;&gt;Node4</title>
<g id="a_edge6_Node000004_Node000007"><a xlink:title=" ">
<path fill="none" stroke="#9a32cd" stroke-dasharray="5,2" d="M404.52,-272.77C437.13,-278.14 476.17,-284.56 507.46,-289.7"/>
<polygon fill="#9a32cd" stroke="#9a32cd" points="405.05,-269.32 394.62,-271.15 403.92,-276.22 405.05,-269.32"/>
</a>
</g>
<text text-anchor="middle" x="449" y="-285" font-family="Helvetica,sans-Serif" font-size="10.00" fill="grey"> db_list</text>
</g>
<!-- Node8 -->
<g id="Node000008" class="node">
<title>Node8</title>
<g id="a_Node000008"><a xlink:href="classRealm_1_1atomic.html" target="_top" xlink:title=" ">
<polygon fill="white" stroke="#666666" points="152,-271.5 0,-271.5 0,-252.5 152,-252.5 152,-271.5"/>
<text text-anchor="middle" x="76" y="-259.5" font-family="Helvetica,sans-Serif" font-size="10.00">Realm::atomic&lt; uintptr_t &gt;</text>
</a>
</g>
</g>
<!-- Node8&#45;&gt;Node7 -->
<g id="edge7_Node000007_Node000008" class="edge">
<title>Node8&#45;&gt;Node7</title>
<g id="a_edge7_Node000007_Node000008"><a xlink:title=" ">
<path fill="none" stroke="#9a32cd" stroke-dasharray="5,2" d="M162.52,-262C201.61,-262 246.79,-262 281.38,-262"/>
<polygon fill="#9a32cd" stroke="#9a32cd" points="162.2,-258.5 152.2,-262 162.2,-265.5 162.2,-258.5"/>
</a>
</g>
<text text-anchor="middle" x="207.5" y="-265" font-family="Helvetica,sans-Serif" font-size="10.00" fill="grey"> head_or_count</text>
</g>
<!-- Node9 -->
<g id="Node000009" class="node">
<title>Node9</title>
<g id="a_Node000009"><a xlink:href="classRealm_1_1atomic.html" target="_top" xlink:title=" ">
<polygon fill="white" stroke="#666666" points="645,-254.5 485,-254.5 485,-235.5 645,-235.5 645,-254.5"/>
<text text-anchor="middle" x="565" y="-242.5" font-family="Helvetica,sans-Serif" font-size="10.00">Realm::atomic&lt; XferDesID &gt;</text>
</a>
</g>
</g>
<!-- Node9&#45;&gt;Node3 -->
<g id="edge8_Node000003_Node000009" class="edge">
<title>Node9&#45;&gt;Node3</title>
<g id="a_edge8_Node000003_Node000009"><a xlink:title=" ">
<path fill="none" stroke="#9a32cd" stroke-dasharray="5,2" d="M655.15,-241.3C688.19,-241.02 725.9,-241.99 760,-246 780.75,-248.44 803.56,-253.67 821.58,-258.43"/>
<polygon fill="#9a32cd" stroke="#9a32cd" points="655.02,-237.8 645.06,-241.42 655.1,-244.8 655.02,-237.8"/>
</a>
</g>
<text text-anchor="middle" x="711.5" y="-249" font-family="Helvetica,sans-Serif" font-size="10.00" fill="grey"> next_to_assign_idx</text>
</g>
<!-- Node10 -->
<g id="Node000010" class="node">
<title>Node10</title>
<g id="a_Node000010"><a xlink:href="classRealm_1_1atomic.html" target="_top" xlink:title=" ">
<polygon fill="white" stroke="#666666" points="921,-74.5 790,-74.5 790,-55.5 921,-55.5 921,-74.5"/>
<text text-anchor="middle" x="855.5" y="-62.5" font-family="Helvetica,sans-Serif" font-size="10.00">Realm::atomic&lt; bool &gt;</text>
</a>
</g>
</g>
<!-- Node10&#45;&gt;Node2 -->
<g id="edge9_Node000002_Node000010" class="edge">
<title>Node10&#45;&gt;Node2</title>
<g id="a_edge9_Node000002_Node000010"><a xlink:title=" ">
<path fill="none" stroke="#9a32cd" stroke-dasharray="5,2" d="M931.1,-56C971.33,-54.59 1020.47,-58.68 1059,-80 1096.52,-100.76 1120.12,-149.67 1128.77,-170.42"/>
<polygon fill="#9a32cd" stroke="#9a32cd" points="930.91,-52.5 921.08,-56.47 931.23,-59.5 930.91,-52.5"/>
</a>
</g>
<text text-anchor="middle" x="1005" y="-94" font-family="Helvetica,sans-Serif" font-size="10.00" fill="grey"> iteration_completed</text>
<text text-anchor="middle" x="1005" y="-83" font-family="Helvetica,sans-Serif" font-size="10.00" fill="grey">transfer_completed</text>
</g>
<!-- Node11 -->
<g id="Node000011" class="node">
<title>Node11</title>
<g id="a_Node000011"><a xlink:href="classRealm_1_1atomic.html" target="_top" xlink:title=" ">
<polygon fill="white" stroke="#666666" points="927.5,-37.5 783.5,-37.5 783.5,-18.5 927.5,-18.5 927.5,-37.5"/>
<text text-anchor="middle" x="855.5" y="-25.5" font-family="Helvetica,sans-Serif" font-size="10.00">Realm::atomic&lt; int64_t &gt;</text>
</a>
</g>
</g>
<!-- Node11&#45;&gt;Node2 -->
<g id="edge10_Node000002_Node000011" class="edge">
<title>Node11&#45;&gt;Node2</title>
<g id="a_edge10_Node000002_Node000011"><a xlink:title=" ">
<path fill="none" stroke="#9a32cd" stroke-dasharray="5,2" d="M916.12,-17.28C959.2,-12.8 1016.97,-13.81 1059,-41 1083.29,-56.72 1117.76,-141.73 1128.89,-170.49"/>
<polygon fill="#9a32cd" stroke="#9a32cd" points="915.59,-13.82 906.06,-18.46 916.4,-20.77 915.59,-13.82"/>
</a>
</g>
<text text-anchor="middle" x="1005" y="-44" font-family="Helvetica,sans-Serif" font-size="10.00" fill="grey"> bytes_write_pending</text>
</g>
<!-- Node12 -->
<g id="Node000012" class="node">
<title>Node12</title>
<g id="a_Node000012"><a xlink:href="structRealm_1_1XferDes_1_1ControlPortState.html" target="_top" xlink:title=" ">
<polygon fill="white" stroke="#666666" points="932.5,-230 778.5,-230 778.5,-200 932.5,-200 932.5,-230"/>
<text text-anchor="start" x="786.5" y="-218" font-family="Helvetica,sans-Serif" font-size="10.00">Realm::XferDes::ControlPort</text>
<text text-anchor="middle" x="855.5" y="-207" font-family="Helvetica,sans-Serif" font-size="10.00">State</text>
</a>
</g>
</g>
<!-- Node12&#45;&gt;Node2 -->
<g id="edge11_Node000002_Node000012" class="edge">
<title>Node12&#45;&gt;Node2</title>
<g id="a_edge11_Node000002_Node000012"><a xlink:title=" ">
<path fill="none" stroke="#9a32cd" stroke-dasharray="5,2" d="M942.67,-204.07C990.36,-198.02 1047.72,-190.75 1086.82,-185.79"/>
<polygon fill="#9a32cd" stroke="#9a32cd" points="942.13,-200.61 932.65,-205.34 943.01,-207.56 942.13,-200.61"/>
</a>
</g>
<text text-anchor="middle" x="1005" y="-216" font-family="Helvetica,sans-Serif" font-size="10.00" fill="grey"> input_control</text>
<text text-anchor="middle" x="1005" y="-205" font-family="Helvetica,sans-Serif" font-size="10.00" fill="grey">output_control</text>
</g>
<!-- Node13 -->
<g id="Node000013" class="node">
<title>Node13</title>
<g id="a_Node000013"><a xlink:href="classRealm_1_1ControlPort_1_1Decoder.html" target="_top" xlink:title=" ">
<polygon fill="white" stroke="#666666" points="619.5,-217 510.5,-217 510.5,-187 619.5,-187 619.5,-217"/>
<text text-anchor="start" x="518.5" y="-205" font-family="Helvetica,sans-Serif" font-size="10.00">Realm::ControlPort</text>
<text text-anchor="middle" x="565" y="-194" font-family="Helvetica,sans-Serif" font-size="10.00">::Decoder</text>
</a>
</g>
</g>
<!-- Node13&#45;&gt;Node12 -->
<g id="edge12_Node000012_Node000013" class="edge">
<title>Node13&#45;&gt;Node12</title>
<g id="a_edge12_Node000012_Node000013"><a xlink:title=" ">
<path fill="none" stroke="#9a32cd" stroke-dasharray="5,2" d="M629.84,-204.88C673.68,-206.85 732.08,-209.48 778.36,-211.57"/>
<polygon fill="#9a32cd" stroke="#9a32cd" points="629.74,-201.37 619.59,-204.41 629.42,-208.36 629.74,-201.37"/>
</a>
</g>
<text text-anchor="middle" x="711.5" y="-213" font-family="Helvetica,sans-Serif" font-size="10.00" fill="grey"> decoder</text>
</g>
<!-- Node14 -->
<g id="Node000014" class="node">
<title>Node14</title>
<g id="a_Node000014"><a xlink:href="classRealm_1_1Channel.html" target="_top" xlink:title=" ">
<polygon fill="white" stroke="#666666" points="902.5,-181.5 808.5,-181.5 808.5,-162.5 902.5,-162.5 902.5,-181.5"/>
<text text-anchor="middle" x="855.5" y="-169.5" font-family="Helvetica,sans-Serif" font-size="10.00">Realm::Channel</text>
</a>
</g>
</g>
<!-- Node14&#45;&gt;Node2 -->
<g id="edge13_Node000002_Node000014" class="edge">
<title>Node14&#45;&gt;Node2</title>
<g id="a_edge13_Node000002_Node000014"><a xlink:title=" ">
<path fill="none" stroke="#9a32cd" stroke-dasharray="5,2" d="M912.94,-173.64C964.22,-175.12 1038.92,-177.29 1086.61,-178.67"/>
<polygon fill="#9a32cd" stroke="#9a32cd" points="912.79,-170.13 902.7,-173.34 912.59,-177.13 912.79,-170.13"/>
</a>
</g>
<text text-anchor="middle" x="1005" y="-180" font-family="Helvetica,sans-Serif" font-size="10.00" fill="grey"> channel</text>
</g>
<!-- Node15 -->
<g id="Node000015" class="node">
<title>Node15</title>
<g id="a_Node000015"><a xlink:href="classRealm_1_1atomic.html" target="_top" xlink:title=" ">
<polygon fill="white" stroke="#666666" points="933,-119.5 778,-119.5 778,-100.5 933,-100.5 933,-119.5"/>
<text text-anchor="middle" x="855.5" y="-107.5" font-family="Helvetica,sans-Serif" font-size="10.00">Realm::atomic&lt; unsigned &gt;</text>
</a>
</g>
</g>
<!-- Node15&#45;&gt;Node2 -->
<g id="edge15_Node000002_Node000015" class="edge">
<title>Node15&#45;&gt;Node2</title>
<g id="a_edge15_Node000002_Node000015"><a xlink:title=" ">
<path fill="none" stroke="#9a32cd" stroke-dasharray="5,2" d="M943.35,-106.47C980.03,-107.6 1022.6,-112.45 1059,-126 1085.12,-135.72 1110.06,-157.6 1123.1,-170.32"/>
<polygon fill="#9a32cd" stroke="#9a32cd" points="943.24,-102.97 933.17,-106.25 943.09,-109.97 943.24,-102.97"/>
</a>
</g>
<text text-anchor="start" x="951" y="-162" font-family="Helvetica,sans-Serif" font-size="10.00" fill="grey"> nb_update_pre_bytes</text>
<text text-anchor="middle" x="1005" y="-151" font-family="Helvetica,sans-Serif" font-size="10.00" fill="grey">_total_calls_received</text>
<text text-anchor="middle" x="1005" y="-140" font-family="Helvetica,sans-Serif" font-size="10.00" fill="grey">progress_counter</text>
<text text-anchor="middle" x="1005" y="-129" font-family="Helvetica,sans-Serif" font-size="10.00" fill="grey">reference_count</text>
</g>
<!-- Node16&#45;&gt;Node2 -->
<g id="edge16_Node000002_Node000016" class="edge">
<title>Node16&#45;&gt;Node2</title>
<g id="a_edge16_Node000002_Node000016"><a xlink:title=" ">
<path fill="none" stroke="#9a32cd" stroke-dasharray="5,2" d="M1308.69,-166.6C1265.77,-169.9 1215.55,-173.77 1180.09,-176.49"/>
<polygon fill="#9a32cd" stroke="#9a32cd" points="1309.16,-170.07 1318.87,-165.82 1308.63,-163.1 1309.16,-170.07"/>
</a>
</g>
<text text-anchor="middle" x="1254.5" y="-177" font-family="Helvetica,sans-Serif" font-size="10.00" fill="grey"> xd_link</text>
</g>
<!-- Node17&#45;&gt;Node2 -->
<g id="edge18_Node000002_Node000017" class="edge">
<title>Node17&#45;&gt;Node2</title>
<g id="a_edge18_Node000002_Node000017"><a xlink:title=" ">
<path fill="none" stroke="#9a32cd" stroke-dasharray="5,2" d="M1314.6,-217.41C1270.44,-208.23 1217.19,-197.17 1180.09,-189.47"/>
<polygon fill="#9a32cd" stroke="#9a32cd" points="1313.95,-220.84 1324.45,-219.45 1315.37,-213.99 1313.95,-220.84"/>
</a>
</g>
<text text-anchor="middle" x="1254.5" y="-216" font-family="Helvetica,sans-Serif" font-size="10.00" fill="grey"> deferred_enqueue</text>
</g>
<!-- Node18 -->
<g id="Node000018" class="node">
<title>Node18</title>
<g id="a_Node000018"><a xlink:href="classRealm_1_1EventWaiter.html" target="_top" xlink:title=" ">
<polygon fill="white" stroke="#666666" points="1190,-52.5 1077,-52.5 1077,-33.5 1190,-33.5 1190,-52.5"/>
<text text-anchor="middle" x="1133.5" y="-40.5" font-family="Helvetica,sans-Serif" font-size="10.00">Realm::EventWaiter</text>
</a>
</g>
</g>
<!-- Node18&#45;&gt;Node17 -->
<g id="edge19_Node000017_Node000018" class="edge">
<title>Node18&#45;&gt;Node17</title>
<g id="a_edge19_Node000017_Node000018"><a xlink:title=" ">
<path fill="none" stroke="#63b8ff" d="M1144.56,-61.72C1156.83,-82.79 1179.5,-116.62 1208,-136 1243.69,-160.27 1264.55,-140.88 1301,-164 1311.1,-170.41 1309.94,-176.19 1319,-184 1334.24,-197.14 1353.12,-209.64 1368.18,-218.85"/>
<polygon fill="#63b8ff" stroke="#63b8ff" points="1147.49,-59.77 1139.54,-52.77 1141.38,-63.2 1147.49,-59.77"/>
</a>
</g>
</g>
<!-- Node19 -->
<g id="Node000019" class="node">
<title>Node19</title>
<g id="a_Node000019"><a xlink:href="structRealm_1_1IntrusiveListLink.html" target="_top" xlink:title=" ">
<polygon fill="white" stroke="#666666" points="1463.5,-30 1327.5,-30 1327.5,0 1463.5,0 1463.5,-30"/>
<text text-anchor="start" x="1335.5" y="-18" font-family="Helvetica,sans-Serif" font-size="10.00">Realm::IntrusiveListLink</text>
<text text-anchor="middle" x="1395.5" y="-7" font-family="Helvetica,sans-Serif" font-size="10.00">&lt; Realm::EventWaiter &gt;</text>
</a>
</g>
</g>
<!-- Node18&#45;&gt;Node19 -->
<g id="edge21_Node000019_Node000018" class="edge">
<title>Node18&#45;&gt;Node19</title>
<g id="a_edge21_Node000019_Node000018"><a xlink:title=" ">
<path fill="none" stroke="#9a32cd" stroke-dasharray="5,2" d="M1160.34,-28.64C1174.05,-21.83 1191.44,-14.45 1208,-11 1247,-2.88 1291.57,-3.48 1327.37,-6.31"/>
<polygon fill="#9a32cd" stroke="#9a32cd" points="1158.34,-25.73 1151.07,-33.43 1161.56,-31.95 1158.34,-25.73"/>
</a>
</g>
<text text-anchor="middle" x="1254.5" y="-14" font-family="Helvetica,sans-Serif" font-size="10.00" fill="grey"> next</text>
</g>
<!-- Node19&#45;&gt;Node18 -->
<g id="edge20_Node000018_Node000019" class="edge">
<title>Node19&#45;&gt;Node18</title>
<g id="a_edge20_Node000018_Node000019"><a xlink:title=" ">
<path fill="none" stroke="#9a32cd" stroke-dasharray="5,2" d="M1317.11,-23.33C1276.35,-27.72 1227.28,-33.01 1190.28,-36.99"/>
<polygon fill="#9a32cd" stroke="#9a32cd" points="1317.72,-26.79 1327.28,-22.24 1316.97,-19.83 1317.72,-26.79"/>
</a>
</g>
<text text-anchor="middle" x="1254.5" y="-38" font-family="Helvetica,sans-Serif" font-size="10.00" fill="grey"> ew_list_link</text>
</g>
</g>
</svg>
