<?xml version="1.0" encoding="UTF-8" standalone="no"?>
<!DOCTYPE svg PUBLIC "-//W3C//DTD SVG 1.1//EN"
 "http://www.w3.org/Graphics/SVG/1.1/DTD/svg11.dtd">
<!-- Generated by graphviz version 2.43.0 (0)
 -->
<!-- Title: Realm::Cuda::GPURemoteChannel Pages: 1 -->
<svg width="549pt" height="205pt"
 viewBox="0.00 0.00 549.00 205.00" xmlns="http://www.w3.org/2000/svg" xmlns:xlink="http://www.w3.org/1999/xlink">
<g id="graph0" class="graph" transform="scale(1 1) rotate(0) translate(4 201)">
<title>Realm::Cuda::GPURemoteChannel</title>
<!-- Node1 -->
<g id="Node000001" class="node">
<title>Node1</title>
<g id="a_Node000001"><a xlink:title=" ">
<polygon fill="#999999" stroke="#666666" points="458,-19 274,-19 274,0 458,0 458,-19"/>
<text text-anchor="middle" x="366" y="-7" font-family="Helvetica,sans-Serif" font-size="10.00">Realm::Cuda::GPURemoteChannel</text>
</a>
</g>
</g>
<!-- Node2 -->
<g id="Node000002" class="node">
<title>Node2</title>
<g id="a_Node000002"><a xlink:href="classRealm_1_1RemoteChannel.html" target="_top" xlink:title=" ">
<polygon fill="white" stroke="#666666" points="432,-75 300,-75 300,-56 432,-56 432,-75"/>
<text text-anchor="middle" x="366" y="-63" font-family="Helvetica,sans-Serif" font-size="10.00">Realm::RemoteChannel</text>
</a>
</g>
</g>
<!-- Node2&#45;&gt;Node1 -->
<g id="edge1_Node000001_Node000002" class="edge">
<title>Node2&#45;&gt;Node1</title>
<g id="a_edge1_Node000001_Node000002"><a xlink:title=" ">
<path fill="none" stroke="#63b8ff" d="M366,-45.3C366,-36.41 366,-26.28 366,-19.25"/>
<polygon fill="#63b8ff" stroke="#63b8ff" points="362.5,-45.58 366,-55.58 369.5,-45.58 362.5,-45.58"/>
</a>
</g>
</g>
<!-- Node3 -->
<g id="Node000003" class="node">
<title>Node3</title>
<g id="a_Node000003"><a xlink:href="classRealm_1_1Channel.html" target="_top" xlink:title=" ">
<polygon fill="white" stroke="#666666" points="541,-141 447,-141 447,-122 541,-122 541,-141"/>
<text text-anchor="middle" x="494" y="-129" font-family="Helvetica,sans-Serif" font-size="10.00">Realm::Channel</text>
</a>
</g>
</g>
<!-- Node3&#45;&gt;Node2 -->
<g id="edge2_Node000002_Node000003" class="edge">
<title>Node3&#45;&gt;Node2</title>
<g id="a_edge2_Node000002_Node000003"><a xlink:title=" ">
<path fill="none" stroke="#63b8ff" d="M478.61,-114.7C470.65,-107.26 460.43,-98.77 450,-93 435.82,-85.15 418.98,-79.25 404.12,-75.04"/>
<polygon fill="#63b8ff" stroke="#63b8ff" points="476.4,-117.44 486.01,-121.92 481.29,-112.43 476.4,-117.44"/>
</a>
</g>
</g>
<!-- Node4 -->
<g id="Node000004" class="node">
<title>Node4</title>
<g id="a_Node000004"><a xlink:href="classRealm_1_1RWLock.html" target="_top" xlink:title=" ">
<polygon fill="white" stroke="#666666" points="230.5,-141 137.5,-141 137.5,-122 230.5,-122 230.5,-141"/>
<text text-anchor="middle" x="184" y="-129" font-family="Helvetica,sans-Serif" font-size="10.00">Realm::RWLock</text>
</a>
</g>
</g>
<!-- Node4&#45;&gt;Node2 -->
<g id="edge3_Node000002_Node000004" class="edge">
<title>Node4&#45;&gt;Node2</title>
<g id="a_edge3_Node000002_Node000004"><a xlink:title=" ">
<path fill="none" stroke="#9a32cd" stroke-dasharray="5,2" d="M218.21,-118.61C231.29,-114.05 246.34,-108.8 260,-104 288.18,-94.1 320.54,-82.64 342.01,-75.02"/>
<polygon fill="#9a32cd" stroke="#9a32cd" points="216.95,-115.34 208.65,-121.94 219.25,-121.95 216.95,-115.34"/>
</a>
</g>
<text text-anchor="middle" x="307.5" y="-96" font-family="Helvetica,sans-Serif" font-size="10.00" fill="grey"> mutex</text>
</g>
<!-- Node5 -->
<g id="Node000005" class="node">
<title>Node5</title>
<g id="a_Node000005"><a xlink:href="structRealm_1_1RWLock_1_1Writer.html" target="_top" xlink:title=" ">
<polygon fill="white" stroke="#666666" points="281.5,-75 152.5,-75 152.5,-56 281.5,-56 281.5,-75"/>
<text text-anchor="middle" x="217" y="-63" font-family="Helvetica,sans-Serif" font-size="10.00">Realm::RWLock::Writer</text>
</a>
</g>
</g>
<!-- Node4&#45;&gt;Node5 -->
<g id="edge5_Node000005_Node000004" class="edge">
<title>Node4&#45;&gt;Node5</title>
<g id="a_edge5_Node000005_Node000004"><a xlink:title=" ">
<path fill="none" stroke="#9a32cd" stroke-dasharray="5,2" d="M208.29,-115.41C211.82,-112.11 214.94,-108.29 217,-104 221.39,-94.84 220.43,-82.92 219.01,-75"/>
<polygon fill="#9a32cd" stroke="#9a32cd" points="205.86,-112.87 200.2,-121.82 210.21,-118.35 205.86,-112.87"/>
</a>
</g>
<text text-anchor="middle" x="238" y="-96" font-family="Helvetica,sans-Serif" font-size="10.00" fill="grey"> rwlock</text>
</g>
<!-- Node6 -->
<g id="Node000006" class="node">
<title>Node6</title>
<g id="a_Node000006"><a xlink:href="structRealm_1_1RWLock_1_1Reader.html" target="_top" xlink:title=" ">
<polygon fill="white" stroke="#666666" points="134,-75 0,-75 0,-56 134,-56 134,-75"/>
<text text-anchor="middle" x="67" y="-63" font-family="Helvetica,sans-Serif" font-size="10.00">Realm::RWLock::Reader</text>
</a>
</g>
</g>
<!-- Node4&#45;&gt;Node6 -->
<g id="edge7_Node000006_Node000004" class="edge">
<title>Node4&#45;&gt;Node6</title>
<g id="a_edge7_Node000006_Node000004"><a xlink:title=" ">
<path fill="none" stroke="#9a32cd" stroke-dasharray="5,2" d="M127.26,-126.78C109.94,-123.07 92.06,-116.27 79,-104 71.03,-96.51 68.33,-83.74 67.43,-75.21"/>
<polygon fill="#9a32cd" stroke="#9a32cd" points="126.87,-130.27 137.34,-128.63 128.13,-123.39 126.87,-130.27"/>
</a>
</g>
<text text-anchor="middle" x="97" y="-96" font-family="Helvetica,sans-Serif" font-size="10.00" fill="grey"> rwlock</text>
</g>
<!-- Node5&#45;&gt;Node4 -->
<g id="edge4_Node000004_Node000005" class="edge">
<title>Node5&#45;&gt;Node4</title>
<g id="a_edge4_Node000004_Node000005"><a xlink:title=" ">
<path fill="none" stroke="#9a32cd" stroke-dasharray="5,2" d="M193.71,-81.56C190.21,-84.9 187.08,-88.73 185,-93 180.55,-102.14 181.16,-114.06 182.3,-121.99"/>
<polygon fill="#9a32cd" stroke="#9a32cd" points="196.14,-84.1 201.71,-75.09 191.73,-78.66 196.14,-84.1"/>
</a>
</g>
<text text-anchor="middle" x="201" y="-96" font-family="Helvetica,sans-Serif" font-size="10.00" fill="grey"> writer</text>
</g>
<!-- Node6&#45;&gt;Node4 -->
<g id="edge6_Node000004_Node000006" class="edge">
<title>Node6&#45;&gt;Node4</title>
<g id="a_edge6_Node000004_Node000006"><a xlink:title=" ">
<path fill="none" stroke="#9a32cd" stroke-dasharray="5,2" d="M91.77,-80.05C114.86,-92.68 148.59,-111.13 168.22,-121.87"/>
<polygon fill="#9a32cd" stroke="#9a32cd" points="93.36,-76.93 82.9,-75.2 90,-83.07 93.36,-76.93"/>
</a>
</g>
<text text-anchor="middle" x="150.5" y="-96" font-family="Helvetica,sans-Serif" font-size="10.00" fill="grey"> reader</text>
</g>
<!-- Node7 -->
<g id="Node000007" class="node">
<title>Node7</title>
<g id="a_Node000007"><a xlink:href="classRealm_1_1SimpleXferDesFactory.html" target="_top" xlink:title=" ">
<polygon fill="white" stroke="#666666" points="429,-141 267,-141 267,-122 429,-122 429,-141"/>
<text text-anchor="middle" x="348" y="-129" font-family="Helvetica,sans-Serif" font-size="10.00">Realm::SimpleXferDesFactory</text>
</a>
</g>
</g>
<!-- Node7&#45;&gt;Node2 -->
<g id="edge8_Node000002_Node000007" class="edge">
<title>Node7&#45;&gt;Node2</title>
<g id="a_edge8_Node000002_Node000007"><a xlink:title=" ">
<path fill="none" stroke="#9a32cd" stroke-dasharray="5,2" d="M353.22,-111.95C356.6,-99.93 360.85,-84.82 363.5,-75.41"/>
<polygon fill="#9a32cd" stroke="#9a32cd" points="349.77,-111.29 350.43,-121.87 356.5,-113.19 349.77,-111.29"/>
</a>
</g>
<text text-anchor="middle" x="402" y="-96" font-family="Helvetica,sans-Serif" font-size="10.00" fill="grey"> factory_singleton</text>
</g>
<!-- Node8 -->
<g id="Node000008" class="node">
<title>Node8</title>
<g id="a_Node000008"><a xlink:href="classRealm_1_1XferDesFactory.html" target="_top" xlink:title=" ">
<polygon fill="white" stroke="#666666" points="412,-197 284,-197 284,-178 412,-178 412,-197"/>
<text text-anchor="middle" x="348" y="-185" font-family="Helvetica,sans-Serif" font-size="10.00">Realm::XferDesFactory</text>
</a>
</g>
</g>
<!-- Node8&#45;&gt;Node7 -->
<g id="edge9_Node000007_Node000008" class="edge">
<title>Node8&#45;&gt;Node7</title>
<g id="a_edge9_Node000007_Node000008"><a xlink:title=" ">
<path fill="none" stroke="#63b8ff" d="M348,-167.3C348,-158.41 348,-148.28 348,-141.25"/>
<polygon fill="#63b8ff" stroke="#63b8ff" points="344.5,-167.58 348,-177.58 351.5,-167.58 344.5,-167.58"/>
</a>
</g>
</g>
</g>
</svg>
