<?xml version="1.0" encoding="UTF-8" standalone="no"?>
<!DOCTYPE svg PUBLIC "-//W3C//DTD SVG 1.1//EN"
 "http://www.w3.org/Graphics/SVG/1.1/DTD/svg11.dtd">
<!-- Generated by graphviz version 2.43.0 (0)
 -->
<!-- Title: Realm::Hip::GPUTransferCompletion Pages: 1 -->
<svg width="1561pt" height="414pt"
 viewBox="0.00 0.00 1561.00 414.00" xmlns="http://www.w3.org/2000/svg" xmlns:xlink="http://www.w3.org/1999/xlink">
<g id="graph0" class="graph" transform="scale(1 1) rotate(0) translate(4 410)">
<title>Realm::Hip::GPUTransferCompletion</title>
<!-- Node1 -->
<g id="Node000001" class="node">
<title>Node1</title>
<g id="a_Node000001"><a xlink:title=" ">
<polygon fill="#999999" stroke="#666666" points="1553,-296.5 1360,-296.5 1360,-277.5 1553,-277.5 1553,-296.5"/>
<text text-anchor="middle" x="1456.5" y="-284.5" font-family="Helvetica,sans-Serif" font-size="10.00">Realm::Hip::GPUTransferCompletion</text>
</a>
</g>
</g>
<!-- Node2 -->
<g id="Node000002" class="node">
<title>Node2</title>
<g id="a_Node000002"><a xlink:href="classRealm_1_1Hip_1_1GPUCompletionNotification.html" target="_top" xlink:title=" ">
<polygon fill="white" stroke="#666666" points="1231,-315 1077,-315 1077,-285 1231,-285 1231,-315"/>
<text text-anchor="start" x="1085" y="-303" font-family="Helvetica,sans-Serif" font-size="10.00">Realm::Hip::GPUCompletion</text>
<text text-anchor="middle" x="1154" y="-292" font-family="Helvetica,sans-Serif" font-size="10.00">Notification</text>
</a>
</g>
</g>
<!-- Node2&#45;&gt;Node1 -->
<g id="edge1_Node000001_Node000002" class="edge">
<title>Node2&#45;&gt;Node1</title>
<g id="a_edge1_Node000001_Node000002"><a xlink:title=" ">
<path fill="none" stroke="#63b8ff" d="M1241.49,-296.26C1278.55,-294.66 1321.96,-292.78 1359.97,-291.13"/>
<polygon fill="#63b8ff" stroke="#63b8ff" points="1241.06,-292.77 1231.22,-296.7 1241.36,-299.77 1241.06,-292.77"/>
</a>
</g>
</g>
<!-- Node3 -->
<g id="Node000003" class="node">
<title>Node3</title>
<g id="a_Node000003"><a xlink:href="classRealm_1_1XferDes.html" target="_top" xlink:title=" ">
<polygon fill="white" stroke="#666666" points="1200.5,-210.5 1107.5,-210.5 1107.5,-191.5 1200.5,-191.5 1200.5,-210.5"/>
<text text-anchor="middle" x="1154" y="-198.5" font-family="Helvetica,sans-Serif" font-size="10.00">Realm::XferDes</text>
</a>
</g>
</g>
<!-- Node3&#45;&gt;Node1 -->
<g id="edge2_Node000001_Node000003" class="edge">
<title>Node3&#45;&gt;Node1</title>
<g id="a_edge2_Node000001_Node000003"><a xlink:title=" ">
<path fill="none" stroke="#9a32cd" stroke-dasharray="5,2" d="M1186.19,-214.57C1204.3,-222.12 1227.68,-231.31 1249,-238 1302.09,-254.65 1364.39,-268.71 1406.57,-277.44"/>
<polygon fill="#9a32cd" stroke="#9a32cd" points="1187.29,-211.23 1176.72,-210.57 1184.57,-217.68 1187.29,-211.23"/>
</a>
</g>
<text text-anchor="middle" x="1295.5" y="-265" font-family="Helvetica,sans-Serif" font-size="10.00" fill="grey"> xd</text>
</g>
<!-- Node17 -->
<g id="Node000017" class="node">
<title>Node17</title>
<g id="a_Node000017"><a xlink:href="structRealm_1_1IntrusivePriorityListLink.html" target="_top" xlink:title=" ">
<polygon fill="white" stroke="#666666" points="1533,-216 1380,-216 1380,-186 1533,-186 1533,-216"/>
<text text-anchor="start" x="1388" y="-204" font-family="Helvetica,sans-Serif" font-size="10.00">Realm::IntrusivePriority</text>
<text text-anchor="middle" x="1456.5" y="-193" font-family="Helvetica,sans-Serif" font-size="10.00">ListLink&lt; Realm::XferDes &gt;</text>
</a>
</g>
</g>
<!-- Node3&#45;&gt;Node17 -->
<g id="edge18_Node000017_Node000003" class="edge">
<title>Node3&#45;&gt;Node17</title>
<g id="a_edge18_Node000017_Node000003"><a xlink:title=" ">
<path fill="none" stroke="#9a32cd" stroke-dasharray="5,2" d="M1210.76,-201C1258.37,-201 1327.29,-201 1379.87,-201"/>
<polygon fill="#9a32cd" stroke="#9a32cd" points="1210.64,-197.5 1200.64,-201 1210.64,-204.5 1210.64,-197.5"/>
</a>
</g>
<text text-anchor="middle" x="1295.5" y="-226" font-family="Helvetica,sans-Serif" font-size="10.00" fill="grey"> lastlink_within_pri</text>
<text text-anchor="middle" x="1295.5" y="-215" font-family="Helvetica,sans-Serif" font-size="10.00" fill="grey">next_lower_pri</text>
<text text-anchor="middle" x="1295.5" y="-204" font-family="Helvetica,sans-Serif" font-size="10.00" fill="grey">next_within_pri</text>
</g>
<!-- Node18 -->
<g id="Node000018" class="node">
<title>Node18</title>
<g id="a_Node000018"><a xlink:href="classRealm_1_1XferDes_1_1DeferredXDEnqueue.html" target="_top" xlink:title=" ">
<polygon fill="white" stroke="#666666" points="1527.5,-114 1385.5,-114 1385.5,-84 1527.5,-84 1527.5,-114"/>
<text text-anchor="start" x="1393.5" y="-102" font-family="Helvetica,sans-Serif" font-size="10.00">Realm::XferDes::Deferred</text>
<text text-anchor="middle" x="1456.5" y="-91" font-family="Helvetica,sans-Serif" font-size="10.00">XDEnqueue</text>
</a>
</g>
</g>
<!-- Node3&#45;&gt;Node18 -->
<g id="edge24_Node000018_Node000003" class="edge">
<title>Node3&#45;&gt;Node18</title>
<g id="a_edge24_Node000018_Node000003"><a xlink:title=" ">
<path fill="none" stroke="#9a32cd" stroke-dasharray="5,2" d="M1191.85,-187.92C1209.17,-181.81 1230.12,-174.47 1249,-168 1304.25,-149.07 1368.02,-127.86 1409.91,-114.01"/>
<polygon fill="#9a32cd" stroke="#9a32cd" points="1190.37,-184.73 1182.11,-191.36 1192.71,-191.33 1190.37,-184.73"/>
</a>
</g>
<text text-anchor="middle" x="1295.5" y="-171" font-family="Helvetica,sans-Serif" font-size="10.00" fill="grey"> xd</text>
</g>
<!-- Node4 -->
<g id="Node000004" class="node">
<title>Node4</title>
<g id="a_Node000004"><a xlink:href="classRealm_1_1XferDesQueue.html" target="_top" xlink:title=" ">
<polygon fill="white" stroke="#666666" points="918,-114.5 793,-114.5 793,-95.5 918,-95.5 918,-114.5"/>
<text text-anchor="middle" x="855.5" y="-102.5" font-family="Helvetica,sans-Serif" font-size="10.00">Realm::XferDesQueue</text>
</a>
</g>
</g>
<!-- Node4&#45;&gt;Node3 -->
<g id="edge3_Node000003_Node000004" class="edge">
<title>Node4&#45;&gt;Node3</title>
<g id="a_edge3_Node000003_Node000004"><a xlink:title=" ">
<path fill="none" stroke="#9a32cd" stroke-dasharray="5,2" d="M928.32,-108.09C967.99,-111.73 1017.5,-119.5 1059,-136 1092.74,-149.42 1126.28,-176.87 1142.66,-191.43"/>
<polygon fill="#9a32cd" stroke="#9a32cd" points="928.45,-104.59 918.19,-107.23 927.86,-111.57 928.45,-104.59"/>
</a>
</g>
<text text-anchor="middle" x="1005" y="-139" font-family="Helvetica,sans-Serif" font-size="10.00" fill="grey"> xferDes_queue</text>
</g>
<!-- Node4&#45;&gt;Node18 -->
<g id="edge23_Node000018_Node000004" class="edge">
<title>Node4&#45;&gt;Node18</title>
<g id="a_edge23_Node000018_Node000004"><a xlink:title=" ">
<path fill="none" stroke="#9a32cd" stroke-dasharray="5,2" d="M928.23,-102.68C1022.97,-99.89 1194.99,-95.7 1342,-97 1355.99,-97.12 1370.95,-97.33 1385.27,-97.57"/>
<polygon fill="#9a32cd" stroke="#9a32cd" points="928.08,-99.19 918.19,-102.98 928.29,-106.18 928.08,-99.19"/>
</a>
</g>
<text text-anchor="middle" x="1154" y="-102" font-family="Helvetica,sans-Serif" font-size="10.00" fill="grey"> xferDes_queue</text>
</g>
<!-- Node5 -->
<g id="Node000005" class="node">
<title>Node5</title>
<g id="a_Node000005"><a xlink:href="classRealm_1_1UnfairMutex.html" target="_top" xlink:title=" ">
<polygon fill="white" stroke="#666666" points="622.5,-204.5 507.5,-204.5 507.5,-185.5 622.5,-185.5 622.5,-204.5"/>
<text text-anchor="middle" x="565" y="-192.5" font-family="Helvetica,sans-Serif" font-size="10.00">Realm::UnfairMutex</text>
</a>
</g>
</g>
<!-- Node5&#45;&gt;Node3 -->
<g id="edge15_Node000003_Node000005" class="edge">
<title>Node5&#45;&gt;Node3</title>
<g id="a_edge15_Node000003_Node000005"><a xlink:title=" ">
<path fill="none" stroke="#9a32cd" stroke-dasharray="5,2" d="M632.61,-200.77C727.38,-208.15 906.57,-219.09 1059,-211 1074.73,-210.17 1091.88,-208.55 1107.18,-206.86"/>
<polygon fill="#9a32cd" stroke="#9a32cd" points="632.84,-197.27 622.59,-199.98 632.29,-204.25 632.84,-197.27"/>
</a>
</g>
<text text-anchor="middle" x="855.5" y="-250" font-family="Helvetica,sans-Serif" font-size="10.00" fill="grey"> available_req_mutex</text>
<text text-anchor="middle" x="855.5" y="-239" font-family="Helvetica,sans-Serif" font-size="10.00" fill="grey">update_read_lock</text>
<text text-anchor="middle" x="855.5" y="-228" font-family="Helvetica,sans-Serif" font-size="10.00" fill="grey">update_write_lock</text>
<text text-anchor="middle" x="855.5" y="-217" font-family="Helvetica,sans-Serif" font-size="10.00" fill="grey">xd_lock</text>
</g>
<!-- Node5&#45;&gt;Node4 -->
<g id="edge4_Node000004_Node000005" class="edge">
<title>Node5&#45;&gt;Node4</title>
<g id="a_edge4_Node000004_Node000005"><a xlink:title=" ">
<path fill="none" stroke="#9a32cd" stroke-dasharray="5,2" d="M600.97,-181.97C642.73,-166.67 714.87,-141.1 778,-123 788.49,-119.99 799.9,-117.11 810.62,-114.56"/>
<polygon fill="#9a32cd" stroke="#9a32cd" points="599.71,-178.7 591.53,-185.44 602.12,-185.27 599.71,-178.7"/>
</a>
</g>
<text text-anchor="middle" x="711.5" y="-173" font-family="Helvetica,sans-Serif" font-size="10.00" fill="grey"> guid_lock</text>
<text text-anchor="middle" x="711.5" y="-162" font-family="Helvetica,sans-Serif" font-size="10.00" fill="grey">queues_lock</text>
</g>
<!-- Node6 -->
<g id="Node000006" class="node">
<title>Node6</title>
<g id="a_Node000006"><a xlink:href="classRealm_1_1noncopyable.html" target="_top" xlink:title=" ">
<polygon fill="white" stroke="#666666" points="396,-241.5 280,-241.5 280,-222.5 396,-222.5 396,-241.5"/>
<text text-anchor="middle" x="338" y="-229.5" font-family="Helvetica,sans-Serif" font-size="10.00">Realm::noncopyable</text>
</a>
</g>
</g>
<!-- Node6&#45;&gt;Node5 -->
<g id="edge5_Node000005_Node000006" class="edge">
<title>Node6&#45;&gt;Node5</title>
<g id="a_edge5_Node000005_Node000006"><a xlink:title=" ">
<path fill="none" stroke="#63b8ff" d="M406.3,-220.93C438.52,-215.63 476.68,-209.36 507.38,-204.31"/>
<polygon fill="#63b8ff" stroke="#63b8ff" points="405.37,-217.54 396.07,-222.62 406.5,-224.45 405.37,-217.54"/>
</a>
</g>
</g>
<!-- Node7 -->
<g id="Node000007" class="node">
<title>Node7</title>
<g id="a_Node000007"><a xlink:href="classRealm_1_1atomic.html" target="_top" xlink:title=" ">
<polygon fill="white" stroke="#666666" points="413,-204.5 263,-204.5 263,-185.5 413,-185.5 413,-204.5"/>
<text text-anchor="middle" x="338" y="-192.5" font-family="Helvetica,sans-Serif" font-size="10.00">Realm::atomic&lt; uint32_t &gt;</text>
</a>
</g>
</g>
<!-- Node7&#45;&gt;Node5 -->
<g id="edge6_Node000005_Node000007" class="edge">
<title>Node7&#45;&gt;Node5</title>
<g id="a_edge6_Node000005_Node000007"><a xlink:title=" ">
<path fill="none" stroke="#9a32cd" stroke-dasharray="5,2" d="M423.47,-195C451.44,-195 481.88,-195 507.25,-195"/>
<polygon fill="#9a32cd" stroke="#9a32cd" points="423.3,-191.5 413.3,-195 423.3,-198.5 423.3,-191.5"/>
</a>
</g>
<text text-anchor="middle" x="449" y="-198" font-family="Helvetica,sans-Serif" font-size="10.00" fill="grey"> state</text>
</g>
<!-- Node8 -->
<g id="Node000008" class="node">
<title>Node8</title>
<g id="a_Node000008"><a xlink:href="classRealm_1_1DoorbellList.html" target="_top" xlink:title=" ">
<polygon fill="white" stroke="#666666" points="394.5,-167.5 281.5,-167.5 281.5,-148.5 394.5,-148.5 394.5,-167.5"/>
<text text-anchor="middle" x="338" y="-155.5" font-family="Helvetica,sans-Serif" font-size="10.00">Realm::DoorbellList</text>
</a>
</g>
</g>
<!-- Node8&#45;&gt;Node5 -->
<g id="edge7_Node000005_Node000008" class="edge">
<title>Node8&#45;&gt;Node5</title>
<g id="a_edge7_Node000005_Node000008"><a xlink:title=" ">
<path fill="none" stroke="#9a32cd" stroke-dasharray="5,2" d="M404.52,-168.77C437.13,-174.14 476.17,-180.56 507.46,-185.7"/>
<polygon fill="#9a32cd" stroke="#9a32cd" points="405.05,-165.32 394.62,-167.15 403.92,-172.22 405.05,-165.32"/>
</a>
</g>
<text text-anchor="middle" x="449" y="-182" font-family="Helvetica,sans-Serif" font-size="10.00" fill="grey"> db_list</text>
</g>
<!-- Node9 -->
<g id="Node000009" class="node">
<title>Node9</title>
<g id="a_Node000009"><a xlink:href="classRealm_1_1atomic.html" target="_top" xlink:title=" ">
<polygon fill="white" stroke="#666666" points="152,-167.5 0,-167.5 0,-148.5 152,-148.5 152,-167.5"/>
<text text-anchor="middle" x="76" y="-155.5" font-family="Helvetica,sans-Serif" font-size="10.00">Realm::atomic&lt; uintptr_t &gt;</text>
</a>
</g>
</g>
<!-- Node9&#45;&gt;Node8 -->
<g id="edge8_Node000008_Node000009" class="edge">
<title>Node9&#45;&gt;Node8</title>
<g id="a_edge8_Node000008_Node000009"><a xlink:title=" ">
<path fill="none" stroke="#9a32cd" stroke-dasharray="5,2" d="M162.52,-158C201.61,-158 246.79,-158 281.38,-158"/>
<polygon fill="#9a32cd" stroke="#9a32cd" points="162.2,-154.5 152.2,-158 162.2,-161.5 162.2,-154.5"/>
</a>
</g>
<text text-anchor="middle" x="207.5" y="-161" font-family="Helvetica,sans-Serif" font-size="10.00" fill="grey"> head_or_count</text>
</g>
<!-- Node10 -->
<g id="Node000010" class="node">
<title>Node10</title>
<g id="a_Node000010"><a xlink:href="classRealm_1_1atomic.html" target="_top" xlink:title=" ">
<polygon fill="white" stroke="#666666" points="645,-114.5 485,-114.5 485,-95.5 645,-95.5 645,-114.5"/>
<text text-anchor="middle" x="565" y="-102.5" font-family="Helvetica,sans-Serif" font-size="10.00">Realm::atomic&lt; XferDesID &gt;</text>
</a>
</g>
</g>
<!-- Node10&#45;&gt;Node4 -->
<g id="edge9_Node000004_Node000010" class="edge">
<title>Node10&#45;&gt;Node4</title>
<g id="a_edge9_Node000004_Node000010"><a xlink:title=" ">
<path fill="none" stroke="#9a32cd" stroke-dasharray="5,2" d="M655.47,-105C700.06,-105 752.84,-105 792.84,-105"/>
<polygon fill="#9a32cd" stroke="#9a32cd" points="655.22,-101.5 645.22,-105 655.22,-108.5 655.22,-101.5"/>
</a>
</g>
<text text-anchor="middle" x="711.5" y="-108" font-family="Helvetica,sans-Serif" font-size="10.00" fill="grey"> next_to_assign_idx</text>
</g>
<!-- Node11 -->
<g id="Node000011" class="node">
<title>Node11</title>
<g id="a_Node000011"><a xlink:href="classRealm_1_1atomic.html" target="_top" xlink:title=" ">
<polygon fill="white" stroke="#666666" points="921,-188.5 790,-188.5 790,-169.5 921,-169.5 921,-188.5"/>
<text text-anchor="middle" x="855.5" y="-176.5" font-family="Helvetica,sans-Serif" font-size="10.00">Realm::atomic&lt; bool &gt;</text>
</a>
</g>
</g>
<!-- Node11&#45;&gt;Node3 -->
<g id="edge10_Node000003_Node000011" class="edge">
<title>Node11&#45;&gt;Node3</title>
<g id="a_edge10_Node000003_Node000011"><a xlink:title=" ">
<path fill="none" stroke="#9a32cd" stroke-dasharray="5,2" d="M931.36,-181.31C969.6,-182.84 1016.84,-185.27 1059,-189 1074.73,-190.39 1091.88,-192.43 1107.18,-194.43"/>
<polygon fill="#9a32cd" stroke="#9a32cd" points="931.47,-177.81 921.34,-180.92 931.19,-184.81 931.47,-177.81"/>
</a>
</g>
<text text-anchor="middle" x="1005" y="-203" font-family="Helvetica,sans-Serif" font-size="10.00" fill="grey"> iteration_completed</text>
<text text-anchor="middle" x="1005" y="-192" font-family="Helvetica,sans-Serif" font-size="10.00" fill="grey">transfer_completed</text>
</g>
<!-- Node12 -->
<g id="Node000012" class="node">
<title>Node12</title>
<g id="a_Node000012"><a xlink:href="classRealm_1_1atomic.html" target="_top" xlink:title=" ">
<polygon fill="white" stroke="#666666" points="927.5,-151.5 783.5,-151.5 783.5,-132.5 927.5,-132.5 927.5,-151.5"/>
<text text-anchor="middle" x="855.5" y="-139.5" font-family="Helvetica,sans-Serif" font-size="10.00">Realm::atomic&lt; int64_t &gt;</text>
</a>
</g>
</g>
<!-- Node12&#45;&gt;Node3 -->
<g id="edge11_Node000003_Node000012" class="edge">
<title>Node12&#45;&gt;Node3</title>
<g id="a_edge11_Node000003_Node000012"><a xlink:title=" ">
<path fill="none" stroke="#9a32cd" stroke-dasharray="5,2" d="M938.2,-148.55C975.38,-152.53 1019.75,-158.7 1059,-168 1083.91,-173.9 1111.43,-184.01 1130.23,-191.49"/>
<polygon fill="#9a32cd" stroke="#9a32cd" points="938.22,-145.03 927.91,-147.48 937.5,-151.99 938.22,-145.03"/>
</a>
</g>
<text text-anchor="middle" x="1005" y="-171" font-family="Helvetica,sans-Serif" font-size="10.00" fill="grey"> bytes_write_pending</text>
</g>
<!-- Node13 -->
<g id="Node000013" class="node">
<title>Node13</title>
<g id="a_Node000013"><a xlink:href="structRealm_1_1XferDes_1_1ControlPortState.html" target="_top" xlink:title=" ">
<polygon fill="white" stroke="#666666" points="932.5,-392 778.5,-392 778.5,-362 932.5,-362 932.5,-392"/>
<text text-anchor="start" x="786.5" y="-380" font-family="Helvetica,sans-Serif" font-size="10.00">Realm::XferDes::ControlPort</text>
<text text-anchor="middle" x="855.5" y="-369" font-family="Helvetica,sans-Serif" font-size="10.00">State</text>
</a>
</g>
</g>
<!-- Node13&#45;&gt;Node3 -->
<g id="edge12_Node000003_Node000013" class="edge">
<title>Node13&#45;&gt;Node3</title>
<g id="a_edge12_Node000003_Node000013"><a xlink:title=" ">
<path fill="none" stroke="#9a32cd" stroke-dasharray="5,2" d="M942.93,-384.74C982.78,-383.62 1028.01,-375.01 1059,-347 1083.15,-325.17 1060.82,-304.25 1077,-276 1093.03,-248.01 1122.38,-223.42 1139.54,-210.54"/>
<polygon fill="#9a32cd" stroke="#9a32cd" points="942.88,-381.24 932.93,-384.88 942.98,-388.24 942.88,-381.24"/>
</a>
</g>
<text text-anchor="middle" x="1005" y="-398" font-family="Helvetica,sans-Serif" font-size="10.00" fill="grey"> input_control</text>
<text text-anchor="middle" x="1005" y="-387" font-family="Helvetica,sans-Serif" font-size="10.00" fill="grey">output_control</text>
</g>
<!-- Node14 -->
<g id="Node000014" class="node">
<title>Node14</title>
<g id="a_Node000014"><a xlink:href="classRealm_1_1ControlPort_1_1Decoder.html" target="_top" xlink:title=" ">
<polygon fill="white" stroke="#666666" points="619.5,-392 510.5,-392 510.5,-362 619.5,-362 619.5,-392"/>
<text text-anchor="start" x="518.5" y="-380" font-family="Helvetica,sans-Serif" font-size="10.00">Realm::ControlPort</text>
<text text-anchor="middle" x="565" y="-369" font-family="Helvetica,sans-Serif" font-size="10.00">::Decoder</text>
</a>
</g>
</g>
<!-- Node14&#45;&gt;Node13 -->
<g id="edge13_Node000013_Node000014" class="edge">
<title>Node14&#45;&gt;Node13</title>
<g id="a_edge13_Node000013_Node000014"><a xlink:title=" ">
<path fill="none" stroke="#9a32cd" stroke-dasharray="5,2" d="M629.84,-377C673.68,-377 732.08,-377 778.36,-377"/>
<polygon fill="#9a32cd" stroke="#9a32cd" points="629.59,-373.5 619.59,-377 629.59,-380.5 629.59,-373.5"/>
</a>
</g>
<text text-anchor="middle" x="711.5" y="-380" font-family="Helvetica,sans-Serif" font-size="10.00" fill="grey"> decoder</text>
</g>
<!-- Node15 -->
<g id="Node000015" class="node">
<title>Node15</title>
<g id="a_Node000015"><a xlink:href="classRealm_1_1Channel.html" target="_top" xlink:title=" ">
<polygon fill="white" stroke="#666666" points="902.5,-343.5 808.5,-343.5 808.5,-324.5 902.5,-324.5 902.5,-343.5"/>
<text text-anchor="middle" x="855.5" y="-331.5" font-family="Helvetica,sans-Serif" font-size="10.00">Realm::Channel</text>
</a>
</g>
</g>
<!-- Node15&#45;&gt;Node3 -->
<g id="edge14_Node000003_Node000015" class="edge">
<title>Node15&#45;&gt;Node3</title>
<g id="a_edge14_Node000003_Node000015"><a xlink:title=" ">
<path fill="none" stroke="#9a32cd" stroke-dasharray="5,2" d="M912.75,-333.81C964.33,-332.59 1036.07,-327.95 1059,-312 1073.69,-301.79 1066.49,-290.48 1077,-276 1096.16,-249.6 1124.9,-224.05 1140.99,-210.66"/>
<polygon fill="#9a32cd" stroke="#9a32cd" points="912.66,-330.31 902.73,-334.01 912.79,-337.31 912.66,-330.31"/>
</a>
</g>
<text text-anchor="middle" x="1005" y="-335" font-family="Helvetica,sans-Serif" font-size="10.00" fill="grey"> channel</text>
</g>
<!-- Node16 -->
<g id="Node000016" class="node">
<title>Node16</title>
<g id="a_Node000016"><a xlink:href="classRealm_1_1atomic.html" target="_top" xlink:title=" ">
<polygon fill="white" stroke="#666666" points="933,-306.5 778,-306.5 778,-287.5 933,-287.5 933,-306.5"/>
<text text-anchor="middle" x="855.5" y="-294.5" font-family="Helvetica,sans-Serif" font-size="10.00">Realm::atomic&lt; unsigned &gt;</text>
</a>
</g>
</g>
<!-- Node16&#45;&gt;Node3 -->
<g id="edge16_Node000003_Node000016" class="edge">
<title>Node16&#45;&gt;Node3</title>
<g id="a_edge16_Node000003_Node000016"><a xlink:title=" ">
<path fill="none" stroke="#9a32cd" stroke-dasharray="5,2" d="M896.65,-284.34C913.41,-279.14 933.11,-273.15 951,-268 998.76,-254.26 1011.87,-254.79 1059,-239 1084.37,-230.5 1112.75,-218.7 1131.62,-210.51"/>
<polygon fill="#9a32cd" stroke="#9a32cd" points="895.14,-281.14 886.64,-287.45 897.22,-287.82 895.14,-281.14"/>
</a>
</g>
<text text-anchor="start" x="951" y="-304" font-family="Helvetica,sans-Serif" font-size="10.00" fill="grey"> nb_update_pre_bytes</text>
<text text-anchor="middle" x="1005" y="-293" font-family="Helvetica,sans-Serif" font-size="10.00" fill="grey">_total_calls_received</text>
<text text-anchor="middle" x="1005" y="-282" font-family="Helvetica,sans-Serif" font-size="10.00" fill="grey">progress_counter</text>
<text text-anchor="middle" x="1005" y="-271" font-family="Helvetica,sans-Serif" font-size="10.00" fill="grey">reference_count</text>
</g>
<!-- Node17&#45;&gt;Node3 -->
<g id="edge17_Node000003_Node000017" class="edge">
<title>Node17&#45;&gt;Node3</title>
<g id="a_edge17_Node000003_Node000017"><a xlink:title=" ">
<path fill="none" stroke="#9a32cd" stroke-dasharray="5,2" d="M1369.82,-187.62C1360.45,-186.55 1351.04,-185.63 1342,-185 1300.77,-182.11 1290.19,-181.52 1249,-185 1233.16,-186.34 1215.99,-188.92 1200.7,-191.63"/>
<polygon fill="#9a32cd" stroke="#9a32cd" points="1369.6,-191.12 1379.95,-188.85 1370.44,-184.17 1369.6,-191.12"/>
</a>
</g>
<text text-anchor="middle" x="1295.5" y="-188" font-family="Helvetica,sans-Serif" font-size="10.00" fill="grey"> xd_link</text>
</g>
<!-- Node18&#45;&gt;Node3 -->
<g id="edge19_Node000003_Node000018" class="edge">
<title>Node18&#45;&gt;Node3</title>
<g id="a_edge19_Node000003_Node000018"><a xlink:title=" ">
<path fill="none" stroke="#9a32cd" stroke-dasharray="5,2" d="M1375.28,-94.34C1335.79,-94.91 1288.35,-99.99 1249,-117 1210.23,-133.76 1176.49,-172.99 1162.23,-191.29"/>
<polygon fill="#9a32cd" stroke="#9a32cd" points="1375.42,-97.84 1385.4,-94.29 1375.38,-90.84 1375.42,-97.84"/>
</a>
</g>
<text text-anchor="middle" x="1295.5" y="-120" font-family="Helvetica,sans-Serif" font-size="10.00" fill="grey"> deferred_enqueue</text>
</g>
<!-- Node19 -->
<g id="Node000019" class="node">
<title>Node19</title>
<g id="a_Node000019"><a xlink:href="classRealm_1_1EventWaiter.html" target="_top" xlink:title=" ">
<polygon fill="white" stroke="#666666" points="1210.5,-41.5 1097.5,-41.5 1097.5,-22.5 1210.5,-22.5 1210.5,-41.5"/>
<text text-anchor="middle" x="1154" y="-29.5" font-family="Helvetica,sans-Serif" font-size="10.00">Realm::EventWaiter</text>
</a>
</g>
</g>
<!-- Node19&#45;&gt;Node18 -->
<g id="edge20_Node000018_Node000019" class="edge">
<title>Node19&#45;&gt;Node18</title>
<g id="a_edge20_Node000018_Node000019"><a xlink:title=" ">
<path fill="none" stroke="#63b8ff" d="M1211.31,-43.69C1248.46,-51.5 1298.19,-62.11 1342,-72 1358.69,-75.77 1376.73,-79.99 1393.41,-83.96"/>
<polygon fill="#63b8ff" stroke="#63b8ff" points="1211.68,-40.2 1201.17,-41.57 1210.24,-47.05 1211.68,-40.2"/>
</a>
</g>
</g>
<!-- Node20 -->
<g id="Node000020" class="node">
<title>Node20</title>
<g id="a_Node000020"><a xlink:href="structRealm_1_1IntrusiveListLink.html" target="_top" xlink:title=" ">
<polygon fill="white" stroke="#666666" points="1524.5,-30 1388.5,-30 1388.5,0 1524.5,0 1524.5,-30"/>
<text text-anchor="start" x="1396.5" y="-18" font-family="Helvetica,sans-Serif" font-size="10.00">Realm::IntrusiveListLink</text>
<text text-anchor="middle" x="1456.5" y="-7" font-family="Helvetica,sans-Serif" font-size="10.00">&lt; Realm::EventWaiter &gt;</text>
</a>
</g>
</g>
<!-- Node19&#45;&gt;Node20 -->
<g id="edge22_Node000020_Node000019" class="edge">
<title>Node19&#45;&gt;Node20</title>
<g id="a_edge22_Node000020_Node000019"><a xlink:title=" ">
<path fill="none" stroke="#9a32cd" stroke-dasharray="5,2" d="M1193.43,-19.36C1210.28,-14.45 1230.42,-9.43 1249,-7 1295.25,-0.96 1347.78,-3.11 1388.28,-6.7"/>
<polygon fill="#9a32cd" stroke="#9a32cd" points="1191.98,-16.14 1183.41,-22.38 1193.99,-22.84 1191.98,-16.14"/>
</a>
</g>
<text text-anchor="middle" x="1295.5" y="-10" font-family="Helvetica,sans-Serif" font-size="10.00" fill="grey"> next</text>
</g>
<!-- Node20&#45;&gt;Node19 -->
<g id="edge21_Node000019_Node000020" class="edge">
<title>Node20&#45;&gt;Node19</title>
<g id="a_edge21_Node000019_Node000020"><a xlink:title=" ">
<path fill="none" stroke="#9a32cd" stroke-dasharray="5,2" d="M1378.18,-19.37C1325.84,-22.34 1257.92,-26.18 1210.82,-28.84"/>
<polygon fill="#9a32cd" stroke="#9a32cd" points="1378.64,-22.85 1388.42,-18.79 1378.24,-15.87 1378.64,-22.85"/>
</a>
</g>
<text text-anchor="middle" x="1295.5" y="-30" font-family="Helvetica,sans-Serif" font-size="10.00" fill="grey"> ew_list_link</text>
</g>
</g>
</svg>
