<?xml version="1.0" encoding="UTF-8" standalone="no"?>
<!DOCTYPE svg PUBLIC "-//W3C//DTD SVG 1.1//EN"
 "http://www.w3.org/Graphics/SVG/1.1/DTD/svg11.dtd">
<!-- Generated by graphviz version 2.43.0 (0)
 -->
<!-- Title: Realm::MemoryImpl Pages: 1 -->
<svg width="578pt" height="434pt"
 viewBox="0.00 0.00 578.00 434.00" xmlns="http://www.w3.org/2000/svg" xmlns:xlink="http://www.w3.org/1999/xlink">
<g id="graph0" class="graph" transform="scale(1 1) rotate(0) translate(4 430)">
<title>Realm::MemoryImpl</title>
<!-- Node1 -->
<g id="Node000001" class="node">
<title>Node1</title>
<g id="a_Node000001"><a xlink:title=" ">
<polygon fill="#999999" stroke="#666666" points="116,-315 0,-315 0,-296 116,-296 116,-315"/>
<text text-anchor="middle" x="58" y="-303" font-family="Helvetica,sans-Serif" font-size="10.00">Realm::MemoryImpl</text>
</a>
</g>
</g>
<!-- Node2 -->
<g id="Node000002" class="node">
<title>Node2</title>
<g id="a_Node000002"><a xlink:href="classRealm_1_1Cuda_1_1GPUDynamicFBMemory.html" target="_top" xlink:title=" ">
<polygon fill="white" stroke="#666666" points="355,-426 152,-426 152,-407 355,-407 355,-426"/>
<text text-anchor="middle" x="253.5" y="-414" font-family="Helvetica,sans-Serif" font-size="10.00">Realm::Cuda::GPUDynamicFBMemory</text>
</a>
</g>
</g>
<!-- Node1&#45;&gt;Node2 -->
<g id="edge1_Node000001_Node000002" class="edge">
<title>Node1&#45;&gt;Node2</title>
<g id="a_edge1_Node000001_Node000002"><a xlink:title=" ">
<path fill="none" stroke="#63b8ff" d="M71.36,-323.28C87.35,-344.79 117.29,-380.37 152,-398.5 158.52,-401.91 165.57,-404.68 172.8,-406.94"/>
<polygon fill="#63b8ff" stroke="#63b8ff" points="74.09,-321.08 65.39,-315.02 68.41,-325.17 74.09,-321.08"/>
</a>
</g>
</g>
<!-- Node3 -->
<g id="Node000003" class="node">
<title>Node3</title>
<g id="a_Node000003"><a xlink:href="classRealm_1_1FileMemory.html" target="_top" xlink:title=" ">
<polygon fill="white" stroke="#666666" points="309.5,-389 197.5,-389 197.5,-370 309.5,-370 309.5,-389"/>
<text text-anchor="middle" x="253.5" y="-377" font-family="Helvetica,sans-Serif" font-size="10.00">Realm::FileMemory</text>
</a>
</g>
</g>
<!-- Node1&#45;&gt;Node3 -->
<g id="edge2_Node000001_Node000003" class="edge">
<title>Node1&#45;&gt;Node3</title>
<g id="a_edge2_Node000001_Node000003"><a xlink:title=" ">
<path fill="none" stroke="#63b8ff" d="M80.06,-321.27C98.2,-334.06 125.56,-351.56 152,-361.5 166.27,-366.86 182.29,-370.66 197.28,-373.33"/>
<polygon fill="#63b8ff" stroke="#63b8ff" points="81.63,-318.08 71.47,-315.07 77.53,-323.76 81.63,-318.08"/>
</a>
</g>
</g>
<!-- Node4 -->
<g id="Node000004" class="node">
<title>Node4</title>
<g id="a_Node000004"><a xlink:href="classRealm_1_1HDF5_1_1HDF5Memory.html" target="_top" xlink:title=" ">
<polygon fill="white" stroke="#666666" points="331,-352 176,-352 176,-333 331,-333 331,-352"/>
<text text-anchor="middle" x="253.5" y="-340" font-family="Helvetica,sans-Serif" font-size="10.00">Realm::HDF5::HDF5Memory</text>
</a>
</g>
</g>
<!-- Node1&#45;&gt;Node4 -->
<g id="edge3_Node000001_Node000004" class="edge">
<title>Node1&#45;&gt;Node4</title>
<g id="a_edge3_Node000001_Node000004"><a xlink:title=" ">
<path fill="none" stroke="#63b8ff" d="M114.91,-317.15C127.12,-319.63 139.99,-322.2 152,-324.5 166.88,-327.35 183.04,-330.31 197.95,-332.98"/>
<polygon fill="#63b8ff" stroke="#63b8ff" points="115.34,-313.67 104.84,-315.1 113.94,-320.53 115.34,-313.67"/>
</a>
</g>
</g>
<!-- Node5 -->
<g id="Node000005" class="node">
<title>Node5</title>
<g id="a_Node000005"><a xlink:href="classRealm_1_1Hip_1_1GPUDynamicFBMemory.html" target="_top" xlink:title=" ">
<polygon fill="white" stroke="#666666" points="350.5,-315 156.5,-315 156.5,-296 350.5,-296 350.5,-315"/>
<text text-anchor="middle" x="253.5" y="-303" font-family="Helvetica,sans-Serif" font-size="10.00">Realm::Hip::GPUDynamicFBMemory</text>
</a>
</g>
</g>
<!-- Node1&#45;&gt;Node5 -->
<g id="edge4_Node000001_Node000005" class="edge">
<title>Node1&#45;&gt;Node5</title>
<g id="a_edge4_Node000001_Node000005"><a xlink:title=" ">
<path fill="none" stroke="#63b8ff" d="M126.04,-305.5C135.84,-305.5 146.09,-305.5 156.33,-305.5"/>
<polygon fill="#63b8ff" stroke="#63b8ff" points="126.01,-302 116.01,-305.5 126.01,-309 126.01,-302"/>
</a>
</g>
</g>
<!-- Node6 -->
<g id="Node000006" class="node">
<title>Node6</title>
<g id="a_Node000006"><a xlink:href="classRealm_1_1IBMemory.html" target="_top" xlink:title=" ">
<polygon fill="white" stroke="#666666" points="305.5,-278 201.5,-278 201.5,-259 305.5,-259 305.5,-278"/>
<text text-anchor="middle" x="253.5" y="-266" font-family="Helvetica,sans-Serif" font-size="10.00">Realm::IBMemory</text>
</a>
</g>
</g>
<!-- Node1&#45;&gt;Node6 -->
<g id="edge5_Node000001_Node000006" class="edge">
<title>Node1&#45;&gt;Node6</title>
<g id="a_edge5_Node000001_Node000006"><a xlink:title=" ">
<path fill="none" stroke="#63b8ff" d="M118.34,-293.97C129.52,-291.81 141.12,-289.58 152,-287.5 168.22,-284.4 185.92,-281.04 201.88,-278.03"/>
<polygon fill="#63b8ff" stroke="#63b8ff" points="117.38,-290.6 108.22,-295.93 118.71,-297.47 117.38,-290.6"/>
</a>
</g>
</g>
<!-- Node10 -->
<g id="Node000010" class="node">
<title>Node10</title>
<g id="a_Node000010"><a xlink:href="classRealm_1_1LocalManagedMemory.html" target="_top" xlink:title=" ">
<polygon fill="white" stroke="#666666" points="336,-167 171,-167 171,-148 336,-148 336,-167"/>
<text text-anchor="middle" x="253.5" y="-155" font-family="Helvetica,sans-Serif" font-size="10.00">Realm::LocalManagedMemory</text>
</a>
</g>
</g>
<!-- Node1&#45;&gt;Node10 -->
<g id="edge9_Node000001_Node000010" class="edge">
<title>Node1&#45;&gt;Node10</title>
<g id="a_edge9_Node000001_Node000010"><a xlink:title=" ">
<path fill="none" stroke="#63b8ff" d="M79.75,-289.63C119.98,-258.86 207.5,-191.92 240.01,-167.05"/>
<polygon fill="#63b8ff" stroke="#63b8ff" points="77.51,-286.93 71.7,-295.79 81.77,-292.49 77.51,-286.93"/>
</a>
</g>
</g>
<!-- Node17 -->
<g id="Node000017" class="node">
<title>Node17</title>
<g id="a_Node000017"><a xlink:href="classRealm_1_1RemoteMemory.html" target="_top" xlink:title=" ">
<polygon fill="white" stroke="#666666" points="320,-75 187,-75 187,-56 320,-56 320,-75"/>
<text text-anchor="middle" x="253.5" y="-63" font-family="Helvetica,sans-Serif" font-size="10.00">Realm::RemoteMemory</text>
</a>
</g>
</g>
<!-- Node1&#45;&gt;Node17 -->
<g id="edge16_Node000001_Node000017" class="edge">
<title>Node1&#45;&gt;Node17</title>
<g id="a_edge16_Node000001_Node000017"><a xlink:title=" ">
<path fill="none" stroke="#63b8ff" d="M66.57,-286.28C80.11,-253.53 110.96,-185.97 152,-139.5 176.67,-111.57 213.56,-87.76 235.11,-75.15"/>
<polygon fill="#63b8ff" stroke="#63b8ff" points="63.29,-285.03 62.79,-295.61 69.78,-287.66 63.29,-285.03"/>
</a>
</g>
</g>
<!-- Node7 -->
<g id="Node000007" class="node">
<title>Node7</title>
<g id="a_Node000007"><a xlink:href="classRealm_1_1Cuda_1_1GPUFBIBMemory.html" target="_top" xlink:title=" ">
<polygon fill="white" stroke="#666666" points="565,-352 396,-352 396,-333 565,-333 565,-352"/>
<text text-anchor="middle" x="480.5" y="-340" font-family="Helvetica,sans-Serif" font-size="10.00">Realm::Cuda::GPUFBIBMemory</text>
</a>
</g>
</g>
<!-- Node6&#45;&gt;Node7 -->
<g id="edge6_Node000006_Node000007" class="edge">
<title>Node6&#45;&gt;Node7</title>
<g id="a_edge6_Node000006_Node000007"><a xlink:title=" ">
<path fill="none" stroke="#63b8ff" d="M315.79,-273.94C329.24,-276.79 343.03,-281.07 355,-287.5 375.21,-298.36 370.86,-313.5 391,-324.5 397.19,-327.88 403.94,-330.63 410.86,-332.87"/>
<polygon fill="#63b8ff" stroke="#63b8ff" points="316.08,-270.44 305.6,-272.03 314.79,-277.32 316.08,-270.44"/>
</a>
</g>
</g>
<!-- Node8 -->
<g id="Node000008" class="node">
<title>Node8</title>
<g id="a_Node000008"><a xlink:href="classRealm_1_1Hip_1_1GPUFBIBMemory.html" target="_top" xlink:title=" ">
<polygon fill="white" stroke="#666666" points="561,-315 400,-315 400,-296 561,-296 561,-315"/>
<text text-anchor="middle" x="480.5" y="-303" font-family="Helvetica,sans-Serif" font-size="10.00">Realm::Hip::GPUFBIBMemory</text>
</a>
</g>
</g>
<!-- Node6&#45;&gt;Node8 -->
<g id="edge7_Node000006_Node000008" class="edge">
<title>Node6&#45;&gt;Node8</title>
<g id="a_edge7_Node000006_Node000008"><a xlink:title=" ">
<path fill="none" stroke="#63b8ff" d="M315.53,-278.54C348.51,-283.96 389.01,-290.62 421.51,-295.96"/>
<polygon fill="#63b8ff" stroke="#63b8ff" points="315.99,-275.06 305.56,-276.9 314.86,-281.97 315.99,-275.06"/>
</a>
</g>
</g>
<!-- Node9 -->
<g id="Node000009" class="node">
<title>Node9</title>
<g id="a_Node000009"><a xlink:href="classRealm_1_1UCP_1_1UCPIBMemory.html" target="_top" xlink:title=" ">
<polygon fill="white" stroke="#666666" points="556,-278 405,-278 405,-259 556,-259 556,-278"/>
<text text-anchor="middle" x="480.5" y="-266" font-family="Helvetica,sans-Serif" font-size="10.00">Realm::UCP::UCPIBMemory</text>
</a>
</g>
</g>
<!-- Node6&#45;&gt;Node9 -->
<g id="edge8_Node000006_Node000009" class="edge">
<title>Node6&#45;&gt;Node9</title>
<g id="a_edge8_Node000006_Node000009"><a xlink:title=" ">
<path fill="none" stroke="#63b8ff" d="M315.8,-268.5C343.25,-268.5 375.87,-268.5 404.74,-268.5"/>
<polygon fill="#63b8ff" stroke="#63b8ff" points="315.56,-265 305.56,-268.5 315.56,-272 315.56,-265"/>
</a>
</g>
</g>
<!-- Node11 -->
<g id="Node000011" class="node">
<title>Node11</title>
<g id="a_Node000011"><a xlink:href="classRealm_1_1Cuda_1_1GPUFBMemory.html" target="_top" xlink:title=" ">
<polygon fill="white" stroke="#666666" points="560,-241 401,-241 401,-222 560,-222 560,-241"/>
<text text-anchor="middle" x="480.5" y="-229" font-family="Helvetica,sans-Serif" font-size="10.00">Realm::Cuda::GPUFBMemory</text>
</a>
</g>
</g>
<!-- Node10&#45;&gt;Node11 -->
<g id="edge10_Node000010_Node000011" class="edge">
<title>Node10&#45;&gt;Node11</title>
<g id="a_edge10_Node000010_Node000011"><a xlink:title=" ">
<path fill="none" stroke="#63b8ff" d="M283.75,-171.39C311,-183.87 353.02,-201.96 391,-213.5 401.65,-216.74 413.2,-219.56 424.33,-221.96"/>
<polygon fill="#63b8ff" stroke="#63b8ff" points="284.96,-168.09 274.42,-167.07 282.02,-174.44 284.96,-168.09"/>
</a>
</g>
</g>
<!-- Node12 -->
<g id="Node000012" class="node">
<title>Node12</title>
<g id="a_Node000012"><a xlink:href="classRealm_1_1Cuda_1_1GPUZCMemory.html" target="_top" xlink:title=" ">
<polygon fill="white" stroke="#666666" points="560.5,-204 400.5,-204 400.5,-185 560.5,-185 560.5,-204"/>
<text text-anchor="middle" x="480.5" y="-192" font-family="Helvetica,sans-Serif" font-size="10.00">Realm::Cuda::GPUZCMemory</text>
</a>
</g>
</g>
<!-- Node10&#45;&gt;Node12 -->
<g id="edge11_Node000010_Node000012" class="edge">
<title>Node10&#45;&gt;Node12</title>
<g id="a_edge11_Node000010_Node000012"><a xlink:title=" ">
<path fill="none" stroke="#63b8ff" d="M322.47,-168.68C354.02,-173.87 391.14,-179.97 421.36,-184.94"/>
<polygon fill="#63b8ff" stroke="#63b8ff" points="322.88,-165.2 312.44,-167.03 321.74,-172.1 322.88,-165.2"/>
</a>
</g>
</g>
<!-- Node13 -->
<g id="Node000013" class="node">
<title>Node13</title>
<g id="a_Node000013"><a xlink:href="classRealm_1_1DiskMemory.html" target="_top" xlink:title=" ">
<polygon fill="white" stroke="#666666" points="538.5,-167 422.5,-167 422.5,-148 538.5,-148 538.5,-167"/>
<text text-anchor="middle" x="480.5" y="-155" font-family="Helvetica,sans-Serif" font-size="10.00">Realm::DiskMemory</text>
</a>
</g>
</g>
<!-- Node10&#45;&gt;Node13 -->
<g id="edge12_Node000010_Node000013" class="edge">
<title>Node10&#45;&gt;Node13</title>
<g id="a_edge12_Node000010_Node000013"><a xlink:title=" ">
<path fill="none" stroke="#63b8ff" d="M346.19,-157.5C371.89,-157.5 399.09,-157.5 422.18,-157.5"/>
<polygon fill="#63b8ff" stroke="#63b8ff" points="346.05,-154 336.05,-157.5 346.05,-161 346.05,-154"/>
</a>
</g>
</g>
<!-- Node14 -->
<g id="Node000014" class="node">
<title>Node14</title>
<g id="a_Node000014"><a xlink:href="classRealm_1_1Hip_1_1GPUFBMemory.html" target="_top" xlink:title=" ">
<polygon fill="white" stroke="#666666" points="556,-130 405,-130 405,-111 556,-111 556,-130"/>
<text text-anchor="middle" x="480.5" y="-118" font-family="Helvetica,sans-Serif" font-size="10.00">Realm::Hip::GPUFBMemory</text>
</a>
</g>
</g>
<!-- Node10&#45;&gt;Node14 -->
<g id="edge13_Node000010_Node000014" class="edge">
<title>Node10&#45;&gt;Node14</title>
<g id="a_edge13_Node000010_Node000014"><a xlink:title=" ">
<path fill="none" stroke="#63b8ff" d="M322.47,-146.32C354.02,-141.13 391.14,-135.03 421.36,-130.06"/>
<polygon fill="#63b8ff" stroke="#63b8ff" points="321.74,-142.9 312.44,-147.97 322.88,-149.8 321.74,-142.9"/>
</a>
</g>
</g>
<!-- Node15 -->
<g id="Node000015" class="node">
<title>Node15</title>
<g id="a_Node000015"><a xlink:href="classRealm_1_1Hip_1_1GPUZCMemory.html" target="_top" xlink:title=" ">
<polygon fill="white" stroke="#666666" points="556.5,-93 404.5,-93 404.5,-74 556.5,-74 556.5,-93"/>
<text text-anchor="middle" x="480.5" y="-81" font-family="Helvetica,sans-Serif" font-size="10.00">Realm::Hip::GPUZCMemory</text>
</a>
</g>
</g>
<!-- Node10&#45;&gt;Node15 -->
<g id="edge14_Node000010_Node000015" class="edge">
<title>Node10&#45;&gt;Node15</title>
<g id="a_edge14_Node000010_Node000015"><a xlink:title=" ">
<path fill="none" stroke="#63b8ff" d="M284.28,-143.77C311.58,-131.6 353.36,-114.03 391,-102.5 402.72,-98.91 415.51,-95.74 427.64,-93.08"/>
<polygon fill="#63b8ff" stroke="#63b8ff" points="282.6,-140.69 274.91,-147.99 285.47,-147.07 282.6,-140.69"/>
</a>
</g>
</g>
<!-- Node16 -->
<g id="Node000016" class="node">
<title>Node16</title>
<g id="a_Node000016"><a xlink:href="classRealm_1_1LocalCPUMemory.html" target="_top" xlink:title=" ">
<polygon fill="white" stroke="#666666" points="550.5,-56 410.5,-56 410.5,-37 550.5,-37 550.5,-56"/>
<text text-anchor="middle" x="480.5" y="-44" font-family="Helvetica,sans-Serif" font-size="10.00">Realm::LocalCPUMemory</text>
</a>
</g>
</g>
<!-- Node10&#45;&gt;Node16 -->
<g id="edge15_Node000010_Node000016" class="edge">
<title>Node10&#45;&gt;Node16</title>
<g id="a_edge15_Node000010_Node000016"><a xlink:title=" ">
<path fill="none" stroke="#63b8ff" d="M275.7,-141.75C307.65,-118.26 366.96,-75.73 391,-65.5 400.11,-61.62 410.1,-58.51 419.97,-56.01"/>
<polygon fill="#63b8ff" stroke="#63b8ff" points="273.43,-139.07 267.46,-147.83 277.59,-144.7 273.43,-139.07"/>
</a>
</g>
</g>
<!-- Node18 -->
<g id="Node000018" class="node">
<title>Node18</title>
<g id="a_Node000018"><a xlink:href="classRealm_1_1UCP_1_1UCPRemoteMemory.html" target="_top" xlink:title=" ">
<polygon fill="white" stroke="#666666" points="570,-19 391,-19 391,0 570,0 570,-19"/>
<text text-anchor="middle" x="480.5" y="-7" font-family="Helvetica,sans-Serif" font-size="10.00">Realm::UCP::UCPRemoteMemory</text>
</a>
</g>
</g>
<!-- Node17&#45;&gt;Node18 -->
<g id="edge17_Node000017_Node000018" class="edge">
<title>Node17&#45;&gt;Node18</title>
<g id="a_edge17_Node000017_Node000018"><a xlink:title=" ">
<path fill="none" stroke="#63b8ff" d="M297.58,-53.19C324.37,-45.7 359.58,-36.13 391,-28.5 404.44,-25.24 419.1,-21.97 432.55,-19.09"/>
<polygon fill="#63b8ff" stroke="#63b8ff" points="296.43,-49.88 287.75,-55.96 298.32,-56.62 296.43,-49.88"/>
</a>
</g>
</g>
</g>
</svg>
