<?xml version="1.0" encoding="UTF-8" standalone="no"?>
<!DOCTYPE svg PUBLIC "-//W3C//DTD SVG 1.1//EN"
 "http://www.w3.org/Graphics/SVG/1.1/DTD/svg11.dtd">
<!-- Generated by graphviz version 2.43.0 (0)
 -->
<!-- Title: Realm::LocalChannel Pages: 1 -->
<svg width="716pt" height="731pt"
 viewBox="0.00 0.00 716.00 730.50" xmlns="http://www.w3.org/2000/svg" xmlns:xlink="http://www.w3.org/1999/xlink">
<g id="graph0" class="graph" transform="scale(1 1) rotate(0) translate(4 726.5)">
<title>Realm::LocalChannel</title>
<!-- Node1 -->
<g id="Node000001" class="node">
<title>Node1</title>
<g id="a_Node000001"><a xlink:title=" ">
<polygon fill="#999999" stroke="#666666" points="249,-359.5 130,-359.5 130,-340.5 249,-340.5 249,-359.5"/>
<text text-anchor="middle" x="189.5" y="-347.5" font-family="Helvetica,sans-Serif" font-size="10.00">Realm::LocalChannel</text>
</a>
</g>
</g>
<!-- Node3 -->
<g id="Node000003" class="node">
<title>Node3</title>
<g id="a_Node000003"><a xlink:href="classRealm_1_1SingleXDQChannel.html" target="_top" xlink:title=" ">
<polygon fill="white" stroke="#666666" points="466.5,-722.5 311.5,-722.5 311.5,-681.5 466.5,-681.5 466.5,-722.5"/>
<text text-anchor="start" x="319.5" y="-710.5" font-family="Helvetica,sans-Serif" font-size="10.00">Realm::SingleXDQChannel</text>
<text text-anchor="start" x="319.5" y="-699.5" font-family="Helvetica,sans-Serif" font-size="10.00">&lt; AddressSplitChannel,</text>
<text text-anchor="middle" x="389" y="-688.5" font-family="Helvetica,sans-Serif" font-size="10.00"> AddressSplitXferDesBase &gt;</text>
</a>
</g>
</g>
<!-- Node1&#45;&gt;Node3 -->
<g id="edge2_Node000001_Node000003" class="edge">
<title>Node1&#45;&gt;Node3</title>
<g id="a_edge2_Node000001_Node000003"><a xlink:title=" ">
<path fill="none" stroke="#63b8ff" d="M190.79,-369.88C192.64,-424 205.09,-575.74 285,-662 292.37,-669.95 301.5,-676.34 311.26,-681.47"/>
<polygon fill="#63b8ff" stroke="#63b8ff" points="194.28,-369.51 190.53,-359.6 187.28,-369.69 194.28,-369.51"/>
</a>
</g>
</g>
<!-- Node5 -->
<g id="Node000005" class="node">
<title>Node5</title>
<g id="a_Node000005"><a xlink:href="classRealm_1_1SingleXDQChannel.html" target="_top" xlink:title=" ">
<polygon fill="white" stroke="#666666" points="472,-653 306,-653 306,-623 472,-623 472,-653"/>
<text text-anchor="start" x="314" y="-641" font-family="Helvetica,sans-Serif" font-size="10.00">Realm::SingleXDQChannel</text>
<text text-anchor="middle" x="389" y="-630" font-family="Helvetica,sans-Serif" font-size="10.00">&lt; GPUChannel, GPUXferDes &gt;</text>
</a>
</g>
</g>
<!-- Node1&#45;&gt;Node5 -->
<g id="edge4_Node000001_Node000005" class="edge">
<title>Node1&#45;&gt;Node5</title>
<g id="a_edge4_Node000001_Node000005"><a xlink:title=" ">
<path fill="none" stroke="#63b8ff" d="M191.43,-369.98C194.85,-419.34 210.81,-547.88 285,-614 291.17,-619.5 298.35,-623.8 306,-627.17"/>
<polygon fill="#63b8ff" stroke="#63b8ff" points="194.91,-369.48 190.82,-359.7 187.92,-369.89 194.91,-369.48"/>
</a>
</g>
</g>
<!-- Node8 -->
<g id="Node000008" class="node">
<title>Node8</title>
<g id="a_Node000008"><a xlink:href="classRealm_1_1SingleXDQChannel.html" target="_top" xlink:title=" ">
<polygon fill="white" stroke="#666666" points="462,-604.5 316,-604.5 316,-563.5 462,-563.5 462,-604.5"/>
<text text-anchor="start" x="324" y="-592.5" font-family="Helvetica,sans-Serif" font-size="10.00">Realm::SingleXDQChannel</text>
<text text-anchor="start" x="324" y="-581.5" font-family="Helvetica,sans-Serif" font-size="10.00">&lt; GPUIndirectChannel,</text>
<text text-anchor="middle" x="389" y="-570.5" font-family="Helvetica,sans-Serif" font-size="10.00"> GPUIndirectXferDes &gt;</text>
</a>
</g>
</g>
<!-- Node1&#45;&gt;Node8 -->
<g id="edge7_Node000001_Node000008" class="edge">
<title>Node1&#45;&gt;Node8</title>
<g id="a_edge7_Node000001_Node000008"><a xlink:title=" ">
<path fill="none" stroke="#63b8ff" d="M194.01,-369.82C202.28,-410.54 226.84,-503.99 285,-554 293.9,-561.65 304.65,-567.35 315.81,-571.6"/>
<polygon fill="#63b8ff" stroke="#63b8ff" points="197.42,-368.98 192.1,-359.81 190.54,-370.29 197.42,-368.98"/>
</a>
</g>
</g>
<!-- Node10 -->
<g id="Node000010" class="node">
<title>Node10</title>
<g id="a_Node000010"><a xlink:href="classRealm_1_1SingleXDQChannel.html" target="_top" xlink:title=" ">
<polygon fill="white" stroke="#666666" points="484,-545 294,-545 294,-515 484,-515 484,-545"/>
<text text-anchor="start" x="302" y="-533" font-family="Helvetica,sans-Serif" font-size="10.00">Realm::SingleXDQChannel</text>
<text text-anchor="middle" x="389" y="-522" font-family="Helvetica,sans-Serif" font-size="10.00">&lt; GPUfillChannel, GPUfillXferDes &gt;</text>
</a>
</g>
</g>
<!-- Node1&#45;&gt;Node10 -->
<g id="edge9_Node000001_Node000010" class="edge">
<title>Node1&#45;&gt;Node10</title>
<g id="a_edge9_Node000001_Node000010"><a xlink:title=" ">
<path fill="none" stroke="#63b8ff" d="M196.64,-369.42C208.23,-402.81 236.64,-470.92 285,-506 289.76,-509.45 294.93,-512.41 300.35,-514.96"/>
<polygon fill="#63b8ff" stroke="#63b8ff" points="199.82,-367.9 193.34,-359.52 193.18,-370.11 199.82,-367.9"/>
</a>
</g>
</g>
<!-- Node13 -->
<g id="Node000013" class="node">
<title>Node13</title>
<g id="a_Node000013"><a xlink:href="classRealm_1_1SingleXDQChannel.html" target="_top" xlink:title=" ">
<polygon fill="white" stroke="#666666" points="480,-496.5 298,-496.5 298,-455.5 480,-455.5 480,-496.5"/>
<text text-anchor="start" x="306" y="-484.5" font-family="Helvetica,sans-Serif" font-size="10.00">Realm::SingleXDQChannel</text>
<text text-anchor="start" x="306" y="-473.5" font-family="Helvetica,sans-Serif" font-size="10.00">&lt; GPUreduceChannel, GPUreduce</text>
<text text-anchor="middle" x="389" y="-462.5" font-family="Helvetica,sans-Serif" font-size="10.00">XferDes &gt;</text>
</a>
</g>
</g>
<!-- Node1&#45;&gt;Node13 -->
<g id="edge12_Node000001_Node000013" class="edge">
<title>Node1&#45;&gt;Node13</title>
<g id="a_edge12_Node000001_Node000013"><a xlink:title=" ">
<path fill="none" stroke="#63b8ff" d="M203.37,-367.79C219.9,-389.39 250.59,-425.45 285,-446 290.92,-449.53 297.27,-452.67 303.82,-455.46"/>
<polygon fill="#63b8ff" stroke="#63b8ff" points="206.16,-365.69 197.37,-359.77 200.55,-369.88 206.16,-365.69"/>
</a>
</g>
</g>
<!-- Node16 -->
<g id="Node000016" class="node">
<title>Node16</title>
<g id="a_Node000016"><a xlink:href="classRealm_1_1SingleXDQChannel.html" target="_top" xlink:title=" ">
<polygon fill="white" stroke="#666666" points="472.5,-437 305.5,-437 305.5,-407 472.5,-407 472.5,-437"/>
<text text-anchor="start" x="313.5" y="-425" font-family="Helvetica,sans-Serif" font-size="10.00">Realm::SingleXDQChannel</text>
<text text-anchor="middle" x="389" y="-414" font-family="Helvetica,sans-Serif" font-size="10.00">&lt; DiskChannel, DiskXferDes &gt;</text>
</a>
</g>
</g>
<!-- Node1&#45;&gt;Node16 -->
<g id="edge15_Node000001_Node000016" class="edge">
<title>Node1&#45;&gt;Node16</title>
<g id="a_edge15_Node000001_Node000016"><a xlink:title=" ">
<path fill="none" stroke="#63b8ff" d="M215.08,-364.56C233.74,-375.1 260.3,-389 285,-398 294.14,-401.33 303.92,-404.31 313.66,-406.95"/>
<polygon fill="#63b8ff" stroke="#63b8ff" points="216.77,-361.5 206.35,-359.56 213.29,-367.57 216.77,-361.5"/>
</a>
</g>
</g>
<!-- Node18 -->
<g id="Node000018" class="node">
<title>Node18</title>
<g id="a_Node000018"><a xlink:href="classRealm_1_1SingleXDQChannel.html" target="_top" xlink:title=" ">
<polygon fill="white" stroke="#666666" points="468,-389 310,-389 310,-359 468,-359 468,-389"/>
<text text-anchor="start" x="318" y="-377" font-family="Helvetica,sans-Serif" font-size="10.00">Realm::SingleXDQChannel</text>
<text text-anchor="middle" x="389" y="-366" font-family="Helvetica,sans-Serif" font-size="10.00">&lt; FileChannel, FileXferDes &gt;</text>
</a>
</g>
</g>
<!-- Node1&#45;&gt;Node18 -->
<g id="edge17_Node000001_Node000018" class="edge">
<title>Node1&#45;&gt;Node18</title>
<g id="a_edge17_Node000001_Node000018"><a xlink:title=" ">
<path fill="none" stroke="#63b8ff" d="M259.21,-358.35C275.52,-360.33 293.04,-362.46 309.75,-364.49"/>
<polygon fill="#63b8ff" stroke="#63b8ff" points="259.57,-354.87 249.22,-357.14 258.73,-361.82 259.57,-354.87"/>
</a>
</g>
</g>
<!-- Node20 -->
<g id="Node000020" class="node">
<title>Node20</title>
<g id="a_Node000020"><a xlink:href="classRealm_1_1SingleXDQChannel.html" target="_top" xlink:title=" ">
<polygon fill="white" stroke="#666666" points="488.5,-341 289.5,-341 289.5,-311 488.5,-311 488.5,-341"/>
<text text-anchor="start" x="297.5" y="-329" font-family="Helvetica,sans-Serif" font-size="10.00">Realm::SingleXDQChannel</text>
<text text-anchor="middle" x="389" y="-318" font-family="Helvetica,sans-Serif" font-size="10.00">&lt; GASNetChannel, GASNetXferDes &gt;</text>
</a>
</g>
</g>
<!-- Node1&#45;&gt;Node20 -->
<g id="edge19_Node000001_Node000020" class="edge">
<title>Node1&#45;&gt;Node20</title>
<g id="a_edge19_Node000001_Node000020"><a xlink:title=" ">
<path fill="none" stroke="#63b8ff" d="M259.18,-341.65C268.89,-340.47 279.04,-339.24 289.19,-338.01"/>
<polygon fill="#63b8ff" stroke="#63b8ff" points="258.73,-338.18 249.22,-342.86 259.57,-345.13 258.73,-338.18"/>
</a>
</g>
</g>
<!-- Node22 -->
<g id="Node000022" class="node">
<title>Node22</title>
<g id="a_Node000022"><a xlink:href="classRealm_1_1SingleXDQChannel.html" target="_top" xlink:title=" ">
<polygon fill="white" stroke="#666666" points="478,-293 300,-293 300,-263 478,-263 478,-293"/>
<text text-anchor="start" x="308" y="-281" font-family="Helvetica,sans-Serif" font-size="10.00">Realm::SingleXDQChannel</text>
<text text-anchor="middle" x="389" y="-270" font-family="Helvetica,sans-Serif" font-size="10.00">&lt; HDF5Channel, HDF5XferDes &gt;</text>
</a>
</g>
</g>
<!-- Node1&#45;&gt;Node22 -->
<g id="edge21_Node000001_Node000022" class="edge">
<title>Node1&#45;&gt;Node22</title>
<g id="a_edge21_Node000001_Node000022"><a xlink:title=" ">
<path fill="none" stroke="#63b8ff" d="M215.08,-335.44C233.74,-324.9 260.3,-311 285,-302 294.14,-298.67 303.92,-295.69 313.66,-293.05"/>
<polygon fill="#63b8ff" stroke="#63b8ff" points="213.29,-332.43 206.35,-340.44 216.77,-338.5 213.29,-332.43"/>
</a>
</g>
</g>
<!-- Node24 -->
<g id="Node000024" class="node">
<title>Node24</title>
<g id="a_Node000024"><a xlink:href="classRealm_1_1SingleXDQChannel.html" target="_top" xlink:title=" ">
<polygon fill="white" stroke="#666666" points="493,-245 285,-245 285,-215 493,-215 493,-245"/>
<text text-anchor="start" x="293" y="-233" font-family="Helvetica,sans-Serif" font-size="10.00">Realm::SingleXDQChannel</text>
<text text-anchor="middle" x="389" y="-222" font-family="Helvetica,sans-Serif" font-size="10.00">&lt; MemcpyChannel, MemcpyXferDes &gt;</text>
</a>
</g>
</g>
<!-- Node1&#45;&gt;Node24 -->
<g id="edge23_Node000001_Node000024" class="edge">
<title>Node1&#45;&gt;Node24</title>
<g id="a_edge23_Node000001_Node000024"><a xlink:title=" ">
<path fill="none" stroke="#63b8ff" d="M202.94,-332.23C219.22,-310.36 249.86,-273.71 285,-254 291.17,-250.54 297.81,-247.58 304.64,-245.05"/>
<polygon fill="#63b8ff" stroke="#63b8ff" points="200.09,-330.2 197.05,-340.35 205.76,-334.31 200.09,-330.2"/>
</a>
</g>
</g>
<!-- Node26 -->
<g id="Node000026" class="node">
<title>Node26</title>
<g id="a_Node000026"><a xlink:href="classRealm_1_1SingleXDQChannel.html" target="_top" xlink:title=" ">
<polygon fill="white" stroke="#666666" points="487.5,-197 290.5,-197 290.5,-167 487.5,-167 487.5,-197"/>
<text text-anchor="start" x="298.5" y="-185" font-family="Helvetica,sans-Serif" font-size="10.00">Realm::SingleXDQChannel</text>
<text text-anchor="middle" x="389" y="-174" font-family="Helvetica,sans-Serif" font-size="10.00">&lt; MemfillChannel, MemfillXferDes &gt;</text>
</a>
</g>
</g>
<!-- Node1&#45;&gt;Node26 -->
<g id="edge25_Node000001_Node000026" class="edge">
<title>Node1&#45;&gt;Node26</title>
<g id="a_edge25_Node000001_Node000026"><a xlink:title=" ">
<path fill="none" stroke="#63b8ff" d="M197.59,-330.76C210.15,-299.47 239.38,-237.85 285,-206 289.97,-202.53 295.37,-199.56 301,-197.01"/>
<polygon fill="#63b8ff" stroke="#63b8ff" points="194.18,-329.88 193.84,-340.47 200.71,-332.4 194.18,-329.88"/>
</a>
</g>
</g>
<!-- Node28 -->
<g id="Node000028" class="node">
<title>Node28</title>
<g id="a_Node000028"><a xlink:href="classRealm_1_1SingleXDQChannel.html" target="_top" xlink:title=" ">
<polygon fill="white" stroke="#666666" points="483.5,-148.5 294.5,-148.5 294.5,-107.5 483.5,-107.5 483.5,-148.5"/>
<text text-anchor="start" x="302.5" y="-136.5" font-family="Helvetica,sans-Serif" font-size="10.00">Realm::SingleXDQChannel</text>
<text text-anchor="start" x="302.5" y="-125.5" font-family="Helvetica,sans-Serif" font-size="10.00">&lt; MemreduceChannel, Memreduce</text>
<text text-anchor="middle" x="389" y="-114.5" font-family="Helvetica,sans-Serif" font-size="10.00">XferDes &gt;</text>
</a>
</g>
</g>
<!-- Node1&#45;&gt;Node28 -->
<g id="edge27_Node000001_Node000028" class="edge">
<title>Node1&#45;&gt;Node28</title>
<g id="a_edge27_Node000001_Node000028"><a xlink:title=" ">
<path fill="none" stroke="#63b8ff" d="M194.62,-330.29C203.79,-291.4 229.58,-204.53 285,-158 289.14,-154.53 293.66,-151.46 298.42,-148.74"/>
<polygon fill="#63b8ff" stroke="#63b8ff" points="191.14,-329.8 192.38,-340.32 197.98,-331.32 191.14,-329.8"/>
</a>
</g>
</g>
<!-- Node30 -->
<g id="Node000030" class="node">
<title>Node30</title>
<g id="a_Node000030"><a xlink:href="classRealm_1_1SingleXDQChannel.html" target="_top" xlink:title=" ">
<polygon fill="white" stroke="#666666" points="462,-89.5 316,-89.5 316,-48.5 462,-48.5 462,-89.5"/>
<text text-anchor="start" x="324" y="-77.5" font-family="Helvetica,sans-Serif" font-size="10.00">Realm::SingleXDQChannel</text>
<text text-anchor="start" x="324" y="-66.5" font-family="Helvetica,sans-Serif" font-size="10.00">&lt; RemoteWriteChannel,</text>
<text text-anchor="middle" x="389" y="-55.5" font-family="Helvetica,sans-Serif" font-size="10.00"> RemoteWriteXferDes &gt;</text>
</a>
</g>
</g>
<!-- Node1&#45;&gt;Node30 -->
<g id="edge29_Node000001_Node000030" class="edge">
<title>Node1&#45;&gt;Node30</title>
<g id="a_edge29_Node000001_Node000030"><a xlink:title=" ">
<path fill="none" stroke="#63b8ff" d="M192.01,-330.17C196.7,-282.77 215.24,-162.11 285,-98 293.75,-89.95 304.57,-84.12 315.87,-79.89"/>
<polygon fill="#63b8ff" stroke="#63b8ff" points="188.51,-330.06 191.11,-340.32 195.48,-330.67 188.51,-330.06"/>
</a>
</g>
</g>
<!-- Node32 -->
<g id="Node000032" class="node">
<title>Node32</title>
<g id="a_Node000032"><a xlink:href="classRealm_1_1SingleXDQChannel.html" target="_top" xlink:title=" ">
<polygon fill="white" stroke="#666666" points="462,-30 316,-30 316,0 462,0 462,-30"/>
<text text-anchor="start" x="324" y="-18" font-family="Helvetica,sans-Serif" font-size="10.00">Realm::SingleXDQChannel</text>
<text text-anchor="middle" x="389" y="-7" font-family="Helvetica,sans-Serif" font-size="10.00">&lt; CHANNEL, XD &gt;</text>
</a>
</g>
</g>
<!-- Node1&#45;&gt;Node32 -->
<g id="edge31_Node000001_Node000032" class="edge">
<title>Node1&#45;&gt;Node32</title>
<g id="a_edge31_Node000001_Node000032"><a xlink:title=" ">
<path fill="none" stroke="#63b8ff" d="M190.18,-330.28C190.43,-275.37 199.04,-119.46 285,-39 293.65,-30.91 304.47,-25.37 315.84,-21.61"/>
<polygon fill="#63b8ff" stroke="#63b8ff" points="186.68,-330.42 190.23,-340.4 193.68,-330.39 186.68,-330.42"/>
</a>
</g>
</g>
<!-- Node2 -->
<g id="Node000002" class="node">
<title>Node2</title>
<g id="a_Node000002"><a xlink:href="classRealm_1_1Channel.html" target="_top" xlink:title=" ">
<polygon fill="white" stroke="#666666" points="94,-359.5 0,-359.5 0,-340.5 94,-340.5 94,-359.5"/>
<text text-anchor="middle" x="47" y="-347.5" font-family="Helvetica,sans-Serif" font-size="10.00">Realm::Channel</text>
</a>
</g>
</g>
<!-- Node2&#45;&gt;Node1 -->
<g id="edge1_Node000001_Node000002" class="edge">
<title>Node2&#45;&gt;Node1</title>
<g id="a_edge1_Node000001_Node000002"><a xlink:title=" ">
<path fill="none" stroke="#63b8ff" d="M104.14,-350C112.59,-350 121.33,-350 129.83,-350"/>
<polygon fill="#63b8ff" stroke="#63b8ff" points="104,-346.5 94,-350 104,-353.5 104,-346.5"/>
</a>
</g>
</g>
<!-- Node4 -->
<g id="Node000004" class="node">
<title>Node4</title>
<g id="a_Node000004"><a xlink:href="classRealm_1_1AddressSplitChannel.html" target="_top" xlink:title=" ">
<polygon fill="white" stroke="#666666" points="696,-720.5 541,-720.5 541,-701.5 696,-701.5 696,-720.5"/>
<text text-anchor="middle" x="618.5" y="-708.5" font-family="Helvetica,sans-Serif" font-size="10.00">Realm::AddressSplitChannel</text>
</a>
</g>
</g>
<!-- Node3&#45;&gt;Node4 -->
<g id="edge3_Node000003_Node000004" class="edge">
<title>Node3&#45;&gt;Node4</title>
<g id="a_edge3_Node000003_Node000004"><a xlink:title=" ">
<path fill="none" stroke="#63b8ff" d="M476.9,-705.44C497.92,-706.27 520.23,-707.15 540.74,-707.96"/>
<polygon fill="#63b8ff" stroke="#63b8ff" points="476.83,-701.93 466.7,-705.03 476.56,-708.93 476.83,-701.93"/>
</a>
</g>
</g>
<!-- Node6 -->
<g id="Node000006" class="node">
<title>Node6</title>
<g id="a_Node000006"><a xlink:href="classRealm_1_1Cuda_1_1GPUChannel.html" target="_top" xlink:title=" ">
<polygon fill="white" stroke="#666666" points="691.5,-683.5 545.5,-683.5 545.5,-664.5 691.5,-664.5 691.5,-683.5"/>
<text text-anchor="middle" x="618.5" y="-671.5" font-family="Helvetica,sans-Serif" font-size="10.00">Realm::Cuda::GPUChannel</text>
</a>
</g>
</g>
<!-- Node5&#45;&gt;Node6 -->
<g id="edge5_Node000005_Node000006" class="edge">
<title>Node5&#45;&gt;Node6</title>
<g id="a_edge5_Node000005_Node000006"><a xlink:title=" ">
<path fill="none" stroke="#63b8ff" d="M482.12,-652.58C507.44,-656.58 534.25,-660.83 557.26,-664.47"/>
<polygon fill="#63b8ff" stroke="#63b8ff" points="482.56,-649.1 472.13,-651 481.46,-656.02 482.56,-649.1"/>
</a>
</g>
</g>
<!-- Node7 -->
<g id="Node000007" class="node">
<title>Node7</title>
<g id="a_Node000007"><a xlink:href="classRealm_1_1Hip_1_1GPUChannel.html" target="_top" xlink:title=" ">
<polygon fill="white" stroke="#666666" points="687,-646.5 550,-646.5 550,-627.5 687,-627.5 687,-646.5"/>
<text text-anchor="middle" x="618.5" y="-634.5" font-family="Helvetica,sans-Serif" font-size="10.00">Realm::Hip::GPUChannel</text>
</a>
</g>
</g>
<!-- Node5&#45;&gt;Node7 -->
<g id="edge6_Node000005_Node000007" class="edge">
<title>Node5&#45;&gt;Node7</title>
<g id="a_edge6_Node000005_Node000007"><a xlink:title=" ">
<path fill="none" stroke="#63b8ff" d="M482.38,-637.59C504.9,-637.49 528.57,-637.39 549.7,-637.3"/>
<polygon fill="#63b8ff" stroke="#63b8ff" points="482.12,-634.09 472.13,-637.64 482.15,-641.09 482.12,-634.09"/>
</a>
</g>
</g>
<!-- Node9 -->
<g id="Node000009" class="node">
<title>Node9</title>
<g id="a_Node000009"><a xlink:href="classRealm_1_1Cuda_1_1GPUIndirectChannel.html" target="_top" xlink:title=" ">
<polygon fill="white" stroke="#666666" points="690,-609 547,-609 547,-579 690,-579 690,-609"/>
<text text-anchor="start" x="555" y="-597" font-family="Helvetica,sans-Serif" font-size="10.00">Realm::Cuda::GPUIndirect</text>
<text text-anchor="middle" x="618.5" y="-586" font-family="Helvetica,sans-Serif" font-size="10.00">Channel</text>
</a>
</g>
</g>
<!-- Node8&#45;&gt;Node9 -->
<g id="edge8_Node000008_Node000009" class="edge">
<title>Node8&#45;&gt;Node9</title>
<g id="a_edge8_Node000008_Node000009"><a xlink:title=" ">
<path fill="none" stroke="#63b8ff" d="M472.6,-587.63C496.97,-588.7 523.41,-589.86 546.95,-590.9"/>
<polygon fill="#63b8ff" stroke="#63b8ff" points="472.44,-584.12 462.3,-587.18 472.13,-591.11 472.44,-584.12"/>
</a>
</g>
</g>
<!-- Node11 -->
<g id="Node000011" class="node">
<title>Node11</title>
<g id="a_Node000011"><a xlink:href="classRealm_1_1Cuda_1_1GPUfillChannel.html" target="_top" xlink:title=" ">
<polygon fill="white" stroke="#666666" points="697.5,-560.5 539.5,-560.5 539.5,-541.5 697.5,-541.5 697.5,-560.5"/>
<text text-anchor="middle" x="618.5" y="-548.5" font-family="Helvetica,sans-Serif" font-size="10.00">Realm::Cuda::GPUfillChannel</text>
</a>
</g>
</g>
<!-- Node10&#45;&gt;Node11 -->
<g id="edge10_Node000010_Node000011" class="edge">
<title>Node10&#45;&gt;Node11</title>
<g id="a_edge10_Node000010_Node000011"><a xlink:title=" ">
<path fill="none" stroke="#63b8ff" d="M494.55,-539.65C509.6,-541.04 524.88,-542.45 539.3,-543.78"/>
<polygon fill="#63b8ff" stroke="#63b8ff" points="494.45,-536.13 484.18,-538.69 493.81,-543.1 494.45,-536.13"/>
</a>
</g>
</g>
<!-- Node12 -->
<g id="Node000012" class="node">
<title>Node12</title>
<g id="a_Node000012"><a xlink:href="classRealm_1_1Hip_1_1GPUfillChannel.html" target="_top" xlink:title=" ">
<polygon fill="white" stroke="#666666" points="693,-523.5 544,-523.5 544,-504.5 693,-504.5 693,-523.5"/>
<text text-anchor="middle" x="618.5" y="-511.5" font-family="Helvetica,sans-Serif" font-size="10.00">Realm::Hip::GPUfillChannel</text>
</a>
</g>
</g>
<!-- Node10&#45;&gt;Node12 -->
<g id="edge11_Node000010_Node000012" class="edge">
<title>Node10&#45;&gt;Node12</title>
<g id="a_edge11_Node000010_Node000012"><a xlink:title=" ">
<path fill="none" stroke="#63b8ff" d="M494.51,-522.65C511.18,-521.48 528.12,-520.29 543.88,-519.18"/>
<polygon fill="#63b8ff" stroke="#63b8ff" points="493.9,-519.18 484.18,-523.38 494.4,-526.17 493.9,-519.18"/>
</a>
</g>
</g>
<!-- Node14 -->
<g id="Node000014" class="node">
<title>Node14</title>
<g id="a_Node000014"><a xlink:href="classRealm_1_1Cuda_1_1GPUreduceChannel.html" target="_top" xlink:title=" ">
<polygon fill="white" stroke="#666666" points="708,-486.5 529,-486.5 529,-467.5 708,-467.5 708,-486.5"/>
<text text-anchor="middle" x="618.5" y="-474.5" font-family="Helvetica,sans-Serif" font-size="10.00">Realm::Cuda::GPUreduceChannel</text>
</a>
</g>
</g>
<!-- Node13&#45;&gt;Node14 -->
<g id="edge13_Node000013_Node000014" class="edge">
<title>Node13&#45;&gt;Node14</title>
<g id="a_edge13_Node000013_Node000014"><a xlink:title=" ">
<path fill="none" stroke="#63b8ff" d="M490.44,-476.44C503.24,-476.5 516.26,-476.56 528.85,-476.61"/>
<polygon fill="#63b8ff" stroke="#63b8ff" points="490.26,-472.94 480.24,-476.4 490.23,-479.94 490.26,-472.94"/>
</a>
</g>
</g>
<!-- Node15 -->
<g id="Node000015" class="node">
<title>Node15</title>
<g id="a_Node000015"><a xlink:href="classRealm_1_1Hip_1_1GPUreduceChannel.html" target="_top" xlink:title=" ">
<polygon fill="white" stroke="#666666" points="703.5,-449.5 533.5,-449.5 533.5,-430.5 703.5,-430.5 703.5,-449.5"/>
<text text-anchor="middle" x="618.5" y="-437.5" font-family="Helvetica,sans-Serif" font-size="10.00">Realm::Hip::GPUreduceChannel</text>
</a>
</g>
</g>
<!-- Node13&#45;&gt;Node15 -->
<g id="edge14_Node000013_Node000015" class="edge">
<title>Node13&#45;&gt;Node15</title>
<g id="a_edge14_Node000013_Node000015"><a xlink:title=" ">
<path fill="none" stroke="#63b8ff" d="M490.34,-460.12C513.23,-456.5 536.85,-452.76 557.42,-449.51"/>
<polygon fill="#63b8ff" stroke="#63b8ff" points="489.57,-456.7 480.24,-461.72 490.66,-463.61 489.57,-456.7"/>
</a>
</g>
</g>
<!-- Node17 -->
<g id="Node000017" class="node">
<title>Node17</title>
<g id="a_Node000017"><a xlink:href="classRealm_1_1DiskChannel.html" target="_top" xlink:title=" ">
<polygon fill="white" stroke="#666666" points="676.5,-412.5 560.5,-412.5 560.5,-393.5 676.5,-393.5 676.5,-412.5"/>
<text text-anchor="middle" x="618.5" y="-400.5" font-family="Helvetica,sans-Serif" font-size="10.00">Realm::DiskChannel</text>
</a>
</g>
</g>
<!-- Node16&#45;&gt;Node17 -->
<g id="edge16_Node000016_Node000017" class="edge">
<title>Node16&#45;&gt;Node17</title>
<g id="a_edge16_Node000016_Node000017"><a xlink:title=" ">
<path fill="none" stroke="#63b8ff" d="M482.76,-414.25C509.05,-412.06 536.89,-409.73 560.4,-407.77"/>
<polygon fill="#63b8ff" stroke="#63b8ff" points="482.45,-410.77 472.78,-415.09 483.03,-417.74 482.45,-410.77"/>
</a>
</g>
</g>
<!-- Node19 -->
<g id="Node000019" class="node">
<title>Node19</title>
<g id="a_Node000019"><a xlink:href="classRealm_1_1FileChannel.html" target="_top" xlink:title=" ">
<polygon fill="white" stroke="#666666" points="674,-375.5 563,-375.5 563,-356.5 674,-356.5 674,-375.5"/>
<text text-anchor="middle" x="618.5" y="-363.5" font-family="Helvetica,sans-Serif" font-size="10.00">Realm::FileChannel</text>
</a>
</g>
</g>
<!-- Node18&#45;&gt;Node19 -->
<g id="edge18_Node000018_Node000019" class="edge">
<title>Node18&#45;&gt;Node19</title>
<g id="a_edge18_Node000018_Node000019"><a xlink:title=" ">
<path fill="none" stroke="#63b8ff" d="M478.63,-370.88C506.98,-369.89 537.53,-368.81 562.73,-367.93"/>
<polygon fill="#63b8ff" stroke="#63b8ff" points="478.16,-367.4 468.29,-371.25 478.41,-374.39 478.16,-367.4"/>
</a>
</g>
</g>
<!-- Node21 -->
<g id="Node000021" class="node">
<title>Node21</title>
<g id="a_Node000021"><a xlink:href="classRealm_1_1GASNetChannel.html" target="_top" xlink:title=" ">
<polygon fill="white" stroke="#666666" points="684,-335.5 553,-335.5 553,-316.5 684,-316.5 684,-335.5"/>
<text text-anchor="middle" x="618.5" y="-323.5" font-family="Helvetica,sans-Serif" font-size="10.00">Realm::GASNetChannel</text>
</a>
</g>
</g>
<!-- Node20&#45;&gt;Node21 -->
<g id="edge20_Node000020_Node000021" class="edge">
<title>Node20&#45;&gt;Node21</title>
<g id="a_edge20_Node000020_Node000021"><a xlink:title=" ">
<path fill="none" stroke="#63b8ff" d="M499.01,-326C517.45,-326 536.06,-326 552.89,-326"/>
<polygon fill="#63b8ff" stroke="#63b8ff" points="498.79,-322.5 488.79,-326 498.79,-329.5 498.79,-322.5"/>
</a>
</g>
</g>
<!-- Node23 -->
<g id="Node000023" class="node">
<title>Node23</title>
<g id="a_Node000023"><a xlink:href="classRealm_1_1HDF5_1_1HDF5Channel.html" target="_top" xlink:title=" ">
<polygon fill="white" stroke="#666666" points="695.5,-287.5 541.5,-287.5 541.5,-268.5 695.5,-268.5 695.5,-287.5"/>
<text text-anchor="middle" x="618.5" y="-275.5" font-family="Helvetica,sans-Serif" font-size="10.00">Realm::HDF5::HDF5Channel</text>
</a>
</g>
</g>
<!-- Node22&#45;&gt;Node23 -->
<g id="edge22_Node000022_Node000023" class="edge">
<title>Node22&#45;&gt;Node23</title>
<g id="a_edge22_Node000022_Node000023"><a xlink:title=" ">
<path fill="none" stroke="#63b8ff" d="M488.63,-278C506.33,-278 524.53,-278 541.47,-278"/>
<polygon fill="#63b8ff" stroke="#63b8ff" points="488.28,-274.5 478.28,-278 488.28,-281.5 488.28,-274.5"/>
</a>
</g>
</g>
<!-- Node25 -->
<g id="Node000025" class="node">
<title>Node25</title>
<g id="a_Node000025"><a xlink:href="classRealm_1_1MemcpyChannel.html" target="_top" xlink:title=" ">
<polygon fill="white" stroke="#666666" points="686.5,-239.5 550.5,-239.5 550.5,-220.5 686.5,-220.5 686.5,-239.5"/>
<text text-anchor="middle" x="618.5" y="-227.5" font-family="Helvetica,sans-Serif" font-size="10.00">Realm::MemcpyChannel</text>
</a>
</g>
</g>
<!-- Node24&#45;&gt;Node25 -->
<g id="edge24_Node000024_Node000025" class="edge">
<title>Node24&#45;&gt;Node25</title>
<g id="a_edge24_Node000024_Node000025"><a xlink:title=" ">
<path fill="none" stroke="#63b8ff" d="M503.13,-230C519.25,-230 535.4,-230 550.26,-230"/>
<polygon fill="#63b8ff" stroke="#63b8ff" points="503.1,-226.5 493.1,-230 503.1,-233.5 503.1,-226.5"/>
</a>
</g>
</g>
<!-- Node27 -->
<g id="Node000027" class="node">
<title>Node27</title>
<g id="a_Node000027"><a xlink:href="classRealm_1_1MemfillChannel.html" target="_top" xlink:title=" ">
<polygon fill="white" stroke="#666666" points="684,-191.5 553,-191.5 553,-172.5 684,-172.5 684,-191.5"/>
<text text-anchor="middle" x="618.5" y="-179.5" font-family="Helvetica,sans-Serif" font-size="10.00">Realm::MemfillChannel</text>
</a>
</g>
</g>
<!-- Node26&#45;&gt;Node27 -->
<g id="edge26_Node000026_Node000027" class="edge">
<title>Node26&#45;&gt;Node27</title>
<g id="a_edge26_Node000026_Node000027"><a xlink:title=" ">
<path fill="none" stroke="#63b8ff" d="M497.92,-182C516.74,-182 535.78,-182 552.96,-182"/>
<polygon fill="#63b8ff" stroke="#63b8ff" points="497.8,-178.5 487.8,-182 497.8,-185.5 497.8,-178.5"/>
</a>
</g>
</g>
<!-- Node29 -->
<g id="Node000029" class="node">
<title>Node29</title>
<g id="a_Node000029"><a xlink:href="classRealm_1_1MemreduceChannel.html" target="_top" xlink:title=" ">
<polygon fill="white" stroke="#666666" points="694.5,-137.5 542.5,-137.5 542.5,-118.5 694.5,-118.5 694.5,-137.5"/>
<text text-anchor="middle" x="618.5" y="-125.5" font-family="Helvetica,sans-Serif" font-size="10.00">Realm::MemreduceChannel</text>
</a>
</g>
</g>
<!-- Node28&#45;&gt;Node29 -->
<g id="edge28_Node000028_Node000029" class="edge">
<title>Node28&#45;&gt;Node29</title>
<g id="a_edge28_Node000028_Node000029"><a xlink:title=" ">
<path fill="none" stroke="#63b8ff" d="M493.69,-128C510.1,-128 526.8,-128 542.4,-128"/>
<polygon fill="#63b8ff" stroke="#63b8ff" points="493.52,-124.5 483.52,-128 493.52,-131.5 493.52,-124.5"/>
</a>
</g>
</g>
<!-- Node31 -->
<g id="Node000031" class="node">
<title>Node31</title>
<g id="a_Node000031"><a xlink:href="classRealm_1_1RemoteWriteChannel.html" target="_top" xlink:title=" ">
<polygon fill="white" stroke="#666666" points="697.5,-78.5 539.5,-78.5 539.5,-59.5 697.5,-59.5 697.5,-78.5"/>
<text text-anchor="middle" x="618.5" y="-66.5" font-family="Helvetica,sans-Serif" font-size="10.00">Realm::RemoteWriteChannel</text>
</a>
</g>
</g>
<!-- Node30&#45;&gt;Node31 -->
<g id="edge30_Node000030_Node000031" class="edge">
<title>Node30&#45;&gt;Node31</title>
<g id="a_edge30_Node000030_Node000031"><a xlink:title=" ">
<path fill="none" stroke="#63b8ff" d="M472.53,-69C494.38,-69 517.89,-69 539.49,-69"/>
<polygon fill="#63b8ff" stroke="#63b8ff" points="472.3,-65.5 462.3,-69 472.29,-72.5 472.3,-65.5"/>
</a>
</g>
</g>
</g>
</svg>
