<?xml version="1.0" encoding="UTF-8" standalone="no"?>
<!DOCTYPE svg PUBLIC "-//W3C//DTD SVG 1.1//EN"
 "http://www.w3.org/Graphics/SVG/1.1/DTD/svg11.dtd">
<!-- Generated by graphviz version 2.43.0 (0)
 -->
<!-- Title: Realm::TransferDesc Pages: 1 -->
<svg width="1171pt" height="317pt"
 viewBox="0.00 0.00 1171.00 317.00" xmlns="http://www.w3.org/2000/svg" xmlns:xlink="http://www.w3.org/1999/xlink">
<g id="graph0" class="graph" transform="scale(1 1) rotate(0) translate(4 313)">
<title>Realm::TransferDesc</title>
<!-- Node1 -->
<g id="Node000001" class="node">
<title>Node1</title>
<g id="a_Node000001"><a xlink:title=" ">
<polygon fill="#999999" stroke="#666666" points="900,-170.5 783,-170.5 783,-151.5 900,-151.5 900,-170.5"/>
<text text-anchor="middle" x="841.5" y="-158.5" font-family="Helvetica,sans-Serif" font-size="10.00">Realm::TransferDesc</text>
</a>
</g>
</g>
<!-- Node3 -->
<g id="Node000003" class="node">
<title>Node3</title>
<g id="a_Node000003"><a xlink:href="classRealm_1_1TransferDesc_1_1DeferredAnalysis.html" target="_top" xlink:title=" ">
<polygon fill="white" stroke="#666666" points="1153.5,-211 1036.5,-211 1036.5,-181 1153.5,-181 1153.5,-211"/>
<text text-anchor="start" x="1044.5" y="-199" font-family="Helvetica,sans-Serif" font-size="10.00">Realm::TransferDesc</text>
<text text-anchor="middle" x="1095" y="-188" font-family="Helvetica,sans-Serif" font-size="10.00">::DeferredAnalysis</text>
</a>
</g>
</g>
<!-- Node1&#45;&gt;Node3 -->
<g id="edge6_Node000003_Node000001" class="edge">
<title>Node1&#45;&gt;Node3</title>
<g id="a_edge6_Node000003_Node000001"><a xlink:title=" ">
<path fill="none" stroke="#9a32cd" stroke-dasharray="5,2" d="M910.24,-170.43C949.57,-175.9 998.61,-182.73 1036.13,-187.95"/>
<polygon fill="#9a32cd" stroke="#9a32cd" points="910.59,-166.94 900.2,-169.03 909.62,-173.87 910.59,-166.94"/>
</a>
</g>
<text text-anchor="middle" x="963.5" y="-186" font-family="Helvetica,sans-Serif" font-size="10.00" fill="grey"> desc</text>
</g>
<!-- Node2 -->
<g id="Node000002" class="node">
<title>Node2</title>
<g id="a_Node000002"><a xlink:href="classRealm_1_1atomic.html" target="_top" xlink:title=" ">
<polygon fill="white" stroke="#666666" points="630,-300.5 507,-300.5 507,-281.5 630,-281.5 630,-300.5"/>
<text text-anchor="middle" x="568.5" y="-288.5" font-family="Helvetica,sans-Serif" font-size="10.00">Realm::atomic&lt; int &gt;</text>
</a>
</g>
</g>
<!-- Node2&#45;&gt;Node1 -->
<g id="edge1_Node000001_Node000002" class="edge">
<title>Node2&#45;&gt;Node1</title>
<g id="a_edge1_Node000001_Node000002"><a xlink:title=" ">
<path fill="none" stroke="#9a32cd" stroke-dasharray="5,2" d="M640.38,-299.8C681.52,-300.88 731.64,-294.7 765,-265 789.32,-243.35 763.32,-219.93 783,-194 790.93,-183.55 803.2,-175.86 814.37,-170.55"/>
<polygon fill="#9a32cd" stroke="#9a32cd" points="640.26,-296.29 630.12,-299.38 639.97,-303.29 640.26,-296.29"/>
</a>
</g>
<text text-anchor="middle" x="717.5" y="-301" font-family="Helvetica,sans-Serif" font-size="10.00" fill="grey"> refcount</text>
</g>
<!-- Node3&#45;&gt;Node1 -->
<g id="edge2_Node000001_Node000003" class="edge">
<title>Node3&#45;&gt;Node1</title>
<g id="a_edge2_Node000001_Node000003"><a xlink:title=" ">
<path fill="none" stroke="#9a32cd" stroke-dasharray="5,2" d="M1066.82,-174.95C1050.92,-163.98 1029.91,-151.69 1009,-146 963.49,-133.61 908.67,-142.99 874.7,-151.5"/>
<polygon fill="#9a32cd" stroke="#9a32cd" points="1064.92,-177.89 1075.09,-180.85 1068.99,-172.19 1064.92,-177.89"/>
</a>
</g>
<text text-anchor="middle" x="963.5" y="-149" font-family="Helvetica,sans-Serif" font-size="10.00" fill="grey"> deferred_analysis</text>
</g>
<!-- Node4 -->
<g id="Node000004" class="node">
<title>Node4</title>
<g id="a_Node000004"><a xlink:href="classRealm_1_1EventWaiter.html" target="_top" xlink:title=" ">
<polygon fill="white" stroke="#666666" points="898,-287.5 785,-287.5 785,-268.5 898,-268.5 898,-287.5"/>
<text text-anchor="middle" x="841.5" y="-275.5" font-family="Helvetica,sans-Serif" font-size="10.00">Realm::EventWaiter</text>
</a>
</g>
</g>
<!-- Node4&#45;&gt;Node3 -->
<g id="edge3_Node000003_Node000004" class="edge">
<title>Node4&#45;&gt;Node3</title>
<g id="a_edge3_Node000003_Node000004"><a xlink:title=" ">
<path fill="none" stroke="#63b8ff" d="M882.82,-265.46C888.59,-263.64 894.45,-261.78 900,-260 951.15,-243.56 1009.71,-224.16 1048.98,-211.07"/>
<polygon fill="#63b8ff" stroke="#63b8ff" points="881.76,-262.13 873.26,-268.46 883.85,-268.81 881.76,-262.13"/>
</a>
</g>
</g>
<!-- Node5 -->
<g id="Node000005" class="node">
<title>Node5</title>
<g id="a_Node000005"><a xlink:href="structRealm_1_1IntrusiveListLink.html" target="_top" xlink:title=" ">
<polygon fill="white" stroke="#666666" points="1163,-309 1027,-309 1027,-279 1163,-279 1163,-309"/>
<text text-anchor="start" x="1035" y="-297" font-family="Helvetica,sans-Serif" font-size="10.00">Realm::IntrusiveListLink</text>
<text text-anchor="middle" x="1095" y="-286" font-family="Helvetica,sans-Serif" font-size="10.00">&lt; Realm::EventWaiter &gt;</text>
</a>
</g>
</g>
<!-- Node4&#45;&gt;Node5 -->
<g id="edge5_Node000005_Node000004" class="edge">
<title>Node4&#45;&gt;Node5</title>
<g id="a_edge5_Node000005_Node000004"><a xlink:title=" ">
<path fill="none" stroke="#9a32cd" stroke-dasharray="5,2" d="M908.13,-288.03C911.46,-288.39 914.77,-288.72 918,-289 953.78,-292.1 993.8,-293.41 1026.62,-293.92"/>
<polygon fill="#9a32cd" stroke="#9a32cd" points="908.42,-284.54 898.08,-286.84 907.6,-291.49 908.42,-284.54"/>
</a>
</g>
<text text-anchor="middle" x="963.5" y="-296" font-family="Helvetica,sans-Serif" font-size="10.00" fill="grey"> next</text>
</g>
<!-- Node5&#45;&gt;Node4 -->
<g id="edge4_Node000004_Node000005" class="edge">
<title>Node5&#45;&gt;Node4</title>
<g id="a_edge4_Node000004_Node000005"><a xlink:title=" ">
<path fill="none" stroke="#9a32cd" stroke-dasharray="5,2" d="M1016.75,-278.83C1014.14,-278.52 1011.55,-278.24 1009,-278 972.16,-274.56 930.53,-274.56 898.12,-275.42"/>
<polygon fill="#9a32cd" stroke="#9a32cd" points="1016.51,-282.32 1026.89,-280.17 1017.43,-275.39 1016.51,-282.32"/>
</a>
</g>
<text text-anchor="middle" x="963.5" y="-281" font-family="Helvetica,sans-Serif" font-size="10.00" fill="grey"> ew_list_link</text>
</g>
<!-- Node6 -->
<g id="Node000006" class="node">
<title>Node6</title>
<g id="a_Node000006"><a xlink:href="classRealm_1_1Event.html" target="_top" xlink:title=" ">
<polygon fill="white" stroke="#666666" points="882.5,-221.5 800.5,-221.5 800.5,-202.5 882.5,-202.5 882.5,-221.5"/>
<text text-anchor="middle" x="841.5" y="-209.5" font-family="Helvetica,sans-Serif" font-size="10.00">Realm::Event</text>
</a>
</g>
</g>
<!-- Node6&#45;&gt;Node3 -->
<g id="edge7_Node000003_Node000006" class="edge">
<title>Node6&#45;&gt;Node3</title>
<g id="a_edge7_Node000003_Node000006"><a xlink:title=" ">
<path fill="none" stroke="#9a32cd" stroke-dasharray="5,2" d="M892.76,-208.8C934.16,-206.17 992.89,-202.43 1036.22,-199.68"/>
<polygon fill="#9a32cd" stroke="#9a32cd" points="892.39,-205.32 882.63,-209.45 892.83,-212.31 892.39,-205.32"/>
</a>
</g>
<text text-anchor="middle" x="963.5" y="-209" font-family="Helvetica,sans-Serif" font-size="10.00" fill="grey"> precondition</text>
</g>
<!-- Node6&#45;&gt;Node6 -->
<g id="edge8_Node000006_Node000006" class="edge">
<title>Node6&#45;&gt;Node6</title>
<g id="a_edge8_Node000006_Node000006"><a xlink:title=" ">
<path fill="none" stroke="#9a32cd" stroke-dasharray="5,2" d="M818.91,-231.05C820.42,-235.88 827.95,-239.5 841.5,-239.5 863.18,-239.5 869.45,-230.23 860.3,-221.58"/>
<polygon fill="#9a32cd" stroke="#9a32cd" points="822.23,-232.17 822.7,-221.58 815.73,-229.57 822.23,-232.17"/>
</a>
</g>
<text text-anchor="middle" x="841.5" y="-242.5" font-family="Helvetica,sans-Serif" font-size="10.00" fill="grey"> NO_EVENT</text>
</g>
<!-- Node7 -->
<g id="Node000007" class="node">
<title>Node7</title>
<g id="a_Node000007"><a xlink:href="classRealm_1_1TransferDomain.html" target="_top" xlink:title=" ">
<polygon fill="white" stroke="#666666" points="634,-263.5 503,-263.5 503,-244.5 634,-244.5 634,-263.5"/>
<text text-anchor="middle" x="568.5" y="-251.5" font-family="Helvetica,sans-Serif" font-size="10.00">Realm::TransferDomain</text>
</a>
</g>
</g>
<!-- Node7&#45;&gt;Node1 -->
<g id="edge9_Node000001_Node000007" class="edge">
<title>Node7&#45;&gt;Node1</title>
<g id="a_edge9_Node000001_Node000007"><a xlink:title=" ">
<path fill="none" stroke="#9a32cd" stroke-dasharray="5,2" d="M644.34,-253.74C682.92,-250.5 729.24,-241.52 765,-219 776.59,-211.7 772.83,-203.17 783,-194 793.68,-184.36 807.64,-176.27 819.13,-170.51"/>
<polygon fill="#9a32cd" stroke="#9a32cd" points="643.92,-250.26 634.2,-254.48 644.42,-257.24 643.92,-250.26"/>
</a>
</g>
<text text-anchor="middle" x="717.5" y="-253" font-family="Helvetica,sans-Serif" font-size="10.00" fill="grey"> domain</text>
</g>
<!-- Node8 -->
<g id="Node000008" class="node">
<title>Node8</title>
<g id="a_Node000008"><a xlink:href="classRealm_1_1ProfilingRequestSet.html" target="_top" xlink:title=" ">
<polygon fill="white" stroke="#666666" points="643,-226.5 494,-226.5 494,-207.5 643,-207.5 643,-226.5"/>
<text text-anchor="middle" x="568.5" y="-214.5" font-family="Helvetica,sans-Serif" font-size="10.00">Realm::ProfilingRequestSet</text>
</a>
</g>
</g>
<!-- Node8&#45;&gt;Node1 -->
<g id="edge10_Node000001_Node000008" class="edge">
<title>Node8&#45;&gt;Node1</title>
<g id="a_edge10_Node000001_Node000008"><a xlink:title=" ">
<path fill="none" stroke="#9a32cd" stroke-dasharray="5,2" d="M653.57,-207.46C688.34,-202.65 728.89,-195.91 765,-187 782.5,-182.68 801.69,-176.04 816.35,-170.56"/>
<polygon fill="#9a32cd" stroke="#9a32cd" points="652.9,-204.02 643.46,-208.83 653.84,-210.96 652.9,-204.02"/>
</a>
</g>
<text text-anchor="middle" x="717.5" y="-207" font-family="Helvetica,sans-Serif" font-size="10.00" fill="grey"> prs</text>
</g>
<!-- Node9 -->
<g id="Node000009" class="node">
<title>Node9</title>
<g id="a_Node000009"><a xlink:href="classRealm_1_1UnfairMutex.html" target="_top" xlink:title=" ">
<polygon fill="white" stroke="#666666" points="626,-189.5 511,-189.5 511,-170.5 626,-170.5 626,-189.5"/>
<text text-anchor="middle" x="568.5" y="-177.5" font-family="Helvetica,sans-Serif" font-size="10.00">Realm::UnfairMutex</text>
</a>
</g>
</g>
<!-- Node9&#45;&gt;Node1 -->
<g id="edge11_Node000001_Node000009" class="edge">
<title>Node9&#45;&gt;Node1</title>
<g id="a_edge11_Node000001_Node000009"><a xlink:title=" ">
<path fill="none" stroke="#9a32cd" stroke-dasharray="5,2" d="M636.55,-175.3C681.47,-172.15 740,-168.05 782.83,-165.04"/>
<polygon fill="#9a32cd" stroke="#9a32cd" points="636.04,-171.83 626.31,-176.02 636.53,-178.81 636.04,-171.83"/>
</a>
</g>
<text text-anchor="middle" x="717.5" y="-175" font-family="Helvetica,sans-Serif" font-size="10.00" fill="grey"> mutex</text>
</g>
<!-- Node10 -->
<g id="Node000010" class="node">
<title>Node10</title>
<g id="a_Node000010"><a xlink:href="classRealm_1_1noncopyable.html" target="_top" xlink:title=" ">
<polygon fill="white" stroke="#666666" points="396,-226.5 280,-226.5 280,-207.5 396,-207.5 396,-226.5"/>
<text text-anchor="middle" x="338" y="-214.5" font-family="Helvetica,sans-Serif" font-size="10.00">Realm::noncopyable</text>
</a>
</g>
</g>
<!-- Node10&#45;&gt;Node9 -->
<g id="edge12_Node000009_Node000010" class="edge">
<title>Node10&#45;&gt;Node9</title>
<g id="a_edge12_Node000009_Node000010"><a xlink:title=" ">
<path fill="none" stroke="#63b8ff" d="M406.16,-206.12C439.39,-200.74 479.07,-194.32 510.76,-189.19"/>
<polygon fill="#63b8ff" stroke="#63b8ff" points="405.38,-202.71 396.07,-207.76 406.5,-209.62 405.38,-202.71"/>
</a>
</g>
</g>
<!-- Node11 -->
<g id="Node000011" class="node">
<title>Node11</title>
<g id="a_Node000011"><a xlink:href="classRealm_1_1atomic.html" target="_top" xlink:title=" ">
<polygon fill="white" stroke="#666666" points="413,-189.5 263,-189.5 263,-170.5 413,-170.5 413,-189.5"/>
<text text-anchor="middle" x="338" y="-177.5" font-family="Helvetica,sans-Serif" font-size="10.00">Realm::atomic&lt; uint32_t &gt;</text>
</a>
</g>
</g>
<!-- Node11&#45;&gt;Node9 -->
<g id="edge13_Node000009_Node000011" class="edge">
<title>Node11&#45;&gt;Node9</title>
<g id="a_edge13_Node000009_Node000011"><a xlink:title=" ">
<path fill="none" stroke="#9a32cd" stroke-dasharray="5,2" d="M423.35,-180C452.45,-180 484.33,-180 510.69,-180"/>
<polygon fill="#9a32cd" stroke="#9a32cd" points="423.19,-176.5 413.19,-180 423.19,-183.5 423.19,-176.5"/>
</a>
</g>
<text text-anchor="middle" x="449" y="-183" font-family="Helvetica,sans-Serif" font-size="10.00" fill="grey"> state</text>
</g>
<!-- Node12 -->
<g id="Node000012" class="node">
<title>Node12</title>
<g id="a_Node000012"><a xlink:href="classRealm_1_1DoorbellList.html" target="_top" xlink:title=" ">
<polygon fill="white" stroke="#666666" points="394.5,-152.5 281.5,-152.5 281.5,-133.5 394.5,-133.5 394.5,-152.5"/>
<text text-anchor="middle" x="338" y="-140.5" font-family="Helvetica,sans-Serif" font-size="10.00">Realm::DoorbellList</text>
</a>
</g>
</g>
<!-- Node12&#45;&gt;Node9 -->
<g id="edge14_Node000009_Node000012" class="edge">
<title>Node12&#45;&gt;Node9</title>
<g id="a_edge14_Node000009_Node000012"><a xlink:title=" ">
<path fill="none" stroke="#9a32cd" stroke-dasharray="5,2" d="M404.78,-153.65C438.32,-159.08 478.7,-165.62 510.85,-170.83"/>
<polygon fill="#9a32cd" stroke="#9a32cd" points="405.04,-150.15 394.61,-152 403.92,-157.06 405.04,-150.15"/>
</a>
</g>
<text text-anchor="middle" x="449" y="-166" font-family="Helvetica,sans-Serif" font-size="10.00" fill="grey"> db_list</text>
</g>
<!-- Node13 -->
<g id="Node000013" class="node">
<title>Node13</title>
<g id="a_Node000013"><a xlink:href="classRealm_1_1atomic.html" target="_top" xlink:title=" ">
<polygon fill="white" stroke="#666666" points="152,-152.5 0,-152.5 0,-133.5 152,-133.5 152,-152.5"/>
<text text-anchor="middle" x="76" y="-140.5" font-family="Helvetica,sans-Serif" font-size="10.00">Realm::atomic&lt; uintptr_t &gt;</text>
</a>
</g>
</g>
<!-- Node13&#45;&gt;Node12 -->
<g id="edge15_Node000012_Node000013" class="edge">
<title>Node13&#45;&gt;Node12</title>
<g id="a_edge15_Node000012_Node000013"><a xlink:title=" ">
<path fill="none" stroke="#9a32cd" stroke-dasharray="5,2" d="M162.52,-143C201.61,-143 246.79,-143 281.38,-143"/>
<polygon fill="#9a32cd" stroke="#9a32cd" points="162.2,-139.5 152.2,-143 162.2,-146.5 162.2,-139.5"/>
</a>
</g>
<text text-anchor="middle" x="207.5" y="-146" font-family="Helvetica,sans-Serif" font-size="10.00" fill="grey"> head_or_count</text>
</g>
<!-- Node14 -->
<g id="Node000014" class="node">
<title>Node14</title>
<g id="a_Node000014"><a xlink:href="classRealm_1_1atomic.html" target="_top" xlink:title=" ">
<polygon fill="white" stroke="#666666" points="634,-152.5 503,-152.5 503,-133.5 634,-133.5 634,-152.5"/>
<text text-anchor="middle" x="568.5" y="-140.5" font-family="Helvetica,sans-Serif" font-size="10.00">Realm::atomic&lt; bool &gt;</text>
</a>
</g>
</g>
<!-- Node14&#45;&gt;Node1 -->
<g id="edge16_Node000001_Node000014" class="edge">
<title>Node14&#45;&gt;Node1</title>
<g id="a_edge16_Node000001_Node000014"><a xlink:title=" ">
<path fill="none" stroke="#9a32cd" stroke-dasharray="5,2" d="M644.46,-140.99C680.93,-140.81 725.35,-141.79 765,-146 776.3,-147.2 788.41,-149.26 799.56,-151.47"/>
<polygon fill="#9a32cd" stroke="#9a32cd" points="644.37,-137.49 634.4,-141.07 644.43,-144.49 644.37,-137.49"/>
</a>
</g>
<text text-anchor="middle" x="717.5" y="-149" font-family="Helvetica,sans-Serif" font-size="10.00" fill="grey"> analysis_complete</text>
</g>
<!-- Node15 -->
<g id="Node000015" class="node">
<title>Node15</title>
<g id="a_Node000015"><a xlink:href="structRealm_1_1TransferGraph.html" target="_top" xlink:title=" ">
<polygon fill="white" stroke="#666666" points="629.5,-115.5 507.5,-115.5 507.5,-96.5 629.5,-96.5 629.5,-115.5"/>
<text text-anchor="middle" x="568.5" y="-103.5" font-family="Helvetica,sans-Serif" font-size="10.00">Realm::TransferGraph</text>
</a>
</g>
</g>
<!-- Node15&#45;&gt;Node1 -->
<g id="edge17_Node000001_Node000015" class="edge">
<title>Node15&#45;&gt;Node1</title>
<g id="a_edge17_Node000001_Node000015"><a xlink:title=" ">
<path fill="none" stroke="#9a32cd" stroke-dasharray="5,2" d="M640.26,-107.59C677.87,-109.84 724.55,-114.89 765,-126 786.32,-131.85 809.12,-143.21 824.02,-151.4"/>
<polygon fill="#9a32cd" stroke="#9a32cd" points="640.08,-104.08 629.91,-107.03 639.7,-111.06 640.08,-104.08"/>
</a>
</g>
<text text-anchor="middle" x="717.5" y="-129" font-family="Helvetica,sans-Serif" font-size="10.00" fill="grey"> graph</text>
</g>
<!-- Node16 -->
<g id="Node000016" class="node">
<title>Node16</title>
<g id="a_Node000016"><a xlink:href="structRealm_1_1ProfilingMeasurements_1_1OperationMemoryUsage.html" target="_top" xlink:title=" ">
<polygon fill="white" stroke="#666666" points="652,-78 485,-78 485,-48 652,-48 652,-78"/>
<text text-anchor="start" x="493" y="-66" font-family="Helvetica,sans-Serif" font-size="10.00">Realm::ProfilingMeasurements</text>
<text text-anchor="middle" x="568.5" y="-55" font-family="Helvetica,sans-Serif" font-size="10.00">::OperationMemoryUsage</text>
</a>
</g>
</g>
<!-- Node16&#45;&gt;Node1 -->
<g id="edge18_Node000001_Node000016" class="edge">
<title>Node16&#45;&gt;Node1</title>
<g id="a_edge18_Node000001_Node000016"><a xlink:title=" ">
<path fill="none" stroke="#9a32cd" stroke-dasharray="5,2" d="M662.67,-67.64C696.15,-72.01 733.42,-80.12 765,-95 793.66,-108.5 819.73,-136.17 832.41,-151.03"/>
<polygon fill="#9a32cd" stroke="#9a32cd" points="662.75,-64.13 652.41,-66.4 661.91,-71.07 662.75,-64.13"/>
</a>
</g>
<text text-anchor="middle" x="717.5" y="-98" font-family="Helvetica,sans-Serif" font-size="10.00" fill="grey"> prof_usage</text>
</g>
<!-- Node17 -->
<g id="Node000017" class="node">
<title>Node17</title>
<g id="a_Node000017"><a xlink:href="classRealm_1_1Memory.html" target="_top" xlink:title=" ">
<polygon fill="white" stroke="#666666" points="385.5,-72.5 290.5,-72.5 290.5,-53.5 385.5,-53.5 385.5,-72.5"/>
<text text-anchor="middle" x="338" y="-60.5" font-family="Helvetica,sans-Serif" font-size="10.00">Realm::Memory</text>
</a>
</g>
</g>
<!-- Node17&#45;&gt;Node16 -->
<g id="edge19_Node000016_Node000017" class="edge">
<title>Node17&#45;&gt;Node16</title>
<g id="a_edge19_Node000016_Node000017"><a xlink:title=" ">
<path fill="none" stroke="#9a32cd" stroke-dasharray="5,2" d="M395.55,-63C422.52,-63 455.31,-63 484.99,-63"/>
<polygon fill="#9a32cd" stroke="#9a32cd" points="395.52,-59.5 385.52,-63 395.52,-66.5 395.52,-59.5"/>
</a>
</g>
<text text-anchor="middle" x="449" y="-77" font-family="Helvetica,sans-Serif" font-size="10.00" fill="grey"> source</text>
<text text-anchor="middle" x="449" y="-66" font-family="Helvetica,sans-Serif" font-size="10.00" fill="grey">target</text>
</g>
<!-- Node17&#45;&gt;Node17 -->
<g id="edge20_Node000017_Node000017" class="edge">
<title>Node17&#45;&gt;Node17</title>
<g id="a_edge20_Node000017_Node000017"><a xlink:title=" ">
<path fill="none" stroke="#9a32cd" stroke-dasharray="5,2" d="M317.63,-82.05C318.99,-86.88 325.78,-90.5 338,-90.5 357.55,-90.5 363.2,-81.23 354.95,-72.58"/>
<polygon fill="#9a32cd" stroke="#9a32cd" points="320.95,-83.18 321.05,-72.58 314.36,-80.8 320.95,-83.18"/>
</a>
</g>
<text text-anchor="middle" x="338" y="-93.5" font-family="Helvetica,sans-Serif" font-size="10.00" fill="grey"> NO_MEMORY</text>
</g>
<!-- Node18 -->
<g id="Node000018" class="node">
<title>Node18</title>
<g id="a_Node000018"><a xlink:href="structRealm_1_1ProfilingMeasurements_1_1OperationCopyInfo.html" target="_top" xlink:title=" ">
<polygon fill="white" stroke="#666666" points="652,-30 485,-30 485,0 652,0 652,-30"/>
<text text-anchor="start" x="493" y="-18" font-family="Helvetica,sans-Serif" font-size="10.00">Realm::ProfilingMeasurements</text>
<text text-anchor="middle" x="568.5" y="-7" font-family="Helvetica,sans-Serif" font-size="10.00">::OperationCopyInfo</text>
</a>
</g>
</g>
<!-- Node18&#45;&gt;Node1 -->
<g id="edge21_Node000001_Node000018" class="edge">
<title>Node18&#45;&gt;Node1</title>
<g id="a_edge21_Node000001_Node000018"><a xlink:title=" ">
<path fill="none" stroke="#9a32cd" stroke-dasharray="5,2" d="M662.32,-18.53C696.78,-23.42 734.79,-33.36 765,-53 803.36,-77.93 827.87,-129.83 836.75,-151.34"/>
<polygon fill="#9a32cd" stroke="#9a32cd" points="662.6,-15.03 652.23,-17.22 661.7,-21.97 662.6,-15.03"/>
</a>
</g>
<text text-anchor="middle" x="717.5" y="-56" font-family="Helvetica,sans-Serif" font-size="10.00" fill="grey"> prof_cpinfo</text>
</g>
</g>
</svg>
