<?xml version="1.0" encoding="UTF-8" standalone="no"?>
<!DOCTYPE svg PUBLIC "-//W3C//DTD SVG 1.1//EN"
 "http://www.w3.org/Graphics/SVG/1.1/DTD/svg11.dtd">
<!-- Generated by graphviz version 2.43.0 (0)
 -->
<!-- Title: Realm::QueryPredicate&lt; T, T2 &gt; Pages: 1 -->
<svg width="389pt" height="146pt"
 viewBox="0.00 0.00 389.00 145.50" xmlns="http://www.w3.org/2000/svg" xmlns:xlink="http://www.w3.org/1999/xlink">
<g id="graph0" class="graph" transform="scale(1 1) rotate(0) translate(4 141.5)">
<title>Realm::QueryPredicate&lt; T, T2 &gt;</title>
<!-- Node1 -->
<g id="Node000001" class="node">
<title>Node1</title>
<g id="a_Node000001"><a xlink:title=" ">
<polygon fill="#999999" stroke="#666666" points="129,-89.5 0,-89.5 0,-59.5 129,-59.5 129,-89.5"/>
<text text-anchor="start" x="8" y="-77.5" font-family="Helvetica,sans-Serif" font-size="10.00">Realm::QueryPredicate</text>
<text text-anchor="middle" x="64.5" y="-66.5" font-family="Helvetica,sans-Serif" font-size="10.00">&lt; T, T2 &gt;</text>
</a>
</g>
</g>
<!-- Node2 -->
<g id="Node000002" class="node">
<title>Node2</title>
<g id="a_Node000002"><a xlink:href="classRealm_1_1MemoryHasMemAffinityPredicate.html" target="_top" xlink:title=" ">
<polygon fill="white" stroke="#666666" points="381,-137.5 165,-137.5 165,-107.5 381,-107.5 381,-137.5"/>
<text text-anchor="start" x="173" y="-125.5" font-family="Helvetica,sans-Serif" font-size="10.00">Realm::MemoryHasMemAffinity</text>
<text text-anchor="middle" x="273" y="-114.5" font-family="Helvetica,sans-Serif" font-size="10.00">Predicate&lt; Memory, MachineMemInfo &gt;</text>
</a>
</g>
</g>
<!-- Node1&#45;&gt;Node2 -->
<g id="edge1_Node000001_Node000002" class="edge">
<title>Node1&#45;&gt;Node2</title>
<g id="a_edge1_Node000001_Node000002"><a xlink:title=" ">
<path fill="none" stroke="#63b8ff" d="M136.83,-91.85C146.3,-94.11 155.88,-96.38 165,-98.5 177.7,-101.46 191.27,-104.55 204.32,-107.49"/>
<polygon fill="#63b8ff" stroke="#63b8ff" points="137.57,-88.43 127.03,-89.51 135.94,-95.24 137.57,-88.43"/>
</a>
</g>
</g>
<!-- Node3 -->
<g id="Node000003" class="node">
<title>Node3</title>
<g id="a_Node000003"><a xlink:href="classRealm_1_1MemoryHasProcAffinityPredicate.html" target="_top" xlink:title=" ">
<polygon fill="white" stroke="#666666" points="381,-89.5 165,-89.5 165,-59.5 381,-59.5 381,-89.5"/>
<text text-anchor="start" x="173" y="-77.5" font-family="Helvetica,sans-Serif" font-size="10.00">Realm::MemoryHasProcAffinity</text>
<text text-anchor="middle" x="273" y="-66.5" font-family="Helvetica,sans-Serif" font-size="10.00">Predicate&lt; Memory, MachineMemInfo &gt;</text>
</a>
</g>
</g>
<!-- Node1&#45;&gt;Node3 -->
<g id="edge2_Node000001_Node000003" class="edge">
<title>Node1&#45;&gt;Node3</title>
<g id="a_edge2_Node000001_Node000003"><a xlink:title=" ">
<path fill="none" stroke="#63b8ff" d="M139.18,-74.5C147.54,-74.5 156.18,-74.5 164.86,-74.5"/>
<polygon fill="#63b8ff" stroke="#63b8ff" points="139.14,-71 129.14,-74.5 139.14,-78 139.14,-71"/>
</a>
</g>
</g>
<!-- Node4 -->
<g id="Node000004" class="node">
<title>Node4</title>
<g id="a_Node000004"><a xlink:href="classRealm_1_1ProcessorHasAffinityPredicate.html" target="_top" xlink:title=" ">
<polygon fill="white" stroke="#666666" points="367.5,-41 178.5,-41 178.5,0 367.5,0 367.5,-41"/>
<text text-anchor="start" x="186.5" y="-29" font-family="Helvetica,sans-Serif" font-size="10.00">Realm::ProcessorHasAffinity</text>
<text text-anchor="start" x="186.5" y="-18" font-family="Helvetica,sans-Serif" font-size="10.00">Predicate&lt; Processor, MachineProc</text>
<text text-anchor="middle" x="273" y="-7" font-family="Helvetica,sans-Serif" font-size="10.00">Info &gt;</text>
</a>
</g>
</g>
<!-- Node1&#45;&gt;Node4 -->
<g id="edge3_Node000001_Node000004" class="edge">
<title>Node1&#45;&gt;Node4</title>
<g id="a_edge3_Node000001_Node000004"><a xlink:title=" ">
<path fill="none" stroke="#63b8ff" d="M132.96,-56.86C152.32,-51.8 173.6,-46.23 193.57,-41.01"/>
<polygon fill="#63b8ff" stroke="#63b8ff" points="131.81,-53.54 123.02,-59.46 133.58,-60.31 131.81,-53.54"/>
</a>
</g>
</g>
</g>
</svg>
