<?xml version="1.0" encoding="UTF-8" standalone="no"?>
<!DOCTYPE svg PUBLIC "-//W3C//DTD SVG 1.1//EN"
 "http://www.w3.org/Graphics/SVG/1.1/DTD/svg11.dtd">
<!-- Generated by graphviz version 2.43.0 (0)
 -->
<!-- Title: QuiescenceChecker Pages: 1 -->
<svg width="443pt" height="291pt"
 viewBox="0.00 0.00 443.00 291.00" xmlns="http://www.w3.org/2000/svg" xmlns:xlink="http://www.w3.org/1999/xlink">
<g id="graph0" class="graph" transform="scale(1 1) rotate(0) translate(4 287)">
<title>QuiescenceChecker</title>
<!-- Node1 -->
<g id="Node000001" class="node">
<title>Node1</title>
<g id="a_Node000001"><a xlink:title=" ">
<polygon fill="#999999" stroke="#666666" points="265,-19 153,-19 153,0 265,0 265,-19"/>
<text text-anchor="middle" x="209" y="-7" font-family="Helvetica,sans-Serif" font-size="10.00">QuiescenceChecker</text>
</a>
</g>
</g>
<!-- Node2 -->
<g id="Node000002" class="node">
<title>Node2</title>
<g id="a_Node000002"><a xlink:href="classRealm_1_1UnfairCondVar.html" target="_top" xlink:title=" ">
<polygon fill="white" stroke="#666666" points="271.5,-85 146.5,-85 146.5,-66 271.5,-66 271.5,-85"/>
<text text-anchor="middle" x="209" y="-73" font-family="Helvetica,sans-Serif" font-size="10.00">Realm::UnfairCondVar</text>
</a>
</g>
</g>
<!-- Node2&#45;&gt;Node1 -->
<g id="edge1_Node000001_Node000002" class="edge">
<title>Node2&#45;&gt;Node1</title>
<g id="a_edge1_Node000001_Node000002"><a xlink:title=" ">
<path fill="none" stroke="#9a32cd" stroke-dasharray="5,2" d="M209,-55.58C209,-43.63 209,-28.72 209,-19.41"/>
<polygon fill="#9a32cd" stroke="#9a32cd" points="205.5,-55.87 209,-65.87 212.5,-55.87 205.5,-55.87"/>
</a>
</g>
<text text-anchor="middle" x="230.5" y="-40" font-family="Helvetica,sans-Serif" font-size="10.00" fill="grey"> condvar</text>
</g>
<!-- Node3 -->
<g id="Node000003" class="node">
<title>Node3</title>
<g id="a_Node000003"><a xlink:href="classRealm_1_1noncopyable.html" target="_top" xlink:title=" ">
<polygon fill="white" stroke="#666666" points="116,-217 0,-217 0,-198 116,-198 116,-217"/>
<text text-anchor="middle" x="58" y="-205" font-family="Helvetica,sans-Serif" font-size="10.00">Realm::noncopyable</text>
</a>
</g>
</g>
<!-- Node3&#45;&gt;Node2 -->
<g id="edge2_Node000002_Node000003" class="edge">
<title>Node3&#45;&gt;Node2</title>
<g id="a_edge2_Node000002_Node000003"><a xlink:title=" ">
<path fill="none" stroke="#63b8ff" d="M75.45,-191.02C92.57,-175.88 119.46,-152.21 143,-132 162.54,-115.23 185.62,-95.94 198.66,-85.09"/>
<polygon fill="#63b8ff" stroke="#63b8ff" points="73.05,-188.47 67.89,-197.72 77.69,-193.71 73.05,-188.47"/>
</a>
</g>
</g>
<!-- Node4 -->
<g id="Node000004" class="node">
<title>Node4</title>
<g id="a_Node000004"><a xlink:href="classRealm_1_1UnfairMutex.html" target="_top" xlink:title=" ">
<polygon fill="white" stroke="#666666" points="266.5,-151 151.5,-151 151.5,-132 266.5,-132 266.5,-151"/>
<text text-anchor="middle" x="209" y="-139" font-family="Helvetica,sans-Serif" font-size="10.00">Realm::UnfairMutex</text>
</a>
</g>
</g>
<!-- Node3&#45;&gt;Node4 -->
<g id="edge4_Node000004_Node000003" class="edge">
<title>Node3&#45;&gt;Node4</title>
<g id="a_edge4_Node000004_Node000003"><a xlink:title=" ">
<path fill="none" stroke="#63b8ff" d="M87.83,-193.86C117.58,-181.25 162.51,-162.21 188.48,-151.2"/>
<polygon fill="#63b8ff" stroke="#63b8ff" points="86.21,-190.74 78.36,-197.87 88.94,-197.19 86.21,-190.74"/>
</a>
</g>
</g>
<!-- Node4&#45;&gt;Node2 -->
<g id="edge3_Node000002_Node000004" class="edge">
<title>Node4&#45;&gt;Node2</title>
<g id="a_edge3_Node000002_Node000004"><a xlink:title=" ">
<path fill="none" stroke="#9a32cd" stroke-dasharray="5,2" d="M209,-121.58C209,-109.63 209,-94.72 209,-85.41"/>
<polygon fill="#9a32cd" stroke="#9a32cd" points="205.5,-121.87 209,-131.87 212.5,-121.87 205.5,-121.87"/>
</a>
</g>
<text text-anchor="middle" x="226.5" y="-106" font-family="Helvetica,sans-Serif" font-size="10.00" fill="grey"> mutex</text>
</g>
<!-- Node5 -->
<g id="Node000005" class="node">
<title>Node5</title>
<g id="a_Node000005"><a xlink:href="classRealm_1_1atomic.html" target="_top" xlink:title=" ">
<polygon fill="white" stroke="#666666" points="284,-217 134,-217 134,-198 284,-198 284,-217"/>
<text text-anchor="middle" x="209" y="-205" font-family="Helvetica,sans-Serif" font-size="10.00">Realm::atomic&lt; uint32_t &gt;</text>
</a>
</g>
</g>
<!-- Node5&#45;&gt;Node4 -->
<g id="edge5_Node000004_Node000005" class="edge">
<title>Node5&#45;&gt;Node4</title>
<g id="a_edge5_Node000004_Node000005"><a xlink:title=" ">
<path fill="none" stroke="#9a32cd" stroke-dasharray="5,2" d="M209,-187.58C209,-175.63 209,-160.72 209,-151.41"/>
<polygon fill="#9a32cd" stroke="#9a32cd" points="205.5,-187.87 209,-197.87 212.5,-187.87 205.5,-187.87"/>
</a>
</g>
<text text-anchor="middle" x="223" y="-172" font-family="Helvetica,sans-Serif" font-size="10.00" fill="grey"> state</text>
</g>
<!-- Node6 -->
<g id="Node000006" class="node">
<title>Node6</title>
<g id="a_Node000006"><a xlink:href="classRealm_1_1DoorbellList.html" target="_top" xlink:title=" ">
<polygon fill="white" stroke="#666666" points="415.5,-217 302.5,-217 302.5,-198 415.5,-198 415.5,-217"/>
<text text-anchor="middle" x="359" y="-205" font-family="Helvetica,sans-Serif" font-size="10.00">Realm::DoorbellList</text>
</a>
</g>
</g>
<!-- Node6&#45;&gt;Node2 -->
<g id="edge8_Node000002_Node000006" class="edge">
<title>Node6&#45;&gt;Node2</title>
<g id="a_edge8_Node000002_Node000006"><a xlink:title=" ">
<path fill="none" stroke="#9a32cd" stroke-dasharray="5,2" d="M348.28,-189.52C343.66,-182.8 337.96,-175.21 332,-169 297.42,-132.94 247.73,-100.2 223.45,-85.18"/>
<polygon fill="#9a32cd" stroke="#9a32cd" points="345.4,-191.51 353.82,-197.94 351.25,-187.66 345.4,-191.51"/>
</a>
</g>
<text text-anchor="middle" x="329" y="-139" font-family="Helvetica,sans-Serif" font-size="10.00" fill="grey"> db_list</text>
</g>
<!-- Node6&#45;&gt;Node4 -->
<g id="edge6_Node000004_Node000006" class="edge">
<title>Node6&#45;&gt;Node4</title>
<g id="a_edge6_Node000004_Node000006"><a xlink:title=" ">
<path fill="none" stroke="#9a32cd" stroke-dasharray="5,2" d="M329.37,-193.86C299.81,-181.25 255.19,-162.21 229.39,-151.2"/>
<polygon fill="#9a32cd" stroke="#9a32cd" points="328.2,-197.16 338.77,-197.87 330.95,-190.73 328.2,-197.16"/>
</a>
</g>
<text text-anchor="middle" x="310" y="-172" font-family="Helvetica,sans-Serif" font-size="10.00" fill="grey"> db_list</text>
</g>
<!-- Node7 -->
<g id="Node000007" class="node">
<title>Node7</title>
<g id="a_Node000007"><a xlink:href="classRealm_1_1atomic.html" target="_top" xlink:title=" ">
<polygon fill="white" stroke="#666666" points="435,-283 283,-283 283,-264 435,-264 435,-283"/>
<text text-anchor="middle" x="359" y="-271" font-family="Helvetica,sans-Serif" font-size="10.00">Realm::atomic&lt; uintptr_t &gt;</text>
</a>
</g>
</g>
<!-- Node7&#45;&gt;Node6 -->
<g id="edge7_Node000006_Node000007" class="edge">
<title>Node7&#45;&gt;Node6</title>
<g id="a_edge7_Node000006_Node000007"><a xlink:title=" ">
<path fill="none" stroke="#9a32cd" stroke-dasharray="5,2" d="M359,-253.58C359,-241.63 359,-226.72 359,-217.41"/>
<polygon fill="#9a32cd" stroke="#9a32cd" points="355.5,-253.87 359,-263.87 362.5,-253.87 355.5,-253.87"/>
</a>
</g>
<text text-anchor="middle" x="396.5" y="-238" font-family="Helvetica,sans-Serif" font-size="10.00" fill="grey"> head_or_count</text>
</g>
</g>
</svg>
