<?xml version="1.0" encoding="UTF-8" standalone="no"?>
<!DOCTYPE svg PUBLIC "-//W3C//DTD SVG 1.1//EN"
 "http://www.w3.org/Graphics/SVG/1.1/DTD/svg11.dtd">
<!-- Generated by graphviz version 2.43.0 (0)
 -->
<!-- Title: Realm::OutbufManager Pages: 1 -->
<svg width="1710pt" height="360pt"
 viewBox="0.00 0.00 1710.00 359.50" xmlns="http://www.w3.org/2000/svg" xmlns:xlink="http://www.w3.org/1999/xlink">
<g id="graph0" class="graph" transform="scale(1 1) rotate(0) translate(4 355.5)">
<title>Realm::OutbufManager</title>
<!-- Node1 -->
<g id="Node000001" class="node">
<title>Node1</title>
<g id="a_Node000001"><a xlink:title=" ">
<polygon fill="#999999" stroke="#666666" points="1434.5,-170 1304.5,-170 1304.5,-151 1434.5,-151 1434.5,-170"/>
<text text-anchor="middle" x="1369.5" y="-158" font-family="Helvetica,sans-Serif" font-size="10.00">Realm::OutbufManager</text>
</a>
</g>
</g>
<!-- Node15 -->
<g id="Node000015" class="node">
<title>Node15</title>
<g id="a_Node000015"><a xlink:href="classRealm_1_1OutbufMetadata.html" target="_top" xlink:title=" ">
<polygon fill="white" stroke="#666666" points="1702,-161 1568,-161 1568,-142 1702,-142 1702,-161"/>
<text text-anchor="middle" x="1635" y="-149" font-family="Helvetica,sans-Serif" font-size="10.00">Realm::OutbufMetadata</text>
</a>
</g>
</g>
<!-- Node1&#45;&gt;Node15 -->
<g id="edge18_Node000015_Node000001" class="edge">
<title>Node1&#45;&gt;Node15</title>
<g id="a_edge18_Node000015_Node000001"><a xlink:title=" ">
<path fill="none" stroke="#9a32cd" stroke-dasharray="5,2" d="M1392.45,-175.57C1410.29,-186.85 1436.58,-201.35 1462,-207.5 1500.02,-216.69 1512.57,-218.83 1550,-207.5 1579.86,-198.46 1608.81,-174.92 1623.67,-161.41"/>
<polygon fill="#9a32cd" stroke="#9a32cd" points="1394.23,-172.56 1383.95,-170.03 1390.41,-178.42 1394.23,-172.56"/>
</a>
</g>
<text text-anchor="middle" x="1506" y="-217.5" font-family="Helvetica,sans-Serif" font-size="10.00" fill="grey"> manager</text>
</g>
<!-- Node2 -->
<g id="Node000002" class="node">
<title>Node2</title>
<g id="a_Node000002"><a xlink:href="classRealm_1_1BackgroundWorkItem.html" target="_top" xlink:title=" ">
<polygon fill="white" stroke="#666666" points="1258,-170 1099,-170 1099,-151 1258,-151 1258,-170"/>
<text text-anchor="middle" x="1178.5" y="-158" font-family="Helvetica,sans-Serif" font-size="10.00">Realm::BackgroundWorkItem</text>
</a>
</g>
</g>
<!-- Node2&#45;&gt;Node1 -->
<g id="edge1_Node000001_Node000002" class="edge">
<title>Node2&#45;&gt;Node1</title>
<g id="a_edge1_Node000001_Node000002"><a xlink:title=" ">
<path fill="none" stroke="#63b8ff" d="M1268.19,-160.5C1280.37,-160.5 1292.68,-160.5 1304.31,-160.5"/>
<polygon fill="#63b8ff" stroke="#63b8ff" points="1268.01,-157 1258.01,-160.5 1268.01,-164 1268.01,-157"/>
</a>
</g>
</g>
<!-- Node3 -->
<g id="Node000003" class="node">
<title>Node3</title>
<g id="a_Node000003"><a xlink:href="classRealm_1_1BackgroundWorkManager.html" target="_top" xlink:title=" ">
<polygon fill="white" stroke="#666666" points="1002,-170 823,-170 823,-151 1002,-151 1002,-170"/>
<text text-anchor="middle" x="912.5" y="-158" font-family="Helvetica,sans-Serif" font-size="10.00">Realm::BackgroundWorkManager</text>
</a>
</g>
</g>
<!-- Node2&#45;&gt;Node3 -->
<g id="edge12_Node000003_Node000002" class="edge">
<title>Node2&#45;&gt;Node3</title>
<g id="a_edge12_Node000003_Node000002"><a xlink:title=" ">
<path fill="none" stroke="#9a32cd" stroke-dasharray="5,2" d="M1088.71,-160.5C1060.81,-160.5 1030.03,-160.5 1002.14,-160.5"/>
<polygon fill="#9a32cd" stroke="#9a32cd" points="1088.84,-164 1098.84,-160.5 1088.84,-157 1088.84,-164"/>
</a>
</g>
<text text-anchor="middle" x="1050.5" y="-163.5" font-family="Helvetica,sans-Serif" font-size="10.00" fill="grey"> work_items</text>
</g>
<!-- Node3&#45;&gt;Node2 -->
<g id="edge2_Node000002_Node000003" class="edge">
<title>Node3&#45;&gt;Node2</title>
<g id="a_edge2_Node000002_Node000003"><a xlink:title=" ">
<path fill="none" stroke="#9a32cd" stroke-dasharray="5,2" d="M976.6,-149.43C990.83,-147.38 1005.9,-145.55 1020,-144.5 1047.04,-142.48 1053.98,-142.28 1081,-144.5 1096.91,-145.81 1114.15,-148.32 1129.59,-150.96"/>
<polygon fill="#9a32cd" stroke="#9a32cd" points="975.78,-146.02 966.41,-150.96 976.82,-152.94 975.78,-146.02"/>
</a>
</g>
<text text-anchor="middle" x="1050.5" y="-147.5" font-family="Helvetica,sans-Serif" font-size="10.00" fill="grey"> manager</text>
</g>
<!-- Node4 -->
<g id="Node000004" class="node">
<title>Node4</title>
<g id="a_Node000004"><a xlink:href="structRealm_1_1BackgroundWorkManager_1_1Config.html" target="_top" xlink:title=" ">
<polygon fill="white" stroke="#666666" points="664,-67.5 485,-67.5 485,-37.5 664,-37.5 664,-67.5"/>
<text text-anchor="start" x="493" y="-55.5" font-family="Helvetica,sans-Serif" font-size="10.00">Realm::BackgroundWorkManager</text>
<text text-anchor="middle" x="574.5" y="-44.5" font-family="Helvetica,sans-Serif" font-size="10.00">::Config</text>
</a>
</g>
</g>
<!-- Node4&#45;&gt;Node3 -->
<g id="edge3_Node000003_Node000004" class="edge">
<title>Node4&#45;&gt;Node3</title>
<g id="a_edge3_Node000003_Node000004"><a xlink:title=" ">
<path fill="none" stroke="#9a32cd" stroke-dasharray="5,2" d="M674.14,-58.42C725.12,-62.52 781.48,-68.98 805,-78.5 846.53,-95.3 885.67,-133.03 902.65,-150.84"/>
<polygon fill="#9a32cd" stroke="#9a32cd" points="674.27,-54.92 664.03,-57.63 673.73,-61.9 674.27,-54.92"/>
</a>
</g>
<text text-anchor="middle" x="743.5" y="-81.5" font-family="Helvetica,sans-Serif" font-size="10.00" fill="grey"> cfg</text>
</g>
<!-- Node5 -->
<g id="Node000005" class="node">
<title>Node5</title>
<g id="a_Node000005"><a xlink:href="classRealm_1_1UnfairMutex.html" target="_top" xlink:title=" ">
<polygon fill="white" stroke="#666666" points="632,-19 517,-19 517,0 632,0 632,-19"/>
<text text-anchor="middle" x="574.5" y="-7" font-family="Helvetica,sans-Serif" font-size="10.00">Realm::UnfairMutex</text>
</a>
</g>
</g>
<!-- Node5&#45;&gt;Node1 -->
<g id="edge23_Node000001_Node000005" class="edge">
<title>Node5&#45;&gt;Node1</title>
<g id="a_edge23_Node000001_Node000005"><a xlink:title=" ">
<path fill="none" stroke="#9a32cd" stroke-dasharray="5,2" d="M642.52,-10.46C688.46,-11.88 750.69,-15.31 805,-23.5 858.07,-31.51 1213.74,-121.24 1331.05,-150.98"/>
<polygon fill="#9a32cd" stroke="#9a32cd" points="642.48,-6.95 632.38,-10.17 642.28,-13.95 642.48,-6.95"/>
</a>
</g>
<text text-anchor="middle" x="1050.5" y="-91.5" font-family="Helvetica,sans-Serif" font-size="10.00" fill="grey"> mutex</text>
</g>
<!-- Node5&#45;&gt;Node3 -->
<g id="edge4_Node000003_Node000005" class="edge">
<title>Node5&#45;&gt;Node3</title>
<g id="a_edge4_Node000003_Node000005"><a xlink:title=" ">
<path fill="none" stroke="#9a32cd" stroke-dasharray="5,2" d="M642.29,-17.4C704.84,-25.16 790.79,-36.92 805,-44.5 853.98,-70.6 892.25,-128.25 905.99,-151"/>
<polygon fill="#9a32cd" stroke="#9a32cd" points="642.43,-13.89 632.07,-16.14 641.57,-20.84 642.43,-13.89"/>
</a>
</g>
<text text-anchor="middle" x="743.5" y="-47.5" font-family="Helvetica,sans-Serif" font-size="10.00" fill="grey"> mutex</text>
</g>
<!-- Node6 -->
<g id="Node000006" class="node">
<title>Node6</title>
<g id="a_Node000006"><a xlink:href="classRealm_1_1noncopyable.html" target="_top" xlink:title=" ">
<polygon fill="white" stroke="#666666" points="396,-19 280,-19 280,0 396,0 396,-19"/>
<text text-anchor="middle" x="338" y="-7" font-family="Helvetica,sans-Serif" font-size="10.00">Realm::noncopyable</text>
</a>
</g>
</g>
<!-- Node6&#45;&gt;Node5 -->
<g id="edge5_Node000005_Node000006" class="edge">
<title>Node6&#45;&gt;Node5</title>
<g id="a_edge5_Node000005_Node000006"><a xlink:title=" ">
<path fill="none" stroke="#63b8ff" d="M406.21,-9.5C441.26,-9.5 483.65,-9.5 516.99,-9.5"/>
<polygon fill="#63b8ff" stroke="#63b8ff" points="406.07,-6 396.07,-9.5 406.07,-13 406.07,-6"/>
</a>
</g>
</g>
<!-- Node7 -->
<g id="Node000007" class="node">
<title>Node7</title>
<g id="a_Node000007"><a xlink:href="classRealm_1_1atomic.html" target="_top" xlink:title=" ">
<polygon fill="white" stroke="#666666" points="413,-85 263,-85 263,-66 413,-66 413,-85"/>
<text text-anchor="middle" x="338" y="-73" font-family="Helvetica,sans-Serif" font-size="10.00">Realm::atomic&lt; uint32_t &gt;</text>
</a>
</g>
</g>
<!-- Node7&#45;&gt;Node3 -->
<g id="edge13_Node000003_Node000007" class="edge">
<title>Node7&#45;&gt;Node3</title>
<g id="a_edge13_Node000003_Node000007"><a xlink:title=" ">
<path fill="none" stroke="#9a32cd" stroke-dasharray="5,2" d="M408.93,-86.5C416.37,-87.57 423.84,-88.59 431,-89.5 534.27,-102.67 560.85,-99.42 664,-113.5 726.98,-122.09 742.58,-125.45 805,-137.5 826.27,-141.6 849.81,-146.64 869.35,-150.95"/>
<polygon fill="#9a32cd" stroke="#9a32cd" points="409.22,-83.01 398.82,-85.03 408.21,-89.94 409.22,-83.01"/>
</a>
</g>
<text text-anchor="middle" x="574.5" y="-116.5" font-family="Helvetica,sans-Serif" font-size="10.00" fill="grey"> worker_state</text>
</g>
<!-- Node7&#45;&gt;Node5 -->
<g id="edge6_Node000005_Node000007" class="edge">
<title>Node7&#45;&gt;Node5</title>
<g id="a_edge6_Node000005_Node000007"><a xlink:title=" ">
<path fill="none" stroke="#9a32cd" stroke-dasharray="5,2" d="M375.15,-62.49C404.47,-52.27 447.03,-38.19 485,-28.5 498.1,-25.16 512.38,-21.92 525.58,-19.09"/>
<polygon fill="#9a32cd" stroke="#9a32cd" points="373.63,-59.31 365.35,-65.93 375.95,-65.92 373.63,-59.31"/>
</a>
</g>
<text text-anchor="middle" x="449" y="-47.5" font-family="Helvetica,sans-Serif" font-size="10.00" fill="grey"> state</text>
</g>
<!-- Node8 -->
<g id="Node000008" class="node">
<title>Node8</title>
<g id="a_Node000008"><a xlink:href="classRealm_1_1DoorbellList.html" target="_top" xlink:title=" ">
<polygon fill="white" stroke="#666666" points="394.5,-179 281.5,-179 281.5,-160 394.5,-160 394.5,-179"/>
<text text-anchor="middle" x="338" y="-167" font-family="Helvetica,sans-Serif" font-size="10.00">Realm::DoorbellList</text>
</a>
</g>
</g>
<!-- Node8&#45;&gt;Node3 -->
<g id="edge16_Node000003_Node000008" class="edge">
<title>Node8&#45;&gt;Node3</title>
<g id="a_edge16_Node000003_Node000008"><a xlink:title=" ">
<path fill="none" stroke="#9a32cd" stroke-dasharray="5,2" d="M386.56,-181.4C414.93,-187.88 451.79,-195.23 485,-198.5 626.62,-212.43 664.58,-210.6 805,-187.5 830.41,-183.32 858.64,-176.04 879.64,-170.09"/>
<polygon fill="#9a32cd" stroke="#9a32cd" points="387.04,-177.92 376.51,-179.06 385.46,-184.74 387.04,-177.92"/>
</a>
</g>
<text text-anchor="middle" x="574.5" y="-209.5" font-family="Helvetica,sans-Serif" font-size="10.00" fill="grey"> db_list</text>
</g>
<!-- Node8&#45;&gt;Node5 -->
<g id="edge7_Node000005_Node000008" class="edge">
<title>Node8&#45;&gt;Node5</title>
<g id="a_edge7_Node000005_Node000008"><a xlink:title=" ">
<path fill="none" stroke="#9a32cd" stroke-dasharray="5,2" d="M360.22,-153.39C386.91,-132.53 433.32,-94.24 467,-55.5 476.46,-44.62 473.07,-36.61 485,-28.5 494.36,-22.14 505.45,-17.85 516.56,-14.98"/>
<polygon fill="#9a32cd" stroke="#9a32cd" points="357.74,-150.89 351.97,-159.77 362.02,-156.42 357.74,-150.89"/>
</a>
</g>
<text text-anchor="middle" x="449" y="-96.5" font-family="Helvetica,sans-Serif" font-size="10.00" fill="grey"> db_list</text>
</g>
<!-- Node9 -->
<g id="Node000009" class="node">
<title>Node9</title>
<g id="a_Node000009"><a xlink:href="classRealm_1_1atomic.html" target="_top" xlink:title=" ">
<polygon fill="white" stroke="#666666" points="152,-179 0,-179 0,-160 152,-160 152,-179"/>
<text text-anchor="middle" x="76" y="-167" font-family="Helvetica,sans-Serif" font-size="10.00">Realm::atomic&lt; uintptr_t &gt;</text>
</a>
</g>
</g>
<!-- Node9&#45;&gt;Node8 -->
<g id="edge8_Node000008_Node000009" class="edge">
<title>Node9&#45;&gt;Node8</title>
<g id="a_edge8_Node000008_Node000009"><a xlink:title=" ">
<path fill="none" stroke="#9a32cd" stroke-dasharray="5,2" d="M162.52,-169.5C201.61,-169.5 246.79,-169.5 281.38,-169.5"/>
<polygon fill="#9a32cd" stroke="#9a32cd" points="162.2,-166 152.2,-169.5 162.2,-173 162.2,-166"/>
</a>
</g>
<text text-anchor="middle" x="207.5" y="-172.5" font-family="Helvetica,sans-Serif" font-size="10.00" fill="grey"> head_or_count</text>
</g>
<!-- Node10 -->
<g id="Node000010" class="node">
<title>Node10</title>
<g id="a_Node000010"><a xlink:href="classRealm_1_1atomic.html" target="_top" xlink:title=" ">
<polygon fill="white" stroke="#666666" points="652,-189 497,-189 497,-170 652,-170 652,-189"/>
<text text-anchor="middle" x="574.5" y="-177" font-family="Helvetica,sans-Serif" font-size="10.00">Realm::atomic&lt; unsigned &gt;</text>
</a>
</g>
</g>
<!-- Node10&#45;&gt;Node3 -->
<g id="edge9_Node000003_Node000010" class="edge">
<title>Node10&#45;&gt;Node3</title>
<g id="a_edge9_Node000003_Node000010"><a xlink:title=" ">
<path fill="none" stroke="#9a32cd" stroke-dasharray="5,2" d="M662.19,-174.6C711.57,-171.81 773.31,-168.31 822.99,-165.51"/>
<polygon fill="#9a32cd" stroke="#9a32cd" points="661.95,-171.11 652.16,-175.16 662.35,-178.09 661.95,-171.11"/>
</a>
</g>
<text text-anchor="middle" x="743.5" y="-175.5" font-family="Helvetica,sans-Serif" font-size="10.00" fill="grey"> num_work_items</text>
</g>
<!-- Node11 -->
<g id="Node000011" class="node">
<title>Node11</title>
<g id="a_Node000011"><a xlink:href="classRealm_1_1atomic.html" target="_top" xlink:title=" ">
<polygon fill="white" stroke="#666666" points="649.5,-152 499.5,-152 499.5,-133 649.5,-133 649.5,-152"/>
<text text-anchor="middle" x="574.5" y="-140" font-family="Helvetica,sans-Serif" font-size="10.00">Realm::atomic&lt; BitMask &gt;</text>
</a>
</g>
</g>
<!-- Node11&#45;&gt;Node3 -->
<g id="edge10_Node000003_Node000011" class="edge">
<title>Node11&#45;&gt;Node3</title>
<g id="a_edge10_Node000003_Node000011"><a xlink:title=" ">
<path fill="none" stroke="#9a32cd" stroke-dasharray="5,2" d="M659.99,-141.69C703.38,-141.85 757.08,-142.94 805,-146.5 819.04,-147.54 834.06,-149.19 848.27,-150.99"/>
<polygon fill="#9a32cd" stroke="#9a32cd" points="659.76,-138.19 649.76,-141.67 659.75,-145.19 659.76,-138.19"/>
</a>
</g>
<text text-anchor="middle" x="743.5" y="-149.5" font-family="Helvetica,sans-Serif" font-size="10.00" fill="grey"> active_work_item_mask</text>
</g>
<!-- Node12 -->
<g id="Node000012" class="node">
<title>Node12</title>
<g id="a_Node000012"><a xlink:href="classRealm_1_1atomic.html" target="_top" xlink:title=" ">
<polygon fill="white" stroke="#666666" points="636,-320 513,-320 513,-301 636,-301 636,-320"/>
<text text-anchor="middle" x="574.5" y="-308" font-family="Helvetica,sans-Serif" font-size="10.00">Realm::atomic&lt; int &gt;</text>
</a>
</g>
</g>
<!-- Node12&#45;&gt;Node3 -->
<g id="edge11_Node000003_Node000012" class="edge">
<title>Node12&#45;&gt;Node3</title>
<g id="a_edge11_Node000003_Node000012"><a xlink:title=" ">
<path fill="none" stroke="#9a32cd" stroke-dasharray="5,2" d="M645.75,-299.34C710.57,-288.87 797.88,-274.27 805,-270.5 852.22,-245.49 890.94,-191.94 905.4,-170.09"/>
<polygon fill="#9a32cd" stroke="#9a32cd" points="644.87,-295.93 635.55,-300.98 645.98,-302.84 644.87,-295.93"/>
</a>
</g>
<text text-anchor="middle" x="743.5" y="-295.5" font-family="Helvetica,sans-Serif" font-size="10.00" fill="grey"> work_item_usecounts</text>
</g>
<!-- Node12&#45;&gt;Node15 -->
<g id="edge21_Node000015_Node000012" class="edge">
<title>Node12&#45;&gt;Node15</title>
<g id="a_edge21_Node000015_Node000012"><a xlink:title=" ">
<path fill="none" stroke="#9a32cd" stroke-dasharray="5,2" d="M646.36,-313.17C714.35,-315.49 819.92,-318.5 911.5,-318.5 911.5,-318.5 911.5,-318.5 1370.5,-318.5 1488.57,-318.5 1596.63,-197.4 1626.11,-161.45"/>
<polygon fill="#9a32cd" stroke="#9a32cd" points="646.3,-309.66 636.19,-312.81 646.06,-316.66 646.3,-309.66"/>
</a>
</g>
<text text-anchor="middle" x="1178.5" y="-343.5" font-family="Helvetica,sans-Serif" font-size="10.00" fill="grey"> pktbuf_ready_packets</text>
<text text-anchor="middle" x="1178.5" y="-332.5" font-family="Helvetica,sans-Serif" font-size="10.00" fill="grey">pktbuf_total_packets</text>
<text text-anchor="middle" x="1178.5" y="-321.5" font-family="Helvetica,sans-Serif" font-size="10.00" fill="grey">remain_count</text>
</g>
<!-- Node13 -->
<g id="Node000013" class="node">
<title>Node13</title>
<g id="a_Node000013"><a xlink:href="classRealm_1_1DelegatingMutex.html" target="_top" xlink:title=" ">
<polygon fill="white" stroke="#666666" points="643.5,-274 505.5,-274 505.5,-255 643.5,-255 643.5,-274"/>
<text text-anchor="middle" x="574.5" y="-262" font-family="Helvetica,sans-Serif" font-size="10.00">Realm::DelegatingMutex</text>
</a>
</g>
</g>
<!-- Node13&#45;&gt;Node3 -->
<g id="edge14_Node000003_Node000013" class="edge">
<title>Node13&#45;&gt;Node3</title>
<g id="a_edge14_Node000003_Node000013"><a xlink:title=" ">
<path fill="none" stroke="#9a32cd" stroke-dasharray="5,2" d="M653.88,-259.08C709.23,-254.47 778.14,-246.94 805,-236.5 845.02,-220.95 883.99,-186.94 901.66,-170.2"/>
<polygon fill="#9a32cd" stroke="#9a32cd" points="653.4,-255.61 643.72,-259.91 653.97,-262.58 653.4,-255.61"/>
</a>
</g>
<text text-anchor="middle" x="743.5" y="-258.5" font-family="Helvetica,sans-Serif" font-size="10.00" fill="grey"> db_mutex</text>
</g>
<!-- Node14 -->
<g id="Node000014" class="node">
<title>Node14</title>
<g id="a_Node000014"><a xlink:href="classRealm_1_1atomic.html" target="_top" xlink:title=" ">
<polygon fill="white" stroke="#666666" points="413,-274 263,-274 263,-255 413,-255 413,-274"/>
<text text-anchor="middle" x="338" y="-262" font-family="Helvetica,sans-Serif" font-size="10.00">Realm::atomic&lt; uint64_t &gt;</text>
</a>
</g>
</g>
<!-- Node14&#45;&gt;Node13 -->
<g id="edge15_Node000013_Node000014" class="edge">
<title>Node14&#45;&gt;Node13</title>
<g id="a_edge15_Node000013_Node000014"><a xlink:title=" ">
<path fill="none" stroke="#9a32cd" stroke-dasharray="5,2" d="M423.38,-264.5C450.3,-264.5 479.74,-264.5 505.36,-264.5"/>
<polygon fill="#9a32cd" stroke="#9a32cd" points="423.2,-261 413.2,-264.5 423.2,-268 423.2,-261"/>
</a>
</g>
<text text-anchor="middle" x="449" y="-267.5" font-family="Helvetica,sans-Serif" font-size="10.00" fill="grey"> state</text>
</g>
<!-- Node15&#45;&gt;Node1 -->
<g id="edge17_Node000001_Node000015" class="edge">
<title>Node15&#45;&gt;Node1</title>
<g id="a_edge17_Node000001_Node000015"><a xlink:title=" ">
<path fill="none" stroke="#9a32cd" stroke-dasharray="5,2" d="M1557.47,-150.61C1527.66,-150.61 1493.22,-151.05 1462,-152.5 1453.24,-152.91 1444.02,-153.51 1434.94,-154.2"/>
<polygon fill="#9a32cd" stroke="#9a32cd" points="1557.8,-154.11 1567.81,-150.63 1557.81,-147.11 1557.8,-154.11"/>
</a>
</g>
<text text-anchor="middle" x="1506" y="-199.5" font-family="Helvetica,sans-Serif" font-size="10.00" fill="grey"> first_available</text>
<text text-anchor="middle" x="1506" y="-188.5" font-family="Helvetica,sans-Serif" font-size="10.00" fill="grey">metadatas</text>
<text text-anchor="middle" x="1506" y="-177.5" font-family="Helvetica,sans-Serif" font-size="10.00" fill="grey">overflow_head</text>
<text text-anchor="middle" x="1506" y="-166.5" font-family="Helvetica,sans-Serif" font-size="10.00" fill="grey">overflow_tail</text>
<text text-anchor="middle" x="1506" y="-155.5" font-family="Helvetica,sans-Serif" font-size="10.00" fill="grey">reserved_head</text>
</g>
<!-- Node15&#45;&gt;Node15 -->
<g id="edge19_Node000015_Node000015" class="edge">
<title>Node15&#45;&gt;Node15</title>
<g id="a_edge19_Node000015_Node000015"><a xlink:title=" ">
<path fill="none" stroke="#9a32cd" stroke-dasharray="5,2" d="M1611.3,-170.55C1612.88,-175.38 1620.78,-179 1635,-179 1657.75,-179 1664.33,-169.73 1654.73,-161.08"/>
<polygon fill="#9a32cd" stroke="#9a32cd" points="1614.63,-171.66 1615.27,-161.08 1608.17,-168.95 1614.63,-171.66"/>
</a>
</g>
<text text-anchor="middle" x="1635" y="-193" font-family="Helvetica,sans-Serif" font-size="10.00" fill="grey"> next_overflow</text>
<text text-anchor="middle" x="1635" y="-182" font-family="Helvetica,sans-Serif" font-size="10.00" fill="grey">nextbuf</text>
</g>
<!-- Node16 -->
<g id="Node000016" class="node">
<title>Node16</title>
<g id="a_Node000016"><a xlink:href="classRealm_1_1atomic.html" target="_top" xlink:title=" ">
<polygon fill="white" stroke="#666666" points="1435,-132.5 1304,-132.5 1304,-102.5 1435,-102.5 1435,-132.5"/>
<text text-anchor="start" x="1312" y="-120.5" font-family="Helvetica,sans-Serif" font-size="10.00">Realm::atomic&lt; Realm</text>
<text text-anchor="middle" x="1369.5" y="-109.5" font-family="Helvetica,sans-Serif" font-size="10.00">::OutbufMetadata * &gt;</text>
</a>
</g>
</g>
<!-- Node16&#45;&gt;Node15 -->
<g id="edge20_Node000015_Node000016" class="edge">
<title>Node16&#45;&gt;Node15</title>
<g id="a_edge20_Node000015_Node000016"><a xlink:title=" ">
<path fill="none" stroke="#9a32cd" stroke-dasharray="5,2" d="M1445.32,-123.52C1477.6,-126.5 1515.74,-130.53 1550,-135.5 1562.34,-137.29 1575.63,-139.63 1587.91,-141.96"/>
<polygon fill="#9a32cd" stroke="#9a32cd" points="1445.33,-120 1435.05,-122.59 1444.7,-126.97 1445.33,-120"/>
</a>
</g>
<text text-anchor="middle" x="1506" y="-138.5" font-family="Helvetica,sans-Serif" font-size="10.00" fill="grey"> realbuf</text>
</g>
<!-- Node17 -->
<g id="Node000017" class="node">
<title>Node17</title>
<g id="a_Node000017"><a xlink:href="classRealm_1_1atomic.html" target="_top" xlink:title=" ">
<polygon fill="white" stroke="#666666" points="1444,-84 1295,-84 1295,-65 1444,-65 1444,-84"/>
<text text-anchor="middle" x="1369.5" y="-72" font-family="Helvetica,sans-Serif" font-size="10.00">Realm::atomic&lt; PktType &gt;</text>
</a>
</g>
</g>
<!-- Node17&#45;&gt;Node15 -->
<g id="edge22_Node000015_Node000017" class="edge">
<title>Node17&#45;&gt;Node15</title>
<g id="a_edge22_Node000015_Node000017"><a xlink:title=" ">
<path fill="none" stroke="#9a32cd" stroke-dasharray="5,2" d="M1449.46,-85.83C1481.19,-91.54 1517.8,-99.62 1550,-110.5 1574.44,-118.76 1600.93,-132.58 1617.49,-141.86"/>
<polygon fill="#9a32cd" stroke="#9a32cd" points="1449.8,-82.34 1439.34,-84.06 1448.59,-89.23 1449.8,-82.34"/>
</a>
</g>
<text text-anchor="middle" x="1506" y="-113.5" font-family="Helvetica,sans-Serif" font-size="10.00" fill="grey"> pktbuf_pkt_types</text>
</g>
</g>
</svg>
