<?xml version="1.0" encoding="UTF-8" standalone="no"?>
<!DOCTYPE svg PUBLIC "-//W3C//DTD SVG 1.1//EN"
 "http://www.w3.org/Graphics/SVG/1.1/DTD/svg11.dtd">
<!-- Generated by graphviz version 2.43.0 (0)
 -->
<!-- Title: Realm::RegionInstanceImpl::Metadata Pages: 1 -->
<svg width="1902pt" height="297pt"
 viewBox="0.00 0.00 1902.00 297.00" xmlns="http://www.w3.org/2000/svg" xmlns:xlink="http://www.w3.org/1999/xlink">
<g id="graph0" class="graph" transform="scale(1 1) rotate(0) translate(4 293)">
<title>Realm::RegionInstanceImpl::Metadata</title>
<!-- Node1 -->
<g id="Node000001" class="node">
<title>Node1</title>
<g id="a_Node000001"><a xlink:title=" ">
<polygon fill="#999999" stroke="#666666" points="1894,-158.5 1743,-158.5 1743,-128.5 1894,-128.5 1894,-158.5"/>
<text text-anchor="start" x="1751" y="-146.5" font-family="Helvetica,sans-Serif" font-size="10.00">Realm::RegionInstanceImpl</text>
<text text-anchor="middle" x="1818.5" y="-135.5" font-family="Helvetica,sans-Serif" font-size="10.00">::Metadata</text>
</a>
</g>
</g>
<!-- Node2 -->
<g id="Node000002" class="node">
<title>Node2</title>
<g id="a_Node000002"><a xlink:href="classRealm_1_1MetadataBase.html" target="_top" xlink:title=" ">
<polygon fill="white" stroke="#666666" points="1608,-209 1483,-209 1483,-190 1608,-190 1608,-209"/>
<text text-anchor="middle" x="1545.5" y="-197" font-family="Helvetica,sans-Serif" font-size="10.00">Realm::MetadataBase</text>
</a>
</g>
</g>
<!-- Node2&#45;&gt;Node1 -->
<g id="edge1_Node000001_Node000002" class="edge">
<title>Node2&#45;&gt;Node1</title>
<g id="a_edge1_Node000001_Node000002"><a xlink:title=" ">
<path fill="none" stroke="#63b8ff" d="M1618.3,-189.24C1651,-184.1 1690.12,-177.31 1725,-169.5 1739,-166.37 1754.03,-162.4 1767.82,-158.52"/>
<polygon fill="#63b8ff" stroke="#63b8ff" points="1617.71,-185.79 1608.36,-190.78 1618.78,-192.7 1617.71,-185.79"/>
</a>
</g>
</g>
<!-- Node3 -->
<g id="Node000003" class="node">
<title>Node3</title>
<g id="a_Node000003"><a xlink:href="classRealm_1_1UnfairMutex.html" target="_top" xlink:title=" ">
<polygon fill="white" stroke="#666666" points="600,-105 485,-105 485,-86 600,-86 600,-105"/>
<text text-anchor="middle" x="542.5" y="-93" font-family="Helvetica,sans-Serif" font-size="10.00">Realm::UnfairMutex</text>
</a>
</g>
</g>
<!-- Node3&#45;&gt;Node2 -->
<g id="edge2_Node000002_Node000003" class="edge">
<title>Node3&#45;&gt;Node2</title>
<g id="a_edge2_Node000002_Node000003"><a xlink:title=" ">
<path fill="none" stroke="#9a32cd" stroke-dasharray="5,2" d="M571.35,-109.48C615.21,-130.16 703.57,-166.5 783,-166.5 783,-166.5 783,-166.5 1247,-166.5 1332.87,-166.5 1431.85,-180.25 1491.22,-190"/>
<polygon fill="#9a32cd" stroke="#9a32cd" points="572.72,-106.25 562.19,-105.08 569.68,-112.56 572.72,-106.25"/>
</a>
</g>
<text text-anchor="middle" x="1027.5" y="-169.5" font-family="Helvetica,sans-Serif" font-size="10.00" fill="grey"> mutex</text>
</g>
<!-- Node11 -->
<g id="Node000011" class="node">
<title>Node11</title>
<g id="a_Node000011"><a xlink:href="classRealm_1_1NodeSetBitmask.html" target="_top" xlink:title=" ">
<polygon fill="white" stroke="#666666" points="852,-105 716,-105 716,-86 852,-86 852,-105"/>
<text text-anchor="middle" x="784" y="-93" font-family="Helvetica,sans-Serif" font-size="10.00">Realm::NodeSetBitmask</text>
</a>
</g>
</g>
<!-- Node3&#45;&gt;Node11 -->
<g id="edge12_Node000011_Node000003" class="edge">
<title>Node3&#45;&gt;Node11</title>
<g id="a_edge12_Node000011_Node000003"><a xlink:title=" ">
<path fill="none" stroke="#9a32cd" stroke-dasharray="5,2" d="M610.65,-95.5C643.43,-95.5 682.77,-95.5 715.58,-95.5"/>
<polygon fill="#9a32cd" stroke="#9a32cd" points="610.26,-92 600.26,-95.5 610.26,-99 610.26,-92"/>
</a>
</g>
<text text-anchor="middle" x="658" y="-98.5" font-family="Helvetica,sans-Serif" font-size="10.00" fill="grey"> free_list_mutex</text>
</g>
<!-- Node19 -->
<g id="Node000019" class="node">
<title>Node19</title>
<g id="a_Node000019"><a xlink:href="classRealm_1_1ReplicatedHeap.html" target="_top" xlink:title=" ">
<polygon fill="white" stroke="#666666" points="849.5,-19 718.5,-19 718.5,0 849.5,0 849.5,-19"/>
<text text-anchor="middle" x="784" y="-7" font-family="Helvetica,sans-Serif" font-size="10.00">Realm::ReplicatedHeap</text>
</a>
</g>
</g>
<!-- Node3&#45;&gt;Node19 -->
<g id="edge23_Node000019_Node000003" class="edge">
<title>Node3&#45;&gt;Node19</title>
<g id="a_edge23_Node000019_Node000003"><a xlink:title=" ">
<path fill="none" stroke="#9a32cd" stroke-dasharray="5,2" d="M575.65,-81.97C610.05,-67.73 666.37,-45.13 716,-28.5 725.97,-25.16 736.91,-21.89 746.99,-19.04"/>
<polygon fill="#9a32cd" stroke="#9a32cd" points="574.02,-78.85 566.13,-85.92 576.71,-85.32 574.02,-78.85"/>
</a>
</g>
<text text-anchor="middle" x="658" y="-65.5" font-family="Helvetica,sans-Serif" font-size="10.00" fill="grey"> mutex</text>
</g>
<!-- Node4 -->
<g id="Node000004" class="node">
<title>Node4</title>
<g id="a_Node000004"><a xlink:href="classRealm_1_1noncopyable.html" target="_top" xlink:title=" ">
<polygon fill="white" stroke="#666666" points="396,-142 280,-142 280,-123 396,-123 396,-142"/>
<text text-anchor="middle" x="338" y="-130" font-family="Helvetica,sans-Serif" font-size="10.00">Realm::noncopyable</text>
</a>
</g>
</g>
<!-- Node4&#45;&gt;Node3 -->
<g id="edge3_Node000003_Node000004" class="edge">
<title>Node4&#45;&gt;Node3</title>
<g id="a_edge3_Node000003_Node000004"><a xlink:title=" ">
<path fill="none" stroke="#63b8ff" d="M406.17,-121.33C425.8,-117.96 447.28,-114.18 467,-110.5 476.08,-108.81 485.76,-106.92 495.04,-105.07"/>
<polygon fill="#63b8ff" stroke="#63b8ff" points="405.36,-117.91 396.09,-123.05 406.54,-124.81 405.36,-117.91"/>
</a>
</g>
</g>
<!-- Node5 -->
<g id="Node000005" class="node">
<title>Node5</title>
<g id="a_Node000005"><a xlink:href="classRealm_1_1atomic.html" target="_top" xlink:title=" ">
<polygon fill="white" stroke="#666666" points="413,-105 263,-105 263,-86 413,-86 413,-105"/>
<text text-anchor="middle" x="338" y="-93" font-family="Helvetica,sans-Serif" font-size="10.00">Realm::atomic&lt; uint32_t &gt;</text>
</a>
</g>
</g>
<!-- Node5&#45;&gt;Node3 -->
<g id="edge4_Node000003_Node000005" class="edge">
<title>Node5&#45;&gt;Node3</title>
<g id="a_edge4_Node000003_Node000005"><a xlink:title=" ">
<path fill="none" stroke="#9a32cd" stroke-dasharray="5,2" d="M423.32,-95.5C444,-95.5 465.66,-95.5 484.7,-95.5"/>
<polygon fill="#9a32cd" stroke="#9a32cd" points="423.25,-92 413.25,-95.5 423.25,-99 423.25,-92"/>
</a>
</g>
<text text-anchor="middle" x="449" y="-98.5" font-family="Helvetica,sans-Serif" font-size="10.00" fill="grey"> state</text>
</g>
<!-- Node6 -->
<g id="Node000006" class="node">
<title>Node6</title>
<g id="a_Node000006"><a xlink:href="classRealm_1_1DoorbellList.html" target="_top" xlink:title=" ">
<polygon fill="white" stroke="#666666" points="394.5,-68 281.5,-68 281.5,-49 394.5,-49 394.5,-68"/>
<text text-anchor="middle" x="338" y="-56" font-family="Helvetica,sans-Serif" font-size="10.00">Realm::DoorbellList</text>
</a>
</g>
</g>
<!-- Node6&#45;&gt;Node3 -->
<g id="edge5_Node000003_Node000006" class="edge">
<title>Node6&#45;&gt;Node3</title>
<g id="a_edge5_Node000003_Node000006"><a xlink:title=" ">
<path fill="none" stroke="#9a32cd" stroke-dasharray="5,2" d="M404.49,-69.39C424.57,-72.82 446.71,-76.71 467,-80.5 476.08,-82.19 485.76,-84.08 495.04,-85.93"/>
<polygon fill="#9a32cd" stroke="#9a32cd" points="404.95,-65.92 394.51,-67.69 403.78,-72.82 404.95,-65.92"/>
</a>
</g>
<text text-anchor="middle" x="449" y="-83.5" font-family="Helvetica,sans-Serif" font-size="10.00" fill="grey"> db_list</text>
</g>
<!-- Node7 -->
<g id="Node000007" class="node">
<title>Node7</title>
<g id="a_Node000007"><a xlink:href="classRealm_1_1atomic.html" target="_top" xlink:title=" ">
<polygon fill="white" stroke="#666666" points="152,-68 0,-68 0,-49 152,-49 152,-68"/>
<text text-anchor="middle" x="76" y="-56" font-family="Helvetica,sans-Serif" font-size="10.00">Realm::atomic&lt; uintptr_t &gt;</text>
</a>
</g>
</g>
<!-- Node7&#45;&gt;Node6 -->
<g id="edge6_Node000006_Node000007" class="edge">
<title>Node7&#45;&gt;Node6</title>
<g id="a_edge6_Node000006_Node000007"><a xlink:title=" ">
<path fill="none" stroke="#9a32cd" stroke-dasharray="5,2" d="M162.52,-58.5C201.61,-58.5 246.79,-58.5 281.38,-58.5"/>
<polygon fill="#9a32cd" stroke="#9a32cd" points="162.2,-55 152.2,-58.5 162.2,-62 162.2,-55"/>
</a>
</g>
<text text-anchor="middle" x="207.5" y="-61.5" font-family="Helvetica,sans-Serif" font-size="10.00" fill="grey"> head_or_count</text>
</g>
<!-- Node8 -->
<g id="Node000008" class="node">
<title>Node8</title>
<g id="a_Node000008"><a xlink:href="classRealm_1_1Event.html" target="_top" xlink:title=" ">
<polygon fill="white" stroke="#666666" points="1287,-260 1205,-260 1205,-241 1287,-241 1287,-260"/>
<text text-anchor="middle" x="1246" y="-248" font-family="Helvetica,sans-Serif" font-size="10.00">Realm::Event</text>
</a>
</g>
</g>
<!-- Node8&#45;&gt;Node1 -->
<g id="edge15_Node000001_Node000008" class="edge">
<title>Node8&#45;&gt;Node1</title>
<g id="a_edge15_Node000001_Node000008"><a xlink:title=" ">
<path fill="none" stroke="#9a32cd" stroke-dasharray="5,2" d="M1297.48,-250.66C1335.81,-250.42 1389.8,-249.31 1437,-245.5 1566.97,-235 1604.31,-238.86 1725,-189.5 1747.24,-180.4 1771.55,-168.23 1789.66,-158.69"/>
<polygon fill="#9a32cd" stroke="#9a32cd" points="1297.08,-247.16 1287.1,-250.71 1297.12,-254.16 1297.08,-247.16"/>
</a>
</g>
<text text-anchor="middle" x="1545.5" y="-246.5" font-family="Helvetica,sans-Serif" font-size="10.00" fill="grey"> ready_event</text>
</g>
<!-- Node8&#45;&gt;Node2 -->
<g id="edge7_Node000002_Node000008" class="edge">
<title>Node8&#45;&gt;Node2</title>
<g id="a_edge7_Node000002_Node000008"><a xlink:title=" ">
<path fill="none" stroke="#9a32cd" stroke-dasharray="5,2" d="M1297.16,-241.12C1309.22,-238.91 1322.06,-236.59 1334,-234.5 1385.09,-225.56 1443.25,-215.93 1485.48,-209.04"/>
<polygon fill="#9a32cd" stroke="#9a32cd" points="1296.46,-237.69 1287.26,-242.95 1297.73,-244.58 1296.46,-237.69"/>
</a>
</g>
<text text-anchor="middle" x="1385.5" y="-237.5" font-family="Helvetica,sans-Serif" font-size="10.00" fill="grey"> valid_event</text>
</g>
<!-- Node8&#45;&gt;Node8 -->
<g id="edge8_Node000008_Node000008" class="edge">
<title>Node8&#45;&gt;Node8</title>
<g id="a_edge8_Node000008_Node000008"><a xlink:title=" ">
<path fill="none" stroke="#9a32cd" stroke-dasharray="5,2" d="M1227.58,-269.91C1229.03,-274.56 1235.17,-278 1246,-278 1263.77,-278 1268.91,-268.73 1261.41,-260.08"/>
<polygon fill="#9a32cd" stroke="#9a32cd" points="1231.01,-270.67 1230.59,-260.08 1224.32,-268.62 1231.01,-270.67"/>
</a>
</g>
<text text-anchor="middle" x="1246" y="-281" font-family="Helvetica,sans-Serif" font-size="10.00" fill="grey"> NO_EVENT</text>
</g>
<!-- Node9 -->
<g id="Node000009" class="node">
<title>Node9</title>
<g id="a_Node000009"><a xlink:href="classRealm_1_1NodeSet.html" target="_top" xlink:title=" ">
<polygon fill="white" stroke="#666666" points="1293.5,-101 1198.5,-101 1198.5,-82 1293.5,-82 1293.5,-101"/>
<text text-anchor="middle" x="1246" y="-89" font-family="Helvetica,sans-Serif" font-size="10.00">Realm::NodeSet</text>
</a>
</g>
</g>
<!-- Node9&#45;&gt;Node2 -->
<g id="edge9_Node000002_Node000009" class="edge">
<title>Node9&#45;&gt;Node2</title>
<g id="a_edge9_Node000002_Node000009"><a xlink:title=" ">
<path fill="none" stroke="#9a32cd" stroke-dasharray="5,2" d="M1290.94,-79.82C1333.35,-71.4 1396.86,-66.71 1437,-100.5 1465.21,-124.25 1428.66,-155.69 1455,-181.5 1462.58,-188.93 1472.33,-193.71 1482.58,-196.71"/>
<polygon fill="#9a32cd" stroke="#9a32cd" points="1289.96,-76.45 1280.91,-81.96 1291.42,-83.29 1289.96,-76.45"/>
</a>
</g>
<text text-anchor="middle" x="1385.5" y="-103.5" font-family="Helvetica,sans-Serif" font-size="10.00" fill="grey"> remote_copies</text>
</g>
<!-- Node10 -->
<g id="Node000010" class="node">
<title>Node10</title>
<g id="a_Node000010"><a xlink:href="unionRealm_1_1NodeSet_1_1EncodingUnion.html" target="_top" xlink:title=" ">
<polygon fill="white" stroke="#666666" points="1100.5,-107.5 954.5,-107.5 954.5,-77.5 1100.5,-77.5 1100.5,-107.5"/>
<text text-anchor="start" x="962.5" y="-95.5" font-family="Helvetica,sans-Serif" font-size="10.00">Realm::NodeSet::Encoding</text>
<text text-anchor="middle" x="1027.5" y="-84.5" font-family="Helvetica,sans-Serif" font-size="10.00">Union</text>
</a>
</g>
</g>
<!-- Node10&#45;&gt;Node9 -->
<g id="edge10_Node000009_Node000010" class="edge">
<title>Node10&#45;&gt;Node9</title>
<g id="a_edge10_Node000009_Node000010"><a xlink:title=" ">
<path fill="none" stroke="#9a32cd" stroke-dasharray="5,2" d="M1110.93,-92.12C1140.54,-91.98 1172.88,-91.83 1198.38,-91.72"/>
<polygon fill="#9a32cd" stroke="#9a32cd" points="1110.58,-88.62 1100.59,-92.17 1110.61,-95.62 1110.58,-88.62"/>
</a>
</g>
<text text-anchor="middle" x="1145.5" y="-94.5" font-family="Helvetica,sans-Serif" font-size="10.00" fill="grey"> data</text>
</g>
<!-- Node11&#45;&gt;Node10 -->
<g id="edge11_Node000010_Node000011" class="edge">
<title>Node11&#45;&gt;Node10</title>
<g id="a_edge11_Node000010_Node000011"><a xlink:title=" ">
<path fill="none" stroke="#9a32cd" stroke-dasharray="5,2" d="M862.49,-94.54C891.87,-94.17 925.2,-93.76 954.1,-93.4"/>
<polygon fill="#9a32cd" stroke="#9a32cd" points="862.23,-91.04 852.27,-94.66 862.31,-98.04 862.23,-91.04"/>
</a>
</g>
<text text-anchor="middle" x="896" y="-96.5" font-family="Helvetica,sans-Serif" font-size="10.00" fill="grey"> bitmask</text>
</g>
<!-- Node12 -->
<g id="Node000012" class="node">
<title>Node12</title>
<g id="a_Node000012"><a xlink:href="classRealm_1_1atomic.html" target="_top" xlink:title=" ">
<polygon fill="white" stroke="#666666" points="1316,-214 1176,-214 1176,-195 1316,-195 1316,-214"/>
<text text-anchor="middle" x="1246" y="-202" font-family="Helvetica,sans-Serif" font-size="10.00">Realm::atomic&lt; char * &gt;</text>
</a>
</g>
</g>
<!-- Node12&#45;&gt;Node2 -->
<g id="edge13_Node000002_Node000012" class="edge">
<title>Node12&#45;&gt;Node2</title>
<g id="a_edge13_Node000002_Node000012"><a xlink:title=" ">
<path fill="none" stroke="#9a32cd" stroke-dasharray="5,2" d="M1326.36,-200.72C1328.93,-200.64 1331.49,-200.56 1334,-200.5 1384.05,-199.23 1440.82,-199.03 1482.78,-199.12"/>
<polygon fill="#9a32cd" stroke="#9a32cd" points="1326.2,-197.22 1316.32,-201.06 1326.44,-204.21 1326.2,-197.22"/>
</a>
</g>
<text text-anchor="middle" x="1385.5" y="-203.5" font-family="Helvetica,sans-Serif" font-size="10.00" fill="grey"> frag_buffer</text>
</g>
<!-- Node13 -->
<g id="Node000013" class="node">
<title>Node13</title>
<g id="a_Node000013"><a xlink:href="classRealm_1_1atomic.html" target="_top" xlink:title=" ">
<polygon fill="white" stroke="#666666" points="1315.5,-138 1176.5,-138 1176.5,-119 1315.5,-119 1315.5,-138"/>
<text text-anchor="middle" x="1246" y="-126" font-family="Helvetica,sans-Serif" font-size="10.00">Realm::atomic&lt; size_t &gt;</text>
</a>
</g>
</g>
<!-- Node13&#45;&gt;Node2 -->
<g id="edge14_Node000002_Node000013" class="edge">
<title>Node13&#45;&gt;Node2</title>
<g id="a_edge14_Node000002_Node000013"><a xlink:title=" ">
<path fill="none" stroke="#9a32cd" stroke-dasharray="5,2" d="M1305.17,-117.81C1345.65,-113.64 1398.98,-115.03 1437,-141.5 1453,-152.64 1439.76,-169.35 1455,-181.5 1463.05,-187.92 1472.79,-192.25 1482.83,-195.12"/>
<polygon fill="#9a32cd" stroke="#9a32cd" points="1304.7,-114.34 1295.17,-118.98 1305.51,-121.29 1304.7,-114.34"/>
</a>
</g>
<text text-anchor="middle" x="1385.5" y="-144.5" font-family="Helvetica,sans-Serif" font-size="10.00" fill="grey"> frag_bytes_received</text>
</g>
<!-- Node14 -->
<g id="Node000014" class="node">
<title>Node14</title>
<g id="a_Node000014"><a xlink:href="classRealm_1_1InstanceLayoutGeneric.html" target="_top" xlink:title=" ">
<polygon fill="white" stroke="#666666" points="1628.5,-172 1462.5,-172 1462.5,-153 1628.5,-153 1628.5,-172"/>
<text text-anchor="middle" x="1545.5" y="-160" font-family="Helvetica,sans-Serif" font-size="10.00">Realm::InstanceLayoutGeneric</text>
</a>
</g>
</g>
<!-- Node14&#45;&gt;Node1 -->
<g id="edge16_Node000001_Node000014" class="edge">
<title>Node14&#45;&gt;Node1</title>
<g id="a_edge16_Node000001_Node000014"><a xlink:title=" ">
<path fill="none" stroke="#9a32cd" stroke-dasharray="5,2" d="M1638.9,-156.02C1672.73,-153.65 1710.56,-151 1742.66,-148.75"/>
<polygon fill="#9a32cd" stroke="#9a32cd" points="1638.28,-152.56 1628.54,-156.75 1638.76,-159.54 1638.28,-152.56"/>
</a>
</g>
<text text-anchor="middle" x="1689.5" y="-157.5" font-family="Helvetica,sans-Serif" font-size="10.00" fill="grey"> layout</text>
</g>
<!-- Node15 -->
<g id="Node000015" class="node">
<title>Node15</title>
<g id="a_Node000015"><a xlink:href="classRealm_1_1ExternalInstanceResource.html" target="_top" xlink:title=" ">
<polygon fill="white" stroke="#666666" points="1636,-135 1455,-135 1455,-116 1636,-116 1636,-135"/>
<text text-anchor="middle" x="1545.5" y="-123" font-family="Helvetica,sans-Serif" font-size="10.00">Realm::ExternalInstanceResource</text>
</a>
</g>
</g>
<!-- Node15&#45;&gt;Node1 -->
<g id="edge17_Node000001_Node000015" class="edge">
<title>Node15&#45;&gt;Node1</title>
<g id="a_edge17_Node000001_Node000015"><a xlink:title=" ">
<path fill="none" stroke="#9a32cd" stroke-dasharray="5,2" d="M1646.19,-125.48C1671.9,-126.1 1699.51,-127.29 1725,-129.5 1730.83,-130 1736.84,-130.64 1742.88,-131.37"/>
<polygon fill="#9a32cd" stroke="#9a32cd" points="1646.13,-121.98 1636.06,-125.27 1645.98,-128.98 1646.13,-121.98"/>
</a>
</g>
<text text-anchor="middle" x="1689.5" y="-132.5" font-family="Helvetica,sans-Serif" font-size="10.00" fill="grey"> ext_resource</text>
</g>
<!-- Node16 -->
<g id="Node000016" class="node">
<title>Node16</title>
<g id="a_Node000016"><a xlink:href="classRealm_1_1MemSpecificInfo.html" target="_top" xlink:title=" ">
<polygon fill="white" stroke="#666666" points="1613,-69 1478,-69 1478,-50 1613,-50 1613,-69"/>
<text text-anchor="middle" x="1545.5" y="-57" font-family="Helvetica,sans-Serif" font-size="10.00">Realm::MemSpecificInfo</text>
</a>
</g>
</g>
<!-- Node16&#45;&gt;Node1 -->
<g id="edge18_Node000001_Node000016" class="edge">
<title>Node16&#45;&gt;Node1</title>
<g id="a_edge18_Node000001_Node000016"><a xlink:title=" ">
<path fill="none" stroke="#9a32cd" stroke-dasharray="5,2" d="M1592.38,-71.74C1628.58,-81.6 1680.26,-96.14 1725,-110.5 1742.21,-116.02 1761.03,-122.63 1777.17,-128.48"/>
<polygon fill="#9a32cd" stroke="#9a32cd" points="1593.17,-68.32 1582.6,-69.08 1591.34,-75.08 1593.17,-68.32"/>
</a>
</g>
<text text-anchor="middle" x="1689.5" y="-113.5" font-family="Helvetica,sans-Serif" font-size="10.00" fill="grey"> mem_specific</text>
</g>
<!-- Node16&#45;&gt;Node16 -->
<g id="edge19_Node000016_Node000016" class="edge">
<title>Node16&#45;&gt;Node16</title>
<g id="a_edge19_Node000016_Node000016"><a xlink:title=" ">
<path fill="none" stroke="#9a32cd" stroke-dasharray="5,2" d="M1518.71,-78.19C1520.18,-83.2 1529.1,-87 1545.5,-87 1571.09,-87 1578.49,-77.73 1567.69,-69.08"/>
<polygon fill="#9a32cd" stroke="#9a32cd" points="1521.93,-79.59 1523.31,-69.08 1515.68,-76.44 1521.93,-79.59"/>
</a>
</g>
<text text-anchor="middle" x="1545.5" y="-90" font-family="Helvetica,sans-Serif" font-size="10.00" fill="grey"> next</text>
</g>
<!-- Node17 -->
<g id="Node000017" class="node">
<title>Node17</title>
<g id="a_Node000017"><a xlink:href="classRealm_1_1CompiledInstanceLayout.html" target="_top" xlink:title=" ">
<polygon fill="white" stroke="#666666" points="1115,-31 940,-31 940,-12 1115,-12 1115,-31"/>
<text text-anchor="middle" x="1027.5" y="-19" font-family="Helvetica,sans-Serif" font-size="10.00">Realm::CompiledInstanceLayout</text>
</a>
</g>
</g>
<!-- Node17&#45;&gt;Node1 -->
<g id="edge20_Node000001_Node000017" class="edge">
<title>Node17&#45;&gt;Node1</title>
<g id="a_edge20_Node000001_Node000017"><a xlink:title=" ">
<path fill="none" stroke="#9a32cd" stroke-dasharray="5,2" d="M1125.11,-12.26C1246.45,-3.46 1460.05,2.68 1636,-41.5 1701.21,-57.87 1767.47,-104.3 1798.84,-128.46"/>
<polygon fill="#9a32cd" stroke="#9a32cd" points="1124.81,-8.77 1115.1,-13 1125.34,-15.75 1124.81,-8.77"/>
</a>
</g>
<text text-anchor="middle" x="1385.5" y="-14.5" font-family="Helvetica,sans-Serif" font-size="10.00" fill="grey"> lookup_program</text>
</g>
<!-- Node18 -->
<g id="Node000018" class="node">
<title>Node18</title>
<g id="a_Node000018"><a xlink:href="classRealm_1_1PieceLookup_1_1CompiledProgram.html" target="_top" xlink:title=" ">
<polygon fill="white" stroke="#666666" points="841.5,-67.5 726.5,-67.5 726.5,-37.5 841.5,-37.5 841.5,-67.5"/>
<text text-anchor="start" x="734.5" y="-55.5" font-family="Helvetica,sans-Serif" font-size="10.00">Realm::PieceLookup</text>
<text text-anchor="middle" x="784" y="-44.5" font-family="Helvetica,sans-Serif" font-size="10.00">::CompiledProgram</text>
</a>
</g>
</g>
<!-- Node18&#45;&gt;Node17 -->
<g id="edge21_Node000017_Node000018" class="edge">
<title>Node18&#45;&gt;Node17</title>
<g id="a_edge21_Node000017_Node000018"><a xlink:title=" ">
<path fill="none" stroke="#63b8ff" d="M851.54,-43.96C882.82,-39.94 920.21,-35.14 952.38,-31.01"/>
<polygon fill="#63b8ff" stroke="#63b8ff" points="851.09,-40.49 841.62,-45.23 851.99,-47.43 851.09,-40.49"/>
</a>
</g>
</g>
<!-- Node19&#45;&gt;Node17 -->
<g id="edge22_Node000017_Node000019" class="edge">
<title>Node19&#45;&gt;Node17</title>
<g id="a_edge22_Node000017_Node000019"><a xlink:title=" ">
<path fill="none" stroke="#9a32cd" stroke-dasharray="5,2" d="M859.97,-13.23C885.26,-14.48 913.69,-15.89 939.8,-17.19"/>
<polygon fill="#9a32cd" stroke="#9a32cd" points="859.88,-9.72 849.72,-12.72 859.53,-16.71 859.88,-9.72"/>
</a>
</g>
<text text-anchor="middle" x="896" y="-19.5" font-family="Helvetica,sans-Serif" font-size="10.00" fill="grey"> repl_heap</text>
</g>
</g>
</svg>
