<?xml version="1.0" encoding="UTF-8" standalone="no"?>
<!DOCTYPE svg PUBLIC "-//W3C//DTD SVG 1.1//EN"
 "http://www.w3.org/Graphics/SVG/1.1/DTD/svg11.dtd">
<!-- Generated by graphviz version 2.43.0 (0)
 -->
<!-- Title: Realm::TaskContextManager Pages: 1 -->
<svg width="380pt" height="93pt"
 viewBox="0.00 0.00 380.00 93.00" xmlns="http://www.w3.org/2000/svg" xmlns:xlink="http://www.w3.org/1999/xlink">
<g id="graph0" class="graph" transform="scale(1 1) rotate(0) translate(4 89)">
<title>Realm::TaskContextManager</title>
<!-- Node1 -->
<g id="Node000001" class="node">
<title>Node1</title>
<g id="a_Node000001"><a xlink:title=" ">
<polygon fill="#999999" stroke="#666666" points="269,-85 112,-85 112,-66 269,-66 269,-85"/>
<text text-anchor="middle" x="190.5" y="-73" font-family="Helvetica,sans-Serif" font-size="10.00">Realm::TaskContextManager</text>
</a>
</g>
</g>
<!-- Node2 -->
<g id="Node000002" class="node">
<title>Node2</title>
<g id="a_Node000002"><a xlink:href="classRealm_1_1Cuda_1_1GPUContextManager.html" target="_top" xlink:title=" ">
<polygon fill="white" stroke="#666666" points="187,-24.5 0,-24.5 0,-5.5 187,-5.5 187,-24.5"/>
<text text-anchor="middle" x="93.5" y="-12.5" font-family="Helvetica,sans-Serif" font-size="10.00">Realm::Cuda::GPUContextManager</text>
</a>
</g>
</g>
<!-- Node1&#45;&gt;Node2 -->
<g id="edge1_Node000001_Node000002" class="edge">
<title>Node1&#45;&gt;Node2</title>
<g id="a_edge1_Node000001_Node000002"><a xlink:title=" ">
<path fill="none" stroke="#63b8ff" d="M167.48,-60.62C148.99,-49.46 123.58,-34.14 107.87,-24.67"/>
<polygon fill="#63b8ff" stroke="#63b8ff" points="165.82,-63.7 176.19,-65.87 169.43,-57.71 165.82,-63.7"/>
</a>
</g>
</g>
<!-- Node3 -->
<g id="Node000003" class="node">
<title>Node3</title>
<g id="a_Node000003"><a xlink:href="classRealm_1_1LocalOpenMPProcessor_1_1OpenMPContextManager.html" target="_top" xlink:title=" ">
<polygon fill="white" stroke="#666666" points="372,-30 205,-30 205,0 372,0 372,-30"/>
<text text-anchor="start" x="213" y="-18" font-family="Helvetica,sans-Serif" font-size="10.00">Realm::LocalOpenMPProcessor</text>
<text text-anchor="middle" x="288.5" y="-7" font-family="Helvetica,sans-Serif" font-size="10.00">::OpenMPContextManager</text>
</a>
</g>
</g>
<!-- Node1&#45;&gt;Node3 -->
<g id="edge2_Node000001_Node000003" class="edge">
<title>Node1&#45;&gt;Node3</title>
<g id="a_edge2_Node000001_Node000003"><a xlink:title=" ">
<path fill="none" stroke="#63b8ff" d="M213.86,-60.55C229.27,-51.36 249.39,-39.35 264.86,-30.11"/>
<polygon fill="#63b8ff" stroke="#63b8ff" points="211.75,-57.74 204.96,-65.87 215.34,-63.75 211.75,-57.74"/>
</a>
</g>
</g>
</g>
</svg>
