<?xml version="1.0" encoding="UTF-8" standalone="no"?>
<!DOCTYPE svg PUBLIC "-//W3C//DTD SVG 1.1//EN"
 "http://www.w3.org/Graphics/SVG/1.1/DTD/svg11.dtd">
<!-- Generated by graphviz version 2.43.0 (0)
 -->
<!-- Title: Realm::EventWaiter Pages: 1 -->
<svg width="315pt" height="652pt"
 viewBox="0.00 0.00 315.00 652.00" xmlns="http://www.w3.org/2000/svg" xmlns:xlink="http://www.w3.org/1999/xlink">
<g id="graph0" class="graph" transform="scale(1 1) rotate(0) translate(4 648)">
<title>Realm::EventWaiter</title>
<!-- Node1 -->
<g id="Node000001" class="node">
<title>Node1</title>
<g id="a_Node000001"><a xlink:title=" ">
<polygon fill="#999999" stroke="#666666" points="113,-326.5 0,-326.5 0,-307.5 113,-307.5 113,-326.5"/>
<text text-anchor="middle" x="56.5" y="-314.5" font-family="Helvetica,sans-Serif" font-size="10.00">Realm::EventWaiter</text>
</a>
</g>
</g>
<!-- Node2 -->
<g id="Node000002" class="node">
<title>Node2</title>
<g id="a_Node000002"><a xlink:href="classRealm_1_1CompQueueImpl_1_1CompQueueWaiter.html" target="_top" xlink:title=" ">
<polygon fill="white" stroke="#666666" points="296,-644 160,-644 160,-614 296,-614 296,-644"/>
<text text-anchor="start" x="168" y="-632" font-family="Helvetica,sans-Serif" font-size="10.00">Realm::CompQueueImpl</text>
<text text-anchor="middle" x="228" y="-621" font-family="Helvetica,sans-Serif" font-size="10.00">::CompQueueWaiter</text>
</a>
</g>
</g>
<!-- Node1&#45;&gt;Node2 -->
<g id="edge1_Node000001_Node000002" class="edge">
<title>Node1&#45;&gt;Node2</title>
<g id="a_edge1_Node000001_Node000002"><a xlink:title=" ">
<path fill="none" stroke="#63b8ff" d="M57.81,-336.67C59.72,-388.27 72.09,-528.79 149,-605 152.42,-608.39 156.31,-611.3 160.48,-613.81"/>
<polygon fill="#63b8ff" stroke="#63b8ff" points="61.31,-336.45 57.54,-326.55 54.31,-336.64 61.31,-336.45"/>
</a>
</g>
</g>
<!-- Node3 -->
<g id="Node000003" class="node">
<title>Node3</title>
<g id="a_Node000003"><a xlink:href="classRealm_1_1CompQueueImpl_1_1DeferredDestroy.html" target="_top" xlink:title=" ">
<polygon fill="white" stroke="#666666" points="296,-596 160,-596 160,-566 296,-566 296,-596"/>
<text text-anchor="start" x="168" y="-584" font-family="Helvetica,sans-Serif" font-size="10.00">Realm::CompQueueImpl</text>
<text text-anchor="middle" x="228" y="-573" font-family="Helvetica,sans-Serif" font-size="10.00">::DeferredDestroy</text>
</a>
</g>
</g>
<!-- Node1&#45;&gt;Node3 -->
<g id="edge2_Node000001_Node000003" class="edge">
<title>Node1&#45;&gt;Node3</title>
<g id="a_edge2_Node000001_Node000003"><a xlink:title=" ">
<path fill="none" stroke="#63b8ff" d="M59.3,-337.01C64.49,-382.76 83.58,-495.75 149,-557 152.62,-560.39 156.71,-563.3 161.07,-565.8"/>
<polygon fill="#63b8ff" stroke="#63b8ff" points="62.76,-336.49 58.26,-326.9 55.8,-337.21 62.76,-336.49"/>
</a>
</g>
</g>
<!-- Node4 -->
<g id="Node000004" class="node">
<title>Node4</title>
<g id="a_Node000004"><a xlink:href="classRealm_1_1EventMerger_1_1MergeEventPrecondition.html" target="_top" xlink:title=" ">
<polygon fill="white" stroke="#666666" points="299,-548 157,-548 157,-518 299,-518 299,-548"/>
<text text-anchor="start" x="165" y="-536" font-family="Helvetica,sans-Serif" font-size="10.00">Realm::EventMerger</text>
<text text-anchor="middle" x="228" y="-525" font-family="Helvetica,sans-Serif" font-size="10.00">::MergeEventPrecondition</text>
</a>
</g>
</g>
<!-- Node1&#45;&gt;Node4 -->
<g id="edge3_Node000001_Node000004" class="edge">
<title>Node1&#45;&gt;Node4</title>
<g id="a_edge3_Node000001_Node000004"><a xlink:title=" ">
<path fill="none" stroke="#63b8ff" d="M61.36,-336.63C70,-375.37 94.57,-462 149,-509 152.97,-512.43 157.42,-515.36 162.13,-517.88"/>
<polygon fill="#63b8ff" stroke="#63b8ff" points="64.74,-335.7 59.25,-326.64 57.89,-337.14 64.74,-335.7"/>
</a>
</g>
</g>
<!-- Node5 -->
<g id="Node000005" class="node">
<title>Node5</title>
<g id="a_Node000005"><a xlink:href="structRealm_1_1OperationTable_1_1TableEntry.html" target="_top" xlink:title=" ">
<polygon fill="white" stroke="#666666" points="292,-500 164,-500 164,-470 292,-470 292,-500"/>
<text text-anchor="start" x="172" y="-488" font-family="Helvetica,sans-Serif" font-size="10.00">Realm::OperationTable</text>
<text text-anchor="middle" x="228" y="-477" font-family="Helvetica,sans-Serif" font-size="10.00">::TableEntry</text>
</a>
</g>
</g>
<!-- Node1&#45;&gt;Node5 -->
<g id="edge4_Node000001_Node000005" class="edge">
<title>Node1&#45;&gt;Node5</title>
<g id="a_edge4_Node000001_Node000005"><a xlink:title=" ">
<path fill="none" stroke="#63b8ff" d="M64.62,-336.33C77,-367.25 105.39,-427.74 149,-461 153.51,-464.44 158.51,-467.39 163.74,-469.92"/>
<polygon fill="#63b8ff" stroke="#63b8ff" points="67.78,-334.79 60.92,-326.72 61.25,-337.31 67.78,-334.79"/>
</a>
</g>
</g>
<!-- Node6 -->
<g id="Node000006" class="node">
<title>Node6</title>
<g id="a_Node000006"><a xlink:href="classRealm_1_1PartitioningOperation_1_1DeferredLaunch.html" target="_top" xlink:title=" ">
<polygon fill="white" stroke="#666666" points="307,-452 149,-452 149,-422 307,-422 307,-452"/>
<text text-anchor="start" x="157" y="-440" font-family="Helvetica,sans-Serif" font-size="10.00">Realm::PartitioningOperation</text>
<text text-anchor="middle" x="228" y="-429" font-family="Helvetica,sans-Serif" font-size="10.00">::DeferredLaunch</text>
</a>
</g>
</g>
<!-- Node1&#45;&gt;Node6 -->
<g id="edge5_Node000001_Node000006" class="edge">
<title>Node1&#45;&gt;Node6</title>
<g id="a_edge5_Node000001_Node000006"><a xlink:title=" ">
<path fill="none" stroke="#63b8ff" d="M70.09,-335.01C86.07,-356.57 115.59,-392.33 149,-413 154.54,-416.43 160.61,-419.4 166.84,-421.97"/>
<polygon fill="#63b8ff" stroke="#63b8ff" points="72.8,-332.78 64.11,-326.73 67.13,-336.89 72.8,-332.78"/>
</a>
</g>
</g>
<!-- Node7 -->
<g id="Node000007" class="node">
<title>Node7</title>
<g id="a_Node000007"><a xlink:href="classRealm_1_1ProcessorGroupImpl_1_1DeferredDestroy.html" target="_top" xlink:title=" ">
<polygon fill="white" stroke="#666666" points="304,-404 152,-404 152,-374 304,-374 304,-404"/>
<text text-anchor="start" x="160" y="-392" font-family="Helvetica,sans-Serif" font-size="10.00">Realm::ProcessorGroupImpl</text>
<text text-anchor="middle" x="228" y="-381" font-family="Helvetica,sans-Serif" font-size="10.00">::DeferredDestroy</text>
</a>
</g>
</g>
<!-- Node1&#45;&gt;Node7 -->
<g id="edge6_Node000001_Node000007" class="edge">
<title>Node1&#45;&gt;Node7</title>
<g id="a_edge6_Node000001_Node000007"><a xlink:title=" ">
<path fill="none" stroke="#63b8ff" d="M82.34,-331.63C100.41,-341.88 125.7,-355.4 149,-365 156.73,-368.18 165.04,-371.18 173.25,-373.89"/>
<polygon fill="#63b8ff" stroke="#63b8ff" points="84.01,-328.55 73.59,-326.61 80.52,-334.62 84.01,-328.55"/>
</a>
</g>
</g>
<!-- Node8 -->
<g id="Node000008" class="node">
<title>Node8</title>
<g id="a_Node000008"><a xlink:href="classRealm_1_1RegionInstanceImpl_1_1DeferredCreate.html" target="_top" xlink:title=" ">
<polygon fill="white" stroke="#666666" points="303.5,-356 152.5,-356 152.5,-326 303.5,-326 303.5,-356"/>
<text text-anchor="start" x="160.5" y="-344" font-family="Helvetica,sans-Serif" font-size="10.00">Realm::RegionInstanceImpl</text>
<text text-anchor="middle" x="228" y="-333" font-family="Helvetica,sans-Serif" font-size="10.00">::DeferredCreate</text>
</a>
</g>
</g>
<!-- Node1&#45;&gt;Node8 -->
<g id="edge7_Node000001_Node000008" class="edge">
<title>Node1&#45;&gt;Node8</title>
<g id="a_edge7_Node000001_Node000008"><a xlink:title=" ">
<path fill="none" stroke="#63b8ff" d="M123.18,-326.3C132.72,-327.65 142.58,-329.05 152.28,-330.42"/>
<polygon fill="#63b8ff" stroke="#63b8ff" points="123.39,-322.8 113,-324.86 122.41,-329.73 123.39,-322.8"/>
</a>
</g>
</g>
<!-- Node9 -->
<g id="Node000009" class="node">
<title>Node9</title>
<g id="a_Node000009"><a xlink:href="classRealm_1_1RegionInstanceImpl_1_1DeferredDestroy.html" target="_top" xlink:title=" ">
<polygon fill="white" stroke="#666666" points="303.5,-308 152.5,-308 152.5,-278 303.5,-278 303.5,-308"/>
<text text-anchor="start" x="160.5" y="-296" font-family="Helvetica,sans-Serif" font-size="10.00">Realm::RegionInstanceImpl</text>
<text text-anchor="middle" x="228" y="-285" font-family="Helvetica,sans-Serif" font-size="10.00">::DeferredDestroy</text>
</a>
</g>
</g>
<!-- Node1&#45;&gt;Node9 -->
<g id="edge8_Node000001_Node000009" class="edge">
<title>Node1&#45;&gt;Node9</title>
<g id="a_edge8_Node000001_Node000009"><a xlink:title=" ">
<path fill="none" stroke="#63b8ff" d="M123.18,-307.7C132.72,-306.35 142.58,-304.95 152.28,-303.58"/>
<polygon fill="#63b8ff" stroke="#63b8ff" points="122.41,-304.27 113,-309.14 123.39,-311.2 122.41,-304.27"/>
</a>
</g>
</g>
<!-- Node10 -->
<g id="Node000010" class="node">
<title>Node10</title>
<g id="a_Node000010"><a xlink:href="classRealm_1_1RuntimeImpl_1_1DeferredShutdown.html" target="_top" xlink:title=" ">
<polygon fill="white" stroke="#666666" points="286.5,-260 169.5,-260 169.5,-230 286.5,-230 286.5,-260"/>
<text text-anchor="start" x="177.5" y="-248" font-family="Helvetica,sans-Serif" font-size="10.00">Realm::RuntimeImpl</text>
<text text-anchor="middle" x="228" y="-237" font-family="Helvetica,sans-Serif" font-size="10.00">::DeferredShutdown</text>
</a>
</g>
</g>
<!-- Node1&#45;&gt;Node10 -->
<g id="edge9_Node000001_Node000010" class="edge">
<title>Node1&#45;&gt;Node10</title>
<g id="a_edge9_Node000001_Node000010"><a xlink:title=" ">
<path fill="none" stroke="#63b8ff" d="M82.34,-302.37C100.41,-292.12 125.7,-278.6 149,-269 156.73,-265.82 165.04,-262.82 173.25,-260.11"/>
<polygon fill="#63b8ff" stroke="#63b8ff" points="80.52,-299.38 73.59,-307.39 84.01,-305.45 80.52,-299.38"/>
</a>
</g>
</g>
<!-- Node11 -->
<g id="Node000011" class="node">
<title>Node11</title>
<g id="a_Node000011"><a xlink:href="classRealm_1_1SubgraphImpl_1_1DeferredDestroy.html" target="_top" xlink:title=" ">
<polygon fill="white" stroke="#666666" points="289,-212 167,-212 167,-182 289,-182 289,-212"/>
<text text-anchor="start" x="175" y="-200" font-family="Helvetica,sans-Serif" font-size="10.00">Realm::SubgraphImpl</text>
<text text-anchor="middle" x="228" y="-189" font-family="Helvetica,sans-Serif" font-size="10.00">::DeferredDestroy</text>
</a>
</g>
</g>
<!-- Node1&#45;&gt;Node11 -->
<g id="edge10_Node000001_Node000011" class="edge">
<title>Node1&#45;&gt;Node11</title>
<g id="a_edge10_Node000001_Node000011"><a xlink:title=" ">
<path fill="none" stroke="#63b8ff" d="M70.09,-298.99C86.07,-277.43 115.59,-241.67 149,-221 154.54,-217.57 160.61,-214.6 166.84,-212.03"/>
<polygon fill="#63b8ff" stroke="#63b8ff" points="67.13,-297.11 64.11,-307.27 72.8,-301.22 67.13,-297.11"/>
</a>
</g>
</g>
<!-- Node12 -->
<g id="Node000012" class="node">
<title>Node12</title>
<g id="a_Node000012"><a xlink:href="classRealm_1_1Task_1_1DeferredSpawn.html" target="_top" xlink:title=" ">
<polygon fill="white" stroke="#666666" points="306.5,-163.5 149.5,-163.5 149.5,-144.5 306.5,-144.5 306.5,-163.5"/>
<text text-anchor="middle" x="228" y="-151.5" font-family="Helvetica,sans-Serif" font-size="10.00">Realm::Task::DeferredSpawn</text>
</a>
</g>
</g>
<!-- Node1&#45;&gt;Node12 -->
<g id="edge11_Node000001_Node000012" class="edge">
<title>Node1&#45;&gt;Node12</title>
<g id="a_edge11_Node000001_Node000012"><a xlink:title=" ">
<path fill="none" stroke="#63b8ff" d="M64.23,-297.82C76.19,-266.61 104.2,-205.1 149,-173 154.44,-169.1 160.58,-166 166.97,-163.53"/>
<polygon fill="#63b8ff" stroke="#63b8ff" points="60.83,-296.9 60.66,-307.5 67.4,-299.32 60.83,-296.9"/>
</a>
</g>
</g>
<!-- Node13 -->
<g id="Node000013" class="node">
<title>Node13</title>
<g id="a_Node000013"><a xlink:href="classRealm_1_1TransferDesc_1_1DeferredAnalysis.html" target="_top" xlink:title=" ">
<polygon fill="white" stroke="#666666" points="286.5,-126 169.5,-126 169.5,-96 286.5,-96 286.5,-126"/>
<text text-anchor="start" x="177.5" y="-114" font-family="Helvetica,sans-Serif" font-size="10.00">Realm::TransferDesc</text>
<text text-anchor="middle" x="228" y="-103" font-family="Helvetica,sans-Serif" font-size="10.00">::DeferredAnalysis</text>
</a>
</g>
</g>
<!-- Node1&#45;&gt;Node13 -->
<g id="edge12_Node000001_Node000013" class="edge">
<title>Node1&#45;&gt;Node13</title>
<g id="a_edge12_Node000001_Node000013"><a xlink:title=" ">
<path fill="none" stroke="#63b8ff" d="M62.14,-297.02C71.79,-259.86 97.54,-179.91 149,-136 154.95,-130.92 161.94,-126.87 169.26,-123.64"/>
<polygon fill="#63b8ff" stroke="#63b8ff" points="58.65,-296.54 59.65,-307.09 65.44,-298.22 58.65,-296.54"/>
</a>
</g>
</g>
<!-- Node14 -->
<g id="Node000014" class="node">
<title>Node14</title>
<g id="a_Node000014"><a xlink:href="classRealm_1_1TransferOperation_1_1DeferredStart.html" target="_top" xlink:title=" ">
<polygon fill="white" stroke="#666666" points="298.5,-78 157.5,-78 157.5,-48 298.5,-48 298.5,-78"/>
<text text-anchor="start" x="165.5" y="-66" font-family="Helvetica,sans-Serif" font-size="10.00">Realm::TransferOperation</text>
<text text-anchor="middle" x="228" y="-55" font-family="Helvetica,sans-Serif" font-size="10.00">::DeferredStart</text>
</a>
</g>
</g>
<!-- Node1&#45;&gt;Node14 -->
<g id="edge13_Node000001_Node000014" class="edge">
<title>Node1&#45;&gt;Node14</title>
<g id="a_edge13_Node000001_Node000014"><a xlink:title=" ">
<path fill="none" stroke="#63b8ff" d="M59.69,-296.91C65.6,-252.48 85.96,-145.18 149,-87 152.75,-83.54 156.98,-80.58 161.5,-78.05"/>
<polygon fill="#63b8ff" stroke="#63b8ff" points="56.19,-296.67 58.45,-307.02 63.14,-297.51 56.19,-296.67"/>
</a>
</g>
</g>
<!-- Node15 -->
<g id="Node000015" class="node">
<title>Node15</title>
<g id="a_Node000015"><a xlink:href="classRealm_1_1XferDes_1_1DeferredXDEnqueue.html" target="_top" xlink:title=" ">
<polygon fill="white" stroke="#666666" points="299,-30 157,-30 157,0 299,0 299,-30"/>
<text text-anchor="start" x="165" y="-18" font-family="Helvetica,sans-Serif" font-size="10.00">Realm::XferDes::Deferred</text>
<text text-anchor="middle" x="228" y="-7" font-family="Helvetica,sans-Serif" font-size="10.00">XDEnqueue</text>
</a>
</g>
</g>
<!-- Node1&#45;&gt;Node15 -->
<g id="edge14_Node000001_Node000015" class="edge">
<title>Node1&#45;&gt;Node15</title>
<g id="a_edge14_Node000001_Node000015"><a xlink:title=" ">
<path fill="none" stroke="#63b8ff" d="M58.09,-297C60.69,-246.37 74.62,-111.94 149,-39 152.54,-35.53 156.57,-32.56 160.89,-30.01"/>
<polygon fill="#63b8ff" stroke="#63b8ff" points="54.58,-297.1 57.67,-307.24 61.58,-297.39 54.58,-297.1"/>
</a>
</g>
</g>
</g>
</svg>
