<?xml version="1.0" encoding="UTF-8" standalone="no"?>
<!DOCTYPE svg PUBLIC "-//W3C//DTD SVG 1.1//EN"
 "http://www.w3.org/Graphics/SVG/1.1/DTD/svg11.dtd">
<!-- Generated by graphviz version 2.43.0 (0)
 -->
<!-- Title: Realm::IndirectionInfoTyped&lt; N, T, N2, T2 &gt; Pages: 1 -->
<svg width="468pt" height="160pt"
 viewBox="0.00 0.00 467.50 160.00" xmlns="http://www.w3.org/2000/svg" xmlns:xlink="http://www.w3.org/1999/xlink">
<g id="graph0" class="graph" transform="scale(1 1) rotate(0) translate(4 156)">
<title>Realm::IndirectionInfoTyped&lt; N, T, N2, T2 &gt;</title>
<!-- Node1 -->
<g id="Node000001" class="node">
<title>Node1</title>
<g id="a_Node000001"><a xlink:title=" ">
<polygon fill="#999999" stroke="#666666" points="397,-30 244,-30 244,0 397,0 397,-30"/>
<text text-anchor="start" x="252" y="-18" font-family="Helvetica,sans-Serif" font-size="10.00">Realm::IndirectionInfoTyped</text>
<text text-anchor="middle" x="320.5" y="-7" font-family="Helvetica,sans-Serif" font-size="10.00">&lt; N, T, N2, T2 &gt;</text>
</a>
</g>
</g>
<!-- Node2 -->
<g id="Node000002" class="node">
<title>Node2</title>
<g id="a_Node000002"><a xlink:href="classRealm_1_1IndirectionInfoBase.html" target="_top" xlink:title=" ">
<polygon fill="white" stroke="#666666" points="324,-86 175,-86 175,-67 324,-67 324,-86"/>
<text text-anchor="middle" x="249.5" y="-74" font-family="Helvetica,sans-Serif" font-size="10.00">Realm::IndirectionInfoBase</text>
</a>
</g>
</g>
<!-- Node2&#45;&gt;Node1 -->
<g id="edge1_Node000001_Node000002" class="edge">
<title>Node2&#45;&gt;Node1</title>
<g id="a_edge1_Node000001_Node000002"><a xlink:title=" ">
<path fill="none" stroke="#63b8ff" d="M267.49,-60.42C278.64,-51.08 292.86,-39.16 303.77,-30.02"/>
<polygon fill="#63b8ff" stroke="#63b8ff" points="265.09,-57.87 259.67,-66.98 269.59,-63.23 265.09,-57.87"/>
</a>
</g>
</g>
<!-- Node3 -->
<g id="Node000003" class="node">
<title>Node3</title>
<g id="a_Node000003"><a xlink:href="classRealm_1_1IndirectionInfo.html" target="_top" xlink:title=" ">
<polygon fill="white" stroke="#666666" points="125,-152 0,-152 0,-133 125,-133 125,-152"/>
<text text-anchor="middle" x="62.5" y="-140" font-family="Helvetica,sans-Serif" font-size="10.00">Realm::IndirectionInfo</text>
</a>
</g>
</g>
<!-- Node3&#45;&gt;Node2 -->
<g id="edge2_Node000002_Node000003" class="edge">
<title>Node3&#45;&gt;Node2</title>
<g id="a_edge2_Node000002_Node000003"><a xlink:title=" ">
<path fill="none" stroke="#63b8ff" d="M97.56,-129.5C134.49,-116.86 191.72,-97.28 224.38,-86.1"/>
<polygon fill="#63b8ff" stroke="#63b8ff" points="96.05,-126.32 87.72,-132.87 98.31,-132.94 96.05,-126.32"/>
</a>
</g>
</g>
<!-- Node4 -->
<g id="Node000004" class="node">
<title>Node4</title>
<g id="a_Node000004"><a xlink:href="classRealm_1_1RegionInstance.html" target="_top" xlink:title=" ">
<polygon fill="white" stroke="#666666" points="272,-152 143,-152 143,-133 272,-133 272,-152"/>
<text text-anchor="middle" x="207.5" y="-140" font-family="Helvetica,sans-Serif" font-size="10.00">Realm::RegionInstance</text>
</a>
</g>
</g>
<!-- Node4&#45;&gt;Node2 -->
<g id="edge3_Node000002_Node000004" class="edge">
<title>Node4&#45;&gt;Node2</title>
<g id="a_edge3_Node000002_Node000004"><a xlink:title=" ">
<path fill="none" stroke="#9a32cd" stroke-dasharray="5,2" d="M218.72,-124.41C226.74,-112.18 237.23,-96.2 243.66,-86.41"/>
<polygon fill="#9a32cd" stroke="#9a32cd" points="215.72,-122.59 213.16,-132.87 221.58,-126.43 215.72,-122.59"/>
</a>
</g>
<text text-anchor="middle" x="242.5" y="-107" font-family="Helvetica,sans-Serif" font-size="10.00" fill="grey"> inst</text>
</g>
<!-- Node4&#45;&gt;Node4 -->
<g id="edge4_Node000004_Node000004" class="edge">
<title>Node4&#45;&gt;Node4</title>
<g id="a_edge4_Node000004_Node000004"><a xlink:title=" ">
<path fill="none" stroke="#9a32cd" stroke-dasharray="5,2" d="M282.1,-146.79C287.02,-145.79 290,-144.36 290,-142.5 290,-139.59 282.74,-137.74 272.18,-136.95"/>
<polygon fill="#9a32cd" stroke="#9a32cd" points="281.66,-143.31 272.18,-148.05 282.54,-150.26 281.66,-143.31"/>
</a>
</g>
<text text-anchor="middle" x="313" y="-140" font-family="Helvetica,sans-Serif" font-size="10.00" fill="grey"> NO_INST</text>
</g>
<!-- Node5 -->
<g id="Node000005" class="node">
<title>Node5</title>
<g id="a_Node000005"><a xlink:href="classRealm_1_1Channel.html" target="_top" xlink:title=" ">
<polygon fill="white" stroke="#666666" points="448.5,-152 354.5,-152 354.5,-133 448.5,-133 448.5,-152"/>
<text text-anchor="middle" x="401.5" y="-140" font-family="Helvetica,sans-Serif" font-size="10.00">Realm::Channel</text>
</a>
</g>
</g>
<!-- Node5&#45;&gt;Node1 -->
<g id="edge6_Node000001_Node000005" class="edge">
<title>Node5&#45;&gt;Node1</title>
<g id="a_edge6_Node000001_Node000005"><a xlink:title=" ">
<path fill="none" stroke="#9a32cd" stroke-dasharray="5,2" d="M390.54,-124.34C386.46,-117.95 381.77,-110.64 377.5,-104 360.65,-77.83 340.88,-47.36 329.61,-30.01"/>
<polygon fill="#9a32cd" stroke="#9a32cd" points="387.65,-126.31 395.98,-132.85 393.55,-122.54 387.65,-126.31"/>
</a>
</g>
<text text-anchor="middle" x="412" y="-74" font-family="Helvetica,sans-Serif" font-size="10.00" fill="grey"> addr_split_channel</text>
</g>
<!-- Node5&#45;&gt;Node2 -->
<g id="edge5_Node000002_Node000005" class="edge">
<title>Node5&#45;&gt;Node2</title>
<g id="a_edge5_Node000002_Node000005"><a xlink:title=" ">
<path fill="none" stroke="#9a32cd" stroke-dasharray="5,2" d="M344.4,-131.21C321.26,-126.43 297.62,-120.58 287.5,-115 274.35,-107.75 262.62,-94.66 255.79,-86.02"/>
<polygon fill="#9a32cd" stroke="#9a32cd" points="343.75,-134.65 354.24,-133.19 345.13,-127.79 343.75,-134.65"/>
</a>
</g>
<text text-anchor="middle" x="332.5" y="-107" font-family="Helvetica,sans-Serif" font-size="10.00" fill="grey"> addrsplit_channel</text>
</g>
</g>
</svg>
