<?xml version="1.0" encoding="UTF-8" standalone="no"?>
<!DOCTYPE svg PUBLIC "-//W3C//DTD SVG 1.1//EN"
 "http://www.w3.org/Graphics/SVG/1.1/DTD/svg11.dtd">
<!-- Generated by graphviz version 2.43.0 (0)
 -->
<!-- Title: Realm::ProfilingRequest Pages: 1 -->
<svg width="307pt" height="149pt"
 viewBox="0.00 0.00 307.00 149.00" xmlns="http://www.w3.org/2000/svg" xmlns:xlink="http://www.w3.org/1999/xlink">
<g id="graph0" class="graph" transform="scale(1 1) rotate(0) translate(4 145)">
<title>Realm::ProfilingRequest</title>
<!-- Node1 -->
<g id="Node000001" class="node">
<title>Node1</title>
<g id="a_Node000001"><a xlink:title=" ">
<polygon fill="#999999" stroke="#666666" points="211.5,-19 77.5,-19 77.5,0 211.5,0 211.5,-19"/>
<text text-anchor="middle" x="144.5" y="-7" font-family="Helvetica,sans-Serif" font-size="10.00">Realm::ProfilingRequest</text>
</a>
</g>
</g>
<!-- Node2 -->
<g id="Node000002" class="node">
<title>Node2</title>
<g id="a_Node000002"><a xlink:href="classRealm_1_1Processor.html" target="_top" xlink:title=" ">
<polygon fill="white" stroke="#666666" points="101,-85 0,-85 0,-66 101,-66 101,-85"/>
<text text-anchor="middle" x="50.5" y="-73" font-family="Helvetica,sans-Serif" font-size="10.00">Realm::Processor</text>
</a>
</g>
</g>
<!-- Node2&#45;&gt;Node1 -->
<g id="edge1_Node000001_Node000002" class="edge">
<title>Node2&#45;&gt;Node1</title>
<g id="a_edge1_Node000001_Node000002"><a xlink:title=" ">
<path fill="none" stroke="#9a32cd" stroke-dasharray="5,2" d="M71.53,-60.18C90,-47.61 116.26,-29.73 131.72,-19.2"/>
<polygon fill="#9a32cd" stroke="#9a32cd" points="69.47,-57.35 63.18,-65.87 73.41,-63.13 69.47,-57.35"/>
</a>
</g>
<text text-anchor="middle" x="139.5" y="-40" font-family="Helvetica,sans-Serif" font-size="10.00" fill="grey"> response_proc</text>
</g>
<!-- Node2&#45;&gt;Node2 -->
<g id="edge2_Node000002_Node000002" class="edge">
<title>Node2&#45;&gt;Node2</title>
<g id="a_edge2_Node000002_Node000002"><a xlink:title=" ">
<path fill="none" stroke="#9a32cd" stroke-dasharray="5,2" d="M111.43,-79.45C116.11,-78.58 119,-77.26 119,-75.5 119,-72.68 111.61,-71 101.28,-70.45"/>
<polygon fill="#9a32cd" stroke="#9a32cd" points="110.85,-75.99 101.28,-80.55 111.6,-82.95 110.85,-75.99"/>
</a>
</g>
<text text-anchor="middle" x="144.5" y="-73" font-family="Helvetica,sans-Serif" font-size="10.00" fill="grey"> NO_PROC</text>
</g>
<!-- Node3 -->
<g id="Node000003" class="node">
<title>Node3</title>
<g id="a_Node000003"><a xlink:href="classRealm_1_1ByteArray.html" target="_top" xlink:title=" ">
<polygon fill="white" stroke="#666666" points="291,-85 188,-85 188,-66 291,-66 291,-85"/>
<text text-anchor="middle" x="239.5" y="-73" font-family="Helvetica,sans-Serif" font-size="10.00">Realm::ByteArray</text>
</a>
</g>
</g>
<!-- Node3&#45;&gt;Node1 -->
<g id="edge3_Node000001_Node000003" class="edge">
<title>Node3&#45;&gt;Node1</title>
<g id="a_edge3_Node000001_Node000003"><a xlink:title=" ">
<path fill="none" stroke="#9a32cd" stroke-dasharray="5,2" d="M218.24,-60.18C199.58,-47.61 173.04,-29.73 157.41,-19.2"/>
<polygon fill="#9a32cd" stroke="#9a32cd" points="216.44,-63.18 226.69,-65.87 220.35,-57.38 216.44,-63.18"/>
</a>
</g>
<text text-anchor="middle" x="223.5" y="-40" font-family="Helvetica,sans-Serif" font-size="10.00" fill="grey"> user_data</text>
</g>
<!-- Node4 -->
<g id="Node000004" class="node">
<title>Node4</title>
<g id="a_Node000004"><a xlink:href="classRealm_1_1ByteArrayRef.html" target="_top" xlink:title=" ">
<polygon fill="white" stroke="#666666" points="299,-141 180,-141 180,-122 299,-122 299,-141"/>
<text text-anchor="middle" x="239.5" y="-129" font-family="Helvetica,sans-Serif" font-size="10.00">Realm::ByteArrayRef</text>
</a>
</g>
</g>
<!-- Node4&#45;&gt;Node3 -->
<g id="edge4_Node000003_Node000004" class="edge">
<title>Node4&#45;&gt;Node3</title>
<g id="a_edge4_Node000003_Node000004"><a xlink:title=" ">
<path fill="none" stroke="#63b8ff" d="M239.5,-111.3C239.5,-102.41 239.5,-92.28 239.5,-85.25"/>
<polygon fill="#63b8ff" stroke="#63b8ff" points="236,-111.58 239.5,-121.58 243,-111.58 236,-111.58"/>
</a>
</g>
</g>
</g>
</svg>
