<?xml version="1.0" encoding="UTF-8" standalone="no"?>
<!DOCTYPE svg PUBLIC "-//W3C//DTD SVG 1.1//EN"
 "http://www.w3.org/Graphics/SVG/1.1/DTD/svg11.dtd">
<!-- Generated by graphviz version 2.43.0 (0)
 -->
<!-- Title: Realm::HDF5::HDF5Request Pages: 1 -->
<svg width="1671pt" height="378pt"
 viewBox="0.00 0.00 1671.00 378.00" xmlns="http://www.w3.org/2000/svg" xmlns:xlink="http://www.w3.org/1999/xlink">
<g id="graph0" class="graph" transform="scale(1 1) rotate(0) translate(4 374)">
<title>Realm::HDF5::HDF5Request</title>
<!-- Node1 -->
<g id="Node000001" class="node">
<title>Node1</title>
<g id="a_Node000001"><a xlink:title=" ">
<polygon fill="#999999" stroke="#666666" points="1663,-79.5 1509,-79.5 1509,-60.5 1663,-60.5 1663,-79.5"/>
<text text-anchor="middle" x="1586" y="-67.5" font-family="Helvetica,sans-Serif" font-size="10.00">Realm::HDF5::HDF5Request</text>
</a>
</g>
</g>
<!-- Node2 -->
<g id="Node000002" class="node">
<title>Node2</title>
<g id="a_Node000002"><a xlink:href="classRealm_1_1Request.html" target="_top" xlink:title=" ">
<polygon fill="white" stroke="#666666" points="1442.5,-79.5 1348.5,-79.5 1348.5,-60.5 1442.5,-60.5 1442.5,-79.5"/>
<text text-anchor="middle" x="1395.5" y="-67.5" font-family="Helvetica,sans-Serif" font-size="10.00">Realm::Request</text>
</a>
</g>
</g>
<!-- Node2&#45;&gt;Node1 -->
<g id="edge1_Node000001_Node000002" class="edge">
<title>Node2&#45;&gt;Node1</title>
<g id="a_edge1_Node000001_Node000002"><a xlink:title=" ">
<path fill="none" stroke="#63b8ff" d="M1452.72,-70C1470.35,-70 1490.12,-70 1508.89,-70"/>
<polygon fill="#63b8ff" stroke="#63b8ff" points="1452.61,-66.5 1442.61,-70 1452.61,-73.5 1452.61,-66.5"/>
</a>
</g>
</g>
<!-- Node3 -->
<g id="Node000003" class="node">
<title>Node3</title>
<g id="a_Node000003"><a xlink:href="classRealm_1_1XferDes.html" target="_top" xlink:title=" ">
<polygon fill="white" stroke="#666666" points="1180,-191.5 1087,-191.5 1087,-172.5 1180,-172.5 1180,-191.5"/>
<text text-anchor="middle" x="1133.5" y="-179.5" font-family="Helvetica,sans-Serif" font-size="10.00">Realm::XferDes</text>
</a>
</g>
</g>
<!-- Node3&#45;&gt;Node2 -->
<g id="edge2_Node000002_Node000003" class="edge">
<title>Node3&#45;&gt;Node2</title>
<g id="a_edge2_Node000002_Node000003"><a xlink:title=" ">
<path fill="none" stroke="#9a32cd" stroke-dasharray="5,2" d="M1147.19,-164.15C1160.38,-146.99 1182.62,-121.69 1208,-108 1251.91,-84.3 1308.91,-75.34 1348.27,-71.97"/>
<polygon fill="#9a32cd" stroke="#9a32cd" points="1144.3,-162.16 1141.15,-172.28 1149.92,-166.34 1144.3,-162.16"/>
</a>
</g>
<text text-anchor="middle" x="1254.5" y="-111" font-family="Helvetica,sans-Serif" font-size="10.00" fill="grey"> xd</text>
</g>
<!-- Node17 -->
<g id="Node000017" class="node">
<title>Node17</title>
<g id="a_Node000017"><a xlink:href="structRealm_1_1IntrusivePriorityListLink.html" target="_top" xlink:title=" ">
<polygon fill="white" stroke="#666666" points="1472,-174 1319,-174 1319,-144 1472,-144 1472,-174"/>
<text text-anchor="start" x="1327" y="-162" font-family="Helvetica,sans-Serif" font-size="10.00">Realm::IntrusivePriority</text>
<text text-anchor="middle" x="1395.5" y="-151" font-family="Helvetica,sans-Serif" font-size="10.00">ListLink&lt; Realm::XferDes &gt;</text>
</a>
</g>
</g>
<!-- Node3&#45;&gt;Node17 -->
<g id="edge18_Node000017_Node000003" class="edge">
<title>Node3&#45;&gt;Node17</title>
<g id="a_edge18_Node000017_Node000003"><a xlink:title=" ">
<path fill="none" stroke="#9a32cd" stroke-dasharray="5,2" d="M1151.57,-165.21C1165.48,-152.8 1186.29,-136.9 1208,-130 1258.9,-113.82 1320.59,-130 1358.7,-143.89"/>
<polygon fill="#9a32cd" stroke="#9a32cd" points="1148.81,-163.01 1143.87,-172.38 1153.57,-168.14 1148.81,-163.01"/>
</a>
</g>
<text text-anchor="middle" x="1254.5" y="-155" font-family="Helvetica,sans-Serif" font-size="10.00" fill="grey"> lastlink_within_pri</text>
<text text-anchor="middle" x="1254.5" y="-144" font-family="Helvetica,sans-Serif" font-size="10.00" fill="grey">next_lower_pri</text>
<text text-anchor="middle" x="1254.5" y="-133" font-family="Helvetica,sans-Serif" font-size="10.00" fill="grey">next_within_pri</text>
</g>
<!-- Node18 -->
<g id="Node000018" class="node">
<title>Node18</title>
<g id="a_Node000018"><a xlink:href="classRealm_1_1XferDes_1_1DeferredXDEnqueue.html" target="_top" xlink:title=" ">
<polygon fill="white" stroke="#666666" points="1466.5,-251 1324.5,-251 1324.5,-221 1466.5,-221 1466.5,-251"/>
<text text-anchor="start" x="1332.5" y="-239" font-family="Helvetica,sans-Serif" font-size="10.00">Realm::XferDes::Deferred</text>
<text text-anchor="middle" x="1395.5" y="-228" font-family="Helvetica,sans-Serif" font-size="10.00">XDEnqueue</text>
</a>
</g>
</g>
<!-- Node3&#45;&gt;Node18 -->
<g id="edge24_Node000018_Node000003" class="edge">
<title>Node3&#45;&gt;Node18</title>
<g id="a_edge24_Node000018_Node000003"><a xlink:title=" ">
<path fill="none" stroke="#9a32cd" stroke-dasharray="5,2" d="M1152.84,-198.1C1166.88,-209.35 1187.3,-223.47 1208,-230 1245.23,-241.74 1288.73,-243.75 1324.35,-242.6"/>
<polygon fill="#9a32cd" stroke="#9a32cd" points="1154.9,-195.27 1144.97,-191.57 1150.42,-200.65 1154.9,-195.27"/>
</a>
</g>
<text text-anchor="middle" x="1254.5" y="-245" font-family="Helvetica,sans-Serif" font-size="10.00" fill="grey"> xd</text>
</g>
<!-- Node4 -->
<g id="Node000004" class="node">
<title>Node4</title>
<g id="a_Node000004"><a xlink:href="classRealm_1_1XferDesQueue.html" target="_top" xlink:title=" ">
<polygon fill="white" stroke="#666666" points="918,-279.5 793,-279.5 793,-260.5 918,-260.5 918,-279.5"/>
<text text-anchor="middle" x="855.5" y="-267.5" font-family="Helvetica,sans-Serif" font-size="10.00">Realm::XferDesQueue</text>
</a>
</g>
</g>
<!-- Node4&#45;&gt;Node3 -->
<g id="edge3_Node000003_Node000004" class="edge">
<title>Node4&#45;&gt;Node3</title>
<g id="a_edge3_Node000003_Node000004"><a xlink:title=" ">
<path fill="none" stroke="#9a32cd" stroke-dasharray="5,2" d="M928.24,-258.8C976.57,-250.69 1035.61,-239.53 1059,-230 1082.71,-220.34 1106.96,-202.69 1120.82,-191.69"/>
<polygon fill="#9a32cd" stroke="#9a32cd" points="927.4,-255.39 918.11,-260.48 928.55,-262.3 927.4,-255.39"/>
</a>
</g>
<text text-anchor="middle" x="1005" y="-257" font-family="Helvetica,sans-Serif" font-size="10.00" fill="grey"> xferDes_queue</text>
</g>
<!-- Node4&#45;&gt;Node18 -->
<g id="edge23_Node000018_Node000004" class="edge">
<title>Node4&#45;&gt;Node18</title>
<g id="a_edge23_Node000018_Node000004"><a xlink:title=" ">
<path fill="none" stroke="#9a32cd" stroke-dasharray="5,2" d="M928.48,-272.56C1016.71,-274.62 1170.57,-274.75 1301,-257 1311.96,-255.51 1323.54,-253.37 1334.67,-251.03"/>
<polygon fill="#9a32cd" stroke="#9a32cd" points="928.4,-269.05 918.32,-272.3 928.23,-276.05 928.4,-269.05"/>
</a>
</g>
<text text-anchor="middle" x="1133.5" y="-275" font-family="Helvetica,sans-Serif" font-size="10.00" fill="grey"> xferDes_queue</text>
</g>
<!-- Node5 -->
<g id="Node000005" class="node">
<title>Node5</title>
<g id="a_Node000005"><a xlink:href="classRealm_1_1UnfairMutex.html" target="_top" xlink:title=" ">
<polygon fill="white" stroke="#666666" points="622.5,-310.5 507.5,-310.5 507.5,-291.5 622.5,-291.5 622.5,-310.5"/>
<text text-anchor="middle" x="565" y="-298.5" font-family="Helvetica,sans-Serif" font-size="10.00">Realm::UnfairMutex</text>
</a>
</g>
</g>
<!-- Node5&#45;&gt;Node3 -->
<g id="edge15_Node000003_Node000005" class="edge">
<title>Node5&#45;&gt;Node3</title>
<g id="a_edge15_Node000003_Node000005"><a xlink:title=" ">
<path fill="none" stroke="#9a32cd" stroke-dasharray="5,2" d="M622.66,-312.28C719.22,-328.4 918.79,-348.05 1059,-269 1092.41,-250.16 1117.39,-209.91 1127.53,-191.52"/>
<polygon fill="#9a32cd" stroke="#9a32cd" points="622.97,-308.78 612.53,-310.53 621.79,-315.68 622.97,-308.78"/>
</a>
</g>
<text text-anchor="middle" x="855.5" y="-362" font-family="Helvetica,sans-Serif" font-size="10.00" fill="grey"> available_req_mutex</text>
<text text-anchor="middle" x="855.5" y="-351" font-family="Helvetica,sans-Serif" font-size="10.00" fill="grey">update_read_lock</text>
<text text-anchor="middle" x="855.5" y="-340" font-family="Helvetica,sans-Serif" font-size="10.00" fill="grey">update_write_lock</text>
<text text-anchor="middle" x="855.5" y="-329" font-family="Helvetica,sans-Serif" font-size="10.00" fill="grey">xd_lock</text>
</g>
<!-- Node5&#45;&gt;Node4 -->
<g id="edge4_Node000004_Node000005" class="edge">
<title>Node5&#45;&gt;Node4</title>
<g id="a_edge4_Node000004_Node000005"><a xlink:title=" ">
<path fill="none" stroke="#9a32cd" stroke-dasharray="5,2" d="M618.51,-289.41C632.87,-286.6 648.48,-283.87 663,-282 706.12,-276.45 755.04,-273.44 792.64,-271.82"/>
<polygon fill="#9a32cd" stroke="#9a32cd" points="617.41,-286.06 608.3,-291.47 618.79,-292.93 617.41,-286.06"/>
</a>
</g>
<text text-anchor="middle" x="711.5" y="-296" font-family="Helvetica,sans-Serif" font-size="10.00" fill="grey"> guid_lock</text>
<text text-anchor="middle" x="711.5" y="-285" font-family="Helvetica,sans-Serif" font-size="10.00" fill="grey">queues_lock</text>
</g>
<!-- Node6 -->
<g id="Node000006" class="node">
<title>Node6</title>
<g id="a_Node000006"><a xlink:href="classRealm_1_1noncopyable.html" target="_top" xlink:title=" ">
<polygon fill="white" stroke="#666666" points="396,-347.5 280,-347.5 280,-328.5 396,-328.5 396,-347.5"/>
<text text-anchor="middle" x="338" y="-335.5" font-family="Helvetica,sans-Serif" font-size="10.00">Realm::noncopyable</text>
</a>
</g>
</g>
<!-- Node6&#45;&gt;Node5 -->
<g id="edge5_Node000005_Node000006" class="edge">
<title>Node6&#45;&gt;Node5</title>
<g id="a_edge5_Node000005_Node000006"><a xlink:title=" ">
<path fill="none" stroke="#63b8ff" d="M406.3,-326.93C438.52,-321.63 476.68,-315.36 507.38,-310.31"/>
<polygon fill="#63b8ff" stroke="#63b8ff" points="405.37,-323.54 396.07,-328.62 406.5,-330.45 405.37,-323.54"/>
</a>
</g>
</g>
<!-- Node7 -->
<g id="Node000007" class="node">
<title>Node7</title>
<g id="a_Node000007"><a xlink:href="classRealm_1_1atomic.html" target="_top" xlink:title=" ">
<polygon fill="white" stroke="#666666" points="413,-310.5 263,-310.5 263,-291.5 413,-291.5 413,-310.5"/>
<text text-anchor="middle" x="338" y="-298.5" font-family="Helvetica,sans-Serif" font-size="10.00">Realm::atomic&lt; uint32_t &gt;</text>
</a>
</g>
</g>
<!-- Node7&#45;&gt;Node5 -->
<g id="edge6_Node000005_Node000007" class="edge">
<title>Node7&#45;&gt;Node5</title>
<g id="a_edge6_Node000005_Node000007"><a xlink:title=" ">
<path fill="none" stroke="#9a32cd" stroke-dasharray="5,2" d="M423.47,-301C451.44,-301 481.88,-301 507.25,-301"/>
<polygon fill="#9a32cd" stroke="#9a32cd" points="423.3,-297.5 413.3,-301 423.3,-304.5 423.3,-297.5"/>
</a>
</g>
<text text-anchor="middle" x="449" y="-304" font-family="Helvetica,sans-Serif" font-size="10.00" fill="grey"> state</text>
</g>
<!-- Node8 -->
<g id="Node000008" class="node">
<title>Node8</title>
<g id="a_Node000008"><a xlink:href="classRealm_1_1DoorbellList.html" target="_top" xlink:title=" ">
<polygon fill="white" stroke="#666666" points="394.5,-273.5 281.5,-273.5 281.5,-254.5 394.5,-254.5 394.5,-273.5"/>
<text text-anchor="middle" x="338" y="-261.5" font-family="Helvetica,sans-Serif" font-size="10.00">Realm::DoorbellList</text>
</a>
</g>
</g>
<!-- Node8&#45;&gt;Node5 -->
<g id="edge7_Node000005_Node000008" class="edge">
<title>Node8&#45;&gt;Node5</title>
<g id="a_edge7_Node000005_Node000008"><a xlink:title=" ">
<path fill="none" stroke="#9a32cd" stroke-dasharray="5,2" d="M404.52,-274.77C437.13,-280.14 476.17,-286.56 507.46,-291.7"/>
<polygon fill="#9a32cd" stroke="#9a32cd" points="405.05,-271.32 394.62,-273.15 403.92,-278.22 405.05,-271.32"/>
</a>
</g>
<text text-anchor="middle" x="449" y="-287" font-family="Helvetica,sans-Serif" font-size="10.00" fill="grey"> db_list</text>
</g>
<!-- Node9 -->
<g id="Node000009" class="node">
<title>Node9</title>
<g id="a_Node000009"><a xlink:href="classRealm_1_1atomic.html" target="_top" xlink:title=" ">
<polygon fill="white" stroke="#666666" points="152,-273.5 0,-273.5 0,-254.5 152,-254.5 152,-273.5"/>
<text text-anchor="middle" x="76" y="-261.5" font-family="Helvetica,sans-Serif" font-size="10.00">Realm::atomic&lt; uintptr_t &gt;</text>
</a>
</g>
</g>
<!-- Node9&#45;&gt;Node8 -->
<g id="edge8_Node000008_Node000009" class="edge">
<title>Node9&#45;&gt;Node8</title>
<g id="a_edge8_Node000008_Node000009"><a xlink:title=" ">
<path fill="none" stroke="#9a32cd" stroke-dasharray="5,2" d="M162.52,-264C201.61,-264 246.79,-264 281.38,-264"/>
<polygon fill="#9a32cd" stroke="#9a32cd" points="162.2,-260.5 152.2,-264 162.2,-267.5 162.2,-260.5"/>
</a>
</g>
<text text-anchor="middle" x="207.5" y="-267" font-family="Helvetica,sans-Serif" font-size="10.00" fill="grey"> head_or_count</text>
</g>
<!-- Node10 -->
<g id="Node000010" class="node">
<title>Node10</title>
<g id="a_Node000010"><a xlink:href="classRealm_1_1atomic.html" target="_top" xlink:title=" ">
<polygon fill="white" stroke="#666666" points="645,-256.5 485,-256.5 485,-237.5 645,-237.5 645,-256.5"/>
<text text-anchor="middle" x="565" y="-244.5" font-family="Helvetica,sans-Serif" font-size="10.00">Realm::atomic&lt; XferDesID &gt;</text>
</a>
</g>
</g>
<!-- Node10&#45;&gt;Node4 -->
<g id="edge9_Node000004_Node000010" class="edge">
<title>Node10&#45;&gt;Node4</title>
<g id="a_edge9_Node000004_Node000010"><a xlink:title=" ">
<path fill="none" stroke="#9a32cd" stroke-dasharray="5,2" d="M655.15,-243.3C688.19,-243.02 725.9,-243.99 760,-248 780.75,-250.44 803.56,-255.67 821.58,-260.43"/>
<polygon fill="#9a32cd" stroke="#9a32cd" points="655.02,-239.8 645.06,-243.42 655.1,-246.8 655.02,-239.8"/>
</a>
</g>
<text text-anchor="middle" x="711.5" y="-251" font-family="Helvetica,sans-Serif" font-size="10.00" fill="grey"> next_to_assign_idx</text>
</g>
<!-- Node11 -->
<g id="Node000011" class="node">
<title>Node11</title>
<g id="a_Node000011"><a xlink:href="classRealm_1_1atomic.html" target="_top" xlink:title=" ">
<polygon fill="white" stroke="#666666" points="921,-76.5 790,-76.5 790,-57.5 921,-57.5 921,-76.5"/>
<text text-anchor="middle" x="855.5" y="-64.5" font-family="Helvetica,sans-Serif" font-size="10.00">Realm::atomic&lt; bool &gt;</text>
</a>
</g>
</g>
<!-- Node11&#45;&gt;Node3 -->
<g id="edge10_Node000003_Node000011" class="edge">
<title>Node11&#45;&gt;Node3</title>
<g id="a_edge10_Node000003_Node000011"><a xlink:title=" ">
<path fill="none" stroke="#9a32cd" stroke-dasharray="5,2" d="M931.1,-58C971.33,-56.59 1020.47,-60.68 1059,-82 1096.52,-102.76 1120.12,-151.67 1128.77,-172.42"/>
<polygon fill="#9a32cd" stroke="#9a32cd" points="930.91,-54.5 921.08,-58.47 931.23,-61.5 930.91,-54.5"/>
</a>
</g>
<text text-anchor="middle" x="1005" y="-96" font-family="Helvetica,sans-Serif" font-size="10.00" fill="grey"> iteration_completed</text>
<text text-anchor="middle" x="1005" y="-85" font-family="Helvetica,sans-Serif" font-size="10.00" fill="grey">transfer_completed</text>
</g>
<!-- Node12 -->
<g id="Node000012" class="node">
<title>Node12</title>
<g id="a_Node000012"><a xlink:href="classRealm_1_1atomic.html" target="_top" xlink:title=" ">
<polygon fill="white" stroke="#666666" points="927.5,-39.5 783.5,-39.5 783.5,-20.5 927.5,-20.5 927.5,-39.5"/>
<text text-anchor="middle" x="855.5" y="-27.5" font-family="Helvetica,sans-Serif" font-size="10.00">Realm::atomic&lt; int64_t &gt;</text>
</a>
</g>
</g>
<!-- Node12&#45;&gt;Node3 -->
<g id="edge11_Node000003_Node000012" class="edge">
<title>Node12&#45;&gt;Node3</title>
<g id="a_edge11_Node000003_Node000012"><a xlink:title=" ">
<path fill="none" stroke="#9a32cd" stroke-dasharray="5,2" d="M916.12,-19.28C959.2,-14.8 1016.97,-15.81 1059,-43 1106.67,-73.84 1125.4,-146.33 1130.74,-172.43"/>
<polygon fill="#9a32cd" stroke="#9a32cd" points="915.59,-15.82 906.06,-20.46 916.4,-22.77 915.59,-15.82"/>
</a>
</g>
<text text-anchor="middle" x="1005" y="-46" font-family="Helvetica,sans-Serif" font-size="10.00" fill="grey"> bytes_write_pending</text>
</g>
<!-- Node13 -->
<g id="Node000013" class="node">
<title>Node13</title>
<g id="a_Node000013"><a xlink:href="structRealm_1_1XferDes_1_1ControlPortState.html" target="_top" xlink:title=" ">
<polygon fill="white" stroke="#666666" points="932.5,-232 778.5,-232 778.5,-202 932.5,-202 932.5,-232"/>
<text text-anchor="start" x="786.5" y="-220" font-family="Helvetica,sans-Serif" font-size="10.00">Realm::XferDes::ControlPort</text>
<text text-anchor="middle" x="855.5" y="-209" font-family="Helvetica,sans-Serif" font-size="10.00">State</text>
</a>
</g>
</g>
<!-- Node13&#45;&gt;Node3 -->
<g id="edge12_Node000003_Node000013" class="edge">
<title>Node13&#45;&gt;Node3</title>
<g id="a_edge12_Node000003_Node000013"><a xlink:title=" ">
<path fill="none" stroke="#9a32cd" stroke-dasharray="5,2" d="M942.67,-206.07C990.36,-200.02 1047.72,-192.75 1086.82,-187.79"/>
<polygon fill="#9a32cd" stroke="#9a32cd" points="942.13,-202.61 932.65,-207.34 943.01,-209.56 942.13,-202.61"/>
</a>
</g>
<text text-anchor="middle" x="1005" y="-218" font-family="Helvetica,sans-Serif" font-size="10.00" fill="grey"> input_control</text>
<text text-anchor="middle" x="1005" y="-207" font-family="Helvetica,sans-Serif" font-size="10.00" fill="grey">output_control</text>
</g>
<!-- Node14 -->
<g id="Node000014" class="node">
<title>Node14</title>
<g id="a_Node000014"><a xlink:href="classRealm_1_1ControlPort_1_1Decoder.html" target="_top" xlink:title=" ">
<polygon fill="white" stroke="#666666" points="619.5,-219 510.5,-219 510.5,-189 619.5,-189 619.5,-219"/>
<text text-anchor="start" x="518.5" y="-207" font-family="Helvetica,sans-Serif" font-size="10.00">Realm::ControlPort</text>
<text text-anchor="middle" x="565" y="-196" font-family="Helvetica,sans-Serif" font-size="10.00">::Decoder</text>
</a>
</g>
</g>
<!-- Node14&#45;&gt;Node13 -->
<g id="edge13_Node000013_Node000014" class="edge">
<title>Node14&#45;&gt;Node13</title>
<g id="a_edge13_Node000013_Node000014"><a xlink:title=" ">
<path fill="none" stroke="#9a32cd" stroke-dasharray="5,2" d="M629.84,-206.88C673.68,-208.85 732.08,-211.48 778.36,-213.57"/>
<polygon fill="#9a32cd" stroke="#9a32cd" points="629.74,-203.37 619.59,-206.41 629.42,-210.36 629.74,-203.37"/>
</a>
</g>
<text text-anchor="middle" x="711.5" y="-215" font-family="Helvetica,sans-Serif" font-size="10.00" fill="grey"> decoder</text>
</g>
<!-- Node15 -->
<g id="Node000015" class="node">
<title>Node15</title>
<g id="a_Node000015"><a xlink:href="classRealm_1_1Channel.html" target="_top" xlink:title=" ">
<polygon fill="white" stroke="#666666" points="902.5,-183.5 808.5,-183.5 808.5,-164.5 902.5,-164.5 902.5,-183.5"/>
<text text-anchor="middle" x="855.5" y="-171.5" font-family="Helvetica,sans-Serif" font-size="10.00">Realm::Channel</text>
</a>
</g>
</g>
<!-- Node15&#45;&gt;Node3 -->
<g id="edge14_Node000003_Node000015" class="edge">
<title>Node15&#45;&gt;Node3</title>
<g id="a_edge14_Node000003_Node000015"><a xlink:title=" ">
<path fill="none" stroke="#9a32cd" stroke-dasharray="5,2" d="M912.94,-175.64C964.22,-177.12 1038.92,-179.29 1086.61,-180.67"/>
<polygon fill="#9a32cd" stroke="#9a32cd" points="912.79,-172.13 902.7,-175.34 912.59,-179.13 912.79,-172.13"/>
</a>
</g>
<text text-anchor="middle" x="1005" y="-182" font-family="Helvetica,sans-Serif" font-size="10.00" fill="grey"> channel</text>
</g>
<!-- Node16 -->
<g id="Node000016" class="node">
<title>Node16</title>
<g id="a_Node000016"><a xlink:href="classRealm_1_1atomic.html" target="_top" xlink:title=" ">
<polygon fill="white" stroke="#666666" points="933,-121.5 778,-121.5 778,-102.5 933,-102.5 933,-121.5"/>
<text text-anchor="middle" x="855.5" y="-109.5" font-family="Helvetica,sans-Serif" font-size="10.00">Realm::atomic&lt; unsigned &gt;</text>
</a>
</g>
</g>
<!-- Node16&#45;&gt;Node3 -->
<g id="edge16_Node000003_Node000016" class="edge">
<title>Node16&#45;&gt;Node3</title>
<g id="a_edge16_Node000003_Node000016"><a xlink:title=" ">
<path fill="none" stroke="#9a32cd" stroke-dasharray="5,2" d="M943.35,-108.47C980.03,-109.6 1022.6,-114.45 1059,-128 1085.12,-137.72 1110.06,-159.6 1123.1,-172.32"/>
<polygon fill="#9a32cd" stroke="#9a32cd" points="943.24,-104.97 933.17,-108.25 943.09,-111.97 943.24,-104.97"/>
</a>
</g>
<text text-anchor="start" x="951" y="-164" font-family="Helvetica,sans-Serif" font-size="10.00" fill="grey"> nb_update_pre_bytes</text>
<text text-anchor="middle" x="1005" y="-153" font-family="Helvetica,sans-Serif" font-size="10.00" fill="grey">_total_calls_received</text>
<text text-anchor="middle" x="1005" y="-142" font-family="Helvetica,sans-Serif" font-size="10.00" fill="grey">progress_counter</text>
<text text-anchor="middle" x="1005" y="-131" font-family="Helvetica,sans-Serif" font-size="10.00" fill="grey">reference_count</text>
</g>
<!-- Node17&#45;&gt;Node3 -->
<g id="edge17_Node000003_Node000017" class="edge">
<title>Node17&#45;&gt;Node3</title>
<g id="a_edge17_Node000003_Node000017"><a xlink:title=" ">
<path fill="none" stroke="#9a32cd" stroke-dasharray="5,2" d="M1308.69,-166.59C1265.77,-170.39 1215.55,-174.83 1180.09,-177.97"/>
<polygon fill="#9a32cd" stroke="#9a32cd" points="1309.21,-170.06 1318.87,-165.69 1308.6,-163.09 1309.21,-170.06"/>
</a>
</g>
<text text-anchor="middle" x="1254.5" y="-178" font-family="Helvetica,sans-Serif" font-size="10.00" fill="grey"> xd_link</text>
</g>
<!-- Node18&#45;&gt;Node3 -->
<g id="edge19_Node000003_Node000018" class="edge">
<title>Node18&#45;&gt;Node3</title>
<g id="a_edge19_Node000003_Node000018"><a xlink:title=" ">
<path fill="none" stroke="#9a32cd" stroke-dasharray="5,2" d="M1314.6,-219.41C1270.44,-210.23 1217.19,-199.17 1180.09,-191.47"/>
<polygon fill="#9a32cd" stroke="#9a32cd" points="1313.95,-222.84 1324.45,-221.45 1315.37,-215.99 1313.95,-222.84"/>
</a>
</g>
<text text-anchor="middle" x="1254.5" y="-218" font-family="Helvetica,sans-Serif" font-size="10.00" fill="grey"> deferred_enqueue</text>
</g>
<!-- Node19 -->
<g id="Node000019" class="node">
<title>Node19</title>
<g id="a_Node000019"><a xlink:href="classRealm_1_1EventWaiter.html" target="_top" xlink:title=" ">
<polygon fill="white" stroke="#666666" points="1190,-45.5 1077,-45.5 1077,-26.5 1190,-26.5 1190,-45.5"/>
<text text-anchor="middle" x="1133.5" y="-33.5" font-family="Helvetica,sans-Serif" font-size="10.00">Realm::EventWaiter</text>
</a>
</g>
</g>
<!-- Node19&#45;&gt;Node18 -->
<g id="edge20_Node000018_Node000019" class="edge">
<title>Node19&#45;&gt;Node18</title>
<g id="a_edge20_Node000018_Node000019"><a xlink:title=" ">
<path fill="none" stroke="#63b8ff" d="M1143.25,-54.86C1154.86,-77.83 1177.5,-116.25 1208,-138 1243.15,-163.06 1263.64,-144.38 1301,-166 1310.52,-171.51 1310.47,-176.04 1319,-183 1335.75,-196.67 1355.83,-210.66 1371.07,-220.83"/>
<polygon fill="#63b8ff" stroke="#63b8ff" points="1146.36,-53.24 1138.83,-45.78 1140.06,-56.3 1146.36,-53.24"/>
</a>
</g>
</g>
<!-- Node20 -->
<g id="Node000020" class="node">
<title>Node20</title>
<g id="a_Node000020"><a xlink:href="structRealm_1_1IntrusiveListLink.html" target="_top" xlink:title=" ">
<polygon fill="white" stroke="#666666" points="1463.5,-30 1327.5,-30 1327.5,0 1463.5,0 1463.5,-30"/>
<text text-anchor="start" x="1335.5" y="-18" font-family="Helvetica,sans-Serif" font-size="10.00">Realm::IntrusiveListLink</text>
<text text-anchor="middle" x="1395.5" y="-7" font-family="Helvetica,sans-Serif" font-size="10.00">&lt; Realm::EventWaiter &gt;</text>
</a>
</g>
</g>
<!-- Node19&#45;&gt;Node20 -->
<g id="edge22_Node000020_Node000019" class="edge">
<title>Node19&#45;&gt;Node20</title>
<g id="a_edge22_Node000020_Node000019"><a xlink:title=" ">
<path fill="none" stroke="#9a32cd" stroke-dasharray="5,2" d="M1164.03,-22.45C1177.19,-17.12 1193.07,-11.66 1208,-9 1247.07,-2.05 1291.45,-3.13 1327.12,-6.14"/>
<polygon fill="#9a32cd" stroke="#9a32cd" points="1162.41,-19.34 1154.56,-26.45 1165.13,-25.79 1162.41,-19.34"/>
</a>
</g>
<text text-anchor="middle" x="1254.5" y="-12" font-family="Helvetica,sans-Serif" font-size="10.00" fill="grey"> next</text>
</g>
<!-- Node20&#45;&gt;Node19 -->
<g id="edge21_Node000019_Node000020" class="edge">
<title>Node20&#45;&gt;Node19</title>
<g id="a_edge21_Node000019_Node000020"><a xlink:title=" ">
<path fill="none" stroke="#9a32cd" stroke-dasharray="5,2" d="M1317.11,-21.25C1276.35,-24.54 1227.28,-28.51 1190.28,-31.49"/>
<polygon fill="#9a32cd" stroke="#9a32cd" points="1317.6,-24.72 1327.28,-20.43 1317.03,-17.75 1317.6,-24.72"/>
</a>
</g>
<text text-anchor="middle" x="1254.5" y="-33" font-family="Helvetica,sans-Serif" font-size="10.00" fill="grey"> ew_list_link</text>
</g>
</g>
</svg>
