<?xml version="1.0" encoding="UTF-8" standalone="no"?>
<!DOCTYPE svg PUBLIC "-//W3C//DTD SVG 1.1//EN"
 "http://www.w3.org/Graphics/SVG/1.1/DTD/svg11.dtd">
<!-- Generated by graphviz version 2.43.0 (0)
 -->
<!-- Title: Realm::PythonSourceImplementation Pages: 1 -->
<svg width="743pt" height="98pt"
 viewBox="0.00 0.00 743.00 97.50" xmlns="http://www.w3.org/2000/svg" xmlns:xlink="http://www.w3.org/1999/xlink">
<g id="graph0" class="graph" transform="scale(1 1) rotate(0) translate(4 93.5)">
<title>Realm::PythonSourceImplementation</title>
<!-- Node1 -->
<g id="Node000001" class="node">
<title>Node1</title>
<g id="a_Node000001"><a xlink:title=" ">
<polygon fill="#999999" stroke="#666666" points="735,-62.5 536,-62.5 536,-43.5 735,-43.5 735,-62.5"/>
<text text-anchor="middle" x="635.5" y="-50.5" font-family="Helvetica,sans-Serif" font-size="10.00">Realm::PythonSourceImplementation</text>
</a>
</g>
</g>
<!-- Node2 -->
<g id="Node000002" class="node">
<title>Node2</title>
<g id="a_Node000002"><a xlink:href="classRealm_1_1CodeImplementation.html" target="_top" xlink:title=" ">
<polygon fill="white" stroke="#666666" points="389,-89.5 232,-89.5 232,-70.5 389,-70.5 389,-89.5"/>
<text text-anchor="middle" x="310.5" y="-77.5" font-family="Helvetica,sans-Serif" font-size="10.00">Realm::CodeImplementation</text>
</a>
</g>
</g>
<!-- Node2&#45;&gt;Node1 -->
<g id="edge1_Node000001_Node000002" class="edge">
<title>Node2&#45;&gt;Node1</title>
<g id="a_edge1_Node000001_Node000002"><a xlink:title=" ">
<path fill="none" stroke="#63b8ff" d="M399.27,-72.66C441.53,-69.13 492.37,-64.88 535.95,-61.24"/>
<polygon fill="#63b8ff" stroke="#63b8ff" points="398.95,-69.18 389.28,-73.5 399.53,-76.15 398.95,-69.18"/>
</a>
</g>
</g>
<!-- Node3 -->
<g id="Node000003" class="node">
<title>Node3</title>
<g id="a_Node000003"><a xlink:href="classRealm_1_1Serialization_1_1PolymorphicSerdezSubclass.html" target="_top" xlink:title=" ">
<polygon fill="white" stroke="#666666" points="417,-52 204,-52 204,0 417,0 417,-52"/>
<text text-anchor="start" x="212" y="-40" font-family="Helvetica,sans-Serif" font-size="10.00">Realm::Serialization</text>
<text text-anchor="start" x="212" y="-29" font-family="Helvetica,sans-Serif" font-size="10.00">::PolymorphicSerdezSubclass</text>
<text text-anchor="start" x="212" y="-18" font-family="Helvetica,sans-Serif" font-size="10.00">&lt; Realm::CodeImplementation,</text>
<text text-anchor="middle" x="310.5" y="-7" font-family="Helvetica,sans-Serif" font-size="10.00"> Realm::PythonSourceImplementation &gt;</text>
</a>
</g>
</g>
<!-- Node3&#45;&gt;Node1 -->
<g id="edge2_Node000001_Node000003" class="edge">
<title>Node3&#45;&gt;Node1</title>
<g id="a_edge2_Node000001_Node000003"><a xlink:title=" ">
<path fill="none" stroke="#9a32cd" stroke-dasharray="5,2" d="M427.66,-35.71C463.11,-38.67 501.73,-41.9 535.89,-44.76"/>
<polygon fill="#9a32cd" stroke="#9a32cd" points="427.52,-32.19 417.26,-34.84 426.94,-39.16 427.52,-32.19"/>
</a>
</g>
<text text-anchor="middle" x="476.5" y="-46" font-family="Helvetica,sans-Serif" font-size="10.00" fill="grey"> serdez_subclass</text>
</g>
<!-- Node4 -->
<g id="Node000004" class="node">
<title>Node4</title>
<g id="a_Node000004"><a xlink:href="classRealm_1_1Serialization_1_1PolymorphicSerdezIntfc.html" target="_top" xlink:title=" ">
<polygon fill="white" stroke="#666666" points="167,-41 0,-41 0,-11 167,-11 167,-41"/>
<text text-anchor="start" x="8" y="-29" font-family="Helvetica,sans-Serif" font-size="10.00">Realm::Serialization</text>
<text text-anchor="middle" x="83.5" y="-18" font-family="Helvetica,sans-Serif" font-size="10.00">::PolymorphicSerdezIntfc&lt; T &gt;</text>
</a>
</g>
</g>
<!-- Node4&#45;&gt;Node3 -->
<g id="edge3_Node000003_Node000004" class="edge">
<title>Node4&#45;&gt;Node3</title>
<g id="a_edge3_Node000003_Node000004"><a xlink:title=" ">
<path fill="none" stroke="#63b8ff" d="M177.27,-26C186.09,-26 195.07,-26 204,-26"/>
<polygon fill="#63b8ff" stroke="#63b8ff" points="177,-22.5 167,-26 177,-29.5 177,-22.5"/>
</a>
</g>
</g>
</g>
</svg>
