<?xml version="1.0" encoding="UTF-8" standalone="no"?>
<!DOCTYPE svg PUBLIC "-//W3C//DTD SVG 1.1//EN"
 "http://www.w3.org/Graphics/SVG/1.1/DTD/svg11.dtd">
<!-- Generated by graphviz version 2.43.0 (0)
 -->
<!-- Title: Realm::PythonAPI Pages: 1 -->
<svg width="201pt" height="140pt"
 viewBox="0.00 0.00 200.50 140.00" xmlns="http://www.w3.org/2000/svg" xmlns:xlink="http://www.w3.org/1999/xlink">
<g id="graph0" class="graph" transform="scale(1 1) rotate(0) translate(4 136)">
<title>Realm::PythonAPI</title>
<!-- Node1 -->
<g id="Node000001" class="node">
<title>Node1</title>
<g id="a_Node000001"><a xlink:title=" ">
<polygon fill="#999999" stroke="#666666" points="114.5,-19 10.5,-19 10.5,0 114.5,0 114.5,-19"/>
<text text-anchor="middle" x="62.5" y="-7" font-family="Helvetica,sans-Serif" font-size="10.00">Realm::PythonAPI</text>
</a>
</g>
</g>
<!-- Node2 -->
<g id="Node000002" class="node">
<title>Node2</title>
<g id="a_Node000002"><a xlink:href="structRealm_1_1PyThreadState.html" target="_top" xlink:title=" ">
<polygon fill="white" stroke="#666666" points="125,-130.5 0,-130.5 0,-111.5 125,-111.5 125,-130.5"/>
<text text-anchor="middle" x="62.5" y="-118.5" font-family="Helvetica,sans-Serif" font-size="10.00">Realm::PyThreadState</text>
</a>
</g>
</g>
<!-- Node2&#45;&gt;Node1 -->
<g id="edge1_Node000001_Node000002" class="edge">
<title>Node2&#45;&gt;Node1</title>
<g id="a_edge1_Node000001_Node000002"><a xlink:title=" ">
<path fill="none" stroke="#9a32cd" stroke-dasharray="5,2" d="M62.5,-101.11C62.5,-77.08 62.5,-36.61 62.5,-19.05"/>
<polygon fill="#9a32cd" stroke="#9a32cd" points="59,-101.41 62.5,-111.41 66,-101.41 59,-101.41"/>
</a>
</g>
<text text-anchor="middle" x="127.5" y="-84" font-family="Helvetica,sans-Serif" font-size="10.00" fill="grey"> PyEval_SaveThread</text>
<text text-anchor="start" x="62.5" y="-73" font-family="Helvetica,sans-Serif" font-size="10.00" fill="grey">PyGILState_GetThisThread</text>
<text text-anchor="middle" x="127.5" y="-62" font-family="Helvetica,sans-Serif" font-size="10.00" fill="grey">State</text>
<text text-anchor="middle" x="127.5" y="-51" font-family="Helvetica,sans-Serif" font-size="10.00" fill="grey">PyThreadState_Get</text>
<text text-anchor="middle" x="127.5" y="-40" font-family="Helvetica,sans-Serif" font-size="10.00" fill="grey">PyThreadState_Swap</text>
</g>
<!-- Node2&#45;&gt;Node2 -->
<g id="edge2_Node000002_Node000002" class="edge">
<title>Node2&#45;&gt;Node2</title>
<g id="a_edge2_Node000002_Node000002"><a xlink:title=" ">
<path fill="none" stroke="#9a32cd" stroke-dasharray="5,2" d="M106.85,-131.36C126.29,-132.27 143,-128.81 143,-121 143,-111.87 120.16,-108.69 96.83,-111.47"/>
<polygon fill="#9a32cd" stroke="#9a32cd" points="107.09,-127.87 96.83,-130.53 106.51,-134.84 107.09,-127.87"/>
</a>
</g>
<text text-anchor="middle" x="155.5" y="-124" font-family="Helvetica,sans-Serif" font-size="10.00" fill="grey"> next</text>
<text text-anchor="middle" x="155.5" y="-113" font-family="Helvetica,sans-Serif" font-size="10.00" fill="grey">prev</text>
</g>
</g>
</svg>
