<?xml version="1.0" encoding="UTF-8" standalone="no"?>
<!DOCTYPE svg PUBLIC "-//W3C//DTD SVG 1.1//EN"
 "http://www.w3.org/Graphics/SVG/1.1/DTD/svg11.dtd">
<!-- Generated by graphviz version 2.43.0 (0)
 -->
<!-- Title: Realm::HDF5::HDF5XferDes Pages: 1 -->
<svg width="1480pt" height="373pt"
 viewBox="0.00 0.00 1480.00 373.00" xmlns="http://www.w3.org/2000/svg" xmlns:xlink="http://www.w3.org/1999/xlink">
<g id="graph0" class="graph" transform="scale(1 1) rotate(0) translate(4 369)">
<title>Realm::HDF5::HDF5XferDes</title>
<!-- Node1 -->
<g id="Node000001" class="node">
<title>Node1</title>
<g id="a_Node000001"><a xlink:title=" ">
<polygon fill="#999999" stroke="#666666" points="1472,-75.5 1319,-75.5 1319,-56.5 1472,-56.5 1472,-75.5"/>
<text text-anchor="middle" x="1395.5" y="-63.5" font-family="Helvetica,sans-Serif" font-size="10.00">Realm::HDF5::HDF5XferDes</text>
</a>
</g>
</g>
<!-- Node2 -->
<g id="Node000002" class="node">
<title>Node2</title>
<g id="a_Node000002"><a xlink:href="classRealm_1_1XferDes.html" target="_top" xlink:title=" ">
<polygon fill="white" stroke="#666666" points="1180,-186.5 1087,-186.5 1087,-167.5 1180,-167.5 1180,-186.5"/>
<text text-anchor="middle" x="1133.5" y="-174.5" font-family="Helvetica,sans-Serif" font-size="10.00">Realm::XferDes</text>
</a>
</g>
</g>
<!-- Node2&#45;&gt;Node1 -->
<g id="edge1_Node000001_Node000002" class="edge">
<title>Node2&#45;&gt;Node1</title>
<g id="a_edge1_Node000001_Node000002"><a xlink:title=" ">
<path fill="none" stroke="#63b8ff" d="M1150.77,-159.51C1164.7,-145.53 1185.95,-126.44 1208,-115 1246.33,-95.1 1293.39,-82.82 1330.64,-75.52"/>
<polygon fill="#63b8ff" stroke="#63b8ff" points="1147.91,-157.44 1143.47,-167.05 1152.94,-162.31 1147.91,-157.44"/>
</a>
</g>
</g>
<!-- Node16 -->
<g id="Node000016" class="node">
<title>Node16</title>
<g id="a_Node000016"><a xlink:href="structRealm_1_1IntrusivePriorityListLink.html" target="_top" xlink:title=" ">
<polygon fill="white" stroke="#666666" points="1472,-170 1319,-170 1319,-140 1472,-140 1472,-170"/>
<text text-anchor="start" x="1327" y="-158" font-family="Helvetica,sans-Serif" font-size="10.00">Realm::IntrusivePriority</text>
<text text-anchor="middle" x="1395.5" y="-147" font-family="Helvetica,sans-Serif" font-size="10.00">ListLink&lt; Realm::XferDes &gt;</text>
</a>
</g>
</g>
<!-- Node2&#45;&gt;Node16 -->
<g id="edge17_Node000016_Node000002" class="edge">
<title>Node2&#45;&gt;Node16</title>
<g id="a_edge17_Node000016_Node000002"><a xlink:title=" ">
<path fill="none" stroke="#9a32cd" stroke-dasharray="5,2" d="M1152.11,-160.12C1166.04,-148 1186.64,-132.68 1208,-126 1258.97,-110.05 1320.64,-126.17 1358.73,-139.98"/>
<polygon fill="#9a32cd" stroke="#9a32cd" points="1149.42,-157.83 1144.35,-167.14 1154.12,-163.02 1149.42,-157.83"/>
</a>
</g>
<text text-anchor="middle" x="1254.5" y="-151" font-family="Helvetica,sans-Serif" font-size="10.00" fill="grey"> lastlink_within_pri</text>
<text text-anchor="middle" x="1254.5" y="-140" font-family="Helvetica,sans-Serif" font-size="10.00" fill="grey">next_lower_pri</text>
<text text-anchor="middle" x="1254.5" y="-129" font-family="Helvetica,sans-Serif" font-size="10.00" fill="grey">next_within_pri</text>
</g>
<!-- Node17 -->
<g id="Node000017" class="node">
<title>Node17</title>
<g id="a_Node000017"><a xlink:href="classRealm_1_1XferDes_1_1DeferredXDEnqueue.html" target="_top" xlink:title=" ">
<polygon fill="white" stroke="#666666" points="1466.5,-246 1324.5,-246 1324.5,-216 1466.5,-216 1466.5,-246"/>
<text text-anchor="start" x="1332.5" y="-234" font-family="Helvetica,sans-Serif" font-size="10.00">Realm::XferDes::Deferred</text>
<text text-anchor="middle" x="1395.5" y="-223" font-family="Helvetica,sans-Serif" font-size="10.00">XDEnqueue</text>
</a>
</g>
</g>
<!-- Node2&#45;&gt;Node17 -->
<g id="edge23_Node000017_Node000002" class="edge">
<title>Node2&#45;&gt;Node17</title>
<g id="a_edge23_Node000017_Node000002"><a xlink:title=" ">
<path fill="none" stroke="#9a32cd" stroke-dasharray="5,2" d="M1152.84,-193.1C1166.88,-204.35 1187.3,-218.47 1208,-225 1245.23,-236.74 1288.73,-238.75 1324.35,-237.6"/>
<polygon fill="#9a32cd" stroke="#9a32cd" points="1154.9,-190.27 1144.97,-186.57 1150.42,-195.65 1154.9,-190.27"/>
</a>
</g>
<text text-anchor="middle" x="1254.5" y="-240" font-family="Helvetica,sans-Serif" font-size="10.00" fill="grey"> xd</text>
</g>
<!-- Node3 -->
<g id="Node000003" class="node">
<title>Node3</title>
<g id="a_Node000003"><a xlink:href="classRealm_1_1XferDesQueue.html" target="_top" xlink:title=" ">
<polygon fill="white" stroke="#666666" points="918,-274.5 793,-274.5 793,-255.5 918,-255.5 918,-274.5"/>
<text text-anchor="middle" x="855.5" y="-262.5" font-family="Helvetica,sans-Serif" font-size="10.00">Realm::XferDesQueue</text>
</a>
</g>
</g>
<!-- Node3&#45;&gt;Node2 -->
<g id="edge2_Node000002_Node000003" class="edge">
<title>Node3&#45;&gt;Node2</title>
<g id="a_edge2_Node000002_Node000003"><a xlink:title=" ">
<path fill="none" stroke="#9a32cd" stroke-dasharray="5,2" d="M928.24,-253.8C976.57,-245.69 1035.61,-234.53 1059,-225 1082.71,-215.34 1106.96,-197.69 1120.82,-186.69"/>
<polygon fill="#9a32cd" stroke="#9a32cd" points="927.4,-250.39 918.11,-255.48 928.55,-257.3 927.4,-250.39"/>
</a>
</g>
<text text-anchor="middle" x="1005" y="-252" font-family="Helvetica,sans-Serif" font-size="10.00" fill="grey"> xferDes_queue</text>
</g>
<!-- Node3&#45;&gt;Node17 -->
<g id="edge22_Node000017_Node000003" class="edge">
<title>Node3&#45;&gt;Node17</title>
<g id="a_edge22_Node000017_Node000003"><a xlink:title=" ">
<path fill="none" stroke="#9a32cd" stroke-dasharray="5,2" d="M928.48,-267.56C1016.71,-269.62 1170.57,-269.75 1301,-252 1311.96,-250.51 1323.54,-248.37 1334.67,-246.03"/>
<polygon fill="#9a32cd" stroke="#9a32cd" points="928.4,-264.05 918.32,-267.3 928.23,-271.05 928.4,-264.05"/>
</a>
</g>
<text text-anchor="middle" x="1133.5" y="-270" font-family="Helvetica,sans-Serif" font-size="10.00" fill="grey"> xferDes_queue</text>
</g>
<!-- Node4 -->
<g id="Node000004" class="node">
<title>Node4</title>
<g id="a_Node000004"><a xlink:href="classRealm_1_1UnfairMutex.html" target="_top" xlink:title=" ">
<polygon fill="white" stroke="#666666" points="622.5,-305.5 507.5,-305.5 507.5,-286.5 622.5,-286.5 622.5,-305.5"/>
<text text-anchor="middle" x="565" y="-293.5" font-family="Helvetica,sans-Serif" font-size="10.00">Realm::UnfairMutex</text>
</a>
</g>
</g>
<!-- Node4&#45;&gt;Node2 -->
<g id="edge14_Node000002_Node000004" class="edge">
<title>Node4&#45;&gt;Node2</title>
<g id="a_edge14_Node000002_Node000004"><a xlink:title=" ">
<path fill="none" stroke="#9a32cd" stroke-dasharray="5,2" d="M622.66,-307.28C719.22,-323.4 918.79,-343.05 1059,-264 1092.41,-245.16 1117.39,-204.91 1127.53,-186.52"/>
<polygon fill="#9a32cd" stroke="#9a32cd" points="622.97,-303.78 612.53,-305.53 621.79,-310.68 622.97,-303.78"/>
</a>
</g>
<text text-anchor="middle" x="855.5" y="-357" font-family="Helvetica,sans-Serif" font-size="10.00" fill="grey"> available_req_mutex</text>
<text text-anchor="middle" x="855.5" y="-346" font-family="Helvetica,sans-Serif" font-size="10.00" fill="grey">update_read_lock</text>
<text text-anchor="middle" x="855.5" y="-335" font-family="Helvetica,sans-Serif" font-size="10.00" fill="grey">update_write_lock</text>
<text text-anchor="middle" x="855.5" y="-324" font-family="Helvetica,sans-Serif" font-size="10.00" fill="grey">xd_lock</text>
</g>
<!-- Node4&#45;&gt;Node3 -->
<g id="edge3_Node000003_Node000004" class="edge">
<title>Node4&#45;&gt;Node3</title>
<g id="a_edge3_Node000003_Node000004"><a xlink:title=" ">
<path fill="none" stroke="#9a32cd" stroke-dasharray="5,2" d="M618.51,-284.41C632.87,-281.6 648.48,-278.87 663,-277 706.12,-271.45 755.04,-268.44 792.64,-266.82"/>
<polygon fill="#9a32cd" stroke="#9a32cd" points="617.41,-281.06 608.3,-286.47 618.79,-287.93 617.41,-281.06"/>
</a>
</g>
<text text-anchor="middle" x="711.5" y="-291" font-family="Helvetica,sans-Serif" font-size="10.00" fill="grey"> guid_lock</text>
<text text-anchor="middle" x="711.5" y="-280" font-family="Helvetica,sans-Serif" font-size="10.00" fill="grey">queues_lock</text>
</g>
<!-- Node5 -->
<g id="Node000005" class="node">
<title>Node5</title>
<g id="a_Node000005"><a xlink:href="classRealm_1_1noncopyable.html" target="_top" xlink:title=" ">
<polygon fill="white" stroke="#666666" points="396,-342.5 280,-342.5 280,-323.5 396,-323.5 396,-342.5"/>
<text text-anchor="middle" x="338" y="-330.5" font-family="Helvetica,sans-Serif" font-size="10.00">Realm::noncopyable</text>
</a>
</g>
</g>
<!-- Node5&#45;&gt;Node4 -->
<g id="edge4_Node000004_Node000005" class="edge">
<title>Node5&#45;&gt;Node4</title>
<g id="a_edge4_Node000004_Node000005"><a xlink:title=" ">
<path fill="none" stroke="#63b8ff" d="M406.3,-321.93C438.52,-316.63 476.68,-310.36 507.38,-305.31"/>
<polygon fill="#63b8ff" stroke="#63b8ff" points="405.37,-318.54 396.07,-323.62 406.5,-325.45 405.37,-318.54"/>
</a>
</g>
</g>
<!-- Node6 -->
<g id="Node000006" class="node">
<title>Node6</title>
<g id="a_Node000006"><a xlink:href="classRealm_1_1atomic.html" target="_top" xlink:title=" ">
<polygon fill="white" stroke="#666666" points="413,-305.5 263,-305.5 263,-286.5 413,-286.5 413,-305.5"/>
<text text-anchor="middle" x="338" y="-293.5" font-family="Helvetica,sans-Serif" font-size="10.00">Realm::atomic&lt; uint32_t &gt;</text>
</a>
</g>
</g>
<!-- Node6&#45;&gt;Node4 -->
<g id="edge5_Node000004_Node000006" class="edge">
<title>Node6&#45;&gt;Node4</title>
<g id="a_edge5_Node000004_Node000006"><a xlink:title=" ">
<path fill="none" stroke="#9a32cd" stroke-dasharray="5,2" d="M423.47,-296C451.44,-296 481.88,-296 507.25,-296"/>
<polygon fill="#9a32cd" stroke="#9a32cd" points="423.3,-292.5 413.3,-296 423.3,-299.5 423.3,-292.5"/>
</a>
</g>
<text text-anchor="middle" x="449" y="-299" font-family="Helvetica,sans-Serif" font-size="10.00" fill="grey"> state</text>
</g>
<!-- Node7 -->
<g id="Node000007" class="node">
<title>Node7</title>
<g id="a_Node000007"><a xlink:href="classRealm_1_1DoorbellList.html" target="_top" xlink:title=" ">
<polygon fill="white" stroke="#666666" points="394.5,-268.5 281.5,-268.5 281.5,-249.5 394.5,-249.5 394.5,-268.5"/>
<text text-anchor="middle" x="338" y="-256.5" font-family="Helvetica,sans-Serif" font-size="10.00">Realm::DoorbellList</text>
</a>
</g>
</g>
<!-- Node7&#45;&gt;Node4 -->
<g id="edge6_Node000004_Node000007" class="edge">
<title>Node7&#45;&gt;Node4</title>
<g id="a_edge6_Node000004_Node000007"><a xlink:title=" ">
<path fill="none" stroke="#9a32cd" stroke-dasharray="5,2" d="M404.52,-269.77C437.13,-275.14 476.17,-281.56 507.46,-286.7"/>
<polygon fill="#9a32cd" stroke="#9a32cd" points="405.05,-266.32 394.62,-268.15 403.92,-273.22 405.05,-266.32"/>
</a>
</g>
<text text-anchor="middle" x="449" y="-282" font-family="Helvetica,sans-Serif" font-size="10.00" fill="grey"> db_list</text>
</g>
<!-- Node8 -->
<g id="Node000008" class="node">
<title>Node8</title>
<g id="a_Node000008"><a xlink:href="classRealm_1_1atomic.html" target="_top" xlink:title=" ">
<polygon fill="white" stroke="#666666" points="152,-268.5 0,-268.5 0,-249.5 152,-249.5 152,-268.5"/>
<text text-anchor="middle" x="76" y="-256.5" font-family="Helvetica,sans-Serif" font-size="10.00">Realm::atomic&lt; uintptr_t &gt;</text>
</a>
</g>
</g>
<!-- Node8&#45;&gt;Node7 -->
<g id="edge7_Node000007_Node000008" class="edge">
<title>Node8&#45;&gt;Node7</title>
<g id="a_edge7_Node000007_Node000008"><a xlink:title=" ">
<path fill="none" stroke="#9a32cd" stroke-dasharray="5,2" d="M162.52,-259C201.61,-259 246.79,-259 281.38,-259"/>
<polygon fill="#9a32cd" stroke="#9a32cd" points="162.2,-255.5 152.2,-259 162.2,-262.5 162.2,-255.5"/>
</a>
</g>
<text text-anchor="middle" x="207.5" y="-262" font-family="Helvetica,sans-Serif" font-size="10.00" fill="grey"> head_or_count</text>
</g>
<!-- Node9 -->
<g id="Node000009" class="node">
<title>Node9</title>
<g id="a_Node000009"><a xlink:href="classRealm_1_1atomic.html" target="_top" xlink:title=" ">
<polygon fill="white" stroke="#666666" points="645,-251.5 485,-251.5 485,-232.5 645,-232.5 645,-251.5"/>
<text text-anchor="middle" x="565" y="-239.5" font-family="Helvetica,sans-Serif" font-size="10.00">Realm::atomic&lt; XferDesID &gt;</text>
</a>
</g>
</g>
<!-- Node9&#45;&gt;Node3 -->
<g id="edge8_Node000003_Node000009" class="edge">
<title>Node9&#45;&gt;Node3</title>
<g id="a_edge8_Node000003_Node000009"><a xlink:title=" ">
<path fill="none" stroke="#9a32cd" stroke-dasharray="5,2" d="M655.15,-238.3C688.19,-238.02 725.9,-238.99 760,-243 780.75,-245.44 803.56,-250.67 821.58,-255.43"/>
<polygon fill="#9a32cd" stroke="#9a32cd" points="655.02,-234.8 645.06,-238.42 655.1,-241.8 655.02,-234.8"/>
</a>
</g>
<text text-anchor="middle" x="711.5" y="-246" font-family="Helvetica,sans-Serif" font-size="10.00" fill="grey"> next_to_assign_idx</text>
</g>
<!-- Node10 -->
<g id="Node000010" class="node">
<title>Node10</title>
<g id="a_Node000010"><a xlink:href="classRealm_1_1atomic.html" target="_top" xlink:title=" ">
<polygon fill="white" stroke="#666666" points="921,-71.5 790,-71.5 790,-52.5 921,-52.5 921,-71.5"/>
<text text-anchor="middle" x="855.5" y="-59.5" font-family="Helvetica,sans-Serif" font-size="10.00">Realm::atomic&lt; bool &gt;</text>
</a>
</g>
</g>
<!-- Node10&#45;&gt;Node2 -->
<g id="edge9_Node000002_Node000010" class="edge">
<title>Node10&#45;&gt;Node2</title>
<g id="a_edge9_Node000002_Node000010"><a xlink:title=" ">
<path fill="none" stroke="#9a32cd" stroke-dasharray="5,2" d="M931.1,-53C971.33,-51.59 1020.47,-55.68 1059,-77 1096.52,-97.76 1120.12,-146.67 1128.77,-167.42"/>
<polygon fill="#9a32cd" stroke="#9a32cd" points="930.91,-49.5 921.08,-53.47 931.23,-56.5 930.91,-49.5"/>
</a>
</g>
<text text-anchor="middle" x="1005" y="-91" font-family="Helvetica,sans-Serif" font-size="10.00" fill="grey"> iteration_completed</text>
<text text-anchor="middle" x="1005" y="-80" font-family="Helvetica,sans-Serif" font-size="10.00" fill="grey">transfer_completed</text>
</g>
<!-- Node11 -->
<g id="Node000011" class="node">
<title>Node11</title>
<g id="a_Node000011"><a xlink:href="classRealm_1_1atomic.html" target="_top" xlink:title=" ">
<polygon fill="white" stroke="#666666" points="927.5,-34.5 783.5,-34.5 783.5,-15.5 927.5,-15.5 927.5,-34.5"/>
<text text-anchor="middle" x="855.5" y="-22.5" font-family="Helvetica,sans-Serif" font-size="10.00">Realm::atomic&lt; int64_t &gt;</text>
</a>
</g>
</g>
<!-- Node11&#45;&gt;Node2 -->
<g id="edge10_Node000002_Node000011" class="edge">
<title>Node11&#45;&gt;Node2</title>
<g id="a_edge10_Node000002_Node000011"><a xlink:title=" ">
<path fill="none" stroke="#9a32cd" stroke-dasharray="5,2" d="M916.12,-14.28C959.2,-9.8 1016.97,-10.81 1059,-38 1083.29,-53.72 1117.76,-138.73 1128.89,-167.49"/>
<polygon fill="#9a32cd" stroke="#9a32cd" points="915.59,-10.82 906.06,-15.46 916.4,-17.77 915.59,-10.82"/>
</a>
</g>
<text text-anchor="middle" x="1005" y="-41" font-family="Helvetica,sans-Serif" font-size="10.00" fill="grey"> bytes_write_pending</text>
</g>
<!-- Node12 -->
<g id="Node000012" class="node">
<title>Node12</title>
<g id="a_Node000012"><a xlink:href="structRealm_1_1XferDes_1_1ControlPortState.html" target="_top" xlink:title=" ">
<polygon fill="white" stroke="#666666" points="932.5,-227 778.5,-227 778.5,-197 932.5,-197 932.5,-227"/>
<text text-anchor="start" x="786.5" y="-215" font-family="Helvetica,sans-Serif" font-size="10.00">Realm::XferDes::ControlPort</text>
<text text-anchor="middle" x="855.5" y="-204" font-family="Helvetica,sans-Serif" font-size="10.00">State</text>
</a>
</g>
</g>
<!-- Node12&#45;&gt;Node2 -->
<g id="edge11_Node000002_Node000012" class="edge">
<title>Node12&#45;&gt;Node2</title>
<g id="a_edge11_Node000002_Node000012"><a xlink:title=" ">
<path fill="none" stroke="#9a32cd" stroke-dasharray="5,2" d="M942.67,-201.07C990.36,-195.02 1047.72,-187.75 1086.82,-182.79"/>
<polygon fill="#9a32cd" stroke="#9a32cd" points="942.13,-197.61 932.65,-202.34 943.01,-204.56 942.13,-197.61"/>
</a>
</g>
<text text-anchor="middle" x="1005" y="-213" font-family="Helvetica,sans-Serif" font-size="10.00" fill="grey"> input_control</text>
<text text-anchor="middle" x="1005" y="-202" font-family="Helvetica,sans-Serif" font-size="10.00" fill="grey">output_control</text>
</g>
<!-- Node13 -->
<g id="Node000013" class="node">
<title>Node13</title>
<g id="a_Node000013"><a xlink:href="classRealm_1_1ControlPort_1_1Decoder.html" target="_top" xlink:title=" ">
<polygon fill="white" stroke="#666666" points="619.5,-214 510.5,-214 510.5,-184 619.5,-184 619.5,-214"/>
<text text-anchor="start" x="518.5" y="-202" font-family="Helvetica,sans-Serif" font-size="10.00">Realm::ControlPort</text>
<text text-anchor="middle" x="565" y="-191" font-family="Helvetica,sans-Serif" font-size="10.00">::Decoder</text>
</a>
</g>
</g>
<!-- Node13&#45;&gt;Node12 -->
<g id="edge12_Node000012_Node000013" class="edge">
<title>Node13&#45;&gt;Node12</title>
<g id="a_edge12_Node000012_Node000013"><a xlink:title=" ">
<path fill="none" stroke="#9a32cd" stroke-dasharray="5,2" d="M629.84,-201.88C673.68,-203.85 732.08,-206.48 778.36,-208.57"/>
<polygon fill="#9a32cd" stroke="#9a32cd" points="629.74,-198.37 619.59,-201.41 629.42,-205.36 629.74,-198.37"/>
</a>
</g>
<text text-anchor="middle" x="711.5" y="-210" font-family="Helvetica,sans-Serif" font-size="10.00" fill="grey"> decoder</text>
</g>
<!-- Node14 -->
<g id="Node000014" class="node">
<title>Node14</title>
<g id="a_Node000014"><a xlink:href="classRealm_1_1Channel.html" target="_top" xlink:title=" ">
<polygon fill="white" stroke="#666666" points="902.5,-178.5 808.5,-178.5 808.5,-159.5 902.5,-159.5 902.5,-178.5"/>
<text text-anchor="middle" x="855.5" y="-166.5" font-family="Helvetica,sans-Serif" font-size="10.00">Realm::Channel</text>
</a>
</g>
</g>
<!-- Node14&#45;&gt;Node2 -->
<g id="edge13_Node000002_Node000014" class="edge">
<title>Node14&#45;&gt;Node2</title>
<g id="a_edge13_Node000002_Node000014"><a xlink:title=" ">
<path fill="none" stroke="#9a32cd" stroke-dasharray="5,2" d="M912.94,-170.64C964.22,-172.12 1038.92,-174.29 1086.61,-175.67"/>
<polygon fill="#9a32cd" stroke="#9a32cd" points="912.79,-167.13 902.7,-170.34 912.59,-174.13 912.79,-167.13"/>
</a>
</g>
<text text-anchor="middle" x="1005" y="-177" font-family="Helvetica,sans-Serif" font-size="10.00" fill="grey"> channel</text>
</g>
<!-- Node15 -->
<g id="Node000015" class="node">
<title>Node15</title>
<g id="a_Node000015"><a xlink:href="classRealm_1_1atomic.html" target="_top" xlink:title=" ">
<polygon fill="white" stroke="#666666" points="933,-116.5 778,-116.5 778,-97.5 933,-97.5 933,-116.5"/>
<text text-anchor="middle" x="855.5" y="-104.5" font-family="Helvetica,sans-Serif" font-size="10.00">Realm::atomic&lt; unsigned &gt;</text>
</a>
</g>
</g>
<!-- Node15&#45;&gt;Node2 -->
<g id="edge15_Node000002_Node000015" class="edge">
<title>Node15&#45;&gt;Node2</title>
<g id="a_edge15_Node000002_Node000015"><a xlink:title=" ">
<path fill="none" stroke="#9a32cd" stroke-dasharray="5,2" d="M943.35,-103.47C980.03,-104.6 1022.6,-109.45 1059,-123 1085.12,-132.72 1110.06,-154.6 1123.1,-167.32"/>
<polygon fill="#9a32cd" stroke="#9a32cd" points="943.24,-99.97 933.17,-103.25 943.09,-106.97 943.24,-99.97"/>
</a>
</g>
<text text-anchor="start" x="951" y="-159" font-family="Helvetica,sans-Serif" font-size="10.00" fill="grey"> nb_update_pre_bytes</text>
<text text-anchor="middle" x="1005" y="-148" font-family="Helvetica,sans-Serif" font-size="10.00" fill="grey">_total_calls_received</text>
<text text-anchor="middle" x="1005" y="-137" font-family="Helvetica,sans-Serif" font-size="10.00" fill="grey">progress_counter</text>
<text text-anchor="middle" x="1005" y="-126" font-family="Helvetica,sans-Serif" font-size="10.00" fill="grey">reference_count</text>
</g>
<!-- Node16&#45;&gt;Node2 -->
<g id="edge16_Node000002_Node000016" class="edge">
<title>Node16&#45;&gt;Node2</title>
<g id="a_edge16_Node000002_Node000016"><a xlink:title=" ">
<path fill="none" stroke="#9a32cd" stroke-dasharray="5,2" d="M1308.69,-162.26C1265.77,-165.89 1215.55,-170.14 1180.09,-173.14"/>
<polygon fill="#9a32cd" stroke="#9a32cd" points="1309.2,-165.73 1318.87,-161.4 1308.61,-158.76 1309.2,-165.73"/>
</a>
</g>
<text text-anchor="middle" x="1254.5" y="-173" font-family="Helvetica,sans-Serif" font-size="10.00" fill="grey"> xd_link</text>
</g>
<!-- Node17&#45;&gt;Node2 -->
<g id="edge18_Node000002_Node000017" class="edge">
<title>Node17&#45;&gt;Node2</title>
<g id="a_edge18_Node000002_Node000017"><a xlink:title=" ">
<path fill="none" stroke="#9a32cd" stroke-dasharray="5,2" d="M1314.6,-214.41C1270.44,-205.23 1217.19,-194.17 1180.09,-186.47"/>
<polygon fill="#9a32cd" stroke="#9a32cd" points="1313.95,-217.84 1324.45,-216.45 1315.37,-210.99 1313.95,-217.84"/>
</a>
</g>
<text text-anchor="middle" x="1254.5" y="-213" font-family="Helvetica,sans-Serif" font-size="10.00" fill="grey"> deferred_enqueue</text>
</g>
<!-- Node18 -->
<g id="Node000018" class="node">
<title>Node18</title>
<g id="a_Node000018"><a xlink:href="classRealm_1_1EventWaiter.html" target="_top" xlink:title=" ">
<polygon fill="white" stroke="#666666" points="1190,-49.5 1077,-49.5 1077,-30.5 1190,-30.5 1190,-49.5"/>
<text text-anchor="middle" x="1133.5" y="-37.5" font-family="Helvetica,sans-Serif" font-size="10.00">Realm::EventWaiter</text>
</a>
</g>
</g>
<!-- Node18&#45;&gt;Node17 -->
<g id="edge19_Node000017_Node000018" class="edge">
<title>Node18&#45;&gt;Node17</title>
<g id="a_edge19_Node000017_Node000018"><a xlink:title=" ">
<path fill="none" stroke="#63b8ff" d="M1144.56,-58.72C1156.83,-79.79 1179.5,-113.62 1208,-133 1243.69,-157.27 1263.95,-138.85 1301,-161 1310.71,-166.81 1310.31,-171.76 1319,-179 1335.27,-192.54 1355.01,-206.05 1370.23,-215.9"/>
<polygon fill="#63b8ff" stroke="#63b8ff" points="1147.49,-56.77 1139.54,-49.77 1141.38,-60.2 1147.49,-56.77"/>
</a>
</g>
</g>
<!-- Node19 -->
<g id="Node000019" class="node">
<title>Node19</title>
<g id="a_Node000019"><a xlink:href="structRealm_1_1IntrusiveListLink.html" target="_top" xlink:title=" ">
<polygon fill="white" stroke="#666666" points="1463.5,-30 1327.5,-30 1327.5,0 1463.5,0 1463.5,-30"/>
<text text-anchor="start" x="1335.5" y="-18" font-family="Helvetica,sans-Serif" font-size="10.00">Realm::IntrusiveListLink</text>
<text text-anchor="middle" x="1395.5" y="-7" font-family="Helvetica,sans-Serif" font-size="10.00">&lt; Realm::EventWaiter &gt;</text>
</a>
</g>
</g>
<!-- Node18&#45;&gt;Node19 -->
<g id="edge21_Node000019_Node000018" class="edge">
<title>Node18&#45;&gt;Node19</title>
<g id="a_edge21_Node000019_Node000018"><a xlink:title=" ">
<path fill="none" stroke="#9a32cd" stroke-dasharray="5,2" d="M1161.54,-26.02C1175.1,-19.78 1192,-13.14 1208,-10 1247.09,-2.33 1291.67,-3.18 1327.45,-6.14"/>
<polygon fill="#9a32cd" stroke="#9a32cd" points="1159.82,-22.96 1152.31,-30.44 1162.85,-29.27 1159.82,-22.96"/>
</a>
</g>
<text text-anchor="middle" x="1254.5" y="-13" font-family="Helvetica,sans-Serif" font-size="10.00" fill="grey"> next</text>
</g>
<!-- Node19&#45;&gt;Node18 -->
<g id="edge20_Node000018_Node000019" class="edge">
<title>Node19&#45;&gt;Node18</title>
<g id="a_edge20_Node000018_Node000019"><a xlink:title=" ">
<path fill="none" stroke="#9a32cd" stroke-dasharray="5,2" d="M1317.11,-22.44C1276.35,-26.36 1227.28,-31.08 1190.28,-34.64"/>
<polygon fill="#9a32cd" stroke="#9a32cd" points="1317.66,-25.9 1327.28,-21.46 1316.99,-18.94 1317.66,-25.9"/>
</a>
</g>
<text text-anchor="middle" x="1254.5" y="-36" font-family="Helvetica,sans-Serif" font-size="10.00" fill="grey"> ew_list_link</text>
</g>
</g>
</svg>
