<?xml version="1.0" encoding="UTF-8" standalone="no"?>
<!DOCTYPE svg PUBLIC "-//W3C//DTD SVG 1.1//EN"
 "http://www.w3.org/Graphics/SVG/1.1/DTD/svg11.dtd">
<!-- Generated by graphviz version 2.43.0 (0)
 -->
<!-- Title: Realm::MutexChecker::CheckedScope Pages: 1 -->
<svg width="266pt" height="170pt"
 viewBox="0.00 0.00 265.50 170.00" xmlns="http://www.w3.org/2000/svg" xmlns:xlink="http://www.w3.org/1999/xlink">
<g id="graph0" class="graph" transform="scale(1 1) rotate(0) translate(4 166)">
<title>Realm::MutexChecker::CheckedScope</title>
<!-- Node1 -->
<g id="Node000001" class="node">
<title>Node1</title>
<g id="a_Node000001"><a xlink:title=" ">
<polygon fill="#999999" stroke="#666666" points="189,-30 65,-30 65,0 189,0 189,-30"/>
<text text-anchor="start" x="73" y="-18" font-family="Helvetica,sans-Serif" font-size="10.00">Realm::MutexChecker</text>
<text text-anchor="middle" x="127" y="-7" font-family="Helvetica,sans-Serif" font-size="10.00">::CheckedScope</text>
</a>
</g>
</g>
<!-- Node2 -->
<g id="Node000002" class="node">
<title>Node2</title>
<g id="a_Node000002"><a xlink:href="classRealm_1_1MutexChecker.html" target="_top" xlink:title=" ">
<polygon fill="white" stroke="#666666" points="189,-96 65,-96 65,-77 189,-77 189,-96"/>
<text text-anchor="middle" x="127" y="-84" font-family="Helvetica,sans-Serif" font-size="10.00">Realm::MutexChecker</text>
</a>
</g>
</g>
<!-- Node2&#45;&gt;Node1 -->
<g id="edge1_Node000001_Node000002" class="edge">
<title>Node2&#45;&gt;Node1</title>
<g id="a_edge1_Node000001_Node000002"><a xlink:title=" ">
<path fill="none" stroke="#9a32cd" stroke-dasharray="5,2" d="M127,-66.71C127,-55.19 127,-40.68 127,-30.14"/>
<polygon fill="#9a32cd" stroke="#9a32cd" points="123.5,-66.98 127,-76.98 130.5,-66.98 123.5,-66.98"/>
</a>
</g>
<text text-anchor="middle" x="147.5" y="-51" font-family="Helvetica,sans-Serif" font-size="10.00" fill="grey"> checker</text>
</g>
<!-- Node3 -->
<g id="Node000003" class="node">
<title>Node3</title>
<g id="a_Node000003"><a xlink:href="classRealm_1_1noncopyable.html" target="_top" xlink:title=" ">
<polygon fill="white" stroke="#666666" points="116,-162 0,-162 0,-143 116,-143 116,-162"/>
<text text-anchor="middle" x="58" y="-150" font-family="Helvetica,sans-Serif" font-size="10.00">Realm::noncopyable</text>
</a>
</g>
</g>
<!-- Node3&#45;&gt;Node2 -->
<g id="edge2_Node000002_Node000003" class="edge">
<title>Node3&#45;&gt;Node2</title>
<g id="a_edge2_Node000002_Node000003"><a xlink:title=" ">
<path fill="none" stroke="#63b8ff" d="M74.89,-135.83C88.25,-123.44 106.42,-106.59 117.4,-96.41"/>
<polygon fill="#63b8ff" stroke="#63b8ff" points="72.26,-133.5 67.31,-142.87 77.02,-138.63 72.26,-133.5"/>
</a>
</g>
</g>
<!-- Node4 -->
<g id="Node000004" class="node">
<title>Node4</title>
<g id="a_Node000004"><a xlink:href="classRealm_1_1atomic.html" target="_top" xlink:title=" ">
<polygon fill="white" stroke="#666666" points="257.5,-162 134.5,-162 134.5,-143 257.5,-143 257.5,-162"/>
<text text-anchor="middle" x="196" y="-150" font-family="Helvetica,sans-Serif" font-size="10.00">Realm::atomic&lt; int &gt;</text>
</a>
</g>
</g>
<!-- Node4&#45;&gt;Node2 -->
<g id="edge3_Node000002_Node000004" class="edge">
<title>Node4&#45;&gt;Node2</title>
<g id="a_edge3_Node000002_Node000004"><a xlink:title=" ">
<path fill="none" stroke="#9a32cd" stroke-dasharray="5,2" d="M179.11,-135.83C165.75,-123.44 147.58,-106.59 136.6,-96.41"/>
<polygon fill="#9a32cd" stroke="#9a32cd" points="176.98,-138.63 186.69,-142.87 181.74,-133.5 176.98,-138.63"/>
</a>
</g>
<text text-anchor="middle" x="190.5" y="-117" font-family="Helvetica,sans-Serif" font-size="10.00" fill="grey"> cur_count</text>
</g>
</g>
</svg>
