<?xml version="1.0" encoding="UTF-8" standalone="no"?>
<!DOCTYPE svg PUBLIC "-//W3C//DTD SVG 1.1//EN"
 "http://www.w3.org/Graphics/SVG/1.1/DTD/svg11.dtd">
<!-- Generated by graphviz version 2.43.0 (0)
 -->
<!-- Title: PRealm::IndexSpaceGeneric Pages: 1 -->
<svg width="178pt" height="149pt"
 viewBox="0.00 0.00 178.00 149.00" xmlns="http://www.w3.org/2000/svg" xmlns:xlink="http://www.w3.org/1999/xlink">
<g id="graph0" class="graph" transform="scale(1 1) rotate(0) translate(4 145)">
<title>PRealm::IndexSpaceGeneric</title>
<!-- Node1 -->
<g id="Node000001" class="node">
<title>Node1</title>
<g id="a_Node000001"><a xlink:title=" ">
<polygon fill="#999999" stroke="#666666" points="162,-19 8,-19 8,0 162,0 162,-19"/>
<text text-anchor="middle" x="85" y="-7" font-family="Helvetica,sans-Serif" font-size="10.00">PRealm::IndexSpaceGeneric</text>
</a>
</g>
</g>
<!-- Node2 -->
<g id="Node000002" class="node">
<title>Node2</title>
<g id="a_Node000002"><a xlink:href="classRealm_1_1IndexSpaceGeneric.html" target="_top" xlink:title=" ">
<polygon fill="white" stroke="#666666" points="159,-75 11,-75 11,-56 159,-56 159,-75"/>
<text text-anchor="middle" x="85" y="-63" font-family="Helvetica,sans-Serif" font-size="10.00">Realm::IndexSpaceGeneric</text>
</a>
</g>
</g>
<!-- Node2&#45;&gt;Node1 -->
<g id="edge1_Node000001_Node000002" class="edge">
<title>Node2&#45;&gt;Node1</title>
<g id="a_edge1_Node000001_Node000002"><a xlink:title=" ">
<path fill="none" stroke="#63b8ff" d="M85,-45.3C85,-36.41 85,-26.28 85,-19.25"/>
<polygon fill="#63b8ff" stroke="#63b8ff" points="81.5,-45.58 85,-55.58 88.5,-45.58 81.5,-45.58"/>
</a>
</g>
</g>
<!-- Node3 -->
<g id="Node000003" class="node">
<title>Node3</title>
<g id="a_Node000003"><a xlink:href="classRealm_1_1IndexSpaceGenericImpl.html" target="_top" xlink:title=" ">
<polygon fill="white" stroke="#666666" points="170,-141 0,-141 0,-122 170,-122 170,-141"/>
<text text-anchor="middle" x="85" y="-129" font-family="Helvetica,sans-Serif" font-size="10.00">Realm::IndexSpaceGenericImpl</text>
</a>
</g>
</g>
<!-- Node3&#45;&gt;Node2 -->
<g id="edge2_Node000002_Node000003" class="edge">
<title>Node3&#45;&gt;Node2</title>
<g id="a_edge2_Node000002_Node000003"><a xlink:title=" ">
<path fill="none" stroke="#9a32cd" stroke-dasharray="5,2" d="M85,-111.58C85,-99.63 85,-84.72 85,-75.41"/>
<polygon fill="#9a32cd" stroke="#9a32cd" points="81.5,-111.87 85,-121.87 88.5,-111.87 81.5,-111.87"/>
</a>
</g>
<text text-anchor="middle" x="97.5" y="-96" font-family="Helvetica,sans-Serif" font-size="10.00" fill="grey"> impl</text>
</g>
</g>
</svg>
