<?xml version="1.0" encoding="UTF-8" standalone="no"?>
<!DOCTYPE svg PUBLIC "-//W3C//DTD SVG 1.1//EN"
 "http://www.w3.org/Graphics/SVG/1.1/DTD/svg11.dtd">
<!-- Generated by graphviz version 2.43.0 (0)
 -->
<!-- Title: Realm::AddressSplitXferDes&lt; N, T &gt; Pages: 1 -->
<svg width="1759pt" height="373pt"
 viewBox="0.00 0.00 1759.00 373.00" xmlns="http://www.w3.org/2000/svg" xmlns:xlink="http://www.w3.org/1999/xlink">
<g id="graph0" class="graph" transform="scale(1 1) rotate(0) translate(4 369)">
<title>Realm::AddressSplitXferDes&lt; N, T &gt;</title>
<!-- Node1 -->
<g id="Node000001" class="node">
<title>Node1</title>
<g id="a_Node000001"><a xlink:title=" ">
<polygon fill="#999999" stroke="#666666" points="1751,-126 1597,-126 1597,-96 1751,-96 1751,-126"/>
<text text-anchor="start" x="1605" y="-114" font-family="Helvetica,sans-Serif" font-size="10.00">Realm::AddressSplitXferDes</text>
<text text-anchor="middle" x="1674" y="-103" font-family="Helvetica,sans-Serif" font-size="10.00">&lt; N, T &gt;</text>
</a>
</g>
</g>
<!-- Node2 -->
<g id="Node000002" class="node">
<title>Node2</title>
<g id="a_Node000002"><a xlink:href="classRealm_1_1AddressSplitXferDesBase.html" target="_top" xlink:title=" ">
<polygon fill="white" stroke="#666666" points="1497,-75.5 1319,-75.5 1319,-56.5 1497,-56.5 1497,-75.5"/>
<text text-anchor="middle" x="1408" y="-63.5" font-family="Helvetica,sans-Serif" font-size="10.00">Realm::AddressSplitXferDesBase</text>
</a>
</g>
</g>
<!-- Node2&#45;&gt;Node1 -->
<g id="edge1_Node000001_Node000002" class="edge">
<title>Node2&#45;&gt;Node1</title>
<g id="a_edge1_Node000001_Node000002"><a xlink:title=" ">
<path fill="none" stroke="#63b8ff" d="M1475.13,-77.27C1512.02,-83.56 1558.13,-91.42 1596.56,-97.97"/>
<polygon fill="#63b8ff" stroke="#63b8ff" points="1475.43,-73.77 1464.99,-75.54 1474.26,-80.67 1475.43,-73.77"/>
</a>
</g>
</g>
<!-- Node3 -->
<g id="Node000003" class="node">
<title>Node3</title>
<g id="a_Node000003"><a xlink:href="classRealm_1_1XferDes.html" target="_top" xlink:title=" ">
<polygon fill="white" stroke="#666666" points="1180,-186.5 1087,-186.5 1087,-167.5 1180,-167.5 1180,-186.5"/>
<text text-anchor="middle" x="1133.5" y="-174.5" font-family="Helvetica,sans-Serif" font-size="10.00">Realm::XferDes</text>
</a>
</g>
</g>
<!-- Node3&#45;&gt;Node2 -->
<g id="edge2_Node000002_Node000003" class="edge">
<title>Node3&#45;&gt;Node2</title>
<g id="a_edge2_Node000002_Node000003"><a xlink:title=" ">
<path fill="none" stroke="#63b8ff" d="M1143.09,-158.09C1154.43,-135.59 1176.67,-98.96 1208,-82 1241.37,-63.93 1282.61,-58.39 1318.87,-57.97"/>
<polygon fill="#63b8ff" stroke="#63b8ff" points="1139.84,-156.78 1138.66,-167.3 1146.14,-159.81 1139.84,-156.78"/>
</a>
</g>
</g>
<!-- Node17 -->
<g id="Node000017" class="node">
<title>Node17</title>
<g id="a_Node000017"><a xlink:href="structRealm_1_1IntrusivePriorityListLink.html" target="_top" xlink:title=" ">
<polygon fill="white" stroke="#666666" points="1484.5,-124 1331.5,-124 1331.5,-94 1484.5,-94 1484.5,-124"/>
<text text-anchor="start" x="1339.5" y="-112" font-family="Helvetica,sans-Serif" font-size="10.00">Realm::IntrusivePriority</text>
<text text-anchor="middle" x="1408" y="-101" font-family="Helvetica,sans-Serif" font-size="10.00">ListLink&lt; Realm::XferDes &gt;</text>
</a>
</g>
</g>
<!-- Node3&#45;&gt;Node17 -->
<g id="edge18_Node000017_Node000003" class="edge">
<title>Node3&#45;&gt;Node17</title>
<g id="a_edge18_Node000017_Node000003"><a xlink:title=" ">
<path fill="none" stroke="#9a32cd" stroke-dasharray="5,2" d="M1145.24,-158.79C1157.63,-139.79 1179.94,-111.11 1208,-99 1254.37,-78.98 1312.57,-85.05 1354.03,-93.96"/>
<polygon fill="#9a32cd" stroke="#9a32cd" points="1142.16,-157.13 1139.83,-167.47 1148.1,-160.83 1142.16,-157.13"/>
</a>
</g>
<text text-anchor="middle" x="1254.5" y="-124" font-family="Helvetica,sans-Serif" font-size="10.00" fill="grey"> lastlink_within_pri</text>
<text text-anchor="middle" x="1254.5" y="-113" font-family="Helvetica,sans-Serif" font-size="10.00" fill="grey">next_lower_pri</text>
<text text-anchor="middle" x="1254.5" y="-102" font-family="Helvetica,sans-Serif" font-size="10.00" fill="grey">next_within_pri</text>
</g>
<!-- Node18 -->
<g id="Node000018" class="node">
<title>Node18</title>
<g id="a_Node000018"><a xlink:href="classRealm_1_1XferDes_1_1DeferredXDEnqueue.html" target="_top" xlink:title=" ">
<polygon fill="white" stroke="#666666" points="1479,-246 1337,-246 1337,-216 1479,-216 1479,-246"/>
<text text-anchor="start" x="1345" y="-234" font-family="Helvetica,sans-Serif" font-size="10.00">Realm::XferDes::Deferred</text>
<text text-anchor="middle" x="1408" y="-223" font-family="Helvetica,sans-Serif" font-size="10.00">XDEnqueue</text>
</a>
</g>
</g>
<!-- Node3&#45;&gt;Node18 -->
<g id="edge24_Node000018_Node000003" class="edge">
<title>Node3&#45;&gt;Node18</title>
<g id="a_edge24_Node000018_Node000003"><a xlink:title=" ">
<path fill="none" stroke="#9a32cd" stroke-dasharray="5,2" d="M1152.83,-193.12C1166.87,-204.37 1187.29,-218.49 1208,-225 1249.38,-238 1298.02,-239.69 1336.85,-238.05"/>
<polygon fill="#9a32cd" stroke="#9a32cd" points="1154.9,-190.28 1144.97,-186.58 1150.42,-195.66 1154.9,-190.28"/>
</a>
</g>
<text text-anchor="middle" x="1254.5" y="-241" font-family="Helvetica,sans-Serif" font-size="10.00" fill="grey"> xd</text>
</g>
<!-- Node4 -->
<g id="Node000004" class="node">
<title>Node4</title>
<g id="a_Node000004"><a xlink:href="classRealm_1_1XferDesQueue.html" target="_top" xlink:title=" ">
<polygon fill="white" stroke="#666666" points="918,-274.5 793,-274.5 793,-255.5 918,-255.5 918,-274.5"/>
<text text-anchor="middle" x="855.5" y="-262.5" font-family="Helvetica,sans-Serif" font-size="10.00">Realm::XferDesQueue</text>
</a>
</g>
</g>
<!-- Node4&#45;&gt;Node3 -->
<g id="edge3_Node000003_Node000004" class="edge">
<title>Node4&#45;&gt;Node3</title>
<g id="a_edge3_Node000003_Node000004"><a xlink:title=" ">
<path fill="none" stroke="#9a32cd" stroke-dasharray="5,2" d="M928.24,-253.8C976.57,-245.69 1035.61,-234.53 1059,-225 1082.71,-215.34 1106.96,-197.69 1120.82,-186.69"/>
<polygon fill="#9a32cd" stroke="#9a32cd" points="927.4,-250.39 918.11,-255.48 928.55,-257.3 927.4,-250.39"/>
</a>
</g>
<text text-anchor="middle" x="1005" y="-252" font-family="Helvetica,sans-Serif" font-size="10.00" fill="grey"> xferDes_queue</text>
</g>
<!-- Node4&#45;&gt;Node18 -->
<g id="edge23_Node000018_Node000004" class="edge">
<title>Node4&#45;&gt;Node18</title>
<g id="a_edge23_Node000018_Node000004"><a xlink:title=" ">
<path fill="none" stroke="#9a32cd" stroke-dasharray="5,2" d="M928.43,-267.37C1016.6,-269.29 1170.41,-269.41 1301,-253 1314.61,-251.29 1329.08,-248.76 1342.81,-246.03"/>
<polygon fill="#9a32cd" stroke="#9a32cd" points="928.35,-263.87 918.27,-267.14 928.18,-270.87 928.35,-263.87"/>
</a>
</g>
<text text-anchor="middle" x="1133.5" y="-270" font-family="Helvetica,sans-Serif" font-size="10.00" fill="grey"> xferDes_queue</text>
</g>
<!-- Node5 -->
<g id="Node000005" class="node">
<title>Node5</title>
<g id="a_Node000005"><a xlink:href="classRealm_1_1UnfairMutex.html" target="_top" xlink:title=" ">
<polygon fill="white" stroke="#666666" points="622.5,-305.5 507.5,-305.5 507.5,-286.5 622.5,-286.5 622.5,-305.5"/>
<text text-anchor="middle" x="565" y="-293.5" font-family="Helvetica,sans-Serif" font-size="10.00">Realm::UnfairMutex</text>
</a>
</g>
</g>
<!-- Node5&#45;&gt;Node3 -->
<g id="edge15_Node000003_Node000005" class="edge">
<title>Node5&#45;&gt;Node3</title>
<g id="a_edge15_Node000003_Node000005"><a xlink:title=" ">
<path fill="none" stroke="#9a32cd" stroke-dasharray="5,2" d="M622.66,-307.28C719.22,-323.4 918.79,-343.05 1059,-264 1092.41,-245.16 1117.39,-204.91 1127.53,-186.52"/>
<polygon fill="#9a32cd" stroke="#9a32cd" points="622.97,-303.78 612.53,-305.53 621.79,-310.68 622.97,-303.78"/>
</a>
</g>
<text text-anchor="middle" x="855.5" y="-357" font-family="Helvetica,sans-Serif" font-size="10.00" fill="grey"> available_req_mutex</text>
<text text-anchor="middle" x="855.5" y="-346" font-family="Helvetica,sans-Serif" font-size="10.00" fill="grey">update_read_lock</text>
<text text-anchor="middle" x="855.5" y="-335" font-family="Helvetica,sans-Serif" font-size="10.00" fill="grey">update_write_lock</text>
<text text-anchor="middle" x="855.5" y="-324" font-family="Helvetica,sans-Serif" font-size="10.00" fill="grey">xd_lock</text>
</g>
<!-- Node5&#45;&gt;Node4 -->
<g id="edge4_Node000004_Node000005" class="edge">
<title>Node5&#45;&gt;Node4</title>
<g id="a_edge4_Node000004_Node000005"><a xlink:title=" ">
<path fill="none" stroke="#9a32cd" stroke-dasharray="5,2" d="M618.51,-284.41C632.87,-281.6 648.48,-278.87 663,-277 706.12,-271.45 755.04,-268.44 792.64,-266.82"/>
<polygon fill="#9a32cd" stroke="#9a32cd" points="617.41,-281.06 608.3,-286.47 618.79,-287.93 617.41,-281.06"/>
</a>
</g>
<text text-anchor="middle" x="711.5" y="-291" font-family="Helvetica,sans-Serif" font-size="10.00" fill="grey"> guid_lock</text>
<text text-anchor="middle" x="711.5" y="-280" font-family="Helvetica,sans-Serif" font-size="10.00" fill="grey">queues_lock</text>
</g>
<!-- Node6 -->
<g id="Node000006" class="node">
<title>Node6</title>
<g id="a_Node000006"><a xlink:href="classRealm_1_1noncopyable.html" target="_top" xlink:title=" ">
<polygon fill="white" stroke="#666666" points="396,-342.5 280,-342.5 280,-323.5 396,-323.5 396,-342.5"/>
<text text-anchor="middle" x="338" y="-330.5" font-family="Helvetica,sans-Serif" font-size="10.00">Realm::noncopyable</text>
</a>
</g>
</g>
<!-- Node6&#45;&gt;Node5 -->
<g id="edge5_Node000005_Node000006" class="edge">
<title>Node6&#45;&gt;Node5</title>
<g id="a_edge5_Node000005_Node000006"><a xlink:title=" ">
<path fill="none" stroke="#63b8ff" d="M406.3,-321.93C438.52,-316.63 476.68,-310.36 507.38,-305.31"/>
<polygon fill="#63b8ff" stroke="#63b8ff" points="405.37,-318.54 396.07,-323.62 406.5,-325.45 405.37,-318.54"/>
</a>
</g>
</g>
<!-- Node7 -->
<g id="Node000007" class="node">
<title>Node7</title>
<g id="a_Node000007"><a xlink:href="classRealm_1_1atomic.html" target="_top" xlink:title=" ">
<polygon fill="white" stroke="#666666" points="413,-305.5 263,-305.5 263,-286.5 413,-286.5 413,-305.5"/>
<text text-anchor="middle" x="338" y="-293.5" font-family="Helvetica,sans-Serif" font-size="10.00">Realm::atomic&lt; uint32_t &gt;</text>
</a>
</g>
</g>
<!-- Node7&#45;&gt;Node5 -->
<g id="edge6_Node000005_Node000007" class="edge">
<title>Node7&#45;&gt;Node5</title>
<g id="a_edge6_Node000005_Node000007"><a xlink:title=" ">
<path fill="none" stroke="#9a32cd" stroke-dasharray="5,2" d="M423.47,-296C451.44,-296 481.88,-296 507.25,-296"/>
<polygon fill="#9a32cd" stroke="#9a32cd" points="423.3,-292.5 413.3,-296 423.3,-299.5 423.3,-292.5"/>
</a>
</g>
<text text-anchor="middle" x="449" y="-299" font-family="Helvetica,sans-Serif" font-size="10.00" fill="grey"> state</text>
</g>
<!-- Node8 -->
<g id="Node000008" class="node">
<title>Node8</title>
<g id="a_Node000008"><a xlink:href="classRealm_1_1DoorbellList.html" target="_top" xlink:title=" ">
<polygon fill="white" stroke="#666666" points="394.5,-268.5 281.5,-268.5 281.5,-249.5 394.5,-249.5 394.5,-268.5"/>
<text text-anchor="middle" x="338" y="-256.5" font-family="Helvetica,sans-Serif" font-size="10.00">Realm::DoorbellList</text>
</a>
</g>
</g>
<!-- Node8&#45;&gt;Node5 -->
<g id="edge7_Node000005_Node000008" class="edge">
<title>Node8&#45;&gt;Node5</title>
<g id="a_edge7_Node000005_Node000008"><a xlink:title=" ">
<path fill="none" stroke="#9a32cd" stroke-dasharray="5,2" d="M404.52,-269.77C437.13,-275.14 476.17,-281.56 507.46,-286.7"/>
<polygon fill="#9a32cd" stroke="#9a32cd" points="405.05,-266.32 394.62,-268.15 403.92,-273.22 405.05,-266.32"/>
</a>
</g>
<text text-anchor="middle" x="449" y="-282" font-family="Helvetica,sans-Serif" font-size="10.00" fill="grey"> db_list</text>
</g>
<!-- Node9 -->
<g id="Node000009" class="node">
<title>Node9</title>
<g id="a_Node000009"><a xlink:href="classRealm_1_1atomic.html" target="_top" xlink:title=" ">
<polygon fill="white" stroke="#666666" points="152,-268.5 0,-268.5 0,-249.5 152,-249.5 152,-268.5"/>
<text text-anchor="middle" x="76" y="-256.5" font-family="Helvetica,sans-Serif" font-size="10.00">Realm::atomic&lt; uintptr_t &gt;</text>
</a>
</g>
</g>
<!-- Node9&#45;&gt;Node8 -->
<g id="edge8_Node000008_Node000009" class="edge">
<title>Node9&#45;&gt;Node8</title>
<g id="a_edge8_Node000008_Node000009"><a xlink:title=" ">
<path fill="none" stroke="#9a32cd" stroke-dasharray="5,2" d="M162.52,-259C201.61,-259 246.79,-259 281.38,-259"/>
<polygon fill="#9a32cd" stroke="#9a32cd" points="162.2,-255.5 152.2,-259 162.2,-262.5 162.2,-255.5"/>
</a>
</g>
<text text-anchor="middle" x="207.5" y="-262" font-family="Helvetica,sans-Serif" font-size="10.00" fill="grey"> head_or_count</text>
</g>
<!-- Node10 -->
<g id="Node000010" class="node">
<title>Node10</title>
<g id="a_Node000010"><a xlink:href="classRealm_1_1atomic.html" target="_top" xlink:title=" ">
<polygon fill="white" stroke="#666666" points="645,-251.5 485,-251.5 485,-232.5 645,-232.5 645,-251.5"/>
<text text-anchor="middle" x="565" y="-239.5" font-family="Helvetica,sans-Serif" font-size="10.00">Realm::atomic&lt; XferDesID &gt;</text>
</a>
</g>
</g>
<!-- Node10&#45;&gt;Node4 -->
<g id="edge9_Node000004_Node000010" class="edge">
<title>Node10&#45;&gt;Node4</title>
<g id="a_edge9_Node000004_Node000010"><a xlink:title=" ">
<path fill="none" stroke="#9a32cd" stroke-dasharray="5,2" d="M655.15,-238.3C688.19,-238.02 725.9,-238.99 760,-243 780.75,-245.44 803.56,-250.67 821.58,-255.43"/>
<polygon fill="#9a32cd" stroke="#9a32cd" points="655.02,-234.8 645.06,-238.42 655.1,-241.8 655.02,-234.8"/>
</a>
</g>
<text text-anchor="middle" x="711.5" y="-246" font-family="Helvetica,sans-Serif" font-size="10.00" fill="grey"> next_to_assign_idx</text>
</g>
<!-- Node11 -->
<g id="Node000011" class="node">
<title>Node11</title>
<g id="a_Node000011"><a xlink:href="classRealm_1_1atomic.html" target="_top" xlink:title=" ">
<polygon fill="white" stroke="#666666" points="921,-71.5 790,-71.5 790,-52.5 921,-52.5 921,-71.5"/>
<text text-anchor="middle" x="855.5" y="-59.5" font-family="Helvetica,sans-Serif" font-size="10.00">Realm::atomic&lt; bool &gt;</text>
</a>
</g>
</g>
<!-- Node11&#45;&gt;Node3 -->
<g id="edge10_Node000003_Node000011" class="edge">
<title>Node11&#45;&gt;Node3</title>
<g id="a_edge10_Node000003_Node000011"><a xlink:title=" ">
<path fill="none" stroke="#9a32cd" stroke-dasharray="5,2" d="M931.09,-53.51C971.31,-52.34 1020.46,-56.67 1059,-78 1096.08,-98.52 1119.77,-146.52 1128.6,-167.22"/>
<polygon fill="#9a32cd" stroke="#9a32cd" points="930.92,-50.01 921.07,-53.92 931.21,-57.01 930.92,-50.01"/>
</a>
</g>
<text text-anchor="middle" x="1005" y="-92" font-family="Helvetica,sans-Serif" font-size="10.00" fill="grey"> iteration_completed</text>
<text text-anchor="middle" x="1005" y="-81" font-family="Helvetica,sans-Serif" font-size="10.00" fill="grey">transfer_completed</text>
</g>
<!-- Node12 -->
<g id="Node000012" class="node">
<title>Node12</title>
<g id="a_Node000012"><a xlink:href="classRealm_1_1atomic.html" target="_top" xlink:title=" ">
<polygon fill="white" stroke="#666666" points="927.5,-34.5 783.5,-34.5 783.5,-15.5 927.5,-15.5 927.5,-34.5"/>
<text text-anchor="middle" x="855.5" y="-22.5" font-family="Helvetica,sans-Serif" font-size="10.00">Realm::atomic&lt; int64_t &gt;</text>
</a>
</g>
</g>
<!-- Node12&#45;&gt;Node3 -->
<g id="edge11_Node000003_Node000012" class="edge">
<title>Node12&#45;&gt;Node3</title>
<g id="a_edge11_Node000003_Node000012"><a xlink:title=" ">
<path fill="none" stroke="#9a32cd" stroke-dasharray="5,2" d="M918.67,-14.43C961.46,-10.51 1017.8,-12.29 1059,-39 1083.03,-54.58 1117.38,-138.23 1128.71,-167.15"/>
<polygon fill="#9a32cd" stroke="#9a32cd" points="918.24,-10.96 908.65,-15.47 918.96,-17.92 918.24,-10.96"/>
</a>
</g>
<text text-anchor="middle" x="1005" y="-42" font-family="Helvetica,sans-Serif" font-size="10.00" fill="grey"> bytes_write_pending</text>
</g>
<!-- Node13 -->
<g id="Node000013" class="node">
<title>Node13</title>
<g id="a_Node000013"><a xlink:href="structRealm_1_1XferDes_1_1ControlPortState.html" target="_top" xlink:title=" ">
<polygon fill="white" stroke="#666666" points="932.5,-227 778.5,-227 778.5,-197 932.5,-197 932.5,-227"/>
<text text-anchor="start" x="786.5" y="-215" font-family="Helvetica,sans-Serif" font-size="10.00">Realm::XferDes::ControlPort</text>
<text text-anchor="middle" x="855.5" y="-204" font-family="Helvetica,sans-Serif" font-size="10.00">State</text>
</a>
</g>
</g>
<!-- Node13&#45;&gt;Node3 -->
<g id="edge12_Node000003_Node000013" class="edge">
<title>Node13&#45;&gt;Node3</title>
<g id="a_edge12_Node000003_Node000013"><a xlink:title=" ">
<path fill="none" stroke="#9a32cd" stroke-dasharray="5,2" d="M942.67,-201.07C990.36,-195.02 1047.72,-187.75 1086.82,-182.79"/>
<polygon fill="#9a32cd" stroke="#9a32cd" points="942.13,-197.61 932.65,-202.34 943.01,-204.56 942.13,-197.61"/>
</a>
</g>
<text text-anchor="middle" x="1005" y="-213" font-family="Helvetica,sans-Serif" font-size="10.00" fill="grey"> input_control</text>
<text text-anchor="middle" x="1005" y="-202" font-family="Helvetica,sans-Serif" font-size="10.00" fill="grey">output_control</text>
</g>
<!-- Node14 -->
<g id="Node000014" class="node">
<title>Node14</title>
<g id="a_Node000014"><a xlink:href="classRealm_1_1ControlPort_1_1Decoder.html" target="_top" xlink:title=" ">
<polygon fill="white" stroke="#666666" points="619.5,-214 510.5,-214 510.5,-184 619.5,-184 619.5,-214"/>
<text text-anchor="start" x="518.5" y="-202" font-family="Helvetica,sans-Serif" font-size="10.00">Realm::ControlPort</text>
<text text-anchor="middle" x="565" y="-191" font-family="Helvetica,sans-Serif" font-size="10.00">::Decoder</text>
</a>
</g>
</g>
<!-- Node14&#45;&gt;Node13 -->
<g id="edge13_Node000013_Node000014" class="edge">
<title>Node14&#45;&gt;Node13</title>
<g id="a_edge13_Node000013_Node000014"><a xlink:title=" ">
<path fill="none" stroke="#9a32cd" stroke-dasharray="5,2" d="M629.84,-201.88C673.68,-203.85 732.08,-206.48 778.36,-208.57"/>
<polygon fill="#9a32cd" stroke="#9a32cd" points="629.74,-198.37 619.59,-201.41 629.42,-205.36 629.74,-198.37"/>
</a>
</g>
<text text-anchor="middle" x="711.5" y="-210" font-family="Helvetica,sans-Serif" font-size="10.00" fill="grey"> decoder</text>
</g>
<!-- Node15 -->
<g id="Node000015" class="node">
<title>Node15</title>
<g id="a_Node000015"><a xlink:href="classRealm_1_1Channel.html" target="_top" xlink:title=" ">
<polygon fill="white" stroke="#666666" points="902.5,-178.5 808.5,-178.5 808.5,-159.5 902.5,-159.5 902.5,-178.5"/>
<text text-anchor="middle" x="855.5" y="-166.5" font-family="Helvetica,sans-Serif" font-size="10.00">Realm::Channel</text>
</a>
</g>
</g>
<!-- Node15&#45;&gt;Node3 -->
<g id="edge14_Node000003_Node000015" class="edge">
<title>Node15&#45;&gt;Node3</title>
<g id="a_edge14_Node000003_Node000015"><a xlink:title=" ">
<path fill="none" stroke="#9a32cd" stroke-dasharray="5,2" d="M912.94,-170.64C964.22,-172.12 1038.92,-174.29 1086.61,-175.67"/>
<polygon fill="#9a32cd" stroke="#9a32cd" points="912.79,-167.13 902.7,-170.34 912.59,-174.13 912.79,-167.13"/>
</a>
</g>
<text text-anchor="middle" x="1005" y="-177" font-family="Helvetica,sans-Serif" font-size="10.00" fill="grey"> channel</text>
</g>
<!-- Node16 -->
<g id="Node000016" class="node">
<title>Node16</title>
<g id="a_Node000016"><a xlink:href="classRealm_1_1atomic.html" target="_top" xlink:title=" ">
<polygon fill="white" stroke="#666666" points="933,-116.5 778,-116.5 778,-97.5 933,-97.5 933,-116.5"/>
<text text-anchor="middle" x="855.5" y="-104.5" font-family="Helvetica,sans-Serif" font-size="10.00">Realm::atomic&lt; unsigned &gt;</text>
</a>
</g>
</g>
<!-- Node16&#45;&gt;Node3 -->
<g id="edge16_Node000003_Node000016" class="edge">
<title>Node16&#45;&gt;Node3</title>
<g id="a_edge16_Node000003_Node000016"><a xlink:title=" ">
<path fill="none" stroke="#9a32cd" stroke-dasharray="5,2" d="M943.35,-103.47C980.03,-104.6 1022.6,-109.45 1059,-123 1085.12,-132.72 1110.06,-154.6 1123.1,-167.32"/>
<polygon fill="#9a32cd" stroke="#9a32cd" points="943.24,-99.97 933.17,-103.25 943.09,-106.97 943.24,-99.97"/>
</a>
</g>
<text text-anchor="start" x="951" y="-159" font-family="Helvetica,sans-Serif" font-size="10.00" fill="grey"> nb_update_pre_bytes</text>
<text text-anchor="middle" x="1005" y="-148" font-family="Helvetica,sans-Serif" font-size="10.00" fill="grey">_total_calls_received</text>
<text text-anchor="middle" x="1005" y="-137" font-family="Helvetica,sans-Serif" font-size="10.00" fill="grey">progress_counter</text>
<text text-anchor="middle" x="1005" y="-126" font-family="Helvetica,sans-Serif" font-size="10.00" fill="grey">reference_count</text>
</g>
<!-- Node17&#45;&gt;Node3 -->
<g id="edge17_Node000003_Node000017" class="edge">
<title>Node17&#45;&gt;Node3</title>
<g id="a_edge17_Node000003_Node000017"><a xlink:title=" ">
<path fill="none" stroke="#9a32cd" stroke-dasharray="5,2" d="M1338.53,-126.53C1326.05,-129.7 1313.14,-132.96 1301,-136 1257.39,-146.92 1207.3,-159.22 1173.55,-167.48"/>
<polygon fill="#9a32cd" stroke="#9a32cd" points="1339.6,-129.87 1348.43,-124.01 1337.87,-123.08 1339.6,-129.87"/>
</a>
</g>
<text text-anchor="middle" x="1254.5" y="-161" font-family="Helvetica,sans-Serif" font-size="10.00" fill="grey"> xd_link</text>
</g>
<!-- Node18&#45;&gt;Node3 -->
<g id="edge19_Node000003_Node000018" class="edge">
<title>Node18&#45;&gt;Node3</title>
<g id="a_edge19_Node000003_Node000018"><a xlink:title=" ">
<path fill="none" stroke="#9a32cd" stroke-dasharray="5,2" d="M1326.94,-215.46C1290.62,-208.37 1247.13,-199.83 1208,-192 1199.06,-190.21 1189.51,-188.28 1180.36,-186.42"/>
<polygon fill="#9a32cd" stroke="#9a32cd" points="1326.5,-218.94 1336.98,-217.42 1327.84,-212.07 1326.5,-218.94"/>
</a>
</g>
<text text-anchor="middle" x="1254.5" y="-213" font-family="Helvetica,sans-Serif" font-size="10.00" fill="grey"> deferred_enqueue</text>
</g>
<!-- Node19 -->
<g id="Node000019" class="node">
<title>Node19</title>
<g id="a_Node000019"><a xlink:href="classRealm_1_1EventWaiter.html" target="_top" xlink:title=" ">
<polygon fill="white" stroke="#666666" points="1190,-49.5 1077,-49.5 1077,-30.5 1190,-30.5 1190,-49.5"/>
<text text-anchor="middle" x="1133.5" y="-37.5" font-family="Helvetica,sans-Serif" font-size="10.00">Realm::EventWaiter</text>
</a>
</g>
</g>
<!-- Node19&#45;&gt;Node18 -->
<g id="edge20_Node000018_Node000019" class="edge">
<title>Node19&#45;&gt;Node18</title>
<g id="a_edge20_Node000018_Node000019"><a xlink:title=" ">
<path fill="none" stroke="#63b8ff" d="M1144.56,-58.72C1156.83,-79.79 1179.5,-113.62 1208,-133 1243.69,-157.27 1264.55,-137.88 1301,-161 1311.1,-167.41 1309.68,-173.51 1319,-181 1336.12,-194.77 1357.5,-207.01 1374.9,-215.94"/>
<polygon fill="#63b8ff" stroke="#63b8ff" points="1147.49,-56.77 1139.54,-49.77 1141.38,-60.2 1147.49,-56.77"/>
</a>
</g>
</g>
<!-- Node20 -->
<g id="Node000020" class="node">
<title>Node20</title>
<g id="a_Node000020"><a xlink:href="structRealm_1_1IntrusiveListLink.html" target="_top" xlink:title=" ">
<polygon fill="white" stroke="#666666" points="1476,-30 1340,-30 1340,0 1476,0 1476,-30"/>
<text text-anchor="start" x="1348" y="-18" font-family="Helvetica,sans-Serif" font-size="10.00">Realm::IntrusiveListLink</text>
<text text-anchor="middle" x="1408" y="-7" font-family="Helvetica,sans-Serif" font-size="10.00">&lt; Realm::EventWaiter &gt;</text>
</a>
</g>
</g>
<!-- Node19&#45;&gt;Node20 -->
<g id="edge22_Node000020_Node000019" class="edge">
<title>Node19&#45;&gt;Node20</title>
<g id="a_edge22_Node000020_Node000019"><a xlink:title=" ">
<path fill="none" stroke="#9a32cd" stroke-dasharray="5,2" d="M1162.14,-26.24C1175.62,-20.28 1192.28,-13.99 1208,-11 1251.28,-2.77 1300.81,-3.73 1339.63,-6.77"/>
<polygon fill="#9a32cd" stroke="#9a32cd" points="1160.57,-23.11 1152.95,-30.47 1163.5,-29.47 1160.57,-23.11"/>
</a>
</g>
<text text-anchor="middle" x="1254.5" y="-14" font-family="Helvetica,sans-Serif" font-size="10.00" fill="grey"> next</text>
</g>
<!-- Node20&#45;&gt;Node19 -->
<g id="edge21_Node000019_Node000020" class="edge">
<title>Node20&#45;&gt;Node19</title>
<g id="a_edge21_Node000019_Node000020"><a xlink:title=" ">
<path fill="none" stroke="#9a32cd" stroke-dasharray="5,2" d="M1329.54,-22.11C1285.15,-26.18 1230.46,-31.2 1190.3,-34.88"/>
<polygon fill="#9a32cd" stroke="#9a32cd" points="1330.07,-25.57 1339.71,-21.17 1329.43,-18.6 1330.07,-25.57"/>
</a>
</g>
<text text-anchor="middle" x="1254.5" y="-36" font-family="Helvetica,sans-Serif" font-size="10.00" fill="grey"> ew_list_link</text>
</g>
<!-- Node21 -->
<g id="Node000021" class="node">
<title>Node21</title>
<g id="a_Node000021"><a xlink:href="classRealm_1_1ControlPort_1_1Encoder.html" target="_top" xlink:title=" ">
<polygon fill="white" stroke="#666666" points="1462.5,-172 1353.5,-172 1353.5,-142 1462.5,-142 1462.5,-172"/>
<text text-anchor="start" x="1361.5" y="-160" font-family="Helvetica,sans-Serif" font-size="10.00">Realm::ControlPort</text>
<text text-anchor="middle" x="1408" y="-149" font-family="Helvetica,sans-Serif" font-size="10.00">::Encoder</text>
</a>
</g>
</g>
<!-- Node21&#45;&gt;Node1 -->
<g id="edge25_Node000001_Node000021" class="edge">
<title>Node21&#45;&gt;Node1</title>
<g id="a_edge25_Node000001_Node000021"><a xlink:title=" ">
<path fill="none" stroke="#9a32cd" stroke-dasharray="5,2" d="M1472.99,-145.85C1510.3,-139.35 1557.59,-131.11 1596.82,-124.27"/>
<polygon fill="#9a32cd" stroke="#9a32cd" points="1471.99,-142.47 1462.74,-147.64 1473.19,-149.37 1471.99,-142.47"/>
</a>
</g>
<text text-anchor="middle" x="1547" y="-141" font-family="Helvetica,sans-Serif" font-size="10.00" fill="grey"> ctrl_encoder</text>
</g>
</g>
</svg>
