<?xml version="1.0" encoding="UTF-8" standalone="no"?>
<!DOCTYPE svg PUBLIC "-//W3C//DTD SVG 1.1//EN"
 "http://www.w3.org/Graphics/SVG/1.1/DTD/svg11.dtd">
<!-- Generated by graphviz version 2.43.0 (0)
 -->
<!-- Title: Realm::ModuleRegistrar::NetworkRegistration&lt; T &gt; Pages: 1 -->
<svg width="201pt" height="105pt"
 viewBox="0.00 0.00 200.50 105.00" xmlns="http://www.w3.org/2000/svg" xmlns:xlink="http://www.w3.org/1999/xlink">
<g id="graph0" class="graph" transform="scale(1 1) rotate(0) translate(4 101)">
<title>Realm::ModuleRegistrar::NetworkRegistration&lt; T &gt;</title>
<!-- Node1 -->
<g id="Node000001" class="node">
<title>Node1</title>
<g id="a_Node000001"><a xlink:title=" ">
<polygon fill="#999999" stroke="#666666" points="152,-30 0,-30 0,0 152,0 152,-30"/>
<text text-anchor="start" x="8" y="-18" font-family="Helvetica,sans-Serif" font-size="10.00">Realm::ModuleRegistrar</text>
<text text-anchor="middle" x="76" y="-7" font-family="Helvetica,sans-Serif" font-size="10.00">::NetworkRegistration&lt; T &gt;</text>
</a>
</g>
</g>
<!-- Node2 -->
<g id="Node000002" class="node">
<title>Node2</title>
<g id="a_Node000002"><a xlink:href="classRealm_1_1ModuleRegistrar_1_1NetworkRegistrationBase.html" target="_top" xlink:title=" ">
<polygon fill="white" stroke="#666666" points="149.5,-97 2.5,-97 2.5,-67 149.5,-67 149.5,-97"/>
<text text-anchor="start" x="10.5" y="-85" font-family="Helvetica,sans-Serif" font-size="10.00">Realm::ModuleRegistrar</text>
<text text-anchor="middle" x="76" y="-74" font-family="Helvetica,sans-Serif" font-size="10.00">::NetworkRegistrationBase</text>
</a>
</g>
</g>
<!-- Node2&#45;&gt;Node1 -->
<g id="edge1_Node000001_Node000002" class="edge">
<title>Node2&#45;&gt;Node1</title>
<g id="a_edge1_Node000001_Node000002"><a xlink:title=" ">
<path fill="none" stroke="#63b8ff" d="M76,-56.61C76,-47.65 76,-37.82 76,-30.08"/>
<polygon fill="#63b8ff" stroke="#63b8ff" points="72.5,-56.9 76,-66.9 79.5,-56.9 72.5,-56.9"/>
</a>
</g>
</g>
<!-- Node2&#45;&gt;Node2 -->
<g id="edge2_Node000002_Node000002" class="edge">
<title>Node2&#45;&gt;Node2</title>
<g id="a_edge2_Node000002_Node000002"><a xlink:title=" ">
<path fill="none" stroke="#9a32cd" stroke-dasharray="5,2" d="M159.6,-86.12C164.54,-85.14 167.5,-83.76 167.5,-82 167.5,-79.25 160.29,-77.45 149.59,-76.59"/>
<polygon fill="#9a32cd" stroke="#9a32cd" points="159.06,-82.66 149.59,-87.41 159.96,-89.6 159.06,-82.66"/>
</a>
</g>
<text text-anchor="middle" x="180" y="-79.5" font-family="Helvetica,sans-Serif" font-size="10.00" fill="grey"> next</text>
</g>
</g>
</svg>
