<?xml version="1.0" encoding="UTF-8" standalone="no"?>
<!DOCTYPE svg PUBLIC "-//W3C//DTD SVG 1.1//EN"
 "http://www.w3.org/Graphics/SVG/1.1/DTD/svg11.dtd">
<!-- Generated by graphviz version 2.43.0 (0)
 -->
<!-- Title: Realm::ReplicatedHeap::Listener Pages: 1 -->
<svg width="364pt" height="104pt"
 viewBox="0.00 0.00 363.50 104.00" xmlns="http://www.w3.org/2000/svg" xmlns:xlink="http://www.w3.org/1999/xlink">
<g id="graph0" class="graph" transform="scale(1 1) rotate(0) translate(4 100)">
<title>Realm::ReplicatedHeap::Listener</title>
<!-- Node1 -->
<g id="Node000001" class="node">
<title>Node1</title>
<g id="a_Node000001"><a xlink:title=" ">
<polygon fill="#999999" stroke="#666666" points="235,-96 104,-96 104,-66 235,-66 235,-96"/>
<text text-anchor="start" x="112" y="-84" font-family="Helvetica,sans-Serif" font-size="10.00">Realm::ReplicatedHeap</text>
<text text-anchor="middle" x="169.5" y="-73" font-family="Helvetica,sans-Serif" font-size="10.00">::Listener</text>
</a>
</g>
</g>
<!-- Node2 -->
<g id="Node000002" class="node">
<title>Node2</title>
<g id="a_Node000002"><a xlink:href="classRealm_1_1Cuda_1_1GPUReplHeapListener.html" target="_top" xlink:title=" ">
<polygon fill="white" stroke="#666666" points="153,-30 0,-30 0,0 153,0 153,-30"/>
<text text-anchor="start" x="8" y="-18" font-family="Helvetica,sans-Serif" font-size="10.00">Realm::Cuda::GPUReplHeap</text>
<text text-anchor="middle" x="76.5" y="-7" font-family="Helvetica,sans-Serif" font-size="10.00">Listener</text>
</a>
</g>
</g>
<!-- Node1&#45;&gt;Node2 -->
<g id="edge1_Node000001_Node000002" class="edge">
<title>Node1&#45;&gt;Node2</title>
<g id="a_edge1_Node000001_Node000002"><a xlink:title=" ">
<path fill="none" stroke="#63b8ff" d="M140.48,-60.03C126.41,-50.34 109.83,-38.94 97.08,-30.16"/>
<polygon fill="#63b8ff" stroke="#63b8ff" points="138.64,-63.01 148.86,-65.8 142.61,-57.24 138.64,-63.01"/>
</a>
</g>
</g>
<!-- Node3 -->
<g id="Node000003" class="node">
<title>Node3</title>
<g id="a_Node000003"><a xlink:href="classRealm_1_1Hip_1_1GPUReplHeapListener.html" target="_top" xlink:title=" ">
<polygon fill="white" stroke="#666666" points="355.5,-24.5 171.5,-24.5 171.5,-5.5 355.5,-5.5 355.5,-24.5"/>
<text text-anchor="middle" x="263.5" y="-12.5" font-family="Helvetica,sans-Serif" font-size="10.00">Realm::Hip::GPUReplHeapListener</text>
</a>
</g>
</g>
<!-- Node1&#45;&gt;Node3 -->
<g id="edge2_Node000001_Node000003" class="edge">
<title>Node1&#45;&gt;Node3</title>
<g id="a_edge2_Node000001_Node000003"><a xlink:title=" ">
<path fill="none" stroke="#63b8ff" d="M199.06,-59.87C216.46,-48.03 237.58,-33.65 250.78,-24.66"/>
<polygon fill="#63b8ff" stroke="#63b8ff" points="196.66,-57.28 190.36,-65.8 200.6,-63.06 196.66,-57.28"/>
</a>
</g>
</g>
</g>
</svg>
