<?xml version="1.0" encoding="UTF-8" standalone="no"?>
<!DOCTYPE svg PUBLIC "-//W3C//DTD SVG 1.1//EN"
 "http://www.w3.org/Graphics/SVG/1.1/DTD/svg11.dtd">
<!-- Generated by graphviz version 2.43.0 (0)
 -->
<!-- Title: Realm::ExternalCudaPinnedHostResource Pages: 1 -->
<svg width="1046pt" height="149pt"
 viewBox="0.00 0.00 1046.00 148.50" xmlns="http://www.w3.org/2000/svg" xmlns:xlink="http://www.w3.org/1999/xlink">
<g id="graph0" class="graph" transform="scale(1 1) rotate(0) translate(4 144.5)">
<title>Realm::ExternalCudaPinnedHostResource</title>
<!-- Node1 -->
<g id="Node000001" class="node">
<title>Node1</title>
<g id="a_Node000001"><a xlink:title=" ">
<polygon fill="#999999" stroke="#666666" points="1038,-64 886,-64 886,-34 1038,-34 1038,-64"/>
<text text-anchor="start" x="894" y="-52" font-family="Helvetica,sans-Serif" font-size="10.00">Realm::ExternalCudaPinned</text>
<text text-anchor="middle" x="962" y="-41" font-family="Helvetica,sans-Serif" font-size="10.00">HostResource</text>
</a>
</g>
</g>
<!-- Node2 -->
<g id="Node000002" class="node">
<title>Node2</title>
<g id="a_Node000002"><a xlink:href="classRealm_1_1ExternalMemoryResource.html" target="_top" xlink:title=" ">
<polygon fill="white" stroke="#666666" points="849,-86.5 669,-86.5 669,-67.5 849,-67.5 849,-86.5"/>
<text text-anchor="middle" x="759" y="-74.5" font-family="Helvetica,sans-Serif" font-size="10.00">Realm::ExternalMemoryResource</text>
</a>
</g>
</g>
<!-- Node2&#45;&gt;Node1 -->
<g id="edge1_Node000001_Node000002" class="edge">
<title>Node2&#45;&gt;Node1</title>
<g id="a_edge1_Node000001_Node000002"><a xlink:title=" ">
<path fill="none" stroke="#63b8ff" d="M838.47,-66.07C854.09,-63.89 870.46,-61.61 885.97,-59.45"/>
<polygon fill="#63b8ff" stroke="#63b8ff" points="837.75,-62.64 828.33,-67.48 838.72,-69.57 837.75,-62.64"/>
</a>
</g>
</g>
<!-- Node3 -->
<g id="Node000003" class="node">
<title>Node3</title>
<g id="a_Node000003"><a xlink:href="classRealm_1_1ExternalInstanceResource.html" target="_top" xlink:title=" ">
<polygon fill="white" stroke="#666666" points="392,-140.5 211,-140.5 211,-121.5 392,-121.5 392,-140.5"/>
<text text-anchor="middle" x="301.5" y="-128.5" font-family="Helvetica,sans-Serif" font-size="10.00">Realm::ExternalInstanceResource</text>
</a>
</g>
</g>
<!-- Node3&#45;&gt;Node2 -->
<g id="edge2_Node000002_Node000003" class="edge">
<title>Node3&#45;&gt;Node2</title>
<g id="a_edge2_Node000002_Node000003"><a xlink:title=" ">
<path fill="none" stroke="#63b8ff" d="M402.21,-120.59C471.95,-113.12 567.23,-102.56 651,-92 664.31,-90.32 678.53,-88.41 692.11,-86.53"/>
<polygon fill="#63b8ff" stroke="#63b8ff" points="401.69,-117.12 392.11,-121.66 402.43,-124.08 401.69,-117.12"/>
</a>
</g>
</g>
<!-- Node4 -->
<g id="Node000004" class="node">
<title>Node4</title>
<g id="a_Node000004"><a xlink:href="classRealm_1_1Serialization_1_1PolymorphicSerdezSubclass.html" target="_top" xlink:title=" ">
<polygon fill="white" stroke="#666666" points="399,-103 204,-103 204,-51 399,-51 399,-103"/>
<text text-anchor="start" x="212" y="-91" font-family="Helvetica,sans-Serif" font-size="10.00">Realm::Serialization</text>
<text text-anchor="start" x="212" y="-80" font-family="Helvetica,sans-Serif" font-size="10.00">::PolymorphicSerdezSubclass</text>
<text text-anchor="start" x="212" y="-69" font-family="Helvetica,sans-Serif" font-size="10.00">&lt; Realm::ExternalInstanceResource,</text>
<text text-anchor="middle" x="301.5" y="-58" font-family="Helvetica,sans-Serif" font-size="10.00"> Realm::ExternalMemoryResource &gt;</text>
</a>
</g>
</g>
<!-- Node4&#45;&gt;Node2 -->
<g id="edge3_Node000002_Node000004" class="edge">
<title>Node4&#45;&gt;Node2</title>
<g id="a_edge3_Node000002_Node000004"><a xlink:title=" ">
<path fill="none" stroke="#9a32cd" stroke-dasharray="5,2" d="M409.56,-77C488.47,-77 594.57,-77 668.88,-77"/>
<polygon fill="#9a32cd" stroke="#9a32cd" points="409.1,-73.5 399.1,-77 409.1,-80.5 409.1,-73.5"/>
</a>
</g>
<text text-anchor="middle" x="534" y="-80" font-family="Helvetica,sans-Serif" font-size="10.00" fill="grey"> serdez_subclass</text>
</g>
<!-- Node5 -->
<g id="Node000005" class="node">
<title>Node5</title>
<g id="a_Node000005"><a xlink:href="classRealm_1_1Serialization_1_1PolymorphicSerdezIntfc.html" target="_top" xlink:title=" ">
<polygon fill="white" stroke="#666666" points="167,-50 0,-50 0,-20 167,-20 167,-50"/>
<text text-anchor="start" x="8" y="-38" font-family="Helvetica,sans-Serif" font-size="10.00">Realm::Serialization</text>
<text text-anchor="middle" x="83.5" y="-27" font-family="Helvetica,sans-Serif" font-size="10.00">::PolymorphicSerdezIntfc&lt; T &gt;</text>
</a>
</g>
</g>
<!-- Node5&#45;&gt;Node4 -->
<g id="edge4_Node000004_Node000005" class="edge">
<title>Node5&#45;&gt;Node4</title>
<g id="a_edge4_Node000004_Node000005"><a xlink:title=" ">
<path fill="none" stroke="#63b8ff" d="M171.83,-51.98C182.32,-54.02 193.08,-56.11 203.69,-58.18"/>
<polygon fill="#63b8ff" stroke="#63b8ff" points="172.36,-48.52 161.87,-50.04 171.02,-55.39 172.36,-48.52"/>
</a>
</g>
</g>
<!-- Node6 -->
<g id="Node000006" class="node">
<title>Node6</title>
<g id="a_Node000006"><a xlink:href="classRealm_1_1Serialization_1_1PolymorphicSerdezSubclass.html" target="_top" xlink:title=" ">
<polygon fill="white" stroke="#666666" points="651,-52 417,-52 417,0 651,0 651,-52"/>
<text text-anchor="start" x="425" y="-40" font-family="Helvetica,sans-Serif" font-size="10.00">Realm::Serialization</text>
<text text-anchor="start" x="425" y="-29" font-family="Helvetica,sans-Serif" font-size="10.00">::PolymorphicSerdezSubclass</text>
<text text-anchor="start" x="425" y="-18" font-family="Helvetica,sans-Serif" font-size="10.00">&lt; Realm::ExternalInstanceResource,</text>
<text text-anchor="middle" x="534" y="-7" font-family="Helvetica,sans-Serif" font-size="10.00"> Realm::ExternalCudaPinnedHostResource &gt;</text>
</a>
</g>
</g>
<!-- Node5&#45;&gt;Node6 -->
<g id="edge6_Node000006_Node000005" class="edge">
<title>Node5&#45;&gt;Node6</title>
<g id="a_edge6_Node000006_Node000005"><a xlink:title=" ">
<path fill="none" stroke="#63b8ff" d="M177.08,-33.14C246.56,-31.75 342.15,-29.83 416.77,-28.33"/>
<polygon fill="#63b8ff" stroke="#63b8ff" points="176.95,-29.64 167.02,-33.34 177.09,-36.64 176.95,-29.64"/>
</a>
</g>
</g>
<!-- Node6&#45;&gt;Node1 -->
<g id="edge5_Node000001_Node000006" class="edge">
<title>Node6&#45;&gt;Node1</title>
<g id="a_edge5_Node000001_Node000006"><a xlink:title=" ">
<path fill="none" stroke="#9a32cd" stroke-dasharray="5,2" d="M661.32,-32.82C734.37,-36.76 823.83,-41.59 885.89,-44.94"/>
<polygon fill="#9a32cd" stroke="#9a32cd" points="661.3,-29.31 651.12,-32.27 660.92,-36.3 661.3,-29.31"/>
</a>
</g>
<text text-anchor="middle" x="759" y="-46" font-family="Helvetica,sans-Serif" font-size="10.00" fill="grey"> serdez_subclass</text>
</g>
</g>
</svg>
