<?xml version="1.0" encoding="UTF-8" standalone="no"?>
<!DOCTYPE svg PUBLIC "-//W3C//DTD SVG 1.1//EN"
 "http://www.w3.org/Graphics/SVG/1.1/DTD/svg11.dtd">
<!-- Generated by graphviz version 2.43.0 (0)
 -->
<!-- Title: Realm::GenericAccessor&lt; FT, N, T &gt; Pages: 1 -->
<svg width="822pt" height="166pt"
 viewBox="0.00 0.00 822.00 166.00" xmlns="http://www.w3.org/2000/svg" xmlns:xlink="http://www.w3.org/1999/xlink">
<g id="graph0" class="graph" transform="scale(1 1) rotate(0) translate(4 162)">
<title>Realm::GenericAccessor&lt; FT, N, T &gt;</title>
<!-- Node1 -->
<g id="Node000001" class="node">
<title>Node1</title>
<g id="a_Node000001"><a xlink:title=" ">
<polygon fill="#999999" stroke="#666666" points="814,-91.5 679,-91.5 679,-61.5 814,-61.5 814,-91.5"/>
<text text-anchor="start" x="687" y="-79.5" font-family="Helvetica,sans-Serif" font-size="10.00">Realm::GenericAccessor</text>
<text text-anchor="middle" x="746.5" y="-68.5" font-family="Helvetica,sans-Serif" font-size="10.00">&lt; FT, N, T &gt;</text>
</a>
</g>
</g>
<!-- Node2 -->
<g id="Node000002" class="node">
<title>Node2</title>
<g id="a_Node000002"><a xlink:href="classRealm_1_1RegionInstance.html" target="_top" xlink:title=" ">
<polygon fill="white" stroke="#666666" points="573,-129 444,-129 444,-110 573,-110 573,-129"/>
<text text-anchor="middle" x="508.5" y="-117" font-family="Helvetica,sans-Serif" font-size="10.00">Realm::RegionInstance</text>
</a>
</g>
</g>
<!-- Node2&#45;&gt;Node1 -->
<g id="edge1_Node000001_Node000002" class="edge">
<title>Node2&#45;&gt;Node1</title>
<g id="a_edge1_Node000001_Node000002"><a xlink:title=" ">
<path fill="none" stroke="#9a32cd" stroke-dasharray="5,2" d="M571.85,-108.14C604.82,-102.13 645.3,-94.76 678.89,-88.64"/>
<polygon fill="#9a32cd" stroke="#9a32cd" points="571.09,-104.72 561.88,-109.96 572.34,-111.61 571.09,-104.72"/>
</a>
</g>
<text text-anchor="middle" x="632.5" y="-104.5" font-family="Helvetica,sans-Serif" font-size="10.00" fill="grey"> inst</text>
</g>
<!-- Node2&#45;&gt;Node2 -->
<g id="edge2_Node000002_Node000002" class="edge">
<title>Node2&#45;&gt;Node2</title>
<g id="a_edge2_Node000002_Node000002"><a xlink:title=" ">
<path fill="none" stroke="#9a32cd" stroke-dasharray="5,2" d="M487.39,-138.55C488.8,-143.38 495.84,-147 508.5,-147 528.76,-147 534.62,-137.73 526.07,-129.08"/>
<polygon fill="#9a32cd" stroke="#9a32cd" points="490.71,-139.68 490.93,-129.08 484.15,-137.22 490.71,-139.68"/>
</a>
</g>
<text text-anchor="middle" x="508.5" y="-150" font-family="Helvetica,sans-Serif" font-size="10.00" fill="grey"> NO_INST</text>
</g>
<!-- Node3 -->
<g id="Node000003" class="node">
<title>Node3</title>
<g id="a_Node000003"><a xlink:href="classRealm_1_1InstancePieceList.html" target="_top" xlink:title=" ">
<polygon fill="white" stroke="#666666" points="578,-91.5 439,-91.5 439,-61.5 578,-61.5 578,-91.5"/>
<text text-anchor="start" x="447" y="-79.5" font-family="Helvetica,sans-Serif" font-size="10.00">Realm::InstancePieceList</text>
<text text-anchor="middle" x="508.5" y="-68.5" font-family="Helvetica,sans-Serif" font-size="10.00">&lt; N, int &gt;</text>
</a>
</g>
</g>
<!-- Node3&#45;&gt;Node1 -->
<g id="edge3_Node000001_Node000003" class="edge">
<title>Node3&#45;&gt;Node1</title>
<g id="a_edge3_Node000001_Node000003"><a xlink:title=" ">
<path fill="none" stroke="#9a32cd" stroke-dasharray="5,2" d="M588.29,-76.5C617.64,-76.5 650.63,-76.5 678.79,-76.5"/>
<polygon fill="#9a32cd" stroke="#9a32cd" points="588.08,-73 578.08,-76.5 588.08,-80 588.08,-73"/>
</a>
</g>
<text text-anchor="middle" x="632.5" y="-79.5" font-family="Helvetica,sans-Serif" font-size="10.00" fill="grey"> piece_list</text>
</g>
<!-- Node4 -->
<g id="Node000004" class="node">
<title>Node4</title>
<g id="a_Node000004"><a xlink:href="classRealm_1_1InstanceLayoutPiece.html" target="_top" xlink:title=" ">
<polygon fill="white" stroke="#666666" points="586,-43.5 431,-43.5 431,-13.5 586,-13.5 586,-43.5"/>
<text text-anchor="start" x="439" y="-31.5" font-family="Helvetica,sans-Serif" font-size="10.00">Realm::InstanceLayoutPiece</text>
<text text-anchor="middle" x="508.5" y="-20.5" font-family="Helvetica,sans-Serif" font-size="10.00">&lt; N, int &gt;</text>
</a>
</g>
</g>
<!-- Node4&#45;&gt;Node1 -->
<g id="edge4_Node000001_Node000004" class="edge">
<title>Node4&#45;&gt;Node1</title>
<g id="a_edge4_Node000001_Node000004"><a xlink:title=" ">
<path fill="none" stroke="#9a32cd" stroke-dasharray="5,2" d="M593.33,-45.55C621.43,-51.26 652.35,-57.55 678.94,-62.96"/>
<polygon fill="#9a32cd" stroke="#9a32cd" points="594.02,-42.12 583.52,-43.56 592.63,-48.98 594.02,-42.12"/>
</a>
</g>
<text text-anchor="middle" x="632.5" y="-60.5" font-family="Helvetica,sans-Serif" font-size="10.00" fill="grey"> prev_piece</text>
</g>
<!-- Node5 -->
<g id="Node000005" class="node">
<title>Node5</title>
<g id="a_Node000005"><a xlink:href="classRealm_1_1InstanceLayoutPieceBase.html" target="_top" xlink:title=" ">
<polygon fill="white" stroke="#666666" points="356,-56 177,-56 177,-37 356,-37 356,-56"/>
<text text-anchor="middle" x="266.5" y="-44" font-family="Helvetica,sans-Serif" font-size="10.00">Realm::InstanceLayoutPieceBase</text>
</a>
</g>
</g>
<!-- Node5&#45;&gt;Node4 -->
<g id="edge5_Node000004_Node000005" class="edge">
<title>Node5&#45;&gt;Node4</title>
<g id="a_edge5_Node000004_Node000005"><a xlink:title=" ">
<path fill="none" stroke="#63b8ff" d="M366.3,-39.09C387.76,-37.48 410.16,-35.8 430.63,-34.27"/>
<polygon fill="#63b8ff" stroke="#63b8ff" points="365.9,-35.61 356.19,-39.85 366.42,-42.59 365.9,-35.61"/>
</a>
</g>
</g>
<!-- Node6 -->
<g id="Node000006" class="node">
<title>Node6</title>
<g id="a_Node000006"><a xlink:href="structRealm_1_1Rect.html" target="_top" xlink:title=" ">
<polygon fill="white" stroke="#666666" points="329,-19 204,-19 204,0 329,0 329,-19"/>
<text text-anchor="middle" x="266.5" y="-7" font-family="Helvetica,sans-Serif" font-size="10.00">Realm::Rect&lt; N, int &gt;</text>
</a>
</g>
</g>
<!-- Node6&#45;&gt;Node4 -->
<g id="edge6_Node000004_Node000006" class="edge">
<title>Node6&#45;&gt;Node4</title>
<g id="a_edge6_Node000004_Node000006"><a xlink:title=" ">
<path fill="none" stroke="#9a32cd" stroke-dasharray="5,2" d="M339.33,-14.8C362.82,-16.57 389.02,-18.58 413,-20.5 418.83,-20.97 424.85,-21.46 430.92,-21.96"/>
<polygon fill="#9a32cd" stroke="#9a32cd" points="339.34,-11.29 329.1,-14.03 338.81,-18.27 339.34,-11.29"/>
</a>
</g>
<text text-anchor="middle" x="393.5" y="-23.5" font-family="Helvetica,sans-Serif" font-size="10.00" fill="grey"> bounds</text>
</g>
<!-- Node7 -->
<g id="Node000007" class="node">
<title>Node7</title>
<g id="a_Node000007"><a xlink:href="structRealm_1_1Point.html" target="_top" xlink:title=" ">
<polygon fill="white" stroke="#666666" points="128,-19 0,-19 0,0 128,0 128,-19"/>
<text text-anchor="middle" x="64" y="-7" font-family="Helvetica,sans-Serif" font-size="10.00">Realm::Point&lt; N, int &gt;</text>
</a>
</g>
</g>
<!-- Node7&#45;&gt;Node6 -->
<g id="edge7_Node000006_Node000007" class="edge">
<title>Node7&#45;&gt;Node6</title>
<g id="a_edge7_Node000006_Node000007"><a xlink:title=" ">
<path fill="none" stroke="#9a32cd" stroke-dasharray="5,2" d="M138.22,-9.5C159.71,-9.5 182.98,-9.5 203.68,-9.5"/>
<polygon fill="#9a32cd" stroke="#9a32cd" points="138.16,-6 128.16,-9.5 138.16,-13 138.16,-6"/>
</a>
</g>
<text text-anchor="middle" x="152.5" y="-23.5" font-family="Helvetica,sans-Serif" font-size="10.00" fill="grey"> hi</text>
<text text-anchor="middle" x="152.5" y="-12.5" font-family="Helvetica,sans-Serif" font-size="10.00" fill="grey">lo</text>
</g>
</g>
</svg>
