<?xml version="1.0" encoding="UTF-8" standalone="no"?>
<!DOCTYPE svg PUBLIC "-//W3C//DTD SVG 1.1//EN"
 "http://www.w3.org/Graphics/SVG/1.1/DTD/svg11.dtd">
<!-- Generated by graphviz version 2.43.0 (0)
 -->
<!-- Title: Realm::UCP::UCPPoller Pages: 1 -->
<svg width="1010pt" height="409pt"
 viewBox="0.00 0.00 1010.00 408.73" xmlns="http://www.w3.org/2000/svg" xmlns:xlink="http://www.w3.org/1999/xlink">
<g id="graph0" class="graph" transform="scale(1 1) rotate(0) translate(4 404.73)">
<title>Realm::UCP::UCPPoller</title>
<!-- Node1 -->
<g id="Node000001" class="node">
<title>Node1</title>
<g id="a_Node000001"><a xlink:title=" ">
<polygon fill="#999999" stroke="#666666" points="976.5,-366.23 848.5,-366.23 848.5,-347.23 976.5,-347.23 976.5,-366.23"/>
<text text-anchor="middle" x="912.5" y="-354.23" font-family="Helvetica,sans-Serif" font-size="10.00">Realm::UCP::UCPPoller</text>
</a>
</g>
</g>
<!-- Node2 -->
<g id="Node000002" class="node">
<title>Node2</title>
<g id="a_Node000002"><a xlink:href="classRealm_1_1BackgroundWorkItem.html" target="_top" xlink:title=" ">
<polygon fill="white" stroke="#666666" points="654,-340.23 495,-340.23 495,-321.23 654,-321.23 654,-340.23"/>
<text text-anchor="middle" x="574.5" y="-328.23" font-family="Helvetica,sans-Serif" font-size="10.00">Realm::BackgroundWorkItem</text>
</a>
</g>
</g>
<!-- Node2&#45;&gt;Node1 -->
<g id="edge1_Node000001_Node000002" class="edge">
<title>Node2&#45;&gt;Node1</title>
<g id="a_edge1_Node000001_Node000002"><a xlink:title=" ">
<path fill="none" stroke="#63b8ff" d="M664.34,-341.09C670.31,-341.68 676.24,-342.23 682,-342.73 738.07,-347.6 802,-351.35 848.12,-353.74"/>
<polygon fill="#63b8ff" stroke="#63b8ff" points="664.56,-337.59 654.26,-340.06 663.86,-344.56 664.56,-337.59"/>
</a>
</g>
</g>
<!-- Node3 -->
<g id="Node000003" class="node">
<title>Node3</title>
<g id="a_Node000003"><a xlink:href="classRealm_1_1BackgroundWorkManager.html" target="_top" xlink:title=" ">
<polygon fill="white" stroke="#666666" points="1002,-216.23 823,-216.23 823,-197.23 1002,-197.23 1002,-216.23"/>
<text text-anchor="middle" x="912.5" y="-204.23" font-family="Helvetica,sans-Serif" font-size="10.00">Realm::BackgroundWorkManager</text>
</a>
</g>
</g>
<!-- Node2&#45;&gt;Node3 -->
<g id="edge12_Node000003_Node000002" class="edge">
<title>Node2&#45;&gt;Node3</title>
<g id="a_edge12_Node000003_Node000002"><a xlink:title=" ">
<path fill="none" stroke="#9a32cd" stroke-dasharray="5,2" d="M664.33,-328.18C717.92,-325.49 780.43,-319.99 805,-308.73 851.32,-287.51 889.98,-237.65 904.9,-216.49"/>
<polygon fill="#9a32cd" stroke="#9a32cd" points="663.92,-324.69 654.09,-328.66 664.25,-331.69 663.92,-324.69"/>
</a>
</g>
<text text-anchor="middle" x="743.5" y="-330.73" font-family="Helvetica,sans-Serif" font-size="10.00" fill="grey"> work_items</text>
</g>
<!-- Node3&#45;&gt;Node2 -->
<g id="edge2_Node000002_Node000003" class="edge">
<title>Node3&#45;&gt;Node2</title>
<g id="a_edge2_Node000002_Node000003"><a xlink:title=" ">
<path fill="none" stroke="#9a32cd" stroke-dasharray="5,2" d="M891.96,-222.51C871.5,-238.2 837.84,-261.74 805,-274.73 753.28,-295.18 735.98,-284.37 682,-297.73 654.94,-304.43 624.63,-314.03 603.28,-321.16"/>
<polygon fill="#9a32cd" stroke="#9a32cd" points="894.15,-225.24 899.87,-216.32 889.84,-219.72 894.15,-225.24"/>
</a>
</g>
<text text-anchor="middle" x="743.5" y="-300.73" font-family="Helvetica,sans-Serif" font-size="10.00" fill="grey"> manager</text>
</g>
<!-- Node4 -->
<g id="Node000004" class="node">
<title>Node4</title>
<g id="a_Node000004"><a xlink:href="structRealm_1_1BackgroundWorkManager_1_1Config.html" target="_top" xlink:title=" ">
<polygon fill="white" stroke="#666666" points="664,-288.73 485,-288.73 485,-258.73 664,-258.73 664,-288.73"/>
<text text-anchor="start" x="493" y="-276.73" font-family="Helvetica,sans-Serif" font-size="10.00">Realm::BackgroundWorkManager</text>
<text text-anchor="middle" x="574.5" y="-265.73" font-family="Helvetica,sans-Serif" font-size="10.00">::Config</text>
</a>
</g>
</g>
<!-- Node4&#45;&gt;Node3 -->
<g id="edge3_Node000003_Node000004" class="edge">
<title>Node4&#45;&gt;Node3</title>
<g id="a_edge3_Node000003_Node000004"><a xlink:title=" ">
<path fill="none" stroke="#9a32cd" stroke-dasharray="5,2" d="M674.08,-263.21C714.88,-257.91 762.51,-250.5 805,-240.73 833,-234.3 864.22,-223.94 885.58,-216.34"/>
<polygon fill="#9a32cd" stroke="#9a32cd" points="673.61,-259.74 664.14,-264.47 674.5,-266.68 673.61,-259.74"/>
</a>
</g>
<text text-anchor="middle" x="743.5" y="-264.73" font-family="Helvetica,sans-Serif" font-size="10.00" fill="grey"> cfg</text>
</g>
<!-- Node5 -->
<g id="Node000005" class="node">
<title>Node5</title>
<g id="a_Node000005"><a xlink:href="classRealm_1_1UnfairMutex.html" target="_top" xlink:title=" ">
<polygon fill="white" stroke="#666666" points="632,-193.23 517,-193.23 517,-174.23 632,-174.23 632,-193.23"/>
<text text-anchor="middle" x="574.5" y="-181.23" font-family="Helvetica,sans-Serif" font-size="10.00">Realm::UnfairMutex</text>
</a>
</g>
</g>
<!-- Node5&#45;&gt;Node3 -->
<g id="edge4_Node000003_Node000005" class="edge">
<title>Node5&#45;&gt;Node3</title>
<g id="a_edge4_Node000003_Node000005"><a xlink:title=" ">
<path fill="none" stroke="#9a32cd" stroke-dasharray="5,2" d="M642.18,-188.3C693.9,-191.84 766.06,-196.78 822.68,-200.65"/>
<polygon fill="#9a32cd" stroke="#9a32cd" points="642.33,-184.8 632.12,-187.61 641.86,-191.78 642.33,-184.8"/>
</a>
</g>
<text text-anchor="middle" x="743.5" y="-202.73" font-family="Helvetica,sans-Serif" font-size="10.00" fill="grey"> mutex</text>
</g>
<!-- Node6 -->
<g id="Node000006" class="node">
<title>Node6</title>
<g id="a_Node000006"><a xlink:href="classRealm_1_1noncopyable.html" target="_top" xlink:title=" ">
<polygon fill="white" stroke="#666666" points="396,-193.23 280,-193.23 280,-174.23 396,-174.23 396,-193.23"/>
<text text-anchor="middle" x="338" y="-181.23" font-family="Helvetica,sans-Serif" font-size="10.00">Realm::noncopyable</text>
</a>
</g>
</g>
<!-- Node6&#45;&gt;Node5 -->
<g id="edge5_Node000005_Node000006" class="edge">
<title>Node6&#45;&gt;Node5</title>
<g id="a_edge5_Node000005_Node000006"><a xlink:title=" ">
<path fill="none" stroke="#63b8ff" d="M406.21,-183.73C441.26,-183.73 483.65,-183.73 516.99,-183.73"/>
<polygon fill="#63b8ff" stroke="#63b8ff" points="406.07,-180.23 396.07,-183.73 406.07,-187.23 406.07,-180.23"/>
</a>
</g>
</g>
<!-- Node7 -->
<g id="Node000007" class="node">
<title>Node7</title>
<g id="a_Node000007"><a xlink:href="classRealm_1_1atomic.html" target="_top" xlink:title=" ">
<polygon fill="white" stroke="#666666" points="413,-241.23 263,-241.23 263,-222.23 413,-222.23 413,-241.23"/>
<text text-anchor="middle" x="338" y="-229.23" font-family="Helvetica,sans-Serif" font-size="10.00">Realm::atomic&lt; uint32_t &gt;</text>
</a>
</g>
</g>
<!-- Node7&#45;&gt;Node3 -->
<g id="edge13_Node000003_Node000007" class="edge">
<title>Node7&#45;&gt;Node3</title>
<g id="a_edge13_Node000003_Node000007"><a xlink:title=" ">
<path fill="none" stroke="#9a32cd" stroke-dasharray="5,2" d="M423.15,-229.19C437.77,-228.72 452.83,-228.23 467,-227.73 617.24,-222.49 654.91,-223.25 805,-214.73 810.83,-214.4 816.84,-214.03 822.89,-213.63"/>
<polygon fill="#9a32cd" stroke="#9a32cd" points="423,-225.69 413.12,-229.51 423.22,-232.69 423,-225.69"/>
</a>
</g>
<text text-anchor="middle" x="574.5" y="-230.73" font-family="Helvetica,sans-Serif" font-size="10.00" fill="grey"> worker_state</text>
</g>
<!-- Node7&#45;&gt;Node5 -->
<g id="edge6_Node000005_Node000007" class="edge">
<title>Node7&#45;&gt;Node5</title>
<g id="a_edge6_Node000005_Node000007"><a xlink:title=" ">
<path fill="none" stroke="#9a32cd" stroke-dasharray="5,2" d="M395.54,-220.16C435.78,-211.92 489.2,-200.99 526.98,-193.25"/>
<polygon fill="#9a32cd" stroke="#9a32cd" points="394.71,-216.76 385.61,-222.19 396.11,-223.61 394.71,-216.76"/>
</a>
</g>
<text text-anchor="middle" x="449" y="-215.73" font-family="Helvetica,sans-Serif" font-size="10.00" fill="grey"> state</text>
</g>
<!-- Node8 -->
<g id="Node000008" class="node">
<title>Node8</title>
<g id="a_Node000008"><a xlink:href="classRealm_1_1DoorbellList.html" target="_top" xlink:title=" ">
<polygon fill="white" stroke="#666666" points="394.5,-145.23 281.5,-145.23 281.5,-126.23 394.5,-126.23 394.5,-145.23"/>
<text text-anchor="middle" x="338" y="-133.23" font-family="Helvetica,sans-Serif" font-size="10.00">Realm::DoorbellList</text>
</a>
</g>
</g>
<!-- Node8&#45;&gt;Node3 -->
<g id="edge16_Node000003_Node000008" class="edge">
<title>Node8&#45;&gt;Node3</title>
<g id="a_edge16_Node000003_Node000008"><a xlink:title=" ">
<path fill="none" stroke="#9a32cd" stroke-dasharray="5,2" d="M404.98,-136.38C470.84,-137.74 574.81,-141.79 664,-153.73 740,-163.91 827.39,-184.84 875.33,-197.13"/>
<polygon fill="#9a32cd" stroke="#9a32cd" points="404.81,-132.88 394.74,-136.19 404.67,-139.88 404.81,-132.88"/>
</a>
</g>
<text text-anchor="middle" x="574.5" y="-156.73" font-family="Helvetica,sans-Serif" font-size="10.00" fill="grey"> db_list</text>
</g>
<!-- Node8&#45;&gt;Node5 -->
<g id="edge7_Node000005_Node000008" class="edge">
<title>Node8&#45;&gt;Node5</title>
<g id="a_edge7_Node000005_Node000008"><a xlink:title=" ">
<path fill="none" stroke="#9a32cd" stroke-dasharray="5,2" d="M395.54,-147.3C435.78,-155.54 489.2,-166.48 526.98,-174.21"/>
<polygon fill="#9a32cd" stroke="#9a32cd" points="396.11,-143.85 385.61,-145.27 394.71,-150.71 396.11,-143.85"/>
</a>
</g>
<text text-anchor="middle" x="449" y="-164.73" font-family="Helvetica,sans-Serif" font-size="10.00" fill="grey"> db_list</text>
</g>
<!-- Node9 -->
<g id="Node000009" class="node">
<title>Node9</title>
<g id="a_Node000009"><a xlink:href="classRealm_1_1atomic.html" target="_top" xlink:title=" ">
<polygon fill="white" stroke="#666666" points="152,-145.23 0,-145.23 0,-126.23 152,-126.23 152,-145.23"/>
<text text-anchor="middle" x="76" y="-133.23" font-family="Helvetica,sans-Serif" font-size="10.00">Realm::atomic&lt; uintptr_t &gt;</text>
</a>
</g>
</g>
<!-- Node9&#45;&gt;Node8 -->
<g id="edge8_Node000008_Node000009" class="edge">
<title>Node9&#45;&gt;Node8</title>
<g id="a_edge8_Node000008_Node000009"><a xlink:title=" ">
<path fill="none" stroke="#9a32cd" stroke-dasharray="5,2" d="M162.52,-135.73C201.61,-135.73 246.79,-135.73 281.38,-135.73"/>
<polygon fill="#9a32cd" stroke="#9a32cd" points="162.2,-132.23 152.2,-135.73 162.2,-139.23 162.2,-132.23"/>
</a>
</g>
<text text-anchor="middle" x="207.5" y="-138.73" font-family="Helvetica,sans-Serif" font-size="10.00" fill="grey"> head_or_count</text>
</g>
<!-- Node10 -->
<g id="Node000010" class="node">
<title>Node10</title>
<g id="a_Node000010"><a xlink:href="classRealm_1_1atomic.html" target="_top" xlink:title=" ">
<polygon fill="white" stroke="#666666" points="652,-98.23 497,-98.23 497,-79.23 652,-79.23 652,-98.23"/>
<text text-anchor="middle" x="574.5" y="-86.23" font-family="Helvetica,sans-Serif" font-size="10.00">Realm::atomic&lt; unsigned &gt;</text>
</a>
</g>
</g>
<!-- Node10&#45;&gt;Node3 -->
<g id="edge9_Node000003_Node000010" class="edge">
<title>Node10&#45;&gt;Node3</title>
<g id="a_edge9_Node000003_Node000010"><a xlink:title=" ">
<path fill="none" stroke="#9a32cd" stroke-dasharray="5,2" d="M662.36,-83.8C706.74,-84.42 760.59,-90.16 805,-109.73 850.31,-129.7 889.24,-176.8 904.56,-197.12"/>
<polygon fill="#9a32cd" stroke="#9a32cd" points="662.19,-80.3 652.17,-83.75 662.15,-87.3 662.19,-80.3"/>
</a>
</g>
<text text-anchor="middle" x="743.5" y="-112.73" font-family="Helvetica,sans-Serif" font-size="10.00" fill="grey"> num_work_items</text>
</g>
<!-- Node11 -->
<g id="Node000011" class="node">
<title>Node11</title>
<g id="a_Node000011"><a xlink:href="classRealm_1_1atomic.html" target="_top" xlink:title=" ">
<polygon fill="white" stroke="#666666" points="649.5,-61.23 499.5,-61.23 499.5,-42.23 649.5,-42.23 649.5,-61.23"/>
<text text-anchor="middle" x="574.5" y="-49.23" font-family="Helvetica,sans-Serif" font-size="10.00">Realm::atomic&lt; BitMask &gt;</text>
</a>
</g>
</g>
<!-- Node11&#45;&gt;Node3 -->
<g id="edge10_Node000003_Node000011" class="edge">
<title>Node11&#45;&gt;Node3</title>
<g id="a_edge10_Node000003_Node000011"><a xlink:title=" ">
<path fill="none" stroke="#9a32cd" stroke-dasharray="5,2" d="M659.69,-42.44C705.23,-41.19 761,-46.03 805,-69.73 860.17,-99.45 895.99,-171.32 907.49,-197.22"/>
<polygon fill="#9a32cd" stroke="#9a32cd" points="659.4,-38.94 649.54,-42.82 659.66,-45.94 659.4,-38.94"/>
</a>
</g>
<text text-anchor="middle" x="743.5" y="-72.73" font-family="Helvetica,sans-Serif" font-size="10.00" fill="grey"> active_work_item_mask</text>
</g>
<!-- Node12 -->
<g id="Node000012" class="node">
<title>Node12</title>
<g id="a_Node000012"><a xlink:href="classRealm_1_1atomic.html" target="_top" xlink:title=" ">
<polygon fill="white" stroke="#666666" points="636,-24.23 513,-24.23 513,-5.23 636,-5.23 636,-24.23"/>
<text text-anchor="middle" x="574.5" y="-12.23" font-family="Helvetica,sans-Serif" font-size="10.00">Realm::atomic&lt; int &gt;</text>
</a>
</g>
</g>
<!-- Node12&#45;&gt;Node3 -->
<g id="edge11_Node000003_Node000012" class="edge">
<title>Node12&#45;&gt;Node3</title>
<g id="a_edge11_Node000003_Node000012"><a xlink:title=" ">
<path fill="none" stroke="#9a32cd" stroke-dasharray="5,2" d="M632.96,-3.81C682.23,2.42 753.24,3.67 805,-27.73 871.16,-67.87 901.13,-165.99 909.18,-197.1"/>
<polygon fill="#9a32cd" stroke="#9a32cd" points="632.22,-0.38 622.79,-5.21 633.18,-7.31 632.22,-0.38"/>
</a>
</g>
<text text-anchor="middle" x="743.5" y="-30.73" font-family="Helvetica,sans-Serif" font-size="10.00" fill="grey"> work_item_usecounts</text>
</g>
<!-- Node13 -->
<g id="Node000013" class="node">
<title>Node13</title>
<g id="a_Node000013"><a xlink:href="classRealm_1_1DelegatingMutex.html" target="_top" xlink:title=" ">
<polygon fill="white" stroke="#666666" points="643.5,-399.23 505.5,-399.23 505.5,-380.23 643.5,-380.23 643.5,-399.23"/>
<text text-anchor="middle" x="574.5" y="-387.23" font-family="Helvetica,sans-Serif" font-size="10.00">Realm::DelegatingMutex</text>
</a>
</g>
</g>
<!-- Node13&#45;&gt;Node3 -->
<g id="edge14_Node000003_Node000013" class="edge">
<title>Node13&#45;&gt;Node3</title>
<g id="a_edge14_Node000003_Node000013"><a xlink:title=" ">
<path fill="none" stroke="#9a32cd" stroke-dasharray="5,2" d="M653.68,-387.13C700.55,-382.44 759.65,-370.8 805,-342.73 857.53,-310.22 894.48,-241.97 906.91,-216.55"/>
<polygon fill="#9a32cd" stroke="#9a32cd" points="653.21,-383.66 643.57,-388.05 653.84,-390.63 653.21,-383.66"/>
</a>
</g>
<text text-anchor="middle" x="743.5" y="-386.73" font-family="Helvetica,sans-Serif" font-size="10.00" fill="grey"> db_mutex</text>
</g>
<!-- Node14 -->
<g id="Node000014" class="node">
<title>Node14</title>
<g id="a_Node000014"><a xlink:href="classRealm_1_1atomic.html" target="_top" xlink:title=" ">
<polygon fill="white" stroke="#666666" points="413,-399.23 263,-399.23 263,-380.23 413,-380.23 413,-399.23"/>
<text text-anchor="middle" x="338" y="-387.23" font-family="Helvetica,sans-Serif" font-size="10.00">Realm::atomic&lt; uint64_t &gt;</text>
</a>
</g>
</g>
<!-- Node14&#45;&gt;Node13 -->
<g id="edge15_Node000013_Node000014" class="edge">
<title>Node14&#45;&gt;Node13</title>
<g id="a_edge15_Node000013_Node000014"><a xlink:title=" ">
<path fill="none" stroke="#9a32cd" stroke-dasharray="5,2" d="M423.38,-389.73C450.3,-389.73 479.74,-389.73 505.36,-389.73"/>
<polygon fill="#9a32cd" stroke="#9a32cd" points="423.2,-386.23 413.2,-389.73 423.2,-393.23 423.2,-386.23"/>
</a>
</g>
<text text-anchor="middle" x="449" y="-392.73" font-family="Helvetica,sans-Serif" font-size="10.00" fill="grey"> state</text>
</g>
</g>
</svg>
