<?xml version="1.0" encoding="UTF-8" standalone="no"?>
<!DOCTYPE svg PUBLIC "-//W3C//DTD SVG 1.1//EN"
 "http://www.w3.org/Graphics/SVG/1.1/DTD/svg11.dtd">
<!-- Generated by graphviz version 2.43.0 (0)
 -->
<!-- Title: Realm::LLVMIRImplementation Pages: 1 -->
<svg width="680pt" height="135pt"
 viewBox="0.00 0.00 680.00 135.00" xmlns="http://www.w3.org/2000/svg" xmlns:xlink="http://www.w3.org/1999/xlink">
<g id="graph0" class="graph" transform="scale(1 1) rotate(0) translate(4 131)">
<title>Realm::LLVMIRImplementation</title>
<!-- Node1 -->
<g id="Node000001" class="node">
<title>Node1</title>
<g id="a_Node000001"><a xlink:title=" ">
<polygon fill="#999999" stroke="#666666" points="672,-73 505,-73 505,-54 672,-54 672,-73"/>
<text text-anchor="middle" x="588.5" y="-61" font-family="Helvetica,sans-Serif" font-size="10.00">Realm::LLVMIRImplementation</text>
</a>
</g>
</g>
<!-- Node2 -->
<g id="Node000002" class="node">
<title>Node2</title>
<g id="a_Node000002"><a xlink:href="classRealm_1_1CodeImplementation.html" target="_top" xlink:title=" ">
<polygon fill="white" stroke="#666666" points="373.5,-127 216.5,-127 216.5,-108 373.5,-108 373.5,-127"/>
<text text-anchor="middle" x="295" y="-115" font-family="Helvetica,sans-Serif" font-size="10.00">Realm::CodeImplementation</text>
</a>
</g>
</g>
<!-- Node2&#45;&gt;Node1 -->
<g id="edge1_Node000001_Node000002" class="edge">
<title>Node2&#45;&gt;Node1</title>
<g id="a_edge1_Node000001_Node000002"><a xlink:title=" ">
<path fill="none" stroke="#63b8ff" d="M357.4,-106.13C410.43,-96.3 486.19,-82.27 536.08,-73.03"/>
<polygon fill="#63b8ff" stroke="#63b8ff" points="356.64,-102.71 347.44,-107.97 357.91,-109.59 356.64,-102.71"/>
</a>
</g>
</g>
<!-- Node3 -->
<g id="Node000003" class="node">
<title>Node3</title>
<g id="a_Node000003"><a xlink:href="classRealm_1_1Serialization_1_1PolymorphicSerdezSubclass.html" target="_top" xlink:title=" ">
<polygon fill="white" stroke="#666666" points="386,-89.5 204,-89.5 204,-37.5 386,-37.5 386,-89.5"/>
<text text-anchor="start" x="212" y="-77.5" font-family="Helvetica,sans-Serif" font-size="10.00">Realm::Serialization</text>
<text text-anchor="start" x="212" y="-66.5" font-family="Helvetica,sans-Serif" font-size="10.00">::PolymorphicSerdezSubclass</text>
<text text-anchor="start" x="212" y="-55.5" font-family="Helvetica,sans-Serif" font-size="10.00">&lt; Realm::CodeImplementation,</text>
<text text-anchor="middle" x="295" y="-44.5" font-family="Helvetica,sans-Serif" font-size="10.00"> Realm::LLVMIRImplementation &gt;</text>
</a>
</g>
</g>
<!-- Node3&#45;&gt;Node1 -->
<g id="edge2_Node000001_Node000003" class="edge">
<title>Node3&#45;&gt;Node1</title>
<g id="a_edge2_Node000001_Node000003"><a xlink:title=" ">
<path fill="none" stroke="#9a32cd" stroke-dasharray="5,2" d="M396.55,-63.5C431.81,-63.5 470.99,-63.5 504.63,-63.5"/>
<polygon fill="#9a32cd" stroke="#9a32cd" points="396.24,-60 386.24,-63.5 396.24,-67 396.24,-60"/>
</a>
</g>
<text text-anchor="middle" x="445.5" y="-66.5" font-family="Helvetica,sans-Serif" font-size="10.00" fill="grey"> serdez_subclass</text>
</g>
<!-- Node4 -->
<g id="Node000004" class="node">
<title>Node4</title>
<g id="a_Node000004"><a xlink:href="classRealm_1_1Serialization_1_1PolymorphicSerdezIntfc.html" target="_top" xlink:title=" ">
<polygon fill="white" stroke="#666666" points="167,-78.5 0,-78.5 0,-48.5 167,-48.5 167,-78.5"/>
<text text-anchor="start" x="8" y="-66.5" font-family="Helvetica,sans-Serif" font-size="10.00">Realm::Serialization</text>
<text text-anchor="middle" x="83.5" y="-55.5" font-family="Helvetica,sans-Serif" font-size="10.00">::PolymorphicSerdezIntfc&lt; T &gt;</text>
</a>
</g>
</g>
<!-- Node4&#45;&gt;Node3 -->
<g id="edge3_Node000003_Node000004" class="edge">
<title>Node4&#45;&gt;Node3</title>
<g id="a_edge3_Node000003_Node000004"><a xlink:title=" ">
<path fill="none" stroke="#63b8ff" d="M177.51,-63.5C186.27,-63.5 195.14,-63.5 203.87,-63.5"/>
<polygon fill="#63b8ff" stroke="#63b8ff" points="177.3,-60 167.3,-63.5 177.3,-67 177.3,-60"/>
</a>
</g>
</g>
<!-- Node5 -->
<g id="Node000005" class="node">
<title>Node5</title>
<g id="a_Node000005"><a xlink:href="classRealm_1_1ByteArray.html" target="_top" xlink:title=" ">
<polygon fill="white" stroke="#666666" points="346.5,-19 243.5,-19 243.5,0 346.5,0 346.5,-19"/>
<text text-anchor="middle" x="295" y="-7" font-family="Helvetica,sans-Serif" font-size="10.00">Realm::ByteArray</text>
</a>
</g>
</g>
<!-- Node5&#45;&gt;Node1 -->
<g id="edge4_Node000001_Node000005" class="edge">
<title>Node5&#45;&gt;Node1</title>
<g id="a_edge4_Node000001_Node000005"><a xlink:title=" ">
<path fill="none" stroke="#9a32cd" stroke-dasharray="5,2" d="M356.72,-20.75C409.7,-30.56 485.72,-44.65 535.84,-53.93"/>
<polygon fill="#9a32cd" stroke="#9a32cd" points="357.25,-17.29 346.78,-18.91 355.97,-24.17 357.25,-17.29"/>
</a>
</g>
<text text-anchor="middle" x="445.5" y="-46.5" font-family="Helvetica,sans-Serif" font-size="10.00" fill="grey"> ir</text>
</g>
<!-- Node6 -->
<g id="Node000006" class="node">
<title>Node6</title>
<g id="a_Node000006"><a xlink:href="classRealm_1_1ByteArrayRef.html" target="_top" xlink:title=" ">
<polygon fill="white" stroke="#666666" points="143,-19 24,-19 24,0 143,0 143,-19"/>
<text text-anchor="middle" x="83.5" y="-7" font-family="Helvetica,sans-Serif" font-size="10.00">Realm::ByteArrayRef</text>
</a>
</g>
</g>
<!-- Node6&#45;&gt;Node5 -->
<g id="edge5_Node000005_Node000006" class="edge">
<title>Node6&#45;&gt;Node5</title>
<g id="a_edge5_Node000005_Node000006"><a xlink:title=" ">
<path fill="none" stroke="#63b8ff" d="M153.31,-9.5C182.62,-9.5 216.2,-9.5 243.21,-9.5"/>
<polygon fill="#63b8ff" stroke="#63b8ff" points="153.14,-6 143.14,-9.5 153.14,-13 153.14,-6"/>
</a>
</g>
</g>
</g>
</svg>
