<?xml version="1.0" encoding="UTF-8" standalone="no"?>
<!DOCTYPE svg PUBLIC "-//W3C//DTD SVG 1.1//EN"
 "http://www.w3.org/Graphics/SVG/1.1/DTD/svg11.dtd">
<!-- Generated by graphviz version 2.43.0 (0)
 -->
<!-- Title: Realm::OpenMP::OpenMPModule Pages: 1 -->
<svg width="321pt" height="160pt"
 viewBox="0.00 0.00 321.00 160.00" xmlns="http://www.w3.org/2000/svg" xmlns:xlink="http://www.w3.org/1999/xlink">
<g id="graph0" class="graph" transform="scale(1 1) rotate(0) translate(4 156)">
<title>Realm::OpenMP::OpenMPModule</title>
<!-- Node1 -->
<g id="Node000001" class="node">
<title>Node1</title>
<g id="a_Node000001"><a xlink:title=" ">
<polygon fill="#999999" stroke="#666666" points="177,-19 0,-19 0,0 177,0 177,-19"/>
<text text-anchor="middle" x="88.5" y="-7" font-family="Helvetica,sans-Serif" font-size="10.00">Realm::OpenMP::OpenMPModule</text>
</a>
</g>
</g>
<!-- Node2 -->
<g id="Node000002" class="node">
<title>Node2</title>
<g id="a_Node000002"><a xlink:href="classRealm_1_1Module.html" target="_top" xlink:title=" ">
<polygon fill="white" stroke="#666666" points="117.5,-90.5 27.5,-90.5 27.5,-71.5 117.5,-71.5 117.5,-90.5"/>
<text text-anchor="middle" x="72.5" y="-78.5" font-family="Helvetica,sans-Serif" font-size="10.00">Realm::Module</text>
</a>
</g>
</g>
<!-- Node2&#45;&gt;Node1 -->
<g id="edge1_Node000001_Node000002" class="edge">
<title>Node2&#45;&gt;Node1</title>
<g id="a_edge1_Node000001_Node000002"><a xlink:title=" ">
<path fill="none" stroke="#63b8ff" d="M76.73,-61.62C79.9,-47.86 84.09,-29.65 86.52,-19.09"/>
<polygon fill="#63b8ff" stroke="#63b8ff" points="73.29,-60.95 74.46,-71.48 80.12,-62.52 73.29,-60.95"/>
</a>
</g>
</g>
<!-- Node3 -->
<g id="Node000003" class="node">
<title>Node3</title>
<g id="a_Node000003"><a xlink:href="classRealm_1_1OpenMP_1_1OpenMPModuleConfig.html" target="_top" xlink:title=" ">
<polygon fill="white" stroke="#666666" points="313,-96 136,-96 136,-66 313,-66 313,-96"/>
<text text-anchor="start" x="144" y="-84" font-family="Helvetica,sans-Serif" font-size="10.00">Realm::OpenMP::OpenMPModule</text>
<text text-anchor="middle" x="224.5" y="-73" font-family="Helvetica,sans-Serif" font-size="10.00">Config</text>
</a>
</g>
</g>
<!-- Node3&#45;&gt;Node1 -->
<g id="edge2_Node000001_Node000003" class="edge">
<title>Node3&#45;&gt;Node1</title>
<g id="a_edge2_Node000001_Node000003"><a xlink:title=" ">
<path fill="none" stroke="#9a32cd" stroke-dasharray="5,2" d="M187.86,-61.28C160.99,-47.54 125.75,-29.53 105.27,-19.07"/>
<polygon fill="#9a32cd" stroke="#9a32cd" points="186.48,-64.5 196.98,-65.94 189.67,-58.27 186.48,-64.5"/>
</a>
</g>
<text text-anchor="middle" x="177" y="-40" font-family="Helvetica,sans-Serif" font-size="10.00" fill="grey"> config</text>
</g>
<!-- Node4 -->
<g id="Node000004" class="node">
<title>Node4</title>
<g id="a_Node000004"><a xlink:href="classRealm_1_1ModuleConfig.html" target="_top" xlink:title=" ">
<polygon fill="white" stroke="#666666" points="285,-152 164,-152 164,-133 285,-133 285,-152"/>
<text text-anchor="middle" x="224.5" y="-140" font-family="Helvetica,sans-Serif" font-size="10.00">Realm::ModuleConfig</text>
</a>
</g>
</g>
<!-- Node4&#45;&gt;Node3 -->
<g id="edge3_Node000003_Node000004" class="edge">
<title>Node4&#45;&gt;Node3</title>
<g id="a_edge3_Node000003_Node000004"><a xlink:title=" ">
<path fill="none" stroke="#63b8ff" d="M224.5,-122.73C224.5,-114.09 224.5,-104 224.5,-96.02"/>
<polygon fill="#63b8ff" stroke="#63b8ff" points="221,-122.98 224.5,-132.98 228,-122.98 221,-122.98"/>
</a>
</g>
</g>
</g>
</svg>
