<?xml version="1.0" encoding="UTF-8" standalone="no"?>
<!DOCTYPE svg PUBLIC "-//W3C//DTD SVG 1.1//EN"
 "http://www.w3.org/Graphics/SVG/1.1/DTD/svg11.dtd">
<!-- Generated by graphviz version 2.43.0 (0)
 -->
<!-- Title: Realm::LoggerMessage Pages: 1 -->
<svg width="666pt" height="135pt"
 viewBox="0.00 0.00 666.00 134.50" xmlns="http://www.w3.org/2000/svg" xmlns:xlink="http://www.w3.org/1999/xlink">
<g id="graph0" class="graph" transform="scale(1 1) rotate(0) translate(4 130.5)">
<title>Realm::LoggerMessage</title>
<!-- Node1 -->
<g id="Node000001" class="node">
<title>Node1</title>
<g id="a_Node000001"><a xlink:title=" ">
<polygon fill="#999999" stroke="#666666" points="658,-78.5 527,-78.5 527,-59.5 658,-59.5 658,-78.5"/>
<text text-anchor="middle" x="592.5" y="-66.5" font-family="Helvetica,sans-Serif" font-size="10.00">Realm::LoggerMessage</text>
</a>
</g>
</g>
<!-- Node2 -->
<g id="Node000002" class="node">
<title>Node2</title>
<g id="a_Node000002"><a xlink:href="classRealm_1_1Logger.html" target="_top" xlink:title=" ">
<polygon fill="white" stroke="#666666" points="420,-126.5 333,-126.5 333,-107.5 420,-107.5 420,-126.5"/>
<text text-anchor="middle" x="376.5" y="-114.5" font-family="Helvetica,sans-Serif" font-size="10.00">Realm::Logger</text>
</a>
</g>
</g>
<!-- Node2&#45;&gt;Node1 -->
<g id="edge1_Node000001_Node000002" class="edge">
<title>Node2&#45;&gt;Node1</title>
<g id="a_edge1_Node000001_Node000002"><a xlink:title=" ">
<path fill="none" stroke="#9a32cd" stroke-dasharray="5,2" d="M430.03,-105.22C466.65,-97 514.86,-86.19 549.05,-78.52"/>
<polygon fill="#9a32cd" stroke="#9a32cd" points="429.03,-101.86 420.04,-107.46 430.56,-108.69 429.03,-101.86"/>
</a>
</g>
<text text-anchor="middle" x="490" y="-98" font-family="Helvetica,sans-Serif" font-size="10.00" fill="grey"> logger</text>
</g>
<!-- Node3 -->
<g id="Node000003" class="node">
<title>Node3</title>
<g id="a_Node000003"><a xlink:href="classRealm_1_1DeferredConstructor.html" target="_top" xlink:title=" ">
<polygon fill="white" stroke="#666666" points="453,-89.5 300,-89.5 300,-48.5 453,-48.5 453,-89.5"/>
<text text-anchor="start" x="308" y="-77.5" font-family="Helvetica,sans-Serif" font-size="10.00">Realm::DeferredConstructor</text>
<text text-anchor="start" x="308" y="-66.5" font-family="Helvetica,sans-Serif" font-size="10.00">&lt; Realm::shortstringbuf</text>
<text text-anchor="middle" x="376.5" y="-55.5" font-family="Helvetica,sans-Serif" font-size="10.00">&lt; 160, 256 &gt; &gt;</text>
</a>
</g>
</g>
<!-- Node3&#45;&gt;Node1 -->
<g id="edge2_Node000001_Node000003" class="edge">
<title>Node3&#45;&gt;Node1</title>
<g id="a_edge2_Node000001_Node000003"><a xlink:title=" ">
<path fill="none" stroke="#9a32cd" stroke-dasharray="5,2" d="M463.52,-69C484.65,-69 506.91,-69 526.84,-69"/>
<polygon fill="#9a32cd" stroke="#9a32cd" points="463.25,-65.5 453.25,-69 463.25,-72.5 463.25,-65.5"/>
</a>
</g>
<text text-anchor="middle" x="490" y="-72" font-family="Helvetica,sans-Serif" font-size="10.00" fill="grey"> buffer</text>
</g>
<!-- Node4 -->
<g id="Node000004" class="node">
<title>Node4</title>
<g id="a_Node000004"><a xlink:href="classRealm_1_1shortstringbuf.html" target="_top" xlink:title=" ">
<polygon fill="white" stroke="#666666" points="247,-84 125,-84 125,-54 247,-54 247,-84"/>
<text text-anchor="start" x="133" y="-72" font-family="Helvetica,sans-Serif" font-size="10.00">Realm::shortstringbuf</text>
<text text-anchor="middle" x="186" y="-61" font-family="Helvetica,sans-Serif" font-size="10.00">&lt; 160, 256 &gt;</text>
</a>
</g>
</g>
<!-- Node4&#45;&gt;Node3 -->
<g id="edge3_Node000003_Node000004" class="edge">
<title>Node4&#45;&gt;Node3</title>
<g id="a_edge3_Node000003_Node000004"><a xlink:title=" ">
<path fill="none" stroke="#9a32cd" stroke-dasharray="5,2" d="M257.52,-69C271.28,-69 285.76,-69 299.68,-69"/>
<polygon fill="#9a32cd" stroke="#9a32cd" points="257.16,-65.5 247.16,-69 257.16,-72.5 257.16,-65.5"/>
</a>
</g>
<text text-anchor="middle" x="273.5" y="-72" font-family="Helvetica,sans-Serif" font-size="10.00" fill="grey"> ptr</text>
</g>
<!-- Node5 -->
<g id="Node000005" class="node">
<title>Node5</title>
<g id="a_Node000005"><a xlink:title=" ">
<polygon fill="white" stroke="#666666" points="88,-78.5 0,-78.5 0,-59.5 88,-59.5 88,-78.5"/>
<text text-anchor="middle" x="44" y="-66.5" font-family="Helvetica,sans-Serif" font-size="10.00">std::streambuf</text>
</a>
</g>
</g>
<!-- Node5&#45;&gt;Node4 -->
<g id="edge4_Node000004_Node000005" class="edge">
<title>Node5&#45;&gt;Node4</title>
<g id="a_edge4_Node000004_Node000005"><a xlink:title=" ">
<path fill="none" stroke="#63b8ff" d="M98.15,-69C106.84,-69 115.9,-69 124.75,-69"/>
<polygon fill="#63b8ff" stroke="#63b8ff" points="98.15,-65.5 88.15,-69 98.15,-72.5 98.15,-65.5"/>
</a>
</g>
</g>
<!-- Node6 -->
<g id="Node000006" class="node">
<title>Node6</title>
<g id="a_Node000006"><a xlink:href="classRealm_1_1DeferredConstructor.html" target="_top" xlink:title=" ">
<polygon fill="white" stroke="#666666" points="453,-30 300,-30 300,0 453,0 453,-30"/>
<text text-anchor="start" x="308" y="-18" font-family="Helvetica,sans-Serif" font-size="10.00">Realm::DeferredConstructor</text>
<text text-anchor="middle" x="376.5" y="-7" font-family="Helvetica,sans-Serif" font-size="10.00">&lt; std::ostream &gt;</text>
</a>
</g>
</g>
<!-- Node6&#45;&gt;Node1 -->
<g id="edge5_Node000001_Node000006" class="edge">
<title>Node6&#45;&gt;Node1</title>
<g id="a_edge5_Node000001_Node000006"><a xlink:title=" ">
<path fill="none" stroke="#9a32cd" stroke-dasharray="5,2" d="M446.94,-32.52C482.43,-41.48 524.24,-52.03 553.74,-59.47"/>
<polygon fill="#9a32cd" stroke="#9a32cd" points="447.66,-29.1 437.11,-30.04 445.95,-35.88 447.66,-29.1"/>
</a>
</g>
<text text-anchor="middle" x="490" y="-50" font-family="Helvetica,sans-Serif" font-size="10.00" fill="grey"> stream</text>
</g>
</g>
</svg>
