<?xml version="1.0" encoding="UTF-8" standalone="no"?>
<!DOCTYPE svg PUBLIC "-//W3C//DTD SVG 1.1//EN"
 "http://www.w3.org/Graphics/SVG/1.1/DTD/svg11.dtd">
<!-- Generated by graphviz version 2.43.0 (0)
 -->
<!-- Title: Realm::PartitioningOperation Pages: 1 -->
<svg width="500pt" height="278pt"
 viewBox="0.00 0.00 500.00 278.00" xmlns="http://www.w3.org/2000/svg" xmlns:xlink="http://www.w3.org/1999/xlink">
<g id="graph0" class="graph" transform="scale(1 1) rotate(0) translate(4 274)">
<title>Realm::PartitioningOperation</title>
<!-- Node1 -->
<g id="Node000001" class="node">
<title>Node1</title>
<g id="a_Node000001"><a xlink:title=" ">
<polygon fill="#999999" stroke="#666666" points="296,-144.5 138,-144.5 138,-125.5 296,-125.5 296,-144.5"/>
<text text-anchor="middle" x="217" y="-132.5" font-family="Helvetica,sans-Serif" font-size="10.00">Realm::PartitioningOperation</text>
</a>
</g>
</g>
<!-- Node3 -->
<g id="Node000003" class="node">
<title>Node3</title>
<g id="a_Node000003"><a xlink:href="classRealm_1_1ByFieldOperation.html" target="_top" xlink:title=" ">
<polygon fill="white" stroke="#666666" points="481,-270 343,-270 343,-240 481,-240 481,-270"/>
<text text-anchor="start" x="351" y="-258" font-family="Helvetica,sans-Serif" font-size="10.00">Realm::ByFieldOperation</text>
<text text-anchor="middle" x="412" y="-247" font-family="Helvetica,sans-Serif" font-size="10.00">&lt; N, T, FT &gt;</text>
</a>
</g>
</g>
<!-- Node1&#45;&gt;Node3 -->
<g id="edge2_Node000001_Node000003" class="edge">
<title>Node1&#45;&gt;Node3</title>
<g id="a_edge2_Node000001_Node000003"><a xlink:title=" ">
<path fill="none" stroke="#63b8ff" d="M233.81,-152.03C254.47,-173.35 292.68,-209.65 332,-231 338.17,-234.35 344.88,-237.3 351.68,-239.87"/>
<polygon fill="#63b8ff" stroke="#63b8ff" points="236.21,-149.48 226.78,-144.65 231.14,-154.31 236.21,-149.48"/>
</a>
</g>
</g>
<!-- Node4 -->
<g id="Node000004" class="node">
<title>Node4</title>
<g id="a_Node000004"><a xlink:href="classRealm_1_1DifferenceOperation.html" target="_top" xlink:title=" ">
<polygon fill="white" stroke="#666666" points="488,-222 336,-222 336,-192 488,-192 488,-222"/>
<text text-anchor="start" x="344" y="-210" font-family="Helvetica,sans-Serif" font-size="10.00">Realm::DifferenceOperation</text>
<text text-anchor="middle" x="412" y="-199" font-family="Helvetica,sans-Serif" font-size="10.00">&lt; N, T &gt;</text>
</a>
</g>
</g>
<!-- Node1&#45;&gt;Node4 -->
<g id="edge3_Node000001_Node000004" class="edge">
<title>Node1&#45;&gt;Node4</title>
<g id="a_edge3_Node000001_Node000004"><a xlink:title=" ">
<path fill="none" stroke="#63b8ff" d="M247.91,-148.59C270.71,-158.71 303.02,-172.53 332,-183 340.49,-186.07 349.59,-189.08 358.48,-191.88"/>
<polygon fill="#63b8ff" stroke="#63b8ff" points="249.31,-145.39 238.75,-144.5 246.46,-151.78 249.31,-145.39"/>
</a>
</g>
</g>
<!-- Node5 -->
<g id="Node000005" class="node">
<title>Node5</title>
<g id="a_Node000005"><a xlink:href="classRealm_1_1ImageOperation.html" target="_top" xlink:title=" ">
<polygon fill="white" stroke="#666666" points="478.5,-174 345.5,-174 345.5,-144 478.5,-144 478.5,-174"/>
<text text-anchor="start" x="353.5" y="-162" font-family="Helvetica,sans-Serif" font-size="10.00">Realm::ImageOperation</text>
<text text-anchor="middle" x="412" y="-151" font-family="Helvetica,sans-Serif" font-size="10.00">&lt; N, T, N2, T2 &gt;</text>
</a>
</g>
</g>
<!-- Node1&#45;&gt;Node5 -->
<g id="edge4_Node000001_Node000005" class="edge">
<title>Node1&#45;&gt;Node5</title>
<g id="a_edge4_Node000001_Node000005"><a xlink:title=" ">
<path fill="none" stroke="#63b8ff" d="M304.5,-145.76C318.25,-147.47 332.28,-149.21 345.44,-150.85"/>
<polygon fill="#63b8ff" stroke="#63b8ff" points="304.91,-142.28 294.56,-144.52 304.05,-149.23 304.91,-142.28"/>
</a>
</g>
</g>
<!-- Node6 -->
<g id="Node000006" class="node">
<title>Node6</title>
<g id="a_Node000006"><a xlink:href="classRealm_1_1IntersectionOperation.html" target="_top" xlink:title=" ">
<polygon fill="white" stroke="#666666" points="492,-126 332,-126 332,-96 492,-96 492,-126"/>
<text text-anchor="start" x="340" y="-114" font-family="Helvetica,sans-Serif" font-size="10.00">Realm::IntersectionOperation</text>
<text text-anchor="middle" x="412" y="-103" font-family="Helvetica,sans-Serif" font-size="10.00">&lt; N, T &gt;</text>
</a>
</g>
</g>
<!-- Node1&#45;&gt;Node6 -->
<g id="edge5_Node000001_Node000006" class="edge">
<title>Node1&#45;&gt;Node6</title>
<g id="a_edge5_Node000001_Node000006"><a xlink:title=" ">
<path fill="none" stroke="#63b8ff" d="M304.65,-124.22C313.66,-123.11 322.77,-121.97 331.69,-120.86"/>
<polygon fill="#63b8ff" stroke="#63b8ff" points="304.05,-120.77 294.56,-125.48 304.91,-127.72 304.05,-120.77"/>
</a>
</g>
</g>
<!-- Node7 -->
<g id="Node000007" class="node">
<title>Node7</title>
<g id="a_Node000007"><a xlink:href="classRealm_1_1PreimageOperation.html" target="_top" xlink:title=" ">
<polygon fill="white" stroke="#666666" points="486.5,-78 337.5,-78 337.5,-48 486.5,-48 486.5,-78"/>
<text text-anchor="start" x="345.5" y="-66" font-family="Helvetica,sans-Serif" font-size="10.00">Realm::PreimageOperation</text>
<text text-anchor="middle" x="412" y="-55" font-family="Helvetica,sans-Serif" font-size="10.00">&lt; N, T, N2, T2 &gt;</text>
</a>
</g>
</g>
<!-- Node1&#45;&gt;Node7 -->
<g id="edge6_Node000001_Node000007" class="edge">
<title>Node1&#45;&gt;Node7</title>
<g id="a_edge6_Node000001_Node000007"><a xlink:title=" ">
<path fill="none" stroke="#63b8ff" d="M247.91,-121.41C270.71,-111.29 303.02,-97.47 332,-87 340.49,-83.93 349.59,-80.92 358.48,-78.12"/>
<polygon fill="#63b8ff" stroke="#63b8ff" points="246.46,-118.22 238.75,-125.5 249.31,-124.61 246.46,-118.22"/>
</a>
</g>
</g>
<!-- Node8 -->
<g id="Node000008" class="node">
<title>Node8</title>
<g id="a_Node000008"><a xlink:href="classRealm_1_1UnionOperation.html" target="_top" xlink:title=" ">
<polygon fill="white" stroke="#666666" points="477.5,-30 346.5,-30 346.5,0 477.5,0 477.5,-30"/>
<text text-anchor="start" x="354.5" y="-18" font-family="Helvetica,sans-Serif" font-size="10.00">Realm::UnionOperation</text>
<text text-anchor="middle" x="412" y="-7" font-family="Helvetica,sans-Serif" font-size="10.00">&lt; N, T &gt;</text>
</a>
</g>
</g>
<!-- Node1&#45;&gt;Node8 -->
<g id="edge7_Node000001_Node000008" class="edge">
<title>Node1&#45;&gt;Node8</title>
<g id="a_edge7_Node000001_Node000008"><a xlink:title=" ">
<path fill="none" stroke="#63b8ff" d="M233.81,-117.97C254.47,-96.65 292.68,-60.35 332,-39 338.17,-35.65 344.88,-32.7 351.68,-30.13"/>
<polygon fill="#63b8ff" stroke="#63b8ff" points="231.14,-115.69 226.78,-125.35 236.21,-120.52 231.14,-115.69"/>
</a>
</g>
</g>
<!-- Node2 -->
<g id="Node000002" class="node">
<title>Node2</title>
<g id="a_Node000002"><a xlink:href="classRealm_1_1Operation.html" target="_top" xlink:title=" ">
<polygon fill="white" stroke="#666666" points="102,-144.5 0,-144.5 0,-125.5 102,-125.5 102,-144.5"/>
<text text-anchor="middle" x="51" y="-132.5" font-family="Helvetica,sans-Serif" font-size="10.00">Realm::Operation</text>
</a>
</g>
</g>
<!-- Node2&#45;&gt;Node1 -->
<g id="edge1_Node000001_Node000002" class="edge">
<title>Node2&#45;&gt;Node1</title>
<g id="a_edge1_Node000001_Node000002"><a xlink:title=" ">
<path fill="none" stroke="#63b8ff" d="M112.11,-135C120.48,-135 129.17,-135 137.81,-135"/>
<polygon fill="#63b8ff" stroke="#63b8ff" points="112.1,-131.5 102.1,-135 112.1,-138.5 112.1,-131.5"/>
</a>
</g>
</g>
</g>
</svg>
