<?xml version="1.0" encoding="UTF-8" standalone="no"?>
<!DOCTYPE svg PUBLIC "-//W3C//DTD SVG 1.1//EN"
 "http://www.w3.org/Graphics/SVG/1.1/DTD/svg11.dtd">
<!-- Generated by graphviz version 2.43.0 (0)
 -->
<!-- Title: Realm::BackgroundWorkManager Pages: 1 -->
<svg width="1266pt" height="328pt"
 viewBox="0.00 0.00 1266.00 327.50" xmlns="http://www.w3.org/2000/svg" xmlns:xlink="http://www.w3.org/1999/xlink">
<g id="graph0" class="graph" transform="scale(1 1) rotate(0) translate(4 323.5)">
<title>Realm::BackgroundWorkManager</title>
<!-- Node1 -->
<g id="Node000001" class="node">
<title>Node1</title>
<g id="a_Node000001"><a xlink:title=" ">
<polygon fill="#999999" stroke="#666666" points="1002,-153 823,-153 823,-134 1002,-134 1002,-153"/>
<text text-anchor="middle" x="912.5" y="-141" font-family="Helvetica,sans-Serif" font-size="10.00">Realm::BackgroundWorkManager</text>
</a>
</g>
</g>
<!-- Node11 -->
<g id="Node000011" class="node">
<title>Node11</title>
<g id="a_Node000011"><a xlink:href="classRealm_1_1BackgroundWorkItem.html" target="_top" xlink:title=" ">
<polygon fill="white" stroke="#666666" points="1258,-153 1099,-153 1099,-134 1258,-134 1258,-153"/>
<text text-anchor="middle" x="1178.5" y="-141" font-family="Helvetica,sans-Serif" font-size="10.00">Realm::BackgroundWorkItem</text>
</a>
</g>
</g>
<!-- Node1&#45;&gt;Node11 -->
<g id="edge11_Node000011_Node000001" class="edge">
<title>Node1&#45;&gt;Node11</title>
<g id="a_edge11_Node000011_Node000001"><a xlink:title=" ">
<path fill="none" stroke="#9a32cd" stroke-dasharray="5,2" d="M1012.16,-143.5C1040.78,-143.5 1071.63,-143.5 1098.84,-143.5"/>
<polygon fill="#9a32cd" stroke="#9a32cd" points="1012.14,-140 1002.14,-143.5 1012.14,-147 1012.14,-140"/>
</a>
</g>
<text text-anchor="middle" x="1050.5" y="-146.5" font-family="Helvetica,sans-Serif" font-size="10.00" fill="grey"> manager</text>
</g>
<!-- Node2 -->
<g id="Node000002" class="node">
<title>Node2</title>
<g id="a_Node000002"><a xlink:href="structRealm_1_1BackgroundWorkManager_1_1Config.html" target="_top" xlink:title=" ">
<polygon fill="white" stroke="#666666" points="664,-319.5 485,-319.5 485,-289.5 664,-289.5 664,-319.5"/>
<text text-anchor="start" x="493" y="-307.5" font-family="Helvetica,sans-Serif" font-size="10.00">Realm::BackgroundWorkManager</text>
<text text-anchor="middle" x="574.5" y="-296.5" font-family="Helvetica,sans-Serif" font-size="10.00">::Config</text>
</a>
</g>
</g>
<!-- Node2&#45;&gt;Node1 -->
<g id="edge1_Node000001_Node000002" class="edge">
<title>Node2&#45;&gt;Node1</title>
<g id="a_edge1_Node000001_Node000002"><a xlink:title=" ">
<path fill="none" stroke="#9a32cd" stroke-dasharray="5,2" d="M674.37,-309.24C716.89,-307.27 765.74,-299.37 805,-277.5 858.74,-247.57 895.2,-178.43 907.19,-153.06"/>
<polygon fill="#9a32cd" stroke="#9a32cd" points="674.14,-305.74 664.27,-309.6 674.39,-312.74 674.14,-305.74"/>
</a>
</g>
<text text-anchor="middle" x="743.5" y="-311.5" font-family="Helvetica,sans-Serif" font-size="10.00" fill="grey"> cfg</text>
</g>
<!-- Node3 -->
<g id="Node000003" class="node">
<title>Node3</title>
<g id="a_Node000003"><a xlink:href="classRealm_1_1UnfairMutex.html" target="_top" xlink:title=" ">
<polygon fill="white" stroke="#666666" points="632,-271 517,-271 517,-252 632,-252 632,-271"/>
<text text-anchor="middle" x="574.5" y="-259" font-family="Helvetica,sans-Serif" font-size="10.00">Realm::UnfairMutex</text>
</a>
</g>
</g>
<!-- Node3&#45;&gt;Node1 -->
<g id="edge2_Node000001_Node000003" class="edge">
<title>Node3&#45;&gt;Node1</title>
<g id="a_edge2_Node000001_Node000003"><a xlink:title=" ">
<path fill="none" stroke="#9a32cd" stroke-dasharray="5,2" d="M642.29,-264.63C689.6,-264.41 753.53,-259.06 805,-236.5 849.06,-217.18 888.08,-172.93 903.95,-153.25"/>
<polygon fill="#9a32cd" stroke="#9a32cd" points="642.17,-261.13 632.16,-264.6 642.15,-268.13 642.17,-261.13"/>
</a>
</g>
<text text-anchor="middle" x="743.5" y="-265.5" font-family="Helvetica,sans-Serif" font-size="10.00" fill="grey"> mutex</text>
</g>
<!-- Node4 -->
<g id="Node000004" class="node">
<title>Node4</title>
<g id="a_Node000004"><a xlink:href="classRealm_1_1noncopyable.html" target="_top" xlink:title=" ">
<polygon fill="white" stroke="#666666" points="396,-294 280,-294 280,-275 396,-275 396,-294"/>
<text text-anchor="middle" x="338" y="-282" font-family="Helvetica,sans-Serif" font-size="10.00">Realm::noncopyable</text>
</a>
</g>
</g>
<!-- Node4&#45;&gt;Node3 -->
<g id="edge3_Node000003_Node000004" class="edge">
<title>Node4&#45;&gt;Node3</title>
<g id="a_edge3_Node000003_Node000004"><a xlink:title=" ">
<path fill="none" stroke="#63b8ff" d="M406.21,-277.91C441.26,-274.47 483.65,-270.31 516.99,-267.04"/>
<polygon fill="#63b8ff" stroke="#63b8ff" points="405.68,-274.44 396.07,-278.9 406.36,-281.41 405.68,-274.44"/>
</a>
</g>
</g>
<!-- Node5 -->
<g id="Node000005" class="node">
<title>Node5</title>
<g id="a_Node000005"><a xlink:href="classRealm_1_1atomic.html" target="_top" xlink:title=" ">
<polygon fill="white" stroke="#666666" points="413,-246 263,-246 263,-227 413,-227 413,-246"/>
<text text-anchor="middle" x="338" y="-234" font-family="Helvetica,sans-Serif" font-size="10.00">Realm::atomic&lt; uint32_t &gt;</text>
</a>
</g>
</g>
<!-- Node5&#45;&gt;Node1 -->
<g id="edge12_Node000001_Node000005" class="edge">
<title>Node5&#45;&gt;Node1</title>
<g id="a_edge12_Node000001_Node000005"><a xlink:title=" ">
<path fill="none" stroke="#9a32cd" stroke-dasharray="5,2" d="M423.29,-227.51C517.01,-216.83 672.63,-197.07 805,-170.5 829.5,-165.58 856.81,-158.63 877.64,-153.01"/>
<polygon fill="#9a32cd" stroke="#9a32cd" points="422.84,-224.04 413.29,-228.64 423.62,-231 422.84,-224.04"/>
</a>
</g>
<text text-anchor="middle" x="574.5" y="-222.5" font-family="Helvetica,sans-Serif" font-size="10.00" fill="grey"> worker_state</text>
</g>
<!-- Node5&#45;&gt;Node3 -->
<g id="edge4_Node000003_Node000005" class="edge">
<title>Node5&#45;&gt;Node3</title>
<g id="a_edge4_Node000003_Node000005"><a xlink:title=" ">
<path fill="none" stroke="#9a32cd" stroke-dasharray="5,2" d="M423.17,-245.47C454.29,-248.79 488.79,-252.47 516.88,-255.46"/>
<polygon fill="#9a32cd" stroke="#9a32cd" points="423.51,-241.99 413.2,-244.41 422.77,-248.95 423.51,-241.99"/>
</a>
</g>
<text text-anchor="middle" x="449" y="-252.5" font-family="Helvetica,sans-Serif" font-size="10.00" fill="grey"> state</text>
</g>
<!-- Node6 -->
<g id="Node000006" class="node">
<title>Node6</title>
<g id="a_Node000006"><a xlink:href="classRealm_1_1DoorbellList.html" target="_top" xlink:title=" ">
<polygon fill="white" stroke="#666666" points="394.5,-198 281.5,-198 281.5,-179 394.5,-179 394.5,-198"/>
<text text-anchor="middle" x="338" y="-186" font-family="Helvetica,sans-Serif" font-size="10.00">Realm::DoorbellList</text>
</a>
</g>
</g>
<!-- Node6&#45;&gt;Node1 -->
<g id="edge15_Node000001_Node000006" class="edge">
<title>Node6&#45;&gt;Node1</title>
<g id="a_edge15_Node000001_Node000006"><a xlink:title=" ">
<path fill="none" stroke="#9a32cd" stroke-dasharray="5,2" d="M404.95,-183.32C508.01,-175.22 707.39,-159.54 822.9,-150.46"/>
<polygon fill="#9a32cd" stroke="#9a32cd" points="404.37,-179.85 394.67,-184.12 404.92,-186.83 404.37,-179.85"/>
</a>
</g>
<text text-anchor="middle" x="574.5" y="-179.5" font-family="Helvetica,sans-Serif" font-size="10.00" fill="grey"> db_list</text>
</g>
<!-- Node6&#45;&gt;Node3 -->
<g id="edge5_Node000003_Node000006" class="edge">
<title>Node6&#45;&gt;Node3</title>
<g id="a_edge5_Node000003_Node000006"><a xlink:title=" ">
<path fill="none" stroke="#9a32cd" stroke-dasharray="5,2" d="M377.07,-201.29C419.87,-215.67 483.64,-237.09 485,-237.5 501.76,-242.58 520.46,-247.73 536.33,-251.94"/>
<polygon fill="#9a32cd" stroke="#9a32cd" points="378.08,-197.94 367.49,-198.07 375.85,-204.58 378.08,-197.94"/>
</a>
</g>
<text text-anchor="middle" x="449" y="-233.5" font-family="Helvetica,sans-Serif" font-size="10.00" fill="grey"> db_list</text>
</g>
<!-- Node7 -->
<g id="Node000007" class="node">
<title>Node7</title>
<g id="a_Node000007"><a xlink:href="classRealm_1_1atomic.html" target="_top" xlink:title=" ">
<polygon fill="white" stroke="#666666" points="152,-198 0,-198 0,-179 152,-179 152,-198"/>
<text text-anchor="middle" x="76" y="-186" font-family="Helvetica,sans-Serif" font-size="10.00">Realm::atomic&lt; uintptr_t &gt;</text>
</a>
</g>
</g>
<!-- Node7&#45;&gt;Node6 -->
<g id="edge6_Node000006_Node000007" class="edge">
<title>Node7&#45;&gt;Node6</title>
<g id="a_edge6_Node000006_Node000007"><a xlink:title=" ">
<path fill="none" stroke="#9a32cd" stroke-dasharray="5,2" d="M162.52,-188.5C201.61,-188.5 246.79,-188.5 281.38,-188.5"/>
<polygon fill="#9a32cd" stroke="#9a32cd" points="162.2,-185 152.2,-188.5 162.2,-192 162.2,-185"/>
</a>
</g>
<text text-anchor="middle" x="207.5" y="-191.5" font-family="Helvetica,sans-Serif" font-size="10.00" fill="grey"> head_or_count</text>
</g>
<!-- Node8 -->
<g id="Node000008" class="node">
<title>Node8</title>
<g id="a_Node000008"><a xlink:href="classRealm_1_1atomic.html" target="_top" xlink:title=" ">
<polygon fill="white" stroke="#666666" points="652,-130 497,-130 497,-111 652,-111 652,-130"/>
<text text-anchor="middle" x="574.5" y="-118" font-family="Helvetica,sans-Serif" font-size="10.00">Realm::atomic&lt; unsigned &gt;</text>
</a>
</g>
</g>
<!-- Node8&#45;&gt;Node1 -->
<g id="edge7_Node000001_Node000008" class="edge">
<title>Node8&#45;&gt;Node1</title>
<g id="a_edge7_Node000001_Node000008"><a xlink:title=" ">
<path fill="none" stroke="#9a32cd" stroke-dasharray="5,2" d="M662.19,-126.43C711.57,-129.81 773.31,-134.04 822.99,-137.44"/>
<polygon fill="#9a32cd" stroke="#9a32cd" points="662.38,-122.94 652.16,-125.75 661.9,-129.92 662.38,-122.94"/>
</a>
</g>
<text text-anchor="middle" x="743.5" y="-138.5" font-family="Helvetica,sans-Serif" font-size="10.00" fill="grey"> num_work_items</text>
</g>
<!-- Node9 -->
<g id="Node000009" class="node">
<title>Node9</title>
<g id="a_Node000009"><a xlink:href="classRealm_1_1atomic.html" target="_top" xlink:title=" ">
<polygon fill="white" stroke="#666666" points="649.5,-93 499.5,-93 499.5,-74 649.5,-74 649.5,-93"/>
<text text-anchor="middle" x="574.5" y="-81" font-family="Helvetica,sans-Serif" font-size="10.00">Realm::atomic&lt; BitMask &gt;</text>
</a>
</g>
</g>
<!-- Node9&#45;&gt;Node1 -->
<g id="edge8_Node000001_Node000009" class="edge">
<title>Node9&#45;&gt;Node1</title>
<g id="a_edge8_Node000001_Node000009"><a xlink:title=" ">
<path fill="none" stroke="#9a32cd" stroke-dasharray="5,2" d="M659.63,-90.92C703.28,-95.58 757.3,-102.61 805,-112.5 831.96,-118.09 862.03,-127.11 883.33,-133.98"/>
<polygon fill="#9a32cd" stroke="#9a32cd" points="659.94,-87.43 649.63,-89.88 659.21,-94.4 659.94,-87.43"/>
</a>
</g>
<text text-anchor="middle" x="743.5" y="-115.5" font-family="Helvetica,sans-Serif" font-size="10.00" fill="grey"> active_work_item_mask</text>
</g>
<!-- Node10 -->
<g id="Node000010" class="node">
<title>Node10</title>
<g id="a_Node000010"><a xlink:href="classRealm_1_1atomic.html" target="_top" xlink:title=" ">
<polygon fill="white" stroke="#666666" points="636,-56 513,-56 513,-37 636,-37 636,-56"/>
<text text-anchor="middle" x="574.5" y="-44" font-family="Helvetica,sans-Serif" font-size="10.00">Realm::atomic&lt; int &gt;</text>
</a>
</g>
</g>
<!-- Node10&#45;&gt;Node1 -->
<g id="edge9_Node000001_Node000010" class="edge">
<title>Node10&#45;&gt;Node1</title>
<g id="a_edge9_Node000001_Node000010"><a xlink:title=" ">
<path fill="none" stroke="#9a32cd" stroke-dasharray="5,2" d="M646.29,-48.92C692.59,-52.29 753.76,-60.19 805,-78.5 842.33,-91.84 880.71,-119.32 899.56,-133.91"/>
<polygon fill="#9a32cd" stroke="#9a32cd" points="646.27,-45.41 636.06,-48.23 645.8,-52.39 646.27,-45.41"/>
</a>
</g>
<text text-anchor="middle" x="743.5" y="-81.5" font-family="Helvetica,sans-Serif" font-size="10.00" fill="grey"> work_item_usecounts</text>
</g>
<!-- Node11&#45;&gt;Node1 -->
<g id="edge10_Node000001_Node000011" class="edge">
<title>Node11&#45;&gt;Node1</title>
<g id="a_edge10_Node000001_Node000011"><a xlink:title=" ">
<path fill="none" stroke="#9a32cd" stroke-dasharray="5,2" d="M1119.61,-132.32C1106.93,-130.31 1093.55,-128.53 1081,-127.5 1053.98,-125.28 1047.04,-125.48 1020,-127.5 1002.47,-128.81 983.46,-131.31 966.41,-133.96"/>
<polygon fill="#9a32cd" stroke="#9a32cd" points="1119.15,-135.79 1129.59,-133.96 1120.29,-128.88 1119.15,-135.79"/>
</a>
</g>
<text text-anchor="middle" x="1050.5" y="-130.5" font-family="Helvetica,sans-Serif" font-size="10.00" fill="grey"> work_items</text>
</g>
<!-- Node12 -->
<g id="Node000012" class="node">
<title>Node12</title>
<g id="a_Node000012"><a xlink:href="classRealm_1_1DelegatingMutex.html" target="_top" xlink:title=" ">
<polygon fill="white" stroke="#666666" points="643.5,-19 505.5,-19 505.5,0 643.5,0 643.5,-19"/>
<text text-anchor="middle" x="574.5" y="-7" font-family="Helvetica,sans-Serif" font-size="10.00">Realm::DelegatingMutex</text>
</a>
</g>
</g>
<!-- Node12&#45;&gt;Node1 -->
<g id="edge13_Node000001_Node000012" class="edge">
<title>Node12&#45;&gt;Node1</title>
<g id="a_edge13_Node000001_Node000012"><a xlink:title=" ">
<path fill="none" stroke="#9a32cd" stroke-dasharray="5,2" d="M653.8,-6.12C699.92,-7.13 758.2,-13.76 805,-36.5 852.38,-59.53 891.01,-112.36 905.43,-133.99"/>
<polygon fill="#9a32cd" stroke="#9a32cd" points="653.6,-2.62 643.55,-5.99 653.51,-9.62 653.6,-2.62"/>
</a>
</g>
<text text-anchor="middle" x="743.5" y="-39.5" font-family="Helvetica,sans-Serif" font-size="10.00" fill="grey"> db_mutex</text>
</g>
<!-- Node13 -->
<g id="Node000013" class="node">
<title>Node13</title>
<g id="a_Node000013"><a xlink:href="classRealm_1_1atomic.html" target="_top" xlink:title=" ">
<polygon fill="white" stroke="#666666" points="413,-19 263,-19 263,0 413,0 413,-19"/>
<text text-anchor="middle" x="338" y="-7" font-family="Helvetica,sans-Serif" font-size="10.00">Realm::atomic&lt; uint64_t &gt;</text>
</a>
</g>
</g>
<!-- Node13&#45;&gt;Node12 -->
<g id="edge14_Node000012_Node000013" class="edge">
<title>Node13&#45;&gt;Node12</title>
<g id="a_edge14_Node000012_Node000013"><a xlink:title=" ">
<path fill="none" stroke="#9a32cd" stroke-dasharray="5,2" d="M423.38,-9.5C450.3,-9.5 479.74,-9.5 505.36,-9.5"/>
<polygon fill="#9a32cd" stroke="#9a32cd" points="423.2,-6 413.2,-9.5 423.2,-13 423.2,-6"/>
</a>
</g>
<text text-anchor="middle" x="449" y="-12.5" font-family="Helvetica,sans-Serif" font-size="10.00" fill="grey"> state</text>
</g>
</g>
</svg>
