<?xml version="1.0" encoding="UTF-8" standalone="no"?>
<!DOCTYPE svg PUBLIC "-//W3C//DTD SVG 1.1//EN"
 "http://www.w3.org/Graphics/SVG/1.1/DTD/svg11.dtd">
<!-- Generated by graphviz version 2.43.0 (0)
 -->
<!-- Title: Realm::ProcSet::ProcSetModule Pages: 1 -->
<svg width="286pt" height="160pt"
 viewBox="0.00 0.00 286.00 160.00" xmlns="http://www.w3.org/2000/svg" xmlns:xlink="http://www.w3.org/1999/xlink">
<g id="graph0" class="graph" transform="scale(1 1) rotate(0) translate(4 156)">
<title>Realm::ProcSet::ProcSetModule</title>
<!-- Node1 -->
<g id="Node000001" class="node">
<title>Node1</title>
<g id="a_Node000001"><a xlink:title=" ">
<polygon fill="#999999" stroke="#666666" points="175,-19 5,-19 5,0 175,0 175,-19"/>
<text text-anchor="middle" x="90" y="-7" font-family="Helvetica,sans-Serif" font-size="10.00">Realm::ProcSet::ProcSetModule</text>
</a>
</g>
</g>
<!-- Node2 -->
<g id="Node000002" class="node">
<title>Node2</title>
<g id="a_Node000002"><a xlink:href="classRealm_1_1Module.html" target="_top" xlink:title=" ">
<polygon fill="white" stroke="#666666" points="90,-90.5 0,-90.5 0,-71.5 90,-71.5 90,-90.5"/>
<text text-anchor="middle" x="45" y="-78.5" font-family="Helvetica,sans-Serif" font-size="10.00">Realm::Module</text>
</a>
</g>
</g>
<!-- Node2&#45;&gt;Node1 -->
<g id="edge1_Node000001_Node000002" class="edge">
<title>Node2&#45;&gt;Node1</title>
<g id="a_edge1_Node000001_Node000002"><a xlink:title=" ">
<path fill="none" stroke="#63b8ff" d="M56.11,-62.84C65.11,-48.95 77.4,-29.96 84.44,-19.09"/>
<polygon fill="#63b8ff" stroke="#63b8ff" points="53.02,-61.18 50.52,-71.48 58.89,-64.99 53.02,-61.18"/>
</a>
</g>
</g>
<!-- Node3 -->
<g id="Node000003" class="node">
<title>Node3</title>
<g id="a_Node000003"><a xlink:href="classRealm_1_1ProcSet_1_1ProcSetModuleConfig.html" target="_top" xlink:title=" ">
<polygon fill="white" stroke="#666666" points="278,-96 108,-96 108,-66 278,-66 278,-96"/>
<text text-anchor="start" x="116" y="-84" font-family="Helvetica,sans-Serif" font-size="10.00">Realm::ProcSet::ProcSetModule</text>
<text text-anchor="middle" x="193" y="-73" font-family="Helvetica,sans-Serif" font-size="10.00">Config</text>
</a>
</g>
</g>
<!-- Node3&#45;&gt;Node1 -->
<g id="edge2_Node000001_Node000003" class="edge">
<title>Node3&#45;&gt;Node1</title>
<g id="a_edge2_Node000001_Node000003"><a xlink:title=" ">
<path fill="none" stroke="#9a32cd" stroke-dasharray="5,2" d="M163.64,-60.19C143.51,-46.6 117.8,-29.26 102.7,-19.07"/>
<polygon fill="#9a32cd" stroke="#9a32cd" points="161.91,-63.24 172.16,-65.94 165.82,-57.44 161.91,-63.24"/>
</a>
</g>
<text text-anchor="middle" x="160.5" y="-40" font-family="Helvetica,sans-Serif" font-size="10.00" fill="grey"> config</text>
</g>
<!-- Node4 -->
<g id="Node000004" class="node">
<title>Node4</title>
<g id="a_Node000004"><a xlink:href="classRealm_1_1ModuleConfig.html" target="_top" xlink:title=" ">
<polygon fill="white" stroke="#666666" points="253.5,-152 132.5,-152 132.5,-133 253.5,-133 253.5,-152"/>
<text text-anchor="middle" x="193" y="-140" font-family="Helvetica,sans-Serif" font-size="10.00">Realm::ModuleConfig</text>
</a>
</g>
</g>
<!-- Node4&#45;&gt;Node3 -->
<g id="edge3_Node000003_Node000004" class="edge">
<title>Node4&#45;&gt;Node3</title>
<g id="a_edge3_Node000003_Node000004"><a xlink:title=" ">
<path fill="none" stroke="#63b8ff" d="M193,-122.73C193,-114.09 193,-104 193,-96.02"/>
<polygon fill="#63b8ff" stroke="#63b8ff" points="189.5,-122.98 193,-132.98 196.5,-122.98 189.5,-122.98"/>
</a>
</g>
</g>
</g>
</svg>
