<?xml version="1.0" encoding="UTF-8" standalone="no"?>
<!DOCTYPE svg PUBLIC "-//W3C//DTD SVG 1.1//EN"
 "http://www.w3.org/Graphics/SVG/1.1/DTD/svg11.dtd">
<!-- Generated by graphviz version 2.43.0 (0)
 -->
<!-- Title: Realm::NetworkSegment Pages: 1 -->
<svg width="294pt" height="149pt"
 viewBox="0.00 0.00 293.50 149.00" xmlns="http://www.w3.org/2000/svg" xmlns:xlink="http://www.w3.org/1999/xlink">
<g id="graph0" class="graph" transform="scale(1 1) rotate(0) translate(4 145)">
<title>Realm::NetworkSegment</title>
<!-- Node1 -->
<g id="Node000001" class="node">
<title>Node1</title>
<g id="a_Node000001"><a xlink:title=" ">
<polygon fill="#999999" stroke="#666666" points="202,-19 63,-19 63,0 202,0 202,-19"/>
<text text-anchor="middle" x="132.5" y="-7" font-family="Helvetica,sans-Serif" font-size="10.00">Realm::NetworkSegment</text>
</a>
</g>
</g>
<!-- Node2 -->
<g id="Node000002" class="node">
<title>Node2</title>
<g id="a_Node000002"><a xlink:href="classRealm_1_1NetworkModule.html" target="_top" xlink:title=" ">
<polygon fill="white" stroke="#666666" points="131,-85 0,-85 0,-66 131,-66 131,-85"/>
<text text-anchor="middle" x="65.5" y="-73" font-family="Helvetica,sans-Serif" font-size="10.00">Realm::NetworkModule</text>
</a>
</g>
</g>
<!-- Node2&#45;&gt;Node1 -->
<g id="edge1_Node000001_Node000002" class="edge">
<title>Node2&#45;&gt;Node1</title>
<g id="a_edge1_Node000001_Node000002"><a xlink:title=" ">
<path fill="none" stroke="#9a32cd" stroke-dasharray="5,2" d="M75.75,-56.75C80.1,-50.11 85.53,-42.78 91.5,-37 98.81,-29.93 108.27,-23.66 116.27,-19"/>
<polygon fill="#9a32cd" stroke="#9a32cd" points="72.48,-55.39 70.24,-65.74 78.45,-59.05 72.48,-55.39"/>
</a>
</g>
<text text-anchor="middle" x="130.5" y="-40" font-family="Helvetica,sans-Serif" font-size="10.00" fill="grey"> single_network</text>
</g>
<!-- Node3 -->
<g id="Node000003" class="node">
<title>Node3</title>
<g id="a_Node000003"><a xlink:href="classRealm_1_1Module.html" target="_top" xlink:title=" ">
<polygon fill="white" stroke="#666666" points="110.5,-141 20.5,-141 20.5,-122 110.5,-122 110.5,-141"/>
<text text-anchor="middle" x="65.5" y="-129" font-family="Helvetica,sans-Serif" font-size="10.00">Realm::Module</text>
</a>
</g>
</g>
<!-- Node3&#45;&gt;Node2 -->
<g id="edge2_Node000002_Node000003" class="edge">
<title>Node3&#45;&gt;Node2</title>
<g id="a_edge2_Node000002_Node000003"><a xlink:title=" ">
<path fill="none" stroke="#63b8ff" d="M65.5,-111.3C65.5,-102.41 65.5,-92.28 65.5,-85.25"/>
<polygon fill="#63b8ff" stroke="#63b8ff" points="62,-111.58 65.5,-121.58 69,-111.58 62,-111.58"/>
</a>
</g>
</g>
<!-- Node4 -->
<g id="Node000004" class="node">
<title>Node4</title>
<g id="a_Node000004"><a xlink:href="classRealm_1_1ByteArray.html" target="_top" xlink:title=" ">
<polygon fill="white" stroke="#666666" points="252,-85 149,-85 149,-66 252,-66 252,-85"/>
<text text-anchor="middle" x="200.5" y="-73" font-family="Helvetica,sans-Serif" font-size="10.00">Realm::ByteArray</text>
</a>
</g>
</g>
<!-- Node4&#45;&gt;Node1 -->
<g id="edge3_Node000001_Node000004" class="edge">
<title>Node4&#45;&gt;Node1</title>
<g id="a_edge3_Node000001_Node000004"><a xlink:title=" ">
<path fill="none" stroke="#9a32cd" stroke-dasharray="5,2" d="M188.34,-57.95C182.93,-51.11 176.27,-43.32 169.5,-37 162.34,-30.32 153.43,-23.89 146.15,-19.04"/>
<polygon fill="#9a32cd" stroke="#9a32cd" points="185.57,-60.09 194.42,-65.92 191.13,-55.85 185.57,-60.09"/>
</a>
</g>
<text text-anchor="middle" x="233" y="-40" font-family="Helvetica,sans-Serif" font-size="10.00" fill="grey"> single_network_data</text>
</g>
<!-- Node5 -->
<g id="Node000005" class="node">
<title>Node5</title>
<g id="a_Node000005"><a xlink:href="classRealm_1_1ByteArrayRef.html" target="_top" xlink:title=" ">
<polygon fill="white" stroke="#666666" points="260,-141 141,-141 141,-122 260,-122 260,-141"/>
<text text-anchor="middle" x="200.5" y="-129" font-family="Helvetica,sans-Serif" font-size="10.00">Realm::ByteArrayRef</text>
</a>
</g>
</g>
<!-- Node5&#45;&gt;Node4 -->
<g id="edge4_Node000004_Node000005" class="edge">
<title>Node5&#45;&gt;Node4</title>
<g id="a_edge4_Node000004_Node000005"><a xlink:title=" ">
<path fill="none" stroke="#63b8ff" d="M200.5,-111.3C200.5,-102.41 200.5,-92.28 200.5,-85.25"/>
<polygon fill="#63b8ff" stroke="#63b8ff" points="197,-111.58 200.5,-121.58 204,-111.58 197,-111.58"/>
</a>
</g>
</g>
</g>
</svg>
