<?xml version="1.0" encoding="UTF-8" standalone="no"?>
<!DOCTYPE svg PUBLIC "-//W3C//DTD SVG 1.1//EN"
 "http://www.w3.org/Graphics/SVG/1.1/DTD/svg11.dtd">
<!-- Generated by graphviz version 2.43.0 (0)
 -->
<!-- Title: PRealm::Reservation Pages: 1 -->
<svg width="236pt" height="83pt"
 viewBox="0.00 0.00 236.00 83.00" xmlns="http://www.w3.org/2000/svg" xmlns:xlink="http://www.w3.org/1999/xlink">
<g id="graph0" class="graph" transform="scale(1 1) rotate(0) translate(4 79)">
<title>PRealm::Reservation</title>
<!-- Node1 -->
<g id="Node000001" class="node">
<title>Node1</title>
<g id="a_Node000001"><a xlink:title=" ">
<polygon fill="#999999" stroke="#666666" points="119,-19 0,-19 0,0 119,0 119,-19"/>
<text text-anchor="middle" x="59.5" y="-7" font-family="Helvetica,sans-Serif" font-size="10.00">PRealm::Reservation</text>
</a>
</g>
</g>
<!-- Node1&#45;&gt;Node1 -->
<g id="edge3_Node000001_Node000001" class="edge">
<title>Node1&#45;&gt;Node1</title>
<g id="a_edge3_Node000001_Node000001"><a xlink:title=" ">
<path fill="none" stroke="#9a32cd" stroke-dasharray="5,2" d="M129.48,-13.27C134.16,-12.4 137,-11.14 137,-9.5 137,-6.88 129.73,-5.23 119.29,-4.58"/>
<polygon fill="#9a32cd" stroke="#9a32cd" points="128.83,-9.82 119.29,-14.42 129.62,-16.78 128.83,-9.82"/>
</a>
</g>
<text text-anchor="middle" x="182.5" y="-7" font-family="Helvetica,sans-Serif" font-size="10.00" fill="grey"> NO_RESERVATION</text>
</g>
<!-- Node2 -->
<g id="Node000002" class="node">
<title>Node2</title>
<g id="a_Node000002"><a xlink:href="classRealm_1_1Reservation.html" target="_top" xlink:title=" ">
<polygon fill="white" stroke="#666666" points="116,-75 3,-75 3,-56 116,-56 116,-75"/>
<text text-anchor="middle" x="59.5" y="-63" font-family="Helvetica,sans-Serif" font-size="10.00">Realm::Reservation</text>
</a>
</g>
</g>
<!-- Node2&#45;&gt;Node1 -->
<g id="edge1_Node000001_Node000002" class="edge">
<title>Node2&#45;&gt;Node1</title>
<g id="a_edge1_Node000001_Node000002"><a xlink:title=" ">
<path fill="none" stroke="#63b8ff" d="M59.5,-45.3C59.5,-36.41 59.5,-26.28 59.5,-19.25"/>
<polygon fill="#63b8ff" stroke="#63b8ff" points="56,-45.58 59.5,-55.58 63,-45.58 56,-45.58"/>
</a>
</g>
</g>
<!-- Node2&#45;&gt;Node2 -->
<g id="edge2_Node000002_Node000002" class="edge">
<title>Node2&#45;&gt;Node2</title>
<g id="a_edge2_Node000002_Node000002"><a xlink:title=" ">
<path fill="none" stroke="#9a32cd" stroke-dasharray="5,2" d="M125.99,-69.41C130.95,-68.54 134,-67.23 134,-65.5 134,-62.79 126.57,-61.13 116.03,-60.52"/>
<polygon fill="#9a32cd" stroke="#9a32cd" points="125.6,-65.94 116.03,-70.48 126.34,-72.9 125.6,-65.94"/>
</a>
</g>
<text text-anchor="middle" x="179.5" y="-63" font-family="Helvetica,sans-Serif" font-size="10.00" fill="grey"> NO_RESERVATION</text>
</g>
</g>
</svg>
