<?xml version="1.0" encoding="UTF-8" standalone="no"?>
<!DOCTYPE svg PUBLIC "-//W3C//DTD SVG 1.1//EN"
 "http://www.w3.org/Graphics/SVG/1.1/DTD/svg11.dtd">
<!-- Generated by graphviz version 2.43.0 (0)
 -->
<!-- Title: Realm::FileMemory::OpenFileInfo Pages: 1 -->
<svg width="186pt" height="94pt"
 viewBox="0.00 0.00 186.00 94.00" xmlns="http://www.w3.org/2000/svg" xmlns:xlink="http://www.w3.org/1999/xlink">
<g id="graph0" class="graph" transform="scale(1 1) rotate(0) translate(4 90)">
<title>Realm::FileMemory::OpenFileInfo</title>
<!-- Node1 -->
<g id="Node000001" class="node">
<title>Node1</title>
<g id="a_Node000001"><a xlink:title=" ">
<polygon fill="#999999" stroke="#666666" points="126,-30 9,-30 9,0 126,0 126,-30"/>
<text text-anchor="start" x="17" y="-18" font-family="Helvetica,sans-Serif" font-size="10.00">Realm::FileMemory::</text>
<text text-anchor="middle" x="67.5" y="-7" font-family="Helvetica,sans-Serif" font-size="10.00">OpenFileInfo</text>
</a>
</g>
</g>
<!-- Node2 -->
<g id="Node000002" class="node">
<title>Node2</title>
<g id="a_Node000002"><a xlink:href="classRealm_1_1MemSpecificInfo.html" target="_top" xlink:title=" ">
<polygon fill="white" stroke="#666666" points="135,-86 0,-86 0,-67 135,-67 135,-86"/>
<text text-anchor="middle" x="67.5" y="-74" font-family="Helvetica,sans-Serif" font-size="10.00">Realm::MemSpecificInfo</text>
</a>
</g>
</g>
<!-- Node2&#45;&gt;Node1 -->
<g id="edge1_Node000001_Node000002" class="edge">
<title>Node2&#45;&gt;Node1</title>
<g id="a_edge1_Node000001_Node000002"><a xlink:title=" ">
<path fill="none" stroke="#63b8ff" d="M67.5,-56.73C67.5,-48.09 67.5,-38 67.5,-30.02"/>
<polygon fill="#63b8ff" stroke="#63b8ff" points="64,-56.98 67.5,-66.98 71,-56.98 64,-56.98"/>
</a>
</g>
</g>
<!-- Node2&#45;&gt;Node2 -->
<g id="edge2_Node000002_Node000002" class="edge">
<title>Node2&#45;&gt;Node2</title>
<g id="a_edge2_Node000002_Node000002"><a xlink:title=" ">
<path fill="none" stroke="#9a32cd" stroke-dasharray="5,2" d="M145.5,-80.13C150.19,-79.26 153,-78.06 153,-76.5 153,-74.01 145.8,-72.41 135.23,-71.69"/>
<polygon fill="#9a32cd" stroke="#9a32cd" points="144.77,-76.69 135.23,-81.31 145.57,-83.64 144.77,-76.69"/>
</a>
</g>
<text text-anchor="middle" x="165.5" y="-74" font-family="Helvetica,sans-Serif" font-size="10.00" fill="grey"> next</text>
</g>
</g>
</svg>
