<?xml version="1.0" encoding="UTF-8" standalone="no"?>
<!DOCTYPE svg PUBLIC "-//W3C//DTD SVG 1.1//EN"
 "http://www.w3.org/Graphics/SVG/1.1/DTD/svg11.dtd">
<!-- Generated by graphviz version 2.43.0 (0)
 -->
<!-- Title: Realm::TransferIterator Pages: 1 -->
<svg width="535pt" height="134pt"
 viewBox="0.00 0.00 535.00 134.00" xmlns="http://www.w3.org/2000/svg" xmlns:xlink="http://www.w3.org/1999/xlink">
<g id="graph0" class="graph" transform="scale(1 1) rotate(0) translate(4 130)">
<title>Realm::TransferIterator</title>
<!-- Node1 -->
<g id="Node000001" class="node">
<title>Node1</title>
<g id="a_Node000001"><a xlink:title=" ">
<polygon fill="#999999" stroke="#666666" points="129,-50.5 0,-50.5 0,-31.5 129,-31.5 129,-50.5"/>
<text text-anchor="middle" x="64.5" y="-38.5" font-family="Helvetica,sans-Serif" font-size="10.00">Realm::TransferIterator</text>
</a>
</g>
</g>
<!-- Node2 -->
<g id="Node000002" class="node">
<title>Node2</title>
<g id="a_Node000002"><a xlink:href="classRealm_1_1TransferIteratorBase.html" target="_top" xlink:title=" ">
<polygon fill="white" stroke="#666666" points="321,-78 168,-78 168,-48 321,-48 321,-78"/>
<text text-anchor="start" x="176" y="-66" font-family="Helvetica,sans-Serif" font-size="10.00">Realm::TransferIteratorBase</text>
<text text-anchor="middle" x="244.5" y="-55" font-family="Helvetica,sans-Serif" font-size="10.00">&lt; N, T &gt;</text>
</a>
</g>
</g>
<!-- Node1&#45;&gt;Node2 -->
<g id="edge1_Node000001_Node000002" class="edge">
<title>Node1&#45;&gt;Node2</title>
<g id="a_edge1_Node000001_Node000002"><a xlink:title=" ">
<path fill="none" stroke="#63b8ff" d="M139.17,-50.11C148.64,-51.28 158.35,-52.48 167.85,-53.65"/>
<polygon fill="#63b8ff" stroke="#63b8ff" points="139.36,-46.6 129.01,-48.85 138.5,-53.55 139.36,-46.6"/>
</a>
</g>
</g>
<!-- Node6 -->
<g id="Node000006" class="node">
<title>Node6</title>
<g id="a_Node000006"><a xlink:href="classRealm_1_1WrappingFIFOIterator.html" target="_top" xlink:title=" ">
<polygon fill="white" stroke="#666666" points="324,-29.5 165,-29.5 165,-10.5 324,-10.5 324,-29.5"/>
<text text-anchor="middle" x="244.5" y="-17.5" font-family="Helvetica,sans-Serif" font-size="10.00">Realm::WrappingFIFOIterator</text>
</a>
</g>
</g>
<!-- Node1&#45;&gt;Node6 -->
<g id="edge5_Node000001_Node000006" class="edge">
<title>Node1&#45;&gt;Node6</title>
<g id="a_edge5_Node000001_Node000006"><a xlink:title=" ">
<path fill="none" stroke="#63b8ff" d="M139.19,-32.31C147.63,-31.31 156.26,-30.29 164.76,-29.29"/>
<polygon fill="#63b8ff" stroke="#63b8ff" points="138.53,-28.86 129.01,-33.51 139.35,-35.81 138.53,-28.86"/>
</a>
</g>
</g>
<!-- Node3 -->
<g id="Node000003" class="node">
<title>Node3</title>
<g id="a_Node000003"><a xlink:href="classRealm_1_1IDIndexedFieldsIterator.html" target="_top" xlink:title=" ">
<polygon fill="white" stroke="#666666" points="527,-126 360,-126 360,-96 527,-96 527,-126"/>
<text text-anchor="start" x="368" y="-114" font-family="Helvetica,sans-Serif" font-size="10.00">Realm::IDIndexedFieldsIterator</text>
<text text-anchor="middle" x="443.5" y="-103" font-family="Helvetica,sans-Serif" font-size="10.00">&lt; N, T &gt;</text>
</a>
</g>
</g>
<!-- Node2&#45;&gt;Node3 -->
<g id="edge2_Node000002_Node000003" class="edge">
<title>Node2&#45;&gt;Node3</title>
<g id="a_edge2_Node000002_Node000003"><a xlink:title=" ">
<path fill="none" stroke="#63b8ff" d="M317.08,-80.44C338.01,-85.54 360.68,-91.07 380.93,-96"/>
<polygon fill="#63b8ff" stroke="#63b8ff" points="317.84,-77.02 307.29,-78.06 316.18,-83.82 317.84,-77.02"/>
</a>
</g>
</g>
<!-- Node4 -->
<g id="Node000004" class="node">
<title>Node4</title>
<g id="a_Node000004"><a xlink:href="classRealm_1_1TransferIteratorIndexSpace.html" target="_top" xlink:title=" ">
<polygon fill="white" stroke="#666666" points="521.5,-78 365.5,-78 365.5,-48 521.5,-48 521.5,-78"/>
<text text-anchor="start" x="373.5" y="-66" font-family="Helvetica,sans-Serif" font-size="10.00">Realm::TransferIteratorIndex</text>
<text text-anchor="middle" x="443.5" y="-55" font-family="Helvetica,sans-Serif" font-size="10.00">Space&lt; N, T &gt;</text>
</a>
</g>
</g>
<!-- Node2&#45;&gt;Node4 -->
<g id="edge3_Node000002_Node000004" class="edge">
<title>Node2&#45;&gt;Node4</title>
<g id="a_edge3_Node000002_Node000004"><a xlink:title=" ">
<path fill="none" stroke="#63b8ff" d="M331.42,-63C342.75,-63 354.3,-63 365.47,-63"/>
<polygon fill="#63b8ff" stroke="#63b8ff" points="331.1,-59.5 321.1,-63 331.1,-66.5 331.1,-59.5"/>
</a>
</g>
</g>
<!-- Node5 -->
<g id="Node000005" class="node">
<title>Node5</title>
<g id="a_Node000005"><a xlink:href="classRealm_1_1TransferIteratorIndirect.html" target="_top" xlink:title=" ">
<polygon fill="white" stroke="#666666" points="526.5,-30 360.5,-30 360.5,0 526.5,0 526.5,-30"/>
<text text-anchor="start" x="368.5" y="-18" font-family="Helvetica,sans-Serif" font-size="10.00">Realm::TransferIteratorIndirect</text>
<text text-anchor="middle" x="443.5" y="-7" font-family="Helvetica,sans-Serif" font-size="10.00">&lt; N, T &gt;</text>
</a>
</g>
</g>
<!-- Node2&#45;&gt;Node5 -->
<g id="edge4_Node000002_Node000005" class="edge">
<title>Node2&#45;&gt;Node5</title>
<g id="a_edge4_Node000002_Node000005"><a xlink:title=" ">
<path fill="none" stroke="#63b8ff" d="M317.08,-45.56C338.01,-40.46 360.68,-34.93 380.93,-30"/>
<polygon fill="#63b8ff" stroke="#63b8ff" points="316.18,-42.18 307.29,-47.94 317.84,-48.98 316.18,-42.18"/>
</a>
</g>
</g>
</g>
</svg>
