<?xml version="1.0" encoding="UTF-8" standalone="no"?>
<!DOCTYPE svg PUBLIC "-//W3C//DTD SVG 1.1//EN"
 "http://www.w3.org/Graphics/SVG/1.1/DTD/svg11.dtd">
<!-- Generated by graphviz version 2.43.0 (0)
 -->
<!-- Title: Realm::MemoryBestProcAffinityPredicate Pages: 1 -->
<svg width="333pt" height="104pt"
 viewBox="0.00 0.00 333.00 104.00" xmlns="http://www.w3.org/2000/svg" xmlns:xlink="http://www.w3.org/1999/xlink">
<g id="graph0" class="graph" transform="scale(1 1) rotate(0) translate(4 100)">
<title>Realm::MemoryBestProcAffinityPredicate</title>
<!-- Node1 -->
<g id="Node000001" class="node">
<title>Node1</title>
<g id="a_Node000001"><a xlink:title=" ">
<polygon fill="#999999" stroke="#666666" points="173,-30 0,-30 0,0 173,0 173,-30"/>
<text text-anchor="start" x="8" y="-18" font-family="Helvetica,sans-Serif" font-size="10.00">Realm::MemoryBestProcAffinity</text>
<text text-anchor="middle" x="86.5" y="-7" font-family="Helvetica,sans-Serif" font-size="10.00">Predicate</text>
</a>
</g>
</g>
<!-- Node2 -->
<g id="Node000002" class="node">
<title>Node2</title>
<g id="a_Node000002"><a xlink:href="classRealm_1_1QueryPredicate.html" target="_top" xlink:title=" ">
<polygon fill="white" stroke="#666666" points="136.5,-96 4.5,-96 4.5,-77 136.5,-77 136.5,-96"/>
<text text-anchor="middle" x="70.5" y="-84" font-family="Helvetica,sans-Serif" font-size="10.00">MemoryQueryPredicate</text>
</a>
</g>
</g>
<!-- Node2&#45;&gt;Node1 -->
<g id="edge1_Node000001_Node000002" class="edge">
<title>Node2&#45;&gt;Node1</title>
<g id="a_edge1_Node000001_Node000002"><a xlink:title=" ">
<path fill="none" stroke="#63b8ff" d="M74.74,-67.07C77.41,-55.5 80.79,-40.79 83.25,-30.14"/>
<polygon fill="#63b8ff" stroke="#63b8ff" points="71.29,-66.45 72.46,-76.98 78.12,-68.02 71.29,-66.45"/>
</a>
</g>
</g>
<!-- Node3 -->
<g id="Node000003" class="node">
<title>Node3</title>
<g id="a_Node000003"><a xlink:href="classRealm_1_1Processor.html" target="_top" xlink:title=" ">
<polygon fill="white" stroke="#666666" points="256,-96 155,-96 155,-77 256,-77 256,-96"/>
<text text-anchor="middle" x="205.5" y="-84" font-family="Helvetica,sans-Serif" font-size="10.00">Realm::Processor</text>
</a>
</g>
</g>
<!-- Node3&#45;&gt;Node1 -->
<g id="edge2_Node000001_Node000003" class="edge">
<title>Node3&#45;&gt;Node1</title>
<g id="a_edge2_Node000001_Node000003"><a xlink:title=" ">
<path fill="none" stroke="#9a32cd" stroke-dasharray="5,2" d="M182.16,-71.87C161.54,-59.82 131.58,-42.33 110.71,-30.14"/>
<polygon fill="#9a32cd" stroke="#9a32cd" points="180.51,-74.96 190.91,-76.98 184.04,-68.91 180.51,-74.96"/>
</a>
</g>
<text text-anchor="middle" x="169" y="-51" font-family="Helvetica,sans-Serif" font-size="10.00" fill="grey"> proc</text>
</g>
<!-- Node3&#45;&gt;Node3 -->
<g id="edge3_Node000003_Node000003" class="edge">
<title>Node3&#45;&gt;Node3</title>
<g id="a_edge3_Node000003_Node000003"><a xlink:title=" ">
<path fill="none" stroke="#9a32cd" stroke-dasharray="5,2" d="M266.43,-91.02C271.11,-90.02 274,-88.51 274,-86.5 274,-83.28 266.61,-81.36 256.28,-80.73"/>
<polygon fill="#9a32cd" stroke="#9a32cd" points="265.78,-87.57 256.28,-92.27 266.64,-94.52 265.78,-87.57"/>
</a>
</g>
<text text-anchor="middle" x="299.5" y="-84" font-family="Helvetica,sans-Serif" font-size="10.00" fill="grey"> NO_PROC</text>
</g>
</g>
</svg>
