<?xml version="1.0" encoding="UTF-8" standalone="no"?>
<!DOCTYPE svg PUBLIC "-//W3C//DTD SVG 1.1//EN"
 "http://www.w3.org/Graphics/SVG/1.1/DTD/svg11.dtd">
<!-- Generated by graphviz version 2.43.0 (0)
 -->
<!-- Title: Realm::CompiledInstanceLayout Pages: 1 -->
<svg width="447pt" height="302pt"
 viewBox="0.00 0.00 446.50 302.00" xmlns="http://www.w3.org/2000/svg" xmlns:xlink="http://www.w3.org/1999/xlink">
<g id="graph0" class="graph" transform="scale(1 1) rotate(0) translate(4 298)">
<title>Realm::CompiledInstanceLayout</title>
<!-- Node1 -->
<g id="Node000001" class="node">
<title>Node1</title>
<g id="a_Node000001"><a xlink:title=" ">
<polygon fill="#999999" stroke="#666666" points="175,-19 0,-19 0,0 175,0 175,-19"/>
<text text-anchor="middle" x="87.5" y="-7" font-family="Helvetica,sans-Serif" font-size="10.00">Realm::CompiledInstanceLayout</text>
</a>
</g>
</g>
<!-- Node2 -->
<g id="Node000002" class="node">
<title>Node2</title>
<g id="a_Node000002"><a xlink:href="classRealm_1_1PieceLookup_1_1CompiledProgram.html" target="_top" xlink:title=" ">
<polygon fill="white" stroke="#666666" points="129,-96 14,-96 14,-66 129,-66 129,-96"/>
<text text-anchor="start" x="22" y="-84" font-family="Helvetica,sans-Serif" font-size="10.00">Realm::PieceLookup</text>
<text text-anchor="middle" x="71.5" y="-73" font-family="Helvetica,sans-Serif" font-size="10.00">::CompiledProgram</text>
</a>
</g>
</g>
<!-- Node2&#45;&gt;Node1 -->
<g id="edge1_Node000001_Node000002" class="edge">
<title>Node2&#45;&gt;Node1</title>
<g id="a_edge1_Node000001_Node000002"><a xlink:title=" ">
<path fill="none" stroke="#63b8ff" d="M77.04,-55.94C79.96,-43.24 83.37,-28.44 85.48,-19.27"/>
<polygon fill="#63b8ff" stroke="#63b8ff" points="73.57,-55.41 74.74,-65.94 80.39,-56.98 73.57,-55.41"/>
</a>
</g>
</g>
<!-- Node3 -->
<g id="Node000003" class="node">
<title>Node3</title>
<g id="a_Node000003"><a xlink:href="classRealm_1_1ReplicatedHeap.html" target="_top" xlink:title=" ">
<polygon fill="white" stroke="#666666" points="278,-90.5 147,-90.5 147,-71.5 278,-71.5 278,-90.5"/>
<text text-anchor="middle" x="212.5" y="-78.5" font-family="Helvetica,sans-Serif" font-size="10.00">Realm::ReplicatedHeap</text>
</a>
</g>
</g>
<!-- Node3&#45;&gt;Node1 -->
<g id="edge2_Node000001_Node000003" class="edge">
<title>Node3&#45;&gt;Node1</title>
<g id="a_edge2_Node000001_Node000003"><a xlink:title=" ">
<path fill="none" stroke="#9a32cd" stroke-dasharray="5,2" d="M188.23,-66.51C163.01,-52.48 124.29,-30.96 102.95,-19.09"/>
<polygon fill="#9a32cd" stroke="#9a32cd" points="186.73,-69.68 197.17,-71.48 190.13,-63.56 186.73,-69.68"/>
</a>
</g>
<text text-anchor="middle" x="179.5" y="-40" font-family="Helvetica,sans-Serif" font-size="10.00" fill="grey"> repl_heap</text>
</g>
<!-- Node4 -->
<g id="Node000004" class="node">
<title>Node4</title>
<g id="a_Node000004"><a xlink:href="classRealm_1_1UnfairMutex.html" target="_top" xlink:title=" ">
<polygon fill="white" stroke="#666666" points="270,-162 155,-162 155,-143 270,-143 270,-162"/>
<text text-anchor="middle" x="212.5" y="-150" font-family="Helvetica,sans-Serif" font-size="10.00">Realm::UnfairMutex</text>
</a>
</g>
</g>
<!-- Node4&#45;&gt;Node3 -->
<g id="edge3_Node000003_Node000004" class="edge">
<title>Node4&#45;&gt;Node3</title>
<g id="a_edge3_Node000003_Node000004"><a xlink:title=" ">
<path fill="none" stroke="#9a32cd" stroke-dasharray="5,2" d="M212.5,-132.71C212.5,-119 212.5,-101.05 212.5,-90.59"/>
<polygon fill="#9a32cd" stroke="#9a32cd" points="209,-132.98 212.5,-142.98 216,-132.98 209,-132.98"/>
</a>
</g>
<text text-anchor="middle" x="230" y="-117" font-family="Helvetica,sans-Serif" font-size="10.00" fill="grey"> mutex</text>
</g>
<!-- Node5 -->
<g id="Node000005" class="node">
<title>Node5</title>
<g id="a_Node000005"><a xlink:href="classRealm_1_1noncopyable.html" target="_top" xlink:title=" ">
<polygon fill="white" stroke="#666666" points="119.5,-228 3.5,-228 3.5,-209 119.5,-209 119.5,-228"/>
<text text-anchor="middle" x="61.5" y="-216" font-family="Helvetica,sans-Serif" font-size="10.00">Realm::noncopyable</text>
</a>
</g>
</g>
<!-- Node5&#45;&gt;Node4 -->
<g id="edge4_Node000004_Node000005" class="edge">
<title>Node5&#45;&gt;Node4</title>
<g id="a_edge4_Node000004_Node000005"><a xlink:title=" ">
<path fill="none" stroke="#63b8ff" d="M91.33,-204.86C121.08,-192.25 166.01,-173.21 191.98,-162.2"/>
<polygon fill="#63b8ff" stroke="#63b8ff" points="89.71,-201.74 81.86,-208.87 92.44,-208.19 89.71,-201.74"/>
</a>
</g>
</g>
<!-- Node6 -->
<g id="Node000006" class="node">
<title>Node6</title>
<g id="a_Node000006"><a xlink:href="classRealm_1_1atomic.html" target="_top" xlink:title=" ">
<polygon fill="white" stroke="#666666" points="287.5,-228 137.5,-228 137.5,-209 287.5,-209 287.5,-228"/>
<text text-anchor="middle" x="212.5" y="-216" font-family="Helvetica,sans-Serif" font-size="10.00">Realm::atomic&lt; uint32_t &gt;</text>
</a>
</g>
</g>
<!-- Node6&#45;&gt;Node4 -->
<g id="edge5_Node000004_Node000006" class="edge">
<title>Node6&#45;&gt;Node4</title>
<g id="a_edge5_Node000004_Node000006"><a xlink:title=" ">
<path fill="none" stroke="#9a32cd" stroke-dasharray="5,2" d="M212.5,-198.58C212.5,-186.63 212.5,-171.72 212.5,-162.41"/>
<polygon fill="#9a32cd" stroke="#9a32cd" points="209,-198.87 212.5,-208.87 216,-198.87 209,-198.87"/>
</a>
</g>
<text text-anchor="middle" x="226.5" y="-183" font-family="Helvetica,sans-Serif" font-size="10.00" fill="grey"> state</text>
</g>
<!-- Node7 -->
<g id="Node000007" class="node">
<title>Node7</title>
<g id="a_Node000007"><a xlink:href="classRealm_1_1DoorbellList.html" target="_top" xlink:title=" ">
<polygon fill="white" stroke="#666666" points="419,-228 306,-228 306,-209 419,-209 419,-228"/>
<text text-anchor="middle" x="362.5" y="-216" font-family="Helvetica,sans-Serif" font-size="10.00">Realm::DoorbellList</text>
</a>
</g>
</g>
<!-- Node7&#45;&gt;Node4 -->
<g id="edge6_Node000004_Node000007" class="edge">
<title>Node7&#45;&gt;Node4</title>
<g id="a_edge6_Node000004_Node000007"><a xlink:title=" ">
<path fill="none" stroke="#9a32cd" stroke-dasharray="5,2" d="M332.87,-204.86C303.31,-192.25 258.69,-173.21 232.89,-162.2"/>
<polygon fill="#9a32cd" stroke="#9a32cd" points="331.7,-208.16 342.27,-208.87 334.45,-201.73 331.7,-208.16"/>
</a>
</g>
<text text-anchor="middle" x="313.5" y="-183" font-family="Helvetica,sans-Serif" font-size="10.00" fill="grey"> db_list</text>
</g>
<!-- Node8 -->
<g id="Node000008" class="node">
<title>Node8</title>
<g id="a_Node000008"><a xlink:href="classRealm_1_1atomic.html" target="_top" xlink:title=" ">
<polygon fill="white" stroke="#666666" points="438.5,-294 286.5,-294 286.5,-275 438.5,-275 438.5,-294"/>
<text text-anchor="middle" x="362.5" y="-282" font-family="Helvetica,sans-Serif" font-size="10.00">Realm::atomic&lt; uintptr_t &gt;</text>
</a>
</g>
</g>
<!-- Node8&#45;&gt;Node7 -->
<g id="edge7_Node000007_Node000008" class="edge">
<title>Node8&#45;&gt;Node7</title>
<g id="a_edge7_Node000007_Node000008"><a xlink:title=" ">
<path fill="none" stroke="#9a32cd" stroke-dasharray="5,2" d="M362.5,-264.58C362.5,-252.63 362.5,-237.72 362.5,-228.41"/>
<polygon fill="#9a32cd" stroke="#9a32cd" points="359,-264.87 362.5,-274.87 366,-264.87 359,-264.87"/>
</a>
</g>
<text text-anchor="middle" x="400" y="-249" font-family="Helvetica,sans-Serif" font-size="10.00" fill="grey"> head_or_count</text>
</g>
</g>
</svg>
