<?xml version="1.0" encoding="UTF-8" standalone="no"?>
<!DOCTYPE svg PUBLIC "-//W3C//DTD SVG 1.1//EN"
 "http://www.w3.org/Graphics/SVG/1.1/DTD/svg11.dtd">
<!-- Generated by graphviz version 2.43.0 (0)
 -->
<!-- Title: Realm::MemoryBestMemAffinityPredicate Pages: 1 -->
<svg width="345pt" height="104pt"
 viewBox="0.00 0.00 344.50 104.00" xmlns="http://www.w3.org/2000/svg" xmlns:xlink="http://www.w3.org/1999/xlink">
<g id="graph0" class="graph" transform="scale(1 1) rotate(0) translate(4 100)">
<title>Realm::MemoryBestMemAffinityPredicate</title>
<!-- Node1 -->
<g id="Node000001" class="node">
<title>Node1</title>
<g id="a_Node000001"><a xlink:title=" ">
<polygon fill="#999999" stroke="#666666" points="176,-30 0,-30 0,0 176,0 176,-30"/>
<text text-anchor="start" x="8" y="-18" font-family="Helvetica,sans-Serif" font-size="10.00">Realm::MemoryBestMemAffinity</text>
<text text-anchor="middle" x="88" y="-7" font-family="Helvetica,sans-Serif" font-size="10.00">Predicate</text>
</a>
</g>
</g>
<!-- Node2 -->
<g id="Node000002" class="node">
<title>Node2</title>
<g id="a_Node000002"><a xlink:href="classRealm_1_1QueryPredicate.html" target="_top" xlink:title=" ">
<polygon fill="white" stroke="#666666" points="138,-96 6,-96 6,-77 138,-77 138,-96"/>
<text text-anchor="middle" x="72" y="-84" font-family="Helvetica,sans-Serif" font-size="10.00">MemoryQueryPredicate</text>
</a>
</g>
</g>
<!-- Node2&#45;&gt;Node1 -->
<g id="edge1_Node000001_Node000002" class="edge">
<title>Node2&#45;&gt;Node1</title>
<g id="a_edge1_Node000001_Node000002"><a xlink:title=" ">
<path fill="none" stroke="#63b8ff" d="M76.24,-67.07C78.91,-55.5 82.29,-40.79 84.75,-30.14"/>
<polygon fill="#63b8ff" stroke="#63b8ff" points="72.79,-66.45 73.96,-76.98 79.62,-68.02 72.79,-66.45"/>
</a>
</g>
</g>
<!-- Node3 -->
<g id="Node000003" class="node">
<title>Node3</title>
<g id="a_Node000003"><a xlink:href="classRealm_1_1Memory.html" target="_top" xlink:title=" ">
<polygon fill="white" stroke="#666666" points="251.5,-96 156.5,-96 156.5,-77 251.5,-77 251.5,-96"/>
<text text-anchor="middle" x="204" y="-84" font-family="Helvetica,sans-Serif" font-size="10.00">Realm::Memory</text>
</a>
</g>
</g>
<!-- Node3&#45;&gt;Node1 -->
<g id="edge2_Node000001_Node000003" class="edge">
<title>Node3&#45;&gt;Node1</title>
<g id="a_edge2_Node000001_Node000003"><a xlink:title=" ">
<path fill="none" stroke="#9a32cd" stroke-dasharray="5,2" d="M180.97,-71.7C160.88,-59.67 131.85,-42.28 111.6,-30.14"/>
<polygon fill="#9a32cd" stroke="#9a32cd" points="179.4,-74.84 189.78,-76.98 183,-68.84 179.4,-74.84"/>
</a>
</g>
<text text-anchor="middle" x="178.5" y="-51" font-family="Helvetica,sans-Serif" font-size="10.00" fill="grey"> memory</text>
</g>
<!-- Node3&#45;&gt;Node3 -->
<g id="edge3_Node000003_Node000003" class="edge">
<title>Node3&#45;&gt;Node3</title>
<g id="a_edge3_Node000003_Node000003"><a xlink:title=" ">
<path fill="none" stroke="#9a32cd" stroke-dasharray="5,2" d="M261.86,-91.1C266.58,-90.1 269.5,-88.57 269.5,-86.5 269.5,-83.19 262.01,-81.25 251.69,-80.68"/>
<polygon fill="#9a32cd" stroke="#9a32cd" points="261.2,-87.66 251.69,-92.32 262.04,-94.61 261.2,-87.66"/>
</a>
</g>
<text text-anchor="middle" x="303" y="-84" font-family="Helvetica,sans-Serif" font-size="10.00" fill="grey"> NO_MEMORY</text>
</g>
</g>
</svg>
