<?xml version="1.0" encoding="UTF-8" standalone="no"?>
<!DOCTYPE svg PUBLIC "-//W3C//DTD SVG 1.1//EN"
 "http://www.w3.org/Graphics/SVG/1.1/DTD/svg11.dtd">
<!-- Generated by graphviz version 2.43.0 (0)
 -->
<!-- Title: Realm::InstanceLayout&lt; N, T &gt; Pages: 1 -->
<svg width="869pt" height="152pt"
 viewBox="0.00 0.00 869.00 152.00" xmlns="http://www.w3.org/2000/svg" xmlns:xlink="http://www.w3.org/1999/xlink">
<g id="graph0" class="graph" transform="scale(1 1) rotate(0) translate(4 148)">
<title>Realm::InstanceLayout&lt; N, T &gt;</title>
<!-- Node1 -->
<g id="Node000001" class="node">
<title>Node1</title>
<g id="a_Node000001"><a xlink:title=" ">
<polygon fill="#999999" stroke="#666666" points="861,-100 733,-100 733,-70 861,-70 861,-100"/>
<text text-anchor="start" x="741" y="-88" font-family="Helvetica,sans-Serif" font-size="10.00">Realm::InstanceLayout</text>
<text text-anchor="middle" x="797" y="-77" font-family="Helvetica,sans-Serif" font-size="10.00">&lt; N, T &gt;</text>
</a>
</g>
</g>
<!-- Node2 -->
<g id="Node000002" class="node">
<title>Node2</title>
<g id="a_Node000002"><a xlink:href="classRealm_1_1InstanceLayoutGeneric.html" target="_top" xlink:title=" ">
<polygon fill="white" stroke="#666666" points="601.5,-137.5 435.5,-137.5 435.5,-118.5 601.5,-118.5 601.5,-137.5"/>
<text text-anchor="middle" x="518.5" y="-125.5" font-family="Helvetica,sans-Serif" font-size="10.00">Realm::InstanceLayoutGeneric</text>
</a>
</g>
</g>
<!-- Node2&#45;&gt;Node1 -->
<g id="edge1_Node000001_Node000002" class="edge">
<title>Node2&#45;&gt;Node1</title>
<g id="a_edge1_Node000001_Node000002"><a xlink:title=" ">
<path fill="none" stroke="#63b8ff" d="M601.29,-117.04C636.36,-112.15 677.74,-106.12 715,-100 720.79,-99.05 726.8,-98.02 732.81,-96.96"/>
<polygon fill="#63b8ff" stroke="#63b8ff" points="600.53,-113.62 591.11,-118.46 601.49,-120.55 600.53,-113.62"/>
</a>
</g>
</g>
<!-- Node3 -->
<g id="Node000003" class="node">
<title>Node3</title>
<g id="a_Node000003"><a xlink:href="structRealm_1_1IndexSpace.html" target="_top" xlink:title=" ">
<polygon fill="white" stroke="#666666" points="578,-100 459,-100 459,-70 578,-70 578,-100"/>
<text text-anchor="start" x="467" y="-88" font-family="Helvetica,sans-Serif" font-size="10.00">Realm::IndexSpace&lt;</text>
<text text-anchor="middle" x="518.5" y="-77" font-family="Helvetica,sans-Serif" font-size="10.00"> N, int &gt;</text>
</a>
</g>
</g>
<!-- Node3&#45;&gt;Node1 -->
<g id="edge2_Node000001_Node000003" class="edge">
<title>Node3&#45;&gt;Node1</title>
<g id="a_edge2_Node000001_Node000003"><a xlink:title=" ">
<path fill="none" stroke="#9a32cd" stroke-dasharray="5,2" d="M588.23,-85C632.45,-85 689.5,-85 732.63,-85"/>
<polygon fill="#9a32cd" stroke="#9a32cd" points="588.14,-81.5 578.14,-85 588.14,-88.5 588.14,-81.5"/>
</a>
</g>
<text text-anchor="middle" x="673.5" y="-88" font-family="Helvetica,sans-Serif" font-size="10.00" fill="grey"> space</text>
</g>
<!-- Node4 -->
<g id="Node000004" class="node">
<title>Node4</title>
<g id="a_Node000004"><a xlink:href="structRealm_1_1Rect.html" target="_top" xlink:title=" ">
<polygon fill="white" stroke="#666666" points="323,-131.5 198,-131.5 198,-112.5 323,-112.5 323,-131.5"/>
<text text-anchor="middle" x="260.5" y="-119.5" font-family="Helvetica,sans-Serif" font-size="10.00">Realm::Rect&lt; N, int &gt;</text>
</a>
</g>
</g>
<!-- Node4&#45;&gt;Node3 -->
<g id="edge3_Node000003_Node000004" class="edge">
<title>Node4&#45;&gt;Node3</title>
<g id="a_edge3_Node000003_Node000004"><a xlink:title=" ">
<path fill="none" stroke="#9a32cd" stroke-dasharray="5,2" d="M333.25,-111.63C372.8,-105.91 421.29,-98.91 458.59,-93.51"/>
<polygon fill="#9a32cd" stroke="#9a32cd" points="332.54,-108.2 323.14,-113.09 333.54,-115.12 332.54,-108.2"/>
</a>
</g>
<text text-anchor="middle" x="383.5" y="-109" font-family="Helvetica,sans-Serif" font-size="10.00" fill="grey"> bounds</text>
</g>
<!-- Node5 -->
<g id="Node000005" class="node">
<title>Node5</title>
<g id="a_Node000005"><a xlink:href="structRealm_1_1Point.html" target="_top" xlink:title=" ">
<polygon fill="white" stroke="#666666" points="128,-131.5 0,-131.5 0,-112.5 128,-112.5 128,-131.5"/>
<text text-anchor="middle" x="64" y="-119.5" font-family="Helvetica,sans-Serif" font-size="10.00">Realm::Point&lt; N, int &gt;</text>
</a>
</g>
</g>
<!-- Node5&#45;&gt;Node4 -->
<g id="edge4_Node000004_Node000005" class="edge">
<title>Node5&#45;&gt;Node4</title>
<g id="a_edge4_Node000004_Node000005"><a xlink:title=" ">
<path fill="none" stroke="#9a32cd" stroke-dasharray="5,2" d="M138.29,-122C157.96,-122 179.03,-122 197.99,-122"/>
<polygon fill="#9a32cd" stroke="#9a32cd" points="138.15,-118.5 128.15,-122 138.15,-125.5 138.15,-118.5"/>
</a>
</g>
<text text-anchor="middle" x="152.5" y="-136" font-family="Helvetica,sans-Serif" font-size="10.00" fill="grey"> hi</text>
<text text-anchor="middle" x="152.5" y="-125" font-family="Helvetica,sans-Serif" font-size="10.00" fill="grey">lo</text>
</g>
<!-- Node6 -->
<g id="Node000006" class="node">
<title>Node6</title>
<g id="a_Node000006"><a xlink:href="classRealm_1_1SparsityMap.html" target="_top" xlink:title=" ">
<polygon fill="white" stroke="#666666" points="318,-94 203,-94 203,-64 318,-64 318,-94"/>
<text text-anchor="start" x="211" y="-82" font-family="Helvetica,sans-Serif" font-size="10.00">Realm::SparsityMap</text>
<text text-anchor="middle" x="260.5" y="-71" font-family="Helvetica,sans-Serif" font-size="10.00">&lt; N, int &gt;</text>
</a>
</g>
</g>
<!-- Node6&#45;&gt;Node3 -->
<g id="edge5_Node000003_Node000006" class="edge">
<title>Node6&#45;&gt;Node3</title>
<g id="a_edge5_Node000003_Node000006"><a xlink:title=" ">
<path fill="none" stroke="#9a32cd" stroke-dasharray="5,2" d="M328.34,-80.57C368.74,-81.51 419.75,-82.71 458.62,-83.62"/>
<polygon fill="#9a32cd" stroke="#9a32cd" points="328.39,-77.07 318.31,-80.33 328.23,-84.07 328.39,-77.07"/>
</a>
</g>
<text text-anchor="middle" x="383.5" y="-85" font-family="Helvetica,sans-Serif" font-size="10.00" fill="grey"> sparsity</text>
</g>
<!-- Node7 -->
<g id="Node000007" class="node">
<title>Node7</title>
<g id="a_Node000007"><a xlink:href="classRealm_1_1Serialization_1_1PolymorphicSerdezSubclass.html" target="_top" xlink:title=" ">
<polygon fill="white" stroke="#666666" points="614,-52 423,-52 423,0 614,0 614,-52"/>
<text text-anchor="start" x="431" y="-40" font-family="Helvetica,sans-Serif" font-size="10.00">Realm::Serialization</text>
<text text-anchor="start" x="431" y="-29" font-family="Helvetica,sans-Serif" font-size="10.00">::PolymorphicSerdezSubclass</text>
<text text-anchor="start" x="431" y="-18" font-family="Helvetica,sans-Serif" font-size="10.00">&lt; Realm::InstanceLayoutGeneric,</text>
<text text-anchor="middle" x="518.5" y="-7" font-family="Helvetica,sans-Serif" font-size="10.00"> Realm::InstanceLayout&lt; N, int &gt; &gt;</text>
</a>
</g>
</g>
<!-- Node7&#45;&gt;Node1 -->
<g id="edge6_Node000001_Node000007" class="edge">
<title>Node7&#45;&gt;Node1</title>
<g id="a_edge6_Node000001_Node000007"><a xlink:title=" ">
<path fill="none" stroke="#9a32cd" stroke-dasharray="5,2" d="M624.45,-48.39C660.89,-56.17 700.61,-64.64 732.64,-71.48"/>
<polygon fill="#9a32cd" stroke="#9a32cd" points="624.78,-44.89 614.27,-46.22 623.32,-51.73 624.78,-44.89"/>
</a>
</g>
<text text-anchor="middle" x="673.5" y="-70" font-family="Helvetica,sans-Serif" font-size="10.00" fill="grey"> serdez_subclass</text>
</g>
<!-- Node8 -->
<g id="Node000008" class="node">
<title>Node8</title>
<g id="a_Node000008"><a xlink:href="classRealm_1_1Serialization_1_1PolymorphicSerdezIntfc.html" target="_top" xlink:title=" ">
<polygon fill="white" stroke="#666666" points="344,-41 177,-41 177,-11 344,-11 344,-41"/>
<text text-anchor="start" x="185" y="-29" font-family="Helvetica,sans-Serif" font-size="10.00">Realm::Serialization</text>
<text text-anchor="middle" x="260.5" y="-18" font-family="Helvetica,sans-Serif" font-size="10.00">::PolymorphicSerdezIntfc&lt; T &gt;</text>
</a>
</g>
</g>
<!-- Node8&#45;&gt;Node7 -->
<g id="edge7_Node000007_Node000008" class="edge">
<title>Node8&#45;&gt;Node7</title>
<g id="a_edge7_Node000007_Node000008"><a xlink:title=" ">
<path fill="none" stroke="#63b8ff" d="M354.34,-26C376.54,-26 400.27,-26 422.57,-26"/>
<polygon fill="#63b8ff" stroke="#63b8ff" points="354.26,-22.5 344.26,-26 354.26,-29.5 354.26,-22.5"/>
</a>
</g>
</g>
</g>
</svg>
