<?xml version="1.0" encoding="UTF-8" standalone="no"?>
<!DOCTYPE svg PUBLIC "-//W3C//DTD SVG 1.1//EN"
 "http://www.w3.org/Graphics/SVG/1.1/DTD/svg11.dtd">
<!-- Generated by graphviz version 2.43.0 (0)
 -->
<!-- Title: Realm::InstanceLayoutPiece&lt; N, T &gt; Pages: 1 -->
<svg width="332pt" height="181pt"
 viewBox="0.00 0.00 331.50 181.00" xmlns="http://www.w3.org/2000/svg" xmlns:xlink="http://www.w3.org/1999/xlink">
<g id="graph0" class="graph" transform="scale(1 1) rotate(0) translate(4 177)">
<title>Realm::InstanceLayoutPiece&lt; N, T &gt;</title>
<!-- Node1 -->
<g id="Node000001" class="node">
<title>Node1</title>
<g id="a_Node000001"><a xlink:title=" ">
<polygon fill="#999999" stroke="#666666" points="217,-30 62,-30 62,0 217,0 217,-30"/>
<text text-anchor="start" x="70" y="-18" font-family="Helvetica,sans-Serif" font-size="10.00">Realm::InstanceLayoutPiece</text>
<text text-anchor="middle" x="139.5" y="-7" font-family="Helvetica,sans-Serif" font-size="10.00">&lt; N, T &gt;</text>
</a>
</g>
</g>
<!-- Node2 -->
<g id="Node000002" class="node">
<title>Node2</title>
<g id="a_Node000002"><a xlink:href="classRealm_1_1InstanceLayoutPieceBase.html" target="_top" xlink:title=" ">
<polygon fill="white" stroke="#666666" points="179,-96 0,-96 0,-77 179,-77 179,-96"/>
<text text-anchor="middle" x="89.5" y="-84" font-family="Helvetica,sans-Serif" font-size="10.00">Realm::InstanceLayoutPieceBase</text>
</a>
</g>
</g>
<!-- Node2&#45;&gt;Node1 -->
<g id="edge1_Node000001_Node000002" class="edge">
<title>Node2&#45;&gt;Node1</title>
<g id="a_edge1_Node000001_Node000002"><a xlink:title=" ">
<path fill="none" stroke="#63b8ff" d="M101.49,-68.84C109.99,-57.02 121.27,-41.34 129.33,-30.14"/>
<polygon fill="#63b8ff" stroke="#63b8ff" points="98.63,-66.82 95.63,-76.98 104.31,-70.9 98.63,-66.82"/>
</a>
</g>
</g>
<!-- Node3 -->
<g id="Node000003" class="node">
<title>Node3</title>
<g id="a_Node000003"><a xlink:href="structRealm_1_1Rect.html" target="_top" xlink:title=" ">
<polygon fill="white" stroke="#666666" points="322,-96 197,-96 197,-77 322,-77 322,-96"/>
<text text-anchor="middle" x="259.5" y="-84" font-family="Helvetica,sans-Serif" font-size="10.00">Realm::Rect&lt; N, int &gt;</text>
</a>
</g>
</g>
<!-- Node3&#45;&gt;Node1 -->
<g id="edge2_Node000001_Node000003" class="edge">
<title>Node3&#45;&gt;Node1</title>
<g id="a_edge2_Node000001_Node000003"><a xlink:title=" ">
<path fill="none" stroke="#9a32cd" stroke-dasharray="5,2" d="M235.96,-71.87C215.17,-59.82 184.96,-42.33 163.91,-30.14"/>
<polygon fill="#9a32cd" stroke="#9a32cd" points="234.38,-74.99 244.79,-76.98 237.89,-68.94 234.38,-74.99"/>
</a>
</g>
<text text-anchor="middle" x="229" y="-51" font-family="Helvetica,sans-Serif" font-size="10.00" fill="grey"> bounds</text>
</g>
<!-- Node4 -->
<g id="Node000004" class="node">
<title>Node4</title>
<g id="a_Node000004"><a xlink:href="structRealm_1_1Point.html" target="_top" xlink:title=" ">
<polygon fill="white" stroke="#666666" points="323.5,-173 195.5,-173 195.5,-154 323.5,-154 323.5,-173"/>
<text text-anchor="middle" x="259.5" y="-161" font-family="Helvetica,sans-Serif" font-size="10.00">Realm::Point&lt; N, int &gt;</text>
</a>
</g>
</g>
<!-- Node4&#45;&gt;Node3 -->
<g id="edge3_Node000003_Node000004" class="edge">
<title>Node4&#45;&gt;Node3</title>
<g id="a_edge3_Node000003_Node000004"><a xlink:title=" ">
<path fill="none" stroke="#9a32cd" stroke-dasharray="5,2" d="M259.5,-143.52C259.5,-128.24 259.5,-107.48 259.5,-96"/>
<polygon fill="#9a32cd" stroke="#9a32cd" points="256,-143.9 259.5,-153.9 263,-143.9 256,-143.9"/>
</a>
</g>
<text text-anchor="middle" x="266" y="-128" font-family="Helvetica,sans-Serif" font-size="10.00" fill="grey"> hi</text>
<text text-anchor="middle" x="266" y="-117" font-family="Helvetica,sans-Serif" font-size="10.00" fill="grey">lo</text>
</g>
</g>
</svg>
