<?xml version="1.0" encoding="UTF-8" standalone="no"?>
<!DOCTYPE svg PUBLIC "-//W3C//DTD SVG 1.1//EN"
 "http://www.w3.org/Graphics/SVG/1.1/DTD/svg11.dtd">
<!-- Generated by graphviz version 2.43.0 (0)
 -->
<!-- Title: Realm::RemoteChannel Pages: 1 -->
<svg width="549pt" height="149pt"
 viewBox="0.00 0.00 549.00 149.00" xmlns="http://www.w3.org/2000/svg" xmlns:xlink="http://www.w3.org/1999/xlink">
<g id="graph0" class="graph" transform="scale(1 1) rotate(0) translate(4 145)">
<title>Realm::RemoteChannel</title>
<!-- Node1 -->
<g id="Node000001" class="node">
<title>Node1</title>
<g id="a_Node000001"><a xlink:title=" ">
<polygon fill="#999999" stroke="#666666" points="432,-19 300,-19 300,0 432,0 432,-19"/>
<text text-anchor="middle" x="366" y="-7" font-family="Helvetica,sans-Serif" font-size="10.00">Realm::RemoteChannel</text>
</a>
</g>
</g>
<!-- Node2 -->
<g id="Node000002" class="node">
<title>Node2</title>
<g id="a_Node000002"><a xlink:href="classRealm_1_1Channel.html" target="_top" xlink:title=" ">
<polygon fill="white" stroke="#666666" points="541,-85 447,-85 447,-66 541,-66 541,-85"/>
<text text-anchor="middle" x="494" y="-73" font-family="Helvetica,sans-Serif" font-size="10.00">Realm::Channel</text>
</a>
</g>
</g>
<!-- Node2&#45;&gt;Node1 -->
<g id="edge1_Node000001_Node000002" class="edge">
<title>Node2&#45;&gt;Node1</title>
<g id="a_edge1_Node000001_Node000002"><a xlink:title=" ">
<path fill="none" stroke="#63b8ff" d="M478.61,-58.7C470.65,-51.26 460.43,-42.77 450,-37 435.82,-29.15 418.98,-23.25 404.12,-19.04"/>
<polygon fill="#63b8ff" stroke="#63b8ff" points="476.4,-61.44 486.01,-65.92 481.29,-56.43 476.4,-61.44"/>
</a>
</g>
</g>
<!-- Node3 -->
<g id="Node000003" class="node">
<title>Node3</title>
<g id="a_Node000003"><a xlink:href="classRealm_1_1RWLock.html" target="_top" xlink:title=" ">
<polygon fill="white" stroke="#666666" points="230.5,-85 137.5,-85 137.5,-66 230.5,-66 230.5,-85"/>
<text text-anchor="middle" x="184" y="-73" font-family="Helvetica,sans-Serif" font-size="10.00">Realm::RWLock</text>
</a>
</g>
</g>
<!-- Node3&#45;&gt;Node1 -->
<g id="edge2_Node000001_Node000003" class="edge">
<title>Node3&#45;&gt;Node1</title>
<g id="a_edge2_Node000001_Node000003"><a xlink:title=" ">
<path fill="none" stroke="#9a32cd" stroke-dasharray="5,2" d="M218.21,-62.61C231.29,-58.05 246.34,-52.8 260,-48 288.18,-38.1 320.54,-26.64 342.01,-19.02"/>
<polygon fill="#9a32cd" stroke="#9a32cd" points="216.95,-59.34 208.65,-65.94 219.25,-65.95 216.95,-59.34"/>
</a>
</g>
<text text-anchor="middle" x="307.5" y="-40" font-family="Helvetica,sans-Serif" font-size="10.00" fill="grey"> mutex</text>
</g>
<!-- Node4 -->
<g id="Node000004" class="node">
<title>Node4</title>
<g id="a_Node000004"><a xlink:href="structRealm_1_1RWLock_1_1Writer.html" target="_top" xlink:title=" ">
<polygon fill="white" stroke="#666666" points="281.5,-19 152.5,-19 152.5,0 281.5,0 281.5,-19"/>
<text text-anchor="middle" x="217" y="-7" font-family="Helvetica,sans-Serif" font-size="10.00">Realm::RWLock::Writer</text>
</a>
</g>
</g>
<!-- Node3&#45;&gt;Node4 -->
<g id="edge4_Node000004_Node000003" class="edge">
<title>Node3&#45;&gt;Node4</title>
<g id="a_edge4_Node000004_Node000003"><a xlink:title=" ">
<path fill="none" stroke="#9a32cd" stroke-dasharray="5,2" d="M208.29,-59.41C211.82,-56.11 214.94,-52.29 217,-48 221.39,-38.84 220.43,-26.92 219.01,-19"/>
<polygon fill="#9a32cd" stroke="#9a32cd" points="205.86,-56.87 200.2,-65.82 210.21,-62.35 205.86,-56.87"/>
</a>
</g>
<text text-anchor="middle" x="238" y="-40" font-family="Helvetica,sans-Serif" font-size="10.00" fill="grey"> rwlock</text>
</g>
<!-- Node5 -->
<g id="Node000005" class="node">
<title>Node5</title>
<g id="a_Node000005"><a xlink:href="structRealm_1_1RWLock_1_1Reader.html" target="_top" xlink:title=" ">
<polygon fill="white" stroke="#666666" points="134,-19 0,-19 0,0 134,0 134,-19"/>
<text text-anchor="middle" x="67" y="-7" font-family="Helvetica,sans-Serif" font-size="10.00">Realm::RWLock::Reader</text>
</a>
</g>
</g>
<!-- Node3&#45;&gt;Node5 -->
<g id="edge6_Node000005_Node000003" class="edge">
<title>Node3&#45;&gt;Node5</title>
<g id="a_edge6_Node000005_Node000003"><a xlink:title=" ">
<path fill="none" stroke="#9a32cd" stroke-dasharray="5,2" d="M127.26,-70.78C109.94,-67.07 92.06,-60.27 79,-48 71.03,-40.51 68.33,-27.74 67.43,-19.21"/>
<polygon fill="#9a32cd" stroke="#9a32cd" points="126.87,-74.27 137.34,-72.63 128.13,-67.39 126.87,-74.27"/>
</a>
</g>
<text text-anchor="middle" x="97" y="-40" font-family="Helvetica,sans-Serif" font-size="10.00" fill="grey"> rwlock</text>
</g>
<!-- Node4&#45;&gt;Node3 -->
<g id="edge3_Node000003_Node000004" class="edge">
<title>Node4&#45;&gt;Node3</title>
<g id="a_edge3_Node000003_Node000004"><a xlink:title=" ">
<path fill="none" stroke="#9a32cd" stroke-dasharray="5,2" d="M193.71,-25.56C190.21,-28.9 187.08,-32.73 185,-37 180.55,-46.14 181.16,-58.06 182.3,-65.99"/>
<polygon fill="#9a32cd" stroke="#9a32cd" points="196.14,-28.1 201.71,-19.09 191.73,-22.66 196.14,-28.1"/>
</a>
</g>
<text text-anchor="middle" x="201" y="-40" font-family="Helvetica,sans-Serif" font-size="10.00" fill="grey"> writer</text>
</g>
<!-- Node5&#45;&gt;Node3 -->
<g id="edge5_Node000003_Node000005" class="edge">
<title>Node5&#45;&gt;Node3</title>
<g id="a_edge5_Node000003_Node000005"><a xlink:title=" ">
<path fill="none" stroke="#9a32cd" stroke-dasharray="5,2" d="M91.77,-24.05C114.86,-36.68 148.59,-55.13 168.22,-65.87"/>
<polygon fill="#9a32cd" stroke="#9a32cd" points="93.36,-20.93 82.9,-19.2 90,-27.07 93.36,-20.93"/>
</a>
</g>
<text text-anchor="middle" x="150.5" y="-40" font-family="Helvetica,sans-Serif" font-size="10.00" fill="grey"> reader</text>
</g>
<!-- Node6 -->
<g id="Node000006" class="node">
<title>Node6</title>
<g id="a_Node000006"><a xlink:href="classRealm_1_1SimpleXferDesFactory.html" target="_top" xlink:title=" ">
<polygon fill="white" stroke="#666666" points="429,-85 267,-85 267,-66 429,-66 429,-85"/>
<text text-anchor="middle" x="348" y="-73" font-family="Helvetica,sans-Serif" font-size="10.00">Realm::SimpleXferDesFactory</text>
</a>
</g>
</g>
<!-- Node6&#45;&gt;Node1 -->
<g id="edge7_Node000001_Node000006" class="edge">
<title>Node6&#45;&gt;Node1</title>
<g id="a_edge7_Node000001_Node000006"><a xlink:title=" ">
<path fill="none" stroke="#9a32cd" stroke-dasharray="5,2" d="M353.22,-55.95C356.6,-43.93 360.85,-28.82 363.5,-19.41"/>
<polygon fill="#9a32cd" stroke="#9a32cd" points="349.77,-55.29 350.43,-65.87 356.5,-57.19 349.77,-55.29"/>
</a>
</g>
<text text-anchor="middle" x="402" y="-40" font-family="Helvetica,sans-Serif" font-size="10.00" fill="grey"> factory_singleton</text>
</g>
<!-- Node7 -->
<g id="Node000007" class="node">
<title>Node7</title>
<g id="a_Node000007"><a xlink:href="classRealm_1_1XferDesFactory.html" target="_top" xlink:title=" ">
<polygon fill="white" stroke="#666666" points="412,-141 284,-141 284,-122 412,-122 412,-141"/>
<text text-anchor="middle" x="348" y="-129" font-family="Helvetica,sans-Serif" font-size="10.00">Realm::XferDesFactory</text>
</a>
</g>
</g>
<!-- Node7&#45;&gt;Node6 -->
<g id="edge8_Node000006_Node000007" class="edge">
<title>Node7&#45;&gt;Node6</title>
<g id="a_edge8_Node000006_Node000007"><a xlink:title=" ">
<path fill="none" stroke="#63b8ff" d="M348,-111.3C348,-102.41 348,-92.28 348,-85.25"/>
<polygon fill="#63b8ff" stroke="#63b8ff" points="344.5,-111.58 348,-121.58 351.5,-111.58 344.5,-111.58"/>
</a>
</g>
</g>
</g>
</svg>
