<?xml version="1.0" encoding="UTF-8" standalone="no"?>
<!DOCTYPE svg PUBLIC "-//W3C//DTD SVG 1.1//EN"
 "http://www.w3.org/Graphics/SVG/1.1/DTD/svg11.dtd">
<!-- Generated by graphviz version 2.43.0 (0)
 -->
<!-- Title: Realm::XferDes Pages: 1 -->
<svg width="1480pt" height="365pt"
 viewBox="0.00 0.00 1480.00 364.69" xmlns="http://www.w3.org/2000/svg" xmlns:xlink="http://www.w3.org/1999/xlink">
<g id="graph0" class="graph" transform="scale(1 1) rotate(0) translate(4 360.69)">
<title>Realm::XferDes</title>
<!-- Node1 -->
<g id="Node000001" class="node">
<title>Node1</title>
<g id="a_Node000001"><a xlink:title=" ">
<polygon fill="#999999" stroke="#666666" points="1180,-173.19 1087,-173.19 1087,-154.19 1180,-154.19 1180,-173.19"/>
<text text-anchor="middle" x="1133.5" y="-161.19" font-family="Helvetica,sans-Serif" font-size="10.00">Realm::XferDes</text>
</a>
</g>
</g>
<!-- Node15 -->
<g id="Node000015" class="node">
<title>Node15</title>
<g id="a_Node000015"><a xlink:href="structRealm_1_1IntrusivePriorityListLink.html" target="_top" xlink:title=" ">
<polygon fill="white" stroke="#666666" points="1472,-120.69 1319,-120.69 1319,-90.69 1472,-90.69 1472,-120.69"/>
<text text-anchor="start" x="1327" y="-108.69" font-family="Helvetica,sans-Serif" font-size="10.00">Realm::IntrusivePriority</text>
<text text-anchor="middle" x="1395.5" y="-97.69" font-family="Helvetica,sans-Serif" font-size="10.00">ListLink&lt; Realm::XferDes &gt;</text>
</a>
</g>
</g>
<!-- Node1&#45;&gt;Node15 -->
<g id="edge16_Node000015_Node000001" class="edge">
<title>Node1&#45;&gt;Node15</title>
<g id="a_edge16_Node000015_Node000001"><a xlink:title=" ">
<path fill="none" stroke="#9a32cd" stroke-dasharray="5,2" d="M1190.44,-153.55C1222.84,-147.44 1264.35,-139.21 1301,-130.69 1313.93,-127.68 1327.78,-124.15 1340.76,-120.7"/>
<polygon fill="#9a32cd" stroke="#9a32cd" points="1189.44,-150.17 1180.25,-155.45 1190.73,-157.05 1189.44,-150.17"/>
</a>
</g>
<text text-anchor="middle" x="1254.5" y="-173.69" font-family="Helvetica,sans-Serif" font-size="10.00" fill="grey"> lastlink_within_pri</text>
<text text-anchor="middle" x="1254.5" y="-162.69" font-family="Helvetica,sans-Serif" font-size="10.00" fill="grey">next_lower_pri</text>
<text text-anchor="middle" x="1254.5" y="-151.69" font-family="Helvetica,sans-Serif" font-size="10.00" fill="grey">next_within_pri</text>
</g>
<!-- Node16 -->
<g id="Node000016" class="node">
<title>Node16</title>
<g id="a_Node000016"><a xlink:href="classRealm_1_1XferDes_1_1DeferredXDEnqueue.html" target="_top" xlink:title=" ">
<polygon fill="white" stroke="#666666" points="1466.5,-240.69 1324.5,-240.69 1324.5,-210.69 1466.5,-210.69 1466.5,-240.69"/>
<text text-anchor="start" x="1332.5" y="-228.69" font-family="Helvetica,sans-Serif" font-size="10.00">Realm::XferDes::Deferred</text>
<text text-anchor="middle" x="1395.5" y="-217.69" font-family="Helvetica,sans-Serif" font-size="10.00">XDEnqueue</text>
</a>
</g>
</g>
<!-- Node1&#45;&gt;Node16 -->
<g id="edge22_Node000016_Node000001" class="edge">
<title>Node1&#45;&gt;Node16</title>
<g id="a_edge22_Node000016_Node000001"><a xlink:title=" ">
<path fill="none" stroke="#9a32cd" stroke-dasharray="5,2" d="M1150.01,-180.59C1163.74,-194.25 1185.12,-212.51 1208,-220.69 1244.91,-233.88 1288.59,-235.71 1324.4,-233.98"/>
<polygon fill="#9a32cd" stroke="#9a32cd" points="1152.32,-177.94 1142.85,-173.19 1147.29,-182.81 1152.32,-177.94"/>
</a>
</g>
<text text-anchor="middle" x="1254.5" y="-236.69" font-family="Helvetica,sans-Serif" font-size="10.00" fill="grey"> xd</text>
</g>
<!-- Node2 -->
<g id="Node000002" class="node">
<title>Node2</title>
<g id="a_Node000002"><a xlink:href="classRealm_1_1XferDesQueue.html" target="_top" xlink:title=" ">
<polygon fill="white" stroke="#666666" points="918,-264.19 793,-264.19 793,-245.19 918,-245.19 918,-264.19"/>
<text text-anchor="middle" x="855.5" y="-252.19" font-family="Helvetica,sans-Serif" font-size="10.00">Realm::XferDesQueue</text>
</a>
</g>
</g>
<!-- Node2&#45;&gt;Node1 -->
<g id="edge1_Node000001_Node000002" class="edge">
<title>Node2&#45;&gt;Node1</title>
<g id="a_edge1_Node000001_Node000002"><a xlink:title=" ">
<path fill="none" stroke="#9a32cd" stroke-dasharray="5,2" d="M928.35,-244.13C976.73,-236.41 1035.79,-225.58 1059,-215.69 1083.73,-205.14 1108.41,-185.29 1121.94,-173.4"/>
<polygon fill="#9a32cd" stroke="#9a32cd" points="927.54,-240.72 918.2,-245.74 928.63,-247.63 927.54,-240.72"/>
</a>
</g>
<text text-anchor="middle" x="1005" y="-242.69" font-family="Helvetica,sans-Serif" font-size="10.00" fill="grey"> xferDes_queue</text>
</g>
<!-- Node2&#45;&gt;Node16 -->
<g id="edge21_Node000016_Node000002" class="edge">
<title>Node2&#45;&gt;Node16</title>
<g id="a_edge21_Node000016_Node000002"><a xlink:title=" ">
<path fill="none" stroke="#9a32cd" stroke-dasharray="5,2" d="M928.48,-258.96C1016.71,-263 1170.58,-266.13 1301,-248.69 1314.42,-246.89 1328.71,-243.93 1341.97,-240.72"/>
<polygon fill="#9a32cd" stroke="#9a32cd" points="928.47,-255.46 918.32,-258.48 928.14,-262.45 928.47,-255.46"/>
</a>
</g>
<text text-anchor="middle" x="1133.5" y="-264.69" font-family="Helvetica,sans-Serif" font-size="10.00" fill="grey"> xferDes_queue</text>
</g>
<!-- Node3 -->
<g id="Node000003" class="node">
<title>Node3</title>
<g id="a_Node000003"><a xlink:href="classRealm_1_1UnfairMutex.html" target="_top" xlink:title=" ">
<polygon fill="white" stroke="#666666" points="622.5,-295.19 507.5,-295.19 507.5,-276.19 622.5,-276.19 622.5,-295.19"/>
<text text-anchor="middle" x="565" y="-283.19" font-family="Helvetica,sans-Serif" font-size="10.00">Realm::UnfairMutex</text>
</a>
</g>
</g>
<!-- Node3&#45;&gt;Node1 -->
<g id="edge13_Node000001_Node000003" class="edge">
<title>Node3&#45;&gt;Node1</title>
<g id="a_edge13_Node000001_Node000003"><a xlink:title=" ">
<path fill="none" stroke="#9a32cd" stroke-dasharray="5,2" d="M620.94,-297.03C716.96,-313.81 918.48,-335.24 1059,-254.69 1093.36,-234.99 1118.02,-192.5 1127.82,-173.37"/>
<polygon fill="#9a32cd" stroke="#9a32cd" points="621.33,-293.54 610.87,-295.22 620.09,-300.43 621.33,-293.54"/>
</a>
</g>
<text text-anchor="middle" x="855.5" y="-348.69" font-family="Helvetica,sans-Serif" font-size="10.00" fill="grey"> available_req_mutex</text>
<text text-anchor="middle" x="855.5" y="-337.69" font-family="Helvetica,sans-Serif" font-size="10.00" fill="grey">update_read_lock</text>
<text text-anchor="middle" x="855.5" y="-326.69" font-family="Helvetica,sans-Serif" font-size="10.00" fill="grey">update_write_lock</text>
<text text-anchor="middle" x="855.5" y="-315.69" font-family="Helvetica,sans-Serif" font-size="10.00" fill="grey">xd_lock</text>
</g>
<!-- Node3&#45;&gt;Node2 -->
<g id="edge2_Node000002_Node000003" class="edge">
<title>Node3&#45;&gt;Node2</title>
<g id="a_edge2_Node000002_Node000003"><a xlink:title=" ">
<path fill="none" stroke="#9a32cd" stroke-dasharray="5,2" d="M618.51,-274.1C632.87,-271.29 648.48,-268.55 663,-266.69 706.12,-261.14 755.04,-258.13 792.64,-256.51"/>
<polygon fill="#9a32cd" stroke="#9a32cd" points="617.41,-270.75 608.3,-276.15 618.79,-277.61 617.41,-270.75"/>
</a>
</g>
<text text-anchor="middle" x="711.5" y="-280.69" font-family="Helvetica,sans-Serif" font-size="10.00" fill="grey"> guid_lock</text>
<text text-anchor="middle" x="711.5" y="-269.69" font-family="Helvetica,sans-Serif" font-size="10.00" fill="grey">queues_lock</text>
</g>
<!-- Node4 -->
<g id="Node000004" class="node">
<title>Node4</title>
<g id="a_Node000004"><a xlink:href="classRealm_1_1noncopyable.html" target="_top" xlink:title=" ">
<polygon fill="white" stroke="#666666" points="396,-332.19 280,-332.19 280,-313.19 396,-313.19 396,-332.19"/>
<text text-anchor="middle" x="338" y="-320.19" font-family="Helvetica,sans-Serif" font-size="10.00">Realm::noncopyable</text>
</a>
</g>
</g>
<!-- Node4&#45;&gt;Node3 -->
<g id="edge3_Node000003_Node000004" class="edge">
<title>Node4&#45;&gt;Node3</title>
<g id="a_edge3_Node000003_Node000004"><a xlink:title=" ">
<path fill="none" stroke="#63b8ff" d="M406.3,-311.62C438.52,-306.32 476.68,-300.05 507.38,-295"/>
<polygon fill="#63b8ff" stroke="#63b8ff" points="405.37,-308.23 396.07,-313.3 406.5,-315.13 405.37,-308.23"/>
</a>
</g>
</g>
<!-- Node5 -->
<g id="Node000005" class="node">
<title>Node5</title>
<g id="a_Node000005"><a xlink:href="classRealm_1_1atomic.html" target="_top" xlink:title=" ">
<polygon fill="white" stroke="#666666" points="413,-295.19 263,-295.19 263,-276.19 413,-276.19 413,-295.19"/>
<text text-anchor="middle" x="338" y="-283.19" font-family="Helvetica,sans-Serif" font-size="10.00">Realm::atomic&lt; uint32_t &gt;</text>
</a>
</g>
</g>
<!-- Node5&#45;&gt;Node3 -->
<g id="edge4_Node000003_Node000005" class="edge">
<title>Node5&#45;&gt;Node3</title>
<g id="a_edge4_Node000003_Node000005"><a xlink:title=" ">
<path fill="none" stroke="#9a32cd" stroke-dasharray="5,2" d="M423.47,-285.69C451.44,-285.69 481.88,-285.69 507.25,-285.69"/>
<polygon fill="#9a32cd" stroke="#9a32cd" points="423.3,-282.19 413.3,-285.69 423.3,-289.19 423.3,-282.19"/>
</a>
</g>
<text text-anchor="middle" x="449" y="-288.69" font-family="Helvetica,sans-Serif" font-size="10.00" fill="grey"> state</text>
</g>
<!-- Node6 -->
<g id="Node000006" class="node">
<title>Node6</title>
<g id="a_Node000006"><a xlink:href="classRealm_1_1DoorbellList.html" target="_top" xlink:title=" ">
<polygon fill="white" stroke="#666666" points="394.5,-258.19 281.5,-258.19 281.5,-239.19 394.5,-239.19 394.5,-258.19"/>
<text text-anchor="middle" x="338" y="-246.19" font-family="Helvetica,sans-Serif" font-size="10.00">Realm::DoorbellList</text>
</a>
</g>
</g>
<!-- Node6&#45;&gt;Node3 -->
<g id="edge5_Node000003_Node000006" class="edge">
<title>Node6&#45;&gt;Node3</title>
<g id="a_edge5_Node000003_Node000006"><a xlink:title=" ">
<path fill="none" stroke="#9a32cd" stroke-dasharray="5,2" d="M404.52,-259.46C437.13,-264.82 476.17,-271.24 507.46,-276.39"/>
<polygon fill="#9a32cd" stroke="#9a32cd" points="405.05,-256 394.62,-257.83 403.92,-262.91 405.05,-256"/>
</a>
</g>
<text text-anchor="middle" x="449" y="-271.69" font-family="Helvetica,sans-Serif" font-size="10.00" fill="grey"> db_list</text>
</g>
<!-- Node7 -->
<g id="Node000007" class="node">
<title>Node7</title>
<g id="a_Node000007"><a xlink:href="classRealm_1_1atomic.html" target="_top" xlink:title=" ">
<polygon fill="white" stroke="#666666" points="152,-258.19 0,-258.19 0,-239.19 152,-239.19 152,-258.19"/>
<text text-anchor="middle" x="76" y="-246.19" font-family="Helvetica,sans-Serif" font-size="10.00">Realm::atomic&lt; uintptr_t &gt;</text>
</a>
</g>
</g>
<!-- Node7&#45;&gt;Node6 -->
<g id="edge6_Node000006_Node000007" class="edge">
<title>Node7&#45;&gt;Node6</title>
<g id="a_edge6_Node000006_Node000007"><a xlink:title=" ">
<path fill="none" stroke="#9a32cd" stroke-dasharray="5,2" d="M162.52,-248.69C201.61,-248.69 246.79,-248.69 281.38,-248.69"/>
<polygon fill="#9a32cd" stroke="#9a32cd" points="162.2,-245.19 152.2,-248.69 162.2,-252.19 162.2,-245.19"/>
</a>
</g>
<text text-anchor="middle" x="207.5" y="-251.69" font-family="Helvetica,sans-Serif" font-size="10.00" fill="grey"> head_or_count</text>
</g>
<!-- Node8 -->
<g id="Node000008" class="node">
<title>Node8</title>
<g id="a_Node000008"><a xlink:href="classRealm_1_1atomic.html" target="_top" xlink:title=" ">
<polygon fill="white" stroke="#666666" points="645,-241.19 485,-241.19 485,-222.19 645,-222.19 645,-241.19"/>
<text text-anchor="middle" x="565" y="-229.19" font-family="Helvetica,sans-Serif" font-size="10.00">Realm::atomic&lt; XferDesID &gt;</text>
</a>
</g>
</g>
<!-- Node8&#45;&gt;Node2 -->
<g id="edge7_Node000002_Node000008" class="edge">
<title>Node8&#45;&gt;Node2</title>
<g id="a_edge7_Node000002_Node000008"><a xlink:title=" ">
<path fill="none" stroke="#9a32cd" stroke-dasharray="5,2" d="M655.15,-227.98C688.19,-227.71 725.9,-228.68 760,-232.69 780.75,-235.12 803.56,-240.36 821.58,-245.11"/>
<polygon fill="#9a32cd" stroke="#9a32cd" points="655.02,-224.49 645.06,-228.11 655.1,-231.49 655.02,-224.49"/>
</a>
</g>
<text text-anchor="middle" x="711.5" y="-235.69" font-family="Helvetica,sans-Serif" font-size="10.00" fill="grey"> next_to_assign_idx</text>
</g>
<!-- Node9 -->
<g id="Node000009" class="node">
<title>Node9</title>
<g id="a_Node000009"><a xlink:href="classRealm_1_1atomic.html" target="_top" xlink:title=" ">
<polygon fill="white" stroke="#666666" points="921,-61.19 790,-61.19 790,-42.19 921,-42.19 921,-61.19"/>
<text text-anchor="middle" x="855.5" y="-49.19" font-family="Helvetica,sans-Serif" font-size="10.00">Realm::atomic&lt; bool &gt;</text>
</a>
</g>
</g>
<!-- Node9&#45;&gt;Node1 -->
<g id="edge8_Node000001_Node000009" class="edge">
<title>Node9&#45;&gt;Node1</title>
<g id="a_edge8_Node000001_Node000009"><a xlink:title=" ">
<path fill="none" stroke="#9a32cd" stroke-dasharray="5,2" d="M931.43,-42.89C971.53,-41.6 1020.46,-45.72 1059,-66.69 1095.75,-86.68 1119.62,-133.77 1128.55,-154.08"/>
<polygon fill="#9a32cd" stroke="#9a32cd" points="931.27,-39.4 921.43,-43.33 931.58,-46.39 931.27,-39.4"/>
</a>
</g>
<text text-anchor="middle" x="1005" y="-80.69" font-family="Helvetica,sans-Serif" font-size="10.00" fill="grey"> iteration_completed</text>
<text text-anchor="middle" x="1005" y="-69.69" font-family="Helvetica,sans-Serif" font-size="10.00" fill="grey">transfer_completed</text>
</g>
<!-- Node10 -->
<g id="Node000010" class="node">
<title>Node10</title>
<g id="a_Node000010"><a xlink:href="classRealm_1_1atomic.html" target="_top" xlink:title=" ">
<polygon fill="white" stroke="#666666" points="927.5,-24.19 783.5,-24.19 783.5,-5.19 927.5,-5.19 927.5,-24.19"/>
<text text-anchor="middle" x="855.5" y="-12.19" font-family="Helvetica,sans-Serif" font-size="10.00">Realm::atomic&lt; int64_t &gt;</text>
</a>
</g>
</g>
<!-- Node10&#45;&gt;Node1 -->
<g id="edge9_Node000001_Node000010" class="edge">
<title>Node10&#45;&gt;Node1</title>
<g id="a_edge9_Node000001_Node000010"><a xlink:title=" ">
<path fill="none" stroke="#9a32cd" stroke-dasharray="5,2" d="M909.13,-3.66C953.54,2.5 1016.48,3.44 1059,-28.69 1077.84,-42.93 1066.47,-57.54 1077,-78.69 1091.45,-107.71 1113.8,-138.93 1125.23,-154.19"/>
<polygon fill="#9a32cd" stroke="#9a32cd" points="908.47,-0.22 899.11,-5.18 909.52,-7.14 908.47,-0.22"/>
</a>
</g>
<text text-anchor="middle" x="1005" y="-31.69" font-family="Helvetica,sans-Serif" font-size="10.00" fill="grey"> bytes_write_pending</text>
</g>
<!-- Node11 -->
<g id="Node000011" class="node">
<title>Node11</title>
<g id="a_Node000011"><a xlink:href="structRealm_1_1XferDes_1_1ControlPortState.html" target="_top" xlink:title=" ">
<polygon fill="white" stroke="#666666" points="932.5,-216.69 778.5,-216.69 778.5,-186.69 932.5,-186.69 932.5,-216.69"/>
<text text-anchor="start" x="786.5" y="-204.69" font-family="Helvetica,sans-Serif" font-size="10.00">Realm::XferDes::ControlPort</text>
<text text-anchor="middle" x="855.5" y="-193.69" font-family="Helvetica,sans-Serif" font-size="10.00">State</text>
</a>
</g>
</g>
<!-- Node11&#45;&gt;Node1 -->
<g id="edge10_Node000001_Node000011" class="edge">
<title>Node11&#45;&gt;Node1</title>
<g id="a_edge10_Node000001_Node000011"><a xlink:title=" ">
<path fill="none" stroke="#9a32cd" stroke-dasharray="5,2" d="M942.54,-191.3C978.56,-186.78 1020.85,-181.25 1059,-175.69 1067.96,-174.38 1077.51,-172.89 1086.66,-171.42"/>
<polygon fill="#9a32cd" stroke="#9a32cd" points="942.04,-187.83 932.55,-192.55 942.91,-194.78 942.04,-187.83"/>
</a>
</g>
<text text-anchor="middle" x="1005" y="-203.69" font-family="Helvetica,sans-Serif" font-size="10.00" fill="grey"> input_control</text>
<text text-anchor="middle" x="1005" y="-192.69" font-family="Helvetica,sans-Serif" font-size="10.00" fill="grey">output_control</text>
</g>
<!-- Node12 -->
<g id="Node000012" class="node">
<title>Node12</title>
<g id="a_Node000012"><a xlink:href="classRealm_1_1ControlPort_1_1Decoder.html" target="_top" xlink:title=" ">
<polygon fill="white" stroke="#666666" points="619.5,-203.69 510.5,-203.69 510.5,-173.69 619.5,-173.69 619.5,-203.69"/>
<text text-anchor="start" x="518.5" y="-191.69" font-family="Helvetica,sans-Serif" font-size="10.00">Realm::ControlPort</text>
<text text-anchor="middle" x="565" y="-180.69" font-family="Helvetica,sans-Serif" font-size="10.00">::Decoder</text>
</a>
</g>
</g>
<!-- Node12&#45;&gt;Node11 -->
<g id="edge11_Node000011_Node000012" class="edge">
<title>Node12&#45;&gt;Node11</title>
<g id="a_edge11_Node000011_Node000012"><a xlink:title=" ">
<path fill="none" stroke="#9a32cd" stroke-dasharray="5,2" d="M629.84,-191.56C673.68,-193.54 732.08,-196.17 778.36,-198.26"/>
<polygon fill="#9a32cd" stroke="#9a32cd" points="629.74,-188.05 619.59,-191.1 629.42,-195.05 629.74,-188.05"/>
</a>
</g>
<text text-anchor="middle" x="711.5" y="-199.69" font-family="Helvetica,sans-Serif" font-size="10.00" fill="grey"> decoder</text>
</g>
<!-- Node13 -->
<g id="Node000013" class="node">
<title>Node13</title>
<g id="a_Node000013"><a xlink:href="classRealm_1_1Channel.html" target="_top" xlink:title=" ">
<polygon fill="white" stroke="#666666" points="902.5,-168.19 808.5,-168.19 808.5,-149.19 902.5,-149.19 902.5,-168.19"/>
<text text-anchor="middle" x="855.5" y="-156.19" font-family="Helvetica,sans-Serif" font-size="10.00">Realm::Channel</text>
</a>
</g>
</g>
<!-- Node13&#45;&gt;Node1 -->
<g id="edge12_Node000001_Node000013" class="edge">
<title>Node13&#45;&gt;Node1</title>
<g id="a_edge12_Node000001_Node000013"><a xlink:title=" ">
<path fill="none" stroke="#9a32cd" stroke-dasharray="5,2" d="M912.94,-159.71C964.22,-160.64 1038.92,-161.99 1086.61,-162.85"/>
<polygon fill="#9a32cd" stroke="#9a32cd" points="912.76,-156.2 902.7,-159.52 912.63,-163.2 912.76,-156.2"/>
</a>
</g>
<text text-anchor="middle" x="1005" y="-164.69" font-family="Helvetica,sans-Serif" font-size="10.00" fill="grey"> channel</text>
</g>
<!-- Node14 -->
<g id="Node000014" class="node">
<title>Node14</title>
<g id="a_Node000014"><a xlink:href="classRealm_1_1atomic.html" target="_top" xlink:title=" ">
<polygon fill="white" stroke="#666666" points="933,-106.19 778,-106.19 778,-87.19 933,-87.19 933,-106.19"/>
<text text-anchor="middle" x="855.5" y="-94.19" font-family="Helvetica,sans-Serif" font-size="10.00">Realm::atomic&lt; unsigned &gt;</text>
</a>
</g>
</g>
<!-- Node14&#45;&gt;Node1 -->
<g id="edge14_Node000001_Node000014" class="edge">
<title>Node14&#45;&gt;Node1</title>
<g id="a_edge14_Node000001_Node000014"><a xlink:title=" ">
<path fill="none" stroke="#9a32cd" stroke-dasharray="5,2" d="M943.21,-92.96C979.87,-93.95 1022.46,-98.56 1059,-111.69 1084.6,-120.88 1109.35,-141.6 1122.59,-153.93"/>
<polygon fill="#9a32cd" stroke="#9a32cd" points="943.1,-89.46 933.04,-92.78 942.97,-96.46 943.1,-89.46"/>
</a>
</g>
<text text-anchor="start" x="951" y="-147.69" font-family="Helvetica,sans-Serif" font-size="10.00" fill="grey"> nb_update_pre_bytes</text>
<text text-anchor="middle" x="1005" y="-136.69" font-family="Helvetica,sans-Serif" font-size="10.00" fill="grey">_total_calls_received</text>
<text text-anchor="middle" x="1005" y="-125.69" font-family="Helvetica,sans-Serif" font-size="10.00" fill="grey">progress_counter</text>
<text text-anchor="middle" x="1005" y="-114.69" font-family="Helvetica,sans-Serif" font-size="10.00" fill="grey">reference_count</text>
</g>
<!-- Node15&#45;&gt;Node1 -->
<g id="edge15_Node000001_Node000015" class="edge">
<title>Node15&#45;&gt;Node1</title>
<g id="a_edge15_Node000001_Node000015"><a xlink:title=" ">
<path fill="none" stroke="#9a32cd" stroke-dasharray="5,2" d="M1308.31,-103.88C1276.2,-105.34 1239.84,-109.59 1208,-119.69 1184.33,-127.2 1160.26,-143.63 1146.39,-154.15"/>
<polygon fill="#9a32cd" stroke="#9a32cd" points="1308.72,-107.37 1318.58,-103.5 1308.46,-100.37 1308.72,-107.37"/>
</a>
</g>
<text text-anchor="middle" x="1254.5" y="-122.69" font-family="Helvetica,sans-Serif" font-size="10.00" fill="grey"> xd_link</text>
</g>
<!-- Node16&#45;&gt;Node1 -->
<g id="edge17_Node000001_Node000016" class="edge">
<title>Node16&#45;&gt;Node1</title>
<g id="a_edge17_Node000001_Node000016"><a xlink:title=" ">
<path fill="none" stroke="#9a32cd" stroke-dasharray="5,2" d="M1314.16,-209.92C1281.14,-203.05 1242.59,-194.56 1208,-185.69 1193.55,-181.98 1177.67,-177.31 1164.39,-173.22"/>
<polygon fill="#9a32cd" stroke="#9a32cd" points="1313.73,-213.4 1324.23,-211.99 1315.14,-206.54 1313.73,-213.4"/>
</a>
</g>
<text text-anchor="middle" x="1254.5" y="-209.69" font-family="Helvetica,sans-Serif" font-size="10.00" fill="grey"> deferred_enqueue</text>
</g>
<!-- Node17 -->
<g id="Node000017" class="node">
<title>Node17</title>
<g id="a_Node000017"><a xlink:href="classRealm_1_1EventWaiter.html" target="_top" xlink:title=" ">
<polygon fill="white" stroke="#666666" points="1190,-69.19 1077,-69.19 1077,-50.19 1190,-50.19 1190,-69.19"/>
<text text-anchor="middle" x="1133.5" y="-57.19" font-family="Helvetica,sans-Serif" font-size="10.00">Realm::EventWaiter</text>
</a>
</g>
</g>
<!-- Node17&#45;&gt;Node16 -->
<g id="edge18_Node000016_Node000017" class="edge">
<title>Node17&#45;&gt;Node16</title>
<g id="a_edge18_Node000016_Node000017"><a xlink:title=" ">
<path fill="none" stroke="#63b8ff" d="M1155.98,-75.28C1170.2,-85.04 1189.56,-97.32 1208,-105.69 1247.31,-123.52 1263.86,-111.68 1301,-133.69 1335.68,-154.23 1367.1,-190.35 1383.19,-210.68"/>
<polygon fill="#63b8ff" stroke="#63b8ff" points="1157.64,-72.16 1147.44,-69.29 1153.62,-77.9 1157.64,-72.16"/>
</a>
</g>
</g>
<!-- Node18 -->
<g id="Node000018" class="node">
<title>Node18</title>
<g id="a_Node000018"><a xlink:href="structRealm_1_1IntrusiveListLink.html" target="_top" xlink:title=" ">
<polygon fill="white" stroke="#666666" points="1463.5,-62.69 1327.5,-62.69 1327.5,-32.69 1463.5,-32.69 1463.5,-62.69"/>
<text text-anchor="start" x="1335.5" y="-50.69" font-family="Helvetica,sans-Serif" font-size="10.00">Realm::IntrusiveListLink</text>
<text text-anchor="middle" x="1395.5" y="-39.69" font-family="Helvetica,sans-Serif" font-size="10.00">&lt; Realm::EventWaiter &gt;</text>
</a>
</g>
</g>
<!-- Node17&#45;&gt;Node18 -->
<g id="edge20_Node000018_Node000017" class="edge">
<title>Node17&#45;&gt;Node18</title>
<g id="a_edge20_Node000018_Node000017"><a xlink:title=" ">
<path fill="none" stroke="#9a32cd" stroke-dasharray="5,2" d="M1200.43,-56.64C1239.25,-54.85 1288.24,-52.59 1327.28,-50.79"/>
<polygon fill="#9a32cd" stroke="#9a32cd" points="1200.1,-53.15 1190.28,-57.11 1200.43,-60.15 1200.1,-53.15"/>
</a>
</g>
<text text-anchor="middle" x="1254.5" y="-58.69" font-family="Helvetica,sans-Serif" font-size="10.00" fill="grey"> next</text>
</g>
<!-- Node18&#45;&gt;Node17 -->
<g id="edge19_Node000017_Node000018" class="edge">
<title>Node18&#45;&gt;Node17</title>
<g id="a_edge19_Node000017_Node000018"><a xlink:title=" ">
<path fill="none" stroke="#9a32cd" stroke-dasharray="5,2" d="M1331.42,-30.55C1295.05,-23.16 1248.63,-17.98 1208,-26.69 1187.07,-31.17 1164.91,-42.08 1150.46,-50.14"/>
<polygon fill="#9a32cd" stroke="#9a32cd" points="1330.89,-34.02 1341.4,-32.68 1332.35,-27.17 1330.89,-34.02"/>
</a>
</g>
<text text-anchor="middle" x="1254.5" y="-29.69" font-family="Helvetica,sans-Serif" font-size="10.00" fill="grey"> ew_list_link</text>
</g>
</g>
</svg>
