<?xml version="1.0" encoding="UTF-8" standalone="no"?>
<!DOCTYPE svg PUBLIC "-//W3C//DTD SVG 1.1//EN"
 "http://www.w3.org/Graphics/SVG/1.1/DTD/svg11.dtd">
<!-- Generated by graphviz version 2.43.0 (0)
 -->
<!-- Title: Realm::Serialization::PolymorphicSerdezSubclass&lt; T1, T2 &gt; Pages: 1 -->
<svg width="191pt" height="193pt"
 viewBox="0.00 0.00 191.00 193.00" xmlns="http://www.w3.org/2000/svg" xmlns:xlink="http://www.w3.org/1999/xlink">
<g id="graph0" class="graph" transform="scale(1 1) rotate(0) translate(4 189)">
<title>Realm::Serialization::PolymorphicSerdezSubclass&lt; T1, T2 &gt;</title>
<!-- Node1 -->
<g id="Node000001" class="node">
<title>Node1</title>
<g id="a_Node000001"><a xlink:title=" ">
<polygon fill="#999999" stroke="#666666" points="171,-41 12,-41 12,0 171,0 171,-41"/>
<text text-anchor="start" x="20" y="-29" font-family="Helvetica,sans-Serif" font-size="10.00">Realm::Serialization</text>
<text text-anchor="start" x="20" y="-18" font-family="Helvetica,sans-Serif" font-size="10.00">::PolymorphicSerdezSubclass</text>
<text text-anchor="middle" x="91.5" y="-7" font-family="Helvetica,sans-Serif" font-size="10.00">&lt; T1, T2 &gt;</text>
</a>
</g>
</g>
<!-- Node2 -->
<g id="Node000002" class="node">
<title>Node2</title>
<g id="a_Node000002"><a xlink:href="classRealm_1_1Serialization_1_1PolymorphicSerdezIntfc.html" target="_top" xlink:title=" ">
<polygon fill="white" stroke="#666666" points="178,-108 5,-108 5,-78 178,-78 178,-108"/>
<text text-anchor="start" x="13" y="-96" font-family="Helvetica,sans-Serif" font-size="10.00">Realm::Serialization</text>
<text text-anchor="middle" x="91.5" y="-85" font-family="Helvetica,sans-Serif" font-size="10.00">::PolymorphicSerdezIntfc&lt; T1 &gt;</text>
</a>
</g>
</g>
<!-- Node2&#45;&gt;Node1 -->
<g id="edge1_Node000001_Node000002" class="edge">
<title>Node2&#45;&gt;Node1</title>
<g id="a_edge1_Node000001_Node000002"><a xlink:title=" ">
<path fill="none" stroke="#63b8ff" d="M91.5,-67.48C91.5,-58.85 91.5,-49.26 91.5,-41.09"/>
<polygon fill="#63b8ff" stroke="#63b8ff" points="88,-67.73 91.5,-77.73 95,-67.73 88,-67.73"/>
</a>
</g>
</g>
<!-- Node3 -->
<g id="Node000003" class="node">
<title>Node3</title>
<g id="a_Node000003"><a xlink:href="classRealm_1_1Serialization_1_1PolymorphicSerdezHelper.html" target="_top" xlink:title=" ">
<polygon fill="white" stroke="#666666" points="183,-185 0,-185 0,-155 183,-155 183,-185"/>
<text text-anchor="start" x="8" y="-173" font-family="Helvetica,sans-Serif" font-size="10.00">Realm::Serialization</text>
<text text-anchor="middle" x="91.5" y="-162" font-family="Helvetica,sans-Serif" font-size="10.00">::PolymorphicSerdezHelper&lt; T1 &gt;</text>
</a>
</g>
</g>
<!-- Node3&#45;&gt;Node2 -->
<g id="edge2_Node000002_Node000003" class="edge">
<title>Node3&#45;&gt;Node2</title>
<g id="a_edge2_Node000002_Node000003"><a xlink:title=" ">
<path fill="none" stroke="#9a32cd" stroke-dasharray="5,2" d="M91.5,-144.54C91.5,-132.45 91.5,-118.29 91.5,-108.04"/>
<polygon fill="#9a32cd" stroke="#9a32cd" points="88,-144.89 91.5,-154.89 95,-144.89 88,-144.89"/>
</a>
</g>
<text text-anchor="middle" x="101" y="-129" font-family="Helvetica,sans-Serif" font-size="10.00" fill="grey"> tag</text>
</g>
</g>
</svg>
