<?xml version="1.0" encoding="UTF-8" standalone="no"?>
<!DOCTYPE svg PUBLIC "-//W3C//DTD SVG 1.1//EN"
 "http://www.w3.org/Graphics/SVG/1.1/DTD/svg11.dtd">
<!-- Generated by graphviz version 2.43.0 (0)
 -->
<!-- Title: Realm::StructuredTransform&lt; N, T, N2, T2 &gt; Pages: 1 -->
<svg width="232pt" height="181pt"
 viewBox="0.00 0.00 232.00 181.00" xmlns="http://www.w3.org/2000/svg" xmlns:xlink="http://www.w3.org/1999/xlink">
<g id="graph0" class="graph" transform="scale(1 1) rotate(0) translate(4 177)">
<title>Realm::StructuredTransform&lt; N, T, N2, T2 &gt;</title>
<!-- Node1 -->
<g id="Node000001" class="node">
<title>Node1</title>
<g id="a_Node000001"><a xlink:title=" ">
<polygon fill="#999999" stroke="#666666" points="160,-30 7,-30 7,0 160,0 160,-30"/>
<text text-anchor="start" x="15" y="-18" font-family="Helvetica,sans-Serif" font-size="10.00">Realm::StructuredTransform</text>
<text text-anchor="middle" x="83.5" y="-7" font-family="Helvetica,sans-Serif" font-size="10.00">&lt; N, T, N2, T2 &gt;</text>
</a>
</g>
</g>
<!-- Node2 -->
<g id="Node000002" class="node">
<title>Node2</title>
<g id="a_Node000002"><a xlink:href="structRealm_1_1Matrix.html" target="_top" xlink:title=" ">
<polygon fill="white" stroke="#666666" points="224,-107 97,-107 97,-77 224,-77 224,-107"/>
<text text-anchor="start" x="105" y="-95" font-family="Helvetica,sans-Serif" font-size="10.00">Realm::Matrix&lt; N, N2,</text>
<text text-anchor="middle" x="160.5" y="-84" font-family="Helvetica,sans-Serif" font-size="10.00"> T2 &gt;</text>
</a>
</g>
</g>
<!-- Node2&#45;&gt;Node1 -->
<g id="edge1_Node000001_Node000002" class="edge">
<title>Node2&#45;&gt;Node1</title>
<g id="a_edge1_Node000001_Node000002"><a xlink:title=" ">
<path fill="none" stroke="#9a32cd" stroke-dasharray="5,2" d="M138.75,-69.82C125.68,-57.08 109.41,-41.24 97.92,-30.04"/>
<polygon fill="#9a32cd" stroke="#9a32cd" points="136.41,-72.42 146.02,-76.89 141.3,-67.41 136.41,-72.42"/>
</a>
</g>
<text text-anchor="middle" x="171" y="-51" font-family="Helvetica,sans-Serif" font-size="10.00" fill="grey"> transform_matrix</text>
</g>
<!-- Node3 -->
<g id="Node000003" class="node">
<title>Node3</title>
<g id="a_Node000003"><a xlink:href="structRealm_1_1Point.html" target="_top" xlink:title=" ">
<polygon fill="white" stroke="#666666" points="127,-173 0,-173 0,-154 127,-154 127,-173"/>
<text text-anchor="middle" x="63.5" y="-161" font-family="Helvetica,sans-Serif" font-size="10.00">Realm::Point&lt; N, T2 &gt;</text>
</a>
</g>
</g>
<!-- Node3&#45;&gt;Node1 -->
<g id="edge3_Node000001_Node000003" class="edge">
<title>Node3&#45;&gt;Node1</title>
<g id="a_edge3_Node000001_Node000003"><a xlink:title=" ">
<path fill="none" stroke="#9a32cd" stroke-dasharray="5,2" d="M59.33,-143.92C56.09,-126.47 52.86,-99.72 57.5,-77 60.96,-60.08 69.29,-42.05 75.6,-30.01"/>
<polygon fill="#9a32cd" stroke="#9a32cd" points="55.94,-144.81 61.38,-153.9 62.8,-143.41 55.94,-144.81"/>
</a>
</g>
<text text-anchor="middle" x="73" y="-89.5" font-family="Helvetica,sans-Serif" font-size="10.00" fill="grey"> offset</text>
</g>
<!-- Node3&#45;&gt;Node2 -->
<g id="edge2_Node000002_Node000003" class="edge">
<title>Node3&#45;&gt;Node2</title>
<g id="a_edge2_Node000002_Node000003"><a xlink:title=" ">
<path fill="none" stroke="#9a32cd" stroke-dasharray="5,2" d="M83.91,-147.88C100.65,-135.88 124.21,-119 140.77,-107.14"/>
<polygon fill="#9a32cd" stroke="#9a32cd" points="81.48,-145.31 75.39,-153.98 85.56,-151 81.48,-145.31"/>
</a>
</g>
<text text-anchor="middle" x="128" y="-128" font-family="Helvetica,sans-Serif" font-size="10.00" fill="grey"> rows</text>
</g>
</g>
</svg>
