<?xml version="1.0" encoding="UTF-8" standalone="no"?>
<!DOCTYPE svg PUBLIC "-//W3C//DTD SVG 1.1//EN"
 "http://www.w3.org/Graphics/SVG/1.1/DTD/svg11.dtd">
<!-- Generated by graphviz version 2.43.0 (0)
 -->
<!-- Title: PRealm::MultiAffineAccessor&lt; FT, N, T &gt; Pages: 1 -->
<svg width="284pt" height="182pt"
 viewBox="0.00 0.00 284.00 182.00" xmlns="http://www.w3.org/2000/svg" xmlns:xlink="http://www.w3.org/1999/xlink">
<g id="graph0" class="graph" transform="scale(1 1) rotate(0) translate(4 178)">
<title>PRealm::MultiAffineAccessor&lt; FT, N, T &gt;</title>
<!-- Node1 -->
<g id="Node000001" class="node">
<title>Node1</title>
<g id="a_Node000001"><a xlink:title=" ">
<polygon fill="#999999" stroke="#666666" points="223,-30 66,-30 66,0 223,0 223,-30"/>
<text text-anchor="start" x="74" y="-18" font-family="Helvetica,sans-Serif" font-size="10.00">PRealm::MultiAffineAccessor</text>
<text text-anchor="middle" x="144.5" y="-7" font-family="Helvetica,sans-Serif" font-size="10.00">&lt; FT, N, T &gt;</text>
</a>
</g>
</g>
<!-- Node2 -->
<g id="Node000002" class="node">
<title>Node2</title>
<g id="a_Node000002"><a xlink:href="classRealm_1_1MultiAffineAccessor.html" target="_top" xlink:title=" ">
<polygon fill="white" stroke="#666666" points="220,-97 69,-97 69,-67 220,-67 220,-97"/>
<text text-anchor="start" x="77" y="-85" font-family="Helvetica,sans-Serif" font-size="10.00">Realm::MultiAffineAccessor</text>
<text text-anchor="middle" x="144.5" y="-74" font-family="Helvetica,sans-Serif" font-size="10.00">&lt; FT, N, T &gt;</text>
</a>
</g>
</g>
<!-- Node2&#45;&gt;Node1 -->
<g id="edge1_Node000001_Node000002" class="edge">
<title>Node2&#45;&gt;Node1</title>
<g id="a_edge1_Node000001_Node000002"><a xlink:title=" ">
<path fill="none" stroke="#63b8ff" d="M144.5,-56.61C144.5,-47.65 144.5,-37.82 144.5,-30.08"/>
<polygon fill="#63b8ff" stroke="#63b8ff" points="141,-56.9 144.5,-66.9 148,-56.9 141,-56.9"/>
</a>
</g>
</g>
<!-- Node3 -->
<g id="Node000003" class="node">
<title>Node3</title>
<g id="a_Node000003"><a xlink:href="structRealm_1_1Point.html" target="_top" xlink:title=" ">
<polygon fill="white" stroke="#666666" points="143,-168.5 0,-168.5 0,-149.5 143,-149.5 143,-168.5"/>
<text text-anchor="middle" x="71.5" y="-156.5" font-family="Helvetica,sans-Serif" font-size="10.00">Realm::Point&lt; N, size_t &gt;</text>
</a>
</g>
</g>
<!-- Node3&#45;&gt;Node2 -->
<g id="edge2_Node000002_Node000003" class="edge">
<title>Node3&#45;&gt;Node2</title>
<g id="a_edge2_Node000002_Node000003"><a xlink:title=" ">
<path fill="none" stroke="#9a32cd" stroke-dasharray="5,2" d="M87.16,-141.91C100.13,-128.59 118.36,-109.85 130.76,-97.11"/>
<polygon fill="#9a32cd" stroke="#9a32cd" points="84.34,-139.79 79.87,-149.4 89.36,-144.67 84.34,-139.79"/>
</a>
</g>
<text text-anchor="middle" x="146.5" y="-118" font-family="Helvetica,sans-Serif" font-size="10.00" fill="grey"> piece_strides</text>
</g>
<!-- Node4 -->
<g id="Node000004" class="node">
<title>Node4</title>
<g id="a_Node000004"><a xlink:href="structRealm_1_1PieceLookup_1_1Instruction.html" target="_top" xlink:title=" ">
<polygon fill="white" stroke="#666666" points="276,-174 161,-174 161,-144 276,-144 276,-174"/>
<text text-anchor="start" x="169" y="-162" font-family="Helvetica,sans-Serif" font-size="10.00">Realm::PieceLookup</text>
<text text-anchor="middle" x="218.5" y="-151" font-family="Helvetica,sans-Serif" font-size="10.00">::Instruction</text>
</a>
</g>
</g>
<!-- Node4&#45;&gt;Node2 -->
<g id="edge3_Node000002_Node000004" class="edge">
<title>Node4&#45;&gt;Node2</title>
<g id="a_edge3_Node000002_Node000004"><a xlink:title=" ">
<path fill="none" stroke="#9a32cd" stroke-dasharray="5,2" d="M202.26,-135.49C196.91,-128.64 190.73,-121.26 184.5,-115 178.23,-108.69 170.75,-102.43 163.97,-97.14"/>
<polygon fill="#9a32cd" stroke="#9a32cd" points="199.7,-137.92 208.53,-143.78 205.29,-133.69 199.7,-137.92"/>
</a>
</g>
<text text-anchor="middle" x="218" y="-118" font-family="Helvetica,sans-Serif" font-size="10.00" fill="grey"> start_inst</text>
</g>
</g>
</svg>
