<?xml version="1.0" encoding="UTF-8" standalone="no"?>
<!DOCTYPE svg PUBLIC "-//W3C//DTD SVG 1.1//EN"
 "http://www.w3.org/Graphics/SVG/1.1/DTD/svg11.dtd">
<!-- Generated by graphviz version 2.43.0 (0)
 -->
<!-- Title: Realm::SparsityMapImplWrapper Pages: 1 -->
<svg width="1701pt" height="267pt"
 viewBox="0.00 0.00 1701.00 267.00" xmlns="http://www.w3.org/2000/svg" xmlns:xlink="http://www.w3.org/1999/xlink">
<g id="graph0" class="graph" transform="scale(1 1) rotate(0) translate(4 263)">
<title>Realm::SparsityMapImplWrapper</title>
<!-- Node1 -->
<g id="Node000001" class="node">
<title>Node1</title>
<g id="a_Node000001"><a xlink:title=" ">
<polygon fill="#999999" stroke="#666666" points="1693,-152.5 1515,-152.5 1515,-133.5 1693,-133.5 1693,-152.5"/>
<text text-anchor="middle" x="1604" y="-140.5" font-family="Helvetica,sans-Serif" font-size="10.00">Realm::SparsityMapImplWrapper</text>
</a>
</g>
</g>
<!-- Node1&#45;&gt;Node1 -->
<g id="edge3_Node000001_Node000001" class="edge">
<title>Node1&#45;&gt;Node1</title>
<g id="a_edge3_Node000001_Node000001"><a xlink:title=" ">
<path fill="none" stroke="#9a32cd" stroke-dasharray="5,2" d="M1573.76,-161.32C1575.02,-166.51 1585.1,-170.5 1604,-170.5 1632.79,-170.5 1641.12,-161.23 1628.97,-152.58"/>
<polygon fill="#9a32cd" stroke="#9a32cd" points="1576.86,-162.95 1579.03,-152.58 1570.87,-159.34 1576.86,-162.95"/>
</a>
</g>
<text text-anchor="middle" x="1604" y="-173.5" font-family="Helvetica,sans-Serif" font-size="10.00" fill="grey"> next_free</text>
</g>
<!-- Node2 -->
<g id="Node000002" class="node">
<title>Node2</title>
<g id="a_Node000002"><a xlink:href="classRealm_1_1ID.html" target="_top" xlink:title=" ">
<polygon fill="white" stroke="#666666" points="1295.5,-257.5 1230.5,-257.5 1230.5,-238.5 1295.5,-238.5 1295.5,-257.5"/>
<text text-anchor="middle" x="1263" y="-245.5" font-family="Helvetica,sans-Serif" font-size="10.00">Realm::ID</text>
</a>
</g>
</g>
<!-- Node2&#45;&gt;Node1 -->
<g id="edge1_Node000001_Node000002" class="edge">
<title>Node2&#45;&gt;Node1</title>
<g id="a_edge1_Node000001_Node000002"><a xlink:title=" ">
<path fill="none" stroke="#9a32cd" stroke-dasharray="5,2" d="M1306.01,-243.84C1353.53,-238.19 1432.69,-225.94 1497,-202 1531.94,-189 1569.24,-165.77 1588.93,-152.67"/>
<polygon fill="#9a32cd" stroke="#9a32cd" points="1305.32,-240.39 1295.78,-245.01 1306.12,-247.35 1305.32,-240.39"/>
</a>
</g>
<text text-anchor="middle" x="1441" y="-233" font-family="Helvetica,sans-Serif" font-size="10.00" fill="grey"> me</text>
</g>
<!-- Node3 -->
<g id="Node000003" class="node">
<title>Node3</title>
<g id="a_Node000003"><a xlink:href="classRealm_1_1bitpack.html" target="_top" xlink:title=" ">
<polygon fill="white" stroke="#666666" points="1087.5,-257.5 941.5,-257.5 941.5,-238.5 1087.5,-238.5 1087.5,-257.5"/>
<text text-anchor="middle" x="1014.5" y="-245.5" font-family="Helvetica,sans-Serif" font-size="10.00">Realm::bitpack&lt; IDType &gt;</text>
</a>
</g>
</g>
<!-- Node3&#45;&gt;Node2 -->
<g id="edge2_Node000002_Node000003" class="edge">
<title>Node3&#45;&gt;Node2</title>
<g id="a_edge2_Node000002_Node000003"><a xlink:title=" ">
<path fill="none" stroke="#9a32cd" stroke-dasharray="5,2" d="M1097.94,-248C1143.34,-248 1197.08,-248 1230.36,-248"/>
<polygon fill="#9a32cd" stroke="#9a32cd" points="1097.79,-244.5 1087.79,-248 1097.79,-251.5 1097.79,-244.5"/>
</a>
</g>
<text text-anchor="middle" x="1128.5" y="-251" font-family="Helvetica,sans-Serif" font-size="10.00" fill="grey"> id</text>
</g>
<!-- Node4 -->
<g id="Node000004" class="node">
<title>Node4</title>
<g id="a_Node000004"><a xlink:href="classRealm_1_1atomic.html" target="_top" xlink:title=" ">
<polygon fill="white" stroke="#666666" points="1359.5,-220 1166.5,-220 1166.5,-190 1359.5,-190 1359.5,-220"/>
<text text-anchor="start" x="1174.5" y="-208" font-family="Helvetica,sans-Serif" font-size="10.00">Realm::atomic&lt; DynamicTemplates</text>
<text text-anchor="middle" x="1263" y="-197" font-family="Helvetica,sans-Serif" font-size="10.00">::TagType &gt;</text>
</a>
</g>
</g>
<!-- Node4&#45;&gt;Node1 -->
<g id="edge4_Node000001_Node000004" class="edge">
<title>Node4&#45;&gt;Node1</title>
<g id="a_edge4_Node000001_Node000004"><a xlink:title=" ">
<path fill="none" stroke="#9a32cd" stroke-dasharray="5,2" d="M1369.6,-190.68C1409.64,-184.72 1455.56,-177.27 1497,-169 1520.6,-164.29 1546.87,-157.86 1567.36,-152.57"/>
<polygon fill="#9a32cd" stroke="#9a32cd" points="1368.94,-187.24 1359.56,-192.16 1369.96,-194.16 1368.94,-187.24"/>
</a>
</g>
<text text-anchor="middle" x="1441" y="-190" font-family="Helvetica,sans-Serif" font-size="10.00" fill="grey"> type_tag</text>
</g>
<!-- Node5 -->
<g id="Node000005" class="node">
<title>Node5</title>
<g id="a_Node000005"><a xlink:href="classRealm_1_1atomic.html" target="_top" xlink:title=" ">
<polygon fill="white" stroke="#666666" points="1333,-171.5 1193,-171.5 1193,-152.5 1333,-152.5 1333,-171.5"/>
<text text-anchor="middle" x="1263" y="-159.5" font-family="Helvetica,sans-Serif" font-size="10.00">Realm::atomic&lt; void * &gt;</text>
</a>
</g>
</g>
<!-- Node5&#45;&gt;Node1 -->
<g id="edge5_Node000001_Node000005" class="edge">
<title>Node5&#45;&gt;Node1</title>
<g id="a_edge5_Node000001_Node000005"><a xlink:title=" ">
<path fill="none" stroke="#9a32cd" stroke-dasharray="5,2" d="M1343.07,-157.57C1394.48,-154.69 1461.58,-150.93 1514.73,-147.95"/>
<polygon fill="#9a32cd" stroke="#9a32cd" points="1342.8,-154.08 1333.01,-158.13 1343.19,-161.07 1342.8,-154.08"/>
</a>
</g>
<text text-anchor="middle" x="1441" y="-157" font-family="Helvetica,sans-Serif" font-size="10.00" fill="grey"> map_impl</text>
</g>
<!-- Node6 -->
<g id="Node000006" class="node">
<title>Node6</title>
<g id="a_Node000006"><a xlink:href="classRealm_1_1atomic.html" target="_top" xlink:title=" ">
<polygon fill="white" stroke="#666666" points="1340.5,-134.5 1185.5,-134.5 1185.5,-115.5 1340.5,-115.5 1340.5,-134.5"/>
<text text-anchor="middle" x="1263" y="-122.5" font-family="Helvetica,sans-Serif" font-size="10.00">Realm::atomic&lt; unsigned &gt;</text>
</a>
</g>
</g>
<!-- Node6&#45;&gt;Node1 -->
<g id="edge6_Node000001_Node000006" class="edge">
<title>Node6&#45;&gt;Node1</title>
<g id="a_edge6_Node000001_Node000006"><a xlink:title=" ">
<path fill="none" stroke="#9a32cd" stroke-dasharray="5,2" d="M1350.77,-124.14C1394.65,-124.3 1448.71,-125.41 1497,-129 1510.98,-130.04 1525.93,-131.68 1540.07,-133.49"/>
<polygon fill="#9a32cd" stroke="#9a32cd" points="1350.72,-120.64 1340.71,-124.12 1350.7,-127.64 1350.72,-120.64"/>
</a>
</g>
<text text-anchor="middle" x="1441" y="-132" font-family="Helvetica,sans-Serif" font-size="10.00" fill="grey"> references</text>
</g>
<!-- Node7 -->
<g id="Node000007" class="node">
<title>Node7</title>
<g id="a_Node000007"><a xlink:href="classRealm_1_1NodeSet.html" target="_top" xlink:title=" ">
<polygon fill="white" stroke="#666666" points="1310.5,-97.5 1215.5,-97.5 1215.5,-78.5 1310.5,-78.5 1310.5,-97.5"/>
<text text-anchor="middle" x="1263" y="-85.5" font-family="Helvetica,sans-Serif" font-size="10.00">Realm::NodeSet</text>
</a>
</g>
</g>
<!-- Node7&#45;&gt;Node1 -->
<g id="edge7_Node000001_Node000007" class="edge">
<title>Node7&#45;&gt;Node1</title>
<g id="a_edge7_Node000001_Node000007"><a xlink:title=" ">
<path fill="none" stroke="#9a32cd" stroke-dasharray="5,2" d="M1320.94,-89.63C1368.43,-91.82 1437.67,-96.96 1497,-109 1525.6,-114.8 1557.34,-125.59 1578.57,-133.46"/>
<polygon fill="#9a32cd" stroke="#9a32cd" points="1321,-86.13 1310.85,-89.19 1320.69,-93.12 1321,-86.13"/>
</a>
</g>
<text text-anchor="middle" x="1441" y="-112" font-family="Helvetica,sans-Serif" font-size="10.00" fill="grey"> subscribers</text>
</g>
<!-- Node8 -->
<g id="Node000008" class="node">
<title>Node8</title>
<g id="a_Node000008"><a xlink:href="unionRealm_1_1NodeSet_1_1EncodingUnion.html" target="_top" xlink:title=" ">
<polygon fill="white" stroke="#666666" points="1087.5,-107 941.5,-107 941.5,-77 1087.5,-77 1087.5,-107"/>
<text text-anchor="start" x="949.5" y="-95" font-family="Helvetica,sans-Serif" font-size="10.00">Realm::NodeSet::Encoding</text>
<text text-anchor="middle" x="1014.5" y="-84" font-family="Helvetica,sans-Serif" font-size="10.00">Union</text>
</a>
</g>
</g>
<!-- Node8&#45;&gt;Node7 -->
<g id="edge8_Node000007_Node000008" class="edge">
<title>Node8&#45;&gt;Node7</title>
<g id="a_edge8_Node000007_Node000008"><a xlink:title=" ">
<path fill="none" stroke="#9a32cd" stroke-dasharray="5,2" d="M1098.1,-90.66C1137.16,-90.03 1182.36,-89.29 1215.38,-88.76"/>
<polygon fill="#9a32cd" stroke="#9a32cd" points="1097.73,-87.17 1087.79,-90.83 1097.85,-94.16 1097.73,-87.17"/>
</a>
</g>
<text text-anchor="middle" x="1128.5" y="-94" font-family="Helvetica,sans-Serif" font-size="10.00" fill="grey"> data</text>
</g>
<!-- Node9 -->
<g id="Node000009" class="node">
<title>Node9</title>
<g id="a_Node000009"><a xlink:href="classRealm_1_1NodeSetBitmask.html" target="_top" xlink:title=" ">
<polygon fill="white" stroke="#666666" points="852,-101.5 716,-101.5 716,-82.5 852,-82.5 852,-101.5"/>
<text text-anchor="middle" x="784" y="-89.5" font-family="Helvetica,sans-Serif" font-size="10.00">Realm::NodeSetBitmask</text>
</a>
</g>
</g>
<!-- Node9&#45;&gt;Node8 -->
<g id="edge9_Node000008_Node000009" class="edge">
<title>Node9&#45;&gt;Node8</title>
<g id="a_edge9_Node000008_Node000009"><a xlink:title=" ">
<path fill="none" stroke="#9a32cd" stroke-dasharray="5,2" d="M862.05,-92C887.66,-92 916.07,-92 941.3,-92"/>
<polygon fill="#9a32cd" stroke="#9a32cd" points="862.01,-88.5 852.01,-92 862.01,-95.5 862.01,-88.5"/>
</a>
</g>
<text text-anchor="middle" x="891.5" y="-95" font-family="Helvetica,sans-Serif" font-size="10.00" fill="grey"> bitmask</text>
</g>
<!-- Node10 -->
<g id="Node000010" class="node">
<title>Node10</title>
<g id="a_Node000010"><a xlink:href="classRealm_1_1UnfairMutex.html" target="_top" xlink:title=" ">
<polygon fill="white" stroke="#666666" points="600,-101.5 485,-101.5 485,-82.5 600,-82.5 600,-101.5"/>
<text text-anchor="middle" x="542.5" y="-89.5" font-family="Helvetica,sans-Serif" font-size="10.00">Realm::UnfairMutex</text>
</a>
</g>
</g>
<!-- Node10&#45;&gt;Node9 -->
<g id="edge10_Node000009_Node000010" class="edge">
<title>Node10&#45;&gt;Node9</title>
<g id="a_edge10_Node000009_Node000010"><a xlink:title=" ">
<path fill="none" stroke="#9a32cd" stroke-dasharray="5,2" d="M610.65,-92C643.43,-92 682.77,-92 715.58,-92"/>
<polygon fill="#9a32cd" stroke="#9a32cd" points="610.26,-88.5 600.26,-92 610.26,-95.5 610.26,-88.5"/>
</a>
</g>
<text text-anchor="middle" x="658" y="-95" font-family="Helvetica,sans-Serif" font-size="10.00" fill="grey"> free_list_mutex</text>
</g>
<!-- Node11 -->
<g id="Node000011" class="node">
<title>Node11</title>
<g id="a_Node000011"><a xlink:href="classRealm_1_1noncopyable.html" target="_top" xlink:title=" ">
<polygon fill="white" stroke="#666666" points="396,-138.5 280,-138.5 280,-119.5 396,-119.5 396,-138.5"/>
<text text-anchor="middle" x="338" y="-126.5" font-family="Helvetica,sans-Serif" font-size="10.00">Realm::noncopyable</text>
</a>
</g>
</g>
<!-- Node11&#45;&gt;Node10 -->
<g id="edge11_Node000010_Node000011" class="edge">
<title>Node11&#45;&gt;Node10</title>
<g id="a_edge11_Node000010_Node000011"><a xlink:title=" ">
<path fill="none" stroke="#63b8ff" d="M406.17,-117.83C425.8,-114.46 447.28,-110.68 467,-107 476.08,-105.31 485.76,-103.42 495.04,-101.57"/>
<polygon fill="#63b8ff" stroke="#63b8ff" points="405.36,-114.41 396.09,-119.55 406.54,-121.31 405.36,-114.41"/>
</a>
</g>
</g>
<!-- Node12 -->
<g id="Node000012" class="node">
<title>Node12</title>
<g id="a_Node000012"><a xlink:href="classRealm_1_1atomic.html" target="_top" xlink:title=" ">
<polygon fill="white" stroke="#666666" points="413,-101.5 263,-101.5 263,-82.5 413,-82.5 413,-101.5"/>
<text text-anchor="middle" x="338" y="-89.5" font-family="Helvetica,sans-Serif" font-size="10.00">Realm::atomic&lt; uint32_t &gt;</text>
</a>
</g>
</g>
<!-- Node12&#45;&gt;Node10 -->
<g id="edge12_Node000010_Node000012" class="edge">
<title>Node12&#45;&gt;Node10</title>
<g id="a_edge12_Node000010_Node000012"><a xlink:title=" ">
<path fill="none" stroke="#9a32cd" stroke-dasharray="5,2" d="M423.32,-92C444,-92 465.66,-92 484.7,-92"/>
<polygon fill="#9a32cd" stroke="#9a32cd" points="423.25,-88.5 413.25,-92 423.25,-95.5 423.25,-88.5"/>
</a>
</g>
<text text-anchor="middle" x="449" y="-95" font-family="Helvetica,sans-Serif" font-size="10.00" fill="grey"> state</text>
</g>
<!-- Node13 -->
<g id="Node000013" class="node">
<title>Node13</title>
<g id="a_Node000013"><a xlink:href="classRealm_1_1DoorbellList.html" target="_top" xlink:title=" ">
<polygon fill="white" stroke="#666666" points="394.5,-64.5 281.5,-64.5 281.5,-45.5 394.5,-45.5 394.5,-64.5"/>
<text text-anchor="middle" x="338" y="-52.5" font-family="Helvetica,sans-Serif" font-size="10.00">Realm::DoorbellList</text>
</a>
</g>
</g>
<!-- Node13&#45;&gt;Node10 -->
<g id="edge13_Node000010_Node000013" class="edge">
<title>Node13&#45;&gt;Node10</title>
<g id="a_edge13_Node000010_Node000013"><a xlink:title=" ">
<path fill="none" stroke="#9a32cd" stroke-dasharray="5,2" d="M404.49,-65.89C424.57,-69.32 446.71,-73.21 467,-77 476.08,-78.69 485.76,-80.58 495.04,-82.43"/>
<polygon fill="#9a32cd" stroke="#9a32cd" points="404.95,-62.42 394.51,-64.19 403.78,-69.32 404.95,-62.42"/>
</a>
</g>
<text text-anchor="middle" x="449" y="-80" font-family="Helvetica,sans-Serif" font-size="10.00" fill="grey"> db_list</text>
</g>
<!-- Node14 -->
<g id="Node000014" class="node">
<title>Node14</title>
<g id="a_Node000014"><a xlink:href="classRealm_1_1atomic.html" target="_top" xlink:title=" ">
<polygon fill="white" stroke="#666666" points="152,-64.5 0,-64.5 0,-45.5 152,-45.5 152,-64.5"/>
<text text-anchor="middle" x="76" y="-52.5" font-family="Helvetica,sans-Serif" font-size="10.00">Realm::atomic&lt; uintptr_t &gt;</text>
</a>
</g>
</g>
<!-- Node14&#45;&gt;Node13 -->
<g id="edge14_Node000013_Node000014" class="edge">
<title>Node14&#45;&gt;Node13</title>
<g id="a_edge14_Node000013_Node000014"><a xlink:title=" ">
<path fill="none" stroke="#9a32cd" stroke-dasharray="5,2" d="M162.52,-55C201.61,-55 246.79,-55 281.38,-55"/>
<polygon fill="#9a32cd" stroke="#9a32cd" points="162.2,-51.5 152.2,-55 162.2,-58.5 162.2,-51.5"/>
</a>
</g>
<text text-anchor="middle" x="207.5" y="-58" font-family="Helvetica,sans-Serif" font-size="10.00" fill="grey"> head_or_count</text>
</g>
<!-- Node15 -->
<g id="Node000015" class="node">
<title>Node15</title>
<g id="a_Node000015"><a xlink:href="classRealm_1_1ActiveMessageHandlerReg.html" target="_top" xlink:title=" ">
<polygon fill="white" stroke="#666666" points="1367,-56.5 1159,-56.5 1159,-15.5 1367,-15.5 1367,-56.5"/>
<text text-anchor="start" x="1167" y="-44.5" font-family="Helvetica,sans-Serif" font-size="10.00">Realm::ActiveMessageHandler</text>
<text text-anchor="start" x="1167" y="-33.5" font-family="Helvetica,sans-Serif" font-size="10.00">Reg&lt; Realm::SparsityMapImplWrapper</text>
<text text-anchor="middle" x="1263" y="-22.5" font-family="Helvetica,sans-Serif" font-size="10.00">::UnsubscribeMessage &gt;</text>
</a>
</g>
</g>
<!-- Node15&#45;&gt;Node1 -->
<g id="edge15_Node000001_Node000015" class="edge">
<title>Node15&#45;&gt;Node1</title>
<g id="a_edge15_Node000001_Node000015"><a xlink:title=" ">
<path fill="none" stroke="#9a32cd" stroke-dasharray="5,2" d="M1377.37,-40.63C1416.32,-45.05 1459.52,-53.2 1497,-68 1536.63,-83.65 1575.52,-117.07 1593.16,-133.49"/>
<polygon fill="#9a32cd" stroke="#9a32cd" points="1377.35,-37.11 1367.04,-39.54 1376.61,-44.07 1377.35,-37.11"/>
</a>
</g>
<text text-anchor="start" x="1385" y="-82" font-family="Helvetica,sans-Serif" font-size="10.00" fill="grey"> unsubscribe_message</text>
<text text-anchor="middle" x="1441" y="-71" font-family="Helvetica,sans-Serif" font-size="10.00" fill="grey">_handler_reg</text>
</g>
<!-- Node16 -->
<g id="Node000016" class="node">
<title>Node16</title>
<g id="a_Node000016"><a xlink:href="classRealm_1_1ActiveMessageHandlerRegBase.html" target="_top" xlink:title=" ">
<polygon fill="white" stroke="#666666" points="1098,-30 931,-30 931,0 1098,0 1098,-30"/>
<text text-anchor="start" x="939" y="-18" font-family="Helvetica,sans-Serif" font-size="10.00">Realm::ActiveMessageHandler</text>
<text text-anchor="middle" x="1014.5" y="-7" font-family="Helvetica,sans-Serif" font-size="10.00">RegBase</text>
</a>
</g>
</g>
<!-- Node16&#45;&gt;Node15 -->
<g id="edge16_Node000015_Node000016" class="edge">
<title>Node16&#45;&gt;Node15</title>
<g id="a_edge16_Node000015_Node000016"><a xlink:title=" ">
<path fill="none" stroke="#63b8ff" d="M1108.41,-22.92C1124.89,-24.32 1142.13,-25.79 1158.87,-27.21"/>
<polygon fill="#63b8ff" stroke="#63b8ff" points="1108.53,-19.41 1098.27,-22.05 1107.93,-26.39 1108.53,-19.41"/>
</a>
</g>
</g>
<!-- Node16&#45;&gt;Node16 -->
<g id="edge17_Node000016_Node000016" class="edge">
<title>Node16&#45;&gt;Node16</title>
<g id="a_edge17_Node000016_Node000016"><a xlink:title=" ">
<path fill="none" stroke="#9a32cd" stroke-dasharray="5,2" d="M994.55,-40.6C997.27,-44.97 1003.92,-48 1014.5,-48 1032.31,-48 1038.99,-39.41 1034.54,-30.28"/>
<polygon fill="#9a32cd" stroke="#9a32cd" points="998.04,-40.25 994.46,-30.28 991.04,-40.3 998.04,-40.25"/>
</a>
</g>
<text text-anchor="middle" x="1014.5" y="-51" font-family="Helvetica,sans-Serif" font-size="10.00" fill="grey"> next_handler</text>
</g>
</g>
</svg>
