<?xml version="1.0" encoding="UTF-8" standalone="no"?>
<!DOCTYPE svg PUBLIC "-//W3C//DTD SVG 1.1//EN"
 "http://www.w3.org/Graphics/SVG/1.1/DTD/svg11.dtd">
<!-- Generated by graphviz version 2.43.0 (0)
 -->
<!-- Title: Realm::AddressSplitChannel Pages: 1 -->
<svg width="163pt" height="214pt"
 viewBox="0.00 0.00 163.00 214.00" xmlns="http://www.w3.org/2000/svg" xmlns:xlink="http://www.w3.org/1999/xlink">
<g id="graph0" class="graph" transform="scale(1 1) rotate(0) translate(4 210)">
<title>Realm::AddressSplitChannel</title>
<!-- Node1 -->
<g id="Node000001" class="node">
<title>Node1</title>
<g id="a_Node000001"><a xlink:title=" ">
<polygon fill="#999999" stroke="#666666" points="155,-19 0,-19 0,0 155,0 155,-19"/>
<text text-anchor="middle" x="77.5" y="-7" font-family="Helvetica,sans-Serif" font-size="10.00">Realm::AddressSplitChannel</text>
</a>
</g>
</g>
<!-- Node2 -->
<g id="Node000002" class="node">
<title>Node2</title>
<g id="a_Node000002"><a xlink:href="classRealm_1_1SingleXDQChannel.html" target="_top" xlink:title=" ">
<polygon fill="white" stroke="#666666" points="155,-96 0,-96 0,-55 155,-55 155,-96"/>
<text text-anchor="start" x="8" y="-84" font-family="Helvetica,sans-Serif" font-size="10.00">Realm::SingleXDQChannel</text>
<text text-anchor="start" x="8" y="-73" font-family="Helvetica,sans-Serif" font-size="10.00">&lt; AddressSplitChannel,</text>
<text text-anchor="middle" x="77.5" y="-62" font-family="Helvetica,sans-Serif" font-size="10.00"> AddressSplitXferDesBase &gt;</text>
</a>
</g>
</g>
<!-- Node2&#45;&gt;Node1 -->
<g id="edge1_Node000001_Node000002" class="edge">
<title>Node2&#45;&gt;Node1</title>
<g id="a_edge1_Node000001_Node000002"><a xlink:title=" ">
<path fill="none" stroke="#63b8ff" d="M77.5,-44.74C77.5,-35.45 77.5,-25.9 77.5,-19.26"/>
<polygon fill="#63b8ff" stroke="#63b8ff" points="74,-44.95 77.5,-54.95 81,-44.95 74,-44.95"/>
</a>
</g>
</g>
<!-- Node3 -->
<g id="Node000003" class="node">
<title>Node3</title>
<g id="a_Node000003"><a xlink:href="classRealm_1_1LocalChannel.html" target="_top" xlink:title=" ">
<polygon fill="white" stroke="#666666" points="137,-151 18,-151 18,-132 137,-132 137,-151"/>
<text text-anchor="middle" x="77.5" y="-139" font-family="Helvetica,sans-Serif" font-size="10.00">Realm::LocalChannel</text>
</a>
</g>
</g>
<!-- Node3&#45;&gt;Node2 -->
<g id="edge2_Node000002_Node000003" class="edge">
<title>Node3&#45;&gt;Node2</title>
<g id="a_edge2_Node000002_Node000003"><a xlink:title=" ">
<path fill="none" stroke="#63b8ff" d="M77.5,-121.63C77.5,-113.56 77.5,-104.15 77.5,-96.01"/>
<polygon fill="#63b8ff" stroke="#63b8ff" points="74,-121.87 77.5,-131.87 81,-121.87 74,-121.87"/>
</a>
</g>
</g>
<!-- Node4 -->
<g id="Node000004" class="node">
<title>Node4</title>
<g id="a_Node000004"><a xlink:href="classRealm_1_1Channel.html" target="_top" xlink:title=" ">
<polygon fill="white" stroke="#666666" points="124.5,-206 30.5,-206 30.5,-187 124.5,-187 124.5,-206"/>
<text text-anchor="middle" x="77.5" y="-194" font-family="Helvetica,sans-Serif" font-size="10.00">Realm::Channel</text>
</a>
</g>
</g>
<!-- Node4&#45;&gt;Node3 -->
<g id="edge3_Node000003_Node000004" class="edge">
<title>Node4&#45;&gt;Node3</title>
<g id="a_edge3_Node000003_Node000004"><a xlink:title=" ">
<path fill="none" stroke="#63b8ff" d="M77.5,-176.66C77.5,-167.93 77.5,-157.99 77.5,-151.09"/>
<polygon fill="#63b8ff" stroke="#63b8ff" points="74,-176.75 77.5,-186.75 81,-176.75 74,-176.75"/>
</a>
</g>
</g>
</g>
</svg>
