<?xml version="1.0" encoding="UTF-8" standalone="no"?>
<!DOCTYPE svg PUBLIC "-//W3C//DTD SVG 1.1//EN"
 "http://www.w3.org/Graphics/SVG/1.1/DTD/svg11.dtd">
<!-- Generated by graphviz version 2.43.0 (0)
 -->
<!-- Title: Realm::MemreduceXferDes Pages: 1 -->
<svg width="1525pt" height="441pt"
 viewBox="0.00 0.00 1525.00 440.90" xmlns="http://www.w3.org/2000/svg" xmlns:xlink="http://www.w3.org/1999/xlink">
<g id="graph0" class="graph" transform="scale(1 1) rotate(0) translate(4 436.9)">
<title>Realm::MemreduceXferDes</title>
<!-- Node1 -->
<g id="Node000001" class="node">
<title>Node1</title>
<g id="a_Node000001"><a xlink:title=" ">
<polygon fill="#999999" stroke="#666666" points="1516,-313.4 1365,-313.4 1365,-294.4 1516,-294.4 1516,-313.4"/>
<text text-anchor="middle" x="1440.5" y="-301.4" font-family="Helvetica,sans-Serif" font-size="10.00">Realm::MemreduceXferDes</text>
</a>
</g>
</g>
<!-- Node2 -->
<g id="Node000002" class="node">
<title>Node2</title>
<g id="a_Node000002"><a xlink:href="classRealm_1_1XferDes.html" target="_top" xlink:title=" ">
<polygon fill="white" stroke="#666666" points="1202.5,-230.4 1109.5,-230.4 1109.5,-211.4 1202.5,-211.4 1202.5,-230.4"/>
<text text-anchor="middle" x="1156" y="-218.4" font-family="Helvetica,sans-Serif" font-size="10.00">Realm::XferDes</text>
</a>
</g>
</g>
<!-- Node2&#45;&gt;Node1 -->
<g id="edge1_Node000001_Node000002" class="edge">
<title>Node2&#45;&gt;Node1</title>
<g id="a_edge1_Node000001_Node000002"><a xlink:title=" ">
<path fill="none" stroke="#63b8ff" d="M1193.65,-233.64C1211.48,-239.71 1233.28,-246.93 1253,-252.9 1304.4,-268.49 1364.4,-284.51 1402.17,-294.34"/>
<polygon fill="#63b8ff" stroke="#63b8ff" points="1194.78,-230.33 1184.18,-230.41 1192.51,-236.96 1194.78,-230.33"/>
</a>
</g>
</g>
<!-- Node16 -->
<g id="Node000016" class="node">
<title>Node16</title>
<g id="a_Node000016"><a xlink:href="structRealm_1_1IntrusivePriorityListLink.html" target="_top" xlink:title=" ">
<polygon fill="white" stroke="#666666" points="1517,-220.9 1364,-220.9 1364,-190.9 1517,-190.9 1517,-220.9"/>
<text text-anchor="start" x="1372" y="-208.9" font-family="Helvetica,sans-Serif" font-size="10.00">Realm::IntrusivePriority</text>
<text text-anchor="middle" x="1440.5" y="-197.9" font-family="Helvetica,sans-Serif" font-size="10.00">ListLink&lt; Realm::XferDes &gt;</text>
</a>
</g>
</g>
<!-- Node2&#45;&gt;Node16 -->
<g id="edge17_Node000016_Node000002" class="edge">
<title>Node2&#45;&gt;Node16</title>
<g id="a_edge17_Node000016_Node000002"><a xlink:title=" ">
<path fill="none" stroke="#9a32cd" stroke-dasharray="5,2" d="M1212.75,-217.94C1255.94,-215.65 1316.25,-212.45 1363.81,-209.92"/>
<polygon fill="#9a32cd" stroke="#9a32cd" points="1212.5,-214.45 1202.7,-218.48 1212.87,-221.44 1212.5,-214.45"/>
</a>
</g>
<text text-anchor="middle" x="1299.5" y="-240.9" font-family="Helvetica,sans-Serif" font-size="10.00" fill="grey"> lastlink_within_pri</text>
<text text-anchor="middle" x="1299.5" y="-229.9" font-family="Helvetica,sans-Serif" font-size="10.00" fill="grey">next_lower_pri</text>
<text text-anchor="middle" x="1299.5" y="-218.9" font-family="Helvetica,sans-Serif" font-size="10.00" fill="grey">next_within_pri</text>
</g>
<!-- Node17 -->
<g id="Node000017" class="node">
<title>Node17</title>
<g id="a_Node000017"><a xlink:href="classRealm_1_1XferDes_1_1DeferredXDEnqueue.html" target="_top" xlink:title=" ">
<polygon fill="white" stroke="#666666" points="1511.5,-118.9 1369.5,-118.9 1369.5,-88.9 1511.5,-88.9 1511.5,-118.9"/>
<text text-anchor="start" x="1377.5" y="-106.9" font-family="Helvetica,sans-Serif" font-size="10.00">Realm::XferDes::Deferred</text>
<text text-anchor="middle" x="1440.5" y="-95.9" font-family="Helvetica,sans-Serif" font-size="10.00">XDEnqueue</text>
</a>
</g>
</g>
<!-- Node2&#45;&gt;Node17 -->
<g id="edge23_Node000017_Node000002" class="edge">
<title>Node2&#45;&gt;Node17</title>
<g id="a_edge23_Node000017_Node000002"><a xlink:title=" ">
<path fill="none" stroke="#9a32cd" stroke-dasharray="5,2" d="M1183.35,-206.35C1202.41,-196.1 1228.93,-182.39 1253,-171.9 1299.92,-151.47 1355.16,-131.86 1393.28,-118.99"/>
<polygon fill="#9a32cd" stroke="#9a32cd" points="1181.5,-203.37 1174.38,-211.22 1184.84,-209.52 1181.5,-203.37"/>
</a>
</g>
<text text-anchor="middle" x="1299.5" y="-174.9" font-family="Helvetica,sans-Serif" font-size="10.00" fill="grey"> xd</text>
</g>
<!-- Node3 -->
<g id="Node000003" class="node">
<title>Node3</title>
<g id="a_Node000003"><a xlink:href="classRealm_1_1XferDesQueue.html" target="_top" xlink:title=" ">
<polygon fill="white" stroke="#666666" points="918,-103.4 793,-103.4 793,-84.4 918,-84.4 918,-103.4"/>
<text text-anchor="middle" x="855.5" y="-91.4" font-family="Helvetica,sans-Serif" font-size="10.00">Realm::XferDesQueue</text>
</a>
</g>
</g>
<!-- Node3&#45;&gt;Node2 -->
<g id="edge2_Node000002_Node000003" class="edge">
<title>Node3&#45;&gt;Node2</title>
<g id="a_edge2_Node000002_Node000003"><a xlink:title=" ">
<path fill="none" stroke="#9a32cd" stroke-dasharray="5,2" d="M928.41,-98.89C977.15,-103.2 1036.61,-110.56 1059,-121.9 1101.28,-143.33 1135.59,-190.84 1148.96,-211.26"/>
<polygon fill="#9a32cd" stroke="#9a32cd" points="928.45,-95.38 918.19,-98.02 927.86,-102.36 928.45,-95.38"/>
</a>
</g>
<text text-anchor="middle" x="1005" y="-124.9" font-family="Helvetica,sans-Serif" font-size="10.00" fill="grey"> xferDes_queue</text>
</g>
<!-- Node3&#45;&gt;Node17 -->
<g id="edge22_Node000017_Node000003" class="edge">
<title>Node3&#45;&gt;Node17</title>
<g id="a_edge22_Node000017_Node000003"><a xlink:title=" ">
<path fill="none" stroke="#9a32cd" stroke-dasharray="5,2" d="M928.43,-94.97C1023.87,-96.4 1197.6,-99.1 1346,-101.9 1353.55,-102.05 1361.44,-102.2 1369.3,-102.36"/>
<polygon fill="#9a32cd" stroke="#9a32cd" points="928.37,-91.46 918.32,-94.81 928.27,-98.46 928.37,-91.46"/>
</a>
</g>
<text text-anchor="middle" x="1156" y="-102.9" font-family="Helvetica,sans-Serif" font-size="10.00" fill="grey"> xferDes_queue</text>
</g>
<!-- Node4 -->
<g id="Node000004" class="node">
<title>Node4</title>
<g id="a_Node000004"><a xlink:href="classRealm_1_1UnfairMutex.html" target="_top" xlink:title=" ">
<polygon fill="white" stroke="#666666" points="622.5,-139.4 507.5,-139.4 507.5,-120.4 622.5,-120.4 622.5,-139.4"/>
<text text-anchor="middle" x="565" y="-127.4" font-family="Helvetica,sans-Serif" font-size="10.00">Realm::UnfairMutex</text>
</a>
</g>
</g>
<!-- Node4&#45;&gt;Node2 -->
<g id="edge14_Node000002_Node000004" class="edge">
<title>Node4&#45;&gt;Node2</title>
<g id="a_edge14_Node000002_Node000004"><a xlink:title=" ">
<path fill="none" stroke="#9a32cd" stroke-dasharray="5,2" d="M632.76,-132.92C722.5,-137.26 877.23,-145.88 933,-155.9 1005.53,-168.94 1088.15,-196.68 1129.12,-211.35"/>
<polygon fill="#9a32cd" stroke="#9a32cd" points="632.83,-129.42 622.68,-132.43 632.5,-136.41 632.83,-129.42"/>
</a>
</g>
<text text-anchor="middle" x="855.5" y="-191.9" font-family="Helvetica,sans-Serif" font-size="10.00" fill="grey"> available_req_mutex</text>
<text text-anchor="middle" x="855.5" y="-180.9" font-family="Helvetica,sans-Serif" font-size="10.00" fill="grey">update_read_lock</text>
<text text-anchor="middle" x="855.5" y="-169.9" font-family="Helvetica,sans-Serif" font-size="10.00" fill="grey">update_write_lock</text>
<text text-anchor="middle" x="855.5" y="-158.9" font-family="Helvetica,sans-Serif" font-size="10.00" fill="grey">xd_lock</text>
</g>
<!-- Node4&#45;&gt;Node3 -->
<g id="edge3_Node000003_Node000004" class="edge">
<title>Node4&#45;&gt;Node3</title>
<g id="a_edge3_Node000003_Node000004"><a xlink:title=" ">
<path fill="none" stroke="#9a32cd" stroke-dasharray="5,2" d="M619.76,-118.33C633.79,-115.6 648.92,-112.9 663,-110.9 706.13,-104.78 755.05,-100.49 792.65,-97.74"/>
<polygon fill="#9a32cd" stroke="#9a32cd" points="618.9,-114.93 609.78,-120.32 620.27,-121.8 618.9,-114.93"/>
</a>
</g>
<text text-anchor="middle" x="711.5" y="-124.9" font-family="Helvetica,sans-Serif" font-size="10.00" fill="grey"> guid_lock</text>
<text text-anchor="middle" x="711.5" y="-113.9" font-family="Helvetica,sans-Serif" font-size="10.00" fill="grey">queues_lock</text>
</g>
<!-- Node5 -->
<g id="Node000005" class="node">
<title>Node5</title>
<g id="a_Node000005"><a xlink:href="classRealm_1_1noncopyable.html" target="_top" xlink:title=" ">
<polygon fill="white" stroke="#666666" points="396,-176.4 280,-176.4 280,-157.4 396,-157.4 396,-176.4"/>
<text text-anchor="middle" x="338" y="-164.4" font-family="Helvetica,sans-Serif" font-size="10.00">Realm::noncopyable</text>
</a>
</g>
</g>
<!-- Node5&#45;&gt;Node4 -->
<g id="edge4_Node000004_Node000005" class="edge">
<title>Node5&#45;&gt;Node4</title>
<g id="a_edge4_Node000004_Node000005"><a xlink:title=" ">
<path fill="none" stroke="#63b8ff" d="M406.3,-155.84C438.52,-150.54 476.68,-144.26 507.38,-139.21"/>
<polygon fill="#63b8ff" stroke="#63b8ff" points="405.37,-152.44 396.07,-157.52 406.5,-159.35 405.37,-152.44"/>
</a>
</g>
</g>
<!-- Node6 -->
<g id="Node000006" class="node">
<title>Node6</title>
<g id="a_Node000006"><a xlink:href="classRealm_1_1atomic.html" target="_top" xlink:title=" ">
<polygon fill="white" stroke="#666666" points="413,-139.4 263,-139.4 263,-120.4 413,-120.4 413,-139.4"/>
<text text-anchor="middle" x="338" y="-127.4" font-family="Helvetica,sans-Serif" font-size="10.00">Realm::atomic&lt; uint32_t &gt;</text>
</a>
</g>
</g>
<!-- Node6&#45;&gt;Node4 -->
<g id="edge5_Node000004_Node000006" class="edge">
<title>Node6&#45;&gt;Node4</title>
<g id="a_edge5_Node000004_Node000006"><a xlink:title=" ">
<path fill="none" stroke="#9a32cd" stroke-dasharray="5,2" d="M423.47,-129.9C451.44,-129.9 481.88,-129.9 507.25,-129.9"/>
<polygon fill="#9a32cd" stroke="#9a32cd" points="423.3,-126.4 413.3,-129.9 423.3,-133.4 423.3,-126.4"/>
</a>
</g>
<text text-anchor="middle" x="449" y="-132.9" font-family="Helvetica,sans-Serif" font-size="10.00" fill="grey"> state</text>
</g>
<!-- Node7 -->
<g id="Node000007" class="node">
<title>Node7</title>
<g id="a_Node000007"><a xlink:href="classRealm_1_1DoorbellList.html" target="_top" xlink:title=" ">
<polygon fill="white" stroke="#666666" points="394.5,-102.4 281.5,-102.4 281.5,-83.4 394.5,-83.4 394.5,-102.4"/>
<text text-anchor="middle" x="338" y="-90.4" font-family="Helvetica,sans-Serif" font-size="10.00">Realm::DoorbellList</text>
</a>
</g>
</g>
<!-- Node7&#45;&gt;Node4 -->
<g id="edge6_Node000004_Node000007" class="edge">
<title>Node7&#45;&gt;Node4</title>
<g id="a_edge6_Node000004_Node000007"><a xlink:title=" ">
<path fill="none" stroke="#9a32cd" stroke-dasharray="5,2" d="M404.52,-103.68C437.13,-109.04 476.17,-115.46 507.46,-120.61"/>
<polygon fill="#9a32cd" stroke="#9a32cd" points="405.05,-100.22 394.62,-102.05 403.92,-107.13 405.05,-100.22"/>
</a>
</g>
<text text-anchor="middle" x="449" y="-116.9" font-family="Helvetica,sans-Serif" font-size="10.00" fill="grey"> db_list</text>
</g>
<!-- Node8 -->
<g id="Node000008" class="node">
<title>Node8</title>
<g id="a_Node000008"><a xlink:href="classRealm_1_1atomic.html" target="_top" xlink:title=" ">
<polygon fill="white" stroke="#666666" points="152,-102.4 0,-102.4 0,-83.4 152,-83.4 152,-102.4"/>
<text text-anchor="middle" x="76" y="-90.4" font-family="Helvetica,sans-Serif" font-size="10.00">Realm::atomic&lt; uintptr_t &gt;</text>
</a>
</g>
</g>
<!-- Node8&#45;&gt;Node7 -->
<g id="edge7_Node000007_Node000008" class="edge">
<title>Node8&#45;&gt;Node7</title>
<g id="a_edge7_Node000007_Node000008"><a xlink:title=" ">
<path fill="none" stroke="#9a32cd" stroke-dasharray="5,2" d="M162.52,-92.9C201.61,-92.9 246.79,-92.9 281.38,-92.9"/>
<polygon fill="#9a32cd" stroke="#9a32cd" points="162.2,-89.4 152.2,-92.9 162.2,-96.4 162.2,-89.4"/>
</a>
</g>
<text text-anchor="middle" x="207.5" y="-95.9" font-family="Helvetica,sans-Serif" font-size="10.00" fill="grey"> head_or_count</text>
</g>
<!-- Node9 -->
<g id="Node000009" class="node">
<title>Node9</title>
<g id="a_Node000009"><a xlink:href="classRealm_1_1atomic.html" target="_top" xlink:title=" ">
<polygon fill="white" stroke="#666666" points="645,-85.4 485,-85.4 485,-66.4 645,-66.4 645,-85.4"/>
<text text-anchor="middle" x="565" y="-73.4" font-family="Helvetica,sans-Serif" font-size="10.00">Realm::atomic&lt; XferDesID &gt;</text>
</a>
</g>
</g>
<!-- Node9&#45;&gt;Node3 -->
<g id="edge8_Node000003_Node000009" class="edge">
<title>Node9&#45;&gt;Node3</title>
<g id="a_edge8_Node000003_Node000009"><a xlink:title=" ">
<path fill="none" stroke="#9a32cd" stroke-dasharray="5,2" d="M655.49,-73.14C688.41,-72.97 725.96,-73.78 760,-76.9 776.6,-78.43 794.65,-81.36 810.49,-84.36"/>
<polygon fill="#9a32cd" stroke="#9a32cd" points="655.41,-69.64 645.44,-73.22 655.46,-76.64 655.41,-69.64"/>
</a>
</g>
<text text-anchor="middle" x="711.5" y="-79.9" font-family="Helvetica,sans-Serif" font-size="10.00" fill="grey"> next_to_assign_idx</text>
</g>
<!-- Node10 -->
<g id="Node000010" class="node">
<title>Node10</title>
<g id="a_Node000010"><a xlink:href="classRealm_1_1atomic.html" target="_top" xlink:title=" ">
<polygon fill="white" stroke="#666666" points="921,-265.4 790,-265.4 790,-246.4 921,-246.4 921,-265.4"/>
<text text-anchor="middle" x="855.5" y="-253.4" font-family="Helvetica,sans-Serif" font-size="10.00">Realm::atomic&lt; bool &gt;</text>
</a>
</g>
</g>
<!-- Node10&#45;&gt;Node2 -->
<g id="edge9_Node000002_Node000010" class="edge">
<title>Node10&#45;&gt;Node2</title>
<g id="a_edge9_Node000002_Node000010"><a xlink:title=" ">
<path fill="none" stroke="#9a32cd" stroke-dasharray="5,2" d="M931.49,-247.11C987.42,-240.55 1062.03,-231.81 1109.3,-226.26"/>
<polygon fill="#9a32cd" stroke="#9a32cd" points="930.79,-243.67 921.27,-248.31 931.61,-250.62 930.79,-243.67"/>
</a>
</g>
<text text-anchor="middle" x="1005" y="-258.9" font-family="Helvetica,sans-Serif" font-size="10.00" fill="grey"> iteration_completed</text>
<text text-anchor="middle" x="1005" y="-247.9" font-family="Helvetica,sans-Serif" font-size="10.00" fill="grey">transfer_completed</text>
</g>
<!-- Node11 -->
<g id="Node000011" class="node">
<title>Node11</title>
<g id="a_Node000011"><a xlink:href="classRealm_1_1atomic.html" target="_top" xlink:title=" ">
<polygon fill="white" stroke="#666666" points="927.5,-228.4 783.5,-228.4 783.5,-209.4 927.5,-209.4 927.5,-228.4"/>
<text text-anchor="middle" x="855.5" y="-216.4" font-family="Helvetica,sans-Serif" font-size="10.00">Realm::atomic&lt; int64_t &gt;</text>
</a>
</g>
</g>
<!-- Node11&#45;&gt;Node2 -->
<g id="edge10_Node000002_Node000011" class="edge">
<title>Node11&#45;&gt;Node2</title>
<g id="a_edge10_Node000002_Node000011"><a xlink:title=" ">
<path fill="none" stroke="#9a32cd" stroke-dasharray="5,2" d="M937.94,-219.2C974.9,-219.37 1019.15,-219.6 1059,-219.9 1075.33,-220.03 1093.23,-220.21 1109.1,-220.37"/>
<polygon fill="#9a32cd" stroke="#9a32cd" points="937.74,-215.7 927.72,-219.16 937.71,-222.7 937.74,-215.7"/>
</a>
</g>
<text text-anchor="middle" x="1005" y="-222.9" font-family="Helvetica,sans-Serif" font-size="10.00" fill="grey"> bytes_write_pending</text>
</g>
<!-- Node12 -->
<g id="Node000012" class="node">
<title>Node12</title>
<g id="a_Node000012"><a xlink:href="structRealm_1_1XferDes_1_1ControlPortState.html" target="_top" xlink:title=" ">
<polygon fill="white" stroke="#666666" points="932.5,-313.9 778.5,-313.9 778.5,-283.9 932.5,-283.9 932.5,-313.9"/>
<text text-anchor="start" x="786.5" y="-301.9" font-family="Helvetica,sans-Serif" font-size="10.00">Realm::XferDes::ControlPort</text>
<text text-anchor="middle" x="855.5" y="-290.9" font-family="Helvetica,sans-Serif" font-size="10.00">State</text>
</a>
</g>
</g>
<!-- Node12&#45;&gt;Node2 -->
<g id="edge11_Node000002_Node000012" class="edge">
<title>Node12&#45;&gt;Node2</title>
<g id="a_edge11_Node000002_Node000012"><a xlink:title=" ">
<path fill="none" stroke="#9a32cd" stroke-dasharray="5,2" d="M942.99,-293.51C979.43,-289.57 1021.91,-282.73 1059,-270.9 1089.61,-261.14 1122.16,-242.11 1140.4,-230.55"/>
<polygon fill="#9a32cd" stroke="#9a32cd" points="942.47,-290.05 932.88,-294.55 943.18,-297.01 942.47,-290.05"/>
</a>
</g>
<text text-anchor="middle" x="1005" y="-306.9" font-family="Helvetica,sans-Serif" font-size="10.00" fill="grey"> input_control</text>
<text text-anchor="middle" x="1005" y="-295.9" font-family="Helvetica,sans-Serif" font-size="10.00" fill="grey">output_control</text>
</g>
<!-- Node13 -->
<g id="Node000013" class="node">
<title>Node13</title>
<g id="a_Node000013"><a xlink:href="classRealm_1_1ControlPort_1_1Decoder.html" target="_top" xlink:title=" ">
<polygon fill="white" stroke="#666666" points="619.5,-313.9 510.5,-313.9 510.5,-283.9 619.5,-283.9 619.5,-313.9"/>
<text text-anchor="start" x="518.5" y="-301.9" font-family="Helvetica,sans-Serif" font-size="10.00">Realm::ControlPort</text>
<text text-anchor="middle" x="565" y="-290.9" font-family="Helvetica,sans-Serif" font-size="10.00">::Decoder</text>
</a>
</g>
</g>
<!-- Node13&#45;&gt;Node12 -->
<g id="edge12_Node000012_Node000013" class="edge">
<title>Node13&#45;&gt;Node12</title>
<g id="a_edge12_Node000012_Node000013"><a xlink:title=" ">
<path fill="none" stroke="#9a32cd" stroke-dasharray="5,2" d="M629.84,-298.9C673.68,-298.9 732.08,-298.9 778.36,-298.9"/>
<polygon fill="#9a32cd" stroke="#9a32cd" points="629.59,-295.4 619.59,-298.9 629.59,-302.4 629.59,-295.4"/>
</a>
</g>
<text text-anchor="middle" x="711.5" y="-301.9" font-family="Helvetica,sans-Serif" font-size="10.00" fill="grey"> decoder</text>
</g>
<!-- Node14 -->
<g id="Node000014" class="node">
<title>Node14</title>
<g id="a_Node000014"><a xlink:href="classRealm_1_1Channel.html" target="_top" xlink:title=" ">
<polygon fill="white" stroke="#666666" points="902.5,-419.4 808.5,-419.4 808.5,-400.4 902.5,-400.4 902.5,-419.4"/>
<text text-anchor="middle" x="855.5" y="-407.4" font-family="Helvetica,sans-Serif" font-size="10.00">Realm::Channel</text>
</a>
</g>
</g>
<!-- Node14&#45;&gt;Node2 -->
<g id="edge13_Node000002_Node000014" class="edge">
<title>Node14&#45;&gt;Node2</title>
<g id="a_edge13_Node000002_Node000014"><a xlink:title=" ">
<path fill="none" stroke="#9a32cd" stroke-dasharray="5,2" d="M912.73,-420.11C958.11,-424.89 1020.54,-423.07 1059,-386.9 1092.54,-355.37 1053.76,-324.64 1077,-284.9 1091.33,-260.41 1118.76,-241.29 1136.97,-230.55"/>
<polygon fill="#9a32cd" stroke="#9a32cd" points="913.09,-416.63 902.74,-418.93 912.26,-423.58 913.09,-416.63"/>
</a>
</g>
<text text-anchor="middle" x="1005" y="-424.9" font-family="Helvetica,sans-Serif" font-size="10.00" fill="grey"> channel</text>
</g>
<!-- Node15 -->
<g id="Node000015" class="node">
<title>Node15</title>
<g id="a_Node000015"><a xlink:href="classRealm_1_1atomic.html" target="_top" xlink:title=" ">
<polygon fill="white" stroke="#666666" points="933,-352.4 778,-352.4 778,-333.4 933,-333.4 933,-352.4"/>
<text text-anchor="middle" x="855.5" y="-340.4" font-family="Helvetica,sans-Serif" font-size="10.00">Realm::atomic&lt; unsigned &gt;</text>
</a>
</g>
</g>
<!-- Node15&#45;&gt;Node2 -->
<g id="edge15_Node000002_Node000015" class="edge">
<title>Node15&#45;&gt;Node2</title>
<g id="a_edge15_Node000002_Node000015"><a xlink:title=" ">
<path fill="none" stroke="#9a32cd" stroke-dasharray="5,2" d="M943.12,-340.55C989.24,-337.77 1040.23,-331.77 1059,-318.9 1073.1,-309.24 1066.18,-298.14 1077,-284.9 1095.51,-262.26 1123.07,-241.92 1139.99,-230.52"/>
<polygon fill="#9a32cd" stroke="#9a32cd" points="942.86,-337.06 933.07,-341.11 943.25,-344.05 942.86,-337.06"/>
</a>
</g>
<text text-anchor="start" x="951" y="-374.9" font-family="Helvetica,sans-Serif" font-size="10.00" fill="grey"> nb_update_pre_bytes</text>
<text text-anchor="middle" x="1005" y="-363.9" font-family="Helvetica,sans-Serif" font-size="10.00" fill="grey">_total_calls_received</text>
<text text-anchor="middle" x="1005" y="-352.9" font-family="Helvetica,sans-Serif" font-size="10.00" fill="grey">progress_counter</text>
<text text-anchor="middle" x="1005" y="-341.9" font-family="Helvetica,sans-Serif" font-size="10.00" fill="grey">reference_count</text>
</g>
<!-- Node16&#45;&gt;Node2 -->
<g id="edge16_Node000002_Node000016" class="edge">
<title>Node16&#45;&gt;Node2</title>
<g id="a_edge16_Node000002_Node000016"><a xlink:title=" ">
<path fill="none" stroke="#9a32cd" stroke-dasharray="5,2" d="M1353.74,-189.9C1321.98,-186.24 1285.73,-184.75 1253,-189.9 1227.22,-193.96 1198.93,-203.8 1179.78,-211.31"/>
<polygon fill="#9a32cd" stroke="#9a32cd" points="1353.54,-193.4 1363.89,-191.16 1354.4,-186.45 1353.54,-193.4"/>
</a>
</g>
<text text-anchor="middle" x="1299.5" y="-192.9" font-family="Helvetica,sans-Serif" font-size="10.00" fill="grey"> xd_link</text>
</g>
<!-- Node17&#45;&gt;Node2 -->
<g id="edge18_Node000002_Node000017" class="edge">
<title>Node17&#45;&gt;Node2</title>
<g id="a_edge18_Node000002_Node000017"><a xlink:title=" ">
<path fill="none" stroke="#9a32cd" stroke-dasharray="5,2" d="M1358.69,-99.63C1324.61,-100.83 1285.41,-106.31 1253,-121.9 1210.28,-142.46 1176.22,-190.44 1162.97,-211.13"/>
<polygon fill="#9a32cd" stroke="#9a32cd" points="1359.18,-103.12 1369.09,-99.39 1359.01,-96.12 1359.18,-103.12"/>
</a>
</g>
<text text-anchor="middle" x="1299.5" y="-124.9" font-family="Helvetica,sans-Serif" font-size="10.00" fill="grey"> deferred_enqueue</text>
</g>
<!-- Node18 -->
<g id="Node000018" class="node">
<title>Node18</title>
<g id="a_Node000018"><a xlink:href="classRealm_1_1EventWaiter.html" target="_top" xlink:title=" ">
<polygon fill="white" stroke="#666666" points="1212.5,-46.4 1099.5,-46.4 1099.5,-27.4 1212.5,-27.4 1212.5,-46.4"/>
<text text-anchor="middle" x="1156" y="-34.4" font-family="Helvetica,sans-Serif" font-size="10.00">Realm::EventWaiter</text>
</a>
</g>
</g>
<!-- Node18&#45;&gt;Node17 -->
<g id="edge19_Node000017_Node000018" class="edge">
<title>Node18&#45;&gt;Node17</title>
<g id="a_edge19_Node000017_Node000018"><a xlink:title=" ">
<path fill="none" stroke="#63b8ff" d="M1217.16,-48.48C1254.42,-55.93 1303.17,-66.2 1346,-76.9 1360.26,-80.47 1375.63,-84.73 1389.7,-88.8"/>
<polygon fill="#63b8ff" stroke="#63b8ff" points="1217.46,-44.97 1206.97,-46.45 1216.09,-51.83 1217.46,-44.97"/>
</a>
</g>
</g>
<!-- Node19 -->
<g id="Node000019" class="node">
<title>Node19</title>
<g id="a_Node000019"><a xlink:href="structRealm_1_1IntrusiveListLink.html" target="_top" xlink:title=" ">
<polygon fill="white" stroke="#666666" points="1508.5,-34.9 1372.5,-34.9 1372.5,-4.9 1508.5,-4.9 1508.5,-34.9"/>
<text text-anchor="start" x="1380.5" y="-22.9" font-family="Helvetica,sans-Serif" font-size="10.00">Realm::IntrusiveListLink</text>
<text text-anchor="middle" x="1440.5" y="-11.9" font-family="Helvetica,sans-Serif" font-size="10.00">&lt; Realm::EventWaiter &gt;</text>
</a>
</g>
</g>
<!-- Node18&#45;&gt;Node19 -->
<g id="edge21_Node000019_Node000018" class="edge">
<title>Node18&#45;&gt;Node19</title>
<g id="a_edge21_Node000019_Node000018"><a xlink:title=" ">
<path fill="none" stroke="#9a32cd" stroke-dasharray="5,2" d="M1223.04,-32.93C1267.96,-30.23 1327.21,-26.66 1372.36,-23.94"/>
<polygon fill="#9a32cd" stroke="#9a32cd" points="1222.58,-29.45 1212.81,-33.55 1223.01,-36.44 1222.58,-29.45"/>
</a>
</g>
<text text-anchor="middle" x="1299.5" y="-34.9" font-family="Helvetica,sans-Serif" font-size="10.00" fill="grey"> next</text>
</g>
<!-- Node19&#45;&gt;Node18 -->
<g id="edge20_Node000018_Node000019" class="edge">
<title>Node19&#45;&gt;Node18</title>
<g id="a_edge20_Node000018_Node000019"><a xlink:title=" ">
<path fill="none" stroke="#9a32cd" stroke-dasharray="5,2" d="M1362.04,-4.6C1328.38,-0.18 1288.58,2.04 1253,-3.9 1226.4,-8.35 1197.31,-19.27 1178.2,-27.33"/>
<polygon fill="#9a32cd" stroke="#9a32cd" points="1361.89,-8.11 1372.28,-6.04 1362.86,-1.18 1361.89,-8.11"/>
</a>
</g>
<text text-anchor="middle" x="1299.5" y="-6.9" font-family="Helvetica,sans-Serif" font-size="10.00" fill="grey"> ew_list_link</text>
</g>
<!-- Node20 -->
<g id="Node000020" class="node">
<title>Node20</title>
<g id="a_Node000020"><a xlink:href="structRealm_1_1XferDesRedopInfo.html" target="_top" xlink:title=" ">
<polygon fill="white" stroke="#666666" points="1227.5,-350.4 1084.5,-350.4 1084.5,-331.4 1227.5,-331.4 1227.5,-350.4"/>
<text text-anchor="middle" x="1156" y="-338.4" font-family="Helvetica,sans-Serif" font-size="10.00">Realm::XferDesRedopInfo</text>
</a>
</g>
</g>
<!-- Node20&#45;&gt;Node1 -->
<g id="edge24_Node000001_Node000020" class="edge">
<title>Node20&#45;&gt;Node1</title>
<g id="a_edge24_Node000001_Node000020"><a xlink:title=" ">
<path fill="none" stroke="#9a32cd" stroke-dasharray="5,2" d="M1237.76,-332.28C1271.28,-328.5 1310.56,-323.81 1346,-318.9 1357.89,-317.26 1370.6,-315.33 1382.7,-313.42"/>
<polygon fill="#9a32cd" stroke="#9a32cd" points="1237.1,-328.83 1227.55,-333.42 1237.87,-335.79 1237.1,-328.83"/>
</a>
</g>
<text text-anchor="middle" x="1299.5" y="-332.9" font-family="Helvetica,sans-Serif" font-size="10.00" fill="grey"> redop_info</text>
</g>
<!-- Node21 -->
<g id="Node000021" class="node">
<title>Node21</title>
<g id="a_Node000021"><a xlink:href="structRealm_1_1ReductionOpUntyped.html" target="_top" xlink:title=" ">
<polygon fill="white" stroke="#666666" points="1235,-313.4 1077,-313.4 1077,-294.4 1235,-294.4 1235,-313.4"/>
<text text-anchor="middle" x="1156" y="-301.4" font-family="Helvetica,sans-Serif" font-size="10.00">Realm::ReductionOpUntyped</text>
</a>
</g>
</g>
<!-- Node21&#45;&gt;Node1 -->
<g id="edge25_Node000001_Node000021" class="edge">
<title>Node21&#45;&gt;Node1</title>
<g id="a_edge25_Node000001_Node000021"><a xlink:title=" ">
<path fill="none" stroke="#9a32cd" stroke-dasharray="5,2" d="M1245.45,-303.9C1283.82,-303.9 1328.26,-303.9 1364.92,-303.9"/>
<polygon fill="#9a32cd" stroke="#9a32cd" points="1245.32,-300.4 1235.32,-303.9 1245.32,-307.4 1245.32,-300.4"/>
</a>
</g>
<text text-anchor="middle" x="1299.5" y="-306.9" font-family="Helvetica,sans-Serif" font-size="10.00" fill="grey"> redop</text>
</g>
</g>
</svg>
