<?xml version="1.0" encoding="UTF-8" standalone="no"?>
<!DOCTYPE svg PUBLIC "-//W3C//DTD SVG 1.1//EN"
 "http://www.w3.org/Graphics/SVG/1.1/DTD/svg11.dtd">
<!-- Generated by graphviz version 2.43.0 (0)
 -->
<!-- Title: Realm::IBMemory Pages: 1 -->
<svg width="525pt" height="137pt"
 viewBox="0.00 0.00 525.00 137.00" xmlns="http://www.w3.org/2000/svg" xmlns:xlink="http://www.w3.org/1999/xlink">
<g id="graph0" class="graph" transform="scale(1 1) rotate(0) translate(4 133)">
<title>Realm::IBMemory</title>
<!-- Node1 -->
<g id="Node000001" class="node">
<title>Node1</title>
<g id="a_Node000001"><a xlink:title=" ">
<polygon fill="#999999" stroke="#666666" points="319.5,-74 215.5,-74 215.5,-55 319.5,-55 319.5,-74"/>
<text text-anchor="middle" x="267.5" y="-62" font-family="Helvetica,sans-Serif" font-size="10.00">Realm::IBMemory</text>
</a>
</g>
</g>
<!-- Node3 -->
<g id="Node000003" class="node">
<title>Node3</title>
<g id="a_Node000003"><a xlink:href="classRealm_1_1Cuda_1_1GPUFBIBMemory.html" target="_top" xlink:title=" ">
<polygon fill="white" stroke="#666666" points="169,-19 0,-19 0,0 169,0 169,-19"/>
<text text-anchor="middle" x="84.5" y="-7" font-family="Helvetica,sans-Serif" font-size="10.00">Realm::Cuda::GPUFBIBMemory</text>
</a>
</g>
</g>
<!-- Node1&#45;&gt;Node3 -->
<g id="edge2_Node000001_Node000003" class="edge">
<title>Node1&#45;&gt;Node3</title>
<g id="a_edge2_Node000001_Node000003"><a xlink:title=" ">
<path fill="none" stroke="#63b8ff" d="M228.43,-52.18C194.2,-42.27 145.21,-28.08 114.13,-19.08"/>
<polygon fill="#63b8ff" stroke="#63b8ff" points="227.52,-55.56 238.1,-54.98 229.47,-48.84 227.52,-55.56"/>
</a>
</g>
</g>
<!-- Node4 -->
<g id="Node000004" class="node">
<title>Node4</title>
<g id="a_Node000004"><a xlink:href="classRealm_1_1Hip_1_1GPUFBIBMemory.html" target="_top" xlink:title=" ">
<polygon fill="white" stroke="#666666" points="348,-19 187,-19 187,0 348,0 348,-19"/>
<text text-anchor="middle" x="267.5" y="-7" font-family="Helvetica,sans-Serif" font-size="10.00">Realm::Hip::GPUFBIBMemory</text>
</a>
</g>
</g>
<!-- Node1&#45;&gt;Node4 -->
<g id="edge3_Node000001_Node000004" class="edge">
<title>Node1&#45;&gt;Node4</title>
<g id="a_edge3_Node000001_Node000004"><a xlink:title=" ">
<path fill="none" stroke="#63b8ff" d="M267.5,-44.66C267.5,-35.93 267.5,-25.99 267.5,-19.09"/>
<polygon fill="#63b8ff" stroke="#63b8ff" points="264,-44.75 267.5,-54.75 271,-44.75 264,-44.75"/>
</a>
</g>
</g>
<!-- Node5 -->
<g id="Node000005" class="node">
<title>Node5</title>
<g id="a_Node000005"><a xlink:href="classRealm_1_1UCP_1_1UCPIBMemory.html" target="_top" xlink:title=" ">
<polygon fill="white" stroke="#666666" points="517,-19 366,-19 366,0 517,0 517,-19"/>
<text text-anchor="middle" x="441.5" y="-7" font-family="Helvetica,sans-Serif" font-size="10.00">Realm::UCP::UCPIBMemory</text>
</a>
</g>
</g>
<!-- Node1&#45;&gt;Node5 -->
<g id="edge4_Node000001_Node000005" class="edge">
<title>Node1&#45;&gt;Node5</title>
<g id="a_edge4_Node000001_Node000005"><a xlink:title=" ">
<path fill="none" stroke="#63b8ff" d="M305.07,-52.06C337.59,-42.15 383.9,-28.04 413.32,-19.08"/>
<polygon fill="#63b8ff" stroke="#63b8ff" points="304,-48.72 295.46,-54.98 306.04,-55.42 304,-48.72"/>
</a>
</g>
</g>
<!-- Node2 -->
<g id="Node000002" class="node">
<title>Node2</title>
<g id="a_Node000002"><a xlink:href="classRealm_1_1MemoryImpl.html" target="_top" xlink:title=" ">
<polygon fill="white" stroke="#666666" points="325.5,-129 209.5,-129 209.5,-110 325.5,-110 325.5,-129"/>
<text text-anchor="middle" x="267.5" y="-117" font-family="Helvetica,sans-Serif" font-size="10.00">Realm::MemoryImpl</text>
</a>
</g>
</g>
<!-- Node2&#45;&gt;Node1 -->
<g id="edge1_Node000001_Node000002" class="edge">
<title>Node2&#45;&gt;Node1</title>
<g id="a_edge1_Node000001_Node000002"><a xlink:title=" ">
<path fill="none" stroke="#63b8ff" d="M267.5,-99.66C267.5,-90.93 267.5,-80.99 267.5,-74.09"/>
<polygon fill="#63b8ff" stroke="#63b8ff" points="264,-99.75 267.5,-109.75 271,-99.75 264,-99.75"/>
</a>
</g>
</g>
</g>
</svg>
