<?xml version="1.0" encoding="UTF-8" standalone="no"?>
<!DOCTYPE svg PUBLIC "-//W3C//DTD SVG 1.1//EN"
 "http://www.w3.org/Graphics/SVG/1.1/DTD/svg11.dtd">
<!-- Generated by graphviz version 2.43.0 (0)
 -->
<!-- Title: PRealm::CompletionQueue Pages: 1 -->
<svg width="232pt" height="83pt"
 viewBox="0.00 0.00 232.00 83.00" xmlns="http://www.w3.org/2000/svg" xmlns:xlink="http://www.w3.org/1999/xlink">
<g id="graph0" class="graph" transform="scale(1 1) rotate(0) translate(4 79)">
<title>PRealm::CompletionQueue</title>
<!-- Node1 -->
<g id="Node000001" class="node">
<title>Node1</title>
<g id="a_Node000001"><a xlink:title=" ">
<polygon fill="#999999" stroke="#666666" points="148,-19 0,-19 0,0 148,0 148,-19"/>
<text text-anchor="middle" x="74" y="-7" font-family="Helvetica,sans-Serif" font-size="10.00">PRealm::CompletionQueue</text>
</a>
</g>
</g>
<!-- Node1&#45;&gt;Node1 -->
<g id="edge3_Node000001_Node000001" class="edge">
<title>Node1&#45;&gt;Node1</title>
<g id="a_edge3_Node000001_Node000001"><a xlink:title=" ">
<path fill="none" stroke="#9a32cd" stroke-dasharray="5,2" d="M158.58,-13.01C163.23,-12.16 166,-10.99 166,-9.5 166,-7.12 158.92,-5.55 148.36,-4.79"/>
<polygon fill="#9a32cd" stroke="#9a32cd" points="157.88,-9.57 148.36,-14.21 158.7,-16.52 157.88,-9.57"/>
</a>
</g>
<text text-anchor="middle" x="195" y="-7" font-family="Helvetica,sans-Serif" font-size="10.00" fill="grey"> NO_QUEUE</text>
</g>
<!-- Node2 -->
<g id="Node000002" class="node">
<title>Node2</title>
<g id="a_Node000002"><a xlink:href="classRealm_1_1CompletionQueue.html" target="_top" xlink:title=" ">
<polygon fill="white" stroke="#666666" points="145,-75 3,-75 3,-56 145,-56 145,-75"/>
<text text-anchor="middle" x="74" y="-63" font-family="Helvetica,sans-Serif" font-size="10.00">Realm::CompletionQueue</text>
</a>
</g>
</g>
<!-- Node2&#45;&gt;Node1 -->
<g id="edge1_Node000001_Node000002" class="edge">
<title>Node2&#45;&gt;Node1</title>
<g id="a_edge1_Node000001_Node000002"><a xlink:title=" ">
<path fill="none" stroke="#63b8ff" d="M74,-45.3C74,-36.41 74,-26.28 74,-19.25"/>
<polygon fill="#63b8ff" stroke="#63b8ff" points="70.5,-45.58 74,-55.58 77.5,-45.58 70.5,-45.58"/>
</a>
</g>
</g>
<!-- Node2&#45;&gt;Node2 -->
<g id="edge2_Node000002_Node000002" class="edge">
<title>Node2&#45;&gt;Node2</title>
<g id="a_edge2_Node000002_Node000002"><a xlink:title=" ">
<path fill="none" stroke="#9a32cd" stroke-dasharray="5,2" d="M155.51,-69.07C160.2,-68.21 163,-67.02 163,-65.5 163,-63.07 155.83,-61.48 145.23,-60.74"/>
<polygon fill="#9a32cd" stroke="#9a32cd" points="154.76,-65.64 145.23,-70.26 155.56,-72.59 154.76,-65.64"/>
</a>
</g>
<text text-anchor="middle" x="192" y="-63" font-family="Helvetica,sans-Serif" font-size="10.00" fill="grey"> NO_QUEUE</text>
</g>
</g>
</svg>
