<?xml version="1.0" encoding="UTF-8" standalone="no"?>
<!DOCTYPE svg PUBLIC "-//W3C//DTD SVG 1.1//EN"
 "http://www.w3.org/Graphics/SVG/1.1/DTD/svg11.dtd">
<!-- Generated by graphviz version 2.43.0 (0)
 -->
<!-- Title: Realm::CopyIndirection&lt; N, T &gt;::Unstructured&lt; N2, T2 &gt; Pages: 1 -->
<svg width="388pt" height="153pt"
 viewBox="0.00 0.00 388.00 152.50" xmlns="http://www.w3.org/2000/svg" xmlns:xlink="http://www.w3.org/1999/xlink">
<g id="graph0" class="graph" transform="scale(1 1) rotate(0) translate(4 148.5)">
<title>Realm::CopyIndirection&lt; N, T &gt;::Unstructured&lt; N2, T2 &gt;</title>
<!-- Node1 -->
<g id="Node000001" class="node">
<title>Node1</title>
<g id="a_Node000001"><a xlink:title=" ">
<polygon fill="#999999" stroke="#666666" points="380,-102 249,-102 249,-61 380,-61 380,-102"/>
<text text-anchor="start" x="257" y="-90" font-family="Helvetica,sans-Serif" font-size="10.00">Realm::CopyIndirection</text>
<text text-anchor="start" x="257" y="-79" font-family="Helvetica,sans-Serif" font-size="10.00">&lt; N, T &gt;::Unstructured</text>
<text text-anchor="middle" x="314.5" y="-68" font-family="Helvetica,sans-Serif" font-size="10.00">&lt; N2, T2 &gt;</text>
</a>
</g>
</g>
<!-- Node2 -->
<g id="Node000002" class="node">
<title>Node2</title>
<g id="a_Node000002"><a xlink:href="classRealm_1_1CopyIndirection_1_1Base.html" target="_top" xlink:title=" ">
<polygon fill="white" stroke="#666666" points="131,-144.5 0,-144.5 0,-114.5 131,-114.5 131,-144.5"/>
<text text-anchor="start" x="8" y="-132.5" font-family="Helvetica,sans-Serif" font-size="10.00">Realm::CopyIndirection</text>
<text text-anchor="middle" x="65.5" y="-121.5" font-family="Helvetica,sans-Serif" font-size="10.00">&lt; N, T &gt;::Base</text>
</a>
</g>
</g>
<!-- Node2&#45;&gt;Node1 -->
<g id="edge1_Node000001_Node000002" class="edge">
<title>Node2&#45;&gt;Node1</title>
<g id="a_edge1_Node000001_Node000002"><a xlink:title=" ">
<path fill="none" stroke="#63b8ff" d="M141.06,-115.01C175.43,-108.33 215.82,-100.48 248.87,-94.06"/>
<polygon fill="#63b8ff" stroke="#63b8ff" points="140.22,-111.61 131.07,-116.95 141.56,-118.48 140.22,-111.61"/>
</a>
</g>
</g>
<!-- Node3 -->
<g id="Node000003" class="node">
<title>Node3</title>
<g id="a_Node000003"><a xlink:href="classRealm_1_1CopyIndirection.html" target="_top" xlink:title=" ">
<polygon fill="white" stroke="#666666" points="131,-96.5 0,-96.5 0,-66.5 131,-66.5 131,-96.5"/>
<text text-anchor="start" x="8" y="-84.5" font-family="Helvetica,sans-Serif" font-size="10.00">Realm::CopyIndirection</text>
<text text-anchor="middle" x="65.5" y="-73.5" font-family="Helvetica,sans-Serif" font-size="10.00">&lt; N2, int &gt;</text>
</a>
</g>
</g>
<!-- Node3&#45;&gt;Node1 -->
<g id="edge2_Node000001_Node000003" class="edge">
<title>Node3&#45;&gt;Node1</title>
<g id="a_edge2_Node000001_Node000003"><a xlink:title=" ">
<path fill="none" stroke="#9a32cd" stroke-dasharray="5,2" d="M141.5,-81.5C175.77,-81.5 215.96,-81.5 248.87,-81.5"/>
<polygon fill="#9a32cd" stroke="#9a32cd" points="141.07,-78 131.07,-81.5 141.07,-85 141.07,-78"/>
</a>
</g>
<text text-anchor="middle" x="190" y="-84.5" font-family="Helvetica,sans-Serif" font-size="10.00" fill="grey"> next_indirection</text>
</g>
<!-- Node4 -->
<g id="Node000004" class="node">
<title>Node4</title>
<g id="a_Node000004"><a xlink:href="classRealm_1_1RegionInstance.html" target="_top" xlink:title=" ">
<polygon fill="white" stroke="#666666" points="130,-19 1,-19 1,0 130,0 130,-19"/>
<text text-anchor="middle" x="65.5" y="-7" font-family="Helvetica,sans-Serif" font-size="10.00">Realm::RegionInstance</text>
</a>
</g>
</g>
<!-- Node4&#45;&gt;Node1 -->
<g id="edge3_Node000001_Node000004" class="edge">
<title>Node4&#45;&gt;Node1</title>
<g id="a_edge3_Node000001_Node000004"><a xlink:title=" ">
<path fill="none" stroke="#9a32cd" stroke-dasharray="5,2" d="M109.12,-21.92C147.52,-33.12 204.52,-49.73 248.58,-62.58"/>
<polygon fill="#9a32cd" stroke="#9a32cd" points="109.88,-18.5 99.3,-19.06 107.92,-25.22 109.88,-18.5"/>
</a>
</g>
<text text-anchor="middle" x="190" y="-58.5" font-family="Helvetica,sans-Serif" font-size="10.00" fill="grey"> inst</text>
</g>
<!-- Node4&#45;&gt;Node4 -->
<g id="edge4_Node000004_Node000004" class="edge">
<title>Node4&#45;&gt;Node4</title>
<g id="a_edge4_Node000004_Node000004"><a xlink:title=" ">
<path fill="none" stroke="#9a32cd" stroke-dasharray="5,2" d="M42.54,-28.55C44.07,-33.38 51.73,-37 65.5,-37 87.54,-37 93.91,-27.73 84.61,-19.08"/>
<polygon fill="#9a32cd" stroke="#9a32cd" points="45.86,-29.66 46.39,-19.08 39.38,-27.03 45.86,-29.66"/>
</a>
</g>
<text text-anchor="middle" x="65.5" y="-40" font-family="Helvetica,sans-Serif" font-size="10.00" fill="grey"> NO_INST</text>
</g>
</g>
</svg>
