<?xml version="1.0" encoding="UTF-8" standalone="no"?>
<!DOCTYPE svg PUBLIC "-//W3C//DTD SVG 1.1//EN"
 "http://www.w3.org/Graphics/SVG/1.1/DTD/svg11.dtd">
<!-- Generated by graphviz version 2.43.0 (0)
 -->
<!-- Title: Realm::GASNetChannel Pages: 1 -->
<svg width="207pt" height="203pt"
 viewBox="0.00 0.00 207.00 203.00" xmlns="http://www.w3.org/2000/svg" xmlns:xlink="http://www.w3.org/1999/xlink">
<g id="graph0" class="graph" transform="scale(1 1) rotate(0) translate(4 199)">
<title>Realm::GASNetChannel</title>
<!-- Node1 -->
<g id="Node000001" class="node">
<title>Node1</title>
<g id="a_Node000001"><a xlink:title=" ">
<polygon fill="#999999" stroke="#666666" points="165,-19 34,-19 34,0 165,0 165,-19"/>
<text text-anchor="middle" x="99.5" y="-7" font-family="Helvetica,sans-Serif" font-size="10.00">Realm::GASNetChannel</text>
</a>
</g>
</g>
<!-- Node2 -->
<g id="Node000002" class="node">
<title>Node2</title>
<g id="a_Node000002"><a xlink:href="classRealm_1_1SingleXDQChannel.html" target="_top" xlink:title=" ">
<polygon fill="white" stroke="#666666" points="199,-85 0,-85 0,-55 199,-55 199,-85"/>
<text text-anchor="start" x="8" y="-73" font-family="Helvetica,sans-Serif" font-size="10.00">Realm::SingleXDQChannel</text>
<text text-anchor="middle" x="99.5" y="-62" font-family="Helvetica,sans-Serif" font-size="10.00">&lt; GASNetChannel, GASNetXferDes &gt;</text>
</a>
</g>
</g>
<!-- Node2&#45;&gt;Node1 -->
<g id="edge1_Node000001_Node000002" class="edge">
<title>Node2&#45;&gt;Node1</title>
<g id="a_edge1_Node000001_Node000002"><a xlink:title=" ">
<path fill="none" stroke="#63b8ff" d="M99.5,-44.75C99.5,-35.72 99.5,-26.03 99.5,-19.27"/>
<polygon fill="#63b8ff" stroke="#63b8ff" points="96,-44.84 99.5,-54.84 103,-44.84 96,-44.84"/>
</a>
</g>
</g>
<!-- Node3 -->
<g id="Node000003" class="node">
<title>Node3</title>
<g id="a_Node000003"><a xlink:href="classRealm_1_1LocalChannel.html" target="_top" xlink:title=" ">
<polygon fill="white" stroke="#666666" points="159,-140 40,-140 40,-121 159,-121 159,-140"/>
<text text-anchor="middle" x="99.5" y="-128" font-family="Helvetica,sans-Serif" font-size="10.00">Realm::LocalChannel</text>
</a>
</g>
</g>
<!-- Node3&#45;&gt;Node2 -->
<g id="edge2_Node000002_Node000003" class="edge">
<title>Node3&#45;&gt;Node2</title>
<g id="a_edge2_Node000002_Node000003"><a xlink:title=" ">
<path fill="none" stroke="#63b8ff" d="M99.5,-110.65C99.5,-102.36 99.5,-92.78 99.5,-85.11"/>
<polygon fill="#63b8ff" stroke="#63b8ff" points="96,-110.87 99.5,-120.87 103,-110.87 96,-110.87"/>
</a>
</g>
</g>
<!-- Node4 -->
<g id="Node000004" class="node">
<title>Node4</title>
<g id="a_Node000004"><a xlink:href="classRealm_1_1Channel.html" target="_top" xlink:title=" ">
<polygon fill="white" stroke="#666666" points="146.5,-195 52.5,-195 52.5,-176 146.5,-176 146.5,-195"/>
<text text-anchor="middle" x="99.5" y="-183" font-family="Helvetica,sans-Serif" font-size="10.00">Realm::Channel</text>
</a>
</g>
</g>
<!-- Node4&#45;&gt;Node3 -->
<g id="edge3_Node000003_Node000004" class="edge">
<title>Node4&#45;&gt;Node3</title>
<g id="a_edge3_Node000003_Node000004"><a xlink:title=" ">
<path fill="none" stroke="#63b8ff" d="M99.5,-165.66C99.5,-156.93 99.5,-146.99 99.5,-140.09"/>
<polygon fill="#63b8ff" stroke="#63b8ff" points="96,-165.75 99.5,-175.75 103,-165.75 96,-165.75"/>
</a>
</g>
</g>
</g>
</svg>
