<?xml version="1.0" encoding="UTF-8" standalone="no"?>
<!DOCTYPE svg PUBLIC "-//W3C//DTD SVG 1.1//EN"
 "http://www.w3.org/Graphics/SVG/1.1/DTD/svg11.dtd">
<!-- Generated by graphviz version 2.43.0 (0)
 -->
<!-- Title: Realm::ChunkedRecycler&lt; T, CHUNK_SIZE &gt; Pages: 1 -->
<svg width="957pt" height="172pt"
 viewBox="0.00 0.00 957.00 171.50" xmlns="http://www.w3.org/2000/svg" xmlns:xlink="http://www.w3.org/1999/xlink">
<g id="graph0" class="graph" transform="scale(1 1) rotate(0) translate(4 167.5)">
<title>Realm::ChunkedRecycler&lt; T, CHUNK_SIZE &gt;</title>
<!-- Node1 -->
<g id="Node000001" class="node">
<title>Node1</title>
<g id="a_Node000001"><a xlink:title=" ">
<polygon fill="#999999" stroke="#666666" points="940,-62.5 802,-62.5 802,-32.5 940,-32.5 940,-62.5"/>
<text text-anchor="start" x="810" y="-50.5" font-family="Helvetica,sans-Serif" font-size="10.00">Realm::ChunkedRecycler</text>
<text text-anchor="middle" x="871" y="-39.5" font-family="Helvetica,sans-Serif" font-size="10.00">&lt; T, CHUNK_SIZE &gt;</text>
</a>
</g>
</g>
<!-- Node2 -->
<g id="Node000002" class="node">
<title>Node2</title>
<g id="a_Node000002"><a xlink:href="classRealm_1_1UnfairMutex.html" target="_top" xlink:title=" ">
<polygon fill="white" stroke="#666666" points="672,-57 557,-57 557,-38 672,-38 672,-57"/>
<text text-anchor="middle" x="614.5" y="-45" font-family="Helvetica,sans-Serif" font-size="10.00">Realm::UnfairMutex</text>
</a>
</g>
</g>
<!-- Node2&#45;&gt;Node1 -->
<g id="edge1_Node000001_Node000002" class="edge">
<title>Node2&#45;&gt;Node1</title>
<g id="a_edge1_Node000001_Node000002"><a xlink:title=" ">
<path fill="none" stroke="#9a32cd" stroke-dasharray="5,2" d="M682.42,-47.5C719.16,-47.5 764.64,-47.5 801.61,-47.5"/>
<polygon fill="#9a32cd" stroke="#9a32cd" points="682.3,-44 672.3,-47.5 682.3,-51 682.3,-44"/>
</a>
</g>
<text text-anchor="middle" x="741.5" y="-50.5" font-family="Helvetica,sans-Serif" font-size="10.00" fill="grey"> mutex</text>
</g>
<!-- Node3 -->
<g id="Node000003" class="node">
<title>Node3</title>
<g id="a_Node000003"><a xlink:href="classRealm_1_1noncopyable.html" target="_top" xlink:title=" ">
<polygon fill="white" stroke="#666666" points="398.5,-93 282.5,-93 282.5,-74 398.5,-74 398.5,-93"/>
<text text-anchor="middle" x="340.5" y="-81" font-family="Helvetica,sans-Serif" font-size="10.00">Realm::noncopyable</text>
</a>
</g>
</g>
<!-- Node3&#45;&gt;Node2 -->
<g id="edge2_Node000002_Node000003" class="edge">
<title>Node3&#45;&gt;Node2</title>
<g id="a_edge2_Node000002_Node000003"><a xlink:title=" ">
<path fill="none" stroke="#63b8ff" d="M408.78,-76.34C442.52,-72.57 483.97,-67.67 521,-62.5 532.76,-60.86 545.34,-58.93 557.31,-57.02"/>
<polygon fill="#63b8ff" stroke="#63b8ff" points="408.13,-72.89 398.58,-77.48 408.9,-79.85 408.13,-72.89"/>
</a>
</g>
</g>
<!-- Node4 -->
<g id="Node000004" class="node">
<title>Node4</title>
<g id="a_Node000004"><a xlink:href="classRealm_1_1atomic.html" target="_top" xlink:title=" ">
<polygon fill="white" stroke="#666666" points="415.5,-56 265.5,-56 265.5,-37 415.5,-37 415.5,-56"/>
<text text-anchor="middle" x="340.5" y="-44" font-family="Helvetica,sans-Serif" font-size="10.00">Realm::atomic&lt; uint32_t &gt;</text>
</a>
</g>
</g>
<!-- Node4&#45;&gt;Node2 -->
<g id="edge3_Node000002_Node000004" class="edge">
<title>Node4&#45;&gt;Node2</title>
<g id="a_edge3_Node000002_Node000004"><a xlink:title=" ">
<path fill="none" stroke="#9a32cd" stroke-dasharray="5,2" d="M425.91,-46.81C468.53,-46.97 519.07,-47.15 556.96,-47.29"/>
<polygon fill="#9a32cd" stroke="#9a32cd" points="425.84,-43.31 415.83,-46.77 425.81,-50.31 425.84,-43.31"/>
</a>
</g>
<text text-anchor="middle" x="478.5" y="-50.5" font-family="Helvetica,sans-Serif" font-size="10.00" fill="grey"> state</text>
</g>
<!-- Node5 -->
<g id="Node000005" class="node">
<title>Node5</title>
<g id="a_Node000005"><a xlink:href="classRealm_1_1DoorbellList.html" target="_top" xlink:title=" ">
<polygon fill="white" stroke="#666666" points="397,-19 284,-19 284,0 397,0 397,-19"/>
<text text-anchor="middle" x="340.5" y="-7" font-family="Helvetica,sans-Serif" font-size="10.00">Realm::DoorbellList</text>
</a>
</g>
</g>
<!-- Node5&#45;&gt;Node2 -->
<g id="edge4_Node000002_Node000005" class="edge">
<title>Node5&#45;&gt;Node2</title>
<g id="a_edge4_Node000002_Node000005"><a xlink:title=" ">
<path fill="none" stroke="#9a32cd" stroke-dasharray="5,2" d="M407.61,-17.44C441.55,-21.65 483.52,-27.06 521,-32.5 532.59,-34.18 544.98,-36.1 556.8,-38"/>
<polygon fill="#9a32cd" stroke="#9a32cd" points="407.71,-13.92 397.35,-16.17 406.85,-20.87 407.71,-13.92"/>
</a>
</g>
<text text-anchor="middle" x="478.5" y="-35.5" font-family="Helvetica,sans-Serif" font-size="10.00" fill="grey"> db_list</text>
</g>
<!-- Node6 -->
<g id="Node000006" class="node">
<title>Node6</title>
<g id="a_Node000006"><a xlink:href="classRealm_1_1atomic.html" target="_top" xlink:title=" ">
<polygon fill="white" stroke="#666666" points="152,-19 0,-19 0,0 152,0 152,-19"/>
<text text-anchor="middle" x="76" y="-7" font-family="Helvetica,sans-Serif" font-size="10.00">Realm::atomic&lt; uintptr_t &gt;</text>
</a>
</g>
</g>
<!-- Node6&#45;&gt;Node5 -->
<g id="edge5_Node000005_Node000006" class="edge">
<title>Node6&#45;&gt;Node5</title>
<g id="a_edge5_Node000005_Node000006"><a xlink:title=" ">
<path fill="none" stroke="#9a32cd" stroke-dasharray="5,2" d="M162.47,-9.5C202.33,-9.5 248.63,-9.5 283.88,-9.5"/>
<polygon fill="#9a32cd" stroke="#9a32cd" points="162.22,-6 152.22,-9.5 162.22,-13 162.22,-6"/>
</a>
</g>
<text text-anchor="middle" x="207.5" y="-12.5" font-family="Helvetica,sans-Serif" font-size="10.00" fill="grey"> head_or_count</text>
</g>
<!-- Node7 -->
<g id="Node000007" class="node">
<title>Node7</title>
<g id="a_Node000007"><a xlink:href="structRealm_1_1ChunkedRecycler_1_1Chunk.html" target="_top" xlink:title=" ">
<polygon fill="white" stroke="#666666" points="690,-134.5 539,-134.5 539,-104.5 690,-104.5 690,-134.5"/>
<text text-anchor="start" x="547" y="-122.5" font-family="Helvetica,sans-Serif" font-size="10.00">Realm::ChunkedRecycler</text>
<text text-anchor="middle" x="614.5" y="-111.5" font-family="Helvetica,sans-Serif" font-size="10.00">&lt; T, CHUNK_SIZE &gt;::Chunk</text>
</a>
</g>
</g>
<!-- Node7&#45;&gt;Node1 -->
<g id="edge6_Node000001_Node000007" class="edge">
<title>Node7&#45;&gt;Node1</title>
<g id="a_edge6_Node000001_Node000007"><a xlink:title=" ">
<path fill="none" stroke="#9a32cd" stroke-dasharray="5,2" d="M678.22,-101.76C720.7,-89.74 776.22,-74.03 816.59,-62.61"/>
<polygon fill="#9a32cd" stroke="#9a32cd" points="677.21,-98.4 668.54,-104.49 679.12,-105.14 677.21,-98.4"/>
</a>
</g>
<text text-anchor="middle" x="741.5" y="-95.5" font-family="Helvetica,sans-Serif" font-size="10.00" fill="grey"> chunks_head</text>
</g>
<!-- Node7&#45;&gt;Node7 -->
<g id="edge8_Node000007_Node000007" class="edge">
<title>Node7&#45;&gt;Node7</title>
<g id="a_edge8_Node000007_Node000007"><a xlink:title=" ">
<path fill="none" stroke="#9a32cd" stroke-dasharray="5,2" d="M592.45,-145.1C595.46,-149.47 602.81,-152.5 614.5,-152.5 634.19,-152.5 641.57,-143.91 636.65,-134.78"/>
<polygon fill="#9a32cd" stroke="#9a32cd" points="595.94,-144.74 592.35,-134.78 588.94,-144.81 595.94,-144.74"/>
</a>
</g>
<text text-anchor="middle" x="614.5" y="-155.5" font-family="Helvetica,sans-Serif" font-size="10.00" fill="grey"> next_chunk</text>
</g>
<!-- Node9 -->
<g id="Node000009" class="node">
<title>Node9</title>
<g id="a_Node000009"><a xlink:href="structRealm_1_1ChunkedRecycler_1_1WithPtr.html" target="_top" xlink:title=" ">
<polygon fill="white" stroke="#666666" points="949,-151.5 793,-151.5 793,-121.5 949,-121.5 949,-151.5"/>
<text text-anchor="start" x="801" y="-139.5" font-family="Helvetica,sans-Serif" font-size="10.00">Realm::ChunkedRecycler</text>
<text text-anchor="middle" x="871" y="-128.5" font-family="Helvetica,sans-Serif" font-size="10.00">&lt; T, CHUNK_SIZE &gt;::WithPtr</text>
</a>
</g>
</g>
<!-- Node7&#45;&gt;Node9 -->
<g id="edge10_Node000009_Node000007" class="edge">
<title>Node7&#45;&gt;Node9</title>
<g id="a_edge10_Node000009_Node000007"><a xlink:title=" ">
<path fill="none" stroke="#9a32cd" stroke-dasharray="5,2" d="M700.48,-115.83C724.61,-115.63 750.88,-116.23 775,-118.5 782.69,-119.22 790.68,-120.27 798.62,-121.49"/>
<polygon fill="#9a32cd" stroke="#9a32cd" points="700.24,-112.33 690.29,-115.95 700.33,-119.33 700.24,-112.33"/>
</a>
</g>
<text text-anchor="middle" x="741.5" y="-121.5" font-family="Helvetica,sans-Serif" font-size="10.00" fill="grey"> backptr</text>
</g>
<!-- Node8 -->
<g id="Node000008" class="node">
<title>Node8</title>
<g id="a_Node000008"><a xlink:href="classRealm_1_1atomic.html" target="_top" xlink:title=" ">
<polygon fill="white" stroke="#666666" points="418,-130 263,-130 263,-111 418,-111 418,-130"/>
<text text-anchor="middle" x="340.5" y="-118" font-family="Helvetica,sans-Serif" font-size="10.00">Realm::atomic&lt; unsigned &gt;</text>
</a>
</g>
</g>
<!-- Node8&#45;&gt;Node7 -->
<g id="edge7_Node000007_Node000008" class="edge">
<title>Node8&#45;&gt;Node7</title>
<g id="a_edge7_Node000007_Node000008"><a xlink:title=" ">
<path fill="none" stroke="#9a32cd" stroke-dasharray="5,2" d="M428.69,-120.18C464.12,-120.05 504.65,-119.9 538.71,-119.77"/>
<polygon fill="#9a32cd" stroke="#9a32cd" points="428.34,-116.68 418.35,-120.22 428.37,-123.68 428.34,-116.68"/>
</a>
</g>
<text text-anchor="middle" x="478.5" y="-123.5" font-family="Helvetica,sans-Serif" font-size="10.00" fill="grey"> remaining_count</text>
</g>
<!-- Node9&#45;&gt;Node7 -->
<g id="edge9_Node000007_Node000009" class="edge">
<title>Node9&#45;&gt;Node7</title>
<g id="a_edge9_Node000007_Node000009"><a xlink:title=" ">
<path fill="none" stroke="#9a32cd" stroke-dasharray="5,2" d="M782.63,-135.37C758.43,-134.64 732.17,-133.44 708,-131.5 702.19,-131.03 696.18,-130.46 690.15,-129.82"/>
<polygon fill="#9a32cd" stroke="#9a32cd" points="782.77,-138.88 792.87,-135.66 782.97,-131.88 782.77,-138.88"/>
</a>
</g>
<text text-anchor="middle" x="741.5" y="-138.5" font-family="Helvetica,sans-Serif" font-size="10.00" fill="grey"> elements</text>
</g>
<!-- Node10 -->
<g id="Node000010" class="node">
<title>Node10</title>
<g id="a_Node000010"><a xlink:href="classRealm_1_1atomic.html" target="_top" xlink:title=" ">
<polygon fill="white" stroke="#666666" points="684,-20 545,-20 545,-1 684,-1 684,-20"/>
<text text-anchor="middle" x="614.5" y="-8" font-family="Helvetica,sans-Serif" font-size="10.00">Realm::atomic&lt; size_t &gt;</text>
</a>
</g>
</g>
<!-- Node10&#45;&gt;Node1 -->
<g id="edge11_Node000001_Node000010" class="edge">
<title>Node10&#45;&gt;Node1</title>
<g id="a_edge11_Node000001_Node000010"><a xlink:title=" ">
<path fill="none" stroke="#9a32cd" stroke-dasharray="5,2" d="M694.32,-21.06C720.05,-24.59 748.76,-28.62 775,-32.5 783.67,-33.78 792.78,-35.17 801.79,-36.57"/>
<polygon fill="#9a32cd" stroke="#9a32cd" points="694.62,-17.57 684.24,-19.68 693.67,-24.5 694.62,-17.57"/>
</a>
</g>
<text text-anchor="middle" x="741.5" y="-35.5" font-family="Helvetica,sans-Serif" font-size="10.00" fill="grey"> cur_alloc</text>
</g>
</g>
</svg>
