<?xml version="1.0" encoding="UTF-8" standalone="no"?>
<!DOCTYPE svg PUBLIC "-//W3C//DTD SVG 1.1//EN"
 "http://www.w3.org/Graphics/SVG/1.1/DTD/svg11.dtd">
<!-- Generated by graphviz version 2.43.0 (0)
 -->
<!-- Title: Realm::AffineLayoutPiece&lt; N, T &gt; Pages: 1 -->
<svg width="897pt" height="177pt"
 viewBox="0.00 0.00 897.00 177.00" xmlns="http://www.w3.org/2000/svg" xmlns:xlink="http://www.w3.org/1999/xlink">
<g id="graph0" class="graph" transform="scale(1 1) rotate(0) translate(4 173)">
<title>Realm::AffineLayoutPiece&lt; N, T &gt;</title>
<!-- Node1 -->
<g id="Node000001" class="node">
<title>Node1</title>
<g id="a_Node000001"><a xlink:title=" ">
<polygon fill="#999999" stroke="#666666" points="889,-83.5 747,-83.5 747,-53.5 889,-53.5 889,-83.5"/>
<text text-anchor="start" x="755" y="-71.5" font-family="Helvetica,sans-Serif" font-size="10.00">Realm::AffineLayoutPiece</text>
<text text-anchor="middle" x="818" y="-60.5" font-family="Helvetica,sans-Serif" font-size="10.00">&lt; N, T &gt;</text>
</a>
</g>
</g>
<!-- Node2 -->
<g id="Node000002" class="node">
<title>Node2</title>
<g id="a_Node000002"><a xlink:href="classRealm_1_1InstanceLayoutPiece.html" target="_top" xlink:title=" ">
<polygon fill="white" stroke="#666666" points="607,-148.5 452,-148.5 452,-118.5 607,-118.5 607,-148.5"/>
<text text-anchor="start" x="460" y="-136.5" font-family="Helvetica,sans-Serif" font-size="10.00">Realm::InstanceLayoutPiece</text>
<text text-anchor="middle" x="529.5" y="-125.5" font-family="Helvetica,sans-Serif" font-size="10.00">&lt; N, T &gt;</text>
</a>
</g>
</g>
<!-- Node2&#45;&gt;Node1 -->
<g id="edge1_Node000001_Node000002" class="edge">
<title>Node2&#45;&gt;Node1</title>
<g id="a_edge1_Node000001_Node000002"><a xlink:title=" ">
<path fill="none" stroke="#63b8ff" d="M606.89,-116.17C651.6,-106.03 707.51,-93.34 750.42,-83.61"/>
<polygon fill="#63b8ff" stroke="#63b8ff" points="605.93,-112.8 596.95,-118.42 607.48,-119.62 605.93,-112.8"/>
</a>
</g>
</g>
<!-- Node3 -->
<g id="Node000003" class="node">
<title>Node3</title>
<g id="a_Node000003"><a xlink:href="classRealm_1_1InstanceLayoutPieceBase.html" target="_top" xlink:title=" ">
<polygon fill="white" stroke="#666666" points="356,-169 177,-169 177,-150 356,-150 356,-169"/>
<text text-anchor="middle" x="266.5" y="-157" font-family="Helvetica,sans-Serif" font-size="10.00">Realm::InstanceLayoutPieceBase</text>
</a>
</g>
</g>
<!-- Node3&#45;&gt;Node2 -->
<g id="edge2_Node000002_Node000003" class="edge">
<title>Node3&#45;&gt;Node2</title>
<g id="a_edge2_Node000002_Node000003"><a xlink:title=" ">
<path fill="none" stroke="#63b8ff" d="M366.53,-149.64C394.77,-146.82 425.1,-143.8 451.79,-141.14"/>
<polygon fill="#63b8ff" stroke="#63b8ff" points="365.83,-146.19 356.23,-150.66 366.52,-153.15 365.83,-146.19"/>
</a>
</g>
</g>
<!-- Node4 -->
<g id="Node000004" class="node">
<title>Node4</title>
<g id="a_Node000004"><a xlink:href="structRealm_1_1Rect.html" target="_top" xlink:title=" ">
<polygon fill="white" stroke="#666666" points="329,-132 204,-132 204,-113 329,-113 329,-132"/>
<text text-anchor="middle" x="266.5" y="-120" font-family="Helvetica,sans-Serif" font-size="10.00">Realm::Rect&lt; N, int &gt;</text>
</a>
</g>
</g>
<!-- Node4&#45;&gt;Node2 -->
<g id="edge3_Node000002_Node000004" class="edge">
<title>Node4&#45;&gt;Node2</title>
<g id="a_edge3_Node000002_Node000004"><a xlink:title=" ">
<path fill="none" stroke="#9a32cd" stroke-dasharray="5,2" d="M339.17,-125.52C374.18,-127 416.34,-128.77 451.98,-130.28"/>
<polygon fill="#9a32cd" stroke="#9a32cd" points="339.16,-122.02 329.02,-125.09 338.87,-129.01 339.16,-122.02"/>
</a>
</g>
<text text-anchor="middle" x="393.5" y="-130.5" font-family="Helvetica,sans-Serif" font-size="10.00" fill="grey"> bounds</text>
</g>
<!-- Node5 -->
<g id="Node000005" class="node">
<title>Node5</title>
<g id="a_Node000005"><a xlink:href="structRealm_1_1Point.html" target="_top" xlink:title=" ">
<polygon fill="white" stroke="#666666" points="128,-132 0,-132 0,-113 128,-113 128,-132"/>
<text text-anchor="middle" x="64" y="-120" font-family="Helvetica,sans-Serif" font-size="10.00">Realm::Point&lt; N, int &gt;</text>
</a>
</g>
</g>
<!-- Node5&#45;&gt;Node4 -->
<g id="edge4_Node000004_Node000005" class="edge">
<title>Node5&#45;&gt;Node4</title>
<g id="a_edge4_Node000004_Node000005"><a xlink:title=" ">
<path fill="none" stroke="#9a32cd" stroke-dasharray="5,2" d="M138.22,-122.5C159.71,-122.5 182.98,-122.5 203.68,-122.5"/>
<polygon fill="#9a32cd" stroke="#9a32cd" points="138.16,-119 128.16,-122.5 138.16,-126 138.16,-119"/>
</a>
</g>
<text text-anchor="middle" x="152.5" y="-136.5" font-family="Helvetica,sans-Serif" font-size="10.00" fill="grey"> hi</text>
<text text-anchor="middle" x="152.5" y="-125.5" font-family="Helvetica,sans-Serif" font-size="10.00" fill="grey">lo</text>
</g>
<!-- Node6 -->
<g id="Node000006" class="node">
<title>Node6</title>
<g id="a_Node000006"><a xlink:href="classRealm_1_1Serialization_1_1PolymorphicSerdezSubclass.html" target="_top" xlink:title=" ">
<polygon fill="white" stroke="#666666" points="628,-100 431,-100 431,-37 628,-37 628,-100"/>
<text text-anchor="start" x="439" y="-88" font-family="Helvetica,sans-Serif" font-size="10.00">Realm::Serialization</text>
<text text-anchor="start" x="439" y="-77" font-family="Helvetica,sans-Serif" font-size="10.00">::PolymorphicSerdezSubclass</text>
<text text-anchor="start" x="439" y="-66" font-family="Helvetica,sans-Serif" font-size="10.00">&lt; Realm::InstanceLayoutPiece</text>
<text text-anchor="start" x="439" y="-55" font-family="Helvetica,sans-Serif" font-size="10.00">&lt; N, int &gt;, Realm::AffineLayoutPiece</text>
<text text-anchor="middle" x="529.5" y="-44" font-family="Helvetica,sans-Serif" font-size="10.00">&lt; N, int &gt; &gt;</text>
</a>
</g>
</g>
<!-- Node6&#45;&gt;Node1 -->
<g id="edge5_Node000001_Node000006" class="edge">
<title>Node6&#45;&gt;Node1</title>
<g id="a_edge5_Node000001_Node000006"><a xlink:title=" ">
<path fill="none" stroke="#9a32cd" stroke-dasharray="5,2" d="M638.43,-68.5C674.68,-68.5 714.16,-68.5 746.75,-68.5"/>
<polygon fill="#9a32cd" stroke="#9a32cd" points="638.3,-65 628.3,-68.5 638.3,-72 638.3,-65"/>
</a>
</g>
<text text-anchor="middle" x="687.5" y="-71.5" font-family="Helvetica,sans-Serif" font-size="10.00" fill="grey"> serdez_subclass</text>
</g>
<!-- Node7 -->
<g id="Node000007" class="node">
<title>Node7</title>
<g id="a_Node000007"><a xlink:href="classRealm_1_1Serialization_1_1PolymorphicSerdezIntfc.html" target="_top" xlink:title=" ">
<polygon fill="white" stroke="#666666" points="350,-83.5 183,-83.5 183,-53.5 350,-53.5 350,-83.5"/>
<text text-anchor="start" x="191" y="-71.5" font-family="Helvetica,sans-Serif" font-size="10.00">Realm::Serialization</text>
<text text-anchor="middle" x="266.5" y="-60.5" font-family="Helvetica,sans-Serif" font-size="10.00">::PolymorphicSerdezIntfc&lt; T &gt;</text>
</a>
</g>
</g>
<!-- Node7&#45;&gt;Node6 -->
<g id="edge6_Node000006_Node000007" class="edge">
<title>Node7&#45;&gt;Node6</title>
<g id="a_edge6_Node000006_Node000007"><a xlink:title=" ">
<path fill="none" stroke="#63b8ff" d="M360.15,-68.5C383.1,-68.5 407.76,-68.5 430.94,-68.5"/>
<polygon fill="#63b8ff" stroke="#63b8ff" points="360.08,-65 350.08,-68.5 360.08,-72 360.08,-65"/>
</a>
</g>
</g>
<!-- Node8 -->
<g id="Node000008" class="node">
<title>Node8</title>
<g id="a_Node000008"><a xlink:href="structRealm_1_1Point.html" target="_top" xlink:title=" ">
<polygon fill="white" stroke="#666666" points="601,-19 458,-19 458,0 601,0 601,-19"/>
<text text-anchor="middle" x="529.5" y="-7" font-family="Helvetica,sans-Serif" font-size="10.00">Realm::Point&lt; N, size_t &gt;</text>
</a>
</g>
</g>
<!-- Node8&#45;&gt;Node1 -->
<g id="edge7_Node000001_Node000008" class="edge">
<title>Node8&#45;&gt;Node1</title>
<g id="a_edge7_Node000001_Node000008"><a xlink:title=" ">
<path fill="none" stroke="#9a32cd" stroke-dasharray="5,2" d="M593.63,-20.86C605.08,-23 616.91,-25.27 628,-27.5 668.66,-35.66 714.07,-45.49 750.19,-53.48"/>
<polygon fill="#9a32cd" stroke="#9a32cd" points="594.16,-17.4 583.69,-19.01 592.88,-24.28 594.16,-17.4"/>
</a>
</g>
<text text-anchor="middle" x="687.5" y="-51.5" font-family="Helvetica,sans-Serif" font-size="10.00" fill="grey"> strides</text>
</g>
</g>
</svg>
