<?xml version="1.0" encoding="UTF-8" standalone="no"?>
<!DOCTYPE svg PUBLIC "-//W3C//DTD SVG 1.1//EN"
 "http://www.w3.org/Graphics/SVG/1.1/DTD/svg11.dtd">
<!-- Generated by graphviz version 2.43.0 (0)
 -->
<!-- Title: Realm::IntervalTree&lt; IT, LT &gt; Pages: 1 -->
<svg width="165pt" height="115pt"
 viewBox="0.00 0.00 165.00 115.00" xmlns="http://www.w3.org/2000/svg" xmlns:xlink="http://www.w3.org/1999/xlink">
<g id="graph0" class="graph" transform="scale(1 1) rotate(0) translate(4 111)">
<title>Realm::IntervalTree&lt; IT, LT &gt;</title>
<!-- Node1 -->
<g id="Node000001" class="node">
<title>Node1</title>
<g id="a_Node000001"><a xlink:title=" ">
<polygon fill="#999999" stroke="#666666" points="114,-30 2,-30 2,0 114,0 114,-30"/>
<text text-anchor="start" x="10" y="-18" font-family="Helvetica,sans-Serif" font-size="10.00">Realm::IntervalTree</text>
<text text-anchor="middle" x="58" y="-7" font-family="Helvetica,sans-Serif" font-size="10.00">&lt; IT, LT &gt;</text>
</a>
</g>
</g>
<!-- Node2 -->
<g id="Node000002" class="node">
<title>Node2</title>
<g id="a_Node000002"><a xlink:href="structRealm_1_1IntervalTree_1_1TreeNode.html" target="_top" xlink:title=" ">
<polygon fill="white" stroke="#666666" points="116,-107 0,-107 0,-77 116,-77 116,-107"/>
<text text-anchor="start" x="8" y="-95" font-family="Helvetica,sans-Serif" font-size="10.00">Realm::IntervalTree</text>
<text text-anchor="middle" x="58" y="-84" font-family="Helvetica,sans-Serif" font-size="10.00">&lt; IT, LT &gt;::TreeNode</text>
</a>
</g>
</g>
<!-- Node2&#45;&gt;Node1 -->
<g id="edge1_Node000001_Node000002" class="edge">
<title>Node2&#45;&gt;Node1</title>
<g id="a_edge1_Node000001_Node000002"><a xlink:title=" ">
<path fill="none" stroke="#9a32cd" stroke-dasharray="5,2" d="M58,-66.54C58,-54.45 58,-40.29 58,-30.04"/>
<polygon fill="#9a32cd" stroke="#9a32cd" points="54.5,-66.89 58,-76.89 61.5,-66.89 54.5,-66.89"/>
</a>
</g>
<text text-anchor="middle" x="69.5" y="-51" font-family="Helvetica,sans-Serif" font-size="10.00" fill="grey"> root</text>
</g>
<!-- Node2&#45;&gt;Node2 -->
<g id="edge2_Node000002_Node000002" class="edge">
<title>Node2&#45;&gt;Node2</title>
<g id="a_edge2_Node000002_Node000002"><a xlink:title=" ">
<path fill="none" stroke="#9a32cd" stroke-dasharray="5,2" d="M126.48,-97.15C131.16,-95.97 134,-94.25 134,-92 134,-88.4 126.73,-86.16 116.31,-85.29"/>
<polygon fill="#9a32cd" stroke="#9a32cd" points="125.67,-93.74 116.31,-98.71 126.73,-100.65 125.67,-93.74"/>
</a>
</g>
<text text-anchor="middle" x="145.5" y="-95" font-family="Helvetica,sans-Serif" font-size="10.00" fill="grey"> left</text>
<text text-anchor="middle" x="145.5" y="-84" font-family="Helvetica,sans-Serif" font-size="10.00" fill="grey">right</text>
</g>
</g>
</svg>
