<?xml version="1.0" encoding="UTF-8" standalone="no"?>
<!DOCTYPE svg PUBLIC "-//W3C//DTD SVG 1.1//EN"
 "http://www.w3.org/Graphics/SVG/1.1/DTD/svg11.dtd">
<!-- Generated by graphviz version 2.43.0 (0)
 -->
<!-- Title: Realm::XDQueue&lt; CHANNEL, XD &gt; Pages: 1 -->
<svg width="1851pt" height="811pt"
 viewBox="0.00 0.00 1851.00 811.14" xmlns="http://www.w3.org/2000/svg" xmlns:xlink="http://www.w3.org/1999/xlink">
<g id="graph0" class="graph" transform="scale(1 1) rotate(0) translate(4 807.14)">
<title>Realm::XDQueue&lt; CHANNEL, XD &gt;</title>
<!-- Node1 -->
<g id="Node000001" class="node">
<title>Node1</title>
<g id="a_Node000001"><a xlink:title=" ">
<polygon fill="#999999" stroke="#666666" points="1843,-389.14 1682,-389.14 1682,-359.14 1843,-359.14 1843,-389.14"/>
<text text-anchor="start" x="1690" y="-377.14" font-family="Helvetica,sans-Serif" font-size="10.00">Realm::XDQueue&lt; CHANNEL,</text>
<text text-anchor="middle" x="1762.5" y="-366.14" font-family="Helvetica,sans-Serif" font-size="10.00"> XD &gt;</text>
</a>
</g>
</g>
<!-- Node2 -->
<g id="Node000002" class="node">
<title>Node2</title>
<g id="a_Node000002"><a xlink:href="classRealm_1_1BackgroundWorkItem.html" target="_top" xlink:title=" ">
<polygon fill="white" stroke="#666666" points="654,-252.64 495,-252.64 495,-233.64 654,-233.64 654,-252.64"/>
<text text-anchor="middle" x="574.5" y="-240.64" font-family="Helvetica,sans-Serif" font-size="10.00">Realm::BackgroundWorkItem</text>
</a>
</g>
</g>
<!-- Node2&#45;&gt;Node1 -->
<g id="edge1_Node000001_Node000002" class="edge">
<title>Node2&#45;&gt;Node1</title>
<g id="a_edge1_Node000001_Node000002"><a xlink:title=" ">
<path fill="none" stroke="#63b8ff" d="M664.31,-253.77C731.96,-260.95 827.47,-269.14 911.5,-269.14 911.5,-269.14 911.5,-269.14 1492.5,-269.14 1590.26,-269.14 1695.17,-330.06 1739.61,-359.09"/>
<polygon fill="#63b8ff" stroke="#63b8ff" points="664.44,-250.26 654.12,-252.67 663.69,-257.22 664.44,-250.26"/>
</a>
</g>
</g>
<!-- Node3 -->
<g id="Node000003" class="node">
<title>Node3</title>
<g id="a_Node000003"><a xlink:href="classRealm_1_1BackgroundWorkManager.html" target="_top" xlink:title=" ">
<polygon fill="white" stroke="#666666" points="1002,-201.64 823,-201.64 823,-182.64 1002,-182.64 1002,-201.64"/>
<text text-anchor="middle" x="912.5" y="-189.64" font-family="Helvetica,sans-Serif" font-size="10.00">Realm::BackgroundWorkManager</text>
</a>
</g>
</g>
<!-- Node2&#45;&gt;Node3 -->
<g id="edge12_Node000003_Node000002" class="edge">
<title>Node2&#45;&gt;Node3</title>
<g id="a_edge12_Node000003_Node000002"><a xlink:title=" ">
<path fill="none" stroke="#9a32cd" stroke-dasharray="5,2" d="M664.14,-238.18C706.94,-234.88 758.89,-229.56 805,-221.14 831.2,-216.35 860.35,-208.21 881.52,-201.77"/>
<polygon fill="#9a32cd" stroke="#9a32cd" points="663.74,-234.7 654.03,-238.93 664.26,-241.68 663.74,-234.7"/>
</a>
</g>
<text text-anchor="middle" x="743.5" y="-239.14" font-family="Helvetica,sans-Serif" font-size="10.00" fill="grey"> work_items</text>
</g>
<!-- Node3&#45;&gt;Node2 -->
<g id="edge2_Node000002_Node000003" class="edge">
<title>Node3&#45;&gt;Node2</title>
<g id="a_edge2_Node000002_Node000003"><a xlink:title=" ">
<path fill="none" stroke="#9a32cd" stroke-dasharray="5,2" d="M812.68,-195.08C771.94,-197.53 724.43,-202.01 682,-210.14 653.67,-215.57 622.24,-225.86 600.92,-233.51"/>
<polygon fill="#9a32cd" stroke="#9a32cd" points="813.1,-198.56 822.89,-194.5 812.7,-191.57 813.1,-198.56"/>
</a>
</g>
<text text-anchor="middle" x="743.5" y="-213.14" font-family="Helvetica,sans-Serif" font-size="10.00" fill="grey"> manager</text>
</g>
<!-- Node4 -->
<g id="Node000004" class="node">
<title>Node4</title>
<g id="a_Node000004"><a xlink:href="structRealm_1_1BackgroundWorkManager_1_1Config.html" target="_top" xlink:title=" ">
<polygon fill="white" stroke="#666666" points="664,-201.14 485,-201.14 485,-171.14 664,-171.14 664,-201.14"/>
<text text-anchor="start" x="493" y="-189.14" font-family="Helvetica,sans-Serif" font-size="10.00">Realm::BackgroundWorkManager</text>
<text text-anchor="middle" x="574.5" y="-178.14" font-family="Helvetica,sans-Serif" font-size="10.00">::Config</text>
</a>
</g>
</g>
<!-- Node4&#45;&gt;Node3 -->
<g id="edge3_Node000003_Node000004" class="edge">
<title>Node4&#45;&gt;Node3</title>
<g id="a_edge3_Node000003_Node000004"><a xlink:title=" ">
<path fill="none" stroke="#9a32cd" stroke-dasharray="5,2" d="M674.24,-176.54C676.85,-176.39 679.44,-176.26 682,-176.14 736.61,-173.58 750.49,-172.07 805,-176.14 822.53,-177.45 841.54,-179.95 858.59,-182.6"/>
<polygon fill="#9a32cd" stroke="#9a32cd" points="673.84,-173.06 664.08,-177.19 674.28,-180.05 673.84,-173.06"/>
</a>
</g>
<text text-anchor="middle" x="743.5" y="-179.14" font-family="Helvetica,sans-Serif" font-size="10.00" fill="grey"> cfg</text>
</g>
<!-- Node5 -->
<g id="Node000005" class="node">
<title>Node5</title>
<g id="a_Node000005"><a xlink:href="classRealm_1_1UnfairMutex.html" target="_top" xlink:title=" ">
<polygon fill="white" stroke="#666666" points="632,-418.64 517,-418.64 517,-399.64 632,-399.64 632,-418.64"/>
<text text-anchor="middle" x="574.5" y="-406.64" font-family="Helvetica,sans-Serif" font-size="10.00">Realm::UnfairMutex</text>
</a>
</g>
</g>
<!-- Node5&#45;&gt;Node1 -->
<g id="edge21_Node000001_Node000005" class="edge">
<title>Node5&#45;&gt;Node1</title>
<g id="a_edge21_Node000001_Node000005"><a xlink:title=" ">
<path fill="none" stroke="#9a32cd" stroke-dasharray="5,2" d="M642.39,-419.75C689.74,-424.3 753.69,-424.31 805,-402.14 815.39,-397.65 812.87,-389.17 823,-384.14 922.85,-334.58 960.03,-350.14 1071.5,-350.14 1071.5,-350.14 1071.5,-350.14 1492.5,-350.14 1556.38,-350.14 1628.46,-356.94 1681.92,-363.3"/>
<polygon fill="#9a32cd" stroke="#9a32cd" points="642.56,-416.24 632.25,-418.68 641.83,-423.21 642.56,-416.24"/>
</a>
</g>
<text text-anchor="middle" x="1202.5" y="-353.14" font-family="Helvetica,sans-Serif" font-size="10.00" fill="grey"> mutex</text>
</g>
<!-- Node5&#45;&gt;Node3 -->
<g id="edge4_Node000003_Node000005" class="edge">
<title>Node5&#45;&gt;Node3</title>
<g id="a_edge4_Node000003_Node000005"><a xlink:title=" ">
<path fill="none" stroke="#9a32cd" stroke-dasharray="5,2" d="M637.8,-397.67C696.14,-386.03 778.24,-367.08 805,-348.14 860.95,-308.55 896.53,-229.63 907.71,-201.98"/>
<polygon fill="#9a32cd" stroke="#9a32cd" points="637.06,-394.24 627.93,-399.61 638.42,-401.11 637.06,-394.24"/>
</a>
</g>
<text text-anchor="middle" x="743.5" y="-390.14" font-family="Helvetica,sans-Serif" font-size="10.00" fill="grey"> mutex</text>
</g>
<!-- Node21 -->
<g id="Node000021" class="node">
<title>Node21</title>
<g id="a_Node000021"><a xlink:href="classRealm_1_1XferDes.html" target="_top" xlink:title=" ">
<polygon fill="white" stroke="#666666" points="1249,-569.64 1156,-569.64 1156,-550.64 1249,-550.64 1249,-569.64"/>
<text text-anchor="middle" x="1202.5" y="-557.64" font-family="Helvetica,sans-Serif" font-size="10.00">Realm::XferDes</text>
</a>
</g>
</g>
<!-- Node5&#45;&gt;Node21 -->
<g id="edge33_Node000021_Node000005" class="edge">
<title>Node5&#45;&gt;Node21</title>
<g id="a_edge33_Node000021_Node000005"><a xlink:title=" ">
<path fill="none" stroke="#9a32cd" stroke-dasharray="5,2" d="M599.64,-423.78C642.74,-449.12 736.52,-500.68 823,-524.14 939.9,-555.85 1083.69,-560.6 1155.75,-560.74"/>
<polygon fill="#9a32cd" stroke="#9a32cd" points="601.38,-420.74 591,-418.65 597.81,-426.76 601.38,-420.74"/>
</a>
</g>
<text text-anchor="middle" x="912.5" y="-589.14" font-family="Helvetica,sans-Serif" font-size="10.00" fill="grey"> available_req_mutex</text>
<text text-anchor="middle" x="912.5" y="-578.14" font-family="Helvetica,sans-Serif" font-size="10.00" fill="grey">update_read_lock</text>
<text text-anchor="middle" x="912.5" y="-567.14" font-family="Helvetica,sans-Serif" font-size="10.00" fill="grey">update_write_lock</text>
<text text-anchor="middle" x="912.5" y="-556.14" font-family="Helvetica,sans-Serif" font-size="10.00" fill="grey">xd_lock</text>
</g>
<!-- Node22 -->
<g id="Node000022" class="node">
<title>Node22</title>
<g id="a_Node000022"><a xlink:href="classRealm_1_1XferDesQueue.html" target="_top" xlink:title=" ">
<polygon fill="white" stroke="#666666" points="975,-632.64 850,-632.64 850,-613.64 975,-613.64 975,-632.64"/>
<text text-anchor="middle" x="912.5" y="-620.64" font-family="Helvetica,sans-Serif" font-size="10.00">Realm::XferDesQueue</text>
</a>
</g>
</g>
<!-- Node5&#45;&gt;Node22 -->
<g id="edge26_Node000022_Node000005" class="edge">
<title>Node5&#45;&gt;Node22</title>
<g id="a_edge26_Node000022_Node000005"><a xlink:title=" ">
<path fill="none" stroke="#9a32cd" stroke-dasharray="5,2" d="M583.37,-428.09C597.88,-460.66 632.02,-527.11 682,-562.14 689.92,-567.69 809.67,-597.91 872.95,-613.63"/>
<polygon fill="#9a32cd" stroke="#9a32cd" points="586.53,-426.58 579.35,-418.79 580.1,-429.36 586.53,-426.58"/>
</a>
</g>
<text text-anchor="middle" x="743.5" y="-609.14" font-family="Helvetica,sans-Serif" font-size="10.00" fill="grey"> guid_lock</text>
<text text-anchor="middle" x="743.5" y="-598.14" font-family="Helvetica,sans-Serif" font-size="10.00" fill="grey">queues_lock</text>
</g>
<!-- Node6 -->
<g id="Node000006" class="node">
<title>Node6</title>
<g id="a_Node000006"><a xlink:href="classRealm_1_1noncopyable.html" target="_top" xlink:title=" ">
<polygon fill="white" stroke="#666666" points="396,-418.64 280,-418.64 280,-399.64 396,-399.64 396,-418.64"/>
<text text-anchor="middle" x="338" y="-406.64" font-family="Helvetica,sans-Serif" font-size="10.00">Realm::noncopyable</text>
</a>
</g>
</g>
<!-- Node6&#45;&gt;Node5 -->
<g id="edge5_Node000005_Node000006" class="edge">
<title>Node6&#45;&gt;Node5</title>
<g id="a_edge5_Node000005_Node000006"><a xlink:title=" ">
<path fill="none" stroke="#63b8ff" d="M406.21,-409.14C441.26,-409.14 483.65,-409.14 516.99,-409.14"/>
<polygon fill="#63b8ff" stroke="#63b8ff" points="406.07,-405.64 396.07,-409.14 406.07,-412.64 406.07,-405.64"/>
</a>
</g>
</g>
<!-- Node7 -->
<g id="Node000007" class="node">
<title>Node7</title>
<g id="a_Node000007"><a xlink:href="classRealm_1_1atomic.html" target="_top" xlink:title=" ">
<polygon fill="white" stroke="#666666" points="413,-174.64 263,-174.64 263,-155.64 413,-155.64 413,-174.64"/>
<text text-anchor="middle" x="338" y="-162.64" font-family="Helvetica,sans-Serif" font-size="10.00">Realm::atomic&lt; uint32_t &gt;</text>
</a>
</g>
</g>
<!-- Node7&#45;&gt;Node3 -->
<g id="edge13_Node000003_Node000007" class="edge">
<title>Node7&#45;&gt;Node3</title>
<g id="a_edge13_Node000003_Node000007"><a xlink:title=" ">
<path fill="none" stroke="#9a32cd" stroke-dasharray="5,2" d="M423.28,-155.67C443.47,-153.79 464.98,-152.1 485,-151.14 627.28,-144.33 664.6,-145.06 805,-169.14 827,-172.91 851.35,-178.09 871.2,-182.58"/>
<polygon fill="#9a32cd" stroke="#9a32cd" points="422.8,-152.2 413.18,-156.64 423.46,-159.17 422.8,-152.2"/>
</a>
</g>
<text text-anchor="middle" x="574.5" y="-154.14" font-family="Helvetica,sans-Serif" font-size="10.00" fill="grey"> worker_state</text>
</g>
<!-- Node7&#45;&gt;Node5 -->
<g id="edge6_Node000005_Node000007" class="edge">
<title>Node7&#45;&gt;Node5</title>
<g id="a_edge6_Node000005_Node000007"><a xlink:title=" ">
<path fill="none" stroke="#9a32cd" stroke-dasharray="5,2" d="M346.79,-184.26C364.78,-226.04 413.23,-326.09 485,-380.14 496.75,-388.99 511.33,-395.21 525.25,-399.56"/>
<polygon fill="#9a32cd" stroke="#9a32cd" points="349.98,-182.81 342.88,-174.95 343.53,-185.53 349.98,-182.81"/>
</a>
</g>
<text text-anchor="middle" x="449" y="-364.14" font-family="Helvetica,sans-Serif" font-size="10.00" fill="grey"> state</text>
</g>
<!-- Node8 -->
<g id="Node000008" class="node">
<title>Node8</title>
<g id="a_Node000008"><a xlink:href="classRealm_1_1DoorbellList.html" target="_top" xlink:title=" ">
<polygon fill="white" stroke="#666666" points="394.5,-126.64 281.5,-126.64 281.5,-107.64 394.5,-107.64 394.5,-126.64"/>
<text text-anchor="middle" x="338" y="-114.64" font-family="Helvetica,sans-Serif" font-size="10.00">Realm::DoorbellList</text>
</a>
</g>
</g>
<!-- Node8&#45;&gt;Node3 -->
<g id="edge16_Node000003_Node000008" class="edge">
<title>Node8&#45;&gt;Node3</title>
<g id="a_edge16_Node000003_Node000008"><a xlink:title=" ">
<path fill="none" stroke="#9a32cd" stroke-dasharray="5,2" d="M404.79,-113.7C496.16,-110.64 665.93,-111.2 805,-147.14 837.26,-155.47 872.46,-171.92 893.23,-182.45"/>
<polygon fill="#9a32cd" stroke="#9a32cd" points="404.44,-110.21 394.58,-114.07 404.7,-117.2 404.44,-110.21"/>
</a>
</g>
<text text-anchor="middle" x="574.5" y="-124.14" font-family="Helvetica,sans-Serif" font-size="10.00" fill="grey"> db_list</text>
</g>
<!-- Node8&#45;&gt;Node5 -->
<g id="edge7_Node000005_Node000008" class="edge">
<title>Node8&#45;&gt;Node5</title>
<g id="a_edge7_Node000005_Node000008"><a xlink:title=" ">
<path fill="none" stroke="#9a32cd" stroke-dasharray="5,2" d="M389.34,-130.55C398.11,-134.71 406.49,-140.13 413,-147.14 466.36,-204.61 444.53,-240 467,-315.14 475.59,-343.86 464.3,-358.45 485,-380.14 493.6,-389.14 505.03,-395.36 516.81,-399.64"/>
<polygon fill="#9a32cd" stroke="#9a32cd" points="390.7,-127.32 380.13,-126.65 387.97,-133.77 390.7,-127.32"/>
</a>
</g>
<text text-anchor="middle" x="449" y="-318.14" font-family="Helvetica,sans-Serif" font-size="10.00" fill="grey"> db_list</text>
</g>
<!-- Node9 -->
<g id="Node000009" class="node">
<title>Node9</title>
<g id="a_Node000009"><a xlink:href="classRealm_1_1atomic.html" target="_top" xlink:title=" ">
<polygon fill="white" stroke="#666666" points="152,-126.64 0,-126.64 0,-107.64 152,-107.64 152,-126.64"/>
<text text-anchor="middle" x="76" y="-114.64" font-family="Helvetica,sans-Serif" font-size="10.00">Realm::atomic&lt; uintptr_t &gt;</text>
</a>
</g>
</g>
<!-- Node9&#45;&gt;Node8 -->
<g id="edge8_Node000008_Node000009" class="edge">
<title>Node9&#45;&gt;Node8</title>
<g id="a_edge8_Node000008_Node000009"><a xlink:title=" ">
<path fill="none" stroke="#9a32cd" stroke-dasharray="5,2" d="M162.52,-117.14C201.61,-117.14 246.79,-117.14 281.38,-117.14"/>
<polygon fill="#9a32cd" stroke="#9a32cd" points="162.2,-113.64 152.2,-117.14 162.2,-120.64 162.2,-113.64"/>
</a>
</g>
<text text-anchor="middle" x="207.5" y="-120.14" font-family="Helvetica,sans-Serif" font-size="10.00" fill="grey"> head_or_count</text>
</g>
<!-- Node10 -->
<g id="Node000010" class="node">
<title>Node10</title>
<g id="a_Node000010"><a xlink:href="classRealm_1_1atomic.html" target="_top" xlink:title=" ">
<polygon fill="white" stroke="#666666" points="652,-370.64 497,-370.64 497,-351.64 652,-351.64 652,-370.64"/>
<text text-anchor="middle" x="574.5" y="-358.64" font-family="Helvetica,sans-Serif" font-size="10.00">Realm::atomic&lt; unsigned &gt;</text>
</a>
</g>
</g>
<!-- Node10&#45;&gt;Node3 -->
<g id="edge9_Node000003_Node000010" class="edge">
<title>Node10&#45;&gt;Node3</title>
<g id="a_edge9_Node000003_Node000010"><a xlink:title=" ">
<path fill="none" stroke="#9a32cd" stroke-dasharray="5,2" d="M625.44,-349.11C688.14,-333.78 789.4,-308.19 805,-299.14 850.11,-272.96 889.44,-222.82 904.72,-201.8"/>
<polygon fill="#9a32cd" stroke="#9a32cd" points="624.24,-345.8 615.35,-351.57 625.9,-352.6 624.24,-345.8"/>
</a>
</g>
<text text-anchor="middle" x="743.5" y="-336.14" font-family="Helvetica,sans-Serif" font-size="10.00" fill="grey"> num_work_items</text>
</g>
<!-- Node10&#45;&gt;Node21 -->
<g id="edge34_Node000021_Node000010" class="edge">
<title>Node10&#45;&gt;Node21</title>
<g id="a_edge34_Node000021_Node000010"><a xlink:title=" ">
<path fill="none" stroke="#9a32cd" stroke-dasharray="5,2" d="M627.67,-372.72C644.9,-376.2 664.2,-379.73 682,-382.14 823.33,-401.3 863.15,-373.56 1002,-406.14 1059.45,-419.62 1078.43,-419.9 1125,-456.14 1159.85,-483.26 1186.36,-530.23 1196.74,-550.43"/>
<polygon fill="#9a32cd" stroke="#9a32cd" points="628.3,-369.28 617.8,-370.69 626.89,-376.13 628.3,-369.28"/>
</a>
</g>
<text text-anchor="start" x="858.5" y="-442.14" font-family="Helvetica,sans-Serif" font-size="10.00" fill="grey"> nb_update_pre_bytes</text>
<text text-anchor="middle" x="912.5" y="-431.14" font-family="Helvetica,sans-Serif" font-size="10.00" fill="grey">_total_calls_received</text>
<text text-anchor="middle" x="912.5" y="-420.14" font-family="Helvetica,sans-Serif" font-size="10.00" fill="grey">progress_counter</text>
<text text-anchor="middle" x="912.5" y="-409.14" font-family="Helvetica,sans-Serif" font-size="10.00" fill="grey">reference_count</text>
</g>
<!-- Node11 -->
<g id="Node000011" class="node">
<title>Node11</title>
<g id="a_Node000011"><a xlink:href="classRealm_1_1atomic.html" target="_top" xlink:title=" ">
<polygon fill="white" stroke="#666666" points="649.5,-21.64 499.5,-21.64 499.5,-2.64 649.5,-2.64 649.5,-21.64"/>
<text text-anchor="middle" x="574.5" y="-9.64" font-family="Helvetica,sans-Serif" font-size="10.00">Realm::atomic&lt; BitMask &gt;</text>
</a>
</g>
</g>
<!-- Node11&#45;&gt;Node3 -->
<g id="edge10_Node000003_Node000011" class="edge">
<title>Node11&#45;&gt;Node3</title>
<g id="a_edge10_Node000003_Node000011"><a xlink:title=" ">
<path fill="none" stroke="#9a32cd" stroke-dasharray="5,2" d="M643,-1.66C691.38,2.4 756.32,0.53 805,-28.14 867.02,-64.66 899.35,-153.16 908.64,-182.51"/>
<polygon fill="#9a32cd" stroke="#9a32cd" points="642.57,1.81 632.94,-2.61 643.22,-5.15 642.57,1.81"/>
</a>
</g>
<text text-anchor="middle" x="743.5" y="-31.14" font-family="Helvetica,sans-Serif" font-size="10.00" fill="grey"> active_work_item_mask</text>
</g>
<!-- Node12 -->
<g id="Node000012" class="node">
<title>Node12</title>
<g id="a_Node000012"><a xlink:href="classRealm_1_1atomic.html" target="_top" xlink:title=" ">
<polygon fill="white" stroke="#666666" points="636,-311.64 513,-311.64 513,-292.64 636,-292.64 636,-311.64"/>
<text text-anchor="middle" x="574.5" y="-299.64" font-family="Helvetica,sans-Serif" font-size="10.00">Realm::atomic&lt; int &gt;</text>
</a>
</g>
</g>
<!-- Node12&#45;&gt;Node3 -->
<g id="edge11_Node000003_Node000012" class="edge">
<title>Node12&#45;&gt;Node3</title>
<g id="a_edge11_Node000003_Node000012"><a xlink:title=" ">
<path fill="none" stroke="#9a32cd" stroke-dasharray="5,2" d="M646.22,-291.83C692.39,-283.8 753.44,-270.68 805,-251.14 839.98,-237.88 877.5,-214.75 897.33,-201.74"/>
<polygon fill="#9a32cd" stroke="#9a32cd" points="645.58,-288.39 636.31,-293.52 646.76,-295.29 645.58,-288.39"/>
</a>
</g>
<text text-anchor="middle" x="743.5" y="-287.14" font-family="Helvetica,sans-Serif" font-size="10.00" fill="grey"> work_item_usecounts</text>
</g>
<!-- Node13 -->
<g id="Node000013" class="node">
<title>Node13</title>
<g id="a_Node000013"><a xlink:href="classRealm_1_1DelegatingMutex.html" target="_top" xlink:title=" ">
<polygon fill="white" stroke="#666666" points="643.5,-58.64 505.5,-58.64 505.5,-39.64 643.5,-39.64 643.5,-58.64"/>
<text text-anchor="middle" x="574.5" y="-46.64" font-family="Helvetica,sans-Serif" font-size="10.00">Realm::DelegatingMutex</text>
</a>
</g>
</g>
<!-- Node13&#45;&gt;Node3 -->
<g id="edge14_Node000003_Node000013" class="edge">
<title>Node13&#45;&gt;Node3</title>
<g id="a_edge14_Node000003_Node000013"><a xlink:title=" ">
<path fill="none" stroke="#9a32cd" stroke-dasharray="5,2" d="M653.69,-42.2C700.04,-41.42 758.61,-46.44 805,-70.14 856.08,-96.23 893.38,-158.21 906.43,-182.31"/>
<polygon fill="#9a32cd" stroke="#9a32cd" points="653.59,-38.7 643.69,-42.46 653.78,-45.7 653.59,-38.7"/>
</a>
</g>
<text text-anchor="middle" x="743.5" y="-73.14" font-family="Helvetica,sans-Serif" font-size="10.00" fill="grey"> db_mutex</text>
</g>
<!-- Node14 -->
<g id="Node000014" class="node">
<title>Node14</title>
<g id="a_Node000014"><a xlink:href="classRealm_1_1atomic.html" target="_top" xlink:title=" ">
<polygon fill="white" stroke="#666666" points="413,-58.64 263,-58.64 263,-39.64 413,-39.64 413,-58.64"/>
<text text-anchor="middle" x="338" y="-46.64" font-family="Helvetica,sans-Serif" font-size="10.00">Realm::atomic&lt; uint64_t &gt;</text>
</a>
</g>
</g>
<!-- Node14&#45;&gt;Node13 -->
<g id="edge15_Node000013_Node000014" class="edge">
<title>Node14&#45;&gt;Node13</title>
<g id="a_edge15_Node000013_Node000014"><a xlink:title=" ">
<path fill="none" stroke="#9a32cd" stroke-dasharray="5,2" d="M423.38,-49.14C450.3,-49.14 479.74,-49.14 505.36,-49.14"/>
<polygon fill="#9a32cd" stroke="#9a32cd" points="423.2,-45.64 413.2,-49.14 423.2,-52.64 423.2,-45.64"/>
</a>
</g>
<text text-anchor="middle" x="449" y="-52.14" font-family="Helvetica,sans-Serif" font-size="10.00" fill="grey"> state</text>
</g>
<!-- Node15 -->
<g id="Node000015" class="node">
<title>Node15</title>
<g id="a_Node000015"><a xlink:href="classRealm_1_1LocalChannel.html" target="_top" xlink:title=" ">
<polygon fill="white" stroke="#666666" points="1262,-736.64 1143,-736.64 1143,-717.64 1262,-717.64 1262,-736.64"/>
<text text-anchor="middle" x="1202.5" y="-724.64" font-family="Helvetica,sans-Serif" font-size="10.00">Realm::LocalChannel</text>
</a>
</g>
</g>
<!-- Node15&#45;&gt;Node1 -->
<g id="edge17_Node000001_Node000015" class="edge">
<title>Node15&#45;&gt;Node1</title>
<g id="a_edge17_Node000001_Node000015"><a xlink:title=" ">
<path fill="none" stroke="#9a32cd" stroke-dasharray="5,2" d="M1272.2,-737.48C1355.25,-746.23 1495.81,-748.59 1592,-684.14 1701.81,-610.56 1746.86,-441.18 1758.36,-389.43"/>
<polygon fill="#9a32cd" stroke="#9a32cd" points="1272.44,-733.99 1262.12,-736.36 1271.67,-740.95 1272.44,-733.99"/>
</a>
</g>
<text text-anchor="middle" x="1491.5" y="-743.14" font-family="Helvetica,sans-Serif" font-size="10.00" fill="grey"> channel</text>
</g>
<!-- Node16 -->
<g id="Node000016" class="node">
<title>Node16</title>
<g id="a_Node000016"><a xlink:href="classRealm_1_1Channel.html" target="_top" xlink:title=" ">
<polygon fill="white" stroke="#666666" points="959.5,-718.64 865.5,-718.64 865.5,-699.64 959.5,-699.64 959.5,-718.64"/>
<text text-anchor="middle" x="912.5" y="-706.64" font-family="Helvetica,sans-Serif" font-size="10.00">Realm::Channel</text>
</a>
</g>
</g>
<!-- Node16&#45;&gt;Node15 -->
<g id="edge18_Node000015_Node000016" class="edge">
<title>Node16&#45;&gt;Node15</title>
<g id="a_edge18_Node000015_Node000016"><a xlink:title=" ">
<path fill="none" stroke="#63b8ff" d="M970.06,-712.67C1019.96,-715.79 1092.39,-720.32 1142.89,-723.48"/>
<polygon fill="#63b8ff" stroke="#63b8ff" points="969.97,-709.16 959.77,-712.03 969.53,-716.15 969.97,-709.16"/>
</a>
</g>
</g>
<!-- Node16&#45;&gt;Node21 -->
<g id="edge32_Node000021_Node000016" class="edge">
<title>Node16&#45;&gt;Node21</title>
<g id="a_edge32_Node000021_Node000016"><a xlink:title=" ">
<path fill="none" stroke="#9a32cd" stroke-dasharray="5,2" d="M969.59,-699.78C1014.57,-690.27 1077.78,-672.23 1125,-640.14 1154.88,-619.83 1182.13,-586.21 1194.5,-569.77"/>
<polygon fill="#9a32cd" stroke="#9a32cd" points="968.81,-696.37 959.71,-701.79 970.21,-703.23 968.81,-696.37"/>
</a>
</g>
<text text-anchor="middle" x="1072.5" y="-689.14" font-family="Helvetica,sans-Serif" font-size="10.00" fill="grey"> channel</text>
</g>
<!-- Node17 -->
<g id="Node000017" class="node">
<title>Node17</title>
<g id="a_Node000017"><a xlink:href="classRealm_1_1SimpleXferDesFactory.html" target="_top" xlink:title=" ">
<polygon fill="white" stroke="#666666" points="993.5,-755.64 831.5,-755.64 831.5,-736.64 993.5,-736.64 993.5,-755.64"/>
<text text-anchor="middle" x="912.5" y="-743.64" font-family="Helvetica,sans-Serif" font-size="10.00">Realm::SimpleXferDesFactory</text>
</a>
</g>
</g>
<!-- Node17&#45;&gt;Node15 -->
<g id="edge19_Node000015_Node000017" class="edge">
<title>Node17&#45;&gt;Node15</title>
<g id="a_edge19_Node000015_Node000017"><a xlink:title=" ">
<path fill="none" stroke="#9a32cd" stroke-dasharray="5,2" d="M1003.86,-740.18C1049.18,-737.19 1102.77,-733.65 1142.71,-731.02"/>
<polygon fill="#9a32cd" stroke="#9a32cd" points="1003.47,-736.69 993.72,-740.85 1003.93,-743.68 1003.47,-736.69"/>
</a>
</g>
<text text-anchor="middle" x="1072.5" y="-741.14" font-family="Helvetica,sans-Serif" font-size="10.00" fill="grey"> factory_singleton</text>
</g>
<!-- Node18 -->
<g id="Node000018" class="node">
<title>Node18</title>
<g id="a_Node000018"><a xlink:href="classRealm_1_1XferDesFactory.html" target="_top" xlink:title=" ">
<polygon fill="white" stroke="#666666" points="638.5,-755.64 510.5,-755.64 510.5,-736.64 638.5,-736.64 638.5,-755.64"/>
<text text-anchor="middle" x="574.5" y="-743.64" font-family="Helvetica,sans-Serif" font-size="10.00">Realm::XferDesFactory</text>
</a>
</g>
</g>
<!-- Node18&#45;&gt;Node17 -->
<g id="edge20_Node000017_Node000018" class="edge">
<title>Node18&#45;&gt;Node17</title>
<g id="a_edge20_Node000017_Node000018"><a xlink:title=" ">
<path fill="none" stroke="#63b8ff" d="M648.87,-746.14C702.76,-746.14 775.94,-746.14 831.36,-746.14"/>
<polygon fill="#63b8ff" stroke="#63b8ff" points="648.7,-742.64 638.7,-746.14 648.7,-749.64 648.7,-742.64"/>
</a>
</g>
</g>
<!-- Node19 -->
<g id="Node000019" class="node">
<title>Node19</title>
<g id="a_Node000019"><a xlink:href="classRealm_1_1IntrusivePriorityList.html" target="_top" xlink:title=" ">
<polygon fill="white" stroke="#666666" points="1592,-445.64 1391,-445.64 1391,-382.64 1592,-382.64 1592,-445.64"/>
<text text-anchor="start" x="1399" y="-433.64" font-family="Helvetica,sans-Serif" font-size="10.00">Realm::IntrusivePriority</text>
<text text-anchor="start" x="1399" y="-422.64" font-family="Helvetica,sans-Serif" font-size="10.00">List&lt; XferDes, int, REALM</text>
<text text-anchor="start" x="1399" y="-411.64" font-family="Helvetica,sans-Serif" font-size="10.00">_PMTA_USE(XferDes, xd_link)</text>
<text text-anchor="start" x="1399" y="-400.64" font-family="Helvetica,sans-Serif" font-size="10.00">, REALM_PMTA_USE(XferDes, priority)</text>
<text text-anchor="middle" x="1491.5" y="-389.64" font-family="Helvetica,sans-Serif" font-size="10.00">, DummyLock &gt;</text>
</a>
</g>
</g>
<!-- Node19&#45;&gt;Node1 -->
<g id="edge22_Node000001_Node000019" class="edge">
<title>Node19&#45;&gt;Node1</title>
<g id="a_edge22_Node000001_Node000019"><a xlink:title=" ">
<path fill="none" stroke="#9a32cd" stroke-dasharray="5,2" d="M1602.38,-397.8C1628.9,-393.86 1656.75,-389.71 1681.61,-386.02"/>
<polygon fill="#9a32cd" stroke="#9a32cd" points="1601.66,-394.37 1592.28,-399.3 1602.69,-401.29 1601.66,-394.37"/>
</a>
</g>
<text text-anchor="middle" x="1637" y="-399.14" font-family="Helvetica,sans-Serif" font-size="10.00" fill="grey"> ready_xds</text>
</g>
<!-- Node20 -->
<g id="Node000020" class="node">
<title>Node20</title>
<g id="a_Node000020"><a xlink:href="classRealm_1_1DummyLock.html" target="_top" xlink:title=" ">
<polygon fill="white" stroke="#666666" points="1260.5,-423.64 1144.5,-423.64 1144.5,-404.64 1260.5,-404.64 1260.5,-423.64"/>
<text text-anchor="middle" x="1202.5" y="-411.64" font-family="Helvetica,sans-Serif" font-size="10.00">Realm::DummyLock</text>
</a>
</g>
</g>
<!-- Node20&#45;&gt;Node19 -->
<g id="edge23_Node000019_Node000020" class="edge">
<title>Node20&#45;&gt;Node19</title>
<g id="a_edge23_Node000019_Node000020"><a xlink:title=" ">
<path fill="none" stroke="#9a32cd" stroke-dasharray="5,2" d="M1270.85,-414.14C1306.59,-414.14 1351.19,-414.14 1390.85,-414.14"/>
<polygon fill="#9a32cd" stroke="#9a32cd" points="1270.55,-410.64 1260.55,-414.14 1270.55,-417.64 1270.55,-410.64"/>
</a>
</g>
<text text-anchor="middle" x="1326.5" y="-417.14" font-family="Helvetica,sans-Serif" font-size="10.00" fill="grey"> lock</text>
</g>
<!-- Node21&#45;&gt;Node19 -->
<g id="edge24_Node000019_Node000021" class="edge">
<title>Node21&#45;&gt;Node19</title>
<g id="a_edge24_Node000019_Node000021"><a xlink:title=" ">
<path fill="none" stroke="#9a32cd" stroke-dasharray="5,2" d="M1218.08,-542.74C1232.4,-526.64 1255.59,-502.99 1280,-488.14 1313.92,-467.5 1354.42,-451.53 1390.8,-439.79"/>
<polygon fill="#9a32cd" stroke="#9a32cd" points="1215.36,-540.55 1211.45,-550.4 1220.64,-545.13 1215.36,-540.55"/>
</a>
</g>
<text text-anchor="middle" x="1326.5" y="-491.14" font-family="Helvetica,sans-Serif" font-size="10.00" fill="grey"> head</text>
</g>
<!-- Node28 -->
<g id="Node000028" class="node">
<title>Node28</title>
<g id="a_Node000028"><a xlink:href="structRealm_1_1IntrusivePriorityListLink.html" target="_top" xlink:title=" ">
<polygon fill="white" stroke="#666666" points="1568,-556.14 1415,-556.14 1415,-526.14 1568,-526.14 1568,-556.14"/>
<text text-anchor="start" x="1423" y="-544.14" font-family="Helvetica,sans-Serif" font-size="10.00">Realm::IntrusivePriority</text>
<text text-anchor="middle" x="1491.5" y="-533.14" font-family="Helvetica,sans-Serif" font-size="10.00">ListLink&lt; Realm::XferDes &gt;</text>
</a>
</g>
</g>
<!-- Node21&#45;&gt;Node28 -->
<g id="edge36_Node000028_Node000021" class="edge">
<title>Node21&#45;&gt;Node28</title>
<g id="a_edge36_Node000028_Node000021"><a xlink:title=" ">
<path fill="none" stroke="#9a32cd" stroke-dasharray="5,2" d="M1222.17,-543.82C1236.79,-532.18 1258.24,-517.51 1280,-511.14 1338.63,-493.97 1409.43,-511.54 1452.16,-526.1"/>
<polygon fill="#9a32cd" stroke="#9a32cd" points="1219.88,-541.17 1214.39,-550.24 1224.33,-546.57 1219.88,-541.17"/>
</a>
</g>
<text text-anchor="middle" x="1326.5" y="-536.14" font-family="Helvetica,sans-Serif" font-size="10.00" fill="grey"> lastlink_within_pri</text>
<text text-anchor="middle" x="1326.5" y="-525.14" font-family="Helvetica,sans-Serif" font-size="10.00" fill="grey">next_lower_pri</text>
<text text-anchor="middle" x="1326.5" y="-514.14" font-family="Helvetica,sans-Serif" font-size="10.00" fill="grey">next_within_pri</text>
</g>
<!-- Node29 -->
<g id="Node000029" class="node">
<title>Node29</title>
<g id="a_Node000029"><a xlink:href="classRealm_1_1XferDes_1_1DeferredXDEnqueue.html" target="_top" xlink:title=" ">
<polygon fill="white" stroke="#666666" points="1562.5,-675.14 1420.5,-675.14 1420.5,-645.14 1562.5,-645.14 1562.5,-675.14"/>
<text text-anchor="start" x="1428.5" y="-663.14" font-family="Helvetica,sans-Serif" font-size="10.00">Realm::XferDes::Deferred</text>
<text text-anchor="middle" x="1491.5" y="-652.14" font-family="Helvetica,sans-Serif" font-size="10.00">XDEnqueue</text>
</a>
</g>
</g>
<!-- Node21&#45;&gt;Node29 -->
<g id="edge42_Node000029_Node000021" class="edge">
<title>Node21&#45;&gt;Node29</title>
<g id="a_edge42_Node000029_Node000021"><a xlink:title=" ">
<path fill="none" stroke="#9a32cd" stroke-dasharray="5,2" d="M1216.5,-577.87C1230.2,-595.11 1253.47,-620.49 1280,-633.14 1323.57,-653.91 1377.67,-660.49 1420.11,-661.97"/>
<polygon fill="#9a32cd" stroke="#9a32cd" points="1219.1,-575.51 1210.23,-569.71 1213.54,-579.77 1219.1,-575.51"/>
</a>
</g>
<text text-anchor="middle" x="1326.5" y="-660.14" font-family="Helvetica,sans-Serif" font-size="10.00" fill="grey"> xd</text>
</g>
<!-- Node22&#45;&gt;Node21 -->
<g id="edge25_Node000021_Node000022" class="edge">
<title>Node22&#45;&gt;Node21</title>
<g id="a_edge25_Node000021_Node000022"><a xlink:title=" ">
<path fill="none" stroke="#9a32cd" stroke-dasharray="5,2" d="M973.39,-610.68C983.23,-607.57 993.1,-603.77 1002,-599.14 1011.24,-594.33 1010.46,-588.32 1020,-584.14 1043.58,-573.8 1110,-566.94 1155.6,-563.29"/>
<polygon fill="#9a32cd" stroke="#9a32cd" points="972.21,-607.38 963.6,-613.55 974.18,-614.09 972.21,-607.38"/>
</a>
</g>
<text text-anchor="middle" x="1072.5" y="-587.14" font-family="Helvetica,sans-Serif" font-size="10.00" fill="grey"> xferDes_queue</text>
</g>
<!-- Node22&#45;&gt;Node29 -->
<g id="edge41_Node000029_Node000022" class="edge">
<title>Node22&#45;&gt;Node29</title>
<g id="a_edge41_Node000029_Node000022"><a xlink:title=" ">
<path fill="none" stroke="#9a32cd" stroke-dasharray="5,2" d="M985.08,-632.8C991.11,-635.28 996.85,-638.35 1002,-642.14 1015.14,-651.82 1005.91,-665.9 1020,-674.14 1085.87,-712.66 1306.02,-687.53 1420.3,-671.11"/>
<polygon fill="#9a32cd" stroke="#9a32cd" points="986.02,-629.42 975.43,-629.38 983.68,-636.02 986.02,-629.42"/>
</a>
</g>
<text text-anchor="middle" x="1202.5" y="-697.14" font-family="Helvetica,sans-Serif" font-size="10.00" fill="grey"> xferDes_queue</text>
</g>
<!-- Node23 -->
<g id="Node000023" class="node">
<title>Node23</title>
<g id="a_Node000023"><a xlink:href="classRealm_1_1atomic.html" target="_top" xlink:title=" ">
<polygon fill="white" stroke="#666666" points="654.5,-638.64 494.5,-638.64 494.5,-619.64 654.5,-619.64 654.5,-638.64"/>
<text text-anchor="middle" x="574.5" y="-626.64" font-family="Helvetica,sans-Serif" font-size="10.00">Realm::atomic&lt; XferDesID &gt;</text>
</a>
</g>
</g>
<!-- Node23&#45;&gt;Node22 -->
<g id="edge27_Node000022_Node000023" class="edge">
<title>Node23&#45;&gt;Node22</title>
<g id="a_edge27_Node000022_Node000023"><a xlink:title=" ">
<path fill="none" stroke="#9a32cd" stroke-dasharray="5,2" d="M665.03,-627.54C723.41,-626.5 798.1,-625.16 849.88,-624.24"/>
<polygon fill="#9a32cd" stroke="#9a32cd" points="664.64,-624.05 654.7,-627.72 664.76,-631.04 664.64,-624.05"/>
</a>
</g>
<text text-anchor="middle" x="743.5" y="-630.14" font-family="Helvetica,sans-Serif" font-size="10.00" fill="grey"> next_to_assign_idx</text>
</g>
<!-- Node24 -->
<g id="Node000024" class="node">
<title>Node24</title>
<g id="a_Node000024"><a xlink:href="classRealm_1_1atomic.html" target="_top" xlink:title=" ">
<polygon fill="white" stroke="#666666" points="978,-477.64 847,-477.64 847,-458.64 978,-458.64 978,-477.64"/>
<text text-anchor="middle" x="912.5" y="-465.64" font-family="Helvetica,sans-Serif" font-size="10.00">Realm::atomic&lt; bool &gt;</text>
</a>
</g>
</g>
<!-- Node24&#45;&gt;Node21 -->
<g id="edge28_Node000021_Node000024" class="edge">
<title>Node24&#45;&gt;Node21</title>
<g id="a_edge28_Node000021_Node000024"><a xlink:title=" ">
<path fill="none" stroke="#9a32cd" stroke-dasharray="5,2" d="M988.57,-460.35C1030.51,-459.06 1082.68,-462.7 1125,-482.14 1157.92,-497.26 1184.3,-533.24 1195.58,-550.53"/>
<polygon fill="#9a32cd" stroke="#9a32cd" points="988.27,-456.86 978.42,-460.76 988.55,-463.85 988.27,-456.86"/>
</a>
</g>
<text text-anchor="middle" x="1072.5" y="-496.14" font-family="Helvetica,sans-Serif" font-size="10.00" fill="grey"> iteration_completed</text>
<text text-anchor="middle" x="1072.5" y="-485.14" font-family="Helvetica,sans-Serif" font-size="10.00" fill="grey">transfer_completed</text>
</g>
<!-- Node25 -->
<g id="Node000025" class="node">
<title>Node25</title>
<g id="a_Node000025"><a xlink:href="classRealm_1_1atomic.html" target="_top" xlink:title=" ">
<polygon fill="white" stroke="#666666" points="984.5,-514.64 840.5,-514.64 840.5,-495.64 984.5,-495.64 984.5,-514.64"/>
<text text-anchor="middle" x="912.5" y="-502.64" font-family="Helvetica,sans-Serif" font-size="10.00">Realm::atomic&lt; int64_t &gt;</text>
</a>
</g>
</g>
<!-- Node25&#45;&gt;Node21 -->
<g id="edge29_Node000021_Node000025" class="edge">
<title>Node25&#45;&gt;Node21</title>
<g id="a_edge29_Node000021_Node000025"><a xlink:title=" ">
<path fill="none" stroke="#9a32cd" stroke-dasharray="5,2" d="M994.76,-506.48C1034.57,-508.73 1082.89,-513.86 1125,-525.14 1146.59,-530.92 1169.69,-542.29 1184.8,-550.51"/>
<polygon fill="#9a32cd" stroke="#9a32cd" points="994.73,-502.97 984.56,-505.96 994.37,-509.96 994.73,-502.97"/>
</a>
</g>
<text text-anchor="middle" x="1072.5" y="-528.14" font-family="Helvetica,sans-Serif" font-size="10.00" fill="grey"> bytes_write_pending</text>
</g>
<!-- Node26 -->
<g id="Node000026" class="node">
<title>Node26</title>
<g id="a_Node000026"><a xlink:href="structRealm_1_1XferDes_1_1ControlPortState.html" target="_top" xlink:title=" ">
<polygon fill="white" stroke="#666666" points="989.5,-681.14 835.5,-681.14 835.5,-651.14 989.5,-651.14 989.5,-681.14"/>
<text text-anchor="start" x="843.5" y="-669.14" font-family="Helvetica,sans-Serif" font-size="10.00">Realm::XferDes::ControlPort</text>
<text text-anchor="middle" x="912.5" y="-658.14" font-family="Helvetica,sans-Serif" font-size="10.00">State</text>
</a>
</g>
</g>
<!-- Node26&#45;&gt;Node21 -->
<g id="edge30_Node000021_Node000026" class="edge">
<title>Node26&#45;&gt;Node21</title>
<g id="a_edge30_Node000021_Node000026"><a xlink:title=" ">
<path fill="none" stroke="#9a32cd" stroke-dasharray="5,2" d="M994.93,-646.47C997.37,-645.12 999.73,-643.68 1002,-642.14 1013.03,-634.65 1008.79,-625.35 1020,-618.14 1060.18,-592.3 1079.69,-610.27 1125,-595.14 1145.64,-588.24 1168.17,-577.52 1183.4,-569.76"/>
<polygon fill="#9a32cd" stroke="#9a32cd" points="993.26,-643.39 985.84,-650.96 996.35,-649.67 993.26,-643.39"/>
</a>
</g>
<text text-anchor="middle" x="1072.5" y="-632.14" font-family="Helvetica,sans-Serif" font-size="10.00" fill="grey"> input_control</text>
<text text-anchor="middle" x="1072.5" y="-621.14" font-family="Helvetica,sans-Serif" font-size="10.00" fill="grey">output_control</text>
</g>
<!-- Node27 -->
<g id="Node000027" class="node">
<title>Node27</title>
<g id="a_Node000027"><a xlink:href="classRealm_1_1ControlPort_1_1Decoder.html" target="_top" xlink:title=" ">
<polygon fill="white" stroke="#666666" points="629,-687.14 520,-687.14 520,-657.14 629,-657.14 629,-687.14"/>
<text text-anchor="start" x="528" y="-675.14" font-family="Helvetica,sans-Serif" font-size="10.00">Realm::ControlPort</text>
<text text-anchor="middle" x="574.5" y="-664.14" font-family="Helvetica,sans-Serif" font-size="10.00">::Decoder</text>
</a>
</g>
</g>
<!-- Node27&#45;&gt;Node26 -->
<g id="edge31_Node000026_Node000027" class="edge">
<title>Node27&#45;&gt;Node26</title>
<g id="a_edge31_Node000026_Node000027"><a xlink:title=" ">
<path fill="none" stroke="#9a32cd" stroke-dasharray="5,2" d="M639.22,-671C694.97,-670 776.07,-668.56 835.25,-667.5"/>
<polygon fill="#9a32cd" stroke="#9a32cd" points="639.05,-667.5 629.11,-671.18 639.17,-674.5 639.05,-667.5"/>
</a>
</g>
<text text-anchor="middle" x="743.5" y="-673.14" font-family="Helvetica,sans-Serif" font-size="10.00" fill="grey"> decoder</text>
</g>
<!-- Node28&#45;&gt;Node21 -->
<g id="edge35_Node000021_Node000028" class="edge">
<title>Node28&#45;&gt;Node21</title>
<g id="a_edge35_Node000021_Node000028"><a xlink:title=" ">
<path fill="none" stroke="#9a32cd" stroke-dasharray="5,2" d="M1404.9,-546.81C1353.85,-550.18 1291.06,-554.34 1249.29,-557.11"/>
<polygon fill="#9a32cd" stroke="#9a32cd" points="1405.2,-550.29 1414.94,-546.14 1404.73,-543.31 1405.2,-550.29"/>
</a>
</g>
<text text-anchor="middle" x="1326.5" y="-557.14" font-family="Helvetica,sans-Serif" font-size="10.00" fill="grey"> xd_link</text>
</g>
<!-- Node29&#45;&gt;Node21 -->
<g id="edge37_Node000021_Node000029" class="edge">
<title>Node29&#45;&gt;Node21</title>
<g id="a_edge37_Node000021_Node000029"><a xlink:title=" ">
<path fill="none" stroke="#9a32cd" stroke-dasharray="5,2" d="M1437.87,-641.8C1376.84,-620.54 1278.56,-586.29 1231.02,-569.73"/>
<polygon fill="#9a32cd" stroke="#9a32cd" points="1436.73,-645.11 1447.33,-645.1 1439.04,-638.5 1436.73,-645.11"/>
</a>
</g>
<text text-anchor="middle" x="1326.5" y="-621.14" font-family="Helvetica,sans-Serif" font-size="10.00" fill="grey"> deferred_enqueue</text>
</g>
<!-- Node30 -->
<g id="Node000030" class="node">
<title>Node30</title>
<g id="a_Node000030"><a xlink:href="classRealm_1_1EventWaiter.html" target="_top" xlink:title=" ">
<polygon fill="white" stroke="#666666" points="1259,-780.64 1146,-780.64 1146,-761.64 1259,-761.64 1259,-780.64"/>
<text text-anchor="middle" x="1202.5" y="-768.64" font-family="Helvetica,sans-Serif" font-size="10.00">Realm::EventWaiter</text>
</a>
</g>
</g>
<!-- Node30&#45;&gt;Node29 -->
<g id="edge38_Node000029_Node000030" class="edge">
<title>Node30&#45;&gt;Node29</title>
<g id="a_edge38_Node000029_Node000030"><a xlink:title=" ">
<path fill="none" stroke="#63b8ff" d="M1240.57,-758.03C1275.43,-745.24 1328.73,-724.49 1373,-702.14 1381.37,-697.91 1382.46,-695.01 1391,-691.14 1404.51,-685.02 1419.58,-679.64 1433.82,-675.15"/>
<polygon fill="#63b8ff" stroke="#63b8ff" points="1239.01,-754.87 1230.81,-761.58 1241.41,-761.45 1239.01,-754.87"/>
</a>
</g>
</g>
<!-- Node31 -->
<g id="Node000031" class="node">
<title>Node31</title>
<g id="a_Node000031"><a xlink:href="structRealm_1_1IntrusiveListLink.html" target="_top" xlink:title=" ">
<polygon fill="white" stroke="#666666" points="1559.5,-803.14 1423.5,-803.14 1423.5,-773.14 1559.5,-773.14 1559.5,-803.14"/>
<text text-anchor="start" x="1431.5" y="-791.14" font-family="Helvetica,sans-Serif" font-size="10.00">Realm::IntrusiveListLink</text>
<text text-anchor="middle" x="1491.5" y="-780.14" font-family="Helvetica,sans-Serif" font-size="10.00">&lt; Realm::EventWaiter &gt;</text>
</a>
</g>
</g>
<!-- Node30&#45;&gt;Node31 -->
<g id="edge40_Node000031_Node000030" class="edge">
<title>Node30&#45;&gt;Node31</title>
<g id="a_edge40_Node000031_Node000030"><a xlink:title=" ">
<path fill="none" stroke="#9a32cd" stroke-dasharray="5,2" d="M1268.69,-781.96C1272.51,-782.41 1276.3,-782.81 1280,-783.14 1327.7,-787.43 1381.7,-788.64 1423.06,-788.79"/>
<polygon fill="#9a32cd" stroke="#9a32cd" points="1268.91,-778.46 1258.55,-780.66 1268.03,-785.4 1268.91,-778.46"/>
</a>
</g>
<text text-anchor="middle" x="1326.5" y="-790.14" font-family="Helvetica,sans-Serif" font-size="10.00" fill="grey"> next</text>
</g>
<!-- Node31&#45;&gt;Node30 -->
<g id="edge39_Node000030_Node000031" class="edge">
<title>Node31&#45;&gt;Node30</title>
<g id="a_edge39_Node000030_Node000031"><a xlink:title=" ">
<path fill="none" stroke="#9a32cd" stroke-dasharray="5,2" d="M1413.13,-776.16C1399.78,-774.5 1386.01,-773.06 1373,-772.14 1335.13,-769.46 1292.39,-769.23 1259.3,-769.65"/>
<polygon fill="#9a32cd" stroke="#9a32cd" points="1412.87,-779.65 1423.24,-777.46 1413.77,-772.71 1412.87,-779.65"/>
</a>
</g>
<text text-anchor="middle" x="1326.5" y="-775.14" font-family="Helvetica,sans-Serif" font-size="10.00" fill="grey"> ew_list_link</text>
</g>
</g>
</svg>
