<?xml version="1.0" encoding="UTF-8" standalone="no"?>
<!DOCTYPE svg PUBLIC "-//W3C//DTD SVG 1.1//EN"
 "http://www.w3.org/Graphics/SVG/1.1/DTD/svg11.dtd">
<!-- Generated by graphviz version 2.43.0 (0)
 -->
<!-- Title: Realm::AddressSplitXferDes&lt; N, T &gt; Pages: 1 -->
<svg width="186pt" height="148pt"
 viewBox="0.00 0.00 186.00 148.00" xmlns="http://www.w3.org/2000/svg" xmlns:xlink="http://www.w3.org/1999/xlink">
<g id="graph0" class="graph" transform="scale(1 1) rotate(0) translate(4 144)">
<title>Realm::AddressSplitXferDes&lt; N, T &gt;</title>
<!-- Node1 -->
<g id="Node000001" class="node">
<title>Node1</title>
<g id="a_Node000001"><a xlink:title=" ">
<polygon fill="#999999" stroke="#666666" points="166,-30 12,-30 12,0 166,0 166,-30"/>
<text text-anchor="start" x="20" y="-18" font-family="Helvetica,sans-Serif" font-size="10.00">Realm::AddressSplitXferDes</text>
<text text-anchor="middle" x="89" y="-7" font-family="Helvetica,sans-Serif" font-size="10.00">&lt; N, T &gt;</text>
</a>
</g>
</g>
<!-- Node2 -->
<g id="Node000002" class="node">
<title>Node2</title>
<g id="a_Node000002"><a xlink:href="classRealm_1_1AddressSplitXferDesBase.html" target="_top" xlink:title=" ">
<polygon fill="white" stroke="#666666" points="178,-85 0,-85 0,-66 178,-66 178,-85"/>
<text text-anchor="middle" x="89" y="-73" font-family="Helvetica,sans-Serif" font-size="10.00">Realm::AddressSplitXferDesBase</text>
</a>
</g>
</g>
<!-- Node2&#45;&gt;Node1 -->
<g id="edge1_Node000001_Node000002" class="edge">
<title>Node2&#45;&gt;Node1</title>
<g id="a_edge1_Node000001_Node000002"><a xlink:title=" ">
<path fill="none" stroke="#63b8ff" d="M89,-55.65C89,-47.36 89,-37.78 89,-30.11"/>
<polygon fill="#63b8ff" stroke="#63b8ff" points="85.5,-55.87 89,-65.87 92.5,-55.87 85.5,-55.87"/>
</a>
</g>
</g>
<!-- Node3 -->
<g id="Node000003" class="node">
<title>Node3</title>
<g id="a_Node000003"><a xlink:href="classRealm_1_1XferDes.html" target="_top" xlink:title=" ">
<polygon fill="white" stroke="#666666" points="135.5,-140 42.5,-140 42.5,-121 135.5,-121 135.5,-140"/>
<text text-anchor="middle" x="89" y="-128" font-family="Helvetica,sans-Serif" font-size="10.00">Realm::XferDes</text>
</a>
</g>
</g>
<!-- Node3&#45;&gt;Node2 -->
<g id="edge2_Node000002_Node000003" class="edge">
<title>Node3&#45;&gt;Node2</title>
<g id="a_edge2_Node000002_Node000003"><a xlink:title=" ">
<path fill="none" stroke="#63b8ff" d="M89,-110.66C89,-101.93 89,-91.99 89,-85.09"/>
<polygon fill="#63b8ff" stroke="#63b8ff" points="85.5,-110.75 89,-120.75 92.5,-110.75 85.5,-110.75"/>
</a>
</g>
</g>
</g>
</svg>
