<?xml version="1.0" encoding="UTF-8" standalone="no"?>
<!DOCTYPE svg PUBLIC "-//W3C//DTD SVG 1.1//EN"
 "http://www.w3.org/Graphics/SVG/1.1/DTD/svg11.dtd">
<!-- Generated by graphviz version 2.43.0 (0)
 -->
<!-- Title: Realm::Cuda::GPUIndirectRemoteChannel Pages: 1 -->
<svg width="549pt" height="216pt"
 viewBox="0.00 0.00 549.00 216.00" xmlns="http://www.w3.org/2000/svg" xmlns:xlink="http://www.w3.org/1999/xlink">
<g id="graph0" class="graph" transform="scale(1 1) rotate(0) translate(4 212)">
<title>Realm::Cuda::GPUIndirectRemoteChannel</title>
<!-- Node1 -->
<g id="Node000001" class="node">
<title>Node1</title>
<g id="a_Node000001"><a xlink:title=" ">
<polygon fill="#999999" stroke="#666666" points="437.5,-30 294.5,-30 294.5,0 437.5,0 437.5,-30"/>
<text text-anchor="start" x="302.5" y="-18" font-family="Helvetica,sans-Serif" font-size="10.00">Realm::Cuda::GPUIndirect</text>
<text text-anchor="middle" x="366" y="-7" font-family="Helvetica,sans-Serif" font-size="10.00">RemoteChannel</text>
</a>
</g>
</g>
<!-- Node2 -->
<g id="Node000002" class="node">
<title>Node2</title>
<g id="a_Node000002"><a xlink:href="classRealm_1_1RemoteChannel.html" target="_top" xlink:title=" ">
<polygon fill="white" stroke="#666666" points="432,-86 300,-86 300,-67 432,-67 432,-86"/>
<text text-anchor="middle" x="366" y="-74" font-family="Helvetica,sans-Serif" font-size="10.00">Realm::RemoteChannel</text>
</a>
</g>
</g>
<!-- Node2&#45;&gt;Node1 -->
<g id="edge1_Node000001_Node000002" class="edge">
<title>Node2&#45;&gt;Node1</title>
<g id="a_edge1_Node000001_Node000002"><a xlink:title=" ">
<path fill="none" stroke="#63b8ff" d="M366,-56.73C366,-48.09 366,-38 366,-30.02"/>
<polygon fill="#63b8ff" stroke="#63b8ff" points="362.5,-56.98 366,-66.98 369.5,-56.98 362.5,-56.98"/>
</a>
</g>
</g>
<!-- Node3 -->
<g id="Node000003" class="node">
<title>Node3</title>
<g id="a_Node000003"><a xlink:href="classRealm_1_1Channel.html" target="_top" xlink:title=" ">
<polygon fill="white" stroke="#666666" points="541,-152 447,-152 447,-133 541,-133 541,-152"/>
<text text-anchor="middle" x="494" y="-140" font-family="Helvetica,sans-Serif" font-size="10.00">Realm::Channel</text>
</a>
</g>
</g>
<!-- Node3&#45;&gt;Node2 -->
<g id="edge2_Node000002_Node000003" class="edge">
<title>Node3&#45;&gt;Node2</title>
<g id="a_edge2_Node000002_Node000003"><a xlink:title=" ">
<path fill="none" stroke="#63b8ff" d="M478.61,-125.7C470.65,-118.26 460.43,-109.77 450,-104 435.82,-96.15 418.98,-90.25 404.12,-86.04"/>
<polygon fill="#63b8ff" stroke="#63b8ff" points="476.4,-128.44 486.01,-132.92 481.29,-123.43 476.4,-128.44"/>
</a>
</g>
</g>
<!-- Node4 -->
<g id="Node000004" class="node">
<title>Node4</title>
<g id="a_Node000004"><a xlink:href="classRealm_1_1RWLock.html" target="_top" xlink:title=" ">
<polygon fill="white" stroke="#666666" points="230.5,-152 137.5,-152 137.5,-133 230.5,-133 230.5,-152"/>
<text text-anchor="middle" x="184" y="-140" font-family="Helvetica,sans-Serif" font-size="10.00">Realm::RWLock</text>
</a>
</g>
</g>
<!-- Node4&#45;&gt;Node2 -->
<g id="edge3_Node000002_Node000004" class="edge">
<title>Node4&#45;&gt;Node2</title>
<g id="a_edge3_Node000002_Node000004"><a xlink:title=" ">
<path fill="none" stroke="#9a32cd" stroke-dasharray="5,2" d="M218.21,-129.61C231.29,-125.05 246.34,-119.8 260,-115 288.18,-105.1 320.54,-93.64 342.01,-86.02"/>
<polygon fill="#9a32cd" stroke="#9a32cd" points="216.95,-126.34 208.65,-132.94 219.25,-132.95 216.95,-126.34"/>
</a>
</g>
<text text-anchor="middle" x="307.5" y="-107" font-family="Helvetica,sans-Serif" font-size="10.00" fill="grey"> mutex</text>
</g>
<!-- Node5 -->
<g id="Node000005" class="node">
<title>Node5</title>
<g id="a_Node000005"><a xlink:href="structRealm_1_1RWLock_1_1Writer.html" target="_top" xlink:title=" ">
<polygon fill="white" stroke="#666666" points="281.5,-86 152.5,-86 152.5,-67 281.5,-67 281.5,-86"/>
<text text-anchor="middle" x="217" y="-74" font-family="Helvetica,sans-Serif" font-size="10.00">Realm::RWLock::Writer</text>
</a>
</g>
</g>
<!-- Node4&#45;&gt;Node5 -->
<g id="edge5_Node000005_Node000004" class="edge">
<title>Node4&#45;&gt;Node5</title>
<g id="a_edge5_Node000005_Node000004"><a xlink:title=" ">
<path fill="none" stroke="#9a32cd" stroke-dasharray="5,2" d="M208.29,-126.41C211.82,-123.11 214.94,-119.29 217,-115 221.39,-105.84 220.43,-93.92 219.01,-86"/>
<polygon fill="#9a32cd" stroke="#9a32cd" points="205.86,-123.87 200.2,-132.82 210.21,-129.35 205.86,-123.87"/>
</a>
</g>
<text text-anchor="middle" x="238" y="-107" font-family="Helvetica,sans-Serif" font-size="10.00" fill="grey"> rwlock</text>
</g>
<!-- Node6 -->
<g id="Node000006" class="node">
<title>Node6</title>
<g id="a_Node000006"><a xlink:href="structRealm_1_1RWLock_1_1Reader.html" target="_top" xlink:title=" ">
<polygon fill="white" stroke="#666666" points="134,-86 0,-86 0,-67 134,-67 134,-86"/>
<text text-anchor="middle" x="67" y="-74" font-family="Helvetica,sans-Serif" font-size="10.00">Realm::RWLock::Reader</text>
</a>
</g>
</g>
<!-- Node4&#45;&gt;Node6 -->
<g id="edge7_Node000006_Node000004" class="edge">
<title>Node4&#45;&gt;Node6</title>
<g id="a_edge7_Node000006_Node000004"><a xlink:title=" ">
<path fill="none" stroke="#9a32cd" stroke-dasharray="5,2" d="M127.26,-137.78C109.94,-134.07 92.06,-127.27 79,-115 71.03,-107.51 68.33,-94.74 67.43,-86.21"/>
<polygon fill="#9a32cd" stroke="#9a32cd" points="126.87,-141.27 137.34,-139.63 128.13,-134.39 126.87,-141.27"/>
</a>
</g>
<text text-anchor="middle" x="97" y="-107" font-family="Helvetica,sans-Serif" font-size="10.00" fill="grey"> rwlock</text>
</g>
<!-- Node5&#45;&gt;Node4 -->
<g id="edge4_Node000004_Node000005" class="edge">
<title>Node5&#45;&gt;Node4</title>
<g id="a_edge4_Node000004_Node000005"><a xlink:title=" ">
<path fill="none" stroke="#9a32cd" stroke-dasharray="5,2" d="M193.71,-92.56C190.21,-95.9 187.08,-99.73 185,-104 180.55,-113.14 181.16,-125.06 182.3,-132.99"/>
<polygon fill="#9a32cd" stroke="#9a32cd" points="196.14,-95.1 201.71,-86.09 191.73,-89.66 196.14,-95.1"/>
</a>
</g>
<text text-anchor="middle" x="201" y="-107" font-family="Helvetica,sans-Serif" font-size="10.00" fill="grey"> writer</text>
</g>
<!-- Node6&#45;&gt;Node4 -->
<g id="edge6_Node000004_Node000006" class="edge">
<title>Node6&#45;&gt;Node4</title>
<g id="a_edge6_Node000004_Node000006"><a xlink:title=" ">
<path fill="none" stroke="#9a32cd" stroke-dasharray="5,2" d="M91.77,-91.05C114.86,-103.68 148.59,-122.13 168.22,-132.87"/>
<polygon fill="#9a32cd" stroke="#9a32cd" points="93.36,-87.93 82.9,-86.2 90,-94.07 93.36,-87.93"/>
</a>
</g>
<text text-anchor="middle" x="150.5" y="-107" font-family="Helvetica,sans-Serif" font-size="10.00" fill="grey"> reader</text>
</g>
<!-- Node7 -->
<g id="Node000007" class="node">
<title>Node7</title>
<g id="a_Node000007"><a xlink:href="classRealm_1_1SimpleXferDesFactory.html" target="_top" xlink:title=" ">
<polygon fill="white" stroke="#666666" points="429,-152 267,-152 267,-133 429,-133 429,-152"/>
<text text-anchor="middle" x="348" y="-140" font-family="Helvetica,sans-Serif" font-size="10.00">Realm::SimpleXferDesFactory</text>
</a>
</g>
</g>
<!-- Node7&#45;&gt;Node2 -->
<g id="edge8_Node000002_Node000007" class="edge">
<title>Node7&#45;&gt;Node2</title>
<g id="a_edge8_Node000002_Node000007"><a xlink:title=" ">
<path fill="none" stroke="#9a32cd" stroke-dasharray="5,2" d="M353.22,-122.95C356.6,-110.93 360.85,-95.82 363.5,-86.41"/>
<polygon fill="#9a32cd" stroke="#9a32cd" points="349.77,-122.29 350.43,-132.87 356.5,-124.19 349.77,-122.29"/>
</a>
</g>
<text text-anchor="middle" x="402" y="-107" font-family="Helvetica,sans-Serif" font-size="10.00" fill="grey"> factory_singleton</text>
</g>
<!-- Node8 -->
<g id="Node000008" class="node">
<title>Node8</title>
<g id="a_Node000008"><a xlink:href="classRealm_1_1XferDesFactory.html" target="_top" xlink:title=" ">
<polygon fill="white" stroke="#666666" points="412,-208 284,-208 284,-189 412,-189 412,-208"/>
<text text-anchor="middle" x="348" y="-196" font-family="Helvetica,sans-Serif" font-size="10.00">Realm::XferDesFactory</text>
</a>
</g>
</g>
<!-- Node8&#45;&gt;Node7 -->
<g id="edge9_Node000007_Node000008" class="edge">
<title>Node8&#45;&gt;Node7</title>
<g id="a_edge9_Node000007_Node000008"><a xlink:title=" ">
<path fill="none" stroke="#63b8ff" d="M348,-178.3C348,-169.41 348,-159.28 348,-152.25"/>
<polygon fill="#63b8ff" stroke="#63b8ff" points="344.5,-178.58 348,-188.58 351.5,-178.58 344.5,-178.58"/>
</a>
</g>
</g>
</g>
</svg>
