<?xml version="1.0" encoding="UTF-8" standalone="no"?>
<!DOCTYPE svg PUBLIC "-//W3C//DTD SVG 1.1//EN"
 "http://www.w3.org/Graphics/SVG/1.1/DTD/svg11.dtd">
<!-- Generated by graphviz version 2.43.0 (0)
 -->
<!-- Title: Realm::ActiveMessageHandlerRegBase Pages: 1 -->
<svg width="444pt" height="1040pt"
 viewBox="0.00 0.00 444.00 1039.50" xmlns="http://www.w3.org/2000/svg" xmlns:xlink="http://www.w3.org/1999/xlink">
<g id="graph0" class="graph" transform="scale(1 1) rotate(0) translate(4 1035.5)">
<title>Realm::ActiveMessageHandlerRegBase</title>
<!-- Node1 -->
<g id="Node000001" class="node">
<title>Node1</title>
<g id="a_Node000001"><a xlink:title=" ">
<polygon fill="#999999" stroke="#666666" points="167,-497 0,-497 0,-467 167,-467 167,-497"/>
<text text-anchor="start" x="8" y="-485" font-family="Helvetica,sans-Serif" font-size="10.00">Realm::ActiveMessageHandler</text>
<text text-anchor="middle" x="83.5" y="-474" font-family="Helvetica,sans-Serif" font-size="10.00">RegBase</text>
</a>
</g>
</g>
<!-- Node2 -->
<g id="Node000002" class="node">
<title>Node2</title>
<g id="a_Node000002"><a xlink:href="classRealm_1_1ActiveMessageHandlerReg.html" target="_top" xlink:title=" ">
<polygon fill="white" stroke="#666666" points="411.5,-1031.5 227.5,-1031.5 227.5,-990.5 411.5,-990.5 411.5,-1031.5"/>
<text text-anchor="start" x="235.5" y="-1019.5" font-family="Helvetica,sans-Serif" font-size="10.00">Realm::ActiveMessageHandler</text>
<text text-anchor="start" x="235.5" y="-1008.5" font-family="Helvetica,sans-Serif" font-size="10.00">Reg&lt; Realm::AddressSplitXferDes</text>
<text text-anchor="middle" x="319.5" y="-997.5" font-family="Helvetica,sans-Serif" font-size="10.00">CreateMessage&lt; N, T &gt; &gt;</text>
</a>
</g>
</g>
<!-- Node1&#45;&gt;Node2 -->
<g id="edge1_Node000001_Node000002" class="edge">
<title>Node1&#45;&gt;Node2</title>
<g id="a_edge1_Node000001_Node000002"><a xlink:title=" ">
<path fill="none" stroke="#63b8ff" d="M87.03,-507.04C96.75,-598.49 134.66,-912.74 203,-982 209.97,-989.06 218.39,-994.5 227.46,-998.67"/>
<polygon fill="#63b8ff" stroke="#63b8ff" points="90.5,-506.6 85.98,-497.02 83.54,-507.33 90.5,-506.6"/>
</a>
</g>
</g>
<!-- Node3 -->
<g id="Node000003" class="node">
<title>Node3</title>
<g id="a_Node000003"><a xlink:href="classRealm_1_1ActiveMessageHandlerReg.html" target="_top" xlink:title=" ">
<polygon fill="white" stroke="#666666" points="414.5,-972.5 224.5,-972.5 224.5,-931.5 414.5,-931.5 414.5,-972.5"/>
<text text-anchor="start" x="232.5" y="-960.5" font-family="Helvetica,sans-Serif" font-size="10.00">Realm::ActiveMessageHandler</text>
<text text-anchor="start" x="232.5" y="-949.5" font-family="Helvetica,sans-Serif" font-size="10.00">Reg&lt; Realm::WrappedWithFragInfo</text>
<text text-anchor="middle" x="319.5" y="-938.5" font-family="Helvetica,sans-Serif" font-size="10.00">&lt; UserHdr &gt;, UserHdr &gt;</text>
</a>
</g>
</g>
<!-- Node1&#45;&gt;Node3 -->
<g id="edge2_Node000001_Node000003" class="edge">
<title>Node1&#45;&gt;Node3</title>
<g id="a_edge2_Node000001_Node000003"><a xlink:title=" ">
<path fill="none" stroke="#63b8ff" d="M87.9,-506.99C99.85,-591.09 142.44,-861.98 203,-922 209.18,-928.13 216.44,-933.05 224.26,-937"/>
<polygon fill="#63b8ff" stroke="#63b8ff" points="91.36,-506.46 86.51,-497.04 84.43,-507.43 91.36,-506.46"/>
</a>
</g>
</g>
<!-- Node4 -->
<g id="Node000004" class="node">
<title>Node4</title>
<g id="a_Node000004"><a xlink:href="classRealm_1_1ActiveMessageHandlerReg.html" target="_top" xlink:title=" ">
<polygon fill="white" stroke="#666666" points="422.5,-913 216.5,-913 216.5,-861 422.5,-861 422.5,-913"/>
<text text-anchor="start" x="224.5" y="-901" font-family="Helvetica,sans-Serif" font-size="10.00">Realm::ActiveMessageHandler</text>
<text text-anchor="start" x="224.5" y="-890" font-family="Helvetica,sans-Serif" font-size="10.00">Reg&lt; Realm::RemoteMicroOpMessage</text>
<text text-anchor="start" x="224.5" y="-879" font-family="Helvetica,sans-Serif" font-size="10.00">&lt; Realm::ByFieldMicroOp&lt; N, T,</text>
<text text-anchor="middle" x="319.5" y="-868" font-family="Helvetica,sans-Serif" font-size="10.00"> FT &gt; &gt; &gt;</text>
</a>
</g>
</g>
<!-- Node1&#45;&gt;Node4 -->
<g id="edge3_Node000001_Node000004" class="edge">
<title>Node1&#45;&gt;Node4</title>
<g id="a_edge3_Node000001_Node000004"><a xlink:title=" ">
<path fill="none" stroke="#63b8ff" d="M84.96,-507.6C87.58,-574.2 103.94,-754.49 203,-852 207.03,-855.97 211.5,-859.49 216.26,-862.61"/>
<polygon fill="#63b8ff" stroke="#63b8ff" points="88.45,-507.1 84.63,-497.22 81.45,-507.32 88.45,-507.1"/>
</a>
</g>
</g>
<!-- Node5 -->
<g id="Node000005" class="node">
<title>Node5</title>
<g id="a_Node000005"><a xlink:href="classRealm_1_1ActiveMessageHandlerReg.html" target="_top" xlink:title=" ">
<polygon fill="white" stroke="#666666" points="430,-842.5 209,-842.5 209,-801.5 430,-801.5 430,-842.5"/>
<text text-anchor="start" x="217" y="-830.5" font-family="Helvetica,sans-Serif" font-size="10.00">Realm::ActiveMessageHandler</text>
<text text-anchor="start" x="217" y="-819.5" font-family="Helvetica,sans-Serif" font-size="10.00">Reg&lt; Realm::RemoteMicroOpMessage</text>
<text text-anchor="middle" x="319.5" y="-808.5" font-family="Helvetica,sans-Serif" font-size="10.00">&lt; Realm::DifferenceMicroOp&lt; N, T &gt; &gt; &gt;</text>
</a>
</g>
</g>
<!-- Node1&#45;&gt;Node5 -->
<g id="edge4_Node000001_Node000005" class="edge">
<title>Node1&#45;&gt;Node5</title>
<g id="a_edge4_Node000001_Node000005"><a xlink:title=" ">
<path fill="none" stroke="#63b8ff" d="M86.52,-507.26C92.64,-566.35 116.29,-714.42 203,-792 206.94,-795.52 211.24,-798.64 215.79,-801.4"/>
<polygon fill="#63b8ff" stroke="#63b8ff" points="90.01,-506.92 85.57,-497.3 83.04,-507.59 90.01,-506.92"/>
</a>
</g>
</g>
<!-- Node6 -->
<g id="Node000006" class="node">
<title>Node6</title>
<g id="a_Node000006"><a xlink:href="classRealm_1_1ActiveMessageHandlerReg.html" target="_top" xlink:title=" ">
<polygon fill="white" stroke="#666666" points="422.5,-783 216.5,-783 216.5,-731 422.5,-731 422.5,-783"/>
<text text-anchor="start" x="224.5" y="-771" font-family="Helvetica,sans-Serif" font-size="10.00">Realm::ActiveMessageHandler</text>
<text text-anchor="start" x="224.5" y="-760" font-family="Helvetica,sans-Serif" font-size="10.00">Reg&lt; Realm::RemoteMicroOpMessage</text>
<text text-anchor="start" x="224.5" y="-749" font-family="Helvetica,sans-Serif" font-size="10.00">&lt; Realm::ImageMicroOp&lt; N, T,</text>
<text text-anchor="middle" x="319.5" y="-738" font-family="Helvetica,sans-Serif" font-size="10.00"> N2, T2 &gt; &gt; &gt;</text>
</a>
</g>
</g>
<!-- Node1&#45;&gt;Node6 -->
<g id="edge5_Node000001_Node000006" class="edge">
<title>Node1&#45;&gt;Node6</title>
<g id="a_edge5_Node000001_Node000006"><a xlink:title=" ">
<path fill="none" stroke="#63b8ff" d="M89.91,-507.28C101.69,-556.11 134.29,-663.75 203,-722 207.16,-725.52 211.66,-728.69 216.39,-731.54"/>
<polygon fill="#63b8ff" stroke="#63b8ff" points="93.26,-506.2 87.59,-497.25 86.44,-507.78 93.26,-506.2"/>
</a>
</g>
</g>
<!-- Node7 -->
<g id="Node000007" class="node">
<title>Node7</title>
<g id="a_Node000007"><a xlink:href="classRealm_1_1ActiveMessageHandlerReg.html" target="_top" xlink:title=" ">
<polygon fill="white" stroke="#666666" points="422.5,-713 216.5,-713 216.5,-661 422.5,-661 422.5,-713"/>
<text text-anchor="start" x="224.5" y="-701" font-family="Helvetica,sans-Serif" font-size="10.00">Realm::ActiveMessageHandler</text>
<text text-anchor="start" x="224.5" y="-690" font-family="Helvetica,sans-Serif" font-size="10.00">Reg&lt; Realm::RemoteMicroOpMessage</text>
<text text-anchor="start" x="224.5" y="-679" font-family="Helvetica,sans-Serif" font-size="10.00">&lt; Realm::IntersectionMicroOp</text>
<text text-anchor="middle" x="319.5" y="-668" font-family="Helvetica,sans-Serif" font-size="10.00">&lt; N, T &gt; &gt; &gt;</text>
</a>
</g>
</g>
<!-- Node1&#45;&gt;Node7 -->
<g id="edge6_Node000001_Node000007" class="edge">
<title>Node1&#45;&gt;Node7</title>
<g id="a_edge6_Node000001_Node000007"><a xlink:title=" ">
<path fill="none" stroke="#63b8ff" d="M95.1,-506.54C112.33,-543.56 149.92,-613.45 203,-652 207.49,-655.26 212.29,-658.23 217.29,-660.91"/>
<polygon fill="#63b8ff" stroke="#63b8ff" points="98.1,-504.68 90.78,-497.02 91.73,-507.58 98.1,-504.68"/>
</a>
</g>
</g>
<!-- Node8 -->
<g id="Node000008" class="node">
<title>Node8</title>
<g id="a_Node000008"><a xlink:href="classRealm_1_1ActiveMessageHandlerReg.html" target="_top" xlink:title=" ">
<polygon fill="white" stroke="#666666" points="422.5,-643 216.5,-643 216.5,-591 422.5,-591 422.5,-643"/>
<text text-anchor="start" x="224.5" y="-631" font-family="Helvetica,sans-Serif" font-size="10.00">Realm::ActiveMessageHandler</text>
<text text-anchor="start" x="224.5" y="-620" font-family="Helvetica,sans-Serif" font-size="10.00">Reg&lt; Realm::RemoteMicroOpMessage</text>
<text text-anchor="start" x="224.5" y="-609" font-family="Helvetica,sans-Serif" font-size="10.00">&lt; Realm::PreimageMicroOp&lt; N,</text>
<text text-anchor="middle" x="319.5" y="-598" font-family="Helvetica,sans-Serif" font-size="10.00"> T, N2, T2 &gt; &gt; &gt;</text>
</a>
</g>
</g>
<!-- Node1&#45;&gt;Node8 -->
<g id="edge7_Node000001_Node000008" class="edge">
<title>Node1&#45;&gt;Node8</title>
<g id="a_edge7_Node000001_Node000008"><a xlink:title=" ">
<path fill="none" stroke="#63b8ff" d="M105.6,-504.54C127.86,-527.09 164.91,-561.31 203,-582 208.98,-585.25 215.31,-588.24 221.79,-590.98"/>
<polygon fill="#63b8ff" stroke="#63b8ff" points="107.85,-501.83 98.37,-497.09 102.83,-506.7 107.85,-501.83"/>
</a>
</g>
</g>
<!-- Node9 -->
<g id="Node000009" class="node">
<title>Node9</title>
<g id="a_Node000009"><a xlink:href="classRealm_1_1ActiveMessageHandlerReg.html" target="_top" xlink:title=" ">
<polygon fill="white" stroke="#666666" points="421,-573 218,-573 218,-521 421,-521 421,-573"/>
<text text-anchor="start" x="226" y="-561" font-family="Helvetica,sans-Serif" font-size="10.00">Realm::ActiveMessageHandler</text>
<text text-anchor="start" x="226" y="-550" font-family="Helvetica,sans-Serif" font-size="10.00">Reg&lt; Realm::ApproxImageResponse</text>
<text text-anchor="start" x="226" y="-539" font-family="Helvetica,sans-Serif" font-size="10.00">Message&lt; Realm::PreimageOperation</text>
<text text-anchor="middle" x="319.5" y="-528" font-family="Helvetica,sans-Serif" font-size="10.00">&lt; N, T, N2, T2 &gt; &gt; &gt;</text>
</a>
</g>
</g>
<!-- Node1&#45;&gt;Node9 -->
<g id="edge8_Node000001_Node000009" class="edge">
<title>Node1&#45;&gt;Node9</title>
<g id="a_edge8_Node000001_Node000009"><a xlink:title=" ">
<path fill="none" stroke="#63b8ff" d="M148.59,-499.8C172.05,-506.32 199.1,-513.83 224.63,-520.92"/>
<polygon fill="#63b8ff" stroke="#63b8ff" points="149.34,-496.38 138.77,-497.08 147.47,-503.12 149.34,-496.38"/>
</a>
</g>
</g>
<!-- Node10 -->
<g id="Node000010" class="node">
<title>Node10</title>
<g id="a_Node000010"><a xlink:href="classRealm_1_1ActiveMessageHandlerReg.html" target="_top" xlink:title=" ">
<polygon fill="white" stroke="#666666" points="424.5,-502.5 214.5,-502.5 214.5,-461.5 424.5,-461.5 424.5,-502.5"/>
<text text-anchor="start" x="222.5" y="-490.5" font-family="Helvetica,sans-Serif" font-size="10.00">Realm::ActiveMessageHandler</text>
<text text-anchor="start" x="222.5" y="-479.5" font-family="Helvetica,sans-Serif" font-size="10.00">Reg&lt; Realm::RemoteMicroOpComplete</text>
<text text-anchor="middle" x="319.5" y="-468.5" font-family="Helvetica,sans-Serif" font-size="10.00">Message &gt;</text>
</a>
</g>
</g>
<!-- Node1&#45;&gt;Node10 -->
<g id="edge9_Node000001_Node000010" class="edge">
<title>Node1&#45;&gt;Node10</title>
<g id="a_edge9_Node000001_Node000010"><a xlink:title=" ">
<path fill="none" stroke="#63b8ff" d="M177.45,-482C189.61,-482 202.13,-482 214.46,-482"/>
<polygon fill="#63b8ff" stroke="#63b8ff" points="177.33,-478.5 167.33,-482 177.33,-485.5 177.33,-478.5"/>
</a>
</g>
</g>
<!-- Node11 -->
<g id="Node000011" class="node">
<title>Node11</title>
<g id="a_Node000011"><a xlink:href="classRealm_1_1ActiveMessageHandlerReg.html" target="_top" xlink:title=" ">
<polygon fill="white" stroke="#666666" points="403,-443.5 236,-443.5 236,-402.5 403,-402.5 403,-443.5"/>
<text text-anchor="start" x="244" y="-431.5" font-family="Helvetica,sans-Serif" font-size="10.00">Realm::ActiveMessageHandler</text>
<text text-anchor="start" x="244" y="-420.5" font-family="Helvetica,sans-Serif" font-size="10.00">Reg&lt; Realm::SparsityMapImpl</text>
<text text-anchor="middle" x="319.5" y="-409.5" font-family="Helvetica,sans-Serif" font-size="10.00">::RemoteSparsityRequest &gt;</text>
</a>
</g>
</g>
<!-- Node1&#45;&gt;Node11 -->
<g id="edge10_Node000001_Node000011" class="edge">
<title>Node1&#45;&gt;Node11</title>
<g id="a_edge10_Node000001_Node000011"><a xlink:title=" ">
<path fill="none" stroke="#63b8ff" d="M153.94,-464.49C179.99,-457.92 209.83,-450.4 236.88,-443.58"/>
<polygon fill="#63b8ff" stroke="#63b8ff" points="152.99,-461.12 144.15,-466.96 154.71,-467.91 152.99,-461.12"/>
</a>
</g>
</g>
<!-- Node12 -->
<g id="Node000012" class="node">
<title>Node12</title>
<g id="a_Node000012"><a xlink:href="classRealm_1_1ActiveMessageHandlerReg.html" target="_top" xlink:title=" ">
<polygon fill="white" stroke="#666666" points="403,-384.5 236,-384.5 236,-343.5 403,-343.5 403,-384.5"/>
<text text-anchor="start" x="244" y="-372.5" font-family="Helvetica,sans-Serif" font-size="10.00">Realm::ActiveMessageHandler</text>
<text text-anchor="start" x="244" y="-361.5" font-family="Helvetica,sans-Serif" font-size="10.00">Reg&lt; Realm::SparsityMapImpl</text>
<text text-anchor="middle" x="319.5" y="-350.5" font-family="Helvetica,sans-Serif" font-size="10.00">::RemoteSparsityContrib &gt;</text>
</a>
</g>
</g>
<!-- Node1&#45;&gt;Node12 -->
<g id="edge11_Node000001_Node000012" class="edge">
<title>Node1&#45;&gt;Node12</title>
<g id="a_edge11_Node000001_Node000012"><a xlink:title=" ">
<path fill="none" stroke="#63b8ff" d="M108.17,-460.05C130.89,-440.11 166.98,-411.24 203,-394 213.28,-389.08 224.47,-384.89 235.71,-381.34"/>
<polygon fill="#63b8ff" stroke="#63b8ff" points="105.57,-457.69 100.43,-466.96 110.23,-462.91 105.57,-457.69"/>
</a>
</g>
</g>
<!-- Node13 -->
<g id="Node000013" class="node">
<title>Node13</title>
<g id="a_Node000013"><a xlink:href="classRealm_1_1ActiveMessageHandlerReg.html" target="_top" xlink:title=" ">
<polygon fill="white" stroke="#666666" points="403,-325.5 236,-325.5 236,-284.5 403,-284.5 403,-325.5"/>
<text text-anchor="start" x="244" y="-313.5" font-family="Helvetica,sans-Serif" font-size="10.00">Realm::ActiveMessageHandler</text>
<text text-anchor="start" x="244" y="-302.5" font-family="Helvetica,sans-Serif" font-size="10.00">Reg&lt; Realm::SparsityMapImpl</text>
<text text-anchor="middle" x="319.5" y="-291.5" font-family="Helvetica,sans-Serif" font-size="10.00">::SetContribCountMessage &gt;</text>
</a>
</g>
</g>
<!-- Node1&#45;&gt;Node13 -->
<g id="edge12_Node000001_Node000013" class="edge">
<title>Node1&#45;&gt;Node13</title>
<g id="a_edge12_Node000001_Node000013"><a xlink:title=" ">
<path fill="none" stroke="#63b8ff" d="M97.31,-457.9C116.06,-425.01 154.12,-366.55 203,-335 213.01,-328.54 224.35,-323.47 235.92,-319.49"/>
<polygon fill="#63b8ff" stroke="#63b8ff" points="94.14,-456.4 92.33,-466.84 100.25,-459.81 94.14,-456.4"/>
</a>
</g>
</g>
<!-- Node14 -->
<g id="Node000014" class="node">
<title>Node14</title>
<g id="a_Node000014"><a xlink:href="classRealm_1_1ActiveMessageHandlerReg.html" target="_top" xlink:title=" ">
<polygon fill="white" stroke="#666666" points="423.5,-266.5 215.5,-266.5 215.5,-225.5 423.5,-225.5 423.5,-266.5"/>
<text text-anchor="start" x="223.5" y="-254.5" font-family="Helvetica,sans-Serif" font-size="10.00">Realm::ActiveMessageHandler</text>
<text text-anchor="start" x="223.5" y="-243.5" font-family="Helvetica,sans-Serif" font-size="10.00">Reg&lt; Realm::SparsityMapImplWrapper</text>
<text text-anchor="middle" x="319.5" y="-232.5" font-family="Helvetica,sans-Serif" font-size="10.00">::UnsubscribeMessage &gt;</text>
</a>
</g>
</g>
<!-- Node1&#45;&gt;Node14 -->
<g id="edge13_Node000001_Node000014" class="edge">
<title>Node1&#45;&gt;Node14</title>
<g id="a_edge13_Node000001_Node000014"><a xlink:title=" ">
<path fill="none" stroke="#63b8ff" d="M91.77,-457.04C105.81,-413.4 140.86,-323.38 203,-276 207.61,-272.48 212.6,-269.38 217.82,-266.63"/>
<polygon fill="#63b8ff" stroke="#63b8ff" points="88.35,-456.25 88.73,-466.84 95.04,-458.33 88.35,-456.25"/>
</a>
</g>
</g>
<!-- Node15 -->
<g id="Node000015" class="node">
<title>Node15</title>
<g id="a_Node000015"><a xlink:href="classRealm_1_1ActiveMessageHandlerReg.html" target="_top" xlink:title=" ">
<polygon fill="white" stroke="#666666" points="422.5,-207.5 216.5,-207.5 216.5,-166.5 422.5,-166.5 422.5,-207.5"/>
<text text-anchor="start" x="224.5" y="-195.5" font-family="Helvetica,sans-Serif" font-size="10.00">Realm::ActiveMessageHandler</text>
<text text-anchor="start" x="224.5" y="-184.5" font-family="Helvetica,sans-Serif" font-size="10.00">Reg&lt; Realm::SparsityMapRefCounter</text>
<text text-anchor="middle" x="319.5" y="-173.5" font-family="Helvetica,sans-Serif" font-size="10.00">::SparsityMapAddReferenceMessage &gt;</text>
</a>
</g>
</g>
<!-- Node1&#45;&gt;Node15 -->
<g id="edge14_Node000001_Node000015" class="edge">
<title>Node1&#45;&gt;Node15</title>
<g id="a_edge14_Node000001_Node000015"><a xlink:title=" ">
<path fill="none" stroke="#63b8ff" d="M88.35,-456.8C97.77,-403.98 127.05,-281.26 203,-217 207.19,-213.45 211.75,-210.32 216.56,-207.55"/>
<polygon fill="#63b8ff" stroke="#63b8ff" points="84.89,-456.24 86.67,-466.68 91.79,-457.41 84.89,-456.24"/>
</a>
</g>
</g>
<!-- Node16 -->
<g id="Node000016" class="node">
<title>Node16</title>
<g id="a_Node000016"><a xlink:href="classRealm_1_1ActiveMessageHandlerReg.html" target="_top" xlink:title=" ">
<polygon fill="white" stroke="#666666" points="436,-148.5 203,-148.5 203,-107.5 436,-107.5 436,-148.5"/>
<text text-anchor="start" x="211" y="-136.5" font-family="Helvetica,sans-Serif" font-size="10.00">Realm::ActiveMessageHandler</text>
<text text-anchor="start" x="211" y="-125.5" font-family="Helvetica,sans-Serif" font-size="10.00">Reg&lt; Realm::SparsityMapRefCounter</text>
<text text-anchor="middle" x="319.5" y="-114.5" font-family="Helvetica,sans-Serif" font-size="10.00">::SparsityMapRemoveReferencesMessage &gt;</text>
</a>
</g>
</g>
<!-- Node1&#45;&gt;Node16 -->
<g id="edge15_Node000001_Node000016" class="edge">
<title>Node1&#45;&gt;Node16</title>
<g id="a_edge15_Node000001_Node000016"><a xlink:title=" ">
<path fill="none" stroke="#63b8ff" d="M86.07,-456.48C91.24,-395.38 113.04,-239.68 203,-158 206.91,-154.45 211.19,-151.31 215.72,-148.53"/>
<polygon fill="#63b8ff" stroke="#63b8ff" points="82.56,-456.51 85.28,-466.75 89.54,-457.05 82.56,-456.51"/>
</a>
</g>
</g>
<!-- Node17 -->
<g id="Node000017" class="node">
<title>Node17</title>
<g id="a_Node000017"><a xlink:href="classRealm_1_1ActiveMessageHandlerReg.html" target="_top" xlink:title=" ">
<polygon fill="white" stroke="#666666" points="422.5,-89.5 216.5,-89.5 216.5,-48.5 422.5,-48.5 422.5,-89.5"/>
<text text-anchor="start" x="224.5" y="-77.5" font-family="Helvetica,sans-Serif" font-size="10.00">Realm::ActiveMessageHandler</text>
<text text-anchor="start" x="224.5" y="-66.5" font-family="Helvetica,sans-Serif" font-size="10.00">Reg&lt; Realm::RemoteMicroOpMessage</text>
<text text-anchor="middle" x="319.5" y="-55.5" font-family="Helvetica,sans-Serif" font-size="10.00">&lt; Realm::UnionMicroOp&lt; N, T &gt; &gt; &gt;</text>
</a>
</g>
</g>
<!-- Node1&#45;&gt;Node17 -->
<g id="edge16_Node000001_Node000017" class="edge">
<title>Node1&#45;&gt;Node17</title>
<g id="a_edge16_Node000001_Node000017"><a xlink:title=" ">
<path fill="none" stroke="#63b8ff" d="M84.4,-456.66C85.58,-388.33 98.58,-198.73 203,-99 207.05,-95.14 211.52,-91.75 216.29,-88.79"/>
<polygon fill="#63b8ff" stroke="#63b8ff" points="80.9,-456.87 84.3,-466.91 87.9,-456.94 80.9,-456.87"/>
</a>
</g>
</g>
<!-- Node18 -->
<g id="Node000018" class="node">
<title>Node18</title>
<g id="a_Node000018"><a xlink:href="classRealm_1_1ActiveMessageHandlerReg.html" target="_top" xlink:title=" ">
<polygon fill="white" stroke="#666666" points="403,-30 236,-30 236,0 403,0 403,-30"/>
<text text-anchor="start" x="244" y="-18" font-family="Helvetica,sans-Serif" font-size="10.00">Realm::ActiveMessageHandler</text>
<text text-anchor="middle" x="319.5" y="-7" font-family="Helvetica,sans-Serif" font-size="10.00">Reg&lt; T, T2 &gt;</text>
</a>
</g>
</g>
<!-- Node1&#45;&gt;Node18 -->
<g id="edge17_Node000001_Node000018" class="edge">
<title>Node1&#45;&gt;Node18</title>
<g id="a_edge17_Node000001_Node000018"><a xlink:title=" ">
<path fill="none" stroke="#63b8ff" d="M87.8,-456.81C99.39,-372.02 141,-99.05 203,-40 212.21,-31.23 223.74,-25.24 235.91,-21.2"/>
<polygon fill="#63b8ff" stroke="#63b8ff" points="84.31,-456.46 86.44,-466.84 91.25,-457.39 84.31,-456.46"/>
</a>
</g>
</g>
</g>
</svg>
