<?xml version="1.0" encoding="UTF-8" standalone="no"?>
<!DOCTYPE svg PUBLIC "-//W3C//DTD SVG 1.1//EN"
 "http://www.w3.org/Graphics/SVG/1.1/DTD/svg11.dtd">
<!-- Generated by graphviz version 2.43.0 (0)
 -->
<!-- Title: Realm::LocalManagedMemory Pages: 1 -->
<svg width="521pt" height="212pt"
 viewBox="0.00 0.00 521.00 212.00" xmlns="http://www.w3.org/2000/svg" xmlns:xlink="http://www.w3.org/1999/xlink">
<g id="graph0" class="graph" transform="scale(1 1) rotate(0) translate(4 208)">
<title>Realm::LocalManagedMemory</title>
<!-- Node1 -->
<g id="Node000001" class="node">
<title>Node1</title>
<g id="a_Node000001"><a xlink:title=" ">
<polygon fill="#999999" stroke="#666666" points="317,-111 152,-111 152,-92 317,-92 317,-111"/>
<text text-anchor="middle" x="234.5" y="-99" font-family="Helvetica,sans-Serif" font-size="10.00">Realm::LocalManagedMemory</text>
</a>
</g>
</g>
<!-- Node3 -->
<g id="Node000003" class="node">
<title>Node3</title>
<g id="a_Node000003"><a xlink:href="classRealm_1_1Cuda_1_1GPUFBMemory.html" target="_top" xlink:title=" ">
<polygon fill="white" stroke="#666666" points="512.5,-204 353.5,-204 353.5,-185 512.5,-185 512.5,-204"/>
<text text-anchor="middle" x="433" y="-192" font-family="Helvetica,sans-Serif" font-size="10.00">Realm::Cuda::GPUFBMemory</text>
</a>
</g>
</g>
<!-- Node1&#45;&gt;Node3 -->
<g id="edge2_Node000001_Node000003" class="edge">
<title>Node1&#45;&gt;Node3</title>
<g id="a_edge2_Node000001_Node000003"><a xlink:title=" ">
<path fill="none" stroke="#63b8ff" d="M255.49,-117.33C277.96,-134.36 316.14,-161.09 353,-176.5 361.05,-179.86 369.83,-182.66 378.52,-184.95"/>
<polygon fill="#63b8ff" stroke="#63b8ff" points="257.47,-114.43 247.41,-111.1 253.19,-119.98 257.47,-114.43"/>
</a>
</g>
</g>
<!-- Node4 -->
<g id="Node000004" class="node">
<title>Node4</title>
<g id="a_Node000004"><a xlink:href="classRealm_1_1Cuda_1_1GPUZCMemory.html" target="_top" xlink:title=" ">
<polygon fill="white" stroke="#666666" points="513,-167 353,-167 353,-148 513,-148 513,-167"/>
<text text-anchor="middle" x="433" y="-155" font-family="Helvetica,sans-Serif" font-size="10.00">Realm::Cuda::GPUZCMemory</text>
</a>
</g>
</g>
<!-- Node1&#45;&gt;Node4 -->
<g id="edge3_Node000001_Node000004" class="edge">
<title>Node1&#45;&gt;Node4</title>
<g id="a_edge3_Node000001_Node000004"><a xlink:title=" ">
<path fill="none" stroke="#63b8ff" d="M272.53,-114.41C295.54,-122.2 325.81,-132.02 353,-139.5 363.85,-142.48 375.63,-145.36 386.71,-147.91"/>
<polygon fill="#63b8ff" stroke="#63b8ff" points="273.43,-111.02 262.83,-111.1 271.17,-117.64 273.43,-111.02"/>
</a>
</g>
</g>
<!-- Node5 -->
<g id="Node000005" class="node">
<title>Node5</title>
<g id="a_Node000005"><a xlink:href="classRealm_1_1DiskMemory.html" target="_top" xlink:title=" ">
<polygon fill="white" stroke="#666666" points="491,-130 375,-130 375,-111 491,-111 491,-130"/>
<text text-anchor="middle" x="433" y="-118" font-family="Helvetica,sans-Serif" font-size="10.00">Realm::DiskMemory</text>
</a>
</g>
</g>
<!-- Node1&#45;&gt;Node5 -->
<g id="edge4_Node000001_Node000005" class="edge">
<title>Node1&#45;&gt;Node5</title>
<g id="a_edge4_Node000001_Node000005"><a xlink:title=" ">
<path fill="none" stroke="#63b8ff" d="M327.19,-110.37C343.44,-111.94 359.92,-113.53 374.86,-114.97"/>
<polygon fill="#63b8ff" stroke="#63b8ff" points="327.42,-106.87 317.13,-109.39 326.74,-113.84 327.42,-106.87"/>
</a>
</g>
</g>
<!-- Node6 -->
<g id="Node000006" class="node">
<title>Node6</title>
<g id="a_Node000006"><a xlink:href="classRealm_1_1Hip_1_1GPUFBMemory.html" target="_top" xlink:title=" ">
<polygon fill="white" stroke="#666666" points="508.5,-93 357.5,-93 357.5,-74 508.5,-74 508.5,-93"/>
<text text-anchor="middle" x="433" y="-81" font-family="Helvetica,sans-Serif" font-size="10.00">Realm::Hip::GPUFBMemory</text>
</a>
</g>
</g>
<!-- Node1&#45;&gt;Node6 -->
<g id="edge5_Node000001_Node000006" class="edge">
<title>Node1&#45;&gt;Node6</title>
<g id="a_edge5_Node000001_Node000006"><a xlink:title=" ">
<path fill="none" stroke="#63b8ff" d="M327.15,-93.1C337.23,-92.18 347.39,-91.25 357.23,-90.35"/>
<polygon fill="#63b8ff" stroke="#63b8ff" points="326.77,-89.63 317.13,-94.02 327.4,-96.6 326.77,-89.63"/>
</a>
</g>
</g>
<!-- Node7 -->
<g id="Node000007" class="node">
<title>Node7</title>
<g id="a_Node000007"><a xlink:href="classRealm_1_1Hip_1_1GPUZCMemory.html" target="_top" xlink:title=" ">
<polygon fill="white" stroke="#666666" points="509,-56 357,-56 357,-37 509,-37 509,-56"/>
<text text-anchor="middle" x="433" y="-44" font-family="Helvetica,sans-Serif" font-size="10.00">Realm::Hip::GPUZCMemory</text>
</a>
</g>
</g>
<!-- Node1&#45;&gt;Node7 -->
<g id="edge6_Node000001_Node000007" class="edge">
<title>Node1&#45;&gt;Node7</title>
<g id="a_edge6_Node000001_Node000007"><a xlink:title=" ">
<path fill="none" stroke="#63b8ff" d="M273.48,-88.68C296.38,-81.17 326.21,-71.76 353,-64.5 364,-61.52 375.94,-58.62 387.14,-56.06"/>
<polygon fill="#63b8ff" stroke="#63b8ff" points="272.2,-85.42 263.8,-91.88 274.39,-92.06 272.2,-85.42"/>
</a>
</g>
</g>
<!-- Node8 -->
<g id="Node000008" class="node">
<title>Node8</title>
<g id="a_Node000008"><a xlink:href="classRealm_1_1LocalCPUMemory.html" target="_top" xlink:title=" ">
<polygon fill="white" stroke="#666666" points="503,-19 363,-19 363,0 503,0 503,-19"/>
<text text-anchor="middle" x="433" y="-7" font-family="Helvetica,sans-Serif" font-size="10.00">Realm::LocalCPUMemory</text>
</a>
</g>
</g>
<!-- Node1&#45;&gt;Node8 -->
<g id="edge7_Node000001_Node000008" class="edge">
<title>Node1&#45;&gt;Node8</title>
<g id="a_edge7_Node000001_Node000008"><a xlink:title=" ">
<path fill="none" stroke="#63b8ff" d="M255.88,-85.63C278.43,-68.82 316.43,-42.66 353,-27.5 361.06,-24.16 369.84,-21.38 378.54,-19.09"/>
<polygon fill="#63b8ff" stroke="#63b8ff" points="253.62,-82.95 247.76,-91.78 257.85,-88.53 253.62,-82.95"/>
</a>
</g>
</g>
<!-- Node2 -->
<g id="Node000002" class="node">
<title>Node2</title>
<g id="a_Node000002"><a xlink:href="classRealm_1_1MemoryImpl.html" target="_top" xlink:title=" ">
<polygon fill="white" stroke="#666666" points="116,-111 0,-111 0,-92 116,-92 116,-111"/>
<text text-anchor="middle" x="58" y="-99" font-family="Helvetica,sans-Serif" font-size="10.00">Realm::MemoryImpl</text>
</a>
</g>
</g>
<!-- Node2&#45;&gt;Node1 -->
<g id="edge1_Node000001_Node000002" class="edge">
<title>Node2&#45;&gt;Node1</title>
<g id="a_edge1_Node000001_Node000002"><a xlink:title=" ">
<path fill="none" stroke="#63b8ff" d="M126.22,-101.5C134.62,-101.5 143.28,-101.5 151.86,-101.5"/>
<polygon fill="#63b8ff" stroke="#63b8ff" points="126.14,-98 116.14,-101.5 126.14,-105 126.14,-98"/>
</a>
</g>
</g>
</g>
</svg>
