<?xml version="1.0" encoding="UTF-8" standalone="no"?>
<!DOCTYPE svg PUBLIC "-//W3C//DTD SVG 1.1//EN"
 "http://www.w3.org/Graphics/SVG/1.1/DTD/svg11.dtd">
<!-- Generated by graphviz version 2.43.0 (0)
 -->
<!-- Title: PRealm::Event Pages: 1 -->
<svg width="230pt" height="137pt"
 viewBox="0.00 0.00 229.50 137.00" xmlns="http://www.w3.org/2000/svg" xmlns:xlink="http://www.w3.org/1999/xlink">
<g id="graph0" class="graph" transform="scale(1 1) rotate(0) translate(4 133)">
<title>PRealm::Event</title>
<!-- Node1 -->
<g id="Node000001" class="node">
<title>Node1</title>
<g id="a_Node000001"><a xlink:title=" ">
<polygon fill="#999999" stroke="#666666" points="150.5,-74 62.5,-74 62.5,-55 150.5,-55 150.5,-74"/>
<text text-anchor="middle" x="106.5" y="-62" font-family="Helvetica,sans-Serif" font-size="10.00">PRealm::Event</text>
</a>
</g>
</g>
<!-- Node3 -->
<g id="Node000003" class="node">
<title>Node3</title>
<g id="a_Node000003"><a xlink:href="classPRealm_1_1Barrier.html" target="_top" xlink:title=" ">
<polygon fill="white" stroke="#666666" points="93,-19 0,-19 0,0 93,0 93,-19"/>
<text text-anchor="middle" x="46.5" y="-7" font-family="Helvetica,sans-Serif" font-size="10.00">PRealm::Barrier</text>
</a>
</g>
</g>
<!-- Node1&#45;&gt;Node3 -->
<g id="edge2_Node000001_Node000003" class="edge">
<title>Node1&#45;&gt;Node3</title>
<g id="a_edge2_Node000001_Node000003"><a xlink:title=" ">
<path fill="none" stroke="#63b8ff" d="M89.32,-48.32C78.62,-38.87 65.24,-27.06 56.32,-19.17"/>
<polygon fill="#63b8ff" stroke="#63b8ff" points="87.05,-50.99 96.86,-54.98 91.68,-45.74 87.05,-50.99"/>
</a>
</g>
</g>
<!-- Node4 -->
<g id="Node000004" class="node">
<title>Node4</title>
<g id="a_Node000004"><a xlink:href="classPRealm_1_1UserEvent.html" target="_top" xlink:title=" ">
<polygon fill="white" stroke="#666666" points="221.5,-19 111.5,-19 111.5,0 221.5,0 221.5,-19"/>
<text text-anchor="middle" x="166.5" y="-7" font-family="Helvetica,sans-Serif" font-size="10.00">PRealm::UserEvent</text>
</a>
</g>
</g>
<!-- Node1&#45;&gt;Node4 -->
<g id="edge3_Node000001_Node000004" class="edge">
<title>Node1&#45;&gt;Node4</title>
<g id="a_edge3_Node000001_Node000004"><a xlink:title=" ">
<path fill="none" stroke="#63b8ff" d="M123.68,-48.32C134.38,-38.87 147.76,-27.06 156.68,-19.17"/>
<polygon fill="#63b8ff" stroke="#63b8ff" points="121.32,-45.74 116.14,-54.98 125.95,-50.99 121.32,-45.74"/>
</a>
</g>
</g>
<!-- Node2 -->
<g id="Node000002" class="node">
<title>Node2</title>
<g id="a_Node000002"><a xlink:href="classRealm_1_1Event.html" target="_top" xlink:title=" ">
<polygon fill="white" stroke="#666666" points="147.5,-129 65.5,-129 65.5,-110 147.5,-110 147.5,-129"/>
<text text-anchor="middle" x="106.5" y="-117" font-family="Helvetica,sans-Serif" font-size="10.00">Realm::Event</text>
</a>
</g>
</g>
<!-- Node2&#45;&gt;Node1 -->
<g id="edge1_Node000001_Node000002" class="edge">
<title>Node2&#45;&gt;Node1</title>
<g id="a_edge1_Node000001_Node000002"><a xlink:title=" ">
<path fill="none" stroke="#63b8ff" d="M106.5,-99.66C106.5,-90.93 106.5,-80.99 106.5,-74.09"/>
<polygon fill="#63b8ff" stroke="#63b8ff" points="103,-99.75 106.5,-109.75 110,-99.75 103,-99.75"/>
</a>
</g>
</g>
</g>
</svg>
