<?xml version="1.0" encoding="UTF-8" standalone="no"?>
<!DOCTYPE svg PUBLIC "-//W3C//DTD SVG 1.1//EN"
 "http://www.w3.org/Graphics/SVG/1.1/DTD/svg11.dtd">
<!-- Generated by graphviz version 2.43.0 (0)
 -->
<!-- Title: PRealm::Barrier Pages: 1 -->
<svg width="186pt" height="139pt"
 viewBox="0.00 0.00 186.00 139.00" xmlns="http://www.w3.org/2000/svg" xmlns:xlink="http://www.w3.org/1999/xlink">
<g id="graph0" class="graph" transform="scale(1 1) rotate(0) translate(4 135)">
<title>PRealm::Barrier</title>
<!-- Node1 -->
<g id="Node000001" class="node">
<title>Node1</title>
<g id="a_Node000001"><a xlink:title=" ">
<polygon fill="#999999" stroke="#666666" points="93,-19 0,-19 0,0 93,0 93,-19"/>
<text text-anchor="middle" x="46.5" y="-7" font-family="Helvetica,sans-Serif" font-size="10.00">PRealm::Barrier</text>
</a>
</g>
</g>
<!-- Node1&#45;&gt;Node1 -->
<g id="edge5_Node000001_Node000001" class="edge">
<title>Node1&#45;&gt;Node1</title>
<g id="a_edge5_Node000001_Node000001"><a xlink:title=" ">
<path fill="none" stroke="#9a32cd" stroke-dasharray="5,2" d="M103.35,-13.55C108.07,-12.68 111,-11.33 111,-9.5 111,-6.57 103.49,-4.87 93.17,-4.39"/>
<polygon fill="#9a32cd" stroke="#9a32cd" points="102.76,-10.09 93.17,-14.61 103.48,-17.06 102.76,-10.09"/>
</a>
</g>
<text text-anchor="middle" x="144.5" y="-7" font-family="Helvetica,sans-Serif" font-size="10.00" fill="grey"> NO_BARRIER</text>
</g>
<!-- Node2 -->
<g id="Node000002" class="node">
<title>Node2</title>
<g id="a_Node000002"><a xlink:href="classPRealm_1_1Event.html" target="_top" xlink:title=" ">
<polygon fill="white" stroke="#666666" points="90.5,-75 2.5,-75 2.5,-56 90.5,-56 90.5,-75"/>
<text text-anchor="middle" x="46.5" y="-63" font-family="Helvetica,sans-Serif" font-size="10.00">PRealm::Event</text>
</a>
</g>
</g>
<!-- Node2&#45;&gt;Node1 -->
<g id="edge1_Node000001_Node000002" class="edge">
<title>Node2&#45;&gt;Node1</title>
<g id="a_edge1_Node000001_Node000002"><a xlink:title=" ">
<path fill="none" stroke="#63b8ff" d="M46.5,-45.3C46.5,-36.41 46.5,-26.28 46.5,-19.25"/>
<polygon fill="#63b8ff" stroke="#63b8ff" points="43,-45.58 46.5,-55.58 50,-45.58 43,-45.58"/>
</a>
</g>
</g>
<!-- Node2&#45;&gt;Node2 -->
<g id="edge4_Node000002_Node000002" class="edge">
<title>Node2&#45;&gt;Node2</title>
<g id="a_edge4_Node000002_Node000002"><a xlink:title=" ">
<path fill="none" stroke="#9a32cd" stroke-dasharray="5,2" d="M100.76,-69.63C105.52,-68.75 108.5,-67.38 108.5,-65.5 108.5,-62.49 100.87,-60.78 90.52,-60.35"/>
<polygon fill="#9a32cd" stroke="#9a32cd" points="100.13,-66.17 90.52,-70.65 100.82,-73.14 100.13,-66.17"/>
</a>
</g>
<text text-anchor="middle" x="136.5" y="-63" font-family="Helvetica,sans-Serif" font-size="10.00" fill="grey"> NO_EVENT</text>
</g>
<!-- Node3 -->
<g id="Node000003" class="node">
<title>Node3</title>
<g id="a_Node000003"><a xlink:href="classRealm_1_1Event.html" target="_top" xlink:title=" ">
<polygon fill="white" stroke="#666666" points="87.5,-131 5.5,-131 5.5,-112 87.5,-112 87.5,-131"/>
<text text-anchor="middle" x="46.5" y="-119" font-family="Helvetica,sans-Serif" font-size="10.00">Realm::Event</text>
</a>
</g>
</g>
<!-- Node3&#45;&gt;Node2 -->
<g id="edge2_Node000002_Node000003" class="edge">
<title>Node3&#45;&gt;Node2</title>
<g id="a_edge2_Node000002_Node000003"><a xlink:title=" ">
<path fill="none" stroke="#63b8ff" d="M46.5,-101.3C46.5,-92.41 46.5,-82.28 46.5,-75.25"/>
<polygon fill="#63b8ff" stroke="#63b8ff" points="43,-101.58 46.5,-111.58 50,-101.58 43,-101.58"/>
</a>
</g>
</g>
<!-- Node3&#45;&gt;Node3 -->
<g id="edge3_Node000003_Node000003" class="edge">
<title>Node3&#45;&gt;Node3</title>
<g id="a_edge3_Node000003_Node000003"><a xlink:title=" ">
<path fill="none" stroke="#9a32cd" stroke-dasharray="5,2" d="M97.76,-125.7C102.51,-124.83 105.5,-123.43 105.5,-121.5 105.5,-118.41 97.84,-116.68 87.58,-116.32"/>
<polygon fill="#9a32cd" stroke="#9a32cd" points="97.2,-122.23 87.58,-126.68 97.87,-129.2 97.2,-122.23"/>
</a>
</g>
<text text-anchor="middle" x="133.5" y="-119" font-family="Helvetica,sans-Serif" font-size="10.00" fill="grey"> NO_EVENT</text>
</g>
</g>
</svg>
