<?xml version="1.0" encoding="UTF-8" standalone="no"?>
<!DOCTYPE svg PUBLIC "-//W3C//DTD SVG 1.1//EN"
 "http://www.w3.org/Graphics/SVG/1.1/DTD/svg11.dtd">
<!-- Generated by graphviz version 2.43.0 (0)
 -->
<!-- Title: Realm::OutbufMetadata Pages: 1 -->
<svg width="1085pt" height="538pt"
 viewBox="0.00 0.00 1085.00 537.51" xmlns="http://www.w3.org/2000/svg" xmlns:xlink="http://www.w3.org/1999/xlink">
<g id="graph0" class="graph" transform="scale(1 1) rotate(0) translate(4 533.51)">
<title>Realm::OutbufMetadata</title>
<!-- Node1 -->
<g id="Node000001" class="node">
<title>Node1</title>
<g id="a_Node000001"><a xlink:title=" ">
<polygon fill="#999999" stroke="#666666" points="716.5,-486.51 582.5,-486.51 582.5,-467.51 716.5,-467.51 716.5,-486.51"/>
<text text-anchor="middle" x="649.5" y="-474.51" font-family="Helvetica,sans-Serif" font-size="10.00">Realm::OutbufMetadata</text>
</a>
</g>
</g>
<!-- Node1&#45;&gt;Node1 -->
<g id="edge20_Node000001_Node000001" class="edge">
<title>Node1&#45;&gt;Node1</title>
<g id="a_edge20_Node000001_Node000001"><a xlink:title=" ">
<path fill="none" stroke="#9a32cd" stroke-dasharray="5,2" d="M619.26,-495.33C620.52,-500.52 630.6,-504.51 649.5,-504.51 678.29,-504.51 686.62,-495.24 674.47,-486.59"/>
<polygon fill="#9a32cd" stroke="#9a32cd" points="622.36,-496.96 624.53,-486.59 616.37,-493.35 622.36,-496.96"/>
</a>
</g>
<text text-anchor="middle" x="649.5" y="-518.51" font-family="Helvetica,sans-Serif" font-size="10.00" fill="grey"> next_overflow</text>
<text text-anchor="middle" x="649.5" y="-507.51" font-family="Helvetica,sans-Serif" font-size="10.00" fill="grey">nextbuf</text>
</g>
<!-- Node2 -->
<g id="Node000002" class="node">
<title>Node2</title>
<g id="a_Node000002"><a xlink:href="classRealm_1_1OutbufManager.html" target="_top" xlink:title=" ">
<polygon fill="white" stroke="#666666" points="1052.5,-401.51 922.5,-401.51 922.5,-382.51 1052.5,-382.51 1052.5,-401.51"/>
<text text-anchor="middle" x="987.5" y="-389.51" font-family="Helvetica,sans-Serif" font-size="10.00">Realm::OutbufManager</text>
</a>
</g>
</g>
<!-- Node1&#45;&gt;Node2 -->
<g id="edge18_Node000002_Node000001" class="edge">
<title>Node1&#45;&gt;Node2</title>
<g id="a_edge18_Node000002_Node000001"><a xlink:title=" ">
<path fill="none" stroke="#9a32cd" stroke-dasharray="5,2" d="M672.21,-461.61C692.95,-447.74 725.61,-428.04 757,-418.01 786.79,-408.49 865.5,-400.92 922.44,-396.45"/>
<polygon fill="#9a32cd" stroke="#9a32cd" points="670.11,-458.8 663.83,-467.33 674.06,-464.58 670.11,-458.8"/>
</a>
</g>
<text text-anchor="middle" x="818.5" y="-465.01" font-family="Helvetica,sans-Serif" font-size="10.00" fill="grey"> first_available</text>
<text text-anchor="middle" x="818.5" y="-454.01" font-family="Helvetica,sans-Serif" font-size="10.00" fill="grey">metadatas</text>
<text text-anchor="middle" x="818.5" y="-443.01" font-family="Helvetica,sans-Serif" font-size="10.00" fill="grey">overflow_head</text>
<text text-anchor="middle" x="818.5" y="-432.01" font-family="Helvetica,sans-Serif" font-size="10.00" fill="grey">overflow_tail</text>
<text text-anchor="middle" x="818.5" y="-421.01" font-family="Helvetica,sans-Serif" font-size="10.00" fill="grey">reserved_head</text>
</g>
<!-- Node2&#45;&gt;Node1 -->
<g id="edge1_Node000001_Node000002" class="edge">
<title>Node2&#45;&gt;Node1</title>
<g id="a_edge1_Node000001_Node000002"><a xlink:title=" ">
<path fill="none" stroke="#9a32cd" stroke-dasharray="5,2" d="M971.83,-409.34C953.03,-430.05 918.27,-463.61 880,-477.01 821.71,-497.42 749.87,-493.11 702.26,-486.54"/>
<polygon fill="#9a32cd" stroke="#9a32cd" points="974.67,-411.41 978.66,-401.59 969.42,-406.78 974.67,-411.41"/>
</a>
</g>
<text text-anchor="middle" x="818.5" y="-495.01" font-family="Helvetica,sans-Serif" font-size="10.00" fill="grey"> manager</text>
</g>
<!-- Node3 -->
<g id="Node000003" class="node">
<title>Node3</title>
<g id="a_Node000003"><a xlink:href="classRealm_1_1BackgroundWorkItem.html" target="_top" xlink:title=" ">
<polygon fill="white" stroke="#666666" points="729,-346.51 570,-346.51 570,-327.51 729,-327.51 729,-346.51"/>
<text text-anchor="middle" x="649.5" y="-334.51" font-family="Helvetica,sans-Serif" font-size="10.00">Realm::BackgroundWorkItem</text>
</a>
</g>
</g>
<!-- Node3&#45;&gt;Node2 -->
<g id="edge2_Node000002_Node000003" class="edge">
<title>Node3&#45;&gt;Node2</title>
<g id="a_edge2_Node000002_Node000003"><a xlink:title=" ">
<path fill="none" stroke="#63b8ff" d="M718.66,-348.17C780.24,-358.25 869.91,-372.92 928.22,-382.47"/>
<polygon fill="#63b8ff" stroke="#63b8ff" points="719.08,-344.69 708.64,-346.53 717.95,-351.6 719.08,-344.69"/>
</a>
</g>
</g>
<!-- Node4 -->
<g id="Node000004" class="node">
<title>Node4</title>
<g id="a_Node000004"><a xlink:href="classRealm_1_1BackgroundWorkManager.html" target="_top" xlink:title=" ">
<polygon fill="white" stroke="#666666" points="1077,-198.51 898,-198.51 898,-179.51 1077,-179.51 1077,-198.51"/>
<text text-anchor="middle" x="987.5" y="-186.51" font-family="Helvetica,sans-Serif" font-size="10.00">Realm::BackgroundWorkManager</text>
</a>
</g>
</g>
<!-- Node3&#45;&gt;Node4 -->
<g id="edge13_Node000004_Node000003" class="edge">
<title>Node3&#45;&gt;Node4</title>
<g id="a_edge13_Node000004_Node000003"><a xlink:title=" ">
<path fill="none" stroke="#9a32cd" stroke-dasharray="5,2" d="M685.59,-324.02C706.18,-316.77 732.81,-308.01 757,-302.01 810.82,-288.65 829.84,-304.67 880,-281.01 923.09,-260.68 962.33,-217.94 978.58,-198.73"/>
<polygon fill="#9a32cd" stroke="#9a32cd" points="684.25,-320.78 676.01,-327.44 686.61,-327.37 684.25,-320.78"/>
</a>
</g>
<text text-anchor="middle" x="818.5" y="-305.01" font-family="Helvetica,sans-Serif" font-size="10.00" fill="grey"> work_items</text>
</g>
<!-- Node4&#45;&gt;Node3 -->
<g id="edge3_Node000003_Node000004" class="edge">
<title>Node4&#45;&gt;Node3</title>
<g id="a_edge3_Node000003_Node000004"><a xlink:title=" ">
<path fill="none" stroke="#9a32cd" stroke-dasharray="5,2" d="M976.89,-207.79C961.05,-236.53 926.53,-290.65 880,-315.01 854.47,-328.38 785.04,-333.67 729.19,-335.74"/>
<polygon fill="#9a32cd" stroke="#9a32cd" points="980.08,-209.25 981.7,-198.78 973.9,-205.95 980.08,-209.25"/>
</a>
</g>
<text text-anchor="middle" x="818.5" y="-338.01" font-family="Helvetica,sans-Serif" font-size="10.00" fill="grey"> manager</text>
</g>
<!-- Node5 -->
<g id="Node000005" class="node">
<title>Node5</title>
<g id="a_Node000005"><a xlink:href="structRealm_1_1BackgroundWorkManager_1_1Config.html" target="_top" xlink:title=" ">
<polygon fill="white" stroke="#666666" points="739,-191.01 560,-191.01 560,-161.01 739,-161.01 739,-191.01"/>
<text text-anchor="start" x="568" y="-179.01" font-family="Helvetica,sans-Serif" font-size="10.00">Realm::BackgroundWorkManager</text>
<text text-anchor="middle" x="649.5" y="-168.01" font-family="Helvetica,sans-Serif" font-size="10.00">::Config</text>
</a>
</g>
</g>
<!-- Node5&#45;&gt;Node4 -->
<g id="edge4_Node000004_Node000005" class="edge">
<title>Node5&#45;&gt;Node4</title>
<g id="a_edge4_Node000004_Node000005"><a xlink:title=" ">
<path fill="none" stroke="#9a32cd" stroke-dasharray="5,2" d="M749.27,-174.11C789.81,-173.94 837.19,-174.51 880,-177.01 890.12,-177.6 900.76,-178.48 911.24,-179.51"/>
<polygon fill="#9a32cd" stroke="#9a32cd" points="749.1,-170.61 739.12,-174.17 749.14,-177.61 749.1,-170.61"/>
</a>
</g>
<text text-anchor="middle" x="818.5" y="-180.01" font-family="Helvetica,sans-Serif" font-size="10.00" fill="grey"> cfg</text>
</g>
<!-- Node6 -->
<g id="Node000006" class="node">
<title>Node6</title>
<g id="a_Node000006"><a xlink:href="classRealm_1_1UnfairMutex.html" target="_top" xlink:title=" ">
<polygon fill="white" stroke="#666666" points="707,-275.51 592,-275.51 592,-256.51 707,-256.51 707,-275.51"/>
<text text-anchor="middle" x="649.5" y="-263.51" font-family="Helvetica,sans-Serif" font-size="10.00">Realm::UnfairMutex</text>
</a>
</g>
</g>
<!-- Node6&#45;&gt;Node2 -->
<g id="edge19_Node000002_Node000006" class="edge">
<title>Node6&#45;&gt;Node2</title>
<g id="a_edge19_Node000002_Node000006"><a xlink:title=" ">
<path fill="none" stroke="#9a32cd" stroke-dasharray="5,2" d="M705.55,-254.9C753.87,-247.88 824.84,-244.36 880,-270.01 932.26,-294.31 969.12,-357.92 981.73,-382.31"/>
<polygon fill="#9a32cd" stroke="#9a32cd" points="704.94,-251.45 695.6,-256.44 706.01,-258.37 704.94,-251.45"/>
</a>
</g>
<text text-anchor="middle" x="818.5" y="-273.01" font-family="Helvetica,sans-Serif" font-size="10.00" fill="grey"> mutex</text>
</g>
<!-- Node6&#45;&gt;Node4 -->
<g id="edge5_Node000004_Node000006" class="edge">
<title>Node6&#45;&gt;Node4</title>
<g id="a_edge5_Node000004_Node000006"><a xlink:title=" ">
<path fill="none" stroke="#9a32cd" stroke-dasharray="5,2" d="M697.65,-253.76C711.05,-250.13 725.64,-246.04 739,-242.01 747.07,-239.57 748.84,-238.12 757,-236.01 810.84,-222.07 825.53,-224.24 880,-213.01 901.81,-208.51 926.04,-203.09 945.87,-198.53"/>
<polygon fill="#9a32cd" stroke="#9a32cd" points="696.42,-250.46 687.66,-256.43 698.23,-257.22 696.42,-250.46"/>
</a>
</g>
<text text-anchor="middle" x="818.5" y="-239.01" font-family="Helvetica,sans-Serif" font-size="10.00" fill="grey"> mutex</text>
</g>
<!-- Node7 -->
<g id="Node000007" class="node">
<title>Node7</title>
<g id="a_Node000007"><a xlink:href="classRealm_1_1noncopyable.html" target="_top" xlink:title=" ">
<polygon fill="white" stroke="#666666" points="396,-295.51 280,-295.51 280,-276.51 396,-276.51 396,-295.51"/>
<text text-anchor="middle" x="338" y="-283.51" font-family="Helvetica,sans-Serif" font-size="10.00">Realm::noncopyable</text>
</a>
</g>
</g>
<!-- Node7&#45;&gt;Node6 -->
<g id="edge6_Node000006_Node000007" class="edge">
<title>Node7&#45;&gt;Node6</title>
<g id="a_edge6_Node000006_Node000007"><a xlink:title=" ">
<path fill="none" stroke="#63b8ff" d="M406.22,-281.67C461.73,-278.08 539.62,-273.04 591.97,-269.66"/>
<polygon fill="#63b8ff" stroke="#63b8ff" points="405.88,-278.18 396.13,-282.32 406.33,-285.17 405.88,-278.18"/>
</a>
</g>
</g>
<!-- Node8 -->
<g id="Node000008" class="node">
<title>Node8</title>
<g id="a_Node000008"><a xlink:href="classRealm_1_1atomic.html" target="_top" xlink:title=" ">
<polygon fill="white" stroke="#666666" points="413,-247.51 263,-247.51 263,-228.51 413,-228.51 413,-247.51"/>
<text text-anchor="middle" x="338" y="-235.51" font-family="Helvetica,sans-Serif" font-size="10.00">Realm::atomic&lt; uint32_t &gt;</text>
</a>
</g>
</g>
<!-- Node8&#45;&gt;Node4 -->
<g id="edge14_Node000004_Node000008" class="edge">
<title>Node8&#45;&gt;Node4</title>
<g id="a_edge14_Node000004_Node000008"><a xlink:title=" ">
<path fill="none" stroke="#9a32cd" stroke-dasharray="5,2" d="M423.38,-231.62C546.1,-222.34 772.82,-205.18 897.89,-195.71"/>
<polygon fill="#9a32cd" stroke="#9a32cd" points="422.98,-228.14 413.28,-232.39 423.51,-235.12 422.98,-228.14"/>
</a>
</g>
<text text-anchor="middle" x="649.5" y="-224.01" font-family="Helvetica,sans-Serif" font-size="10.00" fill="grey"> worker_state</text>
</g>
<!-- Node8&#45;&gt;Node6 -->
<g id="edge7_Node000006_Node000008" class="edge">
<title>Node8&#45;&gt;Node6</title>
<g id="a_edge7_Node000006_Node000008"><a xlink:title=" ">
<path fill="none" stroke="#9a32cd" stroke-dasharray="5,2" d="M423.3,-245.64C476.87,-250.48 544.76,-256.62 591.92,-260.89"/>
<polygon fill="#9a32cd" stroke="#9a32cd" points="423.41,-242.13 413.13,-244.72 422.78,-249.1 423.41,-242.13"/>
</a>
</g>
<text text-anchor="middle" x="486.5" y="-260.01" font-family="Helvetica,sans-Serif" font-size="10.00" fill="grey"> state</text>
</g>
<!-- Node9 -->
<g id="Node000009" class="node">
<title>Node9</title>
<g id="a_Node000009"><a xlink:href="classRealm_1_1DoorbellList.html" target="_top" xlink:title=" ">
<polygon fill="white" stroke="#666666" points="394.5,-181.51 281.5,-181.51 281.5,-162.51 394.5,-162.51 394.5,-181.51"/>
<text text-anchor="middle" x="338" y="-169.51" font-family="Helvetica,sans-Serif" font-size="10.00">Realm::DoorbellList</text>
</a>
</g>
</g>
<!-- Node9&#45;&gt;Node4 -->
<g id="edge17_Node000004_Node000009" class="edge">
<title>Node9&#45;&gt;Node4</title>
<g id="a_edge17_Node000004_Node000009"><a xlink:title=" ">
<path fill="none" stroke="#9a32cd" stroke-dasharray="5,2" d="M401.92,-160.8C446,-153.54 506.39,-144.75 560,-141.01 639.36,-135.47 659.81,-133.4 739,-141.01 814.37,-148.25 900.9,-167.63 949.09,-179.43"/>
<polygon fill="#9a32cd" stroke="#9a32cd" points="401.21,-157.37 391.92,-162.47 402.36,-164.28 401.21,-157.37"/>
</a>
</g>
<text text-anchor="middle" x="649.5" y="-144.01" font-family="Helvetica,sans-Serif" font-size="10.00" fill="grey"> db_list</text>
</g>
<!-- Node9&#45;&gt;Node6 -->
<g id="edge8_Node000006_Node000009" class="edge">
<title>Node9&#45;&gt;Node6</title>
<g id="a_edge8_Node000006_Node000009"><a xlink:title=" ">
<path fill="none" stroke="#9a32cd" stroke-dasharray="5,2" d="M387.71,-184.12C429.34,-195.07 490.49,-212.57 542,-233.01 550.31,-236.31 551.64,-238.82 560,-242.01 574.88,-247.68 591.63,-252.58 606.53,-256.45"/>
<polygon fill="#9a32cd" stroke="#9a32cd" points="388.39,-180.68 377.83,-181.55 386.63,-187.46 388.39,-180.68"/>
</a>
</g>
<text text-anchor="middle" x="486.5" y="-236.01" font-family="Helvetica,sans-Serif" font-size="10.00" fill="grey"> db_list</text>
</g>
<!-- Node10 -->
<g id="Node000010" class="node">
<title>Node10</title>
<g id="a_Node000010"><a xlink:href="classRealm_1_1atomic.html" target="_top" xlink:title=" ">
<polygon fill="white" stroke="#666666" points="152,-181.51 0,-181.51 0,-162.51 152,-162.51 152,-181.51"/>
<text text-anchor="middle" x="76" y="-169.51" font-family="Helvetica,sans-Serif" font-size="10.00">Realm::atomic&lt; uintptr_t &gt;</text>
</a>
</g>
</g>
<!-- Node10&#45;&gt;Node9 -->
<g id="edge9_Node000009_Node000010" class="edge">
<title>Node10&#45;&gt;Node9</title>
<g id="a_edge9_Node000009_Node000010"><a xlink:title=" ">
<path fill="none" stroke="#9a32cd" stroke-dasharray="5,2" d="M162.52,-172.01C201.61,-172.01 246.79,-172.01 281.38,-172.01"/>
<polygon fill="#9a32cd" stroke="#9a32cd" points="162.2,-168.51 152.2,-172.01 162.2,-175.51 162.2,-168.51"/>
</a>
</g>
<text text-anchor="middle" x="207.5" y="-175.01" font-family="Helvetica,sans-Serif" font-size="10.00" fill="grey"> head_or_count</text>
</g>
<!-- Node11 -->
<g id="Node000011" class="node">
<title>Node11</title>
<g id="a_Node000011"><a xlink:href="classRealm_1_1atomic.html" target="_top" xlink:title=" ">
<polygon fill="white" stroke="#666666" points="727,-95.51 572,-95.51 572,-76.51 727,-76.51 727,-95.51"/>
<text text-anchor="middle" x="649.5" y="-83.51" font-family="Helvetica,sans-Serif" font-size="10.00">Realm::atomic&lt; unsigned &gt;</text>
</a>
</g>
</g>
<!-- Node11&#45;&gt;Node4 -->
<g id="edge10_Node000004_Node000011" class="edge">
<title>Node11&#45;&gt;Node4</title>
<g id="a_edge10_Node000004_Node000011"><a xlink:title=" ">
<path fill="none" stroke="#9a32cd" stroke-dasharray="5,2" d="M737.23,-82.63C781.34,-83.69 834.99,-89.36 880,-107.01 921.71,-123.37 960.76,-161.31 977.68,-179.26"/>
<polygon fill="#9a32cd" stroke="#9a32cd" points="737.16,-79.13 727.11,-82.46 737.05,-86.13 737.16,-79.13"/>
</a>
</g>
<text text-anchor="middle" x="818.5" y="-110.01" font-family="Helvetica,sans-Serif" font-size="10.00" fill="grey"> num_work_items</text>
</g>
<!-- Node12 -->
<g id="Node000012" class="node">
<title>Node12</title>
<g id="a_Node000012"><a xlink:href="classRealm_1_1atomic.html" target="_top" xlink:title=" ">
<polygon fill="white" stroke="#666666" points="724.5,-21.51 574.5,-21.51 574.5,-2.51 724.5,-2.51 724.5,-21.51"/>
<text text-anchor="middle" x="649.5" y="-9.51" font-family="Helvetica,sans-Serif" font-size="10.00">Realm::atomic&lt; BitMask &gt;</text>
</a>
</g>
</g>
<!-- Node12&#45;&gt;Node4 -->
<g id="edge11_Node000004_Node000012" class="edge">
<title>Node12&#45;&gt;Node4</title>
<g id="a_edge11_Node000004_Node000012"><a xlink:title=" ">
<path fill="none" stroke="#9a32cd" stroke-dasharray="5,2" d="M718.89,-1.58C767.13,2.32 831.52,0.26 880,-28.01 941.08,-63.63 973.82,-149.91 983.45,-179.14"/>
<polygon fill="#9a32cd" stroke="#9a32cd" points="718.49,1.9 708.85,-2.49 719.13,-5.07 718.49,1.9"/>
</a>
</g>
<text text-anchor="middle" x="818.5" y="-31.01" font-family="Helvetica,sans-Serif" font-size="10.00" fill="grey"> active_work_item_mask</text>
</g>
<!-- Node13 -->
<g id="Node000013" class="node">
<title>Node13</title>
<g id="a_Node000013"><a xlink:href="classRealm_1_1atomic.html" target="_top" xlink:title=" ">
<polygon fill="white" stroke="#666666" points="399.5,-413.51 276.5,-413.51 276.5,-394.51 399.5,-394.51 399.5,-413.51"/>
<text text-anchor="middle" x="338" y="-401.51" font-family="Helvetica,sans-Serif" font-size="10.00">Realm::atomic&lt; int &gt;</text>
</a>
</g>
</g>
<!-- Node13&#45;&gt;Node1 -->
<g id="edge22_Node000001_Node000013" class="edge">
<title>Node13&#45;&gt;Node1</title>
<g id="a_edge22_Node000001_Node000013"><a xlink:title=" ">
<path fill="none" stroke="#9a32cd" stroke-dasharray="5,2" d="M409.95,-413.76C449.2,-419.86 498.67,-428.72 542,-440.01 570.79,-447.51 602.94,-459.15 624.31,-467.37"/>
<polygon fill="#9a32cd" stroke="#9a32cd" points="410.36,-410.28 399.95,-412.23 409.3,-417.2 410.36,-410.28"/>
</a>
</g>
<text text-anchor="middle" x="486.5" y="-465.01" font-family="Helvetica,sans-Serif" font-size="10.00" fill="grey"> pktbuf_ready_packets</text>
<text text-anchor="middle" x="486.5" y="-454.01" font-family="Helvetica,sans-Serif" font-size="10.00" fill="grey">pktbuf_total_packets</text>
<text text-anchor="middle" x="486.5" y="-443.01" font-family="Helvetica,sans-Serif" font-size="10.00" fill="grey">remain_count</text>
</g>
<!-- Node13&#45;&gt;Node4 -->
<g id="edge12_Node000004_Node000013" class="edge">
<title>Node13&#45;&gt;Node4</title>
<g id="a_edge12_Node000004_Node000013"><a xlink:title=" ">
<path fill="none" stroke="#9a32cd" stroke-dasharray="5,2" d="M409.86,-404.35C538.11,-403.76 802.59,-396.72 880,-350.01 940.54,-313.47 973.63,-227.79 983.4,-198.8"/>
<polygon fill="#9a32cd" stroke="#9a32cd" points="409.74,-400.85 399.75,-404.38 409.76,-407.85 409.74,-400.85"/>
</a>
</g>
<text text-anchor="middle" x="649.5" y="-404.01" font-family="Helvetica,sans-Serif" font-size="10.00" fill="grey"> work_item_usecounts</text>
</g>
<!-- Node14 -->
<g id="Node000014" class="node">
<title>Node14</title>
<g id="a_Node000014"><a xlink:href="classRealm_1_1DelegatingMutex.html" target="_top" xlink:title=" ">
<polygon fill="white" stroke="#666666" points="718.5,-58.51 580.5,-58.51 580.5,-39.51 718.5,-39.51 718.5,-58.51"/>
<text text-anchor="middle" x="649.5" y="-46.51" font-family="Helvetica,sans-Serif" font-size="10.00">Realm::DelegatingMutex</text>
</a>
</g>
</g>
<!-- Node14&#45;&gt;Node4 -->
<g id="edge15_Node000004_Node000014" class="edge">
<title>Node14&#45;&gt;Node4</title>
<g id="a_edge15_Node000004_Node000014"><a xlink:title=" ">
<path fill="none" stroke="#9a32cd" stroke-dasharray="5,2" d="M728.88,-41.8C775.16,-40.86 833.58,-45.66 880,-69.01 930.77,-94.54 968.25,-155.58 981.39,-179.33"/>
<polygon fill="#9a32cd" stroke="#9a32cd" points="728.49,-38.31 718.6,-42.1 728.7,-45.3 728.49,-38.31"/>
</a>
</g>
<text text-anchor="middle" x="818.5" y="-72.01" font-family="Helvetica,sans-Serif" font-size="10.00" fill="grey"> db_mutex</text>
</g>
<!-- Node15 -->
<g id="Node000015" class="node">
<title>Node15</title>
<g id="a_Node000015"><a xlink:href="classRealm_1_1atomic.html" target="_top" xlink:title=" ">
<polygon fill="white" stroke="#666666" points="413,-58.51 263,-58.51 263,-39.51 413,-39.51 413,-58.51"/>
<text text-anchor="middle" x="338" y="-46.51" font-family="Helvetica,sans-Serif" font-size="10.00">Realm::atomic&lt; uint64_t &gt;</text>
</a>
</g>
</g>
<!-- Node15&#45;&gt;Node14 -->
<g id="edge16_Node000014_Node000015" class="edge">
<title>Node15&#45;&gt;Node14</title>
<g id="a_edge16_Node000014_Node000015"><a xlink:title=" ">
<path fill="none" stroke="#9a32cd" stroke-dasharray="5,2" d="M423.14,-49.01C472.47,-49.01 533.97,-49.01 580.26,-49.01"/>
<polygon fill="#9a32cd" stroke="#9a32cd" points="423.13,-45.51 413.13,-49.01 423.13,-52.51 423.13,-45.51"/>
</a>
</g>
<text text-anchor="middle" x="486.5" y="-52.01" font-family="Helvetica,sans-Serif" font-size="10.00" fill="grey"> state</text>
</g>
<!-- Node16 -->
<g id="Node000016" class="node">
<title>Node16</title>
<g id="a_Node000016"><a xlink:href="classRealm_1_1atomic.html" target="_top" xlink:title=" ">
<polygon fill="white" stroke="#666666" points="403.5,-492.01 272.5,-492.01 272.5,-462.01 403.5,-462.01 403.5,-492.01"/>
<text text-anchor="start" x="280.5" y="-480.01" font-family="Helvetica,sans-Serif" font-size="10.00">Realm::atomic&lt; Realm</text>
<text text-anchor="middle" x="338" y="-469.01" font-family="Helvetica,sans-Serif" font-size="10.00">::OutbufMetadata * &gt;</text>
</a>
</g>
</g>
<!-- Node16&#45;&gt;Node1 -->
<g id="edge21_Node000001_Node000016" class="edge">
<title>Node16&#45;&gt;Node1</title>
<g id="a_edge21_Node000001_Node000016"><a xlink:title=" ">
<path fill="none" stroke="#9a32cd" stroke-dasharray="5,2" d="M413.58,-477.01C465.07,-477.01 532.94,-477.01 582.48,-477.01"/>
<polygon fill="#9a32cd" stroke="#9a32cd" points="413.5,-473.51 403.5,-477.01 413.5,-480.51 413.5,-473.51"/>
</a>
</g>
<text text-anchor="middle" x="486.5" y="-480.01" font-family="Helvetica,sans-Serif" font-size="10.00" fill="grey"> realbuf</text>
</g>
<!-- Node17 -->
<g id="Node000017" class="node">
<title>Node17</title>
<g id="a_Node000017"><a xlink:href="classRealm_1_1atomic.html" target="_top" xlink:title=" ">
<polygon fill="white" stroke="#666666" points="412.5,-529.51 263.5,-529.51 263.5,-510.51 412.5,-510.51 412.5,-529.51"/>
<text text-anchor="middle" x="338" y="-517.51" font-family="Helvetica,sans-Serif" font-size="10.00">Realm::atomic&lt; PktType &gt;</text>
</a>
</g>
</g>
<!-- Node17&#45;&gt;Node1 -->
<g id="edge23_Node000001_Node000017" class="edge">
<title>Node17&#45;&gt;Node1</title>
<g id="a_edge23_Node000001_Node000017"><a xlink:title=" ">
<path fill="none" stroke="#9a32cd" stroke-dasharray="5,2" d="M418.86,-509.05C456.26,-503.9 501.42,-497.67 542,-492.01 555.04,-490.19 568.97,-488.24 582.32,-486.36"/>
<polygon fill="#9a32cd" stroke="#9a32cd" points="417.96,-505.64 408.53,-510.47 418.92,-512.57 417.96,-505.64"/>
</a>
</g>
<text text-anchor="middle" x="486.5" y="-511.01" font-family="Helvetica,sans-Serif" font-size="10.00" fill="grey"> pktbuf_pkt_types</text>
</g>
</g>
</svg>
