<?xml version="1.0" encoding="UTF-8" standalone="no"?>
<!DOCTYPE svg PUBLIC "-//W3C//DTD SVG 1.1//EN"
 "http://www.w3.org/Graphics/SVG/1.1/DTD/svg11.dtd">
<!-- Generated by graphviz version 2.43.0 (0)
 -->
<!-- Title: Realm::CompiledInstanceLayout Pages: 1 -->
<svg width="443pt" height="302pt"
 viewBox="0.00 0.00 443.00 302.00" xmlns="http://www.w3.org/2000/svg" xmlns:xlink="http://www.w3.org/1999/xlink">
<g id="graph0" class="graph" transform="scale(1 1) rotate(0) translate(4 298)">
<title>Realm::CompiledInstanceLayout</title>
<!-- Node1 -->
<g id="Node000001" class="node">
<title>Node1</title>
<g id="a_Node000001"><a xlink:title=" ">
<polygon fill="#999999" stroke="#666666" points="225.5,-19 50.5,-19 50.5,0 225.5,0 225.5,-19"/>
<text text-anchor="middle" x="138" y="-7" font-family="Helvetica,sans-Serif" font-size="10.00">Realm::CompiledInstanceLayout</text>
</a>
</g>
</g>
<!-- Node2 -->
<g id="Node000002" class="node">
<title>Node2</title>
<g id="a_Node000002"><a xlink:href="classRealm_1_1PieceLookup_1_1CompiledProgram.html" target="_top" xlink:title=" ">
<polygon fill="white" stroke="#666666" points="125.5,-96 10.5,-96 10.5,-66 125.5,-66 125.5,-96"/>
<text text-anchor="start" x="18.5" y="-84" font-family="Helvetica,sans-Serif" font-size="10.00">Realm::PieceLookup</text>
<text text-anchor="middle" x="68" y="-73" font-family="Helvetica,sans-Serif" font-size="10.00">::CompiledProgram</text>
</a>
</g>
</g>
<!-- Node2&#45;&gt;Node1 -->
<g id="edge1_Node000001_Node000002" class="edge">
<title>Node2&#45;&gt;Node1</title>
<g id="a_edge1_Node000001_Node000002"><a xlink:title=" ">
<path fill="none" stroke="#63b8ff" d="M89.58,-58.57C102.91,-45.34 119.28,-29.08 129.17,-19.27"/>
<polygon fill="#63b8ff" stroke="#63b8ff" points="86.8,-56.41 82.17,-65.94 91.73,-61.37 86.8,-56.41"/>
</a>
</g>
</g>
<!-- Node3 -->
<g id="Node000003" class="node">
<title>Node3</title>
<g id="a_Node000003"><a xlink:href="classRealm_1_1atomic.html" target="_top" xlink:title=" ">
<polygon fill="white" stroke="#666666" points="133.5,-162 2.5,-162 2.5,-143 133.5,-143 133.5,-162"/>
<text text-anchor="middle" x="68" y="-150" font-family="Helvetica,sans-Serif" font-size="10.00">Realm::atomic&lt; bool &gt;</text>
</a>
</g>
</g>
<!-- Node3&#45;&gt;Node2 -->
<g id="edge2_Node000002_Node000003" class="edge">
<title>Node3&#45;&gt;Node2</title>
<g id="a_edge2_Node000002_Node000003"><a xlink:title=" ">
<path fill="none" stroke="#9a32cd" stroke-dasharray="5,2" d="M68,-132.71C68,-121.19 68,-106.68 68,-96.14"/>
<polygon fill="#9a32cd" stroke="#9a32cd" points="64.5,-132.98 68,-142.98 71.5,-132.98 64.5,-132.98"/>
</a>
</g>
<text text-anchor="middle" x="99" y="-117" font-family="Helvetica,sans-Serif" font-size="10.00" fill="grey"> is_compiled</text>
</g>
<!-- Node4 -->
<g id="Node000004" class="node">
<title>Node4</title>
<g id="a_Node000004"><a xlink:href="classRealm_1_1ReplicatedHeap.html" target="_top" xlink:title=" ">
<polygon fill="white" stroke="#666666" points="274.5,-90.5 143.5,-90.5 143.5,-71.5 274.5,-71.5 274.5,-90.5"/>
<text text-anchor="middle" x="209" y="-78.5" font-family="Helvetica,sans-Serif" font-size="10.00">Realm::ReplicatedHeap</text>
</a>
</g>
</g>
<!-- Node4&#45;&gt;Node1 -->
<g id="edge3_Node000001_Node000004" class="edge">
<title>Node4&#45;&gt;Node1</title>
<g id="a_edge3_Node000001_Node000004"><a xlink:title=" ">
<path fill="none" stroke="#9a32cd" stroke-dasharray="5,2" d="M193.08,-64.42C178.78,-50.42 158.31,-30.38 146.78,-19.09"/>
<polygon fill="#9a32cd" stroke="#9a32cd" points="190.7,-66.98 200.29,-71.48 195.6,-61.98 190.7,-66.98"/>
</a>
</g>
<text text-anchor="middle" x="201" y="-40" font-family="Helvetica,sans-Serif" font-size="10.00" fill="grey"> repl_heap</text>
</g>
<!-- Node5 -->
<g id="Node000005" class="node">
<title>Node5</title>
<g id="a_Node000005"><a xlink:href="classRealm_1_1UnfairMutex.html" target="_top" xlink:title=" ">
<polygon fill="white" stroke="#666666" points="266.5,-162 151.5,-162 151.5,-143 266.5,-143 266.5,-162"/>
<text text-anchor="middle" x="209" y="-150" font-family="Helvetica,sans-Serif" font-size="10.00">Realm::UnfairMutex</text>
</a>
</g>
</g>
<!-- Node5&#45;&gt;Node4 -->
<g id="edge4_Node000004_Node000005" class="edge">
<title>Node5&#45;&gt;Node4</title>
<g id="a_edge4_Node000004_Node000005"><a xlink:title=" ">
<path fill="none" stroke="#9a32cd" stroke-dasharray="5,2" d="M209,-132.71C209,-119 209,-101.05 209,-90.59"/>
<polygon fill="#9a32cd" stroke="#9a32cd" points="205.5,-132.98 209,-142.98 212.5,-132.98 205.5,-132.98"/>
</a>
</g>
<text text-anchor="middle" x="226.5" y="-117" font-family="Helvetica,sans-Serif" font-size="10.00" fill="grey"> mutex</text>
</g>
<!-- Node6 -->
<g id="Node000006" class="node">
<title>Node6</title>
<g id="a_Node000006"><a xlink:href="classRealm_1_1noncopyable.html" target="_top" xlink:title=" ">
<polygon fill="white" stroke="#666666" points="116,-228 0,-228 0,-209 116,-209 116,-228"/>
<text text-anchor="middle" x="58" y="-216" font-family="Helvetica,sans-Serif" font-size="10.00">Realm::noncopyable</text>
</a>
</g>
</g>
<!-- Node6&#45;&gt;Node5 -->
<g id="edge5_Node000005_Node000006" class="edge">
<title>Node6&#45;&gt;Node5</title>
<g id="a_edge5_Node000005_Node000006"><a xlink:title=" ">
<path fill="none" stroke="#63b8ff" d="M87.83,-204.86C117.58,-192.25 162.51,-173.21 188.48,-162.2"/>
<polygon fill="#63b8ff" stroke="#63b8ff" points="86.21,-201.74 78.36,-208.87 88.94,-208.19 86.21,-201.74"/>
</a>
</g>
</g>
<!-- Node7 -->
<g id="Node000007" class="node">
<title>Node7</title>
<g id="a_Node000007"><a xlink:href="classRealm_1_1atomic.html" target="_top" xlink:title=" ">
<polygon fill="white" stroke="#666666" points="284,-228 134,-228 134,-209 284,-209 284,-228"/>
<text text-anchor="middle" x="209" y="-216" font-family="Helvetica,sans-Serif" font-size="10.00">Realm::atomic&lt; uint32_t &gt;</text>
</a>
</g>
</g>
<!-- Node7&#45;&gt;Node5 -->
<g id="edge6_Node000005_Node000007" class="edge">
<title>Node7&#45;&gt;Node5</title>
<g id="a_edge6_Node000005_Node000007"><a xlink:title=" ">
<path fill="none" stroke="#9a32cd" stroke-dasharray="5,2" d="M209,-198.58C209,-186.63 209,-171.72 209,-162.41"/>
<polygon fill="#9a32cd" stroke="#9a32cd" points="205.5,-198.87 209,-208.87 212.5,-198.87 205.5,-198.87"/>
</a>
</g>
<text text-anchor="middle" x="223" y="-183" font-family="Helvetica,sans-Serif" font-size="10.00" fill="grey"> state</text>
</g>
<!-- Node8 -->
<g id="Node000008" class="node">
<title>Node8</title>
<g id="a_Node000008"><a xlink:href="classRealm_1_1DoorbellList.html" target="_top" xlink:title=" ">
<polygon fill="white" stroke="#666666" points="415.5,-228 302.5,-228 302.5,-209 415.5,-209 415.5,-228"/>
<text text-anchor="middle" x="359" y="-216" font-family="Helvetica,sans-Serif" font-size="10.00">Realm::DoorbellList</text>
</a>
</g>
</g>
<!-- Node8&#45;&gt;Node5 -->
<g id="edge7_Node000005_Node000008" class="edge">
<title>Node8&#45;&gt;Node5</title>
<g id="a_edge7_Node000005_Node000008"><a xlink:title=" ">
<path fill="none" stroke="#9a32cd" stroke-dasharray="5,2" d="M329.37,-204.86C299.81,-192.25 255.19,-173.21 229.39,-162.2"/>
<polygon fill="#9a32cd" stroke="#9a32cd" points="328.2,-208.16 338.77,-208.87 330.95,-201.73 328.2,-208.16"/>
</a>
</g>
<text text-anchor="middle" x="310" y="-183" font-family="Helvetica,sans-Serif" font-size="10.00" fill="grey"> db_list</text>
</g>
<!-- Node9 -->
<g id="Node000009" class="node">
<title>Node9</title>
<g id="a_Node000009"><a xlink:href="classRealm_1_1atomic.html" target="_top" xlink:title=" ">
<polygon fill="white" stroke="#666666" points="435,-294 283,-294 283,-275 435,-275 435,-294"/>
<text text-anchor="middle" x="359" y="-282" font-family="Helvetica,sans-Serif" font-size="10.00">Realm::atomic&lt; uintptr_t &gt;</text>
</a>
</g>
</g>
<!-- Node9&#45;&gt;Node8 -->
<g id="edge8_Node000008_Node000009" class="edge">
<title>Node9&#45;&gt;Node8</title>
<g id="a_edge8_Node000008_Node000009"><a xlink:title=" ">
<path fill="none" stroke="#9a32cd" stroke-dasharray="5,2" d="M359,-264.58C359,-252.63 359,-237.72 359,-228.41"/>
<polygon fill="#9a32cd" stroke="#9a32cd" points="355.5,-264.87 359,-274.87 362.5,-264.87 355.5,-264.87"/>
</a>
</g>
<text text-anchor="middle" x="396.5" y="-249" font-family="Helvetica,sans-Serif" font-size="10.00" fill="grey"> head_or_count</text>
</g>
</g>
</svg>
