<?xml version="1.0" encoding="UTF-8" standalone="no"?>
<!DOCTYPE svg PUBLIC "-//W3C//DTD SVG 1.1//EN"
 "http://www.w3.org/Graphics/SVG/1.1/DTD/svg11.dtd">
<!-- Generated by graphviz version 2.43.0 (0)
 -->
<!-- Title: Realm::Operation::AsyncWorkItem Pages: 1 -->
<svg width="402pt" height="261pt"
 viewBox="0.00 0.00 402.00 260.50" xmlns="http://www.w3.org/2000/svg" xmlns:xlink="http://www.w3.org/1999/xlink">
<g id="graph0" class="graph" transform="scale(1 1) rotate(0) translate(4 256.5)">
<title>Realm::Operation::AsyncWorkItem</title>
<!-- Node1 -->
<g id="Node000001" class="node">
<title>Node1</title>
<g id="a_Node000001"><a xlink:title=" ">
<polygon fill="#999999" stroke="#666666" points="185,-141.5 0,-141.5 0,-122.5 185,-122.5 185,-141.5"/>
<text text-anchor="middle" x="92.5" y="-129.5" font-family="Helvetica,sans-Serif" font-size="10.00">Realm::Operation::AsyncWorkItem</text>
</a>
</g>
</g>
<!-- Node2 -->
<g id="Node000002" class="node">
<title>Node2</title>
<g id="a_Node000002"><a xlink:href="classRealm_1_1AsyncMicroOp.html" target="_top" xlink:title=" ">
<polygon fill="white" stroke="#666666" points="369.5,-252.5 245.5,-252.5 245.5,-233.5 369.5,-233.5 369.5,-252.5"/>
<text text-anchor="middle" x="307.5" y="-240.5" font-family="Helvetica,sans-Serif" font-size="10.00">Realm::AsyncMicroOp</text>
</a>
</g>
</g>
<!-- Node1&#45;&gt;Node2 -->
<g id="edge1_Node000001_Node000002" class="edge">
<title>Node1&#45;&gt;Node2</title>
<g id="a_edge1_Node000001_Node000002"><a xlink:title=" ">
<path fill="none" stroke="#63b8ff" d="M111.09,-148.66C134.36,-169.75 177.53,-205.65 221,-225 228.62,-228.39 236.92,-231.16 245.24,-233.41"/>
<polygon fill="#63b8ff" stroke="#63b8ff" points="113.18,-145.83 103.45,-141.62 108.43,-150.98 113.18,-145.83"/>
</a>
</g>
</g>
<!-- Node3 -->
<g id="Node000003" class="node">
<title>Node3</title>
<g id="a_Node000003"><a xlink:href="classRealm_1_1Cuda_1_1GPUWorkFence.html" target="_top" xlink:title=" ">
<polygon fill="white" stroke="#666666" points="387,-215.5 228,-215.5 228,-196.5 387,-196.5 387,-215.5"/>
<text text-anchor="middle" x="307.5" y="-203.5" font-family="Helvetica,sans-Serif" font-size="10.00">Realm::Cuda::GPUWorkFence</text>
</a>
</g>
</g>
<!-- Node1&#45;&gt;Node3 -->
<g id="edge2_Node000001_Node000003" class="edge">
<title>Node1&#45;&gt;Node3</title>
<g id="a_edge2_Node000001_Node000003"><a xlink:title=" ">
<path fill="none" stroke="#63b8ff" d="M121.07,-146.1C146.47,-158.6 185.48,-176.6 221,-188 231.11,-191.25 242.08,-194.06 252.69,-196.44"/>
<polygon fill="#63b8ff" stroke="#63b8ff" points="122.55,-142.92 112.04,-141.6 119.43,-149.19 122.55,-142.92"/>
</a>
</g>
</g>
<!-- Node4 -->
<g id="Node000004" class="node">
<title>Node4</title>
<g id="a_Node000004"><a xlink:href="classRealm_1_1Cuda_1_1GPUWorkStart.html" target="_top" xlink:title=" ">
<polygon fill="white" stroke="#666666" points="384.5,-178.5 230.5,-178.5 230.5,-159.5 384.5,-159.5 384.5,-178.5"/>
<text text-anchor="middle" x="307.5" y="-166.5" font-family="Helvetica,sans-Serif" font-size="10.00">Realm::Cuda::GPUWorkStart</text>
</a>
</g>
</g>
<!-- Node1&#45;&gt;Node4 -->
<g id="edge3_Node000001_Node000004" class="edge">
<title>Node1&#45;&gt;Node4</title>
<g id="a_edge3_Node000001_Node000004"><a xlink:title=" ">
<path fill="none" stroke="#63b8ff" d="M158.24,-143.25C188.02,-148.42 222.97,-154.49 251.46,-159.44"/>
<polygon fill="#63b8ff" stroke="#63b8ff" points="158.8,-139.79 148.35,-141.53 157.61,-146.69 158.8,-139.79"/>
</a>
</g>
</g>
<!-- Node5 -->
<g id="Node000005" class="node">
<title>Node5</title>
<g id="a_Node000005"><a xlink:href="classRealm_1_1Hip_1_1GPUWorkFence.html" target="_top" xlink:title=" ">
<polygon fill="white" stroke="#666666" points="383,-141.5 232,-141.5 232,-122.5 383,-122.5 383,-141.5"/>
<text text-anchor="middle" x="307.5" y="-129.5" font-family="Helvetica,sans-Serif" font-size="10.00">Realm::Hip::GPUWorkFence</text>
</a>
</g>
</g>
<!-- Node1&#45;&gt;Node5 -->
<g id="edge4_Node000001_Node000005" class="edge">
<title>Node1&#45;&gt;Node5</title>
<g id="a_edge4_Node000001_Node000005"><a xlink:title=" ">
<path fill="none" stroke="#63b8ff" d="M195.33,-132C207.58,-132 219.92,-132 231.68,-132"/>
<polygon fill="#63b8ff" stroke="#63b8ff" points="195.07,-128.5 185.07,-132 195.07,-135.5 195.07,-128.5"/>
</a>
</g>
</g>
<!-- Node6 -->
<g id="Node000006" class="node">
<title>Node6</title>
<g id="a_Node000006"><a xlink:href="classRealm_1_1Hip_1_1GPUWorkStart.html" target="_top" xlink:title=" ">
<polygon fill="white" stroke="#666666" points="380.5,-104.5 234.5,-104.5 234.5,-85.5 380.5,-85.5 380.5,-104.5"/>
<text text-anchor="middle" x="307.5" y="-92.5" font-family="Helvetica,sans-Serif" font-size="10.00">Realm::Hip::GPUWorkStart</text>
</a>
</g>
</g>
<!-- Node1&#45;&gt;Node6 -->
<g id="edge5_Node000001_Node000006" class="edge">
<title>Node1&#45;&gt;Node6</title>
<g id="a_edge5_Node000001_Node000006"><a xlink:title=" ">
<path fill="none" stroke="#63b8ff" d="M158.24,-120.75C188.02,-115.58 222.97,-109.51 251.46,-104.56"/>
<polygon fill="#63b8ff" stroke="#63b8ff" points="157.61,-117.31 148.35,-122.47 158.8,-124.21 157.61,-117.31"/>
</a>
</g>
</g>
<!-- Node7 -->
<g id="Node000007" class="node">
<title>Node7</title>
<g id="a_Node000007"><a xlink:href="classRealm_1_1RemoteTaskRegistration.html" target="_top" xlink:title=" ">
<polygon fill="white" stroke="#666666" points="394,-67.5 221,-67.5 221,-48.5 394,-48.5 394,-67.5"/>
<text text-anchor="middle" x="307.5" y="-55.5" font-family="Helvetica,sans-Serif" font-size="10.00">Realm::RemoteTaskRegistration</text>
</a>
</g>
</g>
<!-- Node1&#45;&gt;Node7 -->
<g id="edge6_Node000001_Node000007" class="edge">
<title>Node1&#45;&gt;Node7</title>
<g id="a_edge6_Node000001_Node000007"><a xlink:title=" ">
<path fill="none" stroke="#63b8ff" d="M121.57,-118.07C147.02,-105.88 185.82,-88.39 221,-77 232.14,-73.4 244.31,-70.24 255.89,-67.59"/>
<polygon fill="#63b8ff" stroke="#63b8ff" points="119.98,-114.95 112.5,-122.45 123.03,-121.25 119.98,-114.95"/>
</a>
</g>
</g>
<!-- Node8 -->
<g id="Node000008" class="node">
<title>Node8</title>
<g id="a_Node000008"><a xlink:href="classRealm_1_1TransferOperation_1_1XDLifetimeTracker.html" target="_top" xlink:title=" ">
<polygon fill="white" stroke="#666666" points="378,-30 237,-30 237,0 378,0 378,-30"/>
<text text-anchor="start" x="245" y="-18" font-family="Helvetica,sans-Serif" font-size="10.00">Realm::TransferOperation</text>
<text text-anchor="middle" x="307.5" y="-7" font-family="Helvetica,sans-Serif" font-size="10.00">::XDLifetimeTracker</text>
</a>
</g>
</g>
<!-- Node1&#45;&gt;Node8 -->
<g id="edge7_Node000001_Node000008" class="edge">
<title>Node1&#45;&gt;Node8</title>
<g id="a_edge7_Node000001_Node000008"><a xlink:title=" ">
<path fill="none" stroke="#63b8ff" d="M112.1,-115.41C135.82,-95.02 178.85,-60.61 221,-40 228.64,-36.26 236.95,-32.98 245.28,-30.12"/>
<polygon fill="#63b8ff" stroke="#63b8ff" points="109.5,-113.02 104.27,-122.23 114.1,-118.3 109.5,-113.02"/>
</a>
</g>
</g>
</g>
</svg>
