<?xml version="1.0" encoding="UTF-8" standalone="no"?>
<!DOCTYPE svg PUBLIC "-//W3C//DTD SVG 1.1//EN"
 "http://www.w3.org/Graphics/SVG/1.1/DTD/svg11.dtd">
<!-- Generated by graphviz version 2.43.0 (0)
 -->
<!-- Title: Realm::KernelCondVar Pages: 1 -->
<svg width="199pt" height="149pt"
 viewBox="0.00 0.00 198.50 149.00" xmlns="http://www.w3.org/2000/svg" xmlns:xlink="http://www.w3.org/1999/xlink">
<g id="graph0" class="graph" transform="scale(1 1) rotate(0) translate(4 145)">
<title>Realm::KernelCondVar</title>
<!-- Node1 -->
<g id="Node000001" class="node">
<title>Node1</title>
<g id="a_Node000001"><a xlink:title=" ">
<polygon fill="#999999" stroke="#666666" points="125,-19 0,-19 0,0 125,0 125,-19"/>
<text text-anchor="middle" x="62.5" y="-7" font-family="Helvetica,sans-Serif" font-size="10.00">Realm::KernelCondVar</text>
</a>
</g>
</g>
<!-- Node2 -->
<g id="Node000002" class="node">
<title>Node2</title>
<g id="a_Node000002"><a xlink:href="classRealm_1_1noncopyable.html" target="_top" xlink:title=" ">
<polygon fill="white" stroke="#666666" points="116.5,-141 0.5,-141 0.5,-122 116.5,-122 116.5,-141"/>
<text text-anchor="middle" x="58.5" y="-129" font-family="Helvetica,sans-Serif" font-size="10.00">Realm::noncopyable</text>
</a>
</g>
</g>
<!-- Node2&#45;&gt;Node1 -->
<g id="edge1_Node000001_Node000002" class="edge">
<title>Node2&#45;&gt;Node1</title>
<g id="a_edge1_Node000001_Node000002"><a xlink:title=" ">
<path fill="none" stroke="#63b8ff" d="M59.13,-111.65C60.01,-85.22 61.57,-38.26 62.21,-19.05"/>
<polygon fill="#63b8ff" stroke="#63b8ff" points="55.62,-111.76 58.79,-121.87 62.62,-111.99 55.62,-111.76"/>
</a>
</g>
</g>
<!-- Node3 -->
<g id="Node000003" class="node">
<title>Node3</title>
<g id="a_Node000003"><a xlink:href="classRealm_1_1KernelMutex.html" target="_top" xlink:title=" ">
<polygon fill="white" stroke="#666666" points="190.5,-85 74.5,-85 74.5,-66 190.5,-66 190.5,-85"/>
<text text-anchor="middle" x="132.5" y="-73" font-family="Helvetica,sans-Serif" font-size="10.00">Realm::KernelMutex</text>
</a>
</g>
</g>
<!-- Node2&#45;&gt;Node3 -->
<g id="edge3_Node000003_Node000002" class="edge">
<title>Node2&#45;&gt;Node3</title>
<g id="a_edge3_Node000003_Node000002"><a xlink:title=" ">
<path fill="none" stroke="#63b8ff" d="M78.53,-115.88C91.91,-106.12 109.06,-93.61 120.39,-85.33"/>
<polygon fill="#63b8ff" stroke="#63b8ff" points="76.4,-113.1 70.39,-121.82 80.53,-118.76 76.4,-113.1"/>
</a>
</g>
</g>
<!-- Node3&#45;&gt;Node1 -->
<g id="edge2_Node000001_Node000003" class="edge">
<title>Node3&#45;&gt;Node1</title>
<g id="a_edge2_Node000001_Node000003"><a xlink:title=" ">
<path fill="none" stroke="#9a32cd" stroke-dasharray="5,2" d="M115.36,-58.83C101.81,-46.44 83.37,-29.59 72.24,-19.41"/>
<polygon fill="#9a32cd" stroke="#9a32cd" points="113.32,-61.7 123.06,-65.87 118.04,-56.54 113.32,-61.7"/>
</a>
</g>
<text text-anchor="middle" x="119" y="-40" font-family="Helvetica,sans-Serif" font-size="10.00" fill="grey"> mutex</text>
</g>
</g>
</svg>
