<?xml version="1.0" encoding="UTF-8" standalone="no"?>
<!DOCTYPE svg PUBLIC "-//W3C//DTD SVG 1.1//EN"
 "http://www.w3.org/Graphics/SVG/1.1/DTD/svg11.dtd">
<!-- Generated by graphviz version 2.43.0 (0)
 -->
<!-- Title: Realm::ModuleSpecificInfo Pages: 1 -->
<svg width="415pt" height="82pt"
 viewBox="0.00 0.00 414.50 82.00" xmlns="http://www.w3.org/2000/svg" xmlns:xlink="http://www.w3.org/1999/xlink">
<g id="graph0" class="graph" transform="scale(1 1) rotate(0) translate(4 78)">
<title>Realm::ModuleSpecificInfo</title>
<!-- Node1 -->
<g id="Node000001" class="node">
<title>Node1</title>
<g id="a_Node000001"><a xlink:title=" ">
<polygon fill="#999999" stroke="#666666" points="280.5,-74 134.5,-74 134.5,-55 280.5,-55 280.5,-74"/>
<text text-anchor="middle" x="207.5" y="-62" font-family="Helvetica,sans-Serif" font-size="10.00">Realm::ModuleSpecificInfo</text>
</a>
</g>
</g>
<!-- Node2 -->
<g id="Node000002" class="node">
<title>Node2</title>
<g id="a_Node000002"><a xlink:href="classRealm_1_1Cuda_1_1CudaDeviceMemoryInfo.html" target="_top" xlink:title=" ">
<polygon fill="white" stroke="#666666" points="203,-19 0,-19 0,0 203,0 203,-19"/>
<text text-anchor="middle" x="101.5" y="-7" font-family="Helvetica,sans-Serif" font-size="10.00">Realm::Cuda::CudaDeviceMemoryInfo</text>
</a>
</g>
</g>
<!-- Node1&#45;&gt;Node2 -->
<g id="edge1_Node000001_Node000002" class="edge">
<title>Node1&#45;&gt;Node2</title>
<g id="a_edge1_Node000001_Node000002"><a xlink:title=" ">
<path fill="none" stroke="#63b8ff" d="M181.5,-50.5C162,-40.75 135.85,-27.68 118.84,-19.17"/>
<polygon fill="#63b8ff" stroke="#63b8ff" points="179.96,-53.64 190.47,-54.98 183.09,-47.38 179.96,-53.64"/>
</a>
</g>
</g>
<!-- Node3 -->
<g id="Node000003" class="node">
<title>Node3</title>
<g id="a_Node000003"><a xlink:href="classRealm_1_1Hip_1_1HipDeviceMemoryInfo.html" target="_top" xlink:title=" ">
<polygon fill="white" stroke="#666666" points="406.5,-19 220.5,-19 220.5,0 406.5,0 406.5,-19"/>
<text text-anchor="middle" x="313.5" y="-7" font-family="Helvetica,sans-Serif" font-size="10.00">Realm::Hip::HipDeviceMemoryInfo</text>
</a>
</g>
</g>
<!-- Node1&#45;&gt;Node3 -->
<g id="edge2_Node000001_Node000003" class="edge">
<title>Node1&#45;&gt;Node3</title>
<g id="a_edge2_Node000001_Node000003"><a xlink:title=" ">
<path fill="none" stroke="#63b8ff" d="M233.5,-50.5C253,-40.75 279.15,-27.68 296.16,-19.17"/>
<polygon fill="#63b8ff" stroke="#63b8ff" points="231.91,-47.38 224.53,-54.98 235.04,-53.64 231.91,-47.38"/>
</a>
</g>
</g>
</g>
</svg>
