<?xml version="1.0" encoding="UTF-8" standalone="no"?>
<!DOCTYPE svg PUBLIC "-//W3C//DTD SVG 1.1//EN"
 "http://www.w3.org/Graphics/SVG/1.1/DTD/svg11.dtd">
<!-- Generated by graphviz version 2.43.0 (0)
 -->
<!-- Title: Realm::LocalTaskProcessor Pages: 1 -->
<svg width="519pt" height="212pt"
 viewBox="0.00 0.00 519.00 212.00" xmlns="http://www.w3.org/2000/svg" xmlns:xlink="http://www.w3.org/1999/xlink">
<g id="graph0" class="graph" transform="scale(1 1) rotate(0) translate(4 208)">
<title>Realm::LocalTaskProcessor</title>
<!-- Node1 -->
<g id="Node000001" class="node">
<title>Node1</title>
<g id="a_Node000001"><a xlink:title=" ">
<polygon fill="#999999" stroke="#666666" points="308,-111 159,-111 159,-92 308,-92 308,-111"/>
<text text-anchor="middle" x="233.5" y="-99" font-family="Helvetica,sans-Serif" font-size="10.00">Realm::LocalTaskProcessor</text>
</a>
</g>
</g>
<!-- Node3 -->
<g id="Node000003" class="node">
<title>Node3</title>
<g id="a_Node000003"><a xlink:href="classRealm_1_1Cuda_1_1GPUProcessor.html" target="_top" xlink:title=" ">
<polygon fill="white" stroke="#666666" points="504,-204 351,-204 351,-185 504,-185 504,-204"/>
<text text-anchor="middle" x="427.5" y="-192" font-family="Helvetica,sans-Serif" font-size="10.00">Realm::Cuda::GPUProcessor</text>
</a>
</g>
</g>
<!-- Node1&#45;&gt;Node3 -->
<g id="edge2_Node000001_Node000003" class="edge">
<title>Node1&#45;&gt;Node3</title>
<g id="a_edge2_Node000001_Node000003"><a xlink:title=" ">
<path fill="none" stroke="#63b8ff" d="M253.18,-117.68C273.97,-134.84 309.23,-161.48 344,-176.5 351.81,-179.87 360.31,-182.64 368.79,-184.9"/>
<polygon fill="#63b8ff" stroke="#63b8ff" points="255.36,-114.94 245.46,-111.19 250.86,-120.3 255.36,-114.94"/>
</a>
</g>
</g>
<!-- Node4 -->
<g id="Node000004" class="node">
<title>Node4</title>
<g id="a_Node000004"><a xlink:href="classRealm_1_1Hip_1_1GPUProcessor.html" target="_top" xlink:title=" ">
<polygon fill="white" stroke="#666666" points="500,-167 355,-167 355,-148 500,-148 500,-167"/>
<text text-anchor="middle" x="427.5" y="-155" font-family="Helvetica,sans-Serif" font-size="10.00">Realm::Hip::GPUProcessor</text>
</a>
</g>
</g>
<!-- Node1&#45;&gt;Node4 -->
<g id="edge3_Node000001_Node000004" class="edge">
<title>Node1&#45;&gt;Node4</title>
<g id="a_edge3_Node000001_Node000004"><a xlink:title=" ">
<path fill="none" stroke="#63b8ff" d="M269.07,-114.68C290.45,-122.54 318.58,-132.34 344,-139.5 355.01,-142.6 366.97,-145.48 378.27,-147.99"/>
<polygon fill="#63b8ff" stroke="#63b8ff" points="270.05,-111.31 259.45,-111.12 267.61,-117.88 270.05,-111.31"/>
</a>
</g>
</g>
<!-- Node5 -->
<g id="Node000005" class="node">
<title>Node5</title>
<g id="a_Node000005"><a xlink:href="classRealm_1_1LocalCPUProcessor.html" target="_top" xlink:title=" ">
<polygon fill="white" stroke="#666666" points="501,-130 354,-130 354,-111 501,-111 501,-130"/>
<text text-anchor="middle" x="427.5" y="-118" font-family="Helvetica,sans-Serif" font-size="10.00">Realm::LocalCPUProcessor</text>
</a>
</g>
</g>
<!-- Node1&#45;&gt;Node5 -->
<g id="edge4_Node000001_Node000005" class="edge">
<title>Node1&#45;&gt;Node5</title>
<g id="a_edge4_Node000001_Node000005"><a xlink:title=" ">
<path fill="none" stroke="#63b8ff" d="M318.49,-109.81C330.31,-110.98 342.38,-112.18 353.96,-113.32"/>
<polygon fill="#63b8ff" stroke="#63b8ff" points="318.48,-106.29 308.18,-108.79 317.79,-113.26 318.48,-106.29"/>
</a>
</g>
</g>
<!-- Node6 -->
<g id="Node000006" class="node">
<title>Node6</title>
<g id="a_Node000006"><a xlink:href="classRealm_1_1LocalIOProcessor.html" target="_top" xlink:title=" ">
<polygon fill="white" stroke="#666666" points="496,-93 359,-93 359,-74 496,-74 496,-93"/>
<text text-anchor="middle" x="427.5" y="-81" font-family="Helvetica,sans-Serif" font-size="10.00">Realm::LocalIOProcessor</text>
</a>
</g>
</g>
<!-- Node1&#45;&gt;Node6 -->
<g id="edge5_Node000001_Node000006" class="edge">
<title>Node1&#45;&gt;Node6</title>
<g id="a_edge5_Node000001_Node000006"><a xlink:title=" ">
<path fill="none" stroke="#63b8ff" d="M318.46,-93.63C332.02,-92.36 345.89,-91.06 358.99,-89.83"/>
<polygon fill="#63b8ff" stroke="#63b8ff" points="317.81,-90.17 308.18,-94.59 318.47,-97.14 317.81,-90.17"/>
</a>
</g>
</g>
<!-- Node7 -->
<g id="Node000007" class="node">
<title>Node7</title>
<g id="a_Node000007"><a xlink:href="classRealm_1_1LocalOpenMPProcessor.html" target="_top" xlink:title=" ">
<polygon fill="white" stroke="#666666" points="511,-56 344,-56 344,-37 511,-37 511,-56"/>
<text text-anchor="middle" x="427.5" y="-44" font-family="Helvetica,sans-Serif" font-size="10.00">Realm::LocalOpenMPProcessor</text>
</a>
</g>
</g>
<!-- Node1&#45;&gt;Node7 -->
<g id="edge6_Node000001_Node000007" class="edge">
<title>Node1&#45;&gt;Node7</title>
<g id="a_edge6_Node000001_Node000007"><a xlink:title=" ">
<path fill="none" stroke="#63b8ff" d="M269.95,-88.41C291.23,-80.83 318.96,-71.44 344,-64.5 355.02,-61.45 366.98,-58.58 378.29,-56.08"/>
<polygon fill="#63b8ff" stroke="#63b8ff" points="268.58,-85.18 260.35,-91.86 270.95,-91.77 268.58,-85.18"/>
</a>
</g>
</g>
<!-- Node8 -->
<g id="Node000008" class="node">
<title>Node8</title>
<g id="a_Node000008"><a xlink:href="classRealm_1_1LocalUtilityProcessor.html" target="_top" xlink:title=" ">
<polygon fill="white" stroke="#666666" points="506,-19 349,-19 349,0 506,0 506,-19"/>
<text text-anchor="middle" x="427.5" y="-7" font-family="Helvetica,sans-Serif" font-size="10.00">Realm::LocalUtilityProcessor</text>
</a>
</g>
</g>
<!-- Node1&#45;&gt;Node8 -->
<g id="edge7_Node000001_Node000008" class="edge">
<title>Node1&#45;&gt;Node8</title>
<g id="a_edge7_Node000001_Node000008"><a xlink:title=" ">
<path fill="none" stroke="#63b8ff" d="M253.22,-85.55C274.05,-68.63 309.33,-42.34 344,-27.5 351.95,-24.1 360.62,-21.3 369.25,-19.02"/>
<polygon fill="#63b8ff" stroke="#63b8ff" points="250.96,-82.88 245.48,-91.95 255.42,-88.27 250.96,-82.88"/>
</a>
</g>
</g>
<!-- Node2 -->
<g id="Node000002" class="node">
<title>Node2</title>
<g id="a_Node000002"><a xlink:href="classRealm_1_1ProcessorImpl.html" target="_top" xlink:title=" ">
<polygon fill="white" stroke="#666666" points="123,-111 0,-111 0,-92 123,-92 123,-111"/>
<text text-anchor="middle" x="61.5" y="-99" font-family="Helvetica,sans-Serif" font-size="10.00">Realm::ProcessorImpl</text>
</a>
</g>
</g>
<!-- Node2&#45;&gt;Node1 -->
<g id="edge1_Node000001_Node000002" class="edge">
<title>Node2&#45;&gt;Node1</title>
<g id="a_edge1_Node000001_Node000002"><a xlink:title=" ">
<path fill="none" stroke="#63b8ff" d="M133.53,-101.5C141.93,-101.5 150.53,-101.5 158.96,-101.5"/>
<polygon fill="#63b8ff" stroke="#63b8ff" points="133.39,-98 123.39,-101.5 133.39,-105 133.39,-98"/>
</a>
</g>
</g>
</g>
</svg>
