<?xml version="1.0" encoding="UTF-8" standalone="no"?>
<!DOCTYPE svg PUBLIC "-//W3C//DTD SVG 1.1//EN"
 "http://www.w3.org/Graphics/SVG/1.1/DTD/svg11.dtd">
<!-- Generated by graphviz version 2.43.0 (0)
 -->
<!-- Title: Realm::BarrierImpl Pages: 1 -->
<svg width="1235pt" height="321pt"
 viewBox="0.00 0.00 1235.00 321.00" xmlns="http://www.w3.org/2000/svg" xmlns:xlink="http://www.w3.org/1999/xlink">
<g id="graph0" class="graph" transform="scale(1 1) rotate(0) translate(4 317)">
<title>Realm::BarrierImpl</title>
<!-- Node1 -->
<g id="Node000001" class="node">
<title>Node1</title>
<g id="a_Node000001"><a xlink:title=" ">
<polygon fill="#999999" stroke="#666666" points="1227,-166 1118,-166 1118,-147 1227,-147 1227,-166"/>
<text text-anchor="middle" x="1172.5" y="-154" font-family="Helvetica,sans-Serif" font-size="10.00">Realm::BarrierImpl</text>
</a>
</g>
</g>
<!-- Node1&#45;&gt;Node1 -->
<g id="edge11_Node000001_Node000001" class="edge">
<title>Node1&#45;&gt;Node1</title>
<g id="a_edge11_Node000001_Node000001"><a xlink:title=" ">
<path fill="none" stroke="#9a32cd" stroke-dasharray="5,2" d="M1147.57,-175.19C1148.93,-180.2 1157.24,-184 1172.5,-184 1196.32,-184 1203.2,-174.73 1193.15,-166.08"/>
<polygon fill="#9a32cd" stroke="#9a32cd" points="1150.77,-176.62 1151.85,-166.08 1144.43,-173.65 1150.77,-176.62"/>
</a>
</g>
<text text-anchor="middle" x="1172.5" y="-187" font-family="Helvetica,sans-Serif" font-size="10.00" fill="grey"> next_free</text>
</g>
<!-- Node2 -->
<g id="Node000002" class="node">
<title>Node2</title>
<g id="a_Node000002"><a xlink:href="classRealm_1_1EventImpl.html" target="_top" xlink:title=" ">
<polygon fill="white" stroke="#666666" points="931,-291 827,-291 827,-272 931,-272 931,-291"/>
<text text-anchor="middle" x="879" y="-279" font-family="Helvetica,sans-Serif" font-size="10.00">Realm::EventImpl</text>
</a>
</g>
</g>
<!-- Node2&#45;&gt;Node1 -->
<g id="edge1_Node000001_Node000002" class="edge">
<title>Node2&#45;&gt;Node1</title>
<g id="a_edge1_Node000001_Node000002"><a xlink:title=" ">
<path fill="none" stroke="#63b8ff" d="M941.33,-290.18C988,-293.7 1052.15,-291.65 1100,-263.5 1138.71,-240.73 1160.71,-187.75 1168.38,-166.04"/>
<polygon fill="#63b8ff" stroke="#63b8ff" points="941.61,-286.69 931.35,-289.32 941.01,-293.67 941.61,-286.69"/>
</a>
</g>
</g>
<!-- Node3 -->
<g id="Node000003" class="node">
<title>Node3</title>
<g id="a_Node000003"><a xlink:href="classRealm_1_1ID.html" target="_top" xlink:title=" ">
<polygon fill="white" stroke="#666666" points="644,-310 579,-310 579,-291 644,-291 644,-310"/>
<text text-anchor="middle" x="611.5" y="-298" font-family="Helvetica,sans-Serif" font-size="10.00">Realm::ID</text>
</a>
</g>
</g>
<!-- Node3&#45;&gt;Node2 -->
<g id="edge2_Node000002_Node000003" class="edge">
<title>Node3&#45;&gt;Node2</title>
<g id="a_edge2_Node000002_Node000003"><a xlink:title=" ">
<path fill="none" stroke="#9a32cd" stroke-dasharray="5,2" d="M654.33,-297.51C700.97,-294.17 776.43,-288.77 826.63,-285.18"/>
<polygon fill="#9a32cd" stroke="#9a32cd" points="653.99,-294.02 644.26,-298.23 654.49,-301 653.99,-294.02"/>
</a>
</g>
<text text-anchor="middle" x="736.5" y="-296.5" font-family="Helvetica,sans-Serif" font-size="10.00" fill="grey"> me</text>
</g>
<!-- Node4 -->
<g id="Node000004" class="node">
<title>Node4</title>
<g id="a_Node000004"><a xlink:href="classRealm_1_1bitpack.html" target="_top" xlink:title=" ">
<polygon fill="white" stroke="#666666" points="416.5,-313 270.5,-313 270.5,-294 416.5,-294 416.5,-313"/>
<text text-anchor="middle" x="343.5" y="-301" font-family="Helvetica,sans-Serif" font-size="10.00">Realm::bitpack&lt; IDType &gt;</text>
</a>
</g>
</g>
<!-- Node4&#45;&gt;Node3 -->
<g id="edge3_Node000003_Node000004" class="edge">
<title>Node4&#45;&gt;Node3</title>
<g id="a_edge3_Node000003_Node000004"><a xlink:title=" ">
<path fill="none" stroke="#9a32cd" stroke-dasharray="5,2" d="M426.94,-302.57C478.3,-301.99 541.47,-301.28 578.72,-300.86"/>
<polygon fill="#9a32cd" stroke="#9a32cd" points="426.79,-299.07 416.83,-302.68 426.87,-306.07 426.79,-299.07"/>
</a>
</g>
<text text-anchor="middle" x="487" y="-304.5" font-family="Helvetica,sans-Serif" font-size="10.00" fill="grey"> id</text>
</g>
<!-- Node5 -->
<g id="Node000005" class="node">
<title>Node5</title>
<g id="a_Node000005"><a xlink:href="classRealm_1_1ProcessorImpl.html" target="_top" xlink:title=" ">
<polygon fill="white" stroke="#666666" points="673,-270 550,-270 550,-251 673,-251 673,-270"/>
<text text-anchor="middle" x="611.5" y="-258" font-family="Helvetica,sans-Serif" font-size="10.00">Realm::ProcessorImpl</text>
</a>
</g>
</g>
<!-- Node5&#45;&gt;Node2 -->
<g id="edge4_Node000002_Node000005" class="edge">
<title>Node5&#45;&gt;Node2</title>
<g id="a_edge4_Node000002_Node000005"><a xlink:title=" ">
<path fill="none" stroke="#9a32cd" stroke-dasharray="5,2" d="M683.38,-265.83C713.75,-268.14 749.62,-270.91 782,-273.5 796.5,-274.66 812.24,-275.96 826.69,-277.16"/>
<polygon fill="#9a32cd" stroke="#9a32cd" points="683.54,-262.33 673.31,-265.07 683.01,-269.31 683.54,-262.33"/>
</a>
</g>
<text text-anchor="middle" x="736.5" y="-276.5" font-family="Helvetica,sans-Serif" font-size="10.00" fill="grey"> owning_processor</text>
</g>
<!-- Node6 -->
<g id="Node000006" class="node">
<title>Node6</title>
<g id="a_Node000006"><a xlink:href="classRealm_1_1DynamicTableFreeList.html" target="_top" xlink:title=" ">
<polygon fill="white" stroke="#666666" points="424,-275.5 263,-275.5 263,-245.5 424,-245.5 424,-275.5"/>
<text text-anchor="start" x="271" y="-263.5" font-family="Helvetica,sans-Serif" font-size="10.00">Realm::DynamicTableFreeList</text>
<text text-anchor="middle" x="343.5" y="-252.5" font-family="Helvetica,sans-Serif" font-size="10.00">&lt; ALLOCATOR &gt;</text>
</a>
</g>
</g>
<!-- Node6&#45;&gt;Node5 -->
<g id="edge5_Node000005_Node000006" class="edge">
<title>Node6&#45;&gt;Node5</title>
<g id="a_edge5_Node000005_Node000006"><a xlink:title=" ">
<path fill="none" stroke="#9a32cd" stroke-dasharray="5,2" d="M434.36,-260.5C472.36,-260.5 515.63,-260.5 549.78,-260.5"/>
<polygon fill="#9a32cd" stroke="#9a32cd" points="434.31,-257 424.31,-260.5 434.31,-264 434.31,-257"/>
</a>
</g>
<text text-anchor="middle" x="487" y="-263.5" font-family="Helvetica,sans-Serif" font-size="10.00" fill="grey"> free_local_events</text>
</g>
<!-- Node7 -->
<g id="Node000007" class="node">
<title>Node7</title>
<g id="a_Node000007"><a xlink:href="classRealm_1_1atomic.html" target="_top" xlink:title=" ">
<polygon fill="white" stroke="#666666" points="141.5,-270 10.5,-270 10.5,-251 141.5,-251 141.5,-270"/>
<text text-anchor="middle" x="76" y="-258" font-family="Helvetica,sans-Serif" font-size="10.00">Realm::atomic&lt; ET * &gt;</text>
</a>
</g>
</g>
<!-- Node7&#45;&gt;Node6 -->
<g id="edge6_Node000006_Node000007" class="edge">
<title>Node7&#45;&gt;Node6</title>
<g id="a_edge6_Node000006_Node000007"><a xlink:title=" ">
<path fill="none" stroke="#9a32cd" stroke-dasharray="5,2" d="M151.67,-260.5C186.34,-260.5 227.6,-260.5 262.87,-260.5"/>
<polygon fill="#9a32cd" stroke="#9a32cd" points="151.61,-257 141.61,-260.5 151.61,-264 151.61,-257"/>
</a>
</g>
<text text-anchor="middle" x="207.5" y="-263.5" font-family="Helvetica,sans-Serif" font-size="10.00" fill="grey"> first_free</text>
</g>
<!-- Node8 -->
<g id="Node000008" class="node">
<title>Node8</title>
<g id="a_Node000008"><a xlink:href="classRealm_1_1Processor.html" target="_top" xlink:title=" ">
<polygon fill="white" stroke="#666666" points="394,-198 293,-198 293,-179 394,-179 394,-198"/>
<text text-anchor="middle" x="343.5" y="-186" font-family="Helvetica,sans-Serif" font-size="10.00">Realm::Processor</text>
</a>
</g>
</g>
<!-- Node8&#45;&gt;Node5 -->
<g id="edge7_Node000005_Node000008" class="edge">
<title>Node8&#45;&gt;Node5</title>
<g id="a_edge7_Node000005_Node000008"><a xlink:title=" ">
<path fill="none" stroke="#9a32cd" stroke-dasharray="5,2" d="M389.51,-200.68C441.85,-214.85 527.16,-237.94 575.03,-250.9"/>
<polygon fill="#9a32cd" stroke="#9a32cd" points="390.39,-197.3 379.82,-198.06 388.56,-204.05 390.39,-197.3"/>
</a>
</g>
<text text-anchor="middle" x="487" y="-241.5" font-family="Helvetica,sans-Serif" font-size="10.00" fill="grey"> me</text>
</g>
<!-- Node8&#45;&gt;Node8 -->
<g id="edge8_Node000008_Node000008" class="edge">
<title>Node8&#45;&gt;Node8</title>
<g id="a_edge8_Node000008_Node000008"><a xlink:title=" ">
<path fill="none" stroke="#9a32cd" stroke-dasharray="5,2" d="M318.2,-207.19C319.58,-212.2 328.01,-216 343.5,-216 367.67,-216 374.66,-206.73 364.46,-198.08"/>
<polygon fill="#9a32cd" stroke="#9a32cd" points="321.4,-208.62 322.54,-198.08 315.08,-205.61 321.4,-208.62"/>
</a>
</g>
<text text-anchor="middle" x="343.5" y="-219" font-family="Helvetica,sans-Serif" font-size="10.00" fill="grey"> NO_PROC</text>
</g>
<!-- Node9 -->
<g id="Node000009" class="node">
<title>Node9</title>
<g id="a_Node000009"><a xlink:href="classRealm_1_1atomic.html" target="_top" xlink:title=" ">
<polygon fill="white" stroke="#666666" points="945,-253.5 813,-253.5 813,-223.5 945,-223.5 945,-253.5"/>
<text text-anchor="start" x="821" y="-241.5" font-family="Helvetica,sans-Serif" font-size="10.00">Realm::atomic&lt; Barrier</text>
<text text-anchor="middle" x="879" y="-230.5" font-family="Helvetica,sans-Serif" font-size="10.00">::timestamp_t &gt;</text>
</a>
</g>
</g>
<!-- Node9&#45;&gt;Node1 -->
<g id="edge9_Node000001_Node000009" class="edge">
<title>Node9&#45;&gt;Node1</title>
<g id="a_edge9_Node000001_Node000009"><a xlink:title=" ">
<path fill="none" stroke="#9a32cd" stroke-dasharray="5,2" d="M955.59,-239.02C999.23,-236.95 1054.34,-230.21 1100,-211.5 1125.5,-201.05 1149.74,-178.97 1162.39,-166.19"/>
<polygon fill="#9a32cd" stroke="#9a32cd" points="955.18,-235.53 945.33,-239.43 955.46,-242.53 955.18,-235.53"/>
</a>
</g>
<text text-anchor="start" x="989.5" y="-251.5" font-family="Helvetica,sans-Serif" font-size="10.00" fill="grey"> barrier_adjustment</text>
<text text-anchor="middle" x="1038" y="-240.5" font-family="Helvetica,sans-Serif" font-size="10.00" fill="grey">_timestamp</text>
</g>
<!-- Node10 -->
<g id="Node000010" class="node">
<title>Node10</title>
<g id="a_Node000010"><a xlink:href="classRealm_1_1atomic.html" target="_top" xlink:title=" ">
<polygon fill="white" stroke="#666666" points="947.5,-205 810.5,-205 810.5,-186 947.5,-186 947.5,-205"/>
<text text-anchor="middle" x="879" y="-193" font-family="Helvetica,sans-Serif" font-size="10.00">Realm::atomic&lt; gen_t &gt;</text>
</a>
</g>
</g>
<!-- Node10&#45;&gt;Node1 -->
<g id="edge10_Node000001_Node000010" class="edge">
<title>Node10&#45;&gt;Node1</title>
<g id="a_edge10_Node000001_Node000010"><a xlink:title=" ">
<path fill="none" stroke="#9a32cd" stroke-dasharray="5,2" d="M957.79,-188.2C999.98,-183.85 1052.97,-177.76 1100,-170.5 1108.38,-169.21 1117.26,-167.63 1125.82,-166.01"/>
<polygon fill="#9a32cd" stroke="#9a32cd" points="957.18,-184.74 947.59,-189.24 957.89,-191.7 957.18,-184.74"/>
</a>
</g>
<text text-anchor="middle" x="1038" y="-199.5" font-family="Helvetica,sans-Serif" font-size="10.00" fill="grey"> gen_subscribed</text>
<text text-anchor="middle" x="1038" y="-188.5" font-family="Helvetica,sans-Serif" font-size="10.00" fill="grey">generation</text>
</g>
<!-- Node11 -->
<g id="Node000011" class="node">
<title>Node11</title>
<g id="a_Node000011"><a xlink:href="classRealm_1_1UnfairMutex.html" target="_top" xlink:title=" ">
<polygon fill="white" stroke="#666666" points="669,-63 554,-63 554,-44 669,-44 669,-63"/>
<text text-anchor="middle" x="611.5" y="-51" font-family="Helvetica,sans-Serif" font-size="10.00">Realm::UnfairMutex</text>
</a>
</g>
</g>
<!-- Node11&#45;&gt;Node1 -->
<g id="edge12_Node000001_Node000011" class="edge">
<title>Node11&#45;&gt;Node1</title>
<g id="a_edge12_Node000001_Node000011"><a xlink:title=" ">
<path fill="none" stroke="#9a32cd" stroke-dasharray="5,2" d="M679.58,-50.27C776.23,-48.03 958.55,-52.92 1100,-110.5 1122.69,-119.74 1146.02,-136.34 1159.62,-146.87"/>
<polygon fill="#9a32cd" stroke="#9a32cd" points="679.27,-46.78 669.36,-50.54 679.45,-53.77 679.27,-46.78"/>
</a>
</g>
<text text-anchor="middle" x="879" y="-72.5" font-family="Helvetica,sans-Serif" font-size="10.00" fill="grey"> mutex</text>
</g>
<!-- Node12 -->
<g id="Node000012" class="node">
<title>Node12</title>
<g id="a_Node000012"><a xlink:href="classRealm_1_1noncopyable.html" target="_top" xlink:title=" ">
<polygon fill="white" stroke="#666666" points="401.5,-107 285.5,-107 285.5,-88 401.5,-88 401.5,-107"/>
<text text-anchor="middle" x="343.5" y="-95" font-family="Helvetica,sans-Serif" font-size="10.00">Realm::noncopyable</text>
</a>
</g>
</g>
<!-- Node12&#45;&gt;Node11 -->
<g id="edge13_Node000011_Node000012" class="edge">
<title>Node12&#45;&gt;Node11</title>
<g id="a_edge13_Node000011_Node000012"><a xlink:title=" ">
<path fill="none" stroke="#63b8ff" d="M411.59,-86.4C455.54,-79.13 512.34,-69.74 553.99,-62.85"/>
<polygon fill="#63b8ff" stroke="#63b8ff" points="410.86,-82.98 401.56,-88.06 412,-89.88 410.86,-82.98"/>
</a>
</g>
</g>
<!-- Node16 -->
<g id="Node000016" class="node">
<title>Node16</title>
<g id="a_Node000016"><a xlink:href="classRealm_1_1KernelMutex.html" target="_top" xlink:title=" ">
<polygon fill="white" stroke="#666666" points="669.5,-145 553.5,-145 553.5,-126 669.5,-126 669.5,-145"/>
<text text-anchor="middle" x="611.5" y="-133" font-family="Helvetica,sans-Serif" font-size="10.00">Realm::KernelMutex</text>
</a>
</g>
</g>
<!-- Node12&#45;&gt;Node16 -->
<g id="edge18_Node000016_Node000012" class="edge">
<title>Node12&#45;&gt;Node16</title>
<g id="a_edge18_Node000016_Node000012"><a xlink:title=" ">
<path fill="none" stroke="#63b8ff" d="M411.76,-107.17C421.9,-108.62 432.22,-110.1 442,-111.5 479,-116.79 520.58,-122.71 553.18,-127.35"/>
<polygon fill="#63b8ff" stroke="#63b8ff" points="412.12,-103.68 401.73,-105.73 411.13,-110.61 412.12,-103.68"/>
</a>
</g>
</g>
<!-- Node17 -->
<g id="Node000017" class="node">
<title>Node17</title>
<g id="a_Node000017"><a xlink:href="classRealm_1_1KernelCondVar.html" target="_top" xlink:title=" ">
<polygon fill="white" stroke="#666666" points="941.5,-120 816.5,-120 816.5,-101 941.5,-101 941.5,-120"/>
<text text-anchor="middle" x="879" y="-108" font-family="Helvetica,sans-Serif" font-size="10.00">Realm::KernelCondVar</text>
</a>
</g>
</g>
<!-- Node12&#45;&gt;Node17 -->
<g id="edge20_Node000017_Node000012" class="edge">
<title>Node12&#45;&gt;Node17</title>
<g id="a_edge20_Node000017_Node000012"><a xlink:title=" ">
<path fill="none" stroke="#63b8ff" d="M411.7,-99.14C516.06,-101.68 715.57,-106.54 816.41,-109"/>
<polygon fill="#63b8ff" stroke="#63b8ff" points="411.68,-95.64 401.59,-98.89 411.51,-102.63 411.68,-95.64"/>
</a>
</g>
</g>
<!-- Node13 -->
<g id="Node000013" class="node">
<title>Node13</title>
<g id="a_Node000013"><a xlink:href="classRealm_1_1atomic.html" target="_top" xlink:title=" ">
<polygon fill="white" stroke="#666666" points="418.5,-56 268.5,-56 268.5,-37 418.5,-37 418.5,-56"/>
<text text-anchor="middle" x="343.5" y="-44" font-family="Helvetica,sans-Serif" font-size="10.00">Realm::atomic&lt; uint32_t &gt;</text>
</a>
</g>
</g>
<!-- Node13&#45;&gt;Node11 -->
<g id="edge14_Node000011_Node000013" class="edge">
<title>Node13&#45;&gt;Node11</title>
<g id="a_edge14_Node000011_Node000013"><a xlink:title=" ">
<path fill="none" stroke="#9a32cd" stroke-dasharray="5,2" d="M429.17,-45.68C461.37,-45.7 498.4,-46.13 532,-47.5 539.1,-47.79 546.56,-48.21 553.93,-48.69"/>
<polygon fill="#9a32cd" stroke="#9a32cd" points="428.89,-42.18 418.89,-45.69 428.9,-49.18 428.89,-42.18"/>
</a>
</g>
<text text-anchor="middle" x="487" y="-50.5" font-family="Helvetica,sans-Serif" font-size="10.00" fill="grey"> state</text>
</g>
<!-- Node14 -->
<g id="Node000014" class="node">
<title>Node14</title>
<g id="a_Node000014"><a xlink:href="classRealm_1_1DoorbellList.html" target="_top" xlink:title=" ">
<polygon fill="white" stroke="#666666" points="400,-19 287,-19 287,0 400,0 400,-19"/>
<text text-anchor="middle" x="343.5" y="-7" font-family="Helvetica,sans-Serif" font-size="10.00">Realm::DoorbellList</text>
</a>
</g>
</g>
<!-- Node14&#45;&gt;Node11 -->
<g id="edge15_Node000011_Node000014" class="edge">
<title>Node14&#45;&gt;Node11</title>
<g id="a_edge15_Node000011_Node000014"><a xlink:title=" ">
<path fill="none" stroke="#9a32cd" stroke-dasharray="5,2" d="M410.64,-14.71C446.72,-18.2 492.05,-23.61 532,-31.5 548.25,-34.71 566.04,-39.58 580.57,-43.92"/>
<polygon fill="#9a32cd" stroke="#9a32cd" points="410.52,-11.19 400.23,-13.74 409.86,-18.16 410.52,-11.19"/>
</a>
</g>
<text text-anchor="middle" x="487" y="-34.5" font-family="Helvetica,sans-Serif" font-size="10.00" fill="grey"> db_list</text>
</g>
<!-- Node15 -->
<g id="Node000015" class="node">
<title>Node15</title>
<g id="a_Node000015"><a xlink:href="classRealm_1_1atomic.html" target="_top" xlink:title=" ">
<polygon fill="white" stroke="#666666" points="152,-19 0,-19 0,0 152,0 152,-19"/>
<text text-anchor="middle" x="76" y="-7" font-family="Helvetica,sans-Serif" font-size="10.00">Realm::atomic&lt; uintptr_t &gt;</text>
</a>
</g>
</g>
<!-- Node15&#45;&gt;Node14 -->
<g id="edge16_Node000014_Node000015" class="edge">
<title>Node15&#45;&gt;Node14</title>
<g id="a_edge16_Node000014_Node000015"><a xlink:title=" ">
<path fill="none" stroke="#9a32cd" stroke-dasharray="5,2" d="M162.21,-9.5C202.95,-9.5 250.57,-9.5 286.64,-9.5"/>
<polygon fill="#9a32cd" stroke="#9a32cd" points="162.02,-6 152.02,-9.5 162.02,-13 162.02,-6"/>
</a>
</g>
<text text-anchor="middle" x="207.5" y="-12.5" font-family="Helvetica,sans-Serif" font-size="10.00" fill="grey"> head_or_count</text>
</g>
<!-- Node16&#45;&gt;Node1 -->
<g id="edge17_Node000001_Node000016" class="edge">
<title>Node16&#45;&gt;Node1</title>
<g id="a_edge17_Node000001_Node000016"><a xlink:title=" ">
<path fill="none" stroke="#9a32cd" stroke-dasharray="5,2" d="M679.68,-140.84C683.51,-141.08 687.3,-141.3 691,-141.5 845.8,-149.83 1028.93,-153.97 1117.78,-155.61"/>
<polygon fill="#9a32cd" stroke="#9a32cd" points="679.71,-137.33 669.5,-140.16 679.25,-144.31 679.71,-137.33"/>
</a>
</g>
<text text-anchor="middle" x="879" y="-154.5" font-family="Helvetica,sans-Serif" font-size="10.00" fill="grey"> external_waiter_mutex</text>
</g>
<!-- Node16&#45;&gt;Node17 -->
<g id="edge21_Node000017_Node000016" class="edge">
<title>Node16&#45;&gt;Node17</title>
<g id="a_edge21_Node000017_Node000016"><a xlink:title=" ">
<path fill="none" stroke="#9a32cd" stroke-dasharray="5,2" d="M679.9,-129.15C721.84,-125.2 775.35,-120.17 816.19,-116.32"/>
<polygon fill="#9a32cd" stroke="#9a32cd" points="679.41,-125.68 669.78,-130.11 680.07,-132.65 679.41,-125.68"/>
</a>
</g>
<text text-anchor="middle" x="736.5" y="-129.5" font-family="Helvetica,sans-Serif" font-size="10.00" fill="grey"> mutex</text>
</g>
<!-- Node17&#45;&gt;Node1 -->
<g id="edge19_Node000001_Node000017" class="edge">
<title>Node17&#45;&gt;Node1</title>
<g id="a_edge19_Node000001_Node000017"><a xlink:title=" ">
<path fill="none" stroke="#9a32cd" stroke-dasharray="5,2" d="M951.94,-112.99C995.24,-115.57 1051.25,-120.82 1100,-131.5 1116.7,-135.16 1134.88,-141.55 1148.72,-146.95"/>
<polygon fill="#9a32cd" stroke="#9a32cd" points="951.96,-109.48 941.78,-112.42 951.57,-116.47 951.96,-109.48"/>
</a>
</g>
<text text-anchor="middle" x="1038" y="-134.5" font-family="Helvetica,sans-Serif" font-size="10.00" fill="grey"> external_waiter_condvar</text>
</g>
<!-- Node18 -->
<g id="Node000018" class="node">
<title>Node18</title>
<g id="a_Node000018"><a xlink:href="structRealm_1_1ReductionOpUntyped.html" target="_top" xlink:title=" ">
<polygon fill="white" stroke="#666666" points="958,-35 800,-35 800,-16 958,-16 958,-35"/>
<text text-anchor="middle" x="879" y="-23" font-family="Helvetica,sans-Serif" font-size="10.00">Realm::ReductionOpUntyped</text>
</a>
</g>
</g>
<!-- Node18&#45;&gt;Node1 -->
<g id="edge22_Node000001_Node000018" class="edge">
<title>Node18&#45;&gt;Node1</title>
<g id="a_edge22_Node000001_Node000018"><a xlink:title=" ">
<path fill="none" stroke="#9a32cd" stroke-dasharray="5,2" d="M968.32,-16.78C1010.9,-16.66 1061.04,-22.89 1100,-46.5 1139.15,-70.23 1160.9,-124.51 1168.44,-146.74"/>
<polygon fill="#9a32cd" stroke="#9a32cd" points="968.19,-13.28 958.24,-16.92 968.29,-20.28 968.19,-13.28"/>
</a>
</g>
<text text-anchor="middle" x="1038" y="-49.5" font-family="Helvetica,sans-Serif" font-size="10.00" fill="grey"> redop</text>
</g>
</g>
</svg>
