<?xml version="1.0" encoding="UTF-8" standalone="no"?>
<!DOCTYPE svg PUBLIC "-//W3C//DTD SVG 1.1//EN"
 "http://www.w3.org/Graphics/SVG/1.1/DTD/svg11.dtd">
<!-- Generated by graphviz version 2.43.0 (0)
 -->
<!-- Title: Realm::ActiveMessage&lt; T, INLINE_STORAGE &gt; Pages: 1 -->
<svg width="300pt" height="115pt"
 viewBox="0.00 0.00 299.50 115.00" xmlns="http://www.w3.org/2000/svg" xmlns:xlink="http://www.w3.org/1999/xlink">
<g id="graph0" class="graph" transform="scale(1 1) rotate(0) translate(4 111)">
<title>Realm::ActiveMessage&lt; T, INLINE_STORAGE &gt;</title>
<!-- Node1 -->
<g id="Node000001" class="node">
<title>Node1</title>
<g id="a_Node000001"><a xlink:title=" ">
<polygon fill="#999999" stroke="#666666" points="219.5,-30 84.5,-30 84.5,0 219.5,0 219.5,-30"/>
<text text-anchor="start" x="92.5" y="-18" font-family="Helvetica,sans-Serif" font-size="10.00">Realm::ActiveMessage</text>
<text text-anchor="middle" x="152" y="-7" font-family="Helvetica,sans-Serif" font-size="10.00">&lt; T, INLINE_STORAGE &gt;</text>
</a>
</g>
</g>
<!-- Node2 -->
<g id="Node000002" class="node">
<title>Node2</title>
<g id="a_Node000002"><a xlink:href="classRealm_1_1ActiveMessageImpl.html" target="_top" xlink:title=" ">
<polygon fill="white" stroke="#666666" points="150,-101.5 0,-101.5 0,-82.5 150,-82.5 150,-101.5"/>
<text text-anchor="middle" x="75" y="-89.5" font-family="Helvetica,sans-Serif" font-size="10.00">Realm::ActiveMessageImpl</text>
</a>
</g>
</g>
<!-- Node2&#45;&gt;Node1 -->
<g id="edge1_Node000001_Node000002" class="edge">
<title>Node2&#45;&gt;Node1</title>
<g id="a_edge1_Node000001_Node000002"><a xlink:title=" ">
<path fill="none" stroke="#9a32cd" stroke-dasharray="5,2" d="M91.14,-75.28C104.83,-61.94 124.31,-42.97 137.51,-30.11"/>
<polygon fill="#9a32cd" stroke="#9a32cd" points="88.55,-72.91 83.83,-82.4 93.44,-77.93 88.55,-72.91"/>
</a>
</g>
<text text-anchor="middle" x="131.5" y="-51" font-family="Helvetica,sans-Serif" font-size="10.00" fill="grey"> impl</text>
</g>
<!-- Node3 -->
<g id="Node000003" class="node">
<title>Node3</title>
<g id="a_Node000003"><a xlink:href="classRealm_1_1Serialization_1_1FixedBufferSerializer.html" target="_top" xlink:title=" ">
<polygon fill="white" stroke="#666666" points="291.5,-107 168.5,-107 168.5,-77 291.5,-77 291.5,-107"/>
<text text-anchor="start" x="176.5" y="-95" font-family="Helvetica,sans-Serif" font-size="10.00">Realm::Serialization</text>
<text text-anchor="middle" x="230" y="-84" font-family="Helvetica,sans-Serif" font-size="10.00">::FixedBufferSerializer</text>
</a>
</g>
</g>
<!-- Node3&#45;&gt;Node1 -->
<g id="edge2_Node000001_Node000003" class="edge">
<title>Node3&#45;&gt;Node1</title>
<g id="a_edge2_Node000001_Node000003"><a xlink:title=" ">
<path fill="none" stroke="#9a32cd" stroke-dasharray="5,2" d="M207.97,-69.82C194.73,-57.08 178.24,-41.24 166.61,-30.04"/>
<polygon fill="#9a32cd" stroke="#9a32cd" points="205.69,-72.48 215.33,-76.89 210.55,-67.44 205.69,-72.48"/>
</a>
</g>
<text text-anchor="middle" x="204.5" y="-51" font-family="Helvetica,sans-Serif" font-size="10.00" fill="grey"> fbs</text>
</g>
</g>
</svg>
