<?xml version="1.0" encoding="UTF-8" standalone="no"?>
<!DOCTYPE svg PUBLIC "-//W3C//DTD SVG 1.1//EN"
 "http://www.w3.org/Graphics/SVG/1.1/DTD/svg11.dtd">
<!-- Generated by graphviz version 2.43.0 (0)
 -->
<!-- Title: Realm::FunctionPointerImplementation Pages: 1 -->
<svg width="761pt" height="98pt"
 viewBox="0.00 0.00 761.00 97.50" xmlns="http://www.w3.org/2000/svg" xmlns:xlink="http://www.w3.org/1999/xlink">
<g id="graph0" class="graph" transform="scale(1 1) rotate(0) translate(4 93.5)">
<title>Realm::FunctionPointerImplementation</title>
<!-- Node1 -->
<g id="Node000001" class="node">
<title>Node1</title>
<g id="a_Node000001"><a xlink:title=" ">
<polygon fill="#999999" stroke="#666666" points="753,-62.5 545,-62.5 545,-43.5 753,-43.5 753,-62.5"/>
<text text-anchor="middle" x="649" y="-50.5" font-family="Helvetica,sans-Serif" font-size="10.00">Realm::FunctionPointerImplementation</text>
</a>
</g>
</g>
<!-- Node2 -->
<g id="Node000002" class="node">
<title>Node2</title>
<g id="a_Node000002"><a xlink:href="classRealm_1_1CodeImplementation.html" target="_top" xlink:title=" ">
<polygon fill="white" stroke="#666666" points="393.5,-89.5 236.5,-89.5 236.5,-70.5 393.5,-70.5 393.5,-89.5"/>
<text text-anchor="middle" x="315" y="-77.5" font-family="Helvetica,sans-Serif" font-size="10.00">Realm::CodeImplementation</text>
</a>
</g>
</g>
<!-- Node2&#45;&gt;Node1 -->
<g id="edge1_Node000001_Node000002" class="edge">
<title>Node2&#45;&gt;Node1</title>
<g id="a_edge1_Node000001_Node000002"><a xlink:title=" ">
<path fill="none" stroke="#63b8ff" d="M404.06,-72.84C447.33,-69.32 499.74,-65.06 544.87,-61.39"/>
<polygon fill="#63b8ff" stroke="#63b8ff" points="403.52,-69.37 393.84,-73.67 404.09,-76.35 403.52,-69.37"/>
</a>
</g>
</g>
<!-- Node3 -->
<g id="Node000003" class="node">
<title>Node3</title>
<g id="a_Node000003"><a xlink:href="classRealm_1_1Serialization_1_1PolymorphicSerdezSubclass.html" target="_top" xlink:title=" ">
<polygon fill="white" stroke="#666666" points="426,-52 204,-52 204,0 426,0 426,-52"/>
<text text-anchor="start" x="212" y="-40" font-family="Helvetica,sans-Serif" font-size="10.00">Realm::Serialization</text>
<text text-anchor="start" x="212" y="-29" font-family="Helvetica,sans-Serif" font-size="10.00">::PolymorphicSerdezSubclass</text>
<text text-anchor="start" x="212" y="-18" font-family="Helvetica,sans-Serif" font-size="10.00">&lt; Realm::CodeImplementation,</text>
<text text-anchor="middle" x="315" y="-7" font-family="Helvetica,sans-Serif" font-size="10.00"> Realm::FunctionPointerImplementation &gt;</text>
</a>
</g>
</g>
<!-- Node3&#45;&gt;Node1 -->
<g id="edge2_Node000001_Node000003" class="edge">
<title>Node3&#45;&gt;Node1</title>
<g id="a_edge2_Node000001_Node000003"><a xlink:title=" ">
<path fill="none" stroke="#9a32cd" stroke-dasharray="5,2" d="M436.06,-35.76C471.73,-38.66 510.47,-41.82 544.95,-44.62"/>
<polygon fill="#9a32cd" stroke="#9a32cd" points="436.34,-32.28 426.09,-34.95 435.77,-39.25 436.34,-32.28"/>
</a>
</g>
<text text-anchor="middle" x="485.5" y="-46" font-family="Helvetica,sans-Serif" font-size="10.00" fill="grey"> serdez_subclass</text>
</g>
<!-- Node4 -->
<g id="Node000004" class="node">
<title>Node4</title>
<g id="a_Node000004"><a xlink:href="classRealm_1_1Serialization_1_1PolymorphicSerdezIntfc.html" target="_top" xlink:title=" ">
<polygon fill="white" stroke="#666666" points="167,-41 0,-41 0,-11 167,-11 167,-41"/>
<text text-anchor="start" x="8" y="-29" font-family="Helvetica,sans-Serif" font-size="10.00">Realm::Serialization</text>
<text text-anchor="middle" x="83.5" y="-18" font-family="Helvetica,sans-Serif" font-size="10.00">::PolymorphicSerdezIntfc&lt; T &gt;</text>
</a>
</g>
</g>
<!-- Node4&#45;&gt;Node3 -->
<g id="edge3_Node000003_Node000004" class="edge">
<title>Node4&#45;&gt;Node3</title>
<g id="a_edge3_Node000003_Node000004"><a xlink:title=" ">
<path fill="none" stroke="#63b8ff" d="M177.22,-26C185.98,-26 194.92,-26 203.83,-26"/>
<polygon fill="#63b8ff" stroke="#63b8ff" points="177.03,-22.5 167.03,-26 177.03,-29.5 177.03,-22.5"/>
</a>
</g>
</g>
</g>
</svg>
