<?xml version="1.0" encoding="UTF-8" standalone="no"?>
<!DOCTYPE svg PUBLIC "-//W3C//DTD SVG 1.1//EN"
 "http://www.w3.org/Graphics/SVG/1.1/DTD/svg11.dtd">
<!-- Generated by graphviz version 2.43.0 (0)
 -->
<!-- Title: Realm::HDF5LayoutPiece&lt; N, T &gt; Pages: 1 -->
<svg width="320pt" height="159pt"
 viewBox="0.00 0.00 319.50 159.00" xmlns="http://www.w3.org/2000/svg" xmlns:xlink="http://www.w3.org/1999/xlink">
<g id="graph0" class="graph" transform="scale(1 1) rotate(0) translate(4 155)">
<title>Realm::HDF5LayoutPiece&lt; N, T &gt;</title>
<!-- Node1 -->
<g id="Node000001" class="node">
<title>Node1</title>
<g id="a_Node000001"><a xlink:title=" ">
<polygon fill="#999999" stroke="#666666" points="238.5,-30 98.5,-30 98.5,0 238.5,0 238.5,-30"/>
<text text-anchor="start" x="106.5" y="-18" font-family="Helvetica,sans-Serif" font-size="10.00">Realm::HDF5LayoutPiece</text>
<text text-anchor="middle" x="168.5" y="-7" font-family="Helvetica,sans-Serif" font-size="10.00">&lt; N, T &gt;</text>
</a>
</g>
</g>
<!-- Node2 -->
<g id="Node000002" class="node">
<title>Node2</title>
<g id="a_Node000002"><a xlink:href="classRealm_1_1InstanceLayoutPiece.html" target="_top" xlink:title=" ">
<polygon fill="white" stroke="#666666" points="167,-96 12,-96 12,-66 167,-66 167,-96"/>
<text text-anchor="start" x="20" y="-84" font-family="Helvetica,sans-Serif" font-size="10.00">Realm::InstanceLayoutPiece</text>
<text text-anchor="middle" x="89.5" y="-73" font-family="Helvetica,sans-Serif" font-size="10.00">&lt; N, T &gt;</text>
</a>
</g>
</g>
<!-- Node2&#45;&gt;Node1 -->
<g id="edge1_Node000001_Node000002" class="edge">
<title>Node2&#45;&gt;Node1</title>
<g id="a_edge1_Node000001_Node000002"><a xlink:title=" ">
<path fill="none" stroke="#63b8ff" d="M114.83,-59.48C126.64,-49.91 140.39,-38.77 151.02,-30.16"/>
<polygon fill="#63b8ff" stroke="#63b8ff" points="112.6,-56.78 107.03,-65.8 117.01,-62.22 112.6,-56.78"/>
</a>
</g>
</g>
<!-- Node3 -->
<g id="Node000003" class="node">
<title>Node3</title>
<g id="a_Node000003"><a xlink:href="classRealm_1_1InstanceLayoutPieceBase.html" target="_top" xlink:title=" ">
<polygon fill="white" stroke="#666666" points="179,-151 0,-151 0,-132 179,-132 179,-151"/>
<text text-anchor="middle" x="89.5" y="-139" font-family="Helvetica,sans-Serif" font-size="10.00">Realm::InstanceLayoutPieceBase</text>
</a>
</g>
</g>
<!-- Node3&#45;&gt;Node2 -->
<g id="edge2_Node000002_Node000003" class="edge">
<title>Node3&#45;&gt;Node2</title>
<g id="a_edge2_Node000002_Node000003"><a xlink:title=" ">
<path fill="none" stroke="#63b8ff" d="M89.5,-121.65C89.5,-113.36 89.5,-103.78 89.5,-96.11"/>
<polygon fill="#63b8ff" stroke="#63b8ff" points="86,-121.87 89.5,-131.87 93,-121.87 86,-121.87"/>
</a>
</g>
</g>
<!-- Node4 -->
<g id="Node000004" class="node">
<title>Node4</title>
<g id="a_Node000004"><a xlink:href="structRealm_1_1HDF5PieceInfo.html" target="_top" xlink:title=" ">
<polygon fill="white" stroke="#666666" points="311.5,-90.5 185.5,-90.5 185.5,-71.5 311.5,-71.5 311.5,-90.5"/>
<text text-anchor="middle" x="248.5" y="-78.5" font-family="Helvetica,sans-Serif" font-size="10.00">Realm::HDF5PieceInfo</text>
</a>
</g>
</g>
<!-- Node4&#45;&gt;Node1 -->
<g id="edge3_Node000001_Node000004" class="edge">
<title>Node4&#45;&gt;Node1</title>
<g id="a_edge3_Node000001_Node000004"><a xlink:title=" ">
<path fill="none" stroke="#63b8ff" d="M229.77,-65.02C216.59,-54.48 199.07,-40.46 186.14,-30.12"/>
<polygon fill="#63b8ff" stroke="#63b8ff" points="227.72,-67.85 237.71,-71.37 232.09,-62.39 227.72,-67.85"/>
</a>
</g>
</g>
</g>
</svg>
