<?xml version="1.0" encoding="UTF-8" standalone="no"?>
<!DOCTYPE svg PUBLIC "-//W3C//DTD SVG 1.1//EN"
 "http://www.w3.org/Graphics/SVG/1.1/DTD/svg11.dtd">
<!-- Generated by graphviz version 2.43.0 (0)
 -->
<!-- Title: Realm::UCPModule Pages: 1 -->
<svg width="146pt" height="205pt"
 viewBox="0.00 0.00 146.00 205.00" xmlns="http://www.w3.org/2000/svg" xmlns:xlink="http://www.w3.org/1999/xlink">
<g id="graph0" class="graph" transform="scale(1 1) rotate(0) translate(4 201)">
<title>Realm::UCPModule</title>
<!-- Node1 -->
<g id="Node000001" class="node">
<title>Node1</title>
<g id="a_Node000001"><a xlink:title=" ">
<polygon fill="#999999" stroke="#666666" points="124,-85 14,-85 14,-66 124,-66 124,-85"/>
<text text-anchor="middle" x="69" y="-73" font-family="Helvetica,sans-Serif" font-size="10.00">Realm::UCPModule</text>
</a>
</g>
</g>
<!-- Node4 -->
<g id="Node000004" class="node">
<title>Node4</title>
<g id="a_Node000004"><a xlink:href="classRealm_1_1UCP_1_1UCPInternal.html" target="_top" xlink:title=" ">
<polygon fill="white" stroke="#666666" points="138,-19 0,-19 0,0 138,0 138,-19"/>
<text text-anchor="middle" x="69" y="-7" font-family="Helvetica,sans-Serif" font-size="10.00">Realm::UCP::UCPInternal</text>
</a>
</g>
</g>
<!-- Node1&#45;&gt;Node4 -->
<g id="edge4_Node000004_Node000001" class="edge">
<title>Node1&#45;&gt;Node4</title>
<g id="a_edge4_Node000004_Node000001"><a xlink:title=" ">
<path fill="none" stroke="#9a32cd" stroke-dasharray="5,2" d="M43.36,-59.71C39.58,-56.37 36.22,-52.46 34,-48 28.29,-36.52 40.08,-26.09 51.49,-19.16"/>
<polygon fill="#9a32cd" stroke="#9a32cd" points="41.37,-62.6 51.47,-65.8 45.57,-57 41.37,-62.6"/>
</a>
</g>
<text text-anchor="middle" x="55" y="-40" font-family="Helvetica,sans-Serif" font-size="10.00" fill="grey"> runtime</text>
</g>
<!-- Node2 -->
<g id="Node000002" class="node">
<title>Node2</title>
<g id="a_Node000002"><a xlink:href="classRealm_1_1NetworkModule.html" target="_top" xlink:title=" ">
<polygon fill="white" stroke="#666666" points="134.5,-141 3.5,-141 3.5,-122 134.5,-122 134.5,-141"/>
<text text-anchor="middle" x="69" y="-129" font-family="Helvetica,sans-Serif" font-size="10.00">Realm::NetworkModule</text>
</a>
</g>
</g>
<!-- Node2&#45;&gt;Node1 -->
<g id="edge1_Node000001_Node000002" class="edge">
<title>Node2&#45;&gt;Node1</title>
<g id="a_edge1_Node000001_Node000002"><a xlink:title=" ">
<path fill="none" stroke="#63b8ff" d="M69,-111.3C69,-102.41 69,-92.28 69,-85.25"/>
<polygon fill="#63b8ff" stroke="#63b8ff" points="65.5,-111.58 69,-121.58 72.5,-111.58 65.5,-111.58"/>
</a>
</g>
</g>
<!-- Node3 -->
<g id="Node000003" class="node">
<title>Node3</title>
<g id="a_Node000003"><a xlink:href="classRealm_1_1Module.html" target="_top" xlink:title=" ">
<polygon fill="white" stroke="#666666" points="114,-197 24,-197 24,-178 114,-178 114,-197"/>
<text text-anchor="middle" x="69" y="-185" font-family="Helvetica,sans-Serif" font-size="10.00">Realm::Module</text>
</a>
</g>
</g>
<!-- Node3&#45;&gt;Node2 -->
<g id="edge2_Node000002_Node000003" class="edge">
<title>Node3&#45;&gt;Node2</title>
<g id="a_edge2_Node000002_Node000003"><a xlink:title=" ">
<path fill="none" stroke="#63b8ff" d="M69,-167.3C69,-158.41 69,-148.28 69,-141.25"/>
<polygon fill="#63b8ff" stroke="#63b8ff" points="65.5,-167.58 69,-177.58 72.5,-167.58 65.5,-167.58"/>
</a>
</g>
</g>
<!-- Node4&#45;&gt;Node1 -->
<g id="edge3_Node000001_Node000004" class="edge">
<title>Node4&#45;&gt;Node1</title>
<g id="a_edge3_Node000001_Node000004"><a xlink:title=" ">
<path fill="none" stroke="#9a32cd" stroke-dasharray="5,2" d="M77.92,-28.39C80.01,-34.55 81.29,-41.52 80,-48 78.75,-54.25 76,-60.88 73.57,-65.94"/>
<polygon fill="#9a32cd" stroke="#9a32cd" points="81.09,-26.88 73.97,-19.03 74.64,-29.6 81.09,-26.88"/>
</a>
</g>
<text text-anchor="middle" x="100.5" y="-40" font-family="Helvetica,sans-Serif" font-size="10.00" fill="grey"> internal</text>
</g>
</g>
</svg>
