<?xml version="1.0" encoding="UTF-8" standalone="no"?>
<!DOCTYPE svg PUBLIC "-//W3C//DTD SVG 1.1//EN"
 "http://www.w3.org/Graphics/SVG/1.1/DTD/svg11.dtd">
<!-- Generated by graphviz version 2.43.0 (0)
 -->
<!-- Title: Realm::PendingCompletion Pages: 1 -->
<svg width="1163pt" height="236pt"
 viewBox="0.00 0.00 1163.00 236.00" xmlns="http://www.w3.org/2000/svg" xmlns:xlink="http://www.w3.org/1999/xlink">
<g id="graph0" class="graph" transform="scale(1 1) rotate(0) translate(4 232)">
<title>Realm::PendingCompletion</title>
<!-- Node1 -->
<g id="Node000001" class="node">
<title>Node1</title>
<g id="a_Node000001"><a xlink:title=" ">
<polygon fill="#999999" stroke="#666666" points="1155,-77 1006,-77 1006,-58 1155,-58 1155,-77"/>
<text text-anchor="middle" x="1080.5" y="-65" font-family="Helvetica,sans-Serif" font-size="10.00">Realm::PendingCompletion</text>
</a>
</g>
</g>
<!-- Node1&#45;&gt;Node1 -->
<g id="edge1_Node000001_Node000001" class="edge">
<title>Node1&#45;&gt;Node1</title>
<g id="a_edge1_Node000001_Node000001"><a xlink:title=" ">
<path fill="none" stroke="#9a32cd" stroke-dasharray="5,2" d="M1058.28,-86.55C1059.76,-91.38 1067.17,-95 1080.5,-95 1101.83,-95 1107.99,-85.73 1099,-77.08"/>
<polygon fill="#9a32cd" stroke="#9a32cd" points="1061.6,-87.67 1062,-77.08 1055.09,-85.11 1061.6,-87.67"/>
</a>
</g>
<text text-anchor="middle" x="1080.5" y="-98" font-family="Helvetica,sans-Serif" font-size="10.00" fill="grey"> next_free</text>
</g>
<!-- Node2 -->
<g id="Node000002" class="node">
<title>Node2</title>
<g id="a_Node000002"><a xlink:href="classRealm_1_1PendingCompletionManager.html" target="_top" xlink:title=" ">
<polygon fill="white" stroke="#666666" points="910,-110.5 761,-110.5 761,-80.5 910,-80.5 910,-110.5"/>
<text text-anchor="start" x="769" y="-98.5" font-family="Helvetica,sans-Serif" font-size="10.00">Realm::PendingCompletion</text>
<text text-anchor="middle" x="835.5" y="-87.5" font-family="Helvetica,sans-Serif" font-size="10.00">Manager</text>
</a>
</g>
</g>
<!-- Node2&#45;&gt;Node1 -->
<g id="edge2_Node000001_Node000002" class="edge">
<title>Node2&#45;&gt;Node1</title>
<g id="a_edge2_Node000001_Node000002"><a xlink:title=" ">
<path fill="none" stroke="#9a32cd" stroke-dasharray="5,2" d="M920.17,-85.86C947.99,-82.65 978.75,-79.11 1005.76,-76"/>
<polygon fill="#9a32cd" stroke="#9a32cd" points="919.6,-82.4 910.07,-87.02 920.4,-89.36 919.6,-82.4"/>
</a>
</g>
<text text-anchor="middle" x="959.5" y="-86.5" font-family="Helvetica,sans-Serif" font-size="10.00" fill="grey"> manager</text>
</g>
<!-- Node3 -->
<g id="Node000003" class="node">
<title>Node3</title>
<g id="a_Node000003"><a xlink:href="classRealm_1_1UnfairMutex.html" target="_top" xlink:title=" ">
<polygon fill="white" stroke="#666666" points="626,-191 511,-191 511,-172 626,-172 626,-191"/>
<text text-anchor="middle" x="568.5" y="-179" font-family="Helvetica,sans-Serif" font-size="10.00">Realm::UnfairMutex</text>
</a>
</g>
</g>
<!-- Node3&#45;&gt;Node2 -->
<g id="edge3_Node000002_Node000003" class="edge">
<title>Node3&#45;&gt;Node2</title>
<g id="a_edge3_Node000002_Node000003"><a xlink:title=" ">
<path fill="none" stroke="#9a32cd" stroke-dasharray="5,2" d="M623.18,-169.64C632.8,-167.37 642.72,-164.94 652,-162.5 691.44,-152.14 701.67,-150.42 740,-136.5 761.18,-128.81 784.4,-118.76 802.53,-110.53"/>
<polygon fill="#9a32cd" stroke="#9a32cd" points="622.24,-166.26 613.29,-171.94 623.83,-173.08 622.24,-166.26"/>
</a>
</g>
<text text-anchor="middle" x="705" y="-160.5" font-family="Helvetica,sans-Serif" font-size="10.00" fill="grey"> mutex</text>
</g>
<!-- Node4 -->
<g id="Node000004" class="node">
<title>Node4</title>
<g id="a_Node000004"><a xlink:href="classRealm_1_1noncopyable.html" target="_top" xlink:title=" ">
<polygon fill="white" stroke="#666666" points="396,-228 280,-228 280,-209 396,-209 396,-228"/>
<text text-anchor="middle" x="338" y="-216" font-family="Helvetica,sans-Serif" font-size="10.00">Realm::noncopyable</text>
</a>
</g>
</g>
<!-- Node4&#45;&gt;Node3 -->
<g id="edge4_Node000003_Node000004" class="edge">
<title>Node4&#45;&gt;Node3</title>
<g id="a_edge4_Node000003_Node000004"><a xlink:title=" ">
<path fill="none" stroke="#63b8ff" d="M406.16,-207.62C439.39,-202.24 479.07,-195.82 510.76,-190.69"/>
<polygon fill="#63b8ff" stroke="#63b8ff" points="405.38,-204.21 396.07,-209.26 406.5,-211.12 405.38,-204.21"/>
</a>
</g>
</g>
<!-- Node5 -->
<g id="Node000005" class="node">
<title>Node5</title>
<g id="a_Node000005"><a xlink:href="classRealm_1_1atomic.html" target="_top" xlink:title=" ">
<polygon fill="white" stroke="#666666" points="413,-191 263,-191 263,-172 413,-172 413,-191"/>
<text text-anchor="middle" x="338" y="-179" font-family="Helvetica,sans-Serif" font-size="10.00">Realm::atomic&lt; uint32_t &gt;</text>
</a>
</g>
</g>
<!-- Node5&#45;&gt;Node3 -->
<g id="edge5_Node000003_Node000005" class="edge">
<title>Node5&#45;&gt;Node3</title>
<g id="a_edge5_Node000003_Node000005"><a xlink:title=" ">
<path fill="none" stroke="#9a32cd" stroke-dasharray="5,2" d="M423.35,-181.5C452.45,-181.5 484.33,-181.5 510.69,-181.5"/>
<polygon fill="#9a32cd" stroke="#9a32cd" points="423.19,-178 413.19,-181.5 423.19,-185 423.19,-178"/>
</a>
</g>
<text text-anchor="middle" x="449" y="-184.5" font-family="Helvetica,sans-Serif" font-size="10.00" fill="grey"> state</text>
</g>
<!-- Node6 -->
<g id="Node000006" class="node">
<title>Node6</title>
<g id="a_Node000006"><a xlink:href="classRealm_1_1DoorbellList.html" target="_top" xlink:title=" ">
<polygon fill="white" stroke="#666666" points="394.5,-154 281.5,-154 281.5,-135 394.5,-135 394.5,-154"/>
<text text-anchor="middle" x="338" y="-142" font-family="Helvetica,sans-Serif" font-size="10.00">Realm::DoorbellList</text>
</a>
</g>
</g>
<!-- Node6&#45;&gt;Node3 -->
<g id="edge6_Node000003_Node000006" class="edge">
<title>Node6&#45;&gt;Node3</title>
<g id="a_edge6_Node000003_Node000006"><a xlink:title=" ">
<path fill="none" stroke="#9a32cd" stroke-dasharray="5,2" d="M404.78,-155.15C438.32,-160.58 478.7,-167.12 510.85,-172.33"/>
<polygon fill="#9a32cd" stroke="#9a32cd" points="405.04,-151.65 394.61,-153.5 403.92,-158.56 405.04,-151.65"/>
</a>
</g>
<text text-anchor="middle" x="449" y="-167.5" font-family="Helvetica,sans-Serif" font-size="10.00" fill="grey"> db_list</text>
</g>
<!-- Node7 -->
<g id="Node000007" class="node">
<title>Node7</title>
<g id="a_Node000007"><a xlink:href="classRealm_1_1atomic.html" target="_top" xlink:title=" ">
<polygon fill="white" stroke="#666666" points="152,-154 0,-154 0,-135 152,-135 152,-154"/>
<text text-anchor="middle" x="76" y="-142" font-family="Helvetica,sans-Serif" font-size="10.00">Realm::atomic&lt; uintptr_t &gt;</text>
</a>
</g>
</g>
<!-- Node7&#45;&gt;Node6 -->
<g id="edge7_Node000006_Node000007" class="edge">
<title>Node7&#45;&gt;Node6</title>
<g id="a_edge7_Node000006_Node000007"><a xlink:title=" ">
<path fill="none" stroke="#9a32cd" stroke-dasharray="5,2" d="M162.52,-144.5C201.61,-144.5 246.79,-144.5 281.38,-144.5"/>
<polygon fill="#9a32cd" stroke="#9a32cd" points="162.2,-141 152.2,-144.5 162.2,-148 162.2,-141"/>
</a>
</g>
<text text-anchor="middle" x="207.5" y="-147.5" font-family="Helvetica,sans-Serif" font-size="10.00" fill="grey"> head_or_count</text>
</g>
<!-- Node8 -->
<g id="Node000008" class="node">
<title>Node8</title>
<g id="a_Node000008"><a xlink:href="classRealm_1_1atomic.html" target="_top" xlink:title=" ">
<polygon fill="white" stroke="#666666" points="637,-153.5 500,-153.5 500,-123.5 637,-123.5 637,-153.5"/>
<text text-anchor="start" x="508" y="-141.5" font-family="Helvetica,sans-Serif" font-size="10.00">Realm::atomic&lt; Realm</text>
<text text-anchor="middle" x="568.5" y="-130.5" font-family="Helvetica,sans-Serif" font-size="10.00">::PendingCompletion * &gt;</text>
</a>
</g>
</g>
<!-- Node8&#45;&gt;Node2 -->
<g id="edge8_Node000002_Node000008" class="edge">
<title>Node8&#45;&gt;Node2</title>
<g id="a_edge8_Node000002_Node000008"><a xlink:title=" ">
<path fill="none" stroke="#9a32cd" stroke-dasharray="5,2" d="M646.98,-125.93C682.81,-120.11 725.16,-113.24 760.54,-107.5"/>
<polygon fill="#9a32cd" stroke="#9a32cd" points="646.37,-122.48 637.06,-127.54 647.49,-129.39 646.37,-122.48"/>
</a>
</g>
<text text-anchor="middle" x="705" y="-124.5" font-family="Helvetica,sans-Serif" font-size="10.00" fill="grey"> first_free</text>
</g>
<!-- Node9 -->
<g id="Node000009" class="node">
<title>Node9</title>
<g id="a_Node000009"><a xlink:href="classRealm_1_1atomic.html" target="_top" xlink:title=" ">
<polygon fill="white" stroke="#666666" points="630,-105 507,-105 507,-86 630,-86 630,-105"/>
<text text-anchor="middle" x="568.5" y="-93" font-family="Helvetica,sans-Serif" font-size="10.00">Realm::atomic&lt; int &gt;</text>
</a>
</g>
</g>
<!-- Node9&#45;&gt;Node2 -->
<g id="edge9_Node000002_Node000009" class="edge">
<title>Node9&#45;&gt;Node2</title>
<g id="a_edge9_Node000002_Node000009"><a xlink:title=" ">
<path fill="none" stroke="#9a32cd" stroke-dasharray="5,2" d="M640.55,-95.5C677.73,-95.5 723.2,-95.5 760.77,-95.5"/>
<polygon fill="#9a32cd" stroke="#9a32cd" points="640.3,-92 630.3,-95.5 640.3,-99 640.3,-92"/>
</a>
</g>
<text text-anchor="middle" x="705" y="-98.5" font-family="Helvetica,sans-Serif" font-size="10.00" fill="grey"> num_groups</text>
</g>
<!-- Node10 -->
<g id="Node000010" class="node">
<title>Node10</title>
<g id="a_Node000010"><a xlink:href="classRealm_1_1atomic.html" target="_top" xlink:title=" ">
<polygon fill="white" stroke="#666666" points="652,-67.5 485,-67.5 485,-37.5 652,-37.5 652,-67.5"/>
<text text-anchor="start" x="493" y="-55.5" font-family="Helvetica,sans-Serif" font-size="10.00">Realm::atomic&lt; Realm</text>
<text text-anchor="middle" x="568.5" y="-44.5" font-family="Helvetica,sans-Serif" font-size="10.00">::PendingCompletionGroup * &gt;</text>
</a>
</g>
</g>
<!-- Node10&#45;&gt;Node2 -->
<g id="edge10_Node000002_Node000010" class="edge">
<title>Node10&#45;&gt;Node2</title>
<g id="a_edge10_Node000002_Node000010"><a xlink:title=" ">
<path fill="none" stroke="#9a32cd" stroke-dasharray="5,2" d="M662.17,-67.54C694.5,-72.78 730.32,-78.6 760.89,-83.56"/>
<polygon fill="#9a32cd" stroke="#9a32cd" points="662.69,-64.08 652.26,-65.93 661.57,-70.99 662.69,-64.08"/>
</a>
</g>
<text text-anchor="middle" x="705" y="-82.5" font-family="Helvetica,sans-Serif" font-size="10.00" fill="grey"> groups</text>
</g>
<!-- Node11 -->
<g id="Node000011" class="node">
<title>Node11</title>
<g id="a_Node000011"><a xlink:href="classRealm_1_1atomic.html" target="_top" xlink:title=" ">
<polygon fill="white" stroke="#666666" points="638,-19 499,-19 499,0 638,0 638,-19"/>
<text text-anchor="middle" x="568.5" y="-7" font-family="Helvetica,sans-Serif" font-size="10.00">Realm::atomic&lt; size_t &gt;</text>
</a>
</g>
</g>
<!-- Node11&#45;&gt;Node2 -->
<g id="edge11_Node000002_Node000011" class="edge">
<title>Node11&#45;&gt;Node2</title>
<g id="a_edge11_Node000002_Node000011"><a xlink:title=" ">
<path fill="none" stroke="#9a32cd" stroke-dasharray="5,2" d="M623.18,-21.36C632.8,-23.63 642.72,-26.06 652,-28.5 691.44,-38.86 701.67,-40.58 740,-54.5 761.18,-62.19 784.4,-72.24 802.53,-80.47"/>
<polygon fill="#9a32cd" stroke="#9a32cd" points="623.83,-17.92 613.29,-19.06 622.24,-24.74 623.83,-17.92"/>
</a>
</g>
<text text-anchor="middle" x="705" y="-57.5" font-family="Helvetica,sans-Serif" font-size="10.00" fill="grey"> num_pending</text>
</g>
<!-- Node12 -->
<g id="Node000012" class="node">
<title>Node12</title>
<g id="a_Node000012"><a xlink:href="classRealm_1_1atomic.html" target="_top" xlink:title=" ">
<polygon fill="white" stroke="#666666" points="913,-49 758,-49 758,-30 913,-30 913,-49"/>
<text text-anchor="middle" x="835.5" y="-37" font-family="Helvetica,sans-Serif" font-size="10.00">Realm::atomic&lt; unsigned &gt;</text>
</a>
</g>
</g>
<!-- Node12&#45;&gt;Node1 -->
<g id="edge12_Node000001_Node000012" class="edge">
<title>Node12&#45;&gt;Node1</title>
<g id="a_edge12_Node000001_Node000012"><a xlink:title=" ">
<path fill="none" stroke="#9a32cd" stroke-dasharray="5,2" d="M923.11,-36.72C944.41,-37.11 967.1,-38.45 988,-41.5 1010.39,-44.77 1035.02,-51.99 1053.08,-57.99"/>
<polygon fill="#9a32cd" stroke="#9a32cd" points="923.15,-33.22 913.1,-36.6 923.06,-40.22 923.15,-33.22"/>
</a>
</g>
<text text-anchor="middle" x="959.5" y="-66.5" font-family="Helvetica,sans-Serif" font-size="10.00" fill="grey"> local_left</text>
<text text-anchor="middle" x="959.5" y="-55.5" font-family="Helvetica,sans-Serif" font-size="10.00" fill="grey">remote_left</text>
<text text-anchor="middle" x="959.5" y="-44.5" font-family="Helvetica,sans-Serif" font-size="10.00" fill="grey">state</text>
</g>
</g>
</svg>
