<?xml version="1.0" encoding="UTF-8" standalone="no"?>
<!DOCTYPE svg PUBLIC "-//W3C//DTD SVG 1.1//EN"
 "http://www.w3.org/Graphics/SVG/1.1/DTD/svg11.dtd">
<!-- Generated by graphviz version 2.43.0 (0)
 -->
<!-- Title: Realm::PythonInterpreter Pages: 1 -->
<svg width="208pt" height="206pt"
 viewBox="0.00 0.00 208.00 206.00" xmlns="http://www.w3.org/2000/svg" xmlns:xlink="http://www.w3.org/1999/xlink">
<g id="graph0" class="graph" transform="scale(1 1) rotate(0) translate(4 202)">
<title>Realm::PythonInterpreter</title>
<!-- Node1 -->
<g id="Node000001" class="node">
<title>Node1</title>
<g id="a_Node000001"><a xlink:title=" ">
<polygon fill="#999999" stroke="#666666" points="140,-19 0,-19 0,0 140,0 140,-19"/>
<text text-anchor="middle" x="70" y="-7" font-family="Helvetica,sans-Serif" font-size="10.00">Realm::PythonInterpreter</text>
</a>
</g>
</g>
<!-- Node2 -->
<g id="Node000002" class="node">
<title>Node2</title>
<g id="a_Node000002"><a xlink:href="classRealm_1_1PythonAPI.html" target="_top" xlink:title=" ">
<polygon fill="white" stroke="#666666" points="122,-85 18,-85 18,-66 122,-66 122,-85"/>
<text text-anchor="middle" x="70" y="-73" font-family="Helvetica,sans-Serif" font-size="10.00">Realm::PythonAPI</text>
</a>
</g>
</g>
<!-- Node2&#45;&gt;Node1 -->
<g id="edge1_Node000001_Node000002" class="edge">
<title>Node2&#45;&gt;Node1</title>
<g id="a_edge1_Node000001_Node000002"><a xlink:title=" ">
<path fill="none" stroke="#9a32cd" stroke-dasharray="5,2" d="M70,-55.58C70,-43.63 70,-28.72 70,-19.41"/>
<polygon fill="#9a32cd" stroke="#9a32cd" points="66.5,-55.87 70,-65.87 73.5,-55.87 66.5,-55.87"/>
</a>
</g>
<text text-anchor="middle" x="79.5" y="-40" font-family="Helvetica,sans-Serif" font-size="10.00" fill="grey"> api</text>
</g>
<!-- Node3 -->
<g id="Node000003" class="node">
<title>Node3</title>
<g id="a_Node000003"><a xlink:href="structRealm_1_1PyThreadState.html" target="_top" xlink:title=" ">
<polygon fill="white" stroke="#666666" points="132.5,-196.5 7.5,-196.5 7.5,-177.5 132.5,-177.5 132.5,-196.5"/>
<text text-anchor="middle" x="70" y="-184.5" font-family="Helvetica,sans-Serif" font-size="10.00">Realm::PyThreadState</text>
</a>
</g>
</g>
<!-- Node3&#45;&gt;Node2 -->
<g id="edge2_Node000002_Node000003" class="edge">
<title>Node3&#45;&gt;Node2</title>
<g id="a_edge2_Node000002_Node000003"><a xlink:title=" ">
<path fill="none" stroke="#9a32cd" stroke-dasharray="5,2" d="M70,-167.11C70,-143.08 70,-102.61 70,-85.05"/>
<polygon fill="#9a32cd" stroke="#9a32cd" points="66.5,-167.41 70,-177.41 73.5,-167.41 66.5,-167.41"/>
</a>
</g>
<text text-anchor="middle" x="135" y="-150" font-family="Helvetica,sans-Serif" font-size="10.00" fill="grey"> PyEval_SaveThread</text>
<text text-anchor="start" x="70" y="-139" font-family="Helvetica,sans-Serif" font-size="10.00" fill="grey">PyGILState_GetThisThread</text>
<text text-anchor="middle" x="135" y="-128" font-family="Helvetica,sans-Serif" font-size="10.00" fill="grey">State</text>
<text text-anchor="middle" x="135" y="-117" font-family="Helvetica,sans-Serif" font-size="10.00" fill="grey">PyThreadState_Get</text>
<text text-anchor="middle" x="135" y="-106" font-family="Helvetica,sans-Serif" font-size="10.00" fill="grey">PyThreadState_Swap</text>
</g>
<!-- Node3&#45;&gt;Node3 -->
<g id="edge3_Node000003_Node000003" class="edge">
<title>Node3&#45;&gt;Node3</title>
<g id="a_edge3_Node000003_Node000003"><a xlink:title=" ">
<path fill="none" stroke="#9a32cd" stroke-dasharray="5,2" d="M114.35,-197.36C133.79,-198.27 150.5,-194.81 150.5,-187 150.5,-177.87 127.66,-174.69 104.33,-177.47"/>
<polygon fill="#9a32cd" stroke="#9a32cd" points="114.59,-193.87 104.33,-196.53 114.01,-200.84 114.59,-193.87"/>
</a>
</g>
<text text-anchor="middle" x="163" y="-190" font-family="Helvetica,sans-Serif" font-size="10.00" fill="grey"> next</text>
<text text-anchor="middle" x="163" y="-179" font-family="Helvetica,sans-Serif" font-size="10.00" fill="grey">prev</text>
</g>
</g>
</svg>
