<?xml version="1.0" encoding="UTF-8" standalone="no"?>
<!DOCTYPE svg PUBLIC "-//W3C//DTD SVG 1.1//EN"
 "http://www.w3.org/Graphics/SVG/1.1/DTD/svg11.dtd">
<!-- Generated by graphviz version 2.43.0 (0)
 -->
<!-- Title: Realm::SingleXDQChannel&lt; CHANNEL, XD &gt; Pages: 1 -->
<svg width="282pt" height="216pt"
 viewBox="0.00 0.00 282.00 216.00" xmlns="http://www.w3.org/2000/svg" xmlns:xlink="http://www.w3.org/1999/xlink">
<g id="graph0" class="graph" transform="scale(1 1) rotate(0) translate(4 212)">
<title>Realm::SingleXDQChannel&lt; CHANNEL, XD &gt;</title>
<!-- Node1 -->
<g id="Node000001" class="node">
<title>Node1</title>
<g id="a_Node000001"><a xlink:title=" ">
<polygon fill="#999999" stroke="#666666" points="164,-30 18,-30 18,0 164,0 164,-30"/>
<text text-anchor="start" x="26" y="-18" font-family="Helvetica,sans-Serif" font-size="10.00">Realm::SingleXDQChannel</text>
<text text-anchor="middle" x="91" y="-7" font-family="Helvetica,sans-Serif" font-size="10.00">&lt; CHANNEL, XD &gt;</text>
</a>
</g>
</g>
<!-- Node2 -->
<g id="Node000002" class="node">
<title>Node2</title>
<g id="a_Node000002"><a xlink:href="classRealm_1_1LocalChannel.html" target="_top" xlink:title=" ">
<polygon fill="white" stroke="#666666" points="150.5,-86 31.5,-86 31.5,-67 150.5,-67 150.5,-86"/>
<text text-anchor="middle" x="91" y="-74" font-family="Helvetica,sans-Serif" font-size="10.00">Realm::LocalChannel</text>
</a>
</g>
</g>
<!-- Node2&#45;&gt;Node1 -->
<g id="edge1_Node000001_Node000002" class="edge">
<title>Node2&#45;&gt;Node1</title>
<g id="a_edge1_Node000001_Node000002"><a xlink:title=" ">
<path fill="none" stroke="#63b8ff" d="M91,-56.73C91,-48.09 91,-38 91,-30.02"/>
<polygon fill="#63b8ff" stroke="#63b8ff" points="87.5,-56.98 91,-66.98 94.5,-56.98 87.5,-56.98"/>
</a>
</g>
</g>
<!-- Node3 -->
<g id="Node000003" class="node">
<title>Node3</title>
<g id="a_Node000003"><a xlink:href="classRealm_1_1Channel.html" target="_top" xlink:title=" ">
<polygon fill="white" stroke="#666666" points="94,-152 0,-152 0,-133 94,-133 94,-152"/>
<text text-anchor="middle" x="47" y="-140" font-family="Helvetica,sans-Serif" font-size="10.00">Realm::Channel</text>
</a>
</g>
</g>
<!-- Node3&#45;&gt;Node2 -->
<g id="edge2_Node000002_Node000003" class="edge">
<title>Node3&#45;&gt;Node2</title>
<g id="a_edge2_Node000002_Node000003"><a xlink:title=" ">
<path fill="none" stroke="#63b8ff" d="M58.75,-124.41C67.16,-112.18 78.14,-96.2 84.88,-86.41"/>
<polygon fill="#63b8ff" stroke="#63b8ff" points="55.72,-122.65 52.93,-132.87 61.48,-126.61 55.72,-122.65"/>
</a>
</g>
</g>
<!-- Node4 -->
<g id="Node000004" class="node">
<title>Node4</title>
<g id="a_Node000004"><a xlink:href="classRealm_1_1SimpleXferDesFactory.html" target="_top" xlink:title=" ">
<polygon fill="white" stroke="#666666" points="274,-152 112,-152 112,-133 274,-133 274,-152"/>
<text text-anchor="middle" x="193" y="-140" font-family="Helvetica,sans-Serif" font-size="10.00">Realm::SimpleXferDesFactory</text>
</a>
</g>
</g>
<!-- Node4&#45;&gt;Node2 -->
<g id="edge3_Node000002_Node000004" class="edge">
<title>Node4&#45;&gt;Node2</title>
<g id="a_edge3_Node000002_Node000004"><a xlink:title=" ">
<path fill="none" stroke="#9a32cd" stroke-dasharray="5,2" d="M170.72,-127.52C150.66,-114.93 121.8,-96.82 104.86,-86.2"/>
<polygon fill="#9a32cd" stroke="#9a32cd" points="168.91,-130.52 179.24,-132.87 172.63,-124.59 168.91,-130.52"/>
</a>
</g>
<text text-anchor="middle" x="192" y="-107" font-family="Helvetica,sans-Serif" font-size="10.00" fill="grey"> factory_singleton</text>
</g>
<!-- Node5 -->
<g id="Node000005" class="node">
<title>Node5</title>
<g id="a_Node000005"><a xlink:href="classRealm_1_1XferDesFactory.html" target="_top" xlink:title=" ">
<polygon fill="white" stroke="#666666" points="257,-208 129,-208 129,-189 257,-189 257,-208"/>
<text text-anchor="middle" x="193" y="-196" font-family="Helvetica,sans-Serif" font-size="10.00">Realm::XferDesFactory</text>
</a>
</g>
</g>
<!-- Node5&#45;&gt;Node4 -->
<g id="edge4_Node000004_Node000005" class="edge">
<title>Node5&#45;&gt;Node4</title>
<g id="a_edge4_Node000004_Node000005"><a xlink:title=" ">
<path fill="none" stroke="#63b8ff" d="M193,-178.3C193,-169.41 193,-159.28 193,-152.25"/>
<polygon fill="#63b8ff" stroke="#63b8ff" points="189.5,-178.58 193,-188.58 196.5,-178.58 189.5,-178.58"/>
</a>
</g>
</g>
</g>
</svg>
