<?xml version="1.0" encoding="UTF-8" standalone="no"?>
<!DOCTYPE svg PUBLIC "-//W3C//DTD SVG 1.1//EN"
 "http://www.w3.org/Graphics/SVG/1.1/DTD/svg11.dtd">
<!-- Generated by graphviz version 2.43.0 (0)
 -->
<!-- Title: Realm::ExternalHDF5Resource Pages: 1 -->
<svg width="693pt" height="98pt"
 viewBox="0.00 0.00 693.00 97.50" xmlns="http://www.w3.org/2000/svg" xmlns:xlink="http://www.w3.org/1999/xlink">
<g id="graph0" class="graph" transform="scale(1 1) rotate(0) translate(4 93.5)">
<title>Realm::ExternalHDF5Resource</title>
<!-- Node1 -->
<g id="Node000001" class="node">
<title>Node1</title>
<g id="a_Node000001"><a xlink:title=" ">
<polygon fill="#999999" stroke="#666666" points="685,-62.5 518,-62.5 518,-43.5 685,-43.5 685,-62.5"/>
<text text-anchor="middle" x="601.5" y="-50.5" font-family="Helvetica,sans-Serif" font-size="10.00">Realm::ExternalHDF5Resource</text>
</a>
</g>
</g>
<!-- Node2 -->
<g id="Node000002" class="node">
<title>Node2</title>
<g id="a_Node000002"><a xlink:href="classRealm_1_1ExternalInstanceResource.html" target="_top" xlink:title=" ">
<polygon fill="white" stroke="#666666" points="392,-89.5 211,-89.5 211,-70.5 392,-70.5 392,-89.5"/>
<text text-anchor="middle" x="301.5" y="-77.5" font-family="Helvetica,sans-Serif" font-size="10.00">Realm::ExternalInstanceResource</text>
</a>
</g>
</g>
<!-- Node2&#45;&gt;Node1 -->
<g id="edge1_Node000001_Node000002" class="edge">
<title>Node2&#45;&gt;Node1</title>
<g id="a_edge1_Node000001_Node000002"><a xlink:title=" ">
<path fill="none" stroke="#63b8ff" d="M402.75,-70.92C440.21,-67.52 482.3,-63.71 517.99,-60.48"/>
<polygon fill="#63b8ff" stroke="#63b8ff" points="401.96,-67.47 392.31,-71.86 402.59,-74.45 401.96,-67.47"/>
</a>
</g>
</g>
<!-- Node3 -->
<g id="Node000003" class="node">
<title>Node3</title>
<g id="a_Node000003"><a xlink:href="classRealm_1_1Serialization_1_1PolymorphicSerdezSubclass.html" target="_top" xlink:title=" ">
<polygon fill="white" stroke="#666666" points="399,-52 204,-52 204,0 399,0 399,-52"/>
<text text-anchor="start" x="212" y="-40" font-family="Helvetica,sans-Serif" font-size="10.00">Realm::Serialization</text>
<text text-anchor="start" x="212" y="-29" font-family="Helvetica,sans-Serif" font-size="10.00">::PolymorphicSerdezSubclass</text>
<text text-anchor="start" x="212" y="-18" font-family="Helvetica,sans-Serif" font-size="10.00">&lt; Realm::ExternalInstanceResource,</text>
<text text-anchor="middle" x="301.5" y="-7" font-family="Helvetica,sans-Serif" font-size="10.00"> Realm::ExternalHDF5Resource &gt;</text>
</a>
</g>
</g>
<!-- Node3&#45;&gt;Node1 -->
<g id="edge2_Node000001_Node000003" class="edge">
<title>Node3&#45;&gt;Node1</title>
<g id="a_edge2_Node000001_Node000003"><a xlink:title=" ">
<path fill="none" stroke="#9a32cd" stroke-dasharray="5,2" d="M409.22,-35.67C444.92,-38.9 484.14,-42.46 517.73,-45.5"/>
<polygon fill="#9a32cd" stroke="#9a32cd" points="409.53,-32.18 399.25,-34.77 408.9,-39.15 409.53,-32.18"/>
</a>
</g>
<text text-anchor="middle" x="458.5" y="-47" font-family="Helvetica,sans-Serif" font-size="10.00" fill="grey"> serdez_subclass</text>
</g>
<!-- Node4 -->
<g id="Node000004" class="node">
<title>Node4</title>
<g id="a_Node000004"><a xlink:href="classRealm_1_1Serialization_1_1PolymorphicSerdezIntfc.html" target="_top" xlink:title=" ">
<polygon fill="white" stroke="#666666" points="167,-41 0,-41 0,-11 167,-11 167,-41"/>
<text text-anchor="start" x="8" y="-29" font-family="Helvetica,sans-Serif" font-size="10.00">Realm::Serialization</text>
<text text-anchor="middle" x="83.5" y="-18" font-family="Helvetica,sans-Serif" font-size="10.00">::PolymorphicSerdezIntfc&lt; T &gt;</text>
</a>
</g>
</g>
<!-- Node4&#45;&gt;Node3 -->
<g id="edge3_Node000003_Node000004" class="edge">
<title>Node4&#45;&gt;Node3</title>
<g id="a_edge3_Node000003_Node000004"><a xlink:title=" ">
<path fill="none" stroke="#63b8ff" d="M177.33,-26C186.12,-26 195.04,-26 203.87,-26"/>
<polygon fill="#63b8ff" stroke="#63b8ff" points="177.08,-22.5 167.08,-26 177.08,-29.5 177.08,-22.5"/>
</a>
</g>
</g>
</g>
</svg>
