<?xml version="1.0" encoding="UTF-8" standalone="no"?>
<!DOCTYPE svg PUBLIC "-//W3C//DTD SVG 1.1//EN"
 "http://www.w3.org/Graphics/SVG/1.1/DTD/svg11.dtd">
<!-- Generated by graphviz version 2.43.0 (0)
 -->
<!-- Title: Realm::AsyncFileIOContext Pages: 1 -->
<svg width="1010pt" height="411pt"
 viewBox="0.00 0.00 1010.00 410.63" xmlns="http://www.w3.org/2000/svg" xmlns:xlink="http://www.w3.org/1999/xlink">
<g id="graph0" class="graph" transform="scale(1 1) rotate(0) translate(4 406.63)">
<title>Realm::AsyncFileIOContext</title>
<!-- Node1 -->
<g id="Node000001" class="node">
<title>Node1</title>
<g id="a_Node000001"><a xlink:title=" ">
<polygon fill="#999999" stroke="#666666" points="987,-374.33 838,-374.33 838,-355.33 987,-355.33 987,-374.33"/>
<text text-anchor="middle" x="912.5" y="-362.33" font-family="Helvetica,sans-Serif" font-size="10.00">Realm::AsyncFileIOContext</text>
</a>
</g>
</g>
<!-- Node2 -->
<g id="Node000002" class="node">
<title>Node2</title>
<g id="a_Node000002"><a xlink:href="classRealm_1_1BackgroundWorkItem.html" target="_top" xlink:title=" ">
<polygon fill="white" stroke="#666666" points="654,-395.33 495,-395.33 495,-376.33 654,-376.33 654,-395.33"/>
<text text-anchor="middle" x="574.5" y="-383.33" font-family="Helvetica,sans-Serif" font-size="10.00">Realm::BackgroundWorkItem</text>
</a>
</g>
</g>
<!-- Node2&#45;&gt;Node1 -->
<g id="edge1_Node000001_Node000002" class="edge">
<title>Node2&#45;&gt;Node1</title>
<g id="a_edge1_Node000001_Node000002"><a xlink:title=" ">
<path fill="none" stroke="#63b8ff" d="M643.94,-396.6C689.75,-402.05 751.27,-405.96 805,-397.83 834.28,-393.4 866.6,-382.48 887.87,-374.4"/>
<polygon fill="#63b8ff" stroke="#63b8ff" points="644.18,-393.1 633.83,-395.34 643.32,-400.05 644.18,-393.1"/>
</a>
</g>
</g>
<!-- Node3 -->
<g id="Node000003" class="node">
<title>Node3</title>
<g id="a_Node000003"><a xlink:href="classRealm_1_1BackgroundWorkManager.html" target="_top" xlink:title=" ">
<polygon fill="white" stroke="#666666" points="1002,-203.33 823,-203.33 823,-184.33 1002,-184.33 1002,-203.33"/>
<text text-anchor="middle" x="912.5" y="-191.33" font-family="Helvetica,sans-Serif" font-size="10.00">Realm::BackgroundWorkManager</text>
</a>
</g>
</g>
<!-- Node2&#45;&gt;Node3 -->
<g id="edge12_Node000003_Node000002" class="edge">
<title>Node2&#45;&gt;Node3</title>
<g id="a_edge12_Node000003_Node000002"><a xlink:title=" ">
<path fill="none" stroke="#9a32cd" stroke-dasharray="5,2" d="M664.2,-385.29C718.49,-383.45 781.84,-378.14 805,-363.83 837,-344.06 890.82,-236.63 906.86,-203.54"/>
<polygon fill="#9a32cd" stroke="#9a32cd" points="664.07,-381.79 654.18,-385.59 664.28,-388.79 664.07,-381.79"/>
</a>
</g>
<text text-anchor="middle" x="743.5" y="-386.83" font-family="Helvetica,sans-Serif" font-size="10.00" fill="grey"> work_items</text>
</g>
<!-- Node3&#45;&gt;Node2 -->
<g id="edge2_Node000002_Node000003" class="edge">
<title>Node3&#45;&gt;Node2</title>
<g id="a_edge2_Node000002_Node000003"><a xlink:title=" ">
<path fill="none" stroke="#9a32cd" stroke-dasharray="5,2" d="M902.43,-212.73C886.95,-242.79 852.44,-301.02 805,-329.83 757.46,-358.69 735.98,-339.47 682,-352.83 654.94,-359.53 624.63,-369.13 603.28,-376.25"/>
<polygon fill="#9a32cd" stroke="#9a32cd" points="905.6,-214.21 906.94,-203.7 899.34,-211.08 905.6,-214.21"/>
</a>
</g>
<text text-anchor="middle" x="743.5" y="-355.83" font-family="Helvetica,sans-Serif" font-size="10.00" fill="grey"> manager</text>
</g>
<!-- Node4 -->
<g id="Node000004" class="node">
<title>Node4</title>
<g id="a_Node000004"><a xlink:href="structRealm_1_1BackgroundWorkManager_1_1Config.html" target="_top" xlink:title=" ">
<polygon fill="white" stroke="#666666" points="664,-275.83 485,-275.83 485,-245.83 664,-245.83 664,-275.83"/>
<text text-anchor="start" x="493" y="-263.83" font-family="Helvetica,sans-Serif" font-size="10.00">Realm::BackgroundWorkManager</text>
<text text-anchor="middle" x="574.5" y="-252.83" font-family="Helvetica,sans-Serif" font-size="10.00">::Config</text>
</a>
</g>
</g>
<!-- Node4&#45;&gt;Node3 -->
<g id="edge3_Node000003_Node000004" class="edge">
<title>Node4&#45;&gt;Node3</title>
<g id="a_edge3_Node000003_Node000004"><a xlink:title=" ">
<path fill="none" stroke="#9a32cd" stroke-dasharray="5,2" d="M674.08,-250.3C714.88,-245.01 762.51,-237.6 805,-227.83 833,-221.39 864.22,-211.04 885.58,-203.44"/>
<polygon fill="#9a32cd" stroke="#9a32cd" points="673.61,-246.84 664.14,-251.57 674.5,-253.78 673.61,-246.84"/>
</a>
</g>
<text text-anchor="middle" x="743.5" y="-250.83" font-family="Helvetica,sans-Serif" font-size="10.00" fill="grey"> cfg</text>
</g>
<!-- Node5 -->
<g id="Node000005" class="node">
<title>Node5</title>
<g id="a_Node000005"><a xlink:href="classRealm_1_1UnfairMutex.html" target="_top" xlink:title=" ">
<polygon fill="white" stroke="#666666" points="632,-313.33 517,-313.33 517,-294.33 632,-294.33 632,-313.33"/>
<text text-anchor="middle" x="574.5" y="-301.33" font-family="Helvetica,sans-Serif" font-size="10.00">Realm::UnfairMutex</text>
</a>
</g>
</g>
<!-- Node5&#45;&gt;Node1 -->
<g id="edge17_Node000001_Node000005" class="edge">
<title>Node5&#45;&gt;Node1</title>
<g id="a_edge17_Node000001_Node000005"><a xlink:title=" ">
<path fill="none" stroke="#9a32cd" stroke-dasharray="5,2" d="M642.63,-302.22C688.87,-302.57 751.41,-305.91 805,-318.83 838.09,-326.8 873.9,-344.3 894.43,-355.27"/>
<polygon fill="#9a32cd" stroke="#9a32cd" points="642.44,-298.72 632.43,-302.19 642.41,-305.72 642.44,-298.72"/>
</a>
</g>
<text text-anchor="middle" x="743.5" y="-321.83" font-family="Helvetica,sans-Serif" font-size="10.00" fill="grey"> mutex</text>
</g>
<!-- Node5&#45;&gt;Node3 -->
<g id="edge4_Node000003_Node000005" class="edge">
<title>Node5&#45;&gt;Node3</title>
<g id="a_edge4_Node000003_Node000005"><a xlink:title=" ">
<path fill="none" stroke="#9a32cd" stroke-dasharray="5,2" d="M642.2,-292.97C704.46,-282.61 789.96,-267.74 805,-261.83 842.56,-247.06 881.15,-218.39 899.88,-203.44"/>
<polygon fill="#9a32cd" stroke="#9a32cd" points="641.33,-289.56 632.04,-294.65 642.48,-296.47 641.33,-289.56"/>
</a>
</g>
<text text-anchor="middle" x="743.5" y="-287.83" font-family="Helvetica,sans-Serif" font-size="10.00" fill="grey"> mutex</text>
</g>
<!-- Node6 -->
<g id="Node000006" class="node">
<title>Node6</title>
<g id="a_Node000006"><a xlink:href="classRealm_1_1noncopyable.html" target="_top" xlink:title=" ">
<polygon fill="white" stroke="#666666" points="396,-313.33 280,-313.33 280,-294.33 396,-294.33 396,-313.33"/>
<text text-anchor="middle" x="338" y="-301.33" font-family="Helvetica,sans-Serif" font-size="10.00">Realm::noncopyable</text>
</a>
</g>
</g>
<!-- Node6&#45;&gt;Node5 -->
<g id="edge5_Node000005_Node000006" class="edge">
<title>Node6&#45;&gt;Node5</title>
<g id="a_edge5_Node000005_Node000006"><a xlink:title=" ">
<path fill="none" stroke="#63b8ff" d="M406.21,-303.83C441.26,-303.83 483.65,-303.83 516.99,-303.83"/>
<polygon fill="#63b8ff" stroke="#63b8ff" points="406.07,-300.33 396.07,-303.83 406.07,-307.33 406.07,-300.33"/>
</a>
</g>
</g>
<!-- Node7 -->
<g id="Node000007" class="node">
<title>Node7</title>
<g id="a_Node000007"><a xlink:href="classRealm_1_1atomic.html" target="_top" xlink:title=" ">
<polygon fill="white" stroke="#666666" points="413,-249.33 263,-249.33 263,-230.33 413,-230.33 413,-249.33"/>
<text text-anchor="middle" x="338" y="-237.33" font-family="Helvetica,sans-Serif" font-size="10.00">Realm::atomic&lt; uint32_t &gt;</text>
</a>
</g>
</g>
<!-- Node7&#45;&gt;Node3 -->
<g id="edge13_Node000003_Node000007" class="edge">
<title>Node7&#45;&gt;Node3</title>
<g id="a_edge13_Node000003_Node000007"><a xlink:title=" ">
<path fill="none" stroke="#9a32cd" stroke-dasharray="5,2" d="M423.35,-231.44C443.54,-229.52 465.03,-227.54 485,-225.83 601.71,-215.86 736.53,-206.02 822.83,-199.94"/>
<polygon fill="#9a32cd" stroke="#9a32cd" points="422.87,-227.97 413.25,-232.41 423.54,-234.94 422.87,-227.97"/>
</a>
</g>
<text text-anchor="middle" x="574.5" y="-228.83" font-family="Helvetica,sans-Serif" font-size="10.00" fill="grey"> worker_state</text>
</g>
<!-- Node7&#45;&gt;Node5 -->
<g id="edge6_Node000005_Node000007" class="edge">
<title>Node7&#45;&gt;Node5</title>
<g id="a_edge6_Node000005_Node000007"><a xlink:title=" ">
<path fill="none" stroke="#9a32cd" stroke-dasharray="5,2" d="M377.15,-252.59C406.46,-262.15 448.04,-275.19 485,-284.83 497.92,-288.2 512.02,-291.43 525.09,-294.24"/>
<polygon fill="#9a32cd" stroke="#9a32cd" points="377.92,-249.16 367.32,-249.37 375.73,-255.81 377.92,-249.16"/>
</a>
</g>
<text text-anchor="middle" x="449" y="-281.83" font-family="Helvetica,sans-Serif" font-size="10.00" fill="grey"> state</text>
</g>
<!-- Node8 -->
<g id="Node000008" class="node">
<title>Node8</title>
<g id="a_Node000008"><a xlink:href="classRealm_1_1DoorbellList.html" target="_top" xlink:title=" ">
<polygon fill="white" stroke="#666666" points="394.5,-201.33 281.5,-201.33 281.5,-182.33 394.5,-182.33 394.5,-201.33"/>
<text text-anchor="middle" x="338" y="-189.33" font-family="Helvetica,sans-Serif" font-size="10.00">Realm::DoorbellList</text>
</a>
</g>
</g>
<!-- Node8&#45;&gt;Node3 -->
<g id="edge16_Node000003_Node000008" class="edge">
<title>Node8&#45;&gt;Node3</title>
<g id="a_edge16_Node000003_Node000008"><a xlink:title=" ">
<path fill="none" stroke="#9a32cd" stroke-dasharray="5,2" d="M404.91,-187.45C429.97,-185.99 458.79,-184.55 485,-183.83 601.79,-180.63 736.6,-185.17 822.87,-189.13"/>
<polygon fill="#9a32cd" stroke="#9a32cd" points="404.55,-183.97 394.78,-188.06 404.97,-190.95 404.55,-183.97"/>
</a>
</g>
<text text-anchor="middle" x="574.5" y="-186.83" font-family="Helvetica,sans-Serif" font-size="10.00" fill="grey"> db_list</text>
</g>
<!-- Node8&#45;&gt;Node5 -->
<g id="edge7_Node000005_Node000008" class="edge">
<title>Node8&#45;&gt;Node5</title>
<g id="a_edge7_Node000005_Node000008"><a xlink:title=" ">
<path fill="none" stroke="#9a32cd" stroke-dasharray="5,2" d="M374.96,-205.04C387.22,-209.9 400.89,-215.72 413,-221.83 438.12,-234.49 447.19,-234.86 467,-254.83 477.95,-265.87 472.35,-275.78 485,-284.83 494.33,-291.5 505.54,-295.92 516.79,-298.81"/>
<polygon fill="#9a32cd" stroke="#9a32cd" points="376.08,-201.72 365.49,-201.36 373.54,-208.25 376.08,-201.72"/>
</a>
</g>
<text text-anchor="middle" x="449" y="-257.83" font-family="Helvetica,sans-Serif" font-size="10.00" fill="grey"> db_list</text>
</g>
<!-- Node9 -->
<g id="Node000009" class="node">
<title>Node9</title>
<g id="a_Node000009"><a xlink:href="classRealm_1_1atomic.html" target="_top" xlink:title=" ">
<polygon fill="white" stroke="#666666" points="152,-201.33 0,-201.33 0,-182.33 152,-182.33 152,-201.33"/>
<text text-anchor="middle" x="76" y="-189.33" font-family="Helvetica,sans-Serif" font-size="10.00">Realm::atomic&lt; uintptr_t &gt;</text>
</a>
</g>
</g>
<!-- Node9&#45;&gt;Node8 -->
<g id="edge8_Node000008_Node000009" class="edge">
<title>Node9&#45;&gt;Node8</title>
<g id="a_edge8_Node000008_Node000009"><a xlink:title=" ">
<path fill="none" stroke="#9a32cd" stroke-dasharray="5,2" d="M162.52,-191.83C201.61,-191.83 246.79,-191.83 281.38,-191.83"/>
<polygon fill="#9a32cd" stroke="#9a32cd" points="162.2,-188.33 152.2,-191.83 162.2,-195.33 162.2,-188.33"/>
</a>
</g>
<text text-anchor="middle" x="207.5" y="-194.83" font-family="Helvetica,sans-Serif" font-size="10.00" fill="grey"> head_or_count</text>
</g>
<!-- Node10 -->
<g id="Node000010" class="node">
<title>Node10</title>
<g id="a_Node000010"><a xlink:href="classRealm_1_1atomic.html" target="_top" xlink:title=" ">
<polygon fill="white" stroke="#666666" points="652,-133.33 497,-133.33 497,-114.33 652,-114.33 652,-133.33"/>
<text text-anchor="middle" x="574.5" y="-121.33" font-family="Helvetica,sans-Serif" font-size="10.00">Realm::atomic&lt; unsigned &gt;</text>
</a>
</g>
</g>
<!-- Node10&#45;&gt;Node3 -->
<g id="edge9_Node000003_Node000010" class="edge">
<title>Node10&#45;&gt;Node3</title>
<g id="a_edge9_Node000003_Node000010"><a xlink:title=" ">
<path fill="none" stroke="#9a32cd" stroke-dasharray="5,2" d="M662.35,-124.85C705.8,-127.09 758.84,-132.49 805,-144.83 838.62,-153.82 874.85,-172.66 895.19,-184.18"/>
<polygon fill="#9a32cd" stroke="#9a32cd" points="662.24,-121.34 652.09,-124.36 661.92,-128.33 662.24,-121.34"/>
</a>
</g>
<text text-anchor="middle" x="743.5" y="-147.83" font-family="Helvetica,sans-Serif" font-size="10.00" fill="grey"> num_work_items</text>
</g>
<!-- Node11 -->
<g id="Node000011" class="node">
<title>Node11</title>
<g id="a_Node000011"><a xlink:href="classRealm_1_1atomic.html" target="_top" xlink:title=" ">
<polygon fill="white" stroke="#666666" points="649.5,-96.33 499.5,-96.33 499.5,-77.33 649.5,-77.33 649.5,-96.33"/>
<text text-anchor="middle" x="574.5" y="-84.33" font-family="Helvetica,sans-Serif" font-size="10.00">Realm::atomic&lt; BitMask &gt;</text>
</a>
</g>
</g>
<!-- Node11&#45;&gt;Node3 -->
<g id="edge10_Node000003_Node000011" class="edge">
<title>Node11&#45;&gt;Node3</title>
<g id="a_edge10_Node000003_Node000011"><a xlink:title=" ">
<path fill="none" stroke="#9a32cd" stroke-dasharray="5,2" d="M659.79,-84.61C704.39,-86.13 759.24,-92.39 805,-110.83 846.96,-127.74 886.19,-166.33 902.95,-184.3"/>
<polygon fill="#9a32cd" stroke="#9a32cd" points="659.66,-81.11 649.57,-84.34 659.47,-88.1 659.66,-81.11"/>
</a>
</g>
<text text-anchor="middle" x="743.5" y="-113.83" font-family="Helvetica,sans-Serif" font-size="10.00" fill="grey"> active_work_item_mask</text>
</g>
<!-- Node12 -->
<g id="Node000012" class="node">
<title>Node12</title>
<g id="a_Node000012"><a xlink:href="classRealm_1_1atomic.html" target="_top" xlink:title=" ">
<polygon fill="white" stroke="#666666" points="636,-59.33 513,-59.33 513,-40.33 636,-40.33 636,-59.33"/>
<text text-anchor="middle" x="574.5" y="-47.33" font-family="Helvetica,sans-Serif" font-size="10.00">Realm::atomic&lt; int &gt;</text>
</a>
</g>
</g>
<!-- Node12&#45;&gt;Node3 -->
<g id="edge11_Node000003_Node000012" class="edge">
<title>Node12&#45;&gt;Node3</title>
<g id="a_edge11_Node000003_Node000012"><a xlink:title=" ">
<path fill="none" stroke="#9a32cd" stroke-dasharray="5,2" d="M646.62,-42.56C693.99,-40.85 756.27,-44.83 805,-69.83 856.76,-96.39 893.92,-159.93 906.67,-184.19"/>
<polygon fill="#9a32cd" stroke="#9a32cd" points="646.27,-39.07 636.44,-43.02 646.59,-46.07 646.27,-39.07"/>
</a>
</g>
<text text-anchor="middle" x="743.5" y="-72.83" font-family="Helvetica,sans-Serif" font-size="10.00" fill="grey"> work_item_usecounts</text>
</g>
<!-- Node13 -->
<g id="Node000013" class="node">
<title>Node13</title>
<g id="a_Node000013"><a xlink:href="classRealm_1_1DelegatingMutex.html" target="_top" xlink:title=" ">
<polygon fill="white" stroke="#666666" points="643.5,-22.33 505.5,-22.33 505.5,-3.33 643.5,-3.33 643.5,-22.33"/>
<text text-anchor="middle" x="574.5" y="-10.33" font-family="Helvetica,sans-Serif" font-size="10.00">Realm::DelegatingMutex</text>
</a>
</g>
</g>
<!-- Node13&#45;&gt;Node3 -->
<g id="edge14_Node000003_Node000013" class="edge">
<title>Node13&#45;&gt;Node3</title>
<g id="a_edge14_Node000003_Node000013"><a xlink:title=" ">
<path fill="none" stroke="#9a32cd" stroke-dasharray="5,2" d="M639.69,-2.23C688.4,2.48 755.23,1.52 805,-27.83 867.53,-64.7 899.53,-154.35 908.68,-184.07"/>
<polygon fill="#9a32cd" stroke="#9a32cd" points="639.16,1.23 629.59,-3.31 639.9,-5.73 639.16,1.23"/>
</a>
</g>
<text text-anchor="middle" x="743.5" y="-30.83" font-family="Helvetica,sans-Serif" font-size="10.00" fill="grey"> db_mutex</text>
</g>
<!-- Node14 -->
<g id="Node000014" class="node">
<title>Node14</title>
<g id="a_Node000014"><a xlink:href="classRealm_1_1atomic.html" target="_top" xlink:title=" ">
<polygon fill="white" stroke="#666666" points="413,-22.33 263,-22.33 263,-3.33 413,-3.33 413,-22.33"/>
<text text-anchor="middle" x="338" y="-10.33" font-family="Helvetica,sans-Serif" font-size="10.00">Realm::atomic&lt; uint64_t &gt;</text>
</a>
</g>
</g>
<!-- Node14&#45;&gt;Node13 -->
<g id="edge15_Node000013_Node000014" class="edge">
<title>Node14&#45;&gt;Node13</title>
<g id="a_edge15_Node000013_Node000014"><a xlink:title=" ">
<path fill="none" stroke="#9a32cd" stroke-dasharray="5,2" d="M423.38,-12.83C450.3,-12.83 479.74,-12.83 505.36,-12.83"/>
<polygon fill="#9a32cd" stroke="#9a32cd" points="423.2,-9.33 413.2,-12.83 423.2,-16.33 423.2,-9.33"/>
</a>
</g>
<text text-anchor="middle" x="449" y="-15.83" font-family="Helvetica,sans-Serif" font-size="10.00" fill="grey"> state</text>
</g>
</g>
</svg>
