<?xml version="1.0" encoding="UTF-8" standalone="no"?>
<!DOCTYPE svg PUBLIC "-//W3C//DTD SVG 1.1//EN"
 "http://www.w3.org/Graphics/SVG/1.1/DTD/svg11.dtd">
<!-- Generated by graphviz version 2.43.0 (0)
 -->
<!-- Title: Realm::TransferDesc Pages: 1 -->
<svg width="871pt" height="272pt"
 viewBox="0.00 0.00 871.00 271.50" xmlns="http://www.w3.org/2000/svg" xmlns:xlink="http://www.w3.org/1999/xlink">
<g id="graph0" class="graph" transform="scale(1 1) rotate(0) translate(4 267.5)">
<title>Realm::TransferDesc</title>
<!-- Node1 -->
<g id="Node000001" class="node">
<title>Node1</title>
<g id="a_Node000001"><a xlink:title=" ">
<polygon fill="#999999" stroke="#666666" points="863,-152.5 746,-152.5 746,-133.5 863,-133.5 863,-152.5"/>
<text text-anchor="middle" x="804.5" y="-140.5" font-family="Helvetica,sans-Serif" font-size="10.00">Realm::TransferDesc</text>
</a>
</g>
</g>
<!-- Node2 -->
<g id="Node000002" class="node">
<title>Node2</title>
<g id="a_Node000002"><a xlink:href="classRealm_1_1atomic.html" target="_top" xlink:title=" ">
<polygon fill="white" stroke="#666666" points="630,-263.5 507,-263.5 507,-244.5 630,-244.5 630,-263.5"/>
<text text-anchor="middle" x="568.5" y="-251.5" font-family="Helvetica,sans-Serif" font-size="10.00">Realm::atomic&lt; int &gt;</text>
</a>
</g>
</g>
<!-- Node2&#45;&gt;Node1 -->
<g id="edge1_Node000001_Node000002" class="edge">
<title>Node2&#45;&gt;Node1</title>
<g id="a_edge1_Node000001_Node000002"><a xlink:title=" ">
<path fill="none" stroke="#9a32cd" stroke-dasharray="5,2" d="M640.28,-243.56C668.85,-237.28 701.31,-227.39 728,-212 756,-195.85 782.34,-167.79 795.24,-152.92"/>
<polygon fill="#9a32cd" stroke="#9a32cd" points="639.42,-240.16 630.35,-245.64 640.86,-247.02 639.42,-240.16"/>
</a>
</g>
<text text-anchor="middle" x="699" y="-238" font-family="Helvetica,sans-Serif" font-size="10.00" fill="grey"> refcount</text>
</g>
<!-- Node3 -->
<g id="Node000003" class="node">
<title>Node3</title>
<g id="a_Node000003"><a xlink:href="classRealm_1_1TransferDomain.html" target="_top" xlink:title=" ">
<polygon fill="white" stroke="#666666" points="634,-226.5 503,-226.5 503,-207.5 634,-207.5 634,-226.5"/>
<text text-anchor="middle" x="568.5" y="-214.5" font-family="Helvetica,sans-Serif" font-size="10.00">Realm::TransferDomain</text>
</a>
</g>
</g>
<!-- Node3&#45;&gt;Node1 -->
<g id="edge2_Node000001_Node000003" class="edge">
<title>Node3&#45;&gt;Node1</title>
<g id="a_edge2_Node000001_Node000003"><a xlink:title=" ">
<path fill="none" stroke="#9a32cd" stroke-dasharray="5,2" d="M637.23,-205.53C665.73,-199.71 698.95,-191.59 728,-181 749.23,-173.26 772.24,-161.08 787.21,-152.61"/>
<polygon fill="#9a32cd" stroke="#9a32cd" points="636.48,-202.11 627.36,-207.5 637.85,-208.98 636.48,-202.11"/>
</a>
</g>
<text text-anchor="middle" x="699" y="-200" font-family="Helvetica,sans-Serif" font-size="10.00" fill="grey"> domain</text>
</g>
<!-- Node4 -->
<g id="Node000004" class="node">
<title>Node4</title>
<g id="a_Node000004"><a xlink:href="classRealm_1_1ProfilingRequestSet.html" target="_top" xlink:title=" ">
<polygon fill="white" stroke="#666666" points="643,-189.5 494,-189.5 494,-170.5 643,-170.5 643,-189.5"/>
<text text-anchor="middle" x="568.5" y="-177.5" font-family="Helvetica,sans-Serif" font-size="10.00">Realm::ProfilingRequestSet</text>
</a>
</g>
</g>
<!-- Node4&#45;&gt;Node1 -->
<g id="edge3_Node000001_Node000004" class="edge">
<title>Node4&#45;&gt;Node1</title>
<g id="a_edge3_Node000001_Node000004"><a xlink:title=" ">
<path fill="none" stroke="#9a32cd" stroke-dasharray="5,2" d="M653.24,-169.31C677.41,-165.97 703.79,-162.08 728,-158 737.62,-156.38 747.89,-154.46 757.66,-152.55"/>
<polygon fill="#9a32cd" stroke="#9a32cd" points="652.46,-165.88 643.02,-170.7 653.41,-172.81 652.46,-165.88"/>
</a>
</g>
<text text-anchor="middle" x="699" y="-169" font-family="Helvetica,sans-Serif" font-size="10.00" fill="grey"> prs</text>
</g>
<!-- Node5 -->
<g id="Node000005" class="node">
<title>Node5</title>
<g id="a_Node000005"><a xlink:href="classRealm_1_1UnfairMutex.html" target="_top" xlink:title=" ">
<polygon fill="white" stroke="#666666" points="626,-152.5 511,-152.5 511,-133.5 626,-133.5 626,-152.5"/>
<text text-anchor="middle" x="568.5" y="-140.5" font-family="Helvetica,sans-Serif" font-size="10.00">Realm::UnfairMutex</text>
</a>
</g>
</g>
<!-- Node5&#45;&gt;Node1 -->
<g id="edge4_Node000001_Node000005" class="edge">
<title>Node5&#45;&gt;Node1</title>
<g id="a_edge4_Node000001_Node000005"><a xlink:title=" ">
<path fill="none" stroke="#9a32cd" stroke-dasharray="5,2" d="M636.16,-143C670.74,-143 712.56,-143 745.75,-143"/>
<polygon fill="#9a32cd" stroke="#9a32cd" points="636.14,-139.5 626.14,-143 636.14,-146.5 636.14,-139.5"/>
</a>
</g>
<text text-anchor="middle" x="699" y="-146" font-family="Helvetica,sans-Serif" font-size="10.00" fill="grey"> mutex</text>
</g>
<!-- Node6 -->
<g id="Node000006" class="node">
<title>Node6</title>
<g id="a_Node000006"><a xlink:href="classRealm_1_1noncopyable.html" target="_top" xlink:title=" ">
<polygon fill="white" stroke="#666666" points="396,-195.5 280,-195.5 280,-176.5 396,-176.5 396,-195.5"/>
<text text-anchor="middle" x="338" y="-183.5" font-family="Helvetica,sans-Serif" font-size="10.00">Realm::noncopyable</text>
</a>
</g>
</g>
<!-- Node6&#45;&gt;Node5 -->
<g id="edge5_Node000005_Node000006" class="edge">
<title>Node6&#45;&gt;Node5</title>
<g id="a_edge5_Node000005_Node000006"><a xlink:title=" ">
<path fill="none" stroke="#63b8ff" d="M399.76,-174.57C436.33,-167.68 482.35,-159.02 516.93,-152.52"/>
<polygon fill="#63b8ff" stroke="#63b8ff" points="398.89,-171.17 389.71,-176.46 400.19,-178.05 398.89,-171.17"/>
</a>
</g>
</g>
<!-- Node7 -->
<g id="Node000007" class="node">
<title>Node7</title>
<g id="a_Node000007"><a xlink:href="classRealm_1_1atomic.html" target="_top" xlink:title=" ">
<polygon fill="white" stroke="#666666" points="413,-158.5 263,-158.5 263,-139.5 413,-139.5 413,-158.5"/>
<text text-anchor="middle" x="338" y="-146.5" font-family="Helvetica,sans-Serif" font-size="10.00">Realm::atomic&lt; uint32_t &gt;</text>
</a>
</g>
</g>
<!-- Node7&#45;&gt;Node5 -->
<g id="edge6_Node000005_Node000007" class="edge">
<title>Node7&#45;&gt;Node5</title>
<g id="a_edge6_Node000005_Node000007"><a xlink:title=" ">
<path fill="none" stroke="#9a32cd" stroke-dasharray="5,2" d="M423.35,-146.79C452.45,-146.02 484.33,-145.18 510.69,-144.49"/>
<polygon fill="#9a32cd" stroke="#9a32cd" points="423.09,-143.29 413.19,-147.05 423.28,-150.29 423.09,-143.29"/>
</a>
</g>
<text text-anchor="middle" x="449" y="-149" font-family="Helvetica,sans-Serif" font-size="10.00" fill="grey"> state</text>
</g>
<!-- Node8 -->
<g id="Node000008" class="node">
<title>Node8</title>
<g id="a_Node000008"><a xlink:href="classRealm_1_1DoorbellList.html" target="_top" xlink:title=" ">
<polygon fill="white" stroke="#666666" points="394.5,-121.5 281.5,-121.5 281.5,-102.5 394.5,-102.5 394.5,-121.5"/>
<text text-anchor="middle" x="338" y="-109.5" font-family="Helvetica,sans-Serif" font-size="10.00">Realm::DoorbellList</text>
</a>
</g>
</g>
<!-- Node8&#45;&gt;Node5 -->
<g id="edge7_Node000005_Node000008" class="edge">
<title>Node8&#45;&gt;Node5</title>
<g id="a_edge7_Node000005_Node000008"><a xlink:title=" ">
<path fill="none" stroke="#9a32cd" stroke-dasharray="5,2" d="M404.78,-120.92C438.32,-125.47 478.7,-130.95 510.85,-135.31"/>
<polygon fill="#9a32cd" stroke="#9a32cd" points="404.98,-117.42 394.61,-119.54 404.04,-124.36 404.98,-117.42"/>
</a>
</g>
<text text-anchor="middle" x="449" y="-132" font-family="Helvetica,sans-Serif" font-size="10.00" fill="grey"> db_list</text>
</g>
<!-- Node9 -->
<g id="Node000009" class="node">
<title>Node9</title>
<g id="a_Node000009"><a xlink:href="classRealm_1_1atomic.html" target="_top" xlink:title=" ">
<polygon fill="white" stroke="#666666" points="152,-121.5 0,-121.5 0,-102.5 152,-102.5 152,-121.5"/>
<text text-anchor="middle" x="76" y="-109.5" font-family="Helvetica,sans-Serif" font-size="10.00">Realm::atomic&lt; uintptr_t &gt;</text>
</a>
</g>
</g>
<!-- Node9&#45;&gt;Node8 -->
<g id="edge8_Node000008_Node000009" class="edge">
<title>Node9&#45;&gt;Node8</title>
<g id="a_edge8_Node000008_Node000009"><a xlink:title=" ">
<path fill="none" stroke="#9a32cd" stroke-dasharray="5,2" d="M162.52,-112C201.61,-112 246.79,-112 281.38,-112"/>
<polygon fill="#9a32cd" stroke="#9a32cd" points="162.2,-108.5 152.2,-112 162.2,-115.5 162.2,-108.5"/>
</a>
</g>
<text text-anchor="middle" x="207.5" y="-115" font-family="Helvetica,sans-Serif" font-size="10.00" fill="grey"> head_or_count</text>
</g>
<!-- Node10 -->
<g id="Node000010" class="node">
<title>Node10</title>
<g id="a_Node000010"><a xlink:href="structRealm_1_1TransferGraph.html" target="_top" xlink:title=" ">
<polygon fill="white" stroke="#666666" points="629.5,-115.5 507.5,-115.5 507.5,-96.5 629.5,-96.5 629.5,-115.5"/>
<text text-anchor="middle" x="568.5" y="-103.5" font-family="Helvetica,sans-Serif" font-size="10.00">Realm::TransferGraph</text>
</a>
</g>
</g>
<!-- Node10&#45;&gt;Node1 -->
<g id="edge9_Node000001_Node000010" class="edge">
<title>Node10&#45;&gt;Node1</title>
<g id="a_edge9_Node000001_Node000010"><a xlink:title=" ">
<path fill="none" stroke="#9a32cd" stroke-dasharray="5,2" d="M639.78,-114.86C667.35,-118.57 699.21,-123.15 728,-128 737.62,-129.62 747.89,-131.54 757.66,-133.45"/>
<polygon fill="#9a32cd" stroke="#9a32cd" points="640.21,-111.39 629.84,-113.54 639.29,-118.33 640.21,-111.39"/>
</a>
</g>
<text text-anchor="middle" x="699" y="-131" font-family="Helvetica,sans-Serif" font-size="10.00" fill="grey"> graph</text>
</g>
<!-- Node11 -->
<g id="Node000011" class="node">
<title>Node11</title>
<g id="a_Node000011"><a xlink:href="structRealm_1_1ProfilingMeasurements_1_1OperationMemoryUsage.html" target="_top" xlink:title=" ">
<polygon fill="white" stroke="#666666" points="652,-78 485,-78 485,-48 652,-48 652,-78"/>
<text text-anchor="start" x="493" y="-66" font-family="Helvetica,sans-Serif" font-size="10.00">Realm::ProfilingMeasurements</text>
<text text-anchor="middle" x="568.5" y="-55" font-family="Helvetica,sans-Serif" font-size="10.00">::OperationMemoryUsage</text>
</a>
</g>
</g>
<!-- Node11&#45;&gt;Node1 -->
<g id="edge10_Node000001_Node000011" class="edge">
<title>Node11&#45;&gt;Node1</title>
<g id="a_edge10_Node000001_Node000011"><a xlink:title=" ">
<path fill="none" stroke="#9a32cd" stroke-dasharray="5,2" d="M651.38,-80.47C676.34,-86.78 703.62,-94.69 728,-104 749.36,-112.16 772.53,-124.74 787.49,-133.39"/>
<polygon fill="#9a32cd" stroke="#9a32cd" points="652.12,-77.05 641.57,-78.04 650.44,-83.84 652.12,-77.05"/>
</a>
</g>
<text text-anchor="middle" x="699" y="-107" font-family="Helvetica,sans-Serif" font-size="10.00" fill="grey"> prof_usage</text>
</g>
<!-- Node12 -->
<g id="Node000012" class="node">
<title>Node12</title>
<g id="a_Node000012"><a xlink:href="classRealm_1_1Memory.html" target="_top" xlink:title=" ">
<polygon fill="white" stroke="#666666" points="385.5,-55.5 290.5,-55.5 290.5,-36.5 385.5,-36.5 385.5,-55.5"/>
<text text-anchor="middle" x="338" y="-43.5" font-family="Helvetica,sans-Serif" font-size="10.00">Realm::Memory</text>
</a>
</g>
</g>
<!-- Node12&#45;&gt;Node11 -->
<g id="edge11_Node000011_Node000012" class="edge">
<title>Node12&#45;&gt;Node11</title>
<g id="a_edge11_Node000011_Node000012"><a xlink:title=" ">
<path fill="none" stroke="#9a32cd" stroke-dasharray="5,2" d="M395.55,-50.21C422.52,-52.21 455.31,-54.65 484.99,-56.86"/>
<polygon fill="#9a32cd" stroke="#9a32cd" points="395.75,-46.71 385.52,-49.46 395.23,-53.69 395.75,-46.71"/>
</a>
</g>
<text text-anchor="middle" x="449" y="-69" font-family="Helvetica,sans-Serif" font-size="10.00" fill="grey"> source</text>
<text text-anchor="middle" x="449" y="-58" font-family="Helvetica,sans-Serif" font-size="10.00" fill="grey">target</text>
</g>
<!-- Node12&#45;&gt;Node12 -->
<g id="edge12_Node000012_Node000012" class="edge">
<title>Node12&#45;&gt;Node12</title>
<g id="a_edge12_Node000012_Node000012"><a xlink:title=" ">
<path fill="none" stroke="#9a32cd" stroke-dasharray="5,2" d="M317.63,-65.05C318.99,-69.88 325.78,-73.5 338,-73.5 357.55,-73.5 363.2,-64.23 354.95,-55.58"/>
<polygon fill="#9a32cd" stroke="#9a32cd" points="320.95,-66.18 321.05,-55.58 314.36,-63.8 320.95,-66.18"/>
</a>
</g>
<text text-anchor="middle" x="338" y="-76.5" font-family="Helvetica,sans-Serif" font-size="10.00" fill="grey"> NO_MEMORY</text>
</g>
<!-- Node13 -->
<g id="Node000013" class="node">
<title>Node13</title>
<g id="a_Node000013"><a xlink:href="structRealm_1_1ProfilingMeasurements_1_1OperationCopyInfo.html" target="_top" xlink:title=" ">
<polygon fill="white" stroke="#666666" points="652,-30 485,-30 485,0 652,0 652,-30"/>
<text text-anchor="start" x="493" y="-18" font-family="Helvetica,sans-Serif" font-size="10.00">Realm::ProfilingMeasurements</text>
<text text-anchor="middle" x="568.5" y="-7" font-family="Helvetica,sans-Serif" font-size="10.00">::OperationCopyInfo</text>
</a>
</g>
</g>
<!-- Node13&#45;&gt;Node1 -->
<g id="edge13_Node000001_Node000013" class="edge">
<title>Node13&#45;&gt;Node1</title>
<g id="a_edge13_Node000001_Node000013"><a xlink:title=" ">
<path fill="none" stroke="#9a32cd" stroke-dasharray="5,2" d="M643.4,-33.02C671.3,-41.85 702.45,-54.26 728,-71 755.87,-89.27 782.68,-118.47 795.56,-133.45"/>
<polygon fill="#9a32cd" stroke="#9a32cd" points="644.27,-29.63 633.68,-30.05 642.22,-36.32 644.27,-29.63"/>
</a>
</g>
<text text-anchor="middle" x="699" y="-74" font-family="Helvetica,sans-Serif" font-size="10.00" fill="grey"> prof_cpinfo</text>
</g>
</g>
</svg>
