<?xml version="1.0" encoding="UTF-8" standalone="no"?>
<!DOCTYPE svg PUBLIC "-//W3C//DTD SVG 1.1//EN"
 "http://www.w3.org/Graphics/SVG/1.1/DTD/svg11.dtd">
<!-- Generated by graphviz version 2.43.0 (0)
 -->
<!-- Title: Realm::ReservationImpl Pages: 1 -->
<svg width="1613pt" height="297pt"
 viewBox="0.00 0.00 1613.00 296.50" xmlns="http://www.w3.org/2000/svg" xmlns:xlink="http://www.w3.org/1999/xlink">
<g id="graph0" class="graph" transform="scale(1 1) rotate(0) translate(4 292.5)">
<title>Realm::ReservationImpl</title>
<!-- Node1 -->
<g id="Node000001" class="node">
<title>Node1</title>
<g id="a_Node000001"><a xlink:title=" ">
<polygon fill="#999999" stroke="#666666" points="1605,-202.5 1471,-202.5 1471,-183.5 1605,-183.5 1605,-202.5"/>
<text text-anchor="middle" x="1538" y="-190.5" font-family="Helvetica,sans-Serif" font-size="10.00">Realm::ReservationImpl</text>
</a>
</g>
</g>
<!-- Node1&#45;&gt;Node1 -->
<g id="edge18_Node000001_Node000001" class="edge">
<title>Node1&#45;&gt;Node1</title>
<g id="a_edge18_Node000001_Node000001"><a xlink:title=" ">
<path fill="none" stroke="#9a32cd" stroke-dasharray="5,2" d="M1512.33,-211.69C1513.73,-216.7 1522.29,-220.5 1538,-220.5 1562.53,-220.5 1569.62,-211.23 1559.27,-202.58"/>
<polygon fill="#9a32cd" stroke="#9a32cd" points="1515.53,-213.11 1516.73,-202.58 1509.23,-210.06 1515.53,-213.11"/>
</a>
</g>
<text text-anchor="middle" x="1538" y="-234.5" font-family="Helvetica,sans-Serif" font-size="10.00" fill="grey"> first_free</text>
<text text-anchor="middle" x="1538" y="-223.5" font-family="Helvetica,sans-Serif" font-size="10.00" fill="grey">next_free</text>
</g>
<!-- Node2 -->
<g id="Node000002" class="node">
<title>Node2</title>
<g id="a_Node000002"><a xlink:href="classRealm_1_1Reservation.html" target="_top" xlink:title=" ">
<polygon fill="white" stroke="#666666" points="1304.5,-259.5 1191.5,-259.5 1191.5,-240.5 1304.5,-240.5 1304.5,-259.5"/>
<text text-anchor="middle" x="1248" y="-247.5" font-family="Helvetica,sans-Serif" font-size="10.00">Realm::Reservation</text>
</a>
</g>
</g>
<!-- Node2&#45;&gt;Node1 -->
<g id="edge1_Node000001_Node000002" class="edge">
<title>Node2&#45;&gt;Node1</title>
<g id="a_edge1_Node000001_Node000002"><a xlink:title=" ">
<path fill="none" stroke="#9a32cd" stroke-dasharray="5,2" d="M1314.62,-246.01C1354.98,-242.56 1407.5,-236.28 1453,-225 1475.12,-219.52 1499.33,-209.88 1516.05,-202.61"/>
<polygon fill="#9a32cd" stroke="#9a32cd" points="1314.32,-242.52 1304.64,-246.83 1314.89,-249.5 1314.32,-242.52"/>
</a>
</g>
<text text-anchor="middle" x="1399.5" y="-245" font-family="Helvetica,sans-Serif" font-size="10.00" fill="grey"> me</text>
</g>
<!-- Node2&#45;&gt;Node2 -->
<g id="edge2_Node000002_Node000002" class="edge">
<title>Node2&#45;&gt;Node2</title>
<g id="a_edge2_Node000002_Node000002"><a xlink:title=" ">
<path fill="none" stroke="#9a32cd" stroke-dasharray="5,2" d="M1226.52,-269.05C1227.95,-273.88 1235.11,-277.5 1248,-277.5 1268.62,-277.5 1274.58,-268.23 1265.88,-259.58"/>
<polygon fill="#9a32cd" stroke="#9a32cd" points="1229.84,-270.17 1230.12,-259.58 1223.3,-267.69 1229.84,-270.17"/>
</a>
</g>
<text text-anchor="middle" x="1248" y="-280.5" font-family="Helvetica,sans-Serif" font-size="10.00" fill="grey"> NO_RESERVATION</text>
</g>
<!-- Node3 -->
<g id="Node000003" class="node">
<title>Node3</title>
<g id="a_Node000003"><a xlink:href="classRealm_1_1UnfairMutex.html" target="_top" xlink:title=" ">
<polygon fill="white" stroke="#666666" points="600,-196.5 485,-196.5 485,-177.5 600,-177.5 600,-196.5"/>
<text text-anchor="middle" x="542.5" y="-184.5" font-family="Helvetica,sans-Serif" font-size="10.00">Realm::UnfairMutex</text>
</a>
</g>
</g>
<!-- Node3&#45;&gt;Node1 -->
<g id="edge3_Node000001_Node000003" class="edge">
<title>Node3&#45;&gt;Node1</title>
<g id="a_edge3_Node000001_Node000003"><a xlink:title=" ">
<path fill="none" stroke="#9a32cd" stroke-dasharray="5,2" d="M610.37,-197.74C658.29,-204.52 724.46,-212 783,-212 783,-212 783,-212 1249,-212 1325.17,-212 1412.42,-205.3 1470.74,-199.86"/>
<polygon fill="#9a32cd" stroke="#9a32cd" points="610.82,-194.27 600.43,-196.31 609.83,-201.2 610.82,-194.27"/>
</a>
</g>
<text text-anchor="middle" x="1022" y="-226" font-family="Helvetica,sans-Serif" font-size="10.00" fill="grey"> freelist_mutex</text>
<text text-anchor="middle" x="1022" y="-215" font-family="Helvetica,sans-Serif" font-size="10.00" fill="grey">mutex</text>
</g>
<!-- Node10 -->
<g id="Node000010" class="node">
<title>Node10</title>
<g id="a_Node000010"><a xlink:href="classRealm_1_1NodeSetBitmask.html" target="_top" xlink:title=" ">
<polygon fill="white" stroke="#666666" points="852,-179.5 716,-179.5 716,-160.5 852,-160.5 852,-179.5"/>
<text text-anchor="middle" x="784" y="-167.5" font-family="Helvetica,sans-Serif" font-size="10.00">Realm::NodeSetBitmask</text>
</a>
</g>
</g>
<!-- Node3&#45;&gt;Node10 -->
<g id="edge11_Node000010_Node000003" class="edge">
<title>Node3&#45;&gt;Node10</title>
<g id="a_edge11_Node000010_Node000003"><a xlink:title=" ">
<path fill="none" stroke="#9a32cd" stroke-dasharray="5,2" d="M610.65,-182.23C643.43,-179.91 682.77,-177.11 715.58,-174.79"/>
<polygon fill="#9a32cd" stroke="#9a32cd" points="609.99,-178.77 600.26,-182.97 610.48,-185.75 609.99,-178.77"/>
</a>
</g>
<text text-anchor="middle" x="658" y="-184" font-family="Helvetica,sans-Serif" font-size="10.00" fill="grey"> free_list_mutex</text>
</g>
<!-- Node4 -->
<g id="Node000004" class="node">
<title>Node4</title>
<g id="a_Node000004"><a xlink:href="classRealm_1_1noncopyable.html" target="_top" xlink:title=" ">
<polygon fill="white" stroke="#666666" points="396,-233.5 280,-233.5 280,-214.5 396,-214.5 396,-233.5"/>
<text text-anchor="middle" x="338" y="-221.5" font-family="Helvetica,sans-Serif" font-size="10.00">Realm::noncopyable</text>
</a>
</g>
</g>
<!-- Node4&#45;&gt;Node3 -->
<g id="edge4_Node000003_Node000004" class="edge">
<title>Node4&#45;&gt;Node3</title>
<g id="a_edge4_Node000003_Node000004"><a xlink:title=" ">
<path fill="none" stroke="#63b8ff" d="M406.17,-212.83C425.8,-209.46 447.28,-205.68 467,-202 476.08,-200.31 485.76,-198.42 495.04,-196.57"/>
<polygon fill="#63b8ff" stroke="#63b8ff" points="405.36,-209.41 396.09,-214.55 406.54,-216.31 405.36,-209.41"/>
</a>
</g>
</g>
<!-- Node5 -->
<g id="Node000005" class="node">
<title>Node5</title>
<g id="a_Node000005"><a xlink:href="classRealm_1_1atomic.html" target="_top" xlink:title=" ">
<polygon fill="white" stroke="#666666" points="413,-196.5 263,-196.5 263,-177.5 413,-177.5 413,-196.5"/>
<text text-anchor="middle" x="338" y="-184.5" font-family="Helvetica,sans-Serif" font-size="10.00">Realm::atomic&lt; uint32_t &gt;</text>
</a>
</g>
</g>
<!-- Node5&#45;&gt;Node3 -->
<g id="edge5_Node000003_Node000005" class="edge">
<title>Node5&#45;&gt;Node3</title>
<g id="a_edge5_Node000003_Node000005"><a xlink:title=" ">
<path fill="none" stroke="#9a32cd" stroke-dasharray="5,2" d="M423.32,-187C444,-187 465.66,-187 484.7,-187"/>
<polygon fill="#9a32cd" stroke="#9a32cd" points="423.25,-183.5 413.25,-187 423.25,-190.5 423.25,-183.5"/>
</a>
</g>
<text text-anchor="middle" x="449" y="-190" font-family="Helvetica,sans-Serif" font-size="10.00" fill="grey"> state</text>
</g>
<!-- Node6 -->
<g id="Node000006" class="node">
<title>Node6</title>
<g id="a_Node000006"><a xlink:href="classRealm_1_1DoorbellList.html" target="_top" xlink:title=" ">
<polygon fill="white" stroke="#666666" points="394.5,-159.5 281.5,-159.5 281.5,-140.5 394.5,-140.5 394.5,-159.5"/>
<text text-anchor="middle" x="338" y="-147.5" font-family="Helvetica,sans-Serif" font-size="10.00">Realm::DoorbellList</text>
</a>
</g>
</g>
<!-- Node6&#45;&gt;Node3 -->
<g id="edge6_Node000003_Node000006" class="edge">
<title>Node6&#45;&gt;Node3</title>
<g id="a_edge6_Node000003_Node000006"><a xlink:title=" ">
<path fill="none" stroke="#9a32cd" stroke-dasharray="5,2" d="M404.49,-160.89C424.57,-164.32 446.71,-168.21 467,-172 476.08,-173.69 485.76,-175.58 495.04,-177.43"/>
<polygon fill="#9a32cd" stroke="#9a32cd" points="404.95,-157.42 394.51,-159.19 403.78,-164.32 404.95,-157.42"/>
</a>
</g>
<text text-anchor="middle" x="449" y="-175" font-family="Helvetica,sans-Serif" font-size="10.00" fill="grey"> db_list</text>
</g>
<!-- Node7 -->
<g id="Node000007" class="node">
<title>Node7</title>
<g id="a_Node000007"><a xlink:href="classRealm_1_1atomic.html" target="_top" xlink:title=" ">
<polygon fill="white" stroke="#666666" points="152,-159.5 0,-159.5 0,-140.5 152,-140.5 152,-159.5"/>
<text text-anchor="middle" x="76" y="-147.5" font-family="Helvetica,sans-Serif" font-size="10.00">Realm::atomic&lt; uintptr_t &gt;</text>
</a>
</g>
</g>
<!-- Node7&#45;&gt;Node6 -->
<g id="edge7_Node000006_Node000007" class="edge">
<title>Node7&#45;&gt;Node6</title>
<g id="a_edge7_Node000006_Node000007"><a xlink:title=" ">
<path fill="none" stroke="#9a32cd" stroke-dasharray="5,2" d="M162.52,-150C201.61,-150 246.79,-150 281.38,-150"/>
<polygon fill="#9a32cd" stroke="#9a32cd" points="162.2,-146.5 152.2,-150 162.2,-153.5 162.2,-146.5"/>
</a>
</g>
<text text-anchor="middle" x="207.5" y="-153" font-family="Helvetica,sans-Serif" font-size="10.00" fill="grey"> head_or_count</text>
</g>
<!-- Node8 -->
<g id="Node000008" class="node">
<title>Node8</title>
<g id="a_Node000008"><a xlink:href="classRealm_1_1NodeSet.html" target="_top" xlink:title=" ">
<polygon fill="white" stroke="#666666" points="1295.5,-182.5 1200.5,-182.5 1200.5,-163.5 1295.5,-163.5 1295.5,-182.5"/>
<text text-anchor="middle" x="1248" y="-170.5" font-family="Helvetica,sans-Serif" font-size="10.00">Realm::NodeSet</text>
</a>
</g>
</g>
<!-- Node8&#45;&gt;Node1 -->
<g id="edge8_Node000001_Node000008" class="edge">
<title>Node8&#45;&gt;Node1</title>
<g id="a_edge8_Node000001_Node000008"><a xlink:title=" ">
<path fill="none" stroke="#9a32cd" stroke-dasharray="5,2" d="M1305.81,-171.03C1346.84,-170.29 1403.49,-170.67 1453,-176 1467.65,-177.58 1483.53,-180.48 1497.5,-183.44"/>
<polygon fill="#9a32cd" stroke="#9a32cd" points="1305.66,-167.53 1295.74,-171.24 1305.81,-174.53 1305.66,-167.53"/>
</a>
</g>
<text text-anchor="middle" x="1399.5" y="-190" font-family="Helvetica,sans-Serif" font-size="10.00" fill="grey"> remote_sharer_mask</text>
<text text-anchor="middle" x="1399.5" y="-179" font-family="Helvetica,sans-Serif" font-size="10.00" fill="grey">remote_waiter_mask</text>
</g>
<!-- Node9 -->
<g id="Node000009" class="node">
<title>Node9</title>
<g id="a_Node000009"><a xlink:href="unionRealm_1_1NodeSet_1_1EncodingUnion.html" target="_top" xlink:title=" ">
<polygon fill="white" stroke="#666666" points="1095,-176 949,-176 949,-146 1095,-146 1095,-176"/>
<text text-anchor="start" x="957" y="-164" font-family="Helvetica,sans-Serif" font-size="10.00">Realm::NodeSet::Encoding</text>
<text text-anchor="middle" x="1022" y="-153" font-family="Helvetica,sans-Serif" font-size="10.00">Union</text>
</a>
</g>
</g>
<!-- Node9&#45;&gt;Node8 -->
<g id="edge9_Node000008_Node000009" class="edge">
<title>Node9&#45;&gt;Node8</title>
<g id="a_edge9_Node000008_Node000009"><a xlink:title=" ">
<path fill="none" stroke="#9a32cd" stroke-dasharray="5,2" d="M1105.38,-165.41C1137.43,-167.13 1172.96,-169.03 1200.42,-170.5"/>
<polygon fill="#9a32cd" stroke="#9a32cd" points="1105.28,-161.9 1095.11,-164.86 1104.91,-168.89 1105.28,-161.9"/>
</a>
</g>
<text text-anchor="middle" x="1131.5" y="-170" font-family="Helvetica,sans-Serif" font-size="10.00" fill="grey"> data</text>
</g>
<!-- Node10&#45;&gt;Node9 -->
<g id="edge10_Node000009_Node000010" class="edge">
<title>Node10&#45;&gt;Node9</title>
<g id="a_edge10_Node000009_Node000010"><a xlink:title=" ">
<path fill="none" stroke="#9a32cd" stroke-dasharray="5,2" d="M862.37,-167.05C890.14,-165.99 921.32,-164.8 948.65,-163.76"/>
<polygon fill="#9a32cd" stroke="#9a32cd" points="862.17,-163.55 852.31,-167.43 862.44,-170.55 862.17,-163.55"/>
</a>
</g>
<text text-anchor="middle" x="900.5" y="-169" font-family="Helvetica,sans-Serif" font-size="10.00" fill="grey"> bitmask</text>
</g>
<!-- Node11 -->
<g id="Node000011" class="node">
<title>Node11</title>
<g id="a_Node000011"><a xlink:href="classRealm_1_1IntrusiveList.html" target="_top" xlink:title=" ">
<polygon fill="white" stroke="#666666" points="1328,-144 1168,-144 1168,-92 1328,-92 1328,-144"/>
<text text-anchor="start" x="1176" y="-132" font-family="Helvetica,sans-Serif" font-size="10.00">Realm::IntrusiveList</text>
<text text-anchor="start" x="1176" y="-121" font-family="Helvetica,sans-Serif" font-size="10.00">&lt; EventWaiter, REALM</text>
<text text-anchor="start" x="1176" y="-110" font-family="Helvetica,sans-Serif" font-size="10.00">_PMTA_USE(EventWaiter,</text>
<text text-anchor="middle" x="1248" y="-99" font-family="Helvetica,sans-Serif" font-size="10.00"> ew_list_link), DummyLock &gt;</text>
</a>
</g>
</g>
<!-- Node11&#45;&gt;Node1 -->
<g id="edge12_Node000001_Node000011" class="edge">
<title>Node11&#45;&gt;Node1</title>
<g id="a_edge12_Node000001_Node000011"><a xlink:title=" ">
<path fill="none" stroke="#9a32cd" stroke-dasharray="5,2" d="M1338.1,-129.3C1374.25,-135.13 1416.09,-143.5 1453,-155 1476.69,-162.38 1502.48,-174.76 1519.15,-183.37"/>
<polygon fill="#9a32cd" stroke="#9a32cd" points="1338.49,-125.82 1328.07,-127.72 1337.4,-132.73 1338.49,-125.82"/>
</a>
</g>
<text text-anchor="middle" x="1399.5" y="-158" font-family="Helvetica,sans-Serif" font-size="10.00" fill="grey"> local_excl_waiters</text>
</g>
<!-- Node12 -->
<g id="Node000012" class="node">
<title>Node12</title>
<g id="a_Node000012"><a xlink:href="classRealm_1_1DummyLock.html" target="_top" xlink:title=" ">
<polygon fill="white" stroke="#666666" points="1080,-127.5 964,-127.5 964,-108.5 1080,-108.5 1080,-127.5"/>
<text text-anchor="middle" x="1022" y="-115.5" font-family="Helvetica,sans-Serif" font-size="10.00">Realm::DummyLock</text>
</a>
</g>
</g>
<!-- Node12&#45;&gt;Node11 -->
<g id="edge13_Node000011_Node000012" class="edge">
<title>Node12&#45;&gt;Node11</title>
<g id="a_edge13_Node000011_Node000012"><a xlink:title=" ">
<path fill="none" stroke="#9a32cd" stroke-dasharray="5,2" d="M1090.31,-118C1114.64,-118 1142.34,-118 1167.61,-118"/>
<polygon fill="#9a32cd" stroke="#9a32cd" points="1090.1,-114.5 1080.1,-118 1090.1,-121.5 1090.1,-114.5"/>
</a>
</g>
<text text-anchor="middle" x="1131.5" y="-121" font-family="Helvetica,sans-Serif" font-size="10.00" fill="grey"> lock</text>
</g>
<!-- Node13 -->
<g id="Node000013" class="node">
<title>Node13</title>
<g id="a_Node000013"><a xlink:href="structRealm_1_1IntrusiveListLink.html" target="_top" xlink:title=" ">
<polygon fill="white" stroke="#666666" points="1089,-88 955,-88 955,-58 1089,-58 1089,-88"/>
<text text-anchor="start" x="963" y="-76" font-family="Helvetica,sans-Serif" font-size="10.00">Realm::IntrusiveListLink</text>
<text text-anchor="middle" x="1022" y="-65" font-family="Helvetica,sans-Serif" font-size="10.00">&lt; EventWaiter &gt;</text>
</a>
</g>
</g>
<!-- Node13&#45;&gt;Node11 -->
<g id="edge14_Node000011_Node000013" class="edge">
<title>Node13&#45;&gt;Node11</title>
<g id="a_edge14_Node000011_Node000013"><a xlink:title=" ">
<path fill="none" stroke="#9a32cd" stroke-dasharray="5,2" d="M1099.45,-83C1116.17,-85.59 1133.73,-88.61 1150,-92 1155.8,-93.21 1161.78,-94.55 1167.77,-95.98"/>
<polygon fill="#9a32cd" stroke="#9a32cd" points="1099.58,-79.48 1089.17,-81.45 1098.53,-86.4 1099.58,-79.48"/>
</a>
</g>
<text text-anchor="middle" x="1131.5" y="-106" font-family="Helvetica,sans-Serif" font-size="10.00" fill="grey"> head</text>
<text text-anchor="middle" x="1131.5" y="-95" font-family="Helvetica,sans-Serif" font-size="10.00" fill="grey">lastlink</text>
</g>
<!-- Node14 -->
<g id="Node000014" class="node">
<title>Node14</title>
<g id="a_Node000014"><a xlink:href="classRealm_1_1EventWaiter.html" target="_top" xlink:title=" ">
<polygon fill="white" stroke="#666666" points="840.5,-48.5 727.5,-48.5 727.5,-29.5 840.5,-29.5 840.5,-48.5"/>
<text text-anchor="middle" x="784" y="-36.5" font-family="Helvetica,sans-Serif" font-size="10.00">Realm::EventWaiter</text>
</a>
</g>
</g>
<!-- Node14&#45;&gt;Node13 -->
<g id="edge15_Node000013_Node000014" class="edge">
<title>Node14&#45;&gt;Node13</title>
<g id="a_edge15_Node000013_Node000014"><a xlink:title=" ">
<path fill="none" stroke="#9a32cd" stroke-dasharray="5,2" d="M850.91,-48.5C883.35,-53.17 922.37,-58.79 954.84,-63.47"/>
<polygon fill="#9a32cd" stroke="#9a32cd" points="851.03,-44.98 840.63,-47.01 850.03,-51.9 851.03,-44.98"/>
</a>
</g>
<text text-anchor="middle" x="900.5" y="-62" font-family="Helvetica,sans-Serif" font-size="10.00" fill="grey"> next</text>
</g>
<!-- Node15 -->
<g id="Node000015" class="node">
<title>Node15</title>
<g id="a_Node000015"><a xlink:href="structRealm_1_1IntrusiveListLink.html" target="_top" xlink:title=" ">
<polygon fill="white" stroke="#666666" points="1090,-30 954,-30 954,0 1090,0 1090,-30"/>
<text text-anchor="start" x="962" y="-18" font-family="Helvetica,sans-Serif" font-size="10.00">Realm::IntrusiveListLink</text>
<text text-anchor="middle" x="1022" y="-7" font-family="Helvetica,sans-Serif" font-size="10.00">&lt; Realm::EventWaiter &gt;</text>
</a>
</g>
</g>
<!-- Node14&#45;&gt;Node15 -->
<g id="edge17_Node000015_Node000014" class="edge">
<title>Node14&#45;&gt;Node15</title>
<g id="a_edge17_Node000015_Node000014"><a xlink:title=" ">
<path fill="none" stroke="#9a32cd" stroke-dasharray="5,2" d="M850.83,-32.31C883,-29.03 921.65,-25.1 953.98,-21.82"/>
<polygon fill="#9a32cd" stroke="#9a32cd" points="850.22,-28.85 840.63,-33.34 850.93,-35.81 850.22,-28.85"/>
</a>
</g>
<text text-anchor="middle" x="900.5" y="-33" font-family="Helvetica,sans-Serif" font-size="10.00" fill="grey"> next</text>
</g>
<!-- Node15&#45;&gt;Node14 -->
<g id="edge16_Node000014_Node000015" class="edge">
<title>Node15&#45;&gt;Node14</title>
<g id="a_edge16_Node000014_Node000015"><a xlink:title=" ">
<path fill="none" stroke="#9a32cd" stroke-dasharray="5,2" d="M943.63,-3.17C919.86,-1.46 893.72,-1.56 870,-6 846.19,-10.46 820.48,-21.38 803.65,-29.44"/>
<polygon fill="#9a32cd" stroke="#9a32cd" points="943.4,-6.66 953.66,-4 943.98,0.31 943.4,-6.66"/>
</a>
</g>
<text text-anchor="middle" x="900.5" y="-9" font-family="Helvetica,sans-Serif" font-size="10.00" fill="grey"> ew_list_link</text>
</g>
</g>
</svg>
