<?xml version="1.0" encoding="UTF-8" standalone="no"?>
<!DOCTYPE svg PUBLIC "-//W3C//DTD SVG 1.1//EN"
 "http://www.w3.org/Graphics/SVG/1.1/DTD/svg11.dtd">
<!-- Generated by graphviz version 2.43.0 (0)
 -->
<!-- Title: Realm::Hip::GPUCompletionNotification Pages: 1 -->
<svg width="391pt" height="124pt"
 viewBox="0.00 0.00 391.00 123.50" xmlns="http://www.w3.org/2000/svg" xmlns:xlink="http://www.w3.org/1999/xlink">
<g id="graph0" class="graph" transform="scale(1 1) rotate(0) translate(4 119.5)">
<title>Realm::Hip::GPUCompletionNotification</title>
<!-- Node1 -->
<g id="Node000001" class="node">
<title>Node1</title>
<g id="a_Node000001"><a xlink:title=" ">
<polygon fill="#999999" stroke="#666666" points="154,-67.5 0,-67.5 0,-37.5 154,-37.5 154,-67.5"/>
<text text-anchor="start" x="8" y="-55.5" font-family="Helvetica,sans-Serif" font-size="10.00">Realm::Hip::GPUCompletion</text>
<text text-anchor="middle" x="77" y="-44.5" font-family="Helvetica,sans-Serif" font-size="10.00">Notification</text>
</a>
</g>
</g>
<!-- Node2 -->
<g id="Node000002" class="node">
<title>Node2</title>
<g id="a_Node000002"><a xlink:href="classRealm_1_1Hip_1_1GPUCompletionEvent.html" target="_top" xlink:title=" ">
<polygon fill="white" stroke="#666666" points="363.5,-115.5 209.5,-115.5 209.5,-85.5 363.5,-85.5 363.5,-115.5"/>
<text text-anchor="start" x="217.5" y="-103.5" font-family="Helvetica,sans-Serif" font-size="10.00">Realm::Hip::GPUCompletion</text>
<text text-anchor="middle" x="286.5" y="-92.5" font-family="Helvetica,sans-Serif" font-size="10.00">Event</text>
</a>
</g>
</g>
<!-- Node1&#45;&gt;Node2 -->
<g id="edge1_Node000001_Node000002" class="edge">
<title>Node1&#45;&gt;Node2</title>
<g id="a_edge1_Node000001_Node000002"><a xlink:title=" ">
<path fill="none" stroke="#63b8ff" d="M153.1,-69.87C175.22,-74.99 199.23,-80.54 220.65,-85.5"/>
<polygon fill="#63b8ff" stroke="#63b8ff" points="153.62,-66.4 143.08,-67.56 152.04,-73.22 153.62,-66.4"/>
</a>
</g>
</g>
<!-- Node3 -->
<g id="Node000003" class="node">
<title>Node3</title>
<g id="a_Node000003"><a xlink:href="classRealm_1_1Hip_1_1GPUPreemptionWaiter.html" target="_top" xlink:title=" ">
<polygon fill="white" stroke="#666666" points="363.5,-67.5 209.5,-67.5 209.5,-37.5 363.5,-37.5 363.5,-67.5"/>
<text text-anchor="start" x="217.5" y="-55.5" font-family="Helvetica,sans-Serif" font-size="10.00">Realm::Hip::GPUPreemption</text>
<text text-anchor="middle" x="286.5" y="-44.5" font-family="Helvetica,sans-Serif" font-size="10.00">Waiter</text>
</a>
</g>
</g>
<!-- Node1&#45;&gt;Node3 -->
<g id="edge2_Node000001_Node000003" class="edge">
<title>Node1&#45;&gt;Node3</title>
<g id="a_edge2_Node000001_Node000003"><a xlink:title=" ">
<path fill="none" stroke="#63b8ff" d="M164.35,-52.5C179.31,-52.5 194.76,-52.5 209.42,-52.5"/>
<polygon fill="#63b8ff" stroke="#63b8ff" points="164.09,-49 154.09,-52.5 164.09,-56 164.09,-49"/>
</a>
</g>
</g>
<!-- Node4 -->
<g id="Node000004" class="node">
<title>Node4</title>
<g id="a_Node000004"><a xlink:href="classRealm_1_1Hip_1_1GPUTransferCompletion.html" target="_top" xlink:title=" ">
<polygon fill="white" stroke="#666666" points="383,-19 190,-19 190,0 383,0 383,-19"/>
<text text-anchor="middle" x="286.5" y="-7" font-family="Helvetica,sans-Serif" font-size="10.00">Realm::Hip::GPUTransferCompletion</text>
</a>
</g>
</g>
<!-- Node1&#45;&gt;Node4 -->
<g id="edge3_Node000001_Node000004" class="edge">
<title>Node1&#45;&gt;Node4</title>
<g id="a_edge3_Node000001_Node000004"><a xlink:title=" ">
<path fill="none" stroke="#63b8ff" d="M157.29,-35.36C168.27,-33.03 179.41,-30.69 190,-28.5 205.23,-25.35 221.85,-22.01 236.89,-19.03"/>
<polygon fill="#63b8ff" stroke="#63b8ff" points="156.32,-31.99 147.27,-37.49 157.78,-38.83 156.32,-31.99"/>
</a>
</g>
</g>
</g>
</svg>
