<?xml version="1.0" encoding="UTF-8" standalone="no"?>
<!DOCTYPE svg PUBLIC "-//W3C//DTD SVG 1.1//EN"
 "http://www.w3.org/Graphics/SVG/1.1/DTD/svg11.dtd">
<!-- Generated by graphviz version 2.43.0 (0)
 -->
<!-- Title: Realm::RemoteProcessor Pages: 1 -->
<svg width="357pt" height="226pt"
 viewBox="0.00 0.00 357.00 226.00" xmlns="http://www.w3.org/2000/svg" xmlns:xlink="http://www.w3.org/1999/xlink">
<g id="graph0" class="graph" transform="scale(1 1) rotate(0) translate(4 222)">
<title>Realm::RemoteProcessor</title>
<!-- Node1 -->
<g id="Node000001" class="node">
<title>Node1</title>
<g id="a_Node000001"><a xlink:title=" ">
<polygon fill="#999999" stroke="#666666" points="224.5,-19 84.5,-19 84.5,0 224.5,0 224.5,-19"/>
<text text-anchor="middle" x="154.5" y="-7" font-family="Helvetica,sans-Serif" font-size="10.00">Realm::RemoteProcessor</text>
</a>
</g>
</g>
<!-- Node2 -->
<g id="Node000002" class="node">
<title>Node2</title>
<g id="a_Node000002"><a xlink:href="classRealm_1_1ProcessorImpl.html" target="_top" xlink:title=" ">
<polygon fill="white" stroke="#666666" points="216,-75 93,-75 93,-56 216,-56 216,-75"/>
<text text-anchor="middle" x="154.5" y="-63" font-family="Helvetica,sans-Serif" font-size="10.00">Realm::ProcessorImpl</text>
</a>
</g>
</g>
<!-- Node2&#45;&gt;Node1 -->
<g id="edge1_Node000001_Node000002" class="edge">
<title>Node2&#45;&gt;Node1</title>
<g id="a_edge1_Node000001_Node000002"><a xlink:title=" ">
<path fill="none" stroke="#63b8ff" d="M154.5,-45.3C154.5,-36.41 154.5,-26.28 154.5,-19.25"/>
<polygon fill="#63b8ff" stroke="#63b8ff" points="151,-45.58 154.5,-55.58 158,-45.58 151,-45.58"/>
</a>
</g>
</g>
<!-- Node3 -->
<g id="Node000003" class="node">
<title>Node3</title>
<g id="a_Node000003"><a xlink:href="classRealm_1_1DynamicTableFreeList.html" target="_top" xlink:title=" ">
<polygon fill="white" stroke="#666666" points="161,-152 0,-152 0,-122 161,-122 161,-152"/>
<text text-anchor="start" x="8" y="-140" font-family="Helvetica,sans-Serif" font-size="10.00">Realm::DynamicTableFreeList</text>
<text text-anchor="middle" x="80.5" y="-129" font-family="Helvetica,sans-Serif" font-size="10.00">&lt; ALLOCATOR &gt;</text>
</a>
</g>
</g>
<!-- Node3&#45;&gt;Node2 -->
<g id="edge2_Node000002_Node000003" class="edge">
<title>Node3&#45;&gt;Node2</title>
<g id="a_edge2_Node000002_Node000003"><a xlink:title=" ">
<path fill="none" stroke="#9a32cd" stroke-dasharray="5,2" d="M92.91,-112.63C97.24,-105.79 102.54,-98.64 108.5,-93 116.26,-85.65 126.44,-79.52 135.24,-75.01"/>
<polygon fill="#9a32cd" stroke="#9a32cd" points="89.68,-111.21 87.61,-121.6 95.71,-114.77 89.68,-111.21"/>
</a>
</g>
<text text-anchor="middle" x="153.5" y="-96" font-family="Helvetica,sans-Serif" font-size="10.00" fill="grey"> free_local_events</text>
</g>
<!-- Node4 -->
<g id="Node000004" class="node">
<title>Node4</title>
<g id="a_Node000004"><a xlink:href="classRealm_1_1atomic.html" target="_top" xlink:title=" ">
<polygon fill="white" stroke="#666666" points="146,-218 15,-218 15,-199 146,-199 146,-218"/>
<text text-anchor="middle" x="80.5" y="-206" font-family="Helvetica,sans-Serif" font-size="10.00">Realm::atomic&lt; ET * &gt;</text>
</a>
</g>
</g>
<!-- Node4&#45;&gt;Node3 -->
<g id="edge3_Node000003_Node000004" class="edge">
<title>Node4&#45;&gt;Node3</title>
<g id="a_edge3_Node000003_Node000004"><a xlink:title=" ">
<path fill="none" stroke="#9a32cd" stroke-dasharray="5,2" d="M80.5,-188.71C80.5,-177.19 80.5,-162.68 80.5,-152.14"/>
<polygon fill="#9a32cd" stroke="#9a32cd" points="77,-188.98 80.5,-198.98 84,-188.98 77,-188.98"/>
</a>
</g>
<text text-anchor="middle" x="104" y="-173" font-family="Helvetica,sans-Serif" font-size="10.00" fill="grey"> first_free</text>
</g>
<!-- Node5 -->
<g id="Node000005" class="node">
<title>Node5</title>
<g id="a_Node000005"><a xlink:href="classRealm_1_1Processor.html" target="_top" xlink:title=" ">
<polygon fill="white" stroke="#666666" points="280,-146.5 179,-146.5 179,-127.5 280,-127.5 280,-146.5"/>
<text text-anchor="middle" x="229.5" y="-134.5" font-family="Helvetica,sans-Serif" font-size="10.00">Realm::Processor</text>
</a>
</g>
</g>
<!-- Node5&#45;&gt;Node2 -->
<g id="edge4_Node000002_Node000005" class="edge">
<title>Node5&#45;&gt;Node2</title>
<g id="a_edge4_Node000002_Node000005"><a xlink:title=" ">
<path fill="none" stroke="#9a32cd" stroke-dasharray="5,2" d="M219.31,-118.64C213.84,-110.26 206.57,-100.43 198.5,-93 190.76,-85.87 180.81,-79.69 172.32,-75.09"/>
<polygon fill="#9a32cd" stroke="#9a32cd" points="216.43,-120.63 224.67,-127.29 222.38,-116.95 216.43,-120.63"/>
</a>
</g>
<text text-anchor="middle" x="217" y="-96" font-family="Helvetica,sans-Serif" font-size="10.00" fill="grey"> me</text>
</g>
<!-- Node5&#45;&gt;Node5 -->
<g id="edge5_Node000005_Node000005" class="edge">
<title>Node5&#45;&gt;Node5</title>
<g id="a_edge5_Node000005_Node000005"><a xlink:title=" ">
<path fill="none" stroke="#9a32cd" stroke-dasharray="5,2" d="M290.43,-142.36C295.11,-141.18 298,-139.39 298,-137 298,-133.18 290.61,-130.89 280.28,-130.15"/>
<polygon fill="#9a32cd" stroke="#9a32cd" points="289.67,-138.94 280.28,-143.85 290.69,-145.86 289.67,-138.94"/>
</a>
</g>
<text text-anchor="middle" x="323.5" y="-134.5" font-family="Helvetica,sans-Serif" font-size="10.00" fill="grey"> NO_PROC</text>
</g>
</g>
</svg>
