<?xml version="1.0" encoding="UTF-8" standalone="no"?>
<!DOCTYPE svg PUBLIC "-//W3C//DTD SVG 1.1//EN"
 "http://www.w3.org/Graphics/SVG/1.1/DTD/svg11.dtd">
<!-- Generated by graphviz version 2.43.0 (0)
 -->
<!-- Title: Realm::ExternalMemoryResource Pages: 1 -->
<svg width="322pt" height="148pt"
 viewBox="0.00 0.00 322.00 148.00" xmlns="http://www.w3.org/2000/svg" xmlns:xlink="http://www.w3.org/1999/xlink">
<g id="graph0" class="graph" transform="scale(1 1) rotate(0) translate(4 144)">
<title>Realm::ExternalMemoryResource</title>
<!-- Node1 -->
<g id="Node000001" class="node">
<title>Node1</title>
<g id="a_Node000001"><a xlink:title=" ">
<polygon fill="#999999" stroke="#666666" points="249,-85 69,-85 69,-66 249,-66 249,-85"/>
<text text-anchor="middle" x="159" y="-73" font-family="Helvetica,sans-Serif" font-size="10.00">Realm::ExternalMemoryResource</text>
</a>
</g>
</g>
<!-- Node3 -->
<g id="Node000003" class="node">
<title>Node3</title>
<g id="a_Node000003"><a xlink:href="classRealm_1_1ExternalCudaPinnedHostResource.html" target="_top" xlink:title=" ">
<polygon fill="white" stroke="#666666" points="152,-30 0,-30 0,0 152,0 152,-30"/>
<text text-anchor="start" x="8" y="-18" font-family="Helvetica,sans-Serif" font-size="10.00">Realm::ExternalCudaPinned</text>
<text text-anchor="middle" x="76" y="-7" font-family="Helvetica,sans-Serif" font-size="10.00">HostResource</text>
</a>
</g>
</g>
<!-- Node1&#45;&gt;Node3 -->
<g id="edge2_Node000001_Node000003" class="edge">
<title>Node1&#45;&gt;Node3</title>
<g id="a_edge2_Node000001_Node000003"><a xlink:title=" ">
<path fill="none" stroke="#63b8ff" d="M138.47,-60.03C125.52,-50.9 108.88,-39.17 96.03,-30.11"/>
<polygon fill="#63b8ff" stroke="#63b8ff" points="136.56,-62.97 146.75,-65.87 140.6,-57.25 136.56,-62.97"/>
</a>
</g>
</g>
<!-- Node4 -->
<g id="Node000004" class="node">
<title>Node4</title>
<g id="a_Node000004"><a xlink:href="classRealm_1_1ExternalHipPinnedHostResource.html" target="_top" xlink:title=" ">
<polygon fill="white" stroke="#666666" points="314,-30 170,-30 170,0 314,0 314,-30"/>
<text text-anchor="start" x="178" y="-18" font-family="Helvetica,sans-Serif" font-size="10.00">Realm::ExternalHipPinned</text>
<text text-anchor="middle" x="242" y="-7" font-family="Helvetica,sans-Serif" font-size="10.00">HostResource</text>
</a>
</g>
</g>
<!-- Node1&#45;&gt;Node4 -->
<g id="edge3_Node000001_Node000004" class="edge">
<title>Node1&#45;&gt;Node4</title>
<g id="a_edge3_Node000001_Node000004"><a xlink:title=" ">
<path fill="none" stroke="#63b8ff" d="M179.53,-60.03C192.48,-50.9 209.12,-39.17 221.97,-30.11"/>
<polygon fill="#63b8ff" stroke="#63b8ff" points="177.4,-57.25 171.25,-65.87 181.44,-62.97 177.4,-57.25"/>
</a>
</g>
</g>
<!-- Node2 -->
<g id="Node000002" class="node">
<title>Node2</title>
<g id="a_Node000002"><a xlink:href="classRealm_1_1ExternalInstanceResource.html" target="_top" xlink:title=" ">
<polygon fill="white" stroke="#666666" points="249.5,-140 68.5,-140 68.5,-121 249.5,-121 249.5,-140"/>
<text text-anchor="middle" x="159" y="-128" font-family="Helvetica,sans-Serif" font-size="10.00">Realm::ExternalInstanceResource</text>
</a>
</g>
</g>
<!-- Node2&#45;&gt;Node1 -->
<g id="edge1_Node000001_Node000002" class="edge">
<title>Node2&#45;&gt;Node1</title>
<g id="a_edge1_Node000001_Node000002"><a xlink:title=" ">
<path fill="none" stroke="#63b8ff" d="M159,-110.66C159,-101.93 159,-91.99 159,-85.09"/>
<polygon fill="#63b8ff" stroke="#63b8ff" points="155.5,-110.75 159,-120.75 162.5,-110.75 155.5,-110.75"/>
</a>
</g>
</g>
</g>
</svg>
