<?xml version="1.0" encoding="UTF-8" standalone="no"?>
<!DOCTYPE svg PUBLIC "-//W3C//DTD SVG 1.1//EN"
 "http://www.w3.org/Graphics/SVG/1.1/DTD/svg11.dtd">
<!-- Generated by graphviz version 2.43.0 (0)
 -->
<!-- Title: Realm::ExecutionException Pages: 1 -->
<svg width="337pt" height="149pt"
 viewBox="0.00 0.00 336.50 149.00" xmlns="http://www.w3.org/2000/svg" xmlns:xlink="http://www.w3.org/1999/xlink">
<g id="graph0" class="graph" transform="scale(1 1) rotate(0) translate(4 145)">
<title>Realm::ExecutionException</title>
<!-- Node1 -->
<g id="Node000001" class="node">
<title>Node1</title>
<g id="a_Node000001"><a xlink:title=" ">
<polygon fill="#999999" stroke="#666666" points="230.5,-19 81.5,-19 81.5,0 230.5,0 230.5,-19"/>
<text text-anchor="middle" x="156" y="-7" font-family="Helvetica,sans-Serif" font-size="10.00">Realm::ExecutionException</text>
</a>
</g>
</g>
<!-- Node2 -->
<g id="Node000002" class="node">
<title>Node2</title>
<g id="a_Node000002"><a xlink:title=" ">
<polygon fill="white" stroke="#666666" points="86,-85 0,-85 0,-66 86,-66 86,-85"/>
<text text-anchor="middle" x="43" y="-73" font-family="Helvetica,sans-Serif" font-size="10.00">std::exception</text>
</a>
</g>
</g>
<!-- Node2&#45;&gt;Node1 -->
<g id="edge1_Node000001_Node000002" class="edge">
<title>Node2&#45;&gt;Node1</title>
<g id="a_edge1_Node000001_Node000002"><a xlink:title=" ">
<path fill="none" stroke="#63b8ff" d="M67.09,-60.86C89.33,-48.26 121.71,-29.92 140.64,-19.2"/>
<polygon fill="#63b8ff" stroke="#63b8ff" points="65.22,-57.89 58.24,-65.87 68.67,-63.99 65.22,-57.89"/>
</a>
</g>
</g>
<!-- Node3 -->
<g id="Node000003" class="node">
<title>Node3</title>
<g id="a_Node000003"><a xlink:href="classRealm_1_1ByteArray.html" target="_top" xlink:title=" ">
<polygon fill="white" stroke="#666666" points="207.5,-85 104.5,-85 104.5,-66 207.5,-66 207.5,-85"/>
<text text-anchor="middle" x="156" y="-73" font-family="Helvetica,sans-Serif" font-size="10.00">Realm::ByteArray</text>
</a>
</g>
</g>
<!-- Node3&#45;&gt;Node1 -->
<g id="edge2_Node000001_Node000003" class="edge">
<title>Node3&#45;&gt;Node1</title>
<g id="a_edge2_Node000001_Node000003"><a xlink:title=" ">
<path fill="none" stroke="#9a32cd" stroke-dasharray="5,2" d="M156,-55.58C156,-43.63 156,-28.72 156,-19.41"/>
<polygon fill="#9a32cd" stroke="#9a32cd" points="152.5,-55.87 156,-65.87 159.5,-55.87 152.5,-55.87"/>
</a>
</g>
<text text-anchor="middle" x="174.5" y="-40" font-family="Helvetica,sans-Serif" font-size="10.00" fill="grey"> details</text>
</g>
<!-- Node4 -->
<g id="Node000004" class="node">
<title>Node4</title>
<g id="a_Node000004"><a xlink:href="classRealm_1_1ByteArrayRef.html" target="_top" xlink:title=" ">
<polygon fill="white" stroke="#666666" points="215.5,-141 96.5,-141 96.5,-122 215.5,-122 215.5,-141"/>
<text text-anchor="middle" x="156" y="-129" font-family="Helvetica,sans-Serif" font-size="10.00">Realm::ByteArrayRef</text>
</a>
</g>
</g>
<!-- Node4&#45;&gt;Node3 -->
<g id="edge3_Node000003_Node000004" class="edge">
<title>Node4&#45;&gt;Node3</title>
<g id="a_edge3_Node000003_Node000004"><a xlink:title=" ">
<path fill="none" stroke="#63b8ff" d="M156,-111.3C156,-102.41 156,-92.28 156,-85.25"/>
<polygon fill="#63b8ff" stroke="#63b8ff" points="152.5,-111.58 156,-121.58 159.5,-111.58 152.5,-111.58"/>
</a>
</g>
</g>
<!-- Node5 -->
<g id="Node000005" class="node">
<title>Node5</title>
<g id="a_Node000005"><a xlink:href="classRealm_1_1Backtrace.html" target="_top" xlink:title=" ">
<polygon fill="white" stroke="#666666" points="328.5,-85 225.5,-85 225.5,-66 328.5,-66 328.5,-85"/>
<text text-anchor="middle" x="277" y="-73" font-family="Helvetica,sans-Serif" font-size="10.00">Realm::Backtrace</text>
</a>
</g>
</g>
<!-- Node5&#45;&gt;Node1 -->
<g id="edge4_Node000001_Node000005" class="edge">
<title>Node5&#45;&gt;Node1</title>
<g id="a_edge4_Node000001_Node000005"><a xlink:title=" ">
<path fill="none" stroke="#9a32cd" stroke-dasharray="5,2" d="M251.53,-61.03C227.7,-48.42 192.8,-29.97 172.45,-19.2"/>
<polygon fill="#9a32cd" stroke="#9a32cd" points="250.21,-64.29 260.68,-65.87 253.48,-58.1 250.21,-64.29"/>
</a>
</g>
<text text-anchor="middle" x="249" y="-40" font-family="Helvetica,sans-Serif" font-size="10.00" fill="grey"> backtrace</text>
</g>
</g>
</svg>
