<?xml version="1.0" encoding="UTF-8" standalone="no"?>
<!DOCTYPE svg PUBLIC "-//W3C//DTD SVG 1.1//EN"
 "http://www.w3.org/Graphics/SVG/1.1/DTD/svg11.dtd">
<!-- Generated by graphviz version 2.43.0 (0)
 -->
<!-- Title: Realm::ThreadedTaskScheduler::WorkCounter Pages: 1 -->
<svg width="684pt" height="134pt"
 viewBox="0.00 0.00 684.00 134.00" xmlns="http://www.w3.org/2000/svg" xmlns:xlink="http://www.w3.org/1999/xlink">
<g id="graph0" class="graph" transform="scale(1 1) rotate(0) translate(4 130)">
<title>Realm::ThreadedTaskScheduler::WorkCounter</title>
<!-- Node1 -->
<g id="Node000001" class="node">
<title>Node1</title>
<g id="a_Node000001"><a xlink:title=" ">
<polygon fill="#999999" stroke="#666666" points="676,-79.5 506,-79.5 506,-49.5 676,-49.5 676,-79.5"/>
<text text-anchor="start" x="514" y="-67.5" font-family="Helvetica,sans-Serif" font-size="10.00">Realm::ThreadedTaskScheduler</text>
<text text-anchor="middle" x="591" y="-56.5" font-family="Helvetica,sans-Serif" font-size="10.00">::WorkCounter</text>
</a>
</g>
</g>
<!-- Node2 -->
<g id="Node000002" class="node">
<title>Node2</title>
<g id="a_Node000002"><a xlink:href="classRealm_1_1atomic.html" target="_top" xlink:title=" ">
<polygon fill="white" stroke="#666666" points="151,-126 1,-126 1,-107 151,-107 151,-126"/>
<text text-anchor="middle" x="76" y="-114" font-family="Helvetica,sans-Serif" font-size="10.00">Realm::atomic&lt; uint64_t &gt;</text>
</a>
</g>
</g>
<!-- Node2&#45;&gt;Node1 -->
<g id="edge1_Node000001_Node000002" class="edge">
<title>Node2&#45;&gt;Node1</title>
<g id="a_edge1_Node000001_Node000002"><a xlink:title=" ">
<path fill="none" stroke="#9a32cd" stroke-dasharray="5,2" d="M161.45,-117.81C245.12,-117.6 376.52,-113.2 488,-91.5 504.63,-88.26 522.56,-83.84 538.68,-79.51"/>
<polygon fill="#9a32cd" stroke="#9a32cd" points="161.24,-114.31 151.24,-117.81 161.24,-121.31 161.24,-114.31"/>
</a>
</g>
<text text-anchor="middle" x="332" y="-117.5" font-family="Helvetica,sans-Serif" font-size="10.00" fill="grey"> counter</text>
</g>
<!-- Node4 -->
<g id="Node000004" class="node">
<title>Node4</title>
<g id="a_Node000004"><a xlink:href="classRealm_1_1DelegatingMutex.html" target="_top" xlink:title=" ">
<polygon fill="white" stroke="#666666" points="401,-93 263,-93 263,-74 401,-74 401,-93"/>
<text text-anchor="middle" x="332" y="-81" font-family="Helvetica,sans-Serif" font-size="10.00">Realm::DelegatingMutex</text>
</a>
</g>
</g>
<!-- Node2&#45;&gt;Node4 -->
<g id="edge4_Node000004_Node000002" class="edge">
<title>Node2&#45;&gt;Node4</title>
<g id="a_edge4_Node000004_Node000002"><a xlink:title=" ">
<path fill="none" stroke="#9a32cd" stroke-dasharray="5,2" d="M160.27,-105.68C193.47,-101.37 231.2,-96.47 262.74,-92.37"/>
<polygon fill="#9a32cd" stroke="#9a32cd" points="159.59,-102.24 150.13,-107 160.49,-109.18 159.59,-102.24"/>
</a>
</g>
<text text-anchor="middle" x="207.5" y="-106.5" font-family="Helvetica,sans-Serif" font-size="10.00" fill="grey"> state</text>
</g>
<!-- Node3 -->
<g id="Node000003" class="node">
<title>Node3</title>
<g id="a_Node000003"><a xlink:href="classRealm_1_1atomic.html" target="_top" xlink:title=" ">
<polygon fill="white" stroke="#666666" points="397.5,-56 266.5,-56 266.5,-37 397.5,-37 397.5,-56"/>
<text text-anchor="middle" x="332" y="-44" font-family="Helvetica,sans-Serif" font-size="10.00">Realm::atomic&lt; bool &gt;</text>
</a>
</g>
</g>
<!-- Node3&#45;&gt;Node1 -->
<g id="edge2_Node000001_Node000003" class="edge">
<title>Node3&#45;&gt;Node1</title>
<g id="a_edge2_Node000001_Node000003"><a xlink:title=" ">
<path fill="none" stroke="#9a32cd" stroke-dasharray="5,2" d="M407.9,-46.04C433.36,-46.39 461.95,-47.34 488,-49.5 493.8,-49.98 499.77,-50.58 505.77,-51.26"/>
<polygon fill="#9a32cd" stroke="#9a32cd" points="407.61,-42.53 397.57,-45.93 407.53,-49.53 407.61,-42.53"/>
</a>
</g>
<text text-anchor="middle" x="453.5" y="-52.5" font-family="Helvetica,sans-Serif" font-size="10.00" fill="grey"> interrupt_flag</text>
</g>
<!-- Node4&#45;&gt;Node1 -->
<g id="edge3_Node000001_Node000004" class="edge">
<title>Node4&#45;&gt;Node1</title>
<g id="a_edge3_Node000001_Node000004"><a xlink:title=" ">
<path fill="none" stroke="#9a32cd" stroke-dasharray="5,2" d="M411.17,-77.72C441.11,-75.51 475.38,-72.97 505.86,-70.72"/>
<polygon fill="#9a32cd" stroke="#9a32cd" points="410.91,-74.23 401.2,-78.46 411.43,-81.21 410.91,-74.23"/>
</a>
</g>
<text text-anchor="middle" x="453.5" y="-79.5" font-family="Helvetica,sans-Serif" font-size="10.00" fill="grey"> db_mutex</text>
</g>
<!-- Node5 -->
<g id="Node000005" class="node">
<title>Node5</title>
<g id="a_Node000005"><a xlink:href="classRealm_1_1DoorbellList.html" target="_top" xlink:title=" ">
<polygon fill="white" stroke="#666666" points="388.5,-19 275.5,-19 275.5,0 388.5,0 388.5,-19"/>
<text text-anchor="middle" x="332" y="-7" font-family="Helvetica,sans-Serif" font-size="10.00">Realm::DoorbellList</text>
</a>
</g>
</g>
<!-- Node5&#45;&gt;Node1 -->
<g id="edge5_Node000001_Node000005" class="edge">
<title>Node5&#45;&gt;Node1</title>
<g id="a_edge5_Node000001_Node000005"><a xlink:title=" ">
<path fill="none" stroke="#9a32cd" stroke-dasharray="5,2" d="M398.69,-15.65C426.46,-18.95 459.02,-23.77 488,-30.5 508.91,-35.36 531.62,-42.71 550.29,-49.34"/>
<polygon fill="#9a32cd" stroke="#9a32cd" points="399.03,-12.16 388.69,-14.5 398.23,-19.12 399.03,-12.16"/>
</a>
</g>
<text text-anchor="middle" x="453.5" y="-33.5" font-family="Helvetica,sans-Serif" font-size="10.00" fill="grey"> db_list</text>
</g>
<!-- Node6 -->
<g id="Node000006" class="node">
<title>Node6</title>
<g id="a_Node000006"><a xlink:href="classRealm_1_1atomic.html" target="_top" xlink:title=" ">
<polygon fill="white" stroke="#666666" points="152,-19 0,-19 0,0 152,0 152,-19"/>
<text text-anchor="middle" x="76" y="-7" font-family="Helvetica,sans-Serif" font-size="10.00">Realm::atomic&lt; uintptr_t &gt;</text>
</a>
</g>
</g>
<!-- Node6&#45;&gt;Node5 -->
<g id="edge6_Node000005_Node000006" class="edge">
<title>Node6&#45;&gt;Node5</title>
<g id="a_edge6_Node000005_Node000006"><a xlink:title=" ">
<path fill="none" stroke="#9a32cd" stroke-dasharray="5,2" d="M162.53,-9.5C199.77,-9.5 242.35,-9.5 275.39,-9.5"/>
<polygon fill="#9a32cd" stroke="#9a32cd" points="162.18,-6 152.18,-9.5 162.18,-13 162.18,-6"/>
</a>
</g>
<text text-anchor="middle" x="207.5" y="-12.5" font-family="Helvetica,sans-Serif" font-size="10.00" fill="grey"> head_or_count</text>
</g>
</g>
</svg>
