<?xml version="1.0" encoding="UTF-8" standalone="no"?>
<!DOCTYPE svg PUBLIC "-//W3C//DTD SVG 1.1//EN"
 "http://www.w3.org/Graphics/SVG/1.1/DTD/svg11.dtd">
<!-- Generated by graphviz version 2.43.0 (0)
 -->
<!-- Title: Realm::ActiveMessageHandlerTable Pages: 1 -->
<svg width="260pt" height="115pt"
 viewBox="0.00 0.00 260.00 115.00" xmlns="http://www.w3.org/2000/svg" xmlns:xlink="http://www.w3.org/1999/xlink">
<g id="graph0" class="graph" transform="scale(1 1) rotate(0) translate(4 111)">
<title>Realm::ActiveMessageHandlerTable</title>
<!-- Node1 -->
<g id="Node000001" class="node">
<title>Node1</title>
<g id="a_Node000001"><a xlink:title=" ">
<polygon fill="#999999" stroke="#666666" points="167,-30 0,-30 0,0 167,0 167,-30"/>
<text text-anchor="start" x="8" y="-18" font-family="Helvetica,sans-Serif" font-size="10.00">Realm::ActiveMessageHandler</text>
<text text-anchor="middle" x="83.5" y="-7" font-family="Helvetica,sans-Serif" font-size="10.00">Table</text>
</a>
</g>
</g>
<!-- Node2 -->
<g id="Node000002" class="node">
<title>Node2</title>
<g id="a_Node000002"><a xlink:href="classRealm_1_1ActiveMessageHandlerRegBase.html" target="_top" xlink:title=" ">
<polygon fill="white" stroke="#666666" points="167,-107 0,-107 0,-77 167,-77 167,-107"/>
<text text-anchor="start" x="8" y="-95" font-family="Helvetica,sans-Serif" font-size="10.00">Realm::ActiveMessageHandler</text>
<text text-anchor="middle" x="83.5" y="-84" font-family="Helvetica,sans-Serif" font-size="10.00">RegBase</text>
</a>
</g>
</g>
<!-- Node2&#45;&gt;Node1 -->
<g id="edge1_Node000001_Node000002" class="edge">
<title>Node2&#45;&gt;Node1</title>
<g id="a_edge1_Node000001_Node000002"><a xlink:title=" ">
<path fill="none" stroke="#9a32cd" stroke-dasharray="5,2" d="M83.5,-66.54C83.5,-54.45 83.5,-40.29 83.5,-30.04"/>
<polygon fill="#9a32cd" stroke="#9a32cd" points="80,-66.89 83.5,-76.89 87,-66.89 80,-66.89"/>
</a>
</g>
<text text-anchor="middle" x="128.5" y="-51" font-family="Helvetica,sans-Serif" font-size="10.00" fill="grey"> pending_handlers</text>
</g>
<!-- Node2&#45;&gt;Node2 -->
<g id="edge2_Node000002_Node000002" class="edge">
<title>Node2&#45;&gt;Node2</title>
<g id="a_edge2_Node000002_Node000002"><a xlink:title=" ">
<path fill="none" stroke="#9a32cd" stroke-dasharray="5,2" d="M177.15,-96.69C182.08,-95.54 185,-93.97 185,-92 185,-88.92 177.89,-86.84 167.12,-85.76"/>
<polygon fill="#9a32cd" stroke="#9a32cd" points="176.47,-93.25 167.12,-98.24 177.54,-100.17 176.47,-93.25"/>
</a>
</g>
<text text-anchor="middle" x="218.5" y="-89.5" font-family="Helvetica,sans-Serif" font-size="10.00" fill="grey"> next_handler</text>
</g>
</g>
</svg>
