<?xml version="1.0" encoding="UTF-8" standalone="no"?>
<!DOCTYPE svg PUBLIC "-//W3C//DTD SVG 1.1//EN"
 "http://www.w3.org/Graphics/SVG/1.1/DTD/svg11.dtd">
<!-- Generated by graphviz version 2.43.0 (0)
 -->
<!-- Title: Realm::RemoteChannel Pages: 1 -->
<svg width="490pt" height="172pt"
 viewBox="0.00 0.00 490.00 172.00" xmlns="http://www.w3.org/2000/svg" xmlns:xlink="http://www.w3.org/1999/xlink">
<g id="graph0" class="graph" transform="scale(1 1) rotate(0) translate(4 168)">
<title>Realm::RemoteChannel</title>
<!-- Node1 -->
<g id="Node000001" class="node">
<title>Node1</title>
<g id="a_Node000001"><a xlink:title=" ">
<polygon fill="#999999" stroke="#666666" points="262,-93.5 130,-93.5 130,-74.5 262,-74.5 262,-93.5"/>
<text text-anchor="middle" x="196" y="-81.5" font-family="Helvetica,sans-Serif" font-size="10.00">Realm::RemoteChannel</text>
</a>
</g>
</g>
<!-- Node3 -->
<g id="Node000003" class="node">
<title>Node3</title>
<g id="a_Node000003"><a xlink:href="classRealm_1_1Cuda_1_1GPUIndirectRemoteChannel.html" target="_top" xlink:title=" ">
<polygon fill="white" stroke="#666666" points="461.5,-164 318.5,-164 318.5,-134 461.5,-134 461.5,-164"/>
<text text-anchor="start" x="326.5" y="-152" font-family="Helvetica,sans-Serif" font-size="10.00">Realm::Cuda::GPUIndirect</text>
<text text-anchor="middle" x="390" y="-141" font-family="Helvetica,sans-Serif" font-size="10.00">RemoteChannel</text>
</a>
</g>
</g>
<!-- Node1&#45;&gt;Node3 -->
<g id="edge2_Node000001_Node000003" class="edge">
<title>Node1&#45;&gt;Node3</title>
<g id="a_edge2_Node000001_Node000003"><a xlink:title=" ">
<path fill="none" stroke="#63b8ff" d="M227.8,-97.7C247.61,-106.21 274.04,-117.01 298,-125 307.46,-128.15 317.57,-131.16 327.5,-133.92"/>
<polygon fill="#63b8ff" stroke="#63b8ff" points="228.94,-94.38 218.37,-93.61 226.15,-100.8 228.94,-94.38"/>
</a>
</g>
</g>
<!-- Node4 -->
<g id="Node000004" class="node">
<title>Node4</title>
<g id="a_Node000004"><a xlink:href="classRealm_1_1Cuda_1_1GPURemoteChannel.html" target="_top" xlink:title=" ">
<polygon fill="white" stroke="#666666" points="482,-115.5 298,-115.5 298,-96.5 482,-96.5 482,-115.5"/>
<text text-anchor="middle" x="390" y="-103.5" font-family="Helvetica,sans-Serif" font-size="10.00">Realm::Cuda::GPURemoteChannel</text>
</a>
</g>
</g>
<!-- Node1&#45;&gt;Node4 -->
<g id="edge3_Node000001_Node000004" class="edge">
<title>Node1&#45;&gt;Node4</title>
<g id="a_edge3_Node000001_Node000004"><a xlink:title=" ">
<path fill="none" stroke="#63b8ff" d="M272.09,-92.6C283.22,-93.88 294.75,-95.2 306.02,-96.49"/>
<polygon fill="#63b8ff" stroke="#63b8ff" points="272.34,-89.11 262,-91.45 271.54,-96.06 272.34,-89.11"/>
</a>
</g>
</g>
<!-- Node5 -->
<g id="Node000005" class="node">
<title>Node5</title>
<g id="a_Node000005"><a xlink:href="classRealm_1_1Cuda_1_1GPUreduceRemoteChannel.html" target="_top" xlink:title=" ">
<polygon fill="white" stroke="#666666" points="478.5,-78 301.5,-78 301.5,-48 478.5,-48 478.5,-78"/>
<text text-anchor="start" x="309.5" y="-66" font-family="Helvetica,sans-Serif" font-size="10.00">Realm::Cuda::GPUreduceRemote</text>
<text text-anchor="middle" x="390" y="-55" font-family="Helvetica,sans-Serif" font-size="10.00">Channel</text>
</a>
</g>
</g>
<!-- Node1&#45;&gt;Node5 -->
<g id="edge4_Node000001_Node000005" class="edge">
<title>Node1&#45;&gt;Node5</title>
<g id="a_edge4_Node000001_Node000005"><a xlink:title=" ">
<path fill="none" stroke="#63b8ff" d="M272.21,-75.77C281.74,-74.73 291.55,-73.66 301.25,-72.6"/>
<polygon fill="#63b8ff" stroke="#63b8ff" points="271.56,-72.32 262,-76.89 272.32,-79.28 271.56,-72.32"/>
</a>
</g>
</g>
<!-- Node6 -->
<g id="Node000006" class="node">
<title>Node6</title>
<g id="a_Node000006"><a xlink:href="classRealm_1_1Hip_1_1GPUreduceRemoteChannel.html" target="_top" xlink:title=" ">
<polygon fill="white" stroke="#666666" points="474.5,-30 305.5,-30 305.5,0 474.5,0 474.5,-30"/>
<text text-anchor="start" x="313.5" y="-18" font-family="Helvetica,sans-Serif" font-size="10.00">Realm::Hip::GPUreduceRemote</text>
<text text-anchor="middle" x="390" y="-7" font-family="Helvetica,sans-Serif" font-size="10.00">Channel</text>
</a>
</g>
</g>
<!-- Node1&#45;&gt;Node6 -->
<g id="edge5_Node000001_Node000006" class="edge">
<title>Node1&#45;&gt;Node6</title>
<g id="a_edge5_Node000001_Node000006"><a xlink:title=" ">
<path fill="none" stroke="#63b8ff" d="M225.14,-69.99C245.13,-60.41 272.79,-47.87 298,-39 307.09,-35.8 316.83,-32.8 326.43,-30.08"/>
<polygon fill="#63b8ff" stroke="#63b8ff" points="223.46,-66.92 215.99,-74.43 226.51,-73.22 223.46,-66.92"/>
</a>
</g>
</g>
<!-- Node2 -->
<g id="Node000002" class="node">
<title>Node2</title>
<g id="a_Node000002"><a xlink:href="classRealm_1_1Channel.html" target="_top" xlink:title=" ">
<polygon fill="white" stroke="#666666" points="94,-93.5 0,-93.5 0,-74.5 94,-74.5 94,-93.5"/>
<text text-anchor="middle" x="47" y="-81.5" font-family="Helvetica,sans-Serif" font-size="10.00">Realm::Channel</text>
</a>
</g>
</g>
<!-- Node2&#45;&gt;Node1 -->
<g id="edge1_Node000001_Node000002" class="edge">
<title>Node2&#45;&gt;Node1</title>
<g id="a_edge1_Node000001_Node000002"><a xlink:title=" ">
<path fill="none" stroke="#63b8ff" d="M104.19,-84C112.61,-84 121.35,-84 129.94,-84"/>
<polygon fill="#63b8ff" stroke="#63b8ff" points="104.11,-80.5 94.11,-84 104.11,-87.5 104.11,-80.5"/>
</a>
</g>
</g>
</g>
</svg>
