<?xml version="1.0" encoding="UTF-8" standalone="no"?>
<!DOCTYPE svg PUBLIC "-//W3C//DTD SVG 1.1//EN"
 "http://www.w3.org/Graphics/SVG/1.1/DTD/svg11.dtd">
<!-- Generated by graphviz version 2.43.0 (0)
 -->
<!-- Title: Realm::PoisonedEventException Pages: 1 -->
<svg width="413pt" height="215pt"
 viewBox="0.00 0.00 413.00 215.00" xmlns="http://www.w3.org/2000/svg" xmlns:xlink="http://www.w3.org/1999/xlink">
<g id="graph0" class="graph" transform="scale(1 1) rotate(0) translate(4 211)">
<title>Realm::PoisonedEventException</title>
<!-- Node1 -->
<g id="Node000001" class="node">
<title>Node1</title>
<g id="a_Node000001"><a xlink:title=" ">
<polygon fill="#999999" stroke="#666666" points="309,-19 135,-19 135,0 309,0 309,-19"/>
<text text-anchor="middle" x="222" y="-7" font-family="Helvetica,sans-Serif" font-size="10.00">Realm::PoisonedEventException</text>
</a>
</g>
</g>
<!-- Node2 -->
<g id="Node000002" class="node">
<title>Node2</title>
<g id="a_Node000002"><a xlink:href="classRealm_1_1ExecutionException.html" target="_top" xlink:title=" ">
<polygon fill="white" stroke="#666666" points="230.5,-85 81.5,-85 81.5,-66 230.5,-66 230.5,-85"/>
<text text-anchor="middle" x="156" y="-73" font-family="Helvetica,sans-Serif" font-size="10.00">Realm::ExecutionException</text>
</a>
</g>
</g>
<!-- Node2&#45;&gt;Node1 -->
<g id="edge1_Node000001_Node000002" class="edge">
<title>Node2&#45;&gt;Node1</title>
<g id="a_edge1_Node000001_Node000002"><a xlink:title=" ">
<path fill="none" stroke="#63b8ff" d="M172.16,-58.83C184.94,-46.44 202.32,-29.59 212.82,-19.41"/>
<polygon fill="#63b8ff" stroke="#63b8ff" points="169.64,-56.39 164.9,-65.87 174.52,-61.42 169.64,-56.39"/>
</a>
</g>
</g>
<!-- Node3 -->
<g id="Node000003" class="node">
<title>Node3</title>
<g id="a_Node000003"><a xlink:title=" ">
<polygon fill="white" stroke="#666666" points="86,-151 0,-151 0,-132 86,-132 86,-151"/>
<text text-anchor="middle" x="43" y="-139" font-family="Helvetica,sans-Serif" font-size="10.00">std::exception</text>
</a>
</g>
</g>
<!-- Node3&#45;&gt;Node2 -->
<g id="edge2_Node000002_Node000003" class="edge">
<title>Node3&#45;&gt;Node2</title>
<g id="a_edge2_Node000002_Node000003"><a xlink:title=" ">
<path fill="none" stroke="#63b8ff" d="M67.09,-126.86C89.33,-114.26 121.71,-95.92 140.64,-85.2"/>
<polygon fill="#63b8ff" stroke="#63b8ff" points="65.22,-123.89 58.24,-131.87 68.67,-129.99 65.22,-123.89"/>
</a>
</g>
</g>
<!-- Node4 -->
<g id="Node000004" class="node">
<title>Node4</title>
<g id="a_Node000004"><a xlink:href="classRealm_1_1ByteArray.html" target="_top" xlink:title=" ">
<polygon fill="white" stroke="#666666" points="207.5,-151 104.5,-151 104.5,-132 207.5,-132 207.5,-151"/>
<text text-anchor="middle" x="156" y="-139" font-family="Helvetica,sans-Serif" font-size="10.00">Realm::ByteArray</text>
</a>
</g>
</g>
<!-- Node4&#45;&gt;Node2 -->
<g id="edge3_Node000002_Node000004" class="edge">
<title>Node4&#45;&gt;Node2</title>
<g id="a_edge3_Node000002_Node000004"><a xlink:title=" ">
<path fill="none" stroke="#9a32cd" stroke-dasharray="5,2" d="M156,-121.58C156,-109.63 156,-94.72 156,-85.41"/>
<polygon fill="#9a32cd" stroke="#9a32cd" points="152.5,-121.87 156,-131.87 159.5,-121.87 152.5,-121.87"/>
</a>
</g>
<text text-anchor="middle" x="174.5" y="-106" font-family="Helvetica,sans-Serif" font-size="10.00" fill="grey"> details</text>
</g>
<!-- Node5 -->
<g id="Node000005" class="node">
<title>Node5</title>
<g id="a_Node000005"><a xlink:href="classRealm_1_1ByteArrayRef.html" target="_top" xlink:title=" ">
<polygon fill="white" stroke="#666666" points="215.5,-207 96.5,-207 96.5,-188 215.5,-188 215.5,-207"/>
<text text-anchor="middle" x="156" y="-195" font-family="Helvetica,sans-Serif" font-size="10.00">Realm::ByteArrayRef</text>
</a>
</g>
</g>
<!-- Node5&#45;&gt;Node4 -->
<g id="edge4_Node000004_Node000005" class="edge">
<title>Node5&#45;&gt;Node4</title>
<g id="a_edge4_Node000004_Node000005"><a xlink:title=" ">
<path fill="none" stroke="#63b8ff" d="M156,-177.3C156,-168.41 156,-158.28 156,-151.25"/>
<polygon fill="#63b8ff" stroke="#63b8ff" points="152.5,-177.58 156,-187.58 159.5,-177.58 152.5,-177.58"/>
</a>
</g>
</g>
<!-- Node6 -->
<g id="Node000006" class="node">
<title>Node6</title>
<g id="a_Node000006"><a xlink:href="classRealm_1_1Backtrace.html" target="_top" xlink:title=" ">
<polygon fill="white" stroke="#666666" points="328.5,-151 225.5,-151 225.5,-132 328.5,-132 328.5,-151"/>
<text text-anchor="middle" x="277" y="-139" font-family="Helvetica,sans-Serif" font-size="10.00">Realm::Backtrace</text>
</a>
</g>
</g>
<!-- Node6&#45;&gt;Node2 -->
<g id="edge5_Node000002_Node000006" class="edge">
<title>Node6&#45;&gt;Node2</title>
<g id="a_edge5_Node000002_Node000006"><a xlink:title=" ">
<path fill="none" stroke="#9a32cd" stroke-dasharray="5,2" d="M251.53,-127.03C227.7,-114.42 192.8,-95.97 172.45,-85.2"/>
<polygon fill="#9a32cd" stroke="#9a32cd" points="250.21,-130.29 260.68,-131.87 253.48,-124.1 250.21,-130.29"/>
</a>
</g>
<text text-anchor="middle" x="250" y="-106" font-family="Helvetica,sans-Serif" font-size="10.00" fill="grey"> backtrace</text>
</g>
<!-- Node7 -->
<g id="Node000007" class="node">
<title>Node7</title>
<g id="a_Node000007"><a xlink:href="classRealm_1_1Event.html" target="_top" xlink:title=" ">
<polygon fill="white" stroke="#666666" points="331,-85 249,-85 249,-66 331,-66 331,-85"/>
<text text-anchor="middle" x="290" y="-73" font-family="Helvetica,sans-Serif" font-size="10.00">Realm::Event</text>
</a>
</g>
</g>
<!-- Node7&#45;&gt;Node1 -->
<g id="edge6_Node000001_Node000007" class="edge">
<title>Node7&#45;&gt;Node1</title>
<g id="a_edge6_Node000001_Node000007"><a xlink:title=" ">
<path fill="none" stroke="#9a32cd" stroke-dasharray="5,2" d="M273.35,-58.83C260.19,-46.44 242.28,-29.59 231.46,-19.41"/>
<polygon fill="#9a32cd" stroke="#9a32cd" points="271.15,-61.56 280.83,-65.87 275.95,-56.47 271.15,-61.56"/>
</a>
</g>
<text text-anchor="middle" x="276.5" y="-40" font-family="Helvetica,sans-Serif" font-size="10.00" fill="grey"> event</text>
</g>
<!-- Node7&#45;&gt;Node7 -->
<g id="edge7_Node000007_Node000007" class="edge">
<title>Node7&#45;&gt;Node7</title>
<g id="a_edge7_Node000007_Node000007"><a xlink:title=" ">
<path fill="none" stroke="#9a32cd" stroke-dasharray="5,2" d="M341.26,-80.29C346.01,-79.31 349,-77.71 349,-75.5 349,-71.97 341.34,-70 331.08,-69.58"/>
<polygon fill="#9a32cd" stroke="#9a32cd" points="340.64,-76.84 331.08,-81.42 341.41,-83.8 340.64,-76.84"/>
</a>
</g>
<text text-anchor="middle" x="377" y="-73" font-family="Helvetica,sans-Serif" font-size="10.00" fill="grey"> NO_EVENT</text>
</g>
</g>
</svg>
