<?xml version="1.0" encoding="UTF-8" standalone="no"?>
<!DOCTYPE svg PUBLIC "-//W3C//DTD SVG 1.1//EN"
 "http://www.w3.org/Graphics/SVG/1.1/DTD/svg11.dtd">
<!-- Generated by graphviz version 2.43.0 (0)
 -->
<!-- Title: Realm::UCP::UCPIBMemory Pages: 1 -->
<svg width="316pt" height="148pt"
 viewBox="0.00 0.00 315.50 148.00" xmlns="http://www.w3.org/2000/svg" xmlns:xlink="http://www.w3.org/1999/xlink">
<g id="graph0" class="graph" transform="scale(1 1) rotate(0) translate(4 144)">
<title>Realm::UCP::UCPIBMemory</title>
<!-- Node1 -->
<g id="Node000001" class="node">
<title>Node1</title>
<g id="a_Node000001"><a xlink:title=" ">
<polygon fill="#999999" stroke="#666666" points="245,-19 94,-19 94,0 245,0 245,-19"/>
<text text-anchor="middle" x="169.5" y="-7" font-family="Helvetica,sans-Serif" font-size="10.00">Realm::UCP::UCPIBMemory</text>
</a>
</g>
</g>
<!-- Node2 -->
<g id="Node000002" class="node">
<title>Node2</title>
<g id="a_Node000002"><a xlink:href="classRealm_1_1UCP_1_1UCPRemoteMemoryCommon.html" target="_top" xlink:title=" ">
<polygon fill="white" stroke="#666666" points="179,-85 0,-85 0,-55 179,-55 179,-85"/>
<text text-anchor="start" x="8" y="-73" font-family="Helvetica,sans-Serif" font-size="10.00">Realm::UCP::UCPRemoteMemory</text>
<text text-anchor="middle" x="89.5" y="-62" font-family="Helvetica,sans-Serif" font-size="10.00">Common</text>
</a>
</g>
</g>
<!-- Node2&#45;&gt;Node1 -->
<g id="edge1_Node000001_Node000002" class="edge">
<title>Node2&#45;&gt;Node1</title>
<g id="a_edge1_Node000001_Node000002"><a xlink:title=" ">
<path fill="none" stroke="#63b8ff" d="M117.1,-48.82C130.89,-38.73 146.86,-27.05 157.51,-19.27"/>
<polygon fill="#63b8ff" stroke="#63b8ff" points="114.87,-46.11 108.87,-54.84 119,-51.76 114.87,-46.11"/>
</a>
</g>
</g>
<!-- Node3 -->
<g id="Node000003" class="node">
<title>Node3</title>
<g id="a_Node000003"><a xlink:href="classRealm_1_1IBMemory.html" target="_top" xlink:title=" ">
<polygon fill="white" stroke="#666666" points="301.5,-79.5 197.5,-79.5 197.5,-60.5 301.5,-60.5 301.5,-79.5"/>
<text text-anchor="middle" x="249.5" y="-67.5" font-family="Helvetica,sans-Serif" font-size="10.00">Realm::IBMemory</text>
</a>
</g>
</g>
<!-- Node3&#45;&gt;Node1 -->
<g id="edge2_Node000001_Node000003" class="edge">
<title>Node3&#45;&gt;Node1</title>
<g id="a_edge2_Node000001_Node000003"><a xlink:title=" ">
<path fill="none" stroke="#63b8ff" d="M229.46,-54.35C214.31,-43.27 194.02,-28.43 181.35,-19.17"/>
<polygon fill="#63b8ff" stroke="#63b8ff" points="227.56,-57.29 237.7,-60.37 231.69,-51.64 227.56,-57.29"/>
</a>
</g>
</g>
<!-- Node4 -->
<g id="Node000004" class="node">
<title>Node4</title>
<g id="a_Node000004"><a xlink:href="classRealm_1_1MemoryImpl.html" target="_top" xlink:title=" ">
<polygon fill="white" stroke="#666666" points="307.5,-140 191.5,-140 191.5,-121 307.5,-121 307.5,-140"/>
<text text-anchor="middle" x="249.5" y="-128" font-family="Helvetica,sans-Serif" font-size="10.00">Realm::MemoryImpl</text>
</a>
</g>
</g>
<!-- Node4&#45;&gt;Node3 -->
<g id="edge3_Node000003_Node000004" class="edge">
<title>Node4&#45;&gt;Node3</title>
<g id="a_edge3_Node000003_Node000004"><a xlink:title=" ">
<path fill="none" stroke="#63b8ff" d="M249.5,-110.66C249.5,-100.24 249.5,-87.8 249.5,-79.67"/>
<polygon fill="#63b8ff" stroke="#63b8ff" points="246,-110.87 249.5,-120.87 253,-110.87 246,-110.87"/>
</a>
</g>
</g>
</g>
</svg>
