<?xml version="1.0" encoding="UTF-8" standalone="no"?>
<!DOCTYPE svg PUBLIC "-//W3C//DTD SVG 1.1//EN"
 "http://www.w3.org/Graphics/SVG/1.1/DTD/svg11.dtd">
<!-- Generated by graphviz version 2.43.0 (0)
 -->
<!-- Title: Realm::Cuda::GPUTransferCompletion Pages: 1 -->
<svg width="1529pt" height="414pt"
 viewBox="0.00 0.00 1529.00 414.00" xmlns="http://www.w3.org/2000/svg" xmlns:xlink="http://www.w3.org/1999/xlink">
<g id="graph0" class="graph" transform="scale(1 1) rotate(0) translate(4 410)">
<title>Realm::Cuda::GPUTransferCompletion</title>
<!-- Node1 -->
<g id="Node000001" class="node">
<title>Node1</title>
<g id="a_Node000001"><a xlink:title=" ">
<polygon fill="#999999" stroke="#666666" points="1517,-302 1372,-302 1372,-272 1517,-272 1517,-302"/>
<text text-anchor="start" x="1380" y="-290" font-family="Helvetica,sans-Serif" font-size="10.00">Realm::Cuda::GPUTransfer</text>
<text text-anchor="middle" x="1444.5" y="-279" font-family="Helvetica,sans-Serif" font-size="10.00">Completion</text>
</a>
</g>
</g>
<!-- Node2 -->
<g id="Node000002" class="node">
<title>Node2</title>
<g id="a_Node000002"><a xlink:href="classRealm_1_1Cuda_1_1GPUCompletionNotification.html" target="_top" xlink:title=" ">
<polygon fill="white" stroke="#666666" points="1239,-315 1077,-315 1077,-285 1239,-285 1239,-315"/>
<text text-anchor="start" x="1085" y="-303" font-family="Helvetica,sans-Serif" font-size="10.00">Realm::Cuda::GPUCompletion</text>
<text text-anchor="middle" x="1158" y="-292" font-family="Helvetica,sans-Serif" font-size="10.00">Notification</text>
</a>
</g>
</g>
<!-- Node2&#45;&gt;Node1 -->
<g id="edge1_Node000001_Node000002" class="edge">
<title>Node2&#45;&gt;Node1</title>
<g id="a_edge1_Node000001_Node000002"><a xlink:title=" ">
<path fill="none" stroke="#63b8ff" d="M1249.2,-295.88C1288.8,-294.07 1334.64,-291.97 1371.86,-290.27"/>
<polygon fill="#63b8ff" stroke="#63b8ff" points="1248.84,-292.39 1239.01,-296.34 1249.16,-299.38 1248.84,-292.39"/>
</a>
</g>
</g>
<!-- Node3 -->
<g id="Node000003" class="node">
<title>Node3</title>
<g id="a_Node000003"><a xlink:href="classRealm_1_1XferDes.html" target="_top" xlink:title=" ">
<polygon fill="white" stroke="#666666" points="1204.5,-210.5 1111.5,-210.5 1111.5,-191.5 1204.5,-191.5 1204.5,-210.5"/>
<text text-anchor="middle" x="1158" y="-198.5" font-family="Helvetica,sans-Serif" font-size="10.00">Realm::XferDes</text>
</a>
</g>
</g>
<!-- Node3&#45;&gt;Node1 -->
<g id="edge2_Node000001_Node000003" class="edge">
<title>Node3&#45;&gt;Node1</title>
<g id="a_edge2_Node000001_Node000003"><a xlink:title=" ">
<path fill="none" stroke="#9a32cd" stroke-dasharray="5,2" d="M1191.49,-214.24C1210.43,-221.71 1234.87,-230.94 1257,-238 1297.34,-250.88 1343.35,-262.99 1379.58,-271.95"/>
<polygon fill="#9a32cd" stroke="#9a32cd" points="1192.71,-210.96 1182.13,-210.51 1190.12,-217.46 1192.71,-210.96"/>
</a>
</g>
<text text-anchor="middle" x="1303.5" y="-267" font-family="Helvetica,sans-Serif" font-size="10.00" fill="grey"> xd</text>
</g>
<!-- Node17 -->
<g id="Node000017" class="node">
<title>Node17</title>
<g id="a_Node000017"><a xlink:href="structRealm_1_1IntrusivePriorityListLink.html" target="_top" xlink:title=" ">
<polygon fill="white" stroke="#666666" points="1521,-216 1368,-216 1368,-186 1521,-186 1521,-216"/>
<text text-anchor="start" x="1376" y="-204" font-family="Helvetica,sans-Serif" font-size="10.00">Realm::IntrusivePriority</text>
<text text-anchor="middle" x="1444.5" y="-193" font-family="Helvetica,sans-Serif" font-size="10.00">ListLink&lt; Realm::XferDes &gt;</text>
</a>
</g>
</g>
<!-- Node3&#45;&gt;Node17 -->
<g id="edge18_Node000017_Node000003" class="edge">
<title>Node3&#45;&gt;Node17</title>
<g id="a_edge18_Node000017_Node000003"><a xlink:title=" ">
<path fill="none" stroke="#9a32cd" stroke-dasharray="5,2" d="M1214.87,-201C1258.59,-201 1319.84,-201 1367.94,-201"/>
<polygon fill="#9a32cd" stroke="#9a32cd" points="1214.71,-197.5 1204.71,-201 1214.71,-204.5 1214.71,-197.5"/>
</a>
</g>
<text text-anchor="middle" x="1303.5" y="-226" font-family="Helvetica,sans-Serif" font-size="10.00" fill="grey"> lastlink_within_pri</text>
<text text-anchor="middle" x="1303.5" y="-215" font-family="Helvetica,sans-Serif" font-size="10.00" fill="grey">next_lower_pri</text>
<text text-anchor="middle" x="1303.5" y="-204" font-family="Helvetica,sans-Serif" font-size="10.00" fill="grey">next_within_pri</text>
</g>
<!-- Node18 -->
<g id="Node000018" class="node">
<title>Node18</title>
<g id="a_Node000018"><a xlink:href="classRealm_1_1XferDes_1_1DeferredXDEnqueue.html" target="_top" xlink:title=" ">
<polygon fill="white" stroke="#666666" points="1515.5,-114 1373.5,-114 1373.5,-84 1515.5,-84 1515.5,-114"/>
<text text-anchor="start" x="1381.5" y="-102" font-family="Helvetica,sans-Serif" font-size="10.00">Realm::XferDes::Deferred</text>
<text text-anchor="middle" x="1444.5" y="-91" font-family="Helvetica,sans-Serif" font-size="10.00">XDEnqueue</text>
</a>
</g>
</g>
<!-- Node3&#45;&gt;Node18 -->
<g id="edge24_Node000018_Node000003" class="edge">
<title>Node3&#45;&gt;Node18</title>
<g id="a_edge24_Node000018_Node000003"><a xlink:title=" ">
<path fill="none" stroke="#9a32cd" stroke-dasharray="5,2" d="M1195.11,-188.05C1247.8,-169.16 1345.55,-134.12 1401.42,-114.09"/>
<polygon fill="#9a32cd" stroke="#9a32cd" points="1193.74,-184.83 1185.51,-191.5 1196.1,-191.42 1193.74,-184.83"/>
</a>
</g>
<text text-anchor="middle" x="1303.5" y="-169" font-family="Helvetica,sans-Serif" font-size="10.00" fill="grey"> xd</text>
</g>
<!-- Node4 -->
<g id="Node000004" class="node">
<title>Node4</title>
<g id="a_Node000004"><a xlink:href="classRealm_1_1XferDesQueue.html" target="_top" xlink:title=" ">
<polygon fill="white" stroke="#666666" points="918,-114.5 793,-114.5 793,-95.5 918,-95.5 918,-114.5"/>
<text text-anchor="middle" x="855.5" y="-102.5" font-family="Helvetica,sans-Serif" font-size="10.00">Realm::XferDesQueue</text>
</a>
</g>
</g>
<!-- Node4&#45;&gt;Node3 -->
<g id="edge3_Node000003_Node000004" class="edge">
<title>Node4&#45;&gt;Node3</title>
<g id="a_edge3_Node000003_Node000004"><a xlink:title=" ">
<path fill="none" stroke="#9a32cd" stroke-dasharray="5,2" d="M928.19,-108.4C967.83,-112.14 1017.34,-119.9 1059,-136 1093.85,-149.47 1128.95,-176.9 1146.14,-191.44"/>
<polygon fill="#9a32cd" stroke="#9a32cd" points="928.34,-104.9 918.08,-107.52 927.73,-111.88 928.34,-104.9"/>
</a>
</g>
<text text-anchor="middle" x="1005" y="-139" font-family="Helvetica,sans-Serif" font-size="10.00" fill="grey"> xferDes_queue</text>
</g>
<!-- Node4&#45;&gt;Node18 -->
<g id="edge23_Node000018_Node000004" class="edge">
<title>Node4&#45;&gt;Node18</title>
<g id="a_edge23_Node000018_Node000004"><a xlink:title=" ">
<path fill="none" stroke="#9a32cd" stroke-dasharray="5,2" d="M928.22,-102.63C1024.26,-99.73 1199.95,-95.4 1350,-97 1357.55,-97.08 1365.44,-97.2 1373.3,-97.34"/>
<polygon fill="#9a32cd" stroke="#9a32cd" points="927.93,-99.14 918.05,-102.94 928.15,-106.13 927.93,-99.14"/>
</a>
</g>
<text text-anchor="middle" x="1158" y="-102" font-family="Helvetica,sans-Serif" font-size="10.00" fill="grey"> xferDes_queue</text>
</g>
<!-- Node5 -->
<g id="Node000005" class="node">
<title>Node5</title>
<g id="a_Node000005"><a xlink:href="classRealm_1_1UnfairMutex.html" target="_top" xlink:title=" ">
<polygon fill="white" stroke="#666666" points="622.5,-204.5 507.5,-204.5 507.5,-185.5 622.5,-185.5 622.5,-204.5"/>
<text text-anchor="middle" x="565" y="-192.5" font-family="Helvetica,sans-Serif" font-size="10.00">Realm::UnfairMutex</text>
</a>
</g>
</g>
<!-- Node5&#45;&gt;Node3 -->
<g id="edge15_Node000003_Node000005" class="edge">
<title>Node5&#45;&gt;Node3</title>
<g id="a_edge15_Node000003_Node000005"><a xlink:title=" ">
<path fill="none" stroke="#9a32cd" stroke-dasharray="5,2" d="M632.61,-200.68C727.37,-207.95 906.55,-218.76 1059,-211 1076.08,-210.13 1094.77,-208.41 1111.21,-206.65"/>
<polygon fill="#9a32cd" stroke="#9a32cd" points="632.83,-197.18 622.59,-199.9 632.29,-204.16 632.83,-197.18"/>
</a>
</g>
<text text-anchor="middle" x="855.5" y="-250" font-family="Helvetica,sans-Serif" font-size="10.00" fill="grey"> available_req_mutex</text>
<text text-anchor="middle" x="855.5" y="-239" font-family="Helvetica,sans-Serif" font-size="10.00" fill="grey">update_read_lock</text>
<text text-anchor="middle" x="855.5" y="-228" font-family="Helvetica,sans-Serif" font-size="10.00" fill="grey">update_write_lock</text>
<text text-anchor="middle" x="855.5" y="-217" font-family="Helvetica,sans-Serif" font-size="10.00" fill="grey">xd_lock</text>
</g>
<!-- Node5&#45;&gt;Node4 -->
<g id="edge4_Node000004_Node000005" class="edge">
<title>Node5&#45;&gt;Node4</title>
<g id="a_edge4_Node000004_Node000005"><a xlink:title=" ">
<path fill="none" stroke="#9a32cd" stroke-dasharray="5,2" d="M600.97,-181.97C642.73,-166.67 714.87,-141.1 778,-123 788.49,-119.99 799.9,-117.11 810.62,-114.56"/>
<polygon fill="#9a32cd" stroke="#9a32cd" points="599.71,-178.7 591.53,-185.44 602.12,-185.27 599.71,-178.7"/>
</a>
</g>
<text text-anchor="middle" x="711.5" y="-173" font-family="Helvetica,sans-Serif" font-size="10.00" fill="grey"> guid_lock</text>
<text text-anchor="middle" x="711.5" y="-162" font-family="Helvetica,sans-Serif" font-size="10.00" fill="grey">queues_lock</text>
</g>
<!-- Node6 -->
<g id="Node000006" class="node">
<title>Node6</title>
<g id="a_Node000006"><a xlink:href="classRealm_1_1noncopyable.html" target="_top" xlink:title=" ">
<polygon fill="white" stroke="#666666" points="396,-241.5 280,-241.5 280,-222.5 396,-222.5 396,-241.5"/>
<text text-anchor="middle" x="338" y="-229.5" font-family="Helvetica,sans-Serif" font-size="10.00">Realm::noncopyable</text>
</a>
</g>
</g>
<!-- Node6&#45;&gt;Node5 -->
<g id="edge5_Node000005_Node000006" class="edge">
<title>Node6&#45;&gt;Node5</title>
<g id="a_edge5_Node000005_Node000006"><a xlink:title=" ">
<path fill="none" stroke="#63b8ff" d="M406.3,-220.93C438.52,-215.63 476.68,-209.36 507.38,-204.31"/>
<polygon fill="#63b8ff" stroke="#63b8ff" points="405.37,-217.54 396.07,-222.62 406.5,-224.45 405.37,-217.54"/>
</a>
</g>
</g>
<!-- Node7 -->
<g id="Node000007" class="node">
<title>Node7</title>
<g id="a_Node000007"><a xlink:href="classRealm_1_1atomic.html" target="_top" xlink:title=" ">
<polygon fill="white" stroke="#666666" points="413,-204.5 263,-204.5 263,-185.5 413,-185.5 413,-204.5"/>
<text text-anchor="middle" x="338" y="-192.5" font-family="Helvetica,sans-Serif" font-size="10.00">Realm::atomic&lt; uint32_t &gt;</text>
</a>
</g>
</g>
<!-- Node7&#45;&gt;Node5 -->
<g id="edge6_Node000005_Node000007" class="edge">
<title>Node7&#45;&gt;Node5</title>
<g id="a_edge6_Node000005_Node000007"><a xlink:title=" ">
<path fill="none" stroke="#9a32cd" stroke-dasharray="5,2" d="M423.47,-195C451.44,-195 481.88,-195 507.25,-195"/>
<polygon fill="#9a32cd" stroke="#9a32cd" points="423.3,-191.5 413.3,-195 423.3,-198.5 423.3,-191.5"/>
</a>
</g>
<text text-anchor="middle" x="449" y="-198" font-family="Helvetica,sans-Serif" font-size="10.00" fill="grey"> state</text>
</g>
<!-- Node8 -->
<g id="Node000008" class="node">
<title>Node8</title>
<g id="a_Node000008"><a xlink:href="classRealm_1_1DoorbellList.html" target="_top" xlink:title=" ">
<polygon fill="white" stroke="#666666" points="394.5,-167.5 281.5,-167.5 281.5,-148.5 394.5,-148.5 394.5,-167.5"/>
<text text-anchor="middle" x="338" y="-155.5" font-family="Helvetica,sans-Serif" font-size="10.00">Realm::DoorbellList</text>
</a>
</g>
</g>
<!-- Node8&#45;&gt;Node5 -->
<g id="edge7_Node000005_Node000008" class="edge">
<title>Node8&#45;&gt;Node5</title>
<g id="a_edge7_Node000005_Node000008"><a xlink:title=" ">
<path fill="none" stroke="#9a32cd" stroke-dasharray="5,2" d="M404.52,-168.77C437.13,-174.14 476.17,-180.56 507.46,-185.7"/>
<polygon fill="#9a32cd" stroke="#9a32cd" points="405.05,-165.32 394.62,-167.15 403.92,-172.22 405.05,-165.32"/>
</a>
</g>
<text text-anchor="middle" x="449" y="-182" font-family="Helvetica,sans-Serif" font-size="10.00" fill="grey"> db_list</text>
</g>
<!-- Node9 -->
<g id="Node000009" class="node">
<title>Node9</title>
<g id="a_Node000009"><a xlink:href="classRealm_1_1atomic.html" target="_top" xlink:title=" ">
<polygon fill="white" stroke="#666666" points="152,-167.5 0,-167.5 0,-148.5 152,-148.5 152,-167.5"/>
<text text-anchor="middle" x="76" y="-155.5" font-family="Helvetica,sans-Serif" font-size="10.00">Realm::atomic&lt; uintptr_t &gt;</text>
</a>
</g>
</g>
<!-- Node9&#45;&gt;Node8 -->
<g id="edge8_Node000008_Node000009" class="edge">
<title>Node9&#45;&gt;Node8</title>
<g id="a_edge8_Node000008_Node000009"><a xlink:title=" ">
<path fill="none" stroke="#9a32cd" stroke-dasharray="5,2" d="M162.52,-158C201.61,-158 246.79,-158 281.38,-158"/>
<polygon fill="#9a32cd" stroke="#9a32cd" points="162.2,-154.5 152.2,-158 162.2,-161.5 162.2,-154.5"/>
</a>
</g>
<text text-anchor="middle" x="207.5" y="-161" font-family="Helvetica,sans-Serif" font-size="10.00" fill="grey"> head_or_count</text>
</g>
<!-- Node10 -->
<g id="Node000010" class="node">
<title>Node10</title>
<g id="a_Node000010"><a xlink:href="classRealm_1_1atomic.html" target="_top" xlink:title=" ">
<polygon fill="white" stroke="#666666" points="645,-114.5 485,-114.5 485,-95.5 645,-95.5 645,-114.5"/>
<text text-anchor="middle" x="565" y="-102.5" font-family="Helvetica,sans-Serif" font-size="10.00">Realm::atomic&lt; XferDesID &gt;</text>
</a>
</g>
</g>
<!-- Node10&#45;&gt;Node4 -->
<g id="edge9_Node000004_Node000010" class="edge">
<title>Node10&#45;&gt;Node4</title>
<g id="a_edge9_Node000004_Node000010"><a xlink:title=" ">
<path fill="none" stroke="#9a32cd" stroke-dasharray="5,2" d="M655.47,-105C700.06,-105 752.84,-105 792.84,-105"/>
<polygon fill="#9a32cd" stroke="#9a32cd" points="655.22,-101.5 645.22,-105 655.22,-108.5 655.22,-101.5"/>
</a>
</g>
<text text-anchor="middle" x="711.5" y="-108" font-family="Helvetica,sans-Serif" font-size="10.00" fill="grey"> next_to_assign_idx</text>
</g>
<!-- Node11 -->
<g id="Node000011" class="node">
<title>Node11</title>
<g id="a_Node000011"><a xlink:href="classRealm_1_1atomic.html" target="_top" xlink:title=" ">
<polygon fill="white" stroke="#666666" points="921,-188.5 790,-188.5 790,-169.5 921,-169.5 921,-188.5"/>
<text text-anchor="middle" x="855.5" y="-176.5" font-family="Helvetica,sans-Serif" font-size="10.00">Realm::atomic&lt; bool &gt;</text>
</a>
</g>
</g>
<!-- Node11&#45;&gt;Node3 -->
<g id="edge10_Node000003_Node000011" class="edge">
<title>Node11&#45;&gt;Node3</title>
<g id="a_edge10_Node000003_Node000011"><a xlink:title=" ">
<path fill="none" stroke="#9a32cd" stroke-dasharray="5,2" d="M931.36,-181.4C969.59,-182.96 1016.83,-185.38 1059,-189 1076.08,-190.47 1094.77,-192.62 1111.2,-194.7"/>
<polygon fill="#9a32cd" stroke="#9a32cd" points="931.46,-177.9 921.33,-181 931.18,-184.9 931.46,-177.9"/>
</a>
</g>
<text text-anchor="middle" x="1005" y="-203" font-family="Helvetica,sans-Serif" font-size="10.00" fill="grey"> iteration_completed</text>
<text text-anchor="middle" x="1005" y="-192" font-family="Helvetica,sans-Serif" font-size="10.00" fill="grey">transfer_completed</text>
</g>
<!-- Node12 -->
<g id="Node000012" class="node">
<title>Node12</title>
<g id="a_Node000012"><a xlink:href="classRealm_1_1atomic.html" target="_top" xlink:title=" ">
<polygon fill="white" stroke="#666666" points="927.5,-151.5 783.5,-151.5 783.5,-132.5 927.5,-132.5 927.5,-151.5"/>
<text text-anchor="middle" x="855.5" y="-139.5" font-family="Helvetica,sans-Serif" font-size="10.00">Realm::atomic&lt; int64_t &gt;</text>
</a>
</g>
</g>
<!-- Node12&#45;&gt;Node3 -->
<g id="edge11_Node000003_Node000012" class="edge">
<title>Node12&#45;&gt;Node3</title>
<g id="a_edge11_Node000003_Node000012"><a xlink:title=" ">
<path fill="none" stroke="#9a32cd" stroke-dasharray="5,2" d="M938.14,-148.78C975.31,-152.81 1019.69,-158.95 1059,-168 1084.72,-173.92 1113.21,-183.92 1132.82,-191.37"/>
<polygon fill="#9a32cd" stroke="#9a32cd" points="938.17,-145.26 927.86,-147.7 937.44,-152.22 938.17,-145.26"/>
</a>
</g>
<text text-anchor="middle" x="1005" y="-171" font-family="Helvetica,sans-Serif" font-size="10.00" fill="grey"> bytes_write_pending</text>
</g>
<!-- Node13 -->
<g id="Node000013" class="node">
<title>Node13</title>
<g id="a_Node000013"><a xlink:href="structRealm_1_1XferDes_1_1ControlPortState.html" target="_top" xlink:title=" ">
<polygon fill="white" stroke="#666666" points="932.5,-392 778.5,-392 778.5,-362 932.5,-362 932.5,-392"/>
<text text-anchor="start" x="786.5" y="-380" font-family="Helvetica,sans-Serif" font-size="10.00">Realm::XferDes::ControlPort</text>
<text text-anchor="middle" x="855.5" y="-369" font-family="Helvetica,sans-Serif" font-size="10.00">State</text>
</a>
</g>
</g>
<!-- Node13&#45;&gt;Node3 -->
<g id="edge12_Node000003_Node000013" class="edge">
<title>Node13&#45;&gt;Node3</title>
<g id="a_edge12_Node000003_Node000013"><a xlink:title=" ">
<path fill="none" stroke="#9a32cd" stroke-dasharray="5,2" d="M942.93,-384.74C982.78,-383.62 1028.01,-375.01 1059,-347 1083.15,-325.17 1060.46,-304.04 1077,-276 1093.73,-247.63 1124.39,-223.35 1142.5,-210.59"/>
<polygon fill="#9a32cd" stroke="#9a32cd" points="942.88,-381.24 932.93,-384.88 942.98,-388.24 942.88,-381.24"/>
</a>
</g>
<text text-anchor="middle" x="1005" y="-398" font-family="Helvetica,sans-Serif" font-size="10.00" fill="grey"> input_control</text>
<text text-anchor="middle" x="1005" y="-387" font-family="Helvetica,sans-Serif" font-size="10.00" fill="grey">output_control</text>
</g>
<!-- Node14 -->
<g id="Node000014" class="node">
<title>Node14</title>
<g id="a_Node000014"><a xlink:href="classRealm_1_1ControlPort_1_1Decoder.html" target="_top" xlink:title=" ">
<polygon fill="white" stroke="#666666" points="619.5,-392 510.5,-392 510.5,-362 619.5,-362 619.5,-392"/>
<text text-anchor="start" x="518.5" y="-380" font-family="Helvetica,sans-Serif" font-size="10.00">Realm::ControlPort</text>
<text text-anchor="middle" x="565" y="-369" font-family="Helvetica,sans-Serif" font-size="10.00">::Decoder</text>
</a>
</g>
</g>
<!-- Node14&#45;&gt;Node13 -->
<g id="edge13_Node000013_Node000014" class="edge">
<title>Node14&#45;&gt;Node13</title>
<g id="a_edge13_Node000013_Node000014"><a xlink:title=" ">
<path fill="none" stroke="#9a32cd" stroke-dasharray="5,2" d="M629.84,-377C673.68,-377 732.08,-377 778.36,-377"/>
<polygon fill="#9a32cd" stroke="#9a32cd" points="629.59,-373.5 619.59,-377 629.59,-380.5 629.59,-373.5"/>
</a>
</g>
<text text-anchor="middle" x="711.5" y="-380" font-family="Helvetica,sans-Serif" font-size="10.00" fill="grey"> decoder</text>
</g>
<!-- Node15 -->
<g id="Node000015" class="node">
<title>Node15</title>
<g id="a_Node000015"><a xlink:href="classRealm_1_1Channel.html" target="_top" xlink:title=" ">
<polygon fill="white" stroke="#666666" points="902.5,-343.5 808.5,-343.5 808.5,-324.5 902.5,-324.5 902.5,-343.5"/>
<text text-anchor="middle" x="855.5" y="-331.5" font-family="Helvetica,sans-Serif" font-size="10.00">Realm::Channel</text>
</a>
</g>
</g>
<!-- Node15&#45;&gt;Node3 -->
<g id="edge14_Node000003_Node000015" class="edge">
<title>Node15&#45;&gt;Node3</title>
<g id="a_edge14_Node000003_Node000015"><a xlink:title=" ">
<path fill="none" stroke="#9a32cd" stroke-dasharray="5,2" d="M912.75,-333.81C964.33,-332.59 1036.07,-327.95 1059,-312 1073.69,-301.79 1066.31,-290.34 1077,-276 1097.03,-249.14 1127.33,-223.76 1144.31,-210.53"/>
<polygon fill="#9a32cd" stroke="#9a32cd" points="912.66,-330.31 902.73,-334.01 912.79,-337.31 912.66,-330.31"/>
</a>
</g>
<text text-anchor="middle" x="1005" y="-335" font-family="Helvetica,sans-Serif" font-size="10.00" fill="grey"> channel</text>
</g>
<!-- Node16 -->
<g id="Node000016" class="node">
<title>Node16</title>
<g id="a_Node000016"><a xlink:href="classRealm_1_1atomic.html" target="_top" xlink:title=" ">
<polygon fill="white" stroke="#666666" points="933,-306.5 778,-306.5 778,-287.5 933,-287.5 933,-306.5"/>
<text text-anchor="middle" x="855.5" y="-294.5" font-family="Helvetica,sans-Serif" font-size="10.00">Realm::atomic&lt; unsigned &gt;</text>
</a>
</g>
</g>
<!-- Node16&#45;&gt;Node3 -->
<g id="edge16_Node000003_Node000016" class="edge">
<title>Node16&#45;&gt;Node3</title>
<g id="a_edge16_Node000003_Node000016"><a xlink:title=" ">
<path fill="none" stroke="#9a32cd" stroke-dasharray="5,2" d="M896.65,-284.34C913.41,-279.14 933.11,-273.15 951,-268 998.76,-254.26 1011.76,-254.45 1059,-239 1085.19,-230.43 1114.58,-218.75 1134.28,-210.61"/>
<polygon fill="#9a32cd" stroke="#9a32cd" points="895.14,-281.14 886.64,-287.45 897.22,-287.82 895.14,-281.14"/>
</a>
</g>
<text text-anchor="start" x="951" y="-304" font-family="Helvetica,sans-Serif" font-size="10.00" fill="grey"> nb_update_pre_bytes</text>
<text text-anchor="middle" x="1005" y="-293" font-family="Helvetica,sans-Serif" font-size="10.00" fill="grey">_total_calls_received</text>
<text text-anchor="middle" x="1005" y="-282" font-family="Helvetica,sans-Serif" font-size="10.00" fill="grey">progress_counter</text>
<text text-anchor="middle" x="1005" y="-271" font-family="Helvetica,sans-Serif" font-size="10.00" fill="grey">reference_count</text>
</g>
<!-- Node17&#45;&gt;Node3 -->
<g id="edge17_Node000003_Node000017" class="edge">
<title>Node17&#45;&gt;Node3</title>
<g id="a_edge17_Node000003_Node000017"><a xlink:title=" ">
<path fill="none" stroke="#9a32cd" stroke-dasharray="5,2" d="M1357.74,-185.74C1355.13,-185.47 1352.55,-185.22 1350,-185 1308.81,-181.5 1298.2,-181.66 1257,-185 1239.82,-186.39 1221.1,-189.14 1204.68,-191.97"/>
<polygon fill="#9a32cd" stroke="#9a32cd" points="1357.52,-189.24 1367.86,-186.94 1358.34,-182.29 1357.52,-189.24"/>
</a>
</g>
<text text-anchor="middle" x="1303.5" y="-188" font-family="Helvetica,sans-Serif" font-size="10.00" fill="grey"> xd_link</text>
</g>
<!-- Node18&#45;&gt;Node3 -->
<g id="edge19_Node000003_Node000018" class="edge">
<title>Node18&#45;&gt;Node3</title>
<g id="a_edge19_Node000003_Node000018"><a xlink:title=" ">
<path fill="none" stroke="#9a32cd" stroke-dasharray="5,2" d="M1362.94,-96.21C1329.06,-97.68 1289.96,-102.97 1257,-117 1217.21,-133.94 1181.71,-173.08 1166.65,-191.32"/>
<polygon fill="#9a32cd" stroke="#9a32cd" points="1363.39,-99.69 1373.27,-95.87 1363.16,-92.7 1363.39,-99.69"/>
</a>
</g>
<text text-anchor="middle" x="1303.5" y="-120" font-family="Helvetica,sans-Serif" font-size="10.00" fill="grey"> deferred_enqueue</text>
</g>
<!-- Node19 -->
<g id="Node000019" class="node">
<title>Node19</title>
<g id="a_Node000019"><a xlink:href="classRealm_1_1EventWaiter.html" target="_top" xlink:title=" ">
<polygon fill="white" stroke="#666666" points="1214.5,-41.5 1101.5,-41.5 1101.5,-22.5 1214.5,-22.5 1214.5,-41.5"/>
<text text-anchor="middle" x="1158" y="-29.5" font-family="Helvetica,sans-Serif" font-size="10.00">Realm::EventWaiter</text>
</a>
</g>
</g>
<!-- Node19&#45;&gt;Node18 -->
<g id="edge20_Node000018_Node000019" class="edge">
<title>Node19&#45;&gt;Node18</title>
<g id="a_edge20_Node000018_Node000019"><a xlink:title=" ">
<path fill="none" stroke="#63b8ff" d="M1219.32,-43.43C1257.04,-50.88 1306.54,-61.19 1350,-72 1364.26,-75.55 1379.63,-79.8 1393.71,-83.87"/>
<polygon fill="#63b8ff" stroke="#63b8ff" points="1219.99,-40 1209.5,-41.51 1218.64,-46.87 1219.99,-40"/>
</a>
</g>
</g>
<!-- Node20 -->
<g id="Node000020" class="node">
<title>Node20</title>
<g id="a_Node000020"><a xlink:href="structRealm_1_1IntrusiveListLink.html" target="_top" xlink:title=" ">
<polygon fill="white" stroke="#666666" points="1512.5,-30 1376.5,-30 1376.5,0 1512.5,0 1512.5,-30"/>
<text text-anchor="start" x="1384.5" y="-18" font-family="Helvetica,sans-Serif" font-size="10.00">Realm::IntrusiveListLink</text>
<text text-anchor="middle" x="1444.5" y="-7" font-family="Helvetica,sans-Serif" font-size="10.00">&lt; Realm::EventWaiter &gt;</text>
</a>
</g>
</g>
<!-- Node19&#45;&gt;Node20 -->
<g id="edge22_Node000020_Node000019" class="edge">
<title>Node19&#45;&gt;Node20</title>
<g id="a_edge22_Node000020_Node000019"><a xlink:title=" ">
<path fill="none" stroke="#9a32cd" stroke-dasharray="5,2" d="M1197.14,-19.42C1215.09,-14.14 1236.92,-8.62 1257,-6 1296.38,-0.87 1340.77,-2.71 1376.37,-6.02"/>
<polygon fill="#9a32cd" stroke="#9a32cd" points="1195.89,-16.14 1187.34,-22.39 1197.92,-22.84 1195.89,-16.14"/>
</a>
</g>
<text text-anchor="middle" x="1303.5" y="-9" font-family="Helvetica,sans-Serif" font-size="10.00" fill="grey"> next</text>
</g>
<!-- Node20&#45;&gt;Node19 -->
<g id="edge21_Node000019_Node000020" class="edge">
<title>Node20&#45;&gt;Node19</title>
<g id="a_edge21_Node000019_Node000020"><a xlink:title=" ">
<path fill="none" stroke="#9a32cd" stroke-dasharray="5,2" d="M1366.3,-19.61C1318.33,-22.48 1257.78,-26.1 1214.53,-28.68"/>
<polygon fill="#9a32cd" stroke="#9a32cd" points="1366.57,-23.1 1376.34,-19.01 1366.15,-16.12 1366.57,-23.1"/>
</a>
</g>
<text text-anchor="middle" x="1303.5" y="-30" font-family="Helvetica,sans-Serif" font-size="10.00" fill="grey"> ew_list_link</text>
</g>
</g>
</svg>
