<?xml version="1.0" encoding="UTF-8" standalone="no"?>
<!DOCTYPE svg PUBLIC "-//W3C//DTD SVG 1.1//EN"
 "http://www.w3.org/Graphics/SVG/1.1/DTD/svg11.dtd">
<!-- Generated by graphviz version 2.43.0 (0)
 -->
<!-- Title: Realm::CudaArrayLayoutPiece&lt; N, T &gt; Pages: 1 -->
<svg width="719pt" height="157pt"
 viewBox="0.00 0.00 719.00 156.50" xmlns="http://www.w3.org/2000/svg" xmlns:xlink="http://www.w3.org/1999/xlink">
<g id="graph0" class="graph" transform="scale(1 1) rotate(0) translate(4 152.5)">
<title>Realm::CudaArrayLayoutPiece&lt; N, T &gt;</title>
<!-- Node1 -->
<g id="Node000001" class="node">
<title>Node1</title>
<g id="a_Node000001"><a xlink:title=" ">
<polygon fill="#999999" stroke="#666666" points="711,-105.5 547,-105.5 547,-75.5 711,-75.5 711,-105.5"/>
<text text-anchor="start" x="555" y="-93.5" font-family="Helvetica,sans-Serif" font-size="10.00">Realm::CudaArrayLayoutPiece</text>
<text text-anchor="middle" x="629" y="-82.5" font-family="Helvetica,sans-Serif" font-size="10.00">&lt; N, T &gt;</text>
</a>
</g>
</g>
<!-- Node2 -->
<g id="Node000002" class="node">
<title>Node2</title>
<g id="a_Node000002"><a xlink:href="classRealm_1_1InstanceLayoutPiece.html" target="_top" xlink:title=" ">
<polygon fill="white" stroke="#666666" points="399.5,-148.5 244.5,-148.5 244.5,-118.5 399.5,-118.5 399.5,-148.5"/>
<text text-anchor="start" x="252.5" y="-136.5" font-family="Helvetica,sans-Serif" font-size="10.00">Realm::InstanceLayoutPiece</text>
<text text-anchor="middle" x="322" y="-125.5" font-family="Helvetica,sans-Serif" font-size="10.00">&lt; N, T &gt;</text>
</a>
</g>
</g>
<!-- Node2&#45;&gt;Node1 -->
<g id="edge1_Node000001_Node000002" class="edge">
<title>Node2&#45;&gt;Node1</title>
<g id="a_edge1_Node000001_Node000002"><a xlink:title=" ">
<path fill="none" stroke="#63b8ff" d="M409.97,-121.27C446.7,-116.1 489.94,-110.01 529,-104.5 534.84,-103.68 540.88,-102.82 546.96,-101.96"/>
<polygon fill="#63b8ff" stroke="#63b8ff" points="409.21,-117.84 399.79,-122.7 410.18,-124.77 409.21,-117.84"/>
</a>
</g>
</g>
<!-- Node3 -->
<g id="Node000003" class="node">
<title>Node3</title>
<g id="a_Node000003"><a xlink:href="classRealm_1_1InstanceLayoutPieceBase.html" target="_top" xlink:title=" ">
<polygon fill="white" stroke="#666666" points="179,-143 0,-143 0,-124 179,-124 179,-143"/>
<text text-anchor="middle" x="89.5" y="-131" font-family="Helvetica,sans-Serif" font-size="10.00">Realm::InstanceLayoutPieceBase</text>
</a>
</g>
</g>
<!-- Node3&#45;&gt;Node2 -->
<g id="edge2_Node000002_Node000003" class="edge">
<title>Node3&#45;&gt;Node2</title>
<g id="a_edge2_Node000002_Node000003"><a xlink:title=" ">
<path fill="none" stroke="#63b8ff" d="M189.42,-133.5C207.78,-133.5 226.7,-133.5 244.27,-133.5"/>
<polygon fill="#63b8ff" stroke="#63b8ff" points="189.29,-130 179.29,-133.5 189.29,-137 189.29,-130"/>
</a>
</g>
</g>
<!-- Node4 -->
<g id="Node000004" class="node">
<title>Node4</title>
<g id="a_Node000004"><a xlink:href="structRealm_1_1CudaArrayPieceInfo.html" target="_top" xlink:title=" ">
<polygon fill="white" stroke="#666666" points="397,-100 247,-100 247,-81 397,-81 397,-100"/>
<text text-anchor="middle" x="322" y="-88" font-family="Helvetica,sans-Serif" font-size="10.00">Realm::CudaArrayPieceInfo</text>
</a>
</g>
</g>
<!-- Node4&#45;&gt;Node1 -->
<g id="edge3_Node000001_Node000004" class="edge">
<title>Node4&#45;&gt;Node1</title>
<g id="a_edge3_Node000001_Node000004"><a xlink:title=" ">
<path fill="none" stroke="#63b8ff" d="M407.49,-90.5C450.97,-90.5 503.73,-90.5 546.74,-90.5"/>
<polygon fill="#63b8ff" stroke="#63b8ff" points="407.22,-87 397.22,-90.5 407.22,-94 407.22,-87"/>
</a>
</g>
</g>
<!-- Node5 -->
<g id="Node000005" class="node">
<title>Node5</title>
<g id="a_Node000005"><a xlink:href="classRealm_1_1Serialization_1_1PolymorphicSerdezSubclass.html" target="_top" xlink:title=" ">
<polygon fill="white" stroke="#666666" points="428,-63 216,-63 216,0 428,0 428,-63"/>
<text text-anchor="start" x="224" y="-51" font-family="Helvetica,sans-Serif" font-size="10.00">Realm::Serialization</text>
<text text-anchor="start" x="224" y="-40" font-family="Helvetica,sans-Serif" font-size="10.00">::PolymorphicSerdezSubclass</text>
<text text-anchor="start" x="224" y="-29" font-family="Helvetica,sans-Serif" font-size="10.00">&lt; Realm::InstanceLayoutPiece</text>
<text text-anchor="start" x="224" y="-18" font-family="Helvetica,sans-Serif" font-size="10.00">&lt; N, T &gt;, Realm::CudaArrayLayoutPiece</text>
<text text-anchor="middle" x="322" y="-7" font-family="Helvetica,sans-Serif" font-size="10.00">&lt; N, T &gt; &gt;</text>
</a>
</g>
</g>
<!-- Node5&#45;&gt;Node1 -->
<g id="edge4_Node000001_Node000005" class="edge">
<title>Node5&#45;&gt;Node1</title>
<g id="a_edge4_Node000001_Node000005"><a xlink:title=" ">
<path fill="none" stroke="#9a32cd" stroke-dasharray="5,2" d="M438.31,-53.81C475.62,-61.02 516.1,-68.85 550.04,-75.42"/>
<polygon fill="#9a32cd" stroke="#9a32cd" points="438.87,-50.35 428.39,-51.89 437.54,-57.22 438.87,-50.35"/>
</a>
</g>
<text text-anchor="middle" x="487.5" y="-72.5" font-family="Helvetica,sans-Serif" font-size="10.00" fill="grey"> serdez_subclass</text>
</g>
<!-- Node6 -->
<g id="Node000006" class="node">
<title>Node6</title>
<g id="a_Node000006"><a xlink:href="classRealm_1_1Serialization_1_1PolymorphicSerdezIntfc.html" target="_top" xlink:title=" ">
<polygon fill="white" stroke="#666666" points="173,-46.5 6,-46.5 6,-16.5 173,-16.5 173,-46.5"/>
<text text-anchor="start" x="14" y="-34.5" font-family="Helvetica,sans-Serif" font-size="10.00">Realm::Serialization</text>
<text text-anchor="middle" x="89.5" y="-23.5" font-family="Helvetica,sans-Serif" font-size="10.00">::PolymorphicSerdezIntfc&lt; T &gt;</text>
</a>
</g>
</g>
<!-- Node6&#45;&gt;Node5 -->
<g id="edge5_Node000005_Node000006" class="edge">
<title>Node6&#45;&gt;Node5</title>
<g id="a_edge5_Node000005_Node000006"><a xlink:title=" ">
<path fill="none" stroke="#63b8ff" d="M183.22,-31.5C193.9,-31.5 204.86,-31.5 215.69,-31.5"/>
<polygon fill="#63b8ff" stroke="#63b8ff" points="183.06,-28 173.06,-31.5 183.06,-35 183.06,-28"/>
</a>
</g>
</g>
</g>
</svg>
