<?xml version="1.0" encoding="UTF-8" standalone="no"?>
<!DOCTYPE svg PUBLIC "-//W3C//DTD SVG 1.1//EN"
 "http://www.w3.org/Graphics/SVG/1.1/DTD/svg11.dtd">
<!-- Generated by graphviz version 2.43.0 (0)
 -->
<!-- Title: Realm::CodeDescriptor Pages: 1 -->
<svg width="163pt" height="159pt"
 viewBox="0.00 0.00 163.00 159.00" xmlns="http://www.w3.org/2000/svg" xmlns:xlink="http://www.w3.org/1999/xlink">
<g id="graph0" class="graph" transform="scale(1 1) rotate(0) translate(4 155)">
<title>Realm::CodeDescriptor</title>
<!-- Node1 -->
<g id="Node000001" class="node">
<title>Node1</title>
<g id="a_Node000001"><a xlink:title=" ">
<polygon fill="#999999" stroke="#666666" points="142,-19 13,-19 13,0 142,0 142,-19"/>
<text text-anchor="middle" x="77.5" y="-7" font-family="Helvetica,sans-Serif" font-size="10.00">Realm::CodeDescriptor</text>
</a>
</g>
</g>
<!-- Node2 -->
<g id="Node000002" class="node">
<title>Node2</title>
<g id="a_Node000002"><a xlink:href="classRealm_1_1Type.html" target="_top" xlink:title=" ">
<polygon fill="white" stroke="#666666" points="116,-85 39,-85 39,-66 116,-66 116,-85"/>
<text text-anchor="middle" x="77.5" y="-73" font-family="Helvetica,sans-Serif" font-size="10.00">Realm::Type</text>
</a>
</g>
</g>
<!-- Node2&#45;&gt;Node1 -->
<g id="edge1_Node000001_Node000002" class="edge">
<title>Node2&#45;&gt;Node1</title>
<g id="a_edge1_Node000001_Node000002"><a xlink:title=" ">
<path fill="none" stroke="#9a32cd" stroke-dasharray="5,2" d="M77.5,-55.58C77.5,-43.63 77.5,-28.72 77.5,-19.41"/>
<polygon fill="#9a32cd" stroke="#9a32cd" points="74,-55.87 77.5,-65.87 81,-55.87 74,-55.87"/>
</a>
</g>
<text text-anchor="middle" x="97.5" y="-40" font-family="Helvetica,sans-Serif" font-size="10.00" fill="grey"> m_type</text>
</g>
<!-- Node3 -->
<g id="Node000003" class="node">
<title>Node3</title>
<g id="a_Node000003"><a xlink:href="structRealm_1_1Type_1_1CommonFields.html" target="_top" xlink:title=" ">
<polygon fill="white" stroke="#666666" points="155,-151 0,-151 0,-132 155,-132 155,-151"/>
<text text-anchor="middle" x="77.5" y="-139" font-family="Helvetica,sans-Serif" font-size="10.00">Realm::Type::CommonFields</text>
</a>
</g>
</g>
<!-- Node3&#45;&gt;Node2 -->
<g id="edge2_Node000002_Node000003" class="edge">
<title>Node3&#45;&gt;Node2</title>
<g id="a_edge2_Node000002_Node000003"><a xlink:title=" ">
<path fill="none" stroke="#9a32cd" stroke-dasharray="5,2" d="M77.5,-121.58C77.5,-109.63 77.5,-94.72 77.5,-85.41"/>
<polygon fill="#9a32cd" stroke="#9a32cd" points="74,-121.87 77.5,-131.87 81,-121.87 74,-121.87"/>
</a>
</g>
<text text-anchor="middle" x="105" y="-106" font-family="Helvetica,sans-Serif" font-size="10.00" fill="grey"> f_common</text>
</g>
</g>
</svg>
