<?xml version="1.0" encoding="UTF-8" standalone="no"?>
<!DOCTYPE svg PUBLIC "-//W3C//DTD SVG 1.1//EN"
 "http://www.w3.org/Graphics/SVG/1.1/DTD/svg11.dtd">
<!-- Generated by graphviz version 2.43.0 (0)
 -->
<!-- Title: Realm::InternalTask Pages: 1 -->
<svg width="144pt" height="104pt"
 viewBox="0.00 0.00 144.00 104.00" xmlns="http://www.w3.org/2000/svg" xmlns:xlink="http://www.w3.org/1999/xlink">
<g id="graph0" class="graph" transform="scale(1 1) rotate(0) translate(4 100)">
<title>Realm::InternalTask</title>
<!-- Node1 -->
<g id="Node000001" class="node">
<title>Node1</title>
<g id="a_Node000001"><a xlink:title=" ">
<polygon fill="#999999" stroke="#666666" points="124.5,-96 11.5,-96 11.5,-77 124.5,-77 124.5,-96"/>
<text text-anchor="middle" x="68" y="-84" font-family="Helvetica,sans-Serif" font-size="10.00">Realm::InternalTask</text>
</a>
</g>
</g>
<!-- Node2 -->
<g id="Node000002" class="node">
<title>Node2</title>
<g id="a_Node000002"><a xlink:href="structRealm_1_1IntrusiveListLink.html" target="_top" xlink:title=" ">
<polygon fill="white" stroke="#666666" points="136,-30 0,-30 0,0 136,0 136,-30"/>
<text text-anchor="start" x="8" y="-18" font-family="Helvetica,sans-Serif" font-size="10.00">Realm::IntrusiveListLink</text>
<text text-anchor="middle" x="68" y="-7" font-family="Helvetica,sans-Serif" font-size="10.00">&lt; Realm::InternalTask &gt;</text>
</a>
</g>
</g>
<!-- Node1&#45;&gt;Node2 -->
<g id="edge2_Node000002_Node000001" class="edge">
<title>Node1&#45;&gt;Node2</title>
<g id="a_edge2_Node000002_Node000001"><a xlink:title=" ">
<path fill="none" stroke="#9a32cd" stroke-dasharray="5,2" d="M47.5,-69.58C41.95,-63.3 38.17,-55.73 41,-48 43.4,-41.45 47.79,-35.31 52.35,-30.19"/>
<polygon fill="#9a32cd" stroke="#9a32cd" points="45.43,-72.44 55.1,-76.77 50.24,-67.36 45.43,-72.44"/>
</a>
</g>
<text text-anchor="middle" x="53.5" y="-51" font-family="Helvetica,sans-Serif" font-size="10.00" fill="grey"> next</text>
</g>
<!-- Node2&#45;&gt;Node1 -->
<g id="edge1_Node000001_Node000002" class="edge">
<title>Node2&#45;&gt;Node1</title>
<g id="a_edge1_Node000001_Node000002"><a xlink:title=" ">
<path fill="none" stroke="#9a32cd" stroke-dasharray="5,2" d="M69.86,-40.56C70.11,-46.59 70.23,-53.03 70,-59 69.78,-64.9 69.28,-71.53 68.83,-76.68"/>
<polygon fill="#9a32cd" stroke="#9a32cd" points="73.34,-40.11 69.27,-30.33 66.35,-40.51 73.34,-40.11"/>
</a>
</g>
<text text-anchor="middle" x="87" y="-51" font-family="Helvetica,sans-Serif" font-size="10.00" fill="grey"> tl_link</text>
</g>
</g>
</svg>
