<?xml version="1.0" encoding="UTF-8" standalone="no"?>
<!DOCTYPE svg PUBLIC "-//W3C//DTD SVG 1.1//EN"
 "http://www.w3.org/Graphics/SVG/1.1/DTD/svg11.dtd">
<!-- Generated by graphviz version 2.43.0 (0)
 -->
<!-- Title: Realm::AffineLinearizedIndexSpace&lt; N, T &gt; Pages: 1 -->
<svg width="340pt" height="182pt"
 viewBox="0.00 0.00 340.00 182.00" xmlns="http://www.w3.org/2000/svg" xmlns:xlink="http://www.w3.org/1999/xlink">
<g id="graph0" class="graph" transform="scale(1 1) rotate(0) translate(4 178)">
<title>Realm::AffineLinearizedIndexSpace&lt; N, T &gt;</title>
<!-- Node1 -->
<g id="Node000001" class="node">
<title>Node1</title>
<g id="a_Node000001"><a xlink:title=" ">
<polygon fill="#999999" stroke="#666666" points="291.5,-30 131.5,-30 131.5,0 291.5,0 291.5,-30"/>
<text text-anchor="start" x="139.5" y="-18" font-family="Helvetica,sans-Serif" font-size="10.00">Realm::AffineLinearizedIndex</text>
<text text-anchor="middle" x="211.5" y="-7" font-family="Helvetica,sans-Serif" font-size="10.00">Space&lt; N, T &gt;</text>
</a>
</g>
</g>
<!-- Node2 -->
<g id="Node000002" class="node">
<title>Node2</title>
<g id="a_Node000002"><a xlink:href="classRealm_1_1LinearizedIndexSpace.html" target="_top" xlink:title=" ">
<polygon fill="white" stroke="#666666" points="161,-107 0,-107 0,-77 161,-77 161,-107"/>
<text text-anchor="start" x="8" y="-95" font-family="Helvetica,sans-Serif" font-size="10.00">Realm::LinearizedIndexSpace</text>
<text text-anchor="middle" x="80.5" y="-84" font-family="Helvetica,sans-Serif" font-size="10.00">&lt; N, T &gt;</text>
</a>
</g>
</g>
<!-- Node2&#45;&gt;Node1 -->
<g id="edge1_Node000001_Node000002" class="edge">
<title>Node2&#45;&gt;Node1</title>
<g id="a_edge1_Node000001_Node000002"><a xlink:title=" ">
<path fill="none" stroke="#63b8ff" d="M114.12,-71.75C136.87,-58.73 166.42,-41.81 186.97,-30.04"/>
<polygon fill="#63b8ff" stroke="#63b8ff" points="112.08,-68.89 105.14,-76.89 115.56,-74.96 112.08,-68.89"/>
</a>
</g>
</g>
<!-- Node3 -->
<g id="Node000003" class="node">
<title>Node3</title>
<g id="a_Node000003"><a xlink:href="classRealm_1_1LinearizedIndexSpaceIntfc.html" target="_top" xlink:title=" ">
<polygon fill="white" stroke="#666666" points="161,-174 0,-174 0,-144 161,-144 161,-174"/>
<text text-anchor="start" x="8" y="-162" font-family="Helvetica,sans-Serif" font-size="10.00">Realm::LinearizedIndexSpace</text>
<text text-anchor="middle" x="80.5" y="-151" font-family="Helvetica,sans-Serif" font-size="10.00">Intfc</text>
</a>
</g>
</g>
<!-- Node3&#45;&gt;Node2 -->
<g id="edge2_Node000002_Node000003" class="edge">
<title>Node3&#45;&gt;Node2</title>
<g id="a_edge2_Node000002_Node000003"><a xlink:title=" ">
<path fill="none" stroke="#63b8ff" d="M80.5,-133.61C80.5,-124.65 80.5,-114.82 80.5,-107.08"/>
<polygon fill="#63b8ff" stroke="#63b8ff" points="77,-133.9 80.5,-143.9 84,-133.9 77,-133.9"/>
</a>
</g>
</g>
<!-- Node4 -->
<g id="Node000004" class="node">
<title>Node4</title>
<g id="a_Node000004"><a xlink:href="structRealm_1_1Point.html" target="_top" xlink:title=" ">
<polygon fill="white" stroke="#666666" points="332,-101.5 179,-101.5 179,-82.5 332,-82.5 332,-101.5"/>
<text text-anchor="middle" x="255.5" y="-89.5" font-family="Helvetica,sans-Serif" font-size="10.00">Realm::Point&lt; N, ptrdiff_t &gt;</text>
</a>
</g>
</g>
<!-- Node4&#45;&gt;Node1 -->
<g id="edge3_Node000001_Node000004" class="edge">
<title>Node4&#45;&gt;Node1</title>
<g id="a_edge3_Node000001_Node000004"><a xlink:title=" ">
<path fill="none" stroke="#9a32cd" stroke-dasharray="5,2" d="M245.39,-73.76C237.63,-60.53 227.04,-42.49 219.78,-30.11"/>
<polygon fill="#9a32cd" stroke="#9a32cd" points="242.37,-75.54 250.45,-82.4 248.41,-72 242.37,-75.54"/>
</a>
</g>
<text text-anchor="middle" x="254" y="-51" font-family="Helvetica,sans-Serif" font-size="10.00" fill="grey"> strides</text>
</g>
</g>
</svg>
