<?xml version="1.0" encoding="UTF-8" standalone="no"?>
<!DOCTYPE svg PUBLIC "-//W3C//DTD SVG 1.1//EN"
 "http://www.w3.org/Graphics/SVG/1.1/DTD/svg11.dtd">
<!-- Generated by graphviz version 2.43.0 (0)
 -->
<!-- Title: Realm::AddressSplitXferDesFactory&lt; N, T &gt; Pages: 1 -->
<svg width="2656pt" height="911pt"
 viewBox="0.00 0.00 2656.00 911.13" xmlns="http://www.w3.org/2000/svg" xmlns:xlink="http://www.w3.org/1999/xlink">
<g id="graph0" class="graph" transform="scale(1 1) rotate(0) translate(4 907.13)">
<title>Realm::AddressSplitXferDesFactory&lt; N, T &gt;</title>
<!-- Node1 -->
<g id="Node000001" class="node">
<title>Node1</title>
<g id="a_Node000001"><a xlink:title=" ">
<polygon fill="#999999" stroke="#666666" points="2648,-809.13 2494,-809.13 2494,-779.13 2648,-779.13 2648,-809.13"/>
<text text-anchor="start" x="2502" y="-797.13" font-family="Helvetica,sans-Serif" font-size="10.00">Realm::AddressSplitXferDes</text>
<text text-anchor="middle" x="2571" y="-786.13" font-family="Helvetica,sans-Serif" font-size="10.00">Factory&lt; N, T &gt;</text>
</a>
</g>
</g>
<!-- Node2 -->
<g id="Node000002" class="node">
<title>Node2</title>
<g id="a_Node000002"><a xlink:href="classRealm_1_1XferDesFactory.html" target="_top" xlink:title=" ">
<polygon fill="white" stroke="#666666" points="976.5,-887.63 848.5,-887.63 848.5,-868.63 976.5,-868.63 976.5,-887.63"/>
<text text-anchor="middle" x="912.5" y="-875.63" font-family="Helvetica,sans-Serif" font-size="10.00">Realm::XferDesFactory</text>
</a>
</g>
</g>
<!-- Node2&#45;&gt;Node1 -->
<g id="edge1_Node000001_Node000002" class="edge">
<title>Node2&#45;&gt;Node1</title>
<g id="a_edge1_Node000001_Node000002"><a xlink:title=" ">
<path fill="none" stroke="#63b8ff" d="M986.68,-887.39C1049.31,-894.51 1141.93,-903.13 1223,-903.13 1223,-903.13 1223,-903.13 2277,-903.13 2383.38,-903.13 2498.62,-839.24 2546.79,-809.29"/>
<polygon fill="#63b8ff" stroke="#63b8ff" points="986.84,-883.89 976.51,-886.22 986.04,-890.84 986.84,-883.89"/>
</a>
</g>
</g>
<!-- Node9 -->
<g id="Node000009" class="node">
<title>Node9</title>
<g id="a_Node000009"><a xlink:href="classRealm_1_1SimpleXferDesFactory.html" target="_top" xlink:title=" ">
<polygon fill="white" stroke="#666666" points="1305,-837.63 1143,-837.63 1143,-818.63 1305,-818.63 1305,-837.63"/>
<text text-anchor="middle" x="1224" y="-825.63" font-family="Helvetica,sans-Serif" font-size="10.00">Realm::SimpleXferDesFactory</text>
</a>
</g>
</g>
<!-- Node2&#45;&gt;Node9 -->
<g id="edge10_Node000009_Node000002" class="edge">
<title>Node2&#45;&gt;Node9</title>
<g id="a_edge10_Node000009_Node000002"><a xlink:title=" ">
<path fill="none" stroke="#63b8ff" d="M982.37,-867.01C1036.9,-858.2 1112.24,-846.03 1164.01,-837.66"/>
<polygon fill="#63b8ff" stroke="#63b8ff" points="981.76,-863.56 972.44,-868.61 982.87,-870.47 981.76,-863.56"/>
</a>
</g>
</g>
<!-- Node3 -->
<g id="Node000003" class="node">
<title>Node3</title>
<g id="a_Node000003"><a xlink:href="classRealm_1_1ActiveMessageHandlerReg.html" target="_top" xlink:title=" ">
<polygon fill="white" stroke="#666666" points="2368,-757.63 2184,-757.63 2184,-716.63 2368,-716.63 2368,-757.63"/>
<text text-anchor="start" x="2192" y="-745.63" font-family="Helvetica,sans-Serif" font-size="10.00">Realm::ActiveMessageHandler</text>
<text text-anchor="start" x="2192" y="-734.63" font-family="Helvetica,sans-Serif" font-size="10.00">Reg&lt; Realm::AddressSplitXferDes</text>
<text text-anchor="middle" x="2276" y="-723.63" font-family="Helvetica,sans-Serif" font-size="10.00">CreateMessage&lt; N, T &gt; &gt;</text>
</a>
</g>
</g>
<!-- Node3&#45;&gt;Node1 -->
<g id="edge2_Node000001_Node000003" class="edge">
<title>Node3&#45;&gt;Node1</title>
<g id="a_edge2_Node000001_Node000003"><a xlink:title=" ">
<path fill="none" stroke="#9a32cd" stroke-dasharray="5,2" d="M2378.15,-756.81C2416.05,-764.19 2458.45,-772.43 2493.73,-779.3"/>
<polygon fill="#9a32cd" stroke="#9a32cd" points="2378.59,-753.33 2368.1,-754.86 2377.25,-760.2 2378.59,-753.33"/>
</a>
</g>
<text text-anchor="middle" x="2431" y="-778.13" font-family="Helvetica,sans-Serif" font-size="10.00" fill="grey"> areg</text>
</g>
<!-- Node4 -->
<g id="Node000004" class="node">
<title>Node4</title>
<g id="a_Node000004"><a xlink:href="classRealm_1_1ActiveMessageHandlerRegBase.html" target="_top" xlink:title=" ">
<polygon fill="white" stroke="#666666" points="2147,-726.13 1980,-726.13 1980,-696.13 2147,-696.13 2147,-726.13"/>
<text text-anchor="start" x="1988" y="-714.13" font-family="Helvetica,sans-Serif" font-size="10.00">Realm::ActiveMessageHandler</text>
<text text-anchor="middle" x="2063.5" y="-703.13" font-family="Helvetica,sans-Serif" font-size="10.00">RegBase</text>
</a>
</g>
</g>
<!-- Node4&#45;&gt;Node3 -->
<g id="edge3_Node000003_Node000004" class="edge">
<title>Node4&#45;&gt;Node3</title>
<g id="a_edge3_Node000003_Node000004"><a xlink:title=" ">
<path fill="none" stroke="#63b8ff" d="M2157.09,-722.57C2166.01,-723.67 2175.05,-724.79 2183.95,-725.89"/>
<polygon fill="#63b8ff" stroke="#63b8ff" points="2157.44,-719.09 2147.09,-721.34 2156.59,-726.04 2157.44,-719.09"/>
</a>
</g>
</g>
<!-- Node4&#45;&gt;Node4 -->
<g id="edge4_Node000004_Node000004" class="edge">
<title>Node4&#45;&gt;Node4</title>
<g id="a_edge4_Node000004_Node000004"><a xlink:title=" ">
<path fill="none" stroke="#9a32cd" stroke-dasharray="5,2" d="M2045.65,-736.73C2048.09,-741.1 2054.04,-744.13 2063.5,-744.13 2079.44,-744.13 2085.41,-735.54 2081.43,-726.41"/>
<polygon fill="#9a32cd" stroke="#9a32cd" points="2049.14,-736.38 2045.57,-726.41 2042.14,-736.44 2049.14,-736.38"/>
</a>
</g>
<text text-anchor="middle" x="2063.5" y="-747.13" font-family="Helvetica,sans-Serif" font-size="10.00" fill="grey"> next_handler</text>
</g>
<!-- Node5 -->
<g id="Node000005" class="node">
<title>Node5</title>
<g id="a_Node000005"><a xlink:href="classRealm_1_1AddressSplitChannel.html" target="_top" xlink:title=" ">
<polygon fill="white" stroke="#666666" points="2353.5,-803.63 2198.5,-803.63 2198.5,-784.63 2353.5,-784.63 2353.5,-803.63"/>
<text text-anchor="middle" x="2276" y="-791.63" font-family="Helvetica,sans-Serif" font-size="10.00">Realm::AddressSplitChannel</text>
</a>
</g>
</g>
<!-- Node5&#45;&gt;Node1 -->
<g id="edge5_Node000001_Node000005" class="edge">
<title>Node5&#45;&gt;Node1</title>
<g id="a_edge5_Node000001_Node000005"><a xlink:title=" ">
<path fill="none" stroke="#9a32cd" stroke-dasharray="5,2" d="M2363.66,-794.13C2404.98,-794.13 2453.97,-794.13 2493.85,-794.13"/>
<polygon fill="#9a32cd" stroke="#9a32cd" points="2363.6,-790.63 2353.6,-794.13 2363.6,-797.63 2363.6,-790.63"/>
</a>
</g>
<text text-anchor="middle" x="2431" y="-797.13" font-family="Helvetica,sans-Serif" font-size="10.00" fill="grey"> addrsplit_channel</text>
</g>
<!-- Node6 -->
<g id="Node000006" class="node">
<title>Node6</title>
<g id="a_Node000006"><a xlink:href="classRealm_1_1SingleXDQChannel.html" target="_top" xlink:title=" ">
<polygon fill="white" stroke="#666666" points="2141,-814.63 1986,-814.63 1986,-773.63 2141,-773.63 2141,-814.63"/>
<text text-anchor="start" x="1994" y="-802.63" font-family="Helvetica,sans-Serif" font-size="10.00">Realm::SingleXDQChannel</text>
<text text-anchor="start" x="1994" y="-791.63" font-family="Helvetica,sans-Serif" font-size="10.00">&lt; AddressSplitChannel,</text>
<text text-anchor="middle" x="2063.5" y="-780.63" font-family="Helvetica,sans-Serif" font-size="10.00"> AddressSplitXferDesBase &gt;</text>
</a>
</g>
</g>
<!-- Node6&#45;&gt;Node5 -->
<g id="edge6_Node000005_Node000006" class="edge">
<title>Node6&#45;&gt;Node5</title>
<g id="a_edge6_Node000005_Node000006"><a xlink:title=" ">
<path fill="none" stroke="#63b8ff" d="M2151.28,-794.13C2166.93,-794.13 2183.14,-794.13 2198.47,-794.13"/>
<polygon fill="#63b8ff" stroke="#63b8ff" points="2151.09,-790.63 2141.09,-794.13 2151.09,-797.63 2151.09,-790.63"/>
</a>
</g>
</g>
<!-- Node7 -->
<g id="Node000007" class="node">
<title>Node7</title>
<g id="a_Node000007"><a xlink:href="classRealm_1_1LocalChannel.html" target="_top" xlink:title=" ">
<polygon fill="white" stroke="#666666" points="1594,-773.63 1475,-773.63 1475,-754.63 1594,-754.63 1594,-773.63"/>
<text text-anchor="middle" x="1534.5" y="-761.63" font-family="Helvetica,sans-Serif" font-size="10.00">Realm::LocalChannel</text>
</a>
</g>
</g>
<!-- Node7&#45;&gt;Node6 -->
<g id="edge7_Node000006_Node000007" class="edge">
<title>Node7&#45;&gt;Node6</title>
<g id="a_edge7_Node000006_Node000007"><a xlink:title=" ">
<path fill="none" stroke="#63b8ff" d="M1604.52,-774.72C1620.41,-776.83 1637.27,-778.8 1653,-780.13 1768.71,-789.97 1903.37,-792.95 1985.76,-793.82"/>
<polygon fill="#63b8ff" stroke="#63b8ff" points="1604.62,-771.2 1594.24,-773.32 1603.68,-778.14 1604.62,-771.2"/>
</a>
</g>
</g>
<!-- Node10 -->
<g id="Node000010" class="node">
<title>Node10</title>
<g id="a_Node000010"><a xlink:href="classRealm_1_1XDQueue.html" target="_top" xlink:title=" ">
<polygon fill="white" stroke="#666666" points="1922,-749.13 1725,-749.13 1725,-719.13 1922,-719.13 1922,-749.13"/>
<text text-anchor="start" x="1733" y="-737.13" font-family="Helvetica,sans-Serif" font-size="10.00">Realm::XDQueue&lt; AddressSplit</text>
<text text-anchor="middle" x="1823.5" y="-726.13" font-family="Helvetica,sans-Serif" font-size="10.00">Channel, AddressSplitXferDesBase &gt;</text>
</a>
</g>
</g>
<!-- Node7&#45;&gt;Node10 -->
<g id="edge28_Node000010_Node000007" class="edge">
<title>Node7&#45;&gt;Node10</title>
<g id="a_edge28_Node000010_Node000007"><a xlink:title=" ">
<path fill="none" stroke="#9a32cd" stroke-dasharray="5,2" d="M1575.44,-751.79C1597.97,-745.45 1626.78,-738.4 1653,-735.13 1676.22,-732.24 1701.36,-731.05 1724.99,-730.78"/>
<polygon fill="#9a32cd" stroke="#9a32cd" points="1574.21,-748.5 1565.56,-754.63 1576.14,-755.23 1574.21,-748.5"/>
</a>
</g>
<text text-anchor="middle" x="1680" y="-738.13" font-family="Helvetica,sans-Serif" font-size="10.00" fill="grey"> channel</text>
</g>
<!-- Node8 -->
<g id="Node000008" class="node">
<title>Node8</title>
<g id="a_Node000008"><a xlink:href="classRealm_1_1Channel.html" target="_top" xlink:title=" ">
<polygon fill="white" stroke="#666666" points="959.5,-789.63 865.5,-789.63 865.5,-770.63 959.5,-770.63 959.5,-789.63"/>
<text text-anchor="middle" x="912.5" y="-777.63" font-family="Helvetica,sans-Serif" font-size="10.00">Realm::Channel</text>
</a>
</g>
</g>
<!-- Node8&#45;&gt;Node7 -->
<g id="edge8_Node000007_Node000008" class="edge">
<title>Node8&#45;&gt;Node7</title>
<g id="a_edge8_Node000007_Node000008"><a xlink:title=" ">
<path fill="none" stroke="#63b8ff" d="M969.77,-778.68C1086.8,-775.66 1355.44,-768.73 1474.66,-765.65"/>
<polygon fill="#63b8ff" stroke="#63b8ff" points="969.5,-775.19 959.59,-778.94 969.68,-782.19 969.5,-775.19"/>
</a>
</g>
</g>
<!-- Node26 -->
<g id="Node000026" class="node">
<title>Node26</title>
<g id="a_Node000026"><a xlink:href="classRealm_1_1XferDes.html" target="_top" xlink:title=" ">
<polygon fill="white" stroke="#666666" points="1270.5,-663.63 1177.5,-663.63 1177.5,-644.63 1270.5,-644.63 1270.5,-663.63"/>
<text text-anchor="middle" x="1224" y="-651.63" font-family="Helvetica,sans-Serif" font-size="10.00">Realm::XferDes</text>
</a>
</g>
</g>
<!-- Node8&#45;&gt;Node26 -->
<g id="edge40_Node000026_Node000008" class="edge">
<title>Node8&#45;&gt;Node26</title>
<g id="a_edge40_Node000026_Node000008"><a xlink:title=" ">
<path fill="none" stroke="#9a32cd" stroke-dasharray="5,2" d="M969.64,-774.02C980.9,-771.19 992.25,-767.09 1002,-761.13 1012.78,-754.55 1009.23,-745.74 1020,-739.13 1060.72,-714.15 1080.81,-734.29 1125,-716.13 1158.52,-702.36 1193.35,-677.3 1211.08,-663.64"/>
<polygon fill="#9a32cd" stroke="#9a32cd" points="968.83,-770.61 959.82,-776.19 970.34,-777.45 968.83,-770.61"/>
</a>
</g>
<text text-anchor="middle" x="1072.5" y="-742.13" font-family="Helvetica,sans-Serif" font-size="10.00" fill="grey"> channel</text>
</g>
<!-- Node9&#45;&gt;Node7 -->
<g id="edge9_Node000007_Node000009" class="edge">
<title>Node9&#45;&gt;Node7</title>
<g id="a_edge9_Node000007_Node000009"><a xlink:title=" ">
<path fill="none" stroke="#9a32cd" stroke-dasharray="5,2" d="M1315.23,-826.31C1355.99,-824.06 1398.82,-819.25 1416,-809.13 1428.11,-802 1422.22,-790.8 1434,-783.13 1446.09,-775.27 1460.64,-770.49 1474.84,-767.63"/>
<polygon fill="#9a32cd" stroke="#9a32cd" points="1315.01,-822.82 1305.2,-826.82 1315.37,-829.81 1315.01,-822.82"/>
</a>
</g>
<text text-anchor="middle" x="1369.5" y="-828.13" font-family="Helvetica,sans-Serif" font-size="10.00" fill="grey"> factory_singleton</text>
</g>
<!-- Node10&#45;&gt;Node6 -->
<g id="edge11_Node000006_Node000010" class="edge">
<title>Node10&#45;&gt;Node6</title>
<g id="a_edge11_Node000006_Node000010"><a xlink:title=" ">
<path fill="none" stroke="#9a32cd" stroke-dasharray="5,2" d="M1894.19,-751.7C1922.87,-758.93 1956.19,-767.33 1985.59,-774.74"/>
<polygon fill="#9a32cd" stroke="#9a32cd" points="1894.8,-748.25 1884.25,-749.2 1893.09,-755.04 1894.8,-748.25"/>
</a>
</g>
<text text-anchor="middle" x="1951" y="-770.13" font-family="Helvetica,sans-Serif" font-size="10.00" fill="grey"> xdq</text>
</g>
<!-- Node11 -->
<g id="Node000011" class="node">
<title>Node11</title>
<g id="a_Node000011"><a xlink:href="classRealm_1_1BackgroundWorkItem.html" target="_top" xlink:title=" ">
<polygon fill="white" stroke="#666666" points="654,-227.63 495,-227.63 495,-208.63 654,-208.63 654,-227.63"/>
<text text-anchor="middle" x="574.5" y="-215.63" font-family="Helvetica,sans-Serif" font-size="10.00">Realm::BackgroundWorkItem</text>
</a>
</g>
</g>
<!-- Node11&#45;&gt;Node10 -->
<g id="edge12_Node000010_Node000011" class="edge">
<title>Node11&#45;&gt;Node10</title>
<g id="a_edge12_Node000010_Node000011"><a xlink:title=" ">
<path fill="none" stroke="#63b8ff" d="M632.95,-231.39C644.63,-236.48 655.83,-243.48 664,-253.13 688.67,-282.27 652.4,-313.02 682,-337.13 749.1,-391.81 984.94,-340.13 1071.5,-340.13 1071.5,-340.13 1071.5,-340.13 1535.5,-340.13 1726.33,-340.13 1803.66,-645.84 1819.38,-718.69"/>
<polygon fill="#63b8ff" stroke="#63b8ff" points="634.11,-228.09 623.52,-227.71 631.57,-234.61 634.11,-228.09"/>
</a>
</g>
</g>
<!-- Node12 -->
<g id="Node000012" class="node">
<title>Node12</title>
<g id="a_Node000012"><a xlink:href="classRealm_1_1BackgroundWorkManager.html" target="_top" xlink:title=" ">
<polygon fill="white" stroke="#666666" points="1002,-190.63 823,-190.63 823,-171.63 1002,-171.63 1002,-190.63"/>
<text text-anchor="middle" x="912.5" y="-178.63" font-family="Helvetica,sans-Serif" font-size="10.00">Realm::BackgroundWorkManager</text>
</a>
</g>
</g>
<!-- Node11&#45;&gt;Node12 -->
<g id="edge23_Node000012_Node000011" class="edge">
<title>Node11&#45;&gt;Node12</title>
<g id="a_edge23_Node000012_Node000011"><a xlink:title=" ">
<path fill="none" stroke="#9a32cd" stroke-dasharray="5,2" d="M664.35,-219.8C707.09,-219.39 758.93,-217.11 805,-210.13 832.09,-206.03 862.15,-197.46 883.4,-190.7"/>
<polygon fill="#9a32cd" stroke="#9a32cd" points="664.23,-216.3 654.25,-219.86 664.27,-223.3 664.23,-216.3"/>
</a>
</g>
<text text-anchor="middle" x="743.5" y="-223.13" font-family="Helvetica,sans-Serif" font-size="10.00" fill="grey"> work_items</text>
</g>
<!-- Node12&#45;&gt;Node11 -->
<g id="edge13_Node000011_Node000012" class="edge">
<title>Node12&#45;&gt;Node11</title>
<g id="a_edge13_Node000011_Node000012"><a xlink:title=" ">
<path fill="none" stroke="#9a32cd" stroke-dasharray="5,2" d="M812.58,-186.76C772.02,-189.62 724.67,-193.67 682,-199.13 662.63,-201.62 641.42,-205.22 623.06,-208.62"/>
<polygon fill="#9a32cd" stroke="#9a32cd" points="813.01,-190.24 822.74,-186.06 812.52,-183.25 813.01,-190.24"/>
</a>
</g>
<text text-anchor="middle" x="743.5" y="-202.13" font-family="Helvetica,sans-Serif" font-size="10.00" fill="grey"> manager</text>
</g>
<!-- Node13 -->
<g id="Node000013" class="node">
<title>Node13</title>
<g id="a_Node000013"><a xlink:href="structRealm_1_1BackgroundWorkManager_1_1Config.html" target="_top" xlink:title=" ">
<polygon fill="white" stroke="#666666" points="664,-190.13 485,-190.13 485,-160.13 664,-160.13 664,-190.13"/>
<text text-anchor="start" x="493" y="-178.13" font-family="Helvetica,sans-Serif" font-size="10.00">Realm::BackgroundWorkManager</text>
<text text-anchor="middle" x="574.5" y="-167.13" font-family="Helvetica,sans-Serif" font-size="10.00">::Config</text>
</a>
</g>
</g>
<!-- Node13&#45;&gt;Node12 -->
<g id="edge14_Node000012_Node000013" class="edge">
<title>Node13&#45;&gt;Node12</title>
<g id="a_edge14_Node000012_Node000013"><a xlink:title=" ">
<path fill="none" stroke="#9a32cd" stroke-dasharray="5,2" d="M674.24,-165.54C676.85,-165.39 679.44,-165.25 682,-165.13 736.61,-162.58 750.49,-161.06 805,-165.13 822.53,-166.44 841.54,-168.95 858.59,-171.59"/>
<polygon fill="#9a32cd" stroke="#9a32cd" points="673.84,-162.06 664.08,-166.18 674.28,-169.04 673.84,-162.06"/>
</a>
</g>
<text text-anchor="middle" x="743.5" y="-168.13" font-family="Helvetica,sans-Serif" font-size="10.00" fill="grey"> cfg</text>
</g>
<!-- Node14 -->
<g id="Node000014" class="node">
<title>Node14</title>
<g id="a_Node000014"><a xlink:href="classRealm_1_1UnfairMutex.html" target="_top" xlink:title=" ">
<polygon fill="white" stroke="#666666" points="632,-415.63 517,-415.63 517,-396.63 632,-396.63 632,-415.63"/>
<text text-anchor="middle" x="574.5" y="-403.63" font-family="Helvetica,sans-Serif" font-size="10.00">Realm::UnfairMutex</text>
</a>
</g>
</g>
<!-- Node14&#45;&gt;Node10 -->
<g id="edge29_Node000010_Node000014" class="edge">
<title>Node14&#45;&gt;Node10</title>
<g id="a_edge29_Node000010_Node000014"><a xlink:title=" ">
<path fill="none" stroke="#9a32cd" stroke-dasharray="5,2" d="M622.38,-418.05C687,-433.4 807.28,-458.13 911.5,-458.13 911.5,-458.13 911.5,-458.13 1535.5,-458.13 1687.24,-458.13 1789.76,-661.04 1815.91,-718.9"/>
<polygon fill="#9a32cd" stroke="#9a32cd" points="623.04,-414.61 612.5,-415.67 621.4,-421.41 623.04,-414.61"/>
</a>
</g>
<text text-anchor="middle" x="1224" y="-461.13" font-family="Helvetica,sans-Serif" font-size="10.00" fill="grey"> mutex</text>
</g>
<!-- Node14&#45;&gt;Node12 -->
<g id="edge15_Node000012_Node000014" class="edge">
<title>Node14&#45;&gt;Node12</title>
<g id="a_edge15_Node000012_Node000014"><a xlink:title=" ">
<path fill="none" stroke="#9a32cd" stroke-dasharray="5,2" d="M617.37,-393.45C665.69,-377.49 746.07,-346.78 805,-303.13 850.41,-269.5 890.17,-213.47 905.15,-190.95"/>
<polygon fill="#9a32cd" stroke="#9a32cd" points="616.29,-390.12 607.86,-396.54 618.45,-396.78 616.29,-390.12"/>
</a>
</g>
<text text-anchor="middle" x="743.5" y="-372.13" font-family="Helvetica,sans-Serif" font-size="10.00" fill="grey"> mutex</text>
</g>
<!-- Node14&#45;&gt;Node26 -->
<g id="edge41_Node000026_Node000014" class="edge">
<title>Node14&#45;&gt;Node26</title>
<g id="a_edge41_Node000026_Node000014"><a xlink:title=" ">
<path fill="none" stroke="#9a32cd" stroke-dasharray="5,2" d="M590.78,-423.34C609.26,-444.57 640.77,-482.15 664,-517.13 673.24,-531.05 670.35,-538.16 682,-550.13 732.55,-602.09 753.72,-610.79 823,-632.13 946.63,-670.22 1101.77,-664.58 1177.36,-658.64"/>
<polygon fill="#9a32cd" stroke="#9a32cd" points="593.39,-421 584.16,-415.79 588.12,-425.62 593.39,-421"/>
</a>
</g>
<text text-anchor="middle" x="912.5" y="-697.13" font-family="Helvetica,sans-Serif" font-size="10.00" fill="grey"> available_req_mutex</text>
<text text-anchor="middle" x="912.5" y="-686.13" font-family="Helvetica,sans-Serif" font-size="10.00" fill="grey">update_read_lock</text>
<text text-anchor="middle" x="912.5" y="-675.13" font-family="Helvetica,sans-Serif" font-size="10.00" fill="grey">update_write_lock</text>
<text text-anchor="middle" x="912.5" y="-664.13" font-family="Helvetica,sans-Serif" font-size="10.00" fill="grey">xd_lock</text>
</g>
<!-- Node27 -->
<g id="Node000027" class="node">
<title>Node27</title>
<g id="a_Node000027"><a xlink:href="classRealm_1_1XferDesQueue.html" target="_top" xlink:title=" ">
<polygon fill="white" stroke="#666666" points="975,-540.63 850,-540.63 850,-521.63 975,-521.63 975,-540.63"/>
<text text-anchor="middle" x="912.5" y="-528.63" font-family="Helvetica,sans-Serif" font-size="10.00">Realm::XferDesQueue</text>
</a>
</g>
</g>
<!-- Node14&#45;&gt;Node27 -->
<g id="edge34_Node000027_Node000014" class="edge">
<title>Node14&#45;&gt;Node27</title>
<g id="a_edge34_Node000027_Node000014"><a xlink:title=" ">
<path fill="none" stroke="#9a32cd" stroke-dasharray="5,2" d="M597.45,-421.52C618.36,-435.59 651.13,-456.12 682,-469.13 716.04,-483.49 814.68,-508.08 870.94,-521.58"/>
<polygon fill="#9a32cd" stroke="#9a32cd" points="599.22,-418.5 588.99,-415.75 595.28,-424.28 599.22,-418.5"/>
</a>
</g>
<text text-anchor="middle" x="743.5" y="-519.13" font-family="Helvetica,sans-Serif" font-size="10.00" fill="grey"> guid_lock</text>
<text text-anchor="middle" x="743.5" y="-508.13" font-family="Helvetica,sans-Serif" font-size="10.00" fill="grey">queues_lock</text>
</g>
<!-- Node15 -->
<g id="Node000015" class="node">
<title>Node15</title>
<g id="a_Node000015"><a xlink:href="classRealm_1_1noncopyable.html" target="_top" xlink:title=" ">
<polygon fill="white" stroke="#666666" points="396,-415.63 280,-415.63 280,-396.63 396,-396.63 396,-415.63"/>
<text text-anchor="middle" x="338" y="-403.63" font-family="Helvetica,sans-Serif" font-size="10.00">Realm::noncopyable</text>
</a>
</g>
</g>
<!-- Node15&#45;&gt;Node14 -->
<g id="edge16_Node000014_Node000015" class="edge">
<title>Node15&#45;&gt;Node14</title>
<g id="a_edge16_Node000014_Node000015"><a xlink:title=" ">
<path fill="none" stroke="#63b8ff" d="M406.21,-406.13C441.26,-406.13 483.65,-406.13 516.99,-406.13"/>
<polygon fill="#63b8ff" stroke="#63b8ff" points="406.07,-402.63 396.07,-406.13 406.07,-409.63 406.07,-402.63"/>
</a>
</g>
</g>
<!-- Node16 -->
<g id="Node000016" class="node">
<title>Node16</title>
<g id="a_Node000016"><a xlink:href="classRealm_1_1atomic.html" target="_top" xlink:title=" ">
<polygon fill="white" stroke="#666666" points="413,-301.63 263,-301.63 263,-282.63 413,-282.63 413,-301.63"/>
<text text-anchor="middle" x="338" y="-289.63" font-family="Helvetica,sans-Serif" font-size="10.00">Realm::atomic&lt; uint32_t &gt;</text>
</a>
</g>
</g>
<!-- Node16&#45;&gt;Node12 -->
<g id="edge24_Node000012_Node000016" class="edge">
<title>Node16&#45;&gt;Node12</title>
<g id="a_edge24_Node000012_Node000016"><a xlink:title=" ">
<path fill="none" stroke="#9a32cd" stroke-dasharray="5,2" d="M423.64,-283.39C548.05,-270.29 769.45,-245.96 805,-235.13 839.71,-224.57 876.73,-203.21 896.68,-190.76"/>
<polygon fill="#9a32cd" stroke="#9a32cd" points="422.97,-279.94 413.39,-284.46 423.7,-286.9 422.97,-279.94"/>
</a>
</g>
<text text-anchor="middle" x="574.5" y="-280.13" font-family="Helvetica,sans-Serif" font-size="10.00" fill="grey"> worker_state</text>
</g>
<!-- Node16&#45;&gt;Node14 -->
<g id="edge17_Node000014_Node000016" class="edge">
<title>Node16&#45;&gt;Node14</title>
<g id="a_edge17_Node000014_Node000016"><a xlink:title=" ">
<path fill="none" stroke="#9a32cd" stroke-dasharray="5,2" d="M365.76,-306.52C384.03,-316.24 408.84,-329.23 431,-340.13 473.56,-361.08 524.1,-384.04 552.11,-396.61"/>
<polygon fill="#9a32cd" stroke="#9a32cd" points="367.32,-303.39 356.85,-301.77 364.03,-309.56 367.32,-303.39"/>
</a>
</g>
<text text-anchor="middle" x="449" y="-360.13" font-family="Helvetica,sans-Serif" font-size="10.00" fill="grey"> state</text>
</g>
<!-- Node17 -->
<g id="Node000017" class="node">
<title>Node17</title>
<g id="a_Node000017"><a xlink:href="classRealm_1_1DoorbellList.html" target="_top" xlink:title=" ">
<polygon fill="white" stroke="#666666" points="394.5,-216.63 281.5,-216.63 281.5,-197.63 394.5,-197.63 394.5,-216.63"/>
<text text-anchor="middle" x="338" y="-204.63" font-family="Helvetica,sans-Serif" font-size="10.00">Realm::DoorbellList</text>
</a>
</g>
</g>
<!-- Node17&#45;&gt;Node12 -->
<g id="edge27_Node000012_Node000017" class="edge">
<title>Node17&#45;&gt;Node12</title>
<g id="a_edge27_Node000012_Node000017"><a xlink:title=" ">
<path fill="none" stroke="#9a32cd" stroke-dasharray="5,2" d="M362.66,-192.37C390.65,-175.87 439.22,-150.14 485,-140.13 630.53,-108.34 809.35,-151.37 880.33,-171.62"/>
<polygon fill="#9a32cd" stroke="#9a32cd" points="360.77,-189.43 354,-197.58 364.37,-195.43 360.77,-189.43"/>
</a>
</g>
<text text-anchor="middle" x="574.5" y="-143.13" font-family="Helvetica,sans-Serif" font-size="10.00" fill="grey"> db_list</text>
</g>
<!-- Node17&#45;&gt;Node14 -->
<g id="edge18_Node000014_Node000017" class="edge">
<title>Node17&#45;&gt;Node14</title>
<g id="a_edge18_Node000014_Node000017"><a xlink:title=" ">
<path fill="none" stroke="#9a32cd" stroke-dasharray="5,2" d="M359.74,-223.05C386.6,-244.35 433.91,-284.2 467,-325.13 476.54,-336.93 474.14,-343.54 485,-354.13 504.26,-372.93 531.59,-387.64 550.77,-396.55"/>
<polygon fill="#9a32cd" stroke="#9a32cd" points="361.81,-220.23 351.78,-216.81 357.49,-225.74 361.81,-220.23"/>
</a>
</g>
<text text-anchor="middle" x="449" y="-328.13" font-family="Helvetica,sans-Serif" font-size="10.00" fill="grey"> db_list</text>
</g>
<!-- Node18 -->
<g id="Node000018" class="node">
<title>Node18</title>
<g id="a_Node000018"><a xlink:href="classRealm_1_1atomic.html" target="_top" xlink:title=" ">
<polygon fill="white" stroke="#666666" points="152,-216.63 0,-216.63 0,-197.63 152,-197.63 152,-216.63"/>
<text text-anchor="middle" x="76" y="-204.63" font-family="Helvetica,sans-Serif" font-size="10.00">Realm::atomic&lt; uintptr_t &gt;</text>
</a>
</g>
</g>
<!-- Node18&#45;&gt;Node17 -->
<g id="edge19_Node000017_Node000018" class="edge">
<title>Node18&#45;&gt;Node17</title>
<g id="a_edge19_Node000017_Node000018"><a xlink:title=" ">
<path fill="none" stroke="#9a32cd" stroke-dasharray="5,2" d="M162.52,-207.13C201.61,-207.13 246.79,-207.13 281.38,-207.13"/>
<polygon fill="#9a32cd" stroke="#9a32cd" points="162.2,-203.63 152.2,-207.13 162.2,-210.63 162.2,-203.63"/>
</a>
</g>
<text text-anchor="middle" x="207.5" y="-210.13" font-family="Helvetica,sans-Serif" font-size="10.00" fill="grey"> head_or_count</text>
</g>
<!-- Node19 -->
<g id="Node000019" class="node">
<title>Node19</title>
<g id="a_Node000019"><a xlink:href="classRealm_1_1atomic.html" target="_top" xlink:title=" ">
<polygon fill="white" stroke="#666666" points="652,-345.63 497,-345.63 497,-326.63 652,-326.63 652,-345.63"/>
<text text-anchor="middle" x="574.5" y="-333.63" font-family="Helvetica,sans-Serif" font-size="10.00">Realm::atomic&lt; unsigned &gt;</text>
</a>
</g>
</g>
<!-- Node19&#45;&gt;Node12 -->
<g id="edge20_Node000012_Node000019" class="edge">
<title>Node19&#45;&gt;Node12</title>
<g id="a_edge20_Node000012_Node000019"><a xlink:title=" ">
<path fill="none" stroke="#9a32cd" stroke-dasharray="5,2" d="M604.42,-322.27C625.51,-312.64 655.01,-300.14 682,-292.13 735.32,-276.32 754.63,-292.71 805,-269.13 847.14,-249.41 886.57,-209.04 903.2,-190.65"/>
<polygon fill="#9a32cd" stroke="#9a32cd" points="602.68,-319.22 595.08,-326.6 605.62,-325.57 602.68,-319.22"/>
</a>
</g>
<text text-anchor="middle" x="743.5" y="-295.13" font-family="Helvetica,sans-Serif" font-size="10.00" fill="grey"> num_work_items</text>
</g>
<!-- Node19&#45;&gt;Node26 -->
<g id="edge42_Node000026_Node000019" class="edge">
<title>Node19&#45;&gt;Node26</title>
<g id="a_edge42_Node000026_Node000019"><a xlink:title=" ">
<path fill="none" stroke="#9a32cd" stroke-dasharray="5,2" d="M619.33,-348.39C713.3,-374.87 931.32,-437.52 1002,-468.13 1059.72,-493.14 1083.85,-490.57 1125,-538.13 1139.36,-554.74 1130.38,-566.17 1143,-584.13 1161.04,-609.81 1190.4,-632.25 1208.09,-644.43"/>
<polygon fill="#9a32cd" stroke="#9a32cd" points="620.14,-344.98 609.57,-345.64 618.25,-351.72 620.14,-344.98"/>
</a>
</g>
<text text-anchor="start" x="858.5" y="-504.13" font-family="Helvetica,sans-Serif" font-size="10.00" fill="grey"> nb_update_pre_bytes</text>
<text text-anchor="middle" x="912.5" y="-493.13" font-family="Helvetica,sans-Serif" font-size="10.00" fill="grey">_total_calls_received</text>
<text text-anchor="middle" x="912.5" y="-482.13" font-family="Helvetica,sans-Serif" font-size="10.00" fill="grey">progress_counter</text>
<text text-anchor="middle" x="912.5" y="-471.13" font-family="Helvetica,sans-Serif" font-size="10.00" fill="grey">reference_count</text>
</g>
<!-- Node20 -->
<g id="Node000020" class="node">
<title>Node20</title>
<g id="a_Node000020"><a xlink:href="classRealm_1_1atomic.html" target="_top" xlink:title=" ">
<polygon fill="white" stroke="#666666" points="649.5,-57.63 499.5,-57.63 499.5,-38.63 649.5,-38.63 649.5,-57.63"/>
<text text-anchor="middle" x="574.5" y="-45.63" font-family="Helvetica,sans-Serif" font-size="10.00">Realm::atomic&lt; BitMask &gt;</text>
</a>
</g>
</g>
<!-- Node20&#45;&gt;Node12 -->
<g id="edge21_Node000012_Node000020" class="edge">
<title>Node20&#45;&gt;Node12</title>
<g id="a_edge21_Node000012_Node000020"><a xlink:title=" ">
<path fill="none" stroke="#9a32cd" stroke-dasharray="5,2" d="M659.63,-41.88C704.8,-41.88 760.22,-47.45 805,-69.13 853.78,-92.75 891.89,-148.83 905.79,-171.44"/>
<polygon fill="#9a32cd" stroke="#9a32cd" points="659.54,-38.38 649.57,-41.97 659.6,-45.38 659.54,-38.38"/>
</a>
</g>
<text text-anchor="middle" x="743.5" y="-72.13" font-family="Helvetica,sans-Serif" font-size="10.00" fill="grey"> active_work_item_mask</text>
</g>
<!-- Node21 -->
<g id="Node000021" class="node">
<title>Node21</title>
<g id="a_Node000021"><a xlink:href="classRealm_1_1atomic.html" target="_top" xlink:title=" ">
<polygon fill="white" stroke="#666666" points="636,-20.63 513,-20.63 513,-1.63 636,-1.63 636,-20.63"/>
<text text-anchor="middle" x="574.5" y="-8.63" font-family="Helvetica,sans-Serif" font-size="10.00">Realm::atomic&lt; int &gt;</text>
</a>
</g>
</g>
<!-- Node21&#45;&gt;Node12 -->
<g id="edge22_Node000012_Node000021" class="edge">
<title>Node21&#45;&gt;Node12</title>
<g id="a_edge22_Node000012_Node000021"><a xlink:title=" ">
<path fill="none" stroke="#9a32cd" stroke-dasharray="5,2" d="M646.12,-1.24C694,1.99 757.05,-0.79 805,-28.13 864.04,-61.81 897.88,-143.19 908.14,-171.35"/>
<polygon fill="#9a32cd" stroke="#9a32cd" points="645.85,2.25 636.15,-2.02 646.39,-4.73 645.85,2.25"/>
</a>
</g>
<text text-anchor="middle" x="743.5" y="-31.13" font-family="Helvetica,sans-Serif" font-size="10.00" fill="grey"> work_item_usecounts</text>
</g>
<!-- Node22 -->
<g id="Node000022" class="node">
<title>Node22</title>
<g id="a_Node000022"><a xlink:href="classRealm_1_1DelegatingMutex.html" target="_top" xlink:title=" ">
<polygon fill="white" stroke="#666666" points="643.5,-94.63 505.5,-94.63 505.5,-75.63 643.5,-75.63 643.5,-94.63"/>
<text text-anchor="middle" x="574.5" y="-82.63" font-family="Helvetica,sans-Serif" font-size="10.00">Realm::DelegatingMutex</text>
</a>
</g>
</g>
<!-- Node22&#45;&gt;Node12 -->
<g id="edge25_Node000012_Node000022" class="edge">
<title>Node22&#45;&gt;Node12</title>
<g id="a_edge25_Node000012_Node000022"><a xlink:title=" ">
<path fill="none" stroke="#9a32cd" stroke-dasharray="5,2" d="M653.64,-82.37C699.08,-83.16 756.74,-88.38 805,-106.13 845.11,-120.89 884.05,-154.74 901.68,-171.44"/>
<polygon fill="#9a32cd" stroke="#9a32cd" points="653.58,-78.87 643.55,-82.26 653.51,-85.87 653.58,-78.87"/>
</a>
</g>
<text text-anchor="middle" x="743.5" y="-109.13" font-family="Helvetica,sans-Serif" font-size="10.00" fill="grey"> db_mutex</text>
</g>
<!-- Node23 -->
<g id="Node000023" class="node">
<title>Node23</title>
<g id="a_Node000023"><a xlink:href="classRealm_1_1atomic.html" target="_top" xlink:title=" ">
<polygon fill="white" stroke="#666666" points="413,-94.63 263,-94.63 263,-75.63 413,-75.63 413,-94.63"/>
<text text-anchor="middle" x="338" y="-82.63" font-family="Helvetica,sans-Serif" font-size="10.00">Realm::atomic&lt; uint64_t &gt;</text>
</a>
</g>
</g>
<!-- Node23&#45;&gt;Node22 -->
<g id="edge26_Node000022_Node000023" class="edge">
<title>Node23&#45;&gt;Node22</title>
<g id="a_edge26_Node000022_Node000023"><a xlink:title=" ">
<path fill="none" stroke="#9a32cd" stroke-dasharray="5,2" d="M423.38,-85.13C450.3,-85.13 479.74,-85.13 505.36,-85.13"/>
<polygon fill="#9a32cd" stroke="#9a32cd" points="423.2,-81.63 413.2,-85.13 423.2,-88.63 423.2,-81.63"/>
</a>
</g>
<text text-anchor="middle" x="449" y="-88.13" font-family="Helvetica,sans-Serif" font-size="10.00" fill="grey"> state</text>
</g>
<!-- Node24 -->
<g id="Node000024" class="node">
<title>Node24</title>
<g id="a_Node000024"><a xlink:href="classRealm_1_1IntrusivePriorityList.html" target="_top" xlink:title=" ">
<polygon fill="white" stroke="#666666" points="1635,-854.63 1434,-854.63 1434,-791.63 1635,-791.63 1635,-854.63"/>
<text text-anchor="start" x="1442" y="-842.63" font-family="Helvetica,sans-Serif" font-size="10.00">Realm::IntrusivePriority</text>
<text text-anchor="start" x="1442" y="-831.63" font-family="Helvetica,sans-Serif" font-size="10.00">List&lt; XferDes, int, REALM</text>
<text text-anchor="start" x="1442" y="-820.63" font-family="Helvetica,sans-Serif" font-size="10.00">_PMTA_USE(XferDes, xd_link)</text>
<text text-anchor="start" x="1442" y="-809.63" font-family="Helvetica,sans-Serif" font-size="10.00">, REALM_PMTA_USE(XferDes, priority)</text>
<text text-anchor="middle" x="1534.5" y="-798.63" font-family="Helvetica,sans-Serif" font-size="10.00">, DummyLock &gt;</text>
</a>
</g>
</g>
<!-- Node24&#45;&gt;Node10 -->
<g id="edge30_Node000010_Node000024" class="edge">
<title>Node24&#45;&gt;Node10</title>
<g id="a_edge30_Node000010_Node000024"><a xlink:title=" ">
<path fill="none" stroke="#9a32cd" stroke-dasharray="5,2" d="M1644.79,-789.24C1689.32,-775.43 1738.51,-760.18 1773.83,-749.23"/>
<polygon fill="#9a32cd" stroke="#9a32cd" points="1643.59,-785.95 1635.07,-792.26 1645.66,-792.64 1643.59,-785.95"/>
</a>
</g>
<text text-anchor="middle" x="1680" y="-789.13" font-family="Helvetica,sans-Serif" font-size="10.00" fill="grey"> ready_xds</text>
</g>
<!-- Node25 -->
<g id="Node000025" class="node">
<title>Node25</title>
<g id="a_Node000025"><a xlink:href="classRealm_1_1DummyLock.html" target="_top" xlink:title=" ">
<polygon fill="white" stroke="#666666" points="1282,-874.63 1166,-874.63 1166,-855.63 1282,-855.63 1282,-874.63"/>
<text text-anchor="middle" x="1224" y="-862.63" font-family="Helvetica,sans-Serif" font-size="10.00">Realm::DummyLock</text>
</a>
</g>
</g>
<!-- Node25&#45;&gt;Node24 -->
<g id="edge31_Node000024_Node000025" class="edge">
<title>Node25&#45;&gt;Node24</title>
<g id="a_edge31_Node000024_Node000025"><a xlink:title=" ">
<path fill="none" stroke="#9a32cd" stroke-dasharray="5,2" d="M1292.42,-858.27C1329.04,-854.31 1375.07,-848.97 1416,-843.13 1421.84,-842.3 1427.83,-841.41 1433.88,-840.47"/>
<polygon fill="#9a32cd" stroke="#9a32cd" points="1291.92,-854.8 1282.35,-859.34 1292.67,-861.76 1291.92,-854.8"/>
</a>
</g>
<text text-anchor="middle" x="1369.5" y="-857.13" font-family="Helvetica,sans-Serif" font-size="10.00" fill="grey"> lock</text>
</g>
<!-- Node26&#45;&gt;Node24 -->
<g id="edge32_Node000024_Node000026" class="edge">
<title>Node26&#45;&gt;Node24</title>
<g id="a_edge32_Node000024_Node000026"><a xlink:title=" ">
<path fill="none" stroke="#9a32cd" stroke-dasharray="5,2" d="M1241.99,-670.75C1260.68,-688.38 1292.17,-716.26 1323,-735.13 1359.74,-757.63 1403.25,-776.89 1441.15,-791.61"/>
<polygon fill="#9a32cd" stroke="#9a32cd" points="1244.22,-668.04 1234.58,-663.66 1239.38,-673.1 1244.22,-668.04"/>
</a>
</g>
<text text-anchor="middle" x="1369.5" y="-782.13" font-family="Helvetica,sans-Serif" font-size="10.00" fill="grey"> head</text>
</g>
<!-- Node33 -->
<g id="Node000033" class="node">
<title>Node33</title>
<g id="a_Node000033"><a xlink:href="structRealm_1_1IntrusivePriorityListLink.html" target="_top" xlink:title=" ">
<polygon fill="white" stroke="#666666" points="1611,-714.13 1458,-714.13 1458,-684.13 1611,-684.13 1611,-714.13"/>
<text text-anchor="start" x="1466" y="-702.13" font-family="Helvetica,sans-Serif" font-size="10.00">Realm::IntrusivePriority</text>
<text text-anchor="middle" x="1534.5" y="-691.13" font-family="Helvetica,sans-Serif" font-size="10.00">ListLink&lt; Realm::XferDes &gt;</text>
</a>
</g>
</g>
<!-- Node26&#45;&gt;Node33 -->
<g id="edge44_Node000033_Node000026" class="edge">
<title>Node26&#45;&gt;Node33</title>
<g id="a_edge44_Node000033_Node000026"><a xlink:title=" ">
<path fill="none" stroke="#9a32cd" stroke-dasharray="5,2" d="M1281.11,-658.44C1319.27,-661.76 1370.85,-666.99 1416,-674.13 1433.2,-676.86 1451.68,-680.46 1468.78,-684.09"/>
<polygon fill="#9a32cd" stroke="#9a32cd" points="1280.98,-654.92 1270.71,-657.56 1280.38,-661.9 1280.98,-654.92"/>
</a>
</g>
<text text-anchor="middle" x="1369.5" y="-699.13" font-family="Helvetica,sans-Serif" font-size="10.00" fill="grey"> lastlink_within_pri</text>
<text text-anchor="middle" x="1369.5" y="-688.13" font-family="Helvetica,sans-Serif" font-size="10.00" fill="grey">next_lower_pri</text>
<text text-anchor="middle" x="1369.5" y="-677.13" font-family="Helvetica,sans-Serif" font-size="10.00" fill="grey">next_within_pri</text>
</g>
<!-- Node34 -->
<g id="Node000034" class="node">
<title>Node34</title>
<g id="a_Node000034"><a xlink:href="classRealm_1_1XferDes_1_1DeferredXDEnqueue.html" target="_top" xlink:title=" ">
<polygon fill="white" stroke="#666666" points="1605.5,-607.13 1463.5,-607.13 1463.5,-577.13 1605.5,-577.13 1605.5,-607.13"/>
<text text-anchor="start" x="1471.5" y="-595.13" font-family="Helvetica,sans-Serif" font-size="10.00">Realm::XferDes::Deferred</text>
<text text-anchor="middle" x="1534.5" y="-584.13" font-family="Helvetica,sans-Serif" font-size="10.00">XDEnqueue</text>
</a>
</g>
</g>
<!-- Node26&#45;&gt;Node34 -->
<g id="edge50_Node000034_Node000026" class="edge">
<title>Node26&#45;&gt;Node34</title>
<g id="a_edge50_Node000034_Node000026"><a xlink:title=" ">
<path fill="none" stroke="#9a32cd" stroke-dasharray="5,2" d="M1280.61,-645.59C1318.83,-639.46 1370.65,-630.64 1416,-621.13 1435.64,-617.02 1456.98,-611.94 1476.01,-607.19"/>
<polygon fill="#9a32cd" stroke="#9a32cd" points="1280.04,-642.14 1270.71,-647.17 1281.14,-649.05 1280.04,-642.14"/>
</a>
</g>
<text text-anchor="middle" x="1369.5" y="-641.13" font-family="Helvetica,sans-Serif" font-size="10.00" fill="grey"> xd</text>
</g>
<!-- Node27&#45;&gt;Node26 -->
<g id="edge33_Node000026_Node000027" class="edge">
<title>Node27&#45;&gt;Node26</title>
<g id="a_edge33_Node000026_Node000027"><a xlink:title=" ">
<path fill="none" stroke="#9a32cd" stroke-dasharray="5,2" d="M985.38,-537.06C1037.15,-542.36 1101.8,-551.45 1125,-565.13 1136.18,-571.73 1133.94,-578.84 1143,-588.13 1164.49,-610.18 1192.96,-632.22 1209.51,-644.43"/>
<polygon fill="#9a32cd" stroke="#9a32cd" points="985.51,-533.55 975.21,-536.05 984.81,-540.52 985.51,-533.55"/>
</a>
</g>
<text text-anchor="middle" x="1072.5" y="-568.13" font-family="Helvetica,sans-Serif" font-size="10.00" fill="grey"> xferDes_queue</text>
</g>
<!-- Node27&#45;&gt;Node34 -->
<g id="edge49_Node000034_Node000027" class="edge">
<title>Node27&#45;&gt;Node34</title>
<g id="a_edge49_Node000034_Node000027"><a xlink:title=" ">
<path fill="none" stroke="#9a32cd" stroke-dasharray="5,2" d="M985.59,-529.29C1026.67,-529.3 1078.97,-531.08 1125,-538.13 1133.21,-539.39 1134.86,-541.5 1143,-543.13 1253.87,-565.37 1384.6,-579.33 1463.17,-586.43"/>
<polygon fill="#9a32cd" stroke="#9a32cd" points="985.39,-525.79 975.4,-529.33 985.41,-532.79 985.39,-525.79"/>
</a>
</g>
<text text-anchor="middle" x="1224" y="-572.13" font-family="Helvetica,sans-Serif" font-size="10.00" fill="grey"> xferDes_queue</text>
</g>
<!-- Node28 -->
<g id="Node000028" class="node">
<title>Node28</title>
<g id="a_Node000028"><a xlink:href="classRealm_1_1atomic.html" target="_top" xlink:title=" ">
<polygon fill="white" stroke="#666666" points="654.5,-545.63 494.5,-545.63 494.5,-526.63 654.5,-526.63 654.5,-545.63"/>
<text text-anchor="middle" x="574.5" y="-533.63" font-family="Helvetica,sans-Serif" font-size="10.00">Realm::atomic&lt; XferDesID &gt;</text>
</a>
</g>
</g>
<!-- Node28&#45;&gt;Node27 -->
<g id="edge35_Node000027_Node000028" class="edge">
<title>Node28&#45;&gt;Node27</title>
<g id="a_edge35_Node000027_Node000028"><a xlink:title=" ">
<path fill="none" stroke="#9a32cd" stroke-dasharray="5,2" d="M665.03,-534.8C723.41,-533.93 798.1,-532.82 849.88,-532.05"/>
<polygon fill="#9a32cd" stroke="#9a32cd" points="664.65,-531.31 654.7,-534.96 664.75,-538.31 664.65,-531.31"/>
</a>
</g>
<text text-anchor="middle" x="743.5" y="-538.13" font-family="Helvetica,sans-Serif" font-size="10.00" fill="grey"> next_to_assign_idx</text>
</g>
<!-- Node29 -->
<g id="Node000029" class="node">
<title>Node29</title>
<g id="a_Node000029"><a xlink:href="classRealm_1_1atomic.html" target="_top" xlink:title=" ">
<polygon fill="white" stroke="#666666" points="978,-623.63 847,-623.63 847,-604.63 978,-604.63 978,-623.63"/>
<text text-anchor="middle" x="912.5" y="-611.63" font-family="Helvetica,sans-Serif" font-size="10.00">Realm::atomic&lt; bool &gt;</text>
</a>
</g>
</g>
<!-- Node29&#45;&gt;Node26 -->
<g id="edge36_Node000026_Node000029" class="edge">
<title>Node29&#45;&gt;Node26</title>
<g id="a_edge36_Node000026_Node000029"><a xlink:title=" ">
<path fill="none" stroke="#9a32cd" stroke-dasharray="5,2" d="M988.39,-613.14C1029.07,-613.74 1080.09,-616.33 1125,-624.13 1150.42,-628.55 1178.48,-637.59 1198.04,-644.6"/>
<polygon fill="#9a32cd" stroke="#9a32cd" points="988.32,-609.64 978.28,-613.03 988.25,-616.64 988.32,-609.64"/>
</a>
</g>
<text text-anchor="middle" x="1072.5" y="-638.13" font-family="Helvetica,sans-Serif" font-size="10.00" fill="grey"> iteration_completed</text>
<text text-anchor="middle" x="1072.5" y="-627.13" font-family="Helvetica,sans-Serif" font-size="10.00" fill="grey">transfer_completed</text>
</g>
<!-- Node30 -->
<g id="Node000030" class="node">
<title>Node30</title>
<g id="a_Node000030"><a xlink:href="classRealm_1_1atomic.html" target="_top" xlink:title=" ">
<polygon fill="white" stroke="#666666" points="984.5,-586.63 840.5,-586.63 840.5,-567.63 984.5,-567.63 984.5,-586.63"/>
<text text-anchor="middle" x="912.5" y="-574.63" font-family="Helvetica,sans-Serif" font-size="10.00">Realm::atomic&lt; int64_t &gt;</text>
</a>
</g>
</g>
<!-- Node30&#45;&gt;Node26 -->
<g id="edge37_Node000026_Node000030" class="edge">
<title>Node30&#45;&gt;Node26</title>
<g id="a_edge37_Node000026_Node000030"><a xlink:title=" ">
<path fill="none" stroke="#9a32cd" stroke-dasharray="5,2" d="M995.21,-577.91C1035.13,-580.22 1083.41,-585.92 1125,-599.13 1157.73,-609.53 1191.77,-631.63 1209.86,-644.42"/>
<polygon fill="#9a32cd" stroke="#9a32cd" points="995.15,-574.41 984.99,-577.38 994.79,-581.4 995.15,-574.41"/>
</a>
</g>
<text text-anchor="middle" x="1072.5" y="-602.13" font-family="Helvetica,sans-Serif" font-size="10.00" fill="grey"> bytes_write_pending</text>
</g>
<!-- Node31 -->
<g id="Node000031" class="node">
<title>Node31</title>
<g id="a_Node000031"><a xlink:href="structRealm_1_1XferDes_1_1ControlPortState.html" target="_top" xlink:title=" ">
<polygon fill="white" stroke="#666666" points="989.5,-752.13 835.5,-752.13 835.5,-722.13 989.5,-722.13 989.5,-752.13"/>
<text text-anchor="start" x="843.5" y="-740.13" font-family="Helvetica,sans-Serif" font-size="10.00">Realm::XferDes::ControlPort</text>
<text text-anchor="middle" x="912.5" y="-729.13" font-family="Helvetica,sans-Serif" font-size="10.00">State</text>
</a>
</g>
</g>
<!-- Node31&#45;&gt;Node26 -->
<g id="edge38_Node000026_Node000031" class="edge">
<title>Node31&#45;&gt;Node26</title>
<g id="a_edge38_Node000026_Node000031"><a xlink:title=" ">
<path fill="none" stroke="#9a32cd" stroke-dasharray="5,2" d="M979.1,-718.48C986.99,-715.42 994.79,-711.97 1002,-708.13 1010.95,-703.37 1010.78,-698.34 1020,-694.13 1034.14,-687.69 1121.87,-671.69 1177.28,-661.99"/>
<polygon fill="#9a32cd" stroke="#9a32cd" points="977.65,-715.29 969.48,-722.04 980.07,-721.86 977.65,-715.29"/>
</a>
</g>
<text text-anchor="middle" x="1072.5" y="-708.13" font-family="Helvetica,sans-Serif" font-size="10.00" fill="grey"> input_control</text>
<text text-anchor="middle" x="1072.5" y="-697.13" font-family="Helvetica,sans-Serif" font-size="10.00" fill="grey">output_control</text>
</g>
<!-- Node32 -->
<g id="Node000032" class="node">
<title>Node32</title>
<g id="a_Node000032"><a xlink:href="classRealm_1_1ControlPort_1_1Decoder.html" target="_top" xlink:title=" ">
<polygon fill="white" stroke="#666666" points="629,-752.13 520,-752.13 520,-722.13 629,-722.13 629,-752.13"/>
<text text-anchor="start" x="528" y="-740.13" font-family="Helvetica,sans-Serif" font-size="10.00">Realm::ControlPort</text>
<text text-anchor="middle" x="574.5" y="-729.13" font-family="Helvetica,sans-Serif" font-size="10.00">::Decoder</text>
</a>
</g>
</g>
<!-- Node32&#45;&gt;Node31 -->
<g id="edge39_Node000031_Node000032" class="edge">
<title>Node32&#45;&gt;Node31</title>
<g id="a_edge39_Node000031_Node000032"><a xlink:title=" ">
<path fill="none" stroke="#9a32cd" stroke-dasharray="5,2" d="M639.22,-737.13C694.97,-737.13 776.07,-737.13 835.25,-737.13"/>
<polygon fill="#9a32cd" stroke="#9a32cd" points="639.11,-733.63 629.11,-737.13 639.11,-740.63 639.11,-733.63"/>
</a>
</g>
<text text-anchor="middle" x="743.5" y="-740.13" font-family="Helvetica,sans-Serif" font-size="10.00" fill="grey"> decoder</text>
</g>
<!-- Node33&#45;&gt;Node26 -->
<g id="edge43_Node000026_Node000033" class="edge">
<title>Node33&#45;&gt;Node26</title>
<g id="a_edge43_Node000026_Node000033"><a xlink:title=" ">
<path fill="none" stroke="#9a32cd" stroke-dasharray="5,2" d="M1453.22,-715.52C1413.44,-720.68 1365.03,-722.47 1323,-711.13 1288.79,-701.91 1254.24,-677.48 1236.74,-663.78"/>
<polygon fill="#9a32cd" stroke="#9a32cd" points="1453.72,-718.99 1463.14,-714.14 1452.76,-712.05 1453.72,-718.99"/>
</a>
</g>
<text text-anchor="middle" x="1369.5" y="-723.13" font-family="Helvetica,sans-Serif" font-size="10.00" fill="grey"> xd_link</text>
</g>
<!-- Node34&#45;&gt;Node26 -->
<g id="edge45_Node000026_Node000034" class="edge">
<title>Node34&#45;&gt;Node26</title>
<g id="a_edge45_Node000026_Node000034"><a xlink:title=" ">
<path fill="none" stroke="#9a32cd" stroke-dasharray="5,2" d="M1453.14,-592.69C1413.44,-594.55 1365.13,-599.21 1323,-610.13 1293.03,-617.9 1260.72,-634.1 1241.71,-644.52"/>
<polygon fill="#9a32cd" stroke="#9a32cd" points="1453.45,-596.18 1463.3,-592.26 1453.16,-589.18 1453.45,-596.18"/>
</a>
</g>
<text text-anchor="middle" x="1369.5" y="-613.13" font-family="Helvetica,sans-Serif" font-size="10.00" fill="grey"> deferred_enqueue</text>
</g>
<!-- Node35 -->
<g id="Node000035" class="node">
<title>Node35</title>
<g id="a_Node000035"><a xlink:href="classRealm_1_1EventWaiter.html" target="_top" xlink:title=" ">
<polygon fill="white" stroke="#666666" points="1280.5,-534.63 1167.5,-534.63 1167.5,-515.63 1280.5,-515.63 1280.5,-534.63"/>
<text text-anchor="middle" x="1224" y="-522.63" font-family="Helvetica,sans-Serif" font-size="10.00">Realm::EventWaiter</text>
</a>
</g>
</g>
<!-- Node35&#45;&gt;Node34 -->
<g id="edge46_Node000034_Node000035" class="edge">
<title>Node35&#45;&gt;Node34</title>
<g id="a_edge46_Node000034_Node000035"><a xlink:title=" ">
<path fill="none" stroke="#63b8ff" d="M1281.63,-536.69C1319.66,-544.53 1370.89,-555.23 1416,-565.13 1433.28,-568.93 1451.95,-573.16 1469.21,-577.12"/>
<polygon fill="#63b8ff" stroke="#63b8ff" points="1282.26,-533.25 1271.76,-534.66 1280.85,-540.11 1282.26,-533.25"/>
</a>
</g>
</g>
<!-- Node36 -->
<g id="Node000036" class="node">
<title>Node36</title>
<g id="a_Node000036"><a xlink:href="structRealm_1_1IntrusiveListLink.html" target="_top" xlink:title=" ">
<polygon fill="white" stroke="#666666" points="1602.5,-528.13 1466.5,-528.13 1466.5,-498.13 1602.5,-498.13 1602.5,-528.13"/>
<text text-anchor="start" x="1474.5" y="-516.13" font-family="Helvetica,sans-Serif" font-size="10.00">Realm::IntrusiveListLink</text>
<text text-anchor="middle" x="1534.5" y="-505.13" font-family="Helvetica,sans-Serif" font-size="10.00">&lt; Realm::EventWaiter &gt;</text>
</a>
</g>
</g>
<!-- Node35&#45;&gt;Node36 -->
<g id="edge48_Node000036_Node000035" class="edge">
<title>Node35&#45;&gt;Node36</title>
<g id="a_edge48_Node000036_Node000035"><a xlink:title=" ">
<path fill="none" stroke="#9a32cd" stroke-dasharray="5,2" d="M1290.58,-522.58C1342.31,-520.57 1414.2,-517.77 1466.34,-515.75"/>
<polygon fill="#9a32cd" stroke="#9a32cd" points="1290.37,-519.09 1280.51,-522.98 1290.64,-526.08 1290.37,-519.09"/>
</a>
</g>
<text text-anchor="middle" x="1369.5" y="-525.13" font-family="Helvetica,sans-Serif" font-size="10.00" fill="grey"> next</text>
</g>
<!-- Node36&#45;&gt;Node35 -->
<g id="edge47_Node000035_Node000036" class="edge">
<title>Node36&#45;&gt;Node35</title>
<g id="a_edge47_Node000035_Node000036"><a xlink:title=" ">
<path fill="none" stroke="#9a32cd" stroke-dasharray="5,2" d="M1459.61,-496.34C1419.1,-489.5 1368.11,-484.74 1323,-492.13 1295.89,-496.58 1266.18,-507.5 1246.66,-515.56"/>
<polygon fill="#9a32cd" stroke="#9a32cd" points="1459.21,-499.83 1469.67,-498.12 1460.43,-492.93 1459.21,-499.83"/>
</a>
</g>
<text text-anchor="middle" x="1369.5" y="-495.13" font-family="Helvetica,sans-Serif" font-size="10.00" fill="grey"> ew_list_link</text>
</g>
</g>
</svg>
