<?xml version="1.0" encoding="UTF-8" standalone="no"?>
<!DOCTYPE svg PUBLIC "-//W3C//DTD SVG 1.1//EN"
 "http://www.w3.org/Graphics/SVG/1.1/DTD/svg11.dtd">
<!-- Generated by graphviz version 2.43.0 (0)
 -->
<!-- Title: Realm::XferDesPlaceholder Pages: 1 -->
<svg width="1520pt" height="572pt"
 viewBox="0.00 0.00 1520.00 571.50" xmlns="http://www.w3.org/2000/svg" xmlns:xlink="http://www.w3.org/1999/xlink">
<g id="graph0" class="graph" transform="scale(1 1) rotate(0) translate(4 567.5)">
<title>Realm::XferDesPlaceholder</title>
<!-- Node1 -->
<g id="Node000001" class="node">
<title>Node1</title>
<g id="a_Node000001"><a xlink:title=" ">
<polygon fill="#999999" stroke="#666666" points="1510.5,-446.5 1360.5,-446.5 1360.5,-427.5 1510.5,-427.5 1510.5,-446.5"/>
<text text-anchor="middle" x="1435.5" y="-434.5" font-family="Helvetica,sans-Serif" font-size="10.00">Realm::XferDesPlaceholder</text>
</a>
</g>
</g>
<!-- Node2 -->
<g id="Node000002" class="node">
<title>Node2</title>
<g id="a_Node000002"><a xlink:href="classRealm_1_1atomic.html" target="_top" xlink:title=" ">
<polygon fill="white" stroke="#666666" points="933,-398.5 778,-398.5 778,-379.5 933,-379.5 933,-398.5"/>
<text text-anchor="middle" x="855.5" y="-386.5" font-family="Helvetica,sans-Serif" font-size="10.00">Realm::atomic&lt; unsigned &gt;</text>
</a>
</g>
</g>
<!-- Node2&#45;&gt;Node1 -->
<g id="edge1_Node000001_Node000002" class="edge">
<title>Node2&#45;&gt;Node1</title>
<g id="a_edge1_Node000001_Node000002"><a xlink:title=" ">
<path fill="none" stroke="#9a32cd" stroke-dasharray="5,2" d="M943.29,-396.21C1056.68,-405.62 1253.31,-421.95 1360.18,-430.83"/>
<polygon fill="#9a32cd" stroke="#9a32cd" points="943.51,-392.71 933.25,-395.37 942.93,-399.69 943.51,-392.71"/>
</a>
</g>
<text text-anchor="start" x="1099.5" y="-444" font-family="Helvetica,sans-Serif" font-size="10.00" fill="grey"> nb_update_pre_bytes</text>
<text text-anchor="middle" x="1153.5" y="-433" font-family="Helvetica,sans-Serif" font-size="10.00" fill="grey">_total_calls_received</text>
<text text-anchor="middle" x="1153.5" y="-422" font-family="Helvetica,sans-Serif" font-size="10.00" fill="grey">refcount</text>
</g>
<!-- Node3 -->
<g id="Node000003" class="node">
<title>Node3</title>
<g id="a_Node000003"><a xlink:href="classRealm_1_1XferDes.html" target="_top" xlink:title=" ">
<polygon fill="white" stroke="#666666" points="1200,-220.5 1107,-220.5 1107,-201.5 1200,-201.5 1200,-220.5"/>
<text text-anchor="middle" x="1153.5" y="-208.5" font-family="Helvetica,sans-Serif" font-size="10.00">Realm::XferDes</text>
</a>
</g>
</g>
<!-- Node2&#45;&gt;Node3 -->
<g id="edge16_Node000003_Node000002" class="edge">
<title>Node2&#45;&gt;Node3</title>
<g id="a_edge16_Node000003_Node000002"><a xlink:title=" ">
<path fill="none" stroke="#9a32cd" stroke-dasharray="5,2" d="M885.3,-375.12C903.75,-366.65 928.39,-356.12 951,-349 997.81,-334.26 1017.14,-351.61 1059,-326 1103.34,-298.88 1135.92,-242.96 1147.69,-220.57"/>
<polygon fill="#9a32cd" stroke="#9a32cd" points="883.58,-372.05 876,-379.45 886.54,-378.4 883.58,-372.05"/>
</a>
</g>
<text text-anchor="start" x="951" y="-385" font-family="Helvetica,sans-Serif" font-size="10.00" fill="grey"> nb_update_pre_bytes</text>
<text text-anchor="middle" x="1005" y="-374" font-family="Helvetica,sans-Serif" font-size="10.00" fill="grey">_total_calls_received</text>
<text text-anchor="middle" x="1005" y="-363" font-family="Helvetica,sans-Serif" font-size="10.00" fill="grey">progress_counter</text>
<text text-anchor="middle" x="1005" y="-352" font-family="Helvetica,sans-Serif" font-size="10.00" fill="grey">reference_count</text>
</g>
<!-- Node3&#45;&gt;Node1 -->
<g id="edge2_Node000001_Node000003" class="edge">
<title>Node3&#45;&gt;Node1</title>
<g id="a_edge2_Node000001_Node000003"><a xlink:title=" ">
<path fill="none" stroke="#9a32cd" stroke-dasharray="5,2" d="M1174.42,-227.07C1228.85,-271.01 1378.97,-392.18 1422.51,-427.33"/>
<polygon fill="#9a32cd" stroke="#9a32cd" points="1176.51,-224.27 1166.53,-220.71 1172.11,-229.72 1176.51,-224.27"/>
</a>
</g>
<text text-anchor="middle" x="1294.5" y="-361" font-family="Helvetica,sans-Serif" font-size="10.00" fill="grey"> xd</text>
</g>
<!-- Node16 -->
<g id="Node000016" class="node">
<title>Node16</title>
<g id="a_Node000016"><a xlink:href="structRealm_1_1IntrusivePriorityListLink.html" target="_top" xlink:title=" ">
<polygon fill="white" stroke="#666666" points="1512,-243 1359,-243 1359,-213 1512,-213 1512,-243"/>
<text text-anchor="start" x="1367" y="-231" font-family="Helvetica,sans-Serif" font-size="10.00">Realm::IntrusivePriority</text>
<text text-anchor="middle" x="1435.5" y="-220" font-family="Helvetica,sans-Serif" font-size="10.00">ListLink&lt; Realm::XferDes &gt;</text>
</a>
</g>
</g>
<!-- Node3&#45;&gt;Node16 -->
<g id="edge18_Node000016_Node000003" class="edge">
<title>Node3&#45;&gt;Node16</title>
<g id="a_edge18_Node000016_Node000003"><a xlink:title=" ">
<path fill="none" stroke="#9a32cd" stroke-dasharray="5,2" d="M1210.27,-219.09C1222.67,-220.63 1235.76,-222.05 1248,-223 1284.33,-225.81 1324.75,-227.12 1358.64,-227.7"/>
<polygon fill="#9a32cd" stroke="#9a32cd" points="1210.42,-215.58 1200.06,-217.78 1209.53,-222.53 1210.42,-215.58"/>
</a>
</g>
<text text-anchor="middle" x="1294.5" y="-253" font-family="Helvetica,sans-Serif" font-size="10.00" fill="grey"> lastlink_within_pri</text>
<text text-anchor="middle" x="1294.5" y="-242" font-family="Helvetica,sans-Serif" font-size="10.00" fill="grey">next_lower_pri</text>
<text text-anchor="middle" x="1294.5" y="-231" font-family="Helvetica,sans-Serif" font-size="10.00" fill="grey">next_within_pri</text>
</g>
<!-- Node17 -->
<g id="Node000017" class="node">
<title>Node17</title>
<g id="a_Node000017"><a xlink:href="classRealm_1_1XferDes_1_1DeferredXDEnqueue.html" target="_top" xlink:title=" ">
<polygon fill="white" stroke="#666666" points="1506.5,-115 1364.5,-115 1364.5,-85 1506.5,-85 1506.5,-115"/>
<text text-anchor="start" x="1372.5" y="-103" font-family="Helvetica,sans-Serif" font-size="10.00">Realm::XferDes::Deferred</text>
<text text-anchor="middle" x="1435.5" y="-92" font-family="Helvetica,sans-Serif" font-size="10.00">XDEnqueue</text>
</a>
</g>
</g>
<!-- Node3&#45;&gt;Node17 -->
<g id="edge24_Node000017_Node000003" class="edge">
<title>Node3&#45;&gt;Node17</title>
<g id="a_edge24_Node000017_Node000003"><a xlink:title=" ">
<path fill="none" stroke="#9a32cd" stroke-dasharray="5,2" d="M1171.92,-193.96C1189.62,-177.63 1218.55,-153.52 1248,-140 1284.57,-123.21 1328.43,-113.35 1364.43,-107.62"/>
<polygon fill="#9a32cd" stroke="#9a32cd" points="1169.04,-191.86 1164.18,-201.28 1173.85,-196.95 1169.04,-191.86"/>
</a>
</g>
<text text-anchor="middle" x="1294.5" y="-143" font-family="Helvetica,sans-Serif" font-size="10.00" fill="grey"> xd</text>
</g>
<!-- Node4 -->
<g id="Node000004" class="node">
<title>Node4</title>
<g id="a_Node000004"><a xlink:href="classRealm_1_1XferDesQueue.html" target="_top" xlink:title=" ">
<polygon fill="white" stroke="#666666" points="918,-136.5 793,-136.5 793,-117.5 918,-117.5 918,-136.5"/>
<text text-anchor="middle" x="855.5" y="-124.5" font-family="Helvetica,sans-Serif" font-size="10.00">Realm::XferDesQueue</text>
</a>
</g>
</g>
<!-- Node4&#45;&gt;Node3 -->
<g id="edge3_Node000003_Node000004" class="edge">
<title>Node4&#45;&gt;Node3</title>
<g id="a_edge3_Node000003_Node000004"><a xlink:title=" ">
<path fill="none" stroke="#9a32cd" stroke-dasharray="5,2" d="M928.46,-137.03C976.58,-144.19 1035.26,-153.95 1059,-162 1088.33,-171.95 1119.68,-190.11 1137.61,-201.32"/>
<polygon fill="#9a32cd" stroke="#9a32cd" points="928.78,-133.54 918.37,-135.54 927.76,-140.46 928.78,-133.54"/>
</a>
</g>
<text text-anchor="middle" x="1005" y="-165" font-family="Helvetica,sans-Serif" font-size="10.00" fill="grey"> xferDes_queue</text>
</g>
<!-- Node4&#45;&gt;Node17 -->
<g id="edge23_Node000017_Node000004" class="edge">
<title>Node4&#45;&gt;Node17</title>
<g id="a_edge23_Node000017_Node000004"><a xlink:title=" ">
<path fill="none" stroke="#9a32cd" stroke-dasharray="5,2" d="M889.13,-113.91C907.07,-107.41 929.9,-100.27 951,-97 1096.58,-74.45 1269.79,-84.23 1364.33,-92.61"/>
<polygon fill="#9a32cd" stroke="#9a32cd" points="887.85,-110.65 879.71,-117.42 890.3,-117.21 887.85,-110.65"/>
</a>
</g>
<text text-anchor="middle" x="1153.5" y="-88" font-family="Helvetica,sans-Serif" font-size="10.00" fill="grey"> xferDes_queue</text>
</g>
<!-- Node5 -->
<g id="Node000005" class="node">
<title>Node5</title>
<g id="a_Node000005"><a xlink:href="classRealm_1_1UnfairMutex.html" target="_top" xlink:title=" ">
<polygon fill="white" stroke="#666666" points="622.5,-188.5 507.5,-188.5 507.5,-169.5 622.5,-169.5 622.5,-188.5"/>
<text text-anchor="middle" x="565" y="-176.5" font-family="Helvetica,sans-Serif" font-size="10.00">Realm::UnfairMutex</text>
</a>
</g>
</g>
<!-- Node5&#45;&gt;Node1 -->
<g id="edge28_Node000001_Node000005" class="edge">
<title>Node5&#45;&gt;Node1</title>
<g id="a_edge28_Node000001_Node000005"><a xlink:title=" ">
<path fill="none" stroke="#9a32cd" stroke-dasharray="5,2" d="M576.97,-197.68C604.4,-242.53 680.82,-356.38 778,-408 986.06,-518.52 1285.62,-469.61 1393.69,-446.56"/>
<polygon fill="#9a32cd" stroke="#9a32cd" points="579.89,-195.74 571.73,-188.98 573.89,-199.35 579.89,-195.74"/>
</a>
</g>
<text text-anchor="middle" x="1005" y="-478" font-family="Helvetica,sans-Serif" font-size="10.00" fill="grey"> extra_mutex</text>
</g>
<!-- Node5&#45;&gt;Node3 -->
<g id="edge15_Node000003_Node000005" class="edge">
<title>Node5&#45;&gt;Node3</title>
<g id="a_edge15_Node000003_Node000005"><a xlink:title=" ">
<path fill="none" stroke="#9a32cd" stroke-dasharray="5,2" d="M632.7,-179.04C706.3,-179.45 828.21,-181.24 933,-188 993.22,-191.89 1062.43,-199.7 1106.77,-205.13"/>
<polygon fill="#9a32cd" stroke="#9a32cd" points="632.66,-175.54 622.65,-178.99 632.63,-182.54 632.66,-175.54"/>
</a>
</g>
<text text-anchor="middle" x="855.5" y="-224" font-family="Helvetica,sans-Serif" font-size="10.00" fill="grey"> available_req_mutex</text>
<text text-anchor="middle" x="855.5" y="-213" font-family="Helvetica,sans-Serif" font-size="10.00" fill="grey">update_read_lock</text>
<text text-anchor="middle" x="855.5" y="-202" font-family="Helvetica,sans-Serif" font-size="10.00" fill="grey">update_write_lock</text>
<text text-anchor="middle" x="855.5" y="-191" font-family="Helvetica,sans-Serif" font-size="10.00" fill="grey">xd_lock</text>
</g>
<!-- Node5&#45;&gt;Node4 -->
<g id="edge4_Node000004_Node000005" class="edge">
<title>Node5&#45;&gt;Node4</title>
<g id="a_edge4_Node000004_Node000005"><a xlink:title=" ">
<path fill="none" stroke="#9a32cd" stroke-dasharray="5,2" d="M595.94,-165.47C614.79,-157.57 639.86,-148.16 663,-143 705.66,-133.49 754.8,-129.52 792.63,-127.92"/>
<polygon fill="#9a32cd" stroke="#9a32cd" points="594.5,-162.28 586.69,-169.44 597.26,-168.72 594.5,-162.28"/>
</a>
</g>
<text text-anchor="middle" x="711.5" y="-157" font-family="Helvetica,sans-Serif" font-size="10.00" fill="grey"> guid_lock</text>
<text text-anchor="middle" x="711.5" y="-146" font-family="Helvetica,sans-Serif" font-size="10.00" fill="grey">queues_lock</text>
</g>
<!-- Node6 -->
<g id="Node000006" class="node">
<title>Node6</title>
<g id="a_Node000006"><a xlink:href="classRealm_1_1noncopyable.html" target="_top" xlink:title=" ">
<polygon fill="white" stroke="#666666" points="396,-225.5 280,-225.5 280,-206.5 396,-206.5 396,-225.5"/>
<text text-anchor="middle" x="338" y="-213.5" font-family="Helvetica,sans-Serif" font-size="10.00">Realm::noncopyable</text>
</a>
</g>
</g>
<!-- Node6&#45;&gt;Node5 -->
<g id="edge5_Node000005_Node000006" class="edge">
<title>Node6&#45;&gt;Node5</title>
<g id="a_edge5_Node000005_Node000006"><a xlink:title=" ">
<path fill="none" stroke="#63b8ff" d="M406.3,-204.93C438.52,-199.63 476.68,-193.36 507.38,-188.31"/>
<polygon fill="#63b8ff" stroke="#63b8ff" points="405.37,-201.54 396.07,-206.62 406.5,-208.45 405.37,-201.54"/>
</a>
</g>
</g>
<!-- Node7 -->
<g id="Node000007" class="node">
<title>Node7</title>
<g id="a_Node000007"><a xlink:href="classRealm_1_1atomic.html" target="_top" xlink:title=" ">
<polygon fill="white" stroke="#666666" points="413,-188.5 263,-188.5 263,-169.5 413,-169.5 413,-188.5"/>
<text text-anchor="middle" x="338" y="-176.5" font-family="Helvetica,sans-Serif" font-size="10.00">Realm::atomic&lt; uint32_t &gt;</text>
</a>
</g>
</g>
<!-- Node7&#45;&gt;Node5 -->
<g id="edge6_Node000005_Node000007" class="edge">
<title>Node7&#45;&gt;Node5</title>
<g id="a_edge6_Node000005_Node000007"><a xlink:title=" ">
<path fill="none" stroke="#9a32cd" stroke-dasharray="5,2" d="M423.47,-179C451.44,-179 481.88,-179 507.25,-179"/>
<polygon fill="#9a32cd" stroke="#9a32cd" points="423.3,-175.5 413.3,-179 423.3,-182.5 423.3,-175.5"/>
</a>
</g>
<text text-anchor="middle" x="449" y="-182" font-family="Helvetica,sans-Serif" font-size="10.00" fill="grey"> state</text>
</g>
<!-- Node8 -->
<g id="Node000008" class="node">
<title>Node8</title>
<g id="a_Node000008"><a xlink:href="classRealm_1_1DoorbellList.html" target="_top" xlink:title=" ">
<polygon fill="white" stroke="#666666" points="394.5,-151.5 281.5,-151.5 281.5,-132.5 394.5,-132.5 394.5,-151.5"/>
<text text-anchor="middle" x="338" y="-139.5" font-family="Helvetica,sans-Serif" font-size="10.00">Realm::DoorbellList</text>
</a>
</g>
</g>
<!-- Node8&#45;&gt;Node5 -->
<g id="edge7_Node000005_Node000008" class="edge">
<title>Node8&#45;&gt;Node5</title>
<g id="a_edge7_Node000005_Node000008"><a xlink:title=" ">
<path fill="none" stroke="#9a32cd" stroke-dasharray="5,2" d="M404.52,-152.77C437.13,-158.14 476.17,-164.56 507.46,-169.7"/>
<polygon fill="#9a32cd" stroke="#9a32cd" points="405.05,-149.32 394.62,-151.15 403.92,-156.22 405.05,-149.32"/>
</a>
</g>
<text text-anchor="middle" x="449" y="-166" font-family="Helvetica,sans-Serif" font-size="10.00" fill="grey"> db_list</text>
</g>
<!-- Node9 -->
<g id="Node000009" class="node">
<title>Node9</title>
<g id="a_Node000009"><a xlink:href="classRealm_1_1atomic.html" target="_top" xlink:title=" ">
<polygon fill="white" stroke="#666666" points="152,-151.5 0,-151.5 0,-132.5 152,-132.5 152,-151.5"/>
<text text-anchor="middle" x="76" y="-139.5" font-family="Helvetica,sans-Serif" font-size="10.00">Realm::atomic&lt; uintptr_t &gt;</text>
</a>
</g>
</g>
<!-- Node9&#45;&gt;Node8 -->
<g id="edge8_Node000008_Node000009" class="edge">
<title>Node9&#45;&gt;Node8</title>
<g id="a_edge8_Node000008_Node000009"><a xlink:title=" ">
<path fill="none" stroke="#9a32cd" stroke-dasharray="5,2" d="M162.52,-142C201.61,-142 246.79,-142 281.38,-142"/>
<polygon fill="#9a32cd" stroke="#9a32cd" points="162.2,-138.5 152.2,-142 162.2,-145.5 162.2,-138.5"/>
</a>
</g>
<text text-anchor="middle" x="207.5" y="-145" font-family="Helvetica,sans-Serif" font-size="10.00" fill="grey"> head_or_count</text>
</g>
<!-- Node10 -->
<g id="Node000010" class="node">
<title>Node10</title>
<g id="a_Node000010"><a xlink:href="classRealm_1_1atomic.html" target="_top" xlink:title=" ">
<polygon fill="white" stroke="#666666" points="645,-117.5 485,-117.5 485,-98.5 645,-98.5 645,-117.5"/>
<text text-anchor="middle" x="565" y="-105.5" font-family="Helvetica,sans-Serif" font-size="10.00">Realm::atomic&lt; XferDesID &gt;</text>
</a>
</g>
</g>
<!-- Node10&#45;&gt;Node4 -->
<g id="edge9_Node000004_Node000010" class="edge">
<title>Node10&#45;&gt;Node4</title>
<g id="a_edge9_Node000004_Node000010"><a xlink:title=" ">
<path fill="none" stroke="#9a32cd" stroke-dasharray="5,2" d="M655.51,-105.05C688.43,-104.86 725.97,-105.7 760,-109 777.62,-110.71 796.85,-114.09 813.34,-117.46"/>
<polygon fill="#9a32cd" stroke="#9a32cd" points="655.42,-101.55 645.45,-105.14 655.48,-108.55 655.42,-101.55"/>
</a>
</g>
<text text-anchor="middle" x="711.5" y="-112" font-family="Helvetica,sans-Serif" font-size="10.00" fill="grey"> next_to_assign_idx</text>
</g>
<!-- Node11 -->
<g id="Node000011" class="node">
<title>Node11</title>
<g id="a_Node000011"><a xlink:href="classRealm_1_1atomic.html" target="_top" xlink:title=" ">
<polygon fill="white" stroke="#666666" points="921,-260.5 790,-260.5 790,-241.5 921,-241.5 921,-260.5"/>
<text text-anchor="middle" x="855.5" y="-248.5" font-family="Helvetica,sans-Serif" font-size="10.00">Realm::atomic&lt; bool &gt;</text>
</a>
</g>
</g>
<!-- Node11&#45;&gt;Node3 -->
<g id="edge10_Node000003_Node000011" class="edge">
<title>Node11&#45;&gt;Node3</title>
<g id="a_edge10_Node000003_Node000011"><a xlink:title=" ">
<path fill="none" stroke="#9a32cd" stroke-dasharray="5,2" d="M924.43,-239.93C933.36,-238.56 942.4,-237.22 951,-236 1004.4,-228.45 1065.95,-221 1106.83,-216.22"/>
<polygon fill="#9a32cd" stroke="#9a32cd" points="923.77,-236.49 914.43,-241.49 924.84,-243.41 923.77,-236.49"/>
</a>
</g>
<text text-anchor="middle" x="1005" y="-250" font-family="Helvetica,sans-Serif" font-size="10.00" fill="grey"> iteration_completed</text>
<text text-anchor="middle" x="1005" y="-239" font-family="Helvetica,sans-Serif" font-size="10.00" fill="grey">transfer_completed</text>
</g>
<!-- Node12 -->
<g id="Node000012" class="node">
<title>Node12</title>
<g id="a_Node000012"><a xlink:href="classRealm_1_1atomic.html" target="_top" xlink:title=" ">
<polygon fill="white" stroke="#666666" points="927.5,-334.5 783.5,-334.5 783.5,-315.5 927.5,-315.5 927.5,-334.5"/>
<text text-anchor="middle" x="855.5" y="-322.5" font-family="Helvetica,sans-Serif" font-size="10.00">Realm::atomic&lt; int64_t &gt;</text>
</a>
</g>
</g>
<!-- Node12&#45;&gt;Node3 -->
<g id="edge11_Node000003_Node000012" class="edge">
<title>Node12&#45;&gt;Node3</title>
<g id="a_edge11_Node000003_Node000012"><a xlink:title=" ">
<path fill="none" stroke="#9a32cd" stroke-dasharray="5,2" d="M937.71,-316.33C984.3,-310.46 1037.66,-301.99 1059,-292 1096.15,-274.61 1129.91,-238.08 1144.66,-220.65"/>
<polygon fill="#9a32cd" stroke="#9a32cd" points="937.08,-312.88 927.58,-317.57 937.93,-319.83 937.08,-312.88"/>
</a>
</g>
<text text-anchor="middle" x="1005" y="-318" font-family="Helvetica,sans-Serif" font-size="10.00" fill="grey"> bytes_write_pending</text>
</g>
<!-- Node13 -->
<g id="Node000013" class="node">
<title>Node13</title>
<g id="a_Node000013"><a xlink:href="structRealm_1_1XferDes_1_1ControlPortState.html" target="_top" xlink:title=" ">
<polygon fill="white" stroke="#666666" points="932.5,-87 778.5,-87 778.5,-57 932.5,-57 932.5,-87"/>
<text text-anchor="start" x="786.5" y="-75" font-family="Helvetica,sans-Serif" font-size="10.00">Realm::XferDes::ControlPort</text>
<text text-anchor="middle" x="855.5" y="-64" font-family="Helvetica,sans-Serif" font-size="10.00">State</text>
</a>
</g>
</g>
<!-- Node13&#45;&gt;Node3 -->
<g id="edge12_Node000003_Node000013" class="edge">
<title>Node13&#45;&gt;Node3</title>
<g id="a_edge12_Node000003_Node000013"><a xlink:title=" ">
<path fill="none" stroke="#9a32cd" stroke-dasharray="5,2" d="M942.72,-78.99C980.24,-84.82 1023.61,-95.49 1059,-115 1098.93,-137.02 1132.53,-181.59 1146.08,-201.28"/>
<polygon fill="#9a32cd" stroke="#9a32cd" points="943.22,-75.53 932.82,-77.54 942.21,-82.45 943.22,-75.53"/>
</a>
</g>
<text text-anchor="middle" x="1005" y="-129" font-family="Helvetica,sans-Serif" font-size="10.00" fill="grey"> input_control</text>
<text text-anchor="middle" x="1005" y="-118" font-family="Helvetica,sans-Serif" font-size="10.00" fill="grey">output_control</text>
</g>
<!-- Node14 -->
<g id="Node000014" class="node">
<title>Node14</title>
<g id="a_Node000014"><a xlink:href="classRealm_1_1ControlPort_1_1Decoder.html" target="_top" xlink:title=" ">
<polygon fill="white" stroke="#666666" points="619.5,-80 510.5,-80 510.5,-50 619.5,-50 619.5,-80"/>
<text text-anchor="start" x="518.5" y="-68" font-family="Helvetica,sans-Serif" font-size="10.00">Realm::ControlPort</text>
<text text-anchor="middle" x="565" y="-57" font-family="Helvetica,sans-Serif" font-size="10.00">::Decoder</text>
</a>
</g>
</g>
<!-- Node14&#45;&gt;Node13 -->
<g id="edge13_Node000013_Node000014" class="edge">
<title>Node14&#45;&gt;Node13</title>
<g id="a_edge13_Node000013_Node000014"><a xlink:title=" ">
<path fill="none" stroke="#9a32cd" stroke-dasharray="5,2" d="M629.84,-66.55C673.68,-67.61 732.08,-69.03 778.36,-70.15"/>
<polygon fill="#9a32cd" stroke="#9a32cd" points="629.67,-63.04 619.59,-66.3 629.5,-70.04 629.67,-63.04"/>
</a>
</g>
<text text-anchor="middle" x="711.5" y="-73" font-family="Helvetica,sans-Serif" font-size="10.00" fill="grey"> decoder</text>
</g>
<!-- Node15 -->
<g id="Node000015" class="node">
<title>Node15</title>
<g id="a_Node000015"><a xlink:href="classRealm_1_1Channel.html" target="_top" xlink:title=" ">
<polygon fill="white" stroke="#666666" points="902.5,-297.5 808.5,-297.5 808.5,-278.5 902.5,-278.5 902.5,-297.5"/>
<text text-anchor="middle" x="855.5" y="-285.5" font-family="Helvetica,sans-Serif" font-size="10.00">Realm::Channel</text>
</a>
</g>
</g>
<!-- Node15&#45;&gt;Node3 -->
<g id="edge14_Node000003_Node000015" class="edge">
<title>Node15&#45;&gt;Node3</title>
<g id="a_edge14_Node000003_Node000015"><a xlink:title=" ">
<path fill="none" stroke="#9a32cd" stroke-dasharray="5,2" d="M913.01,-284.47C954.24,-280.74 1011.05,-273.17 1059,-258 1088.1,-248.79 1119.27,-231.43 1137.27,-220.58"/>
<polygon fill="#9a32cd" stroke="#9a32cd" points="912.54,-281 902.88,-285.34 913.14,-287.97 912.54,-281"/>
</a>
</g>
<text text-anchor="middle" x="1005" y="-283" font-family="Helvetica,sans-Serif" font-size="10.00" fill="grey"> channel</text>
</g>
<!-- Node16&#45;&gt;Node3 -->
<g id="edge17_Node000003_Node000016" class="edge">
<title>Node16&#45;&gt;Node3</title>
<g id="a_edge17_Node000003_Node000016"><a xlink:title=" ">
<path fill="none" stroke="#9a32cd" stroke-dasharray="5,2" d="M1348.74,-212.76C1346.13,-212.48 1343.55,-212.22 1341,-212 1293.1,-207.8 1238.02,-208.14 1200.2,-209.16"/>
<polygon fill="#9a32cd" stroke="#9a32cd" points="1348.51,-216.26 1358.86,-213.97 1349.35,-209.31 1348.51,-216.26"/>
</a>
</g>
<text text-anchor="middle" x="1294.5" y="-215" font-family="Helvetica,sans-Serif" font-size="10.00" fill="grey"> xd_link</text>
</g>
<!-- Node17&#45;&gt;Node3 -->
<g id="edge19_Node000003_Node000017" class="edge">
<title>Node17&#45;&gt;Node3</title>
<g id="a_edge19_Node000003_Node000017"><a xlink:title=" ">
<path fill="none" stroke="#9a32cd" stroke-dasharray="5,2" d="M1403.06,-120.56C1385.35,-131.52 1362.52,-144.64 1341,-154 1292.41,-175.13 1233.53,-191.73 1195.1,-201.44"/>
<polygon fill="#9a32cd" stroke="#9a32cd" points="1405.22,-123.34 1411.83,-115.06 1401.5,-117.41 1405.22,-123.34"/>
</a>
</g>
<text text-anchor="middle" x="1294.5" y="-190" font-family="Helvetica,sans-Serif" font-size="10.00" fill="grey"> deferred_enqueue</text>
</g>
<!-- Node18 -->
<g id="Node000018" class="node">
<title>Node18</title>
<g id="a_Node000018"><a xlink:href="classRealm_1_1EventWaiter.html" target="_top" xlink:title=" ">
<polygon fill="white" stroke="#666666" points="1210,-41.5 1097,-41.5 1097,-22.5 1210,-22.5 1210,-41.5"/>
<text text-anchor="middle" x="1153.5" y="-29.5" font-family="Helvetica,sans-Serif" font-size="10.00">Realm::EventWaiter</text>
</a>
</g>
</g>
<!-- Node18&#45;&gt;Node17 -->
<g id="edge20_Node000017_Node000018" class="edge">
<title>Node18&#45;&gt;Node17</title>
<g id="a_edge20_Node000017_Node000018"><a xlink:title=" ">
<path fill="none" stroke="#63b8ff" d="M1214.28,-43.56C1251.01,-50.97 1298.93,-61.21 1341,-72 1355.94,-75.83 1372.07,-80.48 1386.66,-84.87"/>
<polygon fill="#63b8ff" stroke="#63b8ff" points="1214.72,-40.08 1204.23,-41.54 1213.34,-46.94 1214.72,-40.08"/>
</a>
</g>
</g>
<!-- Node19 -->
<g id="Node000019" class="node">
<title>Node19</title>
<g id="a_Node000019"><a xlink:href="structRealm_1_1IntrusiveListLink.html" target="_top" xlink:title=" ">
<polygon fill="white" stroke="#666666" points="1503.5,-30 1367.5,-30 1367.5,0 1503.5,0 1503.5,-30"/>
<text text-anchor="start" x="1375.5" y="-18" font-family="Helvetica,sans-Serif" font-size="10.00">Realm::IntrusiveListLink</text>
<text text-anchor="middle" x="1435.5" y="-7" font-family="Helvetica,sans-Serif" font-size="10.00">&lt; Realm::EventWaiter &gt;</text>
</a>
</g>
</g>
<!-- Node18&#45;&gt;Node19 -->
<g id="edge22_Node000019_Node000018" class="edge">
<title>Node18&#45;&gt;Node19</title>
<g id="a_edge22_Node000019_Node000018"><a xlink:title=" ">
<path fill="none" stroke="#9a32cd" stroke-dasharray="5,2" d="M1191.09,-19.34C1208.16,-14.09 1228.88,-8.61 1248,-6 1287.35,-0.63 1331.74,-2.46 1367.34,-5.83"/>
<polygon fill="#9a32cd" stroke="#9a32cd" points="1189.97,-16.03 1181.5,-22.39 1192.09,-22.7 1189.97,-16.03"/>
</a>
</g>
<text text-anchor="middle" x="1294.5" y="-9" font-family="Helvetica,sans-Serif" font-size="10.00" fill="grey"> next</text>
</g>
<!-- Node19&#45;&gt;Node18 -->
<g id="edge21_Node000018_Node000019" class="edge">
<title>Node19&#45;&gt;Node18</title>
<g id="a_edge21_Node000018_Node000019"><a xlink:title=" ">
<path fill="none" stroke="#9a32cd" stroke-dasharray="5,2" d="M1357.28,-19.69C1310.64,-22.52 1252.28,-26.06 1210.15,-28.62"/>
<polygon fill="#9a32cd" stroke="#9a32cd" points="1357.58,-23.18 1367.35,-19.08 1357.15,-16.19 1357.58,-23.18"/>
</a>
</g>
<text text-anchor="middle" x="1294.5" y="-30" font-family="Helvetica,sans-Serif" font-size="10.00" fill="grey"> ew_list_link</text>
</g>
<!-- Node20 -->
<g id="Node000020" class="node">
<title>Node20</title>
<g id="a_Node000020"><a xlink:href="classRealm_1_1SequenceAssembler.html" target="_top" xlink:title=" ">
<polygon fill="white" stroke="#666666" points="1230,-520.5 1077,-520.5 1077,-501.5 1230,-501.5 1230,-520.5"/>
<text text-anchor="middle" x="1153.5" y="-508.5" font-family="Helvetica,sans-Serif" font-size="10.00">Realm::SequenceAssembler</text>
</a>
</g>
</g>
<!-- Node20&#45;&gt;Node1 -->
<g id="edge25_Node000001_Node000020" class="edge">
<title>Node20&#45;&gt;Node1</title>
<g id="a_edge25_Node000001_Node000020"><a xlink:title=" ">
<path fill="none" stroke="#9a32cd" stroke-dasharray="5,2" d="M1240.31,-503.03C1272.38,-498.65 1308.81,-492.01 1341,-482 1369.38,-473.18 1400.02,-457.03 1418.22,-446.67"/>
<polygon fill="#9a32cd" stroke="#9a32cd" points="1239.52,-499.6 1230.06,-504.37 1240.43,-506.54 1239.52,-499.6"/>
</a>
</g>
<text text-anchor="middle" x="1294.5" y="-504" font-family="Helvetica,sans-Serif" font-size="10.00" fill="grey"> inline_pre_write</text>
</g>
<!-- Node21 -->
<g id="Node000021" class="node">
<title>Node21</title>
<g id="a_Node000021"><a xlink:href="classRealm_1_1atomic.html" target="_top" xlink:title=" ">
<polygon fill="white" stroke="#666666" points="925,-563.5 786,-563.5 786,-544.5 925,-544.5 925,-563.5"/>
<text text-anchor="middle" x="855.5" y="-551.5" font-family="Helvetica,sans-Serif" font-size="10.00">Realm::atomic&lt; size_t &gt;</text>
</a>
</g>
</g>
<!-- Node21&#45;&gt;Node20 -->
<g id="edge26_Node000020_Node000021" class="edge">
<title>Node21&#45;&gt;Node20</title>
<g id="a_edge26_Node000020_Node000021"><a xlink:title=" ">
<path fill="none" stroke="#9a32cd" stroke-dasharray="5,2" d="M935.77,-543.44C973.18,-538.36 1018.41,-532.06 1059,-526 1070.38,-524.3 1082.53,-522.41 1094.17,-520.56"/>
<polygon fill="#9a32cd" stroke="#9a32cd" points="934.88,-540.03 925.44,-544.84 935.82,-546.97 934.88,-540.03"/>
</a>
</g>
<text text-anchor="middle" x="1005" y="-554" font-family="Helvetica,sans-Serif" font-size="10.00" fill="grey"> contig_amount_x2</text>
<text text-anchor="middle" x="1005" y="-543" font-family="Helvetica,sans-Serif" font-size="10.00" fill="grey">first_noncontig</text>
</g>
<!-- Node22 -->
<g id="Node000022" class="node">
<title>Node22</title>
<g id="a_Node000022"><a xlink:href="classRealm_1_1atomic.html" target="_top" xlink:title=" ">
<polygon fill="white" stroke="#666666" points="921,-526 790,-526 790,-496 921,-496 921,-526"/>
<text text-anchor="start" x="798" y="-514" font-family="Helvetica,sans-Serif" font-size="10.00">Realm::atomic&lt; Realm</text>
<text text-anchor="middle" x="855.5" y="-503" font-family="Helvetica,sans-Serif" font-size="10.00">::UnfairMutex * &gt;</text>
</a>
</g>
</g>
<!-- Node22&#45;&gt;Node20 -->
<g id="edge27_Node000020_Node000022" class="edge">
<title>Node22&#45;&gt;Node20</title>
<g id="a_edge27_Node000020_Node000022"><a xlink:title=" ">
<path fill="none" stroke="#9a32cd" stroke-dasharray="5,2" d="M931.27,-511C975.78,-511 1032.11,-511 1076.79,-511"/>
<polygon fill="#9a32cd" stroke="#9a32cd" points="931.09,-507.5 921.09,-511 931.09,-514.5 931.09,-507.5"/>
</a>
</g>
<text text-anchor="middle" x="1005" y="-514" font-family="Helvetica,sans-Serif" font-size="10.00" fill="grey"> mutex</text>
</g>
</g>
</svg>
