<?xml version="1.0" encoding="UTF-8" standalone="no"?>
<!DOCTYPE svg PUBLIC "-//W3C//DTD SVG 1.1//EN"
 "http://www.w3.org/Graphics/SVG/1.1/DTD/svg11.dtd">
<!-- Generated by graphviz version 2.43.0 (0)
 -->
<!-- Title: Realm::EventImpl Pages: 1 -->
<svg width="522pt" height="236pt"
 viewBox="0.00 0.00 521.50 236.00" xmlns="http://www.w3.org/2000/svg" xmlns:xlink="http://www.w3.org/1999/xlink">
<g id="graph0" class="graph" transform="scale(1 1) rotate(0) translate(4 232)">
<title>Realm::EventImpl</title>
<!-- Node1 -->
<g id="Node000001" class="node">
<title>Node1</title>
<g id="a_Node000001"><a xlink:title=" ">
<polygon fill="#999999" stroke="#666666" points="211,-19 107,-19 107,0 211,0 211,-19"/>
<text text-anchor="middle" x="159" y="-7" font-family="Helvetica,sans-Serif" font-size="10.00">Realm::EventImpl</text>
</a>
</g>
</g>
<!-- Node2 -->
<g id="Node000002" class="node">
<title>Node2</title>
<g id="a_Node000002"><a xlink:href="classRealm_1_1ID.html" target="_top" xlink:title=" ">
<polygon fill="white" stroke="#666666" points="135.5,-85 70.5,-85 70.5,-66 135.5,-66 135.5,-85"/>
<text text-anchor="middle" x="103" y="-73" font-family="Helvetica,sans-Serif" font-size="10.00">Realm::ID</text>
</a>
</g>
</g>
<!-- Node2&#45;&gt;Node1 -->
<g id="edge1_Node000001_Node000002" class="edge">
<title>Node2&#45;&gt;Node1</title>
<g id="a_edge1_Node000001_Node000002"><a xlink:title=" ">
<path fill="none" stroke="#9a32cd" stroke-dasharray="5,2" d="M117.33,-58.12C128.11,-45.81 142.47,-29.39 151.21,-19.41"/>
<polygon fill="#9a32cd" stroke="#9a32cd" points="114.5,-56.04 110.55,-65.87 119.77,-60.65 114.5,-56.04"/>
</a>
</g>
<text text-anchor="middle" x="144.5" y="-40" font-family="Helvetica,sans-Serif" font-size="10.00" fill="grey"> me</text>
</g>
<!-- Node3 -->
<g id="Node000003" class="node">
<title>Node3</title>
<g id="a_Node000003"><a xlink:href="classRealm_1_1bitpack.html" target="_top" xlink:title=" ">
<polygon fill="white" stroke="#666666" points="146,-156.5 0,-156.5 0,-137.5 146,-137.5 146,-156.5"/>
<text text-anchor="middle" x="73" y="-144.5" font-family="Helvetica,sans-Serif" font-size="10.00">Realm::bitpack&lt; IDType &gt;</text>
</a>
</g>
</g>
<!-- Node3&#45;&gt;Node2 -->
<g id="edge2_Node000002_Node000003" class="edge">
<title>Node3&#45;&gt;Node2</title>
<g id="a_edge2_Node000002_Node000003"><a xlink:title=" ">
<path fill="none" stroke="#9a32cd" stroke-dasharray="5,2" d="M80.76,-128.03C86.72,-114.22 94.69,-95.76 99.29,-85.09"/>
<polygon fill="#9a32cd" stroke="#9a32cd" points="77.43,-126.91 76.68,-137.48 83.86,-129.68 77.43,-126.91"/>
</a>
</g>
<text text-anchor="middle" x="97.5" y="-106" font-family="Helvetica,sans-Serif" font-size="10.00" fill="grey"> id</text>
</g>
<!-- Node4 -->
<g id="Node000004" class="node">
<title>Node4</title>
<g id="a_Node000004"><a xlink:href="classRealm_1_1ProcessorImpl.html" target="_top" xlink:title=" ">
<polygon fill="white" stroke="#666666" points="306.5,-85 183.5,-85 183.5,-66 306.5,-66 306.5,-85"/>
<text text-anchor="middle" x="245" y="-73" font-family="Helvetica,sans-Serif" font-size="10.00">Realm::ProcessorImpl</text>
</a>
</g>
</g>
<!-- Node4&#45;&gt;Node1 -->
<g id="edge3_Node000001_Node000004" class="edge">
<title>Node4&#45;&gt;Node1</title>
<g id="a_edge3_Node000001_Node000004"><a xlink:title=" ">
<path fill="none" stroke="#9a32cd" stroke-dasharray="5,2" d="M225.29,-59.83C208.43,-47.28 184.71,-29.63 170.69,-19.2"/>
<polygon fill="#9a32cd" stroke="#9a32cd" points="223.29,-62.71 233.4,-65.87 227.47,-57.09 223.29,-62.71"/>
</a>
</g>
<text text-anchor="middle" x="253.5" y="-40" font-family="Helvetica,sans-Serif" font-size="10.00" fill="grey"> owning_processor</text>
</g>
<!-- Node5 -->
<g id="Node000005" class="node">
<title>Node5</title>
<g id="a_Node000005"><a xlink:href="classRealm_1_1DynamicTableFreeList.html" target="_top" xlink:title=" ">
<polygon fill="white" stroke="#666666" points="325.5,-162 164.5,-162 164.5,-132 325.5,-132 325.5,-162"/>
<text text-anchor="start" x="172.5" y="-150" font-family="Helvetica,sans-Serif" font-size="10.00">Realm::DynamicTableFreeList</text>
<text text-anchor="middle" x="245" y="-139" font-family="Helvetica,sans-Serif" font-size="10.00">&lt; ALLOCATOR &gt;</text>
</a>
</g>
</g>
<!-- Node5&#45;&gt;Node4 -->
<g id="edge4_Node000004_Node000005" class="edge">
<title>Node5&#45;&gt;Node4</title>
<g id="a_edge4_Node000004_Node000005"><a xlink:title=" ">
<path fill="none" stroke="#9a32cd" stroke-dasharray="5,2" d="M245,-121.56C245,-108.95 245,-94.35 245,-85.27"/>
<polygon fill="#9a32cd" stroke="#9a32cd" points="241.5,-121.94 245,-131.94 248.5,-121.94 241.5,-121.94"/>
</a>
</g>
<text text-anchor="middle" x="290" y="-106" font-family="Helvetica,sans-Serif" font-size="10.00" fill="grey"> free_local_events</text>
</g>
<!-- Node6 -->
<g id="Node000006" class="node">
<title>Node6</title>
<g id="a_Node000006"><a xlink:href="classRealm_1_1atomic.html" target="_top" xlink:title=" ">
<polygon fill="white" stroke="#666666" points="310.5,-228 179.5,-228 179.5,-209 310.5,-209 310.5,-228"/>
<text text-anchor="middle" x="245" y="-216" font-family="Helvetica,sans-Serif" font-size="10.00">Realm::atomic&lt; ET * &gt;</text>
</a>
</g>
</g>
<!-- Node6&#45;&gt;Node5 -->
<g id="edge5_Node000005_Node000006" class="edge">
<title>Node6&#45;&gt;Node5</title>
<g id="a_edge5_Node000005_Node000006"><a xlink:title=" ">
<path fill="none" stroke="#9a32cd" stroke-dasharray="5,2" d="M245,-198.71C245,-187.19 245,-172.68 245,-162.14"/>
<polygon fill="#9a32cd" stroke="#9a32cd" points="241.5,-198.98 245,-208.98 248.5,-198.98 241.5,-198.98"/>
</a>
</g>
<text text-anchor="middle" x="268.5" y="-183" font-family="Helvetica,sans-Serif" font-size="10.00" fill="grey"> first_free</text>
</g>
<!-- Node7 -->
<g id="Node000007" class="node">
<title>Node7</title>
<g id="a_Node000007"><a xlink:href="classRealm_1_1Processor.html" target="_top" xlink:title=" ">
<polygon fill="white" stroke="#666666" points="444.5,-156.5 343.5,-156.5 343.5,-137.5 444.5,-137.5 444.5,-156.5"/>
<text text-anchor="middle" x="394" y="-144.5" font-family="Helvetica,sans-Serif" font-size="10.00">Realm::Processor</text>
</a>
</g>
</g>
<!-- Node7&#45;&gt;Node4 -->
<g id="edge6_Node000004_Node000007" class="edge">
<title>Node7&#45;&gt;Node4</title>
<g id="a_edge6_Node000004_Node000007"><a xlink:title=" ">
<path fill="none" stroke="#9a32cd" stroke-dasharray="5,2" d="M377.59,-130.39C367.23,-121.27 353.16,-110.18 339,-103 323.27,-95.03 304.81,-89.16 288.43,-85"/>
<polygon fill="#9a32cd" stroke="#9a32cd" points="375.29,-133.02 385.04,-137.17 380,-127.85 375.29,-133.02"/>
</a>
</g>
<text text-anchor="middle" x="365.5" y="-106" font-family="Helvetica,sans-Serif" font-size="10.00" fill="grey"> me</text>
</g>
<!-- Node7&#45;&gt;Node7 -->
<g id="edge7_Node000007_Node000007" class="edge">
<title>Node7&#45;&gt;Node7</title>
<g id="a_edge7_Node000007_Node000007"><a xlink:title=" ">
<path fill="none" stroke="#9a32cd" stroke-dasharray="5,2" d="M454.93,-152.36C459.61,-151.18 462.5,-149.39 462.5,-147 462.5,-143.18 455.11,-140.89 444.78,-140.15"/>
<polygon fill="#9a32cd" stroke="#9a32cd" points="454.17,-148.94 444.78,-153.85 455.19,-155.86 454.17,-148.94"/>
</a>
</g>
<text text-anchor="middle" x="488" y="-144.5" font-family="Helvetica,sans-Serif" font-size="10.00" fill="grey"> NO_PROC</text>
</g>
</g>
</svg>
