<?xml version="1.0" encoding="UTF-8" standalone="no"?>
<!DOCTYPE svg PUBLIC "-//W3C//DTD SVG 1.1//EN"
 "http://www.w3.org/Graphics/SVG/1.1/DTD/svg11.dtd">
<!-- Generated by graphviz version 2.43.0 (0)
 -->
<!-- Title: Realm::InstanceLayoutPieceBase Pages: 1 -->
<svg width="578pt" height="134pt"
 viewBox="0.00 0.00 578.00 134.00" xmlns="http://www.w3.org/2000/svg" xmlns:xlink="http://www.w3.org/1999/xlink">
<g id="graph0" class="graph" transform="scale(1 1) rotate(0) translate(4 130)">
<title>Realm::InstanceLayoutPieceBase</title>
<!-- Node1 -->
<g id="Node000001" class="node">
<title>Node1</title>
<g id="a_Node000001"><a xlink:title=" ">
<polygon fill="#999999" stroke="#666666" points="179,-72.5 0,-72.5 0,-53.5 179,-53.5 179,-72.5"/>
<text text-anchor="middle" x="89.5" y="-60.5" font-family="Helvetica,sans-Serif" font-size="10.00">Realm::InstanceLayoutPieceBase</text>
</a>
</g>
</g>
<!-- Node2 -->
<g id="Node000002" class="node">
<title>Node2</title>
<g id="a_Node000002"><a xlink:href="classRealm_1_1InstanceLayoutPiece.html" target="_top" xlink:title=" ">
<polygon fill="white" stroke="#666666" points="370,-126 215,-126 215,-96 370,-96 370,-126"/>
<text text-anchor="start" x="223" y="-114" font-family="Helvetica,sans-Serif" font-size="10.00">Realm::InstanceLayoutPiece</text>
<text text-anchor="middle" x="292.5" y="-103" font-family="Helvetica,sans-Serif" font-size="10.00">&lt; N, int &gt;</text>
</a>
</g>
</g>
<!-- Node1&#45;&gt;Node2 -->
<g id="edge1_Node000001_Node000002" class="edge">
<title>Node1&#45;&gt;Node2</title>
<g id="a_edge1_Node000001_Node000002"><a xlink:title=" ">
<path fill="none" stroke="#63b8ff" d="M140.55,-74.95C167.14,-81.3 200.1,-89.17 228.42,-95.94"/>
<polygon fill="#63b8ff" stroke="#63b8ff" points="141.23,-71.52 130.69,-72.6 139.61,-78.33 141.23,-71.52"/>
</a>
</g>
</g>
<!-- Node3 -->
<g id="Node000003" class="node">
<title>Node3</title>
<g id="a_Node000003"><a xlink:href="classRealm_1_1InstanceLayoutPiece.html" target="_top" xlink:title=" ">
<polygon fill="white" stroke="#666666" points="370,-78 215,-78 215,-48 370,-48 370,-78"/>
<text text-anchor="start" x="223" y="-66" font-family="Helvetica,sans-Serif" font-size="10.00">Realm::InstanceLayoutPiece</text>
<text text-anchor="middle" x="292.5" y="-55" font-family="Helvetica,sans-Serif" font-size="10.00">&lt; N, T &gt;</text>
</a>
</g>
</g>
<!-- Node1&#45;&gt;Node3 -->
<g id="edge2_Node000001_Node000003" class="edge">
<title>Node1&#45;&gt;Node3</title>
<g id="a_edge2_Node000001_Node000003"><a xlink:title=" ">
<path fill="none" stroke="#63b8ff" d="M189.31,-63C197.9,-63 206.51,-63 214.89,-63"/>
<polygon fill="#63b8ff" stroke="#63b8ff" points="189.25,-59.5 179.25,-63 189.25,-66.5 189.25,-59.5"/>
</a>
</g>
</g>
<!-- Node6 -->
<g id="Node000006" class="node">
<title>Node6</title>
<g id="a_Node000006"><a xlink:href="classRealm_1_1InstanceLayoutPiece.html" target="_top" xlink:title=" ">
<polygon fill="white" stroke="#666666" points="370,-30 215,-30 215,0 370,0 370,-30"/>
<text text-anchor="start" x="223" y="-18" font-family="Helvetica,sans-Serif" font-size="10.00">Realm::InstanceLayoutPiece</text>
<text text-anchor="middle" x="292.5" y="-7" font-family="Helvetica,sans-Serif" font-size="10.00">&lt; N, T &gt;</text>
</a>
</g>
</g>
<!-- Node1&#45;&gt;Node6 -->
<g id="edge5_Node000001_Node000006" class="edge">
<title>Node1&#45;&gt;Node6</title>
<g id="a_edge5_Node000001_Node000006"><a xlink:title=" ">
<path fill="none" stroke="#63b8ff" d="M140.55,-51.05C167.14,-44.7 200.1,-36.83 228.42,-30.06"/>
<polygon fill="#63b8ff" stroke="#63b8ff" points="139.61,-47.67 130.69,-53.4 141.23,-54.48 139.61,-47.67"/>
</a>
</g>
</g>
<!-- Node4 -->
<g id="Node000004" class="node">
<title>Node4</title>
<g id="a_Node000004"><a xlink:href="classRealm_1_1CudaArrayLayoutPiece.html" target="_top" xlink:title=" ">
<polygon fill="white" stroke="#666666" points="570,-126 406,-126 406,-96 570,-96 570,-126"/>
<text text-anchor="start" x="414" y="-114" font-family="Helvetica,sans-Serif" font-size="10.00">Realm::CudaArrayLayoutPiece</text>
<text text-anchor="middle" x="488" y="-103" font-family="Helvetica,sans-Serif" font-size="10.00">&lt; N, T &gt;</text>
</a>
</g>
</g>
<!-- Node3&#45;&gt;Node4 -->
<g id="edge3_Node000003_Node000004" class="edge">
<title>Node3&#45;&gt;Node4</title>
<g id="a_edge3_Node000003_Node000004"><a xlink:title=" ">
<path fill="none" stroke="#63b8ff" d="M364.09,-80.51C384.56,-85.59 406.73,-91.09 426.52,-96"/>
<polygon fill="#63b8ff" stroke="#63b8ff" points="364.74,-77.07 354.19,-78.06 363.06,-83.86 364.74,-77.07"/>
</a>
</g>
</g>
<!-- Node5 -->
<g id="Node000005" class="node">
<title>Node5</title>
<g id="a_Node000005"><a xlink:href="classRealm_1_1HDF5LayoutPiece.html" target="_top" xlink:title=" ">
<polygon fill="white" stroke="#666666" points="558,-78 418,-78 418,-48 558,-48 558,-78"/>
<text text-anchor="start" x="426" y="-66" font-family="Helvetica,sans-Serif" font-size="10.00">Realm::HDF5LayoutPiece</text>
<text text-anchor="middle" x="488" y="-55" font-family="Helvetica,sans-Serif" font-size="10.00">&lt; N, T &gt;</text>
</a>
</g>
</g>
<!-- Node3&#45;&gt;Node5 -->
<g id="edge4_Node000003_Node000005" class="edge">
<title>Node3&#45;&gt;Node5</title>
<g id="a_edge4_Node000003_Node000005"><a xlink:title=" ">
<path fill="none" stroke="#63b8ff" d="M380.29,-63C392.87,-63 405.69,-63 417.87,-63"/>
<polygon fill="#63b8ff" stroke="#63b8ff" points="380.25,-59.5 370.25,-63 380.25,-66.5 380.25,-59.5"/>
</a>
</g>
</g>
<!-- Node7 -->
<g id="Node000007" class="node">
<title>Node7</title>
<g id="a_Node000007"><a xlink:href="classRealm_1_1AffineLayoutPiece.html" target="_top" xlink:title=" ">
<polygon fill="white" stroke="#666666" points="559,-30 417,-30 417,0 559,0 559,-30"/>
<text text-anchor="start" x="425" y="-18" font-family="Helvetica,sans-Serif" font-size="10.00">Realm::AffineLayoutPiece</text>
<text text-anchor="middle" x="488" y="-7" font-family="Helvetica,sans-Serif" font-size="10.00">&lt; N, T &gt;</text>
</a>
</g>
</g>
<!-- Node6&#45;&gt;Node7 -->
<g id="edge6_Node000006_Node000007" class="edge">
<title>Node6&#45;&gt;Node7</title>
<g id="a_edge6_Node000006_Node000007"><a xlink:title=" ">
<path fill="none" stroke="#63b8ff" d="M380.45,-15C392.66,-15 405.09,-15 416.94,-15"/>
<polygon fill="#63b8ff" stroke="#63b8ff" points="380.25,-11.5 370.25,-15 380.25,-18.5 380.25,-11.5"/>
</a>
</g>
</g>
</g>
</svg>
