<?xml version="1.0" encoding="UTF-8" standalone="no"?>
<!DOCTYPE svg PUBLIC "-//W3C//DTD SVG 1.1//EN"
 "http://www.w3.org/Graphics/SVG/1.1/DTD/svg11.dtd">
<!-- Generated by graphviz version 2.43.0 (0)
 -->
<!-- Title: Realm::LLVMJit::LLVMJitModule Pages: 1 -->
<svg width="284pt" height="93pt"
 viewBox="0.00 0.00 284.00 93.00" xmlns="http://www.w3.org/2000/svg" xmlns:xlink="http://www.w3.org/1999/xlink">
<g id="graph0" class="graph" transform="scale(1 1) rotate(0) translate(4 89)">
<title>Realm::LLVMJit::LLVMJitModule</title>
<!-- Node1 -->
<g id="Node000001" class="node">
<title>Node1</title>
<g id="a_Node000001"><a xlink:title=" ">
<polygon fill="#999999" stroke="#666666" points="201.5,-19 34.5,-19 34.5,0 201.5,0 201.5,-19"/>
<text text-anchor="middle" x="118" y="-7" font-family="Helvetica,sans-Serif" font-size="10.00">Realm::LLVMJit::LLVMJitModule</text>
</a>
</g>
</g>
<!-- Node2 -->
<g id="Node000002" class="node">
<title>Node2</title>
<g id="a_Node000002"><a xlink:href="classRealm_1_1Module.html" target="_top" xlink:title=" ">
<polygon fill="white" stroke="#666666" points="90,-85 0,-85 0,-66 90,-66 90,-85"/>
<text text-anchor="middle" x="45" y="-73" font-family="Helvetica,sans-Serif" font-size="10.00">Realm::Module</text>
</a>
</g>
</g>
<!-- Node2&#45;&gt;Node1 -->
<g id="edge1_Node000001_Node000002" class="edge">
<title>Node2&#45;&gt;Node1</title>
<g id="a_edge1_Node000001_Node000002"><a xlink:title=" ">
<path fill="none" stroke="#63b8ff" d="M62.48,-59.18C76.64,-46.76 96.12,-29.68 107.84,-19.41"/>
<polygon fill="#63b8ff" stroke="#63b8ff" points="60.06,-56.64 54.85,-65.87 64.67,-61.91 60.06,-56.64"/>
</a>
</g>
</g>
<!-- Node3 -->
<g id="Node000003" class="node">
<title>Node3</title>
<g id="a_Node000003"><a xlink:href="classRealm_1_1LLVMJit_1_1LLVMJitInternal.html" target="_top" xlink:title=" ">
<polygon fill="white" stroke="#666666" points="276,-85 108,-85 108,-66 276,-66 276,-85"/>
<text text-anchor="middle" x="192" y="-73" font-family="Helvetica,sans-Serif" font-size="10.00">Realm::LLVMJit::LLVMJitInternal</text>
</a>
</g>
</g>
<!-- Node3&#45;&gt;Node1 -->
<g id="edge2_Node000001_Node000003" class="edge">
<title>Node3&#45;&gt;Node1</title>
<g id="a_edge2_Node000001_Node000003"><a xlink:title=" ">
<path fill="none" stroke="#9a32cd" stroke-dasharray="5,2" d="M174.29,-59.18C159.92,-46.76 140.18,-29.68 128.3,-19.41"/>
<polygon fill="#9a32cd" stroke="#9a32cd" points="172.17,-61.97 182.02,-65.87 176.75,-56.68 172.17,-61.97"/>
</a>
</g>
<text text-anchor="middle" x="179.5" y="-40" font-family="Helvetica,sans-Serif" font-size="10.00" fill="grey"> internal</text>
</g>
</g>
</svg>
