<?xml version="1.0" encoding="UTF-8" standalone="no"?>
<!DOCTYPE svg PUBLIC "-//W3C//DTD SVG 1.1//EN"
 "http://www.w3.org/Graphics/SVG/1.1/DTD/svg11.dtd">
<!-- Generated by graphviz version 2.43.0 (0)
 -->
<!-- Title: Realm::DynamicTable&lt; ALLOCATOR &gt; Pages: 1 -->
<svg width="334pt" height="115pt"
 viewBox="0.00 0.00 333.50 115.00" xmlns="http://www.w3.org/2000/svg" xmlns:xlink="http://www.w3.org/1999/xlink">
<g id="graph0" class="graph" transform="scale(1 1) rotate(0) translate(4 111)">
<title>Realm::DynamicTable&lt; ALLOCATOR &gt;</title>
<!-- Node1 -->
<g id="Node000001" class="node">
<title>Node1</title>
<g id="a_Node000001"><a xlink:title=" ">
<polygon fill="#999999" stroke="#666666" points="220.5,-30 97.5,-30 97.5,0 220.5,0 220.5,-30"/>
<text text-anchor="start" x="105.5" y="-18" font-family="Helvetica,sans-Serif" font-size="10.00">Realm::DynamicTable</text>
<text text-anchor="middle" x="159" y="-7" font-family="Helvetica,sans-Serif" font-size="10.00">&lt; ALLOCATOR &gt;</text>
</a>
</g>
</g>
<!-- Node2 -->
<g id="Node000002" class="node">
<title>Node2</title>
<g id="a_Node000002"><a xlink:href="classRealm_1_1atomic.html" target="_top" xlink:title=" ">
<polygon fill="white" stroke="#666666" points="146,-101.5 0,-101.5 0,-82.5 146,-82.5 146,-101.5"/>
<text text-anchor="middle" x="73" y="-89.5" font-family="Helvetica,sans-Serif" font-size="10.00">Realm::atomic&lt; intptr_t &gt;</text>
</a>
</g>
</g>
<!-- Node2&#45;&gt;Node1 -->
<g id="edge1_Node000001_Node000002" class="edge">
<title>Node2&#45;&gt;Node1</title>
<g id="a_edge1_Node000001_Node000002"><a xlink:title=" ">
<path fill="none" stroke="#9a32cd" stroke-dasharray="5,2" d="M90.6,-75.65C105.91,-62.3 127.93,-43.09 142.82,-30.11"/>
<polygon fill="#9a32cd" stroke="#9a32cd" points="88.1,-73.19 82.87,-82.4 92.7,-78.46 88.1,-73.19"/>
</a>
</g>
<text text-anchor="middle" x="160" y="-51" font-family="Helvetica,sans-Serif" font-size="10.00" fill="grey"> root_and_level</text>
</g>
<!-- Node3 -->
<g id="Node000003" class="node">
<title>Node3</title>
<g id="a_Node000003"><a xlink:href="classRealm_1_1atomic.html" target="_top" xlink:title=" ">
<polygon fill="white" stroke="#666666" points="325.5,-107 164.5,-107 164.5,-77 325.5,-77 325.5,-107"/>
<text text-anchor="start" x="172.5" y="-95" font-family="Helvetica,sans-Serif" font-size="10.00">Realm::atomic&lt; Realm</text>
<text text-anchor="middle" x="245" y="-84" font-family="Helvetica,sans-Serif" font-size="10.00">::DynamicTableNodeBase * &gt;</text>
</a>
</g>
</g>
<!-- Node3&#45;&gt;Node1 -->
<g id="edge2_Node000001_Node000003" class="edge">
<title>Node3&#45;&gt;Node1</title>
<g id="a_edge2_Node000001_Node000003"><a xlink:title=" ">
<path fill="none" stroke="#9a32cd" stroke-dasharray="5,2" d="M224.8,-69.58C217.79,-62.48 209.74,-54.69 202,-48 194.82,-41.79 186.53,-35.45 179.16,-30.07"/>
<polygon fill="#9a32cd" stroke="#9a32cd" points="222.45,-72.19 231.93,-76.92 227.47,-67.31 222.45,-72.19"/>
</a>
</g>
<text text-anchor="middle" x="259" y="-51" font-family="Helvetica,sans-Serif" font-size="10.00" fill="grey"> first_alloced_node</text>
</g>
</g>
</svg>
