<?xml version="1.0" encoding="UTF-8" standalone="no"?>
<!DOCTYPE svg PUBLIC "-//W3C//DTD SVG 1.1//EN"
 "http://www.w3.org/Graphics/SVG/1.1/DTD/svg11.dtd">
<!-- Generated by graphviz version 2.43.0 (0)
 -->
<!-- Title: Realm::ExternalHipMemoryResource Pages: 1 -->
<svg width="694pt" height="98pt"
 viewBox="0.00 0.00 694.00 97.50" xmlns="http://www.w3.org/2000/svg" xmlns:xlink="http://www.w3.org/1999/xlink">
<g id="graph0" class="graph" transform="scale(1 1) rotate(0) translate(4 93.5)">
<title>Realm::ExternalHipMemoryResource</title>
<!-- Node1 -->
<g id="Node000001" class="node">
<title>Node1</title>
<g id="a_Node000001"><a xlink:title=" ">
<polygon fill="#999999" stroke="#666666" points="686,-68 534,-68 534,-38 686,-38 686,-68"/>
<text text-anchor="start" x="542" y="-56" font-family="Helvetica,sans-Serif" font-size="10.00">Realm::ExternalHipMemory</text>
<text text-anchor="middle" x="610" y="-45" font-family="Helvetica,sans-Serif" font-size="10.00">Resource</text>
</a>
</g>
</g>
<!-- Node2 -->
<g id="Node000002" class="node">
<title>Node2</title>
<g id="a_Node000002"><a xlink:href="classRealm_1_1ExternalInstanceResource.html" target="_top" xlink:title=" ">
<polygon fill="white" stroke="#666666" points="400,-89.5 219,-89.5 219,-70.5 400,-70.5 400,-89.5"/>
<text text-anchor="middle" x="309.5" y="-77.5" font-family="Helvetica,sans-Serif" font-size="10.00">Realm::ExternalInstanceResource</text>
</a>
</g>
</g>
<!-- Node2&#45;&gt;Node1 -->
<g id="edge1_Node000001_Node000002" class="edge">
<title>Node2&#45;&gt;Node1</title>
<g id="a_edge1_Node000001_Node000002"><a xlink:title=" ">
<path fill="none" stroke="#63b8ff" d="M410.18,-70.98C450.46,-67.34 496.17,-63.21 533.6,-59.82"/>
<polygon fill="#63b8ff" stroke="#63b8ff" points="409.7,-67.51 400.06,-71.9 410.33,-74.48 409.7,-67.51"/>
</a>
</g>
</g>
<!-- Node3 -->
<g id="Node000003" class="node">
<title>Node3</title>
<g id="a_Node000003"><a xlink:href="classRealm_1_1Serialization_1_1PolymorphicSerdezSubclass.html" target="_top" xlink:title=" ">
<polygon fill="white" stroke="#666666" points="415,-52 204,-52 204,0 415,0 415,-52"/>
<text text-anchor="start" x="212" y="-40" font-family="Helvetica,sans-Serif" font-size="10.00">Realm::Serialization</text>
<text text-anchor="start" x="212" y="-29" font-family="Helvetica,sans-Serif" font-size="10.00">::PolymorphicSerdezSubclass</text>
<text text-anchor="start" x="212" y="-18" font-family="Helvetica,sans-Serif" font-size="10.00">&lt; Realm::ExternalInstanceResource,</text>
<text text-anchor="middle" x="309.5" y="-7" font-family="Helvetica,sans-Serif" font-size="10.00"> Realm::ExternalHipMemoryResource &gt;</text>
</a>
</g>
</g>
<!-- Node3&#45;&gt;Node1 -->
<g id="edge2_Node000001_Node000003" class="edge">
<title>Node3&#45;&gt;Node1</title>
<g id="a_edge2_Node000001_Node000003"><a xlink:title=" ">
<path fill="none" stroke="#9a32cd" stroke-dasharray="5,2" d="M425.46,-36.4C461.7,-39.68 500.79,-43.21 533.55,-46.18"/>
<polygon fill="#9a32cd" stroke="#9a32cd" points="425.59,-32.9 415.32,-35.48 424.96,-39.87 425.59,-32.9"/>
</a>
</g>
<text text-anchor="middle" x="474.5" y="-48" font-family="Helvetica,sans-Serif" font-size="10.00" fill="grey"> serdez_subclass</text>
</g>
<!-- Node4 -->
<g id="Node000004" class="node">
<title>Node4</title>
<g id="a_Node000004"><a xlink:href="classRealm_1_1Serialization_1_1PolymorphicSerdezIntfc.html" target="_top" xlink:title=" ">
<polygon fill="white" stroke="#666666" points="167,-41 0,-41 0,-11 167,-11 167,-41"/>
<text text-anchor="start" x="8" y="-29" font-family="Helvetica,sans-Serif" font-size="10.00">Realm::Serialization</text>
<text text-anchor="middle" x="83.5" y="-18" font-family="Helvetica,sans-Serif" font-size="10.00">::PolymorphicSerdezIntfc&lt; T &gt;</text>
</a>
</g>
</g>
<!-- Node4&#45;&gt;Node3 -->
<g id="edge3_Node000003_Node000004" class="edge">
<title>Node4&#45;&gt;Node3</title>
<g id="a_edge3_Node000003_Node000004"><a xlink:title=" ">
<path fill="none" stroke="#63b8ff" d="M177.36,-26C186.03,-26 194.85,-26 203.62,-26"/>
<polygon fill="#63b8ff" stroke="#63b8ff" points="177.27,-22.5 167.27,-26 177.27,-29.5 177.27,-22.5"/>
</a>
</g>
</g>
</g>
</svg>
