<?xml version="1.0" encoding="UTF-8" standalone="no"?>
<!DOCTYPE svg PUBLIC "-//W3C//DTD SVG 1.1//EN"
 "http://www.w3.org/Graphics/SVG/1.1/DTD/svg11.dtd">
<!-- Generated by graphviz version 2.43.0 (0)
 -->
<!-- Title: Realm::OverlapTester&lt; 1, T &gt; Pages: 1 -->
<svg width="168pt" height="192pt"
 viewBox="0.00 0.00 168.00 192.00" xmlns="http://www.w3.org/2000/svg" xmlns:xlink="http://www.w3.org/1999/xlink">
<g id="graph0" class="graph" transform="scale(1 1) rotate(0) translate(4 188)">
<title>Realm::OverlapTester&lt; 1, T &gt;</title>
<!-- Node1 -->
<g id="Node000001" class="node">
<title>Node1</title>
<g id="a_Node000001"><a xlink:title=" ">
<polygon fill="#999999" stroke="#666666" points="122,-30 0,-30 0,0 122,0 122,-30"/>
<text text-anchor="start" x="8" y="-18" font-family="Helvetica,sans-Serif" font-size="10.00">Realm::OverlapTester</text>
<text text-anchor="middle" x="61" y="-7" font-family="Helvetica,sans-Serif" font-size="10.00">&lt; 1, T &gt;</text>
</a>
</g>
</g>
<!-- Node2 -->
<g id="Node000002" class="node">
<title>Node2</title>
<g id="a_Node000002"><a xlink:href="classRealm_1_1IntervalTree.html" target="_top" xlink:title=" ">
<polygon fill="white" stroke="#666666" points="117,-107 5,-107 5,-77 117,-77 117,-107"/>
<text text-anchor="start" x="13" y="-95" font-family="Helvetica,sans-Serif" font-size="10.00">Realm::IntervalTree</text>
<text text-anchor="middle" x="61" y="-84" font-family="Helvetica,sans-Serif" font-size="10.00">&lt; T, int &gt;</text>
</a>
</g>
</g>
<!-- Node2&#45;&gt;Node1 -->
<g id="edge1_Node000001_Node000002" class="edge">
<title>Node2&#45;&gt;Node1</title>
<g id="a_edge1_Node000001_Node000002"><a xlink:title=" ">
<path fill="none" stroke="#9a32cd" stroke-dasharray="5,2" d="M61,-66.54C61,-54.45 61,-40.29 61,-30.04"/>
<polygon fill="#9a32cd" stroke="#9a32cd" points="57.5,-66.89 61,-76.89 64.5,-66.89 57.5,-66.89"/>
</a>
</g>
<text text-anchor="middle" x="94" y="-51" font-family="Helvetica,sans-Serif" font-size="10.00" fill="grey"> interval_tree</text>
</g>
<!-- Node3 -->
<g id="Node000003" class="node">
<title>Node3</title>
<g id="a_Node000003"><a xlink:href="structRealm_1_1IntervalTree_1_1TreeNode.html" target="_top" xlink:title=" ">
<polygon fill="white" stroke="#666666" points="119,-184 3,-184 3,-154 119,-154 119,-184"/>
<text text-anchor="start" x="11" y="-172" font-family="Helvetica,sans-Serif" font-size="10.00">Realm::IntervalTree</text>
<text text-anchor="middle" x="61" y="-161" font-family="Helvetica,sans-Serif" font-size="10.00">&lt; IT, LT &gt;::TreeNode</text>
</a>
</g>
</g>
<!-- Node3&#45;&gt;Node2 -->
<g id="edge2_Node000002_Node000003" class="edge">
<title>Node3&#45;&gt;Node2</title>
<g id="a_edge2_Node000002_Node000003"><a xlink:title=" ">
<path fill="none" stroke="#9a32cd" stroke-dasharray="5,2" d="M61,-143.54C61,-131.45 61,-117.29 61,-107.04"/>
<polygon fill="#9a32cd" stroke="#9a32cd" points="57.5,-143.89 61,-153.89 64.5,-143.89 57.5,-143.89"/>
</a>
</g>
<text text-anchor="middle" x="72.5" y="-128" font-family="Helvetica,sans-Serif" font-size="10.00" fill="grey"> root</text>
</g>
<!-- Node3&#45;&gt;Node3 -->
<g id="edge3_Node000003_Node000003" class="edge">
<title>Node3&#45;&gt;Node3</title>
<g id="a_edge3_Node000003_Node000003"><a xlink:title=" ">
<path fill="none" stroke="#9a32cd" stroke-dasharray="5,2" d="M129.48,-174.15C134.16,-172.97 137,-171.25 137,-169 137,-165.4 129.73,-163.16 119.31,-162.29"/>
<polygon fill="#9a32cd" stroke="#9a32cd" points="128.67,-170.74 119.31,-175.71 129.73,-177.65 128.67,-170.74"/>
</a>
</g>
<text text-anchor="middle" x="148.5" y="-172" font-family="Helvetica,sans-Serif" font-size="10.00" fill="grey"> left</text>
<text text-anchor="middle" x="148.5" y="-161" font-family="Helvetica,sans-Serif" font-size="10.00" fill="grey">right</text>
</g>
</g>
</svg>
