<?xml version="1.0" encoding="UTF-8" standalone="no"?>
<!DOCTYPE svg PUBLIC "-//W3C//DTD SVG 1.1//EN"
 "http://www.w3.org/Graphics/SVG/1.1/DTD/svg11.dtd">
<!-- Generated by graphviz version 2.43.0 (0)
 -->
<!-- Title: Realm::QueryPredicate&lt; T, T2 &gt; Pages: 1 -->
<svg width="389pt" height="301pt"
 viewBox="0.00 0.00 389.00 300.50" xmlns="http://www.w3.org/2000/svg" xmlns:xlink="http://www.w3.org/1999/xlink">
<g id="graph0" class="graph" transform="scale(1 1) rotate(0) translate(4 296.5)">
<title>Realm::QueryPredicate&lt; T, T2 &gt;</title>
<!-- Node1 -->
<g id="Node000001" class="node">
<title>Node1</title>
<g id="a_Node000001"><a xlink:title=" ">
<polygon fill="#999999" stroke="#666666" points="129,-172.5 0,-172.5 0,-142.5 129,-142.5 129,-172.5"/>
<text text-anchor="start" x="8" y="-160.5" font-family="Helvetica,sans-Serif" font-size="10.00">Realm::QueryPredicate</text>
<text text-anchor="middle" x="64.5" y="-149.5" font-family="Helvetica,sans-Serif" font-size="10.00">&lt; T, T2 &gt;</text>
</a>
</g>
</g>
<!-- Node2 -->
<g id="Node000002" class="node">
<title>Node2</title>
<g id="a_Node000002"><a xlink:href="classRealm_1_1MemoryBestMemAffinityPredicate.html" target="_top" xlink:title=" ">
<polygon fill="white" stroke="#666666" points="381,-292.5 165,-292.5 165,-262.5 381,-262.5 381,-292.5"/>
<text text-anchor="start" x="173" y="-280.5" font-family="Helvetica,sans-Serif" font-size="10.00">Realm::MemoryBestMemAffinity</text>
<text text-anchor="middle" x="273" y="-269.5" font-family="Helvetica,sans-Serif" font-size="10.00">Predicate&lt; Memory, MachineMemInfo &gt;</text>
</a>
</g>
</g>
<!-- Node1&#45;&gt;Node2 -->
<g id="edge1_Node000001_Node000002" class="edge">
<title>Node1&#45;&gt;Node2</title>
<g id="a_edge1_Node000001_Node000002"><a xlink:title=" ">
<path fill="none" stroke="#63b8ff" d="M83.15,-180.72C101.26,-202.87 131.46,-235.43 165,-253.5 171.45,-256.98 178.39,-259.95 185.51,-262.49"/>
<polygon fill="#63b8ff" stroke="#63b8ff" points="85.8,-178.43 76.82,-172.8 80.33,-182.8 85.8,-178.43"/>
</a>
</g>
</g>
<!-- Node3 -->
<g id="Node000003" class="node">
<title>Node3</title>
<g id="a_Node000003"><a xlink:href="classRealm_1_1MemoryBestProcAffinityPredicate.html" target="_top" xlink:title=" ">
<polygon fill="white" stroke="#666666" points="381,-244.5 165,-244.5 165,-214.5 381,-214.5 381,-244.5"/>
<text text-anchor="start" x="173" y="-232.5" font-family="Helvetica,sans-Serif" font-size="10.00">Realm::MemoryBestProcAffinity</text>
<text text-anchor="middle" x="273" y="-221.5" font-family="Helvetica,sans-Serif" font-size="10.00">Predicate&lt; Memory, MachineMemInfo &gt;</text>
</a>
</g>
</g>
<!-- Node1&#45;&gt;Node3 -->
<g id="edge2_Node000001_Node000003" class="edge">
<title>Node1&#45;&gt;Node3</title>
<g id="a_edge2_Node000001_Node000003"><a xlink:title=" ">
<path fill="none" stroke="#63b8ff" d="M101.61,-177.4C120.13,-186.96 143.31,-197.95 165,-205.5 174.62,-208.85 184.89,-211.85 195.12,-214.49"/>
<polygon fill="#63b8ff" stroke="#63b8ff" points="103.14,-174.24 92.65,-172.7 99.88,-180.44 103.14,-174.24"/>
</a>
</g>
</g>
<!-- Node4 -->
<g id="Node000004" class="node">
<title>Node4</title>
<g id="a_Node000004"><a xlink:href="classRealm_1_1MemoryHasMemAffinityPredicate.html" target="_top" xlink:title=" ">
<polygon fill="white" stroke="#666666" points="381,-196.5 165,-196.5 165,-166.5 381,-166.5 381,-196.5"/>
<text text-anchor="start" x="173" y="-184.5" font-family="Helvetica,sans-Serif" font-size="10.00">Realm::MemoryHasMemAffinity</text>
<text text-anchor="middle" x="273" y="-173.5" font-family="Helvetica,sans-Serif" font-size="10.00">Predicate&lt; Memory, MachineMemInfo &gt;</text>
</a>
</g>
</g>
<!-- Node1&#45;&gt;Node4 -->
<g id="edge3_Node000001_Node000004" class="edge">
<title>Node1&#45;&gt;Node4</title>
<g id="a_edge3_Node000001_Node000004"><a xlink:title=" ">
<path fill="none" stroke="#63b8ff" d="M139.18,-166.06C147.54,-167.03 156.18,-168.04 164.86,-169.05"/>
<polygon fill="#63b8ff" stroke="#63b8ff" points="139.48,-162.57 129.14,-164.9 138.67,-169.53 139.48,-162.57"/>
</a>
</g>
</g>
<!-- Node5 -->
<g id="Node000005" class="node">
<title>Node5</title>
<g id="a_Node000005"><a xlink:href="classRealm_1_1MemoryHasProcAffinityPredicate.html" target="_top" xlink:title=" ">
<polygon fill="white" stroke="#666666" points="381,-148.5 165,-148.5 165,-118.5 381,-118.5 381,-148.5"/>
<text text-anchor="start" x="173" y="-136.5" font-family="Helvetica,sans-Serif" font-size="10.00">Realm::MemoryHasProcAffinity</text>
<text text-anchor="middle" x="273" y="-125.5" font-family="Helvetica,sans-Serif" font-size="10.00">Predicate&lt; Memory, MachineMemInfo &gt;</text>
</a>
</g>
</g>
<!-- Node1&#45;&gt;Node5 -->
<g id="edge4_Node000001_Node000005" class="edge">
<title>Node1&#45;&gt;Node5</title>
<g id="a_edge4_Node000001_Node000005"><a xlink:title=" ">
<path fill="none" stroke="#63b8ff" d="M139.18,-148.94C147.54,-147.97 156.18,-146.96 164.86,-145.95"/>
<polygon fill="#63b8ff" stroke="#63b8ff" points="138.67,-145.47 129.14,-150.1 139.48,-152.43 138.67,-145.47"/>
</a>
</g>
</g>
<!-- Node6 -->
<g id="Node000006" class="node">
<title>Node6</title>
<g id="a_Node000006"><a xlink:href="classRealm_1_1ProcessorBestAffinityPredicate.html" target="_top" xlink:title=" ">
<polygon fill="white" stroke="#666666" points="367.5,-100 178.5,-100 178.5,-59 367.5,-59 367.5,-100"/>
<text text-anchor="start" x="186.5" y="-88" font-family="Helvetica,sans-Serif" font-size="10.00">Realm::ProcessorBestAffinity</text>
<text text-anchor="start" x="186.5" y="-77" font-family="Helvetica,sans-Serif" font-size="10.00">Predicate&lt; Processor, MachineProc</text>
<text text-anchor="middle" x="273" y="-66" font-family="Helvetica,sans-Serif" font-size="10.00">Info &gt;</text>
</a>
</g>
</g>
<!-- Node1&#45;&gt;Node6 -->
<g id="edge5_Node000001_Node000006" class="edge">
<title>Node1&#45;&gt;Node6</title>
<g id="a_edge5_Node000001_Node000006"><a xlink:title=" ">
<path fill="none" stroke="#63b8ff" d="M102.19,-137.89C120.68,-128.49 143.67,-117.56 165,-109.5 173.84,-106.16 183.22,-103 192.6,-100.07"/>
<polygon fill="#63b8ff" stroke="#63b8ff" points="100.52,-134.81 93.23,-142.49 103.72,-141.03 100.52,-134.81"/>
</a>
</g>
</g>
<!-- Node7 -->
<g id="Node000007" class="node">
<title>Node7</title>
<g id="a_Node000007"><a xlink:href="classRealm_1_1ProcessorHasAffinityPredicate.html" target="_top" xlink:title=" ">
<polygon fill="white" stroke="#666666" points="367.5,-41 178.5,-41 178.5,0 367.5,0 367.5,-41"/>
<text text-anchor="start" x="186.5" y="-29" font-family="Helvetica,sans-Serif" font-size="10.00">Realm::ProcessorHasAffinity</text>
<text text-anchor="start" x="186.5" y="-18" font-family="Helvetica,sans-Serif" font-size="10.00">Predicate&lt; Processor, MachineProc</text>
<text text-anchor="middle" x="273" y="-7" font-family="Helvetica,sans-Serif" font-size="10.00">Info &gt;</text>
</a>
</g>
</g>
<!-- Node1&#45;&gt;Node7 -->
<g id="edge6_Node000001_Node000007" class="edge">
<title>Node1&#45;&gt;Node7</title>
<g id="a_edge6_Node000001_Node000007"><a xlink:title=" ">
<path fill="none" stroke="#63b8ff" d="M81.38,-133.91C99.02,-109.51 129.7,-72.02 165,-50.5 170.77,-46.98 176.95,-43.87 183.34,-41.11"/>
<polygon fill="#63b8ff" stroke="#63b8ff" points="78.4,-132.07 75.49,-142.26 84.12,-136.11 78.4,-132.07"/>
</a>
</g>
</g>
</g>
</svg>
