<?xml version="1.0" encoding="UTF-8" standalone="no"?>
<!DOCTYPE svg PUBLIC "-//W3C//DTD SVG 1.1//EN"
 "http://www.w3.org/Graphics/SVG/1.1/DTD/svg11.dtd">
<!-- Generated by graphviz version 2.43.0 (0)
 -->
<!-- Title: Realm::UCP::UCPRemoteMemory Pages: 1 -->
<svg width="338pt" height="148pt"
 viewBox="0.00 0.00 338.00 148.00" xmlns="http://www.w3.org/2000/svg" xmlns:xlink="http://www.w3.org/1999/xlink">
<g id="graph0" class="graph" transform="scale(1 1) rotate(0) translate(4 144)">
<title>Realm::UCP::UCPRemoteMemory</title>
<!-- Node1 -->
<g id="Node000001" class="node">
<title>Node1</title>
<g id="a_Node000001"><a xlink:title=" ">
<polygon fill="#999999" stroke="#666666" points="266,-19 87,-19 87,0 266,0 266,-19"/>
<text text-anchor="middle" x="176.5" y="-7" font-family="Helvetica,sans-Serif" font-size="10.00">Realm::UCP::UCPRemoteMemory</text>
</a>
</g>
</g>
<!-- Node2 -->
<g id="Node000002" class="node">
<title>Node2</title>
<g id="a_Node000002"><a xlink:href="classRealm_1_1UCP_1_1UCPRemoteMemoryCommon.html" target="_top" xlink:title=" ">
<polygon fill="white" stroke="#666666" points="179,-85 0,-85 0,-55 179,-55 179,-85"/>
<text text-anchor="start" x="8" y="-73" font-family="Helvetica,sans-Serif" font-size="10.00">Realm::UCP::UCPRemoteMemory</text>
<text text-anchor="middle" x="89.5" y="-62" font-family="Helvetica,sans-Serif" font-size="10.00">Common</text>
</a>
</g>
</g>
<!-- Node2&#45;&gt;Node1 -->
<g id="edge1_Node000001_Node000002" class="edge">
<title>Node2&#45;&gt;Node1</title>
<g id="a_edge1_Node000001_Node000002"><a xlink:title=" ">
<path fill="none" stroke="#63b8ff" d="M119.15,-49.06C134.34,-38.85 152.04,-26.95 163.72,-19.09"/>
<polygon fill="#63b8ff" stroke="#63b8ff" points="116.91,-46.35 110.56,-54.84 120.81,-52.16 116.91,-46.35"/>
</a>
</g>
</g>
<!-- Node3 -->
<g id="Node000003" class="node">
<title>Node3</title>
<g id="a_Node000003"><a xlink:href="classRealm_1_1RemoteMemory.html" target="_top" xlink:title=" ">
<polygon fill="white" stroke="#666666" points="330,-79.5 197,-79.5 197,-60.5 330,-60.5 330,-79.5"/>
<text text-anchor="middle" x="263.5" y="-67.5" font-family="Helvetica,sans-Serif" font-size="10.00">Realm::RemoteMemory</text>
</a>
</g>
</g>
<!-- Node3&#45;&gt;Node1 -->
<g id="edge2_Node000001_Node000003" class="edge">
<title>Node3&#45;&gt;Node1</title>
<g id="a_edge2_Node000001_Node000003"><a xlink:title=" ">
<path fill="none" stroke="#63b8ff" d="M242.17,-54.66C225.64,-43.55 203.29,-28.51 189.39,-19.17"/>
<polygon fill="#63b8ff" stroke="#63b8ff" points="240.41,-57.69 250.66,-60.37 244.32,-51.88 240.41,-57.69"/>
</a>
</g>
</g>
<!-- Node4 -->
<g id="Node000004" class="node">
<title>Node4</title>
<g id="a_Node000004"><a xlink:href="classRealm_1_1MemoryImpl.html" target="_top" xlink:title=" ">
<polygon fill="white" stroke="#666666" points="321.5,-140 205.5,-140 205.5,-121 321.5,-121 321.5,-140"/>
<text text-anchor="middle" x="263.5" y="-128" font-family="Helvetica,sans-Serif" font-size="10.00">Realm::MemoryImpl</text>
</a>
</g>
</g>
<!-- Node4&#45;&gt;Node3 -->
<g id="edge3_Node000003_Node000004" class="edge">
<title>Node4&#45;&gt;Node3</title>
<g id="a_edge3_Node000003_Node000004"><a xlink:title=" ">
<path fill="none" stroke="#63b8ff" d="M263.5,-110.66C263.5,-100.24 263.5,-87.8 263.5,-79.67"/>
<polygon fill="#63b8ff" stroke="#63b8ff" points="260,-110.87 263.5,-120.87 267,-110.87 260,-110.87"/>
</a>
</g>
</g>
</g>
</svg>
