<?xml version="1.0" encoding="UTF-8" standalone="no"?>
<!DOCTYPE svg PUBLIC "-//W3C//DTD SVG 1.1//EN"
 "http://www.w3.org/Graphics/SVG/1.1/DTD/svg11.dtd">
<!-- Generated by graphviz version 2.43.0 (0)
 -->
<!-- Title: PRealm::UserEvent Pages: 1 -->
<svg width="224pt" height="139pt"
 viewBox="0.00 0.00 224.00 139.00" xmlns="http://www.w3.org/2000/svg" xmlns:xlink="http://www.w3.org/1999/xlink">
<g id="graph0" class="graph" transform="scale(1 1) rotate(0) translate(4 135)">
<title>PRealm::UserEvent</title>
<!-- Node1 -->
<g id="Node000001" class="node">
<title>Node1</title>
<g id="a_Node000001"><a xlink:title=" ">
<polygon fill="#999999" stroke="#666666" points="110,-19 0,-19 0,0 110,0 110,-19"/>
<text text-anchor="middle" x="55" y="-7" font-family="Helvetica,sans-Serif" font-size="10.00">PRealm::UserEvent</text>
</a>
</g>
</g>
<!-- Node1&#45;&gt;Node1 -->
<g id="edge5_Node000001_Node000001" class="edge">
<title>Node1&#45;&gt;Node1</title>
<g id="a_edge5_Node000001_Node000001"><a xlink:title=" ">
<path fill="none" stroke="#9a32cd" stroke-dasharray="5,2" d="M120.36,-13.38C125.1,-12.5 128,-11.21 128,-9.5 128,-6.77 120.57,-5.1 110.07,-4.5"/>
<polygon fill="#9a32cd" stroke="#9a32cd" points="119.63,-9.93 110.07,-14.5 120.39,-16.89 119.63,-9.93"/>
</a>
</g>
<text text-anchor="middle" x="172" y="-7" font-family="Helvetica,sans-Serif" font-size="10.00" fill="grey"> NO_USER_EVENT</text>
</g>
<!-- Node2 -->
<g id="Node000002" class="node">
<title>Node2</title>
<g id="a_Node000002"><a xlink:href="classPRealm_1_1Event.html" target="_top" xlink:title=" ">
<polygon fill="white" stroke="#666666" points="99,-75 11,-75 11,-56 99,-56 99,-75"/>
<text text-anchor="middle" x="55" y="-63" font-family="Helvetica,sans-Serif" font-size="10.00">PRealm::Event</text>
</a>
</g>
</g>
<!-- Node2&#45;&gt;Node1 -->
<g id="edge1_Node000001_Node000002" class="edge">
<title>Node2&#45;&gt;Node1</title>
<g id="a_edge1_Node000001_Node000002"><a xlink:title=" ">
<path fill="none" stroke="#63b8ff" d="M55,-45.3C55,-36.41 55,-26.28 55,-19.25"/>
<polygon fill="#63b8ff" stroke="#63b8ff" points="51.5,-45.58 55,-55.58 58.5,-45.58 51.5,-45.58"/>
</a>
</g>
</g>
<!-- Node2&#45;&gt;Node2 -->
<g id="edge4_Node000002_Node000002" class="edge">
<title>Node2&#45;&gt;Node2</title>
<g id="a_edge4_Node000002_Node000002"><a xlink:title=" ">
<path fill="none" stroke="#9a32cd" stroke-dasharray="5,2" d="M109.26,-69.63C114.02,-68.75 117,-67.38 117,-65.5 117,-62.49 109.37,-60.78 99.02,-60.35"/>
<polygon fill="#9a32cd" stroke="#9a32cd" points="108.63,-66.17 99.02,-70.65 109.32,-73.14 108.63,-66.17"/>
</a>
</g>
<text text-anchor="middle" x="145" y="-63" font-family="Helvetica,sans-Serif" font-size="10.00" fill="grey"> NO_EVENT</text>
</g>
<!-- Node3 -->
<g id="Node000003" class="node">
<title>Node3</title>
<g id="a_Node000003"><a xlink:href="classRealm_1_1Event.html" target="_top" xlink:title=" ">
<polygon fill="white" stroke="#666666" points="96,-131 14,-131 14,-112 96,-112 96,-131"/>
<text text-anchor="middle" x="55" y="-119" font-family="Helvetica,sans-Serif" font-size="10.00">Realm::Event</text>
</a>
</g>
</g>
<!-- Node3&#45;&gt;Node2 -->
<g id="edge2_Node000002_Node000003" class="edge">
<title>Node3&#45;&gt;Node2</title>
<g id="a_edge2_Node000002_Node000003"><a xlink:title=" ">
<path fill="none" stroke="#63b8ff" d="M55,-101.3C55,-92.41 55,-82.28 55,-75.25"/>
<polygon fill="#63b8ff" stroke="#63b8ff" points="51.5,-101.58 55,-111.58 58.5,-101.58 51.5,-101.58"/>
</a>
</g>
</g>
<!-- Node3&#45;&gt;Node3 -->
<g id="edge3_Node000003_Node000003" class="edge">
<title>Node3&#45;&gt;Node3</title>
<g id="a_edge3_Node000003_Node000003"><a xlink:title=" ">
<path fill="none" stroke="#9a32cd" stroke-dasharray="5,2" d="M106.26,-125.7C111.01,-124.83 114,-123.43 114,-121.5 114,-118.41 106.34,-116.68 96.08,-116.32"/>
<polygon fill="#9a32cd" stroke="#9a32cd" points="105.7,-122.23 96.08,-126.68 106.37,-129.2 105.7,-122.23"/>
</a>
</g>
<text text-anchor="middle" x="142" y="-119" font-family="Helvetica,sans-Serif" font-size="10.00" fill="grey"> NO_EVENT</text>
</g>
</g>
</svg>
