<?xml version="1.0" encoding="UTF-8" standalone="no"?>
<!DOCTYPE svg PUBLIC "-//W3C//DTD SVG 1.1//EN"
 "http://www.w3.org/Graphics/SVG/1.1/DTD/svg11.dtd">
<!-- Generated by graphviz version 2.43.0 (0)
 -->
<!-- Title: Realm::TransferDesc::DeferredAnalysis Pages: 1 -->
<svg width="936pt" height="430pt"
 viewBox="0.00 0.00 936.00 429.50" xmlns="http://www.w3.org/2000/svg" xmlns:xlink="http://www.w3.org/1999/xlink">
<g id="graph0" class="graph" transform="scale(1 1) rotate(0) translate(4 425.5)">
<title>Realm::TransferDesc::DeferredAnalysis</title>
<!-- Node1 -->
<g id="Node000001" class="node">
<title>Node1</title>
<g id="a_Node000001"><a xlink:title=" ">
<polygon fill="#999999" stroke="#666666" points="655,-48.5 538,-48.5 538,-18.5 655,-18.5 655,-48.5"/>
<text text-anchor="start" x="546" y="-36.5" font-family="Helvetica,sans-Serif" font-size="10.00">Realm::TransferDesc</text>
<text text-anchor="middle" x="596.5" y="-25.5" font-family="Helvetica,sans-Serif" font-size="10.00">::DeferredAnalysis</text>
</a>
</g>
</g>
<!-- Node4 -->
<g id="Node000004" class="node">
<title>Node4</title>
<g id="a_Node000004"><a xlink:href="classRealm_1_1TransferDesc.html" target="_top" xlink:title=" ">
<polygon fill="white" stroke="#666666" points="928,-248 811,-248 811,-229 928,-229 928,-248"/>
<text text-anchor="middle" x="869.5" y="-236" font-family="Helvetica,sans-Serif" font-size="10.00">Realm::TransferDesc</text>
</a>
</g>
</g>
<!-- Node1&#45;&gt;Node4 -->
<g id="edge6_Node000004_Node000001" class="edge">
<title>Node1&#45;&gt;Node4</title>
<g id="a_edge6_Node000004_Node000001"><a xlink:title=" ">
<path fill="none" stroke="#9a32cd" stroke-dasharray="5,2" d="M665.2,-51.67C670.26,-53.5 675.25,-55.44 680,-57.5 693.39,-63.31 782.43,-114.44 793,-124.5 827.22,-157.06 853.86,-207.89 864.03,-228.9"/>
<polygon fill="#9a32cd" stroke="#9a32cd" points="666,-48.25 655.41,-48.33 663.74,-54.87 666,-48.25"/>
</a>
</g>
<text text-anchor="middle" x="745.5" y="-127.5" font-family="Helvetica,sans-Serif" font-size="10.00" fill="grey"> deferred_analysis</text>
</g>
<!-- Node2 -->
<g id="Node000002" class="node">
<title>Node2</title>
<g id="a_Node000002"><a xlink:href="classRealm_1_1EventWaiter.html" target="_top" xlink:title=" ">
<polygon fill="white" stroke="#666666" points="394.5,-85 281.5,-85 281.5,-66 394.5,-66 394.5,-85"/>
<text text-anchor="middle" x="338" y="-73" font-family="Helvetica,sans-Serif" font-size="10.00">Realm::EventWaiter</text>
</a>
</g>
</g>
<!-- Node2&#45;&gt;Node1 -->
<g id="edge1_Node000001_Node000002" class="edge">
<title>Node2&#45;&gt;Node1</title>
<g id="a_edge1_Node000001_Node000002"><a xlink:title=" ">
<path fill="none" stroke="#63b8ff" d="M404.58,-64.76C445.69,-58.03 498.19,-49.43 537.73,-42.96"/>
<polygon fill="#63b8ff" stroke="#63b8ff" points="403.96,-61.32 394.66,-66.39 405.09,-68.22 403.96,-61.32"/>
</a>
</g>
</g>
<!-- Node3 -->
<g id="Node000003" class="node">
<title>Node3</title>
<g id="a_Node000003"><a xlink:href="structRealm_1_1IntrusiveListLink.html" target="_top" xlink:title=" ">
<polygon fill="white" stroke="#666666" points="664.5,-96.5 528.5,-96.5 528.5,-66.5 664.5,-66.5 664.5,-96.5"/>
<text text-anchor="start" x="536.5" y="-84.5" font-family="Helvetica,sans-Serif" font-size="10.00">Realm::IntrusiveListLink</text>
<text text-anchor="middle" x="596.5" y="-73.5" font-family="Helvetica,sans-Serif" font-size="10.00">&lt; Realm::EventWaiter &gt;</text>
</a>
</g>
</g>
<!-- Node2&#45;&gt;Node3 -->
<g id="edge3_Node000003_Node000002" class="edge">
<title>Node2&#45;&gt;Node3</title>
<g id="a_edge3_Node000003_Node000002"><a xlink:title=" ">
<path fill="none" stroke="#9a32cd" stroke-dasharray="5,2" d="M405.01,-84.35C413.74,-85.24 422.57,-86 431,-86.5 462.94,-88.4 498.42,-87.68 528.23,-86.27"/>
<polygon fill="#9a32cd" stroke="#9a32cd" points="405.17,-80.85 394.85,-83.26 404.42,-87.81 405.17,-80.85"/>
</a>
</g>
<text text-anchor="middle" x="463" y="-90.5" font-family="Helvetica,sans-Serif" font-size="10.00" fill="grey"> next</text>
</g>
<!-- Node3&#45;&gt;Node2 -->
<g id="edge2_Node000002_Node000003" class="edge">
<title>Node3&#45;&gt;Node2</title>
<g id="a_edge2_Node000002_Node000003"><a xlink:title=" ">
<path fill="none" stroke="#9a32cd" stroke-dasharray="5,2" d="M518.48,-76.43C510.55,-76.05 502.62,-75.73 495,-75.5 461.7,-74.51 424.39,-74.47 394.61,-74.7"/>
<polygon fill="#9a32cd" stroke="#9a32cd" points="518.33,-79.93 528.49,-76.94 518.68,-72.94 518.33,-79.93"/>
</a>
</g>
<text text-anchor="middle" x="463" y="-78.5" font-family="Helvetica,sans-Serif" font-size="10.00" fill="grey"> ew_list_link</text>
</g>
<!-- Node4&#45;&gt;Node1 -->
<g id="edge4_Node000001_Node000004" class="edge">
<title>Node4&#45;&gt;Node1</title>
<g id="a_edge4_Node000001_Node000004"><a xlink:title=" ">
<path fill="none" stroke="#9a32cd" stroke-dasharray="5,2" d="M866.73,-218.52C862.14,-179.98 846.23,-95.61 793,-55.5 753.99,-26.11 697.56,-22.69 655.35,-25.39"/>
<polygon fill="#9a32cd" stroke="#9a32cd" points="863.29,-219.33 867.81,-228.91 870.25,-218.6 863.29,-219.33"/>
</a>
</g>
<text text-anchor="middle" x="745.5" y="-58.5" font-family="Helvetica,sans-Serif" font-size="10.00" fill="grey"> desc</text>
</g>
<!-- Node5 -->
<g id="Node000005" class="node">
<title>Node5</title>
<g id="a_Node000005"><a xlink:href="classRealm_1_1atomic.html" target="_top" xlink:title=" ">
<polygon fill="white" stroke="#666666" points="658,-415 535,-415 535,-396 658,-396 658,-415"/>
<text text-anchor="middle" x="596.5" y="-403" font-family="Helvetica,sans-Serif" font-size="10.00">Realm::atomic&lt; int &gt;</text>
</a>
</g>
</g>
<!-- Node5&#45;&gt;Node4 -->
<g id="edge5_Node000004_Node000005" class="edge">
<title>Node5&#45;&gt;Node4</title>
<g id="a_edge5_Node000004_Node000005"><a xlink:title=" ">
<path fill="none" stroke="#9a32cd" stroke-dasharray="5,2" d="M668.34,-412.13C708.19,-412.33 757,-406.32 793,-381.5 841.08,-348.36 860.87,-274.67 866.6,-248.2"/>
<polygon fill="#9a32cd" stroke="#9a32cd" points="668.22,-408.63 658.16,-411.95 668.09,-415.63 668.22,-408.63"/>
</a>
</g>
<text text-anchor="middle" x="745.5" y="-413.5" font-family="Helvetica,sans-Serif" font-size="10.00" fill="grey"> refcount</text>
</g>
<!-- Node6 -->
<g id="Node000006" class="node">
<title>Node6</title>
<g id="a_Node000006"><a xlink:href="classRealm_1_1TransferDomain.html" target="_top" xlink:title=" ">
<polygon fill="white" stroke="#666666" points="662,-378 531,-378 531,-359 662,-359 662,-378"/>
<text text-anchor="middle" x="596.5" y="-366" font-family="Helvetica,sans-Serif" font-size="10.00">Realm::TransferDomain</text>
</a>
</g>
</g>
<!-- Node6&#45;&gt;Node4 -->
<g id="edge7_Node000004_Node000006" class="edge">
<title>Node6&#45;&gt;Node4</title>
<g id="a_edge7_Node000004_Node000006"><a xlink:title=" ">
<path fill="none" stroke="#9a32cd" stroke-dasharray="5,2" d="M672.44,-369.58C710.85,-367.05 756.98,-359.01 793,-337.5 829.75,-315.56 854.82,-268.34 864.29,-248.06"/>
<polygon fill="#9a32cd" stroke="#9a32cd" points="672.14,-366.09 662.35,-370.13 672.52,-373.08 672.14,-366.09"/>
</a>
</g>
<text text-anchor="middle" x="745.5" y="-369.5" font-family="Helvetica,sans-Serif" font-size="10.00" fill="grey"> domain</text>
</g>
<!-- Node7 -->
<g id="Node000007" class="node">
<title>Node7</title>
<g id="a_Node000007"><a xlink:href="classRealm_1_1ProfilingRequestSet.html" target="_top" xlink:title=" ">
<polygon fill="white" stroke="#666666" points="671,-341 522,-341 522,-322 671,-322 671,-341"/>
<text text-anchor="middle" x="596.5" y="-329" font-family="Helvetica,sans-Serif" font-size="10.00">Realm::ProfilingRequestSet</text>
</a>
</g>
</g>
<!-- Node7&#45;&gt;Node4 -->
<g id="edge8_Node000004_Node000007" class="edge">
<title>Node7&#45;&gt;Node4</title>
<g id="a_edge8_Node000004_Node000007"><a xlink:title=" ">
<path fill="none" stroke="#9a32cd" stroke-dasharray="5,2" d="M681.76,-325.31C717.24,-320.47 758.27,-311.85 793,-296.5 819.91,-284.61 845.9,-261.21 859.24,-248.06"/>
<polygon fill="#9a32cd" stroke="#9a32cd" points="680.9,-321.89 671.42,-326.63 681.79,-328.83 680.9,-321.89"/>
</a>
</g>
<text text-anchor="middle" x="745.5" y="-325.5" font-family="Helvetica,sans-Serif" font-size="10.00" fill="grey"> prs</text>
</g>
<!-- Node8 -->
<g id="Node000008" class="node">
<title>Node8</title>
<g id="a_Node000008"><a xlink:href="classRealm_1_1UnfairMutex.html" target="_top" xlink:title=" ">
<polygon fill="white" stroke="#666666" points="654,-304 539,-304 539,-285 654,-285 654,-304"/>
<text text-anchor="middle" x="596.5" y="-292" font-family="Helvetica,sans-Serif" font-size="10.00">Realm::UnfairMutex</text>
</a>
</g>
</g>
<!-- Node8&#45;&gt;Node4 -->
<g id="edge9_Node000004_Node000008" class="edge">
<title>Node8&#45;&gt;Node4</title>
<g id="a_edge9_Node000004_Node000008"><a xlink:title=" ">
<path fill="none" stroke="#9a32cd" stroke-dasharray="5,2" d="M664.02,-287.3C702.11,-282.43 750.61,-274.96 793,-264.5 810.5,-260.18 829.69,-253.54 844.35,-248.06"/>
<polygon fill="#9a32cd" stroke="#9a32cd" points="663.56,-283.83 654.07,-288.54 664.42,-290.78 663.56,-283.83"/>
</a>
</g>
<text text-anchor="middle" x="745.5" y="-284.5" font-family="Helvetica,sans-Serif" font-size="10.00" fill="grey"> mutex</text>
</g>
<!-- Node9 -->
<g id="Node000009" class="node">
<title>Node9</title>
<g id="a_Node000009"><a xlink:href="classRealm_1_1noncopyable.html" target="_top" xlink:title=" ">
<polygon fill="white" stroke="#666666" points="396,-341 280,-341 280,-322 396,-322 396,-341"/>
<text text-anchor="middle" x="338" y="-329" font-family="Helvetica,sans-Serif" font-size="10.00">Realm::noncopyable</text>
</a>
</g>
</g>
<!-- Node9&#45;&gt;Node8 -->
<g id="edge10_Node000008_Node000009" class="edge">
<title>Node9&#45;&gt;Node8</title>
<g id="a_edge10_Node000008_Node000009"><a xlink:title=" ">
<path fill="none" stroke="#63b8ff" d="M406,-322.17C433.57,-318.3 465.83,-313.73 495,-309.5 509.23,-307.43 524.58,-305.16 538.91,-303.03"/>
<polygon fill="#63b8ff" stroke="#63b8ff" points="405.49,-318.71 396.07,-323.56 406.46,-325.64 405.49,-318.71"/>
</a>
</g>
</g>
<!-- Node10 -->
<g id="Node000010" class="node">
<title>Node10</title>
<g id="a_Node000010"><a xlink:href="classRealm_1_1atomic.html" target="_top" xlink:title=" ">
<polygon fill="white" stroke="#666666" points="413,-304 263,-304 263,-285 413,-285 413,-304"/>
<text text-anchor="middle" x="338" y="-292" font-family="Helvetica,sans-Serif" font-size="10.00">Realm::atomic&lt; uint32_t &gt;</text>
</a>
</g>
</g>
<!-- Node10&#45;&gt;Node8 -->
<g id="edge11_Node000008_Node000010" class="edge">
<title>Node10&#45;&gt;Node8</title>
<g id="a_edge11_Node000008_Node000010"><a xlink:title=" ">
<path fill="none" stroke="#9a32cd" stroke-dasharray="5,2" d="M423.22,-294.5C461.2,-294.5 505.05,-294.5 539,-294.5"/>
<polygon fill="#9a32cd" stroke="#9a32cd" points="423.19,-291 413.19,-294.5 423.19,-298 423.19,-291"/>
</a>
</g>
<text text-anchor="middle" x="463" y="-297.5" font-family="Helvetica,sans-Serif" font-size="10.00" fill="grey"> state</text>
</g>
<!-- Node11 -->
<g id="Node000011" class="node">
<title>Node11</title>
<g id="a_Node000011"><a xlink:href="classRealm_1_1DoorbellList.html" target="_top" xlink:title=" ">
<polygon fill="white" stroke="#666666" points="394.5,-267 281.5,-267 281.5,-248 394.5,-248 394.5,-267"/>
<text text-anchor="middle" x="338" y="-255" font-family="Helvetica,sans-Serif" font-size="10.00">Realm::DoorbellList</text>
</a>
</g>
</g>
<!-- Node11&#45;&gt;Node8 -->
<g id="edge12_Node000008_Node000011" class="edge">
<title>Node11&#45;&gt;Node8</title>
<g id="a_edge12_Node000008_Node000011"><a xlink:title=" ">
<path fill="none" stroke="#9a32cd" stroke-dasharray="5,2" d="M404.64,-266.64C432.51,-270.55 465.35,-275.2 495,-279.5 509.23,-281.57 524.58,-283.84 538.91,-285.97"/>
<polygon fill="#9a32cd" stroke="#9a32cd" points="405,-263.15 394.61,-265.23 404.03,-270.09 405,-263.15"/>
</a>
</g>
<text text-anchor="middle" x="463" y="-282.5" font-family="Helvetica,sans-Serif" font-size="10.00" fill="grey"> db_list</text>
</g>
<!-- Node12 -->
<g id="Node000012" class="node">
<title>Node12</title>
<g id="a_Node000012"><a xlink:href="classRealm_1_1atomic.html" target="_top" xlink:title=" ">
<polygon fill="white" stroke="#666666" points="152,-267 0,-267 0,-248 152,-248 152,-267"/>
<text text-anchor="middle" x="76" y="-255" font-family="Helvetica,sans-Serif" font-size="10.00">Realm::atomic&lt; uintptr_t &gt;</text>
</a>
</g>
</g>
<!-- Node12&#45;&gt;Node11 -->
<g id="edge13_Node000011_Node000012" class="edge">
<title>Node12&#45;&gt;Node11</title>
<g id="a_edge13_Node000011_Node000012"><a xlink:title=" ">
<path fill="none" stroke="#9a32cd" stroke-dasharray="5,2" d="M162.52,-257.5C201.61,-257.5 246.79,-257.5 281.38,-257.5"/>
<polygon fill="#9a32cd" stroke="#9a32cd" points="162.2,-254 152.2,-257.5 162.2,-261 162.2,-254"/>
</a>
</g>
<text text-anchor="middle" x="207.5" y="-260.5" font-family="Helvetica,sans-Serif" font-size="10.00" fill="grey"> head_or_count</text>
</g>
<!-- Node13 -->
<g id="Node000013" class="node">
<title>Node13</title>
<g id="a_Node000013"><a xlink:href="classRealm_1_1atomic.html" target="_top" xlink:title=" ">
<polygon fill="white" stroke="#666666" points="662,-267 531,-267 531,-248 662,-248 662,-267"/>
<text text-anchor="middle" x="596.5" y="-255" font-family="Helvetica,sans-Serif" font-size="10.00">Realm::atomic&lt; bool &gt;</text>
</a>
</g>
</g>
<!-- Node13&#45;&gt;Node4 -->
<g id="edge14_Node000004_Node000013" class="edge">
<title>Node13&#45;&gt;Node4</title>
<g id="a_edge14_Node000004_Node000013"><a xlink:title=" ">
<path fill="none" stroke="#9a32cd" stroke-dasharray="5,2" d="M672.09,-252.27C715.89,-249.2 770.4,-245.38 810.88,-242.54"/>
<polygon fill="#9a32cd" stroke="#9a32cd" points="671.8,-248.78 662.07,-252.97 672.29,-255.77 671.8,-248.78"/>
</a>
</g>
<text text-anchor="middle" x="745.5" y="-252.5" font-family="Helvetica,sans-Serif" font-size="10.00" fill="grey"> analysis_complete</text>
</g>
<!-- Node14 -->
<g id="Node000014" class="node">
<title>Node14</title>
<g id="a_Node000014"><a xlink:href="structRealm_1_1TransferGraph.html" target="_top" xlink:title=" ">
<polygon fill="white" stroke="#666666" points="657.5,-230 535.5,-230 535.5,-211 657.5,-211 657.5,-230"/>
<text text-anchor="middle" x="596.5" y="-218" font-family="Helvetica,sans-Serif" font-size="10.00">Realm::TransferGraph</text>
</a>
</g>
</g>
<!-- Node14&#45;&gt;Node4 -->
<g id="edge15_Node000004_Node000014" class="edge">
<title>Node14&#45;&gt;Node4</title>
<g id="a_edge15_Node000004_Node000014"><a xlink:title=" ">
<path fill="none" stroke="#9a32cd" stroke-dasharray="5,2" d="M667.81,-219.18C705.1,-219.17 751.63,-220.27 793,-224.5 803.08,-225.53 813.83,-227.18 823.96,-229"/>
<polygon fill="#9a32cd" stroke="#9a32cd" points="667.54,-215.68 657.55,-219.21 667.56,-222.68 667.54,-215.68"/>
</a>
</g>
<text text-anchor="middle" x="745.5" y="-227.5" font-family="Helvetica,sans-Serif" font-size="10.00" fill="grey"> graph</text>
</g>
<!-- Node15 -->
<g id="Node000015" class="node">
<title>Node15</title>
<g id="a_Node000015"><a xlink:href="structRealm_1_1ProfilingMeasurements_1_1OperationMemoryUsage.html" target="_top" xlink:title=" ">
<polygon fill="white" stroke="#666666" points="680,-192.5 513,-192.5 513,-162.5 680,-162.5 680,-192.5"/>
<text text-anchor="start" x="521" y="-180.5" font-family="Helvetica,sans-Serif" font-size="10.00">Realm::ProfilingMeasurements</text>
<text text-anchor="middle" x="596.5" y="-169.5" font-family="Helvetica,sans-Serif" font-size="10.00">::OperationMemoryUsage</text>
</a>
</g>
</g>
<!-- Node15&#45;&gt;Node4 -->
<g id="edge16_Node000004_Node000015" class="edge">
<title>Node15&#45;&gt;Node4</title>
<g id="a_edge16_Node000004_Node000015"><a xlink:title=" ">
<path fill="none" stroke="#9a32cd" stroke-dasharray="5,2" d="M690.5,-184.08C723.33,-187.91 760.23,-193.96 793,-203.5 814.09,-209.64 836.75,-220.82 851.68,-228.9"/>
<polygon fill="#9a32cd" stroke="#9a32cd" points="690.77,-180.59 680.45,-182.96 690,-187.54 690.77,-180.59"/>
</a>
</g>
<text text-anchor="middle" x="745.5" y="-206.5" font-family="Helvetica,sans-Serif" font-size="10.00" fill="grey"> prof_usage</text>
</g>
<!-- Node16 -->
<g id="Node000016" class="node">
<title>Node16</title>
<g id="a_Node000016"><a xlink:href="classRealm_1_1Memory.html" target="_top" xlink:title=" ">
<polygon fill="white" stroke="#666666" points="385.5,-187 290.5,-187 290.5,-168 385.5,-168 385.5,-187"/>
<text text-anchor="middle" x="338" y="-175" font-family="Helvetica,sans-Serif" font-size="10.00">Realm::Memory</text>
</a>
</g>
</g>
<!-- Node16&#45;&gt;Node15 -->
<g id="edge17_Node000015_Node000016" class="edge">
<title>Node16&#45;&gt;Node15</title>
<g id="a_edge17_Node000015_Node000016"><a xlink:title=" ">
<path fill="none" stroke="#9a32cd" stroke-dasharray="5,2" d="M396.06,-177.5C430.37,-177.5 474.64,-177.5 512.75,-177.5"/>
<polygon fill="#9a32cd" stroke="#9a32cd" points="395.75,-174 385.75,-177.5 395.75,-181 395.75,-174"/>
</a>
</g>
<text text-anchor="middle" x="463" y="-191.5" font-family="Helvetica,sans-Serif" font-size="10.00" fill="grey"> source</text>
<text text-anchor="middle" x="463" y="-180.5" font-family="Helvetica,sans-Serif" font-size="10.00" fill="grey">target</text>
</g>
<!-- Node16&#45;&gt;Node16 -->
<g id="edge18_Node000016_Node000016" class="edge">
<title>Node16&#45;&gt;Node16</title>
<g id="a_edge18_Node000016_Node000016"><a xlink:title=" ">
<path fill="none" stroke="#9a32cd" stroke-dasharray="5,2" d="M315.04,-196.55C316.57,-201.38 324.23,-205 338,-205 360.04,-205 366.41,-195.73 357.11,-187.08"/>
<polygon fill="#9a32cd" stroke="#9a32cd" points="318.36,-197.66 318.89,-187.08 311.88,-195.03 318.36,-197.66"/>
</a>
</g>
<text text-anchor="middle" x="338" y="-208" font-family="Helvetica,sans-Serif" font-size="10.00" fill="grey"> NO_MEMORY</text>
</g>
<!-- Node17 -->
<g id="Node000017" class="node">
<title>Node17</title>
<g id="a_Node000017"><a xlink:href="structRealm_1_1ProfilingMeasurements_1_1OperationCopyInfo.html" target="_top" xlink:title=" ">
<polygon fill="white" stroke="#666666" points="680,-144.5 513,-144.5 513,-114.5 680,-114.5 680,-144.5"/>
<text text-anchor="start" x="521" y="-132.5" font-family="Helvetica,sans-Serif" font-size="10.00">Realm::ProfilingMeasurements</text>
<text text-anchor="middle" x="596.5" y="-121.5" font-family="Helvetica,sans-Serif" font-size="10.00">::OperationCopyInfo</text>
</a>
</g>
</g>
<!-- Node17&#45;&gt;Node4 -->
<g id="edge19_Node000004_Node000017" class="edge">
<title>Node17&#45;&gt;Node4</title>
<g id="a_edge19_Node000004_Node000017"><a xlink:title=" ">
<path fill="none" stroke="#9a32cd" stroke-dasharray="5,2" d="M690.49,-138.11C724.12,-143.86 761.53,-153.47 793,-169.5 822.11,-184.33 848.38,-213.49 860.85,-228.72"/>
<polygon fill="#9a32cd" stroke="#9a32cd" points="690.61,-134.58 680.18,-136.44 689.5,-141.49 690.61,-134.58"/>
</a>
</g>
<text text-anchor="middle" x="745.5" y="-172.5" font-family="Helvetica,sans-Serif" font-size="10.00" fill="grey"> prof_cpinfo</text>
</g>
<!-- Node18 -->
<g id="Node000018" class="node">
<title>Node18</title>
<g id="a_Node000018"><a xlink:href="classRealm_1_1Event.html" target="_top" xlink:title=" ">
<polygon fill="white" stroke="#666666" points="379,-19 297,-19 297,0 379,0 379,-19"/>
<text text-anchor="middle" x="338" y="-7" font-family="Helvetica,sans-Serif" font-size="10.00">Realm::Event</text>
</a>
</g>
</g>
<!-- Node18&#45;&gt;Node1 -->
<g id="edge20_Node000001_Node000018" class="edge">
<title>Node18&#45;&gt;Node1</title>
<g id="a_edge20_Node000001_Node000018"><a xlink:title=" ">
<path fill="none" stroke="#9a32cd" stroke-dasharray="5,2" d="M389.21,-9.66C419.85,-10.2 459.78,-11.69 495,-15.5 508.92,-17.01 523.82,-19.3 537.77,-21.75"/>
<polygon fill="#9a32cd" stroke="#9a32cd" points="389.24,-6.17 379.19,-9.52 389.14,-13.16 389.24,-6.17"/>
</a>
</g>
<text text-anchor="middle" x="463" y="-18.5" font-family="Helvetica,sans-Serif" font-size="10.00" fill="grey"> precondition</text>
</g>
<!-- Node18&#45;&gt;Node18 -->
<g id="edge21_Node000018_Node000018" class="edge">
<title>Node18&#45;&gt;Node18</title>
<g id="a_edge21_Node000018_Node000018"><a xlink:title=" ">
<path fill="none" stroke="#9a32cd" stroke-dasharray="5,2" d="M315.04,-28.55C316.57,-33.38 324.23,-37 338,-37 360.04,-37 366.41,-27.73 357.11,-19.08"/>
<polygon fill="#9a32cd" stroke="#9a32cd" points="318.36,-29.66 318.89,-19.08 311.88,-27.03 318.36,-29.66"/>
</a>
</g>
<text text-anchor="middle" x="338" y="-40" font-family="Helvetica,sans-Serif" font-size="10.00" fill="grey"> NO_EVENT</text>
</g>
</g>
</svg>
