<?xml version="1.0" encoding="UTF-8" standalone="no"?>
<!DOCTYPE svg PUBLIC "-//W3C//DTD SVG 1.1//EN"
 "http://www.w3.org/Graphics/SVG/1.1/DTD/svg11.dtd">
<!-- Generated by graphviz version 2.43.0 (0)
 -->
<!-- Title: Realm::Cuda::GlobalRegistrations Pages: 1 -->
<svg width="489pt" height="93pt"
 viewBox="0.00 0.00 488.50 93.00" xmlns="http://www.w3.org/2000/svg" xmlns:xlink="http://www.w3.org/1999/xlink">
<g id="graph0" class="graph" transform="scale(1 1) rotate(0) translate(4 89)">
<title>Realm::Cuda::GlobalRegistrations</title>
<!-- Node1 -->
<g id="Node000001" class="node">
<title>Node1</title>
<g id="a_Node000001"><a xlink:title=" ">
<polygon fill="#999999" stroke="#666666" points="181,-19 0,-19 0,0 181,0 181,-19"/>
<text text-anchor="middle" x="90.5" y="-7" font-family="Helvetica,sans-Serif" font-size="10.00">Realm::Cuda::GlobalRegistrations</text>
</a>
</g>
</g>
<!-- Node2 -->
<g id="Node000002" class="node">
<title>Node2</title>
<g id="a_Node000002"><a xlink:href="classRealm_1_1RWLock.html" target="_top" xlink:title=" ">
<polygon fill="white" stroke="#666666" points="346,-85 253,-85 253,-66 346,-66 346,-85"/>
<text text-anchor="middle" x="299.5" y="-73" font-family="Helvetica,sans-Serif" font-size="10.00">Realm::RWLock</text>
</a>
</g>
</g>
<!-- Node2&#45;&gt;Node1 -->
<g id="edge1_Node000001_Node000002" class="edge">
<title>Node2&#45;&gt;Node1</title>
<g id="a_edge1_Node000001_Node000002"><a xlink:title=" ">
<path fill="none" stroke="#9a32cd" stroke-dasharray="5,2" d="M253.4,-63.39C235.82,-58.92 215.64,-53.53 197.5,-48 168.12,-39.05 134.82,-27.09 113.28,-19.1"/>
<polygon fill="#9a32cd" stroke="#9a32cd" points="252.87,-66.86 263.42,-65.9 254.57,-60.07 252.87,-66.86"/>
</a>
</g>
<text text-anchor="middle" x="215.5" y="-40" font-family="Helvetica,sans-Serif" font-size="10.00" fill="grey"> rwlock</text>
</g>
<!-- Node3 -->
<g id="Node000003" class="node">
<title>Node3</title>
<g id="a_Node000003"><a xlink:href="structRealm_1_1RWLock_1_1Writer.html" target="_top" xlink:title=" ">
<polygon fill="white" stroke="#666666" points="328,-19 199,-19 199,0 328,0 328,-19"/>
<text text-anchor="middle" x="263.5" y="-7" font-family="Helvetica,sans-Serif" font-size="10.00">Realm::RWLock::Writer</text>
</a>
</g>
</g>
<!-- Node2&#45;&gt;Node3 -->
<g id="edge3_Node000003_Node000002" class="edge">
<title>Node2&#45;&gt;Node3</title>
<g id="a_edge3_Node000003_Node000002"><a xlink:title=" ">
<path fill="none" stroke="#9a32cd" stroke-dasharray="5,2" d="M253.55,-61.23C248,-57.78 243.05,-53.45 239.5,-48 233.09,-38.16 242.75,-26.78 251.66,-19.16"/>
<polygon fill="#9a32cd" stroke="#9a32cd" points="252.16,-64.45 262.65,-65.95 255.39,-58.24 252.16,-64.45"/>
</a>
</g>
<text text-anchor="middle" x="257.5" y="-40" font-family="Helvetica,sans-Serif" font-size="10.00" fill="grey"> rwlock</text>
</g>
<!-- Node4 -->
<g id="Node000004" class="node">
<title>Node4</title>
<g id="a_Node000004"><a xlink:href="structRealm_1_1RWLock_1_1Reader.html" target="_top" xlink:title=" ">
<polygon fill="white" stroke="#666666" points="480.5,-19 346.5,-19 346.5,0 480.5,0 480.5,-19"/>
<text text-anchor="middle" x="413.5" y="-7" font-family="Helvetica,sans-Serif" font-size="10.00">Realm::RWLock::Reader</text>
</a>
</g>
</g>
<!-- Node2&#45;&gt;Node4 -->
<g id="edge5_Node000004_Node000002" class="edge">
<title>Node2&#45;&gt;Node4</title>
<g id="a_edge5_Node000004_Node000002"><a xlink:title=" ">
<path fill="none" stroke="#9a32cd" stroke-dasharray="5,2" d="M318.22,-59.45C327.83,-52.14 339.93,-43.54 351.5,-37 363.83,-30.03 378.36,-23.73 390.25,-19.02"/>
<polygon fill="#9a32cd" stroke="#9a32cd" points="315.92,-56.81 310.18,-65.71 320.23,-62.33 315.92,-56.81"/>
</a>
</g>
<text text-anchor="middle" x="369.5" y="-40" font-family="Helvetica,sans-Serif" font-size="10.00" fill="grey"> rwlock</text>
</g>
<!-- Node3&#45;&gt;Node2 -->
<g id="edge2_Node000002_Node000003" class="edge">
<title>Node3&#45;&gt;Node2</title>
<g id="a_edge2_Node000002_Node000003"><a xlink:title=" ">
<path fill="none" stroke="#9a32cd" stroke-dasharray="5,2" d="M273.51,-28.3C280.4,-40.55 289.25,-56.28 294.64,-65.87"/>
<polygon fill="#9a32cd" stroke="#9a32cd" points="276.46,-26.41 268.51,-19.41 270.36,-29.84 276.46,-26.41"/>
</a>
</g>
<text text-anchor="middle" x="300.5" y="-40" font-family="Helvetica,sans-Serif" font-size="10.00" fill="grey"> writer</text>
</g>
<!-- Node4&#45;&gt;Node2 -->
<g id="edge4_Node000002_Node000004" class="edge">
<title>Node4&#45;&gt;Node2</title>
<g id="a_edge4_Node000002_Node000004"><a xlink:title=" ">
<path fill="none" stroke="#9a32cd" stroke-dasharray="5,2" d="M406.35,-28.69C402.81,-35.61 397.91,-43.02 391.5,-48 378.5,-58.09 361.8,-64.34 346.2,-68.21"/>
<polygon fill="#9a32cd" stroke="#9a32cd" points="409.69,-29.8 410.56,-19.24 403.29,-26.95 409.69,-29.8"/>
</a>
</g>
<text text-anchor="middle" x="418" y="-40" font-family="Helvetica,sans-Serif" font-size="10.00" fill="grey"> reader</text>
</g>
</g>
</svg>
