<?xml version="1.0" encoding="UTF-8" standalone="no"?>
<!DOCTYPE svg PUBLIC "-//W3C//DTD SVG 1.1//EN"
 "http://www.w3.org/Graphics/SVG/1.1/DTD/svg11.dtd">
<!-- Generated by graphviz version 2.43.0 (0)
 -->
<!-- Title: Realm::MemoryHasMemAffinityPredicate Pages: 1 -->
<svg width="343pt" height="104pt"
 viewBox="0.00 0.00 343.00 104.00" xmlns="http://www.w3.org/2000/svg" xmlns:xlink="http://www.w3.org/1999/xlink">
<g id="graph0" class="graph" transform="scale(1 1) rotate(0) translate(4 100)">
<title>Realm::MemoryHasMemAffinityPredicate</title>
<!-- Node1 -->
<g id="Node000001" class="node">
<title>Node1</title>
<g id="a_Node000001"><a xlink:title=" ">
<polygon fill="#999999" stroke="#666666" points="173,-30 0,-30 0,0 173,0 173,-30"/>
<text text-anchor="start" x="8" y="-18" font-family="Helvetica,sans-Serif" font-size="10.00">Realm::MemoryHasMemAffinity</text>
<text text-anchor="middle" x="86.5" y="-7" font-family="Helvetica,sans-Serif" font-size="10.00">Predicate</text>
</a>
</g>
</g>
<!-- Node2 -->
<g id="Node000002" class="node">
<title>Node2</title>
<g id="a_Node000002"><a xlink:href="classRealm_1_1QueryPredicate.html" target="_top" xlink:title=" ">
<polygon fill="white" stroke="#666666" points="136.5,-96 4.5,-96 4.5,-77 136.5,-77 136.5,-96"/>
<text text-anchor="middle" x="70.5" y="-84" font-family="Helvetica,sans-Serif" font-size="10.00">MemoryQueryPredicate</text>
</a>
</g>
</g>
<!-- Node2&#45;&gt;Node1 -->
<g id="edge1_Node000001_Node000002" class="edge">
<title>Node2&#45;&gt;Node1</title>
<g id="a_edge1_Node000001_Node000002"><a xlink:title=" ">
<path fill="none" stroke="#63b8ff" d="M74.74,-67.07C77.41,-55.5 80.79,-40.79 83.25,-30.14"/>
<polygon fill="#63b8ff" stroke="#63b8ff" points="71.29,-66.45 72.46,-76.98 78.12,-68.02 71.29,-66.45"/>
</a>
</g>
</g>
<!-- Node3 -->
<g id="Node000003" class="node">
<title>Node3</title>
<g id="a_Node000003"><a xlink:href="classRealm_1_1Memory.html" target="_top" xlink:title=" ">
<polygon fill="white" stroke="#666666" points="250,-96 155,-96 155,-77 250,-77 250,-96"/>
<text text-anchor="middle" x="202.5" y="-84" font-family="Helvetica,sans-Serif" font-size="10.00">Realm::Memory</text>
</a>
</g>
</g>
<!-- Node3&#45;&gt;Node1 -->
<g id="edge2_Node000001_Node000003" class="edge">
<title>Node3&#45;&gt;Node1</title>
<g id="a_edge2_Node000001_Node000003"><a xlink:title=" ">
<path fill="none" stroke="#9a32cd" stroke-dasharray="5,2" d="M179.47,-71.7C159.38,-59.67 130.35,-42.28 110.1,-30.14"/>
<polygon fill="#9a32cd" stroke="#9a32cd" points="177.9,-74.84 188.28,-76.98 181.5,-68.84 177.9,-74.84"/>
</a>
</g>
<text text-anchor="middle" x="177" y="-51" font-family="Helvetica,sans-Serif" font-size="10.00" fill="grey"> memory</text>
</g>
<!-- Node3&#45;&gt;Node3 -->
<g id="edge3_Node000003_Node000003" class="edge">
<title>Node3&#45;&gt;Node3</title>
<g id="a_edge3_Node000003_Node000003"><a xlink:title=" ">
<path fill="none" stroke="#9a32cd" stroke-dasharray="5,2" d="M260.36,-91.1C265.08,-90.1 268,-88.57 268,-86.5 268,-83.19 260.51,-81.25 250.19,-80.68"/>
<polygon fill="#9a32cd" stroke="#9a32cd" points="259.7,-87.66 250.19,-92.32 260.54,-94.61 259.7,-87.66"/>
</a>
</g>
<text text-anchor="middle" x="301.5" y="-84" font-family="Helvetica,sans-Serif" font-size="10.00" fill="grey"> NO_MEMORY</text>
</g>
</g>
</svg>
