<?xml version="1.0" encoding="UTF-8" standalone="no"?>
<!DOCTYPE svg PUBLIC "-//W3C//DTD SVG 1.1//EN"
 "http://www.w3.org/Graphics/SVG/1.1/DTD/svg11.dtd">
<!-- Generated by graphviz version 2.43.0 (0)
 -->
<!-- Title: Realm::FIFOCondVar Pages: 1 -->
<svg width="443pt" height="225pt"
 viewBox="0.00 0.00 443.00 225.00" xmlns="http://www.w3.org/2000/svg" xmlns:xlink="http://www.w3.org/1999/xlink">
<g id="graph0" class="graph" transform="scale(1 1) rotate(0) translate(4 221)">
<title>Realm::FIFOCondVar</title>
<!-- Node1 -->
<g id="Node000001" class="node">
<title>Node1</title>
<g id="a_Node000001"><a xlink:title=" ">
<polygon fill="#999999" stroke="#666666" points="267.5,-19 150.5,-19 150.5,0 267.5,0 267.5,-19"/>
<text text-anchor="middle" x="209" y="-7" font-family="Helvetica,sans-Serif" font-size="10.00">Realm::FIFOCondVar</text>
</a>
</g>
</g>
<!-- Node2 -->
<g id="Node000002" class="node">
<title>Node2</title>
<g id="a_Node000002"><a xlink:href="classRealm_1_1noncopyable.html" target="_top" xlink:title=" ">
<polygon fill="white" stroke="#666666" points="116,-151 0,-151 0,-132 116,-132 116,-151"/>
<text text-anchor="middle" x="58" y="-139" font-family="Helvetica,sans-Serif" font-size="10.00">Realm::noncopyable</text>
</a>
</g>
</g>
<!-- Node2&#45;&gt;Node1 -->
<g id="edge1_Node000001_Node000002" class="edge">
<title>Node2&#45;&gt;Node1</title>
<g id="a_edge1_Node000001_Node000002"><a xlink:title=" ">
<path fill="none" stroke="#63b8ff" d="M75.56,-125.39C107.36,-98.01 173.55,-41.02 198.86,-19.23"/>
<polygon fill="#63b8ff" stroke="#63b8ff" points="73.2,-122.79 67.91,-131.97 77.77,-128.1 73.2,-122.79"/>
</a>
</g>
</g>
<!-- Node3 -->
<g id="Node000003" class="node">
<title>Node3</title>
<g id="a_Node000003"><a xlink:href="classRealm_1_1FIFOMutex.html" target="_top" xlink:title=" ">
<polygon fill="white" stroke="#666666" points="262.5,-85 155.5,-85 155.5,-66 262.5,-66 262.5,-85"/>
<text text-anchor="middle" x="209" y="-73" font-family="Helvetica,sans-Serif" font-size="10.00">Realm::FIFOMutex</text>
</a>
</g>
</g>
<!-- Node2&#45;&gt;Node3 -->
<g id="edge3_Node000003_Node000002" class="edge">
<title>Node2&#45;&gt;Node3</title>
<g id="a_edge3_Node000003_Node000002"><a xlink:title=" ">
<path fill="none" stroke="#63b8ff" d="M87.83,-127.86C117.58,-115.25 162.51,-96.21 188.48,-85.2"/>
<polygon fill="#63b8ff" stroke="#63b8ff" points="86.21,-124.74 78.36,-131.87 88.94,-131.19 86.21,-124.74"/>
</a>
</g>
</g>
<!-- Node3&#45;&gt;Node1 -->
<g id="edge2_Node000001_Node000003" class="edge">
<title>Node3&#45;&gt;Node1</title>
<g id="a_edge2_Node000001_Node000003"><a xlink:title=" ">
<path fill="none" stroke="#9a32cd" stroke-dasharray="5,2" d="M209,-55.58C209,-43.63 209,-28.72 209,-19.41"/>
<polygon fill="#9a32cd" stroke="#9a32cd" points="205.5,-55.87 209,-65.87 212.5,-55.87 205.5,-55.87"/>
</a>
</g>
<text text-anchor="middle" x="226.5" y="-40" font-family="Helvetica,sans-Serif" font-size="10.00" fill="grey"> mutex</text>
</g>
<!-- Node4 -->
<g id="Node000004" class="node">
<title>Node4</title>
<g id="a_Node000004"><a xlink:href="classRealm_1_1atomic.html" target="_top" xlink:title=" ">
<polygon fill="white" stroke="#666666" points="284,-151 134,-151 134,-132 284,-132 284,-151"/>
<text text-anchor="middle" x="209" y="-139" font-family="Helvetica,sans-Serif" font-size="10.00">Realm::atomic&lt; uint32_t &gt;</text>
</a>
</g>
</g>
<!-- Node4&#45;&gt;Node3 -->
<g id="edge4_Node000003_Node000004" class="edge">
<title>Node4&#45;&gt;Node3</title>
<g id="a_edge4_Node000003_Node000004"><a xlink:title=" ">
<path fill="none" stroke="#9a32cd" stroke-dasharray="5,2" d="M209,-121.58C209,-109.63 209,-94.72 209,-85.41"/>
<polygon fill="#9a32cd" stroke="#9a32cd" points="205.5,-121.87 209,-131.87 212.5,-121.87 205.5,-121.87"/>
</a>
</g>
<text text-anchor="middle" x="223" y="-106" font-family="Helvetica,sans-Serif" font-size="10.00" fill="grey"> state</text>
</g>
<!-- Node5 -->
<g id="Node000005" class="node">
<title>Node5</title>
<g id="a_Node000005"><a xlink:href="classRealm_1_1DoorbellList.html" target="_top" xlink:title=" ">
<polygon fill="white" stroke="#666666" points="415.5,-151 302.5,-151 302.5,-132 415.5,-132 415.5,-151"/>
<text text-anchor="middle" x="359" y="-139" font-family="Helvetica,sans-Serif" font-size="10.00">Realm::DoorbellList</text>
</a>
</g>
</g>
<!-- Node5&#45;&gt;Node1 -->
<g id="edge7_Node000001_Node000005" class="edge">
<title>Node5&#45;&gt;Node1</title>
<g id="a_edge7_Node000001_Node000005"><a xlink:title=" ">
<path fill="none" stroke="#9a32cd" stroke-dasharray="5,2" d="M348.28,-123.52C343.66,-116.8 337.96,-109.21 332,-103 297.42,-66.94 247.73,-34.2 223.45,-19.18"/>
<polygon fill="#9a32cd" stroke="#9a32cd" points="345.4,-125.51 353.82,-131.94 351.25,-121.66 345.4,-125.51"/>
</a>
</g>
<text text-anchor="middle" x="329" y="-73" font-family="Helvetica,sans-Serif" font-size="10.00" fill="grey"> db_list</text>
</g>
<!-- Node5&#45;&gt;Node3 -->
<g id="edge5_Node000003_Node000005" class="edge">
<title>Node5&#45;&gt;Node3</title>
<g id="a_edge5_Node000003_Node000005"><a xlink:title=" ">
<path fill="none" stroke="#9a32cd" stroke-dasharray="5,2" d="M329.37,-127.86C299.81,-115.25 255.19,-96.21 229.39,-85.2"/>
<polygon fill="#9a32cd" stroke="#9a32cd" points="328.2,-131.16 338.77,-131.87 330.95,-124.73 328.2,-131.16"/>
</a>
</g>
<text text-anchor="middle" x="310" y="-106" font-family="Helvetica,sans-Serif" font-size="10.00" fill="grey"> db_list</text>
</g>
<!-- Node6 -->
<g id="Node000006" class="node">
<title>Node6</title>
<g id="a_Node000006"><a xlink:href="classRealm_1_1atomic.html" target="_top" xlink:title=" ">
<polygon fill="white" stroke="#666666" points="435,-217 283,-217 283,-198 435,-198 435,-217"/>
<text text-anchor="middle" x="359" y="-205" font-family="Helvetica,sans-Serif" font-size="10.00">Realm::atomic&lt; uintptr_t &gt;</text>
</a>
</g>
</g>
<!-- Node6&#45;&gt;Node5 -->
<g id="edge6_Node000005_Node000006" class="edge">
<title>Node6&#45;&gt;Node5</title>
<g id="a_edge6_Node000005_Node000006"><a xlink:title=" ">
<path fill="none" stroke="#9a32cd" stroke-dasharray="5,2" d="M359,-187.58C359,-175.63 359,-160.72 359,-151.41"/>
<polygon fill="#9a32cd" stroke="#9a32cd" points="355.5,-187.87 359,-197.87 362.5,-187.87 355.5,-187.87"/>
</a>
</g>
<text text-anchor="middle" x="396.5" y="-172" font-family="Helvetica,sans-Serif" font-size="10.00" fill="grey"> head_or_count</text>
</g>
</g>
</svg>
