<?xml version="1.0" encoding="UTF-8" standalone="no"?>
<!DOCTYPE svg PUBLIC "-//W3C//DTD SVG 1.1//EN"
 "http://www.w3.org/Graphics/SVG/1.1/DTD/svg11.dtd">
<!-- Generated by graphviz version 2.43.0 (0)
 -->
<!-- Title: Realm::ProcessorGroup Pages: 1 -->
<svg width="248pt" height="83pt"
 viewBox="0.00 0.00 248.00 83.00" xmlns="http://www.w3.org/2000/svg" xmlns:xlink="http://www.w3.org/1999/xlink">
<g id="graph0" class="graph" transform="scale(1 1) rotate(0) translate(4 79)">
<title>Realm::ProcessorGroup</title>
<!-- Node1 -->
<g id="Node000001" class="node">
<title>Node1</title>
<g id="a_Node000001"><a xlink:title=" ">
<polygon fill="#999999" stroke="#666666" points="131,-19 0,-19 0,0 131,0 131,-19"/>
<text text-anchor="middle" x="65.5" y="-7" font-family="Helvetica,sans-Serif" font-size="10.00">Realm::ProcessorGroup</text>
</a>
</g>
</g>
<!-- Node1&#45;&gt;Node1 -->
<g id="edge3_Node000001_Node000001" class="edge">
<title>Node1&#45;&gt;Node1</title>
<g id="a_edge3_Node000001_Node000001"><a xlink:title=" ">
<path fill="none" stroke="#9a32cd" stroke-dasharray="5,2" d="M141.52,-13.16C146.19,-12.29 149,-11.07 149,-9.5 149,-6.98 141.81,-5.37 131.31,-4.67"/>
<polygon fill="#9a32cd" stroke="#9a32cd" points="140.84,-9.71 131.31,-14.33 141.64,-16.67 140.84,-9.71"/>
</a>
</g>
<text text-anchor="middle" x="194.5" y="-7" font-family="Helvetica,sans-Serif" font-size="10.00" fill="grey"> NO_PROC_GROUP</text>
</g>
<!-- Node2 -->
<g id="Node000002" class="node">
<title>Node2</title>
<g id="a_Node000002"><a xlink:href="classRealm_1_1Processor.html" target="_top" xlink:title=" ">
<polygon fill="white" stroke="#666666" points="116,-75 15,-75 15,-56 116,-56 116,-75"/>
<text text-anchor="middle" x="65.5" y="-63" font-family="Helvetica,sans-Serif" font-size="10.00">Realm::Processor</text>
</a>
</g>
</g>
<!-- Node2&#45;&gt;Node1 -->
<g id="edge1_Node000001_Node000002" class="edge">
<title>Node2&#45;&gt;Node1</title>
<g id="a_edge1_Node000001_Node000002"><a xlink:title=" ">
<path fill="none" stroke="#63b8ff" d="M65.5,-45.3C65.5,-36.41 65.5,-26.28 65.5,-19.25"/>
<polygon fill="#63b8ff" stroke="#63b8ff" points="62,-45.58 65.5,-55.58 69,-45.58 62,-45.58"/>
</a>
</g>
</g>
<!-- Node2&#45;&gt;Node2 -->
<g id="edge2_Node000002_Node000002" class="edge">
<title>Node2&#45;&gt;Node2</title>
<g id="a_edge2_Node000002_Node000002"><a xlink:title=" ">
<path fill="none" stroke="#9a32cd" stroke-dasharray="5,2" d="M126.43,-69.45C131.11,-68.58 134,-67.26 134,-65.5 134,-62.68 126.61,-61 116.28,-60.45"/>
<polygon fill="#9a32cd" stroke="#9a32cd" points="125.85,-65.99 116.28,-70.55 126.6,-72.95 125.85,-65.99"/>
</a>
</g>
<text text-anchor="middle" x="159.5" y="-63" font-family="Helvetica,sans-Serif" font-size="10.00" fill="grey"> NO_PROC</text>
</g>
</g>
</svg>
