<?xml version="1.0" encoding="UTF-8" standalone="no"?>
<!DOCTYPE svg PUBLIC "-//W3C//DTD SVG 1.1//EN"
 "http://www.w3.org/Graphics/SVG/1.1/DTD/svg11.dtd">
<!-- Generated by graphviz version 2.43.0 (0)
 -->
<!-- Title: Realm::Hip::GPUIndirectRemoteChannelInfo Pages: 1 -->
<svg width="1087pt" height="149pt"
 viewBox="0.00 0.00 1087.00 148.50" xmlns="http://www.w3.org/2000/svg" xmlns:xlink="http://www.w3.org/1999/xlink">
<g id="graph0" class="graph" transform="scale(1 1) rotate(0) translate(4 144.5)">
<title>Realm::Hip::GPUIndirectRemoteChannelInfo</title>
<!-- Node1 -->
<g id="Node000001" class="node">
<title>Node1</title>
<g id="a_Node000001"><a xlink:title=" ">
<polygon fill="#999999" stroke="#666666" points="1079,-64 906,-64 906,-34 1079,-34 1079,-64"/>
<text text-anchor="start" x="914" y="-52" font-family="Helvetica,sans-Serif" font-size="10.00">Realm::Hip::GPUIndirectRemote</text>
<text text-anchor="middle" x="992.5" y="-41" font-family="Helvetica,sans-Serif" font-size="10.00">ChannelInfo</text>
</a>
</g>
</g>
<!-- Node2 -->
<g id="Node000002" class="node">
<title>Node2</title>
<g id="a_Node000002"><a xlink:href="classRealm_1_1SimpleRemoteChannelInfo.html" target="_top" xlink:title=" ">
<polygon fill="white" stroke="#666666" points="869,-86.5 684,-86.5 684,-67.5 869,-67.5 869,-86.5"/>
<text text-anchor="middle" x="776.5" y="-74.5" font-family="Helvetica,sans-Serif" font-size="10.00">Realm::SimpleRemoteChannelInfo</text>
</a>
</g>
</g>
<!-- Node2&#45;&gt;Node1 -->
<g id="edge1_Node000001_Node000002" class="edge">
<title>Node2&#45;&gt;Node1</title>
<g id="a_edge1_Node000001_Node000002"><a xlink:title=" ">
<path fill="none" stroke="#63b8ff" d="M860.4,-66.15C875.24,-64.21 890.73,-62.18 905.65,-60.23"/>
<polygon fill="#63b8ff" stroke="#63b8ff" points="859.71,-62.71 850.25,-67.48 860.62,-69.65 859.71,-62.71"/>
</a>
</g>
</g>
<!-- Node3 -->
<g id="Node000003" class="node">
<title>Node3</title>
<g id="a_Node000003"><a xlink:href="classRealm_1_1RemoteChannelInfo.html" target="_top" xlink:title=" ">
<polygon fill="white" stroke="#666666" points="379,-140.5 228,-140.5 228,-121.5 379,-121.5 379,-140.5"/>
<text text-anchor="middle" x="303.5" y="-128.5" font-family="Helvetica,sans-Serif" font-size="10.00">Realm::RemoteChannelInfo</text>
</a>
</g>
</g>
<!-- Node3&#45;&gt;Node2 -->
<g id="edge2_Node000002_Node000003" class="edge">
<title>Node3&#45;&gt;Node2</title>
<g id="a_edge2_Node000002_Node000003"><a xlink:title=" ">
<path fill="none" stroke="#63b8ff" d="M389.45,-122.53C462.76,-115.05 571.45,-103.57 666,-92 679.71,-90.32 694.37,-88.4 708.37,-86.51"/>
<polygon fill="#63b8ff" stroke="#63b8ff" points="388.94,-119.06 379.35,-123.56 389.65,-126.03 388.94,-119.06"/>
</a>
</g>
</g>
<!-- Node4 -->
<g id="Node000004" class="node">
<title>Node4</title>
<g id="a_Node000004"><a xlink:href="classRealm_1_1Serialization_1_1PolymorphicSerdezSubclass.html" target="_top" xlink:title=" ">
<polygon fill="white" stroke="#666666" points="403,-103 204,-103 204,-51 403,-51 403,-103"/>
<text text-anchor="start" x="212" y="-91" font-family="Helvetica,sans-Serif" font-size="10.00">Realm::Serialization</text>
<text text-anchor="start" x="212" y="-80" font-family="Helvetica,sans-Serif" font-size="10.00">::PolymorphicSerdezSubclass</text>
<text text-anchor="start" x="212" y="-69" font-family="Helvetica,sans-Serif" font-size="10.00">&lt; Realm::RemoteChannelInfo,</text>
<text text-anchor="middle" x="303.5" y="-58" font-family="Helvetica,sans-Serif" font-size="10.00"> Realm::SimpleRemoteChannelInfo &gt;</text>
</a>
</g>
</g>
<!-- Node4&#45;&gt;Node2 -->
<g id="edge3_Node000002_Node000004" class="edge">
<title>Node4&#45;&gt;Node2</title>
<g id="a_edge3_Node000002_Node000004"><a xlink:title=" ">
<path fill="none" stroke="#9a32cd" stroke-dasharray="5,2" d="M413.33,-77C495.23,-77 606.24,-77 683.69,-77"/>
<polygon fill="#9a32cd" stroke="#9a32cd" points="413.24,-73.5 403.24,-77 413.24,-80.5 413.24,-73.5"/>
</a>
</g>
<text text-anchor="middle" x="543.5" y="-80" font-family="Helvetica,sans-Serif" font-size="10.00" fill="grey"> serdez_subclass</text>
</g>
<!-- Node5 -->
<g id="Node000005" class="node">
<title>Node5</title>
<g id="a_Node000005"><a xlink:href="classRealm_1_1Serialization_1_1PolymorphicSerdezIntfc.html" target="_top" xlink:title=" ">
<polygon fill="white" stroke="#666666" points="167,-50 0,-50 0,-20 167,-20 167,-50"/>
<text text-anchor="start" x="8" y="-38" font-family="Helvetica,sans-Serif" font-size="10.00">Realm::Serialization</text>
<text text-anchor="middle" x="83.5" y="-27" font-family="Helvetica,sans-Serif" font-size="10.00">::PolymorphicSerdezIntfc&lt; T &gt;</text>
</a>
</g>
</g>
<!-- Node5&#45;&gt;Node4 -->
<g id="edge4_Node000004_Node000005" class="edge">
<title>Node5&#45;&gt;Node4</title>
<g id="a_edge4_Node000004_Node000005"><a xlink:title=" ">
<path fill="none" stroke="#63b8ff" d="M172.69,-51.99C182.88,-53.95 193.33,-55.97 203.66,-57.96"/>
<polygon fill="#63b8ff" stroke="#63b8ff" points="173.07,-48.5 162.59,-50.04 171.74,-55.37 173.07,-48.5"/>
</a>
</g>
</g>
<!-- Node6 -->
<g id="Node000006" class="node">
<title>Node6</title>
<g id="a_Node000006"><a xlink:href="classRealm_1_1Serialization_1_1PolymorphicSerdezSubclass.html" target="_top" xlink:title=" ">
<polygon fill="white" stroke="#666666" points="666,-52 421,-52 421,0 666,0 666,-52"/>
<text text-anchor="start" x="429" y="-40" font-family="Helvetica,sans-Serif" font-size="10.00">Realm::Serialization</text>
<text text-anchor="start" x="429" y="-29" font-family="Helvetica,sans-Serif" font-size="10.00">::PolymorphicSerdezSubclass</text>
<text text-anchor="start" x="429" y="-18" font-family="Helvetica,sans-Serif" font-size="10.00">&lt; Realm::RemoteChannelInfo,</text>
<text text-anchor="middle" x="543.5" y="-7" font-family="Helvetica,sans-Serif" font-size="10.00"> Realm::Hip::GPUIndirectRemoteChannelInfo &gt;</text>
</a>
</g>
</g>
<!-- Node5&#45;&gt;Node6 -->
<g id="edge6_Node000006_Node000005" class="edge">
<title>Node5&#45;&gt;Node6</title>
<g id="a_edge6_Node000006_Node000005"><a xlink:title=" ">
<path fill="none" stroke="#63b8ff" d="M177.33,-33.18C247.49,-31.8 344.43,-29.89 420.8,-28.39"/>
<polygon fill="#63b8ff" stroke="#63b8ff" points="177.1,-29.68 167.18,-33.38 177.24,-36.68 177.1,-29.68"/>
</a>
</g>
</g>
<!-- Node6&#45;&gt;Node1 -->
<g id="edge5_Node000001_Node000006" class="edge">
<title>Node6&#45;&gt;Node1</title>
<g id="a_edge5_Node000001_Node000006"><a xlink:title=" ">
<path fill="none" stroke="#9a32cd" stroke-dasharray="5,2" d="M676.4,-32.79C750.49,-36.6 840.81,-41.25 905.73,-44.59"/>
<polygon fill="#9a32cd" stroke="#9a32cd" points="676.22,-29.27 666.05,-32.25 675.86,-36.26 676.22,-29.27"/>
</a>
</g>
<text text-anchor="middle" x="776.5" y="-46" font-family="Helvetica,sans-Serif" font-size="10.00" fill="grey"> serdez_subclass</text>
</g>
</g>
</svg>
