<?xml version="1.0" encoding="UTF-8" standalone="no"?>
<!DOCTYPE svg PUBLIC "-//W3C//DTD SVG 1.1//EN"
 "http://www.w3.org/Graphics/SVG/1.1/DTD/svg11.dtd">
<!-- Generated by graphviz version 2.43.0 (0)
 -->
<!-- Title: Realm::RemoteChannelInfo Pages: 1 -->
<svg width="619pt" height="172pt"
 viewBox="0.00 0.00 619.00 172.00" xmlns="http://www.w3.org/2000/svg" xmlns:xlink="http://www.w3.org/1999/xlink">
<g id="graph0" class="graph" transform="scale(1 1) rotate(0) translate(4 168)">
<title>Realm::RemoteChannelInfo</title>
<!-- Node1 -->
<g id="Node000001" class="node">
<title>Node1</title>
<g id="a_Node000001"><a xlink:title=" ">
<polygon fill="#999999" stroke="#666666" points="151,-93.5 0,-93.5 0,-74.5 151,-74.5 151,-93.5"/>
<text text-anchor="middle" x="75.5" y="-81.5" font-family="Helvetica,sans-Serif" font-size="10.00">Realm::RemoteChannelInfo</text>
</a>
</g>
</g>
<!-- Node2 -->
<g id="Node000002" class="node">
<title>Node2</title>
<g id="a_Node000002"><a xlink:href="classRealm_1_1SimpleRemoteChannelInfo.html" target="_top" xlink:title=" ">
<polygon fill="white" stroke="#666666" points="372,-93.5 187,-93.5 187,-74.5 372,-74.5 372,-93.5"/>
<text text-anchor="middle" x="279.5" y="-81.5" font-family="Helvetica,sans-Serif" font-size="10.00">Realm::SimpleRemoteChannelInfo</text>
</a>
</g>
</g>
<!-- Node1&#45;&gt;Node2 -->
<g id="edge1_Node000001_Node000002" class="edge">
<title>Node1&#45;&gt;Node2</title>
<g id="a_edge1_Node000001_Node000002"><a xlink:title=" ">
<path fill="none" stroke="#63b8ff" d="M161.29,-84C169.68,-84 178.23,-84 186.69,-84"/>
<polygon fill="#63b8ff" stroke="#63b8ff" points="161.14,-80.5 151.14,-84 161.14,-87.5 161.14,-80.5"/>
</a>
</g>
</g>
<!-- Node3 -->
<g id="Node000003" class="node">
<title>Node3</title>
<g id="a_Node000003"><a xlink:href="classRealm_1_1Cuda_1_1GPUIndirectRemoteChannelInfo.html" target="_top" xlink:title=" ">
<polygon fill="white" stroke="#666666" points="581,-164 438,-164 438,-134 581,-134 581,-164"/>
<text text-anchor="start" x="446" y="-152" font-family="Helvetica,sans-Serif" font-size="10.00">Realm::Cuda::GPUIndirect</text>
<text text-anchor="middle" x="509.5" y="-141" font-family="Helvetica,sans-Serif" font-size="10.00">RemoteChannelInfo</text>
</a>
</g>
</g>
<!-- Node2&#45;&gt;Node3 -->
<g id="edge2_Node000002_Node000003" class="edge">
<title>Node2&#45;&gt;Node3</title>
<g id="a_edge2_Node000002_Node000003"><a xlink:title=" ">
<path fill="none" stroke="#63b8ff" d="M317.74,-96.81C343.05,-105.31 377.36,-116.43 408,-125 419.06,-128.09 430.87,-131.14 442.36,-133.97"/>
<polygon fill="#63b8ff" stroke="#63b8ff" points="318.77,-93.46 308.17,-93.58 316.53,-100.09 318.77,-93.46"/>
</a>
</g>
</g>
<!-- Node4 -->
<g id="Node000004" class="node">
<title>Node4</title>
<g id="a_Node000004"><a xlink:href="classRealm_1_1Cuda_1_1GPURemoteChannelInfo.html" target="_top" xlink:title=" ">
<polygon fill="white" stroke="#666666" points="611,-115.5 408,-115.5 408,-96.5 611,-96.5 611,-115.5"/>
<text text-anchor="middle" x="509.5" y="-103.5" font-family="Helvetica,sans-Serif" font-size="10.00">Realm::Cuda::GPURemoteChannelInfo</text>
</a>
</g>
</g>
<!-- Node2&#45;&gt;Node4 -->
<g id="edge3_Node000002_Node000004" class="edge">
<title>Node2&#45;&gt;Node4</title>
<g id="a_edge3_Node000002_Node000004"><a xlink:title=" ">
<path fill="none" stroke="#63b8ff" d="M382.47,-93.84C391.57,-94.72 400.78,-95.61 409.85,-96.48"/>
<polygon fill="#63b8ff" stroke="#63b8ff" points="382.54,-90.33 372.25,-92.85 381.87,-97.3 382.54,-90.33"/>
</a>
</g>
</g>
<!-- Node5 -->
<g id="Node000005" class="node">
<title>Node5</title>
<g id="a_Node000005"><a xlink:href="classRealm_1_1Cuda_1_1GPUreduceRemoteChannelInfo.html" target="_top" xlink:title=" ">
<polygon fill="white" stroke="#666666" points="598,-78 421,-78 421,-48 598,-48 598,-78"/>
<text text-anchor="start" x="429" y="-66" font-family="Helvetica,sans-Serif" font-size="10.00">Realm::Cuda::GPUreduceRemote</text>
<text text-anchor="middle" x="509.5" y="-55" font-family="Helvetica,sans-Serif" font-size="10.00">ChannelInfo</text>
</a>
</g>
</g>
<!-- Node2&#45;&gt;Node5 -->
<g id="edge4_Node000002_Node000005" class="edge">
<title>Node2&#45;&gt;Node5</title>
<g id="a_edge4_Node000002_Node000005"><a xlink:title=" ">
<path fill="none" stroke="#63b8ff" d="M382.42,-74.61C395.17,-73.44 408.13,-72.24 420.64,-71.09"/>
<polygon fill="#63b8ff" stroke="#63b8ff" points="381.89,-71.15 372.25,-75.55 382.53,-78.12 381.89,-71.15"/>
</a>
</g>
</g>
<!-- Node6 -->
<g id="Node000006" class="node">
<title>Node6</title>
<g id="a_Node000006"><a xlink:href="classRealm_1_1Hip_1_1GPUreduceRemoteChannelInfo.html" target="_top" xlink:title=" ">
<polygon fill="white" stroke="#666666" points="594,-30 425,-30 425,0 594,0 594,-30"/>
<text text-anchor="start" x="433" y="-18" font-family="Helvetica,sans-Serif" font-size="10.00">Realm::Hip::GPUreduceRemote</text>
<text text-anchor="middle" x="509.5" y="-7" font-family="Helvetica,sans-Serif" font-size="10.00">ChannelInfo</text>
</a>
</g>
</g>
<!-- Node2&#45;&gt;Node6 -->
<g id="edge5_Node000002_Node000006" class="edge">
<title>Node2&#45;&gt;Node6</title>
<g id="a_edge5_Node000002_Node000006"><a xlink:title=" ">
<path fill="none" stroke="#63b8ff" d="M314.74,-70.81C340.23,-61.27 376,-48.44 408,-39 418.67,-35.85 430.06,-32.82 441.21,-30.04"/>
<polygon fill="#63b8ff" stroke="#63b8ff" points="313.29,-67.62 305.17,-74.43 315.76,-74.17 313.29,-67.62"/>
</a>
</g>
</g>
</g>
</svg>
