<?xml version="1.0" encoding="UTF-8" standalone="no"?>
<!DOCTYPE svg PUBLIC "-//W3C//DTD SVG 1.1//EN"
 "http://www.w3.org/Graphics/SVG/1.1/DTD/svg11.dtd">
<!-- Generated by graphviz version 2.43.0 (0)
 -->
<!-- Title: Realm::SparsityMapRefCounter Pages: 1 -->
<svg width="821pt" height="111pt"
 viewBox="0.00 0.00 821.00 110.50" xmlns="http://www.w3.org/2000/svg" xmlns:xlink="http://www.w3.org/1999/xlink">
<g id="graph0" class="graph" transform="scale(1 1) rotate(0) translate(4 106.5)">
<title>Realm::SparsityMapRefCounter</title>
<!-- Node1 -->
<g id="Node000001" class="node">
<title>Node1</title>
<g id="a_Node000001"><a xlink:title=" ">
<polygon fill="#999999" stroke="#666666" points="813,-61 643,-61 643,-42 813,-42 813,-61"/>
<text text-anchor="middle" x="728" y="-49" font-family="Helvetica,sans-Serif" font-size="10.00">Realm::SparsityMapRefCounter</text>
</a>
</g>
</g>
<!-- Node2 -->
<g id="Node000002" class="node">
<title>Node2</title>
<g id="a_Node000002"><a xlink:href="classRealm_1_1ActiveMessageHandlerReg.html" target="_top" xlink:title=" ">
<polygon fill="white" stroke="#666666" points="423.5,-100 217.5,-100 217.5,-59 423.5,-59 423.5,-100"/>
<text text-anchor="start" x="225.5" y="-88" font-family="Helvetica,sans-Serif" font-size="10.00">Realm::ActiveMessageHandler</text>
<text text-anchor="start" x="225.5" y="-77" font-family="Helvetica,sans-Serif" font-size="10.00">Reg&lt; Realm::SparsityMapRefCounter</text>
<text text-anchor="middle" x="320.5" y="-66" font-family="Helvetica,sans-Serif" font-size="10.00">::SparsityMapAddReferenceMessage &gt;</text>
</a>
</g>
</g>
<!-- Node2&#45;&gt;Node1 -->
<g id="edge1_Node000001_Node000002" class="edge">
<title>Node2&#45;&gt;Node1</title>
<g id="a_edge1_Node000001_Node000002"><a xlink:title=" ">
<path fill="none" stroke="#9a32cd" stroke-dasharray="5,2" d="M433.62,-71.76C499.76,-67.19 582.11,-61.5 642.71,-57.32"/>
<polygon fill="#9a32cd" stroke="#9a32cd" points="433.3,-68.27 423.56,-72.45 433.78,-75.26 433.3,-68.27"/>
</a>
</g>
<text text-anchor="start" x="486.5" y="-94.5" font-family="Helvetica,sans-Serif" font-size="10.00" fill="grey"> sparse_untyped_add</text>
<text text-anchor="start" x="486.5" y="-83.5" font-family="Helvetica,sans-Serif" font-size="10.00" fill="grey">_references_message</text>
<text text-anchor="middle" x="540" y="-72.5" font-family="Helvetica,sans-Serif" font-size="10.00" fill="grey">_handler_reg</text>
</g>
<!-- Node3 -->
<g id="Node000003" class="node">
<title>Node3</title>
<g id="a_Node000003"><a xlink:href="classRealm_1_1ActiveMessageHandlerRegBase.html" target="_top" xlink:title=" ">
<polygon fill="white" stroke="#666666" points="167,-64.5 0,-64.5 0,-34.5 167,-34.5 167,-64.5"/>
<text text-anchor="start" x="8" y="-52.5" font-family="Helvetica,sans-Serif" font-size="10.00">Realm::ActiveMessageHandler</text>
<text text-anchor="middle" x="83.5" y="-41.5" font-family="Helvetica,sans-Serif" font-size="10.00">RegBase</text>
</a>
</g>
</g>
<!-- Node3&#45;&gt;Node2 -->
<g id="edge2_Node000002_Node000003" class="edge">
<title>Node3&#45;&gt;Node2</title>
<g id="a_edge2_Node000002_Node000003"><a xlink:title=" ">
<path fill="none" stroke="#63b8ff" d="M177.04,-61.31C190.28,-63 203.96,-64.75 217.36,-66.46"/>
<polygon fill="#63b8ff" stroke="#63b8ff" points="177.38,-57.83 167.02,-60.03 176.5,-64.77 177.38,-57.83"/>
</a>
</g>
</g>
<!-- Node3&#45;&gt;Node3 -->
<g id="edge3_Node000003_Node000003" class="edge">
<title>Node3&#45;&gt;Node3</title>
<g id="a_edge3_Node000003_Node000003"><a xlink:title=" ">
<path fill="none" stroke="#9a32cd" stroke-dasharray="5,2" d="M65.65,-75.1C68.09,-79.47 74.04,-82.5 83.5,-82.5 99.44,-82.5 105.41,-73.91 101.43,-64.78"/>
<polygon fill="#9a32cd" stroke="#9a32cd" points="69.14,-74.75 65.57,-64.78 62.14,-74.8 69.14,-74.75"/>
</a>
</g>
<text text-anchor="middle" x="83.5" y="-85.5" font-family="Helvetica,sans-Serif" font-size="10.00" fill="grey"> next_handler</text>
</g>
<!-- Node4 -->
<g id="Node000004" class="node">
<title>Node4</title>
<g id="a_Node000004"><a xlink:href="classRealm_1_1ActiveMessageHandlerReg.html" target="_top" xlink:title=" ">
<polygon fill="white" stroke="#666666" points="437,-41 204,-41 204,0 437,0 437,-41"/>
<text text-anchor="start" x="212" y="-29" font-family="Helvetica,sans-Serif" font-size="10.00">Realm::ActiveMessageHandler</text>
<text text-anchor="start" x="212" y="-18" font-family="Helvetica,sans-Serif" font-size="10.00">Reg&lt; Realm::SparsityMapRefCounter</text>
<text text-anchor="middle" x="320.5" y="-7" font-family="Helvetica,sans-Serif" font-size="10.00">::SparsityMapRemoveReferencesMessage &gt;</text>
</a>
</g>
</g>
<!-- Node3&#45;&gt;Node4 -->
<g id="edge5_Node000004_Node000003" class="edge">
<title>Node3&#45;&gt;Node4</title>
<g id="a_edge5_Node000004_Node000003"><a xlink:title=" ">
<path fill="none" stroke="#63b8ff" d="M177.18,-38.06C185.91,-36.99 194.84,-35.88 203.76,-34.78"/>
<polygon fill="#63b8ff" stroke="#63b8ff" points="176.52,-34.62 167.02,-39.32 177.38,-41.57 176.52,-34.62"/>
</a>
</g>
</g>
<!-- Node4&#45;&gt;Node1 -->
<g id="edge4_Node000001_Node000004" class="edge">
<title>Node4&#45;&gt;Node1</title>
<g id="a_edge4_Node000001_Node000004"><a xlink:title=" ">
<path fill="none" stroke="#9a32cd" stroke-dasharray="5,2" d="M447.19,-21.4C501.95,-22.84 566.79,-25.96 625,-32.5 644.33,-34.67 665.51,-38.39 683.53,-41.97"/>
<polygon fill="#9a32cd" stroke="#9a32cd" points="447.17,-17.9 437.09,-21.15 447,-24.89 447.17,-17.9"/>
</a>
</g>
<text text-anchor="start" x="455" y="-46.5" font-family="Helvetica,sans-Serif" font-size="10.00" fill="grey"> sparse_untyped_remove</text>
<text text-anchor="middle" x="540" y="-35.5" font-family="Helvetica,sans-Serif" font-size="10.00" fill="grey">_references_message_handler_reg</text>
</g>
</g>
</svg>
