<?xml version="1.0" encoding="UTF-8" standalone="no"?>
<!DOCTYPE svg PUBLIC "-//W3C//DTD SVG 1.1//EN"
 "http://www.w3.org/Graphics/SVG/1.1/DTD/svg11.dtd">
<!-- Generated by graphviz version 2.43.0 (0)
 -->
<!-- Title: Realm::Request Pages: 1 -->
<svg width="296pt" height="286pt"
 viewBox="0.00 0.00 296.00 286.00" xmlns="http://www.w3.org/2000/svg" xmlns:xlink="http://www.w3.org/1999/xlink">
<g id="graph0" class="graph" transform="scale(1 1) rotate(0) translate(4 282)">
<title>Realm::Request</title>
<!-- Node1 -->
<g id="Node000001" class="node">
<title>Node1</title>
<g id="a_Node000001"><a xlink:title=" ">
<polygon fill="#999999" stroke="#666666" points="94,-148 0,-148 0,-129 94,-129 94,-148"/>
<text text-anchor="middle" x="47" y="-136" font-family="Helvetica,sans-Serif" font-size="10.00">Realm::Request</text>
</a>
</g>
</g>
<!-- Node2 -->
<g id="Node000002" class="node">
<title>Node2</title>
<g id="a_Node000002"><a xlink:href="classRealm_1_1Cuda_1_1GPURequest.html" target="_top" xlink:title=" ">
<polygon fill="white" stroke="#666666" points="282,-278 136,-278 136,-259 282,-259 282,-278"/>
<text text-anchor="middle" x="209" y="-266" font-family="Helvetica,sans-Serif" font-size="10.00">Realm::Cuda::GPURequest</text>
</a>
</g>
</g>
<!-- Node1&#45;&gt;Node2 -->
<g id="edge1_Node000001_Node000002" class="edge">
<title>Node1&#45;&gt;Node2</title>
<g id="a_edge1_Node000001_Node000002"><a xlink:title=" ">
<path fill="none" stroke="#63b8ff" d="M56.5,-157.35C68.92,-182.64 94.45,-227.07 130,-250.5 135.22,-253.94 141.02,-256.73 147.02,-258.99"/>
<polygon fill="#63b8ff" stroke="#63b8ff" points="59.57,-155.64 52.13,-148.1 53.24,-158.63 59.57,-155.64"/>
</a>
</g>
</g>
<!-- Node3 -->
<g id="Node000003" class="node">
<title>Node3</title>
<g id="a_Node000003"><a xlink:href="classRealm_1_1DiskRequest.html" target="_top" xlink:title=" ">
<polygon fill="white" stroke="#666666" points="267,-241 151,-241 151,-222 267,-222 267,-241"/>
<text text-anchor="middle" x="209" y="-229" font-family="Helvetica,sans-Serif" font-size="10.00">Realm::DiskRequest</text>
</a>
</g>
</g>
<!-- Node1&#45;&gt;Node3 -->
<g id="edge2_Node000001_Node000003" class="edge">
<title>Node1&#45;&gt;Node3</title>
<g id="a_edge2_Node000001_Node000003"><a xlink:title=" ">
<path fill="none" stroke="#63b8ff" d="M62.22,-155.95C77.25,-173.21 102.55,-199.08 130,-213.5 136.52,-216.93 143.68,-219.71 150.95,-221.96"/>
<polygon fill="#63b8ff" stroke="#63b8ff" points="64.83,-153.62 55.7,-148.25 59.49,-158.14 64.83,-153.62"/>
</a>
</g>
</g>
<!-- Node4 -->
<g id="Node000004" class="node">
<title>Node4</title>
<g id="a_Node000004"><a xlink:href="classRealm_1_1FileRequest.html" target="_top" xlink:title=" ">
<polygon fill="white" stroke="#666666" points="264.5,-204 153.5,-204 153.5,-185 264.5,-185 264.5,-204"/>
<text text-anchor="middle" x="209" y="-192" font-family="Helvetica,sans-Serif" font-size="10.00">Realm::FileRequest</text>
</a>
</g>
</g>
<!-- Node1&#45;&gt;Node4 -->
<g id="edge3_Node000001_Node000004" class="edge">
<title>Node1&#45;&gt;Node4</title>
<g id="a_edge3_Node000001_Node000004"><a xlink:title=" ">
<path fill="none" stroke="#63b8ff" d="M74.92,-152.7C90.65,-160.55 111.07,-170.01 130,-176.5 139.33,-179.7 149.49,-182.51 159.29,-184.9"/>
<polygon fill="#63b8ff" stroke="#63b8ff" points="76.29,-149.47 65.79,-148.06 73.12,-155.71 76.29,-149.47"/>
</a>
</g>
</g>
<!-- Node5 -->
<g id="Node000005" class="node">
<title>Node5</title>
<g id="a_Node000005"><a xlink:href="classRealm_1_1GASNetRequest.html" target="_top" xlink:title=" ">
<polygon fill="white" stroke="#666666" points="274.5,-167 143.5,-167 143.5,-148 274.5,-148 274.5,-167"/>
<text text-anchor="middle" x="209" y="-155" font-family="Helvetica,sans-Serif" font-size="10.00">Realm::GASNetRequest</text>
</a>
</g>
</g>
<!-- Node1&#45;&gt;Node5 -->
<g id="edge4_Node000001_Node000005" class="edge">
<title>Node1&#45;&gt;Node5</title>
<g id="a_edge4_Node000001_Node000005"><a xlink:title=" ">
<path fill="none" stroke="#63b8ff" d="M104.22,-145.18C116.87,-146.68 130.41,-148.29 143.38,-149.83"/>
<polygon fill="#63b8ff" stroke="#63b8ff" points="104.62,-141.7 94.28,-144 103.8,-148.65 104.62,-141.7"/>
</a>
</g>
</g>
<!-- Node6 -->
<g id="Node000006" class="node">
<title>Node6</title>
<g id="a_Node000006"><a xlink:href="classRealm_1_1HDF5_1_1HDF5Request.html" target="_top" xlink:title=" ">
<polygon fill="white" stroke="#666666" points="286,-130 132,-130 132,-111 286,-111 286,-130"/>
<text text-anchor="middle" x="209" y="-118" font-family="Helvetica,sans-Serif" font-size="10.00">Realm::HDF5::HDF5Request</text>
</a>
</g>
</g>
<!-- Node1&#45;&gt;Node6 -->
<g id="edge5_Node000001_Node000006" class="edge">
<title>Node1&#45;&gt;Node6</title>
<g id="a_edge5_Node000001_Node000006"><a xlink:title=" ">
<path fill="none" stroke="#63b8ff" d="M104.5,-132.14C113.4,-131.14 122.73,-130.09 131.98,-129.05"/>
<polygon fill="#63b8ff" stroke="#63b8ff" points="103.82,-128.7 94.28,-133.29 104.61,-135.65 103.82,-128.7"/>
</a>
</g>
</g>
<!-- Node7 -->
<g id="Node000007" class="node">
<title>Node7</title>
<g id="a_Node000007"><a xlink:href="classRealm_1_1Hip_1_1GPURequest.html" target="_top" xlink:title=" ">
<polygon fill="white" stroke="#666666" points="277.5,-93 140.5,-93 140.5,-74 277.5,-74 277.5,-93"/>
<text text-anchor="middle" x="209" y="-81" font-family="Helvetica,sans-Serif" font-size="10.00">Realm::Hip::GPURequest</text>
</a>
</g>
</g>
<!-- Node1&#45;&gt;Node7 -->
<g id="edge6_Node000001_Node000007" class="edge">
<title>Node1&#45;&gt;Node7</title>
<g id="a_edge6_Node000001_Node000007"><a xlink:title=" ">
<path fill="none" stroke="#63b8ff" d="M76.27,-124.62C91.86,-117.35 111.71,-108.69 130,-102.5 140.56,-98.93 152.14,-95.73 163.07,-93.03"/>
<polygon fill="#63b8ff" stroke="#63b8ff" points="74.71,-121.49 67.17,-128.94 77.71,-127.82 74.71,-121.49"/>
</a>
</g>
</g>
<!-- Node8 -->
<g id="Node000008" class="node">
<title>Node8</title>
<g id="a_Node000008"><a xlink:href="classRealm_1_1MemcpyRequest.html" target="_top" xlink:title=" ">
<polygon fill="white" stroke="#666666" points="277,-56 141,-56 141,-37 277,-37 277,-56"/>
<text text-anchor="middle" x="209" y="-44" font-family="Helvetica,sans-Serif" font-size="10.00">Realm::MemcpyRequest</text>
</a>
</g>
</g>
<!-- Node1&#45;&gt;Node8 -->
<g id="edge7_Node000001_Node000008" class="edge">
<title>Node1&#45;&gt;Node8</title>
<g id="a_edge7_Node000001_Node000008"><a xlink:title=" ">
<path fill="none" stroke="#63b8ff" d="M63.01,-120.87C78.22,-104.14 103.27,-79.53 130,-65.5 137.41,-61.61 145.62,-58.51 153.87,-56.03"/>
<polygon fill="#63b8ff" stroke="#63b8ff" points="60,-119 56,-128.81 65.24,-123.63 60,-119"/>
</a>
</g>
</g>
<!-- Node9 -->
<g id="Node000009" class="node">
<title>Node9</title>
<g id="a_Node000009"><a xlink:href="classRealm_1_1RemoteWriteRequest.html" target="_top" xlink:title=" ">
<polygon fill="white" stroke="#666666" points="288,-19 130,-19 130,0 288,0 288,-19"/>
<text text-anchor="middle" x="209" y="-7" font-family="Helvetica,sans-Serif" font-size="10.00">Realm::RemoteWriteRequest</text>
</a>
</g>
</g>
<!-- Node1&#45;&gt;Node9 -->
<g id="edge8_Node000001_Node000009" class="edge">
<title>Node1&#45;&gt;Node9</title>
<g id="a_edge8_Node000001_Node000009"><a xlink:title=" ">
<path fill="none" stroke="#63b8ff" d="M56.82,-119.67C69.46,-94.84 95.08,-51.61 130,-28.5 135.81,-24.65 142.33,-21.59 149.05,-19.14"/>
<polygon fill="#63b8ff" stroke="#63b8ff" points="53.61,-118.27 52.35,-128.79 59.9,-121.35 53.61,-118.27"/>
</a>
</g>
</g>
</g>
</svg>
