<?xml version="1.0" encoding="UTF-8" standalone="no"?>
<!DOCTYPE svg PUBLIC "-//W3C//DTD SVG 1.1//EN"
 "http://www.w3.org/Graphics/SVG/1.1/DTD/svg11.dtd">
<!-- Generated by graphviz version 2.43.0 (0)
 -->
<!-- Title: Realm::MemSpecificInfo Pages: 1 -->
<svg width="290pt" height="93pt"
 viewBox="0.00 0.00 290.00 93.00" xmlns="http://www.w3.org/2000/svg" xmlns:xlink="http://www.w3.org/1999/xlink">
<g id="graph0" class="graph" transform="scale(1 1) rotate(0) translate(4 89)">
<title>Realm::MemSpecificInfo</title>
<!-- Node1 -->
<g id="Node000001" class="node">
<title>Node1</title>
<g id="a_Node000001"><a xlink:title=" ">
<polygon fill="#999999" stroke="#666666" points="216,-85 81,-85 81,-66 216,-66 216,-85"/>
<text text-anchor="middle" x="148.5" y="-73" font-family="Helvetica,sans-Serif" font-size="10.00">Realm::MemSpecificInfo</text>
</a>
</g>
</g>
<!-- Node2 -->
<g id="Node000002" class="node">
<title>Node2</title>
<g id="a_Node000002"><a xlink:href="classRealm_1_1Cuda_1_1MemSpecificCudaArray.html" target="_top" xlink:title=" ">
<polygon fill="white" stroke="#666666" points="147,-30 0,-30 0,0 147,0 147,-30"/>
<text text-anchor="start" x="8" y="-18" font-family="Helvetica,sans-Serif" font-size="10.00">Realm::Cuda::MemSpecific</text>
<text text-anchor="middle" x="73.5" y="-7" font-family="Helvetica,sans-Serif" font-size="10.00">CudaArray</text>
</a>
</g>
</g>
<!-- Node1&#45;&gt;Node2 -->
<g id="edge1_Node000001_Node000002" class="edge">
<title>Node1&#45;&gt;Node2</title>
<g id="a_edge1_Node000001_Node000002"><a xlink:title=" ">
<path fill="none" stroke="#63b8ff" d="M129.27,-59.5C117.67,-50.45 102.99,-39 91.6,-30.11"/>
<polygon fill="#63b8ff" stroke="#63b8ff" points="127.4,-62.48 137.43,-65.87 131.7,-56.96 127.4,-62.48"/>
</a>
</g>
</g>
<!-- Node3 -->
<g id="Node000003" class="node">
<title>Node3</title>
<g id="a_Node000003"><a xlink:href="classRealm_1_1FileMemory_1_1OpenFileInfo.html" target="_top" xlink:title=" ">
<polygon fill="white" stroke="#666666" points="282,-30 165,-30 165,0 282,0 282,-30"/>
<text text-anchor="start" x="173" y="-18" font-family="Helvetica,sans-Serif" font-size="10.00">Realm::FileMemory::</text>
<text text-anchor="middle" x="223.5" y="-7" font-family="Helvetica,sans-Serif" font-size="10.00">OpenFileInfo</text>
</a>
</g>
</g>
<!-- Node1&#45;&gt;Node3 -->
<g id="edge2_Node000001_Node000003" class="edge">
<title>Node1&#45;&gt;Node3</title>
<g id="a_edge2_Node000001_Node000003"><a xlink:title=" ">
<path fill="none" stroke="#63b8ff" d="M167.73,-59.5C179.33,-50.45 194.01,-39 205.4,-30.11"/>
<polygon fill="#63b8ff" stroke="#63b8ff" points="165.3,-56.96 159.57,-65.87 169.6,-62.48 165.3,-56.96"/>
</a>
</g>
</g>
</g>
</svg>
