<?xml version="1.0" encoding="UTF-8" standalone="no"?>
<!DOCTYPE svg PUBLIC "-//W3C//DTD SVG 1.1//EN"
 "http://www.w3.org/Graphics/SVG/1.1/DTD/svg11.dtd">
<!-- Generated by graphviz version 2.43.0 (0)
 -->
<!-- Title: Realm::Cuda::GPURemoteChannelInfo Pages: 1 -->
<svg width="1089pt" height="149pt"
 viewBox="0.00 0.00 1089.00 148.50" xmlns="http://www.w3.org/2000/svg" xmlns:xlink="http://www.w3.org/1999/xlink">
<g id="graph0" class="graph" transform="scale(1 1) rotate(0) translate(4 144.5)">
<title>Realm::Cuda::GPURemoteChannelInfo</title>
<!-- Node1 -->
<g id="Node000001" class="node">
<title>Node1</title>
<g id="a_Node000001"><a xlink:title=" ">
<polygon fill="#999999" stroke="#666666" points="1081,-58.5 878,-58.5 878,-39.5 1081,-39.5 1081,-58.5"/>
<text text-anchor="middle" x="979.5" y="-46.5" font-family="Helvetica,sans-Serif" font-size="10.00">Realm::Cuda::GPURemoteChannelInfo</text>
</a>
</g>
</g>
<!-- Node2 -->
<g id="Node000002" class="node">
<title>Node2</title>
<g id="a_Node000002"><a xlink:href="classRealm_1_1SimpleRemoteChannelInfo.html" target="_top" xlink:title=" ">
<polygon fill="white" stroke="#666666" points="841,-86.5 656,-86.5 656,-67.5 841,-67.5 841,-86.5"/>
<text text-anchor="middle" x="748.5" y="-74.5" font-family="Helvetica,sans-Serif" font-size="10.00">Realm::SimpleRemoteChannelInfo</text>
</a>
</g>
</g>
<!-- Node2&#45;&gt;Node1 -->
<g id="edge1_Node000001_Node000002" class="edge">
<title>Node2&#45;&gt;Node1</title>
<g id="a_edge1_Node000001_Node000002"><a xlink:title=" ">
<path fill="none" stroke="#63b8ff" d="M837.43,-66.25C858.19,-63.71 880.19,-61.02 900.48,-58.54"/>
<polygon fill="#63b8ff" stroke="#63b8ff" points="836.85,-62.79 827.35,-67.48 837.7,-69.74 836.85,-62.79"/>
</a>
</g>
</g>
<!-- Node3 -->
<g id="Node000003" class="node">
<title>Node3</title>
<g id="a_Node000003"><a xlink:href="classRealm_1_1RemoteChannelInfo.html" target="_top" xlink:title=" ">
<polygon fill="white" stroke="#666666" points="379,-140.5 228,-140.5 228,-121.5 379,-121.5 379,-140.5"/>
<text text-anchor="middle" x="303.5" y="-128.5" font-family="Helvetica,sans-Serif" font-size="10.00">Realm::RemoteChannelInfo</text>
</a>
</g>
</g>
<!-- Node3&#45;&gt;Node2 -->
<g id="edge2_Node000002_Node000003" class="edge">
<title>Node3&#45;&gt;Node2</title>
<g id="a_edge2_Node000002_Node000003"><a xlink:title=" ">
<path fill="none" stroke="#63b8ff" d="M389.21,-121.56C456.65,-113.93 553.43,-102.74 638,-92 651.42,-90.3 665.75,-88.39 679.48,-86.53"/>
<polygon fill="#63b8ff" stroke="#63b8ff" points="388.6,-118.11 379.06,-122.71 389.39,-125.06 388.6,-118.11"/>
</a>
</g>
</g>
<!-- Node4 -->
<g id="Node000004" class="node">
<title>Node4</title>
<g id="a_Node000004"><a xlink:href="classRealm_1_1Serialization_1_1PolymorphicSerdezSubclass.html" target="_top" xlink:title=" ">
<polygon fill="white" stroke="#666666" points="403,-103 204,-103 204,-51 403,-51 403,-103"/>
<text text-anchor="start" x="212" y="-91" font-family="Helvetica,sans-Serif" font-size="10.00">Realm::Serialization</text>
<text text-anchor="start" x="212" y="-80" font-family="Helvetica,sans-Serif" font-size="10.00">::PolymorphicSerdezSubclass</text>
<text text-anchor="start" x="212" y="-69" font-family="Helvetica,sans-Serif" font-size="10.00">&lt; Realm::RemoteChannelInfo,</text>
<text text-anchor="middle" x="303.5" y="-58" font-family="Helvetica,sans-Serif" font-size="10.00"> Realm::SimpleRemoteChannelInfo &gt;</text>
</a>
</g>
</g>
<!-- Node4&#45;&gt;Node2 -->
<g id="edge3_Node000002_Node000004" class="edge">
<title>Node4&#45;&gt;Node2</title>
<g id="a_edge3_Node000002_Node000004"><a xlink:title=" ">
<path fill="none" stroke="#9a32cd" stroke-dasharray="5,2" d="M413.44,-77C487.93,-77 585.54,-77 656,-77"/>
<polygon fill="#9a32cd" stroke="#9a32cd" points="413.09,-73.5 403.09,-77 413.09,-80.5 413.09,-73.5"/>
</a>
</g>
<text text-anchor="middle" x="529.5" y="-80" font-family="Helvetica,sans-Serif" font-size="10.00" fill="grey"> serdez_subclass</text>
</g>
<!-- Node5 -->
<g id="Node000005" class="node">
<title>Node5</title>
<g id="a_Node000005"><a xlink:href="classRealm_1_1Serialization_1_1PolymorphicSerdezIntfc.html" target="_top" xlink:title=" ">
<polygon fill="white" stroke="#666666" points="167,-50 0,-50 0,-20 167,-20 167,-50"/>
<text text-anchor="start" x="8" y="-38" font-family="Helvetica,sans-Serif" font-size="10.00">Realm::Serialization</text>
<text text-anchor="middle" x="83.5" y="-27" font-family="Helvetica,sans-Serif" font-size="10.00">::PolymorphicSerdezIntfc&lt; T &gt;</text>
</a>
</g>
</g>
<!-- Node5&#45;&gt;Node4 -->
<g id="edge4_Node000004_Node000005" class="edge">
<title>Node5&#45;&gt;Node4</title>
<g id="a_edge4_Node000004_Node000005"><a xlink:title=" ">
<path fill="none" stroke="#63b8ff" d="M172.69,-51.99C182.88,-53.95 193.33,-55.97 203.66,-57.96"/>
<polygon fill="#63b8ff" stroke="#63b8ff" points="173.07,-48.5 162.59,-50.04 171.74,-55.37 173.07,-48.5"/>
</a>
</g>
</g>
<!-- Node6 -->
<g id="Node000006" class="node">
<title>Node6</title>
<g id="a_Node000006"><a xlink:href="classRealm_1_1Serialization_1_1PolymorphicSerdezSubclass.html" target="_top" xlink:title=" ">
<polygon fill="white" stroke="#666666" points="638,-52 421,-52 421,0 638,0 638,-52"/>
<text text-anchor="start" x="429" y="-40" font-family="Helvetica,sans-Serif" font-size="10.00">Realm::Serialization</text>
<text text-anchor="start" x="429" y="-29" font-family="Helvetica,sans-Serif" font-size="10.00">::PolymorphicSerdezSubclass</text>
<text text-anchor="start" x="429" y="-18" font-family="Helvetica,sans-Serif" font-size="10.00">&lt; Realm::RemoteChannelInfo,</text>
<text text-anchor="middle" x="529.5" y="-7" font-family="Helvetica,sans-Serif" font-size="10.00"> Realm::Cuda::GPURemoteChannelInfo &gt;</text>
</a>
</g>
</g>
<!-- Node5&#45;&gt;Node6 -->
<g id="edge6_Node000006_Node000005" class="edge">
<title>Node5&#45;&gt;Node6</title>
<g id="a_edge6_Node000006_Node000005"><a xlink:title=" ">
<path fill="none" stroke="#63b8ff" d="M177.49,-33.11C248.41,-31.68 346.23,-29.69 420.59,-28.19"/>
<polygon fill="#63b8ff" stroke="#63b8ff" points="177.16,-29.62 167.23,-33.32 177.3,-36.62 177.16,-29.62"/>
</a>
</g>
</g>
<!-- Node6&#45;&gt;Node1 -->
<g id="edge5_Node000001_Node000006" class="edge">
<title>Node6&#45;&gt;Node1</title>
<g id="a_edge5_Node000001_Node000006"><a xlink:title=" ">
<path fill="none" stroke="#9a32cd" stroke-dasharray="5,2" d="M648.49,-32.06C719.88,-35.72 809.95,-40.35 877.95,-43.84"/>
<polygon fill="#9a32cd" stroke="#9a32cd" points="648.26,-28.54 638.09,-31.52 647.9,-35.53 648.26,-28.54"/>
</a>
</g>
<text text-anchor="middle" x="748.5" y="-45" font-family="Helvetica,sans-Serif" font-size="10.00" fill="grey"> serdez_subclass</text>
</g>
</g>
</svg>
