<?xml version="1.0" encoding="UTF-8" standalone="no"?>
<!DOCTYPE svg PUBLIC "-//W3C//DTD SVG 1.1//EN"
 "http://www.w3.org/Graphics/SVG/1.1/DTD/svg11.dtd">
<!-- Generated by graphviz version 2.43.0 (0)
 -->
<!-- Title: Realm::InstanceLayoutGeneric Pages: 1 -->
<svg width="320pt" height="93pt"
 viewBox="0.00 0.00 320.00 93.00" xmlns="http://www.w3.org/2000/svg" xmlns:xlink="http://www.w3.org/1999/xlink">
<g id="graph0" class="graph" transform="scale(1 1) rotate(0) translate(4 89)">
<title>Realm::InstanceLayoutGeneric</title>
<!-- Node1 -->
<g id="Node000001" class="node">
<title>Node1</title>
<g id="a_Node000001"><a xlink:title=" ">
<polygon fill="#999999" stroke="#666666" points="229,-85 63,-85 63,-66 229,-66 229,-85"/>
<text text-anchor="middle" x="146" y="-73" font-family="Helvetica,sans-Serif" font-size="10.00">Realm::InstanceLayoutGeneric</text>
</a>
</g>
</g>
<!-- Node2 -->
<g id="Node000002" class="node">
<title>Node2</title>
<g id="a_Node000002"><a xlink:href="classRealm_1_1InstanceLayout.html" target="_top" xlink:title=" ">
<polygon fill="white" stroke="#666666" points="128,-30 0,-30 0,0 128,0 128,-30"/>
<text text-anchor="start" x="8" y="-18" font-family="Helvetica,sans-Serif" font-size="10.00">Realm::InstanceLayout</text>
<text text-anchor="middle" x="64" y="-7" font-family="Helvetica,sans-Serif" font-size="10.00">&lt; N, T &gt;</text>
</a>
</g>
</g>
<!-- Node1&#45;&gt;Node2 -->
<g id="edge1_Node000001_Node000002" class="edge">
<title>Node1&#45;&gt;Node2</title>
<g id="a_edge1_Node000001_Node000002"><a xlink:title=" ">
<path fill="none" stroke="#63b8ff" d="M125.72,-60.03C112.92,-50.9 96.48,-39.17 83.78,-30.11"/>
<polygon fill="#63b8ff" stroke="#63b8ff" points="123.73,-62.91 133.9,-65.87 127.79,-57.21 123.73,-62.91"/>
</a>
</g>
</g>
<!-- Node3 -->
<g id="Node000003" class="node">
<title>Node3</title>
<g id="a_Node000003"><a xlink:href="classRealm_1_1InstanceLayoutOpaque.html" target="_top" xlink:title=" ">
<polygon fill="white" stroke="#666666" points="312,-24.5 146,-24.5 146,-5.5 312,-5.5 312,-24.5"/>
<text text-anchor="middle" x="229" y="-12.5" font-family="Helvetica,sans-Serif" font-size="10.00">Realm::InstanceLayoutOpaque</text>
</a>
</g>
</g>
<!-- Node1&#45;&gt;Node3 -->
<g id="edge2_Node000001_Node000003" class="edge">
<title>Node1&#45;&gt;Node3</title>
<g id="a_edge2_Node000001_Node000003"><a xlink:title=" ">
<path fill="none" stroke="#63b8ff" d="M166.79,-59.85C182.51,-48.77 203.56,-33.93 216.7,-24.67"/>
<polygon fill="#63b8ff" stroke="#63b8ff" points="164.4,-57.25 158.25,-65.87 168.44,-62.97 164.4,-57.25"/>
</a>
</g>
</g>
</g>
</svg>
