<?xml version="1.0" encoding="UTF-8" standalone="no"?>
<!DOCTYPE svg PUBLIC "-//W3C//DTD SVG 1.1//EN"
 "http://www.w3.org/Graphics/SVG/1.1/DTD/svg11.dtd">
<!-- Generated by graphviz version 2.43.0 (0)
 -->
<!-- Title: Realm::XferDes::DeferredXDEnqueue Pages: 1 -->
<svg width="1727pt" height="504pt"
 viewBox="0.00 0.00 1727.00 504.00" xmlns="http://www.w3.org/2000/svg" xmlns:xlink="http://www.w3.org/1999/xlink">
<g id="graph0" class="graph" transform="scale(1 1) rotate(0) translate(4 500)">
<title>Realm::XferDes::DeferredXDEnqueue</title>
<!-- Node1 -->
<g id="Node000001" class="node">
<title>Node1</title>
<g id="a_Node000001"><a xlink:title=" ">
<polygon fill="#999999" stroke="#666666" points="1193.5,-185 1051.5,-185 1051.5,-155 1193.5,-155 1193.5,-185"/>
<text text-anchor="start" x="1059.5" y="-173" font-family="Helvetica,sans-Serif" font-size="10.00">Realm::XferDes::Deferred</text>
<text text-anchor="middle" x="1122.5" y="-162" font-family="Helvetica,sans-Serif" font-size="10.00">XDEnqueue</text>
</a>
</g>
</g>
<!-- Node11 -->
<g id="Node000011" class="node">
<title>Node11</title>
<g id="a_Node000011"><a xlink:href="classRealm_1_1XferDes.html" target="_top" xlink:title=" ">
<polygon fill="white" stroke="#666666" points="1437,-236.5 1344,-236.5 1344,-217.5 1437,-217.5 1437,-236.5"/>
<text text-anchor="middle" x="1390.5" y="-224.5" font-family="Helvetica,sans-Serif" font-size="10.00">Realm::XferDes</text>
</a>
</g>
</g>
<!-- Node1&#45;&gt;Node11 -->
<g id="edge22_Node000011_Node000001" class="edge">
<title>Node1&#45;&gt;Node11</title>
<g id="a_edge22_Node000011_Node000001"><a xlink:title=" ">
<path fill="none" stroke="#9a32cd" stroke-dasharray="5,2" d="M1204.09,-182.36C1241.41,-188.69 1286.21,-197.14 1326,-207 1337.89,-209.95 1350.82,-213.88 1361.89,-217.48"/>
<polygon fill="#9a32cd" stroke="#9a32cd" points="1204.22,-178.83 1193.78,-180.63 1203.06,-185.73 1204.22,-178.83"/>
</a>
</g>
<text text-anchor="middle" x="1272" y="-210" font-family="Helvetica,sans-Serif" font-size="10.00" fill="grey"> deferred_enqueue</text>
</g>
<!-- Node2 -->
<g id="Node000002" class="node">
<title>Node2</title>
<g id="a_Node000002"><a xlink:href="classRealm_1_1EventWaiter.html" target="_top" xlink:title=" ">
<polygon fill="white" stroke="#666666" points="897,-58.5 784,-58.5 784,-39.5 897,-39.5 897,-58.5"/>
<text text-anchor="middle" x="840.5" y="-46.5" font-family="Helvetica,sans-Serif" font-size="10.00">Realm::EventWaiter</text>
</a>
</g>
</g>
<!-- Node2&#45;&gt;Node1 -->
<g id="edge1_Node000001_Node000002" class="edge">
<title>Node2&#45;&gt;Node1</title>
<g id="a_edge1_Node000001_Node000002"><a xlink:title=" ">
<path fill="none" stroke="#63b8ff" d="M869.38,-63.2C908.2,-82.7 980.97,-118.26 1045,-144 1054.5,-147.82 1064.8,-151.57 1074.68,-154.99"/>
<polygon fill="#63b8ff" stroke="#63b8ff" points="870.78,-59.99 860.27,-58.61 867.63,-66.24 870.78,-59.99"/>
</a>
</g>
</g>
<!-- Node3 -->
<g id="Node000003" class="node">
<title>Node3</title>
<g id="a_Node000003"><a xlink:href="structRealm_1_1IntrusiveListLink.html" target="_top" xlink:title=" ">
<polygon fill="white" stroke="#666666" points="1190.5,-30 1054.5,-30 1054.5,0 1190.5,0 1190.5,-30"/>
<text text-anchor="start" x="1062.5" y="-18" font-family="Helvetica,sans-Serif" font-size="10.00">Realm::IntrusiveListLink</text>
<text text-anchor="middle" x="1122.5" y="-7" font-family="Helvetica,sans-Serif" font-size="10.00">&lt; Realm::EventWaiter &gt;</text>
</a>
</g>
</g>
<!-- Node2&#45;&gt;Node3 -->
<g id="edge3_Node000003_Node000002" class="edge">
<title>Node2&#45;&gt;Node3</title>
<g id="a_edge3_Node000003_Node000002"><a xlink:title=" ">
<path fill="none" stroke="#9a32cd" stroke-dasharray="5,2" d="M907.34,-41.33C942.8,-37.16 987.3,-31.87 1027,-27 1035.86,-25.91 1045.19,-24.75 1054.4,-23.59"/>
<polygon fill="#9a32cd" stroke="#9a32cd" points="906.64,-37.88 897.12,-42.53 907.46,-44.84 906.64,-37.88"/>
</a>
</g>
<text text-anchor="middle" x="974" y="-43" font-family="Helvetica,sans-Serif" font-size="10.00" fill="grey"> next</text>
</g>
<!-- Node3&#45;&gt;Node2 -->
<g id="edge2_Node000002_Node000003" class="edge">
<title>Node3&#45;&gt;Node2</title>
<g id="a_edge2_Node000002_Node000003"><a xlink:title=" ">
<path fill="none" stroke="#9a32cd" stroke-dasharray="5,2" d="M1044.11,-8.45C1006.59,-7.03 961.08,-7.91 921,-16 898.59,-20.52 874.57,-31.43 858.87,-39.47"/>
<polygon fill="#9a32cd" stroke="#9a32cd" points="1044.32,-11.96 1054.47,-8.91 1044.63,-4.97 1044.32,-11.96"/>
</a>
</g>
<text text-anchor="middle" x="974" y="-19" font-family="Helvetica,sans-Serif" font-size="10.00" fill="grey"> ew_list_link</text>
</g>
<!-- Node4 -->
<g id="Node000004" class="node">
<title>Node4</title>
<g id="a_Node000004"><a xlink:href="classRealm_1_1XferDesQueue.html" target="_top" xlink:title=" ">
<polygon fill="white" stroke="#666666" points="903,-311.5 778,-311.5 778,-292.5 903,-292.5 903,-311.5"/>
<text text-anchor="middle" x="840.5" y="-299.5" font-family="Helvetica,sans-Serif" font-size="10.00">Realm::XferDesQueue</text>
</a>
</g>
</g>
<!-- Node4&#45;&gt;Node1 -->
<g id="edge4_Node000001_Node000004" class="edge">
<title>Node4&#45;&gt;Node1</title>
<g id="a_edge4_Node000001_Node000004"><a xlink:title=" ">
<path fill="none" stroke="#9a32cd" stroke-dasharray="5,2" d="M868.58,-287.74C907.29,-267.55 980.84,-229.87 1045,-201 1057.15,-195.53 1070.57,-189.94 1082.73,-185.05"/>
<polygon fill="#9a32cd" stroke="#9a32cd" points="866.76,-284.74 859.52,-292.48 870,-290.95 866.76,-284.74"/>
</a>
</g>
<text text-anchor="middle" x="974" y="-262" font-family="Helvetica,sans-Serif" font-size="10.00" fill="grey"> xferDes_queue</text>
</g>
<!-- Node4&#45;&gt;Node11 -->
<g id="edge12_Node000011_Node000004" class="edge">
<title>Node4&#45;&gt;Node11</title>
<g id="a_edge12_Node000011_Node000004"><a xlink:title=" ">
<path fill="none" stroke="#9a32cd" stroke-dasharray="5,2" d="M913.62,-303.1C1029.69,-304.01 1252.39,-301.99 1326,-275 1348.06,-266.91 1368.82,-248.4 1380.28,-236.87"/>
<polygon fill="#9a32cd" stroke="#9a32cd" points="913.44,-299.59 903.41,-303.01 913.38,-306.59 913.44,-299.59"/>
</a>
</g>
<text text-anchor="middle" x="1122.5" y="-305" font-family="Helvetica,sans-Serif" font-size="10.00" fill="grey"> xferDes_queue</text>
</g>
<!-- Node5 -->
<g id="Node000005" class="node">
<title>Node5</title>
<g id="a_Node000005"><a xlink:href="classRealm_1_1UnfairMutex.html" target="_top" xlink:title=" ">
<polygon fill="white" stroke="#666666" points="622.5,-371.5 507.5,-371.5 507.5,-352.5 622.5,-352.5 622.5,-371.5"/>
<text text-anchor="middle" x="565" y="-359.5" font-family="Helvetica,sans-Serif" font-size="10.00">Realm::UnfairMutex</text>
</a>
</g>
</g>
<!-- Node5&#45;&gt;Node4 -->
<g id="edge5_Node000004_Node000005" class="edge">
<title>Node5&#45;&gt;Node4</title>
<g id="a_edge5_Node000004_Node000005"><a xlink:title=" ">
<path fill="none" stroke="#9a32cd" stroke-dasharray="5,2" d="M619.28,-350.31C670.81,-339.01 747.94,-322.09 795.91,-311.56"/>
<polygon fill="#9a32cd" stroke="#9a32cd" points="618.35,-346.93 609.34,-352.49 619.85,-353.77 618.35,-346.93"/>
</a>
</g>
<text text-anchor="middle" x="711.5" y="-353" font-family="Helvetica,sans-Serif" font-size="10.00" fill="grey"> guid_lock</text>
<text text-anchor="middle" x="711.5" y="-342" font-family="Helvetica,sans-Serif" font-size="10.00" fill="grey">queues_lock</text>
</g>
<!-- Node5&#45;&gt;Node11 -->
<g id="edge18_Node000011_Node000005" class="edge">
<title>Node5&#45;&gt;Node11</title>
<g id="a_edge18_Node000011_Node000005"><a xlink:title=" ">
<path fill="none" stroke="#9a32cd" stroke-dasharray="5,2" d="M600.74,-374.99C715.6,-415.56 1089.25,-528.2 1326,-373 1374.31,-341.33 1386.06,-264.06 1388.75,-236.75"/>
<polygon fill="#9a32cd" stroke="#9a32cd" points="601.65,-371.6 591.06,-371.53 599.29,-378.19 601.65,-371.6"/>
</a>
</g>
<text text-anchor="middle" x="974" y="-488" font-family="Helvetica,sans-Serif" font-size="10.00" fill="grey"> available_req_mutex</text>
<text text-anchor="middle" x="974" y="-477" font-family="Helvetica,sans-Serif" font-size="10.00" fill="grey">update_read_lock</text>
<text text-anchor="middle" x="974" y="-466" font-family="Helvetica,sans-Serif" font-size="10.00" fill="grey">update_write_lock</text>
<text text-anchor="middle" x="974" y="-455" font-family="Helvetica,sans-Serif" font-size="10.00" fill="grey">xd_lock</text>
</g>
<!-- Node6 -->
<g id="Node000006" class="node">
<title>Node6</title>
<g id="a_Node000006"><a xlink:href="classRealm_1_1noncopyable.html" target="_top" xlink:title=" ">
<polygon fill="white" stroke="#666666" points="396,-408.5 280,-408.5 280,-389.5 396,-389.5 396,-408.5"/>
<text text-anchor="middle" x="338" y="-396.5" font-family="Helvetica,sans-Serif" font-size="10.00">Realm::noncopyable</text>
</a>
</g>
</g>
<!-- Node6&#45;&gt;Node5 -->
<g id="edge6_Node000005_Node000006" class="edge">
<title>Node6&#45;&gt;Node5</title>
<g id="a_edge6_Node000005_Node000006"><a xlink:title=" ">
<path fill="none" stroke="#63b8ff" d="M406.3,-387.93C438.52,-382.63 476.68,-376.36 507.38,-371.31"/>
<polygon fill="#63b8ff" stroke="#63b8ff" points="405.37,-384.54 396.07,-389.62 406.5,-391.45 405.37,-384.54"/>
</a>
</g>
</g>
<!-- Node7 -->
<g id="Node000007" class="node">
<title>Node7</title>
<g id="a_Node000007"><a xlink:href="classRealm_1_1atomic.html" target="_top" xlink:title=" ">
<polygon fill="white" stroke="#666666" points="413,-371.5 263,-371.5 263,-352.5 413,-352.5 413,-371.5"/>
<text text-anchor="middle" x="338" y="-359.5" font-family="Helvetica,sans-Serif" font-size="10.00">Realm::atomic&lt; uint32_t &gt;</text>
</a>
</g>
</g>
<!-- Node7&#45;&gt;Node5 -->
<g id="edge7_Node000005_Node000007" class="edge">
<title>Node7&#45;&gt;Node5</title>
<g id="a_edge7_Node000005_Node000007"><a xlink:title=" ">
<path fill="none" stroke="#9a32cd" stroke-dasharray="5,2" d="M423.47,-362C451.44,-362 481.88,-362 507.25,-362"/>
<polygon fill="#9a32cd" stroke="#9a32cd" points="423.3,-358.5 413.3,-362 423.3,-365.5 423.3,-358.5"/>
</a>
</g>
<text text-anchor="middle" x="449" y="-365" font-family="Helvetica,sans-Serif" font-size="10.00" fill="grey"> state</text>
</g>
<!-- Node8 -->
<g id="Node000008" class="node">
<title>Node8</title>
<g id="a_Node000008"><a xlink:href="classRealm_1_1DoorbellList.html" target="_top" xlink:title=" ">
<polygon fill="white" stroke="#666666" points="394.5,-334.5 281.5,-334.5 281.5,-315.5 394.5,-315.5 394.5,-334.5"/>
<text text-anchor="middle" x="338" y="-322.5" font-family="Helvetica,sans-Serif" font-size="10.00">Realm::DoorbellList</text>
</a>
</g>
</g>
<!-- Node8&#45;&gt;Node5 -->
<g id="edge8_Node000005_Node000008" class="edge">
<title>Node8&#45;&gt;Node5</title>
<g id="a_edge8_Node000005_Node000008"><a xlink:title=" ">
<path fill="none" stroke="#9a32cd" stroke-dasharray="5,2" d="M404.52,-335.77C437.13,-341.14 476.17,-347.56 507.46,-352.7"/>
<polygon fill="#9a32cd" stroke="#9a32cd" points="405.05,-332.32 394.62,-334.15 403.92,-339.22 405.05,-332.32"/>
</a>
</g>
<text text-anchor="middle" x="449" y="-348" font-family="Helvetica,sans-Serif" font-size="10.00" fill="grey"> db_list</text>
</g>
<!-- Node9 -->
<g id="Node000009" class="node">
<title>Node9</title>
<g id="a_Node000009"><a xlink:href="classRealm_1_1atomic.html" target="_top" xlink:title=" ">
<polygon fill="white" stroke="#666666" points="152,-334.5 0,-334.5 0,-315.5 152,-315.5 152,-334.5"/>
<text text-anchor="middle" x="76" y="-322.5" font-family="Helvetica,sans-Serif" font-size="10.00">Realm::atomic&lt; uintptr_t &gt;</text>
</a>
</g>
</g>
<!-- Node9&#45;&gt;Node8 -->
<g id="edge9_Node000008_Node000009" class="edge">
<title>Node9&#45;&gt;Node8</title>
<g id="a_edge9_Node000008_Node000009"><a xlink:title=" ">
<path fill="none" stroke="#9a32cd" stroke-dasharray="5,2" d="M162.52,-325C201.61,-325 246.79,-325 281.38,-325"/>
<polygon fill="#9a32cd" stroke="#9a32cd" points="162.2,-321.5 152.2,-325 162.2,-328.5 162.2,-321.5"/>
</a>
</g>
<text text-anchor="middle" x="207.5" y="-328" font-family="Helvetica,sans-Serif" font-size="10.00" fill="grey"> head_or_count</text>
</g>
<!-- Node10 -->
<g id="Node000010" class="node">
<title>Node10</title>
<g id="a_Node000010"><a xlink:href="classRealm_1_1atomic.html" target="_top" xlink:title=" ">
<polygon fill="white" stroke="#666666" points="645,-311.5 485,-311.5 485,-292.5 645,-292.5 645,-311.5"/>
<text text-anchor="middle" x="565" y="-299.5" font-family="Helvetica,sans-Serif" font-size="10.00">Realm::atomic&lt; XferDesID &gt;</text>
</a>
</g>
</g>
<!-- Node10&#45;&gt;Node4 -->
<g id="edge10_Node000004_Node000010" class="edge">
<title>Node10&#45;&gt;Node4</title>
<g id="a_edge10_Node000004_Node000010"><a xlink:title=" ">
<path fill="none" stroke="#9a32cd" stroke-dasharray="5,2" d="M655.17,-302C695.33,-302 741.74,-302 777.94,-302"/>
<polygon fill="#9a32cd" stroke="#9a32cd" points="655.11,-298.5 645.11,-302 655.11,-305.5 655.11,-298.5"/>
</a>
</g>
<text text-anchor="middle" x="711.5" y="-305" font-family="Helvetica,sans-Serif" font-size="10.00" fill="grey"> next_to_assign_idx</text>
</g>
<!-- Node11&#45;&gt;Node1 -->
<g id="edge11_Node000001_Node000011" class="edge">
<title>Node11&#45;&gt;Node1</title>
<g id="a_edge11_Node000001_Node000011"><a xlink:title=" ">
<path fill="none" stroke="#9a32cd" stroke-dasharray="5,2" d="M1378.41,-208.68C1367.4,-192.45 1348.89,-169.84 1326,-160 1278.47,-139.56 1218.75,-145.89 1176.52,-154.99"/>
<polygon fill="#9a32cd" stroke="#9a32cd" points="1375.64,-210.84 1384,-217.35 1381.52,-207.05 1375.64,-210.84"/>
</a>
</g>
<text text-anchor="middle" x="1272" y="-163" font-family="Helvetica,sans-Serif" font-size="10.00" fill="grey"> xd</text>
</g>
<!-- Node18 -->
<g id="Node000018" class="node">
<title>Node18</title>
<g id="a_Node000018"><a xlink:href="structRealm_1_1IntrusivePriorityListLink.html" target="_top" xlink:title=" ">
<polygon fill="white" stroke="#666666" points="1719,-242 1566,-242 1566,-212 1719,-212 1719,-242"/>
<text text-anchor="start" x="1574" y="-230" font-family="Helvetica,sans-Serif" font-size="10.00">Realm::IntrusivePriority</text>
<text text-anchor="middle" x="1642.5" y="-219" font-family="Helvetica,sans-Serif" font-size="10.00">ListLink&lt; Realm::XferDes &gt;</text>
</a>
</g>
</g>
<!-- Node11&#45;&gt;Node18 -->
<g id="edge21_Node000018_Node000011" class="edge">
<title>Node11&#45;&gt;Node18</title>
<g id="a_edge21_Node000018_Node000011"><a xlink:title=" ">
<path fill="none" stroke="#9a32cd" stroke-dasharray="5,2" d="M1447.09,-227C1482.04,-227 1527.6,-227 1565.83,-227"/>
<polygon fill="#9a32cd" stroke="#9a32cd" points="1447.06,-223.5 1437.06,-227 1447.06,-230.5 1447.06,-223.5"/>
</a>
</g>
<text text-anchor="middle" x="1501.5" y="-252" font-family="Helvetica,sans-Serif" font-size="10.00" fill="grey"> lastlink_within_pri</text>
<text text-anchor="middle" x="1501.5" y="-241" font-family="Helvetica,sans-Serif" font-size="10.00" fill="grey">next_lower_pri</text>
<text text-anchor="middle" x="1501.5" y="-230" font-family="Helvetica,sans-Serif" font-size="10.00" fill="grey">next_within_pri</text>
</g>
<!-- Node12 -->
<g id="Node000012" class="node">
<title>Node12</title>
<g id="a_Node000012"><a xlink:href="classRealm_1_1atomic.html" target="_top" xlink:title=" ">
<polygon fill="white" stroke="#666666" points="1188,-265.5 1057,-265.5 1057,-246.5 1188,-246.5 1188,-265.5"/>
<text text-anchor="middle" x="1122.5" y="-253.5" font-family="Helvetica,sans-Serif" font-size="10.00">Realm::atomic&lt; bool &gt;</text>
</a>
</g>
</g>
<!-- Node12&#45;&gt;Node11 -->
<g id="edge13_Node000011_Node000012" class="edge">
<title>Node12&#45;&gt;Node11</title>
<g id="a_edge13_Node000011_Node000012"><a xlink:title=" ">
<path fill="none" stroke="#9a32cd" stroke-dasharray="5,2" d="M1198.47,-251.56C1236.73,-248.82 1283.96,-244.72 1326,-239 1331.78,-238.21 1337.83,-237.25 1343.81,-236.22"/>
<polygon fill="#9a32cd" stroke="#9a32cd" points="1198.17,-248.07 1188.44,-252.26 1198.66,-255.05 1198.17,-248.07"/>
</a>
</g>
<text text-anchor="middle" x="1272" y="-263" font-family="Helvetica,sans-Serif" font-size="10.00" fill="grey"> iteration_completed</text>
<text text-anchor="middle" x="1272" y="-252" font-family="Helvetica,sans-Serif" font-size="10.00" fill="grey">transfer_completed</text>
</g>
<!-- Node13 -->
<g id="Node000013" class="node">
<title>Node13</title>
<g id="a_Node000013"><a xlink:href="classRealm_1_1atomic.html" target="_top" xlink:title=" ">
<polygon fill="white" stroke="#666666" points="1194.5,-228.5 1050.5,-228.5 1050.5,-209.5 1194.5,-209.5 1194.5,-228.5"/>
<text text-anchor="middle" x="1122.5" y="-216.5" font-family="Helvetica,sans-Serif" font-size="10.00">Realm::atomic&lt; int64_t &gt;</text>
</a>
</g>
</g>
<!-- Node13&#45;&gt;Node11 -->
<g id="edge14_Node000011_Node000013" class="edge">
<title>Node13&#45;&gt;Node11</title>
<g id="a_edge14_Node000011_Node000013"><a xlink:title=" ">
<path fill="none" stroke="#9a32cd" stroke-dasharray="5,2" d="M1204.97,-221.45C1250.64,-222.82 1305.9,-224.49 1343.97,-225.63"/>
<polygon fill="#9a32cd" stroke="#9a32cd" points="1204.88,-217.95 1194.78,-221.14 1204.67,-224.94 1204.88,-217.95"/>
</a>
</g>
<text text-anchor="middle" x="1272" y="-228" font-family="Helvetica,sans-Serif" font-size="10.00" fill="grey"> bytes_write_pending</text>
</g>
<!-- Node14 -->
<g id="Node000014" class="node">
<title>Node14</title>
<g id="a_Node000014"><a xlink:href="structRealm_1_1XferDes_1_1ControlPortState.html" target="_top" xlink:title=" ">
<polygon fill="white" stroke="#666666" points="1199.5,-361 1045.5,-361 1045.5,-331 1199.5,-331 1199.5,-361"/>
<text text-anchor="start" x="1053.5" y="-349" font-family="Helvetica,sans-Serif" font-size="10.00">Realm::XferDes::ControlPort</text>
<text text-anchor="middle" x="1122.5" y="-338" font-family="Helvetica,sans-Serif" font-size="10.00">State</text>
</a>
</g>
</g>
<!-- Node14&#45;&gt;Node11 -->
<g id="edge15_Node000011_Node000014" class="edge">
<title>Node14&#45;&gt;Node11</title>
<g id="a_edge15_Node000011_Node000014"><a xlink:title=" ">
<path fill="none" stroke="#9a32cd" stroke-dasharray="5,2" d="M1209.57,-348.05C1247.64,-345.38 1291.49,-337.11 1326,-316 1357.41,-296.78 1377.68,-255.58 1385.66,-236.75"/>
<polygon fill="#9a32cd" stroke="#9a32cd" points="1209.29,-344.56 1199.51,-348.64 1209.7,-351.55 1209.29,-344.56"/>
</a>
</g>
<text text-anchor="middle" x="1272" y="-361" font-family="Helvetica,sans-Serif" font-size="10.00" fill="grey"> input_control</text>
<text text-anchor="middle" x="1272" y="-350" font-family="Helvetica,sans-Serif" font-size="10.00" fill="grey">output_control</text>
</g>
<!-- Node15 -->
<g id="Node000015" class="node">
<title>Node15</title>
<g id="a_Node000015"><a xlink:href="classRealm_1_1ControlPort_1_1Decoder.html" target="_top" xlink:title=" ">
<polygon fill="white" stroke="#666666" points="895,-361 786,-361 786,-331 895,-331 895,-361"/>
<text text-anchor="start" x="794" y="-349" font-family="Helvetica,sans-Serif" font-size="10.00">Realm::ControlPort</text>
<text text-anchor="middle" x="840.5" y="-338" font-family="Helvetica,sans-Serif" font-size="10.00">::Decoder</text>
</a>
</g>
</g>
<!-- Node15&#45;&gt;Node14 -->
<g id="edge16_Node000014_Node000015" class="edge">
<title>Node15&#45;&gt;Node14</title>
<g id="a_edge16_Node000014_Node000015"><a xlink:title=" ">
<path fill="none" stroke="#9a32cd" stroke-dasharray="5,2" d="M905.17,-346C946.78,-346 1001.35,-346 1045.27,-346"/>
<polygon fill="#9a32cd" stroke="#9a32cd" points="905.16,-342.5 895.16,-346 905.16,-349.5 905.16,-342.5"/>
</a>
</g>
<text text-anchor="middle" x="974" y="-349" font-family="Helvetica,sans-Serif" font-size="10.00" fill="grey"> decoder</text>
</g>
<!-- Node16 -->
<g id="Node000016" class="node">
<title>Node16</title>
<g id="a_Node000016"><a xlink:href="classRealm_1_1Channel.html" target="_top" xlink:title=" ">
<polygon fill="white" stroke="#666666" points="1169.5,-134.5 1075.5,-134.5 1075.5,-115.5 1169.5,-115.5 1169.5,-134.5"/>
<text text-anchor="middle" x="1122.5" y="-122.5" font-family="Helvetica,sans-Serif" font-size="10.00">Realm::Channel</text>
</a>
</g>
</g>
<!-- Node16&#45;&gt;Node11 -->
<g id="edge17_Node000011_Node000016" class="edge">
<title>Node16&#45;&gt;Node11</title>
<g id="a_edge17_Node000011_Node000016"><a xlink:title=" ">
<path fill="none" stroke="#9a32cd" stroke-dasharray="5,2" d="M1176.02,-113.91C1219.08,-107.66 1280.2,-105.5 1326,-131 1360.57,-150.25 1379.65,-197.15 1386.52,-217.41"/>
<polygon fill="#9a32cd" stroke="#9a32cd" points="1175.36,-110.47 1166.02,-115.49 1176.44,-117.39 1175.36,-110.47"/>
</a>
</g>
<text text-anchor="middle" x="1272" y="-134" font-family="Helvetica,sans-Serif" font-size="10.00" fill="grey"> channel</text>
</g>
<!-- Node17 -->
<g id="Node000017" class="node">
<title>Node17</title>
<g id="a_Node000017"><a xlink:href="classRealm_1_1atomic.html" target="_top" xlink:title=" ">
<polygon fill="white" stroke="#666666" points="1200,-67.5 1045,-67.5 1045,-48.5 1200,-48.5 1200,-67.5"/>
<text text-anchor="middle" x="1122.5" y="-55.5" font-family="Helvetica,sans-Serif" font-size="10.00">Realm::atomic&lt; unsigned &gt;</text>
</a>
</g>
</g>
<!-- Node17&#45;&gt;Node11 -->
<g id="edge19_Node000011_Node000017" class="edge">
<title>Node17&#45;&gt;Node11</title>
<g id="a_edge19_Node000011_Node000017"><a xlink:title=" ">
<path fill="none" stroke="#9a32cd" stroke-dasharray="5,2" d="M1164.68,-46.12C1208.75,-36.04 1278.68,-27.92 1326,-61 1379.61,-98.48 1387.98,-187.73 1389.27,-217.3"/>
<polygon fill="#9a32cd" stroke="#9a32cd" points="1163.78,-42.74 1154.88,-48.49 1165.42,-49.54 1163.78,-42.74"/>
</a>
</g>
<text text-anchor="start" x="1218" y="-97" font-family="Helvetica,sans-Serif" font-size="10.00" fill="grey"> nb_update_pre_bytes</text>
<text text-anchor="middle" x="1272" y="-86" font-family="Helvetica,sans-Serif" font-size="10.00" fill="grey">_total_calls_received</text>
<text text-anchor="middle" x="1272" y="-75" font-family="Helvetica,sans-Serif" font-size="10.00" fill="grey">progress_counter</text>
<text text-anchor="middle" x="1272" y="-64" font-family="Helvetica,sans-Serif" font-size="10.00" fill="grey">reference_count</text>
</g>
<!-- Node18&#45;&gt;Node11 -->
<g id="edge20_Node000011_Node000018" class="edge">
<title>Node18&#45;&gt;Node11</title>
<g id="a_edge20_Node000011_Node000018"><a xlink:title=" ">
<path fill="none" stroke="#9a32cd" stroke-dasharray="5,2" d="M1555.74,-211.74C1553.13,-211.47 1550.55,-211.22 1548,-211 1506.81,-207.5 1496.02,-205.91 1455,-211 1444.39,-212.32 1433.02,-214.82 1422.86,-217.47"/>
<polygon fill="#9a32cd" stroke="#9a32cd" points="1555.52,-215.24 1565.86,-212.94 1556.34,-208.29 1555.52,-215.24"/>
</a>
</g>
<text text-anchor="middle" x="1501.5" y="-214" font-family="Helvetica,sans-Serif" font-size="10.00" fill="grey"> xd_link</text>
</g>
</g>
</svg>
