<?xml version="1.0" encoding="UTF-8" standalone="no"?>
<!DOCTYPE svg PUBLIC "-//W3C//DTD SVG 1.1//EN"
 "http://www.w3.org/Graphics/SVG/1.1/DTD/svg11.dtd">
<!-- Generated by graphviz version 2.43.0 (0)
 -->
<!-- Title: Realm::Hip::GPUChannel Pages: 1 -->
<svg width="2306pt" height="757pt"
 viewBox="0.00 0.00 2306.00 756.63" xmlns="http://www.w3.org/2000/svg" xmlns:xlink="http://www.w3.org/1999/xlink">
<g id="graph0" class="graph" transform="scale(1 1) rotate(0) translate(4 752.63)">
<title>Realm::Hip::GPUChannel</title>
<!-- Node1 -->
<g id="Node000001" class="node">
<title>Node1</title>
<g id="a_Node000001"><a xlink:title=" ">
<polygon fill="#999999" stroke="#666666" points="2298,-621.63 2161,-621.63 2161,-602.63 2298,-602.63 2298,-621.63"/>
<text text-anchor="middle" x="2229.5" y="-609.63" font-family="Helvetica,sans-Serif" font-size="10.00">Realm::Hip::GPUChannel</text>
</a>
</g>
</g>
<!-- Node2 -->
<g id="Node000002" class="node">
<title>Node2</title>
<g id="a_Node000002"><a xlink:href="classRealm_1_1SingleXDQChannel.html" target="_top" xlink:title=" ">
<polygon fill="white" stroke="#666666" points="2124,-627.13 1958,-627.13 1958,-597.13 2124,-597.13 2124,-627.13"/>
<text text-anchor="start" x="1966" y="-615.13" font-family="Helvetica,sans-Serif" font-size="10.00">Realm::SingleXDQChannel</text>
<text text-anchor="middle" x="2041" y="-604.13" font-family="Helvetica,sans-Serif" font-size="10.00">&lt; GPUChannel, GPUXferDes &gt;</text>
</a>
</g>
</g>
<!-- Node2&#45;&gt;Node1 -->
<g id="edge1_Node000001_Node000002" class="edge">
<title>Node2&#45;&gt;Node1</title>
<g id="a_edge1_Node000001_Node000002"><a xlink:title=" ">
<path fill="none" stroke="#63b8ff" d="M2134.22,-612.13C2143.22,-612.13 2152.24,-612.13 2160.93,-612.13"/>
<polygon fill="#63b8ff" stroke="#63b8ff" points="2134.07,-608.63 2124.07,-612.13 2134.07,-615.63 2134.07,-608.63"/>
</a>
</g>
</g>
<!-- Node3 -->
<g id="Node000003" class="node">
<title>Node3</title>
<g id="a_Node000003"><a xlink:href="classRealm_1_1LocalChannel.html" target="_top" xlink:title=" ">
<polygon fill="white" stroke="#666666" points="1594,-642.63 1475,-642.63 1475,-623.63 1594,-623.63 1594,-642.63"/>
<text text-anchor="middle" x="1534.5" y="-630.63" font-family="Helvetica,sans-Serif" font-size="10.00">Realm::LocalChannel</text>
</a>
</g>
</g>
<!-- Node3&#45;&gt;Node2 -->
<g id="edge2_Node000002_Node000003" class="edge">
<title>Node3&#45;&gt;Node2</title>
<g id="a_edge2_Node000002_Node000003"><a xlink:title=" ">
<path fill="none" stroke="#63b8ff" d="M1604.13,-630.64C1684.6,-627.66 1822,-622.42 1940,-617.13 1945.82,-616.87 1951.82,-616.6 1957.87,-616.31"/>
<polygon fill="#63b8ff" stroke="#63b8ff" points="1603.99,-627.14 1594.12,-631.01 1604.24,-634.14 1603.99,-627.14"/>
</a>
</g>
</g>
<!-- Node7 -->
<g id="Node000007" class="node">
<title>Node7</title>
<g id="a_Node000007"><a xlink:href="classRealm_1_1XDQueue.html" target="_top" xlink:title=" ">
<polygon fill="white" stroke="#666666" points="1900,-605.13 1725,-605.13 1725,-575.13 1900,-575.13 1900,-605.13"/>
<text text-anchor="start" x="1733" y="-593.13" font-family="Helvetica,sans-Serif" font-size="10.00">Realm::XDQueue&lt; GPUChannel,</text>
<text text-anchor="middle" x="1812.5" y="-582.13" font-family="Helvetica,sans-Serif" font-size="10.00"> GPUXferDes &gt;</text>
</a>
</g>
</g>
<!-- Node3&#45;&gt;Node7 -->
<g id="edge23_Node000007_Node000003" class="edge">
<title>Node3&#45;&gt;Node7</title>
<g id="a_edge23_Node000007_Node000003"><a xlink:title=" ">
<path fill="none" stroke="#9a32cd" stroke-dasharray="5,2" d="M1596.59,-621.58C1609.32,-618.97 1622.63,-616.09 1635,-613.13 1643.08,-611.2 1644.85,-609.72 1653,-608.13 1676.11,-603.64 1701.34,-600.15 1724.75,-597.49"/>
<polygon fill="#9a32cd" stroke="#9a32cd" points="1595.64,-618.2 1586.53,-623.62 1597.02,-625.07 1595.64,-618.2"/>
</a>
</g>
<text text-anchor="middle" x="1680" y="-611.13" font-family="Helvetica,sans-Serif" font-size="10.00" fill="grey"> channel</text>
</g>
<!-- Node4 -->
<g id="Node000004" class="node">
<title>Node4</title>
<g id="a_Node000004"><a xlink:href="classRealm_1_1Channel.html" target="_top" xlink:title=" ">
<polygon fill="white" stroke="#666666" points="959.5,-629.63 865.5,-629.63 865.5,-610.63 959.5,-610.63 959.5,-629.63"/>
<text text-anchor="middle" x="912.5" y="-617.63" font-family="Helvetica,sans-Serif" font-size="10.00">Realm::Channel</text>
</a>
</g>
</g>
<!-- Node4&#45;&gt;Node3 -->
<g id="edge3_Node000003_Node000004" class="edge">
<title>Node4&#45;&gt;Node3</title>
<g id="a_edge3_Node000003_Node000004"><a xlink:title=" ">
<path fill="none" stroke="#63b8ff" d="M969.77,-621.31C1086.8,-623.77 1355.44,-629.4 1474.66,-631.9"/>
<polygon fill="#63b8ff" stroke="#63b8ff" points="969.67,-617.81 959.59,-621.1 969.52,-624.81 969.67,-617.81"/>
</a>
</g>
</g>
<!-- Node23 -->
<g id="Node000023" class="node">
<title>Node23</title>
<g id="a_Node000023"><a xlink:href="classRealm_1_1XferDes.html" target="_top" xlink:title=" ">
<polygon fill="white" stroke="#666666" points="1270.5,-464.63 1177.5,-464.63 1177.5,-445.63 1270.5,-445.63 1270.5,-464.63"/>
<text text-anchor="middle" x="1224" y="-452.63" font-family="Helvetica,sans-Serif" font-size="10.00">Realm::XferDes</text>
</a>
</g>
</g>
<!-- Node4&#45;&gt;Node23 -->
<g id="edge35_Node000023_Node000004" class="edge">
<title>Node4&#45;&gt;Node23</title>
<g id="a_edge35_Node000023_Node000004"><a xlink:title=" ">
<path fill="none" stroke="#9a32cd" stroke-dasharray="5,2" d="M964.5,-608.04C976.86,-604.79 989.98,-601.07 1002,-597.13 1057.92,-578.81 1078.62,-584.35 1125,-548.13 1135.79,-539.71 1133.72,-533.2 1143,-523.13 1164.26,-500.09 1193.07,-477.32 1209.68,-464.85"/>
<polygon fill="#9a32cd" stroke="#9a32cd" points="963.6,-604.66 954.79,-610.54 965.34,-611.44 963.6,-604.66"/>
</a>
</g>
<text text-anchor="middle" x="1072.5" y="-595.13" font-family="Helvetica,sans-Serif" font-size="10.00" fill="grey"> channel</text>
</g>
<!-- Node5 -->
<g id="Node000005" class="node">
<title>Node5</title>
<g id="a_Node000005"><a xlink:href="classRealm_1_1SimpleXferDesFactory.html" target="_top" xlink:title=" ">
<polygon fill="white" stroke="#666666" points="1305,-669.63 1143,-669.63 1143,-650.63 1305,-650.63 1305,-669.63"/>
<text text-anchor="middle" x="1224" y="-657.63" font-family="Helvetica,sans-Serif" font-size="10.00">Realm::SimpleXferDesFactory</text>
</a>
</g>
</g>
<!-- Node5&#45;&gt;Node3 -->
<g id="edge4_Node000003_Node000005" class="edge">
<title>Node5&#45;&gt;Node3</title>
<g id="a_edge4_Node000003_Node000005"><a xlink:title=" ">
<path fill="none" stroke="#9a32cd" stroke-dasharray="5,2" d="M1315.36,-652.23C1366.73,-647.73 1429.59,-642.23 1474.61,-638.29"/>
<polygon fill="#9a32cd" stroke="#9a32cd" points="1314.91,-648.75 1305.25,-653.11 1315.52,-655.73 1314.91,-648.75"/>
</a>
</g>
<text text-anchor="middle" x="1369.5" y="-654.13" font-family="Helvetica,sans-Serif" font-size="10.00" fill="grey"> factory_singleton</text>
</g>
<!-- Node6 -->
<g id="Node000006" class="node">
<title>Node6</title>
<g id="a_Node000006"><a xlink:href="classRealm_1_1XferDesFactory.html" target="_top" xlink:title=" ">
<polygon fill="white" stroke="#666666" points="976.5,-669.63 848.5,-669.63 848.5,-650.63 976.5,-650.63 976.5,-669.63"/>
<text text-anchor="middle" x="912.5" y="-657.63" font-family="Helvetica,sans-Serif" font-size="10.00">Realm::XferDesFactory</text>
</a>
</g>
</g>
<!-- Node6&#45;&gt;Node5 -->
<g id="edge5_Node000005_Node000006" class="edge">
<title>Node6&#45;&gt;Node5</title>
<g id="a_edge5_Node000005_Node000006"><a xlink:title=" ">
<path fill="none" stroke="#63b8ff" d="M986.61,-660.13C1033.61,-660.13 1094.69,-660.13 1142.98,-660.13"/>
<polygon fill="#63b8ff" stroke="#63b8ff" points="986.51,-656.63 976.5,-660.13 986.5,-663.63 986.51,-656.63"/>
</a>
</g>
</g>
<!-- Node7&#45;&gt;Node2 -->
<g id="edge6_Node000002_Node000007" class="edge">
<title>Node7&#45;&gt;Node2</title>
<g id="a_edge6_Node000002_Node000007"><a xlink:title=" ">
<path fill="none" stroke="#9a32cd" stroke-dasharray="5,2" d="M1910.42,-599.55C1926.24,-601.09 1942.5,-602.66 1957.92,-604.16"/>
<polygon fill="#9a32cd" stroke="#9a32cd" points="1910.39,-596.03 1900.1,-598.55 1909.71,-603 1910.39,-596.03"/>
</a>
</g>
<text text-anchor="middle" x="1929" y="-605.13" font-family="Helvetica,sans-Serif" font-size="10.00" fill="grey"> xdq</text>
</g>
<!-- Node8 -->
<g id="Node000008" class="node">
<title>Node8</title>
<g id="a_Node000008"><a xlink:href="classRealm_1_1BackgroundWorkItem.html" target="_top" xlink:title=" ">
<polygon fill="white" stroke="#666666" points="654,-241.63 495,-241.63 495,-222.63 654,-222.63 654,-241.63"/>
<text text-anchor="middle" x="574.5" y="-229.63" font-family="Helvetica,sans-Serif" font-size="10.00">Realm::BackgroundWorkItem</text>
</a>
</g>
</g>
<!-- Node8&#45;&gt;Node7 -->
<g id="edge7_Node000007_Node000008" class="edge">
<title>Node8&#45;&gt;Node7</title>
<g id="a_edge7_Node000007_Node000008"><a xlink:title=" ">
<path fill="none" stroke="#63b8ff" d="M664.31,-242.77C731.96,-249.95 827.47,-258.13 911.5,-258.13 911.5,-258.13 911.5,-258.13 1535.5,-258.13 1702.65,-258.13 1788.02,-510.06 1807.26,-575.01"/>
<polygon fill="#63b8ff" stroke="#63b8ff" points="664.44,-239.26 654.12,-241.67 663.69,-246.22 664.44,-239.26"/>
</a>
</g>
</g>
<!-- Node9 -->
<g id="Node000009" class="node">
<title>Node9</title>
<g id="a_Node000009"><a xlink:href="classRealm_1_1BackgroundWorkManager.html" target="_top" xlink:title=" ">
<polygon fill="white" stroke="#666666" points="1002,-190.63 823,-190.63 823,-171.63 1002,-171.63 1002,-190.63"/>
<text text-anchor="middle" x="912.5" y="-178.63" font-family="Helvetica,sans-Serif" font-size="10.00">Realm::BackgroundWorkManager</text>
</a>
</g>
</g>
<!-- Node8&#45;&gt;Node9 -->
<g id="edge18_Node000009_Node000008" class="edge">
<title>Node8&#45;&gt;Node9</title>
<g id="a_edge18_Node000009_Node000008"><a xlink:title=" ">
<path fill="none" stroke="#9a32cd" stroke-dasharray="5,2" d="M664.14,-227.17C706.94,-223.88 758.89,-218.56 805,-210.13 831.2,-205.35 860.35,-197.21 881.52,-190.77"/>
<polygon fill="#9a32cd" stroke="#9a32cd" points="663.74,-223.69 654.03,-227.93 664.26,-230.67 663.74,-223.69"/>
</a>
</g>
<text text-anchor="middle" x="743.5" y="-229.13" font-family="Helvetica,sans-Serif" font-size="10.00" fill="grey"> work_items</text>
</g>
<!-- Node9&#45;&gt;Node8 -->
<g id="edge8_Node000008_Node000009" class="edge">
<title>Node9&#45;&gt;Node8</title>
<g id="a_edge8_Node000008_Node000009"><a xlink:title=" ">
<path fill="none" stroke="#9a32cd" stroke-dasharray="5,2" d="M812.68,-184.07C771.94,-186.53 724.43,-191 682,-199.13 653.67,-204.56 622.24,-214.85 600.92,-222.5"/>
<polygon fill="#9a32cd" stroke="#9a32cd" points="813.1,-187.56 822.89,-183.49 812.7,-180.57 813.1,-187.56"/>
</a>
</g>
<text text-anchor="middle" x="743.5" y="-202.13" font-family="Helvetica,sans-Serif" font-size="10.00" fill="grey"> manager</text>
</g>
<!-- Node10 -->
<g id="Node000010" class="node">
<title>Node10</title>
<g id="a_Node000010"><a xlink:href="structRealm_1_1BackgroundWorkManager_1_1Config.html" target="_top" xlink:title=" ">
<polygon fill="white" stroke="#666666" points="664,-190.13 485,-190.13 485,-160.13 664,-160.13 664,-190.13"/>
<text text-anchor="start" x="493" y="-178.13" font-family="Helvetica,sans-Serif" font-size="10.00">Realm::BackgroundWorkManager</text>
<text text-anchor="middle" x="574.5" y="-167.13" font-family="Helvetica,sans-Serif" font-size="10.00">::Config</text>
</a>
</g>
</g>
<!-- Node10&#45;&gt;Node9 -->
<g id="edge9_Node000009_Node000010" class="edge">
<title>Node10&#45;&gt;Node9</title>
<g id="a_edge9_Node000009_Node000010"><a xlink:title=" ">
<path fill="none" stroke="#9a32cd" stroke-dasharray="5,2" d="M674.24,-165.54C676.85,-165.39 679.44,-165.25 682,-165.13 736.61,-162.58 750.49,-161.06 805,-165.13 822.53,-166.44 841.54,-168.95 858.59,-171.59"/>
<polygon fill="#9a32cd" stroke="#9a32cd" points="673.84,-162.06 664.08,-166.18 674.28,-169.04 673.84,-162.06"/>
</a>
</g>
<text text-anchor="middle" x="743.5" y="-168.13" font-family="Helvetica,sans-Serif" font-size="10.00" fill="grey"> cfg</text>
</g>
<!-- Node11 -->
<g id="Node000011" class="node">
<title>Node11</title>
<g id="a_Node000011"><a xlink:href="classRealm_1_1UnfairMutex.html" target="_top" xlink:title=" ">
<polygon fill="white" stroke="#666666" points="632,-512.63 517,-512.63 517,-493.63 632,-493.63 632,-512.63"/>
<text text-anchor="middle" x="574.5" y="-500.63" font-family="Helvetica,sans-Serif" font-size="10.00">Realm::UnfairMutex</text>
</a>
</g>
</g>
<!-- Node11&#45;&gt;Node7 -->
<g id="edge24_Node000007_Node000011" class="edge">
<title>Node11&#45;&gt;Node7</title>
<g id="a_edge24_Node000007_Node000011"><a xlink:title=" ">
<path fill="none" stroke="#9a32cd" stroke-dasharray="5,2" d="M590.08,-520.21C633.54,-569.1 768.15,-706.13 911.5,-706.13 911.5,-706.13 911.5,-706.13 1535.5,-706.13 1638.41,-706.13 1747.24,-636.74 1791.27,-605.3"/>
<polygon fill="#9a32cd" stroke="#9a32cd" points="592.68,-517.87 583.47,-512.65 587.42,-522.48 592.68,-517.87"/>
</a>
</g>
<text text-anchor="middle" x="1224" y="-709.13" font-family="Helvetica,sans-Serif" font-size="10.00" fill="grey"> mutex</text>
</g>
<!-- Node11&#45;&gt;Node9 -->
<g id="edge10_Node000009_Node000011" class="edge">
<title>Node11&#45;&gt;Node9</title>
<g id="a_edge10_Node000009_Node000011"><a xlink:title=" ">
<path fill="none" stroke="#9a32cd" stroke-dasharray="5,2" d="M641.93,-492.9C649.92,-489.71 657.52,-485.55 664,-480.13 678.65,-467.89 670.75,-456.56 682,-441.13 725.74,-381.15 763.06,-389.39 805,-328.13 817.4,-310.02 811.6,-300.89 823,-282.13 845.77,-244.68 882.82,-207.77 900.9,-190.8"/>
<polygon fill="#9a32cd" stroke="#9a32cd" points="640.71,-489.61 632.42,-496.21 643.02,-496.22 640.71,-489.61"/>
</a>
</g>
<text text-anchor="middle" x="743.5" y="-444.13" font-family="Helvetica,sans-Serif" font-size="10.00" fill="grey"> mutex</text>
</g>
<!-- Node11&#45;&gt;Node23 -->
<g id="edge36_Node000023_Node000011" class="edge">
<title>Node11&#45;&gt;Node23</title>
<g id="a_edge36_Node000023_Node000011"><a xlink:title=" ">
<path fill="none" stroke="#9a32cd" stroke-dasharray="5,2" d="M642.1,-505.51C745.94,-508.1 952.43,-508.84 1125,-482.13 1149.07,-478.41 1175.66,-470.86 1195.07,-464.68"/>
<polygon fill="#9a32cd" stroke="#9a32cd" points="642.16,-502.01 632.07,-505.24 641.98,-509 642.16,-502.01"/>
</a>
</g>
<text text-anchor="middle" x="912.5" y="-542.13" font-family="Helvetica,sans-Serif" font-size="10.00" fill="grey"> available_req_mutex</text>
<text text-anchor="middle" x="912.5" y="-531.13" font-family="Helvetica,sans-Serif" font-size="10.00" fill="grey">update_read_lock</text>
<text text-anchor="middle" x="912.5" y="-520.13" font-family="Helvetica,sans-Serif" font-size="10.00" fill="grey">update_write_lock</text>
<text text-anchor="middle" x="912.5" y="-509.13" font-family="Helvetica,sans-Serif" font-size="10.00" fill="grey">xd_lock</text>
</g>
<!-- Node24 -->
<g id="Node000024" class="node">
<title>Node24</title>
<g id="a_Node000024"><a xlink:href="classRealm_1_1XferDesQueue.html" target="_top" xlink:title=" ">
<polygon fill="white" stroke="#666666" points="975,-588.63 850,-588.63 850,-569.63 975,-569.63 975,-588.63"/>
<text text-anchor="middle" x="912.5" y="-576.63" font-family="Helvetica,sans-Serif" font-size="10.00">Realm::XferDesQueue</text>
</a>
</g>
</g>
<!-- Node11&#45;&gt;Node24 -->
<g id="edge29_Node000024_Node000011" class="edge">
<title>Node11&#45;&gt;Node24</title>
<g id="a_edge29_Node000024_Node000011"><a xlink:title=" ">
<path fill="none" stroke="#9a32cd" stroke-dasharray="5,2" d="M627.58,-514.91C694.15,-529.97 808.11,-555.75 869.46,-569.62"/>
<polygon fill="#9a32cd" stroke="#9a32cd" points="628.24,-511.48 617.71,-512.68 626.7,-518.3 628.24,-511.48"/>
</a>
</g>
<text text-anchor="middle" x="743.5" y="-569.13" font-family="Helvetica,sans-Serif" font-size="10.00" fill="grey"> guid_lock</text>
<text text-anchor="middle" x="743.5" y="-558.13" font-family="Helvetica,sans-Serif" font-size="10.00" fill="grey">queues_lock</text>
</g>
<!-- Node12 -->
<g id="Node000012" class="node">
<title>Node12</title>
<g id="a_Node000012"><a xlink:href="classRealm_1_1noncopyable.html" target="_top" xlink:title=" ">
<polygon fill="white" stroke="#666666" points="396,-512.63 280,-512.63 280,-493.63 396,-493.63 396,-512.63"/>
<text text-anchor="middle" x="338" y="-500.63" font-family="Helvetica,sans-Serif" font-size="10.00">Realm::noncopyable</text>
</a>
</g>
</g>
<!-- Node12&#45;&gt;Node11 -->
<g id="edge11_Node000011_Node000012" class="edge">
<title>Node12&#45;&gt;Node11</title>
<g id="a_edge11_Node000011_Node000012"><a xlink:title=" ">
<path fill="none" stroke="#63b8ff" d="M406.21,-503.13C441.26,-503.13 483.65,-503.13 516.99,-503.13"/>
<polygon fill="#63b8ff" stroke="#63b8ff" points="406.07,-499.63 396.07,-503.13 406.07,-506.63 406.07,-499.63"/>
</a>
</g>
</g>
<!-- Node13 -->
<g id="Node000013" class="node">
<title>Node13</title>
<g id="a_Node000013"><a xlink:href="classRealm_1_1atomic.html" target="_top" xlink:title=" ">
<polygon fill="white" stroke="#666666" points="413,-391.63 263,-391.63 263,-372.63 413,-372.63 413,-391.63"/>
<text text-anchor="middle" x="338" y="-379.63" font-family="Helvetica,sans-Serif" font-size="10.00">Realm::atomic&lt; uint32_t &gt;</text>
</a>
</g>
</g>
<!-- Node13&#45;&gt;Node9 -->
<g id="edge19_Node000009_Node000013" class="edge">
<title>Node13&#45;&gt;Node9</title>
<g id="a_edge19_Node000009_Node000013"><a xlink:title=" ">
<path fill="none" stroke="#9a32cd" stroke-dasharray="5,2" d="M367.57,-368.1C396.6,-354.25 443.14,-333.16 485,-319.13 623.81,-272.64 668.84,-294.9 805,-241.13 839.94,-227.34 877.47,-203.94 897.31,-190.81"/>
<polygon fill="#9a32cd" stroke="#9a32cd" points="365.92,-365.01 358.43,-372.5 368.95,-371.32 365.92,-365.01"/>
</a>
</g>
<text text-anchor="middle" x="574.5" y="-322.13" font-family="Helvetica,sans-Serif" font-size="10.00" fill="grey"> worker_state</text>
</g>
<!-- Node13&#45;&gt;Node11 -->
<g id="edge12_Node000011_Node000013" class="edge">
<title>Node13&#45;&gt;Node11</title>
<g id="a_edge12_Node000011_Node000013"><a xlink:title=" ">
<path fill="none" stroke="#9a32cd" stroke-dasharray="5,2" d="M358.12,-398.09C384.87,-419.67 435.76,-457.99 485,-480.13 497.45,-485.74 511.52,-490.17 524.72,-493.59"/>
<polygon fill="#9a32cd" stroke="#9a32cd" points="360.27,-395.33 350.31,-391.72 355.84,-400.75 360.27,-395.33"/>
</a>
</g>
<text text-anchor="middle" x="449" y="-473.13" font-family="Helvetica,sans-Serif" font-size="10.00" fill="grey"> state</text>
</g>
<!-- Node14 -->
<g id="Node000014" class="node">
<title>Node14</title>
<g id="a_Node000014"><a xlink:href="classRealm_1_1DoorbellList.html" target="_top" xlink:title=" ">
<polygon fill="white" stroke="#666666" points="394.5,-180.63 281.5,-180.63 281.5,-161.63 394.5,-161.63 394.5,-180.63"/>
<text text-anchor="middle" x="338" y="-168.63" font-family="Helvetica,sans-Serif" font-size="10.00">Realm::DoorbellList</text>
</a>
</g>
</g>
<!-- Node14&#45;&gt;Node9 -->
<g id="edge22_Node000009_Node000014" class="edge">
<title>Node14&#45;&gt;Node9</title>
<g id="a_edge22_Node000009_Node000014"><a xlink:title=" ">
<path fill="none" stroke="#9a32cd" stroke-dasharray="5,2" d="M383.51,-159.15C412.24,-152.05 450.54,-143.75 485,-140.13 626.69,-125.26 664.55,-135.2 805,-159.13 826.12,-162.73 849.45,-167.47 868.88,-171.62"/>
<polygon fill="#9a32cd" stroke="#9a32cd" points="382.62,-155.77 373.78,-161.6 384.33,-162.56 382.62,-155.77"/>
</a>
</g>
<text text-anchor="middle" x="574.5" y="-143.13" font-family="Helvetica,sans-Serif" font-size="10.00" fill="grey"> db_list</text>
</g>
<!-- Node14&#45;&gt;Node11 -->
<g id="edge13_Node000011_Node000014" class="edge">
<title>Node14&#45;&gt;Node11</title>
<g id="a_edge13_Node000011_Node000014"><a xlink:title=" ">
<path fill="none" stroke="#9a32cd" stroke-dasharray="5,2" d="M348.31,-189.85C369.8,-233.22 424.33,-344.09 467,-438.13 475.39,-456.63 469.6,-466.9 485,-480.13 494.03,-487.9 505.36,-493.08 516.88,-496.54"/>
<polygon fill="#9a32cd" stroke="#9a32cd" points="351.38,-188.16 343.8,-180.76 345.11,-191.28 351.38,-188.16"/>
</a>
</g>
<text text-anchor="middle" x="449" y="-441.13" font-family="Helvetica,sans-Serif" font-size="10.00" fill="grey"> db_list</text>
</g>
<!-- Node15 -->
<g id="Node000015" class="node">
<title>Node15</title>
<g id="a_Node000015"><a xlink:href="classRealm_1_1atomic.html" target="_top" xlink:title=" ">
<polygon fill="white" stroke="#666666" points="152,-180.63 0,-180.63 0,-161.63 152,-161.63 152,-180.63"/>
<text text-anchor="middle" x="76" y="-168.63" font-family="Helvetica,sans-Serif" font-size="10.00">Realm::atomic&lt; uintptr_t &gt;</text>
</a>
</g>
</g>
<!-- Node15&#45;&gt;Node14 -->
<g id="edge14_Node000014_Node000015" class="edge">
<title>Node15&#45;&gt;Node14</title>
<g id="a_edge14_Node000014_Node000015"><a xlink:title=" ">
<path fill="none" stroke="#9a32cd" stroke-dasharray="5,2" d="M162.52,-171.13C201.61,-171.13 246.79,-171.13 281.38,-171.13"/>
<polygon fill="#9a32cd" stroke="#9a32cd" points="162.2,-167.63 152.2,-171.13 162.2,-174.63 162.2,-167.63"/>
</a>
</g>
<text text-anchor="middle" x="207.5" y="-174.13" font-family="Helvetica,sans-Serif" font-size="10.00" fill="grey"> head_or_count</text>
</g>
<!-- Node16 -->
<g id="Node000016" class="node">
<title>Node16</title>
<g id="a_Node000016"><a xlink:href="classRealm_1_1atomic.html" target="_top" xlink:title=" ">
<polygon fill="white" stroke="#666666" points="652,-358.63 497,-358.63 497,-339.63 652,-339.63 652,-358.63"/>
<text text-anchor="middle" x="574.5" y="-346.63" font-family="Helvetica,sans-Serif" font-size="10.00">Realm::atomic&lt; unsigned &gt;</text>
</a>
</g>
</g>
<!-- Node16&#45;&gt;Node9 -->
<g id="edge15_Node000009_Node000016" class="edge">
<title>Node16&#45;&gt;Node9</title>
<g id="a_edge15_Node000009_Node000016"><a xlink:title=" ">
<path fill="none" stroke="#9a32cd" stroke-dasharray="5,2" d="M613.94,-336.5C634.07,-330.16 659.21,-322.67 682,-317.13 736.04,-304 756.19,-320.79 805,-294.13 829.37,-280.82 883.48,-215.77 903.69,-190.86"/>
<polygon fill="#9a32cd" stroke="#9a32cd" points="612.67,-333.23 604.2,-339.6 614.79,-339.9 612.67,-333.23"/>
</a>
</g>
<text text-anchor="middle" x="743.5" y="-320.13" font-family="Helvetica,sans-Serif" font-size="10.00" fill="grey"> num_work_items</text>
</g>
<!-- Node16&#45;&gt;Node23 -->
<g id="edge37_Node000023_Node000016" class="edge">
<title>Node16&#45;&gt;Node23</title>
<g id="a_edge37_Node000023_Node000016"><a xlink:title=" ">
<path fill="none" stroke="#9a32cd" stroke-dasharray="5,2" d="M653.28,-359.74C662.94,-360.73 672.69,-361.57 682,-362.13 736.57,-365.45 760.17,-393.42 805,-362.13 824.02,-348.86 803.98,-326.41 823,-313.13 888.24,-267.6 924.91,-293.5 1002,-313.13 1094.81,-336.77 1184.07,-417.18 1213.15,-445.32"/>
<polygon fill="#9a32cd" stroke="#9a32cd" points="653.6,-356.25 643.28,-358.66 652.85,-363.21 653.6,-356.25"/>
</a>
</g>
<text text-anchor="start" x="858.5" y="-349.13" font-family="Helvetica,sans-Serif" font-size="10.00" fill="grey"> nb_update_pre_bytes</text>
<text text-anchor="middle" x="912.5" y="-338.13" font-family="Helvetica,sans-Serif" font-size="10.00" fill="grey">_total_calls_received</text>
<text text-anchor="middle" x="912.5" y="-327.13" font-family="Helvetica,sans-Serif" font-size="10.00" fill="grey">progress_counter</text>
<text text-anchor="middle" x="912.5" y="-316.13" font-family="Helvetica,sans-Serif" font-size="10.00" fill="grey">reference_count</text>
</g>
<!-- Node17 -->
<g id="Node000017" class="node">
<title>Node17</title>
<g id="a_Node000017"><a xlink:href="classRealm_1_1atomic.html" target="_top" xlink:title=" ">
<polygon fill="white" stroke="#666666" points="649.5,-57.63 499.5,-57.63 499.5,-38.63 649.5,-38.63 649.5,-57.63"/>
<text text-anchor="middle" x="574.5" y="-45.63" font-family="Helvetica,sans-Serif" font-size="10.00">Realm::atomic&lt; BitMask &gt;</text>
</a>
</g>
</g>
<!-- Node17&#45;&gt;Node9 -->
<g id="edge16_Node000009_Node000017" class="edge">
<title>Node17&#45;&gt;Node9</title>
<g id="a_edge16_Node000009_Node000017"><a xlink:title=" ">
<path fill="none" stroke="#9a32cd" stroke-dasharray="5,2" d="M659.63,-41.88C704.8,-41.88 760.22,-47.45 805,-69.13 853.78,-92.75 891.89,-148.83 905.79,-171.44"/>
<polygon fill="#9a32cd" stroke="#9a32cd" points="659.54,-38.38 649.57,-41.97 659.6,-45.38 659.54,-38.38"/>
</a>
</g>
<text text-anchor="middle" x="743.5" y="-72.13" font-family="Helvetica,sans-Serif" font-size="10.00" fill="grey"> active_work_item_mask</text>
</g>
<!-- Node18 -->
<g id="Node000018" class="node">
<title>Node18</title>
<g id="a_Node000018"><a xlink:href="classRealm_1_1atomic.html" target="_top" xlink:title=" ">
<polygon fill="white" stroke="#666666" points="636,-20.63 513,-20.63 513,-1.63 636,-1.63 636,-20.63"/>
<text text-anchor="middle" x="574.5" y="-8.63" font-family="Helvetica,sans-Serif" font-size="10.00">Realm::atomic&lt; int &gt;</text>
</a>
</g>
</g>
<!-- Node18&#45;&gt;Node9 -->
<g id="edge17_Node000009_Node000018" class="edge">
<title>Node18&#45;&gt;Node9</title>
<g id="a_edge17_Node000009_Node000018"><a xlink:title=" ">
<path fill="none" stroke="#9a32cd" stroke-dasharray="5,2" d="M646.12,-1.24C694,1.99 757.05,-0.79 805,-28.13 864.04,-61.81 897.88,-143.19 908.14,-171.35"/>
<polygon fill="#9a32cd" stroke="#9a32cd" points="645.85,2.25 636.15,-2.02 646.39,-4.73 645.85,2.25"/>
</a>
</g>
<text text-anchor="middle" x="743.5" y="-31.13" font-family="Helvetica,sans-Serif" font-size="10.00" fill="grey"> work_item_usecounts</text>
</g>
<!-- Node19 -->
<g id="Node000019" class="node">
<title>Node19</title>
<g id="a_Node000019"><a xlink:href="classRealm_1_1DelegatingMutex.html" target="_top" xlink:title=" ">
<polygon fill="white" stroke="#666666" points="643.5,-94.63 505.5,-94.63 505.5,-75.63 643.5,-75.63 643.5,-94.63"/>
<text text-anchor="middle" x="574.5" y="-82.63" font-family="Helvetica,sans-Serif" font-size="10.00">Realm::DelegatingMutex</text>
</a>
</g>
</g>
<!-- Node19&#45;&gt;Node9 -->
<g id="edge20_Node000009_Node000019" class="edge">
<title>Node19&#45;&gt;Node9</title>
<g id="a_edge20_Node000009_Node000019"><a xlink:title=" ">
<path fill="none" stroke="#9a32cd" stroke-dasharray="5,2" d="M653.64,-82.37C699.08,-83.16 756.74,-88.38 805,-106.13 845.11,-120.89 884.05,-154.74 901.68,-171.44"/>
<polygon fill="#9a32cd" stroke="#9a32cd" points="653.58,-78.87 643.55,-82.26 653.51,-85.87 653.58,-78.87"/>
</a>
</g>
<text text-anchor="middle" x="743.5" y="-109.13" font-family="Helvetica,sans-Serif" font-size="10.00" fill="grey"> db_mutex</text>
</g>
<!-- Node20 -->
<g id="Node000020" class="node">
<title>Node20</title>
<g id="a_Node000020"><a xlink:href="classRealm_1_1atomic.html" target="_top" xlink:title=" ">
<polygon fill="white" stroke="#666666" points="413,-94.63 263,-94.63 263,-75.63 413,-75.63 413,-94.63"/>
<text text-anchor="middle" x="338" y="-82.63" font-family="Helvetica,sans-Serif" font-size="10.00">Realm::atomic&lt; uint64_t &gt;</text>
</a>
</g>
</g>
<!-- Node20&#45;&gt;Node19 -->
<g id="edge21_Node000019_Node000020" class="edge">
<title>Node20&#45;&gt;Node19</title>
<g id="a_edge21_Node000019_Node000020"><a xlink:title=" ">
<path fill="none" stroke="#9a32cd" stroke-dasharray="5,2" d="M423.38,-85.13C450.3,-85.13 479.74,-85.13 505.36,-85.13"/>
<polygon fill="#9a32cd" stroke="#9a32cd" points="423.2,-81.63 413.2,-85.13 423.2,-88.63 423.2,-81.63"/>
</a>
</g>
<text text-anchor="middle" x="449" y="-88.13" font-family="Helvetica,sans-Serif" font-size="10.00" fill="grey"> state</text>
</g>
<!-- Node21 -->
<g id="Node000021" class="node">
<title>Node21</title>
<g id="a_Node000021"><a xlink:href="classRealm_1_1IntrusivePriorityList.html" target="_top" xlink:title=" ">
<polygon fill="white" stroke="#666666" points="1635,-604.63 1434,-604.63 1434,-541.63 1635,-541.63 1635,-604.63"/>
<text text-anchor="start" x="1442" y="-592.63" font-family="Helvetica,sans-Serif" font-size="10.00">Realm::IntrusivePriority</text>
<text text-anchor="start" x="1442" y="-581.63" font-family="Helvetica,sans-Serif" font-size="10.00">List&lt; XferDes, int, REALM</text>
<text text-anchor="start" x="1442" y="-570.63" font-family="Helvetica,sans-Serif" font-size="10.00">_PMTA_USE(XferDes, xd_link)</text>
<text text-anchor="start" x="1442" y="-559.63" font-family="Helvetica,sans-Serif" font-size="10.00">, REALM_PMTA_USE(XferDes, priority)</text>
<text text-anchor="middle" x="1534.5" y="-548.63" font-family="Helvetica,sans-Serif" font-size="10.00">, DummyLock &gt;</text>
</a>
</g>
</g>
<!-- Node21&#45;&gt;Node7 -->
<g id="edge25_Node000007_Node000021" class="edge">
<title>Node21&#45;&gt;Node7</title>
<g id="a_edge25_Node000007_Node000021"><a xlink:title=" ">
<path fill="none" stroke="#9a32cd" stroke-dasharray="5,2" d="M1645.36,-571.39C1665.87,-571.74 1687.1,-572.56 1707,-574.13 1712.85,-574.6 1718.88,-575.19 1724.94,-575.88"/>
<polygon fill="#9a32cd" stroke="#9a32cd" points="1645.41,-567.89 1635.36,-571.26 1645.31,-574.89 1645.41,-567.89"/>
</a>
</g>
<text text-anchor="middle" x="1680" y="-577.13" font-family="Helvetica,sans-Serif" font-size="10.00" fill="grey"> ready_xds</text>
</g>
<!-- Node22 -->
<g id="Node000022" class="node">
<title>Node22</title>
<g id="a_Node000022"><a xlink:href="classRealm_1_1DummyLock.html" target="_top" xlink:title=" ">
<polygon fill="white" stroke="#666666" points="1282,-593.63 1166,-593.63 1166,-574.63 1282,-574.63 1282,-593.63"/>
<text text-anchor="middle" x="1224" y="-581.63" font-family="Helvetica,sans-Serif" font-size="10.00">Realm::DummyLock</text>
</a>
</g>
</g>
<!-- Node22&#45;&gt;Node21 -->
<g id="edge26_Node000021_Node000022" class="edge">
<title>Node22&#45;&gt;Node21</title>
<g id="a_edge26_Node000021_Node000022"><a xlink:title=" ">
<path fill="none" stroke="#9a32cd" stroke-dasharray="5,2" d="M1292.54,-581.73C1333.88,-580.25 1387.53,-578.34 1433.72,-576.69"/>
<polygon fill="#9a32cd" stroke="#9a32cd" points="1292.17,-578.24 1282.3,-582.09 1292.42,-585.23 1292.17,-578.24"/>
</a>
</g>
<text text-anchor="middle" x="1369.5" y="-584.13" font-family="Helvetica,sans-Serif" font-size="10.00" fill="grey"> lock</text>
</g>
<!-- Node23&#45;&gt;Node21 -->
<g id="edge27_Node000021_Node000023" class="edge">
<title>Node23&#45;&gt;Node21</title>
<g id="a_edge27_Node000021_Node000023"><a xlink:title=" ">
<path fill="none" stroke="#9a32cd" stroke-dasharray="5,2" d="M1259.5,-468.33C1305.51,-485.93 1388.45,-517.65 1451.07,-541.6"/>
<polygon fill="#9a32cd" stroke="#9a32cd" points="1260.58,-464.99 1249.98,-464.69 1258.07,-471.53 1260.58,-464.99"/>
</a>
</g>
<text text-anchor="middle" x="1369.5" y="-532.13" font-family="Helvetica,sans-Serif" font-size="10.00" fill="grey"> head</text>
</g>
<!-- Node30 -->
<g id="Node000030" class="node">
<title>Node30</title>
<g id="a_Node000030"><a xlink:href="structRealm_1_1IntrusivePriorityListLink.html" target="_top" xlink:title=" ">
<polygon fill="white" stroke="#666666" points="1611,-393.13 1458,-393.13 1458,-363.13 1611,-363.13 1611,-393.13"/>
<text text-anchor="start" x="1466" y="-381.13" font-family="Helvetica,sans-Serif" font-size="10.00">Realm::IntrusivePriority</text>
<text text-anchor="middle" x="1534.5" y="-370.13" font-family="Helvetica,sans-Serif" font-size="10.00">ListLink&lt; Realm::XferDes &gt;</text>
</a>
</g>
</g>
<!-- Node23&#45;&gt;Node30 -->
<g id="edge39_Node000030_Node000023" class="edge">
<title>Node23&#45;&gt;Node30</title>
<g id="a_edge39_Node000030_Node000023"><a xlink:title=" ">
<path fill="none" stroke="#9a32cd" stroke-dasharray="5,2" d="M1251.99,-441.07C1271.3,-431.57 1298.15,-419.46 1323,-412.13 1366.85,-399.2 1417.38,-390.83 1457.94,-385.64"/>
<polygon fill="#9a32cd" stroke="#9a32cd" points="1250.27,-438.01 1242.9,-445.62 1253.41,-444.27 1250.27,-438.01"/>
</a>
</g>
<text text-anchor="middle" x="1369.5" y="-437.13" font-family="Helvetica,sans-Serif" font-size="10.00" fill="grey"> lastlink_within_pri</text>
<text text-anchor="middle" x="1369.5" y="-426.13" font-family="Helvetica,sans-Serif" font-size="10.00" fill="grey">next_lower_pri</text>
<text text-anchor="middle" x="1369.5" y="-415.13" font-family="Helvetica,sans-Serif" font-size="10.00" fill="grey">next_within_pri</text>
</g>
<!-- Node31 -->
<g id="Node000031" class="node">
<title>Node31</title>
<g id="a_Node000031"><a xlink:href="classRealm_1_1XferDes_1_1DeferredXDEnqueue.html" target="_top" xlink:title=" ">
<polygon fill="white" stroke="#666666" points="1605.5,-483.13 1463.5,-483.13 1463.5,-453.13 1605.5,-453.13 1605.5,-483.13"/>
<text text-anchor="start" x="1471.5" y="-471.13" font-family="Helvetica,sans-Serif" font-size="10.00">Realm::XferDes::Deferred</text>
<text text-anchor="middle" x="1534.5" y="-460.13" font-family="Helvetica,sans-Serif" font-size="10.00">XDEnqueue</text>
</a>
</g>
</g>
<!-- Node23&#45;&gt;Node31 -->
<g id="edge45_Node000031_Node000023" class="edge">
<title>Node23&#45;&gt;Node31</title>
<g id="a_edge45_Node000031_Node000023"><a xlink:title=" ">
<path fill="none" stroke="#9a32cd" stroke-dasharray="5,2" d="M1281.11,-451.78C1294.81,-451.1 1309.43,-450.48 1323,-450.13 1364.32,-449.08 1374.79,-447 1416,-450.13 1431.43,-451.31 1447.91,-453.34 1463.49,-455.63"/>
<polygon fill="#9a32cd" stroke="#9a32cd" points="1280.65,-448.3 1270.85,-452.31 1281.02,-455.29 1280.65,-448.3"/>
</a>
</g>
<text text-anchor="middle" x="1369.5" y="-453.13" font-family="Helvetica,sans-Serif" font-size="10.00" fill="grey"> xd</text>
</g>
<!-- Node24&#45;&gt;Node23 -->
<g id="edge28_Node000023_Node000024" class="edge">
<title>Node24&#45;&gt;Node23</title>
<g id="a_edge28_Node000023_Node000024"><a xlink:title=" ">
<path fill="none" stroke="#9a32cd" stroke-dasharray="5,2" d="M979.08,-566.36C987.14,-563.36 994.99,-559.68 1002,-555.13 1012.6,-548.26 1009.23,-539.74 1020,-533.13 1060.72,-508.15 1080.35,-527.12 1125,-510.13 1156.73,-498.06 1190.6,-476.99 1209.04,-464.73"/>
<polygon fill="#9a32cd" stroke="#9a32cd" points="977.92,-563.05 969.56,-569.56 980.16,-569.69 977.92,-563.05"/>
</a>
</g>
<text text-anchor="middle" x="1072.5" y="-536.13" font-family="Helvetica,sans-Serif" font-size="10.00" fill="grey"> xferDes_queue</text>
</g>
<!-- Node24&#45;&gt;Node31 -->
<g id="edge44_Node000031_Node000024" class="edge">
<title>Node24&#45;&gt;Node31</title>
<g id="a_edge44_Node000031_Node000024"><a xlink:title=" ">
<path fill="none" stroke="#9a32cd" stroke-dasharray="5,2" d="M985.32,-570.86C1030.54,-565.76 1090.15,-559.24 1143,-554.13 1264.2,-542.43 1299.26,-565.73 1416,-531.13 1451.73,-520.55 1488.99,-498.36 1511.73,-483.35"/>
<polygon fill="#9a32cd" stroke="#9a32cd" points="984.85,-567.39 975.31,-571.99 985.64,-574.34 984.85,-567.39"/>
</a>
</g>
<text text-anchor="middle" x="1224" y="-557.13" font-family="Helvetica,sans-Serif" font-size="10.00" fill="grey"> xferDes_queue</text>
</g>
<!-- Node25 -->
<g id="Node000025" class="node">
<title>Node25</title>
<g id="a_Node000025"><a xlink:href="classRealm_1_1atomic.html" target="_top" xlink:title=" ">
<polygon fill="white" stroke="#666666" points="654.5,-748.63 494.5,-748.63 494.5,-729.63 654.5,-729.63 654.5,-748.63"/>
<text text-anchor="middle" x="574.5" y="-736.63" font-family="Helvetica,sans-Serif" font-size="10.00">Realm::atomic&lt; XferDesID &gt;</text>
</a>
</g>
</g>
<!-- Node25&#45;&gt;Node24 -->
<g id="edge30_Node000024_Node000025" class="edge">
<title>Node25&#45;&gt;Node24</title>
<g id="a_edge30_Node000024_Node000025"><a xlink:title=" ">
<path fill="none" stroke="#9a32cd" stroke-dasharray="5,2" d="M598.06,-723.84C640.4,-695.76 735.4,-635.73 823,-601.13 835.66,-596.13 849.81,-592.01 863.01,-588.74"/>
<polygon fill="#9a32cd" stroke="#9a32cd" points="595.99,-721.01 589.62,-729.48 599.88,-726.83 595.99,-721.01"/>
</a>
</g>
<text text-anchor="middle" x="743.5" y="-672.13" font-family="Helvetica,sans-Serif" font-size="10.00" fill="grey"> next_to_assign_idx</text>
</g>
<!-- Node26 -->
<g id="Node000026" class="node">
<title>Node26</title>
<g id="a_Node000026"><a xlink:href="classRealm_1_1atomic.html" target="_top" xlink:title=" ">
<polygon fill="white" stroke="#666666" points="978,-422.63 847,-422.63 847,-403.63 978,-403.63 978,-422.63"/>
<text text-anchor="middle" x="912.5" y="-410.63" font-family="Helvetica,sans-Serif" font-size="10.00">Realm::atomic&lt; bool &gt;</text>
</a>
</g>
</g>
<!-- Node26&#45;&gt;Node23 -->
<g id="edge31_Node000023_Node000026" class="edge">
<title>Node26&#45;&gt;Node23</title>
<g id="a_edge31_Node000023_Node000026"><a xlink:title=" ">
<path fill="none" stroke="#9a32cd" stroke-dasharray="5,2" d="M988.27,-416.05C1028.92,-418.41 1079.95,-422.63 1125,-430.13 1147.34,-433.85 1172.05,-440.17 1191.07,-445.53"/>
<polygon fill="#9a32cd" stroke="#9a32cd" points="988.35,-412.55 978.18,-415.49 987.97,-419.54 988.35,-412.55"/>
</a>
</g>
<text text-anchor="middle" x="1072.5" y="-444.13" font-family="Helvetica,sans-Serif" font-size="10.00" fill="grey"> iteration_completed</text>
<text text-anchor="middle" x="1072.5" y="-433.13" font-family="Helvetica,sans-Serif" font-size="10.00" fill="grey">transfer_completed</text>
</g>
<!-- Node27 -->
<g id="Node000027" class="node">
<title>Node27</title>
<g id="a_Node000027"><a xlink:href="classRealm_1_1atomic.html" target="_top" xlink:title=" ">
<polygon fill="white" stroke="#666666" points="984.5,-385.63 840.5,-385.63 840.5,-366.63 984.5,-366.63 984.5,-385.63"/>
<text text-anchor="middle" x="912.5" y="-373.63" font-family="Helvetica,sans-Serif" font-size="10.00">Realm::atomic&lt; int64_t &gt;</text>
</a>
</g>
</g>
<!-- Node27&#45;&gt;Node23 -->
<g id="edge32_Node000023_Node000027" class="edge">
<title>Node27&#45;&gt;Node23</title>
<g id="a_edge32_Node000023_Node000027"><a xlink:title=" ">
<path fill="none" stroke="#9a32cd" stroke-dasharray="5,2" d="M995.07,-380.28C1034.96,-383.98 1083.25,-390.96 1125,-404.13 1156.46,-414.06 1189.88,-433.67 1208.43,-445.47"/>
<polygon fill="#9a32cd" stroke="#9a32cd" points="995.12,-376.78 984.85,-379.39 994.51,-383.75 995.12,-376.78"/>
</a>
</g>
<text text-anchor="middle" x="1072.5" y="-407.13" font-family="Helvetica,sans-Serif" font-size="10.00" fill="grey"> bytes_write_pending</text>
</g>
<!-- Node28 -->
<g id="Node000028" class="node">
<title>Node28</title>
<g id="a_Node000028"><a xlink:href="structRealm_1_1XferDes_1_1ControlPortState.html" target="_top" xlink:title=" ">
<polygon fill="white" stroke="#666666" points="989.5,-471.13 835.5,-471.13 835.5,-441.13 989.5,-441.13 989.5,-471.13"/>
<text text-anchor="start" x="843.5" y="-459.13" font-family="Helvetica,sans-Serif" font-size="10.00">Realm::XferDes::ControlPort</text>
<text text-anchor="middle" x="912.5" y="-448.13" font-family="Helvetica,sans-Serif" font-size="10.00">State</text>
</a>
</g>
</g>
<!-- Node28&#45;&gt;Node23 -->
<g id="edge33_Node000023_Node000028" class="edge">
<title>Node28&#45;&gt;Node23</title>
<g id="a_edge33_Node000023_Node000028"><a xlink:title=" ">
<path fill="none" stroke="#9a32cd" stroke-dasharray="5,2" d="M999.8,-455.86C1057.41,-455.67 1130.87,-455.43 1177.43,-455.28"/>
<polygon fill="#9a32cd" stroke="#9a32cd" points="999.6,-452.36 989.61,-455.89 999.62,-459.36 999.6,-452.36"/>
</a>
</g>
<text text-anchor="middle" x="1072.5" y="-470.13" font-family="Helvetica,sans-Serif" font-size="10.00" fill="grey"> input_control</text>
<text text-anchor="middle" x="1072.5" y="-459.13" font-family="Helvetica,sans-Serif" font-size="10.00" fill="grey">output_control</text>
</g>
<!-- Node29 -->
<g id="Node000029" class="node">
<title>Node29</title>
<g id="a_Node000029"><a xlink:href="classRealm_1_1ControlPort_1_1Decoder.html" target="_top" xlink:title=" ">
<polygon fill="white" stroke="#666666" points="629,-471.13 520,-471.13 520,-441.13 629,-441.13 629,-471.13"/>
<text text-anchor="start" x="528" y="-459.13" font-family="Helvetica,sans-Serif" font-size="10.00">Realm::ControlPort</text>
<text text-anchor="middle" x="574.5" y="-448.13" font-family="Helvetica,sans-Serif" font-size="10.00">::Decoder</text>
</a>
</g>
</g>
<!-- Node29&#45;&gt;Node28 -->
<g id="edge34_Node000028_Node000029" class="edge">
<title>Node29&#45;&gt;Node28</title>
<g id="a_edge34_Node000028_Node000029"><a xlink:title=" ">
<path fill="none" stroke="#9a32cd" stroke-dasharray="5,2" d="M639.22,-456.13C694.97,-456.13 776.07,-456.13 835.25,-456.13"/>
<polygon fill="#9a32cd" stroke="#9a32cd" points="639.11,-452.63 629.11,-456.13 639.11,-459.63 639.11,-452.63"/>
</a>
</g>
<text text-anchor="middle" x="743.5" y="-459.13" font-family="Helvetica,sans-Serif" font-size="10.00" fill="grey"> decoder</text>
</g>
<!-- Node30&#45;&gt;Node23 -->
<g id="edge38_Node000023_Node000030" class="edge">
<title>Node30&#45;&gt;Node23</title>
<g id="a_edge38_Node000023_Node000030"><a xlink:title=" ">
<path fill="none" stroke="#9a32cd" stroke-dasharray="5,2" d="M1477.11,-360.65C1433.5,-350.21 1372.42,-342.42 1323,-362.13 1279.86,-379.34 1244.83,-425.57 1231.17,-445.63"/>
<polygon fill="#9a32cd" stroke="#9a32cd" points="1476.41,-364.09 1486.96,-363.13 1478.12,-357.3 1476.41,-364.09"/>
</a>
</g>
<text text-anchor="middle" x="1369.5" y="-365.13" font-family="Helvetica,sans-Serif" font-size="10.00" fill="grey"> xd_link</text>
</g>
<!-- Node31&#45;&gt;Node23 -->
<g id="edge40_Node000023_Node000031" class="edge">
<title>Node31&#45;&gt;Node23</title>
<g id="a_edge40_Node000023_Node000031"><a xlink:title=" ">
<path fill="none" stroke="#9a32cd" stroke-dasharray="5,2" d="M1453.24,-467.31C1413.96,-466.64 1365.98,-465.4 1323,-463.13 1305.95,-462.24 1287.27,-460.82 1270.83,-459.43"/>
<polygon fill="#9a32cd" stroke="#9a32cd" points="1453.24,-470.82 1463.29,-467.48 1453.35,-463.82 1453.24,-470.82"/>
</a>
</g>
<text text-anchor="middle" x="1369.5" y="-470.13" font-family="Helvetica,sans-Serif" font-size="10.00" fill="grey"> deferred_enqueue</text>
</g>
<!-- Node32 -->
<g id="Node000032" class="node">
<title>Node32</title>
<g id="a_Node000032"><a xlink:href="classRealm_1_1EventWaiter.html" target="_top" xlink:title=" ">
<polygon fill="white" stroke="#666666" points="1280.5,-216.63 1167.5,-216.63 1167.5,-197.63 1280.5,-197.63 1280.5,-216.63"/>
<text text-anchor="middle" x="1224" y="-204.63" font-family="Helvetica,sans-Serif" font-size="10.00">Realm::EventWaiter</text>
</a>
</g>
</g>
<!-- Node32&#45;&gt;Node31 -->
<g id="edge41_Node000031_Node000032" class="edge">
<title>Node32&#45;&gt;Node31</title>
<g id="a_edge41_Node000031_Node000032"><a xlink:title=" ">
<path fill="none" stroke="#63b8ff" d="M1255.05,-221.3C1297.08,-242.6 1373.07,-286.8 1416,-346.13 1431.32,-367.31 1418.22,-381.29 1434,-402.13 1451.02,-424.61 1478.04,-441.83 1499.63,-453.04"/>
<polygon fill="#63b8ff" stroke="#63b8ff" points="1256.4,-218.06 1245.88,-216.74 1253.28,-224.33 1256.4,-218.06"/>
</a>
</g>
</g>
<!-- Node33 -->
<g id="Node000033" class="node">
<title>Node33</title>
<g id="a_Node000033"><a xlink:href="structRealm_1_1IntrusiveListLink.html" target="_top" xlink:title=" ">
<polygon fill="white" stroke="#666666" points="1602.5,-205.13 1466.5,-205.13 1466.5,-175.13 1602.5,-175.13 1602.5,-205.13"/>
<text text-anchor="start" x="1474.5" y="-193.13" font-family="Helvetica,sans-Serif" font-size="10.00">Realm::IntrusiveListLink</text>
<text text-anchor="middle" x="1534.5" y="-182.13" font-family="Helvetica,sans-Serif" font-size="10.00">&lt; Realm::EventWaiter &gt;</text>
</a>
</g>
</g>
<!-- Node32&#45;&gt;Node33 -->
<g id="edge43_Node000033_Node000032" class="edge">
<title>Node32&#45;&gt;Node33</title>
<g id="a_edge43_Node000033_Node000032"><a xlink:title=" ">
<path fill="none" stroke="#9a32cd" stroke-dasharray="5,2" d="M1290.58,-203.52C1342.31,-200.67 1414.2,-196.71 1466.34,-193.84"/>
<polygon fill="#9a32cd" stroke="#9a32cd" points="1290.3,-200.03 1280.51,-204.08 1290.69,-207.02 1290.3,-200.03"/>
</a>
</g>
<text text-anchor="middle" x="1369.5" y="-205.13" font-family="Helvetica,sans-Serif" font-size="10.00" fill="grey"> next</text>
</g>
<!-- Node33&#45;&gt;Node32 -->
<g id="edge42_Node000032_Node000033" class="edge">
<title>Node33&#45;&gt;Node32</title>
<g id="a_edge42_Node000032_Node000033"><a xlink:title=" ">
<path fill="none" stroke="#9a32cd" stroke-dasharray="5,2" d="M1456.36,-175.53C1416.37,-170.16 1366.85,-166.95 1323,-174.13 1295.89,-178.58 1266.18,-189.5 1246.66,-197.56"/>
<polygon fill="#9a32cd" stroke="#9a32cd" points="1455.92,-179 1466.31,-176.93 1456.9,-172.07 1455.92,-179"/>
</a>
</g>
<text text-anchor="middle" x="1369.5" y="-177.13" font-family="Helvetica,sans-Serif" font-size="10.00" fill="grey"> ew_list_link</text>
</g>
</g>
</svg>
