<?xml version="1.0" encoding="UTF-8" standalone="no"?>
<!DOCTYPE svg PUBLIC "-//W3C//DTD SVG 1.1//EN"
 "http://www.w3.org/Graphics/SVG/1.1/DTD/svg11.dtd">
<!-- Generated by graphviz version 2.43.0 (0)
 -->
<!-- Title: Realm::Cuda::GPUIndirectRemoteChannelInfo Pages: 1 -->
<svg width="1066pt" height="149pt"
 viewBox="0.00 0.00 1066.00 148.50" xmlns="http://www.w3.org/2000/svg" xmlns:xlink="http://www.w3.org/1999/xlink">
<g id="graph0" class="graph" transform="scale(1 1) rotate(0) translate(4 144.5)">
<title>Realm::Cuda::GPUIndirectRemoteChannelInfo</title>
<!-- Node1 -->
<g id="Node000001" class="node">
<title>Node1</title>
<g id="a_Node000001"><a xlink:title=" ">
<polygon fill="#999999" stroke="#666666" points="1058,-64 915,-64 915,-34 1058,-34 1058,-64"/>
<text text-anchor="start" x="923" y="-52" font-family="Helvetica,sans-Serif" font-size="10.00">Realm::Cuda::GPUIndirect</text>
<text text-anchor="middle" x="986.5" y="-41" font-family="Helvetica,sans-Serif" font-size="10.00">RemoteChannelInfo</text>
</a>
</g>
</g>
<!-- Node2 -->
<g id="Node000002" class="node">
<title>Node2</title>
<g id="a_Node000002"><a xlink:href="classRealm_1_1SimpleRemoteChannelInfo.html" target="_top" xlink:title=" ">
<polygon fill="white" stroke="#666666" points="878,-86.5 693,-86.5 693,-67.5 878,-67.5 878,-86.5"/>
<text text-anchor="middle" x="785.5" y="-74.5" font-family="Helvetica,sans-Serif" font-size="10.00">Realm::SimpleRemoteChannelInfo</text>
</a>
</g>
</g>
<!-- Node2&#45;&gt;Node1 -->
<g id="edge1_Node000001_Node000002" class="edge">
<title>Node2&#45;&gt;Node1</title>
<g id="a_edge1_Node000001_Node000002"><a xlink:title=" ">
<path fill="none" stroke="#63b8ff" d="M864.4,-66.04C881.08,-63.69 898.6,-61.23 914.98,-58.92"/>
<polygon fill="#63b8ff" stroke="#63b8ff" points="863.56,-62.62 854.15,-67.48 864.54,-69.55 863.56,-62.62"/>
</a>
</g>
</g>
<!-- Node3 -->
<g id="Node000003" class="node">
<title>Node3</title>
<g id="a_Node000003"><a xlink:href="classRealm_1_1RemoteChannelInfo.html" target="_top" xlink:title=" ">
<polygon fill="white" stroke="#666666" points="379,-140.5 228,-140.5 228,-121.5 379,-121.5 379,-140.5"/>
<text text-anchor="middle" x="303.5" y="-128.5" font-family="Helvetica,sans-Serif" font-size="10.00">Realm::RemoteChannelInfo</text>
</a>
</g>
</g>
<!-- Node3&#45;&gt;Node2 -->
<g id="edge2_Node000002_Node000003" class="edge">
<title>Node3&#45;&gt;Node2</title>
<g id="a_edge2_Node000002_Node000003"><a xlink:title=" ">
<path fill="none" stroke="#63b8ff" d="M389.44,-122.82C464.59,-115.4 577.19,-103.84 675,-92 688.72,-90.34 703.38,-88.43 717.37,-86.53"/>
<polygon fill="#63b8ff" stroke="#63b8ff" points="388.7,-119.38 379.09,-123.84 389.38,-126.34 388.7,-119.38"/>
</a>
</g>
</g>
<!-- Node4 -->
<g id="Node000004" class="node">
<title>Node4</title>
<g id="a_Node000004"><a xlink:href="classRealm_1_1Serialization_1_1PolymorphicSerdezSubclass.html" target="_top" xlink:title=" ">
<polygon fill="white" stroke="#666666" points="403,-103 204,-103 204,-51 403,-51 403,-103"/>
<text text-anchor="start" x="212" y="-91" font-family="Helvetica,sans-Serif" font-size="10.00">Realm::Serialization</text>
<text text-anchor="start" x="212" y="-80" font-family="Helvetica,sans-Serif" font-size="10.00">::PolymorphicSerdezSubclass</text>
<text text-anchor="start" x="212" y="-69" font-family="Helvetica,sans-Serif" font-size="10.00">&lt; Realm::RemoteChannelInfo,</text>
<text text-anchor="middle" x="303.5" y="-58" font-family="Helvetica,sans-Serif" font-size="10.00"> Realm::SimpleRemoteChannelInfo &gt;</text>
</a>
</g>
</g>
<!-- Node4&#45;&gt;Node2 -->
<g id="edge3_Node000002_Node000004" class="edge">
<title>Node4&#45;&gt;Node2</title>
<g id="a_edge3_Node000002_Node000004"><a xlink:title=" ">
<path fill="none" stroke="#9a32cd" stroke-dasharray="5,2" d="M413.21,-77C497.6,-77 613.26,-77 692.95,-77"/>
<polygon fill="#9a32cd" stroke="#9a32cd" points="413.08,-73.5 403.08,-77 413.08,-80.5 413.08,-73.5"/>
</a>
</g>
<text text-anchor="middle" x="548" y="-80" font-family="Helvetica,sans-Serif" font-size="10.00" fill="grey"> serdez_subclass</text>
</g>
<!-- Node5 -->
<g id="Node000005" class="node">
<title>Node5</title>
<g id="a_Node000005"><a xlink:href="classRealm_1_1Serialization_1_1PolymorphicSerdezIntfc.html" target="_top" xlink:title=" ">
<polygon fill="white" stroke="#666666" points="167,-50 0,-50 0,-20 167,-20 167,-50"/>
<text text-anchor="start" x="8" y="-38" font-family="Helvetica,sans-Serif" font-size="10.00">Realm::Serialization</text>
<text text-anchor="middle" x="83.5" y="-27" font-family="Helvetica,sans-Serif" font-size="10.00">::PolymorphicSerdezIntfc&lt; T &gt;</text>
</a>
</g>
</g>
<!-- Node5&#45;&gt;Node4 -->
<g id="edge4_Node000004_Node000005" class="edge">
<title>Node5&#45;&gt;Node4</title>
<g id="a_edge4_Node000004_Node000005"><a xlink:title=" ">
<path fill="none" stroke="#63b8ff" d="M172.69,-51.99C182.88,-53.95 193.33,-55.97 203.66,-57.96"/>
<polygon fill="#63b8ff" stroke="#63b8ff" points="173.07,-48.5 162.59,-50.04 171.74,-55.37 173.07,-48.5"/>
</a>
</g>
</g>
<!-- Node6 -->
<g id="Node000006" class="node">
<title>Node6</title>
<g id="a_Node000006"><a xlink:href="classRealm_1_1Serialization_1_1PolymorphicSerdezSubclass.html" target="_top" xlink:title=" ">
<polygon fill="white" stroke="#666666" points="675,-52 421,-52 421,0 675,0 675,-52"/>
<text text-anchor="start" x="429" y="-40" font-family="Helvetica,sans-Serif" font-size="10.00">Realm::Serialization</text>
<text text-anchor="start" x="429" y="-29" font-family="Helvetica,sans-Serif" font-size="10.00">::PolymorphicSerdezSubclass</text>
<text text-anchor="start" x="429" y="-18" font-family="Helvetica,sans-Serif" font-size="10.00">&lt; Realm::RemoteChannelInfo,</text>
<text text-anchor="middle" x="548" y="-7" font-family="Helvetica,sans-Serif" font-size="10.00"> Realm::Cuda::GPUIndirectRemoteChannelInfo &gt;</text>
</a>
</g>
</g>
<!-- Node5&#45;&gt;Node6 -->
<g id="edge6_Node000006_Node000005" class="edge">
<title>Node5&#45;&gt;Node6</title>
<g id="a_edge6_Node000006_Node000005"><a xlink:title=" ">
<path fill="none" stroke="#63b8ff" d="M177.29,-33.19C247.14,-31.84 343.66,-29.96 420.57,-28.46"/>
<polygon fill="#63b8ff" stroke="#63b8ff" points="177.12,-29.7 167.19,-33.39 177.25,-36.7 177.12,-29.7"/>
</a>
</g>
</g>
<!-- Node6&#45;&gt;Node1 -->
<g id="edge5_Node000001_Node000006" class="edge">
<title>Node6&#45;&gt;Node1</title>
<g id="a_edge5_Node000001_Node000006"><a xlink:title=" ">
<path fill="none" stroke="#9a32cd" stroke-dasharray="5,2" d="M685.4,-33.19C761.47,-37.2 853.04,-42.02 914.87,-45.28"/>
<polygon fill="#9a32cd" stroke="#9a32cd" points="685.42,-29.68 675.25,-32.65 685.06,-36.67 685.42,-29.68"/>
</a>
</g>
<text text-anchor="middle" x="785.5" y="-47" font-family="Helvetica,sans-Serif" font-size="10.00" fill="grey"> serdez_subclass</text>
</g>
</g>
</svg>
