<?xml version="1.0" encoding="UTF-8" standalone="no"?>
<!DOCTYPE svg PUBLIC "-//W3C//DTD SVG 1.1//EN"
 "http://www.w3.org/Graphics/SVG/1.1/DTD/svg11.dtd">
<!-- Generated by graphviz version 2.43.0 (0)
 -->
<!-- Title: Realm::SequenceAssembler Pages: 1 -->
<svg width="296pt" height="115pt"
 viewBox="0.00 0.00 296.00 115.00" xmlns="http://www.w3.org/2000/svg" xmlns:xlink="http://www.w3.org/1999/xlink">
<g id="graph0" class="graph" transform="scale(1 1) rotate(0) translate(4 111)">
<title>Realm::SequenceAssembler</title>
<!-- Node1 -->
<g id="Node000001" class="node">
<title>Node1</title>
<g id="a_Node000001"><a xlink:title=" ">
<polygon fill="#999999" stroke="#666666" points="222,-19 69,-19 69,0 222,0 222,-19"/>
<text text-anchor="middle" x="145.5" y="-7" font-family="Helvetica,sans-Serif" font-size="10.00">Realm::SequenceAssembler</text>
</a>
</g>
</g>
<!-- Node2 -->
<g id="Node000002" class="node">
<title>Node2</title>
<g id="a_Node000002"><a xlink:href="classRealm_1_1atomic.html" target="_top" xlink:title=" ">
<polygon fill="white" stroke="#666666" points="139,-101.5 0,-101.5 0,-82.5 139,-82.5 139,-101.5"/>
<text text-anchor="middle" x="69.5" y="-89.5" font-family="Helvetica,sans-Serif" font-size="10.00">Realm::atomic&lt; size_t &gt;</text>
</a>
</g>
</g>
<!-- Node2&#45;&gt;Node1 -->
<g id="edge1_Node000001_Node000002" class="edge">
<title>Node2&#45;&gt;Node1</title>
<g id="a_edge1_Node000001_Node000002"><a xlink:title=" ">
<path fill="none" stroke="#9a32cd" stroke-dasharray="5,2" d="M79.26,-73.36C86,-62.16 95.66,-47.79 106.5,-37 113.46,-30.07 122.46,-23.81 130.07,-19.12"/>
<polygon fill="#9a32cd" stroke="#9a32cd" points="76.12,-71.81 74.14,-82.22 82.18,-75.32 76.12,-71.81"/>
</a>
</g>
<text text-anchor="middle" x="153.5" y="-51" font-family="Helvetica,sans-Serif" font-size="10.00" fill="grey"> contig_amount_x2</text>
<text text-anchor="middle" x="153.5" y="-40" font-family="Helvetica,sans-Serif" font-size="10.00" fill="grey">first_noncontig</text>
</g>
<!-- Node3 -->
<g id="Node000003" class="node">
<title>Node3</title>
<g id="a_Node000003"><a xlink:href="classRealm_1_1atomic.html" target="_top" xlink:title=" ">
<polygon fill="white" stroke="#666666" points="288,-107 157,-107 157,-77 288,-77 288,-107"/>
<text text-anchor="start" x="165" y="-95" font-family="Helvetica,sans-Serif" font-size="10.00">Realm::atomic&lt; Realm</text>
<text text-anchor="middle" x="222.5" y="-84" font-family="Helvetica,sans-Serif" font-size="10.00">::UnfairMutex * &gt;</text>
</a>
</g>
</g>
<!-- Node3&#45;&gt;Node1 -->
<g id="edge2_Node000001_Node000003" class="edge">
<title>Node3&#45;&gt;Node1</title>
<g id="a_edge2_Node000001_Node000003"><a xlink:title=" ">
<path fill="none" stroke="#9a32cd" stroke-dasharray="5,2" d="M216.86,-66.94C213.49,-56.73 208.3,-45.3 200.5,-37 193.02,-29.04 182.66,-23.2 172.94,-19.06"/>
<polygon fill="#9a32cd" stroke="#9a32cd" points="213.51,-67.95 219.66,-76.58 220.24,-66 213.51,-67.95"/>
</a>
</g>
<text text-anchor="middle" x="231" y="-45.5" font-family="Helvetica,sans-Serif" font-size="10.00" fill="grey"> mutex</text>
</g>
</g>
</svg>
