<?xml version="1.0" encoding="UTF-8" standalone="no"?>
<!DOCTYPE svg PUBLIC "-//W3C//DTD SVG 1.1//EN"
 "http://www.w3.org/Graphics/SVG/1.1/DTD/svg11.dtd">
<!-- Generated by graphviz version 2.43.0 (0)
 -->
<!-- Title: Realm::RemoteChannel Pages: 1 -->
<svg width="483pt" height="134pt"
 viewBox="0.00 0.00 483.00 134.00" xmlns="http://www.w3.org/2000/svg" xmlns:xlink="http://www.w3.org/1999/xlink">
<g id="graph0" class="graph" transform="scale(1 1) rotate(0) translate(4 130)">
<title>Realm::RemoteChannel</title>
<!-- Node1 -->
<g id="Node000001" class="node">
<title>Node1</title>
<g id="a_Node000001"><a xlink:title=" ">
<polygon fill="#999999" stroke="#666666" points="262,-72.5 130,-72.5 130,-53.5 262,-53.5 262,-72.5"/>
<text text-anchor="middle" x="196" y="-60.5" font-family="Helvetica,sans-Serif" font-size="10.00">Realm::RemoteChannel</text>
</a>
</g>
</g>
<!-- Node3 -->
<g id="Node000003" class="node">
<title>Node3</title>
<g id="a_Node000003"><a xlink:href="classRealm_1_1Cuda_1_1GPUIndirectRemoteChannel.html" target="_top" xlink:title=" ">
<polygon fill="white" stroke="#666666" points="458,-126 315,-126 315,-96 458,-96 458,-126"/>
<text text-anchor="start" x="323" y="-114" font-family="Helvetica,sans-Serif" font-size="10.00">Realm::Cuda::GPUIndirect</text>
<text text-anchor="middle" x="386.5" y="-103" font-family="Helvetica,sans-Serif" font-size="10.00">RemoteChannel</text>
</a>
</g>
</g>
<!-- Node1&#45;&gt;Node3 -->
<g id="edge2_Node000001_Node000003" class="edge">
<title>Node1&#45;&gt;Node3</title>
<g id="a_edge2_Node000001_Node000003"><a xlink:title=" ">
<path fill="none" stroke="#63b8ff" d="M244.6,-75.12C269.42,-81.44 300.01,-89.23 326.35,-95.94"/>
<polygon fill="#63b8ff" stroke="#63b8ff" points="245.25,-71.67 234.69,-72.6 243.52,-78.46 245.25,-71.67"/>
</a>
</g>
</g>
<!-- Node4 -->
<g id="Node000004" class="node">
<title>Node4</title>
<g id="a_Node000004"><a xlink:href="classRealm_1_1Cuda_1_1GPUreduceRemoteChannel.html" target="_top" xlink:title=" ">
<polygon fill="white" stroke="#666666" points="475,-78 298,-78 298,-48 475,-48 475,-78"/>
<text text-anchor="start" x="306" y="-66" font-family="Helvetica,sans-Serif" font-size="10.00">Realm::Cuda::GPUreduceRemote</text>
<text text-anchor="middle" x="386.5" y="-55" font-family="Helvetica,sans-Serif" font-size="10.00">Channel</text>
</a>
</g>
</g>
<!-- Node1&#45;&gt;Node4 -->
<g id="edge3_Node000001_Node000004" class="edge">
<title>Node1&#45;&gt;Node4</title>
<g id="a_edge3_Node000001_Node000004"><a xlink:title=" ">
<path fill="none" stroke="#63b8ff" d="M272.24,-63C280.63,-63 289.23,-63 297.75,-63"/>
<polygon fill="#63b8ff" stroke="#63b8ff" points="272.13,-59.5 262.13,-63 272.13,-66.5 272.13,-59.5"/>
</a>
</g>
</g>
<!-- Node5 -->
<g id="Node000005" class="node">
<title>Node5</title>
<g id="a_Node000005"><a xlink:href="classRealm_1_1Hip_1_1GPUreduceRemoteChannel.html" target="_top" xlink:title=" ">
<polygon fill="white" stroke="#666666" points="471,-30 302,-30 302,0 471,0 471,-30"/>
<text text-anchor="start" x="310" y="-18" font-family="Helvetica,sans-Serif" font-size="10.00">Realm::Hip::GPUreduceRemote</text>
<text text-anchor="middle" x="386.5" y="-7" font-family="Helvetica,sans-Serif" font-size="10.00">Channel</text>
</a>
</g>
</g>
<!-- Node1&#45;&gt;Node5 -->
<g id="edge4_Node000001_Node000005" class="edge">
<title>Node1&#45;&gt;Node5</title>
<g id="a_edge4_Node000001_Node000005"><a xlink:title=" ">
<path fill="none" stroke="#63b8ff" d="M244.6,-50.88C269.42,-44.56 300.01,-36.77 326.35,-30.06"/>
<polygon fill="#63b8ff" stroke="#63b8ff" points="243.52,-47.54 234.69,-53.4 245.25,-54.33 243.52,-47.54"/>
</a>
</g>
</g>
<!-- Node2 -->
<g id="Node000002" class="node">
<title>Node2</title>
<g id="a_Node000002"><a xlink:href="classRealm_1_1Channel.html" target="_top" xlink:title=" ">
<polygon fill="white" stroke="#666666" points="94,-72.5 0,-72.5 0,-53.5 94,-53.5 94,-72.5"/>
<text text-anchor="middle" x="47" y="-60.5" font-family="Helvetica,sans-Serif" font-size="10.00">Realm::Channel</text>
</a>
</g>
</g>
<!-- Node2&#45;&gt;Node1 -->
<g id="edge1_Node000001_Node000002" class="edge">
<title>Node2&#45;&gt;Node1</title>
<g id="a_edge1_Node000001_Node000002"><a xlink:title=" ">
<path fill="none" stroke="#63b8ff" d="M104.19,-63C112.61,-63 121.35,-63 129.94,-63"/>
<polygon fill="#63b8ff" stroke="#63b8ff" points="104.11,-59.5 94.11,-63 104.11,-66.5 104.11,-59.5"/>
</a>
</g>
</g>
</g>
</svg>
