<?xml version="1.0" encoding="UTF-8" standalone="no"?>
<!DOCTYPE svg PUBLIC "-//W3C//DTD SVG 1.1//EN"
 "http://www.w3.org/Graphics/SVG/1.1/DTD/svg11.dtd">
<!-- Generated by graphviz version 2.43.0 (0)
 -->
<!-- Title: Realm::OutbufUsecountDec Pages: 1 -->
<svg width="1085pt" height="567pt"
 viewBox="0.00 0.00 1085.00 567.49" xmlns="http://www.w3.org/2000/svg" xmlns:xlink="http://www.w3.org/1999/xlink">
<g id="graph0" class="graph" transform="scale(1 1) rotate(0) translate(4 563.49)">
<title>Realm::OutbufUsecountDec</title>
<!-- Node1 -->
<g id="Node000001" class="node">
<title>Node1</title>
<g id="a_Node000001"><a xlink:title=" ">
<polygon fill="#999999" stroke="#666666" points="1063.5,-559.49 911.5,-559.49 911.5,-540.49 1063.5,-540.49 1063.5,-559.49"/>
<text text-anchor="middle" x="987.5" y="-547.49" font-family="Helvetica,sans-Serif" font-size="10.00">Realm::OutbufUsecountDec</text>
</a>
</g>
</g>
<!-- Node2 -->
<g id="Node000002" class="node">
<title>Node2</title>
<g id="a_Node000002"><a xlink:href="classRealm_1_1OutbufMetadata.html" target="_top" xlink:title=" ">
<polygon fill="white" stroke="#666666" points="716.5,-492.49 582.5,-492.49 582.5,-473.49 716.5,-473.49 716.5,-492.49"/>
<text text-anchor="middle" x="649.5" y="-480.49" font-family="Helvetica,sans-Serif" font-size="10.00">Realm::OutbufMetadata</text>
</a>
</g>
</g>
<!-- Node2&#45;&gt;Node1 -->
<g id="edge1_Node000001_Node000002" class="edge">
<title>Node2&#45;&gt;Node1</title>
<g id="a_edge1_Node000001_Node000002"><a xlink:title=" ">
<path fill="none" stroke="#9a32cd" stroke-dasharray="5,2" d="M677.37,-497.05C698.44,-507.4 728.82,-520.87 757,-527.99 807.54,-540.77 866.06,-546.24 911.36,-548.54"/>
<polygon fill="#9a32cd" stroke="#9a32cd" points="678.89,-493.9 668.38,-492.55 675.75,-500.16 678.89,-493.9"/>
</a>
</g>
<text text-anchor="middle" x="818.5" y="-549.99" font-family="Helvetica,sans-Serif" font-size="10.00" fill="grey"> md</text>
</g>
<!-- Node2&#45;&gt;Node2 -->
<g id="edge21_Node000002_Node000002" class="edge">
<title>Node2&#45;&gt;Node2</title>
<g id="a_edge21_Node000002_Node000002"><a xlink:title=" ">
<path fill="none" stroke="#9a32cd" stroke-dasharray="5,2" d="M619.26,-501.31C620.52,-506.5 630.6,-510.49 649.5,-510.49 678.29,-510.49 686.62,-501.23 674.47,-492.58"/>
<polygon fill="#9a32cd" stroke="#9a32cd" points="622.36,-502.95 624.53,-492.58 616.37,-499.33 622.36,-502.95"/>
</a>
</g>
<text text-anchor="middle" x="649.5" y="-524.49" font-family="Helvetica,sans-Serif" font-size="10.00" fill="grey"> next_overflow</text>
<text text-anchor="middle" x="649.5" y="-513.49" font-family="Helvetica,sans-Serif" font-size="10.00" fill="grey">nextbuf</text>
</g>
<!-- Node3 -->
<g id="Node000003" class="node">
<title>Node3</title>
<g id="a_Node000003"><a xlink:href="classRealm_1_1OutbufManager.html" target="_top" xlink:title=" ">
<polygon fill="white" stroke="#666666" points="1052.5,-417.49 922.5,-417.49 922.5,-398.49 1052.5,-398.49 1052.5,-417.49"/>
<text text-anchor="middle" x="987.5" y="-405.49" font-family="Helvetica,sans-Serif" font-size="10.00">Realm::OutbufManager</text>
</a>
</g>
</g>
<!-- Node2&#45;&gt;Node3 -->
<g id="edge19_Node000003_Node000002" class="edge">
<title>Node2&#45;&gt;Node3</title>
<g id="a_edge19_Node000003_Node000002"><a xlink:title=" ">
<path fill="none" stroke="#9a32cd" stroke-dasharray="5,2" d="M726.56,-472.95C787.53,-464.75 865.26,-453.9 880,-449.99 910.93,-441.79 945.08,-427.29 966.16,-417.66"/>
<polygon fill="#9a32cd" stroke="#9a32cd" points="726,-469.49 716.55,-474.29 726.93,-476.43 726,-469.49"/>
</a>
</g>
<text text-anchor="middle" x="818.5" y="-515.99" font-family="Helvetica,sans-Serif" font-size="10.00" fill="grey"> first_available</text>
<text text-anchor="middle" x="818.5" y="-504.99" font-family="Helvetica,sans-Serif" font-size="10.00" fill="grey">metadatas</text>
<text text-anchor="middle" x="818.5" y="-493.99" font-family="Helvetica,sans-Serif" font-size="10.00" fill="grey">overflow_head</text>
<text text-anchor="middle" x="818.5" y="-482.99" font-family="Helvetica,sans-Serif" font-size="10.00" fill="grey">overflow_tail</text>
<text text-anchor="middle" x="818.5" y="-471.99" font-family="Helvetica,sans-Serif" font-size="10.00" fill="grey">reserved_head</text>
</g>
<!-- Node3&#45;&gt;Node2 -->
<g id="edge2_Node000002_Node000003" class="edge">
<title>Node3&#45;&gt;Node2</title>
<g id="a_edge2_Node000002_Node000003"><a xlink:title=" ">
<path fill="none" stroke="#9a32cd" stroke-dasharray="5,2" d="M912.25,-413.15C866.84,-417.49 807.89,-425.29 757,-438.99 725.32,-447.52 690.52,-463.18 669.6,-473.34"/>
<polygon fill="#9a32cd" stroke="#9a32cd" points="912.67,-416.62 922.31,-412.22 912.03,-409.65 912.67,-416.62"/>
</a>
</g>
<text text-anchor="middle" x="818.5" y="-441.99" font-family="Helvetica,sans-Serif" font-size="10.00" fill="grey"> manager</text>
</g>
<!-- Node4 -->
<g id="Node000004" class="node">
<title>Node4</title>
<g id="a_Node000004"><a xlink:href="classRealm_1_1BackgroundWorkItem.html" target="_top" xlink:title=" ">
<polygon fill="white" stroke="#666666" points="729,-295.49 570,-295.49 570,-276.49 729,-276.49 729,-295.49"/>
<text text-anchor="middle" x="649.5" y="-283.49" font-family="Helvetica,sans-Serif" font-size="10.00">Realm::BackgroundWorkItem</text>
</a>
</g>
</g>
<!-- Node4&#45;&gt;Node3 -->
<g id="edge3_Node000003_Node000004" class="edge">
<title>Node4&#45;&gt;Node3</title>
<g id="a_edge3_Node000003_Node000004"><a xlink:title=" ">
<path fill="none" stroke="#63b8ff" d="M738.76,-296.94C792.29,-304.44 854.96,-314.98 880,-325.99 920.8,-343.94 960,-380.75 977.28,-398.29"/>
<polygon fill="#63b8ff" stroke="#63b8ff" points="738.92,-293.43 728.54,-295.53 737.97,-300.37 738.92,-293.43"/>
</a>
</g>
</g>
<!-- Node5 -->
<g id="Node000005" class="node">
<title>Node5</title>
<g id="a_Node000005"><a xlink:href="classRealm_1_1BackgroundWorkManager.html" target="_top" xlink:title=" ">
<polygon fill="white" stroke="#666666" points="1077,-210.49 898,-210.49 898,-191.49 1077,-191.49 1077,-210.49"/>
<text text-anchor="middle" x="987.5" y="-198.49" font-family="Helvetica,sans-Serif" font-size="10.00">Realm::BackgroundWorkManager</text>
</a>
</g>
</g>
<!-- Node4&#45;&gt;Node5 -->
<g id="edge14_Node000005_Node000004" class="edge">
<title>Node4&#45;&gt;Node5</title>
<g id="a_edge14_Node000005_Node000004"><a xlink:title=" ">
<path fill="none" stroke="#9a32cd" stroke-dasharray="5,2" d="M739.48,-286.46C782.79,-284.44 835.08,-278.63 880,-263.99 917.18,-251.89 955.32,-225.15 974.27,-210.71"/>
<polygon fill="#9a32cd" stroke="#9a32cd" points="739.09,-282.97 729.24,-286.88 739.38,-289.97 739.09,-282.97"/>
</a>
</g>
<text text-anchor="middle" x="818.5" y="-288.99" font-family="Helvetica,sans-Serif" font-size="10.00" fill="grey"> work_items</text>
</g>
<!-- Node5&#45;&gt;Node4 -->
<g id="edge4_Node000004_Node000005" class="edge">
<title>Node5&#45;&gt;Node4</title>
<g id="a_edge4_Node000004_Node000005"><a xlink:title=" ">
<path fill="none" stroke="#9a32cd" stroke-dasharray="5,2" d="M944.26,-213.34C924.79,-218.82 901.31,-225.11 880,-229.99 825.79,-242.42 810.98,-239.63 757,-252.99 729.94,-259.69 699.63,-269.3 678.28,-276.42"/>
<polygon fill="#9a32cd" stroke="#9a32cd" points="945.38,-216.66 954.04,-210.57 943.47,-209.93 945.38,-216.66"/>
</a>
</g>
<text text-anchor="middle" x="818.5" y="-255.99" font-family="Helvetica,sans-Serif" font-size="10.00" fill="grey"> manager</text>
</g>
<!-- Node6 -->
<g id="Node000006" class="node">
<title>Node6</title>
<g id="a_Node000006"><a xlink:href="structRealm_1_1BackgroundWorkManager_1_1Config.html" target="_top" xlink:title=" ">
<polygon fill="white" stroke="#666666" points="739,-114.99 560,-114.99 560,-84.99 739,-84.99 739,-114.99"/>
<text text-anchor="start" x="568" y="-102.99" font-family="Helvetica,sans-Serif" font-size="10.00">Realm::BackgroundWorkManager</text>
<text text-anchor="middle" x="649.5" y="-91.99" font-family="Helvetica,sans-Serif" font-size="10.00">::Config</text>
</a>
</g>
</g>
<!-- Node6&#45;&gt;Node5 -->
<g id="edge5_Node000005_Node000006" class="edge">
<title>Node6&#45;&gt;Node5</title>
<g id="a_edge5_Node000005_Node000006"><a xlink:title=" ">
<path fill="none" stroke="#9a32cd" stroke-dasharray="5,2" d="M749.14,-100.43C790.65,-103.33 838.79,-110.33 880,-125.99 919.95,-141.18 958.96,-174.82 976.64,-191.39"/>
<polygon fill="#9a32cd" stroke="#9a32cd" points="749.21,-96.93 739.01,-99.8 748.77,-103.92 749.21,-96.93"/>
</a>
</g>
<text text-anchor="middle" x="818.5" y="-128.99" font-family="Helvetica,sans-Serif" font-size="10.00" fill="grey"> cfg</text>
</g>
<!-- Node7 -->
<g id="Node000007" class="node">
<title>Node7</title>
<g id="a_Node000007"><a xlink:href="classRealm_1_1UnfairMutex.html" target="_top" xlink:title=" ">
<polygon fill="white" stroke="#666666" points="707,-343.49 592,-343.49 592,-324.49 707,-324.49 707,-343.49"/>
<text text-anchor="middle" x="649.5" y="-331.49" font-family="Helvetica,sans-Serif" font-size="10.00">Realm::UnfairMutex</text>
</a>
</g>
</g>
<!-- Node7&#45;&gt;Node3 -->
<g id="edge20_Node000003_Node000007" class="edge">
<title>Node7&#45;&gt;Node3</title>
<g id="a_edge20_Node000003_Node000007"><a xlink:title=" ">
<path fill="none" stroke="#9a32cd" stroke-dasharray="5,2" d="M703.56,-345.68C769.8,-360.27 881.83,-384.94 943.16,-398.45"/>
<polygon fill="#9a32cd" stroke="#9a32cd" points="704.26,-342.25 693.74,-343.52 702.75,-349.09 704.26,-342.25"/>
</a>
</g>
<text text-anchor="middle" x="818.5" y="-387.99" font-family="Helvetica,sans-Serif" font-size="10.00" fill="grey"> mutex</text>
</g>
<!-- Node7&#45;&gt;Node5 -->
<g id="edge6_Node000005_Node000007" class="edge">
<title>Node7&#45;&gt;Node5</title>
<g id="a_edge6_Node000005_Node000007"><a xlink:title=" ">
<path fill="none" stroke="#9a32cd" stroke-dasharray="5,2" d="M717.19,-334.88C764.72,-333.08 828.97,-325.54 880,-300.99 925.25,-279.22 964.21,-231.31 979.55,-210.71"/>
<polygon fill="#9a32cd" stroke="#9a32cd" points="716.9,-331.39 707.01,-335.19 717.11,-338.39 716.9,-331.39"/>
</a>
</g>
<text text-anchor="middle" x="818.5" y="-334.99" font-family="Helvetica,sans-Serif" font-size="10.00" fill="grey"> mutex</text>
</g>
<!-- Node8 -->
<g id="Node000008" class="node">
<title>Node8</title>
<g id="a_Node000008"><a xlink:href="classRealm_1_1noncopyable.html" target="_top" xlink:title=" ">
<polygon fill="white" stroke="#666666" points="396,-343.49 280,-343.49 280,-324.49 396,-324.49 396,-343.49"/>
<text text-anchor="middle" x="338" y="-331.49" font-family="Helvetica,sans-Serif" font-size="10.00">Realm::noncopyable</text>
</a>
</g>
</g>
<!-- Node8&#45;&gt;Node7 -->
<g id="edge7_Node000007_Node000008" class="edge">
<title>Node8&#45;&gt;Node7</title>
<g id="a_edge7_Node000007_Node000008"><a xlink:title=" ">
<path fill="none" stroke="#63b8ff" d="M406.22,-333.99C461.73,-333.99 539.62,-333.99 591.97,-333.99"/>
<polygon fill="#63b8ff" stroke="#63b8ff" points="406.13,-330.49 396.13,-333.99 406.13,-337.49 406.13,-330.49"/>
</a>
</g>
</g>
<!-- Node9 -->
<g id="Node000009" class="node">
<title>Node9</title>
<g id="a_Node000009"><a xlink:href="classRealm_1_1atomic.html" target="_top" xlink:title=" ">
<polygon fill="white" stroke="#666666" points="413,-105.49 263,-105.49 263,-86.49 413,-86.49 413,-105.49"/>
<text text-anchor="middle" x="338" y="-93.49" font-family="Helvetica,sans-Serif" font-size="10.00">Realm::atomic&lt; uint32_t &gt;</text>
</a>
</g>
</g>
<!-- Node9&#45;&gt;Node5 -->
<g id="edge15_Node000005_Node000009" class="edge">
<title>Node9&#45;&gt;Node5</title>
<g id="a_edge15_Node000005_Node000009"><a xlink:title=" ">
<path fill="none" stroke="#9a32cd" stroke-dasharray="5,2" d="M379.99,-83.78C474.87,-58 714.12,-7.52 880,-97.99 924.71,-122.38 963.97,-170.66 979.46,-191.28"/>
<polygon fill="#9a32cd" stroke="#9a32cd" points="378.91,-80.45 370.21,-86.49 380.78,-87.19 378.91,-80.45"/>
</a>
</g>
<text text-anchor="middle" x="649.5" y="-55.99" font-family="Helvetica,sans-Serif" font-size="10.00" fill="grey"> worker_state</text>
</g>
<!-- Node9&#45;&gt;Node7 -->
<g id="edge8_Node000007_Node000009" class="edge">
<title>Node9&#45;&gt;Node7</title>
<g id="a_edge8_Node000007_Node000009"><a xlink:title=" ">
<path fill="none" stroke="#9a32cd" stroke-dasharray="5,2" d="M381.49,-108.89C428.39,-125.42 502.48,-158.74 542,-213.99 565.73,-247.17 533.08,-273.34 560,-303.99 568.35,-313.5 579.83,-320 591.75,-324.44"/>
<polygon fill="#9a32cd" stroke="#9a32cd" points="382.51,-105.54 371.91,-105.62 380.24,-112.16 382.51,-105.54"/>
</a>
</g>
<text text-anchor="middle" x="486.5" y="-216.99" font-family="Helvetica,sans-Serif" font-size="10.00" fill="grey"> state</text>
</g>
<!-- Node10 -->
<g id="Node000010" class="node">
<title>Node10</title>
<g id="a_Node000010"><a xlink:href="classRealm_1_1DoorbellList.html" target="_top" xlink:title=" ">
<polygon fill="white" stroke="#666666" points="394.5,-171.49 281.5,-171.49 281.5,-152.49 394.5,-152.49 394.5,-171.49"/>
<text text-anchor="middle" x="338" y="-159.49" font-family="Helvetica,sans-Serif" font-size="10.00">Realm::DoorbellList</text>
</a>
</g>
</g>
<!-- Node10&#45;&gt;Node5 -->
<g id="edge18_Node000005_Node000010" class="edge">
<title>Node10&#45;&gt;Node5</title>
<g id="a_edge18_Node000005_Node000010"><a xlink:title=" ">
<path fill="none" stroke="#9a32cd" stroke-dasharray="5,2" d="M405.12,-161.24C449.03,-160.78 507.96,-160.23 560,-159.99 639.55,-159.63 659.62,-154.67 739,-159.99 802.09,-164.23 817.67,-168.37 880,-178.99 901.12,-182.59 924.45,-187.33 943.88,-191.48"/>
<polygon fill="#9a32cd" stroke="#9a32cd" points="404.82,-157.74 394.86,-161.35 404.9,-164.74 404.82,-157.74"/>
</a>
</g>
<text text-anchor="middle" x="649.5" y="-162.99" font-family="Helvetica,sans-Serif" font-size="10.00" fill="grey"> db_list</text>
</g>
<!-- Node10&#45;&gt;Node7 -->
<g id="edge9_Node000007_Node000010" class="edge">
<title>Node10&#45;&gt;Node7</title>
<g id="a_edge9_Node000007_Node000010"><a xlink:title=" ">
<path fill="none" stroke="#9a32cd" stroke-dasharray="5,2" d="M360.06,-178.04C398.2,-206.52 482.03,-266.43 560,-303.99 577.25,-312.3 597.4,-319.33 614.11,-324.48"/>
<polygon fill="#9a32cd" stroke="#9a32cd" points="361.89,-175.04 351.79,-171.82 357.68,-180.63 361.89,-175.04"/>
</a>
</g>
<text text-anchor="middle" x="486.5" y="-297.99" font-family="Helvetica,sans-Serif" font-size="10.00" fill="grey"> db_list</text>
</g>
<!-- Node11 -->
<g id="Node000011" class="node">
<title>Node11</title>
<g id="a_Node000011"><a xlink:href="classRealm_1_1atomic.html" target="_top" xlink:title=" ">
<polygon fill="white" stroke="#666666" points="152,-171.49 0,-171.49 0,-152.49 152,-152.49 152,-171.49"/>
<text text-anchor="middle" x="76" y="-159.49" font-family="Helvetica,sans-Serif" font-size="10.00">Realm::atomic&lt; uintptr_t &gt;</text>
</a>
</g>
</g>
<!-- Node11&#45;&gt;Node10 -->
<g id="edge10_Node000010_Node000011" class="edge">
<title>Node11&#45;&gt;Node10</title>
<g id="a_edge10_Node000010_Node000011"><a xlink:title=" ">
<path fill="none" stroke="#9a32cd" stroke-dasharray="5,2" d="M162.52,-161.99C201.61,-161.99 246.79,-161.99 281.38,-161.99"/>
<polygon fill="#9a32cd" stroke="#9a32cd" points="162.2,-158.49 152.2,-161.99 162.2,-165.49 162.2,-158.49"/>
</a>
</g>
<text text-anchor="middle" x="207.5" y="-164.99" font-family="Helvetica,sans-Serif" font-size="10.00" fill="grey"> head_or_count</text>
</g>
<!-- Node12 -->
<g id="Node000012" class="node">
<title>Node12</title>
<g id="a_Node000012"><a xlink:href="classRealm_1_1atomic.html" target="_top" xlink:title=" ">
<polygon fill="white" stroke="#666666" points="727,-236.49 572,-236.49 572,-217.49 727,-217.49 727,-236.49"/>
<text text-anchor="middle" x="649.5" y="-224.49" font-family="Helvetica,sans-Serif" font-size="10.00">Realm::atomic&lt; unsigned &gt;</text>
</a>
</g>
</g>
<!-- Node12&#45;&gt;Node5 -->
<g id="edge11_Node000005_Node000012" class="edge">
<title>Node12&#45;&gt;Node5</title>
<g id="a_edge11_Node000005_Node000012"><a xlink:title=" ">
<path fill="none" stroke="#9a32cd" stroke-dasharray="5,2" d="M737.19,-220.29C786.57,-216.46 848.31,-211.69 897.99,-207.84"/>
<polygon fill="#9a32cd" stroke="#9a32cd" points="736.86,-216.8 727.16,-221.06 737.4,-223.78 736.86,-216.8"/>
</a>
</g>
<text text-anchor="middle" x="818.5" y="-221.99" font-family="Helvetica,sans-Serif" font-size="10.00" fill="grey"> num_work_items</text>
</g>
<!-- Node13 -->
<g id="Node000013" class="node">
<title>Node13</title>
<g id="a_Node000013"><a xlink:href="classRealm_1_1atomic.html" target="_top" xlink:title=" ">
<polygon fill="white" stroke="#666666" points="724.5,-199.49 574.5,-199.49 574.5,-180.49 724.5,-180.49 724.5,-199.49"/>
<text text-anchor="middle" x="649.5" y="-187.49" font-family="Helvetica,sans-Serif" font-size="10.00">Realm::atomic&lt; BitMask &gt;</text>
</a>
</g>
</g>
<!-- Node13&#45;&gt;Node5 -->
<g id="edge12_Node000005_Node000013" class="edge">
<title>Node13&#45;&gt;Node5</title>
<g id="a_edge12_Node000005_Node000013"><a xlink:title=" ">
<path fill="none" stroke="#9a32cd" stroke-dasharray="5,2" d="M734.98,-184.27C778.38,-182.32 832.08,-181.41 880,-184.99 897.53,-186.3 916.54,-188.81 933.59,-191.45"/>
<polygon fill="#9a32cd" stroke="#9a32cd" points="734.58,-180.79 724.75,-184.76 734.91,-187.78 734.58,-180.79"/>
</a>
</g>
<text text-anchor="middle" x="818.5" y="-187.99" font-family="Helvetica,sans-Serif" font-size="10.00" fill="grey"> active_work_item_mask</text>
</g>
<!-- Node14 -->
<g id="Node000014" class="node">
<title>Node14</title>
<g id="a_Node000014"><a xlink:href="classRealm_1_1atomic.html" target="_top" xlink:title=" ">
<polygon fill="white" stroke="#666666" points="399.5,-430.49 276.5,-430.49 276.5,-411.49 399.5,-411.49 399.5,-430.49"/>
<text text-anchor="middle" x="338" y="-418.49" font-family="Helvetica,sans-Serif" font-size="10.00">Realm::atomic&lt; int &gt;</text>
</a>
</g>
</g>
<!-- Node14&#45;&gt;Node2 -->
<g id="edge23_Node000002_Node000014" class="edge">
<title>Node14&#45;&gt;Node2</title>
<g id="a_edge23_Node000002_Node000014"><a xlink:title=" ">
<path fill="none" stroke="#9a32cd" stroke-dasharray="5,2" d="M409.86,-428.32C449.08,-433.08 498.55,-440.22 542,-449.99 569.57,-456.19 600.33,-466.06 621.68,-473.39"/>
<polygon fill="#9a32cd" stroke="#9a32cd" points="410.2,-424.84 399.86,-427.13 409.38,-431.79 410.2,-424.84"/>
</a>
</g>
<text text-anchor="middle" x="486.5" y="-474.99" font-family="Helvetica,sans-Serif" font-size="10.00" fill="grey"> pktbuf_ready_packets</text>
<text text-anchor="middle" x="486.5" y="-463.99" font-family="Helvetica,sans-Serif" font-size="10.00" fill="grey">pktbuf_total_packets</text>
<text text-anchor="middle" x="486.5" y="-452.99" font-family="Helvetica,sans-Serif" font-size="10.00" fill="grey">remain_count</text>
</g>
<!-- Node14&#45;&gt;Node5 -->
<g id="edge13_Node000005_Node000014" class="edge">
<title>Node14&#45;&gt;Node5</title>
<g id="a_edge13_Node000005_Node000014"><a xlink:title=" ">
<path fill="none" stroke="#9a32cd" stroke-dasharray="5,2" d="M409.64,-420.83C547.21,-419.97 841.07,-415.28 880,-390.99 948.98,-347.97 977.21,-243.2 984.49,-210.74"/>
<polygon fill="#9a32cd" stroke="#9a32cd" points="409.59,-417.33 399.61,-420.89 409.63,-424.33 409.59,-417.33"/>
</a>
</g>
<text text-anchor="middle" x="649.5" y="-421.99" font-family="Helvetica,sans-Serif" font-size="10.00" fill="grey"> work_item_usecounts</text>
</g>
<!-- Node15 -->
<g id="Node000015" class="node">
<title>Node15</title>
<g id="a_Node000015"><a xlink:href="classRealm_1_1DelegatingMutex.html" target="_top" xlink:title=" ">
<polygon fill="white" stroke="#666666" points="718.5,-19.49 580.5,-19.49 580.5,-0.49 718.5,-0.49 718.5,-19.49"/>
<text text-anchor="middle" x="649.5" y="-7.49" font-family="Helvetica,sans-Serif" font-size="10.00">Realm::DelegatingMutex</text>
</a>
</g>
</g>
<!-- Node15&#45;&gt;Node5 -->
<g id="edge16_Node000005_Node000015" class="edge">
<title>Node15&#45;&gt;Node5</title>
<g id="a_edge16_Node000005_Node000015"><a xlink:title=" ">
<path fill="none" stroke="#9a32cd" stroke-dasharray="5,2" d="M728.89,-0.51C775.97,1.34 835.23,-3.47 880,-30.99 942.9,-69.66 974.66,-160.87 983.72,-191.08"/>
<polygon fill="#9a32cd" stroke="#9a32cd" points="728.55,2.98 718.73,-1.01 728.9,-4.01 728.55,2.98"/>
</a>
</g>
<text text-anchor="middle" x="818.5" y="-33.99" font-family="Helvetica,sans-Serif" font-size="10.00" fill="grey"> db_mutex</text>
</g>
<!-- Node16 -->
<g id="Node000016" class="node">
<title>Node16</title>
<g id="a_Node000016"><a xlink:href="classRealm_1_1atomic.html" target="_top" xlink:title=" ">
<polygon fill="white" stroke="#666666" points="413,-19.49 263,-19.49 263,-0.49 413,-0.49 413,-19.49"/>
<text text-anchor="middle" x="338" y="-7.49" font-family="Helvetica,sans-Serif" font-size="10.00">Realm::atomic&lt; uint64_t &gt;</text>
</a>
</g>
</g>
<!-- Node16&#45;&gt;Node15 -->
<g id="edge17_Node000015_Node000016" class="edge">
<title>Node16&#45;&gt;Node15</title>
<g id="a_edge17_Node000015_Node000016"><a xlink:title=" ">
<path fill="none" stroke="#9a32cd" stroke-dasharray="5,2" d="M423.14,-9.99C472.47,-9.99 533.97,-9.99 580.26,-9.99"/>
<polygon fill="#9a32cd" stroke="#9a32cd" points="423.13,-6.49 413.13,-9.99 423.13,-13.49 423.13,-6.49"/>
</a>
</g>
<text text-anchor="middle" x="486.5" y="-12.99" font-family="Helvetica,sans-Serif" font-size="10.00" fill="grey"> state</text>
</g>
<!-- Node17 -->
<g id="Node000017" class="node">
<title>Node17</title>
<g id="a_Node000017"><a xlink:href="classRealm_1_1atomic.html" target="_top" xlink:title=" ">
<polygon fill="white" stroke="#666666" points="403.5,-508.99 272.5,-508.99 272.5,-478.99 403.5,-478.99 403.5,-508.99"/>
<text text-anchor="start" x="280.5" y="-496.99" font-family="Helvetica,sans-Serif" font-size="10.00">Realm::atomic&lt; Realm</text>
<text text-anchor="middle" x="338" y="-485.99" font-family="Helvetica,sans-Serif" font-size="10.00">::OutbufMetadata * &gt;</text>
</a>
</g>
</g>
<!-- Node17&#45;&gt;Node2 -->
<g id="edge22_Node000002_Node000017" class="edge">
<title>Node17&#45;&gt;Node2</title>
<g id="a_edge22_Node000002_Node000017"><a xlink:title=" ">
<path fill="none" stroke="#9a32cd" stroke-dasharray="5,2" d="M413.58,-491.34C465.07,-489.51 532.94,-487.1 582.48,-485.34"/>
<polygon fill="#9a32cd" stroke="#9a32cd" points="413.37,-487.85 403.5,-491.7 413.62,-494.84 413.37,-487.85"/>
</a>
</g>
<text text-anchor="middle" x="486.5" y="-493.99" font-family="Helvetica,sans-Serif" font-size="10.00" fill="grey"> realbuf</text>
</g>
<!-- Node18 -->
<g id="Node000018" class="node">
<title>Node18</title>
<g id="a_Node000018"><a xlink:href="classRealm_1_1atomic.html" target="_top" xlink:title=" ">
<polygon fill="white" stroke="#666666" points="412.5,-546.49 263.5,-546.49 263.5,-527.49 412.5,-527.49 412.5,-546.49"/>
<text text-anchor="middle" x="338" y="-534.49" font-family="Helvetica,sans-Serif" font-size="10.00">Realm::atomic&lt; PktType &gt;</text>
</a>
</g>
</g>
<!-- Node18&#45;&gt;Node2 -->
<g id="edge24_Node000002_Node000018" class="edge">
<title>Node18&#45;&gt;Node2</title>
<g id="a_edge24_Node000002_Node000018"><a xlink:title=" ">
<path fill="none" stroke="#9a32cd" stroke-dasharray="5,2" d="M418.6,-525.99C456.13,-520.51 501.46,-513.46 542,-505.99 563.58,-502.02 587.47,-496.92 607.15,-492.54"/>
<polygon fill="#9a32cd" stroke="#9a32cd" points="417.63,-522.59 408.23,-527.49 418.63,-529.52 417.63,-522.59"/>
</a>
</g>
<text text-anchor="middle" x="486.5" y="-527.99" font-family="Helvetica,sans-Serif" font-size="10.00" fill="grey"> pktbuf_pkt_types</text>
</g>
</g>
</svg>
