<?xml version="1.0" encoding="UTF-8" standalone="no"?>
<!DOCTYPE svg PUBLIC "-//W3C//DTD SVG 1.1//EN"
 "http://www.w3.org/Graphics/SVG/1.1/DTD/svg11.dtd">
<!-- Generated by graphviz version 2.43.0 (0)
 -->
<!-- Title: Realm::noncopyable Pages: 1 -->
<svg width="285pt" height="249pt"
 viewBox="0.00 0.00 285.00 249.00" xmlns="http://www.w3.org/2000/svg" xmlns:xlink="http://www.w3.org/1999/xlink">
<g id="graph0" class="graph" transform="scale(1 1) rotate(0) translate(4 245)">
<title>Realm::noncopyable</title>
<!-- Node1 -->
<g id="Node000001" class="node">
<title>Node1</title>
<g id="a_Node000001"><a xlink:title=" ">
<polygon fill="#999999" stroke="#666666" points="116,-130 0,-130 0,-111 116,-111 116,-130"/>
<text text-anchor="middle" x="58" y="-118" font-family="Helvetica,sans-Serif" font-size="10.00">Realm::noncopyable</text>
</a>
</g>
</g>
<!-- Node2 -->
<g id="Node000002" class="node">
<title>Node2</title>
<g id="a_Node000002"><a xlink:href="classRealm_1_1FIFOCondVar.html" target="_top" xlink:title=" ">
<polygon fill="white" stroke="#666666" points="273,-241 156,-241 156,-222 273,-222 273,-241"/>
<text text-anchor="middle" x="214.5" y="-229" font-family="Helvetica,sans-Serif" font-size="10.00">Realm::FIFOCondVar</text>
</a>
</g>
</g>
<!-- Node1&#45;&gt;Node2 -->
<g id="edge1_Node000001_Node000002" class="edge">
<title>Node1&#45;&gt;Node2</title>
<g id="a_edge1_Node000001_Node000002"><a xlink:title=" ">
<path fill="none" stroke="#63b8ff" d="M72.2,-138.33C88.64,-159.29 118.66,-193.74 152,-213.5 157.74,-216.9 164.17,-219.7 170.65,-221.99"/>
<polygon fill="#63b8ff" stroke="#63b8ff" points="74.88,-136.06 66.02,-130.25 69.32,-140.32 74.88,-136.06"/>
</a>
</g>
</g>
<!-- Node3 -->
<g id="Node000003" class="node">
<title>Node3</title>
<g id="a_Node000003"><a xlink:href="classRealm_1_1FIFOMutex.html" target="_top" xlink:title=" ">
<polygon fill="white" stroke="#666666" points="268,-204 161,-204 161,-185 268,-185 268,-204"/>
<text text-anchor="middle" x="214.5" y="-192" font-family="Helvetica,sans-Serif" font-size="10.00">Realm::FIFOMutex</text>
</a>
</g>
</g>
<!-- Node1&#45;&gt;Node3 -->
<g id="edge2_Node000001_Node000003" class="edge">
<title>Node1&#45;&gt;Node3</title>
<g id="a_edge2_Node000001_Node000003"><a xlink:title=" ">
<path fill="none" stroke="#63b8ff" d="M80.74,-135.8C99.05,-148.13 126.31,-165.23 152,-176.5 159.34,-179.72 167.41,-182.55 175.23,-184.96"/>
<polygon fill="#63b8ff" stroke="#63b8ff" points="82.5,-132.76 72.27,-130 78.54,-138.54 82.5,-132.76"/>
</a>
</g>
</g>
<!-- Node4 -->
<g id="Node000004" class="node">
<title>Node4</title>
<g id="a_Node000004"><a xlink:href="classRealm_1_1KernelCondVar.html" target="_top" xlink:title=" ">
<polygon fill="white" stroke="#666666" points="277,-167 152,-167 152,-148 277,-148 277,-167"/>
<text text-anchor="middle" x="214.5" y="-155" font-family="Helvetica,sans-Serif" font-size="10.00">Realm::KernelCondVar</text>
</a>
</g>
</g>
<!-- Node1&#45;&gt;Node4 -->
<g id="edge3_Node000001_Node000004" class="edge">
<title>Node1&#45;&gt;Node4</title>
<g id="a_edge3_Node000001_Node000004"><a xlink:title=" ">
<path fill="none" stroke="#63b8ff" d="M108.8,-132.43C129.75,-137.44 153.81,-143.21 173.58,-147.94"/>
<polygon fill="#63b8ff" stroke="#63b8ff" points="109.33,-128.95 98.79,-130.03 107.7,-135.76 109.33,-128.95"/>
</a>
</g>
</g>
<!-- Node5 -->
<g id="Node000005" class="node">
<title>Node5</title>
<g id="a_Node000005"><a xlink:href="classRealm_1_1KernelMutex.html" target="_top" xlink:title=" ">
<polygon fill="white" stroke="#666666" points="272.5,-130 156.5,-130 156.5,-111 272.5,-111 272.5,-130"/>
<text text-anchor="middle" x="214.5" y="-118" font-family="Helvetica,sans-Serif" font-size="10.00">Realm::KernelMutex</text>
</a>
</g>
</g>
<!-- Node1&#45;&gt;Node5 -->
<g id="edge4_Node000001_Node000005" class="edge">
<title>Node1&#45;&gt;Node5</title>
<g id="a_edge4_Node000001_Node000005"><a xlink:title=" ">
<path fill="none" stroke="#63b8ff" d="M126.4,-120.5C136.4,-120.5 146.62,-120.5 156.39,-120.5"/>
<polygon fill="#63b8ff" stroke="#63b8ff" points="126.09,-117 116.09,-120.5 126.09,-124 126.09,-117"/>
</a>
</g>
</g>
<!-- Node6 -->
<g id="Node000006" class="node">
<title>Node6</title>
<g id="a_Node000006"><a xlink:href="classRealm_1_1MutexChecker.html" target="_top" xlink:title=" ">
<polygon fill="white" stroke="#666666" points="276.5,-93 152.5,-93 152.5,-74 276.5,-74 276.5,-93"/>
<text text-anchor="middle" x="214.5" y="-81" font-family="Helvetica,sans-Serif" font-size="10.00">Realm::MutexChecker</text>
</a>
</g>
</g>
<!-- Node1&#45;&gt;Node6 -->
<g id="edge5_Node000001_Node000006" class="edge">
<title>Node1&#45;&gt;Node6</title>
<g id="a_edge5_Node000001_Node000006"><a xlink:title=" ">
<path fill="none" stroke="#63b8ff" d="M108.8,-108.57C129.75,-103.56 153.81,-97.79 173.58,-93.06"/>
<polygon fill="#63b8ff" stroke="#63b8ff" points="107.7,-105.24 98.79,-110.97 109.33,-112.05 107.7,-105.24"/>
</a>
</g>
</g>
<!-- Node7 -->
<g id="Node000007" class="node">
<title>Node7</title>
<g id="a_Node000007"><a xlink:href="classRealm_1_1UnfairCondVar.html" target="_top" xlink:title=" ">
<polygon fill="white" stroke="#666666" points="277,-56 152,-56 152,-37 277,-37 277,-56"/>
<text text-anchor="middle" x="214.5" y="-44" font-family="Helvetica,sans-Serif" font-size="10.00">Realm::UnfairCondVar</text>
</a>
</g>
</g>
<!-- Node1&#45;&gt;Node7 -->
<g id="edge6_Node000001_Node000007" class="edge">
<title>Node1&#45;&gt;Node7</title>
<g id="a_edge6_Node000001_Node000007"><a xlink:title=" ">
<path fill="none" stroke="#63b8ff" d="M81.46,-105.18C99.81,-93.17 126.76,-76.68 152,-65.5 160.07,-61.93 169.02,-58.75 177.53,-56.06"/>
<polygon fill="#63b8ff" stroke="#63b8ff" points="79.33,-102.39 72.94,-110.84 83.21,-108.22 79.33,-102.39"/>
</a>
</g>
</g>
<!-- Node8 -->
<g id="Node000008" class="node">
<title>Node8</title>
<g id="a_Node000008"><a xlink:href="classRealm_1_1UnfairMutex.html" target="_top" xlink:title=" ">
<polygon fill="white" stroke="#666666" points="272,-19 157,-19 157,0 272,0 272,-19"/>
<text text-anchor="middle" x="214.5" y="-7" font-family="Helvetica,sans-Serif" font-size="10.00">Realm::UnfairMutex</text>
</a>
</g>
</g>
<!-- Node1&#45;&gt;Node8 -->
<g id="edge7_Node000001_Node000008" class="edge">
<title>Node1&#45;&gt;Node8</title>
<g id="a_edge7_Node000001_Node000008"><a xlink:title=" ">
<path fill="none" stroke="#63b8ff" d="M72.29,-102.96C88.83,-82.3 118.93,-48.32 152,-28.5 158.33,-24.71 165.48,-21.61 172.61,-19.1"/>
<polygon fill="#63b8ff" stroke="#63b8ff" points="69.48,-100.88 66.07,-110.91 74.99,-105.19 69.48,-100.88"/>
</a>
</g>
</g>
</g>
</svg>
