<?xml version="1.0" encoding="UTF-8" standalone="no"?>
<!DOCTYPE svg PUBLIC "-//W3C//DTD SVG 1.1//EN"
 "http://www.w3.org/Graphics/SVG/1.1/DTD/svg11.dtd">
<!-- Generated by graphviz version 2.43.0 (0)
 -->
<!-- Title: /home/runner/work/realm/realm/realm&#45;src/src/realm/cuda/cuda_memcpy.h Pages: 1 -->
<svg width="996pt" height="379pt"
 viewBox="0.00 0.00 995.50 379.00" xmlns="http://www.w3.org/2000/svg" xmlns:xlink="http://www.w3.org/1999/xlink">
<g id="graph0" class="graph" transform="scale(1 1) rotate(0) translate(4 375)">
<title>/home/runner/work/realm/realm/realm&#45;src/src/realm/cuda/cuda_memcpy.h</title>
<!-- Node1 -->
<g id="Node000001" class="node">
<title>Node1</title>
<g id="a_Node000001"><a xlink:title=" ">
<polygon fill="#999999" stroke="#666666" points="318.5,-371 172.5,-371 172.5,-330 318.5,-330 318.5,-371"/>
<text text-anchor="start" x="180.5" y="-359" font-family="Helvetica,sans-Serif" font-size="10.00">/home/runner/work/realm</text>
<text text-anchor="start" x="180.5" y="-348" font-family="Helvetica,sans-Serif" font-size="10.00">/realm/realm&#45;src/src/realm</text>
<text text-anchor="middle" x="245.5" y="-337" font-family="Helvetica,sans-Serif" font-size="10.00">/cuda/cuda_memcpy.h</text>
</a>
</g>
</g>
<!-- Node2 -->
<g id="Node000002" class="node">
<title>Node2</title>
<g id="a_Node000002"><a xlink:title=" ">
<polygon fill="#e0e0e0" stroke="#999999" points="53,-294 0,-294 0,-275 53,-275 53,-294"/>
<text text-anchor="middle" x="26.5" y="-282" font-family="Helvetica,sans-Serif" font-size="10.00">cstddef</text>
</a>
</g>
</g>
<!-- Node1&#45;&gt;Node2 -->
<g id="edge1_Node000001_Node000002" class="edge">
<title>Node1&#45;&gt;Node2</title>
<g id="a_edge1_Node000001_Node000002"><a xlink:title=" ">
<path fill="none" stroke="#63b8ff" d="M178.6,-329.95C140.47,-318.8 94.16,-305.27 62.73,-296.09"/>
<polygon fill="#63b8ff" stroke="#63b8ff" points="63.66,-292.71 53.08,-293.27 61.7,-299.43 63.66,-292.71"/>
</a>
</g>
</g>
<!-- Node3 -->
<g id="Node000003" class="node">
<title>Node3</title>
<g id="a_Node000003"><a xlink:title=" ">
<polygon fill="#e0e0e0" stroke="#999999" points="91.5,-129 41.5,-129 41.5,-110 91.5,-110 91.5,-129"/>
<text text-anchor="middle" x="66.5" y="-117" font-family="Helvetica,sans-Serif" font-size="10.00">cstdint</text>
</a>
</g>
</g>
<!-- Node1&#45;&gt;Node3 -->
<g id="edge2_Node000001_Node000003" class="edge">
<title>Node1&#45;&gt;Node3</title>
<g id="a_edge2_Node000001_Node000003"><a xlink:title=" ">
<path fill="none" stroke="#63b8ff" d="M210.16,-329.84C178.53,-310.54 133.01,-278.33 105.5,-239 83.75,-207.9 73.5,-163.85 69.2,-139.15"/>
<polygon fill="#63b8ff" stroke="#63b8ff" points="72.61,-138.33 67.58,-129 65.7,-139.43 72.61,-138.33"/>
</a>
</g>
</g>
<!-- Node4 -->
<g id="Node000004" class="node">
<title>Node4</title>
<g id="a_Node000004"><a xlink:title=" ">
<polygon fill="#e0e0e0" stroke="#999999" points="673,-129 626,-129 626,-110 673,-110 673,-129"/>
<text text-anchor="middle" x="649.5" y="-117" font-family="Helvetica,sans-Serif" font-size="10.00">vector</text>
</a>
</g>
</g>
<!-- Node1&#45;&gt;Node4 -->
<g id="edge3_Node000001_Node000004" class="edge">
<title>Node1&#45;&gt;Node4</title>
<g id="a_edge3_Node000001_Node000004"><a xlink:title=" ">
<path fill="none" stroke="#63b8ff" d="M279.94,-329.98C359.95,-284.63 556.75,-173.07 625.4,-134.16"/>
<polygon fill="#63b8ff" stroke="#63b8ff" points="627.24,-137.14 634.21,-129.16 623.79,-131.05 627.24,-137.14"/>
</a>
</g>
</g>
<!-- Node5 -->
<g id="Node000005" class="node">
<title>Node5</title>
<g id="a_Node000005"><a xlink:href="point_8h.html" target="_top" xlink:title=" ">
<polygon fill="white" stroke="#666666" points="564.5,-294 482.5,-294 482.5,-275 564.5,-275 564.5,-294"/>
<text text-anchor="middle" x="523.5" y="-282" font-family="Helvetica,sans-Serif" font-size="10.00">realm/point.h</text>
</a>
</g>
</g>
<!-- Node1&#45;&gt;Node5 -->
<g id="edge4_Node000001_Node000005" class="edge">
<title>Node1&#45;&gt;Node5</title>
<g id="a_edge4_Node000001_Node000005"><a xlink:title=" ">
<path fill="none" stroke="#63b8ff" d="M318.54,-332.68C368.43,-321.2 433.09,-306.31 476.31,-296.36"/>
<polygon fill="#63b8ff" stroke="#63b8ff" points="477.31,-299.72 486.27,-294.07 475.74,-292.9 477.31,-299.72"/>
</a>
</g>
</g>
<!-- Node6 -->
<g id="Node000006" class="node">
<title>Node6</title>
<g id="a_Node000006"><a xlink:href="realm__config_8h.html" target="_top" xlink:title=" ">
<polygon fill="white" stroke="#666666" points="217.5,-74 97.5,-74 97.5,-55 217.5,-55 217.5,-74"/>
<text text-anchor="middle" x="157.5" y="-62" font-family="Helvetica,sans-Serif" font-size="10.00">realm/realm_config.h</text>
</a>
</g>
</g>
<!-- Node5&#45;&gt;Node6 -->
<g id="edge5_Node000005_Node000006" class="edge">
<title>Node5&#45;&gt;Node6</title>
<g id="a_edge5_Node000005_Node000006"><a xlink:title=" ">
<path fill="none" stroke="#63b8ff" d="M482.35,-279.6C404.71,-269.82 237.61,-236.7 161.5,-129 152.44,-116.17 152.21,-98.01 153.79,-84.39"/>
<polygon fill="#63b8ff" stroke="#63b8ff" points="157.29,-84.66 155.4,-74.23 150.38,-83.56 157.29,-84.66"/>
</a>
</g>
</g>
<!-- Node9 -->
<g id="Node000009" class="node">
<title>Node9</title>
<g id="a_Node000009"><a xlink:href="event_8h.html" target="_top" xlink:title=" ">
<polygon fill="white" stroke="#666666" points="775,-239 690,-239 690,-220 775,-220 775,-239"/>
<text text-anchor="middle" x="732.5" y="-227" font-family="Helvetica,sans-Serif" font-size="10.00">realm/event.h</text>
</a>
</g>
</g>
<!-- Node5&#45;&gt;Node9 -->
<g id="edge8_Node000005_Node000009" class="edge">
<title>Node5&#45;&gt;Node9</title>
<g id="a_edge8_Node000005_Node000009"><a xlink:title=" ">
<path fill="none" stroke="#63b8ff" d="M557.08,-274.98C592.85,-265.91 649.62,-251.52 688.84,-241.57"/>
<polygon fill="#63b8ff" stroke="#63b8ff" points="689.82,-244.93 698.66,-239.08 688.1,-238.15 689.82,-244.93"/>
</a>
</g>
</g>
<!-- Node13 -->
<g id="Node000013" class="node">
<title>Node13</title>
<g id="a_Node000013"><a xlink:href="utils_8h.html" target="_top" xlink:title=" ">
<polygon fill="white" stroke="#666666" points="394.5,-184 316.5,-184 316.5,-165 394.5,-165 394.5,-184"/>
<text text-anchor="middle" x="355.5" y="-172" font-family="Helvetica,sans-Serif" font-size="10.00">realm/utils.h</text>
</a>
</g>
</g>
<!-- Node5&#45;&gt;Node13 -->
<g id="edge32_Node000005_Node000013" class="edge">
<title>Node5&#45;&gt;Node13</title>
<g id="a_edge32_Node000005_Node000013"><a xlink:title=" ">
<path fill="none" stroke="#63b8ff" d="M510.04,-274.84C481.16,-256.28 413.04,-212.49 377.67,-189.75"/>
<polygon fill="#63b8ff" stroke="#63b8ff" points="379.33,-186.66 369.03,-184.2 375.55,-192.55 379.33,-186.66"/>
</a>
</g>
</g>
<!-- Node21 -->
<g id="Node000021" class="node">
<title>Node21</title>
<g id="a_Node000021"><a xlink:title=" ">
<polygon fill="#e0e0e0" stroke="#999999" points="987.5,-129 927.5,-129 927.5,-110 987.5,-110 987.5,-129"/>
<text text-anchor="middle" x="957.5" y="-117" font-family="Helvetica,sans-Serif" font-size="10.00">iostream</text>
</a>
</g>
</g>
<!-- Node5&#45;&gt;Node21 -->
<g id="edge33_Node000005_Node000021" class="edge">
<title>Node5&#45;&gt;Node21</title>
<g id="a_edge33_Node000005_Node000021"><a xlink:title=" ">
<path fill="none" stroke="#63b8ff" d="M564.54,-280.78C664.2,-273.2 914.33,-248.05 961.5,-184 970.91,-171.23 968.5,-152.8 964.58,-139.09"/>
<polygon fill="#63b8ff" stroke="#63b8ff" points="967.79,-137.66 961.3,-129.29 961.15,-139.89 967.79,-137.66"/>
</a>
</g>
</g>
<!-- Node25 -->
<g id="Node000025" class="node">
<title>Node25</title>
<g id="a_Node000025"><a xlink:title=" ">
<polygon fill="#e0e0e0" stroke="#999999" points="558,-239 489,-239 489,-220 558,-220 558,-239"/>
<text text-anchor="middle" x="523.5" y="-227" font-family="Helvetica,sans-Serif" font-size="10.00">type_traits</text>
</a>
</g>
</g>
<!-- Node5&#45;&gt;Node25 -->
<g id="edge34_Node000005_Node000025" class="edge">
<title>Node5&#45;&gt;Node25</title>
<g id="a_edge34_Node000005_Node000025"><a xlink:title=" ">
<path fill="none" stroke="#63b8ff" d="M523.5,-274.75C523.5,-267.8 523.5,-257.85 523.5,-249.13"/>
<polygon fill="#63b8ff" stroke="#63b8ff" points="527,-249.09 523.5,-239.09 520,-249.09 527,-249.09"/>
</a>
</g>
</g>
<!-- Node26 -->
<g id="Node000026" class="node">
<title>Node26</title>
<g id="a_Node000026"><a xlink:title=" ">
<polygon fill="#e0e0e0" stroke="#999999" points="664.5,-239 576.5,-239 576.5,-220 664.5,-220 664.5,-239"/>
<text text-anchor="middle" x="620.5" y="-227" font-family="Helvetica,sans-Serif" font-size="10.00">realm/point.inl</text>
</a>
</g>
</g>
<!-- Node5&#45;&gt;Node26 -->
<g id="edge35_Node000005_Node000026" class="edge">
<title>Node5&#45;&gt;Node26</title>
<g id="a_edge35_Node000005_Node000026"><a xlink:title=" ">
<path fill="none" stroke="#63b8ff" d="M539.08,-274.98C554.27,-266.69 577.6,-253.94 595.4,-244.22"/>
<polygon fill="#63b8ff" stroke="#63b8ff" points="597.53,-247.04 604.63,-239.17 594.18,-240.89 597.53,-247.04"/>
</a>
</g>
</g>
<!-- Node7 -->
<g id="Node000007" class="node">
<title>Node7</title>
<g id="a_Node000007"><a xlink:href="realm__defines_8h.html" target="_top" xlink:title=" ">
<polygon fill="white" stroke="#666666" points="137,-19 42,-19 42,0 137,0 137,-19"/>
<text text-anchor="middle" x="89.5" y="-7" font-family="Helvetica,sans-Serif" font-size="10.00">realm_defines.h</text>
</a>
</g>
</g>
<!-- Node6&#45;&gt;Node7 -->
<g id="edge6_Node000006_Node000007" class="edge">
<title>Node6&#45;&gt;Node7</title>
<g id="a_edge6_Node000006_Node000007"><a xlink:title=" ">
<path fill="none" stroke="#63b8ff" d="M146.57,-54.98C136.42,-47.07 121.08,-35.11 108.85,-25.58"/>
<polygon fill="#63b8ff" stroke="#63b8ff" points="110.66,-22.56 100.62,-19.17 106.36,-28.08 110.66,-22.56"/>
</a>
</g>
</g>
<!-- Node8 -->
<g id="Node000008" class="node">
<title>Node8</title>
<g id="a_Node000008"><a xlink:href="compiler__support_8h.html" target="_top" xlink:title=" ">
<polygon fill="white" stroke="#666666" points="297.5,-19 155.5,-19 155.5,0 297.5,0 297.5,-19"/>
<text text-anchor="middle" x="226.5" y="-7" font-family="Helvetica,sans-Serif" font-size="10.00">realm/compiler_support.h</text>
</a>
</g>
</g>
<!-- Node6&#45;&gt;Node8 -->
<g id="edge7_Node000006_Node000008" class="edge">
<title>Node6&#45;&gt;Node8</title>
<g id="a_edge7_Node000006_Node000008"><a xlink:title=" ">
<path fill="none" stroke="#63b8ff" d="M168.59,-54.98C178.99,-47 194.76,-34.88 207.22,-25.31"/>
<polygon fill="#63b8ff" stroke="#63b8ff" points="209.41,-28.04 215.21,-19.17 205.15,-22.49 209.41,-28.04"/>
</a>
</g>
</g>
<!-- Node9&#45;&gt;Node4 -->
<g id="edge28_Node000009_Node000004" class="edge">
<title>Node9&#45;&gt;Node4</title>
<g id="a_edge28_Node000009_Node000004"><a xlink:title=" ">
<path fill="none" stroke="#63b8ff" d="M695.5,-219.95C663.4,-211.7 620.55,-198.36 610.5,-184 599.3,-167.99 614.89,-148.77 629.56,-135.7"/>
<polygon fill="#63b8ff" stroke="#63b8ff" points="632,-138.22 637.43,-129.13 627.51,-132.84 632,-138.22"/>
</a>
</g>
</g>
<!-- Node10 -->
<g id="Node000010" class="node">
<title>Node10</title>
<g id="a_Node000010"><a xlink:href="realm__c_8h.html" target="_top" xlink:title=" ">
<polygon fill="white" stroke="#666666" points="787.5,-129 691.5,-129 691.5,-110 787.5,-110 787.5,-129"/>
<text text-anchor="middle" x="739.5" y="-117" font-family="Helvetica,sans-Serif" font-size="10.00">realm/realm_c.h</text>
</a>
</g>
</g>
<!-- Node9&#45;&gt;Node10 -->
<g id="edge9_Node000009_Node000010" class="edge">
<title>Node9&#45;&gt;Node10</title>
<g id="a_edge9_Node000009_Node000010"><a xlink:title=" ">
<path fill="none" stroke="#63b8ff" d="M733.07,-219.66C734.21,-202.17 736.76,-162.8 738.28,-139.27"/>
<polygon fill="#63b8ff" stroke="#63b8ff" points="741.78,-139.36 738.94,-129.16 734.8,-138.91 741.78,-139.36"/>
</a>
</g>
</g>
<!-- Node9&#45;&gt;Node13 -->
<g id="edge13_Node000009_Node000013" class="edge">
<title>Node9&#45;&gt;Node13</title>
<g id="a_edge13_Node000009_Node000013"><a xlink:title=" ">
<path fill="none" stroke="#63b8ff" d="M689.96,-222.35C684.43,-221.56 678.83,-220.76 673.5,-220 578.35,-206.49 467.13,-190.99 404.64,-182.31"/>
<polygon fill="#63b8ff" stroke="#63b8ff" points="405.06,-178.84 394.67,-180.93 404.1,-185.77 405.06,-178.84"/>
</a>
</g>
</g>
<!-- Node20 -->
<g id="Node000020" class="node">
<title>Node20</title>
<g id="a_Node000020"><a xlink:href="memory_8h.html" target="_top" xlink:title=" ">
<polygon fill="white" stroke="#666666" points="864,-184 767,-184 767,-165 864,-165 864,-184"/>
<text text-anchor="middle" x="815.5" y="-172" font-family="Helvetica,sans-Serif" font-size="10.00">realm/memory.h</text>
</a>
</g>
</g>
<!-- Node9&#45;&gt;Node20 -->
<g id="edge23_Node000009_Node000020" class="edge">
<title>Node9&#45;&gt;Node20</title>
<g id="a_edge23_Node000009_Node000020"><a xlink:title=" ">
<path fill="none" stroke="#63b8ff" d="M745.84,-219.98C758.59,-211.84 778.05,-199.41 793.17,-189.76"/>
<polygon fill="#63b8ff" stroke="#63b8ff" points="795.38,-192.5 801.92,-184.17 791.61,-186.6 795.38,-192.5"/>
</a>
</g>
</g>
<!-- Node9&#45;&gt;Node21 -->
<g id="edge30_Node000009_Node000021" class="edge">
<title>Node9&#45;&gt;Node21</title>
<g id="a_edge30_Node000009_Node000021"><a xlink:title=" ">
<path fill="none" stroke="#63b8ff" d="M771.6,-219.98C800.71,-212.75 840.88,-200.84 873.5,-184 898.95,-170.86 924.72,-150.02 940.88,-135.82"/>
<polygon fill="#63b8ff" stroke="#63b8ff" points="943.29,-138.36 948.4,-129.08 938.61,-133.15 943.29,-138.36"/>
</a>
</g>
</g>
<!-- Node23 -->
<g id="Node000023" class="node">
<title>Node23</title>
<g id="a_Node000023"><a xlink:title=" ">
<polygon fill="#e0e0e0" stroke="#999999" points="952.5,-184 920.5,-184 920.5,-165 952.5,-165 952.5,-184"/>
<text text-anchor="middle" x="936.5" y="-172" font-family="Helvetica,sans-Serif" font-size="10.00">set</text>
</a>
</g>
</g>
<!-- Node9&#45;&gt;Node23 -->
<g id="edge29_Node000009_Node000023" class="edge">
<title>Node9&#45;&gt;Node23</title>
<g id="a_edge29_Node000009_Node000023"><a xlink:title=" ">
<path fill="none" stroke="#63b8ff" d="M766.9,-219.98C802.05,-211.21 858.18,-197.02 906.5,-184 907.76,-183.66 909.06,-183.31 910.36,-182.95"/>
<polygon fill="#63b8ff" stroke="#63b8ff" points="911.64,-186.23 920.33,-180.16 909.76,-179.48 911.64,-186.23"/>
</a>
</g>
</g>
<!-- Node24 -->
<g id="Node000024" class="node">
<title>Node24</title>
<g id="a_Node000024"><a xlink:title=" ">
<polygon fill="#e0e0e0" stroke="#999999" points="710,-184 619,-184 619,-165 710,-165 710,-184"/>
<text text-anchor="middle" x="664.5" y="-172" font-family="Helvetica,sans-Serif" font-size="10.00">realm/event.inl</text>
</a>
</g>
</g>
<!-- Node9&#45;&gt;Node24 -->
<g id="edge31_Node000009_Node000024" class="edge">
<title>Node9&#45;&gt;Node24</title>
<g id="a_edge31_Node000009_Node000024"><a xlink:title=" ">
<path fill="none" stroke="#63b8ff" d="M721.57,-219.98C711.42,-212.07 696.08,-200.11 683.85,-190.58"/>
<polygon fill="#63b8ff" stroke="#63b8ff" points="685.66,-187.56 675.62,-184.17 681.36,-193.08 685.66,-187.56"/>
</a>
</g>
</g>
<!-- Node10&#45;&gt;Node6 -->
<g id="edge10_Node000010_Node000006" class="edge">
<title>Node10&#45;&gt;Node6</title>
<g id="a_edge10_Node000010_Node000006"><a xlink:title=" ">
<path fill="none" stroke="#63b8ff" d="M691.33,-111.1C688.34,-110.71 685.38,-110.34 682.5,-110 520.22,-91.04 328.82,-76.88 227.93,-70.04"/>
<polygon fill="#63b8ff" stroke="#63b8ff" points="228.07,-66.55 217.86,-69.37 227.6,-73.53 228.07,-66.55"/>
</a>
</g>
</g>
<!-- Node11 -->
<g id="Node000011" class="node">
<title>Node11</title>
<g id="a_Node000011"><a xlink:title=" ">
<polygon fill="#e0e0e0" stroke="#999999" points="841.5,-74 785.5,-74 785.5,-55 841.5,-55 841.5,-74"/>
<text text-anchor="middle" x="813.5" y="-62" font-family="Helvetica,sans-Serif" font-size="10.00">stddef.h</text>
</a>
</g>
</g>
<!-- Node10&#45;&gt;Node11 -->
<g id="edge11_Node000010_Node000011" class="edge">
<title>Node10&#45;&gt;Node11</title>
<g id="a_edge11_Node000010_Node000011"><a xlink:title=" ">
<path fill="none" stroke="#63b8ff" d="M751.39,-109.98C762.65,-101.92 779.79,-89.65 793.21,-80.03"/>
<polygon fill="#63b8ff" stroke="#63b8ff" points="795.3,-82.84 801.39,-74.17 791.23,-77.15 795.3,-82.84"/>
</a>
</g>
</g>
<!-- Node12 -->
<g id="Node000012" class="node">
<title>Node12</title>
<g id="a_Node000012"><a xlink:title=" ">
<polygon fill="#e0e0e0" stroke="#999999" points="766,-74 713,-74 713,-55 766,-55 766,-74"/>
<text text-anchor="middle" x="739.5" y="-62" font-family="Helvetica,sans-Serif" font-size="10.00">stdint.h</text>
</a>
</g>
</g>
<!-- Node10&#45;&gt;Node12 -->
<g id="edge12_Node000010_Node000012" class="edge">
<title>Node10&#45;&gt;Node12</title>
<g id="a_edge12_Node000010_Node000012"><a xlink:title=" ">
<path fill="none" stroke="#63b8ff" d="M739.5,-109.75C739.5,-102.8 739.5,-92.85 739.5,-84.13"/>
<polygon fill="#63b8ff" stroke="#63b8ff" points="743,-84.09 739.5,-74.09 736,-84.09 743,-84.09"/>
</a>
</g>
</g>
<!-- Node13&#45;&gt;Node3 -->
<g id="edge20_Node000013_Node000003" class="edge">
<title>Node13&#45;&gt;Node3</title>
<g id="a_edge20_Node000013_Node000003"><a xlink:title=" ">
<path fill="none" stroke="#63b8ff" d="M316.22,-166.3C259.65,-155.92 156.08,-136.93 101.81,-126.98"/>
<polygon fill="#63b8ff" stroke="#63b8ff" points="102.11,-123.47 91.64,-125.11 100.84,-130.36 102.11,-123.47"/>
</a>
</g>
</g>
<!-- Node13&#45;&gt;Node4 -->
<g id="edge17_Node000013_Node000004" class="edge">
<title>Node13&#45;&gt;Node4</title>
<g id="a_edge17_Node000013_Node000004"><a xlink:title=" ">
<path fill="none" stroke="#63b8ff" d="M394.75,-167.22C453.06,-157.82 560.77,-140.2 615.81,-128.96"/>
<polygon fill="#63b8ff" stroke="#63b8ff" points="616.7,-132.35 625.76,-126.87 615.26,-125.5 616.7,-132.35"/>
</a>
</g>
</g>
<!-- Node13&#45;&gt;Node6 -->
<g id="edge14_Node000013_Node000006" class="edge">
<title>Node13&#45;&gt;Node6</title>
<g id="a_edge14_Node000013_Node000006"><a xlink:title=" ">
<path fill="none" stroke="#63b8ff" d="M316.36,-168.35C269.95,-161.48 196.37,-147.95 176.5,-129 164.41,-117.47 159.92,-98.59 158.3,-84.41"/>
<polygon fill="#63b8ff" stroke="#63b8ff" points="161.78,-83.98 157.53,-74.28 154.8,-84.51 161.78,-83.98"/>
</a>
</g>
</g>
<!-- Node14 -->
<g id="Node000014" class="node">
<title>Node14</title>
<g id="a_Node000014"><a xlink:title=" ">
<polygon fill="#e0e0e0" stroke="#999999" points="229.5,-129 185.5,-129 185.5,-110 229.5,-110 229.5,-129"/>
<text text-anchor="middle" x="207.5" y="-117" font-family="Helvetica,sans-Serif" font-size="10.00">string</text>
</a>
</g>
</g>
<!-- Node13&#45;&gt;Node14 -->
<g id="edge15_Node000013_Node000014" class="edge">
<title>Node13&#45;&gt;Node14</title>
<g id="a_edge15_Node000013_Node000014"><a xlink:title=" ">
<path fill="none" stroke="#63b8ff" d="M331.72,-164.98C306.69,-156.02 267.13,-141.86 239.4,-131.92"/>
<polygon fill="#63b8ff" stroke="#63b8ff" points="240.36,-128.55 229.77,-128.47 238,-135.14 240.36,-128.55"/>
</a>
</g>
</g>
<!-- Node15 -->
<g id="Node000015" class="node">
<title>Node15</title>
<g id="a_Node000015"><a xlink:title=" ">
<polygon fill="#e0e0e0" stroke="#999999" points="305,-129 248,-129 248,-110 305,-110 305,-129"/>
<text text-anchor="middle" x="276.5" y="-117" font-family="Helvetica,sans-Serif" font-size="10.00">ostream</text>
</a>
</g>
</g>
<!-- Node13&#45;&gt;Node15 -->
<g id="edge16_Node000013_Node000015" class="edge">
<title>Node13&#45;&gt;Node15</title>
<g id="a_edge16_Node000013_Node000015"><a xlink:title=" ">
<path fill="none" stroke="#63b8ff" d="M342.81,-164.98C330.67,-156.84 312.14,-144.41 297.75,-134.76"/>
<polygon fill="#63b8ff" stroke="#63b8ff" points="299.68,-131.84 289.42,-129.17 295.78,-137.65 299.68,-131.84"/>
</a>
</g>
</g>
<!-- Node16 -->
<g id="Node000016" class="node">
<title>Node16</title>
<g id="a_Node000016"><a xlink:title=" ">
<polygon fill="#e0e0e0" stroke="#999999" points="361.5,-129 323.5,-129 323.5,-110 361.5,-110 361.5,-129"/>
<text text-anchor="middle" x="342.5" y="-117" font-family="Helvetica,sans-Serif" font-size="10.00">map</text>
</a>
</g>
</g>
<!-- Node13&#45;&gt;Node16 -->
<g id="edge18_Node000013_Node000016" class="edge">
<title>Node13&#45;&gt;Node16</title>
<g id="a_edge18_Node000013_Node000016"><a xlink:title=" ">
<path fill="none" stroke="#63b8ff" d="M353.35,-164.75C351.63,-157.72 349.15,-147.62 347,-138.84"/>
<polygon fill="#63b8ff" stroke="#63b8ff" points="350.39,-137.97 344.61,-129.09 343.59,-139.63 350.39,-137.97"/>
</a>
</g>
</g>
<!-- Node17 -->
<g id="Node000017" class="node">
<title>Node17</title>
<g id="a_Node000017"><a xlink:title=" ">
<polygon fill="#e0e0e0" stroke="#999999" points="431.5,-129 379.5,-129 379.5,-110 431.5,-110 431.5,-129"/>
<text text-anchor="middle" x="405.5" y="-117" font-family="Helvetica,sans-Serif" font-size="10.00">cassert</text>
</a>
</g>
</g>
<!-- Node13&#45;&gt;Node17 -->
<g id="edge19_Node000013_Node000017" class="edge">
<title>Node13&#45;&gt;Node17</title>
<g id="a_edge19_Node000013_Node000017"><a xlink:title=" ">
<path fill="none" stroke="#63b8ff" d="M363.76,-164.75C370.96,-157.11 381.61,-145.82 390.35,-136.56"/>
<polygon fill="#63b8ff" stroke="#63b8ff" points="393.08,-138.76 397.4,-129.09 387.99,-133.96 393.08,-138.76"/>
</a>
</g>
</g>
<!-- Node18 -->
<g id="Node000018" class="node">
<title>Node18</title>
<g id="a_Node000018"><a xlink:title=" ">
<polygon fill="#e0e0e0" stroke="#999999" points="505.5,-129 449.5,-129 449.5,-110 505.5,-110 505.5,-129"/>
<text text-anchor="middle" x="477.5" y="-117" font-family="Helvetica,sans-Serif" font-size="10.00">sstream</text>
</a>
</g>
</g>
<!-- Node13&#45;&gt;Node18 -->
<g id="edge21_Node000013_Node000018" class="edge">
<title>Node13&#45;&gt;Node18</title>
<g id="a_edge21_Node000013_Node000018"><a xlink:title=" ">
<path fill="none" stroke="#63b8ff" d="M375.1,-164.98C394.82,-156.42 425.45,-143.11 448.08,-133.28"/>
<polygon fill="#63b8ff" stroke="#63b8ff" points="449.76,-136.37 457.54,-129.17 446.98,-129.94 449.76,-136.37"/>
</a>
</g>
</g>
<!-- Node19 -->
<g id="Node000019" class="node">
<title>Node19</title>
<g id="a_Node000019"><a xlink:title=" ">
<polygon fill="#e0e0e0" stroke="#999999" points="607.5,-129 523.5,-129 523.5,-110 607.5,-110 607.5,-129"/>
<text text-anchor="middle" x="565.5" y="-117" font-family="Helvetica,sans-Serif" font-size="10.00">realm/utils.inl</text>
</a>
</g>
</g>
<!-- Node13&#45;&gt;Node19 -->
<g id="edge22_Node000013_Node000019" class="edge">
<title>Node13&#45;&gt;Node19</title>
<g id="a_edge22_Node000013_Node000019"><a xlink:title=" ">
<path fill="none" stroke="#63b8ff" d="M389.24,-164.98C425.18,-155.91 482.22,-141.52 521.63,-131.57"/>
<polygon fill="#63b8ff" stroke="#63b8ff" points="522.66,-134.92 531.5,-129.08 520.94,-128.14 522.66,-134.92"/>
</a>
</g>
</g>
<!-- Node20&#45;&gt;Node10 -->
<g id="edge24_Node000020_Node000010" class="edge">
<title>Node20&#45;&gt;Node10</title>
<g id="a_edge24_Node000020_Node000010"><a xlink:title=" ">
<path fill="none" stroke="#63b8ff" d="M803.29,-164.98C791.72,-156.92 774.12,-144.65 760.34,-135.03"/>
<polygon fill="#63b8ff" stroke="#63b8ff" points="762.14,-132.02 751.93,-129.17 758.13,-137.76 762.14,-132.02"/>
</a>
</g>
</g>
<!-- Node20&#45;&gt;Node11 -->
<g id="edge25_Node000020_Node000011" class="edge">
<title>Node20&#45;&gt;Node11</title>
<g id="a_edge25_Node000020_Node000011"><a xlink:title=" ">
<path fill="none" stroke="#63b8ff" d="M815.34,-164.66C815.01,-147.17 814.28,-107.8 813.85,-84.27"/>
<polygon fill="#63b8ff" stroke="#63b8ff" points="817.34,-84.09 813.66,-74.16 810.35,-84.22 817.34,-84.09"/>
</a>
</g>
</g>
<!-- Node20&#45;&gt;Node21 -->
<g id="edge26_Node000020_Node000021" class="edge">
<title>Node20&#45;&gt;Node21</title>
<g id="a_edge26_Node000020_Node000021"><a xlink:title=" ">
<path fill="none" stroke="#63b8ff" d="M838.31,-164.98C861.67,-156.27 898.2,-142.63 924.67,-132.75"/>
<polygon fill="#63b8ff" stroke="#63b8ff" points="926.13,-135.95 934.27,-129.17 923.68,-129.39 926.13,-135.95"/>
</a>
</g>
</g>
<!-- Node22 -->
<g id="Node000022" class="node">
<title>Node22</title>
<g id="a_Node000022"><a xlink:title=" ">
<polygon fill="#e0e0e0" stroke="#999999" points="909,-129 844,-129 844,-110 909,-110 909,-129"/>
<text text-anchor="middle" x="876.5" y="-117" font-family="Helvetica,sans-Serif" font-size="10.00">functional</text>
</a>
</g>
</g>
<!-- Node20&#45;&gt;Node22 -->
<g id="edge27_Node000020_Node000022" class="edge">
<title>Node20&#45;&gt;Node22</title>
<g id="a_edge27_Node000020_Node000022"><a xlink:title=" ">
<path fill="none" stroke="#63b8ff" d="M825.3,-164.98C834.32,-157.15 847.91,-145.34 858.82,-135.86"/>
<polygon fill="#63b8ff" stroke="#63b8ff" points="861.27,-138.37 866.52,-129.17 856.68,-133.09 861.27,-138.37"/>
</a>
</g>
</g>
</g>
</svg>
