<?xml version="1.0" encoding="UTF-8" standalone="no"?>
<!DOCTYPE svg PUBLIC "-//W3C//DTD SVG 1.1//EN"
 "http://www.w3.org/Graphics/SVG/1.1/DTD/svg11.dtd">
<!-- Generated by graphviz version 2.43.0 (0)
 -->
<!-- Title: /home/runner/work/realm/realm/realm&#45;src/src/realm/cuda/cuda_memcpy.h Pages: 1 -->
<svg width="944pt" height="379pt"
 viewBox="0.00 0.00 943.50 379.00" xmlns="http://www.w3.org/2000/svg" xmlns:xlink="http://www.w3.org/1999/xlink">
<g id="graph0" class="graph" transform="scale(1 1) rotate(0) translate(4 375)">
<title>/home/runner/work/realm/realm/realm&#45;src/src/realm/cuda/cuda_memcpy.h</title>
<!-- Node1 -->
<g id="Node000001" class="node">
<title>Node1</title>
<g id="a_Node000001"><a xlink:title=" ">
<polygon fill="#999999" stroke="#666666" points="173.5,-371 27.5,-371 27.5,-330 173.5,-330 173.5,-371"/>
<text text-anchor="start" x="35.5" y="-359" font-family="Helvetica,sans-Serif" font-size="10.00">/home/runner/work/realm</text>
<text text-anchor="start" x="35.5" y="-348" font-family="Helvetica,sans-Serif" font-size="10.00">/realm/realm&#45;src/src/realm</text>
<text text-anchor="middle" x="100.5" y="-337" font-family="Helvetica,sans-Serif" font-size="10.00">/cuda/cuda_memcpy.h</text>
</a>
</g>
</g>
<!-- Node2 -->
<g id="Node000002" class="node">
<title>Node2</title>
<g id="a_Node000002"><a xlink:title=" ">
<polygon fill="#e0e0e0" stroke="#999999" points="53,-294 0,-294 0,-275 53,-275 53,-294"/>
<text text-anchor="middle" x="26.5" y="-282" font-family="Helvetica,sans-Serif" font-size="10.00">cstddef</text>
</a>
</g>
</g>
<!-- Node1&#45;&gt;Node2 -->
<g id="edge1_Node000001_Node000002" class="edge">
<title>Node1&#45;&gt;Node2</title>
<g id="a_edge1_Node000001_Node000002"><a xlink:title=" ">
<path fill="none" stroke="#63b8ff" d="M77.9,-329.95C67.14,-320.65 54.45,-309.68 44.38,-300.96"/>
<polygon fill="#63b8ff" stroke="#63b8ff" points="46.48,-298.15 36.63,-294.26 41.9,-303.45 46.48,-298.15"/>
</a>
</g>
</g>
<!-- Node3 -->
<g id="Node000003" class="node">
<title>Node3</title>
<g id="a_Node000003"><a xlink:title=" ">
<polygon fill="#e0e0e0" stroke="#999999" points="117.5,-129 67.5,-129 67.5,-110 117.5,-110 117.5,-129"/>
<text text-anchor="middle" x="92.5" y="-117" font-family="Helvetica,sans-Serif" font-size="10.00">cstdint</text>
</a>
</g>
</g>
<!-- Node1&#45;&gt;Node3 -->
<g id="edge2_Node000001_Node000003" class="edge">
<title>Node1&#45;&gt;Node3</title>
<g id="a_edge2_Node000001_Node000003"><a xlink:title=" ">
<path fill="none" stroke="#63b8ff" d="M99.82,-329.98C98.3,-286.58 94.67,-182.56 93.17,-139.58"/>
<polygon fill="#63b8ff" stroke="#63b8ff" points="96.66,-139.27 92.81,-129.39 89.66,-139.51 96.66,-139.27"/>
</a>
</g>
</g>
<!-- Node4 -->
<g id="Node000004" class="node">
<title>Node4</title>
<g id="a_Node000004"><a xlink:title=" ">
<polygon fill="#e0e0e0" stroke="#999999" points="227,-129 180,-129 180,-110 227,-110 227,-129"/>
<text text-anchor="middle" x="203.5" y="-117" font-family="Helvetica,sans-Serif" font-size="10.00">vector</text>
</a>
</g>
</g>
<!-- Node1&#45;&gt;Node4 -->
<g id="edge3_Node000001_Node000004" class="edge">
<title>Node1&#45;&gt;Node4</title>
<g id="a_edge3_Node000001_Node000004"><a xlink:title=" ">
<path fill="none" stroke="#63b8ff" d="M109.28,-329.98C128.93,-286.3 176.18,-181.23 195.28,-138.77"/>
<polygon fill="#63b8ff" stroke="#63b8ff" points="198.59,-139.95 199.5,-129.39 192.21,-137.08 198.59,-139.95"/>
</a>
</g>
</g>
<!-- Node5 -->
<g id="Node000005" class="node">
<title>Node5</title>
<g id="a_Node000005"><a xlink:href="point_8h.html" target="_top" xlink:title=" ">
<polygon fill="white" stroke="#666666" points="513.5,-294 431.5,-294 431.5,-275 513.5,-275 513.5,-294"/>
<text text-anchor="middle" x="472.5" y="-282" font-family="Helvetica,sans-Serif" font-size="10.00">realm/point.h</text>
</a>
</g>
</g>
<!-- Node1&#45;&gt;Node5 -->
<g id="edge4_Node000001_Node000005" class="edge">
<title>Node1&#45;&gt;Node5</title>
<g id="a_edge4_Node000001_Node000005"><a xlink:title=" ">
<path fill="none" stroke="#63b8ff" d="M173.55,-336.93C246.66,-324.35 357.24,-305.33 421.42,-294.29"/>
<polygon fill="#63b8ff" stroke="#63b8ff" points="422.05,-297.73 431.31,-292.59 420.86,-290.83 422.05,-297.73"/>
</a>
</g>
</g>
<!-- Node6 -->
<g id="Node000006" class="node">
<title>Node6</title>
<g id="a_Node000006"><a xlink:href="realm__config_8h.html" target="_top" xlink:title=" ">
<polygon fill="white" stroke="#666666" points="727.5,-74 607.5,-74 607.5,-55 727.5,-55 727.5,-74"/>
<text text-anchor="middle" x="667.5" y="-62" font-family="Helvetica,sans-Serif" font-size="10.00">realm/realm_config.h</text>
</a>
</g>
</g>
<!-- Node5&#45;&gt;Node6 -->
<g id="edge5_Node000005_Node000006" class="edge">
<title>Node5&#45;&gt;Node6</title>
<g id="a_edge5_Node000005_Node000006"><a xlink:title=" ">
<path fill="none" stroke="#63b8ff" d="M431.36,-276.48C330.83,-257.7 86.85,-201.48 170.5,-110 198.71,-79.15 466.93,-69.52 597.19,-66.65"/>
<polygon fill="#63b8ff" stroke="#63b8ff" points="597.54,-70.15 607.46,-66.43 597.39,-63.15 597.54,-70.15"/>
</a>
</g>
</g>
<!-- Node9 -->
<g id="Node000009" class="node">
<title>Node9</title>
<g id="a_Node000009"><a xlink:href="event_8h.html" target="_top" xlink:title=" ">
<polygon fill="white" stroke="#666666" points="730,-239 645,-239 645,-220 730,-220 730,-239"/>
<text text-anchor="middle" x="687.5" y="-227" font-family="Helvetica,sans-Serif" font-size="10.00">realm/event.h</text>
</a>
</g>
</g>
<!-- Node5&#45;&gt;Node9 -->
<g id="edge8_Node000005_Node000009" class="edge">
<title>Node5&#45;&gt;Node9</title>
<g id="a_edge8_Node000005_Node000009"><a xlink:title=" ">
<path fill="none" stroke="#63b8ff" d="M507.04,-274.98C543.92,-265.89 602.49,-251.46 642.84,-241.51"/>
<polygon fill="#63b8ff" stroke="#63b8ff" points="643.81,-244.87 652.69,-239.08 642.14,-238.08 643.81,-244.87"/>
</a>
</g>
</g>
<!-- Node13 -->
<g id="Node000013" class="node">
<title>Node13</title>
<g id="a_Node000013"><a xlink:href="utils_8h.html" target="_top" xlink:title=" ">
<polygon fill="white" stroke="#666666" points="448.5,-184 370.5,-184 370.5,-165 448.5,-165 448.5,-184"/>
<text text-anchor="middle" x="409.5" y="-172" font-family="Helvetica,sans-Serif" font-size="10.00">realm/utils.h</text>
</a>
</g>
</g>
<!-- Node5&#45;&gt;Node13 -->
<g id="edge31_Node000005_Node000013" class="edge">
<title>Node5&#45;&gt;Node13</title>
<g id="a_edge31_Node000005_Node000013"><a xlink:title=" ">
<path fill="none" stroke="#63b8ff" d="M461.18,-274.79C451.22,-266.57 437.03,-253.39 428.5,-239 420.33,-225.22 415.43,-207.65 412.65,-194.48"/>
<polygon fill="#63b8ff" stroke="#63b8ff" points="416.02,-193.44 410.74,-184.26 409.14,-194.73 416.02,-193.44"/>
</a>
</g>
</g>
<!-- Node21 -->
<g id="Node000021" class="node">
<title>Node21</title>
<g id="a_Node000021"><a xlink:title=" ">
<polygon fill="#e0e0e0" stroke="#999999" points="935.5,-129 875.5,-129 875.5,-110 935.5,-110 935.5,-129"/>
<text text-anchor="middle" x="905.5" y="-117" font-family="Helvetica,sans-Serif" font-size="10.00">iostream</text>
</a>
</g>
</g>
<!-- Node5&#45;&gt;Node21 -->
<g id="edge32_Node000005_Node000021" class="edge">
<title>Node5&#45;&gt;Node21</title>
<g id="a_edge32_Node000005_Node000021"><a xlink:title=" ">
<path fill="none" stroke="#63b8ff" d="M513.83,-280.84C614.22,-273.4 866.13,-248.54 913.5,-184 923.03,-171.01 919.2,-152.36 914.08,-138.63"/>
<polygon fill="#63b8ff" stroke="#63b8ff" points="917.24,-137.11 910.12,-129.26 910.79,-139.84 917.24,-137.11"/>
</a>
</g>
</g>
<!-- Node24 -->
<g id="Node000024" class="node">
<title>Node24</title>
<g id="a_Node000024"><a xlink:title=" ">
<polygon fill="#e0e0e0" stroke="#999999" points="507,-239 438,-239 438,-220 507,-220 507,-239"/>
<text text-anchor="middle" x="472.5" y="-227" font-family="Helvetica,sans-Serif" font-size="10.00">type_traits</text>
</a>
</g>
</g>
<!-- Node5&#45;&gt;Node24 -->
<g id="edge33_Node000005_Node000024" class="edge">
<title>Node5&#45;&gt;Node24</title>
<g id="a_edge33_Node000005_Node000024"><a xlink:title=" ">
<path fill="none" stroke="#63b8ff" d="M472.5,-274.75C472.5,-267.8 472.5,-257.85 472.5,-249.13"/>
<polygon fill="#63b8ff" stroke="#63b8ff" points="476,-249.09 472.5,-239.09 469,-249.09 476,-249.09"/>
</a>
</g>
</g>
<!-- Node25 -->
<g id="Node000025" class="node">
<title>Node25</title>
<g id="a_Node000025"><a xlink:title=" ">
<polygon fill="#e0e0e0" stroke="#999999" points="613.5,-239 525.5,-239 525.5,-220 613.5,-220 613.5,-239"/>
<text text-anchor="middle" x="569.5" y="-227" font-family="Helvetica,sans-Serif" font-size="10.00">realm/point.inl</text>
</a>
</g>
</g>
<!-- Node5&#45;&gt;Node25 -->
<g id="edge34_Node000005_Node000025" class="edge">
<title>Node5&#45;&gt;Node25</title>
<g id="a_edge34_Node000005_Node000025"><a xlink:title=" ">
<path fill="none" stroke="#63b8ff" d="M488.08,-274.98C503.27,-266.69 526.6,-253.94 544.4,-244.22"/>
<polygon fill="#63b8ff" stroke="#63b8ff" points="546.53,-247.04 553.63,-239.17 543.18,-240.89 546.53,-247.04"/>
</a>
</g>
</g>
<!-- Node7 -->
<g id="Node000007" class="node">
<title>Node7</title>
<g id="a_Node000007"><a xlink:href="realm__defines_8h.html" target="_top" xlink:title=" ">
<polygon fill="white" stroke="#666666" points="647,-19 552,-19 552,0 647,0 647,-19"/>
<text text-anchor="middle" x="599.5" y="-7" font-family="Helvetica,sans-Serif" font-size="10.00">realm_defines.h</text>
</a>
</g>
</g>
<!-- Node6&#45;&gt;Node7 -->
<g id="edge6_Node000006_Node000007" class="edge">
<title>Node6&#45;&gt;Node7</title>
<g id="a_edge6_Node000006_Node000007"><a xlink:title=" ">
<path fill="none" stroke="#63b8ff" d="M656.57,-54.98C646.42,-47.07 631.08,-35.11 618.85,-25.58"/>
<polygon fill="#63b8ff" stroke="#63b8ff" points="620.66,-22.56 610.62,-19.17 616.36,-28.08 620.66,-22.56"/>
</a>
</g>
</g>
<!-- Node8 -->
<g id="Node000008" class="node">
<title>Node8</title>
<g id="a_Node000008"><a xlink:href="compiler__support_8h.html" target="_top" xlink:title=" ">
<polygon fill="white" stroke="#666666" points="807.5,-19 665.5,-19 665.5,0 807.5,0 807.5,-19"/>
<text text-anchor="middle" x="736.5" y="-7" font-family="Helvetica,sans-Serif" font-size="10.00">realm/compiler_support.h</text>
</a>
</g>
</g>
<!-- Node6&#45;&gt;Node8 -->
<g id="edge7_Node000006_Node000008" class="edge">
<title>Node6&#45;&gt;Node8</title>
<g id="a_edge7_Node000006_Node000008"><a xlink:title=" ">
<path fill="none" stroke="#63b8ff" d="M678.59,-54.98C688.99,-47 704.76,-34.88 717.22,-25.31"/>
<polygon fill="#63b8ff" stroke="#63b8ff" points="719.41,-28.04 725.21,-19.17 715.15,-22.49 719.41,-28.04"/>
</a>
</g>
</g>
<!-- Node9&#45;&gt;Node4 -->
<g id="edge27_Node000009_Node000004" class="edge">
<title>Node9&#45;&gt;Node4</title>
<g id="a_edge27_Node000009_Node000004"><a xlink:title=" ">
<path fill="none" stroke="#63b8ff" d="M644.95,-222.83C558.16,-211.25 368.31,-185.8 361.5,-184 313.79,-171.37 261.12,-148.21 230.24,-133.62"/>
<polygon fill="#63b8ff" stroke="#63b8ff" points="231.55,-130.37 221.02,-129.21 228.53,-136.68 231.55,-130.37"/>
</a>
</g>
</g>
<!-- Node10 -->
<g id="Node000010" class="node">
<title>Node10</title>
<g id="a_Node000010"><a xlink:href="realm__c_8h.html" target="_top" xlink:title=" ">
<polygon fill="white" stroke="#666666" points="819.5,-129 723.5,-129 723.5,-110 819.5,-110 819.5,-129"/>
<text text-anchor="middle" x="771.5" y="-117" font-family="Helvetica,sans-Serif" font-size="10.00">realm/realm_c.h</text>
</a>
</g>
</g>
<!-- Node9&#45;&gt;Node10 -->
<g id="edge9_Node000009_Node000010" class="edge">
<title>Node9&#45;&gt;Node10</title>
<g id="a_edge9_Node000009_Node000010"><a xlink:title=" ">
<path fill="none" stroke="#63b8ff" d="M688.77,-219.92C691.04,-206.94 696.8,-182.02 709.5,-165 718.91,-152.39 732.92,-141.9 745.25,-134.29"/>
<polygon fill="#63b8ff" stroke="#63b8ff" points="747.38,-137.1 754.25,-129.03 743.85,-131.05 747.38,-137.1"/>
</a>
</g>
</g>
<!-- Node9&#45;&gt;Node13 -->
<g id="edge13_Node000009_Node000013" class="edge">
<title>Node9&#45;&gt;Node13</title>
<g id="a_edge13_Node000009_Node000013"><a xlink:title=" ">
<path fill="none" stroke="#63b8ff" d="M644.98,-220.39C594.82,-210.83 511.6,-194.96 458.7,-184.88"/>
<polygon fill="#63b8ff" stroke="#63b8ff" points="459.35,-181.44 448.87,-183.01 458.04,-188.32 459.35,-181.44"/>
</a>
</g>
</g>
<!-- Node20 -->
<g id="Node000020" class="node">
<title>Node20</title>
<g id="a_Node000020"><a xlink:href="memory_8h.html" target="_top" xlink:title=" ">
<polygon fill="white" stroke="#666666" points="816,-184 719,-184 719,-165 816,-165 816,-184"/>
<text text-anchor="middle" x="767.5" y="-172" font-family="Helvetica,sans-Serif" font-size="10.00">realm/memory.h</text>
</a>
</g>
</g>
<!-- Node9&#45;&gt;Node20 -->
<g id="edge23_Node000009_Node000020" class="edge">
<title>Node9&#45;&gt;Node20</title>
<g id="a_edge23_Node000009_Node000020"><a xlink:title=" ">
<path fill="none" stroke="#63b8ff" d="M700.35,-219.98C712.64,-211.84 731.41,-199.41 745.98,-189.76"/>
<polygon fill="#63b8ff" stroke="#63b8ff" points="748.01,-192.61 754.41,-184.17 744.14,-186.78 748.01,-192.61"/>
</a>
</g>
</g>
<!-- Node9&#45;&gt;Node21 -->
<g id="edge29_Node000009_Node000021" class="edge">
<title>Node9&#45;&gt;Node21</title>
<g id="a_edge29_Node000009_Node000021"><a xlink:title=" ">
<path fill="none" stroke="#63b8ff" d="M725.57,-219.97C753.89,-212.73 792.94,-200.81 824.5,-184 848.98,-170.96 873.56,-150.38 889.11,-136.2"/>
<polygon fill="#63b8ff" stroke="#63b8ff" points="891.84,-138.45 896.77,-129.08 887.07,-133.33 891.84,-138.45"/>
</a>
</g>
</g>
<!-- Node22 -->
<g id="Node000022" class="node">
<title>Node22</title>
<g id="a_Node000022"><a xlink:title=" ">
<polygon fill="#e0e0e0" stroke="#999999" points="904.5,-184 872.5,-184 872.5,-165 904.5,-165 904.5,-184"/>
<text text-anchor="middle" x="888.5" y="-172" font-family="Helvetica,sans-Serif" font-size="10.00">set</text>
</a>
</g>
</g>
<!-- Node9&#45;&gt;Node22 -->
<g id="edge28_Node000009_Node000022" class="edge">
<title>Node9&#45;&gt;Node22</title>
<g id="a_edge28_Node000009_Node000022"><a xlink:title=" ">
<path fill="none" stroke="#63b8ff" d="M721.3,-219.93C755.84,-211.12 810.99,-196.91 858.5,-184 859.76,-183.66 861.06,-183.3 862.36,-182.94"/>
<polygon fill="#63b8ff" stroke="#63b8ff" points="863.64,-186.22 872.33,-180.15 861.75,-179.48 863.64,-186.22"/>
</a>
</g>
</g>
<!-- Node23 -->
<g id="Node000023" class="node">
<title>Node23</title>
<g id="a_Node000023"><a xlink:title=" ">
<polygon fill="#e0e0e0" stroke="#999999" points="662,-184 571,-184 571,-165 662,-165 662,-184"/>
<text text-anchor="middle" x="616.5" y="-172" font-family="Helvetica,sans-Serif" font-size="10.00">realm/event.inl</text>
</a>
</g>
</g>
<!-- Node9&#45;&gt;Node23 -->
<g id="edge30_Node000009_Node000023" class="edge">
<title>Node9&#45;&gt;Node23</title>
<g id="a_edge30_Node000009_Node000023"><a xlink:title=" ">
<path fill="none" stroke="#63b8ff" d="M676.09,-219.98C665.39,-212 649.16,-199.88 636.34,-190.31"/>
<polygon fill="#63b8ff" stroke="#63b8ff" points="638.22,-187.35 628.11,-184.17 634.03,-192.96 638.22,-187.35"/>
</a>
</g>
</g>
<!-- Node10&#45;&gt;Node6 -->
<g id="edge10_Node000010_Node000006" class="edge">
<title>Node10&#45;&gt;Node6</title>
<g id="a_edge10_Node000010_Node000006"><a xlink:title=" ">
<path fill="none" stroke="#63b8ff" d="M754.79,-109.98C738.29,-101.57 712.8,-88.59 693.62,-78.81"/>
<polygon fill="#63b8ff" stroke="#63b8ff" points="695.01,-75.59 684.51,-74.17 691.83,-81.83 695.01,-75.59"/>
</a>
</g>
</g>
<!-- Node11 -->
<g id="Node000011" class="node">
<title>Node11</title>
<g id="a_Node000011"><a xlink:title=" ">
<polygon fill="#e0e0e0" stroke="#999999" points="874.5,-74 818.5,-74 818.5,-55 874.5,-55 874.5,-74"/>
<text text-anchor="middle" x="846.5" y="-62" font-family="Helvetica,sans-Serif" font-size="10.00">stddef.h</text>
</a>
</g>
</g>
<!-- Node10&#45;&gt;Node11 -->
<g id="edge11_Node000010_Node000011" class="edge">
<title>Node10&#45;&gt;Node11</title>
<g id="a_edge11_Node000010_Node000011"><a xlink:title=" ">
<path fill="none" stroke="#63b8ff" d="M783.55,-109.98C794.96,-101.92 812.33,-89.65 825.93,-80.03"/>
<polygon fill="#63b8ff" stroke="#63b8ff" points="828.08,-82.8 834.23,-74.17 824.04,-77.08 828.08,-82.8"/>
</a>
</g>
</g>
<!-- Node12 -->
<g id="Node000012" class="node">
<title>Node12</title>
<g id="a_Node000012"><a xlink:title=" ">
<polygon fill="#e0e0e0" stroke="#999999" points="799,-74 746,-74 746,-55 799,-55 799,-74"/>
<text text-anchor="middle" x="772.5" y="-62" font-family="Helvetica,sans-Serif" font-size="10.00">stdint.h</text>
</a>
</g>
</g>
<!-- Node10&#45;&gt;Node12 -->
<g id="edge12_Node000010_Node000012" class="edge">
<title>Node10&#45;&gt;Node12</title>
<g id="a_edge12_Node000010_Node000012"><a xlink:title=" ">
<path fill="none" stroke="#63b8ff" d="M771.67,-109.75C771.8,-102.8 771.98,-92.85 772.15,-84.13"/>
<polygon fill="#63b8ff" stroke="#63b8ff" points="775.65,-84.15 772.34,-74.09 768.65,-84.02 775.65,-84.15"/>
</a>
</g>
</g>
<!-- Node13&#45;&gt;Node3 -->
<g id="edge20_Node000013_Node000003" class="edge">
<title>Node13&#45;&gt;Node3</title>
<g id="a_edge20_Node000013_Node000003"><a xlink:title=" ">
<path fill="none" stroke="#63b8ff" d="M370.31,-166.95C308.12,-156.55 187.75,-136.42 127.97,-126.43"/>
<polygon fill="#63b8ff" stroke="#63b8ff" points="128.32,-122.94 117.88,-124.74 127.17,-129.84 128.32,-122.94"/>
</a>
</g>
</g>
<!-- Node13&#45;&gt;Node4 -->
<g id="edge17_Node000013_Node000004" class="edge">
<title>Node13&#45;&gt;Node4</title>
<g id="a_edge17_Node000013_Node000004"><a xlink:title=" ">
<path fill="none" stroke="#63b8ff" d="M376.33,-164.97C343.48,-156.52 291.47,-143.15 237.11,-129.16"/>
<polygon fill="#63b8ff" stroke="#63b8ff" points="237.85,-125.73 227.29,-126.63 236.1,-132.51 237.85,-125.73"/>
</a>
</g>
</g>
<!-- Node13&#45;&gt;Node6 -->
<g id="edge14_Node000013_Node000006" class="edge">
<title>Node13&#45;&gt;Node6</title>
<g id="a_edge14_Node000013_Node000006"><a xlink:title=" ">
<path fill="none" stroke="#63b8ff" d="M448.76,-169.75C519.39,-162.59 661.94,-146.19 676.5,-129 687.16,-116.42 682.48,-97.15 676.63,-83.14"/>
<polygon fill="#63b8ff" stroke="#63b8ff" points="679.78,-81.61 672.38,-74.03 673.44,-84.58 679.78,-81.61"/>
</a>
</g>
</g>
<!-- Node14 -->
<g id="Node000014" class="node">
<title>Node14</title>
<g id="a_Node000014"><a xlink:title=" ">
<polygon fill="#e0e0e0" stroke="#999999" points="289.5,-129 245.5,-129 245.5,-110 289.5,-110 289.5,-129"/>
<text text-anchor="middle" x="267.5" y="-117" font-family="Helvetica,sans-Serif" font-size="10.00">string</text>
</a>
</g>
</g>
<!-- Node13&#45;&gt;Node14 -->
<g id="edge15_Node000013_Node000014" class="edge">
<title>Node13&#45;&gt;Node14</title>
<g id="a_edge15_Node000013_Node000014"><a xlink:title=" ">
<path fill="none" stroke="#63b8ff" d="M386.69,-164.98C363.05,-156.16 325.92,-142.31 299.39,-132.4"/>
<polygon fill="#63b8ff" stroke="#63b8ff" points="300.38,-129.04 289.79,-128.82 297.93,-135.6 300.38,-129.04"/>
</a>
</g>
</g>
<!-- Node15 -->
<g id="Node000015" class="node">
<title>Node15</title>
<g id="a_Node000015"><a xlink:title=" ">
<polygon fill="#e0e0e0" stroke="#999999" points="365,-129 308,-129 308,-110 365,-110 365,-129"/>
<text text-anchor="middle" x="336.5" y="-117" font-family="Helvetica,sans-Serif" font-size="10.00">ostream</text>
</a>
</g>
</g>
<!-- Node13&#45;&gt;Node15 -->
<g id="edge16_Node000013_Node000015" class="edge">
<title>Node13&#45;&gt;Node15</title>
<g id="a_edge16_Node000013_Node000015"><a xlink:title=" ">
<path fill="none" stroke="#63b8ff" d="M397.77,-164.98C386.77,-157 370.08,-144.88 356.9,-135.31"/>
<polygon fill="#63b8ff" stroke="#63b8ff" points="358.59,-132.21 348.44,-129.17 354.48,-137.88 358.59,-132.21"/>
</a>
</g>
</g>
<!-- Node16 -->
<g id="Node000016" class="node">
<title>Node16</title>
<g id="a_Node000016"><a xlink:title=" ">
<polygon fill="#e0e0e0" stroke="#999999" points="421.5,-129 383.5,-129 383.5,-110 421.5,-110 421.5,-129"/>
<text text-anchor="middle" x="402.5" y="-117" font-family="Helvetica,sans-Serif" font-size="10.00">map</text>
</a>
</g>
</g>
<!-- Node13&#45;&gt;Node16 -->
<g id="edge18_Node000013_Node000016" class="edge">
<title>Node13&#45;&gt;Node16</title>
<g id="a_edge18_Node000013_Node000016"><a xlink:title=" ">
<path fill="none" stroke="#63b8ff" d="M408.34,-164.75C407.43,-157.8 406.11,-147.85 404.96,-139.13"/>
<polygon fill="#63b8ff" stroke="#63b8ff" points="408.41,-138.54 403.63,-129.09 401.47,-139.46 408.41,-138.54"/>
</a>
</g>
</g>
<!-- Node17 -->
<g id="Node000017" class="node">
<title>Node17</title>
<g id="a_Node000017"><a xlink:title=" ">
<polygon fill="#e0e0e0" stroke="#999999" points="491.5,-129 439.5,-129 439.5,-110 491.5,-110 491.5,-129"/>
<text text-anchor="middle" x="465.5" y="-117" font-family="Helvetica,sans-Serif" font-size="10.00">cassert</text>
</a>
</g>
</g>
<!-- Node13&#45;&gt;Node17 -->
<g id="edge19_Node000013_Node000017" class="edge">
<title>Node13&#45;&gt;Node17</title>
<g id="a_edge19_Node000013_Node000017"><a xlink:title=" ">
<path fill="none" stroke="#63b8ff" d="M418.5,-164.98C426.69,-157.23 439.01,-145.58 448.97,-136.14"/>
<polygon fill="#63b8ff" stroke="#63b8ff" points="451.48,-138.59 456.34,-129.17 446.67,-133.5 451.48,-138.59"/>
</a>
</g>
</g>
<!-- Node18 -->
<g id="Node000018" class="node">
<title>Node18</title>
<g id="a_Node000018"><a xlink:title=" ">
<polygon fill="#e0e0e0" stroke="#999999" points="565.5,-129 509.5,-129 509.5,-110 565.5,-110 565.5,-129"/>
<text text-anchor="middle" x="537.5" y="-117" font-family="Helvetica,sans-Serif" font-size="10.00">sstream</text>
</a>
</g>
</g>
<!-- Node13&#45;&gt;Node18 -->
<g id="edge21_Node000013_Node000018" class="edge">
<title>Node13&#45;&gt;Node18</title>
<g id="a_edge21_Node000013_Node000018"><a xlink:title=" ">
<path fill="none" stroke="#63b8ff" d="M430.07,-164.98C450.93,-156.34 483.47,-142.87 507.27,-133.02"/>
<polygon fill="#63b8ff" stroke="#63b8ff" points="508.66,-136.23 516.56,-129.17 505.98,-129.76 508.66,-136.23"/>
</a>
</g>
</g>
<!-- Node19 -->
<g id="Node000019" class="node">
<title>Node19</title>
<g id="a_Node000019"><a xlink:title=" ">
<polygon fill="#e0e0e0" stroke="#999999" points="667.5,-129 583.5,-129 583.5,-110 667.5,-110 667.5,-129"/>
<text text-anchor="middle" x="625.5" y="-117" font-family="Helvetica,sans-Serif" font-size="10.00">realm/utils.inl</text>
</a>
</g>
</g>
<!-- Node13&#45;&gt;Node19 -->
<g id="edge22_Node000013_Node000019" class="edge">
<title>Node13&#45;&gt;Node19</title>
<g id="a_edge22_Node000013_Node000019"><a xlink:title=" ">
<path fill="none" stroke="#63b8ff" d="M444.2,-164.98C481.25,-155.89 540.09,-141.46 580.63,-131.51"/>
<polygon fill="#63b8ff" stroke="#63b8ff" points="581.65,-134.86 590.52,-129.08 579.98,-128.07 581.65,-134.86"/>
</a>
</g>
</g>
<!-- Node20&#45;&gt;Node10 -->
<g id="edge24_Node000020_Node000010" class="edge">
<title>Node20&#45;&gt;Node10</title>
<g id="a_edge24_Node000020_Node000010"><a xlink:title=" ">
<path fill="none" stroke="#63b8ff" d="M768.16,-164.75C768.68,-157.8 769.44,-147.85 770.09,-139.13"/>
<polygon fill="#63b8ff" stroke="#63b8ff" points="773.59,-139.32 770.85,-129.09 766.61,-138.8 773.59,-139.32"/>
</a>
</g>
</g>
<!-- Node20&#45;&gt;Node11 -->
<g id="edge25_Node000020_Node000011" class="edge">
<title>Node20&#45;&gt;Node11</title>
<g id="a_edge25_Node000020_Node000011"><a xlink:title=" ">
<path fill="none" stroke="#63b8ff" d="M784.99,-164.92C798.76,-157.31 817.41,-144.92 828.5,-129 837.81,-115.63 842.33,-97.52 844.51,-84.07"/>
<polygon fill="#63b8ff" stroke="#63b8ff" points="847.99,-84.44 845.85,-74.06 841.05,-83.51 847.99,-84.44"/>
</a>
</g>
</g>
<!-- Node20&#45;&gt;Node21 -->
<g id="edge26_Node000020_Node000021" class="edge">
<title>Node20&#45;&gt;Node21</title>
<g id="a_edge26_Node000020_Node000021"><a xlink:title=" ">
<path fill="none" stroke="#63b8ff" d="M789.67,-164.98C812.27,-156.3 847.56,-142.75 873.25,-132.88"/>
<polygon fill="#63b8ff" stroke="#63b8ff" points="874.84,-136.02 882.92,-129.17 872.33,-129.49 874.84,-136.02"/>
</a>
</g>
</g>
</g>
</svg>
