<?xml version="1.0" encoding="UTF-8" standalone="no"?>
<!DOCTYPE svg PUBLIC "-//W3C//DTD SVG 1.1//EN"
 "http://www.w3.org/Graphics/SVG/1.1/DTD/svg11.dtd">
<!-- Generated by graphviz version 2.43.0 (0)
 -->
<!-- Title: /home/runner/work/realm/realm/realm&#45;src/src/realm/cuda/cuda_module.h Pages: 1 -->
<svg width="1724pt" height="379pt"
 viewBox="0.00 0.00 1724.50 379.00" xmlns="http://www.w3.org/2000/svg" xmlns:xlink="http://www.w3.org/1999/xlink">
<g id="graph0" class="graph" transform="scale(1 1) rotate(0) translate(4 375)">
<title>/home/runner/work/realm/realm/realm&#45;src/src/realm/cuda/cuda_module.h</title>
<!-- Node1 -->
<g id="Node000001" class="node">
<title>Node1</title>
<g id="a_Node000001"><a xlink:title=" ">
<polygon fill="#999999" stroke="#666666" points="953,-371 807,-371 807,-330 953,-330 953,-371"/>
<text text-anchor="start" x="815" y="-359" font-family="Helvetica,sans-Serif" font-size="10.00">/home/runner/work/realm</text>
<text text-anchor="start" x="815" y="-348" font-family="Helvetica,sans-Serif" font-size="10.00">/realm/realm&#45;src/src/realm</text>
<text text-anchor="middle" x="880" y="-337" font-family="Helvetica,sans-Serif" font-size="10.00">/cuda/cuda_module.h</text>
</a>
</g>
</g>
<!-- Node2 -->
<g id="Node000002" class="node">
<title>Node2</title>
<g id="a_Node000002"><a xlink:title=" ">
<polygon fill="#e0e0e0" stroke="#999999" points="158.5,-294 89.5,-294 89.5,-275 158.5,-275 158.5,-294"/>
<text text-anchor="middle" x="124" y="-282" font-family="Helvetica,sans-Serif" font-size="10.00">type_traits</text>
</a>
</g>
</g>
<!-- Node1&#45;&gt;Node2 -->
<g id="edge1_Node000001_Node000002" class="edge">
<title>Node1&#45;&gt;Node2</title>
<g id="a_edge1_Node000001_Node000002"><a xlink:title=" ">
<path fill="none" stroke="#63b8ff" d="M806.93,-346.53C679.4,-340.76 407.78,-325.8 168.45,-293.89"/>
<polygon fill="#63b8ff" stroke="#63b8ff" points="168.9,-290.42 158.52,-292.55 167.97,-297.35 168.9,-290.42"/>
</a>
</g>
</g>
<!-- Node3 -->
<g id="Node000003" class="node">
<title>Node3</title>
<g id="a_Node000003"><a xlink:href="realm__config_8h.html" target="_top" xlink:title=" ">
<polygon fill="white" stroke="#666666" points="1141,-74 1021,-74 1021,-55 1141,-55 1141,-74"/>
<text text-anchor="middle" x="1081" y="-62" font-family="Helvetica,sans-Serif" font-size="10.00">realm/realm_config.h</text>
</a>
</g>
</g>
<!-- Node1&#45;&gt;Node3 -->
<g id="edge2_Node000001_Node000003" class="edge">
<title>Node1&#45;&gt;Node3</title>
<g id="a_edge2_Node000001_Node000003"><a xlink:title=" ">
<path fill="none" stroke="#63b8ff" d="M953,-343.52C1023.29,-333.3 1119,-305.59 1119,-230.5 1119,-230.5 1119,-230.5 1119,-173.5 1119,-140.02 1102.54,-103.84 1091.29,-83.01"/>
<polygon fill="#63b8ff" stroke="#63b8ff" points="1094.23,-81.1 1086.28,-74.1 1088.13,-84.53 1094.23,-81.1"/>
</a>
</g>
</g>
<!-- Node6 -->
<g id="Node000006" class="node">
<title>Node6</title>
<g id="a_Node000006"><a xlink:href="module_8h.html" target="_top" xlink:title=" ">
<polygon fill="white" stroke="#666666" points="532,-239 438,-239 438,-220 532,-220 532,-239"/>
<text text-anchor="middle" x="485" y="-227" font-family="Helvetica,sans-Serif" font-size="10.00">realm/module.h</text>
</a>
</g>
</g>
<!-- Node1&#45;&gt;Node6 -->
<g id="edge5_Node000001_Node000006" class="edge">
<title>Node1&#45;&gt;Node6</title>
<g id="a_edge5_Node000001_Node000006"><a xlink:title=" ">
<path fill="none" stroke="#63b8ff" d="M815.21,-329.98C732.15,-304.96 590.79,-262.37 523.2,-242.01"/>
<polygon fill="#63b8ff" stroke="#63b8ff" points="523.97,-238.59 513.39,-239.05 521.95,-245.29 523.97,-238.59"/>
</a>
</g>
</g>
<!-- Node16 -->
<g id="Node000016" class="node">
<title>Node16</title>
<g id="a_Node000016"><a xlink:href="processor_8h.html" target="_top" xlink:title=" ">
<polygon fill="white" stroke="#666666" points="281,-294 177,-294 177,-275 281,-275 281,-294"/>
<text text-anchor="middle" x="229" y="-282" font-family="Helvetica,sans-Serif" font-size="10.00">realm/processor.h</text>
</a>
</g>
</g>
<!-- Node1&#45;&gt;Node16 -->
<g id="edge20_Node000001_Node000016" class="edge">
<title>Node1&#45;&gt;Node16</title>
<g id="a_edge20_Node000001_Node000016"><a xlink:title=" ">
<path fill="none" stroke="#63b8ff" d="M806.9,-342.31C677.96,-329.64 412.34,-303.52 291.42,-291.64"/>
<polygon fill="#63b8ff" stroke="#63b8ff" points="291.51,-288.13 281.22,-290.63 290.83,-295.1 291.51,-288.13"/>
</a>
</g>
</g>
<!-- Node29 -->
<g id="Node000029" class="node">
<title>Node29</title>
<g id="a_Node000029"><a xlink:href="network_8h.html" target="_top" xlink:title=" ">
<polygon fill="white" stroke="#666666" points="928.5,-294 831.5,-294 831.5,-275 928.5,-275 928.5,-294"/>
<text text-anchor="middle" x="880" y="-282" font-family="Helvetica,sans-Serif" font-size="10.00">realm/network.h</text>
</a>
</g>
</g>
<!-- Node1&#45;&gt;Node29 -->
<g id="edge45_Node000001_Node000029" class="edge">
<title>Node1&#45;&gt;Node29</title>
<g id="a_edge45_Node000001_Node000029"><a xlink:title=" ">
<path fill="none" stroke="#63b8ff" d="M880,-329.95C880,-321.85 880,-312.5 880,-304.47"/>
<polygon fill="#63b8ff" stroke="#63b8ff" points="883.5,-304.26 880,-294.26 876.5,-304.26 883.5,-304.26"/>
</a>
</g>
</g>
<!-- Node32 -->
<g id="Node000032" class="node">
<title>Node32</title>
<g id="a_Node000032"><a xlink:href="atomics_8h.html" target="_top" xlink:title=" ">
<polygon fill="white" stroke="#666666" points="1610,-129 1514,-129 1514,-110 1610,-110 1610,-129"/>
<text text-anchor="middle" x="1562" y="-117" font-family="Helvetica,sans-Serif" font-size="10.00">realm/atomics.h</text>
</a>
</g>
</g>
<!-- Node1&#45;&gt;Node32 -->
<g id="edge68_Node000001_Node000032" class="edge">
<title>Node1&#45;&gt;Node32</title>
<g id="a_edge68_Node000001_Node000032"><a xlink:title=" ">
<path fill="none" stroke="#63b8ff" d="M953.27,-342.22C1073.42,-327.66 1316.67,-287 1494,-184 1515.48,-171.52 1535.69,-151.11 1548.41,-136.81"/>
<polygon fill="#63b8ff" stroke="#63b8ff" points="1551.1,-139.06 1554.98,-129.2 1545.8,-134.48 1551.1,-139.06"/>
</a>
</g>
</g>
<!-- Node41 -->
<g id="Node000041" class="node">
<title>Node41</title>
<g id="a_Node000041"><a xlink:title=" ">
<polygon fill="#e0e0e0" stroke="#999999" points="1716.5,-294 1561.5,-294 1561.5,-275 1716.5,-275 1716.5,-294"/>
<text text-anchor="middle" x="1639" y="-282" font-family="Helvetica,sans-Serif" font-size="10.00">realm/cuda/cuda_module.inl</text>
</a>
</g>
</g>
<!-- Node1&#45;&gt;Node41 -->
<g id="edge69_Node000001_Node000041" class="edge">
<title>Node1&#45;&gt;Node41</title>
<g id="a_edge69_Node000001_Node000041"><a xlink:title=" ">
<path fill="none" stroke="#63b8ff" d="M953.05,-343.64C1075.78,-333.75 1331.12,-312.95 1547,-294 1548.3,-293.89 1549.61,-293.77 1550.93,-293.65"/>
<polygon fill="#63b8ff" stroke="#63b8ff" points="1551.55,-297.11 1561.2,-292.74 1550.93,-290.14 1551.55,-297.11"/>
</a>
</g>
</g>
<!-- Node4 -->
<g id="Node000004" class="node">
<title>Node4</title>
<g id="a_Node000004"><a xlink:href="realm__defines_8h.html" target="_top" xlink:title=" ">
<polygon fill="white" stroke="#666666" points="1059.5,-19 964.5,-19 964.5,0 1059.5,0 1059.5,-19"/>
<text text-anchor="middle" x="1012" y="-7" font-family="Helvetica,sans-Serif" font-size="10.00">realm_defines.h</text>
</a>
</g>
</g>
<!-- Node3&#45;&gt;Node4 -->
<g id="edge3_Node000003_Node000004" class="edge">
<title>Node3&#45;&gt;Node4</title>
<g id="a_edge3_Node000003_Node000004"><a xlink:title=" ">
<path fill="none" stroke="#63b8ff" d="M1069.91,-54.98C1059.51,-47 1043.73,-34.88 1031.27,-25.31"/>
<polygon fill="#63b8ff" stroke="#63b8ff" points="1033.35,-22.49 1023.28,-19.17 1029.08,-28.04 1033.35,-22.49"/>
</a>
</g>
</g>
<!-- Node5 -->
<g id="Node000005" class="node">
<title>Node5</title>
<g id="a_Node000005"><a xlink:href="compiler__support_8h.html" target="_top" xlink:title=" ">
<polygon fill="white" stroke="#666666" points="1220,-19 1078,-19 1078,0 1220,0 1220,-19"/>
<text text-anchor="middle" x="1149" y="-7" font-family="Helvetica,sans-Serif" font-size="10.00">realm/compiler_support.h</text>
</a>
</g>
</g>
<!-- Node3&#45;&gt;Node5 -->
<g id="edge4_Node000003_Node000005" class="edge">
<title>Node3&#45;&gt;Node5</title>
<g id="a_edge4_Node000003_Node000005"><a xlink:title=" ">
<path fill="none" stroke="#63b8ff" d="M1091.92,-54.98C1102.07,-47.07 1117.42,-35.11 1129.64,-25.58"/>
<polygon fill="#63b8ff" stroke="#63b8ff" points="1132.14,-28.08 1137.87,-19.17 1127.83,-22.56 1132.14,-28.08"/>
</a>
</g>
</g>
<!-- Node6&#45;&gt;Node3 -->
<g id="edge6_Node000006_Node000003" class="edge">
<title>Node6&#45;&gt;Node3</title>
<g id="a_edge6_Node000006_Node000003"><a xlink:title=" ">
<path fill="none" stroke="#63b8ff" d="M532.09,-226.34C623.54,-220.63 829.89,-200.24 986,-129 1014.53,-115.98 1044.06,-94.81 1062.47,-80.54"/>
<polygon fill="#63b8ff" stroke="#63b8ff" points="1064.88,-83.09 1070.56,-74.15 1060.54,-77.6 1064.88,-83.09"/>
</a>
</g>
</g>
<!-- Node7 -->
<g id="Node000007" class="node">
<title>Node7</title>
<g id="a_Node000007"><a xlink:href="module__config_8h.html" target="_top" xlink:title=" ">
<polygon fill="white" stroke="#666666" points="549,-184 421,-184 421,-165 549,-165 549,-184"/>
<text text-anchor="middle" x="485" y="-172" font-family="Helvetica,sans-Serif" font-size="10.00">realm/module_config.h</text>
</a>
</g>
</g>
<!-- Node6&#45;&gt;Node7 -->
<g id="edge7_Node000006_Node000007" class="edge">
<title>Node6&#45;&gt;Node7</title>
<g id="a_edge7_Node000006_Node000007"><a xlink:title=" ">
<path fill="none" stroke="#63b8ff" d="M485,-219.75C485,-212.8 485,-202.85 485,-194.13"/>
<polygon fill="#63b8ff" stroke="#63b8ff" points="488.5,-194.09 485,-184.09 481.5,-194.09 488.5,-194.09"/>
</a>
</g>
</g>
<!-- Node11 -->
<g id="Node000011" class="node">
<title>Node11</title>
<g id="a_Node000011"><a xlink:title=" ">
<polygon fill="#e0e0e0" stroke="#999999" points="513,-74 469,-74 469,-55 513,-55 513,-74"/>
<text text-anchor="middle" x="491" y="-62" font-family="Helvetica,sans-Serif" font-size="10.00">string</text>
</a>
</g>
</g>
<!-- Node6&#45;&gt;Node11 -->
<g id="edge18_Node000006_Node000011" class="edge">
<title>Node6&#45;&gt;Node11</title>
<g id="a_edge18_Node000006_Node000011"><a xlink:title=" ">
<path fill="none" stroke="#63b8ff" d="M450.98,-219.9C391.51,-203.23 278.69,-163.43 320,-110 336.84,-88.21 414.22,-75.09 458.9,-69.2"/>
<polygon fill="#63b8ff" stroke="#63b8ff" points="459.49,-72.65 468.97,-67.92 458.61,-65.71 459.49,-72.65"/>
</a>
</g>
</g>
<!-- Node13 -->
<g id="Node000013" class="node">
<title>Node13</title>
<g id="a_Node000013"><a xlink:title=" ">
<polygon fill="#e0e0e0" stroke="#999999" points="187.5,-74 140.5,-74 140.5,-55 187.5,-55 187.5,-74"/>
<text text-anchor="middle" x="164" y="-62" font-family="Helvetica,sans-Serif" font-size="10.00">vector</text>
</a>
</g>
</g>
<!-- Node6&#45;&gt;Node13 -->
<g id="edge17_Node000006_Node000013" class="edge">
<title>Node6&#45;&gt;Node13</title>
<g id="a_edge17_Node000006_Node000013"><a xlink:title=" ">
<path fill="none" stroke="#63b8ff" d="M437.98,-223.51C399.23,-217.94 343.74,-206.57 300,-184 248.74,-157.55 200.84,-107.82 178,-82"/>
<polygon fill="#63b8ff" stroke="#63b8ff" points="180.45,-79.48 171.24,-74.23 175.16,-84.07 180.45,-79.48"/>
</a>
</g>
</g>
<!-- Node15 -->
<g id="Node000015" class="node">
<title>Node15</title>
<g id="a_Node000015"><a xlink:title=" ">
<polygon fill="#e0e0e0" stroke="#999999" points="244,-74 206,-74 206,-55 244,-55 244,-74"/>
<text text-anchor="middle" x="225" y="-62" font-family="Helvetica,sans-Serif" font-size="10.00">map</text>
</a>
</g>
</g>
<!-- Node6&#45;&gt;Node15 -->
<g id="edge19_Node000006_Node000015" class="edge">
<title>Node6&#45;&gt;Node15</title>
<g id="a_edge19_Node000006_Node000015"><a xlink:title=" ">
<path fill="none" stroke="#63b8ff" d="M437.77,-222.4C404.98,-216.5 361.36,-205.18 328,-184 286.17,-157.44 251.81,-108.85 235.4,-82.91"/>
<polygon fill="#63b8ff" stroke="#63b8ff" points="238.24,-80.85 230.01,-74.17 232.28,-84.52 238.24,-80.85"/>
</a>
</g>
</g>
<!-- Node7&#45;&gt;Node3 -->
<g id="edge8_Node000007_Node000003" class="edge">
<title>Node7&#45;&gt;Node3</title>
<g id="a_edge8_Node000007_Node000003"><a xlink:title=" ">
<path fill="none" stroke="#63b8ff" d="M549.05,-166.29C612.16,-158.72 711.16,-145.63 796,-129 830.16,-122.3 838.07,-117.85 872,-110 925.37,-97.65 986.7,-84.74 1029.06,-76.03"/>
<polygon fill="#63b8ff" stroke="#63b8ff" points="1029.77,-79.46 1038.87,-74.02 1028.37,-72.6 1029.77,-79.46"/>
</a>
</g>
</g>
<!-- Node8 -->
<g id="Node000008" class="node">
<title>Node8</title>
<g id="a_Node000008"><a xlink:href="realm__c_8h.html" target="_top" xlink:title=" ">
<polygon fill="white" stroke="#666666" points="977,-129 881,-129 881,-110 977,-110 977,-129"/>
<text text-anchor="middle" x="929" y="-117" font-family="Helvetica,sans-Serif" font-size="10.00">realm/realm_c.h</text>
</a>
</g>
</g>
<!-- Node7&#45;&gt;Node8 -->
<g id="edge9_Node000007_Node000008" class="edge">
<title>Node7&#45;&gt;Node8</title>
<g id="a_edge9_Node000007_Node000008"><a xlink:title=" ">
<path fill="none" stroke="#63b8ff" d="M549.08,-165.85C635.42,-155.54 787.82,-137.35 870.94,-127.43"/>
<polygon fill="#63b8ff" stroke="#63b8ff" points="871.46,-130.89 880.97,-126.23 870.63,-123.94 871.46,-130.89"/>
</a>
</g>
</g>
<!-- Node7&#45;&gt;Node11 -->
<g id="edge13_Node000007_Node000011" class="edge">
<title>Node7&#45;&gt;Node11</title>
<g id="a_edge13_Node000007_Node000011"><a xlink:title=" ">
<path fill="none" stroke="#63b8ff" d="M485.49,-164.66C486.46,-147.17 488.65,-107.8 489.95,-84.27"/>
<polygon fill="#63b8ff" stroke="#63b8ff" points="493.45,-84.34 490.51,-74.16 486.47,-83.95 493.45,-84.34"/>
</a>
</g>
</g>
<!-- Node12 -->
<g id="Node000012" class="node">
<title>Node12</title>
<g id="a_Node000012"><a xlink:title=" ">
<polygon fill="#e0e0e0" stroke="#999999" points="612.5,-129 519.5,-129 519.5,-110 612.5,-110 612.5,-129"/>
<text text-anchor="middle" x="566" y="-117" font-family="Helvetica,sans-Serif" font-size="10.00">unordered_map</text>
</a>
</g>
</g>
<!-- Node7&#45;&gt;Node12 -->
<g id="edge14_Node000007_Node000012" class="edge">
<title>Node7&#45;&gt;Node12</title>
<g id="a_edge14_Node000007_Node000012"><a xlink:title=" ">
<path fill="none" stroke="#63b8ff" d="M498.01,-164.98C510.45,-156.84 529.45,-144.41 544.2,-134.76"/>
<polygon fill="#63b8ff" stroke="#63b8ff" points="546.29,-137.57 552.74,-129.17 542.46,-131.72 546.29,-137.57"/>
</a>
</g>
</g>
<!-- Node7&#45;&gt;Node13 -->
<g id="edge15_Node000007_Node000013" class="edge">
<title>Node7&#45;&gt;Node13</title>
<g id="a_edge15_Node000007_Node000013"><a xlink:title=" ">
<path fill="none" stroke="#63b8ff" d="M448.24,-164.96C414.54,-156.81 363.43,-143.64 320,-129 274.49,-113.67 223.17,-91.87 192.22,-78.22"/>
<polygon fill="#63b8ff" stroke="#63b8ff" points="193.48,-74.95 182.92,-74.09 190.64,-81.35 193.48,-74.95"/>
</a>
</g>
</g>
<!-- Node14 -->
<g id="Node000014" class="node">
<title>Node14</title>
<g id="a_Node000014"><a xlink:title=" ">
<polygon fill="#e0e0e0" stroke="#999999" points="463,-129 329,-129 329,-110 463,-110 463,-129"/>
<text text-anchor="middle" x="396" y="-117" font-family="Helvetica,sans-Serif" font-size="10.00">realm/module_config.inl</text>
</a>
</g>
</g>
<!-- Node7&#45;&gt;Node14 -->
<g id="edge16_Node000007_Node000014" class="edge">
<title>Node7&#45;&gt;Node14</title>
<g id="a_edge16_Node000007_Node000014"><a xlink:title=" ">
<path fill="none" stroke="#63b8ff" d="M470.7,-164.98C456.89,-156.77 435.75,-144.18 419.48,-134.49"/>
<polygon fill="#63b8ff" stroke="#63b8ff" points="420.94,-131.28 410.56,-129.17 417.36,-137.29 420.94,-131.28"/>
</a>
</g>
</g>
<!-- Node8&#45;&gt;Node3 -->
<g id="edge10_Node000008_Node000003" class="edge">
<title>Node8&#45;&gt;Node3</title>
<g id="a_edge10_Node000008_Node000003"><a xlink:title=" ">
<path fill="none" stroke="#63b8ff" d="M953.42,-109.98C978.72,-101.16 1018.45,-87.31 1046.85,-77.41"/>
<polygon fill="#63b8ff" stroke="#63b8ff" points="1048.09,-80.68 1056.38,-74.08 1045.79,-74.07 1048.09,-80.68"/>
</a>
</g>
</g>
<!-- Node9 -->
<g id="Node000009" class="node">
<title>Node9</title>
<g id="a_Node000009"><a xlink:title=" ">
<polygon fill="#e0e0e0" stroke="#999999" points="990,-74 934,-74 934,-55 990,-55 990,-74"/>
<text text-anchor="middle" x="962" y="-62" font-family="Helvetica,sans-Serif" font-size="10.00">stddef.h</text>
</a>
</g>
</g>
<!-- Node8&#45;&gt;Node9 -->
<g id="edge11_Node000008_Node000009" class="edge">
<title>Node8&#45;&gt;Node9</title>
<g id="a_edge11_Node000008_Node000009"><a xlink:title=" ">
<path fill="none" stroke="#63b8ff" d="M934.44,-109.75C939.01,-102.42 945.66,-91.73 951.29,-82.7"/>
<polygon fill="#63b8ff" stroke="#63b8ff" points="954.33,-84.43 956.65,-74.09 948.39,-80.73 954.33,-84.43"/>
</a>
</g>
</g>
<!-- Node10 -->
<g id="Node000010" class="node">
<title>Node10</title>
<g id="a_Node000010"><a xlink:title=" ">
<polygon fill="#e0e0e0" stroke="#999999" points="1457.5,-74 1404.5,-74 1404.5,-55 1457.5,-55 1457.5,-74"/>
<text text-anchor="middle" x="1431" y="-62" font-family="Helvetica,sans-Serif" font-size="10.00">stdint.h</text>
</a>
</g>
</g>
<!-- Node8&#45;&gt;Node10 -->
<g id="edge12_Node000008_Node000010" class="edge">
<title>Node8&#45;&gt;Node10</title>
<g id="a_edge12_Node000008_Node000010"><a xlink:title=" ">
<path fill="none" stroke="#63b8ff" d="M977.13,-113.42C1077,-102.87 1304.85,-78.82 1394.13,-69.39"/>
<polygon fill="#63b8ff" stroke="#63b8ff" points="1394.74,-72.85 1404.32,-68.32 1394.01,-65.89 1394.74,-72.85"/>
</a>
</g>
</g>
<!-- Node16&#45;&gt;Node8 -->
<g id="edge21_Node000016_Node000008" class="edge">
<title>Node16&#45;&gt;Node8</title>
<g id="a_edge21_Node000016_Node000008"><a xlink:title=" ">
<path fill="none" stroke="#63b8ff" d="M281.17,-279.12C381.1,-269.66 605.49,-243.19 785,-184 827.71,-169.92 875.02,-147.69 903.37,-133.62"/>
<polygon fill="#63b8ff" stroke="#63b8ff" points="905.19,-136.62 912.56,-129.01 902.05,-130.36 905.19,-136.62"/>
</a>
</g>
</g>
<!-- Node16&#45;&gt;Node13 -->
<g id="edge42_Node000016_Node000013" class="edge">
<title>Node16&#45;&gt;Node13</title>
<g id="a_edge42_Node000016_Node000013"><a xlink:title=" ">
<path fill="none" stroke="#63b8ff" d="M180.47,-274.97C125.17,-264.9 40.88,-248.35 29,-239 7.6,-222.16 8.16,-210.53 2,-184 -12.64,-120.99 79.13,-87.06 130.68,-73.16"/>
<polygon fill="#63b8ff" stroke="#63b8ff" points="131.61,-76.53 140.41,-70.64 129.86,-69.76 131.61,-76.53"/>
</a>
</g>
</g>
<!-- Node16&#45;&gt;Node15 -->
<g id="edge43_Node000016_Node000015" class="edge">
<title>Node16&#45;&gt;Node15</title>
<g id="a_edge43_Node000016_Node000015"><a xlink:title=" ">
<path fill="none" stroke="#63b8ff" d="M186.59,-275C144.13,-266.01 82.13,-251.42 61,-239 31.73,-221.8 20.7,-215.48 8,-184 4.84,-176.17 3.44,-172.11 8,-165 29.6,-131.33 142.03,-91.86 196.01,-74.48"/>
<polygon fill="#63b8ff" stroke="#63b8ff" points="197.21,-77.77 205.68,-71.4 195.09,-71.1 197.21,-77.77"/>
</a>
</g>
</g>
<!-- Node17 -->
<g id="Node000017" class="node">
<title>Node17</title>
<g id="a_Node000017"><a xlink:href="event_8h.html" target="_top" xlink:title=" ">
<polygon fill="white" stroke="#666666" points="155.5,-239 70.5,-239 70.5,-220 155.5,-220 155.5,-239"/>
<text text-anchor="middle" x="113" y="-227" font-family="Helvetica,sans-Serif" font-size="10.00">realm/event.h</text>
</a>
</g>
</g>
<!-- Node16&#45;&gt;Node17 -->
<g id="edge22_Node000016_Node000017" class="edge">
<title>Node16&#45;&gt;Node17</title>
<g id="a_edge22_Node000016_Node000017"><a xlink:title=" ">
<path fill="none" stroke="#63b8ff" d="M210.36,-274.98C191.7,-266.46 162.74,-253.23 141.26,-243.41"/>
<polygon fill="#63b8ff" stroke="#63b8ff" points="142.52,-240.14 131.97,-239.17 139.61,-246.51 142.52,-240.14"/>
</a>
</g>
</g>
<!-- Node28 -->
<g id="Node000028" class="node">
<title>Node28</title>
<g id="a_Node000028"><a xlink:title=" ">
<polygon fill="#e0e0e0" stroke="#999999" points="284,-239 174,-239 174,-220 284,-220 284,-239"/>
<text text-anchor="middle" x="229" y="-227" font-family="Helvetica,sans-Serif" font-size="10.00">realm/processor.inl</text>
</a>
</g>
</g>
<!-- Node16&#45;&gt;Node28 -->
<g id="edge44_Node000016_Node000028" class="edge">
<title>Node16&#45;&gt;Node28</title>
<g id="a_edge44_Node000016_Node000028"><a xlink:title=" ">
<path fill="none" stroke="#63b8ff" d="M229,-274.75C229,-267.8 229,-257.85 229,-249.13"/>
<polygon fill="#63b8ff" stroke="#63b8ff" points="232.5,-249.09 229,-239.09 225.5,-249.09 232.5,-249.09"/>
</a>
</g>
</g>
<!-- Node17&#45;&gt;Node8 -->
<g id="edge23_Node000017_Node000008" class="edge">
<title>Node17&#45;&gt;Node8</title>
<g id="a_edge23_Node000017_Node000008"><a xlink:title=" ">
<path fill="none" stroke="#63b8ff" d="M155.51,-221.19C158.72,-220.75 161.9,-220.35 165,-220 423.86,-190.95 496.89,-245.61 750,-184 770.3,-179.06 773.49,-172.48 793,-165 825.43,-152.56 863.01,-140.44 890.43,-131.99"/>
<polygon fill="#63b8ff" stroke="#63b8ff" points="891.51,-135.32 900.05,-129.05 889.46,-128.63 891.51,-135.32"/>
</a>
</g>
</g>
<!-- Node17&#45;&gt;Node13 -->
<g id="edge38_Node000017_Node000013" class="edge">
<title>Node17&#45;&gt;Node13</title>
<g id="a_edge38_Node000017_Node000013"><a xlink:title=" ">
<path fill="none" stroke="#63b8ff" d="M70.48,-220.43C34.78,-211.46 -8.03,-194.23 8,-165 34.01,-117.55 93.33,-89.47 130.86,-75.8"/>
<polygon fill="#63b8ff" stroke="#63b8ff" points="132.08,-79.09 140.37,-72.48 129.77,-72.48 132.08,-79.09"/>
</a>
</g>
</g>
<!-- Node18 -->
<g id="Node000018" class="node">
<title>Node18</title>
<g id="a_Node000018"><a xlink:href="utils_8h.html" target="_top" xlink:title=" ">
<polygon fill="white" stroke="#666666" points="787,-129 709,-129 709,-110 787,-110 787,-129"/>
<text text-anchor="middle" x="748" y="-117" font-family="Helvetica,sans-Serif" font-size="10.00">realm/utils.h</text>
</a>
</g>
</g>
<!-- Node17&#45;&gt;Node18 -->
<g id="edge24_Node000017_Node000018" class="edge">
<title>Node17&#45;&gt;Node18</title>
<g id="a_edge24_Node000017_Node000018"><a xlink:title=" ">
<path fill="none" stroke="#63b8ff" d="M155.52,-221.27C158.72,-220.81 161.91,-220.38 165,-220 354.01,-196.62 407.47,-231.13 592,-184 612.24,-178.83 615.72,-173.05 635,-165 662.11,-153.68 693.2,-141.49 715.89,-132.74"/>
<polygon fill="#63b8ff" stroke="#63b8ff" points="717.3,-135.95 725.37,-129.1 714.78,-129.42 717.3,-135.95"/>
</a>
</g>
</g>
<!-- Node24 -->
<g id="Node000024" class="node">
<title>Node24</title>
<g id="a_Node000024"><a xlink:href="memory_8h.html" target="_top" xlink:title=" ">
<polygon fill="white" stroke="#666666" points="740.5,-184 643.5,-184 643.5,-165 740.5,-165 740.5,-184"/>
<text text-anchor="middle" x="692" y="-172" font-family="Helvetica,sans-Serif" font-size="10.00">realm/memory.h</text>
</a>
</g>
</g>
<!-- Node17&#45;&gt;Node24 -->
<g id="edge34_Node000017_Node000024" class="edge">
<title>Node17&#45;&gt;Node24</title>
<g id="a_edge34_Node000017_Node000024"><a xlink:title=" ">
<path fill="none" stroke="#63b8ff" d="M155.52,-221.25C158.72,-220.79 161.91,-220.37 165,-220 370.36,-195.29 423.31,-205.84 629,-184 630.29,-183.86 631.6,-183.72 632.92,-183.57"/>
<polygon fill="#63b8ff" stroke="#63b8ff" points="633.67,-187.01 643.19,-182.36 632.85,-180.06 633.67,-187.01"/>
</a>
</g>
</g>
<!-- Node25 -->
<g id="Node000025" class="node">
<title>Node25</title>
<g id="a_Node000025"><a xlink:title=" ">
<polygon fill="#e0e0e0" stroke="#999999" points="691,-129 631,-129 631,-110 691,-110 691,-129"/>
<text text-anchor="middle" x="661" y="-117" font-family="Helvetica,sans-Serif" font-size="10.00">iostream</text>
</a>
</g>
</g>
<!-- Node17&#45;&gt;Node25 -->
<g id="edge40_Node000017_Node000025" class="edge">
<title>Node17&#45;&gt;Node25</title>
<g id="a_edge40_Node000017_Node000025"><a xlink:title=" ">
<path fill="none" stroke="#63b8ff" d="M155.53,-221.3C158.73,-220.83 161.91,-220.39 165,-220 338.99,-197.84 391.61,-239.49 558,-184 590.31,-173.22 623.02,-150.62 642.65,-135.5"/>
<polygon fill="#63b8ff" stroke="#63b8ff" points="645.02,-138.09 650.7,-129.14 640.68,-132.59 645.02,-138.09"/>
</a>
</g>
</g>
<!-- Node26 -->
<g id="Node000026" class="node">
<title>Node26</title>
<g id="a_Node000026"><a xlink:title=" ">
<polygon fill="#e0e0e0" stroke="#999999" points="49,-184 17,-184 17,-165 49,-165 49,-184"/>
<text text-anchor="middle" x="33" y="-172" font-family="Helvetica,sans-Serif" font-size="10.00">set</text>
</a>
</g>
</g>
<!-- Node17&#45;&gt;Node26 -->
<g id="edge39_Node000017_Node000026" class="edge">
<title>Node17&#45;&gt;Node26</title>
<g id="a_edge39_Node000017_Node000026"><a xlink:title=" ">
<path fill="none" stroke="#63b8ff" d="M100.14,-219.98C87.85,-211.84 69.09,-199.41 54.52,-189.76"/>
<polygon fill="#63b8ff" stroke="#63b8ff" points="56.35,-186.78 46.08,-184.17 52.49,-192.61 56.35,-186.78"/>
</a>
</g>
</g>
<!-- Node27 -->
<g id="Node000027" class="node">
<title>Node27</title>
<g id="a_Node000027"><a xlink:title=" ">
<polygon fill="#e0e0e0" stroke="#999999" points="158.5,-184 67.5,-184 67.5,-165 158.5,-165 158.5,-184"/>
<text text-anchor="middle" x="113" y="-172" font-family="Helvetica,sans-Serif" font-size="10.00">realm/event.inl</text>
</a>
</g>
</g>
<!-- Node17&#45;&gt;Node27 -->
<g id="edge41_Node000017_Node000027" class="edge">
<title>Node17&#45;&gt;Node27</title>
<g id="a_edge41_Node000017_Node000027"><a xlink:title=" ">
<path fill="none" stroke="#63b8ff" d="M113,-219.75C113,-212.8 113,-202.85 113,-194.13"/>
<polygon fill="#63b8ff" stroke="#63b8ff" points="116.5,-194.09 113,-184.09 109.5,-194.09 116.5,-194.09"/>
</a>
</g>
</g>
<!-- Node18&#45;&gt;Node3 -->
<g id="edge25_Node000018_Node000003" class="edge">
<title>Node18&#45;&gt;Node3</title>
<g id="a_edge25_Node000018_Node000003"><a xlink:title=" ">
<path fill="none" stroke="#63b8ff" d="M787.07,-112.23C791.76,-111.48 796.49,-110.72 801,-110 875.28,-98.14 960.65,-84.58 1017.41,-75.58"/>
<polygon fill="#63b8ff" stroke="#63b8ff" points="1017.99,-79.03 1027.31,-74.01 1016.89,-72.12 1017.99,-79.03"/>
</a>
</g>
</g>
<!-- Node18&#45;&gt;Node11 -->
<g id="edge26_Node000018_Node000011" class="edge">
<title>Node18&#45;&gt;Node11</title>
<g id="a_edge26_Node000018_Node000011"><a xlink:title=" ">
<path fill="none" stroke="#63b8ff" d="M708.96,-110.45C658.18,-99.98 570.39,-81.87 523.21,-72.14"/>
<polygon fill="#63b8ff" stroke="#63b8ff" points="523.73,-68.68 513.23,-70.09 522.32,-75.53 523.73,-68.68"/>
</a>
</g>
</g>
<!-- Node18&#45;&gt;Node13 -->
<g id="edge28_Node000018_Node000013" class="edge">
<title>Node18&#45;&gt;Node13</title>
<g id="a_edge28_Node000018_Node000013"><a xlink:title=" ">
<path fill="none" stroke="#63b8ff" d="M708.75,-111.21C705.79,-110.76 702.85,-110.35 700,-110 480.83,-82.83 419.97,-109.3 197.7,-73.77"/>
<polygon fill="#63b8ff" stroke="#63b8ff" points="198.11,-70.29 187.68,-72.15 196.99,-77.2 198.11,-70.29"/>
</a>
</g>
</g>
<!-- Node18&#45;&gt;Node15 -->
<g id="edge29_Node000018_Node000015" class="edge">
<title>Node18&#45;&gt;Node15</title>
<g id="a_edge29_Node000018_Node000015"><a xlink:title=" ">
<path fill="none" stroke="#63b8ff" d="M708.74,-111.28C705.79,-110.82 702.85,-110.39 700,-110 531.8,-87.27 328.51,-72.41 254.09,-67.39"/>
<polygon fill="#63b8ff" stroke="#63b8ff" points="254.28,-63.9 244.06,-66.72 253.81,-70.88 254.28,-63.9"/>
</a>
</g>
</g>
<!-- Node19 -->
<g id="Node000019" class="node">
<title>Node19</title>
<g id="a_Node000019"><a xlink:title=" ">
<polygon fill="#e0e0e0" stroke="#999999" points="915.5,-74 858.5,-74 858.5,-55 915.5,-55 915.5,-74"/>
<text text-anchor="middle" x="887" y="-62" font-family="Helvetica,sans-Serif" font-size="10.00">ostream</text>
</a>
</g>
</g>
<!-- Node18&#45;&gt;Node19 -->
<g id="edge27_Node000018_Node000019" class="edge">
<title>Node18&#45;&gt;Node19</title>
<g id="a_edge27_Node000018_Node000019"><a xlink:title=" ">
<path fill="none" stroke="#63b8ff" d="M770.33,-109.98C793.19,-101.27 828.95,-87.63 854.86,-77.75"/>
<polygon fill="#63b8ff" stroke="#63b8ff" points="856.16,-81 864.26,-74.17 853.67,-74.46 856.16,-81"/>
</a>
</g>
</g>
<!-- Node20 -->
<g id="Node000020" class="node">
<title>Node20</title>
<g id="a_Node000020"><a xlink:title=" ">
<polygon fill="#e0e0e0" stroke="#999999" points="596,-74 544,-74 544,-55 596,-55 596,-74"/>
<text text-anchor="middle" x="570" y="-62" font-family="Helvetica,sans-Serif" font-size="10.00">cassert</text>
</a>
</g>
</g>
<!-- Node18&#45;&gt;Node20 -->
<g id="edge30_Node000018_Node000020" class="edge">
<title>Node18&#45;&gt;Node20</title>
<g id="a_edge30_Node000018_Node000020"><a xlink:title=" ">
<path fill="none" stroke="#63b8ff" d="M719.4,-109.98C688.58,-100.81 639.48,-86.19 606.04,-76.23"/>
<polygon fill="#63b8ff" stroke="#63b8ff" points="606.79,-72.8 596.2,-73.3 604.79,-79.51 606.79,-72.8"/>
</a>
</g>
</g>
<!-- Node21 -->
<g id="Node000021" class="node">
<title>Node21</title>
<g id="a_Node000021"><a xlink:title=" ">
<polygon fill="#e0e0e0" stroke="#999999" points="664,-74 614,-74 614,-55 664,-55 664,-74"/>
<text text-anchor="middle" x="639" y="-62" font-family="Helvetica,sans-Serif" font-size="10.00">cstdint</text>
</a>
</g>
</g>
<!-- Node18&#45;&gt;Node21 -->
<g id="edge31_Node000018_Node000021" class="edge">
<title>Node18&#45;&gt;Node21</title>
<g id="a_edge31_Node000018_Node000021"><a xlink:title=" ">
<path fill="none" stroke="#63b8ff" d="M730.48,-109.98C713.03,-101.5 685.99,-88.35 665.82,-78.54"/>
<polygon fill="#63b8ff" stroke="#63b8ff" points="667.35,-75.4 656.83,-74.17 664.29,-81.69 667.35,-75.4"/>
</a>
</g>
</g>
<!-- Node22 -->
<g id="Node000022" class="node">
<title>Node22</title>
<g id="a_Node000022"><a xlink:title=" ">
<polygon fill="#e0e0e0" stroke="#999999" points="738,-74 682,-74 682,-55 738,-55 738,-74"/>
<text text-anchor="middle" x="710" y="-62" font-family="Helvetica,sans-Serif" font-size="10.00">sstream</text>
</a>
</g>
</g>
<!-- Node18&#45;&gt;Node22 -->
<g id="edge32_Node000018_Node000022" class="edge">
<title>Node18&#45;&gt;Node22</title>
<g id="a_edge32_Node000018_Node000022"><a xlink:title=" ">
<path fill="none" stroke="#63b8ff" d="M741.72,-109.75C736.41,-102.34 728.64,-91.5 722.12,-82.41"/>
<polygon fill="#63b8ff" stroke="#63b8ff" points="724.82,-80.18 716.15,-74.09 719.14,-84.26 724.82,-80.18"/>
</a>
</g>
</g>
<!-- Node23 -->
<g id="Node000023" class="node">
<title>Node23</title>
<g id="a_Node000023"><a xlink:title=" ">
<polygon fill="#e0e0e0" stroke="#999999" points="840,-74 756,-74 756,-55 840,-55 840,-74"/>
<text text-anchor="middle" x="798" y="-62" font-family="Helvetica,sans-Serif" font-size="10.00">realm/utils.inl</text>
</a>
</g>
</g>
<!-- Node18&#45;&gt;Node23 -->
<g id="edge33_Node000018_Node000023" class="edge">
<title>Node18&#45;&gt;Node23</title>
<g id="a_edge33_Node000018_Node000023"><a xlink:title=" ">
<path fill="none" stroke="#63b8ff" d="M756.25,-109.75C763.46,-102.11 774.11,-90.82 782.84,-81.56"/>
<polygon fill="#63b8ff" stroke="#63b8ff" points="785.58,-83.76 789.89,-74.09 780.48,-78.96 785.58,-83.76"/>
</a>
</g>
</g>
<!-- Node24&#45;&gt;Node8 -->
<g id="edge35_Node000024_Node000008" class="edge">
<title>Node24&#45;&gt;Node8</title>
<g id="a_edge35_Node000024_Node000008"><a xlink:title=" ">
<path fill="none" stroke="#63b8ff" d="M730.07,-164.98C770.98,-155.84 836.1,-141.27 880.61,-131.32"/>
<polygon fill="#63b8ff" stroke="#63b8ff" points="881.62,-134.68 890.62,-129.08 880.1,-127.85 881.62,-134.68"/>
</a>
</g>
</g>
<!-- Node24&#45;&gt;Node9 -->
<g id="edge36_Node000024_Node000009" class="edge">
<title>Node24&#45;&gt;Node9</title>
<g id="a_edge36_Node000024_Node000009"><a xlink:title=" ">
<path fill="none" stroke="#63b8ff" d="M713.63,-164.84C761.35,-145.76 875.72,-100.01 931.02,-77.89"/>
<polygon fill="#63b8ff" stroke="#63b8ff" points="932.64,-81.01 940.63,-74.05 930.04,-74.51 932.64,-81.01"/>
</a>
</g>
</g>
<!-- Node24&#45;&gt;Node25 -->
<g id="edge37_Node000024_Node000025" class="edge">
<title>Node24&#45;&gt;Node25</title>
<g id="a_edge37_Node000024_Node000025"><a xlink:title=" ">
<path fill="none" stroke="#63b8ff" d="M686.88,-164.75C682.63,-157.49 676.47,-146.95 671.22,-137.98"/>
<polygon fill="#63b8ff" stroke="#63b8ff" points="674.09,-135.95 666.02,-129.09 668.05,-139.49 674.09,-135.95"/>
</a>
</g>
</g>
<!-- Node29&#45;&gt;Node3 -->
<g id="edge46_Node000029_Node000003" class="edge">
<title>Node29&#45;&gt;Node3</title>
<g id="a_edge46_Node000029_Node000003"><a xlink:title=" ">
<path fill="none" stroke="#63b8ff" d="M928.56,-277.92C976.35,-271.37 1044.62,-258.81 1062,-239 1100.41,-195.2 1091.84,-119.33 1085.19,-84.26"/>
<polygon fill="#63b8ff" stroke="#63b8ff" points="1088.53,-83.13 1083.08,-74.04 1081.68,-84.54 1088.53,-83.13"/>
</a>
</g>
</g>
<!-- Node29&#45;&gt;Node6 -->
<g id="edge47_Node000029_Node000006" class="edge">
<title>Node29&#45;&gt;Node6</title>
<g id="a_edge47_Node000029_Node000006"><a xlink:title=" ">
<path fill="none" stroke="#63b8ff" d="M831.16,-276.95C757.98,-267.13 620.13,-248.63 542.29,-238.19"/>
<polygon fill="#63b8ff" stroke="#63b8ff" points="542.55,-234.69 532.18,-236.83 541.62,-241.63 542.55,-234.69"/>
</a>
</g>
</g>
<!-- Node29&#45;&gt;Node15 -->
<g id="edge66_Node000029_Node000015" class="edge">
<title>Node29&#45;&gt;Node15</title>
<g id="a_edge66_Node000029_Node000015"><a xlink:title=" ">
<path fill="none" stroke="#63b8ff" d="M831.43,-283.51C747.88,-282.47 572.1,-275.64 429,-239 338.9,-215.93 300.25,-207.88 251,-129 242.12,-114.79 235.15,-97.03 230.67,-83.91"/>
<polygon fill="#63b8ff" stroke="#63b8ff" points="233.92,-82.59 227.51,-74.16 227.26,-84.75 233.92,-82.59"/>
</a>
</g>
</g>
<!-- Node29&#45;&gt;Node24 -->
<g id="edge62_Node000029_Node000024" class="edge">
<title>Node29&#45;&gt;Node24</title>
<g id="a_edge62_Node000029_Node000024"><a xlink:title=" ">
<path fill="none" stroke="#63b8ff" d="M864.93,-274.84C832.4,-256.16 755.35,-211.9 716.01,-189.3"/>
<polygon fill="#63b8ff" stroke="#63b8ff" points="717.29,-185.99 706.87,-184.05 713.8,-192.06 717.29,-185.99"/>
</a>
</g>
</g>
<!-- Node30 -->
<g id="Node000030" class="node">
<title>Node30</title>
<g id="a_Node000030"><a xlink:href="nodeset_8h.html" target="_top" xlink:title=" ">
<polygon fill="white" stroke="#666666" points="1308,-239 1212,-239 1212,-220 1308,-220 1308,-239"/>
<text text-anchor="middle" x="1260" y="-227" font-family="Helvetica,sans-Serif" font-size="10.00">realm/nodeset.h</text>
</a>
</g>
</g>
<!-- Node29&#45;&gt;Node30 -->
<g id="edge48_Node000029_Node000030" class="edge">
<title>Node29&#45;&gt;Node30</title>
<g id="a_edge48_Node000029_Node000030"><a xlink:title=" ">
<path fill="none" stroke="#63b8ff" d="M928.51,-276.73C998.26,-267.01 1126.7,-249.09 1201.57,-238.65"/>
<polygon fill="#63b8ff" stroke="#63b8ff" points="1202.35,-242.07 1211.77,-237.23 1201.38,-235.14 1202.35,-242.07"/>
</a>
</g>
</g>
<!-- Node38 -->
<g id="Node000038" class="node">
<title>Node38</title>
<g id="a_Node000038"><a xlink:href="bytearray_8h.html" target="_top" xlink:title=" ">
<polygon fill="white" stroke="#666666" points="931.5,-239 828.5,-239 828.5,-220 931.5,-220 931.5,-239"/>
<text text-anchor="middle" x="880" y="-227" font-family="Helvetica,sans-Serif" font-size="10.00">realm/bytearray.h</text>
</a>
</g>
</g>
<!-- Node29&#45;&gt;Node38 -->
<g id="edge63_Node000029_Node000038" class="edge">
<title>Node29&#45;&gt;Node38</title>
<g id="a_edge63_Node000029_Node000038"><a xlink:title=" ">
<path fill="none" stroke="#63b8ff" d="M880,-274.75C880,-267.8 880,-257.85 880,-249.13"/>
<polygon fill="#63b8ff" stroke="#63b8ff" points="883.5,-249.09 880,-239.09 876.5,-249.09 883.5,-249.09"/>
</a>
</g>
</g>
<!-- Node40 -->
<g id="Node000040" class="node">
<title>Node40</title>
<g id="a_Node000040"><a xlink:title=" ">
<polygon fill="#e0e0e0" stroke="#999999" points="1052.5,-239 949.5,-239 949.5,-220 1052.5,-220 1052.5,-239"/>
<text text-anchor="middle" x="1001" y="-227" font-family="Helvetica,sans-Serif" font-size="10.00">realm/network.inl</text>
</a>
</g>
</g>
<!-- Node29&#45;&gt;Node40 -->
<g id="edge67_Node000029_Node000040" class="edge">
<title>Node29&#45;&gt;Node40</title>
<g id="a_edge67_Node000029_Node000040"><a xlink:title=" ">
<path fill="none" stroke="#63b8ff" d="M899.44,-274.98C918.99,-266.42 949.38,-253.11 971.82,-243.28"/>
<polygon fill="#63b8ff" stroke="#63b8ff" points="973.45,-246.39 981.2,-239.17 970.64,-239.98 973.45,-246.39"/>
</a>
</g>
</g>
<!-- Node30&#45;&gt;Node3 -->
<g id="edge49_Node000030_Node000003" class="edge">
<title>Node30&#45;&gt;Node3</title>
<g id="a_edge49_Node000030_Node000003"><a xlink:title=" ">
<path fill="none" stroke="#63b8ff" d="M1236.38,-219.9C1218.48,-212.49 1194.13,-200.39 1177,-184 1149.35,-157.55 1157.64,-139.27 1133,-110 1123.67,-98.92 1111.44,-88.31 1101.18,-80.22"/>
<polygon fill="#63b8ff" stroke="#63b8ff" points="1103.21,-77.37 1093.14,-74.07 1098.96,-82.93 1103.21,-77.37"/>
</a>
</g>
</g>
<!-- Node30&#45;&gt;Node10 -->
<g id="edge59_Node000030_Node000010" class="edge">
<title>Node30&#45;&gt;Node10</title>
<g id="a_edge59_Node000030_Node000010"><a xlink:title=" ">
<path fill="none" stroke="#63b8ff" d="M1308.03,-225.49C1365.1,-220.81 1455.22,-209.49 1476,-184 1501.24,-153.02 1468.03,-106.37 1446.59,-81.86"/>
<polygon fill="#63b8ff" stroke="#63b8ff" points="1448.93,-79.23 1439.61,-74.18 1443.74,-83.94 1448.93,-79.23"/>
</a>
</g>
</g>
<!-- Node31 -->
<g id="Node000031" class="node">
<title>Node31</title>
<g id="a_Node000031"><a xlink:href="mutex_8h.html" target="_top" xlink:title=" ">
<polygon fill="white" stroke="#666666" points="1466.5,-184 1377.5,-184 1377.5,-165 1466.5,-165 1466.5,-184"/>
<text text-anchor="middle" x="1422" y="-172" font-family="Helvetica,sans-Serif" font-size="10.00">realm/mutex.h</text>
</a>
</g>
</g>
<!-- Node30&#45;&gt;Node31 -->
<g id="edge50_Node000030_Node000031" class="edge">
<title>Node30&#45;&gt;Node31</title>
<g id="a_edge50_Node000030_Node000031"><a xlink:title=" ">
<path fill="none" stroke="#63b8ff" d="M1286.02,-219.98C1313.1,-211.13 1355.71,-197.19 1386,-187.28"/>
<polygon fill="#63b8ff" stroke="#63b8ff" points="1387.35,-190.52 1395.76,-184.08 1385.17,-183.87 1387.35,-190.52"/>
</a>
</g>
</g>
<!-- Node36 -->
<g id="Node000036" class="node">
<title>Node36</title>
<g id="a_Node000036"><a xlink:title=" ">
<polygon fill="#e0e0e0" stroke="#999999" points="1238.5,-184 1185.5,-184 1185.5,-165 1238.5,-165 1238.5,-184"/>
<text text-anchor="middle" x="1212" y="-172" font-family="Helvetica,sans-Serif" font-size="10.00">iterator</text>
</a>
</g>
</g>
<!-- Node30&#45;&gt;Node36 -->
<g id="edge60_Node000030_Node000036" class="edge">
<title>Node30&#45;&gt;Node36</title>
<g id="a_edge60_Node000030_Node000036"><a xlink:title=" ">
<path fill="none" stroke="#63b8ff" d="M1252.07,-219.75C1245.15,-212.11 1234.93,-200.82 1226.54,-191.56"/>
<polygon fill="#63b8ff" stroke="#63b8ff" points="1229.08,-189.15 1219.77,-184.09 1223.89,-193.85 1229.08,-189.15"/>
</a>
</g>
</g>
<!-- Node37 -->
<g id="Node000037" class="node">
<title>Node37</title>
<g id="a_Node000037"><a xlink:title=" ">
<polygon fill="#e0e0e0" stroke="#999999" points="1359,-184 1257,-184 1257,-165 1359,-165 1359,-184"/>
<text text-anchor="middle" x="1308" y="-172" font-family="Helvetica,sans-Serif" font-size="10.00">realm/nodeset.inl</text>
</a>
</g>
</g>
<!-- Node30&#45;&gt;Node37 -->
<g id="edge61_Node000030_Node000037" class="edge">
<title>Node30&#45;&gt;Node37</title>
<g id="a_edge61_Node000030_Node000037"><a xlink:title=" ">
<path fill="none" stroke="#63b8ff" d="M1267.92,-219.75C1274.84,-212.11 1285.06,-200.82 1293.45,-191.56"/>
<polygon fill="#63b8ff" stroke="#63b8ff" points="1296.1,-193.85 1300.22,-184.09 1290.91,-189.15 1296.1,-193.85"/>
</a>
</g>
</g>
<!-- Node31&#45;&gt;Node3 -->
<g id="edge51_Node000031_Node000003" class="edge">
<title>Node31&#45;&gt;Node3</title>
<g id="a_edge51_Node000031_Node000003"><a xlink:title=" ">
<path fill="none" stroke="#63b8ff" d="M1394.95,-164.94C1334.14,-145.68 1186.57,-98.94 1117.62,-77.1"/>
<polygon fill="#63b8ff" stroke="#63b8ff" points="1118.63,-73.75 1108.04,-74.07 1116.52,-80.42 1118.63,-73.75"/>
</a>
</g>
</g>
<!-- Node31&#45;&gt;Node10 -->
<g id="edge57_Node000031_Node000010" class="edge">
<title>Node31&#45;&gt;Node10</title>
<g id="a_edge57_Node000031_Node000010"><a xlink:title=" ">
<path fill="none" stroke="#63b8ff" d="M1422.73,-164.66C1424.19,-147.17 1427.47,-107.8 1429.43,-84.27"/>
<polygon fill="#63b8ff" stroke="#63b8ff" points="1432.93,-84.41 1430.27,-74.16 1425.96,-83.83 1432.93,-84.41"/>
</a>
</g>
</g>
<!-- Node31&#45;&gt;Node18 -->
<g id="edge52_Node000031_Node000018" class="edge">
<title>Node31&#45;&gt;Node18</title>
<g id="a_edge52_Node000031_Node000018"><a xlink:title=" ">
<path fill="none" stroke="#63b8ff" d="M1377.25,-166.16C1374.12,-165.74 1371.01,-165.35 1368,-165 1339.79,-161.77 938.84,-133.77 797.15,-123.91"/>
<polygon fill="#63b8ff" stroke="#63b8ff" points="797.23,-120.41 787.01,-123.21 796.74,-127.39 797.23,-120.41"/>
</a>
</g>
</g>
<!-- Node31&#45;&gt;Node32 -->
<g id="edge53_Node000031_Node000032" class="edge">
<title>Node31&#45;&gt;Node32</title>
<g id="a_edge53_Node000031_Node000032"><a xlink:title=" ">
<path fill="none" stroke="#63b8ff" d="M1444.49,-164.98C1467.52,-156.27 1503.54,-142.63 1529.63,-132.75"/>
<polygon fill="#63b8ff" stroke="#63b8ff" points="1530.98,-135.98 1539.09,-129.17 1528.5,-129.44 1530.98,-135.98"/>
</a>
</g>
</g>
<!-- Node35 -->
<g id="Node000035" class="node">
<title>Node35</title>
<g id="a_Node000035"><a xlink:title=" ">
<polygon fill="#e0e0e0" stroke="#999999" points="1402.5,-129 1307.5,-129 1307.5,-110 1402.5,-110 1402.5,-129"/>
<text text-anchor="middle" x="1355" y="-117" font-family="Helvetica,sans-Serif" font-size="10.00">realm/mutex.inl</text>
</a>
</g>
</g>
<!-- Node31&#45;&gt;Node35 -->
<g id="edge58_Node000031_Node000035" class="edge">
<title>Node31&#45;&gt;Node35</title>
<g id="a_edge58_Node000031_Node000035"><a xlink:title=" ">
<path fill="none" stroke="#63b8ff" d="M1411.23,-164.98C1401.23,-157.07 1386.11,-145.11 1374.06,-135.58"/>
<polygon fill="#63b8ff" stroke="#63b8ff" points="1375.97,-132.63 1365.96,-129.17 1371.63,-138.12 1375.97,-132.63"/>
</a>
</g>
</g>
<!-- Node32&#45;&gt;Node3 -->
<g id="edge54_Node000032_Node000003" class="edge">
<title>Node32&#45;&gt;Node3</title>
<g id="a_edge54_Node000032_Node000003"><a xlink:title=" ">
<path fill="none" stroke="#63b8ff" d="M1513.67,-113.18C1428.31,-103.77 1250.51,-84.18 1151.47,-73.27"/>
<polygon fill="#63b8ff" stroke="#63b8ff" points="1151.58,-69.76 1141.26,-72.14 1150.81,-76.71 1151.58,-69.76"/>
</a>
</g>
</g>
<!-- Node33 -->
<g id="Node000033" class="node">
<title>Node33</title>
<g id="a_Node000033"><a xlink:title=" ">
<polygon fill="#e0e0e0" stroke="#999999" points="1556,-74 1506,-74 1506,-55 1556,-55 1556,-74"/>
<text text-anchor="middle" x="1531" y="-62" font-family="Helvetica,sans-Serif" font-size="10.00">atomic</text>
</a>
</g>
</g>
<!-- Node32&#45;&gt;Node33 -->
<g id="edge55_Node000032_Node000033" class="edge">
<title>Node32&#45;&gt;Node33</title>
<g id="a_edge55_Node000032_Node000033"><a xlink:title=" ">
<path fill="none" stroke="#63b8ff" d="M1556.88,-109.75C1552.63,-102.49 1546.47,-91.95 1541.22,-82.98"/>
<polygon fill="#63b8ff" stroke="#63b8ff" points="1544.09,-80.95 1536.02,-74.09 1538.05,-84.49 1544.09,-80.95"/>
</a>
</g>
</g>
<!-- Node34 -->
<g id="Node000034" class="node">
<title>Node34</title>
<g id="a_Node000034"><a xlink:title=" ">
<polygon fill="#e0e0e0" stroke="#999999" points="1676,-74 1574,-74 1574,-55 1676,-55 1676,-74"/>
<text text-anchor="middle" x="1625" y="-62" font-family="Helvetica,sans-Serif" font-size="10.00">realm/atomics.inl</text>
</a>
</g>
</g>
<!-- Node32&#45;&gt;Node34 -->
<g id="edge56_Node000032_Node000034" class="edge">
<title>Node32&#45;&gt;Node34</title>
<g id="a_edge56_Node000032_Node000034"><a xlink:title=" ">
<path fill="none" stroke="#63b8ff" d="M1572.12,-109.98C1581.43,-102.15 1595.46,-90.34 1606.73,-80.86"/>
<polygon fill="#63b8ff" stroke="#63b8ff" points="1609.29,-83.29 1614.69,-74.17 1604.78,-77.93 1609.29,-83.29"/>
</a>
</g>
</g>
<!-- Node38&#45;&gt;Node9 -->
<g id="edge64_Node000038_Node000009" class="edge">
<title>Node38&#45;&gt;Node9</title>
<g id="a_edge64_Node000038_Node000009"><a xlink:title=" ">
<path fill="none" stroke="#63b8ff" d="M886.51,-219.69C896.25,-206.86 915.54,-182.62 935,-165 955.56,-146.38 973.23,-153.63 986,-129 993.84,-113.87 985.16,-95.57 976.12,-82.51"/>
<polygon fill="#63b8ff" stroke="#63b8ff" points="978.83,-80.28 970.01,-74.41 973.24,-84.5 978.83,-80.28"/>
</a>
</g>
</g>
<!-- Node39 -->
<g id="Node000039" class="node">
<title>Node39</title>
<g id="a_Node000039"><a xlink:title=" ">
<polygon fill="#e0e0e0" stroke="#999999" points="1052.5,-184 943.5,-184 943.5,-165 1052.5,-165 1052.5,-184"/>
<text text-anchor="middle" x="998" y="-172" font-family="Helvetica,sans-Serif" font-size="10.00">realm/bytearray.inl</text>
</a>
</g>
</g>
<!-- Node38&#45;&gt;Node39 -->
<g id="edge65_Node000038_Node000039" class="edge">
<title>Node38&#45;&gt;Node39</title>
<g id="a_edge65_Node000038_Node000039"><a xlink:title=" ">
<path fill="none" stroke="#63b8ff" d="M898.95,-219.98C918.02,-211.42 947.66,-198.11 969.54,-188.28"/>
<polygon fill="#63b8ff" stroke="#63b8ff" points="971,-191.46 978.69,-184.17 968.14,-185.07 971,-191.46"/>
</a>
</g>
</g>
</g>
</svg>
