<?xml version="1.0" encoding="UTF-8" standalone="no"?>
<!DOCTYPE svg PUBLIC "-//W3C//DTD SVG 1.1//EN"
 "http://www.w3.org/Graphics/SVG/1.1/DTD/svg11.dtd">
<!-- Generated by graphviz version 2.43.0 (0)
 -->
<!-- Title: /home/runner/work/realm/realm/realm&#45;src/src/realm/custom_serdez.h Pages: 1 -->
<svg width="1110pt" height="269pt"
 viewBox="0.00 0.00 1109.50 269.00" xmlns="http://www.w3.org/2000/svg" xmlns:xlink="http://www.w3.org/1999/xlink">
<g id="graph0" class="graph" transform="scale(1 1) rotate(0) translate(4 265)">
<title>/home/runner/work/realm/realm/realm&#45;src/src/realm/custom_serdez.h</title>
<!-- Node1 -->
<g id="Node000001" class="node">
<title>Node1</title>
<g id="a_Node000001"><a xlink:title=" ">
<polygon fill="#999999" stroke="#666666" points="847.5,-261 701.5,-261 701.5,-220 847.5,-220 847.5,-261"/>
<text text-anchor="start" x="709.5" y="-249" font-family="Helvetica,sans-Serif" font-size="10.00">/home/runner/work/realm</text>
<text text-anchor="start" x="709.5" y="-238" font-family="Helvetica,sans-Serif" font-size="10.00">/realm/realm&#45;src/src/realm</text>
<text text-anchor="middle" x="774.5" y="-227" font-family="Helvetica,sans-Serif" font-size="10.00">/custom_serdez.h</text>
</a>
</g>
</g>
<!-- Node2 -->
<g id="Node000002" class="node">
<title>Node2</title>
<g id="a_Node000002"><a xlink:href="serialize_8h.html" target="_top" xlink:title=" ">
<polygon fill="white" stroke="#666666" points="720.5,-184 622.5,-184 622.5,-165 720.5,-165 720.5,-184"/>
<text text-anchor="middle" x="671.5" y="-172" font-family="Helvetica,sans-Serif" font-size="10.00">realm/serialize.h</text>
</a>
</g>
</g>
<!-- Node1&#45;&gt;Node2 -->
<g id="edge1_Node000001_Node000002" class="edge">
<title>Node1&#45;&gt;Node2</title>
<g id="a_edge1_Node000001_Node000002"><a xlink:title=" ">
<path fill="none" stroke="#63b8ff" d="M743.04,-219.95C727.22,-210.12 708.41,-198.43 694.05,-189.51"/>
<polygon fill="#63b8ff" stroke="#63b8ff" points="695.67,-186.4 685.33,-184.09 691.97,-192.34 695.67,-186.4"/>
</a>
</g>
</g>
<!-- Node22 -->
<g id="Node000022" class="node">
<title>Node22</title>
<g id="a_Node000022"><a xlink:title=" ">
<polygon fill="#e0e0e0" stroke="#999999" points="810.5,-184 738.5,-184 738.5,-165 810.5,-165 810.5,-184"/>
<text text-anchor="middle" x="774.5" y="-172" font-family="Helvetica,sans-Serif" font-size="10.00">sys/types.h</text>
</a>
</g>
</g>
<!-- Node1&#45;&gt;Node22 -->
<g id="edge26_Node000001_Node000022" class="edge">
<title>Node1&#45;&gt;Node22</title>
<g id="a_edge26_Node000001_Node000022"><a xlink:title=" ">
<path fill="none" stroke="#63b8ff" d="M774.5,-219.95C774.5,-211.85 774.5,-202.5 774.5,-194.47"/>
<polygon fill="#63b8ff" stroke="#63b8ff" points="778,-194.26 774.5,-184.26 771,-194.26 778,-194.26"/>
</a>
</g>
</g>
<!-- Node23 -->
<g id="Node000023" class="node">
<title>Node23</title>
<g id="a_Node000023"><a xlink:title=" ">
<polygon fill="#e0e0e0" stroke="#999999" points="966,-184 829,-184 829,-165 966,-165 966,-184"/>
<text text-anchor="middle" x="897.5" y="-172" font-family="Helvetica,sans-Serif" font-size="10.00">realm/custom_serdez.inl</text>
</a>
</g>
</g>
<!-- Node1&#45;&gt;Node23 -->
<g id="edge27_Node000001_Node000023" class="edge">
<title>Node1&#45;&gt;Node23</title>
<g id="a_edge27_Node000001_Node000023"><a xlink:title=" ">
<path fill="none" stroke="#63b8ff" d="M812.07,-219.95C831.51,-209.84 854.71,-197.76 872.03,-188.75"/>
<polygon fill="#63b8ff" stroke="#63b8ff" points="873.73,-191.81 880.99,-184.09 870.5,-185.6 873.73,-191.81"/>
</a>
</g>
</g>
<!-- Node3 -->
<g id="Node000003" class="node">
<title>Node3</title>
<g id="a_Node000003"><a xlink:href="realm__config_8h.html" target="_top" xlink:title=" ">
<polygon fill="white" stroke="#666666" points="175.5,-74 55.5,-74 55.5,-55 175.5,-55 175.5,-74"/>
<text text-anchor="middle" x="115.5" y="-62" font-family="Helvetica,sans-Serif" font-size="10.00">realm/realm_config.h</text>
</a>
</g>
</g>
<!-- Node2&#45;&gt;Node3 -->
<g id="edge2_Node000002_Node000003" class="edge">
<title>Node2&#45;&gt;Node3</title>
<g id="a_edge2_Node000002_Node000003"><a xlink:title=" ">
<path fill="none" stroke="#63b8ff" d="M622.36,-170.03C553.89,-164.58 426.2,-152.16 319.5,-129 257.68,-115.58 187.69,-91.86 147.85,-77.52"/>
<polygon fill="#63b8ff" stroke="#63b8ff" points="148.99,-74.21 138.4,-74.08 146.6,-80.79 148.99,-74.21"/>
</a>
</g>
</g>
<!-- Node6 -->
<g id="Node000006" class="node">
<title>Node6</title>
<g id="a_Node000006"><a xlink:href="bytearray_8h.html" target="_top" xlink:title=" ">
<polygon fill="white" stroke="#666666" points="803,-129 700,-129 700,-110 803,-110 803,-129"/>
<text text-anchor="middle" x="751.5" y="-117" font-family="Helvetica,sans-Serif" font-size="10.00">realm/bytearray.h</text>
</a>
</g>
</g>
<!-- Node2&#45;&gt;Node6 -->
<g id="edge5_Node000002_Node000006" class="edge">
<title>Node2&#45;&gt;Node6</title>
<g id="a_edge5_Node000002_Node000006"><a xlink:title=" ">
<path fill="none" stroke="#63b8ff" d="M684.35,-164.98C696.64,-156.84 715.41,-144.41 729.98,-134.76"/>
<polygon fill="#63b8ff" stroke="#63b8ff" points="732.01,-137.61 738.41,-129.17 728.14,-131.78 732.01,-137.61"/>
</a>
</g>
</g>
<!-- Node7 -->
<g id="Node000007" class="node">
<title>Node7</title>
<g id="a_Node000007"><a xlink:title=" ">
<polygon fill="#e0e0e0" stroke="#999999" points="823.5,-74 767.5,-74 767.5,-55 823.5,-55 823.5,-74"/>
<text text-anchor="middle" x="795.5" y="-62" font-family="Helvetica,sans-Serif" font-size="10.00">stddef.h</text>
</a>
</g>
</g>
<!-- Node2&#45;&gt;Node7 -->
<g id="edge18_Node000002_Node000007" class="edge">
<title>Node2&#45;&gt;Node7</title>
<g id="a_edge18_Node000002_Node000007"><a xlink:title=" ">
<path fill="none" stroke="#63b8ff" d="M671.81,-165C672.74,-151.68 676.37,-125.77 690.5,-110 700.07,-99.31 732.48,-86.45 758.79,-77.32"/>
<polygon fill="#63b8ff" stroke="#63b8ff" points="760.17,-80.54 768.51,-74.01 757.92,-73.92 760.17,-80.54"/>
</a>
</g>
</g>
<!-- Node9 -->
<g id="Node000009" class="node">
<title>Node9</title>
<g id="a_Node000009"><a xlink:href="utils_8h.html" target="_top" xlink:title=" ">
<polygon fill="white" stroke="#666666" points="519.5,-129 441.5,-129 441.5,-110 519.5,-110 519.5,-129"/>
<text text-anchor="middle" x="480.5" y="-117" font-family="Helvetica,sans-Serif" font-size="10.00">realm/utils.h</text>
</a>
</g>
</g>
<!-- Node2&#45;&gt;Node9 -->
<g id="edge8_Node000002_Node000009" class="edge">
<title>Node2&#45;&gt;Node9</title>
<g id="a_edge8_Node000002_Node000009"><a xlink:title=" ">
<path fill="none" stroke="#63b8ff" d="M640.81,-164.98C608.33,-155.97 556.9,-141.7 521.09,-131.76"/>
<polygon fill="#63b8ff" stroke="#63b8ff" points="522,-128.38 511.43,-129.08 520.13,-135.13 522,-128.38"/>
</a>
</g>
</g>
<!-- Node10 -->
<g id="Node000010" class="node">
<title>Node10</title>
<g id="a_Node000010"><a xlink:title=" ">
<polygon fill="#e0e0e0" stroke="#999999" points="237.5,-74 193.5,-74 193.5,-55 237.5,-55 237.5,-74"/>
<text text-anchor="middle" x="215.5" y="-62" font-family="Helvetica,sans-Serif" font-size="10.00">string</text>
</a>
</g>
</g>
<!-- Node2&#45;&gt;Node10 -->
<g id="edge23_Node000002_Node000010" class="edge">
<title>Node2&#45;&gt;Node10</title>
<g id="a_edge23_Node000002_Node000010"><a xlink:title=" ">
<path fill="none" stroke="#63b8ff" d="M622.43,-169.45C563.5,-163.82 462.02,-151.66 377.5,-129 328.79,-115.94 274.72,-92.91 243,-78.47"/>
<polygon fill="#63b8ff" stroke="#63b8ff" points="244.06,-75.11 233.51,-74.1 241.13,-81.47 244.06,-75.11"/>
</a>
</g>
</g>
<!-- Node12 -->
<g id="Node000012" class="node">
<title>Node12</title>
<g id="a_Node000012"><a xlink:title=" ">
<polygon fill="#e0e0e0" stroke="#999999" points="303,-74 256,-74 256,-55 303,-55 303,-74"/>
<text text-anchor="middle" x="279.5" y="-62" font-family="Helvetica,sans-Serif" font-size="10.00">vector</text>
</a>
</g>
</g>
<!-- Node2&#45;&gt;Node12 -->
<g id="edge19_Node000002_Node000012" class="edge">
<title>Node2&#45;&gt;Node12</title>
<g id="a_edge19_Node000002_Node000012"><a xlink:title=" ">
<path fill="none" stroke="#63b8ff" d="M622.27,-167.41C573.45,-160.65 496.83,-148.11 432.5,-129 386.93,-115.46 336.41,-92.93 306.34,-78.66"/>
<polygon fill="#63b8ff" stroke="#63b8ff" points="307.49,-75.34 296.96,-74.17 304.47,-81.65 307.49,-75.34"/>
</a>
</g>
</g>
<!-- Node13 -->
<g id="Node000013" class="node">
<title>Node13</title>
<g id="a_Node000013"><a xlink:title=" ">
<polygon fill="#e0e0e0" stroke="#999999" points="749.5,-74 711.5,-74 711.5,-55 749.5,-55 749.5,-74"/>
<text text-anchor="middle" x="730.5" y="-62" font-family="Helvetica,sans-Serif" font-size="10.00">map</text>
</a>
</g>
</g>
<!-- Node2&#45;&gt;Node13 -->
<g id="edge22_Node000002_Node000013" class="edge">
<title>Node2&#45;&gt;Node13</title>
<g id="a_edge22_Node000002_Node000013"><a xlink:title=" ">
<path fill="none" stroke="#63b8ff" d="M665.9,-164.72C658.51,-151.91 647.55,-127.72 657.5,-110 666.95,-93.17 685.63,-81.96 701.73,-75"/>
<polygon fill="#63b8ff" stroke="#63b8ff" points="703.3,-78.14 711.31,-71.2 700.73,-71.63 703.3,-78.14"/>
</a>
</g>
</g>
<!-- Node18 -->
<g id="Node000018" class="node">
<title>Node18</title>
<g id="a_Node000018"><a xlink:title=" ">
<polygon fill="#e0e0e0" stroke="#999999" points="853.5,-129 821.5,-129 821.5,-110 853.5,-110 853.5,-129"/>
<text text-anchor="middle" x="837.5" y="-117" font-family="Helvetica,sans-Serif" font-size="10.00">list</text>
</a>
</g>
</g>
<!-- Node2&#45;&gt;Node18 -->
<g id="edge20_Node000002_Node000018" class="edge">
<title>Node2&#45;&gt;Node18</title>
<g id="a_edge20_Node000002_Node000018"><a xlink:title=" ">
<path fill="none" stroke="#63b8ff" d="M699.12,-164.98C725.69,-156.74 767.24,-143.74 811.82,-129.17"/>
<polygon fill="#63b8ff" stroke="#63b8ff" points="812.97,-132.48 821.38,-126.04 810.79,-125.83 812.97,-132.48"/>
</a>
</g>
</g>
<!-- Node19 -->
<g id="Node000019" class="node">
<title>Node19</title>
<g id="a_Node000019"><a xlink:title=" ">
<polygon fill="#e0e0e0" stroke="#999999" points="903.5,-129 871.5,-129 871.5,-110 903.5,-110 903.5,-129"/>
<text text-anchor="middle" x="887.5" y="-117" font-family="Helvetica,sans-Serif" font-size="10.00">set</text>
</a>
</g>
</g>
<!-- Node2&#45;&gt;Node19 -->
<g id="edge21_Node000002_Node000019" class="edge">
<title>Node2&#45;&gt;Node19</title>
<g id="a_edge21_Node000002_Node000019"><a xlink:title=" ">
<path fill="none" stroke="#63b8ff" d="M713.54,-164.96C750.31,-157.2 805.33,-144.93 861.65,-129.02"/>
<polygon fill="#63b8ff" stroke="#63b8ff" points="862.78,-132.34 871.44,-126.22 860.86,-125.61 862.78,-132.34"/>
</a>
</g>
</g>
<!-- Node20 -->
<g id="Node000020" class="node">
<title>Node20</title>
<g id="a_Node000020"><a xlink:title=" ">
<polygon fill="#e0e0e0" stroke="#999999" points="979,-129 922,-129 922,-110 979,-110 979,-129"/>
<text text-anchor="middle" x="950.5" y="-117" font-family="Helvetica,sans-Serif" font-size="10.00">typeinfo</text>
</a>
</g>
</g>
<!-- Node2&#45;&gt;Node20 -->
<g id="edge24_Node000002_Node000020" class="edge">
<title>Node2&#45;&gt;Node20</title>
<g id="a_edge24_Node000002_Node000020"><a xlink:title=" ">
<path fill="none" stroke="#63b8ff" d="M720.53,-165C767.11,-156.8 839.36,-143.77 911.69,-129.1"/>
<polygon fill="#63b8ff" stroke="#63b8ff" points="912.79,-132.45 921.89,-127.02 911.39,-125.59 912.79,-132.45"/>
</a>
</g>
</g>
<!-- Node21 -->
<g id="Node000021" class="node">
<title>Node21</title>
<g id="a_Node000021"><a xlink:title=" ">
<polygon fill="#e0e0e0" stroke="#999999" points="1101.5,-129 997.5,-129 997.5,-110 1101.5,-110 1101.5,-129"/>
<text text-anchor="middle" x="1049.5" y="-117" font-family="Helvetica,sans-Serif" font-size="10.00">realm/serialize.inl</text>
</a>
</g>
</g>
<!-- Node2&#45;&gt;Node21 -->
<g id="edge25_Node000002_Node000021" class="edge">
<title>Node2&#45;&gt;Node21</title>
<g id="a_edge25_Node000002_Node000021"><a xlink:title=" ">
<path fill="none" stroke="#63b8ff" d="M720.54,-166.29C723.57,-165.85 726.58,-165.42 729.5,-165 841.41,-149.02 871.75,-145.22 987.31,-129.16"/>
<polygon fill="#63b8ff" stroke="#63b8ff" points="987.83,-132.63 997.26,-127.78 986.87,-125.69 987.83,-132.63"/>
</a>
</g>
</g>
<!-- Node4 -->
<g id="Node000004" class="node">
<title>Node4</title>
<g id="a_Node000004"><a xlink:href="realm__defines_8h.html" target="_top" xlink:title=" ">
<polygon fill="white" stroke="#666666" points="95,-19 0,-19 0,0 95,0 95,-19"/>
<text text-anchor="middle" x="47.5" y="-7" font-family="Helvetica,sans-Serif" font-size="10.00">realm_defines.h</text>
</a>
</g>
</g>
<!-- Node3&#45;&gt;Node4 -->
<g id="edge3_Node000003_Node000004" class="edge">
<title>Node3&#45;&gt;Node4</title>
<g id="a_edge3_Node000003_Node000004"><a xlink:title=" ">
<path fill="none" stroke="#63b8ff" d="M104.57,-54.98C94.42,-47.07 79.08,-35.11 66.85,-25.58"/>
<polygon fill="#63b8ff" stroke="#63b8ff" points="68.66,-22.56 58.62,-19.17 64.36,-28.08 68.66,-22.56"/>
</a>
</g>
</g>
<!-- Node5 -->
<g id="Node000005" class="node">
<title>Node5</title>
<g id="a_Node000005"><a xlink:href="compiler__support_8h.html" target="_top" xlink:title=" ">
<polygon fill="white" stroke="#666666" points="255.5,-19 113.5,-19 113.5,0 255.5,0 255.5,-19"/>
<text text-anchor="middle" x="184.5" y="-7" font-family="Helvetica,sans-Serif" font-size="10.00">realm/compiler_support.h</text>
</a>
</g>
</g>
<!-- Node3&#45;&gt;Node5 -->
<g id="edge4_Node000003_Node000005" class="edge">
<title>Node3&#45;&gt;Node5</title>
<g id="a_edge4_Node000003_Node000005"><a xlink:title=" ">
<path fill="none" stroke="#63b8ff" d="M126.59,-54.98C136.99,-47 152.76,-34.88 165.22,-25.31"/>
<polygon fill="#63b8ff" stroke="#63b8ff" points="167.41,-28.04 173.21,-19.17 163.15,-22.49 167.41,-28.04"/>
</a>
</g>
</g>
<!-- Node6&#45;&gt;Node7 -->
<g id="edge6_Node000006_Node000007" class="edge">
<title>Node6&#45;&gt;Node7</title>
<g id="a_edge6_Node000006_Node000007"><a xlink:title=" ">
<path fill="none" stroke="#63b8ff" d="M758.77,-109.75C765.04,-102.18 774.29,-91.05 781.93,-81.84"/>
<polygon fill="#63b8ff" stroke="#63b8ff" points="784.67,-84.02 788.37,-74.09 779.29,-79.55 784.67,-84.02"/>
</a>
</g>
</g>
<!-- Node8 -->
<g id="Node000008" class="node">
<title>Node8</title>
<g id="a_Node000008"><a xlink:title=" ">
<polygon fill="#e0e0e0" stroke="#999999" points="951,-74 842,-74 842,-55 951,-55 951,-74"/>
<text text-anchor="middle" x="896.5" y="-62" font-family="Helvetica,sans-Serif" font-size="10.00">realm/bytearray.inl</text>
</a>
</g>
</g>
<!-- Node6&#45;&gt;Node8 -->
<g id="edge7_Node000006_Node000008" class="edge">
<title>Node6&#45;&gt;Node8</title>
<g id="a_edge7_Node000006_Node000008"><a xlink:title=" ">
<path fill="none" stroke="#63b8ff" d="M774.8,-109.98C798.75,-101.23 836.28,-87.51 863.33,-77.62"/>
<polygon fill="#63b8ff" stroke="#63b8ff" points="864.59,-80.89 872.78,-74.17 862.19,-74.32 864.59,-80.89"/>
</a>
</g>
</g>
<!-- Node9&#45;&gt;Node3 -->
<g id="edge9_Node000009_Node000003" class="edge">
<title>Node9&#45;&gt;Node3</title>
<g id="a_edge9_Node000009_Node000003"><a xlink:title=" ">
<path fill="none" stroke="#63b8ff" d="M441.44,-112.83C380.01,-103.91 260.02,-86.49 184.02,-75.45"/>
<polygon fill="#63b8ff" stroke="#63b8ff" points="184.45,-71.98 174.05,-74 183.45,-78.9 184.45,-71.98"/>
</a>
</g>
</g>
<!-- Node9&#45;&gt;Node10 -->
<g id="edge10_Node000009_Node000010" class="edge">
<title>Node9&#45;&gt;Node10</title>
<g id="a_edge10_Node000009_Node000010"><a xlink:title=" ">
<path fill="none" stroke="#63b8ff" d="M441.38,-112.04C396.76,-104.46 321.41,-91 247.71,-74.13"/>
<polygon fill="#63b8ff" stroke="#63b8ff" points="248.33,-70.68 237.8,-71.84 246.75,-77.5 248.33,-70.68"/>
</a>
</g>
</g>
<!-- Node11 -->
<g id="Node000011" class="node">
<title>Node11</title>
<g id="a_Node000011"><a xlink:title=" ">
<polygon fill="#e0e0e0" stroke="#999999" points="555,-74 498,-74 498,-55 555,-55 555,-74"/>
<text text-anchor="middle" x="526.5" y="-62" font-family="Helvetica,sans-Serif" font-size="10.00">ostream</text>
</a>
</g>
</g>
<!-- Node9&#45;&gt;Node11 -->
<g id="edge11_Node000009_Node000011" class="edge">
<title>Node9&#45;&gt;Node11</title>
<g id="a_edge11_Node000009_Node000011"><a xlink:title=" ">
<path fill="none" stroke="#63b8ff" d="M488.1,-109.75C494.66,-102.18 504.32,-91.05 512.31,-81.84"/>
<polygon fill="#63b8ff" stroke="#63b8ff" points="515.13,-83.94 519.05,-74.09 509.85,-79.35 515.13,-83.94"/>
</a>
</g>
</g>
<!-- Node9&#45;&gt;Node12 -->
<g id="edge12_Node000009_Node000012" class="edge">
<title>Node9&#45;&gt;Node12</title>
<g id="a_edge12_Node000009_Node000012"><a xlink:title=" ">
<path fill="none" stroke="#63b8ff" d="M448.21,-109.98C411.18,-100.22 350.77,-84.29 313.18,-74.38"/>
<polygon fill="#63b8ff" stroke="#63b8ff" points="313.78,-70.92 303.22,-71.75 312,-77.69 313.78,-70.92"/>
</a>
</g>
</g>
<!-- Node9&#45;&gt;Node13 -->
<g id="edge13_Node000009_Node000013" class="edge">
<title>Node9&#45;&gt;Node13</title>
<g id="a_edge13_Node000009_Node000013"><a xlink:title=" ">
<path fill="none" stroke="#63b8ff" d="M519.66,-111.84C562.21,-104.33 632.37,-91.2 701.54,-74.05"/>
<polygon fill="#63b8ff" stroke="#63b8ff" points="702.44,-77.43 711.29,-71.6 700.74,-70.64 702.44,-77.43"/>
</a>
</g>
</g>
<!-- Node14 -->
<g id="Node000014" class="node">
<title>Node14</title>
<g id="a_Node000014"><a xlink:title=" ">
<polygon fill="#e0e0e0" stroke="#999999" points="625.5,-74 573.5,-74 573.5,-55 625.5,-55 625.5,-74"/>
<text text-anchor="middle" x="599.5" y="-62" font-family="Helvetica,sans-Serif" font-size="10.00">cassert</text>
</a>
</g>
</g>
<!-- Node9&#45;&gt;Node14 -->
<g id="edge14_Node000009_Node000014" class="edge">
<title>Node9&#45;&gt;Node14</title>
<g id="a_edge14_Node000009_Node000014"><a xlink:title=" ">
<path fill="none" stroke="#63b8ff" d="M499.62,-109.98C518.85,-101.42 548.73,-88.11 570.81,-78.28"/>
<polygon fill="#63b8ff" stroke="#63b8ff" points="572.32,-81.44 580.03,-74.17 569.47,-75.04 572.32,-81.44"/>
</a>
</g>
</g>
<!-- Node15 -->
<g id="Node000015" class="node">
<title>Node15</title>
<g id="a_Node000015"><a xlink:title=" ">
<polygon fill="#e0e0e0" stroke="#999999" points="693.5,-74 643.5,-74 643.5,-55 693.5,-55 693.5,-74"/>
<text text-anchor="middle" x="668.5" y="-62" font-family="Helvetica,sans-Serif" font-size="10.00">cstdint</text>
</a>
</g>
</g>
<!-- Node9&#45;&gt;Node15 -->
<g id="edge15_Node000009_Node000015" class="edge">
<title>Node9&#45;&gt;Node15</title>
<g id="a_edge15_Node000009_Node000015"><a xlink:title=" ">
<path fill="none" stroke="#63b8ff" d="M510.71,-109.98C544.24,-100.53 598.29,-85.29 633.61,-75.34"/>
<polygon fill="#63b8ff" stroke="#63b8ff" points="634.81,-78.64 643.48,-72.55 632.91,-71.9 634.81,-78.64"/>
</a>
</g>
</g>
<!-- Node16 -->
<g id="Node000016" class="node">
<title>Node16</title>
<g id="a_Node000016"><a xlink:title=" ">
<polygon fill="#e0e0e0" stroke="#999999" points="377.5,-74 321.5,-74 321.5,-55 377.5,-55 377.5,-74"/>
<text text-anchor="middle" x="349.5" y="-62" font-family="Helvetica,sans-Serif" font-size="10.00">sstream</text>
</a>
</g>
</g>
<!-- Node9&#45;&gt;Node16 -->
<g id="edge16_Node000009_Node000016" class="edge">
<title>Node9&#45;&gt;Node16</title>
<g id="a_edge16_Node000009_Node000016"><a xlink:title=" ">
<path fill="none" stroke="#63b8ff" d="M459.45,-109.98C438.09,-101.34 404.8,-87.87 380.44,-78.02"/>
<polygon fill="#63b8ff" stroke="#63b8ff" points="381.51,-74.68 370.93,-74.17 378.89,-81.17 381.51,-74.68"/>
</a>
</g>
</g>
<!-- Node17 -->
<g id="Node000017" class="node">
<title>Node17</title>
<g id="a_Node000017"><a xlink:title=" ">
<polygon fill="#e0e0e0" stroke="#999999" points="479.5,-74 395.5,-74 395.5,-55 479.5,-55 479.5,-74"/>
<text text-anchor="middle" x="437.5" y="-62" font-family="Helvetica,sans-Serif" font-size="10.00">realm/utils.inl</text>
</a>
</g>
</g>
<!-- Node9&#45;&gt;Node17 -->
<g id="edge17_Node000009_Node000017" class="edge">
<title>Node9&#45;&gt;Node17</title>
<g id="a_edge17_Node000009_Node000017"><a xlink:title=" ">
<path fill="none" stroke="#63b8ff" d="M473.4,-109.75C467.33,-102.26 458.41,-91.28 450.99,-82.13"/>
<polygon fill="#63b8ff" stroke="#63b8ff" points="453.49,-79.65 444.47,-74.09 448.05,-84.06 453.49,-79.65"/>
</a>
</g>
</g>
</g>
</svg>
