<?xml version="1.0" encoding="UTF-8" standalone="no"?>
<!DOCTYPE svg PUBLIC "-//W3C//DTD SVG 1.1//EN"
 "http://www.w3.org/Graphics/SVG/1.1/DTD/svg11.dtd">
<!-- Generated by graphviz version 2.43.0 (0)
 -->
<!-- Title: /home/runner/work/realm/realm/realm&#45;src/src/realm Pages: 1 -->
<svg width="1005pt" height="204pt"
 viewBox="0.00 0.00 1005.00 204.00" xmlns="http://www.w3.org/2000/svg" xmlns:xlink="http://www.w3.org/1999/xlink">
<g id="graph0" class="graph" transform="scale(1 1) rotate(0) translate(4 200)">
<title>/home/runner/work/realm/realm/realm&#45;src/src/realm</title>
<g id="clust1" class="cluster">
<title>clusterdir_ee9be144b9bbb327f7901f15e8330b27</title>
<g id="a_clust1"><a xlink:href="dir_ee9be144b9bbb327f7901f15e8330b27.html" target="_top" xlink:title="src">
<polygon fill="#daedff" stroke="#404040" stroke-dasharray="5,2" points="8,-8 8,-188 989,-188 989,-8 8,-8"/>
<text text-anchor="middle" x="498.5" y="-176" font-family="Helvetica,sans-Serif" font-size="10.00">src</text>
</a>
</g>
</g>
<g id="clust2" class="cluster">
<title>clusterdir_06cde62235d8b7ed0bac91e2b7ac07d2</title>
<g id="a_clust2"><a xlink:href="dir_06cde62235d8b7ed0bac91e2b7ac07d2.html" target="_top">
<polygon fill="#daedff" stroke="#404040" stroke-width="2" points="16,-16 16,-161 981,-161 981,-16 16,-16"/>
</a>
</g>
</g>
<!-- dir_06cde62235d8b7ed0bac91e2b7ac07d2 -->
<g id="node1" class="node">
<title>dir_06cde62235d8b7ed0bac91e2b7ac07d2</title>
<text text-anchor="middle" x="950" y="-141" font-family="Helvetica,sans-Serif" font-size="10.00">realm</text>
</g>
<!-- dir_a498dfc789aac7a8df1cb4182582102a -->
<g id="node3" class="node">
<title>dir_a498dfc789aac7a8df1cb4182582102a</title>
<g id="a_node3"><a xlink:href="dir_a498dfc789aac7a8df1cb4182582102a.html" target="_top" xlink:title="deppart">
<polygon fill="#4ea9ff" stroke="#404040" points="840,-43 786,-43 786,-24 840,-24 840,-43"/>
<text text-anchor="middle" x="813" y="-31" font-family="Helvetica,sans-Serif" font-size="10.00">deppart</text>
</a>
</g>
</g>
<!-- dir_06cde62235d8b7ed0bac91e2b7ac07d2&#45;&gt;dir_a498dfc789aac7a8df1cb4182582102a -->
<g id="edge2" class="edge">
<title>dir_06cde62235d8b7ed0bac91e2b7ac07d2&#45;&gt;dir_a498dfc789aac7a8df1cb4182582102a</title>
<g id="a_edge2"><a xlink:href="dir_000018_000002.html" target="_top">
<path fill="none" stroke="#63b8ff" d="M938.79,-133.66C915.39,-115.22 861.13,-72.45 832.12,-49.57"/>
<polygon fill="#63b8ff" stroke="#63b8ff" points="834,-46.6 823.98,-43.16 829.67,-52.1 834,-46.6"/>
</a>
</g>
<g id="a_edge2&#45;headlabel"><a xlink:href="dir_000018_000002.html" target="_top" xlink:title="2">
<text text-anchor="middle" x="838.58" y="-44.1" font-family="Helvetica,sans-Serif" font-size="10.00" fill="#63b8ff">2</text>
</a>
</g>
</g>
<!-- dir_1bb23b82c02807b960e9bec9b270f04c -->
<g id="node16" class="node">
<title>dir_1bb23b82c02807b960e9bec9b270f04c</title>
<g id="a_node16"><a xlink:href="dir_1bb23b82c02807b960e9bec9b270f04c.html" target="_top" xlink:title="transfer">
<polygon fill="#4ea9ff" stroke="#404040" points="761.5,-98 706.5,-98 706.5,-79 761.5,-79 761.5,-98"/>
<text text-anchor="middle" x="734" y="-86" font-family="Helvetica,sans-Serif" font-size="10.00">transfer</text>
</a>
</g>
</g>
<!-- dir_06cde62235d8b7ed0bac91e2b7ac07d2&#45;&gt;dir_1bb23b82c02807b960e9bec9b270f04c -->
<g id="edge1" class="edge">
<title>dir_06cde62235d8b7ed0bac91e2b7ac07d2&#45;&gt;dir_1bb23b82c02807b960e9bec9b270f04c</title>
<g id="a_edge1"><a xlink:href="dir_000018_000020.html" target="_top">
<path fill="none" stroke="#63b8ff" d="M927.29,-136.4C924.17,-135.58 921.01,-134.76 918,-134 867.48,-121.18 808.94,-107.17 771.7,-98.36"/>
<polygon fill="#63b8ff" stroke="#63b8ff" points="772.33,-94.91 761.79,-96.02 770.72,-101.72 772.33,-94.91"/>
</a>
</g>
<g id="a_edge1&#45;headlabel"><a xlink:href="dir_000018_000020.html" target="_top" xlink:title="8">
<text text-anchor="middle" x="776.48" y="-90.47" font-family="Helvetica,sans-Serif" font-size="10.00" fill="#63b8ff">8</text>
</a>
</g>
</g>
<!-- dir_a4d6ae311adfc804423539110c391532 -->
<g id="node2" class="node">
<title>dir_a4d6ae311adfc804423539110c391532</title>
<g id="a_node2"><a xlink:href="dir_a4d6ae311adfc804423539110c391532.html" target="_top" xlink:title="cuda">
<polygon fill="#4ea9ff" stroke="#404040" points="909,-153 869,-153 869,-134 909,-134 909,-153"/>
<text text-anchor="middle" x="889" y="-141" font-family="Helvetica,sans-Serif" font-size="10.00">cuda</text>
</a>
</g>
</g>
<!-- dir_a4d6ae311adfc804423539110c391532&#45;&gt;dir_1bb23b82c02807b960e9bec9b270f04c -->
<g id="edge3" class="edge">
<title>dir_a4d6ae311adfc804423539110c391532&#45;&gt;dir_1bb23b82c02807b960e9bec9b270f04c</title>
<g id="a_edge3"><a xlink:href="dir_000001_000020.html" target="_top">
<path fill="none" stroke="#63b8ff" d="M868.74,-135.57C843.26,-126.86 799.16,-111.78 768.37,-101.25"/>
<polygon fill="#63b8ff" stroke="#63b8ff" points="769.48,-97.93 758.88,-98.01 767.21,-104.56 769.48,-97.93"/>
</a>
</g>
<g id="a_edge3&#45;headlabel"><a xlink:href="dir_000001_000020.html" target="_top" xlink:title="2">
<text text-anchor="middle" x="773.8" y="-93.91" font-family="Helvetica,sans-Serif" font-size="10.00" fill="#63b8ff">2</text>
</a>
</g>
</g>
<!-- dir_70e8a9b15ee2cc72fd9a4d6a34cd8de0 -->
<g id="node4" class="node">
<title>dir_70e8a9b15ee2cc72fd9a4d6a34cd8de0</title>
<g id="a_node4"><a xlink:href="dir_70e8a9b15ee2cc72fd9a4d6a34cd8de0.html" target="_top" xlink:title="gasnet1">
<polygon fill="#4ea9ff" stroke="#404040" points="851,-153 795,-153 795,-134 851,-134 851,-153"/>
<text text-anchor="middle" x="823" y="-141" font-family="Helvetica,sans-Serif" font-size="10.00">gasnet1</text>
</a>
</g>
</g>
<!-- dir_95db98224eb943a7bf30450c20eb751e -->
<g id="node5" class="node">
<title>dir_95db98224eb943a7bf30450c20eb751e</title>
<g id="a_node5"><a xlink:href="dir_95db98224eb943a7bf30450c20eb751e.html" target="_top" xlink:title="gasnetex">
<polygon fill="#4ea9ff" stroke="#404040" points="777,-153 715,-153 715,-134 777,-134 777,-153"/>
<text text-anchor="middle" x="746" y="-141" font-family="Helvetica,sans-Serif" font-size="10.00">gasnetex</text>
</a>
</g>
</g>
<!-- dir_ebe2abf7780278fef16bb52cd2aa5cfe -->
<g id="node6" class="node">
<title>dir_ebe2abf7780278fef16bb52cd2aa5cfe</title>
<g id="a_node6"><a xlink:href="dir_ebe2abf7780278fef16bb52cd2aa5cfe.html" target="_top" xlink:title="hdf5">
<polygon fill="#4ea9ff" stroke="#404040" points="697,-153 659,-153 659,-134 697,-134 697,-153"/>
<text text-anchor="middle" x="678" y="-141" font-family="Helvetica,sans-Serif" font-size="10.00">hdf5</text>
</a>
</g>
</g>
<!-- dir_ebe2abf7780278fef16bb52cd2aa5cfe&#45;&gt;dir_1bb23b82c02807b960e9bec9b270f04c -->
<g id="edge4" class="edge">
<title>dir_ebe2abf7780278fef16bb52cd2aa5cfe&#45;&gt;dir_1bb23b82c02807b960e9bec9b270f04c</title>
<g id="a_edge4"><a xlink:href="dir_000006_000020.html" target="_top">
<path fill="none" stroke="#63b8ff" d="M687,-133.98C695.19,-126.23 707.51,-114.58 717.47,-105.14"/>
<polygon fill="#63b8ff" stroke="#63b8ff" points="719.98,-107.59 724.84,-98.17 715.17,-102.5 719.98,-107.59"/>
</a>
</g>
<g id="a_edge4&#45;headlabel"><a xlink:href="dir_000006_000020.html" target="_top" xlink:title="2">
<text text-anchor="middle" x="719.32" y="-109.62" font-family="Helvetica,sans-Serif" font-size="10.00" fill="#63b8ff">2</text>
</a>
</g>
</g>
<!-- dir_846932ae65fb6c13f149ccef41aee5b7 -->
<g id="node7" class="node">
<title>dir_846932ae65fb6c13f149ccef41aee5b7</title>
<g id="a_node7"><a xlink:href="dir_846932ae65fb6c13f149ccef41aee5b7.html" target="_top" xlink:title="hip">
<polygon fill="#4ea9ff" stroke="#404040" points="641,-153 609,-153 609,-134 641,-134 641,-153"/>
<text text-anchor="middle" x="625" y="-141" font-family="Helvetica,sans-Serif" font-size="10.00">hip</text>
</a>
</g>
</g>
<!-- dir_846932ae65fb6c13f149ccef41aee5b7&#45;&gt;dir_1bb23b82c02807b960e9bec9b270f04c -->
<g id="edge5" class="edge">
<title>dir_846932ae65fb6c13f149ccef41aee5b7&#45;&gt;dir_1bb23b82c02807b960e9bec9b270f04c</title>
<g id="a_edge5"><a xlink:href="dir_000007_000020.html" target="_top">
<path fill="none" stroke="#63b8ff" d="M641.08,-134.68C658.47,-126.23 686.45,-112.62 707.18,-102.54"/>
<polygon fill="#63b8ff" stroke="#63b8ff" points="708.94,-105.58 716.4,-98.06 705.88,-99.28 708.94,-105.58"/>
</a>
</g>
<g id="a_edge5&#45;headlabel"><a xlink:href="dir_000007_000020.html" target="_top" xlink:title="2">
<text text-anchor="middle" x="706.95" y="-107.2" font-family="Helvetica,sans-Serif" font-size="10.00" fill="#63b8ff">2</text>
</a>
</g>
</g>
<!-- dir_3d45a419016456ea70e4cc4ccbe35bfa -->
<g id="node8" class="node">
<title>dir_3d45a419016456ea70e4cc4ccbe35bfa</title>
<g id="a_node8"><a xlink:href="dir_3d45a419016456ea70e4cc4ccbe35bfa.html" target="_top" xlink:title="kokkos">
<polygon fill="#4ea9ff" stroke="#404040" points="591,-153 541,-153 541,-134 591,-134 591,-153"/>
<text text-anchor="middle" x="566" y="-141" font-family="Helvetica,sans-Serif" font-size="10.00">kokkos</text>
</a>
</g>
</g>
<!-- dir_2c26b804b0f43feb2b0df744e309e89e -->
<g id="node9" class="node">
<title>dir_2c26b804b0f43feb2b0df744e309e89e</title>
<g id="a_node9"><a xlink:href="dir_2c26b804b0f43feb2b0df744e309e89e.html" target="_top" xlink:title="llvmjit">
<polygon fill="#4ea9ff" stroke="#404040" points="523,-153 475,-153 475,-134 523,-134 523,-153"/>
<text text-anchor="middle" x="499" y="-141" font-family="Helvetica,sans-Serif" font-size="10.00">llvmjit</text>
</a>
</g>
</g>
<!-- dir_be0af65bdc219685d9d99cc648949664 -->
<g id="node10" class="node">
<title>dir_be0af65bdc219685d9d99cc648949664</title>
<g id="a_node10"><a xlink:href="dir_be0af65bdc219685d9d99cc648949664.html" target="_top" xlink:title="mpi">
<polygon fill="#4ea9ff" stroke="#404040" points="456.5,-153 421.5,-153 421.5,-134 456.5,-134 456.5,-153"/>
<text text-anchor="middle" x="439" y="-141" font-family="Helvetica,sans-Serif" font-size="10.00">mpi</text>
</a>
</g>
</g>
<!-- dir_39519724c8e54a0a4f3b389052111a5b -->
<g id="node11" class="node">
<title>dir_39519724c8e54a0a4f3b389052111a5b</title>
<g id="a_node11"><a xlink:href="dir_39519724c8e54a0a4f3b389052111a5b.html" target="_top" xlink:title="numa">
<polygon fill="#4ea9ff" stroke="#404040" points="403,-153 359,-153 359,-134 403,-134 403,-153"/>
<text text-anchor="middle" x="381" y="-141" font-family="Helvetica,sans-Serif" font-size="10.00">numa</text>
</a>
</g>
</g>
<!-- dir_5a42686bd71ab08ec0527ddf6ef4d754 -->
<g id="node12" class="node">
<title>dir_5a42686bd71ab08ec0527ddf6ef4d754</title>
<g id="a_node12"><a xlink:href="dir_5a42686bd71ab08ec0527ddf6ef4d754.html" target="_top" xlink:title="openmp">
<polygon fill="#4ea9ff" stroke="#404040" points="341,-153 285,-153 285,-134 341,-134 341,-153"/>
<text text-anchor="middle" x="313" y="-141" font-family="Helvetica,sans-Serif" font-size="10.00">openmp</text>
</a>
</g>
</g>
<!-- dir_82c8f48a18f64f9d7d1015a6f4b9dcc6 -->
<g id="node13" class="node">
<title>dir_82c8f48a18f64f9d7d1015a6f4b9dcc6</title>
<g id="a_node13"><a xlink:href="dir_82c8f48a18f64f9d7d1015a6f4b9dcc6.html" target="_top" xlink:title="prealm">
<polygon fill="#4ea9ff" stroke="#404040" points="266.5,-153 215.5,-153 215.5,-134 266.5,-134 266.5,-153"/>
<text text-anchor="middle" x="241" y="-141" font-family="Helvetica,sans-Serif" font-size="10.00">prealm</text>
</a>
</g>
</g>
<!-- dir_418c3936c4b9e4b894193f3e78b9343f -->
<g id="node14" class="node">
<title>dir_418c3936c4b9e4b894193f3e78b9343f</title>
<g id="a_node14"><a xlink:href="dir_418c3936c4b9e4b894193f3e78b9343f.html" target="_top" xlink:title="procset">
<polygon fill="#4ea9ff" stroke="#404040" points="197.5,-153 144.5,-153 144.5,-134 197.5,-134 197.5,-153"/>
<text text-anchor="middle" x="171" y="-141" font-family="Helvetica,sans-Serif" font-size="10.00">procset</text>
</a>
</g>
</g>
<!-- dir_c373a7c224f66fc436c47bafbf972340 -->
<g id="node15" class="node">
<title>dir_c373a7c224f66fc436c47bafbf972340</title>
<g id="a_node15"><a xlink:href="dir_c373a7c224f66fc436c47bafbf972340.html" target="_top" xlink:title="python">
<polygon fill="#4ea9ff" stroke="#404040" points="126,-153 76,-153 76,-134 126,-134 126,-153"/>
<text text-anchor="middle" x="101" y="-141" font-family="Helvetica,sans-Serif" font-size="10.00">python</text>
</a>
</g>
</g>
<!-- dir_1bb23b82c02807b960e9bec9b270f04c&#45;&gt;dir_a498dfc789aac7a8df1cb4182582102a -->
<g id="edge6" class="edge">
<title>dir_1bb23b82c02807b960e9bec9b270f04c&#45;&gt;dir_a498dfc789aac7a8df1cb4182582102a</title>
<g id="a_edge6"><a xlink:href="dir_000020_000002.html" target="_top">
<path fill="none" stroke="#63b8ff" d="M746.69,-78.98C758.83,-70.84 777.36,-58.41 791.75,-48.76"/>
<polygon fill="#63b8ff" stroke="#63b8ff" points="793.72,-51.65 800.08,-43.17 789.82,-45.84 793.72,-51.65"/>
</a>
</g>
<g id="a_edge6&#45;headlabel"><a xlink:href="dir_000020_000002.html" target="_top" xlink:title="1">
<text text-anchor="middle" x="792.32" y="-53.51" font-family="Helvetica,sans-Serif" font-size="10.00" fill="#63b8ff">1</text>
</a>
</g>
</g>
<!-- dir_6ad6fbbbc095c2f37926061395ffdf7f -->
<g id="node17" class="node">
<title>dir_6ad6fbbbc095c2f37926061395ffdf7f</title>
<g id="a_node17"><a xlink:href="dir_6ad6fbbbc095c2f37926061395ffdf7f.html" target="_top" xlink:title="ucx">
<polygon fill="#4ea9ff" stroke="#404040" points="58,-153 24,-153 24,-134 58,-134 58,-153"/>
<text text-anchor="middle" x="41" y="-141" font-family="Helvetica,sans-Serif" font-size="10.00">ucx</text>
</a>
</g>
</g>
<!-- dir_6ad6fbbbc095c2f37926061395ffdf7f&#45;&gt;dir_1bb23b82c02807b960e9bec9b270f04c -->
<g id="edge7" class="edge">
<title>dir_6ad6fbbbc095c2f37926061395ffdf7f&#45;&gt;dir_1bb23b82c02807b960e9bec9b270f04c</title>
<g id="a_edge7"><a xlink:href="dir_000021_000020.html" target="_top">
<path fill="none" stroke="#63b8ff" d="M58.18,-136.22C61.09,-135.35 64.11,-134.56 67,-134 189.06,-110.36 574.01,-95.12 696.31,-90.78"/>
<polygon fill="#63b8ff" stroke="#63b8ff" points="696.45,-94.28 706.33,-90.43 696.21,-87.28 696.45,-94.28"/>
</a>
</g>
<g id="a_edge7&#45;headlabel"><a xlink:href="dir_000021_000020.html" target="_top" xlink:title="1">
<text text-anchor="middle" x="692.96" y="-94.74" font-family="Helvetica,sans-Serif" font-size="10.00" fill="#63b8ff">1</text>
</a>
</g>
</g>
</g>
</svg>
