<?xml version="1.0" encoding="UTF-8" standalone="no"?>
<!DOCTYPE svg PUBLIC "-//W3C//DTD SVG 1.1//EN"
 "http://www.w3.org/Graphics/SVG/1.1/DTD/svg11.dtd">
<!-- Generated by graphviz version 2.43.0 (0)
 -->
<!-- Title: /home/runner/work/realm/realm/realm&#45;src/src/realm Pages: 1 -->
<svg width="937pt" height="149pt"
 viewBox="0.00 0.00 937.00 149.00" xmlns="http://www.w3.org/2000/svg" xmlns:xlink="http://www.w3.org/1999/xlink">
<g id="graph0" class="graph" transform="scale(1 1) rotate(0) translate(4 145)">
<title>/home/runner/work/realm/realm/realm&#45;src/src/realm</title>
<g id="clust1" class="cluster">
<title>clusterdir_ee9be144b9bbb327f7901f15e8330b27</title>
<g id="a_clust1"><a xlink:href="dir_ee9be144b9bbb327f7901f15e8330b27.html" target="_top" xlink:title="src">
<polygon fill="#daedff" stroke="#404040" stroke-dasharray="5,2" points="8,-8 8,-133 921,-133 921,-8 8,-8"/>
<text text-anchor="middle" x="464.5" y="-121" font-family="Helvetica,sans-Serif" font-size="10.00">src</text>
</a>
</g>
</g>
<g id="clust2" class="cluster">
<title>clusterdir_06cde62235d8b7ed0bac91e2b7ac07d2</title>
<g id="a_clust2"><a xlink:href="dir_06cde62235d8b7ed0bac91e2b7ac07d2.html" target="_top">
<polygon fill="#daedff" stroke="#404040" stroke-width="2" points="16,-16 16,-106 913,-106 913,-16 16,-16"/>
</a>
</g>
</g>
<!-- dir_06cde62235d8b7ed0bac91e2b7ac07d2 -->
<g id="node1" class="node">
<title>dir_06cde62235d8b7ed0bac91e2b7ac07d2</title>
<text text-anchor="middle" x="882" y="-86" font-family="Helvetica,sans-Serif" font-size="10.00">realm</text>
</g>
<!-- dir_a498dfc789aac7a8df1cb4182582102a -->
<g id="node3" class="node">
<title>dir_a498dfc789aac7a8df1cb4182582102a</title>
<g id="a_node3"><a xlink:href="dir_a498dfc789aac7a8df1cb4182582102a.html" target="_top" xlink:title="deppart">
<polygon fill="#4ea9ff" stroke="#404040" points="905,-43 851,-43 851,-24 905,-24 905,-43"/>
<text text-anchor="middle" x="878" y="-31" font-family="Helvetica,sans-Serif" font-size="10.00">deppart</text>
</a>
</g>
</g>
<!-- dir_06cde62235d8b7ed0bac91e2b7ac07d2&#45;&gt;dir_a498dfc789aac7a8df1cb4182582102a -->
<g id="edge1" class="edge">
<title>dir_06cde62235d8b7ed0bac91e2b7ac07d2&#45;&gt;dir_a498dfc789aac7a8df1cb4182582102a</title>
<g id="a_edge1"><a xlink:href="dir_000017_000002.html" target="_top">
<path fill="none" stroke="#63b8ff" d="M881.34,-78.75C880.82,-71.8 880.06,-61.85 879.41,-53.13"/>
<polygon fill="#63b8ff" stroke="#63b8ff" points="882.89,-52.8 878.65,-43.09 875.91,-53.32 882.89,-52.8"/>
</a>
</g>
<g id="a_edge1&#45;headlabel"><a xlink:href="dir_000017_000002.html" target="_top" xlink:title="1">
<text text-anchor="middle" x="885.99" y="-53.67" font-family="Helvetica,sans-Serif" font-size="10.00" fill="#63b8ff">1</text>
</a>
</g>
</g>
<!-- dir_a4d6ae311adfc804423539110c391532 -->
<g id="node2" class="node">
<title>dir_a4d6ae311adfc804423539110c391532</title>
<g id="a_node2"><a xlink:href="dir_a4d6ae311adfc804423539110c391532.html" target="_top" xlink:title="cuda">
<polygon fill="#4ea9ff" stroke="#404040" points="841,-98 801,-98 801,-79 841,-79 841,-98"/>
<text text-anchor="middle" x="821" y="-86" font-family="Helvetica,sans-Serif" font-size="10.00">cuda</text>
</a>
</g>
</g>
<!-- dir_1bb23b82c02807b960e9bec9b270f04c -->
<g id="node15" class="node">
<title>dir_1bb23b82c02807b960e9bec9b270f04c</title>
<g id="a_node15"><a xlink:href="dir_1bb23b82c02807b960e9bec9b270f04c.html" target="_top" xlink:title="transfer">
<polygon fill="#4ea9ff" stroke="#404040" points="610.5,-43 555.5,-43 555.5,-24 610.5,-24 610.5,-43"/>
<text text-anchor="middle" x="583" y="-31" font-family="Helvetica,sans-Serif" font-size="10.00">transfer</text>
</a>
</g>
</g>
<!-- dir_a4d6ae311adfc804423539110c391532&#45;&gt;dir_1bb23b82c02807b960e9bec9b270f04c -->
<g id="edge2" class="edge">
<title>dir_a4d6ae311adfc804423539110c391532&#45;&gt;dir_1bb23b82c02807b960e9bec9b270f04c</title>
<g id="a_edge2"><a xlink:href="dir_000001_000019.html" target="_top">
<path fill="none" stroke="#63b8ff" d="M800.77,-81.36C797.84,-80.53 794.85,-79.72 792,-79 732.48,-63.96 662.58,-49.77 620.59,-41.62"/>
<polygon fill="#63b8ff" stroke="#63b8ff" points="621.02,-38.14 610.54,-39.68 619.7,-45.01 621.02,-38.14"/>
</a>
</g>
<g id="a_edge2&#45;headlabel"><a xlink:href="dir_000001_000019.html" target="_top" xlink:title="2">
<text text-anchor="middle" x="625.09" y="-33.53" font-family="Helvetica,sans-Serif" font-size="10.00" fill="#63b8ff">2</text>
</a>
</g>
</g>
<!-- dir_70e8a9b15ee2cc72fd9a4d6a34cd8de0 -->
<g id="node4" class="node">
<title>dir_70e8a9b15ee2cc72fd9a4d6a34cd8de0</title>
<g id="a_node4"><a xlink:href="dir_70e8a9b15ee2cc72fd9a4d6a34cd8de0.html" target="_top" xlink:title="gasnet1">
<polygon fill="#4ea9ff" stroke="#404040" points="783,-98 727,-98 727,-79 783,-79 783,-98"/>
<text text-anchor="middle" x="755" y="-86" font-family="Helvetica,sans-Serif" font-size="10.00">gasnet1</text>
</a>
</g>
</g>
<!-- dir_95db98224eb943a7bf30450c20eb751e -->
<g id="node5" class="node">
<title>dir_95db98224eb943a7bf30450c20eb751e</title>
<g id="a_node5"><a xlink:href="dir_95db98224eb943a7bf30450c20eb751e.html" target="_top" xlink:title="gasnetex">
<polygon fill="#4ea9ff" stroke="#404040" points="709,-98 647,-98 647,-79 709,-79 709,-98"/>
<text text-anchor="middle" x="678" y="-86" font-family="Helvetica,sans-Serif" font-size="10.00">gasnetex</text>
</a>
</g>
</g>
<!-- dir_ebe2abf7780278fef16bb52cd2aa5cfe -->
<g id="node6" class="node">
<title>dir_ebe2abf7780278fef16bb52cd2aa5cfe</title>
<g id="a_node6"><a xlink:href="dir_ebe2abf7780278fef16bb52cd2aa5cfe.html" target="_top" xlink:title="hdf5">
<polygon fill="#4ea9ff" stroke="#404040" points="629,-98 591,-98 591,-79 629,-79 629,-98"/>
<text text-anchor="middle" x="610" y="-86" font-family="Helvetica,sans-Serif" font-size="10.00">hdf5</text>
</a>
</g>
</g>
<!-- dir_ebe2abf7780278fef16bb52cd2aa5cfe&#45;&gt;dir_1bb23b82c02807b960e9bec9b270f04c -->
<g id="edge3" class="edge">
<title>dir_ebe2abf7780278fef16bb52cd2aa5cfe&#45;&gt;dir_1bb23b82c02807b960e9bec9b270f04c</title>
<g id="a_edge3"><a xlink:href="dir_000006_000019.html" target="_top">
<path fill="none" stroke="#63b8ff" d="M605.54,-78.75C601.88,-71.57 596.59,-61.18 592.05,-52.27"/>
<polygon fill="#63b8ff" stroke="#63b8ff" points="595.03,-50.41 587.38,-43.09 588.8,-53.59 595.03,-50.41"/>
</a>
</g>
<g id="a_edge3&#45;headlabel"><a xlink:href="dir_000006_000019.html" target="_top" xlink:title="2">
<text text-anchor="middle" x="599.2" y="-49.82" font-family="Helvetica,sans-Serif" font-size="10.00" fill="#63b8ff">2</text>
</a>
</g>
</g>
<!-- dir_846932ae65fb6c13f149ccef41aee5b7 -->
<g id="node7" class="node">
<title>dir_846932ae65fb6c13f149ccef41aee5b7</title>
<g id="a_node7"><a xlink:href="dir_846932ae65fb6c13f149ccef41aee5b7.html" target="_top" xlink:title="hip">
<polygon fill="#4ea9ff" stroke="#404040" points="573,-98 541,-98 541,-79 573,-79 573,-98"/>
<text text-anchor="middle" x="557" y="-86" font-family="Helvetica,sans-Serif" font-size="10.00">hip</text>
</a>
</g>
</g>
<!-- dir_846932ae65fb6c13f149ccef41aee5b7&#45;&gt;dir_1bb23b82c02807b960e9bec9b270f04c -->
<g id="edge4" class="edge">
<title>dir_846932ae65fb6c13f149ccef41aee5b7&#45;&gt;dir_1bb23b82c02807b960e9bec9b270f04c</title>
<g id="a_edge4"><a xlink:href="dir_000007_000019.html" target="_top">
<path fill="none" stroke="#63b8ff" d="M561.29,-78.75C564.81,-71.57 569.91,-61.18 574.28,-52.27"/>
<polygon fill="#63b8ff" stroke="#63b8ff" points="577.52,-53.61 578.79,-43.09 571.24,-50.53 577.52,-53.61"/>
</a>
</g>
<g id="a_edge4&#45;headlabel"><a xlink:href="dir_000007_000019.html" target="_top" xlink:title="2">
<text text-anchor="middle" x="578.49" y="-55.59" font-family="Helvetica,sans-Serif" font-size="10.00" fill="#63b8ff">2</text>
</a>
</g>
</g>
<!-- dir_2c26b804b0f43feb2b0df744e309e89e -->
<g id="node8" class="node">
<title>dir_2c26b804b0f43feb2b0df744e309e89e</title>
<g id="a_node8"><a xlink:href="dir_2c26b804b0f43feb2b0df744e309e89e.html" target="_top" xlink:title="llvmjit">
<polygon fill="#4ea9ff" stroke="#404040" points="523,-98 475,-98 475,-79 523,-79 523,-98"/>
<text text-anchor="middle" x="499" y="-86" font-family="Helvetica,sans-Serif" font-size="10.00">llvmjit</text>
</a>
</g>
</g>
<!-- dir_be0af65bdc219685d9d99cc648949664 -->
<g id="node9" class="node">
<title>dir_be0af65bdc219685d9d99cc648949664</title>
<g id="a_node9"><a xlink:href="dir_be0af65bdc219685d9d99cc648949664.html" target="_top" xlink:title="mpi">
<polygon fill="#4ea9ff" stroke="#404040" points="456.5,-98 421.5,-98 421.5,-79 456.5,-79 456.5,-98"/>
<text text-anchor="middle" x="439" y="-86" font-family="Helvetica,sans-Serif" font-size="10.00">mpi</text>
</a>
</g>
</g>
<!-- dir_39519724c8e54a0a4f3b389052111a5b -->
<g id="node10" class="node">
<title>dir_39519724c8e54a0a4f3b389052111a5b</title>
<g id="a_node10"><a xlink:href="dir_39519724c8e54a0a4f3b389052111a5b.html" target="_top" xlink:title="numa">
<polygon fill="#4ea9ff" stroke="#404040" points="403,-98 359,-98 359,-79 403,-79 403,-98"/>
<text text-anchor="middle" x="381" y="-86" font-family="Helvetica,sans-Serif" font-size="10.00">numa</text>
</a>
</g>
</g>
<!-- dir_5a42686bd71ab08ec0527ddf6ef4d754 -->
<g id="node11" class="node">
<title>dir_5a42686bd71ab08ec0527ddf6ef4d754</title>
<g id="a_node11"><a xlink:href="dir_5a42686bd71ab08ec0527ddf6ef4d754.html" target="_top" xlink:title="openmp">
<polygon fill="#4ea9ff" stroke="#404040" points="341,-98 285,-98 285,-79 341,-79 341,-98"/>
<text text-anchor="middle" x="313" y="-86" font-family="Helvetica,sans-Serif" font-size="10.00">openmp</text>
</a>
</g>
</g>
<!-- dir_82c8f48a18f64f9d7d1015a6f4b9dcc6 -->
<g id="node12" class="node">
<title>dir_82c8f48a18f64f9d7d1015a6f4b9dcc6</title>
<g id="a_node12"><a xlink:href="dir_82c8f48a18f64f9d7d1015a6f4b9dcc6.html" target="_top" xlink:title="prealm">
<polygon fill="#4ea9ff" stroke="#404040" points="266.5,-98 215.5,-98 215.5,-79 266.5,-79 266.5,-98"/>
<text text-anchor="middle" x="241" y="-86" font-family="Helvetica,sans-Serif" font-size="10.00">prealm</text>
</a>
</g>
</g>
<!-- dir_418c3936c4b9e4b894193f3e78b9343f -->
<g id="node13" class="node">
<title>dir_418c3936c4b9e4b894193f3e78b9343f</title>
<g id="a_node13"><a xlink:href="dir_418c3936c4b9e4b894193f3e78b9343f.html" target="_top" xlink:title="procset">
<polygon fill="#4ea9ff" stroke="#404040" points="197.5,-98 144.5,-98 144.5,-79 197.5,-79 197.5,-98"/>
<text text-anchor="middle" x="171" y="-86" font-family="Helvetica,sans-Serif" font-size="10.00">procset</text>
</a>
</g>
</g>
<!-- dir_c373a7c224f66fc436c47bafbf972340 -->
<g id="node14" class="node">
<title>dir_c373a7c224f66fc436c47bafbf972340</title>
<g id="a_node14"><a xlink:href="dir_c373a7c224f66fc436c47bafbf972340.html" target="_top" xlink:title="python">
<polygon fill="#4ea9ff" stroke="#404040" points="126,-98 76,-98 76,-79 126,-79 126,-98"/>
<text text-anchor="middle" x="101" y="-86" font-family="Helvetica,sans-Serif" font-size="10.00">python</text>
</a>
</g>
</g>
<!-- dir_6ad6fbbbc095c2f37926061395ffdf7f -->
<g id="node16" class="node">
<title>dir_6ad6fbbbc095c2f37926061395ffdf7f</title>
<g id="a_node16"><a xlink:href="dir_6ad6fbbbc095c2f37926061395ffdf7f.html" target="_top" xlink:title="ucx">
<polygon fill="#4ea9ff" stroke="#404040" points="58,-98 24,-98 24,-79 58,-79 58,-98"/>
<text text-anchor="middle" x="41" y="-86" font-family="Helvetica,sans-Serif" font-size="10.00">ucx</text>
</a>
</g>
</g>
<!-- dir_6ad6fbbbc095c2f37926061395ffdf7f&#45;&gt;dir_1bb23b82c02807b960e9bec9b270f04c -->
<g id="edge5" class="edge">
<title>dir_6ad6fbbbc095c2f37926061395ffdf7f&#45;&gt;dir_1bb23b82c02807b960e9bec9b270f04c</title>
<g id="a_edge5"><a xlink:href="dir_000020_000019.html" target="_top">
<path fill="none" stroke="#63b8ff" d="M58.19,-81.27C61.1,-80.39 64.11,-79.59 67,-79 243.35,-43.07 459.36,-36.12 545.22,-34.8"/>
<polygon fill="#63b8ff" stroke="#63b8ff" points="545.32,-38.3 555.27,-34.66 545.22,-31.3 545.32,-38.3"/>
</a>
</g>
<g id="a_edge5&#45;headlabel"><a xlink:href="dir_000020_000019.html" target="_top" xlink:title="1">
<text text-anchor="middle" x="541.76" y="-38.69" font-family="Helvetica,sans-Serif" font-size="10.00" fill="#63b8ff">1</text>
</a>
</g>
</g>
</g>
</svg>
