<?xml version="1.0" encoding="UTF-8" standalone="no"?>
<!DOCTYPE svg PUBLIC "-//W3C//DTD SVG 1.1//EN"
 "http://www.w3.org/Graphics/SVG/1.1/DTD/svg11.dtd">
<!-- Generated by graphviz version 2.43.0 (0)
 -->
<!-- Title: /home/runner/work/realm/realm/realm&#45;src/src/realm/dynamic_templates.h Pages: 1 -->
<svg width="1967pt" height="665pt"
 viewBox="0.00 0.00 1967.49 665.00" xmlns="http://www.w3.org/2000/svg" xmlns:xlink="http://www.w3.org/1999/xlink">
<g id="graph0" class="graph" transform="scale(1 1) rotate(0) translate(4 661)">
<title>/home/runner/work/realm/realm/realm&#45;src/src/realm/dynamic_templates.h</title>
<!-- Node1 -->
<g id="Node000001" class="node">
<title>Node1</title>
<g id="a_Node000001"><a xlink:title=" ">
<polygon fill="#999999" stroke="#666666" points="474,-657 328,-657 328,-616 474,-616 474,-657"/>
<text text-anchor="start" x="336" y="-645" font-family="Helvetica,sans-Serif" font-size="10.00">/home/runner/work/realm</text>
<text text-anchor="start" x="336" y="-634" font-family="Helvetica,sans-Serif" font-size="10.00">/realm/realm&#45;src/src/realm</text>
<text text-anchor="middle" x="401" y="-623" font-family="Helvetica,sans-Serif" font-size="10.00">/dynamic_templates.h</text>
</a>
</g>
</g>
<!-- Node2 -->
<g id="Node000002" class="node">
<title>Node2</title>
<g id="a_Node000002"><a xlink:href="inst__helper_8h.html" target="_top" xlink:title=" ">
<polygon fill="white" stroke="#666666" points="474,-503 328,-503 328,-462 474,-462 474,-503"/>
<text text-anchor="start" x="336" y="-491" font-family="Helvetica,sans-Serif" font-size="10.00">/home/runner/work/realm</text>
<text text-anchor="start" x="336" y="-480" font-family="Helvetica,sans-Serif" font-size="10.00">/realm/realm&#45;src/src/realm</text>
<text text-anchor="middle" x="401" y="-469" font-family="Helvetica,sans-Serif" font-size="10.00">/deppart/inst_helper.h</text>
</a>
</g>
</g>
<!-- Node1&#45;&gt;Node2 -->
<g id="edge1_Node000001_Node000002" class="edge">
<title>Node1&#45;&gt;Node2</title>
<g id="a_edge1_Node000001_Node000002"><a xlink:title=" ">
<path fill="none" stroke="#63b8ff" d="M401,-605.58C401,-575.36 401,-529.53 401,-503.47"/>
<polygon fill="#63b8ff" stroke="#63b8ff" points="397.5,-605.94 401,-615.94 404.5,-605.94 397.5,-605.94"/>
</a>
</g>
</g>
<!-- Node3 -->
<g id="Node000003" class="node">
<title>Node3</title>
<g id="a_Node000003"><a xlink:href="partitions_8h.html" target="_top" xlink:title=" ">
<polygon fill="white" stroke="#666666" points="474,-426 328,-426 328,-385 474,-385 474,-426"/>
<text text-anchor="start" x="336" y="-414" font-family="Helvetica,sans-Serif" font-size="10.00">/home/runner/work/realm</text>
<text text-anchor="start" x="336" y="-403" font-family="Helvetica,sans-Serif" font-size="10.00">/realm/realm&#45;src/src/realm</text>
<text text-anchor="middle" x="401" y="-392" font-family="Helvetica,sans-Serif" font-size="10.00">/deppart/partitions.h</text>
</a>
</g>
</g>
<!-- Node1&#45;&gt;Node3 -->
<g id="edge16_Node000001_Node000003" class="edge">
<title>Node1&#45;&gt;Node3</title>
<g id="a_edge16_Node000001_Node000003"><a xlink:title=" ">
<path fill="none" stroke="#63b8ff" d="M377.25,-607.61C357.31,-582.23 330.3,-542.74 319,-503 314.02,-485.47 310.46,-478.1 319,-462 327.14,-446.66 341.62,-434.79 356.17,-426.03"/>
<polygon fill="#63b8ff" stroke="#63b8ff" points="374.73,-610.06 383.71,-615.66 380.18,-605.67 374.73,-610.06"/>
</a>
</g>
</g>
<!-- Node17 -->
<g id="Node000017" class="node">
<title>Node17</title>
<g id="a_Node000017"><a xlink:href="indexspace_8h.html" target="_top" xlink:title=" ">
<polygon fill="white" stroke="#666666" points="979,-580 833,-580 833,-539 979,-539 979,-580"/>
<text text-anchor="start" x="841" y="-568" font-family="Helvetica,sans-Serif" font-size="10.00">/home/runner/work/realm</text>
<text text-anchor="start" x="841" y="-557" font-family="Helvetica,sans-Serif" font-size="10.00">/realm/realm&#45;src/src/realm</text>
<text text-anchor="middle" x="906" y="-546" font-family="Helvetica,sans-Serif" font-size="10.00">/indexspace.h</text>
</a>
</g>
</g>
<!-- Node1&#45;&gt;Node17 -->
<g id="edge17_Node000001_Node000017" class="edge">
<title>Node1&#45;&gt;Node17</title>
<g id="a_edge17_Node000001_Node000017"><a xlink:title=" ">
<path fill="none" stroke="#63b8ff" d="M484.23,-623.14C581.3,-608.72 740.25,-585.12 832.81,-571.37"/>
<polygon fill="#63b8ff" stroke="#63b8ff" points="483.54,-619.7 474.16,-624.63 484.57,-626.63 483.54,-619.7"/>
</a>
</g>
</g>
<!-- Node2&#45;&gt;Node3 -->
<g id="edge2_Node000002_Node000003" class="edge">
<title>Node2&#45;&gt;Node3</title>
<g id="a_edge2_Node000002_Node000003"><a xlink:title=" ">
<path fill="none" stroke="#63b8ff" d="M401,-451.69C401,-443.08 401,-433.9 401,-426.07"/>
<polygon fill="#63b8ff" stroke="#63b8ff" points="397.5,-451.79 401,-461.79 404.5,-451.79 397.5,-451.79"/>
</a>
</g>
</g>
<!-- Node4 -->
<g id="Node000004" class="node">
<title>Node4</title>
<g id="a_Node000004"><a xlink:href="byfield_8h.html" target="_top" xlink:title=" ">
<polygon fill="white" stroke="#666666" points="310,-349 164,-349 164,-308 310,-308 310,-349"/>
<text text-anchor="start" x="172" y="-337" font-family="Helvetica,sans-Serif" font-size="10.00">/home/runner/work/realm</text>
<text text-anchor="start" x="172" y="-326" font-family="Helvetica,sans-Serif" font-size="10.00">/realm/realm&#45;src/src/realm</text>
<text text-anchor="middle" x="237" y="-315" font-family="Helvetica,sans-Serif" font-size="10.00">/deppart/byfield.h</text>
</a>
</g>
</g>
<!-- Node3&#45;&gt;Node4 -->
<g id="edge3_Node000003_Node000004" class="edge">
<title>Node3&#45;&gt;Node4</title>
<g id="a_edge3_Node000003_Node000004"><a xlink:title=" ">
<path fill="none" stroke="#63b8ff" d="M349.01,-380.72C326.68,-370.51 300.92,-358.73 279.73,-349.04"/>
<polygon fill="#63b8ff" stroke="#63b8ff" points="347.79,-384.01 358.34,-384.99 350.7,-377.65 347.79,-384.01"/>
</a>
</g>
</g>
<!-- Node5 -->
<g id="Node000005" class="node">
<title>Node5</title>
<g id="a_Node000005"><a xlink:href="image_8h.html" target="_top" xlink:title=" ">
<polygon fill="white" stroke="#666666" points="676,-349 530,-349 530,-308 676,-308 676,-349"/>
<text text-anchor="start" x="538" y="-337" font-family="Helvetica,sans-Serif" font-size="10.00">/home/runner/work/realm</text>
<text text-anchor="start" x="538" y="-326" font-family="Helvetica,sans-Serif" font-size="10.00">/realm/realm&#45;src/src/realm</text>
<text text-anchor="middle" x="603" y="-315" font-family="Helvetica,sans-Serif" font-size="10.00">/deppart/image.h</text>
</a>
</g>
</g>
<!-- Node3&#45;&gt;Node5 -->
<g id="edge4_Node000003_Node000005" class="edge">
<title>Node3&#45;&gt;Node5</title>
<g id="a_edge4_Node000003_Node000005"><a xlink:title=" ">
<path fill="none" stroke="#63b8ff" d="M463.21,-381.4C491.12,-371.04 523.69,-358.95 550.37,-349.04"/>
<polygon fill="#63b8ff" stroke="#63b8ff" points="461.7,-378.23 453.55,-384.99 464.14,-384.79 461.7,-378.23"/>
</a>
</g>
</g>
<!-- Node6 -->
<g id="Node000006" class="node">
<title>Node6</title>
<g id="a_Node000006"><a xlink:href="preimage_8h.html" target="_top" xlink:title=" ">
<polygon fill="white" stroke="#666666" points="474,-349 328,-349 328,-308 474,-308 474,-349"/>
<text text-anchor="start" x="336" y="-337" font-family="Helvetica,sans-Serif" font-size="10.00">/home/runner/work/realm</text>
<text text-anchor="start" x="336" y="-326" font-family="Helvetica,sans-Serif" font-size="10.00">/realm/realm&#45;src/src/realm</text>
<text text-anchor="middle" x="401" y="-315" font-family="Helvetica,sans-Serif" font-size="10.00">/deppart/preimage.h</text>
</a>
</g>
</g>
<!-- Node3&#45;&gt;Node6 -->
<g id="edge5_Node000003_Node000006" class="edge">
<title>Node3&#45;&gt;Node6</title>
<g id="a_edge5_Node000003_Node000006"><a xlink:title=" ">
<path fill="none" stroke="#63b8ff" d="M401,-374.69C401,-366.08 401,-356.9 401,-349.07"/>
<polygon fill="#63b8ff" stroke="#63b8ff" points="397.5,-374.79 401,-384.79 404.5,-374.79 397.5,-374.79"/>
</a>
</g>
</g>
<!-- Node7 -->
<g id="Node000007" class="node">
<title>Node7</title>
<g id="a_Node000007"><a xlink:href="setops_8h.html" target="_top" xlink:title=" ">
<polygon fill="white" stroke="#666666" points="146,-349 0,-349 0,-308 146,-308 146,-349"/>
<text text-anchor="start" x="8" y="-337" font-family="Helvetica,sans-Serif" font-size="10.00">/home/runner/work/realm</text>
<text text-anchor="start" x="8" y="-326" font-family="Helvetica,sans-Serif" font-size="10.00">/realm/realm&#45;src/src/realm</text>
<text text-anchor="middle" x="73" y="-315" font-family="Helvetica,sans-Serif" font-size="10.00">/deppart/setops.h</text>
</a>
</g>
</g>
<!-- Node3&#45;&gt;Node7 -->
<g id="edge6_Node000003_Node000007" class="edge">
<title>Node3&#45;&gt;Node7</title>
<g id="a_edge6_Node000003_Node000007"><a xlink:title=" ">
<path fill="none" stroke="#63b8ff" d="M317.79,-385.98C270.1,-375.3 209.15,-361.55 155,-349 152.15,-348.34 149.24,-347.66 146.31,-346.98"/>
<polygon fill="#63b8ff" stroke="#63b8ff" points="317.23,-389.44 327.75,-388.21 318.76,-382.61 317.23,-389.44"/>
</a>
</g>
</g>
<!-- Node8 -->
<g id="Node000008" class="node">
<title>Node8</title>
<g id="a_Node000008"><a xlink:href="runtime__impl_8h.html" target="_top" xlink:title=" ">
<polygon fill="white" stroke="#666666" points="878,-195 732,-195 732,-154 878,-154 878,-195"/>
<text text-anchor="start" x="740" y="-183" font-family="Helvetica,sans-Serif" font-size="10.00">/home/runner/work/realm</text>
<text text-anchor="start" x="740" y="-172" font-family="Helvetica,sans-Serif" font-size="10.00">/realm/realm&#45;src/src/realm</text>
<text text-anchor="middle" x="805" y="-161" font-family="Helvetica,sans-Serif" font-size="10.00">/runtime_impl.h</text>
</a>
</g>
</g>
<!-- Node3&#45;&gt;Node8 -->
<g id="edge7_Node000003_Node000008" class="edge">
<title>Node3&#45;&gt;Node8</title>
<g id="a_edge7_Node000003_Node000008"><a xlink:title=" ">
<path fill="none" stroke="#63b8ff" d="M442.39,-379.15C455.82,-370.23 470.48,-359.74 483,-349 501.85,-332.82 500.92,-322.64 521,-308 592.11,-256.16 686.74,-216.93 746.78,-195.07"/>
<polygon fill="#63b8ff" stroke="#63b8ff" points="440.24,-376.37 433.77,-384.77 444.06,-382.24 440.24,-376.37"/>
</a>
</g>
</g>
<!-- Node9 -->
<g id="Node000009" class="node">
<title>Node9</title>
<g id="a_Node000009"><a xlink:href="proc__impl_8h.html" target="_top" xlink:title=" ">
<polygon fill="white" stroke="#666666" points="676,-118 530,-118 530,-77 676,-77 676,-118"/>
<text text-anchor="start" x="538" y="-106" font-family="Helvetica,sans-Serif" font-size="10.00">/home/runner/work/realm</text>
<text text-anchor="start" x="538" y="-95" font-family="Helvetica,sans-Serif" font-size="10.00">/realm/realm&#45;src/src/realm</text>
<text text-anchor="middle" x="603" y="-84" font-family="Helvetica,sans-Serif" font-size="10.00">/proc_impl.h</text>
</a>
</g>
</g>
<!-- Node8&#45;&gt;Node9 -->
<g id="edge8_Node000008_Node000009" class="edge">
<title>Node8&#45;&gt;Node9</title>
<g id="a_edge8_Node000008_Node000009"><a xlink:title=" ">
<path fill="none" stroke="#63b8ff" d="M742.79,-150.4C714.88,-140.04 682.31,-127.95 655.63,-118.04"/>
<polygon fill="#63b8ff" stroke="#63b8ff" points="741.86,-153.79 752.45,-153.99 744.3,-147.23 741.86,-153.79"/>
</a>
</g>
</g>
<!-- Node15 -->
<g id="Node000015" class="node">
<title>Node15</title>
<g id="a_Node000015"><a xlink:href="lowlevel__dma_8h.html" target="_top" xlink:title=" ">
<polygon fill="white" stroke="#666666" points="1602,-118 1456,-118 1456,-77 1602,-77 1602,-118"/>
<text text-anchor="start" x="1464" y="-106" font-family="Helvetica,sans-Serif" font-size="10.00">/home/runner/work/realm</text>
<text text-anchor="start" x="1464" y="-95" font-family="Helvetica,sans-Serif" font-size="10.00">/realm/realm&#45;src/src/realm</text>
<text text-anchor="middle" x="1529" y="-84" font-family="Helvetica,sans-Serif" font-size="10.00">/transfer/lowlevel_dma.h</text>
</a>
</g>
</g>
<!-- Node8&#45;&gt;Node15 -->
<g id="edge14_Node000008_Node000015" class="edge">
<title>Node8&#45;&gt;Node15</title>
<g id="a_edge14_Node000008_Node000015"><a xlink:title=" ">
<path fill="none" stroke="#63b8ff" d="M888.09,-164.89C1030.82,-150.11 1320.28,-120.12 1455.86,-106.08"/>
<polygon fill="#63b8ff" stroke="#63b8ff" points="887.66,-161.42 878.07,-165.93 888.38,-168.38 887.66,-161.42"/>
</a>
</g>
</g>
<!-- Node10 -->
<g id="Node000010" class="node">
<title>Node10</title>
<g id="a_Node000010"><a xlink:href="cuda__internal_8h.html" target="_top" xlink:title=" ">
<polygon fill="white" stroke="#666666" points="1181,-41 1035,-41 1035,0 1181,0 1181,-41"/>
<text text-anchor="start" x="1043" y="-29" font-family="Helvetica,sans-Serif" font-size="10.00">/home/runner/work/realm</text>
<text text-anchor="start" x="1043" y="-18" font-family="Helvetica,sans-Serif" font-size="10.00">/realm/realm&#45;src/src/realm</text>
<text text-anchor="middle" x="1108" y="-7" font-family="Helvetica,sans-Serif" font-size="10.00">/cuda/cuda_internal.h</text>
</a>
</g>
</g>
<!-- Node9&#45;&gt;Node10 -->
<g id="edge9_Node000009_Node000010" class="edge">
<title>Node9&#45;&gt;Node10</title>
<g id="a_edge9_Node000009_Node000010"><a xlink:title=" ">
<path fill="none" stroke="#63b8ff" d="M686.23,-84.14C783.3,-69.72 942.25,-46.12 1034.81,-32.37"/>
<polygon fill="#63b8ff" stroke="#63b8ff" points="685.54,-80.7 676.16,-85.63 686.57,-87.63 685.54,-80.7"/>
</a>
</g>
</g>
<!-- Node11 -->
<g id="Node000011" class="node">
<title>Node11</title>
<g id="a_Node000011"><a xlink:href="hip__internal_8h.html" target="_top" xlink:title=" ">
<polygon fill="white" stroke="#666666" points="922,-41 776,-41 776,0 922,0 922,-41"/>
<text text-anchor="start" x="784" y="-29" font-family="Helvetica,sans-Serif" font-size="10.00">/home/runner/work/realm</text>
<text text-anchor="start" x="784" y="-18" font-family="Helvetica,sans-Serif" font-size="10.00">/realm/realm&#45;src/src/realm</text>
<text text-anchor="middle" x="849" y="-7" font-family="Helvetica,sans-Serif" font-size="10.00">/hip/hip_internal.h</text>
</a>
</g>
</g>
<!-- Node9&#45;&gt;Node11 -->
<g id="edge10_Node000009_Node000011" class="edge">
<title>Node9&#45;&gt;Node11</title>
<g id="a_edge10_Node000009_Node000011"><a xlink:title=" ">
<path fill="none" stroke="#63b8ff" d="M676.98,-73.94C711.36,-63.46 751.85,-51.12 784.9,-41.04"/>
<polygon fill="#63b8ff" stroke="#63b8ff" points="675.54,-70.73 666.99,-76.99 677.58,-77.42 675.54,-70.73"/>
</a>
</g>
</g>
<!-- Node12 -->
<g id="Node000012" class="node">
<title>Node12</title>
<g id="a_Node000012"><a xlink:href="kokkos__interop_8h.html" target="_top" xlink:title=" ">
<polygon fill="white" stroke="#666666" points="758,-41 612,-41 612,0 758,0 758,-41"/>
<text text-anchor="start" x="620" y="-29" font-family="Helvetica,sans-Serif" font-size="10.00">/home/runner/work/realm</text>
<text text-anchor="start" x="620" y="-18" font-family="Helvetica,sans-Serif" font-size="10.00">/realm/realm&#45;src/src/realm</text>
<text text-anchor="middle" x="685" y="-7" font-family="Helvetica,sans-Serif" font-size="10.00">/kokkos/kokkos_interop.h</text>
</a>
</g>
</g>
<!-- Node9&#45;&gt;Node12 -->
<g id="edge11_Node000009_Node000012" class="edge">
<title>Node9&#45;&gt;Node12</title>
<g id="a_edge11_Node000009_Node000012"><a xlink:title=" ">
<path fill="none" stroke="#63b8ff" d="M632.2,-69.79C642.56,-60.32 654.01,-49.84 663.6,-41.07"/>
<polygon fill="#63b8ff" stroke="#63b8ff" points="629.56,-67.46 624.54,-76.79 634.29,-72.63 629.56,-67.46"/>
</a>
</g>
</g>
<!-- Node13 -->
<g id="Node000013" class="node">
<title>Node13</title>
<g id="a_Node000013"><a xlink:href="openmp__internal_8h.html" target="_top" xlink:title=" ">
<polygon fill="white" stroke="#666666" points="430,-41 276,-41 276,0 430,0 430,-41"/>
<text text-anchor="start" x="284" y="-29" font-family="Helvetica,sans-Serif" font-size="10.00">/home/runner/work/realm</text>
<text text-anchor="start" x="284" y="-18" font-family="Helvetica,sans-Serif" font-size="10.00">/realm/realm&#45;src/src/realm</text>
<text text-anchor="middle" x="353" y="-7" font-family="Helvetica,sans-Serif" font-size="10.00">/openmp/openmp_internal.h</text>
</a>
</g>
</g>
<!-- Node9&#45;&gt;Node13 -->
<g id="edge12_Node000009_Node000013" class="edge">
<title>Node9&#45;&gt;Node13</title>
<g id="a_edge12_Node000009_Node000013"><a xlink:title=" ">
<path fill="none" stroke="#63b8ff" d="M528.27,-74.08C493.23,-63.57 451.88,-51.16 418.14,-41.04"/>
<polygon fill="#63b8ff" stroke="#63b8ff" points="527.38,-77.47 537.97,-76.99 529.4,-70.76 527.38,-77.47"/>
</a>
</g>
</g>
<!-- Node14 -->
<g id="Node000014" class="node">
<title>Node14</title>
<g id="a_Node000014"><a xlink:href="python__internal_8h.html" target="_top" xlink:title=" ">
<polygon fill="white" stroke="#666666" points="594,-41 448,-41 448,0 594,0 594,-41"/>
<text text-anchor="start" x="456" y="-29" font-family="Helvetica,sans-Serif" font-size="10.00">/home/runner/work/realm</text>
<text text-anchor="start" x="456" y="-18" font-family="Helvetica,sans-Serif" font-size="10.00">/realm/realm&#45;src/src/realm</text>
<text text-anchor="middle" x="521" y="-7" font-family="Helvetica,sans-Serif" font-size="10.00">/python/python_internal.h</text>
</a>
</g>
</g>
<!-- Node9&#45;&gt;Node14 -->
<g id="edge13_Node000009_Node000014" class="edge">
<title>Node9&#45;&gt;Node14</title>
<g id="a_edge13_Node000009_Node000014"><a xlink:title=" ">
<path fill="none" stroke="#63b8ff" d="M573.8,-69.79C563.44,-60.32 551.99,-49.84 542.4,-41.07"/>
<polygon fill="#63b8ff" stroke="#63b8ff" points="571.71,-72.63 581.46,-76.79 576.44,-67.46 571.71,-72.63"/>
</a>
</g>
</g>
<!-- Node16 -->
<g id="Node000016" class="node">
<title>Node16</title>
<g id="a_Node000016"><a xlink:href="hdf5__internal_8h.html" target="_top" xlink:title=" ">
<polygon fill="white" stroke="#666666" points="1653,-41 1507,-41 1507,0 1653,0 1653,-41"/>
<text text-anchor="start" x="1515" y="-29" font-family="Helvetica,sans-Serif" font-size="10.00">/home/runner/work/realm</text>
<text text-anchor="start" x="1515" y="-18" font-family="Helvetica,sans-Serif" font-size="10.00">/realm/realm&#45;src/src/realm</text>
<text text-anchor="middle" x="1580" y="-7" font-family="Helvetica,sans-Serif" font-size="10.00">/hdf5/hdf5_internal.h</text>
</a>
</g>
</g>
<!-- Node15&#45;&gt;Node16 -->
<g id="edge15_Node000015_Node000016" class="edge">
<title>Node15&#45;&gt;Node16</title>
<g id="a_edge15_Node000015_Node000016"><a xlink:title=" ">
<path fill="none" stroke="#63b8ff" d="M1548.11,-68.39C1554.3,-59.3 1561.02,-49.41 1566.69,-41.07"/>
<polygon fill="#63b8ff" stroke="#63b8ff" points="1545.13,-66.56 1542.4,-76.79 1550.92,-70.49 1545.13,-66.56"/>
</a>
</g>
</g>
<!-- Node17&#45;&gt;Node2 -->
<g id="edge19_Node000017_Node000002" class="edge">
<title>Node17&#45;&gt;Node2</title>
<g id="a_edge19_Node000017_Node000002"><a xlink:title=" ">
<path fill="none" stroke="#63b8ff" d="M822.77,-549.65C738.17,-540.13 603.49,-523.57 488,-503 483.43,-502.19 478.73,-501.29 474.01,-500.36"/>
<polygon fill="#63b8ff" stroke="#63b8ff" points="822.5,-553.14 832.83,-550.77 823.28,-546.18 822.5,-553.14"/>
</a>
</g>
</g>
<!-- Node17&#45;&gt;Node3 -->
<g id="edge20_Node000017_Node000003" class="edge">
<title>Node17&#45;&gt;Node3</title>
<g id="a_edge20_Node000017_Node000003"><a xlink:title=" ">
<path fill="none" stroke="#63b8ff" d="M822.85,-553.01C725.77,-545.48 571.97,-529.75 521,-503 499,-491.46 501.85,-478.18 483,-462 467.74,-448.9 449.3,-436.18 433.77,-426.23"/>
<polygon fill="#63b8ff" stroke="#63b8ff" points="822.7,-556.51 832.94,-553.78 823.24,-549.53 822.7,-556.51"/>
</a>
</g>
</g>
<!-- Node17&#45;&gt;Node10 -->
<g id="edge18_Node000017_Node000010" class="edge">
<title>Node17&#45;&gt;Node10</title>
<g id="a_edge18_Node000017_Node000010"><a xlink:title=" ">
<path fill="none" stroke="#63b8ff" d="M989.08,-557.93C1085.36,-555.3 1235.39,-544.43 1271,-503 1346.42,-415.25 1190.35,-492.64 1127,-426 1096.88,-394.32 1108,-373.21 1108,-329.5 1108,-329.5 1108,-329.5 1108,-173.5 1108,-126 1108,-70.15 1108,-41.18"/>
<polygon fill="#63b8ff" stroke="#63b8ff" points="988.98,-554.43 979.07,-558.18 989.16,-561.43 988.98,-554.43"/>
</a>
</g>
</g>
<!-- Node17&#45;&gt;Node11 -->
<g id="edge37_Node000017_Node000011" class="edge">
<title>Node17&#45;&gt;Node11</title>
<g id="a_edge37_Node000017_Node000011"><a xlink:title=" ">
<path fill="none" stroke="#63b8ff" d="M822.8,-552.09C787.32,-545.09 748.35,-531.02 723,-503 693.68,-470.58 704,-450.21 704,-406.5 704,-406.5 704,-406.5 704,-173.5 704,-112.05 766.82,-65.64 809.76,-41.1"/>
<polygon fill="#63b8ff" stroke="#63b8ff" points="822.23,-555.54 832.7,-553.88 823.48,-548.65 822.23,-555.54"/>
</a>
</g>
</g>
<!-- Node18 -->
<g id="Node000018" class="node">
<title>Node18</title>
<g id="a_Node000018"><a xlink:href="rectlist_8h.html" target="_top" xlink:title=" ">
<polygon fill="white" stroke="#666666" points="676,-503 530,-503 530,-462 676,-462 676,-503"/>
<text text-anchor="start" x="538" y="-491" font-family="Helvetica,sans-Serif" font-size="10.00">/home/runner/work/realm</text>
<text text-anchor="start" x="538" y="-480" font-family="Helvetica,sans-Serif" font-size="10.00">/realm/realm&#45;src/src/realm</text>
<text text-anchor="middle" x="603" y="-469" font-family="Helvetica,sans-Serif" font-size="10.00">/deppart/rectlist.h</text>
</a>
</g>
</g>
<!-- Node17&#45;&gt;Node18 -->
<g id="edge21_Node000017_Node000018" class="edge">
<title>Node17&#45;&gt;Node18</title>
<g id="a_edge21_Node000017_Node000018"><a xlink:title=" ">
<path fill="none" stroke="#63b8ff" d="M822.73,-537.89C776.84,-526.53 720.39,-512.56 676.2,-501.62"/>
<polygon fill="#63b8ff" stroke="#63b8ff" points="822.1,-541.34 832.65,-540.34 823.79,-534.54 822.1,-541.34"/>
</a>
</g>
</g>
<!-- Node19 -->
<g id="Node000019" class="node">
<title>Node19</title>
<g id="a_Node000019"><a xlink:href="sparsity__impl_8h.html" target="_top" xlink:title=" ">
<polygon fill="white" stroke="#666666" points="1080,-503 934,-503 934,-462 1080,-462 1080,-503"/>
<text text-anchor="start" x="942" y="-491" font-family="Helvetica,sans-Serif" font-size="10.00">/home/runner/work/realm</text>
<text text-anchor="start" x="942" y="-480" font-family="Helvetica,sans-Serif" font-size="10.00">/realm/realm&#45;src/src/realm</text>
<text text-anchor="middle" x="1007" y="-469" font-family="Helvetica,sans-Serif" font-size="10.00">/deppart/sparsity_impl.h</text>
</a>
</g>
</g>
<!-- Node17&#45;&gt;Node19 -->
<g id="edge23_Node000017_Node000019" class="edge">
<title>Node17&#45;&gt;Node19</title>
<g id="a_edge23_Node000017_Node000019"><a xlink:title=" ">
<path fill="none" stroke="#63b8ff" d="M940.59,-532.82C953.65,-523.11 968.3,-512.24 980.51,-503.17"/>
<polygon fill="#63b8ff" stroke="#63b8ff" points="938.21,-530.22 932.27,-538.99 942.39,-535.84 938.21,-530.22"/>
</a>
</g>
</g>
<!-- Node20 -->
<g id="Node000020" class="node">
<title>Node20</title>
<g id="a_Node000020"><a xlink:href="address__list_8h.html" target="_top" xlink:title=" ">
<polygon fill="white" stroke="#666666" points="1080,-426 934,-426 934,-385 1080,-385 1080,-426"/>
<text text-anchor="start" x="942" y="-414" font-family="Helvetica,sans-Serif" font-size="10.00">/home/runner/work/realm</text>
<text text-anchor="start" x="942" y="-403" font-family="Helvetica,sans-Serif" font-size="10.00">/realm/realm&#45;src/src/realm</text>
<text text-anchor="middle" x="1007" y="-392" font-family="Helvetica,sans-Serif" font-size="10.00">/transfer/address_list.h</text>
</a>
</g>
</g>
<!-- Node17&#45;&gt;Node20 -->
<g id="edge51_Node000017_Node000020" class="edge">
<title>Node17&#45;&gt;Node20</title>
<g id="a_edge51_Node000017_Node000020"><a xlink:title=" ">
<path fill="none" stroke="#63b8ff" d="M989.11,-557.15C1080.77,-553.7 1219.76,-541.98 1253,-503 1264.82,-489.13 1264.38,-476.23 1253,-462 1252.83,-461.78 1152.53,-439.2 1080.07,-422.92"/>
<polygon fill="#63b8ff" stroke="#63b8ff" points="988.88,-553.66 979.01,-557.51 989.12,-560.66 988.88,-553.66"/>
</a>
</g>
</g>
<!-- Node22 -->
<g id="Node000022" class="node">
<title>Node22</title>
<g id="a_Node000022"><a xlink:href="addrsplit__channel_8h.html" target="_top" xlink:title=" ">
<polygon fill="white" stroke="#666666" points="1895,-272 1739,-272 1739,-231 1895,-231 1895,-272"/>
<text text-anchor="start" x="1747" y="-260" font-family="Helvetica,sans-Serif" font-size="10.00">/home/runner/work/realm</text>
<text text-anchor="start" x="1747" y="-249" font-family="Helvetica,sans-Serif" font-size="10.00">/realm/realm&#45;src/src/realm</text>
<text text-anchor="middle" x="1817" y="-238" font-family="Helvetica,sans-Serif" font-size="10.00">/transfer/addrsplit_channel.h</text>
</a>
</g>
</g>
<!-- Node17&#45;&gt;Node22 -->
<g id="edge52_Node000017_Node000022" class="edge">
<title>Node17&#45;&gt;Node22</title>
<g id="a_edge52_Node000017_Node000022"><a xlink:title=" ">
<path fill="none" stroke="#63b8ff" d="M989.28,-554.34C1225.42,-541.66 1886.29,-499.84 1947,-426 1991.46,-371.93 1902.69,-304.84 1850.82,-272.19"/>
<polygon fill="#63b8ff" stroke="#63b8ff" points="988.83,-550.86 979.03,-554.88 989.2,-557.85 988.83,-550.86"/>
</a>
</g>
</g>
<!-- Node25 -->
<g id="Node000025" class="node">
<title>Node25</title>
<g id="a_Node000025"><a xlink:href="transfer_8h.html" target="_top" xlink:title=" ">
<polygon fill="white" stroke="#666666" points="1080,-272 934,-272 934,-231 1080,-231 1080,-272"/>
<text text-anchor="start" x="942" y="-260" font-family="Helvetica,sans-Serif" font-size="10.00">/home/runner/work/realm</text>
<text text-anchor="start" x="942" y="-249" font-family="Helvetica,sans-Serif" font-size="10.00">/realm/realm&#45;src/src/realm</text>
<text text-anchor="middle" x="1007" y="-238" font-family="Helvetica,sans-Serif" font-size="10.00">/transfer/transfer.h</text>
</a>
</g>
</g>
<!-- Node17&#45;&gt;Node25 -->
<g id="edge53_Node000017_Node000025" class="edge">
<title>Node17&#45;&gt;Node25</title>
<g id="a_edge53_Node000017_Node000025"><a xlink:title=" ">
<path fill="none" stroke="#63b8ff" d="M905.31,-528.79C905.39,-493.53 908.33,-433.42 925,-385 940.06,-341.26 971.59,-296.84 990.86,-272.16"/>
<polygon fill="#63b8ff" stroke="#63b8ff" points="901.82,-528.92 905.37,-538.9 908.82,-528.88 901.82,-528.92"/>
</a>
</g>
</g>
<!-- Node26 -->
<g id="Node000026" class="node">
<title>Node26</title>
<g id="a_Node000026"><a xlink:href="idx__impl_8h.html" target="_top" xlink:title=" ">
<polygon fill="white" stroke="#666666" points="1244,-503 1098,-503 1098,-462 1244,-462 1244,-503"/>
<text text-anchor="start" x="1106" y="-491" font-family="Helvetica,sans-Serif" font-size="10.00">/home/runner/work/realm</text>
<text text-anchor="start" x="1106" y="-480" font-family="Helvetica,sans-Serif" font-size="10.00">/realm/realm&#45;src/src/realm</text>
<text text-anchor="middle" x="1171" y="-469" font-family="Helvetica,sans-Serif" font-size="10.00">/idx_impl.h</text>
</a>
</g>
</g>
<!-- Node17&#45;&gt;Node26 -->
<g id="edge38_Node000017_Node000026" class="edge">
<title>Node17&#45;&gt;Node26</title>
<g id="a_edge38_Node000017_Node000026"><a xlink:title=" ">
<path fill="none" stroke="#63b8ff" d="M984.74,-536.21C1021.98,-525.68 1066.04,-513.21 1101.95,-503.04"/>
<polygon fill="#63b8ff" stroke="#63b8ff" points="983.6,-532.9 974.93,-538.99 985.51,-539.63 983.6,-532.9"/>
</a>
</g>
</g>
<!-- Node27 -->
<g id="Node000027" class="node">
<title>Node27</title>
<g id="a_Node000027"><a xlink:href="inst__layout_8h.html" target="_top" xlink:title=" ">
<polygon fill="white" stroke="#666666" points="1547,-503 1401,-503 1401,-462 1547,-462 1547,-503"/>
<text text-anchor="start" x="1409" y="-491" font-family="Helvetica,sans-Serif" font-size="10.00">/home/runner/work/realm</text>
<text text-anchor="start" x="1409" y="-480" font-family="Helvetica,sans-Serif" font-size="10.00">/realm/realm&#45;src/src/realm</text>
<text text-anchor="middle" x="1474" y="-469" font-family="Helvetica,sans-Serif" font-size="10.00">/inst_layout.h</text>
</a>
</g>
</g>
<!-- Node17&#45;&gt;Node27 -->
<g id="edge39_Node000017_Node000027" class="edge">
<title>Node17&#45;&gt;Node27</title>
<g id="a_edge39_Node000017_Node000027"><a xlink:title=" ">
<path fill="none" stroke="#63b8ff" d="M989.24,-547.51C1100.25,-532.85 1295.03,-507.13 1400.74,-493.17"/>
<polygon fill="#63b8ff" stroke="#63b8ff" points="988.55,-544.07 979.09,-548.85 989.47,-551.01 988.55,-544.07"/>
</a>
</g>
</g>
<!-- Node33 -->
<g id="Node000033" class="node">
<title>Node33</title>
<g id="a_Node000033"><a xlink:href="subgraph_8h.html" target="_top" xlink:title=" ">
<polygon fill="white" stroke="#666666" points="878,-503 732,-503 732,-462 878,-462 878,-503"/>
<text text-anchor="start" x="740" y="-491" font-family="Helvetica,sans-Serif" font-size="10.00">/home/runner/work/realm</text>
<text text-anchor="start" x="740" y="-480" font-family="Helvetica,sans-Serif" font-size="10.00">/realm/realm&#45;src/src/realm</text>
<text text-anchor="middle" x="805" y="-469" font-family="Helvetica,sans-Serif" font-size="10.00">/subgraph.h</text>
</a>
</g>
</g>
<!-- Node17&#45;&gt;Node33 -->
<g id="edge48_Node000017_Node000033" class="edge">
<title>Node17&#45;&gt;Node33</title>
<g id="a_edge48_Node000017_Node000033"><a xlink:title=" ">
<path fill="none" stroke="#63b8ff" d="M871.41,-532.82C858.35,-523.11 843.7,-512.24 831.49,-503.17"/>
<polygon fill="#63b8ff" stroke="#63b8ff" points="869.61,-535.84 879.73,-538.99 873.79,-530.22 869.61,-535.84"/>
</a>
</g>
</g>
<!-- Node18&#45;&gt;Node5 -->
<g id="edge22_Node000018_Node000005" class="edge">
<title>Node18&#45;&gt;Node5</title>
<g id="a_edge22_Node000018_Node000005"><a xlink:title=" ">
<path fill="none" stroke="#63b8ff" d="M603,-451.58C603,-421.36 603,-375.53 603,-349.47"/>
<polygon fill="#63b8ff" stroke="#63b8ff" points="599.5,-451.94 603,-461.94 606.5,-451.94 599.5,-451.94"/>
</a>
</g>
</g>
<!-- Node19&#45;&gt;Node3 -->
<g id="edge24_Node000019_Node000003" class="edge">
<title>Node19&#45;&gt;Node3</title>
<g id="a_edge24_Node000019_Node000003"><a xlink:title=" ">
<path fill="none" stroke="#63b8ff" d="M923.57,-467.42C911.32,-465.5 898.84,-463.64 887,-462 740.84,-441.79 569.2,-423.45 474,-413.75"/>
<polygon fill="#63b8ff" stroke="#63b8ff" points="923.36,-470.93 933.79,-469.04 924.46,-464.02 923.36,-470.93"/>
</a>
</g>
</g>
<!-- Node19&#45;&gt;Node20 -->
<g id="edge25_Node000019_Node000020" class="edge">
<title>Node19&#45;&gt;Node20</title>
<g id="a_edge25_Node000019_Node000020"><a xlink:title=" ">
<path fill="none" stroke="#63b8ff" d="M1007,-451.69C1007,-443.08 1007,-433.9 1007,-426.07"/>
<polygon fill="#63b8ff" stroke="#63b8ff" points="1003.5,-451.79 1007,-461.79 1010.5,-451.79 1003.5,-451.79"/>
</a>
</g>
</g>
<!-- Node21 -->
<g id="Node000021" class="node">
<title>Node21</title>
<g id="a_Node000021"><a xlink:href="channel_8h.html" target="_top" xlink:title=" ">
<polygon fill="white" stroke="#666666" points="1443,-349 1297,-349 1297,-308 1443,-308 1443,-349"/>
<text text-anchor="start" x="1305" y="-337" font-family="Helvetica,sans-Serif" font-size="10.00">/home/runner/work/realm</text>
<text text-anchor="start" x="1305" y="-326" font-family="Helvetica,sans-Serif" font-size="10.00">/realm/realm&#45;src/src/realm</text>
<text text-anchor="middle" x="1370" y="-315" font-family="Helvetica,sans-Serif" font-size="10.00">/transfer/channel.h</text>
</a>
</g>
</g>
<!-- Node20&#45;&gt;Node21 -->
<g id="edge26_Node000020_Node000021" class="edge">
<title>Node20&#45;&gt;Node21</title>
<g id="a_edge26_Node000020_Node000021"><a xlink:title=" ">
<path fill="none" stroke="#63b8ff" d="M1089.83,-387.39C1152.2,-374.5 1236.89,-357 1296.78,-344.63"/>
<polygon fill="#63b8ff" stroke="#63b8ff" points="1089.11,-383.96 1080.02,-389.41 1090.52,-390.82 1089.11,-383.96"/>
</a>
</g>
</g>
<!-- Node20&#45;&gt;Node25 -->
<g id="edge36_Node000020_Node000025" class="edge">
<title>Node20&#45;&gt;Node25</title>
<g id="a_edge36_Node000020_Node000025"><a xlink:title=" ">
<path fill="none" stroke="#63b8ff" d="M1007,-374.58C1007,-344.36 1007,-298.53 1007,-272.47"/>
<polygon fill="#63b8ff" stroke="#63b8ff" points="1003.5,-374.94 1007,-384.94 1010.5,-374.94 1003.5,-374.94"/>
</a>
</g>
</g>
<!-- Node21&#45;&gt;Node10 -->
<g id="edge27_Node000021_Node000010" class="edge">
<title>Node21&#45;&gt;Node10</title>
<g id="a_edge27_Node000021_Node000010"><a xlink:title=" ">
<path fill="none" stroke="#63b8ff" d="M1287.15,-317.35C1256.78,-309.6 1224.59,-295.96 1203,-272 1143.59,-206.07 1201.37,-155.52 1160,-77 1152.92,-63.57 1141.71,-51 1131.51,-41.24"/>
<polygon fill="#63b8ff" stroke="#63b8ff" points="1286.39,-320.77 1296.93,-319.67 1288,-313.96 1286.39,-320.77"/>
</a>
</g>
</g>
<!-- Node21&#45;&gt;Node11 -->
<g id="edge29_Node000021_Node000011" class="edge">
<title>Node21&#45;&gt;Node11</title>
<g id="a_edge29_Node000021_Node000011"><a xlink:title=" ">
<path fill="none" stroke="#63b8ff" d="M1286.81,-311.23C1251.21,-302.41 1209.89,-289.63 1175,-272 1148.42,-258.57 1145.59,-249.18 1122,-231 1031.14,-160.99 923.01,-78.15 874.62,-41.11"/>
<polygon fill="#63b8ff" stroke="#63b8ff" points="1286.15,-314.67 1296.69,-313.61 1287.79,-307.86 1286.15,-314.67"/>
</a>
</g>
</g>
<!-- Node21&#45;&gt;Node15 -->
<g id="edge32_Node000021_Node000015" class="edge">
<title>Node21&#45;&gt;Node15</title>
<g id="a_edge32_Node000021_Node000015"><a xlink:title=" ">
<path fill="none" stroke="#63b8ff" d="M1453.22,-321.14C1486.05,-314.07 1520.71,-299.91 1541,-272 1574.64,-225.72 1551.9,-152.89 1537.82,-118.17"/>
<polygon fill="#63b8ff" stroke="#63b8ff" points="1452.25,-317.77 1443.11,-323.12 1453.59,-324.64 1452.25,-317.77"/>
</a>
</g>
</g>
<!-- Node21&#45;&gt;Node16 -->
<g id="edge28_Node000021_Node000016" class="edge">
<title>Node21&#45;&gt;Node16</title>
<g id="a_edge28_Node000021_Node000016"><a xlink:title=" ">
<path fill="none" stroke="#63b8ff" d="M1453.02,-321.16C1490.61,-314.25 1533.02,-300.22 1562,-272 1626.02,-209.66 1633.51,-163.48 1611,-77 1607.69,-64.29 1600.76,-51.4 1594.29,-41.25"/>
<polygon fill="#63b8ff" stroke="#63b8ff" points="1452.35,-317.72 1443.07,-322.84 1453.52,-324.62 1452.35,-317.72"/>
</a>
</g>
</g>
<!-- Node21&#45;&gt;Node22 -->
<g id="edge30_Node000021_Node000022" class="edge">
<title>Node21&#45;&gt;Node22</title>
<g id="a_edge30_Node000021_Node000022"><a xlink:title=" ">
<path fill="none" stroke="#63b8ff" d="M1453.32,-313.52C1535.07,-299.8 1658.8,-279.04 1738.76,-265.63"/>
<polygon fill="#63b8ff" stroke="#63b8ff" points="1452.6,-310.09 1443.31,-315.2 1453.75,-317 1452.6,-310.09"/>
</a>
</g>
</g>
<!-- Node23 -->
<g id="Node000023" class="node">
<title>Node23</title>
<g id="a_Node000023"><a xlink:href="channel__disk_8h.html" target="_top" xlink:title=" ">
<polygon fill="white" stroke="#666666" points="1358,-272 1212,-272 1212,-231 1358,-231 1358,-272"/>
<text text-anchor="start" x="1220" y="-260" font-family="Helvetica,sans-Serif" font-size="10.00">/home/runner/work/realm</text>
<text text-anchor="start" x="1220" y="-249" font-family="Helvetica,sans-Serif" font-size="10.00">/realm/realm&#45;src/src/realm</text>
<text text-anchor="middle" x="1285" y="-238" font-family="Helvetica,sans-Serif" font-size="10.00">/transfer/channel_disk.h</text>
</a>
</g>
</g>
<!-- Node21&#45;&gt;Node23 -->
<g id="edge31_Node000021_Node000023" class="edge">
<title>Node21&#45;&gt;Node23</title>
<g id="a_edge31_Node000021_Node000023"><a xlink:title=" ">
<path fill="none" stroke="#63b8ff" d="M1340.05,-301.07C1329.23,-291.52 1317.22,-280.93 1307.18,-272.07"/>
<polygon fill="#63b8ff" stroke="#63b8ff" points="1337.85,-303.8 1347.67,-307.79 1342.48,-298.55 1337.85,-303.8"/>
</a>
</g>
</g>
<!-- Node24 -->
<g id="Node000024" class="node">
<title>Node24</title>
<g id="a_Node000024"><a xlink:href="memcpy__channel_8h.html" target="_top" xlink:title=" ">
<polygon fill="white" stroke="#666666" points="1532,-272 1376,-272 1376,-231 1532,-231 1532,-272"/>
<text text-anchor="start" x="1384" y="-260" font-family="Helvetica,sans-Serif" font-size="10.00">/home/runner/work/realm</text>
<text text-anchor="start" x="1384" y="-249" font-family="Helvetica,sans-Serif" font-size="10.00">/realm/realm&#45;src/src/realm</text>
<text text-anchor="middle" x="1454" y="-238" font-family="Helvetica,sans-Serif" font-size="10.00">/transfer/memcpy_channel.h</text>
</a>
</g>
</g>
<!-- Node21&#45;&gt;Node24 -->
<g id="edge33_Node000021_Node000024" class="edge">
<title>Node21&#45;&gt;Node24</title>
<g id="a_edge33_Node000021_Node000024"><a xlink:title=" ">
<path fill="none" stroke="#63b8ff" d="M1399.6,-301.07C1410.29,-291.52 1422.16,-280.93 1432.08,-272.07"/>
<polygon fill="#63b8ff" stroke="#63b8ff" points="1397.2,-298.52 1392.07,-307.79 1401.86,-303.75 1397.2,-298.52"/>
</a>
</g>
</g>
<!-- Node21&#45;&gt;Node25 -->
<g id="edge34_Node000021_Node000025" class="edge">
<title>Node21&#45;&gt;Node25</title>
<g id="a_edge34_Node000021_Node000025"><a xlink:title=" ">
<path fill="none" stroke="#63b8ff" d="M1287.17,-310.39C1224.8,-297.5 1140.11,-280 1080.22,-267.63"/>
<polygon fill="#63b8ff" stroke="#63b8ff" points="1286.48,-313.82 1296.98,-312.41 1287.89,-306.96 1286.48,-313.82"/>
</a>
</g>
</g>
<!-- Node25&#45;&gt;Node8 -->
<g id="edge35_Node000025_Node000008" class="edge">
<title>Node25&#45;&gt;Node8</title>
<g id="a_edge35_Node000025_Node000008"><a xlink:title=" ">
<path fill="none" stroke="#63b8ff" d="M944.79,-227.4C916.88,-217.04 884.31,-204.95 857.63,-195.04"/>
<polygon fill="#63b8ff" stroke="#63b8ff" points="943.86,-230.79 954.45,-230.99 946.3,-224.23 943.86,-230.79"/>
</a>
</g>
</g>
<!-- Node28 -->
<g id="Node000028" class="node">
<title>Node28</title>
<g id="a_Node000028"><a xlink:href="cuda__access_8h.html" target="_top" xlink:title=" ">
<polygon fill="white" stroke="#666666" points="1610,-426 1464,-426 1464,-385 1610,-385 1610,-426"/>
<text text-anchor="start" x="1472" y="-414" font-family="Helvetica,sans-Serif" font-size="10.00">/home/runner/work/realm</text>
<text text-anchor="start" x="1472" y="-403" font-family="Helvetica,sans-Serif" font-size="10.00">/realm/realm&#45;src/src/realm</text>
<text text-anchor="middle" x="1537" y="-392" font-family="Helvetica,sans-Serif" font-size="10.00">/cuda/cuda_access.h</text>
</a>
</g>
</g>
<!-- Node27&#45;&gt;Node28 -->
<g id="edge40_Node000027_Node000028" class="edge">
<title>Node27&#45;&gt;Node28</title>
<g id="a_edge40_Node000027_Node000028"><a xlink:title=" ">
<path fill="none" stroke="#63b8ff" d="M1497.14,-453.95C1504.91,-444.7 1513.41,-434.58 1520.56,-426.07"/>
<polygon fill="#63b8ff" stroke="#63b8ff" points="1494.3,-451.89 1490.55,-461.79 1499.66,-456.39 1494.3,-451.89"/>
</a>
</g>
</g>
<!-- Node29 -->
<g id="Node000029" class="node">
<title>Node29</title>
<g id="a_Node000029"><a xlink:href="hdf5__access_8h.html" target="_top" xlink:title=" ">
<polygon fill="white" stroke="#666666" points="1774,-426 1628,-426 1628,-385 1774,-385 1774,-426"/>
<text text-anchor="start" x="1636" y="-414" font-family="Helvetica,sans-Serif" font-size="10.00">/home/runner/work/realm</text>
<text text-anchor="start" x="1636" y="-403" font-family="Helvetica,sans-Serif" font-size="10.00">/realm/realm&#45;src/src/realm</text>
<text text-anchor="middle" x="1701" y="-392" font-family="Helvetica,sans-Serif" font-size="10.00">/hdf5/hdf5_access.h</text>
</a>
</g>
</g>
<!-- Node27&#45;&gt;Node29 -->
<g id="edge41_Node000027_Node000029" class="edge">
<title>Node27&#45;&gt;Node29</title>
<g id="a_edge41_Node000027_Node000029"><a xlink:title=" ">
<path fill="none" stroke="#63b8ff" d="M1542.68,-458.81C1574.31,-448.36 1611.48,-436.08 1641.85,-426.04"/>
<polygon fill="#63b8ff" stroke="#63b8ff" points="1541.45,-455.53 1533.05,-461.99 1543.64,-462.18 1541.45,-455.53"/>
</a>
</g>
</g>
<!-- Node30 -->
<g id="Node000030" class="node">
<title>Node30</title>
<g id="a_Node000030"><a xlink:href="hip__access_8h.html" target="_top" xlink:title=" ">
<polygon fill="white" stroke="#666666" points="1282,-426 1136,-426 1136,-385 1282,-385 1282,-426"/>
<text text-anchor="start" x="1144" y="-414" font-family="Helvetica,sans-Serif" font-size="10.00">/home/runner/work/realm</text>
<text text-anchor="start" x="1144" y="-403" font-family="Helvetica,sans-Serif" font-size="10.00">/realm/realm&#45;src/src/realm</text>
<text text-anchor="middle" x="1209" y="-392" font-family="Helvetica,sans-Serif" font-size="10.00">/hip/hip_access.h</text>
</a>
</g>
</g>
<!-- Node27&#45;&gt;Node30 -->
<g id="edge42_Node000027_Node000030" class="edge">
<title>Node27&#45;&gt;Node30</title>
<g id="a_edge42_Node000027_Node000030"><a xlink:title=" ">
<path fill="none" stroke="#63b8ff" d="M1395.26,-459.21C1358.02,-448.68 1313.96,-436.21 1278.05,-426.04"/>
<polygon fill="#63b8ff" stroke="#63b8ff" points="1394.49,-462.63 1405.07,-461.99 1396.4,-455.9 1394.49,-462.63"/>
</a>
</g>
</g>
<!-- Node31 -->
<g id="Node000031" class="node">
<title>Node31</title>
<g id="a_Node000031"><a xlink:href="inst__impl_8h.html" target="_top" xlink:title=" ">
<polygon fill="white" stroke="#666666" points="1938,-426 1792,-426 1792,-385 1938,-385 1938,-426"/>
<text text-anchor="start" x="1800" y="-414" font-family="Helvetica,sans-Serif" font-size="10.00">/home/runner/work/realm</text>
<text text-anchor="start" x="1800" y="-403" font-family="Helvetica,sans-Serif" font-size="10.00">/realm/realm&#45;src/src/realm</text>
<text text-anchor="middle" x="1865" y="-392" font-family="Helvetica,sans-Serif" font-size="10.00">/inst_impl.h</text>
</a>
</g>
</g>
<!-- Node27&#45;&gt;Node31 -->
<g id="edge43_Node000027_Node000031" class="edge">
<title>Node27&#45;&gt;Node31</title>
<g id="a_edge43_Node000027_Node000031"><a xlink:title=" ">
<path fill="none" stroke="#63b8ff" d="M1557.44,-467.81C1619.76,-457.27 1706.93,-441.86 1783,-426 1785.86,-425.4 1788.78,-424.78 1791.73,-424.14"/>
<polygon fill="#63b8ff" stroke="#63b8ff" points="1556.55,-464.41 1547.27,-469.52 1557.71,-471.31 1556.55,-464.41"/>
</a>
</g>
</g>
<!-- Node32 -->
<g id="Node000032" class="node">
<title>Node32</title>
<g id="a_Node000032"><a xlink:href="transfer__utils_8h.html" target="_top" xlink:title=" ">
<polygon fill="white" stroke="#666666" points="1446,-426 1300,-426 1300,-385 1446,-385 1446,-426"/>
<text text-anchor="start" x="1308" y="-414" font-family="Helvetica,sans-Serif" font-size="10.00">/home/runner/work/realm</text>
<text text-anchor="start" x="1308" y="-403" font-family="Helvetica,sans-Serif" font-size="10.00">/realm/realm&#45;src/src/realm</text>
<text text-anchor="middle" x="1373" y="-392" font-family="Helvetica,sans-Serif" font-size="10.00">/transfer/transfer_utils.h</text>
</a>
</g>
</g>
<!-- Node27&#45;&gt;Node32 -->
<g id="edge47_Node000027_Node000032" class="edge">
<title>Node27&#45;&gt;Node32</title>
<g id="a_edge47_Node000027_Node000032"><a xlink:title=" ">
<path fill="none" stroke="#63b8ff" d="M1439.41,-455.82C1426.35,-446.11 1411.7,-435.24 1399.49,-426.17"/>
<polygon fill="#63b8ff" stroke="#63b8ff" points="1437.61,-458.84 1447.73,-461.99 1441.79,-453.22 1437.61,-458.84"/>
</a>
</g>
</g>
<!-- Node31&#45;&gt;Node15 -->
<g id="edge45_Node000031_Node000015" class="edge">
<title>Node31&#45;&gt;Node15</title>
<g id="a_edge45_Node000031_Node000015"><a xlink:title=" ">
<path fill="none" stroke="#63b8ff" d="M1883.9,-376.15C1905.78,-339.42 1935.06,-274.92 1904,-231 1835.62,-134.32 1690.56,-107.71 1602.25,-100.68"/>
<polygon fill="#63b8ff" stroke="#63b8ff" points="1880.8,-374.51 1878.54,-384.86 1886.76,-378.18 1880.8,-374.51"/>
</a>
</g>
</g>
<!-- Node31&#45;&gt;Node21 -->
<g id="edge44_Node000031_Node000021" class="edge">
<title>Node31&#45;&gt;Node21</title>
<g id="a_edge44_Node000031_Node000021"><a xlink:title=" ">
<path fill="none" stroke="#63b8ff" d="M1781.69,-384.84C1657.46,-362.17 1523.72,-345.96 1443.09,-337.09"/>
<polygon fill="#63b8ff" stroke="#63b8ff" points="1781.29,-388.33 1791.76,-386.7 1782.56,-381.45 1781.29,-388.33"/>
</a>
</g>
</g>
<!-- Node31&#45;&gt;Node25 -->
<g id="edge46_Node000031_Node000025" class="edge">
<title>Node31&#45;&gt;Node25</title>
<g id="a_edge46_Node000031_Node000025"><a xlink:title=" ">
<path fill="none" stroke="#63b8ff" d="M1781.61,-384.93C1563.12,-352.62 1500.84,-392.52 1288,-349 1202.34,-331.48 1106.93,-294.86 1052.23,-272.11"/>
<polygon fill="#63b8ff" stroke="#63b8ff" points="1781.39,-388.44 1791.8,-386.48 1782.43,-381.52 1781.39,-388.44"/>
</a>
</g>
</g>
<!-- Node34 -->
<g id="Node000034" class="node">
<title>Node34</title>
<g id="a_Node000034"><a xlink:href="subgraph__impl_8h.html" target="_top" xlink:title=" ">
<polygon fill="white" stroke="#666666" points="878,-272 732,-272 732,-231 878,-231 878,-272"/>
<text text-anchor="start" x="740" y="-260" font-family="Helvetica,sans-Serif" font-size="10.00">/home/runner/work/realm</text>
<text text-anchor="start" x="740" y="-249" font-family="Helvetica,sans-Serif" font-size="10.00">/realm/realm&#45;src/src/realm</text>
<text text-anchor="middle" x="805" y="-238" font-family="Helvetica,sans-Serif" font-size="10.00">/subgraph_impl.h</text>
</a>
</g>
</g>
<!-- Node33&#45;&gt;Node34 -->
<g id="edge49_Node000033_Node000034" class="edge">
<title>Node33&#45;&gt;Node34</title>
<g id="a_edge49_Node000033_Node000034"><a xlink:title=" ">
<path fill="none" stroke="#63b8ff" d="M805,-451.73C805,-404.23 805,-312.57 805,-272.3"/>
<polygon fill="#63b8ff" stroke="#63b8ff" points="801.5,-451.98 805,-461.98 808.5,-451.98 801.5,-451.98"/>
</a>
</g>
</g>
<!-- Node34&#45;&gt;Node8 -->
<g id="edge50_Node000034_Node000008" class="edge">
<title>Node34&#45;&gt;Node8</title>
<g id="a_edge50_Node000034_Node000008"><a xlink:title=" ">
<path fill="none" stroke="#63b8ff" d="M805,-220.69C805,-212.08 805,-202.9 805,-195.07"/>
<polygon fill="#63b8ff" stroke="#63b8ff" points="801.5,-220.79 805,-230.79 808.5,-220.79 801.5,-220.79"/>
</a>
</g>
</g>
</g>
</svg>
