<?xml version="1.0" encoding="UTF-8" standalone="no"?>
<!DOCTYPE svg PUBLIC "-//W3C//DTD SVG 1.1//EN"
 "http://www.w3.org/Graphics/SVG/1.1/DTD/svg11.dtd">
<!-- Generated by graphviz version 2.43.0 (0)
 -->
<!-- Title: /home/runner/work/realm/realm/realm&#45;src/src/realm/dynamic_table.h Pages: 1 -->
<svg width="2480pt" height="742pt"
 viewBox="0.00 0.00 2480.00 742.00" xmlns="http://www.w3.org/2000/svg" xmlns:xlink="http://www.w3.org/1999/xlink">
<g id="graph0" class="graph" transform="scale(1 1) rotate(0) translate(4 738)">
<title>/home/runner/work/realm/realm/realm&#45;src/src/realm/dynamic_table.h</title>
<!-- Node1 -->
<g id="Node000001" class="node">
<title>Node1</title>
<g id="a_Node000001"><a xlink:title=" ">
<polygon fill="#999999" stroke="#666666" points="1878,-734 1732,-734 1732,-693 1878,-693 1878,-734"/>
<text text-anchor="start" x="1740" y="-722" font-family="Helvetica,sans-Serif" font-size="10.00">/home/runner/work/realm</text>
<text text-anchor="start" x="1740" y="-711" font-family="Helvetica,sans-Serif" font-size="10.00">/realm/realm&#45;src/src/realm</text>
<text text-anchor="middle" x="1805" y="-700" font-family="Helvetica,sans-Serif" font-size="10.00">/dynamic_table.h</text>
</a>
</g>
</g>
<!-- Node2 -->
<g id="Node000002" class="node">
<title>Node2</title>
<g id="a_Node000002"><a xlink:href="event__impl_8h.html" target="_top" xlink:title=" ">
<polygon fill="white" stroke="#666666" points="1413,-657 1267,-657 1267,-616 1413,-616 1413,-657"/>
<text text-anchor="start" x="1275" y="-645" font-family="Helvetica,sans-Serif" font-size="10.00">/home/runner/work/realm</text>
<text text-anchor="start" x="1275" y="-634" font-family="Helvetica,sans-Serif" font-size="10.00">/realm/realm&#45;src/src/realm</text>
<text text-anchor="middle" x="1340" y="-623" font-family="Helvetica,sans-Serif" font-size="10.00">/event_impl.h</text>
</a>
</g>
</g>
<!-- Node1&#45;&gt;Node2 -->
<g id="edge1_Node000001_Node000002" class="edge">
<title>Node1&#45;&gt;Node2</title>
<g id="a_edge1_Node000001_Node000002"><a xlink:title=" ">
<path fill="none" stroke="#63b8ff" d="M1721.91,-699.1C1634.1,-684.93 1496.96,-662.82 1413.12,-649.29"/>
<polygon fill="#63b8ff" stroke="#63b8ff" points="1721.4,-702.56 1731.83,-700.7 1722.52,-695.65 1721.4,-702.56"/>
</a>
</g>
</g>
<!-- Node4 -->
<g id="Node000004" class="node">
<title>Node4</title>
<g id="a_Node000004"><a xlink:href="runtime__impl_8h.html" target="_top" xlink:title=" ">
<polygon fill="white" stroke="#666666" points="1337,-195 1191,-195 1191,-154 1337,-154 1337,-195"/>
<text text-anchor="start" x="1199" y="-183" font-family="Helvetica,sans-Serif" font-size="10.00">/home/runner/work/realm</text>
<text text-anchor="start" x="1199" y="-172" font-family="Helvetica,sans-Serif" font-size="10.00">/realm/realm&#45;src/src/realm</text>
<text text-anchor="middle" x="1264" y="-161" font-family="Helvetica,sans-Serif" font-size="10.00">/runtime_impl.h</text>
</a>
</g>
</g>
<!-- Node1&#45;&gt;Node4 -->
<g id="edge64_Node000001_Node000004" class="edge">
<title>Node1&#45;&gt;Node4</title>
<g id="a_edge64_Node000001_Node000004"><a xlink:title=" ">
<path fill="none" stroke="#63b8ff" d="M1888.49,-705.22C2034.3,-690.18 2320,-649.38 2320,-560.5 2320,-560.5 2320,-560.5 2320,-327.5 2320,-283.79 2334.01,-259.66 2301,-231 2264.67,-199.46 1567.67,-181.92 1337.25,-176.97"/>
<polygon fill="#63b8ff" stroke="#63b8ff" points="1887.84,-701.77 1878.24,-706.26 1888.54,-708.73 1887.84,-701.77"/>
</a>
</g>
</g>
<!-- Node3 -->
<g id="Node000003" class="node">
<title>Node3</title>
<g id="a_Node000003"><a xlink:href="barrier__impl_8h.html" target="_top" xlink:title=" ">
<polygon fill="white" stroke="#666666" points="1438,-503 1292,-503 1292,-462 1438,-462 1438,-503"/>
<text text-anchor="start" x="1300" y="-491" font-family="Helvetica,sans-Serif" font-size="10.00">/home/runner/work/realm</text>
<text text-anchor="start" x="1300" y="-480" font-family="Helvetica,sans-Serif" font-size="10.00">/realm/realm&#45;src/src/realm</text>
<text text-anchor="middle" x="1365" y="-469" font-family="Helvetica,sans-Serif" font-size="10.00">/barrier_impl.h</text>
</a>
</g>
</g>
<!-- Node2&#45;&gt;Node3 -->
<g id="edge2_Node000002_Node000003" class="edge">
<title>Node2&#45;&gt;Node3</title>
<g id="a_edge2_Node000002_Node000003"><a xlink:title=" ">
<path fill="none" stroke="#63b8ff" d="M1359.47,-607.13C1364.19,-598.76 1368.57,-589.33 1371,-580 1377.77,-554.01 1373.73,-522.81 1369.75,-503.07"/>
<polygon fill="#63b8ff" stroke="#63b8ff" points="1356.44,-605.37 1354.29,-615.75 1362.44,-608.98 1356.44,-605.37"/>
</a>
</g>
</g>
<!-- Node2&#45;&gt;Node4 -->
<g id="edge61_Node000002_Node000004" class="edge">
<title>Node2&#45;&gt;Node4</title>
<g id="a_edge61_Node000002_Node000004"><a xlink:title=" ">
<path fill="none" stroke="#63b8ff" d="M1257.36,-618.12C1237.62,-609.89 1218.86,-597.8 1207,-580 1164.14,-515.67 1235.61,-267.58 1257.77,-195.34"/>
<polygon fill="#63b8ff" stroke="#63b8ff" points="1256.19,-621.42 1266.78,-621.74 1258.7,-614.89 1256.19,-621.42"/>
</a>
</g>
</g>
<!-- Node5 -->
<g id="Node000005" class="node">
<title>Node5</title>
<g id="a_Node000005"><a xlink:href="proc__impl_8h.html" target="_top" xlink:title=" ">
<polygon fill="white" stroke="#666666" points="318,-118 172,-118 172,-77 318,-77 318,-118"/>
<text text-anchor="start" x="180" y="-106" font-family="Helvetica,sans-Serif" font-size="10.00">/home/runner/work/realm</text>
<text text-anchor="start" x="180" y="-95" font-family="Helvetica,sans-Serif" font-size="10.00">/realm/realm&#45;src/src/realm</text>
<text text-anchor="middle" x="245" y="-84" font-family="Helvetica,sans-Serif" font-size="10.00">/proc_impl.h</text>
</a>
</g>
</g>
<!-- Node2&#45;&gt;Node5 -->
<g id="edge55_Node000002_Node000005" class="edge">
<title>Node2&#45;&gt;Node5</title>
<g id="a_edge55_Node000002_Node000005"><a xlink:title=" ">
<path fill="none" stroke="#63b8ff" d="M1256.49,-633.36C990.12,-625.44 178,-592.36 178,-483.5 178,-483.5 178,-483.5 178,-250.5 178,-199.46 210.03,-146.33 229.8,-118.41"/>
<polygon fill="#63b8ff" stroke="#63b8ff" points="1256.77,-636.87 1266.87,-633.66 1256.98,-629.87 1256.77,-636.87"/>
</a>
</g>
</g>
<!-- Node13 -->
<g id="Node000013" class="node">
<title>Node13</title>
<g id="a_Node000013"><a xlink:href="comp__queue__impl_8h.html" target="_top" xlink:title=" ">
<polygon fill="white" stroke="#666666" points="1198,-349 1052,-349 1052,-308 1198,-308 1198,-349"/>
<text text-anchor="start" x="1060" y="-337" font-family="Helvetica,sans-Serif" font-size="10.00">/home/runner/work/realm</text>
<text text-anchor="start" x="1060" y="-326" font-family="Helvetica,sans-Serif" font-size="10.00">/realm/realm&#45;src/src/realm</text>
<text text-anchor="middle" x="1125" y="-315" font-family="Helvetica,sans-Serif" font-size="10.00">/comp_queue_impl.h</text>
</a>
</g>
</g>
<!-- Node2&#45;&gt;Node13 -->
<g id="edge12_Node000002_Node000013" class="edge">
<title>Node2&#45;&gt;Node13</title>
<g id="a_edge12_Node000002_Node000013"><a xlink:title=" ">
<path fill="none" stroke="#63b8ff" d="M1256.56,-625.3C1226.56,-617.53 1194.99,-603.9 1174,-580 1114.93,-512.74 1118.57,-395.66 1122.74,-349.26"/>
<polygon fill="#63b8ff" stroke="#63b8ff" points="1256.11,-628.79 1266.65,-627.72 1257.74,-621.98 1256.11,-628.79"/>
</a>
</g>
</g>
<!-- Node14 -->
<g id="Node000014" class="node">
<title>Node14</title>
<g id="a_Node000014"><a xlink:href="inst__impl_8h.html" target="_top" xlink:title=" ">
<polygon fill="white" stroke="#666666" points="1944,-426 1798,-426 1798,-385 1944,-385 1944,-426"/>
<text text-anchor="start" x="1806" y="-414" font-family="Helvetica,sans-Serif" font-size="10.00">/home/runner/work/realm</text>
<text text-anchor="start" x="1806" y="-403" font-family="Helvetica,sans-Serif" font-size="10.00">/realm/realm&#45;src/src/realm</text>
<text text-anchor="middle" x="1871" y="-392" font-family="Helvetica,sans-Serif" font-size="10.00">/inst_impl.h</text>
</a>
</g>
</g>
<!-- Node2&#45;&gt;Node14 -->
<g id="edge14_Node000002_Node000014" class="edge">
<title>Node2&#45;&gt;Node14</title>
<g id="a_edge14_Node000002_Node000014"><a xlink:title=" ">
<path fill="none" stroke="#63b8ff" d="M1423.15,-624.9C1477.67,-616.4 1549.9,-602.16 1611,-580 1678.86,-555.39 1694.09,-543.27 1754,-503 1789.4,-479.2 1826.85,-446.88 1849.58,-426.35"/>
<polygon fill="#63b8ff" stroke="#63b8ff" points="1422.54,-621.46 1413.18,-626.42 1423.6,-628.38 1422.54,-621.46"/>
</a>
</g>
</g>
<!-- Node20 -->
<g id="Node000020" class="node">
<title>Node20</title>
<g id="a_Node000020"><a xlink:href="mem__impl_8h.html" target="_top" xlink:title=" ">
<polygon fill="white" stroke="#666666" points="1691,-503 1545,-503 1545,-462 1691,-462 1691,-503"/>
<text text-anchor="start" x="1553" y="-491" font-family="Helvetica,sans-Serif" font-size="10.00">/home/runner/work/realm</text>
<text text-anchor="start" x="1553" y="-480" font-family="Helvetica,sans-Serif" font-size="10.00">/realm/realm&#45;src/src/realm</text>
<text text-anchor="middle" x="1618" y="-469" font-family="Helvetica,sans-Serif" font-size="10.00">/mem_impl.h</text>
</a>
</g>
</g>
<!-- Node2&#45;&gt;Node20 -->
<g id="edge27_Node000002_Node000020" class="edge">
<title>Node2&#45;&gt;Node20</title>
<g id="a_edge27_Node000002_Node000020"><a xlink:title=" ">
<path fill="none" stroke="#63b8ff" d="M1423.36,-625.56C1485.01,-616.62 1562.22,-601.55 1586,-580 1607.84,-560.21 1614.8,-525.17 1617.01,-503.2"/>
<polygon fill="#63b8ff" stroke="#63b8ff" points="1422.63,-622.13 1413.22,-627 1423.62,-629.06 1422.63,-622.13"/>
</a>
</g>
</g>
<!-- Node23 -->
<g id="Node000023" class="node">
<title>Node23</title>
<g id="a_Node000023"><a xlink:href="operation_8h.html" target="_top" xlink:title=" ">
<polygon fill="white" stroke="#666666" points="1097,-580 951,-580 951,-539 1097,-539 1097,-580"/>
<text text-anchor="start" x="959" y="-568" font-family="Helvetica,sans-Serif" font-size="10.00">/home/runner/work/realm</text>
<text text-anchor="start" x="959" y="-557" font-family="Helvetica,sans-Serif" font-size="10.00">/realm/realm&#45;src/src/realm</text>
<text text-anchor="middle" x="1024" y="-546" font-family="Helvetica,sans-Serif" font-size="10.00">/operation.h</text>
</a>
</g>
</g>
<!-- Node2&#45;&gt;Node23 -->
<g id="edge39_Node000002_Node000023" class="edge">
<title>Node2&#45;&gt;Node23</title>
<g id="a_edge39_Node000002_Node000023"><a xlink:title=" ">
<path fill="none" stroke="#63b8ff" d="M1256.97,-615.79C1207.36,-604.02 1144.92,-589.2 1097.17,-577.87"/>
<polygon fill="#63b8ff" stroke="#63b8ff" points="1256.17,-619.2 1266.71,-618.1 1257.79,-612.39 1256.17,-619.2"/>
</a>
</g>
</g>
<!-- Node30 -->
<g id="Node000030" class="node">
<title>Node30</title>
<g id="a_Node000030"><a xlink:href="rsrv__impl_8h.html" target="_top" xlink:title=" ">
<polygon fill="white" stroke="#666666" points="1577,-580 1431,-580 1431,-539 1577,-539 1577,-580"/>
<text text-anchor="start" x="1439" y="-568" font-family="Helvetica,sans-Serif" font-size="10.00">/home/runner/work/realm</text>
<text text-anchor="start" x="1439" y="-557" font-family="Helvetica,sans-Serif" font-size="10.00">/realm/realm&#45;src/src/realm</text>
<text text-anchor="middle" x="1504" y="-546" font-family="Helvetica,sans-Serif" font-size="10.00">/rsrv_impl.h</text>
</a>
</g>
</g>
<!-- Node2&#45;&gt;Node30 -->
<g id="edge56_Node000002_Node000030" class="edge">
<title>Node2&#45;&gt;Node30</title>
<g id="a_edge56_Node000002_Node000030"><a xlink:title=" ">
<path fill="none" stroke="#63b8ff" d="M1391.99,-611.72C1414.32,-601.51 1440.08,-589.73 1461.27,-580.04"/>
<polygon fill="#63b8ff" stroke="#63b8ff" points="1390.3,-608.65 1382.66,-615.99 1393.21,-615.01 1390.3,-608.65"/>
</a>
</g>
</g>
<!-- Node31 -->
<g id="Node000031" class="node">
<title>Node31</title>
<g id="a_Node000031"><a xlink:href="subgraph__impl_8h.html" target="_top" xlink:title=" ">
<polygon fill="white" stroke="#666666" points="1362,-580 1216,-580 1216,-539 1362,-539 1362,-580"/>
<text text-anchor="start" x="1224" y="-568" font-family="Helvetica,sans-Serif" font-size="10.00">/home/runner/work/realm</text>
<text text-anchor="start" x="1224" y="-557" font-family="Helvetica,sans-Serif" font-size="10.00">/realm/realm&#45;src/src/realm</text>
<text text-anchor="middle" x="1289" y="-546" font-family="Helvetica,sans-Serif" font-size="10.00">/subgraph_impl.h</text>
</a>
</g>
</g>
<!-- Node2&#45;&gt;Node31 -->
<g id="edge62_Node000002_Node000031" class="edge">
<title>Node2&#45;&gt;Node31</title>
<g id="a_edge62_Node000002_Node000031"><a xlink:title=" ">
<path fill="none" stroke="#63b8ff" d="M1320.89,-607.39C1314.7,-598.3 1307.98,-588.41 1302.31,-580.07"/>
<polygon fill="#63b8ff" stroke="#63b8ff" points="1318.08,-609.49 1326.6,-615.79 1323.87,-605.56 1318.08,-609.49"/>
</a>
</g>
</g>
<!-- Node3&#45;&gt;Node4 -->
<g id="edge3_Node000003_Node000004" class="edge">
<title>Node3&#45;&gt;Node4</title>
<g id="a_edge3_Node000003_Node000004"><a xlink:title=" ">
<path fill="none" stroke="#63b8ff" d="M1342.46,-453.71C1336.41,-445.21 1330.35,-435.57 1326,-426 1289.04,-344.76 1299.58,-317.61 1278,-231 1275.02,-219.04 1271.64,-205.65 1268.95,-195.01"/>
<polygon fill="#63b8ff" stroke="#63b8ff" points="1339.67,-455.83 1348.43,-461.79 1345.3,-451.67 1339.67,-455.83"/>
</a>
</g>
</g>
<!-- Node4&#45;&gt;Node5 -->
<g id="edge4_Node000004_Node000005" class="edge">
<title>Node4&#45;&gt;Node5</title>
<g id="a_edge4_Node000004_Node000005"><a xlink:title=" ">
<path fill="none" stroke="#63b8ff" d="M1180.53,-167.36C985.56,-153.01 502.81,-117.48 318.3,-103.9"/>
<polygon fill="#63b8ff" stroke="#63b8ff" points="1180.49,-170.86 1190.72,-168.11 1181,-163.88 1180.49,-170.86"/>
</a>
</g>
</g>
<!-- Node11 -->
<g id="Node000011" class="node">
<title>Node11</title>
<g id="a_Node000011"><a xlink:href="lowlevel__dma_8h.html" target="_top" xlink:title=" ">
<polygon fill="white" stroke="#666666" points="2368,-118 2222,-118 2222,-77 2368,-77 2368,-118"/>
<text text-anchor="start" x="2230" y="-106" font-family="Helvetica,sans-Serif" font-size="10.00">/home/runner/work/realm</text>
<text text-anchor="start" x="2230" y="-95" font-family="Helvetica,sans-Serif" font-size="10.00">/realm/realm&#45;src/src/realm</text>
<text text-anchor="middle" x="2295" y="-84" font-family="Helvetica,sans-Serif" font-size="10.00">/transfer/lowlevel_dma.h</text>
</a>
</g>
</g>
<!-- Node4&#45;&gt;Node11 -->
<g id="edge10_Node000004_Node000011" class="edge">
<title>Node4&#45;&gt;Node11</title>
<g id="a_edge10_Node000004_Node000011"><a xlink:title=" ">
<path fill="none" stroke="#63b8ff" d="M1347.32,-167.44C1544.15,-153.12 2035.33,-117.39 2221.71,-103.83"/>
<polygon fill="#63b8ff" stroke="#63b8ff" points="1347.04,-163.95 1337.32,-168.17 1347.55,-170.93 1347.04,-163.95"/>
</a>
</g>
</g>
<!-- Node6 -->
<g id="Node000006" class="node">
<title>Node6</title>
<g id="a_Node000006"><a xlink:href="cuda__internal_8h.html" target="_top" xlink:title=" ">
<polygon fill="white" stroke="#666666" points="1609,-41 1463,-41 1463,0 1609,0 1609,-41"/>
<text text-anchor="start" x="1471" y="-29" font-family="Helvetica,sans-Serif" font-size="10.00">/home/runner/work/realm</text>
<text text-anchor="start" x="1471" y="-18" font-family="Helvetica,sans-Serif" font-size="10.00">/realm/realm&#45;src/src/realm</text>
<text text-anchor="middle" x="1536" y="-7" font-family="Helvetica,sans-Serif" font-size="10.00">/cuda/cuda_internal.h</text>
</a>
</g>
</g>
<!-- Node5&#45;&gt;Node6 -->
<g id="edge5_Node000005_Node000006" class="edge">
<title>Node5&#45;&gt;Node6</title>
<g id="a_edge5_Node000005_Node000006"><a xlink:title=" ">
<path fill="none" stroke="#63b8ff" d="M328.57,-94.71C565.07,-89.3 1236.04,-71.64 1454,-41 1456.9,-40.59 1459.84,-40.13 1462.81,-39.62"/>
<polygon fill="#63b8ff" stroke="#63b8ff" points="328.23,-91.21 318.31,-94.94 328.39,-98.21 328.23,-91.21"/>
</a>
</g>
</g>
<!-- Node7 -->
<g id="Node000007" class="node">
<title>Node7</title>
<g id="a_Node000007"><a xlink:href="hip__internal_8h.html" target="_top" xlink:title=" ">
<polygon fill="white" stroke="#666666" points="1445,-41 1299,-41 1299,0 1445,0 1445,-41"/>
<text text-anchor="start" x="1307" y="-29" font-family="Helvetica,sans-Serif" font-size="10.00">/home/runner/work/realm</text>
<text text-anchor="start" x="1307" y="-18" font-family="Helvetica,sans-Serif" font-size="10.00">/realm/realm&#45;src/src/realm</text>
<text text-anchor="middle" x="1372" y="-7" font-family="Helvetica,sans-Serif" font-size="10.00">/hip/hip_internal.h</text>
</a>
</g>
</g>
<!-- Node5&#45;&gt;Node7 -->
<g id="edge6_Node000005_Node000007" class="edge">
<title>Node5&#45;&gt;Node7</title>
<g id="a_edge6_Node000005_Node000007"><a xlink:title=" ">
<path fill="none" stroke="#63b8ff" d="M328.65,-77.48C329.77,-77.31 330.89,-77.15 332,-77 692.26,-27.37 1128.37,-21.47 1298.79,-21.22"/>
<polygon fill="#63b8ff" stroke="#63b8ff" points="327.72,-74.08 318.41,-79.14 328.85,-80.99 327.72,-74.08"/>
</a>
</g>
</g>
<!-- Node8 -->
<g id="Node000008" class="node">
<title>Node8</title>
<g id="a_Node000008"><a xlink:href="kokkos__interop_8h.html" target="_top" xlink:title=" ">
<polygon fill="white" stroke="#666666" points="318,-41 172,-41 172,0 318,0 318,-41"/>
<text text-anchor="start" x="180" y="-29" font-family="Helvetica,sans-Serif" font-size="10.00">/home/runner/work/realm</text>
<text text-anchor="start" x="180" y="-18" font-family="Helvetica,sans-Serif" font-size="10.00">/realm/realm&#45;src/src/realm</text>
<text text-anchor="middle" x="245" y="-7" font-family="Helvetica,sans-Serif" font-size="10.00">/kokkos/kokkos_interop.h</text>
</a>
</g>
</g>
<!-- Node5&#45;&gt;Node8 -->
<g id="edge7_Node000005_Node000008" class="edge">
<title>Node5&#45;&gt;Node8</title>
<g id="a_edge7_Node000005_Node000008"><a xlink:title=" ">
<path fill="none" stroke="#63b8ff" d="M245,-66.69C245,-58.08 245,-48.9 245,-41.07"/>
<polygon fill="#63b8ff" stroke="#63b8ff" points="241.5,-66.79 245,-76.79 248.5,-66.79 241.5,-66.79"/>
</a>
</g>
</g>
<!-- Node9 -->
<g id="Node000009" class="node">
<title>Node9</title>
<g id="a_Node000009"><a xlink:href="openmp__internal_8h.html" target="_top" xlink:title=" ">
<polygon fill="white" stroke="#666666" points="154,-41 0,-41 0,0 154,0 154,-41"/>
<text text-anchor="start" x="8" y="-29" font-family="Helvetica,sans-Serif" font-size="10.00">/home/runner/work/realm</text>
<text text-anchor="start" x="8" y="-18" font-family="Helvetica,sans-Serif" font-size="10.00">/realm/realm&#45;src/src/realm</text>
<text text-anchor="middle" x="77" y="-7" font-family="Helvetica,sans-Serif" font-size="10.00">/openmp/openmp_internal.h</text>
</a>
</g>
</g>
<!-- Node5&#45;&gt;Node9 -->
<g id="edge8_Node000005_Node000009" class="edge">
<title>Node5&#45;&gt;Node9</title>
<g id="a_edge8_Node000005_Node000009"><a xlink:title=" ">
<path fill="none" stroke="#63b8ff" d="M192.04,-72.86C169.11,-62.62 142.57,-50.77 120.77,-41.04"/>
<polygon fill="#63b8ff" stroke="#63b8ff" points="190.74,-76.11 201.3,-76.99 193.59,-69.72 190.74,-76.11"/>
</a>
</g>
</g>
<!-- Node10 -->
<g id="Node000010" class="node">
<title>Node10</title>
<g id="a_Node000010"><a xlink:href="python__internal_8h.html" target="_top" xlink:title=" ">
<polygon fill="white" stroke="#666666" points="482,-41 336,-41 336,0 482,0 482,-41"/>
<text text-anchor="start" x="344" y="-29" font-family="Helvetica,sans-Serif" font-size="10.00">/home/runner/work/realm</text>
<text text-anchor="start" x="344" y="-18" font-family="Helvetica,sans-Serif" font-size="10.00">/realm/realm&#45;src/src/realm</text>
<text text-anchor="middle" x="409" y="-7" font-family="Helvetica,sans-Serif" font-size="10.00">/python/python_internal.h</text>
</a>
</g>
</g>
<!-- Node5&#45;&gt;Node10 -->
<g id="edge9_Node000005_Node000010" class="edge">
<title>Node5&#45;&gt;Node10</title>
<g id="a_edge9_Node000005_Node000010"><a xlink:title=" ">
<path fill="none" stroke="#63b8ff" d="M296.99,-72.72C319.32,-62.51 345.08,-50.73 366.27,-41.04"/>
<polygon fill="#63b8ff" stroke="#63b8ff" points="295.3,-69.65 287.66,-76.99 298.21,-76.01 295.3,-69.65"/>
</a>
</g>
</g>
<!-- Node12 -->
<g id="Node000012" class="node">
<title>Node12</title>
<g id="a_Node000012"><a xlink:href="hdf5__internal_8h.html" target="_top" xlink:title=" ">
<polygon fill="white" stroke="#666666" points="2469,-41 2323,-41 2323,0 2469,0 2469,-41"/>
<text text-anchor="start" x="2331" y="-29" font-family="Helvetica,sans-Serif" font-size="10.00">/home/runner/work/realm</text>
<text text-anchor="start" x="2331" y="-18" font-family="Helvetica,sans-Serif" font-size="10.00">/realm/realm&#45;src/src/realm</text>
<text text-anchor="middle" x="2396" y="-7" font-family="Helvetica,sans-Serif" font-size="10.00">/hdf5/hdf5_internal.h</text>
</a>
</g>
</g>
<!-- Node11&#45;&gt;Node12 -->
<g id="edge11_Node000011_Node000012" class="edge">
<title>Node11&#45;&gt;Node12</title>
<g id="a_edge11_Node000011_Node000012"><a xlink:title=" ">
<path fill="none" stroke="#63b8ff" d="M2329.59,-70.82C2342.65,-61.11 2357.3,-50.24 2369.51,-41.17"/>
<polygon fill="#63b8ff" stroke="#63b8ff" points="2327.21,-68.22 2321.27,-76.99 2331.39,-73.84 2327.21,-68.22"/>
</a>
</g>
</g>
<!-- Node13&#45;&gt;Node4 -->
<g id="edge13_Node000013_Node000004" class="edge">
<title>Node13&#45;&gt;Node4</title>
<g id="a_edge13_Node000013_Node000004"><a xlink:title=" ">
<path fill="none" stroke="#63b8ff" d="M1149.33,-300.23C1166.7,-280.83 1190.67,-254.21 1212,-231 1222.99,-219.04 1235.42,-205.76 1245.38,-195.19"/>
<polygon fill="#63b8ff" stroke="#63b8ff" points="1146.61,-298.02 1142.55,-307.81 1151.83,-302.69 1146.61,-298.02"/>
</a>
</g>
</g>
<!-- Node14&#45;&gt;Node11 -->
<g id="edge25_Node000014_Node000011" class="edge">
<title>Node14&#45;&gt;Node11</title>
<g id="a_edge25_Node000014_Node000011"><a xlink:title=" ">
<path fill="none" stroke="#63b8ff" d="M1954.1,-391.46C2071.45,-371.26 2276.72,-328.72 2324,-272 2357.66,-231.62 2347.23,-204.31 2332,-154 2328.04,-140.92 2319.87,-128.11 2312.21,-118.09"/>
<polygon fill="#63b8ff" stroke="#63b8ff" points="1953.34,-388.04 1944.07,-393.17 1954.52,-394.94 1953.34,-388.04"/>
</a>
</g>
</g>
<!-- Node15 -->
<g id="Node000015" class="node">
<title>Node15</title>
<g id="a_Node000015"><a xlink:href="channel_8h.html" target="_top" xlink:title=" ">
<polygon fill="white" stroke="#666666" points="2008,-349 1862,-349 1862,-308 2008,-308 2008,-349"/>
<text text-anchor="start" x="1870" y="-337" font-family="Helvetica,sans-Serif" font-size="10.00">/home/runner/work/realm</text>
<text text-anchor="start" x="1870" y="-326" font-family="Helvetica,sans-Serif" font-size="10.00">/realm/realm&#45;src/src/realm</text>
<text text-anchor="middle" x="1935" y="-315" font-family="Helvetica,sans-Serif" font-size="10.00">/transfer/channel.h</text>
</a>
</g>
</g>
<!-- Node14&#45;&gt;Node15 -->
<g id="edge15_Node000014_Node000015" class="edge">
<title>Node14&#45;&gt;Node15</title>
<g id="a_edge15_Node000014_Node000015"><a xlink:title=" ">
<path fill="none" stroke="#63b8ff" d="M1894.51,-376.95C1902.4,-367.7 1911.04,-357.58 1918.3,-349.07"/>
<polygon fill="#63b8ff" stroke="#63b8ff" points="1891.64,-374.92 1887.82,-384.79 1896.97,-379.46 1891.64,-374.92"/>
</a>
</g>
</g>
<!-- Node19 -->
<g id="Node000019" class="node">
<title>Node19</title>
<g id="a_Node000019"><a xlink:href="transfer_8h.html" target="_top" xlink:title=" ">
<polygon fill="white" stroke="#666666" points="1878,-272 1732,-272 1732,-231 1878,-231 1878,-272"/>
<text text-anchor="start" x="1740" y="-260" font-family="Helvetica,sans-Serif" font-size="10.00">/home/runner/work/realm</text>
<text text-anchor="start" x="1740" y="-249" font-family="Helvetica,sans-Serif" font-size="10.00">/realm/realm&#45;src/src/realm</text>
<text text-anchor="middle" x="1805" y="-238" font-family="Helvetica,sans-Serif" font-size="10.00">/transfer/transfer.h</text>
</a>
</g>
</g>
<!-- Node14&#45;&gt;Node19 -->
<g id="edge26_Node000014_Node000019" class="edge">
<title>Node14&#45;&gt;Node19</title>
<g id="a_edge26_Node000014_Node000019"><a xlink:title=" ">
<path fill="none" stroke="#63b8ff" d="M1858.52,-375.76C1845.41,-345.57 1825.13,-298.87 1813.67,-272.47"/>
<polygon fill="#63b8ff" stroke="#63b8ff" points="1855.31,-377.16 1862.51,-384.94 1861.73,-374.37 1855.31,-377.16"/>
</a>
</g>
</g>
<!-- Node15&#45;&gt;Node6 -->
<g id="edge16_Node000015_Node000006" class="edge">
<title>Node15&#45;&gt;Node6</title>
<g id="a_edge16_Node000015_Node000006"><a xlink:title=" ">
<path fill="none" stroke="#63b8ff" d="M1936.01,-297.78C1935.4,-277.64 1931.98,-251.13 1920,-231 1862.27,-133.99 1818.46,-128.5 1718,-77 1683.9,-59.52 1643.33,-46.49 1609.16,-37.46"/>
<polygon fill="#63b8ff" stroke="#63b8ff" points="1932.51,-297.98 1936.1,-307.95 1939.51,-297.92 1932.51,-297.98"/>
</a>
</g>
</g>
<!-- Node15&#45;&gt;Node7 -->
<g id="edge18_Node000015_Node000007" class="edge">
<title>Node15&#45;&gt;Node7</title>
<g id="a_edge18_Node000015_Node000007"><a xlink:title=" ">
<path fill="none" stroke="#63b8ff" d="M1926.61,-298.18C1919.24,-277.04 1906.57,-249.15 1887,-231 1818.26,-167.25 1557.32,-79.62 1435.44,-41.06"/>
<polygon fill="#63b8ff" stroke="#63b8ff" points="1923.37,-299.53 1929.82,-307.94 1930.02,-297.34 1923.37,-299.53"/>
</a>
</g>
</g>
<!-- Node15&#45;&gt;Node11 -->
<g id="edge21_Node000015_Node000011" class="edge">
<title>Node15&#45;&gt;Node11</title>
<g id="a_edge21_Node000015_Node000011"><a xlink:title=" ">
<path fill="none" stroke="#63b8ff" d="M2018.31,-326.96C2114.85,-324.36 2265.29,-313.54 2301,-272 2338.43,-228.46 2316.83,-153.65 2303.33,-118.21"/>
<polygon fill="#63b8ff" stroke="#63b8ff" points="2018.18,-323.47 2008.27,-327.21 2018.35,-330.46 2018.18,-323.47"/>
</a>
</g>
</g>
<!-- Node15&#45;&gt;Node12 -->
<g id="edge17_Node000015_Node000012" class="edge">
<title>Node15&#45;&gt;Node12</title>
<g id="a_edge17_Node000015_Node000012"><a xlink:title=" ">
<path fill="none" stroke="#63b8ff" d="M2018.31,-320.24C2125.53,-310.2 2300.85,-291.13 2324,-272 2395.16,-213.2 2398.63,-89.04 2397.1,-41.03"/>
<polygon fill="#63b8ff" stroke="#63b8ff" points="2017.79,-316.77 2008.16,-321.18 2018.44,-323.74 2017.79,-316.77"/>
</a>
</g>
</g>
<!-- Node16 -->
<g id="Node000016" class="node">
<title>Node16</title>
<g id="a_Node000016"><a xlink:href="addrsplit__channel_8h.html" target="_top" xlink:title=" ">
<polygon fill="white" stroke="#666666" points="2128,-272 1972,-272 1972,-231 2128,-231 2128,-272"/>
<text text-anchor="start" x="1980" y="-260" font-family="Helvetica,sans-Serif" font-size="10.00">/home/runner/work/realm</text>
<text text-anchor="start" x="1980" y="-249" font-family="Helvetica,sans-Serif" font-size="10.00">/realm/realm&#45;src/src/realm</text>
<text text-anchor="middle" x="2050" y="-238" font-family="Helvetica,sans-Serif" font-size="10.00">/transfer/addrsplit_channel.h</text>
</a>
</g>
</g>
<!-- Node15&#45;&gt;Node16 -->
<g id="edge19_Node000015_Node000016" class="edge">
<title>Node15&#45;&gt;Node16</title>
<g id="a_edge19_Node000015_Node000016"><a xlink:title=" ">
<path fill="none" stroke="#63b8ff" d="M1973.53,-302.37C1988.62,-292.53 2005.67,-281.41 2019.84,-272.17"/>
<polygon fill="#63b8ff" stroke="#63b8ff" points="1971.38,-299.6 1964.91,-307.99 1975.2,-305.46 1971.38,-299.6"/>
</a>
</g>
</g>
<!-- Node17 -->
<g id="Node000017" class="node">
<title>Node17</title>
<g id="a_Node000017"><a xlink:href="channel__disk_8h.html" target="_top" xlink:title=" ">
<polygon fill="white" stroke="#666666" points="2292,-272 2146,-272 2146,-231 2292,-231 2292,-272"/>
<text text-anchor="start" x="2154" y="-260" font-family="Helvetica,sans-Serif" font-size="10.00">/home/runner/work/realm</text>
<text text-anchor="start" x="2154" y="-249" font-family="Helvetica,sans-Serif" font-size="10.00">/realm/realm&#45;src/src/realm</text>
<text text-anchor="middle" x="2219" y="-238" font-family="Helvetica,sans-Serif" font-size="10.00">/transfer/channel_disk.h</text>
</a>
</g>
</g>
<!-- Node15&#45;&gt;Node17 -->
<g id="edge20_Node000015_Node000017" class="edge">
<title>Node15&#45;&gt;Node17</title>
<g id="a_edge20_Node000015_Node000017"><a xlink:title=" ">
<path fill="none" stroke="#63b8ff" d="M2017.97,-305.59C2058.38,-294.92 2106.56,-282.19 2145.62,-271.88"/>
<polygon fill="#63b8ff" stroke="#63b8ff" points="2016.91,-302.25 2008.14,-308.19 2018.7,-309.02 2016.91,-302.25"/>
</a>
</g>
</g>
<!-- Node18 -->
<g id="Node000018" class="node">
<title>Node18</title>
<g id="a_Node000018"><a xlink:href="memcpy__channel_8h.html" target="_top" xlink:title=" ">
<polygon fill="white" stroke="#666666" points="1676,-272 1520,-272 1520,-231 1676,-231 1676,-272"/>
<text text-anchor="start" x="1528" y="-260" font-family="Helvetica,sans-Serif" font-size="10.00">/home/runner/work/realm</text>
<text text-anchor="start" x="1528" y="-249" font-family="Helvetica,sans-Serif" font-size="10.00">/realm/realm&#45;src/src/realm</text>
<text text-anchor="middle" x="1598" y="-238" font-family="Helvetica,sans-Serif" font-size="10.00">/transfer/memcpy_channel.h</text>
</a>
</g>
</g>
<!-- Node15&#45;&gt;Node18 -->
<g id="edge22_Node000015_Node000018" class="edge">
<title>Node15&#45;&gt;Node18</title>
<g id="a_edge22_Node000015_Node000018"><a xlink:title=" ">
<path fill="none" stroke="#63b8ff" d="M1852.05,-309.04C1798.39,-297.1 1728.97,-281.65 1676.26,-269.92"/>
<polygon fill="#63b8ff" stroke="#63b8ff" points="1851.35,-312.47 1861.88,-311.23 1852.88,-305.64 1851.35,-312.47"/>
</a>
</g>
</g>
<!-- Node15&#45;&gt;Node19 -->
<g id="edge23_Node000015_Node000019" class="edge">
<title>Node15&#45;&gt;Node19</title>
<g id="a_edge23_Node000015_Node000019"><a xlink:title=" ">
<path fill="none" stroke="#63b8ff" d="M1892.39,-302.92C1875.11,-292.95 1855.41,-281.58 1839.1,-272.17"/>
<polygon fill="#63b8ff" stroke="#63b8ff" points="1890.77,-306.02 1901.18,-307.99 1894.27,-299.96 1890.77,-306.02"/>
</a>
</g>
</g>
<!-- Node19&#45;&gt;Node4 -->
<g id="edge24_Node000019_Node000004" class="edge">
<title>Node19&#45;&gt;Node4</title>
<g id="a_edge24_Node000019_Node000004"><a xlink:title=" ">
<path fill="none" stroke="#63b8ff" d="M1721.54,-236.61C1709.3,-234.66 1696.83,-232.74 1685,-231 1563.19,-213.08 1421.15,-194.92 1337.11,-184.46"/>
<polygon fill="#63b8ff" stroke="#63b8ff" points="1721.33,-240.12 1731.76,-238.24 1722.44,-233.21 1721.33,-240.12"/>
</a>
</g>
</g>
<!-- Node20&#45;&gt;Node6 -->
<g id="edge28_Node000020_Node000006" class="edge">
<title>Node20&#45;&gt;Node6</title>
<g id="a_edge28_Node000020_Node000006"><a xlink:title=" ">
<path fill="none" stroke="#63b8ff" d="M1656.24,-455.33C1665.73,-447.03 1674.92,-437.08 1681,-426 1722.68,-349.99 1715.61,-312.1 1685,-231 1655.29,-152.29 1588.55,-75.9 1555.42,-41.1"/>
<polygon fill="#63b8ff" stroke="#63b8ff" points="1653.74,-452.85 1648.25,-461.91 1658.19,-458.25 1653.74,-452.85"/>
</a>
</g>
</g>
<!-- Node20&#45;&gt;Node7 -->
<g id="edge30_Node000020_Node000007" class="edge">
<title>Node20&#45;&gt;Node7</title>
<g id="a_edge30_Node000020_Node000007"><a xlink:title=" ">
<path fill="none" stroke="#63b8ff" d="M1534.66,-464.97C1493.19,-455.08 1448.97,-441.44 1435,-426 1405.68,-393.58 1416,-373.21 1416,-329.5 1416,-329.5 1416,-329.5 1416,-173.5 1416,-124.32 1394.49,-69.6 1381.55,-41.14"/>
<polygon fill="#63b8ff" stroke="#63b8ff" points="1534.03,-468.41 1544.56,-467.27 1535.62,-461.6 1534.03,-468.41"/>
</a>
</g>
</g>
<!-- Node20&#45;&gt;Node12 -->
<g id="edge29_Node000020_Node000012" class="edge">
<title>Node20&#45;&gt;Node12</title>
<g id="a_edge29_Node000020_Node000012"><a xlink:title=" ">
<path fill="none" stroke="#63b8ff" d="M1701.46,-476.9C1916.37,-462.79 2472,-410.99 2472,-252.5 2472,-252.5 2472,-252.5 2472,-173.5 2472,-121.28 2435.67,-68.61 2413.25,-41.07"/>
<polygon fill="#63b8ff" stroke="#63b8ff" points="1700.93,-473.43 1691.18,-477.56 1701.39,-480.41 1700.93,-473.43"/>
</a>
</g>
</g>
<!-- Node20&#45;&gt;Node14 -->
<g id="edge31_Node000020_Node000014" class="edge">
<title>Node20&#45;&gt;Node14</title>
<g id="a_edge31_Node000020_Node000014"><a xlink:title=" ">
<path fill="none" stroke="#63b8ff" d="M1693.63,-459.08C1729.08,-448.57 1770.94,-436.16 1805.08,-426.04"/>
<polygon fill="#63b8ff" stroke="#63b8ff" points="1692.41,-455.79 1683.81,-461.99 1694.39,-462.5 1692.41,-455.79"/>
</a>
</g>
</g>
<!-- Node20&#45;&gt;Node15 -->
<g id="edge32_Node000020_Node000015" class="edge">
<title>Node20&#45;&gt;Node15</title>
<g id="a_edge32_Node000020_Node000015"><a xlink:title=" ">
<path fill="none" stroke="#63b8ff" d="M1684.04,-458.09C1704.68,-449.42 1727,-438.59 1746,-426 1768.01,-411.41 1766.66,-399.08 1789,-385 1812.86,-369.96 1841.43,-357.98 1866.94,-349.06"/>
<polygon fill="#63b8ff" stroke="#63b8ff" points="1682.62,-454.89 1674.7,-461.92 1685.28,-461.37 1682.62,-454.89"/>
</a>
</g>
</g>
<!-- Node20&#45;&gt;Node18 -->
<g id="edge37_Node000020_Node000018" class="edge">
<title>Node20&#45;&gt;Node18</title>
<g id="a_edge37_Node000020_Node000018"><a xlink:title=" ">
<path fill="none" stroke="#63b8ff" d="M1640.24,-453.64C1665.42,-418.46 1699.91,-356.65 1675,-308 1667.27,-292.89 1653.29,-280.96 1639.35,-272.09"/>
<polygon fill="#63b8ff" stroke="#63b8ff" points="1637.2,-451.86 1634.08,-461.98 1642.83,-456.02 1637.2,-451.86"/>
</a>
</g>
</g>
<!-- Node21 -->
<g id="Node000021" class="node">
<title>Node21</title>
<g id="a_Node000021"><a xlink:href="ib__memory_8h.html" target="_top" xlink:title=" ">
<polygon fill="white" stroke="#666666" points="1590,-426 1444,-426 1444,-385 1590,-385 1590,-426"/>
<text text-anchor="start" x="1452" y="-414" font-family="Helvetica,sans-Serif" font-size="10.00">/home/runner/work/realm</text>
<text text-anchor="start" x="1452" y="-403" font-family="Helvetica,sans-Serif" font-size="10.00">/realm/realm&#45;src/src/realm</text>
<text text-anchor="middle" x="1517" y="-392" font-family="Helvetica,sans-Serif" font-size="10.00">/transfer/ib_memory.h</text>
</a>
</g>
</g>
<!-- Node20&#45;&gt;Node21 -->
<g id="edge33_Node000020_Node000021" class="edge">
<title>Node20&#45;&gt;Node21</title>
<g id="a_edge33_Node000020_Node000021"><a xlink:title=" ">
<path fill="none" stroke="#63b8ff" d="M1583.41,-455.82C1570.35,-446.11 1555.7,-435.24 1543.49,-426.17"/>
<polygon fill="#63b8ff" stroke="#63b8ff" points="1581.61,-458.84 1591.73,-461.99 1585.79,-453.22 1581.61,-458.84"/>
</a>
</g>
</g>
<!-- Node22 -->
<g id="Node000022" class="node">
<title>Node22</title>
<g id="a_Node000022"><a xlink:href="ucp__internal_8h.html" target="_top" xlink:title=" ">
<polygon fill="white" stroke="#666666" points="1666,-349 1520,-349 1520,-308 1666,-308 1666,-349"/>
<text text-anchor="start" x="1528" y="-337" font-family="Helvetica,sans-Serif" font-size="10.00">/home/runner/work/realm</text>
<text text-anchor="start" x="1528" y="-326" font-family="Helvetica,sans-Serif" font-size="10.00">/realm/realm&#45;src/src/realm</text>
<text text-anchor="middle" x="1593" y="-315" font-family="Helvetica,sans-Serif" font-size="10.00">/ucx/ucp_internal.h</text>
</a>
</g>
</g>
<!-- Node20&#45;&gt;Node22 -->
<g id="edge38_Node000020_Node000022" class="edge">
<title>Node20&#45;&gt;Node22</title>
<g id="a_edge38_Node000020_Node000022"><a xlink:title=" ">
<path fill="none" stroke="#63b8ff" d="M1613.14,-451.98C1608.17,-421.76 1600.59,-375.64 1596.28,-349.47"/>
<polygon fill="#63b8ff" stroke="#63b8ff" points="1609.71,-452.64 1614.78,-461.94 1616.61,-451.5 1609.71,-452.64"/>
</a>
</g>
</g>
<!-- Node21&#45;&gt;Node6 -->
<g id="edge34_Node000021_Node000006" class="edge">
<title>Node21&#45;&gt;Node6</title>
<g id="a_edge34_Node000021_Node000006"><a xlink:title=" ">
<path fill="none" stroke="#63b8ff" d="M1509.23,-375.04C1501.89,-344.59 1492,-295.56 1492,-252.5 1492,-252.5 1492,-252.5 1492,-173.5 1492,-124.32 1513.51,-69.6 1526.45,-41.14"/>
<polygon fill="#63b8ff" stroke="#63b8ff" points="1505.89,-376.13 1511.7,-384.99 1512.69,-374.44 1505.89,-376.13"/>
</a>
</g>
</g>
<!-- Node21&#45;&gt;Node7 -->
<g id="edge35_Node000021_Node000007" class="edge">
<title>Node21&#45;&gt;Node7</title>
<g id="a_edge35_Node000021_Node000007"><a xlink:title=" ">
<path fill="none" stroke="#63b8ff" d="M1497.52,-376.41C1479.01,-346.94 1454,-298.58 1454,-252.5 1454,-252.5 1454,-252.5 1454,-173.5 1454,-129.3 1452.17,-115.23 1430,-77 1422.03,-63.26 1409.66,-50.75 1398.38,-41.1"/>
<polygon fill="#63b8ff" stroke="#63b8ff" points="1494.65,-378.43 1503.02,-384.93 1500.53,-374.63 1494.65,-378.43"/>
</a>
</g>
</g>
<!-- Node21&#45;&gt;Node22 -->
<g id="edge36_Node000021_Node000022" class="edge">
<title>Node21&#45;&gt;Node22</title>
<g id="a_edge36_Node000021_Node000022"><a xlink:title=" ">
<path fill="none" stroke="#63b8ff" d="M1544.35,-377.51C1553.87,-368.11 1564.37,-357.76 1573.17,-349.07"/>
<polygon fill="#63b8ff" stroke="#63b8ff" points="1541.63,-375.28 1536.97,-384.79 1546.54,-380.26 1541.63,-375.28"/>
</a>
</g>
</g>
<!-- Node23&#45;&gt;Node4 -->
<g id="edge50_Node000023_Node000004" class="edge">
<title>Node23&#45;&gt;Node4</title>
<g id="a_edge50_Node000023_Node000004"><a xlink:title=" ">
<path fill="none" stroke="#63b8ff" d="M1032.68,-529.2C1034.81,-520.81 1036.82,-511.61 1038,-503 1039.47,-492.26 1037.55,-317.36 1043,-308 1076.77,-250.02 1146.84,-214.49 1199.08,-195.01"/>
<polygon fill="#63b8ff" stroke="#63b8ff" points="1029.28,-528.36 1030.06,-538.93 1036.04,-530.18 1029.28,-528.36"/>
</a>
</g>
</g>
<!-- Node23&#45;&gt;Node5 -->
<g id="edge49_Node000023_Node000005" class="edge">
<title>Node23&#45;&gt;Node5</title>
<g id="a_edge49_Node000023_Node000005"><a xlink:title=" ">
<path fill="none" stroke="#63b8ff" d="M940.58,-557.72C756.48,-555.23 327.72,-544.94 278,-503 244.22,-474.51 254,-450.7 254,-406.5 254,-406.5 254,-406.5 254,-250.5 254,-202.92 249.55,-147.1 246.91,-118.15"/>
<polygon fill="#63b8ff" stroke="#63b8ff" points="940.71,-561.22 950.76,-557.85 940.81,-554.22 940.71,-561.22"/>
</a>
</g>
</g>
<!-- Node23&#45;&gt;Node6 -->
<g id="edge40_Node000023_Node000006" class="edge">
<title>Node23&#45;&gt;Node6</title>
<g id="a_edge40_Node000023_Node000006"><a xlink:title=" ">
<path fill="none" stroke="#63b8ff" d="M1014.77,-529.12C994.52,-463.66 948,-307.32 948,-252.5 948,-252.5 948,-252.5 948,-173.5 948,-166.93 1305.09,-78.29 1462.72,-39.48"/>
<polygon fill="#63b8ff" stroke="#63b8ff" points="1011.47,-530.3 1017.78,-538.81 1018.16,-528.22 1011.47,-530.3"/>
</a>
</g>
</g>
<!-- Node23&#45;&gt;Node7 -->
<g id="edge47_Node000023_Node000007" class="edge">
<title>Node23&#45;&gt;Node7</title>
<g id="a_edge47_Node000023_Node000007"><a xlink:title=" ">
<path fill="none" stroke="#63b8ff" d="M940.88,-543.38C879.98,-532.28 795.34,-516.79 721,-503 534.56,-468.42 210.95,-546.07 311,-385 473.98,-122.62 638.25,-166.09 934,-77 1058.58,-39.47 1210.53,-27.31 1298.77,-23.37"/>
<polygon fill="#63b8ff" stroke="#63b8ff" points="940.35,-546.84 950.82,-545.19 941.61,-539.95 940.35,-546.84"/>
</a>
</g>
</g>
<!-- Node23&#45;&gt;Node19 -->
<g id="edge54_Node000023_Node000019" class="edge">
<title>Node23&#45;&gt;Node19</title>
<g id="a_edge54_Node000023_Node000019"><a xlink:title=" ">
<path fill="none" stroke="#63b8ff" d="M1075.78,-534.93C1127.24,-512.54 1208.98,-479.73 1283,-462 1420.47,-429.08 1469.18,-481.92 1599,-426 1682.1,-390.21 1757.27,-309.4 1789.02,-272.07"/>
<polygon fill="#63b8ff" stroke="#63b8ff" points="1074.28,-531.76 1066.53,-538.99 1077.09,-538.18 1074.28,-531.76"/>
</a>
</g>
</g>
<!-- Node23&#45;&gt;Node20 -->
<g id="edge48_Node000023_Node000020" class="edge">
<title>Node23&#45;&gt;Node20</title>
<g id="a_edge48_Node000023_Node000020"><a xlink:title=" ">
<path fill="none" stroke="#63b8ff" d="M1107.08,-548.01C1223.58,-533.3 1433.64,-506.78 1544.65,-492.76"/>
<polygon fill="#63b8ff" stroke="#63b8ff" points="1106.62,-544.54 1097.13,-549.27 1107.49,-551.49 1106.62,-544.54"/>
</a>
</g>
</g>
<!-- Node24 -->
<g id="Node000024" class="node">
<title>Node24</title>
<g id="a_Node000024"><a xlink:href="partitions_8h.html" target="_top" xlink:title=" ">
<polygon fill="white" stroke="#666666" points="876,-503 730,-503 730,-462 876,-462 876,-503"/>
<text text-anchor="start" x="738" y="-491" font-family="Helvetica,sans-Serif" font-size="10.00">/home/runner/work/realm</text>
<text text-anchor="start" x="738" y="-480" font-family="Helvetica,sans-Serif" font-size="10.00">/realm/realm&#45;src/src/realm</text>
<text text-anchor="middle" x="803" y="-469" font-family="Helvetica,sans-Serif" font-size="10.00">/deppart/partitions.h</text>
</a>
</g>
</g>
<!-- Node23&#45;&gt;Node24 -->
<g id="edge41_Node000023_Node000024" class="edge">
<title>Node23&#45;&gt;Node24</title>
<g id="a_edge41_Node000023_Node000024"><a xlink:title=" ">
<path fill="none" stroke="#63b8ff" d="M956.74,-535.67C926.03,-525.25 890.03,-513.03 860.58,-503.04"/>
<polygon fill="#63b8ff" stroke="#63b8ff" points="955.92,-539.09 966.51,-538.99 958.17,-532.46 955.92,-539.09"/>
</a>
</g>
</g>
<!-- Node29 -->
<g id="Node000029" class="node">
<title>Node29</title>
<g id="a_Node000029"><a xlink:href="tasks_8h.html" target="_top" xlink:title=" ">
<polygon fill="white" stroke="#666666" points="150,-195 4,-195 4,-154 150,-154 150,-195"/>
<text text-anchor="start" x="12" y="-183" font-family="Helvetica,sans-Serif" font-size="10.00">/home/runner/work/realm</text>
<text text-anchor="start" x="12" y="-172" font-family="Helvetica,sans-Serif" font-size="10.00">/realm/realm&#45;src/src/realm</text>
<text text-anchor="middle" x="77" y="-161" font-family="Helvetica,sans-Serif" font-size="10.00">/tasks.h</text>
</a>
</g>
</g>
<!-- Node23&#45;&gt;Node29 -->
<g id="edge51_Node000023_Node000029" class="edge">
<title>Node23&#45;&gt;Node29</title>
<g id="a_edge51_Node000023_Node000029"><a xlink:title=" ">
<path fill="none" stroke="#63b8ff" d="M940.5,-558.05C749.43,-556.24 292.7,-547.28 240,-503 206.16,-474.57 216,-450.7 216,-406.5 216,-406.5 216,-406.5 216,-327.5 216,-266.89 155.06,-219.9 113.88,-195.07"/>
<polygon fill="#63b8ff" stroke="#63b8ff" points="940.75,-561.55 950.78,-558.14 940.81,-554.55 940.75,-561.55"/>
</a>
</g>
</g>
<!-- Node24&#45;&gt;Node4 -->
<g id="edge46_Node000024_Node000004" class="edge">
<title>Node24&#45;&gt;Node4</title>
<g id="a_edge46_Node000024_Node000004"><a xlink:title=" ">
<path fill="none" stroke="#63b8ff" d="M885.92,-470.6C915.29,-462.74 946.18,-449.23 967,-426 1026.23,-359.91 947.19,-293.69 1010,-231 1035.12,-205.93 1125.22,-190.72 1190.99,-182.71"/>
<polygon fill="#63b8ff" stroke="#63b8ff" points="884.9,-467.25 876.03,-473.06 886.58,-474.05 884.9,-467.25"/>
</a>
</g>
</g>
<!-- Node25 -->
<g id="Node000025" class="node">
<title>Node25</title>
<g id="a_Node000025"><a xlink:href="byfield_8h.html" target="_top" xlink:title=" ">
<polygon fill="white" stroke="#666666" points="466,-426 320,-426 320,-385 466,-385 466,-426"/>
<text text-anchor="start" x="328" y="-414" font-family="Helvetica,sans-Serif" font-size="10.00">/home/runner/work/realm</text>
<text text-anchor="start" x="328" y="-403" font-family="Helvetica,sans-Serif" font-size="10.00">/realm/realm&#45;src/src/realm</text>
<text text-anchor="middle" x="393" y="-392" font-family="Helvetica,sans-Serif" font-size="10.00">/deppart/byfield.h</text>
</a>
</g>
</g>
<!-- Node24&#45;&gt;Node25 -->
<g id="edge42_Node000024_Node000025" class="edge">
<title>Node24&#45;&gt;Node25</title>
<g id="a_edge42_Node000024_Node000025"><a xlink:title=" ">
<path fill="none" stroke="#63b8ff" d="M719.79,-468.97C653.32,-458.59 557.9,-442.85 475,-426 472.13,-425.42 469.21,-424.81 466.26,-424.18"/>
<polygon fill="#63b8ff" stroke="#63b8ff" points="719.37,-472.45 729.79,-470.53 720.45,-465.53 719.37,-472.45"/>
</a>
</g>
</g>
<!-- Node26 -->
<g id="Node000026" class="node">
<title>Node26</title>
<g id="a_Node000026"><a xlink:href="image_8h.html" target="_top" xlink:title=" ">
<polygon fill="white" stroke="#666666" points="630,-426 484,-426 484,-385 630,-385 630,-426"/>
<text text-anchor="start" x="492" y="-414" font-family="Helvetica,sans-Serif" font-size="10.00">/home/runner/work/realm</text>
<text text-anchor="start" x="492" y="-403" font-family="Helvetica,sans-Serif" font-size="10.00">/realm/realm&#45;src/src/realm</text>
<text text-anchor="middle" x="557" y="-392" font-family="Helvetica,sans-Serif" font-size="10.00">/deppart/image.h</text>
</a>
</g>
</g>
<!-- Node24&#45;&gt;Node26 -->
<g id="edge43_Node000024_Node000026" class="edge">
<title>Node24&#45;&gt;Node26</title>
<g id="a_edge43_Node000024_Node000026"><a xlink:title=" ">
<path fill="none" stroke="#63b8ff" d="M729.02,-458.94C694.64,-448.46 654.15,-436.12 621.1,-426.04"/>
<polygon fill="#63b8ff" stroke="#63b8ff" points="728.42,-462.42 739.01,-461.99 730.46,-455.73 728.42,-462.42"/>
</a>
</g>
</g>
<!-- Node27 -->
<g id="Node000027" class="node">
<title>Node27</title>
<g id="a_Node000027"><a xlink:href="preimage_8h.html" target="_top" xlink:title=" ">
<polygon fill="white" stroke="#666666" points="794,-426 648,-426 648,-385 794,-385 794,-426"/>
<text text-anchor="start" x="656" y="-414" font-family="Helvetica,sans-Serif" font-size="10.00">/home/runner/work/realm</text>
<text text-anchor="start" x="656" y="-403" font-family="Helvetica,sans-Serif" font-size="10.00">/realm/realm&#45;src/src/realm</text>
<text text-anchor="middle" x="721" y="-392" font-family="Helvetica,sans-Serif" font-size="10.00">/deppart/preimage.h</text>
</a>
</g>
</g>
<!-- Node24&#45;&gt;Node27 -->
<g id="edge44_Node000024_Node000027" class="edge">
<title>Node24&#45;&gt;Node27</title>
<g id="a_edge44_Node000024_Node000027"><a xlink:title=" ">
<path fill="none" stroke="#63b8ff" d="M773.8,-454.79C763.44,-445.32 751.99,-434.84 742.4,-426.07"/>
<polygon fill="#63b8ff" stroke="#63b8ff" points="771.71,-457.63 781.46,-461.79 776.44,-452.46 771.71,-457.63"/>
</a>
</g>
</g>
<!-- Node28 -->
<g id="Node000028" class="node">
<title>Node28</title>
<g id="a_Node000028"><a xlink:href="setops_8h.html" target="_top" xlink:title=" ">
<polygon fill="white" stroke="#666666" points="958,-426 812,-426 812,-385 958,-385 958,-426"/>
<text text-anchor="start" x="820" y="-414" font-family="Helvetica,sans-Serif" font-size="10.00">/home/runner/work/realm</text>
<text text-anchor="start" x="820" y="-403" font-family="Helvetica,sans-Serif" font-size="10.00">/realm/realm&#45;src/src/realm</text>
<text text-anchor="middle" x="885" y="-392" font-family="Helvetica,sans-Serif" font-size="10.00">/deppart/setops.h</text>
</a>
</g>
</g>
<!-- Node24&#45;&gt;Node28 -->
<g id="edge45_Node000024_Node000028" class="edge">
<title>Node24&#45;&gt;Node28</title>
<g id="a_edge45_Node000024_Node000028"><a xlink:title=" ">
<path fill="none" stroke="#63b8ff" d="M832.2,-454.79C842.56,-445.32 854.01,-434.84 863.6,-426.07"/>
<polygon fill="#63b8ff" stroke="#63b8ff" points="829.56,-452.46 824.54,-461.79 834.29,-457.63 829.56,-452.46"/>
</a>
</g>
</g>
<!-- Node29&#45;&gt;Node5 -->
<g id="edge53_Node000029_Node000005" class="edge">
<title>Node29&#45;&gt;Node5</title>
<g id="a_edge53_Node000029_Node000005"><a xlink:title=" ">
<path fill="none" stroke="#63b8ff" d="M129.96,-149.86C152.89,-139.62 179.43,-127.77 201.23,-118.04"/>
<polygon fill="#63b8ff" stroke="#63b8ff" points="128.41,-146.72 120.7,-153.99 131.26,-153.11 128.41,-146.72"/>
</a>
</g>
</g>
<!-- Node29&#45;&gt;Node9 -->
<g id="edge52_Node000029_Node000009" class="edge">
<title>Node29&#45;&gt;Node9</title>
<g id="a_edge52_Node000029_Node000009"><a xlink:title=" ">
<path fill="none" stroke="#63b8ff" d="M77,-143.58C77,-113.36 77,-67.53 77,-41.47"/>
<polygon fill="#63b8ff" stroke="#63b8ff" points="73.5,-143.94 77,-153.94 80.5,-143.94 73.5,-143.94"/>
</a>
</g>
</g>
<!-- Node30&#45;&gt;Node4 -->
<g id="edge60_Node000030_Node000004" class="edge">
<title>Node30&#45;&gt;Node4</title>
<g id="a_edge60_Node000030_Node000004"><a xlink:title=" ">
<path fill="none" stroke="#63b8ff" d="M1492.57,-529.21C1483.08,-508.15 1467.78,-480.34 1447,-462 1416.86,-435.39 1391.37,-455.46 1364,-426 1301.53,-358.75 1334.2,-314.46 1296,-231 1290.35,-218.66 1282.82,-205.48 1276.48,-195.06"/>
<polygon fill="#63b8ff" stroke="#63b8ff" points="1489.46,-530.85 1496.64,-538.64 1495.89,-528.07 1489.46,-530.85"/>
</a>
</g>
</g>
<!-- Node30&#45;&gt;Node5 -->
<g id="edge59_Node000030_Node000005" class="edge">
<title>Node30&#45;&gt;Node5</title>
<g id="a_edge59_Node000030_Node000005"><a xlink:title=" ">
<path fill="none" stroke="#63b8ff" d="M1501.36,-528.59C1498.2,-507.98 1491.26,-480.99 1476,-462 1455.07,-435.95 1431.42,-451.65 1410,-426 1381.04,-391.32 1378,-374.69 1378,-329.5 1378,-329.5 1378,-329.5 1378,-250.5 1378,-205.31 1381.96,-181.36 1346,-154 1305.12,-122.89 558.05,-104.92 318.36,-99.94"/>
<polygon fill="#63b8ff" stroke="#63b8ff" points="1497.92,-529.25 1502.69,-538.71 1504.86,-528.34 1497.92,-529.25"/>
</a>
</g>
</g>
<!-- Node30&#45;&gt;Node14 -->
<g id="edge57_Node000030_Node000014" class="edge">
<title>Node30&#45;&gt;Node14</title>
<g id="a_edge57_Node000030_Node000014"><a xlink:title=" ">
<path fill="none" stroke="#63b8ff" d="M1586.92,-539.69C1622.4,-530.45 1663.89,-518.05 1700,-503 1752.08,-481.3 1808.29,-447.32 1841.52,-426.02"/>
<polygon fill="#63b8ff" stroke="#63b8ff" points="1585.9,-536.34 1577.08,-542.21 1587.63,-543.12 1585.9,-536.34"/>
</a>
</g>
</g>
<!-- Node30&#45;&gt;Node20 -->
<g id="edge58_Node000030_Node000020" class="edge">
<title>Node30&#45;&gt;Node20</title>
<g id="a_edge58_Node000030_Node000020"><a xlink:title=" ">
<path fill="none" stroke="#63b8ff" d="M1542.2,-533.37C1557.16,-523.53 1574.06,-512.41 1588.1,-503.17"/>
<polygon fill="#63b8ff" stroke="#63b8ff" points="1540.09,-530.57 1533.65,-538.99 1543.93,-536.42 1540.09,-530.57"/>
</a>
</g>
</g>
<!-- Node31&#45;&gt;Node4 -->
<g id="edge63_Node000031_Node000004" class="edge">
<title>Node31&#45;&gt;Node4</title>
<g id="a_edge63_Node000031_Node000004"><a xlink:title=" ">
<path fill="none" stroke="#63b8ff" d="M1281.23,-529.04C1273.89,-498.59 1264,-449.56 1264,-406.5 1264,-406.5 1264,-406.5 1264,-327.5 1264,-280 1264,-224.15 1264,-195.18"/>
<polygon fill="#63b8ff" stroke="#63b8ff" points="1277.89,-530.13 1283.7,-538.99 1284.69,-528.44 1277.89,-530.13"/>
</a>
</g>
</g>
</g>
</svg>
