<?xml version="1.0" encoding="UTF-8" standalone="no"?>
<!DOCTYPE svg PUBLIC "-//W3C//DTD SVG 1.1//EN"
 "http://www.w3.org/Graphics/SVG/1.1/DTD/svg11.dtd">
<!-- Generated by graphviz version 2.43.0 (0)
 -->
<!-- Title: /home/runner/work/realm/realm/realm&#45;src/src/realm/dynamic_table.h Pages: 1 -->
<svg width="1042pt" height="269pt"
 viewBox="0.00 0.00 1042.00 269.00" xmlns="http://www.w3.org/2000/svg" xmlns:xlink="http://www.w3.org/1999/xlink">
<g id="graph0" class="graph" transform="scale(1 1) rotate(0) translate(4 265)">
<title>/home/runner/work/realm/realm/realm&#45;src/src/realm/dynamic_table.h</title>
<!-- Node1 -->
<g id="Node000001" class="node">
<title>Node1</title>
<g id="a_Node000001"><a xlink:title=" ">
<polygon fill="#999999" stroke="#666666" points="489,-261 343,-261 343,-220 489,-220 489,-261"/>
<text text-anchor="start" x="351" y="-249" font-family="Helvetica,sans-Serif" font-size="10.00">/home/runner/work/realm</text>
<text text-anchor="start" x="351" y="-238" font-family="Helvetica,sans-Serif" font-size="10.00">/realm/realm&#45;src/src/realm</text>
<text text-anchor="middle" x="416" y="-227" font-family="Helvetica,sans-Serif" font-size="10.00">/dynamic_table.h</text>
</a>
</g>
</g>
<!-- Node2 -->
<g id="Node000002" class="node">
<title>Node2</title>
<g id="a_Node000002"><a xlink:href="atomics_8h.html" target="_top" xlink:title=" ">
<polygon fill="white" stroke="#666666" points="174,-129 78,-129 78,-110 174,-110 174,-129"/>
<text text-anchor="middle" x="126" y="-117" font-family="Helvetica,sans-Serif" font-size="10.00">realm/atomics.h</text>
</a>
</g>
</g>
<!-- Node1&#45;&gt;Node2 -->
<g id="edge1_Node000001_Node000002" class="edge">
<title>Node1&#45;&gt;Node2</title>
<g id="a_edge1_Node000001_Node000002"><a xlink:title=" ">
<path fill="none" stroke="#63b8ff" d="M366.76,-219.88C340.39,-209.33 307.39,-196.05 278,-184 235.26,-166.48 185.94,-145.79 155.36,-132.9"/>
<polygon fill="#63b8ff" stroke="#63b8ff" points="156.7,-129.67 146.13,-129.01 153.98,-136.12 156.7,-129.67"/>
</a>
</g>
</g>
<!-- Node8 -->
<g id="Node000008" class="node">
<title>Node8</title>
<g id="a_Node000008"><a xlink:href="id_8h.html" target="_top" xlink:title=" ">
<polygon fill="white" stroke="#666666" points="353,-184 287,-184 287,-165 353,-165 353,-184"/>
<text text-anchor="middle" x="320" y="-172" font-family="Helvetica,sans-Serif" font-size="10.00">realm/id.h</text>
</a>
</g>
</g>
<!-- Node1&#45;&gt;Node8 -->
<g id="edge7_Node000001_Node000008" class="edge">
<title>Node1&#45;&gt;Node8</title>
<g id="a_edge7_Node000001_Node000008"><a xlink:title=" ">
<path fill="none" stroke="#63b8ff" d="M386.68,-219.95C372.07,-210.21 354.73,-198.65 341.4,-189.76"/>
<polygon fill="#63b8ff" stroke="#63b8ff" points="343.15,-186.73 332.89,-184.09 339.27,-192.55 343.15,-186.73"/>
</a>
</g>
</g>
<!-- Node23 -->
<g id="Node000023" class="node">
<title>Node23</title>
<g id="a_Node000023"><a xlink:href="mutex_8h.html" target="_top" xlink:title=" ">
<polygon fill="white" stroke="#666666" points="460.5,-184 371.5,-184 371.5,-165 460.5,-165 460.5,-184"/>
<text text-anchor="middle" x="416" y="-172" font-family="Helvetica,sans-Serif" font-size="10.00">realm/mutex.h</text>
</a>
</g>
</g>
<!-- Node1&#45;&gt;Node23 -->
<g id="edge24_Node000001_Node000023" class="edge">
<title>Node1&#45;&gt;Node23</title>
<g id="a_edge24_Node000001_Node000023"><a xlink:title=" ">
<path fill="none" stroke="#63b8ff" d="M416,-219.95C416,-211.85 416,-202.5 416,-194.47"/>
<polygon fill="#63b8ff" stroke="#63b8ff" points="419.5,-194.26 416,-184.26 412.5,-194.26 419.5,-194.26"/>
</a>
</g>
</g>
<!-- Node25 -->
<g id="Node000025" class="node">
<title>Node25</title>
<g id="a_Node000025"><a xlink:title=" ">
<polygon fill="#e0e0e0" stroke="#999999" points="543.5,-184 478.5,-184 478.5,-165 543.5,-165 543.5,-184"/>
<text text-anchor="middle" x="511" y="-172" font-family="Helvetica,sans-Serif" font-size="10.00">functional</text>
</a>
</g>
</g>
<!-- Node1&#45;&gt;Node25 -->
<g id="edge30_Node000001_Node000025" class="edge">
<title>Node1&#45;&gt;Node25</title>
<g id="a_edge30_Node000001_Node000025"><a xlink:title=" ">
<path fill="none" stroke="#63b8ff" d="M445.02,-219.95C459.38,-210.27 476.42,-198.8 489.58,-189.93"/>
<polygon fill="#63b8ff" stroke="#63b8ff" points="491.66,-192.75 498,-184.26 487.75,-186.95 491.66,-192.75"/>
</a>
</g>
</g>
<!-- Node26 -->
<g id="Node000026" class="node">
<title>Node26</title>
<g id="a_Node000026"><a xlink:title=" ">
<polygon fill="#e0e0e0" stroke="#999999" points="696.5,-184 561.5,-184 561.5,-165 696.5,-165 696.5,-184"/>
<text text-anchor="middle" x="629" y="-172" font-family="Helvetica,sans-Serif" font-size="10.00">realm/dynamic_table.inl</text>
</a>
</g>
</g>
<!-- Node1&#45;&gt;Node26 -->
<g id="edge31_Node000001_Node000026" class="edge">
<title>Node1&#45;&gt;Node26</title>
<g id="a_edge31_Node000001_Node000026"><a xlink:title=" ">
<path fill="none" stroke="#63b8ff" d="M481.06,-219.95C517.01,-209.15 560.41,-196.11 590.88,-186.95"/>
<polygon fill="#63b8ff" stroke="#63b8ff" points="592.11,-190.24 600.68,-184.01 590.1,-183.53 592.11,-190.24"/>
</a>
</g>
</g>
<!-- Node3 -->
<g id="Node000003" class="node">
<title>Node3</title>
<g id="a_Node000003"><a xlink:href="realm__config_8h.html" target="_top" xlink:title=" ">
<polygon fill="white" stroke="#666666" points="389,-74 269,-74 269,-55 389,-55 389,-74"/>
<text text-anchor="middle" x="329" y="-62" font-family="Helvetica,sans-Serif" font-size="10.00">realm/realm_config.h</text>
</a>
</g>
</g>
<!-- Node2&#45;&gt;Node3 -->
<g id="edge2_Node000002_Node000003" class="edge">
<title>Node2&#45;&gt;Node3</title>
<g id="a_edge2_Node000002_Node000003"><a xlink:title=" ">
<path fill="none" stroke="#63b8ff" d="M158.62,-109.98C193.29,-100.93 248.26,-86.58 286.35,-76.64"/>
<polygon fill="#63b8ff" stroke="#63b8ff" points="287.34,-79.99 296.13,-74.08 285.57,-73.22 287.34,-79.99"/>
</a>
</g>
</g>
<!-- Node6 -->
<g id="Node000006" class="node">
<title>Node6</title>
<g id="a_Node000006"><a xlink:title=" ">
<polygon fill="#e0e0e0" stroke="#999999" points="57,-74 7,-74 7,-55 57,-55 57,-74"/>
<text text-anchor="middle" x="32" y="-62" font-family="Helvetica,sans-Serif" font-size="10.00">atomic</text>
</a>
</g>
</g>
<!-- Node2&#45;&gt;Node6 -->
<g id="edge5_Node000002_Node000006" class="edge">
<title>Node2&#45;&gt;Node6</title>
<g id="a_edge5_Node000002_Node000006"><a xlink:title=" ">
<path fill="none" stroke="#63b8ff" d="M110.9,-109.98C96.18,-101.69 73.58,-88.94 56.33,-79.22"/>
<polygon fill="#63b8ff" stroke="#63b8ff" points="57.81,-76.03 47.38,-74.17 54.37,-82.13 57.81,-76.03"/>
</a>
</g>
</g>
<!-- Node7 -->
<g id="Node000007" class="node">
<title>Node7</title>
<g id="a_Node000007"><a xlink:title=" ">
<polygon fill="#e0e0e0" stroke="#999999" points="177,-74 75,-74 75,-55 177,-55 177,-74"/>
<text text-anchor="middle" x="126" y="-62" font-family="Helvetica,sans-Serif" font-size="10.00">realm/atomics.inl</text>
</a>
</g>
</g>
<!-- Node2&#45;&gt;Node7 -->
<g id="edge6_Node000002_Node000007" class="edge">
<title>Node2&#45;&gt;Node7</title>
<g id="a_edge6_Node000002_Node000007"><a xlink:title=" ">
<path fill="none" stroke="#63b8ff" d="M126,-109.75C126,-102.8 126,-92.85 126,-84.13"/>
<polygon fill="#63b8ff" stroke="#63b8ff" points="129.5,-84.09 126,-74.09 122.5,-84.09 129.5,-84.09"/>
</a>
</g>
</g>
<!-- Node4 -->
<g id="Node000004" class="node">
<title>Node4</title>
<g id="a_Node000004"><a xlink:href="realm__defines_8h.html" target="_top" xlink:title=" ">
<polygon fill="white" stroke="#666666" points="307.5,-19 212.5,-19 212.5,0 307.5,0 307.5,-19"/>
<text text-anchor="middle" x="260" y="-7" font-family="Helvetica,sans-Serif" font-size="10.00">realm_defines.h</text>
</a>
</g>
</g>
<!-- Node3&#45;&gt;Node4 -->
<g id="edge3_Node000003_Node000004" class="edge">
<title>Node3&#45;&gt;Node4</title>
<g id="a_edge3_Node000003_Node000004"><a xlink:title=" ">
<path fill="none" stroke="#63b8ff" d="M317.91,-54.98C307.51,-47 291.74,-34.88 279.28,-25.31"/>
<polygon fill="#63b8ff" stroke="#63b8ff" points="281.35,-22.49 271.29,-19.17 277.09,-28.04 281.35,-22.49"/>
</a>
</g>
</g>
<!-- Node5 -->
<g id="Node000005" class="node">
<title>Node5</title>
<g id="a_Node000005"><a xlink:href="compiler__support_8h.html" target="_top" xlink:title=" ">
<polygon fill="white" stroke="#666666" points="468,-19 326,-19 326,0 468,0 468,-19"/>
<text text-anchor="middle" x="397" y="-7" font-family="Helvetica,sans-Serif" font-size="10.00">realm/compiler_support.h</text>
</a>
</g>
</g>
<!-- Node3&#45;&gt;Node5 -->
<g id="edge4_Node000003_Node000005" class="edge">
<title>Node3&#45;&gt;Node5</title>
<g id="a_edge4_Node000003_Node000005"><a xlink:title=" ">
<path fill="none" stroke="#63b8ff" d="M339.93,-54.98C350.08,-47.07 365.42,-35.11 377.65,-25.58"/>
<polygon fill="#63b8ff" stroke="#63b8ff" points="380.14,-28.08 385.88,-19.17 375.84,-22.56 380.14,-28.08"/>
</a>
</g>
</g>
<!-- Node9 -->
<g id="Node000009" class="node">
<title>Node9</title>
<g id="a_Node000009"><a xlink:href="realm__c_8h.html" target="_top" xlink:title=" ">
<polygon fill="white" stroke="#666666" points="378,-129 282,-129 282,-110 378,-110 378,-129"/>
<text text-anchor="middle" x="330" y="-117" font-family="Helvetica,sans-Serif" font-size="10.00">realm/realm_c.h</text>
</a>
</g>
</g>
<!-- Node8&#45;&gt;Node9 -->
<g id="edge8_Node000008_Node000009" class="edge">
<title>Node8&#45;&gt;Node9</title>
<g id="a_edge8_Node000008_Node000009"><a xlink:title=" ">
<path fill="none" stroke="#63b8ff" d="M321.65,-164.75C322.96,-157.8 324.84,-147.85 326.48,-139.13"/>
<polygon fill="#63b8ff" stroke="#63b8ff" points="329.96,-139.56 328.38,-129.09 323.09,-138.27 329.96,-139.56"/>
</a>
</g>
</g>
<!-- Node12 -->
<g id="Node000012" class="node">
<title>Node12</title>
<g id="a_Node000012"><a xlink:href="utils_8h.html" target="_top" xlink:title=" ">
<polygon fill="white" stroke="#666666" points="676,-129 598,-129 598,-110 676,-110 676,-129"/>
<text text-anchor="middle" x="637" y="-117" font-family="Helvetica,sans-Serif" font-size="10.00">realm/utils.h</text>
</a>
</g>
</g>
<!-- Node8&#45;&gt;Node12 -->
<g id="edge12_Node000008_Node000012" class="edge">
<title>Node8&#45;&gt;Node12</title>
<g id="a_edge12_Node000008_Node000012"><a xlink:title=" ">
<path fill="none" stroke="#63b8ff" d="M353.31,-166.8C356.58,-166.18 359.85,-165.57 363,-165 441.42,-150.88 532.84,-136.44 587.76,-127.98"/>
<polygon fill="#63b8ff" stroke="#63b8ff" points="588.55,-131.4 597.91,-126.42 587.49,-124.48 588.55,-131.4"/>
</a>
</g>
</g>
<!-- Node21 -->
<g id="Node000021" class="node">
<title>Node21</title>
<g id="a_Node000021"><a xlink:title=" ">
<polygon fill="#e0e0e0" stroke="#999999" points="60,-129 0,-129 0,-110 60,-110 60,-129"/>
<text text-anchor="middle" x="30" y="-117" font-family="Helvetica,sans-Serif" font-size="10.00">iostream</text>
</a>
</g>
</g>
<!-- Node8&#45;&gt;Node21 -->
<g id="edge22_Node000008_Node000021" class="edge">
<title>Node8&#45;&gt;Node21</title>
<g id="a_edge22_Node000008_Node000021"><a xlink:title=" ">
<path fill="none" stroke="#63b8ff" d="M286.63,-168.01C240.3,-160.3 153.64,-145.53 70.11,-129.16"/>
<polygon fill="#63b8ff" stroke="#63b8ff" points="70.7,-125.71 60.21,-127.21 69.34,-132.57 70.7,-125.71"/>
</a>
</g>
</g>
<!-- Node22 -->
<g id="Node000022" class="node">
<title>Node22</title>
<g id="a_Node000022"><a xlink:title=" ">
<polygon fill="#e0e0e0" stroke="#999999" points="264,-129 192,-129 192,-110 264,-110 264,-129"/>
<text text-anchor="middle" x="228" y="-117" font-family="Helvetica,sans-Serif" font-size="10.00">realm/id.inl</text>
</a>
</g>
</g>
<!-- Node8&#45;&gt;Node22 -->
<g id="edge23_Node000008_Node000022" class="edge">
<title>Node8&#45;&gt;Node22</title>
<g id="a_edge23_Node000008_Node000022"><a xlink:title=" ">
<path fill="none" stroke="#63b8ff" d="M305.22,-164.98C290.82,-156.69 268.69,-143.94 251.81,-134.22"/>
<polygon fill="#63b8ff" stroke="#63b8ff" points="253.46,-131.13 243.05,-129.17 249.97,-137.19 253.46,-131.13"/>
</a>
</g>
</g>
<!-- Node9&#45;&gt;Node3 -->
<g id="edge9_Node000009_Node000003" class="edge">
<title>Node9&#45;&gt;Node3</title>
<g id="a_edge9_Node000009_Node000003"><a xlink:title=" ">
<path fill="none" stroke="#63b8ff" d="M329.83,-109.75C329.7,-102.8 329.52,-92.85 329.35,-84.13"/>
<polygon fill="#63b8ff" stroke="#63b8ff" points="332.85,-84.02 329.16,-74.09 325.85,-84.15 332.85,-84.02"/>
</a>
</g>
</g>
<!-- Node10 -->
<g id="Node000010" class="node">
<title>Node10</title>
<g id="a_Node000010"><a xlink:title=" ">
<polygon fill="#e0e0e0" stroke="#999999" points="251,-74 195,-74 195,-55 251,-55 251,-74"/>
<text text-anchor="middle" x="223" y="-62" font-family="Helvetica,sans-Serif" font-size="10.00">stddef.h</text>
</a>
</g>
</g>
<!-- Node9&#45;&gt;Node10 -->
<g id="edge10_Node000009_Node000010" class="edge">
<title>Node9&#45;&gt;Node10</title>
<g id="a_edge10_Node000009_Node000010"><a xlink:title=" ">
<path fill="none" stroke="#63b8ff" d="M312.81,-109.98C295.75,-101.54 269.37,-88.47 249.6,-78.68"/>
<polygon fill="#63b8ff" stroke="#63b8ff" points="251.02,-75.47 240.5,-74.17 247.91,-81.75 251.02,-75.47"/>
</a>
</g>
</g>
<!-- Node11 -->
<g id="Node000011" class="node">
<title>Node11</title>
<g id="a_Node000011"><a xlink:title=" ">
<polygon fill="#e0e0e0" stroke="#999999" points="460.5,-74 407.5,-74 407.5,-55 460.5,-55 460.5,-74"/>
<text text-anchor="middle" x="434" y="-62" font-family="Helvetica,sans-Serif" font-size="10.00">stdint.h</text>
</a>
</g>
</g>
<!-- Node9&#45;&gt;Node11 -->
<g id="edge11_Node000009_Node000011" class="edge">
<title>Node9&#45;&gt;Node11</title>
<g id="a_edge11_Node000009_Node000011"><a xlink:title=" ">
<path fill="none" stroke="#63b8ff" d="M346.71,-109.98C363.21,-101.57 388.7,-88.59 407.88,-78.81"/>
<polygon fill="#63b8ff" stroke="#63b8ff" points="409.67,-81.83 416.99,-74.17 406.49,-75.59 409.67,-81.83"/>
</a>
</g>
</g>
<!-- Node12&#45;&gt;Node3 -->
<g id="edge13_Node000012_Node000003" class="edge">
<title>Node12&#45;&gt;Node3</title>
<g id="a_edge13_Node000012_Node000003"><a xlink:title=" ">
<path fill="none" stroke="#63b8ff" d="M597.99,-111.79C545.17,-102.7 450.41,-86.39 388.62,-75.76"/>
<polygon fill="#63b8ff" stroke="#63b8ff" points="389.07,-72.29 378.63,-74.04 387.89,-79.18 389.07,-72.29"/>
</a>
</g>
</g>
<!-- Node13 -->
<g id="Node000013" class="node">
<title>Node13</title>
<g id="a_Node000013"><a xlink:title=" ">
<polygon fill="#e0e0e0" stroke="#999999" points="625,-74 581,-74 581,-55 625,-55 625,-74"/>
<text text-anchor="middle" x="603" y="-62" font-family="Helvetica,sans-Serif" font-size="10.00">string</text>
</a>
</g>
</g>
<!-- Node12&#45;&gt;Node13 -->
<g id="edge14_Node000012_Node000013" class="edge">
<title>Node12&#45;&gt;Node13</title>
<g id="a_edge14_Node000012_Node000013"><a xlink:title=" ">
<path fill="none" stroke="#63b8ff" d="M631.39,-109.75C626.68,-102.42 619.83,-91.73 614.03,-82.7"/>
<polygon fill="#63b8ff" stroke="#63b8ff" points="616.86,-80.62 608.51,-74.09 610.96,-84.4 616.86,-80.62"/>
</a>
</g>
</g>
<!-- Node14 -->
<g id="Node000014" class="node">
<title>Node14</title>
<g id="a_Node000014"><a xlink:title=" ">
<polygon fill="#e0e0e0" stroke="#999999" points="700.5,-74 643.5,-74 643.5,-55 700.5,-55 700.5,-74"/>
<text text-anchor="middle" x="672" y="-62" font-family="Helvetica,sans-Serif" font-size="10.00">ostream</text>
</a>
</g>
</g>
<!-- Node12&#45;&gt;Node14 -->
<g id="edge15_Node000012_Node000014" class="edge">
<title>Node12&#45;&gt;Node14</title>
<g id="a_edge15_Node000012_Node000014"><a xlink:title=" ">
<path fill="none" stroke="#63b8ff" d="M642.78,-109.75C647.62,-102.42 654.68,-91.73 660.64,-82.7"/>
<polygon fill="#63b8ff" stroke="#63b8ff" points="663.74,-84.36 666.33,-74.09 657.9,-80.5 663.74,-84.36"/>
</a>
</g>
</g>
<!-- Node15 -->
<g id="Node000015" class="node">
<title>Node15</title>
<g id="a_Node000015"><a xlink:title=" ">
<polygon fill="#e0e0e0" stroke="#999999" points="765.5,-74 718.5,-74 718.5,-55 765.5,-55 765.5,-74"/>
<text text-anchor="middle" x="742" y="-62" font-family="Helvetica,sans-Serif" font-size="10.00">vector</text>
</a>
</g>
</g>
<!-- Node12&#45;&gt;Node15 -->
<g id="edge16_Node000012_Node000015" class="edge">
<title>Node12&#45;&gt;Node15</title>
<g id="a_edge16_Node000012_Node000015"><a xlink:title=" ">
<path fill="none" stroke="#63b8ff" d="M653.87,-109.98C670.61,-101.54 696.5,-88.47 715.89,-78.68"/>
<polygon fill="#63b8ff" stroke="#63b8ff" points="717.47,-81.8 724.82,-74.17 714.32,-75.55 717.47,-81.8"/>
</a>
</g>
</g>
<!-- Node16 -->
<g id="Node000016" class="node">
<title>Node16</title>
<g id="a_Node000016"><a xlink:title=" ">
<polygon fill="#e0e0e0" stroke="#999999" points="822,-74 784,-74 784,-55 822,-55 822,-74"/>
<text text-anchor="middle" x="803" y="-62" font-family="Helvetica,sans-Serif" font-size="10.00">map</text>
</a>
</g>
</g>
<!-- Node12&#45;&gt;Node16 -->
<g id="edge17_Node000012_Node000016" class="edge">
<title>Node12&#45;&gt;Node16</title>
<g id="a_edge17_Node000012_Node000016"><a xlink:title=" ">
<path fill="none" stroke="#63b8ff" d="M663.67,-109.98C693.81,-100.36 742.7,-84.75 773.83,-74.81"/>
<polygon fill="#63b8ff" stroke="#63b8ff" points="775.19,-78.05 783.66,-71.68 773.06,-71.38 775.19,-78.05"/>
</a>
</g>
</g>
<!-- Node17 -->
<g id="Node000017" class="node">
<title>Node17</title>
<g id="a_Node000017"><a xlink:title=" ">
<polygon fill="#e0e0e0" stroke="#999999" points="892,-74 840,-74 840,-55 892,-55 892,-74"/>
<text text-anchor="middle" x="866" y="-62" font-family="Helvetica,sans-Serif" font-size="10.00">cassert</text>
</a>
</g>
</g>
<!-- Node12&#45;&gt;Node17 -->
<g id="edge18_Node000012_Node000017" class="edge">
<title>Node12&#45;&gt;Node17</title>
<g id="a_edge18_Node000012_Node000017"><a xlink:title=" ">
<path fill="none" stroke="#63b8ff" d="M674.95,-109.95C712.02,-101.56 770.3,-88.28 829.71,-74.28"/>
<polygon fill="#63b8ff" stroke="#63b8ff" points="830.71,-77.64 839.64,-71.94 829.1,-70.83 830.71,-77.64"/>
</a>
</g>
</g>
<!-- Node18 -->
<g id="Node000018" class="node">
<title>Node18</title>
<g id="a_Node000018"><a xlink:title=" ">
<polygon fill="#e0e0e0" stroke="#999999" points="960,-74 910,-74 910,-55 960,-55 960,-74"/>
<text text-anchor="middle" x="935" y="-62" font-family="Helvetica,sans-Serif" font-size="10.00">cstdint</text>
</a>
</g>
</g>
<!-- Node12&#45;&gt;Node18 -->
<g id="edge19_Node000012_Node000018" class="edge">
<title>Node12&#45;&gt;Node18</title>
<g id="a_edge19_Node000012_Node000018"><a xlink:title=" ">
<path fill="none" stroke="#63b8ff" d="M676.05,-111.71C679.41,-111.13 682.77,-110.55 686,-110 778.34,-94.26 804.44,-93.78 899.73,-74.13"/>
<polygon fill="#63b8ff" stroke="#63b8ff" points="900.72,-77.5 909.8,-72.04 899.3,-70.65 900.72,-77.5"/>
</a>
</g>
</g>
<!-- Node19 -->
<g id="Node000019" class="node">
<title>Node19</title>
<g id="a_Node000019"><a xlink:title=" ">
<polygon fill="#e0e0e0" stroke="#999999" points="1034,-74 978,-74 978,-55 1034,-55 1034,-74"/>
<text text-anchor="middle" x="1006" y="-62" font-family="Helvetica,sans-Serif" font-size="10.00">sstream</text>
</a>
</g>
</g>
<!-- Node12&#45;&gt;Node19 -->
<g id="edge20_Node000012_Node000019" class="edge">
<title>Node12&#45;&gt;Node19</title>
<g id="a_edge20_Node000012_Node000019"><a xlink:title=" ">
<path fill="none" stroke="#63b8ff" d="M676.02,-111.57C679.39,-111.02 682.76,-110.49 686,-110 808.2,-91.64 842.45,-95.98 967.79,-74.06"/>
<polygon fill="#63b8ff" stroke="#63b8ff" points="968.54,-77.48 977.78,-72.29 967.32,-70.58 968.54,-77.48"/>
</a>
</g>
</g>
<!-- Node20 -->
<g id="Node000020" class="node">
<title>Node20</title>
<g id="a_Node000020"><a xlink:title=" ">
<polygon fill="#e0e0e0" stroke="#999999" points="563,-74 479,-74 479,-55 563,-55 563,-74"/>
<text text-anchor="middle" x="521" y="-62" font-family="Helvetica,sans-Serif" font-size="10.00">realm/utils.inl</text>
</a>
</g>
</g>
<!-- Node12&#45;&gt;Node20 -->
<g id="edge21_Node000012_Node000020" class="edge">
<title>Node12&#45;&gt;Node20</title>
<g id="a_edge21_Node000012_Node000020"><a xlink:title=" ">
<path fill="none" stroke="#63b8ff" d="M618.36,-109.98C599.7,-101.46 570.75,-88.23 549.26,-78.41"/>
<polygon fill="#63b8ff" stroke="#63b8ff" points="550.53,-75.14 539.98,-74.17 547.62,-81.51 550.53,-75.14"/>
</a>
</g>
</g>
<!-- Node23&#45;&gt;Node2 -->
<g id="edge27_Node000023_Node000002" class="edge">
<title>Node23&#45;&gt;Node2</title>
<g id="a_edge27_Node000023_Node000002"><a xlink:title=" ">
<path fill="none" stroke="#63b8ff" d="M371.32,-165.33C320.62,-156.07 237.81,-140.93 182.62,-130.85"/>
<polygon fill="#63b8ff" stroke="#63b8ff" points="183.12,-127.38 172.65,-129.03 181.86,-134.27 183.12,-127.38"/>
</a>
</g>
</g>
<!-- Node23&#45;&gt;Node3 -->
<g id="edge25_Node000023_Node000003" class="edge">
<title>Node23&#45;&gt;Node3</title>
<g id="a_edge25_Node000023_Node000003"><a xlink:title=" ">
<path fill="none" stroke="#63b8ff" d="M413.58,-164.98C409.6,-152.07 400.74,-127.26 387,-110 377.52,-98.09 364.19,-87.57 352.7,-79.76"/>
<polygon fill="#63b8ff" stroke="#63b8ff" points="354.28,-76.61 343.99,-74.09 350.47,-82.48 354.28,-76.61"/>
</a>
</g>
</g>
<!-- Node23&#45;&gt;Node11 -->
<g id="edge28_Node000023_Node000011" class="edge">
<title>Node23&#45;&gt;Node11</title>
<g id="a_edge28_Node000023_Node000011"><a xlink:title=" ">
<path fill="none" stroke="#63b8ff" d="M417.47,-164.66C420.39,-147.17 426.95,-107.8 430.87,-84.27"/>
<polygon fill="#63b8ff" stroke="#63b8ff" points="434.37,-84.6 432.56,-74.16 427.46,-83.45 434.37,-84.6"/>
</a>
</g>
</g>
<!-- Node23&#45;&gt;Node12 -->
<g id="edge26_Node000023_Node000012" class="edge">
<title>Node23&#45;&gt;Node12</title>
<g id="a_edge26_Node000023_Node000012"><a xlink:title=" ">
<path fill="none" stroke="#63b8ff" d="M451.51,-164.98C489.49,-155.87 549.87,-141.4 591.36,-131.45"/>
<polygon fill="#63b8ff" stroke="#63b8ff" points="592.31,-134.82 601.21,-129.08 590.67,-128.01 592.31,-134.82"/>
</a>
</g>
</g>
<!-- Node24 -->
<g id="Node000024" class="node">
<title>Node24</title>
<g id="a_Node000024"><a xlink:title=" ">
<polygon fill="#e0e0e0" stroke="#999999" points="789.5,-129 694.5,-129 694.5,-110 789.5,-110 789.5,-129"/>
<text text-anchor="middle" x="742" y="-117" font-family="Helvetica,sans-Serif" font-size="10.00">realm/mutex.inl</text>
</a>
</g>
</g>
<!-- Node23&#45;&gt;Node24 -->
<g id="edge29_Node000023_Node000024" class="edge">
<title>Node23&#45;&gt;Node24</title>
<g id="a_edge29_Node000023_Node000024"><a xlink:title=" ">
<path fill="none" stroke="#63b8ff" d="M460.65,-166.24C518.83,-156.78 620.66,-140.23 684.55,-129.84"/>
<polygon fill="#63b8ff" stroke="#63b8ff" points="685.15,-133.29 694.46,-128.23 684.03,-126.38 685.15,-133.29"/>
</a>
</g>
</g>
</g>
</svg>
