<?xml version="1.0" encoding="UTF-8" standalone="no"?>
<!DOCTYPE svg PUBLIC "-//W3C//DTD SVG 1.1//EN"
 "http://www.w3.org/Graphics/SVG/1.1/DTD/svg11.dtd">
<!-- Generated by graphviz version 2.43.0 (0)
 -->
<!-- Title: /home/runner/work/realm/realm/realm&#45;src/src/realm/event.h Pages: 1 -->
<svg width="971pt" height="269pt"
 viewBox="0.00 0.00 971.00 269.00" xmlns="http://www.w3.org/2000/svg" xmlns:xlink="http://www.w3.org/1999/xlink">
<g id="graph0" class="graph" transform="scale(1 1) rotate(0) translate(4 265)">
<title>/home/runner/work/realm/realm/realm&#45;src/src/realm/event.h</title>
<!-- Node1 -->
<g id="Node000001" class="node">
<title>Node1</title>
<g id="a_Node000001"><a xlink:title=" ">
<polygon fill="#999999" stroke="#666666" points="789.5,-261 643.5,-261 643.5,-220 789.5,-220 789.5,-261"/>
<text text-anchor="start" x="651.5" y="-249" font-family="Helvetica,sans-Serif" font-size="10.00">/home/runner/work/realm</text>
<text text-anchor="start" x="651.5" y="-238" font-family="Helvetica,sans-Serif" font-size="10.00">/realm/realm&#45;src/src/realm</text>
<text text-anchor="middle" x="716.5" y="-227" font-family="Helvetica,sans-Serif" font-size="10.00">/event.h</text>
</a>
</g>
</g>
<!-- Node2 -->
<g id="Node000002" class="node">
<title>Node2</title>
<g id="a_Node000002"><a xlink:href="realm__c_8h.html" target="_top" xlink:title=" ">
<polygon fill="white" stroke="#666666" points="707.5,-129 611.5,-129 611.5,-110 707.5,-110 707.5,-129"/>
<text text-anchor="middle" x="659.5" y="-117" font-family="Helvetica,sans-Serif" font-size="10.00">realm/realm_c.h</text>
</a>
</g>
</g>
<!-- Node1&#45;&gt;Node2 -->
<g id="edge1_Node000001_Node000002" class="edge">
<title>Node1&#45;&gt;Node2</title>
<g id="a_edge1_Node000001_Node000002"><a xlink:title=" ">
<path fill="none" stroke="#63b8ff" d="M688.09,-219.85C676.97,-210.43 665.46,-198.12 659.5,-184 653.53,-169.86 654.06,-152.32 655.77,-139.26"/>
<polygon fill="#63b8ff" stroke="#63b8ff" points="659.27,-139.57 657.46,-129.13 652.37,-138.42 659.27,-139.57"/>
</a>
</g>
</g>
<!-- Node8 -->
<g id="Node000008" class="node">
<title>Node8</title>
<g id="a_Node000008"><a xlink:href="utils_8h.html" target="_top" xlink:title=" ">
<polygon fill="white" stroke="#666666" points="393.5,-184 315.5,-184 315.5,-165 393.5,-165 393.5,-184"/>
<text text-anchor="middle" x="354.5" y="-172" font-family="Helvetica,sans-Serif" font-size="10.00">realm/utils.h</text>
</a>
</g>
</g>
<!-- Node1&#45;&gt;Node8 -->
<g id="edge7_Node000001_Node000008" class="edge">
<title>Node1&#45;&gt;Node8</title>
<g id="a_edge7_Node000001_Node000008"><a xlink:title=" ">
<path fill="none" stroke="#63b8ff" d="M643.24,-226.55C571.81,-213.92 465.18,-195.07 403.47,-184.16"/>
<polygon fill="#63b8ff" stroke="#63b8ff" points="404.05,-180.71 393.59,-182.41 402.83,-187.6 404.05,-180.71"/>
</a>
</g>
</g>
<!-- Node11 -->
<g id="Node000011" class="node">
<title>Node11</title>
<g id="a_Node000011"><a xlink:title=" ">
<polygon fill="#e0e0e0" stroke="#999999" points="47,-129 0,-129 0,-110 47,-110 47,-129"/>
<text text-anchor="middle" x="23.5" y="-117" font-family="Helvetica,sans-Serif" font-size="10.00">vector</text>
</a>
</g>
</g>
<!-- Node1&#45;&gt;Node11 -->
<g id="edge21_Node000001_Node000011" class="edge">
<title>Node1&#45;&gt;Node11</title>
<g id="a_edge21_Node000001_Node000011"><a xlink:title=" ">
<path fill="none" stroke="#63b8ff" d="M643.27,-231.42C561.03,-221.93 423.73,-204.79 306.5,-184 197.65,-164.69 168.77,-155.92 57.24,-129.12"/>
<polygon fill="#63b8ff" stroke="#63b8ff" points="57.81,-125.66 47.27,-126.73 56.18,-132.46 57.81,-125.66"/>
</a>
</g>
</g>
<!-- Node17 -->
<g id="Node000017" class="node">
<title>Node17</title>
<g id="a_Node000017"><a xlink:href="memory_8h.html" target="_top" xlink:title=" ">
<polygon fill="white" stroke="#666666" points="765,-184 668,-184 668,-165 765,-165 765,-184"/>
<text text-anchor="middle" x="716.5" y="-172" font-family="Helvetica,sans-Serif" font-size="10.00">realm/memory.h</text>
</a>
</g>
</g>
<!-- Node1&#45;&gt;Node17 -->
<g id="edge17_Node000001_Node000017" class="edge">
<title>Node1&#45;&gt;Node17</title>
<g id="a_edge17_Node000001_Node000017"><a xlink:title=" ">
<path fill="none" stroke="#63b8ff" d="M716.5,-219.95C716.5,-211.85 716.5,-202.5 716.5,-194.47"/>
<polygon fill="#63b8ff" stroke="#63b8ff" points="720,-194.26 716.5,-184.26 713,-194.26 720,-194.26"/>
</a>
</g>
</g>
<!-- Node18 -->
<g id="Node000018" class="node">
<title>Node18</title>
<g id="a_Node000018"><a xlink:title=" ">
<polygon fill="#e0e0e0" stroke="#999999" points="823.5,-129 763.5,-129 763.5,-110 823.5,-110 823.5,-129"/>
<text text-anchor="middle" x="793.5" y="-117" font-family="Helvetica,sans-Serif" font-size="10.00">iostream</text>
</a>
</g>
</g>
<!-- Node1&#45;&gt;Node18 -->
<g id="edge23_Node000001_Node000018" class="edge">
<title>Node1&#45;&gt;Node18</title>
<g id="a_edge23_Node000001_Node000018"><a xlink:title=" ">
<path fill="none" stroke="#63b8ff" d="M741.75,-219.85C752.82,-210.1 765.17,-197.53 773.5,-184 782.02,-170.16 787.22,-152.36 790.17,-139.13"/>
<polygon fill="#63b8ff" stroke="#63b8ff" points="793.61,-139.78 792.14,-129.28 786.75,-138.4 793.61,-139.78"/>
</a>
</g>
</g>
<!-- Node19 -->
<g id="Node000019" class="node">
<title>Node19</title>
<g id="a_Node000019"><a xlink:title=" ">
<polygon fill="#e0e0e0" stroke="#999999" points="853.5,-184 821.5,-184 821.5,-165 853.5,-165 853.5,-184"/>
<text text-anchor="middle" x="837.5" y="-172" font-family="Helvetica,sans-Serif" font-size="10.00">set</text>
</a>
</g>
</g>
<!-- Node1&#45;&gt;Node19 -->
<g id="edge22_Node000001_Node000019" class="edge">
<title>Node1&#45;&gt;Node19</title>
<g id="a_edge22_Node000001_Node000019"><a xlink:title=" ">
<path fill="none" stroke="#63b8ff" d="M753.46,-219.95C772.4,-209.93 794.99,-197.99 811.97,-189"/>
<polygon fill="#63b8ff" stroke="#63b8ff" points="814.05,-191.86 821.26,-184.09 810.78,-185.67 814.05,-191.86"/>
</a>
</g>
</g>
<!-- Node20 -->
<g id="Node000020" class="node">
<title>Node20</title>
<g id="a_Node000020"><a xlink:title=" ">
<polygon fill="#e0e0e0" stroke="#999999" points="963,-184 872,-184 872,-165 963,-165 963,-184"/>
<text text-anchor="middle" x="917.5" y="-172" font-family="Helvetica,sans-Serif" font-size="10.00">realm/event.inl</text>
</a>
</g>
</g>
<!-- Node1&#45;&gt;Node20 -->
<g id="edge24_Node000001_Node000020" class="edge">
<title>Node1&#45;&gt;Node20</title>
<g id="a_edge24_Node000001_Node000020"><a xlink:title=" ">
<path fill="none" stroke="#63b8ff" d="M777.9,-219.95C811.67,-209.2 852.42,-196.22 881.15,-187.07"/>
<polygon fill="#63b8ff" stroke="#63b8ff" points="882.31,-190.38 890.78,-184.01 880.19,-183.71 882.31,-190.38"/>
</a>
</g>
</g>
<!-- Node3 -->
<g id="Node000003" class="node">
<title>Node3</title>
<g id="a_Node000003"><a xlink:href="realm__config_8h.html" target="_top" xlink:title=" ">
<polygon fill="white" stroke="#666666" points="532.5,-74 412.5,-74 412.5,-55 532.5,-55 532.5,-74"/>
<text text-anchor="middle" x="472.5" y="-62" font-family="Helvetica,sans-Serif" font-size="10.00">realm/realm_config.h</text>
</a>
</g>
</g>
<!-- Node2&#45;&gt;Node3 -->
<g id="edge2_Node000002_Node000003" class="edge">
<title>Node2&#45;&gt;Node3</title>
<g id="a_edge2_Node000002_Node000003"><a xlink:title=" ">
<path fill="none" stroke="#63b8ff" d="M629.46,-109.98C597.79,-101.01 547.73,-86.82 512.69,-76.89"/>
<polygon fill="#63b8ff" stroke="#63b8ff" points="513.36,-73.44 502.78,-74.08 511.45,-80.18 513.36,-73.44"/>
</a>
</g>
</g>
<!-- Node6 -->
<g id="Node000006" class="node">
<title>Node6</title>
<g id="a_Node000006"><a xlink:title=" ">
<polygon fill="#e0e0e0" stroke="#999999" points="761.5,-74 705.5,-74 705.5,-55 761.5,-55 761.5,-74"/>
<text text-anchor="middle" x="733.5" y="-62" font-family="Helvetica,sans-Serif" font-size="10.00">stddef.h</text>
</a>
</g>
</g>
<!-- Node2&#45;&gt;Node6 -->
<g id="edge5_Node000002_Node000006" class="edge">
<title>Node2&#45;&gt;Node6</title>
<g id="a_edge5_Node000002_Node000006"><a xlink:title=" ">
<path fill="none" stroke="#63b8ff" d="M671.39,-109.98C682.65,-101.92 699.79,-89.65 713.21,-80.03"/>
<polygon fill="#63b8ff" stroke="#63b8ff" points="715.3,-82.84 721.39,-74.17 711.23,-77.15 715.3,-82.84"/>
</a>
</g>
</g>
<!-- Node7 -->
<g id="Node000007" class="node">
<title>Node7</title>
<g id="a_Node000007"><a xlink:title=" ">
<polygon fill="#e0e0e0" stroke="#999999" points="686,-74 633,-74 633,-55 686,-55 686,-74"/>
<text text-anchor="middle" x="659.5" y="-62" font-family="Helvetica,sans-Serif" font-size="10.00">stdint.h</text>
</a>
</g>
</g>
<!-- Node2&#45;&gt;Node7 -->
<g id="edge6_Node000002_Node000007" class="edge">
<title>Node2&#45;&gt;Node7</title>
<g id="a_edge6_Node000002_Node000007"><a xlink:title=" ">
<path fill="none" stroke="#63b8ff" d="M659.5,-109.75C659.5,-102.8 659.5,-92.85 659.5,-84.13"/>
<polygon fill="#63b8ff" stroke="#63b8ff" points="663,-84.09 659.5,-74.09 656,-84.09 663,-84.09"/>
</a>
</g>
</g>
<!-- Node4 -->
<g id="Node000004" class="node">
<title>Node4</title>
<g id="a_Node000004"><a xlink:href="realm__defines_8h.html" target="_top" xlink:title=" ">
<polygon fill="white" stroke="#666666" points="452,-19 357,-19 357,0 452,0 452,-19"/>
<text text-anchor="middle" x="404.5" y="-7" font-family="Helvetica,sans-Serif" font-size="10.00">realm_defines.h</text>
</a>
</g>
</g>
<!-- Node3&#45;&gt;Node4 -->
<g id="edge3_Node000003_Node000004" class="edge">
<title>Node3&#45;&gt;Node4</title>
<g id="a_edge3_Node000003_Node000004"><a xlink:title=" ">
<path fill="none" stroke="#63b8ff" d="M461.57,-54.98C451.42,-47.07 436.08,-35.11 423.85,-25.58"/>
<polygon fill="#63b8ff" stroke="#63b8ff" points="425.66,-22.56 415.62,-19.17 421.36,-28.08 425.66,-22.56"/>
</a>
</g>
</g>
<!-- Node5 -->
<g id="Node000005" class="node">
<title>Node5</title>
<g id="a_Node000005"><a xlink:href="compiler__support_8h.html" target="_top" xlink:title=" ">
<polygon fill="white" stroke="#666666" points="612.5,-19 470.5,-19 470.5,0 612.5,0 612.5,-19"/>
<text text-anchor="middle" x="541.5" y="-7" font-family="Helvetica,sans-Serif" font-size="10.00">realm/compiler_support.h</text>
</a>
</g>
</g>
<!-- Node3&#45;&gt;Node5 -->
<g id="edge4_Node000003_Node000005" class="edge">
<title>Node3&#45;&gt;Node5</title>
<g id="a_edge4_Node000003_Node000005"><a xlink:title=" ">
<path fill="none" stroke="#63b8ff" d="M483.59,-54.98C493.99,-47 509.76,-34.88 522.22,-25.31"/>
<polygon fill="#63b8ff" stroke="#63b8ff" points="524.41,-28.04 530.21,-19.17 520.15,-22.49 524.41,-28.04"/>
</a>
</g>
</g>
<!-- Node8&#45;&gt;Node3 -->
<g id="edge8_Node000008_Node000003" class="edge">
<title>Node8&#45;&gt;Node3</title>
<g id="a_edge8_Node000008_Node000003"><a xlink:title=" ">
<path fill="none" stroke="#63b8ff" d="M360.85,-164.66C370.35,-151.79 389.21,-127.5 408.5,-110 421.08,-98.58 436.71,-87.66 449.38,-79.5"/>
<polygon fill="#63b8ff" stroke="#63b8ff" points="451.4,-82.36 457.99,-74.07 447.66,-76.44 451.4,-82.36"/>
</a>
</g>
</g>
<!-- Node9 -->
<g id="Node000009" class="node">
<title>Node9</title>
<g id="a_Node000009"><a xlink:title=" ">
<polygon fill="#e0e0e0" stroke="#999999" points="461.5,-129 417.5,-129 417.5,-110 461.5,-110 461.5,-129"/>
<text text-anchor="middle" x="439.5" y="-117" font-family="Helvetica,sans-Serif" font-size="10.00">string</text>
</a>
</g>
</g>
<!-- Node8&#45;&gt;Node9 -->
<g id="edge9_Node000008_Node000009" class="edge">
<title>Node8&#45;&gt;Node9</title>
<g id="a_edge9_Node000008_Node000009"><a xlink:title=" ">
<path fill="none" stroke="#63b8ff" d="M368.16,-164.98C381.34,-156.77 401.53,-144.18 417.07,-134.49"/>
<polygon fill="#63b8ff" stroke="#63b8ff" points="418.96,-137.43 425.59,-129.17 415.26,-131.49 418.96,-137.43"/>
</a>
</g>
</g>
<!-- Node10 -->
<g id="Node000010" class="node">
<title>Node10</title>
<g id="a_Node000010"><a xlink:title=" ">
<polygon fill="#e0e0e0" stroke="#999999" points="537,-129 480,-129 480,-110 537,-110 537,-129"/>
<text text-anchor="middle" x="508.5" y="-117" font-family="Helvetica,sans-Serif" font-size="10.00">ostream</text>
</a>
</g>
</g>
<!-- Node8&#45;&gt;Node10 -->
<g id="edge10_Node000008_Node000010" class="edge">
<title>Node8&#45;&gt;Node10</title>
<g id="a_edge10_Node000008_Node000010"><a xlink:title=" ">
<path fill="none" stroke="#63b8ff" d="M379.24,-164.98C404.87,-156.16 445.13,-142.31 473.91,-132.41"/>
<polygon fill="#63b8ff" stroke="#63b8ff" points="475.25,-135.65 483.56,-129.08 472.97,-129.03 475.25,-135.65"/>
</a>
</g>
</g>
<!-- Node8&#45;&gt;Node11 -->
<g id="edge11_Node000008_Node000011" class="edge">
<title>Node8&#45;&gt;Node11</title>
<g id="a_edge11_Node000008_Node000011"><a xlink:title=" ">
<path fill="none" stroke="#63b8ff" d="M315.22,-168.96C259.85,-162.26 155.52,-148.59 57.04,-128.91"/>
<polygon fill="#63b8ff" stroke="#63b8ff" points="57.72,-125.48 47.22,-126.93 56.33,-132.34 57.72,-125.48"/>
</a>
</g>
</g>
<!-- Node12 -->
<g id="Node000012" class="node">
<title>Node12</title>
<g id="a_Node000012"><a xlink:title=" ">
<polygon fill="#e0e0e0" stroke="#999999" points="593.5,-129 555.5,-129 555.5,-110 593.5,-110 593.5,-129"/>
<text text-anchor="middle" x="574.5" y="-117" font-family="Helvetica,sans-Serif" font-size="10.00">map</text>
</a>
</g>
</g>
<!-- Node8&#45;&gt;Node12 -->
<g id="edge12_Node000008_Node000012" class="edge">
<title>Node8&#45;&gt;Node12</title>
<g id="a_edge12_Node000008_Node000012"><a xlink:title=" ">
<path fill="none" stroke="#63b8ff" d="M393.8,-165.02C432.53,-156.51 493.31,-142.72 545.5,-129 545.6,-128.97 545.7,-128.95 545.8,-128.92"/>
<polygon fill="#63b8ff" stroke="#63b8ff" points="546.49,-132.36 555.2,-126.32 544.63,-125.61 546.49,-132.36"/>
</a>
</g>
</g>
<!-- Node13 -->
<g id="Node000013" class="node">
<title>Node13</title>
<g id="a_Node000013"><a xlink:title=" ">
<polygon fill="#e0e0e0" stroke="#999999" points="117.5,-129 65.5,-129 65.5,-110 117.5,-110 117.5,-129"/>
<text text-anchor="middle" x="91.5" y="-117" font-family="Helvetica,sans-Serif" font-size="10.00">cassert</text>
</a>
</g>
</g>
<!-- Node8&#45;&gt;Node13 -->
<g id="edge13_Node000008_Node000013" class="edge">
<title>Node8&#45;&gt;Node13</title>
<g id="a_edge13_Node000008_Node000013"><a xlink:title=" ">
<path fill="none" stroke="#63b8ff" d="M315.25,-166.4C271.78,-158.41 199.37,-144.74 127.92,-129.23"/>
<polygon fill="#63b8ff" stroke="#63b8ff" points="128.36,-125.75 117.84,-127.03 126.87,-132.59 128.36,-125.75"/>
</a>
</g>
</g>
<!-- Node14 -->
<g id="Node000014" class="node">
<title>Node14</title>
<g id="a_Node000014"><a xlink:title=" ">
<polygon fill="#e0e0e0" stroke="#999999" points="185.5,-129 135.5,-129 135.5,-110 185.5,-110 185.5,-129"/>
<text text-anchor="middle" x="160.5" y="-117" font-family="Helvetica,sans-Serif" font-size="10.00">cstdint</text>
</a>
</g>
</g>
<!-- Node8&#45;&gt;Node14 -->
<g id="edge14_Node000008_Node000014" class="edge">
<title>Node8&#45;&gt;Node14</title>
<g id="a_edge14_Node000008_Node000014"><a xlink:title=" ">
<path fill="none" stroke="#63b8ff" d="M323.33,-164.98C288.38,-155.44 231.84,-139.99 195.42,-130.04"/>
<polygon fill="#63b8ff" stroke="#63b8ff" points="196.29,-126.65 185.72,-127.39 194.44,-133.4 196.29,-126.65"/>
</a>
</g>
</g>
<!-- Node15 -->
<g id="Node000015" class="node">
<title>Node15</title>
<g id="a_Node000015"><a xlink:title=" ">
<polygon fill="#e0e0e0" stroke="#999999" points="259.5,-129 203.5,-129 203.5,-110 259.5,-110 259.5,-129"/>
<text text-anchor="middle" x="231.5" y="-117" font-family="Helvetica,sans-Serif" font-size="10.00">sstream</text>
</a>
</g>
</g>
<!-- Node8&#45;&gt;Node15 -->
<g id="edge15_Node000008_Node000015" class="edge">
<title>Node8&#45;&gt;Node15</title>
<g id="a_edge15_Node000008_Node000015"><a xlink:title=" ">
<path fill="none" stroke="#63b8ff" d="M334.74,-164.98C314.77,-156.38 283.7,-142.99 260.85,-133.15"/>
<polygon fill="#63b8ff" stroke="#63b8ff" points="262.19,-129.91 251.62,-129.17 259.42,-136.34 262.19,-129.91"/>
</a>
</g>
</g>
<!-- Node16 -->
<g id="Node000016" class="node">
<title>Node16</title>
<g id="a_Node000016"><a xlink:title=" ">
<polygon fill="#e0e0e0" stroke="#999999" points="361.5,-129 277.5,-129 277.5,-110 361.5,-110 361.5,-129"/>
<text text-anchor="middle" x="319.5" y="-117" font-family="Helvetica,sans-Serif" font-size="10.00">realm/utils.inl</text>
</a>
</g>
</g>
<!-- Node8&#45;&gt;Node16 -->
<g id="edge16_Node000008_Node000016" class="edge">
<title>Node8&#45;&gt;Node16</title>
<g id="a_edge16_Node000008_Node000016"><a xlink:title=" ">
<path fill="none" stroke="#63b8ff" d="M348.72,-164.75C343.88,-157.42 336.82,-146.73 330.86,-137.7"/>
<polygon fill="#63b8ff" stroke="#63b8ff" points="333.6,-135.5 325.17,-129.09 327.76,-139.36 333.6,-135.5"/>
</a>
</g>
</g>
<!-- Node17&#45;&gt;Node2 -->
<g id="edge18_Node000017_Node000002" class="edge">
<title>Node17&#45;&gt;Node2</title>
<g id="a_edge18_Node000017_Node000002"><a xlink:title=" ">
<path fill="none" stroke="#63b8ff" d="M707.34,-164.98C699,-157.23 686.47,-145.58 676.32,-136.14"/>
<polygon fill="#63b8ff" stroke="#63b8ff" points="678.53,-133.42 668.82,-129.17 673.76,-138.54 678.53,-133.42"/>
</a>
</g>
</g>
<!-- Node17&#45;&gt;Node6 -->
<g id="edge19_Node000017_Node000006" class="edge">
<title>Node17&#45;&gt;Node6</title>
<g id="a_edge19_Node000017_Node000006"><a xlink:title=" ">
<path fill="none" stroke="#63b8ff" d="M717.89,-164.66C720.64,-147.17 726.84,-107.8 730.54,-84.27"/>
<polygon fill="#63b8ff" stroke="#63b8ff" points="734.04,-84.58 732.14,-74.16 727.12,-83.49 734.04,-84.58"/>
</a>
</g>
</g>
<!-- Node17&#45;&gt;Node18 -->
<g id="edge20_Node000017_Node000018" class="edge">
<title>Node17&#45;&gt;Node18</title>
<g id="a_edge20_Node000017_Node000018"><a xlink:title=" ">
<path fill="none" stroke="#63b8ff" d="M728.87,-164.98C740.59,-156.92 758.42,-144.65 772.39,-135.03"/>
<polygon fill="#63b8ff" stroke="#63b8ff" points="774.65,-137.72 780.9,-129.17 770.68,-131.96 774.65,-137.72"/>
</a>
</g>
</g>
</g>
</svg>
