<?xml version="1.0" encoding="UTF-8" standalone="no"?>
<!DOCTYPE svg PUBLIC "-//W3C//DTD SVG 1.1//EN"
 "http://www.w3.org/Graphics/SVG/1.1/DTD/svg11.dtd">
<!-- Generated by graphviz version 2.43.0 (0)
 -->
<!-- Title: /home/runner/work/realm/realm/realm&#45;src/src/realm/event_impl.h Pages: 1 -->
<svg width="1960pt" height="511pt"
 viewBox="0.00 0.00 1959.90 511.00" xmlns="http://www.w3.org/2000/svg" xmlns:xlink="http://www.w3.org/1999/xlink">
<g id="graph0" class="graph" transform="scale(1 1) rotate(0) translate(4 507)">
<title>/home/runner/work/realm/realm/realm&#45;src/src/realm/event_impl.h</title>
<!-- Node1 -->
<g id="Node000001" class="node">
<title>Node1</title>
<g id="a_Node000001"><a xlink:title=" ">
<polygon fill="#999999" stroke="#666666" points="726.9,-503 580.9,-503 580.9,-462 726.9,-462 726.9,-503"/>
<text text-anchor="start" x="588.9" y="-491" font-family="Helvetica,sans-Serif" font-size="10.00">/home/runner/work/realm</text>
<text text-anchor="start" x="588.9" y="-480" font-family="Helvetica,sans-Serif" font-size="10.00">/realm/realm&#45;src/src/realm</text>
<text text-anchor="middle" x="653.9" y="-469" font-family="Helvetica,sans-Serif" font-size="10.00">/event_impl.h</text>
</a>
</g>
</g>
<!-- Node2 -->
<g id="Node000002" class="node">
<title>Node2</title>
<g id="a_Node000002"><a xlink:href="barrier__impl_8h.html" target="_top" xlink:title=" ">
<polygon fill="white" stroke="#666666" points="903.9,-349 757.9,-349 757.9,-308 903.9,-308 903.9,-349"/>
<text text-anchor="start" x="765.9" y="-337" font-family="Helvetica,sans-Serif" font-size="10.00">/home/runner/work/realm</text>
<text text-anchor="start" x="765.9" y="-326" font-family="Helvetica,sans-Serif" font-size="10.00">/realm/realm&#45;src/src/realm</text>
<text text-anchor="middle" x="830.9" y="-315" font-family="Helvetica,sans-Serif" font-size="10.00">/barrier_impl.h</text>
</a>
</g>
</g>
<!-- Node1&#45;&gt;Node2 -->
<g id="edge1_Node000001_Node000002" class="edge">
<title>Node1&#45;&gt;Node2</title>
<g id="a_edge1_Node000001_Node000002"><a xlink:title=" ">
<path fill="none" stroke="#63b8ff" d="M719.26,-457.56C736.59,-449.27 754.48,-438.77 768.9,-426 793.5,-404.22 812.15,-370.43 822.29,-349.16"/>
<polygon fill="#63b8ff" stroke="#63b8ff" points="717.34,-454.59 709.71,-461.94 720.26,-460.95 717.34,-454.59"/>
</a>
</g>
</g>
<!-- Node3 -->
<g id="Node000003" class="node">
<title>Node3</title>
<g id="a_Node000003"><a xlink:href="runtime__impl_8h.html" target="_top" xlink:title=" ">
<polygon fill="white" stroke="#666666" points="903.9,-272 757.9,-272 757.9,-231 903.9,-231 903.9,-272"/>
<text text-anchor="start" x="765.9" y="-260" font-family="Helvetica,sans-Serif" font-size="10.00">/home/runner/work/realm</text>
<text text-anchor="start" x="765.9" y="-249" font-family="Helvetica,sans-Serif" font-size="10.00">/realm/realm&#45;src/src/realm</text>
<text text-anchor="middle" x="830.9" y="-238" font-family="Helvetica,sans-Serif" font-size="10.00">/runtime_impl.h</text>
</a>
</g>
</g>
<!-- Node1&#45;&gt;Node3 -->
<g id="edge59_Node000001_Node000003" class="edge">
<title>Node1&#45;&gt;Node3</title>
<g id="a_edge59_Node000001_Node000003"><a xlink:title=" ">
<path fill="none" stroke="#63b8ff" d="M705.58,-456.42C717.35,-448.32 728.54,-438.2 735.9,-426 763.15,-380.82 721.65,-353.18 748.9,-308 758.05,-292.84 773.11,-280.89 787.84,-272.03"/>
<polygon fill="#63b8ff" stroke="#63b8ff" points="703.48,-453.62 696.96,-461.97 707.26,-459.5 703.48,-453.62"/>
</a>
</g>
</g>
<!-- Node4 -->
<g id="Node000004" class="node">
<title>Node4</title>
<g id="a_Node000004"><a xlink:href="proc__impl_8h.html" target="_top" xlink:title=" ">
<polygon fill="white" stroke="#666666" points="1582.9,-195 1436.9,-195 1436.9,-154 1582.9,-154 1582.9,-195"/>
<text text-anchor="start" x="1444.9" y="-183" font-family="Helvetica,sans-Serif" font-size="10.00">/home/runner/work/realm</text>
<text text-anchor="start" x="1444.9" y="-172" font-family="Helvetica,sans-Serif" font-size="10.00">/realm/realm&#45;src/src/realm</text>
<text text-anchor="middle" x="1509.9" y="-161" font-family="Helvetica,sans-Serif" font-size="10.00">/proc_impl.h</text>
</a>
</g>
</g>
<!-- Node1&#45;&gt;Node4 -->
<g id="edge53_Node000001_Node000004" class="edge">
<title>Node1&#45;&gt;Node4</title>
<g id="a_edge53_Node000001_Node000004"><a xlink:title=" ">
<path fill="none" stroke="#63b8ff" d="M737.35,-480.9C975.23,-477.03 1645.67,-450.24 1739.9,-272 1774.16,-207.21 1662.58,-185.91 1583.03,-178.91"/>
<polygon fill="#63b8ff" stroke="#63b8ff" points="736.98,-477.41 727.04,-481.06 737.09,-484.41 736.98,-477.41"/>
</a>
</g>
</g>
<!-- Node17 -->
<g id="Node000017" class="node">
<title>Node17</title>
<g id="a_Node000017"><a xlink:href="comp__queue__impl_8h.html" target="_top" xlink:title=" ">
<polygon fill="white" stroke="#666666" points="625.9,-349 479.9,-349 479.9,-308 625.9,-308 625.9,-349"/>
<text text-anchor="start" x="487.9" y="-337" font-family="Helvetica,sans-Serif" font-size="10.00">/home/runner/work/realm</text>
<text text-anchor="start" x="487.9" y="-326" font-family="Helvetica,sans-Serif" font-size="10.00">/realm/realm&#45;src/src/realm</text>
<text text-anchor="middle" x="552.9" y="-315" font-family="Helvetica,sans-Serif" font-size="10.00">/comp_queue_impl.h</text>
</a>
</g>
</g>
<!-- Node1&#45;&gt;Node17 -->
<g id="edge20_Node000001_Node000017" class="edge">
<title>Node1&#45;&gt;Node17</title>
<g id="a_edge20_Node000001_Node000017"><a xlink:title=" ">
<path fill="none" stroke="#63b8ff" d="M603.26,-456.22C591.36,-448.08 579.85,-437.99 571.9,-426 556.53,-402.8 553.03,-370.02 552.52,-349.27"/>
<polygon fill="#63b8ff" stroke="#63b8ff" points="601.64,-459.34 611.95,-461.8 605.43,-453.45 601.64,-459.34"/>
</a>
</g>
</g>
<!-- Node18 -->
<g id="Node000018" class="node">
<title>Node18</title>
<g id="a_Node000018"><a xlink:href="inst__impl_8h.html" target="_top" xlink:title=" ">
<polygon fill="white" stroke="#666666" points="258.9,-272 112.9,-272 112.9,-231 258.9,-231 258.9,-272"/>
<text text-anchor="start" x="120.9" y="-260" font-family="Helvetica,sans-Serif" font-size="10.00">/home/runner/work/realm</text>
<text text-anchor="start" x="120.9" y="-249" font-family="Helvetica,sans-Serif" font-size="10.00">/realm/realm&#45;src/src/realm</text>
<text text-anchor="middle" x="185.9" y="-238" font-family="Helvetica,sans-Serif" font-size="10.00">/inst_impl.h</text>
</a>
</g>
</g>
<!-- Node1&#45;&gt;Node18 -->
<g id="edge22_Node000001_Node000018" class="edge">
<title>Node1&#45;&gt;Node18</title>
<g id="a_edge22_Node000001_Node000018"><a xlink:title=" ">
<path fill="none" stroke="#63b8ff" d="M570.41,-475.2C507.29,-468.37 419.41,-454.36 346.9,-426 287.54,-402.78 266.89,-397.81 225.9,-349 206.77,-326.22 195.74,-293.03 190.28,-272.11"/>
<polygon fill="#63b8ff" stroke="#63b8ff" points="570.41,-478.72 580.71,-476.28 571.13,-471.76 570.41,-478.72"/>
</a>
</g>
</g>
<!-- Node19 -->
<g id="Node000019" class="node">
<title>Node19</title>
<g id="a_Node000019"><a xlink:href="mem__impl_8h.html" target="_top" xlink:title=" ">
<polygon fill="white" stroke="#666666" points="423.9,-349 277.9,-349 277.9,-308 423.9,-308 423.9,-349"/>
<text text-anchor="start" x="285.9" y="-337" font-family="Helvetica,sans-Serif" font-size="10.00">/home/runner/work/realm</text>
<text text-anchor="start" x="285.9" y="-326" font-family="Helvetica,sans-Serif" font-size="10.00">/realm/realm&#45;src/src/realm</text>
<text text-anchor="middle" x="350.9" y="-315" font-family="Helvetica,sans-Serif" font-size="10.00">/mem_impl.h</text>
</a>
</g>
</g>
<!-- Node1&#45;&gt;Node19 -->
<g id="edge25_Node000001_Node000019" class="edge">
<title>Node1&#45;&gt;Node19</title>
<g id="a_edge25_Node000001_Node000019"><a xlink:title=" ">
<path fill="none" stroke="#63b8ff" d="M570.66,-475.41C497.22,-468.27 397.66,-453.72 369.9,-426 349.72,-405.85 347.79,-370.92 348.88,-349.07"/>
<polygon fill="#63b8ff" stroke="#63b8ff" points="570.56,-478.91 580.84,-476.36 571.22,-471.94 570.56,-478.91"/>
</a>
</g>
</g>
<!-- Node22 -->
<g id="Node000022" class="node">
<title>Node22</title>
<g id="a_Node000022"><a xlink:href="operation_8h.html" target="_top" xlink:title=" ">
<polygon fill="white" stroke="#666666" points="1080.9,-426 934.9,-426 934.9,-385 1080.9,-385 1080.9,-426"/>
<text text-anchor="start" x="942.9" y="-414" font-family="Helvetica,sans-Serif" font-size="10.00">/home/runner/work/realm</text>
<text text-anchor="start" x="942.9" y="-403" font-family="Helvetica,sans-Serif" font-size="10.00">/realm/realm&#45;src/src/realm</text>
<text text-anchor="middle" x="1007.9" y="-392" font-family="Helvetica,sans-Serif" font-size="10.00">/operation.h</text>
</a>
</g>
</g>
<!-- Node1&#45;&gt;Node22 -->
<g id="edge37_Node000001_Node000022" class="edge">
<title>Node1&#45;&gt;Node22</title>
<g id="a_edge37_Node000001_Node000022"><a xlink:title=" ">
<path fill="none" stroke="#63b8ff" d="M737.06,-463.88C797,-451.18 877.12,-434.21 934.65,-422.02"/>
<polygon fill="#63b8ff" stroke="#63b8ff" points="736.31,-460.46 727.25,-465.96 737.76,-467.31 736.31,-460.46"/>
</a>
</g>
</g>
<!-- Node29 -->
<g id="Node000029" class="node">
<title>Node29</title>
<g id="a_Node000029"><a xlink:href="rsrv__impl_8h.html" target="_top" xlink:title=" ">
<polygon fill="white" stroke="#666666" points="524.9,-426 378.9,-426 378.9,-385 524.9,-385 524.9,-426"/>
<text text-anchor="start" x="386.9" y="-414" font-family="Helvetica,sans-Serif" font-size="10.00">/home/runner/work/realm</text>
<text text-anchor="start" x="386.9" y="-403" font-family="Helvetica,sans-Serif" font-size="10.00">/realm/realm&#45;src/src/realm</text>
<text text-anchor="middle" x="451.9" y="-392" font-family="Helvetica,sans-Serif" font-size="10.00">/rsrv_impl.h</text>
</a>
</g>
</g>
<!-- Node1&#45;&gt;Node29 -->
<g id="edge54_Node000001_Node000029" class="edge">
<title>Node1&#45;&gt;Node29</title>
<g id="a_edge54_Node000001_Node000029"><a xlink:title=" ">
<path fill="none" stroke="#63b8ff" d="M591.69,-458.4C563.78,-448.04 531.21,-435.95 504.53,-426.04"/>
<polygon fill="#63b8ff" stroke="#63b8ff" points="590.76,-461.79 601.36,-461.99 593.2,-455.23 590.76,-461.79"/>
</a>
</g>
</g>
<!-- Node30 -->
<g id="Node000030" class="node">
<title>Node30</title>
<g id="a_Node000030"><a xlink:href="subgraph__impl_8h.html" target="_top" xlink:title=" ">
<polygon fill="white" stroke="#666666" points="726.9,-426 580.9,-426 580.9,-385 726.9,-385 726.9,-426"/>
<text text-anchor="start" x="588.9" y="-414" font-family="Helvetica,sans-Serif" font-size="10.00">/home/runner/work/realm</text>
<text text-anchor="start" x="588.9" y="-403" font-family="Helvetica,sans-Serif" font-size="10.00">/realm/realm&#45;src/src/realm</text>
<text text-anchor="middle" x="653.9" y="-392" font-family="Helvetica,sans-Serif" font-size="10.00">/subgraph_impl.h</text>
</a>
</g>
</g>
<!-- Node1&#45;&gt;Node30 -->
<g id="edge60_Node000001_Node000030" class="edge">
<title>Node1&#45;&gt;Node30</title>
<g id="a_edge60_Node000001_Node000030"><a xlink:title=" ">
<path fill="none" stroke="#63b8ff" d="M653.9,-451.69C653.9,-443.08 653.9,-433.9 653.9,-426.07"/>
<polygon fill="#63b8ff" stroke="#63b8ff" points="650.4,-451.79 653.9,-461.79 657.4,-451.79 650.4,-451.79"/>
</a>
</g>
</g>
<!-- Node2&#45;&gt;Node3 -->
<g id="edge2_Node000002_Node000003" class="edge">
<title>Node2&#45;&gt;Node3</title>
<g id="a_edge2_Node000002_Node000003"><a xlink:title=" ">
<path fill="none" stroke="#63b8ff" d="M830.9,-297.69C830.9,-289.08 830.9,-279.9 830.9,-272.07"/>
<polygon fill="#63b8ff" stroke="#63b8ff" points="827.4,-297.79 830.9,-307.79 834.4,-297.79 827.4,-297.79"/>
</a>
</g>
</g>
<!-- Node3&#45;&gt;Node4 -->
<g id="edge3_Node000003_Node000004" class="edge">
<title>Node3&#45;&gt;Node4</title>
<g id="a_edge3_Node000003_Node000004"><a xlink:title=" ">
<path fill="none" stroke="#63b8ff" d="M913.96,-240.37C939.58,-237.3 967.9,-233.95 993.9,-231 1151.69,-213.08 1336.79,-193.53 1436.81,-183.08"/>
<polygon fill="#63b8ff" stroke="#63b8ff" points="913.42,-236.91 903.91,-241.58 914.25,-243.86 913.42,-236.91"/>
</a>
</g>
</g>
<!-- Node10 -->
<g id="Node000010" class="node">
<title>Node10</title>
<g id="a_Node000010"><a xlink:href="channel_8h.html" target="_top" xlink:title=" ">
<polygon fill="white" stroke="#666666" points="642.9,-195 496.9,-195 496.9,-154 642.9,-154 642.9,-195"/>
<text text-anchor="start" x="504.9" y="-183" font-family="Helvetica,sans-Serif" font-size="10.00">/home/runner/work/realm</text>
<text text-anchor="start" x="504.9" y="-172" font-family="Helvetica,sans-Serif" font-size="10.00">/realm/realm&#45;src/src/realm</text>
<text text-anchor="middle" x="569.9" y="-161" font-family="Helvetica,sans-Serif" font-size="10.00">/transfer/channel.h</text>
</a>
</g>
</g>
<!-- Node3&#45;&gt;Node10 -->
<g id="edge9_Node000003_Node000010" class="edge">
<title>Node3&#45;&gt;Node10</title>
<g id="a_edge9_Node000003_Node000010"><a xlink:title=" ">
<path fill="none" stroke="#63b8ff" d="M753.35,-228.21C716.67,-217.68 673.28,-205.21 637.91,-195.04"/>
<polygon fill="#63b8ff" stroke="#63b8ff" points="752.43,-231.59 763.01,-230.99 754.36,-224.86 752.43,-231.59"/>
</a>
</g>
</g>
<!-- Node14 -->
<g id="Node000014" class="node">
<title>Node14</title>
<g id="a_Node000014"><a xlink:href="lowlevel__dma_8h.html" target="_top" xlink:title=" ">
<polygon fill="white" stroke="#666666" points="170.9,-118 24.9,-118 24.9,-77 170.9,-77 170.9,-118"/>
<text text-anchor="start" x="32.9" y="-106" font-family="Helvetica,sans-Serif" font-size="10.00">/home/runner/work/realm</text>
<text text-anchor="start" x="32.9" y="-95" font-family="Helvetica,sans-Serif" font-size="10.00">/realm/realm&#45;src/src/realm</text>
<text text-anchor="middle" x="97.9" y="-84" font-family="Helvetica,sans-Serif" font-size="10.00">/transfer/lowlevel_dma.h</text>
</a>
</g>
</g>
<!-- Node3&#45;&gt;Node14 -->
<g id="edge19_Node000003_Node000014" class="edge">
<title>Node3&#45;&gt;Node14</title>
<g id="a_edge19_Node000003_Node000014"><a xlink:title=" ">
<path fill="none" stroke="#63b8ff" d="M747.39,-236.92C735.16,-234.93 722.7,-232.91 710.9,-231 611.8,-214.95 576.4,-242.4 487.9,-195 466,-183.27 471.96,-165.43 449.9,-154 342.41,-98.32 298.94,-140.03 179.9,-118 177.02,-117.47 174.09,-116.9 171.14,-116.3"/>
<polygon fill="#63b8ff" stroke="#63b8ff" points="747.17,-240.43 757.61,-238.58 748.3,-233.52 747.17,-240.43"/>
</a>
</g>
</g>
<!-- Node5 -->
<g id="Node000005" class="node">
<title>Node5</title>
<g id="a_Node000005"><a xlink:href="cuda__internal_8h.html" target="_top" xlink:title=" ">
<polygon fill="white" stroke="#666666" points="1212.9,-118 1066.9,-118 1066.9,-77 1212.9,-77 1212.9,-118"/>
<text text-anchor="start" x="1074.9" y="-106" font-family="Helvetica,sans-Serif" font-size="10.00">/home/runner/work/realm</text>
<text text-anchor="start" x="1074.9" y="-95" font-family="Helvetica,sans-Serif" font-size="10.00">/realm/realm&#45;src/src/realm</text>
<text text-anchor="middle" x="1139.9" y="-84" font-family="Helvetica,sans-Serif" font-size="10.00">/cuda/cuda_internal.h</text>
</a>
</g>
</g>
<!-- Node4&#45;&gt;Node5 -->
<g id="edge4_Node000004_Node000005" class="edge">
<title>Node4&#45;&gt;Node5</title>
<g id="a_edge4_Node000004_Node000005"><a xlink:title=" ">
<path fill="none" stroke="#63b8ff" d="M1426.72,-156.64C1362.56,-143.63 1274.68,-125.82 1213.17,-113.35"/>
<polygon fill="#63b8ff" stroke="#63b8ff" points="1426.3,-160.13 1436.8,-158.68 1427.7,-153.27 1426.3,-160.13"/>
</a>
</g>
</g>
<!-- Node6 -->
<g id="Node000006" class="node">
<title>Node6</title>
<g id="a_Node000006"><a xlink:href="hip__internal_8h.html" target="_top" xlink:title=" ">
<polygon fill="white" stroke="#666666" points="1048.9,-118 902.9,-118 902.9,-77 1048.9,-77 1048.9,-118"/>
<text text-anchor="start" x="910.9" y="-106" font-family="Helvetica,sans-Serif" font-size="10.00">/home/runner/work/realm</text>
<text text-anchor="start" x="910.9" y="-95" font-family="Helvetica,sans-Serif" font-size="10.00">/realm/realm&#45;src/src/realm</text>
<text text-anchor="middle" x="975.9" y="-84" font-family="Helvetica,sans-Serif" font-size="10.00">/hip/hip_internal.h</text>
</a>
</g>
</g>
<!-- Node4&#45;&gt;Node6 -->
<g id="edge5_Node000004_Node000006" class="edge">
<title>Node4&#45;&gt;Node6</title>
<g id="a_edge5_Node000004_Node000006"><a xlink:title=" ">
<path fill="none" stroke="#63b8ff" d="M1426.74,-166.09C1335.75,-157.33 1185.78,-140.98 1057.9,-118 1055.02,-117.48 1052.09,-116.93 1049.13,-116.34"/>
<polygon fill="#63b8ff" stroke="#63b8ff" points="1426.43,-169.58 1436.72,-167.04 1427.1,-162.61 1426.43,-169.58"/>
</a>
</g>
</g>
<!-- Node7 -->
<g id="Node000007" class="node">
<title>Node7</title>
<g id="a_Node000007"><a xlink:href="kokkos__interop_8h.html" target="_top" xlink:title=" ">
<polygon fill="white" stroke="#666666" points="1500.9,-118 1354.9,-118 1354.9,-77 1500.9,-77 1500.9,-118"/>
<text text-anchor="start" x="1362.9" y="-106" font-family="Helvetica,sans-Serif" font-size="10.00">/home/runner/work/realm</text>
<text text-anchor="start" x="1362.9" y="-95" font-family="Helvetica,sans-Serif" font-size="10.00">/realm/realm&#45;src/src/realm</text>
<text text-anchor="middle" x="1427.9" y="-84" font-family="Helvetica,sans-Serif" font-size="10.00">/kokkos_interop.h</text>
</a>
</g>
</g>
<!-- Node4&#45;&gt;Node7 -->
<g id="edge6_Node000004_Node000007" class="edge">
<title>Node4&#45;&gt;Node7</title>
<g id="a_edge6_Node000004_Node000007"><a xlink:title=" ">
<path fill="none" stroke="#63b8ff" d="M1480.7,-146.79C1470.34,-137.32 1458.89,-126.84 1449.3,-118.07"/>
<polygon fill="#63b8ff" stroke="#63b8ff" points="1478.62,-149.63 1488.36,-153.79 1483.34,-144.46 1478.62,-149.63"/>
</a>
</g>
</g>
<!-- Node8 -->
<g id="Node000008" class="node">
<title>Node8</title>
<g id="a_Node000008"><a xlink:href="openmp__internal_8h.html" target="_top" xlink:title=" ">
<polygon fill="white" stroke="#666666" points="1898.9,-118 1744.9,-118 1744.9,-77 1898.9,-77 1898.9,-118"/>
<text text-anchor="start" x="1752.9" y="-106" font-family="Helvetica,sans-Serif" font-size="10.00">/home/runner/work/realm</text>
<text text-anchor="start" x="1752.9" y="-95" font-family="Helvetica,sans-Serif" font-size="10.00">/realm/realm&#45;src/src/realm</text>
<text text-anchor="middle" x="1821.9" y="-84" font-family="Helvetica,sans-Serif" font-size="10.00">/openmp/openmp_internal.h</text>
</a>
</g>
</g>
<!-- Node4&#45;&gt;Node8 -->
<g id="edge7_Node000004_Node000008" class="edge">
<title>Node4&#45;&gt;Node8</title>
<g id="a_edge7_Node000004_Node000008"><a xlink:title=" ">
<path fill="none" stroke="#63b8ff" d="M1592.93,-153.54C1640.09,-142.21 1698.73,-128.11 1744.86,-117.02"/>
<polygon fill="#63b8ff" stroke="#63b8ff" points="1591.96,-150.18 1583.05,-155.92 1593.59,-156.98 1591.96,-150.18"/>
</a>
</g>
</g>
<!-- Node9 -->
<g id="Node000009" class="node">
<title>Node9</title>
<g id="a_Node000009"><a xlink:href="python__internal_8h.html" target="_top" xlink:title=" ">
<polygon fill="white" stroke="#666666" points="1664.9,-118 1518.9,-118 1518.9,-77 1664.9,-77 1664.9,-118"/>
<text text-anchor="start" x="1526.9" y="-106" font-family="Helvetica,sans-Serif" font-size="10.00">/home/runner/work/realm</text>
<text text-anchor="start" x="1526.9" y="-95" font-family="Helvetica,sans-Serif" font-size="10.00">/realm/realm&#45;src/src/realm</text>
<text text-anchor="middle" x="1591.9" y="-84" font-family="Helvetica,sans-Serif" font-size="10.00">/python/python_internal.h</text>
</a>
</g>
</g>
<!-- Node4&#45;&gt;Node9 -->
<g id="edge8_Node000004_Node000009" class="edge">
<title>Node4&#45;&gt;Node9</title>
<g id="a_edge8_Node000004_Node000009"><a xlink:title=" ">
<path fill="none" stroke="#63b8ff" d="M1539.1,-146.79C1549.46,-137.32 1560.91,-126.84 1570.5,-118.07"/>
<polygon fill="#63b8ff" stroke="#63b8ff" points="1536.46,-144.46 1531.45,-153.79 1541.19,-149.63 1536.46,-144.46"/>
</a>
</g>
</g>
<!-- Node10&#45;&gt;Node5 -->
<g id="edge10_Node000010_Node000005" class="edge">
<title>Node10&#45;&gt;Node5</title>
<g id="a_edge10_Node000010_Node000005"><a xlink:title=" ">
<path fill="none" stroke="#63b8ff" d="M653.14,-167.1C750.62,-158.9 916.75,-142.72 1057.9,-118 1060.78,-117.5 1063.72,-116.95 1066.67,-116.37"/>
<polygon fill="#63b8ff" stroke="#63b8ff" points="652.72,-163.62 643.05,-167.94 653.31,-170.6 652.72,-163.62"/>
</a>
</g>
</g>
<!-- Node10&#45;&gt;Node6 -->
<g id="edge12_Node000010_Node000006" class="edge">
<title>Node10&#45;&gt;Node6</title>
<g id="a_edge12_Node000010_Node000006"><a xlink:title=" ">
<path fill="none" stroke="#63b8ff" d="M653.02,-154.74C654.32,-154.49 655.62,-154.24 656.9,-154 761.61,-134.34 789.32,-138.34 893.9,-118 896.77,-117.44 899.7,-116.85 902.65,-116.24"/>
<polygon fill="#63b8ff" stroke="#63b8ff" points="652.05,-151.36 642.93,-156.74 653.42,-158.23 652.05,-151.36"/>
</a>
</g>
</g>
<!-- Node11 -->
<g id="Node000011" class="node">
<title>Node11</title>
<g id="a_Node000011"><a xlink:href="hdf5__internal_8h.html" target="_top" xlink:title=" ">
<polygon fill="white" stroke="#666666" points="170.9,-41 24.9,-41 24.9,0 170.9,0 170.9,-41"/>
<text text-anchor="start" x="32.9" y="-29" font-family="Helvetica,sans-Serif" font-size="10.00">/home/runner/work/realm</text>
<text text-anchor="start" x="32.9" y="-18" font-family="Helvetica,sans-Serif" font-size="10.00">/realm/realm&#45;src/src/realm</text>
<text text-anchor="middle" x="97.9" y="-7" font-family="Helvetica,sans-Serif" font-size="10.00">/hdf5/hdf5_internal.h</text>
</a>
</g>
</g>
<!-- Node10&#45;&gt;Node11 -->
<g id="edge11_Node000010_Node000011" class="edge">
<title>Node10&#45;&gt;Node11</title>
<g id="a_edge11_Node000010_Node000011"><a xlink:title=" ">
<path fill="none" stroke="#63b8ff" d="M562.1,-144.35C554.57,-122.17 540.86,-92.84 517.9,-77 463.19,-39.25 276.36,-27.14 171.25,-23.28"/>
<polygon fill="#63b8ff" stroke="#63b8ff" points="558.79,-145.49 565.14,-153.97 565.46,-143.38 558.79,-145.49"/>
</a>
</g>
</g>
<!-- Node12 -->
<g id="Node000012" class="node">
<title>Node12</title>
<g id="a_Node000012"><a xlink:href="addrsplit__channel_8h.html" target="_top" xlink:title=" ">
<polygon fill="white" stroke="#666666" points="720.9,-118 564.9,-118 564.9,-77 720.9,-77 720.9,-118"/>
<text text-anchor="start" x="572.9" y="-106" font-family="Helvetica,sans-Serif" font-size="10.00">/home/runner/work/realm</text>
<text text-anchor="start" x="572.9" y="-95" font-family="Helvetica,sans-Serif" font-size="10.00">/realm/realm&#45;src/src/realm</text>
<text text-anchor="middle" x="642.9" y="-84" font-family="Helvetica,sans-Serif" font-size="10.00">/transfer/addrsplit_channel.h</text>
</a>
</g>
</g>
<!-- Node10&#45;&gt;Node12 -->
<g id="edge13_Node000010_Node000012" class="edge">
<title>Node10&#45;&gt;Node12</title>
<g id="a_edge13_Node000010_Node000012"><a xlink:title=" ">
<path fill="none" stroke="#63b8ff" d="M596.17,-146.51C605.32,-137.11 615.4,-126.76 623.85,-118.07"/>
<polygon fill="#63b8ff" stroke="#63b8ff" points="593.55,-144.19 589.08,-153.79 598.56,-149.07 593.55,-144.19"/>
</a>
</g>
</g>
<!-- Node13 -->
<g id="Node000013" class="node">
<title>Node13</title>
<g id="a_Node000013"><a xlink:href="channel__disk_8h.html" target="_top" xlink:title=" ">
<polygon fill="white" stroke="#666666" points="508.9,-118 362.9,-118 362.9,-77 508.9,-77 508.9,-118"/>
<text text-anchor="start" x="370.9" y="-106" font-family="Helvetica,sans-Serif" font-size="10.00">/home/runner/work/realm</text>
<text text-anchor="start" x="370.9" y="-95" font-family="Helvetica,sans-Serif" font-size="10.00">/realm/realm&#45;src/src/realm</text>
<text text-anchor="middle" x="435.9" y="-84" font-family="Helvetica,sans-Serif" font-size="10.00">/transfer/channel_disk.h</text>
</a>
</g>
</g>
<!-- Node10&#45;&gt;Node13 -->
<g id="edge14_Node000010_Node000013" class="edge">
<title>Node10&#45;&gt;Node13</title>
<g id="a_edge14_Node000010_Node000013"><a xlink:title=" ">
<path fill="none" stroke="#63b8ff" d="M525.98,-148.92C508.16,-138.95 487.86,-127.58 471.05,-118.17"/>
<polygon fill="#63b8ff" stroke="#63b8ff" points="524.61,-152.16 535.04,-153.99 528.03,-146.05 524.61,-152.16"/>
</a>
</g>
</g>
<!-- Node10&#45;&gt;Node14 -->
<g id="edge15_Node000010_Node000014" class="edge">
<title>Node10&#45;&gt;Node14</title>
<g id="a_edge15_Node000010_Node000014"><a xlink:title=" ">
<path fill="none" stroke="#63b8ff" d="M486.24,-154.58C485.12,-154.38 484.01,-154.19 482.9,-154 349.23,-131.14 313.42,-141.73 179.9,-118 177.02,-117.49 174.09,-116.94 171.13,-116.36"/>
<polygon fill="#63b8ff" stroke="#63b8ff" points="485.96,-158.09 496.43,-156.48 487.24,-151.21 485.96,-158.09"/>
</a>
</g>
</g>
<!-- Node15 -->
<g id="Node000015" class="node">
<title>Node15</title>
<g id="a_Node000015"><a xlink:href="memcpy__channel_8h.html" target="_top" xlink:title=" ">
<polygon fill="white" stroke="#666666" points="344.9,-118 188.9,-118 188.9,-77 344.9,-77 344.9,-118"/>
<text text-anchor="start" x="196.9" y="-106" font-family="Helvetica,sans-Serif" font-size="10.00">/home/runner/work/realm</text>
<text text-anchor="start" x="196.9" y="-95" font-family="Helvetica,sans-Serif" font-size="10.00">/realm/realm&#45;src/src/realm</text>
<text text-anchor="middle" x="266.9" y="-84" font-family="Helvetica,sans-Serif" font-size="10.00">/transfer/memcpy_channel.h</text>
</a>
</g>
</g>
<!-- Node10&#45;&gt;Node15 -->
<g id="edge17_Node000010_Node000015" class="edge">
<title>Node10&#45;&gt;Node15</title>
<g id="a_edge17_Node000010_Node000015"><a xlink:title=" ">
<path fill="none" stroke="#63b8ff" d="M486.71,-152.91C442.53,-141.97 388.55,-128.61 345.14,-117.87"/>
<polygon fill="#63b8ff" stroke="#63b8ff" points="486.01,-156.34 496.55,-155.34 487.69,-149.54 486.01,-156.34"/>
</a>
</g>
</g>
<!-- Node16 -->
<g id="Node000016" class="node">
<title>Node16</title>
<g id="a_Node000016"><a xlink:href="transfer_8h.html" target="_top" xlink:title=" ">
<polygon fill="white" stroke="#666666" points="884.9,-118 738.9,-118 738.9,-77 884.9,-77 884.9,-118"/>
<text text-anchor="start" x="746.9" y="-106" font-family="Helvetica,sans-Serif" font-size="10.00">/home/runner/work/realm</text>
<text text-anchor="start" x="746.9" y="-95" font-family="Helvetica,sans-Serif" font-size="10.00">/realm/realm&#45;src/src/realm</text>
<text text-anchor="middle" x="811.9" y="-84" font-family="Helvetica,sans-Serif" font-size="10.00">/transfer/transfer.h</text>
</a>
</g>
</g>
<!-- Node10&#45;&gt;Node16 -->
<g id="edge18_Node000010_Node000016" class="edge">
<title>Node10&#45;&gt;Node16</title>
<g id="a_edge18_Node000010_Node000016"><a xlink:title=" ">
<path fill="none" stroke="#63b8ff" d="M642.68,-150.94C676.5,-140.46 716.33,-128.12 748.85,-118.04"/>
<polygon fill="#63b8ff" stroke="#63b8ff" points="641.37,-147.69 632.85,-153.99 643.44,-154.37 641.37,-147.69"/>
</a>
</g>
</g>
<!-- Node14&#45;&gt;Node11 -->
<g id="edge16_Node000014_Node000011" class="edge">
<title>Node14&#45;&gt;Node11</title>
<g id="a_edge16_Node000014_Node000011"><a xlink:title=" ">
<path fill="none" stroke="#63b8ff" d="M97.9,-66.69C97.9,-58.08 97.9,-48.9 97.9,-41.07"/>
<polygon fill="#63b8ff" stroke="#63b8ff" points="94.4,-66.79 97.9,-76.79 101.4,-66.79 94.4,-66.79"/>
</a>
</g>
</g>
<!-- Node17&#45;&gt;Node3 -->
<g id="edge21_Node000017_Node000003" class="edge">
<title>Node17&#45;&gt;Node3</title>
<g id="a_edge21_Node000017_Node000003"><a xlink:title=" ">
<path fill="none" stroke="#63b8ff" d="M635.01,-305.35C674.18,-294.78 720.63,-282.25 758.47,-272.04"/>
<polygon fill="#63b8ff" stroke="#63b8ff" points="633.96,-302.01 625.22,-307.99 635.78,-308.76 633.96,-302.01"/>
</a>
</g>
</g>
<!-- Node18&#45;&gt;Node10 -->
<g id="edge23_Node000018_Node000010" class="edge">
<title>Node18&#45;&gt;Node10</title>
<g id="a_edge23_Node000018_Node000010"><a xlink:title=" ">
<path fill="none" stroke="#63b8ff" d="M269.25,-234.22C337.06,-220.98 431.81,-202.47 496.72,-189.79"/>
<polygon fill="#63b8ff" stroke="#63b8ff" points="268.18,-230.86 259.03,-236.22 269.52,-237.73 268.18,-230.86"/>
</a>
</g>
</g>
<!-- Node18&#45;&gt;Node14 -->
<g id="edge24_Node000018_Node000014" class="edge">
<title>Node18&#45;&gt;Node14</title>
<g id="a_edge24_Node000018_Node000014"><a xlink:title=" ">
<path fill="none" stroke="#63b8ff" d="M169.49,-222.15C152.02,-191.97 124.81,-144.98 109.46,-118.47"/>
<polygon fill="#63b8ff" stroke="#63b8ff" points="166.54,-224.04 174.58,-230.94 172.6,-220.53 166.54,-224.04"/>
</a>
</g>
</g>
<!-- Node19&#45;&gt;Node5 -->
<g id="edge26_Node000019_Node000005" class="edge">
<title>Node19&#45;&gt;Node5</title>
<g id="a_edge26_Node000019_Node000005"><a xlink:title=" ">
<path fill="none" stroke="#63b8ff" d="M434.08,-310.26C438.41,-309.47 442.7,-308.71 446.9,-308 563.65,-288.2 605.83,-326.62 710.9,-272 732.94,-260.54 727.68,-243.92 748.9,-231 800.11,-199.83 821.85,-213.41 878.9,-195 953.61,-170.89 1038.64,-138.51 1090.78,-118.07"/>
<polygon fill="#63b8ff" stroke="#63b8ff" points="433.12,-306.88 423.93,-312.15 434.4,-313.76 433.12,-306.88"/>
</a>
</g>
</g>
<!-- Node19&#45;&gt;Node6 -->
<g id="edge28_Node000019_Node000006" class="edge">
<title>Node19&#45;&gt;Node6</title>
<g id="a_edge28_Node000019_Node000006"><a xlink:title=" ">
<path fill="none" stroke="#63b8ff" d="M406.17,-303.8C427.53,-294.32 452.04,-283.04 473.9,-272 507.11,-255.22 512.94,-246.21 546.9,-231 591.93,-210.84 605.58,-211.98 651.9,-195 698.94,-177.76 709.19,-169.29 756.9,-154 783.89,-145.35 850.18,-128.78 902.81,-115.99"/>
<polygon fill="#63b8ff" stroke="#63b8ff" points="404.65,-300.65 396.91,-307.89 407.48,-307.05 404.65,-300.65"/>
</a>
</g>
</g>
<!-- Node19&#45;&gt;Node10 -->
<g id="edge30_Node000019_Node000010" class="edge">
<title>Node19&#45;&gt;Node10</title>
<g id="a_edge30_Node000019_Node000010"><a xlink:title=" ">
<path fill="none" stroke="#63b8ff" d="M387.36,-302.2C430.68,-272.13 502.04,-222.6 541.48,-195.23"/>
<polygon fill="#63b8ff" stroke="#63b8ff" points="385.3,-299.36 379.08,-307.94 389.29,-305.11 385.3,-299.36"/>
</a>
</g>
</g>
<!-- Node19&#45;&gt;Node11 -->
<g id="edge27_Node000019_Node000011" class="edge">
<title>Node19&#45;&gt;Node11</title>
<g id="a_edge27_Node000019_Node000011"><a xlink:title=" ">
<path fill="none" stroke="#63b8ff" d="M267.61,-325.47C216.1,-320.43 151.04,-306.83 103.9,-272 27.43,-215.5 -28.67,-160.99 15.9,-77 24.04,-61.66 38.52,-49.79 53.07,-41.03"/>
<polygon fill="#63b8ff" stroke="#63b8ff" points="267.45,-328.97 277.72,-326.37 268.07,-322 267.45,-328.97"/>
</a>
</g>
</g>
<!-- Node19&#45;&gt;Node15 -->
<g id="edge35_Node000019_Node000015" class="edge">
<title>Node19&#45;&gt;Node15</title>
<g id="a_edge35_Node000019_Node000015"><a xlink:title=" ">
<path fill="none" stroke="#63b8ff" d="M334.19,-299C319.49,-272.78 298.52,-232.41 285.9,-195 277.17,-169.11 271.93,-137.89 269.23,-118.11"/>
<polygon fill="#63b8ff" stroke="#63b8ff" points="331.32,-301.03 339.3,-307.99 337.4,-297.57 331.32,-301.03"/>
</a>
</g>
</g>
<!-- Node19&#45;&gt;Node18 -->
<g id="edge29_Node000019_Node000018" class="edge">
<title>Node19&#45;&gt;Node18</title>
<g id="a_edge29_Node000019_Node000018"><a xlink:title=" ">
<path fill="none" stroke="#63b8ff" d="M298.59,-303.72C276.13,-293.51 250.21,-281.73 228.89,-272.04"/>
<polygon fill="#63b8ff" stroke="#63b8ff" points="297.43,-307.04 307.98,-307.99 300.32,-300.67 297.43,-307.04"/>
</a>
</g>
</g>
<!-- Node20 -->
<g id="Node000020" class="node">
<title>Node20</title>
<g id="a_Node000020"><a xlink:href="ib__memory_8h.html" target="_top" xlink:title=" ">
<polygon fill="white" stroke="#666666" points="701.9,-272 555.9,-272 555.9,-231 701.9,-231 701.9,-272"/>
<text text-anchor="start" x="563.9" y="-260" font-family="Helvetica,sans-Serif" font-size="10.00">/home/runner/work/realm</text>
<text text-anchor="start" x="563.9" y="-249" font-family="Helvetica,sans-Serif" font-size="10.00">/realm/realm&#45;src/src/realm</text>
<text text-anchor="middle" x="628.9" y="-238" font-family="Helvetica,sans-Serif" font-size="10.00">/transfer/ib_memory.h</text>
</a>
</g>
</g>
<!-- Node19&#45;&gt;Node20 -->
<g id="edge31_Node000019_Node000020" class="edge">
<title>Node19&#45;&gt;Node20</title>
<g id="a_edge31_Node000019_Node000020"><a xlink:title=" ">
<path fill="none" stroke="#63b8ff" d="M433.01,-305.35C472.18,-294.78 518.63,-282.25 556.47,-272.04"/>
<polygon fill="#63b8ff" stroke="#63b8ff" points="431.96,-302.01 423.22,-307.99 433.78,-308.76 431.96,-302.01"/>
</a>
</g>
</g>
<!-- Node21 -->
<g id="Node000021" class="node">
<title>Node21</title>
<g id="a_Node000021"><a xlink:href="ucp__internal_8h.html" target="_top" xlink:title=" ">
<polygon fill="white" stroke="#666666" points="440.9,-195 294.9,-195 294.9,-154 440.9,-154 440.9,-195"/>
<text text-anchor="start" x="302.9" y="-183" font-family="Helvetica,sans-Serif" font-size="10.00">/home/runner/work/realm</text>
<text text-anchor="start" x="302.9" y="-172" font-family="Helvetica,sans-Serif" font-size="10.00">/realm/realm&#45;src/src/realm</text>
<text text-anchor="middle" x="367.9" y="-161" font-family="Helvetica,sans-Serif" font-size="10.00">/ucx/ucp_internal.h</text>
</a>
</g>
</g>
<!-- Node19&#45;&gt;Node21 -->
<g id="edge36_Node000019_Node000021" class="edge">
<title>Node19&#45;&gt;Node21</title>
<g id="a_edge36_Node000019_Node000021"><a xlink:title=" ">
<path fill="none" stroke="#63b8ff" d="M354.2,-297.98C357.58,-267.76 362.74,-221.64 365.67,-195.47"/>
<polygon fill="#63b8ff" stroke="#63b8ff" points="350.72,-297.61 353.09,-307.94 357.68,-298.39 350.72,-297.61"/>
</a>
</g>
</g>
<!-- Node20&#45;&gt;Node5 -->
<g id="edge32_Node000020_Node000005" class="edge">
<title>Node20&#45;&gt;Node5</title>
<g id="a_edge32_Node000020_Node000005"><a xlink:title=" ">
<path fill="none" stroke="#63b8ff" d="M711.39,-228.02C744.17,-218.57 782.06,-206.99 815.9,-195 860.79,-179.09 869.65,-168.86 914.9,-154 929.5,-149.21 1006.78,-130.37 1066.75,-115.96"/>
<polygon fill="#63b8ff" stroke="#63b8ff" points="710.04,-224.77 701.39,-230.89 711.97,-231.5 710.04,-224.77"/>
</a>
</g>
</g>
<!-- Node20&#45;&gt;Node6 -->
<g id="edge33_Node000020_Node000006" class="edge">
<title>Node20&#45;&gt;Node6</title>
<g id="a_edge33_Node000020_Node000006"><a xlink:title=" ">
<path fill="none" stroke="#63b8ff" d="M682.86,-226.86C751.16,-196.95 867.54,-145.97 931.14,-118.11"/>
<polygon fill="#63b8ff" stroke="#63b8ff" points="681.31,-223.72 673.55,-230.94 684.12,-230.13 681.31,-223.72"/>
</a>
</g>
</g>
<!-- Node20&#45;&gt;Node21 -->
<g id="edge34_Node000020_Node000021" class="edge">
<title>Node20&#45;&gt;Node21</title>
<g id="a_edge34_Node000020_Node000021"><a xlink:title=" ">
<path fill="none" stroke="#63b8ff" d="M551.35,-228.21C514.67,-217.68 471.28,-205.21 435.91,-195.04"/>
<polygon fill="#63b8ff" stroke="#63b8ff" points="550.43,-231.59 561.01,-230.99 552.36,-224.86 550.43,-231.59"/>
</a>
</g>
</g>
<!-- Node22&#45;&gt;Node3 -->
<g id="edge48_Node000022_Node000003" class="edge">
<title>Node22&#45;&gt;Node3</title>
<g id="a_edge48_Node000022_Node000003"><a xlink:title=" ">
<path fill="none" stroke="#63b8ff" d="M982.24,-377.25C959.23,-353.04 927,-319.74 912.9,-308 897.31,-295.02 878.67,-282.22 863.1,-272.18"/>
<polygon fill="#63b8ff" stroke="#63b8ff" points="979.93,-379.9 989.35,-384.75 985.01,-375.08 979.93,-379.9"/>
</a>
</g>
</g>
<!-- Node22&#45;&gt;Node4 -->
<g id="edge47_Node000022_Node000004" class="edge">
<title>Node22&#45;&gt;Node4</title>
<g id="a_edge47_Node000022_Node000004"><a xlink:title=" ">
<path fill="none" stroke="#63b8ff" d="M1091.18,-401.85C1261.8,-394.48 1641.67,-367.49 1720.9,-272 1764.05,-220 1660.05,-194.71 1583.22,-183.46"/>
<polygon fill="#63b8ff" stroke="#63b8ff" points="1090.84,-398.36 1081,-402.28 1091.13,-405.36 1090.84,-398.36"/>
</a>
</g>
</g>
<!-- Node22&#45;&gt;Node5 -->
<g id="edge38_Node000022_Node000005" class="edge">
<title>Node22&#45;&gt;Node5</title>
<g id="a_edge38_Node000022_Node000005"><a xlink:title=" ">
<path fill="none" stroke="#63b8ff" d="M1015.74,-374.71C1025.43,-339.61 1043.29,-279.88 1064.9,-231 1083.39,-189.18 1111.14,-143.37 1127.19,-118.06"/>
<polygon fill="#63b8ff" stroke="#63b8ff" points="1012.25,-374.21 1013.01,-384.78 1019.01,-376.04 1012.25,-374.21"/>
</a>
</g>
</g>
<!-- Node22&#45;&gt;Node6 -->
<g id="edge45_Node000022_Node000006" class="edge">
<title>Node22&#45;&gt;Node6</title>
<g id="a_edge45_Node000022_Node000006"><a xlink:title=" ">
<path fill="none" stroke="#63b8ff" d="M1004.77,-374.59C998.27,-312.41 983.44,-170.62 977.98,-118.34"/>
<polygon fill="#63b8ff" stroke="#63b8ff" points="1001.33,-375.31 1005.85,-384.89 1008.29,-374.58 1001.33,-375.31"/>
</a>
</g>
</g>
<!-- Node22&#45;&gt;Node16 -->
<g id="edge52_Node000022_Node000016" class="edge">
<title>Node22&#45;&gt;Node16</title>
<g id="a_edge52_Node000022_Node000016"><a xlink:title=" ">
<path fill="none" stroke="#63b8ff" d="M993.85,-375.78C976.34,-340.74 944.79,-280.09 912.9,-231 885.64,-189.04 849.1,-143.28 828.27,-118.02"/>
<polygon fill="#63b8ff" stroke="#63b8ff" points="990.83,-377.56 998.41,-384.96 997.1,-374.44 990.83,-377.56"/>
</a>
</g>
</g>
<!-- Node22&#45;&gt;Node19 -->
<g id="edge46_Node000022_Node000019" class="edge">
<title>Node22&#45;&gt;Node19</title>
<g id="a_edge46_Node000022_Node000019"><a xlink:title=" ">
<path fill="none" stroke="#63b8ff" d="M924.82,-397.42C819.14,-388.07 631.11,-370.28 470.9,-349 455.73,-346.99 439.53,-344.55 424.1,-342.09"/>
<polygon fill="#63b8ff" stroke="#63b8ff" points="924.51,-400.91 934.78,-398.3 925.13,-393.94 924.51,-400.91"/>
</a>
</g>
</g>
<!-- Node23 -->
<g id="Node000023" class="node">
<title>Node23</title>
<g id="a_Node000023"><a xlink:href="partitions_8h.html" target="_top" xlink:title=" ">
<polygon fill="white" stroke="#666666" points="1301.9,-349 1155.9,-349 1155.9,-308 1301.9,-308 1301.9,-349"/>
<text text-anchor="start" x="1163.9" y="-337" font-family="Helvetica,sans-Serif" font-size="10.00">/home/runner/work/realm</text>
<text text-anchor="start" x="1163.9" y="-326" font-family="Helvetica,sans-Serif" font-size="10.00">/realm/realm&#45;src/src/realm</text>
<text text-anchor="middle" x="1228.9" y="-315" font-family="Helvetica,sans-Serif" font-size="10.00">/deppart/partitions.h</text>
</a>
</g>
</g>
<!-- Node22&#45;&gt;Node23 -->
<g id="edge39_Node000022_Node000023" class="edge">
<title>Node22&#45;&gt;Node23</title>
<g id="a_edge39_Node000022_Node000023"><a xlink:title=" ">
<path fill="none" stroke="#63b8ff" d="M1075.16,-381.67C1105.87,-371.25 1141.87,-359.03 1171.32,-349.04"/>
<polygon fill="#63b8ff" stroke="#63b8ff" points="1073.73,-378.46 1065.39,-384.99 1075.98,-385.09 1073.73,-378.46"/>
</a>
</g>
</g>
<!-- Node28 -->
<g id="Node000028" class="node">
<title>Node28</title>
<g id="a_Node000028"><a xlink:href="tasks_8h.html" target="_top" xlink:title=" ">
<polygon fill="white" stroke="#666666" points="1951.9,-272 1805.9,-272 1805.9,-231 1951.9,-231 1951.9,-272"/>
<text text-anchor="start" x="1813.9" y="-260" font-family="Helvetica,sans-Serif" font-size="10.00">/home/runner/work/realm</text>
<text text-anchor="start" x="1813.9" y="-249" font-family="Helvetica,sans-Serif" font-size="10.00">/realm/realm&#45;src/src/realm</text>
<text text-anchor="middle" x="1878.9" y="-238" font-family="Helvetica,sans-Serif" font-size="10.00">/tasks.h</text>
</a>
</g>
</g>
<!-- Node22&#45;&gt;Node28 -->
<g id="edge49_Node000022_Node000028" class="edge">
<title>Node22&#45;&gt;Node28</title>
<g id="a_edge49_Node000022_Node000028"><a xlink:title=" ">
<path fill="none" stroke="#63b8ff" d="M1091.41,-402.68C1252.8,-398.39 1601.67,-385.14 1715.9,-349 1769.2,-332.14 1823.59,-295.12 1854.12,-272.15"/>
<polygon fill="#63b8ff" stroke="#63b8ff" points="1090.96,-399.19 1081.06,-402.95 1091.14,-406.19 1090.96,-399.19"/>
</a>
</g>
</g>
<!-- Node23&#45;&gt;Node3 -->
<g id="edge44_Node000023_Node000003" class="edge">
<title>Node23&#45;&gt;Node3</title>
<g id="a_edge44_Node000023_Node000003"><a xlink:title=" ">
<path fill="none" stroke="#63b8ff" d="M1145.57,-311.8C1074.13,-298.33 972.23,-279.13 903.94,-266.26"/>
<polygon fill="#63b8ff" stroke="#63b8ff" points="1144.96,-315.24 1155.44,-313.66 1146.26,-308.37 1144.96,-315.24"/>
</a>
</g>
</g>
<!-- Node24 -->
<g id="Node000024" class="node">
<title>Node24</title>
<g id="a_Node000024"><a xlink:href="byfield_8h.html" target="_top" xlink:title=" ">
<polygon fill="white" stroke="#666666" points="1219.9,-272 1073.9,-272 1073.9,-231 1219.9,-231 1219.9,-272"/>
<text text-anchor="start" x="1081.9" y="-260" font-family="Helvetica,sans-Serif" font-size="10.00">/home/runner/work/realm</text>
<text text-anchor="start" x="1081.9" y="-249" font-family="Helvetica,sans-Serif" font-size="10.00">/realm/realm&#45;src/src/realm</text>
<text text-anchor="middle" x="1146.9" y="-238" font-family="Helvetica,sans-Serif" font-size="10.00">/deppart/byfield.h</text>
</a>
</g>
</g>
<!-- Node23&#45;&gt;Node24 -->
<g id="edge40_Node000023_Node000024" class="edge">
<title>Node23&#45;&gt;Node24</title>
<g id="a_edge40_Node000023_Node000024"><a xlink:title=" ">
<path fill="none" stroke="#63b8ff" d="M1199.7,-300.79C1189.34,-291.32 1177.89,-280.84 1168.3,-272.07"/>
<polygon fill="#63b8ff" stroke="#63b8ff" points="1197.62,-303.63 1207.36,-307.79 1202.34,-298.46 1197.62,-303.63"/>
</a>
</g>
</g>
<!-- Node25 -->
<g id="Node000025" class="node">
<title>Node25</title>
<g id="a_Node000025"><a xlink:href="image_8h.html" target="_top" xlink:title=" ">
<polygon fill="white" stroke="#666666" points="1383.9,-272 1237.9,-272 1237.9,-231 1383.9,-231 1383.9,-272"/>
<text text-anchor="start" x="1245.9" y="-260" font-family="Helvetica,sans-Serif" font-size="10.00">/home/runner/work/realm</text>
<text text-anchor="start" x="1245.9" y="-249" font-family="Helvetica,sans-Serif" font-size="10.00">/realm/realm&#45;src/src/realm</text>
<text text-anchor="middle" x="1310.9" y="-238" font-family="Helvetica,sans-Serif" font-size="10.00">/deppart/image.h</text>
</a>
</g>
</g>
<!-- Node23&#45;&gt;Node25 -->
<g id="edge41_Node000023_Node000025" class="edge">
<title>Node23&#45;&gt;Node25</title>
<g id="a_edge41_Node000023_Node000025"><a xlink:title=" ">
<path fill="none" stroke="#63b8ff" d="M1258.1,-300.79C1268.46,-291.32 1279.91,-280.84 1289.5,-272.07"/>
<polygon fill="#63b8ff" stroke="#63b8ff" points="1255.46,-298.46 1250.45,-307.79 1260.19,-303.63 1255.46,-298.46"/>
</a>
</g>
</g>
<!-- Node26 -->
<g id="Node000026" class="node">
<title>Node26</title>
<g id="a_Node000026"><a xlink:href="preimage_8h.html" target="_top" xlink:title=" ">
<polygon fill="white" stroke="#666666" points="1547.9,-272 1401.9,-272 1401.9,-231 1547.9,-231 1547.9,-272"/>
<text text-anchor="start" x="1409.9" y="-260" font-family="Helvetica,sans-Serif" font-size="10.00">/home/runner/work/realm</text>
<text text-anchor="start" x="1409.9" y="-249" font-family="Helvetica,sans-Serif" font-size="10.00">/realm/realm&#45;src/src/realm</text>
<text text-anchor="middle" x="1474.9" y="-238" font-family="Helvetica,sans-Serif" font-size="10.00">/deppart/preimage.h</text>
</a>
</g>
</g>
<!-- Node23&#45;&gt;Node26 -->
<g id="edge42_Node000023_Node000026" class="edge">
<title>Node23&#45;&gt;Node26</title>
<g id="a_edge42_Node000023_Node000026"><a xlink:title=" ">
<path fill="none" stroke="#63b8ff" d="M1302.88,-304.94C1337.26,-294.46 1377.75,-282.12 1410.8,-272.04"/>
<polygon fill="#63b8ff" stroke="#63b8ff" points="1301.44,-301.73 1292.89,-307.99 1303.48,-308.42 1301.44,-301.73"/>
</a>
</g>
</g>
<!-- Node27 -->
<g id="Node000027" class="node">
<title>Node27</title>
<g id="a_Node000027"><a xlink:href="setops_8h.html" target="_top" xlink:title=" ">
<polygon fill="white" stroke="#666666" points="1711.9,-272 1565.9,-272 1565.9,-231 1711.9,-231 1711.9,-272"/>
<text text-anchor="start" x="1573.9" y="-260" font-family="Helvetica,sans-Serif" font-size="10.00">/home/runner/work/realm</text>
<text text-anchor="start" x="1573.9" y="-249" font-family="Helvetica,sans-Serif" font-size="10.00">/realm/realm&#45;src/src/realm</text>
<text text-anchor="middle" x="1638.9" y="-238" font-family="Helvetica,sans-Serif" font-size="10.00">/deppart/setops.h</text>
</a>
</g>
</g>
<!-- Node23&#45;&gt;Node27 -->
<g id="edge43_Node000023_Node000027" class="edge">
<title>Node23&#45;&gt;Node27</title>
<g id="a_edge43_Node000023_Node000027"><a xlink:title=" ">
<path fill="none" stroke="#63b8ff" d="M1312.11,-314.97C1378.58,-304.59 1474,-288.85 1556.9,-272 1559.77,-271.42 1562.69,-270.81 1565.64,-270.18"/>
<polygon fill="#63b8ff" stroke="#63b8ff" points="1311.45,-311.53 1302.11,-316.53 1312.53,-318.45 1311.45,-311.53"/>
</a>
</g>
</g>
<!-- Node28&#45;&gt;Node4 -->
<g id="edge51_Node000028_Node000004" class="edge">
<title>Node28&#45;&gt;Node4</title>
<g id="a_edge51_Node000028_Node000004"><a xlink:title=" ">
<path fill="none" stroke="#63b8ff" d="M1795.76,-231.82C1794.47,-231.54 1793.18,-231.27 1791.9,-231 1721.1,-216.1 1640.03,-200.27 1583.04,-189.35"/>
<polygon fill="#63b8ff" stroke="#63b8ff" points="1795.32,-235.3 1805.83,-233.98 1796.79,-228.46 1795.32,-235.3"/>
</a>
</g>
</g>
<!-- Node28&#45;&gt;Node8 -->
<g id="edge50_Node000028_Node000008" class="edge">
<title>Node28&#45;&gt;Node8</title>
<g id="a_edge50_Node000028_Node000008"><a xlink:title=" ">
<path fill="none" stroke="#63b8ff" d="M1867.98,-221.37C1856.65,-191.16 1839.25,-144.76 1829.39,-118.47"/>
<polygon fill="#63b8ff" stroke="#63b8ff" points="1864.78,-222.81 1871.57,-230.94 1871.33,-220.35 1864.78,-222.81"/>
</a>
</g>
</g>
<!-- Node29&#45;&gt;Node3 -->
<g id="edge58_Node000029_Node000003" class="edge">
<title>Node29&#45;&gt;Node3</title>
<g id="a_edge58_Node000029_Node000003"><a xlink:title=" ">
<path fill="none" stroke="#63b8ff" d="M449.33,-374.69C449.23,-353.07 453.03,-324.77 470.9,-308 515.52,-266.12 683.65,-282.7 743.9,-272 748.47,-271.19 753.17,-270.3 757.9,-269.36"/>
<polygon fill="#63b8ff" stroke="#63b8ff" points="445.84,-374.81 449.65,-384.7 452.83,-374.59 445.84,-374.81"/>
</a>
</g>
</g>
<!-- Node29&#45;&gt;Node4 -->
<g id="edge57_Node000029_Node000004" class="edge">
<title>Node29&#45;&gt;Node4</title>
<g id="a_edge57_Node000029_Node000004"><a xlink:title=" ">
<path fill="none" stroke="#63b8ff" d="M529.46,-381.93C562.13,-372.17 600.48,-360.4 634.9,-349 686.01,-332.07 697.16,-322.91 748.9,-308 820.61,-287.33 840.41,-289.72 912.9,-272 980.87,-255.38 996.24,-244.47 1064.9,-231 1194.59,-205.55 1347.95,-189.45 1436.56,-181.49"/>
<polygon fill="#63b8ff" stroke="#63b8ff" points="528.1,-378.68 519.52,-384.89 530.1,-385.39 528.1,-378.68"/>
</a>
</g>
</g>
<!-- Node29&#45;&gt;Node18 -->
<g id="edge55_Node000029_Node000018" class="edge">
<title>Node29&#45;&gt;Node18</title>
<g id="a_edge55_Node000029_Node000018"><a xlink:title=" ">
<path fill="none" stroke="#63b8ff" d="M368.69,-389.78C335.79,-381.36 298.77,-368.46 268.9,-349 252.7,-338.44 219.86,-297.23 200.71,-272.2"/>
<polygon fill="#63b8ff" stroke="#63b8ff" points="368.21,-393.27 378.76,-392.25 369.88,-386.47 368.21,-393.27"/>
</a>
</g>
</g>
<!-- Node29&#45;&gt;Node19 -->
<g id="edge56_Node000029_Node000019" class="edge">
<title>Node29&#45;&gt;Node19</title>
<g id="a_edge56_Node000029_Node000019"><a xlink:title=" ">
<path fill="none" stroke="#63b8ff" d="M417.31,-378.82C404.25,-369.11 389.6,-358.24 377.39,-349.17"/>
<polygon fill="#63b8ff" stroke="#63b8ff" points="415.51,-381.84 425.63,-384.99 419.69,-376.22 415.51,-381.84"/>
</a>
</g>
</g>
<!-- Node30&#45;&gt;Node3 -->
<g id="edge61_Node000030_Node000003" class="edge">
<title>Node30&#45;&gt;Node3</title>
<g id="a_edge61_Node000030_Node000003"><a xlink:title=" ">
<path fill="none" stroke="#63b8ff" d="M654.21,-374.59C655.97,-353.58 661.59,-326.11 677.9,-308 689.34,-295.3 724.15,-282.21 757.68,-271.93"/>
<polygon fill="#63b8ff" stroke="#63b8ff" points="650.71,-374.42 653.62,-384.61 657.7,-374.84 650.71,-374.42"/>
</a>
</g>
</g>
</g>
</svg>
