<?xml version="1.0" encoding="UTF-8" standalone="no"?>
<!DOCTYPE svg PUBLIC "-//W3C//DTD SVG 1.1//EN"
 "http://www.w3.org/Graphics/SVG/1.1/DTD/svg11.dtd">
<!-- Generated by graphviz version 2.43.0 (0)
 -->
<!-- Title: /home/runner/work/realm/realm/realm&#45;src/src/realm/event.h Pages: 1 -->
<svg width="1007pt" height="269pt"
 viewBox="0.00 0.00 1007.00 269.00" xmlns="http://www.w3.org/2000/svg" xmlns:xlink="http://www.w3.org/1999/xlink">
<g id="graph0" class="graph" transform="scale(1 1) rotate(0) translate(4 265)">
<title>/home/runner/work/realm/realm/realm&#45;src/src/realm/event.h</title>
<!-- Node1 -->
<g id="Node000001" class="node">
<title>Node1</title>
<g id="a_Node000001"><a xlink:title=" ">
<polygon fill="#999999" stroke="#666666" points="825.5,-261 679.5,-261 679.5,-220 825.5,-220 825.5,-261"/>
<text text-anchor="start" x="687.5" y="-249" font-family="Helvetica,sans-Serif" font-size="10.00">/home/runner/work/realm</text>
<text text-anchor="start" x="687.5" y="-238" font-family="Helvetica,sans-Serif" font-size="10.00">/realm/realm&#45;src/src/realm</text>
<text text-anchor="middle" x="752.5" y="-227" font-family="Helvetica,sans-Serif" font-size="10.00">/event.h</text>
</a>
</g>
</g>
<!-- Node2 -->
<g id="Node000002" class="node">
<title>Node2</title>
<g id="a_Node000002"><a xlink:href="realm__c_8h.html" target="_top" xlink:title=" ">
<polygon fill="white" stroke="#666666" points="707.5,-129 611.5,-129 611.5,-110 707.5,-110 707.5,-129"/>
<text text-anchor="middle" x="659.5" y="-117" font-family="Helvetica,sans-Serif" font-size="10.00">realm/realm_c.h</text>
</a>
</g>
</g>
<!-- Node1&#45;&gt;Node2 -->
<g id="edge1_Node000001_Node000002" class="edge">
<title>Node1&#45;&gt;Node2</title>
<g id="a_edge1_Node000001_Node000002"><a xlink:title=" ">
<path fill="none" stroke="#63b8ff" d="M729.35,-219.75C718.35,-209.7 705.46,-196.9 695.5,-184 684.39,-169.61 674.43,-151.41 667.82,-138.19"/>
<polygon fill="#63b8ff" stroke="#63b8ff" points="670.97,-136.66 663.45,-129.19 664.67,-139.72 670.97,-136.66"/>
</a>
</g>
</g>
<!-- Node8 -->
<g id="Node000008" class="node">
<title>Node8</title>
<g id="a_Node000008"><a xlink:href="utils_8h.html" target="_top" xlink:title=" ">
<polygon fill="white" stroke="#666666" points="367.5,-184 289.5,-184 289.5,-165 367.5,-165 367.5,-184"/>
<text text-anchor="middle" x="328.5" y="-172" font-family="Helvetica,sans-Serif" font-size="10.00">realm/utils.h</text>
</a>
</g>
</g>
<!-- Node1&#45;&gt;Node8 -->
<g id="edge7_Node000001_Node000008" class="edge">
<title>Node1&#45;&gt;Node8</title>
<g id="a_edge7_Node000001_Node000008"><a xlink:title=" ">
<path fill="none" stroke="#63b8ff" d="M679.13,-228.43C592.77,-215.39 451.75,-194.1 377.61,-182.91"/>
<polygon fill="#63b8ff" stroke="#63b8ff" points="378.01,-179.43 367.6,-181.4 376.97,-186.36 378.01,-179.43"/>
</a>
</g>
</g>
<!-- Node11 -->
<g id="Node000011" class="node">
<title>Node11</title>
<g id="a_Node000011"><a xlink:title=" ">
<polygon fill="#e0e0e0" stroke="#999999" points="47,-129 0,-129 0,-110 47,-110 47,-129"/>
<text text-anchor="middle" x="23.5" y="-117" font-family="Helvetica,sans-Serif" font-size="10.00">vector</text>
</a>
</g>
</g>
<!-- Node1&#45;&gt;Node11 -->
<g id="edge22_Node000001_Node000011" class="edge">
<title>Node1&#45;&gt;Node11</title>
<g id="a_edge22_Node000001_Node000011"><a xlink:title=" ">
<path fill="none" stroke="#63b8ff" d="M679.31,-233.75C586.16,-225.79 420.54,-209.43 280.5,-184 199.23,-169.24 105.41,-143.91 56.71,-130.12"/>
<polygon fill="#63b8ff" stroke="#63b8ff" points="57.6,-126.74 47.03,-127.36 55.68,-133.47 57.6,-126.74"/>
</a>
</g>
</g>
<!-- Node17 -->
<g id="Node000017" class="node">
<title>Node17</title>
<g id="a_Node000017"><a xlink:href="memory_8h.html" target="_top" xlink:title=" ">
<polygon fill="white" stroke="#666666" points="801,-184 704,-184 704,-165 801,-165 801,-184"/>
<text text-anchor="middle" x="752.5" y="-172" font-family="Helvetica,sans-Serif" font-size="10.00">realm/memory.h</text>
</a>
</g>
</g>
<!-- Node1&#45;&gt;Node17 -->
<g id="edge17_Node000001_Node000017" class="edge">
<title>Node1&#45;&gt;Node17</title>
<g id="a_edge17_Node000001_Node000017"><a xlink:title=" ">
<path fill="none" stroke="#63b8ff" d="M752.5,-219.95C752.5,-211.85 752.5,-202.5 752.5,-194.47"/>
<polygon fill="#63b8ff" stroke="#63b8ff" points="756,-194.26 752.5,-184.26 749,-194.26 756,-194.26"/>
</a>
</g>
</g>
<!-- Node18 -->
<g id="Node000018" class="node">
<title>Node18</title>
<g id="a_Node000018"><a xlink:title=" ">
<polygon fill="#e0e0e0" stroke="#999999" points="907.5,-129 847.5,-129 847.5,-110 907.5,-110 907.5,-129"/>
<text text-anchor="middle" x="877.5" y="-117" font-family="Helvetica,sans-Serif" font-size="10.00">iostream</text>
</a>
</g>
</g>
<!-- Node1&#45;&gt;Node18 -->
<g id="edge24_Node000001_Node000018" class="edge">
<title>Node1&#45;&gt;Node18</title>
<g id="a_edge24_Node000001_Node000018"><a xlink:title=" ">
<path fill="none" stroke="#63b8ff" d="M773.14,-219.85C797.72,-196.45 838.29,-157.83 860.92,-136.28"/>
<polygon fill="#63b8ff" stroke="#63b8ff" points="863.56,-138.61 868.39,-129.18 858.73,-133.54 863.56,-138.61"/>
</a>
</g>
</g>
<!-- Node20 -->
<g id="Node000020" class="node">
<title>Node20</title>
<g id="a_Node000020"><a xlink:title=" ">
<polygon fill="#e0e0e0" stroke="#999999" points="889.5,-184 857.5,-184 857.5,-165 889.5,-165 889.5,-184"/>
<text text-anchor="middle" x="873.5" y="-172" font-family="Helvetica,sans-Serif" font-size="10.00">set</text>
</a>
</g>
</g>
<!-- Node1&#45;&gt;Node20 -->
<g id="edge23_Node000001_Node000020" class="edge">
<title>Node1&#45;&gt;Node20</title>
<g id="a_edge23_Node000001_Node000020"><a xlink:title=" ">
<path fill="none" stroke="#63b8ff" d="M789.46,-219.95C808.4,-209.93 830.99,-197.99 847.97,-189"/>
<polygon fill="#63b8ff" stroke="#63b8ff" points="850.05,-191.86 857.26,-184.09 846.78,-185.67 850.05,-191.86"/>
</a>
</g>
</g>
<!-- Node21 -->
<g id="Node000021" class="node">
<title>Node21</title>
<g id="a_Node000021"><a xlink:title=" ">
<polygon fill="#e0e0e0" stroke="#999999" points="999,-184 908,-184 908,-165 999,-165 999,-184"/>
<text text-anchor="middle" x="953.5" y="-172" font-family="Helvetica,sans-Serif" font-size="10.00">realm/event.inl</text>
</a>
</g>
</g>
<!-- Node1&#45;&gt;Node21 -->
<g id="edge25_Node000001_Node000021" class="edge">
<title>Node1&#45;&gt;Node21</title>
<g id="a_edge25_Node000001_Node000021"><a xlink:title=" ">
<path fill="none" stroke="#63b8ff" d="M813.9,-219.95C847.67,-209.2 888.42,-196.22 917.15,-187.07"/>
<polygon fill="#63b8ff" stroke="#63b8ff" points="918.31,-190.38 926.78,-184.01 916.19,-183.71 918.31,-190.38"/>
</a>
</g>
</g>
<!-- Node3 -->
<g id="Node000003" class="node">
<title>Node3</title>
<g id="a_Node000003"><a xlink:href="realm__config_8h.html" target="_top" xlink:title=" ">
<polygon fill="white" stroke="#666666" points="375.5,-74 255.5,-74 255.5,-55 375.5,-55 375.5,-74"/>
<text text-anchor="middle" x="315.5" y="-62" font-family="Helvetica,sans-Serif" font-size="10.00">realm/realm_config.h</text>
</a>
</g>
</g>
<!-- Node2&#45;&gt;Node3 -->
<g id="edge2_Node000002_Node000003" class="edge">
<title>Node2&#45;&gt;Node3</title>
<g id="a_edge2_Node000002_Node000003"><a xlink:title=" ">
<path fill="none" stroke="#63b8ff" d="M611.31,-111.07C551.15,-101.81 448.03,-85.92 380.82,-75.56"/>
<polygon fill="#63b8ff" stroke="#63b8ff" points="381.18,-72.08 370.76,-74.01 380.11,-79 381.18,-72.08"/>
</a>
</g>
</g>
<!-- Node6 -->
<g id="Node000006" class="node">
<title>Node6</title>
<g id="a_Node000006"><a xlink:title=" ">
<polygon fill="#e0e0e0" stroke="#999999" points="803.5,-74 747.5,-74 747.5,-55 803.5,-55 803.5,-74"/>
<text text-anchor="middle" x="775.5" y="-62" font-family="Helvetica,sans-Serif" font-size="10.00">stddef.h</text>
</a>
</g>
</g>
<!-- Node2&#45;&gt;Node6 -->
<g id="edge5_Node000002_Node000006" class="edge">
<title>Node2&#45;&gt;Node6</title>
<g id="a_edge5_Node000002_Node000006"><a xlink:title=" ">
<path fill="none" stroke="#63b8ff" d="M678.14,-109.98C696.8,-101.46 725.75,-88.23 747.24,-78.41"/>
<polygon fill="#63b8ff" stroke="#63b8ff" points="748.88,-81.51 756.52,-74.17 745.97,-75.14 748.88,-81.51"/>
</a>
</g>
</g>
<!-- Node7 -->
<g id="Node000007" class="node">
<title>Node7</title>
<g id="a_Node000007"><a xlink:title=" ">
<polygon fill="#e0e0e0" stroke="#999999" points="686,-74 633,-74 633,-55 686,-55 686,-74"/>
<text text-anchor="middle" x="659.5" y="-62" font-family="Helvetica,sans-Serif" font-size="10.00">stdint.h</text>
</a>
</g>
</g>
<!-- Node2&#45;&gt;Node7 -->
<g id="edge6_Node000002_Node000007" class="edge">
<title>Node2&#45;&gt;Node7</title>
<g id="a_edge6_Node000002_Node000007"><a xlink:title=" ">
<path fill="none" stroke="#63b8ff" d="M659.5,-109.75C659.5,-102.8 659.5,-92.85 659.5,-84.13"/>
<polygon fill="#63b8ff" stroke="#63b8ff" points="663,-84.09 659.5,-74.09 656,-84.09 663,-84.09"/>
</a>
</g>
</g>
<!-- Node4 -->
<g id="Node000004" class="node">
<title>Node4</title>
<g id="a_Node000004"><a xlink:href="realm__defines_8h.html" target="_top" xlink:title=" ">
<polygon fill="white" stroke="#666666" points="295,-19 200,-19 200,0 295,0 295,-19"/>
<text text-anchor="middle" x="247.5" y="-7" font-family="Helvetica,sans-Serif" font-size="10.00">realm_defines.h</text>
</a>
</g>
</g>
<!-- Node3&#45;&gt;Node4 -->
<g id="edge3_Node000003_Node000004" class="edge">
<title>Node3&#45;&gt;Node4</title>
<g id="a_edge3_Node000003_Node000004"><a xlink:title=" ">
<path fill="none" stroke="#63b8ff" d="M304.57,-54.98C294.42,-47.07 279.08,-35.11 266.85,-25.58"/>
<polygon fill="#63b8ff" stroke="#63b8ff" points="268.66,-22.56 258.62,-19.17 264.36,-28.08 268.66,-22.56"/>
</a>
</g>
</g>
<!-- Node5 -->
<g id="Node000005" class="node">
<title>Node5</title>
<g id="a_Node000005"><a xlink:href="compiler__support_8h.html" target="_top" xlink:title=" ">
<polygon fill="white" stroke="#666666" points="455.5,-19 313.5,-19 313.5,0 455.5,0 455.5,-19"/>
<text text-anchor="middle" x="384.5" y="-7" font-family="Helvetica,sans-Serif" font-size="10.00">realm/compiler_support.h</text>
</a>
</g>
</g>
<!-- Node3&#45;&gt;Node5 -->
<g id="edge4_Node000003_Node000005" class="edge">
<title>Node3&#45;&gt;Node5</title>
<g id="a_edge4_Node000003_Node000005"><a xlink:title=" ">
<path fill="none" stroke="#63b8ff" d="M326.59,-54.98C336.99,-47 352.76,-34.88 365.22,-25.31"/>
<polygon fill="#63b8ff" stroke="#63b8ff" points="367.41,-28.04 373.21,-19.17 363.15,-22.49 367.41,-28.04"/>
</a>
</g>
</g>
<!-- Node8&#45;&gt;Node3 -->
<g id="edge8_Node000008_Node000003" class="edge">
<title>Node8&#45;&gt;Node3</title>
<g id="a_edge8_Node000008_Node000003"><a xlink:title=" ">
<path fill="none" stroke="#63b8ff" d="M289.14,-171.87C229.03,-168.47 118.76,-158.31 94.5,-129 89.12,-122.49 89.15,-116.53 94.5,-110 113.36,-86.97 187.84,-75.59 245.18,-70.16"/>
<polygon fill="#63b8ff" stroke="#63b8ff" points="245.66,-73.63 255.3,-69.24 245.03,-66.66 245.66,-73.63"/>
</a>
</g>
</g>
<!-- Node9 -->
<g id="Node000009" class="node">
<title>Node9</title>
<g id="a_Node000009"><a xlink:title=" ">
<polygon fill="#e0e0e0" stroke="#999999" points="391.5,-129 347.5,-129 347.5,-110 391.5,-110 391.5,-129"/>
<text text-anchor="middle" x="369.5" y="-117" font-family="Helvetica,sans-Serif" font-size="10.00">string</text>
</a>
</g>
</g>
<!-- Node8&#45;&gt;Node9 -->
<g id="edge9_Node000008_Node000009" class="edge">
<title>Node8&#45;&gt;Node9</title>
<g id="a_edge9_Node000008_Node000009"><a xlink:title=" ">
<path fill="none" stroke="#63b8ff" d="M335.27,-164.75C341.06,-157.26 349.56,-146.28 356.64,-137.13"/>
<polygon fill="#63b8ff" stroke="#63b8ff" points="359.51,-139.14 362.86,-129.09 353.97,-134.86 359.51,-139.14"/>
</a>
</g>
</g>
<!-- Node10 -->
<g id="Node000010" class="node">
<title>Node10</title>
<g id="a_Node000010"><a xlink:title=" ">
<polygon fill="#e0e0e0" stroke="#999999" points="467,-129 410,-129 410,-110 467,-110 467,-129"/>
<text text-anchor="middle" x="438.5" y="-117" font-family="Helvetica,sans-Serif" font-size="10.00">ostream</text>
</a>
</g>
</g>
<!-- Node8&#45;&gt;Node10 -->
<g id="edge10_Node000008_Node000010" class="edge">
<title>Node8&#45;&gt;Node10</title>
<g id="a_edge10_Node000008_Node000010"><a xlink:title=" ">
<path fill="none" stroke="#63b8ff" d="M346.17,-164.98C363.79,-156.5 391.08,-143.35 411.43,-133.54"/>
<polygon fill="#63b8ff" stroke="#63b8ff" points="413.02,-136.66 420.51,-129.17 409.98,-130.36 413.02,-136.66"/>
</a>
</g>
</g>
<!-- Node8&#45;&gt;Node11 -->
<g id="edge11_Node000008_Node000011" class="edge">
<title>Node8&#45;&gt;Node11</title>
<g id="a_edge11_Node000008_Node000011"><a xlink:title=" ">
<path fill="none" stroke="#63b8ff" d="M289.47,-167.68C237.35,-159.76 142.22,-144.74 61.5,-129 60.05,-128.72 58.57,-128.42 57.07,-128.11"/>
<polygon fill="#63b8ff" stroke="#63b8ff" points="57.68,-124.67 47.17,-126.01 56.23,-131.51 57.68,-124.67"/>
</a>
</g>
</g>
<!-- Node12 -->
<g id="Node000012" class="node">
<title>Node12</title>
<g id="a_Node000012"><a xlink:title=" ">
<polygon fill="#e0e0e0" stroke="#999999" points="523.5,-129 485.5,-129 485.5,-110 523.5,-110 523.5,-129"/>
<text text-anchor="middle" x="504.5" y="-117" font-family="Helvetica,sans-Serif" font-size="10.00">map</text>
</a>
</g>
</g>
<!-- Node8&#45;&gt;Node12 -->
<g id="edge12_Node000008_Node000012" class="edge">
<title>Node8&#45;&gt;Node12</title>
<g id="a_edge12_Node000008_Node000012"><a xlink:title=" ">
<path fill="none" stroke="#63b8ff" d="M356.78,-164.98C389.31,-155.19 442.45,-139.19 475.35,-129.28"/>
<polygon fill="#63b8ff" stroke="#63b8ff" points="476.7,-132.53 485.26,-126.29 474.68,-125.83 476.7,-132.53"/>
</a>
</g>
</g>
<!-- Node13 -->
<g id="Node000013" class="node">
<title>Node13</title>
<g id="a_Node000013"><a xlink:title=" ">
<polygon fill="#e0e0e0" stroke="#999999" points="593.5,-129 541.5,-129 541.5,-110 593.5,-110 593.5,-129"/>
<text text-anchor="middle" x="567.5" y="-117" font-family="Helvetica,sans-Serif" font-size="10.00">cassert</text>
</a>
</g>
</g>
<!-- Node8&#45;&gt;Node13 -->
<g id="edge13_Node000008_Node000013" class="edge">
<title>Node8&#45;&gt;Node13</title>
<g id="a_edge13_Node000008_Node000013"><a xlink:title=" ">
<path fill="none" stroke="#63b8ff" d="M367.67,-165.24C406.7,-156.95 468.59,-143.63 531.11,-129.28"/>
<polygon fill="#63b8ff" stroke="#63b8ff" points="532.18,-132.63 541.14,-126.97 530.61,-125.8 532.18,-132.63"/>
</a>
</g>
</g>
<!-- Node14 -->
<g id="Node000014" class="node">
<title>Node14</title>
<g id="a_Node000014"><a xlink:title=" ">
<polygon fill="#e0e0e0" stroke="#999999" points="153.5,-129 103.5,-129 103.5,-110 153.5,-110 153.5,-129"/>
<text text-anchor="middle" x="128.5" y="-117" font-family="Helvetica,sans-Serif" font-size="10.00">cstdint</text>
</a>
</g>
</g>
<!-- Node8&#45;&gt;Node14 -->
<g id="edge14_Node000008_Node000014" class="edge">
<title>Node8&#45;&gt;Node14</title>
<g id="a_edge14_Node000008_Node000014"><a xlink:title=" ">
<path fill="none" stroke="#63b8ff" d="M296.37,-164.98C260.03,-155.36 201.06,-139.73 163.56,-129.79"/>
<polygon fill="#63b8ff" stroke="#63b8ff" points="164.15,-126.33 153.59,-127.15 162.36,-133.09 164.15,-126.33"/>
</a>
</g>
</g>
<!-- Node15 -->
<g id="Node000015" class="node">
<title>Node15</title>
<g id="a_Node000015"><a xlink:title=" ">
<polygon fill="#e0e0e0" stroke="#999999" points="227.5,-129 171.5,-129 171.5,-110 227.5,-110 227.5,-129"/>
<text text-anchor="middle" x="199.5" y="-117" font-family="Helvetica,sans-Serif" font-size="10.00">sstream</text>
</a>
</g>
</g>
<!-- Node8&#45;&gt;Node15 -->
<g id="edge15_Node000008_Node000015" class="edge">
<title>Node8&#45;&gt;Node15</title>
<g id="a_edge15_Node000008_Node000015"><a xlink:title=" ">
<path fill="none" stroke="#63b8ff" d="M307.77,-164.98C286.74,-156.34 253.95,-142.87 229.96,-133.02"/>
<polygon fill="#63b8ff" stroke="#63b8ff" points="231.18,-129.73 220.6,-129.17 228.52,-136.21 231.18,-129.73"/>
</a>
</g>
</g>
<!-- Node16 -->
<g id="Node000016" class="node">
<title>Node16</title>
<g id="a_Node000016"><a xlink:title=" ">
<polygon fill="#e0e0e0" stroke="#999999" points="329.5,-129 245.5,-129 245.5,-110 329.5,-110 329.5,-129"/>
<text text-anchor="middle" x="287.5" y="-117" font-family="Helvetica,sans-Serif" font-size="10.00">realm/utils.inl</text>
</a>
</g>
</g>
<!-- Node8&#45;&gt;Node16 -->
<g id="edge16_Node000008_Node000016" class="edge">
<title>Node8&#45;&gt;Node16</title>
<g id="a_edge16_Node000008_Node000016"><a xlink:title=" ">
<path fill="none" stroke="#63b8ff" d="M321.73,-164.75C315.94,-157.26 307.44,-146.28 300.36,-137.13"/>
<polygon fill="#63b8ff" stroke="#63b8ff" points="303.03,-134.86 294.14,-129.09 297.49,-139.14 303.03,-134.86"/>
</a>
</g>
</g>
<!-- Node17&#45;&gt;Node2 -->
<g id="edge18_Node000017_Node000002" class="edge">
<title>Node17&#45;&gt;Node2</title>
<g id="a_edge18_Node000017_Node000002"><a xlink:title=" ">
<path fill="none" stroke="#63b8ff" d="M737.56,-164.98C723,-156.69 700.63,-143.94 683.57,-134.22"/>
<polygon fill="#63b8ff" stroke="#63b8ff" points="685.14,-131.08 674.71,-129.17 681.67,-137.16 685.14,-131.08"/>
</a>
</g>
</g>
<!-- Node17&#45;&gt;Node6 -->
<g id="edge19_Node000017_Node000006" class="edge">
<title>Node17&#45;&gt;Node6</title>
<g id="a_edge19_Node000017_Node000006"><a xlink:title=" ">
<path fill="none" stroke="#63b8ff" d="M766.87,-164.96C778.37,-157.21 793.68,-144.62 800.5,-129 807.36,-113.3 798.49,-95.07 789.47,-82.18"/>
<polygon fill="#63b8ff" stroke="#63b8ff" points="792.24,-80.04 783.4,-74.21 786.67,-84.29 792.24,-80.04"/>
</a>
</g>
</g>
<!-- Node17&#45;&gt;Node18 -->
<g id="edge20_Node000017_Node000018" class="edge">
<title>Node17&#45;&gt;Node18</title>
<g id="a_edge20_Node000017_Node000018"><a xlink:title=" ">
<path fill="none" stroke="#63b8ff" d="M772.58,-164.98C792.87,-156.38 824.46,-142.99 847.67,-133.15"/>
<polygon fill="#63b8ff" stroke="#63b8ff" points="849.21,-136.3 857.05,-129.17 846.48,-129.85 849.21,-136.3"/>
</a>
</g>
</g>
<!-- Node19 -->
<g id="Node000019" class="node">
<title>Node19</title>
<g id="a_Node000019"><a xlink:title=" ">
<polygon fill="#e0e0e0" stroke="#999999" points="791,-129 726,-129 726,-110 791,-110 791,-129"/>
<text text-anchor="middle" x="758.5" y="-117" font-family="Helvetica,sans-Serif" font-size="10.00">functional</text>
</a>
</g>
</g>
<!-- Node17&#45;&gt;Node19 -->
<g id="edge21_Node000017_Node000019" class="edge">
<title>Node17&#45;&gt;Node19</title>
<g id="a_edge21_Node000017_Node000019"><a xlink:title=" ">
<path fill="none" stroke="#63b8ff" d="M753.49,-164.75C754.28,-157.8 755.4,-147.85 756.39,-139.13"/>
<polygon fill="#63b8ff" stroke="#63b8ff" points="759.88,-139.42 757.53,-129.09 752.92,-138.63 759.88,-139.42"/>
</a>
</g>
</g>
</g>
</svg>
