<?xml version="1.0" encoding="UTF-8" standalone="no"?>
<!DOCTYPE svg PUBLIC "-//W3C//DTD SVG 1.1//EN"
 "http://www.w3.org/Graphics/SVG/1.1/DTD/svg11.dtd">
<!-- Generated by graphviz version 2.43.0 (0)
 -->
<!-- Title: /home/runner/work/realm/realm/realm&#45;src/src/realm/event_impl.h Pages: 1 -->
<svg width="2353pt" height="665pt"
 viewBox="0.00 0.00 2353.00 665.00" xmlns="http://www.w3.org/2000/svg" xmlns:xlink="http://www.w3.org/1999/xlink">
<g id="graph0" class="graph" transform="scale(1 1) rotate(0) translate(4 661)">
<title>/home/runner/work/realm/realm/realm&#45;src/src/realm/event_impl.h</title>
<!-- Node1 -->
<g id="Node000001" class="node">
<title>Node1</title>
<g id="a_Node000001"><a xlink:title=" ">
<polygon fill="#999999" stroke="#666666" points="493,-657 347,-657 347,-616 493,-616 493,-657"/>
<text text-anchor="start" x="355" y="-645" font-family="Helvetica,sans-Serif" font-size="10.00">/home/runner/work/realm</text>
<text text-anchor="start" x="355" y="-634" font-family="Helvetica,sans-Serif" font-size="10.00">/realm/realm&#45;src/src/realm</text>
<text text-anchor="middle" x="420" y="-623" font-family="Helvetica,sans-Serif" font-size="10.00">/event_impl.h</text>
</a>
</g>
</g>
<!-- Node2 -->
<g id="Node000002" class="node">
<title>Node2</title>
<g id="a_Node000002"><a xlink:href="barrier__impl_8h.html" target="_top" xlink:title=" ">
<polygon fill="white" stroke="#666666" points="392,-503 246,-503 246,-462 392,-462 392,-503"/>
<text text-anchor="start" x="254" y="-491" font-family="Helvetica,sans-Serif" font-size="10.00">/home/runner/work/realm</text>
<text text-anchor="start" x="254" y="-480" font-family="Helvetica,sans-Serif" font-size="10.00">/realm/realm&#45;src/src/realm</text>
<text text-anchor="middle" x="319" y="-469" font-family="Helvetica,sans-Serif" font-size="10.00">/barrier_impl.h</text>
</a>
</g>
</g>
<!-- Node1&#45;&gt;Node2 -->
<g id="edge1_Node000001_Node000002" class="edge">
<title>Node1&#45;&gt;Node2</title>
<g id="a_edge1_Node000001_Node000002"><a xlink:title=" ">
<path fill="none" stroke="#63b8ff" d="M401.42,-607.54C381.38,-577.38 349.96,-530.1 332.27,-503.47"/>
<polygon fill="#63b8ff" stroke="#63b8ff" points="398.55,-609.55 407,-615.94 404.38,-605.67 398.55,-609.55"/>
</a>
</g>
</g>
<!-- Node3 -->
<g id="Node000003" class="node">
<title>Node3</title>
<g id="a_Node000003"><a xlink:href="runtime__impl_8h.html" target="_top" xlink:title=" ">
<polygon fill="white" stroke="#666666" points="1036,-195 890,-195 890,-154 1036,-154 1036,-195"/>
<text text-anchor="start" x="898" y="-183" font-family="Helvetica,sans-Serif" font-size="10.00">/home/runner/work/realm</text>
<text text-anchor="start" x="898" y="-172" font-family="Helvetica,sans-Serif" font-size="10.00">/realm/realm&#45;src/src/realm</text>
<text text-anchor="middle" x="963" y="-161" font-family="Helvetica,sans-Serif" font-size="10.00">/runtime_impl.h</text>
</a>
</g>
</g>
<!-- Node1&#45;&gt;Node3 -->
<g id="edge60_Node000001_Node000003" class="edge">
<title>Node1&#45;&gt;Node3</title>
<g id="a_edge60_Node000001_Node000003"><a xlink:title=" ">
<path fill="none" stroke="#63b8ff" d="M336.65,-627.2C275.37,-619.17 199.51,-604.53 180,-580 99.45,-478.7 203.24,-409.14 284,-308 317.06,-266.6 326.16,-251.54 375,-231 466.09,-192.68 753.35,-180.6 889.74,-176.97"/>
<polygon fill="#63b8ff" stroke="#63b8ff" points="336.37,-630.69 346.73,-628.48 337.25,-623.75 336.37,-630.69"/>
</a>
</g>
</g>
<!-- Node4 -->
<g id="Node000004" class="node">
<title>Node4</title>
<g id="a_Node000004"><a xlink:href="proc__impl_8h.html" target="_top" xlink:title=" ">
<polygon fill="white" stroke="#666666" points="1086,-118 940,-118 940,-77 1086,-77 1086,-118"/>
<text text-anchor="start" x="948" y="-106" font-family="Helvetica,sans-Serif" font-size="10.00">/home/runner/work/realm</text>
<text text-anchor="start" x="948" y="-95" font-family="Helvetica,sans-Serif" font-size="10.00">/realm/realm&#45;src/src/realm</text>
<text text-anchor="middle" x="1013" y="-84" font-family="Helvetica,sans-Serif" font-size="10.00">/proc_impl.h</text>
</a>
</g>
</g>
<!-- Node1&#45;&gt;Node4 -->
<g id="edge54_Node000001_Node000004" class="edge">
<title>Node1&#45;&gt;Node4</title>
<g id="a_edge54_Node000001_Node000004"><a xlink:title=" ">
<path fill="none" stroke="#63b8ff" d="M336.7,-626.29C269.1,-617.37 180.5,-601.97 152,-580 114.06,-550.76 104,-531.4 104,-483.5 104,-483.5 104,-483.5 104,-327.5 104,-155.5 723.71,-111.41 939.77,-101.27"/>
<polygon fill="#63b8ff" stroke="#63b8ff" points="336.57,-629.8 346.94,-627.61 337.47,-622.86 336.57,-629.8"/>
</a>
</g>
</g>
<!-- Node12 -->
<g id="Node000012" class="node">
<title>Node12</title>
<g id="a_Node000012"><a xlink:href="comp__queue__impl_8h.html" target="_top" xlink:title=" ">
<polygon fill="white" stroke="#666666" points="578,-349 432,-349 432,-308 578,-308 578,-349"/>
<text text-anchor="start" x="440" y="-337" font-family="Helvetica,sans-Serif" font-size="10.00">/home/runner/work/realm</text>
<text text-anchor="start" x="440" y="-326" font-family="Helvetica,sans-Serif" font-size="10.00">/realm/realm&#45;src/src/realm</text>
<text text-anchor="middle" x="505" y="-315" font-family="Helvetica,sans-Serif" font-size="10.00">/comp_queue_impl.h</text>
</a>
</g>
</g>
<!-- Node1&#45;&gt;Node12 -->
<g id="edge11_Node000001_Node000012" class="edge">
<title>Node1&#45;&gt;Node12</title>
<g id="a_edge11_Node000001_Node000012"><a xlink:title=" ">
<path fill="none" stroke="#63b8ff" d="M425.16,-605.58C429.86,-568.2 432.01,-504.07 401,-462 377.14,-429.64 340.06,-459.62 318,-426 308,-410.77 307.1,-399.6 318,-385 332.03,-366.21 385.61,-351.5 431.84,-341.97"/>
<polygon fill="#63b8ff" stroke="#63b8ff" points="421.64,-605.43 423.72,-615.82 428.58,-606.4 421.64,-605.43"/>
</a>
</g>
</g>
<!-- Node13 -->
<g id="Node000013" class="node">
<title>Node13</title>
<g id="a_Node000013"><a xlink:href="inst__impl_8h.html" target="_top" xlink:title=" ">
<polygon fill="white" stroke="#666666" points="1428,-426 1282,-426 1282,-385 1428,-385 1428,-426"/>
<text text-anchor="start" x="1290" y="-414" font-family="Helvetica,sans-Serif" font-size="10.00">/home/runner/work/realm</text>
<text text-anchor="start" x="1290" y="-403" font-family="Helvetica,sans-Serif" font-size="10.00">/realm/realm&#45;src/src/realm</text>
<text text-anchor="middle" x="1355" y="-392" font-family="Helvetica,sans-Serif" font-size="10.00">/inst_impl.h</text>
</a>
</g>
</g>
<!-- Node1&#45;&gt;Node13 -->
<g id="edge13_Node000001_Node000013" class="edge">
<title>Node1&#45;&gt;Node13</title>
<g id="a_edge13_Node000001_Node000013"><a xlink:title=" ">
<path fill="none" stroke="#63b8ff" d="M503.45,-635.63C711.76,-635.19 1242.37,-629.21 1304,-580 1351.23,-542.29 1356.27,-463.19 1355.86,-426.27"/>
<polygon fill="#63b8ff" stroke="#63b8ff" points="503.17,-632.13 493.18,-635.64 503.18,-639.13 503.17,-632.13"/>
</a>
</g>
</g>
<!-- Node19 -->
<g id="Node000019" class="node">
<title>Node19</title>
<g id="a_Node000019"><a xlink:href="mem__impl_8h.html" target="_top" xlink:title=" ">
<polygon fill="white" stroke="#666666" points="1842,-503 1696,-503 1696,-462 1842,-462 1842,-503"/>
<text text-anchor="start" x="1704" y="-491" font-family="Helvetica,sans-Serif" font-size="10.00">/home/runner/work/realm</text>
<text text-anchor="start" x="1704" y="-480" font-family="Helvetica,sans-Serif" font-size="10.00">/realm/realm&#45;src/src/realm</text>
<text text-anchor="middle" x="1769" y="-469" font-family="Helvetica,sans-Serif" font-size="10.00">/mem_impl.h</text>
</a>
</g>
</g>
<!-- Node1&#45;&gt;Node19 -->
<g id="edge26_Node000001_Node000019" class="edge">
<title>Node1&#45;&gt;Node19</title>
<g id="a_edge26_Node000001_Node000019"><a xlink:title=" ">
<path fill="none" stroke="#63b8ff" d="M503.28,-635.46C668.27,-634.32 1047.93,-626.35 1363,-580 1484.32,-562.15 1622.68,-525.72 1702.53,-503.09"/>
<polygon fill="#63b8ff" stroke="#63b8ff" points="503.18,-631.96 493.21,-635.53 503.23,-638.96 503.18,-631.96"/>
</a>
</g>
</g>
<!-- Node22 -->
<g id="Node000022" class="node">
<title>Node22</title>
<g id="a_Node000022"><a xlink:href="operation_8h.html" target="_top" xlink:title=" ">
<polygon fill="white" stroke="#666666" points="1131,-580 985,-580 985,-539 1131,-539 1131,-580"/>
<text text-anchor="start" x="993" y="-568" font-family="Helvetica,sans-Serif" font-size="10.00">/home/runner/work/realm</text>
<text text-anchor="start" x="993" y="-557" font-family="Helvetica,sans-Serif" font-size="10.00">/realm/realm&#45;src/src/realm</text>
<text text-anchor="middle" x="1058" y="-546" font-family="Helvetica,sans-Serif" font-size="10.00">/operation.h</text>
</a>
</g>
</g>
<!-- Node1&#45;&gt;Node22 -->
<g id="edge38_Node000001_Node000022" class="edge">
<title>Node1&#45;&gt;Node22</title>
<g id="a_edge38_Node000001_Node000022"><a xlink:title=" ">
<path fill="none" stroke="#63b8ff" d="M503.15,-625.73C628.81,-610.95 865.1,-583.18 984.69,-569.12"/>
<polygon fill="#63b8ff" stroke="#63b8ff" points="502.71,-622.25 493.19,-626.9 503.53,-629.21 502.71,-622.25"/>
</a>
</g>
</g>
<!-- Node29 -->
<g id="Node000029" class="node">
<title>Node29</title>
<g id="a_Node000029"><a xlink:href="rsrv__impl_8h.html" target="_top" xlink:title=" ">
<polygon fill="white" stroke="#666666" points="1295,-580 1149,-580 1149,-539 1295,-539 1295,-580"/>
<text text-anchor="start" x="1157" y="-568" font-family="Helvetica,sans-Serif" font-size="10.00">/home/runner/work/realm</text>
<text text-anchor="start" x="1157" y="-557" font-family="Helvetica,sans-Serif" font-size="10.00">/realm/realm&#45;src/src/realm</text>
<text text-anchor="middle" x="1222" y="-546" font-family="Helvetica,sans-Serif" font-size="10.00">/rsrv_impl.h</text>
</a>
</g>
</g>
<!-- Node1&#45;&gt;Node29 -->
<g id="edge55_Node000001_Node000029" class="edge">
<title>Node1&#45;&gt;Node29</title>
<g id="a_edge55_Node000001_Node000029"><a xlink:title=" ">
<path fill="none" stroke="#63b8ff" d="M503.49,-633.3C638.17,-628.81 911.39,-615.77 1140,-580 1142.89,-579.55 1145.83,-579.05 1148.8,-578.51"/>
<polygon fill="#63b8ff" stroke="#63b8ff" points="503.14,-629.81 493.25,-633.64 503.36,-636.81 503.14,-629.81"/>
</a>
</g>
</g>
<!-- Node30 -->
<g id="Node000030" class="node">
<title>Node30</title>
<g id="a_Node000030"><a xlink:href="subgraph__impl_8h.html" target="_top" xlink:title=" ">
<polygon fill="white" stroke="#666666" points="335,-580 189,-580 189,-539 335,-539 335,-580"/>
<text text-anchor="start" x="197" y="-568" font-family="Helvetica,sans-Serif" font-size="10.00">/home/runner/work/realm</text>
<text text-anchor="start" x="197" y="-557" font-family="Helvetica,sans-Serif" font-size="10.00">/realm/realm&#45;src/src/realm</text>
<text text-anchor="middle" x="262" y="-546" font-family="Helvetica,sans-Serif" font-size="10.00">/subgraph_impl.h</text>
</a>
</g>
</g>
<!-- Node1&#45;&gt;Node30 -->
<g id="edge61_Node000001_Node000030" class="edge">
<title>Node1&#45;&gt;Node30</title>
<g id="a_edge61_Node000001_Node000030"><a xlink:title=" ">
<path fill="none" stroke="#63b8ff" d="M369.62,-611.59C348.18,-601.41 323.49,-589.69 303.17,-580.04"/>
<polygon fill="#63b8ff" stroke="#63b8ff" points="368.37,-614.86 378.9,-615.99 371.37,-608.54 368.37,-614.86"/>
</a>
</g>
</g>
<!-- Node2&#45;&gt;Node3 -->
<g id="edge2_Node000002_Node000003" class="edge">
<title>Node2&#45;&gt;Node3</title>
<g id="a_edge2_Node000002_Node000003"><a xlink:title=" ">
<path fill="none" stroke="#63b8ff" d="M306.29,-452.24C299.61,-432.2 294.88,-405.62 306,-385 335.54,-330.2 366.66,-334.48 423,-308 580.04,-234.2 782.78,-198.71 889.61,-184.12"/>
<polygon fill="#63b8ff" stroke="#63b8ff" points="303.05,-453.58 309.77,-461.77 309.63,-451.18 303.05,-453.58"/>
</a>
</g>
</g>
<!-- Node3&#45;&gt;Node4 -->
<g id="edge3_Node000003_Node000004" class="edge">
<title>Node3&#45;&gt;Node4</title>
<g id="a_edge3_Node000003_Node000004"><a xlink:title=" ">
<path fill="none" stroke="#63b8ff" d="M981.74,-145.39C987.8,-136.3 994.39,-126.41 999.95,-118.07"/>
<polygon fill="#63b8ff" stroke="#63b8ff" points="978.77,-143.53 976.14,-153.79 984.6,-147.42 978.77,-143.53"/>
</a>
</g>
</g>
<!-- Node10 -->
<g id="Node000010" class="node">
<title>Node10</title>
<g id="a_Node000010"><a xlink:href="lowlevel__dma_8h.html" target="_top" xlink:title=" ">
<polygon fill="white" stroke="#666666" points="1428,-118 1282,-118 1282,-77 1428,-77 1428,-118"/>
<text text-anchor="start" x="1290" y="-106" font-family="Helvetica,sans-Serif" font-size="10.00">/home/runner/work/realm</text>
<text text-anchor="start" x="1290" y="-95" font-family="Helvetica,sans-Serif" font-size="10.00">/realm/realm&#45;src/src/realm</text>
<text text-anchor="middle" x="1355" y="-84" font-family="Helvetica,sans-Serif" font-size="10.00">/transfer/lowlevel_dma.h</text>
</a>
</g>
</g>
<!-- Node3&#45;&gt;Node10 -->
<g id="edge9_Node000003_Node000010" class="edge">
<title>Node3&#45;&gt;Node10</title>
<g id="a_edge9_Node000003_Node000010"><a xlink:title=" ">
<path fill="none" stroke="#63b8ff" d="M1046.36,-157.55C1116.2,-144.19 1214.92,-125.3 1281.76,-112.51"/>
<polygon fill="#63b8ff" stroke="#63b8ff" points="1045.44,-154.16 1036.27,-159.48 1046.75,-161.04 1045.44,-154.16"/>
</a>
</g>
</g>
<!-- Node5 -->
<g id="Node000005" class="node">
<title>Node5</title>
<g id="a_Node000005"><a xlink:href="cuda__internal_8h.html" target="_top" xlink:title=" ">
<polygon fill="white" stroke="#666666" points="1981,-41 1835,-41 1835,0 1981,0 1981,-41"/>
<text text-anchor="start" x="1843" y="-29" font-family="Helvetica,sans-Serif" font-size="10.00">/home/runner/work/realm</text>
<text text-anchor="start" x="1843" y="-18" font-family="Helvetica,sans-Serif" font-size="10.00">/realm/realm&#45;src/src/realm</text>
<text text-anchor="middle" x="1908" y="-7" font-family="Helvetica,sans-Serif" font-size="10.00">/cuda/cuda_internal.h</text>
</a>
</g>
</g>
<!-- Node4&#45;&gt;Node5 -->
<g id="edge4_Node000004_Node000005" class="edge">
<title>Node4&#45;&gt;Node5</title>
<g id="a_edge4_Node000004_Node000005"><a xlink:title=" ">
<path fill="none" stroke="#63b8ff" d="M1096.15,-87.48C1129.09,-84.02 1167.32,-80.15 1202,-77 1432.81,-56.02 1706.49,-35.85 1834.77,-26.67"/>
<polygon fill="#63b8ff" stroke="#63b8ff" points="1095.69,-84.01 1086.11,-88.54 1096.42,-90.97 1095.69,-84.01"/>
</a>
</g>
</g>
<!-- Node6 -->
<g id="Node000006" class="node">
<title>Node6</title>
<g id="a_Node000006"><a xlink:href="hip__internal_8h.html" target="_top" xlink:title=" ">
<polygon fill="white" stroke="#666666" points="1529,-41 1383,-41 1383,0 1529,0 1529,-41"/>
<text text-anchor="start" x="1391" y="-29" font-family="Helvetica,sans-Serif" font-size="10.00">/home/runner/work/realm</text>
<text text-anchor="start" x="1391" y="-18" font-family="Helvetica,sans-Serif" font-size="10.00">/realm/realm&#45;src/src/realm</text>
<text text-anchor="middle" x="1456" y="-7" font-family="Helvetica,sans-Serif" font-size="10.00">/hip/hip_internal.h</text>
</a>
</g>
</g>
<!-- Node4&#45;&gt;Node6 -->
<g id="edge5_Node000004_Node000006" class="edge">
<title>Node4&#45;&gt;Node6</title>
<g id="a_edge5_Node000004_Node000006"><a xlink:title=" ">
<path fill="none" stroke="#63b8ff" d="M1096.25,-82.41C1178.75,-68.44 1303.9,-47.25 1382.74,-33.9"/>
<polygon fill="#63b8ff" stroke="#63b8ff" points="1095.43,-79 1086.15,-84.12 1096.6,-85.9 1095.43,-79"/>
</a>
</g>
</g>
<!-- Node7 -->
<g id="Node000007" class="node">
<title>Node7</title>
<g id="a_Node000007"><a xlink:href="kokkos__interop_8h.html" target="_top" xlink:title=" ">
<polygon fill="white" stroke="#666666" points="1004,-41 858,-41 858,0 1004,0 1004,-41"/>
<text text-anchor="start" x="866" y="-29" font-family="Helvetica,sans-Serif" font-size="10.00">/home/runner/work/realm</text>
<text text-anchor="start" x="866" y="-18" font-family="Helvetica,sans-Serif" font-size="10.00">/realm/realm&#45;src/src/realm</text>
<text text-anchor="middle" x="931" y="-7" font-family="Helvetica,sans-Serif" font-size="10.00">/kokkos/kokkos_interop.h</text>
</a>
</g>
</g>
<!-- Node4&#45;&gt;Node7 -->
<g id="edge6_Node000004_Node000007" class="edge">
<title>Node4&#45;&gt;Node7</title>
<g id="a_edge6_Node000004_Node000007"><a xlink:title=" ">
<path fill="none" stroke="#63b8ff" d="M983.8,-69.79C973.44,-60.32 961.99,-49.84 952.4,-41.07"/>
<polygon fill="#63b8ff" stroke="#63b8ff" points="981.71,-72.63 991.46,-76.79 986.44,-67.46 981.71,-72.63"/>
</a>
</g>
</g>
<!-- Node8 -->
<g id="Node000008" class="node">
<title>Node8</title>
<g id="a_Node000008"><a xlink:href="openmp__internal_8h.html" target="_top" xlink:title=" ">
<polygon fill="white" stroke="#666666" points="660,-41 506,-41 506,0 660,0 660,-41"/>
<text text-anchor="start" x="514" y="-29" font-family="Helvetica,sans-Serif" font-size="10.00">/home/runner/work/realm</text>
<text text-anchor="start" x="514" y="-18" font-family="Helvetica,sans-Serif" font-size="10.00">/realm/realm&#45;src/src/realm</text>
<text text-anchor="middle" x="583" y="-7" font-family="Helvetica,sans-Serif" font-size="10.00">/openmp/openmp_internal.h</text>
</a>
</g>
</g>
<!-- Node4&#45;&gt;Node8 -->
<g id="edge7_Node000004_Node000008" class="edge">
<title>Node4&#45;&gt;Node8</title>
<g id="a_edge7_Node000004_Node000008"><a xlink:title=" ">
<path fill="none" stroke="#63b8ff" d="M929.3,-81.9C851.29,-68.3 735.93,-48.17 660.12,-34.95"/>
<polygon fill="#63b8ff" stroke="#63b8ff" points="929.12,-85.42 939.57,-83.69 930.32,-78.53 929.12,-85.42"/>
</a>
</g>
</g>
<!-- Node9 -->
<g id="Node000009" class="node">
<title>Node9</title>
<g id="a_Node000009"><a xlink:href="python__internal_8h.html" target="_top" xlink:title=" ">
<polygon fill="white" stroke="#666666" points="1168,-41 1022,-41 1022,0 1168,0 1168,-41"/>
<text text-anchor="start" x="1030" y="-29" font-family="Helvetica,sans-Serif" font-size="10.00">/home/runner/work/realm</text>
<text text-anchor="start" x="1030" y="-18" font-family="Helvetica,sans-Serif" font-size="10.00">/realm/realm&#45;src/src/realm</text>
<text text-anchor="middle" x="1095" y="-7" font-family="Helvetica,sans-Serif" font-size="10.00">/python/python_internal.h</text>
</a>
</g>
</g>
<!-- Node4&#45;&gt;Node9 -->
<g id="edge8_Node000004_Node000009" class="edge">
<title>Node4&#45;&gt;Node9</title>
<g id="a_edge8_Node000004_Node000009"><a xlink:title=" ">
<path fill="none" stroke="#63b8ff" d="M1042.2,-69.79C1052.56,-60.32 1064.01,-49.84 1073.6,-41.07"/>
<polygon fill="#63b8ff" stroke="#63b8ff" points="1039.56,-67.46 1034.54,-76.79 1044.29,-72.63 1039.56,-67.46"/>
</a>
</g>
</g>
<!-- Node11 -->
<g id="Node000011" class="node">
<title>Node11</title>
<g id="a_Node000011"><a xlink:href="hdf5__internal_8h.html" target="_top" xlink:title=" ">
<polygon fill="white" stroke="#666666" points="2345,-41 2199,-41 2199,0 2345,0 2345,-41"/>
<text text-anchor="start" x="2207" y="-29" font-family="Helvetica,sans-Serif" font-size="10.00">/home/runner/work/realm</text>
<text text-anchor="start" x="2207" y="-18" font-family="Helvetica,sans-Serif" font-size="10.00">/realm/realm&#45;src/src/realm</text>
<text text-anchor="middle" x="2272" y="-7" font-family="Helvetica,sans-Serif" font-size="10.00">/hdf5/hdf5_internal.h</text>
</a>
</g>
</g>
<!-- Node10&#45;&gt;Node11 -->
<g id="edge10_Node000010_Node000011" class="edge">
<title>Node10&#45;&gt;Node11</title>
<g id="a_edge10_Node000010_Node000011"><a xlink:title=" ">
<path fill="none" stroke="#63b8ff" d="M1438.19,-89.7C1615.92,-75.16 2030.18,-41.28 2198.71,-27.49"/>
<polygon fill="#63b8ff" stroke="#63b8ff" points="1437.79,-86.22 1428.11,-90.52 1438.36,-93.19 1437.79,-86.22"/>
</a>
</g>
</g>
<!-- Node12&#45;&gt;Node3 -->
<g id="edge12_Node000012_Node000003" class="edge">
<title>Node12&#45;&gt;Node3</title>
<g id="a_edge12_Node000012_Node000003"><a xlink:title=" ">
<path fill="none" stroke="#63b8ff" d="M573.48,-304.77C663.21,-274.99 819.12,-223.25 903.93,-195.11"/>
<polygon fill="#63b8ff" stroke="#63b8ff" points="572.33,-301.47 563.94,-307.94 574.53,-308.11 572.33,-301.47"/>
</a>
</g>
</g>
<!-- Node13&#45;&gt;Node10 -->
<g id="edge24_Node000013_Node000010" class="edge">
<title>Node13&#45;&gt;Node10</title>
<g id="a_edge24_Node000013_Node000010"><a xlink:title=" ">
<path fill="none" stroke="#63b8ff" d="M1367.68,-375.4C1378.44,-349 1393.06,-308.71 1399,-272 1408.18,-215.25 1381.11,-149.91 1365.39,-118.04"/>
<polygon fill="#63b8ff" stroke="#63b8ff" points="1364.38,-374.22 1363.77,-384.8 1370.84,-376.91 1364.38,-374.22"/>
</a>
</g>
</g>
<!-- Node14 -->
<g id="Node000014" class="node">
<title>Node14</title>
<g id="a_Node000014"><a xlink:href="channel_8h.html" target="_top" xlink:title=" ">
<polygon fill="white" stroke="#666666" points="1842,-349 1696,-349 1696,-308 1842,-308 1842,-349"/>
<text text-anchor="start" x="1704" y="-337" font-family="Helvetica,sans-Serif" font-size="10.00">/home/runner/work/realm</text>
<text text-anchor="start" x="1704" y="-326" font-family="Helvetica,sans-Serif" font-size="10.00">/realm/realm&#45;src/src/realm</text>
<text text-anchor="middle" x="1769" y="-315" font-family="Helvetica,sans-Serif" font-size="10.00">/transfer/channel.h</text>
</a>
</g>
</g>
<!-- Node13&#45;&gt;Node14 -->
<g id="edge14_Node000013_Node000014" class="edge">
<title>Node13&#45;&gt;Node14</title>
<g id="a_edge14_Node000013_Node000014"><a xlink:title=" ">
<path fill="none" stroke="#63b8ff" d="M1438.01,-389.46C1513.49,-375.79 1623.78,-355.81 1695.97,-342.73"/>
<polygon fill="#63b8ff" stroke="#63b8ff" points="1437.28,-386.04 1428.06,-391.26 1438.53,-392.93 1437.28,-386.04"/>
</a>
</g>
</g>
<!-- Node18 -->
<g id="Node000018" class="node">
<title>Node18</title>
<g id="a_Node000018"><a xlink:href="transfer_8h.html" target="_top" xlink:title=" ">
<polygon fill="white" stroke="#666666" points="1390,-272 1244,-272 1244,-231 1390,-231 1390,-272"/>
<text text-anchor="start" x="1252" y="-260" font-family="Helvetica,sans-Serif" font-size="10.00">/home/runner/work/realm</text>
<text text-anchor="start" x="1252" y="-249" font-family="Helvetica,sans-Serif" font-size="10.00">/realm/realm&#45;src/src/realm</text>
<text text-anchor="middle" x="1317" y="-238" font-family="Helvetica,sans-Serif" font-size="10.00">/transfer/transfer.h</text>
</a>
</g>
</g>
<!-- Node13&#45;&gt;Node18 -->
<g id="edge25_Node000013_Node000018" class="edge">
<title>Node13&#45;&gt;Node18</title>
<g id="a_edge25_Node000013_Node000018"><a xlink:title=" ">
<path fill="none" stroke="#63b8ff" d="M1347.62,-374.98C1340.07,-344.76 1328.54,-298.64 1321.99,-272.47"/>
<polygon fill="#63b8ff" stroke="#63b8ff" points="1344.29,-376.09 1350.11,-384.94 1351.08,-374.39 1344.29,-376.09"/>
</a>
</g>
</g>
<!-- Node14&#45;&gt;Node5 -->
<g id="edge15_Node000014_Node000005" class="edge">
<title>Node14&#45;&gt;Node5</title>
<g id="a_edge15_Node000014_Node000005"><a xlink:title=" ">
<path fill="none" stroke="#63b8ff" d="M1832.68,-302.95C1846.21,-294.98 1859.08,-284.79 1868,-272 1918.65,-199.4 1914.42,-86.38 1910.27,-41.17"/>
<polygon fill="#63b8ff" stroke="#63b8ff" points="1830.81,-299.99 1823.73,-307.87 1834.18,-306.12 1830.81,-299.99"/>
</a>
</g>
</g>
<!-- Node14&#45;&gt;Node6 -->
<g id="edge17_Node000014_Node000006" class="edge">
<title>Node14&#45;&gt;Node6</title>
<g id="a_edge17_Node000014_Node000006"><a xlink:title=" ">
<path fill="none" stroke="#63b8ff" d="M1685.45,-319.13C1620.34,-310.89 1537.08,-296 1513,-272 1450.13,-209.36 1490.41,-163.37 1470,-77 1467.19,-65.1 1463.85,-51.83 1461.13,-41.24"/>
<polygon fill="#63b8ff" stroke="#63b8ff" points="1685.38,-322.65 1695.73,-320.4 1686.24,-315.7 1685.38,-322.65"/>
</a>
</g>
</g>
<!-- Node14&#45;&gt;Node10 -->
<g id="edge20_Node000014_Node000010" class="edge">
<title>Node14&#45;&gt;Node10</title>
<g id="a_edge20_Node000014_Node000010"><a xlink:title=" ">
<path fill="none" stroke="#63b8ff" d="M1822.3,-302.48C1833.8,-294.44 1844.45,-284.34 1851,-272 1859.54,-255.9 1862.1,-245.45 1851,-231 1799.63,-164.11 1553.15,-123.71 1428.1,-107.18"/>
<polygon fill="#63b8ff" stroke="#63b8ff" points="1820.32,-299.59 1813.83,-307.97 1824.12,-305.47 1820.32,-299.59"/>
</a>
</g>
</g>
<!-- Node14&#45;&gt;Node11 -->
<g id="edge16_Node000014_Node000011" class="edge">
<title>Node14&#45;&gt;Node11</title>
<g id="a_edge16_Node000014_Node000011"><a xlink:title=" ">
<path fill="none" stroke="#63b8ff" d="M1826.59,-303.78C1847.54,-294.56 1871.18,-283.47 1892,-272 2030.43,-195.77 2184.5,-85.76 2245.28,-41.27"/>
<polygon fill="#63b8ff" stroke="#63b8ff" points="1824.95,-300.68 1817.17,-307.88 1827.74,-307.09 1824.95,-300.68"/>
</a>
</g>
</g>
<!-- Node15 -->
<g id="Node000015" class="node">
<title>Node15</title>
<g id="a_Node000015"><a xlink:href="addrsplit__channel_8h.html" target="_top" xlink:title=" ">
<polygon fill="white" stroke="#666666" points="1678,-272 1522,-272 1522,-231 1678,-231 1678,-272"/>
<text text-anchor="start" x="1530" y="-260" font-family="Helvetica,sans-Serif" font-size="10.00">/home/runner/work/realm</text>
<text text-anchor="start" x="1530" y="-249" font-family="Helvetica,sans-Serif" font-size="10.00">/realm/realm&#45;src/src/realm</text>
<text text-anchor="middle" x="1600" y="-238" font-family="Helvetica,sans-Serif" font-size="10.00">/transfer/addrsplit_channel.h</text>
</a>
</g>
</g>
<!-- Node14&#45;&gt;Node15 -->
<g id="edge18_Node000014_Node000015" class="edge">
<title>Node14&#45;&gt;Node15</title>
<g id="a_edge18_Node000014_Node000015"><a xlink:title=" ">
<path fill="none" stroke="#63b8ff" d="M1715.73,-303.86C1692.65,-293.62 1665.96,-281.77 1644.03,-272.04"/>
<polygon fill="#63b8ff" stroke="#63b8ff" points="1714.48,-307.13 1725.04,-307.99 1717.32,-300.73 1714.48,-307.13"/>
</a>
</g>
</g>
<!-- Node16 -->
<g id="Node000016" class="node">
<title>Node16</title>
<g id="a_Node000016"><a xlink:href="channel__disk_8h.html" target="_top" xlink:title=" ">
<polygon fill="white" stroke="#666666" points="1842,-272 1696,-272 1696,-231 1842,-231 1842,-272"/>
<text text-anchor="start" x="1704" y="-260" font-family="Helvetica,sans-Serif" font-size="10.00">/home/runner/work/realm</text>
<text text-anchor="start" x="1704" y="-249" font-family="Helvetica,sans-Serif" font-size="10.00">/realm/realm&#45;src/src/realm</text>
<text text-anchor="middle" x="1769" y="-238" font-family="Helvetica,sans-Serif" font-size="10.00">/transfer/channel_disk.h</text>
</a>
</g>
</g>
<!-- Node14&#45;&gt;Node16 -->
<g id="edge19_Node000014_Node000016" class="edge">
<title>Node14&#45;&gt;Node16</title>
<g id="a_edge19_Node000014_Node000016"><a xlink:title=" ">
<path fill="none" stroke="#63b8ff" d="M1769,-297.69C1769,-289.08 1769,-279.9 1769,-272.07"/>
<polygon fill="#63b8ff" stroke="#63b8ff" points="1765.5,-297.79 1769,-307.79 1772.5,-297.79 1765.5,-297.79"/>
</a>
</g>
</g>
<!-- Node17 -->
<g id="Node000017" class="node">
<title>Node17</title>
<g id="a_Node000017"><a xlink:href="memcpy__channel_8h.html" target="_top" xlink:title=" ">
<polygon fill="white" stroke="#666666" points="2130,-272 1974,-272 1974,-231 2130,-231 2130,-272"/>
<text text-anchor="start" x="1982" y="-260" font-family="Helvetica,sans-Serif" font-size="10.00">/home/runner/work/realm</text>
<text text-anchor="start" x="1982" y="-249" font-family="Helvetica,sans-Serif" font-size="10.00">/realm/realm&#45;src/src/realm</text>
<text text-anchor="middle" x="2052" y="-238" font-family="Helvetica,sans-Serif" font-size="10.00">/transfer/memcpy_channel.h</text>
</a>
</g>
</g>
<!-- Node14&#45;&gt;Node17 -->
<g id="edge21_Node000014_Node000017" class="edge">
<title>Node14&#45;&gt;Node17</title>
<g id="a_edge21_Node000014_Node000017"><a xlink:title=" ">
<path fill="none" stroke="#63b8ff" d="M1851.96,-305.51C1891.9,-294.93 1939.39,-282.34 1978.08,-272.09"/>
<polygon fill="#63b8ff" stroke="#63b8ff" points="1851.02,-302.14 1842.25,-308.09 1852.81,-308.91 1851.02,-302.14"/>
</a>
</g>
</g>
<!-- Node14&#45;&gt;Node18 -->
<g id="edge22_Node000014_Node000018" class="edge">
<title>Node14&#45;&gt;Node18</title>
<g id="a_edge22_Node000014_Node000018"><a xlink:title=" ">
<path fill="none" stroke="#63b8ff" d="M1685.77,-313.69C1601.01,-299.63 1470.89,-278.03 1390.02,-264.62"/>
<polygon fill="#63b8ff" stroke="#63b8ff" points="1685.44,-317.18 1695.88,-315.37 1686.58,-310.28 1685.44,-317.18"/>
</a>
</g>
</g>
<!-- Node18&#45;&gt;Node3 -->
<g id="edge23_Node000018_Node000003" class="edge">
<title>Node18&#45;&gt;Node3</title>
<g id="a_edge23_Node000018_Node000003"><a xlink:title=" ">
<path fill="none" stroke="#63b8ff" d="M1233.84,-232.88C1173.9,-220.18 1093.78,-203.21 1036.26,-191.02"/>
<polygon fill="#63b8ff" stroke="#63b8ff" points="1233.14,-236.31 1243.65,-234.96 1234.59,-229.46 1233.14,-236.31"/>
</a>
</g>
</g>
<!-- Node19&#45;&gt;Node5 -->
<g id="edge27_Node000019_Node000005" class="edge">
<title>Node19&#45;&gt;Node5</title>
<g id="a_edge27_Node000019_Node000005"><a xlink:title=" ">
<path fill="none" stroke="#63b8ff" d="M1852.46,-475C1950.47,-466.45 2106.48,-449.66 2160,-426 2209.08,-404.3 2230.16,-397.56 2253,-349 2315.65,-215.79 2190.34,-152.55 2064,-77 2038.59,-61.8 2008.37,-49.85 1981.33,-40.99"/>
<polygon fill="#63b8ff" stroke="#63b8ff" points="1851.94,-471.53 1842.28,-475.88 1852.54,-478.51 1851.94,-471.53"/>
</a>
</g>
</g>
<!-- Node19&#45;&gt;Node6 -->
<g id="edge29_Node000019_Node000006" class="edge">
<title>Node19&#45;&gt;Node6</title>
<g id="a_edge29_Node000019_Node000006"><a xlink:title=" ">
<path fill="none" stroke="#63b8ff" d="M1685.66,-476.2C1592.94,-465.26 1456,-431.79 1456,-329.5 1456,-329.5 1456,-329.5 1456,-173.5 1456,-126 1456,-70.15 1456,-41.18"/>
<polygon fill="#63b8ff" stroke="#63b8ff" points="1685.29,-479.68 1695.62,-477.31 1686.06,-472.73 1685.29,-479.68"/>
</a>
</g>
</g>
<!-- Node19&#45;&gt;Node11 -->
<g id="edge28_Node000019_Node000011" class="edge">
<title>Node19&#45;&gt;Node11</title>
<g id="a_edge28_Node000019_Node000011"><a xlink:title=" ">
<path fill="none" stroke="#63b8ff" d="M1852.45,-477.12C1961.79,-470.34 2146.8,-454.94 2208,-426 2264.42,-399.32 2310,-391.91 2310,-329.5 2310,-329.5 2310,-329.5 2310,-173.5 2310,-124.81 2291.42,-69.9 2280.25,-41.27"/>
<polygon fill="#63b8ff" stroke="#63b8ff" points="1852.21,-473.63 1842.44,-477.73 1852.63,-480.62 1852.21,-473.63"/>
</a>
</g>
</g>
<!-- Node19&#45;&gt;Node13 -->
<g id="edge30_Node000019_Node000013" class="edge">
<title>Node19&#45;&gt;Node13</title>
<g id="a_edge30_Node000019_Node000013"><a xlink:title=" ">
<path fill="none" stroke="#63b8ff" d="M1685.78,-468.61C1619.56,-458.05 1524.63,-442.26 1442,-426 1437.44,-425.1 1432.76,-424.15 1428.04,-423.16"/>
<polygon fill="#63b8ff" stroke="#63b8ff" points="1685.32,-472.08 1695.75,-470.19 1686.42,-465.17 1685.32,-472.08"/>
</a>
</g>
</g>
<!-- Node19&#45;&gt;Node14 -->
<g id="edge31_Node000019_Node000014" class="edge">
<title>Node19&#45;&gt;Node14</title>
<g id="a_edge31_Node000019_Node000014"><a xlink:title=" ">
<path fill="none" stroke="#63b8ff" d="M1769,-451.58C1769,-421.36 1769,-375.53 1769,-349.47"/>
<polygon fill="#63b8ff" stroke="#63b8ff" points="1765.5,-451.94 1769,-461.94 1772.5,-451.94 1765.5,-451.94"/>
</a>
</g>
</g>
<!-- Node19&#45;&gt;Node17 -->
<g id="edge36_Node000019_Node000017" class="edge">
<title>Node19&#45;&gt;Node17</title>
<g id="a_edge36_Node000019_Node000017"><a xlink:title=" ">
<path fill="none" stroke="#63b8ff" d="M1801.1,-455.52C1858.25,-409.28 1976.4,-313.68 2027.53,-272.3"/>
<polygon fill="#63b8ff" stroke="#63b8ff" points="1798.7,-452.96 1793.13,-461.98 1803.1,-458.41 1798.7,-452.96"/>
</a>
</g>
</g>
<!-- Node20 -->
<g id="Node000020" class="node">
<title>Node20</title>
<g id="a_Node000020"><a xlink:href="ib__memory_8h.html" target="_top" xlink:title=" ">
<polygon fill="white" stroke="#666666" points="2124,-426 1978,-426 1978,-385 2124,-385 2124,-426"/>
<text text-anchor="start" x="1986" y="-414" font-family="Helvetica,sans-Serif" font-size="10.00">/home/runner/work/realm</text>
<text text-anchor="start" x="1986" y="-403" font-family="Helvetica,sans-Serif" font-size="10.00">/realm/realm&#45;src/src/realm</text>
<text text-anchor="middle" x="2051" y="-392" font-family="Helvetica,sans-Serif" font-size="10.00">/transfer/ib_memory.h</text>
</a>
</g>
</g>
<!-- Node19&#45;&gt;Node20 -->
<g id="edge32_Node000019_Node000020" class="edge">
<title>Node19&#45;&gt;Node20</title>
<g id="a_edge32_Node000019_Node000020"><a xlink:title=" ">
<path fill="none" stroke="#63b8ff" d="M1852.04,-459.42C1891.82,-448.84 1939.06,-436.27 1977.52,-426.04"/>
<polygon fill="#63b8ff" stroke="#63b8ff" points="1851.12,-456.04 1842.36,-461.99 1852.92,-462.8 1851.12,-456.04"/>
</a>
</g>
</g>
<!-- Node21 -->
<g id="Node000021" class="node">
<title>Node21</title>
<g id="a_Node000021"><a xlink:href="ucp__internal_8h.html" target="_top" xlink:title=" ">
<polygon fill="white" stroke="#666666" points="2244,-349 2098,-349 2098,-308 2244,-308 2244,-349"/>
<text text-anchor="start" x="2106" y="-337" font-family="Helvetica,sans-Serif" font-size="10.00">/home/runner/work/realm</text>
<text text-anchor="start" x="2106" y="-326" font-family="Helvetica,sans-Serif" font-size="10.00">/realm/realm&#45;src/src/realm</text>
<text text-anchor="middle" x="2171" y="-315" font-family="Helvetica,sans-Serif" font-size="10.00">/ucx/ucp_internal.h</text>
</a>
</g>
</g>
<!-- Node19&#45;&gt;Node21 -->
<g id="edge37_Node000019_Node000021" class="edge">
<title>Node19&#45;&gt;Node21</title>
<g id="a_edge37_Node000019_Node000021"><a xlink:title=" ">
<path fill="none" stroke="#63b8ff" d="M1852.17,-478.29C1945.93,-473.06 2090.82,-459.66 2133,-426 2156.64,-407.13 2165.62,-371.47 2169,-349.18"/>
<polygon fill="#63b8ff" stroke="#63b8ff" points="1851.93,-474.79 1842.13,-478.83 1852.31,-481.78 1851.93,-474.79"/>
</a>
</g>
</g>
<!-- Node20&#45;&gt;Node5 -->
<g id="edge33_Node000020_Node000005" class="edge">
<title>Node20&#45;&gt;Node5</title>
<g id="a_edge33_Node000020_Node000005"><a xlink:title=" ">
<path fill="none" stroke="#63b8ff" d="M2056.42,-374.69C2061.6,-353.73 2071.34,-326.28 2089,-308 2116.94,-279.09 2149.94,-305.62 2172,-272 2182,-256.77 2179.48,-247.62 2172,-231 2128.99,-135.5 2017.06,-71.13 1953.61,-41.04"/>
<polygon fill="#63b8ff" stroke="#63b8ff" points="2052.95,-374.16 2054.16,-384.69 2059.78,-375.7 2052.95,-374.16"/>
</a>
</g>
</g>
<!-- Node20&#45;&gt;Node6 -->
<g id="edge34_Node000020_Node000006" class="edge">
<title>Node20&#45;&gt;Node6</title>
<g id="a_edge34_Node000020_Node000006"><a xlink:title=" ">
<path fill="none" stroke="#63b8ff" d="M2046.45,-374.69C2044.94,-354.13 2046.38,-327.15 2060,-308 2082.36,-276.55 2118.13,-304.45 2139,-272 2148.86,-256.67 2149.83,-245.65 2139,-231 2065.27,-131.26 1689.87,-59.5 1529.16,-32.87"/>
<polygon fill="#63b8ff" stroke="#63b8ff" points="2042.98,-375.18 2047.46,-384.78 2049.95,-374.48 2042.98,-375.18"/>
</a>
</g>
</g>
<!-- Node20&#45;&gt;Node21 -->
<g id="edge35_Node000020_Node000021" class="edge">
<title>Node20&#45;&gt;Node21</title>
<g id="a_edge35_Node000020_Node000021"><a xlink:title=" ">
<path fill="none" stroke="#63b8ff" d="M2090.77,-379.64C2106.62,-369.74 2124.61,-358.5 2139.52,-349.17"/>
<polygon fill="#63b8ff" stroke="#63b8ff" points="2088.84,-376.72 2082.22,-384.99 2092.55,-382.66 2088.84,-376.72"/>
</a>
</g>
</g>
<!-- Node22&#45;&gt;Node3 -->
<g id="edge49_Node000022_Node000003" class="edge">
<title>Node22&#45;&gt;Node3</title>
<g id="a_edge49_Node000022_Node000003"><a xlink:title=" ">
<path fill="none" stroke="#63b8ff" d="M1061,-528.73C1065.65,-468.12 1068.84,-327.96 1012,-231 1004.33,-217.92 993.32,-205.1 983.68,-195.09"/>
<polygon fill="#63b8ff" stroke="#63b8ff" points="1057.51,-528.5 1060.16,-538.76 1064.48,-529.08 1057.51,-528.5"/>
</a>
</g>
</g>
<!-- Node22&#45;&gt;Node4 -->
<g id="edge48_Node000022_Node000004" class="edge">
<title>Node22&#45;&gt;Node4</title>
<g id="a_edge48_Node000022_Node000004"><a xlink:title=" ">
<path fill="none" stroke="#63b8ff" d="M974.72,-548.87C796.43,-527.43 390.7,-473.85 351,-426 293.7,-356.94 419.71,-389.56 587,-349 795.71,-298.4 919.66,-369.38 1045,-195 1061.79,-171.64 1044.23,-138.9 1029.25,-118.2"/>
<polygon fill="#63b8ff" stroke="#63b8ff" points="974.5,-552.37 984.84,-550.09 975.33,-545.42 974.5,-552.37"/>
</a>
</g>
</g>
<!-- Node22&#45;&gt;Node5 -->
<g id="edge39_Node000022_Node000005" class="edge">
<title>Node22&#45;&gt;Node5</title>
<g id="a_edge39_Node000022_Node000005"><a xlink:title=" ">
<path fill="none" stroke="#63b8ff" d="M1099.9,-533.03C1111.86,-524.47 1124.26,-514.22 1134,-503 1189.9,-438.58 1216,-414.79 1216,-329.5 1216,-329.5 1216,-329.5 1216,-173.5 1216,-123.69 1230.86,-103.55 1273,-77 1296.47,-62.22 1672.69,-36.55 1834.71,-26.11"/>
<polygon fill="#63b8ff" stroke="#63b8ff" points="1097.57,-530.39 1091.32,-538.95 1101.54,-536.15 1097.57,-530.39"/>
</a>
</g>
</g>
<!-- Node22&#45;&gt;Node6 -->
<g id="edge46_Node000022_Node000006" class="edge">
<title>Node22&#45;&gt;Node6</title>
<g id="a_edge46_Node000022_Node000006"><a xlink:title=" ">
<path fill="none" stroke="#63b8ff" d="M1083.45,-531.3C1118.67,-490.68 1178,-410.29 1178,-329.5 1178,-329.5 1178,-329.5 1178,-173.5 1178,-129.3 1170.3,-107.8 1202,-77 1227.41,-52.31 1317.19,-37.03 1382.82,-28.9"/>
<polygon fill="#63b8ff" stroke="#63b8ff" points="1080.75,-529.07 1076.75,-538.88 1085.99,-533.7 1080.75,-529.07"/>
</a>
</g>
</g>
<!-- Node22&#45;&gt;Node18 -->
<g id="edge53_Node000022_Node000018" class="edge">
<title>Node22&#45;&gt;Node18</title>
<g id="a_edge53_Node000022_Node000018"><a xlink:title=" ">
<path fill="none" stroke="#63b8ff" d="M1140.63,-535.09C1159.06,-527.08 1177.42,-516.59 1192,-503 1263.82,-436.06 1300.12,-318.79 1312.25,-272.3"/>
<polygon fill="#63b8ff" stroke="#63b8ff" points="1139.22,-531.88 1131.31,-538.94 1141.89,-538.35 1139.22,-531.88"/>
</a>
</g>
</g>
<!-- Node22&#45;&gt;Node19 -->
<g id="edge47_Node000022_Node000019" class="edge">
<title>Node22&#45;&gt;Node19</title>
<g id="a_edge47_Node000022_Node000019"><a xlink:title=" ">
<path fill="none" stroke="#63b8ff" d="M1141.31,-538.91C1347.31,-506.16 1580.13,-492 1695.93,-486.49"/>
<polygon fill="#63b8ff" stroke="#63b8ff" points="1140.53,-535.49 1131.21,-540.53 1141.64,-542.4 1140.53,-535.49"/>
</a>
</g>
</g>
<!-- Node23 -->
<g id="Node000023" class="node">
<title>Node23</title>
<g id="a_Node000023"><a xlink:href="partitions_8h.html" target="_top" xlink:title=" ">
<polygon fill="white" stroke="#666666" points="916,-503 770,-503 770,-462 916,-462 916,-503"/>
<text text-anchor="start" x="778" y="-491" font-family="Helvetica,sans-Serif" font-size="10.00">/home/runner/work/realm</text>
<text text-anchor="start" x="778" y="-480" font-family="Helvetica,sans-Serif" font-size="10.00">/realm/realm&#45;src/src/realm</text>
<text text-anchor="middle" x="843" y="-469" font-family="Helvetica,sans-Serif" font-size="10.00">/deppart/partitions.h</text>
</a>
</g>
</g>
<!-- Node22&#45;&gt;Node23 -->
<g id="edge40_Node000022_Node000023" class="edge">
<title>Node22&#45;&gt;Node23</title>
<g id="a_edge40_Node000022_Node000023"><a xlink:title=" ">
<path fill="none" stroke="#63b8ff" d="M992.57,-535.67C962.69,-525.25 927.66,-513.03 899.02,-503.04"/>
<polygon fill="#63b8ff" stroke="#63b8ff" points="991.48,-539 1002.07,-538.99 993.78,-532.39 991.48,-539"/>
</a>
</g>
</g>
<!-- Node28 -->
<g id="Node000028" class="node">
<title>Node28</title>
<g id="a_Node000028"><a xlink:href="tasks_8h.html" target="_top" xlink:title=" ">
<polygon fill="white" stroke="#666666" points="146,-195 0,-195 0,-154 146,-154 146,-195"/>
<text text-anchor="start" x="8" y="-183" font-family="Helvetica,sans-Serif" font-size="10.00">/home/runner/work/realm</text>
<text text-anchor="start" x="8" y="-172" font-family="Helvetica,sans-Serif" font-size="10.00">/realm/realm&#45;src/src/realm</text>
<text text-anchor="middle" x="73" y="-161" font-family="Helvetica,sans-Serif" font-size="10.00">/tasks.h</text>
</a>
</g>
</g>
<!-- Node22&#45;&gt;Node28 -->
<g id="edge50_Node000022_Node000028" class="edge">
<title>Node22&#45;&gt;Node28</title>
<g id="a_edge50_Node000022_Node000028"><a xlink:title=" ">
<path fill="none" stroke="#63b8ff" d="M974.39,-557.51C777.62,-554.51 297.33,-543.13 237,-503 125.29,-428.69 86.32,-254.39 76.07,-195.41"/>
<polygon fill="#63b8ff" stroke="#63b8ff" points="974.62,-561.01 984.67,-557.66 974.72,-554.01 974.62,-561.01"/>
</a>
</g>
</g>
<!-- Node23&#45;&gt;Node3 -->
<g id="edge45_Node000023_Node000003" class="edge">
<title>Node23&#45;&gt;Node3</title>
<g id="a_edge45_Node000023_Node000003"><a xlink:title=" ">
<path fill="none" stroke="#63b8ff" d="M926.01,-473.53C956.57,-466.1 988.27,-452.12 1007,-426 1058.73,-353.88 1002.1,-240.59 975.38,-195.23"/>
<polygon fill="#63b8ff" stroke="#63b8ff" points="925.15,-470.13 916.14,-475.72 926.67,-476.97 925.15,-470.13"/>
</a>
</g>
</g>
<!-- Node24 -->
<g id="Node000024" class="node">
<title>Node24</title>
<g id="a_Node000024"><a xlink:href="byfield_8h.html" target="_top" xlink:title=" ">
<polygon fill="white" stroke="#666666" points="506,-426 360,-426 360,-385 506,-385 506,-426"/>
<text text-anchor="start" x="368" y="-414" font-family="Helvetica,sans-Serif" font-size="10.00">/home/runner/work/realm</text>
<text text-anchor="start" x="368" y="-403" font-family="Helvetica,sans-Serif" font-size="10.00">/realm/realm&#45;src/src/realm</text>
<text text-anchor="middle" x="433" y="-392" font-family="Helvetica,sans-Serif" font-size="10.00">/deppart/byfield.h</text>
</a>
</g>
</g>
<!-- Node23&#45;&gt;Node24 -->
<g id="edge41_Node000023_Node000024" class="edge">
<title>Node23&#45;&gt;Node24</title>
<g id="a_edge41_Node000023_Node000024"><a xlink:title=" ">
<path fill="none" stroke="#63b8ff" d="M759.79,-468.97C693.32,-458.59 597.9,-442.85 515,-426 512.13,-425.42 509.21,-424.81 506.26,-424.18"/>
<polygon fill="#63b8ff" stroke="#63b8ff" points="759.37,-472.45 769.79,-470.53 760.45,-465.53 759.37,-472.45"/>
</a>
</g>
</g>
<!-- Node25 -->
<g id="Node000025" class="node">
<title>Node25</title>
<g id="a_Node000025"><a xlink:href="image_8h.html" target="_top" xlink:title=" ">
<polygon fill="white" stroke="#666666" points="670,-426 524,-426 524,-385 670,-385 670,-426"/>
<text text-anchor="start" x="532" y="-414" font-family="Helvetica,sans-Serif" font-size="10.00">/home/runner/work/realm</text>
<text text-anchor="start" x="532" y="-403" font-family="Helvetica,sans-Serif" font-size="10.00">/realm/realm&#45;src/src/realm</text>
<text text-anchor="middle" x="597" y="-392" font-family="Helvetica,sans-Serif" font-size="10.00">/deppart/image.h</text>
</a>
</g>
</g>
<!-- Node23&#45;&gt;Node25 -->
<g id="edge42_Node000023_Node000025" class="edge">
<title>Node23&#45;&gt;Node25</title>
<g id="a_edge42_Node000023_Node000025"><a xlink:title=" ">
<path fill="none" stroke="#63b8ff" d="M769.02,-458.94C734.64,-448.46 694.15,-436.12 661.1,-426.04"/>
<polygon fill="#63b8ff" stroke="#63b8ff" points="768.42,-462.42 779.01,-461.99 770.46,-455.73 768.42,-462.42"/>
</a>
</g>
</g>
<!-- Node26 -->
<g id="Node000026" class="node">
<title>Node26</title>
<g id="a_Node000026"><a xlink:href="preimage_8h.html" target="_top" xlink:title=" ">
<polygon fill="white" stroke="#666666" points="834,-426 688,-426 688,-385 834,-385 834,-426"/>
<text text-anchor="start" x="696" y="-414" font-family="Helvetica,sans-Serif" font-size="10.00">/home/runner/work/realm</text>
<text text-anchor="start" x="696" y="-403" font-family="Helvetica,sans-Serif" font-size="10.00">/realm/realm&#45;src/src/realm</text>
<text text-anchor="middle" x="761" y="-392" font-family="Helvetica,sans-Serif" font-size="10.00">/deppart/preimage.h</text>
</a>
</g>
</g>
<!-- Node23&#45;&gt;Node26 -->
<g id="edge43_Node000023_Node000026" class="edge">
<title>Node23&#45;&gt;Node26</title>
<g id="a_edge43_Node000023_Node000026"><a xlink:title=" ">
<path fill="none" stroke="#63b8ff" d="M813.8,-454.79C803.44,-445.32 791.99,-434.84 782.4,-426.07"/>
<polygon fill="#63b8ff" stroke="#63b8ff" points="811.71,-457.63 821.46,-461.79 816.44,-452.46 811.71,-457.63"/>
</a>
</g>
</g>
<!-- Node27 -->
<g id="Node000027" class="node">
<title>Node27</title>
<g id="a_Node000027"><a xlink:href="setops_8h.html" target="_top" xlink:title=" ">
<polygon fill="white" stroke="#666666" points="998,-426 852,-426 852,-385 998,-385 998,-426"/>
<text text-anchor="start" x="860" y="-414" font-family="Helvetica,sans-Serif" font-size="10.00">/home/runner/work/realm</text>
<text text-anchor="start" x="860" y="-403" font-family="Helvetica,sans-Serif" font-size="10.00">/realm/realm&#45;src/src/realm</text>
<text text-anchor="middle" x="925" y="-392" font-family="Helvetica,sans-Serif" font-size="10.00">/deppart/setops.h</text>
</a>
</g>
</g>
<!-- Node23&#45;&gt;Node27 -->
<g id="edge44_Node000023_Node000027" class="edge">
<title>Node23&#45;&gt;Node27</title>
<g id="a_edge44_Node000023_Node000027"><a xlink:title=" ">
<path fill="none" stroke="#63b8ff" d="M872.2,-454.79C882.56,-445.32 894.01,-434.84 903.6,-426.07"/>
<polygon fill="#63b8ff" stroke="#63b8ff" points="869.56,-452.46 864.54,-461.79 874.29,-457.63 869.56,-452.46"/>
</a>
</g>
</g>
<!-- Node28&#45;&gt;Node4 -->
<g id="edge52_Node000028_Node000004" class="edge">
<title>Node28&#45;&gt;Node4</title>
<g id="a_edge52_Node000028_Node000004"><a xlink:title=" ">
<path fill="none" stroke="#63b8ff" d="M156.65,-154.5C157.77,-154.33 158.89,-154.16 160,-154 446.63,-112.81 791.87,-102.17 939.86,-99.43"/>
<polygon fill="#63b8ff" stroke="#63b8ff" points="155.71,-151.11 146.42,-156.2 156.86,-158.01 155.71,-151.11"/>
</a>
</g>
</g>
<!-- Node28&#45;&gt;Node8 -->
<g id="edge51_Node000028_Node000008" class="edge">
<title>Node28&#45;&gt;Node8</title>
<g id="a_edge51_Node000028_Node000008"><a xlink:title=" ">
<path fill="none" stroke="#63b8ff" d="M148.34,-151.04C248.12,-121.31 422.49,-69.34 517.22,-41.11"/>
<polygon fill="#63b8ff" stroke="#63b8ff" points="147.21,-147.73 138.63,-153.94 149.21,-154.44 147.21,-147.73"/>
</a>
</g>
</g>
<!-- Node29&#45;&gt;Node3 -->
<g id="edge59_Node000029_Node000003" class="edge">
<title>Node29&#45;&gt;Node3</title>
<g id="a_edge59_Node000029_Node000003"><a xlink:title=" ">
<path fill="none" stroke="#63b8ff" d="M1199.47,-530.72C1178.89,-504.62 1148.36,-464 1126,-426 1077.5,-343.57 1094.79,-305.64 1035,-231 1023.85,-217.08 1008.52,-204.64 994.86,-195.08"/>
<polygon fill="#63b8ff" stroke="#63b8ff" points="1196.82,-533.01 1205.78,-538.67 1202.3,-528.66 1196.82,-533.01"/>
</a>
</g>
</g>
<!-- Node29&#45;&gt;Node4 -->
<g id="edge58_Node000029_Node000004" class="edge">
<title>Node29&#45;&gt;Node4</title>
<g id="a_edge58_Node000029_Node000004"><a xlink:title=" ">
<path fill="none" stroke="#63b8ff" d="M1208.89,-529.65C1185.73,-477.66 1140,-369.87 1140,-329.5 1140,-329.5 1140,-329.5 1140,-250.5 1140,-191.7 1083.33,-143.63 1045.71,-118.2"/>
<polygon fill="#63b8ff" stroke="#63b8ff" points="1205.79,-531.28 1213.07,-538.98 1212.17,-528.42 1205.79,-531.28"/>
</a>
</g>
</g>
<!-- Node29&#45;&gt;Node13 -->
<g id="edge56_Node000029_Node000013" class="edge">
<title>Node29&#45;&gt;Node13</title>
<g id="a_edge56_Node000029_Node000013"><a xlink:title=" ">
<path fill="none" stroke="#63b8ff" d="M1245.79,-531.32C1272.14,-501.19 1314.03,-453.33 1337.53,-426.47"/>
<polygon fill="#63b8ff" stroke="#63b8ff" points="1243.07,-529.11 1239.12,-538.94 1248.33,-533.72 1243.07,-529.11"/>
</a>
</g>
</g>
<!-- Node29&#45;&gt;Node19 -->
<g id="edge57_Node000029_Node000019" class="edge">
<title>Node29&#45;&gt;Node19</title>
<g id="a_edge57_Node000029_Node000019"><a xlink:title=" ">
<path fill="none" stroke="#63b8ff" d="M1305.26,-547.08C1411.73,-532.49 1594.41,-507.44 1695.79,-493.54"/>
<polygon fill="#63b8ff" stroke="#63b8ff" points="1304.64,-543.64 1295.2,-548.46 1305.59,-550.57 1304.64,-543.64"/>
</a>
</g>
</g>
<!-- Node30&#45;&gt;Node3 -->
<g id="edge62_Node000030_Node000003" class="edge">
<title>Node30&#45;&gt;Node3</title>
<g id="a_edge62_Node000030_Node000003"><a xlink:title=" ">
<path fill="none" stroke="#63b8ff" d="M246.34,-529.89C242.51,-521.47 238.95,-512.08 237,-503 233.17,-485.18 232.11,-479.55 237,-462 258.45,-384.98 269.57,-360.35 330,-308 396.38,-250.49 427.15,-253.69 512,-231 642.32,-196.14 799.77,-183.09 889.96,-178.26"/>
<polygon fill="#63b8ff" stroke="#63b8ff" points="243.2,-531.43 250.72,-538.91 249.5,-528.38 243.2,-531.43"/>
</a>
</g>
</g>
</g>
</svg>
