<?xml version="1.0" encoding="UTF-8" standalone="no"?>
<!DOCTYPE svg PUBLIC "-//W3C//DTD SVG 1.1//EN"
 "http://www.w3.org/Graphics/SVG/1.1/DTD/svg11.dtd">
<!-- Generated by graphviz version 2.43.0 (0)
 -->
<!-- Title: /home/runner/work/realm/realm/realm&#45;src/src/realm/faults.h Pages: 1 -->
<svg width="945pt" height="324pt"
 viewBox="0.00 0.00 945.31 324.00" xmlns="http://www.w3.org/2000/svg" xmlns:xlink="http://www.w3.org/1999/xlink">
<g id="graph0" class="graph" transform="scale(1 1) rotate(0) translate(4 320)">
<title>/home/runner/work/realm/realm/realm&#45;src/src/realm/faults.h</title>
<!-- Node1 -->
<g id="Node000001" class="node">
<title>Node1</title>
<g id="a_Node000001"><a xlink:title=" ">
<polygon fill="#999999" stroke="#666666" points="525.07,-316 379.07,-316 379.07,-275 525.07,-275 525.07,-316"/>
<text text-anchor="start" x="387.07" y="-304" font-family="Helvetica,sans-Serif" font-size="10.00">/home/runner/work/realm</text>
<text text-anchor="start" x="387.07" y="-293" font-family="Helvetica,sans-Serif" font-size="10.00">/realm/realm&#45;src/src/realm</text>
<text text-anchor="middle" x="452.07" y="-282" font-family="Helvetica,sans-Serif" font-size="10.00">/faults.h</text>
</a>
</g>
</g>
<!-- Node2 -->
<g id="Node000002" class="node">
<title>Node2</title>
<g id="a_Node000002"><a xlink:href="bytearray_8h.html" target="_top" xlink:title=" ">
<polygon fill="white" stroke="#666666" points="118.57,-239 15.57,-239 15.57,-220 118.57,-220 118.57,-239"/>
<text text-anchor="middle" x="67.07" y="-227" font-family="Helvetica,sans-Serif" font-size="10.00">realm/bytearray.h</text>
</a>
</g>
</g>
<!-- Node1&#45;&gt;Node2 -->
<g id="edge1_Node000001_Node000002" class="edge">
<title>Node1&#45;&gt;Node2</title>
<g id="a_edge1_Node000001_Node000002"><a xlink:title=" ">
<path fill="none" stroke="#63b8ff" d="M378.75,-282.31C306.22,-270.25 196.48,-252.01 128.43,-240.7"/>
<polygon fill="#63b8ff" stroke="#63b8ff" points="128.72,-237.2 118.29,-239.01 127.58,-244.11 128.72,-237.2"/>
</a>
</g>
</g>
<!-- Node5 -->
<g id="Node000005" class="node">
<title>Node5</title>
<g id="a_Node000005"><a xlink:href="event_8h.html" target="_top" xlink:title=" ">
<polygon fill="white" stroke="#666666" points="494.57,-239 409.57,-239 409.57,-220 494.57,-220 494.57,-239"/>
<text text-anchor="middle" x="452.07" y="-227" font-family="Helvetica,sans-Serif" font-size="10.00">realm/event.h</text>
</a>
</g>
</g>
<!-- Node1&#45;&gt;Node5 -->
<g id="edge4_Node000001_Node000005" class="edge">
<title>Node1&#45;&gt;Node5</title>
<g id="a_edge4_Node000001_Node000005"><a xlink:title=" ">
<path fill="none" stroke="#63b8ff" d="M452.07,-274.95C452.07,-266.85 452.07,-257.5 452.07,-249.47"/>
<polygon fill="#63b8ff" stroke="#63b8ff" points="455.57,-249.26 452.07,-239.26 448.57,-249.26 455.57,-249.26"/>
</a>
</g>
</g>
<!-- Node10 -->
<g id="Node000010" class="node">
<title>Node10</title>
<g id="a_Node000010"><a xlink:title=" ">
<polygon fill="#e0e0e0" stroke="#999999" points="761.57,-74 708.57,-74 708.57,-55 761.57,-55 761.57,-74"/>
<text text-anchor="middle" x="735.07" y="-62" font-family="Helvetica,sans-Serif" font-size="10.00">stdint.h</text>
</a>
</g>
</g>
<!-- Node1&#45;&gt;Node10 -->
<g id="edge31_Node000001_Node000010" class="edge">
<title>Node1&#45;&gt;Node10</title>
<g id="a_edge31_Node000001_Node000010"><a xlink:title=" ">
<path fill="none" stroke="#63b8ff" d="M525.46,-293.91C635.13,-288.57 838.64,-260.36 930.07,-129 969.26,-72.69 838.98,-65.17 772.14,-64.9"/>
<polygon fill="#63b8ff" stroke="#63b8ff" points="771.99,-61.4 761.99,-64.91 772,-68.4 771.99,-61.4"/>
</a>
</g>
</g>
<!-- Node14 -->
<g id="Node000014" class="node">
<title>Node14</title>
<g id="a_Node000014"><a xlink:title=" ">
<polygon fill="#e0e0e0" stroke="#999999" points="921.57,-129 874.57,-129 874.57,-110 921.57,-110 921.57,-129"/>
<text text-anchor="middle" x="898.07" y="-117" font-family="Helvetica,sans-Serif" font-size="10.00">vector</text>
</a>
</g>
</g>
<!-- Node1&#45;&gt;Node14 -->
<g id="edge29_Node000001_Node000014" class="edge">
<title>Node1&#45;&gt;Node14</title>
<g id="a_edge29_Node000001_Node000014"><a xlink:title=" ">
<path fill="none" stroke="#63b8ff" d="M502.37,-274.88C595.03,-238.73 790.19,-162.59 866.52,-132.81"/>
<polygon fill="#63b8ff" stroke="#63b8ff" points="868.02,-135.98 876.06,-129.09 865.48,-129.46 868.02,-135.98"/>
</a>
</g>
</g>
<!-- Node21 -->
<g id="Node000021" class="node">
<title>Node21</title>
<g id="a_Node000021"><a xlink:title=" ">
<polygon fill="#e0e0e0" stroke="#999999" points="158.07,-129 98.07,-129 98.07,-110 158.07,-110 158.07,-129"/>
<text text-anchor="middle" x="128.07" y="-117" font-family="Helvetica,sans-Serif" font-size="10.00">iostream</text>
</a>
</g>
</g>
<!-- Node1&#45;&gt;Node21 -->
<g id="edge30_Node000001_Node000021" class="edge">
<title>Node1&#45;&gt;Node21</title>
<g id="a_edge30_Node000001_Node000021"><a xlink:title=" ">
<path fill="none" stroke="#63b8ff" d="M378.82,-279.25C317.55,-263.58 230.55,-234.21 169.07,-184 154.02,-171.71 142.67,-152.39 135.76,-138.29"/>
<polygon fill="#63b8ff" stroke="#63b8ff" points="138.9,-136.74 131.54,-129.12 132.54,-139.67 138.9,-136.74"/>
</a>
</g>
</g>
<!-- Node3 -->
<g id="Node000003" class="node">
<title>Node3</title>
<g id="a_Node000003"><a xlink:title=" ">
<polygon fill="#e0e0e0" stroke="#999999" points="214.07,-74 158.07,-74 158.07,-55 214.07,-55 214.07,-74"/>
<text text-anchor="middle" x="186.07" y="-62" font-family="Helvetica,sans-Serif" font-size="10.00">stddef.h</text>
</a>
</g>
</g>
<!-- Node2&#45;&gt;Node3 -->
<g id="edge2_Node000002_Node000003" class="edge">
<title>Node2&#45;&gt;Node3</title>
<g id="a_edge2_Node000002_Node000003"><a xlink:title=" ">
<path fill="none" stroke="#63b8ff" d="M46.34,-219.91C23.09,-208.92 -9.78,-188.48 3.07,-165 32.63,-111 103.81,-84.82 148.17,-73.34"/>
<polygon fill="#63b8ff" stroke="#63b8ff" points="149.14,-76.7 158.02,-70.92 147.47,-69.9 149.14,-76.7"/>
</a>
</g>
</g>
<!-- Node4 -->
<g id="Node000004" class="node">
<title>Node4</title>
<g id="a_Node000004"><a xlink:title=" ">
<polygon fill="#e0e0e0" stroke="#999999" points="121.57,-184 12.57,-184 12.57,-165 121.57,-165 121.57,-184"/>
<text text-anchor="middle" x="67.07" y="-172" font-family="Helvetica,sans-Serif" font-size="10.00">realm/bytearray.inl</text>
</a>
</g>
</g>
<!-- Node2&#45;&gt;Node4 -->
<g id="edge3_Node000002_Node000004" class="edge">
<title>Node2&#45;&gt;Node4</title>
<g id="a_edge3_Node000002_Node000004"><a xlink:title=" ">
<path fill="none" stroke="#63b8ff" d="M67.07,-219.75C67.07,-212.8 67.07,-202.85 67.07,-194.13"/>
<polygon fill="#63b8ff" stroke="#63b8ff" points="70.57,-194.09 67.07,-184.09 63.57,-194.09 70.57,-194.09"/>
</a>
</g>
</g>
<!-- Node6 -->
<g id="Node000006" class="node">
<title>Node6</title>
<g id="a_Node000006"><a xlink:href="realm__c_8h.html" target="_top" xlink:title=" ">
<polygon fill="white" stroke="#666666" points="310.07,-129 214.07,-129 214.07,-110 310.07,-110 310.07,-129"/>
<text text-anchor="middle" x="262.07" y="-117" font-family="Helvetica,sans-Serif" font-size="10.00">realm/realm_c.h</text>
</a>
</g>
</g>
<!-- Node5&#45;&gt;Node6 -->
<g id="edge5_Node000005_Node000006" class="edge">
<title>Node5&#45;&gt;Node6</title>
<g id="a_edge5_Node000005_Node000006"><a xlink:title=" ">
<path fill="none" stroke="#63b8ff" d="M451.87,-219.74C451.07,-206.05 447.47,-179.66 432.07,-165 415.96,-149.66 363.05,-137.36 320.49,-129.61"/>
<polygon fill="#63b8ff" stroke="#63b8ff" points="320.94,-126.14 310.48,-127.84 319.71,-133.03 320.94,-126.14"/>
</a>
</g>
</g>
<!-- Node11 -->
<g id="Node000011" class="node">
<title>Node11</title>
<g id="a_Node000011"><a xlink:href="utils_8h.html" target="_top" xlink:title=" ">
<polygon fill="white" stroke="#666666" points="579.07,-184 501.07,-184 501.07,-165 579.07,-165 579.07,-184"/>
<text text-anchor="middle" x="540.07" y="-172" font-family="Helvetica,sans-Serif" font-size="10.00">realm/utils.h</text>
</a>
</g>
</g>
<!-- Node5&#45;&gt;Node11 -->
<g id="edge11_Node000005_Node000011" class="edge">
<title>Node5&#45;&gt;Node11</title>
<g id="a_edge11_Node000005_Node000011"><a xlink:title=" ">
<path fill="none" stroke="#63b8ff" d="M466.21,-219.98C479.86,-211.77 500.76,-199.18 516.85,-189.49"/>
<polygon fill="#63b8ff" stroke="#63b8ff" points="518.91,-192.33 525.67,-184.17 515.3,-186.33 518.91,-192.33"/>
</a>
</g>
</g>
<!-- Node5&#45;&gt;Node14 -->
<g id="edge25_Node000005_Node000014" class="edge">
<title>Node5&#45;&gt;Node14</title>
<g id="a_edge25_Node000005_Node000014"><a xlink:title=" ">
<path fill="none" stroke="#63b8ff" d="M482.51,-219.94C510.38,-211.78 552.57,-198.59 588.07,-184 605.54,-176.82 608.07,-170.7 626.07,-165 725.48,-133.53 757.91,-149.42 864.49,-128.88"/>
<polygon fill="#63b8ff" stroke="#63b8ff" points="865.22,-132.31 874.34,-126.92 863.85,-125.44 865.22,-132.31"/>
</a>
</g>
</g>
<!-- Node20 -->
<g id="Node000020" class="node">
<title>Node20</title>
<g id="a_Node000020"><a xlink:href="memory_8h.html" target="_top" xlink:title=" ">
<polygon fill="white" stroke="#666666" points="423.57,-184 326.57,-184 326.57,-165 423.57,-165 423.57,-184"/>
<text text-anchor="middle" x="375.07" y="-172" font-family="Helvetica,sans-Serif" font-size="10.00">realm/memory.h</text>
</a>
</g>
</g>
<!-- Node5&#45;&gt;Node20 -->
<g id="edge21_Node000005_Node000020" class="edge">
<title>Node5&#45;&gt;Node20</title>
<g id="a_edge21_Node000005_Node000020"><a xlink:title=" ">
<path fill="none" stroke="#63b8ff" d="M439.7,-219.98C427.98,-211.92 410.15,-199.65 396.18,-190.03"/>
<polygon fill="#63b8ff" stroke="#63b8ff" points="397.89,-186.96 387.67,-184.17 393.92,-192.72 397.89,-186.96"/>
</a>
</g>
</g>
<!-- Node5&#45;&gt;Node21 -->
<g id="edge27_Node000005_Node000021" class="edge">
<title>Node5&#45;&gt;Node21</title>
<g id="a_edge27_Node000005_Node000021"><a xlink:title=" ">
<path fill="none" stroke="#63b8ff" d="M422.43,-219.99C394.79,-211.76 352.62,-198.44 317.07,-184 299.21,-176.74 296.04,-171.99 278.07,-165 241.56,-150.8 198.59,-138.48 168.02,-130.43"/>
<polygon fill="#63b8ff" stroke="#63b8ff" points="168.71,-126.99 158.16,-127.86 166.95,-133.77 168.71,-126.99"/>
</a>
</g>
</g>
<!-- Node22 -->
<g id="Node000022" class="node">
<title>Node22</title>
<g id="a_Node000022"><a xlink:title=" ">
<polygon fill="#e0e0e0" stroke="#999999" points="667.07,-184 635.07,-184 635.07,-165 667.07,-165 667.07,-184"/>
<text text-anchor="middle" x="651.07" y="-172" font-family="Helvetica,sans-Serif" font-size="10.00">set</text>
</a>
</g>
</g>
<!-- Node5&#45;&gt;Node22 -->
<g id="edge26_Node000005_Node000022" class="edge">
<title>Node5&#45;&gt;Node22</title>
<g id="a_edge26_Node000005_Node000022"><a xlink:title=" ">
<path fill="none" stroke="#63b8ff" d="M485.15,-219.98C519.26,-211.16 573.95,-196.88 621.07,-184 622.33,-183.65 623.63,-183.3 624.93,-182.94"/>
<polygon fill="#63b8ff" stroke="#63b8ff" points="626.21,-186.21 634.89,-180.14 624.32,-179.47 626.21,-186.21"/>
</a>
</g>
</g>
<!-- Node23 -->
<g id="Node000023" class="node">
<title>Node23</title>
<g id="a_Node000023"><a xlink:title=" ">
<polygon fill="#e0e0e0" stroke="#999999" points="269.57,-184 178.57,-184 178.57,-165 269.57,-165 269.57,-184"/>
<text text-anchor="middle" x="224.07" y="-172" font-family="Helvetica,sans-Serif" font-size="10.00">realm/event.inl</text>
</a>
</g>
</g>
<!-- Node5&#45;&gt;Node23 -->
<g id="edge28_Node000005_Node000023" class="edge">
<title>Node5&#45;&gt;Node23</title>
<g id="a_edge28_Node000005_Node000023"><a xlink:title=" ">
<path fill="none" stroke="#63b8ff" d="M415.44,-219.98C376.17,-210.86 313.7,-196.33 270.89,-186.38"/>
<polygon fill="#63b8ff" stroke="#63b8ff" points="271.52,-182.94 260.99,-184.08 269.94,-189.76 271.52,-182.94"/>
</a>
</g>
</g>
<!-- Node6&#45;&gt;Node3 -->
<g id="edge9_Node000006_Node000003" class="edge">
<title>Node6&#45;&gt;Node3</title>
<g id="a_edge9_Node000006_Node000003"><a xlink:title=" ">
<path fill="none" stroke="#63b8ff" d="M249.86,-109.98C238.29,-101.92 220.7,-89.65 206.91,-80.03"/>
<polygon fill="#63b8ff" stroke="#63b8ff" points="208.71,-77.02 198.5,-74.17 204.7,-82.76 208.71,-77.02"/>
</a>
</g>
</g>
<!-- Node7 -->
<g id="Node000007" class="node">
<title>Node7</title>
<g id="a_Node000007"><a xlink:href="realm__config_8h.html" target="_top" xlink:title=" ">
<polygon fill="white" stroke="#666666" points="476.07,-74 356.07,-74 356.07,-55 476.07,-55 476.07,-74"/>
<text text-anchor="middle" x="416.07" y="-62" font-family="Helvetica,sans-Serif" font-size="10.00">realm/realm_config.h</text>
</a>
</g>
</g>
<!-- Node6&#45;&gt;Node7 -->
<g id="edge6_Node000006_Node000007" class="edge">
<title>Node6&#45;&gt;Node7</title>
<g id="a_edge6_Node000006_Node000007"><a xlink:title=" ">
<path fill="none" stroke="#63b8ff" d="M286.81,-109.98C312.44,-101.16 352.7,-87.31 381.48,-77.41"/>
<polygon fill="#63b8ff" stroke="#63b8ff" points="382.82,-80.65 391.13,-74.08 380.54,-74.03 382.82,-80.65"/>
</a>
</g>
</g>
<!-- Node6&#45;&gt;Node10 -->
<g id="edge10_Node000006_Node000010" class="edge">
<title>Node6&#45;&gt;Node10</title>
<g id="a_edge10_Node000006_Node000010"><a xlink:title=" ">
<path fill="none" stroke="#63b8ff" d="M310.25,-111.17C313.23,-110.76 316.19,-110.37 319.07,-110 458.81,-92.11 625.6,-75.79 698.24,-68.92"/>
<polygon fill="#63b8ff" stroke="#63b8ff" points="698.63,-72.4 708.26,-67.98 697.97,-65.43 698.63,-72.4"/>
</a>
</g>
</g>
<!-- Node8 -->
<g id="Node000008" class="node">
<title>Node8</title>
<g id="a_Node000008"><a xlink:href="realm__defines_8h.html" target="_top" xlink:title=" ">
<polygon fill="white" stroke="#666666" points="395.57,-19 300.57,-19 300.57,0 395.57,0 395.57,-19"/>
<text text-anchor="middle" x="348.07" y="-7" font-family="Helvetica,sans-Serif" font-size="10.00">realm_defines.h</text>
</a>
</g>
</g>
<!-- Node7&#45;&gt;Node8 -->
<g id="edge7_Node000007_Node000008" class="edge">
<title>Node7&#45;&gt;Node8</title>
<g id="a_edge7_Node000007_Node000008"><a xlink:title=" ">
<path fill="none" stroke="#63b8ff" d="M405.15,-54.98C394.99,-47.07 379.65,-35.11 367.42,-25.58"/>
<polygon fill="#63b8ff" stroke="#63b8ff" points="369.23,-22.56 359.19,-19.17 364.93,-28.08 369.23,-22.56"/>
</a>
</g>
</g>
<!-- Node9 -->
<g id="Node000009" class="node">
<title>Node9</title>
<g id="a_Node000009"><a xlink:href="compiler__support_8h.html" target="_top" xlink:title=" ">
<polygon fill="white" stroke="#666666" points="556.07,-19 414.07,-19 414.07,0 556.07,0 556.07,-19"/>
<text text-anchor="middle" x="485.07" y="-7" font-family="Helvetica,sans-Serif" font-size="10.00">realm/compiler_support.h</text>
</a>
</g>
</g>
<!-- Node7&#45;&gt;Node9 -->
<g id="edge8_Node000007_Node000009" class="edge">
<title>Node7&#45;&gt;Node9</title>
<g id="a_edge8_Node000007_Node000009"><a xlink:title=" ">
<path fill="none" stroke="#63b8ff" d="M427.16,-54.98C437.56,-47 453.33,-34.88 465.79,-25.31"/>
<polygon fill="#63b8ff" stroke="#63b8ff" points="467.98,-28.04 473.78,-19.17 463.72,-22.49 467.98,-28.04"/>
</a>
</g>
</g>
<!-- Node11&#45;&gt;Node7 -->
<g id="edge12_Node000011_Node000007" class="edge">
<title>Node11&#45;&gt;Node7</title>
<g id="a_edge12_Node000011_Node000007"><a xlink:title=" ">
<path fill="none" stroke="#63b8ff" d="M539.76,-165C538.83,-151.68 535.2,-125.77 521.07,-110 506.95,-94.23 486.3,-83.87 467.05,-77.15"/>
<polygon fill="#63b8ff" stroke="#63b8ff" points="468.04,-73.79 457.45,-74.05 465.89,-80.45 468.04,-73.79"/>
</a>
</g>
</g>
<!-- Node12 -->
<g id="Node000012" class="node">
<title>Node12</title>
<g id="a_Node000012"><a xlink:title=" ">
<polygon fill="#e0e0e0" stroke="#999999" points="856.07,-129 812.07,-129 812.07,-110 856.07,-110 856.07,-129"/>
<text text-anchor="middle" x="834.07" y="-117" font-family="Helvetica,sans-Serif" font-size="10.00">string</text>
</a>
</g>
</g>
<!-- Node11&#45;&gt;Node12 -->
<g id="edge13_Node000011_Node000012" class="edge">
<title>Node11&#45;&gt;Node12</title>
<g id="a_edge13_Node000011_Node000012"><a xlink:title=" ">
<path fill="none" stroke="#63b8ff" d="M579.22,-167.1C641.29,-156.92 758.97,-137.49 801.8,-128.99"/>
<polygon fill="#63b8ff" stroke="#63b8ff" points="802.71,-132.37 811.79,-126.9 801.28,-125.52 802.71,-132.37"/>
</a>
</g>
</g>
<!-- Node13 -->
<g id="Node000013" class="node">
<title>Node13</title>
<g id="a_Node000013"><a xlink:title=" ">
<polygon fill="#e0e0e0" stroke="#999999" points="385.57,-129 328.57,-129 328.57,-110 385.57,-110 385.57,-129"/>
<text text-anchor="middle" x="357.07" y="-117" font-family="Helvetica,sans-Serif" font-size="10.00">ostream</text>
</a>
</g>
</g>
<!-- Node11&#45;&gt;Node13 -->
<g id="edge14_Node000011_Node000013" class="edge">
<title>Node11&#45;&gt;Node13</title>
<g id="a_edge14_Node000011_Node000013"><a xlink:title=" ">
<path fill="none" stroke="#63b8ff" d="M510.67,-164.98C479.4,-155.93 429.82,-141.57 395.49,-131.63"/>
<polygon fill="#63b8ff" stroke="#63b8ff" points="396.38,-128.24 385.8,-128.82 394.43,-134.96 396.38,-128.24"/>
</a>
</g>
</g>
<!-- Node11&#45;&gt;Node14 -->
<g id="edge15_Node000011_Node000014" class="edge">
<title>Node11&#45;&gt;Node14</title>
<g id="a_edge15_Node000011_Node000014"><a xlink:title=" ">
<path fill="none" stroke="#63b8ff" d="M579.13,-167.11C583.82,-166.38 588.55,-165.66 593.07,-165 710.55,-147.81 743.63,-152.01 864.35,-128.91"/>
<polygon fill="#63b8ff" stroke="#63b8ff" points="865.2,-132.31 874.36,-126.97 863.87,-125.44 865.2,-132.31"/>
</a>
</g>
</g>
<!-- Node15 -->
<g id="Node000015" class="node">
<title>Node15</title>
<g id="a_Node000015"><a xlink:title=" ">
<polygon fill="#e0e0e0" stroke="#999999" points="442.07,-129 404.07,-129 404.07,-110 442.07,-110 442.07,-129"/>
<text text-anchor="middle" x="423.07" y="-117" font-family="Helvetica,sans-Serif" font-size="10.00">map</text>
</a>
</g>
</g>
<!-- Node11&#45;&gt;Node15 -->
<g id="edge16_Node000011_Node000015" class="edge">
<title>Node11&#45;&gt;Node15</title>
<g id="a_edge16_Node000011_Node000015"><a xlink:title=" ">
<path fill="none" stroke="#63b8ff" d="M521.27,-164.98C502.45,-156.46 473.25,-143.23 451.57,-133.41"/>
<polygon fill="#63b8ff" stroke="#63b8ff" points="452.76,-130.11 442.21,-129.17 449.88,-136.48 452.76,-130.11"/>
</a>
</g>
</g>
<!-- Node16 -->
<g id="Node000016" class="node">
<title>Node16</title>
<g id="a_Node000016"><a xlink:title=" ">
<polygon fill="#e0e0e0" stroke="#999999" points="512.07,-129 460.07,-129 460.07,-110 512.07,-110 512.07,-129"/>
<text text-anchor="middle" x="486.07" y="-117" font-family="Helvetica,sans-Serif" font-size="10.00">cassert</text>
</a>
</g>
</g>
<!-- Node11&#45;&gt;Node16 -->
<g id="edge17_Node000011_Node000016" class="edge">
<title>Node11&#45;&gt;Node16</title>
<g id="a_edge17_Node000011_Node000016"><a xlink:title=" ">
<path fill="none" stroke="#63b8ff" d="M531.15,-164.75C523.29,-157.03 511.64,-145.6 502.15,-136.28"/>
<polygon fill="#63b8ff" stroke="#63b8ff" points="504.41,-133.6 494.82,-129.09 499.51,-138.59 504.41,-133.6"/>
</a>
</g>
</g>
<!-- Node17 -->
<g id="Node000017" class="node">
<title>Node17</title>
<g id="a_Node000017"><a xlink:title=" ">
<polygon fill="#e0e0e0" stroke="#999999" points="618.07,-129 568.07,-129 568.07,-110 618.07,-110 618.07,-129"/>
<text text-anchor="middle" x="593.07" y="-117" font-family="Helvetica,sans-Serif" font-size="10.00">cstdint</text>
</a>
</g>
</g>
<!-- Node11&#45;&gt;Node17 -->
<g id="edge18_Node000011_Node000017" class="edge">
<title>Node11&#45;&gt;Node17</title>
<g id="a_edge18_Node000011_Node000017"><a xlink:title=" ">
<path fill="none" stroke="#63b8ff" d="M548.82,-164.75C556.54,-157.03 567.98,-145.6 577.29,-136.28"/>
<polygon fill="#63b8ff" stroke="#63b8ff" points="579.89,-138.64 584.48,-129.09 574.94,-133.69 579.89,-138.64"/>
</a>
</g>
</g>
<!-- Node18 -->
<g id="Node000018" class="node">
<title>Node18</title>
<g id="a_Node000018"><a xlink:title=" ">
<polygon fill="#e0e0e0" stroke="#999999" points="692.07,-129 636.07,-129 636.07,-110 692.07,-110 692.07,-129"/>
<text text-anchor="middle" x="664.07" y="-117" font-family="Helvetica,sans-Serif" font-size="10.00">sstream</text>
</a>
</g>
</g>
<!-- Node11&#45;&gt;Node18 -->
<g id="edge19_Node000011_Node000018" class="edge">
<title>Node11&#45;&gt;Node18</title>
<g id="a_edge19_Node000011_Node000018"><a xlink:title=" ">
<path fill="none" stroke="#63b8ff" d="M559.99,-164.98C580.12,-156.38 611.45,-142.99 634.48,-133.15"/>
<polygon fill="#63b8ff" stroke="#63b8ff" points="635.97,-136.32 643.79,-129.17 633.21,-129.88 635.97,-136.32"/>
</a>
</g>
</g>
<!-- Node19 -->
<g id="Node000019" class="node">
<title>Node19</title>
<g id="a_Node000019"><a xlink:title=" ">
<polygon fill="#e0e0e0" stroke="#999999" points="794.07,-129 710.07,-129 710.07,-110 794.07,-110 794.07,-129"/>
<text text-anchor="middle" x="752.07" y="-117" font-family="Helvetica,sans-Serif" font-size="10.00">realm/utils.inl</text>
</a>
</g>
</g>
<!-- Node11&#45;&gt;Node19 -->
<g id="edge20_Node000011_Node000019" class="edge">
<title>Node11&#45;&gt;Node19</title>
<g id="a_edge20_Node000011_Node000019"><a xlink:title=" ">
<path fill="none" stroke="#63b8ff" d="M574.13,-164.98C610.49,-155.89 668.24,-141.46 708.04,-131.51"/>
<polygon fill="#63b8ff" stroke="#63b8ff" points="708.89,-134.9 717.74,-129.08 707.19,-128.11 708.89,-134.9"/>
</a>
</g>
</g>
<!-- Node20&#45;&gt;Node3 -->
<g id="edge23_Node000020_Node000003" class="edge">
<title>Node20&#45;&gt;Node3</title>
<g id="a_edge23_Node000020_Node000003"><a xlink:title=" ">
<path fill="none" stroke="#63b8ff" d="M326.19,-166.15C282.33,-158.61 222.3,-145.64 205.07,-129 193.05,-117.39 188.56,-98.53 186.91,-84.37"/>
<polygon fill="#63b8ff" stroke="#63b8ff" points="190.39,-83.95 186.12,-74.25 183.41,-84.5 190.39,-83.95"/>
</a>
</g>
</g>
<!-- Node20&#45;&gt;Node6 -->
<g id="edge22_Node000020_Node000006" class="edge">
<title>Node20&#45;&gt;Node6</title>
<g id="a_edge22_Node000020_Node000006"><a xlink:title=" ">
<path fill="none" stroke="#63b8ff" d="M356.92,-164.98C338.82,-156.5 310.79,-143.35 289.88,-133.54"/>
<polygon fill="#63b8ff" stroke="#63b8ff" points="291.1,-130.25 280.56,-129.17 288.12,-136.59 291.1,-130.25"/>
</a>
</g>
</g>
<!-- Node20&#45;&gt;Node21 -->
<g id="edge24_Node000020_Node000021" class="edge">
<title>Node20&#45;&gt;Node21</title>
<g id="a_edge24_Node000020_Node000021"><a xlink:title=" ">
<path fill="none" stroke="#63b8ff" d="M335.39,-164.98C289.49,-155.14 214.36,-139.01 168.25,-129.12"/>
<polygon fill="#63b8ff" stroke="#63b8ff" points="168.83,-125.67 158.31,-126.99 167.36,-132.51 168.83,-125.67"/>
</a>
</g>
</g>
</g>
</svg>
