<?xml version="1.0" encoding="UTF-8" standalone="no"?>
<!DOCTYPE svg PUBLIC "-//W3C//DTD SVG 1.1//EN"
 "http://www.w3.org/Graphics/SVG/1.1/DTD/svg11.dtd">
<!-- Generated by graphviz version 2.43.0 (0)
 -->
<!-- Title: /home/runner/work/realm/realm/realm&#45;src/src/realm/faults.h Pages: 1 -->
<svg width="1065pt" height="324pt"
 viewBox="0.00 0.00 1065.19 324.00" xmlns="http://www.w3.org/2000/svg" xmlns:xlink="http://www.w3.org/1999/xlink">
<g id="graph0" class="graph" transform="scale(1 1) rotate(0) translate(4 320)">
<title>/home/runner/work/realm/realm/realm&#45;src/src/realm/faults.h</title>
<!-- Node1 -->
<g id="Node000001" class="node">
<title>Node1</title>
<g id="a_Node000001"><a xlink:title=" ">
<polygon fill="#999999" stroke="#666666" points="465.72,-316 319.72,-316 319.72,-275 465.72,-275 465.72,-316"/>
<text text-anchor="start" x="327.72" y="-304" font-family="Helvetica,sans-Serif" font-size="10.00">/home/runner/work/realm</text>
<text text-anchor="start" x="327.72" y="-293" font-family="Helvetica,sans-Serif" font-size="10.00">/realm/realm&#45;src/src/realm</text>
<text text-anchor="middle" x="392.72" y="-282" font-family="Helvetica,sans-Serif" font-size="10.00">/faults.h</text>
</a>
</g>
</g>
<!-- Node2 -->
<g id="Node000002" class="node">
<title>Node2</title>
<g id="a_Node000002"><a xlink:href="bytearray_8h.html" target="_top" xlink:title=" ">
<polygon fill="white" stroke="#666666" points="119.22,-239 16.22,-239 16.22,-220 119.22,-220 119.22,-239"/>
<text text-anchor="middle" x="67.72" y="-227" font-family="Helvetica,sans-Serif" font-size="10.00">realm/bytearray.h</text>
</a>
</g>
</g>
<!-- Node1&#45;&gt;Node2 -->
<g id="edge1_Node000001_Node000002" class="edge">
<title>Node1&#45;&gt;Node2</title>
<g id="a_edge1_Node000001_Node000002"><a xlink:title=" ">
<path fill="none" stroke="#63b8ff" d="M319.37,-280.06C259.05,-268.18 174.97,-251.62 120.94,-240.98"/>
<polygon fill="#63b8ff" stroke="#63b8ff" points="121.37,-237.5 110.88,-239 120.02,-244.37 121.37,-237.5"/>
</a>
</g>
</g>
<!-- Node5 -->
<g id="Node000005" class="node">
<title>Node5</title>
<g id="a_Node000005"><a xlink:href="event_8h.html" target="_top" xlink:title=" ">
<polygon fill="white" stroke="#666666" points="435.22,-239 350.22,-239 350.22,-220 435.22,-220 435.22,-239"/>
<text text-anchor="middle" x="392.72" y="-227" font-family="Helvetica,sans-Serif" font-size="10.00">realm/event.h</text>
</a>
</g>
</g>
<!-- Node1&#45;&gt;Node5 -->
<g id="edge4_Node000001_Node000005" class="edge">
<title>Node1&#45;&gt;Node5</title>
<g id="a_edge4_Node000001_Node000005"><a xlink:title=" ">
<path fill="none" stroke="#63b8ff" d="M392.72,-274.95C392.72,-266.85 392.72,-257.5 392.72,-249.47"/>
<polygon fill="#63b8ff" stroke="#63b8ff" points="396.22,-249.26 392.72,-239.26 389.22,-249.26 396.22,-249.26"/>
</a>
</g>
</g>
<!-- Node10 -->
<g id="Node000010" class="node">
<title>Node10</title>
<g id="a_Node000010"><a xlink:title=" ">
<polygon fill="#e0e0e0" stroke="#999999" points="874.22,-74 821.22,-74 821.22,-55 874.22,-55 874.22,-74"/>
<text text-anchor="middle" x="847.72" y="-62" font-family="Helvetica,sans-Serif" font-size="10.00">stdint.h</text>
</a>
</g>
</g>
<!-- Node1&#45;&gt;Node10 -->
<g id="edge32_Node000001_Node000010" class="edge">
<title>Node1&#45;&gt;Node10</title>
<g id="a_edge32_Node000001_Node000010"><a xlink:title=" ">
<path fill="none" stroke="#63b8ff" d="M466,-287.15C621.68,-269.88 977.03,-221.02 1048.72,-129 1092.46,-72.85 953.69,-65.37 884.5,-65.01"/>
<polygon fill="#63b8ff" stroke="#63b8ff" points="884.43,-61.51 874.43,-65.01 884.43,-68.51 884.43,-61.51"/>
</a>
</g>
</g>
<!-- Node14 -->
<g id="Node000014" class="node">
<title>Node14</title>
<g id="a_Node000014"><a xlink:title=" ">
<polygon fill="#e0e0e0" stroke="#999999" points="494.22,-129 447.22,-129 447.22,-110 494.22,-110 494.22,-129"/>
<text text-anchor="middle" x="470.72" y="-117" font-family="Helvetica,sans-Serif" font-size="10.00">vector</text>
</a>
</g>
</g>
<!-- Node1&#45;&gt;Node14 -->
<g id="edge30_Node000001_Node000014" class="edge">
<title>Node1&#45;&gt;Node14</title>
<g id="a_edge30_Node000001_Node000014"><a xlink:title=" ">
<path fill="none" stroke="#63b8ff" d="M435.93,-274.98C470.27,-256.84 515.88,-226.25 536.72,-184 547.12,-162.91 523.48,-145 501.66,-133.63"/>
<polygon fill="#63b8ff" stroke="#63b8ff" points="503.04,-130.41 492.52,-129.17 499.97,-136.7 503.04,-130.41"/>
</a>
</g>
</g>
<!-- Node21 -->
<g id="Node000021" class="node">
<title>Node21</title>
<g id="a_Node000021"><a xlink:title=" ">
<polygon fill="#e0e0e0" stroke="#999999" points="192.72,-129 132.72,-129 132.72,-110 192.72,-110 192.72,-129"/>
<text text-anchor="middle" x="162.72" y="-117" font-family="Helvetica,sans-Serif" font-size="10.00">iostream</text>
</a>
</g>
</g>
<!-- Node1&#45;&gt;Node21 -->
<g id="edge31_Node000001_Node000021" class="edge">
<title>Node1&#45;&gt;Node21</title>
<g id="a_edge31_Node000001_Node000021"><a xlink:title=" ">
<path fill="none" stroke="#63b8ff" d="M329.14,-274.88C283.19,-257.69 222.74,-228.42 184.72,-184 173.93,-171.4 168.34,-153.21 165.5,-139.52"/>
<polygon fill="#63b8ff" stroke="#63b8ff" points="168.88,-138.55 163.71,-129.31 161.99,-139.76 168.88,-138.55"/>
</a>
</g>
</g>
<!-- Node3 -->
<g id="Node000003" class="node">
<title>Node3</title>
<g id="a_Node000003"><a xlink:title=" ">
<polygon fill="#e0e0e0" stroke="#999999" points="248.72,-74 192.72,-74 192.72,-55 248.72,-55 248.72,-74"/>
<text text-anchor="middle" x="220.72" y="-62" font-family="Helvetica,sans-Serif" font-size="10.00">stddef.h</text>
</a>
</g>
</g>
<!-- Node2&#45;&gt;Node3 -->
<g id="edge2_Node000002_Node000003" class="edge">
<title>Node2&#45;&gt;Node3</title>
<g id="a_edge2_Node000002_Node000003"><a xlink:title=" ">
<path fill="none" stroke="#63b8ff" d="M47.28,-219.99C23.46,-208.78 -10.91,-187.79 3.72,-165 43.29,-103.32 131.72,-79.38 182.64,-70.47"/>
<polygon fill="#63b8ff" stroke="#63b8ff" points="183.3,-73.9 192.6,-68.83 182.16,-67 183.3,-73.9"/>
</a>
</g>
</g>
<!-- Node4 -->
<g id="Node000004" class="node">
<title>Node4</title>
<g id="a_Node000004"><a xlink:title=" ">
<polygon fill="#e0e0e0" stroke="#999999" points="122.22,-184 13.22,-184 13.22,-165 122.22,-165 122.22,-184"/>
<text text-anchor="middle" x="67.72" y="-172" font-family="Helvetica,sans-Serif" font-size="10.00">realm/bytearray.inl</text>
</a>
</g>
</g>
<!-- Node2&#45;&gt;Node4 -->
<g id="edge3_Node000002_Node000004" class="edge">
<title>Node2&#45;&gt;Node4</title>
<g id="a_edge3_Node000002_Node000004"><a xlink:title=" ">
<path fill="none" stroke="#63b8ff" d="M67.72,-219.75C67.72,-212.8 67.72,-202.85 67.72,-194.13"/>
<polygon fill="#63b8ff" stroke="#63b8ff" points="71.22,-194.09 67.72,-184.09 64.22,-194.09 71.22,-194.09"/>
</a>
</g>
</g>
<!-- Node6 -->
<g id="Node000006" class="node">
<title>Node6</title>
<g id="a_Node000006"><a xlink:href="realm__c_8h.html" target="_top" xlink:title=" ">
<polygon fill="white" stroke="#666666" points="428.72,-129 332.72,-129 332.72,-110 428.72,-110 428.72,-129"/>
<text text-anchor="middle" x="380.72" y="-117" font-family="Helvetica,sans-Serif" font-size="10.00">realm/realm_c.h</text>
</a>
</g>
</g>
<!-- Node5&#45;&gt;Node6 -->
<g id="edge5_Node000005_Node000006" class="edge">
<title>Node5&#45;&gt;Node6</title>
<g id="a_edge5_Node000005_Node000006"><a xlink:title=" ">
<path fill="none" stroke="#63b8ff" d="M391.73,-219.66C389.79,-202.17 385.42,-162.8 382.8,-139.27"/>
<polygon fill="#63b8ff" stroke="#63b8ff" points="386.26,-138.71 381.68,-129.16 379.3,-139.48 386.26,-138.71"/>
</a>
</g>
</g>
<!-- Node11 -->
<g id="Node000011" class="node">
<title>Node11</title>
<g id="a_Node000011"><a xlink:href="utils_8h.html" target="_top" xlink:title=" ">
<polygon fill="white" stroke="#666666" points="718.72,-184 640.72,-184 640.72,-165 718.72,-165 718.72,-184"/>
<text text-anchor="middle" x="679.72" y="-172" font-family="Helvetica,sans-Serif" font-size="10.00">realm/utils.h</text>
</a>
</g>
</g>
<!-- Node5&#45;&gt;Node11 -->
<g id="edge11_Node000005_Node000011" class="edge">
<title>Node5&#45;&gt;Node11</title>
<g id="a_edge11_Node000005_Node000011"><a xlink:title=" ">
<path fill="none" stroke="#63b8ff" d="M435.37,-220.62C487.56,-210.99 575.72,-194.7 630.66,-184.56"/>
<polygon fill="#63b8ff" stroke="#63b8ff" points="631.32,-188 640.52,-182.74 630.05,-181.11 631.32,-188"/>
</a>
</g>
</g>
<!-- Node5&#45;&gt;Node14 -->
<g id="edge26_Node000005_Node000014" class="edge">
<title>Node5&#45;&gt;Node14</title>
<g id="a_edge26_Node000005_Node000014"><a xlink:title=" ">
<path fill="none" stroke="#63b8ff" d="M435.36,-225.99C464.62,-221.79 501.49,-211.04 520.72,-184 533.08,-166.61 513.1,-147.46 494.85,-134.79"/>
<polygon fill="#63b8ff" stroke="#63b8ff" points="496.46,-131.66 486.17,-129.13 492.63,-137.53 496.46,-131.66"/>
</a>
</g>
</g>
<!-- Node20 -->
<g id="Node000020" class="node">
<title>Node20</title>
<g id="a_Node000020"><a xlink:href="memory_8h.html" target="_top" xlink:title=" ">
<polygon fill="white" stroke="#666666" points="314.22,-184 217.22,-184 217.22,-165 314.22,-165 314.22,-184"/>
<text text-anchor="middle" x="265.72" y="-172" font-family="Helvetica,sans-Serif" font-size="10.00">realm/memory.h</text>
</a>
</g>
</g>
<!-- Node5&#45;&gt;Node20 -->
<g id="edge21_Node000005_Node000020" class="edge">
<title>Node5&#45;&gt;Node20</title>
<g id="a_edge21_Node000005_Node000020"><a xlink:title=" ">
<path fill="none" stroke="#63b8ff" d="M372.31,-219.98C351.7,-211.38 319.61,-197.99 296.02,-188.15"/>
<polygon fill="#63b8ff" stroke="#63b8ff" points="297.07,-184.79 286.49,-184.17 294.37,-191.25 297.07,-184.79"/>
</a>
</g>
</g>
<!-- Node5&#45;&gt;Node21 -->
<g id="edge28_Node000005_Node000021" class="edge">
<title>Node5&#45;&gt;Node21</title>
<g id="a_edge28_Node000005_Node000021"><a xlink:title=" ">
<path fill="none" stroke="#63b8ff" d="M350,-226.69C310.13,-223.16 250.53,-212.98 207.72,-184 190.99,-172.67 178.45,-152.92 170.92,-138.45"/>
<polygon fill="#63b8ff" stroke="#63b8ff" points="174.05,-136.88 166.51,-129.44 167.76,-139.96 174.05,-136.88"/>
</a>
</g>
</g>
<!-- Node23 -->
<g id="Node000023" class="node">
<title>Node23</title>
<g id="a_Node000023"><a xlink:title=" ">
<polygon fill="#e0e0e0" stroke="#999999" points="364.72,-184 332.72,-184 332.72,-165 364.72,-165 364.72,-184"/>
<text text-anchor="middle" x="348.72" y="-172" font-family="Helvetica,sans-Serif" font-size="10.00">set</text>
</a>
</g>
</g>
<!-- Node5&#45;&gt;Node23 -->
<g id="edge27_Node000005_Node000023" class="edge">
<title>Node5&#45;&gt;Node23</title>
<g id="a_edge27_Node000005_Node000023"><a xlink:title=" ">
<path fill="none" stroke="#63b8ff" d="M385.45,-219.75C379.17,-212.18 369.93,-201.05 362.29,-191.84"/>
<polygon fill="#63b8ff" stroke="#63b8ff" points="364.93,-189.55 355.85,-184.09 359.54,-194.02 364.93,-189.55"/>
</a>
</g>
</g>
<!-- Node24 -->
<g id="Node000024" class="node">
<title>Node24</title>
<g id="a_Node000024"><a xlink:title=" ">
<polygon fill="#e0e0e0" stroke="#999999" points="512.22,-184 421.22,-184 421.22,-165 512.22,-165 512.22,-184"/>
<text text-anchor="middle" x="466.72" y="-172" font-family="Helvetica,sans-Serif" font-size="10.00">realm/event.inl</text>
</a>
</g>
</g>
<!-- Node5&#45;&gt;Node24 -->
<g id="edge29_Node000005_Node000024" class="edge">
<title>Node5&#45;&gt;Node24</title>
<g id="a_edge29_Node000005_Node000024"><a xlink:title=" ">
<path fill="none" stroke="#63b8ff" d="M404.61,-219.98C415.87,-211.92 433,-199.65 446.43,-190.03"/>
<polygon fill="#63b8ff" stroke="#63b8ff" points="448.52,-192.84 454.61,-184.17 444.44,-187.15 448.52,-192.84"/>
</a>
</g>
</g>
<!-- Node6&#45;&gt;Node3 -->
<g id="edge9_Node000006_Node000003" class="edge">
<title>Node6&#45;&gt;Node3</title>
<g id="a_edge9_Node000006_Node000003"><a xlink:title=" ">
<path fill="none" stroke="#63b8ff" d="M355.01,-109.98C328.26,-101.13 286.19,-87.19 256.27,-77.28"/>
<polygon fill="#63b8ff" stroke="#63b8ff" points="257.22,-73.9 246.62,-74.08 255.02,-80.55 257.22,-73.9"/>
</a>
</g>
</g>
<!-- Node7 -->
<g id="Node000007" class="node">
<title>Node7</title>
<g id="a_Node000007"><a xlink:href="realm__config_8h.html" target="_top" xlink:title=" ">
<polygon fill="white" stroke="#666666" points="511.72,-74 391.72,-74 391.72,-55 511.72,-55 511.72,-74"/>
<text text-anchor="middle" x="451.72" y="-62" font-family="Helvetica,sans-Serif" font-size="10.00">realm/realm_config.h</text>
</a>
</g>
</g>
<!-- Node6&#45;&gt;Node7 -->
<g id="edge6_Node000006_Node000007" class="edge">
<title>Node6&#45;&gt;Node7</title>
<g id="a_edge6_Node000006_Node000007"><a xlink:title=" ">
<path fill="none" stroke="#63b8ff" d="M392.12,-109.98C402.83,-102 419.06,-89.88 431.88,-80.31"/>
<polygon fill="#63b8ff" stroke="#63b8ff" points="434.18,-82.96 440.1,-74.17 429.99,-77.35 434.18,-82.96"/>
</a>
</g>
</g>
<!-- Node6&#45;&gt;Node10 -->
<g id="edge10_Node000006_Node000010" class="edge">
<title>Node6&#45;&gt;Node10</title>
<g id="a_edge10_Node000006_Node000010"><a xlink:title=" ">
<path fill="none" stroke="#63b8ff" d="M428.9,-111.18C431.88,-110.77 434.84,-110.37 437.72,-110 574.83,-92.34 738.35,-76.01 810.45,-69.04"/>
<polygon fill="#63b8ff" stroke="#63b8ff" points="811.19,-72.49 820.81,-68.05 810.52,-65.52 811.19,-72.49"/>
</a>
</g>
</g>
<!-- Node8 -->
<g id="Node000008" class="node">
<title>Node8</title>
<g id="a_Node000008"><a xlink:href="realm__defines_8h.html" target="_top" xlink:title=" ">
<polygon fill="white" stroke="#666666" points="431.22,-19 336.22,-19 336.22,0 431.22,0 431.22,-19"/>
<text text-anchor="middle" x="383.72" y="-7" font-family="Helvetica,sans-Serif" font-size="10.00">realm_defines.h</text>
</a>
</g>
</g>
<!-- Node7&#45;&gt;Node8 -->
<g id="edge7_Node000007_Node000008" class="edge">
<title>Node7&#45;&gt;Node8</title>
<g id="a_edge7_Node000007_Node000008"><a xlink:title=" ">
<path fill="none" stroke="#63b8ff" d="M440.79,-54.98C430.64,-47.07 415.29,-35.11 403.07,-25.58"/>
<polygon fill="#63b8ff" stroke="#63b8ff" points="404.88,-22.56 394.84,-19.17 400.58,-28.08 404.88,-22.56"/>
</a>
</g>
</g>
<!-- Node9 -->
<g id="Node000009" class="node">
<title>Node9</title>
<g id="a_Node000009"><a xlink:href="compiler__support_8h.html" target="_top" xlink:title=" ">
<polygon fill="white" stroke="#666666" points="591.72,-19 449.72,-19 449.72,0 591.72,0 591.72,-19"/>
<text text-anchor="middle" x="520.72" y="-7" font-family="Helvetica,sans-Serif" font-size="10.00">realm/compiler_support.h</text>
</a>
</g>
</g>
<!-- Node7&#45;&gt;Node9 -->
<g id="edge8_Node000007_Node000009" class="edge">
<title>Node7&#45;&gt;Node9</title>
<g id="a_edge8_Node000007_Node000009"><a xlink:title=" ">
<path fill="none" stroke="#63b8ff" d="M462.8,-54.98C473.2,-47 488.98,-34.88 501.44,-25.31"/>
<polygon fill="#63b8ff" stroke="#63b8ff" points="503.63,-28.04 509.43,-19.17 499.37,-22.49 503.63,-28.04"/>
</a>
</g>
</g>
<!-- Node11&#45;&gt;Node7 -->
<g id="edge12_Node000011_Node000007" class="edge">
<title>Node11&#45;&gt;Node7</title>
<g id="a_edge12_Node000011_Node000007"><a xlink:title=" ">
<path fill="none" stroke="#63b8ff" d="M643.09,-164.93C614.58,-157.5 574.48,-145.37 541.72,-129 514.91,-115.61 487.2,-94.82 469.74,-80.71"/>
<polygon fill="#63b8ff" stroke="#63b8ff" points="471.55,-77.66 461.6,-74.01 467.1,-83.07 471.55,-77.66"/>
</a>
</g>
</g>
<!-- Node12 -->
<g id="Node000012" class="node">
<title>Node12</title>
<g id="a_Node000012"><a xlink:title=" ">
<polygon fill="#e0e0e0" stroke="#999999" points="964.72,-129 920.72,-129 920.72,-110 964.72,-110 964.72,-129"/>
<text text-anchor="middle" x="942.72" y="-117" font-family="Helvetica,sans-Serif" font-size="10.00">string</text>
</a>
</g>
</g>
<!-- Node11&#45;&gt;Node12 -->
<g id="edge13_Node000011_Node000012" class="edge">
<title>Node11&#45;&gt;Node12</title>
<g id="a_edge13_Node000011_Node000012"><a xlink:title=" ">
<path fill="none" stroke="#63b8ff" d="M718.91,-166.95C763.21,-159.32 837.66,-145.88 910.61,-129.12"/>
<polygon fill="#63b8ff" stroke="#63b8ff" points="911.47,-132.51 920.42,-126.84 909.89,-125.69 911.47,-132.51"/>
</a>
</g>
</g>
<!-- Node13 -->
<g id="Node000013" class="node">
<title>Node13</title>
<g id="a_Node000013"><a xlink:title=" ">
<polygon fill="#e0e0e0" stroke="#999999" points="1040.22,-129 983.22,-129 983.22,-110 1040.22,-110 1040.22,-129"/>
<text text-anchor="middle" x="1011.72" y="-117" font-family="Helvetica,sans-Serif" font-size="10.00">ostream</text>
</a>
</g>
</g>
<!-- Node11&#45;&gt;Node13 -->
<g id="edge14_Node000011_Node000013" class="edge">
<title>Node11&#45;&gt;Node13</title>
<g id="a_edge14_Node000011_Node000013"><a xlink:title=" ">
<path fill="none" stroke="#63b8ff" d="M718.86,-168.46C773.46,-161.24 875.8,-147 973.12,-128.99"/>
<polygon fill="#63b8ff" stroke="#63b8ff" points="973.94,-132.4 983.13,-127.12 972.65,-125.51 973.94,-132.4"/>
</a>
</g>
</g>
<!-- Node11&#45;&gt;Node14 -->
<g id="edge15_Node000011_Node000014" class="edge">
<title>Node11&#45;&gt;Node14</title>
<g id="a_edge15_Node000011_Node000014"><a xlink:title=" ">
<path fill="none" stroke="#63b8ff" d="M646.14,-164.98C607.16,-155.1 543.25,-138.89 504.28,-129.01"/>
<polygon fill="#63b8ff" stroke="#63b8ff" points="505.02,-125.59 494.46,-126.52 503.3,-132.37 505.02,-125.59"/>
</a>
</g>
</g>
<!-- Node15 -->
<g id="Node000015" class="node">
<title>Node15</title>
<g id="a_Node000015"><a xlink:title=" ">
<polygon fill="#e0e0e0" stroke="#999999" points="588.72,-129 550.72,-129 550.72,-110 588.72,-110 588.72,-129"/>
<text text-anchor="middle" x="569.72" y="-117" font-family="Helvetica,sans-Serif" font-size="10.00">map</text>
</a>
</g>
</g>
<!-- Node11&#45;&gt;Node15 -->
<g id="edge16_Node000011_Node000015" class="edge">
<title>Node11&#45;&gt;Node15</title>
<g id="a_edge16_Node000011_Node000015"><a xlink:title=" ">
<path fill="none" stroke="#63b8ff" d="M662.04,-164.98C644.43,-156.5 617.14,-143.35 596.79,-133.54"/>
<polygon fill="#63b8ff" stroke="#63b8ff" points="598.24,-130.36 587.71,-129.17 595.2,-136.66 598.24,-130.36"/>
</a>
</g>
</g>
<!-- Node16 -->
<g id="Node000016" class="node">
<title>Node16</title>
<g id="a_Node000016"><a xlink:title=" ">
<polygon fill="#e0e0e0" stroke="#999999" points="658.72,-129 606.72,-129 606.72,-110 658.72,-110 658.72,-129"/>
<text text-anchor="middle" x="632.72" y="-117" font-family="Helvetica,sans-Serif" font-size="10.00">cassert</text>
</a>
</g>
</g>
<!-- Node11&#45;&gt;Node16 -->
<g id="edge17_Node000011_Node000016" class="edge">
<title>Node11&#45;&gt;Node16</title>
<g id="a_edge17_Node000011_Node000016"><a xlink:title=" ">
<path fill="none" stroke="#63b8ff" d="M671.96,-164.75C665.25,-157.18 655.37,-146.05 647.21,-136.84"/>
<polygon fill="#63b8ff" stroke="#63b8ff" points="649.59,-134.25 640.33,-129.09 644.35,-138.89 649.59,-134.25"/>
</a>
</g>
</g>
<!-- Node17 -->
<g id="Node000017" class="node">
<title>Node17</title>
<g id="a_Node000017"><a xlink:title=" ">
<polygon fill="#e0e0e0" stroke="#999999" points="726.72,-129 676.72,-129 676.72,-110 726.72,-110 726.72,-129"/>
<text text-anchor="middle" x="701.72" y="-117" font-family="Helvetica,sans-Serif" font-size="10.00">cstdint</text>
</a>
</g>
</g>
<!-- Node11&#45;&gt;Node17 -->
<g id="edge18_Node000011_Node000017" class="edge">
<title>Node11&#45;&gt;Node17</title>
<g id="a_edge18_Node000011_Node000017"><a xlink:title=" ">
<path fill="none" stroke="#63b8ff" d="M683.35,-164.75C686.3,-157.65 690.55,-147.4 694.22,-138.56"/>
<polygon fill="#63b8ff" stroke="#63b8ff" points="697.55,-139.67 698.15,-129.09 691.08,-136.98 697.55,-139.67"/>
</a>
</g>
</g>
<!-- Node18 -->
<g id="Node000018" class="node">
<title>Node18</title>
<g id="a_Node000018"><a xlink:title=" ">
<polygon fill="#e0e0e0" stroke="#999999" points="800.72,-129 744.72,-129 744.72,-110 800.72,-110 800.72,-129"/>
<text text-anchor="middle" x="772.72" y="-117" font-family="Helvetica,sans-Serif" font-size="10.00">sstream</text>
</a>
</g>
</g>
<!-- Node11&#45;&gt;Node18 -->
<g id="edge19_Node000011_Node000018" class="edge">
<title>Node11&#45;&gt;Node18</title>
<g id="a_edge19_Node000011_Node000018"><a xlink:title=" ">
<path fill="none" stroke="#63b8ff" d="M694.66,-164.98C709.21,-156.69 731.58,-143.94 748.65,-134.22"/>
<polygon fill="#63b8ff" stroke="#63b8ff" points="750.55,-137.16 757.5,-129.17 747.08,-131.08 750.55,-137.16"/>
</a>
</g>
</g>
<!-- Node19 -->
<g id="Node000019" class="node">
<title>Node19</title>
<g id="a_Node000019"><a xlink:title=" ">
<polygon fill="#e0e0e0" stroke="#999999" points="902.72,-129 818.72,-129 818.72,-110 902.72,-110 902.72,-129"/>
<text text-anchor="middle" x="860.72" y="-117" font-family="Helvetica,sans-Serif" font-size="10.00">realm/utils.inl</text>
</a>
</g>
</g>
<!-- Node11&#45;&gt;Node19 -->
<g id="edge20_Node000011_Node000019" class="edge">
<title>Node11&#45;&gt;Node19</title>
<g id="a_edge20_Node000011_Node000019"><a xlink:title=" ">
<path fill="none" stroke="#63b8ff" d="M708.8,-164.98C739.32,-156.05 787.48,-141.94 821.38,-132.02"/>
<polygon fill="#63b8ff" stroke="#63b8ff" points="822.79,-135.25 831.41,-129.08 820.83,-128.53 822.79,-135.25"/>
</a>
</g>
</g>
<!-- Node20&#45;&gt;Node3 -->
<g id="edge23_Node000020_Node000003" class="edge">
<title>Node20&#45;&gt;Node3</title>
<g id="a_edge23_Node000020_Node000003"><a xlink:title=" ">
<path fill="none" stroke="#63b8ff" d="M259.9,-164.96C254.15,-156.23 245.42,-142.13 239.72,-129 233.41,-114.47 228.39,-97.2 225.1,-84.34"/>
<polygon fill="#63b8ff" stroke="#63b8ff" points="228.43,-83.25 222.66,-74.36 221.63,-84.91 228.43,-83.25"/>
</a>
</g>
</g>
<!-- Node20&#45;&gt;Node6 -->
<g id="edge22_Node000020_Node000006" class="edge">
<title>Node20&#45;&gt;Node6</title>
<g id="a_edge22_Node000020_Node000006"><a xlink:title=" ">
<path fill="none" stroke="#63b8ff" d="M284.19,-164.98C302.69,-156.46 331.4,-143.23 352.7,-133.41"/>
<polygon fill="#63b8ff" stroke="#63b8ff" points="354.29,-136.53 361.9,-129.17 351.36,-130.18 354.29,-136.53"/>
</a>
</g>
</g>
<!-- Node20&#45;&gt;Node21 -->
<g id="edge24_Node000020_Node000021" class="edge">
<title>Node20&#45;&gt;Node21</title>
<g id="a_edge24_Node000020_Node000021"><a xlink:title=" ">
<path fill="none" stroke="#63b8ff" d="M249.17,-164.98C232.82,-156.57 207.58,-143.59 188.59,-133.81"/>
<polygon fill="#63b8ff" stroke="#63b8ff" points="190.06,-130.63 179.57,-129.17 186.86,-136.86 190.06,-130.63"/>
</a>
</g>
</g>
<!-- Node22 -->
<g id="Node000022" class="node">
<title>Node22</title>
<g id="a_Node000022"><a xlink:title=" ">
<polygon fill="#e0e0e0" stroke="#999999" points="314.22,-129 249.22,-129 249.22,-110 314.22,-110 314.22,-129"/>
<text text-anchor="middle" x="281.72" y="-117" font-family="Helvetica,sans-Serif" font-size="10.00">functional</text>
</a>
</g>
</g>
<!-- Node20&#45;&gt;Node22 -->
<g id="edge25_Node000020_Node000022" class="edge">
<title>Node20&#45;&gt;Node22</title>
<g id="a_edge25_Node000020_Node000022"><a xlink:title=" ">
<path fill="none" stroke="#63b8ff" d="M268.36,-164.75C270.48,-157.72 273.53,-147.62 276.18,-138.84"/>
<polygon fill="#63b8ff" stroke="#63b8ff" points="279.58,-139.67 279.12,-129.09 272.88,-137.65 279.58,-139.67"/>
</a>
</g>
</g>
</g>
</svg>
