<?xml version="1.0" encoding="UTF-8" standalone="no"?>
<!DOCTYPE svg PUBLIC "-//W3C//DTD SVG 1.1//EN"
 "http://www.w3.org/Graphics/SVG/1.1/DTD/svg11.dtd">
<!-- Generated by graphviz version 2.43.0 (0)
 -->
<!-- Title: /home/runner/work/realm/realm/realm&#45;src/src/realm/gasnet1/gasnet1_module.h Pages: 1 -->
<svg width="1734pt" height="379pt"
 viewBox="0.00 0.00 1734.00 379.00" xmlns="http://www.w3.org/2000/svg" xmlns:xlink="http://www.w3.org/1999/xlink">
<g id="graph0" class="graph" transform="scale(1 1) rotate(0) translate(4 375)">
<title>/home/runner/work/realm/realm/realm&#45;src/src/realm/gasnet1/gasnet1_module.h</title>
<!-- Node1 -->
<g id="Node000001" class="node">
<title>Node1</title>
<g id="a_Node000001"><a xlink:title=" ">
<polygon fill="#999999" stroke="#666666" points="1095.5,-371 943.5,-371 943.5,-330 1095.5,-330 1095.5,-371"/>
<text text-anchor="start" x="951.5" y="-359" font-family="Helvetica,sans-Serif" font-size="10.00">/home/runner/work/realm</text>
<text text-anchor="start" x="951.5" y="-348" font-family="Helvetica,sans-Serif" font-size="10.00">/realm/realm&#45;src/src/realm</text>
<text text-anchor="middle" x="1019.5" y="-337" font-family="Helvetica,sans-Serif" font-size="10.00">/gasnet1/gasnet1_module.h</text>
</a>
</g>
</g>
<!-- Node2 -->
<g id="Node000002" class="node">
<title>Node2</title>
<g id="a_Node000002"><a xlink:href="network_8h.html" target="_top" xlink:title=" ">
<polygon fill="white" stroke="#666666" points="1068,-294 971,-294 971,-275 1068,-275 1068,-294"/>
<text text-anchor="middle" x="1019.5" y="-282" font-family="Helvetica,sans-Serif" font-size="10.00">realm/network.h</text>
</a>
</g>
</g>
<!-- Node1&#45;&gt;Node2 -->
<g id="edge1_Node000001_Node000002" class="edge">
<title>Node1&#45;&gt;Node2</title>
<g id="a_edge1_Node000001_Node000002"><a xlink:title=" ">
<path fill="none" stroke="#63b8ff" d="M1019.5,-329.95C1019.5,-321.85 1019.5,-312.5 1019.5,-304.47"/>
<polygon fill="#63b8ff" stroke="#63b8ff" points="1023,-304.26 1019.5,-294.26 1016,-304.26 1023,-304.26"/>
</a>
</g>
</g>
<!-- Node3 -->
<g id="Node000003" class="node">
<title>Node3</title>
<g id="a_Node000003"><a xlink:href="realm__config_8h.html" target="_top" xlink:title=" ">
<polygon fill="white" stroke="#666666" points="1054.5,-74 934.5,-74 934.5,-55 1054.5,-55 1054.5,-74"/>
<text text-anchor="middle" x="994.5" y="-62" font-family="Helvetica,sans-Serif" font-size="10.00">realm/realm_config.h</text>
</a>
</g>
</g>
<!-- Node2&#45;&gt;Node3 -->
<g id="edge2_Node000002_Node000003" class="edge">
<title>Node2&#45;&gt;Node3</title>
<g id="a_edge2_Node000002_Node000003"><a xlink:title=" ">
<path fill="none" stroke="#63b8ff" d="M1018.52,-274.95C1014.85,-242.95 1001.86,-129.68 996.67,-84.4"/>
<polygon fill="#63b8ff" stroke="#63b8ff" points="1000.12,-83.76 995.5,-74.22 993.16,-84.56 1000.12,-83.76"/>
</a>
</g>
</g>
<!-- Node6 -->
<g id="Node000006" class="node">
<title>Node6</title>
<g id="a_Node000006"><a xlink:href="module_8h.html" target="_top" xlink:title=" ">
<polygon fill="white" stroke="#666666" points="971.5,-239 877.5,-239 877.5,-220 971.5,-220 971.5,-239"/>
<text text-anchor="middle" x="924.5" y="-227" font-family="Helvetica,sans-Serif" font-size="10.00">realm/module.h</text>
</a>
</g>
</g>
<!-- Node2&#45;&gt;Node6 -->
<g id="edge5_Node000002_Node000006" class="edge">
<title>Node2&#45;&gt;Node6</title>
<g id="a_edge5_Node000002_Node000006"><a xlink:title=" ">
<path fill="none" stroke="#63b8ff" d="M1004.24,-274.98C989.37,-266.69 966.52,-253.94 949.08,-244.22"/>
<polygon fill="#63b8ff" stroke="#63b8ff" points="950.48,-240.99 940.04,-239.17 947.07,-247.1 950.48,-240.99"/>
</a>
</g>
</g>
<!-- Node15 -->
<g id="Node000015" class="node">
<title>Node15</title>
<g id="a_Node000015"><a xlink:title=" ">
<polygon fill="#e0e0e0" stroke="#999999" points="1688.5,-74 1650.5,-74 1650.5,-55 1688.5,-55 1688.5,-74"/>
<text text-anchor="middle" x="1669.5" y="-62" font-family="Helvetica,sans-Serif" font-size="10.00">map</text>
</a>
</g>
</g>
<!-- Node2&#45;&gt;Node15 -->
<g id="edge51_Node000002_Node000015" class="edge">
<title>Node2&#45;&gt;Node15</title>
<g id="a_edge51_Node000002_Node000015"><a xlink:title=" ">
<path fill="none" stroke="#63b8ff" d="M1068.37,-279.2C1187.55,-268.03 1489.64,-235.31 1575.5,-184 1616.68,-159.39 1646.95,-109.57 1660.91,-83.04"/>
<polygon fill="#63b8ff" stroke="#63b8ff" points="1664.04,-84.62 1665.46,-74.12 1657.8,-81.44 1664.04,-84.62"/>
</a>
</g>
</g>
<!-- Node16 -->
<g id="Node000016" class="node">
<title>Node16</title>
<g id="a_Node000016"><a xlink:href="nodeset_8h.html" target="_top" xlink:title=" ">
<polygon fill="white" stroke="#666666" points="1190.5,-239 1094.5,-239 1094.5,-220 1190.5,-220 1190.5,-239"/>
<text text-anchor="middle" x="1142.5" y="-227" font-family="Helvetica,sans-Serif" font-size="10.00">realm/nodeset.h</text>
</a>
</g>
</g>
<!-- Node2&#45;&gt;Node16 -->
<g id="edge20_Node000002_Node000016" class="edge">
<title>Node2&#45;&gt;Node16</title>
<g id="a_edge20_Node000002_Node000016"><a xlink:title=" ">
<path fill="none" stroke="#63b8ff" d="M1039.26,-274.98C1059.23,-266.38 1090.3,-252.99 1113.15,-243.15"/>
<polygon fill="#63b8ff" stroke="#63b8ff" points="1114.58,-246.34 1122.38,-239.17 1111.81,-239.91 1114.58,-246.34"/>
</a>
</g>
</g>
<!-- Node30 -->
<g id="Node000030" class="node">
<title>Node30</title>
<g id="a_Node000030"><a xlink:href="memory_8h.html" target="_top" xlink:title=" ">
<polygon fill="white" stroke="#666666" points="347,-184 250,-184 250,-165 347,-165 347,-184"/>
<text text-anchor="middle" x="298.5" y="-172" font-family="Helvetica,sans-Serif" font-size="10.00">realm/memory.h</text>
</a>
</g>
</g>
<!-- Node2&#45;&gt;Node30 -->
<g id="edge43_Node000002_Node000030" class="edge">
<title>Node2&#45;&gt;Node30</title>
<g id="a_edge43_Node000002_Node000030"><a xlink:title=" ">
<path fill="none" stroke="#63b8ff" d="M970.79,-276.2C842.56,-257 495.98,-205.08 357.16,-184.29"/>
<polygon fill="#63b8ff" stroke="#63b8ff" points="357.54,-180.81 347.14,-182.79 356.51,-187.73 357.54,-180.81"/>
</a>
</g>
</g>
<!-- Node33 -->
<g id="Node000033" class="node">
<title>Node33</title>
<g id="a_Node000033"><a xlink:href="bytearray_8h.html" target="_top" xlink:title=" ">
<polygon fill="white" stroke="#666666" points="189,-239 86,-239 86,-220 189,-220 189,-239"/>
<text text-anchor="middle" x="137.5" y="-227" font-family="Helvetica,sans-Serif" font-size="10.00">realm/bytearray.h</text>
</a>
</g>
</g>
<!-- Node2&#45;&gt;Node33 -->
<g id="edge48_Node000002_Node000033" class="edge">
<title>Node2&#45;&gt;Node33</title>
<g id="a_edge48_Node000002_Node000033"><a xlink:title=" ">
<path fill="none" stroke="#63b8ff" d="M970.82,-280.57C820.75,-271.56 365.35,-244.19 199.1,-234.2"/>
<polygon fill="#63b8ff" stroke="#63b8ff" points="199.23,-230.7 189.04,-233.6 198.81,-237.69 199.23,-230.7"/>
</a>
</g>
</g>
<!-- Node35 -->
<g id="Node000035" class="node">
<title>Node35</title>
<g id="a_Node000035"><a xlink:title=" ">
<polygon fill="#e0e0e0" stroke="#999999" points="1726,-239 1623,-239 1623,-220 1726,-220 1726,-239"/>
<text text-anchor="middle" x="1674.5" y="-227" font-family="Helvetica,sans-Serif" font-size="10.00">realm/network.inl</text>
</a>
</g>
</g>
<!-- Node2&#45;&gt;Node35 -->
<g id="edge52_Node000002_Node000035" class="edge">
<title>Node2&#45;&gt;Node35</title>
<g id="a_edge52_Node000002_Node000035"><a xlink:title=" ">
<path fill="none" stroke="#63b8ff" d="M1068.06,-280.7C1168.9,-274.69 1408.29,-259.44 1608.5,-239 1609.79,-238.87 1611.1,-238.73 1612.42,-238.59"/>
<polygon fill="#63b8ff" stroke="#63b8ff" points="1613.1,-242.04 1622.65,-237.44 1612.32,-235.08 1613.1,-242.04"/>
</a>
</g>
</g>
<!-- Node4 -->
<g id="Node000004" class="node">
<title>Node4</title>
<g id="a_Node000004"><a xlink:href="realm__defines_8h.html" target="_top" xlink:title=" ">
<polygon fill="white" stroke="#666666" points="973,-19 878,-19 878,0 973,0 973,-19"/>
<text text-anchor="middle" x="925.5" y="-7" font-family="Helvetica,sans-Serif" font-size="10.00">realm_defines.h</text>
</a>
</g>
</g>
<!-- Node3&#45;&gt;Node4 -->
<g id="edge3_Node000003_Node000004" class="edge">
<title>Node3&#45;&gt;Node4</title>
<g id="a_edge3_Node000003_Node000004"><a xlink:title=" ">
<path fill="none" stroke="#63b8ff" d="M983.41,-54.98C973.01,-47 957.24,-34.88 944.78,-25.31"/>
<polygon fill="#63b8ff" stroke="#63b8ff" points="946.85,-22.49 936.79,-19.17 942.59,-28.04 946.85,-22.49"/>
</a>
</g>
</g>
<!-- Node5 -->
<g id="Node000005" class="node">
<title>Node5</title>
<g id="a_Node000005"><a xlink:href="compiler__support_8h.html" target="_top" xlink:title=" ">
<polygon fill="white" stroke="#666666" points="1133.5,-19 991.5,-19 991.5,0 1133.5,0 1133.5,-19"/>
<text text-anchor="middle" x="1062.5" y="-7" font-family="Helvetica,sans-Serif" font-size="10.00">realm/compiler_support.h</text>
</a>
</g>
</g>
<!-- Node3&#45;&gt;Node5 -->
<g id="edge4_Node000003_Node000005" class="edge">
<title>Node3&#45;&gt;Node5</title>
<g id="a_edge4_Node000003_Node000005"><a xlink:title=" ">
<path fill="none" stroke="#63b8ff" d="M1005.43,-54.98C1015.58,-47.07 1030.92,-35.11 1043.15,-25.58"/>
<polygon fill="#63b8ff" stroke="#63b8ff" points="1045.64,-28.08 1051.38,-19.17 1041.34,-22.56 1045.64,-28.08"/>
</a>
</g>
</g>
<!-- Node6&#45;&gt;Node3 -->
<g id="edge6_Node000006_Node000003" class="edge">
<title>Node6&#45;&gt;Node3</title>
<g id="a_edge6_Node000006_Node000003"><a xlink:title=" ">
<path fill="none" stroke="#63b8ff" d="M928.26,-219.74C939.28,-194.09 971.62,-118.78 986.65,-83.78"/>
<polygon fill="#63b8ff" stroke="#63b8ff" points="989.99,-84.88 990.72,-74.31 983.56,-82.11 989.99,-84.88"/>
</a>
</g>
</g>
<!-- Node7 -->
<g id="Node000007" class="node">
<title>Node7</title>
<g id="a_Node000007"><a xlink:href="module__config_8h.html" target="_top" xlink:title=" ">
<polygon fill="white" stroke="#666666" points="818.5,-184 690.5,-184 690.5,-165 818.5,-165 818.5,-184"/>
<text text-anchor="middle" x="754.5" y="-172" font-family="Helvetica,sans-Serif" font-size="10.00">realm/module_config.h</text>
</a>
</g>
</g>
<!-- Node6&#45;&gt;Node7 -->
<g id="edge7_Node000006_Node000007" class="edge">
<title>Node6&#45;&gt;Node7</title>
<g id="a_edge7_Node000006_Node000007"><a xlink:title=" ">
<path fill="none" stroke="#63b8ff" d="M897.19,-219.98C868.65,-211.09 823.67,-197.07 791.86,-187.15"/>
<polygon fill="#63b8ff" stroke="#63b8ff" points="792.62,-183.72 782.03,-184.08 790.53,-190.4 792.62,-183.72"/>
</a>
</g>
</g>
<!-- Node11 -->
<g id="Node000011" class="node">
<title>Node11</title>
<g id="a_Node000011"><a xlink:title=" ">
<polygon fill="#e0e0e0" stroke="#999999" points="549.5,-74 505.5,-74 505.5,-55 549.5,-55 549.5,-74"/>
<text text-anchor="middle" x="527.5" y="-62" font-family="Helvetica,sans-Serif" font-size="10.00">string</text>
</a>
</g>
</g>
<!-- Node6&#45;&gt;Node11 -->
<g id="edge18_Node000006_Node000011" class="edge">
<title>Node6&#45;&gt;Node11</title>
<g id="a_edge18_Node000006_Node000011"><a xlink:title=" ">
<path fill="none" stroke="#63b8ff" d="M877.49,-227.05C759.46,-222.32 455.71,-203.06 394.5,-129 364.35,-92.53 447.17,-75.61 495.47,-69.03"/>
<polygon fill="#63b8ff" stroke="#63b8ff" points="496.01,-72.49 505.49,-67.75 495.12,-65.55 496.01,-72.49"/>
</a>
</g>
</g>
<!-- Node13 -->
<g id="Node000013" class="node">
<title>Node13</title>
<g id="a_Node000013"><a xlink:title=" ">
<polygon fill="#e0e0e0" stroke="#999999" points="916,-74 869,-74 869,-55 916,-55 916,-74"/>
<text text-anchor="middle" x="892.5" y="-62" font-family="Helvetica,sans-Serif" font-size="10.00">vector</text>
</a>
</g>
</g>
<!-- Node6&#45;&gt;Node13 -->
<g id="edge17_Node000006_Node000013" class="edge">
<title>Node6&#45;&gt;Node13</title>
<g id="a_edge17_Node000006_Node000013"><a xlink:title=" ">
<path fill="none" stroke="#63b8ff" d="M922.78,-219.74C917.77,-194.2 903.09,-119.43 896.18,-84.23"/>
<polygon fill="#63b8ff" stroke="#63b8ff" points="899.59,-83.45 894.23,-74.31 892.72,-84.79 899.59,-83.45"/>
</a>
</g>
</g>
<!-- Node6&#45;&gt;Node15 -->
<g id="edge19_Node000006_Node000015" class="edge">
<title>Node6&#45;&gt;Node15</title>
<g id="a_edge19_Node000006_Node000015"><a xlink:title=" ">
<path fill="none" stroke="#63b8ff" d="M971.75,-223.3C1034.22,-216.12 1147.59,-201.97 1243.5,-184 1348.08,-164.41 1374.09,-157.88 1476.5,-129 1535.46,-112.37 1603.25,-89.08 1640.75,-75.82"/>
<polygon fill="#63b8ff" stroke="#63b8ff" points="1642.24,-79 1650.49,-72.36 1639.9,-72.41 1642.24,-79"/>
</a>
</g>
</g>
<!-- Node7&#45;&gt;Node3 -->
<g id="edge8_Node000007_Node000003" class="edge">
<title>Node7&#45;&gt;Node3</title>
<g id="a_edge8_Node000007_Node000003"><a xlink:title=" ">
<path fill="none" stroke="#63b8ff" d="M773.73,-164.84C815.97,-145.84 916.97,-100.39 966.35,-78.17"/>
<polygon fill="#63b8ff" stroke="#63b8ff" points="967.82,-81.34 975.51,-74.05 964.95,-74.96 967.82,-81.34"/>
</a>
</g>
</g>
<!-- Node8 -->
<g id="Node000008" class="node">
<title>Node8</title>
<g id="a_Node000008"><a xlink:href="realm__c_8h.html" target="_top" xlink:title=" ">
<polygon fill="white" stroke="#666666" points="499.5,-129 403.5,-129 403.5,-110 499.5,-110 499.5,-129"/>
<text text-anchor="middle" x="451.5" y="-117" font-family="Helvetica,sans-Serif" font-size="10.00">realm/realm_c.h</text>
</a>
</g>
</g>
<!-- Node7&#45;&gt;Node8 -->
<g id="edge9_Node000007_Node000008" class="edge">
<title>Node7&#45;&gt;Node8</title>
<g id="a_edge9_Node000007_Node000008"><a xlink:title=" ">
<path fill="none" stroke="#63b8ff" d="M705.82,-164.98C652.32,-155.63 566.43,-140.6 509.49,-130.64"/>
<polygon fill="#63b8ff" stroke="#63b8ff" points="510.01,-127.18 499.56,-128.91 508.81,-134.08 510.01,-127.18"/>
</a>
</g>
</g>
<!-- Node7&#45;&gt;Node11 -->
<g id="edge13_Node000007_Node000011" class="edge">
<title>Node7&#45;&gt;Node11</title>
<g id="a_edge13_Node000007_Node000011"><a xlink:title=" ">
<path fill="none" stroke="#63b8ff" d="M690.4,-166.96C637.27,-160.27 567.22,-148.13 546.5,-129 534.22,-117.67 529.76,-98.77 528.2,-84.52"/>
<polygon fill="#63b8ff" stroke="#63b8ff" points="531.67,-84.06 527.47,-74.34 524.69,-84.56 531.67,-84.06"/>
</a>
</g>
</g>
<!-- Node12 -->
<g id="Node000012" class="node">
<title>Node12</title>
<g id="a_Node000012"><a xlink:title=" ">
<polygon fill="#e0e0e0" stroke="#999999" points="801,-129 708,-129 708,-110 801,-110 801,-129"/>
<text text-anchor="middle" x="754.5" y="-117" font-family="Helvetica,sans-Serif" font-size="10.00">unordered_map</text>
</a>
</g>
</g>
<!-- Node7&#45;&gt;Node12 -->
<g id="edge14_Node000007_Node000012" class="edge">
<title>Node7&#45;&gt;Node12</title>
<g id="a_edge14_Node000007_Node000012"><a xlink:title=" ">
<path fill="none" stroke="#63b8ff" d="M754.5,-164.75C754.5,-157.8 754.5,-147.85 754.5,-139.13"/>
<polygon fill="#63b8ff" stroke="#63b8ff" points="758,-139.09 754.5,-129.09 751,-139.09 758,-139.09"/>
</a>
</g>
</g>
<!-- Node7&#45;&gt;Node13 -->
<g id="edge15_Node000007_Node000013" class="edge">
<title>Node7&#45;&gt;Node13</title>
<g id="a_edge15_Node000007_Node000013"><a xlink:title=" ">
<path fill="none" stroke="#63b8ff" d="M765.79,-164.66C789.36,-146.22 844.01,-103.45 873.24,-80.57"/>
<polygon fill="#63b8ff" stroke="#63b8ff" points="875.72,-83.08 881.44,-74.16 871.4,-77.57 875.72,-83.08"/>
</a>
</g>
</g>
<!-- Node14 -->
<g id="Node000014" class="node">
<title>Node14</title>
<g id="a_Node000014"><a xlink:title=" ">
<polygon fill="#e0e0e0" stroke="#999999" points="689.5,-129 555.5,-129 555.5,-110 689.5,-110 689.5,-129"/>
<text text-anchor="middle" x="622.5" y="-117" font-family="Helvetica,sans-Serif" font-size="10.00">realm/module_config.inl</text>
</a>
</g>
</g>
<!-- Node7&#45;&gt;Node14 -->
<g id="edge16_Node000007_Node000014" class="edge">
<title>Node7&#45;&gt;Node14</title>
<g id="a_edge16_Node000007_Node000014"><a xlink:title=" ">
<path fill="none" stroke="#63b8ff" d="M733.29,-164.98C711.77,-156.34 678.22,-142.87 653.67,-133.02"/>
<polygon fill="#63b8ff" stroke="#63b8ff" points="654.68,-129.65 644.09,-129.17 652.07,-136.14 654.68,-129.65"/>
</a>
</g>
</g>
<!-- Node8&#45;&gt;Node3 -->
<g id="edge10_Node000008_Node000003" class="edge">
<title>Node8&#45;&gt;Node3</title>
<g id="a_edge10_Node000008_Node000003"><a xlink:title=" ">
<path fill="none" stroke="#63b8ff" d="M499.66,-114.14C599.32,-105.08 826.3,-84.31 924.03,-74.01"/>
<polygon fill="#63b8ff" stroke="#63b8ff" points="924.61,-77.47 934.18,-72.93 923.87,-70.51 924.61,-77.47"/>
</a>
</g>
</g>
<!-- Node9 -->
<g id="Node000009" class="node">
<title>Node9</title>
<g id="a_Node000009"><a xlink:title=" ">
<polygon fill="#e0e0e0" stroke="#999999" points="203.5,-74 147.5,-74 147.5,-55 203.5,-55 203.5,-74"/>
<text text-anchor="middle" x="175.5" y="-62" font-family="Helvetica,sans-Serif" font-size="10.00">stddef.h</text>
</a>
</g>
</g>
<!-- Node8&#45;&gt;Node9 -->
<g id="edge11_Node000008_Node000009" class="edge">
<title>Node8&#45;&gt;Node9</title>
<g id="a_edge11_Node000008_Node000009"><a xlink:title=" ">
<path fill="none" stroke="#63b8ff" d="M407.16,-109.98C353.55,-99.69 264.26,-82.54 213.62,-72.82"/>
<polygon fill="#63b8ff" stroke="#63b8ff" points="214.2,-69.37 203.72,-70.92 212.88,-76.24 214.2,-69.37"/>
</a>
</g>
</g>
<!-- Node10 -->
<g id="Node000010" class="node">
<title>Node10</title>
<g id="a_Node000010"><a xlink:title=" ">
<polygon fill="#e0e0e0" stroke="#999999" points="851,-74 798,-74 798,-55 851,-55 851,-74"/>
<text text-anchor="middle" x="824.5" y="-62" font-family="Helvetica,sans-Serif" font-size="10.00">stdint.h</text>
</a>
</g>
</g>
<!-- Node8&#45;&gt;Node10 -->
<g id="edge12_Node000008_Node000010" class="edge">
<title>Node8&#45;&gt;Node10</title>
<g id="a_edge12_Node000008_Node000010"><a xlink:title=" ">
<path fill="none" stroke="#63b8ff" d="M499.88,-111.63C575.47,-100.88 719.94,-80.36 787.7,-70.73"/>
<polygon fill="#63b8ff" stroke="#63b8ff" points="788.48,-74.15 797.89,-69.28 787.5,-67.22 788.48,-74.15"/>
</a>
</g>
</g>
<!-- Node16&#45;&gt;Node3 -->
<g id="edge21_Node000016_Node000003" class="edge">
<title>Node16&#45;&gt;Node3</title>
<g id="a_edge21_Node000016_Node000003"><a xlink:title=" ">
<path fill="none" stroke="#63b8ff" d="M1139.09,-219.76C1130.51,-198.65 1106.2,-144.15 1071.5,-110 1058.01,-96.72 1039.79,-85.96 1024.46,-78.35"/>
<polygon fill="#63b8ff" stroke="#63b8ff" points="1025.89,-75.15 1015.35,-74.02 1022.88,-81.47 1025.89,-75.15"/>
</a>
</g>
</g>
<!-- Node16&#45;&gt;Node10 -->
<g id="edge40_Node000016_Node000010" class="edge">
<title>Node16&#45;&gt;Node10</title>
<g id="a_edge40_Node000016_Node000010"><a xlink:title=" ">
<path fill="none" stroke="#63b8ff" d="M1125.85,-219.97C1073.7,-193.24 913.27,-111 850.27,-78.71"/>
<polygon fill="#63b8ff" stroke="#63b8ff" points="851.86,-75.59 841.37,-74.15 848.67,-81.82 851.86,-75.59"/>
</a>
</g>
</g>
<!-- Node17 -->
<g id="Node000017" class="node">
<title>Node17</title>
<g id="a_Node000017"><a xlink:href="mutex_8h.html" target="_top" xlink:title=" ">
<polygon fill="white" stroke="#666666" points="1234,-184 1145,-184 1145,-165 1234,-165 1234,-184"/>
<text text-anchor="middle" x="1189.5" y="-172" font-family="Helvetica,sans-Serif" font-size="10.00">realm/mutex.h</text>
</a>
</g>
</g>
<!-- Node16&#45;&gt;Node17 -->
<g id="edge22_Node000016_Node000017" class="edge">
<title>Node16&#45;&gt;Node17</title>
<g id="a_edge22_Node000016_Node000017"><a xlink:title=" ">
<path fill="none" stroke="#63b8ff" d="M1150.26,-219.75C1156.97,-212.18 1166.84,-201.05 1175.01,-191.84"/>
<polygon fill="#63b8ff" stroke="#63b8ff" points="1177.87,-193.89 1181.88,-184.09 1172.63,-189.25 1177.87,-193.89"/>
</a>
</g>
</g>
<!-- Node28 -->
<g id="Node000028" class="node">
<title>Node28</title>
<g id="a_Node000028"><a xlink:title=" ">
<polygon fill="#e0e0e0" stroke="#999999" points="1566,-184 1513,-184 1513,-165 1566,-165 1566,-184"/>
<text text-anchor="middle" x="1539.5" y="-172" font-family="Helvetica,sans-Serif" font-size="10.00">iterator</text>
</a>
</g>
</g>
<!-- Node16&#45;&gt;Node28 -->
<g id="edge41_Node000016_Node000028" class="edge">
<title>Node16&#45;&gt;Node28</title>
<g id="a_edge41_Node000016_Node000028"><a xlink:title=" ">
<path fill="none" stroke="#63b8ff" d="M1190.63,-224.25C1258.17,-217.92 1385.06,-204.68 1502.91,-183.91"/>
<polygon fill="#63b8ff" stroke="#63b8ff" points="1503.6,-187.34 1512.83,-182.14 1502.37,-180.45 1503.6,-187.34"/>
</a>
</g>
</g>
<!-- Node29 -->
<g id="Node000029" class="node">
<title>Node29</title>
<g id="a_Node000029"><a xlink:title=" ">
<polygon fill="#e0e0e0" stroke="#999999" points="1494.5,-184 1392.5,-184 1392.5,-165 1494.5,-165 1494.5,-184"/>
<text text-anchor="middle" x="1443.5" y="-172" font-family="Helvetica,sans-Serif" font-size="10.00">realm/nodeset.inl</text>
</a>
</g>
</g>
<!-- Node16&#45;&gt;Node29 -->
<g id="edge42_Node000016_Node000029" class="edge">
<title>Node16&#45;&gt;Node29</title>
<g id="a_edge42_Node000016_Node000029"><a xlink:title=" ">
<path fill="none" stroke="#63b8ff" d="M1190.53,-220.04C1243.45,-210.72 1328.57,-195.74 1385.26,-185.76"/>
<polygon fill="#63b8ff" stroke="#63b8ff" points="1385.9,-189.2 1395.15,-184.01 1384.69,-182.3 1385.9,-189.2"/>
</a>
</g>
</g>
<!-- Node17&#45;&gt;Node3 -->
<g id="edge23_Node000017_Node000003" class="edge">
<title>Node17&#45;&gt;Node3</title>
<g id="a_edge23_Node000017_Node000003"><a xlink:title=" ">
<path fill="none" stroke="#63b8ff" d="M1180.33,-164.67C1166.13,-151.37 1137.51,-126.04 1109.5,-110 1085.39,-96.19 1056.16,-84.95 1033.21,-77.21"/>
<polygon fill="#63b8ff" stroke="#63b8ff" points="1034.06,-73.81 1023.47,-74.02 1031.88,-80.46 1034.06,-73.81"/>
</a>
</g>
</g>
<!-- Node17&#45;&gt;Node10 -->
<g id="edge38_Node000017_Node000010" class="edge">
<title>Node17&#45;&gt;Node10</title>
<g id="a_edge38_Node000017_Node000010"><a xlink:title=" ">
<path fill="none" stroke="#63b8ff" d="M1160.55,-164.94C1094.69,-145.45 933.72,-97.82 861.1,-76.33"/>
<polygon fill="#63b8ff" stroke="#63b8ff" points="862.04,-72.96 851.46,-73.48 860.05,-79.67 862.04,-72.96"/>
</a>
</g>
</g>
<!-- Node18 -->
<g id="Node000018" class="node">
<title>Node18</title>
<g id="a_Node000018"><a xlink:href="utils_8h.html" target="_top" xlink:title=" ">
<polygon fill="white" stroke="#666666" points="1353.5,-129 1275.5,-129 1275.5,-110 1353.5,-110 1353.5,-129"/>
<text text-anchor="middle" x="1314.5" y="-117" font-family="Helvetica,sans-Serif" font-size="10.00">realm/utils.h</text>
</a>
</g>
</g>
<!-- Node17&#45;&gt;Node18 -->
<g id="edge24_Node000017_Node000018" class="edge">
<title>Node17&#45;&gt;Node18</title>
<g id="a_edge24_Node000017_Node000018"><a xlink:title=" ">
<path fill="none" stroke="#63b8ff" d="M1209.58,-164.98C1229.87,-156.38 1261.46,-142.99 1284.67,-133.15"/>
<polygon fill="#63b8ff" stroke="#63b8ff" points="1286.21,-136.3 1294.05,-129.17 1283.48,-129.85 1286.21,-136.3"/>
</a>
</g>
</g>
<!-- Node24 -->
<g id="Node000024" class="node">
<title>Node24</title>
<g id="a_Node000024"><a xlink:href="atomics_8h.html" target="_top" xlink:title=" ">
<polygon fill="white" stroke="#666666" points="1257.5,-129 1161.5,-129 1161.5,-110 1257.5,-110 1257.5,-129"/>
<text text-anchor="middle" x="1209.5" y="-117" font-family="Helvetica,sans-Serif" font-size="10.00">realm/atomics.h</text>
</a>
</g>
</g>
<!-- Node17&#45;&gt;Node24 -->
<g id="edge34_Node000017_Node000024" class="edge">
<title>Node17&#45;&gt;Node24</title>
<g id="a_edge34_Node000017_Node000024"><a xlink:title=" ">
<path fill="none" stroke="#63b8ff" d="M1192.8,-164.75C1195.48,-157.65 1199.35,-147.4 1202.69,-138.56"/>
<polygon fill="#63b8ff" stroke="#63b8ff" points="1206,-139.68 1206.26,-129.09 1199.45,-137.21 1206,-139.68"/>
</a>
</g>
</g>
<!-- Node27 -->
<g id="Node000027" class="node">
<title>Node27</title>
<g id="a_Node000027"><a xlink:title=" ">
<polygon fill="#e0e0e0" stroke="#999999" points="1467,-129 1372,-129 1372,-110 1467,-110 1467,-129"/>
<text text-anchor="middle" x="1419.5" y="-117" font-family="Helvetica,sans-Serif" font-size="10.00">realm/mutex.inl</text>
</a>
</g>
</g>
<!-- Node17&#45;&gt;Node27 -->
<g id="edge39_Node000017_Node000027" class="edge">
<title>Node17&#45;&gt;Node27</title>
<g id="a_edge39_Node000017_Node000027"><a xlink:title=" ">
<path fill="none" stroke="#63b8ff" d="M1226.45,-164.98C1266.07,-155.86 1329.09,-141.33 1372.27,-131.38"/>
<polygon fill="#63b8ff" stroke="#63b8ff" points="1373.3,-134.74 1382.26,-129.08 1371.73,-127.92 1373.3,-134.74"/>
</a>
</g>
</g>
<!-- Node18&#45;&gt;Node3 -->
<g id="edge25_Node000018_Node000003" class="edge">
<title>Node18&#45;&gt;Node3</title>
<g id="a_edge25_Node000018_Node000003"><a xlink:title=" ">
<path fill="none" stroke="#63b8ff" d="M1275.47,-111.55C1272.44,-111.02 1269.42,-110.5 1266.5,-110 1195.12,-97.84 1113.08,-84.51 1057.93,-75.64"/>
<polygon fill="#63b8ff" stroke="#63b8ff" points="1058.38,-72.16 1047.95,-74.03 1057.27,-79.08 1058.38,-72.16"/>
</a>
</g>
</g>
<!-- Node18&#45;&gt;Node11 -->
<g id="edge26_Node000018_Node000011" class="edge">
<title>Node18&#45;&gt;Node11</title>
<g id="a_edge26_Node000018_Node000011"><a xlink:title=" ">
<path fill="none" stroke="#63b8ff" d="M1275.26,-111.17C1272.3,-110.74 1269.36,-110.34 1266.5,-110 1126.49,-93.44 683.75,-72.58 559.95,-66.95"/>
<polygon fill="#63b8ff" stroke="#63b8ff" points="559.77,-63.44 549.62,-66.49 559.46,-70.44 559.77,-63.44"/>
</a>
</g>
</g>
<!-- Node18&#45;&gt;Node13 -->
<g id="edge28_Node000018_Node000013" class="edge">
<title>Node18&#45;&gt;Node13</title>
<g id="a_edge28_Node000018_Node000013"><a xlink:title=" ">
<path fill="none" stroke="#63b8ff" d="M1275.24,-111.32C1272.29,-110.85 1269.35,-110.4 1266.5,-110 1118.84,-89.16 1077.25,-100.56 926.3,-73.86"/>
<polygon fill="#63b8ff" stroke="#63b8ff" points="926.66,-70.37 916.2,-72.05 925.42,-77.26 926.66,-70.37"/>
</a>
</g>
</g>
<!-- Node18&#45;&gt;Node15 -->
<g id="edge29_Node000018_Node000015" class="edge">
<title>Node18&#45;&gt;Node15</title>
<g id="a_edge29_Node000018_Node000015"><a xlink:title=" ">
<path fill="none" stroke="#63b8ff" d="M1353.52,-111.57C1356.9,-111.02 1360.26,-110.49 1363.5,-110 1483.44,-91.84 1517.89,-99.74 1640.2,-73.95"/>
<polygon fill="#63b8ff" stroke="#63b8ff" points="1641.29,-77.29 1650.33,-71.78 1639.82,-70.45 1641.29,-77.29"/>
</a>
</g>
</g>
<!-- Node19 -->
<g id="Node000019" class="node">
<title>Node19</title>
<g id="a_Node000019"><a xlink:title=" ">
<polygon fill="#e0e0e0" stroke="#999999" points="1562,-74 1505,-74 1505,-55 1562,-55 1562,-74"/>
<text text-anchor="middle" x="1533.5" y="-62" font-family="Helvetica,sans-Serif" font-size="10.00">ostream</text>
</a>
</g>
</g>
<!-- Node18&#45;&gt;Node19 -->
<g id="edge27_Node000018_Node000019" class="edge">
<title>Node18&#45;&gt;Node19</title>
<g id="a_edge27_Node000018_Node000019"><a xlink:title=" ">
<path fill="none" stroke="#63b8ff" d="M1349.69,-109.98C1389.37,-100.38 1453.7,-84.81 1494.78,-74.87"/>
<polygon fill="#63b8ff" stroke="#63b8ff" points="1495.8,-78.23 1504.69,-72.47 1494.15,-71.42 1495.8,-78.23"/>
</a>
</g>
</g>
<!-- Node20 -->
<g id="Node000020" class="node">
<title>Node20</title>
<g id="a_Node000020"><a xlink:title=" ">
<polygon fill="#e0e0e0" stroke="#999999" points="1632.5,-74 1580.5,-74 1580.5,-55 1632.5,-55 1632.5,-74"/>
<text text-anchor="middle" x="1606.5" y="-62" font-family="Helvetica,sans-Serif" font-size="10.00">cassert</text>
</a>
</g>
</g>
<!-- Node18&#45;&gt;Node20 -->
<g id="edge30_Node000018_Node000020" class="edge">
<title>Node18&#45;&gt;Node20</title>
<g id="a_edge30_Node000018_Node000020"><a xlink:title=" ">
<path fill="none" stroke="#63b8ff" d="M1353.55,-111.72C1356.91,-111.14 1360.27,-110.56 1363.5,-110 1452.78,-94.53 1477.94,-93.16 1570.12,-74.18"/>
<polygon fill="#63b8ff" stroke="#63b8ff" points="1571.09,-77.55 1580.17,-72.09 1569.67,-70.7 1571.09,-77.55"/>
</a>
</g>
</g>
<!-- Node21 -->
<g id="Node000021" class="node">
<title>Node21</title>
<g id="a_Node000021"><a xlink:title=" ">
<polygon fill="#e0e0e0" stroke="#999999" points="1310.5,-74 1260.5,-74 1260.5,-55 1310.5,-55 1310.5,-74"/>
<text text-anchor="middle" x="1285.5" y="-62" font-family="Helvetica,sans-Serif" font-size="10.00">cstdint</text>
</a>
</g>
</g>
<!-- Node18&#45;&gt;Node21 -->
<g id="edge31_Node000018_Node000021" class="edge">
<title>Node18&#45;&gt;Node21</title>
<g id="a_edge31_Node000018_Node000021"><a xlink:title=" ">
<path fill="none" stroke="#63b8ff" d="M1309.71,-109.75C1305.74,-102.49 1299.97,-91.95 1295.07,-82.98"/>
<polygon fill="#63b8ff" stroke="#63b8ff" points="1298.07,-81.18 1290.2,-74.09 1291.93,-84.54 1298.07,-81.18"/>
</a>
</g>
</g>
<!-- Node22 -->
<g id="Node000022" class="node">
<title>Node22</title>
<g id="a_Node000022"><a xlink:title=" ">
<polygon fill="#e0e0e0" stroke="#999999" points="1384.5,-74 1328.5,-74 1328.5,-55 1384.5,-55 1384.5,-74"/>
<text text-anchor="middle" x="1356.5" y="-62" font-family="Helvetica,sans-Serif" font-size="10.00">sstream</text>
</a>
</g>
</g>
<!-- Node18&#45;&gt;Node22 -->
<g id="edge32_Node000018_Node000022" class="edge">
<title>Node18&#45;&gt;Node22</title>
<g id="a_edge32_Node000018_Node000022"><a xlink:title=" ">
<path fill="none" stroke="#63b8ff" d="M1321.44,-109.75C1327.37,-102.26 1336.07,-91.28 1343.32,-82.13"/>
<polygon fill="#63b8ff" stroke="#63b8ff" points="1346.23,-84.1 1349.69,-74.09 1340.74,-79.75 1346.23,-84.1"/>
</a>
</g>
</g>
<!-- Node23 -->
<g id="Node000023" class="node">
<title>Node23</title>
<g id="a_Node000023"><a xlink:title=" ">
<polygon fill="#e0e0e0" stroke="#999999" points="1486.5,-74 1402.5,-74 1402.5,-55 1486.5,-55 1486.5,-74"/>
<text text-anchor="middle" x="1444.5" y="-62" font-family="Helvetica,sans-Serif" font-size="10.00">realm/utils.inl</text>
</a>
</g>
</g>
<!-- Node18&#45;&gt;Node23 -->
<g id="edge33_Node000018_Node000023" class="edge">
<title>Node18&#45;&gt;Node23</title>
<g id="a_edge33_Node000018_Node000023"><a xlink:title=" ">
<path fill="none" stroke="#63b8ff" d="M1335.39,-109.98C1356.58,-101.34 1389.63,-87.87 1413.8,-78.02"/>
<polygon fill="#63b8ff" stroke="#63b8ff" points="1415.29,-81.19 1423.23,-74.17 1412.65,-74.7 1415.29,-81.19"/>
</a>
</g>
</g>
<!-- Node24&#45;&gt;Node3 -->
<g id="edge35_Node000024_Node000003" class="edge">
<title>Node24&#45;&gt;Node3</title>
<g id="a_edge35_Node000024_Node000003"><a xlink:title=" ">
<path fill="none" stroke="#63b8ff" d="M1174.96,-109.98C1138.08,-100.89 1079.51,-86.46 1039.16,-76.51"/>
<polygon fill="#63b8ff" stroke="#63b8ff" points="1039.86,-73.08 1029.31,-74.08 1038.19,-79.87 1039.86,-73.08"/>
</a>
</g>
</g>
<!-- Node25 -->
<g id="Node000025" class="node">
<title>Node25</title>
<g id="a_Node000025"><a xlink:title=" ">
<polygon fill="#e0e0e0" stroke="#999999" points="1122.5,-74 1072.5,-74 1072.5,-55 1122.5,-55 1122.5,-74"/>
<text text-anchor="middle" x="1097.5" y="-62" font-family="Helvetica,sans-Serif" font-size="10.00">atomic</text>
</a>
</g>
</g>
<!-- Node24&#45;&gt;Node25 -->
<g id="edge36_Node000024_Node000025" class="edge">
<title>Node24&#45;&gt;Node25</title>
<g id="a_edge36_Node000024_Node000025"><a xlink:title=" ">
<path fill="none" stroke="#63b8ff" d="M1191.51,-109.98C1173.57,-101.5 1145.78,-88.35 1125.07,-78.54"/>
<polygon fill="#63b8ff" stroke="#63b8ff" points="1126.36,-75.28 1115.82,-74.17 1123.36,-81.61 1126.36,-75.28"/>
</a>
</g>
</g>
<!-- Node26 -->
<g id="Node000026" class="node">
<title>Node26</title>
<g id="a_Node000026"><a xlink:title=" ">
<polygon fill="#e0e0e0" stroke="#999999" points="1242.5,-74 1140.5,-74 1140.5,-55 1242.5,-55 1242.5,-74"/>
<text text-anchor="middle" x="1191.5" y="-62" font-family="Helvetica,sans-Serif" font-size="10.00">realm/atomics.inl</text>
</a>
</g>
</g>
<!-- Node24&#45;&gt;Node26 -->
<g id="edge37_Node000024_Node000026" class="edge">
<title>Node24&#45;&gt;Node26</title>
<g id="a_edge37_Node000024_Node000026"><a xlink:title=" ">
<path fill="none" stroke="#63b8ff" d="M1206.53,-109.75C1204.14,-102.72 1200.71,-92.62 1197.73,-83.84"/>
<polygon fill="#63b8ff" stroke="#63b8ff" points="1200.95,-82.43 1194.42,-74.09 1194.32,-84.68 1200.95,-82.43"/>
</a>
</g>
</g>
<!-- Node30&#45;&gt;Node8 -->
<g id="edge44_Node000030_Node000008" class="edge">
<title>Node30&#45;&gt;Node8</title>
<g id="a_edge44_Node000030_Node000008"><a xlink:title=" ">
<path fill="none" stroke="#63b8ff" d="M323.08,-164.98C348.55,-156.16 388.54,-142.31 417.13,-132.41"/>
<polygon fill="#63b8ff" stroke="#63b8ff" points="418.42,-135.66 426.73,-129.08 416.13,-129.05 418.42,-135.66"/>
</a>
</g>
</g>
<!-- Node30&#45;&gt;Node9 -->
<g id="edge45_Node000030_Node000009" class="edge">
<title>Node30&#45;&gt;Node9</title>
<g id="a_edge45_Node000030_Node000009"><a xlink:title=" ">
<path fill="none" stroke="#63b8ff" d="M257.77,-164.93C236.23,-158.44 210.91,-147.39 194.5,-129 183.61,-116.79 178.95,-98.56 176.97,-84.75"/>
<polygon fill="#63b8ff" stroke="#63b8ff" points="180.41,-84 175.85,-74.43 173.45,-84.75 180.41,-84"/>
</a>
</g>
</g>
<!-- Node31 -->
<g id="Node000031" class="node">
<title>Node31</title>
<g id="a_Node000031"><a xlink:title=" ">
<polygon fill="#e0e0e0" stroke="#999999" points="347.5,-129 287.5,-129 287.5,-110 347.5,-110 347.5,-129"/>
<text text-anchor="middle" x="317.5" y="-117" font-family="Helvetica,sans-Serif" font-size="10.00">iostream</text>
</a>
</g>
</g>
<!-- Node30&#45;&gt;Node31 -->
<g id="edge46_Node000030_Node000031" class="edge">
<title>Node30&#45;&gt;Node31</title>
<g id="a_edge46_Node000030_Node000031"><a xlink:title=" ">
<path fill="none" stroke="#63b8ff" d="M301.64,-164.75C304.18,-157.65 307.86,-147.4 311.03,-138.56"/>
<polygon fill="#63b8ff" stroke="#63b8ff" points="314.34,-139.68 314.42,-129.09 307.75,-137.32 314.34,-139.68"/>
</a>
</g>
</g>
<!-- Node32 -->
<g id="Node000032" class="node">
<title>Node32</title>
<g id="a_Node000032"><a xlink:title=" ">
<polygon fill="#e0e0e0" stroke="#999999" points="269,-129 204,-129 204,-110 269,-110 269,-129"/>
<text text-anchor="middle" x="236.5" y="-117" font-family="Helvetica,sans-Serif" font-size="10.00">functional</text>
</a>
</g>
</g>
<!-- Node30&#45;&gt;Node32 -->
<g id="edge47_Node000030_Node000032" class="edge">
<title>Node30&#45;&gt;Node32</title>
<g id="a_edge47_Node000030_Node000032"><a xlink:title=" ">
<path fill="none" stroke="#63b8ff" d="M288.54,-164.98C279.37,-157.15 265.56,-145.34 254.47,-135.86"/>
<polygon fill="#63b8ff" stroke="#63b8ff" points="256.52,-133.01 246.64,-129.17 251.97,-138.33 256.52,-133.01"/>
</a>
</g>
</g>
<!-- Node33&#45;&gt;Node9 -->
<g id="edge49_Node000033_Node000009" class="edge">
<title>Node33&#45;&gt;Node9</title>
<g id="a_edge49_Node000033_Node000009"><a xlink:title=" ">
<path fill="none" stroke="#63b8ff" d="M139.54,-219.74C145.5,-194.2 162.93,-119.43 171.13,-84.23"/>
<polygon fill="#63b8ff" stroke="#63b8ff" points="174.58,-84.84 173.45,-74.31 167.77,-83.25 174.58,-84.84"/>
</a>
</g>
</g>
<!-- Node34 -->
<g id="Node000034" class="node">
<title>Node34</title>
<g id="a_Node000034"><a xlink:title=" ">
<polygon fill="#e0e0e0" stroke="#999999" points="109,-184 0,-184 0,-165 109,-165 109,-184"/>
<text text-anchor="middle" x="54.5" y="-172" font-family="Helvetica,sans-Serif" font-size="10.00">realm/bytearray.inl</text>
</a>
</g>
</g>
<!-- Node33&#45;&gt;Node34 -->
<g id="edge50_Node000033_Node000034" class="edge">
<title>Node33&#45;&gt;Node34</title>
<g id="a_edge50_Node000033_Node000034"><a xlink:title=" ">
<path fill="none" stroke="#63b8ff" d="M124.16,-219.98C111.41,-211.84 91.95,-199.41 76.83,-189.76"/>
<polygon fill="#63b8ff" stroke="#63b8ff" points="78.39,-186.6 68.08,-184.17 74.62,-192.5 78.39,-186.6"/>
</a>
</g>
</g>
</g>
</svg>
