<?xml version="1.0" encoding="UTF-8" standalone="no"?>
<!DOCTYPE svg PUBLIC "-//W3C//DTD SVG 1.1//EN"
 "http://www.w3.org/Graphics/SVG/1.1/DTD/svg11.dtd">
<!-- Generated by graphviz version 2.43.0 (0)
 -->
<!-- Title: /home/runner/work/realm/realm/realm&#45;src/src/realm/gasnetex/gasnetex_module.h Pages: 1 -->
<svg width="1564pt" height="379pt"
 viewBox="0.00 0.00 1563.50 379.00" xmlns="http://www.w3.org/2000/svg" xmlns:xlink="http://www.w3.org/1999/xlink">
<g id="graph0" class="graph" transform="scale(1 1) rotate(0) translate(4 375)">
<title>/home/runner/work/realm/realm/realm&#45;src/src/realm/gasnetex/gasnetex_module.h</title>
<!-- Node1 -->
<g id="Node000001" class="node">
<title>Node1</title>
<g id="a_Node000001"><a xlink:title=" ">
<polygon fill="#999999" stroke="#666666" points="1233,-371 1069,-371 1069,-330 1233,-330 1233,-371"/>
<text text-anchor="start" x="1077" y="-359" font-family="Helvetica,sans-Serif" font-size="10.00">/home/runner/work/realm</text>
<text text-anchor="start" x="1077" y="-348" font-family="Helvetica,sans-Serif" font-size="10.00">/realm/realm&#45;src/src/realm</text>
<text text-anchor="middle" x="1151" y="-337" font-family="Helvetica,sans-Serif" font-size="10.00">/gasnetex/gasnetex_module.h</text>
</a>
</g>
</g>
<!-- Node2 -->
<g id="Node000002" class="node">
<title>Node2</title>
<g id="a_Node000002"><a xlink:href="network_8h.html" target="_top" xlink:title=" ">
<polygon fill="white" stroke="#666666" points="1199.5,-294 1102.5,-294 1102.5,-275 1199.5,-275 1199.5,-294"/>
<text text-anchor="middle" x="1151" y="-282" font-family="Helvetica,sans-Serif" font-size="10.00">realm/network.h</text>
</a>
</g>
</g>
<!-- Node1&#45;&gt;Node2 -->
<g id="edge1_Node000001_Node000002" class="edge">
<title>Node1&#45;&gt;Node2</title>
<g id="a_edge1_Node000001_Node000002"><a xlink:title=" ">
<path fill="none" stroke="#63b8ff" d="M1151,-329.95C1151,-321.85 1151,-312.5 1151,-304.47"/>
<polygon fill="#63b8ff" stroke="#63b8ff" points="1154.5,-304.26 1151,-294.26 1147.5,-304.26 1154.5,-304.26"/>
</a>
</g>
</g>
<!-- Node3 -->
<g id="Node000003" class="node">
<title>Node3</title>
<g id="a_Node000003"><a xlink:href="realm__config_8h.html" target="_top" xlink:title=" ">
<polygon fill="white" stroke="#666666" points="957,-74 837,-74 837,-55 957,-55 957,-74"/>
<text text-anchor="middle" x="897" y="-62" font-family="Helvetica,sans-Serif" font-size="10.00">realm/realm_config.h</text>
</a>
</g>
</g>
<!-- Node2&#45;&gt;Node3 -->
<g id="edge2_Node000002_Node000003" class="edge">
<title>Node2&#45;&gt;Node3</title>
<g id="a_edge2_Node000002_Node000003"><a xlink:title=" ">
<path fill="none" stroke="#63b8ff" d="M1199.66,-279.48C1287.46,-270.23 1458.54,-242.01 1405,-165 1364.94,-107.38 1325.17,-126.64 1257,-110 1256.12,-109.79 1071.75,-87.04 967.24,-74.16"/>
<polygon fill="#63b8ff" stroke="#63b8ff" points="967.43,-70.65 957.07,-72.9 966.57,-77.6 967.43,-70.65"/>
</a>
</g>
</g>
<!-- Node6 -->
<g id="Node000006" class="node">
<title>Node6</title>
<g id="a_Node000006"><a xlink:href="module_8h.html" target="_top" xlink:title=" ">
<polygon fill="white" stroke="#666666" points="433,-184 339,-184 339,-165 433,-165 433,-184"/>
<text text-anchor="middle" x="386" y="-172" font-family="Helvetica,sans-Serif" font-size="10.00">realm/module.h</text>
</a>
</g>
</g>
<!-- Node2&#45;&gt;Node6 -->
<g id="edge5_Node000002_Node000006" class="edge">
<title>Node2&#45;&gt;Node6</title>
<g id="a_edge5_Node000002_Node000006"><a xlink:title=" ">
<path fill="none" stroke="#63b8ff" d="M1102.33,-282.29C953.83,-278.32 513.11,-264.51 454,-239 430.69,-228.94 410.38,-207.3 398.16,-192.09"/>
<polygon fill="#63b8ff" stroke="#63b8ff" points="400.82,-189.8 391.94,-184.01 395.27,-194.07 400.82,-189.8"/>
</a>
</g>
</g>
<!-- Node12 -->
<g id="Node000012" class="node">
<title>Node12</title>
<g id="a_Node000012"><a xlink:title=" ">
<polygon fill="#e0e0e0" stroke="#999999" points="429,-74 391,-74 391,-55 429,-55 429,-74"/>
<text text-anchor="middle" x="410" y="-62" font-family="Helvetica,sans-Serif" font-size="10.00">map</text>
</a>
</g>
</g>
<!-- Node2&#45;&gt;Node12 -->
<g id="edge49_Node000002_Node000012" class="edge">
<title>Node2&#45;&gt;Node12</title>
<g id="a_edge49_Node000002_Node000012"><a xlink:title=" ">
<path fill="none" stroke="#63b8ff" d="M1102.4,-280.56C1035.06,-275.74 909.91,-264.06 806,-239 665.51,-205.11 628.2,-195.71 500,-129 473.56,-115.25 445.96,-94.71 428.41,-80.74"/>
<polygon fill="#63b8ff" stroke="#63b8ff" points="430.18,-77.67 420.21,-74.11 425.78,-83.11 430.18,-77.67"/>
</a>
</g>
</g>
<!-- Node13 -->
<g id="Node000013" class="node">
<title>Node13</title>
<g id="a_Node000013"><a xlink:href="nodeset_8h.html" target="_top" xlink:title=" ">
<polygon fill="white" stroke="#666666" points="911,-239 815,-239 815,-220 911,-220 911,-239"/>
<text text-anchor="middle" x="863" y="-227" font-family="Helvetica,sans-Serif" font-size="10.00">realm/nodeset.h</text>
</a>
</g>
</g>
<!-- Node2&#45;&gt;Node13 -->
<g id="edge16_Node000002_Node000013" class="edge">
<title>Node2&#45;&gt;Node13</title>
<g id="a_edge16_Node000002_Node000013"><a xlink:title=" ">
<path fill="none" stroke="#63b8ff" d="M1104.73,-274.98C1054.39,-265.72 973.88,-250.9 919.76,-240.94"/>
<polygon fill="#63b8ff" stroke="#63b8ff" points="920.1,-237.45 909.63,-239.08 918.84,-244.33 920.1,-237.45"/>
</a>
</g>
</g>
<!-- Node28 -->
<g id="Node000028" class="node">
<title>Node28</title>
<g id="a_Node000028"><a xlink:href="memory_8h.html" target="_top" xlink:title=" ">
<polygon fill="white" stroke="#666666" points="1199.5,-239 1102.5,-239 1102.5,-220 1199.5,-220 1199.5,-239"/>
<text text-anchor="middle" x="1151" y="-227" font-family="Helvetica,sans-Serif" font-size="10.00">realm/memory.h</text>
</a>
</g>
</g>
<!-- Node2&#45;&gt;Node28 -->
<g id="edge39_Node000002_Node000028" class="edge">
<title>Node2&#45;&gt;Node28</title>
<g id="a_edge39_Node000002_Node000028"><a xlink:title=" ">
<path fill="none" stroke="#63b8ff" d="M1151,-274.75C1151,-267.8 1151,-257.85 1151,-249.13"/>
<polygon fill="#63b8ff" stroke="#63b8ff" points="1154.5,-249.09 1151,-239.09 1147.5,-249.09 1154.5,-249.09"/>
</a>
</g>
</g>
<!-- Node32 -->
<g id="Node000032" class="node">
<title>Node32</title>
<g id="a_Node000032"><a xlink:href="bytearray_8h.html" target="_top" xlink:title=" ">
<polygon fill="white" stroke="#666666" points="1320.5,-239 1217.5,-239 1217.5,-220 1320.5,-220 1320.5,-239"/>
<text text-anchor="middle" x="1269" y="-227" font-family="Helvetica,sans-Serif" font-size="10.00">realm/bytearray.h</text>
</a>
</g>
</g>
<!-- Node2&#45;&gt;Node32 -->
<g id="edge46_Node000002_Node000032" class="edge">
<title>Node2&#45;&gt;Node32</title>
<g id="a_edge46_Node000002_Node000032"><a xlink:title=" ">
<path fill="none" stroke="#63b8ff" d="M1169.96,-274.98C1189.03,-266.42 1218.66,-253.11 1240.55,-243.28"/>
<polygon fill="#63b8ff" stroke="#63b8ff" points="1242.01,-246.46 1249.7,-239.17 1239.14,-240.07 1242.01,-246.46"/>
</a>
</g>
</g>
<!-- Node34 -->
<g id="Node000034" class="node">
<title>Node34</title>
<g id="a_Node000034"><a xlink:title=" ">
<polygon fill="#e0e0e0" stroke="#999999" points="1555.5,-239 1452.5,-239 1452.5,-220 1555.5,-220 1555.5,-239"/>
<text text-anchor="middle" x="1504" y="-227" font-family="Helvetica,sans-Serif" font-size="10.00">realm/network.inl</text>
</a>
</g>
</g>
<!-- Node2&#45;&gt;Node34 -->
<g id="edge50_Node000002_Node000034" class="edge">
<title>Node2&#45;&gt;Node34</title>
<g id="a_edge50_Node000002_Node000034"><a xlink:title=" ">
<path fill="none" stroke="#63b8ff" d="M1199.71,-276.19C1262.86,-266.71 1373.03,-250.16 1442.06,-239.8"/>
<polygon fill="#63b8ff" stroke="#63b8ff" points="1442.98,-243.2 1452.35,-238.25 1441.94,-236.28 1442.98,-243.2"/>
</a>
</g>
</g>
<!-- Node4 -->
<g id="Node000004" class="node">
<title>Node4</title>
<g id="a_Node000004"><a xlink:href="realm__defines_8h.html" target="_top" xlink:title=" ">
<polygon fill="white" stroke="#666666" points="875.5,-19 780.5,-19 780.5,0 875.5,0 875.5,-19"/>
<text text-anchor="middle" x="828" y="-7" font-family="Helvetica,sans-Serif" font-size="10.00">realm_defines.h</text>
</a>
</g>
</g>
<!-- Node3&#45;&gt;Node4 -->
<g id="edge3_Node000003_Node000004" class="edge">
<title>Node3&#45;&gt;Node4</title>
<g id="a_edge3_Node000003_Node000004"><a xlink:title=" ">
<path fill="none" stroke="#63b8ff" d="M885.91,-54.98C875.51,-47 859.74,-34.88 847.28,-25.31"/>
<polygon fill="#63b8ff" stroke="#63b8ff" points="849.35,-22.49 839.29,-19.17 845.09,-28.04 849.35,-22.49"/>
</a>
</g>
</g>
<!-- Node5 -->
<g id="Node000005" class="node">
<title>Node5</title>
<g id="a_Node000005"><a xlink:href="compiler__support_8h.html" target="_top" xlink:title=" ">
<polygon fill="white" stroke="#666666" points="1036,-19 894,-19 894,0 1036,0 1036,-19"/>
<text text-anchor="middle" x="965" y="-7" font-family="Helvetica,sans-Serif" font-size="10.00">realm/compiler_support.h</text>
</a>
</g>
</g>
<!-- Node3&#45;&gt;Node5 -->
<g id="edge4_Node000003_Node000005" class="edge">
<title>Node3&#45;&gt;Node5</title>
<g id="a_edge4_Node000003_Node000005"><a xlink:title=" ">
<path fill="none" stroke="#63b8ff" d="M907.93,-54.98C918.08,-47.07 933.42,-35.11 945.65,-25.58"/>
<polygon fill="#63b8ff" stroke="#63b8ff" points="948.14,-28.08 953.88,-19.17 943.84,-22.56 948.14,-28.08"/>
</a>
</g>
</g>
<!-- Node6&#45;&gt;Node3 -->
<g id="edge6_Node000006_Node000003" class="edge">
<title>Node6&#45;&gt;Node3</title>
<g id="a_edge6_Node000006_Node000003"><a xlink:title=" ">
<path fill="none" stroke="#63b8ff" d="M433.02,-166.41C476.06,-159.24 541.21,-146.7 596,-129 615.88,-122.58 619,-116.04 639,-110 673.38,-99.61 763.65,-85.09 827.69,-75.5"/>
<polygon fill="#63b8ff" stroke="#63b8ff" points="828.35,-78.94 837.73,-74 827.32,-72.01 828.35,-78.94"/>
</a>
</g>
</g>
<!-- Node7 -->
<g id="Node000007" class="node">
<title>Node7</title>
<g id="a_Node000007"><a xlink:href="module__config_8h.html" target="_top" xlink:title=" ">
<polygon fill="white" stroke="#666666" points="354,-129 226,-129 226,-110 354,-110 354,-129"/>
<text text-anchor="middle" x="290" y="-117" font-family="Helvetica,sans-Serif" font-size="10.00">realm/module_config.h</text>
</a>
</g>
</g>
<!-- Node6&#45;&gt;Node7 -->
<g id="edge7_Node000006_Node000007" class="edge">
<title>Node6&#45;&gt;Node7</title>
<g id="a_edge7_Node000006_Node000007"><a xlink:title=" ">
<path fill="none" stroke="#63b8ff" d="M370.58,-164.98C355.55,-156.69 332.46,-143.94 314.84,-134.22"/>
<polygon fill="#63b8ff" stroke="#63b8ff" points="316.15,-130.94 305.7,-129.17 312.77,-137.07 316.15,-130.94"/>
</a>
</g>
</g>
<!-- Node8 -->
<g id="Node000008" class="node">
<title>Node8</title>
<g id="a_Node000008"><a xlink:title=" ">
<polygon fill="#e0e0e0" stroke="#999999" points="373,-74 329,-74 329,-55 373,-55 373,-74"/>
<text text-anchor="middle" x="351" y="-62" font-family="Helvetica,sans-Serif" font-size="10.00">string</text>
</a>
</g>
</g>
<!-- Node6&#45;&gt;Node8 -->
<g id="edge14_Node000006_Node000008" class="edge">
<title>Node6&#45;&gt;Node8</title>
<g id="a_edge14_Node000006_Node000008"><a xlink:title=" ">
<path fill="none" stroke="#63b8ff" d="M383.14,-164.66C377.44,-147.09 364.59,-107.45 356.98,-83.95"/>
<polygon fill="#63b8ff" stroke="#63b8ff" points="360.22,-82.59 353.81,-74.16 353.56,-84.75 360.22,-82.59"/>
</a>
</g>
</g>
<!-- Node10 -->
<g id="Node000010" class="node">
<title>Node10</title>
<g id="a_Node000010"><a xlink:title=" ">
<polygon fill="#e0e0e0" stroke="#999999" points="310.5,-74 263.5,-74 263.5,-55 310.5,-55 310.5,-74"/>
<text text-anchor="middle" x="287" y="-62" font-family="Helvetica,sans-Serif" font-size="10.00">vector</text>
</a>
</g>
</g>
<!-- Node6&#45;&gt;Node10 -->
<g id="edge13_Node000006_Node000010" class="edge">
<title>Node6&#45;&gt;Node10</title>
<g id="a_edge13_Node000006_Node000010"><a xlink:title=" ">
<path fill="none" stroke="#63b8ff" d="M338.78,-167.53C294.13,-160.8 231.82,-148.22 217,-129 201.63,-109.06 229.82,-90.22 254.88,-78.32"/>
<polygon fill="#63b8ff" stroke="#63b8ff" points="256.55,-81.4 264.23,-74.11 253.68,-75.02 256.55,-81.4"/>
</a>
</g>
</g>
<!-- Node6&#45;&gt;Node12 -->
<g id="edge15_Node000006_Node000012" class="edge">
<title>Node6&#45;&gt;Node12</title>
<g id="a_edge15_Node000006_Node000012"><a xlink:title=" ">
<path fill="none" stroke="#63b8ff" d="M387.93,-164.97C389.95,-156.02 393.21,-141.52 396,-129 399.38,-113.83 403.17,-96.61 405.96,-83.93"/>
<polygon fill="#63b8ff" stroke="#63b8ff" points="409.38,-84.65 408.11,-74.13 402.55,-83.15 409.38,-84.65"/>
</a>
</g>
</g>
<!-- Node7&#45;&gt;Node3 -->
<g id="edge8_Node000007_Node000003" class="edge">
<title>Node7&#45;&gt;Node3</title>
<g id="a_edge8_Node000007_Node000003"><a xlink:title=" ">
<path fill="none" stroke="#63b8ff" d="M354.26,-114.02C453.36,-106.93 649.7,-92.14 826.78,-74.09"/>
<polygon fill="#63b8ff" stroke="#63b8ff" points="827.21,-77.56 836.81,-73.06 826.5,-70.6 827.21,-77.56"/>
</a>
</g>
</g>
<!-- Node7&#45;&gt;Node8 -->
<g id="edge9_Node000007_Node000008" class="edge">
<title>Node7&#45;&gt;Node8</title>
<g id="a_edge9_Node000007_Node000008"><a xlink:title=" ">
<path fill="none" stroke="#63b8ff" d="M299.8,-109.98C308.82,-102.15 322.41,-90.34 333.32,-80.86"/>
<polygon fill="#63b8ff" stroke="#63b8ff" points="335.77,-83.37 341.02,-74.17 331.18,-78.09 335.77,-83.37"/>
</a>
</g>
</g>
<!-- Node9 -->
<g id="Node000009" class="node">
<title>Node9</title>
<g id="a_Node000009"><a xlink:title=" ">
<polygon fill="#e0e0e0" stroke="#999999" points="245.5,-74 152.5,-74 152.5,-55 245.5,-55 245.5,-74"/>
<text text-anchor="middle" x="199" y="-62" font-family="Helvetica,sans-Serif" font-size="10.00">unordered_map</text>
</a>
</g>
</g>
<!-- Node7&#45;&gt;Node9 -->
<g id="edge10_Node000007_Node000009" class="edge">
<title>Node7&#45;&gt;Node9</title>
<g id="a_edge10_Node000007_Node000009"><a xlink:title=" ">
<path fill="none" stroke="#63b8ff" d="M275.38,-109.98C261.14,-101.69 239.25,-88.94 222.55,-79.22"/>
<polygon fill="#63b8ff" stroke="#63b8ff" points="224.29,-76.18 213.89,-74.17 220.77,-82.23 224.29,-76.18"/>
</a>
</g>
</g>
<!-- Node7&#45;&gt;Node10 -->
<g id="edge11_Node000007_Node000010" class="edge">
<title>Node7&#45;&gt;Node10</title>
<g id="a_edge11_Node000007_Node000010"><a xlink:title=" ">
<path fill="none" stroke="#63b8ff" d="M289.5,-109.75C289.11,-102.8 288.55,-92.85 288.05,-84.13"/>
<polygon fill="#63b8ff" stroke="#63b8ff" points="291.55,-83.88 287.49,-74.09 284.56,-84.27 291.55,-83.88"/>
</a>
</g>
</g>
<!-- Node11 -->
<g id="Node000011" class="node">
<title>Node11</title>
<g id="a_Node000011"><a xlink:title=" ">
<polygon fill="#e0e0e0" stroke="#999999" points="134,-74 0,-74 0,-55 134,-55 134,-74"/>
<text text-anchor="middle" x="67" y="-62" font-family="Helvetica,sans-Serif" font-size="10.00">realm/module_config.inl</text>
</a>
</g>
</g>
<!-- Node7&#45;&gt;Node11 -->
<g id="edge12_Node000007_Node000011" class="edge">
<title>Node7&#45;&gt;Node11</title>
<g id="a_edge12_Node000007_Node000011"><a xlink:title=" ">
<path fill="none" stroke="#63b8ff" d="M254.17,-109.98C215.84,-100.87 154.92,-86.4 113.05,-76.45"/>
<polygon fill="#63b8ff" stroke="#63b8ff" points="113.65,-72.99 103.11,-74.08 112.03,-79.8 113.65,-72.99"/>
</a>
</g>
</g>
<!-- Node13&#45;&gt;Node3 -->
<g id="edge17_Node000013_Node000003" class="edge">
<title>Node13&#45;&gt;Node3</title>
<g id="a_edge17_Node000013_Node000003"><a xlink:title=" ">
<path fill="none" stroke="#63b8ff" d="M814.7,-223.87C764.42,-217.94 690.56,-205.74 673,-184 652.33,-158.41 651.12,-135.41 672,-110 681.92,-97.92 764.31,-83.92 826.54,-74.9"/>
<polygon fill="#63b8ff" stroke="#63b8ff" points="827.33,-78.32 836.73,-73.44 826.34,-71.39 827.33,-78.32"/>
</a>
</g>
</g>
<!-- Node14 -->
<g id="Node000014" class="node">
<title>Node14</title>
<g id="a_Node000014"><a xlink:href="mutex_8h.html" target="_top" xlink:title=" ">
<polygon fill="white" stroke="#666666" points="770.5,-184 681.5,-184 681.5,-165 770.5,-165 770.5,-184"/>
<text text-anchor="middle" x="726" y="-172" font-family="Helvetica,sans-Serif" font-size="10.00">realm/mutex.h</text>
</a>
</g>
</g>
<!-- Node13&#45;&gt;Node14 -->
<g id="edge18_Node000013_Node000014" class="edge">
<title>Node13&#45;&gt;Node14</title>
<g id="a_edge18_Node000013_Node000014"><a xlink:title=" ">
<path fill="none" stroke="#63b8ff" d="M840.99,-219.98C818.55,-211.3 783.52,-197.75 758.01,-187.88"/>
<polygon fill="#63b8ff" stroke="#63b8ff" points="759,-184.51 748.41,-184.17 756.48,-191.04 759,-184.51"/>
</a>
</g>
</g>
<!-- Node24 -->
<g id="Node000024" class="node">
<title>Node24</title>
<g id="a_Node000024"><a xlink:title=" ">
<polygon fill="#e0e0e0" stroke="#999999" points="1016.5,-129 963.5,-129 963.5,-110 1016.5,-110 1016.5,-129"/>
<text text-anchor="middle" x="990" y="-117" font-family="Helvetica,sans-Serif" font-size="10.00">stdint.h</text>
</a>
</g>
</g>
<!-- Node13&#45;&gt;Node24 -->
<g id="edge36_Node000013_Node000024" class="edge">
<title>Node13&#45;&gt;Node24</title>
<g id="a_edge36_Node000013_Node000024"><a xlink:title=" ">
<path fill="none" stroke="#63b8ff" d="M906.61,-219.93C928.68,-213.49 954.27,-202.5 971,-184 982.1,-171.73 986.72,-153.22 988.65,-139.34"/>
<polygon fill="#63b8ff" stroke="#63b8ff" points="992.17,-139.32 989.71,-129.02 985.2,-138.61 992.17,-139.32"/>
</a>
</g>
</g>
<!-- Node26 -->
<g id="Node000026" class="node">
<title>Node26</title>
<g id="a_Node000026"><a xlink:title=" ">
<polygon fill="#e0e0e0" stroke="#999999" points="841.5,-184 788.5,-184 788.5,-165 841.5,-165 841.5,-184"/>
<text text-anchor="middle" x="815" y="-172" font-family="Helvetica,sans-Serif" font-size="10.00">iterator</text>
</a>
</g>
</g>
<!-- Node13&#45;&gt;Node26 -->
<g id="edge37_Node000013_Node000026" class="edge">
<title>Node13&#45;&gt;Node26</title>
<g id="a_edge37_Node000013_Node000026"><a xlink:title=" ">
<path fill="none" stroke="#63b8ff" d="M855.07,-219.75C848.15,-212.11 837.93,-200.82 829.55,-191.56"/>
<polygon fill="#63b8ff" stroke="#63b8ff" points="832.09,-189.15 822.78,-184.09 826.9,-193.85 832.09,-189.15"/>
</a>
</g>
</g>
<!-- Node27 -->
<g id="Node000027" class="node">
<title>Node27</title>
<g id="a_Node000027"><a xlink:title=" ">
<polygon fill="#e0e0e0" stroke="#999999" points="962,-184 860,-184 860,-165 962,-165 962,-184"/>
<text text-anchor="middle" x="911" y="-172" font-family="Helvetica,sans-Serif" font-size="10.00">realm/nodeset.inl</text>
</a>
</g>
</g>
<!-- Node13&#45;&gt;Node27 -->
<g id="edge38_Node000013_Node000027" class="edge">
<title>Node13&#45;&gt;Node27</title>
<g id="a_edge38_Node000013_Node000027"><a xlink:title=" ">
<path fill="none" stroke="#63b8ff" d="M870.93,-219.75C877.85,-212.11 888.07,-200.82 896.45,-191.56"/>
<polygon fill="#63b8ff" stroke="#63b8ff" points="899.1,-193.85 903.22,-184.09 893.91,-189.15 899.1,-193.85"/>
</a>
</g>
</g>
<!-- Node14&#45;&gt;Node3 -->
<g id="edge19_Node000014_Node000003" class="edge">
<title>Node14&#45;&gt;Node3</title>
<g id="a_edge19_Node000014_Node000003"><a xlink:title=" ">
<path fill="none" stroke="#63b8ff" d="M739.7,-164.84C769.1,-146.28 838.44,-102.49 874.43,-79.75"/>
<polygon fill="#63b8ff" stroke="#63b8ff" points="876.64,-82.5 883.23,-74.2 872.91,-76.58 876.64,-82.5"/>
</a>
</g>
</g>
<!-- Node15 -->
<g id="Node000015" class="node">
<title>Node15</title>
<g id="a_Node000015"><a xlink:href="utils_8h.html" target="_top" xlink:title=" ">
<polygon fill="white" stroke="#666666" points="587,-129 509,-129 509,-110 587,-110 587,-129"/>
<text text-anchor="middle" x="548" y="-117" font-family="Helvetica,sans-Serif" font-size="10.00">realm/utils.h</text>
</a>
</g>
</g>
<!-- Node14&#45;&gt;Node15 -->
<g id="edge20_Node000014_Node000015" class="edge">
<title>Node14&#45;&gt;Node15</title>
<g id="a_edge20_Node000014_Node000015"><a xlink:title=" ">
<path fill="none" stroke="#63b8ff" d="M697.4,-164.98C667.39,-156.05 620.02,-141.94 586.68,-132.02"/>
<polygon fill="#63b8ff" stroke="#63b8ff" points="587.41,-128.58 576.82,-129.08 585.41,-135.29 587.41,-128.58"/>
</a>
</g>
</g>
<!-- Node21 -->
<g id="Node000021" class="node">
<title>Node21</title>
<g id="a_Node000021"><a xlink:href="atomics_8h.html" target="_top" xlink:title=" ">
<polygon fill="white" stroke="#666666" points="945,-129 849,-129 849,-110 945,-110 945,-129"/>
<text text-anchor="middle" x="897" y="-117" font-family="Helvetica,sans-Serif" font-size="10.00">realm/atomics.h</text>
</a>
</g>
</g>
<!-- Node14&#45;&gt;Node21 -->
<g id="edge30_Node000014_Node000021" class="edge">
<title>Node14&#45;&gt;Node21</title>
<g id="a_edge30_Node000014_Node000021"><a xlink:title=" ">
<path fill="none" stroke="#63b8ff" d="M753.47,-164.98C782.18,-156.09 827.42,-142.07 859.42,-132.15"/>
<polygon fill="#63b8ff" stroke="#63b8ff" points="860.8,-135.39 869.31,-129.08 858.72,-128.7 860.8,-135.39"/>
</a>
</g>
</g>
<!-- Node14&#45;&gt;Node24 -->
<g id="edge34_Node000014_Node000024" class="edge">
<title>Node14&#45;&gt;Node24</title>
<g id="a_edge34_Node000014_Node000024"><a xlink:title=" ">
<path fill="none" stroke="#63b8ff" d="M770.67,-165.32C814.64,-157.14 883.95,-143.94 953.48,-129.04"/>
<polygon fill="#63b8ff" stroke="#63b8ff" points="954.25,-132.46 963.29,-126.93 952.78,-125.61 954.25,-132.46"/>
</a>
</g>
</g>
<!-- Node25 -->
<g id="Node000025" class="node">
<title>Node25</title>
<g id="a_Node000025"><a xlink:title=" ">
<polygon fill="#e0e0e0" stroke="#999999" points="776.5,-129 681.5,-129 681.5,-110 776.5,-110 776.5,-129"/>
<text text-anchor="middle" x="729" y="-117" font-family="Helvetica,sans-Serif" font-size="10.00">realm/mutex.inl</text>
</a>
</g>
</g>
<!-- Node14&#45;&gt;Node25 -->
<g id="edge35_Node000014_Node000025" class="edge">
<title>Node14&#45;&gt;Node25</title>
<g id="a_edge35_Node000014_Node000025"><a xlink:title=" ">
<path fill="none" stroke="#63b8ff" d="M726.5,-164.75C726.89,-157.8 727.45,-147.85 727.95,-139.13"/>
<polygon fill="#63b8ff" stroke="#63b8ff" points="731.44,-139.27 728.51,-129.09 724.45,-138.88 731.44,-139.27"/>
</a>
</g>
</g>
<!-- Node15&#45;&gt;Node3 -->
<g id="edge21_Node000015_Node000003" class="edge">
<title>Node15&#45;&gt;Node3</title>
<g id="a_edge21_Node000015_Node000003"><a xlink:title=" ">
<path fill="none" stroke="#63b8ff" d="M587.07,-112.19C591.76,-111.45 596.49,-110.7 601,-110 679.15,-97.86 769,-84.43 829.01,-75.53"/>
<polygon fill="#63b8ff" stroke="#63b8ff" points="829.74,-78.96 839.12,-74.03 828.72,-72.03 829.74,-78.96"/>
</a>
</g>
</g>
<!-- Node15&#45;&gt;Node8 -->
<g id="edge22_Node000015_Node000008" class="edge">
<title>Node15&#45;&gt;Node8</title>
<g id="a_edge22_Node000015_Node000008"><a xlink:title=" ">
<path fill="none" stroke="#63b8ff" d="M515.85,-109.94C484.36,-101.54 434.75,-88.28 382.75,-74.19"/>
<polygon fill="#63b8ff" stroke="#63b8ff" points="383.58,-70.79 373.01,-71.55 381.75,-77.55 383.58,-70.79"/>
</a>
</g>
</g>
<!-- Node15&#45;&gt;Node10 -->
<g id="edge24_Node000015_Node000010" class="edge">
<title>Node15&#45;&gt;Node10</title>
<g id="a_edge24_Node000015_Node000010"><a xlink:title=" ">
<path fill="none" stroke="#63b8ff" d="M508.72,-111.57C465.21,-103.72 392.77,-90.19 320.89,-74.09"/>
<polygon fill="#63b8ff" stroke="#63b8ff" points="321.28,-70.59 310.75,-71.8 319.74,-77.41 321.28,-70.59"/>
</a>
</g>
</g>
<!-- Node15&#45;&gt;Node12 -->
<g id="edge25_Node000015_Node000012" class="edge">
<title>Node15&#45;&gt;Node12</title>
<g id="a_edge25_Node000015_Node000012"><a xlink:title=" ">
<path fill="none" stroke="#63b8ff" d="M525.83,-109.98C502.15,-100.89 464.55,-86.45 438.64,-76.5"/>
<polygon fill="#63b8ff" stroke="#63b8ff" points="439.6,-73.12 429.01,-72.8 437.09,-79.65 439.6,-73.12"/>
</a>
</g>
</g>
<!-- Node16 -->
<g id="Node000016" class="node">
<title>Node16</title>
<g id="a_Node000016"><a xlink:title=" ">
<polygon fill="#e0e0e0" stroke="#999999" points="504.5,-74 447.5,-74 447.5,-55 504.5,-55 504.5,-74"/>
<text text-anchor="middle" x="476" y="-62" font-family="Helvetica,sans-Serif" font-size="10.00">ostream</text>
</a>
</g>
</g>
<!-- Node15&#45;&gt;Node16 -->
<g id="edge23_Node000015_Node000016" class="edge">
<title>Node15&#45;&gt;Node16</title>
<g id="a_edge23_Node000015_Node000016"><a xlink:title=" ">
<path fill="none" stroke="#63b8ff" d="M536.43,-109.98C525.58,-102 509.12,-89.88 496.12,-80.31"/>
<polygon fill="#63b8ff" stroke="#63b8ff" points="497.91,-77.28 487.78,-74.17 493.76,-82.92 497.91,-77.28"/>
</a>
</g>
</g>
<!-- Node17 -->
<g id="Node000017" class="node">
<title>Node17</title>
<g id="a_Node000017"><a xlink:title=" ">
<polygon fill="#e0e0e0" stroke="#999999" points="575,-74 523,-74 523,-55 575,-55 575,-74"/>
<text text-anchor="middle" x="549" y="-62" font-family="Helvetica,sans-Serif" font-size="10.00">cassert</text>
</a>
</g>
</g>
<!-- Node15&#45;&gt;Node17 -->
<g id="edge26_Node000015_Node000017" class="edge">
<title>Node15&#45;&gt;Node17</title>
<g id="a_edge26_Node000015_Node000017"><a xlink:title=" ">
<path fill="none" stroke="#63b8ff" d="M548.17,-109.75C548.3,-102.8 548.48,-92.85 548.65,-84.13"/>
<polygon fill="#63b8ff" stroke="#63b8ff" points="552.15,-84.15 548.84,-74.09 545.15,-84.02 552.15,-84.15"/>
</a>
</g>
</g>
<!-- Node18 -->
<g id="Node000018" class="node">
<title>Node18</title>
<g id="a_Node000018"><a xlink:title=" ">
<polygon fill="#e0e0e0" stroke="#999999" points="643,-74 593,-74 593,-55 643,-55 643,-74"/>
<text text-anchor="middle" x="618" y="-62" font-family="Helvetica,sans-Serif" font-size="10.00">cstdint</text>
</a>
</g>
</g>
<!-- Node15&#45;&gt;Node18 -->
<g id="edge27_Node000015_Node000018" class="edge">
<title>Node15&#45;&gt;Node18</title>
<g id="a_edge27_Node000015_Node000018"><a xlink:title=" ">
<path fill="none" stroke="#63b8ff" d="M559.25,-109.98C569.8,-102 585.8,-89.88 598.44,-80.31"/>
<polygon fill="#63b8ff" stroke="#63b8ff" points="600.69,-83 606.55,-74.17 596.46,-77.42 600.69,-83"/>
</a>
</g>
</g>
<!-- Node19 -->
<g id="Node000019" class="node">
<title>Node19</title>
<g id="a_Node000019"><a xlink:title=" ">
<polygon fill="#e0e0e0" stroke="#999999" points="717,-74 661,-74 661,-55 717,-55 717,-74"/>
<text text-anchor="middle" x="689" y="-62" font-family="Helvetica,sans-Serif" font-size="10.00">sstream</text>
</a>
</g>
</g>
<!-- Node15&#45;&gt;Node19 -->
<g id="edge28_Node000015_Node000019" class="edge">
<title>Node15&#45;&gt;Node19</title>
<g id="a_edge28_Node000015_Node000019"><a xlink:title=" ">
<path fill="none" stroke="#63b8ff" d="M570.65,-109.98C593.85,-101.27 630.12,-87.63 656.4,-77.75"/>
<polygon fill="#63b8ff" stroke="#63b8ff" points="657.8,-80.97 665.93,-74.17 655.34,-74.41 657.8,-80.97"/>
</a>
</g>
</g>
<!-- Node20 -->
<g id="Node000020" class="node">
<title>Node20</title>
<g id="a_Node000020"><a xlink:title=" ">
<polygon fill="#e0e0e0" stroke="#999999" points="819,-74 735,-74 735,-55 819,-55 819,-74"/>
<text text-anchor="middle" x="777" y="-62" font-family="Helvetica,sans-Serif" font-size="10.00">realm/utils.inl</text>
</a>
</g>
</g>
<!-- Node15&#45;&gt;Node20 -->
<g id="edge29_Node000015_Node000020" class="edge">
<title>Node15&#45;&gt;Node20</title>
<g id="a_edge29_Node000015_Node000020"><a xlink:title=" ">
<path fill="none" stroke="#63b8ff" d="M584.79,-109.98C624.24,-100.86 686.98,-86.33 729.98,-76.38"/>
<polygon fill="#63b8ff" stroke="#63b8ff" points="730.97,-79.75 739.92,-74.08 729.39,-72.93 730.97,-79.75"/>
</a>
</g>
</g>
<!-- Node21&#45;&gt;Node3 -->
<g id="edge31_Node000021_Node000003" class="edge">
<title>Node21&#45;&gt;Node3</title>
<g id="a_edge31_Node000021_Node000003"><a xlink:title=" ">
<path fill="none" stroke="#63b8ff" d="M897,-109.75C897,-102.8 897,-92.85 897,-84.13"/>
<polygon fill="#63b8ff" stroke="#63b8ff" points="900.5,-84.09 897,-74.09 893.5,-84.09 900.5,-84.09"/>
</a>
</g>
</g>
<!-- Node22 -->
<g id="Node000022" class="node">
<title>Node22</title>
<g id="a_Node000022"><a xlink:title=" ">
<polygon fill="#e0e0e0" stroke="#999999" points="1025,-74 975,-74 975,-55 1025,-55 1025,-74"/>
<text text-anchor="middle" x="1000" y="-62" font-family="Helvetica,sans-Serif" font-size="10.00">atomic</text>
</a>
</g>
</g>
<!-- Node21&#45;&gt;Node22 -->
<g id="edge32_Node000021_Node000022" class="edge">
<title>Node21&#45;&gt;Node22</title>
<g id="a_edge32_Node000021_Node000022"><a xlink:title=" ">
<path fill="none" stroke="#63b8ff" d="M913.55,-109.98C929.89,-101.57 955.13,-88.59 974.13,-78.81"/>
<polygon fill="#63b8ff" stroke="#63b8ff" points="975.86,-81.86 983.15,-74.17 972.66,-75.63 975.86,-81.86"/>
</a>
</g>
</g>
<!-- Node23 -->
<g id="Node000023" class="node">
<title>Node23</title>
<g id="a_Node000023"><a xlink:title=" ">
<polygon fill="#e0e0e0" stroke="#999999" points="1145,-74 1043,-74 1043,-55 1145,-55 1145,-74"/>
<text text-anchor="middle" x="1094" y="-62" font-family="Helvetica,sans-Serif" font-size="10.00">realm/atomics.inl</text>
</a>
</g>
</g>
<!-- Node21&#45;&gt;Node23 -->
<g id="edge33_Node000021_Node000023" class="edge">
<title>Node21&#45;&gt;Node23</title>
<g id="a_edge33_Node000021_Node000023"><a xlink:title=" ">
<path fill="none" stroke="#63b8ff" d="M928.65,-109.98C962.16,-100.97 1015.2,-86.7 1052.14,-76.76"/>
<polygon fill="#63b8ff" stroke="#63b8ff" points="1053.35,-80.06 1062.1,-74.08 1051.53,-73.3 1053.35,-80.06"/>
</a>
</g>
</g>
<!-- Node29 -->
<g id="Node000029" class="node">
<title>Node29</title>
<g id="a_Node000029"><a xlink:href="realm__c_8h.html" target="_top" xlink:title=" ">
<polygon fill="white" stroke="#666666" points="1114,-184 1018,-184 1018,-165 1114,-165 1114,-184"/>
<text text-anchor="middle" x="1066" y="-172" font-family="Helvetica,sans-Serif" font-size="10.00">realm/realm_c.h</text>
</a>
</g>
</g>
<!-- Node28&#45;&gt;Node29 -->
<g id="edge40_Node000028_Node000029" class="edge">
<title>Node28&#45;&gt;Node29</title>
<g id="a_edge40_Node000028_Node000029"><a xlink:title=" ">
<path fill="none" stroke="#63b8ff" d="M1137.34,-219.98C1124.16,-211.77 1103.97,-199.18 1088.43,-189.49"/>
<polygon fill="#63b8ff" stroke="#63b8ff" points="1090.24,-186.49 1079.91,-184.17 1086.54,-192.43 1090.24,-186.49"/>
</a>
</g>
</g>
<!-- Node30 -->
<g id="Node000030" class="node">
<title>Node30</title>
<g id="a_Node000030"><a xlink:title=" ">
<polygon fill="#e0e0e0" stroke="#999999" points="1248,-129 1192,-129 1192,-110 1248,-110 1248,-129"/>
<text text-anchor="middle" x="1220" y="-117" font-family="Helvetica,sans-Serif" font-size="10.00">stddef.h</text>
</a>
</g>
</g>
<!-- Node28&#45;&gt;Node30 -->
<g id="edge44_Node000028_Node000030" class="edge">
<title>Node28&#45;&gt;Node30</title>
<g id="a_edge44_Node000028_Node000030"><a xlink:title=" ">
<path fill="none" stroke="#63b8ff" d="M1164.35,-219.81C1175.66,-211.79 1191.51,-198.9 1201,-184 1209.69,-170.35 1214.57,-152.54 1217.2,-139.25"/>
<polygon fill="#63b8ff" stroke="#63b8ff" points="1220.66,-139.8 1218.91,-129.35 1213.76,-138.6 1220.66,-139.8"/>
</a>
</g>
</g>
<!-- Node31 -->
<g id="Node000031" class="node">
<title>Node31</title>
<g id="a_Node000031"><a xlink:title=" ">
<polygon fill="#e0e0e0" stroke="#999999" points="1192,-184 1132,-184 1132,-165 1192,-165 1192,-184"/>
<text text-anchor="middle" x="1162" y="-172" font-family="Helvetica,sans-Serif" font-size="10.00">iostream</text>
</a>
</g>
</g>
<!-- Node28&#45;&gt;Node31 -->
<g id="edge45_Node000028_Node000031" class="edge">
<title>Node28&#45;&gt;Node31</title>
<g id="a_edge45_Node000028_Node000031"><a xlink:title=" ">
<path fill="none" stroke="#63b8ff" d="M1152.82,-219.75C1154.26,-212.8 1156.32,-202.85 1158.13,-194.13"/>
<polygon fill="#63b8ff" stroke="#63b8ff" points="1161.61,-194.59 1160.22,-184.09 1154.76,-193.17 1161.61,-194.59"/>
</a>
</g>
</g>
<!-- Node29&#45;&gt;Node3 -->
<g id="edge41_Node000029_Node000003" class="edge">
<title>Node29&#45;&gt;Node3</title>
<g id="a_edge41_Node000029_Node000003"><a xlink:title=" ">
<path fill="none" stroke="#63b8ff" d="M1062.75,-164.79C1057.23,-151.18 1044.78,-124.9 1026,-110 1005.62,-93.84 978.98,-83.35 955.21,-76.65"/>
<polygon fill="#63b8ff" stroke="#63b8ff" points="955.79,-73.18 945.23,-74 954,-79.95 955.79,-73.18"/>
</a>
</g>
</g>
<!-- Node29&#45;&gt;Node24 -->
<g id="edge43_Node000029_Node000024" class="edge">
<title>Node29&#45;&gt;Node24</title>
<g id="a_edge43_Node000029_Node000024"><a xlink:title=" ">
<path fill="none" stroke="#63b8ff" d="M1053.79,-164.98C1042.22,-156.92 1024.62,-144.65 1010.84,-135.03"/>
<polygon fill="#63b8ff" stroke="#63b8ff" points="1012.64,-132.02 1002.43,-129.17 1008.63,-137.76 1012.64,-132.02"/>
</a>
</g>
</g>
<!-- Node29&#45;&gt;Node30 -->
<g id="edge42_Node000029_Node000030" class="edge">
<title>Node29&#45;&gt;Node30</title>
<g id="a_edge42_Node000029_Node000030"><a xlink:title=" ">
<path fill="none" stroke="#63b8ff" d="M1090.74,-164.98C1116.37,-156.16 1156.63,-142.31 1185.41,-132.41"/>
<polygon fill="#63b8ff" stroke="#63b8ff" points="1186.75,-135.65 1195.06,-129.08 1184.47,-129.03 1186.75,-135.65"/>
</a>
</g>
</g>
<!-- Node32&#45;&gt;Node30 -->
<g id="edge47_Node000032_Node000030" class="edge">
<title>Node32&#45;&gt;Node30</title>
<g id="a_edge47_Node000032_Node000030"><a xlink:title=" ">
<path fill="none" stroke="#63b8ff" d="M1264.99,-219.66C1256.95,-201.93 1238.7,-161.73 1228.08,-138.32"/>
<polygon fill="#63b8ff" stroke="#63b8ff" points="1231.25,-136.82 1223.93,-129.16 1224.87,-139.71 1231.25,-136.82"/>
</a>
</g>
</g>
<!-- Node33 -->
<g id="Node000033" class="node">
<title>Node33</title>
<g id="a_Node000033"><a xlink:title=" ">
<polygon fill="#e0e0e0" stroke="#999999" points="1395.5,-184 1286.5,-184 1286.5,-165 1395.5,-165 1395.5,-184"/>
<text text-anchor="middle" x="1341" y="-172" font-family="Helvetica,sans-Serif" font-size="10.00">realm/bytearray.inl</text>
</a>
</g>
</g>
<!-- Node32&#45;&gt;Node33 -->
<g id="edge48_Node000032_Node000033" class="edge">
<title>Node32&#45;&gt;Node33</title>
<g id="a_edge48_Node000032_Node000033"><a xlink:title=" ">
<path fill="none" stroke="#63b8ff" d="M1280.57,-219.98C1291.42,-212 1307.88,-199.88 1320.88,-190.31"/>
<polygon fill="#63b8ff" stroke="#63b8ff" points="1323.24,-192.92 1329.22,-184.17 1319.09,-187.28 1323.24,-192.92"/>
</a>
</g>
</g>
</g>
</svg>
