<?xml version="1.0" encoding="UTF-8" standalone="no"?>
<!DOCTYPE svg PUBLIC "-//W3C//DTD SVG 1.1//EN"
 "http://www.w3.org/Graphics/SVG/1.1/DTD/svg11.dtd">
<!-- Generated by graphviz version 2.43.0 (0)
 -->
<!-- Title: /home/runner/work/realm/realm/realm&#45;src/src/realm/gasnetex/gasnetex_wrapper/gasnetex_wrapper_internal.h Pages: 1 -->
<svg width="328pt" height="137pt"
 viewBox="0.00 0.00 327.50 137.00" xmlns="http://www.w3.org/2000/svg" xmlns:xlink="http://www.w3.org/1999/xlink">
<g id="graph0" class="graph" transform="scale(1 1) rotate(0) translate(4 133)">
<title>/home/runner/work/realm/realm/realm&#45;src/src/realm/gasnetex/gasnetex_wrapper/gasnetex_wrapper_internal.h</title>
<!-- Node1 -->
<g id="Node000001" class="node">
<title>Node1</title>
<g id="a_Node000001"><a xlink:title=" ">
<polygon fill="#999999" stroke="#666666" points="232,-129 71,-129 71,-77 232,-77 232,-129"/>
<text text-anchor="start" x="79" y="-117" font-family="Helvetica,sans-Serif" font-size="10.00">/home/runner/work/realm</text>
<text text-anchor="start" x="79" y="-106" font-family="Helvetica,sans-Serif" font-size="10.00">/realm/realm&#45;src/src/realm</text>
<text text-anchor="start" x="79" y="-95" font-family="Helvetica,sans-Serif" font-size="10.00">/gasnetex/gasnetex_wrapper</text>
<text text-anchor="middle" x="151.5" y="-84" font-family="Helvetica,sans-Serif" font-size="10.00">/gasnetex_wrapper_internal.h</text>
</a>
</g>
</g>
<!-- Node2 -->
<g id="Node000002" class="node">
<title>Node2</title>
<g id="a_Node000002"><a xlink:title=" ">
<polygon fill="#e0e0e0" stroke="#999999" points="71,-30 0,-30 0,-11 71,-11 71,-30"/>
<text text-anchor="middle" x="35.5" y="-18" font-family="Helvetica,sans-Serif" font-size="10.00">gasnetex.h</text>
</a>
</g>
</g>
<!-- Node1&#45;&gt;Node2 -->
<g id="edge1_Node000001_Node000002" class="edge">
<title>Node1&#45;&gt;Node2</title>
<g id="a_edge1_Node000001_Node000002"><a xlink:title=" ">
<path fill="none" stroke="#63b8ff" d="M115.43,-76.97C96.02,-63.5 72.75,-47.35 56.35,-35.97"/>
<polygon fill="#63b8ff" stroke="#63b8ff" points="58.21,-33 48,-30.18 54.22,-38.75 58.21,-33"/>
</a>
</g>
</g>
<!-- Node3 -->
<g id="Node000003" class="node">
<title>Node3</title>
<g id="a_Node000003"><a xlink:title=" ">
<polygon fill="#e0e0e0" stroke="#999999" points="213.5,-41 89.5,-41 89.5,0 213.5,0 213.5,-41"/>
<text text-anchor="start" x="97.5" y="-29" font-family="Helvetica,sans-Serif" font-size="10.00">stop_compilation_due</text>
<text text-anchor="start" x="97.5" y="-18" font-family="Helvetica,sans-Serif" font-size="10.00">_to_gasnetex_version</text>
<text text-anchor="middle" x="151.5" y="-7" font-family="Helvetica,sans-Serif" font-size="10.00">_mismatch</text>
</a>
</g>
</g>
<!-- Node1&#45;&gt;Node3 -->
<g id="edge2_Node000001_Node000003" class="edge">
<title>Node1&#45;&gt;Node3</title>
<g id="a_edge2_Node000001_Node000003"><a xlink:title=" ">
<path fill="none" stroke="#63b8ff" d="M151.5,-76.97C151.5,-68.86 151.5,-59.78 151.5,-51.35"/>
<polygon fill="#63b8ff" stroke="#63b8ff" points="155,-51.15 151.5,-41.15 148,-51.15 155,-51.15"/>
</a>
</g>
</g>
<!-- Node4 -->
<g id="Node000004" class="node">
<title>Node4</title>
<g id="a_Node000004"><a xlink:title=" ">
<polygon fill="#e0e0e0" stroke="#999999" points="319.5,-30 231.5,-30 231.5,-11 319.5,-11 319.5,-30"/>
<text text-anchor="middle" x="275.5" y="-18" font-family="Helvetica,sans-Serif" font-size="10.00">gasnet_tools.h</text>
</a>
</g>
</g>
<!-- Node1&#45;&gt;Node4 -->
<g id="edge3_Node000001_Node000004" class="edge">
<title>Node1&#45;&gt;Node4</title>
<g id="a_edge3_Node000001_Node000004"><a xlink:title=" ">
<path fill="none" stroke="#63b8ff" d="M190.05,-76.97C211,-63.37 236.14,-47.05 253.7,-35.65"/>
<polygon fill="#63b8ff" stroke="#63b8ff" points="255.65,-38.56 262.14,-30.18 251.84,-32.69 255.65,-38.56"/>
</a>
</g>
</g>
</g>
</svg>
