<?xml version="1.0" encoding="UTF-8" standalone="no"?>
<!DOCTYPE svg PUBLIC "-//W3C//DTD SVG 1.1//EN"
 "http://www.w3.org/Graphics/SVG/1.1/DTD/svg11.dtd">
<!-- Generated by graphviz version 2.43.0 (0)
 -->
<!-- Title: /home/runner/work/realm/realm/realm&#45;src/src/realm/gasnet1/gasnet1_module.h Pages: 1 -->
<svg width="1516pt" height="379pt"
 viewBox="0.00 0.00 1516.00 379.00" xmlns="http://www.w3.org/2000/svg" xmlns:xlink="http://www.w3.org/1999/xlink">
<g id="graph0" class="graph" transform="scale(1 1) rotate(0) translate(4 375)">
<title>/home/runner/work/realm/realm/realm&#45;src/src/realm/gasnet1/gasnet1_module.h</title>
<!-- Node1 -->
<g id="Node000001" class="node">
<title>Node1</title>
<g id="a_Node000001"><a xlink:title=" ">
<polygon fill="#999999" stroke="#666666" points="883.5,-371 731.5,-371 731.5,-330 883.5,-330 883.5,-371"/>
<text text-anchor="start" x="739.5" y="-359" font-family="Helvetica,sans-Serif" font-size="10.00">/home/runner/work/realm</text>
<text text-anchor="start" x="739.5" y="-348" font-family="Helvetica,sans-Serif" font-size="10.00">/realm/realm&#45;src/src/realm</text>
<text text-anchor="middle" x="807.5" y="-337" font-family="Helvetica,sans-Serif" font-size="10.00">/gasnet1/gasnet1_module.h</text>
</a>
</g>
</g>
<!-- Node2 -->
<g id="Node000002" class="node">
<title>Node2</title>
<g id="a_Node000002"><a xlink:href="network_8h.html" target="_top" xlink:title=" ">
<polygon fill="white" stroke="#666666" points="856,-294 759,-294 759,-275 856,-275 856,-294"/>
<text text-anchor="middle" x="807.5" y="-282" font-family="Helvetica,sans-Serif" font-size="10.00">realm/network.h</text>
</a>
</g>
</g>
<!-- Node1&#45;&gt;Node2 -->
<g id="edge1_Node000001_Node000002" class="edge">
<title>Node1&#45;&gt;Node2</title>
<g id="a_edge1_Node000001_Node000002"><a xlink:title=" ">
<path fill="none" stroke="#63b8ff" d="M807.5,-329.95C807.5,-321.85 807.5,-312.5 807.5,-304.47"/>
<polygon fill="#63b8ff" stroke="#63b8ff" points="811,-304.26 807.5,-294.26 804,-304.26 811,-304.26"/>
</a>
</g>
</g>
<!-- Node3 -->
<g id="Node000003" class="node">
<title>Node3</title>
<g id="a_Node000003"><a xlink:href="realm__config_8h.html" target="_top" xlink:title=" ">
<polygon fill="white" stroke="#666666" points="829.5,-74 709.5,-74 709.5,-55 829.5,-55 829.5,-74"/>
<text text-anchor="middle" x="769.5" y="-62" font-family="Helvetica,sans-Serif" font-size="10.00">realm/realm_config.h</text>
</a>
</g>
</g>
<!-- Node2&#45;&gt;Node3 -->
<g id="edge2_Node000002_Node000003" class="edge">
<title>Node2&#45;&gt;Node3</title>
<g id="a_edge2_Node000002_Node000003"><a xlink:title=" ">
<path fill="none" stroke="#63b8ff" d="M806.01,-274.95C800.42,-242.88 780.6,-129.2 772.74,-84.12"/>
<polygon fill="#63b8ff" stroke="#63b8ff" points="776.19,-83.47 771.02,-74.22 769.29,-84.68 776.19,-83.47"/>
</a>
</g>
</g>
<!-- Node6 -->
<g id="Node000006" class="node">
<title>Node6</title>
<g id="a_Node000006"><a xlink:href="module_8h.html" target="_top" xlink:title=" ">
<polygon fill="white" stroke="#666666" points="740.5,-239 646.5,-239 646.5,-220 740.5,-220 740.5,-239"/>
<text text-anchor="middle" x="693.5" y="-227" font-family="Helvetica,sans-Serif" font-size="10.00">realm/module.h</text>
</a>
</g>
</g>
<!-- Node2&#45;&gt;Node6 -->
<g id="edge5_Node000002_Node000006" class="edge">
<title>Node2&#45;&gt;Node6</title>
<g id="a_edge5_Node000002_Node000006"><a xlink:title=" ">
<path fill="none" stroke="#63b8ff" d="M789.18,-274.98C770.84,-266.46 742.39,-253.23 721.27,-243.41"/>
<polygon fill="#63b8ff" stroke="#63b8ff" points="722.69,-240.21 712.15,-239.17 719.74,-246.56 722.69,-240.21"/>
</a>
</g>
</g>
<!-- Node15 -->
<g id="Node000015" class="node">
<title>Node15</title>
<g id="a_Node000015"><a xlink:title=" ">
<polygon fill="#e0e0e0" stroke="#999999" points="1463.5,-74 1425.5,-74 1425.5,-55 1463.5,-55 1463.5,-74"/>
<text text-anchor="middle" x="1444.5" y="-62" font-family="Helvetica,sans-Serif" font-size="10.00">map</text>
</a>
</g>
</g>
<!-- Node2&#45;&gt;Node15 -->
<g id="edge50_Node000002_Node000015" class="edge">
<title>Node2&#45;&gt;Node15</title>
<g id="a_edge50_Node000002_Node000015"><a xlink:title=" ">
<path fill="none" stroke="#63b8ff" d="M856.4,-279.3C974.87,-268.4 1273.65,-236.36 1357.5,-184 1396.87,-159.41 1424.21,-109.96 1436.74,-83.37"/>
<polygon fill="#63b8ff" stroke="#63b8ff" points="1440,-84.66 1440.94,-74.11 1433.63,-81.77 1440,-84.66"/>
</a>
</g>
</g>
<!-- Node16 -->
<g id="Node000016" class="node">
<title>Node16</title>
<g id="a_Node000016"><a xlink:href="nodeset_8h.html" target="_top" xlink:title=" ">
<polygon fill="white" stroke="#666666" points="968.5,-239 872.5,-239 872.5,-220 968.5,-220 968.5,-239"/>
<text text-anchor="middle" x="920.5" y="-227" font-family="Helvetica,sans-Serif" font-size="10.00">realm/nodeset.h</text>
</a>
</g>
</g>
<!-- Node2&#45;&gt;Node16 -->
<g id="edge20_Node000002_Node000016" class="edge">
<title>Node2&#45;&gt;Node16</title>
<g id="a_edge20_Node000002_Node000016"><a xlink:title=" ">
<path fill="none" stroke="#63b8ff" d="M825.66,-274.98C843.75,-266.5 871.78,-253.35 892.69,-243.54"/>
<polygon fill="#63b8ff" stroke="#63b8ff" points="894.45,-246.59 902.01,-239.17 891.47,-240.25 894.45,-246.59"/>
</a>
</g>
</g>
<!-- Node30 -->
<g id="Node000030" class="node">
<title>Node30</title>
<g id="a_Node000030"><a xlink:href="memory_8h.html" target="_top" xlink:title=" ">
<polygon fill="white" stroke="#666666" points="97,-184 0,-184 0,-165 97,-165 97,-184"/>
<text text-anchor="middle" x="48.5" y="-172" font-family="Helvetica,sans-Serif" font-size="10.00">realm/memory.h</text>
</a>
</g>
</g>
<!-- Node2&#45;&gt;Node30 -->
<g id="edge43_Node000002_Node000030" class="edge">
<title>Node2&#45;&gt;Node30</title>
<g id="a_edge43_Node000002_Node000030"><a xlink:title=" ">
<path fill="none" stroke="#63b8ff" d="M758.55,-283.34C625.74,-282.42 260.92,-276.44 147.5,-239 116.03,-228.61 84.67,-205.87 65.93,-190.62"/>
<polygon fill="#63b8ff" stroke="#63b8ff" points="67.95,-187.74 58.03,-184.01 63.46,-193.11 67.95,-187.74"/>
</a>
</g>
</g>
<!-- Node32 -->
<g id="Node000032" class="node">
<title>Node32</title>
<g id="a_Node000032"><a xlink:href="bytearray_8h.html" target="_top" xlink:title=" ">
<polygon fill="white" stroke="#666666" points="260,-239 157,-239 157,-220 260,-220 260,-239"/>
<text text-anchor="middle" x="208.5" y="-227" font-family="Helvetica,sans-Serif" font-size="10.00">realm/bytearray.h</text>
</a>
</g>
</g>
<!-- Node2&#45;&gt;Node32 -->
<g id="edge47_Node000002_Node000032" class="edge">
<title>Node2&#45;&gt;Node32</title>
<g id="a_edge47_Node000002_Node000032"><a xlink:title=" ">
<path fill="none" stroke="#63b8ff" d="M758.99,-279.21C650.74,-269.63 389.61,-246.52 270.09,-235.95"/>
<polygon fill="#63b8ff" stroke="#63b8ff" points="270.28,-232.45 260.01,-235.06 269.66,-239.43 270.28,-232.45"/>
</a>
</g>
</g>
<!-- Node34 -->
<g id="Node000034" class="node">
<title>Node34</title>
<g id="a_Node000034"><a xlink:title=" ">
<polygon fill="#e0e0e0" stroke="#999999" points="1508,-239 1405,-239 1405,-220 1508,-220 1508,-239"/>
<text text-anchor="middle" x="1456.5" y="-227" font-family="Helvetica,sans-Serif" font-size="10.00">realm/network.inl</text>
</a>
</g>
</g>
<!-- Node2&#45;&gt;Node34 -->
<g id="edge51_Node000002_Node000034" class="edge">
<title>Node2&#45;&gt;Node34</title>
<g id="a_edge51_Node000002_Node000034"><a xlink:title=" ">
<path fill="none" stroke="#63b8ff" d="M856.33,-280.63C956.58,-274.55 1192.83,-259.26 1390.5,-239 1391.79,-238.87 1393.1,-238.73 1394.42,-238.59"/>
<polygon fill="#63b8ff" stroke="#63b8ff" points="1395.1,-242.03 1404.65,-237.44 1394.32,-235.08 1395.1,-242.03"/>
</a>
</g>
</g>
<!-- Node4 -->
<g id="Node000004" class="node">
<title>Node4</title>
<g id="a_Node000004"><a xlink:href="realm__defines_8h.html" target="_top" xlink:title=" ">
<polygon fill="white" stroke="#666666" points="748,-19 653,-19 653,0 748,0 748,-19"/>
<text text-anchor="middle" x="700.5" y="-7" font-family="Helvetica,sans-Serif" font-size="10.00">realm_defines.h</text>
</a>
</g>
</g>
<!-- Node3&#45;&gt;Node4 -->
<g id="edge3_Node000003_Node000004" class="edge">
<title>Node3&#45;&gt;Node4</title>
<g id="a_edge3_Node000003_Node000004"><a xlink:title=" ">
<path fill="none" stroke="#63b8ff" d="M758.41,-54.98C748.01,-47 732.24,-34.88 719.78,-25.31"/>
<polygon fill="#63b8ff" stroke="#63b8ff" points="721.85,-22.49 711.79,-19.17 717.59,-28.04 721.85,-22.49"/>
</a>
</g>
</g>
<!-- Node5 -->
<g id="Node000005" class="node">
<title>Node5</title>
<g id="a_Node000005"><a xlink:href="compiler__support_8h.html" target="_top" xlink:title=" ">
<polygon fill="white" stroke="#666666" points="908.5,-19 766.5,-19 766.5,0 908.5,0 908.5,-19"/>
<text text-anchor="middle" x="837.5" y="-7" font-family="Helvetica,sans-Serif" font-size="10.00">realm/compiler_support.h</text>
</a>
</g>
</g>
<!-- Node3&#45;&gt;Node5 -->
<g id="edge4_Node000003_Node000005" class="edge">
<title>Node3&#45;&gt;Node5</title>
<g id="a_edge4_Node000003_Node000005"><a xlink:title=" ">
<path fill="none" stroke="#63b8ff" d="M780.43,-54.98C790.58,-47.07 805.92,-35.11 818.15,-25.58"/>
<polygon fill="#63b8ff" stroke="#63b8ff" points="820.64,-28.08 826.38,-19.17 816.34,-22.56 820.64,-28.08"/>
</a>
</g>
</g>
<!-- Node6&#45;&gt;Node3 -->
<g id="edge6_Node000006_Node000003" class="edge">
<title>Node6&#45;&gt;Node3</title>
<g id="a_edge6_Node000006_Node000003"><a xlink:title=" ">
<path fill="none" stroke="#63b8ff" d="M697.59,-219.74C709.55,-194.09 744.66,-118.78 760.98,-83.78"/>
<polygon fill="#63b8ff" stroke="#63b8ff" points="764.34,-84.85 765.39,-74.31 758,-81.89 764.34,-84.85"/>
</a>
</g>
</g>
<!-- Node7 -->
<g id="Node000007" class="node">
<title>Node7</title>
<g id="a_Node000007"><a xlink:href="module__config_8h.html" target="_top" xlink:title=" ">
<polygon fill="white" stroke="#666666" points="586.5,-184 458.5,-184 458.5,-165 586.5,-165 586.5,-184"/>
<text text-anchor="middle" x="522.5" y="-172" font-family="Helvetica,sans-Serif" font-size="10.00">realm/module_config.h</text>
</a>
</g>
</g>
<!-- Node6&#45;&gt;Node7 -->
<g id="edge7_Node000006_Node000007" class="edge">
<title>Node6&#45;&gt;Node7</title>
<g id="a_edge7_Node000006_Node000007"><a xlink:title=" ">
<path fill="none" stroke="#63b8ff" d="M666.03,-219.98C637.32,-211.09 592.08,-197.07 560.08,-187.15"/>
<polygon fill="#63b8ff" stroke="#63b8ff" points="560.78,-183.7 550.19,-184.08 558.7,-190.39 560.78,-183.7"/>
</a>
</g>
</g>
<!-- Node11 -->
<g id="Node000011" class="node">
<title>Node11</title>
<g id="a_Node000011"><a xlink:title=" ">
<polygon fill="#e0e0e0" stroke="#999999" points="223.5,-74 179.5,-74 179.5,-55 223.5,-55 223.5,-74"/>
<text text-anchor="middle" x="201.5" y="-62" font-family="Helvetica,sans-Serif" font-size="10.00">string</text>
</a>
</g>
</g>
<!-- Node6&#45;&gt;Node11 -->
<g id="edge18_Node000006_Node000011" class="edge">
<title>Node6&#45;&gt;Node11</title>
<g id="a_edge18_Node000006_Node000011"><a xlink:title=" ">
<path fill="none" stroke="#63b8ff" d="M646.41,-222.27C529.45,-206.35 233.06,-163 204.5,-129 194.19,-116.73 194.61,-97.95 196.91,-84"/>
<polygon fill="#63b8ff" stroke="#63b8ff" points="200.37,-84.56 198.98,-74.05 193.51,-83.13 200.37,-84.56"/>
</a>
</g>
</g>
<!-- Node13 -->
<g id="Node000013" class="node">
<title>Node13</title>
<g id="a_Node000013"><a xlink:title=" ">
<polygon fill="#e0e0e0" stroke="#999999" points="683,-74 636,-74 636,-55 683,-55 683,-74"/>
<text text-anchor="middle" x="659.5" y="-62" font-family="Helvetica,sans-Serif" font-size="10.00">vector</text>
</a>
</g>
</g>
<!-- Node6&#45;&gt;Node13 -->
<g id="edge17_Node000006_Node000013" class="edge">
<title>Node6&#45;&gt;Node13</title>
<g id="a_edge17_Node000006_Node000013"><a xlink:title=" ">
<path fill="none" stroke="#63b8ff" d="M691.67,-219.74C686.35,-194.2 670.75,-119.43 663.41,-84.23"/>
<polygon fill="#63b8ff" stroke="#63b8ff" points="666.81,-83.38 661.34,-74.31 659.95,-84.81 666.81,-83.38"/>
</a>
</g>
</g>
<!-- Node6&#45;&gt;Node15 -->
<g id="edge19_Node000006_Node000015" class="edge">
<title>Node6&#45;&gt;Node15</title>
<g id="a_edge19_Node000006_Node000015"><a xlink:title=" ">
<path fill="none" stroke="#63b8ff" d="M740.62,-223.78C805.98,-216.88 927.75,-202.81 1030.5,-184 1135.59,-164.76 1161.98,-159.04 1264.5,-129 1318.62,-113.14 1380.34,-90.3 1415.63,-76.77"/>
<polygon fill="#63b8ff" stroke="#63b8ff" points="1417.21,-79.92 1425.28,-73.06 1414.69,-73.39 1417.21,-79.92"/>
</a>
</g>
</g>
<!-- Node7&#45;&gt;Node3 -->
<g id="edge8_Node000007_Node000003" class="edge">
<title>Node7&#45;&gt;Node3</title>
<g id="a_edge8_Node000007_Node000003"><a xlink:title=" ">
<path fill="none" stroke="#63b8ff" d="M542.3,-164.84C585.76,-145.84 689.71,-100.39 740.53,-78.17"/>
<polygon fill="#63b8ff" stroke="#63b8ff" points="742.19,-81.26 749.95,-74.05 739.39,-74.85 742.19,-81.26"/>
</a>
</g>
</g>
<!-- Node8 -->
<g id="Node000008" class="node">
<title>Node8</title>
<g id="a_Node000008"><a xlink:href="realm__c_8h.html" target="_top" xlink:title=" ">
<polygon fill="white" stroke="#666666" points="325.5,-129 229.5,-129 229.5,-110 325.5,-110 325.5,-129"/>
<text text-anchor="middle" x="277.5" y="-117" font-family="Helvetica,sans-Serif" font-size="10.00">realm/realm_c.h</text>
</a>
</g>
</g>
<!-- Node7&#45;&gt;Node8 -->
<g id="edge9_Node000007_Node000008" class="edge">
<title>Node7&#45;&gt;Node8</title>
<g id="a_edge9_Node000007_Node000008"><a xlink:title=" ">
<path fill="none" stroke="#63b8ff" d="M483.14,-164.98C440.76,-155.82 373.24,-141.21 327.22,-131.26"/>
<polygon fill="#63b8ff" stroke="#63b8ff" points="327.69,-127.78 317.17,-129.08 326.21,-134.62 327.69,-127.78"/>
</a>
</g>
</g>
<!-- Node7&#45;&gt;Node11 -->
<g id="edge13_Node000007_Node000011" class="edge">
<title>Node7&#45;&gt;Node11</title>
<g id="a_edge13_Node000007_Node000011"><a xlink:title=" ">
<path fill="none" stroke="#63b8ff" d="M458.44,-171.94C380.54,-168.74 255.12,-158.95 220.5,-129 207.73,-117.95 203.36,-98.7 201.95,-84.28"/>
<polygon fill="#63b8ff" stroke="#63b8ff" points="205.43,-83.79 201.35,-74.01 198.44,-84.19 205.43,-83.79"/>
</a>
</g>
</g>
<!-- Node12 -->
<g id="Node000012" class="node">
<title>Node12</title>
<g id="a_Node000012"><a xlink:title=" ">
<polygon fill="#e0e0e0" stroke="#999999" points="437,-129 344,-129 344,-110 437,-110 437,-129"/>
<text text-anchor="middle" x="390.5" y="-117" font-family="Helvetica,sans-Serif" font-size="10.00">unordered_map</text>
</a>
</g>
</g>
<!-- Node7&#45;&gt;Node12 -->
<g id="edge14_Node000007_Node000012" class="edge">
<title>Node7&#45;&gt;Node12</title>
<g id="a_edge14_Node000007_Node000012"><a xlink:title=" ">
<path fill="none" stroke="#63b8ff" d="M501.29,-164.98C479.77,-156.34 446.22,-142.87 421.67,-133.02"/>
<polygon fill="#63b8ff" stroke="#63b8ff" points="422.68,-129.65 412.09,-129.17 420.07,-136.14 422.68,-129.65"/>
</a>
</g>
</g>
<!-- Node7&#45;&gt;Node13 -->
<g id="edge15_Node000007_Node000013" class="edge">
<title>Node7&#45;&gt;Node13</title>
<g id="a_edge15_Node000007_Node000013"><a xlink:title=" ">
<path fill="none" stroke="#63b8ff" d="M540.27,-164.88C556.26,-156.72 580.01,-143.58 598.5,-129 616.42,-114.87 634.19,-95.62 645.88,-82.04"/>
<polygon fill="#63b8ff" stroke="#63b8ff" points="648.86,-83.93 652.63,-74.03 643.51,-79.42 648.86,-83.93"/>
</a>
</g>
</g>
<!-- Node14 -->
<g id="Node000014" class="node">
<title>Node14</title>
<g id="a_Node000014"><a xlink:title=" ">
<polygon fill="#e0e0e0" stroke="#999999" points="589.5,-129 455.5,-129 455.5,-110 589.5,-110 589.5,-129"/>
<text text-anchor="middle" x="522.5" y="-117" font-family="Helvetica,sans-Serif" font-size="10.00">realm/module_config.inl</text>
</a>
</g>
</g>
<!-- Node7&#45;&gt;Node14 -->
<g id="edge16_Node000007_Node000014" class="edge">
<title>Node7&#45;&gt;Node14</title>
<g id="a_edge16_Node000007_Node000014"><a xlink:title=" ">
<path fill="none" stroke="#63b8ff" d="M522.5,-164.75C522.5,-157.8 522.5,-147.85 522.5,-139.13"/>
<polygon fill="#63b8ff" stroke="#63b8ff" points="526,-139.09 522.5,-129.09 519,-139.09 526,-139.09"/>
</a>
</g>
</g>
<!-- Node8&#45;&gt;Node3 -->
<g id="edge10_Node000008_Node000003" class="edge">
<title>Node8&#45;&gt;Node3</title>
<g id="a_edge10_Node000008_Node000003"><a xlink:title=" ">
<path fill="none" stroke="#63b8ff" d="M325.68,-111.15C328.66,-110.75 331.62,-110.36 334.5,-110 492.74,-90.23 532.9,-90.64 691.5,-74 694.05,-73.73 696.64,-73.46 699.27,-73.18"/>
<polygon fill="#63b8ff" stroke="#63b8ff" points="699.89,-76.63 709.46,-72.09 699.15,-69.67 699.89,-76.63"/>
</a>
</g>
</g>
<!-- Node9 -->
<g id="Node000009" class="node">
<title>Node9</title>
<g id="a_Node000009"><a xlink:title=" ">
<polygon fill="#e0e0e0" stroke="#999999" points="153.5,-74 97.5,-74 97.5,-55 153.5,-55 153.5,-74"/>
<text text-anchor="middle" x="125.5" y="-62" font-family="Helvetica,sans-Serif" font-size="10.00">stddef.h</text>
</a>
</g>
</g>
<!-- Node8&#45;&gt;Node9 -->
<g id="edge11_Node000008_Node000009" class="edge">
<title>Node8&#45;&gt;Node9</title>
<g id="a_edge11_Node000008_Node000009"><a xlink:title=" ">
<path fill="none" stroke="#63b8ff" d="M253.08,-109.98C227.78,-101.16 188.05,-87.31 159.64,-77.41"/>
<polygon fill="#63b8ff" stroke="#63b8ff" points="160.71,-74.07 150.11,-74.08 158.4,-80.68 160.71,-74.07"/>
</a>
</g>
</g>
<!-- Node10 -->
<g id="Node000010" class="node">
<title>Node10</title>
<g id="a_Node000010"><a xlink:title=" ">
<polygon fill="#e0e0e0" stroke="#999999" points="618,-74 565,-74 565,-55 618,-55 618,-74"/>
<text text-anchor="middle" x="591.5" y="-62" font-family="Helvetica,sans-Serif" font-size="10.00">stdint.h</text>
</a>
</g>
</g>
<!-- Node8&#45;&gt;Node10 -->
<g id="edge12_Node000008_Node000010" class="edge">
<title>Node8&#45;&gt;Node10</title>
<g id="a_edge12_Node000008_Node000010"><a xlink:title=" ">
<path fill="none" stroke="#63b8ff" d="M325.53,-110.39C388.61,-99.75 497.99,-81.28 554.83,-71.69"/>
<polygon fill="#63b8ff" stroke="#63b8ff" points="555.53,-75.12 564.81,-70.01 554.36,-68.22 555.53,-75.12"/>
</a>
</g>
</g>
<!-- Node16&#45;&gt;Node3 -->
<g id="edge21_Node000016_Node000003" class="edge">
<title>Node16&#45;&gt;Node3</title>
<g id="a_edge21_Node000016_Node000003"><a xlink:title=" ">
<path fill="none" stroke="#63b8ff" d="M914,-219.75C898.8,-199.52 859.37,-148.33 821.5,-110 811.19,-99.57 798.73,-88.85 788.6,-80.55"/>
<polygon fill="#63b8ff" stroke="#63b8ff" points="790.71,-77.75 780.73,-74.2 786.31,-83.2 790.71,-77.75"/>
</a>
</g>
</g>
<!-- Node16&#45;&gt;Node10 -->
<g id="edge40_Node000016_Node000010" class="edge">
<title>Node16&#45;&gt;Node10</title>
<g id="a_edge40_Node000016_Node000010"><a xlink:title=" ">
<path fill="none" stroke="#63b8ff" d="M903.27,-219.97C849.32,-193.24 683.34,-111 618.16,-78.71"/>
<polygon fill="#63b8ff" stroke="#63b8ff" points="619.47,-75.45 608.95,-74.15 616.36,-81.72 619.47,-75.45"/>
</a>
</g>
</g>
<!-- Node17 -->
<g id="Node000017" class="node">
<title>Node17</title>
<g id="a_Node000017"><a xlink:href="mutex_8h.html" target="_top" xlink:title=" ">
<polygon fill="white" stroke="#666666" points="1022,-184 933,-184 933,-165 1022,-165 1022,-184"/>
<text text-anchor="middle" x="977.5" y="-172" font-family="Helvetica,sans-Serif" font-size="10.00">realm/mutex.h</text>
</a>
</g>
</g>
<!-- Node16&#45;&gt;Node17 -->
<g id="edge22_Node000016_Node000017" class="edge">
<title>Node16&#45;&gt;Node17</title>
<g id="a_edge22_Node000016_Node000017"><a xlink:title=" ">
<path fill="none" stroke="#63b8ff" d="M929.66,-219.98C938,-212.23 950.53,-200.58 960.68,-191.14"/>
<polygon fill="#63b8ff" stroke="#63b8ff" points="963.24,-193.54 968.18,-184.17 958.47,-188.42 963.24,-193.54"/>
</a>
</g>
</g>
<!-- Node28 -->
<g id="Node000028" class="node">
<title>Node28</title>
<g id="a_Node000028"><a xlink:title=" ">
<polygon fill="#e0e0e0" stroke="#999999" points="1348,-184 1295,-184 1295,-165 1348,-165 1348,-184"/>
<text text-anchor="middle" x="1321.5" y="-172" font-family="Helvetica,sans-Serif" font-size="10.00">iterator</text>
</a>
</g>
</g>
<!-- Node16&#45;&gt;Node28 -->
<g id="edge41_Node000016_Node000028" class="edge">
<title>Node16&#45;&gt;Node28</title>
<g id="a_edge41_Node000016_Node000028"><a xlink:title=" ">
<path fill="none" stroke="#63b8ff" d="M968.58,-224.35C1036.72,-218.09 1165.41,-204.88 1284.79,-183.93"/>
<polygon fill="#63b8ff" stroke="#63b8ff" points="1285.6,-187.34 1294.83,-182.14 1284.37,-180.45 1285.6,-187.34"/>
</a>
</g>
</g>
<!-- Node29 -->
<g id="Node000029" class="node">
<title>Node29</title>
<g id="a_Node000029"><a xlink:title=" ">
<polygon fill="#e0e0e0" stroke="#999999" points="1276.5,-184 1174.5,-184 1174.5,-165 1276.5,-165 1276.5,-184"/>
<text text-anchor="middle" x="1225.5" y="-172" font-family="Helvetica,sans-Serif" font-size="10.00">realm/nodeset.inl</text>
</a>
</g>
</g>
<!-- Node16&#45;&gt;Node29 -->
<g id="edge42_Node000016_Node000029" class="edge">
<title>Node16&#45;&gt;Node29</title>
<g id="a_edge42_Node000016_Node000029"><a xlink:title=" ">
<path fill="none" stroke="#63b8ff" d="M968.83,-220.1C1022.39,-210.8 1108.78,-195.78 1166.34,-185.78"/>
<polygon fill="#63b8ff" stroke="#63b8ff" points="1167.13,-189.19 1176.39,-184.03 1165.94,-182.3 1167.13,-189.19"/>
</a>
</g>
</g>
<!-- Node17&#45;&gt;Node3 -->
<g id="edge23_Node000017_Node000003" class="edge">
<title>Node17&#45;&gt;Node3</title>
<g id="a_edge23_Node000017_Node000003"><a xlink:title=" ">
<path fill="none" stroke="#63b8ff" d="M968.86,-164.99C954.91,-151.65 926.09,-125.72 897.5,-110 871.11,-95.49 839.11,-84.36 813.7,-76.87"/>
<polygon fill="#63b8ff" stroke="#63b8ff" points="814.54,-73.47 803.97,-74.07 812.61,-80.19 814.54,-73.47"/>
</a>
</g>
</g>
<!-- Node17&#45;&gt;Node10 -->
<g id="edge38_Node000017_Node000010" class="edge">
<title>Node17&#45;&gt;Node10</title>
<g id="a_edge38_Node000017_Node000010"><a xlink:title=" ">
<path fill="none" stroke="#63b8ff" d="M953.82,-164.98C917.48,-152.07 845.65,-127.26 783.5,-110 717.62,-91.71 697.92,-90.52 628.4,-74.41"/>
<polygon fill="#63b8ff" stroke="#63b8ff" points="628.78,-70.9 618.24,-72.03 627.18,-77.72 628.78,-70.9"/>
</a>
</g>
</g>
<!-- Node18 -->
<g id="Node000018" class="node">
<title>Node18</title>
<g id="a_Node000018"><a xlink:href="utils_8h.html" target="_top" xlink:title=" ">
<polygon fill="white" stroke="#666666" points="1255.5,-129 1177.5,-129 1177.5,-110 1255.5,-110 1255.5,-129"/>
<text text-anchor="middle" x="1216.5" y="-117" font-family="Helvetica,sans-Serif" font-size="10.00">realm/utils.h</text>
</a>
</g>
</g>
<!-- Node17&#45;&gt;Node18 -->
<g id="edge24_Node000017_Node000018" class="edge">
<title>Node17&#45;&gt;Node18</title>
<g id="a_edge24_Node000017_Node000018"><a xlink:title=" ">
<path fill="none" stroke="#63b8ff" d="M1015.9,-164.98C1057.24,-155.82 1123.1,-141.21 1167.99,-131.26"/>
<polygon fill="#63b8ff" stroke="#63b8ff" points="1168.79,-134.66 1177.8,-129.08 1167.28,-127.83 1168.79,-134.66"/>
</a>
</g>
</g>
<!-- Node24 -->
<g id="Node000024" class="node">
<title>Node24</title>
<g id="a_Node000024"><a xlink:href="atomics_8h.html" target="_top" xlink:title=" ">
<polygon fill="white" stroke="#666666" points="1045.5,-129 949.5,-129 949.5,-110 1045.5,-110 1045.5,-129"/>
<text text-anchor="middle" x="997.5" y="-117" font-family="Helvetica,sans-Serif" font-size="10.00">realm/atomics.h</text>
</a>
</g>
</g>
<!-- Node17&#45;&gt;Node24 -->
<g id="edge34_Node000017_Node000024" class="edge">
<title>Node17&#45;&gt;Node24</title>
<g id="a_edge34_Node000017_Node000024"><a xlink:title=" ">
<path fill="none" stroke="#63b8ff" d="M980.8,-164.75C983.48,-157.65 987.35,-147.4 990.69,-138.56"/>
<polygon fill="#63b8ff" stroke="#63b8ff" points="994,-139.68 994.26,-129.09 987.45,-137.21 994,-139.68"/>
</a>
</g>
</g>
<!-- Node27 -->
<g id="Node000027" class="node">
<title>Node27</title>
<g id="a_Node000027"><a xlink:title=" ">
<polygon fill="#e0e0e0" stroke="#999999" points="1159,-129 1064,-129 1064,-110 1159,-110 1159,-129"/>
<text text-anchor="middle" x="1111.5" y="-117" font-family="Helvetica,sans-Serif" font-size="10.00">realm/mutex.inl</text>
</a>
</g>
</g>
<!-- Node17&#45;&gt;Node27 -->
<g id="edge39_Node000017_Node000027" class="edge">
<title>Node17&#45;&gt;Node27</title>
<g id="a_edge39_Node000017_Node000027"><a xlink:title=" ">
<path fill="none" stroke="#63b8ff" d="M999.03,-164.98C1020.97,-156.3 1055.24,-142.75 1080.19,-132.88"/>
<polygon fill="#63b8ff" stroke="#63b8ff" points="1081.57,-136.1 1089.58,-129.17 1078.99,-129.59 1081.57,-136.1"/>
</a>
</g>
</g>
<!-- Node18&#45;&gt;Node3 -->
<g id="edge25_Node000018_Node000003" class="edge">
<title>Node18&#45;&gt;Node3</title>
<g id="a_edge25_Node000018_Node000003"><a xlink:title=" ">
<path fill="none" stroke="#63b8ff" d="M1177.24,-111.33C1174.29,-110.86 1171.35,-110.41 1168.5,-110 1025.73,-89.59 986.79,-90.95 840,-74.15"/>
<polygon fill="#63b8ff" stroke="#63b8ff" points="840.04,-70.64 829.7,-72.97 839.24,-77.59 840.04,-70.64"/>
</a>
</g>
</g>
<!-- Node18&#45;&gt;Node11 -->
<g id="edge26_Node000018_Node000011" class="edge">
<title>Node18&#45;&gt;Node11</title>
<g id="a_edge26_Node000018_Node000011"><a xlink:title=" ">
<path fill="none" stroke="#63b8ff" d="M1177.27,-111.13C1174.31,-110.7 1171.36,-110.32 1168.5,-110 981.31,-89.21 380.62,-70.71 234,-66.43"/>
<polygon fill="#63b8ff" stroke="#63b8ff" points="233.96,-62.93 223.86,-66.14 233.76,-69.92 233.96,-62.93"/>
</a>
</g>
</g>
<!-- Node18&#45;&gt;Node13 -->
<g id="edge28_Node000018_Node000013" class="edge">
<title>Node18&#45;&gt;Node13</title>
<g id="a_edge28_Node000018_Node000013"><a xlink:title=" ">
<path fill="none" stroke="#63b8ff" d="M1177.26,-111.23C1174.3,-110.78 1171.35,-110.36 1168.5,-110 961.54,-83.78 907.06,-103.23 700.5,-74 698.13,-73.66 695.69,-73.28 693.25,-72.85"/>
<polygon fill="#63b8ff" stroke="#63b8ff" points="693.73,-69.38 683.26,-70.96 692.43,-76.26 693.73,-69.38"/>
</a>
</g>
</g>
<!-- Node18&#45;&gt;Node15 -->
<g id="edge29_Node000018_Node000015" class="edge">
<title>Node18&#45;&gt;Node15</title>
<g id="a_edge29_Node000018_Node000015"><a xlink:title=" ">
<path fill="none" stroke="#63b8ff" d="M1255.8,-110.67C1294.23,-102.82 1354.59,-89.94 1415.5,-74.11"/>
<polygon fill="#63b8ff" stroke="#63b8ff" points="1416.49,-77.47 1425.27,-71.55 1414.71,-70.7 1416.49,-77.47"/>
</a>
</g>
</g>
<!-- Node19 -->
<g id="Node000019" class="node">
<title>Node19</title>
<g id="a_Node000019"><a xlink:title=" ">
<polygon fill="#e0e0e0" stroke="#999999" points="1269,-74 1212,-74 1212,-55 1269,-55 1269,-74"/>
<text text-anchor="middle" x="1240.5" y="-62" font-family="Helvetica,sans-Serif" font-size="10.00">ostream</text>
</a>
</g>
</g>
<!-- Node18&#45;&gt;Node19 -->
<g id="edge27_Node000018_Node000019" class="edge">
<title>Node18&#45;&gt;Node19</title>
<g id="a_edge27_Node000018_Node000019"><a xlink:title=" ">
<path fill="none" stroke="#63b8ff" d="M1220.46,-109.75C1223.71,-102.57 1228.42,-92.18 1232.45,-83.27"/>
<polygon fill="#63b8ff" stroke="#63b8ff" points="1235.67,-84.64 1236.61,-74.09 1229.3,-81.75 1235.67,-84.64"/>
</a>
</g>
</g>
<!-- Node20 -->
<g id="Node000020" class="node">
<title>Node20</title>
<g id="a_Node000020"><a xlink:title=" ">
<polygon fill="#e0e0e0" stroke="#999999" points="1339.5,-74 1287.5,-74 1287.5,-55 1339.5,-55 1339.5,-74"/>
<text text-anchor="middle" x="1313.5" y="-62" font-family="Helvetica,sans-Serif" font-size="10.00">cassert</text>
</a>
</g>
</g>
<!-- Node18&#45;&gt;Node20 -->
<g id="edge30_Node000018_Node000020" class="edge">
<title>Node18&#45;&gt;Node20</title>
<g id="a_edge30_Node000018_Node000020"><a xlink:title=" ">
<path fill="none" stroke="#63b8ff" d="M1232.08,-109.98C1247.27,-101.69 1270.6,-88.94 1288.4,-79.22"/>
<polygon fill="#63b8ff" stroke="#63b8ff" points="1290.53,-82.04 1297.63,-74.17 1287.18,-75.89 1290.53,-82.04"/>
</a>
</g>
</g>
<!-- Node21 -->
<g id="Node000021" class="node">
<title>Node21</title>
<g id="a_Node000021"><a xlink:title=" ">
<polygon fill="#e0e0e0" stroke="#999999" points="1407.5,-74 1357.5,-74 1357.5,-55 1407.5,-55 1407.5,-74"/>
<text text-anchor="middle" x="1382.5" y="-62" font-family="Helvetica,sans-Serif" font-size="10.00">cstdint</text>
</a>
</g>
</g>
<!-- Node18&#45;&gt;Node21 -->
<g id="edge31_Node000018_Node000021" class="edge">
<title>Node18&#45;&gt;Node21</title>
<g id="a_edge31_Node000018_Node000021"><a xlink:title=" ">
<path fill="none" stroke="#63b8ff" d="M1243.17,-109.98C1271.54,-100.93 1316.52,-86.57 1347.67,-76.62"/>
<polygon fill="#63b8ff" stroke="#63b8ff" points="1348.79,-79.94 1357.26,-73.56 1346.66,-73.27 1348.79,-79.94"/>
</a>
</g>
</g>
<!-- Node22 -->
<g id="Node000022" class="node">
<title>Node22</title>
<g id="a_Node000022"><a xlink:title=" ">
<polygon fill="#e0e0e0" stroke="#999999" points="1091.5,-74 1035.5,-74 1035.5,-55 1091.5,-55 1091.5,-74"/>
<text text-anchor="middle" x="1063.5" y="-62" font-family="Helvetica,sans-Serif" font-size="10.00">sstream</text>
</a>
</g>
</g>
<!-- Node18&#45;&gt;Node22 -->
<g id="edge32_Node000018_Node000022" class="edge">
<title>Node18&#45;&gt;Node22</title>
<g id="a_edge32_Node000018_Node000022"><a xlink:title=" ">
<path fill="none" stroke="#63b8ff" d="M1191.92,-109.98C1166.45,-101.16 1126.46,-87.31 1097.87,-77.41"/>
<polygon fill="#63b8ff" stroke="#63b8ff" points="1098.87,-74.05 1088.27,-74.08 1096.58,-80.66 1098.87,-74.05"/>
</a>
</g>
</g>
<!-- Node23 -->
<g id="Node000023" class="node">
<title>Node23</title>
<g id="a_Node000023"><a xlink:title=" ">
<polygon fill="#e0e0e0" stroke="#999999" points="1193.5,-74 1109.5,-74 1109.5,-55 1193.5,-55 1193.5,-74"/>
<text text-anchor="middle" x="1151.5" y="-62" font-family="Helvetica,sans-Serif" font-size="10.00">realm/utils.inl</text>
</a>
</g>
</g>
<!-- Node18&#45;&gt;Node23 -->
<g id="edge33_Node000018_Node000023" class="edge">
<title>Node18&#45;&gt;Node23</title>
<g id="a_edge33_Node000018_Node000023"><a xlink:title=" ">
<path fill="none" stroke="#63b8ff" d="M1206.06,-109.98C1196.35,-102.07 1181.68,-90.11 1170,-80.58"/>
<polygon fill="#63b8ff" stroke="#63b8ff" points="1172.1,-77.78 1162.13,-74.17 1167.67,-83.2 1172.1,-77.78"/>
</a>
</g>
</g>
<!-- Node24&#45;&gt;Node3 -->
<g id="edge35_Node000024_Node000003" class="edge">
<title>Node24&#45;&gt;Node3</title>
<g id="a_edge35_Node000024_Node000003"><a xlink:title=" ">
<path fill="none" stroke="#63b8ff" d="M960.87,-109.98C921.59,-100.86 859.13,-86.33 816.31,-76.38"/>
<polygon fill="#63b8ff" stroke="#63b8ff" points="816.95,-72.94 806.42,-74.08 815.37,-79.76 816.95,-72.94"/>
</a>
</g>
</g>
<!-- Node25 -->
<g id="Node000025" class="node">
<title>Node25</title>
<g id="a_Node000025"><a xlink:title=" ">
<polygon fill="#e0e0e0" stroke="#999999" points="1017.5,-74 967.5,-74 967.5,-55 1017.5,-55 1017.5,-74"/>
<text text-anchor="middle" x="992.5" y="-62" font-family="Helvetica,sans-Serif" font-size="10.00">atomic</text>
</a>
</g>
</g>
<!-- Node24&#45;&gt;Node25 -->
<g id="edge36_Node000024_Node000025" class="edge">
<title>Node24&#45;&gt;Node25</title>
<g id="a_edge36_Node000024_Node000025"><a xlink:title=" ">
<path fill="none" stroke="#63b8ff" d="M996.67,-109.75C996.02,-102.8 995.08,-92.85 994.26,-84.13"/>
<polygon fill="#63b8ff" stroke="#63b8ff" points="997.73,-83.72 993.31,-74.09 990.77,-84.37 997.73,-83.72"/>
</a>
</g>
</g>
<!-- Node26 -->
<g id="Node000026" class="node">
<title>Node26</title>
<g id="a_Node000026"><a xlink:title=" ">
<polygon fill="#e0e0e0" stroke="#999999" points="949.5,-74 847.5,-74 847.5,-55 949.5,-55 949.5,-74"/>
<text text-anchor="middle" x="898.5" y="-62" font-family="Helvetica,sans-Serif" font-size="10.00">realm/atomics.inl</text>
</a>
</g>
</g>
<!-- Node24&#45;&gt;Node26 -->
<g id="edge37_Node000024_Node000026" class="edge">
<title>Node24&#45;&gt;Node26</title>
<g id="a_edge37_Node000024_Node000026"><a xlink:title=" ">
<path fill="none" stroke="#63b8ff" d="M981.59,-109.98C965.95,-101.61 941.84,-88.7 923.62,-78.95"/>
<polygon fill="#63b8ff" stroke="#63b8ff" points="925.16,-75.8 914.7,-74.17 921.86,-81.98 925.16,-75.8"/>
</a>
</g>
</g>
<!-- Node30&#45;&gt;Node8 -->
<g id="edge44_Node000030_Node000008" class="edge">
<title>Node30&#45;&gt;Node8</title>
<g id="a_edge44_Node000030_Node000008"><a xlink:title=" ">
<path fill="none" stroke="#63b8ff" d="M85.29,-164.98C124.74,-155.86 187.48,-141.33 230.48,-131.38"/>
<polygon fill="#63b8ff" stroke="#63b8ff" points="231.47,-134.75 240.42,-129.08 229.89,-127.93 231.47,-134.75"/>
</a>
</g>
</g>
<!-- Node30&#45;&gt;Node9 -->
<g id="edge45_Node000030_Node000009" class="edge">
<title>Node30&#45;&gt;Node9</title>
<g id="a_edge45_Node000030_Node000009"><a xlink:title=" ">
<path fill="none" stroke="#63b8ff" d="M41.29,-164.66C31.72,-151.79 17.27,-127.51 28.5,-110 41.45,-89.81 66.12,-78.65 87.34,-72.57"/>
<polygon fill="#63b8ff" stroke="#63b8ff" points="88.3,-75.93 97.1,-70.04 86.54,-69.16 88.3,-75.93"/>
</a>
</g>
</g>
<!-- Node31 -->
<g id="Node000031" class="node">
<title>Node31</title>
<g id="a_Node000031"><a xlink:title=" ">
<polygon fill="#e0e0e0" stroke="#999999" points="97.5,-129 37.5,-129 37.5,-110 97.5,-110 97.5,-129"/>
<text text-anchor="middle" x="67.5" y="-117" font-family="Helvetica,sans-Serif" font-size="10.00">iostream</text>
</a>
</g>
</g>
<!-- Node30&#45;&gt;Node31 -->
<g id="edge46_Node000030_Node000031" class="edge">
<title>Node30&#45;&gt;Node31</title>
<g id="a_edge46_Node000030_Node000031"><a xlink:title=" ">
<path fill="none" stroke="#63b8ff" d="M51.64,-164.75C54.18,-157.65 57.86,-147.4 61.03,-138.56"/>
<polygon fill="#63b8ff" stroke="#63b8ff" points="64.34,-139.68 64.42,-129.09 57.75,-137.32 64.34,-139.68"/>
</a>
</g>
</g>
<!-- Node32&#45;&gt;Node9 -->
<g id="edge48_Node000032_Node000009" class="edge">
<title>Node32&#45;&gt;Node9</title>
<g id="a_edge48_Node000032_Node000009"><a xlink:title=" ">
<path fill="none" stroke="#63b8ff" d="M188.42,-219.87C173.82,-212.52 154.87,-200.5 144.5,-184 125.07,-153.08 123.34,-108.97 124.18,-84.21"/>
<polygon fill="#63b8ff" stroke="#63b8ff" points="127.68,-84.2 124.71,-74.03 120.69,-83.83 127.68,-84.2"/>
</a>
</g>
</g>
<!-- Node33 -->
<g id="Node000033" class="node">
<title>Node33</title>
<g id="a_Node000033"><a xlink:title=" ">
<polygon fill="#e0e0e0" stroke="#999999" points="263,-184 154,-184 154,-165 263,-165 263,-184"/>
<text text-anchor="middle" x="208.5" y="-172" font-family="Helvetica,sans-Serif" font-size="10.00">realm/bytearray.inl</text>
</a>
</g>
</g>
<!-- Node32&#45;&gt;Node33 -->
<g id="edge49_Node000032_Node000033" class="edge">
<title>Node32&#45;&gt;Node33</title>
<g id="a_edge49_Node000032_Node000033"><a xlink:title=" ">
<path fill="none" stroke="#63b8ff" d="M208.5,-219.75C208.5,-212.8 208.5,-202.85 208.5,-194.13"/>
<polygon fill="#63b8ff" stroke="#63b8ff" points="212,-194.09 208.5,-184.09 205,-194.09 212,-194.09"/>
</a>
</g>
</g>
</g>
</svg>
