<?xml version="1.0" encoding="UTF-8" standalone="no"?>
<!DOCTYPE svg PUBLIC "-//W3C//DTD SVG 1.1//EN"
 "http://www.w3.org/Graphics/SVG/1.1/DTD/svg11.dtd">
<!-- Generated by graphviz version 2.43.0 (0)
 -->
<!-- Title: /home/runner/work/realm/realm/realm&#45;src/src/realm/hip/hip_module.h Pages: 1 -->
<svg width="1794pt" height="379pt"
 viewBox="0.00 0.00 1793.63 379.00" xmlns="http://www.w3.org/2000/svg" xmlns:xlink="http://www.w3.org/1999/xlink">
<g id="graph0" class="graph" transform="scale(1 1) rotate(0) translate(4 375)">
<title>/home/runner/work/realm/realm/realm&#45;src/src/realm/hip/hip_module.h</title>
<!-- Node1 -->
<g id="Node000001" class="node">
<title>Node1</title>
<g id="a_Node000001"><a xlink:title=" ">
<polygon fill="#999999" stroke="#666666" points="1465.63,-371 1319.63,-371 1319.63,-330 1465.63,-330 1465.63,-371"/>
<text text-anchor="start" x="1327.63" y="-359" font-family="Helvetica,sans-Serif" font-size="10.00">/home/runner/work/realm</text>
<text text-anchor="start" x="1327.63" y="-348" font-family="Helvetica,sans-Serif" font-size="10.00">/realm/realm&#45;src/src/realm</text>
<text text-anchor="middle" x="1392.63" y="-337" font-family="Helvetica,sans-Serif" font-size="10.00">/hip/hip_module.h</text>
</a>
</g>
</g>
<!-- Node2 -->
<g id="Node000002" class="node">
<title>Node2</title>
<g id="a_Node000002"><a xlink:href="realm__config_8h.html" target="_top" xlink:title=" ">
<polygon fill="white" stroke="#666666" points="1377.63,-74 1257.63,-74 1257.63,-55 1377.63,-55 1377.63,-74"/>
<text text-anchor="middle" x="1317.63" y="-62" font-family="Helvetica,sans-Serif" font-size="10.00">realm/realm_config.h</text>
</a>
</g>
</g>
<!-- Node1&#45;&gt;Node2 -->
<g id="edge1_Node000001_Node000002" class="edge">
<title>Node1&#45;&gt;Node2</title>
<g id="a_edge1_Node000001_Node000002"><a xlink:title=" ">
<path fill="none" stroke="#63b8ff" d="M1465.7,-334.31C1518.89,-318.48 1581.63,-287.69 1581.63,-230.5 1581.63,-230.5 1581.63,-230.5 1581.63,-173.5 1581.63,-89.73 1466.37,-69.51 1388.16,-65.43"/>
<polygon fill="#63b8ff" stroke="#63b8ff" points="1388.01,-61.92 1377.87,-64.98 1387.7,-68.92 1388.01,-61.92"/>
</a>
</g>
</g>
<!-- Node5 -->
<g id="Node000005" class="node">
<title>Node5</title>
<g id="a_Node000005"><a xlink:href="module_8h.html" target="_top" xlink:title=" ">
<polygon fill="white" stroke="#666666" points="881.63,-239 787.63,-239 787.63,-220 881.63,-220 881.63,-239"/>
<text text-anchor="middle" x="834.63" y="-227" font-family="Helvetica,sans-Serif" font-size="10.00">realm/module.h</text>
</a>
</g>
</g>
<!-- Node1&#45;&gt;Node5 -->
<g id="edge4_Node000001_Node000005" class="edge">
<title>Node1&#45;&gt;Node5</title>
<g id="a_edge4_Node000001_Node000005"><a xlink:title=" ">
<path fill="none" stroke="#63b8ff" d="M1319.4,-337.64C1257.24,-327.24 1165.79,-311.13 1086.63,-294 1011.76,-277.8 925.34,-255.15 875.64,-241.74"/>
<polygon fill="#63b8ff" stroke="#63b8ff" points="876.47,-238.34 865.9,-239.1 874.64,-245.09 876.47,-238.34"/>
</a>
</g>
</g>
<!-- Node15 -->
<g id="Node000015" class="node">
<title>Node15</title>
<g id="a_Node000015"><a xlink:href="processor_8h.html" target="_top" xlink:title=" ">
<polygon fill="white" stroke="#666666" points="400.63,-294 296.63,-294 296.63,-275 400.63,-275 400.63,-294"/>
<text text-anchor="middle" x="348.63" y="-282" font-family="Helvetica,sans-Serif" font-size="10.00">realm/processor.h</text>
</a>
</g>
</g>
<!-- Node1&#45;&gt;Node15 -->
<g id="edge19_Node000001_Node000015" class="edge">
<title>Node1&#45;&gt;Node15</title>
<g id="a_edge19_Node000001_Node000015"><a xlink:title=" ">
<path fill="none" stroke="#63b8ff" d="M1319.22,-345C1123.78,-333.02 593.34,-300.5 411.1,-289.33"/>
<polygon fill="#63b8ff" stroke="#63b8ff" points="411.08,-285.82 400.88,-288.7 410.65,-292.81 411.08,-285.82"/>
</a>
</g>
</g>
<!-- Node29 -->
<g id="Node000029" class="node">
<title>Node29</title>
<g id="a_Node000029"><a xlink:href="network_8h.html" target="_top" xlink:title=" ">
<polygon fill="white" stroke="#666666" points="1192.13,-294 1095.13,-294 1095.13,-275 1192.13,-275 1192.13,-294"/>
<text text-anchor="middle" x="1143.63" y="-282" font-family="Helvetica,sans-Serif" font-size="10.00">realm/network.h</text>
</a>
</g>
</g>
<!-- Node1&#45;&gt;Node29 -->
<g id="edge45_Node000001_Node000029" class="edge">
<title>Node1&#45;&gt;Node29</title>
<g id="a_edge45_Node000001_Node000029"><a xlink:title=" ">
<path fill="none" stroke="#63b8ff" d="M1319.61,-330.73C1276.45,-319.64 1223.28,-305.97 1186.75,-296.58"/>
<polygon fill="#63b8ff" stroke="#63b8ff" points="1187.47,-293.15 1176.91,-294.05 1185.72,-299.93 1187.47,-293.15"/>
</a>
</g>
</g>
<!-- Node32 -->
<g id="Node000032" class="node">
<title>Node32</title>
<g id="a_Node000032"><a xlink:href="atomics_8h.html" target="_top" xlink:title=" ">
<polygon fill="white" stroke="#666666" points="1705.63,-129 1609.63,-129 1609.63,-110 1705.63,-110 1705.63,-129"/>
<text text-anchor="middle" x="1657.63" y="-117" font-family="Helvetica,sans-Serif" font-size="10.00">realm/atomics.h</text>
</a>
</g>
</g>
<!-- Node1&#45;&gt;Node32 -->
<g id="edge68_Node000001_Node000032" class="edge">
<title>Node1&#45;&gt;Node32</title>
<g id="a_edge68_Node000001_Node000032"><a xlink:title=" ">
<path fill="none" stroke="#63b8ff" d="M1465.94,-345.93C1508.59,-340.19 1560.66,-326.4 1595.63,-294 1640.75,-252.2 1653.07,-175.32 1656.41,-139.64"/>
<polygon fill="#63b8ff" stroke="#63b8ff" points="1659.93,-139.47 1657.23,-129.22 1652.95,-138.91 1659.93,-139.47"/>
</a>
</g>
</g>
<!-- Node41 -->
<g id="Node000041" class="node">
<title>Node41</title>
<g id="a_Node000041"><a xlink:title=" ">
<polygon fill="#e0e0e0" stroke="#999999" points="1785.63,-294 1647.63,-294 1647.63,-275 1785.63,-275 1785.63,-294"/>
<text text-anchor="middle" x="1716.63" y="-282" font-family="Helvetica,sans-Serif" font-size="10.00">realm/hip/hip_module.inl</text>
</a>
</g>
</g>
<!-- Node1&#45;&gt;Node41 -->
<g id="edge69_Node000001_Node000041" class="edge">
<title>Node1&#45;&gt;Node41</title>
<g id="a_edge69_Node000001_Node000041"><a xlink:title=" ">
<path fill="none" stroke="#63b8ff" d="M1465.75,-335.06C1525.89,-323.18 1609.7,-306.62 1663.57,-295.98"/>
<polygon fill="#63b8ff" stroke="#63b8ff" points="1664.47,-299.37 1673.6,-294 1663.11,-292.5 1664.47,-299.37"/>
</a>
</g>
</g>
<!-- Node3 -->
<g id="Node000003" class="node">
<title>Node3</title>
<g id="a_Node000003"><a xlink:href="realm__defines_8h.html" target="_top" xlink:title=" ">
<polygon fill="white" stroke="#666666" points="1296.13,-19 1201.13,-19 1201.13,0 1296.13,0 1296.13,-19"/>
<text text-anchor="middle" x="1248.63" y="-7" font-family="Helvetica,sans-Serif" font-size="10.00">realm_defines.h</text>
</a>
</g>
</g>
<!-- Node2&#45;&gt;Node3 -->
<g id="edge2_Node000002_Node000003" class="edge">
<title>Node2&#45;&gt;Node3</title>
<g id="a_edge2_Node000002_Node000003"><a xlink:title=" ">
<path fill="none" stroke="#63b8ff" d="M1306.55,-54.98C1296.15,-47 1280.37,-34.88 1267.91,-25.31"/>
<polygon fill="#63b8ff" stroke="#63b8ff" points="1269.98,-22.49 1259.92,-19.17 1265.72,-28.04 1269.98,-22.49"/>
</a>
</g>
</g>
<!-- Node4 -->
<g id="Node000004" class="node">
<title>Node4</title>
<g id="a_Node000004"><a xlink:href="compiler__support_8h.html" target="_top" xlink:title=" ">
<polygon fill="white" stroke="#666666" points="1456.63,-19 1314.63,-19 1314.63,0 1456.63,0 1456.63,-19"/>
<text text-anchor="middle" x="1385.63" y="-7" font-family="Helvetica,sans-Serif" font-size="10.00">realm/compiler_support.h</text>
</a>
</g>
</g>
<!-- Node2&#45;&gt;Node4 -->
<g id="edge3_Node000002_Node000004" class="edge">
<title>Node2&#45;&gt;Node4</title>
<g id="a_edge3_Node000002_Node000004"><a xlink:title=" ">
<path fill="none" stroke="#63b8ff" d="M1328.56,-54.98C1338.71,-47.07 1354.05,-35.11 1366.28,-25.58"/>
<polygon fill="#63b8ff" stroke="#63b8ff" points="1368.77,-28.08 1374.51,-19.17 1364.47,-22.56 1368.77,-28.08"/>
</a>
</g>
</g>
<!-- Node5&#45;&gt;Node2 -->
<g id="edge5_Node000005_Node000002" class="edge">
<title>Node5&#45;&gt;Node2</title>
<g id="a_edge5_Node000005_Node000002"><a xlink:title=" ">
<path fill="none" stroke="#63b8ff" d="M857.11,-219.93C891.97,-206.85 961.32,-181.68 1021.63,-165 1094.81,-144.76 1116.92,-153.95 1188.63,-129 1227.1,-115.61 1268.93,-93.5 1294.22,-79.22"/>
<polygon fill="#63b8ff" stroke="#63b8ff" points="1296.11,-82.16 1303.05,-74.16 1292.64,-76.09 1296.11,-82.16"/>
</a>
</g>
</g>
<!-- Node6 -->
<g id="Node000006" class="node">
<title>Node6</title>
<g id="a_Node000006"><a xlink:href="module__config_8h.html" target="_top" xlink:title=" ">
<polygon fill="white" stroke="#666666" points="898.63,-184 770.63,-184 770.63,-165 898.63,-165 898.63,-184"/>
<text text-anchor="middle" x="834.63" y="-172" font-family="Helvetica,sans-Serif" font-size="10.00">realm/module_config.h</text>
</a>
</g>
</g>
<!-- Node5&#45;&gt;Node6 -->
<g id="edge6_Node000005_Node000006" class="edge">
<title>Node5&#45;&gt;Node6</title>
<g id="a_edge6_Node000005_Node000006"><a xlink:title=" ">
<path fill="none" stroke="#63b8ff" d="M834.63,-219.75C834.63,-212.8 834.63,-202.85 834.63,-194.13"/>
<polygon fill="#63b8ff" stroke="#63b8ff" points="838.13,-194.09 834.63,-184.09 831.13,-194.09 838.13,-194.09"/>
</a>
</g>
</g>
<!-- Node10 -->
<g id="Node000010" class="node">
<title>Node10</title>
<g id="a_Node000010"><a xlink:title=" ">
<polygon fill="#e0e0e0" stroke="#999999" points="858.63,-74 814.63,-74 814.63,-55 858.63,-55 858.63,-74"/>
<text text-anchor="middle" x="836.63" y="-62" font-family="Helvetica,sans-Serif" font-size="10.00">string</text>
</a>
</g>
</g>
<!-- Node5&#45;&gt;Node10 -->
<g id="edge17_Node000005_Node000010" class="edge">
<title>Node5&#45;&gt;Node10</title>
<g id="a_edge17_Node000005_Node000010"><a xlink:title=" ">
<path fill="none" stroke="#63b8ff" d="M787.41,-226.69C756.42,-222.75 717.99,-212.02 697.63,-184 678.3,-157.39 678.24,-136.57 697.63,-110 700.9,-105.52 764.77,-86.34 804.78,-74.67"/>
<polygon fill="#63b8ff" stroke="#63b8ff" points="805.76,-78.03 814.39,-71.88 803.81,-71.31 805.76,-78.03"/>
</a>
</g>
</g>
<!-- Node12 -->
<g id="Node000012" class="node">
<title>Node12</title>
<g id="a_Node000012"><a xlink:title=" ">
<polygon fill="#e0e0e0" stroke="#999999" points="211.13,-74 164.13,-74 164.13,-55 211.13,-55 211.13,-74"/>
<text text-anchor="middle" x="187.63" y="-62" font-family="Helvetica,sans-Serif" font-size="10.00">vector</text>
</a>
</g>
</g>
<!-- Node5&#45;&gt;Node12 -->
<g id="edge16_Node000005_Node000012" class="edge">
<title>Node5&#45;&gt;Node12</title>
<g id="a_edge16_Node000005_Node000012"><a xlink:title=" ">
<path fill="none" stroke="#63b8ff" d="M787.31,-227.61C672.5,-224.98 381.94,-215.34 290.63,-184 248.43,-169.51 233.31,-164.77 206.63,-129 196.85,-115.89 192.07,-97.75 189.76,-84.22"/>
<polygon fill="#63b8ff" stroke="#63b8ff" points="193.2,-83.56 188.34,-74.14 186.27,-84.53 193.2,-83.56"/>
</a>
</g>
</g>
<!-- Node14 -->
<g id="Node000014" class="node">
<title>Node14</title>
<g id="a_Node000014"><a xlink:title=" ">
<polygon fill="#e0e0e0" stroke="#999999" points="406.63,-74 368.63,-74 368.63,-55 406.63,-55 406.63,-74"/>
<text text-anchor="middle" x="387.63" y="-62" font-family="Helvetica,sans-Serif" font-size="10.00">map</text>
</a>
</g>
</g>
<!-- Node5&#45;&gt;Node14 -->
<g id="edge18_Node000005_Node000014" class="edge">
<title>Node5&#45;&gt;Node14</title>
<g id="a_edge18_Node000005_Node000014"><a xlink:title=" ">
<path fill="none" stroke="#63b8ff" d="M801.95,-219.97C744.2,-204.5 620.78,-169.63 520.63,-129 500.13,-120.68 446.64,-94.63 414.08,-78.59"/>
<polygon fill="#63b8ff" stroke="#63b8ff" points="415.62,-75.45 405.1,-74.16 412.52,-81.73 415.62,-75.45"/>
</a>
</g>
</g>
<!-- Node6&#45;&gt;Node2 -->
<g id="edge7_Node000006_Node000002" class="edge">
<title>Node6&#45;&gt;Node2</title>
<g id="a_edge7_Node000006_Node000002"><a xlink:title=" ">
<path fill="none" stroke="#63b8ff" d="M898.75,-168.4C962.38,-162.39 1062.31,-150.41 1146.63,-129 1198.23,-115.9 1255.8,-92.62 1289.25,-78.18"/>
<polygon fill="#63b8ff" stroke="#63b8ff" points="1291.06,-81.21 1298.82,-74.01 1288.26,-74.8 1291.06,-81.21"/>
</a>
</g>
</g>
<!-- Node7 -->
<g id="Node000007" class="node">
<title>Node7</title>
<g id="a_Node000007"><a xlink:href="realm__c_8h.html" target="_top" xlink:title=" ">
<polygon fill="white" stroke="#666666" points="1137.63,-129 1041.63,-129 1041.63,-110 1137.63,-110 1137.63,-129"/>
<text text-anchor="middle" x="1089.63" y="-117" font-family="Helvetica,sans-Serif" font-size="10.00">realm/realm_c.h</text>
</a>
</g>
</g>
<!-- Node6&#45;&gt;Node7 -->
<g id="edge8_Node000006_Node000007" class="edge">
<title>Node6&#45;&gt;Node7</title>
<g id="a_edge8_Node000006_Node000007"><a xlink:title=" ">
<path fill="none" stroke="#63b8ff" d="M875.6,-164.98C919.9,-155.78 990.57,-141.09 1038.48,-131.13"/>
<polygon fill="#63b8ff" stroke="#63b8ff" points="1039.26,-134.54 1048.34,-129.08 1037.84,-127.69 1039.26,-134.54"/>
</a>
</g>
</g>
<!-- Node6&#45;&gt;Node10 -->
<g id="edge12_Node000006_Node000010" class="edge">
<title>Node6&#45;&gt;Node10</title>
<g id="a_edge12_Node000006_Node000010"><a xlink:title=" ">
<path fill="none" stroke="#63b8ff" d="M891.3,-165C931.73,-157.63 981.07,-145.56 993.63,-129 998.74,-122.27 998.72,-116.74 993.63,-110 992.66,-108.72 914.33,-86.94 868.7,-74.33"/>
<polygon fill="#63b8ff" stroke="#63b8ff" points="869.52,-70.93 858.95,-71.64 867.66,-77.68 869.52,-70.93"/>
</a>
</g>
</g>
<!-- Node11 -->
<g id="Node000011" class="node">
<title>Node11</title>
<g id="a_Node000011"><a xlink:title=" ">
<polygon fill="#e0e0e0" stroke="#999999" points="985.13,-129 892.13,-129 892.13,-110 985.13,-110 985.13,-129"/>
<text text-anchor="middle" x="938.63" y="-117" font-family="Helvetica,sans-Serif" font-size="10.00">unordered_map</text>
</a>
</g>
</g>
<!-- Node6&#45;&gt;Node11 -->
<g id="edge13_Node000006_Node000011" class="edge">
<title>Node6&#45;&gt;Node11</title>
<g id="a_edge13_Node000006_Node000011"><a xlink:title=" ">
<path fill="none" stroke="#63b8ff" d="M851.34,-164.98C867.85,-156.57 893.33,-143.59 912.51,-133.81"/>
<polygon fill="#63b8ff" stroke="#63b8ff" points="914.3,-136.83 921.62,-129.17 911.12,-130.59 914.3,-136.83"/>
</a>
</g>
</g>
<!-- Node6&#45;&gt;Node12 -->
<g id="edge14_Node000006_Node000012" class="edge">
<title>Node6&#45;&gt;Node12</title>
<g id="a_edge14_Node000006_Node000012"><a xlink:title=" ">
<path fill="none" stroke="#63b8ff" d="M770.45,-165.31C706.89,-156.99 606.86,-143.32 520.63,-129 410.82,-110.76 281.49,-84.81 221.44,-72.5"/>
<polygon fill="#63b8ff" stroke="#63b8ff" points="221.89,-69.02 211.39,-70.43 220.48,-75.87 221.89,-69.02"/>
</a>
</g>
</g>
<!-- Node13 -->
<g id="Node000013" class="node">
<title>Node13</title>
<g id="a_Node000013"><a xlink:title=" ">
<polygon fill="#e0e0e0" stroke="#999999" points="873.63,-129 739.63,-129 739.63,-110 873.63,-110 873.63,-129"/>
<text text-anchor="middle" x="806.63" y="-117" font-family="Helvetica,sans-Serif" font-size="10.00">realm/module_config.inl</text>
</a>
</g>
</g>
<!-- Node6&#45;&gt;Node13 -->
<g id="edge15_Node000006_Node000013" class="edge">
<title>Node6&#45;&gt;Node13</title>
<g id="a_edge15_Node000006_Node000013"><a xlink:title=" ">
<path fill="none" stroke="#63b8ff" d="M830.01,-164.75C826.18,-157.49 820.61,-146.95 815.87,-137.98"/>
<polygon fill="#63b8ff" stroke="#63b8ff" points="818.94,-136.3 811.17,-129.09 812.75,-139.57 818.94,-136.3"/>
</a>
</g>
</g>
<!-- Node7&#45;&gt;Node2 -->
<g id="edge9_Node000007_Node000002" class="edge">
<title>Node7&#45;&gt;Node2</title>
<g id="a_edge9_Node000007_Node000002"><a xlink:title=" ">
<path fill="none" stroke="#63b8ff" d="M1126.26,-109.98C1165.54,-100.86 1228.01,-86.33 1270.82,-76.38"/>
<polygon fill="#63b8ff" stroke="#63b8ff" points="1271.77,-79.76 1280.71,-74.08 1270.18,-72.94 1271.77,-79.76"/>
</a>
</g>
</g>
<!-- Node8 -->
<g id="Node000008" class="node">
<title>Node8</title>
<g id="a_Node000008"><a xlink:title=" ">
<polygon fill="#e0e0e0" stroke="#999999" points="932.63,-74 876.63,-74 876.63,-55 932.63,-55 932.63,-74"/>
<text text-anchor="middle" x="904.63" y="-62" font-family="Helvetica,sans-Serif" font-size="10.00">stddef.h</text>
</a>
</g>
</g>
<!-- Node7&#45;&gt;Node8 -->
<g id="edge10_Node000007_Node000008" class="edge">
<title>Node7&#45;&gt;Node8</title>
<g id="a_edge10_Node000007_Node000008"><a xlink:title=" ">
<path fill="none" stroke="#63b8ff" d="M1059.91,-109.98C1028.02,-100.85 977.29,-86.32 942.55,-76.36"/>
<polygon fill="#63b8ff" stroke="#63b8ff" points="943.34,-72.95 932.77,-73.56 941.42,-79.68 943.34,-72.95"/>
</a>
</g>
</g>
<!-- Node9 -->
<g id="Node000009" class="node">
<title>Node9</title>
<g id="a_Node000009"><a xlink:title=" ">
<polygon fill="#e0e0e0" stroke="#999999" points="1230.13,-74 1177.13,-74 1177.13,-55 1230.13,-55 1230.13,-74"/>
<text text-anchor="middle" x="1203.63" y="-62" font-family="Helvetica,sans-Serif" font-size="10.00">stdint.h</text>
</a>
</g>
</g>
<!-- Node7&#45;&gt;Node9 -->
<g id="edge11_Node000007_Node000009" class="edge">
<title>Node7&#45;&gt;Node9</title>
<g id="a_edge11_Node000007_Node000009"><a xlink:title=" ">
<path fill="none" stroke="#63b8ff" d="M1107.95,-109.98C1126.29,-101.46 1154.74,-88.23 1175.86,-78.41"/>
<polygon fill="#63b8ff" stroke="#63b8ff" points="1177.39,-81.56 1184.98,-74.17 1174.44,-75.21 1177.39,-81.56"/>
</a>
</g>
</g>
<!-- Node15&#45;&gt;Node7 -->
<g id="edge20_Node000015_Node000007" class="edge">
<title>Node15&#45;&gt;Node7</title>
<g id="a_edge20_Node000015_Node000007"><a xlink:title=" ">
<path fill="none" stroke="#63b8ff" d="M400.86,-282.21C518.37,-278.82 800.37,-267.86 890.63,-239 909.71,-232.9 1019.61,-164.53 1067.42,-134.5"/>
<polygon fill="#63b8ff" stroke="#63b8ff" points="1069.51,-137.32 1076.11,-129.04 1065.78,-131.4 1069.51,-137.32"/>
</a>
</g>
</g>
<!-- Node15&#45;&gt;Node12 -->
<g id="edge42_Node000015_Node000012" class="edge">
<title>Node15&#45;&gt;Node12</title>
<g id="a_edge42_Node000015_Node000012"><a xlink:title=" ">
<path fill="none" stroke="#63b8ff" d="M296.36,-280.37C243.3,-275.85 159.52,-264.94 91.63,-239 48.55,-222.54 25.99,-224.34 3.63,-184 -8.77,-161.62 14.98,-117.95 23.63,-110 59.51,-77.01 117.37,-68.07 153.91,-65.87"/>
<polygon fill="#63b8ff" stroke="#63b8ff" points="154.24,-69.36 164.06,-65.4 153.91,-62.37 154.24,-69.36"/>
</a>
</g>
</g>
<!-- Node15&#45;&gt;Node14 -->
<g id="edge43_Node000015_Node000014" class="edge">
<title>Node15&#45;&gt;Node14</title>
<g id="a_edge43_Node000015_Node000014"><a xlink:title=" ">
<path fill="none" stroke="#63b8ff" d="M355.7,-274.88C368.65,-258.44 395.8,-220.94 405.63,-184 414.91,-149.12 403.36,-107.11 394.94,-83.64"/>
<polygon fill="#63b8ff" stroke="#63b8ff" points="398.2,-82.36 391.38,-74.26 391.65,-84.85 398.2,-82.36"/>
</a>
</g>
</g>
<!-- Node16 -->
<g id="Node000016" class="node">
<title>Node16</title>
<g id="a_Node000016"><a xlink:href="event_8h.html" target="_top" xlink:title=" ">
<polygon fill="white" stroke="#666666" points="314.13,-239 229.13,-239 229.13,-220 314.13,-220 314.13,-239"/>
<text text-anchor="middle" x="271.63" y="-227" font-family="Helvetica,sans-Serif" font-size="10.00">realm/event.h</text>
</a>
</g>
</g>
<!-- Node15&#45;&gt;Node16 -->
<g id="edge21_Node000015_Node000016" class="edge">
<title>Node15&#45;&gt;Node16</title>
<g id="a_edge21_Node000015_Node000016"><a xlink:title=" ">
<path fill="none" stroke="#63b8ff" d="M336.26,-274.98C324.54,-266.92 306.71,-254.65 292.75,-245.03"/>
<polygon fill="#63b8ff" stroke="#63b8ff" points="294.45,-241.96 284.23,-239.17 290.48,-247.72 294.45,-241.96"/>
</a>
</g>
</g>
<!-- Node28 -->
<g id="Node000028" class="node">
<title>Node28</title>
<g id="a_Node000028"><a xlink:title=" ">
<polygon fill="#e0e0e0" stroke="#999999" points="210.63,-239 100.63,-239 100.63,-220 210.63,-220 210.63,-239"/>
<text text-anchor="middle" x="155.63" y="-227" font-family="Helvetica,sans-Serif" font-size="10.00">realm/processor.inl</text>
</a>
</g>
</g>
<!-- Node15&#45;&gt;Node28 -->
<g id="edge44_Node000015_Node000028" class="edge">
<title>Node15&#45;&gt;Node28</title>
<g id="a_edge44_Node000015_Node000028"><a xlink:title=" ">
<path fill="none" stroke="#63b8ff" d="M317.62,-274.98C284.8,-265.97 232.84,-251.7 196.65,-241.76"/>
<polygon fill="#63b8ff" stroke="#63b8ff" points="197.45,-238.36 186.88,-239.08 195.6,-245.11 197.45,-238.36"/>
</a>
</g>
</g>
<!-- Node16&#45;&gt;Node7 -->
<g id="edge22_Node000016_Node000007" class="edge">
<title>Node16&#45;&gt;Node7</title>
<g id="a_edge22_Node000016_Node000007"><a xlink:title=" ">
<path fill="none" stroke="#63b8ff" d="M314.49,-227.43C438.27,-224.02 794.69,-211.99 907.63,-184 927.91,-178.97 931.1,-172.42 950.63,-165 983.65,-152.46 1021.92,-140.38 1049.93,-131.98"/>
<polygon fill="#63b8ff" stroke="#63b8ff" points="1051.17,-135.27 1059.76,-129.06 1049.18,-128.56 1051.17,-135.27"/>
</a>
</g>
</g>
<!-- Node16&#45;&gt;Node12 -->
<g id="edge38_Node000016_Node000012" class="edge">
<title>Node16&#45;&gt;Node12</title>
<g id="a_edge38_Node000016_Node000012"><a xlink:title=" ">
<path fill="none" stroke="#63b8ff" d="M229.01,-221.42C156.88,-209.38 18.34,-186.03 16.63,-184 -28.39,-130.44 92.64,-90.09 154.2,-73.62"/>
<polygon fill="#63b8ff" stroke="#63b8ff" points="155.09,-77 163.89,-71.09 153.33,-70.23 155.09,-77"/>
</a>
</g>
</g>
<!-- Node17 -->
<g id="Node000017" class="node">
<title>Node17</title>
<g id="a_Node000017"><a xlink:href="utils_8h.html" target="_top" xlink:title=" ">
<polygon fill="white" stroke="#666666" points="607.63,-129 529.63,-129 529.63,-110 607.63,-110 607.63,-129"/>
<text text-anchor="middle" x="568.63" y="-117" font-family="Helvetica,sans-Serif" font-size="10.00">realm/utils.h</text>
</a>
</g>
</g>
<!-- Node16&#45;&gt;Node17 -->
<g id="edge23_Node000016_Node000017" class="edge">
<title>Node16&#45;&gt;Node17</title>
<g id="a_edge23_Node000016_Node000017"><a xlink:title=" ">
<path fill="none" stroke="#63b8ff" d="M271.52,-219.57C271.86,-205.65 274.71,-178.95 290.63,-165 323.88,-135.88 448.9,-125.69 519.43,-122.22"/>
<polygon fill="#63b8ff" stroke="#63b8ff" points="519.6,-125.72 529.42,-121.76 519.27,-118.73 519.6,-125.72"/>
</a>
</g>
</g>
<!-- Node23 -->
<g id="Node000023" class="node">
<title>Node23</title>
<g id="a_Node000023"><a xlink:href="memory_8h.html" target="_top" xlink:title=" ">
<polygon fill="white" stroke="#666666" points="397.13,-184 300.13,-184 300.13,-165 397.13,-165 397.13,-184"/>
<text text-anchor="middle" x="348.63" y="-172" font-family="Helvetica,sans-Serif" font-size="10.00">realm/memory.h</text>
</a>
</g>
</g>
<!-- Node16&#45;&gt;Node23 -->
<g id="edge33_Node000016_Node000023" class="edge">
<title>Node16&#45;&gt;Node23</title>
<g id="a_edge33_Node000016_Node000023"><a xlink:title=" ">
<path fill="none" stroke="#63b8ff" d="M284,-219.98C295.72,-211.92 313.55,-199.65 327.52,-190.03"/>
<polygon fill="#63b8ff" stroke="#63b8ff" points="329.78,-192.72 336.04,-184.17 325.81,-186.96 329.78,-192.72"/>
</a>
</g>
</g>
<!-- Node24 -->
<g id="Node000024" class="node">
<title>Node24</title>
<g id="a_Node000024"><a xlink:title=" ">
<polygon fill="#e0e0e0" stroke="#999999" points="275.63,-129 215.63,-129 215.63,-110 275.63,-110 275.63,-129"/>
<text text-anchor="middle" x="245.63" y="-117" font-family="Helvetica,sans-Serif" font-size="10.00">iostream</text>
</a>
</g>
</g>
<!-- Node16&#45;&gt;Node24 -->
<g id="edge40_Node000016_Node000024" class="edge">
<title>Node16&#45;&gt;Node24</title>
<g id="a_edge40_Node000016_Node000024"><a xlink:title=" ">
<path fill="none" stroke="#63b8ff" d="M268.53,-219.72C265.47,-210.81 260.79,-196.57 257.63,-184 253.91,-169.17 250.75,-152.13 248.61,-139.44"/>
<polygon fill="#63b8ff" stroke="#63b8ff" points="252,-138.51 246.94,-129.2 245.09,-139.63 252,-138.51"/>
</a>
</g>
</g>
<!-- Node26 -->
<g id="Node000026" class="node">
<title>Node26</title>
<g id="a_Node000026"><a xlink:title=" ">
<polygon fill="#e0e0e0" stroke="#999999" points="57.63,-184 25.63,-184 25.63,-165 57.63,-165 57.63,-184"/>
<text text-anchor="middle" x="41.63" y="-172" font-family="Helvetica,sans-Serif" font-size="10.00">set</text>
</a>
</g>
</g>
<!-- Node16&#45;&gt;Node26 -->
<g id="edge39_Node000016_Node000026" class="edge">
<title>Node16&#45;&gt;Node26</title>
<g id="a_edge39_Node000016_Node000026"><a xlink:title=" ">
<path fill="none" stroke="#63b8ff" d="M228.88,-220.69C189.29,-213.14 128.63,-200.73 67.5,-183.98"/>
<polygon fill="#63b8ff" stroke="#63b8ff" points="68.26,-180.56 57.69,-181.26 66.39,-187.31 68.26,-180.56"/>
</a>
</g>
</g>
<!-- Node27 -->
<g id="Node000027" class="node">
<title>Node27</title>
<g id="a_Node000027"><a xlink:title=" ">
<polygon fill="#e0e0e0" stroke="#999999" points="167.13,-184 76.13,-184 76.13,-165 167.13,-165 167.13,-184"/>
<text text-anchor="middle" x="121.63" y="-172" font-family="Helvetica,sans-Serif" font-size="10.00">realm/event.inl</text>
</a>
</g>
</g>
<!-- Node16&#45;&gt;Node27 -->
<g id="edge41_Node000016_Node000027" class="edge">
<title>Node16&#45;&gt;Node27</title>
<g id="a_edge41_Node000016_Node000027"><a xlink:title=" ">
<path fill="none" stroke="#63b8ff" d="M247.53,-219.98C222.75,-211.23 183.93,-197.51 155.94,-187.62"/>
<polygon fill="#63b8ff" stroke="#63b8ff" points="156.77,-184.2 146.17,-184.17 154.43,-190.8 156.77,-184.2"/>
</a>
</g>
</g>
<!-- Node17&#45;&gt;Node2 -->
<g id="edge24_Node000017_Node000002" class="edge">
<title>Node17&#45;&gt;Node2</title>
<g id="a_edge24_Node000017_Node000002"><a xlink:title=" ">
<path fill="none" stroke="#63b8ff" d="M608.01,-116.47C711.56,-111.01 1000.05,-94.99 1239.63,-74 1242.19,-73.78 1244.78,-73.54 1247.41,-73.29"/>
<polygon fill="#63b8ff" stroke="#63b8ff" points="1248,-76.75 1257.61,-72.3 1247.32,-69.79 1248,-76.75"/>
</a>
</g>
</g>
<!-- Node17&#45;&gt;Node10 -->
<g id="edge25_Node000017_Node000010" class="edge">
<title>Node17&#45;&gt;Node10</title>
<g id="a_edge25_Node000017_Node000010"><a xlink:title=" ">
<path fill="none" stroke="#63b8ff" d="M607.65,-112.04C652.58,-104.41 728.8,-90.86 804.16,-73.95"/>
<polygon fill="#63b8ff" stroke="#63b8ff" points="805.32,-77.28 814.3,-71.65 803.78,-70.45 805.32,-77.28"/>
</a>
</g>
</g>
<!-- Node17&#45;&gt;Node12 -->
<g id="edge27_Node000017_Node000012" class="edge">
<title>Node17&#45;&gt;Node12</title>
<g id="a_edge27_Node000017_Node000012"><a xlink:title=" ">
<path fill="none" stroke="#63b8ff" d="M529.29,-113.03C454.24,-102.59 291.84,-80 221.38,-70.19"/>
<polygon fill="#63b8ff" stroke="#63b8ff" points="221.67,-66.7 211.28,-68.79 220.7,-73.63 221.67,-66.7"/>
</a>
</g>
</g>
<!-- Node17&#45;&gt;Node14 -->
<g id="edge28_Node000017_Node000014" class="edge">
<title>Node17&#45;&gt;Node14</title>
<g id="a_edge28_Node000017_Node000014"><a xlink:title=" ">
<path fill="none" stroke="#63b8ff" d="M538.99,-109.99C510.07,-101.66 464.59,-88.5 416.54,-74.25"/>
<polygon fill="#63b8ff" stroke="#63b8ff" points="417.49,-70.88 406.9,-71.38 415.49,-77.59 417.49,-70.88"/>
</a>
</g>
</g>
<!-- Node18 -->
<g id="Node000018" class="node">
<title>Node18</title>
<g id="a_Node000018"><a xlink:title=" ">
<polygon fill="#e0e0e0" stroke="#999999" points="796.13,-74 739.13,-74 739.13,-55 796.13,-55 796.13,-74"/>
<text text-anchor="middle" x="767.63" y="-62" font-family="Helvetica,sans-Serif" font-size="10.00">ostream</text>
</a>
</g>
</g>
<!-- Node17&#45;&gt;Node18 -->
<g id="edge26_Node000017_Node000018" class="edge">
<title>Node17&#45;&gt;Node18</title>
<g id="a_edge26_Node000017_Node000018"><a xlink:title=" ">
<path fill="none" stroke="#63b8ff" d="M600.61,-109.98C635.55,-100.68 691.55,-85.76 728.95,-75.8"/>
<polygon fill="#63b8ff" stroke="#63b8ff" points="730.21,-79.09 738.97,-73.13 728.4,-72.33 730.21,-79.09"/>
</a>
</g>
</g>
<!-- Node19 -->
<g id="Node000019" class="node">
<title>Node19</title>
<g id="a_Node000019"><a xlink:title=" ">
<polygon fill="#e0e0e0" stroke="#999999" points="476.63,-74 424.63,-74 424.63,-55 476.63,-55 476.63,-74"/>
<text text-anchor="middle" x="450.63" y="-62" font-family="Helvetica,sans-Serif" font-size="10.00">cassert</text>
</a>
</g>
</g>
<!-- Node17&#45;&gt;Node19 -->
<g id="edge29_Node000017_Node000019" class="edge">
<title>Node17&#45;&gt;Node19</title>
<g id="a_edge29_Node000017_Node000019"><a xlink:title=" ">
<path fill="none" stroke="#63b8ff" d="M549.67,-109.98C530.61,-101.42 500.97,-88.11 479.09,-78.28"/>
<polygon fill="#63b8ff" stroke="#63b8ff" points="480.49,-75.07 469.94,-74.17 477.62,-81.46 480.49,-75.07"/>
</a>
</g>
</g>
<!-- Node20 -->
<g id="Node000020" class="node">
<title>Node20</title>
<g id="a_Node000020"><a xlink:title=" ">
<polygon fill="#e0e0e0" stroke="#999999" points="544.63,-74 494.63,-74 494.63,-55 544.63,-55 544.63,-74"/>
<text text-anchor="middle" x="519.63" y="-62" font-family="Helvetica,sans-Serif" font-size="10.00">cstdint</text>
</a>
</g>
</g>
<!-- Node17&#45;&gt;Node20 -->
<g id="edge30_Node000017_Node000020" class="edge">
<title>Node17&#45;&gt;Node20</title>
<g id="a_edge30_Node000017_Node000020"><a xlink:title=" ">
<path fill="none" stroke="#63b8ff" d="M560.54,-109.75C553.48,-102.11 543.05,-90.82 534.48,-81.56"/>
<polygon fill="#63b8ff" stroke="#63b8ff" points="536.93,-79.06 527.57,-74.09 531.79,-83.81 536.93,-79.06"/>
</a>
</g>
</g>
<!-- Node21 -->
<g id="Node000021" class="node">
<title>Node21</title>
<g id="a_Node000021"><a xlink:title=" ">
<polygon fill="#e0e0e0" stroke="#999999" points="618.63,-74 562.63,-74 562.63,-55 618.63,-55 618.63,-74"/>
<text text-anchor="middle" x="590.63" y="-62" font-family="Helvetica,sans-Serif" font-size="10.00">sstream</text>
</a>
</g>
</g>
<!-- Node17&#45;&gt;Node21 -->
<g id="edge31_Node000017_Node000021" class="edge">
<title>Node17&#45;&gt;Node21</title>
<g id="a_edge31_Node000017_Node000021"><a xlink:title=" ">
<path fill="none" stroke="#63b8ff" d="M572.27,-109.75C575.21,-102.65 579.47,-92.4 583.14,-83.56"/>
<polygon fill="#63b8ff" stroke="#63b8ff" points="586.47,-84.67 587.07,-74.09 580,-81.98 586.47,-84.67"/>
</a>
</g>
</g>
<!-- Node22 -->
<g id="Node000022" class="node">
<title>Node22</title>
<g id="a_Node000022"><a xlink:title=" ">
<polygon fill="#e0e0e0" stroke="#999999" points="720.63,-74 636.63,-74 636.63,-55 720.63,-55 720.63,-74"/>
<text text-anchor="middle" x="678.63" y="-62" font-family="Helvetica,sans-Serif" font-size="10.00">realm/utils.inl</text>
</a>
</g>
</g>
<!-- Node17&#45;&gt;Node22 -->
<g id="edge32_Node000017_Node000022" class="edge">
<title>Node17&#45;&gt;Node22</title>
<g id="a_edge32_Node000017_Node000022"><a xlink:title=" ">
<path fill="none" stroke="#63b8ff" d="M586.31,-109.98C603.92,-101.5 631.21,-88.35 651.56,-78.54"/>
<polygon fill="#63b8ff" stroke="#63b8ff" points="653.15,-81.66 660.64,-74.17 650.11,-75.36 653.15,-81.66"/>
</a>
</g>
</g>
<!-- Node23&#45;&gt;Node7 -->
<g id="edge34_Node000023_Node000007" class="edge">
<title>Node23&#45;&gt;Node7</title>
<g id="a_edge34_Node000023_Node000007"><a xlink:title=" ">
<path fill="none" stroke="#63b8ff" d="M397.2,-170.47C504.72,-163.7 770.95,-146.54 993.63,-129 1005.75,-128.05 1018.72,-126.95 1031.09,-125.87"/>
<polygon fill="#63b8ff" stroke="#63b8ff" points="1031.65,-129.33 1041.3,-124.96 1031.03,-122.36 1031.65,-129.33"/>
</a>
</g>
</g>
<!-- Node23&#45;&gt;Node8 -->
<g id="edge35_Node000023_Node000008" class="edge">
<title>Node23&#45;&gt;Node8</title>
<g id="a_edge35_Node000023_Node000008"><a xlink:title=" ">
<path fill="none" stroke="#63b8ff" d="M397.22,-166.42C451.05,-158.34 540.32,-144.27 616.63,-129 652.89,-121.75 661.54,-118.05 697.63,-110 769.92,-93.87 790.55,-90.88 866.33,-74.26"/>
<polygon fill="#63b8ff" stroke="#63b8ff" points="867.35,-77.62 876.36,-72.05 865.84,-70.78 867.35,-77.62"/>
</a>
</g>
</g>
<!-- Node23&#45;&gt;Node24 -->
<g id="edge36_Node000023_Node000024" class="edge">
<title>Node23&#45;&gt;Node24</title>
<g id="a_edge36_Node000023_Node000024"><a xlink:title=" ">
<path fill="none" stroke="#63b8ff" d="M332.08,-164.98C315.74,-156.57 290.5,-143.59 271.5,-133.81"/>
<polygon fill="#63b8ff" stroke="#63b8ff" points="272.98,-130.63 262.48,-129.17 269.77,-136.86 272.98,-130.63"/>
</a>
</g>
</g>
<!-- Node25 -->
<g id="Node000025" class="node">
<title>Node25</title>
<g id="a_Node000025"><a xlink:title=" ">
<polygon fill="#e0e0e0" stroke="#999999" points="359.13,-129 294.13,-129 294.13,-110 359.13,-110 359.13,-129"/>
<text text-anchor="middle" x="326.63" y="-117" font-family="Helvetica,sans-Serif" font-size="10.00">functional</text>
</a>
</g>
</g>
<!-- Node23&#45;&gt;Node25 -->
<g id="edge37_Node000023_Node000025" class="edge">
<title>Node23&#45;&gt;Node25</title>
<g id="a_edge37_Node000023_Node000025"><a xlink:title=" ">
<path fill="none" stroke="#63b8ff" d="M345,-164.75C342.05,-157.65 337.8,-147.4 334.13,-138.56"/>
<polygon fill="#63b8ff" stroke="#63b8ff" points="337.26,-136.98 330.2,-129.09 330.8,-139.67 337.26,-136.98"/>
</a>
</g>
</g>
<!-- Node29&#45;&gt;Node2 -->
<g id="edge46_Node000029_Node000002" class="edge">
<title>Node29&#45;&gt;Node2</title>
<g id="a_edge46_Node000029_Node000002"><a xlink:title=" ">
<path fill="none" stroke="#63b8ff" d="M1192.4,-277.9C1282.52,-266.36 1469.05,-236.51 1502.63,-184 1518.68,-158.9 1485.6,-119.01 1474.63,-110 1450.15,-89.88 1417.09,-78.84 1387.62,-72.8"/>
<polygon fill="#63b8ff" stroke="#63b8ff" points="1388.26,-69.36 1377.78,-70.93 1386.96,-76.23 1388.26,-69.36"/>
</a>
</g>
</g>
<!-- Node29&#45;&gt;Node5 -->
<g id="edge47_Node000029_Node000005" class="edge">
<title>Node29&#45;&gt;Node5</title>
<g id="a_edge47_Node000029_Node000005"><a xlink:title=" ">
<path fill="none" stroke="#63b8ff" d="M1095.01,-275.16C1039.94,-265.71 950.28,-250.34 891.87,-240.32"/>
<polygon fill="#63b8ff" stroke="#63b8ff" points="892.15,-236.81 881.7,-238.57 890.97,-243.71 892.15,-236.81"/>
</a>
</g>
</g>
<!-- Node29&#45;&gt;Node14 -->
<g id="edge66_Node000029_Node000014" class="edge">
<title>Node29&#45;&gt;Node14</title>
<g id="a_edge66_Node000029_Node000014"><a xlink:title=" ">
<path fill="none" stroke="#63b8ff" d="M1094.94,-280.88C1024.42,-276.34 890.1,-264.88 778.63,-239 706.2,-222.18 690.45,-209.57 620.63,-184 556.69,-160.58 537.69,-161.1 477.63,-129 451.35,-114.95 423.72,-94.48 406.11,-80.61"/>
<polygon fill="#63b8ff" stroke="#63b8ff" points="407.88,-77.54 397.88,-74.02 403.51,-83 407.88,-77.54"/>
</a>
</g>
</g>
<!-- Node29&#45;&gt;Node23 -->
<g id="edge62_Node000029_Node000023" class="edge">
<title>Node29&#45;&gt;Node23</title>
<g id="a_edge62_Node000029_Node000023"><a xlink:title=" ">
<path fill="none" stroke="#63b8ff" d="M1094.68,-283.48C957.2,-282.92 569.83,-277.85 449.63,-239 417.5,-228.61 385.33,-205.7 366.21,-190.43"/>
<polygon fill="#63b8ff" stroke="#63b8ff" points="368.34,-187.65 358.38,-184.03 363.9,-193.07 368.34,-187.65"/>
</a>
</g>
</g>
<!-- Node30 -->
<g id="Node000030" class="node">
<title>Node30</title>
<g id="a_Node000030"><a xlink:href="nodeset_8h.html" target="_top" xlink:title=" ">
<polygon fill="white" stroke="#666666" points="1374.63,-239 1278.63,-239 1278.63,-220 1374.63,-220 1374.63,-239"/>
<text text-anchor="middle" x="1326.63" y="-227" font-family="Helvetica,sans-Serif" font-size="10.00">realm/nodeset.h</text>
</a>
</g>
</g>
<!-- Node29&#45;&gt;Node30 -->
<g id="edge48_Node000029_Node000030" class="edge">
<title>Node29&#45;&gt;Node30</title>
<g id="a_edge48_Node000029_Node000030"><a xlink:title=" ">
<path fill="none" stroke="#63b8ff" d="M1173.03,-274.98C1204.02,-266.01 1253.01,-251.82 1287.3,-241.89"/>
<polygon fill="#63b8ff" stroke="#63b8ff" points="1288.37,-245.23 1297,-239.08 1286.42,-238.5 1288.37,-245.23"/>
</a>
</g>
</g>
<!-- Node38 -->
<g id="Node000038" class="node">
<title>Node38</title>
<g id="a_Node000038"><a xlink:href="bytearray_8h.html" target="_top" xlink:title=" ">
<polygon fill="white" stroke="#666666" points="1135.13,-239 1032.13,-239 1032.13,-220 1135.13,-220 1135.13,-239"/>
<text text-anchor="middle" x="1083.63" y="-227" font-family="Helvetica,sans-Serif" font-size="10.00">realm/bytearray.h</text>
</a>
</g>
</g>
<!-- Node29&#45;&gt;Node38 -->
<g id="edge63_Node000029_Node000038" class="edge">
<title>Node29&#45;&gt;Node38</title>
<g id="a_edge63_Node000029_Node000038"><a xlink:title=" ">
<path fill="none" stroke="#63b8ff" d="M1133.99,-274.98C1125.12,-267.15 1111.76,-255.34 1101.02,-245.86"/>
<polygon fill="#63b8ff" stroke="#63b8ff" points="1103.26,-243.17 1093.45,-239.17 1098.63,-248.41 1103.26,-243.17"/>
</a>
</g>
</g>
<!-- Node40 -->
<g id="Node000040" class="node">
<title>Node40</title>
<g id="a_Node000040"><a xlink:title=" ">
<polygon fill="#e0e0e0" stroke="#999999" points="1256.13,-239 1153.13,-239 1153.13,-220 1256.13,-220 1256.13,-239"/>
<text text-anchor="middle" x="1204.63" y="-227" font-family="Helvetica,sans-Serif" font-size="10.00">realm/network.inl</text>
</a>
</g>
</g>
<!-- Node29&#45;&gt;Node40 -->
<g id="edge67_Node000029_Node000040" class="edge">
<title>Node29&#45;&gt;Node40</title>
<g id="a_edge67_Node000029_Node000040"><a xlink:title=" ">
<path fill="none" stroke="#63b8ff" d="M1153.43,-274.98C1162.45,-267.15 1176.04,-255.34 1186.95,-245.86"/>
<polygon fill="#63b8ff" stroke="#63b8ff" points="1189.4,-248.37 1194.65,-239.17 1184.81,-243.09 1189.4,-248.37"/>
</a>
</g>
</g>
<!-- Node30&#45;&gt;Node2 -->
<g id="edge49_Node000030_Node000002" class="edge">
<title>Node30&#45;&gt;Node2</title>
<g id="a_edge49_Node000030_Node000002"><a xlink:title=" ">
<path fill="none" stroke="#63b8ff" d="M1374.98,-221.56C1416.95,-214.43 1473.07,-201.85 1486.63,-184 1507.25,-156.86 1469.35,-124.44 1450.63,-110 1429.54,-93.73 1402.18,-83.23 1377.76,-76.56"/>
<polygon fill="#63b8ff" stroke="#63b8ff" points="1378.42,-73.11 1367.86,-74.01 1376.67,-79.89 1378.42,-73.11"/>
</a>
</g>
</g>
<!-- Node30&#45;&gt;Node9 -->
<g id="edge59_Node000030_Node000009" class="edge">
<title>Node30&#45;&gt;Node9</title>
<g id="a_edge59_Node000030_Node000009"><a xlink:title=" ">
<path fill="none" stroke="#63b8ff" d="M1281.68,-219.94C1245.82,-212.09 1199.82,-199.36 1188.63,-184 1166.85,-154.09 1182.72,-108.31 1194.33,-83.31"/>
<polygon fill="#63b8ff" stroke="#63b8ff" points="1197.51,-84.78 1198.78,-74.26 1191.23,-81.69 1197.51,-84.78"/>
</a>
</g>
</g>
<!-- Node31 -->
<g id="Node000031" class="node">
<title>Node31</title>
<g id="a_Node000031"><a xlink:href="mutex_8h.html" target="_top" xlink:title=" ">
<polygon fill="white" stroke="#666666" points="1286.13,-184 1197.13,-184 1197.13,-165 1286.13,-165 1286.13,-184"/>
<text text-anchor="middle" x="1241.63" y="-172" font-family="Helvetica,sans-Serif" font-size="10.00">realm/mutex.h</text>
</a>
</g>
</g>
<!-- Node30&#45;&gt;Node31 -->
<g id="edge50_Node000030_Node000031" class="edge">
<title>Node30&#45;&gt;Node31</title>
<g id="a_edge50_Node000030_Node000031"><a xlink:title=" ">
<path fill="none" stroke="#63b8ff" d="M1312.98,-219.98C1299.79,-211.77 1279.61,-199.18 1264.06,-189.49"/>
<polygon fill="#63b8ff" stroke="#63b8ff" points="1265.88,-186.49 1255.54,-184.17 1262.17,-192.43 1265.88,-186.49"/>
</a>
</g>
</g>
<!-- Node36 -->
<g id="Node000036" class="node">
<title>Node36</title>
<g id="a_Node000036"><a xlink:title=" ">
<polygon fill="#e0e0e0" stroke="#999999" points="1357.13,-184 1304.13,-184 1304.13,-165 1357.13,-165 1357.13,-184"/>
<text text-anchor="middle" x="1330.63" y="-172" font-family="Helvetica,sans-Serif" font-size="10.00">iterator</text>
</a>
</g>
</g>
<!-- Node30&#45;&gt;Node36 -->
<g id="edge60_Node000030_Node000036" class="edge">
<title>Node30&#45;&gt;Node36</title>
<g id="a_edge60_Node000030_Node000036"><a xlink:title=" ">
<path fill="none" stroke="#63b8ff" d="M1327.29,-219.75C1327.82,-212.8 1328.57,-202.85 1329.23,-194.13"/>
<polygon fill="#63b8ff" stroke="#63b8ff" points="1332.72,-194.32 1329.98,-184.09 1325.74,-193.8 1332.72,-194.32"/>
</a>
</g>
</g>
<!-- Node37 -->
<g id="Node000037" class="node">
<title>Node37</title>
<g id="a_Node000037"><a xlink:title=" ">
<polygon fill="#e0e0e0" stroke="#999999" points="1477.63,-184 1375.63,-184 1375.63,-165 1477.63,-165 1477.63,-184"/>
<text text-anchor="middle" x="1426.63" y="-172" font-family="Helvetica,sans-Serif" font-size="10.00">realm/nodeset.inl</text>
</a>
</g>
</g>
<!-- Node30&#45;&gt;Node37 -->
<g id="edge61_Node000030_Node000037" class="edge">
<title>Node30&#45;&gt;Node37</title>
<g id="a_edge61_Node000030_Node000037"><a xlink:title=" ">
<path fill="none" stroke="#63b8ff" d="M1342.7,-219.98C1358.5,-211.61 1382.85,-198.7 1401.26,-188.95"/>
<polygon fill="#63b8ff" stroke="#63b8ff" points="1403.08,-191.95 1410.27,-184.17 1399.8,-185.76 1403.08,-191.95"/>
</a>
</g>
</g>
<!-- Node31&#45;&gt;Node2 -->
<g id="edge51_Node000031_Node000002" class="edge">
<title>Node31&#45;&gt;Node2</title>
<g id="a_edge51_Node000031_Node000002"><a xlink:title=" ">
<path fill="none" stroke="#63b8ff" d="M1255.27,-164.75C1266.87,-156.7 1283.25,-143.78 1293.63,-129 1303.16,-115.44 1309.46,-97.61 1313.21,-84.3"/>
<polygon fill="#63b8ff" stroke="#63b8ff" points="1316.66,-84.93 1315.77,-74.38 1309.88,-83.19 1316.66,-84.93"/>
</a>
</g>
</g>
<!-- Node31&#45;&gt;Node9 -->
<g id="edge57_Node000031_Node000009" class="edge">
<title>Node31&#45;&gt;Node9</title>
<g id="a_edge57_Node000031_Node000009"><a xlink:title=" ">
<path fill="none" stroke="#63b8ff" d="M1238.52,-164.66C1232.31,-147.01 1218.27,-107.09 1210.01,-83.64"/>
<polygon fill="#63b8ff" stroke="#63b8ff" points="1213.3,-82.43 1206.68,-74.16 1206.7,-84.75 1213.3,-82.43"/>
</a>
</g>
</g>
<!-- Node31&#45;&gt;Node17 -->
<g id="edge52_Node000031_Node000017" class="edge">
<title>Node31&#45;&gt;Node17</title>
<g id="a_edge52_Node000031_Node000017"><a xlink:title=" ">
<path fill="none" stroke="#63b8ff" d="M1196.72,-169.21C1181.75,-167.82 1164.98,-166.3 1149.63,-165 952.72,-148.36 718.04,-131.21 617.87,-124.01"/>
<polygon fill="#63b8ff" stroke="#63b8ff" points="617.98,-120.51 607.75,-123.28 617.48,-127.49 617.98,-120.51"/>
</a>
</g>
</g>
<!-- Node31&#45;&gt;Node32 -->
<g id="edge53_Node000031_Node000032" class="edge">
<title>Node31&#45;&gt;Node32</title>
<g id="a_edge53_Node000031_Node000032"><a xlink:title=" ">
<path fill="none" stroke="#63b8ff" d="M1286.4,-166.33C1289.53,-165.87 1292.63,-165.42 1295.63,-165 1402.62,-150.01 1527.78,-135.23 1599.38,-127.05"/>
<polygon fill="#63b8ff" stroke="#63b8ff" points="1600.01,-130.5 1609.55,-125.89 1599.22,-123.54 1600.01,-130.5"/>
</a>
</g>
</g>
<!-- Node35 -->
<g id="Node000035" class="node">
<title>Node35</title>
<g id="a_Node000035"><a xlink:title=" ">
<polygon fill="#e0e0e0" stroke="#999999" points="1441.13,-129 1346.13,-129 1346.13,-110 1441.13,-110 1441.13,-129"/>
<text text-anchor="middle" x="1393.63" y="-117" font-family="Helvetica,sans-Serif" font-size="10.00">realm/mutex.inl</text>
</a>
</g>
</g>
<!-- Node31&#45;&gt;Node35 -->
<g id="edge58_Node000031_Node000035" class="edge">
<title>Node31&#45;&gt;Node35</title>
<g id="a_edge58_Node000031_Node000035"><a xlink:title=" ">
<path fill="none" stroke="#63b8ff" d="M1266.05,-164.98C1291.35,-156.16 1331.09,-142.31 1359.49,-132.41"/>
<polygon fill="#63b8ff" stroke="#63b8ff" points="1360.73,-135.68 1369.02,-129.08 1358.42,-129.07 1360.73,-135.68"/>
</a>
</g>
</g>
<!-- Node32&#45;&gt;Node2 -->
<g id="edge54_Node000032_Node000002" class="edge">
<title>Node32&#45;&gt;Node2</title>
<g id="a_edge54_Node000032_Node000002"><a xlink:title=" ">
<path fill="none" stroke="#63b8ff" d="M1609.28,-110.96C1549.73,-101.68 1448.35,-85.88 1382.19,-75.56"/>
<polygon fill="#63b8ff" stroke="#63b8ff" points="1382.71,-72.1 1372.29,-74.02 1381.63,-79.02 1382.71,-72.1"/>
</a>
</g>
</g>
<!-- Node33 -->
<g id="Node000033" class="node">
<title>Node33</title>
<g id="a_Node000033"><a xlink:title=" ">
<polygon fill="#e0e0e0" stroke="#999999" points="1729.63,-74 1679.63,-74 1679.63,-55 1729.63,-55 1729.63,-74"/>
<text text-anchor="middle" x="1704.63" y="-62" font-family="Helvetica,sans-Serif" font-size="10.00">atomic</text>
</a>
</g>
</g>
<!-- Node32&#45;&gt;Node33 -->
<g id="edge55_Node000032_Node000033" class="edge">
<title>Node32&#45;&gt;Node33</title>
<g id="a_edge55_Node000032_Node000033"><a xlink:title=" ">
<path fill="none" stroke="#63b8ff" d="M1665.39,-109.75C1672.1,-102.18 1681.97,-91.05 1690.14,-81.84"/>
<polygon fill="#63b8ff" stroke="#63b8ff" points="1693,-83.89 1697.02,-74.09 1687.76,-79.25 1693,-83.89"/>
</a>
</g>
</g>
<!-- Node34 -->
<g id="Node000034" class="node">
<title>Node34</title>
<g id="a_Node000034"><a xlink:title=" ">
<polygon fill="#e0e0e0" stroke="#999999" points="1661.63,-74 1559.63,-74 1559.63,-55 1661.63,-55 1661.63,-74"/>
<text text-anchor="middle" x="1610.63" y="-62" font-family="Helvetica,sans-Serif" font-size="10.00">realm/atomics.inl</text>
</a>
</g>
</g>
<!-- Node32&#45;&gt;Node34 -->
<g id="edge56_Node000032_Node000034" class="edge">
<title>Node32&#45;&gt;Node34</title>
<g id="a_edge56_Node000032_Node000034"><a xlink:title=" ">
<path fill="none" stroke="#63b8ff" d="M1649.87,-109.75C1643.16,-102.18 1633.29,-91.05 1625.13,-81.84"/>
<polygon fill="#63b8ff" stroke="#63b8ff" points="1627.5,-79.25 1618.25,-74.09 1622.27,-83.89 1627.5,-79.25"/>
</a>
</g>
</g>
<!-- Node38&#45;&gt;Node8 -->
<g id="edge64_Node000038_Node000008" class="edge">
<title>Node38&#45;&gt;Node8</title>
<g id="a_edge64_Node000038_Node000008"><a xlink:title=" ">
<path fill="none" stroke="#63b8ff" d="M1032.06,-226.86C952.53,-223.44 804.62,-213.25 761.63,-184 732.15,-163.94 708.76,-138.17 730.63,-110 732.76,-107.26 815.82,-86.87 866.4,-74.66"/>
<polygon fill="#63b8ff" stroke="#63b8ff" points="867.45,-78.01 876.35,-72.27 865.81,-71.21 867.45,-78.01"/>
</a>
</g>
</g>
<!-- Node39 -->
<g id="Node000039" class="node">
<title>Node39</title>
<g id="a_Node000039"><a xlink:title=" ">
<polygon fill="#e0e0e0" stroke="#999999" points="1140.13,-184 1031.13,-184 1031.13,-165 1140.13,-165 1140.13,-184"/>
<text text-anchor="middle" x="1085.63" y="-172" font-family="Helvetica,sans-Serif" font-size="10.00">realm/bytearray.inl</text>
</a>
</g>
</g>
<!-- Node38&#45;&gt;Node39 -->
<g id="edge65_Node000038_Node000039" class="edge">
<title>Node38&#45;&gt;Node39</title>
<g id="a_edge65_Node000038_Node000039"><a xlink:title=" ">
<path fill="none" stroke="#63b8ff" d="M1083.96,-219.75C1084.22,-212.8 1084.6,-202.85 1084.93,-194.13"/>
<polygon fill="#63b8ff" stroke="#63b8ff" points="1088.43,-194.21 1085.31,-184.09 1081.43,-193.95 1088.43,-194.21"/>
</a>
</g>
</g>
</g>
</svg>
