<?xml version="1.0" encoding="UTF-8" standalone="no"?>
<!DOCTYPE svg PUBLIC "-//W3C//DTD SVG 1.1//EN"
 "http://www.w3.org/Graphics/SVG/1.1/DTD/svg11.dtd">
<!-- Generated by graphviz version 2.43.0 (0)
 -->
<!-- Title: /home/runner/work/realm/realm/realm&#45;src/src/realm/hip/hip_module.h Pages: 1 -->
<svg width="1816pt" height="379pt"
 viewBox="0.00 0.00 1816.21 379.00" xmlns="http://www.w3.org/2000/svg" xmlns:xlink="http://www.w3.org/1999/xlink">
<g id="graph0" class="graph" transform="scale(1 1) rotate(0) translate(4 375)">
<title>/home/runner/work/realm/realm/realm&#45;src/src/realm/hip/hip_module.h</title>
<!-- Node1 -->
<g id="Node000001" class="node">
<title>Node1</title>
<g id="a_Node000001"><a xlink:title=" ">
<polygon fill="#999999" stroke="#666666" points="1241.21,-371 1095.21,-371 1095.21,-330 1241.21,-330 1241.21,-371"/>
<text text-anchor="start" x="1103.21" y="-359" font-family="Helvetica,sans-Serif" font-size="10.00">/home/runner/work/realm</text>
<text text-anchor="start" x="1103.21" y="-348" font-family="Helvetica,sans-Serif" font-size="10.00">/realm/realm&#45;src/src/realm</text>
<text text-anchor="middle" x="1168.21" y="-337" font-family="Helvetica,sans-Serif" font-size="10.00">/hip/hip_module.h</text>
</a>
</g>
</g>
<!-- Node2 -->
<g id="Node000002" class="node">
<title>Node2</title>
<g id="a_Node000002"><a xlink:href="realm__config_8h.html" target="_top" xlink:title=" ">
<polygon fill="white" stroke="#666666" points="1250.21,-74 1130.21,-74 1130.21,-55 1250.21,-55 1250.21,-74"/>
<text text-anchor="middle" x="1190.21" y="-62" font-family="Helvetica,sans-Serif" font-size="10.00">realm/realm_config.h</text>
</a>
</g>
</g>
<!-- Node1&#45;&gt;Node2 -->
<g id="edge1_Node000001_Node000002" class="edge">
<title>Node1&#45;&gt;Node2</title>
<g id="a_edge1_Node000001_Node000002"><a xlink:title=" ">
<path fill="none" stroke="#63b8ff" d="M1185.24,-329.96C1202.98,-307.54 1228.21,-268.91 1228.21,-230.5 1228.21,-230.5 1228.21,-230.5 1228.21,-173.5 1228.21,-140.02 1211.76,-103.84 1200.51,-83.01"/>
<polygon fill="#63b8ff" stroke="#63b8ff" points="1203.45,-81.1 1195.5,-74.1 1197.35,-84.53 1203.45,-81.1"/>
</a>
</g>
</g>
<!-- Node5 -->
<g id="Node000005" class="node">
<title>Node5</title>
<g id="a_Node000005"><a xlink:href="module_8h.html" target="_top" xlink:title=" ">
<polygon fill="white" stroke="#666666" points="640.21,-239 546.21,-239 546.21,-220 640.21,-220 640.21,-239"/>
<text text-anchor="middle" x="593.21" y="-227" font-family="Helvetica,sans-Serif" font-size="10.00">realm/module.h</text>
</a>
</g>
</g>
<!-- Node1&#45;&gt;Node5 -->
<g id="edge4_Node000001_Node000005" class="edge">
<title>Node1&#45;&gt;Node5</title>
<g id="a_edge4_Node000001_Node000005"><a xlink:title=" ">
<path fill="none" stroke="#63b8ff" d="M1095.1,-334.37C976.95,-309.92 746.99,-262.32 644.56,-241.13"/>
<polygon fill="#63b8ff" stroke="#63b8ff" points="644.97,-237.64 634.47,-239.04 643.56,-244.49 644.97,-237.64"/>
</a>
</g>
</g>
<!-- Node15 -->
<g id="Node000015" class="node">
<title>Node15</title>
<g id="a_Node000015"><a xlink:href="processor_8h.html" target="_top" xlink:title=" ">
<polygon fill="white" stroke="#666666" points="273.21,-294 169.21,-294 169.21,-275 273.21,-275 273.21,-294"/>
<text text-anchor="middle" x="221.21" y="-282" font-family="Helvetica,sans-Serif" font-size="10.00">realm/processor.h</text>
</a>
</g>
</g>
<!-- Node1&#45;&gt;Node15 -->
<g id="edge19_Node000001_Node000015" class="edge">
<title>Node1&#45;&gt;Node15</title>
<g id="a_edge19_Node000001_Node000015"><a xlink:title=" ">
<path fill="none" stroke="#63b8ff" d="M1095.08,-344.56C914.91,-332.38 452.06,-301.1 283.67,-289.72"/>
<polygon fill="#63b8ff" stroke="#63b8ff" points="283.69,-286.21 273.48,-289.03 283.22,-293.2 283.69,-286.21"/>
</a>
</g>
</g>
<!-- Node28 -->
<g id="Node000028" class="node">
<title>Node28</title>
<g id="a_Node000028"><a xlink:href="network_8h.html" target="_top" xlink:title=" ">
<polygon fill="white" stroke="#666666" points="1097.71,-294 1000.71,-294 1000.71,-275 1097.71,-275 1097.71,-294"/>
<text text-anchor="middle" x="1049.21" y="-282" font-family="Helvetica,sans-Serif" font-size="10.00">realm/network.h</text>
</a>
</g>
</g>
<!-- Node1&#45;&gt;Node28 -->
<g id="edge44_Node000001_Node000028" class="edge">
<title>Node1&#45;&gt;Node28</title>
<g id="a_edge44_Node000001_Node000028"><a xlink:title=" ">
<path fill="none" stroke="#63b8ff" d="M1131.86,-329.95C1113.23,-319.93 1091.02,-307.99 1074.32,-299"/>
<polygon fill="#63b8ff" stroke="#63b8ff" points="1075.65,-295.75 1065.19,-294.09 1072.34,-301.91 1075.65,-295.75"/>
</a>
</g>
</g>
<!-- Node31 -->
<g id="Node000031" class="node">
<title>Node31</title>
<g id="a_Node000031"><a xlink:href="atomics_8h.html" target="_top" xlink:title=" ">
<polygon fill="white" stroke="#666666" points="1711.21,-129 1615.21,-129 1615.21,-110 1711.21,-110 1711.21,-129"/>
<text text-anchor="middle" x="1663.21" y="-117" font-family="Helvetica,sans-Serif" font-size="10.00">realm/atomics.h</text>
</a>
</g>
</g>
<!-- Node1&#45;&gt;Node31 -->
<g id="edge67_Node000001_Node000031" class="edge">
<title>Node1&#45;&gt;Node31</title>
<g id="a_edge67_Node000001_Node000031"><a xlink:title=" ">
<path fill="none" stroke="#63b8ff" d="M1241.44,-332.46C1331.9,-309.07 1487.96,-260.94 1603.21,-184 1622.25,-171.29 1639.7,-151.49 1650.81,-137.38"/>
<polygon fill="#63b8ff" stroke="#63b8ff" points="1653.87,-139.14 1657.15,-129.07 1648.3,-134.9 1653.87,-139.14"/>
</a>
</g>
</g>
<!-- Node40 -->
<g id="Node000040" class="node">
<title>Node40</title>
<g id="a_Node000040"><a xlink:title=" ">
<polygon fill="#e0e0e0" stroke="#999999" points="1808.21,-294 1670.21,-294 1670.21,-275 1808.21,-275 1808.21,-294"/>
<text text-anchor="middle" x="1739.21" y="-282" font-family="Helvetica,sans-Serif" font-size="10.00">realm/hip/hip_module.inl</text>
</a>
</g>
</g>
<!-- Node1&#45;&gt;Node40 -->
<g id="edge68_Node000001_Node000040" class="edge">
<title>Node1&#45;&gt;Node40</title>
<g id="a_edge68_Node000001_Node000040"><a xlink:title=" ">
<path fill="none" stroke="#63b8ff" d="M1241.4,-341.3C1348.94,-329.24 1548.86,-306.84 1659.82,-294.4"/>
<polygon fill="#63b8ff" stroke="#63b8ff" points="1660.4,-297.86 1669.95,-293.26 1659.62,-290.9 1660.4,-297.86"/>
</a>
</g>
</g>
<!-- Node3 -->
<g id="Node000003" class="node">
<title>Node3</title>
<g id="a_Node000003"><a xlink:href="realm__defines_8h.html" target="_top" xlink:title=" ">
<polygon fill="white" stroke="#666666" points="1168.71,-19 1073.71,-19 1073.71,0 1168.71,0 1168.71,-19"/>
<text text-anchor="middle" x="1121.21" y="-7" font-family="Helvetica,sans-Serif" font-size="10.00">realm_defines.h</text>
</a>
</g>
</g>
<!-- Node2&#45;&gt;Node3 -->
<g id="edge2_Node000002_Node000003" class="edge">
<title>Node2&#45;&gt;Node3</title>
<g id="a_edge2_Node000002_Node000003"><a xlink:title=" ">
<path fill="none" stroke="#63b8ff" d="M1179.13,-54.98C1168.73,-47 1152.95,-34.88 1140.49,-25.31"/>
<polygon fill="#63b8ff" stroke="#63b8ff" points="1142.56,-22.49 1132.5,-19.17 1138.3,-28.04 1142.56,-22.49"/>
</a>
</g>
</g>
<!-- Node4 -->
<g id="Node000004" class="node">
<title>Node4</title>
<g id="a_Node000004"><a xlink:href="compiler__support_8h.html" target="_top" xlink:title=" ">
<polygon fill="white" stroke="#666666" points="1329.21,-19 1187.21,-19 1187.21,0 1329.21,0 1329.21,-19"/>
<text text-anchor="middle" x="1258.21" y="-7" font-family="Helvetica,sans-Serif" font-size="10.00">realm/compiler_support.h</text>
</a>
</g>
</g>
<!-- Node2&#45;&gt;Node4 -->
<g id="edge3_Node000002_Node000004" class="edge">
<title>Node2&#45;&gt;Node4</title>
<g id="a_edge3_Node000002_Node000004"><a xlink:title=" ">
<path fill="none" stroke="#63b8ff" d="M1201.14,-54.98C1211.29,-47.07 1226.63,-35.11 1238.86,-25.58"/>
<polygon fill="#63b8ff" stroke="#63b8ff" points="1241.35,-28.08 1247.09,-19.17 1237.05,-22.56 1241.35,-28.08"/>
</a>
</g>
</g>
<!-- Node5&#45;&gt;Node2 -->
<g id="edge5_Node000005_Node000002" class="edge">
<title>Node5&#45;&gt;Node2</title>
<g id="a_edge5_Node000005_Node000002"><a xlink:title=" ">
<path fill="none" stroke="#63b8ff" d="M640.39,-226.35C732.02,-220.65 938.76,-200.28 1095.21,-129 1123.76,-115.99 1153.28,-94.83 1171.69,-80.54"/>
<polygon fill="#63b8ff" stroke="#63b8ff" points="1174.1,-83.1 1179.78,-74.15 1169.76,-77.61 1174.1,-83.1"/>
</a>
</g>
</g>
<!-- Node6 -->
<g id="Node000006" class="node">
<title>Node6</title>
<g id="a_Node000006"><a xlink:href="module__config_8h.html" target="_top" xlink:title=" ">
<polygon fill="white" stroke="#666666" points="657.21,-184 529.21,-184 529.21,-165 657.21,-165 657.21,-184"/>
<text text-anchor="middle" x="593.21" y="-172" font-family="Helvetica,sans-Serif" font-size="10.00">realm/module_config.h</text>
</a>
</g>
</g>
<!-- Node5&#45;&gt;Node6 -->
<g id="edge6_Node000005_Node000006" class="edge">
<title>Node5&#45;&gt;Node6</title>
<g id="a_edge6_Node000005_Node000006"><a xlink:title=" ">
<path fill="none" stroke="#63b8ff" d="M593.21,-219.75C593.21,-212.8 593.21,-202.85 593.21,-194.13"/>
<polygon fill="#63b8ff" stroke="#63b8ff" points="596.71,-194.09 593.21,-184.09 589.71,-194.09 596.71,-194.09"/>
</a>
</g>
</g>
<!-- Node10 -->
<g id="Node000010" class="node">
<title>Node10</title>
<g id="a_Node000010"><a xlink:title=" ">
<polygon fill="#e0e0e0" stroke="#999999" points="622.21,-74 578.21,-74 578.21,-55 622.21,-55 622.21,-74"/>
<text text-anchor="middle" x="600.21" y="-62" font-family="Helvetica,sans-Serif" font-size="10.00">string</text>
</a>
</g>
</g>
<!-- Node5&#45;&gt;Node10 -->
<g id="edge17_Node000005_Node000010" class="edge">
<title>Node5&#45;&gt;Node10</title>
<g id="a_edge17_Node000005_Node000010"><a xlink:title=" ">
<path fill="none" stroke="#63b8ff" d="M559.85,-219.99C500.84,-203.34 387.96,-163.36 429.21,-110 446.06,-88.21 523.43,-75.09 568.11,-69.2"/>
<polygon fill="#63b8ff" stroke="#63b8ff" points="568.7,-72.65 578.18,-67.92 567.82,-65.71 568.7,-72.65"/>
</a>
</g>
</g>
<!-- Node12 -->
<g id="Node000012" class="node">
<title>Node12</title>
<g id="a_Node000012"><a xlink:title=" ">
<polygon fill="#e0e0e0" stroke="#999999" points="296.71,-74 249.71,-74 249.71,-55 296.71,-55 296.71,-74"/>
<text text-anchor="middle" x="273.21" y="-62" font-family="Helvetica,sans-Serif" font-size="10.00">vector</text>
</a>
</g>
</g>
<!-- Node5&#45;&gt;Node12 -->
<g id="edge16_Node000005_Node000012" class="edge">
<title>Node5&#45;&gt;Node12</title>
<g id="a_edge16_Node000005_Node000012"><a xlink:title=" ">
<path fill="none" stroke="#63b8ff" d="M546.06,-223.4C507.54,-217.79 452.57,-206.41 409.21,-184 357.97,-157.52 310.07,-107.8 287.22,-81.99"/>
<polygon fill="#63b8ff" stroke="#63b8ff" points="289.67,-79.47 280.46,-74.23 284.38,-84.07 289.67,-79.47"/>
</a>
</g>
</g>
<!-- Node14 -->
<g id="Node000014" class="node">
<title>Node14</title>
<g id="a_Node000014"><a xlink:title=" ">
<polygon fill="#e0e0e0" stroke="#999999" points="353.21,-74 315.21,-74 315.21,-55 353.21,-55 353.21,-74"/>
<text text-anchor="middle" x="334.21" y="-62" font-family="Helvetica,sans-Serif" font-size="10.00">map</text>
</a>
</g>
</g>
<!-- Node5&#45;&gt;Node14 -->
<g id="edge18_Node000005_Node000014" class="edge">
<title>Node5&#45;&gt;Node14</title>
<g id="a_edge18_Node000005_Node000014"><a xlink:title=" ">
<path fill="none" stroke="#63b8ff" d="M545.94,-222.28C513.39,-216.33 470.24,-205.01 437.21,-184 395.4,-157.4 361.04,-108.83 344.62,-82.9"/>
<polygon fill="#63b8ff" stroke="#63b8ff" points="347.46,-80.84 339.23,-74.16 341.5,-84.51 347.46,-80.84"/>
</a>
</g>
</g>
<!-- Node6&#45;&gt;Node2 -->
<g id="edge7_Node000006_Node000002" class="edge">
<title>Node6&#45;&gt;Node2</title>
<g id="a_edge7_Node000006_Node000002"><a xlink:title=" ">
<path fill="none" stroke="#63b8ff" d="M657.47,-166.3C720.78,-158.75 820.1,-145.66 905.21,-129 939.38,-122.31 947.29,-117.85 981.21,-110 1034.58,-97.65 1095.92,-84.74 1138.28,-76.03"/>
<polygon fill="#63b8ff" stroke="#63b8ff" points="1138.99,-79.46 1148.08,-74.02 1137.58,-72.6 1138.99,-79.46"/>
</a>
</g>
</g>
<!-- Node7 -->
<g id="Node000007" class="node">
<title>Node7</title>
<g id="a_Node000007"><a xlink:href="realm__c_8h.html" target="_top" xlink:title=" ">
<polygon fill="white" stroke="#666666" points="1086.21,-129 990.21,-129 990.21,-110 1086.21,-110 1086.21,-129"/>
<text text-anchor="middle" x="1038.21" y="-117" font-family="Helvetica,sans-Serif" font-size="10.00">realm/realm_c.h</text>
</a>
</g>
</g>
<!-- Node6&#45;&gt;Node7 -->
<g id="edge8_Node000006_Node000007" class="edge">
<title>Node6&#45;&gt;Node7</title>
<g id="a_edge8_Node000006_Node000007"><a xlink:title=" ">
<path fill="none" stroke="#63b8ff" d="M657.44,-165.85C743.97,-155.54 896.72,-137.35 980.03,-127.43"/>
<polygon fill="#63b8ff" stroke="#63b8ff" points="980.56,-130.89 990.08,-126.23 979.74,-123.94 980.56,-130.89"/>
</a>
</g>
</g>
<!-- Node6&#45;&gt;Node10 -->
<g id="edge12_Node000006_Node000010" class="edge">
<title>Node6&#45;&gt;Node10</title>
<g id="a_edge12_Node000006_Node000010"><a xlink:title=" ">
<path fill="none" stroke="#63b8ff" d="M593.78,-164.66C594.92,-147.17 597.47,-107.8 598.99,-84.27"/>
<polygon fill="#63b8ff" stroke="#63b8ff" points="602.5,-84.36 599.65,-74.16 595.51,-83.91 602.5,-84.36"/>
</a>
</g>
</g>
<!-- Node11 -->
<g id="Node000011" class="node">
<title>Node11</title>
<g id="a_Node000011"><a xlink:title=" ">
<polygon fill="#e0e0e0" stroke="#999999" points="721.71,-129 628.71,-129 628.71,-110 721.71,-110 721.71,-129"/>
<text text-anchor="middle" x="675.21" y="-117" font-family="Helvetica,sans-Serif" font-size="10.00">unordered_map</text>
</a>
</g>
</g>
<!-- Node6&#45;&gt;Node11 -->
<g id="edge13_Node000006_Node000011" class="edge">
<title>Node6&#45;&gt;Node11</title>
<g id="a_edge13_Node000006_Node000011"><a xlink:title=" ">
<path fill="none" stroke="#63b8ff" d="M606.39,-164.98C618.98,-156.84 638.22,-144.41 653.15,-134.76"/>
<polygon fill="#63b8ff" stroke="#63b8ff" points="655.3,-137.54 661.8,-129.17 651.5,-131.66 655.3,-137.54"/>
</a>
</g>
</g>
<!-- Node6&#45;&gt;Node12 -->
<g id="edge14_Node000006_Node000012" class="edge">
<title>Node6&#45;&gt;Node12</title>
<g id="a_edge14_Node000006_Node000012"><a xlink:title=" ">
<path fill="none" stroke="#63b8ff" d="M556.68,-164.94C523.19,-156.78 472.39,-143.59 429.21,-129 383.72,-113.63 332.39,-91.85 301.44,-78.21"/>
<polygon fill="#63b8ff" stroke="#63b8ff" points="302.7,-74.94 292.14,-74.08 299.86,-81.33 302.7,-74.94"/>
</a>
</g>
</g>
<!-- Node13 -->
<g id="Node000013" class="node">
<title>Node13</title>
<g id="a_Node000013"><a xlink:title=" ">
<polygon fill="#e0e0e0" stroke="#999999" points="572.21,-129 438.21,-129 438.21,-110 572.21,-110 572.21,-129"/>
<text text-anchor="middle" x="505.21" y="-117" font-family="Helvetica,sans-Serif" font-size="10.00">realm/module_config.inl</text>
</a>
</g>
</g>
<!-- Node6&#45;&gt;Node13 -->
<g id="edge15_Node000006_Node000013" class="edge">
<title>Node6&#45;&gt;Node13</title>
<g id="a_edge15_Node000006_Node000013"><a xlink:title=" ">
<path fill="none" stroke="#63b8ff" d="M579.07,-164.98C565.43,-156.77 544.52,-144.18 528.43,-134.49"/>
<polygon fill="#63b8ff" stroke="#63b8ff" points="529.98,-131.33 519.61,-129.17 526.37,-137.33 529.98,-131.33"/>
</a>
</g>
</g>
<!-- Node7&#45;&gt;Node2 -->
<g id="edge9_Node000007_Node000002" class="edge">
<title>Node7&#45;&gt;Node2</title>
<g id="a_edge9_Node000007_Node000002"><a xlink:title=" ">
<path fill="none" stroke="#63b8ff" d="M1062.63,-109.98C1087.93,-101.16 1127.67,-87.31 1156.07,-77.41"/>
<polygon fill="#63b8ff" stroke="#63b8ff" points="1157.31,-80.68 1165.6,-74.08 1155,-74.07 1157.31,-80.68"/>
</a>
</g>
</g>
<!-- Node8 -->
<g id="Node000008" class="node">
<title>Node8</title>
<g id="a_Node000008"><a xlink:title=" ">
<polygon fill="#e0e0e0" stroke="#999999" points="1099.21,-74 1043.21,-74 1043.21,-55 1099.21,-55 1099.21,-74"/>
<text text-anchor="middle" x="1071.21" y="-62" font-family="Helvetica,sans-Serif" font-size="10.00">stddef.h</text>
</a>
</g>
</g>
<!-- Node7&#45;&gt;Node8 -->
<g id="edge10_Node000007_Node000008" class="edge">
<title>Node7&#45;&gt;Node8</title>
<g id="a_edge10_Node000007_Node000008"><a xlink:title=" ">
<path fill="none" stroke="#63b8ff" d="M1043.66,-109.75C1048.23,-102.42 1054.88,-91.73 1060.51,-82.7"/>
<polygon fill="#63b8ff" stroke="#63b8ff" points="1063.55,-84.43 1065.86,-74.09 1057.61,-80.73 1063.55,-84.43"/>
</a>
</g>
</g>
<!-- Node9 -->
<g id="Node000009" class="node">
<title>Node9</title>
<g id="a_Node000009"><a xlink:title=" ">
<polygon fill="#e0e0e0" stroke="#999999" points="1566.71,-74 1513.71,-74 1513.71,-55 1566.71,-55 1566.71,-74"/>
<text text-anchor="middle" x="1540.21" y="-62" font-family="Helvetica,sans-Serif" font-size="10.00">stdint.h</text>
</a>
</g>
</g>
<!-- Node7&#45;&gt;Node9 -->
<g id="edge11_Node000007_Node000009" class="edge">
<title>Node7&#45;&gt;Node9</title>
<g id="a_edge11_Node000007_Node000009"><a xlink:title=" ">
<path fill="none" stroke="#63b8ff" d="M1086.35,-113.42C1186.21,-102.87 1414.06,-78.82 1503.35,-69.39"/>
<polygon fill="#63b8ff" stroke="#63b8ff" points="1503.96,-72.85 1513.53,-68.32 1503.22,-65.89 1503.96,-72.85"/>
</a>
</g>
</g>
<!-- Node15&#45;&gt;Node7 -->
<g id="edge20_Node000015_Node000007" class="edge">
<title>Node15&#45;&gt;Node7</title>
<g id="a_edge20_Node000015_Node000007"><a xlink:title=" ">
<path fill="none" stroke="#63b8ff" d="M273.59,-281.77C388.56,-276.68 670.51,-257.12 893.21,-184 936.19,-169.89 983.84,-147.67 1012.39,-133.61"/>
<polygon fill="#63b8ff" stroke="#63b8ff" points="1014.26,-136.59 1021.66,-129 1011.14,-130.32 1014.26,-136.59"/>
</a>
</g>
</g>
<!-- Node15&#45;&gt;Node12 -->
<g id="edge41_Node000015_Node000012" class="edge">
<title>Node15&#45;&gt;Node12</title>
<g id="a_edge41_Node000015_Node000012"><a xlink:title=" ">
<path fill="none" stroke="#63b8ff" d="M169.01,-278.76C117.71,-272.9 44.65,-260.89 27.21,-239 -8.51,-194.16 -9.54,-154 27.21,-110 53.85,-78.11 178.29,-69.03 239.31,-66.48"/>
<polygon fill="#63b8ff" stroke="#63b8ff" points="239.72,-69.96 249.58,-66.08 239.45,-62.97 239.72,-69.96"/>
</a>
</g>
</g>
<!-- Node15&#45;&gt;Node14 -->
<g id="edge42_Node000015_Node000014" class="edge">
<title>Node15&#45;&gt;Node14</title>
<g id="a_edge42_Node000015_Node000014"><a xlink:title=" ">
<path fill="none" stroke="#63b8ff" d="M174.42,-274.97C152.28,-268.62 127.24,-257.68 111.21,-239 89.46,-213.66 79.75,-192.82 98.21,-165 110.38,-146.66 244.96,-97.15 305.27,-75.67"/>
<polygon fill="#63b8ff" stroke="#63b8ff" points="306.7,-78.88 314.96,-72.24 304.36,-72.28 306.7,-78.88"/>
</a>
</g>
</g>
<!-- Node16 -->
<g id="Node000016" class="node">
<title>Node16</title>
<g id="a_Node000016"><a xlink:href="event_8h.html" target="_top" xlink:title=" ">
<polygon fill="white" stroke="#666666" points="205.71,-239 120.71,-239 120.71,-220 205.71,-220 205.71,-239"/>
<text text-anchor="middle" x="163.21" y="-227" font-family="Helvetica,sans-Serif" font-size="10.00">realm/event.h</text>
</a>
</g>
</g>
<!-- Node15&#45;&gt;Node16 -->
<g id="edge21_Node000015_Node000016" class="edge">
<title>Node15&#45;&gt;Node16</title>
<g id="a_edge21_Node000015_Node000016"><a xlink:title=" ">
<path fill="none" stroke="#63b8ff" d="M211.89,-274.98C203.4,-267.23 190.65,-255.58 180.33,-246.14"/>
<polygon fill="#63b8ff" stroke="#63b8ff" points="182.44,-243.33 172.7,-239.17 177.72,-248.5 182.44,-243.33"/>
</a>
</g>
</g>
<!-- Node27 -->
<g id="Node000027" class="node">
<title>Node27</title>
<g id="a_Node000027"><a xlink:title=" ">
<polygon fill="#e0e0e0" stroke="#999999" points="334.21,-239 224.21,-239 224.21,-220 334.21,-220 334.21,-239"/>
<text text-anchor="middle" x="279.21" y="-227" font-family="Helvetica,sans-Serif" font-size="10.00">realm/processor.inl</text>
</a>
</g>
</g>
<!-- Node15&#45;&gt;Node27 -->
<g id="edge43_Node000015_Node000027" class="edge">
<title>Node15&#45;&gt;Node27</title>
<g id="a_edge43_Node000015_Node000027"><a xlink:title=" ">
<path fill="none" stroke="#63b8ff" d="M230.53,-274.98C239.02,-267.23 251.77,-255.58 262.09,-246.14"/>
<polygon fill="#63b8ff" stroke="#63b8ff" points="264.7,-248.5 269.72,-239.17 259.98,-243.33 264.7,-248.5"/>
</a>
</g>
</g>
<!-- Node16&#45;&gt;Node7 -->
<g id="edge22_Node000016_Node000007" class="edge">
<title>Node16&#45;&gt;Node7</title>
<g id="a_edge22_Node000016_Node000007"><a xlink:title=" ">
<path fill="none" stroke="#63b8ff" d="M205.73,-221.17C208.93,-220.74 212.12,-220.34 215.21,-220 499.74,-188.87 579.92,-250.92 858.21,-184 878.53,-179.11 881.69,-172.46 901.21,-165 933.88,-152.52 971.73,-140.39 999.36,-131.96"/>
<polygon fill="#63b8ff" stroke="#63b8ff" points="1000.49,-135.28 1009.05,-129.03 998.46,-128.58 1000.49,-135.28"/>
</a>
</g>
</g>
<!-- Node16&#45;&gt;Node12 -->
<g id="edge37_Node000016_Node000012" class="edge">
<title>Node16&#45;&gt;Node12</title>
<g id="a_edge37_Node000016_Node000012"><a xlink:title=" ">
<path fill="none" stroke="#63b8ff" d="M141.99,-219.86C118.21,-208.82 84.65,-188.32 98.21,-165 128.65,-112.67 198.02,-85.6 239.7,-73.57"/>
<polygon fill="#63b8ff" stroke="#63b8ff" points="240.7,-76.92 249.41,-70.89 238.84,-70.18 240.7,-76.92"/>
</a>
</g>
</g>
<!-- Node17 -->
<g id="Node000017" class="node">
<title>Node17</title>
<g id="a_Node000017"><a xlink:href="utils_8h.html" target="_top" xlink:title=" ">
<polygon fill="white" stroke="#666666" points="896.21,-129 818.21,-129 818.21,-110 896.21,-110 896.21,-129"/>
<text text-anchor="middle" x="857.21" y="-117" font-family="Helvetica,sans-Serif" font-size="10.00">realm/utils.h</text>
</a>
</g>
</g>
<!-- Node16&#45;&gt;Node17 -->
<g id="edge23_Node000016_Node000017" class="edge">
<title>Node16&#45;&gt;Node17</title>
<g id="a_edge23_Node000016_Node000017"><a xlink:title=" ">
<path fill="none" stroke="#63b8ff" d="M205.74,-221.24C208.94,-220.79 212.12,-220.37 215.21,-220 429.86,-194.54 490.52,-236.44 700.21,-184 720.48,-178.93 723.92,-173.02 743.21,-165 770.55,-153.63 801.91,-141.45 824.81,-132.71"/>
<polygon fill="#63b8ff" stroke="#63b8ff" points="826.28,-135.9 834.38,-129.07 823.79,-129.36 826.28,-135.9"/>
</a>
</g>
</g>
<!-- Node23 -->
<g id="Node000023" class="node">
<title>Node23</title>
<g id="a_Node000023"><a xlink:href="memory_8h.html" target="_top" xlink:title=" ">
<polygon fill="white" stroke="#666666" points="848.71,-184 751.71,-184 751.71,-165 848.71,-165 848.71,-184"/>
<text text-anchor="middle" x="800.21" y="-172" font-family="Helvetica,sans-Serif" font-size="10.00">realm/memory.h</text>
</a>
</g>
</g>
<!-- Node16&#45;&gt;Node23 -->
<g id="edge33_Node000016_Node000023" class="edge">
<title>Node16&#45;&gt;Node23</title>
<g id="a_edge33_Node000016_Node000023"><a xlink:title=" ">
<path fill="none" stroke="#63b8ff" d="M205.73,-221.22C208.94,-220.77 212.12,-220.36 215.21,-220 446.21,-193.21 505.86,-207.56 737.21,-184 738.51,-183.87 739.82,-183.73 741.14,-183.59"/>
<polygon fill="#63b8ff" stroke="#63b8ff" points="741.88,-187.03 751.41,-182.4 741.08,-180.07 741.88,-187.03"/>
</a>
</g>
</g>
<!-- Node24 -->
<g id="Node000024" class="node">
<title>Node24</title>
<g id="a_Node000024"><a xlink:title=" ">
<polygon fill="#e0e0e0" stroke="#999999" points="800.21,-129 740.21,-129 740.21,-110 800.21,-110 800.21,-129"/>
<text text-anchor="middle" x="770.21" y="-117" font-family="Helvetica,sans-Serif" font-size="10.00">iostream</text>
</a>
</g>
</g>
<!-- Node16&#45;&gt;Node24 -->
<g id="edge39_Node000016_Node000024" class="edge">
<title>Node16&#45;&gt;Node24</title>
<g id="a_edge39_Node000016_Node000024"><a xlink:title=" ">
<path fill="none" stroke="#63b8ff" d="M205.74,-221.26C208.94,-220.8 212.12,-220.37 215.21,-220 414.83,-195.76 474.96,-246.09 666.21,-184 698.84,-173.41 731.86,-150.75 751.69,-135.57"/>
<polygon fill="#63b8ff" stroke="#63b8ff" points="754.11,-138.12 759.82,-129.19 749.79,-132.61 754.11,-138.12"/>
</a>
</g>
</g>
<!-- Node25 -->
<g id="Node000025" class="node">
<title>Node25</title>
<g id="a_Node000025"><a xlink:title=" ">
<polygon fill="#e0e0e0" stroke="#999999" points="139.21,-184 107.21,-184 107.21,-165 139.21,-165 139.21,-184"/>
<text text-anchor="middle" x="123.21" y="-172" font-family="Helvetica,sans-Serif" font-size="10.00">set</text>
</a>
</g>
</g>
<!-- Node16&#45;&gt;Node25 -->
<g id="edge38_Node000016_Node000025" class="edge">
<title>Node16&#45;&gt;Node25</title>
<g id="a_edge38_Node000016_Node000025"><a xlink:title=" ">
<path fill="none" stroke="#63b8ff" d="M156.61,-219.75C150.96,-212.26 142.67,-201.28 135.76,-192.13"/>
<polygon fill="#63b8ff" stroke="#63b8ff" points="138.51,-189.96 129.69,-184.09 132.92,-194.18 138.51,-189.96"/>
</a>
</g>
</g>
<!-- Node26 -->
<g id="Node000026" class="node">
<title>Node26</title>
<g id="a_Node000026"><a xlink:title=" ">
<polygon fill="#e0e0e0" stroke="#999999" points="248.71,-184 157.71,-184 157.71,-165 248.71,-165 248.71,-184"/>
<text text-anchor="middle" x="203.21" y="-172" font-family="Helvetica,sans-Serif" font-size="10.00">realm/event.inl</text>
</a>
</g>
</g>
<!-- Node16&#45;&gt;Node26 -->
<g id="edge40_Node000016_Node000026" class="edge">
<title>Node16&#45;&gt;Node26</title>
<g id="a_edge40_Node000016_Node000026"><a xlink:title=" ">
<path fill="none" stroke="#63b8ff" d="M169.82,-219.75C175.47,-212.26 183.76,-201.28 190.66,-192.13"/>
<polygon fill="#63b8ff" stroke="#63b8ff" points="193.5,-194.18 196.73,-184.09 187.91,-189.96 193.5,-194.18"/>
</a>
</g>
</g>
<!-- Node17&#45;&gt;Node2 -->
<g id="edge24_Node000017_Node000002" class="edge">
<title>Node17&#45;&gt;Node2</title>
<g id="a_edge24_Node000017_Node000002"><a xlink:title=" ">
<path fill="none" stroke="#63b8ff" d="M896.29,-112.23C900.98,-111.48 905.7,-110.72 910.21,-110 984.49,-98.14 1069.87,-84.58 1126.63,-75.58"/>
<polygon fill="#63b8ff" stroke="#63b8ff" points="1127.2,-79.03 1136.53,-74.01 1126.11,-72.12 1127.2,-79.03"/>
</a>
</g>
</g>
<!-- Node17&#45;&gt;Node10 -->
<g id="edge25_Node000017_Node000010" class="edge">
<title>Node17&#45;&gt;Node10</title>
<g id="a_edge25_Node000017_Node000010"><a xlink:title=" ">
<path fill="none" stroke="#63b8ff" d="M818.18,-110.45C767.4,-99.98 679.6,-81.87 632.42,-72.14"/>
<polygon fill="#63b8ff" stroke="#63b8ff" points="632.95,-68.68 622.45,-70.09 631.54,-75.53 632.95,-68.68"/>
</a>
</g>
</g>
<!-- Node17&#45;&gt;Node12 -->
<g id="edge27_Node000017_Node000012" class="edge">
<title>Node17&#45;&gt;Node12</title>
<g id="a_edge27_Node000017_Node000012"><a xlink:title=" ">
<path fill="none" stroke="#63b8ff" d="M817.97,-111.21C815.01,-110.76 812.07,-110.35 809.21,-110 590.05,-82.83 529.19,-109.3 306.92,-73.77"/>
<polygon fill="#63b8ff" stroke="#63b8ff" points="307.33,-70.29 296.9,-72.15 306.21,-77.2 307.33,-70.29"/>
</a>
</g>
</g>
<!-- Node17&#45;&gt;Node14 -->
<g id="edge28_Node000017_Node000014" class="edge">
<title>Node17&#45;&gt;Node14</title>
<g id="a_edge28_Node000017_Node000014"><a xlink:title=" ">
<path fill="none" stroke="#63b8ff" d="M817.96,-111.28C815,-110.82 812.06,-110.39 809.21,-110 641.01,-87.27 437.73,-72.41 363.31,-67.39"/>
<polygon fill="#63b8ff" stroke="#63b8ff" points="363.49,-63.9 353.28,-66.72 363.03,-70.88 363.49,-63.9"/>
</a>
</g>
</g>
<!-- Node18 -->
<g id="Node000018" class="node">
<title>Node18</title>
<g id="a_Node000018"><a xlink:title=" ">
<polygon fill="#e0e0e0" stroke="#999999" points="1024.71,-74 967.71,-74 967.71,-55 1024.71,-55 1024.71,-74"/>
<text text-anchor="middle" x="996.21" y="-62" font-family="Helvetica,sans-Serif" font-size="10.00">ostream</text>
</a>
</g>
</g>
<!-- Node17&#45;&gt;Node18 -->
<g id="edge26_Node000017_Node000018" class="edge">
<title>Node17&#45;&gt;Node18</title>
<g id="a_edge26_Node000017_Node000018"><a xlink:title=" ">
<path fill="none" stroke="#63b8ff" d="M879.54,-109.98C902.41,-101.27 938.17,-87.63 964.07,-77.75"/>
<polygon fill="#63b8ff" stroke="#63b8ff" points="965.38,-81 973.47,-74.17 962.88,-74.46 965.38,-81"/>
</a>
</g>
</g>
<!-- Node19 -->
<g id="Node000019" class="node">
<title>Node19</title>
<g id="a_Node000019"><a xlink:title=" ">
<polygon fill="#e0e0e0" stroke="#999999" points="705.21,-74 653.21,-74 653.21,-55 705.21,-55 705.21,-74"/>
<text text-anchor="middle" x="679.21" y="-62" font-family="Helvetica,sans-Serif" font-size="10.00">cassert</text>
</a>
</g>
</g>
<!-- Node17&#45;&gt;Node19 -->
<g id="edge29_Node000017_Node000019" class="edge">
<title>Node17&#45;&gt;Node19</title>
<g id="a_edge29_Node000017_Node000019"><a xlink:title=" ">
<path fill="none" stroke="#63b8ff" d="M828.61,-109.98C797.8,-100.81 748.69,-86.19 715.26,-76.23"/>
<polygon fill="#63b8ff" stroke="#63b8ff" points="716,-72.8 705.42,-73.3 714,-79.51 716,-72.8"/>
</a>
</g>
</g>
<!-- Node20 -->
<g id="Node000020" class="node">
<title>Node20</title>
<g id="a_Node000020"><a xlink:title=" ">
<polygon fill="#e0e0e0" stroke="#999999" points="773.21,-74 723.21,-74 723.21,-55 773.21,-55 773.21,-74"/>
<text text-anchor="middle" x="748.21" y="-62" font-family="Helvetica,sans-Serif" font-size="10.00">cstdint</text>
</a>
</g>
</g>
<!-- Node17&#45;&gt;Node20 -->
<g id="edge30_Node000017_Node000020" class="edge">
<title>Node17&#45;&gt;Node20</title>
<g id="a_edge30_Node000017_Node000020"><a xlink:title=" ">
<path fill="none" stroke="#63b8ff" d="M839.7,-109.98C822.24,-101.5 795.2,-88.35 775.04,-78.54"/>
<polygon fill="#63b8ff" stroke="#63b8ff" points="776.57,-75.4 766.04,-74.17 773.51,-81.69 776.57,-75.4"/>
</a>
</g>
</g>
<!-- Node21 -->
<g id="Node000021" class="node">
<title>Node21</title>
<g id="a_Node000021"><a xlink:title=" ">
<polygon fill="#e0e0e0" stroke="#999999" points="847.21,-74 791.21,-74 791.21,-55 847.21,-55 847.21,-74"/>
<text text-anchor="middle" x="819.21" y="-62" font-family="Helvetica,sans-Serif" font-size="10.00">sstream</text>
</a>
</g>
</g>
<!-- Node17&#45;&gt;Node21 -->
<g id="edge31_Node000017_Node000021" class="edge">
<title>Node17&#45;&gt;Node21</title>
<g id="a_edge31_Node000017_Node000021"><a xlink:title=" ">
<path fill="none" stroke="#63b8ff" d="M850.94,-109.75C845.62,-102.34 837.86,-91.5 831.34,-82.41"/>
<polygon fill="#63b8ff" stroke="#63b8ff" points="834.04,-80.18 825.37,-74.09 828.35,-84.26 834.04,-80.18"/>
</a>
</g>
</g>
<!-- Node22 -->
<g id="Node000022" class="node">
<title>Node22</title>
<g id="a_Node000022"><a xlink:title=" ">
<polygon fill="#e0e0e0" stroke="#999999" points="949.21,-74 865.21,-74 865.21,-55 949.21,-55 949.21,-74"/>
<text text-anchor="middle" x="907.21" y="-62" font-family="Helvetica,sans-Serif" font-size="10.00">realm/utils.inl</text>
</a>
</g>
</g>
<!-- Node17&#45;&gt;Node22 -->
<g id="edge32_Node000017_Node000022" class="edge">
<title>Node17&#45;&gt;Node22</title>
<g id="a_edge32_Node000017_Node000022"><a xlink:title=" ">
<path fill="none" stroke="#63b8ff" d="M865.47,-109.75C872.68,-102.11 883.32,-90.82 892.06,-81.56"/>
<polygon fill="#63b8ff" stroke="#63b8ff" points="894.79,-83.76 899.11,-74.09 889.7,-78.96 894.79,-83.76"/>
</a>
</g>
</g>
<!-- Node23&#45;&gt;Node7 -->
<g id="edge34_Node000023_Node000007" class="edge">
<title>Node23&#45;&gt;Node7</title>
<g id="a_edge34_Node000023_Node000007"><a xlink:title=" ">
<path fill="none" stroke="#63b8ff" d="M838.45,-164.98C879.62,-155.82 945.2,-141.21 989.91,-131.26"/>
<polygon fill="#63b8ff" stroke="#63b8ff" points="990.67,-134.67 999.67,-129.08 989.15,-127.84 990.67,-134.67"/>
</a>
</g>
</g>
<!-- Node23&#45;&gt;Node8 -->
<g id="edge35_Node000023_Node000008" class="edge">
<title>Node23&#45;&gt;Node8</title>
<g id="a_edge35_Node000023_Node000008"><a xlink:title=" ">
<path fill="none" stroke="#63b8ff" d="M821.93,-164.84C869.92,-145.72 985.1,-99.82 1040.47,-77.75"/>
<polygon fill="#63b8ff" stroke="#63b8ff" points="1041.77,-81 1049.77,-74.05 1039.18,-74.5 1041.77,-81"/>
</a>
</g>
</g>
<!-- Node23&#45;&gt;Node24 -->
<g id="edge36_Node000023_Node000024" class="edge">
<title>Node23&#45;&gt;Node24</title>
<g id="a_edge36_Node000023_Node000024"><a xlink:title=" ">
<path fill="none" stroke="#63b8ff" d="M795.26,-164.75C791.15,-157.49 785.19,-146.95 780.11,-137.98"/>
<polygon fill="#63b8ff" stroke="#63b8ff" points="783.05,-136.07 775.07,-129.09 776.95,-139.52 783.05,-136.07"/>
</a>
</g>
</g>
<!-- Node28&#45;&gt;Node2 -->
<g id="edge45_Node000028_Node000002" class="edge">
<title>Node28&#45;&gt;Node2</title>
<g id="a_edge45_Node000028_Node000002"><a xlink:title=" ">
<path fill="none" stroke="#63b8ff" d="M1097.77,-278.09C1123.62,-272.57 1153.61,-261.44 1171.21,-239 1207,-193.37 1199.9,-119.01 1194.03,-84.37"/>
<polygon fill="#63b8ff" stroke="#63b8ff" points="1197.42,-83.44 1192.15,-74.24 1190.54,-84.71 1197.42,-83.44"/>
</a>
</g>
</g>
<!-- Node28&#45;&gt;Node5 -->
<g id="edge46_Node000028_Node000005" class="edge">
<title>Node28&#45;&gt;Node5</title>
<g id="a_edge46_Node000028_Node000005"><a xlink:title=" ">
<path fill="none" stroke="#63b8ff" d="M1000.41,-277.83C915.46,-267.95 740.84,-247.66 650.37,-237.14"/>
<polygon fill="#63b8ff" stroke="#63b8ff" points="650.63,-233.65 640.29,-235.97 649.82,-240.6 650.63,-233.65"/>
</a>
</g>
</g>
<!-- Node28&#45;&gt;Node14 -->
<g id="edge65_Node000028_Node000014" class="edge">
<title>Node28&#45;&gt;Node14</title>
<g id="a_edge65_Node000028_Node000014"><a xlink:title=" ">
<path fill="none" stroke="#63b8ff" d="M1000.36,-284.38C908.28,-284.91 703.35,-280.76 537.21,-239 447.39,-216.42 409.27,-207.56 360.21,-129 351.34,-114.79 344.37,-97.03 339.89,-83.91"/>
<polygon fill="#63b8ff" stroke="#63b8ff" points="343.14,-82.59 336.72,-74.16 336.48,-84.75 343.14,-82.59"/>
</a>
</g>
</g>
<!-- Node28&#45;&gt;Node23 -->
<g id="edge61_Node000028_Node000023" class="edge">
<title>Node28&#45;&gt;Node23</title>
<g id="a_edge61_Node000028_Node000023"><a xlink:title=" ">
<path fill="none" stroke="#63b8ff" d="M1023.63,-274.87C999.13,-266.4 961.26,-252.79 929.21,-239 892.41,-223.17 851.05,-202.23 825.31,-188.81"/>
<polygon fill="#63b8ff" stroke="#63b8ff" points="826.74,-185.6 816.25,-184.06 823.48,-191.8 826.74,-185.6"/>
</a>
</g>
</g>
<!-- Node29 -->
<g id="Node000029" class="node">
<title>Node29</title>
<g id="a_Node000029"><a xlink:href="nodeset_8h.html" target="_top" xlink:title=" ">
<polygon fill="white" stroke="#666666" points="1417.21,-239 1321.21,-239 1321.21,-220 1417.21,-220 1417.21,-239"/>
<text text-anchor="middle" x="1369.21" y="-227" font-family="Helvetica,sans-Serif" font-size="10.00">realm/nodeset.h</text>
</a>
</g>
</g>
<!-- Node28&#45;&gt;Node29 -->
<g id="edge47_Node000028_Node000029" class="edge">
<title>Node28&#45;&gt;Node29</title>
<g id="a_edge47_Node000028_Node000029"><a xlink:title=" ">
<path fill="none" stroke="#63b8ff" d="M1097.81,-275.45C1155.12,-265.96 1250.27,-250.2 1311.33,-240.09"/>
<polygon fill="#63b8ff" stroke="#63b8ff" points="1311.91,-243.54 1321.2,-238.45 1310.76,-236.63 1311.91,-243.54"/>
</a>
</g>
</g>
<!-- Node37 -->
<g id="Node000037" class="node">
<title>Node37</title>
<g id="a_Node000037"><a xlink:href="bytearray_8h.html" target="_top" xlink:title=" ">
<polygon fill="white" stroke="#666666" points="1040.71,-239 937.71,-239 937.71,-220 1040.71,-220 1040.71,-239"/>
<text text-anchor="middle" x="989.21" y="-227" font-family="Helvetica,sans-Serif" font-size="10.00">realm/bytearray.h</text>
</a>
</g>
</g>
<!-- Node28&#45;&gt;Node37 -->
<g id="edge62_Node000028_Node000037" class="edge">
<title>Node28&#45;&gt;Node37</title>
<g id="a_edge62_Node000028_Node000037"><a xlink:title=" ">
<path fill="none" stroke="#63b8ff" d="M1039.57,-274.98C1030.7,-267.15 1017.34,-255.34 1006.6,-245.86"/>
<polygon fill="#63b8ff" stroke="#63b8ff" points="1008.84,-243.17 999.03,-239.17 1004.2,-248.41 1008.84,-243.17"/>
</a>
</g>
</g>
<!-- Node39 -->
<g id="Node000039" class="node">
<title>Node39</title>
<g id="a_Node000039"><a xlink:title=" ">
<polygon fill="#e0e0e0" stroke="#999999" points="1161.71,-239 1058.71,-239 1058.71,-220 1161.71,-220 1161.71,-239"/>
<text text-anchor="middle" x="1110.21" y="-227" font-family="Helvetica,sans-Serif" font-size="10.00">realm/network.inl</text>
</a>
</g>
</g>
<!-- Node28&#45;&gt;Node39 -->
<g id="edge66_Node000028_Node000039" class="edge">
<title>Node28&#45;&gt;Node39</title>
<g id="a_edge66_Node000028_Node000039"><a xlink:title=" ">
<path fill="none" stroke="#63b8ff" d="M1059.01,-274.98C1068.03,-267.15 1081.62,-255.34 1092.53,-245.86"/>
<polygon fill="#63b8ff" stroke="#63b8ff" points="1094.98,-248.37 1100.23,-239.17 1090.39,-243.09 1094.98,-248.37"/>
</a>
</g>
</g>
<!-- Node29&#45;&gt;Node2 -->
<g id="edge48_Node000029_Node000002" class="edge">
<title>Node29&#45;&gt;Node2</title>
<g id="a_edge48_Node000029_Node000002"><a xlink:title=" ">
<path fill="none" stroke="#63b8ff" d="M1345.59,-219.9C1327.7,-212.49 1303.34,-200.39 1286.21,-184 1258.56,-157.55 1266.85,-139.27 1242.21,-110 1232.89,-98.92 1220.65,-88.31 1210.4,-80.22"/>
<polygon fill="#63b8ff" stroke="#63b8ff" points="1212.42,-77.37 1202.35,-74.07 1208.17,-82.93 1212.42,-77.37"/>
</a>
</g>
</g>
<!-- Node29&#45;&gt;Node9 -->
<g id="edge58_Node000029_Node000009" class="edge">
<title>Node29&#45;&gt;Node9</title>
<g id="a_edge58_Node000029_Node000009"><a xlink:title=" ">
<path fill="none" stroke="#63b8ff" d="M1417.25,-225.49C1474.32,-220.81 1564.44,-209.49 1585.21,-184 1610.46,-153.02 1577.25,-106.37 1555.81,-81.86"/>
<polygon fill="#63b8ff" stroke="#63b8ff" points="1558.14,-79.23 1548.83,-74.18 1552.96,-83.94 1558.14,-79.23"/>
</a>
</g>
</g>
<!-- Node30 -->
<g id="Node000030" class="node">
<title>Node30</title>
<g id="a_Node000030"><a xlink:href="mutex_8h.html" target="_top" xlink:title=" ">
<polygon fill="white" stroke="#666666" points="1575.71,-184 1486.71,-184 1486.71,-165 1575.71,-165 1575.71,-184"/>
<text text-anchor="middle" x="1531.21" y="-172" font-family="Helvetica,sans-Serif" font-size="10.00">realm/mutex.h</text>
</a>
</g>
</g>
<!-- Node29&#45;&gt;Node30 -->
<g id="edge49_Node000029_Node000030" class="edge">
<title>Node29&#45;&gt;Node30</title>
<g id="a_edge49_Node000029_Node000030"><a xlink:title=" ">
<path fill="none" stroke="#63b8ff" d="M1395.24,-219.98C1422.32,-211.13 1464.92,-197.19 1495.22,-187.28"/>
<polygon fill="#63b8ff" stroke="#63b8ff" points="1496.56,-190.52 1504.98,-184.08 1494.39,-183.87 1496.56,-190.52"/>
</a>
</g>
</g>
<!-- Node35 -->
<g id="Node000035" class="node">
<title>Node35</title>
<g id="a_Node000035"><a xlink:title=" ">
<polygon fill="#e0e0e0" stroke="#999999" points="1347.71,-184 1294.71,-184 1294.71,-165 1347.71,-165 1347.71,-184"/>
<text text-anchor="middle" x="1321.21" y="-172" font-family="Helvetica,sans-Serif" font-size="10.00">iterator</text>
</a>
</g>
</g>
<!-- Node29&#45;&gt;Node35 -->
<g id="edge59_Node000029_Node000035" class="edge">
<title>Node29&#45;&gt;Node35</title>
<g id="a_edge59_Node000029_Node000035"><a xlink:title=" ">
<path fill="none" stroke="#63b8ff" d="M1361.29,-219.75C1354.37,-212.11 1344.15,-200.82 1335.76,-191.56"/>
<polygon fill="#63b8ff" stroke="#63b8ff" points="1338.3,-189.15 1328.99,-184.09 1333.11,-193.85 1338.3,-189.15"/>
</a>
</g>
</g>
<!-- Node36 -->
<g id="Node000036" class="node">
<title>Node36</title>
<g id="a_Node000036"><a xlink:title=" ">
<polygon fill="#e0e0e0" stroke="#999999" points="1468.21,-184 1366.21,-184 1366.21,-165 1468.21,-165 1468.21,-184"/>
<text text-anchor="middle" x="1417.21" y="-172" font-family="Helvetica,sans-Serif" font-size="10.00">realm/nodeset.inl</text>
</a>
</g>
</g>
<!-- Node29&#45;&gt;Node36 -->
<g id="edge60_Node000029_Node000036" class="edge">
<title>Node29&#45;&gt;Node36</title>
<g id="a_edge60_Node000029_Node000036"><a xlink:title=" ">
<path fill="none" stroke="#63b8ff" d="M1377.14,-219.75C1384.06,-212.11 1394.28,-200.82 1402.66,-191.56"/>
<polygon fill="#63b8ff" stroke="#63b8ff" points="1405.31,-193.85 1409.43,-184.09 1400.13,-189.15 1405.31,-193.85"/>
</a>
</g>
</g>
<!-- Node30&#45;&gt;Node2 -->
<g id="edge50_Node000030_Node000002" class="edge">
<title>Node30&#45;&gt;Node2</title>
<g id="a_edge50_Node000030_Node000002"><a xlink:title=" ">
<path fill="none" stroke="#63b8ff" d="M1504.17,-164.94C1443.36,-145.68 1295.78,-98.94 1226.84,-77.1"/>
<polygon fill="#63b8ff" stroke="#63b8ff" points="1227.85,-73.75 1217.26,-74.07 1225.73,-80.42 1227.85,-73.75"/>
</a>
</g>
</g>
<!-- Node30&#45;&gt;Node9 -->
<g id="edge56_Node000030_Node000009" class="edge">
<title>Node30&#45;&gt;Node9</title>
<g id="a_edge56_Node000030_Node000009"><a xlink:title=" ">
<path fill="none" stroke="#63b8ff" d="M1531.95,-164.66C1533.41,-147.17 1536.69,-107.8 1538.65,-84.27"/>
<polygon fill="#63b8ff" stroke="#63b8ff" points="1542.15,-84.41 1539.49,-74.16 1535.17,-83.83 1542.15,-84.41"/>
</a>
</g>
</g>
<!-- Node30&#45;&gt;Node17 -->
<g id="edge51_Node000030_Node000017" class="edge">
<title>Node30&#45;&gt;Node17</title>
<g id="a_edge51_Node000030_Node000017"><a xlink:title=" ">
<path fill="none" stroke="#63b8ff" d="M1486.46,-166.16C1483.34,-165.74 1480.23,-165.35 1477.21,-165 1449,-161.77 1048.05,-133.77 906.37,-123.91"/>
<polygon fill="#63b8ff" stroke="#63b8ff" points="906.45,-120.41 896.23,-123.21 905.96,-127.39 906.45,-120.41"/>
</a>
</g>
</g>
<!-- Node30&#45;&gt;Node31 -->
<g id="edge52_Node000030_Node000031" class="edge">
<title>Node30&#45;&gt;Node31</title>
<g id="a_edge52_Node000030_Node000031"><a xlink:title=" ">
<path fill="none" stroke="#63b8ff" d="M1552.42,-164.98C1573.94,-156.34 1607.49,-142.87 1632.04,-133.02"/>
<polygon fill="#63b8ff" stroke="#63b8ff" points="1633.64,-136.14 1641.62,-129.17 1631.03,-129.65 1633.64,-136.14"/>
</a>
</g>
</g>
<!-- Node34 -->
<g id="Node000034" class="node">
<title>Node34</title>
<g id="a_Node000034"><a xlink:title=" ">
<polygon fill="#e0e0e0" stroke="#999999" points="1511.71,-129 1416.71,-129 1416.71,-110 1511.71,-110 1511.71,-129"/>
<text text-anchor="middle" x="1464.21" y="-117" font-family="Helvetica,sans-Serif" font-size="10.00">realm/mutex.inl</text>
</a>
</g>
</g>
<!-- Node30&#45;&gt;Node34 -->
<g id="edge57_Node000030_Node000034" class="edge">
<title>Node30&#45;&gt;Node34</title>
<g id="a_edge57_Node000030_Node000034"><a xlink:title=" ">
<path fill="none" stroke="#63b8ff" d="M1520.45,-164.98C1510.45,-157.07 1495.33,-145.11 1483.28,-135.58"/>
<polygon fill="#63b8ff" stroke="#63b8ff" points="1485.19,-132.63 1475.17,-129.17 1480.84,-138.12 1485.19,-132.63"/>
</a>
</g>
</g>
<!-- Node31&#45;&gt;Node2 -->
<g id="edge53_Node000031_Node000002" class="edge">
<title>Node31&#45;&gt;Node2</title>
<g id="a_edge53_Node000031_Node000002"><a xlink:title=" ">
<path fill="none" stroke="#63b8ff" d="M1614.82,-113.08C1530.79,-103.66 1357.61,-84.26 1260.39,-73.36"/>
<polygon fill="#63b8ff" stroke="#63b8ff" points="1260.69,-69.87 1250.36,-72.24 1259.91,-76.83 1260.69,-69.87"/>
</a>
</g>
</g>
<!-- Node32 -->
<g id="Node000032" class="node">
<title>Node32</title>
<g id="a_Node000032"><a xlink:title=" ">
<polygon fill="#e0e0e0" stroke="#999999" points="1666.21,-74 1616.21,-74 1616.21,-55 1666.21,-55 1666.21,-74"/>
<text text-anchor="middle" x="1641.21" y="-62" font-family="Helvetica,sans-Serif" font-size="10.00">atomic</text>
</a>
</g>
</g>
<!-- Node31&#45;&gt;Node32 -->
<g id="edge54_Node000031_Node000032" class="edge">
<title>Node31&#45;&gt;Node32</title>
<g id="a_edge54_Node000031_Node000032"><a xlink:title=" ">
<path fill="none" stroke="#63b8ff" d="M1659.58,-109.75C1656.63,-102.65 1652.38,-92.4 1648.71,-83.56"/>
<polygon fill="#63b8ff" stroke="#63b8ff" points="1651.84,-81.98 1644.78,-74.09 1645.38,-84.67 1651.84,-81.98"/>
</a>
</g>
</g>
<!-- Node33 -->
<g id="Node000033" class="node">
<title>Node33</title>
<g id="a_Node000033"><a xlink:title=" ">
<polygon fill="#e0e0e0" stroke="#999999" points="1786.21,-74 1684.21,-74 1684.21,-55 1786.21,-55 1786.21,-74"/>
<text text-anchor="middle" x="1735.21" y="-62" font-family="Helvetica,sans-Serif" font-size="10.00">realm/atomics.inl</text>
</a>
</g>
</g>
<!-- Node31&#45;&gt;Node33 -->
<g id="edge55_Node000031_Node000033" class="edge">
<title>Node31&#45;&gt;Node33</title>
<g id="a_edge55_Node000031_Node000033"><a xlink:title=" ">
<path fill="none" stroke="#63b8ff" d="M1674.78,-109.98C1685.63,-102 1702.09,-89.88 1715.1,-80.31"/>
<polygon fill="#63b8ff" stroke="#63b8ff" points="1717.45,-82.92 1723.43,-74.17 1713.3,-77.28 1717.45,-82.92"/>
</a>
</g>
</g>
<!-- Node37&#45;&gt;Node8 -->
<g id="edge63_Node000037_Node000008" class="edge">
<title>Node37&#45;&gt;Node8</title>
<g id="a_edge63_Node000037_Node000008"><a xlink:title=" ">
<path fill="none" stroke="#63b8ff" d="M995.73,-219.69C1005.47,-206.86 1024.75,-182.62 1044.21,-165 1064.78,-146.38 1082.45,-153.63 1095.21,-129 1103.05,-113.87 1094.38,-95.57 1085.34,-82.51"/>
<polygon fill="#63b8ff" stroke="#63b8ff" points="1088.04,-80.28 1079.23,-74.41 1082.46,-84.5 1088.04,-80.28"/>
</a>
</g>
</g>
<!-- Node38 -->
<g id="Node000038" class="node">
<title>Node38</title>
<g id="a_Node000038"><a xlink:title=" ">
<polygon fill="#e0e0e0" stroke="#999999" points="1161.71,-184 1052.71,-184 1052.71,-165 1161.71,-165 1161.71,-184"/>
<text text-anchor="middle" x="1107.21" y="-172" font-family="Helvetica,sans-Serif" font-size="10.00">realm/bytearray.inl</text>
</a>
</g>
</g>
<!-- Node37&#45;&gt;Node38 -->
<g id="edge64_Node000037_Node000038" class="edge">
<title>Node37&#45;&gt;Node38</title>
<g id="a_edge64_Node000037_Node000038"><a xlink:title=" ">
<path fill="none" stroke="#63b8ff" d="M1008.17,-219.98C1027.24,-211.42 1056.87,-198.11 1078.76,-188.28"/>
<polygon fill="#63b8ff" stroke="#63b8ff" points="1080.22,-191.46 1087.91,-184.17 1077.35,-185.07 1080.22,-191.46"/>
</a>
</g>
</g>
</g>
</svg>
