<?xml version="1.0" encoding="UTF-8" standalone="no"?>
<!DOCTYPE svg PUBLIC "-//W3C//DTD SVG 1.1//EN"
 "http://www.w3.org/Graphics/SVG/1.1/DTD/svg11.dtd">
<!-- Generated by graphviz version 2.43.0 (0)
 -->
<!-- Title: /home/runner/work/realm/realm/realm&#45;src/src/realm/hip/hip_module.h Pages: 1 -->
<svg width="1566pt" height="379pt"
 viewBox="0.00 0.00 1565.50 379.00" xmlns="http://www.w3.org/2000/svg" xmlns:xlink="http://www.w3.org/1999/xlink">
<g id="graph0" class="graph" transform="scale(1 1) rotate(0) translate(4 375)">
<title>/home/runner/work/realm/realm/realm&#45;src/src/realm/hip/hip_module.h</title>
<!-- Node1 -->
<g id="Node000001" class="node">
<title>Node1</title>
<g id="a_Node000001"><a xlink:title=" ">
<polygon fill="#999999" stroke="#666666" points="1238.5,-371 1092.5,-371 1092.5,-330 1238.5,-330 1238.5,-371"/>
<text text-anchor="start" x="1100.5" y="-359" font-family="Helvetica,sans-Serif" font-size="10.00">/home/runner/work/realm</text>
<text text-anchor="start" x="1100.5" y="-348" font-family="Helvetica,sans-Serif" font-size="10.00">/realm/realm&#45;src/src/realm</text>
<text text-anchor="middle" x="1165.5" y="-337" font-family="Helvetica,sans-Serif" font-size="10.00">/hip/hip_module.h</text>
</a>
</g>
</g>
<!-- Node2 -->
<g id="Node000002" class="node">
<title>Node2</title>
<g id="a_Node000002"><a xlink:href="realm__config_8h.html" target="_top" xlink:title=" ">
<polygon fill="white" stroke="#666666" points="1147.5,-74 1027.5,-74 1027.5,-55 1147.5,-55 1147.5,-74"/>
<text text-anchor="middle" x="1087.5" y="-62" font-family="Helvetica,sans-Serif" font-size="10.00">realm/realm_config.h</text>
</a>
</g>
</g>
<!-- Node1&#45;&gt;Node2 -->
<g id="edge1_Node000001_Node000002" class="edge">
<title>Node1&#45;&gt;Node2</title>
<g id="a_edge1_Node000001_Node000002"><a xlink:title=" ">
<path fill="none" stroke="#63b8ff" d="M1238.72,-334.03C1291.51,-318.09 1353.5,-287.28 1353.5,-230.5 1353.5,-230.5 1353.5,-230.5 1353.5,-173.5 1353.5,-135.28 1328.66,-129.02 1295.5,-110 1253.62,-85.98 1200.28,-74.89 1158.1,-69.79"/>
<polygon fill="#63b8ff" stroke="#63b8ff" points="1158.23,-66.28 1147.9,-68.64 1157.45,-73.24 1158.23,-66.28"/>
</a>
</g>
</g>
<!-- Node5 -->
<g id="Node000005" class="node">
<title>Node5</title>
<g id="a_Node000005"><a xlink:href="module_8h.html" target="_top" xlink:title=" ">
<polygon fill="white" stroke="#666666" points="669.5,-184 575.5,-184 575.5,-165 669.5,-165 669.5,-184"/>
<text text-anchor="middle" x="622.5" y="-172" font-family="Helvetica,sans-Serif" font-size="10.00">realm/module.h</text>
</a>
</g>
</g>
<!-- Node1&#45;&gt;Node5 -->
<g id="edge4_Node000001_Node000005" class="edge">
<title>Node1&#45;&gt;Node5</title>
<g id="a_edge4_Node000001_Node000005"><a xlink:title=" ">
<path fill="none" stroke="#63b8ff" d="M1092.33,-341.91C1025.93,-333.86 925.81,-318.82 841.5,-294 781.71,-276.4 766.93,-269.36 712.5,-239 686.62,-224.56 659.09,-204.33 641.39,-190.62"/>
<polygon fill="#63b8ff" stroke="#63b8ff" points="643.12,-187.52 633.09,-184.1 638.8,-193.03 643.12,-187.52"/>
</a>
</g>
</g>
<!-- Node12 -->
<g id="Node000012" class="node">
<title>Node12</title>
<g id="a_Node000012"><a xlink:href="processor_8h.html" target="_top" xlink:title=" ">
<polygon fill="white" stroke="#666666" points="404.5,-294 300.5,-294 300.5,-275 404.5,-275 404.5,-294"/>
<text text-anchor="middle" x="352.5" y="-282" font-family="Helvetica,sans-Serif" font-size="10.00">realm/processor.h</text>
</a>
</g>
</g>
<!-- Node1&#45;&gt;Node12 -->
<g id="edge15_Node000001_Node000012" class="edge">
<title>Node1&#45;&gt;Node12</title>
<g id="a_edge15_Node000001_Node000012"><a xlink:title=" ">
<path fill="none" stroke="#63b8ff" d="M1092.28,-343.74C934.09,-331.28 562.82,-302.06 414.91,-290.41"/>
<polygon fill="#63b8ff" stroke="#63b8ff" points="414.9,-286.9 404.65,-289.61 414.35,-293.88 414.9,-286.9"/>
</a>
</g>
</g>
<!-- Node28 -->
<g id="Node000028" class="node">
<title>Node28</title>
<g id="a_Node000028"><a xlink:href="network_8h.html" target="_top" xlink:title=" ">
<polygon fill="white" stroke="#666666" points="947,-294 850,-294 850,-275 947,-275 947,-294"/>
<text text-anchor="middle" x="898.5" y="-282" font-family="Helvetica,sans-Serif" font-size="10.00">realm/network.h</text>
</a>
</g>
</g>
<!-- Node1&#45;&gt;Node28 -->
<g id="edge43_Node000001_Node000028" class="edge">
<title>Node1&#45;&gt;Node28</title>
<g id="a_edge43_Node000001_Node000028"><a xlink:title=" ">
<path fill="none" stroke="#63b8ff" d="M1092.19,-331.93C1044.8,-320.57 984.6,-306.14 944,-296.41"/>
<polygon fill="#63b8ff" stroke="#63b8ff" points="944.66,-292.97 934.12,-294.04 943.03,-299.77 944.66,-292.97"/>
</a>
</g>
</g>
<!-- Node31 -->
<g id="Node000031" class="node">
<title>Node31</title>
<g id="a_Node000031"><a xlink:href="atomics_8h.html" target="_top" xlink:title=" ">
<polygon fill="white" stroke="#666666" points="1477.5,-129 1381.5,-129 1381.5,-110 1477.5,-110 1477.5,-129"/>
<text text-anchor="middle" x="1429.5" y="-117" font-family="Helvetica,sans-Serif" font-size="10.00">realm/atomics.h</text>
</a>
</g>
</g>
<!-- Node1&#45;&gt;Node31 -->
<g id="edge66_Node000001_Node000031" class="edge">
<title>Node1&#45;&gt;Node31</title>
<g id="a_edge66_Node000001_Node000031"><a xlink:title=" ">
<path fill="none" stroke="#63b8ff" d="M1238.94,-345.77C1281.29,-339.96 1332.84,-326.15 1367.5,-294 1412.59,-252.18 1424.92,-175.31 1428.27,-139.63"/>
<polygon fill="#63b8ff" stroke="#63b8ff" points="1431.79,-139.46 1429.09,-129.22 1424.81,-138.91 1431.79,-139.46"/>
</a>
</g>
</g>
<!-- Node40 -->
<g id="Node000040" class="node">
<title>Node40</title>
<g id="a_Node000040"><a xlink:title=" ">
<polygon fill="#e0e0e0" stroke="#999999" points="1557.5,-294 1419.5,-294 1419.5,-275 1557.5,-275 1557.5,-294"/>
<text text-anchor="middle" x="1488.5" y="-282" font-family="Helvetica,sans-Serif" font-size="10.00">realm/hip/hip_module.inl</text>
</a>
</g>
</g>
<!-- Node1&#45;&gt;Node40 -->
<g id="edge67_Node000001_Node000040" class="edge">
<title>Node1&#45;&gt;Node40</title>
<g id="a_edge67_Node000001_Node000040"><a xlink:title=" ">
<path fill="none" stroke="#63b8ff" d="M1238.79,-334.98C1298.6,-323.13 1381.67,-306.67 1435.27,-296.05"/>
<polygon fill="#63b8ff" stroke="#63b8ff" points="1436.12,-299.45 1445.25,-294.07 1434.76,-292.58 1436.12,-299.45"/>
</a>
</g>
</g>
<!-- Node3 -->
<g id="Node000003" class="node">
<title>Node3</title>
<g id="a_Node000003"><a xlink:href="realm__defines_8h.html" target="_top" xlink:title=" ">
<polygon fill="white" stroke="#666666" points="1066,-19 971,-19 971,0 1066,0 1066,-19"/>
<text text-anchor="middle" x="1018.5" y="-7" font-family="Helvetica,sans-Serif" font-size="10.00">realm_defines.h</text>
</a>
</g>
</g>
<!-- Node2&#45;&gt;Node3 -->
<g id="edge2_Node000002_Node000003" class="edge">
<title>Node2&#45;&gt;Node3</title>
<g id="a_edge2_Node000002_Node000003"><a xlink:title=" ">
<path fill="none" stroke="#63b8ff" d="M1076.41,-54.98C1066.01,-47 1050.24,-34.88 1037.78,-25.31"/>
<polygon fill="#63b8ff" stroke="#63b8ff" points="1039.85,-22.49 1029.79,-19.17 1035.59,-28.04 1039.85,-22.49"/>
</a>
</g>
</g>
<!-- Node4 -->
<g id="Node000004" class="node">
<title>Node4</title>
<g id="a_Node000004"><a xlink:href="compiler__support_8h.html" target="_top" xlink:title=" ">
<polygon fill="white" stroke="#666666" points="1226.5,-19 1084.5,-19 1084.5,0 1226.5,0 1226.5,-19"/>
<text text-anchor="middle" x="1155.5" y="-7" font-family="Helvetica,sans-Serif" font-size="10.00">realm/compiler_support.h</text>
</a>
</g>
</g>
<!-- Node2&#45;&gt;Node4 -->
<g id="edge3_Node000002_Node000004" class="edge">
<title>Node2&#45;&gt;Node4</title>
<g id="a_edge3_Node000002_Node000004"><a xlink:title=" ">
<path fill="none" stroke="#63b8ff" d="M1098.43,-54.98C1108.58,-47.07 1123.92,-35.11 1136.15,-25.58"/>
<polygon fill="#63b8ff" stroke="#63b8ff" points="1138.64,-28.08 1144.38,-19.17 1134.34,-22.56 1138.64,-28.08"/>
</a>
</g>
</g>
<!-- Node5&#45;&gt;Node2 -->
<g id="edge5_Node000005_Node000002" class="edge">
<title>Node5&#45;&gt;Node2</title>
<g id="a_edge5_Node000005_Node000002"><a xlink:title=" ">
<path fill="none" stroke="#63b8ff" d="M669.58,-169.62C728.85,-164.03 833.45,-151.76 920.5,-129 970.81,-115.84 1026.85,-92.68 1059.54,-78.27"/>
<polygon fill="#63b8ff" stroke="#63b8ff" points="1061.19,-81.36 1068.9,-74.09 1058.34,-74.97 1061.19,-81.36"/>
</a>
</g>
</g>
<!-- Node6 -->
<g id="Node000006" class="node">
<title>Node6</title>
<g id="a_Node000006"><a xlink:href="module__config_8h.html" target="_top" xlink:title=" ">
<polygon fill="white" stroke="#666666" points="701.5,-129 573.5,-129 573.5,-110 701.5,-110 701.5,-129"/>
<text text-anchor="middle" x="637.5" y="-117" font-family="Helvetica,sans-Serif" font-size="10.00">realm/module_config.h</text>
</a>
</g>
</g>
<!-- Node5&#45;&gt;Node6 -->
<g id="edge6_Node000005_Node000006" class="edge">
<title>Node5&#45;&gt;Node6</title>
<g id="a_edge6_Node000005_Node000006"><a xlink:title=" ">
<path fill="none" stroke="#63b8ff" d="M624.98,-164.75C626.96,-157.72 629.82,-147.62 632.31,-138.84"/>
<polygon fill="#63b8ff" stroke="#63b8ff" points="635.71,-139.66 635.07,-129.09 628.98,-137.76 635.71,-139.66"/>
</a>
</g>
</g>
<!-- Node7 -->
<g id="Node000007" class="node">
<title>Node7</title>
<g id="a_Node000007"><a xlink:title=" ">
<polygon fill="#e0e0e0" stroke="#999999" points="555.5,-74 511.5,-74 511.5,-55 555.5,-55 555.5,-74"/>
<text text-anchor="middle" x="533.5" y="-62" font-family="Helvetica,sans-Serif" font-size="10.00">string</text>
</a>
</g>
</g>
<!-- Node5&#45;&gt;Node7 -->
<g id="edge13_Node000005_Node000007" class="edge">
<title>Node5&#45;&gt;Node7</title>
<g id="a_edge13_Node000005_Node000007"><a xlink:title=" ">
<path fill="none" stroke="#63b8ff" d="M607.61,-164.83C594.87,-156.82 576.71,-143.94 564.5,-129 553.35,-115.36 544.95,-97.04 539.73,-83.58"/>
<polygon fill="#63b8ff" stroke="#63b8ff" points="542.95,-82.21 536.23,-74.02 536.38,-84.61 542.95,-82.21"/>
</a>
</g>
</g>
<!-- Node9 -->
<g id="Node000009" class="node">
<title>Node9</title>
<g id="a_Node000009"><a xlink:title=" ">
<polygon fill="#e0e0e0" stroke="#999999" points="47,-74 0,-74 0,-55 47,-55 47,-74"/>
<text text-anchor="middle" x="23.5" y="-62" font-family="Helvetica,sans-Serif" font-size="10.00">vector</text>
</a>
</g>
</g>
<!-- Node5&#45;&gt;Node9 -->
<g id="edge12_Node000005_Node000009" class="edge">
<title>Node5&#45;&gt;Node9</title>
<g id="a_edge12_Node000005_Node000009"><a xlink:title=" ">
<path fill="none" stroke="#63b8ff" d="M575.23,-166.37C571.94,-165.89 568.67,-165.44 565.5,-165 438.14,-147.52 404.89,-152.5 278.5,-129 235.87,-121.07 115.95,-89.91 57.03,-74.38"/>
<polygon fill="#63b8ff" stroke="#63b8ff" points="57.67,-70.93 47.11,-71.77 55.88,-77.7 57.67,-70.93"/>
</a>
</g>
</g>
<!-- Node11 -->
<g id="Node000011" class="node">
<title>Node11</title>
<g id="a_Node000011"><a xlink:title=" ">
<polygon fill="#e0e0e0" stroke="#999999" points="493.5,-74 455.5,-74 455.5,-55 493.5,-55 493.5,-74"/>
<text text-anchor="middle" x="474.5" y="-62" font-family="Helvetica,sans-Serif" font-size="10.00">map</text>
</a>
</g>
</g>
<!-- Node5&#45;&gt;Node11 -->
<g id="edge14_Node000005_Node000011" class="edge">
<title>Node5&#45;&gt;Node11</title>
<g id="a_edge14_Node000005_Node000011"><a xlink:title=" ">
<path fill="none" stroke="#63b8ff" d="M606.96,-164.96C591.87,-156.46 568.52,-142.72 549.5,-129 528.68,-113.98 506.43,-94.68 491.61,-81.32"/>
<polygon fill="#63b8ff" stroke="#63b8ff" points="493.57,-78.37 483.82,-74.22 488.85,-83.54 493.57,-78.37"/>
</a>
</g>
</g>
<!-- Node6&#45;&gt;Node2 -->
<g id="edge7_Node000006_Node000002" class="edge">
<title>Node6&#45;&gt;Node2</title>
<g id="a_edge7_Node000006_Node000002"><a xlink:title=" ">
<path fill="none" stroke="#63b8ff" d="M701.97,-110.91C785.66,-101.05 931.18,-83.91 1017.49,-73.75"/>
<polygon fill="#63b8ff" stroke="#63b8ff" points="1017.94,-77.22 1027.46,-72.57 1017.12,-70.27 1017.94,-77.22"/>
</a>
</g>
</g>
<!-- Node6&#45;&gt;Node7 -->
<g id="edge8_Node000006_Node000007" class="edge">
<title>Node6&#45;&gt;Node7</title>
<g id="a_edge8_Node000006_Node000007"><a xlink:title=" ">
<path fill="none" stroke="#63b8ff" d="M620.79,-109.98C604.29,-101.57 578.8,-88.59 559.62,-78.81"/>
<polygon fill="#63b8ff" stroke="#63b8ff" points="561.01,-75.59 550.51,-74.17 557.83,-81.83 561.01,-75.59"/>
</a>
</g>
</g>
<!-- Node8 -->
<g id="Node000008" class="node">
<title>Node8</title>
<g id="a_Node000008"><a xlink:title=" ">
<polygon fill="#e0e0e0" stroke="#999999" points="667,-74 574,-74 574,-55 667,-55 667,-74"/>
<text text-anchor="middle" x="620.5" y="-62" font-family="Helvetica,sans-Serif" font-size="10.00">unordered_map</text>
</a>
</g>
</g>
<!-- Node6&#45;&gt;Node8 -->
<g id="edge9_Node000006_Node000008" class="edge">
<title>Node6&#45;&gt;Node8</title>
<g id="a_edge9_Node000006_Node000008"><a xlink:title=" ">
<path fill="none" stroke="#63b8ff" d="M634.69,-109.75C632.44,-102.72 629.2,-92.62 626.38,-83.84"/>
<polygon fill="#63b8ff" stroke="#63b8ff" points="629.64,-82.54 623.25,-74.09 622.98,-84.68 629.64,-82.54"/>
</a>
</g>
</g>
<!-- Node6&#45;&gt;Node9 -->
<g id="edge10_Node000006_Node000009" class="edge">
<title>Node6&#45;&gt;Node9</title>
<g id="a_edge10_Node000006_Node000009"><a xlink:title=" ">
<path fill="none" stroke="#63b8ff" d="M573.44,-117.26C467.76,-114.42 250.23,-105.18 57.23,-73.79"/>
<polygon fill="#63b8ff" stroke="#63b8ff" points="57.62,-70.31 47.19,-72.13 56.48,-77.21 57.62,-70.31"/>
</a>
</g>
</g>
<!-- Node10 -->
<g id="Node000010" class="node">
<title>Node10</title>
<g id="a_Node000010"><a xlink:title=" ">
<polygon fill="#e0e0e0" stroke="#999999" points="819.5,-74 685.5,-74 685.5,-55 819.5,-55 819.5,-74"/>
<text text-anchor="middle" x="752.5" y="-62" font-family="Helvetica,sans-Serif" font-size="10.00">realm/module_config.inl</text>
</a>
</g>
</g>
<!-- Node6&#45;&gt;Node10 -->
<g id="edge11_Node000006_Node000010" class="edge">
<title>Node6&#45;&gt;Node10</title>
<g id="a_edge11_Node000006_Node000010"><a xlink:title=" ">
<path fill="none" stroke="#63b8ff" d="M655.98,-109.98C674.48,-101.46 703.18,-88.23 724.48,-78.41"/>
<polygon fill="#63b8ff" stroke="#63b8ff" points="726.07,-81.53 733.69,-74.17 723.14,-75.18 726.07,-81.53"/>
</a>
</g>
</g>
<!-- Node12&#45;&gt;Node9 -->
<g id="edge40_Node000012_Node000009" class="edge">
<title>Node12&#45;&gt;Node9</title>
<g id="a_edge40_Node000012_Node000009"><a xlink:title=" ">
<path fill="none" stroke="#63b8ff" d="M300.39,-282.42C255.44,-279.28 190.38,-269.27 142.5,-239 82.34,-200.97 44.82,-120.32 30.33,-83.96"/>
<polygon fill="#63b8ff" stroke="#63b8ff" points="33.43,-82.27 26.57,-74.2 26.9,-84.79 33.43,-82.27"/>
</a>
</g>
</g>
<!-- Node12&#45;&gt;Node11 -->
<g id="edge41_Node000012_Node000011" class="edge">
<title>Node12&#45;&gt;Node11</title>
<g id="a_edge41_Node000012_Node000011"><a xlink:title=" ">
<path fill="none" stroke="#63b8ff" d="M357.25,-274.8C361.97,-265.95 369.25,-251.75 374.5,-239 397.5,-183.11 382.64,-159.37 417.5,-110 426.13,-97.78 439.07,-87.3 450.45,-79.58"/>
<polygon fill="#63b8ff" stroke="#63b8ff" points="452.6,-82.35 459.12,-74 448.81,-76.47 452.6,-82.35"/>
</a>
</g>
</g>
<!-- Node13 -->
<g id="Node000013" class="node">
<title>Node13</title>
<g id="a_Node000013"><a xlink:href="realm__c_8h.html" target="_top" xlink:title=" ">
<polygon fill="white" stroke="#666666" points="911.5,-129 815.5,-129 815.5,-110 911.5,-110 911.5,-129"/>
<text text-anchor="middle" x="863.5" y="-117" font-family="Helvetica,sans-Serif" font-size="10.00">realm/realm_c.h</text>
</a>
</g>
</g>
<!-- Node12&#45;&gt;Node13 -->
<g id="edge16_Node000012_Node000013" class="edge">
<title>Node12&#45;&gt;Node13</title>
<g id="a_edge16_Node000012_Node000013"><a xlink:title=" ">
<path fill="none" stroke="#63b8ff" d="M404.76,-282.89C531.26,-280.88 845.95,-272.54 878.5,-239 904.64,-212.07 886.32,-163.99 873.34,-138.13"/>
<polygon fill="#63b8ff" stroke="#63b8ff" points="876.34,-136.31 868.57,-129.1 870.15,-139.58 876.34,-136.31"/>
</a>
</g>
</g>
<!-- Node16 -->
<g id="Node000016" class="node">
<title>Node16</title>
<g id="a_Node000016"><a xlink:href="event_8h.html" target="_top" xlink:title=" ">
<polygon fill="white" stroke="#666666" points="237,-239 152,-239 152,-220 237,-220 237,-239"/>
<text text-anchor="middle" x="194.5" y="-227" font-family="Helvetica,sans-Serif" font-size="10.00">realm/event.h</text>
</a>
</g>
</g>
<!-- Node12&#45;&gt;Node16 -->
<g id="edge20_Node000012_Node000016" class="edge">
<title>Node12&#45;&gt;Node16</title>
<g id="a_edge20_Node000012_Node000016"><a xlink:title=" ">
<path fill="none" stroke="#63b8ff" d="M327.11,-274.98C300.7,-266.13 259.15,-252.19 229.61,-242.28"/>
<polygon fill="#63b8ff" stroke="#63b8ff" points="230.68,-238.94 220.08,-239.08 228.45,-245.58 230.68,-238.94"/>
</a>
</g>
</g>
<!-- Node27 -->
<g id="Node000027" class="node">
<title>Node27</title>
<g id="a_Node000027"><a xlink:title=" ">
<polygon fill="#e0e0e0" stroke="#999999" points="365.5,-239 255.5,-239 255.5,-220 365.5,-220 365.5,-239"/>
<text text-anchor="middle" x="310.5" y="-227" font-family="Helvetica,sans-Serif" font-size="10.00">realm/processor.inl</text>
</a>
</g>
</g>
<!-- Node12&#45;&gt;Node27 -->
<g id="edge42_Node000012_Node000027" class="edge">
<title>Node12&#45;&gt;Node27</title>
<g id="a_edge42_Node000012_Node000027"><a xlink:title=" ">
<path fill="none" stroke="#63b8ff" d="M345.56,-274.75C339.63,-267.26 330.93,-256.28 323.68,-247.13"/>
<polygon fill="#63b8ff" stroke="#63b8ff" points="326.26,-244.75 317.31,-239.09 320.77,-249.1 326.26,-244.75"/>
</a>
</g>
</g>
<!-- Node13&#45;&gt;Node2 -->
<g id="edge17_Node000013_Node000002" class="edge">
<title>Node13&#45;&gt;Node2</title>
<g id="a_edge17_Node000013_Node000002"><a xlink:title=" ">
<path fill="none" stroke="#63b8ff" d="M899.49,-109.98C937.99,-100.87 999.19,-86.4 1041.24,-76.45"/>
<polygon fill="#63b8ff" stroke="#63b8ff" points="1042.3,-79.79 1051.23,-74.08 1040.69,-72.98 1042.3,-79.79"/>
</a>
</g>
</g>
<!-- Node14 -->
<g id="Node000014" class="node">
<title>Node14</title>
<g id="a_Node000014"><a xlink:title=" ">
<polygon fill="#e0e0e0" stroke="#999999" points="893.5,-74 837.5,-74 837.5,-55 893.5,-55 893.5,-74"/>
<text text-anchor="middle" x="865.5" y="-62" font-family="Helvetica,sans-Serif" font-size="10.00">stddef.h</text>
</a>
</g>
</g>
<!-- Node13&#45;&gt;Node14 -->
<g id="edge18_Node000013_Node000014" class="edge">
<title>Node13&#45;&gt;Node14</title>
<g id="a_edge18_Node000013_Node000014"><a xlink:title=" ">
<path fill="none" stroke="#63b8ff" d="M863.83,-109.75C864.09,-102.8 864.47,-92.85 864.8,-84.13"/>
<polygon fill="#63b8ff" stroke="#63b8ff" points="868.3,-84.21 865.18,-74.09 861.3,-83.95 868.3,-84.21"/>
</a>
</g>
</g>
<!-- Node15 -->
<g id="Node000015" class="node">
<title>Node15</title>
<g id="a_Node000015"><a xlink:title=" ">
<polygon fill="#e0e0e0" stroke="#999999" points="966,-74 913,-74 913,-55 966,-55 966,-74"/>
<text text-anchor="middle" x="939.5" y="-62" font-family="Helvetica,sans-Serif" font-size="10.00">stdint.h</text>
</a>
</g>
</g>
<!-- Node13&#45;&gt;Node15 -->
<g id="edge19_Node000013_Node000015" class="edge">
<title>Node13&#45;&gt;Node15</title>
<g id="a_edge19_Node000013_Node000015"><a xlink:title=" ">
<path fill="none" stroke="#63b8ff" d="M875.71,-109.98C887.28,-101.92 904.88,-89.65 918.66,-80.03"/>
<polygon fill="#63b8ff" stroke="#63b8ff" points="920.87,-82.76 927.07,-74.17 916.86,-77.02 920.87,-82.76"/>
</a>
</g>
</g>
<!-- Node16&#45;&gt;Node9 -->
<g id="edge36_Node000016_Node000009" class="edge">
<title>Node16&#45;&gt;Node9</title>
<g id="a_edge36_Node000016_Node000009"><a xlink:title=" ">
<path fill="none" stroke="#63b8ff" d="M181.58,-219.92C169.07,-211.39 149.8,-197.64 134.5,-184 96.65,-150.25 57.18,-105.41 37.06,-81.74"/>
<polygon fill="#63b8ff" stroke="#63b8ff" points="39.68,-79.42 30.56,-74.04 34.33,-83.94 39.68,-79.42"/>
</a>
</g>
</g>
<!-- Node16&#45;&gt;Node13 -->
<g id="edge21_Node000016_Node000013" class="edge">
<title>Node16&#45;&gt;Node13</title>
<g id="a_edge21_Node000016_Node000013"><a xlink:title=" ">
<path fill="none" stroke="#63b8ff" d="M237.03,-221.27C240.23,-220.81 243.41,-220.38 246.5,-220 437.72,-196.44 489.94,-223.58 678.5,-184 735.31,-172.08 798.73,-147.77 834.61,-132.93"/>
<polygon fill="#63b8ff" stroke="#63b8ff" points="836.1,-136.1 843.97,-129.01 833.39,-129.64 836.1,-136.1"/>
</a>
</g>
</g>
<!-- Node17 -->
<g id="Node000017" class="node">
<title>Node17</title>
<g id="a_Node000017"><a xlink:href="utils_8h.html" target="_top" xlink:title=" ">
<polygon fill="white" stroke="#666666" points="365.5,-129 287.5,-129 287.5,-110 365.5,-110 365.5,-129"/>
<text text-anchor="middle" x="326.5" y="-117" font-family="Helvetica,sans-Serif" font-size="10.00">realm/utils.h</text>
</a>
</g>
</g>
<!-- Node16&#45;&gt;Node17 -->
<g id="edge22_Node000016_Node000017" class="edge">
<title>Node16&#45;&gt;Node17</title>
<g id="a_edge22_Node000016_Node000017"><a xlink:title=" ">
<path fill="none" stroke="#63b8ff" d="M234.73,-219.96C256.92,-213.42 283.54,-202.31 301.5,-184 313.55,-171.72 319.97,-152.95 323.27,-138.99"/>
<polygon fill="#63b8ff" stroke="#63b8ff" points="326.73,-139.55 325.3,-129.05 319.87,-138.15 326.73,-139.55"/>
</a>
</g>
</g>
<!-- Node23 -->
<g id="Node000023" class="node">
<title>Node23</title>
<g id="a_Node000023"><a xlink:href="memory_8h.html" target="_top" xlink:title=" ">
<polygon fill="white" stroke="#666666" points="557,-184 460,-184 460,-165 557,-165 557,-184"/>
<text text-anchor="middle" x="508.5" y="-172" font-family="Helvetica,sans-Serif" font-size="10.00">realm/memory.h</text>
</a>
</g>
</g>
<!-- Node16&#45;&gt;Node23 -->
<g id="edge32_Node000016_Node000023" class="edge">
<title>Node16&#45;&gt;Node23</title>
<g id="a_edge32_Node000016_Node000023"><a xlink:title=" ">
<path fill="none" stroke="#63b8ff" d="M237.17,-221.3C292.21,-212.01 388.19,-195.81 450,-185.37"/>
<polygon fill="#63b8ff" stroke="#63b8ff" points="450.71,-188.8 459.99,-183.69 449.55,-181.9 450.71,-188.8"/>
</a>
</g>
</g>
<!-- Node24 -->
<g id="Node000024" class="node">
<title>Node24</title>
<g id="a_Node000024"><a xlink:title=" ">
<polygon fill="#e0e0e0" stroke="#999999" points="181.5,-129 121.5,-129 121.5,-110 181.5,-110 181.5,-129"/>
<text text-anchor="middle" x="151.5" y="-117" font-family="Helvetica,sans-Serif" font-size="10.00">iostream</text>
</a>
</g>
</g>
<!-- Node16&#45;&gt;Node24 -->
<g id="edge38_Node000016_Node000024" class="edge">
<title>Node16&#45;&gt;Node24</title>
<g id="a_edge38_Node000016_Node000024"><a xlink:title=" ">
<path fill="none" stroke="#63b8ff" d="M177.92,-219.87C165.33,-212.3 148.96,-200.01 141.5,-184 134.8,-169.63 138.62,-151.66 143.34,-138.51"/>
<polygon fill="#63b8ff" stroke="#63b8ff" points="146.62,-139.73 147.14,-129.15 140.13,-137.1 146.62,-139.73"/>
</a>
</g>
</g>
<!-- Node25 -->
<g id="Node000025" class="node">
<title>Node25</title>
<g id="a_Node000025"><a xlink:title=" ">
<polygon fill="#e0e0e0" stroke="#999999" points="292.5,-184 260.5,-184 260.5,-165 292.5,-165 292.5,-184"/>
<text text-anchor="middle" x="276.5" y="-172" font-family="Helvetica,sans-Serif" font-size="10.00">set</text>
</a>
</g>
</g>
<!-- Node16&#45;&gt;Node25 -->
<g id="edge37_Node000016_Node000025" class="edge">
<title>Node16&#45;&gt;Node25</title>
<g id="a_edge37_Node000016_Node000025"><a xlink:title=" ">
<path fill="none" stroke="#63b8ff" d="M207.67,-219.98C220.27,-211.84 239.5,-199.41 254.44,-189.76"/>
<polygon fill="#63b8ff" stroke="#63b8ff" points="256.59,-192.54 263.09,-184.17 252.79,-186.66 256.59,-192.54"/>
</a>
</g>
</g>
<!-- Node26 -->
<g id="Node000026" class="node">
<title>Node26</title>
<g id="a_Node000026"><a xlink:title=" ">
<polygon fill="#e0e0e0" stroke="#999999" points="242,-184 151,-184 151,-165 242,-165 242,-184"/>
<text text-anchor="middle" x="196.5" y="-172" font-family="Helvetica,sans-Serif" font-size="10.00">realm/event.inl</text>
</a>
</g>
</g>
<!-- Node16&#45;&gt;Node26 -->
<g id="edge39_Node000016_Node000026" class="edge">
<title>Node16&#45;&gt;Node26</title>
<g id="a_edge39_Node000016_Node000026"><a xlink:title=" ">
<path fill="none" stroke="#63b8ff" d="M194.83,-219.75C195.09,-212.8 195.47,-202.85 195.8,-194.13"/>
<polygon fill="#63b8ff" stroke="#63b8ff" points="199.3,-194.21 196.18,-184.09 192.3,-193.95 199.3,-194.21"/>
</a>
</g>
</g>
<!-- Node17&#45;&gt;Node2 -->
<g id="edge23_Node000017_Node000002" class="edge">
<title>Node17&#45;&gt;Node2</title>
<g id="a_edge23_Node000017_Node000002"><a xlink:title=" ">
<path fill="none" stroke="#63b8ff" d="M365.65,-115.92C466.64,-109.23 744.3,-90.7 975.5,-74 989.04,-73.02 1003.49,-71.95 1017.37,-70.9"/>
<polygon fill="#63b8ff" stroke="#63b8ff" points="1017.64,-74.39 1027.35,-70.15 1017.11,-67.41 1017.64,-74.39"/>
</a>
</g>
</g>
<!-- Node17&#45;&gt;Node7 -->
<g id="edge24_Node000017_Node000007" class="edge">
<title>Node17&#45;&gt;Node7</title>
<g id="a_edge24_Node000017_Node000007"><a xlink:title=" ">
<path fill="none" stroke="#63b8ff" d="M361.28,-109.92C394.81,-101.61 447.22,-88.48 501.67,-74.18"/>
<polygon fill="#63b8ff" stroke="#63b8ff" points="502.72,-77.52 511.5,-71.59 500.94,-70.75 502.72,-77.52"/>
</a>
</g>
</g>
<!-- Node17&#45;&gt;Node9 -->
<g id="edge26_Node000017_Node000009" class="edge">
<title>Node17&#45;&gt;Node9</title>
<g id="a_edge26_Node000017_Node000009"><a xlink:title=" ">
<path fill="none" stroke="#63b8ff" d="M287.4,-113.17C236.61,-106 145.01,-92.24 57.1,-73.96"/>
<polygon fill="#63b8ff" stroke="#63b8ff" points="57.74,-70.51 47.23,-71.88 56.3,-77.36 57.74,-70.51"/>
</a>
</g>
</g>
<!-- Node17&#45;&gt;Node11 -->
<g id="edge27_Node000017_Node000011" class="edge">
<title>Node17&#45;&gt;Node11</title>
<g id="a_edge27_Node000017_Node000011"><a xlink:title=" ">
<path fill="none" stroke="#63b8ff" d="M350.28,-109.98C376.33,-100.65 418.11,-85.69 445.92,-75.73"/>
<polygon fill="#63b8ff" stroke="#63b8ff" points="447.25,-78.98 455.49,-72.31 444.89,-72.39 447.25,-78.98"/>
</a>
</g>
</g>
<!-- Node18 -->
<g id="Node000018" class="node">
<title>Node18</title>
<g id="a_Node000018"><a xlink:title=" ">
<polygon fill="#e0e0e0" stroke="#999999" points="225,-74 168,-74 168,-55 225,-55 225,-74"/>
<text text-anchor="middle" x="196.5" y="-62" font-family="Helvetica,sans-Serif" font-size="10.00">ostream</text>
</a>
</g>
</g>
<!-- Node17&#45;&gt;Node18 -->
<g id="edge25_Node000017_Node000018" class="edge">
<title>Node17&#45;&gt;Node18</title>
<g id="a_edge25_Node000017_Node000018"><a xlink:title=" ">
<path fill="none" stroke="#63b8ff" d="M305.61,-109.98C284.42,-101.34 251.37,-87.87 227.2,-78.02"/>
<polygon fill="#63b8ff" stroke="#63b8ff" points="228.35,-74.7 217.77,-74.17 225.71,-81.19 228.35,-74.7"/>
</a>
</g>
</g>
<!-- Node19 -->
<g id="Node000019" class="node">
<title>Node19</title>
<g id="a_Node000019"><a xlink:title=" ">
<polygon fill="#e0e0e0" stroke="#999999" points="295.5,-74 243.5,-74 243.5,-55 295.5,-55 295.5,-74"/>
<text text-anchor="middle" x="269.5" y="-62" font-family="Helvetica,sans-Serif" font-size="10.00">cassert</text>
</a>
</g>
</g>
<!-- Node17&#45;&gt;Node19 -->
<g id="edge28_Node000017_Node000019" class="edge">
<title>Node17&#45;&gt;Node19</title>
<g id="a_edge28_Node000017_Node000019"><a xlink:title=" ">
<path fill="none" stroke="#63b8ff" d="M317.34,-109.98C309,-102.23 296.47,-90.58 286.32,-81.14"/>
<polygon fill="#63b8ff" stroke="#63b8ff" points="288.53,-78.42 278.82,-74.17 283.76,-83.54 288.53,-78.42"/>
</a>
</g>
</g>
<!-- Node20 -->
<g id="Node000020" class="node">
<title>Node20</title>
<g id="a_Node000020"><a xlink:title=" ">
<polygon fill="#e0e0e0" stroke="#999999" points="363.5,-74 313.5,-74 313.5,-55 363.5,-55 363.5,-74"/>
<text text-anchor="middle" x="338.5" y="-62" font-family="Helvetica,sans-Serif" font-size="10.00">cstdint</text>
</a>
</g>
</g>
<!-- Node17&#45;&gt;Node20 -->
<g id="edge29_Node000017_Node000020" class="edge">
<title>Node17&#45;&gt;Node20</title>
<g id="a_edge29_Node000017_Node000020"><a xlink:title=" ">
<path fill="none" stroke="#63b8ff" d="M328.48,-109.75C330.07,-102.72 332.36,-92.62 334.35,-83.84"/>
<polygon fill="#63b8ff" stroke="#63b8ff" points="337.76,-84.62 336.56,-74.09 330.93,-83.07 337.76,-84.62"/>
</a>
</g>
</g>
<!-- Node21 -->
<g id="Node000021" class="node">
<title>Node21</title>
<g id="a_Node000021"><a xlink:title=" ">
<polygon fill="#e0e0e0" stroke="#999999" points="437.5,-74 381.5,-74 381.5,-55 437.5,-55 437.5,-74"/>
<text text-anchor="middle" x="409.5" y="-62" font-family="Helvetica,sans-Serif" font-size="10.00">sstream</text>
</a>
</g>
</g>
<!-- Node17&#45;&gt;Node21 -->
<g id="edge30_Node000017_Node000021" class="edge">
<title>Node17&#45;&gt;Node21</title>
<g id="a_edge30_Node000017_Node000021"><a xlink:title=" ">
<path fill="none" stroke="#63b8ff" d="M339.84,-109.98C352.59,-101.84 372.05,-89.41 387.17,-79.76"/>
<polygon fill="#63b8ff" stroke="#63b8ff" points="389.38,-82.5 395.92,-74.17 385.61,-76.6 389.38,-82.5"/>
</a>
</g>
</g>
<!-- Node22 -->
<g id="Node000022" class="node">
<title>Node22</title>
<g id="a_Node000022"><a xlink:title=" ">
<polygon fill="#e0e0e0" stroke="#999999" points="149.5,-74 65.5,-74 65.5,-55 149.5,-55 149.5,-74"/>
<text text-anchor="middle" x="107.5" y="-62" font-family="Helvetica,sans-Serif" font-size="10.00">realm/utils.inl</text>
</a>
</g>
</g>
<!-- Node17&#45;&gt;Node22 -->
<g id="edge31_Node000017_Node000022" class="edge">
<title>Node17&#45;&gt;Node22</title>
<g id="a_edge31_Node000017_Node000022"><a xlink:title=" ">
<path fill="none" stroke="#63b8ff" d="M291.31,-109.98C253.67,-100.87 193.84,-86.4 152.73,-76.45"/>
<polygon fill="#63b8ff" stroke="#63b8ff" points="153.5,-73.03 142.96,-74.08 151.86,-79.84 153.5,-73.03"/>
</a>
</g>
</g>
<!-- Node23&#45;&gt;Node13 -->
<g id="edge33_Node000023_Node000013" class="edge">
<title>Node23&#45;&gt;Node13</title>
<g id="a_edge33_Node000023_Node000013"><a xlink:title=" ">
<path fill="none" stroke="#63b8ff" d="M557.12,-166.24C621.78,-156.59 735.95,-139.54 805.18,-129.21"/>
<polygon fill="#63b8ff" stroke="#63b8ff" points="806.1,-132.61 815.47,-127.67 805.06,-125.69 806.1,-132.61"/>
</a>
</g>
</g>
<!-- Node23&#45;&gt;Node14 -->
<g id="edge34_Node000023_Node000014" class="edge">
<title>Node23&#45;&gt;Node14</title>
<g id="a_edge34_Node000023_Node000014"><a xlink:title=" ">
<path fill="none" stroke="#63b8ff" d="M513.37,-164.75C521.76,-150.58 540.4,-122.91 564.5,-110 666.03,-55.61 709.6,-93.1 827.18,-74.01"/>
<polygon fill="#63b8ff" stroke="#63b8ff" points="828.02,-77.42 837.27,-72.26 826.82,-70.52 828.02,-77.42"/>
</a>
</g>
</g>
<!-- Node23&#45;&gt;Node24 -->
<g id="edge35_Node000023_Node000024" class="edge">
<title>Node23&#45;&gt;Node24</title>
<g id="a_edge35_Node000023_Node000024"><a xlink:title=" ">
<path fill="none" stroke="#63b8ff" d="M459.98,-166.3C388.86,-155.74 257.62,-136.25 191.62,-126.46"/>
<polygon fill="#63b8ff" stroke="#63b8ff" points="192.01,-122.98 181.6,-124.97 190.98,-129.9 192.01,-122.98"/>
</a>
</g>
</g>
<!-- Node28&#45;&gt;Node2 -->
<g id="edge44_Node000028_Node000002" class="edge">
<title>Node28&#45;&gt;Node2</title>
<g id="a_edge44_Node000028_Node000002"><a xlink:title=" ">
<path fill="none" stroke="#63b8ff" d="M947.34,-279.15C1044.71,-269.32 1257.05,-241.58 1296.5,-184 1311.4,-162.25 1288.49,-122.07 1274.5,-110 1242.49,-82.38 1196.37,-71.2 1157.94,-66.95"/>
<polygon fill="#63b8ff" stroke="#63b8ff" points="1158.13,-63.45 1147.84,-65.97 1157.46,-70.42 1158.13,-63.45"/>
</a>
</g>
</g>
<!-- Node28&#45;&gt;Node5 -->
<g id="edge45_Node000028_Node000005" class="edge">
<title>Node28&#45;&gt;Node5</title>
<g id="a_edge45_Node000028_Node000005"><a xlink:title=" ">
<path fill="none" stroke="#63b8ff" d="M867.28,-274.95C838.43,-266.74 794.56,-253.49 757.5,-239 718.4,-223.71 674.69,-202.33 647.88,-188.69"/>
<polygon fill="#63b8ff" stroke="#63b8ff" points="649.31,-185.49 638.81,-184.05 646.12,-191.72 649.31,-185.49"/>
</a>
</g>
</g>
<!-- Node28&#45;&gt;Node11 -->
<g id="edge64_Node000028_Node000011" class="edge">
<title>Node28&#45;&gt;Node11</title>
<g id="a_edge64_Node000028_Node000011"><a xlink:title=" ">
<path fill="none" stroke="#63b8ff" d="M849.68,-280.35C743.76,-272.38 498.51,-247.33 450.5,-184 427.78,-154.02 448.63,-107.94 463.18,-83"/>
<polygon fill="#63b8ff" stroke="#63b8ff" points="466.29,-84.62 468.53,-74.27 460.32,-80.97 466.29,-84.62"/>
</a>
</g>
</g>
<!-- Node28&#45;&gt;Node23 -->
<g id="edge60_Node000028_Node000023" class="edge">
<title>Node28&#45;&gt;Node23</title>
<g id="a_edge60_Node000028_Node000023"><a xlink:title=" ">
<path fill="none" stroke="#63b8ff" d="M859.48,-274.96C821.71,-266.51 762.92,-252.86 712.5,-239 652.82,-222.59 584.27,-200.6 543.77,-187.27"/>
<polygon fill="#63b8ff" stroke="#63b8ff" points="544.69,-183.89 534.1,-184.07 542.5,-190.53 544.69,-183.89"/>
</a>
</g>
</g>
<!-- Node29 -->
<g id="Node000029" class="node">
<title>Node29</title>
<g id="a_Node000029"><a xlink:href="nodeset_8h.html" target="_top" xlink:title=" ">
<polygon fill="white" stroke="#666666" points="1145.5,-239 1049.5,-239 1049.5,-220 1145.5,-220 1145.5,-239"/>
<text text-anchor="middle" x="1097.5" y="-227" font-family="Helvetica,sans-Serif" font-size="10.00">realm/nodeset.h</text>
</a>
</g>
</g>
<!-- Node28&#45;&gt;Node29 -->
<g id="edge46_Node000028_Node000029" class="edge">
<title>Node28&#45;&gt;Node29</title>
<g id="a_edge46_Node000028_Node000029"><a xlink:title=" ">
<path fill="none" stroke="#63b8ff" d="M930.47,-274.98C964.32,-265.97 1017.9,-251.7 1055.21,-241.76"/>
<polygon fill="#63b8ff" stroke="#63b8ff" points="1056.51,-245.04 1065.28,-239.08 1054.71,-238.27 1056.51,-245.04"/>
</a>
</g>
</g>
<!-- Node37 -->
<g id="Node000037" class="node">
<title>Node37</title>
<g id="a_Node000037"><a xlink:href="bytearray_8h.html" target="_top" xlink:title=" ">
<polygon fill="white" stroke="#666666" points="870,-239 767,-239 767,-220 870,-220 870,-239"/>
<text text-anchor="middle" x="818.5" y="-227" font-family="Helvetica,sans-Serif" font-size="10.00">realm/bytearray.h</text>
</a>
</g>
</g>
<!-- Node28&#45;&gt;Node37 -->
<g id="edge61_Node000028_Node000037" class="edge">
<title>Node28&#45;&gt;Node37</title>
<g id="a_edge61_Node000028_Node000037"><a xlink:title=" ">
<path fill="none" stroke="#63b8ff" d="M885.65,-274.98C873.36,-266.84 854.59,-254.41 840.02,-244.76"/>
<polygon fill="#63b8ff" stroke="#63b8ff" points="841.86,-241.78 831.59,-239.17 837.99,-247.61 841.86,-241.78"/>
</a>
</g>
</g>
<!-- Node39 -->
<g id="Node000039" class="node">
<title>Node39</title>
<g id="a_Node000039"><a xlink:title=" ">
<polygon fill="#e0e0e0" stroke="#999999" points="1031,-239 928,-239 928,-220 1031,-220 1031,-239"/>
<text text-anchor="middle" x="979.5" y="-227" font-family="Helvetica,sans-Serif" font-size="10.00">realm/network.inl</text>
</a>
</g>
</g>
<!-- Node28&#45;&gt;Node39 -->
<g id="edge65_Node000028_Node000039" class="edge">
<title>Node28&#45;&gt;Node39</title>
<g id="a_edge65_Node000028_Node000039"><a xlink:title=" ">
<path fill="none" stroke="#63b8ff" d="M911.51,-274.98C923.96,-266.84 942.96,-254.41 957.71,-244.76"/>
<polygon fill="#63b8ff" stroke="#63b8ff" points="959.8,-247.57 966.25,-239.17 955.96,-241.72 959.8,-247.57"/>
</a>
</g>
</g>
<!-- Node29&#45;&gt;Node2 -->
<g id="edge47_Node000029_Node000002" class="edge">
<title>Node29&#45;&gt;Node2</title>
<g id="a_edge47_Node000029_Node000002"><a xlink:title=" ">
<path fill="none" stroke="#63b8ff" d="M1114.08,-219.87C1126.67,-212.3 1143.04,-200.01 1150.5,-184 1154.07,-176.35 1152.85,-173.11 1150.5,-165 1141.11,-132.62 1117.68,-100.67 1102.19,-82.04"/>
<polygon fill="#63b8ff" stroke="#63b8ff" points="1104.68,-79.56 1095.52,-74.23 1099.36,-84.11 1104.68,-79.56"/>
</a>
</g>
</g>
<!-- Node29&#45;&gt;Node15 -->
<g id="edge57_Node000029_Node000015" class="edge">
<title>Node29&#45;&gt;Node15</title>
<g id="a_edge57_Node000029_Node000015"><a xlink:title=" ">
<path fill="none" stroke="#63b8ff" d="M1055.62,-220C1019.85,-211.87 972.22,-198.71 959.5,-184 935.36,-156.08 935.03,-110.16 937.13,-84.45"/>
<polygon fill="#63b8ff" stroke="#63b8ff" points="940.65,-84.5 938.19,-74.2 933.68,-83.78 940.65,-84.5"/>
</a>
</g>
</g>
<!-- Node30 -->
<g id="Node000030" class="node">
<title>Node30</title>
<g id="a_Node000030"><a xlink:href="mutex_8h.html" target="_top" xlink:title=" ">
<polygon fill="white" stroke="#666666" points="1287,-184 1198,-184 1198,-165 1287,-165 1287,-184"/>
<text text-anchor="middle" x="1242.5" y="-172" font-family="Helvetica,sans-Serif" font-size="10.00">realm/mutex.h</text>
</a>
</g>
</g>
<!-- Node29&#45;&gt;Node30 -->
<g id="edge48_Node000029_Node000030" class="edge">
<title>Node29&#45;&gt;Node30</title>
<g id="a_edge48_Node000029_Node000030"><a xlink:title=" ">
<path fill="none" stroke="#63b8ff" d="M1120.8,-219.98C1144.75,-211.23 1182.28,-197.51 1209.33,-187.62"/>
<polygon fill="#63b8ff" stroke="#63b8ff" points="1210.59,-190.89 1218.78,-184.17 1208.19,-184.32 1210.59,-190.89"/>
</a>
</g>
</g>
<!-- Node35 -->
<g id="Node000035" class="node">
<title>Node35</title>
<g id="a_Node000035"><a xlink:title=" ">
<polygon fill="#e0e0e0" stroke="#999999" points="1021,-184 968,-184 968,-165 1021,-165 1021,-184"/>
<text text-anchor="middle" x="994.5" y="-172" font-family="Helvetica,sans-Serif" font-size="10.00">iterator</text>
</a>
</g>
</g>
<!-- Node29&#45;&gt;Node35 -->
<g id="edge58_Node000029_Node000035" class="edge">
<title>Node29&#45;&gt;Node35</title>
<g id="a_edge58_Node000029_Node000035"><a xlink:title=" ">
<path fill="none" stroke="#63b8ff" d="M1080.95,-219.98C1064.61,-211.57 1039.37,-198.59 1020.37,-188.81"/>
<polygon fill="#63b8ff" stroke="#63b8ff" points="1021.84,-185.63 1011.35,-184.17 1018.64,-191.86 1021.84,-185.63"/>
</a>
</g>
</g>
<!-- Node36 -->
<g id="Node000036" class="node">
<title>Node36</title>
<g id="a_Node000036"><a xlink:title=" ">
<polygon fill="#e0e0e0" stroke="#999999" points="1141.5,-184 1039.5,-184 1039.5,-165 1141.5,-165 1141.5,-184"/>
<text text-anchor="middle" x="1090.5" y="-172" font-family="Helvetica,sans-Serif" font-size="10.00">realm/nodeset.inl</text>
</a>
</g>
</g>
<!-- Node29&#45;&gt;Node36 -->
<g id="edge59_Node000029_Node000036" class="edge">
<title>Node29&#45;&gt;Node36</title>
<g id="a_edge59_Node000029_Node000036"><a xlink:title=" ">
<path fill="none" stroke="#63b8ff" d="M1096.34,-219.75C1095.43,-212.8 1094.11,-202.85 1092.96,-194.13"/>
<polygon fill="#63b8ff" stroke="#63b8ff" points="1096.41,-193.54 1091.63,-184.09 1089.47,-194.46 1096.41,-193.54"/>
</a>
</g>
</g>
<!-- Node30&#45;&gt;Node2 -->
<g id="edge49_Node000030_Node000002" class="edge">
<title>Node30&#45;&gt;Node2</title>
<g id="a_edge49_Node000030_Node000002"><a xlink:title=" ">
<path fill="none" stroke="#63b8ff" d="M1248.91,-164.75C1257.73,-151.56 1271.16,-126.37 1258.5,-110 1245.89,-93.69 1199.38,-82.24 1158.04,-75.04"/>
<polygon fill="#63b8ff" stroke="#63b8ff" points="1158.39,-71.55 1147.95,-73.35 1157.23,-78.45 1158.39,-71.55"/>
</a>
</g>
</g>
<!-- Node30&#45;&gt;Node15 -->
<g id="edge55_Node000030_Node000015" class="edge">
<title>Node30&#45;&gt;Node15</title>
<g id="a_edge55_Node000030_Node000015"><a xlink:title=" ">
<path fill="none" stroke="#63b8ff" d="M1218.47,-164.94C1164.77,-145.79 1034.92,-99.51 973.18,-77.51"/>
<polygon fill="#63b8ff" stroke="#63b8ff" points="974.13,-74.13 963.53,-74.07 971.78,-80.72 974.13,-74.13"/>
</a>
</g>
</g>
<!-- Node30&#45;&gt;Node17 -->
<g id="edge50_Node000030_Node000017" class="edge">
<title>Node30&#45;&gt;Node17</title>
<g id="a_edge50_Node000030_Node000017"><a xlink:title=" ">
<path fill="none" stroke="#63b8ff" d="M1197.61,-169.01C1182.63,-167.6 1165.86,-166.12 1150.5,-165 856.92,-143.52 503.78,-127.85 375.82,-122.51"/>
<polygon fill="#63b8ff" stroke="#63b8ff" points="375.7,-119 365.56,-122.08 375.41,-125.99 375.7,-119"/>
</a>
</g>
</g>
<!-- Node30&#45;&gt;Node31 -->
<g id="edge51_Node000030_Node000031" class="edge">
<title>Node30&#45;&gt;Node31</title>
<g id="a_edge51_Node000030_Node000031"><a xlink:title=" ">
<path fill="none" stroke="#63b8ff" d="M1272.54,-164.98C1304.21,-156.01 1354.27,-141.82 1389.31,-131.89"/>
<polygon fill="#63b8ff" stroke="#63b8ff" points="1390.55,-135.18 1399.22,-129.08 1388.64,-128.44 1390.55,-135.18"/>
</a>
</g>
</g>
<!-- Node34 -->
<g id="Node000034" class="node">
<title>Node34</title>
<g id="a_Node000034"><a xlink:title=" ">
<polygon fill="#e0e0e0" stroke="#999999" points="1249,-129 1154,-129 1154,-110 1249,-110 1249,-129"/>
<text text-anchor="middle" x="1201.5" y="-117" font-family="Helvetica,sans-Serif" font-size="10.00">realm/mutex.inl</text>
</a>
</g>
</g>
<!-- Node30&#45;&gt;Node34 -->
<g id="edge56_Node000030_Node000034" class="edge">
<title>Node30&#45;&gt;Node34</title>
<g id="a_edge56_Node000030_Node000034"><a xlink:title=" ">
<path fill="none" stroke="#63b8ff" d="M1235.73,-164.75C1229.94,-157.26 1221.44,-146.28 1214.36,-137.13"/>
<polygon fill="#63b8ff" stroke="#63b8ff" points="1217.03,-134.86 1208.14,-129.09 1211.49,-139.14 1217.03,-134.86"/>
</a>
</g>
</g>
<!-- Node31&#45;&gt;Node2 -->
<g id="edge52_Node000031_Node000002" class="edge">
<title>Node31&#45;&gt;Node2</title>
<g id="a_edge52_Node000031_Node000002"><a xlink:title=" ">
<path fill="none" stroke="#63b8ff" d="M1381.23,-111.02C1321.42,-101.75 1219.27,-85.92 1152.58,-75.59"/>
<polygon fill="#63b8ff" stroke="#63b8ff" points="1153.02,-72.11 1142.6,-74.04 1151.95,-79.03 1153.02,-72.11"/>
</a>
</g>
</g>
<!-- Node32 -->
<g id="Node000032" class="node">
<title>Node32</title>
<g id="a_Node000032"><a xlink:title=" ">
<polygon fill="#e0e0e0" stroke="#999999" points="1501.5,-74 1451.5,-74 1451.5,-55 1501.5,-55 1501.5,-74"/>
<text text-anchor="middle" x="1476.5" y="-62" font-family="Helvetica,sans-Serif" font-size="10.00">atomic</text>
</a>
</g>
</g>
<!-- Node31&#45;&gt;Node32 -->
<g id="edge53_Node000031_Node000032" class="edge">
<title>Node31&#45;&gt;Node32</title>
<g id="a_edge53_Node000031_Node000032"><a xlink:title=" ">
<path fill="none" stroke="#63b8ff" d="M1437.26,-109.75C1443.97,-102.18 1453.84,-91.05 1462.01,-81.84"/>
<polygon fill="#63b8ff" stroke="#63b8ff" points="1464.87,-83.89 1468.88,-74.09 1459.63,-79.25 1464.87,-83.89"/>
</a>
</g>
</g>
<!-- Node33 -->
<g id="Node000033" class="node">
<title>Node33</title>
<g id="a_Node000033"><a xlink:title=" ">
<polygon fill="#e0e0e0" stroke="#999999" points="1433.5,-74 1331.5,-74 1331.5,-55 1433.5,-55 1433.5,-74"/>
<text text-anchor="middle" x="1382.5" y="-62" font-family="Helvetica,sans-Serif" font-size="10.00">realm/atomics.inl</text>
</a>
</g>
</g>
<!-- Node31&#45;&gt;Node33 -->
<g id="edge54_Node000031_Node000033" class="edge">
<title>Node31&#45;&gt;Node33</title>
<g id="a_edge54_Node000031_Node000033"><a xlink:title=" ">
<path fill="none" stroke="#63b8ff" d="M1421.74,-109.75C1415.03,-102.18 1405.16,-91.05 1396.99,-81.84"/>
<polygon fill="#63b8ff" stroke="#63b8ff" points="1399.37,-79.25 1390.12,-74.09 1394.13,-83.89 1399.37,-79.25"/>
</a>
</g>
</g>
<!-- Node37&#45;&gt;Node14 -->
<g id="edge62_Node000037_Node000014" class="edge">
<title>Node37&#45;&gt;Node14</title>
<g id="a_edge62_Node000037_Node000014"><a xlink:title=" ">
<path fill="none" stroke="#63b8ff" d="M796.71,-219.87C781.86,-212.69 763.34,-200.91 754.5,-184 750.59,-176.52 751.38,-172.85 754.5,-165 770.32,-125.25 811.99,-95.35 839.53,-79.15"/>
<polygon fill="#63b8ff" stroke="#63b8ff" points="841.31,-82.17 848.28,-74.19 837.85,-76.08 841.31,-82.17"/>
</a>
</g>
</g>
<!-- Node38 -->
<g id="Node000038" class="node">
<title>Node38</title>
<g id="a_Node000038"><a xlink:title=" ">
<polygon fill="#e0e0e0" stroke="#999999" points="873,-184 764,-184 764,-165 873,-165 873,-184"/>
<text text-anchor="middle" x="818.5" y="-172" font-family="Helvetica,sans-Serif" font-size="10.00">realm/bytearray.inl</text>
</a>
</g>
</g>
<!-- Node37&#45;&gt;Node38 -->
<g id="edge63_Node000037_Node000038" class="edge">
<title>Node37&#45;&gt;Node38</title>
<g id="a_edge63_Node000037_Node000038"><a xlink:title=" ">
<path fill="none" stroke="#63b8ff" d="M818.5,-219.75C818.5,-212.8 818.5,-202.85 818.5,-194.13"/>
<polygon fill="#63b8ff" stroke="#63b8ff" points="822,-194.09 818.5,-184.09 815,-194.09 822,-194.09"/>
</a>
</g>
</g>
</g>
</svg>
