<?xml version="1.0" encoding="UTF-8" standalone="no"?>
<!DOCTYPE svg PUBLIC "-//W3C//DTD SVG 1.1//EN"
 "http://www.w3.org/Graphics/SVG/1.1/DTD/svg11.dtd">
<!-- Generated by graphviz version 2.43.0 (0)
 -->
<!-- Title: /home/runner/work/realm/realm/realm&#45;src/src/realm/indexspace.h Pages: 1 -->
<svg width="2480pt" height="511pt"
 viewBox="0.00 0.00 2480.00 511.00" xmlns="http://www.w3.org/2000/svg" xmlns:xlink="http://www.w3.org/1999/xlink">
<g id="graph0" class="graph" transform="scale(1 1) rotate(0) translate(4 507)">
<title>/home/runner/work/realm/realm/realm&#45;src/src/realm/indexspace.h</title>
<!-- Node1 -->
<g id="Node000001" class="node">
<title>Node1</title>
<g id="a_Node000001"><a xlink:title=" ">
<polygon fill="#999999" stroke="#666666" points="1339,-503 1193,-503 1193,-462 1339,-462 1339,-503"/>
<text text-anchor="start" x="1201" y="-491" font-family="Helvetica,sans-Serif" font-size="10.00">/home/runner/work/realm</text>
<text text-anchor="start" x="1201" y="-480" font-family="Helvetica,sans-Serif" font-size="10.00">/realm/realm&#45;src/src/realm</text>
<text text-anchor="middle" x="1266" y="-469" font-family="Helvetica,sans-Serif" font-size="10.00">/indexspace.h</text>
</a>
</g>
</g>
<!-- Node2 -->
<g id="Node000002" class="node">
<title>Node2</title>
<g id="a_Node000002"><a xlink:href="cuda__internal_8h.html" target="_top" xlink:title=" ">
<polygon fill="white" stroke="#666666" points="646,-118 500,-118 500,-77 646,-77 646,-118"/>
<text text-anchor="start" x="508" y="-106" font-family="Helvetica,sans-Serif" font-size="10.00">/home/runner/work/realm</text>
<text text-anchor="start" x="508" y="-95" font-family="Helvetica,sans-Serif" font-size="10.00">/realm/realm&#45;src/src/realm</text>
<text text-anchor="middle" x="573" y="-84" font-family="Helvetica,sans-Serif" font-size="10.00">/cuda/cuda_internal.h</text>
</a>
</g>
</g>
<!-- Node1&#45;&gt;Node2 -->
<g id="edge1_Node000001_Node000002" class="edge">
<title>Node1&#45;&gt;Node2</title>
<g id="a_edge1_Node000001_Node000002"><a xlink:title=" ">
<path fill="none" stroke="#63b8ff" d="M1182.48,-478.57C1010.96,-472 630.75,-454.4 579,-426 531.85,-400.13 506,-383.28 506,-329.5 506,-329.5 506,-329.5 506,-250.5 506,-199.46 538.03,-146.33 557.8,-118.41"/>
<polygon fill="#63b8ff" stroke="#63b8ff" points="1182.6,-482.07 1192.72,-478.96 1182.86,-475.08 1182.6,-482.07"/>
</a>
</g>
</g>
<!-- Node3 -->
<g id="Node000003" class="node">
<title>Node3</title>
<g id="a_Node000003"><a xlink:href="inst__helper_8h.html" target="_top" xlink:title=" ">
<polygon fill="white" stroke="#666666" points="1188,-426 1042,-426 1042,-385 1188,-385 1188,-426"/>
<text text-anchor="start" x="1050" y="-414" font-family="Helvetica,sans-Serif" font-size="10.00">/home/runner/work/realm</text>
<text text-anchor="start" x="1050" y="-403" font-family="Helvetica,sans-Serif" font-size="10.00">/realm/realm&#45;src/src/realm</text>
<text text-anchor="middle" x="1115" y="-392" font-family="Helvetica,sans-Serif" font-size="10.00">/deppart/inst_helper.h</text>
</a>
</g>
</g>
<!-- Node1&#45;&gt;Node3 -->
<g id="edge2_Node000001_Node000003" class="edge">
<title>Node1&#45;&gt;Node3</title>
<g id="a_edge2_Node000001_Node000003"><a xlink:title=" ">
<path fill="none" stroke="#63b8ff" d="M1217.58,-457.45C1197.15,-447.3 1173.68,-435.64 1154.34,-426.04"/>
<polygon fill="#63b8ff" stroke="#63b8ff" points="1216.21,-460.68 1226.72,-461.99 1219.32,-454.41 1216.21,-460.68"/>
</a>
</g>
</g>
<!-- Node4 -->
<g id="Node000004" class="node">
<title>Node4</title>
<g id="a_Node000004"><a xlink:href="partitions_8h.html" target="_top" xlink:title=" ">
<polygon fill="white" stroke="#666666" points="1046,-349 900,-349 900,-308 1046,-308 1046,-349"/>
<text text-anchor="start" x="908" y="-337" font-family="Helvetica,sans-Serif" font-size="10.00">/home/runner/work/realm</text>
<text text-anchor="start" x="908" y="-326" font-family="Helvetica,sans-Serif" font-size="10.00">/realm/realm&#45;src/src/realm</text>
<text text-anchor="middle" x="973" y="-315" font-family="Helvetica,sans-Serif" font-size="10.00">/deppart/partitions.h</text>
</a>
</g>
</g>
<!-- Node1&#45;&gt;Node4 -->
<g id="edge26_Node000001_Node000004" class="edge">
<title>Node1&#45;&gt;Node4</title>
<g id="a_edge26_Node000001_Node000004"><a xlink:title=" ">
<path fill="none" stroke="#63b8ff" d="M1182.82,-477.2C1135.2,-471.16 1076.47,-457.31 1033,-426 1006.11,-406.63 988.67,-371.12 979.86,-349"/>
<polygon fill="#63b8ff" stroke="#63b8ff" points="1182.46,-480.68 1192.8,-478.37 1183.28,-473.73 1182.46,-480.68"/>
</a>
</g>
</g>
<!-- Node11 -->
<g id="Node000011" class="node">
<title>Node11</title>
<g id="a_Node000011"><a xlink:href="hip__internal_8h.html" target="_top" xlink:title=" ">
<polygon fill="white" stroke="#666666" points="810,-118 664,-118 664,-77 810,-77 810,-118"/>
<text text-anchor="start" x="672" y="-106" font-family="Helvetica,sans-Serif" font-size="10.00">/home/runner/work/realm</text>
<text text-anchor="start" x="672" y="-95" font-family="Helvetica,sans-Serif" font-size="10.00">/realm/realm&#45;src/src/realm</text>
<text text-anchor="middle" x="737" y="-84" font-family="Helvetica,sans-Serif" font-size="10.00">/hip/hip_internal.h</text>
</a>
</g>
</g>
<!-- Node1&#45;&gt;Node11 -->
<g id="edge31_Node000001_Node000011" class="edge">
<title>Node1&#45;&gt;Node11</title>
<g id="a_edge31_Node000001_Node000011"><a xlink:title=" ">
<path fill="none" stroke="#63b8ff" d="M1182.58,-481.32C992.59,-478.68 544,-458.74 544,-329.5 544,-329.5 544,-329.5 544,-250.5 544,-182.47 618.92,-140.21 675.4,-118.01"/>
<polygon fill="#63b8ff" stroke="#63b8ff" points="1182.75,-484.83 1192.8,-481.45 1182.84,-477.83 1182.75,-484.83"/>
</a>
</g>
</g>
<!-- Node17 -->
<g id="Node000017" class="node">
<title>Node17</title>
<g id="a_Node000017"><a xlink:href="addrsplit__channel_8h.html" target="_top" xlink:title=" ">
<polygon fill="white" stroke="#666666" points="1865,-118 1709,-118 1709,-77 1865,-77 1865,-118"/>
<text text-anchor="start" x="1717" y="-106" font-family="Helvetica,sans-Serif" font-size="10.00">/home/runner/work/realm</text>
<text text-anchor="start" x="1717" y="-95" font-family="Helvetica,sans-Serif" font-size="10.00">/realm/realm&#45;src/src/realm</text>
<text text-anchor="middle" x="1787" y="-84" font-family="Helvetica,sans-Serif" font-size="10.00">/transfer/addrsplit_channel.h</text>
</a>
</g>
</g>
<!-- Node1&#45;&gt;Node17 -->
<g id="edge46_Node000001_Node000017" class="edge">
<title>Node1&#45;&gt;Node17</title>
<g id="a_edge46_Node000001_Node000017"><a xlink:title=" ">
<path fill="none" stroke="#63b8ff" d="M1349.12,-477.5C1588.08,-464.92 2260,-421.36 2260,-329.5 2260,-329.5 2260,-329.5 2260,-250.5 2260,-168.56 1999.45,-124.52 1865.11,-107.26"/>
<polygon fill="#63b8ff" stroke="#63b8ff" points="1348.9,-474.01 1339.09,-478.03 1349.26,-481 1348.9,-474.01"/>
</a>
</g>
</g>
<!-- Node21 -->
<g id="Node000021" class="node">
<title>Node21</title>
<g id="a_Node000021"><a xlink:href="transfer_8h.html" target="_top" xlink:title=" ">
<polygon fill="white" stroke="#666666" points="2257,-118 2111,-118 2111,-77 2257,-77 2257,-118"/>
<text text-anchor="start" x="2119" y="-106" font-family="Helvetica,sans-Serif" font-size="10.00">/home/runner/work/realm</text>
<text text-anchor="start" x="2119" y="-95" font-family="Helvetica,sans-Serif" font-size="10.00">/realm/realm&#45;src/src/realm</text>
<text text-anchor="middle" x="2184" y="-84" font-family="Helvetica,sans-Serif" font-size="10.00">/transfer/transfer.h</text>
</a>
</g>
</g>
<!-- Node1&#45;&gt;Node21 -->
<g id="edge47_Node000001_Node000021" class="edge">
<title>Node1&#45;&gt;Node21</title>
<g id="a_edge47_Node000001_Node000021"><a xlink:title=" ">
<path fill="none" stroke="#63b8ff" d="M1349.1,-479.07C1526.81,-473.34 1938.67,-457.07 2075,-426 2180.29,-402.01 2298,-437.49 2298,-329.5 2298,-329.5 2298,-329.5 2298,-250.5 2298,-193.43 2245.94,-144.08 2212.18,-118.08"/>
<polygon fill="#63b8ff" stroke="#63b8ff" points="1348.9,-475.57 1339.02,-479.39 1349.13,-482.57 1348.9,-475.57"/>
</a>
</g>
</g>
<!-- Node22 -->
<g id="Node000022" class="node">
<title>Node22</title>
<g id="a_Node000022"><a xlink:href="rectlist_8h.html" target="_top" xlink:title=" ">
<polygon fill="white" stroke="#666666" points="1210,-349 1064,-349 1064,-308 1210,-308 1210,-349"/>
<text text-anchor="start" x="1072" y="-337" font-family="Helvetica,sans-Serif" font-size="10.00">/home/runner/work/realm</text>
<text text-anchor="start" x="1072" y="-326" font-family="Helvetica,sans-Serif" font-size="10.00">/realm/realm&#45;src/src/realm</text>
<text text-anchor="middle" x="1137" y="-315" font-family="Helvetica,sans-Serif" font-size="10.00">/deppart/rectlist.h</text>
</a>
</g>
</g>
<!-- Node1&#45;&gt;Node22 -->
<g id="edge27_Node000001_Node000022" class="edge">
<title>Node1&#45;&gt;Node22</title>
<g id="a_edge27_Node000001_Node000022"><a xlink:title=" ">
<path fill="none" stroke="#63b8ff" d="M1247.97,-453.17C1234.81,-433.32 1216.02,-406.57 1197,-385 1185.74,-372.23 1171.85,-359.23 1160.28,-349.03"/>
<polygon fill="#63b8ff" stroke="#63b8ff" points="1245.2,-455.32 1253.61,-461.77 1251.05,-451.49 1245.2,-455.32"/>
</a>
</g>
</g>
<!-- Node23 -->
<g id="Node000023" class="node">
<title>Node23</title>
<g id="a_Node000023"><a xlink:href="sparsity__impl_8h.html" target="_top" xlink:title=" ">
<polygon fill="white" stroke="#666666" points="986,-426 840,-426 840,-385 986,-385 986,-426"/>
<text text-anchor="start" x="848" y="-414" font-family="Helvetica,sans-Serif" font-size="10.00">/home/runner/work/realm</text>
<text text-anchor="start" x="848" y="-403" font-family="Helvetica,sans-Serif" font-size="10.00">/realm/realm&#45;src/src/realm</text>
<text text-anchor="middle" x="913" y="-392" font-family="Helvetica,sans-Serif" font-size="10.00">/deppart/sparsity_impl.h</text>
</a>
</g>
</g>
<!-- Node1&#45;&gt;Node23 -->
<g id="edge29_Node000001_Node000023" class="edge">
<title>Node1&#45;&gt;Node23</title>
<g id="a_edge29_Node000001_Node000023"><a xlink:title=" ">
<path fill="none" stroke="#63b8ff" d="M1182.9,-464.49C1130.41,-453.67 1061.18,-439.24 1000,-426 995.46,-425.02 990.79,-424 986.08,-422.96"/>
<polygon fill="#63b8ff" stroke="#63b8ff" points="1182.33,-467.95 1192.83,-466.54 1183.75,-461.09 1182.33,-467.95"/>
</a>
</g>
</g>
<!-- Node24 -->
<g id="Node000024" class="node">
<title>Node24</title>
<g id="a_Node000024"><a xlink:href="idx__impl_8h.html" target="_top" xlink:title=" ">
<polygon fill="white" stroke="#666666" points="2472,-426 2326,-426 2326,-385 2472,-385 2472,-426"/>
<text text-anchor="start" x="2334" y="-414" font-family="Helvetica,sans-Serif" font-size="10.00">/home/runner/work/realm</text>
<text text-anchor="start" x="2334" y="-403" font-family="Helvetica,sans-Serif" font-size="10.00">/realm/realm&#45;src/src/realm</text>
<text text-anchor="middle" x="2399" y="-392" font-family="Helvetica,sans-Serif" font-size="10.00">/idx_impl.h</text>
</a>
</g>
</g>
<!-- Node1&#45;&gt;Node24 -->
<g id="edge32_Node000001_Node000024" class="edge">
<title>Node1&#45;&gt;Node24</title>
<g id="a_edge32_Node000001_Node000024"><a xlink:title=" ">
<path fill="none" stroke="#63b8ff" d="M1349.38,-481.8C1527.18,-481.41 1956.34,-474.94 2312,-426 2316.45,-425.39 2321,-424.66 2325.59,-423.86"/>
<polygon fill="#63b8ff" stroke="#63b8ff" points="1349.31,-478.3 1339.32,-481.82 1349.32,-485.3 1349.31,-478.3"/>
</a>
</g>
</g>
<!-- Node25 -->
<g id="Node000025" class="node">
<title>Node25</title>
<g id="a_Node000025"><a xlink:href="inst__layout_8h.html" target="_top" xlink:title=" ">
<polygon fill="white" stroke="#666666" points="1822,-349 1676,-349 1676,-308 1822,-308 1822,-349"/>
<text text-anchor="start" x="1684" y="-337" font-family="Helvetica,sans-Serif" font-size="10.00">/home/runner/work/realm</text>
<text text-anchor="start" x="1684" y="-326" font-family="Helvetica,sans-Serif" font-size="10.00">/realm/realm&#45;src/src/realm</text>
<text text-anchor="middle" x="1749" y="-315" font-family="Helvetica,sans-Serif" font-size="10.00">/inst_layout.h</text>
</a>
</g>
</g>
<!-- Node1&#45;&gt;Node25 -->
<g id="edge33_Node000001_Node000025" class="edge">
<title>Node1&#45;&gt;Node25</title>
<g id="a_edge33_Node000001_Node000025"><a xlink:title=" ">
<path fill="none" stroke="#63b8ff" d="M1337.93,-458.86C1432.52,-429.1 1597.17,-377.28 1686.7,-349.11"/>
<polygon fill="#63b8ff" stroke="#63b8ff" points="1336.64,-455.6 1328.16,-461.94 1338.74,-462.28 1336.64,-455.6"/>
</a>
</g>
</g>
<!-- Node31 -->
<g id="Node000031" class="node">
<title>Node31</title>
<g id="a_Node000031"><a xlink:href="subgraph_8h.html" target="_top" xlink:title=" ">
<polygon fill="white" stroke="#666666" points="1390,-426 1244,-426 1244,-385 1390,-385 1390,-426"/>
<text text-anchor="start" x="1252" y="-414" font-family="Helvetica,sans-Serif" font-size="10.00">/home/runner/work/realm</text>
<text text-anchor="start" x="1252" y="-403" font-family="Helvetica,sans-Serif" font-size="10.00">/realm/realm&#45;src/src/realm</text>
<text text-anchor="middle" x="1317" y="-392" font-family="Helvetica,sans-Serif" font-size="10.00">/subgraph.h</text>
</a>
</g>
</g>
<!-- Node1&#45;&gt;Node31 -->
<g id="edge41_Node000001_Node000031" class="edge">
<title>Node1&#45;&gt;Node31</title>
<g id="a_edge41_Node000001_Node000031"><a xlink:title=" ">
<path fill="none" stroke="#63b8ff" d="M1285.11,-453.39C1291.3,-444.3 1298.02,-434.41 1303.69,-426.07"/>
<polygon fill="#63b8ff" stroke="#63b8ff" points="1282.13,-451.56 1279.4,-461.79 1287.92,-455.49 1282.13,-451.56"/>
</a>
</g>
</g>
<!-- Node33 -->
<g id="Node000033" class="node">
<title>Node33</title>
<g id="a_Node000033"><a xlink:href="address__list_8h.html" target="_top" xlink:title=" ">
<polygon fill="white" stroke="#666666" points="1538,-349 1392,-349 1392,-308 1538,-308 1538,-349"/>
<text text-anchor="start" x="1400" y="-337" font-family="Helvetica,sans-Serif" font-size="10.00">/home/runner/work/realm</text>
<text text-anchor="start" x="1400" y="-326" font-family="Helvetica,sans-Serif" font-size="10.00">/realm/realm&#45;src/src/realm</text>
<text text-anchor="middle" x="1465" y="-315" font-family="Helvetica,sans-Serif" font-size="10.00">/transfer/address_list.h</text>
</a>
</g>
</g>
<!-- Node1&#45;&gt;Node33 -->
<g id="edge44_Node000001_Node000033" class="edge">
<title>Node1&#45;&gt;Node33</title>
<g id="a_edge44_Node000001_Node000033"><a xlink:title=" ">
<path fill="none" stroke="#63b8ff" d="M1342.91,-458.16C1362.47,-449.96 1382.57,-439.37 1399,-426 1425.13,-404.73 1445.13,-370.47 1455.95,-349.01"/>
<polygon fill="#63b8ff" stroke="#63b8ff" points="1341.35,-455.02 1333.38,-461.99 1343.96,-461.51 1341.35,-455.02"/>
</a>
</g>
</g>
<!-- Node3&#45;&gt;Node4 -->
<g id="edge3_Node000003_Node000004" class="edge">
<title>Node3&#45;&gt;Node4</title>
<g id="a_edge3_Node000003_Node000004"><a xlink:title=" ">
<path fill="none" stroke="#63b8ff" d="M1068.98,-380.19C1049.97,-370.15 1028.23,-358.67 1010.25,-349.17"/>
<polygon fill="#63b8ff" stroke="#63b8ff" points="1067.58,-383.41 1078.06,-384.99 1070.85,-377.23 1067.58,-383.41"/>
</a>
</g>
</g>
<!-- Node5 -->
<g id="Node000005" class="node">
<title>Node5</title>
<g id="a_Node000005"><a xlink:href="byfield_8h.html" target="_top" xlink:title=" ">
<polygon fill="white" stroke="#666666" points="718,-272 572,-272 572,-231 718,-231 718,-272"/>
<text text-anchor="start" x="580" y="-260" font-family="Helvetica,sans-Serif" font-size="10.00">/home/runner/work/realm</text>
<text text-anchor="start" x="580" y="-249" font-family="Helvetica,sans-Serif" font-size="10.00">/realm/realm&#45;src/src/realm</text>
<text text-anchor="middle" x="645" y="-238" font-family="Helvetica,sans-Serif" font-size="10.00">/deppart/byfield.h</text>
</a>
</g>
</g>
<!-- Node4&#45;&gt;Node5 -->
<g id="edge4_Node000004_Node000005" class="edge">
<title>Node4&#45;&gt;Node5</title>
<g id="a_edge4_Node000004_Node000005"><a xlink:title=" ">
<path fill="none" stroke="#63b8ff" d="M889.79,-308.98C842.1,-298.3 781.15,-284.55 727,-272 724.15,-271.34 721.24,-270.66 718.31,-269.98"/>
<polygon fill="#63b8ff" stroke="#63b8ff" points="889.23,-312.44 899.75,-311.21 890.76,-305.61 889.23,-312.44"/>
</a>
</g>
</g>
<!-- Node6 -->
<g id="Node000006" class="node">
<title>Node6</title>
<g id="a_Node000006"><a xlink:href="image_8h.html" target="_top" xlink:title=" ">
<polygon fill="white" stroke="#666666" points="1210,-272 1064,-272 1064,-231 1210,-231 1210,-272"/>
<text text-anchor="start" x="1072" y="-260" font-family="Helvetica,sans-Serif" font-size="10.00">/home/runner/work/realm</text>
<text text-anchor="start" x="1072" y="-249" font-family="Helvetica,sans-Serif" font-size="10.00">/realm/realm&#45;src/src/realm</text>
<text text-anchor="middle" x="1137" y="-238" font-family="Helvetica,sans-Serif" font-size="10.00">/deppart/image.h</text>
</a>
</g>
</g>
<!-- Node4&#45;&gt;Node6 -->
<g id="edge5_Node000004_Node000006" class="edge">
<title>Node4&#45;&gt;Node6</title>
<g id="a_edge5_Node000004_Node000006"><a xlink:title=" ">
<path fill="none" stroke="#63b8ff" d="M1024.99,-303.72C1047.32,-293.51 1073.08,-281.73 1094.27,-272.04"/>
<polygon fill="#63b8ff" stroke="#63b8ff" points="1023.3,-300.65 1015.66,-307.99 1026.21,-307.01 1023.3,-300.65"/>
</a>
</g>
</g>
<!-- Node7 -->
<g id="Node000007" class="node">
<title>Node7</title>
<g id="a_Node000007"><a xlink:href="preimage_8h.html" target="_top" xlink:title=" ">
<polygon fill="white" stroke="#666666" points="882,-272 736,-272 736,-231 882,-231 882,-272"/>
<text text-anchor="start" x="744" y="-260" font-family="Helvetica,sans-Serif" font-size="10.00">/home/runner/work/realm</text>
<text text-anchor="start" x="744" y="-249" font-family="Helvetica,sans-Serif" font-size="10.00">/realm/realm&#45;src/src/realm</text>
<text text-anchor="middle" x="809" y="-238" font-family="Helvetica,sans-Serif" font-size="10.00">/deppart/preimage.h</text>
</a>
</g>
</g>
<!-- Node4&#45;&gt;Node7 -->
<g id="edge6_Node000004_Node000007" class="edge">
<title>Node4&#45;&gt;Node7</title>
<g id="a_edge6_Node000004_Node000007"><a xlink:title=" ">
<path fill="none" stroke="#63b8ff" d="M921.01,-303.72C898.68,-293.51 872.92,-281.73 851.73,-272.04"/>
<polygon fill="#63b8ff" stroke="#63b8ff" points="919.79,-307.01 930.34,-307.99 922.7,-300.65 919.79,-307.01"/>
</a>
</g>
</g>
<!-- Node8 -->
<g id="Node000008" class="node">
<title>Node8</title>
<g id="a_Node000008"><a xlink:href="setops_8h.html" target="_top" xlink:title=" ">
<polygon fill="white" stroke="#666666" points="1046,-272 900,-272 900,-231 1046,-231 1046,-272"/>
<text text-anchor="start" x="908" y="-260" font-family="Helvetica,sans-Serif" font-size="10.00">/home/runner/work/realm</text>
<text text-anchor="start" x="908" y="-249" font-family="Helvetica,sans-Serif" font-size="10.00">/realm/realm&#45;src/src/realm</text>
<text text-anchor="middle" x="973" y="-238" font-family="Helvetica,sans-Serif" font-size="10.00">/deppart/setops.h</text>
</a>
</g>
</g>
<!-- Node4&#45;&gt;Node8 -->
<g id="edge7_Node000004_Node000008" class="edge">
<title>Node4&#45;&gt;Node8</title>
<g id="a_edge7_Node000004_Node000008"><a xlink:title=" ">
<path fill="none" stroke="#63b8ff" d="M973,-297.69C973,-289.08 973,-279.9 973,-272.07"/>
<polygon fill="#63b8ff" stroke="#63b8ff" points="969.5,-297.79 973,-307.79 976.5,-297.79 969.5,-297.79"/>
</a>
</g>
</g>
<!-- Node9 -->
<g id="Node000009" class="node">
<title>Node9</title>
<g id="a_Node000009"><a xlink:href="runtime__impl_8h.html" target="_top" xlink:title=" ">
<polygon fill="white" stroke="#666666" points="1374,-272 1228,-272 1228,-231 1374,-231 1374,-272"/>
<text text-anchor="start" x="1236" y="-260" font-family="Helvetica,sans-Serif" font-size="10.00">/home/runner/work/realm</text>
<text text-anchor="start" x="1236" y="-249" font-family="Helvetica,sans-Serif" font-size="10.00">/realm/realm&#45;src/src/realm</text>
<text text-anchor="middle" x="1301" y="-238" font-family="Helvetica,sans-Serif" font-size="10.00">/runtime_impl.h</text>
</a>
</g>
</g>
<!-- Node4&#45;&gt;Node9 -->
<g id="edge8_Node000004_Node000009" class="edge">
<title>Node4&#45;&gt;Node9</title>
<g id="a_edge8_Node000004_Node000009"><a xlink:title=" ">
<path fill="none" stroke="#63b8ff" d="M1056.46,-307.69C1129.44,-291.11 1149.38,-287.92 1219,-272 1221.85,-271.35 1224.76,-270.68 1227.7,-270"/>
<polygon fill="#63b8ff" stroke="#63b8ff" points="1055.27,-304.37 1046.3,-310 1056.83,-311.19 1055.27,-304.37"/>
</a>
</g>
</g>
<!-- Node10 -->
<g id="Node000010" class="node">
<title>Node10</title>
<g id="a_Node000010"><a xlink:href="proc__impl_8h.html" target="_top" xlink:title=" ">
<polygon fill="white" stroke="#666666" points="478,-195 332,-195 332,-154 478,-154 478,-195"/>
<text text-anchor="start" x="340" y="-183" font-family="Helvetica,sans-Serif" font-size="10.00">/home/runner/work/realm</text>
<text text-anchor="start" x="340" y="-172" font-family="Helvetica,sans-Serif" font-size="10.00">/realm/realm&#45;src/src/realm</text>
<text text-anchor="middle" x="405" y="-161" font-family="Helvetica,sans-Serif" font-size="10.00">/proc_impl.h</text>
</a>
</g>
</g>
<!-- Node9&#45;&gt;Node10 -->
<g id="edge9_Node000009_Node000010" class="edge">
<title>Node9&#45;&gt;Node10</title>
<g id="a_edge9_Node000009_Node000010"><a xlink:title=" ">
<path fill="none" stroke="#63b8ff" d="M1217.53,-230.91C939.9,-189.55 619.46,-179.14 478.13,-176.44"/>
<polygon fill="#63b8ff" stroke="#63b8ff" points="1217.39,-234.43 1227.8,-232.46 1218.43,-227.51 1217.39,-234.43"/>
</a>
</g>
</g>
<!-- Node15 -->
<g id="Node000015" class="node">
<title>Node15</title>
<g id="a_Node000015"><a xlink:href="channel_8h.html" target="_top" xlink:title=" ">
<polygon fill="white" stroke="#666666" points="1412,-195 1266,-195 1266,-154 1412,-154 1412,-195"/>
<text text-anchor="start" x="1274" y="-183" font-family="Helvetica,sans-Serif" font-size="10.00">/home/runner/work/realm</text>
<text text-anchor="start" x="1274" y="-172" font-family="Helvetica,sans-Serif" font-size="10.00">/realm/realm&#45;src/src/realm</text>
<text text-anchor="middle" x="1339" y="-161" font-family="Helvetica,sans-Serif" font-size="10.00">/transfer/channel.h</text>
</a>
</g>
</g>
<!-- Node9&#45;&gt;Node15 -->
<g id="edge15_Node000009_Node000015" class="edge">
<title>Node9&#45;&gt;Node15</title>
<g id="a_edge15_Node000009_Node000015"><a xlink:title=" ">
<path fill="none" stroke="#63b8ff" d="M1315.53,-221.83C1320.06,-212.89 1324.95,-203.24 1329.08,-195.07"/>
<polygon fill="#63b8ff" stroke="#63b8ff" points="1312.38,-220.29 1310.98,-230.79 1318.63,-223.46 1312.38,-220.29"/>
</a>
</g>
</g>
<!-- Node19 -->
<g id="Node000019" class="node">
<title>Node19</title>
<g id="a_Node000019"><a xlink:href="lowlevel__dma_8h.html" target="_top" xlink:title=" ">
<polygon fill="white" stroke="#666666" points="1576,-118 1430,-118 1430,-77 1576,-77 1576,-118"/>
<text text-anchor="start" x="1438" y="-106" font-family="Helvetica,sans-Serif" font-size="10.00">/home/runner/work/realm</text>
<text text-anchor="start" x="1438" y="-95" font-family="Helvetica,sans-Serif" font-size="10.00">/realm/realm&#45;src/src/realm</text>
<text text-anchor="middle" x="1503" y="-84" font-family="Helvetica,sans-Serif" font-size="10.00">/transfer/lowlevel_dma.h</text>
</a>
</g>
</g>
<!-- Node9&#45;&gt;Node19 -->
<g id="edge25_Node000009_Node000019" class="edge">
<title>Node9&#45;&gt;Node19</title>
<g id="a_edge25_Node000009_Node000019"><a xlink:title=" ">
<path fill="none" stroke="#63b8ff" d="M1365.24,-226.95C1384.17,-218.43 1404.27,-207.71 1421,-195 1449.88,-173.05 1475.6,-139.31 1490.23,-118.09"/>
<polygon fill="#63b8ff" stroke="#63b8ff" points="1363.83,-223.75 1356.06,-230.96 1366.63,-230.16 1363.83,-223.75"/>
</a>
</g>
</g>
<!-- Node10&#45;&gt;Node2 -->
<g id="edge10_Node000010_Node000002" class="edge">
<title>Node10&#45;&gt;Node2</title>
<g id="a_edge10_Node000010_Node000002"><a xlink:title=" ">
<path fill="none" stroke="#63b8ff" d="M457.96,-149.86C480.89,-139.62 507.43,-127.77 529.23,-118.04"/>
<polygon fill="#63b8ff" stroke="#63b8ff" points="456.41,-146.72 448.7,-153.99 459.26,-153.11 456.41,-146.72"/>
</a>
</g>
</g>
<!-- Node10&#45;&gt;Node11 -->
<g id="edge11_Node000010_Node000011" class="edge">
<title>Node10&#45;&gt;Node11</title>
<g id="a_edge11_Node000010_Node000011"><a xlink:title=" ">
<path fill="none" stroke="#63b8ff" d="M487.94,-155.41C536.64,-144.71 599.36,-130.79 655,-118 657.85,-117.34 660.76,-116.67 663.7,-115.99"/>
<polygon fill="#63b8ff" stroke="#63b8ff" points="487.1,-152.01 478.09,-157.58 488.6,-158.85 487.1,-152.01"/>
</a>
</g>
</g>
<!-- Node12 -->
<g id="Node000012" class="node">
<title>Node12</title>
<g id="a_Node000012"><a xlink:href="kokkos__interop_8h.html" target="_top" xlink:title=" ">
<polygon fill="white" stroke="#666666" points="310,-118 164,-118 164,-77 310,-77 310,-118"/>
<text text-anchor="start" x="172" y="-106" font-family="Helvetica,sans-Serif" font-size="10.00">/home/runner/work/realm</text>
<text text-anchor="start" x="172" y="-95" font-family="Helvetica,sans-Serif" font-size="10.00">/realm/realm&#45;src/src/realm</text>
<text text-anchor="middle" x="237" y="-84" font-family="Helvetica,sans-Serif" font-size="10.00">/kokkos_interop.h</text>
</a>
</g>
</g>
<!-- Node10&#45;&gt;Node12 -->
<g id="edge12_Node000010_Node000012" class="edge">
<title>Node10&#45;&gt;Node12</title>
<g id="a_edge12_Node000010_Node000012"><a xlink:title=" ">
<path fill="none" stroke="#63b8ff" d="M352.04,-149.86C329.11,-139.62 302.57,-127.77 280.77,-118.04"/>
<polygon fill="#63b8ff" stroke="#63b8ff" points="350.74,-153.11 361.3,-153.99 353.59,-146.72 350.74,-153.11"/>
</a>
</g>
</g>
<!-- Node13 -->
<g id="Node000013" class="node">
<title>Node13</title>
<g id="a_Node000013"><a xlink:href="openmp__internal_8h.html" target="_top" xlink:title=" ">
<polygon fill="white" stroke="#666666" points="482,-118 328,-118 328,-77 482,-77 482,-118"/>
<text text-anchor="start" x="336" y="-106" font-family="Helvetica,sans-Serif" font-size="10.00">/home/runner/work/realm</text>
<text text-anchor="start" x="336" y="-95" font-family="Helvetica,sans-Serif" font-size="10.00">/realm/realm&#45;src/src/realm</text>
<text text-anchor="middle" x="405" y="-84" font-family="Helvetica,sans-Serif" font-size="10.00">/openmp/openmp_internal.h</text>
</a>
</g>
</g>
<!-- Node10&#45;&gt;Node13 -->
<g id="edge13_Node000010_Node000013" class="edge">
<title>Node10&#45;&gt;Node13</title>
<g id="a_edge13_Node000010_Node000013"><a xlink:title=" ">
<path fill="none" stroke="#63b8ff" d="M405,-143.69C405,-135.08 405,-125.9 405,-118.07"/>
<polygon fill="#63b8ff" stroke="#63b8ff" points="401.5,-143.79 405,-153.79 408.5,-143.79 401.5,-143.79"/>
</a>
</g>
</g>
<!-- Node14 -->
<g id="Node000014" class="node">
<title>Node14</title>
<g id="a_Node000014"><a xlink:href="python__internal_8h.html" target="_top" xlink:title=" ">
<polygon fill="white" stroke="#666666" points="146,-118 0,-118 0,-77 146,-77 146,-118"/>
<text text-anchor="start" x="8" y="-106" font-family="Helvetica,sans-Serif" font-size="10.00">/home/runner/work/realm</text>
<text text-anchor="start" x="8" y="-95" font-family="Helvetica,sans-Serif" font-size="10.00">/realm/realm&#45;src/src/realm</text>
<text text-anchor="middle" x="73" y="-84" font-family="Helvetica,sans-Serif" font-size="10.00">/python/python_internal.h</text>
</a>
</g>
</g>
<!-- Node10&#45;&gt;Node14 -->
<g id="edge14_Node000010_Node000014" class="edge">
<title>Node10&#45;&gt;Node14</title>
<g id="a_edge14_Node000010_Node000014"><a xlink:title=" ">
<path fill="none" stroke="#63b8ff" d="M322.06,-155.41C273.36,-144.71 210.64,-130.79 155,-118 152.15,-117.34 149.24,-116.67 146.3,-115.99"/>
<polygon fill="#63b8ff" stroke="#63b8ff" points="321.4,-158.85 331.91,-157.58 322.9,-152.01 321.4,-158.85"/>
</a>
</g>
</g>
<!-- Node15&#45;&gt;Node2 -->
<g id="edge16_Node000015_Node000002" class="edge">
<title>Node15&#45;&gt;Node2</title>
<g id="a_edge16_Node000015_Node000002"><a xlink:title=" ">
<path fill="none" stroke="#63b8ff" d="M1255.71,-170.84C1126.43,-165.78 869.96,-152.08 655,-118 652.11,-117.54 649.17,-117.04 646.21,-116.49"/>
<polygon fill="#63b8ff" stroke="#63b8ff" points="1255.8,-174.34 1265.93,-171.23 1256.07,-167.35 1255.8,-174.34"/>
</a>
</g>
</g>
<!-- Node15&#45;&gt;Node11 -->
<g id="edge18_Node000015_Node000011" class="edge">
<title>Node15&#45;&gt;Node11</title>
<g id="a_edge18_Node000015_Node000011"><a xlink:title=" ">
<path fill="none" stroke="#63b8ff" d="M1255.69,-163.12C1137.4,-148.38 922.66,-121.63 810.18,-107.62"/>
<polygon fill="#63b8ff" stroke="#63b8ff" points="1255.43,-166.62 1265.78,-164.38 1256.29,-159.67 1255.43,-166.62"/>
</a>
</g>
</g>
<!-- Node16 -->
<g id="Node000016" class="node">
<title>Node16</title>
<g id="a_Node000016"><a xlink:href="hdf5__internal_8h.html" target="_top" xlink:title=" ">
<polygon fill="white" stroke="#666666" points="1443,-41 1297,-41 1297,0 1443,0 1443,-41"/>
<text text-anchor="start" x="1305" y="-29" font-family="Helvetica,sans-Serif" font-size="10.00">/home/runner/work/realm</text>
<text text-anchor="start" x="1305" y="-18" font-family="Helvetica,sans-Serif" font-size="10.00">/realm/realm&#45;src/src/realm</text>
<text text-anchor="middle" x="1370" y="-7" font-family="Helvetica,sans-Serif" font-size="10.00">/hdf5/hdf5_internal.h</text>
</a>
</g>
</g>
<!-- Node15&#45;&gt;Node16 -->
<g id="edge17_Node000015_Node000016" class="edge">
<title>Node15&#45;&gt;Node16</title>
<g id="a_edge17_Node000015_Node000016"><a xlink:title=" ">
<path fill="none" stroke="#63b8ff" d="M1285.7,-148.48C1274.2,-140.44 1263.55,-130.34 1257,-118 1248.46,-101.9 1247.37,-92.47 1257,-77 1267.05,-60.86 1283.33,-49.28 1300.43,-41.03"/>
<polygon fill="#63b8ff" stroke="#63b8ff" points="1283.88,-151.47 1294.17,-153.97 1287.68,-145.59 1283.88,-151.47"/>
</a>
</g>
</g>
<!-- Node15&#45;&gt;Node17 -->
<g id="edge19_Node000015_Node000017" class="edge">
<title>Node15&#45;&gt;Node17</title>
<g id="a_edge19_Node000015_Node000017"><a xlink:title=" ">
<path fill="none" stroke="#63b8ff" d="M1422.26,-159.56C1504.3,-145.83 1628.66,-125.01 1708.87,-111.58"/>
<polygon fill="#63b8ff" stroke="#63b8ff" points="1421.51,-156.14 1412.23,-161.24 1422.67,-163.04 1421.51,-156.14"/>
</a>
</g>
</g>
<!-- Node18 -->
<g id="Node000018" class="node">
<title>Node18</title>
<g id="a_Node000018"><a xlink:href="channel__disk_8h.html" target="_top" xlink:title=" ">
<polygon fill="white" stroke="#666666" points="1412,-118 1266,-118 1266,-77 1412,-77 1412,-118"/>
<text text-anchor="start" x="1274" y="-106" font-family="Helvetica,sans-Serif" font-size="10.00">/home/runner/work/realm</text>
<text text-anchor="start" x="1274" y="-95" font-family="Helvetica,sans-Serif" font-size="10.00">/realm/realm&#45;src/src/realm</text>
<text text-anchor="middle" x="1339" y="-84" font-family="Helvetica,sans-Serif" font-size="10.00">/transfer/channel_disk.h</text>
</a>
</g>
</g>
<!-- Node15&#45;&gt;Node18 -->
<g id="edge20_Node000015_Node000018" class="edge">
<title>Node15&#45;&gt;Node18</title>
<g id="a_edge20_Node000015_Node000018"><a xlink:title=" ">
<path fill="none" stroke="#63b8ff" d="M1339,-143.69C1339,-135.08 1339,-125.9 1339,-118.07"/>
<polygon fill="#63b8ff" stroke="#63b8ff" points="1335.5,-143.79 1339,-153.79 1342.5,-143.79 1335.5,-143.79"/>
</a>
</g>
</g>
<!-- Node15&#45;&gt;Node19 -->
<g id="edge21_Node000015_Node000019" class="edge">
<title>Node15&#45;&gt;Node19</title>
<g id="a_edge21_Node000015_Node000019"><a xlink:title=" ">
<path fill="none" stroke="#63b8ff" d="M1390.99,-149.72C1413.32,-139.51 1439.08,-127.73 1460.27,-118.04"/>
<polygon fill="#63b8ff" stroke="#63b8ff" points="1389.3,-146.65 1381.66,-153.99 1392.21,-153.01 1389.3,-146.65"/>
</a>
</g>
</g>
<!-- Node20 -->
<g id="Node000020" class="node">
<title>Node20</title>
<g id="a_Node000020"><a xlink:href="memcpy__channel_8h.html" target="_top" xlink:title=" ">
<polygon fill="white" stroke="#666666" points="1210,-118 1054,-118 1054,-77 1210,-77 1210,-118"/>
<text text-anchor="start" x="1062" y="-106" font-family="Helvetica,sans-Serif" font-size="10.00">/home/runner/work/realm</text>
<text text-anchor="start" x="1062" y="-95" font-family="Helvetica,sans-Serif" font-size="10.00">/realm/realm&#45;src/src/realm</text>
<text text-anchor="middle" x="1132" y="-84" font-family="Helvetica,sans-Serif" font-size="10.00">/transfer/memcpy_channel.h</text>
</a>
</g>
</g>
<!-- Node15&#45;&gt;Node20 -->
<g id="edge23_Node000015_Node000020" class="edge">
<title>Node15&#45;&gt;Node20</title>
<g id="a_edge23_Node000015_Node000020"><a xlink:title=" ">
<path fill="none" stroke="#63b8ff" d="M1275.63,-150.54C1246.94,-140.15 1213.39,-127.99 1185.94,-118.04"/>
<polygon fill="#63b8ff" stroke="#63b8ff" points="1274.56,-153.87 1285.15,-153.99 1276.94,-147.29 1274.56,-153.87"/>
</a>
</g>
</g>
<!-- Node15&#45;&gt;Node21 -->
<g id="edge24_Node000015_Node000021" class="edge">
<title>Node15&#45;&gt;Node21</title>
<g id="a_edge24_Node000015_Node000021"><a xlink:title=" ">
<path fill="none" stroke="#63b8ff" d="M1422.25,-166.11C1587.47,-151.45 1954.31,-118.89 2110.88,-104.99"/>
<polygon fill="#63b8ff" stroke="#63b8ff" points="1421.79,-162.64 1412.14,-167.01 1422.41,-169.61 1421.79,-162.64"/>
</a>
</g>
</g>
<!-- Node19&#45;&gt;Node16 -->
<g id="edge22_Node000019_Node000016" class="edge">
<title>Node19&#45;&gt;Node16</title>
<g id="a_edge22_Node000019_Node000016"><a xlink:title=" ">
<path fill="none" stroke="#63b8ff" d="M1459.41,-71.92C1441.72,-61.95 1421.57,-50.58 1404.89,-41.17"/>
<polygon fill="#63b8ff" stroke="#63b8ff" points="1457.97,-75.13 1468.4,-76.99 1461.41,-69.03 1457.97,-75.13"/>
</a>
</g>
</g>
<!-- Node22&#45;&gt;Node6 -->
<g id="edge28_Node000022_Node000006" class="edge">
<title>Node22&#45;&gt;Node6</title>
<g id="a_edge28_Node000022_Node000006"><a xlink:title=" ">
<path fill="none" stroke="#63b8ff" d="M1137,-297.69C1137,-289.08 1137,-279.9 1137,-272.07"/>
<polygon fill="#63b8ff" stroke="#63b8ff" points="1133.5,-297.79 1137,-307.79 1140.5,-297.79 1133.5,-297.79"/>
</a>
</g>
</g>
<!-- Node23&#45;&gt;Node4 -->
<g id="edge30_Node000023_Node000004" class="edge">
<title>Node23&#45;&gt;Node4</title>
<g id="a_edge30_Node000023_Node000004"><a xlink:title=" ">
<path fill="none" stroke="#63b8ff" d="M935.04,-376.95C942.44,-367.7 950.53,-357.58 957.34,-349.07"/>
<polygon fill="#63b8ff" stroke="#63b8ff" points="932.28,-374.8 928.76,-384.79 937.74,-379.17 932.28,-374.8"/>
</a>
</g>
</g>
<!-- Node26 -->
<g id="Node000026" class="node">
<title>Node26</title>
<g id="a_Node000026"><a xlink:href="cuda__access_8h.html" target="_top" xlink:title=" ">
<polygon fill="white" stroke="#666666" points="1740,-272 1594,-272 1594,-231 1740,-231 1740,-272"/>
<text text-anchor="start" x="1602" y="-260" font-family="Helvetica,sans-Serif" font-size="10.00">/home/runner/work/realm</text>
<text text-anchor="start" x="1602" y="-249" font-family="Helvetica,sans-Serif" font-size="10.00">/realm/realm&#45;src/src/realm</text>
<text text-anchor="middle" x="1667" y="-238" font-family="Helvetica,sans-Serif" font-size="10.00">/cuda/cuda_access.h</text>
</a>
</g>
</g>
<!-- Node25&#45;&gt;Node26 -->
<g id="edge34_Node000025_Node000026" class="edge">
<title>Node25&#45;&gt;Node26</title>
<g id="a_edge34_Node000025_Node000026"><a xlink:title=" ">
<path fill="none" stroke="#63b8ff" d="M1719.8,-300.79C1709.44,-291.32 1697.99,-280.84 1688.4,-272.07"/>
<polygon fill="#63b8ff" stroke="#63b8ff" points="1717.71,-303.63 1727.46,-307.79 1722.44,-298.46 1717.71,-303.63"/>
</a>
</g>
</g>
<!-- Node27 -->
<g id="Node000027" class="node">
<title>Node27</title>
<g id="a_Node000027"><a xlink:href="hdf5__access_8h.html" target="_top" xlink:title=" ">
<polygon fill="white" stroke="#666666" points="1904,-272 1758,-272 1758,-231 1904,-231 1904,-272"/>
<text text-anchor="start" x="1766" y="-260" font-family="Helvetica,sans-Serif" font-size="10.00">/home/runner/work/realm</text>
<text text-anchor="start" x="1766" y="-249" font-family="Helvetica,sans-Serif" font-size="10.00">/realm/realm&#45;src/src/realm</text>
<text text-anchor="middle" x="1831" y="-238" font-family="Helvetica,sans-Serif" font-size="10.00">/hdf5/hdf5_access.h</text>
</a>
</g>
</g>
<!-- Node25&#45;&gt;Node27 -->
<g id="edge35_Node000025_Node000027" class="edge">
<title>Node25&#45;&gt;Node27</title>
<g id="a_edge35_Node000025_Node000027"><a xlink:title=" ">
<path fill="none" stroke="#63b8ff" d="M1778.2,-300.79C1788.56,-291.32 1800.01,-280.84 1809.6,-272.07"/>
<polygon fill="#63b8ff" stroke="#63b8ff" points="1775.56,-298.46 1770.54,-307.79 1780.29,-303.63 1775.56,-298.46"/>
</a>
</g>
</g>
<!-- Node28 -->
<g id="Node000028" class="node">
<title>Node28</title>
<g id="a_Node000028"><a xlink:href="hip__access_8h.html" target="_top" xlink:title=" ">
<polygon fill="white" stroke="#666666" points="2068,-272 1922,-272 1922,-231 2068,-231 2068,-272"/>
<text text-anchor="start" x="1930" y="-260" font-family="Helvetica,sans-Serif" font-size="10.00">/home/runner/work/realm</text>
<text text-anchor="start" x="1930" y="-249" font-family="Helvetica,sans-Serif" font-size="10.00">/realm/realm&#45;src/src/realm</text>
<text text-anchor="middle" x="1995" y="-238" font-family="Helvetica,sans-Serif" font-size="10.00">/hip/hip_access.h</text>
</a>
</g>
</g>
<!-- Node25&#45;&gt;Node28 -->
<g id="edge36_Node000025_Node000028" class="edge">
<title>Node25&#45;&gt;Node28</title>
<g id="a_edge36_Node000025_Node000028"><a xlink:title=" ">
<path fill="none" stroke="#63b8ff" d="M1822.98,-304.94C1857.36,-294.46 1897.85,-282.12 1930.9,-272.04"/>
<polygon fill="#63b8ff" stroke="#63b8ff" points="1821.54,-301.73 1812.99,-307.99 1823.58,-308.42 1821.54,-301.73"/>
</a>
</g>
</g>
<!-- Node29 -->
<g id="Node000029" class="node">
<title>Node29</title>
<g id="a_Node000029"><a xlink:href="inst__impl_8h.html" target="_top" xlink:title=" ">
<polygon fill="white" stroke="#666666" points="1576,-272 1430,-272 1430,-231 1576,-231 1576,-272"/>
<text text-anchor="start" x="1438" y="-260" font-family="Helvetica,sans-Serif" font-size="10.00">/home/runner/work/realm</text>
<text text-anchor="start" x="1438" y="-249" font-family="Helvetica,sans-Serif" font-size="10.00">/realm/realm&#45;src/src/realm</text>
<text text-anchor="middle" x="1503" y="-238" font-family="Helvetica,sans-Serif" font-size="10.00">/inst_impl.h</text>
</a>
</g>
</g>
<!-- Node25&#45;&gt;Node29 -->
<g id="edge37_Node000025_Node000029" class="edge">
<title>Node25&#45;&gt;Node29</title>
<g id="a_edge37_Node000025_Node000029"><a xlink:title=" ">
<path fill="none" stroke="#63b8ff" d="M1675.02,-304.94C1640.64,-294.46 1600.15,-282.12 1567.1,-272.04"/>
<polygon fill="#63b8ff" stroke="#63b8ff" points="1674.42,-308.42 1685.01,-307.99 1676.46,-301.73 1674.42,-308.42"/>
</a>
</g>
</g>
<!-- Node30 -->
<g id="Node000030" class="node">
<title>Node30</title>
<g id="a_Node000030"><a xlink:href="transfer__utils_8h.html" target="_top" xlink:title=" ">
<polygon fill="white" stroke="#666666" points="2232,-272 2086,-272 2086,-231 2232,-231 2232,-272"/>
<text text-anchor="start" x="2094" y="-260" font-family="Helvetica,sans-Serif" font-size="10.00">/home/runner/work/realm</text>
<text text-anchor="start" x="2094" y="-249" font-family="Helvetica,sans-Serif" font-size="10.00">/realm/realm&#45;src/src/realm</text>
<text text-anchor="middle" x="2159" y="-238" font-family="Helvetica,sans-Serif" font-size="10.00">/transfer/transfer_utils.h</text>
</a>
</g>
</g>
<!-- Node25&#45;&gt;Node30 -->
<g id="edge40_Node000025_Node000030" class="edge">
<title>Node25&#45;&gt;Node30</title>
<g id="a_edge40_Node000025_Node000030"><a xlink:title=" ">
<path fill="none" stroke="#63b8ff" d="M1832.21,-314.97C1898.68,-304.59 1994.1,-288.85 2077,-272 2079.87,-271.42 2082.79,-270.81 2085.74,-270.18"/>
<polygon fill="#63b8ff" stroke="#63b8ff" points="1831.55,-311.53 1822.21,-316.53 1832.63,-318.45 1831.55,-311.53"/>
</a>
</g>
</g>
<!-- Node29&#45;&gt;Node15 -->
<g id="edge38_Node000029_Node000015" class="edge">
<title>Node29&#45;&gt;Node15</title>
<g id="a_edge38_Node000029_Node000015"><a xlink:title=" ">
<path fill="none" stroke="#63b8ff" d="M1451.01,-226.72C1428.68,-216.51 1402.92,-204.73 1381.73,-195.04"/>
<polygon fill="#63b8ff" stroke="#63b8ff" points="1449.79,-230.01 1460.34,-230.99 1452.7,-223.65 1449.79,-230.01"/>
</a>
</g>
</g>
<!-- Node29&#45;&gt;Node19 -->
<g id="edge39_Node000029_Node000019" class="edge">
<title>Node29&#45;&gt;Node19</title>
<g id="a_edge39_Node000029_Node000019"><a xlink:title=" ">
<path fill="none" stroke="#63b8ff" d="M1503,-220.58C1503,-190.36 1503,-144.53 1503,-118.47"/>
<polygon fill="#63b8ff" stroke="#63b8ff" points="1499.5,-220.94 1503,-230.94 1506.5,-220.94 1499.5,-220.94"/>
</a>
</g>
</g>
<!-- Node32 -->
<g id="Node000032" class="node">
<title>Node32</title>
<g id="a_Node000032"><a xlink:href="subgraph__impl_8h.html" target="_top" xlink:title=" ">
<polygon fill="white" stroke="#666666" points="1374,-349 1228,-349 1228,-308 1374,-308 1374,-349"/>
<text text-anchor="start" x="1236" y="-337" font-family="Helvetica,sans-Serif" font-size="10.00">/home/runner/work/realm</text>
<text text-anchor="start" x="1236" y="-326" font-family="Helvetica,sans-Serif" font-size="10.00">/realm/realm&#45;src/src/realm</text>
<text text-anchor="middle" x="1301" y="-315" font-family="Helvetica,sans-Serif" font-size="10.00">/subgraph_impl.h</text>
</a>
</g>
</g>
<!-- Node31&#45;&gt;Node32 -->
<g id="edge42_Node000031_Node000032" class="edge">
<title>Node31&#45;&gt;Node32</title>
<g id="a_edge42_Node000031_Node000032"><a xlink:title=" ">
<path fill="none" stroke="#63b8ff" d="M1310.7,-374.98C1308.85,-366.28 1306.86,-356.98 1305.18,-349.07"/>
<polygon fill="#63b8ff" stroke="#63b8ff" points="1307.29,-375.74 1312.8,-384.79 1314.13,-374.28 1307.29,-375.74"/>
</a>
</g>
</g>
<!-- Node32&#45;&gt;Node9 -->
<g id="edge43_Node000032_Node000009" class="edge">
<title>Node32&#45;&gt;Node9</title>
<g id="a_edge43_Node000032_Node000009"><a xlink:title=" ">
<path fill="none" stroke="#63b8ff" d="M1301,-297.69C1301,-289.08 1301,-279.9 1301,-272.07"/>
<polygon fill="#63b8ff" stroke="#63b8ff" points="1297.5,-297.79 1301,-307.79 1304.5,-297.79 1297.5,-297.79"/>
</a>
</g>
</g>
<!-- Node33&#45;&gt;Node15 -->
<g id="edge45_Node000033_Node000015" class="edge">
<title>Node33&#45;&gt;Node15</title>
<g id="a_edge45_Node000033_Node000015"><a xlink:title=" ">
<path fill="none" stroke="#63b8ff" d="M1442.15,-299.93C1417.16,-269.78 1377.72,-222.21 1355.55,-195.47"/>
<polygon fill="#63b8ff" stroke="#63b8ff" points="1439.71,-302.47 1448.79,-307.94 1445.1,-298.01 1439.71,-302.47"/>
</a>
</g>
</g>
</g>
</svg>
