<?xml version="1.0" encoding="UTF-8" standalone="no"?>
<!DOCTYPE svg PUBLIC "-//W3C//DTD SVG 1.1//EN"
 "http://www.w3.org/Graphics/SVG/1.1/DTD/svg11.dtd">
<!-- Generated by graphviz version 2.43.0 (0)
 -->
<!-- Title: /home/runner/work/realm/realm/realm&#45;src/src/realm/indexspace.h Pages: 1 -->
<svg width="2012pt" height="588pt"
 viewBox="0.00 0.00 2012.00 588.00" xmlns="http://www.w3.org/2000/svg" xmlns:xlink="http://www.w3.org/1999/xlink">
<g id="graph0" class="graph" transform="scale(1 1) rotate(0) translate(4 584)">
<title>/home/runner/work/realm/realm/realm&#45;src/src/realm/indexspace.h</title>
<!-- Node1 -->
<g id="Node000001" class="node">
<title>Node1</title>
<g id="a_Node000001"><a xlink:title=" ">
<polygon fill="#999999" stroke="#666666" points="893,-580 747,-580 747,-539 893,-539 893,-580"/>
<text text-anchor="start" x="755" y="-568" font-family="Helvetica,sans-Serif" font-size="10.00">/home/runner/work/realm</text>
<text text-anchor="start" x="755" y="-557" font-family="Helvetica,sans-Serif" font-size="10.00">/realm/realm&#45;src/src/realm</text>
<text text-anchor="middle" x="820" y="-546" font-family="Helvetica,sans-Serif" font-size="10.00">/indexspace.h</text>
</a>
</g>
</g>
<!-- Node2 -->
<g id="Node000002" class="node">
<title>Node2</title>
<g id="a_Node000002"><a xlink:href="cuda__internal_8h.html" target="_top" xlink:title=" ">
<polygon fill="white" stroke="#666666" points="772,-41 626,-41 626,0 772,0 772,-41"/>
<text text-anchor="start" x="634" y="-29" font-family="Helvetica,sans-Serif" font-size="10.00">/home/runner/work/realm</text>
<text text-anchor="start" x="634" y="-18" font-family="Helvetica,sans-Serif" font-size="10.00">/realm/realm&#45;src/src/realm</text>
<text text-anchor="middle" x="699" y="-7" font-family="Helvetica,sans-Serif" font-size="10.00">/cuda/cuda_internal.h</text>
</a>
</g>
</g>
<!-- Node1&#45;&gt;Node2 -->
<g id="edge1_Node000001_Node000002" class="edge">
<title>Node1&#45;&gt;Node2</title>
<g id="a_edge1_Node000001_Node000002"><a xlink:title=" ">
<path fill="none" stroke="#63b8ff" d="M736.63,-558C576.06,-556.04 230.03,-546.72 120,-503 56.4,-477.73 0,-474.94 0,-406.5 0,-406.5 0,-406.5 0,-173.5 0,-46.44 446.6,-25.39 625.84,-22.06"/>
<polygon fill="#63b8ff" stroke="#63b8ff" points="736.9,-561.5 746.94,-558.12 736.98,-554.5 736.9,-561.5"/>
</a>
</g>
</g>
<!-- Node3 -->
<g id="Node000003" class="node">
<title>Node3</title>
<g id="a_Node000003"><a xlink:href="inst__helper_8h.html" target="_top" xlink:title=" ">
<polygon fill="white" stroke="#666666" points="578,-503 432,-503 432,-462 578,-462 578,-503"/>
<text text-anchor="start" x="440" y="-491" font-family="Helvetica,sans-Serif" font-size="10.00">/home/runner/work/realm</text>
<text text-anchor="start" x="440" y="-480" font-family="Helvetica,sans-Serif" font-size="10.00">/realm/realm&#45;src/src/realm</text>
<text text-anchor="middle" x="505" y="-469" font-family="Helvetica,sans-Serif" font-size="10.00">/deppart/inst_helper.h</text>
</a>
</g>
</g>
<!-- Node1&#45;&gt;Node3 -->
<g id="edge2_Node000001_Node000003" class="edge">
<title>Node1&#45;&gt;Node3</title>
<g id="a_edge2_Node000001_Node000003"><a xlink:title=" ">
<path fill="none" stroke="#63b8ff" d="M736.94,-538.72C687.63,-526.98 625.68,-512.23 578.21,-500.93"/>
<polygon fill="#63b8ff" stroke="#63b8ff" points="736.4,-542.19 746.94,-541.1 738.02,-535.38 736.4,-542.19"/>
</a>
</g>
</g>
<!-- Node4 -->
<g id="Node000004" class="node">
<title>Node4</title>
<g id="a_Node000004"><a xlink:href="partitions_8h.html" target="_top" xlink:title=" ">
<polygon fill="white" stroke="#666666" points="528,-426 382,-426 382,-385 528,-385 528,-426"/>
<text text-anchor="start" x="390" y="-414" font-family="Helvetica,sans-Serif" font-size="10.00">/home/runner/work/realm</text>
<text text-anchor="start" x="390" y="-403" font-family="Helvetica,sans-Serif" font-size="10.00">/realm/realm&#45;src/src/realm</text>
<text text-anchor="middle" x="455" y="-392" font-family="Helvetica,sans-Serif" font-size="10.00">/deppart/partitions.h</text>
</a>
</g>
</g>
<!-- Node1&#45;&gt;Node4 -->
<g id="edge17_Node000001_Node000004" class="edge">
<title>Node1&#45;&gt;Node4</title>
<g id="a_edge17_Node000001_Node000004"><a xlink:title=" ">
<path fill="none" stroke="#63b8ff" d="M736.49,-559.13C632.25,-557.92 462.78,-548.73 423,-503 403.89,-481.03 422.7,-447.29 438.5,-426.08"/>
<polygon fill="#63b8ff" stroke="#63b8ff" points="736.64,-562.63 746.68,-559.22 736.71,-555.63 736.64,-562.63"/>
</a>
</g>
</g>
<!-- Node11 -->
<g id="Node000011" class="node">
<title>Node11</title>
<g id="a_Node000011"><a xlink:href="hip__internal_8h.html" target="_top" xlink:title=" ">
<polygon fill="white" stroke="#666666" points="1436,-41 1290,-41 1290,0 1436,0 1436,-41"/>
<text text-anchor="start" x="1298" y="-29" font-family="Helvetica,sans-Serif" font-size="10.00">/home/runner/work/realm</text>
<text text-anchor="start" x="1298" y="-18" font-family="Helvetica,sans-Serif" font-size="10.00">/realm/realm&#45;src/src/realm</text>
<text text-anchor="middle" x="1363" y="-7" font-family="Helvetica,sans-Serif" font-size="10.00">/hip/hip_internal.h</text>
</a>
</g>
</g>
<!-- Node1&#45;&gt;Node11 -->
<g id="edge34_Node000001_Node000011" class="edge">
<title>Node1&#45;&gt;Node11</title>
<g id="a_edge34_Node000001_Node000011"><a xlink:title=" ">
<path fill="none" stroke="#63b8ff" d="M903.33,-555.39C1073.6,-548.57 1456.13,-530.62 1584,-503 1698.8,-478.2 1830,-523.94 1830,-406.5 1830,-406.5 1830,-406.5 1830,-250.5 1830,-77.24 1567.65,-35.05 1436.23,-24.79"/>
<polygon fill="#63b8ff" stroke="#63b8ff" points="903.02,-551.9 893.17,-555.8 903.3,-558.9 903.02,-551.9"/>
</a>
</g>
</g>
<!-- Node17 -->
<g id="Node000017" class="node">
<title>Node17</title>
<g id="a_Node000017"><a xlink:href="rectlist_8h.html" target="_top" xlink:title=" ">
<polygon fill="white" stroke="#666666" points="742,-503 596,-503 596,-462 742,-462 742,-503"/>
<text text-anchor="start" x="604" y="-491" font-family="Helvetica,sans-Serif" font-size="10.00">/home/runner/work/realm</text>
<text text-anchor="start" x="604" y="-480" font-family="Helvetica,sans-Serif" font-size="10.00">/realm/realm&#45;src/src/realm</text>
<text text-anchor="middle" x="669" y="-469" font-family="Helvetica,sans-Serif" font-size="10.00">/deppart/rectlist.h</text>
</a>
</g>
</g>
<!-- Node1&#45;&gt;Node17 -->
<g id="edge18_Node000001_Node000017" class="edge">
<title>Node1&#45;&gt;Node17</title>
<g id="a_edge18_Node000001_Node000017"><a xlink:title=" ">
<path fill="none" stroke="#63b8ff" d="M771.58,-534.45C751.15,-524.3 727.68,-512.64 708.34,-503.04"/>
<polygon fill="#63b8ff" stroke="#63b8ff" points="770.21,-537.68 780.72,-538.99 773.32,-531.41 770.21,-537.68"/>
</a>
</g>
</g>
<!-- Node18 -->
<g id="Node000018" class="node">
<title>Node18</title>
<g id="a_Node000018"><a xlink:href="sparsity__impl_8h.html" target="_top" xlink:title=" ">
<polygon fill="white" stroke="#666666" points="944,-503 798,-503 798,-462 944,-462 944,-503"/>
<text text-anchor="start" x="806" y="-491" font-family="Helvetica,sans-Serif" font-size="10.00">/home/runner/work/realm</text>
<text text-anchor="start" x="806" y="-480" font-family="Helvetica,sans-Serif" font-size="10.00">/realm/realm&#45;src/src/realm</text>
<text text-anchor="middle" x="871" y="-469" font-family="Helvetica,sans-Serif" font-size="10.00">/deppart/sparsity_impl.h</text>
</a>
</g>
</g>
<!-- Node1&#45;&gt;Node18 -->
<g id="edge20_Node000001_Node000018" class="edge">
<title>Node1&#45;&gt;Node18</title>
<g id="a_edge20_Node000001_Node000018"><a xlink:title=" ">
<path fill="none" stroke="#63b8ff" d="M839.11,-530.39C845.3,-521.3 852.02,-511.41 857.69,-503.07"/>
<polygon fill="#63b8ff" stroke="#63b8ff" points="836.13,-528.56 833.4,-538.79 841.92,-532.49 836.13,-528.56"/>
</a>
</g>
</g>
<!-- Node19 -->
<g id="Node000019" class="node">
<title>Node19</title>
<g id="a_Node000019"><a xlink:href="address__list_8h.html" target="_top" xlink:title=" ">
<polygon fill="white" stroke="#666666" points="944,-426 798,-426 798,-385 944,-385 944,-426"/>
<text text-anchor="start" x="806" y="-414" font-family="Helvetica,sans-Serif" font-size="10.00">/home/runner/work/realm</text>
<text text-anchor="start" x="806" y="-403" font-family="Helvetica,sans-Serif" font-size="10.00">/realm/realm&#45;src/src/realm</text>
<text text-anchor="middle" x="871" y="-392" font-family="Helvetica,sans-Serif" font-size="10.00">/transfer/address_list.h</text>
</a>
</g>
</g>
<!-- Node1&#45;&gt;Node19 -->
<g id="edge48_Node000001_Node000019" class="edge">
<title>Node1&#45;&gt;Node19</title>
<g id="a_edge48_Node000001_Node000019"><a xlink:title=" ">
<path fill="none" stroke="#63b8ff" d="M902.64,-541.12C922.38,-532.89 941.14,-520.8 953,-503 963.1,-487.84 961.54,-478.1 953,-462 944.86,-446.66 930.38,-434.79 915.83,-426.03"/>
<polygon fill="#63b8ff" stroke="#63b8ff" points="901.3,-537.89 893.22,-544.74 903.81,-544.42 901.3,-537.89"/>
</a>
</g>
</g>
<!-- Node21 -->
<g id="Node000021" class="node">
<title>Node21</title>
<g id="a_Node000021"><a xlink:href="addrsplit__channel_8h.html" target="_top" xlink:title=" ">
<polygon fill="white" stroke="#666666" points="1726,-272 1570,-272 1570,-231 1726,-231 1726,-272"/>
<text text-anchor="start" x="1578" y="-260" font-family="Helvetica,sans-Serif" font-size="10.00">/home/runner/work/realm</text>
<text text-anchor="start" x="1578" y="-249" font-family="Helvetica,sans-Serif" font-size="10.00">/realm/realm&#45;src/src/realm</text>
<text text-anchor="middle" x="1648" y="-238" font-family="Helvetica,sans-Serif" font-size="10.00">/transfer/addrsplit_channel.h</text>
</a>
</g>
</g>
<!-- Node1&#45;&gt;Node21 -->
<g id="edge49_Node000001_Node000021" class="edge">
<title>Node1&#45;&gt;Node21</title>
<g id="a_edge49_Node000001_Node000021"><a xlink:title=" ">
<path fill="none" stroke="#63b8ff" d="M903.44,-553.23C1125.47,-538.35 1717.65,-492.71 1773,-426 1817.21,-372.71 1730.66,-304.99 1680.41,-272.14"/>
<polygon fill="#63b8ff" stroke="#63b8ff" points="902.9,-549.76 893.15,-553.92 903.36,-556.75 902.9,-549.76"/>
</a>
</g>
</g>
<!-- Node24 -->
<g id="Node000024" class="node">
<title>Node24</title>
<g id="a_Node000024"><a xlink:href="transfer_8h.html" target="_top" xlink:title=" ">
<polygon fill="white" stroke="#666666" points="906,-272 760,-272 760,-231 906,-231 906,-272"/>
<text text-anchor="start" x="768" y="-260" font-family="Helvetica,sans-Serif" font-size="10.00">/home/runner/work/realm</text>
<text text-anchor="start" x="768" y="-249" font-family="Helvetica,sans-Serif" font-size="10.00">/realm/realm&#45;src/src/realm</text>
<text text-anchor="middle" x="833" y="-238" font-family="Helvetica,sans-Serif" font-size="10.00">/transfer/transfer.h</text>
</a>
</g>
</g>
<!-- Node1&#45;&gt;Node24 -->
<g id="edge50_Node000001_Node000024" class="edge">
<title>Node1&#45;&gt;Node24</title>
<g id="a_edge50_Node000001_Node000024"><a xlink:title=" ">
<path fill="none" stroke="#63b8ff" d="M800.53,-530.13C795.81,-521.76 791.43,-512.33 789,-503 775.79,-452.25 773.33,-435.05 789,-385 794.82,-366.41 806.4,-366.94 814,-349 824.72,-323.69 829.47,-292.04 831.52,-272.05"/>
<polygon fill="#63b8ff" stroke="#63b8ff" points="797.56,-531.98 805.71,-538.75 803.56,-528.37 797.56,-531.98"/>
</a>
</g>
</g>
<!-- Node25 -->
<g id="Node000025" class="node">
<title>Node25</title>
<g id="a_Node000025"><a xlink:href="idx__impl_8h.html" target="_top" xlink:title=" ">
<polygon fill="white" stroke="#666666" points="2004,-503 1858,-503 1858,-462 2004,-462 2004,-503"/>
<text text-anchor="start" x="1866" y="-491" font-family="Helvetica,sans-Serif" font-size="10.00">/home/runner/work/realm</text>
<text text-anchor="start" x="1866" y="-480" font-family="Helvetica,sans-Serif" font-size="10.00">/realm/realm&#45;src/src/realm</text>
<text text-anchor="middle" x="1931" y="-469" font-family="Helvetica,sans-Serif" font-size="10.00">/idx_impl.h</text>
</a>
</g>
</g>
<!-- Node1&#45;&gt;Node25 -->
<g id="edge35_Node000001_Node000025" class="edge">
<title>Node1&#45;&gt;Node25</title>
<g id="a_edge35_Node000001_Node000025"><a xlink:title=" ">
<path fill="none" stroke="#63b8ff" d="M903.19,-558.66C1078.19,-557.98 1496.87,-550.97 1844,-503 1848.45,-502.39 1853,-501.66 1857.59,-500.86"/>
<polygon fill="#63b8ff" stroke="#63b8ff" points="903.02,-555.16 893.03,-558.7 903.04,-562.16 903.02,-555.16"/>
</a>
</g>
</g>
<!-- Node26 -->
<g id="Node000026" class="node">
<title>Node26</title>
<g id="a_Node000026"><a xlink:href="inst__layout_8h.html" target="_top" xlink:title=" ">
<polygon fill="white" stroke="#666666" points="1354,-503 1208,-503 1208,-462 1354,-462 1354,-503"/>
<text text-anchor="start" x="1216" y="-491" font-family="Helvetica,sans-Serif" font-size="10.00">/home/runner/work/realm</text>
<text text-anchor="start" x="1216" y="-480" font-family="Helvetica,sans-Serif" font-size="10.00">/realm/realm&#45;src/src/realm</text>
<text text-anchor="middle" x="1281" y="-469" font-family="Helvetica,sans-Serif" font-size="10.00">/inst_layout.h</text>
</a>
</g>
</g>
<!-- Node1&#45;&gt;Node26 -->
<g id="edge36_Node000001_Node000026" class="edge">
<title>Node1&#45;&gt;Node26</title>
<g id="a_edge36_Node000001_Node000026"><a xlink:title=" ">
<path fill="none" stroke="#63b8ff" d="M903.13,-544.97C990.01,-530.84 1124.99,-508.88 1207.91,-495.39"/>
<polygon fill="#63b8ff" stroke="#63b8ff" points="902.35,-541.56 893.05,-546.62 903.48,-548.46 902.35,-541.56"/>
</a>
</g>
</g>
<!-- Node32 -->
<g id="Node000032" class="node">
<title>Node32</title>
<g id="a_Node000032"><a xlink:href="subgraph_8h.html" target="_top" xlink:title=" ">
<polygon fill="white" stroke="#666666" points="275,-503 129,-503 129,-462 275,-462 275,-503"/>
<text text-anchor="start" x="137" y="-491" font-family="Helvetica,sans-Serif" font-size="10.00">/home/runner/work/realm</text>
<text text-anchor="start" x="137" y="-480" font-family="Helvetica,sans-Serif" font-size="10.00">/realm/realm&#45;src/src/realm</text>
<text text-anchor="middle" x="202" y="-469" font-family="Helvetica,sans-Serif" font-size="10.00">/subgraph.h</text>
</a>
</g>
</g>
<!-- Node1&#45;&gt;Node32 -->
<g id="edge45_Node000001_Node000032" class="edge">
<title>Node1&#45;&gt;Node32</title>
<g id="a_edge45_Node000001_Node000032"><a xlink:title=" ">
<path fill="none" stroke="#63b8ff" d="M736.99,-548.43C615.47,-533.68 391.06,-506.44 275.31,-492.4"/>
<polygon fill="#63b8ff" stroke="#63b8ff" points="736.64,-551.91 746.99,-549.64 737.48,-544.96 736.64,-551.91"/>
</a>
</g>
</g>
<!-- Node3&#45;&gt;Node4 -->
<g id="edge3_Node000003_Node000004" class="edge">
<title>Node3&#45;&gt;Node4</title>
<g id="a_edge3_Node000003_Node000004"><a xlink:title=" ">
<path fill="none" stroke="#63b8ff" d="M486.26,-453.39C480.2,-444.3 473.61,-434.41 468.05,-426.07"/>
<polygon fill="#63b8ff" stroke="#63b8ff" points="483.4,-455.42 491.86,-461.79 489.23,-451.53 483.4,-455.42"/>
</a>
</g>
</g>
<!-- Node5 -->
<g id="Node000005" class="node">
<title>Node5</title>
<g id="a_Node000005"><a xlink:href="byfield_8h.html" target="_top" xlink:title=" ">
<polygon fill="white" stroke="#666666" points="313,-349 167,-349 167,-308 313,-308 313,-349"/>
<text text-anchor="start" x="175" y="-337" font-family="Helvetica,sans-Serif" font-size="10.00">/home/runner/work/realm</text>
<text text-anchor="start" x="175" y="-326" font-family="Helvetica,sans-Serif" font-size="10.00">/realm/realm&#45;src/src/realm</text>
<text text-anchor="middle" x="240" y="-315" font-family="Helvetica,sans-Serif" font-size="10.00">/deppart/byfield.h</text>
</a>
</g>
</g>
<!-- Node4&#45;&gt;Node5 -->
<g id="edge4_Node000004_Node000005" class="edge">
<title>Node4&#45;&gt;Node5</title>
<g id="a_edge4_Node000004_Node000005"><a xlink:title=" ">
<path fill="none" stroke="#63b8ff" d="M389.57,-381.67C359.69,-371.25 324.66,-359.03 296.02,-349.04"/>
<polygon fill="#63b8ff" stroke="#63b8ff" points="388.48,-385 399.07,-384.99 390.78,-378.39 388.48,-385"/>
</a>
</g>
</g>
<!-- Node6 -->
<g id="Node000006" class="node">
<title>Node6</title>
<g id="a_Node000006"><a xlink:href="image_8h.html" target="_top" xlink:title=" ">
<polygon fill="white" stroke="#666666" points="805,-349 659,-349 659,-308 805,-308 805,-349"/>
<text text-anchor="start" x="667" y="-337" font-family="Helvetica,sans-Serif" font-size="10.00">/home/runner/work/realm</text>
<text text-anchor="start" x="667" y="-326" font-family="Helvetica,sans-Serif" font-size="10.00">/realm/realm&#45;src/src/realm</text>
<text text-anchor="middle" x="732" y="-315" font-family="Helvetica,sans-Serif" font-size="10.00">/deppart/image.h</text>
</a>
</g>
</g>
<!-- Node4&#45;&gt;Node6 -->
<g id="edge5_Node000004_Node000006" class="edge">
<title>Node4&#45;&gt;Node6</title>
<g id="a_edge5_Node000004_Node000006"><a xlink:title=" ">
<path fill="none" stroke="#63b8ff" d="M536.81,-382.35C575.84,-371.78 622.12,-359.25 659.82,-349.04"/>
<polygon fill="#63b8ff" stroke="#63b8ff" points="535.79,-379 527.06,-384.99 537.62,-385.76 535.79,-379"/>
</a>
</g>
</g>
<!-- Node7 -->
<g id="Node000007" class="node">
<title>Node7</title>
<g id="a_Node000007"><a xlink:href="preimage_8h.html" target="_top" xlink:title=" ">
<polygon fill="white" stroke="#666666" points="477,-349 331,-349 331,-308 477,-308 477,-349"/>
<text text-anchor="start" x="339" y="-337" font-family="Helvetica,sans-Serif" font-size="10.00">/home/runner/work/realm</text>
<text text-anchor="start" x="339" y="-326" font-family="Helvetica,sans-Serif" font-size="10.00">/realm/realm&#45;src/src/realm</text>
<text text-anchor="middle" x="404" y="-315" font-family="Helvetica,sans-Serif" font-size="10.00">/deppart/preimage.h</text>
</a>
</g>
</g>
<!-- Node4&#45;&gt;Node7 -->
<g id="edge6_Node000004_Node000007" class="edge">
<title>Node4&#45;&gt;Node7</title>
<g id="a_edge6_Node000004_Node000007"><a xlink:title=" ">
<path fill="none" stroke="#63b8ff" d="M435.89,-376.39C429.7,-367.3 422.98,-357.41 417.31,-349.07"/>
<polygon fill="#63b8ff" stroke="#63b8ff" points="433.08,-378.49 441.6,-384.79 438.87,-374.56 433.08,-378.49"/>
</a>
</g>
</g>
<!-- Node8 -->
<g id="Node000008" class="node">
<title>Node8</title>
<g id="a_Node000008"><a xlink:href="setops_8h.html" target="_top" xlink:title=" ">
<polygon fill="white" stroke="#666666" points="641,-349 495,-349 495,-308 641,-308 641,-349"/>
<text text-anchor="start" x="503" y="-337" font-family="Helvetica,sans-Serif" font-size="10.00">/home/runner/work/realm</text>
<text text-anchor="start" x="503" y="-326" font-family="Helvetica,sans-Serif" font-size="10.00">/realm/realm&#45;src/src/realm</text>
<text text-anchor="middle" x="568" y="-315" font-family="Helvetica,sans-Serif" font-size="10.00">/deppart/setops.h</text>
</a>
</g>
</g>
<!-- Node4&#45;&gt;Node8 -->
<g id="edge7_Node000004_Node000008" class="edge">
<title>Node4&#45;&gt;Node8</title>
<g id="a_edge7_Node000004_Node000008"><a xlink:title=" ">
<path fill="none" stroke="#63b8ff" d="M492.86,-379.37C507.69,-369.53 524.44,-358.41 538.36,-349.17"/>
<polygon fill="#63b8ff" stroke="#63b8ff" points="490.79,-376.54 484.39,-384.99 494.66,-382.38 490.79,-376.54"/>
</a>
</g>
</g>
<!-- Node9 -->
<g id="Node000009" class="node">
<title>Node9</title>
<g id="a_Node000009"><a xlink:href="runtime__impl_8h.html" target="_top" xlink:title=" ">
<polygon fill="white" stroke="#666666" points="906,-195 760,-195 760,-154 906,-154 906,-195"/>
<text text-anchor="start" x="768" y="-183" font-family="Helvetica,sans-Serif" font-size="10.00">/home/runner/work/realm</text>
<text text-anchor="start" x="768" y="-172" font-family="Helvetica,sans-Serif" font-size="10.00">/realm/realm&#45;src/src/realm</text>
<text text-anchor="middle" x="833" y="-161" font-family="Helvetica,sans-Serif" font-size="10.00">/runtime_impl.h</text>
</a>
</g>
</g>
<!-- Node4&#45;&gt;Node9 -->
<g id="edge8_Node000004_Node000009" class="edge">
<title>Node4&#45;&gt;Node9</title>
<g id="a_edge8_Node000004_Node000009"><a xlink:title=" ">
<path fill="none" stroke="#63b8ff" d="M371.58,-403.82C263.78,-400.02 96.77,-382.42 158,-308 233.69,-216.01 601.34,-186.93 759.94,-178.57"/>
<polygon fill="#63b8ff" stroke="#63b8ff" points="371.71,-407.33 381.82,-404.15 371.94,-400.33 371.71,-407.33"/>
</a>
</g>
</g>
<!-- Node10 -->
<g id="Node000010" class="node">
<title>Node10</title>
<g id="a_Node000010"><a xlink:href="proc__impl_8h.html" target="_top" xlink:title=" ">
<polygon fill="white" stroke="#666666" points="1100,-118 954,-118 954,-77 1100,-77 1100,-118"/>
<text text-anchor="start" x="962" y="-106" font-family="Helvetica,sans-Serif" font-size="10.00">/home/runner/work/realm</text>
<text text-anchor="start" x="962" y="-95" font-family="Helvetica,sans-Serif" font-size="10.00">/realm/realm&#45;src/src/realm</text>
<text text-anchor="middle" x="1027" y="-84" font-family="Helvetica,sans-Serif" font-size="10.00">/proc_impl.h</text>
</a>
</g>
</g>
<!-- Node9&#45;&gt;Node10 -->
<g id="edge9_Node000009_Node000010" class="edge">
<title>Node9&#45;&gt;Node10</title>
<g id="a_edge9_Node000009_Node000010"><a xlink:title=" ">
<path fill="none" stroke="#63b8ff" d="M893.09,-150.27C919.82,-139.94 950.94,-127.9 976.45,-118.04"/>
<polygon fill="#63b8ff" stroke="#63b8ff" points="891.53,-147.12 883.46,-153.99 894.05,-153.65 891.53,-147.12"/>
</a>
</g>
</g>
<!-- Node15 -->
<g id="Node000015" class="node">
<title>Node15</title>
<g id="a_Node000015"><a xlink:href="lowlevel__dma_8h.html" target="_top" xlink:title=" ">
<polygon fill="white" stroke="#666666" points="1652,-118 1506,-118 1506,-77 1652,-77 1652,-118"/>
<text text-anchor="start" x="1514" y="-106" font-family="Helvetica,sans-Serif" font-size="10.00">/home/runner/work/realm</text>
<text text-anchor="start" x="1514" y="-95" font-family="Helvetica,sans-Serif" font-size="10.00">/realm/realm&#45;src/src/realm</text>
<text text-anchor="middle" x="1579" y="-84" font-family="Helvetica,sans-Serif" font-size="10.00">/transfer/lowlevel_dma.h</text>
</a>
</g>
</g>
<!-- Node9&#45;&gt;Node15 -->
<g id="edge15_Node000009_Node000015" class="edge">
<title>Node9&#45;&gt;Node15</title>
<g id="a_edge15_Node000009_Node000015"><a xlink:title=" ">
<path fill="none" stroke="#63b8ff" d="M916.55,-165.1C1063.67,-150.31 1366.54,-119.86 1505.9,-105.85"/>
<polygon fill="#63b8ff" stroke="#63b8ff" points="915.83,-161.65 906.23,-166.14 916.53,-168.62 915.83,-161.65"/>
</a>
</g>
</g>
<!-- Node10&#45;&gt;Node2 -->
<g id="edge10_Node000010_Node000002" class="edge">
<title>Node10&#45;&gt;Node2</title>
<g id="a_edge10_Node000010_Node000002"><a xlink:title=" ">
<path fill="none" stroke="#63b8ff" d="M943.9,-77.86C885.14,-64.66 811.59,-48.09 781,-41 778.15,-40.34 775.24,-39.66 772.31,-38.98"/>
<polygon fill="#63b8ff" stroke="#63b8ff" points="943.42,-81.34 953.94,-80.12 944.95,-74.51 943.42,-81.34"/>
</a>
</g>
</g>
<!-- Node10&#45;&gt;Node11 -->
<g id="edge11_Node000010_Node000011" class="edge">
<title>Node10&#45;&gt;Node11</title>
<g id="a_edge11_Node000010_Node000011"><a xlink:title=" ">
<path fill="none" stroke="#63b8ff" d="M1110.14,-77.85C1111.44,-77.56 1112.72,-77.28 1114,-77 1188.16,-60.7 1206.95,-57.78 1281,-41 1283.85,-40.35 1286.76,-39.69 1289.7,-39.01"/>
<polygon fill="#63b8ff" stroke="#63b8ff" points="1109.1,-74.5 1100.09,-80.07 1110.61,-81.33 1109.1,-74.5"/>
</a>
</g>
</g>
<!-- Node12 -->
<g id="Node000012" class="node">
<title>Node12</title>
<g id="a_Node000012"><a xlink:href="kokkos__interop_8h.html" target="_top" xlink:title=" ">
<polygon fill="white" stroke="#666666" points="1100,-41 954,-41 954,0 1100,0 1100,-41"/>
<text text-anchor="start" x="962" y="-29" font-family="Helvetica,sans-Serif" font-size="10.00">/home/runner/work/realm</text>
<text text-anchor="start" x="962" y="-18" font-family="Helvetica,sans-Serif" font-size="10.00">/realm/realm&#45;src/src/realm</text>
<text text-anchor="middle" x="1027" y="-7" font-family="Helvetica,sans-Serif" font-size="10.00">/kokkos/kokkos_interop.h</text>
</a>
</g>
</g>
<!-- Node10&#45;&gt;Node12 -->
<g id="edge12_Node000010_Node000012" class="edge">
<title>Node10&#45;&gt;Node12</title>
<g id="a_edge12_Node000010_Node000012"><a xlink:title=" ">
<path fill="none" stroke="#63b8ff" d="M1027,-66.69C1027,-58.08 1027,-48.9 1027,-41.07"/>
<polygon fill="#63b8ff" stroke="#63b8ff" points="1023.5,-66.79 1027,-76.79 1030.5,-66.79 1023.5,-66.79"/>
</a>
</g>
</g>
<!-- Node13 -->
<g id="Node000013" class="node">
<title>Node13</title>
<g id="a_Node000013"><a xlink:href="openmp__internal_8h.html" target="_top" xlink:title=" ">
<polygon fill="white" stroke="#666666" points="1272,-41 1118,-41 1118,0 1272,0 1272,-41"/>
<text text-anchor="start" x="1126" y="-29" font-family="Helvetica,sans-Serif" font-size="10.00">/home/runner/work/realm</text>
<text text-anchor="start" x="1126" y="-18" font-family="Helvetica,sans-Serif" font-size="10.00">/realm/realm&#45;src/src/realm</text>
<text text-anchor="middle" x="1195" y="-7" font-family="Helvetica,sans-Serif" font-size="10.00">/openmp/openmp_internal.h</text>
</a>
</g>
</g>
<!-- Node10&#45;&gt;Node13 -->
<g id="edge13_Node000010_Node000013" class="edge">
<title>Node10&#45;&gt;Node13</title>
<g id="a_edge13_Node000010_Node000013"><a xlink:title=" ">
<path fill="none" stroke="#63b8ff" d="M1079.96,-72.86C1102.89,-62.62 1129.43,-50.77 1151.23,-41.04"/>
<polygon fill="#63b8ff" stroke="#63b8ff" points="1078.41,-69.72 1070.7,-76.99 1081.26,-76.11 1078.41,-69.72"/>
</a>
</g>
</g>
<!-- Node14 -->
<g id="Node000014" class="node">
<title>Node14</title>
<g id="a_Node000014"><a xlink:href="python__internal_8h.html" target="_top" xlink:title=" ">
<polygon fill="white" stroke="#666666" points="936,-41 790,-41 790,0 936,0 936,-41"/>
<text text-anchor="start" x="798" y="-29" font-family="Helvetica,sans-Serif" font-size="10.00">/home/runner/work/realm</text>
<text text-anchor="start" x="798" y="-18" font-family="Helvetica,sans-Serif" font-size="10.00">/realm/realm&#45;src/src/realm</text>
<text text-anchor="middle" x="863" y="-7" font-family="Helvetica,sans-Serif" font-size="10.00">/python/python_internal.h</text>
</a>
</g>
</g>
<!-- Node10&#45;&gt;Node14 -->
<g id="edge14_Node000010_Node000014" class="edge">
<title>Node10&#45;&gt;Node14</title>
<g id="a_edge14_Node000010_Node000014"><a xlink:title=" ">
<path fill="none" stroke="#63b8ff" d="M975.01,-72.72C952.68,-62.51 926.92,-50.73 905.73,-41.04"/>
<polygon fill="#63b8ff" stroke="#63b8ff" points="973.79,-76.01 984.34,-76.99 976.7,-69.65 973.79,-76.01"/>
</a>
</g>
</g>
<!-- Node16 -->
<g id="Node000016" class="node">
<title>Node16</title>
<g id="a_Node000016"><a xlink:href="hdf5__internal_8h.html" target="_top" xlink:title=" ">
<polygon fill="white" stroke="#666666" points="1759,-41 1613,-41 1613,0 1759,0 1759,-41"/>
<text text-anchor="start" x="1621" y="-29" font-family="Helvetica,sans-Serif" font-size="10.00">/home/runner/work/realm</text>
<text text-anchor="start" x="1621" y="-18" font-family="Helvetica,sans-Serif" font-size="10.00">/realm/realm&#45;src/src/realm</text>
<text text-anchor="middle" x="1686" y="-7" font-family="Helvetica,sans-Serif" font-size="10.00">/hdf5/hdf5_internal.h</text>
</a>
</g>
</g>
<!-- Node15&#45;&gt;Node16 -->
<g id="edge16_Node000015_Node000016" class="edge">
<title>Node15&#45;&gt;Node16</title>
<g id="a_edge16_Node000015_Node000016"><a xlink:title=" ">
<path fill="none" stroke="#63b8ff" d="M1615.25,-71.09C1629.19,-61.32 1644.88,-50.32 1657.93,-41.17"/>
<polygon fill="#63b8ff" stroke="#63b8ff" points="1613.01,-68.38 1606.83,-76.99 1617.03,-74.12 1613.01,-68.38"/>
</a>
</g>
</g>
<!-- Node17&#45;&gt;Node6 -->
<g id="edge19_Node000017_Node000006" class="edge">
<title>Node17&#45;&gt;Node6</title>
<g id="a_edge19_Node000017_Node000006"><a xlink:title=" ">
<path fill="none" stroke="#63b8ff" d="M681.07,-452.37C693.59,-422.16 712.83,-375.76 723.72,-349.47"/>
<polygon fill="#63b8ff" stroke="#63b8ff" points="677.7,-451.36 677.11,-461.94 684.17,-454.04 677.7,-451.36"/>
</a>
</g>
</g>
<!-- Node18&#45;&gt;Node4 -->
<g id="edge21_Node000018_Node000004" class="edge">
<title>Node18&#45;&gt;Node4</title>
<g id="a_edge21_Node000018_Node000004"><a xlink:title=" ">
<path fill="none" stroke="#63b8ff" d="M787.57,-466.46C711.61,-452.76 600.56,-432.74 528.03,-419.67"/>
<polygon fill="#63b8ff" stroke="#63b8ff" points="787.12,-469.93 797.59,-468.26 788.36,-463.05 787.12,-469.93"/>
</a>
</g>
</g>
<!-- Node18&#45;&gt;Node19 -->
<g id="edge22_Node000018_Node000019" class="edge">
<title>Node18&#45;&gt;Node19</title>
<g id="a_edge22_Node000018_Node000019"><a xlink:title=" ">
<path fill="none" stroke="#63b8ff" d="M871,-451.69C871,-443.08 871,-433.9 871,-426.07"/>
<polygon fill="#63b8ff" stroke="#63b8ff" points="867.5,-451.79 871,-461.79 874.5,-451.79 867.5,-451.79"/>
</a>
</g>
</g>
<!-- Node20 -->
<g id="Node000020" class="node">
<title>Node20</title>
<g id="a_Node000020"><a xlink:href="channel_8h.html" target="_top" xlink:title=" ">
<polygon fill="white" stroke="#666666" points="1205,-349 1059,-349 1059,-308 1205,-308 1205,-349"/>
<text text-anchor="start" x="1067" y="-337" font-family="Helvetica,sans-Serif" font-size="10.00">/home/runner/work/realm</text>
<text text-anchor="start" x="1067" y="-326" font-family="Helvetica,sans-Serif" font-size="10.00">/realm/realm&#45;src/src/realm</text>
<text text-anchor="middle" x="1132" y="-315" font-family="Helvetica,sans-Serif" font-size="10.00">/transfer/channel.h</text>
</a>
</g>
</g>
<!-- Node19&#45;&gt;Node20 -->
<g id="edge23_Node000019_Node000020" class="edge">
<title>Node19&#45;&gt;Node20</title>
<g id="a_edge23_Node000019_Node000020"><a xlink:title=" ">
<path fill="none" stroke="#63b8ff" d="M948.55,-382.21C985.23,-371.68 1028.62,-359.21 1063.99,-349.04"/>
<polygon fill="#63b8ff" stroke="#63b8ff" points="947.54,-378.86 938.89,-384.99 949.47,-385.59 947.54,-378.86"/>
</a>
</g>
</g>
<!-- Node19&#45;&gt;Node24 -->
<g id="edge33_Node000019_Node000024" class="edge">
<title>Node19&#45;&gt;Node24</title>
<g id="a_edge33_Node000019_Node000024"><a xlink:title=" ">
<path fill="none" stroke="#63b8ff" d="M863.69,-375C858.95,-355.89 852.63,-330.47 847,-308 844.01,-296.05 840.63,-282.65 837.94,-272.02"/>
<polygon fill="#63b8ff" stroke="#63b8ff" points="860.34,-376.04 866.15,-384.9 867.14,-374.36 860.34,-376.04"/>
</a>
</g>
</g>
<!-- Node20&#45;&gt;Node2 -->
<g id="edge24_Node000020_Node000002" class="edge">
<title>Node20&#45;&gt;Node2</title>
<g id="a_edge24_Node000020_Node000002"><a xlink:title=" ">
<path fill="none" stroke="#63b8ff" d="M1101.54,-301.14C1060.39,-266.01 984.2,-202.61 915,-154 853.26,-110.63 777.3,-65.91 733.88,-41.1"/>
<polygon fill="#63b8ff" stroke="#63b8ff" points="1099.42,-303.93 1109.29,-307.78 1103.97,-298.62 1099.42,-303.93"/>
</a>
</g>
</g>
<!-- Node20&#45;&gt;Node11 -->
<g id="edge26_Node000020_Node000011" class="edge">
<title>Node20&#45;&gt;Node11</title>
<g id="a_edge26_Node000020_Node000011"><a xlink:title=" ">
<path fill="none" stroke="#63b8ff" d="M1131.78,-297.84C1132.76,-277.94 1136.3,-251.68 1147,-231 1191.41,-145.16 1284.44,-73.98 1332.62,-41.1"/>
<polygon fill="#63b8ff" stroke="#63b8ff" points="1128.28,-297.79 1131.48,-307.89 1135.28,-298 1128.28,-297.79"/>
</a>
</g>
</g>
<!-- Node20&#45;&gt;Node15 -->
<g id="edge29_Node000020_Node000015" class="edge">
<title>Node20&#45;&gt;Node15</title>
<g id="a_edge29_Node000020_Node000015"><a xlink:title=" ">
<path fill="none" stroke="#63b8ff" d="M1215.28,-322.86C1305.66,-316.37 1442.74,-301.86 1485,-272 1538.86,-233.95 1564.87,-155.02 1574.46,-118.2"/>
<polygon fill="#63b8ff" stroke="#63b8ff" points="1214.78,-319.38 1205.05,-323.57 1215.27,-326.37 1214.78,-319.38"/>
</a>
</g>
</g>
<!-- Node20&#45;&gt;Node16 -->
<g id="edge25_Node000020_Node000016" class="edge">
<title>Node20&#45;&gt;Node16</title>
<g id="a_edge25_Node000020_Node000016"><a xlink:title=" ">
<path fill="none" stroke="#63b8ff" d="M1215.36,-322.02C1312.69,-314.5 1466.89,-298.78 1518,-272 1528.34,-266.58 1655.39,-128.24 1661,-118 1674.46,-93.41 1680.9,-61.3 1683.81,-41.03"/>
<polygon fill="#63b8ff" stroke="#63b8ff" points="1214.95,-318.54 1205.24,-322.79 1215.48,-325.52 1214.95,-318.54"/>
</a>
</g>
</g>
<!-- Node20&#45;&gt;Node21 -->
<g id="edge27_Node000020_Node000021" class="edge">
<title>Node20&#45;&gt;Node21</title>
<g id="a_edge27_Node000020_Node000021"><a xlink:title=" ">
<path fill="none" stroke="#63b8ff" d="M1215.23,-318.57C1300.93,-308.91 1438.22,-292.16 1556,-272 1560.51,-271.23 1565.13,-270.39 1569.78,-269.52"/>
<polygon fill="#63b8ff" stroke="#63b8ff" points="1214.59,-315.12 1205.04,-319.71 1215.37,-322.07 1214.59,-315.12"/>
</a>
</g>
</g>
<!-- Node22 -->
<g id="Node000022" class="node">
<title>Node22</title>
<g id="a_Node000022"><a xlink:href="channel__disk_8h.html" target="_top" xlink:title=" ">
<polygon fill="white" stroke="#666666" points="1302,-272 1156,-272 1156,-231 1302,-231 1302,-272"/>
<text text-anchor="start" x="1164" y="-260" font-family="Helvetica,sans-Serif" font-size="10.00">/home/runner/work/realm</text>
<text text-anchor="start" x="1164" y="-249" font-family="Helvetica,sans-Serif" font-size="10.00">/realm/realm&#45;src/src/realm</text>
<text text-anchor="middle" x="1229" y="-238" font-family="Helvetica,sans-Serif" font-size="10.00">/transfer/channel_disk.h</text>
</a>
</g>
</g>
<!-- Node20&#45;&gt;Node22 -->
<g id="edge28_Node000020_Node000022" class="edge">
<title>Node20&#45;&gt;Node22</title>
<g id="a_edge28_Node000020_Node000022"><a xlink:title=" ">
<path fill="none" stroke="#63b8ff" d="M1165.22,-301.82C1177.77,-292.11 1191.83,-281.24 1203.56,-272.17"/>
<polygon fill="#63b8ff" stroke="#63b8ff" points="1163,-299.1 1157.23,-307.99 1167.28,-304.64 1163,-299.1"/>
</a>
</g>
</g>
<!-- Node23 -->
<g id="Node000023" class="node">
<title>Node23</title>
<g id="a_Node000023"><a xlink:href="memcpy__channel_8h.html" target="_top" xlink:title=" ">
<polygon fill="white" stroke="#666666" points="1476,-272 1320,-272 1320,-231 1476,-231 1476,-272"/>
<text text-anchor="start" x="1328" y="-260" font-family="Helvetica,sans-Serif" font-size="10.00">/home/runner/work/realm</text>
<text text-anchor="start" x="1328" y="-249" font-family="Helvetica,sans-Serif" font-size="10.00">/realm/realm&#45;src/src/realm</text>
<text text-anchor="middle" x="1398" y="-238" font-family="Helvetica,sans-Serif" font-size="10.00">/transfer/memcpy_channel.h</text>
</a>
</g>
</g>
<!-- Node20&#45;&gt;Node23 -->
<g id="edge30_Node000020_Node000023" class="edge">
<title>Node20&#45;&gt;Node23</title>
<g id="a_edge30_Node000020_Node000023"><a xlink:title=" ">
<path fill="none" stroke="#63b8ff" d="M1211.04,-305.21C1248.42,-294.68 1292.64,-282.21 1328.69,-272.04"/>
<polygon fill="#63b8ff" stroke="#63b8ff" points="1209.87,-301.91 1201.19,-307.99 1211.77,-308.65 1209.87,-301.91"/>
</a>
</g>
</g>
<!-- Node20&#45;&gt;Node24 -->
<g id="edge31_Node000020_Node000024" class="edge">
<title>Node20&#45;&gt;Node24</title>
<g id="a_edge31_Node000020_Node000024"><a xlink:title=" ">
<path fill="none" stroke="#63b8ff" d="M1048.87,-306.65C1004.09,-295.41 949.33,-281.68 906.17,-270.85"/>
<polygon fill="#63b8ff" stroke="#63b8ff" points="1048.31,-310.11 1058.86,-309.15 1050.01,-303.33 1048.31,-310.11"/>
</a>
</g>
</g>
<!-- Node24&#45;&gt;Node9 -->
<g id="edge32_Node000024_Node000009" class="edge">
<title>Node24&#45;&gt;Node9</title>
<g id="a_edge32_Node000024_Node000009"><a xlink:title=" ">
<path fill="none" stroke="#63b8ff" d="M833,-220.69C833,-212.08 833,-202.9 833,-195.07"/>
<polygon fill="#63b8ff" stroke="#63b8ff" points="829.5,-220.79 833,-230.79 836.5,-220.79 829.5,-220.79"/>
</a>
</g>
</g>
<!-- Node27 -->
<g id="Node000027" class="node">
<title>Node27</title>
<g id="a_Node000027"><a xlink:href="cuda__access_8h.html" target="_top" xlink:title=" ">
<polygon fill="white" stroke="#666666" points="1764,-426 1618,-426 1618,-385 1764,-385 1764,-426"/>
<text text-anchor="start" x="1626" y="-414" font-family="Helvetica,sans-Serif" font-size="10.00">/home/runner/work/realm</text>
<text text-anchor="start" x="1626" y="-403" font-family="Helvetica,sans-Serif" font-size="10.00">/realm/realm&#45;src/src/realm</text>
<text text-anchor="middle" x="1691" y="-392" font-family="Helvetica,sans-Serif" font-size="10.00">/cuda/cuda_access.h</text>
</a>
</g>
</g>
<!-- Node26&#45;&gt;Node27 -->
<g id="edge37_Node000026_Node000027" class="edge">
<title>Node26&#45;&gt;Node27</title>
<g id="a_edge37_Node000026_Node000027"><a xlink:title=" ">
<path fill="none" stroke="#63b8ff" d="M1364.21,-468.97C1430.68,-458.59 1526.1,-442.85 1609,-426 1611.87,-425.42 1614.79,-424.81 1617.74,-424.18"/>
<polygon fill="#63b8ff" stroke="#63b8ff" points="1363.55,-465.53 1354.21,-470.53 1364.63,-472.45 1363.55,-465.53"/>
</a>
</g>
</g>
<!-- Node28 -->
<g id="Node000028" class="node">
<title>Node28</title>
<g id="a_Node000028"><a xlink:href="hdf5__access_8h.html" target="_top" xlink:title=" ">
<polygon fill="white" stroke="#666666" points="1272,-426 1126,-426 1126,-385 1272,-385 1272,-426"/>
<text text-anchor="start" x="1134" y="-414" font-family="Helvetica,sans-Serif" font-size="10.00">/home/runner/work/realm</text>
<text text-anchor="start" x="1134" y="-403" font-family="Helvetica,sans-Serif" font-size="10.00">/realm/realm&#45;src/src/realm</text>
<text text-anchor="middle" x="1199" y="-392" font-family="Helvetica,sans-Serif" font-size="10.00">/hdf5/hdf5_access.h</text>
</a>
</g>
</g>
<!-- Node26&#45;&gt;Node28 -->
<g id="edge38_Node000026_Node000028" class="edge">
<title>Node26&#45;&gt;Node28</title>
<g id="a_edge38_Node000026_Node000028"><a xlink:title=" ">
<path fill="none" stroke="#63b8ff" d="M1251.8,-454.79C1241.44,-445.32 1229.99,-434.84 1220.4,-426.07"/>
<polygon fill="#63b8ff" stroke="#63b8ff" points="1249.71,-457.63 1259.46,-461.79 1254.44,-452.46 1249.71,-457.63"/>
</a>
</g>
</g>
<!-- Node29 -->
<g id="Node000029" class="node">
<title>Node29</title>
<g id="a_Node000029"><a xlink:href="hip__access_8h.html" target="_top" xlink:title=" ">
<polygon fill="white" stroke="#666666" points="1436,-426 1290,-426 1290,-385 1436,-385 1436,-426"/>
<text text-anchor="start" x="1298" y="-414" font-family="Helvetica,sans-Serif" font-size="10.00">/home/runner/work/realm</text>
<text text-anchor="start" x="1298" y="-403" font-family="Helvetica,sans-Serif" font-size="10.00">/realm/realm&#45;src/src/realm</text>
<text text-anchor="middle" x="1363" y="-392" font-family="Helvetica,sans-Serif" font-size="10.00">/hip/hip_access.h</text>
</a>
</g>
</g>
<!-- Node26&#45;&gt;Node29 -->
<g id="edge39_Node000026_Node000029" class="edge">
<title>Node26&#45;&gt;Node29</title>
<g id="a_edge39_Node000026_Node000029"><a xlink:title=" ">
<path fill="none" stroke="#63b8ff" d="M1310.2,-454.79C1320.56,-445.32 1332.01,-434.84 1341.6,-426.07"/>
<polygon fill="#63b8ff" stroke="#63b8ff" points="1307.56,-452.46 1302.54,-461.79 1312.29,-457.63 1307.56,-452.46"/>
</a>
</g>
</g>
<!-- Node30 -->
<g id="Node000030" class="node">
<title>Node30</title>
<g id="a_Node000030"><a xlink:href="inst__impl_8h.html" target="_top" xlink:title=" ">
<polygon fill="white" stroke="#666666" points="1108,-426 962,-426 962,-385 1108,-385 1108,-426"/>
<text text-anchor="start" x="970" y="-414" font-family="Helvetica,sans-Serif" font-size="10.00">/home/runner/work/realm</text>
<text text-anchor="start" x="970" y="-403" font-family="Helvetica,sans-Serif" font-size="10.00">/realm/realm&#45;src/src/realm</text>
<text text-anchor="middle" x="1035" y="-392" font-family="Helvetica,sans-Serif" font-size="10.00">/inst_impl.h</text>
</a>
</g>
</g>
<!-- Node26&#45;&gt;Node30 -->
<g id="edge40_Node000026_Node000030" class="edge">
<title>Node26&#45;&gt;Node30</title>
<g id="a_edge40_Node000026_Node000030"><a xlink:title=" ">
<path fill="none" stroke="#63b8ff" d="M1207.02,-458.94C1172.64,-448.46 1132.15,-436.12 1099.1,-426.04"/>
<polygon fill="#63b8ff" stroke="#63b8ff" points="1206.42,-462.42 1217.01,-461.99 1208.46,-455.73 1206.42,-462.42"/>
</a>
</g>
</g>
<!-- Node31 -->
<g id="Node000031" class="node">
<title>Node31</title>
<g id="a_Node000031"><a xlink:href="transfer__utils_8h.html" target="_top" xlink:title=" ">
<polygon fill="white" stroke="#666666" points="1600,-426 1454,-426 1454,-385 1600,-385 1600,-426"/>
<text text-anchor="start" x="1462" y="-414" font-family="Helvetica,sans-Serif" font-size="10.00">/home/runner/work/realm</text>
<text text-anchor="start" x="1462" y="-403" font-family="Helvetica,sans-Serif" font-size="10.00">/realm/realm&#45;src/src/realm</text>
<text text-anchor="middle" x="1527" y="-392" font-family="Helvetica,sans-Serif" font-size="10.00">/transfer/transfer_utils.h</text>
</a>
</g>
</g>
<!-- Node26&#45;&gt;Node31 -->
<g id="edge44_Node000026_Node000031" class="edge">
<title>Node26&#45;&gt;Node31</title>
<g id="a_edge44_Node000026_Node000031"><a xlink:title=" ">
<path fill="none" stroke="#63b8ff" d="M1354.98,-458.94C1389.36,-448.46 1429.85,-436.12 1462.9,-426.04"/>
<polygon fill="#63b8ff" stroke="#63b8ff" points="1353.54,-455.73 1344.99,-461.99 1355.58,-462.42 1353.54,-455.73"/>
</a>
</g>
</g>
<!-- Node30&#45;&gt;Node15 -->
<g id="edge42_Node000030_Node000015" class="edge">
<title>Node30&#45;&gt;Node15</title>
<g id="a_edge42_Node000030_Node000015"><a xlink:title=" ">
<path fill="none" stroke="#63b8ff" d="M1118.44,-384.89C1271.08,-357.25 1647.61,-376.82 1735,-272 1782.86,-214.6 1680.7,-149.82 1619.91,-118.11"/>
<polygon fill="#63b8ff" stroke="#63b8ff" points="1117.42,-381.52 1108.27,-386.87 1118.76,-388.39 1117.42,-381.52"/>
</a>
</g>
</g>
<!-- Node30&#45;&gt;Node20 -->
<g id="edge41_Node000030_Node000020" class="edge">
<title>Node30&#45;&gt;Node20</title>
<g id="a_edge41_Node000030_Node000020"><a xlink:title=" ">
<path fill="none" stroke="#63b8ff" d="M1068.22,-378.82C1080.77,-369.11 1094.83,-358.24 1106.56,-349.17"/>
<polygon fill="#63b8ff" stroke="#63b8ff" points="1066,-376.1 1060.23,-384.99 1070.28,-381.64 1066,-376.1"/>
</a>
</g>
</g>
<!-- Node30&#45;&gt;Node24 -->
<g id="edge43_Node000030_Node000024" class="edge">
<title>Node30&#45;&gt;Node24</title>
<g id="a_edge43_Node000030_Node000024"><a xlink:title=" ">
<path fill="none" stroke="#63b8ff" d="M1000.87,-378.82C960.87,-348.72 895.44,-299.49 859.21,-272.23"/>
<polygon fill="#63b8ff" stroke="#63b8ff" points="998.91,-381.72 1009.01,-384.94 1003.12,-376.13 998.91,-381.72"/>
</a>
</g>
</g>
<!-- Node33 -->
<g id="Node000033" class="node">
<title>Node33</title>
<g id="a_Node000033"><a xlink:href="subgraph__impl_8h.html" target="_top" xlink:title=" ">
<polygon fill="white" stroke="#666666" points="174,-272 28,-272 28,-231 174,-231 174,-272"/>
<text text-anchor="start" x="36" y="-260" font-family="Helvetica,sans-Serif" font-size="10.00">/home/runner/work/realm</text>
<text text-anchor="start" x="36" y="-249" font-family="Helvetica,sans-Serif" font-size="10.00">/realm/realm&#45;src/src/realm</text>
<text text-anchor="middle" x="101" y="-238" font-family="Helvetica,sans-Serif" font-size="10.00">/subgraph_impl.h</text>
</a>
</g>
</g>
<!-- Node32&#45;&gt;Node33 -->
<g id="edge46_Node000032_Node000033" class="edge">
<title>Node32&#45;&gt;Node33</title>
<g id="a_edge46_Node000032_Node000033"><a xlink:title=" ">
<path fill="none" stroke="#63b8ff" d="M182.35,-453.17C165.08,-427.13 140.38,-386.94 125,-349 114.62,-323.4 107.84,-292.11 104.22,-272.23"/>
<polygon fill="#63b8ff" stroke="#63b8ff" points="179.64,-455.41 188.12,-461.76 185.45,-451.51 179.64,-455.41"/>
</a>
</g>
</g>
<!-- Node33&#45;&gt;Node9 -->
<g id="edge47_Node000033_Node000009" class="edge">
<title>Node33&#45;&gt;Node9</title>
<g id="a_edge47_Node000033_Node000009"><a xlink:title=" ">
<path fill="none" stroke="#63b8ff" d="M184.65,-231.53C185.77,-231.35 186.89,-231.17 188,-231 393.77,-199.23 639.49,-184.38 759.59,-178.6"/>
<polygon fill="#63b8ff" stroke="#63b8ff" points="183.69,-228.15 174.44,-233.31 184.89,-235.04 183.69,-228.15"/>
</a>
</g>
</g>
</g>
</svg>
