<?xml version="1.0" encoding="UTF-8" standalone="no"?>
<!DOCTYPE svg PUBLIC "-//W3C//DTD SVG 1.1//EN"
 "http://www.w3.org/Graphics/SVG/1.1/DTD/svg11.dtd">
<!-- Generated by graphviz version 2.43.0 (0)
 -->
<!-- Title: Graphical Class Hierarchy Pages: 1 -->
<svg width="368pt" height="134pt"
 viewBox="0.00 0.00 368.00 134.00" xmlns="http://www.w3.org/2000/svg" xmlns:xlink="http://www.w3.org/1999/xlink">
<g id="graph0" class="graph" transform="scale(1 1) rotate(0) translate(4 130)">
<title>Graphical Class Hierarchy</title>
<!-- Node0 -->
<g id="Node000000" class="node">
<title>Node0</title>
<g id="a_Node000000"><a xlink:href="classRealm_1_1Cuda_1_1GPUCompletionNotification.html" target="_top" xlink:title=" ">
<polygon fill="white" stroke="#666666" points="162,-78 0,-78 0,-48 162,-48 162,-78"/>
<text text-anchor="start" x="8" y="-66" font-family="Helvetica,sans-Serif" font-size="10.00">Realm::Cuda::GPUCompletion</text>
<text text-anchor="middle" x="81" y="-55" font-family="Helvetica,sans-Serif" font-size="10.00">Notification</text>
</a>
</g>
</g>
<!-- Node1 -->
<g id="Node000001" class="node">
<title>Node1</title>
<g id="a_Node000001"><a xlink:href="classRealm_1_1Cuda_1_1GPUCompletionEvent.html" target="_top" xlink:title=" ">
<polygon fill="white" stroke="#666666" points="360,-126 198,-126 198,-96 360,-96 360,-126"/>
<text text-anchor="start" x="206" y="-114" font-family="Helvetica,sans-Serif" font-size="10.00">Realm::Cuda::GPUCompletion</text>
<text text-anchor="middle" x="279" y="-103" font-family="Helvetica,sans-Serif" font-size="10.00">Event</text>
</a>
</g>
</g>
<!-- Node0&#45;&gt;Node1 -->
<g id="edge105_Node000000_Node000001" class="edge">
<title>Node0&#45;&gt;Node1</title>
<g id="a_edge105_Node000000_Node000001"><a xlink:title=" ">
<path fill="none" stroke="#63b8ff" d="M153.22,-80.44C174.04,-85.54 196.6,-91.07 216.74,-96"/>
<polygon fill="#63b8ff" stroke="#63b8ff" points="154.02,-77.04 143.48,-78.06 152.36,-83.83 154.02,-77.04"/>
</a>
</g>
</g>
<!-- Node2 -->
<g id="Node000002" class="node">
<title>Node2</title>
<g id="a_Node000002"><a xlink:href="classRealm_1_1Cuda_1_1GPUIndirectTransferCompletion.html" target="_top" xlink:title=" ">
<polygon fill="white" stroke="#666666" points="350.5,-78 207.5,-78 207.5,-48 350.5,-48 350.5,-78"/>
<text text-anchor="start" x="215.5" y="-66" font-family="Helvetica,sans-Serif" font-size="10.00">Realm::Cuda::GPUIndirect</text>
<text text-anchor="middle" x="279" y="-55" font-family="Helvetica,sans-Serif" font-size="10.00">TransferCompletion</text>
</a>
</g>
</g>
<!-- Node0&#45;&gt;Node2 -->
<g id="edge106_Node000000_Node000002" class="edge">
<title>Node0&#45;&gt;Node2</title>
<g id="a_edge106_Node000000_Node000002"><a xlink:title=" ">
<path fill="none" stroke="#63b8ff" d="M172.29,-63C184.06,-63 195.99,-63 207.37,-63"/>
<polygon fill="#63b8ff" stroke="#63b8ff" points="172,-59.5 162,-63 172,-66.5 172,-59.5"/>
</a>
</g>
</g>
<!-- Node3 -->
<g id="Node000003" class="node">
<title>Node3</title>
<g id="a_Node000003"><a xlink:href="classRealm_1_1Cuda_1_1GPUTransferCompletion.html" target="_top" xlink:title=" ">
<polygon fill="white" stroke="#666666" points="351.5,-30 206.5,-30 206.5,0 351.5,0 351.5,-30"/>
<text text-anchor="start" x="214.5" y="-18" font-family="Helvetica,sans-Serif" font-size="10.00">Realm::Cuda::GPUTransfer</text>
<text text-anchor="middle" x="279" y="-7" font-family="Helvetica,sans-Serif" font-size="10.00">Completion</text>
</a>
</g>
</g>
<!-- Node0&#45;&gt;Node3 -->
<g id="edge107_Node000000_Node000003" class="edge">
<title>Node0&#45;&gt;Node3</title>
<g id="a_edge107_Node000000_Node000003"><a xlink:title=" ">
<path fill="none" stroke="#63b8ff" d="M153.22,-45.56C174.04,-40.46 196.6,-34.93 216.74,-30"/>
<polygon fill="#63b8ff" stroke="#63b8ff" points="152.36,-42.17 143.48,-47.94 154.02,-48.96 152.36,-42.17"/>
</a>
</g>
</g>
</g>
</svg>
