<?xml version="1.0" encoding="UTF-8" standalone="no"?>
<!DOCTYPE svg PUBLIC "-//W3C//DTD SVG 1.1//EN"
 "http://www.w3.org/Graphics/SVG/1.1/DTD/svg11.dtd">
<!-- Generated by graphviz version 2.43.0 (0)
 -->
<!-- Title: Graphical Class Hierarchy Pages: 1 -->
<svg width="365pt" height="278pt"
 viewBox="0.00 0.00 365.00 278.00" xmlns="http://www.w3.org/2000/svg" xmlns:xlink="http://www.w3.org/1999/xlink">
<g id="graph0" class="graph" transform="scale(1 1) rotate(0) translate(4 274)">
<title>Graphical Class Hierarchy</title>
<!-- Node0 -->
<g id="Node000000" class="node">
<title>Node0</title>
<g id="a_Node000000"><a xlink:href="classRealm_1_1CommandLineOption.html" target="_top" xlink:title=" ">
<polygon fill="white" stroke="#666666" points="157,-144.5 0,-144.5 0,-125.5 157,-125.5 157,-144.5"/>
<text text-anchor="middle" x="78.5" y="-132.5" font-family="Helvetica,sans-Serif" font-size="10.00">Realm::CommandLineOption</text>
</a>
</g>
</g>
<!-- Node1 -->
<g id="Node000001" class="node">
<title>Node1</title>
<g id="a_Node000001"><a xlink:href="classRealm_1_1BooleanCommandLineOption.html" target="_top" xlink:title=" ">
<polygon fill="white" stroke="#666666" points="357,-270 193,-270 193,-240 357,-240 357,-270"/>
<text text-anchor="start" x="201" y="-258" font-family="Helvetica,sans-Serif" font-size="10.00">Realm::BooleanCommandLine</text>
<text text-anchor="middle" x="275" y="-247" font-family="Helvetica,sans-Serif" font-size="10.00">Option</text>
</a>
</g>
</g>
<!-- Node0&#45;&gt;Node1 -->
<g id="edge94_Node000000_Node000001" class="edge">
<title>Node0&#45;&gt;Node1</title>
<g id="a_edge94_Node000000_Node000001"><a xlink:title=" ">
<path fill="none" stroke="#63b8ff" d="M95.2,-152.07C115.73,-173.44 153.73,-209.8 193,-231 199.32,-234.41 206.19,-237.4 213.17,-240"/>
<polygon fill="#63b8ff" stroke="#63b8ff" points="97.63,-149.55 88.22,-144.68 92.54,-154.36 97.63,-149.55"/>
</a>
</g>
</g>
<!-- Node2 -->
<g id="Node000002" class="node">
<title>Node2</title>
<g id="a_Node000002"><a xlink:href="classRealm_1_1IntegerCommandLineOption.html" target="_top" xlink:title=" ">
<polygon fill="white" stroke="#666666" points="354.5,-222 195.5,-222 195.5,-192 354.5,-192 354.5,-222"/>
<text text-anchor="start" x="203.5" y="-210" font-family="Helvetica,sans-Serif" font-size="10.00">Realm::IntegerCommandLine</text>
<text text-anchor="middle" x="275" y="-199" font-family="Helvetica,sans-Serif" font-size="10.00">Option&lt; T &gt;</text>
</a>
</g>
</g>
<!-- Node0&#45;&gt;Node2 -->
<g id="edge95_Node000000_Node000002" class="edge">
<title>Node0&#45;&gt;Node2</title>
<g id="a_edge95_Node000000_Node000002"><a xlink:title=" ">
<path fill="none" stroke="#63b8ff" d="M109.55,-148.8C132.22,-158.94 164.23,-172.69 193,-183 201.7,-186.12 211.02,-189.15 220.13,-191.96"/>
<polygon fill="#63b8ff" stroke="#63b8ff" points="110.7,-145.48 100.14,-144.56 107.82,-151.86 110.7,-145.48"/>
</a>
</g>
</g>
<!-- Node3 -->
<g id="Node000003" class="node">
<title>Node3</title>
<g id="a_Node000003"><a xlink:href="classRealm_1_1IntegerUnitsCommandLineOption.html" target="_top" xlink:title=" ">
<polygon fill="white" stroke="#666666" points="357,-174 193,-174 193,-144 357,-144 357,-174"/>
<text text-anchor="start" x="201" y="-162" font-family="Helvetica,sans-Serif" font-size="10.00">Realm::IntegerUnitsCommand</text>
<text text-anchor="middle" x="275" y="-151" font-family="Helvetica,sans-Serif" font-size="10.00">LineOption&lt; T &gt;</text>
</a>
</g>
</g>
<!-- Node0&#45;&gt;Node3 -->
<g id="edge96_Node000000_Node000003" class="edge">
<title>Node0&#45;&gt;Node3</title>
<g id="a_edge96_Node000000_Node000003"><a xlink:title=" ">
<path fill="none" stroke="#63b8ff" d="M166.76,-145.77C175.42,-146.84 184.19,-147.92 192.79,-148.98"/>
<polygon fill="#63b8ff" stroke="#63b8ff" points="167,-142.27 156.65,-144.52 166.15,-149.22 167,-142.27"/>
</a>
</g>
</g>
<!-- Node4 -->
<g id="Node000004" class="node">
<title>Node4</title>
<g id="a_Node000004"><a xlink:href="classRealm_1_1MethodCommandLineOption.html" target="_top" xlink:title=" ">
<polygon fill="white" stroke="#666666" points="355.5,-126 194.5,-126 194.5,-96 355.5,-96 355.5,-126"/>
<text text-anchor="start" x="202.5" y="-114" font-family="Helvetica,sans-Serif" font-size="10.00">Realm::MethodCommandLine</text>
<text text-anchor="middle" x="275" y="-103" font-family="Helvetica,sans-Serif" font-size="10.00">Option&lt; T &gt;</text>
</a>
</g>
</g>
<!-- Node0&#45;&gt;Node4 -->
<g id="edge97_Node000000_Node000004" class="edge">
<title>Node0&#45;&gt;Node4</title>
<g id="a_edge97_Node000000_Node000004"><a xlink:title=" ">
<path fill="none" stroke="#63b8ff" d="M166.62,-124.25C175.87,-123.11 185.24,-121.95 194.39,-120.82"/>
<polygon fill="#63b8ff" stroke="#63b8ff" points="166.15,-120.78 156.65,-125.48 167,-127.73 166.15,-120.78"/>
</a>
</g>
</g>
<!-- Node5 -->
<g id="Node000005" class="node">
<title>Node5</title>
<g id="a_Node000005"><a xlink:href="classRealm_1_1StringCommandLineOption.html" target="_top" xlink:title=" ">
<polygon fill="white" stroke="#666666" points="351.5,-78 198.5,-78 198.5,-48 351.5,-48 351.5,-78"/>
<text text-anchor="start" x="206.5" y="-66" font-family="Helvetica,sans-Serif" font-size="10.00">Realm::StringCommandLine</text>
<text text-anchor="middle" x="275" y="-55" font-family="Helvetica,sans-Serif" font-size="10.00">Option</text>
</a>
</g>
</g>
<!-- Node0&#45;&gt;Node5 -->
<g id="edge98_Node000000_Node000005" class="edge">
<title>Node0&#45;&gt;Node5</title>
<g id="a_edge98_Node000000_Node000005"><a xlink:title=" ">
<path fill="none" stroke="#63b8ff" d="M109.55,-121.2C132.22,-111.06 164.23,-97.31 193,-87 201.7,-83.88 211.02,-80.85 220.13,-78.04"/>
<polygon fill="#63b8ff" stroke="#63b8ff" points="107.82,-118.14 100.14,-125.44 110.7,-124.52 107.82,-118.14"/>
</a>
</g>
</g>
<!-- Node6 -->
<g id="Node000006" class="node">
<title>Node6</title>
<g id="a_Node000006"><a xlink:href="classRealm_1_1StringListCommandLineOption.html" target="_top" xlink:title=" ">
<polygon fill="white" stroke="#666666" points="350,-30 200,-30 200,0 350,0 350,-30"/>
<text text-anchor="start" x="208" y="-18" font-family="Helvetica,sans-Serif" font-size="10.00">Realm::StringListCommand</text>
<text text-anchor="middle" x="275" y="-7" font-family="Helvetica,sans-Serif" font-size="10.00">LineOption</text>
</a>
</g>
</g>
<!-- Node0&#45;&gt;Node6 -->
<g id="edge99_Node000000_Node000006" class="edge">
<title>Node0&#45;&gt;Node6</title>
<g id="a_edge99_Node000000_Node000006"><a xlink:title=" ">
<path fill="none" stroke="#63b8ff" d="M95.2,-117.93C115.73,-96.56 153.73,-60.2 193,-39 199.32,-35.59 206.19,-32.6 213.17,-30"/>
<polygon fill="#63b8ff" stroke="#63b8ff" points="92.54,-115.64 88.22,-125.32 97.63,-120.45 92.54,-115.64"/>
</a>
</g>
</g>
</g>
</svg>
