<?xml version="1.0" encoding="UTF-8" standalone="no"?>
<!DOCTYPE svg PUBLIC "-//W3C//DTD SVG 1.1//EN"
 "http://www.w3.org/Graphics/SVG/1.1/DTD/svg11.dtd">
<!-- Generated by graphviz version 2.43.0 (0)
 -->
<!-- Title: Graphical Class Hierarchy Pages: 1 -->
<svg width="376pt" height="76pt"
 viewBox="0.00 0.00 376.00 75.50" xmlns="http://www.w3.org/2000/svg" xmlns:xlink="http://www.w3.org/1999/xlink">
<g id="graph0" class="graph" transform="scale(1 1) rotate(0) translate(4 71.5)">
<title>Graphical Class Hierarchy</title>
<!-- Node0 -->
<g id="Node000000" class="node">
<title>Node0</title>
<g id="a_Node000000"><a xlink:href="classRealm_1_1InstanceLayoutGeneric.html" target="_top" xlink:title=" ">
<polygon fill="white" stroke="#666666" points="166,-40 0,-40 0,-21 166,-21 166,-40"/>
<text text-anchor="middle" x="83" y="-28" font-family="Helvetica,sans-Serif" font-size="10.00">Realm::InstanceLayoutGeneric</text>
</a>
</g>
</g>
<!-- Node1 -->
<g id="Node000001" class="node">
<title>Node1</title>
<g id="a_Node000001"><a xlink:href="classRealm_1_1InstanceLayout.html" target="_top" xlink:title=" ">
<polygon fill="white" stroke="#666666" points="349,-67.5 221,-67.5 221,-37.5 349,-37.5 349,-67.5"/>
<text text-anchor="start" x="229" y="-55.5" font-family="Helvetica,sans-Serif" font-size="10.00">Realm::InstanceLayout</text>
<text text-anchor="middle" x="285" y="-44.5" font-family="Helvetica,sans-Serif" font-size="10.00">&lt; N, T &gt;</text>
</a>
</g>
</g>
<!-- Node0&#45;&gt;Node1 -->
<g id="edge163_Node000000_Node000001" class="edge">
<title>Node0&#45;&gt;Node1</title>
<g id="a_edge163_Node000000_Node000001"><a xlink:title=" ">
<path fill="none" stroke="#63b8ff" d="M176.52,-40.68C191.49,-42.32 206.69,-44 220.76,-45.54"/>
<polygon fill="#63b8ff" stroke="#63b8ff" points="176.54,-37.16 166.21,-39.54 175.77,-44.12 176.54,-37.16"/>
</a>
</g>
</g>
<!-- Node2 -->
<g id="Node000002" class="node">
<title>Node2</title>
<g id="a_Node000002"><a xlink:href="classRealm_1_1InstanceLayoutOpaque.html" target="_top" xlink:title=" ">
<polygon fill="white" stroke="#666666" points="368,-19 202,-19 202,0 368,0 368,-19"/>
<text text-anchor="middle" x="285" y="-7" font-family="Helvetica,sans-Serif" font-size="10.00">Realm::InstanceLayoutOpaque</text>
</a>
</g>
</g>
<!-- Node0&#45;&gt;Node2 -->
<g id="edge164_Node000000_Node000002" class="edge">
<title>Node0&#45;&gt;Node2</title>
<g id="a_edge164_Node000000_Node000002"><a xlink:title=" ">
<path fill="none" stroke="#63b8ff" d="M176.19,-20.82C184.73,-19.92 193.34,-19.02 201.78,-18.13"/>
<polygon fill="#63b8ff" stroke="#63b8ff" points="175.79,-17.34 166.21,-21.87 176.52,-24.3 175.79,-17.34"/>
</a>
</g>
</g>
</g>
</svg>
