<?xml version="1.0" encoding="UTF-8" standalone="no"?>
<!DOCTYPE svg PUBLIC "-//W3C//DTD SVG 1.1//EN"
 "http://www.w3.org/Graphics/SVG/1.1/DTD/svg11.dtd">
<!-- Generated by graphviz version 2.43.0 (0)
 -->
<!-- Title: Graphical Class Hierarchy Pages: 1 -->
<svg width="531pt" height="212pt"
 viewBox="0.00 0.00 531.00 212.00" xmlns="http://www.w3.org/2000/svg" xmlns:xlink="http://www.w3.org/1999/xlink">
<g id="graph0" class="graph" transform="scale(1 1) rotate(0) translate(4 208)">
<title>Graphical Class Hierarchy</title>
<!-- Node0 -->
<g id="Node000000" class="node">
<title>Node0</title>
<g id="a_Node000000"><a xlink:href="classRealm_1_1ProcessorImpl.html" target="_top" xlink:title=" ">
<polygon fill="white" stroke="#666666" points="123,-92 0,-92 0,-73 123,-73 123,-92"/>
<text text-anchor="middle" x="61.5" y="-80" font-family="Helvetica,sans-Serif" font-size="10.00">Realm::ProcessorImpl</text>
</a>
</g>
</g>
<!-- Node1 -->
<g id="Node000001" class="node">
<title>Node1</title>
<g id="a_Node000001"><a xlink:href="classRealm_1_1LocalPythonProcessor.html" target="_top" xlink:title=" ">
<polygon fill="white" stroke="#666666" points="320,-148 159,-148 159,-129 320,-129 320,-148"/>
<text text-anchor="middle" x="239.5" y="-136" font-family="Helvetica,sans-Serif" font-size="10.00">Realm::LocalPythonProcessor</text>
</a>
</g>
</g>
<!-- Node0&#45;&gt;Node1 -->
<g id="edge260_Node000000_Node000001" class="edge">
<title>Node0&#45;&gt;Node1</title>
<g id="a_edge260_Node000000_Node000001"><a xlink:title=" ">
<path fill="none" stroke="#63b8ff" d="M93.24,-95.99C111.99,-103.87 136.58,-113.59 159,-120.5 169.14,-123.63 180.17,-126.46 190.68,-128.92"/>
<polygon fill="#63b8ff" stroke="#63b8ff" points="94.58,-92.76 84.01,-92.06 91.84,-99.2 94.58,-92.76"/>
</a>
</g>
</g>
<!-- Node2 -->
<g id="Node000002" class="node">
<title>Node2</title>
<g id="a_Node000002"><a xlink:href="classRealm_1_1LocalTaskProcessor.html" target="_top" xlink:title=" ">
<polygon fill="white" stroke="#666666" points="314,-111 165,-111 165,-92 314,-92 314,-111"/>
<text text-anchor="middle" x="239.5" y="-99" font-family="Helvetica,sans-Serif" font-size="10.00">Realm::LocalTaskProcessor</text>
</a>
</g>
</g>
<!-- Node0&#45;&gt;Node2 -->
<g id="edge261_Node000000_Node000002" class="edge">
<title>Node0&#45;&gt;Node2</title>
<g id="a_edge261_Node000000_Node000002"><a xlink:title=" ">
<path fill="none" stroke="#63b8ff" d="M133.29,-90.14C143.65,-91.26 154.33,-92.41 164.75,-93.54"/>
<polygon fill="#63b8ff" stroke="#63b8ff" points="133.39,-86.63 123.07,-89.04 132.64,-93.59 133.39,-86.63"/>
</a>
</g>
</g>
<!-- Node9 -->
<g id="Node000009" class="node">
<title>Node9</title>
<g id="a_Node000009"><a xlink:href="classRealm_1_1ProcessorGroupImpl.html" target="_top" xlink:title=" ">
<polygon fill="white" stroke="#666666" points="315.5,-74 163.5,-74 163.5,-55 315.5,-55 315.5,-74"/>
<text text-anchor="middle" x="239.5" y="-62" font-family="Helvetica,sans-Serif" font-size="10.00">Realm::ProcessorGroupImpl</text>
</a>
</g>
</g>
<!-- Node0&#45;&gt;Node9 -->
<g id="edge268_Node000000_Node000009" class="edge">
<title>Node0&#45;&gt;Node9</title>
<g id="a_edge268_Node000000_Node000009"><a xlink:title=" ">
<path fill="none" stroke="#63b8ff" d="M133.22,-75.27C143.09,-74.26 153.25,-73.22 163.2,-72.2"/>
<polygon fill="#63b8ff" stroke="#63b8ff" points="132.66,-71.81 123.07,-76.31 133.37,-78.77 132.66,-71.81"/>
</a>
</g>
</g>
<!-- Node10 -->
<g id="Node000010" class="node">
<title>Node10</title>
<g id="a_Node000010"><a xlink:href="classRealm_1_1RemoteProcessor.html" target="_top" xlink:title=" ">
<polygon fill="white" stroke="#666666" points="309.5,-37 169.5,-37 169.5,-18 309.5,-18 309.5,-37"/>
<text text-anchor="middle" x="239.5" y="-25" font-family="Helvetica,sans-Serif" font-size="10.00">Realm::RemoteProcessor</text>
</a>
</g>
</g>
<!-- Node0&#45;&gt;Node10 -->
<g id="edge269_Node000000_Node000010" class="edge">
<title>Node0&#45;&gt;Node10</title>
<g id="a_edge269_Node000000_Node000010"><a xlink:title=" ">
<path fill="none" stroke="#63b8ff" d="M95.08,-69.21C113.62,-61.93 137.4,-53.08 159,-46.5 170.27,-43.07 182.58,-39.86 194.09,-37.1"/>
<polygon fill="#63b8ff" stroke="#63b8ff" points="93.63,-66.02 85.63,-72.96 96.21,-72.53 93.63,-66.02"/>
</a>
</g>
</g>
<!-- Node3 -->
<g id="Node000003" class="node">
<title>Node3</title>
<g id="a_Node000003"><a xlink:href="classRealm_1_1Cuda_1_1GPUProcessor.html" target="_top" xlink:title=" ">
<polygon fill="white" stroke="#666666" points="516,-204 363,-204 363,-185 516,-185 516,-204"/>
<text text-anchor="middle" x="439.5" y="-192" font-family="Helvetica,sans-Serif" font-size="10.00">Realm::Cuda::GPUProcessor</text>
</a>
</g>
</g>
<!-- Node2&#45;&gt;Node3 -->
<g id="edge262_Node000002_Node000003" class="edge">
<title>Node2&#45;&gt;Node3</title>
<g id="a_edge262_Node000002_Node000003"><a xlink:title=" ">
<path fill="none" stroke="#63b8ff" d="M311.38,-115.27C314.39,-116.84 317.28,-118.57 320,-120.5 344.13,-137.62 331.7,-159.62 356,-176.5 360.94,-179.93 366.41,-182.72 372.12,-184.99"/>
<polygon fill="#63b8ff" stroke="#63b8ff" points="312.62,-112 302.07,-111.1 309.76,-118.38 312.62,-112"/>
</a>
</g>
</g>
<!-- Node4 -->
<g id="Node000004" class="node">
<title>Node4</title>
<g id="a_Node000004"><a xlink:href="classRealm_1_1Hip_1_1GPUProcessor.html" target="_top" xlink:title=" ">
<polygon fill="white" stroke="#666666" points="512,-167 367,-167 367,-148 512,-148 512,-167"/>
<text text-anchor="middle" x="439.5" y="-155" font-family="Helvetica,sans-Serif" font-size="10.00">Realm::Hip::GPUProcessor</text>
</a>
</g>
</g>
<!-- Node2&#45;&gt;Node4 -->
<g id="edge263_Node000002_Node000004" class="edge">
<title>Node2&#45;&gt;Node4</title>
<g id="a_edge263_Node000002_Node000004"><a xlink:title=" ">
<path fill="none" stroke="#63b8ff" d="M298.81,-113.65C306.03,-115.67 313.24,-117.96 320,-120.5 336.93,-126.88 339.01,-133.29 356,-139.5 365.09,-142.82 374.97,-145.62 384.64,-147.96"/>
<polygon fill="#63b8ff" stroke="#63b8ff" points="299.57,-110.23 289.01,-111.04 297.78,-116.99 299.57,-110.23"/>
</a>
</g>
</g>
<!-- Node5 -->
<g id="Node000005" class="node">
<title>Node5</title>
<g id="a_Node000005"><a xlink:href="classRealm_1_1LocalCPUProcessor.html" target="_top" xlink:title=" ">
<polygon fill="white" stroke="#666666" points="513,-130 366,-130 366,-111 513,-111 513,-130"/>
<text text-anchor="middle" x="439.5" y="-118" font-family="Helvetica,sans-Serif" font-size="10.00">Realm::LocalCPUProcessor</text>
</a>
</g>
</g>
<!-- Node2&#45;&gt;Node5 -->
<g id="edge264_Node000002_Node000005" class="edge">
<title>Node2&#45;&gt;Node5</title>
<g id="a_edge264_Node000002_Node000005"><a xlink:title=" ">
<path fill="none" stroke="#63b8ff" d="M324.19,-109.53C337.99,-110.85 352.19,-112.22 365.7,-113.51"/>
<polygon fill="#63b8ff" stroke="#63b8ff" points="324.52,-106.05 314.23,-108.57 323.85,-113.01 324.52,-106.05"/>
</a>
</g>
</g>
<!-- Node6 -->
<g id="Node000006" class="node">
<title>Node6</title>
<g id="a_Node000006"><a xlink:href="classRealm_1_1LocalIOProcessor.html" target="_top" xlink:title=" ">
<polygon fill="white" stroke="#666666" points="508,-93 371,-93 371,-74 508,-74 508,-93"/>
<text text-anchor="middle" x="439.5" y="-81" font-family="Helvetica,sans-Serif" font-size="10.00">Realm::LocalIOProcessor</text>
</a>
</g>
</g>
<!-- Node2&#45;&gt;Node6 -->
<g id="edge265_Node000002_Node000006" class="edge">
<title>Node2&#45;&gt;Node6</title>
<g id="a_edge265_Node000002_Node000006"><a xlink:title=" ">
<path fill="none" stroke="#63b8ff" d="M324.35,-93.88C339.89,-92.46 355.95,-91 370.93,-89.64"/>
<polygon fill="#63b8ff" stroke="#63b8ff" points="323.87,-90.41 314.23,-94.8 324.5,-97.38 323.87,-90.41"/>
</a>
</g>
</g>
<!-- Node7 -->
<g id="Node000007" class="node">
<title>Node7</title>
<g id="a_Node000007"><a xlink:href="classRealm_1_1LocalOpenMPProcessor.html" target="_top" xlink:title=" ">
<polygon fill="white" stroke="#666666" points="523,-56 356,-56 356,-37 523,-37 523,-56"/>
<text text-anchor="middle" x="439.5" y="-44" font-family="Helvetica,sans-Serif" font-size="10.00">Realm::LocalOpenMPProcessor</text>
</a>
</g>
</g>
<!-- Node2&#45;&gt;Node7 -->
<g id="edge266_Node000002_Node000007" class="edge">
<title>Node2&#45;&gt;Node7</title>
<g id="a_edge266_Node000002_Node000007"><a xlink:title=" ">
<path fill="none" stroke="#63b8ff" d="M301.15,-89.37C307.58,-87.61 313.97,-85.66 320,-83.5 336.85,-77.48 339.17,-71.55 356,-65.5 366.24,-61.82 377.45,-58.68 388.22,-56.08"/>
<polygon fill="#63b8ff" stroke="#63b8ff" points="299.87,-86.09 291.07,-91.98 301.63,-92.87 299.87,-86.09"/>
</a>
</g>
</g>
<!-- Node8 -->
<g id="Node000008" class="node">
<title>Node8</title>
<g id="a_Node000008"><a xlink:href="classRealm_1_1LocalUtilityProcessor.html" target="_top" xlink:title=" ">
<polygon fill="white" stroke="#666666" points="518,-19 361,-19 361,0 518,0 518,-19"/>
<text text-anchor="middle" x="439.5" y="-7" font-family="Helvetica,sans-Serif" font-size="10.00">Realm::LocalUtilityProcessor</text>
</a>
</g>
</g>
<!-- Node2&#45;&gt;Node8 -->
<g id="edge267_Node000002_Node000008" class="edge">
<title>Node2&#45;&gt;Node8</title>
<g id="a_edge267_Node000002_Node000008"><a xlink:title=" ">
<path fill="none" stroke="#63b8ff" d="M313.31,-87.6C315.63,-86.35 317.86,-84.98 320,-83.5 344,-66.84 332.03,-45.21 356,-28.5 361.55,-24.63 367.76,-21.54 374.23,-19.07"/>
<polygon fill="#63b8ff" stroke="#63b8ff" points="311.64,-84.51 304.05,-91.9 314.59,-90.86 311.64,-84.51"/>
</a>
</g>
</g>
</g>
</svg>
