<?xml version="1.0" encoding="UTF-8" standalone="no"?>
<!DOCTYPE svg PUBLIC "-//W3C//DTD SVG 1.1//EN"
 "http://www.w3.org/Graphics/SVG/1.1/DTD/svg11.dtd">
<!-- Generated by graphviz version 2.43.0 (0)
 -->
<!-- Title: Graphical Class Hierarchy Pages: 1 -->
<svg width="322pt" height="98pt"
 viewBox="0.00 0.00 322.00 97.50" xmlns="http://www.w3.org/2000/svg" xmlns:xlink="http://www.w3.org/1999/xlink">
<g id="graph0" class="graph" transform="scale(1 1) rotate(0) translate(4 93.5)">
<title>Graphical Class Hierarchy</title>
<!-- Node0 -->
<g id="Node000000" class="node">
<title>Node0</title>
<g id="a_Node000000"><a xlink:href="classRealm_1_1CopyIndirection_1_1Base.html" target="_top" xlink:title=" ">
<polygon fill="white" stroke="#666666" points="131,-62.5 0,-62.5 0,-32.5 131,-32.5 131,-62.5"/>
<text text-anchor="start" x="8" y="-50.5" font-family="Helvetica,sans-Serif" font-size="10.00">Realm::CopyIndirection</text>
<text text-anchor="middle" x="65.5" y="-39.5" font-family="Helvetica,sans-Serif" font-size="10.00">&lt; N, T &gt;::Base</text>
</a>
</g>
</g>
<!-- Node1 -->
<g id="Node000001" class="node">
<title>Node1</title>
<g id="a_Node000001"><a xlink:href="classRealm_1_1CopyIndirection_1_1Affine.html" target="_top" xlink:title=" ">
<polygon fill="white" stroke="#666666" points="314,-89.5 167,-89.5 167,-59.5 314,-59.5 314,-89.5"/>
<text text-anchor="start" x="175" y="-77.5" font-family="Helvetica,sans-Serif" font-size="10.00">Realm::CopyIndirection</text>
<text text-anchor="middle" x="240.5" y="-66.5" font-family="Helvetica,sans-Serif" font-size="10.00">&lt; N, T &gt;::Affine&lt; N2, T2 &gt;</text>
</a>
</g>
</g>
<!-- Node0&#45;&gt;Node1 -->
<g id="edge103_Node000000_Node000001" class="edge">
<title>Node0&#45;&gt;Node1</title>
<g id="a_edge103_Node000000_Node000001"><a xlink:title=" ">
<path fill="none" stroke="#63b8ff" d="M141.31,-59.18C149.82,-60.5 158.49,-61.86 166.97,-63.18"/>
<polygon fill="#63b8ff" stroke="#63b8ff" points="141.83,-55.71 131.41,-57.63 140.75,-62.63 141.83,-55.71"/>
</a>
</g>
</g>
<!-- Node2 -->
<g id="Node000002" class="node">
<title>Node2</title>
<g id="a_Node000002"><a xlink:href="classRealm_1_1CopyIndirection_1_1Unstructured.html" target="_top" xlink:title=" ">
<polygon fill="white" stroke="#666666" points="306,-41 175,-41 175,0 306,0 306,-41"/>
<text text-anchor="start" x="183" y="-29" font-family="Helvetica,sans-Serif" font-size="10.00">Realm::CopyIndirection</text>
<text text-anchor="start" x="183" y="-18" font-family="Helvetica,sans-Serif" font-size="10.00">&lt; N, T &gt;::Unstructured</text>
<text text-anchor="middle" x="240.5" y="-7" font-family="Helvetica,sans-Serif" font-size="10.00">&lt; N2, T2 &gt;</text>
</a>
</g>
</g>
<!-- Node0&#45;&gt;Node2 -->
<g id="edge104_Node000000_Node000002" class="edge">
<title>Node0&#45;&gt;Node2</title>
<g id="a_edge104_Node000000_Node000002"><a xlink:title=" ">
<path fill="none" stroke="#63b8ff" d="M141.5,-35.79C152.59,-34.06 163.94,-32.29 174.8,-30.6"/>
<polygon fill="#63b8ff" stroke="#63b8ff" points="140.75,-32.37 131.41,-37.37 141.83,-39.29 140.75,-32.37"/>
</a>
</g>
</g>
</g>
</svg>
