<?xml version="1.0" encoding="UTF-8" standalone="no"?>
<!DOCTYPE svg PUBLIC "-//W3C//DTD SVG 1.1//EN"
 "http://www.w3.org/Graphics/SVG/1.1/DTD/svg11.dtd">
<!-- Generated by graphviz version 2.43.0 (0)
 -->
<!-- Title: Graphical Class Hierarchy Pages: 1 -->
<svg width="729pt" height="875pt"
 viewBox="0.00 0.00 729.00 874.50" xmlns="http://www.w3.org/2000/svg" xmlns:xlink="http://www.w3.org/1999/xlink">
<g id="graph0" class="graph" transform="scale(1 1) rotate(0) translate(4 870.5)">
<title>Graphical Class Hierarchy</title>
<!-- Node0 -->
<g id="Node000000" class="node">
<title>Node0</title>
<g id="a_Node000000"><a xlink:href="classRealm_1_1Channel.html" target="_top" xlink:title=" ">
<polygon fill="white" stroke="#666666" points="94,-275.5 0,-275.5 0,-256.5 94,-256.5 94,-275.5"/>
<text text-anchor="middle" x="47" y="-263.5" font-family="Helvetica,sans-Serif" font-size="10.00">Realm::Channel</text>
</a>
</g>
</g>
<!-- Node1 -->
<g id="Node000001" class="node">
<title>Node1</title>
<g id="a_Node000001"><a xlink:href="classRealm_1_1LocalChannel.html" target="_top" xlink:title=" ">
<polygon fill="white" stroke="#666666" points="255.5,-479.5 136.5,-479.5 136.5,-460.5 255.5,-460.5 255.5,-479.5"/>
<text text-anchor="middle" x="196" y="-467.5" font-family="Helvetica,sans-Serif" font-size="10.00">Realm::LocalChannel</text>
</a>
</g>
</g>
<!-- Node0&#45;&gt;Node1 -->
<g id="edge57_Node000000_Node000001" class="edge">
<title>Node0&#45;&gt;Node1</title>
<g id="a_edge57_Node000000_Node000001"><a xlink:title=" ">
<path fill="none" stroke="#63b8ff" d="M60.92,-283.93C90.99,-325.65 164.82,-428.12 187.95,-460.22"/>
<polygon fill="#63b8ff" stroke="#63b8ff" points="63.58,-281.63 54.89,-275.57 57.9,-285.73 63.58,-281.63"/>
</a>
</g>
</g>
<!-- Node32 -->
<g id="Node000032" class="node">
<title>Node32</title>
<g id="a_Node000032"><a xlink:href="classRealm_1_1RemoteChannel.html" target="_top" xlink:title=" ">
<polygon fill="white" stroke="#666666" points="262,-96.5 130,-96.5 130,-77.5 262,-77.5 262,-96.5"/>
<text text-anchor="middle" x="196" y="-84.5" font-family="Helvetica,sans-Serif" font-size="10.00">Realm::RemoteChannel</text>
</a>
</g>
</g>
<!-- Node0&#45;&gt;Node32 -->
<g id="edge88_Node000000_Node000032" class="edge">
<title>Node0&#45;&gt;Node32</title>
<g id="a_edge88_Node000000_Node000032"><a xlink:title=" ">
<path fill="none" stroke="#63b8ff" d="M62.44,-248.41C93.01,-211.19 163.38,-125.51 187.06,-96.67"/>
<polygon fill="#63b8ff" stroke="#63b8ff" points="59.55,-246.43 55.9,-256.38 64.95,-250.87 59.55,-246.43"/>
</a>
</g>
</g>
<!-- Node2 -->
<g id="Node000002" class="node">
<title>Node2</title>
<g id="a_Node000002"><a xlink:href="classRealm_1_1SingleXDQChannel.html" target="_top" xlink:title=" ">
<polygon fill="white" stroke="#666666" points="479.5,-866.5 324.5,-866.5 324.5,-825.5 479.5,-825.5 479.5,-866.5"/>
<text text-anchor="start" x="332.5" y="-854.5" font-family="Helvetica,sans-Serif" font-size="10.00">Realm::SingleXDQChannel</text>
<text text-anchor="start" x="332.5" y="-843.5" font-family="Helvetica,sans-Serif" font-size="10.00">&lt; AddressSplitChannel,</text>
<text text-anchor="middle" x="402" y="-832.5" font-family="Helvetica,sans-Serif" font-size="10.00"> AddressSplitXferDesBase &gt;</text>
</a>
</g>
</g>
<!-- Node1&#45;&gt;Node2 -->
<g id="edge58_Node000001_Node000002" class="edge">
<title>Node1&#45;&gt;Node2</title>
<g id="a_edge58_Node000001_Node000002"><a xlink:title=" ">
<path fill="none" stroke="#63b8ff" d="M197.21,-489.9C198.88,-546.84 211.35,-712.27 298,-806 305.36,-813.96 314.48,-820.35 324.24,-825.48"/>
<polygon fill="#63b8ff" stroke="#63b8ff" points="200.71,-489.67 197,-479.74 193.71,-489.81 200.71,-489.67"/>
</a>
</g>
</g>
<!-- Node4 -->
<g id="Node000004" class="node">
<title>Node4</title>
<g id="a_Node000004"><a xlink:href="classRealm_1_1SingleXDQChannel.html" target="_top" xlink:title=" ">
<polygon fill="white" stroke="#666666" points="485,-797 319,-797 319,-767 485,-767 485,-797"/>
<text text-anchor="start" x="327" y="-785" font-family="Helvetica,sans-Serif" font-size="10.00">Realm::SingleXDQChannel</text>
<text text-anchor="middle" x="402" y="-774" font-family="Helvetica,sans-Serif" font-size="10.00">&lt; GPUChannel, GPUXferDes &gt;</text>
</a>
</g>
</g>
<!-- Node1&#45;&gt;Node4 -->
<g id="edge60_Node000001_Node000004" class="edge">
<title>Node1&#45;&gt;Node4</title>
<g id="a_edge60_Node000001_Node000004"><a xlink:title=" ">
<path fill="none" stroke="#63b8ff" d="M197.74,-490.03C200.8,-542.5 216.6,-684.97 298,-758 304.15,-763.52 311.32,-767.84 318.96,-771.21"/>
<polygon fill="#63b8ff" stroke="#63b8ff" points="201.22,-489.55 197.24,-479.73 194.23,-489.89 201.22,-489.55"/>
</a>
</g>
</g>
<!-- Node7 -->
<g id="Node000007" class="node">
<title>Node7</title>
<g id="a_Node000007"><a xlink:href="classRealm_1_1SingleXDQChannel.html" target="_top" xlink:title=" ">
<polygon fill="white" stroke="#666666" points="475,-748.5 329,-748.5 329,-707.5 475,-707.5 475,-748.5"/>
<text text-anchor="start" x="337" y="-736.5" font-family="Helvetica,sans-Serif" font-size="10.00">Realm::SingleXDQChannel</text>
<text text-anchor="start" x="337" y="-725.5" font-family="Helvetica,sans-Serif" font-size="10.00">&lt; GPUIndirectChannel,</text>
<text text-anchor="middle" x="402" y="-714.5" font-family="Helvetica,sans-Serif" font-size="10.00"> GPUIndirectXferDes &gt;</text>
</a>
</g>
</g>
<!-- Node1&#45;&gt;Node7 -->
<g id="edge63_Node000001_Node000007" class="edge">
<title>Node1&#45;&gt;Node7</title>
<g id="a_edge63_Node000001_Node000007"><a xlink:title=" ">
<path fill="none" stroke="#63b8ff" d="M200.07,-490.02C207.93,-534.3 232.95,-641.1 298,-698 306.9,-705.79 317.73,-711.56 328.97,-715.83"/>
<polygon fill="#63b8ff" stroke="#63b8ff" points="203.49,-489.24 198.39,-479.96 196.59,-490.4 203.49,-489.24"/>
</a>
</g>
</g>
<!-- Node9 -->
<g id="Node000009" class="node">
<title>Node9</title>
<g id="a_Node000009"><a xlink:href="classRealm_1_1SingleXDQChannel.html" target="_top" xlink:title=" ">
<polygon fill="white" stroke="#666666" points="497,-689 307,-689 307,-659 497,-659 497,-689"/>
<text text-anchor="start" x="315" y="-677" font-family="Helvetica,sans-Serif" font-size="10.00">Realm::SingleXDQChannel</text>
<text text-anchor="middle" x="402" y="-666" font-family="Helvetica,sans-Serif" font-size="10.00">&lt; GPUfillChannel, GPUfillXferDes &gt;</text>
</a>
</g>
</g>
<!-- Node1&#45;&gt;Node9 -->
<g id="edge65_Node000001_Node000009" class="edge">
<title>Node1&#45;&gt;Node9</title>
<g id="a_edge65_Node000001_Node000009"><a xlink:title=" ">
<path fill="none" stroke="#63b8ff" d="M202.15,-489.29C213.12,-526.52 242.45,-608.28 298,-650 302.55,-653.42 307.51,-656.36 312.71,-658.89"/>
<polygon fill="#63b8ff" stroke="#63b8ff" points="205.51,-488.32 199.43,-479.65 198.77,-490.22 205.51,-488.32"/>
</a>
</g>
</g>
<!-- Node12 -->
<g id="Node000012" class="node">
<title>Node12</title>
<g id="a_Node000012"><a xlink:href="classRealm_1_1SingleXDQChannel.html" target="_top" xlink:title=" ">
<polygon fill="white" stroke="#666666" points="493,-640.5 311,-640.5 311,-599.5 493,-599.5 493,-640.5"/>
<text text-anchor="start" x="319" y="-628.5" font-family="Helvetica,sans-Serif" font-size="10.00">Realm::SingleXDQChannel</text>
<text text-anchor="start" x="319" y="-617.5" font-family="Helvetica,sans-Serif" font-size="10.00">&lt; GPUreduceChannel, GPUreduce</text>
<text text-anchor="middle" x="402" y="-606.5" font-family="Helvetica,sans-Serif" font-size="10.00">XferDes &gt;</text>
</a>
</g>
</g>
<!-- Node1&#45;&gt;Node12 -->
<g id="edge68_Node000001_Node000012" class="edge">
<title>Node1&#45;&gt;Node12</title>
<g id="a_edge68_Node000001_Node000012"><a xlink:title=" ">
<path fill="none" stroke="#63b8ff" d="M207.59,-488.42C223.72,-514.84 256.95,-563.26 298,-590 303.46,-593.56 309.36,-596.7 315.46,-599.48"/>
<polygon fill="#63b8ff" stroke="#63b8ff" points="210.55,-486.56 202.43,-479.76 204.54,-490.14 210.55,-486.56"/>
</a>
</g>
</g>
<!-- Node15 -->
<g id="Node000015" class="node">
<title>Node15</title>
<g id="a_Node000015"><a xlink:href="classRealm_1_1SingleXDQChannel.html" target="_top" xlink:title=" ">
<polygon fill="white" stroke="#666666" points="485.5,-581 318.5,-581 318.5,-551 485.5,-551 485.5,-581"/>
<text text-anchor="start" x="326.5" y="-569" font-family="Helvetica,sans-Serif" font-size="10.00">Realm::SingleXDQChannel</text>
<text text-anchor="middle" x="402" y="-558" font-family="Helvetica,sans-Serif" font-size="10.00">&lt; DiskChannel, DiskXferDes &gt;</text>
</a>
</g>
</g>
<!-- Node1&#45;&gt;Node15 -->
<g id="edge71_Node000001_Node000015" class="edge">
<title>Node1&#45;&gt;Node15</title>
<g id="a_edge71_Node000001_Node000015"><a xlink:title=" ">
<path fill="none" stroke="#63b8ff" d="M214.98,-486.18C234.2,-502.62 266.2,-527.64 298,-542 305.61,-545.44 313.78,-548.41 322.05,-550.98"/>
<polygon fill="#63b8ff" stroke="#63b8ff" points="217.17,-483.45 207.34,-479.51 212.57,-488.72 217.17,-483.45"/>
</a>
</g>
</g>
<!-- Node17 -->
<g id="Node000017" class="node">
<title>Node17</title>
<g id="a_Node000017"><a xlink:href="classRealm_1_1SingleXDQChannel.html" target="_top" xlink:title=" ">
<polygon fill="white" stroke="#666666" points="481,-533 323,-533 323,-503 481,-503 481,-533"/>
<text text-anchor="start" x="331" y="-521" font-family="Helvetica,sans-Serif" font-size="10.00">Realm::SingleXDQChannel</text>
<text text-anchor="middle" x="402" y="-510" font-family="Helvetica,sans-Serif" font-size="10.00">&lt; FileChannel, FileXferDes &gt;</text>
</a>
</g>
</g>
<!-- Node1&#45;&gt;Node17 -->
<g id="edge73_Node000001_Node000017" class="edge">
<title>Node1&#45;&gt;Node17</title>
<g id="a_edge73_Node000001_Node000017"><a xlink:title=" ">
<path fill="none" stroke="#63b8ff" d="M246.7,-481.86C263.04,-485.74 281.29,-490.07 298,-494 310.33,-496.9 323.5,-499.98 336.16,-502.94"/>
<polygon fill="#63b8ff" stroke="#63b8ff" points="247.34,-478.41 236.81,-479.5 245.72,-485.22 247.34,-478.41"/>
</a>
</g>
</g>
<!-- Node19 -->
<g id="Node000019" class="node">
<title>Node19</title>
<g id="a_Node000019"><a xlink:href="classRealm_1_1SingleXDQChannel.html" target="_top" xlink:title=" ">
<polygon fill="white" stroke="#666666" points="501.5,-485 302.5,-485 302.5,-455 501.5,-455 501.5,-485"/>
<text text-anchor="start" x="310.5" y="-473" font-family="Helvetica,sans-Serif" font-size="10.00">Realm::SingleXDQChannel</text>
<text text-anchor="middle" x="402" y="-462" font-family="Helvetica,sans-Serif" font-size="10.00">&lt; GASNetChannel, GASNetXferDes &gt;</text>
</a>
</g>
</g>
<!-- Node1&#45;&gt;Node19 -->
<g id="edge75_Node000001_Node000019" class="edge">
<title>Node1&#45;&gt;Node19</title>
<g id="a_edge75_Node000001_Node000019"><a xlink:title=" ">
<path fill="none" stroke="#63b8ff" d="M265.86,-470C277.59,-470 289.98,-470 302.31,-470"/>
<polygon fill="#63b8ff" stroke="#63b8ff" points="265.73,-466.5 255.73,-470 265.73,-473.5 265.73,-466.5"/>
</a>
</g>
</g>
<!-- Node21 -->
<g id="Node000021" class="node">
<title>Node21</title>
<g id="a_Node000021"><a xlink:href="classRealm_1_1SingleXDQChannel.html" target="_top" xlink:title=" ">
<polygon fill="white" stroke="#666666" points="491,-437 313,-437 313,-407 491,-407 491,-437"/>
<text text-anchor="start" x="321" y="-425" font-family="Helvetica,sans-Serif" font-size="10.00">Realm::SingleXDQChannel</text>
<text text-anchor="middle" x="402" y="-414" font-family="Helvetica,sans-Serif" font-size="10.00">&lt; HDF5Channel, HDF5XferDes &gt;</text>
</a>
</g>
</g>
<!-- Node1&#45;&gt;Node21 -->
<g id="edge77_Node000001_Node000021" class="edge">
<title>Node1&#45;&gt;Node21</title>
<g id="a_edge77_Node000001_Node000021"><a xlink:title=" ">
<path fill="none" stroke="#63b8ff" d="M246.7,-458.14C263.04,-454.26 281.29,-449.93 298,-446 310.33,-443.1 323.5,-440.02 336.16,-437.06"/>
<polygon fill="#63b8ff" stroke="#63b8ff" points="245.72,-454.78 236.81,-460.5 247.34,-461.59 245.72,-454.78"/>
</a>
</g>
</g>
<!-- Node23 -->
<g id="Node000023" class="node">
<title>Node23</title>
<g id="a_Node000023"><a xlink:href="classRealm_1_1SingleXDQChannel.html" target="_top" xlink:title=" ">
<polygon fill="white" stroke="#666666" points="506,-389 298,-389 298,-359 506,-359 506,-389"/>
<text text-anchor="start" x="306" y="-377" font-family="Helvetica,sans-Serif" font-size="10.00">Realm::SingleXDQChannel</text>
<text text-anchor="middle" x="402" y="-366" font-family="Helvetica,sans-Serif" font-size="10.00">&lt; MemcpyChannel, MemcpyXferDes &gt;</text>
</a>
</g>
</g>
<!-- Node1&#45;&gt;Node23 -->
<g id="edge79_Node000001_Node000023" class="edge">
<title>Node1&#45;&gt;Node23</title>
<g id="a_edge79_Node000001_Node000023"><a xlink:title=" ">
<path fill="none" stroke="#63b8ff" d="M214.98,-453.82C234.2,-437.38 266.2,-412.36 298,-398 305.61,-394.56 313.78,-391.59 322.05,-389.02"/>
<polygon fill="#63b8ff" stroke="#63b8ff" points="212.57,-451.28 207.34,-460.49 217.17,-456.55 212.57,-451.28"/>
</a>
</g>
</g>
<!-- Node25 -->
<g id="Node000025" class="node">
<title>Node25</title>
<g id="a_Node000025"><a xlink:href="classRealm_1_1SingleXDQChannel.html" target="_top" xlink:title=" ">
<polygon fill="white" stroke="#666666" points="500.5,-341 303.5,-341 303.5,-311 500.5,-311 500.5,-341"/>
<text text-anchor="start" x="311.5" y="-329" font-family="Helvetica,sans-Serif" font-size="10.00">Realm::SingleXDQChannel</text>
<text text-anchor="middle" x="402" y="-318" font-family="Helvetica,sans-Serif" font-size="10.00">&lt; MemfillChannel, MemfillXferDes &gt;</text>
</a>
</g>
</g>
<!-- Node1&#45;&gt;Node25 -->
<g id="edge81_Node000001_Node000025" class="edge">
<title>Node1&#45;&gt;Node25</title>
<g id="a_edge81_Node000001_Node000025"><a xlink:title=" ">
<path fill="none" stroke="#63b8ff" d="M207.16,-451.68C222.97,-424.97 256.03,-375.73 298,-350 303.63,-346.54 309.72,-343.59 316.02,-341.05"/>
<polygon fill="#63b8ff" stroke="#63b8ff" points="204.09,-450 202.14,-460.41 210.16,-453.49 204.09,-450"/>
</a>
</g>
</g>
<!-- Node27 -->
<g id="Node000027" class="node">
<title>Node27</title>
<g id="a_Node000027"><a xlink:href="classRealm_1_1SingleXDQChannel.html" target="_top" xlink:title=" ">
<polygon fill="white" stroke="#666666" points="496.5,-292.5 307.5,-292.5 307.5,-251.5 496.5,-251.5 496.5,-292.5"/>
<text text-anchor="start" x="315.5" y="-280.5" font-family="Helvetica,sans-Serif" font-size="10.00">Realm::SingleXDQChannel</text>
<text text-anchor="start" x="315.5" y="-269.5" font-family="Helvetica,sans-Serif" font-size="10.00">&lt; MemreduceChannel, Memreduce</text>
<text text-anchor="middle" x="402" y="-258.5" font-family="Helvetica,sans-Serif" font-size="10.00">XferDes &gt;</text>
</a>
</g>
</g>
<!-- Node1&#45;&gt;Node27 -->
<g id="edge83_Node000001_Node000027" class="edge">
<title>Node1&#45;&gt;Node27</title>
<g id="a_edge83_Node000001_Node000027"><a xlink:title=" ">
<path fill="none" stroke="#63b8ff" d="M203.23,-450.8C215.56,-415.83 246.45,-341.72 298,-302 302.57,-298.48 307.55,-295.37 312.76,-292.62"/>
<polygon fill="#63b8ff" stroke="#63b8ff" points="199.9,-449.72 199.99,-460.31 206.52,-451.97 199.9,-449.72"/>
</a>
</g>
</g>
<!-- Node29 -->
<g id="Node000029" class="node">
<title>Node29</title>
<g id="a_Node000029"><a xlink:href="classRealm_1_1SingleXDQChannel.html" target="_top" xlink:title=" ">
<polygon fill="white" stroke="#666666" points="475,-233.5 329,-233.5 329,-192.5 475,-192.5 475,-233.5"/>
<text text-anchor="start" x="337" y="-221.5" font-family="Helvetica,sans-Serif" font-size="10.00">Realm::SingleXDQChannel</text>
<text text-anchor="start" x="337" y="-210.5" font-family="Helvetica,sans-Serif" font-size="10.00">&lt; RemoteWriteChannel,</text>
<text text-anchor="middle" x="402" y="-199.5" font-family="Helvetica,sans-Serif" font-size="10.00"> RemoteWriteXferDes &gt;</text>
</a>
</g>
</g>
<!-- Node1&#45;&gt;Node29 -->
<g id="edge85_Node000001_Node000029" class="edge">
<title>Node1&#45;&gt;Node29</title>
<g id="a_edge85_Node000001_Node000029"><a xlink:title=" ">
<path fill="none" stroke="#63b8ff" d="M200.1,-450.06C208.02,-405.97 233.14,-299.63 298,-243 306.91,-235.22 317.74,-229.46 328.98,-225.18"/>
<polygon fill="#63b8ff" stroke="#63b8ff" points="196.62,-449.64 198.41,-460.09 203.52,-450.81 196.62,-449.64"/>
</a>
</g>
</g>
<!-- Node31 -->
<g id="Node000031" class="node">
<title>Node31</title>
<g id="a_Node000031"><a xlink:href="classRealm_1_1SingleXDQChannel.html" target="_top" xlink:title=" ">
<polygon fill="white" stroke="#666666" points="475,-174 329,-174 329,-144 475,-144 475,-174"/>
<text text-anchor="start" x="337" y="-162" font-family="Helvetica,sans-Serif" font-size="10.00">Realm::SingleXDQChannel</text>
<text text-anchor="middle" x="402" y="-151" font-family="Helvetica,sans-Serif" font-size="10.00">&lt; CHANNEL, XD &gt;</text>
</a>
</g>
</g>
<!-- Node1&#45;&gt;Node31 -->
<g id="edge87_Node000001_Node000031" class="edge">
<title>Node1&#45;&gt;Node31</title>
<g id="a_edge87_Node000001_Node000031"><a xlink:title=" ">
<path fill="none" stroke="#63b8ff" d="M197.76,-450.04C200.89,-397.74 216.81,-255.76 298,-183 306.75,-175.16 317.56,-169.74 328.86,-166.02"/>
<polygon fill="#63b8ff" stroke="#63b8ff" points="194.25,-450.14 197.25,-460.3 201.24,-450.49 194.25,-450.14"/>
</a>
</g>
</g>
<!-- Node3 -->
<g id="Node000003" class="node">
<title>Node3</title>
<g id="a_Node000003"><a xlink:href="classRealm_1_1AddressSplitChannel.html" target="_top" xlink:title=" ">
<polygon fill="white" stroke="#666666" points="709,-864.5 554,-864.5 554,-845.5 709,-845.5 709,-864.5"/>
<text text-anchor="middle" x="631.5" y="-852.5" font-family="Helvetica,sans-Serif" font-size="10.00">Realm::AddressSplitChannel</text>
</a>
</g>
</g>
<!-- Node2&#45;&gt;Node3 -->
<g id="edge59_Node000002_Node000003" class="edge">
<title>Node2&#45;&gt;Node3</title>
<g id="a_edge59_Node000002_Node000003"><a xlink:title=" ">
<path fill="none" stroke="#63b8ff" d="M489.9,-849.44C510.92,-850.27 533.23,-851.15 553.74,-851.96"/>
<polygon fill="#63b8ff" stroke="#63b8ff" points="489.83,-845.93 479.7,-849.03 489.56,-852.93 489.83,-845.93"/>
</a>
</g>
</g>
<!-- Node5 -->
<g id="Node000005" class="node">
<title>Node5</title>
<g id="a_Node000005"><a xlink:href="classRealm_1_1Cuda_1_1GPUChannel.html" target="_top" xlink:title=" ">
<polygon fill="white" stroke="#666666" points="704.5,-827.5 558.5,-827.5 558.5,-808.5 704.5,-808.5 704.5,-827.5"/>
<text text-anchor="middle" x="631.5" y="-815.5" font-family="Helvetica,sans-Serif" font-size="10.00">Realm::Cuda::GPUChannel</text>
</a>
</g>
</g>
<!-- Node4&#45;&gt;Node5 -->
<g id="edge61_Node000004_Node000005" class="edge">
<title>Node4&#45;&gt;Node5</title>
<g id="a_edge61_Node000004_Node000005"><a xlink:title=" ">
<path fill="none" stroke="#63b8ff" d="M495.12,-796.58C520.44,-800.58 547.25,-804.83 570.26,-808.47"/>
<polygon fill="#63b8ff" stroke="#63b8ff" points="495.56,-793.1 485.13,-795 494.46,-800.02 495.56,-793.1"/>
</a>
</g>
</g>
<!-- Node6 -->
<g id="Node000006" class="node">
<title>Node6</title>
<g id="a_Node000006"><a xlink:href="classRealm_1_1Hip_1_1GPUChannel.html" target="_top" xlink:title=" ">
<polygon fill="white" stroke="#666666" points="700,-790.5 563,-790.5 563,-771.5 700,-771.5 700,-790.5"/>
<text text-anchor="middle" x="631.5" y="-778.5" font-family="Helvetica,sans-Serif" font-size="10.00">Realm::Hip::GPUChannel</text>
</a>
</g>
</g>
<!-- Node4&#45;&gt;Node6 -->
<g id="edge62_Node000004_Node000006" class="edge">
<title>Node4&#45;&gt;Node6</title>
<g id="a_edge62_Node000004_Node000006"><a xlink:title=" ">
<path fill="none" stroke="#63b8ff" d="M495.38,-781.59C517.9,-781.49 541.57,-781.39 562.7,-781.3"/>
<polygon fill="#63b8ff" stroke="#63b8ff" points="495.12,-778.09 485.13,-781.64 495.15,-785.09 495.12,-778.09"/>
</a>
</g>
</g>
<!-- Node8 -->
<g id="Node000008" class="node">
<title>Node8</title>
<g id="a_Node000008"><a xlink:href="classRealm_1_1Cuda_1_1GPUIndirectChannel.html" target="_top" xlink:title=" ">
<polygon fill="white" stroke="#666666" points="703,-753 560,-753 560,-723 703,-723 703,-753"/>
<text text-anchor="start" x="568" y="-741" font-family="Helvetica,sans-Serif" font-size="10.00">Realm::Cuda::GPUIndirect</text>
<text text-anchor="middle" x="631.5" y="-730" font-family="Helvetica,sans-Serif" font-size="10.00">Channel</text>
</a>
</g>
</g>
<!-- Node7&#45;&gt;Node8 -->
<g id="edge64_Node000007_Node000008" class="edge">
<title>Node7&#45;&gt;Node8</title>
<g id="a_edge64_Node000007_Node000008"><a xlink:title=" ">
<path fill="none" stroke="#63b8ff" d="M485.6,-731.63C509.97,-732.7 536.41,-733.86 559.95,-734.9"/>
<polygon fill="#63b8ff" stroke="#63b8ff" points="485.44,-728.12 475.3,-731.18 485.13,-735.11 485.44,-728.12"/>
</a>
</g>
</g>
<!-- Node10 -->
<g id="Node000010" class="node">
<title>Node10</title>
<g id="a_Node000010"><a xlink:href="classRealm_1_1Cuda_1_1GPUfillChannel.html" target="_top" xlink:title=" ">
<polygon fill="white" stroke="#666666" points="710.5,-704.5 552.5,-704.5 552.5,-685.5 710.5,-685.5 710.5,-704.5"/>
<text text-anchor="middle" x="631.5" y="-692.5" font-family="Helvetica,sans-Serif" font-size="10.00">Realm::Cuda::GPUfillChannel</text>
</a>
</g>
</g>
<!-- Node9&#45;&gt;Node10 -->
<g id="edge66_Node000009_Node000010" class="edge">
<title>Node9&#45;&gt;Node10</title>
<g id="a_edge66_Node000009_Node000010"><a xlink:title=" ">
<path fill="none" stroke="#63b8ff" d="M507.55,-683.65C522.6,-685.04 537.88,-686.45 552.3,-687.78"/>
<polygon fill="#63b8ff" stroke="#63b8ff" points="507.45,-680.13 497.18,-682.69 506.81,-687.1 507.45,-680.13"/>
</a>
</g>
</g>
<!-- Node11 -->
<g id="Node000011" class="node">
<title>Node11</title>
<g id="a_Node000011"><a xlink:href="classRealm_1_1Hip_1_1GPUfillChannel.html" target="_top" xlink:title=" ">
<polygon fill="white" stroke="#666666" points="706,-667.5 557,-667.5 557,-648.5 706,-648.5 706,-667.5"/>
<text text-anchor="middle" x="631.5" y="-655.5" font-family="Helvetica,sans-Serif" font-size="10.00">Realm::Hip::GPUfillChannel</text>
</a>
</g>
</g>
<!-- Node9&#45;&gt;Node11 -->
<g id="edge67_Node000009_Node000011" class="edge">
<title>Node9&#45;&gt;Node11</title>
<g id="a_edge67_Node000009_Node000011"><a xlink:title=" ">
<path fill="none" stroke="#63b8ff" d="M507.51,-666.65C524.18,-665.48 541.12,-664.29 556.88,-663.18"/>
<polygon fill="#63b8ff" stroke="#63b8ff" points="506.9,-663.18 497.18,-667.38 507.4,-670.17 506.9,-663.18"/>
</a>
</g>
</g>
<!-- Node13 -->
<g id="Node000013" class="node">
<title>Node13</title>
<g id="a_Node000013"><a xlink:href="classRealm_1_1Cuda_1_1GPUreduceChannel.html" target="_top" xlink:title=" ">
<polygon fill="white" stroke="#666666" points="721,-630.5 542,-630.5 542,-611.5 721,-611.5 721,-630.5"/>
<text text-anchor="middle" x="631.5" y="-618.5" font-family="Helvetica,sans-Serif" font-size="10.00">Realm::Cuda::GPUreduceChannel</text>
</a>
</g>
</g>
<!-- Node12&#45;&gt;Node13 -->
<g id="edge69_Node000012_Node000013" class="edge">
<title>Node12&#45;&gt;Node13</title>
<g id="a_edge69_Node000012_Node000013"><a xlink:title=" ">
<path fill="none" stroke="#63b8ff" d="M503.44,-620.44C516.24,-620.5 529.26,-620.56 541.85,-620.61"/>
<polygon fill="#63b8ff" stroke="#63b8ff" points="503.26,-616.94 493.24,-620.4 503.23,-623.94 503.26,-616.94"/>
</a>
</g>
</g>
<!-- Node14 -->
<g id="Node000014" class="node">
<title>Node14</title>
<g id="a_Node000014"><a xlink:href="classRealm_1_1Hip_1_1GPUreduceChannel.html" target="_top" xlink:title=" ">
<polygon fill="white" stroke="#666666" points="716.5,-593.5 546.5,-593.5 546.5,-574.5 716.5,-574.5 716.5,-593.5"/>
<text text-anchor="middle" x="631.5" y="-581.5" font-family="Helvetica,sans-Serif" font-size="10.00">Realm::Hip::GPUreduceChannel</text>
</a>
</g>
</g>
<!-- Node12&#45;&gt;Node14 -->
<g id="edge70_Node000012_Node000014" class="edge">
<title>Node12&#45;&gt;Node14</title>
<g id="a_edge70_Node000012_Node000014"><a xlink:title=" ">
<path fill="none" stroke="#63b8ff" d="M503.34,-604.12C526.23,-600.5 549.85,-596.76 570.42,-593.51"/>
<polygon fill="#63b8ff" stroke="#63b8ff" points="502.57,-600.7 493.24,-605.72 503.66,-607.61 502.57,-600.7"/>
</a>
</g>
</g>
<!-- Node16 -->
<g id="Node000016" class="node">
<title>Node16</title>
<g id="a_Node000016"><a xlink:href="classRealm_1_1DiskChannel.html" target="_top" xlink:title=" ">
<polygon fill="white" stroke="#666666" points="689.5,-556.5 573.5,-556.5 573.5,-537.5 689.5,-537.5 689.5,-556.5"/>
<text text-anchor="middle" x="631.5" y="-544.5" font-family="Helvetica,sans-Serif" font-size="10.00">Realm::DiskChannel</text>
</a>
</g>
</g>
<!-- Node15&#45;&gt;Node16 -->
<g id="edge72_Node000015_Node000016" class="edge">
<title>Node15&#45;&gt;Node16</title>
<g id="a_edge72_Node000015_Node000016"><a xlink:title=" ">
<path fill="none" stroke="#63b8ff" d="M495.76,-558.25C522.05,-556.06 549.89,-553.73 573.4,-551.77"/>
<polygon fill="#63b8ff" stroke="#63b8ff" points="495.45,-554.77 485.78,-559.09 496.03,-561.74 495.45,-554.77"/>
</a>
</g>
</g>
<!-- Node18 -->
<g id="Node000018" class="node">
<title>Node18</title>
<g id="a_Node000018"><a xlink:href="classRealm_1_1FileChannel.html" target="_top" xlink:title=" ">
<polygon fill="white" stroke="#666666" points="687,-519.5 576,-519.5 576,-500.5 687,-500.5 687,-519.5"/>
<text text-anchor="middle" x="631.5" y="-507.5" font-family="Helvetica,sans-Serif" font-size="10.00">Realm::FileChannel</text>
</a>
</g>
</g>
<!-- Node17&#45;&gt;Node18 -->
<g id="edge74_Node000017_Node000018" class="edge">
<title>Node17&#45;&gt;Node18</title>
<g id="a_edge74_Node000017_Node000018"><a xlink:title=" ">
<path fill="none" stroke="#63b8ff" d="M491.63,-514.88C519.98,-513.89 550.53,-512.81 575.73,-511.93"/>
<polygon fill="#63b8ff" stroke="#63b8ff" points="491.16,-511.4 481.29,-515.25 491.41,-518.39 491.16,-511.4"/>
</a>
</g>
</g>
<!-- Node20 -->
<g id="Node000020" class="node">
<title>Node20</title>
<g id="a_Node000020"><a xlink:href="classRealm_1_1GASNetChannel.html" target="_top" xlink:title=" ">
<polygon fill="white" stroke="#666666" points="697,-479.5 566,-479.5 566,-460.5 697,-460.5 697,-479.5"/>
<text text-anchor="middle" x="631.5" y="-467.5" font-family="Helvetica,sans-Serif" font-size="10.00">Realm::GASNetChannel</text>
</a>
</g>
</g>
<!-- Node19&#45;&gt;Node20 -->
<g id="edge76_Node000019_Node000020" class="edge">
<title>Node19&#45;&gt;Node20</title>
<g id="a_edge76_Node000019_Node000020"><a xlink:title=" ">
<path fill="none" stroke="#63b8ff" d="M512.01,-470C530.45,-470 549.06,-470 565.89,-470"/>
<polygon fill="#63b8ff" stroke="#63b8ff" points="511.79,-466.5 501.79,-470 511.79,-473.5 511.79,-466.5"/>
</a>
</g>
</g>
<!-- Node22 -->
<g id="Node000022" class="node">
<title>Node22</title>
<g id="a_Node000022"><a xlink:href="classRealm_1_1HDF5_1_1HDF5Channel.html" target="_top" xlink:title=" ">
<polygon fill="white" stroke="#666666" points="708.5,-431.5 554.5,-431.5 554.5,-412.5 708.5,-412.5 708.5,-431.5"/>
<text text-anchor="middle" x="631.5" y="-419.5" font-family="Helvetica,sans-Serif" font-size="10.00">Realm::HDF5::HDF5Channel</text>
</a>
</g>
</g>
<!-- Node21&#45;&gt;Node22 -->
<g id="edge78_Node000021_Node000022" class="edge">
<title>Node21&#45;&gt;Node22</title>
<g id="a_edge78_Node000021_Node000022"><a xlink:title=" ">
<path fill="none" stroke="#63b8ff" d="M501.63,-422C519.33,-422 537.53,-422 554.47,-422"/>
<polygon fill="#63b8ff" stroke="#63b8ff" points="501.28,-418.5 491.28,-422 501.28,-425.5 501.28,-418.5"/>
</a>
</g>
</g>
<!-- Node24 -->
<g id="Node000024" class="node">
<title>Node24</title>
<g id="a_Node000024"><a xlink:href="classRealm_1_1MemcpyChannel.html" target="_top" xlink:title=" ">
<polygon fill="white" stroke="#666666" points="699.5,-383.5 563.5,-383.5 563.5,-364.5 699.5,-364.5 699.5,-383.5"/>
<text text-anchor="middle" x="631.5" y="-371.5" font-family="Helvetica,sans-Serif" font-size="10.00">Realm::MemcpyChannel</text>
</a>
</g>
</g>
<!-- Node23&#45;&gt;Node24 -->
<g id="edge80_Node000023_Node000024" class="edge">
<title>Node23&#45;&gt;Node24</title>
<g id="a_edge80_Node000023_Node000024"><a xlink:title=" ">
<path fill="none" stroke="#63b8ff" d="M516.13,-374C532.25,-374 548.4,-374 563.26,-374"/>
<polygon fill="#63b8ff" stroke="#63b8ff" points="516.1,-370.5 506.1,-374 516.1,-377.5 516.1,-370.5"/>
</a>
</g>
</g>
<!-- Node26 -->
<g id="Node000026" class="node">
<title>Node26</title>
<g id="a_Node000026"><a xlink:href="classRealm_1_1MemfillChannel.html" target="_top" xlink:title=" ">
<polygon fill="white" stroke="#666666" points="697,-335.5 566,-335.5 566,-316.5 697,-316.5 697,-335.5"/>
<text text-anchor="middle" x="631.5" y="-323.5" font-family="Helvetica,sans-Serif" font-size="10.00">Realm::MemfillChannel</text>
</a>
</g>
</g>
<!-- Node25&#45;&gt;Node26 -->
<g id="edge82_Node000025_Node000026" class="edge">
<title>Node25&#45;&gt;Node26</title>
<g id="a_edge82_Node000025_Node000026"><a xlink:title=" ">
<path fill="none" stroke="#63b8ff" d="M510.92,-326C529.74,-326 548.78,-326 565.96,-326"/>
<polygon fill="#63b8ff" stroke="#63b8ff" points="510.8,-322.5 500.8,-326 510.8,-329.5 510.8,-322.5"/>
</a>
</g>
</g>
<!-- Node28 -->
<g id="Node000028" class="node">
<title>Node28</title>
<g id="a_Node000028"><a xlink:href="classRealm_1_1MemreduceChannel.html" target="_top" xlink:title=" ">
<polygon fill="white" stroke="#666666" points="707.5,-281.5 555.5,-281.5 555.5,-262.5 707.5,-262.5 707.5,-281.5"/>
<text text-anchor="middle" x="631.5" y="-269.5" font-family="Helvetica,sans-Serif" font-size="10.00">Realm::MemreduceChannel</text>
</a>
</g>
</g>
<!-- Node27&#45;&gt;Node28 -->
<g id="edge84_Node000027_Node000028" class="edge">
<title>Node27&#45;&gt;Node28</title>
<g id="a_edge84_Node000027_Node000028"><a xlink:title=" ">
<path fill="none" stroke="#63b8ff" d="M506.69,-272C523.1,-272 539.8,-272 555.4,-272"/>
<polygon fill="#63b8ff" stroke="#63b8ff" points="506.52,-268.5 496.52,-272 506.52,-275.5 506.52,-268.5"/>
</a>
</g>
</g>
<!-- Node30 -->
<g id="Node000030" class="node">
<title>Node30</title>
<g id="a_Node000030"><a xlink:href="classRealm_1_1RemoteWriteChannel.html" target="_top" xlink:title=" ">
<polygon fill="white" stroke="#666666" points="710.5,-222.5 552.5,-222.5 552.5,-203.5 710.5,-203.5 710.5,-222.5"/>
<text text-anchor="middle" x="631.5" y="-210.5" font-family="Helvetica,sans-Serif" font-size="10.00">Realm::RemoteWriteChannel</text>
</a>
</g>
</g>
<!-- Node29&#45;&gt;Node30 -->
<g id="edge86_Node000029_Node000030" class="edge">
<title>Node29&#45;&gt;Node30</title>
<g id="a_edge86_Node000029_Node000030"><a xlink:title=" ">
<path fill="none" stroke="#63b8ff" d="M485.53,-213C507.38,-213 530.89,-213 552.49,-213"/>
<polygon fill="#63b8ff" stroke="#63b8ff" points="485.3,-209.5 475.3,-213 485.29,-216.5 485.3,-209.5"/>
</a>
</g>
</g>
<!-- Node33 -->
<g id="Node000033" class="node">
<title>Node33</title>
<g id="a_Node000033"><a xlink:href="classRealm_1_1Cuda_1_1GPUIndirectRemoteChannel.html" target="_top" xlink:title=" ">
<polygon fill="white" stroke="#666666" points="473.5,-126 330.5,-126 330.5,-96 473.5,-96 473.5,-126"/>
<text text-anchor="start" x="338.5" y="-114" font-family="Helvetica,sans-Serif" font-size="10.00">Realm::Cuda::GPUIndirect</text>
<text text-anchor="middle" x="402" y="-103" font-family="Helvetica,sans-Serif" font-size="10.00">RemoteChannel</text>
</a>
</g>
</g>
<!-- Node32&#45;&gt;Node33 -->
<g id="edge89_Node000032_Node000033" class="edge">
<title>Node32&#45;&gt;Node33</title>
<g id="a_edge89_Node000032_Node000033"><a xlink:title=" ">
<path fill="none" stroke="#63b8ff" d="M272.18,-95.84C291.14,-98.08 311.42,-100.46 330.16,-102.67"/>
<polygon fill="#63b8ff" stroke="#63b8ff" points="272.45,-92.35 262.11,-94.66 271.63,-99.3 272.45,-92.35"/>
</a>
</g>
</g>
<!-- Node34 -->
<g id="Node000034" class="node">
<title>Node34</title>
<g id="a_Node000034"><a xlink:href="classRealm_1_1Cuda_1_1GPUreduceRemoteChannel.html" target="_top" xlink:title=" ">
<polygon fill="white" stroke="#666666" points="490.5,-78 313.5,-78 313.5,-48 490.5,-48 490.5,-78"/>
<text text-anchor="start" x="321.5" y="-66" font-family="Helvetica,sans-Serif" font-size="10.00">Realm::Cuda::GPUreduceRemote</text>
<text text-anchor="middle" x="402" y="-55" font-family="Helvetica,sans-Serif" font-size="10.00">Channel</text>
</a>
</g>
</g>
<!-- Node32&#45;&gt;Node34 -->
<g id="edge90_Node000032_Node000034" class="edge">
<title>Node32&#45;&gt;Node34</title>
<g id="a_edge90_Node000032_Node000034"><a xlink:title=" ">
<path fill="none" stroke="#63b8ff" d="M272.22,-78.15C285.63,-76.57 299.71,-74.92 313.44,-73.3"/>
<polygon fill="#63b8ff" stroke="#63b8ff" points="271.63,-74.7 262.11,-79.34 272.45,-81.65 271.63,-74.7"/>
</a>
</g>
</g>
<!-- Node35 -->
<g id="Node000035" class="node">
<title>Node35</title>
<g id="a_Node000035"><a xlink:href="classRealm_1_1Hip_1_1GPUreduceRemoteChannel.html" target="_top" xlink:title=" ">
<polygon fill="white" stroke="#666666" points="486.5,-30 317.5,-30 317.5,0 486.5,0 486.5,-30"/>
<text text-anchor="start" x="325.5" y="-18" font-family="Helvetica,sans-Serif" font-size="10.00">Realm::Hip::GPUreduceRemote</text>
<text text-anchor="middle" x="402" y="-7" font-family="Helvetica,sans-Serif" font-size="10.00">Channel</text>
</a>
</g>
</g>
<!-- Node32&#45;&gt;Node35 -->
<g id="edge91_Node000032_Node000035" class="edge">
<title>Node32&#45;&gt;Node35</title>
<g id="a_edge91_Node000032_Node000035"><a xlink:title=" ">
<path fill="none" stroke="#63b8ff" d="M223.49,-72.48C243.49,-62 271.86,-48.14 298,-39 307.45,-35.7 317.54,-32.71 327.57,-30.06"/>
<polygon fill="#63b8ff" stroke="#63b8ff" points="221.58,-69.53 214.39,-77.32 224.86,-75.71 221.58,-69.53"/>
</a>
</g>
</g>
</g>
</svg>
