<?xml version="1.0" encoding="UTF-8" standalone="no"?>
<!DOCTYPE svg PUBLIC "-//W3C//DTD SVG 1.1//EN"
 "http://www.w3.org/Graphics/SVG/1.1/DTD/svg11.dtd">
<!-- Generated by graphviz version 2.43.0 (0)
 -->
<!-- Title: Graphical Class Hierarchy Pages: 1 -->
<svg width="345pt" height="76pt"
 viewBox="0.00 0.00 345.00 75.50" xmlns="http://www.w3.org/2000/svg" xmlns:xlink="http://www.w3.org/1999/xlink">
<g id="graph0" class="graph" transform="scale(1 1) rotate(0) translate(4 71.5)">
<title>Graphical Class Hierarchy</title>
<!-- Node0 -->
<g id="Node000000" class="node">
<title>Node0</title>
<g id="a_Node000000"><a xlink:href="classRealm_1_1TransferIterator_1_1AddressInfoCustom.html" target="_top" xlink:title=" ">
<polygon fill="white" stroke="#666666" points="129,-45.5 0,-45.5 0,-15.5 129,-15.5 129,-45.5"/>
<text text-anchor="start" x="8" y="-33.5" font-family="Helvetica,sans-Serif" font-size="10.00">Realm::TransferIterator</text>
<text text-anchor="middle" x="64.5" y="-22.5" font-family="Helvetica,sans-Serif" font-size="10.00">::AddressInfoCustom</text>
</a>
</g>
</g>
<!-- Node1 -->
<g id="Node000001" class="node">
<title>Node1</title>
<g id="a_Node000001"><a xlink:href="classRealm_1_1Cuda_1_1AddressInfoCudaArray.html" target="_top" xlink:title=" ">
<polygon fill="white" stroke="#666666" points="322.5,-67.5 179.5,-67.5 179.5,-37.5 322.5,-37.5 322.5,-67.5"/>
<text text-anchor="start" x="187.5" y="-55.5" font-family="Helvetica,sans-Serif" font-size="10.00">Realm::Cuda::AddressInfo</text>
<text text-anchor="middle" x="251" y="-44.5" font-family="Helvetica,sans-Serif" font-size="10.00">CudaArray</text>
</a>
</g>
</g>
<!-- Node0&#45;&gt;Node1 -->
<g id="edge337_Node000000_Node000001" class="edge">
<title>Node0&#45;&gt;Node1</title>
<g id="a_edge337_Node000000_Node000001"><a xlink:title=" ">
<path fill="none" stroke="#63b8ff" d="M139.23,-39.29C152.44,-40.87 166.18,-42.5 179.3,-44.07"/>
<polygon fill="#63b8ff" stroke="#63b8ff" points="139.6,-35.81 129.25,-38.1 138.77,-42.76 139.6,-35.81"/>
</a>
</g>
</g>
<!-- Node2 -->
<g id="Node000002" class="node">
<title>Node2</title>
<g id="a_Node000002"><a xlink:href="classRealm_1_1HDF5_1_1AddressInfoHDF5.html" target="_top" xlink:title=" ">
<polygon fill="white" stroke="#666666" points="337,-19 165,-19 165,0 337,0 337,-19"/>
<text text-anchor="middle" x="251" y="-7" font-family="Helvetica,sans-Serif" font-size="10.00">Realm::HDF5::AddressInfoHDF5</text>
</a>
</g>
</g>
<!-- Node0&#45;&gt;Node2 -->
<g id="edge338_Node000000_Node000002" class="edge">
<title>Node0&#45;&gt;Node2</title>
<g id="a_edge338_Node000000_Node000002"><a xlink:title=" ">
<path fill="none" stroke="#63b8ff" d="M139.22,-22.11C148.15,-21.09 157.33,-20.05 166.4,-19.02"/>
<polygon fill="#63b8ff" stroke="#63b8ff" points="138.79,-18.64 129.25,-23.24 139.58,-25.59 138.79,-18.64"/>
</a>
</g>
</g>
</g>
</svg>
