<?xml version="1.0" encoding="UTF-8" standalone="no"?>
<!DOCTYPE svg PUBLIC "-//W3C//DTD SVG 1.1//EN"
 "http://www.w3.org/Graphics/SVG/1.1/DTD/svg11.dtd">
<!-- Generated by graphviz version 2.43.0 (0)
 -->
<!-- Title: Graphical Class Hierarchy Pages: 1 -->
<svg width="315pt" height="604pt"
 viewBox="0.00 0.00 315.00 604.00" xmlns="http://www.w3.org/2000/svg" xmlns:xlink="http://www.w3.org/1999/xlink">
<g id="graph0" class="graph" transform="scale(1 1) rotate(0) translate(4 600)">
<title>Graphical Class Hierarchy</title>
<!-- Node0 -->
<g id="Node000000" class="node">
<title>Node0</title>
<g id="a_Node000000"><a xlink:href="classRealm_1_1EventWaiter.html" target="_top" xlink:title=" ">
<polygon fill="white" stroke="#666666" points="113,-302.5 0,-302.5 0,-283.5 113,-283.5 113,-302.5"/>
<text text-anchor="middle" x="56.5" y="-290.5" font-family="Helvetica,sans-Serif" font-size="10.00">Realm::EventWaiter</text>
</a>
</g>
</g>
<!-- Node1 -->
<g id="Node000001" class="node">
<title>Node1</title>
<g id="a_Node000001"><a xlink:href="classRealm_1_1CompQueueImpl_1_1CompQueueWaiter.html" target="_top" xlink:title=" ">
<polygon fill="white" stroke="#666666" points="296,-596 160,-596 160,-566 296,-566 296,-596"/>
<text text-anchor="start" x="168" y="-584" font-family="Helvetica,sans-Serif" font-size="10.00">Realm::CompQueueImpl</text>
<text text-anchor="middle" x="228" y="-573" font-family="Helvetica,sans-Serif" font-size="10.00">::CompQueueWaiter</text>
</a>
</g>
</g>
<!-- Node0&#45;&gt;Node1 -->
<g id="edge130_Node000000_Node000001" class="edge">
<title>Node0&#45;&gt;Node1</title>
<g id="a_edge130_Node000000_Node000001"><a xlink:title=" ">
<path fill="none" stroke="#63b8ff" d="M58.47,-312.65C61.95,-361.27 77.76,-488.22 149,-557 152.57,-560.44 156.62,-563.4 160.95,-565.92"/>
<polygon fill="#63b8ff" stroke="#63b8ff" points="61.96,-312.3 57.85,-302.54 54.97,-312.73 61.96,-312.3"/>
</a>
</g>
</g>
<!-- Node2 -->
<g id="Node000002" class="node">
<title>Node2</title>
<g id="a_Node000002"><a xlink:href="classRealm_1_1CompQueueImpl_1_1DeferredDestroy.html" target="_top" xlink:title=" ">
<polygon fill="white" stroke="#666666" points="296,-548 160,-548 160,-518 296,-518 296,-548"/>
<text text-anchor="start" x="168" y="-536" font-family="Helvetica,sans-Serif" font-size="10.00">Realm::CompQueueImpl</text>
<text text-anchor="middle" x="228" y="-525" font-family="Helvetica,sans-Serif" font-size="10.00">::DeferredDestroy</text>
</a>
</g>
</g>
<!-- Node0&#45;&gt;Node2 -->
<g id="edge131_Node000000_Node000002" class="edge">
<title>Node0&#45;&gt;Node2</title>
<g id="a_edge131_Node000000_Node000002"><a xlink:title=" ">
<path fill="none" stroke="#63b8ff" d="M60.26,-313.01C67.17,-355.45 89.19,-455.01 149,-509 152.79,-512.42 157.05,-515.35 161.58,-517.86"/>
<polygon fill="#63b8ff" stroke="#63b8ff" points="63.68,-312.22 58.72,-302.86 56.76,-313.27 63.68,-312.22"/>
</a>
</g>
</g>
<!-- Node3 -->
<g id="Node000003" class="node">
<title>Node3</title>
<g id="a_Node000003"><a xlink:href="classRealm_1_1EventMerger_1_1MergeEventPrecondition.html" target="_top" xlink:title=" ">
<polygon fill="white" stroke="#666666" points="299,-500 157,-500 157,-470 299,-470 299,-500"/>
<text text-anchor="start" x="165" y="-488" font-family="Helvetica,sans-Serif" font-size="10.00">Realm::EventMerger</text>
<text text-anchor="middle" x="228" y="-477" font-family="Helvetica,sans-Serif" font-size="10.00">::MergeEventPrecondition</text>
</a>
</g>
</g>
<!-- Node0&#45;&gt;Node3 -->
<g id="edge132_Node000000_Node000003" class="edge">
<title>Node0&#45;&gt;Node3</title>
<g id="a_edge132_Node000000_Node000003"><a xlink:title=" ">
<path fill="none" stroke="#63b8ff" d="M62.8,-312.56C73.3,-347.56 100.04,-420.98 149,-461 153.17,-464.41 157.82,-467.33 162.71,-469.84"/>
<polygon fill="#63b8ff" stroke="#63b8ff" points="66.08,-311.29 59.96,-302.64 59.35,-313.21 66.08,-311.29"/>
</a>
</g>
</g>
<!-- Node4 -->
<g id="Node000004" class="node">
<title>Node4</title>
<g id="a_Node000004"><a xlink:href="structRealm_1_1OperationTable_1_1TableEntry.html" target="_top" xlink:title=" ">
<polygon fill="white" stroke="#666666" points="292,-452 164,-452 164,-422 292,-422 292,-452"/>
<text text-anchor="start" x="172" y="-440" font-family="Helvetica,sans-Serif" font-size="10.00">Realm::OperationTable</text>
<text text-anchor="middle" x="228" y="-429" font-family="Helvetica,sans-Serif" font-size="10.00">::TableEntry</text>
</a>
</g>
</g>
<!-- Node0&#45;&gt;Node4 -->
<g id="edge133_Node000000_Node000004" class="edge">
<title>Node0&#45;&gt;Node4</title>
<g id="a_edge133_Node000000_Node000004"><a xlink:title=" ">
<path fill="none" stroke="#63b8ff" d="M66.89,-311.71C81.09,-338.13 110.51,-386.16 149,-413 153.88,-416.4 159.26,-419.34 164.84,-421.86"/>
<polygon fill="#63b8ff" stroke="#63b8ff" points="69.93,-309.97 62.2,-302.72 63.72,-313.21 69.93,-309.97"/>
</a>
</g>
</g>
<!-- Node5 -->
<g id="Node000005" class="node">
<title>Node5</title>
<g id="a_Node000005"><a xlink:href="classRealm_1_1PartitioningOperation_1_1DeferredLaunch.html" target="_top" xlink:title=" ">
<polygon fill="white" stroke="#666666" points="307,-404 149,-404 149,-374 307,-374 307,-404"/>
<text text-anchor="start" x="157" y="-392" font-family="Helvetica,sans-Serif" font-size="10.00">Realm::PartitioningOperation</text>
<text text-anchor="middle" x="228" y="-381" font-family="Helvetica,sans-Serif" font-size="10.00">::DeferredLaunch</text>
</a>
</g>
</g>
<!-- Node0&#45;&gt;Node5 -->
<g id="edge134_Node000000_Node000005" class="edge">
<title>Node0&#45;&gt;Node5</title>
<g id="a_edge134_Node000000_Node000005"><a xlink:title=" ">
<path fill="none" stroke="#63b8ff" d="M74.98,-310.02C92.44,-326.19 120.69,-350.17 149,-365 155.4,-368.35 162.35,-371.32 169.37,-373.93"/>
<polygon fill="#63b8ff" stroke="#63b8ff" points="77,-307.11 67.32,-302.79 72.19,-312.2 77,-307.11"/>
</a>
</g>
</g>
<!-- Node6 -->
<g id="Node000006" class="node">
<title>Node6</title>
<g id="a_Node000006"><a xlink:href="classRealm_1_1ProcessorGroupImpl_1_1DeferredDestroy.html" target="_top" xlink:title=" ">
<polygon fill="white" stroke="#666666" points="304,-356 152,-356 152,-326 304,-326 304,-356"/>
<text text-anchor="start" x="160" y="-344" font-family="Helvetica,sans-Serif" font-size="10.00">Realm::ProcessorGroupImpl</text>
<text text-anchor="middle" x="228" y="-333" font-family="Helvetica,sans-Serif" font-size="10.00">::DeferredDestroy</text>
</a>
</g>
</g>
<!-- Node0&#45;&gt;Node6 -->
<g id="edge135_Node000000_Node000006" class="edge">
<title>Node0&#45;&gt;Node6</title>
<g id="a_edge135_Node000000_Node000006"><a xlink:title=" ">
<path fill="none" stroke="#63b8ff" d="M101.2,-305.37C123.35,-311.65 150.45,-319.32 173.81,-325.94"/>
<polygon fill="#63b8ff" stroke="#63b8ff" points="101.97,-301.96 91.39,-302.6 100.06,-308.69 101.97,-301.96"/>
</a>
</g>
</g>
<!-- Node7 -->
<g id="Node000007" class="node">
<title>Node7</title>
<g id="a_Node000007"><a xlink:href="classRealm_1_1RegionInstanceImpl_1_1DeferredCreate.html" target="_top" xlink:title=" ">
<polygon fill="white" stroke="#666666" points="303.5,-308 152.5,-308 152.5,-278 303.5,-278 303.5,-308"/>
<text text-anchor="start" x="160.5" y="-296" font-family="Helvetica,sans-Serif" font-size="10.00">Realm::RegionInstanceImpl</text>
<text text-anchor="middle" x="228" y="-285" font-family="Helvetica,sans-Serif" font-size="10.00">::DeferredCreate</text>
</a>
</g>
</g>
<!-- Node0&#45;&gt;Node7 -->
<g id="edge136_Node000000_Node000007" class="edge">
<title>Node0&#45;&gt;Node7</title>
<g id="a_edge136_Node000000_Node000007"><a xlink:title=" ">
<path fill="none" stroke="#63b8ff" d="M123.18,-293C132.72,-293 142.58,-293 152.28,-293"/>
<polygon fill="#63b8ff" stroke="#63b8ff" points="123,-289.5 113,-293 123,-296.5 123,-289.5"/>
</a>
</g>
</g>
<!-- Node8 -->
<g id="Node000008" class="node">
<title>Node8</title>
<g id="a_Node000008"><a xlink:href="classRealm_1_1RegionInstanceImpl_1_1DeferredDestroy.html" target="_top" xlink:title=" ">
<polygon fill="white" stroke="#666666" points="303.5,-260 152.5,-260 152.5,-230 303.5,-230 303.5,-260"/>
<text text-anchor="start" x="160.5" y="-248" font-family="Helvetica,sans-Serif" font-size="10.00">Realm::RegionInstanceImpl</text>
<text text-anchor="middle" x="228" y="-237" font-family="Helvetica,sans-Serif" font-size="10.00">::DeferredDestroy</text>
</a>
</g>
</g>
<!-- Node0&#45;&gt;Node8 -->
<g id="edge137_Node000000_Node000008" class="edge">
<title>Node0&#45;&gt;Node8</title>
<g id="a_edge137_Node000000_Node000008"><a xlink:title=" ">
<path fill="none" stroke="#63b8ff" d="M101.2,-280.63C123.35,-274.35 150.45,-266.68 173.81,-260.06"/>
<polygon fill="#63b8ff" stroke="#63b8ff" points="100.06,-277.31 91.39,-283.4 101.97,-284.04 100.06,-277.31"/>
</a>
</g>
</g>
<!-- Node9 -->
<g id="Node000009" class="node">
<title>Node9</title>
<g id="a_Node000009"><a xlink:href="classRealm_1_1RuntimeImpl_1_1DeferredShutdown.html" target="_top" xlink:title=" ">
<polygon fill="white" stroke="#666666" points="286.5,-212 169.5,-212 169.5,-182 286.5,-182 286.5,-212"/>
<text text-anchor="start" x="177.5" y="-200" font-family="Helvetica,sans-Serif" font-size="10.00">Realm::RuntimeImpl</text>
<text text-anchor="middle" x="228" y="-189" font-family="Helvetica,sans-Serif" font-size="10.00">::DeferredShutdown</text>
</a>
</g>
</g>
<!-- Node0&#45;&gt;Node9 -->
<g id="edge138_Node000000_Node000009" class="edge">
<title>Node0&#45;&gt;Node9</title>
<g id="a_edge138_Node000000_Node000009"><a xlink:title=" ">
<path fill="none" stroke="#63b8ff" d="M74.98,-275.98C92.44,-259.81 120.69,-235.83 149,-221 155.4,-217.65 162.35,-214.68 169.37,-212.07"/>
<polygon fill="#63b8ff" stroke="#63b8ff" points="72.19,-273.8 67.32,-283.21 77,-278.89 72.19,-273.8"/>
</a>
</g>
</g>
<!-- Node10 -->
<g id="Node000010" class="node">
<title>Node10</title>
<g id="a_Node000010"><a xlink:href="classRealm_1_1SubgraphImpl_1_1DeferredDestroy.html" target="_top" xlink:title=" ">
<polygon fill="white" stroke="#666666" points="289,-164 167,-164 167,-134 289,-134 289,-164"/>
<text text-anchor="start" x="175" y="-152" font-family="Helvetica,sans-Serif" font-size="10.00">Realm::SubgraphImpl</text>
<text text-anchor="middle" x="228" y="-141" font-family="Helvetica,sans-Serif" font-size="10.00">::DeferredDestroy</text>
</a>
</g>
</g>
<!-- Node0&#45;&gt;Node10 -->
<g id="edge139_Node000000_Node000010" class="edge">
<title>Node0&#45;&gt;Node10</title>
<g id="a_edge139_Node000000_Node000010"><a xlink:title=" ">
<path fill="none" stroke="#63b8ff" d="M66.89,-274.29C81.09,-247.87 110.51,-199.84 149,-173 154.46,-169.19 160.55,-165.97 166.84,-163.25"/>
<polygon fill="#63b8ff" stroke="#63b8ff" points="63.72,-272.79 62.2,-283.28 69.93,-276.03 63.72,-272.79"/>
</a>
</g>
</g>
<!-- Node11 -->
<g id="Node000011" class="node">
<title>Node11</title>
<g id="a_Node000011"><a xlink:href="classRealm_1_1Task_1_1DeferredSpawn.html" target="_top" xlink:title=" ">
<polygon fill="white" stroke="#666666" points="306.5,-115.5 149.5,-115.5 149.5,-96.5 306.5,-96.5 306.5,-115.5"/>
<text text-anchor="middle" x="228" y="-103.5" font-family="Helvetica,sans-Serif" font-size="10.00">Realm::Task::DeferredSpawn</text>
</a>
</g>
</g>
<!-- Node0&#45;&gt;Node11 -->
<g id="edge140_Node000000_Node000011" class="edge">
<title>Node0&#45;&gt;Node11</title>
<g id="a_edge140_Node000000_Node000011"><a xlink:title=" ">
<path fill="none" stroke="#63b8ff" d="M62.57,-273.15C72.7,-237.68 98.87,-163.54 149,-125 153.97,-121.18 159.61,-118.11 165.52,-115.65"/>
<polygon fill="#63b8ff" stroke="#63b8ff" points="59.08,-272.64 59.84,-283.21 65.84,-274.48 59.08,-272.64"/>
</a>
</g>
</g>
<!-- Node12 -->
<g id="Node000012" class="node">
<title>Node12</title>
<g id="a_Node000012"><a xlink:href="classRealm_1_1TransferOperation_1_1DeferredStart.html" target="_top" xlink:title=" ">
<polygon fill="white" stroke="#666666" points="298.5,-78 157.5,-78 157.5,-48 298.5,-48 298.5,-78"/>
<text text-anchor="start" x="165.5" y="-66" font-family="Helvetica,sans-Serif" font-size="10.00">Realm::TransferOperation</text>
<text text-anchor="middle" x="228" y="-55" font-family="Helvetica,sans-Serif" font-size="10.00">::DeferredStart</text>
</a>
</g>
</g>
<!-- Node0&#45;&gt;Node12 -->
<g id="edge141_Node000000_Node000012" class="edge">
<title>Node0&#45;&gt;Node12</title>
<g id="a_edge141_Node000000_Node000012"><a xlink:title=" ">
<path fill="none" stroke="#63b8ff" d="M60.78,-273.22C68.57,-232.56 91.95,-139.11 149,-88 153.34,-84.11 158.29,-80.82 163.55,-78.05"/>
<polygon fill="#63b8ff" stroke="#63b8ff" points="57.31,-272.75 58.99,-283.21 64.2,-273.99 57.31,-272.75"/>
</a>
</g>
</g>
<!-- Node13 -->
<g id="Node000013" class="node">
<title>Node13</title>
<g id="a_Node000013"><a xlink:href="classRealm_1_1XferDes_1_1DeferredXDEnqueue.html" target="_top" xlink:title=" ">
<polygon fill="white" stroke="#666666" points="299,-30 157,-30 157,0 299,0 299,-30"/>
<text text-anchor="start" x="165" y="-18" font-family="Helvetica,sans-Serif" font-size="10.00">Realm::XferDes::Deferred</text>
<text text-anchor="middle" x="228" y="-7" font-family="Helvetica,sans-Serif" font-size="10.00">XDEnqueue</text>
</a>
</g>
</g>
<!-- Node0&#45;&gt;Node13 -->
<g id="edge142_Node000000_Node000013" class="edge">
<title>Node0&#45;&gt;Node13</title>
<g id="a_edge142_Node000000_Node000013"><a xlink:title=" ">
<path fill="none" stroke="#63b8ff" d="M58.8,-273.14C62.99,-225.64 80.22,-104.6 149,-39 152.59,-35.58 156.65,-32.64 161,-30.12"/>
<polygon fill="#63b8ff" stroke="#63b8ff" points="55.3,-273.07 58.01,-283.31 62.28,-273.61 55.3,-273.07"/>
</a>
</g>
</g>
</g>
</svg>
