<?xml version="1.0" encoding="UTF-8" standalone="no"?>
<!DOCTYPE svg PUBLIC "-//W3C//DTD SVG 1.1//EN"
 "http://www.w3.org/Graphics/SVG/1.1/DTD/svg11.dtd">
<!-- Generated by graphviz version 2.43.0 (0)
 -->
<!-- Title: Graphical Class Hierarchy Pages: 1 -->
<svg width="562pt" height="38pt"
 viewBox="0.00 0.00 562.00 38.00" xmlns="http://www.w3.org/2000/svg" xmlns:xlink="http://www.w3.org/1999/xlink">
<g id="graph0" class="graph" transform="scale(1 1) rotate(0) translate(4 34)">
<title>Graphical Class Hierarchy</title>
<!-- Node0 -->
<g id="Node000000" class="node">
<title>Node0</title>
<g id="a_Node000000"><a xlink:href="classRealm_1_1LinearizedIndexSpaceIntfc.html" target="_top" xlink:title=" ">
<polygon fill="white" stroke="#666666" points="161,-30 0,-30 0,0 161,0 161,-30"/>
<text text-anchor="start" x="8" y="-18" font-family="Helvetica,sans-Serif" font-size="10.00">Realm::LinearizedIndexSpace</text>
<text text-anchor="middle" x="80.5" y="-7" font-family="Helvetica,sans-Serif" font-size="10.00">Intfc</text>
</a>
</g>
</g>
<!-- Node1 -->
<g id="Node000001" class="node">
<title>Node1</title>
<g id="a_Node000001"><a xlink:href="classRealm_1_1LinearizedIndexSpace.html" target="_top" xlink:title=" ">
<polygon fill="white" stroke="#666666" points="358,-30 197,-30 197,0 358,0 358,-30"/>
<text text-anchor="start" x="205" y="-18" font-family="Helvetica,sans-Serif" font-size="10.00">Realm::LinearizedIndexSpace</text>
<text text-anchor="middle" x="277.5" y="-7" font-family="Helvetica,sans-Serif" font-size="10.00">&lt; N, T &gt;</text>
</a>
</g>
</g>
<!-- Node0&#45;&gt;Node1 -->
<g id="edge168_Node000000_Node000001" class="edge">
<title>Node0&#45;&gt;Node1</title>
<g id="a_edge168_Node000000_Node000001"><a xlink:title=" ">
<path fill="none" stroke="#63b8ff" d="M171.12,-15C179.7,-15 188.36,-15 196.84,-15"/>
<polygon fill="#63b8ff" stroke="#63b8ff" points="171.1,-11.5 161.1,-15 171.1,-18.5 171.1,-11.5"/>
</a>
</g>
</g>
<!-- Node2 -->
<g id="Node000002" class="node">
<title>Node2</title>
<g id="a_Node000002"><a xlink:href="classRealm_1_1AffineLinearizedIndexSpace.html" target="_top" xlink:title=" ">
<polygon fill="white" stroke="#666666" points="554,-30 394,-30 394,0 554,0 554,-30"/>
<text text-anchor="start" x="402" y="-18" font-family="Helvetica,sans-Serif" font-size="10.00">Realm::AffineLinearizedIndex</text>
<text text-anchor="middle" x="474" y="-7" font-family="Helvetica,sans-Serif" font-size="10.00">Space&lt; N, T &gt;</text>
</a>
</g>
</g>
<!-- Node1&#45;&gt;Node2 -->
<g id="edge169_Node000001_Node000002" class="edge">
<title>Node1&#45;&gt;Node2</title>
<g id="a_edge169_Node000001_Node000002"><a xlink:title=" ">
<path fill="none" stroke="#63b8ff" d="M368.43,-15C376.89,-15 385.42,-15 393.77,-15"/>
<polygon fill="#63b8ff" stroke="#63b8ff" points="368.17,-11.5 358.17,-15 368.17,-18.5 368.17,-11.5"/>
</a>
</g>
</g>
</g>
</svg>
