<?xml version="1.0" encoding="UTF-8" standalone="no"?>
<!DOCTYPE svg PUBLIC "-//W3C//DTD SVG 1.1//EN"
 "http://www.w3.org/Graphics/SVG/1.1/DTD/svg11.dtd">
<!-- Generated by graphviz version 2.43.0 (0)
 -->
<!-- Title: Graphical Class Hierarchy Pages: 1 -->
<svg width="444pt" height="981pt"
 viewBox="0.00 0.00 444.00 980.50" xmlns="http://www.w3.org/2000/svg" xmlns:xlink="http://www.w3.org/1999/xlink">
<g id="graph0" class="graph" transform="scale(1 1) rotate(0) translate(4 976.5)">
<title>Graphical Class Hierarchy</title>
<!-- Node0 -->
<g id="Node000000" class="node">
<title>Node0</title>
<g id="a_Node000000"><a xlink:href="classRealm_1_1ActiveMessageHandlerRegBase.html" target="_top" xlink:title=" ">
<polygon fill="white" stroke="#666666" points="167,-467 0,-467 0,-437 167,-437 167,-467"/>
<text text-anchor="start" x="8" y="-455" font-family="Helvetica,sans-Serif" font-size="10.00">Realm::ActiveMessageHandler</text>
<text text-anchor="middle" x="83.5" y="-444" font-family="Helvetica,sans-Serif" font-size="10.00">RegBase</text>
</a>
</g>
</g>
<!-- Node1 -->
<g id="Node000001" class="node">
<title>Node1</title>
<g id="a_Node000001"><a xlink:href="classRealm_1_1ActiveMessageHandlerReg.html" target="_top" xlink:title=" ">
<polygon fill="white" stroke="#666666" points="411.5,-972.5 227.5,-972.5 227.5,-931.5 411.5,-931.5 411.5,-972.5"/>
<text text-anchor="start" x="235.5" y="-960.5" font-family="Helvetica,sans-Serif" font-size="10.00">Realm::ActiveMessageHandler</text>
<text text-anchor="start" x="235.5" y="-949.5" font-family="Helvetica,sans-Serif" font-size="10.00">Reg&lt; Realm::AddressSplitXferDes</text>
<text text-anchor="middle" x="319.5" y="-938.5" font-family="Helvetica,sans-Serif" font-size="10.00">CreateMessage&lt; N, T &gt; &gt;</text>
</a>
</g>
</g>
<!-- Node0&#45;&gt;Node1 -->
<g id="edge10_Node000000_Node000001" class="edge">
<title>Node0&#45;&gt;Node1</title>
<g id="a_edge10_Node000000_Node000001"><a xlink:title=" ">
<path fill="none" stroke="#63b8ff" d="M87.47,-477.22C98.36,-565.28 138.75,-857.29 203,-922 209.93,-928.98 218.27,-934.41 227.25,-938.61"/>
<polygon fill="#63b8ff" stroke="#63b8ff" points="90.92,-476.57 86.24,-467.07 83.97,-477.42 90.92,-476.57"/>
</a>
</g>
</g>
<!-- Node2 -->
<g id="Node000002" class="node">
<title>Node2</title>
<g id="a_Node000002"><a xlink:href="classRealm_1_1ActiveMessageHandlerReg.html" target="_top" xlink:title=" ">
<polygon fill="white" stroke="#666666" points="422.5,-913 216.5,-913 216.5,-861 422.5,-861 422.5,-913"/>
<text text-anchor="start" x="224.5" y="-901" font-family="Helvetica,sans-Serif" font-size="10.00">Realm::ActiveMessageHandler</text>
<text text-anchor="start" x="224.5" y="-890" font-family="Helvetica,sans-Serif" font-size="10.00">Reg&lt; Realm::RemoteMicroOpMessage</text>
<text text-anchor="start" x="224.5" y="-879" font-family="Helvetica,sans-Serif" font-size="10.00">&lt; Realm::ByFieldMicroOp&lt; N, T,</text>
<text text-anchor="middle" x="319.5" y="-868" font-family="Helvetica,sans-Serif" font-size="10.00"> FT &gt; &gt; &gt;</text>
</a>
</g>
</g>
<!-- Node0&#45;&gt;Node2 -->
<g id="edge11_Node000000_Node000002" class="edge">
<title>Node0&#45;&gt;Node2</title>
<g id="a_edge11_Node000000_Node000002"><a xlink:title=" ">
<path fill="none" stroke="#63b8ff" d="M84.23,-477.29C84.91,-547.2 96.63,-744.96 203,-852 207.06,-856.09 211.58,-859.7 216.42,-862.89"/>
<polygon fill="#63b8ff" stroke="#63b8ff" points="87.73,-477.19 84.21,-467.2 80.73,-477.21 87.73,-477.19"/>
</a>
</g>
</g>
<!-- Node3 -->
<g id="Node000003" class="node">
<title>Node3</title>
<g id="a_Node000003"><a xlink:href="classRealm_1_1ActiveMessageHandlerReg.html" target="_top" xlink:title=" ">
<polygon fill="white" stroke="#666666" points="430,-842.5 209,-842.5 209,-801.5 430,-801.5 430,-842.5"/>
<text text-anchor="start" x="217" y="-830.5" font-family="Helvetica,sans-Serif" font-size="10.00">Realm::ActiveMessageHandler</text>
<text text-anchor="start" x="217" y="-819.5" font-family="Helvetica,sans-Serif" font-size="10.00">Reg&lt; Realm::RemoteMicroOpMessage</text>
<text text-anchor="middle" x="319.5" y="-808.5" font-family="Helvetica,sans-Serif" font-size="10.00">&lt; Realm::DifferenceMicroOp&lt; N, T &gt; &gt; &gt;</text>
</a>
</g>
</g>
<!-- Node0&#45;&gt;Node3 -->
<g id="edge12_Node000000_Node000003" class="edge">
<title>Node0&#45;&gt;Node3</title>
<g id="a_edge12_Node000000_Node000003"><a xlink:title=" ">
<path fill="none" stroke="#63b8ff" d="M85.56,-477.47C89.62,-540.6 109.13,-705.46 203,-792 206.81,-795.51 210.97,-798.62 215.39,-801.38"/>
<polygon fill="#63b8ff" stroke="#63b8ff" points="89.04,-477.02 84.99,-467.23 82.05,-477.41 89.04,-477.02"/>
</a>
</g>
</g>
<!-- Node4 -->
<g id="Node000004" class="node">
<title>Node4</title>
<g id="a_Node000004"><a xlink:href="classRealm_1_1ActiveMessageHandlerReg.html" target="_top" xlink:title=" ">
<polygon fill="white" stroke="#666666" points="422.5,-783 216.5,-783 216.5,-731 422.5,-731 422.5,-783"/>
<text text-anchor="start" x="224.5" y="-771" font-family="Helvetica,sans-Serif" font-size="10.00">Realm::ActiveMessageHandler</text>
<text text-anchor="start" x="224.5" y="-760" font-family="Helvetica,sans-Serif" font-size="10.00">Reg&lt; Realm::RemoteMicroOpMessage</text>
<text text-anchor="start" x="224.5" y="-749" font-family="Helvetica,sans-Serif" font-size="10.00">&lt; Realm::ImageMicroOp&lt; N, T,</text>
<text text-anchor="middle" x="319.5" y="-738" font-family="Helvetica,sans-Serif" font-size="10.00"> N2, T2 &gt; &gt; &gt;</text>
</a>
</g>
</g>
<!-- Node0&#45;&gt;Node4 -->
<g id="edge13_Node000000_Node000004" class="edge">
<title>Node0&#45;&gt;Node4</title>
<g id="a_edge13_Node000000_Node000004"><a xlink:title=" ">
<path fill="none" stroke="#63b8ff" d="M88.34,-477.04C97.8,-530.17 127.23,-654.78 203,-722 207.15,-725.69 211.68,-728.98 216.47,-731.93"/>
<polygon fill="#63b8ff" stroke="#63b8ff" points="91.78,-476.4 86.66,-467.13 84.87,-477.57 91.78,-476.4"/>
</a>
</g>
</g>
<!-- Node5 -->
<g id="Node000005" class="node">
<title>Node5</title>
<g id="a_Node000005"><a xlink:href="classRealm_1_1ActiveMessageHandlerReg.html" target="_top" xlink:title=" ">
<polygon fill="white" stroke="#666666" points="422.5,-713 216.5,-713 216.5,-661 422.5,-661 422.5,-713"/>
<text text-anchor="start" x="224.5" y="-701" font-family="Helvetica,sans-Serif" font-size="10.00">Realm::ActiveMessageHandler</text>
<text text-anchor="start" x="224.5" y="-690" font-family="Helvetica,sans-Serif" font-size="10.00">Reg&lt; Realm::RemoteMicroOpMessage</text>
<text text-anchor="start" x="224.5" y="-679" font-family="Helvetica,sans-Serif" font-size="10.00">&lt; Realm::IntersectionMicroOp</text>
<text text-anchor="middle" x="319.5" y="-668" font-family="Helvetica,sans-Serif" font-size="10.00">&lt; N, T &gt; &gt; &gt;</text>
</a>
</g>
</g>
<!-- Node0&#45;&gt;Node5 -->
<g id="edge14_Node000000_Node000005" class="edge">
<title>Node0&#45;&gt;Node5</title>
<g id="a_edge14_Node000000_Node000005"><a xlink:title=" ">
<path fill="none" stroke="#63b8ff" d="M92.39,-476.62C107.2,-518.84 143.15,-605.06 203,-652 207.2,-655.3 211.72,-658.28 216.43,-660.99"/>
<polygon fill="#63b8ff" stroke="#63b8ff" points="95.7,-475.45 89.16,-467.11 89.07,-477.71 95.7,-475.45"/>
</a>
</g>
</g>
<!-- Node6 -->
<g id="Node000006" class="node">
<title>Node6</title>
<g id="a_Node000006"><a xlink:href="classRealm_1_1ActiveMessageHandlerReg.html" target="_top" xlink:title=" ">
<polygon fill="white" stroke="#666666" points="422.5,-643 216.5,-643 216.5,-591 422.5,-591 422.5,-643"/>
<text text-anchor="start" x="224.5" y="-631" font-family="Helvetica,sans-Serif" font-size="10.00">Realm::ActiveMessageHandler</text>
<text text-anchor="start" x="224.5" y="-620" font-family="Helvetica,sans-Serif" font-size="10.00">Reg&lt; Realm::RemoteMicroOpMessage</text>
<text text-anchor="start" x="224.5" y="-609" font-family="Helvetica,sans-Serif" font-size="10.00">&lt; Realm::PreimageMicroOp&lt; N,</text>
<text text-anchor="middle" x="319.5" y="-598" font-family="Helvetica,sans-Serif" font-size="10.00"> T, N2, T2 &gt; &gt; &gt;</text>
</a>
</g>
</g>
<!-- Node0&#45;&gt;Node6 -->
<g id="edge15_Node000000_Node000006" class="edge">
<title>Node0&#45;&gt;Node6</title>
<g id="a_edge15_Node000000_Node000006"><a xlink:title=" ">
<path fill="none" stroke="#63b8ff" d="M99.99,-475.65C120.27,-504.81 158.53,-553.94 203,-582 208.14,-585.24 213.6,-588.2 219.23,-590.89"/>
<polygon fill="#63b8ff" stroke="#63b8ff" points="102.81,-473.58 94.28,-467.29 97.03,-477.53 102.81,-473.58"/>
</a>
</g>
</g>
<!-- Node7 -->
<g id="Node000007" class="node">
<title>Node7</title>
<g id="a_Node000007"><a xlink:href="classRealm_1_1ActiveMessageHandlerReg.html" target="_top" xlink:title=" ">
<polygon fill="white" stroke="#666666" points="421,-573 218,-573 218,-521 421,-521 421,-573"/>
<text text-anchor="start" x="226" y="-561" font-family="Helvetica,sans-Serif" font-size="10.00">Realm::ActiveMessageHandler</text>
<text text-anchor="start" x="226" y="-550" font-family="Helvetica,sans-Serif" font-size="10.00">Reg&lt; Realm::ApproxImageResponse</text>
<text text-anchor="start" x="226" y="-539" font-family="Helvetica,sans-Serif" font-size="10.00">Message&lt; Realm::PreimageOperation</text>
<text text-anchor="middle" x="319.5" y="-528" font-family="Helvetica,sans-Serif" font-size="10.00">&lt; N, T, N2, T2 &gt; &gt; &gt;</text>
</a>
</g>
</g>
<!-- Node0&#45;&gt;Node7 -->
<g id="edge16_Node000000_Node000007" class="edge">
<title>Node0&#45;&gt;Node7</title>
<g id="a_edge16_Node000000_Node000007"><a xlink:title=" ">
<path fill="none" stroke="#63b8ff" d="M119.95,-472C143.11,-484.55 174.28,-500.48 203,-512 210.78,-515.12 218.95,-518.12 227.19,-520.96"/>
<polygon fill="#63b8ff" stroke="#63b8ff" points="121.63,-468.93 111.17,-467.2 118.27,-475.07 121.63,-468.93"/>
</a>
</g>
</g>
<!-- Node8 -->
<g id="Node000008" class="node">
<title>Node8</title>
<g id="a_Node000008"><a xlink:href="classRealm_1_1ActiveMessageHandlerReg.html" target="_top" xlink:title=" ">
<polygon fill="white" stroke="#666666" points="424.5,-502.5 214.5,-502.5 214.5,-461.5 424.5,-461.5 424.5,-502.5"/>
<text text-anchor="start" x="222.5" y="-490.5" font-family="Helvetica,sans-Serif" font-size="10.00">Realm::ActiveMessageHandler</text>
<text text-anchor="start" x="222.5" y="-479.5" font-family="Helvetica,sans-Serif" font-size="10.00">Reg&lt; Realm::RemoteMicroOpComplete</text>
<text text-anchor="middle" x="319.5" y="-468.5" font-family="Helvetica,sans-Serif" font-size="10.00">Message &gt;</text>
</a>
</g>
</g>
<!-- Node0&#45;&gt;Node8 -->
<g id="edge17_Node000000_Node000008" class="edge">
<title>Node0&#45;&gt;Node8</title>
<g id="a_edge17_Node000000_Node000008"><a xlink:title=" ">
<path fill="none" stroke="#63b8ff" d="M177.45,-463.92C189.61,-465.48 202.13,-467.08 214.46,-468.66"/>
<polygon fill="#63b8ff" stroke="#63b8ff" points="177.69,-460.42 167.33,-462.62 176.8,-467.36 177.69,-460.42"/>
</a>
</g>
</g>
<!-- Node9 -->
<g id="Node000009" class="node">
<title>Node9</title>
<g id="a_Node000009"><a xlink:href="classRealm_1_1ActiveMessageHandlerReg.html" target="_top" xlink:title=" ">
<polygon fill="white" stroke="#666666" points="403,-443.5 236,-443.5 236,-402.5 403,-402.5 403,-443.5"/>
<text text-anchor="start" x="244" y="-431.5" font-family="Helvetica,sans-Serif" font-size="10.00">Realm::ActiveMessageHandler</text>
<text text-anchor="start" x="244" y="-420.5" font-family="Helvetica,sans-Serif" font-size="10.00">Reg&lt; Realm::SparsityMapImpl</text>
<text text-anchor="middle" x="319.5" y="-409.5" font-family="Helvetica,sans-Serif" font-size="10.00">::RemoteSparsityRequest &gt;</text>
</a>
</g>
</g>
<!-- Node0&#45;&gt;Node9 -->
<g id="edge18_Node000000_Node000009" class="edge">
<title>Node0&#45;&gt;Node9</title>
<g id="a_edge18_Node000000_Node000009"><a xlink:title=" ">
<path fill="none" stroke="#63b8ff" d="M177.33,-440.5C196.64,-438.1 216.87,-435.6 235.78,-433.25"/>
<polygon fill="#63b8ff" stroke="#63b8ff" points="176.82,-437.03 167.33,-441.73 177.68,-443.98 176.82,-437.03"/>
</a>
</g>
</g>
<!-- Node10 -->
<g id="Node000010" class="node">
<title>Node10</title>
<g id="a_Node000010"><a xlink:href="classRealm_1_1ActiveMessageHandlerReg.html" target="_top" xlink:title=" ">
<polygon fill="white" stroke="#666666" points="403,-384.5 236,-384.5 236,-343.5 403,-343.5 403,-384.5"/>
<text text-anchor="start" x="244" y="-372.5" font-family="Helvetica,sans-Serif" font-size="10.00">Realm::ActiveMessageHandler</text>
<text text-anchor="start" x="244" y="-361.5" font-family="Helvetica,sans-Serif" font-size="10.00">Reg&lt; Realm::SparsityMapImpl</text>
<text text-anchor="middle" x="319.5" y="-350.5" font-family="Helvetica,sans-Serif" font-size="10.00">::RemoteSparsityContrib &gt;</text>
</a>
</g>
</g>
<!-- Node0&#45;&gt;Node10 -->
<g id="edge19_Node000000_Node000010" class="edge">
<title>Node0&#45;&gt;Node10</title>
<g id="a_edge19_Node000000_Node000010"><a xlink:title=" ">
<path fill="none" stroke="#63b8ff" d="M120.64,-431.95C143.7,-419.76 174.49,-404.56 203,-394 213.49,-390.12 224.7,-386.53 235.85,-383.3"/>
<polygon fill="#63b8ff" stroke="#63b8ff" points="118.75,-428.99 111.58,-436.79 122.05,-435.16 118.75,-428.99"/>
</a>
</g>
</g>
<!-- Node11 -->
<g id="Node000011" class="node">
<title>Node11</title>
<g id="a_Node000011"><a xlink:href="classRealm_1_1ActiveMessageHandlerReg.html" target="_top" xlink:title=" ">
<polygon fill="white" stroke="#666666" points="403,-325.5 236,-325.5 236,-284.5 403,-284.5 403,-325.5"/>
<text text-anchor="start" x="244" y="-313.5" font-family="Helvetica,sans-Serif" font-size="10.00">Realm::ActiveMessageHandler</text>
<text text-anchor="start" x="244" y="-302.5" font-family="Helvetica,sans-Serif" font-size="10.00">Reg&lt; Realm::SparsityMapImpl</text>
<text text-anchor="middle" x="319.5" y="-291.5" font-family="Helvetica,sans-Serif" font-size="10.00">::SetContribCountMessage &gt;</text>
</a>
</g>
</g>
<!-- Node0&#45;&gt;Node11 -->
<g id="edge20_Node000000_Node000011" class="edge">
<title>Node0&#45;&gt;Node11</title>
<g id="a_edge20_Node000000_Node000011"><a xlink:title=" ">
<path fill="none" stroke="#63b8ff" d="M101.63,-428.88C122.6,-402.26 160.58,-359.09 203,-335 213.18,-329.22 224.49,-324.53 235.94,-320.73"/>
<polygon fill="#63b8ff" stroke="#63b8ff" points="98.78,-426.85 95.44,-436.9 104.32,-431.13 98.78,-426.85"/>
</a>
</g>
</g>
<!-- Node12 -->
<g id="Node000012" class="node">
<title>Node12</title>
<g id="a_Node000012"><a xlink:href="classRealm_1_1ActiveMessageHandlerReg.html" target="_top" xlink:title=" ">
<polygon fill="white" stroke="#666666" points="423.5,-266.5 215.5,-266.5 215.5,-225.5 423.5,-225.5 423.5,-266.5"/>
<text text-anchor="start" x="223.5" y="-254.5" font-family="Helvetica,sans-Serif" font-size="10.00">Realm::ActiveMessageHandler</text>
<text text-anchor="start" x="223.5" y="-243.5" font-family="Helvetica,sans-Serif" font-size="10.00">Reg&lt; Realm::SparsityMapImplWrapper</text>
<text text-anchor="middle" x="319.5" y="-232.5" font-family="Helvetica,sans-Serif" font-size="10.00">::UnsubscribeMessage &gt;</text>
</a>
</g>
</g>
<!-- Node0&#45;&gt;Node12 -->
<g id="edge21_Node000000_Node000012" class="edge">
<title>Node0&#45;&gt;Node12</title>
<g id="a_edge21_Node000000_Node000012"><a xlink:title=" ">
<path fill="none" stroke="#63b8ff" d="M94.21,-427.39C110.65,-389 147.67,-315.18 203,-276 207.99,-272.47 213.36,-269.35 218.96,-266.6"/>
<polygon fill="#63b8ff" stroke="#63b8ff" points="90.91,-426.21 90.3,-436.79 97.37,-428.9 90.91,-426.21"/>
</a>
</g>
</g>
<!-- Node13 -->
<g id="Node000013" class="node">
<title>Node13</title>
<g id="a_Node000013"><a xlink:href="classRealm_1_1ActiveMessageHandlerReg.html" target="_top" xlink:title=" ">
<polygon fill="white" stroke="#666666" points="422.5,-207.5 216.5,-207.5 216.5,-166.5 422.5,-166.5 422.5,-207.5"/>
<text text-anchor="start" x="224.5" y="-195.5" font-family="Helvetica,sans-Serif" font-size="10.00">Realm::ActiveMessageHandler</text>
<text text-anchor="start" x="224.5" y="-184.5" font-family="Helvetica,sans-Serif" font-size="10.00">Reg&lt; Realm::SparsityMapRefCounter</text>
<text text-anchor="middle" x="319.5" y="-173.5" font-family="Helvetica,sans-Serif" font-size="10.00">::SparsityMapAddReferenceMessage &gt;</text>
</a>
</g>
</g>
<!-- Node0&#45;&gt;Node13 -->
<g id="edge22_Node000000_Node000013" class="edge">
<title>Node0&#45;&gt;Node13</title>
<g id="a_edge22_Node000000_Node000013"><a xlink:title=" ">
<path fill="none" stroke="#63b8ff" d="M89.88,-427C101.59,-378.74 134.07,-272.62 203,-217 207.35,-213.49 212.07,-210.38 217.03,-207.64"/>
<polygon fill="#63b8ff" stroke="#63b8ff" points="86.43,-426.38 87.57,-436.91 93.24,-427.96 86.43,-426.38"/>
</a>
</g>
</g>
<!-- Node14 -->
<g id="Node000014" class="node">
<title>Node14</title>
<g id="a_Node000014"><a xlink:href="classRealm_1_1ActiveMessageHandlerReg.html" target="_top" xlink:title=" ">
<polygon fill="white" stroke="#666666" points="436,-148.5 203,-148.5 203,-107.5 436,-107.5 436,-148.5"/>
<text text-anchor="start" x="211" y="-136.5" font-family="Helvetica,sans-Serif" font-size="10.00">Realm::ActiveMessageHandler</text>
<text text-anchor="start" x="211" y="-125.5" font-family="Helvetica,sans-Serif" font-size="10.00">Reg&lt; Realm::SparsityMapRefCounter</text>
<text text-anchor="middle" x="319.5" y="-114.5" font-family="Helvetica,sans-Serif" font-size="10.00">::SparsityMapRemoveReferencesMessage &gt;</text>
</a>
</g>
</g>
<!-- Node0&#45;&gt;Node14 -->
<g id="edge23_Node000000_Node000014" class="edge">
<title>Node0&#45;&gt;Node14</title>
<g id="a_edge23_Node000000_Node000014"><a xlink:title=" ">
<path fill="none" stroke="#63b8ff" d="M87.14,-426.51C94.46,-369.44 120.25,-230.7 203,-158 207.05,-154.44 211.46,-151.3 216.13,-148.52"/>
<polygon fill="#63b8ff" stroke="#63b8ff" points="83.63,-426.45 85.92,-436.79 90.58,-427.28 83.63,-426.45"/>
</a>
</g>
</g>
<!-- Node15 -->
<g id="Node000015" class="node">
<title>Node15</title>
<g id="a_Node000015"><a xlink:href="classRealm_1_1ActiveMessageHandlerReg.html" target="_top" xlink:title=" ">
<polygon fill="white" stroke="#666666" points="422.5,-89.5 216.5,-89.5 216.5,-48.5 422.5,-48.5 422.5,-89.5"/>
<text text-anchor="start" x="224.5" y="-77.5" font-family="Helvetica,sans-Serif" font-size="10.00">Realm::ActiveMessageHandler</text>
<text text-anchor="start" x="224.5" y="-66.5" font-family="Helvetica,sans-Serif" font-size="10.00">Reg&lt; Realm::RemoteMicroOpMessage</text>
<text text-anchor="middle" x="319.5" y="-55.5" font-family="Helvetica,sans-Serif" font-size="10.00">&lt; Realm::UnionMicroOp&lt; N, T &gt; &gt; &gt;</text>
</a>
</g>
</g>
<!-- Node0&#45;&gt;Node15 -->
<g id="edge24_Node000000_Node000015" class="edge">
<title>Node0&#45;&gt;Node15</title>
<g id="a_edge24_Node000000_Node000015"><a xlink:title=" ">
<path fill="none" stroke="#63b8ff" d="M85.17,-426.89C88.29,-362.39 105.8,-189.65 203,-99 207.09,-95.18 211.6,-91.84 216.4,-88.91"/>
<polygon fill="#63b8ff" stroke="#63b8ff" points="81.67,-426.82 84.76,-436.96 88.66,-427.11 81.67,-426.82"/>
</a>
</g>
</g>
<!-- Node16 -->
<g id="Node000016" class="node">
<title>Node16</title>
<g id="a_Node000016"><a xlink:href="classRealm_1_1ActiveMessageHandlerReg.html" target="_top" xlink:title=" ">
<polygon fill="white" stroke="#666666" points="403,-30 236,-30 236,0 403,0 403,-30"/>
<text text-anchor="start" x="244" y="-18" font-family="Helvetica,sans-Serif" font-size="10.00">Realm::ActiveMessageHandler</text>
<text text-anchor="middle" x="319.5" y="-7" font-family="Helvetica,sans-Serif" font-size="10.00">Reg&lt; T, T2 &gt;</text>
</a>
</g>
</g>
<!-- Node0&#45;&gt;Node16 -->
<g id="edge25_Node000000_Node000016" class="edge">
<title>Node0&#45;&gt;Node16</title>
<g id="a_edge25_Node000000_Node000016"><a xlink:title=" ">
<path fill="none" stroke="#63b8ff" d="M88.34,-426.69C101.13,-345.6 144.85,-94.38 203,-40 212.22,-31.38 223.67,-25.46 235.75,-21.44"/>
<polygon fill="#63b8ff" stroke="#63b8ff" points="84.82,-426.55 86.74,-436.97 91.73,-427.62 84.82,-426.55"/>
</a>
</g>
</g>
</g>
</svg>
