<?xml version="1.0" encoding="UTF-8" standalone="no"?>
<!DOCTYPE svg PUBLIC "-//W3C//DTD SVG 1.1//EN"
 "http://www.w3.org/Graphics/SVG/1.1/DTD/svg11.dtd">
<!-- Generated by graphviz version 2.43.0 (0)
 -->
<!-- Title: Graphical Class Hierarchy Pages: 1 -->
<svg width="396pt" height="86pt"
 viewBox="0.00 0.00 396.00 86.00" xmlns="http://www.w3.org/2000/svg" xmlns:xlink="http://www.w3.org/1999/xlink">
<g id="graph0" class="graph" transform="scale(1 1) rotate(0) translate(4 82)">
<title>Graphical Class Hierarchy</title>
<!-- Node0 -->
<g id="Node000000" class="node">
<title>Node0</title>
<g id="a_Node000000"><a xlink:href="structRealm_1_1XferDesCreateMessageBase.html" target="_top" xlink:title=" ">
<polygon fill="white" stroke="#666666" points="193,-48.5 0,-48.5 0,-29.5 193,-29.5 193,-48.5"/>
<text text-anchor="middle" x="96.5" y="-36.5" font-family="Helvetica,sans-Serif" font-size="10.00">Realm::XferDesCreateMessageBase</text>
</a>
</g>
</g>
<!-- Node1 -->
<g id="Node000001" class="node">
<title>Node1</title>
<g id="a_Node000001"><a xlink:href="structRealm_1_1AddressSplitXferDesCreateMessage.html" target="_top" xlink:title=" ">
<polygon fill="white" stroke="#666666" points="385.5,-78 231.5,-78 231.5,-48 385.5,-48 385.5,-78"/>
<text text-anchor="start" x="239.5" y="-66" font-family="Helvetica,sans-Serif" font-size="10.00">Realm::AddressSplitXferDes</text>
<text text-anchor="middle" x="308.5" y="-55" font-family="Helvetica,sans-Serif" font-size="10.00">CreateMessage&lt; N, T &gt;</text>
</a>
</g>
</g>
<!-- Node0&#45;&gt;Node1 -->
<g id="edge364_Node000000_Node000001" class="edge">
<title>Node0&#45;&gt;Node1</title>
<g id="a_edge364_Node000000_Node000001"><a xlink:title=" ">
<path fill="none" stroke="#63b8ff" d="M191.07,-49.69C204.58,-51.24 218.35,-52.81 231.46,-54.31"/>
<polygon fill="#63b8ff" stroke="#63b8ff" points="191.13,-46.18 180.8,-48.52 190.34,-53.13 191.13,-46.18"/>
</a>
</g>
</g>
<!-- Node2 -->
<g id="Node000002" class="node">
<title>Node2</title>
<g id="a_Node000002"><a xlink:href="structRealm_1_1SimpleXferDesCreateMessage.html" target="_top" xlink:title=" ">
<polygon fill="white" stroke="#666666" points="388,-30 229,-30 229,0 388,0 388,-30"/>
<text text-anchor="start" x="237" y="-18" font-family="Helvetica,sans-Serif" font-size="10.00">Realm::SimpleXferDesCreate</text>
<text text-anchor="middle" x="308.5" y="-7" font-family="Helvetica,sans-Serif" font-size="10.00">Message</text>
</a>
</g>
</g>
<!-- Node0&#45;&gt;Node2 -->
<g id="edge365_Node000000_Node000002" class="edge">
<title>Node0&#45;&gt;Node2</title>
<g id="a_edge365_Node000000_Node000002"><a xlink:title=" ">
<path fill="none" stroke="#63b8ff" d="M190.88,-28.33C203.52,-26.88 216.39,-25.41 228.75,-24"/>
<polygon fill="#63b8ff" stroke="#63b8ff" points="190.34,-24.87 180.8,-29.48 191.13,-31.82 190.34,-24.87"/>
</a>
</g>
</g>
</g>
</svg>
