<?xml version="1.0" encoding="UTF-8" standalone="no"?>
<!DOCTYPE svg PUBLIC "-//W3C//DTD SVG 1.1//EN"
 "http://www.w3.org/Graphics/SVG/1.1/DTD/svg11.dtd">
<!-- Generated by graphviz version 2.43.0 (0)
 -->
<!-- Title: Graphical Class Hierarchy Pages: 1 -->
<svg width="487pt" height="360pt"
 viewBox="0.00 0.00 487.00 360.00" xmlns="http://www.w3.org/2000/svg" xmlns:xlink="http://www.w3.org/1999/xlink">
<g id="graph0" class="graph" transform="scale(1 1) rotate(0) translate(4 356)">
<title>Graphical Class Hierarchy</title>
<!-- Node0 -->
<g id="Node000000" class="node">
<title>Node0</title>
<g id="a_Node000000"><a xlink:href="classRealm_1_1Module.html" target="_top" xlink:title=" ">
<polygon fill="white" stroke="#666666" points="90,-185 0,-185 0,-166 90,-166 90,-185"/>
<text text-anchor="middle" x="45" y="-173" font-family="Helvetica,sans-Serif" font-size="10.00">Realm::Module</text>
</a>
</g>
</g>
<!-- Node1 -->
<g id="Node000001" class="node">
<title>Node1</title>
<g id="a_Node000001"><a xlink:href="classRealm_1_1CoreModule.html" target="_top" xlink:title=" ">
<polygon fill="white" stroke="#666666" points="271,-352 158,-352 158,-333 271,-333 271,-352"/>
<text text-anchor="middle" x="214.5" y="-340" font-family="Helvetica,sans-Serif" font-size="10.00">Realm::CoreModule</text>
</a>
</g>
</g>
<!-- Node0&#45;&gt;Node1 -->
<g id="edge191_Node000000_Node000001" class="edge">
<title>Node0&#45;&gt;Node1</title>
<g id="a_edge191_Node000000_Node000001"><a xlink:title=" ">
<path fill="none" stroke="#63b8ff" d="M50.71,-195.01C59.59,-227.34 81.99,-291.7 126,-324.5 135.2,-331.36 146.4,-335.76 157.66,-338.54"/>
<polygon fill="#63b8ff" stroke="#63b8ff" points="54.02,-193.82 48.12,-185.01 47.24,-195.57 54.02,-193.82"/>
</a>
</g>
</g>
<!-- Node2 -->
<g id="Node000002" class="node">
<title>Node2</title>
<g id="a_Node000002"><a xlink:href="classRealm_1_1Cuda_1_1CudaModule.html" target="_top" xlink:title=" ">
<polygon fill="white" stroke="#666666" points="287.5,-315 141.5,-315 141.5,-296 287.5,-296 287.5,-315"/>
<text text-anchor="middle" x="214.5" y="-303" font-family="Helvetica,sans-Serif" font-size="10.00">Realm::Cuda::CudaModule</text>
</a>
</g>
</g>
<!-- Node0&#45;&gt;Node2 -->
<g id="edge192_Node000000_Node000002" class="edge">
<title>Node0&#45;&gt;Node2</title>
<g id="a_edge192_Node000000_Node000002"><a xlink:title=" ">
<path fill="none" stroke="#63b8ff" d="M54.09,-194.47C65.97,-219.9 90.61,-264.48 126,-287.5 131.2,-290.88 136.91,-293.65 142.85,-295.91"/>
<polygon fill="#63b8ff" stroke="#63b8ff" points="57.2,-192.85 49.92,-185.16 50.82,-195.72 57.2,-192.85"/>
</a>
</g>
</g>
<!-- Node3 -->
<g id="Node000003" class="node">
<title>Node3</title>
<g id="a_Node000003"><a xlink:href="classRealm_1_1HDF5_1_1HDF5Module.html" target="_top" xlink:title=" ">
<polygon fill="white" stroke="#666666" points="289.5,-278 139.5,-278 139.5,-259 289.5,-259 289.5,-278"/>
<text text-anchor="middle" x="214.5" y="-266" font-family="Helvetica,sans-Serif" font-size="10.00">Realm::HDF5::HDF5Module</text>
</a>
</g>
</g>
<!-- Node0&#45;&gt;Node3 -->
<g id="edge193_Node000000_Node000003" class="edge">
<title>Node0&#45;&gt;Node3</title>
<g id="a_edge193_Node000000_Node000003"><a xlink:title=" ">
<path fill="none" stroke="#63b8ff" d="M59.88,-193.29C74.44,-210.66 98.94,-236.48 126,-250.5 132.61,-253.92 139.82,-256.7 147.17,-258.94"/>
<polygon fill="#63b8ff" stroke="#63b8ff" points="62.23,-190.63 53.21,-185.08 56.8,-195.05 62.23,-190.63"/>
</a>
</g>
</g>
<!-- Node4 -->
<g id="Node000004" class="node">
<title>Node4</title>
<g id="a_Node000004"><a xlink:href="classRealm_1_1Hip_1_1HipModule.html" target="_top" xlink:title=" ">
<polygon fill="white" stroke="#666666" points="279,-241 150,-241 150,-222 279,-222 279,-241"/>
<text text-anchor="middle" x="214.5" y="-229" font-family="Helvetica,sans-Serif" font-size="10.00">Realm::Hip::HipModule</text>
</a>
</g>
</g>
<!-- Node0&#45;&gt;Node4 -->
<g id="edge194_Node000000_Node000004" class="edge">
<title>Node0&#45;&gt;Node4</title>
<g id="a_edge194_Node000000_Node000004"><a xlink:title=" ">
<path fill="none" stroke="#63b8ff" d="M71.87,-189.75C87.23,-197.7 107.29,-207.23 126,-213.5 135.85,-216.8 146.54,-219.61 156.95,-221.95"/>
<polygon fill="#63b8ff" stroke="#63b8ff" points="73.45,-186.62 62.98,-185.04 70.18,-192.81 73.45,-186.62"/>
</a>
</g>
</g>
<!-- Node5 -->
<g id="Node000005" class="node">
<title>Node5</title>
<g id="a_Node000005"><a xlink:href="classRealm_1_1LLVMJit_1_1LLVMJitModule.html" target="_top" xlink:title=" ">
<polygon fill="white" stroke="#666666" points="298,-204 131,-204 131,-185 298,-185 298,-204"/>
<text text-anchor="middle" x="214.5" y="-192" font-family="Helvetica,sans-Serif" font-size="10.00">Realm::LLVMJit::LLVMJitModule</text>
</a>
</g>
</g>
<!-- Node0&#45;&gt;Node5 -->
<g id="edge195_Node000000_Node000005" class="edge">
<title>Node0&#45;&gt;Node5</title>
<g id="a_edge195_Node000000_Node000005"><a xlink:title=" ">
<path fill="none" stroke="#63b8ff" d="M100.04,-181.63C109.91,-182.75 120.41,-183.94 130.89,-185.13"/>
<polygon fill="#63b8ff" stroke="#63b8ff" points="100.34,-178.14 90.01,-180.49 99.55,-185.1 100.34,-178.14"/>
</a>
</g>
</g>
<!-- Node6 -->
<g id="Node000006" class="node">
<title>Node6</title>
<g id="a_Node000006"><a xlink:href="classRealm_1_1NetworkModule.html" target="_top" xlink:title=" ">
<polygon fill="white" stroke="#666666" points="280,-167 149,-167 149,-148 280,-148 280,-167"/>
<text text-anchor="middle" x="214.5" y="-155" font-family="Helvetica,sans-Serif" font-size="10.00">Realm::NetworkModule</text>
</a>
</g>
</g>
<!-- Node0&#45;&gt;Node6 -->
<g id="edge196_Node000000_Node000006" class="edge">
<title>Node0&#45;&gt;Node6</title>
<g id="a_edge196_Node000000_Node000006"><a xlink:title=" ">
<path fill="none" stroke="#63b8ff" d="M100.01,-169.7C115.62,-168.02 132.81,-166.17 148.99,-164.43"/>
<polygon fill="#63b8ff" stroke="#63b8ff" points="99.58,-166.22 90.01,-170.77 100.33,-173.18 99.58,-166.22"/>
</a>
</g>
</g>
<!-- Node11 -->
<g id="Node000011" class="node">
<title>Node11</title>
<g id="a_Node000011"><a xlink:href="classRealm_1_1Numa_1_1NumaModule.html" target="_top" xlink:title=" ">
<polygon fill="white" stroke="#666666" points="292,-130 137,-130 137,-111 292,-111 292,-130"/>
<text text-anchor="middle" x="214.5" y="-118" font-family="Helvetica,sans-Serif" font-size="10.00">Realm::Numa::NumaModule</text>
</a>
</g>
</g>
<!-- Node0&#45;&gt;Node11 -->
<g id="edge201_Node000000_Node000011" class="edge">
<title>Node0&#45;&gt;Node11</title>
<g id="a_edge201_Node000000_Node000011"><a xlink:title=" ">
<path fill="none" stroke="#63b8ff" d="M73.62,-161.35C88.77,-154.02 108.08,-145.4 126,-139.5 137.07,-135.85 149.17,-132.71 160.74,-130.09"/>
<polygon fill="#63b8ff" stroke="#63b8ff" points="71.73,-158.37 64.31,-165.93 74.83,-164.65 71.73,-158.37"/>
</a>
</g>
</g>
<!-- Node12 -->
<g id="Node000012" class="node">
<title>Node12</title>
<g id="a_Node000012"><a xlink:href="classRealm_1_1OpenMP_1_1OpenMPModule.html" target="_top" xlink:title=" ">
<polygon fill="white" stroke="#666666" points="303,-93 126,-93 126,-74 303,-74 303,-93"/>
<text text-anchor="middle" x="214.5" y="-81" font-family="Helvetica,sans-Serif" font-size="10.00">Realm::OpenMP::OpenMPModule</text>
</a>
</g>
</g>
<!-- Node0&#45;&gt;Node12 -->
<g id="edge202_Node000000_Node000012" class="edge">
<title>Node0&#45;&gt;Node12</title>
<g id="a_edge202_Node000000_Node000012"><a xlink:title=" ">
<path fill="none" stroke="#63b8ff" d="M60.25,-157.99C74.94,-141.13 99.4,-116.24 126,-102.5 133.46,-98.65 141.66,-95.58 149.97,-93.13"/>
<polygon fill="#63b8ff" stroke="#63b8ff" points="57.28,-156.07 53.49,-165.97 62.63,-160.59 57.28,-156.07"/>
</a>
</g>
</g>
<!-- Node13 -->
<g id="Node000013" class="node">
<title>Node13</title>
<g id="a_Node000013"><a xlink:href="classRealm_1_1ProcSet_1_1ProcSetModule.html" target="_top" xlink:title=" ">
<polygon fill="white" stroke="#666666" points="299.5,-56 129.5,-56 129.5,-37 299.5,-37 299.5,-56"/>
<text text-anchor="middle" x="214.5" y="-44" font-family="Helvetica,sans-Serif" font-size="10.00">Realm::ProcSet::ProcSetModule</text>
</a>
</g>
</g>
<!-- Node0&#45;&gt;Node13 -->
<g id="edge203_Node000000_Node000013" class="edge">
<title>Node0&#45;&gt;Node13</title>
<g id="a_edge203_Node000000_Node000013"><a xlink:title=" ">
<path fill="none" stroke="#63b8ff" d="M54.4,-156.55C66.49,-131.57 91.23,-88.18 126,-65.5 131.86,-61.68 138.36,-58.61 145.1,-56.16"/>
<polygon fill="#63b8ff" stroke="#63b8ff" points="51.18,-155.17 50.13,-165.72 57.53,-158.13 51.18,-155.17"/>
</a>
</g>
</g>
<!-- Node14 -->
<g id="Node000014" class="node">
<title>Node14</title>
<g id="a_Node000014"><a xlink:href="classRealm_1_1Python_1_1PythonModule.html" target="_top" xlink:title=" ">
<polygon fill="white" stroke="#666666" points="296.5,-19 132.5,-19 132.5,0 296.5,0 296.5,-19"/>
<text text-anchor="middle" x="214.5" y="-7" font-family="Helvetica,sans-Serif" font-size="10.00">Realm::Python::PythonModule</text>
</a>
</g>
</g>
<!-- Node0&#45;&gt;Node14 -->
<g id="edge204_Node000000_Node000014" class="edge">
<title>Node0&#45;&gt;Node14</title>
<g id="a_edge204_Node000000_Node000014"><a xlink:title=" ">
<path fill="none" stroke="#63b8ff" d="M50.88,-155.66C59.91,-123.39 82.38,-59.91 126,-27.5 130.48,-24.17 135.43,-21.42 140.63,-19.15"/>
<polygon fill="#63b8ff" stroke="#63b8ff" points="47.41,-155.1 48.24,-165.66 54.18,-156.89 47.41,-155.1"/>
</a>
</g>
</g>
<!-- Node7 -->
<g id="Node000007" class="node">
<title>Node7</title>
<g id="a_Node000007"><a xlink:href="classRealm_1_1GASNet1Module.html" target="_top" xlink:title=" ">
<polygon fill="white" stroke="#666666" points="476,-222 342,-222 342,-203 476,-203 476,-222"/>
<text text-anchor="middle" x="409" y="-210" font-family="Helvetica,sans-Serif" font-size="10.00">Realm::GASNet1Module</text>
</a>
</g>
</g>
<!-- Node6&#45;&gt;Node7 -->
<g id="edge197_Node000006_Node000007" class="edge">
<title>Node6&#45;&gt;Node7</title>
<g id="a_edge197_Node000006_Node000007"><a xlink:title=" ">
<path fill="none" stroke="#63b8ff" d="M279.49,-169.45C287.49,-171.51 295.5,-173.86 303,-176.5 319.87,-182.44 322.25,-188.21 339,-194.5 347.46,-197.68 356.71,-200.51 365.6,-202.93"/>
<polygon fill="#63b8ff" stroke="#63b8ff" points="280.31,-166.05 269.77,-167.07 278.65,-172.85 280.31,-166.05"/>
</a>
</g>
</g>
<!-- Node8 -->
<g id="Node000008" class="node">
<title>Node8</title>
<g id="a_Node000008"><a xlink:href="classRealm_1_1GASNetEXModule.html" target="_top" xlink:title=" ">
<polygon fill="white" stroke="#666666" points="479,-185 339,-185 339,-166 479,-166 479,-185"/>
<text text-anchor="middle" x="409" y="-173" font-family="Helvetica,sans-Serif" font-size="10.00">Realm::GASNetEXModule</text>
</a>
</g>
</g>
<!-- Node6&#45;&gt;Node8 -->
<g id="edge198_Node000006_Node000008" class="edge">
<title>Node6&#45;&gt;Node8</title>
<g id="a_edge198_Node000006_Node000008"><a xlink:title=" ">
<path fill="none" stroke="#63b8ff" d="M290.48,-164.51C306.43,-166 323.2,-167.57 338.92,-169.04"/>
<polygon fill="#63b8ff" stroke="#63b8ff" points="290.42,-160.99 280.14,-163.54 289.77,-167.96 290.42,-160.99"/>
</a>
</g>
</g>
<!-- Node9 -->
<g id="Node000009" class="node">
<title>Node9</title>
<g id="a_Node000009"><a xlink:href="classRealm_1_1MPIModule.html" target="_top" xlink:title=" ">
<polygon fill="white" stroke="#666666" points="463,-148 355,-148 355,-129 463,-129 463,-148"/>
<text text-anchor="middle" x="409" y="-136" font-family="Helvetica,sans-Serif" font-size="10.00">Realm::MPIModule</text>
</a>
</g>
</g>
<!-- Node6&#45;&gt;Node9 -->
<g id="edge199_Node000006_Node000009" class="edge">
<title>Node6&#45;&gt;Node9</title>
<g id="a_edge199_Node000006_Node000009"><a xlink:title=" ">
<path fill="none" stroke="#63b8ff" d="M290.23,-150.12C311.76,-148 334.8,-145.72 354.74,-143.76"/>
<polygon fill="#63b8ff" stroke="#63b8ff" points="289.74,-146.66 280.14,-151.12 290.43,-153.62 289.74,-146.66"/>
</a>
</g>
</g>
<!-- Node10 -->
<g id="Node000010" class="node">
<title>Node10</title>
<g id="a_Node000010"><a xlink:href="classRealm_1_1UCPModule.html" target="_top" xlink:title=" ">
<polygon fill="white" stroke="#666666" points="464,-111 354,-111 354,-92 464,-92 464,-111"/>
<text text-anchor="middle" x="409" y="-99" font-family="Helvetica,sans-Serif" font-size="10.00">Realm::UCPModule</text>
</a>
</g>
</g>
<!-- Node6&#45;&gt;Node10 -->
<g id="edge200_Node000006_Node000010" class="edge">
<title>Node6&#45;&gt;Node10</title>
<g id="a_edge200_Node000006_Node000010"><a xlink:title=" ">
<path fill="none" stroke="#63b8ff" d="M283.39,-145.53C290.08,-143.75 296.72,-141.75 303,-139.5 320.03,-133.39 322.18,-127.16 339,-120.5 348.13,-116.89 358.19,-113.69 367.74,-111"/>
<polygon fill="#63b8ff" stroke="#63b8ff" points="282.42,-142.16 273.56,-147.97 284.11,-148.95 282.42,-142.16"/>
</a>
</g>
</g>
</g>
</svg>
