<?xml version="1.0" encoding="UTF-8" standalone="no"?>
<!DOCTYPE svg PUBLIC "-//W3C//DTD SVG 1.1//EN"
 "http://www.w3.org/Graphics/SVG/1.1/DTD/svg11.dtd">
<!-- Generated by graphviz version 2.43.0 (0)
 -->
<!-- Title: Graphical Class Hierarchy Pages: 1 -->
<svg width="381pt" height="157pt"
 viewBox="0.00 0.00 381.00 156.50" xmlns="http://www.w3.org/2000/svg" xmlns:xlink="http://www.w3.org/1999/xlink">
<g id="graph0" class="graph" transform="scale(1 1) rotate(0) translate(4 152.5)">
<title>Graphical Class Hierarchy</title>
<!-- Node0 -->
<g id="Node000000" class="node">
<title>Node0</title>
<g id="a_Node000000"><a xlink:title=" ">
<polygon fill="#e0e0e0" stroke="#999999" points="134,-78.5 0,-78.5 0,-59.5 134,-59.5 134,-78.5"/>
<text text-anchor="middle" x="67" y="-66.5" font-family="Helvetica,sans-Serif" font-size="10.00">PQ::NotificationCallback</text>
</a>
</g>
</g>
<!-- Node1 -->
<g id="Node000001" class="node">
<title>Node1</title>
<g id="a_Node000001"><a xlink:href="classRealm_1_1ThreadedTaskScheduler_1_1WorkCounterUpdater.html" target="_top" xlink:title=" ">
<polygon fill="white" stroke="#666666" points="356.5,-148.5 186.5,-148.5 186.5,-107.5 356.5,-107.5 356.5,-148.5"/>
<text text-anchor="start" x="194.5" y="-136.5" font-family="Helvetica,sans-Serif" font-size="10.00">Realm::ThreadedTaskScheduler</text>
<text text-anchor="start" x="194.5" y="-125.5" font-family="Helvetica,sans-Serif" font-size="10.00">::WorkCounterUpdater&lt; Realm</text>
<text text-anchor="middle" x="271.5" y="-114.5" font-family="Helvetica,sans-Serif" font-size="10.00">::TaskQueue &gt;</text>
</a>
</g>
</g>
<!-- Node0&#45;&gt;Node1 -->
<g id="edge7_Node000000_Node000001" class="edge">
<title>Node0&#45;&gt;Node1</title>
<g id="a_edge7_Node000000_Node000001"><a xlink:title=" ">
<path fill="none" stroke="#63b8ff" d="M109.98,-81.4C128.39,-86.82 150.26,-93.25 170,-99 179.41,-101.74 189.33,-104.62 199.11,-107.45"/>
<polygon fill="#63b8ff" stroke="#63b8ff" points="110.73,-77.97 100.15,-78.5 108.75,-84.69 110.73,-77.97"/>
</a>
</g>
</g>
<!-- Node2 -->
<g id="Node000002" class="node">
<title>Node2</title>
<g id="a_Node000002"><a xlink:href="classRealm_1_1ThreadedTaskScheduler_1_1WorkCounterUpdater.html" target="_top" xlink:title=" ">
<polygon fill="white" stroke="#666666" points="373,-89.5 170,-89.5 170,-48.5 373,-48.5 373,-89.5"/>
<text text-anchor="start" x="178" y="-77.5" font-family="Helvetica,sans-Serif" font-size="10.00">Realm::ThreadedTaskScheduler</text>
<text text-anchor="start" x="178" y="-66.5" font-family="Helvetica,sans-Serif" font-size="10.00">::WorkCounterUpdater&lt; PriorityQueue</text>
<text text-anchor="middle" x="271.5" y="-55.5" font-family="Helvetica,sans-Serif" font-size="10.00">&lt; Thread *, DummyLock &gt; &gt;</text>
</a>
</g>
</g>
<!-- Node0&#45;&gt;Node2 -->
<g id="edge8_Node000000_Node000002" class="edge">
<title>Node0&#45;&gt;Node2</title>
<g id="a_edge8_Node000000_Node000002"><a xlink:title=" ">
<path fill="none" stroke="#63b8ff" d="M144.09,-69C152.45,-69 161.06,-69 169.66,-69"/>
<polygon fill="#63b8ff" stroke="#63b8ff" points="144.03,-65.5 134.03,-69 144.03,-72.5 144.03,-65.5"/>
</a>
</g>
</g>
<!-- Node3 -->
<g id="Node000003" class="node">
<title>Node3</title>
<g id="a_Node000003"><a xlink:href="classRealm_1_1ThreadedTaskScheduler_1_1WorkCounterUpdater.html" target="_top" xlink:title=" ">
<polygon fill="white" stroke="#666666" points="356.5,-30 186.5,-30 186.5,0 356.5,0 356.5,-30"/>
<text text-anchor="start" x="194.5" y="-18" font-family="Helvetica,sans-Serif" font-size="10.00">Realm::ThreadedTaskScheduler</text>
<text text-anchor="middle" x="271.5" y="-7" font-family="Helvetica,sans-Serif" font-size="10.00">::WorkCounterUpdater&lt; PQ &gt;</text>
</a>
</g>
</g>
<!-- Node0&#45;&gt;Node3 -->
<g id="edge9_Node000000_Node000003" class="edge">
<title>Node0&#45;&gt;Node3</title>
<g id="a_edge9_Node000000_Node000003"><a xlink:title=" ">
<path fill="none" stroke="#63b8ff" d="M110.33,-56.63C128.64,-51.36 150.34,-45.24 170,-40 182.51,-36.67 195.93,-33.23 208.76,-30.01"/>
<polygon fill="#63b8ff" stroke="#63b8ff" points="109.18,-53.32 100.54,-59.45 111.12,-60.04 109.18,-53.32"/>
</a>
</g>
</g>
</g>
</svg>
