<?xml version="1.0" encoding="UTF-8" standalone="no"?>
<!DOCTYPE svg PUBLIC "-//W3C//DTD SVG 1.1//EN"
 "http://www.w3.org/Graphics/SVG/1.1/DTD/svg11.dtd">
<!-- Generated by graphviz version 2.43.0 (0)
 -->
<!-- Title: Graphical Class Hierarchy Pages: 1 -->
<svg width="409pt" height="101pt"
 viewBox="0.00 0.00 409.00 101.00" xmlns="http://www.w3.org/2000/svg" xmlns:xlink="http://www.w3.org/1999/xlink">
<g id="graph0" class="graph" transform="scale(1 1) rotate(0) translate(4 97)">
<title>Graphical Class Hierarchy</title>
<!-- Node0 -->
<g id="Node000000" class="node">
<title>Node0</title>
<g id="a_Node000000"><a xlink:href="classRealm_1_1CodeImplementation.html" target="_top" xlink:title=" ">
<polygon fill="white" stroke="#666666" points="157,-56 0,-56 0,-37 157,-37 157,-56"/>
<text text-anchor="middle" x="78.5" y="-44" font-family="Helvetica,sans-Serif" font-size="10.00">Realm::CodeImplementation</text>
</a>
</g>
</g>
<!-- Node1 -->
<g id="Node000001" class="node">
<title>Node1</title>
<g id="a_Node000001"><a xlink:href="classRealm_1_1FunctionPointerImplementation.html" target="_top" xlink:title=" ">
<polygon fill="white" stroke="#666666" points="401,-93 193,-93 193,-74 401,-74 401,-93"/>
<text text-anchor="middle" x="297" y="-81" font-family="Helvetica,sans-Serif" font-size="10.00">Realm::FunctionPointerImplementation</text>
</a>
</g>
</g>
<!-- Node0&#45;&gt;Node1 -->
<g id="edge92_Node000000_Node000001" class="edge">
<title>Node0&#45;&gt;Node1</title>
<g id="a_edge92_Node000000_Node000001"><a xlink:title=" ">
<path fill="none" stroke="#63b8ff" d="M145.3,-57.75C175.57,-62.92 211.1,-68.99 240.06,-73.94"/>
<polygon fill="#63b8ff" stroke="#63b8ff" points="145.7,-54.26 135.25,-56.03 144.52,-61.16 145.7,-54.26"/>
</a>
</g>
</g>
<!-- Node2 -->
<g id="Node000002" class="node">
<title>Node2</title>
<g id="a_Node000002"><a xlink:href="classRealm_1_1LLVMIRImplementation.html" target="_top" xlink:title=" ">
<polygon fill="white" stroke="#666666" points="380.5,-56 213.5,-56 213.5,-37 380.5,-37 380.5,-56"/>
<text text-anchor="middle" x="297" y="-44" font-family="Helvetica,sans-Serif" font-size="10.00">Realm::LLVMIRImplementation</text>
</a>
</g>
</g>
<!-- Node0&#45;&gt;Node2 -->
<g id="edge93_Node000000_Node000002" class="edge">
<title>Node0&#45;&gt;Node2</title>
<g id="a_edge93_Node000000_Node000002"><a xlink:title=" ">
<path fill="none" stroke="#63b8ff" d="M167.41,-46.5C182.51,-46.5 198.17,-46.5 213.13,-46.5"/>
<polygon fill="#63b8ff" stroke="#63b8ff" points="167.05,-43 157.05,-46.5 167.05,-50 167.05,-43"/>
</a>
</g>
</g>
<!-- Node3 -->
<g id="Node000003" class="node">
<title>Node3</title>
<g id="a_Node000003"><a xlink:href="classRealm_1_1PythonSourceImplementation.html" target="_top" xlink:title=" ">
<polygon fill="white" stroke="#666666" points="396.5,-19 197.5,-19 197.5,0 396.5,0 396.5,-19"/>
<text text-anchor="middle" x="297" y="-7" font-family="Helvetica,sans-Serif" font-size="10.00">Realm::PythonSourceImplementation</text>
</a>
</g>
</g>
<!-- Node0&#45;&gt;Node3 -->
<g id="edge94_Node000000_Node000003" class="edge">
<title>Node0&#45;&gt;Node3</title>
<g id="a_edge94_Node000000_Node000003"><a xlink:title=" ">
<path fill="none" stroke="#63b8ff" d="M145.3,-35.25C175.57,-30.08 211.1,-24.01 240.06,-19.06"/>
<polygon fill="#63b8ff" stroke="#63b8ff" points="144.52,-31.84 135.25,-36.97 145.7,-38.74 144.52,-31.84"/>
</a>
</g>
</g>
</g>
</svg>
