<?xml version="1.0" encoding="UTF-8" standalone="no"?>
<!DOCTYPE svg PUBLIC "-//W3C//DTD SVG 1.1//EN"
 "http://www.w3.org/Graphics/SVG/1.1/DTD/svg11.dtd">
<!-- Generated by graphviz version 2.43.0 (0)
 -->
<!-- Title: Graphical Class Hierarchy Pages: 1 -->
<svg width="346pt" height="134pt"
 viewBox="0.00 0.00 346.00 134.00" xmlns="http://www.w3.org/2000/svg" xmlns:xlink="http://www.w3.org/1999/xlink">
<g id="graph0" class="graph" transform="scale(1 1) rotate(0) translate(4 130)">
<title>Graphical Class Hierarchy</title>
<!-- Node0 -->
<g id="Node000000" class="node">
<title>Node0</title>
<g id="a_Node000000"><a xlink:href="classRealm_1_1QueryPredicate.html" target="_top" xlink:title=" ">
<polygon fill="white" stroke="#666666" points="129,-78 0,-78 0,-48 129,-48 129,-78"/>
<text text-anchor="start" x="8" y="-66" font-family="Helvetica,sans-Serif" font-size="10.00">Realm::QueryPredicate</text>
<text text-anchor="middle" x="64.5" y="-55" font-family="Helvetica,sans-Serif" font-size="10.00">&lt; T, T2 &gt;</text>
</a>
</g>
</g>
<!-- Node1 -->
<g id="Node000001" class="node">
<title>Node1</title>
<g id="a_Node000001"><a xlink:href="classRealm_1_1MemoryHasMemAffinityPredicate.html" target="_top" xlink:title=" ">
<polygon fill="white" stroke="#666666" points="338,-126 165,-126 165,-96 338,-96 338,-126"/>
<text text-anchor="start" x="173" y="-114" font-family="Helvetica,sans-Serif" font-size="10.00">Realm::MemoryHasMemAffinity</text>
<text text-anchor="middle" x="251.5" y="-103" font-family="Helvetica,sans-Serif" font-size="10.00">Predicate</text>
</a>
</g>
</g>
<!-- Node0&#45;&gt;Node1 -->
<g id="edge279_Node000000_Node000001" class="edge">
<title>Node0&#45;&gt;Node1</title>
<g id="a_edge279_Node000000_Node000001"><a xlink:title=" ">
<path fill="none" stroke="#63b8ff" d="M133.26,-80.58C152.76,-85.64 173.84,-91.11 192.68,-96"/>
<polygon fill="#63b8ff" stroke="#63b8ff" points="134.09,-77.18 123.53,-78.06 132.33,-83.96 134.09,-77.18"/>
</a>
</g>
</g>
<!-- Node2 -->
<g id="Node000002" class="node">
<title>Node2</title>
<g id="a_Node000002"><a xlink:href="classRealm_1_1MemoryHasProcAffinityPredicate.html" target="_top" xlink:title=" ">
<polygon fill="white" stroke="#666666" points="336.5,-78 166.5,-78 166.5,-48 336.5,-48 336.5,-78"/>
<text text-anchor="start" x="174.5" y="-66" font-family="Helvetica,sans-Serif" font-size="10.00">Realm::MemoryHasProcAffinity</text>
<text text-anchor="middle" x="251.5" y="-55" font-family="Helvetica,sans-Serif" font-size="10.00">Predicate</text>
</a>
</g>
</g>
<!-- Node0&#45;&gt;Node2 -->
<g id="edge280_Node000000_Node000002" class="edge">
<title>Node0&#45;&gt;Node2</title>
<g id="a_edge280_Node000000_Node000002"><a xlink:title=" ">
<path fill="none" stroke="#63b8ff" d="M139.17,-63C148.14,-63 157.35,-63 166.46,-63"/>
<polygon fill="#63b8ff" stroke="#63b8ff" points="139.17,-59.5 129.17,-63 139.17,-66.5 139.17,-59.5"/>
</a>
</g>
</g>
<!-- Node3 -->
<g id="Node000003" class="node">
<title>Node3</title>
<g id="a_Node000003"><a xlink:href="classRealm_1_1ProcessorHasAffinityPredicate.html" target="_top" xlink:title=" ">
<polygon fill="white" stroke="#666666" points="329,-30 174,-30 174,0 329,0 329,-30"/>
<text text-anchor="start" x="182" y="-18" font-family="Helvetica,sans-Serif" font-size="10.00">Realm::ProcessorHasAffinity</text>
<text text-anchor="middle" x="251.5" y="-7" font-family="Helvetica,sans-Serif" font-size="10.00">Predicate</text>
</a>
</g>
</g>
<!-- Node0&#45;&gt;Node3 -->
<g id="edge281_Node000000_Node000003" class="edge">
<title>Node0&#45;&gt;Node3</title>
<g id="a_edge281_Node000000_Node000003"><a xlink:title=" ">
<path fill="none" stroke="#63b8ff" d="M133.26,-45.42C152.76,-40.36 173.84,-34.89 192.68,-30"/>
<polygon fill="#63b8ff" stroke="#63b8ff" points="132.33,-42.04 123.53,-47.94 134.09,-48.82 132.33,-42.04"/>
</a>
</g>
</g>
</g>
</svg>
