<?xml version="1.0" encoding="UTF-8" standalone="no"?>
<!DOCTYPE svg PUBLIC "-//W3C//DTD SVG 1.1//EN"
 "http://www.w3.org/Graphics/SVG/1.1/DTD/svg11.dtd">
<!-- Generated by graphviz version 2.43.0 (0)
 -->
<!-- Title: Graphical Class Hierarchy Pages: 1 -->
<svg width="393pt" height="64pt"
 viewBox="0.00 0.00 393.00 64.00" xmlns="http://www.w3.org/2000/svg" xmlns:xlink="http://www.w3.org/1999/xlink">
<g id="graph0" class="graph" transform="scale(1 1) rotate(0) translate(4 60)">
<title>Graphical Class Hierarchy</title>
<!-- Node0 -->
<g id="Node000000" class="node">
<title>Node0</title>
<g id="a_Node000000"><a xlink:href="classRealm_1_1ModuleSpecificInfo.html" target="_top" xlink:title=" ">
<polygon fill="white" stroke="#666666" points="146,-37 0,-37 0,-18 146,-18 146,-37"/>
<text text-anchor="middle" x="73" y="-25" font-family="Helvetica,sans-Serif" font-size="10.00">Realm::ModuleSpecificInfo</text>
</a>
</g>
</g>
<!-- Node1 -->
<g id="Node000001" class="node">
<title>Node1</title>
<g id="a_Node000001"><a xlink:href="classRealm_1_1Cuda_1_1CudaDeviceMemoryInfo.html" target="_top" xlink:title=" ">
<polygon fill="white" stroke="#666666" points="385,-56 182,-56 182,-37 385,-37 385,-56"/>
<text text-anchor="middle" x="283.5" y="-44" font-family="Helvetica,sans-Serif" font-size="10.00">Realm::Cuda::CudaDeviceMemoryInfo</text>
</a>
</g>
</g>
<!-- Node0&#45;&gt;Node1 -->
<g id="edge216_Node000000_Node000001" class="edge">
<title>Node0&#45;&gt;Node1</title>
<g id="a_edge216_Node000000_Node000001"><a xlink:title=" ">
<path fill="none" stroke="#63b8ff" d="M156.18,-34.99C164.58,-35.75 173.18,-36.54 181.76,-37.32"/>
<polygon fill="#63b8ff" stroke="#63b8ff" points="156.32,-31.49 146.05,-34.07 155.69,-38.46 156.32,-31.49"/>
</a>
</g>
</g>
<!-- Node2 -->
<g id="Node000002" class="node">
<title>Node2</title>
<g id="a_Node000002"><a xlink:href="classRealm_1_1Hip_1_1HipDeviceMemoryInfo.html" target="_top" xlink:title=" ">
<polygon fill="white" stroke="#666666" points="376.5,-19 190.5,-19 190.5,0 376.5,0 376.5,-19"/>
<text text-anchor="middle" x="283.5" y="-7" font-family="Helvetica,sans-Serif" font-size="10.00">Realm::Hip::HipDeviceMemoryInfo</text>
</a>
</g>
</g>
<!-- Node0&#45;&gt;Node2 -->
<g id="edge217_Node000000_Node000002" class="edge">
<title>Node0&#45;&gt;Node2</title>
<g id="a_edge217_Node000000_Node000002"><a xlink:title=" ">
<path fill="none" stroke="#63b8ff" d="M156.19,-20.4C167.36,-19.44 178.89,-18.44 190.23,-17.47"/>
<polygon fill="#63b8ff" stroke="#63b8ff" points="155.71,-16.93 146.05,-21.28 156.31,-23.91 155.71,-16.93"/>
</a>
</g>
</g>
</g>
</svg>
