<?xml version="1.0" encoding="UTF-8" standalone="no"?>
<!DOCTYPE svg PUBLIC "-//W3C//DTD SVG 1.1//EN"
 "http://www.w3.org/Graphics/SVG/1.1/DTD/svg11.dtd">
<!-- Generated by graphviz version 2.43.0 (0)
 -->
<!-- Title: Graphical Class Hierarchy Pages: 1 -->
<svg width="578pt" height="514pt"
 viewBox="0.00 0.00 578.00 514.00" xmlns="http://www.w3.org/2000/svg" xmlns:xlink="http://www.w3.org/1999/xlink">
<g id="graph0" class="graph" transform="scale(1 1) rotate(0) translate(4 510)">
<title>Graphical Class Hierarchy</title>
<!-- Node0 -->
<g id="Node000000" class="node">
<title>Node0</title>
<g id="a_Node000000"><a xlink:href="classRealm_1_1MemoryImpl.html" target="_top" xlink:title=" ">
<polygon fill="white" stroke="#666666" points="116,-395 0,-395 0,-376 116,-376 116,-395"/>
<text text-anchor="middle" x="58" y="-383" font-family="Helvetica,sans-Serif" font-size="10.00">Realm::MemoryImpl</text>
</a>
</g>
</g>
<!-- Node1 -->
<g id="Node000001" class="node">
<title>Node1</title>
<g id="a_Node000001"><a xlink:href="classRealm_1_1Cuda_1_1GPUDynamicFBMemory.html" target="_top" xlink:title=" ">
<polygon fill="white" stroke="#666666" points="355,-469 152,-469 152,-450 355,-450 355,-469"/>
<text text-anchor="middle" x="253.5" y="-457" font-family="Helvetica,sans-Serif" font-size="10.00">Realm::Cuda::GPUDynamicFBMemory</text>
</a>
</g>
</g>
<!-- Node0&#45;&gt;Node1 -->
<g id="edge170_Node000000_Node000001" class="edge">
<title>Node0&#45;&gt;Node1</title>
<g id="a_edge170_Node000000_Node000001"><a xlink:title=" ">
<path fill="none" stroke="#63b8ff" d="M80.06,-401.27C98.2,-414.06 125.56,-431.56 152,-441.5 161.13,-444.93 170.97,-447.72 180.8,-449.98"/>
<polygon fill="#63b8ff" stroke="#63b8ff" points="81.63,-398.08 71.47,-395.07 77.53,-403.76 81.63,-398.08"/>
</a>
</g>
</g>
<!-- Node2 -->
<g id="Node000002" class="node">
<title>Node2</title>
<g id="a_Node000002"><a xlink:href="classRealm_1_1FileMemory.html" target="_top" xlink:title=" ">
<polygon fill="white" stroke="#666666" points="309.5,-432 197.5,-432 197.5,-413 309.5,-413 309.5,-432"/>
<text text-anchor="middle" x="253.5" y="-420" font-family="Helvetica,sans-Serif" font-size="10.00">Realm::FileMemory</text>
</a>
</g>
</g>
<!-- Node0&#45;&gt;Node2 -->
<g id="edge171_Node000000_Node000002" class="edge">
<title>Node0&#45;&gt;Node2</title>
<g id="a_edge171_Node000000_Node000002"><a xlink:title=" ">
<path fill="none" stroke="#63b8ff" d="M114.91,-397.15C127.12,-399.63 139.99,-402.2 152,-404.5 166.88,-407.35 183.04,-410.31 197.95,-412.98"/>
<polygon fill="#63b8ff" stroke="#63b8ff" points="115.34,-393.67 104.84,-395.1 113.94,-400.53 115.34,-393.67"/>
</a>
</g>
</g>
<!-- Node3 -->
<g id="Node000003" class="node">
<title>Node3</title>
<g id="a_Node000003"><a xlink:href="classRealm_1_1HDF5_1_1HDF5Memory.html" target="_top" xlink:title=" ">
<polygon fill="white" stroke="#666666" points="331,-395 176,-395 176,-376 331,-376 331,-395"/>
<text text-anchor="middle" x="253.5" y="-383" font-family="Helvetica,sans-Serif" font-size="10.00">Realm::HDF5::HDF5Memory</text>
</a>
</g>
</g>
<!-- Node0&#45;&gt;Node3 -->
<g id="edge172_Node000000_Node000003" class="edge">
<title>Node0&#45;&gt;Node3</title>
<g id="a_edge172_Node000000_Node000003"><a xlink:title=" ">
<path fill="none" stroke="#63b8ff" d="M126.32,-385.5C142.29,-385.5 159.46,-385.5 175.82,-385.5"/>
<polygon fill="#63b8ff" stroke="#63b8ff" points="126.01,-382 116.01,-385.5 126.01,-389 126.01,-382"/>
</a>
</g>
</g>
<!-- Node4 -->
<g id="Node000004" class="node">
<title>Node4</title>
<g id="a_Node000004"><a xlink:href="classRealm_1_1Hip_1_1GPUDynamicFBMemory.html" target="_top" xlink:title=" ">
<polygon fill="white" stroke="#666666" points="350.5,-358 156.5,-358 156.5,-339 350.5,-339 350.5,-358"/>
<text text-anchor="middle" x="253.5" y="-346" font-family="Helvetica,sans-Serif" font-size="10.00">Realm::Hip::GPUDynamicFBMemory</text>
</a>
</g>
</g>
<!-- Node0&#45;&gt;Node4 -->
<g id="edge173_Node000000_Node000004" class="edge">
<title>Node0&#45;&gt;Node4</title>
<g id="a_edge173_Node000000_Node000004"><a xlink:title=" ">
<path fill="none" stroke="#63b8ff" d="M114.91,-373.85C127.12,-371.37 139.99,-368.8 152,-366.5 166.88,-363.65 183.04,-360.69 197.95,-358.02"/>
<polygon fill="#63b8ff" stroke="#63b8ff" points="113.94,-370.47 104.84,-375.9 115.34,-377.33 113.94,-370.47"/>
</a>
</g>
</g>
<!-- Node5 -->
<g id="Node000005" class="node">
<title>Node5</title>
<g id="a_Node000005"><a xlink:href="classRealm_1_1IBMemory.html" target="_top" xlink:title=" ">
<polygon fill="white" stroke="#666666" points="305.5,-272 201.5,-272 201.5,-253 305.5,-253 305.5,-272"/>
<text text-anchor="middle" x="253.5" y="-260" font-family="Helvetica,sans-Serif" font-size="10.00">Realm::IBMemory</text>
</a>
</g>
</g>
<!-- Node0&#45;&gt;Node5 -->
<g id="edge174_Node000000_Node000005" class="edge">
<title>Node0&#45;&gt;Node5</title>
<g id="a_edge174_Node000000_Node000005"><a xlink:title=" ">
<path fill="none" stroke="#63b8ff" d="M69.98,-367.07C85.22,-343.24 115.11,-302.33 152,-281.5 166.92,-273.07 184.87,-268.3 201.45,-265.62"/>
<polygon fill="#63b8ff" stroke="#63b8ff" points="66.83,-365.51 64.54,-375.85 72.78,-369.2 66.83,-365.51"/>
</a>
</g>
</g>
<!-- Node12 -->
<g id="Node000012" class="node">
<title>Node12</title>
<g id="a_Node000012"><a xlink:href="classRealm_1_1LocalManagedMemory.html" target="_top" xlink:title=" ">
<polygon fill="white" stroke="#666666" points="336,-130 171,-130 171,-111 336,-111 336,-130"/>
<text text-anchor="middle" x="253.5" y="-118" font-family="Helvetica,sans-Serif" font-size="10.00">Realm::LocalManagedMemory</text>
</a>
</g>
</g>
<!-- Node0&#45;&gt;Node12 -->
<g id="edge178_Node000000_Node000012" class="edge">
<title>Node0&#45;&gt;Node12</title>
<g id="a_edge178_Node000000_Node000012"><a xlink:title=" ">
<path fill="none" stroke="#63b8ff" d="M69.99,-367.42C86.82,-340.04 120.37,-286.66 152,-243.5 184.11,-199.68 226.32,-150.47 244.06,-130.11"/>
<polygon fill="#63b8ff" stroke="#63b8ff" points="66.99,-365.61 64.76,-375.97 72.96,-369.26 66.99,-365.61"/>
</a>
</g>
</g>
<!-- Node11 -->
<g id="Node000011" class="node">
<title>Node11</title>
<g id="a_Node000011"><a xlink:href="classRealm_1_1RemoteMemory.html" target="_top" xlink:title=" ">
<polygon fill="white" stroke="#666666" points="320,-506 187,-506 187,-487 320,-487 320,-506"/>
<text text-anchor="middle" x="253.5" y="-494" font-family="Helvetica,sans-Serif" font-size="10.00">Realm::RemoteMemory</text>
</a>
</g>
</g>
<!-- Node0&#45;&gt;Node11 -->
<g id="edge185_Node000000_Node000011" class="edge">
<title>Node0&#45;&gt;Node11</title>
<g id="a_edge185_Node000000_Node000011"><a xlink:title=" ">
<path fill="none" stroke="#63b8ff" d="M71.36,-403.28C87.35,-424.79 117.29,-460.37 152,-478.5 162.68,-484.08 174.78,-487.97 186.79,-490.66"/>
<polygon fill="#63b8ff" stroke="#63b8ff" points="74.09,-401.08 65.39,-395.02 68.41,-405.17 74.09,-401.08"/>
</a>
</g>
</g>
<!-- Node6 -->
<g id="Node000006" class="node">
<title>Node6</title>
<g id="a_Node000006"><a xlink:href="classRealm_1_1Cuda_1_1GPUFBIBMemory.html" target="_top" xlink:title=" ">
<polygon fill="white" stroke="#666666" points="565,-241 396,-241 396,-222 565,-222 565,-241"/>
<text text-anchor="middle" x="480.5" y="-229" font-family="Helvetica,sans-Serif" font-size="10.00">Realm::Cuda::GPUFBIBMemory</text>
</a>
</g>
</g>
<!-- Node5&#45;&gt;Node6 -->
<g id="edge175_Node000005_Node000006" class="edge">
<title>Node5&#45;&gt;Node6</title>
<g id="a_edge175_Node000005_Node000006"><a xlink:title=" ">
<path fill="none" stroke="#63b8ff" d="M315.64,-254.08C344.9,-250.04 380.07,-245.2 410.31,-241.03"/>
<polygon fill="#63b8ff" stroke="#63b8ff" points="314.98,-250.63 305.56,-255.47 315.94,-257.57 314.98,-250.63"/>
</a>
</g>
</g>
<!-- Node7 -->
<g id="Node000007" class="node">
<title>Node7</title>
<g id="a_Node000007"><a xlink:href="classRealm_1_1Hip_1_1GPUFBIBMemory.html" target="_top" xlink:title=" ">
<polygon fill="white" stroke="#666666" points="561,-278 400,-278 400,-259 561,-259 561,-278"/>
<text text-anchor="middle" x="480.5" y="-266" font-family="Helvetica,sans-Serif" font-size="10.00">Realm::Hip::GPUFBIBMemory</text>
</a>
</g>
</g>
<!-- Node5&#45;&gt;Node7 -->
<g id="edge176_Node000005_Node000007" class="edge">
<title>Node5&#45;&gt;Node7</title>
<g id="a_edge176_Node000005_Node000007"><a xlink:title=" ">
<path fill="none" stroke="#63b8ff" d="M315.64,-264.13C341.62,-264.82 372.25,-265.64 399.95,-266.38"/>
<polygon fill="#63b8ff" stroke="#63b8ff" points="315.65,-260.63 305.56,-263.86 315.46,-267.63 315.65,-260.63"/>
</a>
</g>
</g>
<!-- Node8 -->
<g id="Node000008" class="node">
<title>Node8</title>
<g id="a_Node000008"><a xlink:href="classRealm_1_1UCP_1_1UCPIBMemory.html" target="_top" xlink:title=" ">
<polygon fill="white" stroke="#666666" points="556,-315 405,-315 405,-296 556,-296 556,-315"/>
<text text-anchor="middle" x="480.5" y="-303" font-family="Helvetica,sans-Serif" font-size="10.00">Realm::UCP::UCPIBMemory</text>
</a>
</g>
</g>
<!-- Node5&#45;&gt;Node8 -->
<g id="edge177_Node000005_Node000008" class="edge">
<title>Node5&#45;&gt;Node8</title>
<g id="a_edge177_Node000005_Node000008"><a xlink:title=" ">
<path fill="none" stroke="#63b8ff" d="M315.03,-273.91C328.21,-276.4 342.07,-279.03 355,-281.5 379.87,-286.25 407.51,-291.57 430.43,-296"/>
<polygon fill="#63b8ff" stroke="#63b8ff" points="315.59,-270.45 305.12,-272.03 314.29,-277.33 315.59,-270.45"/>
</a>
</g>
</g>
<!-- Node13 -->
<g id="Node000013" class="node">
<title>Node13</title>
<g id="a_Node000013"><a xlink:href="classRealm_1_1Cuda_1_1GPUFBMemory.html" target="_top" xlink:title=" ">
<polygon fill="white" stroke="#666666" points="560,-93 401,-93 401,-74 560,-74 560,-93"/>
<text text-anchor="middle" x="480.5" y="-81" font-family="Helvetica,sans-Serif" font-size="10.00">Realm::Cuda::GPUFBMemory</text>
</a>
</g>
</g>
<!-- Node12&#45;&gt;Node13 -->
<g id="edge179_Node000012_Node000013" class="edge">
<title>Node12&#45;&gt;Node13</title>
<g id="a_edge179_Node000012_Node000013"><a xlink:title=" ">
<path fill="none" stroke="#63b8ff" d="M322.47,-109.32C354.02,-104.13 391.14,-98.03 421.36,-93.06"/>
<polygon fill="#63b8ff" stroke="#63b8ff" points="321.74,-105.9 312.44,-110.97 322.88,-112.8 321.74,-105.9"/>
</a>
</g>
</g>
<!-- Node14 -->
<g id="Node000014" class="node">
<title>Node14</title>
<g id="a_Node000014"><a xlink:href="classRealm_1_1Cuda_1_1GPUZCMemory.html" target="_top" xlink:title=" ">
<polygon fill="white" stroke="#666666" points="560.5,-56 400.5,-56 400.5,-37 560.5,-37 560.5,-56"/>
<text text-anchor="middle" x="480.5" y="-44" font-family="Helvetica,sans-Serif" font-size="10.00">Realm::Cuda::GPUZCMemory</text>
</a>
</g>
</g>
<!-- Node12&#45;&gt;Node14 -->
<g id="edge180_Node000012_Node000014" class="edge">
<title>Node12&#45;&gt;Node14</title>
<g id="a_edge180_Node000012_Node000014"><a xlink:title=" ">
<path fill="none" stroke="#63b8ff" d="M283.75,-106.61C311,-94.13 353.02,-76.04 391,-64.5 401.65,-61.26 413.2,-58.44 424.33,-56.04"/>
<polygon fill="#63b8ff" stroke="#63b8ff" points="282.02,-103.56 274.42,-110.93 284.96,-109.91 282.02,-103.56"/>
</a>
</g>
</g>
<!-- Node15 -->
<g id="Node000015" class="node">
<title>Node15</title>
<g id="a_Node000015"><a xlink:href="classRealm_1_1DiskMemory.html" target="_top" xlink:title=" ">
<polygon fill="white" stroke="#666666" points="538.5,-19 422.5,-19 422.5,0 538.5,0 538.5,-19"/>
<text text-anchor="middle" x="480.5" y="-7" font-family="Helvetica,sans-Serif" font-size="10.00">Realm::DiskMemory</text>
</a>
</g>
</g>
<!-- Node12&#45;&gt;Node15 -->
<g id="edge181_Node000012_Node000015" class="edge">
<title>Node12&#45;&gt;Node15</title>
<g id="a_edge181_Node000012_Node000015"><a xlink:title=" ">
<path fill="none" stroke="#63b8ff" d="M273.21,-104.12C298.26,-83.07 344.92,-46.95 391,-27.5 400.82,-23.35 411.67,-20.14 422.31,-17.66"/>
<polygon fill="#63b8ff" stroke="#63b8ff" points="270.62,-101.72 265.28,-110.88 275.16,-107.05 270.62,-101.72"/>
</a>
</g>
</g>
<!-- Node16 -->
<g id="Node000016" class="node">
<title>Node16</title>
<g id="a_Node000016"><a xlink:href="classRealm_1_1Hip_1_1GPUFBMemory.html" target="_top" xlink:title=" ">
<polygon fill="white" stroke="#666666" points="556,-204 405,-204 405,-185 556,-185 556,-204"/>
<text text-anchor="middle" x="480.5" y="-192" font-family="Helvetica,sans-Serif" font-size="10.00">Realm::Hip::GPUFBMemory</text>
</a>
</g>
</g>
<!-- Node12&#45;&gt;Node16 -->
<g id="edge182_Node000012_Node000016" class="edge">
<title>Node12&#45;&gt;Node16</title>
<g id="a_edge182_Node000012_Node000016"><a xlink:title=" ">
<path fill="none" stroke="#63b8ff" d="M284.28,-134.23C311.58,-146.4 353.36,-163.97 391,-175.5 402.72,-179.09 415.51,-182.26 427.64,-184.92"/>
<polygon fill="#63b8ff" stroke="#63b8ff" points="285.47,-130.93 274.91,-130.01 282.6,-137.31 285.47,-130.93"/>
</a>
</g>
</g>
<!-- Node17 -->
<g id="Node000017" class="node">
<title>Node17</title>
<g id="a_Node000017"><a xlink:href="classRealm_1_1Hip_1_1GPUZCMemory.html" target="_top" xlink:title=" ">
<polygon fill="white" stroke="#666666" points="556.5,-167 404.5,-167 404.5,-148 556.5,-148 556.5,-167"/>
<text text-anchor="middle" x="480.5" y="-155" font-family="Helvetica,sans-Serif" font-size="10.00">Realm::Hip::GPUZCMemory</text>
</a>
</g>
</g>
<!-- Node12&#45;&gt;Node17 -->
<g id="edge183_Node000012_Node000017" class="edge">
<title>Node12&#45;&gt;Node17</title>
<g id="a_edge183_Node000012_Node000017"><a xlink:title=" ">
<path fill="none" stroke="#63b8ff" d="M322.47,-131.68C354.02,-136.87 391.14,-142.97 421.36,-147.94"/>
<polygon fill="#63b8ff" stroke="#63b8ff" points="322.88,-128.2 312.44,-130.03 321.74,-135.1 322.88,-128.2"/>
</a>
</g>
</g>
<!-- Node18 -->
<g id="Node000018" class="node">
<title>Node18</title>
<g id="a_Node000018"><a xlink:href="classRealm_1_1LocalCPUMemory.html" target="_top" xlink:title=" ">
<polygon fill="white" stroke="#666666" points="550.5,-130 410.5,-130 410.5,-111 550.5,-111 550.5,-130"/>
<text text-anchor="middle" x="480.5" y="-118" font-family="Helvetica,sans-Serif" font-size="10.00">Realm::LocalCPUMemory</text>
</a>
</g>
</g>
<!-- Node12&#45;&gt;Node18 -->
<g id="edge184_Node000012_Node000018" class="edge">
<title>Node12&#45;&gt;Node18</title>
<g id="a_edge184_Node000012_Node000018"><a xlink:title=" ">
<path fill="none" stroke="#63b8ff" d="M346.16,-120.5C367.64,-120.5 390.17,-120.5 410.46,-120.5"/>
<polygon fill="#63b8ff" stroke="#63b8ff" points="346.05,-117 336.05,-120.5 346.05,-124 346.05,-117"/>
</a>
</g>
</g>
<!-- Node10 -->
<g id="Node000010" class="node">
<title>Node10</title>
<g id="a_Node000010"><a xlink:href="classRealm_1_1UCP_1_1UCPRemoteMemory.html" target="_top" xlink:title=" ">
<polygon fill="white" stroke="#666666" points="570,-429 391,-429 391,-410 570,-410 570,-429"/>
<text text-anchor="middle" x="480.5" y="-417" font-family="Helvetica,sans-Serif" font-size="10.00">Realm::UCP::UCPRemoteMemory</text>
</a>
</g>
</g>
<!-- Node11&#45;&gt;Node10 -->
<g id="edge186_Node000011_Node000010" class="edge">
<title>Node11&#45;&gt;Node10</title>
<g id="a_edge186_Node000011_Node000010"><a xlink:title=" ">
<path fill="none" stroke="#63b8ff" d="M330.17,-485.19C338.63,-483.26 347.05,-481.04 355,-478.5 395.32,-465.59 439.4,-442.33 462.77,-429.2"/>
<polygon fill="#63b8ff" stroke="#63b8ff" points="329.3,-481.79 320.26,-487.31 330.77,-488.64 329.3,-481.79"/>
</a>
</g>
</g>
<!-- Node9 -->
<g id="Node000009" class="node">
<title>Node9</title>
<g id="a_Node000009"><a xlink:href="classRealm_1_1UCP_1_1UCPRemoteMemoryCommon.html" target="_top" xlink:title=" ">
<polygon fill="white" stroke="#666666" points="343,-320.5 164,-320.5 164,-290.5 343,-290.5 343,-320.5"/>
<text text-anchor="start" x="172" y="-308.5" font-family="Helvetica,sans-Serif" font-size="10.00">Realm::UCP::UCPRemoteMemory</text>
<text text-anchor="middle" x="253.5" y="-297.5" font-family="Helvetica,sans-Serif" font-size="10.00">Common</text>
</a>
</g>
</g>
<!-- Node9&#45;&gt;Node8 -->
<g id="edge187_Node000009_Node000008" class="edge">
<title>Node9&#45;&gt;Node8</title>
<g id="a_edge187_Node000009_Node000008"><a xlink:title=" ">
<path fill="none" stroke="#63b8ff" d="M353.23,-305.5C370.53,-305.5 388.27,-305.5 404.79,-305.5"/>
<polygon fill="#63b8ff" stroke="#63b8ff" points="353.1,-302 343.1,-305.5 353.1,-309 353.1,-302"/>
</a>
</g>
</g>
<!-- Node9&#45;&gt;Node10 -->
<g id="edge188_Node000009_Node000010" class="edge">
<title>Node9&#45;&gt;Node10</title>
<g id="a_edge188_Node000009_Node000010"><a xlink:title=" ">
<path fill="none" stroke="#63b8ff" d="M340.78,-323.71C345.66,-325.48 350.43,-327.4 355,-329.5 401.79,-350.97 448.79,-391.22 469.09,-409.73"/>
<polygon fill="#63b8ff" stroke="#63b8ff" points="341.89,-320.39 331.29,-320.51 339.64,-327.02 341.89,-320.39"/>
</a>
</g>
</g>
</g>
</svg>
