<?xml version="1.0" encoding="UTF-8" standalone="no"?>
<!DOCTYPE svg PUBLIC "-//W3C//DTD SVG 1.1//EN"
 "http://www.w3.org/Graphics/SVG/1.1/DTD/svg11.dtd">
<!-- Generated by graphviz version 2.43.0 (0)
 -->
<!-- Title: Graphical Class Hierarchy Pages: 1 -->
<svg width="288pt" height="146pt"
 viewBox="0.00 0.00 288.00 145.50" xmlns="http://www.w3.org/2000/svg" xmlns:xlink="http://www.w3.org/1999/xlink">
<g id="graph0" class="graph" transform="scale(1 1) rotate(0) translate(4 141.5)">
<title>Graphical Class Hierarchy</title>
<!-- Node0 -->
<g id="Node000000" class="node">
<title>Node0</title>
<g id="a_Node000000"><a xlink:title=" ">
<polygon fill="#e0e0e0" stroke="#999999" points="88,-84 0,-84 0,-65 88,-65 88,-84"/>
<text text-anchor="middle" x="44" y="-72" font-family="Helvetica,sans-Serif" font-size="10.00">std::streambuf</text>
</a>
</g>
</g>
<!-- Node1 -->
<g id="Node000001" class="node">
<title>Node1</title>
<g id="a_Node000001"><a xlink:href="classRealm_1_1shortstringbuf.html" target="_top" xlink:title=" ">
<polygon fill="white" stroke="#666666" points="263,-137.5 141,-137.5 141,-107.5 263,-107.5 263,-137.5"/>
<text text-anchor="start" x="149" y="-125.5" font-family="Helvetica,sans-Serif" font-size="10.00">Realm::shortstringbuf</text>
<text text-anchor="middle" x="202" y="-114.5" font-family="Helvetica,sans-Serif" font-size="10.00">&lt; 160, 256 &gt;</text>
</a>
</g>
</g>
<!-- Node0&#45;&gt;Node1 -->
<g id="edge372_Node000000_Node000001" class="edge">
<title>Node0&#45;&gt;Node1</title>
<g id="a_edge372_Node000000_Node000001"><a xlink:title=" ">
<path fill="none" stroke="#63b8ff" d="M85.77,-87.04C106.06,-93.29 130.74,-100.88 152.05,-107.44"/>
<polygon fill="#63b8ff" stroke="#63b8ff" points="86.78,-83.69 76.19,-84.1 84.72,-90.38 86.78,-83.69"/>
</a>
</g>
</g>
<!-- Node2 -->
<g id="Node000002" class="node">
<title>Node2</title>
<g id="a_Node000002"><a xlink:href="classRealm_1_1shortstringbuf.html" target="_top" xlink:title=" ">
<polygon fill="white" stroke="#666666" points="263,-89.5 141,-89.5 141,-59.5 263,-59.5 263,-89.5"/>
<text text-anchor="start" x="149" y="-77.5" font-family="Helvetica,sans-Serif" font-size="10.00">Realm::shortstringbuf</text>
<text text-anchor="middle" x="202" y="-66.5" font-family="Helvetica,sans-Serif" font-size="10.00">&lt; 32, 64 &gt;</text>
</a>
</g>
</g>
<!-- Node0&#45;&gt;Node2 -->
<g id="edge373_Node000000_Node000002" class="edge">
<title>Node0&#45;&gt;Node2</title>
<g id="a_edge373_Node000000_Node000002"><a xlink:title=" ">
<path fill="none" stroke="#63b8ff" d="M98.27,-74.5C111.99,-74.5 126.84,-74.5 140.88,-74.5"/>
<polygon fill="#63b8ff" stroke="#63b8ff" points="98.04,-71 88.04,-74.5 98.04,-78 98.04,-71"/>
</a>
</g>
</g>
<!-- Node3 -->
<g id="Node000003" class="node">
<title>Node3</title>
<g id="a_Node000003"><a xlink:href="classRealm_1_1shortstringbuf.html" target="_top" xlink:title=" ">
<polygon fill="white" stroke="#666666" points="280,-41 124,-41 124,0 280,0 280,-41"/>
<text text-anchor="start" x="132" y="-29" font-family="Helvetica,sans-Serif" font-size="10.00">Realm::shortstringbuf</text>
<text text-anchor="start" x="132" y="-18" font-family="Helvetica,sans-Serif" font-size="10.00">&lt; _INTERNAL_BUFFER_SIZE,</text>
<text text-anchor="middle" x="202" y="-7" font-family="Helvetica,sans-Serif" font-size="10.00"> _INITIAL_EXTERNAL_SIZE &gt;</text>
</a>
</g>
</g>
<!-- Node0&#45;&gt;Node3 -->
<g id="edge374_Node000000_Node000003" class="edge">
<title>Node0&#45;&gt;Node3</title>
<g id="a_edge374_Node000000_Node000003"><a xlink:title=" ">
<path fill="none" stroke="#63b8ff" d="M81.99,-61.69C99.84,-55.52 121.68,-47.96 141.76,-41.01"/>
<polygon fill="#63b8ff" stroke="#63b8ff" points="80.84,-58.39 72.53,-64.97 83.13,-65.01 80.84,-58.39"/>
</a>
</g>
</g>
</g>
</svg>
