<?xml version="1.0" encoding="UTF-8" standalone="no"?>
<!DOCTYPE svg PUBLIC "-//W3C//DTD SVG 1.1//EN"
 "http://www.w3.org/Graphics/SVG/1.1/DTD/svg11.dtd">
<!-- Generated by graphviz version 2.43.0 (0)
 -->
<!-- Title: Graphical Class Hierarchy Pages: 1 -->
<svg width="334pt" height="76pt"
 viewBox="0.00 0.00 334.00 75.50" xmlns="http://www.w3.org/2000/svg" xmlns:xlink="http://www.w3.org/1999/xlink">
<g id="graph0" class="graph" transform="scale(1 1) rotate(0) translate(4 71.5)">
<title>Graphical Class Hierarchy</title>
<!-- Node0 -->
<g id="Node000000" class="node">
<title>Node0</title>
<g id="a_Node000000"><a xlink:href="classRealm_1_1XferDesFactory.html" target="_top" xlink:title=" ">
<polygon fill="white" stroke="#666666" points="128,-40 0,-40 0,-21 128,-21 128,-40"/>
<text text-anchor="middle" x="64" y="-28" font-family="Helvetica,sans-Serif" font-size="10.00">Realm::XferDesFactory</text>
</a>
</g>
</g>
<!-- Node1 -->
<g id="Node000001" class="node">
<title>Node1</title>
<g id="a_Node000001"><a xlink:href="classRealm_1_1AddressSplitXferDesFactory.html" target="_top" xlink:title=" ">
<polygon fill="white" stroke="#666666" points="322,-67.5 168,-67.5 168,-37.5 322,-37.5 322,-67.5"/>
<text text-anchor="start" x="176" y="-55.5" font-family="Helvetica,sans-Serif" font-size="10.00">Realm::AddressSplitXferDes</text>
<text text-anchor="middle" x="245" y="-44.5" font-family="Helvetica,sans-Serif" font-size="10.00">Factory&lt; N, T &gt;</text>
</a>
</g>
</g>
<!-- Node0&#45;&gt;Node1 -->
<g id="edge367_Node000000_Node000001" class="edge">
<title>Node0&#45;&gt;Node1</title>
<g id="a_edge367_Node000000_Node000001"><a xlink:title=" ">
<path fill="none" stroke="#63b8ff" d="M138.21,-39.5C148.02,-40.7 158.1,-41.94 167.96,-43.15"/>
<polygon fill="#63b8ff" stroke="#63b8ff" points="138.46,-36 128.11,-38.26 137.61,-42.95 138.46,-36"/>
</a>
</g>
</g>
<!-- Node2 -->
<g id="Node000002" class="node">
<title>Node2</title>
<g id="a_Node000002"><a xlink:href="classRealm_1_1SimpleXferDesFactory.html" target="_top" xlink:title=" ">
<polygon fill="white" stroke="#666666" points="326,-19 164,-19 164,0 326,0 326,-19"/>
<text text-anchor="middle" x="245" y="-7" font-family="Helvetica,sans-Serif" font-size="10.00">Realm::SimpleXferDesFactory</text>
</a>
</g>
</g>
<!-- Node0&#45;&gt;Node2 -->
<g id="edge368_Node000000_Node000002" class="edge">
<title>Node0&#45;&gt;Node2</title>
<g id="a_edge368_Node000000_Node000002"><a xlink:title=" ">
<path fill="none" stroke="#63b8ff" d="M138.29,-21.9C146.73,-20.91 155.37,-19.9 163.9,-18.9"/>
<polygon fill="#63b8ff" stroke="#63b8ff" points="137.63,-18.45 128.11,-23.1 138.45,-25.41 137.63,-18.45"/>
</a>
</g>
</g>
</g>
</svg>
