<?xml version="1.0" encoding="UTF-8" standalone="no"?>
<!DOCTYPE svg PUBLIC "-//W3C//DTD SVG 1.1//EN"
 "http://www.w3.org/Graphics/SVG/1.1/DTD/svg11.dtd">
<!-- Generated by graphviz version 2.43.0 (0)
 -->
<!-- Title: Graphical Class Hierarchy Pages: 1 -->
<svg width="593pt" height="134pt"
 viewBox="0.00 0.00 593.00 134.00" xmlns="http://www.w3.org/2000/svg" xmlns:xlink="http://www.w3.org/1999/xlink">
<g id="graph0" class="graph" transform="scale(1 1) rotate(0) translate(4 130)">
<title>Graphical Class Hierarchy</title>
<!-- Node0 -->
<g id="Node000000" class="node">
<title>Node0</title>
<g id="a_Node000000"><a xlink:href="classRealm_1_1RemoteChannelInfo.html" target="_top" xlink:title=" ">
<polygon fill="white" stroke="#666666" points="151,-72.5 0,-72.5 0,-53.5 151,-53.5 151,-72.5"/>
<text text-anchor="middle" x="75.5" y="-60.5" font-family="Helvetica,sans-Serif" font-size="10.00">Realm::RemoteChannelInfo</text>
</a>
</g>
</g>
<!-- Node1 -->
<g id="Node000001" class="node">
<title>Node1</title>
<g id="a_Node000001"><a xlink:href="classRealm_1_1SimpleRemoteChannelInfo.html" target="_top" xlink:title=" ">
<polygon fill="white" stroke="#666666" points="372,-72.5 187,-72.5 187,-53.5 372,-53.5 372,-72.5"/>
<text text-anchor="middle" x="279.5" y="-60.5" font-family="Helvetica,sans-Serif" font-size="10.00">Realm::SimpleRemoteChannelInfo</text>
</a>
</g>
</g>
<!-- Node0&#45;&gt;Node1 -->
<g id="edge288_Node000000_Node000001" class="edge">
<title>Node0&#45;&gt;Node1</title>
<g id="a_edge288_Node000000_Node000001"><a xlink:title=" ">
<path fill="none" stroke="#63b8ff" d="M161.29,-63C169.68,-63 178.23,-63 186.69,-63"/>
<polygon fill="#63b8ff" stroke="#63b8ff" points="161.14,-59.5 151.14,-63 161.14,-66.5 161.14,-59.5"/>
</a>
</g>
</g>
<!-- Node2 -->
<g id="Node000002" class="node">
<title>Node2</title>
<g id="a_Node000002"><a xlink:href="classRealm_1_1Cuda_1_1GPUIndirectRemoteChannelInfo.html" target="_top" xlink:title=" ">
<polygon fill="white" stroke="#666666" points="568,-126 425,-126 425,-96 568,-96 568,-126"/>
<text text-anchor="start" x="433" y="-114" font-family="Helvetica,sans-Serif" font-size="10.00">Realm::Cuda::GPUIndirect</text>
<text text-anchor="middle" x="496.5" y="-103" font-family="Helvetica,sans-Serif" font-size="10.00">RemoteChannelInfo</text>
</a>
</g>
</g>
<!-- Node1&#45;&gt;Node2 -->
<g id="edge289_Node000001_Node000002" class="edge">
<title>Node1&#45;&gt;Node2</title>
<g id="a_edge289_Node000001_Node000002"><a xlink:title=" ">
<path fill="none" stroke="#63b8ff" d="M333.07,-74.74C361.76,-81.14 397.59,-89.14 428.3,-96"/>
<polygon fill="#63b8ff" stroke="#63b8ff" points="333.76,-71.3 323.23,-72.54 332.23,-78.14 333.76,-71.3"/>
</a>
</g>
</g>
<!-- Node3 -->
<g id="Node000003" class="node">
<title>Node3</title>
<g id="a_Node000003"><a xlink:href="classRealm_1_1Cuda_1_1GPUreduceRemoteChannelInfo.html" target="_top" xlink:title=" ">
<polygon fill="white" stroke="#666666" points="585,-78 408,-78 408,-48 585,-48 585,-78"/>
<text text-anchor="start" x="416" y="-66" font-family="Helvetica,sans-Serif" font-size="10.00">Realm::Cuda::GPUreduceRemote</text>
<text text-anchor="middle" x="496.5" y="-55" font-family="Helvetica,sans-Serif" font-size="10.00">ChannelInfo</text>
</a>
</g>
</g>
<!-- Node1&#45;&gt;Node3 -->
<g id="edge290_Node000001_Node000003" class="edge">
<title>Node1&#45;&gt;Node3</title>
<g id="a_edge290_Node000001_Node000003"><a xlink:title=" ">
<path fill="none" stroke="#63b8ff" d="M382.55,-63C390.98,-63 399.45,-63 407.76,-63"/>
<polygon fill="#63b8ff" stroke="#63b8ff" points="382.3,-59.5 372.3,-63 382.3,-66.5 382.3,-59.5"/>
</a>
</g>
</g>
<!-- Node4 -->
<g id="Node000004" class="node">
<title>Node4</title>
<g id="a_Node000004"><a xlink:href="classRealm_1_1Hip_1_1GPUreduceRemoteChannelInfo.html" target="_top" xlink:title=" ">
<polygon fill="white" stroke="#666666" points="581,-30 412,-30 412,0 581,0 581,-30"/>
<text text-anchor="start" x="420" y="-18" font-family="Helvetica,sans-Serif" font-size="10.00">Realm::Hip::GPUreduceRemote</text>
<text text-anchor="middle" x="496.5" y="-7" font-family="Helvetica,sans-Serif" font-size="10.00">ChannelInfo</text>
</a>
</g>
</g>
<!-- Node1&#45;&gt;Node4 -->
<g id="edge291_Node000001_Node000004" class="edge">
<title>Node1&#45;&gt;Node4</title>
<g id="a_edge291_Node000001_Node000004"><a xlink:title=" ">
<path fill="none" stroke="#63b8ff" d="M333.07,-51.26C361.76,-44.86 397.59,-36.86 428.3,-30"/>
<polygon fill="#63b8ff" stroke="#63b8ff" points="332.23,-47.86 323.23,-53.46 333.76,-54.7 332.23,-47.86"/>
</a>
</g>
</g>
</g>
</svg>
