<?xml version="1.0" encoding="UTF-8" standalone="no"?>
<!DOCTYPE svg PUBLIC "-//W3C//DTD SVG 1.1//EN"
 "http://www.w3.org/Graphics/SVG/1.1/DTD/svg11.dtd">
<!-- Generated by graphviz version 2.43.0 (0)
 -->
<!-- Title: Graphical Class Hierarchy Pages: 1 -->
<svg width="359pt" height="76pt"
 viewBox="0.00 0.00 359.00 75.50" xmlns="http://www.w3.org/2000/svg" xmlns:xlink="http://www.w3.org/1999/xlink">
<g id="graph0" class="graph" transform="scale(1 1) rotate(0) translate(4 71.5)">
<title>Graphical Class Hierarchy</title>
<!-- Node0 -->
<g id="Node000000" class="node">
<title>Node0</title>
<g id="a_Node000000"><a xlink:href="classRealm_1_1ReplicatedHeap_1_1Listener.html" target="_top" xlink:title=" ">
<polygon fill="white" stroke="#666666" points="131,-45.5 0,-45.5 0,-15.5 131,-15.5 131,-45.5"/>
<text text-anchor="start" x="8" y="-33.5" font-family="Helvetica,sans-Serif" font-size="10.00">Realm::ReplicatedHeap</text>
<text text-anchor="middle" x="65.5" y="-22.5" font-family="Helvetica,sans-Serif" font-size="10.00">::Listener</text>
</a>
</g>
</g>
<!-- Node1 -->
<g id="Node000001" class="node">
<title>Node1</title>
<g id="a_Node000001"><a xlink:href="classRealm_1_1Cuda_1_1GPUReplHeapListener.html" target="_top" xlink:title=" ">
<polygon fill="white" stroke="#666666" points="335.5,-67.5 182.5,-67.5 182.5,-37.5 335.5,-37.5 335.5,-67.5"/>
<text text-anchor="start" x="190.5" y="-55.5" font-family="Helvetica,sans-Serif" font-size="10.00">Realm::Cuda::GPUReplHeap</text>
<text text-anchor="middle" x="259" y="-44.5" font-family="Helvetica,sans-Serif" font-size="10.00">Listener</text>
</a>
</g>
</g>
<!-- Node0&#45;&gt;Node1 -->
<g id="edge291_Node000000_Node000001" class="edge">
<title>Node0&#45;&gt;Node1</title>
<g id="a_edge291_Node000000_Node000001"><a xlink:title=" ">
<path fill="none" stroke="#63b8ff" d="M141.28,-39.09C154.8,-40.64 168.92,-42.27 182.46,-43.82"/>
<polygon fill="#63b8ff" stroke="#63b8ff" points="141.4,-35.58 131.07,-37.92 140.6,-42.54 141.4,-35.58"/>
</a>
</g>
</g>
<!-- Node2 -->
<g id="Node000002" class="node">
<title>Node2</title>
<g id="a_Node000002"><a xlink:href="classRealm_1_1Hip_1_1GPUReplHeapListener.html" target="_top" xlink:title=" ">
<polygon fill="white" stroke="#666666" points="351,-19 167,-19 167,0 351,0 351,-19"/>
<text text-anchor="middle" x="259" y="-7" font-family="Helvetica,sans-Serif" font-size="10.00">Realm::Hip::GPUReplHeapListener</text>
</a>
</g>
</g>
<!-- Node0&#45;&gt;Node2 -->
<g id="edge292_Node000000_Node000002" class="edge">
<title>Node0&#45;&gt;Node2</title>
<g id="a_edge292_Node000000_Node000002"><a xlink:title=" ">
<path fill="none" stroke="#63b8ff" d="M141.21,-22.31C151.07,-21.23 161.25,-20.11 171.29,-19.01"/>
<polygon fill="#63b8ff" stroke="#63b8ff" points="140.63,-18.85 131.07,-23.42 141.39,-25.81 140.63,-18.85"/>
</a>
</g>
</g>
</g>
</svg>
