<?xml version="1.0" encoding="UTF-8" standalone="no"?>
<!DOCTYPE svg PUBLIC "-//W3C//DTD SVG 1.1//EN"
 "http://www.w3.org/Graphics/SVG/1.1/DTD/svg11.dtd">
<!-- Generated by graphviz version 2.43.0 (0)
 -->
<!-- Title: Graphical Class Hierarchy Pages: 1 -->
<svg width="242pt" height="101pt"
 viewBox="0.00 0.00 242.00 101.00" xmlns="http://www.w3.org/2000/svg" xmlns:xlink="http://www.w3.org/1999/xlink">
<g id="graph0" class="graph" transform="scale(1 1) rotate(0) translate(4 97)">
<title>Graphical Class Hierarchy</title>
<!-- Node0 -->
<g id="Node000000" class="node">
<title>Node0</title>
<g id="a_Node000000"><a xlink:href="classPayloadSource.html" target="_top" xlink:title=" ">
<polygon fill="white" stroke="#666666" points="88,-56 0,-56 0,-37 88,-37 88,-56"/>
<text text-anchor="middle" x="44" y="-44" font-family="Helvetica,sans-Serif" font-size="10.00">PayloadSource</text>
</a>
</g>
</g>
<!-- Node1 -->
<g id="Node000001" class="node">
<title>Node1</title>
<g id="a_Node000001"><a xlink:href="classContiguousPayload.html" target="_top" xlink:title=" ">
<polygon fill="white" stroke="#666666" points="234,-93 124,-93 124,-74 234,-74 234,-93"/>
<text text-anchor="middle" x="179" y="-81" font-family="Helvetica,sans-Serif" font-size="10.00">ContiguousPayload</text>
</a>
</g>
</g>
<!-- Node0&#45;&gt;Node1 -->
<g id="edge4_Node000000_Node000001" class="edge">
<title>Node0&#45;&gt;Node1</title>
<g id="a_edge4_Node000000_Node000001"><a xlink:title=" ">
<path fill="none" stroke="#63b8ff" d="M89.31,-58.83C106.92,-63.73 126.88,-69.28 143.4,-73.88"/>
<polygon fill="#63b8ff" stroke="#63b8ff" points="89.82,-55.34 79.25,-56.03 87.95,-62.08 89.82,-55.34"/>
</a>
</g>
</g>
<!-- Node2 -->
<g id="Node000002" class="node">
<title>Node2</title>
<g id="a_Node000002"><a xlink:href="classSpanPayload.html" target="_top" xlink:title=" ">
<polygon fill="white" stroke="#666666" points="218.5,-56 139.5,-56 139.5,-37 218.5,-37 218.5,-56"/>
<text text-anchor="middle" x="179" y="-44" font-family="Helvetica,sans-Serif" font-size="10.00">SpanPayload</text>
</a>
</g>
</g>
<!-- Node0&#45;&gt;Node2 -->
<g id="edge5_Node000000_Node000002" class="edge">
<title>Node0&#45;&gt;Node2</title>
<g id="a_edge5_Node000000_Node000002"><a xlink:title=" ">
<path fill="none" stroke="#63b8ff" d="M98.39,-46.5C111.99,-46.5 126.35,-46.5 139.08,-46.5"/>
<polygon fill="#63b8ff" stroke="#63b8ff" points="98.18,-43 88.18,-46.5 98.18,-50 98.18,-43"/>
</a>
</g>
</g>
<!-- Node3 -->
<g id="Node000003" class="node">
<title>Node3</title>
<g id="a_Node000003"><a xlink:href="classTwoDPayload.html" target="_top" xlink:title=" ">
<polygon fill="white" stroke="#666666" points="219.5,-19 138.5,-19 138.5,0 219.5,0 219.5,-19"/>
<text text-anchor="middle" x="179" y="-7" font-family="Helvetica,sans-Serif" font-size="10.00">TwoDPayload</text>
</a>
</g>
</g>
<!-- Node0&#45;&gt;Node3 -->
<g id="edge6_Node000000_Node000003" class="edge">
<title>Node0&#45;&gt;Node3</title>
<g id="a_edge6_Node000000_Node000003"><a xlink:title=" ">
<path fill="none" stroke="#63b8ff" d="M89.31,-34.17C106.92,-29.27 126.88,-23.72 143.4,-19.12"/>
<polygon fill="#63b8ff" stroke="#63b8ff" points="87.95,-30.92 79.25,-36.97 89.82,-37.66 87.95,-30.92"/>
</a>
</g>
</g>
</g>
</svg>
