<?xml version="1.0" encoding="UTF-8" standalone="no"?>
<!DOCTYPE svg PUBLIC "-//W3C//DTD SVG 1.1//EN"
 "http://www.w3.org/Graphics/SVG/1.1/DTD/svg11.dtd">
<!-- Generated by graphviz version 2.43.0 (0)
 -->
<!-- Title: Graphical Class Hierarchy Pages: 1 -->
<svg width="273pt" height="138pt"
 viewBox="0.00 0.00 273.00 138.00" xmlns="http://www.w3.org/2000/svg" xmlns:xlink="http://www.w3.org/1999/xlink">
<g id="graph0" class="graph" transform="scale(1 1) rotate(0) translate(4 134)">
<title>Graphical Class Hierarchy</title>
<!-- Node0 -->
<g id="Node000000" class="node">
<title>Node0</title>
<g id="a_Node000000"><a xlink:href="classRealm_1_1Type.html" target="_top" xlink:title=" ">
<polygon fill="white" stroke="#666666" points="77,-74 0,-74 0,-55 77,-55 77,-74"/>
<text text-anchor="middle" x="38.5" y="-62" font-family="Helvetica,sans-Serif" font-size="10.00">Realm::Type</text>
</a>
</g>
</g>
<!-- Node1 -->
<g id="Node000001" class="node">
<title>Node1</title>
<g id="a_Node000001"><a xlink:href="classRealm_1_1FunctionPointerType.html" target="_top" xlink:title=" ">
<polygon fill="white" stroke="#666666" points="265,-130 113,-130 113,-111 265,-111 265,-130"/>
<text text-anchor="middle" x="189" y="-118" font-family="Helvetica,sans-Serif" font-size="10.00">Realm::FunctionPointerType</text>
</a>
</g>
</g>
<!-- Node0&#45;&gt;Node1 -->
<g id="edge338_Node000000_Node000001" class="edge">
<title>Node0&#45;&gt;Node1</title>
<g id="a_edge338_Node000000_Node000001"><a xlink:title=" ">
<path fill="none" stroke="#63b8ff" d="M64.28,-79.22C78.22,-87.01 96.16,-96.23 113,-102.5 121.78,-105.77 131.37,-108.6 140.67,-110.98"/>
<polygon fill="#63b8ff" stroke="#63b8ff" points="65.75,-76.03 55.33,-74.12 62.28,-82.11 65.75,-76.03"/>
</a>
</g>
</g>
<!-- Node2 -->
<g id="Node000002" class="node">
<title>Node2</title>
<g id="a_Node000002"><a xlink:href="classRealm_1_1IntegerType.html" target="_top" xlink:title=" ">
<polygon fill="white" stroke="#666666" points="244.5,-93 133.5,-93 133.5,-74 244.5,-74 244.5,-93"/>
<text text-anchor="middle" x="189" y="-81" font-family="Helvetica,sans-Serif" font-size="10.00">Realm::IntegerType</text>
</a>
</g>
</g>
<!-- Node0&#45;&gt;Node2 -->
<g id="edge339_Node000000_Node000002" class="edge">
<title>Node0&#45;&gt;Node2</title>
<g id="a_edge339_Node000000_Node000002"><a xlink:title=" ">
<path fill="none" stroke="#63b8ff" d="M87.68,-70.66C102.27,-72.53 118.41,-74.6 133.4,-76.51"/>
<polygon fill="#63b8ff" stroke="#63b8ff" points="87.72,-67.14 77.36,-69.34 86.83,-74.08 87.72,-67.14"/>
</a>
</g>
</g>
<!-- Node3 -->
<g id="Node000003" class="node">
<title>Node3</title>
<g id="a_Node000003"><a xlink:href="classRealm_1_1OpaqueType.html" target="_top" xlink:title=" ">
<polygon fill="white" stroke="#666666" points="246,-56 132,-56 132,-37 246,-37 246,-56"/>
<text text-anchor="middle" x="189" y="-44" font-family="Helvetica,sans-Serif" font-size="10.00">Realm::OpaqueType</text>
</a>
</g>
</g>
<!-- Node0&#45;&gt;Node3 -->
<g id="edge340_Node000000_Node000003" class="edge">
<title>Node0&#45;&gt;Node3</title>
<g id="a_edge340_Node000000_Node000003"><a xlink:title=" ">
<path fill="none" stroke="#63b8ff" d="M87.41,-58.69C101.62,-56.97 117.31,-55.07 131.98,-53.29"/>
<polygon fill="#63b8ff" stroke="#63b8ff" points="86.86,-55.23 77.36,-59.91 87.71,-62.18 86.86,-55.23"/>
</a>
</g>
</g>
<!-- Node4 -->
<g id="Node000004" class="node">
<title>Node4</title>
<g id="a_Node000004"><a xlink:href="classRealm_1_1PointerType.html" target="_top" xlink:title=" ">
<polygon fill="white" stroke="#666666" points="244.5,-19 133.5,-19 133.5,0 244.5,0 244.5,-19"/>
<text text-anchor="middle" x="189" y="-7" font-family="Helvetica,sans-Serif" font-size="10.00">Realm::PointerType</text>
</a>
</g>
</g>
<!-- Node0&#45;&gt;Node4 -->
<g id="edge341_Node000000_Node000004" class="edge">
<title>Node0&#45;&gt;Node4</title>
<g id="a_edge341_Node000000_Node000004"><a xlink:title=" ">
<path fill="none" stroke="#63b8ff" d="M65.5,-50.12C79.31,-42.91 96.74,-34.47 113,-28.5 122.84,-24.89 133.64,-21.72 143.91,-19.05"/>
<polygon fill="#63b8ff" stroke="#63b8ff" points="63.76,-47.08 56.58,-54.87 67.05,-53.26 63.76,-47.08"/>
</a>
</g>
</g>
</g>
</svg>
