<?xml version="1.0" encoding="UTF-8" standalone="no"?>
<!DOCTYPE svg PUBLIC "-//W3C//DTD SVG 1.1//EN"
 "http://www.w3.org/Graphics/SVG/1.1/DTD/svg11.dtd">
<!-- Generated by graphviz version 2.43.0 (0)
 -->
<!-- Title: Graphical Class Hierarchy Pages: 1 -->
<svg width="376pt" height="119pt"
 viewBox="0.00 0.00 376.00 119.00" xmlns="http://www.w3.org/2000/svg" xmlns:xlink="http://www.w3.org/1999/xlink">
<g id="graph0" class="graph" transform="scale(1 1) rotate(0) translate(4 115)">
<title>Graphical Class Hierarchy</title>
<!-- Node0 -->
<g id="Node000000" class="node">
<title>Node0</title>
<g id="a_Node000000"><a xlink:href="classRealm_1_1Event.html" target="_top" xlink:title=" ">
<polygon fill="white" stroke="#666666" points="82,-56 0,-56 0,-37 82,-37 82,-56"/>
<text text-anchor="middle" x="41" y="-44" font-family="Helvetica,sans-Serif" font-size="10.00">Realm::Event</text>
</a>
</g>
</g>
<!-- Node1 -->
<g id="Node000001" class="node">
<title>Node1</title>
<g id="a_Node000001"><a xlink:href="classPRealm_1_1Event.html" target="_top" xlink:title=" ">
<polygon fill="white" stroke="#666666" points="214,-93 126,-93 126,-74 214,-74 214,-93"/>
<text text-anchor="middle" x="170" y="-81" font-family="Helvetica,sans-Serif" font-size="10.00">PRealm::Event</text>
</a>
</g>
</g>
<!-- Node0&#45;&gt;Node1 -->
<g id="edge120_Node000000_Node000001" class="edge">
<title>Node0&#45;&gt;Node1</title>
<g id="a_edge120_Node000000_Node000001"><a xlink:title=" ">
<path fill="none" stroke="#63b8ff" d="M84.31,-58.83C101.13,-63.73 120.19,-69.28 135.96,-73.88"/>
<polygon fill="#63b8ff" stroke="#63b8ff" points="85.29,-55.47 74.71,-56.03 83.33,-62.19 85.29,-55.47"/>
</a>
</g>
</g>
<!-- Node4 -->
<g id="Node000004" class="node">
<title>Node4</title>
<g id="a_Node000004"><a xlink:href="classRealm_1_1Barrier.html" target="_top" xlink:title=" ">
<polygon fill="white" stroke="#666666" points="213.5,-56 126.5,-56 126.5,-37 213.5,-37 213.5,-56"/>
<text text-anchor="middle" x="170" y="-44" font-family="Helvetica,sans-Serif" font-size="10.00">Realm::Barrier</text>
</a>
</g>
</g>
<!-- Node0&#45;&gt;Node4 -->
<g id="edge123_Node000000_Node000004" class="edge">
<title>Node0&#45;&gt;Node4</title>
<g id="a_edge123_Node000000_Node000004"><a xlink:title=" ">
<path fill="none" stroke="#63b8ff" d="M92.35,-46.5C103.64,-46.5 115.51,-46.5 126.45,-46.5"/>
<polygon fill="#63b8ff" stroke="#63b8ff" points="92.18,-43 82.18,-46.5 92.18,-50 92.18,-43"/>
</a>
</g>
</g>
<!-- Node5 -->
<g id="Node000005" class="node">
<title>Node5</title>
<g id="a_Node000005"><a xlink:href="classRealm_1_1UserEvent.html" target="_top" xlink:title=" ">
<polygon fill="white" stroke="#666666" points="222,-19 118,-19 118,0 222,0 222,-19"/>
<text text-anchor="middle" x="170" y="-7" font-family="Helvetica,sans-Serif" font-size="10.00">Realm::UserEvent</text>
</a>
</g>
</g>
<!-- Node0&#45;&gt;Node5 -->
<g id="edge124_Node000000_Node000005" class="edge">
<title>Node0&#45;&gt;Node5</title>
<g id="a_edge124_Node000000_Node000005"><a xlink:title=" ">
<path fill="none" stroke="#63b8ff" d="M84.31,-34.17C101.13,-29.27 120.19,-23.72 135.96,-19.12"/>
<polygon fill="#63b8ff" stroke="#63b8ff" points="83.33,-30.81 74.71,-36.97 85.29,-37.53 83.33,-30.81"/>
</a>
</g>
</g>
<!-- Node2 -->
<g id="Node000002" class="node">
<title>Node2</title>
<g id="a_Node000002"><a xlink:href="classPRealm_1_1Barrier.html" target="_top" xlink:title=" ">
<polygon fill="white" stroke="#666666" points="359.5,-111 266.5,-111 266.5,-92 359.5,-92 359.5,-111"/>
<text text-anchor="middle" x="313" y="-99" font-family="Helvetica,sans-Serif" font-size="10.00">PRealm::Barrier</text>
</a>
</g>
</g>
<!-- Node1&#45;&gt;Node2 -->
<g id="edge121_Node000001_Node000002" class="edge">
<title>Node1&#45;&gt;Node2</title>
<g id="a_edge121_Node000001_Node000002"><a xlink:title=" ">
<path fill="none" stroke="#63b8ff" d="M224.4,-90.32C238.18,-92.08 252.9,-93.96 266.26,-95.66"/>
<polygon fill="#63b8ff" stroke="#63b8ff" points="224.43,-86.79 214.07,-89 223.55,-93.74 224.43,-86.79"/>
</a>
</g>
</g>
<!-- Node3 -->
<g id="Node000003" class="node">
<title>Node3</title>
<g id="a_Node000003"><a xlink:href="classPRealm_1_1UserEvent.html" target="_top" xlink:title=" ">
<polygon fill="white" stroke="#666666" points="368,-74 258,-74 258,-55 368,-55 368,-74"/>
<text text-anchor="middle" x="313" y="-62" font-family="Helvetica,sans-Serif" font-size="10.00">PRealm::UserEvent</text>
</a>
</g>
</g>
<!-- Node1&#45;&gt;Node3 -->
<g id="edge122_Node000001_Node000003" class="edge">
<title>Node1&#45;&gt;Node3</title>
<g id="a_edge122_Node000001_Node000003"><a xlink:title=" ">
<path fill="none" stroke="#63b8ff" d="M224.05,-76.35C235.14,-74.86 246.85,-73.28 257.97,-71.78"/>
<polygon fill="#63b8ff" stroke="#63b8ff" points="223.51,-72.89 214.07,-77.7 224.45,-79.83 223.51,-72.89"/>
</a>
</g>
</g>
</g>
</svg>
