<?xml version="1.0" encoding="UTF-8" standalone="no"?>
<!DOCTYPE svg PUBLIC "-//W3C//DTD SVG 1.1//EN"
 "http://www.w3.org/Graphics/SVG/1.1/DTD/svg11.dtd">
<!-- Generated by graphviz version 2.43.0 (0)
 -->
<!-- Title: Graphical Class Hierarchy Pages: 1 -->
<svg width="388pt" height="76pt"
 viewBox="0.00 0.00 388.00 75.50" xmlns="http://www.w3.org/2000/svg" xmlns:xlink="http://www.w3.org/1999/xlink">
<g id="graph0" class="graph" transform="scale(1 1) rotate(0) translate(4 71.5)">
<title>Graphical Class Hierarchy</title>
<!-- Node0 -->
<g id="Node000000" class="node">
<title>Node0</title>
<g id="a_Node000000"><a xlink:href="classRealm_1_1TaskContextManager.html" target="_top" xlink:title=" ">
<polygon fill="white" stroke="#666666" points="157,-45.5 0,-45.5 0,-26.5 157,-26.5 157,-45.5"/>
<text text-anchor="middle" x="78.5" y="-33.5" font-family="Helvetica,sans-Serif" font-size="10.00">Realm::TaskContextManager</text>
</a>
</g>
</g>
<!-- Node1 -->
<g id="Node000001" class="node">
<title>Node1</title>
<g id="a_Node000001"><a xlink:href="classRealm_1_1Cuda_1_1GPUContextManager.html" target="_top" xlink:title=" ">
<polygon fill="white" stroke="#666666" points="380,-67.5 193,-67.5 193,-48.5 380,-48.5 380,-67.5"/>
<text text-anchor="middle" x="286.5" y="-55.5" font-family="Helvetica,sans-Serif" font-size="10.00">Realm::Cuda::GPUContextManager</text>
</a>
</g>
</g>
<!-- Node0&#45;&gt;Node1 -->
<g id="edge327_Node000000_Node000001" class="edge">
<title>Node0&#45;&gt;Node1</title>
<g id="a_edge327_Node000000_Node000001"><a xlink:title=" ">
<path fill="none" stroke="#63b8ff" d="M167.06,-45.35C176.71,-46.38 186.55,-47.43 196.22,-48.47"/>
<polygon fill="#63b8ff" stroke="#63b8ff" points="167.4,-41.87 157.09,-44.29 166.66,-48.83 167.4,-41.87"/>
</a>
</g>
</g>
<!-- Node2 -->
<g id="Node000002" class="node">
<title>Node2</title>
<g id="a_Node000002"><a xlink:href="classRealm_1_1LocalOpenMPProcessor_1_1OpenMPContextManager.html" target="_top" xlink:title=" ">
<polygon fill="white" stroke="#666666" points="370,-30 203,-30 203,0 370,0 370,-30"/>
<text text-anchor="start" x="211" y="-18" font-family="Helvetica,sans-Serif" font-size="10.00">Realm::LocalOpenMPProcessor</text>
<text text-anchor="middle" x="286.5" y="-7" font-family="Helvetica,sans-Serif" font-size="10.00">::OpenMPContextManager</text>
</a>
</g>
</g>
<!-- Node0&#45;&gt;Node2 -->
<g id="edge328_Node000000_Node000002" class="edge">
<title>Node0&#45;&gt;Node2</title>
<g id="a_edge328_Node000000_Node000002"><a xlink:title=" ">
<path fill="none" stroke="#63b8ff" d="M167.34,-27.05C179.11,-25.85 191.15,-24.62 202.82,-23.43"/>
<polygon fill="#63b8ff" stroke="#63b8ff" points="166.68,-23.59 157.09,-28.09 167.39,-30.56 166.68,-23.59"/>
</a>
</g>
</g>
</g>
</svg>
