<?xml version="1.0" encoding="UTF-8" standalone="no"?>
<!DOCTYPE svg PUBLIC "-//W3C//DTD SVG 1.1//EN"
 "http://www.w3.org/Graphics/SVG/1.1/DTD/svg11.dtd">
<!-- Generated by graphviz version 2.43.0 (0)
 -->
<!-- Title: Graphical Class Hierarchy Pages: 1 -->
<svg width="376pt" height="124pt"
 viewBox="0.00 0.00 376.00 123.50" xmlns="http://www.w3.org/2000/svg" xmlns:xlink="http://www.w3.org/1999/xlink">
<g id="graph0" class="graph" transform="scale(1 1) rotate(0) translate(4 119.5)">
<title>Graphical Class Hierarchy</title>
<!-- Node0 -->
<g id="Node000000" class="node">
<title>Node0</title>
<g id="a_Node000000"><a xlink:href="classRealm_1_1InstanceLayoutGeneric.html" target="_top" xlink:title=" ">
<polygon fill="white" stroke="#666666" points="166,-62 0,-62 0,-43 166,-43 166,-62"/>
<text text-anchor="middle" x="83" y="-50" font-family="Helvetica,sans-Serif" font-size="10.00">Realm::InstanceLayoutGeneric</text>
</a>
</g>
</g>
<!-- Node1 -->
<g id="Node000001" class="node">
<title>Node1</title>
<g id="a_Node000001"><a xlink:href="classRealm_1_1InstanceLayout.html" target="_top" xlink:title=" ">
<polygon fill="white" stroke="#666666" points="349,-115.5 221,-115.5 221,-85.5 349,-85.5 349,-115.5"/>
<text text-anchor="start" x="229" y="-103.5" font-family="Helvetica,sans-Serif" font-size="10.00">Realm::InstanceLayout</text>
<text text-anchor="middle" x="285" y="-92.5" font-family="Helvetica,sans-Serif" font-size="10.00">&lt; N, T &gt;</text>
</a>
</g>
</g>
<!-- Node0&#45;&gt;Node1 -->
<g id="edge165_Node000000_Node000001" class="edge">
<title>Node0&#45;&gt;Node1</title>
<g id="a_edge165_Node000000_Node000001"><a xlink:title=" ">
<path fill="none" stroke="#63b8ff" d="M133.8,-64.45C160.26,-70.8 193.05,-78.67 221.24,-85.44"/>
<polygon fill="#63b8ff" stroke="#63b8ff" points="134.53,-61.03 123.99,-62.1 132.9,-67.84 134.53,-61.03"/>
</a>
</g>
</g>
<!-- Node2 -->
<g id="Node000002" class="node">
<title>Node2</title>
<g id="a_Node000002"><a xlink:href="classRealm_1_1InstanceLayout.html" target="_top" xlink:title=" ">
<polygon fill="white" stroke="#666666" points="349,-67.5 221,-67.5 221,-37.5 349,-37.5 349,-67.5"/>
<text text-anchor="start" x="229" y="-55.5" font-family="Helvetica,sans-Serif" font-size="10.00">Realm::InstanceLayout</text>
<text text-anchor="middle" x="285" y="-44.5" font-family="Helvetica,sans-Serif" font-size="10.00">&lt; N, T &gt;</text>
</a>
</g>
</g>
<!-- Node0&#45;&gt;Node2 -->
<g id="edge166_Node000000_Node000002" class="edge">
<title>Node0&#45;&gt;Node2</title>
<g id="a_edge166_Node000000_Node000002"><a xlink:title=" ">
<path fill="none" stroke="#63b8ff" d="M176.52,-52.5C191.49,-52.5 206.69,-52.5 220.76,-52.5"/>
<polygon fill="#63b8ff" stroke="#63b8ff" points="176.21,-49 166.21,-52.5 176.21,-56 176.21,-49"/>
</a>
</g>
</g>
<!-- Node3 -->
<g id="Node000003" class="node">
<title>Node3</title>
<g id="a_Node000003"><a xlink:href="classRealm_1_1InstanceLayoutOpaque.html" target="_top" xlink:title=" ">
<polygon fill="white" stroke="#666666" points="368,-19 202,-19 202,0 368,0 368,-19"/>
<text text-anchor="middle" x="285" y="-7" font-family="Helvetica,sans-Serif" font-size="10.00">Realm::InstanceLayoutOpaque</text>
</a>
</g>
</g>
<!-- Node0&#45;&gt;Node3 -->
<g id="edge167_Node000000_Node000003" class="edge">
<title>Node0&#45;&gt;Node3</title>
<g id="a_edge167_Node000000_Node000003"><a xlink:title=" ">
<path fill="none" stroke="#63b8ff" d="M138.42,-40.8C170.22,-33.96 209.86,-25.44 239.74,-19.02"/>
<polygon fill="#63b8ff" stroke="#63b8ff" points="137.43,-37.43 128.39,-42.96 138.9,-44.28 137.43,-37.43"/>
</a>
</g>
</g>
</g>
</svg>
