<?xml version="1.0" encoding="UTF-8" standalone="no"?>
<!DOCTYPE svg PUBLIC "-//W3C//DTD SVG 1.1//EN"
 "http://www.w3.org/Graphics/SVG/1.1/DTD/svg11.dtd">
<!-- Generated by graphviz version 2.43.0 (0)
 -->
<!-- Title: /home/runner/work/realm/realm/realm&#45;src/src/realm/llvmjit/llvmjit_module.h Pages: 1 -->
<svg width="599pt" height="269pt"
 viewBox="0.00 0.00 599.00 269.00" xmlns="http://www.w3.org/2000/svg" xmlns:xlink="http://www.w3.org/1999/xlink">
<g id="graph0" class="graph" transform="scale(1 1) rotate(0) translate(4 265)">
<title>/home/runner/work/realm/realm/realm&#45;src/src/realm/llvmjit/llvmjit_module.h</title>
<!-- Node1 -->
<g id="Node000001" class="node">
<title>Node1</title>
<g id="a_Node000001"><a xlink:title=" ">
<polygon fill="#999999" stroke="#666666" points="146,-261 0,-261 0,-220 146,-220 146,-261"/>
<text text-anchor="start" x="8" y="-249" font-family="Helvetica,sans-Serif" font-size="10.00">/home/runner/work/realm</text>
<text text-anchor="start" x="8" y="-238" font-family="Helvetica,sans-Serif" font-size="10.00">/realm/realm&#45;src/src/realm</text>
<text text-anchor="middle" x="73" y="-227" font-family="Helvetica,sans-Serif" font-size="10.00">/llvmjit/llvmjit_module.h</text>
</a>
</g>
</g>
<!-- Node2 -->
<g id="Node000002" class="node">
<title>Node2</title>
<g id="a_Node000002"><a xlink:href="module_8h.html" target="_top" xlink:title=" ">
<polygon fill="white" stroke="#666666" points="237,-184 143,-184 143,-165 237,-165 237,-184"/>
<text text-anchor="middle" x="190" y="-172" font-family="Helvetica,sans-Serif" font-size="10.00">realm/module.h</text>
</a>
</g>
</g>
<!-- Node1&#45;&gt;Node2 -->
<g id="edge1_Node000001_Node000002" class="edge">
<title>Node1&#45;&gt;Node2</title>
<g id="a_edge1_Node000001_Node000002"><a xlink:title=" ">
<path fill="none" stroke="#63b8ff" d="M108.74,-219.95C127.05,-209.93 148.89,-197.99 165.32,-189"/>
<polygon fill="#63b8ff" stroke="#63b8ff" points="167.2,-191.96 174.29,-184.09 163.84,-185.82 167.2,-191.96"/>
</a>
</g>
</g>
<!-- Node7 -->
<g id="Node000007" class="node">
<title>Node7</title>
<g id="a_Node000007"><a xlink:title=" ">
<polygon fill="#e0e0e0" stroke="#999999" points="44,-74 0,-74 0,-55 44,-55 44,-74"/>
<text text-anchor="middle" x="22" y="-62" font-family="Helvetica,sans-Serif" font-size="10.00">string</text>
</a>
</g>
</g>
<!-- Node1&#45;&gt;Node7 -->
<g id="edge14_Node000001_Node000007" class="edge">
<title>Node1&#45;&gt;Node7</title>
<g id="a_edge14_Node000001_Node000007"><a xlink:title=" ">
<path fill="none" stroke="#63b8ff" d="M67.25,-219.88C57.33,-186.02 37.12,-117.09 27.43,-84.01"/>
<polygon fill="#63b8ff" stroke="#63b8ff" points="30.74,-82.89 24.57,-74.27 24.03,-84.85 30.74,-82.89"/>
</a>
</g>
</g>
<!-- Node3 -->
<g id="Node000003" class="node">
<title>Node3</title>
<g id="a_Node000003"><a xlink:href="realm__config_8h.html" target="_top" xlink:title=" ">
<polygon fill="white" stroke="#666666" points="512,-74 392,-74 392,-55 512,-55 512,-74"/>
<text text-anchor="middle" x="452" y="-62" font-family="Helvetica,sans-Serif" font-size="10.00">realm/realm_config.h</text>
</a>
</g>
</g>
<!-- Node2&#45;&gt;Node3 -->
<g id="edge2_Node000002_Node000003" class="edge">
<title>Node2&#45;&gt;Node3</title>
<g id="a_edge2_Node000002_Node000003"><a xlink:title=" ">
<path fill="none" stroke="#63b8ff" d="M224.67,-164.95C254.48,-157.11 298.34,-144.39 335,-129 369.27,-114.61 406.66,-93.24 429.73,-79.33"/>
<polygon fill="#63b8ff" stroke="#63b8ff" points="431.68,-82.24 438.4,-74.05 428.04,-76.27 431.68,-82.24"/>
</a>
</g>
</g>
<!-- Node6 -->
<g id="Node000006" class="node">
<title>Node6</title>
<g id="a_Node000006"><a xlink:href="module__config_8h.html" target="_top" xlink:title=" ">
<polygon fill="white" stroke="#666666" points="305,-129 177,-129 177,-110 305,-110 305,-129"/>
<text text-anchor="middle" x="241" y="-117" font-family="Helvetica,sans-Serif" font-size="10.00">realm/module_config.h</text>
</a>
</g>
</g>
<!-- Node2&#45;&gt;Node6 -->
<g id="edge5_Node000002_Node000006" class="edge">
<title>Node2&#45;&gt;Node6</title>
<g id="a_edge5_Node000002_Node000006"><a xlink:title=" ">
<path fill="none" stroke="#63b8ff" d="M198.42,-164.75C205.77,-157.11 216.63,-145.82 225.54,-136.56"/>
<polygon fill="#63b8ff" stroke="#63b8ff" points="228.32,-138.72 232.74,-129.09 223.28,-133.87 228.32,-138.72"/>
</a>
</g>
</g>
<!-- Node2&#45;&gt;Node7 -->
<g id="edge12_Node000002_Node000007" class="edge">
<title>Node2&#45;&gt;Node7</title>
<g id="a_edge12_Node000002_Node000007"><a xlink:title=" ">
<path fill="none" stroke="#63b8ff" d="M173.9,-164.9C157.94,-156.25 132.92,-142.3 112,-129 87.27,-113.27 59.89,-93.61 41.9,-80.37"/>
<polygon fill="#63b8ff" stroke="#63b8ff" points="43.53,-77.22 33.41,-74.08 39.36,-82.85 43.53,-77.22"/>
</a>
</g>
</g>
<!-- Node9 -->
<g id="Node000009" class="node">
<title>Node9</title>
<g id="a_Node000009"><a xlink:title=" ">
<polygon fill="#e0e0e0" stroke="#999999" points="373.5,-74 326.5,-74 326.5,-55 373.5,-55 373.5,-74"/>
<text text-anchor="middle" x="350" y="-62" font-family="Helvetica,sans-Serif" font-size="10.00">vector</text>
</a>
</g>
</g>
<!-- Node2&#45;&gt;Node9 -->
<g id="edge11_Node000002_Node000009" class="edge">
<title>Node2&#45;&gt;Node9</title>
<g id="a_edge11_Node000002_Node000009"><a xlink:title=" ">
<path fill="none" stroke="#63b8ff" d="M237,-164.93C262.05,-158.46 292.13,-147.41 314,-129 328.21,-117.03 337.96,-97.94 343.68,-83.82"/>
<polygon fill="#63b8ff" stroke="#63b8ff" points="347.06,-84.77 347.29,-74.18 340.51,-82.32 347.06,-84.77"/>
</a>
</g>
</g>
<!-- Node11 -->
<g id="Node000011" class="node">
<title>Node11</title>
<g id="a_Node000011"><a xlink:title=" ">
<polygon fill="#e0e0e0" stroke="#999999" points="159,-129 121,-129 121,-110 159,-110 159,-129"/>
<text text-anchor="middle" x="140" y="-117" font-family="Helvetica,sans-Serif" font-size="10.00">map</text>
</a>
</g>
</g>
<!-- Node2&#45;&gt;Node11 -->
<g id="edge13_Node000002_Node000011" class="edge">
<title>Node2&#45;&gt;Node11</title>
<g id="a_edge13_Node000002_Node000011"><a xlink:title=" ">
<path fill="none" stroke="#63b8ff" d="M181.74,-164.75C174.54,-157.11 163.89,-145.82 155.15,-136.56"/>
<polygon fill="#63b8ff" stroke="#63b8ff" points="157.51,-133.96 148.1,-129.09 152.42,-138.76 157.51,-133.96"/>
</a>
</g>
</g>
<!-- Node4 -->
<g id="Node000004" class="node">
<title>Node4</title>
<g id="a_Node000004"><a xlink:href="realm__defines_8h.html" target="_top" xlink:title=" ">
<polygon fill="white" stroke="#666666" points="430.5,-19 335.5,-19 335.5,0 430.5,0 430.5,-19"/>
<text text-anchor="middle" x="383" y="-7" font-family="Helvetica,sans-Serif" font-size="10.00">realm_defines.h</text>
</a>
</g>
</g>
<!-- Node3&#45;&gt;Node4 -->
<g id="edge3_Node000003_Node000004" class="edge">
<title>Node3&#45;&gt;Node4</title>
<g id="a_edge3_Node000003_Node000004"><a xlink:title=" ">
<path fill="none" stroke="#63b8ff" d="M440.91,-54.98C430.51,-47 414.74,-34.88 402.28,-25.31"/>
<polygon fill="#63b8ff" stroke="#63b8ff" points="404.35,-22.49 394.29,-19.17 400.09,-28.04 404.35,-22.49"/>
</a>
</g>
</g>
<!-- Node5 -->
<g id="Node000005" class="node">
<title>Node5</title>
<g id="a_Node000005"><a xlink:href="compiler__support_8h.html" target="_top" xlink:title=" ">
<polygon fill="white" stroke="#666666" points="591,-19 449,-19 449,0 591,0 591,-19"/>
<text text-anchor="middle" x="520" y="-7" font-family="Helvetica,sans-Serif" font-size="10.00">realm/compiler_support.h</text>
</a>
</g>
</g>
<!-- Node3&#45;&gt;Node5 -->
<g id="edge4_Node000003_Node000005" class="edge">
<title>Node3&#45;&gt;Node5</title>
<g id="a_edge4_Node000003_Node000005"><a xlink:title=" ">
<path fill="none" stroke="#63b8ff" d="M462.93,-54.98C473.08,-47.07 488.42,-35.11 500.65,-25.58"/>
<polygon fill="#63b8ff" stroke="#63b8ff" points="503.14,-28.08 508.88,-19.17 498.84,-22.56 503.14,-28.08"/>
</a>
</g>
</g>
<!-- Node6&#45;&gt;Node3 -->
<g id="edge6_Node000006_Node000003" class="edge">
<title>Node6&#45;&gt;Node3</title>
<g id="a_edge6_Node000006_Node000003"><a xlink:title=" ">
<path fill="none" stroke="#63b8ff" d="M274.9,-109.98C311.02,-100.91 368.32,-86.52 407.92,-76.57"/>
<polygon fill="#63b8ff" stroke="#63b8ff" points="408.99,-79.91 417.83,-74.08 407.28,-73.12 408.99,-79.91"/>
</a>
</g>
</g>
<!-- Node6&#45;&gt;Node7 -->
<g id="edge7_Node000006_Node000007" class="edge">
<title>Node6&#45;&gt;Node7</title>
<g id="a_edge7_Node000006_Node000007"><a xlink:title=" ">
<path fill="none" stroke="#63b8ff" d="M203.68,-109.92C165.88,-101.16 105.78,-87.04 54,-74 53.9,-73.97 53.8,-73.95 53.7,-73.92"/>
<polygon fill="#63b8ff" stroke="#63b8ff" points="54.57,-70.53 44.01,-71.43 52.82,-77.31 54.57,-70.53"/>
</a>
</g>
</g>
<!-- Node8 -->
<g id="Node000008" class="node">
<title>Node8</title>
<g id="a_Node000008"><a xlink:title=" ">
<polygon fill="#e0e0e0" stroke="#999999" points="155.5,-74 62.5,-74 62.5,-55 155.5,-55 155.5,-74"/>
<text text-anchor="middle" x="109" y="-62" font-family="Helvetica,sans-Serif" font-size="10.00">unordered_map</text>
</a>
</g>
</g>
<!-- Node6&#45;&gt;Node8 -->
<g id="edge8_Node000006_Node000008" class="edge">
<title>Node6&#45;&gt;Node8</title>
<g id="a_edge8_Node000006_Node000008"><a xlink:title=" ">
<path fill="none" stroke="#63b8ff" d="M219.79,-109.98C198.27,-101.34 164.72,-87.87 140.17,-78.02"/>
<polygon fill="#63b8ff" stroke="#63b8ff" points="141.18,-74.65 130.59,-74.17 138.57,-81.14 141.18,-74.65"/>
</a>
</g>
</g>
<!-- Node6&#45;&gt;Node9 -->
<g id="edge9_Node000006_Node000009" class="edge">
<title>Node6&#45;&gt;Node9</title>
<g id="a_edge9_Node000006_Node000009"><a xlink:title=" ">
<path fill="none" stroke="#63b8ff" d="M258.51,-109.98C275.97,-101.5 303.01,-88.35 323.17,-78.54"/>
<polygon fill="#63b8ff" stroke="#63b8ff" points="324.71,-81.69 332.17,-74.17 321.64,-75.4 324.71,-81.69"/>
</a>
</g>
</g>
<!-- Node10 -->
<g id="Node000010" class="node">
<title>Node10</title>
<g id="a_Node000010"><a xlink:title=" ">
<polygon fill="#e0e0e0" stroke="#999999" points="308,-74 174,-74 174,-55 308,-55 308,-74"/>
<text text-anchor="middle" x="241" y="-62" font-family="Helvetica,sans-Serif" font-size="10.00">realm/module_config.inl</text>
</a>
</g>
</g>
<!-- Node6&#45;&gt;Node10 -->
<g id="edge10_Node000006_Node000010" class="edge">
<title>Node6&#45;&gt;Node10</title>
<g id="a_edge10_Node000006_Node000010"><a xlink:title=" ">
<path fill="none" stroke="#63b8ff" d="M241,-109.75C241,-102.8 241,-92.85 241,-84.13"/>
<polygon fill="#63b8ff" stroke="#63b8ff" points="244.5,-84.09 241,-74.09 237.5,-84.09 244.5,-84.09"/>
</a>
</g>
</g>
</g>
</svg>
