<?xml version="1.0" encoding="UTF-8" standalone="no"?>
<!DOCTYPE svg PUBLIC "-//W3C//DTD SVG 1.1//EN"
 "http://www.w3.org/Graphics/SVG/1.1/DTD/svg11.dtd">
<!-- Generated by graphviz version 2.43.0 (0)
 -->
<!-- Title: /home/runner/work/realm/realm/realm&#45;src/src/realm/llvmjit/llvmjit.h Pages: 1 -->
<svg width="1014pt" height="324pt"
 viewBox="0.00 0.00 1014.00 324.00" xmlns="http://www.w3.org/2000/svg" xmlns:xlink="http://www.w3.org/1999/xlink">
<g id="graph0" class="graph" transform="scale(1 1) rotate(0) translate(4 320)">
<title>/home/runner/work/realm/realm/realm&#45;src/src/realm/llvmjit/llvmjit.h</title>
<!-- Node1 -->
<g id="Node000001" class="node">
<title>Node1</title>
<g id="a_Node000001"><a xlink:title=" ">
<polygon fill="#999999" stroke="#666666" points="807.5,-316 661.5,-316 661.5,-275 807.5,-275 807.5,-316"/>
<text text-anchor="start" x="669.5" y="-304" font-family="Helvetica,sans-Serif" font-size="10.00">/home/runner/work/realm</text>
<text text-anchor="start" x="669.5" y="-293" font-family="Helvetica,sans-Serif" font-size="10.00">/realm/realm&#45;src/src/realm</text>
<text text-anchor="middle" x="734.5" y="-282" font-family="Helvetica,sans-Serif" font-size="10.00">/llvmjit/llvmjit.h</text>
</a>
</g>
</g>
<!-- Node2 -->
<g id="Node000002" class="node">
<title>Node2</title>
<g id="a_Node000002"><a xlink:href="realm__config_8h.html" target="_top" xlink:title=" ">
<polygon fill="white" stroke="#666666" points="175.5,-74 55.5,-74 55.5,-55 175.5,-55 175.5,-74"/>
<text text-anchor="middle" x="115.5" y="-62" font-family="Helvetica,sans-Serif" font-size="10.00">realm/realm_config.h</text>
</a>
</g>
</g>
<!-- Node1&#45;&gt;Node2 -->
<g id="edge1_Node000001_Node000002" class="edge">
<title>Node1&#45;&gt;Node2</title>
<g id="a_edge1_Node000001_Node000002"><a xlink:title=" ">
<path fill="none" stroke="#63b8ff" d="M661.39,-288.34C558.54,-277.6 366.98,-249.93 217.5,-184 179.02,-167.03 166.38,-162.15 140.5,-129 130.13,-115.72 123.57,-97.6 119.78,-84.12"/>
<polygon fill="#63b8ff" stroke="#63b8ff" points="123.09,-82.92 117.23,-74.09 116.31,-84.64 123.09,-82.92"/>
</a>
</g>
</g>
<!-- Node5 -->
<g id="Node000005" class="node">
<title>Node5</title>
<g id="a_Node000005"><a xlink:href="codedesc_8h.html" target="_top" xlink:title=" ">
<polygon fill="white" stroke="#666666" points="605,-239 502,-239 502,-220 605,-220 605,-239"/>
<text text-anchor="middle" x="553.5" y="-227" font-family="Helvetica,sans-Serif" font-size="10.00">realm/codedesc.h</text>
</a>
</g>
</g>
<!-- Node1&#45;&gt;Node5 -->
<g id="edge4_Node000001_Node000005" class="edge">
<title>Node1&#45;&gt;Node5</title>
<g id="a_edge4_Node000001_Node000005"><a xlink:title=" ">
<path fill="none" stroke="#63b8ff" d="M679.21,-274.95C649.29,-264.37 613.29,-251.64 587.49,-242.52"/>
<polygon fill="#63b8ff" stroke="#63b8ff" points="588.39,-239.13 577.8,-239.09 586.06,-245.73 588.39,-239.13"/>
</a>
</g>
</g>
<!-- Node7 -->
<g id="Node000007" class="node">
<title>Node7</title>
<g id="a_Node000007"><a xlink:href="bytearray_8h.html" target="_top" xlink:title=" ">
<polygon fill="white" stroke="#666666" points="942,-129 839,-129 839,-110 942,-110 942,-129"/>
<text text-anchor="middle" x="890.5" y="-117" font-family="Helvetica,sans-Serif" font-size="10.00">realm/bytearray.h</text>
</a>
</g>
</g>
<!-- Node1&#45;&gt;Node7 -->
<g id="edge33_Node000001_Node000007" class="edge">
<title>Node1&#45;&gt;Node7</title>
<g id="a_edge33_Node000001_Node000007"><a xlink:title=" ">
<path fill="none" stroke="#63b8ff" d="M752.09,-274.88C783.11,-240.29 846.95,-169.07 875.79,-136.91"/>
<polygon fill="#63b8ff" stroke="#63b8ff" points="878.56,-139.06 882.63,-129.27 873.35,-134.38 878.56,-139.06"/>
</a>
</g>
</g>
<!-- Node11 -->
<g id="Node000011" class="node">
<title>Node11</title>
<g id="a_Node000011"><a xlink:title=" ">
<polygon fill="#e0e0e0" stroke="#999999" points="756.5,-74 712.5,-74 712.5,-55 756.5,-55 756.5,-74"/>
<text text-anchor="middle" x="734.5" y="-62" font-family="Helvetica,sans-Serif" font-size="10.00">string</text>
</a>
</g>
</g>
<!-- Node1&#45;&gt;Node11 -->
<g id="edge34_Node000001_Node000011" class="edge">
<title>Node1&#45;&gt;Node11</title>
<g id="a_edge34_Node000001_Node000011"><a xlink:title=" ">
<path fill="none" stroke="#63b8ff" d="M734.5,-274.98C734.5,-231.58 734.5,-127.56 734.5,-84.58"/>
<polygon fill="#63b8ff" stroke="#63b8ff" points="738,-84.39 734.5,-74.39 731,-84.39 738,-84.39"/>
</a>
</g>
</g>
<!-- Node25 -->
<g id="Node000025" class="node">
<title>Node25</title>
<g id="a_Node000025"><a xlink:title=" ">
<polygon fill="#e0e0e0" stroke="#999999" points="1006,-239 877,-239 877,-220 1006,-220 1006,-239"/>
<text text-anchor="middle" x="941.5" y="-227" font-family="Helvetica,sans-Serif" font-size="10.00">realm/llvmjit/llvmjit.inl</text>
</a>
</g>
</g>
<!-- Node1&#45;&gt;Node25 -->
<g id="edge35_Node000001_Node000025" class="edge">
<title>Node1&#45;&gt;Node25</title>
<g id="a_edge35_Node000001_Node000025"><a xlink:title=" ">
<path fill="none" stroke="#63b8ff" d="M797.73,-274.95C832.51,-264.2 874.48,-251.22 904.06,-242.07"/>
<polygon fill="#63b8ff" stroke="#63b8ff" points="905.46,-245.31 913.98,-239.01 903.39,-238.62 905.46,-245.31"/>
</a>
</g>
</g>
<!-- Node3 -->
<g id="Node000003" class="node">
<title>Node3</title>
<g id="a_Node000003"><a xlink:href="realm__defines_8h.html" target="_top" xlink:title=" ">
<polygon fill="white" stroke="#666666" points="95,-19 0,-19 0,0 95,0 95,-19"/>
<text text-anchor="middle" x="47.5" y="-7" font-family="Helvetica,sans-Serif" font-size="10.00">realm_defines.h</text>
</a>
</g>
</g>
<!-- Node2&#45;&gt;Node3 -->
<g id="edge2_Node000002_Node000003" class="edge">
<title>Node2&#45;&gt;Node3</title>
<g id="a_edge2_Node000002_Node000003"><a xlink:title=" ">
<path fill="none" stroke="#63b8ff" d="M104.57,-54.98C94.42,-47.07 79.08,-35.11 66.85,-25.58"/>
<polygon fill="#63b8ff" stroke="#63b8ff" points="68.66,-22.56 58.62,-19.17 64.36,-28.08 68.66,-22.56"/>
</a>
</g>
</g>
<!-- Node4 -->
<g id="Node000004" class="node">
<title>Node4</title>
<g id="a_Node000004"><a xlink:href="compiler__support_8h.html" target="_top" xlink:title=" ">
<polygon fill="white" stroke="#666666" points="255.5,-19 113.5,-19 113.5,0 255.5,0 255.5,-19"/>
<text text-anchor="middle" x="184.5" y="-7" font-family="Helvetica,sans-Serif" font-size="10.00">realm/compiler_support.h</text>
</a>
</g>
</g>
<!-- Node2&#45;&gt;Node4 -->
<g id="edge3_Node000002_Node000004" class="edge">
<title>Node2&#45;&gt;Node4</title>
<g id="a_edge3_Node000002_Node000004"><a xlink:title=" ">
<path fill="none" stroke="#63b8ff" d="M126.59,-54.98C136.99,-47 152.76,-34.88 165.22,-25.31"/>
<polygon fill="#63b8ff" stroke="#63b8ff" points="167.41,-28.04 173.21,-19.17 163.15,-22.49 167.41,-28.04"/>
</a>
</g>
</g>
<!-- Node5&#45;&gt;Node2 -->
<g id="edge5_Node000005_Node000002" class="edge">
<title>Node5&#45;&gt;Node2</title>
<g id="a_edge5_Node000005_Node000002"><a xlink:title=" ">
<path fill="none" stroke="#63b8ff" d="M501.73,-228.32C420.84,-225.44 263.29,-209.04 162.5,-129 146.6,-116.37 133.37,-97.11 125.04,-83.11"/>
<polygon fill="#63b8ff" stroke="#63b8ff" points="127.86,-80.98 119.87,-74.02 121.77,-84.44 127.86,-80.98"/>
</a>
</g>
</g>
<!-- Node6 -->
<g id="Node000006" class="node">
<title>Node6</title>
<g id="a_Node000006"><a xlink:href="serialize_8h.html" target="_top" xlink:title=" ">
<polygon fill="white" stroke="#666666" points="602.5,-184 504.5,-184 504.5,-165 602.5,-165 602.5,-184"/>
<text text-anchor="middle" x="553.5" y="-172" font-family="Helvetica,sans-Serif" font-size="10.00">realm/serialize.h</text>
</a>
</g>
</g>
<!-- Node5&#45;&gt;Node6 -->
<g id="edge6_Node000005_Node000006" class="edge">
<title>Node5&#45;&gt;Node6</title>
<g id="a_edge6_Node000005_Node000006"><a xlink:title=" ">
<path fill="none" stroke="#63b8ff" d="M553.5,-219.75C553.5,-212.8 553.5,-202.85 553.5,-194.13"/>
<polygon fill="#63b8ff" stroke="#63b8ff" points="557,-194.09 553.5,-184.09 550,-194.09 557,-194.09"/>
</a>
</g>
</g>
<!-- Node8 -->
<g id="Node000008" class="node">
<title>Node8</title>
<g id="a_Node000008"><a xlink:title=" ">
<polygon fill="#e0e0e0" stroke="#999999" points="834.5,-74 778.5,-74 778.5,-55 834.5,-55 834.5,-74"/>
<text text-anchor="middle" x="806.5" y="-62" font-family="Helvetica,sans-Serif" font-size="10.00">stddef.h</text>
</a>
</g>
</g>
<!-- Node5&#45;&gt;Node8 -->
<g id="edge29_Node000005_Node000008" class="edge">
<title>Node5&#45;&gt;Node8</title>
<g id="a_edge29_Node000005_Node000008"><a xlink:title=" ">
<path fill="none" stroke="#63b8ff" d="M569.77,-219.86C585.91,-211.17 611.23,-197.2 632.5,-184 689.55,-148.59 754.34,-102.97 786.37,-80.04"/>
<polygon fill="#63b8ff" stroke="#63b8ff" points="788.42,-82.87 794.5,-74.19 784.34,-77.19 788.42,-82.87"/>
</a>
</g>
</g>
<!-- Node13 -->
<g id="Node000013" class="node">
<title>Node13</title>
<g id="a_Node000013"><a xlink:title=" ">
<polygon fill="#e0e0e0" stroke="#999999" points="694,-74 647,-74 647,-55 694,-55 694,-74"/>
<text text-anchor="middle" x="670.5" y="-62" font-family="Helvetica,sans-Serif" font-size="10.00">vector</text>
</a>
</g>
</g>
<!-- Node5&#45;&gt;Node13 -->
<g id="edge30_Node000005_Node000013" class="edge">
<title>Node5&#45;&gt;Node13</title>
<g id="a_edge30_Node000005_Node000013"><a xlink:title=" ">
<path fill="none" stroke="#63b8ff" d="M568.37,-219.81C581.09,-211.79 599.23,-198.89 611.5,-184 637.34,-152.64 655.63,-108.06 664.48,-83.49"/>
<polygon fill="#63b8ff" stroke="#63b8ff" points="667.8,-84.6 667.78,-74 661.18,-82.3 667.8,-84.6"/>
</a>
</g>
</g>
<!-- Node23 -->
<g id="Node000023" class="node">
<title>Node23</title>
<g id="a_Node000023"><a xlink:title=" ">
<polygon fill="#e0e0e0" stroke="#999999" points="358.5,-184 298.5,-184 298.5,-165 358.5,-165 358.5,-184"/>
<text text-anchor="middle" x="328.5" y="-172" font-family="Helvetica,sans-Serif" font-size="10.00">iostream</text>
</a>
</g>
</g>
<!-- Node5&#45;&gt;Node23 -->
<g id="edge31_Node000005_Node000023" class="edge">
<title>Node5&#45;&gt;Node23</title>
<g id="a_edge31_Node000005_Node000023"><a xlink:title=" ">
<path fill="none" stroke="#63b8ff" d="M517.35,-219.98C476.72,-210.42 410.95,-194.92 368.73,-184.98"/>
<polygon fill="#63b8ff" stroke="#63b8ff" points="369.33,-181.52 358.79,-182.63 367.72,-188.33 369.33,-181.52"/>
</a>
</g>
</g>
<!-- Node24 -->
<g id="Node000024" class="node">
<title>Node24</title>
<g id="a_Node000024"><a xlink:title=" ">
<polygon fill="#e0e0e0" stroke="#999999" points="486,-184 377,-184 377,-165 486,-165 486,-184"/>
<text text-anchor="middle" x="431.5" y="-172" font-family="Helvetica,sans-Serif" font-size="10.00">realm/codedesc.inl</text>
</a>
</g>
</g>
<!-- Node5&#45;&gt;Node24 -->
<g id="edge32_Node000005_Node000024" class="edge">
<title>Node5&#45;&gt;Node24</title>
<g id="a_edge32_Node000005_Node000024"><a xlink:title=" ">
<path fill="none" stroke="#63b8ff" d="M533.9,-219.98C514.18,-211.42 483.55,-198.11 460.92,-188.28"/>
<polygon fill="#63b8ff" stroke="#63b8ff" points="462.02,-184.94 451.46,-184.17 459.24,-191.37 462.02,-184.94"/>
</a>
</g>
</g>
<!-- Node6&#45;&gt;Node2 -->
<g id="edge7_Node000006_Node000002" class="edge">
<title>Node6&#45;&gt;Node2</title>
<g id="a_edge7_Node000006_Node000002"><a xlink:title=" ">
<path fill="none" stroke="#63b8ff" d="M504.26,-166.32C500.96,-165.87 497.68,-165.42 494.5,-165 362.69,-147.52 320.49,-179.52 197.5,-129 171.12,-118.16 145.99,-96.43 130.67,-81.43"/>
<polygon fill="#63b8ff" stroke="#63b8ff" points="133.12,-78.93 123.59,-74.29 128.15,-83.86 133.12,-78.93"/>
</a>
</g>
</g>
<!-- Node6&#45;&gt;Node7 -->
<g id="edge8_Node000006_Node000007" class="edge">
<title>Node6&#45;&gt;Node7</title>
<g id="a_edge8_Node000006_Node000007"><a xlink:title=" ">
<path fill="none" stroke="#63b8ff" d="M602.5,-165.79C662.37,-156.38 763.71,-140.44 828.82,-130.2"/>
<polygon fill="#63b8ff" stroke="#63b8ff" points="829.61,-133.62 838.95,-128.61 828.53,-126.7 829.61,-133.62"/>
</a>
</g>
</g>
<!-- Node6&#45;&gt;Node8 -->
<g id="edge21_Node000006_Node000008" class="edge">
<title>Node6&#45;&gt;Node8</title>
<g id="a_edge21_Node000006_Node000008"><a xlink:title=" ">
<path fill="none" stroke="#63b8ff" d="M573.78,-164.84C618.39,-145.8 725.21,-100.2 777.15,-78.03"/>
<polygon fill="#63b8ff" stroke="#63b8ff" points="778.66,-81.19 786.48,-74.05 775.91,-74.75 778.66,-81.19"/>
</a>
</g>
</g>
<!-- Node10 -->
<g id="Node000010" class="node">
<title>Node10</title>
<g id="a_Node000010"><a xlink:href="utils_8h.html" target="_top" xlink:title=" ">
<polygon fill="white" stroke="#666666" points="592.5,-129 514.5,-129 514.5,-110 592.5,-110 592.5,-129"/>
<text text-anchor="middle" x="553.5" y="-117" font-family="Helvetica,sans-Serif" font-size="10.00">realm/utils.h</text>
</a>
</g>
</g>
<!-- Node6&#45;&gt;Node10 -->
<g id="edge11_Node000006_Node000010" class="edge">
<title>Node6&#45;&gt;Node10</title>
<g id="a_edge11_Node000006_Node000010"><a xlink:title=" ">
<path fill="none" stroke="#63b8ff" d="M553.5,-164.75C553.5,-157.8 553.5,-147.85 553.5,-139.13"/>
<polygon fill="#63b8ff" stroke="#63b8ff" points="557,-139.09 553.5,-129.09 550,-139.09 557,-139.09"/>
</a>
</g>
</g>
<!-- Node6&#45;&gt;Node11 -->
<g id="edge26_Node000006_Node000011" class="edge">
<title>Node6&#45;&gt;Node11</title>
<g id="a_edge26_Node000006_Node000011"><a xlink:title=" ">
<path fill="none" stroke="#63b8ff" d="M568.01,-164.84C599.33,-146.16 673.5,-101.9 711.38,-79.3"/>
<polygon fill="#63b8ff" stroke="#63b8ff" points="713.38,-82.18 720.18,-74.05 709.8,-76.17 713.38,-82.18"/>
</a>
</g>
</g>
<!-- Node6&#45;&gt;Node13 -->
<g id="edge22_Node000006_Node000013" class="edge">
<title>Node6&#45;&gt;Node13</title>
<g id="a_edge22_Node000006_Node000013"><a xlink:title=" ">
<path fill="none" stroke="#63b8ff" d="M563.07,-164.66C582.88,-146.38 628.6,-104.18 653.53,-81.17"/>
<polygon fill="#63b8ff" stroke="#63b8ff" points="656.15,-83.51 661.12,-74.16 651.4,-78.37 656.15,-83.51"/>
</a>
</g>
</g>
<!-- Node14 -->
<g id="Node000014" class="node">
<title>Node14</title>
<g id="a_Node000014"><a xlink:title=" ">
<polygon fill="#e0e0e0" stroke="#999999" points="236.5,-74 198.5,-74 198.5,-55 236.5,-55 236.5,-74"/>
<text text-anchor="middle" x="217.5" y="-62" font-family="Helvetica,sans-Serif" font-size="10.00">map</text>
</a>
</g>
</g>
<!-- Node6&#45;&gt;Node14 -->
<g id="edge25_Node000006_Node000014" class="edge">
<title>Node6&#45;&gt;Node14</title>
<g id="a_edge25_Node000006_Node000014"><a xlink:title=" ">
<path fill="none" stroke="#63b8ff" d="M504.25,-166.34C500.95,-165.88 497.68,-165.43 494.5,-165 430.8,-156.42 250.03,-177.2 207.5,-129 196.57,-116.61 201.63,-97.31 207.84,-83.24"/>
<polygon fill="#63b8ff" stroke="#63b8ff" points="211.06,-84.61 212.35,-74.09 204.79,-81.51 211.06,-84.61"/>
</a>
</g>
</g>
<!-- Node19 -->
<g id="Node000019" class="node">
<title>Node19</title>
<g id="a_Node000019"><a xlink:title=" ">
<polygon fill="#e0e0e0" stroke="#999999" points="248.5,-129 216.5,-129 216.5,-110 248.5,-110 248.5,-129"/>
<text text-anchor="middle" x="232.5" y="-117" font-family="Helvetica,sans-Serif" font-size="10.00">list</text>
</a>
</g>
</g>
<!-- Node6&#45;&gt;Node19 -->
<g id="edge23_Node000006_Node000019" class="edge">
<title>Node6&#45;&gt;Node19</title>
<g id="a_edge23_Node000006_Node000019"><a xlink:title=" ">
<path fill="none" stroke="#63b8ff" d="M504.45,-166.36C431.51,-155.71 299.34,-136.29 258.51,-128.53"/>
<polygon fill="#63b8ff" stroke="#63b8ff" points="259.02,-125.06 248.51,-126.42 257.57,-131.91 259.02,-125.06"/>
</a>
</g>
</g>
<!-- Node20 -->
<g id="Node000020" class="node">
<title>Node20</title>
<g id="a_Node000020"><a xlink:title=" ">
<polygon fill="#e0e0e0" stroke="#999999" points="298.5,-129 266.5,-129 266.5,-110 298.5,-110 298.5,-129"/>
<text text-anchor="middle" x="282.5" y="-117" font-family="Helvetica,sans-Serif" font-size="10.00">set</text>
</a>
</g>
</g>
<!-- Node6&#45;&gt;Node20 -->
<g id="edge24_Node000006_Node000020" class="edge">
<title>Node6&#45;&gt;Node20</title>
<g id="a_edge24_Node000006_Node000020"><a xlink:title=" ">
<path fill="none" stroke="#63b8ff" d="M504.42,-165.51C447.73,-156.14 356.98,-140.66 308.26,-128.81"/>
<polygon fill="#63b8ff" stroke="#63b8ff" points="309.09,-125.41 298.53,-126.34 307.36,-132.2 309.09,-125.41"/>
</a>
</g>
</g>
<!-- Node21 -->
<g id="Node000021" class="node">
<title>Node21</title>
<g id="a_Node000021"><a xlink:title=" ">
<polygon fill="#e0e0e0" stroke="#999999" points="374,-129 317,-129 317,-110 374,-110 374,-129"/>
<text text-anchor="middle" x="345.5" y="-117" font-family="Helvetica,sans-Serif" font-size="10.00">typeinfo</text>
</a>
</g>
</g>
<!-- Node6&#45;&gt;Node21 -->
<g id="edge27_Node000006_Node000021" class="edge">
<title>Node6&#45;&gt;Node21</title>
<g id="a_edge27_Node000006_Node000021"><a xlink:title=" ">
<path fill="none" stroke="#63b8ff" d="M520.08,-164.98C482.97,-155.53 423.17,-140.29 384.1,-130.33"/>
<polygon fill="#63b8ff" stroke="#63b8ff" points="384.7,-126.88 374.15,-127.8 382.97,-133.66 384.7,-126.88"/>
</a>
</g>
</g>
<!-- Node22 -->
<g id="Node000022" class="node">
<title>Node22</title>
<g id="a_Node000022"><a xlink:title=" ">
<polygon fill="#e0e0e0" stroke="#999999" points="496.5,-129 392.5,-129 392.5,-110 496.5,-110 496.5,-129"/>
<text text-anchor="middle" x="444.5" y="-117" font-family="Helvetica,sans-Serif" font-size="10.00">realm/serialize.inl</text>
</a>
</g>
</g>
<!-- Node6&#45;&gt;Node22 -->
<g id="edge28_Node000006_Node000022" class="edge">
<title>Node6&#45;&gt;Node22</title>
<g id="a_edge28_Node000006_Node000022"><a xlink:title=" ">
<path fill="none" stroke="#63b8ff" d="M535.99,-164.98C518.53,-156.5 491.49,-143.35 471.33,-133.54"/>
<polygon fill="#63b8ff" stroke="#63b8ff" points="472.86,-130.4 462.33,-129.17 469.79,-136.69 472.86,-130.4"/>
</a>
</g>
</g>
<!-- Node7&#45;&gt;Node8 -->
<g id="edge9_Node000007_Node000008" class="edge">
<title>Node7&#45;&gt;Node8</title>
<g id="a_edge9_Node000007_Node000008"><a xlink:title=" ">
<path fill="none" stroke="#63b8ff" d="M877,-109.98C864.1,-101.84 844.4,-89.41 829.1,-79.76"/>
<polygon fill="#63b8ff" stroke="#63b8ff" points="830.57,-76.55 820.24,-74.17 826.83,-82.47 830.57,-76.55"/>
</a>
</g>
</g>
<!-- Node9 -->
<g id="Node000009" class="node">
<title>Node9</title>
<g id="a_Node000009"><a xlink:title=" ">
<polygon fill="#e0e0e0" stroke="#999999" points="962,-74 853,-74 853,-55 962,-55 962,-74"/>
<text text-anchor="middle" x="907.5" y="-62" font-family="Helvetica,sans-Serif" font-size="10.00">realm/bytearray.inl</text>
</a>
</g>
</g>
<!-- Node7&#45;&gt;Node9 -->
<g id="edge10_Node000007_Node000009" class="edge">
<title>Node7&#45;&gt;Node9</title>
<g id="a_edge10_Node000007_Node000009"><a xlink:title=" ">
<path fill="none" stroke="#63b8ff" d="M893.31,-109.75C895.56,-102.72 898.8,-92.62 901.62,-83.84"/>
<polygon fill="#63b8ff" stroke="#63b8ff" points="905.02,-84.68 904.75,-74.09 898.36,-82.54 905.02,-84.68"/>
</a>
</g>
</g>
<!-- Node10&#45;&gt;Node2 -->
<g id="edge12_Node000010_Node000002" class="edge">
<title>Node10&#45;&gt;Node2</title>
<g id="a_edge12_Node000010_Node000002"><a xlink:title=" ">
<path fill="none" stroke="#63b8ff" d="M514.5,-111.39C511.46,-110.89 508.43,-110.43 505.5,-110 365.62,-89.67 329.94,-90.07 189.5,-74 188.24,-73.86 186.96,-73.71 185.67,-73.56"/>
<polygon fill="#63b8ff" stroke="#63b8ff" points="186.01,-70.08 175.67,-72.42 185.21,-77.03 186.01,-70.08"/>
</a>
</g>
</g>
<!-- Node10&#45;&gt;Node11 -->
<g id="edge13_Node000010_Node000011" class="edge">
<title>Node10&#45;&gt;Node11</title>
<g id="a_edge13_Node000010_Node000011"><a xlink:title=" ">
<path fill="none" stroke="#63b8ff" d="M582.58,-109.98C615.36,-100.39 668.51,-84.82 702.46,-74.88"/>
<polygon fill="#63b8ff" stroke="#63b8ff" points="703.72,-78.16 712.34,-71.99 701.76,-71.44 703.72,-78.16"/>
</a>
</g>
</g>
<!-- Node12 -->
<g id="Node000012" class="node">
<title>Node12</title>
<g id="a_Node000012"><a xlink:title=" ">
<polygon fill="#e0e0e0" stroke="#999999" points="558,-74 501,-74 501,-55 558,-55 558,-74"/>
<text text-anchor="middle" x="529.5" y="-62" font-family="Helvetica,sans-Serif" font-size="10.00">ostream</text>
</a>
</g>
</g>
<!-- Node10&#45;&gt;Node12 -->
<g id="edge14_Node000010_Node000012" class="edge">
<title>Node10&#45;&gt;Node12</title>
<g id="a_edge14_Node000010_Node000012"><a xlink:title=" ">
<path fill="none" stroke="#63b8ff" d="M549.54,-109.75C546.29,-102.57 541.58,-92.18 537.55,-83.27"/>
<polygon fill="#63b8ff" stroke="#63b8ff" points="540.7,-81.75 533.39,-74.09 534.33,-84.64 540.7,-81.75"/>
</a>
</g>
</g>
<!-- Node10&#45;&gt;Node13 -->
<g id="edge15_Node000010_Node000013" class="edge">
<title>Node10&#45;&gt;Node13</title>
<g id="a_edge15_Node000010_Node000013"><a xlink:title=" ">
<path fill="none" stroke="#63b8ff" d="M572.3,-109.98C591.12,-101.46 620.32,-88.23 642,-78.41"/>
<polygon fill="#63b8ff" stroke="#63b8ff" points="643.7,-81.48 651.36,-74.17 640.81,-75.11 643.7,-81.48"/>
</a>
</g>
</g>
<!-- Node10&#45;&gt;Node14 -->
<g id="edge16_Node000010_Node000014" class="edge">
<title>Node10&#45;&gt;Node14</title>
<g id="a_edge16_Node000010_Node000014"><a xlink:title=" ">
<path fill="none" stroke="#63b8ff" d="M514.49,-111.47C511.45,-110.96 508.43,-110.46 505.5,-110 391.15,-91.9 360.8,-97.84 247.5,-74 247.17,-73.93 246.84,-73.86 246.51,-73.79"/>
<polygon fill="#63b8ff" stroke="#63b8ff" points="247.32,-70.38 236.77,-71.38 245.64,-77.18 247.32,-70.38"/>
</a>
</g>
</g>
<!-- Node15 -->
<g id="Node000015" class="node">
<title>Node15</title>
<g id="a_Node000015"><a xlink:title=" ">
<polygon fill="#e0e0e0" stroke="#999999" points="628.5,-74 576.5,-74 576.5,-55 628.5,-55 628.5,-74"/>
<text text-anchor="middle" x="602.5" y="-62" font-family="Helvetica,sans-Serif" font-size="10.00">cassert</text>
</a>
</g>
</g>
<!-- Node10&#45;&gt;Node15 -->
<g id="edge17_Node000010_Node000015" class="edge">
<title>Node10&#45;&gt;Node15</title>
<g id="a_edge17_Node000010_Node000015"><a xlink:title=" ">
<path fill="none" stroke="#63b8ff" d="M561.59,-109.75C568.66,-102.11 579.09,-90.82 587.65,-81.56"/>
<polygon fill="#63b8ff" stroke="#63b8ff" points="590.34,-83.81 594.56,-74.09 585.2,-79.06 590.34,-83.81"/>
</a>
</g>
</g>
<!-- Node16 -->
<g id="Node000016" class="node">
<title>Node16</title>
<g id="a_Node000016"><a xlink:title=" ">
<polygon fill="#e0e0e0" stroke="#999999" points="306.5,-74 256.5,-74 256.5,-55 306.5,-55 306.5,-74"/>
<text text-anchor="middle" x="281.5" y="-62" font-family="Helvetica,sans-Serif" font-size="10.00">cstdint</text>
</a>
</g>
</g>
<!-- Node10&#45;&gt;Node16 -->
<g id="edge18_Node000010_Node000016" class="edge">
<title>Node10&#45;&gt;Node16</title>
<g id="a_edge18_Node000010_Node000016"><a xlink:title=" ">
<path fill="none" stroke="#63b8ff" d="M514.23,-111.45C460.64,-101.79 366.38,-84.62 316.62,-74.12"/>
<polygon fill="#63b8ff" stroke="#63b8ff" points="317.22,-70.67 306.71,-71.98 315.75,-77.51 317.22,-70.67"/>
</a>
</g>
</g>
<!-- Node17 -->
<g id="Node000017" class="node">
<title>Node17</title>
<g id="a_Node000017"><a xlink:title=" ">
<polygon fill="#e0e0e0" stroke="#999999" points="380.5,-74 324.5,-74 324.5,-55 380.5,-55 380.5,-74"/>
<text text-anchor="middle" x="352.5" y="-62" font-family="Helvetica,sans-Serif" font-size="10.00">sstream</text>
</a>
</g>
</g>
<!-- Node10&#45;&gt;Node17 -->
<g id="edge19_Node000010_Node000017" class="edge">
<title>Node10&#45;&gt;Node17</title>
<g id="a_edge19_Node000010_Node000017"><a xlink:title=" ">
<path fill="none" stroke="#63b8ff" d="M521.21,-109.98C485.7,-100.62 428.7,-85.59 390.93,-75.63"/>
<polygon fill="#63b8ff" stroke="#63b8ff" points="391.38,-72.13 380.82,-72.97 389.59,-78.9 391.38,-72.13"/>
</a>
</g>
</g>
<!-- Node18 -->
<g id="Node000018" class="node">
<title>Node18</title>
<g id="a_Node000018"><a xlink:title=" ">
<polygon fill="#e0e0e0" stroke="#999999" points="482.5,-74 398.5,-74 398.5,-55 482.5,-55 482.5,-74"/>
<text text-anchor="middle" x="440.5" y="-62" font-family="Helvetica,sans-Serif" font-size="10.00">realm/utils.inl</text>
</a>
</g>
</g>
<!-- Node10&#45;&gt;Node18 -->
<g id="edge20_Node000010_Node000018" class="edge">
<title>Node10&#45;&gt;Node18</title>
<g id="a_edge20_Node000010_Node000018"><a xlink:title=" ">
<path fill="none" stroke="#63b8ff" d="M535.34,-109.98C517.25,-101.5 489.22,-88.35 468.31,-78.54"/>
<polygon fill="#63b8ff" stroke="#63b8ff" points="469.53,-75.25 458.99,-74.17 466.55,-81.59 469.53,-75.25"/>
</a>
</g>
</g>
</g>
</svg>
