<?xml version="1.0" encoding="UTF-8" standalone="no"?>
<!DOCTYPE svg PUBLIC "-//W3C//DTD SVG 1.1//EN"
 "http://www.w3.org/Graphics/SVG/1.1/DTD/svg11.dtd">
<!-- Generated by graphviz version 2.43.0 (0)
 -->
<!-- Title: /home/runner/work/realm/realm/realm&#45;src/src/realm/llvmjit/llvmjit_module.h Pages: 1 -->
<svg width="597pt" height="324pt"
 viewBox="0.00 0.00 597.00 324.00" xmlns="http://www.w3.org/2000/svg" xmlns:xlink="http://www.w3.org/1999/xlink">
<g id="graph0" class="graph" transform="scale(1 1) rotate(0) translate(4 320)">
<title>/home/runner/work/realm/realm/realm&#45;src/src/realm/llvmjit/llvmjit_module.h</title>
<!-- Node1 -->
<g id="Node000001" class="node">
<title>Node1</title>
<g id="a_Node000001"><a xlink:title=" ">
<polygon fill="#999999" stroke="#666666" points="211,-316 65,-316 65,-275 211,-275 211,-316"/>
<text text-anchor="start" x="73" y="-304" font-family="Helvetica,sans-Serif" font-size="10.00">/home/runner/work/realm</text>
<text text-anchor="start" x="73" y="-293" font-family="Helvetica,sans-Serif" font-size="10.00">/realm/realm&#45;src/src/realm</text>
<text text-anchor="middle" x="138" y="-282" font-family="Helvetica,sans-Serif" font-size="10.00">/llvmjit/llvmjit_module.h</text>
</a>
</g>
</g>
<!-- Node2 -->
<g id="Node000002" class="node">
<title>Node2</title>
<g id="a_Node000002"><a xlink:href="module_8h.html" target="_top" xlink:title=" ">
<polygon fill="white" stroke="#666666" points="353,-239 259,-239 259,-220 353,-220 353,-239"/>
<text text-anchor="middle" x="306" y="-227" font-family="Helvetica,sans-Serif" font-size="10.00">realm/module.h</text>
</a>
</g>
</g>
<!-- Node1&#45;&gt;Node2 -->
<g id="edge1_Node000001_Node000002" class="edge">
<title>Node1&#45;&gt;Node2</title>
<g id="a_edge1_Node000001_Node000002"><a xlink:title=" ">
<path fill="none" stroke="#63b8ff" d="M189.32,-274.95C216.84,-264.46 249.92,-251.87 273.81,-242.76"/>
<polygon fill="#63b8ff" stroke="#63b8ff" points="275.35,-245.92 283.45,-239.09 272.86,-239.38 275.35,-245.92"/>
</a>
</g>
</g>
<!-- Node10 -->
<g id="Node000010" class="node">
<title>Node10</title>
<g id="a_Node000010"><a xlink:title=" ">
<polygon fill="#e0e0e0" stroke="#999999" points="44,-129 0,-129 0,-110 44,-110 44,-129"/>
<text text-anchor="middle" x="22" y="-117" font-family="Helvetica,sans-Serif" font-size="10.00">string</text>
</a>
</g>
</g>
<!-- Node1&#45;&gt;Node10 -->
<g id="edge18_Node000001_Node000010" class="edge">
<title>Node1&#45;&gt;Node10</title>
<g id="a_edge18_Node000001_Node000010"><a xlink:title=" ">
<path fill="none" stroke="#63b8ff" d="M124.92,-274.88C102.05,-240.58 55.19,-170.28 33.49,-137.74"/>
<polygon fill="#63b8ff" stroke="#63b8ff" points="36.31,-135.65 27.85,-129.27 30.48,-139.54 36.31,-135.65"/>
</a>
</g>
</g>
<!-- Node3 -->
<g id="Node000003" class="node">
<title>Node3</title>
<g id="a_Node000003"><a xlink:href="realm__config_8h.html" target="_top" xlink:title=" ">
<polygon fill="white" stroke="#666666" points="510,-74 390,-74 390,-55 510,-55 510,-74"/>
<text text-anchor="middle" x="450" y="-62" font-family="Helvetica,sans-Serif" font-size="10.00">realm/realm_config.h</text>
</a>
</g>
</g>
<!-- Node2&#45;&gt;Node3 -->
<g id="edge2_Node000002_Node000003" class="edge">
<title>Node2&#45;&gt;Node3</title>
<g id="a_edge2_Node000002_Node000003"><a xlink:title=" ">
<path fill="none" stroke="#63b8ff" d="M353.28,-223.34C408,-214.54 495.62,-191.03 535,-129 549.68,-105.88 518.63,-88.19 490.02,-77.43"/>
<polygon fill="#63b8ff" stroke="#63b8ff" points="491.08,-74.09 480.48,-74.05 488.74,-80.69 491.08,-74.09"/>
</a>
</g>
</g>
<!-- Node6 -->
<g id="Node000006" class="node">
<title>Node6</title>
<g id="a_Node000006"><a xlink:href="module__config_8h.html" target="_top" xlink:title=" ">
<polygon fill="white" stroke="#666666" points="320,-184 192,-184 192,-165 320,-165 320,-184"/>
<text text-anchor="middle" x="256" y="-172" font-family="Helvetica,sans-Serif" font-size="10.00">realm/module_config.h</text>
</a>
</g>
</g>
<!-- Node2&#45;&gt;Node6 -->
<g id="edge5_Node000002_Node000006" class="edge">
<title>Node2&#45;&gt;Node6</title>
<g id="a_edge5_Node000002_Node000006"><a xlink:title=" ">
<path fill="none" stroke="#63b8ff" d="M297.74,-219.75C290.54,-212.11 279.89,-200.82 271.15,-191.56"/>
<polygon fill="#63b8ff" stroke="#63b8ff" points="273.51,-188.96 264.1,-184.09 268.42,-193.76 273.51,-188.96"/>
</a>
</g>
</g>
<!-- Node2&#45;&gt;Node10 -->
<g id="edge16_Node000002_Node000010" class="edge">
<title>Node2&#45;&gt;Node10</title>
<g id="a_edge16_Node000002_Node000010"><a xlink:title=" ">
<path fill="none" stroke="#63b8ff" d="M281.42,-219.84C256.54,-211.02 216.99,-196.85 183,-184 137.28,-166.72 84.66,-145.76 52.36,-132.77"/>
<polygon fill="#63b8ff" stroke="#63b8ff" points="53.61,-129.5 43.02,-129.01 50.99,-136 53.61,-129.5"/>
</a>
</g>
</g>
<!-- Node12 -->
<g id="Node000012" class="node">
<title>Node12</title>
<g id="a_Node000012"><a xlink:title=" ">
<polygon fill="#e0e0e0" stroke="#999999" points="525.5,-129 478.5,-129 478.5,-110 525.5,-110 525.5,-129"/>
<text text-anchor="middle" x="502" y="-117" font-family="Helvetica,sans-Serif" font-size="10.00">vector</text>
</a>
</g>
</g>
<!-- Node2&#45;&gt;Node12 -->
<g id="edge15_Node000002_Node000012" class="edge">
<title>Node2&#45;&gt;Node12</title>
<g id="a_edge15_Node000002_Node000012"><a xlink:title=" ">
<path fill="none" stroke="#63b8ff" d="M321.71,-219.84C355.77,-201.08 436.63,-156.52 477.48,-134.01"/>
<polygon fill="#63b8ff" stroke="#63b8ff" points="479.42,-136.94 486.49,-129.05 476.04,-130.81 479.42,-136.94"/>
</a>
</g>
</g>
<!-- Node14 -->
<g id="Node000014" class="node">
<title>Node14</title>
<g id="a_Node000014"><a xlink:title=" ">
<polygon fill="#e0e0e0" stroke="#999999" points="376,-184 338,-184 338,-165 376,-165 376,-184"/>
<text text-anchor="middle" x="357" y="-172" font-family="Helvetica,sans-Serif" font-size="10.00">map</text>
</a>
</g>
</g>
<!-- Node2&#45;&gt;Node14 -->
<g id="edge17_Node000002_Node000014" class="edge">
<title>Node2&#45;&gt;Node14</title>
<g id="a_edge17_Node000002_Node000014"><a xlink:title=" ">
<path fill="none" stroke="#63b8ff" d="M314.42,-219.75C321.77,-212.11 332.63,-200.82 341.54,-191.56"/>
<polygon fill="#63b8ff" stroke="#63b8ff" points="344.32,-193.72 348.74,-184.09 339.28,-188.87 344.32,-193.72"/>
</a>
</g>
</g>
<!-- Node4 -->
<g id="Node000004" class="node">
<title>Node4</title>
<g id="a_Node000004"><a xlink:href="realm__defines_8h.html" target="_top" xlink:title=" ">
<polygon fill="white" stroke="#666666" points="428.5,-19 333.5,-19 333.5,0 428.5,0 428.5,-19"/>
<text text-anchor="middle" x="381" y="-7" font-family="Helvetica,sans-Serif" font-size="10.00">realm_defines.h</text>
</a>
</g>
</g>
<!-- Node3&#45;&gt;Node4 -->
<g id="edge3_Node000003_Node000004" class="edge">
<title>Node3&#45;&gt;Node4</title>
<g id="a_edge3_Node000003_Node000004"><a xlink:title=" ">
<path fill="none" stroke="#63b8ff" d="M438.91,-54.98C428.51,-47 412.74,-34.88 400.28,-25.31"/>
<polygon fill="#63b8ff" stroke="#63b8ff" points="402.35,-22.49 392.29,-19.17 398.09,-28.04 402.35,-22.49"/>
</a>
</g>
</g>
<!-- Node5 -->
<g id="Node000005" class="node">
<title>Node5</title>
<g id="a_Node000005"><a xlink:href="compiler__support_8h.html" target="_top" xlink:title=" ">
<polygon fill="white" stroke="#666666" points="589,-19 447,-19 447,0 589,0 589,-19"/>
<text text-anchor="middle" x="518" y="-7" font-family="Helvetica,sans-Serif" font-size="10.00">realm/compiler_support.h</text>
</a>
</g>
</g>
<!-- Node3&#45;&gt;Node5 -->
<g id="edge4_Node000003_Node000005" class="edge">
<title>Node3&#45;&gt;Node5</title>
<g id="a_edge4_Node000003_Node000005"><a xlink:title=" ">
<path fill="none" stroke="#63b8ff" d="M460.93,-54.98C471.08,-47.07 486.42,-35.11 498.65,-25.58"/>
<polygon fill="#63b8ff" stroke="#63b8ff" points="501.14,-28.08 506.88,-19.17 496.84,-22.56 501.14,-28.08"/>
</a>
</g>
</g>
<!-- Node6&#45;&gt;Node3 -->
<g id="edge6_Node000006_Node000003" class="edge">
<title>Node6&#45;&gt;Node3</title>
<g id="a_edge6_Node000006_Node000003"><a xlink:title=" ">
<path fill="none" stroke="#63b8ff" d="M314.22,-165C358.38,-157.42 414.26,-145.06 431,-129 443.06,-117.44 447.55,-98.56 449.18,-84.39"/>
<polygon fill="#63b8ff" stroke="#63b8ff" points="452.68,-84.51 449.96,-74.27 445.7,-83.97 452.68,-84.51"/>
</a>
</g>
</g>
<!-- Node7 -->
<g id="Node000007" class="node">
<title>Node7</title>
<g id="a_Node000007"><a xlink:href="realm__c_8h.html" target="_top" xlink:title=" ">
<polygon fill="white" stroke="#666666" points="158,-129 62,-129 62,-110 158,-110 158,-129"/>
<text text-anchor="middle" x="110" y="-117" font-family="Helvetica,sans-Serif" font-size="10.00">realm/realm_c.h</text>
</a>
</g>
</g>
<!-- Node6&#45;&gt;Node7 -->
<g id="edge7_Node000006_Node000007" class="edge">
<title>Node6&#45;&gt;Node7</title>
<g id="a_edge7_Node000006_Node000007"><a xlink:title=" ">
<path fill="none" stroke="#63b8ff" d="M232.54,-164.98C208.42,-156.23 170.63,-142.51 143.4,-132.62"/>
<polygon fill="#63b8ff" stroke="#63b8ff" points="144.48,-129.29 133.88,-129.17 142.09,-135.87 144.48,-129.29"/>
</a>
</g>
</g>
<!-- Node6&#45;&gt;Node10 -->
<g id="edge11_Node000006_Node000010" class="edge">
<title>Node6&#45;&gt;Node10</title>
<g id="a_edge11_Node000006_Node000010"><a xlink:title=" ">
<path fill="none" stroke="#63b8ff" d="M213.86,-164.93C174.79,-156.83 114.83,-144.03 54.07,-129.17"/>
<polygon fill="#63b8ff" stroke="#63b8ff" points="54.86,-125.76 44.31,-126.77 53.19,-132.56 54.86,-125.76"/>
</a>
</g>
</g>
<!-- Node11 -->
<g id="Node000011" class="node">
<title>Node11</title>
<g id="a_Node000011"><a xlink:title=" ">
<polygon fill="#e0e0e0" stroke="#999999" points="269.5,-129 176.5,-129 176.5,-110 269.5,-110 269.5,-129"/>
<text text-anchor="middle" x="223" y="-117" font-family="Helvetica,sans-Serif" font-size="10.00">unordered_map</text>
</a>
</g>
</g>
<!-- Node6&#45;&gt;Node11 -->
<g id="edge12_Node000006_Node000011" class="edge">
<title>Node6&#45;&gt;Node11</title>
<g id="a_edge12_Node000006_Node000011"><a xlink:title=" ">
<path fill="none" stroke="#63b8ff" d="M250.55,-164.75C245.99,-157.42 239.33,-146.73 233.71,-137.7"/>
<polygon fill="#63b8ff" stroke="#63b8ff" points="236.6,-135.73 228.35,-129.09 230.66,-139.43 236.6,-135.73"/>
</a>
</g>
</g>
<!-- Node6&#45;&gt;Node12 -->
<g id="edge13_Node000006_Node000012" class="edge">
<title>Node6&#45;&gt;Node12</title>
<g id="a_edge13_Node000006_Node000012"><a xlink:title=" ">
<path fill="none" stroke="#63b8ff" d="M296.29,-165C338.21,-156.12 405.74,-141.75 464,-129 465.44,-128.68 466.92,-128.36 468.41,-128.03"/>
<polygon fill="#63b8ff" stroke="#63b8ff" points="469.29,-131.42 478.29,-125.84 467.77,-124.59 469.29,-131.42"/>
</a>
</g>
</g>
<!-- Node13 -->
<g id="Node000013" class="node">
<title>Node13</title>
<g id="a_Node000013"><a xlink:title=" ">
<polygon fill="#e0e0e0" stroke="#999999" points="422,-129 288,-129 288,-110 422,-110 422,-129"/>
<text text-anchor="middle" x="355" y="-117" font-family="Helvetica,sans-Serif" font-size="10.00">realm/module_config.inl</text>
</a>
</g>
</g>
<!-- Node6&#45;&gt;Node13 -->
<g id="edge14_Node000006_Node000013" class="edge">
<title>Node6&#45;&gt;Node13</title>
<g id="a_edge14_Node000006_Node000013"><a xlink:title=" ">
<path fill="none" stroke="#63b8ff" d="M271.91,-164.98C287.55,-156.61 311.66,-143.7 329.88,-133.95"/>
<polygon fill="#63b8ff" stroke="#63b8ff" points="331.64,-136.98 338.8,-129.17 328.34,-130.8 331.64,-136.98"/>
</a>
</g>
</g>
<!-- Node7&#45;&gt;Node3 -->
<g id="edge8_Node000007_Node000003" class="edge">
<title>Node7&#45;&gt;Node3</title>
<g id="a_edge8_Node000007_Node000003"><a xlink:title=" ">
<path fill="none" stroke="#63b8ff" d="M158.35,-110.96C217.9,-101.68 319.28,-85.88 385.44,-75.56"/>
<polygon fill="#63b8ff" stroke="#63b8ff" points="386,-79.02 395.34,-74.02 384.92,-72.1 386,-79.02"/>
</a>
</g>
</g>
<!-- Node8 -->
<g id="Node000008" class="node">
<title>Node8</title>
<g id="a_Node000008"><a xlink:title=" ">
<polygon fill="#e0e0e0" stroke="#999999" points="102,-74 46,-74 46,-55 102,-55 102,-74"/>
<text text-anchor="middle" x="74" y="-62" font-family="Helvetica,sans-Serif" font-size="10.00">stddef.h</text>
</a>
</g>
</g>
<!-- Node7&#45;&gt;Node8 -->
<g id="edge9_Node000007_Node000008" class="edge">
<title>Node7&#45;&gt;Node8</title>
<g id="a_edge9_Node000007_Node000008"><a xlink:title=" ">
<path fill="none" stroke="#63b8ff" d="M104.06,-109.75C99.02,-102.34 91.66,-91.5 85.49,-82.41"/>
<polygon fill="#63b8ff" stroke="#63b8ff" points="88.35,-80.39 79.83,-74.09 82.56,-84.33 88.35,-80.39"/>
</a>
</g>
</g>
<!-- Node9 -->
<g id="Node000009" class="node">
<title>Node9</title>
<g id="a_Node000009"><a xlink:title=" ">
<polygon fill="#e0e0e0" stroke="#999999" points="173.5,-74 120.5,-74 120.5,-55 173.5,-55 173.5,-74"/>
<text text-anchor="middle" x="147" y="-62" font-family="Helvetica,sans-Serif" font-size="10.00">stdint.h</text>
</a>
</g>
</g>
<!-- Node7&#45;&gt;Node9 -->
<g id="edge10_Node000007_Node000009" class="edge">
<title>Node7&#45;&gt;Node9</title>
<g id="a_edge10_Node000007_Node000009"><a xlink:title=" ">
<path fill="none" stroke="#63b8ff" d="M116.11,-109.75C121.28,-102.34 128.85,-91.5 135.19,-82.41"/>
<polygon fill="#63b8ff" stroke="#63b8ff" points="138.15,-84.29 141,-74.09 132.41,-80.29 138.15,-84.29"/>
</a>
</g>
</g>
</g>
</svg>
