<?xml version="1.0" encoding="UTF-8" standalone="no"?>
<!DOCTYPE svg PUBLIC "-//W3C//DTD SVG 1.1//EN"
 "http://www.w3.org/Graphics/SVG/1.1/DTD/svg11.dtd">
<!-- Generated by graphviz version 2.43.0 (0)
 -->
<!-- Title: /home/runner/work/realm/realm/realm&#45;src/src/realm/logging.h Pages: 1 -->
<svg width="1964pt" height="588pt"
 viewBox="0.00 0.00 1964.43 588.00" xmlns="http://www.w3.org/2000/svg" xmlns:xlink="http://www.w3.org/1999/xlink">
<g id="graph0" class="graph" transform="scale(1 1) rotate(0) translate(4 584)">
<title>/home/runner/work/realm/realm/realm&#45;src/src/realm/logging.h</title>
<!-- Node1 -->
<g id="Node000001" class="node">
<title>Node1</title>
<g id="a_Node000001"><a xlink:title=" ">
<polygon fill="#999999" stroke="#666666" points="819.43,-580 673.43,-580 673.43,-539 819.43,-539 819.43,-580"/>
<text text-anchor="start" x="681.43" y="-568" font-family="Helvetica,sans-Serif" font-size="10.00">/home/runner/work/realm</text>
<text text-anchor="start" x="681.43" y="-557" font-family="Helvetica,sans-Serif" font-size="10.00">/realm/realm&#45;src/src/realm</text>
<text text-anchor="middle" x="746.43" y="-546" font-family="Helvetica,sans-Serif" font-size="10.00">/logging.h</text>
</a>
</g>
</g>
<!-- Node2 -->
<g id="Node000002" class="node">
<title>Node2</title>
<g id="a_Node000002"><a xlink:href="event__impl_8h.html" target="_top" xlink:title=" ">
<polygon fill="white" stroke="#666666" points="731.43,-503 585.43,-503 585.43,-462 731.43,-462 731.43,-503"/>
<text text-anchor="start" x="593.43" y="-491" font-family="Helvetica,sans-Serif" font-size="10.00">/home/runner/work/realm</text>
<text text-anchor="start" x="593.43" y="-480" font-family="Helvetica,sans-Serif" font-size="10.00">/realm/realm&#45;src/src/realm</text>
<text text-anchor="middle" x="658.43" y="-469" font-family="Helvetica,sans-Serif" font-size="10.00">/event_impl.h</text>
</a>
</g>
</g>
<!-- Node1&#45;&gt;Node2 -->
<g id="edge1_Node000001_Node000002" class="edge">
<title>Node1&#45;&gt;Node2</title>
<g id="a_edge1_Node000001_Node000002"><a xlink:title=" ">
<path fill="none" stroke="#63b8ff" d="M715.41,-532.07C704.21,-522.52 691.78,-511.93 681.39,-503.07"/>
<polygon fill="#63b8ff" stroke="#63b8ff" points="713.42,-534.97 723.31,-538.79 717.96,-529.64 713.42,-534.97"/>
</a>
</g>
</g>
<!-- Node32 -->
<g id="Node000032" class="node">
<title>Node32</title>
<g id="a_Node000032"><a xlink:href="openmp__threadpool_8h.html" target="_top" xlink:title=" ">
<polygon fill="white" stroke="#666666" points="918.93,-503 749.93,-503 749.93,-462 918.93,-462 918.93,-503"/>
<text text-anchor="start" x="757.93" y="-491" font-family="Helvetica,sans-Serif" font-size="10.00">/home/runner/work/realm</text>
<text text-anchor="start" x="757.93" y="-480" font-family="Helvetica,sans-Serif" font-size="10.00">/realm/realm&#45;src/src/realm</text>
<text text-anchor="middle" x="834.43" y="-469" font-family="Helvetica,sans-Serif" font-size="10.00">/openmp/openmp_threadpool.h</text>
</a>
</g>
</g>
<!-- Node1&#45;&gt;Node32 -->
<g id="edge63_Node000001_Node000032" class="edge">
<title>Node1&#45;&gt;Node32</title>
<g id="a_edge63_Node000001_Node000032"><a xlink:title=" ">
<path fill="none" stroke="#63b8ff" d="M777.44,-532.07C788.64,-522.52 801.07,-511.93 811.46,-503.07"/>
<polygon fill="#63b8ff" stroke="#63b8ff" points="774.89,-529.64 769.55,-538.79 779.43,-534.97 774.89,-529.64"/>
</a>
</g>
</g>
<!-- Node3 -->
<g id="Node000003" class="node">
<title>Node3</title>
<g id="a_Node000003"><a xlink:href="barrier__impl_8h.html" target="_top" xlink:title=" ">
<polygon fill="white" stroke="#666666" points="908.43,-349 762.43,-349 762.43,-308 908.43,-308 908.43,-349"/>
<text text-anchor="start" x="770.43" y="-337" font-family="Helvetica,sans-Serif" font-size="10.00">/home/runner/work/realm</text>
<text text-anchor="start" x="770.43" y="-326" font-family="Helvetica,sans-Serif" font-size="10.00">/realm/realm&#45;src/src/realm</text>
<text text-anchor="middle" x="835.43" y="-315" font-family="Helvetica,sans-Serif" font-size="10.00">/barrier_impl.h</text>
</a>
</g>
</g>
<!-- Node2&#45;&gt;Node3 -->
<g id="edge2_Node000002_Node000003" class="edge">
<title>Node2&#45;&gt;Node3</title>
<g id="a_edge2_Node000002_Node000003"><a xlink:title=" ">
<path fill="none" stroke="#63b8ff" d="M723.78,-457.56C741.12,-449.27 759,-438.77 773.43,-426 798.03,-404.22 816.67,-370.43 826.82,-349.16"/>
<polygon fill="#63b8ff" stroke="#63b8ff" points="721.87,-454.59 714.24,-461.94 724.79,-460.95 721.87,-454.59"/>
</a>
</g>
</g>
<!-- Node4 -->
<g id="Node000004" class="node">
<title>Node4</title>
<g id="a_Node000004"><a xlink:href="runtime__impl_8h.html" target="_top" xlink:title=" ">
<polygon fill="white" stroke="#666666" points="908.43,-272 762.43,-272 762.43,-231 908.43,-231 908.43,-272"/>
<text text-anchor="start" x="770.43" y="-260" font-family="Helvetica,sans-Serif" font-size="10.00">/home/runner/work/realm</text>
<text text-anchor="start" x="770.43" y="-249" font-family="Helvetica,sans-Serif" font-size="10.00">/realm/realm&#45;src/src/realm</text>
<text text-anchor="middle" x="835.43" y="-238" font-family="Helvetica,sans-Serif" font-size="10.00">/runtime_impl.h</text>
</a>
</g>
</g>
<!-- Node2&#45;&gt;Node4 -->
<g id="edge60_Node000002_Node000004" class="edge">
<title>Node2&#45;&gt;Node4</title>
<g id="a_edge60_Node000002_Node000004"><a xlink:title=" ">
<path fill="none" stroke="#63b8ff" d="M710.11,-456.42C721.88,-448.32 733.07,-438.2 740.43,-426 767.68,-380.82 726.17,-353.18 753.43,-308 762.57,-292.84 777.63,-280.89 792.37,-272.03"/>
<polygon fill="#63b8ff" stroke="#63b8ff" points="708,-453.62 701.49,-461.97 711.79,-459.5 708,-453.62"/>
</a>
</g>
</g>
<!-- Node5 -->
<g id="Node000005" class="node">
<title>Node5</title>
<g id="a_Node000005"><a xlink:href="proc__impl_8h.html" target="_top" xlink:title=" ">
<polygon fill="white" stroke="#666666" points="1583.43,-195 1437.43,-195 1437.43,-154 1583.43,-154 1583.43,-195"/>
<text text-anchor="start" x="1445.43" y="-183" font-family="Helvetica,sans-Serif" font-size="10.00">/home/runner/work/realm</text>
<text text-anchor="start" x="1445.43" y="-172" font-family="Helvetica,sans-Serif" font-size="10.00">/realm/realm&#45;src/src/realm</text>
<text text-anchor="middle" x="1510.43" y="-161" font-family="Helvetica,sans-Serif" font-size="10.00">/proc_impl.h</text>
</a>
</g>
</g>
<!-- Node2&#45;&gt;Node5 -->
<g id="edge54_Node000002_Node000005" class="edge">
<title>Node2&#45;&gt;Node5</title>
<g id="a_edge54_Node000002_Node000005"><a xlink:title=" ">
<path fill="none" stroke="#63b8ff" d="M741.66,-462.09C898.68,-436.28 941.11,-444.8 1094.43,-426 1389.1,-389.86 1605.67,-534.46 1744.43,-272 1779.34,-205.96 1664.7,-185.07 1583.73,-178.49"/>
<polygon fill="#63b8ff" stroke="#63b8ff" points="740.93,-458.66 731.64,-463.76 742.08,-465.57 740.93,-458.66"/>
</a>
</g>
</g>
<!-- Node18 -->
<g id="Node000018" class="node">
<title>Node18</title>
<g id="a_Node000018"><a xlink:href="comp__queue__impl_8h.html" target="_top" xlink:title=" ">
<polygon fill="white" stroke="#666666" points="630.43,-349 484.43,-349 484.43,-308 630.43,-308 630.43,-349"/>
<text text-anchor="start" x="492.43" y="-337" font-family="Helvetica,sans-Serif" font-size="10.00">/home/runner/work/realm</text>
<text text-anchor="start" x="492.43" y="-326" font-family="Helvetica,sans-Serif" font-size="10.00">/realm/realm&#45;src/src/realm</text>
<text text-anchor="middle" x="557.43" y="-315" font-family="Helvetica,sans-Serif" font-size="10.00">/comp_queue_impl.h</text>
</a>
</g>
</g>
<!-- Node2&#45;&gt;Node18 -->
<g id="edge21_Node000002_Node000018" class="edge">
<title>Node2&#45;&gt;Node18</title>
<g id="a_edge21_Node000002_Node000018"><a xlink:title=" ">
<path fill="none" stroke="#63b8ff" d="M607.78,-456.22C595.88,-448.08 584.37,-437.99 576.43,-426 561.05,-402.8 557.56,-370.02 557.04,-349.27"/>
<polygon fill="#63b8ff" stroke="#63b8ff" points="606.17,-459.34 616.47,-461.8 609.95,-453.45 606.17,-459.34"/>
</a>
</g>
</g>
<!-- Node19 -->
<g id="Node000019" class="node">
<title>Node19</title>
<g id="a_Node000019"><a xlink:href="inst__impl_8h.html" target="_top" xlink:title=" ">
<polygon fill="white" stroke="#666666" points="246.43,-272 100.43,-272 100.43,-231 246.43,-231 246.43,-272"/>
<text text-anchor="start" x="108.43" y="-260" font-family="Helvetica,sans-Serif" font-size="10.00">/home/runner/work/realm</text>
<text text-anchor="start" x="108.43" y="-249" font-family="Helvetica,sans-Serif" font-size="10.00">/realm/realm&#45;src/src/realm</text>
<text text-anchor="middle" x="173.43" y="-238" font-family="Helvetica,sans-Serif" font-size="10.00">/inst_impl.h</text>
</a>
</g>
</g>
<!-- Node2&#45;&gt;Node19 -->
<g id="edge23_Node000002_Node000019" class="edge">
<title>Node2&#45;&gt;Node19</title>
<g id="a_edge23_Node000002_Node000019"><a xlink:title=" ">
<path fill="none" stroke="#63b8ff" d="M574.92,-474.21C512.22,-466.88 425.04,-452.68 352.43,-426 288.31,-402.44 265.75,-399.19 219.43,-349 198.78,-326.63 185.71,-293.32 178.98,-272.27"/>
<polygon fill="#63b8ff" stroke="#63b8ff" points="574.82,-477.72 585.16,-475.37 575.61,-470.77 574.82,-477.72"/>
</a>
</g>
</g>
<!-- Node20 -->
<g id="Node000020" class="node">
<title>Node20</title>
<g id="a_Node000020"><a xlink:href="mem__impl_8h.html" target="_top" xlink:title=" ">
<polygon fill="white" stroke="#666666" points="428.43,-349 282.43,-349 282.43,-308 428.43,-308 428.43,-349"/>
<text text-anchor="start" x="290.43" y="-337" font-family="Helvetica,sans-Serif" font-size="10.00">/home/runner/work/realm</text>
<text text-anchor="start" x="290.43" y="-326" font-family="Helvetica,sans-Serif" font-size="10.00">/realm/realm&#45;src/src/realm</text>
<text text-anchor="middle" x="355.43" y="-315" font-family="Helvetica,sans-Serif" font-size="10.00">/mem_impl.h</text>
</a>
</g>
</g>
<!-- Node2&#45;&gt;Node20 -->
<g id="edge26_Node000002_Node000020" class="edge">
<title>Node2&#45;&gt;Node20</title>
<g id="a_edge26_Node000002_Node000020"><a xlink:title=" ">
<path fill="none" stroke="#63b8ff" d="M575.19,-475.41C501.75,-468.27 402.18,-453.72 374.43,-426 354.25,-405.85 352.31,-370.92 353.4,-349.07"/>
<polygon fill="#63b8ff" stroke="#63b8ff" points="575.08,-478.91 585.37,-476.36 575.74,-471.94 575.08,-478.91"/>
</a>
</g>
</g>
<!-- Node23 -->
<g id="Node000023" class="node">
<title>Node23</title>
<g id="a_Node000023"><a xlink:href="operation_8h.html" target="_top" xlink:title=" ">
<polygon fill="white" stroke="#666666" points="1085.43,-426 939.43,-426 939.43,-385 1085.43,-385 1085.43,-426"/>
<text text-anchor="start" x="947.43" y="-414" font-family="Helvetica,sans-Serif" font-size="10.00">/home/runner/work/realm</text>
<text text-anchor="start" x="947.43" y="-403" font-family="Helvetica,sans-Serif" font-size="10.00">/realm/realm&#45;src/src/realm</text>
<text text-anchor="middle" x="1012.43" y="-392" font-family="Helvetica,sans-Serif" font-size="10.00">/operation.h</text>
</a>
</g>
</g>
<!-- Node2&#45;&gt;Node23 -->
<g id="edge38_Node000002_Node000023" class="edge">
<title>Node2&#45;&gt;Node23</title>
<g id="a_edge38_Node000002_Node000023"><a xlink:title=" ">
<path fill="none" stroke="#63b8ff" d="M741.59,-461.99C814.79,-445.98 887.01,-431.31 939.27,-420.89"/>
<polygon fill="#63b8ff" stroke="#63b8ff" points="740.74,-458.6 731.72,-464.16 742.24,-465.43 740.74,-458.6"/>
</a>
</g>
</g>
<!-- Node30 -->
<g id="Node000030" class="node">
<title>Node30</title>
<g id="a_Node000030"><a xlink:href="rsrv__impl_8h.html" target="_top" xlink:title=" ">
<polygon fill="white" stroke="#666666" points="529.43,-426 383.43,-426 383.43,-385 529.43,-385 529.43,-426"/>
<text text-anchor="start" x="391.43" y="-414" font-family="Helvetica,sans-Serif" font-size="10.00">/home/runner/work/realm</text>
<text text-anchor="start" x="391.43" y="-403" font-family="Helvetica,sans-Serif" font-size="10.00">/realm/realm&#45;src/src/realm</text>
<text text-anchor="middle" x="456.43" y="-392" font-family="Helvetica,sans-Serif" font-size="10.00">/rsrv_impl.h</text>
</a>
</g>
</g>
<!-- Node2&#45;&gt;Node30 -->
<g id="edge55_Node000002_Node000030" class="edge">
<title>Node2&#45;&gt;Node30</title>
<g id="a_edge55_Node000002_Node000030"><a xlink:title=" ">
<path fill="none" stroke="#63b8ff" d="M596.22,-458.4C568.31,-448.04 535.74,-435.95 509.06,-426.04"/>
<polygon fill="#63b8ff" stroke="#63b8ff" points="595.29,-461.79 605.88,-461.99 597.72,-455.23 595.29,-461.79"/>
</a>
</g>
</g>
<!-- Node31 -->
<g id="Node000031" class="node">
<title>Node31</title>
<g id="a_Node000031"><a xlink:href="subgraph__impl_8h.html" target="_top" xlink:title=" ">
<polygon fill="white" stroke="#666666" points="731.43,-426 585.43,-426 585.43,-385 731.43,-385 731.43,-426"/>
<text text-anchor="start" x="593.43" y="-414" font-family="Helvetica,sans-Serif" font-size="10.00">/home/runner/work/realm</text>
<text text-anchor="start" x="593.43" y="-403" font-family="Helvetica,sans-Serif" font-size="10.00">/realm/realm&#45;src/src/realm</text>
<text text-anchor="middle" x="658.43" y="-392" font-family="Helvetica,sans-Serif" font-size="10.00">/subgraph_impl.h</text>
</a>
</g>
</g>
<!-- Node2&#45;&gt;Node31 -->
<g id="edge61_Node000002_Node000031" class="edge">
<title>Node2&#45;&gt;Node31</title>
<g id="a_edge61_Node000002_Node000031"><a xlink:title=" ">
<path fill="none" stroke="#63b8ff" d="M658.43,-451.69C658.43,-443.08 658.43,-433.9 658.43,-426.07"/>
<polygon fill="#63b8ff" stroke="#63b8ff" points="654.93,-451.79 658.43,-461.79 661.93,-451.79 654.93,-451.79"/>
</a>
</g>
</g>
<!-- Node3&#45;&gt;Node4 -->
<g id="edge3_Node000003_Node000004" class="edge">
<title>Node3&#45;&gt;Node4</title>
<g id="a_edge3_Node000003_Node000004"><a xlink:title=" ">
<path fill="none" stroke="#63b8ff" d="M835.43,-297.69C835.43,-289.08 835.43,-279.9 835.43,-272.07"/>
<polygon fill="#63b8ff" stroke="#63b8ff" points="831.93,-297.79 835.43,-307.79 838.93,-297.79 831.93,-297.79"/>
</a>
</g>
</g>
<!-- Node4&#45;&gt;Node5 -->
<g id="edge4_Node000004_Node000005" class="edge">
<title>Node4&#45;&gt;Node5</title>
<g id="a_edge4_Node000004_Node000005"><a xlink:title=" ">
<path fill="none" stroke="#63b8ff" d="M918.48,-240.38C944.11,-237.31 972.43,-233.96 998.43,-231 1154.55,-213.2 1337.62,-193.68 1437.06,-183.19"/>
<polygon fill="#63b8ff" stroke="#63b8ff" points="917.94,-236.92 908.43,-241.59 918.78,-243.87 917.94,-236.92"/>
</a>
</g>
</g>
<!-- Node11 -->
<g id="Node000011" class="node">
<title>Node11</title>
<g id="a_Node000011"><a xlink:href="channel_8h.html" target="_top" xlink:title=" ">
<polygon fill="white" stroke="#666666" points="644.43,-195 498.43,-195 498.43,-154 644.43,-154 644.43,-195"/>
<text text-anchor="start" x="506.43" y="-183" font-family="Helvetica,sans-Serif" font-size="10.00">/home/runner/work/realm</text>
<text text-anchor="start" x="506.43" y="-172" font-family="Helvetica,sans-Serif" font-size="10.00">/realm/realm&#45;src/src/realm</text>
<text text-anchor="middle" x="571.43" y="-161" font-family="Helvetica,sans-Serif" font-size="10.00">/transfer/channel.h</text>
</a>
</g>
</g>
<!-- Node4&#45;&gt;Node11 -->
<g id="edge10_Node000004_Node000011" class="edge">
<title>Node4&#45;&gt;Node11</title>
<g id="a_edge10_Node000004_Node000011"><a xlink:title=" ">
<path fill="none" stroke="#63b8ff" d="M756.98,-228.21C719.89,-217.68 675.99,-205.21 640.21,-195.04"/>
<polygon fill="#63b8ff" stroke="#63b8ff" points="756.18,-231.62 766.75,-230.99 758.09,-224.89 756.18,-231.62"/>
</a>
</g>
</g>
<!-- Node15 -->
<g id="Node000015" class="node">
<title>Node15</title>
<g id="a_Node000015"><a xlink:href="lowlevel__dma_8h.html" target="_top" xlink:title=" ">
<polygon fill="white" stroke="#666666" points="172.43,-118 26.43,-118 26.43,-77 172.43,-77 172.43,-118"/>
<text text-anchor="start" x="34.43" y="-106" font-family="Helvetica,sans-Serif" font-size="10.00">/home/runner/work/realm</text>
<text text-anchor="start" x="34.43" y="-95" font-family="Helvetica,sans-Serif" font-size="10.00">/realm/realm&#45;src/src/realm</text>
<text text-anchor="middle" x="99.43" y="-84" font-family="Helvetica,sans-Serif" font-size="10.00">/transfer/lowlevel_dma.h</text>
</a>
</g>
</g>
<!-- Node4&#45;&gt;Node15 -->
<g id="edge20_Node000004_Node000015" class="edge">
<title>Node4&#45;&gt;Node15</title>
<g id="a_edge20_Node000004_Node000015"><a xlink:title=" ">
<path fill="none" stroke="#63b8ff" d="M751.92,-236.9C739.68,-234.91 727.23,-232.9 715.43,-231 615.01,-214.84 579.14,-242.93 489.43,-195 467.51,-183.29 473.49,-165.43 451.43,-154 343.93,-98.32 300.47,-140.03 181.43,-118 178.55,-117.47 175.62,-116.9 172.67,-116.3"/>
<polygon fill="#63b8ff" stroke="#63b8ff" points="751.7,-240.41 762.14,-238.55 752.83,-233.5 751.7,-240.41"/>
</a>
</g>
</g>
<!-- Node6 -->
<g id="Node000006" class="node">
<title>Node6</title>
<g id="a_Node000006"><a xlink:href="cuda__internal_8h.html" target="_top" xlink:title=" ">
<polygon fill="white" stroke="#666666" points="1214.43,-118 1068.43,-118 1068.43,-77 1214.43,-77 1214.43,-118"/>
<text text-anchor="start" x="1076.43" y="-106" font-family="Helvetica,sans-Serif" font-size="10.00">/home/runner/work/realm</text>
<text text-anchor="start" x="1076.43" y="-95" font-family="Helvetica,sans-Serif" font-size="10.00">/realm/realm&#45;src/src/realm</text>
<text text-anchor="middle" x="1141.43" y="-84" font-family="Helvetica,sans-Serif" font-size="10.00">/cuda/cuda_internal.h</text>
</a>
</g>
</g>
<!-- Node5&#45;&gt;Node6 -->
<g id="edge5_Node000005_Node000006" class="edge">
<title>Node5&#45;&gt;Node6</title>
<g id="a_edge5_Node000005_Node000006"><a xlink:title=" ">
<path fill="none" stroke="#63b8ff" d="M1427.04,-156.55C1363.14,-143.56 1275.84,-125.82 1214.63,-113.38"/>
<polygon fill="#63b8ff" stroke="#63b8ff" points="1426.59,-160.03 1437.08,-158.59 1427.98,-153.17 1426.59,-160.03"/>
</a>
</g>
</g>
<!-- Node7 -->
<g id="Node000007" class="node">
<title>Node7</title>
<g id="a_Node000007"><a xlink:href="hip__internal_8h.html" target="_top" xlink:title=" ">
<polygon fill="white" stroke="#666666" points="1050.43,-118 904.43,-118 904.43,-77 1050.43,-77 1050.43,-118"/>
<text text-anchor="start" x="912.43" y="-106" font-family="Helvetica,sans-Serif" font-size="10.00">/home/runner/work/realm</text>
<text text-anchor="start" x="912.43" y="-95" font-family="Helvetica,sans-Serif" font-size="10.00">/realm/realm&#45;src/src/realm</text>
<text text-anchor="middle" x="977.43" y="-84" font-family="Helvetica,sans-Serif" font-size="10.00">/hip/hip_internal.h</text>
</a>
</g>
</g>
<!-- Node5&#45;&gt;Node7 -->
<g id="edge6_Node000005_Node000007" class="edge">
<title>Node5&#45;&gt;Node7</title>
<g id="a_edge6_Node000005_Node000007"><a xlink:title=" ">
<path fill="none" stroke="#63b8ff" d="M1427.45,-166.08C1336.66,-157.31 1187.02,-140.95 1059.43,-118 1056.55,-117.48 1053.61,-116.93 1050.66,-116.34"/>
<polygon fill="#63b8ff" stroke="#63b8ff" points="1427.12,-169.56 1437.41,-167.03 1427.79,-162.59 1427.12,-169.56"/>
</a>
</g>
</g>
<!-- Node8 -->
<g id="Node000008" class="node">
<title>Node8</title>
<g id="a_Node000008"><a xlink:href="kokkos__interop_8h.html" target="_top" xlink:title=" ">
<polygon fill="white" stroke="#666666" points="1501.43,-118 1355.43,-118 1355.43,-77 1501.43,-77 1501.43,-118"/>
<text text-anchor="start" x="1363.43" y="-106" font-family="Helvetica,sans-Serif" font-size="10.00">/home/runner/work/realm</text>
<text text-anchor="start" x="1363.43" y="-95" font-family="Helvetica,sans-Serif" font-size="10.00">/realm/realm&#45;src/src/realm</text>
<text text-anchor="middle" x="1428.43" y="-84" font-family="Helvetica,sans-Serif" font-size="10.00">/kokkos/kokkos_interop.h</text>
</a>
</g>
</g>
<!-- Node5&#45;&gt;Node8 -->
<g id="edge7_Node000005_Node000008" class="edge">
<title>Node5&#45;&gt;Node8</title>
<g id="a_edge7_Node000005_Node000008"><a xlink:title=" ">
<path fill="none" stroke="#63b8ff" d="M1481.22,-146.79C1470.87,-137.32 1459.41,-126.84 1449.83,-118.07"/>
<polygon fill="#63b8ff" stroke="#63b8ff" points="1479.14,-149.63 1488.88,-153.79 1483.86,-144.46 1479.14,-149.63"/>
</a>
</g>
</g>
<!-- Node9 -->
<g id="Node000009" class="node">
<title>Node9</title>
<g id="a_Node000009"><a xlink:href="openmp__internal_8h.html" target="_top" xlink:title=" ">
<polygon fill="white" stroke="#666666" points="1898.43,-118 1744.43,-118 1744.43,-77 1898.43,-77 1898.43,-118"/>
<text text-anchor="start" x="1752.43" y="-106" font-family="Helvetica,sans-Serif" font-size="10.00">/home/runner/work/realm</text>
<text text-anchor="start" x="1752.43" y="-95" font-family="Helvetica,sans-Serif" font-size="10.00">/realm/realm&#45;src/src/realm</text>
<text text-anchor="middle" x="1821.43" y="-84" font-family="Helvetica,sans-Serif" font-size="10.00">/openmp/openmp_internal.h</text>
</a>
</g>
</g>
<!-- Node5&#45;&gt;Node9 -->
<g id="edge8_Node000005_Node000009" class="edge">
<title>Node5&#45;&gt;Node9</title>
<g id="a_edge8_Node000005_Node000009"><a xlink:title=" ">
<path fill="none" stroke="#63b8ff" d="M1593.55,-153.45C1640.37,-142.16 1698.46,-128.15 1744.27,-117.11"/>
<polygon fill="#63b8ff" stroke="#63b8ff" points="1592.64,-150.07 1583.73,-155.82 1594.28,-156.88 1592.64,-150.07"/>
</a>
</g>
</g>
<!-- Node10 -->
<g id="Node000010" class="node">
<title>Node10</title>
<g id="a_Node000010"><a xlink:href="python__internal_8h.html" target="_top" xlink:title=" ">
<polygon fill="white" stroke="#666666" points="1665.43,-118 1519.43,-118 1519.43,-77 1665.43,-77 1665.43,-118"/>
<text text-anchor="start" x="1527.43" y="-106" font-family="Helvetica,sans-Serif" font-size="10.00">/home/runner/work/realm</text>
<text text-anchor="start" x="1527.43" y="-95" font-family="Helvetica,sans-Serif" font-size="10.00">/realm/realm&#45;src/src/realm</text>
<text text-anchor="middle" x="1592.43" y="-84" font-family="Helvetica,sans-Serif" font-size="10.00">/python/python_internal.h</text>
</a>
</g>
</g>
<!-- Node5&#45;&gt;Node10 -->
<g id="edge9_Node000005_Node000010" class="edge">
<title>Node5&#45;&gt;Node10</title>
<g id="a_edge9_Node000005_Node000010"><a xlink:title=" ">
<path fill="none" stroke="#63b8ff" d="M1539.63,-146.79C1549.98,-137.32 1561.44,-126.84 1571.03,-118.07"/>
<polygon fill="#63b8ff" stroke="#63b8ff" points="1536.99,-144.46 1531.97,-153.79 1541.71,-149.63 1536.99,-144.46"/>
</a>
</g>
</g>
<!-- Node11&#45;&gt;Node6 -->
<g id="edge11_Node000011_Node000006" class="edge">
<title>Node11&#45;&gt;Node6</title>
<g id="a_edge11_Node000011_Node000006"><a xlink:title=" ">
<path fill="none" stroke="#63b8ff" d="M654.66,-167.1C752.15,-158.9 918.28,-142.72 1059.43,-118 1062.31,-117.5 1065.24,-116.95 1068.2,-116.37"/>
<polygon fill="#63b8ff" stroke="#63b8ff" points="654.25,-163.62 644.57,-167.94 654.83,-170.6 654.25,-163.62"/>
</a>
</g>
</g>
<!-- Node11&#45;&gt;Node7 -->
<g id="edge13_Node000011_Node000007" class="edge">
<title>Node11&#45;&gt;Node7</title>
<g id="a_edge13_Node000011_Node000007"><a xlink:title=" ">
<path fill="none" stroke="#63b8ff" d="M654.55,-154.74C655.85,-154.49 657.14,-154.24 658.43,-154 763.14,-134.34 790.84,-138.34 895.43,-118 898.3,-117.44 901.22,-116.85 904.17,-116.24"/>
<polygon fill="#63b8ff" stroke="#63b8ff" points="653.58,-151.36 644.45,-156.74 654.94,-158.23 653.58,-151.36"/>
</a>
</g>
</g>
<!-- Node12 -->
<g id="Node000012" class="node">
<title>Node12</title>
<g id="a_Node000012"><a xlink:href="hdf5__internal_8h.html" target="_top" xlink:title=" ">
<polygon fill="white" stroke="#666666" points="172.43,-41 26.43,-41 26.43,0 172.43,0 172.43,-41"/>
<text text-anchor="start" x="34.43" y="-29" font-family="Helvetica,sans-Serif" font-size="10.00">/home/runner/work/realm</text>
<text text-anchor="start" x="34.43" y="-18" font-family="Helvetica,sans-Serif" font-size="10.00">/realm/realm&#45;src/src/realm</text>
<text text-anchor="middle" x="99.43" y="-7" font-family="Helvetica,sans-Serif" font-size="10.00">/hdf5/hdf5_internal.h</text>
</a>
</g>
</g>
<!-- Node11&#45;&gt;Node12 -->
<g id="edge12_Node000011_Node000012" class="edge">
<title>Node11&#45;&gt;Node12</title>
<g id="a_edge12_Node000011_Node000012"><a xlink:title=" ">
<path fill="none" stroke="#63b8ff" d="M563.63,-144.35C556.1,-122.17 542.38,-92.84 519.43,-77 464.71,-39.25 277.89,-27.14 172.78,-23.28"/>
<polygon fill="#63b8ff" stroke="#63b8ff" points="560.31,-145.49 566.66,-153.97 566.99,-143.38 560.31,-145.49"/>
</a>
</g>
</g>
<!-- Node13 -->
<g id="Node000013" class="node">
<title>Node13</title>
<g id="a_Node000013"><a xlink:href="addrsplit__channel_8h.html" target="_top" xlink:title=" ">
<polygon fill="white" stroke="#666666" points="722.43,-118 566.43,-118 566.43,-77 722.43,-77 722.43,-118"/>
<text text-anchor="start" x="574.43" y="-106" font-family="Helvetica,sans-Serif" font-size="10.00">/home/runner/work/realm</text>
<text text-anchor="start" x="574.43" y="-95" font-family="Helvetica,sans-Serif" font-size="10.00">/realm/realm&#45;src/src/realm</text>
<text text-anchor="middle" x="644.43" y="-84" font-family="Helvetica,sans-Serif" font-size="10.00">/transfer/addrsplit_channel.h</text>
</a>
</g>
</g>
<!-- Node11&#45;&gt;Node13 -->
<g id="edge14_Node000011_Node000013" class="edge">
<title>Node11&#45;&gt;Node13</title>
<g id="a_edge14_Node000011_Node000013"><a xlink:title=" ">
<path fill="none" stroke="#63b8ff" d="M597.69,-146.51C606.84,-137.11 616.92,-126.76 625.37,-118.07"/>
<polygon fill="#63b8ff" stroke="#63b8ff" points="595.07,-144.19 590.61,-153.79 600.09,-149.07 595.07,-144.19"/>
</a>
</g>
</g>
<!-- Node14 -->
<g id="Node000014" class="node">
<title>Node14</title>
<g id="a_Node000014"><a xlink:href="channel__disk_8h.html" target="_top" xlink:title=" ">
<polygon fill="white" stroke="#666666" points="510.43,-118 364.43,-118 364.43,-77 510.43,-77 510.43,-118"/>
<text text-anchor="start" x="372.43" y="-106" font-family="Helvetica,sans-Serif" font-size="10.00">/home/runner/work/realm</text>
<text text-anchor="start" x="372.43" y="-95" font-family="Helvetica,sans-Serif" font-size="10.00">/realm/realm&#45;src/src/realm</text>
<text text-anchor="middle" x="437.43" y="-84" font-family="Helvetica,sans-Serif" font-size="10.00">/transfer/channel_disk.h</text>
</a>
</g>
</g>
<!-- Node11&#45;&gt;Node14 -->
<g id="edge15_Node000011_Node000014" class="edge">
<title>Node11&#45;&gt;Node14</title>
<g id="a_edge15_Node000011_Node000014"><a xlink:title=" ">
<path fill="none" stroke="#63b8ff" d="M527.51,-148.92C509.69,-138.95 489.39,-127.58 472.57,-118.17"/>
<polygon fill="#63b8ff" stroke="#63b8ff" points="526.13,-152.16 536.57,-153.99 529.55,-146.05 526.13,-152.16"/>
</a>
</g>
</g>
<!-- Node11&#45;&gt;Node15 -->
<g id="edge16_Node000011_Node000015" class="edge">
<title>Node11&#45;&gt;Node15</title>
<g id="a_edge16_Node000011_Node000015"><a xlink:title=" ">
<path fill="none" stroke="#63b8ff" d="M487.76,-154.58C486.65,-154.38 485.53,-154.19 484.43,-154 350.75,-131.14 314.95,-141.73 181.43,-118 178.54,-117.49 175.61,-116.94 172.66,-116.36"/>
<polygon fill="#63b8ff" stroke="#63b8ff" points="487.49,-158.09 497.96,-156.48 488.77,-151.21 487.49,-158.09"/>
</a>
</g>
</g>
<!-- Node16 -->
<g id="Node000016" class="node">
<title>Node16</title>
<g id="a_Node000016"><a xlink:href="memcpy__channel_8h.html" target="_top" xlink:title=" ">
<polygon fill="white" stroke="#666666" points="346.43,-118 190.43,-118 190.43,-77 346.43,-77 346.43,-118"/>
<text text-anchor="start" x="198.43" y="-106" font-family="Helvetica,sans-Serif" font-size="10.00">/home/runner/work/realm</text>
<text text-anchor="start" x="198.43" y="-95" font-family="Helvetica,sans-Serif" font-size="10.00">/realm/realm&#45;src/src/realm</text>
<text text-anchor="middle" x="268.43" y="-84" font-family="Helvetica,sans-Serif" font-size="10.00">/transfer/memcpy_channel.h</text>
</a>
</g>
</g>
<!-- Node11&#45;&gt;Node16 -->
<g id="edge18_Node000011_Node000016" class="edge">
<title>Node11&#45;&gt;Node16</title>
<g id="a_edge18_Node000011_Node000016"><a xlink:title=" ">
<path fill="none" stroke="#63b8ff" d="M488.23,-152.91C444.05,-141.97 390.07,-128.61 346.66,-117.87"/>
<polygon fill="#63b8ff" stroke="#63b8ff" points="487.53,-156.34 498.08,-155.34 489.21,-149.54 487.53,-156.34"/>
</a>
</g>
</g>
<!-- Node17 -->
<g id="Node000017" class="node">
<title>Node17</title>
<g id="a_Node000017"><a xlink:href="transfer_8h.html" target="_top" xlink:title=" ">
<polygon fill="white" stroke="#666666" points="886.43,-118 740.43,-118 740.43,-77 886.43,-77 886.43,-118"/>
<text text-anchor="start" x="748.43" y="-106" font-family="Helvetica,sans-Serif" font-size="10.00">/home/runner/work/realm</text>
<text text-anchor="start" x="748.43" y="-95" font-family="Helvetica,sans-Serif" font-size="10.00">/realm/realm&#45;src/src/realm</text>
<text text-anchor="middle" x="813.43" y="-84" font-family="Helvetica,sans-Serif" font-size="10.00">/transfer/transfer.h</text>
</a>
</g>
</g>
<!-- Node11&#45;&gt;Node17 -->
<g id="edge19_Node000011_Node000017" class="edge">
<title>Node11&#45;&gt;Node17</title>
<g id="a_edge19_Node000011_Node000017"><a xlink:title=" ">
<path fill="none" stroke="#63b8ff" d="M644.2,-150.94C678.02,-140.46 717.85,-128.12 750.37,-118.04"/>
<polygon fill="#63b8ff" stroke="#63b8ff" points="642.89,-147.69 634.38,-153.99 644.96,-154.37 642.89,-147.69"/>
</a>
</g>
</g>
<!-- Node15&#45;&gt;Node12 -->
<g id="edge17_Node000015_Node000012" class="edge">
<title>Node15&#45;&gt;Node12</title>
<g id="a_edge17_Node000015_Node000012"><a xlink:title=" ">
<path fill="none" stroke="#63b8ff" d="M99.43,-66.69C99.43,-58.08 99.43,-48.9 99.43,-41.07"/>
<polygon fill="#63b8ff" stroke="#63b8ff" points="95.93,-66.79 99.43,-76.79 102.93,-66.79 95.93,-66.79"/>
</a>
</g>
</g>
<!-- Node18&#45;&gt;Node4 -->
<g id="edge22_Node000018_Node000004" class="edge">
<title>Node18&#45;&gt;Node4</title>
<g id="a_edge22_Node000018_Node000004"><a xlink:title=" ">
<path fill="none" stroke="#63b8ff" d="M639.53,-305.35C678.7,-294.78 725.15,-282.25 762.99,-272.04"/>
<polygon fill="#63b8ff" stroke="#63b8ff" points="638.48,-302.01 629.74,-307.99 640.31,-308.76 638.48,-302.01"/>
</a>
</g>
</g>
<!-- Node19&#45;&gt;Node11 -->
<g id="edge24_Node000019_Node000011" class="edge">
<title>Node19&#45;&gt;Node11</title>
<g id="a_edge24_Node000019_Node000011"><a xlink:title=" ">
<path fill="none" stroke="#63b8ff" d="M256.76,-234.8C328.2,-221.33 430.1,-202.13 498.39,-189.26"/>
<polygon fill="#63b8ff" stroke="#63b8ff" points="256.07,-231.37 246.89,-236.66 257.36,-238.24 256.07,-231.37"/>
</a>
</g>
</g>
<!-- Node19&#45;&gt;Node15 -->
<g id="edge25_Node000019_Node000015" class="edge">
<title>Node19&#45;&gt;Node15</title>
<g id="a_edge25_Node000019_Node000015"><a xlink:title=" ">
<path fill="none" stroke="#63b8ff" d="M159.44,-221.76C144.74,-191.57 122,-144.87 109.15,-118.47"/>
<polygon fill="#63b8ff" stroke="#63b8ff" points="156.38,-223.48 163.9,-230.94 162.67,-220.42 156.38,-223.48"/>
</a>
</g>
</g>
<!-- Node20&#45;&gt;Node6 -->
<g id="edge27_Node000020_Node000006" class="edge">
<title>Node20&#45;&gt;Node6</title>
<g id="a_edge27_Node000020_Node000006"><a xlink:title=" ">
<path fill="none" stroke="#63b8ff" d="M438.27,-310.49C443.06,-309.62 447.8,-308.78 452.43,-308 568.76,-288.36 610.76,-326.45 715.43,-272 737.47,-260.53 732.23,-243.96 753.43,-231 803.85,-200.17 825.23,-213.3 881.43,-195 955.82,-170.78 1040.53,-138.42 1092.48,-118.02"/>
<polygon fill="#63b8ff" stroke="#63b8ff" points="437.62,-307.05 428.43,-312.32 438.9,-313.93 437.62,-307.05"/>
</a>
</g>
</g>
<!-- Node20&#45;&gt;Node7 -->
<g id="edge29_Node000020_Node000007" class="edge">
<title>Node20&#45;&gt;Node7</title>
<g id="a_edge29_Node000020_Node000007"><a xlink:title=" ">
<path fill="none" stroke="#63b8ff" d="M409.93,-303.81C431.17,-294.29 455.61,-282.98 477.43,-272 511.01,-255.09 517.13,-246.42 551.43,-231 595.27,-211.28 608.31,-211.6 653.43,-195 701.22,-177.41 711.9,-169.45 760.43,-154 787.06,-145.52 852.2,-129.07 904.21,-116.26"/>
<polygon fill="#63b8ff" stroke="#63b8ff" points="408.44,-300.64 400.73,-307.91 411.29,-307.04 408.44,-300.64"/>
</a>
</g>
</g>
<!-- Node20&#45;&gt;Node11 -->
<g id="edge31_Node000020_Node000011" class="edge">
<title>Node20&#45;&gt;Node11</title>
<g id="a_edge31_Node000020_Node000011"><a xlink:title=" ">
<path fill="none" stroke="#63b8ff" d="M391.65,-302.01C434.4,-271.93 504.57,-222.55 543.39,-195.23"/>
<polygon fill="#63b8ff" stroke="#63b8ff" points="389.39,-299.32 383.22,-307.94 393.41,-305.05 389.39,-299.32"/>
</a>
</g>
</g>
<!-- Node20&#45;&gt;Node12 -->
<g id="edge28_Node000020_Node000012" class="edge">
<title>Node20&#45;&gt;Node12</title>
<g id="a_edge28_Node000020_Node000012"><a xlink:title=" ">
<path fill="none" stroke="#63b8ff" d="M272.35,-318.12C205.83,-309.16 119.21,-293.79 91.43,-272 18.48,-214.8 -26.03,-158.88 17.43,-77 25.57,-61.66 40.05,-49.79 54.6,-41.03"/>
<polygon fill="#63b8ff" stroke="#63b8ff" points="272.05,-321.61 282.42,-319.45 272.97,-314.67 272.05,-321.61"/>
</a>
</g>
</g>
<!-- Node20&#45;&gt;Node16 -->
<g id="edge36_Node000020_Node000016" class="edge">
<title>Node20&#45;&gt;Node16</title>
<g id="a_edge36_Node000020_Node000016"><a xlink:title=" ">
<path fill="none" stroke="#63b8ff" d="M337.82,-299C322.4,-272.85 300.48,-232.58 287.43,-195 278.46,-169.19 273.28,-137.95 270.66,-118.15"/>
<polygon fill="#63b8ff" stroke="#63b8ff" points="334.85,-300.84 342.98,-307.63 340.86,-297.25 334.85,-300.84"/>
</a>
</g>
</g>
<!-- Node20&#45;&gt;Node19 -->
<g id="edge30_Node000020_Node000019" class="edge">
<title>Node20&#45;&gt;Node19</title>
<g id="a_edge30_Node000020_Node000019"><a xlink:title=" ">
<path fill="none" stroke="#63b8ff" d="M298.72,-304.13C273.72,-293.83 244.67,-281.86 220.85,-272.04"/>
<polygon fill="#63b8ff" stroke="#63b8ff" points="297.5,-307.42 308.08,-307.99 300.17,-300.94 297.5,-307.42"/>
</a>
</g>
</g>
<!-- Node21 -->
<g id="Node000021" class="node">
<title>Node21</title>
<g id="a_Node000021"><a xlink:href="ib__memory_8h.html" target="_top" xlink:title=" ">
<polygon fill="white" stroke="#666666" points="706.43,-272 560.43,-272 560.43,-231 706.43,-231 706.43,-272"/>
<text text-anchor="start" x="568.43" y="-260" font-family="Helvetica,sans-Serif" font-size="10.00">/home/runner/work/realm</text>
<text text-anchor="start" x="568.43" y="-249" font-family="Helvetica,sans-Serif" font-size="10.00">/realm/realm&#45;src/src/realm</text>
<text text-anchor="middle" x="633.43" y="-238" font-family="Helvetica,sans-Serif" font-size="10.00">/transfer/ib_memory.h</text>
</a>
</g>
</g>
<!-- Node20&#45;&gt;Node21 -->
<g id="edge32_Node000020_Node000021" class="edge">
<title>Node20&#45;&gt;Node21</title>
<g id="a_edge32_Node000020_Node000021"><a xlink:title=" ">
<path fill="none" stroke="#63b8ff" d="M437.53,-305.35C476.7,-294.78 523.15,-282.25 560.99,-272.04"/>
<polygon fill="#63b8ff" stroke="#63b8ff" points="436.48,-302.01 427.74,-307.99 438.31,-308.76 436.48,-302.01"/>
</a>
</g>
</g>
<!-- Node22 -->
<g id="Node000022" class="node">
<title>Node22</title>
<g id="a_Node000022"><a xlink:href="ucp__internal_8h.html" target="_top" xlink:title=" ">
<polygon fill="white" stroke="#666666" points="442.43,-195 296.43,-195 296.43,-154 442.43,-154 442.43,-195"/>
<text text-anchor="start" x="304.43" y="-183" font-family="Helvetica,sans-Serif" font-size="10.00">/home/runner/work/realm</text>
<text text-anchor="start" x="304.43" y="-172" font-family="Helvetica,sans-Serif" font-size="10.00">/realm/realm&#45;src/src/realm</text>
<text text-anchor="middle" x="369.43" y="-161" font-family="Helvetica,sans-Serif" font-size="10.00">/ucx/ucp_internal.h</text>
</a>
</g>
</g>
<!-- Node20&#45;&gt;Node22 -->
<g id="edge37_Node000020_Node000022" class="edge">
<title>Node20&#45;&gt;Node22</title>
<g id="a_edge37_Node000020_Node000022"><a xlink:title=" ">
<path fill="none" stroke="#63b8ff" d="M358.15,-297.98C360.93,-267.76 365.18,-221.64 367.59,-195.47"/>
<polygon fill="#63b8ff" stroke="#63b8ff" points="354.66,-297.66 357.23,-307.94 361.63,-298.3 354.66,-297.66"/>
</a>
</g>
</g>
<!-- Node21&#45;&gt;Node6 -->
<g id="edge33_Node000021_Node000006" class="edge">
<title>Node21&#45;&gt;Node6</title>
<g id="a_edge33_Node000021_Node000006"><a xlink:title=" ">
<path fill="none" stroke="#63b8ff" d="M714.61,-228.08C747.13,-218.59 784.79,-206.98 818.43,-195 863.29,-179.03 872.19,-168.88 917.43,-154 931.94,-149.23 1008.65,-130.45 1068.3,-116.04"/>
<polygon fill="#63b8ff" stroke="#63b8ff" points="713.32,-224.8 704.69,-230.95 715.27,-231.53 713.32,-224.8"/>
</a>
</g>
</g>
<!-- Node21&#45;&gt;Node7 -->
<g id="edge34_Node000021_Node000007" class="edge">
<title>Node21&#45;&gt;Node7</title>
<g id="a_edge34_Node000021_Node000007"><a xlink:title=" ">
<path fill="none" stroke="#63b8ff" d="M686.92,-226.86C754.62,-196.95 870,-145.97 933.06,-118.11"/>
<polygon fill="#63b8ff" stroke="#63b8ff" points="685.43,-223.7 677.69,-230.94 688.26,-230.1 685.43,-223.7"/>
</a>
</g>
</g>
<!-- Node21&#45;&gt;Node22 -->
<g id="edge35_Node000021_Node000022" class="edge">
<title>Node21&#45;&gt;Node22</title>
<g id="a_edge35_Node000021_Node000022"><a xlink:title=" ">
<path fill="none" stroke="#63b8ff" d="M554.98,-228.21C517.89,-217.68 473.99,-205.21 438.21,-195.04"/>
<polygon fill="#63b8ff" stroke="#63b8ff" points="554.18,-231.62 564.75,-230.99 556.09,-224.89 554.18,-231.62"/>
</a>
</g>
</g>
<!-- Node23&#45;&gt;Node4 -->
<g id="edge49_Node000023_Node000004" class="edge">
<title>Node23&#45;&gt;Node4</title>
<g id="a_edge49_Node000023_Node000004"><a xlink:title=" ">
<path fill="none" stroke="#63b8ff" d="M986.76,-377.25C963.76,-353.04 931.53,-319.74 917.43,-308 901.84,-295.02 883.19,-282.22 867.63,-272.18"/>
<polygon fill="#63b8ff" stroke="#63b8ff" points="984.45,-379.9 993.87,-384.75 989.53,-375.08 984.45,-379.9"/>
</a>
</g>
</g>
<!-- Node23&#45;&gt;Node5 -->
<g id="edge48_Node000023_Node000005" class="edge">
<title>Node23&#45;&gt;Node5</title>
<g id="a_edge48_Node000023_Node000005"><a xlink:title=" ">
<path fill="none" stroke="#63b8ff" d="M1095.71,-401.85C1266.32,-394.48 1646.2,-367.49 1725.43,-272 1769.51,-218.87 1662.05,-193.85 1583.69,-182.97"/>
<polygon fill="#63b8ff" stroke="#63b8ff" points="1095.36,-398.36 1085.52,-402.28 1095.66,-405.36 1095.36,-398.36"/>
</a>
</g>
</g>
<!-- Node23&#45;&gt;Node6 -->
<g id="edge39_Node000023_Node000006" class="edge">
<title>Node23&#45;&gt;Node6</title>
<g id="a_edge39_Node000023_Node000006"><a xlink:title=" ">
<path fill="none" stroke="#63b8ff" d="M1020.42,-374.78C1030.24,-339.74 1048.24,-280.07 1069.43,-231 1087.38,-189.42 1113.95,-143.53 1129.29,-118.14"/>
<polygon fill="#63b8ff" stroke="#63b8ff" points="1016.93,-374.25 1017.64,-384.82 1023.68,-376.12 1016.93,-374.25"/>
</a>
</g>
</g>
<!-- Node23&#45;&gt;Node7 -->
<g id="edge46_Node000023_Node000007" class="edge">
<title>Node23&#45;&gt;Node7</title>
<g id="a_edge46_Node000023_Node000007"><a xlink:title=" ">
<path fill="none" stroke="#63b8ff" d="M1009.01,-374.59C1001.89,-312.41 985.68,-170.62 979.7,-118.34"/>
<polygon fill="#63b8ff" stroke="#63b8ff" points="1005.57,-375.36 1010.18,-384.89 1012.52,-374.56 1005.57,-375.36"/>
</a>
</g>
</g>
<!-- Node23&#45;&gt;Node17 -->
<g id="edge53_Node000023_Node000017" class="edge">
<title>Node23&#45;&gt;Node17</title>
<g id="a_edge53_Node000023_Node000017"><a xlink:title=" ">
<path fill="none" stroke="#63b8ff" d="M998.5,-375.71C981.09,-340.59 949.67,-279.87 917.43,-231 889.73,-189.02 852.3,-143.64 830.72,-118.37"/>
<polygon fill="#63b8ff" stroke="#63b8ff" points="995.47,-377.47 1003.02,-384.9 1001.75,-374.38 995.47,-377.47"/>
</a>
</g>
</g>
<!-- Node23&#45;&gt;Node20 -->
<g id="edge47_Node000023_Node000020" class="edge">
<title>Node23&#45;&gt;Node20</title>
<g id="a_edge47_Node000023_Node000020"><a xlink:title=" ">
<path fill="none" stroke="#63b8ff" d="M929.34,-397.42C823.66,-388.07 635.64,-370.28 475.43,-349 460.26,-346.99 444.06,-344.55 428.62,-342.09"/>
<polygon fill="#63b8ff" stroke="#63b8ff" points="929.04,-400.91 939.31,-398.3 929.65,-393.94 929.04,-400.91"/>
</a>
</g>
</g>
<!-- Node24 -->
<g id="Node000024" class="node">
<title>Node24</title>
<g id="a_Node000024"><a xlink:href="partitions_8h.html" target="_top" xlink:title=" ">
<polygon fill="white" stroke="#666666" points="1306.43,-349 1160.43,-349 1160.43,-308 1306.43,-308 1306.43,-349"/>
<text text-anchor="start" x="1168.43" y="-337" font-family="Helvetica,sans-Serif" font-size="10.00">/home/runner/work/realm</text>
<text text-anchor="start" x="1168.43" y="-326" font-family="Helvetica,sans-Serif" font-size="10.00">/realm/realm&#45;src/src/realm</text>
<text text-anchor="middle" x="1233.43" y="-315" font-family="Helvetica,sans-Serif" font-size="10.00">/deppart/partitions.h</text>
</a>
</g>
</g>
<!-- Node23&#45;&gt;Node24 -->
<g id="edge40_Node000023_Node000024" class="edge">
<title>Node23&#45;&gt;Node24</title>
<g id="a_edge40_Node000023_Node000024"><a xlink:title=" ">
<path fill="none" stroke="#63b8ff" d="M1079.68,-381.67C1110.4,-371.25 1146.4,-359.03 1175.84,-349.04"/>
<polygon fill="#63b8ff" stroke="#63b8ff" points="1078.26,-378.46 1069.91,-384.99 1080.51,-385.09 1078.26,-378.46"/>
</a>
</g>
</g>
<!-- Node29 -->
<g id="Node000029" class="node">
<title>Node29</title>
<g id="a_Node000029"><a xlink:href="tasks_8h.html" target="_top" xlink:title=" ">
<polygon fill="white" stroke="#666666" points="1956.43,-272 1810.43,-272 1810.43,-231 1956.43,-231 1956.43,-272"/>
<text text-anchor="start" x="1818.43" y="-260" font-family="Helvetica,sans-Serif" font-size="10.00">/home/runner/work/realm</text>
<text text-anchor="start" x="1818.43" y="-249" font-family="Helvetica,sans-Serif" font-size="10.00">/realm/realm&#45;src/src/realm</text>
<text text-anchor="middle" x="1883.43" y="-238" font-family="Helvetica,sans-Serif" font-size="10.00">/tasks.h</text>
</a>
</g>
</g>
<!-- Node23&#45;&gt;Node29 -->
<g id="edge50_Node000023_Node000029" class="edge">
<title>Node23&#45;&gt;Node29</title>
<g id="a_edge50_Node000023_Node000029"><a xlink:title=" ">
<path fill="none" stroke="#63b8ff" d="M1095.94,-402.68C1257.32,-398.39 1606.19,-385.14 1720.43,-349 1773.73,-332.14 1828.12,-295.12 1858.65,-272.15"/>
<polygon fill="#63b8ff" stroke="#63b8ff" points="1095.49,-399.19 1085.58,-402.95 1095.67,-406.19 1095.49,-399.19"/>
</a>
</g>
</g>
<!-- Node24&#45;&gt;Node4 -->
<g id="edge45_Node000024_Node000004" class="edge">
<title>Node24&#45;&gt;Node4</title>
<g id="a_edge45_Node000024_Node000004"><a xlink:title=" ">
<path fill="none" stroke="#63b8ff" d="M1150.09,-311.8C1078.65,-298.33 976.75,-279.13 908.46,-266.26"/>
<polygon fill="#63b8ff" stroke="#63b8ff" points="1149.49,-315.24 1159.96,-313.66 1150.78,-308.37 1149.49,-315.24"/>
</a>
</g>
</g>
<!-- Node25 -->
<g id="Node000025" class="node">
<title>Node25</title>
<g id="a_Node000025"><a xlink:href="byfield_8h.html" target="_top" xlink:title=" ">
<polygon fill="white" stroke="#666666" points="1224.43,-272 1078.43,-272 1078.43,-231 1224.43,-231 1224.43,-272"/>
<text text-anchor="start" x="1086.43" y="-260" font-family="Helvetica,sans-Serif" font-size="10.00">/home/runner/work/realm</text>
<text text-anchor="start" x="1086.43" y="-249" font-family="Helvetica,sans-Serif" font-size="10.00">/realm/realm&#45;src/src/realm</text>
<text text-anchor="middle" x="1151.43" y="-238" font-family="Helvetica,sans-Serif" font-size="10.00">/deppart/byfield.h</text>
</a>
</g>
</g>
<!-- Node24&#45;&gt;Node25 -->
<g id="edge41_Node000024_Node000025" class="edge">
<title>Node24&#45;&gt;Node25</title>
<g id="a_edge41_Node000024_Node000025"><a xlink:title=" ">
<path fill="none" stroke="#63b8ff" d="M1204.22,-300.79C1193.87,-291.32 1182.41,-280.84 1172.83,-272.07"/>
<polygon fill="#63b8ff" stroke="#63b8ff" points="1202.14,-303.63 1211.88,-307.79 1206.86,-298.46 1202.14,-303.63"/>
</a>
</g>
</g>
<!-- Node26 -->
<g id="Node000026" class="node">
<title>Node26</title>
<g id="a_Node000026"><a xlink:href="image_8h.html" target="_top" xlink:title=" ">
<polygon fill="white" stroke="#666666" points="1388.43,-272 1242.43,-272 1242.43,-231 1388.43,-231 1388.43,-272"/>
<text text-anchor="start" x="1250.43" y="-260" font-family="Helvetica,sans-Serif" font-size="10.00">/home/runner/work/realm</text>
<text text-anchor="start" x="1250.43" y="-249" font-family="Helvetica,sans-Serif" font-size="10.00">/realm/realm&#45;src/src/realm</text>
<text text-anchor="middle" x="1315.43" y="-238" font-family="Helvetica,sans-Serif" font-size="10.00">/deppart/image.h</text>
</a>
</g>
</g>
<!-- Node24&#45;&gt;Node26 -->
<g id="edge42_Node000024_Node000026" class="edge">
<title>Node24&#45;&gt;Node26</title>
<g id="a_edge42_Node000024_Node000026"><a xlink:title=" ">
<path fill="none" stroke="#63b8ff" d="M1262.63,-300.79C1272.98,-291.32 1284.44,-280.84 1294.03,-272.07"/>
<polygon fill="#63b8ff" stroke="#63b8ff" points="1259.99,-298.46 1254.97,-307.79 1264.71,-303.63 1259.99,-298.46"/>
</a>
</g>
</g>
<!-- Node27 -->
<g id="Node000027" class="node">
<title>Node27</title>
<g id="a_Node000027"><a xlink:href="preimage_8h.html" target="_top" xlink:title=" ">
<polygon fill="white" stroke="#666666" points="1552.43,-272 1406.43,-272 1406.43,-231 1552.43,-231 1552.43,-272"/>
<text text-anchor="start" x="1414.43" y="-260" font-family="Helvetica,sans-Serif" font-size="10.00">/home/runner/work/realm</text>
<text text-anchor="start" x="1414.43" y="-249" font-family="Helvetica,sans-Serif" font-size="10.00">/realm/realm&#45;src/src/realm</text>
<text text-anchor="middle" x="1479.43" y="-238" font-family="Helvetica,sans-Serif" font-size="10.00">/deppart/preimage.h</text>
</a>
</g>
</g>
<!-- Node24&#45;&gt;Node27 -->
<g id="edge43_Node000024_Node000027" class="edge">
<title>Node24&#45;&gt;Node27</title>
<g id="a_edge43_Node000024_Node000027"><a xlink:title=" ">
<path fill="none" stroke="#63b8ff" d="M1307.41,-304.94C1341.79,-294.46 1382.27,-282.12 1415.33,-272.04"/>
<polygon fill="#63b8ff" stroke="#63b8ff" points="1305.96,-301.73 1297.42,-307.99 1308,-308.42 1305.96,-301.73"/>
</a>
</g>
</g>
<!-- Node28 -->
<g id="Node000028" class="node">
<title>Node28</title>
<g id="a_Node000028"><a xlink:href="setops_8h.html" target="_top" xlink:title=" ">
<polygon fill="white" stroke="#666666" points="1716.43,-272 1570.43,-272 1570.43,-231 1716.43,-231 1716.43,-272"/>
<text text-anchor="start" x="1578.43" y="-260" font-family="Helvetica,sans-Serif" font-size="10.00">/home/runner/work/realm</text>
<text text-anchor="start" x="1578.43" y="-249" font-family="Helvetica,sans-Serif" font-size="10.00">/realm/realm&#45;src/src/realm</text>
<text text-anchor="middle" x="1643.43" y="-238" font-family="Helvetica,sans-Serif" font-size="10.00">/deppart/setops.h</text>
</a>
</g>
</g>
<!-- Node24&#45;&gt;Node28 -->
<g id="edge44_Node000024_Node000028" class="edge">
<title>Node24&#45;&gt;Node28</title>
<g id="a_edge44_Node000024_Node000028"><a xlink:title=" ">
<path fill="none" stroke="#63b8ff" d="M1316.64,-314.97C1383.11,-304.59 1478.52,-288.85 1561.43,-272 1564.29,-271.42 1567.21,-270.81 1570.16,-270.18"/>
<polygon fill="#63b8ff" stroke="#63b8ff" points="1315.98,-311.53 1306.63,-316.53 1317.05,-318.45 1315.98,-311.53"/>
</a>
</g>
</g>
<!-- Node29&#45;&gt;Node5 -->
<g id="edge52_Node000029_Node000005" class="edge">
<title>Node29&#45;&gt;Node5</title>
<g id="a_edge52_Node000029_Node000005"><a xlink:title=" ">
<path fill="none" stroke="#63b8ff" d="M1800.29,-231.81C1798.99,-231.54 1797.7,-231.27 1796.43,-231 1724.27,-215.92 1641.57,-200.02 1583.72,-189.12"/>
<polygon fill="#63b8ff" stroke="#63b8ff" points="1799.85,-235.3 1810.36,-233.96 1801.31,-228.45 1799.85,-235.3"/>
</a>
</g>
</g>
<!-- Node29&#45;&gt;Node9 -->
<g id="edge51_Node000029_Node000009" class="edge">
<title>Node29&#45;&gt;Node9</title>
<g id="a_edge51_Node000029_Node000009"><a xlink:title=" ">
<path fill="none" stroke="#63b8ff" d="M1871.54,-221.37C1859.22,-191.16 1840.29,-144.76 1829.57,-118.47"/>
<polygon fill="#63b8ff" stroke="#63b8ff" points="1868.43,-223 1875.45,-230.94 1874.91,-220.36 1868.43,-223"/>
</a>
</g>
</g>
<!-- Node30&#45;&gt;Node4 -->
<g id="edge59_Node000030_Node000004" class="edge">
<title>Node30&#45;&gt;Node4</title>
<g id="a_edge59_Node000030_Node000004"><a xlink:title=" ">
<path fill="none" stroke="#63b8ff" d="M453.86,-374.69C453.75,-353.07 457.56,-324.77 475.43,-308 520.04,-266.12 688.18,-282.7 748.43,-272 753,-271.19 757.69,-270.3 762.42,-269.36"/>
<polygon fill="#63b8ff" stroke="#63b8ff" points="450.36,-374.81 454.18,-384.7 457.36,-374.59 450.36,-374.81"/>
</a>
</g>
</g>
<!-- Node30&#45;&gt;Node5 -->
<g id="edge58_Node000030_Node000005" class="edge">
<title>Node30&#45;&gt;Node5</title>
<g id="a_edge58_Node000030_Node000005"><a xlink:title=" ">
<path fill="none" stroke="#63b8ff" d="M533.99,-381.93C566.66,-372.17 605.01,-360.4 639.43,-349 690.54,-332.07 701.69,-322.91 753.43,-308 825.13,-287.33 844.94,-289.72 917.43,-272 985.39,-255.38 1000.77,-244.51 1069.43,-231 1197.76,-205.74 1349.48,-189.6 1437.36,-181.58"/>
<polygon fill="#63b8ff" stroke="#63b8ff" points="532.63,-378.68 524.04,-384.89 534.62,-385.39 532.63,-378.68"/>
</a>
</g>
</g>
<!-- Node30&#45;&gt;Node19 -->
<g id="edge56_Node000030_Node000019" class="edge">
<title>Node30&#45;&gt;Node19</title>
<g id="a_edge56_Node000030_Node000019"><a xlink:title=" ">
<path fill="none" stroke="#63b8ff" d="M373.27,-388.14C340.7,-379.52 303.91,-366.9 273.43,-349 238.89,-328.72 207.1,-294.16 189.01,-272.37"/>
<polygon fill="#63b8ff" stroke="#63b8ff" points="372.67,-391.6 383.23,-390.69 374.41,-384.82 372.67,-391.6"/>
</a>
</g>
</g>
<!-- Node30&#45;&gt;Node20 -->
<g id="edge57_Node000030_Node000020" class="edge">
<title>Node30&#45;&gt;Node20</title>
<g id="a_edge57_Node000030_Node000020"><a xlink:title=" ">
<path fill="none" stroke="#63b8ff" d="M421.84,-378.82C408.77,-369.11 394.13,-358.24 381.92,-349.17"/>
<polygon fill="#63b8ff" stroke="#63b8ff" points="420.04,-381.84 430.15,-384.99 424.21,-376.22 420.04,-381.84"/>
</a>
</g>
</g>
<!-- Node31&#45;&gt;Node4 -->
<g id="edge62_Node000031_Node000004" class="edge">
<title>Node31&#45;&gt;Node4</title>
<g id="a_edge62_Node000031_Node000004"><a xlink:title=" ">
<path fill="none" stroke="#63b8ff" d="M658.74,-374.59C660.5,-353.58 666.12,-326.11 682.43,-308 693.87,-295.3 728.67,-282.21 762.2,-271.93"/>
<polygon fill="#63b8ff" stroke="#63b8ff" points="655.24,-374.42 658.14,-384.61 662.23,-374.84 655.24,-374.42"/>
</a>
</g>
</g>
</g>
</svg>
