<?xml version="1.0" encoding="UTF-8" standalone="no"?>
<!DOCTYPE svg PUBLIC "-//W3C//DTD SVG 1.1//EN"
 "http://www.w3.org/Graphics/SVG/1.1/DTD/svg11.dtd">
<!-- Generated by graphviz version 2.43.0 (0)
 -->
<!-- Title: /home/runner/work/realm/realm/realm&#45;src/src/realm/machine_impl.h Pages: 1 -->
<svg width="1870pt" height="434pt"
 viewBox="0.00 0.00 1869.50 434.00" xmlns="http://www.w3.org/2000/svg" xmlns:xlink="http://www.w3.org/1999/xlink">
<g id="graph0" class="graph" transform="scale(1 1) rotate(0) translate(4 430)">
<title>/home/runner/work/realm/realm/realm&#45;src/src/realm/machine_impl.h</title>
<!-- Node1 -->
<g id="Node000001" class="node">
<title>Node1</title>
<g id="a_Node000001"><a xlink:title=" ">
<polygon fill="#999999" stroke="#666666" points="864.5,-426 718.5,-426 718.5,-385 864.5,-385 864.5,-426"/>
<text text-anchor="start" x="726.5" y="-414" font-family="Helvetica,sans-Serif" font-size="10.00">/home/runner/work/realm</text>
<text text-anchor="start" x="726.5" y="-403" font-family="Helvetica,sans-Serif" font-size="10.00">/realm/realm&#45;src/src/realm</text>
<text text-anchor="middle" x="791.5" y="-392" font-family="Helvetica,sans-Serif" font-size="10.00">/machine_impl.h</text>
</a>
</g>
</g>
<!-- Node2 -->
<g id="Node000002" class="node">
<title>Node2</title>
<g id="a_Node000002"><a xlink:href="machine_8h.html" target="_top" xlink:title=" ">
<polygon fill="white" stroke="#666666" points="453,-349 354,-349 354,-330 453,-330 453,-349"/>
<text text-anchor="middle" x="403.5" y="-337" font-family="Helvetica,sans-Serif" font-size="10.00">realm/machine.h</text>
</a>
</g>
</g>
<!-- Node1&#45;&gt;Node2 -->
<g id="edge1_Node000001_Node000002" class="edge">
<title>Node1&#45;&gt;Node2</title>
<g id="a_edge1_Node000001_Node000002"><a xlink:title=" ">
<path fill="none" stroke="#63b8ff" d="M718.06,-392.39C644.3,-380.22 532,-361.7 463.43,-350.39"/>
<polygon fill="#63b8ff" stroke="#63b8ff" points="463.67,-346.88 453.23,-348.7 462.53,-353.78 463.67,-346.88"/>
</a>
</g>
</g>
<!-- Node14 -->
<g id="Node000014" class="node">
<title>Node14</title>
<g id="a_Node000014"><a xlink:title=" ">
<polygon fill="#e0e0e0" stroke="#999999" points="446,-129 399,-129 399,-110 446,-110 446,-129"/>
<text text-anchor="middle" x="422.5" y="-117" font-family="Helvetica,sans-Serif" font-size="10.00">vector</text>
</a>
</g>
</g>
<!-- Node1&#45;&gt;Node14 -->
<g id="edge71_Node000001_Node000014" class="edge">
<title>Node1&#45;&gt;Node14</title>
<g id="a_edge71_Node000001_Node000014"><a xlink:title=" ">
<path fill="none" stroke="#63b8ff" d="M774,-384.73C733.94,-340.44 630.94,-231.89 526.5,-165 504.37,-150.83 476.96,-139.31 455.84,-131.55"/>
<polygon fill="#63b8ff" stroke="#63b8ff" points="456.92,-128.22 446.32,-128.15 454.56,-134.81 456.92,-128.22"/>
</a>
</g>
</g>
<!-- Node22 -->
<g id="Node000022" class="node">
<title>Node22</title>
<g id="a_Node000022"><a xlink:title=" ">
<polygon fill="#e0e0e0" stroke="#999999" points="501.5,-184 469.5,-184 469.5,-165 501.5,-165 501.5,-184"/>
<text text-anchor="middle" x="485.5" y="-172" font-family="Helvetica,sans-Serif" font-size="10.00">set</text>
</a>
</g>
</g>
<!-- Node1&#45;&gt;Node22 -->
<g id="edge72_Node000001_Node000022" class="edge">
<title>Node1&#45;&gt;Node22</title>
<g id="a_edge72_Node000001_Node000022"><a xlink:title=" ">
<path fill="none" stroke="#63b8ff" d="M731.52,-384.92C708.02,-375.83 681.49,-363.75 659.5,-349 590.24,-302.52 525.27,-225.83 498.45,-192.19"/>
<polygon fill="#63b8ff" stroke="#63b8ff" points="501.13,-189.94 492.19,-184.26 495.63,-194.28 501.13,-189.94"/>
</a>
</g>
</g>
<!-- Node27 -->
<g id="Node000027" class="node">
<title>Node27</title>
<g id="a_Node000027"><a xlink:href="network_8h.html" target="_top" xlink:title=" ">
<polygon fill="white" stroke="#666666" points="997,-349 900,-349 900,-330 997,-330 997,-349"/>
<text text-anchor="middle" x="948.5" y="-337" font-family="Helvetica,sans-Serif" font-size="10.00">realm/network.h</text>
</a>
</g>
</g>
<!-- Node1&#45;&gt;Node27 -->
<g id="edge35_Node000001_Node000027" class="edge">
<title>Node1&#45;&gt;Node27</title>
<g id="a_edge35_Node000001_Node000027"><a xlink:title=" ">
<path fill="none" stroke="#63b8ff" d="M839.46,-384.95C865.07,-374.51 895.81,-361.98 918.12,-352.88"/>
<polygon fill="#63b8ff" stroke="#63b8ff" points="919.48,-356.11 927.42,-349.09 916.84,-349.63 919.48,-356.11"/>
</a>
</g>
</g>
<!-- Node33 -->
<g id="Node000033" class="node">
<title>Node33</title>
<g id="a_Node000033"><a xlink:href="mutex_8h.html" target="_top" xlink:title=" ">
<polygon fill="white" stroke="#666666" points="1518,-239 1429,-239 1429,-220 1518,-220 1518,-239"/>
<text text-anchor="middle" x="1473.5" y="-227" font-family="Helvetica,sans-Serif" font-size="10.00">realm/mutex.h</text>
</a>
</g>
</g>
<!-- Node1&#45;&gt;Node33 -->
<g id="edge69_Node000001_Node000033" class="edge">
<title>Node1&#45;&gt;Node33</title>
<g id="a_edge69_Node000001_Node000033"><a xlink:title=" ">
<path fill="none" stroke="#63b8ff" d="M864.81,-385.8C1007.07,-349.5 1316.59,-270.53 1430.39,-241.5"/>
<polygon fill="#63b8ff" stroke="#63b8ff" points="1431.33,-244.87 1440.15,-239.01 1429.6,-238.09 1431.33,-244.87"/>
</a>
</g>
</g>
<!-- Node34 -->
<g id="Node000034" class="node">
<title>Node34</title>
<g id="a_Node000034"><a xlink:href="atomics_8h.html" target="_top" xlink:title=" ">
<polygon fill="white" stroke="#666666" points="1749.5,-184 1653.5,-184 1653.5,-165 1749.5,-165 1749.5,-184"/>
<text text-anchor="middle" x="1701.5" y="-172" font-family="Helvetica,sans-Serif" font-size="10.00">realm/atomics.h</text>
</a>
</g>
</g>
<!-- Node1&#45;&gt;Node34 -->
<g id="edge70_Node000001_Node000034" class="edge">
<title>Node1&#45;&gt;Node34</title>
<g id="a_edge70_Node000001_Node000034"><a xlink:title=" ">
<path fill="none" stroke="#63b8ff" d="M864.72,-404.54C1017.94,-401.69 1379.64,-379.29 1639.5,-239 1660.38,-227.73 1678.58,-207.03 1689.77,-192.33"/>
<polygon fill="#63b8ff" stroke="#63b8ff" points="1692.71,-194.23 1695.78,-184.09 1687.06,-190.1 1692.71,-194.23"/>
</a>
</g>
</g>
<!-- Node3 -->
<g id="Node000003" class="node">
<title>Node3</title>
<g id="a_Node000003"><a xlink:href="processor_8h.html" target="_top" xlink:title=" ">
<polygon fill="white" stroke="#666666" points="455.5,-294 351.5,-294 351.5,-275 455.5,-275 455.5,-294"/>
<text text-anchor="middle" x="403.5" y="-282" font-family="Helvetica,sans-Serif" font-size="10.00">realm/processor.h</text>
</a>
</g>
</g>
<!-- Node2&#45;&gt;Node3 -->
<g id="edge2_Node000002_Node000003" class="edge">
<title>Node2&#45;&gt;Node3</title>
<g id="a_edge2_Node000002_Node000003"><a xlink:title=" ">
<path fill="none" stroke="#63b8ff" d="M403.5,-329.75C403.5,-322.8 403.5,-312.85 403.5,-304.13"/>
<polygon fill="#63b8ff" stroke="#63b8ff" points="407,-304.09 403.5,-294.09 400,-304.09 407,-304.09"/>
</a>
</g>
</g>
<!-- Node20 -->
<g id="Node000020" class="node">
<title>Node20</title>
<g id="a_Node000020"><a xlink:href="memory_8h.html" target="_top" xlink:title=" ">
<polygon fill="white" stroke="#666666" points="189,-184 92,-184 92,-165 189,-165 189,-184"/>
<text text-anchor="middle" x="140.5" y="-172" font-family="Helvetica,sans-Serif" font-size="10.00">realm/memory.h</text>
</a>
</g>
</g>
<!-- Node2&#45;&gt;Node20 -->
<g id="edge32_Node000002_Node000020" class="edge">
<title>Node2&#45;&gt;Node20</title>
<g id="a_edge32_Node000002_Node000020"><a xlink:title=" ">
<path fill="none" stroke="#63b8ff" d="M353.94,-336.22C290.04,-332.19 183.97,-321.46 157.5,-294 131.74,-267.28 133.65,-220.18 137.16,-194.13"/>
<polygon fill="#63b8ff" stroke="#63b8ff" points="140.64,-194.51 138.73,-184.08 133.72,-193.42 140.64,-194.51"/>
</a>
</g>
</g>
<!-- Node25 -->
<g id="Node000025" class="node">
<title>Node25</title>
<g id="a_Node000025"><a xlink:title=" ">
<polygon fill="#e0e0e0" stroke="#999999" points="882,-239 829,-239 829,-220 882,-220 882,-239"/>
<text text-anchor="middle" x="855.5" y="-227" font-family="Helvetica,sans-Serif" font-size="10.00">iterator</text>
</a>
</g>
</g>
<!-- Node2&#45;&gt;Node25 -->
<g id="edge33_Node000002_Node000025" class="edge">
<title>Node2&#45;&gt;Node25</title>
<g id="a_edge33_Node000002_Node000025"><a xlink:title=" ">
<path fill="none" stroke="#63b8ff" d="M439.35,-329.94C523.63,-309.8 733.69,-259.61 818.81,-239.27"/>
<polygon fill="#63b8ff" stroke="#63b8ff" points="819.88,-242.61 828.79,-236.88 818.25,-235.8 819.88,-242.61"/>
</a>
</g>
</g>
<!-- Node26 -->
<g id="Node000026" class="node">
<title>Node26</title>
<g id="a_Node000026"><a xlink:title=" ">
<polygon fill="#e0e0e0" stroke="#999999" points="105,-294 0,-294 0,-275 105,-275 105,-294"/>
<text text-anchor="middle" x="52.5" y="-282" font-family="Helvetica,sans-Serif" font-size="10.00">realm/machine.inl</text>
</a>
</g>
</g>
<!-- Node2&#45;&gt;Node26 -->
<g id="edge34_Node000002_Node000026" class="edge">
<title>Node2&#45;&gt;Node26</title>
<g id="a_edge34_Node000002_Node000026"><a xlink:title=" ">
<path fill="none" stroke="#63b8ff" d="M353.95,-331.02C291.4,-321.57 183.73,-305.32 115.43,-295"/>
<polygon fill="#63b8ff" stroke="#63b8ff" points="115.64,-291.49 105.23,-293.46 114.6,-298.42 115.64,-291.49"/>
</a>
</g>
</g>
<!-- Node4 -->
<g id="Node000004" class="node">
<title>Node4</title>
<g id="a_Node000004"><a xlink:href="realm__c_8h.html" target="_top" xlink:title=" ">
<polygon fill="white" stroke="#666666" points="342.5,-129 246.5,-129 246.5,-110 342.5,-110 342.5,-129"/>
<text text-anchor="middle" x="294.5" y="-117" font-family="Helvetica,sans-Serif" font-size="10.00">realm/realm_c.h</text>
</a>
</g>
</g>
<!-- Node3&#45;&gt;Node4 -->
<g id="edge3_Node000003_Node000004" class="edge">
<title>Node3&#45;&gt;Node4</title>
<g id="a_edge3_Node000003_Node000004"><a xlink:title=" ">
<path fill="none" stroke="#63b8ff" d="M409.69,-274.65C417.61,-262.16 429.39,-238.81 421.5,-220 403.73,-177.63 356.59,-148.71 325.01,-133.39"/>
<polygon fill="#63b8ff" stroke="#63b8ff" points="326.31,-130.13 315.76,-129.08 323.35,-136.48 326.31,-130.13"/>
</a>
</g>
</g>
<!-- Node10 -->
<g id="Node000010" class="node">
<title>Node10</title>
<g id="a_Node000010"><a xlink:href="event_8h.html" target="_top" xlink:title=" ">
<polygon fill="white" stroke="#666666" points="413,-239 328,-239 328,-220 413,-220 413,-239"/>
<text text-anchor="middle" x="370.5" y="-227" font-family="Helvetica,sans-Serif" font-size="10.00">realm/event.h</text>
</a>
</g>
</g>
<!-- Node3&#45;&gt;Node10 -->
<g id="edge9_Node000003_Node000010" class="edge">
<title>Node3&#45;&gt;Node10</title>
<g id="a_edge9_Node000003_Node000010"><a xlink:title=" ">
<path fill="none" stroke="#63b8ff" d="M398.05,-274.75C393.49,-267.42 386.83,-256.73 381.21,-247.7"/>
<polygon fill="#63b8ff" stroke="#63b8ff" points="384.1,-245.73 375.85,-239.09 378.16,-249.43 384.1,-245.73"/>
</a>
</g>
</g>
<!-- Node3&#45;&gt;Node14 -->
<g id="edge29_Node000003_Node000014" class="edge">
<title>Node3&#45;&gt;Node14</title>
<g id="a_edge29_Node000003_Node000014"><a xlink:title=" ">
<path fill="none" stroke="#63b8ff" d="M419.48,-274.79C444.66,-260.01 492.54,-227.36 510.5,-184 513.73,-176.2 514.92,-172.19 510.5,-165 504.13,-154.65 477.76,-142.09 455.53,-132.96"/>
<polygon fill="#63b8ff" stroke="#63b8ff" points="456.59,-129.61 446.01,-129.15 453.99,-136.11 456.59,-129.61"/>
</a>
</g>
</g>
<!-- Node15 -->
<g id="Node000015" class="node">
<title>Node15</title>
<g id="a_Node000015"><a xlink:title=" ">
<polygon fill="#e0e0e0" stroke="#999999" points="929.5,-129 891.5,-129 891.5,-110 929.5,-110 929.5,-129"/>
<text text-anchor="middle" x="910.5" y="-117" font-family="Helvetica,sans-Serif" font-size="10.00">map</text>
</a>
</g>
</g>
<!-- Node3&#45;&gt;Node15 -->
<g id="edge30_Node000003_Node000015" class="edge">
<title>Node3&#45;&gt;Node15</title>
<g id="a_edge30_Node000003_Node000015"><a xlink:title=" ">
<path fill="none" stroke="#63b8ff" d="M439.47,-274.97C504.09,-259.3 643.78,-223.87 758.5,-184 802.67,-168.65 852.43,-147 882.61,-133.36"/>
<polygon fill="#63b8ff" stroke="#63b8ff" points="884.41,-136.39 892.06,-129.07 881.51,-130.02 884.41,-136.39"/>
</a>
</g>
</g>
<!-- Node24 -->
<g id="Node000024" class="node">
<title>Node24</title>
<g id="a_Node000024"><a xlink:title=" ">
<polygon fill="#e0e0e0" stroke="#999999" points="309.5,-239 199.5,-239 199.5,-220 309.5,-220 309.5,-239"/>
<text text-anchor="middle" x="254.5" y="-227" font-family="Helvetica,sans-Serif" font-size="10.00">realm/processor.inl</text>
</a>
</g>
</g>
<!-- Node3&#45;&gt;Node24 -->
<g id="edge31_Node000003_Node000024" class="edge">
<title>Node3&#45;&gt;Node24</title>
<g id="a_edge31_Node000003_Node000024"><a xlink:title=" ">
<path fill="none" stroke="#63b8ff" d="M379.56,-274.98C354.94,-266.23 316.38,-252.51 288.58,-242.62"/>
<polygon fill="#63b8ff" stroke="#63b8ff" points="289.47,-239.22 278.88,-239.17 287.12,-245.82 289.47,-239.22"/>
</a>
</g>
</g>
<!-- Node5 -->
<g id="Node000005" class="node">
<title>Node5</title>
<g id="a_Node000005"><a xlink:href="realm__config_8h.html" target="_top" xlink:title=" ">
<polygon fill="white" stroke="#666666" points="1438.5,-74 1318.5,-74 1318.5,-55 1438.5,-55 1438.5,-74"/>
<text text-anchor="middle" x="1378.5" y="-62" font-family="Helvetica,sans-Serif" font-size="10.00">realm/realm_config.h</text>
</a>
</g>
</g>
<!-- Node4&#45;&gt;Node5 -->
<g id="edge4_Node000004_Node000005" class="edge">
<title>Node4&#45;&gt;Node5</title>
<g id="a_edge4_Node000004_Node000005"><a xlink:title=" ">
<path fill="none" stroke="#63b8ff" d="M342.8,-113.76C357.76,-112.41 374.3,-111.02 389.5,-110 733.5,-86.88 1145.64,-72.67 1307.92,-67.6"/>
<polygon fill="#63b8ff" stroke="#63b8ff" points="1308.36,-71.09 1318.24,-67.28 1308.14,-64.09 1308.36,-71.09"/>
</a>
</g>
</g>
<!-- Node8 -->
<g id="Node000008" class="node">
<title>Node8</title>
<g id="a_Node000008"><a xlink:title=" ">
<polygon fill="#e0e0e0" stroke="#999999" points="322.5,-74 266.5,-74 266.5,-55 322.5,-55 322.5,-74"/>
<text text-anchor="middle" x="294.5" y="-62" font-family="Helvetica,sans-Serif" font-size="10.00">stddef.h</text>
</a>
</g>
</g>
<!-- Node4&#45;&gt;Node8 -->
<g id="edge7_Node000004_Node000008" class="edge">
<title>Node4&#45;&gt;Node8</title>
<g id="a_edge7_Node000004_Node000008"><a xlink:title=" ">
<path fill="none" stroke="#63b8ff" d="M294.5,-109.75C294.5,-102.8 294.5,-92.85 294.5,-84.13"/>
<polygon fill="#63b8ff" stroke="#63b8ff" points="298,-84.09 294.5,-74.09 291,-84.09 298,-84.09"/>
</a>
</g>
</g>
<!-- Node9 -->
<g id="Node000009" class="node">
<title>Node9</title>
<g id="a_Node000009"><a xlink:title=" ">
<polygon fill="#e0e0e0" stroke="#999999" points="984,-74 931,-74 931,-55 984,-55 984,-74"/>
<text text-anchor="middle" x="957.5" y="-62" font-family="Helvetica,sans-Serif" font-size="10.00">stdint.h</text>
</a>
</g>
</g>
<!-- Node4&#45;&gt;Node9 -->
<g id="edge8_Node000004_Node000009" class="edge">
<title>Node4&#45;&gt;Node9</title>
<g id="a_edge8_Node000004_Node000009"><a xlink:title=" ">
<path fill="none" stroke="#63b8ff" d="M342.82,-114.07C357.78,-112.73 374.32,-111.27 389.5,-110 590.03,-93.17 830.56,-74.99 920.87,-68.23"/>
<polygon fill="#63b8ff" stroke="#63b8ff" points="921.16,-71.72 930.88,-67.48 920.64,-64.74 921.16,-71.72"/>
</a>
</g>
</g>
<!-- Node6 -->
<g id="Node000006" class="node">
<title>Node6</title>
<g id="a_Node000006"><a xlink:href="realm__defines_8h.html" target="_top" xlink:title=" ">
<polygon fill="white" stroke="#666666" points="1357,-19 1262,-19 1262,0 1357,0 1357,-19"/>
<text text-anchor="middle" x="1309.5" y="-7" font-family="Helvetica,sans-Serif" font-size="10.00">realm_defines.h</text>
</a>
</g>
</g>
<!-- Node5&#45;&gt;Node6 -->
<g id="edge5_Node000005_Node000006" class="edge">
<title>Node5&#45;&gt;Node6</title>
<g id="a_edge5_Node000005_Node000006"><a xlink:title=" ">
<path fill="none" stroke="#63b8ff" d="M1367.41,-54.98C1357.01,-47 1341.24,-34.88 1328.78,-25.31"/>
<polygon fill="#63b8ff" stroke="#63b8ff" points="1330.85,-22.49 1320.79,-19.17 1326.59,-28.04 1330.85,-22.49"/>
</a>
</g>
</g>
<!-- Node7 -->
<g id="Node000007" class="node">
<title>Node7</title>
<g id="a_Node000007"><a xlink:href="compiler__support_8h.html" target="_top" xlink:title=" ">
<polygon fill="white" stroke="#666666" points="1517.5,-19 1375.5,-19 1375.5,0 1517.5,0 1517.5,-19"/>
<text text-anchor="middle" x="1446.5" y="-7" font-family="Helvetica,sans-Serif" font-size="10.00">realm/compiler_support.h</text>
</a>
</g>
</g>
<!-- Node5&#45;&gt;Node7 -->
<g id="edge6_Node000005_Node000007" class="edge">
<title>Node5&#45;&gt;Node7</title>
<g id="a_edge6_Node000005_Node000007"><a xlink:title=" ">
<path fill="none" stroke="#63b8ff" d="M1389.43,-54.98C1399.58,-47.07 1414.92,-35.11 1427.15,-25.58"/>
<polygon fill="#63b8ff" stroke="#63b8ff" points="1429.64,-28.08 1435.38,-19.17 1425.34,-22.56 1429.64,-28.08"/>
</a>
</g>
</g>
<!-- Node10&#45;&gt;Node4 -->
<g id="edge10_Node000010_Node000004" class="edge">
<title>Node10&#45;&gt;Node4</title>
<g id="a_edge10_Node000010_Node000004"><a xlink:title=" ">
<path fill="none" stroke="#63b8ff" d="M368.45,-219.64C365.16,-206.74 357.79,-182.43 345.5,-165 337.35,-153.45 325.6,-142.92 315.43,-135.01"/>
<polygon fill="#63b8ff" stroke="#63b8ff" points="317.48,-132.18 307.37,-129.02 313.3,-137.8 317.48,-132.18"/>
</a>
</g>
</g>
<!-- Node11 -->
<g id="Node000011" class="node">
<title>Node11</title>
<g id="a_Node000011"><a xlink:href="utils_8h.html" target="_top" xlink:title=" ">
<polygon fill="white" stroke="#666666" points="749.5,-184 671.5,-184 671.5,-165 749.5,-165 749.5,-184"/>
<text text-anchor="middle" x="710.5" y="-172" font-family="Helvetica,sans-Serif" font-size="10.00">realm/utils.h</text>
</a>
</g>
</g>
<!-- Node10&#45;&gt;Node11 -->
<g id="edge11_Node000010_Node000011" class="edge">
<title>Node10&#45;&gt;Node11</title>
<g id="a_edge11_Node000010_Node000011"><a xlink:title=" ">
<path fill="none" stroke="#63b8ff" d="M413.22,-221.84C476.36,-212 594.34,-193.61 661.11,-183.2"/>
<polygon fill="#63b8ff" stroke="#63b8ff" points="662.03,-186.6 671.37,-181.6 660.95,-179.68 662.03,-186.6"/>
</a>
</g>
</g>
<!-- Node10&#45;&gt;Node14 -->
<g id="edge25_Node000010_Node000014" class="edge">
<title>Node10&#45;&gt;Node14</title>
<g id="a_edge25_Node000010_Node000014"><a xlink:title=" ">
<path fill="none" stroke="#63b8ff" d="M374.76,-219.66C383.29,-201.93 402.65,-161.73 413.92,-138.32"/>
<polygon fill="#63b8ff" stroke="#63b8ff" points="417.15,-139.69 418.33,-129.16 410.84,-136.65 417.15,-139.69"/>
</a>
</g>
</g>
<!-- Node10&#45;&gt;Node20 -->
<g id="edge21_Node000010_Node000020" class="edge">
<title>Node10&#45;&gt;Node20</title>
<g id="a_edge21_Node000010_Node000020"><a xlink:title=" ">
<path fill="none" stroke="#63b8ff" d="M333.55,-219.98C293.93,-210.86 230.91,-196.33 187.73,-186.38"/>
<polygon fill="#63b8ff" stroke="#63b8ff" points="188.27,-182.92 177.74,-184.08 186.7,-189.74 188.27,-182.92"/>
</a>
</g>
</g>
<!-- Node21 -->
<g id="Node000021" class="node">
<title>Node21</title>
<g id="a_Node000021"><a xlink:title=" ">
<polygon fill="#e0e0e0" stroke="#999999" points="228.5,-129 168.5,-129 168.5,-110 228.5,-110 228.5,-129"/>
<text text-anchor="middle" x="198.5" y="-117" font-family="Helvetica,sans-Serif" font-size="10.00">iostream</text>
</a>
</g>
</g>
<!-- Node10&#45;&gt;Node21 -->
<g id="edge27_Node000010_Node000021" class="edge">
<title>Node10&#45;&gt;Node21</title>
<g id="a_edge27_Node000010_Node000021"><a xlink:title=" ">
<path fill="none" stroke="#63b8ff" d="M335.83,-219.93C301.53,-210.94 251.99,-196.42 236.5,-184 221.81,-172.21 211.48,-153.1 205.34,-138.91"/>
<polygon fill="#63b8ff" stroke="#63b8ff" points="208.42,-137.21 201.45,-129.23 201.93,-139.82 208.42,-137.21"/>
</a>
</g>
</g>
<!-- Node10&#45;&gt;Node22 -->
<g id="edge26_Node000010_Node000022" class="edge">
<title>Node10&#45;&gt;Node22</title>
<g id="a_edge26_Node000010_Node000022"><a xlink:title=" ">
<path fill="none" stroke="#63b8ff" d="M388.98,-219.98C408.25,-211.1 438.59,-197.12 460.11,-187.2"/>
<polygon fill="#63b8ff" stroke="#63b8ff" points="461.68,-190.33 469.3,-182.97 458.75,-183.97 461.68,-190.33"/>
</a>
</g>
</g>
<!-- Node23 -->
<g id="Node000023" class="node">
<title>Node23</title>
<g id="a_Node000023"><a xlink:title=" ">
<polygon fill="#e0e0e0" stroke="#999999" points="337,-184 246,-184 246,-165 337,-165 337,-184"/>
<text text-anchor="middle" x="291.5" y="-172" font-family="Helvetica,sans-Serif" font-size="10.00">realm/event.inl</text>
</a>
</g>
</g>
<!-- Node10&#45;&gt;Node23 -->
<g id="edge28_Node000010_Node000023" class="edge">
<title>Node10&#45;&gt;Node23</title>
<g id="a_edge28_Node000010_Node000023"><a xlink:title=" ">
<path fill="none" stroke="#63b8ff" d="M357.81,-219.98C345.67,-211.84 327.14,-199.41 312.75,-189.76"/>
<polygon fill="#63b8ff" stroke="#63b8ff" points="314.68,-186.84 304.42,-184.17 310.78,-192.65 314.68,-186.84"/>
</a>
</g>
</g>
<!-- Node11&#45;&gt;Node5 -->
<g id="edge12_Node000011_Node000005" class="edge">
<title>Node11&#45;&gt;Node5</title>
<g id="a_edge12_Node000011_Node000005"><a xlink:title=" ">
<path fill="none" stroke="#63b8ff" d="M740.22,-164.97C767.67,-156.77 809.39,-143.52 844.5,-129 861.95,-121.78 864.34,-115.16 882.5,-110 960.51,-87.86 1190.52,-74.27 1307.88,-68.59"/>
<polygon fill="#63b8ff" stroke="#63b8ff" points="1308.37,-72.07 1318.19,-68.1 1308.04,-65.08 1308.37,-72.07"/>
</a>
</g>
</g>
<!-- Node12 -->
<g id="Node000012" class="node">
<title>Node12</title>
<g id="a_Node000012"><a xlink:title=" ">
<polygon fill="#e0e0e0" stroke="#999999" points="1029.5,-129 985.5,-129 985.5,-110 1029.5,-110 1029.5,-129"/>
<text text-anchor="middle" x="1007.5" y="-117" font-family="Helvetica,sans-Serif" font-size="10.00">string</text>
</a>
</g>
</g>
<!-- Node11&#45;&gt;Node12 -->
<g id="edge13_Node000011_Node000012" class="edge">
<title>Node11&#45;&gt;Node12</title>
<g id="a_edge13_Node000011_Node000012"><a xlink:title=" ">
<path fill="none" stroke="#63b8ff" d="M749.63,-166.52C808.97,-155.93 920.59,-136.01 975.43,-126.22"/>
<polygon fill="#63b8ff" stroke="#63b8ff" points="976.07,-129.66 985.3,-124.46 974.84,-122.77 976.07,-129.66"/>
</a>
</g>
</g>
<!-- Node13 -->
<g id="Node000013" class="node">
<title>Node13</title>
<g id="a_Node000013"><a xlink:title=" ">
<polygon fill="#e0e0e0" stroke="#999999" points="521,-129 464,-129 464,-110 521,-110 521,-129"/>
<text text-anchor="middle" x="492.5" y="-117" font-family="Helvetica,sans-Serif" font-size="10.00">ostream</text>
</a>
</g>
</g>
<!-- Node11&#45;&gt;Node13 -->
<g id="edge14_Node000011_Node000013" class="edge">
<title>Node11&#45;&gt;Node13</title>
<g id="a_edge14_Node000011_Node000013"><a xlink:title=" ">
<path fill="none" stroke="#63b8ff" d="M675.47,-164.98C635.97,-155.38 571.93,-139.81 531.04,-129.87"/>
<polygon fill="#63b8ff" stroke="#63b8ff" points="531.72,-126.43 521.17,-127.47 530.06,-133.23 531.72,-126.43"/>
</a>
</g>
</g>
<!-- Node11&#45;&gt;Node14 -->
<g id="edge15_Node000011_Node000014" class="edge">
<title>Node11&#45;&gt;Node14</title>
<g id="a_edge15_Node000011_Node000014"><a xlink:title=" ">
<path fill="none" stroke="#63b8ff" d="M671.26,-167.11C613.99,-157.72 509.32,-140.28 456.13,-129.18"/>
<polygon fill="#63b8ff" stroke="#63b8ff" points="456.72,-125.72 446.21,-127.05 455.25,-132.57 456.72,-125.72"/>
</a>
</g>
</g>
<!-- Node11&#45;&gt;Node15 -->
<g id="edge16_Node000011_Node000015" class="edge">
<title>Node11&#45;&gt;Node15</title>
<g id="a_edge16_Node000011_Node000015"><a xlink:title=" ">
<path fill="none" stroke="#63b8ff" d="M742.63,-164.98C780.92,-154.84 844.35,-138.03 881.3,-128.24"/>
<polygon fill="#63b8ff" stroke="#63b8ff" points="882.65,-131.5 891.42,-125.56 880.86,-124.74 882.65,-131.5"/>
</a>
</g>
</g>
<!-- Node16 -->
<g id="Node000016" class="node">
<title>Node16</title>
<g id="a_Node000016"><a xlink:title=" ">
<polygon fill="#e0e0e0" stroke="#999999" points="591.5,-129 539.5,-129 539.5,-110 591.5,-110 591.5,-129"/>
<text text-anchor="middle" x="565.5" y="-117" font-family="Helvetica,sans-Serif" font-size="10.00">cassert</text>
</a>
</g>
</g>
<!-- Node11&#45;&gt;Node16 -->
<g id="edge17_Node000011_Node000016" class="edge">
<title>Node11&#45;&gt;Node16</title>
<g id="a_edge17_Node000011_Node000016"><a xlink:title=" ">
<path fill="none" stroke="#63b8ff" d="M687.2,-164.98C663.25,-156.23 625.72,-142.51 598.67,-132.62"/>
<polygon fill="#63b8ff" stroke="#63b8ff" points="599.81,-129.32 589.22,-129.17 597.41,-135.89 599.81,-129.32"/>
</a>
</g>
</g>
<!-- Node17 -->
<g id="Node000017" class="node">
<title>Node17</title>
<g id="a_Node000017"><a xlink:title=" ">
<polygon fill="#e0e0e0" stroke="#999999" points="659.5,-129 609.5,-129 609.5,-110 659.5,-110 659.5,-129"/>
<text text-anchor="middle" x="634.5" y="-117" font-family="Helvetica,sans-Serif" font-size="10.00">cstdint</text>
</a>
</g>
</g>
<!-- Node11&#45;&gt;Node17 -->
<g id="edge18_Node000011_Node000017" class="edge">
<title>Node11&#45;&gt;Node17</title>
<g id="a_edge18_Node000011_Node000017"><a xlink:title=" ">
<path fill="none" stroke="#63b8ff" d="M698.29,-164.98C686.72,-156.92 669.12,-144.65 655.34,-135.03"/>
<polygon fill="#63b8ff" stroke="#63b8ff" points="657.14,-132.02 646.93,-129.17 653.13,-137.76 657.14,-132.02"/>
</a>
</g>
</g>
<!-- Node18 -->
<g id="Node000018" class="node">
<title>Node18</title>
<g id="a_Node000018"><a xlink:title=" ">
<polygon fill="#e0e0e0" stroke="#999999" points="733.5,-129 677.5,-129 677.5,-110 733.5,-110 733.5,-129"/>
<text text-anchor="middle" x="705.5" y="-117" font-family="Helvetica,sans-Serif" font-size="10.00">sstream</text>
</a>
</g>
</g>
<!-- Node11&#45;&gt;Node18 -->
<g id="edge19_Node000011_Node000018" class="edge">
<title>Node11&#45;&gt;Node18</title>
<g id="a_edge19_Node000011_Node000018"><a xlink:title=" ">
<path fill="none" stroke="#63b8ff" d="M709.67,-164.75C709.02,-157.8 708.08,-147.85 707.26,-139.13"/>
<polygon fill="#63b8ff" stroke="#63b8ff" points="710.73,-138.72 706.31,-129.09 703.77,-139.37 710.73,-138.72"/>
</a>
</g>
</g>
<!-- Node19 -->
<g id="Node000019" class="node">
<title>Node19</title>
<g id="a_Node000019"><a xlink:title=" ">
<polygon fill="#e0e0e0" stroke="#999999" points="835.5,-129 751.5,-129 751.5,-110 835.5,-110 835.5,-129"/>
<text text-anchor="middle" x="793.5" y="-117" font-family="Helvetica,sans-Serif" font-size="10.00">realm/utils.inl</text>
</a>
</g>
</g>
<!-- Node11&#45;&gt;Node19 -->
<g id="edge20_Node000011_Node000019" class="edge">
<title>Node11&#45;&gt;Node19</title>
<g id="a_edge20_Node000011_Node000019"><a xlink:title=" ">
<path fill="none" stroke="#63b8ff" d="M723.84,-164.98C736.59,-156.84 756.05,-144.41 771.17,-134.76"/>
<polygon fill="#63b8ff" stroke="#63b8ff" points="773.38,-137.5 779.92,-129.17 769.61,-131.6 773.38,-137.5"/>
</a>
</g>
</g>
<!-- Node20&#45;&gt;Node4 -->
<g id="edge22_Node000020_Node000004" class="edge">
<title>Node20&#45;&gt;Node4</title>
<g id="a_edge22_Node000020_Node000004"><a xlink:title=" ">
<path fill="none" stroke="#63b8ff" d="M165.24,-164.98C190.87,-156.16 231.13,-142.31 259.91,-132.41"/>
<polygon fill="#63b8ff" stroke="#63b8ff" points="261.25,-135.65 269.56,-129.08 258.97,-129.03 261.25,-135.65"/>
</a>
</g>
</g>
<!-- Node20&#45;&gt;Node8 -->
<g id="edge23_Node000020_Node000008" class="edge">
<title>Node20&#45;&gt;Node8</title>
<g id="a_edge23_Node000020_Node000008"><a xlink:title=" ">
<path fill="none" stroke="#63b8ff" d="M140.66,-164.86C141.38,-151.34 144.74,-125.18 159.5,-110 184.97,-83.81 226.13,-73.03 256.32,-68.59"/>
<polygon fill="#63b8ff" stroke="#63b8ff" points="257.02,-72.03 266.49,-67.28 256.12,-65.09 257.02,-72.03"/>
</a>
</g>
</g>
<!-- Node20&#45;&gt;Node21 -->
<g id="edge24_Node000020_Node000021" class="edge">
<title>Node20&#45;&gt;Node21</title>
<g id="a_edge24_Node000020_Node000021"><a xlink:title=" ">
<path fill="none" stroke="#63b8ff" d="M149.82,-164.98C158.31,-157.23 171.06,-145.58 181.38,-136.14"/>
<polygon fill="#63b8ff" stroke="#63b8ff" points="183.99,-138.5 189.01,-129.17 179.27,-133.33 183.99,-138.5"/>
</a>
</g>
</g>
<!-- Node27&#45;&gt;Node5 -->
<g id="edge36_Node000027_Node000005" class="edge">
<title>Node27&#45;&gt;Node5</title>
<g id="a_edge36_Node000027_Node000005"><a xlink:title=" ">
<path fill="none" stroke="#63b8ff" d="M997.19,-335.87C1152.42,-326.86 1625.5,-294.18 1625.5,-230.5 1625.5,-230.5 1625.5,-230.5 1625.5,-173.5 1625.5,-95.83 1521.71,-73.48 1448.69,-67.36"/>
<polygon fill="#63b8ff" stroke="#63b8ff" points="1448.84,-63.86 1438.61,-66.6 1448.32,-70.84 1448.84,-63.86"/>
</a>
</g>
</g>
<!-- Node27&#45;&gt;Node15 -->
<g id="edge67_Node000027_Node000015" class="edge">
<title>Node27&#45;&gt;Node15</title>
<g id="a_edge67_Node000027_Node000015"><a xlink:title=" ">
<path fill="none" stroke="#63b8ff" d="M943.93,-329.9C939.48,-321.13 932.91,-307 929.5,-294 915.13,-239.18 911.62,-171.85 910.77,-139.56"/>
<polygon fill="#63b8ff" stroke="#63b8ff" points="914.26,-139.26 910.56,-129.33 907.26,-139.4 914.26,-139.26"/>
</a>
</g>
</g>
<!-- Node27&#45;&gt;Node20 -->
<g id="edge63_Node000027_Node000020" class="edge">
<title>Node27&#45;&gt;Node20</title>
<g id="a_edge63_Node000027_Node000020"><a xlink:title=" ">
<path fill="none" stroke="#63b8ff" d="M899.89,-336.65C775.61,-331.64 448.63,-316.65 342.5,-294 272.24,-279.01 248.74,-281.06 190.5,-239 173.49,-226.72 159.3,-207.13 150.43,-192.95"/>
<polygon fill="#63b8ff" stroke="#63b8ff" points="153.31,-190.94 145.17,-184.16 147.3,-194.54 153.31,-190.94"/>
</a>
</g>
</g>
<!-- Node28 -->
<g id="Node000028" class="node">
<title>Node28</title>
<g id="a_Node000028"><a xlink:href="module_8h.html" target="_top" xlink:title=" ">
<polygon fill="white" stroke="#666666" points="1190.5,-239 1096.5,-239 1096.5,-220 1190.5,-220 1190.5,-239"/>
<text text-anchor="middle" x="1143.5" y="-227" font-family="Helvetica,sans-Serif" font-size="10.00">realm/module.h</text>
</a>
</g>
</g>
<!-- Node27&#45;&gt;Node28 -->
<g id="edge37_Node000027_Node000028" class="edge">
<title>Node27&#45;&gt;Node28</title>
<g id="a_edge37_Node000027_Node000028"><a xlink:title=" ">
<path fill="none" stroke="#63b8ff" d="M968.89,-329.85C988.38,-321.38 1018.43,-307.76 1043.5,-294 1071.8,-278.47 1102.99,-258.11 1122.89,-244.69"/>
<polygon fill="#63b8ff" stroke="#63b8ff" points="1124.88,-247.56 1131.18,-239.05 1120.94,-241.77 1124.88,-247.56"/>
</a>
</g>
</g>
<!-- Node32 -->
<g id="Node000032" class="node">
<title>Node32</title>
<g id="a_Node000032"><a xlink:href="nodeset_8h.html" target="_top" xlink:title=" ">
<polygon fill="white" stroke="#666666" points="1034.5,-294 938.5,-294 938.5,-275 1034.5,-275 1034.5,-294"/>
<text text-anchor="middle" x="986.5" y="-282" font-family="Helvetica,sans-Serif" font-size="10.00">realm/nodeset.h</text>
</a>
</g>
</g>
<!-- Node27&#45;&gt;Node32 -->
<g id="edge49_Node000027_Node000032" class="edge">
<title>Node27&#45;&gt;Node32</title>
<g id="a_edge49_Node000027_Node000032"><a xlink:title=" ">
<path fill="none" stroke="#63b8ff" d="M954.77,-329.75C960.09,-322.34 967.86,-311.5 974.38,-302.41"/>
<polygon fill="#63b8ff" stroke="#63b8ff" points="977.36,-304.26 980.34,-294.09 971.67,-300.18 977.36,-304.26"/>
</a>
</g>
</g>
<!-- Node39 -->
<g id="Node000039" class="node">
<title>Node39</title>
<g id="a_Node000039"><a xlink:href="bytearray_8h.html" target="_top" xlink:title=" ">
<polygon fill="white" stroke="#666666" points="808,-294 705,-294 705,-275 808,-275 808,-294"/>
<text text-anchor="middle" x="756.5" y="-282" font-family="Helvetica,sans-Serif" font-size="10.00">realm/bytearray.h</text>
</a>
</g>
</g>
<!-- Node27&#45;&gt;Node39 -->
<g id="edge64_Node000027_Node000039" class="edge">
<title>Node27&#45;&gt;Node39</title>
<g id="a_edge64_Node000027_Node000039"><a xlink:title=" ">
<path fill="none" stroke="#63b8ff" d="M917.65,-329.98C885,-320.97 833.3,-306.7 797.3,-296.76"/>
<polygon fill="#63b8ff" stroke="#63b8ff" points="798.16,-293.37 787.59,-294.08 796.3,-300.12 798.16,-293.37"/>
</a>
</g>
</g>
<!-- Node41 -->
<g id="Node000041" class="node">
<title>Node41</title>
<g id="a_Node000041"><a xlink:title=" ">
<polygon fill="#e0e0e0" stroke="#999999" points="1194,-294 1091,-294 1091,-275 1194,-275 1194,-294"/>
<text text-anchor="middle" x="1142.5" y="-282" font-family="Helvetica,sans-Serif" font-size="10.00">realm/network.inl</text>
</a>
</g>
</g>
<!-- Node27&#45;&gt;Node41 -->
<g id="edge68_Node000027_Node000041" class="edge">
<title>Node27&#45;&gt;Node41</title>
<g id="a_edge68_Node000027_Node000041"><a xlink:title=" ">
<path fill="none" stroke="#63b8ff" d="M979.67,-329.98C1012.66,-320.97 1064.9,-306.7 1101.27,-296.76"/>
<polygon fill="#63b8ff" stroke="#63b8ff" points="1102.36,-300.09 1111.09,-294.08 1100.52,-293.34 1102.36,-300.09"/>
</a>
</g>
</g>
<!-- Node28&#45;&gt;Node5 -->
<g id="edge38_Node000028_Node000005" class="edge">
<title>Node28&#45;&gt;Node5</title>
<g id="a_edge38_Node000028_Node000005"><a xlink:title=" ">
<path fill="none" stroke="#63b8ff" d="M1166.55,-219.89C1203.68,-205.24 1277.79,-172.77 1329.5,-129 1345.22,-115.7 1359.13,-96.57 1368.07,-82.8"/>
<polygon fill="#63b8ff" stroke="#63b8ff" points="1371.09,-84.58 1373.43,-74.25 1365.16,-80.86 1371.09,-84.58"/>
</a>
</g>
</g>
<!-- Node28&#45;&gt;Node12 -->
<g id="edge47_Node000028_Node000012" class="edge">
<title>Node28&#45;&gt;Node12</title>
<g id="a_edge47_Node000028_Node000012"><a xlink:title=" ">
<path fill="none" stroke="#63b8ff" d="M1111.26,-219.93C1090.06,-213.01 1062.78,-201.49 1043.5,-184 1029.74,-171.51 1019.93,-152.5 1014.06,-138.53"/>
<polygon fill="#63b8ff" stroke="#63b8ff" points="1017.25,-137.06 1010.34,-129.03 1010.73,-139.61 1017.25,-137.06"/>
</a>
</g>
</g>
<!-- Node28&#45;&gt;Node14 -->
<g id="edge46_Node000028_Node000014" class="edge">
<title>Node28&#45;&gt;Node14</title>
<g id="a_edge46_Node000028_Node000014"><a xlink:title=" ">
<path fill="none" stroke="#63b8ff" d="M1096.48,-221.13C1093.44,-220.73 1090.43,-220.35 1087.5,-220 899.24,-197.76 846.16,-230.95 662.5,-184 642.26,-178.83 639.36,-171.48 619.5,-165 551.21,-142.71 529.33,-146.27 456.38,-129.34"/>
<polygon fill="#63b8ff" stroke="#63b8ff" points="456.77,-125.84 446.24,-126.93 455.16,-132.65 456.77,-125.84"/>
</a>
</g>
</g>
<!-- Node28&#45;&gt;Node15 -->
<g id="edge48_Node000028_Node000015" class="edge">
<title>Node28&#45;&gt;Node15</title>
<g id="a_edge48_Node000028_Node000015"><a xlink:title=" ">
<path fill="none" stroke="#63b8ff" d="M1117.04,-219.88C1092.61,-211.63 1055.53,-198.35 1024.5,-184 991.75,-168.86 955.63,-147.98 933.01,-134.37"/>
<polygon fill="#63b8ff" stroke="#63b8ff" points="934.55,-131.21 924.19,-129.01 930.92,-137.19 934.55,-131.21"/>
</a>
</g>
</g>
<!-- Node29 -->
<g id="Node000029" class="node">
<title>Node29</title>
<g id="a_Node000029"><a xlink:href="module__config_8h.html" target="_top" xlink:title=" ">
<polygon fill="white" stroke="#666666" points="1180.5,-184 1052.5,-184 1052.5,-165 1180.5,-165 1180.5,-184"/>
<text text-anchor="middle" x="1116.5" y="-172" font-family="Helvetica,sans-Serif" font-size="10.00">realm/module_config.h</text>
</a>
</g>
</g>
<!-- Node28&#45;&gt;Node29 -->
<g id="edge39_Node000028_Node000029" class="edge">
<title>Node28&#45;&gt;Node29</title>
<g id="a_edge39_Node000028_Node000029"><a xlink:title=" ">
<path fill="none" stroke="#63b8ff" d="M1139.04,-219.75C1135.38,-212.57 1130.09,-202.18 1125.55,-193.27"/>
<polygon fill="#63b8ff" stroke="#63b8ff" points="1128.53,-191.41 1120.88,-184.09 1122.3,-194.59 1128.53,-191.41"/>
</a>
</g>
</g>
<!-- Node29&#45;&gt;Node4 -->
<g id="edge41_Node000029_Node000004" class="edge">
<title>Node29&#45;&gt;Node4</title>
<g id="a_edge41_Node000029_Node000004"><a xlink:title=" ">
<path fill="none" stroke="#63b8ff" d="M1052.27,-170.18C925.49,-163.48 634.12,-147.43 389.5,-129 377.63,-128.11 364.94,-127.04 352.82,-125.98"/>
<polygon fill="#63b8ff" stroke="#63b8ff" points="353.08,-122.49 342.81,-125.09 352.46,-129.46 353.08,-122.49"/>
</a>
</g>
</g>
<!-- Node29&#45;&gt;Node5 -->
<g id="edge40_Node000029_Node000005" class="edge">
<title>Node29&#45;&gt;Node5</title>
<g id="a_edge40_Node000029_Node000005"><a xlink:title=" ">
<path fill="none" stroke="#63b8ff" d="M1180.62,-165.41C1217.41,-159 1263.66,-147.88 1301.5,-129 1325.57,-116.99 1348.76,-96.19 1363.29,-81.68"/>
<polygon fill="#63b8ff" stroke="#63b8ff" points="1365.95,-83.97 1370.42,-74.37 1360.94,-79.09 1365.95,-83.97"/>
</a>
</g>
</g>
<!-- Node29&#45;&gt;Node12 -->
<g id="edge42_Node000029_Node000012" class="edge">
<title>Node29&#45;&gt;Node12</title>
<g id="a_edge42_Node000029_Node000012"><a xlink:title=" ">
<path fill="none" stroke="#63b8ff" d="M1098.99,-164.98C1081.53,-156.5 1054.49,-143.35 1034.33,-133.54"/>
<polygon fill="#63b8ff" stroke="#63b8ff" points="1035.86,-130.4 1025.33,-129.17 1032.79,-136.69 1035.86,-130.4"/>
</a>
</g>
</g>
<!-- Node29&#45;&gt;Node14 -->
<g id="edge44_Node000029_Node000014" class="edge">
<title>Node29&#45;&gt;Node14</title>
<g id="a_edge44_Node000029_Node000014"><a xlink:title=" ">
<path fill="none" stroke="#63b8ff" d="M1052.12,-173.27C934.99,-171.96 679.22,-164.99 456.08,-128.95"/>
<polygon fill="#63b8ff" stroke="#63b8ff" points="456.59,-125.49 446.16,-127.33 455.46,-132.4 456.59,-125.49"/>
</a>
</g>
</g>
<!-- Node30 -->
<g id="Node000030" class="node">
<title>Node30</title>
<g id="a_Node000030"><a xlink:title=" ">
<polygon fill="#e0e0e0" stroke="#999999" points="1293,-129 1200,-129 1200,-110 1293,-110 1293,-129"/>
<text text-anchor="middle" x="1246.5" y="-117" font-family="Helvetica,sans-Serif" font-size="10.00">unordered_map</text>
</a>
</g>
</g>
<!-- Node29&#45;&gt;Node30 -->
<g id="edge43_Node000029_Node000030" class="edge">
<title>Node29&#45;&gt;Node30</title>
<g id="a_edge43_Node000029_Node000030"><a xlink:title=" ">
<path fill="none" stroke="#63b8ff" d="M1137.39,-164.98C1158.58,-156.34 1191.63,-142.87 1215.8,-133.02"/>
<polygon fill="#63b8ff" stroke="#63b8ff" points="1217.29,-136.19 1225.23,-129.17 1214.65,-129.7 1217.29,-136.19"/>
</a>
</g>
</g>
<!-- Node31 -->
<g id="Node000031" class="node">
<title>Node31</title>
<g id="a_Node000031"><a xlink:title=" ">
<polygon fill="#e0e0e0" stroke="#999999" points="1181.5,-129 1047.5,-129 1047.5,-110 1181.5,-110 1181.5,-129"/>
<text text-anchor="middle" x="1114.5" y="-117" font-family="Helvetica,sans-Serif" font-size="10.00">realm/module_config.inl</text>
</a>
</g>
</g>
<!-- Node29&#45;&gt;Node31 -->
<g id="edge45_Node000029_Node000031" class="edge">
<title>Node29&#45;&gt;Node31</title>
<g id="a_edge45_Node000029_Node000031"><a xlink:title=" ">
<path fill="none" stroke="#63b8ff" d="M1116.17,-164.75C1115.91,-157.8 1115.53,-147.85 1115.2,-139.13"/>
<polygon fill="#63b8ff" stroke="#63b8ff" points="1118.7,-138.95 1114.82,-129.09 1111.7,-139.21 1118.7,-138.95"/>
</a>
</g>
</g>
<!-- Node32&#45;&gt;Node5 -->
<g id="edge50_Node000032_Node000005" class="edge">
<title>Node32&#45;&gt;Node5</title>
<g id="a_edge50_Node000032_Node000005"><a xlink:title=" ">
<path fill="none" stroke="#63b8ff" d="M1034.78,-279.2C1079.13,-273.93 1145.91,-262.59 1199.5,-239 1276.15,-205.26 1300.62,-194.75 1352.5,-129 1362.99,-115.7 1369.85,-97.59 1373.87,-84.11"/>
<polygon fill="#63b8ff" stroke="#63b8ff" points="1377.35,-84.65 1376.61,-74.08 1370.6,-82.81 1377.35,-84.65"/>
</a>
</g>
</g>
<!-- Node32&#45;&gt;Node9 -->
<g id="edge60_Node000032_Node000009" class="edge">
<title>Node32&#45;&gt;Node9</title>
<g id="a_edge60_Node000032_Node000009"><a xlink:title=" ">
<path fill="none" stroke="#63b8ff" d="M981.78,-274.94C977.23,-266.2 970.57,-252.09 967.5,-239 954.6,-184.06 955.21,-116.79 956.48,-84.53"/>
<polygon fill="#63b8ff" stroke="#63b8ff" points="959.99,-84.47 956.95,-74.32 952.99,-84.15 959.99,-84.47"/>
</a>
</g>
</g>
<!-- Node32&#45;&gt;Node25 -->
<g id="edge61_Node000032_Node000025" class="edge">
<title>Node32&#45;&gt;Node25</title>
<g id="a_edge61_Node000032_Node000025"><a xlink:title=" ">
<path fill="none" stroke="#63b8ff" d="M965.45,-274.98C944.09,-266.34 910.8,-252.87 886.44,-243.02"/>
<polygon fill="#63b8ff" stroke="#63b8ff" points="887.51,-239.68 876.93,-239.17 884.89,-246.17 887.51,-239.68"/>
</a>
</g>
</g>
<!-- Node32&#45;&gt;Node33 -->
<g id="edge51_Node000032_Node000033" class="edge">
<title>Node32&#45;&gt;Node33</title>
<g id="a_edge51_Node000032_Node000033"><a xlink:title=" ">
<path fill="none" stroke="#63b8ff" d="M1034.68,-278.96C1113.54,-271.42 1275.06,-255.49 1411.5,-239 1413.87,-238.71 1416.28,-238.41 1418.72,-238.11"/>
<polygon fill="#63b8ff" stroke="#63b8ff" points="1419.35,-241.55 1428.82,-236.8 1418.45,-234.61 1419.35,-241.55"/>
</a>
</g>
</g>
<!-- Node38 -->
<g id="Node000038" class="node">
<title>Node38</title>
<g id="a_Node000038"><a xlink:title=" ">
<polygon fill="#e0e0e0" stroke="#999999" points="1078.5,-239 976.5,-239 976.5,-220 1078.5,-220 1078.5,-239"/>
<text text-anchor="middle" x="1027.5" y="-227" font-family="Helvetica,sans-Serif" font-size="10.00">realm/nodeset.inl</text>
</a>
</g>
</g>
<!-- Node32&#45;&gt;Node38 -->
<g id="edge62_Node000032_Node000038" class="edge">
<title>Node32&#45;&gt;Node38</title>
<g id="a_edge62_Node000032_Node000038"><a xlink:title=" ">
<path fill="none" stroke="#63b8ff" d="M993.27,-274.75C999.06,-267.26 1007.56,-256.28 1014.64,-247.13"/>
<polygon fill="#63b8ff" stroke="#63b8ff" points="1017.51,-249.14 1020.86,-239.09 1011.97,-244.86 1017.51,-249.14"/>
</a>
</g>
</g>
<!-- Node33&#45;&gt;Node5 -->
<g id="edge52_Node000033_Node000005" class="edge">
<title>Node33&#45;&gt;Node5</title>
<g id="a_edge52_Node000033_Node000005"><a xlink:title=" ">
<path fill="none" stroke="#63b8ff" d="M1473.96,-219.87C1474.63,-199.02 1473.75,-145.04 1449.5,-110 1439.95,-96.2 1424.59,-85.8 1410.59,-78.54"/>
<polygon fill="#63b8ff" stroke="#63b8ff" points="1411.73,-75.2 1401.21,-74.01 1408.69,-81.51 1411.73,-75.2"/>
</a>
</g>
</g>
<!-- Node33&#45;&gt;Node9 -->
<g id="edge58_Node000033_Node000009" class="edge">
<title>Node33&#45;&gt;Node9</title>
<g id="a_edge58_Node000033_Node000009"><a xlink:title=" ">
<path fill="none" stroke="#63b8ff" d="M1464.36,-219.76C1440.12,-197.17 1371.25,-136.73 1301.5,-110 1195.5,-69.38 1059.08,-64.45 994.52,-64.68"/>
<polygon fill="#63b8ff" stroke="#63b8ff" points="994.4,-61.18 984.42,-64.76 994.45,-68.18 994.4,-61.18"/>
</a>
</g>
</g>
<!-- Node33&#45;&gt;Node11 -->
<g id="edge53_Node000033_Node000011" class="edge">
<title>Node33&#45;&gt;Node11</title>
<g id="a_edge53_Node000033_Node000011"><a xlink:title=" ">
<path fill="none" stroke="#63b8ff" d="M1428.9,-225.4C1295.34,-216.12 899.23,-188.61 759.76,-178.92"/>
<polygon fill="#63b8ff" stroke="#63b8ff" points="760,-175.43 749.78,-178.23 759.52,-182.41 760,-175.43"/>
</a>
</g>
</g>
<!-- Node33&#45;&gt;Node34 -->
<g id="edge54_Node000033_Node000034" class="edge">
<title>Node33&#45;&gt;Node34</title>
<g id="a_edge54_Node000033_Node000034"><a xlink:title=" ">
<path fill="none" stroke="#63b8ff" d="M1510.13,-219.98C1549.41,-210.86 1611.87,-196.33 1654.69,-186.38"/>
<polygon fill="#63b8ff" stroke="#63b8ff" points="1655.63,-189.76 1664.58,-184.08 1654.05,-182.94 1655.63,-189.76"/>
</a>
</g>
</g>
<!-- Node37 -->
<g id="Node000037" class="node">
<title>Node37</title>
<g id="a_Node000037"><a xlink:title=" ">
<polygon fill="#e0e0e0" stroke="#999999" points="1597,-184 1502,-184 1502,-165 1597,-165 1597,-184"/>
<text text-anchor="middle" x="1549.5" y="-172" font-family="Helvetica,sans-Serif" font-size="10.00">realm/mutex.inl</text>
</a>
</g>
</g>
<!-- Node33&#45;&gt;Node37 -->
<g id="edge59_Node000033_Node000037" class="edge">
<title>Node33&#45;&gt;Node37</title>
<g id="a_edge59_Node000033_Node000037"><a xlink:title=" ">
<path fill="none" stroke="#63b8ff" d="M1485.71,-219.98C1497.28,-211.92 1514.88,-199.65 1528.66,-190.03"/>
<polygon fill="#63b8ff" stroke="#63b8ff" points="1530.87,-192.76 1537.07,-184.17 1526.86,-187.02 1530.87,-192.76"/>
</a>
</g>
</g>
<!-- Node34&#45;&gt;Node5 -->
<g id="edge55_Node000034_Node000005" class="edge">
<title>Node34&#45;&gt;Node5</title>
<g id="a_edge55_Node000034_Node000005"><a xlink:title=" ">
<path fill="none" stroke="#63b8ff" d="M1695.82,-164.84C1686.11,-150.8 1664.88,-123.31 1639.5,-110 1580.13,-78.86 1503.69,-68.76 1448.9,-65.83"/>
<polygon fill="#63b8ff" stroke="#63b8ff" points="1448.74,-62.32 1438.59,-65.35 1448.42,-69.31 1448.74,-62.32"/>
</a>
</g>
</g>
<!-- Node35 -->
<g id="Node000035" class="node">
<title>Node35</title>
<g id="a_Node000035"><a xlink:title=" ">
<polygon fill="#e0e0e0" stroke="#999999" points="1741.5,-129 1691.5,-129 1691.5,-110 1741.5,-110 1741.5,-129"/>
<text text-anchor="middle" x="1716.5" y="-117" font-family="Helvetica,sans-Serif" font-size="10.00">atomic</text>
</a>
</g>
</g>
<!-- Node34&#45;&gt;Node35 -->
<g id="edge56_Node000034_Node000035" class="edge">
<title>Node34&#45;&gt;Node35</title>
<g id="a_edge56_Node000034_Node000035"><a xlink:title=" ">
<path fill="none" stroke="#63b8ff" d="M1703.98,-164.75C1705.96,-157.72 1708.82,-147.62 1711.31,-138.84"/>
<polygon fill="#63b8ff" stroke="#63b8ff" points="1714.71,-139.66 1714.07,-129.09 1707.98,-137.76 1714.71,-139.66"/>
</a>
</g>
</g>
<!-- Node36 -->
<g id="Node000036" class="node">
<title>Node36</title>
<g id="a_Node000036"><a xlink:title=" ">
<polygon fill="#e0e0e0" stroke="#999999" points="1861.5,-129 1759.5,-129 1759.5,-110 1861.5,-110 1861.5,-129"/>
<text text-anchor="middle" x="1810.5" y="-117" font-family="Helvetica,sans-Serif" font-size="10.00">realm/atomics.inl</text>
</a>
</g>
</g>
<!-- Node34&#45;&gt;Node36 -->
<g id="edge57_Node000034_Node000036" class="edge">
<title>Node34&#45;&gt;Node36</title>
<g id="a_edge57_Node000034_Node000036"><a xlink:title=" ">
<path fill="none" stroke="#63b8ff" d="M1719.01,-164.98C1736.47,-156.5 1763.51,-143.35 1783.67,-133.54"/>
<polygon fill="#63b8ff" stroke="#63b8ff" points="1785.21,-136.69 1792.67,-129.17 1782.14,-130.4 1785.21,-136.69"/>
</a>
</g>
</g>
<!-- Node39&#45;&gt;Node8 -->
<g id="edge65_Node000039_Node000008" class="edge">
<title>Node39&#45;&gt;Node8</title>
<g id="a_edge65_Node000039_Node000008"><a xlink:title=" ">
<path fill="none" stroke="#63b8ff" d="M741.06,-274.98C702.85,-254.15 600.47,-199.8 510.5,-165 458.17,-144.76 440.28,-152.86 389.5,-129 361.11,-115.66 331.55,-94.57 313.09,-80.4"/>
<polygon fill="#63b8ff" stroke="#63b8ff" points="315.01,-77.46 304.98,-74.06 310.7,-82.97 315.01,-77.46"/>
</a>
</g>
</g>
<!-- Node40 -->
<g id="Node000040" class="node">
<title>Node40</title>
<g id="a_Node000040"><a xlink:title=" ">
<polygon fill="#e0e0e0" stroke="#999999" points="811,-239 702,-239 702,-220 811,-220 811,-239"/>
<text text-anchor="middle" x="756.5" y="-227" font-family="Helvetica,sans-Serif" font-size="10.00">realm/bytearray.inl</text>
</a>
</g>
</g>
<!-- Node39&#45;&gt;Node40 -->
<g id="edge66_Node000039_Node000040" class="edge">
<title>Node39&#45;&gt;Node40</title>
<g id="a_edge66_Node000039_Node000040"><a xlink:title=" ">
<path fill="none" stroke="#63b8ff" d="M756.5,-274.75C756.5,-267.8 756.5,-257.85 756.5,-249.13"/>
<polygon fill="#63b8ff" stroke="#63b8ff" points="760,-249.09 756.5,-239.09 753,-249.09 760,-249.09"/>
</a>
</g>
</g>
</g>
</svg>
