<?xml version="1.0" encoding="UTF-8" standalone="no"?>
<!DOCTYPE svg PUBLIC "-//W3C//DTD SVG 1.1//EN"
 "http://www.w3.org/Graphics/SVG/1.1/DTD/svg11.dtd">
<!-- Generated by graphviz version 2.43.0 (0)
 -->
<!-- Title: /home/runner/work/realm/realm/realm&#45;src/src/realm/machine.h Pages: 1 -->
<svg width="916pt" height="379pt"
 viewBox="0.00 0.00 915.50 379.00" xmlns="http://www.w3.org/2000/svg" xmlns:xlink="http://www.w3.org/1999/xlink">
<g id="graph0" class="graph" transform="scale(1 1) rotate(0) translate(4 375)">
<title>/home/runner/work/realm/realm/realm&#45;src/src/realm/machine.h</title>
<!-- Node1 -->
<g id="Node000001" class="node">
<title>Node1</title>
<g id="a_Node000001"><a xlink:title=" ">
<polygon fill="#999999" stroke="#666666" points="772,-371 626,-371 626,-330 772,-330 772,-371"/>
<text text-anchor="start" x="634" y="-359" font-family="Helvetica,sans-Serif" font-size="10.00">/home/runner/work/realm</text>
<text text-anchor="start" x="634" y="-348" font-family="Helvetica,sans-Serif" font-size="10.00">/realm/realm&#45;src/src/realm</text>
<text text-anchor="middle" x="699" y="-337" font-family="Helvetica,sans-Serif" font-size="10.00">/machine.h</text>
</a>
</g>
</g>
<!-- Node2 -->
<g id="Node000002" class="node">
<title>Node2</title>
<g id="a_Node000002"><a xlink:href="processor_8h.html" target="_top" xlink:title=" ">
<polygon fill="white" stroke="#666666" points="455,-294 351,-294 351,-275 455,-275 455,-294"/>
<text text-anchor="middle" x="403" y="-282" font-family="Helvetica,sans-Serif" font-size="10.00">realm/processor.h</text>
</a>
</g>
</g>
<!-- Node1&#45;&gt;Node2 -->
<g id="edge1_Node000001_Node000002" class="edge">
<title>Node1&#45;&gt;Node2</title>
<g id="a_edge1_Node000001_Node000002"><a xlink:title=" ">
<path fill="none" stroke="#63b8ff" d="M625.83,-333.68C571.92,-322.02 500.04,-306.48 452.68,-296.24"/>
<polygon fill="#63b8ff" stroke="#63b8ff" points="453.18,-292.77 442.67,-294.08 451.7,-299.61 453.18,-292.77"/>
</a>
</g>
</g>
<!-- Node19 -->
<g id="Node000019" class="node">
<title>Node19</title>
<g id="a_Node000019"><a xlink:href="memory_8h.html" target="_top" xlink:title=" ">
<polygon fill="white" stroke="#666666" points="804.5,-184 707.5,-184 707.5,-165 804.5,-165 804.5,-184"/>
<text text-anchor="middle" x="756" y="-172" font-family="Helvetica,sans-Serif" font-size="10.00">realm/memory.h</text>
</a>
</g>
</g>
<!-- Node1&#45;&gt;Node19 -->
<g id="edge32_Node000001_Node000019" class="edge">
<title>Node1&#45;&gt;Node19</title>
<g id="a_edge32_Node000001_Node000019"><a xlink:title=" ">
<path fill="none" stroke="#63b8ff" d="M693.2,-329.82C689.64,-314.57 686.69,-293.07 692,-275 701.55,-242.51 725.35,-210.59 741.08,-191.99"/>
<polygon fill="#63b8ff" stroke="#63b8ff" points="743.93,-194.05 747.86,-184.21 738.65,-189.45 743.93,-194.05"/>
</a>
</g>
</g>
<!-- Node25 -->
<g id="Node000025" class="node">
<title>Node25</title>
<g id="a_Node000025"><a xlink:title=" ">
<polygon fill="#e0e0e0" stroke="#999999" points="753.5,-294 700.5,-294 700.5,-275 753.5,-275 753.5,-294"/>
<text text-anchor="middle" x="727" y="-282" font-family="Helvetica,sans-Serif" font-size="10.00">iterator</text>
</a>
</g>
</g>
<!-- Node1&#45;&gt;Node25 -->
<g id="edge33_Node000001_Node000025" class="edge">
<title>Node1&#45;&gt;Node25</title>
<g id="a_edge33_Node000001_Node000025"><a xlink:title=" ">
<path fill="none" stroke="#63b8ff" d="M707.55,-329.95C711.22,-321.58 715.47,-311.85 719.06,-303.64"/>
<polygon fill="#63b8ff" stroke="#63b8ff" points="722.37,-304.83 723.17,-294.26 715.95,-302.02 722.37,-304.83"/>
</a>
</g>
</g>
<!-- Node26 -->
<g id="Node000026" class="node">
<title>Node26</title>
<g id="a_Node000026"><a xlink:title=" ">
<polygon fill="#e0e0e0" stroke="#999999" points="876.5,-294 771.5,-294 771.5,-275 876.5,-275 876.5,-294"/>
<text text-anchor="middle" x="824" y="-282" font-family="Helvetica,sans-Serif" font-size="10.00">realm/machine.inl</text>
</a>
</g>
</g>
<!-- Node1&#45;&gt;Node26 -->
<g id="edge34_Node000001_Node000026" class="edge">
<title>Node1&#45;&gt;Node26</title>
<g id="a_edge34_Node000001_Node000026"><a xlink:title=" ">
<path fill="none" stroke="#63b8ff" d="M737.18,-329.95C756.93,-319.84 780.52,-307.76 798.12,-298.75"/>
<polygon fill="#63b8ff" stroke="#63b8ff" points="799.91,-301.76 807.22,-294.09 796.72,-295.53 799.91,-301.76"/>
</a>
</g>
</g>
<!-- Node3 -->
<g id="Node000003" class="node">
<title>Node3</title>
<g id="a_Node000003"><a xlink:href="realm__c_8h.html" target="_top" xlink:title=" ">
<polygon fill="white" stroke="#666666" points="708,-129 612,-129 612,-110 708,-110 708,-129"/>
<text text-anchor="middle" x="660" y="-117" font-family="Helvetica,sans-Serif" font-size="10.00">realm/realm_c.h</text>
</a>
</g>
</g>
<!-- Node2&#45;&gt;Node3 -->
<g id="edge2_Node000002_Node000003" class="edge">
<title>Node2&#45;&gt;Node3</title>
<g id="a_edge2_Node000002_Node000003"><a xlink:title=" ">
<path fill="none" stroke="#63b8ff" d="M407.28,-274.79C418.56,-252.79 451.31,-194.61 496,-165 514.18,-152.96 566.04,-139.99 606.62,-131.17"/>
<polygon fill="#63b8ff" stroke="#63b8ff" points="607.36,-134.59 616.41,-129.08 605.9,-127.75 607.36,-134.59"/>
</a>
</g>
</g>
<!-- Node9 -->
<g id="Node000009" class="node">
<title>Node9</title>
<g id="a_Node000009"><a xlink:href="event_8h.html" target="_top" xlink:title=" ">
<polygon fill="white" stroke="#666666" points="559.5,-239 474.5,-239 474.5,-220 559.5,-220 559.5,-239"/>
<text text-anchor="middle" x="517" y="-227" font-family="Helvetica,sans-Serif" font-size="10.00">realm/event.h</text>
</a>
</g>
</g>
<!-- Node2&#45;&gt;Node9 -->
<g id="edge8_Node000002_Node000009" class="edge">
<title>Node2&#45;&gt;Node9</title>
<g id="a_edge8_Node000002_Node000009"><a xlink:title=" ">
<path fill="none" stroke="#63b8ff" d="M421.32,-274.98C439.66,-266.46 468.11,-253.23 489.23,-243.41"/>
<polygon fill="#63b8ff" stroke="#63b8ff" points="490.76,-246.56 498.35,-239.17 487.81,-240.21 490.76,-246.56"/>
</a>
</g>
</g>
<!-- Node13 -->
<g id="Node000013" class="node">
<title>Node13</title>
<g id="a_Node000013"><a xlink:title=" ">
<polygon fill="#e0e0e0" stroke="#999999" points="103.5,-129 56.5,-129 56.5,-110 103.5,-110 103.5,-129"/>
<text text-anchor="middle" x="80" y="-117" font-family="Helvetica,sans-Serif" font-size="10.00">vector</text>
</a>
</g>
</g>
<!-- Node2&#45;&gt;Node13 -->
<g id="edge29_Node000002_Node000013" class="edge">
<title>Node2&#45;&gt;Node13</title>
<g id="a_edge29_Node000002_Node000013"><a xlink:title=" ">
<path fill="none" stroke="#63b8ff" d="M381.76,-274.91C360.27,-266.15 326.16,-252.02 297,-239 244.9,-215.73 231.02,-211.45 181,-184 152.5,-168.36 120.98,-148.02 100.86,-134.63"/>
<polygon fill="#63b8ff" stroke="#63b8ff" points="102.72,-131.67 92.47,-129.01 98.83,-137.49 102.72,-131.67"/>
</a>
</g>
</g>
<!-- Node14 -->
<g id="Node000014" class="node">
<title>Node14</title>
<g id="a_Node000014"><a xlink:title=" ">
<polygon fill="#e0e0e0" stroke="#999999" points="38,-129 0,-129 0,-110 38,-110 38,-129"/>
<text text-anchor="middle" x="19" y="-117" font-family="Helvetica,sans-Serif" font-size="10.00">map</text>
</a>
</g>
</g>
<!-- Node2&#45;&gt;Node14 -->
<g id="edge30_Node000002_Node000014" class="edge">
<title>Node2&#45;&gt;Node14</title>
<g id="a_edge30_Node000002_Node000014"><a xlink:title=" ">
<path fill="none" stroke="#63b8ff" d="M365.92,-274.94C334.3,-267.14 287.92,-254.48 249,-239 170.37,-207.73 82.9,-158.31 42.2,-134.38"/>
<polygon fill="#63b8ff" stroke="#63b8ff" points="43.72,-131.22 33.34,-129.15 40.16,-137.25 43.72,-131.22"/>
</a>
</g>
</g>
<!-- Node24 -->
<g id="Node000024" class="node">
<title>Node24</title>
<g id="a_Node000024"><a xlink:title=" ">
<polygon fill="#e0e0e0" stroke="#999999" points="416,-239 306,-239 306,-220 416,-220 416,-239"/>
<text text-anchor="middle" x="361" y="-227" font-family="Helvetica,sans-Serif" font-size="10.00">realm/processor.inl</text>
</a>
</g>
</g>
<!-- Node2&#45;&gt;Node24 -->
<g id="edge31_Node000002_Node000024" class="edge">
<title>Node2&#45;&gt;Node24</title>
<g id="a_edge31_Node000002_Node000024"><a xlink:title=" ">
<path fill="none" stroke="#63b8ff" d="M396.06,-274.75C390.13,-267.26 381.43,-256.28 374.18,-247.13"/>
<polygon fill="#63b8ff" stroke="#63b8ff" points="376.76,-244.75 367.81,-239.09 371.27,-249.1 376.76,-244.75"/>
</a>
</g>
</g>
<!-- Node4 -->
<g id="Node000004" class="node">
<title>Node4</title>
<g id="a_Node000004"><a xlink:href="realm__config_8h.html" target="_top" xlink:title=" ">
<polygon fill="white" stroke="#666666" points="404,-74 284,-74 284,-55 404,-55 404,-74"/>
<text text-anchor="middle" x="344" y="-62" font-family="Helvetica,sans-Serif" font-size="10.00">realm/realm_config.h</text>
</a>
</g>
</g>
<!-- Node3&#45;&gt;Node4 -->
<g id="edge3_Node000003_Node000004" class="edge">
<title>Node3&#45;&gt;Node4</title>
<g id="a_edge3_Node000003_Node000004"><a xlink:title=" ">
<path fill="none" stroke="#63b8ff" d="M611.66,-110.39C556.18,-101.09 465.08,-85.81 404.82,-75.7"/>
<polygon fill="#63b8ff" stroke="#63b8ff" points="405.13,-72.2 394.69,-74 403.97,-79.11 405.13,-72.2"/>
</a>
</g>
</g>
<!-- Node7 -->
<g id="Node000007" class="node">
<title>Node7</title>
<g id="a_Node000007"><a xlink:title=" ">
<polygon fill="#e0e0e0" stroke="#999999" points="801,-74 745,-74 745,-55 801,-55 801,-74"/>
<text text-anchor="middle" x="773" y="-62" font-family="Helvetica,sans-Serif" font-size="10.00">stddef.h</text>
</a>
</g>
</g>
<!-- Node3&#45;&gt;Node7 -->
<g id="edge6_Node000003_Node000007" class="edge">
<title>Node3&#45;&gt;Node7</title>
<g id="a_edge6_Node000003_Node000007"><a xlink:title=" ">
<path fill="none" stroke="#63b8ff" d="M678.16,-109.98C696.25,-101.5 724.28,-88.35 745.19,-78.54"/>
<polygon fill="#63b8ff" stroke="#63b8ff" points="746.95,-81.59 754.51,-74.17 743.97,-75.25 746.95,-81.59"/>
</a>
</g>
</g>
<!-- Node8 -->
<g id="Node000008" class="node">
<title>Node8</title>
<g id="a_Node000008"><a xlink:title=" ">
<polygon fill="#e0e0e0" stroke="#999999" points="686.5,-74 633.5,-74 633.5,-55 686.5,-55 686.5,-74"/>
<text text-anchor="middle" x="660" y="-62" font-family="Helvetica,sans-Serif" font-size="10.00">stdint.h</text>
</a>
</g>
</g>
<!-- Node3&#45;&gt;Node8 -->
<g id="edge7_Node000003_Node000008" class="edge">
<title>Node3&#45;&gt;Node8</title>
<g id="a_edge7_Node000003_Node000008"><a xlink:title=" ">
<path fill="none" stroke="#63b8ff" d="M660,-109.75C660,-102.8 660,-92.85 660,-84.13"/>
<polygon fill="#63b8ff" stroke="#63b8ff" points="663.5,-84.09 660,-74.09 656.5,-84.09 663.5,-84.09"/>
</a>
</g>
</g>
<!-- Node5 -->
<g id="Node000005" class="node">
<title>Node5</title>
<g id="a_Node000005"><a xlink:href="realm__defines_8h.html" target="_top" xlink:title=" ">
<polygon fill="white" stroke="#666666" points="323.5,-19 228.5,-19 228.5,0 323.5,0 323.5,-19"/>
<text text-anchor="middle" x="276" y="-7" font-family="Helvetica,sans-Serif" font-size="10.00">realm_defines.h</text>
</a>
</g>
</g>
<!-- Node4&#45;&gt;Node5 -->
<g id="edge4_Node000004_Node000005" class="edge">
<title>Node4&#45;&gt;Node5</title>
<g id="a_edge4_Node000004_Node000005"><a xlink:title=" ">
<path fill="none" stroke="#63b8ff" d="M333.07,-54.98C322.92,-47.07 307.58,-35.11 295.35,-25.58"/>
<polygon fill="#63b8ff" stroke="#63b8ff" points="297.16,-22.56 287.12,-19.17 292.86,-28.08 297.16,-22.56"/>
</a>
</g>
</g>
<!-- Node6 -->
<g id="Node000006" class="node">
<title>Node6</title>
<g id="a_Node000006"><a xlink:href="compiler__support_8h.html" target="_top" xlink:title=" ">
<polygon fill="white" stroke="#666666" points="484,-19 342,-19 342,0 484,0 484,-19"/>
<text text-anchor="middle" x="413" y="-7" font-family="Helvetica,sans-Serif" font-size="10.00">realm/compiler_support.h</text>
</a>
</g>
</g>
<!-- Node4&#45;&gt;Node6 -->
<g id="edge5_Node000004_Node000006" class="edge">
<title>Node4&#45;&gt;Node6</title>
<g id="a_edge5_Node000004_Node000006"><a xlink:title=" ">
<path fill="none" stroke="#63b8ff" d="M355.09,-54.98C365.49,-47 381.26,-34.88 393.72,-25.31"/>
<polygon fill="#63b8ff" stroke="#63b8ff" points="395.91,-28.04 401.71,-19.17 391.65,-22.49 395.91,-28.04"/>
</a>
</g>
</g>
<!-- Node9&#45;&gt;Node3 -->
<g id="edge9_Node000009_Node000003" class="edge">
<title>Node9&#45;&gt;Node3</title>
<g id="a_edge9_Node000009_Node000003"><a xlink:title=" ">
<path fill="none" stroke="#63b8ff" d="M511.71,-219.73C504.48,-206.5 493.76,-181.28 506,-165 517.78,-149.33 563.25,-137.43 601.75,-129.89"/>
<polygon fill="#63b8ff" stroke="#63b8ff" points="602.7,-133.28 611.88,-127.98 601.4,-126.4 602.7,-133.28"/>
</a>
</g>
</g>
<!-- Node10 -->
<g id="Node000010" class="node">
<title>Node10</title>
<g id="a_Node000010"><a xlink:href="utils_8h.html" target="_top" xlink:title=" ">
<polygon fill="white" stroke="#666666" points="326,-184 248,-184 248,-165 326,-165 326,-184"/>
<text text-anchor="middle" x="287" y="-172" font-family="Helvetica,sans-Serif" font-size="10.00">realm/utils.h</text>
</a>
</g>
</g>
<!-- Node9&#45;&gt;Node10 -->
<g id="edge10_Node000009_Node000010" class="edge">
<title>Node9&#45;&gt;Node10</title>
<g id="a_edge10_Node000009_Node000010"><a xlink:title=" ">
<path fill="none" stroke="#63b8ff" d="M480.05,-219.98C440.43,-210.86 377.41,-196.33 334.23,-186.38"/>
<polygon fill="#63b8ff" stroke="#63b8ff" points="334.77,-182.92 324.24,-184.08 333.2,-189.74 334.77,-182.92"/>
</a>
</g>
</g>
<!-- Node9&#45;&gt;Node13 -->
<g id="edge25_Node000009_Node000013" class="edge">
<title>Node9&#45;&gt;Node13</title>
<g id="a_edge25_Node000009_Node000013"><a xlink:title=" ">
<path fill="none" stroke="#63b8ff" d="M474.46,-224.64C419.38,-218.98 320.75,-206.57 239,-184 191.17,-170.8 138.11,-147.81 106.98,-133.42"/>
<polygon fill="#63b8ff" stroke="#63b8ff" points="108.22,-130.13 97.67,-129.07 105.25,-136.47 108.22,-130.13"/>
</a>
</g>
</g>
<!-- Node9&#45;&gt;Node19 -->
<g id="edge20_Node000009_Node000019" class="edge">
<title>Node9&#45;&gt;Node19</title>
<g id="a_edge20_Node000009_Node000019"><a xlink:title=" ">
<path fill="none" stroke="#63b8ff" d="M555.4,-219.98C596.74,-210.82 662.6,-196.21 707.49,-186.26"/>
<polygon fill="#63b8ff" stroke="#63b8ff" points="708.29,-189.66 717.3,-184.08 706.78,-182.83 708.29,-189.66"/>
</a>
</g>
</g>
<!-- Node20 -->
<g id="Node000020" class="node">
<title>Node20</title>
<g id="a_Node000020"><a xlink:title=" ">
<polygon fill="#e0e0e0" stroke="#999999" points="786,-129 726,-129 726,-110 786,-110 786,-129"/>
<text text-anchor="middle" x="756" y="-117" font-family="Helvetica,sans-Serif" font-size="10.00">iostream</text>
</a>
</g>
</g>
<!-- Node9&#45;&gt;Node20 -->
<g id="edge27_Node000009_Node000020" class="edge">
<title>Node9&#45;&gt;Node20</title>
<g id="a_edge27_Node000009_Node000020"><a xlink:title=" ">
<path fill="none" stroke="#63b8ff" d="M517.41,-219.61C518.54,-205.75 522.84,-179.13 539,-165 597.39,-113.95 634.99,-143.09 715.71,-129.07"/>
<polygon fill="#63b8ff" stroke="#63b8ff" points="716.62,-132.46 725.78,-127.13 715.3,-125.58 716.62,-132.46"/>
</a>
</g>
</g>
<!-- Node22 -->
<g id="Node000022" class="node">
<title>Node22</title>
<g id="a_Node000022"><a xlink:title=" ">
<polygon fill="#e0e0e0" stroke="#999999" points="580,-184 548,-184 548,-165 580,-165 580,-184"/>
<text text-anchor="middle" x="564" y="-172" font-family="Helvetica,sans-Serif" font-size="10.00">set</text>
</a>
</g>
</g>
<!-- Node9&#45;&gt;Node22 -->
<g id="edge26_Node000009_Node000022" class="edge">
<title>Node9&#45;&gt;Node22</title>
<g id="a_edge26_Node000009_Node000022"><a xlink:title=" ">
<path fill="none" stroke="#63b8ff" d="M524.76,-219.75C531.47,-212.18 541.34,-201.05 549.51,-191.84"/>
<polygon fill="#63b8ff" stroke="#63b8ff" points="552.37,-193.89 556.38,-184.09 547.13,-189.25 552.37,-193.89"/>
</a>
</g>
</g>
<!-- Node23 -->
<g id="Node000023" class="node">
<title>Node23</title>
<g id="a_Node000023"><a xlink:title=" ">
<polygon fill="#e0e0e0" stroke="#999999" points="689.5,-184 598.5,-184 598.5,-165 689.5,-165 689.5,-184"/>
<text text-anchor="middle" x="644" y="-172" font-family="Helvetica,sans-Serif" font-size="10.00">realm/event.inl</text>
</a>
</g>
</g>
<!-- Node9&#45;&gt;Node23 -->
<g id="edge28_Node000009_Node000023" class="edge">
<title>Node9&#45;&gt;Node23</title>
<g id="a_edge28_Node000009_Node000023"><a xlink:title=" ">
<path fill="none" stroke="#63b8ff" d="M537.4,-219.98C558.02,-211.38 590.11,-197.99 613.69,-188.15"/>
<polygon fill="#63b8ff" stroke="#63b8ff" points="615.34,-191.25 623.22,-184.17 612.65,-184.79 615.34,-191.25"/>
</a>
</g>
</g>
<!-- Node10&#45;&gt;Node4 -->
<g id="edge11_Node000010_Node000004" class="edge">
<title>Node10&#45;&gt;Node4</title>
<g id="a_edge11_Node000010_Node000004"><a xlink:title=" ">
<path fill="none" stroke="#63b8ff" d="M247.87,-165.99C211.94,-158.2 162.56,-144.94 151,-129 146.04,-122.16 145.74,-116.61 151,-110 166.34,-90.72 224.99,-79.08 273.65,-72.57"/>
<polygon fill="#63b8ff" stroke="#63b8ff" points="274.39,-76 283.86,-71.26 273.49,-69.06 274.39,-76"/>
</a>
</g>
</g>
<!-- Node11 -->
<g id="Node000011" class="node">
<title>Node11</title>
<g id="a_Node000011"><a xlink:title=" ">
<polygon fill="#e0e0e0" stroke="#999999" points="204,-129 160,-129 160,-110 204,-110 204,-129"/>
<text text-anchor="middle" x="182" y="-117" font-family="Helvetica,sans-Serif" font-size="10.00">string</text>
</a>
</g>
</g>
<!-- Node10&#45;&gt;Node11 -->
<g id="edge12_Node000010_Node000011" class="edge">
<title>Node10&#45;&gt;Node11</title>
<g id="a_edge12_Node000010_Node000011"><a xlink:title=" ">
<path fill="none" stroke="#63b8ff" d="M270.13,-164.98C253.39,-156.54 227.5,-143.47 208.11,-133.68"/>
<polygon fill="#63b8ff" stroke="#63b8ff" points="209.68,-130.55 199.18,-129.17 206.53,-136.8 209.68,-130.55"/>
</a>
</g>
</g>
<!-- Node12 -->
<g id="Node000012" class="node">
<title>Node12</title>
<g id="a_Node000012"><a xlink:title=" ">
<polygon fill="#e0e0e0" stroke="#999999" points="279.5,-129 222.5,-129 222.5,-110 279.5,-110 279.5,-129"/>
<text text-anchor="middle" x="251" y="-117" font-family="Helvetica,sans-Serif" font-size="10.00">ostream</text>
</a>
</g>
</g>
<!-- Node10&#45;&gt;Node12 -->
<g id="edge13_Node000010_Node000012" class="edge">
<title>Node10&#45;&gt;Node12</title>
<g id="a_edge13_Node000010_Node000012"><a xlink:title=" ">
<path fill="none" stroke="#63b8ff" d="M281.06,-164.75C276.02,-157.34 268.66,-146.5 262.49,-137.41"/>
<polygon fill="#63b8ff" stroke="#63b8ff" points="265.35,-135.39 256.83,-129.09 259.56,-139.33 265.35,-135.39"/>
</a>
</g>
</g>
<!-- Node10&#45;&gt;Node13 -->
<g id="edge14_Node000010_Node000013" class="edge">
<title>Node10&#45;&gt;Node13</title>
<g id="a_edge14_Node000010_Node000013"><a xlink:title=" ">
<path fill="none" stroke="#63b8ff" d="M253.74,-164.98C215.13,-155.1 151.84,-138.89 113.24,-129.01"/>
<polygon fill="#63b8ff" stroke="#63b8ff" points="114.07,-125.61 103.52,-126.52 112.34,-132.39 114.07,-125.61"/>
</a>
</g>
</g>
<!-- Node10&#45;&gt;Node14 -->
<g id="edge15_Node000010_Node000014" class="edge">
<title>Node10&#45;&gt;Node14</title>
<g id="a_edge15_Node000010_Node000014"><a xlink:title=" ">
<path fill="none" stroke="#63b8ff" d="M247.64,-167.58C201.91,-160.41 124.05,-147.25 48.38,-129.11"/>
<polygon fill="#63b8ff" stroke="#63b8ff" points="48.75,-125.6 38.2,-126.64 47.09,-132.4 48.75,-125.6"/>
</a>
</g>
</g>
<!-- Node15 -->
<g id="Node000015" class="node">
<title>Node15</title>
<g id="a_Node000015"><a xlink:title=" ">
<polygon fill="#e0e0e0" stroke="#999999" points="350,-129 298,-129 298,-110 350,-110 350,-129"/>
<text text-anchor="middle" x="324" y="-117" font-family="Helvetica,sans-Serif" font-size="10.00">cassert</text>
</a>
</g>
</g>
<!-- Node10&#45;&gt;Node15 -->
<g id="edge16_Node000010_Node000015" class="edge">
<title>Node10&#45;&gt;Node15</title>
<g id="a_edge16_Node000010_Node000015"><a xlink:title=" ">
<path fill="none" stroke="#63b8ff" d="M293.11,-164.75C298.28,-157.34 305.85,-146.5 312.19,-137.41"/>
<polygon fill="#63b8ff" stroke="#63b8ff" points="315.15,-139.29 318,-129.09 309.41,-135.29 315.15,-139.29"/>
</a>
</g>
</g>
<!-- Node16 -->
<g id="Node000016" class="node">
<title>Node16</title>
<g id="a_Node000016"><a xlink:title=" ">
<polygon fill="#e0e0e0" stroke="#999999" points="418,-129 368,-129 368,-110 418,-110 418,-129"/>
<text text-anchor="middle" x="393" y="-117" font-family="Helvetica,sans-Serif" font-size="10.00">cstdint</text>
</a>
</g>
</g>
<!-- Node10&#45;&gt;Node16 -->
<g id="edge17_Node000010_Node000016" class="edge">
<title>Node10&#45;&gt;Node16</title>
<g id="a_edge17_Node000010_Node000016"><a xlink:title=" ">
<path fill="none" stroke="#63b8ff" d="M304.03,-164.98C320.93,-156.54 347.06,-143.47 366.64,-133.68"/>
<polygon fill="#63b8ff" stroke="#63b8ff" points="368.28,-136.77 375.66,-129.17 365.15,-130.51 368.28,-136.77"/>
</a>
</g>
</g>
<!-- Node17 -->
<g id="Node000017" class="node">
<title>Node17</title>
<g id="a_Node000017"><a xlink:title=" ">
<polygon fill="#e0e0e0" stroke="#999999" points="492,-129 436,-129 436,-110 492,-110 492,-129"/>
<text text-anchor="middle" x="464" y="-117" font-family="Helvetica,sans-Serif" font-size="10.00">sstream</text>
</a>
</g>
</g>
<!-- Node10&#45;&gt;Node17 -->
<g id="edge18_Node000010_Node000017" class="edge">
<title>Node10&#45;&gt;Node17</title>
<g id="a_edge18_Node000010_Node000017"><a xlink:title=" ">
<path fill="none" stroke="#63b8ff" d="M315.44,-164.98C345.46,-155.99 392.94,-141.78 426.12,-131.84"/>
<polygon fill="#63b8ff" stroke="#63b8ff" points="427.35,-135.13 435.92,-128.91 425.34,-128.42 427.35,-135.13"/>
</a>
</g>
</g>
<!-- Node18 -->
<g id="Node000018" class="node">
<title>Node18</title>
<g id="a_Node000018"><a xlink:title=" ">
<polygon fill="#e0e0e0" stroke="#999999" points="594,-129 510,-129 510,-110 594,-110 594,-129"/>
<text text-anchor="middle" x="552" y="-117" font-family="Helvetica,sans-Serif" font-size="10.00">realm/utils.inl</text>
</a>
</g>
</g>
<!-- Node10&#45;&gt;Node18 -->
<g id="edge19_Node000010_Node000018" class="edge">
<title>Node10&#45;&gt;Node18</title>
<g id="a_edge19_Node000010_Node000018"><a xlink:title=" ">
<path fill="none" stroke="#63b8ff" d="M326.1,-165.68C372.13,-156.47 448.75,-141.15 499.81,-130.94"/>
<polygon fill="#63b8ff" stroke="#63b8ff" points="500.55,-134.36 509.67,-128.97 499.17,-127.5 500.55,-134.36"/>
</a>
</g>
</g>
<!-- Node19&#45;&gt;Node3 -->
<g id="edge21_Node000019_Node000003" class="edge">
<title>Node19&#45;&gt;Node3</title>
<g id="a_edge21_Node000019_Node000003"><a xlink:title=" ">
<path fill="none" stroke="#63b8ff" d="M740.58,-164.98C725.55,-156.69 702.46,-143.94 684.84,-134.22"/>
<polygon fill="#63b8ff" stroke="#63b8ff" points="686.15,-130.94 675.7,-129.17 682.77,-137.07 686.15,-130.94"/>
</a>
</g>
</g>
<!-- Node19&#45;&gt;Node7 -->
<g id="edge22_Node000019_Node000007" class="edge">
<title>Node19&#45;&gt;Node7</title>
<g id="a_edge22_Node000019_Node000007"><a xlink:title=" ">
<path fill="none" stroke="#63b8ff" d="M766.99,-164.99C776.45,-156.9 789.43,-143.81 795,-129 800.88,-113.36 793.3,-95.34 785.47,-82.5"/>
<polygon fill="#63b8ff" stroke="#63b8ff" points="788.38,-80.56 779.92,-74.18 782.56,-84.44 788.38,-80.56"/>
</a>
</g>
</g>
<!-- Node19&#45;&gt;Node20 -->
<g id="edge23_Node000019_Node000020" class="edge">
<title>Node19&#45;&gt;Node20</title>
<g id="a_edge23_Node000019_Node000020"><a xlink:title=" ">
<path fill="none" stroke="#63b8ff" d="M756,-164.75C756,-157.8 756,-147.85 756,-139.13"/>
<polygon fill="#63b8ff" stroke="#63b8ff" points="759.5,-139.09 756,-129.09 752.5,-139.09 759.5,-139.09"/>
</a>
</g>
</g>
<!-- Node21 -->
<g id="Node000021" class="node">
<title>Node21</title>
<g id="a_Node000021"><a xlink:title=" ">
<polygon fill="#e0e0e0" stroke="#999999" points="907.5,-129 842.5,-129 842.5,-110 907.5,-110 907.5,-129"/>
<text text-anchor="middle" x="875" y="-117" font-family="Helvetica,sans-Serif" font-size="10.00">functional</text>
</a>
</g>
</g>
<!-- Node19&#45;&gt;Node21 -->
<g id="edge24_Node000019_Node000021" class="edge">
<title>Node19&#45;&gt;Node21</title>
<g id="a_edge24_Node000019_Node000021"><a xlink:title=" ">
<path fill="none" stroke="#63b8ff" d="M775.12,-164.98C794.35,-156.42 824.23,-143.11 846.31,-133.28"/>
<polygon fill="#63b8ff" stroke="#63b8ff" points="847.82,-136.44 855.53,-129.17 844.97,-130.04 847.82,-136.44"/>
</a>
</g>
</g>
</g>
</svg>
