<?xml version="1.0" encoding="UTF-8" standalone="no"?>
<!DOCTYPE svg PUBLIC "-//W3C//DTD SVG 1.1//EN"
 "http://www.w3.org/Graphics/SVG/1.1/DTD/svg11.dtd">
<!-- Generated by graphviz version 2.43.0 (0)
 -->
<!-- Title: /home/runner/work/realm/realm/realm&#45;src/src/realm/machine_impl.h Pages: 1 -->
<svg width="1696pt" height="357pt"
 viewBox="0.00 0.00 1696.00 357.00" xmlns="http://www.w3.org/2000/svg" xmlns:xlink="http://www.w3.org/1999/xlink">
<g id="graph0" class="graph" transform="scale(1 1) rotate(0) translate(4 353)">
<title>/home/runner/work/realm/realm/realm&#45;src/src/realm/machine_impl.h</title>
<!-- Node1 -->
<g id="Node000001" class="node">
<title>Node1</title>
<g id="a_Node000001"><a xlink:title=" ">
<polygon fill="#999999" stroke="#666666" points="699,-349 553,-349 553,-308 699,-308 699,-349"/>
<text text-anchor="start" x="561" y="-337" font-family="Helvetica,sans-Serif" font-size="10.00">/home/runner/work/realm</text>
<text text-anchor="start" x="561" y="-326" font-family="Helvetica,sans-Serif" font-size="10.00">/realm/realm&#45;src/src/realm</text>
<text text-anchor="middle" x="626" y="-315" font-family="Helvetica,sans-Serif" font-size="10.00">/machine_impl.h</text>
</a>
</g>
</g>
<!-- Node2 -->
<g id="Node000002" class="node">
<title>Node2</title>
<g id="a_Node000002"><a xlink:href="runtime__impl_8h.html" target="_top" xlink:title=" ">
<polygon fill="white" stroke="#666666" points="699,-272 553,-272 553,-231 699,-231 699,-272"/>
<text text-anchor="start" x="561" y="-260" font-family="Helvetica,sans-Serif" font-size="10.00">/home/runner/work/realm</text>
<text text-anchor="start" x="561" y="-249" font-family="Helvetica,sans-Serif" font-size="10.00">/realm/realm&#45;src/src/realm</text>
<text text-anchor="middle" x="626" y="-238" font-family="Helvetica,sans-Serif" font-size="10.00">/runtime_impl.h</text>
</a>
</g>
</g>
<!-- Node1&#45;&gt;Node2 -->
<g id="edge1_Node000001_Node000002" class="edge">
<title>Node1&#45;&gt;Node2</title>
<g id="a_edge1_Node000001_Node000002"><a xlink:title=" ">
<path fill="none" stroke="#63b8ff" d="M626,-297.69C626,-289.08 626,-279.9 626,-272.07"/>
<polygon fill="#63b8ff" stroke="#63b8ff" points="622.5,-297.79 626,-307.79 629.5,-297.79 622.5,-297.79"/>
</a>
</g>
</g>
<!-- Node3 -->
<g id="Node000003" class="node">
<title>Node3</title>
<g id="a_Node000003"><a xlink:href="proc__impl_8h.html" target="_top" xlink:title=" ">
<polygon fill="white" stroke="#666666" points="1272,-195 1126,-195 1126,-154 1272,-154 1272,-195"/>
<text text-anchor="start" x="1134" y="-183" font-family="Helvetica,sans-Serif" font-size="10.00">/home/runner/work/realm</text>
<text text-anchor="start" x="1134" y="-172" font-family="Helvetica,sans-Serif" font-size="10.00">/realm/realm&#45;src/src/realm</text>
<text text-anchor="middle" x="1199" y="-161" font-family="Helvetica,sans-Serif" font-size="10.00">/proc_impl.h</text>
</a>
</g>
</g>
<!-- Node2&#45;&gt;Node3 -->
<g id="edge2_Node000002_Node000003" class="edge">
<title>Node2&#45;&gt;Node3</title>
<g id="a_edge2_Node000002_Node000003"><a xlink:title=" ">
<path fill="none" stroke="#63b8ff" d="M709.4,-239.58C821.55,-224.9 1019.18,-199.04 1125.83,-185.08"/>
<polygon fill="#63b8ff" stroke="#63b8ff" points="708.61,-236.16 699.15,-240.93 709.52,-243.1 708.61,-236.16"/>
</a>
</g>
</g>
<!-- Node9 -->
<g id="Node000009" class="node">
<title>Node9</title>
<g id="a_Node000009"><a xlink:href="channel_8h.html" target="_top" xlink:title=" ">
<polygon fill="white" stroke="#666666" points="699,-195 553,-195 553,-154 699,-154 699,-195"/>
<text text-anchor="start" x="561" y="-183" font-family="Helvetica,sans-Serif" font-size="10.00">/home/runner/work/realm</text>
<text text-anchor="start" x="561" y="-172" font-family="Helvetica,sans-Serif" font-size="10.00">/realm/realm&#45;src/src/realm</text>
<text text-anchor="middle" x="626" y="-161" font-family="Helvetica,sans-Serif" font-size="10.00">/transfer/channel.h</text>
</a>
</g>
</g>
<!-- Node2&#45;&gt;Node9 -->
<g id="edge8_Node000002_Node000009" class="edge">
<title>Node2&#45;&gt;Node9</title>
<g id="a_edge8_Node000002_Node000009"><a xlink:title=" ">
<path fill="none" stroke="#63b8ff" d="M626,-220.69C626,-212.08 626,-202.9 626,-195.07"/>
<polygon fill="#63b8ff" stroke="#63b8ff" points="622.5,-220.79 626,-230.79 629.5,-220.79 622.5,-220.79"/>
</a>
</g>
</g>
<!-- Node13 -->
<g id="Node000013" class="node">
<title>Node13</title>
<g id="a_Node000013"><a xlink:href="lowlevel__dma_8h.html" target="_top" xlink:title=" ">
<polygon fill="white" stroke="#666666" points="146,-118 0,-118 0,-77 146,-77 146,-118"/>
<text text-anchor="start" x="8" y="-106" font-family="Helvetica,sans-Serif" font-size="10.00">/home/runner/work/realm</text>
<text text-anchor="start" x="8" y="-95" font-family="Helvetica,sans-Serif" font-size="10.00">/realm/realm&#45;src/src/realm</text>
<text text-anchor="middle" x="73" y="-84" font-family="Helvetica,sans-Serif" font-size="10.00">/transfer/lowlevel_dma.h</text>
</a>
</g>
</g>
<!-- Node2&#45;&gt;Node13 -->
<g id="edge18_Node000002_Node000013" class="edge">
<title>Node2&#45;&gt;Node13</title>
<g id="a_edge18_Node000002_Node000013"><a xlink:title=" ">
<path fill="none" stroke="#63b8ff" d="M544.96,-228.22C436.88,-198.52 247.25,-146.39 144.33,-118.11"/>
<polygon fill="#63b8ff" stroke="#63b8ff" points="544.27,-231.66 554.84,-230.94 546.12,-224.91 544.27,-231.66"/>
</a>
</g>
</g>
<!-- Node4 -->
<g id="Node000004" class="node">
<title>Node4</title>
<g id="a_Node000004"><a xlink:href="cuda__internal_8h.html" target="_top" xlink:title=" ">
<polygon fill="white" stroke="#666666" points="1024,-118 878,-118 878,-77 1024,-77 1024,-118"/>
<text text-anchor="start" x="886" y="-106" font-family="Helvetica,sans-Serif" font-size="10.00">/home/runner/work/realm</text>
<text text-anchor="start" x="886" y="-95" font-family="Helvetica,sans-Serif" font-size="10.00">/realm/realm&#45;src/src/realm</text>
<text text-anchor="middle" x="951" y="-84" font-family="Helvetica,sans-Serif" font-size="10.00">/cuda/cuda_internal.h</text>
</a>
</g>
</g>
<!-- Node3&#45;&gt;Node4 -->
<g id="edge3_Node000003_Node000004" class="edge">
<title>Node3&#45;&gt;Node4</title>
<g id="a_edge3_Node000003_Node000004"><a xlink:title=" ">
<path fill="none" stroke="#63b8ff" d="M1124.86,-151.08C1090.11,-140.57 1049.09,-128.16 1015.62,-118.04"/>
<polygon fill="#63b8ff" stroke="#63b8ff" points="1123.9,-154.45 1134.49,-153.99 1125.93,-147.75 1123.9,-154.45"/>
</a>
</g>
</g>
<!-- Node5 -->
<g id="Node000005" class="node">
<title>Node5</title>
<g id="a_Node000005"><a xlink:href="hip__internal_8h.html" target="_top" xlink:title=" ">
<polygon fill="white" stroke="#666666" points="1188,-118 1042,-118 1042,-77 1188,-77 1188,-118"/>
<text text-anchor="start" x="1050" y="-106" font-family="Helvetica,sans-Serif" font-size="10.00">/home/runner/work/realm</text>
<text text-anchor="start" x="1050" y="-95" font-family="Helvetica,sans-Serif" font-size="10.00">/realm/realm&#45;src/src/realm</text>
<text text-anchor="middle" x="1115" y="-84" font-family="Helvetica,sans-Serif" font-size="10.00">/hip/hip_internal.h</text>
</a>
</g>
</g>
<!-- Node3&#45;&gt;Node5 -->
<g id="edge4_Node000003_Node000005" class="edge">
<title>Node3&#45;&gt;Node5</title>
<g id="a_edge4_Node000003_Node000005"><a xlink:title=" ">
<path fill="none" stroke="#63b8ff" d="M1169.4,-147.07C1158.71,-137.52 1146.84,-126.93 1136.92,-118.07"/>
<polygon fill="#63b8ff" stroke="#63b8ff" points="1167.14,-149.75 1176.93,-153.79 1171.8,-144.52 1167.14,-149.75"/>
</a>
</g>
</g>
<!-- Node6 -->
<g id="Node000006" class="node">
<title>Node6</title>
<g id="a_Node000006"><a xlink:href="kokkos__interop_8h.html" target="_top" xlink:title=" ">
<polygon fill="white" stroke="#666666" points="1688,-118 1542,-118 1542,-77 1688,-77 1688,-118"/>
<text text-anchor="start" x="1550" y="-106" font-family="Helvetica,sans-Serif" font-size="10.00">/home/runner/work/realm</text>
<text text-anchor="start" x="1550" y="-95" font-family="Helvetica,sans-Serif" font-size="10.00">/realm/realm&#45;src/src/realm</text>
<text text-anchor="middle" x="1615" y="-84" font-family="Helvetica,sans-Serif" font-size="10.00">/kokkos/kokkos_interop.h</text>
</a>
</g>
</g>
<!-- Node3&#45;&gt;Node6 -->
<g id="edge5_Node000003_Node000006" class="edge">
<title>Node3&#45;&gt;Node6</title>
<g id="a_edge5_Node000003_Node000006"><a xlink:title=" ">
<path fill="none" stroke="#63b8ff" d="M1282.43,-161.27C1350.17,-150.94 1448.05,-135.14 1533,-118 1535.87,-117.42 1538.79,-116.81 1541.74,-116.19"/>
<polygon fill="#63b8ff" stroke="#63b8ff" points="1281.6,-157.85 1272.24,-162.81 1282.65,-164.77 1281.6,-157.85"/>
</a>
</g>
</g>
<!-- Node7 -->
<g id="Node000007" class="node">
<title>Node7</title>
<g id="a_Node000007"><a xlink:href="openmp__internal_8h.html" target="_top" xlink:title=" ">
<polygon fill="white" stroke="#666666" points="1360,-118 1206,-118 1206,-77 1360,-77 1360,-118"/>
<text text-anchor="start" x="1214" y="-106" font-family="Helvetica,sans-Serif" font-size="10.00">/home/runner/work/realm</text>
<text text-anchor="start" x="1214" y="-95" font-family="Helvetica,sans-Serif" font-size="10.00">/realm/realm&#45;src/src/realm</text>
<text text-anchor="middle" x="1283" y="-84" font-family="Helvetica,sans-Serif" font-size="10.00">/openmp/openmp_internal.h</text>
</a>
</g>
</g>
<!-- Node3&#45;&gt;Node7 -->
<g id="edge6_Node000003_Node000007" class="edge">
<title>Node3&#45;&gt;Node7</title>
<g id="a_edge6_Node000003_Node000007"><a xlink:title=" ">
<path fill="none" stroke="#63b8ff" d="M1228.6,-147.07C1239.29,-137.52 1251.16,-126.93 1261.08,-118.07"/>
<polygon fill="#63b8ff" stroke="#63b8ff" points="1226.2,-144.52 1221.07,-153.79 1230.86,-149.75 1226.2,-144.52"/>
</a>
</g>
</g>
<!-- Node8 -->
<g id="Node000008" class="node">
<title>Node8</title>
<g id="a_Node000008"><a xlink:href="python__internal_8h.html" target="_top" xlink:title=" ">
<polygon fill="white" stroke="#666666" points="1524,-118 1378,-118 1378,-77 1524,-77 1524,-118"/>
<text text-anchor="start" x="1386" y="-106" font-family="Helvetica,sans-Serif" font-size="10.00">/home/runner/work/realm</text>
<text text-anchor="start" x="1386" y="-95" font-family="Helvetica,sans-Serif" font-size="10.00">/realm/realm&#45;src/src/realm</text>
<text text-anchor="middle" x="1451" y="-84" font-family="Helvetica,sans-Serif" font-size="10.00">/python/python_internal.h</text>
</a>
</g>
</g>
<!-- Node3&#45;&gt;Node8 -->
<g id="edge7_Node000003_Node000008" class="edge">
<title>Node3&#45;&gt;Node8</title>
<g id="a_edge7_Node000003_Node000008"><a xlink:title=" ">
<path fill="none" stroke="#63b8ff" d="M1274.33,-151.08C1309.65,-140.57 1351.33,-128.16 1385.34,-118.04"/>
<polygon fill="#63b8ff" stroke="#63b8ff" points="1273.14,-147.78 1264.55,-153.99 1275.14,-154.49 1273.14,-147.78"/>
</a>
</g>
</g>
<!-- Node9&#45;&gt;Node4 -->
<g id="edge9_Node000009_Node000004" class="edge">
<title>Node9&#45;&gt;Node4</title>
<g id="a_edge9_Node000009_Node000004"><a xlink:title=" ">
<path fill="none" stroke="#63b8ff" d="M708.97,-154.74C755.95,-144.07 815.79,-130.4 869,-118 871.85,-117.34 874.76,-116.66 877.69,-115.97"/>
<polygon fill="#63b8ff" stroke="#63b8ff" points="708.12,-151.35 699.14,-156.97 709.67,-158.17 708.12,-151.35"/>
</a>
</g>
</g>
<!-- Node9&#45;&gt;Node5 -->
<g id="edge11_Node000009_Node000005" class="edge">
<title>Node9&#45;&gt;Node5</title>
<g id="a_edge11_Node000009_Node000005"><a xlink:title=" ">
<path fill="none" stroke="#63b8ff" d="M709.21,-164.57C791.73,-155.15 921.62,-138.78 1033,-118 1035.88,-117.46 1038.8,-116.89 1041.76,-116.29"/>
<polygon fill="#63b8ff" stroke="#63b8ff" points="708.67,-161.11 699.13,-165.71 709.46,-168.06 708.67,-161.11"/>
</a>
</g>
</g>
<!-- Node10 -->
<g id="Node000010" class="node">
<title>Node10</title>
<g id="a_Node000010"><a xlink:href="hdf5__internal_8h.html" target="_top" xlink:title=" ">
<polygon fill="white" stroke="#666666" points="447,-41 301,-41 301,0 447,0 447,-41"/>
<text text-anchor="start" x="309" y="-29" font-family="Helvetica,sans-Serif" font-size="10.00">/home/runner/work/realm</text>
<text text-anchor="start" x="309" y="-18" font-family="Helvetica,sans-Serif" font-size="10.00">/realm/realm&#45;src/src/realm</text>
<text text-anchor="middle" x="374" y="-7" font-family="Helvetica,sans-Serif" font-size="10.00">/hdf5/hdf5_internal.h</text>
</a>
</g>
</g>
<!-- Node9&#45;&gt;Node10 -->
<g id="edge10_Node000009_Node000010" class="edge">
<title>Node9&#45;&gt;Node10</title>
<g id="a_edge10_Node000009_Node000010"><a xlink:title=" ">
<path fill="none" stroke="#63b8ff" d="M647.99,-145.27C661.36,-124.46 673.05,-96.5 657,-77 630.91,-45.3 522.11,-31.44 447.27,-25.57"/>
<polygon fill="#63b8ff" stroke="#63b8ff" points="644.98,-143.47 642.24,-153.7 650.77,-147.42 644.98,-143.47"/>
</a>
</g>
</g>
<!-- Node11 -->
<g id="Node000011" class="node">
<title>Node11</title>
<g id="a_Node000011"><a xlink:href="addrsplit__channel_8h.html" target="_top" xlink:title=" ">
<polygon fill="white" stroke="#666666" points="860,-118 704,-118 704,-77 860,-77 860,-118"/>
<text text-anchor="start" x="712" y="-106" font-family="Helvetica,sans-Serif" font-size="10.00">/home/runner/work/realm</text>
<text text-anchor="start" x="712" y="-95" font-family="Helvetica,sans-Serif" font-size="10.00">/realm/realm&#45;src/src/realm</text>
<text text-anchor="middle" x="782" y="-84" font-family="Helvetica,sans-Serif" font-size="10.00">/transfer/addrsplit_channel.h</text>
</a>
</g>
</g>
<!-- Node9&#45;&gt;Node11 -->
<g id="edge12_Node000009_Node000011" class="edge">
<title>Node9&#45;&gt;Node11</title>
<g id="a_edge12_Node000009_Node000011"><a xlink:title=" ">
<path fill="none" stroke="#63b8ff" d="M675.74,-149.59C696.91,-139.41 721.29,-127.69 741.35,-118.04"/>
<polygon fill="#63b8ff" stroke="#63b8ff" points="674.08,-146.5 666.58,-153.99 677.11,-152.81 674.08,-146.5"/>
</a>
</g>
</g>
<!-- Node12 -->
<g id="Node000012" class="node">
<title>Node12</title>
<g id="a_Node000012"><a xlink:href="channel__disk_8h.html" target="_top" xlink:title=" ">
<polygon fill="white" stroke="#666666" points="310,-118 164,-118 164,-77 310,-77 310,-118"/>
<text text-anchor="start" x="172" y="-106" font-family="Helvetica,sans-Serif" font-size="10.00">/home/runner/work/realm</text>
<text text-anchor="start" x="172" y="-95" font-family="Helvetica,sans-Serif" font-size="10.00">/realm/realm&#45;src/src/realm</text>
<text text-anchor="middle" x="237" y="-84" font-family="Helvetica,sans-Serif" font-size="10.00">/transfer/channel_disk.h</text>
</a>
</g>
</g>
<!-- Node9&#45;&gt;Node12 -->
<g id="edge13_Node000009_Node000012" class="edge">
<title>Node9&#45;&gt;Node12</title>
<g id="a_edge13_Node000009_Node000012"><a xlink:title=" ">
<path fill="none" stroke="#63b8ff" d="M542.8,-159.72C480.9,-149.17 394.46,-133.78 319,-118 316.14,-117.4 313.22,-116.78 310.27,-116.13"/>
<polygon fill="#63b8ff" stroke="#63b8ff" points="542.45,-163.22 552.9,-161.44 543.63,-156.31 542.45,-163.22"/>
</a>
</g>
</g>
<!-- Node9&#45;&gt;Node13 -->
<g id="edge14_Node000009_Node000013" class="edge">
<title>Node9&#45;&gt;Node13</title>
<g id="a_edge14_Node000009_Node000013"><a xlink:title=" ">
<path fill="none" stroke="#63b8ff" d="M542.93,-166.65C448.5,-158.19 289.94,-141.91 155,-118 152.12,-117.49 149.19,-116.94 146.23,-116.36"/>
<polygon fill="#63b8ff" stroke="#63b8ff" points="542.73,-170.15 553,-167.55 543.35,-163.18 542.73,-170.15"/>
</a>
</g>
</g>
<!-- Node14 -->
<g id="Node000014" class="node">
<title>Node14</title>
<g id="a_Node000014"><a xlink:href="memcpy__channel_8h.html" target="_top" xlink:title=" ">
<polygon fill="white" stroke="#666666" points="484,-118 328,-118 328,-77 484,-77 484,-118"/>
<text text-anchor="start" x="336" y="-106" font-family="Helvetica,sans-Serif" font-size="10.00">/home/runner/work/realm</text>
<text text-anchor="start" x="336" y="-95" font-family="Helvetica,sans-Serif" font-size="10.00">/realm/realm&#45;src/src/realm</text>
<text text-anchor="middle" x="406" y="-84" font-family="Helvetica,sans-Serif" font-size="10.00">/transfer/memcpy_channel.h</text>
</a>
</g>
</g>
<!-- Node9&#45;&gt;Node14 -->
<g id="edge16_Node000009_Node000014" class="edge">
<title>Node9&#45;&gt;Node14</title>
<g id="a_edge16_Node000009_Node000014"><a xlink:title=" ">
<path fill="none" stroke="#63b8ff" d="M559.05,-150.67C528.47,-140.25 492.63,-128.03 463.32,-118.04"/>
<polygon fill="#63b8ff" stroke="#63b8ff" points="558.18,-154.08 568.77,-153.99 560.44,-147.45 558.18,-154.08"/>
</a>
</g>
</g>
<!-- Node15 -->
<g id="Node000015" class="node">
<title>Node15</title>
<g id="a_Node000015"><a xlink:href="transfer_8h.html" target="_top" xlink:title=" ">
<polygon fill="white" stroke="#666666" points="648,-118 502,-118 502,-77 648,-77 648,-118"/>
<text text-anchor="start" x="510" y="-106" font-family="Helvetica,sans-Serif" font-size="10.00">/home/runner/work/realm</text>
<text text-anchor="start" x="510" y="-95" font-family="Helvetica,sans-Serif" font-size="10.00">/realm/realm&#45;src/src/realm</text>
<text text-anchor="middle" x="575" y="-84" font-family="Helvetica,sans-Serif" font-size="10.00">/transfer/transfer.h</text>
</a>
</g>
</g>
<!-- Node9&#45;&gt;Node15 -->
<g id="edge17_Node000009_Node000015" class="edge">
<title>Node9&#45;&gt;Node15</title>
<g id="a_edge17_Node000009_Node000015"><a xlink:title=" ">
<path fill="none" stroke="#63b8ff" d="M606.89,-145.39C600.7,-136.3 593.98,-126.41 588.31,-118.07"/>
<polygon fill="#63b8ff" stroke="#63b8ff" points="604.08,-147.49 612.6,-153.79 609.87,-143.56 604.08,-147.49"/>
</a>
</g>
</g>
<!-- Node13&#45;&gt;Node10 -->
<g id="edge15_Node000013_Node000010" class="edge">
<title>Node13&#45;&gt;Node10</title>
<g id="a_edge15_Node000013_Node000010"><a xlink:title=" ">
<path fill="none" stroke="#63b8ff" d="M156.07,-75.8C201.48,-64.49 257.21,-50.6 300.95,-39.7"/>
<polygon fill="#63b8ff" stroke="#63b8ff" points="155.11,-72.43 146.25,-78.25 156.8,-79.23 155.11,-72.43"/>
</a>
</g>
</g>
</g>
</svg>
