<?xml version="1.0" encoding="UTF-8" standalone="no"?>
<!DOCTYPE svg PUBLIC "-//W3C//DTD SVG 1.1//EN"
 "http://www.w3.org/Graphics/SVG/1.1/DTD/svg11.dtd">
<!-- Generated by graphviz version 2.43.0 (0)
 -->
<!-- Title: /home/runner/work/realm/realm/realm&#45;src/src/realm/machine.h Pages: 1 -->
<svg width="1004pt" height="379pt"
 viewBox="0.00 0.00 1003.50 379.00" xmlns="http://www.w3.org/2000/svg" xmlns:xlink="http://www.w3.org/1999/xlink">
<g id="graph0" class="graph" transform="scale(1 1) rotate(0) translate(4 375)">
<title>/home/runner/work/realm/realm/realm&#45;src/src/realm/machine.h</title>
<!-- Node1 -->
<g id="Node000001" class="node">
<title>Node1</title>
<g id="a_Node000001"><a xlink:title=" ">
<polygon fill="#999999" stroke="#666666" points="891,-371 745,-371 745,-330 891,-330 891,-371"/>
<text text-anchor="start" x="753" y="-359" font-family="Helvetica,sans-Serif" font-size="10.00">/home/runner/work/realm</text>
<text text-anchor="start" x="753" y="-348" font-family="Helvetica,sans-Serif" font-size="10.00">/realm/realm&#45;src/src/realm</text>
<text text-anchor="middle" x="818" y="-337" font-family="Helvetica,sans-Serif" font-size="10.00">/machine.h</text>
</a>
</g>
</g>
<!-- Node2 -->
<g id="Node000002" class="node">
<title>Node2</title>
<g id="a_Node000002"><a xlink:href="processor_8h.html" target="_top" xlink:title=" ">
<polygon fill="white" stroke="#666666" points="548,-294 444,-294 444,-275 548,-275 548,-294"/>
<text text-anchor="middle" x="496" y="-282" font-family="Helvetica,sans-Serif" font-size="10.00">realm/processor.h</text>
</a>
</g>
</g>
<!-- Node1&#45;&gt;Node2 -->
<g id="edge1_Node000001_Node000002" class="edge">
<title>Node1&#45;&gt;Node2</title>
<g id="a_edge1_Node000001_Node000002"><a xlink:title=" ">
<path fill="none" stroke="#63b8ff" d="M744.93,-334.98C685.32,-323.13 602.49,-306.67 549.07,-296.05"/>
<polygon fill="#63b8ff" stroke="#63b8ff" points="549.61,-292.59 539.12,-294.07 548.24,-299.45 549.61,-292.59"/>
</a>
</g>
</g>
<!-- Node19 -->
<g id="Node000019" class="node">
<title>Node19</title>
<g id="a_Node000019"><a xlink:href="memory_8h.html" target="_top" xlink:title=" ">
<polygon fill="white" stroke="#666666" points="859.5,-184 762.5,-184 762.5,-165 859.5,-165 859.5,-184"/>
<text text-anchor="middle" x="811" y="-172" font-family="Helvetica,sans-Serif" font-size="10.00">realm/memory.h</text>
</a>
</g>
</g>
<!-- Node1&#45;&gt;Node19 -->
<g id="edge31_Node000001_Node000019" class="edge">
<title>Node1&#45;&gt;Node19</title>
<g id="a_edge31_Node000001_Node000019"><a xlink:title=" ">
<path fill="none" stroke="#63b8ff" d="M814.9,-329.78C813.39,-319.2 811.75,-305.92 811,-294 808.79,-258.87 809.54,-217.77 810.27,-194.37"/>
<polygon fill="#63b8ff" stroke="#63b8ff" points="813.78,-194.25 810.63,-184.14 806.78,-194.01 813.78,-194.25"/>
</a>
</g>
</g>
<!-- Node24 -->
<g id="Node000024" class="node">
<title>Node24</title>
<g id="a_Node000024"><a xlink:title=" ">
<polygon fill="#e0e0e0" stroke="#999999" points="872.5,-294 819.5,-294 819.5,-275 872.5,-275 872.5,-294"/>
<text text-anchor="middle" x="846" y="-282" font-family="Helvetica,sans-Serif" font-size="10.00">iterator</text>
</a>
</g>
</g>
<!-- Node1&#45;&gt;Node24 -->
<g id="edge32_Node000001_Node000024" class="edge">
<title>Node1&#45;&gt;Node24</title>
<g id="a_edge32_Node000001_Node000024"><a xlink:title=" ">
<path fill="none" stroke="#63b8ff" d="M826.55,-329.95C830.22,-321.58 834.47,-311.85 838.06,-303.64"/>
<polygon fill="#63b8ff" stroke="#63b8ff" points="841.37,-304.83 842.17,-294.26 834.95,-302.02 841.37,-304.83"/>
</a>
</g>
</g>
<!-- Node25 -->
<g id="Node000025" class="node">
<title>Node25</title>
<g id="a_Node000025"><a xlink:title=" ">
<polygon fill="#e0e0e0" stroke="#999999" points="995.5,-294 890.5,-294 890.5,-275 995.5,-275 995.5,-294"/>
<text text-anchor="middle" x="943" y="-282" font-family="Helvetica,sans-Serif" font-size="10.00">realm/machine.inl</text>
</a>
</g>
</g>
<!-- Node1&#45;&gt;Node25 -->
<g id="edge33_Node000001_Node000025" class="edge">
<title>Node1&#45;&gt;Node25</title>
<g id="a_edge33_Node000001_Node000025"><a xlink:title=" ">
<path fill="none" stroke="#63b8ff" d="M856.18,-329.95C875.93,-319.84 899.52,-307.76 917.12,-298.75"/>
<polygon fill="#63b8ff" stroke="#63b8ff" points="918.91,-301.76 926.22,-294.09 915.72,-295.53 918.91,-301.76"/>
</a>
</g>
</g>
<!-- Node3 -->
<g id="Node000003" class="node">
<title>Node3</title>
<g id="a_Node000003"><a xlink:href="realm__c_8h.html" target="_top" xlink:title=" ">
<polygon fill="white" stroke="#666666" points="785,-129 689,-129 689,-110 785,-110 785,-129"/>
<text text-anchor="middle" x="737" y="-117" font-family="Helvetica,sans-Serif" font-size="10.00">realm/realm_c.h</text>
</a>
</g>
</g>
<!-- Node2&#45;&gt;Node3 -->
<g id="edge2_Node000002_Node000003" class="edge">
<title>Node2&#45;&gt;Node3</title>
<g id="a_edge2_Node000002_Node000003"><a xlink:title=" ">
<path fill="none" stroke="#63b8ff" d="M541.55,-274.98C571.23,-268.15 610.03,-256.72 641,-239 672.4,-221.03 678.47,-212.3 701,-184 712.32,-169.78 722.26,-151.56 728.81,-138.29"/>
<polygon fill="#63b8ff" stroke="#63b8ff" points="731.97,-139.78 733.12,-129.25 725.65,-136.76 731.97,-139.78"/>
</a>
</g>
</g>
<!-- Node9 -->
<g id="Node000009" class="node">
<title>Node9</title>
<g id="a_Node000009"><a xlink:href="event_8h.html" target="_top" xlink:title=" ">
<polygon fill="white" stroke="#666666" points="631.5,-239 546.5,-239 546.5,-220 631.5,-220 631.5,-239"/>
<text text-anchor="middle" x="589" y="-227" font-family="Helvetica,sans-Serif" font-size="10.00">realm/event.h</text>
</a>
</g>
</g>
<!-- Node2&#45;&gt;Node9 -->
<g id="edge8_Node000002_Node000009" class="edge">
<title>Node2&#45;&gt;Node9</title>
<g id="a_edge8_Node000002_Node000009"><a xlink:title=" ">
<path fill="none" stroke="#63b8ff" d="M510.94,-274.98C525.5,-266.69 547.87,-253.94 564.93,-244.22"/>
<polygon fill="#63b8ff" stroke="#63b8ff" points="566.83,-247.16 573.79,-239.17 563.36,-241.08 566.83,-247.16"/>
</a>
</g>
</g>
<!-- Node13 -->
<g id="Node000013" class="node">
<title>Node13</title>
<g id="a_Node000013"><a xlink:title=" ">
<polygon fill="#e0e0e0" stroke="#999999" points="592.5,-129 545.5,-129 545.5,-110 592.5,-110 592.5,-129"/>
<text text-anchor="middle" x="569" y="-117" font-family="Helvetica,sans-Serif" font-size="10.00">vector</text>
</a>
</g>
</g>
<!-- Node2&#45;&gt;Node13 -->
<g id="edge28_Node000002_Node000013" class="edge">
<title>Node2&#45;&gt;Node13</title>
<g id="a_edge28_Node000002_Node000013"><a xlink:title=" ">
<path fill="none" stroke="#63b8ff" d="M486.28,-274.88C464.48,-254.5 415.58,-202.25 442,-165 447.63,-157.06 499.69,-140.62 535.39,-130.09"/>
<polygon fill="#63b8ff" stroke="#63b8ff" points="536.8,-133.33 545.42,-127.16 534.84,-126.61 536.8,-133.33"/>
</a>
</g>
</g>
<!-- Node14 -->
<g id="Node000014" class="node">
<title>Node14</title>
<g id="a_Node000014"><a xlink:title=" ">
<polygon fill="#e0e0e0" stroke="#999999" points="38,-129 0,-129 0,-110 38,-110 38,-129"/>
<text text-anchor="middle" x="19" y="-117" font-family="Helvetica,sans-Serif" font-size="10.00">map</text>
</a>
</g>
</g>
<!-- Node2&#45;&gt;Node14 -->
<g id="edge29_Node000002_Node000014" class="edge">
<title>Node2&#45;&gt;Node14</title>
<g id="a_edge29_Node000002_Node000014"><a xlink:title=" ">
<path fill="none" stroke="#63b8ff" d="M443.76,-276.52C398.41,-269.63 331.36,-257.43 275,-239 186.1,-209.92 87.36,-158.28 42.95,-133.92"/>
<polygon fill="#63b8ff" stroke="#63b8ff" points="44.52,-130.79 34.07,-129.02 41.13,-136.92 44.52,-130.79"/>
</a>
</g>
</g>
<!-- Node23 -->
<g id="Node000023" class="node">
<title>Node23</title>
<g id="a_Node000023"><a xlink:title=" ">
<polygon fill="#e0e0e0" stroke="#999999" points="394,-239 284,-239 284,-220 394,-220 394,-239"/>
<text text-anchor="middle" x="339" y="-227" font-family="Helvetica,sans-Serif" font-size="10.00">realm/processor.inl</text>
</a>
</g>
</g>
<!-- Node2&#45;&gt;Node23 -->
<g id="edge30_Node000002_Node000023" class="edge">
<title>Node2&#45;&gt;Node23</title>
<g id="a_edge30_Node000002_Node000023"><a xlink:title=" ">
<path fill="none" stroke="#63b8ff" d="M470.78,-274.98C444.64,-266.16 403.6,-252.31 374.27,-242.41"/>
<polygon fill="#63b8ff" stroke="#63b8ff" points="375.02,-238.96 364.42,-239.08 372.78,-245.6 375.02,-238.96"/>
</a>
</g>
</g>
<!-- Node4 -->
<g id="Node000004" class="node">
<title>Node4</title>
<g id="a_Node000004"><a xlink:href="realm__config_8h.html" target="_top" xlink:title=" ">
<polygon fill="white" stroke="#666666" points="566,-74 446,-74 446,-55 566,-55 566,-74"/>
<text text-anchor="middle" x="506" y="-62" font-family="Helvetica,sans-Serif" font-size="10.00">realm/realm_config.h</text>
</a>
</g>
</g>
<!-- Node3&#45;&gt;Node4 -->
<g id="edge3_Node000003_Node000004" class="edge">
<title>Node3&#45;&gt;Node4</title>
<g id="a_edge3_Node000003_Node000004"><a xlink:title=" ">
<path fill="none" stroke="#63b8ff" d="M699.89,-109.98C660.01,-100.84 596.54,-86.27 553.16,-76.32"/>
<polygon fill="#63b8ff" stroke="#63b8ff" points="553.93,-72.91 543.41,-74.08 552.37,-79.73 553.93,-72.91"/>
</a>
</g>
</g>
<!-- Node7 -->
<g id="Node000007" class="node">
<title>Node7</title>
<g id="a_Node000007"><a xlink:title=" ">
<polygon fill="#e0e0e0" stroke="#999999" points="839,-74 783,-74 783,-55 839,-55 839,-74"/>
<text text-anchor="middle" x="811" y="-62" font-family="Helvetica,sans-Serif" font-size="10.00">stddef.h</text>
</a>
</g>
</g>
<!-- Node3&#45;&gt;Node7 -->
<g id="edge6_Node000003_Node000007" class="edge">
<title>Node3&#45;&gt;Node7</title>
<g id="a_edge6_Node000003_Node000007"><a xlink:title=" ">
<path fill="none" stroke="#63b8ff" d="M748.89,-109.98C760.15,-101.92 777.29,-89.65 790.71,-80.03"/>
<polygon fill="#63b8ff" stroke="#63b8ff" points="792.8,-82.84 798.89,-74.17 788.73,-77.15 792.8,-82.84"/>
</a>
</g>
</g>
<!-- Node8 -->
<g id="Node000008" class="node">
<title>Node8</title>
<g id="a_Node000008"><a xlink:title=" ">
<polygon fill="#e0e0e0" stroke="#999999" points="763.5,-74 710.5,-74 710.5,-55 763.5,-55 763.5,-74"/>
<text text-anchor="middle" x="737" y="-62" font-family="Helvetica,sans-Serif" font-size="10.00">stdint.h</text>
</a>
</g>
</g>
<!-- Node3&#45;&gt;Node8 -->
<g id="edge7_Node000003_Node000008" class="edge">
<title>Node3&#45;&gt;Node8</title>
<g id="a_edge7_Node000003_Node000008"><a xlink:title=" ">
<path fill="none" stroke="#63b8ff" d="M737,-109.75C737,-102.8 737,-92.85 737,-84.13"/>
<polygon fill="#63b8ff" stroke="#63b8ff" points="740.5,-84.09 737,-74.09 733.5,-84.09 740.5,-84.09"/>
</a>
</g>
</g>
<!-- Node5 -->
<g id="Node000005" class="node">
<title>Node5</title>
<g id="a_Node000005"><a xlink:href="realm__defines_8h.html" target="_top" xlink:title=" ">
<polygon fill="white" stroke="#666666" points="485.5,-19 390.5,-19 390.5,0 485.5,0 485.5,-19"/>
<text text-anchor="middle" x="438" y="-7" font-family="Helvetica,sans-Serif" font-size="10.00">realm_defines.h</text>
</a>
</g>
</g>
<!-- Node4&#45;&gt;Node5 -->
<g id="edge4_Node000004_Node000005" class="edge">
<title>Node4&#45;&gt;Node5</title>
<g id="a_edge4_Node000004_Node000005"><a xlink:title=" ">
<path fill="none" stroke="#63b8ff" d="M495.07,-54.98C484.92,-47.07 469.58,-35.11 457.35,-25.58"/>
<polygon fill="#63b8ff" stroke="#63b8ff" points="459.16,-22.56 449.12,-19.17 454.86,-28.08 459.16,-22.56"/>
</a>
</g>
</g>
<!-- Node6 -->
<g id="Node000006" class="node">
<title>Node6</title>
<g id="a_Node000006"><a xlink:href="compiler__support_8h.html" target="_top" xlink:title=" ">
<polygon fill="white" stroke="#666666" points="646,-19 504,-19 504,0 646,0 646,-19"/>
<text text-anchor="middle" x="575" y="-7" font-family="Helvetica,sans-Serif" font-size="10.00">realm/compiler_support.h</text>
</a>
</g>
</g>
<!-- Node4&#45;&gt;Node6 -->
<g id="edge5_Node000004_Node000006" class="edge">
<title>Node4&#45;&gt;Node6</title>
<g id="a_edge5_Node000004_Node000006"><a xlink:title=" ">
<path fill="none" stroke="#63b8ff" d="M517.09,-54.98C527.49,-47 543.26,-34.88 555.72,-25.31"/>
<polygon fill="#63b8ff" stroke="#63b8ff" points="557.91,-28.04 563.71,-19.17 553.65,-22.49 557.91,-28.04"/>
</a>
</g>
</g>
<!-- Node9&#45;&gt;Node3 -->
<g id="edge9_Node000009_Node000003" class="edge">
<title>Node9&#45;&gt;Node3</title>
<g id="a_edge9_Node000009_Node000003"><a xlink:title=" ">
<path fill="none" stroke="#63b8ff" d="M610.81,-219.98C629.39,-212.16 656.28,-199.46 677,-184 695.15,-170.46 712.54,-151.12 723.88,-137.34"/>
<polygon fill="#63b8ff" stroke="#63b8ff" points="726.87,-139.2 730.4,-129.21 721.41,-134.82 726.87,-139.2"/>
</a>
</g>
</g>
<!-- Node10 -->
<g id="Node000010" class="node">
<title>Node10</title>
<g id="a_Node000010"><a xlink:href="utils_8h.html" target="_top" xlink:title=" ">
<polygon fill="white" stroke="#666666" points="371,-184 293,-184 293,-165 371,-165 371,-184"/>
<text text-anchor="middle" x="332" y="-172" font-family="Helvetica,sans-Serif" font-size="10.00">realm/utils.h</text>
</a>
</g>
</g>
<!-- Node9&#45;&gt;Node10 -->
<g id="edge10_Node000009_Node000010" class="edge">
<title>Node9&#45;&gt;Node10</title>
<g id="a_edge10_Node000009_Node000010"><a xlink:title=" ">
<path fill="none" stroke="#63b8ff" d="M547.71,-219.98C502.27,-210.61 429.29,-195.56 381,-185.6"/>
<polygon fill="#63b8ff" stroke="#63b8ff" points="381.58,-182.15 371.08,-183.56 380.17,-189.01 381.58,-182.15"/>
</a>
</g>
</g>
<!-- Node9&#45;&gt;Node13 -->
<g id="edge24_Node000009_Node000013" class="edge">
<title>Node9&#45;&gt;Node13</title>
<g id="a_edge24_Node000009_Node000013"><a xlink:title=" ">
<path fill="none" stroke="#63b8ff" d="M587.36,-219.66C584.12,-202.17 576.83,-162.8 572.48,-139.27"/>
<polygon fill="#63b8ff" stroke="#63b8ff" points="575.87,-138.35 570.6,-129.16 568.98,-139.63 575.87,-138.35"/>
</a>
</g>
</g>
<!-- Node9&#45;&gt;Node19 -->
<g id="edge20_Node000009_Node000019" class="edge">
<title>Node9&#45;&gt;Node19</title>
<g id="a_edge20_Node000009_Node000019"><a xlink:title=" ">
<path fill="none" stroke="#63b8ff" d="M624.67,-219.98C662.83,-210.87 723.47,-196.4 765.15,-186.45"/>
<polygon fill="#63b8ff" stroke="#63b8ff" points="766.14,-189.81 775.05,-184.08 764.51,-183 766.14,-189.81"/>
</a>
</g>
</g>
<!-- Node20 -->
<g id="Node000020" class="node">
<title>Node20</title>
<g id="a_Node000020"><a xlink:title=" ">
<polygon fill="#e0e0e0" stroke="#999999" points="671,-129 611,-129 611,-110 671,-110 671,-129"/>
<text text-anchor="middle" x="641" y="-117" font-family="Helvetica,sans-Serif" font-size="10.00">iostream</text>
</a>
</g>
</g>
<!-- Node9&#45;&gt;Node20 -->
<g id="edge26_Node000009_Node000020" class="edge">
<title>Node9&#45;&gt;Node20</title>
<g id="a_edge26_Node000009_Node000020"><a xlink:title=" ">
<path fill="none" stroke="#63b8ff" d="M593.26,-219.66C601.79,-201.93 621.15,-161.73 632.42,-138.32"/>
<polygon fill="#63b8ff" stroke="#63b8ff" points="635.65,-139.69 636.83,-129.16 629.34,-136.65 635.65,-139.69"/>
</a>
</g>
</g>
<!-- Node21 -->
<g id="Node000021" class="node">
<title>Node21</title>
<g id="a_Node000021"><a xlink:title=" ">
<polygon fill="#e0e0e0" stroke="#999999" points="668,-184 636,-184 636,-165 668,-165 668,-184"/>
<text text-anchor="middle" x="652" y="-172" font-family="Helvetica,sans-Serif" font-size="10.00">set</text>
</a>
</g>
</g>
<!-- Node9&#45;&gt;Node21 -->
<g id="edge25_Node000009_Node000021" class="edge">
<title>Node9&#45;&gt;Node21</title>
<g id="a_edge25_Node000009_Node000021"><a xlink:title=" ">
<path fill="none" stroke="#63b8ff" d="M599.12,-219.98C608.44,-212.15 622.47,-200.34 633.74,-190.86"/>
<polygon fill="#63b8ff" stroke="#63b8ff" points="636.29,-193.29 641.69,-184.17 631.79,-187.93 636.29,-193.29"/>
</a>
</g>
</g>
<!-- Node22 -->
<g id="Node000022" class="node">
<title>Node22</title>
<g id="a_Node000022"><a xlink:title=" ">
<polygon fill="#e0e0e0" stroke="#999999" points="541.5,-184 450.5,-184 450.5,-165 541.5,-165 541.5,-184"/>
<text text-anchor="middle" x="496" y="-172" font-family="Helvetica,sans-Serif" font-size="10.00">realm/event.inl</text>
</a>
</g>
</g>
<!-- Node9&#45;&gt;Node22 -->
<g id="edge27_Node000009_Node000022" class="edge">
<title>Node9&#45;&gt;Node22</title>
<g id="a_edge27_Node000009_Node000022"><a xlink:title=" ">
<path fill="none" stroke="#63b8ff" d="M574.06,-219.98C559.5,-211.69 537.13,-198.94 520.07,-189.22"/>
<polygon fill="#63b8ff" stroke="#63b8ff" points="521.64,-186.08 511.21,-184.17 518.17,-192.16 521.64,-186.08"/>
</a>
</g>
</g>
<!-- Node10&#45;&gt;Node4 -->
<g id="edge11_Node000010_Node000004" class="edge">
<title>Node10&#45;&gt;Node4</title>
<g id="a_edge11_Node000010_Node000004"><a xlink:title=" ">
<path fill="none" stroke="#63b8ff" d="M339.43,-164.63C351,-151.28 374.54,-125.9 399,-110 420.41,-96.09 446.88,-85.03 468.14,-77.42"/>
<polygon fill="#63b8ff" stroke="#63b8ff" points="469.51,-80.65 477.81,-74.07 467.22,-74.04 469.51,-80.65"/>
</a>
</g>
</g>
<!-- Node11 -->
<g id="Node000011" class="node">
<title>Node11</title>
<g id="a_Node000011"><a xlink:title=" ">
<polygon fill="#e0e0e0" stroke="#999999" points="452,-129 408,-129 408,-110 452,-110 452,-129"/>
<text text-anchor="middle" x="430" y="-117" font-family="Helvetica,sans-Serif" font-size="10.00">string</text>
</a>
</g>
</g>
<!-- Node10&#45;&gt;Node11 -->
<g id="edge12_Node000010_Node000011" class="edge">
<title>Node10&#45;&gt;Node11</title>
<g id="a_edge12_Node000010_Node000011"><a xlink:title=" ">
<path fill="none" stroke="#63b8ff" d="M347.75,-164.98C363.23,-156.61 387.09,-143.7 405.14,-133.95"/>
<polygon fill="#63b8ff" stroke="#63b8ff" points="406.84,-137.01 413.97,-129.17 403.51,-130.85 406.84,-137.01"/>
</a>
</g>
</g>
<!-- Node12 -->
<g id="Node000012" class="node">
<title>Node12</title>
<g id="a_Node000012"><a xlink:title=" ">
<polygon fill="#e0e0e0" stroke="#999999" points="527.5,-129 470.5,-129 470.5,-110 527.5,-110 527.5,-129"/>
<text text-anchor="middle" x="499" y="-117" font-family="Helvetica,sans-Serif" font-size="10.00">ostream</text>
</a>
</g>
</g>
<!-- Node10&#45;&gt;Node12 -->
<g id="edge13_Node000010_Node000012" class="edge">
<title>Node10&#45;&gt;Node12</title>
<g id="a_edge13_Node000010_Node000012"><a xlink:title=" ">
<path fill="none" stroke="#63b8ff" d="M358.83,-164.98C386.87,-156.09 431.05,-142.07 462.3,-132.15"/>
<polygon fill="#63b8ff" stroke="#63b8ff" points="463.49,-135.44 471.96,-129.08 461.37,-128.77 463.49,-135.44"/>
</a>
</g>
</g>
<!-- Node10&#45;&gt;Node13 -->
<g id="edge14_Node000010_Node000013" class="edge">
<title>Node10&#45;&gt;Node13</title>
<g id="a_edge14_Node000010_Node000013"><a xlink:title=" ">
<path fill="none" stroke="#63b8ff" d="M371.04,-165.58C410.28,-157.5 472.72,-144.3 535.24,-129.35"/>
<polygon fill="#63b8ff" stroke="#63b8ff" points="536.36,-132.68 545.27,-126.93 534.72,-125.87 536.36,-132.68"/>
</a>
</g>
</g>
<!-- Node10&#45;&gt;Node14 -->
<g id="edge15_Node000010_Node000014" class="edge">
<title>Node10&#45;&gt;Node14</title>
<g id="a_edge15_Node000010_Node000014"><a xlink:title=" ">
<path fill="none" stroke="#63b8ff" d="M292.95,-169.16C239.63,-162.85 140.94,-149.8 48.03,-128.95"/>
<polygon fill="#63b8ff" stroke="#63b8ff" points="48.71,-125.52 38.18,-126.71 47.16,-132.34 48.71,-125.52"/>
</a>
</g>
</g>
<!-- Node15 -->
<g id="Node000015" class="node">
<title>Node15</title>
<g id="a_Node000015"><a xlink:title=" ">
<polygon fill="#e0e0e0" stroke="#999999" points="108,-129 56,-129 56,-110 108,-110 108,-129"/>
<text text-anchor="middle" x="82" y="-117" font-family="Helvetica,sans-Serif" font-size="10.00">cassert</text>
</a>
</g>
</g>
<!-- Node10&#45;&gt;Node15 -->
<g id="edge16_Node000010_Node000015" class="edge">
<title>Node10&#45;&gt;Node15</title>
<g id="a_edge16_Node000010_Node000015"><a xlink:title=" ">
<path fill="none" stroke="#63b8ff" d="M292.68,-165.78C251.53,-157.61 184.8,-144.1 118.18,-129.21"/>
<polygon fill="#63b8ff" stroke="#63b8ff" points="118.87,-125.78 108.35,-127 117.34,-132.61 118.87,-125.78"/>
</a>
</g>
</g>
<!-- Node16 -->
<g id="Node000016" class="node">
<title>Node16</title>
<g id="a_Node000016"><a xlink:title=" ">
<polygon fill="#e0e0e0" stroke="#999999" points="176,-129 126,-129 126,-110 176,-110 176,-129"/>
<text text-anchor="middle" x="151" y="-117" font-family="Helvetica,sans-Serif" font-size="10.00">cstdint</text>
</a>
</g>
</g>
<!-- Node10&#45;&gt;Node16 -->
<g id="edge17_Node000010_Node000016" class="edge">
<title>Node10&#45;&gt;Node16</title>
<g id="a_edge17_Node000010_Node000016"><a xlink:title=" ">
<path fill="none" stroke="#63b8ff" d="M302.92,-164.98C271.13,-155.68 220.2,-140.76 186.19,-130.8"/>
<polygon fill="#63b8ff" stroke="#63b8ff" points="186.79,-127.33 176.21,-127.88 184.83,-134.05 186.79,-127.33"/>
</a>
</g>
</g>
<!-- Node17 -->
<g id="Node000017" class="node">
<title>Node17</title>
<g id="a_Node000017"><a xlink:title=" ">
<polygon fill="#e0e0e0" stroke="#999999" points="250,-129 194,-129 194,-110 250,-110 250,-129"/>
<text text-anchor="middle" x="222" y="-117" font-family="Helvetica,sans-Serif" font-size="10.00">sstream</text>
</a>
</g>
</g>
<!-- Node10&#45;&gt;Node17 -->
<g id="edge18_Node000010_Node000017" class="edge">
<title>Node10&#45;&gt;Node17</title>
<g id="a_edge18_Node000010_Node000017"><a xlink:title=" ">
<path fill="none" stroke="#63b8ff" d="M314.33,-164.98C296.71,-156.5 269.42,-143.35 249.07,-133.54"/>
<polygon fill="#63b8ff" stroke="#63b8ff" points="250.52,-130.36 239.99,-129.17 247.48,-136.66 250.52,-130.36"/>
</a>
</g>
</g>
<!-- Node18 -->
<g id="Node000018" class="node">
<title>Node18</title>
<g id="a_Node000018"><a xlink:title=" ">
<polygon fill="#e0e0e0" stroke="#999999" points="352,-129 268,-129 268,-110 352,-110 352,-129"/>
<text text-anchor="middle" x="310" y="-117" font-family="Helvetica,sans-Serif" font-size="10.00">realm/utils.inl</text>
</a>
</g>
</g>
<!-- Node10&#45;&gt;Node18 -->
<g id="edge19_Node000010_Node000018" class="edge">
<title>Node10&#45;&gt;Node18</title>
<g id="a_edge19_Node000010_Node000018"><a xlink:title=" ">
<path fill="none" stroke="#63b8ff" d="M328.37,-164.75C325.42,-157.65 321.17,-147.4 317.49,-138.56"/>
<polygon fill="#63b8ff" stroke="#63b8ff" points="320.63,-136.98 313.57,-129.09 314.17,-139.67 320.63,-136.98"/>
</a>
</g>
</g>
<!-- Node19&#45;&gt;Node3 -->
<g id="edge21_Node000019_Node000003" class="edge">
<title>Node19&#45;&gt;Node3</title>
<g id="a_edge21_Node000019_Node000003"><a xlink:title=" ">
<path fill="none" stroke="#63b8ff" d="M799.11,-164.98C787.85,-156.92 770.71,-144.65 757.29,-135.03"/>
<polygon fill="#63b8ff" stroke="#63b8ff" points="759.27,-132.15 749.11,-129.17 755.2,-137.84 759.27,-132.15"/>
</a>
</g>
</g>
<!-- Node19&#45;&gt;Node7 -->
<g id="edge22_Node000019_Node000007" class="edge">
<title>Node19&#45;&gt;Node7</title>
<g id="a_edge22_Node000019_Node000007"><a xlink:title=" ">
<path fill="none" stroke="#63b8ff" d="M811,-164.66C811,-147.17 811,-107.8 811,-84.27"/>
<polygon fill="#63b8ff" stroke="#63b8ff" points="814.5,-84.16 811,-74.16 807.5,-84.16 814.5,-84.16"/>
</a>
</g>
</g>
<!-- Node19&#45;&gt;Node20 -->
<g id="edge23_Node000019_Node000020" class="edge">
<title>Node19&#45;&gt;Node20</title>
<g id="a_edge23_Node000019_Node000020"><a xlink:title=" ">
<path fill="none" stroke="#63b8ff" d="M783.69,-164.98C755.15,-156.09 710.17,-142.07 678.36,-132.15"/>
<polygon fill="#63b8ff" stroke="#63b8ff" points="679.12,-128.72 668.53,-129.08 677.03,-135.4 679.12,-128.72"/>
</a>
</g>
</g>
</g>
</svg>
