<?xml version="1.0" encoding="UTF-8" standalone="no"?>
<!DOCTYPE svg PUBLIC "-//W3C//DTD SVG 1.1//EN"
 "http://www.w3.org/Graphics/SVG/1.1/DTD/svg11.dtd">
<!-- Generated by graphviz version 2.43.0 (0)
 -->
<!-- Title: /home/runner/work/realm/realm/realm&#45;src/src/realm/machine_impl.h Pages: 1 -->
<svg width="1829pt" height="434pt"
 viewBox="0.00 0.00 1829.20 434.00" xmlns="http://www.w3.org/2000/svg" xmlns:xlink="http://www.w3.org/1999/xlink">
<g id="graph0" class="graph" transform="scale(1 1) rotate(0) translate(4 430)">
<title>/home/runner/work/realm/realm/realm&#45;src/src/realm/machine_impl.h</title>
<!-- Node1 -->
<g id="Node000001" class="node">
<title>Node1</title>
<g id="a_Node000001"><a xlink:title=" ">
<polygon fill="#999999" stroke="#666666" points="1015.2,-426 869.2,-426 869.2,-385 1015.2,-385 1015.2,-426"/>
<text text-anchor="start" x="877.2" y="-414" font-family="Helvetica,sans-Serif" font-size="10.00">/home/runner/work/realm</text>
<text text-anchor="start" x="877.2" y="-403" font-family="Helvetica,sans-Serif" font-size="10.00">/realm/realm&#45;src/src/realm</text>
<text text-anchor="middle" x="942.2" y="-392" font-family="Helvetica,sans-Serif" font-size="10.00">/machine_impl.h</text>
</a>
</g>
</g>
<!-- Node2 -->
<g id="Node000002" class="node">
<title>Node2</title>
<g id="a_Node000002"><a xlink:href="machine_8h.html" target="_top" xlink:title=" ">
<polygon fill="white" stroke="#666666" points="447.7,-349 348.7,-349 348.7,-330 447.7,-330 447.7,-349"/>
<text text-anchor="middle" x="398.2" y="-337" font-family="Helvetica,sans-Serif" font-size="10.00">realm/machine.h</text>
</a>
</g>
</g>
<!-- Node1&#45;&gt;Node2 -->
<g id="edge1_Node000001_Node000002" class="edge">
<title>Node1&#45;&gt;Node2</title>
<g id="a_edge1_Node000001_Node000002"><a xlink:title=" ">
<path fill="none" stroke="#63b8ff" d="M868.88,-396.27C775.04,-385.68 607.45,-366.54 464.2,-349 462.14,-348.75 460.05,-348.49 457.93,-348.23"/>
<polygon fill="#63b8ff" stroke="#63b8ff" points="458.28,-344.74 447.93,-346.97 457.41,-351.69 458.28,-344.74"/>
</a>
</g>
</g>
<!-- Node14 -->
<g id="Node000014" class="node">
<title>Node14</title>
<g id="a_Node000014"><a xlink:title=" ">
<polygon fill="#e0e0e0" stroke="#999999" points="404.7,-129 357.7,-129 357.7,-110 404.7,-110 404.7,-129"/>
<text text-anchor="middle" x="381.2" y="-117" font-family="Helvetica,sans-Serif" font-size="10.00">vector</text>
</a>
</g>
</g>
<!-- Node1&#45;&gt;Node14 -->
<g id="edge72_Node000001_Node000014" class="edge">
<title>Node1&#45;&gt;Node14</title>
<g id="a_edge72_Node000001_Node000014"><a xlink:title=" ">
<path fill="none" stroke="#63b8ff" d="M877.45,-384.94C820.12,-366.13 735.37,-334.59 668.2,-294 592.37,-248.18 593.49,-208.34 516.2,-165 498.65,-155.16 448.65,-139.79 414.68,-129.93"/>
<polygon fill="#63b8ff" stroke="#63b8ff" points="415.29,-126.47 404.71,-127.07 413.35,-133.19 415.29,-126.47"/>
</a>
</g>
</g>
<!-- Node23 -->
<g id="Node000023" class="node">
<title>Node23</title>
<g id="a_Node000023"><a xlink:title=" ">
<polygon fill="#e0e0e0" stroke="#999999" points="489.2,-184 457.2,-184 457.2,-165 489.2,-165 489.2,-184"/>
<text text-anchor="middle" x="473.2" y="-172" font-family="Helvetica,sans-Serif" font-size="10.00">set</text>
</a>
</g>
</g>
<!-- Node1&#45;&gt;Node23 -->
<g id="edge73_Node000001_Node000023" class="edge">
<title>Node1&#45;&gt;Node23</title>
<g id="a_edge73_Node000001_Node000023"><a xlink:title=" ">
<path fill="none" stroke="#63b8ff" d="M868.95,-398.92C783.01,-391.27 646.74,-375.4 603.2,-349 540.22,-310.82 497.57,-229.63 480.96,-193.5"/>
<polygon fill="#63b8ff" stroke="#63b8ff" points="484.08,-191.9 476.81,-184.2 477.69,-194.76 484.08,-191.9"/>
</a>
</g>
</g>
<!-- Node28 -->
<g id="Node000028" class="node">
<title>Node28</title>
<g id="a_Node000028"><a xlink:href="network_8h.html" target="_top" xlink:title=" ">
<polygon fill="white" stroke="#666666" points="990.7,-349 893.7,-349 893.7,-330 990.7,-330 990.7,-349"/>
<text text-anchor="middle" x="942.2" y="-337" font-family="Helvetica,sans-Serif" font-size="10.00">realm/network.h</text>
</a>
</g>
</g>
<!-- Node1&#45;&gt;Node28 -->
<g id="edge36_Node000001_Node000028" class="edge">
<title>Node1&#45;&gt;Node28</title>
<g id="a_edge36_Node000001_Node000028"><a xlink:title=" ">
<path fill="none" stroke="#63b8ff" d="M942.2,-384.95C942.2,-376.85 942.2,-367.5 942.2,-359.47"/>
<polygon fill="#63b8ff" stroke="#63b8ff" points="945.7,-359.26 942.2,-349.26 938.7,-359.26 945.7,-359.26"/>
</a>
</g>
</g>
<!-- Node34 -->
<g id="Node000034" class="node">
<title>Node34</title>
<g id="a_Node000034"><a xlink:href="mutex_8h.html" target="_top" xlink:title=" ">
<polygon fill="white" stroke="#666666" points="1550.7,-239 1461.7,-239 1461.7,-220 1550.7,-220 1550.7,-239"/>
<text text-anchor="middle" x="1506.2" y="-227" font-family="Helvetica,sans-Serif" font-size="10.00">realm/mutex.h</text>
</a>
</g>
</g>
<!-- Node1&#45;&gt;Node34 -->
<g id="edge70_Node000001_Node000034" class="edge">
<title>Node1&#45;&gt;Node34</title>
<g id="a_edge70_Node000001_Node000034"><a xlink:title=" ">
<path fill="none" stroke="#63b8ff" d="M1015.21,-402.06C1117.98,-395.75 1308.27,-373.32 1447.2,-294 1467.14,-282.62 1484.27,-262.24 1494.86,-247.64"/>
<polygon fill="#63b8ff" stroke="#63b8ff" points="1498.01,-249.24 1500.83,-239.03 1492.26,-245.25 1498.01,-249.24"/>
</a>
</g>
</g>
<!-- Node35 -->
<g id="Node000035" class="node">
<title>Node35</title>
<g id="a_Node000035"><a xlink:href="atomics_8h.html" target="_top" xlink:title=" ">
<polygon fill="white" stroke="#666666" points="1709.2,-184 1613.2,-184 1613.2,-165 1709.2,-165 1709.2,-184"/>
<text text-anchor="middle" x="1661.2" y="-172" font-family="Helvetica,sans-Serif" font-size="10.00">realm/atomics.h</text>
</a>
</g>
</g>
<!-- Node1&#45;&gt;Node35 -->
<g id="edge71_Node000001_Node000035" class="edge">
<title>Node1&#45;&gt;Node35</title>
<g id="a_edge71_Node000001_Node000035"><a xlink:title=" ">
<path fill="none" stroke="#63b8ff" d="M1015.25,-401.98C1100.07,-397.43 1243.4,-384.68 1361.2,-349 1414.28,-332.93 1424.79,-321.05 1473.2,-294 1535.39,-259.26 1605.67,-212.99 1640.02,-189.89"/>
<polygon fill="#63b8ff" stroke="#63b8ff" points="1642.39,-192.52 1648.72,-184.02 1638.47,-186.71 1642.39,-192.52"/>
</a>
</g>
</g>
<!-- Node43 -->
<g id="Node000043" class="node">
<title>Node43</title>
<g id="a_Node000043"><a xlink:title=" ">
<polygon fill="#e0e0e0" stroke="#999999" points="1663.2,-349 1607.2,-349 1607.2,-330 1663.2,-330 1663.2,-349"/>
<text text-anchor="middle" x="1635.2" y="-337" font-family="Helvetica,sans-Serif" font-size="10.00">optional</text>
</a>
</g>
</g>
<!-- Node1&#45;&gt;Node43 -->
<g id="edge74_Node000001_Node000043" class="edge">
<title>Node1&#45;&gt;Node43</title>
<g id="a_edge74_Node000001_Node000043"><a xlink:title=" ">
<path fill="none" stroke="#63b8ff" d="M1015.25,-401.01C1136,-394.63 1384.64,-378.89 1593.2,-349 1594.31,-348.84 1595.43,-348.67 1596.56,-348.49"/>
<polygon fill="#63b8ff" stroke="#63b8ff" points="1597.56,-351.87 1606.81,-346.7 1596.36,-344.98 1597.56,-351.87"/>
</a>
</g>
</g>
<!-- Node3 -->
<g id="Node000003" class="node">
<title>Node3</title>
<g id="a_Node000003"><a xlink:href="processor_8h.html" target="_top" xlink:title=" ">
<polygon fill="white" stroke="#666666" points="450.2,-294 346.2,-294 346.2,-275 450.2,-275 450.2,-294"/>
<text text-anchor="middle" x="398.2" y="-282" font-family="Helvetica,sans-Serif" font-size="10.00">realm/processor.h</text>
</a>
</g>
</g>
<!-- Node2&#45;&gt;Node3 -->
<g id="edge2_Node000002_Node000003" class="edge">
<title>Node2&#45;&gt;Node3</title>
<g id="a_edge2_Node000002_Node000003"><a xlink:title=" ">
<path fill="none" stroke="#63b8ff" d="M398.2,-329.75C398.2,-322.8 398.2,-312.85 398.2,-304.13"/>
<polygon fill="#63b8ff" stroke="#63b8ff" points="401.7,-304.09 398.2,-294.09 394.7,-304.09 401.7,-304.09"/>
</a>
</g>
</g>
<!-- Node20 -->
<g id="Node000020" class="node">
<title>Node20</title>
<g id="a_Node000020"><a xlink:href="memory_8h.html" target="_top" xlink:title=" ">
<polygon fill="white" stroke="#666666" points="138.7,-184 41.7,-184 41.7,-165 138.7,-165 138.7,-184"/>
<text text-anchor="middle" x="90.2" y="-172" font-family="Helvetica,sans-Serif" font-size="10.00">realm/memory.h</text>
</a>
</g>
</g>
<!-- Node2&#45;&gt;Node20 -->
<g id="edge33_Node000002_Node000020" class="edge">
<title>Node2&#45;&gt;Node20</title>
<g id="a_edge33_Node000002_Node000020"><a xlink:title=" ">
<path fill="none" stroke="#63b8ff" d="M348.53,-336.44C248.73,-331.8 31.43,-318.92 9.2,-294 -21.56,-259.52 34.74,-212.82 68.12,-189.69"/>
<polygon fill="#63b8ff" stroke="#63b8ff" points="70.1,-192.57 76.44,-184.08 66.19,-186.77 70.1,-192.57"/>
</a>
</g>
</g>
<!-- Node26 -->
<g id="Node000026" class="node">
<title>Node26</title>
<g id="a_Node000026"><a xlink:title=" ">
<polygon fill="#e0e0e0" stroke="#999999" points="908.7,-239 855.7,-239 855.7,-220 908.7,-220 908.7,-239"/>
<text text-anchor="middle" x="882.2" y="-227" font-family="Helvetica,sans-Serif" font-size="10.00">iterator</text>
</a>
</g>
</g>
<!-- Node2&#45;&gt;Node26 -->
<g id="edge34_Node000002_Node000026" class="edge">
<title>Node2&#45;&gt;Node26</title>
<g id="a_edge34_Node000002_Node000026"><a xlink:title=" ">
<path fill="none" stroke="#63b8ff" d="M447.77,-335.84C538.53,-330.47 727.73,-316.87 789.2,-294 818.65,-283.04 847.77,-260.82 865.38,-245.79"/>
<polygon fill="#63b8ff" stroke="#63b8ff" points="867.83,-248.3 873.04,-239.07 863.22,-243.03 867.83,-248.3"/>
</a>
</g>
</g>
<!-- Node27 -->
<g id="Node000027" class="node">
<title>Node27</title>
<g id="a_Node000027"><a xlink:title=" ">
<polygon fill="#e0e0e0" stroke="#999999" points="123.7,-294 18.7,-294 18.7,-275 123.7,-275 123.7,-294"/>
<text text-anchor="middle" x="71.2" y="-282" font-family="Helvetica,sans-Serif" font-size="10.00">realm/machine.inl</text>
</a>
</g>
</g>
<!-- Node2&#45;&gt;Node27 -->
<g id="edge35_Node000002_Node000027" class="edge">
<title>Node2&#45;&gt;Node27</title>
<g id="a_edge35_Node000002_Node000027"><a xlink:title=" ">
<path fill="none" stroke="#63b8ff" d="M348.54,-330.45C291.08,-321.14 196.38,-305.79 133.9,-295.66"/>
<polygon fill="#63b8ff" stroke="#63b8ff" points="134.21,-292.17 123.78,-294.02 133.09,-299.08 134.21,-292.17"/>
</a>
</g>
</g>
<!-- Node4 -->
<g id="Node000004" class="node">
<title>Node4</title>
<g id="a_Node000004"><a xlink:href="realm__c_8h.html" target="_top" xlink:title=" ">
<polygon fill="white" stroke="#666666" points="339.2,-129 243.2,-129 243.2,-110 339.2,-110 339.2,-129"/>
<text text-anchor="middle" x="291.2" y="-117" font-family="Helvetica,sans-Serif" font-size="10.00">realm/realm_c.h</text>
</a>
</g>
</g>
<!-- Node3&#45;&gt;Node4 -->
<g id="edge3_Node000003_Node000004" class="edge">
<title>Node3&#45;&gt;Node4</title>
<g id="a_edge3_Node000003_Node000004"><a xlink:title=" ">
<path fill="none" stroke="#63b8ff" d="M396.52,-274.81C392.08,-253.82 378.34,-199.54 349.2,-165 339.39,-153.37 326.04,-142.86 314.62,-134.99"/>
<polygon fill="#63b8ff" stroke="#63b8ff" points="316.25,-131.87 305.98,-129.26 312.39,-137.71 316.25,-131.87"/>
</a>
</g>
</g>
<!-- Node10 -->
<g id="Node000010" class="node">
<title>Node10</title>
<g id="a_Node000010"><a xlink:href="event_8h.html" target="_top" xlink:title=" ">
<polygon fill="white" stroke="#666666" points="369.7,-239 284.7,-239 284.7,-220 369.7,-220 369.7,-239"/>
<text text-anchor="middle" x="327.2" y="-227" font-family="Helvetica,sans-Serif" font-size="10.00">realm/event.h</text>
</a>
</g>
</g>
<!-- Node3&#45;&gt;Node10 -->
<g id="edge9_Node000003_Node000010" class="edge">
<title>Node3&#45;&gt;Node10</title>
<g id="a_edge9_Node000003_Node000010"><a xlink:title=" ">
<path fill="none" stroke="#63b8ff" d="M386.8,-274.98C376.09,-267 359.86,-254.88 347.04,-245.31"/>
<polygon fill="#63b8ff" stroke="#63b8ff" points="348.92,-242.35 338.82,-239.17 344.74,-247.96 348.92,-242.35"/>
</a>
</g>
</g>
<!-- Node3&#45;&gt;Node14 -->
<g id="edge30_Node000003_Node000014" class="edge">
<title>Node3&#45;&gt;Node14</title>
<g id="a_edge30_Node000003_Node000014"><a xlink:title=" ">
<path fill="none" stroke="#63b8ff" d="M415.66,-274.91C451.71,-256.01 528.54,-208.99 498.2,-165 493.19,-157.72 447.3,-141.73 414.51,-131.03"/>
<polygon fill="#63b8ff" stroke="#63b8ff" points="415.41,-127.64 404.82,-127.9 413.26,-134.3 415.41,-127.64"/>
</a>
</g>
</g>
<!-- Node15 -->
<g id="Node000015" class="node">
<title>Node15</title>
<g id="a_Node000015"><a xlink:title=" ">
<polygon fill="#e0e0e0" stroke="#999999" points="889.2,-129 851.2,-129 851.2,-110 889.2,-110 889.2,-129"/>
<text text-anchor="middle" x="870.2" y="-117" font-family="Helvetica,sans-Serif" font-size="10.00">map</text>
</a>
</g>
</g>
<!-- Node3&#45;&gt;Node15 -->
<g id="edge31_Node000003_Node000015" class="edge">
<title>Node3&#45;&gt;Node15</title>
<g id="a_edge31_Node000003_Node000015"><a xlink:title=" ">
<path fill="none" stroke="#63b8ff" d="M438.31,-274.99C504.44,-260.32 639.93,-227.61 749.2,-184 784.8,-169.79 823.66,-148.23 847.48,-134.25"/>
<polygon fill="#63b8ff" stroke="#63b8ff" points="849.32,-137.23 856.13,-129.12 845.75,-131.21 849.32,-137.23"/>
</a>
</g>
</g>
<!-- Node25 -->
<g id="Node000025" class="node">
<title>Node25</title>
<g id="a_Node000025"><a xlink:title=" ">
<polygon fill="#e0e0e0" stroke="#999999" points="228.2,-239 118.2,-239 118.2,-220 228.2,-220 228.2,-239"/>
<text text-anchor="middle" x="173.2" y="-227" font-family="Helvetica,sans-Serif" font-size="10.00">realm/processor.inl</text>
</a>
</g>
</g>
<!-- Node3&#45;&gt;Node25 -->
<g id="edge32_Node000003_Node000025" class="edge">
<title>Node3&#45;&gt;Node25</title>
<g id="a_edge32_Node000003_Node000025"><a xlink:title=" ">
<path fill="none" stroke="#63b8ff" d="M362.05,-274.98C323.3,-265.86 261.65,-251.33 219.4,-241.38"/>
<polygon fill="#63b8ff" stroke="#63b8ff" points="220.17,-237.97 209.64,-239.08 218.57,-244.78 220.17,-237.97"/>
</a>
</g>
</g>
<!-- Node5 -->
<g id="Node000005" class="node">
<title>Node5</title>
<g id="a_Node000005"><a xlink:href="realm__config_8h.html" target="_top" xlink:title=" ">
<polygon fill="white" stroke="#666666" points="1431.2,-74 1311.2,-74 1311.2,-55 1431.2,-55 1431.2,-74"/>
<text text-anchor="middle" x="1371.2" y="-62" font-family="Helvetica,sans-Serif" font-size="10.00">realm/realm_config.h</text>
</a>
</g>
</g>
<!-- Node4&#45;&gt;Node5 -->
<g id="edge4_Node000004_Node000005" class="edge">
<title>Node4&#45;&gt;Node5</title>
<g id="a_edge4_Node000004_Node000005"><a xlink:title=" ">
<path fill="none" stroke="#63b8ff" d="M339.36,-110.94C342.35,-110.59 345.31,-110.27 348.2,-110 760.04,-71.44 865.43,-100.83 1278.2,-74 1285.43,-73.53 1292.97,-72.97 1300.49,-72.35"/>
<polygon fill="#63b8ff" stroke="#63b8ff" points="1301.04,-75.82 1310.71,-71.49 1300.45,-68.84 1301.04,-75.82"/>
</a>
</g>
</g>
<!-- Node8 -->
<g id="Node000008" class="node">
<title>Node8</title>
<g id="a_Node000008"><a xlink:title=" ">
<polygon fill="#e0e0e0" stroke="#999999" points="165.2,-74 109.2,-74 109.2,-55 165.2,-55 165.2,-74"/>
<text text-anchor="middle" x="137.2" y="-62" font-family="Helvetica,sans-Serif" font-size="10.00">stddef.h</text>
</a>
</g>
</g>
<!-- Node4&#45;&gt;Node8 -->
<g id="edge7_Node000004_Node000008" class="edge">
<title>Node4&#45;&gt;Node8</title>
<g id="a_edge7_Node000004_Node000008"><a xlink:title=" ">
<path fill="none" stroke="#63b8ff" d="M266.46,-109.98C240.83,-101.16 200.57,-87.31 171.8,-77.41"/>
<polygon fill="#63b8ff" stroke="#63b8ff" points="172.73,-74.03 162.14,-74.08 170.46,-80.65 172.73,-74.03"/>
</a>
</g>
</g>
<!-- Node9 -->
<g id="Node000009" class="node">
<title>Node9</title>
<g id="a_Node000009"><a xlink:title=" ">
<polygon fill="#e0e0e0" stroke="#999999" points="1269.7,-74 1216.7,-74 1216.7,-55 1269.7,-55 1269.7,-74"/>
<text text-anchor="middle" x="1243.2" y="-62" font-family="Helvetica,sans-Serif" font-size="10.00">stdint.h</text>
</a>
</g>
</g>
<!-- Node4&#45;&gt;Node9 -->
<g id="edge8_Node000004_Node000009" class="edge">
<title>Node4&#45;&gt;Node9</title>
<g id="a_edge8_Node000004_Node000009"><a xlink:title=" ">
<path fill="none" stroke="#63b8ff" d="M339.36,-110.98C342.35,-110.62 345.32,-110.29 348.2,-110 679.94,-77.1 1083.39,-68.1 1206.08,-66.04"/>
<polygon fill="#63b8ff" stroke="#63b8ff" points="1206.47,-69.53 1216.41,-65.87 1206.35,-62.53 1206.47,-69.53"/>
</a>
</g>
</g>
<!-- Node6 -->
<g id="Node000006" class="node">
<title>Node6</title>
<g id="a_Node000006"><a xlink:href="realm__defines_8h.html" target="_top" xlink:title=" ">
<polygon fill="white" stroke="#666666" points="1349.7,-19 1254.7,-19 1254.7,0 1349.7,0 1349.7,-19"/>
<text text-anchor="middle" x="1302.2" y="-7" font-family="Helvetica,sans-Serif" font-size="10.00">realm_defines.h</text>
</a>
</g>
</g>
<!-- Node5&#45;&gt;Node6 -->
<g id="edge5_Node000005_Node000006" class="edge">
<title>Node5&#45;&gt;Node6</title>
<g id="a_edge5_Node000005_Node000006"><a xlink:title=" ">
<path fill="none" stroke="#63b8ff" d="M1360.12,-54.98C1349.72,-47 1333.94,-34.88 1321.48,-25.31"/>
<polygon fill="#63b8ff" stroke="#63b8ff" points="1323.55,-22.49 1313.49,-19.17 1319.29,-28.04 1323.55,-22.49"/>
</a>
</g>
</g>
<!-- Node7 -->
<g id="Node000007" class="node">
<title>Node7</title>
<g id="a_Node000007"><a xlink:href="compiler__support_8h.html" target="_top" xlink:title=" ">
<polygon fill="white" stroke="#666666" points="1510.2,-19 1368.2,-19 1368.2,0 1510.2,0 1510.2,-19"/>
<text text-anchor="middle" x="1439.2" y="-7" font-family="Helvetica,sans-Serif" font-size="10.00">realm/compiler_support.h</text>
</a>
</g>
</g>
<!-- Node5&#45;&gt;Node7 -->
<g id="edge6_Node000005_Node000007" class="edge">
<title>Node5&#45;&gt;Node7</title>
<g id="a_edge6_Node000005_Node000007"><a xlink:title=" ">
<path fill="none" stroke="#63b8ff" d="M1382.13,-54.98C1392.28,-47.07 1407.62,-35.11 1419.85,-25.58"/>
<polygon fill="#63b8ff" stroke="#63b8ff" points="1422.34,-28.08 1428.08,-19.17 1418.04,-22.56 1422.34,-28.08"/>
</a>
</g>
</g>
<!-- Node10&#45;&gt;Node4 -->
<g id="edge10_Node000010_Node000004" class="edge">
<title>Node10&#45;&gt;Node4</title>
<g id="a_edge10_Node000010_Node000004"><a xlink:title=" ">
<path fill="none" stroke="#63b8ff" d="M330.42,-219.93C334.61,-207.39 340.56,-183.52 333.2,-165 328.68,-153.63 319.73,-143.48 311.24,-135.76"/>
<polygon fill="#63b8ff" stroke="#63b8ff" points="313.31,-132.92 303.41,-129.14 308.79,-138.27 313.31,-132.92"/>
</a>
</g>
</g>
<!-- Node11 -->
<g id="Node000011" class="node">
<title>Node11</title>
<g id="a_Node000011"><a xlink:href="utils_8h.html" target="_top" xlink:title=" ">
<polygon fill="white" stroke="#666666" points="740.2,-184 662.2,-184 662.2,-165 740.2,-165 740.2,-184"/>
<text text-anchor="middle" x="701.2" y="-172" font-family="Helvetica,sans-Serif" font-size="10.00">realm/utils.h</text>
</a>
</g>
</g>
<!-- Node10&#45;&gt;Node11 -->
<g id="edge11_Node000010_Node000011" class="edge">
<title>Node10&#45;&gt;Node11</title>
<g id="a_edge11_Node000010_Node000011"><a xlink:title=" ">
<path fill="none" stroke="#63b8ff" d="M369.74,-222.47C439.59,-212.57 578.2,-192.93 652.11,-182.46"/>
<polygon fill="#63b8ff" stroke="#63b8ff" points="652.68,-185.91 662.09,-181.04 651.7,-178.98 652.68,-185.91"/>
</a>
</g>
</g>
<!-- Node10&#45;&gt;Node14 -->
<g id="edge26_Node000010_Node000014" class="edge">
<title>Node10&#45;&gt;Node14</title>
<g id="a_edge26_Node000010_Node000014"><a xlink:title=" ">
<path fill="none" stroke="#63b8ff" d="M331.62,-219.66C340.49,-201.93 360.59,-161.73 372.29,-138.32"/>
<polygon fill="#63b8ff" stroke="#63b8ff" points="375.53,-139.67 376.87,-129.16 369.27,-136.54 375.53,-139.67"/>
</a>
</g>
</g>
<!-- Node10&#45;&gt;Node20 -->
<g id="edge21_Node000010_Node000020" class="edge">
<title>Node10&#45;&gt;Node20</title>
<g id="a_edge21_Node000010_Node000020"><a xlink:title=" ">
<path fill="none" stroke="#63b8ff" d="M289.12,-219.98C248.22,-210.84 183.09,-196.27 138.58,-186.32"/>
<polygon fill="#63b8ff" stroke="#63b8ff" points="139.1,-182.85 128.58,-184.08 137.57,-189.68 139.1,-182.85"/>
</a>
</g>
</g>
<!-- Node21 -->
<g id="Node000021" class="node">
<title>Node21</title>
<g id="a_Node000021"><a xlink:title=" ">
<polygon fill="#e0e0e0" stroke="#999999" points="225.2,-129 165.2,-129 165.2,-110 225.2,-110 225.2,-129"/>
<text text-anchor="middle" x="195.2" y="-117" font-family="Helvetica,sans-Serif" font-size="10.00">iostream</text>
</a>
</g>
</g>
<!-- Node10&#45;&gt;Node21 -->
<g id="edge28_Node000010_Node000021" class="edge">
<title>Node10&#45;&gt;Node21</title>
<g id="a_edge28_Node000010_Node000021"><a xlink:title=" ">
<path fill="none" stroke="#63b8ff" d="M291.04,-219.96C269.38,-213.26 242.57,-201.99 224.2,-184 211.63,-171.69 203.99,-152.92 199.73,-138.97"/>
<polygon fill="#63b8ff" stroke="#63b8ff" points="203.03,-137.76 197.01,-129.04 196.28,-139.61 203.03,-137.76"/>
</a>
</g>
</g>
<!-- Node10&#45;&gt;Node23 -->
<g id="edge27_Node000010_Node000023" class="edge">
<title>Node10&#45;&gt;Node23</title>
<g id="a_edge27_Node000010_Node000023"><a xlink:title=" ">
<path fill="none" stroke="#63b8ff" d="M350.66,-219.98C377.11,-210.38 419.98,-194.82 447.36,-184.88"/>
<polygon fill="#63b8ff" stroke="#63b8ff" points="448.83,-188.07 457.04,-181.37 446.44,-181.49 448.83,-188.07"/>
</a>
</g>
</g>
<!-- Node24 -->
<g id="Node000024" class="node">
<title>Node24</title>
<g id="a_Node000024"><a xlink:title=" ">
<polygon fill="#e0e0e0" stroke="#999999" points="324.7,-184 233.7,-184 233.7,-165 324.7,-165 324.7,-184"/>
<text text-anchor="middle" x="279.2" y="-172" font-family="Helvetica,sans-Serif" font-size="10.00">realm/event.inl</text>
</a>
</g>
</g>
<!-- Node10&#45;&gt;Node24 -->
<g id="edge29_Node000010_Node000024" class="edge">
<title>Node10&#45;&gt;Node24</title>
<g id="a_edge29_Node000010_Node000024"><a xlink:title=" ">
<path fill="none" stroke="#63b8ff" d="M319.28,-219.75C312.36,-212.11 302.14,-200.82 293.75,-191.56"/>
<polygon fill="#63b8ff" stroke="#63b8ff" points="296.29,-189.15 286.98,-184.09 291.1,-193.85 296.29,-189.15"/>
</a>
</g>
</g>
<!-- Node11&#45;&gt;Node5 -->
<g id="edge12_Node000011_Node000005" class="edge">
<title>Node11&#45;&gt;Node5</title>
<g id="a_edge12_Node000011_Node000005"><a xlink:title=" ">
<path fill="none" stroke="#63b8ff" d="M721.87,-164.97C742.78,-156.25 775.95,-142.15 804.2,-129 821.32,-121.03 824.02,-115.09 842.2,-110 1029.44,-57.57 1084.5,-90.85 1278.2,-74 1285.62,-73.36 1293.36,-72.67 1301.08,-71.98"/>
<polygon fill="#63b8ff" stroke="#63b8ff" points="1301.53,-75.45 1311.18,-71.06 1300.9,-68.48 1301.53,-75.45"/>
</a>
</g>
</g>
<!-- Node12 -->
<g id="Node000012" class="node">
<title>Node12</title>
<g id="a_Node000012"><a xlink:title=" ">
<polygon fill="#e0e0e0" stroke="#999999" points="951.2,-129 907.2,-129 907.2,-110 951.2,-110 951.2,-129"/>
<text text-anchor="middle" x="929.2" y="-117" font-family="Helvetica,sans-Serif" font-size="10.00">string</text>
</a>
</g>
</g>
<!-- Node11&#45;&gt;Node12 -->
<g id="edge13_Node000011_Node000012" class="edge">
<title>Node11&#45;&gt;Node12</title>
<g id="a_edge13_Node000011_Node000012"><a xlink:title=" ">
<path fill="none" stroke="#63b8ff" d="M740.57,-165.16C778.33,-157.04 837.16,-144.06 896.9,-129.24"/>
<polygon fill="#63b8ff" stroke="#63b8ff" points="898.03,-132.57 906.88,-126.75 896.33,-125.78 898.03,-132.57"/>
</a>
</g>
</g>
<!-- Node13 -->
<g id="Node000013" class="node">
<title>Node13</title>
<g id="a_Node000013"><a xlink:title=" ">
<polygon fill="#e0e0e0" stroke="#999999" points="656.7,-129 599.7,-129 599.7,-110 656.7,-110 656.7,-129"/>
<text text-anchor="middle" x="628.2" y="-117" font-family="Helvetica,sans-Serif" font-size="10.00">ostream</text>
</a>
</g>
</g>
<!-- Node11&#45;&gt;Node13 -->
<g id="edge14_Node000011_Node000013" class="edge">
<title>Node11&#45;&gt;Node13</title>
<g id="a_edge14_Node000011_Node000013"><a xlink:title=" ">
<path fill="none" stroke="#63b8ff" d="M689.47,-164.98C678.47,-157 661.78,-144.88 648.6,-135.31"/>
<polygon fill="#63b8ff" stroke="#63b8ff" points="650.29,-132.21 640.14,-129.17 646.18,-137.88 650.29,-132.21"/>
</a>
</g>
</g>
<!-- Node11&#45;&gt;Node14 -->
<g id="edge15_Node000011_Node000014" class="edge">
<title>Node11&#45;&gt;Node14</title>
<g id="a_edge15_Node000011_Node000014"><a xlink:title=" ">
<path fill="none" stroke="#63b8ff" d="M662.13,-167.21C657.44,-166.46 652.71,-165.71 648.2,-165 547.4,-149.16 518.98,-150.08 414.9,-128.96"/>
<polygon fill="#63b8ff" stroke="#63b8ff" points="415.43,-125.49 404.93,-126.91 414.02,-132.35 415.43,-125.49"/>
</a>
</g>
</g>
<!-- Node11&#45;&gt;Node15 -->
<g id="edge16_Node000011_Node000015" class="edge">
<title>Node11&#45;&gt;Node15</title>
<g id="a_edge16_Node000011_Node000015"><a xlink:title=" ">
<path fill="none" stroke="#63b8ff" d="M728.36,-164.98C759.34,-155.27 809.8,-139.44 841.44,-129.52"/>
<polygon fill="#63b8ff" stroke="#63b8ff" points="842.51,-132.85 851,-126.52 840.41,-126.17 842.51,-132.85"/>
</a>
</g>
</g>
<!-- Node16 -->
<g id="Node000016" class="node">
<title>Node16</title>
<g id="a_Node000016"><a xlink:title=" ">
<polygon fill="#e0e0e0" stroke="#999999" points="727.2,-129 675.2,-129 675.2,-110 727.2,-110 727.2,-129"/>
<text text-anchor="middle" x="701.2" y="-117" font-family="Helvetica,sans-Serif" font-size="10.00">cassert</text>
</a>
</g>
</g>
<!-- Node11&#45;&gt;Node16 -->
<g id="edge17_Node000011_Node000016" class="edge">
<title>Node11&#45;&gt;Node16</title>
<g id="a_edge17_Node000011_Node000016"><a xlink:title=" ">
<path fill="none" stroke="#63b8ff" d="M701.2,-164.75C701.2,-157.8 701.2,-147.85 701.2,-139.13"/>
<polygon fill="#63b8ff" stroke="#63b8ff" points="704.7,-139.09 701.2,-129.09 697.7,-139.09 704.7,-139.09"/>
</a>
</g>
</g>
<!-- Node17 -->
<g id="Node000017" class="node">
<title>Node17</title>
<g id="a_Node000017"><a xlink:title=" ">
<polygon fill="#e0e0e0" stroke="#999999" points="795.2,-129 745.2,-129 745.2,-110 795.2,-110 795.2,-129"/>
<text text-anchor="middle" x="770.2" y="-117" font-family="Helvetica,sans-Serif" font-size="10.00">cstdint</text>
</a>
</g>
</g>
<!-- Node11&#45;&gt;Node17 -->
<g id="edge18_Node000011_Node000017" class="edge">
<title>Node11&#45;&gt;Node17</title>
<g id="a_edge18_Node000011_Node000017"><a xlink:title=" ">
<path fill="none" stroke="#63b8ff" d="M712.29,-164.98C722.69,-157 738.46,-144.88 750.92,-135.31"/>
<polygon fill="#63b8ff" stroke="#63b8ff" points="753.12,-138.04 758.91,-129.17 748.85,-132.49 753.12,-138.04"/>
</a>
</g>
</g>
<!-- Node18 -->
<g id="Node000018" class="node">
<title>Node18</title>
<g id="a_Node000018"><a xlink:title=" ">
<polygon fill="#e0e0e0" stroke="#999999" points="479.2,-129 423.2,-129 423.2,-110 479.2,-110 479.2,-129"/>
<text text-anchor="middle" x="451.2" y="-117" font-family="Helvetica,sans-Serif" font-size="10.00">sstream</text>
</a>
</g>
</g>
<!-- Node11&#45;&gt;Node18 -->
<g id="edge19_Node000011_Node000018" class="edge">
<title>Node11&#45;&gt;Node18</title>
<g id="a_edge19_Node000011_Node000018"><a xlink:title=" ">
<path fill="none" stroke="#63b8ff" d="M661.9,-165.53C621.2,-157.23 555.53,-143.68 489.62,-129.28"/>
<polygon fill="#63b8ff" stroke="#63b8ff" points="489.99,-125.78 479.47,-127.05 488.49,-132.61 489.99,-125.78"/>
</a>
</g>
</g>
<!-- Node19 -->
<g id="Node000019" class="node">
<title>Node19</title>
<g id="a_Node000019"><a xlink:title=" ">
<polygon fill="#e0e0e0" stroke="#999999" points="581.2,-129 497.2,-129 497.2,-110 581.2,-110 581.2,-129"/>
<text text-anchor="middle" x="539.2" y="-117" font-family="Helvetica,sans-Serif" font-size="10.00">realm/utils.inl</text>
</a>
</g>
</g>
<!-- Node11&#45;&gt;Node19 -->
<g id="edge20_Node000011_Node000019" class="edge">
<title>Node11&#45;&gt;Node19</title>
<g id="a_edge20_Node000011_Node000019"><a xlink:title=" ">
<path fill="none" stroke="#63b8ff" d="M675.17,-164.98C648.09,-156.13 605.49,-142.19 575.2,-132.28"/>
<polygon fill="#63b8ff" stroke="#63b8ff" points="576.03,-128.87 565.43,-129.08 573.85,-135.52 576.03,-128.87"/>
</a>
</g>
</g>
<!-- Node20&#45;&gt;Node4 -->
<g id="edge22_Node000020_Node000004" class="edge">
<title>Node20&#45;&gt;Node4</title>
<g id="a_edge22_Node000020_Node000004"><a xlink:title=" ">
<path fill="none" stroke="#63b8ff" d="M122.5,-164.98C156.83,-155.93 211.26,-141.58 248.97,-131.64"/>
<polygon fill="#63b8ff" stroke="#63b8ff" points="249.88,-135.02 258.66,-129.08 248.09,-128.25 249.88,-135.02"/>
</a>
</g>
</g>
<!-- Node20&#45;&gt;Node8 -->
<g id="edge23_Node000020_Node000008" class="edge">
<title>Node20&#45;&gt;Node8</title>
<g id="a_edge23_Node000020_Node000008"><a xlink:title=" ">
<path fill="none" stroke="#63b8ff" d="M94.05,-164.66C101.73,-147.01 119.1,-107.09 129.31,-83.64"/>
<polygon fill="#63b8ff" stroke="#63b8ff" points="132.65,-84.72 133.43,-74.16 126.24,-81.93 132.65,-84.72"/>
</a>
</g>
</g>
<!-- Node20&#45;&gt;Node21 -->
<g id="edge24_Node000020_Node000021" class="edge">
<title>Node20&#45;&gt;Node21</title>
<g id="a_edge24_Node000020_Node000021"><a xlink:title=" ">
<path fill="none" stroke="#63b8ff" d="M107.07,-164.98C123.81,-156.54 149.7,-143.47 169.1,-133.68"/>
<polygon fill="#63b8ff" stroke="#63b8ff" points="170.68,-136.8 178.03,-129.17 167.52,-130.55 170.68,-136.8"/>
</a>
</g>
</g>
<!-- Node22 -->
<g id="Node000022" class="node">
<title>Node22</title>
<g id="a_Node000022"><a xlink:title=" ">
<polygon fill="#e0e0e0" stroke="#999999" points="70.7,-129 5.7,-129 5.7,-110 70.7,-110 70.7,-129"/>
<text text-anchor="middle" x="38.2" y="-117" font-family="Helvetica,sans-Serif" font-size="10.00">functional</text>
</a>
</g>
</g>
<!-- Node20&#45;&gt;Node22 -->
<g id="edge25_Node000020_Node000022" class="edge">
<title>Node20&#45;&gt;Node22</title>
<g id="a_edge25_Node000020_Node000022"><a xlink:title=" ">
<path fill="none" stroke="#63b8ff" d="M81.62,-164.75C74.04,-157.03 62.82,-145.6 53.69,-136.28"/>
<polygon fill="#63b8ff" stroke="#63b8ff" points="56.13,-133.78 46.63,-129.09 51.13,-138.68 56.13,-133.78"/>
</a>
</g>
</g>
<!-- Node28&#45;&gt;Node5 -->
<g id="edge37_Node000028_Node000005" class="edge">
<title>Node28&#45;&gt;Node5</title>
<g id="a_edge37_Node000028_Node000005"><a xlink:title=" ">
<path fill="none" stroke="#63b8ff" d="M991.08,-338.04C1115.27,-335.55 1433.2,-320.4 1433.2,-230.5 1433.2,-230.5 1433.2,-230.5 1433.2,-173.5 1433.2,-136.64 1405.7,-100.97 1387.33,-81.26"/>
<polygon fill="#63b8ff" stroke="#63b8ff" points="1389.82,-78.8 1380.35,-74.06 1384.8,-83.67 1389.82,-78.8"/>
</a>
</g>
</g>
<!-- Node28&#45;&gt;Node15 -->
<g id="edge68_Node000028_Node000015" class="edge">
<title>Node28&#45;&gt;Node15</title>
<g id="a_edge68_Node000028_Node000015"><a xlink:title=" ">
<path fill="none" stroke="#63b8ff" d="M928.7,-329.78C906.49,-314.53 863.01,-280.62 846.2,-239 832.44,-204.92 848.73,-162.03 860.4,-138.32"/>
<polygon fill="#63b8ff" stroke="#63b8ff" points="863.66,-139.63 865.17,-129.14 857.45,-136.4 863.66,-139.63"/>
</a>
</g>
</g>
<!-- Node28&#45;&gt;Node20 -->
<g id="edge64_Node000028_Node000020" class="edge">
<title>Node28&#45;&gt;Node20</title>
<g id="a_edge64_Node000028_Node000020"><a xlink:title=" ">
<path fill="none" stroke="#63b8ff" d="M893.67,-337.61C790.59,-335.14 542.45,-326.08 337.2,-294 234.21,-277.9 184.88,-310.69 109.2,-239 97.07,-227.51 92.59,-208.63 90.98,-194.43"/>
<polygon fill="#63b8ff" stroke="#63b8ff" points="94.46,-194 90.22,-184.29 87.48,-194.52 94.46,-194"/>
</a>
</g>
</g>
<!-- Node29 -->
<g id="Node000029" class="node">
<title>Node29</title>
<g id="a_Node000029"><a xlink:href="module_8h.html" target="_top" xlink:title=" ">
<polygon fill="white" stroke="#666666" points="1021.2,-239 927.2,-239 927.2,-220 1021.2,-220 1021.2,-239"/>
<text text-anchor="middle" x="974.2" y="-227" font-family="Helvetica,sans-Serif" font-size="10.00">realm/module.h</text>
</a>
</g>
</g>
<!-- Node28&#45;&gt;Node29 -->
<g id="edge38_Node000028_Node000029" class="edge">
<title>Node28&#45;&gt;Node29</title>
<g id="a_edge38_Node000028_Node000029"><a xlink:title=" ">
<path fill="none" stroke="#63b8ff" d="M944.82,-329.66C950.03,-312.09 961.77,-272.45 968.74,-248.95"/>
<polygon fill="#63b8ff" stroke="#63b8ff" points="972.15,-249.74 971.64,-239.16 965.44,-247.75 972.15,-249.74"/>
</a>
</g>
</g>
<!-- Node33 -->
<g id="Node000033" class="node">
<title>Node33</title>
<g id="a_Node000033"><a xlink:href="nodeset_8h.html" target="_top" xlink:title=" ">
<polygon fill="white" stroke="#666666" points="1324.2,-294 1228.2,-294 1228.2,-275 1324.2,-275 1324.2,-294"/>
<text text-anchor="middle" x="1276.2" y="-282" font-family="Helvetica,sans-Serif" font-size="10.00">realm/nodeset.h</text>
</a>
</g>
</g>
<!-- Node28&#45;&gt;Node33 -->
<g id="edge50_Node000028_Node000033" class="edge">
<title>Node28&#45;&gt;Node33</title>
<g id="a_edge50_Node000028_Node000033"><a xlink:title=" ">
<path fill="none" stroke="#63b8ff" d="M990.77,-330.79C1051.05,-321.23 1153.74,-304.93 1218.13,-294.72"/>
<polygon fill="#63b8ff" stroke="#63b8ff" points="1218.79,-298.15 1228.12,-293.13 1217.69,-291.24 1218.79,-298.15"/>
</a>
</g>
</g>
<!-- Node40 -->
<g id="Node000040" class="node">
<title>Node40</title>
<g id="a_Node000040"><a xlink:href="bytearray_8h.html" target="_top" xlink:title=" ">
<polygon fill="white" stroke="#666666" points="780.7,-294 677.7,-294 677.7,-275 780.7,-275 780.7,-294"/>
<text text-anchor="middle" x="729.2" y="-282" font-family="Helvetica,sans-Serif" font-size="10.00">realm/bytearray.h</text>
</a>
</g>
</g>
<!-- Node28&#45;&gt;Node40 -->
<g id="edge65_Node000028_Node000040" class="edge">
<title>Node28&#45;&gt;Node40</title>
<g id="a_edge65_Node000028_Node000040"><a xlink:title=" ">
<path fill="none" stroke="#63b8ff" d="M907.98,-329.98C871.45,-320.89 813.43,-306.46 773.44,-296.51"/>
<polygon fill="#63b8ff" stroke="#63b8ff" points="774.24,-293.1 763.69,-294.08 772.55,-299.89 774.24,-293.1"/>
</a>
</g>
</g>
<!-- Node42 -->
<g id="Node000042" class="node">
<title>Node42</title>
<g id="a_Node000042"><a xlink:title=" ">
<polygon fill="#e0e0e0" stroke="#999999" points="1073.7,-294 970.7,-294 970.7,-275 1073.7,-275 1073.7,-294"/>
<text text-anchor="middle" x="1022.2" y="-282" font-family="Helvetica,sans-Serif" font-size="10.00">realm/network.inl</text>
</a>
</g>
</g>
<!-- Node28&#45;&gt;Node42 -->
<g id="edge69_Node000028_Node000042" class="edge">
<title>Node28&#45;&gt;Node42</title>
<g id="a_edge69_Node000028_Node000042"><a xlink:title=" ">
<path fill="none" stroke="#63b8ff" d="M955.06,-329.98C967.35,-321.84 986.11,-309.41 1000.68,-299.76"/>
<polygon fill="#63b8ff" stroke="#63b8ff" points="1002.71,-302.61 1009.12,-294.17 998.85,-296.78 1002.71,-302.61"/>
</a>
</g>
</g>
<!-- Node29&#45;&gt;Node5 -->
<g id="edge39_Node000029_Node000005" class="edge">
<title>Node29&#45;&gt;Node5</title>
<g id="a_edge39_Node000029_Node000005"><a xlink:title=" ">
<path fill="none" stroke="#63b8ff" d="M1005.79,-219.88C1059.81,-204.65 1172.83,-170.62 1263.2,-129 1294.52,-114.58 1328.47,-93.66 1349.78,-79.83"/>
<polygon fill="#63b8ff" stroke="#63b8ff" points="1351.92,-82.61 1358.36,-74.2 1348.08,-76.76 1351.92,-82.61"/>
</a>
</g>
</g>
<!-- Node29&#45;&gt;Node12 -->
<g id="edge48_Node000029_Node000012" class="edge">
<title>Node29&#45;&gt;Node12</title>
<g id="a_edge48_Node000029_Node000012"><a xlink:title=" ">
<path fill="none" stroke="#63b8ff" d="M966.68,-219.92C959.58,-211.38 949.17,-197.63 943.2,-184 936.9,-169.6 933.31,-152.09 931.35,-139.1"/>
<polygon fill="#63b8ff" stroke="#63b8ff" points="934.8,-138.5 930.02,-129.05 927.86,-139.42 934.8,-138.5"/>
</a>
</g>
</g>
<!-- Node29&#45;&gt;Node14 -->
<g id="edge47_Node000029_Node000014" class="edge">
<title>Node29&#45;&gt;Node14</title>
<g id="a_edge47_Node000029_Node000014"><a xlink:title=" ">
<path fill="none" stroke="#63b8ff" d="M926.93,-221.4C923.64,-220.92 920.37,-220.45 917.2,-220 799.97,-203.27 767.15,-216.25 653.2,-184 633.1,-178.31 630.17,-171.15 610.2,-165 528.54,-139.84 502.52,-147.46 414.79,-128.96"/>
<polygon fill="#63b8ff" stroke="#63b8ff" points="415.46,-125.52 404.95,-126.83 413.98,-132.36 415.46,-125.52"/>
</a>
</g>
</g>
<!-- Node29&#45;&gt;Node15 -->
<g id="edge49_Node000029_Node000015" class="edge">
<title>Node29&#45;&gt;Node15</title>
<g id="a_edge49_Node000029_Node000015"><a xlink:title=" ">
<path fill="none" stroke="#63b8ff" d="M965.69,-219.66C948.16,-201.46 907.8,-159.55 885.58,-136.47"/>
<polygon fill="#63b8ff" stroke="#63b8ff" points="888,-133.93 878.54,-129.16 882.96,-138.79 888,-133.93"/>
</a>
</g>
</g>
<!-- Node30 -->
<g id="Node000030" class="node">
<title>Node30</title>
<g id="a_Node000030"><a xlink:href="module__config_8h.html" target="_top" xlink:title=" ">
<polygon fill="white" stroke="#666666" points="1080.2,-184 952.2,-184 952.2,-165 1080.2,-165 1080.2,-184"/>
<text text-anchor="middle" x="1016.2" y="-172" font-family="Helvetica,sans-Serif" font-size="10.00">realm/module_config.h</text>
</a>
</g>
</g>
<!-- Node29&#45;&gt;Node30 -->
<g id="edge40_Node000029_Node000030" class="edge">
<title>Node29&#45;&gt;Node30</title>
<g id="a_edge40_Node000029_Node000030"><a xlink:title=" ">
<path fill="none" stroke="#63b8ff" d="M981.14,-219.75C987.07,-212.26 995.77,-201.28 1003.03,-192.13"/>
<polygon fill="#63b8ff" stroke="#63b8ff" points="1005.93,-194.1 1009.4,-184.09 1000.44,-189.75 1005.93,-194.1"/>
</a>
</g>
</g>
<!-- Node30&#45;&gt;Node4 -->
<g id="edge42_Node000030_Node000004" class="edge">
<title>Node30&#45;&gt;Node4</title>
<g id="a_edge42_Node000030_Node000004"><a xlink:title=" ">
<path fill="none" stroke="#63b8ff" d="M952.03,-170.97C834.57,-165.95 576.91,-153.18 349.49,-129.05"/>
<polygon fill="#63b8ff" stroke="#63b8ff" points="349.69,-125.55 339.37,-127.96 348.94,-132.51 349.69,-125.55"/>
</a>
</g>
</g>
<!-- Node30&#45;&gt;Node5 -->
<g id="edge41_Node000030_Node000005" class="edge">
<title>Node30&#45;&gt;Node5</title>
<g id="a_edge41_Node000030_Node000005"><a xlink:title=" ">
<path fill="none" stroke="#63b8ff" d="M1070.4,-164.93C1112.83,-157.49 1173.02,-145.35 1224.2,-129 1267.98,-115.01 1316.52,-92.61 1345.41,-78.49"/>
<polygon fill="#63b8ff" stroke="#63b8ff" points="1347,-81.61 1354.42,-74.05 1343.91,-75.33 1347,-81.61"/>
</a>
</g>
</g>
<!-- Node30&#45;&gt;Node12 -->
<g id="edge43_Node000030_Node000012" class="edge">
<title>Node30&#45;&gt;Node12</title>
<g id="a_edge43_Node000030_Node000012"><a xlink:title=" ">
<path fill="none" stroke="#63b8ff" d="M1002.22,-164.98C988.73,-156.77 968.07,-144.18 952.16,-134.49"/>
<polygon fill="#63b8ff" stroke="#63b8ff" points="953.8,-131.38 943.44,-129.17 950.15,-137.36 953.8,-131.38"/>
</a>
</g>
</g>
<!-- Node30&#45;&gt;Node14 -->
<g id="edge45_Node000030_Node000014" class="edge">
<title>Node30&#45;&gt;Node14</title>
<g id="a_edge45_Node000030_Node000014"><a xlink:title=" ">
<path fill="none" stroke="#63b8ff" d="M952.05,-172.5C843.36,-170 616.06,-161.22 415.05,-128.8"/>
<polygon fill="#63b8ff" stroke="#63b8ff" points="415.32,-125.3 404.89,-127.14 414.19,-132.21 415.32,-125.3"/>
</a>
</g>
</g>
<!-- Node31 -->
<g id="Node000031" class="node">
<title>Node31</title>
<g id="a_Node000031"><a xlink:title=" ">
<polygon fill="#e0e0e0" stroke="#999999" points="1062.7,-129 969.7,-129 969.7,-110 1062.7,-110 1062.7,-129"/>
<text text-anchor="middle" x="1016.2" y="-117" font-family="Helvetica,sans-Serif" font-size="10.00">unordered_map</text>
</a>
</g>
</g>
<!-- Node30&#45;&gt;Node31 -->
<g id="edge44_Node000030_Node000031" class="edge">
<title>Node30&#45;&gt;Node31</title>
<g id="a_edge44_Node000030_Node000031"><a xlink:title=" ">
<path fill="none" stroke="#63b8ff" d="M1016.2,-164.75C1016.2,-157.8 1016.2,-147.85 1016.2,-139.13"/>
<polygon fill="#63b8ff" stroke="#63b8ff" points="1019.7,-139.09 1016.2,-129.09 1012.7,-139.09 1019.7,-139.09"/>
</a>
</g>
</g>
<!-- Node32 -->
<g id="Node000032" class="node">
<title>Node32</title>
<g id="a_Node000032"><a xlink:title=" ">
<polygon fill="#e0e0e0" stroke="#999999" points="1215.2,-129 1081.2,-129 1081.2,-110 1215.2,-110 1215.2,-129"/>
<text text-anchor="middle" x="1148.2" y="-117" font-family="Helvetica,sans-Serif" font-size="10.00">realm/module_config.inl</text>
</a>
</g>
</g>
<!-- Node30&#45;&gt;Node32 -->
<g id="edge46_Node000030_Node000032" class="edge">
<title>Node30&#45;&gt;Node32</title>
<g id="a_edge46_Node000030_Node000032"><a xlink:title=" ">
<path fill="none" stroke="#63b8ff" d="M1037.41,-164.98C1058.93,-156.34 1092.49,-142.87 1117.03,-133.02"/>
<polygon fill="#63b8ff" stroke="#63b8ff" points="1118.63,-136.14 1126.61,-129.17 1116.02,-129.65 1118.63,-136.14"/>
</a>
</g>
</g>
<!-- Node33&#45;&gt;Node5 -->
<g id="edge51_Node000033_Node000005" class="edge">
<title>Node33&#45;&gt;Node5</title>
<g id="a_edge51_Node000033_Node000005"><a xlink:title=" ">
<path fill="none" stroke="#63b8ff" d="M1321.66,-274.96C1341.98,-268.64 1364.04,-257.72 1376.2,-239 1407.6,-190.66 1389.28,-117.68 1378.02,-83.88"/>
<polygon fill="#63b8ff" stroke="#63b8ff" points="1381.29,-82.64 1374.68,-74.37 1374.69,-84.96 1381.29,-82.64"/>
</a>
</g>
</g>
<!-- Node33&#45;&gt;Node9 -->
<g id="edge61_Node000033_Node000009" class="edge">
<title>Node33&#45;&gt;Node9</title>
<g id="a_edge61_Node000033_Node000009"><a xlink:title=" ">
<path fill="none" stroke="#63b8ff" d="M1271.28,-274.96C1266.52,-266.23 1259.54,-252.14 1256.2,-239 1242.3,-184.24 1241.77,-116.89 1242.5,-84.57"/>
<polygon fill="#63b8ff" stroke="#63b8ff" points="1246,-84.44 1242.8,-74.34 1239.01,-84.23 1246,-84.44"/>
</a>
</g>
</g>
<!-- Node33&#45;&gt;Node26 -->
<g id="edge62_Node000033_Node000026" class="edge">
<title>Node33&#45;&gt;Node26</title>
<g id="a_edge62_Node000033_Node000026"><a xlink:title=" ">
<path fill="none" stroke="#63b8ff" d="M1228.18,-279.2C1161.2,-272.83 1035.75,-259.58 919.05,-238.96"/>
<polygon fill="#63b8ff" stroke="#63b8ff" points="919.33,-235.45 908.87,-237.14 918.1,-242.34 919.33,-235.45"/>
</a>
</g>
</g>
<!-- Node33&#45;&gt;Node34 -->
<g id="edge52_Node000033_Node000034" class="edge">
<title>Node33&#45;&gt;Node34</title>
<g id="a_edge52_Node000033_Node000034"><a xlink:title=" ">
<path fill="none" stroke="#63b8ff" d="M1313.16,-274.98C1352.77,-265.86 1415.79,-251.33 1458.98,-241.38"/>
<polygon fill="#63b8ff" stroke="#63b8ff" points="1460,-244.74 1468.96,-239.08 1458.43,-237.92 1460,-244.74"/>
</a>
</g>
</g>
<!-- Node39 -->
<g id="Node000039" class="node">
<title>Node39</title>
<g id="a_Node000039"><a xlink:title=" ">
<polygon fill="#e0e0e0" stroke="#999999" points="1367.2,-239 1265.2,-239 1265.2,-220 1367.2,-220 1367.2,-239"/>
<text text-anchor="middle" x="1316.2" y="-227" font-family="Helvetica,sans-Serif" font-size="10.00">realm/nodeset.inl</text>
</a>
</g>
</g>
<!-- Node33&#45;&gt;Node39 -->
<g id="edge63_Node000033_Node000039" class="edge">
<title>Node33&#45;&gt;Node39</title>
<g id="a_edge63_Node000033_Node000039"><a xlink:title=" ">
<path fill="none" stroke="#63b8ff" d="M1282.81,-274.75C1288.46,-267.26 1296.75,-256.28 1303.65,-247.13"/>
<polygon fill="#63b8ff" stroke="#63b8ff" points="1306.49,-249.18 1309.72,-239.09 1300.9,-244.96 1306.49,-249.18"/>
</a>
</g>
</g>
<!-- Node34&#45;&gt;Node5 -->
<g id="edge53_Node000034_Node000005" class="edge">
<title>Node34&#45;&gt;Node5</title>
<g id="a_edge53_Node000034_Node000005"><a xlink:title=" ">
<path fill="none" stroke="#63b8ff" d="M1525.07,-219.81C1547.06,-208.4 1578.78,-187.22 1565.2,-165 1534.87,-115.35 1471.01,-89.45 1424.83,-76.68"/>
<polygon fill="#63b8ff" stroke="#63b8ff" points="1425.53,-73.24 1414.97,-74.08 1423.75,-80.01 1425.53,-73.24"/>
</a>
</g>
</g>
<!-- Node34&#45;&gt;Node9 -->
<g id="edge59_Node000034_Node000009" class="edge">
<title>Node34&#45;&gt;Node9</title>
<g id="a_edge59_Node000034_Node000009"><a xlink:title=" ">
<path fill="none" stroke="#63b8ff" d="M1492.43,-219.97C1449.66,-193.46 1318.79,-112.35 1265.82,-79.52"/>
<polygon fill="#63b8ff" stroke="#63b8ff" points="1267.5,-76.44 1257.15,-74.15 1263.81,-82.39 1267.5,-76.44"/>
</a>
</g>
</g>
<!-- Node34&#45;&gt;Node11 -->
<g id="edge54_Node000034_Node000011" class="edge">
<title>Node34&#45;&gt;Node11</title>
<g id="a_edge54_Node000034_Node000011"><a xlink:title=" ">
<path fill="none" stroke="#63b8ff" d="M1461.49,-225.56C1322.12,-216.38 896.24,-188.34 750.63,-178.75"/>
<polygon fill="#63b8ff" stroke="#63b8ff" points="750.84,-175.26 740.63,-178.1 750.38,-182.25 750.84,-175.26"/>
</a>
</g>
</g>
<!-- Node34&#45;&gt;Node35 -->
<g id="edge55_Node000034_Node000035" class="edge">
<title>Node34&#45;&gt;Node35</title>
<g id="a_edge55_Node000034_Node000035"><a xlink:title=" ">
<path fill="none" stroke="#63b8ff" d="M1531.11,-219.98C1556.9,-211.16 1597.42,-197.31 1626.38,-187.41"/>
<polygon fill="#63b8ff" stroke="#63b8ff" points="1627.77,-190.63 1636.1,-184.08 1625.51,-184.01 1627.77,-190.63"/>
</a>
</g>
</g>
<!-- Node38 -->
<g id="Node000038" class="node">
<title>Node38</title>
<g id="a_Node000038"><a xlink:title=" ">
<polygon fill="#e0e0e0" stroke="#999999" points="1556.7,-184 1461.7,-184 1461.7,-165 1556.7,-165 1556.7,-184"/>
<text text-anchor="middle" x="1509.2" y="-172" font-family="Helvetica,sans-Serif" font-size="10.00">realm/mutex.inl</text>
</a>
</g>
</g>
<!-- Node34&#45;&gt;Node38 -->
<g id="edge60_Node000034_Node000038" class="edge">
<title>Node34&#45;&gt;Node38</title>
<g id="a_edge60_Node000034_Node000038"><a xlink:title=" ">
<path fill="none" stroke="#63b8ff" d="M1506.7,-219.75C1507.09,-212.8 1507.65,-202.85 1508.15,-194.13"/>
<polygon fill="#63b8ff" stroke="#63b8ff" points="1511.65,-194.27 1508.72,-184.09 1504.66,-193.88 1511.65,-194.27"/>
</a>
</g>
</g>
<!-- Node35&#45;&gt;Node5 -->
<g id="edge56_Node000035_Node000005" class="edge">
<title>Node35&#45;&gt;Node5</title>
<g id="a_edge56_Node000035_Node000005"><a xlink:title=" ">
<path fill="none" stroke="#63b8ff" d="M1655.49,-164.91C1645.72,-150.97 1624.42,-123.61 1599.2,-110 1550.6,-83.76 1488.75,-72.86 1441.73,-68.4"/>
<polygon fill="#63b8ff" stroke="#63b8ff" points="1441.9,-64.9 1431.63,-67.51 1441.29,-71.87 1441.9,-64.9"/>
</a>
</g>
</g>
<!-- Node36 -->
<g id="Node000036" class="node">
<title>Node36</title>
<g id="a_Node000036"><a xlink:title=" ">
<polygon fill="#e0e0e0" stroke="#999999" points="1821.2,-129 1771.2,-129 1771.2,-110 1821.2,-110 1821.2,-129"/>
<text text-anchor="middle" x="1796.2" y="-117" font-family="Helvetica,sans-Serif" font-size="10.00">atomic</text>
</a>
</g>
</g>
<!-- Node35&#45;&gt;Node36 -->
<g id="edge57_Node000035_Node000036" class="edge">
<title>Node35&#45;&gt;Node36</title>
<g id="a_edge57_Node000035_Node000036"><a xlink:title=" ">
<path fill="none" stroke="#63b8ff" d="M1682.89,-164.98C1705,-156.3 1739.52,-142.75 1764.66,-132.88"/>
<polygon fill="#63b8ff" stroke="#63b8ff" points="1766.09,-136.08 1774.12,-129.17 1763.53,-129.57 1766.09,-136.08"/>
</a>
</g>
</g>
<!-- Node37 -->
<g id="Node000037" class="node">
<title>Node37</title>
<g id="a_Node000037"><a xlink:title=" ">
<polygon fill="#e0e0e0" stroke="#999999" points="1753.2,-129 1651.2,-129 1651.2,-110 1753.2,-110 1753.2,-129"/>
<text text-anchor="middle" x="1702.2" y="-117" font-family="Helvetica,sans-Serif" font-size="10.00">realm/atomics.inl</text>
</a>
</g>
</g>
<!-- Node35&#45;&gt;Node37 -->
<g id="edge58_Node000035_Node000037" class="edge">
<title>Node35&#45;&gt;Node37</title>
<g id="a_edge58_Node000035_Node000037"><a xlink:title=" ">
<path fill="none" stroke="#63b8ff" d="M1667.97,-164.75C1673.76,-157.26 1682.26,-146.28 1689.34,-137.13"/>
<polygon fill="#63b8ff" stroke="#63b8ff" points="1692.21,-139.14 1695.56,-129.09 1686.67,-134.86 1692.21,-139.14"/>
</a>
</g>
</g>
<!-- Node40&#45;&gt;Node8 -->
<g id="edge66_Node000040_Node000008" class="edge">
<title>Node40&#45;&gt;Node8</title>
<g id="a_edge66_Node000040_Node000008"><a xlink:title=" ">
<path fill="none" stroke="#63b8ff" d="M677.52,-282.15C574.41,-278.85 346.93,-268.39 275.2,-239 241.88,-225.35 174.07,-160.27 156.2,-129 148.25,-115.09 143.33,-97.53 140.49,-84.4"/>
<polygon fill="#63b8ff" stroke="#63b8ff" points="143.86,-83.36 138.51,-74.21 136.99,-84.7 143.86,-83.36"/>
</a>
</g>
</g>
<!-- Node41 -->
<g id="Node000041" class="node">
<title>Node41</title>
<g id="a_Node000041"><a xlink:title=" ">
<polygon fill="#e0e0e0" stroke="#999999" points="783.7,-239 674.7,-239 674.7,-220 783.7,-220 783.7,-239"/>
<text text-anchor="middle" x="729.2" y="-227" font-family="Helvetica,sans-Serif" font-size="10.00">realm/bytearray.inl</text>
</a>
</g>
</g>
<!-- Node40&#45;&gt;Node41 -->
<g id="edge67_Node000040_Node000041" class="edge">
<title>Node40&#45;&gt;Node41</title>
<g id="a_edge67_Node000040_Node000041"><a xlink:title=" ">
<path fill="none" stroke="#63b8ff" d="M729.2,-274.75C729.2,-267.8 729.2,-257.85 729.2,-249.13"/>
<polygon fill="#63b8ff" stroke="#63b8ff" points="732.7,-249.09 729.2,-239.09 725.7,-249.09 732.7,-249.09"/>
</a>
</g>
</g>
</g>
</svg>
