<?xml version="1.0" encoding="UTF-8" standalone="no"?>
<!DOCTYPE svg PUBLIC "-//W3C//DTD SVG 1.1//EN"
 "http://www.w3.org/Graphics/SVG/1.1/DTD/svg11.dtd">
<!-- Generated by graphviz version 2.43.0 (0)
 -->
<!-- Title: /home/runner/work/realm/realm/realm&#45;src/src/realm/mem_impl.h Pages: 1 -->
<svg width="1212pt" height="357pt"
 viewBox="0.00 0.00 1212.41 357.00" xmlns="http://www.w3.org/2000/svg" xmlns:xlink="http://www.w3.org/1999/xlink">
<g id="graph0" class="graph" transform="scale(1 1) rotate(0) translate(4 353)">
<title>/home/runner/work/realm/realm/realm&#45;src/src/realm/mem_impl.h</title>
<!-- Node1 -->
<g id="Node000001" class="node">
<title>Node1</title>
<g id="a_Node000001"><a xlink:title=" ">
<polygon fill="#999999" stroke="#666666" points="853.41,-349 707.41,-349 707.41,-308 853.41,-308 853.41,-349"/>
<text text-anchor="start" x="715.41" y="-337" font-family="Helvetica,sans-Serif" font-size="10.00">/home/runner/work/realm</text>
<text text-anchor="start" x="715.41" y="-326" font-family="Helvetica,sans-Serif" font-size="10.00">/realm/realm&#45;src/src/realm</text>
<text text-anchor="middle" x="780.41" y="-315" font-family="Helvetica,sans-Serif" font-size="10.00">/mem_impl.h</text>
</a>
</g>
</g>
<!-- Node2 -->
<g id="Node000002" class="node">
<title>Node2</title>
<g id="a_Node000002"><a xlink:href="cuda__internal_8h.html" target="_top" xlink:title=" ">
<polygon fill="white" stroke="#666666" points="866.41,-118 720.41,-118 720.41,-77 866.41,-77 866.41,-118"/>
<text text-anchor="start" x="728.41" y="-106" font-family="Helvetica,sans-Serif" font-size="10.00">/home/runner/work/realm</text>
<text text-anchor="start" x="728.41" y="-95" font-family="Helvetica,sans-Serif" font-size="10.00">/realm/realm&#45;src/src/realm</text>
<text text-anchor="middle" x="793.41" y="-84" font-family="Helvetica,sans-Serif" font-size="10.00">/cuda/cuda_internal.h</text>
</a>
</g>
</g>
<!-- Node1&#45;&gt;Node2 -->
<g id="edge1_Node000001_Node000002" class="edge">
<title>Node1&#45;&gt;Node2</title>
<g id="a_edge1_Node000001_Node000002"><a xlink:title=" ">
<path fill="none" stroke="#63b8ff" d="M760.94,-299.13C756.22,-290.76 751.84,-281.33 749.41,-272 734.88,-216.22 764.51,-150.18 781.93,-118.04"/>
<polygon fill="#63b8ff" stroke="#63b8ff" points="757.97,-300.98 766.12,-307.75 763.97,-297.37 757.97,-300.98"/>
</a>
</g>
</g>
<!-- Node3 -->
<g id="Node000003" class="node">
<title>Node3</title>
<g id="a_Node000003"><a xlink:href="hdf5__internal_8h.html" target="_top" xlink:title=" ">
<polygon fill="white" stroke="#666666" points="162.41,-41 16.41,-41 16.41,0 162.41,0 162.41,-41"/>
<text text-anchor="start" x="24.41" y="-29" font-family="Helvetica,sans-Serif" font-size="10.00">/home/runner/work/realm</text>
<text text-anchor="start" x="24.41" y="-18" font-family="Helvetica,sans-Serif" font-size="10.00">/realm/realm&#45;src/src/realm</text>
<text text-anchor="middle" x="89.41" y="-7" font-family="Helvetica,sans-Serif" font-size="10.00">/hdf5/hdf5_internal.h</text>
</a>
</g>
</g>
<!-- Node1&#45;&gt;Node3 -->
<g id="edge2_Node000001_Node000003" class="edge">
<title>Node1&#45;&gt;Node3</title>
<g id="a_edge2_Node000001_Node000003"><a xlink:title=" ">
<path fill="none" stroke="#63b8ff" d="M697.07,-317.81C514.72,-294.69 90,-229.72 7.41,-118 -3.42,-103.35 -1.13,-93.1 7.41,-77 15.55,-61.66 30.03,-49.79 44.58,-41.03"/>
<polygon fill="#63b8ff" stroke="#63b8ff" points="696.79,-321.3 707.15,-319.08 697.66,-314.36 696.79,-321.3"/>
</a>
</g>
</g>
<!-- Node4 -->
<g id="Node000004" class="node">
<title>Node4</title>
<g id="a_Node000004"><a xlink:href="hip__internal_8h.html" target="_top" xlink:title=" ">
<polygon fill="white" stroke="#666666" points="1030.41,-118 884.41,-118 884.41,-77 1030.41,-77 1030.41,-118"/>
<text text-anchor="start" x="892.41" y="-106" font-family="Helvetica,sans-Serif" font-size="10.00">/home/runner/work/realm</text>
<text text-anchor="start" x="892.41" y="-95" font-family="Helvetica,sans-Serif" font-size="10.00">/realm/realm&#45;src/src/realm</text>
<text text-anchor="middle" x="957.41" y="-84" font-family="Helvetica,sans-Serif" font-size="10.00">/hip/hip_internal.h</text>
</a>
</g>
</g>
<!-- Node1&#45;&gt;Node4 -->
<g id="edge3_Node000001_Node000004" class="edge">
<title>Node1&#45;&gt;Node4</title>
<g id="a_edge3_Node000001_Node000004"><a xlink:title=" ">
<path fill="none" stroke="#63b8ff" d="M863.21,-308.34C919.67,-290.07 988.68,-256 1014.41,-195 1021.49,-178.21 1021.49,-170.79 1014.41,-154 1008.45,-139.88 996.94,-127.57 985.82,-118.15"/>
<polygon fill="#63b8ff" stroke="#63b8ff" points="862.05,-305.03 853.54,-311.35 864.13,-311.71 862.05,-305.03"/>
</a>
</g>
</g>
<!-- Node5 -->
<g id="Node000005" class="node">
<title>Node5</title>
<g id="a_Node000005"><a xlink:href="inst__impl_8h.html" target="_top" xlink:title=" ">
<polygon fill="white" stroke="#666666" points="664.41,-272 518.41,-272 518.41,-231 664.41,-231 664.41,-272"/>
<text text-anchor="start" x="526.41" y="-260" font-family="Helvetica,sans-Serif" font-size="10.00">/home/runner/work/realm</text>
<text text-anchor="start" x="526.41" y="-249" font-family="Helvetica,sans-Serif" font-size="10.00">/realm/realm&#45;src/src/realm</text>
<text text-anchor="middle" x="591.41" y="-238" font-family="Helvetica,sans-Serif" font-size="10.00">/inst_impl.h</text>
</a>
</g>
</g>
<!-- Node1&#45;&gt;Node5 -->
<g id="edge4_Node000001_Node000005" class="edge">
<title>Node1&#45;&gt;Node5</title>
<g id="a_edge4_Node000001_Node000005"><a xlink:title=" ">
<path fill="none" stroke="#63b8ff" d="M721.86,-304.27C695.82,-293.94 665.51,-281.9 640.65,-272.04"/>
<polygon fill="#63b8ff" stroke="#63b8ff" points="720.66,-307.56 731.24,-307.99 723.24,-301.05 720.66,-307.56"/>
</a>
</g>
</g>
<!-- Node6 -->
<g id="Node000006" class="node">
<title>Node6</title>
<g id="a_Node000006"><a xlink:href="channel_8h.html" target="_top" xlink:title=" ">
<polygon fill="white" stroke="#666666" points="683.41,-195 537.41,-195 537.41,-154 683.41,-154 683.41,-195"/>
<text text-anchor="start" x="545.41" y="-183" font-family="Helvetica,sans-Serif" font-size="10.00">/home/runner/work/realm</text>
<text text-anchor="start" x="545.41" y="-172" font-family="Helvetica,sans-Serif" font-size="10.00">/realm/realm&#45;src/src/realm</text>
<text text-anchor="middle" x="610.41" y="-161" font-family="Helvetica,sans-Serif" font-size="10.00">/transfer/channel.h</text>
</a>
</g>
</g>
<!-- Node1&#45;&gt;Node6 -->
<g id="edge16_Node000001_Node000006" class="edge">
<title>Node1&#45;&gt;Node6</title>
<g id="a_edge16_Node000001_Node000006"><a xlink:title=" ">
<path fill="none" stroke="#63b8ff" d="M749.55,-301.26C738.95,-292.11 727.07,-281.7 716.41,-272 696.87,-254.23 692.87,-248.84 673.41,-231 660.19,-218.89 645.13,-205.6 633.05,-195.07"/>
<polygon fill="#63b8ff" stroke="#63b8ff" points="747.51,-304.11 757.37,-307.98 752.07,-298.81 747.51,-304.11"/>
</a>
</g>
</g>
<!-- Node10 -->
<g id="Node000010" class="node">
<title>Node10</title>
<g id="a_Node000010"><a xlink:href="memcpy__channel_8h.html" target="_top" xlink:title=" ">
<polygon fill="white" stroke="#666666" points="1204.41,-118 1048.41,-118 1048.41,-77 1204.41,-77 1204.41,-118"/>
<text text-anchor="start" x="1056.41" y="-106" font-family="Helvetica,sans-Serif" font-size="10.00">/home/runner/work/realm</text>
<text text-anchor="start" x="1056.41" y="-95" font-family="Helvetica,sans-Serif" font-size="10.00">/realm/realm&#45;src/src/realm</text>
<text text-anchor="middle" x="1126.41" y="-84" font-family="Helvetica,sans-Serif" font-size="10.00">/transfer/memcpy_channel.h</text>
</a>
</g>
</g>
<!-- Node1&#45;&gt;Node10 -->
<g id="edge21_Node000001_Node000010" class="edge">
<title>Node1&#45;&gt;Node10</title>
<g id="a_edge21_Node000001_Node000010"><a xlink:title=" ">
<path fill="none" stroke="#63b8ff" d="M863.64,-316.41C902.07,-308.44 946.92,-294.9 982.41,-272 1045.39,-231.35 1094.73,-154.43 1115.59,-118.25"/>
<polygon fill="#63b8ff" stroke="#63b8ff" points="862.64,-313.04 853.51,-318.41 864,-319.91 862.64,-313.04"/>
</a>
</g>
</g>
<!-- Node12 -->
<g id="Node000012" class="node">
<title>Node12</title>
<g id="a_Node000012"><a xlink:href="ib__memory_8h.html" target="_top" xlink:title=" ">
<polygon fill="white" stroke="#666666" points="904.41,-272 758.41,-272 758.41,-231 904.41,-231 904.41,-272"/>
<text text-anchor="start" x="766.41" y="-260" font-family="Helvetica,sans-Serif" font-size="10.00">/home/runner/work/realm</text>
<text text-anchor="start" x="766.41" y="-249" font-family="Helvetica,sans-Serif" font-size="10.00">/realm/realm&#45;src/src/realm</text>
<text text-anchor="middle" x="831.41" y="-238" font-family="Helvetica,sans-Serif" font-size="10.00">/transfer/ib_memory.h</text>
</a>
</g>
</g>
<!-- Node1&#45;&gt;Node12 -->
<g id="edge17_Node000001_Node000012" class="edge">
<title>Node1&#45;&gt;Node12</title>
<g id="a_edge17_Node000001_Node000012"><a xlink:title=" ">
<path fill="none" stroke="#63b8ff" d="M799.52,-299.39C805.71,-290.3 812.43,-280.41 818.1,-272.07"/>
<polygon fill="#63b8ff" stroke="#63b8ff" points="796.54,-297.56 793.81,-307.79 802.33,-301.49 796.54,-297.56"/>
</a>
</g>
</g>
<!-- Node13 -->
<g id="Node000013" class="node">
<title>Node13</title>
<g id="a_Node000013"><a xlink:href="ucp__internal_8h.html" target="_top" xlink:title=" ">
<polygon fill="white" stroke="#666666" points="1005.41,-195 859.41,-195 859.41,-154 1005.41,-154 1005.41,-195"/>
<text text-anchor="start" x="867.41" y="-183" font-family="Helvetica,sans-Serif" font-size="10.00">/home/runner/work/realm</text>
<text text-anchor="start" x="867.41" y="-172" font-family="Helvetica,sans-Serif" font-size="10.00">/realm/realm&#45;src/src/realm</text>
<text text-anchor="middle" x="932.41" y="-161" font-family="Helvetica,sans-Serif" font-size="10.00">/ucx/ucp_internal.h</text>
</a>
</g>
</g>
<!-- Node1&#45;&gt;Node13 -->
<g id="edge22_Node000001_Node000013" class="edge">
<title>Node1&#45;&gt;Node13</title>
<g id="a_edge22_Node000001_Node000013"><a xlink:title=" ">
<path fill="none" stroke="#63b8ff" d="M862.88,-307.61C881.9,-299.43 900.35,-287.99 913.41,-272 931.23,-250.18 933.97,-216.4 933.67,-195.14"/>
<polygon fill="#63b8ff" stroke="#63b8ff" points="861.5,-304.39 853.52,-311.36 864.1,-310.88 861.5,-304.39"/>
</a>
</g>
</g>
<!-- Node5&#45;&gt;Node6 -->
<g id="edge5_Node000005_Node000006" class="edge">
<title>Node5&#45;&gt;Node6</title>
<g id="a_edge5_Node000005_Node000006"><a xlink:title=" ">
<path fill="none" stroke="#63b8ff" d="M598.89,-220.98C601.09,-212.28 603.45,-202.98 605.45,-195.07"/>
<polygon fill="#63b8ff" stroke="#63b8ff" points="595.46,-220.24 596.4,-230.79 602.25,-221.96 595.46,-220.24"/>
</a>
</g>
</g>
<!-- Node9 -->
<g id="Node000009" class="node">
<title>Node9</title>
<g id="a_Node000009"><a xlink:href="lowlevel__dma_8h.html" target="_top" xlink:title=" ">
<polygon fill="white" stroke="#666666" points="162.41,-118 16.41,-118 16.41,-77 162.41,-77 162.41,-118"/>
<text text-anchor="start" x="24.41" y="-106" font-family="Helvetica,sans-Serif" font-size="10.00">/home/runner/work/realm</text>
<text text-anchor="start" x="24.41" y="-95" font-family="Helvetica,sans-Serif" font-size="10.00">/realm/realm&#45;src/src/realm</text>
<text text-anchor="middle" x="89.41" y="-84" font-family="Helvetica,sans-Serif" font-size="10.00">/transfer/lowlevel_dma.h</text>
</a>
</g>
</g>
<!-- Node5&#45;&gt;Node9 -->
<g id="edge15_Node000005_Node000009" class="edge">
<title>Node5&#45;&gt;Node9</title>
<g id="a_edge15_Node000005_Node000009"><a xlink:title=" ">
<path fill="none" stroke="#63b8ff" d="M516.95,-227.95C418.69,-198.2 247.3,-146.31 154.16,-118.11"/>
<polygon fill="#63b8ff" stroke="#63b8ff" points="516.22,-231.39 526.81,-230.94 518.25,-224.69 516.22,-231.39"/>
</a>
</g>
</g>
<!-- Node6&#45;&gt;Node2 -->
<g id="edge6_Node000006_Node000002" class="edge">
<title>Node6&#45;&gt;Node2</title>
<g id="a_edge6_Node000006_Node000002"><a xlink:title=" ">
<path fill="none" stroke="#63b8ff" d="M667.43,-150.13C692.56,-139.83 721.77,-127.86 745.73,-118.04"/>
<polygon fill="#63b8ff" stroke="#63b8ff" points="665.94,-146.96 658.01,-153.99 668.59,-153.44 665.94,-146.96"/>
</a>
</g>
</g>
<!-- Node6&#45;&gt;Node3 -->
<g id="edge7_Node000006_Node000003" class="edge">
<title>Node6&#45;&gt;Node3</title>
<g id="a_edge7_Node000006_Node000003"><a xlink:title=" ">
<path fill="none" stroke="#63b8ff" d="M527.39,-166.2C479.76,-159.15 420.3,-145.27 373.41,-118 351.93,-105.51 356.94,-89.4 335.41,-77 282.3,-46.4 213.7,-32.67 162.45,-26.51"/>
<polygon fill="#63b8ff" stroke="#63b8ff" points="526.97,-169.68 537.37,-167.61 527.95,-162.75 526.97,-169.68"/>
</a>
</g>
</g>
<!-- Node6&#45;&gt;Node4 -->
<g id="edge8_Node000006_Node000004" class="edge">
<title>Node6&#45;&gt;Node4</title>
<g id="a_edge8_Node000006_Node000004"><a xlink:title=" ">
<path fill="none" stroke="#63b8ff" d="M693.53,-156.69C745.81,-145.97 814.64,-131.59 875.41,-118 878.26,-117.36 881.17,-116.7 884.11,-116.03"/>
<polygon fill="#63b8ff" stroke="#63b8ff" points="692.73,-153.28 683.64,-158.72 694.13,-160.14 692.73,-153.28"/>
</a>
</g>
</g>
<!-- Node7 -->
<g id="Node000007" class="node">
<title>Node7</title>
<g id="a_Node000007"><a xlink:href="addrsplit__channel_8h.html" target="_top" xlink:title=" ">
<polygon fill="white" stroke="#666666" points="538.41,-118 382.41,-118 382.41,-77 538.41,-77 538.41,-118"/>
<text text-anchor="start" x="390.41" y="-106" font-family="Helvetica,sans-Serif" font-size="10.00">/home/runner/work/realm</text>
<text text-anchor="start" x="390.41" y="-95" font-family="Helvetica,sans-Serif" font-size="10.00">/realm/realm&#45;src/src/realm</text>
<text text-anchor="middle" x="460.41" y="-84" font-family="Helvetica,sans-Serif" font-size="10.00">/transfer/addrsplit_channel.h</text>
</a>
</g>
</g>
<!-- Node6&#45;&gt;Node7 -->
<g id="edge9_Node000006_Node000007" class="edge">
<title>Node6&#45;&gt;Node7</title>
<g id="a_edge9_Node000006_Node000007"><a xlink:title=" ">
<path fill="none" stroke="#63b8ff" d="M562.31,-149.45C542.02,-139.3 518.7,-127.64 499.49,-118.04"/>
<polygon fill="#63b8ff" stroke="#63b8ff" points="560.88,-152.65 571.39,-153.99 564.01,-146.39 560.88,-152.65"/>
</a>
</g>
</g>
<!-- Node8 -->
<g id="Node000008" class="node">
<title>Node8</title>
<g id="a_Node000008"><a xlink:href="channel__disk_8h.html" target="_top" xlink:title=" ">
<polygon fill="white" stroke="#666666" points="702.41,-118 556.41,-118 556.41,-77 702.41,-77 702.41,-118"/>
<text text-anchor="start" x="564.41" y="-106" font-family="Helvetica,sans-Serif" font-size="10.00">/home/runner/work/realm</text>
<text text-anchor="start" x="564.41" y="-95" font-family="Helvetica,sans-Serif" font-size="10.00">/realm/realm&#45;src/src/realm</text>
<text text-anchor="middle" x="629.41" y="-84" font-family="Helvetica,sans-Serif" font-size="10.00">/transfer/channel_disk.h</text>
</a>
</g>
</g>
<!-- Node6&#45;&gt;Node8 -->
<g id="edge10_Node000006_Node000008" class="edge">
<title>Node6&#45;&gt;Node8</title>
<g id="a_edge10_Node000006_Node000008"><a xlink:title=" ">
<path fill="none" stroke="#63b8ff" d="M617.89,-143.98C620.09,-135.28 622.45,-125.98 624.45,-118.07"/>
<polygon fill="#63b8ff" stroke="#63b8ff" points="614.46,-143.24 615.4,-153.79 621.25,-144.96 614.46,-143.24"/>
</a>
</g>
</g>
<!-- Node6&#45;&gt;Node9 -->
<g id="edge11_Node000006_Node000009" class="edge">
<title>Node6&#45;&gt;Node9</title>
<g id="a_edge11_Node000006_Node000009"><a xlink:title=" ">
<path fill="none" stroke="#63b8ff" d="M527.03,-165.66C438.42,-156.7 294.41,-140.33 171.41,-118 168.53,-117.48 165.6,-116.92 162.64,-116.33"/>
<polygon fill="#63b8ff" stroke="#63b8ff" points="526.72,-169.15 537.02,-166.66 527.42,-162.18 526.72,-169.15"/>
</a>
</g>
</g>
<!-- Node6&#45;&gt;Node10 -->
<g id="edge13_Node000006_Node000010" class="edge">
<title>Node6&#45;&gt;Node10</title>
<g id="a_edge13_Node000006_Node000010"><a xlink:title=" ">
<path fill="none" stroke="#63b8ff" d="M693.63,-165.02C780.32,-155.66 919.89,-139.08 1039.41,-118 1042.3,-117.49 1045.25,-116.95 1048.22,-116.38"/>
<polygon fill="#63b8ff" stroke="#63b8ff" points="693.16,-161.56 683.59,-166.1 693.91,-168.52 693.16,-161.56"/>
</a>
</g>
</g>
<!-- Node11 -->
<g id="Node000011" class="node">
<title>Node11</title>
<g id="a_Node000011"><a xlink:href="transfer_8h.html" target="_top" xlink:title=" ">
<polygon fill="white" stroke="#666666" points="326.41,-118 180.41,-118 180.41,-77 326.41,-77 326.41,-118"/>
<text text-anchor="start" x="188.41" y="-106" font-family="Helvetica,sans-Serif" font-size="10.00">/home/runner/work/realm</text>
<text text-anchor="start" x="188.41" y="-95" font-family="Helvetica,sans-Serif" font-size="10.00">/realm/realm&#45;src/src/realm</text>
<text text-anchor="middle" x="253.41" y="-84" font-family="Helvetica,sans-Serif" font-size="10.00">/transfer/transfer.h</text>
</a>
</g>
</g>
<!-- Node6&#45;&gt;Node11 -->
<g id="edge14_Node000006_Node000011" class="edge">
<title>Node6&#45;&gt;Node11</title>
<g id="a_edge14_Node000006_Node000011"><a xlink:title=" ">
<path fill="none" stroke="#63b8ff" d="M527.18,-156.79C473.76,-145.96 402.93,-131.43 340.41,-118 335.87,-117.02 331.2,-116.01 326.49,-114.98"/>
<polygon fill="#63b8ff" stroke="#63b8ff" points="526.78,-160.28 537.28,-158.83 528.17,-153.42 526.78,-160.28"/>
</a>
</g>
</g>
<!-- Node9&#45;&gt;Node3 -->
<g id="edge12_Node000009_Node000003" class="edge">
<title>Node9&#45;&gt;Node3</title>
<g id="a_edge12_Node000009_Node000003"><a xlink:title=" ">
<path fill="none" stroke="#63b8ff" d="M89.41,-66.69C89.41,-58.08 89.41,-48.9 89.41,-41.07"/>
<polygon fill="#63b8ff" stroke="#63b8ff" points="85.91,-66.79 89.41,-76.79 92.91,-66.79 85.91,-66.79"/>
</a>
</g>
</g>
<!-- Node12&#45;&gt;Node2 -->
<g id="edge18_Node000012_Node000002" class="edge">
<title>Node12&#45;&gt;Node2</title>
<g id="a_edge18_Node000012_Node000002"><a xlink:title=" ">
<path fill="none" stroke="#63b8ff" d="M823.99,-221.17C821.86,-212.72 819.54,-203.5 817.41,-195 810.74,-168.37 803.1,-137.6 798.26,-118.1"/>
<polygon fill="#63b8ff" stroke="#63b8ff" points="820.63,-222.14 826.47,-230.98 827.41,-220.43 820.63,-222.14"/>
</a>
</g>
</g>
<!-- Node12&#45;&gt;Node4 -->
<g id="edge19_Node000012_Node000004" class="edge">
<title>Node12&#45;&gt;Node4</title>
<g id="a_edge19_Node000012_Node000004"><a xlink:title=" ">
<path fill="none" stroke="#63b8ff" d="M830.75,-220.64C831.75,-200.06 836.1,-173.08 850.41,-154 862.27,-138.18 879.96,-126.47 897.55,-118"/>
<polygon fill="#63b8ff" stroke="#63b8ff" points="827.25,-220.67 830.5,-230.75 834.25,-220.84 827.25,-220.67"/>
</a>
</g>
</g>
<!-- Node12&#45;&gt;Node13 -->
<g id="edge20_Node000012_Node000013" class="edge">
<title>Node12&#45;&gt;Node13</title>
<g id="a_edge20_Node000012_Node000013"><a xlink:title=" ">
<path fill="none" stroke="#63b8ff" d="M866,-224.82C879.06,-215.11 893.71,-204.24 905.92,-195.17"/>
<polygon fill="#63b8ff" stroke="#63b8ff" points="863.62,-222.22 857.68,-230.99 867.8,-227.84 863.62,-222.22"/>
</a>
</g>
</g>
</g>
</svg>
