<?xml version="1.0" encoding="UTF-8" standalone="no"?>
<!DOCTYPE svg PUBLIC "-//W3C//DTD SVG 1.1//EN"
 "http://www.w3.org/Graphics/SVG/1.1/DTD/svg11.dtd">
<!-- Generated by graphviz version 2.43.0 (0)
 -->
<!-- Title: /home/runner/work/realm/realm/realm&#45;src/src/realm/mem_impl.h Pages: 1 -->
<svg width="1196pt" height="511pt"
 viewBox="0.00 0.00 1196.00 511.00" xmlns="http://www.w3.org/2000/svg" xmlns:xlink="http://www.w3.org/1999/xlink">
<g id="graph0" class="graph" transform="scale(1 1) rotate(0) translate(4 507)">
<title>/home/runner/work/realm/realm/realm&#45;src/src/realm/mem_impl.h</title>
<!-- Node1 -->
<g id="Node000001" class="node">
<title>Node1</title>
<g id="a_Node000001"><a xlink:title=" ">
<polygon fill="#999999" stroke="#666666" points="813,-503 667,-503 667,-462 813,-462 813,-503"/>
<text text-anchor="start" x="675" y="-491" font-family="Helvetica,sans-Serif" font-size="10.00">/home/runner/work/realm</text>
<text text-anchor="start" x="675" y="-480" font-family="Helvetica,sans-Serif" font-size="10.00">/realm/realm&#45;src/src/realm</text>
<text text-anchor="middle" x="740" y="-469" font-family="Helvetica,sans-Serif" font-size="10.00">/mem_impl.h</text>
</a>
</g>
</g>
<!-- Node2 -->
<g id="Node000002" class="node">
<title>Node2</title>
<g id="a_Node000002"><a xlink:href="cuda__internal_8h.html" target="_top" xlink:title=" ">
<polygon fill="white" stroke="#666666" points="810,-41 664,-41 664,0 810,0 810,-41"/>
<text text-anchor="start" x="672" y="-29" font-family="Helvetica,sans-Serif" font-size="10.00">/home/runner/work/realm</text>
<text text-anchor="start" x="672" y="-18" font-family="Helvetica,sans-Serif" font-size="10.00">/realm/realm&#45;src/src/realm</text>
<text text-anchor="middle" x="737" y="-7" font-family="Helvetica,sans-Serif" font-size="10.00">/cuda/cuda_internal.h</text>
</a>
</g>
</g>
<!-- Node1&#45;&gt;Node2 -->
<g id="edge1_Node000001_Node000002" class="edge">
<title>Node1&#45;&gt;Node2</title>
<g id="a_edge1_Node000001_Node000002"><a xlink:title=" ">
<path fill="none" stroke="#63b8ff" d="M657.06,-464.59C595.11,-447.12 514.74,-413.03 476,-349 406.83,-234.69 496.54,-156.39 604,-77 624.53,-61.83 649.81,-49.94 672.8,-41.12"/>
<polygon fill="#63b8ff" stroke="#63b8ff" points="656.26,-468 666.83,-467.26 658.1,-461.25 656.26,-468"/>
</a>
</g>
</g>
<!-- Node3 -->
<g id="Node000003" class="node">
<title>Node3</title>
<g id="a_Node000003"><a xlink:href="hdf5__internal_8h.html" target="_top" xlink:title=" ">
<polygon fill="white" stroke="#666666" points="146,-41 0,-41 0,0 146,0 146,-41"/>
<text text-anchor="start" x="8" y="-29" font-family="Helvetica,sans-Serif" font-size="10.00">/home/runner/work/realm</text>
<text text-anchor="start" x="8" y="-18" font-family="Helvetica,sans-Serif" font-size="10.00">/realm/realm&#45;src/src/realm</text>
<text text-anchor="middle" x="73" y="-7" font-family="Helvetica,sans-Serif" font-size="10.00">/hdf5/hdf5_internal.h</text>
</a>
</g>
</g>
<!-- Node1&#45;&gt;Node3 -->
<g id="edge2_Node000001_Node000003" class="edge">
<title>Node1&#45;&gt;Node3</title>
<g id="a_edge2_Node000001_Node000003"><a xlink:title=" ">
<path fill="none" stroke="#63b8ff" d="M656.7,-478.58C527.91,-473.1 287.04,-458.74 208,-426 145.09,-399.94 89,-397.59 89,-329.5 89,-329.5 89,-329.5 89,-173.5 89,-125.74 81.09,-69.99 76.39,-41.11"/>
<polygon fill="#63b8ff" stroke="#63b8ff" points="656.78,-482.09 666.91,-479.01 657.07,-475.09 656.78,-482.09"/>
</a>
</g>
</g>
<!-- Node4 -->
<g id="Node000004" class="node">
<title>Node4</title>
<g id="a_Node000004"><a xlink:href="hip__internal_8h.html" target="_top" xlink:title=" ">
<polygon fill="white" stroke="#666666" points="1070,-41 924,-41 924,0 1070,0 1070,-41"/>
<text text-anchor="start" x="932" y="-29" font-family="Helvetica,sans-Serif" font-size="10.00">/home/runner/work/realm</text>
<text text-anchor="start" x="932" y="-18" font-family="Helvetica,sans-Serif" font-size="10.00">/realm/realm&#45;src/src/realm</text>
<text text-anchor="middle" x="997" y="-7" font-family="Helvetica,sans-Serif" font-size="10.00">/hip/hip_internal.h</text>
</a>
</g>
</g>
<!-- Node1&#45;&gt;Node4 -->
<g id="edge3_Node000001_Node000004" class="edge">
<title>Node1&#45;&gt;Node4</title>
<g id="a_edge3_Node000001_Node000004"><a xlink:title=" ">
<path fill="none" stroke="#63b8ff" d="M782.32,-456.4C796.59,-447.36 812.35,-436.74 826,-426 865.04,-395.29 871.44,-383.68 907,-349 925.45,-331.01 925.79,-321.07 948,-308 998.2,-278.46 1038.93,-318.5 1074,-272 1129.07,-198.99 1050.2,-86.2 1013.76,-41.11"/>
<polygon fill="#63b8ff" stroke="#63b8ff" points="780.29,-453.54 773.66,-461.81 784,-459.48 780.29,-453.54"/>
</a>
</g>
</g>
<!-- Node5 -->
<g id="Node000005" class="node">
<title>Node5</title>
<g id="a_Node000005"><a xlink:href="inst__impl_8h.html" target="_top" xlink:title=" ">
<polygon fill="white" stroke="#666666" points="363,-426 217,-426 217,-385 363,-385 363,-426"/>
<text text-anchor="start" x="225" y="-414" font-family="Helvetica,sans-Serif" font-size="10.00">/home/runner/work/realm</text>
<text text-anchor="start" x="225" y="-403" font-family="Helvetica,sans-Serif" font-size="10.00">/realm/realm&#45;src/src/realm</text>
<text text-anchor="middle" x="290" y="-392" font-family="Helvetica,sans-Serif" font-size="10.00">/inst_impl.h</text>
</a>
</g>
</g>
<!-- Node1&#45;&gt;Node5 -->
<g id="edge4_Node000001_Node000005" class="edge">
<title>Node1&#45;&gt;Node5</title>
<g id="a_edge4_Node000001_Node000005"><a xlink:title=" ">
<path fill="none" stroke="#63b8ff" d="M656.59,-470.41C582.83,-460.21 472.44,-443.97 377,-426 372.44,-425.14 367.75,-424.22 363.03,-423.25"/>
<polygon fill="#63b8ff" stroke="#63b8ff" points="656.36,-473.91 666.74,-471.81 657.32,-466.98 656.36,-473.91"/>
</a>
</g>
</g>
<!-- Node6 -->
<g id="Node000006" class="node">
<title>Node6</title>
<g id="a_Node000006"><a xlink:href="channel_8h.html" target="_top" xlink:title=" ">
<polygon fill="white" stroke="#666666" points="631,-349 485,-349 485,-308 631,-308 631,-349"/>
<text text-anchor="start" x="493" y="-337" font-family="Helvetica,sans-Serif" font-size="10.00">/home/runner/work/realm</text>
<text text-anchor="start" x="493" y="-326" font-family="Helvetica,sans-Serif" font-size="10.00">/realm/realm&#45;src/src/realm</text>
<text text-anchor="middle" x="558" y="-315" font-family="Helvetica,sans-Serif" font-size="10.00">/transfer/channel.h</text>
</a>
</g>
</g>
<!-- Node1&#45;&gt;Node6 -->
<g id="edge25_Node000001_Node000006" class="edge">
<title>Node1&#45;&gt;Node6</title>
<g id="a_edge25_Node000001_Node000006"><a xlink:title=" ">
<path fill="none" stroke="#63b8ff" d="M708.8,-455.44C672.72,-425.31 614.13,-376.37 581.62,-349.23"/>
<polygon fill="#63b8ff" stroke="#63b8ff" points="706.66,-458.22 716.58,-461.94 711.15,-452.84 706.66,-458.22"/>
</a>
</g>
</g>
<!-- Node10 -->
<g id="Node000010" class="node">
<title>Node10</title>
<g id="a_Node000010"><a xlink:href="memcpy__channel_8h.html" target="_top" xlink:title=" ">
<polygon fill="white" stroke="#666666" points="1065,-272 909,-272 909,-231 1065,-231 1065,-272"/>
<text text-anchor="start" x="917" y="-260" font-family="Helvetica,sans-Serif" font-size="10.00">/home/runner/work/realm</text>
<text text-anchor="start" x="917" y="-249" font-family="Helvetica,sans-Serif" font-size="10.00">/realm/realm&#45;src/src/realm</text>
<text text-anchor="middle" x="987" y="-238" font-family="Helvetica,sans-Serif" font-size="10.00">/transfer/memcpy_channel.h</text>
</a>
</g>
</g>
<!-- Node1&#45;&gt;Node10 -->
<g id="edge30_Node000001_Node000010" class="edge">
<title>Node1&#45;&gt;Node10</title>
<g id="a_edge30_Node000001_Node000010"><a xlink:title=" ">
<path fill="none" stroke="#63b8ff" d="M765.2,-454.5C798.37,-419.45 859.03,-356.98 915,-308 929.37,-295.42 946.24,-282.34 960.04,-272.03"/>
<polygon fill="#63b8ff" stroke="#63b8ff" points="762.48,-452.29 758.17,-461.96 767.57,-457.09 762.48,-452.29"/>
</a>
</g>
</g>
<!-- Node17 -->
<g id="Node000017" class="node">
<title>Node17</title>
<g id="a_Node000017"><a xlink:href="ib__memory_8h.html" target="_top" xlink:title=" ">
<polygon fill="white" stroke="#666666" points="1188,-426 1042,-426 1042,-385 1188,-385 1188,-426"/>
<text text-anchor="start" x="1050" y="-414" font-family="Helvetica,sans-Serif" font-size="10.00">/home/runner/work/realm</text>
<text text-anchor="start" x="1050" y="-403" font-family="Helvetica,sans-Serif" font-size="10.00">/realm/realm&#45;src/src/realm</text>
<text text-anchor="middle" x="1115" y="-392" font-family="Helvetica,sans-Serif" font-size="10.00">/transfer/ib_memory.h</text>
</a>
</g>
</g>
<!-- Node1&#45;&gt;Node17 -->
<g id="edge26_Node000001_Node000017" class="edge">
<title>Node1&#45;&gt;Node17</title>
<g id="a_edge26_Node000001_Node000017"><a xlink:title=" ">
<path fill="none" stroke="#63b8ff" d="M823.08,-464.88C888.64,-451.77 979.2,-433.66 1041.99,-421.1"/>
<polygon fill="#63b8ff" stroke="#63b8ff" points="822.31,-461.47 813.19,-466.86 823.69,-468.33 822.31,-461.47"/>
</a>
</g>
</g>
<!-- Node18 -->
<g id="Node000018" class="node">
<title>Node18</title>
<g id="a_Node000018"><a xlink:href="ucp__internal_8h.html" target="_top" xlink:title=" ">
<polygon fill="white" stroke="#666666" points="1103,-349 957,-349 957,-308 1103,-308 1103,-349"/>
<text text-anchor="start" x="965" y="-337" font-family="Helvetica,sans-Serif" font-size="10.00">/home/runner/work/realm</text>
<text text-anchor="start" x="965" y="-326" font-family="Helvetica,sans-Serif" font-size="10.00">/realm/realm&#45;src/src/realm</text>
<text text-anchor="middle" x="1030" y="-315" font-family="Helvetica,sans-Serif" font-size="10.00">/ucx/ucp_internal.h</text>
</a>
</g>
</g>
<!-- Node1&#45;&gt;Node18 -->
<g id="edge31_Node000001_Node000018" class="edge">
<title>Node1&#45;&gt;Node18</title>
<g id="a_edge31_Node000001_Node000018"><a xlink:title=" ">
<path fill="none" stroke="#63b8ff" d="M823.23,-469.83C861.75,-461.73 906.87,-448.25 943,-426 975.08,-406.25 1002.33,-371.2 1017.4,-349.22"/>
<polygon fill="#63b8ff" stroke="#63b8ff" points="822.19,-466.47 813.07,-471.87 823.57,-473.33 822.19,-466.47"/>
</a>
</g>
</g>
<!-- Node5&#45;&gt;Node6 -->
<g id="edge5_Node000005_Node000006" class="edge">
<title>Node5&#45;&gt;Node6</title>
<g id="a_edge5_Node000005_Node000006"><a xlink:title=" ">
<path fill="none" stroke="#63b8ff" d="M369.63,-382.21C407.29,-371.68 451.85,-359.21 488.17,-349.04"/>
<polygon fill="#63b8ff" stroke="#63b8ff" points="368.4,-378.92 359.71,-384.99 370.29,-385.67 368.4,-378.92"/>
</a>
</g>
</g>
<!-- Node9 -->
<g id="Node000009" class="node">
<title>Node9</title>
<g id="a_Node000009"><a xlink:href="lowlevel__dma_8h.html" target="_top" xlink:title=" ">
<polygon fill="white" stroke="#666666" points="271,-118 125,-118 125,-77 271,-77 271,-118"/>
<text text-anchor="start" x="133" y="-106" font-family="Helvetica,sans-Serif" font-size="10.00">/home/runner/work/realm</text>
<text text-anchor="start" x="133" y="-95" font-family="Helvetica,sans-Serif" font-size="10.00">/realm/realm&#45;src/src/realm</text>
<text text-anchor="middle" x="198" y="-84" font-family="Helvetica,sans-Serif" font-size="10.00">/transfer/lowlevel_dma.h</text>
</a>
</g>
</g>
<!-- Node5&#45;&gt;Node9 -->
<g id="edge23_Node000005_Node000009" class="edge">
<title>Node5&#45;&gt;Node9</title>
<g id="a_edge23_Node000005_Node000009"><a xlink:title=" ">
<path fill="none" stroke="#63b8ff" d="M267.15,-376.9C247.54,-351.42 220.52,-311.63 208,-272 191.06,-218.34 193.49,-150.78 196.06,-118.06"/>
<polygon fill="#63b8ff" stroke="#63b8ff" points="264.56,-379.26 273.49,-384.97 270.07,-374.94 264.56,-379.26"/>
</a>
</g>
</g>
<!-- Node11 -->
<g id="Node000011" class="node">
<title>Node11</title>
<g id="a_Node000011"><a xlink:href="transfer_8h.html" target="_top" xlink:title=" ">
<polygon fill="white" stroke="#666666" points="363,-272 217,-272 217,-231 363,-231 363,-272"/>
<text text-anchor="start" x="225" y="-260" font-family="Helvetica,sans-Serif" font-size="10.00">/home/runner/work/realm</text>
<text text-anchor="start" x="225" y="-249" font-family="Helvetica,sans-Serif" font-size="10.00">/realm/realm&#45;src/src/realm</text>
<text text-anchor="middle" x="290" y="-238" font-family="Helvetica,sans-Serif" font-size="10.00">/transfer/transfer.h</text>
</a>
</g>
</g>
<!-- Node5&#45;&gt;Node11 -->
<g id="edge24_Node000005_Node000011" class="edge">
<title>Node5&#45;&gt;Node11</title>
<g id="a_edge24_Node000005_Node000011"><a xlink:title=" ">
<path fill="none" stroke="#63b8ff" d="M290,-374.58C290,-344.36 290,-298.53 290,-272.47"/>
<polygon fill="#63b8ff" stroke="#63b8ff" points="286.5,-374.94 290,-384.94 293.5,-374.94 286.5,-374.94"/>
</a>
</g>
</g>
<!-- Node6&#45;&gt;Node2 -->
<g id="edge6_Node000006_Node000002" class="edge">
<title>Node6&#45;&gt;Node2</title>
<g id="a_edge6_Node000006_Node000002"><a xlink:title=" ">
<path fill="none" stroke="#63b8ff" d="M536.67,-299.36C531.49,-290.99 526.68,-281.5 524,-272 519.05,-254.46 516.96,-247.81 524,-231 560.89,-142.98 654.79,-73.26 704.69,-41.01"/>
<polygon fill="#63b8ff" stroke="#63b8ff" points="533.91,-301.53 542.35,-307.95 539.75,-297.67 533.91,-301.53"/>
</a>
</g>
</g>
<!-- Node6&#45;&gt;Node3 -->
<g id="edge7_Node000006_Node000003" class="edge">
<title>Node6&#45;&gt;Node3</title>
<g id="a_edge7_Node000006_Node000003"><a xlink:title=" ">
<path fill="none" stroke="#63b8ff" d="M535.43,-299.97C528.59,-291.22 521.25,-281.38 515,-272 481.56,-221.81 495.41,-191.28 448,-154 402.22,-118 372.37,-147.23 322,-118 299.44,-104.91 302.67,-89.91 280,-77 268.04,-70.19 200.72,-52.7 146.05,-39.16"/>
<polygon fill="#63b8ff" stroke="#63b8ff" points="532.81,-302.31 541.77,-307.97 538.3,-297.96 532.81,-302.31"/>
</a>
</g>
</g>
<!-- Node6&#45;&gt;Node4 -->
<g id="edge8_Node000006_Node000004" class="edge">
<title>Node6&#45;&gt;Node4</title>
<g id="a_edge8_Node000006_Node000004"><a xlink:title=" ">
<path fill="none" stroke="#63b8ff" d="M641.55,-320.38C719.09,-312.34 827.58,-297.02 862,-272 903.66,-241.72 967.01,-94.6 989.08,-41.04"/>
<polygon fill="#63b8ff" stroke="#63b8ff" points="640.89,-316.93 631.3,-321.42 641.6,-323.89 640.89,-316.93"/>
</a>
</g>
</g>
<!-- Node7 -->
<g id="Node000007" class="node">
<title>Node7</title>
<g id="a_Node000007"><a xlink:href="addrsplit__channel_8h.html" target="_top" xlink:title=" ">
<polygon fill="white" stroke="#666666" points="689,-272 533,-272 533,-231 689,-231 689,-272"/>
<text text-anchor="start" x="541" y="-260" font-family="Helvetica,sans-Serif" font-size="10.00">/home/runner/work/realm</text>
<text text-anchor="start" x="541" y="-249" font-family="Helvetica,sans-Serif" font-size="10.00">/realm/realm&#45;src/src/realm</text>
<text text-anchor="middle" x="611" y="-238" font-family="Helvetica,sans-Serif" font-size="10.00">/transfer/addrsplit_channel.h</text>
</a>
</g>
</g>
<!-- Node6&#45;&gt;Node7 -->
<g id="edge9_Node000006_Node000007" class="edge">
<title>Node6&#45;&gt;Node7</title>
<g id="a_edge9_Node000006_Node000007"><a xlink:title=" ">
<path fill="none" stroke="#63b8ff" d="M577.86,-299.39C584.29,-290.3 591.28,-280.41 597.17,-272.07"/>
<polygon fill="#63b8ff" stroke="#63b8ff" points="574.84,-297.61 571.93,-307.79 580.55,-301.65 574.84,-297.61"/>
</a>
</g>
</g>
<!-- Node8 -->
<g id="Node000008" class="node">
<title>Node8</title>
<g id="a_Node000008"><a xlink:href="channel__disk_8h.html" target="_top" xlink:title=" ">
<polygon fill="white" stroke="#666666" points="853,-272 707,-272 707,-231 853,-231 853,-272"/>
<text text-anchor="start" x="715" y="-260" font-family="Helvetica,sans-Serif" font-size="10.00">/home/runner/work/realm</text>
<text text-anchor="start" x="715" y="-249" font-family="Helvetica,sans-Serif" font-size="10.00">/realm/realm&#45;src/src/realm</text>
<text text-anchor="middle" x="780" y="-238" font-family="Helvetica,sans-Serif" font-size="10.00">/transfer/channel_disk.h</text>
</a>
</g>
</g>
<!-- Node6&#45;&gt;Node8 -->
<g id="edge10_Node000006_Node000008" class="edge">
<title>Node6&#45;&gt;Node8</title>
<g id="a_edge10_Node000006_Node000008"><a xlink:title=" ">
<path fill="none" stroke="#63b8ff" d="M625.56,-304.67C656.41,-294.25 692.58,-282.03 722.16,-272.04"/>
<polygon fill="#63b8ff" stroke="#63b8ff" points="624.1,-301.47 615.75,-307.99 626.34,-308.11 624.1,-301.47"/>
</a>
</g>
</g>
<!-- Node6&#45;&gt;Node9 -->
<g id="edge11_Node000006_Node000009" class="edge">
<title>Node6&#45;&gt;Node9</title>
<g id="a_edge11_Node000006_Node000009"><a xlink:title=" ">
<path fill="none" stroke="#63b8ff" d="M512.16,-303.11C466.28,-278.81 398.77,-243.39 372,-231 333.65,-213.25 318.5,-219.4 284,-195 253.77,-173.62 226.78,-139.71 211.42,-118.31"/>
<polygon fill="#63b8ff" stroke="#63b8ff" points="510.55,-306.22 521.03,-307.81 513.83,-300.04 510.55,-306.22"/>
</a>
</g>
</g>
<!-- Node6&#45;&gt;Node10 -->
<g id="edge13_Node000006_Node000010" class="edge">
<title>Node6&#45;&gt;Node10</title>
<g id="a_edge13_Node000006_Node000010"><a xlink:title=" ">
<path fill="none" stroke="#63b8ff" d="M641.41,-314.85C709.72,-304.23 808.81,-288.22 895,-272 899.49,-271.15 904.1,-270.26 908.75,-269.34"/>
<polygon fill="#63b8ff" stroke="#63b8ff" points="640.48,-311.45 631.14,-316.44 641.56,-318.37 640.48,-311.45"/>
</a>
</g>
</g>
<!-- Node6&#45;&gt;Node11 -->
<g id="edge14_Node000006_Node000011" class="edge">
<title>Node6&#45;&gt;Node11</title>
<g id="a_edge14_Node000006_Node000011"><a xlink:title=" ">
<path fill="none" stroke="#63b8ff" d="M478.37,-305.21C440.71,-294.68 396.15,-282.21 359.83,-272.04"/>
<polygon fill="#63b8ff" stroke="#63b8ff" points="477.71,-308.67 488.29,-307.99 479.6,-301.92 477.71,-308.67"/>
</a>
</g>
</g>
<!-- Node9&#45;&gt;Node3 -->
<g id="edge12_Node000009_Node000003" class="edge">
<title>Node9&#45;&gt;Node3</title>
<g id="a_edge12_Node000009_Node000003"><a xlink:title=" ">
<path fill="none" stroke="#63b8ff" d="M156.57,-71.64C140.06,-61.74 121.33,-50.5 105.79,-41.17"/>
<polygon fill="#63b8ff" stroke="#63b8ff" points="155.11,-74.85 165.48,-76.99 158.71,-68.84 155.11,-74.85"/>
</a>
</g>
</g>
<!-- Node12 -->
<g id="Node000012" class="node">
<title>Node12</title>
<g id="a_Node000012"><a xlink:href="runtime__impl_8h.html" target="_top" xlink:title=" ">
<polygon fill="white" stroke="#666666" points="439,-195 293,-195 293,-154 439,-154 439,-195"/>
<text text-anchor="start" x="301" y="-183" font-family="Helvetica,sans-Serif" font-size="10.00">/home/runner/work/realm</text>
<text text-anchor="start" x="301" y="-172" font-family="Helvetica,sans-Serif" font-size="10.00">/realm/realm&#45;src/src/realm</text>
<text text-anchor="middle" x="366" y="-161" font-family="Helvetica,sans-Serif" font-size="10.00">/runtime_impl.h</text>
</a>
</g>
</g>
<!-- Node11&#45;&gt;Node12 -->
<g id="edge15_Node000011_Node000012" class="edge">
<title>Node11&#45;&gt;Node12</title>
<g id="a_edge15_Node000011_Node000012"><a xlink:title=" ">
<path fill="none" stroke="#63b8ff" d="M317.35,-223.51C326.87,-214.11 337.37,-203.76 346.17,-195.07"/>
<polygon fill="#63b8ff" stroke="#63b8ff" points="314.63,-221.28 309.97,-230.79 319.54,-226.26 314.63,-221.28"/>
</a>
</g>
</g>
<!-- Node12&#45;&gt;Node9 -->
<g id="edge22_Node000012_Node000009" class="edge">
<title>Node12&#45;&gt;Node9</title>
<g id="a_edge22_Node000012_Node000009"><a xlink:title=" ">
<path fill="none" stroke="#63b8ff" d="M313.04,-149.86C290.11,-139.62 263.57,-127.77 241.77,-118.04"/>
<polygon fill="#63b8ff" stroke="#63b8ff" points="311.74,-153.11 322.3,-153.99 314.59,-146.72 311.74,-153.11"/>
</a>
</g>
</g>
<!-- Node13 -->
<g id="Node000013" class="node">
<title>Node13</title>
<g id="a_Node000013"><a xlink:href="proc__impl_8h.html" target="_top" xlink:title=" ">
<polygon fill="white" stroke="#666666" points="477,-118 331,-118 331,-77 477,-77 477,-118"/>
<text text-anchor="start" x="339" y="-106" font-family="Helvetica,sans-Serif" font-size="10.00">/home/runner/work/realm</text>
<text text-anchor="start" x="339" y="-95" font-family="Helvetica,sans-Serif" font-size="10.00">/realm/realm&#45;src/src/realm</text>
<text text-anchor="middle" x="404" y="-84" font-family="Helvetica,sans-Serif" font-size="10.00">/proc_impl.h</text>
</a>
</g>
</g>
<!-- Node12&#45;&gt;Node13 -->
<g id="edge16_Node000012_Node000013" class="edge">
<title>Node12&#45;&gt;Node13</title>
<g id="a_edge16_Node000012_Node000013"><a xlink:title=" ">
<path fill="none" stroke="#63b8ff" d="M380.53,-144.83C385.06,-135.89 389.95,-126.24 394.08,-118.07"/>
<polygon fill="#63b8ff" stroke="#63b8ff" points="377.38,-143.29 375.98,-153.79 383.63,-146.46 377.38,-143.29"/>
</a>
</g>
</g>
<!-- Node13&#45;&gt;Node2 -->
<g id="edge17_Node000013_Node000002" class="edge">
<title>Node13&#45;&gt;Node2</title>
<g id="a_edge17_Node000013_Node000002"><a xlink:title=" ">
<path fill="none" stroke="#63b8ff" d="M487.15,-77.86C488.44,-77.57 489.72,-77.28 491,-77 563.85,-60.84 582.25,-57.63 655,-41 657.85,-40.35 660.76,-39.68 663.7,-39"/>
<polygon fill="#63b8ff" stroke="#63b8ff" points="486.1,-74.5 477.1,-80.09 487.62,-81.34 486.1,-74.5"/>
</a>
</g>
</g>
<!-- Node13&#45;&gt;Node4 -->
<g id="edge18_Node000013_Node000004" class="edge">
<title>Node13&#45;&gt;Node4</title>
<g id="a_edge18_Node000013_Node000004"><a xlink:title=" ">
<path fill="none" stroke="#63b8ff" d="M486.94,-86.01C603.24,-71.3 812.95,-44.78 923.78,-30.76"/>
<polygon fill="#63b8ff" stroke="#63b8ff" points="486.49,-82.54 477.01,-87.27 487.37,-89.48 486.49,-82.54"/>
</a>
</g>
</g>
<!-- Node14 -->
<g id="Node000014" class="node">
<title>Node14</title>
<g id="a_Node000014"><a xlink:href="kokkos__interop_8h.html" target="_top" xlink:title=" ">
<polygon fill="white" stroke="#666666" points="646,-41 500,-41 500,0 646,0 646,-41"/>
<text text-anchor="start" x="508" y="-29" font-family="Helvetica,sans-Serif" font-size="10.00">/home/runner/work/realm</text>
<text text-anchor="start" x="508" y="-18" font-family="Helvetica,sans-Serif" font-size="10.00">/realm/realm&#45;src/src/realm</text>
<text text-anchor="middle" x="573" y="-7" font-family="Helvetica,sans-Serif" font-size="10.00">/kokkos/kokkos_interop.h</text>
</a>
</g>
</g>
<!-- Node13&#45;&gt;Node14 -->
<g id="edge19_Node000013_Node000014" class="edge">
<title>Node13&#45;&gt;Node14</title>
<g id="a_edge19_Node000013_Node000014"><a xlink:title=" ">
<path fill="none" stroke="#63b8ff" d="M457.27,-72.86C480.35,-62.62 507.04,-50.77 528.97,-41.04"/>
<polygon fill="#63b8ff" stroke="#63b8ff" points="455.68,-69.73 447.96,-76.99 458.52,-76.13 455.68,-69.73"/>
</a>
</g>
</g>
<!-- Node15 -->
<g id="Node000015" class="node">
<title>Node15</title>
<g id="a_Node000015"><a xlink:href="openmp__internal_8h.html" target="_top" xlink:title=" ">
<polygon fill="white" stroke="#666666" points="318,-41 164,-41 164,0 318,0 318,-41"/>
<text text-anchor="start" x="172" y="-29" font-family="Helvetica,sans-Serif" font-size="10.00">/home/runner/work/realm</text>
<text text-anchor="start" x="172" y="-18" font-family="Helvetica,sans-Serif" font-size="10.00">/realm/realm&#45;src/src/realm</text>
<text text-anchor="middle" x="241" y="-7" font-family="Helvetica,sans-Serif" font-size="10.00">/openmp/openmp_internal.h</text>
</a>
</g>
</g>
<!-- Node13&#45;&gt;Node15 -->
<g id="edge20_Node000013_Node000015" class="edge">
<title>Node13&#45;&gt;Node15</title>
<g id="a_edge20_Node000013_Node000015"><a xlink:title=" ">
<path fill="none" stroke="#63b8ff" d="M352.32,-72.72C330.14,-62.51 304.53,-50.73 283.47,-41.04"/>
<polygon fill="#63b8ff" stroke="#63b8ff" points="351.05,-75.99 361.6,-76.99 353.98,-69.63 351.05,-75.99"/>
</a>
</g>
</g>
<!-- Node16 -->
<g id="Node000016" class="node">
<title>Node16</title>
<g id="a_Node000016"><a xlink:href="python__internal_8h.html" target="_top" xlink:title=" ">
<polygon fill="white" stroke="#666666" points="482,-41 336,-41 336,0 482,0 482,-41"/>
<text text-anchor="start" x="344" y="-29" font-family="Helvetica,sans-Serif" font-size="10.00">/home/runner/work/realm</text>
<text text-anchor="start" x="344" y="-18" font-family="Helvetica,sans-Serif" font-size="10.00">/realm/realm&#45;src/src/realm</text>
<text text-anchor="middle" x="409" y="-7" font-family="Helvetica,sans-Serif" font-size="10.00">/python/python_internal.h</text>
</a>
</g>
</g>
<!-- Node13&#45;&gt;Node16 -->
<g id="edge21_Node000013_Node000016" class="edge">
<title>Node13&#45;&gt;Node16</title>
<g id="a_edge21_Node000013_Node000016"><a xlink:title=" ">
<path fill="none" stroke="#63b8ff" d="M405.99,-66.69C406.56,-58.08 407.17,-48.9 407.7,-41.07"/>
<polygon fill="#63b8ff" stroke="#63b8ff" points="402.49,-66.58 405.31,-76.79 409.47,-67.05 402.49,-66.58"/>
</a>
</g>
</g>
<!-- Node17&#45;&gt;Node2 -->
<g id="edge27_Node000017_Node000002" class="edge">
<title>Node17&#45;&gt;Node2</title>
<g id="a_edge27_Node000017_Node000002"><a xlink:title=" ">
<path fill="none" stroke="#63b8ff" d="M1117.3,-374.92C1118.02,-355.59 1117.48,-329.95 1112,-308 1102.75,-270.97 1099.63,-259.27 1074,-231 990.24,-138.63 856.46,-72.15 785.26,-41.12"/>
<polygon fill="#63b8ff" stroke="#63b8ff" points="1113.8,-374.78 1116.79,-384.94 1120.79,-375.13 1113.8,-374.78"/>
</a>
</g>
</g>
<!-- Node17&#45;&gt;Node4 -->
<g id="edge28_Node000017_Node000004" class="edge">
<title>Node17&#45;&gt;Node4</title>
<g id="a_edge28_Node000017_Node000004"><a xlink:title=" ">
<path fill="none" stroke="#63b8ff" d="M1132.17,-376.02C1136.79,-367.54 1141.48,-358.08 1145,-349 1160.97,-307.79 1169,-296.7 1169,-252.5 1169,-252.5 1169,-252.5 1169,-173.5 1169,-108.34 1098.84,-64.41 1048.14,-41.17"/>
<polygon fill="#63b8ff" stroke="#63b8ff" points="1129.09,-374.36 1127.23,-384.79 1135.19,-377.79 1129.09,-374.36"/>
</a>
</g>
</g>
<!-- Node17&#45;&gt;Node18 -->
<g id="edge29_Node000017_Node000018" class="edge">
<title>Node17&#45;&gt;Node18</title>
<g id="a_edge29_Node000017_Node000018"><a xlink:title=" ">
<path fill="none" stroke="#63b8ff" d="M1085.05,-378.07C1074.23,-368.52 1062.22,-357.93 1052.18,-349.07"/>
<polygon fill="#63b8ff" stroke="#63b8ff" points="1082.85,-380.8 1092.67,-384.79 1087.48,-375.55 1082.85,-380.8"/>
</a>
</g>
</g>
</g>
</svg>
