<?xml version="1.0" encoding="UTF-8" standalone="no"?>
<!DOCTYPE svg PUBLIC "-//W3C//DTD SVG 1.1//EN"
 "http://www.w3.org/Graphics/SVG/1.1/DTD/svg11.dtd">
<!-- Generated by graphviz version 2.43.0 (0)
 -->
<!-- Title: /home/runner/work/realm/realm/realm&#45;src/src/realm/memory.h Pages: 1 -->
<svg width="475pt" height="214pt"
 viewBox="0.00 0.00 475.00 214.00" xmlns="http://www.w3.org/2000/svg" xmlns:xlink="http://www.w3.org/1999/xlink">
<g id="graph0" class="graph" transform="scale(1 1) rotate(0) translate(4 210)">
<title>/home/runner/work/realm/realm/realm&#45;src/src/realm/memory.h</title>
<!-- Node1 -->
<g id="Node000001" class="node">
<title>Node1</title>
<g id="a_Node000001"><a xlink:title=" ">
<polygon fill="#999999" stroke="#666666" points="397.5,-206 251.5,-206 251.5,-165 397.5,-165 397.5,-206"/>
<text text-anchor="start" x="259.5" y="-194" font-family="Helvetica,sans-Serif" font-size="10.00">/home/runner/work/realm</text>
<text text-anchor="start" x="259.5" y="-183" font-family="Helvetica,sans-Serif" font-size="10.00">/realm/realm&#45;src/src/realm</text>
<text text-anchor="middle" x="324.5" y="-172" font-family="Helvetica,sans-Serif" font-size="10.00">/memory.h</text>
</a>
</g>
</g>
<!-- Node2 -->
<g id="Node000002" class="node">
<title>Node2</title>
<g id="a_Node000002"><a xlink:href="realm__c_8h.html" target="_top" xlink:title=" ">
<polygon fill="white" stroke="#666666" points="267.5,-129 171.5,-129 171.5,-110 267.5,-110 267.5,-129"/>
<text text-anchor="middle" x="219.5" y="-117" font-family="Helvetica,sans-Serif" font-size="10.00">realm/realm_c.h</text>
</a>
</g>
</g>
<!-- Node1&#45;&gt;Node2 -->
<g id="edge1_Node000001_Node000002" class="edge">
<title>Node1&#45;&gt;Node2</title>
<g id="a_edge1_Node000001_Node000002"><a xlink:title=" ">
<path fill="none" stroke="#63b8ff" d="M292.43,-164.95C276.3,-155.12 257.12,-143.43 242.48,-134.51"/>
<polygon fill="#63b8ff" stroke="#63b8ff" points="243.96,-131.31 233.6,-129.09 240.31,-137.29 243.96,-131.31"/>
</a>
</g>
</g>
<!-- Node6 -->
<g id="Node000006" class="node">
<title>Node6</title>
<g id="a_Node000006"><a xlink:title=" ">
<polygon fill="#e0e0e0" stroke="#999999" points="322.5,-74 266.5,-74 266.5,-55 322.5,-55 322.5,-74"/>
<text text-anchor="middle" x="294.5" y="-62" font-family="Helvetica,sans-Serif" font-size="10.00">stddef.h</text>
</a>
</g>
</g>
<!-- Node1&#45;&gt;Node6 -->
<g id="edge7_Node000001_Node000006" class="edge">
<title>Node1&#45;&gt;Node6</title>
<g id="a_edge7_Node000001_Node000006"><a xlink:title=" ">
<path fill="none" stroke="#63b8ff" d="M319.55,-164.85C313.88,-142.37 304.67,-105.86 299.14,-83.91"/>
<polygon fill="#63b8ff" stroke="#63b8ff" points="302.53,-83.02 296.69,-74.18 295.74,-84.73 302.53,-83.02"/>
</a>
</g>
</g>
<!-- Node8 -->
<g id="Node000008" class="node">
<title>Node8</title>
<g id="a_Node000008"><a xlink:title=" ">
<polygon fill="#e0e0e0" stroke="#999999" points="383.5,-129 323.5,-129 323.5,-110 383.5,-110 383.5,-129"/>
<text text-anchor="middle" x="353.5" y="-117" font-family="Helvetica,sans-Serif" font-size="10.00">iostream</text>
</a>
</g>
</g>
<!-- Node1&#45;&gt;Node8 -->
<g id="edge8_Node000001_Node000008" class="edge">
<title>Node1&#45;&gt;Node8</title>
<g id="a_edge8_Node000001_Node000008"><a xlink:title=" ">
<path fill="none" stroke="#63b8ff" d="M333.36,-164.95C337.15,-156.58 341.56,-146.85 345.28,-138.64"/>
<polygon fill="#63b8ff" stroke="#63b8ff" points="348.59,-139.81 349.53,-129.26 342.22,-136.92 348.59,-139.81"/>
</a>
</g>
</g>
<!-- Node9 -->
<g id="Node000009" class="node">
<title>Node9</title>
<g id="a_Node000009"><a xlink:title=" ">
<polygon fill="#e0e0e0" stroke="#999999" points="467,-129 402,-129 402,-110 467,-110 467,-129"/>
<text text-anchor="middle" x="434.5" y="-117" font-family="Helvetica,sans-Serif" font-size="10.00">functional</text>
</a>
</g>
</g>
<!-- Node1&#45;&gt;Node9 -->
<g id="edge9_Node000001_Node000009" class="edge">
<title>Node1&#45;&gt;Node9</title>
<g id="a_edge9_Node000001_Node000009"><a xlink:title=" ">
<path fill="none" stroke="#63b8ff" d="M358.1,-164.95C375.16,-155.03 395.47,-143.21 410.86,-134.25"/>
<polygon fill="#63b8ff" stroke="#63b8ff" points="412.85,-137.15 419.73,-129.09 409.33,-131.1 412.85,-137.15"/>
</a>
</g>
</g>
<!-- Node3 -->
<g id="Node000003" class="node">
<title>Node3</title>
<g id="a_Node000003"><a xlink:href="realm__config_8h.html" target="_top" xlink:title=" ">
<polygon fill="white" stroke="#666666" points="175.5,-74 55.5,-74 55.5,-55 175.5,-55 175.5,-74"/>
<text text-anchor="middle" x="115.5" y="-62" font-family="Helvetica,sans-Serif" font-size="10.00">realm/realm_config.h</text>
</a>
</g>
</g>
<!-- Node2&#45;&gt;Node3 -->
<g id="edge2_Node000002_Node000003" class="edge">
<title>Node2&#45;&gt;Node3</title>
<g id="a_edge2_Node000002_Node000003"><a xlink:title=" ">
<path fill="none" stroke="#63b8ff" d="M202.79,-109.98C186.29,-101.57 160.8,-88.59 141.62,-78.81"/>
<polygon fill="#63b8ff" stroke="#63b8ff" points="143.01,-75.59 132.51,-74.17 139.83,-81.83 143.01,-75.59"/>
</a>
</g>
</g>
<!-- Node2&#45;&gt;Node6 -->
<g id="edge5_Node000002_Node000006" class="edge">
<title>Node2&#45;&gt;Node6</title>
<g id="a_edge5_Node000002_Node000006"><a xlink:title=" ">
<path fill="none" stroke="#63b8ff" d="M231.55,-109.98C242.96,-101.92 260.33,-89.65 273.93,-80.03"/>
<polygon fill="#63b8ff" stroke="#63b8ff" points="276.08,-82.8 282.23,-74.17 272.04,-77.08 276.08,-82.8"/>
</a>
</g>
</g>
<!-- Node7 -->
<g id="Node000007" class="node">
<title>Node7</title>
<g id="a_Node000007"><a xlink:title=" ">
<polygon fill="#e0e0e0" stroke="#999999" points="247,-74 194,-74 194,-55 247,-55 247,-74"/>
<text text-anchor="middle" x="220.5" y="-62" font-family="Helvetica,sans-Serif" font-size="10.00">stdint.h</text>
</a>
</g>
</g>
<!-- Node2&#45;&gt;Node7 -->
<g id="edge6_Node000002_Node000007" class="edge">
<title>Node2&#45;&gt;Node7</title>
<g id="a_edge6_Node000002_Node000007"><a xlink:title=" ">
<path fill="none" stroke="#63b8ff" d="M219.67,-109.75C219.8,-102.8 219.98,-92.85 220.15,-84.13"/>
<polygon fill="#63b8ff" stroke="#63b8ff" points="223.65,-84.15 220.34,-74.09 216.65,-84.02 223.65,-84.15"/>
</a>
</g>
</g>
<!-- Node4 -->
<g id="Node000004" class="node">
<title>Node4</title>
<g id="a_Node000004"><a xlink:href="realm__defines_8h.html" target="_top" xlink:title=" ">
<polygon fill="white" stroke="#666666" points="95,-19 0,-19 0,0 95,0 95,-19"/>
<text text-anchor="middle" x="47.5" y="-7" font-family="Helvetica,sans-Serif" font-size="10.00">realm_defines.h</text>
</a>
</g>
</g>
<!-- Node3&#45;&gt;Node4 -->
<g id="edge3_Node000003_Node000004" class="edge">
<title>Node3&#45;&gt;Node4</title>
<g id="a_edge3_Node000003_Node000004"><a xlink:title=" ">
<path fill="none" stroke="#63b8ff" d="M104.57,-54.98C94.42,-47.07 79.08,-35.11 66.85,-25.58"/>
<polygon fill="#63b8ff" stroke="#63b8ff" points="68.66,-22.56 58.62,-19.17 64.36,-28.08 68.66,-22.56"/>
</a>
</g>
</g>
<!-- Node5 -->
<g id="Node000005" class="node">
<title>Node5</title>
<g id="a_Node000005"><a xlink:href="compiler__support_8h.html" target="_top" xlink:title=" ">
<polygon fill="white" stroke="#666666" points="255.5,-19 113.5,-19 113.5,0 255.5,0 255.5,-19"/>
<text text-anchor="middle" x="184.5" y="-7" font-family="Helvetica,sans-Serif" font-size="10.00">realm/compiler_support.h</text>
</a>
</g>
</g>
<!-- Node3&#45;&gt;Node5 -->
<g id="edge4_Node000003_Node000005" class="edge">
<title>Node3&#45;&gt;Node5</title>
<g id="a_edge4_Node000003_Node000005"><a xlink:title=" ">
<path fill="none" stroke="#63b8ff" d="M126.59,-54.98C136.99,-47 152.76,-34.88 165.22,-25.31"/>
<polygon fill="#63b8ff" stroke="#63b8ff" points="167.41,-28.04 173.21,-19.17 163.15,-22.49 167.41,-28.04"/>
</a>
</g>
</g>
</g>
</svg>
