<?xml version="1.0" encoding="UTF-8" standalone="no"?>
<!DOCTYPE svg PUBLIC "-//W3C//DTD SVG 1.1//EN"
 "http://www.w3.org/Graphics/SVG/1.1/DTD/svg11.dtd">
<!-- Generated by graphviz version 2.43.0 (0)
 -->
<!-- Title: /home/runner/work/realm/realm/realm&#45;src/src/realm/metadata.h Pages: 1 -->
<svg width="1832pt" height="379pt"
 viewBox="0.00 0.00 1832.03 379.00" xmlns="http://www.w3.org/2000/svg" xmlns:xlink="http://www.w3.org/1999/xlink">
<g id="graph0" class="graph" transform="scale(1 1) rotate(0) translate(4 375)">
<title>/home/runner/work/realm/realm/realm&#45;src/src/realm/metadata.h</title>
<!-- Node1 -->
<g id="Node000001" class="node">
<title>Node1</title>
<g id="a_Node000001"><a xlink:title=" ">
<polygon fill="#999999" stroke="#666666" points="650,-371 504,-371 504,-330 650,-330 650,-371"/>
<text text-anchor="start" x="512" y="-359" font-family="Helvetica,sans-Serif" font-size="10.00">/home/runner/work/realm</text>
<text text-anchor="start" x="512" y="-348" font-family="Helvetica,sans-Serif" font-size="10.00">/realm/realm&#45;src/src/realm</text>
<text text-anchor="middle" x="577" y="-337" font-family="Helvetica,sans-Serif" font-size="10.00">/metadata.h</text>
</a>
</g>
</g>
<!-- Node2 -->
<g id="Node000002" class="node">
<title>Node2</title>
<g id="a_Node000002"><a xlink:href="event_8h.html" target="_top" xlink:title=" ">
<polygon fill="white" stroke="#666666" points="818.5,-239 733.5,-239 733.5,-220 818.5,-220 818.5,-239"/>
<text text-anchor="middle" x="776" y="-227" font-family="Helvetica,sans-Serif" font-size="10.00">realm/event.h</text>
</a>
</g>
</g>
<!-- Node1&#45;&gt;Node2 -->
<g id="edge1_Node000001_Node000002" class="edge">
<title>Node1&#45;&gt;Node2</title>
<g id="a_edge1_Node000001_Node000002"><a xlink:title=" ">
<path fill="none" stroke="#63b8ff" d="M609.86,-329.85C650.19,-305.73 717.56,-265.45 752.84,-244.35"/>
<polygon fill="#63b8ff" stroke="#63b8ff" points="754.71,-247.31 761.49,-239.18 751.11,-241.3 754.71,-247.31"/>
</a>
</g>
</g>
<!-- Node23 -->
<g id="Node000023" class="node">
<title>Node23</title>
<g id="a_Node000023"><a xlink:href="id_8h.html" target="_top" xlink:title=" ">
<polygon fill="white" stroke="#666666" points="688,-184 622,-184 622,-165 688,-165 688,-184"/>
<text text-anchor="middle" x="655" y="-172" font-family="Helvetica,sans-Serif" font-size="10.00">realm/id.h</text>
</a>
</g>
</g>
<!-- Node1&#45;&gt;Node23 -->
<g id="edge27_Node000001_Node000023" class="edge">
<title>Node1&#45;&gt;Node23</title>
<g id="a_edge27_Node000001_Node000023"><a xlink:title=" ">
<path fill="none" stroke="#63b8ff" d="M585.8,-329.88C601.04,-295.87 632.14,-226.49 646.89,-193.58"/>
<polygon fill="#63b8ff" stroke="#63b8ff" points="650.17,-194.83 651.07,-184.27 643.78,-191.97 650.17,-194.83"/>
</a>
</g>
</g>
<!-- Node25 -->
<g id="Node000025" class="node">
<title>Node25</title>
<g id="a_Node000025"><a xlink:href="nodeset_8h.html" target="_top" xlink:title=" ">
<polygon fill="white" stroke="#666666" points="549,-239 453,-239 453,-220 549,-220 549,-239"/>
<text text-anchor="middle" x="501" y="-227" font-family="Helvetica,sans-Serif" font-size="10.00">realm/nodeset.h</text>
</a>
</g>
</g>
<!-- Node1&#45;&gt;Node25 -->
<g id="edge32_Node000001_Node000025" class="edge">
<title>Node1&#45;&gt;Node25</title>
<g id="a_edge32_Node000001_Node000025"><a xlink:title=" ">
<path fill="none" stroke="#63b8ff" d="M564.45,-329.85C549.83,-306.96 525.92,-269.52 512,-247.72"/>
<polygon fill="#63b8ff" stroke="#63b8ff" points="514.87,-245.72 506.54,-239.18 508.97,-249.49 514.87,-245.72"/>
</a>
</g>
</g>
<!-- Node26 -->
<g id="Node000026" class="node">
<title>Node26</title>
<g id="a_Node000026"><a xlink:href="mutex_8h.html" target="_top" xlink:title=" ">
<polygon fill="white" stroke="#666666" points="297.5,-184 208.5,-184 208.5,-165 297.5,-165 297.5,-184"/>
<text text-anchor="middle" x="253" y="-172" font-family="Helvetica,sans-Serif" font-size="10.00">realm/mutex.h</text>
</a>
</g>
</g>
<!-- Node1&#45;&gt;Node26 -->
<g id="edge67_Node000001_Node000026" class="edge">
<title>Node1&#45;&gt;Node26</title>
<g id="a_edge67_Node000001_Node000026"><a xlink:title=" ">
<path fill="none" stroke="#63b8ff" d="M540.46,-329.88C473.97,-294.17 334.83,-219.45 277.99,-188.92"/>
<polygon fill="#63b8ff" stroke="#63b8ff" points="279.45,-185.73 268.99,-184.09 276.14,-191.9 279.45,-185.73"/>
</a>
</g>
</g>
<!-- Node27 -->
<g id="Node000027" class="node">
<title>Node27</title>
<g id="a_Node000027"><a xlink:href="atomics_8h.html" target="_top" xlink:title=" ">
<polygon fill="white" stroke="#666666" points="146,-129 50,-129 50,-110 146,-110 146,-129"/>
<text text-anchor="middle" x="98" y="-117" font-family="Helvetica,sans-Serif" font-size="10.00">realm/atomics.h</text>
</a>
</g>
</g>
<!-- Node1&#45;&gt;Node27 -->
<g id="edge68_Node000001_Node000027" class="edge">
<title>Node1&#45;&gt;Node27</title>
<g id="a_edge68_Node000001_Node000027"><a xlink:title=" ">
<path fill="none" stroke="#63b8ff" d="M524.96,-329.92C450.86,-301.33 311.45,-244.89 199,-184 170.41,-168.52 138.91,-148.15 118.82,-134.71"/>
<polygon fill="#63b8ff" stroke="#63b8ff" points="120.69,-131.75 110.44,-129.06 116.78,-137.55 120.69,-131.75"/>
</a>
</g>
</g>
<!-- Node33 -->
<g id="Node000033" class="node">
<title>Node33</title>
<g id="a_Node000033"><a xlink:href="network_8h.html" target="_top" xlink:title=" ">
<polygon fill="white" stroke="#666666" points="1113.5,-294 1016.5,-294 1016.5,-275 1113.5,-275 1113.5,-294"/>
<text text-anchor="middle" x="1065" y="-282" font-family="Helvetica,sans-Serif" font-size="10.00">realm/network.h</text>
</a>
</g>
</g>
<!-- Node1&#45;&gt;Node33 -->
<g id="edge46_Node000001_Node000033" class="edge">
<title>Node1&#45;&gt;Node33</title>
<g id="a_edge46_Node000001_Node000033"><a xlink:title=" ">
<path fill="none" stroke="#63b8ff" d="M650.06,-339.92C747.22,-327.18 917.05,-304.9 1006.33,-293.19"/>
<polygon fill="#63b8ff" stroke="#63b8ff" points="1006.83,-296.66 1016.29,-291.89 1005.92,-289.72 1006.83,-296.66"/>
</a>
</g>
</g>
<!-- Node3 -->
<g id="Node000003" class="node">
<title>Node3</title>
<g id="a_Node000003"><a xlink:href="realm__c_8h.html" target="_top" xlink:title=" ">
<polygon fill="white" stroke="#666666" points="900,-129 804,-129 804,-110 900,-110 900,-129"/>
<text text-anchor="middle" x="852" y="-117" font-family="Helvetica,sans-Serif" font-size="10.00">realm/realm_c.h</text>
</a>
</g>
</g>
<!-- Node2&#45;&gt;Node3 -->
<g id="edge2_Node000002_Node000003" class="edge">
<title>Node2&#45;&gt;Node3</title>
<g id="a_edge2_Node000002_Node000003"><a xlink:title=" ">
<path fill="none" stroke="#63b8ff" d="M772.85,-220C768.66,-207.12 762.86,-182.34 773,-165 781.68,-150.14 797.35,-139.86 812.46,-132.95"/>
<polygon fill="#63b8ff" stroke="#63b8ff" points="813.85,-136.17 821.73,-129.08 811.15,-129.71 813.85,-136.17"/>
</a>
</g>
</g>
<!-- Node9 -->
<g id="Node000009" class="node">
<title>Node9</title>
<g id="a_Node000009"><a xlink:href="utils_8h.html" target="_top" xlink:title=" ">
<polygon fill="white" stroke="#666666" points="542,-129 464,-129 464,-110 542,-110 542,-129"/>
<text text-anchor="middle" x="503" y="-117" font-family="Helvetica,sans-Serif" font-size="10.00">realm/utils.h</text>
</a>
</g>
</g>
<!-- Node2&#45;&gt;Node9 -->
<g id="edge8_Node000002_Node000009" class="edge">
<title>Node2&#45;&gt;Node9</title>
<g id="a_edge8_Node000002_Node000009"><a xlink:title=" ">
<path fill="none" stroke="#63b8ff" d="M733.47,-220.04C699.99,-212.64 652.53,-200.48 613,-184 580.23,-170.34 545.17,-148.74 523.66,-134.6"/>
<polygon fill="#63b8ff" stroke="#63b8ff" points="525.58,-131.67 515.32,-129.04 521.7,-137.5 525.58,-131.67"/>
</a>
</g>
</g>
<!-- Node12 -->
<g id="Node000012" class="node">
<title>Node12</title>
<g id="a_Node000012"><a xlink:title=" ">
<polygon fill="#e0e0e0" stroke="#999999" points="1446.5,-74 1399.5,-74 1399.5,-55 1446.5,-55 1446.5,-74"/>
<text text-anchor="middle" x="1423" y="-62" font-family="Helvetica,sans-Serif" font-size="10.00">vector</text>
</a>
</g>
</g>
<!-- Node2&#45;&gt;Node12 -->
<g id="edge23_Node000002_Node000012" class="edge">
<title>Node2&#45;&gt;Node12</title>
<g id="a_edge23_Node000002_Node000012"><a xlink:title=" ">
<path fill="none" stroke="#63b8ff" d="M818.78,-223.44C872.68,-216.62 967.94,-203.09 1048,-184 1176.92,-153.25 1325.94,-101 1390.45,-77.54"/>
<polygon fill="#63b8ff" stroke="#63b8ff" points="1391.87,-80.74 1400.07,-74.02 1389.47,-74.17 1391.87,-80.74"/>
</a>
</g>
</g>
<!-- Node18 -->
<g id="Node000018" class="node">
<title>Node18</title>
<g id="a_Node000018"><a xlink:href="memory_8h.html" target="_top" xlink:title=" ">
<polygon fill="white" stroke="#666666" points="1038.5,-184 941.5,-184 941.5,-165 1038.5,-165 1038.5,-184"/>
<text text-anchor="middle" x="990" y="-172" font-family="Helvetica,sans-Serif" font-size="10.00">realm/memory.h</text>
</a>
</g>
</g>
<!-- Node2&#45;&gt;Node18 -->
<g id="edge18_Node000002_Node000018" class="edge">
<title>Node2&#45;&gt;Node18</title>
<g id="a_edge18_Node000002_Node000018"><a xlink:title=" ">
<path fill="none" stroke="#63b8ff" d="M810.38,-219.98C847.09,-210.89 905.38,-196.46 945.55,-186.51"/>
<polygon fill="#63b8ff" stroke="#63b8ff" points="946.48,-189.88 955.35,-184.08 944.8,-183.09 946.48,-189.88"/>
</a>
</g>
</g>
<!-- Node19 -->
<g id="Node000019" class="node">
<title>Node19</title>
<g id="a_Node000019"><a xlink:title=" ">
<polygon fill="#e0e0e0" stroke="#999999" points="786,-129 726,-129 726,-110 786,-110 786,-129"/>
<text text-anchor="middle" x="756" y="-117" font-family="Helvetica,sans-Serif" font-size="10.00">iostream</text>
</a>
</g>
</g>
<!-- Node2&#45;&gt;Node19 -->
<g id="edge25_Node000002_Node000019" class="edge">
<title>Node2&#45;&gt;Node19</title>
<g id="a_edge25_Node000002_Node000019"><a xlink:title=" ">
<path fill="none" stroke="#63b8ff" d="M765.84,-219.81C757.1,-211.6 745.1,-198.43 740,-184 734.67,-168.95 740.01,-151.3 745.91,-138.43"/>
<polygon fill="#63b8ff" stroke="#63b8ff" points="749.15,-139.78 750.57,-129.28 742.91,-136.6 749.15,-139.78"/>
</a>
</g>
</g>
<!-- Node21 -->
<g id="Node000021" class="node">
<title>Node21</title>
<g id="a_Node000021"><a xlink:title=" ">
<polygon fill="#e0e0e0" stroke="#999999" points="814,-184 782,-184 782,-165 814,-165 814,-184"/>
<text text-anchor="middle" x="798" y="-172" font-family="Helvetica,sans-Serif" font-size="10.00">set</text>
</a>
</g>
</g>
<!-- Node2&#45;&gt;Node21 -->
<g id="edge24_Node000002_Node000021" class="edge">
<title>Node2&#45;&gt;Node21</title>
<g id="a_edge24_Node000002_Node000021"><a xlink:title=" ">
<path fill="none" stroke="#63b8ff" d="M779.63,-219.75C782.58,-212.65 786.83,-202.4 790.51,-193.56"/>
<polygon fill="#63b8ff" stroke="#63b8ff" points="793.83,-194.67 794.43,-184.09 787.37,-191.98 793.83,-194.67"/>
</a>
</g>
</g>
<!-- Node22 -->
<g id="Node000022" class="node">
<title>Node22</title>
<g id="a_Node000022"><a xlink:title=" ">
<polygon fill="#e0e0e0" stroke="#999999" points="923.5,-184 832.5,-184 832.5,-165 923.5,-165 923.5,-184"/>
<text text-anchor="middle" x="878" y="-172" font-family="Helvetica,sans-Serif" font-size="10.00">realm/event.inl</text>
</a>
</g>
</g>
<!-- Node2&#45;&gt;Node22 -->
<g id="edge26_Node000002_Node000022" class="edge">
<title>Node2&#45;&gt;Node22</title>
<g id="a_edge26_Node000002_Node000022"><a xlink:title=" ">
<path fill="none" stroke="#63b8ff" d="M792.39,-219.98C808.57,-211.57 833.57,-198.59 852.38,-188.81"/>
<polygon fill="#63b8ff" stroke="#63b8ff" points="854.05,-191.89 861.31,-184.17 850.83,-185.68 854.05,-191.89"/>
</a>
</g>
</g>
<!-- Node4 -->
<g id="Node000004" class="node">
<title>Node4</title>
<g id="a_Node000004"><a xlink:href="realm__config_8h.html" target="_top" xlink:title=" ">
<polygon fill="white" stroke="#666666" points="889,-74 769,-74 769,-55 889,-55 889,-74"/>
<text text-anchor="middle" x="829" y="-62" font-family="Helvetica,sans-Serif" font-size="10.00">realm/realm_config.h</text>
</a>
</g>
</g>
<!-- Node3&#45;&gt;Node4 -->
<g id="edge3_Node000003_Node000004" class="edge">
<title>Node3&#45;&gt;Node4</title>
<g id="a_edge3_Node000003_Node000004"><a xlink:title=" ">
<path fill="none" stroke="#63b8ff" d="M848.2,-109.75C845.09,-102.57 840.58,-92.18 836.71,-83.27"/>
<polygon fill="#63b8ff" stroke="#63b8ff" points="839.92,-81.87 832.73,-74.09 833.5,-84.66 839.92,-81.87"/>
</a>
</g>
</g>
<!-- Node7 -->
<g id="Node000007" class="node">
<title>Node7</title>
<g id="a_Node000007"><a xlink:title=" ">
<polygon fill="#e0e0e0" stroke="#999999" points="1053,-74 997,-74 997,-55 1053,-55 1053,-74"/>
<text text-anchor="middle" x="1025" y="-62" font-family="Helvetica,sans-Serif" font-size="10.00">stddef.h</text>
</a>
</g>
</g>
<!-- Node3&#45;&gt;Node7 -->
<g id="edge6_Node000003_Node000007" class="edge">
<title>Node3&#45;&gt;Node7</title>
<g id="a_edge6_Node000003_Node000007"><a xlink:title=" ">
<path fill="none" stroke="#63b8ff" d="M879.8,-109.98C908.97,-101.05 955,-86.94 987.4,-77.02"/>
<polygon fill="#63b8ff" stroke="#63b8ff" points="988.45,-80.36 996.99,-74.08 986.4,-73.66 988.45,-80.36"/>
</a>
</g>
</g>
<!-- Node8 -->
<g id="Node000008" class="node">
<title>Node8</title>
<g id="a_Node000008"><a xlink:title=" ">
<polygon fill="#e0e0e0" stroke="#999999" points="336.5,-74 283.5,-74 283.5,-55 336.5,-55 336.5,-74"/>
<text text-anchor="middle" x="310" y="-62" font-family="Helvetica,sans-Serif" font-size="10.00">stdint.h</text>
</a>
</g>
</g>
<!-- Node3&#45;&gt;Node8 -->
<g id="edge7_Node000003_Node000008" class="edge">
<title>Node3&#45;&gt;Node8</title>
<g id="a_edge7_Node000003_Node000008"><a xlink:title=" ">
<path fill="none" stroke="#63b8ff" d="M803.83,-111.08C800.84,-110.69 797.88,-110.33 795,-110 599.31,-87.59 545.49,-104.53 346.54,-73.82"/>
<polygon fill="#63b8ff" stroke="#63b8ff" points="347.07,-70.36 336.65,-72.27 345.99,-77.27 347.07,-70.36"/>
</a>
</g>
</g>
<!-- Node5 -->
<g id="Node000005" class="node">
<title>Node5</title>
<g id="a_Node000005"><a xlink:href="realm__defines_8h.html" target="_top" xlink:title=" ">
<polygon fill="white" stroke="#666666" points="807.5,-19 712.5,-19 712.5,0 807.5,0 807.5,-19"/>
<text text-anchor="middle" x="760" y="-7" font-family="Helvetica,sans-Serif" font-size="10.00">realm_defines.h</text>
</a>
</g>
</g>
<!-- Node4&#45;&gt;Node5 -->
<g id="edge4_Node000004_Node000005" class="edge">
<title>Node4&#45;&gt;Node5</title>
<g id="a_edge4_Node000004_Node000005"><a xlink:title=" ">
<path fill="none" stroke="#63b8ff" d="M817.91,-54.98C807.51,-47 791.74,-34.88 779.28,-25.31"/>
<polygon fill="#63b8ff" stroke="#63b8ff" points="781.35,-22.49 771.29,-19.17 777.09,-28.04 781.35,-22.49"/>
</a>
</g>
</g>
<!-- Node6 -->
<g id="Node000006" class="node">
<title>Node6</title>
<g id="a_Node000006"><a xlink:href="compiler__support_8h.html" target="_top" xlink:title=" ">
<polygon fill="white" stroke="#666666" points="968,-19 826,-19 826,0 968,0 968,-19"/>
<text text-anchor="middle" x="897" y="-7" font-family="Helvetica,sans-Serif" font-size="10.00">realm/compiler_support.h</text>
</a>
</g>
</g>
<!-- Node4&#45;&gt;Node6 -->
<g id="edge5_Node000004_Node000006" class="edge">
<title>Node4&#45;&gt;Node6</title>
<g id="a_edge5_Node000004_Node000006"><a xlink:title=" ">
<path fill="none" stroke="#63b8ff" d="M839.93,-54.98C850.08,-47.07 865.42,-35.11 877.65,-25.58"/>
<polygon fill="#63b8ff" stroke="#63b8ff" points="880.14,-28.08 885.88,-19.17 875.84,-22.56 880.14,-28.08"/>
</a>
</g>
</g>
<!-- Node9&#45;&gt;Node4 -->
<g id="edge9_Node000009_Node000004" class="edge">
<title>Node9&#45;&gt;Node4</title>
<g id="a_edge9_Node000009_Node000004"><a xlink:title=" ">
<path fill="none" stroke="#63b8ff" d="M542.32,-112.11C598.06,-103.05 700.59,-86.38 766.73,-75.62"/>
<polygon fill="#63b8ff" stroke="#63b8ff" points="767.31,-79.08 776.61,-74.02 766.18,-72.17 767.31,-79.08"/>
</a>
</g>
</g>
<!-- Node10 -->
<g id="Node000010" class="node">
<title>Node10</title>
<g id="a_Node000010"><a xlink:title=" ">
<polygon fill="#e0e0e0" stroke="#999999" points="1559,-74 1515,-74 1515,-55 1559,-55 1559,-74"/>
<text text-anchor="middle" x="1537" y="-62" font-family="Helvetica,sans-Serif" font-size="10.00">string</text>
</a>
</g>
</g>
<!-- Node9&#45;&gt;Node10 -->
<g id="edge10_Node000009_Node000010" class="edge">
<title>Node9&#45;&gt;Node10</title>
<g id="a_edge10_Node000009_Node000010"><a xlink:title=" ">
<path fill="none" stroke="#63b8ff" d="M542.08,-115.57C566.48,-113.8 598.56,-111.59 627,-110 995.22,-89.39 1088.22,-101.26 1456,-74 1472,-72.81 1489.73,-71.01 1504.51,-69.37"/>
<polygon fill="#63b8ff" stroke="#63b8ff" points="1505.14,-72.82 1514.69,-68.21 1504.35,-65.86 1505.14,-72.82"/>
</a>
</g>
</g>
<!-- Node11 -->
<g id="Node000011" class="node">
<title>Node11</title>
<g id="a_Node000011"><a xlink:title=" ">
<polygon fill="#e0e0e0" stroke="#999999" points="514.5,-74 457.5,-74 457.5,-55 514.5,-55 514.5,-74"/>
<text text-anchor="middle" x="486" y="-62" font-family="Helvetica,sans-Serif" font-size="10.00">ostream</text>
</a>
</g>
</g>
<!-- Node9&#45;&gt;Node11 -->
<g id="edge11_Node000009_Node000011" class="edge">
<title>Node9&#45;&gt;Node11</title>
<g id="a_edge11_Node000009_Node000011"><a xlink:title=" ">
<path fill="none" stroke="#63b8ff" d="M500.19,-109.75C497.94,-102.72 494.7,-92.62 491.88,-83.84"/>
<polygon fill="#63b8ff" stroke="#63b8ff" points="495.14,-82.54 488.75,-74.09 488.48,-84.68 495.14,-82.54"/>
</a>
</g>
</g>
<!-- Node9&#45;&gt;Node12 -->
<g id="edge12_Node000009_Node000012" class="edge">
<title>Node9&#45;&gt;Node12</title>
<g id="a_edge12_Node000009_Node000012"><a xlink:title=" ">
<path fill="none" stroke="#63b8ff" d="M542.08,-115.64C566.49,-113.9 598.57,-111.7 627,-110 942.4,-91.2 1021.92,-97.55 1337,-74 1354.14,-72.72 1373.16,-70.88 1388.95,-69.24"/>
<polygon fill="#63b8ff" stroke="#63b8ff" points="1389.72,-72.68 1399.3,-68.15 1388.99,-65.72 1389.72,-72.68"/>
</a>
</g>
</g>
<!-- Node13 -->
<g id="Node000013" class="node">
<title>Node13</title>
<g id="a_Node000013"><a xlink:title=" ">
<polygon fill="#e0e0e0" stroke="#999999" points="1328,-74 1290,-74 1290,-55 1328,-55 1328,-74"/>
<text text-anchor="middle" x="1309" y="-62" font-family="Helvetica,sans-Serif" font-size="10.00">map</text>
</a>
</g>
</g>
<!-- Node9&#45;&gt;Node13 -->
<g id="edge13_Node000009_Node000013" class="edge">
<title>Node9&#45;&gt;Node13</title>
<g id="a_edge13_Node000009_Node000013"><a xlink:title=" ">
<path fill="none" stroke="#63b8ff" d="M542.09,-115.79C566.5,-114.1 598.58,-111.9 627,-110 879.53,-93.11 1184.72,-73.47 1279.49,-67.39"/>
<polygon fill="#63b8ff" stroke="#63b8ff" points="1279.99,-70.87 1289.74,-66.73 1279.54,-63.88 1279.99,-70.87"/>
</a>
</g>
</g>
<!-- Node14 -->
<g id="Node000014" class="node">
<title>Node14</title>
<g id="a_Node000014"><a xlink:title=" ">
<polygon fill="#e0e0e0" stroke="#999999" points="585,-74 533,-74 533,-55 585,-55 585,-74"/>
<text text-anchor="middle" x="559" y="-62" font-family="Helvetica,sans-Serif" font-size="10.00">cassert</text>
</a>
</g>
</g>
<!-- Node9&#45;&gt;Node14 -->
<g id="edge14_Node000009_Node000014" class="edge">
<title>Node9&#45;&gt;Node14</title>
<g id="a_edge14_Node000009_Node000014"><a xlink:title=" ">
<path fill="none" stroke="#63b8ff" d="M512,-109.98C520.19,-102.23 532.51,-90.58 542.47,-81.14"/>
<polygon fill="#63b8ff" stroke="#63b8ff" points="544.98,-83.59 549.84,-74.17 540.17,-78.5 544.98,-83.59"/>
</a>
</g>
</g>
<!-- Node15 -->
<g id="Node000015" class="node">
<title>Node15</title>
<g id="a_Node000015"><a xlink:title=" ">
<polygon fill="#e0e0e0" stroke="#999999" points="653,-74 603,-74 603,-55 653,-55 653,-74"/>
<text text-anchor="middle" x="628" y="-62" font-family="Helvetica,sans-Serif" font-size="10.00">cstdint</text>
</a>
</g>
</g>
<!-- Node9&#45;&gt;Node15 -->
<g id="edge15_Node000009_Node000015" class="edge">
<title>Node9&#45;&gt;Node15</title>
<g id="a_edge15_Node000009_Node000015"><a xlink:title=" ">
<path fill="none" stroke="#63b8ff" d="M523.08,-109.98C543.37,-101.38 574.96,-87.99 598.17,-78.15"/>
<polygon fill="#63b8ff" stroke="#63b8ff" points="599.71,-81.3 607.55,-74.17 596.98,-74.85 599.71,-81.3"/>
</a>
</g>
</g>
<!-- Node16 -->
<g id="Node000016" class="node">
<title>Node16</title>
<g id="a_Node000016"><a xlink:title=" ">
<polygon fill="#e0e0e0" stroke="#999999" points="727,-74 671,-74 671,-55 727,-55 727,-74"/>
<text text-anchor="middle" x="699" y="-62" font-family="Helvetica,sans-Serif" font-size="10.00">sstream</text>
</a>
</g>
</g>
<!-- Node9&#45;&gt;Node16 -->
<g id="edge16_Node000009_Node000016" class="edge">
<title>Node9&#45;&gt;Node16</title>
<g id="a_edge16_Node000009_Node000016"><a xlink:title=" ">
<path fill="none" stroke="#63b8ff" d="M534.49,-109.98C568.91,-100.68 624.06,-85.76 660.9,-75.8"/>
<polygon fill="#63b8ff" stroke="#63b8ff" points="662.03,-79.12 670.77,-73.13 660.2,-72.37 662.03,-79.12"/>
</a>
</g>
</g>
<!-- Node17 -->
<g id="Node000017" class="node">
<title>Node17</title>
<g id="a_Node000017"><a xlink:title=" ">
<polygon fill="#e0e0e0" stroke="#999999" points="439,-74 355,-74 355,-55 439,-55 439,-74"/>
<text text-anchor="middle" x="397" y="-62" font-family="Helvetica,sans-Serif" font-size="10.00">realm/utils.inl</text>
</a>
</g>
</g>
<!-- Node9&#45;&gt;Node17 -->
<g id="edge17_Node000009_Node000017" class="edge">
<title>Node9&#45;&gt;Node17</title>
<g id="a_edge17_Node000009_Node000017"><a xlink:title=" ">
<path fill="none" stroke="#63b8ff" d="M485.97,-109.98C469.07,-101.54 442.94,-88.47 423.36,-78.68"/>
<polygon fill="#63b8ff" stroke="#63b8ff" points="424.85,-75.51 414.34,-74.17 421.72,-81.77 424.85,-75.51"/>
</a>
</g>
</g>
<!-- Node18&#45;&gt;Node3 -->
<g id="edge19_Node000018_Node000003" class="edge">
<title>Node18&#45;&gt;Node3</title>
<g id="a_edge19_Node000018_Node000003"><a xlink:title=" ">
<path fill="none" stroke="#63b8ff" d="M967.83,-164.98C945.23,-156.3 909.94,-142.75 884.25,-132.88"/>
<polygon fill="#63b8ff" stroke="#63b8ff" points="885.17,-129.49 874.58,-129.17 882.66,-136.02 885.17,-129.49"/>
</a>
</g>
</g>
<!-- Node18&#45;&gt;Node7 -->
<g id="edge20_Node000018_Node000007" class="edge">
<title>Node18&#45;&gt;Node7</title>
<g id="a_edge20_Node000018_Node000007"><a xlink:title=" ">
<path fill="none" stroke="#63b8ff" d="M993.33,-164.68C996.67,-155.74 1001.89,-141.48 1006,-129 1010.95,-113.95 1016.07,-96.72 1019.75,-84.01"/>
<polygon fill="#63b8ff" stroke="#63b8ff" points="1023.18,-84.75 1022.57,-74.17 1016.45,-82.82 1023.18,-84.75"/>
</a>
</g>
</g>
<!-- Node18&#45;&gt;Node19 -->
<g id="edge21_Node000018_Node000019" class="edge">
<title>Node18&#45;&gt;Node19</title>
<g id="a_edge21_Node000018_Node000019"><a xlink:title=" ">
<path fill="none" stroke="#63b8ff" d="M952.4,-164.98C909.59,-155.29 839.9,-139.5 796.08,-129.58"/>
<polygon fill="#63b8ff" stroke="#63b8ff" points="796.59,-126.1 786.06,-127.31 795.04,-132.93 796.59,-126.1"/>
</a>
</g>
</g>
<!-- Node20 -->
<g id="Node000020" class="node">
<title>Node20</title>
<g id="a_Node000020"><a xlink:title=" ">
<polygon fill="#e0e0e0" stroke="#999999" points="996.5,-129 931.5,-129 931.5,-110 996.5,-110 996.5,-129"/>
<text text-anchor="middle" x="964" y="-117" font-family="Helvetica,sans-Serif" font-size="10.00">functional</text>
</a>
</g>
</g>
<!-- Node18&#45;&gt;Node20 -->
<g id="edge22_Node000018_Node000020" class="edge">
<title>Node18&#45;&gt;Node20</title>
<g id="a_edge22_Node000018_Node000020"><a xlink:title=" ">
<path fill="none" stroke="#63b8ff" d="M985.71,-164.75C982.19,-157.57 977.09,-147.18 972.72,-138.27"/>
<polygon fill="#63b8ff" stroke="#63b8ff" points="975.76,-136.53 968.21,-129.09 969.48,-139.61 975.76,-136.53"/>
</a>
</g>
</g>
<!-- Node23&#45;&gt;Node3 -->
<g id="edge28_Node000023_Node000003" class="edge">
<title>Node23&#45;&gt;Node3</title>
<g id="a_edge28_Node000023_Node000003"><a xlink:title=" ">
<path fill="none" stroke="#63b8ff" d="M686.65,-164.98C720.16,-155.97 773.2,-141.7 810.14,-131.76"/>
<polygon fill="#63b8ff" stroke="#63b8ff" points="811.35,-135.06 820.1,-129.08 809.53,-128.3 811.35,-135.06"/>
</a>
</g>
</g>
<!-- Node23&#45;&gt;Node9 -->
<g id="edge29_Node000023_Node000009" class="edge">
<title>Node23&#45;&gt;Node9</title>
<g id="a_edge29_Node000023_Node000009"><a xlink:title=" ">
<path fill="none" stroke="#63b8ff" d="M630.58,-164.98C605.28,-156.16 565.55,-142.31 537.14,-132.41"/>
<polygon fill="#63b8ff" stroke="#63b8ff" points="538.21,-129.07 527.61,-129.08 535.9,-135.68 538.21,-129.07"/>
</a>
</g>
</g>
<!-- Node23&#45;&gt;Node19 -->
<g id="edge30_Node000023_Node000019" class="edge">
<title>Node23&#45;&gt;Node19</title>
<g id="a_edge30_Node000023_Node000019"><a xlink:title=" ">
<path fill="none" stroke="#63b8ff" d="M671.23,-164.98C687.18,-156.61 711.78,-143.7 730.38,-133.95"/>
<polygon fill="#63b8ff" stroke="#63b8ff" points="732.25,-136.92 739.48,-129.17 729,-130.72 732.25,-136.92"/>
</a>
</g>
</g>
<!-- Node24 -->
<g id="Node000024" class="node">
<title>Node24</title>
<g id="a_Node000024"><a xlink:title=" ">
<polygon fill="#e0e0e0" stroke="#999999" points="708,-129 636,-129 636,-110 708,-110 708,-129"/>
<text text-anchor="middle" x="672" y="-117" font-family="Helvetica,sans-Serif" font-size="10.00">realm/id.inl</text>
</a>
</g>
</g>
<!-- Node23&#45;&gt;Node24 -->
<g id="edge31_Node000023_Node000024" class="edge">
<title>Node23&#45;&gt;Node24</title>
<g id="a_edge31_Node000023_Node000024"><a xlink:title=" ">
<path fill="none" stroke="#63b8ff" d="M657.81,-164.75C660.06,-157.72 663.3,-147.62 666.12,-138.84"/>
<polygon fill="#63b8ff" stroke="#63b8ff" points="669.52,-139.68 669.25,-129.09 662.86,-137.54 669.52,-139.68"/>
</a>
</g>
</g>
<!-- Node25&#45;&gt;Node4 -->
<g id="edge33_Node000025_Node000004" class="edge">
<title>Node25&#45;&gt;Node4</title>
<g id="a_edge33_Node000025_Node000004"><a xlink:title=" ">
<path fill="none" stroke="#63b8ff" d="M507.53,-219.69C524.51,-197.44 572.56,-138.74 627,-110 667.69,-88.52 718.26,-77.39 758.62,-71.64"/>
<polygon fill="#63b8ff" stroke="#63b8ff" points="759.2,-75.09 768.65,-70.28 758.27,-68.15 759.2,-75.09"/>
</a>
</g>
</g>
<!-- Node25&#45;&gt;Node8 -->
<g id="edge43_Node000025_Node000008" class="edge">
<title>Node25&#45;&gt;Node8</title>
<g id="a_edge43_Node000025_Node000008"><a xlink:title=" ">
<path fill="none" stroke="#63b8ff" d="M452.65,-226.63C418.3,-222.76 373.41,-212.15 345,-184 317.79,-157.04 311.51,-110.03 310.2,-84.06"/>
<polygon fill="#63b8ff" stroke="#63b8ff" points="313.7,-83.94 309.89,-74.05 306.7,-84.15 313.7,-83.94"/>
</a>
</g>
</g>
<!-- Node25&#45;&gt;Node26 -->
<g id="edge34_Node000025_Node000026" class="edge">
<title>Node25&#45;&gt;Node26</title>
<g id="a_edge34_Node000025_Node000026"><a xlink:title=" ">
<path fill="none" stroke="#63b8ff" d="M461.15,-219.98C418.17,-210.8 349.63,-196.15 303.04,-186.19"/>
<polygon fill="#63b8ff" stroke="#63b8ff" points="303.67,-182.75 293.16,-184.08 302.21,-189.59 303.67,-182.75"/>
</a>
</g>
</g>
<!-- Node31 -->
<g id="Node000031" class="node">
<title>Node31</title>
<g id="a_Node000031"><a xlink:title=" ">
<polygon fill="#e0e0e0" stroke="#999999" points="527.5,-184 474.5,-184 474.5,-165 527.5,-165 527.5,-184"/>
<text text-anchor="middle" x="501" y="-172" font-family="Helvetica,sans-Serif" font-size="10.00">iterator</text>
</a>
</g>
</g>
<!-- Node25&#45;&gt;Node31 -->
<g id="edge44_Node000025_Node000031" class="edge">
<title>Node25&#45;&gt;Node31</title>
<g id="a_edge44_Node000025_Node000031"><a xlink:title=" ">
<path fill="none" stroke="#63b8ff" d="M501,-219.75C501,-212.8 501,-202.85 501,-194.13"/>
<polygon fill="#63b8ff" stroke="#63b8ff" points="504.5,-194.09 501,-184.09 497.5,-194.09 504.5,-194.09"/>
</a>
</g>
</g>
<!-- Node32 -->
<g id="Node000032" class="node">
<title>Node32</title>
<g id="a_Node000032"><a xlink:title=" ">
<polygon fill="#e0e0e0" stroke="#999999" points="456,-184 354,-184 354,-165 456,-165 456,-184"/>
<text text-anchor="middle" x="405" y="-172" font-family="Helvetica,sans-Serif" font-size="10.00">realm/nodeset.inl</text>
</a>
</g>
</g>
<!-- Node25&#45;&gt;Node32 -->
<g id="edge45_Node000025_Node000032" class="edge">
<title>Node25&#45;&gt;Node32</title>
<g id="a_edge45_Node000025_Node000032"><a xlink:title=" ">
<path fill="none" stroke="#63b8ff" d="M485.58,-219.98C470.55,-211.69 447.46,-198.94 429.84,-189.22"/>
<polygon fill="#63b8ff" stroke="#63b8ff" points="431.15,-185.94 420.7,-184.17 427.77,-192.07 431.15,-185.94"/>
</a>
</g>
</g>
<!-- Node26&#45;&gt;Node4 -->
<g id="edge35_Node000026_Node000004" class="edge">
<title>Node26&#45;&gt;Node4</title>
<g id="a_edge35_Node000026_Node000004"><a xlink:title=" ">
<path fill="none" stroke="#63b8ff" d="M297.75,-168.31C368.87,-159.81 504.4,-142.51 551,-129 571.07,-123.18 574.05,-116.21 594,-110 648.12,-93.16 711.33,-81.63 758.55,-74.53"/>
<polygon fill="#63b8ff" stroke="#63b8ff" points="759.29,-77.96 768.68,-73.04 758.27,-71.04 759.29,-77.96"/>
</a>
</g>
</g>
<!-- Node26&#45;&gt;Node8 -->
<g id="edge41_Node000026_Node000008" class="edge">
<title>Node26&#45;&gt;Node8</title>
<g id="a_edge41_Node000026_Node000008"><a xlink:title=" ">
<path fill="none" stroke="#63b8ff" d="M257.66,-164.66C267.06,-146.85 288.43,-106.37 300.76,-83.01"/>
<polygon fill="#63b8ff" stroke="#63b8ff" points="303.86,-84.64 305.43,-74.16 297.67,-81.37 303.86,-84.64"/>
</a>
</g>
</g>
<!-- Node26&#45;&gt;Node9 -->
<g id="edge36_Node000026_Node000009" class="edge">
<title>Node26&#45;&gt;Node9</title>
<g id="a_edge36_Node000026_Node000009"><a xlink:title=" ">
<path fill="none" stroke="#63b8ff" d="M293.17,-164.98C336.89,-155.72 406.82,-140.89 453.81,-130.93"/>
<polygon fill="#63b8ff" stroke="#63b8ff" points="454.7,-134.32 463.76,-128.82 453.25,-127.47 454.7,-134.32"/>
</a>
</g>
</g>
<!-- Node26&#45;&gt;Node27 -->
<g id="edge37_Node000026_Node000027" class="edge">
<title>Node26&#45;&gt;Node27</title>
<g id="a_edge37_Node000026_Node000027"><a xlink:title=" ">
<path fill="none" stroke="#63b8ff" d="M228.1,-164.98C202.3,-156.16 161.78,-142.31 132.82,-132.41"/>
<polygon fill="#63b8ff" stroke="#63b8ff" points="133.69,-129.01 123.1,-129.08 131.43,-135.63 133.69,-129.01"/>
</a>
</g>
</g>
<!-- Node30 -->
<g id="Node000030" class="node">
<title>Node30</title>
<g id="a_Node000030"><a xlink:title=" ">
<polygon fill="#e0e0e0" stroke="#999999" points="259.5,-129 164.5,-129 164.5,-110 259.5,-110 259.5,-129"/>
<text text-anchor="middle" x="212" y="-117" font-family="Helvetica,sans-Serif" font-size="10.00">realm/mutex.inl</text>
</a>
</g>
</g>
<!-- Node26&#45;&gt;Node30 -->
<g id="edge42_Node000026_Node000030" class="edge">
<title>Node26&#45;&gt;Node30</title>
<g id="a_edge42_Node000026_Node000030"><a xlink:title=" ">
<path fill="none" stroke="#63b8ff" d="M246.23,-164.75C240.44,-157.26 231.94,-146.28 224.86,-137.13"/>
<polygon fill="#63b8ff" stroke="#63b8ff" points="227.53,-134.86 218.64,-129.09 221.99,-139.14 227.53,-134.86"/>
</a>
</g>
</g>
<!-- Node27&#45;&gt;Node4 -->
<g id="edge38_Node000027_Node000004" class="edge">
<title>Node27&#45;&gt;Node4</title>
<g id="a_edge38_Node000027_Node000004"><a xlink:title=" ">
<path fill="none" stroke="#63b8ff" d="M146.16,-111.02C149.15,-110.65 152.11,-110.3 155,-110 412.29,-82.9 478.04,-93.78 736,-74 743.42,-73.43 751.17,-72.79 758.89,-72.13"/>
<polygon fill="#63b8ff" stroke="#63b8ff" points="759.33,-75.6 768.99,-71.24 758.72,-68.63 759.33,-75.6"/>
</a>
</g>
</g>
<!-- Node28 -->
<g id="Node000028" class="node">
<title>Node28</title>
<g id="a_Node000028"><a xlink:title=" ">
<polygon fill="#e0e0e0" stroke="#999999" points="170,-74 120,-74 120,-55 170,-55 170,-74"/>
<text text-anchor="middle" x="145" y="-62" font-family="Helvetica,sans-Serif" font-size="10.00">atomic</text>
</a>
</g>
</g>
<!-- Node27&#45;&gt;Node28 -->
<g id="edge39_Node000027_Node000028" class="edge">
<title>Node27&#45;&gt;Node28</title>
<g id="a_edge39_Node000027_Node000028"><a xlink:title=" ">
<path fill="none" stroke="#63b8ff" d="M105.76,-109.75C112.47,-102.18 122.34,-91.05 130.51,-81.84"/>
<polygon fill="#63b8ff" stroke="#63b8ff" points="133.37,-83.89 137.38,-74.09 128.13,-79.25 133.37,-83.89"/>
</a>
</g>
</g>
<!-- Node29 -->
<g id="Node000029" class="node">
<title>Node29</title>
<g id="a_Node000029"><a xlink:title=" ">
<polygon fill="#e0e0e0" stroke="#999999" points="102,-74 0,-74 0,-55 102,-55 102,-74"/>
<text text-anchor="middle" x="51" y="-62" font-family="Helvetica,sans-Serif" font-size="10.00">realm/atomics.inl</text>
</a>
</g>
</g>
<!-- Node27&#45;&gt;Node29 -->
<g id="edge40_Node000027_Node000029" class="edge">
<title>Node27&#45;&gt;Node29</title>
<g id="a_edge40_Node000027_Node000029"><a xlink:title=" ">
<path fill="none" stroke="#63b8ff" d="M90.24,-109.75C83.53,-102.18 73.66,-91.05 65.49,-81.84"/>
<polygon fill="#63b8ff" stroke="#63b8ff" points="67.87,-79.25 58.62,-74.09 62.63,-83.89 67.87,-79.25"/>
</a>
</g>
</g>
<!-- Node33&#45;&gt;Node4 -->
<g id="edge47_Node000033_Node000004" class="edge">
<title>Node33&#45;&gt;Node4</title>
<g id="a_edge47_Node000033_Node000004"><a xlink:title=" ">
<path fill="none" stroke="#63b8ff" d="M1071.37,-274.9C1079.6,-262.72 1092.15,-239.73 1086,-220 1068,-162.29 1056.48,-143.25 1006,-110 974.33,-89.14 933.59,-78.06 899.17,-72.17"/>
<polygon fill="#63b8ff" stroke="#63b8ff" points="899.61,-68.7 889.18,-70.57 898.5,-75.61 899.61,-68.7"/>
</a>
</g>
</g>
<!-- Node33&#45;&gt;Node13 -->
<g id="edge65_Node000033_Node000013" class="edge">
<title>Node33&#45;&gt;Node13</title>
<g id="a_edge65_Node000033_Node000013"><a xlink:title=" ">
<path fill="none" stroke="#63b8ff" d="M1113.68,-277.08C1161.27,-269.89 1229.36,-256.85 1249,-239 1294.55,-197.61 1305.52,-119.95 1308.16,-84.28"/>
<polygon fill="#63b8ff" stroke="#63b8ff" points="1311.66,-84.47 1308.76,-74.27 1304.67,-84.05 1311.66,-84.47"/>
</a>
</g>
</g>
<!-- Node33&#45;&gt;Node18 -->
<g id="edge61_Node000033_Node000018" class="edge">
<title>Node33&#45;&gt;Node18</title>
<g id="a_edge61_Node000033_Node000018"><a xlink:title=" ">
<path fill="none" stroke="#63b8ff" d="M1019.54,-274.96C999.23,-268.64 977.16,-257.72 965,-239 955.47,-224.33 965.25,-205.46 975.24,-192.11"/>
<polygon fill="#63b8ff" stroke="#63b8ff" points="978.04,-194.21 981.63,-184.24 972.61,-189.8 978.04,-194.21"/>
</a>
</g>
</g>
<!-- Node33&#45;&gt;Node25 -->
<g id="edge60_Node000033_Node000025" class="edge">
<title>Node33&#45;&gt;Node25</title>
<g id="a_edge60_Node000033_Node000025"><a xlink:title=" ">
<path fill="none" stroke="#63b8ff" d="M1016.43,-278.94C912.91,-269.21 670.95,-246.47 559.32,-235.98"/>
<polygon fill="#63b8ff" stroke="#63b8ff" points="559.54,-232.49 549.26,-235.03 558.89,-239.46 559.54,-232.49"/>
</a>
</g>
</g>
<!-- Node34 -->
<g id="Node000034" class="node">
<title>Node34</title>
<g id="a_Node000034"><a xlink:href="module_8h.html" target="_top" xlink:title=" ">
<polygon fill="white" stroke="#666666" points="1480,-239 1386,-239 1386,-220 1480,-220 1480,-239"/>
<text text-anchor="middle" x="1433" y="-227" font-family="Helvetica,sans-Serif" font-size="10.00">realm/module.h</text>
</a>
</g>
</g>
<!-- Node33&#45;&gt;Node34 -->
<g id="edge48_Node000033_Node000034" class="edge">
<title>Node33&#45;&gt;Node34</title>
<g id="a_edge48_Node000033_Node000034"><a xlink:title=" ">
<path fill="none" stroke="#63b8ff" d="M1113.87,-276.46C1181.61,-266.71 1303.8,-249.11 1375.73,-238.75"/>
<polygon fill="#63b8ff" stroke="#63b8ff" points="1376.57,-242.16 1385.97,-237.27 1375.57,-235.23 1376.57,-242.16"/>
</a>
</g>
</g>
<!-- Node38 -->
<g id="Node000038" class="node">
<title>Node38</title>
<g id="a_Node000038"><a xlink:href="bytearray_8h.html" target="_top" xlink:title=" ">
<polygon fill="white" stroke="#666666" points="1239.5,-239 1136.5,-239 1136.5,-220 1239.5,-220 1239.5,-239"/>
<text text-anchor="middle" x="1188" y="-227" font-family="Helvetica,sans-Serif" font-size="10.00">realm/bytearray.h</text>
</a>
</g>
</g>
<!-- Node33&#45;&gt;Node38 -->
<g id="edge62_Node000033_Node000038" class="edge">
<title>Node33&#45;&gt;Node38</title>
<g id="a_edge62_Node000033_Node000038"><a xlink:title=" ">
<path fill="none" stroke="#63b8ff" d="M1084.76,-274.98C1104.73,-266.38 1135.8,-252.99 1158.65,-243.15"/>
<polygon fill="#63b8ff" stroke="#63b8ff" points="1160.08,-246.34 1167.88,-239.17 1157.31,-239.91 1160.08,-246.34"/>
</a>
</g>
</g>
<!-- Node40 -->
<g id="Node000040" class="node">
<title>Node40</title>
<g id="a_Node000040"><a xlink:title=" ">
<polygon fill="#e0e0e0" stroke="#999999" points="1076.5,-239 973.5,-239 973.5,-220 1076.5,-220 1076.5,-239"/>
<text text-anchor="middle" x="1025" y="-227" font-family="Helvetica,sans-Serif" font-size="10.00">realm/network.inl</text>
</a>
</g>
</g>
<!-- Node33&#45;&gt;Node40 -->
<g id="edge66_Node000033_Node000040" class="edge">
<title>Node33&#45;&gt;Node40</title>
<g id="a_edge66_Node000033_Node000040"><a xlink:title=" ">
<path fill="none" stroke="#63b8ff" d="M1058.39,-274.75C1052.74,-267.26 1044.46,-256.28 1037.55,-247.13"/>
<polygon fill="#63b8ff" stroke="#63b8ff" points="1040.3,-244.96 1031.48,-239.09 1034.71,-249.18 1040.3,-244.96"/>
</a>
</g>
</g>
<!-- Node34&#45;&gt;Node4 -->
<g id="edge49_Node000034_Node000004" class="edge">
<title>Node34&#45;&gt;Node4</title>
<g id="a_edge49_Node000034_Node000004"><a xlink:title=" ">
<path fill="none" stroke="#63b8ff" d="M1414.34,-219.87C1366.39,-198.06 1234.54,-140.31 1119,-110 1045.18,-90.63 958.43,-78.69 899.17,-72.12"/>
<polygon fill="#63b8ff" stroke="#63b8ff" points="899.49,-68.63 889.17,-71.03 898.74,-75.59 899.49,-68.63"/>
</a>
</g>
</g>
<!-- Node34&#45;&gt;Node10 -->
<g id="edge58_Node000034_Node000010" class="edge">
<title>Node34&#45;&gt;Node10</title>
<g id="a_edge58_Node000034_Node000010"><a xlink:title=" ">
<path fill="none" stroke="#63b8ff" d="M1480.01,-223.57C1573.8,-212.65 1778.72,-183.02 1820,-129 1825.13,-122.29 1825.49,-116.42 1820,-110 1788.02,-72.59 1636.34,-66.43 1569.16,-65.56"/>
<polygon fill="#63b8ff" stroke="#63b8ff" points="1569.17,-62.06 1559.13,-65.46 1569.1,-69.06 1569.17,-62.06"/>
</a>
</g>
</g>
<!-- Node34&#45;&gt;Node12 -->
<g id="edge57_Node000034_Node000012" class="edge">
<title>Node34&#45;&gt;Node12</title>
<g id="a_edge57_Node000034_Node000012"><a xlink:title=" ">
<path fill="none" stroke="#63b8ff" d="M1432.46,-219.74C1430.9,-194.31 1426.35,-120.08 1424.18,-84.69"/>
<polygon fill="#63b8ff" stroke="#63b8ff" points="1427.65,-84.07 1423.54,-74.31 1420.66,-84.5 1427.65,-84.07"/>
</a>
</g>
</g>
<!-- Node34&#45;&gt;Node13 -->
<g id="edge59_Node000034_Node000013" class="edge">
<title>Node34&#45;&gt;Node13</title>
<g id="a_edge59_Node000034_Node000013"><a xlink:title=" ">
<path fill="none" stroke="#63b8ff" d="M1426.33,-219.74C1406.57,-193.76 1348.05,-116.83 1321.89,-82.44"/>
<polygon fill="#63b8ff" stroke="#63b8ff" points="1324.54,-80.15 1315.7,-74.31 1318.97,-84.38 1324.54,-80.15"/>
</a>
</g>
</g>
<!-- Node35 -->
<g id="Node000035" class="node">
<title>Node35</title>
<g id="a_Node000035"><a xlink:href="module__config_8h.html" target="_top" xlink:title=" ">
<polygon fill="white" stroke="#666666" points="1609,-184 1481,-184 1481,-165 1609,-165 1609,-184"/>
<text text-anchor="middle" x="1545" y="-172" font-family="Helvetica,sans-Serif" font-size="10.00">realm/module_config.h</text>
</a>
</g>
</g>
<!-- Node34&#45;&gt;Node35 -->
<g id="edge50_Node000034_Node000035" class="edge">
<title>Node34&#45;&gt;Node35</title>
<g id="a_edge50_Node000034_Node000035"><a xlink:title=" ">
<path fill="none" stroke="#63b8ff" d="M1450.99,-219.98C1468.93,-211.5 1496.72,-198.35 1517.43,-188.54"/>
<polygon fill="#63b8ff" stroke="#63b8ff" points="1519.14,-191.61 1526.68,-184.17 1516.14,-185.28 1519.14,-191.61"/>
</a>
</g>
</g>
<!-- Node35&#45;&gt;Node3 -->
<g id="edge52_Node000035_Node000003" class="edge">
<title>Node35&#45;&gt;Node3</title>
<g id="a_edge52_Node000035_Node000003"><a xlink:title=" ">
<path fill="none" stroke="#63b8ff" d="M1480.89,-169.93C1368,-163.41 1126.42,-148.44 923,-129 918.83,-128.6 914.52,-128.16 910.19,-127.69"/>
<polygon fill="#63b8ff" stroke="#63b8ff" points="910.41,-124.2 900.09,-126.57 909.64,-131.15 910.41,-124.2"/>
</a>
</g>
</g>
<!-- Node35&#45;&gt;Node4 -->
<g id="edge51_Node000035_Node000004" class="edge">
<title>Node35&#45;&gt;Node4</title>
<g id="a_edge51_Node000035_Node000004"><a xlink:title=" ">
<path fill="none" stroke="#63b8ff" d="M1510.35,-164.89C1455.01,-151.42 1343.12,-125.31 1247,-110 1125.41,-90.63 982.53,-77.46 899.24,-70.74"/>
<polygon fill="#63b8ff" stroke="#63b8ff" points="899.38,-67.24 889.13,-69.93 898.82,-74.21 899.38,-67.24"/>
</a>
</g>
</g>
<!-- Node35&#45;&gt;Node10 -->
<g id="edge53_Node000035_Node000010" class="edge">
<title>Node35&#45;&gt;Node10</title>
<g id="a_edge53_Node000035_Node000010"><a xlink:title=" ">
<path fill="none" stroke="#63b8ff" d="M1544.35,-164.66C1543.05,-147.17 1540.13,-107.8 1538.39,-84.27"/>
<polygon fill="#63b8ff" stroke="#63b8ff" points="1541.87,-83.87 1537.64,-74.16 1534.89,-84.39 1541.87,-83.87"/>
</a>
</g>
</g>
<!-- Node35&#45;&gt;Node12 -->
<g id="edge55_Node000035_Node000012" class="edge">
<title>Node35&#45;&gt;Node12</title>
<g id="a_edge55_Node000035_Node000012"><a xlink:title=" ">
<path fill="none" stroke="#63b8ff" d="M1535.57,-164.78C1522.2,-152.47 1496.91,-129.31 1475,-110 1463.86,-100.18 1451.2,-89.34 1441.16,-80.82"/>
<polygon fill="#63b8ff" stroke="#63b8ff" points="1443.33,-78.07 1433.44,-74.28 1438.81,-83.41 1443.33,-78.07"/>
</a>
</g>
</g>
<!-- Node36 -->
<g id="Node000036" class="node">
<title>Node36</title>
<g id="a_Node000036"><a xlink:title=" ">
<polygon fill="#e0e0e0" stroke="#999999" points="1658.5,-129 1565.5,-129 1565.5,-110 1658.5,-110 1658.5,-129"/>
<text text-anchor="middle" x="1612" y="-117" font-family="Helvetica,sans-Serif" font-size="10.00">unordered_map</text>
</a>
</g>
</g>
<!-- Node35&#45;&gt;Node36 -->
<g id="edge54_Node000035_Node000036" class="edge">
<title>Node35&#45;&gt;Node36</title>
<g id="a_edge54_Node000035_Node000036"><a xlink:title=" ">
<path fill="none" stroke="#63b8ff" d="M1555.76,-164.98C1565.77,-157.07 1580.89,-145.11 1592.93,-135.58"/>
<polygon fill="#63b8ff" stroke="#63b8ff" points="1595.37,-138.12 1601.04,-129.17 1591.03,-132.63 1595.37,-138.12"/>
</a>
</g>
</g>
<!-- Node37 -->
<g id="Node000037" class="node">
<title>Node37</title>
<g id="a_Node000037"><a xlink:title=" ">
<polygon fill="#e0e0e0" stroke="#999999" points="1811,-129 1677,-129 1677,-110 1811,-110 1811,-129"/>
<text text-anchor="middle" x="1744" y="-117" font-family="Helvetica,sans-Serif" font-size="10.00">realm/module_config.inl</text>
</a>
</g>
</g>
<!-- Node35&#45;&gt;Node37 -->
<g id="edge56_Node000035_Node000037" class="edge">
<title>Node35&#45;&gt;Node37</title>
<g id="a_edge56_Node000035_Node000037"><a xlink:title=" ">
<path fill="none" stroke="#63b8ff" d="M1576.97,-164.98C1610.82,-155.97 1664.4,-141.7 1701.71,-131.76"/>
<polygon fill="#63b8ff" stroke="#63b8ff" points="1703.01,-135.04 1711.78,-129.08 1701.21,-128.27 1703.01,-135.04"/>
</a>
</g>
</g>
<!-- Node38&#45;&gt;Node7 -->
<g id="edge63_Node000038_Node000007" class="edge">
<title>Node38&#45;&gt;Node7</title>
<g id="a_edge63_Node000038_Node000007"><a xlink:title=" ">
<path fill="none" stroke="#63b8ff" d="M1208.49,-219.95C1232.38,-208.7 1266.81,-187.67 1252,-165 1209.96,-100.67 1116.1,-77.67 1063.18,-69.65"/>
<polygon fill="#63b8ff" stroke="#63b8ff" points="1063.56,-66.16 1053.17,-68.23 1062.58,-73.1 1063.56,-66.16"/>
</a>
</g>
</g>
<!-- Node39 -->
<g id="Node000039" class="node">
<title>Node39</title>
<g id="a_Node000039"><a xlink:title=" ">
<polygon fill="#e0e0e0" stroke="#999999" points="1242.5,-184 1133.5,-184 1133.5,-165 1242.5,-165 1242.5,-184"/>
<text text-anchor="middle" x="1188" y="-172" font-family="Helvetica,sans-Serif" font-size="10.00">realm/bytearray.inl</text>
</a>
</g>
</g>
<!-- Node38&#45;&gt;Node39 -->
<g id="edge64_Node000038_Node000039" class="edge">
<title>Node38&#45;&gt;Node39</title>
<g id="a_edge64_Node000038_Node000039"><a xlink:title=" ">
<path fill="none" stroke="#63b8ff" d="M1188,-219.75C1188,-212.8 1188,-202.85 1188,-194.13"/>
<polygon fill="#63b8ff" stroke="#63b8ff" points="1191.5,-194.09 1188,-184.09 1184.5,-194.09 1191.5,-194.09"/>
</a>
</g>
</g>
</g>
</svg>
