<?xml version="1.0" encoding="UTF-8" standalone="no"?>
<!DOCTYPE svg PUBLIC "-//W3C//DTD SVG 1.1//EN"
 "http://www.w3.org/Graphics/SVG/1.1/DTD/svg11.dtd">
<!-- Generated by graphviz version 2.43.0 (0)
 -->
<!-- Title: /home/runner/work/realm/realm/realm&#45;src/src/realm/metadata.h Pages: 1 -->
<svg width="1509pt" height="379pt"
 viewBox="0.00 0.00 1509.00 379.00" xmlns="http://www.w3.org/2000/svg" xmlns:xlink="http://www.w3.org/1999/xlink">
<g id="graph0" class="graph" transform="scale(1 1) rotate(0) translate(4 375)">
<title>/home/runner/work/realm/realm/realm&#45;src/src/realm/metadata.h</title>
<!-- Node1 -->
<g id="Node000001" class="node">
<title>Node1</title>
<g id="a_Node000001"><a xlink:title=" ">
<polygon fill="#999999" stroke="#666666" points="384,-371 238,-371 238,-330 384,-330 384,-371"/>
<text text-anchor="start" x="246" y="-359" font-family="Helvetica,sans-Serif" font-size="10.00">/home/runner/work/realm</text>
<text text-anchor="start" x="246" y="-348" font-family="Helvetica,sans-Serif" font-size="10.00">/realm/realm&#45;src/src/realm</text>
<text text-anchor="middle" x="311" y="-337" font-family="Helvetica,sans-Serif" font-size="10.00">/metadata.h</text>
</a>
</g>
</g>
<!-- Node2 -->
<g id="Node000002" class="node">
<title>Node2</title>
<g id="a_Node000002"><a xlink:href="event_8h.html" target="_top" xlink:title=" ">
<polygon fill="white" stroke="#666666" points="453.5,-294 368.5,-294 368.5,-275 453.5,-275 453.5,-294"/>
<text text-anchor="middle" x="411" y="-282" font-family="Helvetica,sans-Serif" font-size="10.00">realm/event.h</text>
</a>
</g>
</g>
<!-- Node1&#45;&gt;Node2 -->
<g id="edge1_Node000001_Node000002" class="edge">
<title>Node1&#45;&gt;Node2</title>
<g id="a_edge1_Node000001_Node000002"><a xlink:title=" ">
<path fill="none" stroke="#63b8ff" d="M341.55,-329.95C356.91,-320.12 375.17,-308.43 389.11,-299.51"/>
<polygon fill="#63b8ff" stroke="#63b8ff" points="391.04,-302.43 397.58,-294.09 387.27,-296.53 391.04,-302.43"/>
</a>
</g>
</g>
<!-- Node22 -->
<g id="Node000022" class="node">
<title>Node22</title>
<g id="a_Node000022"><a xlink:href="id_8h.html" target="_top" xlink:title=" ">
<polygon fill="white" stroke="#666666" points="223,-239 157,-239 157,-220 223,-220 223,-239"/>
<text text-anchor="middle" x="190" y="-227" font-family="Helvetica,sans-Serif" font-size="10.00">realm/id.h</text>
</a>
</g>
</g>
<!-- Node1&#45;&gt;Node22 -->
<g id="edge26_Node000001_Node000022" class="edge">
<title>Node1&#45;&gt;Node22</title>
<g id="a_edge26_Node000001_Node000022"><a xlink:title=" ">
<path fill="none" stroke="#63b8ff" d="M280.96,-329.97C266.84,-320.07 250.24,-307.33 237,-294 223,-279.91 209.79,-261.43 200.97,-248.05"/>
<polygon fill="#63b8ff" stroke="#63b8ff" points="203.72,-245.85 195.37,-239.34 197.83,-249.64 203.72,-245.85"/>
</a>
</g>
</g>
<!-- Node24 -->
<g id="Node000024" class="node">
<title>Node24</title>
<g id="a_Node000024"><a xlink:href="nodeset_8h.html" target="_top" xlink:title=" ">
<polygon fill="white" stroke="#666666" points="765,-239 669,-239 669,-220 765,-220 765,-239"/>
<text text-anchor="middle" x="717" y="-227" font-family="Helvetica,sans-Serif" font-size="10.00">realm/nodeset.h</text>
</a>
</g>
</g>
<!-- Node1&#45;&gt;Node24 -->
<g id="edge31_Node000001_Node000024" class="edge">
<title>Node1&#45;&gt;Node24</title>
<g id="a_edge31_Node000001_Node000024"><a xlink:title=" ">
<path fill="none" stroke="#63b8ff" d="M377.59,-329.98C463.14,-304.91 608.86,-262.2 678.16,-241.88"/>
<polygon fill="#63b8ff" stroke="#63b8ff" points="679.2,-245.23 687.82,-239.05 677.24,-238.51 679.2,-245.23"/>
</a>
</g>
</g>
<!-- Node25 -->
<g id="Node000025" class="node">
<title>Node25</title>
<g id="a_Node000025"><a xlink:href="mutex_8h.html" target="_top" xlink:title=" ">
<polygon fill="white" stroke="#666666" points="461.5,-184 372.5,-184 372.5,-165 461.5,-165 461.5,-184"/>
<text text-anchor="middle" x="417" y="-172" font-family="Helvetica,sans-Serif" font-size="10.00">realm/mutex.h</text>
</a>
</g>
</g>
<!-- Node1&#45;&gt;Node25 -->
<g id="edge65_Node000001_Node000025" class="edge">
<title>Node1&#45;&gt;Node25</title>
<g id="a_edge65_Node000001_Node000025"><a xlink:title=" ">
<path fill="none" stroke="#63b8ff" d="M311.93,-329.58C314.13,-302.35 321.47,-253.13 346,-220 356.06,-206.42 371.61,-196 385.6,-188.67"/>
<polygon fill="#63b8ff" stroke="#63b8ff" points="387.51,-191.63 394.95,-184.09 384.43,-185.34 387.51,-191.63"/>
</a>
</g>
</g>
<!-- Node26 -->
<g id="Node000026" class="node">
<title>Node26</title>
<g id="a_Node000026"><a xlink:href="atomics_8h.html" target="_top" xlink:title=" ">
<polygon fill="white" stroke="#666666" points="167,-129 71,-129 71,-110 167,-110 167,-129"/>
<text text-anchor="middle" x="119" y="-117" font-family="Helvetica,sans-Serif" font-size="10.00">realm/atomics.h</text>
</a>
</g>
</g>
<!-- Node1&#45;&gt;Node26 -->
<g id="edge66_Node000001_Node000026" class="edge">
<title>Node1&#45;&gt;Node26</title>
<g id="a_edge66_Node000001_Node000026"><a xlink:title=" ">
<path fill="none" stroke="#63b8ff" d="M269.63,-329.98C233.4,-311.1 181.47,-279.42 148,-239 130.38,-217.71 125.64,-210.82 119,-184 115.39,-169.42 115.62,-152.36 116.63,-139.6"/>
<polygon fill="#63b8ff" stroke="#63b8ff" points="120.15,-139.59 117.69,-129.29 113.19,-138.88 120.15,-139.59"/>
</a>
</g>
</g>
<!-- Node32 -->
<g id="Node000032" class="node">
<title>Node32</title>
<g id="a_Node000032"><a xlink:href="network_8h.html" target="_top" xlink:title=" ">
<polygon fill="white" stroke="#666666" points="1004.5,-294 907.5,-294 907.5,-275 1004.5,-275 1004.5,-294"/>
<text text-anchor="middle" x="956" y="-282" font-family="Helvetica,sans-Serif" font-size="10.00">realm/network.h</text>
</a>
</g>
</g>
<!-- Node1&#45;&gt;Node32 -->
<g id="edge45_Node000001_Node000032" class="edge">
<title>Node1&#45;&gt;Node32</title>
<g id="a_edge45_Node000001_Node000032"><a xlink:title=" ">
<path fill="none" stroke="#63b8ff" d="M384.05,-342.25C513.07,-329.45 778.82,-303.08 897.05,-291.35"/>
<polygon fill="#63b8ff" stroke="#63b8ff" points="897.74,-294.8 907.34,-290.33 897.05,-287.83 897.74,-294.8"/>
</a>
</g>
</g>
<!-- Node3 -->
<g id="Node000003" class="node">
<title>Node3</title>
<g id="a_Node000003"><a xlink:href="realm__c_8h.html" target="_top" xlink:title=" ">
<polygon fill="white" stroke="#666666" points="576,-184 480,-184 480,-165 576,-165 576,-184"/>
<text text-anchor="middle" x="528" y="-172" font-family="Helvetica,sans-Serif" font-size="10.00">realm/realm_c.h</text>
</a>
</g>
</g>
<!-- Node2&#45;&gt;Node3 -->
<g id="edge2_Node000002_Node000003" class="edge">
<title>Node2&#45;&gt;Node3</title>
<g id="a_edge2_Node000002_Node000003"><a xlink:title=" ">
<path fill="none" stroke="#63b8ff" d="M444.95,-274.87C465.16,-268.14 489.91,-256.86 506,-239 517.21,-226.55 522.77,-208.08 525.49,-194.27"/>
<polygon fill="#63b8ff" stroke="#63b8ff" points="528.94,-194.83 527.11,-184.39 522.03,-193.69 528.94,-194.83"/>
</a>
</g>
</g>
<!-- Node9 -->
<g id="Node000009" class="node">
<title>Node9</title>
<g id="a_Node000009"><a xlink:href="utils_8h.html" target="_top" xlink:title=" ">
<polygon fill="white" stroke="#666666" points="341,-129 263,-129 263,-110 341,-110 341,-129"/>
<text text-anchor="middle" x="302" y="-117" font-family="Helvetica,sans-Serif" font-size="10.00">realm/utils.h</text>
</a>
</g>
</g>
<!-- Node2&#45;&gt;Node9 -->
<g id="edge8_Node000002_Node000009" class="edge">
<title>Node2&#45;&gt;Node9</title>
<g id="a_edge8_Node000002_Node000009"><a xlink:title=" ">
<path fill="none" stroke="#63b8ff" d="M389.07,-274.98C357.77,-261.36 302.17,-231.29 285,-184 279.53,-168.93 285.18,-151.28 291.39,-138.42"/>
<polygon fill="#63b8ff" stroke="#63b8ff" points="294.66,-139.74 296.3,-129.27 288.49,-136.44 294.66,-139.74"/>
</a>
</g>
</g>
<!-- Node12 -->
<g id="Node000012" class="node">
<title>Node12</title>
<g id="a_Node000012"><a xlink:title=" ">
<polygon fill="#e0e0e0" stroke="#999999" points="1175.5,-74 1128.5,-74 1128.5,-55 1175.5,-55 1175.5,-74"/>
<text text-anchor="middle" x="1152" y="-62" font-family="Helvetica,sans-Serif" font-size="10.00">vector</text>
</a>
</g>
</g>
<!-- Node2&#45;&gt;Node12 -->
<g id="edge22_Node000002_Node000012" class="edge">
<title>Node2&#45;&gt;Node12</title>
<g id="a_edge22_Node000002_Node000012"><a xlink:title=" ">
<path fill="none" stroke="#63b8ff" d="M453.71,-282.69C589.4,-279.83 1004.79,-268.72 1057,-239 1115.42,-205.74 1140.04,-121.9 1148.4,-84.28"/>
<polygon fill="#63b8ff" stroke="#63b8ff" points="1151.89,-84.7 1150.49,-74.2 1145.03,-83.28 1151.89,-84.7"/>
</a>
</g>
</g>
<!-- Node18 -->
<g id="Node000018" class="node">
<title>Node18</title>
<g id="a_Node000018"><a xlink:href="memory_8h.html" target="_top" xlink:title=" ">
<polygon fill="white" stroke="#666666" points="650.5,-239 553.5,-239 553.5,-220 650.5,-220 650.5,-239"/>
<text text-anchor="middle" x="602" y="-227" font-family="Helvetica,sans-Serif" font-size="10.00">realm/memory.h</text>
</a>
</g>
</g>
<!-- Node2&#45;&gt;Node18 -->
<g id="edge18_Node000002_Node000018" class="edge">
<title>Node2&#45;&gt;Node18</title>
<g id="a_edge18_Node000002_Node000018"><a xlink:title=" ">
<path fill="none" stroke="#63b8ff" d="M441.69,-274.98C474.17,-265.97 525.6,-251.7 561.41,-241.76"/>
<polygon fill="#63b8ff" stroke="#63b8ff" points="562.37,-245.13 571.07,-239.08 560.5,-238.38 562.37,-245.13"/>
</a>
</g>
</g>
<!-- Node19 -->
<g id="Node000019" class="node">
<title>Node19</title>
<g id="a_Node000019"><a xlink:title=" ">
<polygon fill="#e0e0e0" stroke="#999999" points="354,-184 294,-184 294,-165 354,-165 354,-184"/>
<text text-anchor="middle" x="324" y="-172" font-family="Helvetica,sans-Serif" font-size="10.00">iostream</text>
</a>
</g>
</g>
<!-- Node2&#45;&gt;Node19 -->
<g id="edge24_Node000002_Node000019" class="edge">
<title>Node2&#45;&gt;Node19</title>
<g id="a_edge24_Node000002_Node000019"><a xlink:title=" ">
<path fill="none" stroke="#63b8ff" d="M392.32,-274.86C377.82,-267.28 358.2,-254.98 346,-239 335.93,-225.81 330.26,-207.69 327.21,-194.17"/>
<polygon fill="#63b8ff" stroke="#63b8ff" points="330.6,-193.25 325.22,-184.12 323.73,-194.61 330.6,-193.25"/>
</a>
</g>
</g>
<!-- Node20 -->
<g id="Node000020" class="node">
<title>Node20</title>
<g id="a_Node000020"><a xlink:title=" ">
<polygon fill="#e0e0e0" stroke="#999999" points="387,-239 355,-239 355,-220 387,-220 387,-239"/>
<text text-anchor="middle" x="371" y="-227" font-family="Helvetica,sans-Serif" font-size="10.00">set</text>
</a>
</g>
</g>
<!-- Node2&#45;&gt;Node20 -->
<g id="edge23_Node000002_Node000020" class="edge">
<title>Node2&#45;&gt;Node20</title>
<g id="a_edge23_Node000002_Node000020"><a xlink:title=" ">
<path fill="none" stroke="#63b8ff" d="M404.39,-274.75C398.74,-267.26 390.46,-256.28 383.55,-247.13"/>
<polygon fill="#63b8ff" stroke="#63b8ff" points="386.3,-244.96 377.48,-239.09 380.71,-249.18 386.3,-244.96"/>
</a>
</g>
</g>
<!-- Node21 -->
<g id="Node000021" class="node">
<title>Node21</title>
<g id="a_Node000021"><a xlink:title=" ">
<polygon fill="#e0e0e0" stroke="#999999" points="496.5,-239 405.5,-239 405.5,-220 496.5,-220 496.5,-239"/>
<text text-anchor="middle" x="451" y="-227" font-family="Helvetica,sans-Serif" font-size="10.00">realm/event.inl</text>
</a>
</g>
</g>
<!-- Node2&#45;&gt;Node21 -->
<g id="edge25_Node000002_Node000021" class="edge">
<title>Node2&#45;&gt;Node21</title>
<g id="a_edge25_Node000002_Node000021"><a xlink:title=" ">
<path fill="none" stroke="#63b8ff" d="M417.61,-274.75C423.26,-267.26 431.54,-256.28 438.45,-247.13"/>
<polygon fill="#63b8ff" stroke="#63b8ff" points="441.29,-249.18 444.52,-239.09 435.7,-244.96 441.29,-249.18"/>
</a>
</g>
</g>
<!-- Node4 -->
<g id="Node000004" class="node">
<title>Node4</title>
<g id="a_Node000004"><a xlink:href="realm__config_8h.html" target="_top" xlink:title=" ">
<polygon fill="white" stroke="#666666" points="732,-74 612,-74 612,-55 732,-55 732,-74"/>
<text text-anchor="middle" x="672" y="-62" font-family="Helvetica,sans-Serif" font-size="10.00">realm/realm_config.h</text>
</a>
</g>
</g>
<!-- Node3&#45;&gt;Node4 -->
<g id="edge3_Node000003_Node000004" class="edge">
<title>Node3&#45;&gt;Node4</title>
<g id="a_edge3_Node000003_Node000004"><a xlink:title=" ">
<path fill="none" stroke="#63b8ff" d="M527.26,-164.94C526.58,-151.54 527.31,-125.53 541,-110 556.64,-92.27 579.62,-81.59 601.98,-75.17"/>
<polygon fill="#63b8ff" stroke="#63b8ff" points="603.05,-78.5 611.84,-72.59 601.28,-71.73 603.05,-78.5"/>
</a>
</g>
</g>
<!-- Node7 -->
<g id="Node000007" class="node">
<title>Node7</title>
<g id="a_Node000007"><a xlink:title=" ">
<polygon fill="#e0e0e0" stroke="#999999" points="677,-129 621,-129 621,-110 677,-110 677,-129"/>
<text text-anchor="middle" x="649" y="-117" font-family="Helvetica,sans-Serif" font-size="10.00">stddef.h</text>
</a>
</g>
</g>
<!-- Node3&#45;&gt;Node7 -->
<g id="edge6_Node000003_Node000007" class="edge">
<title>Node3&#45;&gt;Node7</title>
<g id="a_edge6_Node000003_Node000007"><a xlink:title=" ">
<path fill="none" stroke="#63b8ff" d="M547.44,-164.98C566.99,-156.42 597.38,-143.11 619.82,-133.28"/>
<polygon fill="#63b8ff" stroke="#63b8ff" points="621.45,-136.39 629.21,-129.17 618.64,-129.98 621.45,-136.39"/>
</a>
</g>
</g>
<!-- Node8 -->
<g id="Node000008" class="node">
<title>Node8</title>
<g id="a_Node000008"><a xlink:title=" ">
<polygon fill="#e0e0e0" stroke="#999999" points="602.5,-129 549.5,-129 549.5,-110 602.5,-110 602.5,-129"/>
<text text-anchor="middle" x="576" y="-117" font-family="Helvetica,sans-Serif" font-size="10.00">stdint.h</text>
</a>
</g>
</g>
<!-- Node3&#45;&gt;Node8 -->
<g id="edge7_Node000003_Node000008" class="edge">
<title>Node3&#45;&gt;Node8</title>
<g id="a_edge7_Node000003_Node000008"><a xlink:title=" ">
<path fill="none" stroke="#63b8ff" d="M535.93,-164.75C542.85,-157.11 553.07,-145.82 561.45,-136.56"/>
<polygon fill="#63b8ff" stroke="#63b8ff" points="564.1,-138.85 568.22,-129.09 558.91,-134.15 564.1,-138.85"/>
</a>
</g>
</g>
<!-- Node5 -->
<g id="Node000005" class="node">
<title>Node5</title>
<g id="a_Node000005"><a xlink:href="realm__defines_8h.html" target="_top" xlink:title=" ">
<polygon fill="white" stroke="#666666" points="650.5,-19 555.5,-19 555.5,0 650.5,0 650.5,-19"/>
<text text-anchor="middle" x="603" y="-7" font-family="Helvetica,sans-Serif" font-size="10.00">realm_defines.h</text>
</a>
</g>
</g>
<!-- Node4&#45;&gt;Node5 -->
<g id="edge4_Node000004_Node000005" class="edge">
<title>Node4&#45;&gt;Node5</title>
<g id="a_edge4_Node000004_Node000005"><a xlink:title=" ">
<path fill="none" stroke="#63b8ff" d="M660.91,-54.98C650.51,-47 634.74,-34.88 622.28,-25.31"/>
<polygon fill="#63b8ff" stroke="#63b8ff" points="624.35,-22.49 614.29,-19.17 620.09,-28.04 624.35,-22.49"/>
</a>
</g>
</g>
<!-- Node6 -->
<g id="Node000006" class="node">
<title>Node6</title>
<g id="a_Node000006"><a xlink:href="compiler__support_8h.html" target="_top" xlink:title=" ">
<polygon fill="white" stroke="#666666" points="811,-19 669,-19 669,0 811,0 811,-19"/>
<text text-anchor="middle" x="740" y="-7" font-family="Helvetica,sans-Serif" font-size="10.00">realm/compiler_support.h</text>
</a>
</g>
</g>
<!-- Node4&#45;&gt;Node6 -->
<g id="edge5_Node000004_Node000006" class="edge">
<title>Node4&#45;&gt;Node6</title>
<g id="a_edge5_Node000004_Node000006"><a xlink:title=" ">
<path fill="none" stroke="#63b8ff" d="M682.93,-54.98C693.08,-47.07 708.42,-35.11 720.65,-25.58"/>
<polygon fill="#63b8ff" stroke="#63b8ff" points="723.14,-28.08 728.88,-19.17 718.84,-22.56 723.14,-28.08"/>
</a>
</g>
</g>
<!-- Node9&#45;&gt;Node4 -->
<g id="edge9_Node000009_Node000004" class="edge">
<title>Node9&#45;&gt;Node4</title>
<g id="a_edge9_Node000009_Node000004"><a xlink:title=" ">
<path fill="none" stroke="#63b8ff" d="M341.03,-111.61C344.4,-111.05 347.76,-110.51 351,-110 437.14,-96.56 536.61,-83.09 601.72,-74.54"/>
<polygon fill="#63b8ff" stroke="#63b8ff" points="602.4,-77.98 611.86,-73.22 601.49,-71.04 602.4,-77.98"/>
</a>
</g>
</g>
<!-- Node10 -->
<g id="Node000010" class="node">
<title>Node10</title>
<g id="a_Node000010"><a xlink:title=" ">
<polygon fill="#e0e0e0" stroke="#999999" points="1349,-74 1305,-74 1305,-55 1349,-55 1349,-74"/>
<text text-anchor="middle" x="1327" y="-62" font-family="Helvetica,sans-Serif" font-size="10.00">string</text>
</a>
</g>
</g>
<!-- Node9&#45;&gt;Node10 -->
<g id="edge10_Node000009_Node000010" class="edge">
<title>Node9&#45;&gt;Node10</title>
<g id="a_edge10_Node000009_Node000010"><a xlink:title=" ">
<path fill="none" stroke="#63b8ff" d="M341.25,-111.22C344.54,-110.75 347.82,-110.33 351,-110 765.73,-66.33 878.83,-136.87 1294.9,-73.76"/>
<polygon fill="#63b8ff" stroke="#63b8ff" points="1295.43,-77.22 1304.78,-72.25 1294.37,-70.3 1295.43,-77.22"/>
</a>
</g>
</g>
<!-- Node11 -->
<g id="Node000011" class="node">
<title>Node11</title>
<g id="a_Node000011"><a xlink:title=" ">
<polygon fill="#e0e0e0" stroke="#999999" points="245.5,-74 188.5,-74 188.5,-55 245.5,-55 245.5,-74"/>
<text text-anchor="middle" x="217" y="-62" font-family="Helvetica,sans-Serif" font-size="10.00">ostream</text>
</a>
</g>
</g>
<!-- Node9&#45;&gt;Node11 -->
<g id="edge11_Node000009_Node000011" class="edge">
<title>Node9&#45;&gt;Node11</title>
<g id="a_edge11_Node000009_Node000011"><a xlink:title=" ">
<path fill="none" stroke="#63b8ff" d="M288.34,-109.98C275.16,-101.77 254.97,-89.18 239.43,-79.49"/>
<polygon fill="#63b8ff" stroke="#63b8ff" points="241.24,-76.49 230.91,-74.17 237.54,-82.43 241.24,-76.49"/>
</a>
</g>
</g>
<!-- Node9&#45;&gt;Node12 -->
<g id="edge12_Node000009_Node000012" class="edge">
<title>Node9&#45;&gt;Node12</title>
<g id="a_edge12_Node000009_Node000012"><a xlink:title=" ">
<path fill="none" stroke="#63b8ff" d="M341.25,-111.25C344.54,-110.78 347.82,-110.35 351,-110 684.03,-73.3 771.03,-111.29 1104,-74 1108.57,-73.49 1113.36,-72.81 1118.08,-72.06"/>
<polygon fill="#63b8ff" stroke="#63b8ff" points="1118.89,-75.47 1128.16,-70.34 1117.71,-68.57 1118.89,-75.47"/>
</a>
</g>
</g>
<!-- Node13 -->
<g id="Node000013" class="node">
<title>Node13</title>
<g id="a_Node000013"><a xlink:title=" ">
<polygon fill="#e0e0e0" stroke="#999999" points="1095,-74 1057,-74 1057,-55 1095,-55 1095,-74"/>
<text text-anchor="middle" x="1076" y="-62" font-family="Helvetica,sans-Serif" font-size="10.00">map</text>
</a>
</g>
</g>
<!-- Node9&#45;&gt;Node13 -->
<g id="edge13_Node000009_Node000013" class="edge">
<title>Node9&#45;&gt;Node13</title>
<g id="a_edge13_Node000009_Node000013"><a xlink:title=" ">
<path fill="none" stroke="#63b8ff" d="M341.26,-111.3C344.55,-110.81 347.83,-110.37 351,-110 620.21,-78.49 948.45,-68.52 1046.81,-66.13"/>
<polygon fill="#63b8ff" stroke="#63b8ff" points="1046.97,-69.63 1056.89,-65.9 1046.81,-62.63 1046.97,-69.63"/>
</a>
</g>
</g>
<!-- Node14 -->
<g id="Node000014" class="node">
<title>Node14</title>
<g id="a_Node000014"><a xlink:title=" ">
<polygon fill="#e0e0e0" stroke="#999999" points="316,-74 264,-74 264,-55 316,-55 316,-74"/>
<text text-anchor="middle" x="290" y="-62" font-family="Helvetica,sans-Serif" font-size="10.00">cassert</text>
</a>
</g>
</g>
<!-- Node9&#45;&gt;Node14 -->
<g id="edge14_Node000009_Node000014" class="edge">
<title>Node9&#45;&gt;Node14</title>
<g id="a_edge14_Node000009_Node000014"><a xlink:title=" ">
<path fill="none" stroke="#63b8ff" d="M300.02,-109.75C298.43,-102.72 296.14,-92.62 294.15,-83.84"/>
<polygon fill="#63b8ff" stroke="#63b8ff" points="297.57,-83.07 291.94,-74.09 290.74,-84.62 297.57,-83.07"/>
</a>
</g>
</g>
<!-- Node15 -->
<g id="Node000015" class="node">
<title>Node15</title>
<g id="a_Node000015"><a xlink:title=" ">
<polygon fill="#e0e0e0" stroke="#999999" points="384,-74 334,-74 334,-55 384,-55 384,-74"/>
<text text-anchor="middle" x="359" y="-62" font-family="Helvetica,sans-Serif" font-size="10.00">cstdint</text>
</a>
</g>
</g>
<!-- Node9&#45;&gt;Node15 -->
<g id="edge15_Node000009_Node000015" class="edge">
<title>Node9&#45;&gt;Node15</title>
<g id="a_edge15_Node000009_Node000015"><a xlink:title=" ">
<path fill="none" stroke="#63b8ff" d="M311.16,-109.98C319.5,-102.23 332.03,-90.58 342.18,-81.14"/>
<polygon fill="#63b8ff" stroke="#63b8ff" points="344.74,-83.54 349.68,-74.17 339.97,-78.42 344.74,-83.54"/>
</a>
</g>
</g>
<!-- Node16 -->
<g id="Node000016" class="node">
<title>Node16</title>
<g id="a_Node000016"><a xlink:title=" ">
<polygon fill="#e0e0e0" stroke="#999999" points="458,-74 402,-74 402,-55 458,-55 458,-74"/>
<text text-anchor="middle" x="430" y="-62" font-family="Helvetica,sans-Serif" font-size="10.00">sstream</text>
</a>
</g>
</g>
<!-- Node9&#45;&gt;Node16 -->
<g id="edge16_Node000009_Node000016" class="edge">
<title>Node9&#45;&gt;Node16</title>
<g id="a_edge16_Node000009_Node000016"><a xlink:title=" ">
<path fill="none" stroke="#63b8ff" d="M322.57,-109.98C343.43,-101.34 375.97,-87.87 399.77,-78.02"/>
<polygon fill="#63b8ff" stroke="#63b8ff" points="401.16,-81.23 409.06,-74.17 398.48,-74.76 401.16,-81.23"/>
</a>
</g>
</g>
<!-- Node17 -->
<g id="Node000017" class="node">
<title>Node17</title>
<g id="a_Node000017"><a xlink:title=" ">
<polygon fill="#e0e0e0" stroke="#999999" points="560,-74 476,-74 476,-55 560,-55 560,-74"/>
<text text-anchor="middle" x="518" y="-62" font-family="Helvetica,sans-Serif" font-size="10.00">realm/utils.inl</text>
</a>
</g>
</g>
<!-- Node9&#45;&gt;Node17 -->
<g id="edge17_Node000009_Node000017" class="edge">
<title>Node9&#45;&gt;Node17</title>
<g id="a_edge17_Node000009_Node000017"><a xlink:title=" ">
<path fill="none" stroke="#63b8ff" d="M336.7,-109.98C373.75,-100.89 432.59,-86.46 473.13,-76.51"/>
<polygon fill="#63b8ff" stroke="#63b8ff" points="474.15,-79.86 483.02,-74.08 472.48,-73.07 474.15,-79.86"/>
</a>
</g>
</g>
<!-- Node18&#45;&gt;Node3 -->
<g id="edge19_Node000018_Node000003" class="edge">
<title>Node18&#45;&gt;Node3</title>
<g id="a_edge19_Node000018_Node000003"><a xlink:title=" ">
<path fill="none" stroke="#63b8ff" d="M590.11,-219.98C578.85,-211.92 561.71,-199.65 548.29,-190.03"/>
<polygon fill="#63b8ff" stroke="#63b8ff" points="550.27,-187.15 540.11,-184.17 546.2,-192.84 550.27,-187.15"/>
</a>
</g>
</g>
<!-- Node18&#45;&gt;Node7 -->
<g id="edge20_Node000018_Node000007" class="edge">
<title>Node18&#45;&gt;Node7</title>
<g id="a_edge20_Node000018_Node000007"><a xlink:title=" ">
<path fill="none" stroke="#63b8ff" d="M605.85,-219.66C613.53,-202.01 630.9,-162.09 641.11,-138.64"/>
<polygon fill="#63b8ff" stroke="#63b8ff" points="644.45,-139.72 645.23,-129.16 638.03,-136.93 644.45,-139.72"/>
</a>
</g>
</g>
<!-- Node18&#45;&gt;Node19 -->
<g id="edge21_Node000018_Node000019" class="edge">
<title>Node18&#45;&gt;Node19</title>
<g id="a_edge21_Node000018_Node000019"><a xlink:title=" ">
<path fill="none" stroke="#63b8ff" d="M554.52,-219.98C506.43,-211.26 429.95,-197.17 364,-184 363.9,-183.98 363.8,-183.96 363.7,-183.94"/>
<polygon fill="#63b8ff" stroke="#63b8ff" points="364.62,-180.56 354.12,-181.98 363.22,-187.41 364.62,-180.56"/>
</a>
</g>
</g>
<!-- Node22&#45;&gt;Node3 -->
<g id="edge27_Node000022_Node000003" class="edge">
<title>Node22&#45;&gt;Node3</title>
<g id="a_edge27_Node000022_Node000003"><a xlink:title=" ">
<path fill="none" stroke="#63b8ff" d="M223.02,-223.32C280.18,-214.36 398.25,-195.85 469.55,-184.67"/>
<polygon fill="#63b8ff" stroke="#63b8ff" points="470.38,-188.08 479.71,-183.07 469.29,-181.16 470.38,-188.08"/>
</a>
</g>
</g>
<!-- Node22&#45;&gt;Node9 -->
<g id="edge28_Node000022_Node000009" class="edge">
<title>Node22&#45;&gt;Node9</title>
<g id="a_edge28_Node000022_Node000009"><a xlink:title=" ">
<path fill="none" stroke="#63b8ff" d="M198.24,-219.68C209.94,-207.24 232.16,-183.94 252,-165 262.4,-155.07 274.43,-144.34 284.08,-135.91"/>
<polygon fill="#63b8ff" stroke="#63b8ff" points="286.59,-138.36 291.85,-129.16 282.01,-133.07 286.59,-138.36"/>
</a>
</g>
</g>
<!-- Node22&#45;&gt;Node19 -->
<g id="edge29_Node000022_Node000019" class="edge">
<title>Node22&#45;&gt;Node19</title>
<g id="a_edge29_Node000022_Node000019"><a xlink:title=" ">
<path fill="none" stroke="#63b8ff" d="M211.53,-219.98C233.47,-211.3 267.74,-197.75 292.69,-187.88"/>
<polygon fill="#63b8ff" stroke="#63b8ff" points="294.07,-191.1 302.08,-184.17 291.49,-184.59 294.07,-191.1"/>
</a>
</g>
</g>
<!-- Node23 -->
<g id="Node000023" class="node">
<title>Node23</title>
<g id="a_Node000023"><a xlink:title=" ">
<polygon fill="#e0e0e0" stroke="#999999" points="200,-184 128,-184 128,-165 200,-165 200,-184"/>
<text text-anchor="middle" x="164" y="-172" font-family="Helvetica,sans-Serif" font-size="10.00">realm/id.inl</text>
</a>
</g>
</g>
<!-- Node22&#45;&gt;Node23 -->
<g id="edge30_Node000022_Node000023" class="edge">
<title>Node22&#45;&gt;Node23</title>
<g id="a_edge30_Node000022_Node000023"><a xlink:title=" ">
<path fill="none" stroke="#63b8ff" d="M185.71,-219.75C182.19,-212.57 177.09,-202.18 172.72,-193.27"/>
<polygon fill="#63b8ff" stroke="#63b8ff" points="175.76,-191.53 168.21,-184.09 169.48,-194.61 175.76,-191.53"/>
</a>
</g>
</g>
<!-- Node24&#45;&gt;Node4 -->
<g id="edge32_Node000024_Node000004" class="edge">
<title>Node24&#45;&gt;Node4</title>
<g id="a_edge32_Node000024_Node000004"><a xlink:title=" ">
<path fill="none" stroke="#63b8ff" d="M713.14,-219.79C709.34,-210.93 703.61,-196.73 700,-184 690.88,-151.79 694.15,-142.47 686,-110 683.83,-101.36 680.94,-91.93 678.35,-83.98"/>
<polygon fill="#63b8ff" stroke="#63b8ff" points="681.6,-82.65 675.1,-74.28 674.96,-84.87 681.6,-82.65"/>
</a>
</g>
</g>
<!-- Node24&#45;&gt;Node8 -->
<g id="edge42_Node000024_Node000008" class="edge">
<title>Node24&#45;&gt;Node8</title>
<g id="a_edge42_Node000024_Node000008"><a xlink:title=" ">
<path fill="none" stroke="#63b8ff" d="M705.46,-219.66C681.28,-201.14 625.06,-158.08 595.29,-135.28"/>
<polygon fill="#63b8ff" stroke="#63b8ff" points="597.37,-132.46 587.3,-129.16 593.11,-138.02 597.37,-132.46"/>
</a>
</g>
</g>
<!-- Node24&#45;&gt;Node25 -->
<g id="edge33_Node000024_Node000025" class="edge">
<title>Node24&#45;&gt;Node25</title>
<g id="a_edge33_Node000024_Node000025"><a xlink:title=" ">
<path fill="none" stroke="#63b8ff" d="M668.8,-219.98C615.01,-210.48 528.14,-195.13 471.8,-185.18"/>
<polygon fill="#63b8ff" stroke="#63b8ff" points="472.11,-181.68 461.65,-183.39 470.89,-188.58 472.11,-181.68"/>
</a>
</g>
</g>
<!-- Node30 -->
<g id="Node000030" class="node">
<title>Node30</title>
<g id="a_Node000030"><a xlink:title=" ">
<polygon fill="#e0e0e0" stroke="#999999" points="761.5,-184 708.5,-184 708.5,-165 761.5,-165 761.5,-184"/>
<text text-anchor="middle" x="735" y="-172" font-family="Helvetica,sans-Serif" font-size="10.00">iterator</text>
</a>
</g>
</g>
<!-- Node24&#45;&gt;Node30 -->
<g id="edge43_Node000024_Node000030" class="edge">
<title>Node24&#45;&gt;Node30</title>
<g id="a_edge43_Node000024_Node000030"><a xlink:title=" ">
<path fill="none" stroke="#63b8ff" d="M719.97,-219.75C722.36,-212.72 725.79,-202.62 728.77,-193.84"/>
<polygon fill="#63b8ff" stroke="#63b8ff" points="732.18,-194.68 732.08,-184.09 725.55,-192.43 732.18,-194.68"/>
</a>
</g>
</g>
<!-- Node31 -->
<g id="Node000031" class="node">
<title>Node31</title>
<g id="a_Node000031"><a xlink:title=" ">
<polygon fill="#e0e0e0" stroke="#999999" points="882,-184 780,-184 780,-165 882,-165 882,-184"/>
<text text-anchor="middle" x="831" y="-172" font-family="Helvetica,sans-Serif" font-size="10.00">realm/nodeset.inl</text>
</a>
</g>
</g>
<!-- Node24&#45;&gt;Node31 -->
<g id="edge44_Node000024_Node000031" class="edge">
<title>Node24&#45;&gt;Node31</title>
<g id="a_edge44_Node000024_Node000031"><a xlink:title=" ">
<path fill="none" stroke="#63b8ff" d="M735.32,-219.98C753.66,-211.46 782.11,-198.23 803.23,-188.41"/>
<polygon fill="#63b8ff" stroke="#63b8ff" points="804.76,-191.56 812.35,-184.17 801.81,-185.21 804.76,-191.56"/>
</a>
</g>
</g>
<!-- Node25&#45;&gt;Node4 -->
<g id="edge34_Node000025_Node000004" class="edge">
<title>Node25&#45;&gt;Node4</title>
<g id="a_edge34_Node000025_Node000004"><a xlink:title=" ">
<path fill="none" stroke="#63b8ff" d="M429.71,-164.88C449.69,-151.64 490,-126.11 527,-110 559.29,-95.94 597.41,-84.43 626.46,-76.64"/>
<polygon fill="#63b8ff" stroke="#63b8ff" points="627.56,-79.97 636.34,-74.04 625.77,-73.2 627.56,-79.97"/>
</a>
</g>
</g>
<!-- Node25&#45;&gt;Node8 -->
<g id="edge40_Node000025_Node000008" class="edge">
<title>Node25&#45;&gt;Node8</title>
<g id="a_edge40_Node000025_Node000008"><a xlink:title=" ">
<path fill="none" stroke="#63b8ff" d="M442.55,-164.98C469.12,-156.13 510.94,-142.19 540.67,-132.28"/>
<polygon fill="#63b8ff" stroke="#63b8ff" points="541.87,-135.56 550.25,-129.08 539.66,-128.92 541.87,-135.56"/>
</a>
</g>
</g>
<!-- Node25&#45;&gt;Node9 -->
<g id="edge35_Node000025_Node000009" class="edge">
<title>Node25&#45;&gt;Node9</title>
<g id="a_edge35_Node000025_Node000009"><a xlink:title=" ">
<path fill="none" stroke="#63b8ff" d="M398.52,-164.98C380.02,-156.46 351.32,-143.23 330.02,-133.41"/>
<polygon fill="#63b8ff" stroke="#63b8ff" points="331.36,-130.18 320.81,-129.17 328.43,-136.53 331.36,-130.18"/>
</a>
</g>
</g>
<!-- Node25&#45;&gt;Node26 -->
<g id="edge36_Node000025_Node000026" class="edge">
<title>Node25&#45;&gt;Node26</title>
<g id="a_edge36_Node000025_Node000026"><a xlink:title=" ">
<path fill="none" stroke="#63b8ff" d="M372.39,-165.57C320.31,-156.3 234.04,-140.96 176.86,-130.79"/>
<polygon fill="#63b8ff" stroke="#63b8ff" points="177.34,-127.32 166.88,-129.02 176.12,-134.21 177.34,-127.32"/>
</a>
</g>
</g>
<!-- Node29 -->
<g id="Node000029" class="node">
<title>Node29</title>
<g id="a_Node000029"><a xlink:title=" ">
<polygon fill="#e0e0e0" stroke="#999999" points="454.5,-129 359.5,-129 359.5,-110 454.5,-110 454.5,-129"/>
<text text-anchor="middle" x="407" y="-117" font-family="Helvetica,sans-Serif" font-size="10.00">realm/mutex.inl</text>
</a>
</g>
</g>
<!-- Node25&#45;&gt;Node29 -->
<g id="edge41_Node000025_Node000029" class="edge">
<title>Node25&#45;&gt;Node29</title>
<g id="a_edge41_Node000025_Node000029"><a xlink:title=" ">
<path fill="none" stroke="#63b8ff" d="M415.35,-164.75C414.04,-157.8 412.16,-147.85 410.52,-139.13"/>
<polygon fill="#63b8ff" stroke="#63b8ff" points="413.91,-138.27 408.62,-129.09 407.04,-139.56 413.91,-138.27"/>
</a>
</g>
</g>
<!-- Node26&#45;&gt;Node4 -->
<g id="edge37_Node000026_Node000004" class="edge">
<title>Node26&#45;&gt;Node4</title>
<g id="a_edge37_Node000026_Node000004"><a xlink:title=" ">
<path fill="none" stroke="#63b8ff" d="M167.11,-113.89C264.93,-104.51 487.41,-83.19 601.56,-72.25"/>
<polygon fill="#63b8ff" stroke="#63b8ff" points="601.98,-75.73 611.6,-71.29 601.31,-68.76 601.98,-75.73"/>
</a>
</g>
</g>
<!-- Node27 -->
<g id="Node000027" class="node">
<title>Node27</title>
<g id="a_Node000027"><a xlink:title=" ">
<polygon fill="#e0e0e0" stroke="#999999" points="50,-74 0,-74 0,-55 50,-55 50,-74"/>
<text text-anchor="middle" x="25" y="-62" font-family="Helvetica,sans-Serif" font-size="10.00">atomic</text>
</a>
</g>
</g>
<!-- Node26&#45;&gt;Node27 -->
<g id="edge38_Node000026_Node000027" class="edge">
<title>Node26&#45;&gt;Node27</title>
<g id="a_edge38_Node000026_Node000027"><a xlink:title=" ">
<path fill="none" stroke="#63b8ff" d="M103.9,-109.98C89.18,-101.69 66.58,-88.94 49.33,-79.22"/>
<polygon fill="#63b8ff" stroke="#63b8ff" points="50.81,-76.03 40.38,-74.17 47.37,-82.13 50.81,-76.03"/>
</a>
</g>
</g>
<!-- Node28 -->
<g id="Node000028" class="node">
<title>Node28</title>
<g id="a_Node000028"><a xlink:title=" ">
<polygon fill="#e0e0e0" stroke="#999999" points="170,-74 68,-74 68,-55 170,-55 170,-74"/>
<text text-anchor="middle" x="119" y="-62" font-family="Helvetica,sans-Serif" font-size="10.00">realm/atomics.inl</text>
</a>
</g>
</g>
<!-- Node26&#45;&gt;Node28 -->
<g id="edge39_Node000026_Node000028" class="edge">
<title>Node26&#45;&gt;Node28</title>
<g id="a_edge39_Node000026_Node000028"><a xlink:title=" ">
<path fill="none" stroke="#63b8ff" d="M119,-109.75C119,-102.8 119,-92.85 119,-84.13"/>
<polygon fill="#63b8ff" stroke="#63b8ff" points="122.5,-84.09 119,-74.09 115.5,-84.09 122.5,-84.09"/>
</a>
</g>
</g>
<!-- Node32&#45;&gt;Node4 -->
<g id="edge46_Node000032_Node000004" class="edge">
<title>Node32&#45;&gt;Node4</title>
<g id="a_edge46_Node000032_Node000004"><a xlink:title=" ">
<path fill="none" stroke="#63b8ff" d="M952.05,-274.67C940.93,-250.11 908.98,-181.67 891,-165 840.83,-118.47 765.17,-90.74 717.2,-76.81"/>
<polygon fill="#63b8ff" stroke="#63b8ff" points="717.98,-73.39 707.41,-74.04 716.08,-80.13 717.98,-73.39"/>
</a>
</g>
</g>
<!-- Node32&#45;&gt;Node13 -->
<g id="edge63_Node000032_Node000013" class="edge">
<title>Node32&#45;&gt;Node13</title>
<g id="a_edge63_Node000032_Node000013"><a xlink:title=" ">
<path fill="none" stroke="#63b8ff" d="M986.68,-274.9C1008.05,-267.79 1036.32,-256.09 1057,-239 1079.9,-220.07 1086.15,-212.36 1095,-184 1105.81,-149.33 1093.09,-106.94 1083.87,-83.41"/>
<polygon fill="#63b8ff" stroke="#63b8ff" points="1087.04,-81.92 1079.98,-74.02 1080.58,-84.6 1087.04,-81.92"/>
</a>
</g>
</g>
<!-- Node32&#45;&gt;Node18 -->
<g id="edge59_Node000032_Node000018" class="edge">
<title>Node32&#45;&gt;Node18</title>
<g id="a_edge59_Node000032_Node000018"><a xlink:title=" ">
<path fill="none" stroke="#63b8ff" d="M907.15,-276.19C842.83,-266.56 729.86,-249.64 660.89,-239.32"/>
<polygon fill="#63b8ff" stroke="#63b8ff" points="661.04,-235.8 650.63,-237.78 660,-242.72 661.04,-235.8"/>
</a>
</g>
</g>
<!-- Node32&#45;&gt;Node24 -->
<g id="edge58_Node000032_Node000024" class="edge">
<title>Node32&#45;&gt;Node24</title>
<g id="a_edge58_Node000032_Node000024"><a xlink:title=" ">
<path fill="none" stroke="#63b8ff" d="M917.6,-274.98C876.26,-265.82 810.4,-251.21 765.51,-241.26"/>
<polygon fill="#63b8ff" stroke="#63b8ff" points="766.22,-237.83 755.7,-239.08 764.71,-244.66 766.22,-237.83"/>
</a>
</g>
</g>
<!-- Node33 -->
<g id="Node000033" class="node">
<title>Node33</title>
<g id="a_Node000033"><a xlink:href="module_8h.html" target="_top" xlink:title=" ">
<polygon fill="white" stroke="#666666" points="1298,-184 1204,-184 1204,-165 1298,-165 1298,-184"/>
<text text-anchor="middle" x="1251" y="-172" font-family="Helvetica,sans-Serif" font-size="10.00">realm/module.h</text>
</a>
</g>
</g>
<!-- Node32&#45;&gt;Node33 -->
<g id="edge47_Node000032_Node000033" class="edge">
<title>Node32&#45;&gt;Node33</title>
<g id="a_edge47_Node000032_Node000033"><a xlink:title=" ">
<path fill="none" stroke="#63b8ff" d="M1004.62,-283.62C1080.89,-282.65 1223.26,-275.82 1255,-239 1265.58,-226.73 1262.73,-207.69 1258.36,-193.65"/>
<polygon fill="#63b8ff" stroke="#63b8ff" points="1261.6,-192.32 1254.92,-184.09 1255.01,-194.68 1261.6,-192.32"/>
</a>
</g>
</g>
<!-- Node37 -->
<g id="Node000037" class="node">
<title>Node37</title>
<g id="a_Node000037"><a xlink:href="bytearray_8h.html" target="_top" xlink:title=" ">
<polygon fill="white" stroke="#666666" points="1047.5,-239 944.5,-239 944.5,-220 1047.5,-220 1047.5,-239"/>
<text text-anchor="middle" x="996" y="-227" font-family="Helvetica,sans-Serif" font-size="10.00">realm/bytearray.h</text>
</a>
</g>
</g>
<!-- Node32&#45;&gt;Node37 -->
<g id="edge60_Node000032_Node000037" class="edge">
<title>Node32&#45;&gt;Node37</title>
<g id="a_edge60_Node000032_Node000037"><a xlink:title=" ">
<path fill="none" stroke="#63b8ff" d="M962.61,-274.75C968.26,-267.26 976.54,-256.28 983.45,-247.13"/>
<polygon fill="#63b8ff" stroke="#63b8ff" points="986.29,-249.18 989.52,-239.09 980.7,-244.96 986.29,-249.18"/>
</a>
</g>
</g>
<!-- Node39 -->
<g id="Node000039" class="node">
<title>Node39</title>
<g id="a_Node000039"><a xlink:title=" ">
<polygon fill="#e0e0e0" stroke="#999999" points="1245.5,-239 1142.5,-239 1142.5,-220 1245.5,-220 1245.5,-239"/>
<text text-anchor="middle" x="1194" y="-227" font-family="Helvetica,sans-Serif" font-size="10.00">realm/network.inl</text>
</a>
</g>
</g>
<!-- Node32&#45;&gt;Node39 -->
<g id="edge64_Node000032_Node000039" class="edge">
<title>Node32&#45;&gt;Node39</title>
<g id="a_edge64_Node000032_Node000039"><a xlink:title=" ">
<path fill="none" stroke="#63b8ff" d="M994.24,-274.98C1035.41,-265.82 1100.99,-251.21 1145.7,-241.26"/>
<polygon fill="#63b8ff" stroke="#63b8ff" points="1146.46,-244.67 1155.46,-239.08 1144.94,-237.84 1146.46,-244.67"/>
</a>
</g>
</g>
<!-- Node33&#45;&gt;Node4 -->
<g id="edge48_Node000033_Node000004" class="edge">
<title>Node33&#45;&gt;Node4</title>
<g id="a_edge48_Node000033_Node000004"><a xlink:title=" ">
<path fill="none" stroke="#63b8ff" d="M1215.56,-164.94C1161.21,-152 1053.91,-127.13 962,-110 887.21,-96.06 800.97,-83.24 742.11,-74.98"/>
<polygon fill="#63b8ff" stroke="#63b8ff" points="742.56,-71.51 732.17,-73.59 741.59,-78.44 742.56,-71.51"/>
</a>
</g>
</g>
<!-- Node33&#45;&gt;Node10 -->
<g id="edge56_Node000033_Node000010" class="edge">
<title>Node33&#45;&gt;Node10</title>
<g id="a_edge56_Node000033_Node000010"><a xlink:title=" ">
<path fill="none" stroke="#63b8ff" d="M1298.22,-165.43C1319.34,-159.22 1342.29,-148.26 1355,-129 1364.8,-114.15 1353.98,-95.31 1343.07,-82.01"/>
<polygon fill="#63b8ff" stroke="#63b8ff" points="1345.36,-79.33 1336.1,-74.18 1340.13,-83.98 1345.36,-79.33"/>
</a>
</g>
</g>
<!-- Node33&#45;&gt;Node12 -->
<g id="edge55_Node000033_Node000012" class="edge">
<title>Node33&#45;&gt;Node12</title>
<g id="a_edge55_Node000033_Node000012"><a xlink:title=" ">
<path fill="none" stroke="#63b8ff" d="M1242.57,-164.7C1234.04,-155.76 1220.51,-141.51 1209,-129 1194.35,-113.08 1177.87,-94.67 1166.41,-81.78"/>
<polygon fill="#63b8ff" stroke="#63b8ff" points="1168.93,-79.35 1159.68,-74.19 1163.7,-83.99 1168.93,-79.35"/>
</a>
</g>
</g>
<!-- Node33&#45;&gt;Node13 -->
<g id="edge57_Node000033_Node000013" class="edge">
<title>Node33&#45;&gt;Node13</title>
<g id="a_edge57_Node000033_Node000013"><a xlink:title=" ">
<path fill="none" stroke="#63b8ff" d="M1236.97,-164.84C1206.77,-146.2 1135.33,-102.11 1098.63,-79.46"/>
<polygon fill="#63b8ff" stroke="#63b8ff" points="1100.44,-76.47 1090.09,-74.2 1096.76,-82.43 1100.44,-76.47"/>
</a>
</g>
</g>
<!-- Node34 -->
<g id="Node000034" class="node">
<title>Node34</title>
<g id="a_Node000034"><a xlink:href="module__config_8h.html" target="_top" xlink:title=" ">
<polygon fill="white" stroke="#666666" points="1346,-129 1218,-129 1218,-110 1346,-110 1346,-129"/>
<text text-anchor="middle" x="1282" y="-117" font-family="Helvetica,sans-Serif" font-size="10.00">realm/module_config.h</text>
</a>
</g>
</g>
<!-- Node33&#45;&gt;Node34 -->
<g id="edge49_Node000033_Node000034" class="edge">
<title>Node33&#45;&gt;Node34</title>
<g id="a_edge49_Node000033_Node000034"><a xlink:title=" ">
<path fill="none" stroke="#63b8ff" d="M1256.12,-164.75C1260.36,-157.49 1266.53,-146.95 1271.78,-137.98"/>
<polygon fill="#63b8ff" stroke="#63b8ff" points="1274.95,-139.49 1276.98,-129.09 1268.91,-135.95 1274.95,-139.49"/>
</a>
</g>
</g>
<!-- Node34&#45;&gt;Node4 -->
<g id="edge50_Node000034_Node000004" class="edge">
<title>Node34&#45;&gt;Node4</title>
<g id="a_edge50_Node000034_Node000004"><a xlink:title=" ">
<path fill="none" stroke="#63b8ff" d="M1217.87,-112.93C1102.7,-102.92 861.71,-81.98 742.24,-71.6"/>
<polygon fill="#63b8ff" stroke="#63b8ff" points="742.37,-68.1 732.11,-70.72 741.77,-75.07 742.37,-68.1"/>
</a>
</g>
</g>
<!-- Node34&#45;&gt;Node10 -->
<g id="edge51_Node000034_Node000010" class="edge">
<title>Node34&#45;&gt;Node10</title>
<g id="a_edge51_Node000034_Node000010"><a xlink:title=" ">
<path fill="none" stroke="#63b8ff" d="M1289.43,-109.75C1295.85,-102.18 1305.31,-91.05 1313.12,-81.84"/>
<polygon fill="#63b8ff" stroke="#63b8ff" points="1315.9,-83.98 1319.71,-74.09 1310.57,-79.45 1315.9,-83.98"/>
</a>
</g>
</g>
<!-- Node34&#45;&gt;Node12 -->
<g id="edge53_Node000034_Node000012" class="edge">
<title>Node34&#45;&gt;Node12</title>
<g id="a_edge53_Node000034_Node000012"><a xlink:title=" ">
<path fill="none" stroke="#63b8ff" d="M1261.11,-109.98C1239.92,-101.34 1206.87,-87.87 1182.7,-78.02"/>
<polygon fill="#63b8ff" stroke="#63b8ff" points="1183.85,-74.7 1173.27,-74.17 1181.21,-81.19 1183.85,-74.7"/>
</a>
</g>
</g>
<!-- Node35 -->
<g id="Node000035" class="node">
<title>Node35</title>
<g id="a_Node000035"><a xlink:title=" ">
<polygon fill="#e0e0e0" stroke="#999999" points="1286.5,-74 1193.5,-74 1193.5,-55 1286.5,-55 1286.5,-74"/>
<text text-anchor="middle" x="1240" y="-62" font-family="Helvetica,sans-Serif" font-size="10.00">unordered_map</text>
</a>
</g>
</g>
<!-- Node34&#45;&gt;Node35 -->
<g id="edge52_Node000034_Node000035" class="edge">
<title>Node34&#45;&gt;Node35</title>
<g id="a_edge52_Node000034_Node000035"><a xlink:title=" ">
<path fill="none" stroke="#63b8ff" d="M1275.06,-109.75C1269.13,-102.26 1260.43,-91.28 1253.18,-82.13"/>
<polygon fill="#63b8ff" stroke="#63b8ff" points="1255.76,-79.75 1246.81,-74.09 1250.27,-84.1 1255.76,-79.75"/>
</a>
</g>
</g>
<!-- Node36 -->
<g id="Node000036" class="node">
<title>Node36</title>
<g id="a_Node000036"><a xlink:title=" ">
<polygon fill="#e0e0e0" stroke="#999999" points="1501,-74 1367,-74 1367,-55 1501,-55 1501,-74"/>
<text text-anchor="middle" x="1434" y="-62" font-family="Helvetica,sans-Serif" font-size="10.00">realm/module_config.inl</text>
</a>
</g>
</g>
<!-- Node34&#45;&gt;Node36 -->
<g id="edge54_Node000034_Node000036" class="edge">
<title>Node34&#45;&gt;Node36</title>
<g id="a_edge54_Node000034_Node000036"><a xlink:title=" ">
<path fill="none" stroke="#63b8ff" d="M1306.42,-109.98C1331.72,-101.16 1371.45,-87.31 1399.86,-77.41"/>
<polygon fill="#63b8ff" stroke="#63b8ff" points="1401.1,-80.68 1409.39,-74.08 1398.79,-74.07 1401.1,-80.68"/>
</a>
</g>
</g>
<!-- Node37&#45;&gt;Node7 -->
<g id="edge61_Node000037_Node000007" class="edge">
<title>Node37&#45;&gt;Node7</title>
<g id="a_edge61_Node000037_Node000007"><a xlink:title=" ">
<path fill="none" stroke="#63b8ff" d="M984.75,-219.78C966.27,-205.92 927.84,-178.99 891,-165 821.98,-138.79 735.86,-127.69 687.19,-123.24"/>
<polygon fill="#63b8ff" stroke="#63b8ff" points="687.36,-119.74 677.1,-122.37 686.76,-126.72 687.36,-119.74"/>
</a>
</g>
</g>
<!-- Node38 -->
<g id="Node000038" class="node">
<title>Node38</title>
<g id="a_Node000038"><a xlink:title=" ">
<polygon fill="#e0e0e0" stroke="#999999" points="1085.5,-184 976.5,-184 976.5,-165 1085.5,-165 1085.5,-184"/>
<text text-anchor="middle" x="1031" y="-172" font-family="Helvetica,sans-Serif" font-size="10.00">realm/bytearray.inl</text>
</a>
</g>
</g>
<!-- Node37&#45;&gt;Node38 -->
<g id="edge62_Node000037_Node000038" class="edge">
<title>Node37&#45;&gt;Node38</title>
<g id="a_edge62_Node000037_Node000038"><a xlink:title=" ">
<path fill="none" stroke="#63b8ff" d="M1001.78,-219.75C1006.62,-212.42 1013.68,-201.73 1019.64,-192.7"/>
<polygon fill="#63b8ff" stroke="#63b8ff" points="1022.74,-194.36 1025.33,-184.09 1016.9,-190.5 1022.74,-194.36"/>
</a>
</g>
</g>
</g>
</svg>
