<?xml version="1.0" encoding="UTF-8" standalone="no"?>
<!DOCTYPE svg PUBLIC "-//W3C//DTD SVG 1.1//EN"
 "http://www.w3.org/Graphics/SVG/1.1/DTD/svg11.dtd">
<!-- Generated by graphviz version 2.43.0 (0)
 -->
<!-- Title: /home/runner/work/realm/realm/realm&#45;src/src/realm/nodeset.h Pages: 1 -->
<svg width="889pt" height="269pt"
 viewBox="0.00 0.00 889.00 269.00" xmlns="http://www.w3.org/2000/svg" xmlns:xlink="http://www.w3.org/1999/xlink">
<g id="graph0" class="graph" transform="scale(1 1) rotate(0) translate(4 265)">
<title>/home/runner/work/realm/realm/realm&#45;src/src/realm/nodeset.h</title>
<!-- Node1 -->
<g id="Node000001" class="node">
<title>Node1</title>
<g id="a_Node000001"><a xlink:title=" ">
<polygon fill="#999999" stroke="#666666" points="578,-261 432,-261 432,-220 578,-220 578,-261"/>
<text text-anchor="start" x="440" y="-249" font-family="Helvetica,sans-Serif" font-size="10.00">/home/runner/work/realm</text>
<text text-anchor="start" x="440" y="-238" font-family="Helvetica,sans-Serif" font-size="10.00">/realm/realm&#45;src/src/realm</text>
<text text-anchor="middle" x="505" y="-227" font-family="Helvetica,sans-Serif" font-size="10.00">/nodeset.h</text>
</a>
</g>
</g>
<!-- Node2 -->
<g id="Node000002" class="node">
<title>Node2</title>
<g id="a_Node000002"><a xlink:href="realm__config_8h.html" target="_top" xlink:title=" ">
<polygon fill="white" stroke="#666666" points="308,-74 188,-74 188,-55 308,-55 308,-74"/>
<text text-anchor="middle" x="248" y="-62" font-family="Helvetica,sans-Serif" font-size="10.00">realm/realm_config.h</text>
</a>
</g>
</g>
<!-- Node1&#45;&gt;Node2 -->
<g id="edge1_Node000001_Node000002" class="edge">
<title>Node1&#45;&gt;Node2</title>
<g id="a_edge1_Node000001_Node000002"><a xlink:title=" ">
<path fill="none" stroke="#63b8ff" d="M451.69,-219.84C407.09,-201.44 343.77,-170.55 299,-129 283.84,-114.93 269.36,-96.21 259.73,-82.75"/>
<polygon fill="#63b8ff" stroke="#63b8ff" points="262.48,-80.58 253.88,-74.39 256.74,-84.59 262.48,-80.58"/>
</a>
</g>
</g>
<!-- Node5 -->
<g id="Node000005" class="node">
<title>Node5</title>
<g id="a_Node000005"><a xlink:href="mutex_8h.html" target="_top" xlink:title=" ">
<polygon fill="white" stroke="#666666" points="476.5,-184 387.5,-184 387.5,-165 476.5,-165 476.5,-184"/>
<text text-anchor="middle" x="432" y="-172" font-family="Helvetica,sans-Serif" font-size="10.00">realm/mutex.h</text>
</a>
</g>
</g>
<!-- Node1&#45;&gt;Node5 -->
<g id="edge4_Node000001_Node000005" class="edge">
<title>Node1&#45;&gt;Node5</title>
<g id="a_edge4_Node000001_Node000005"><a xlink:title=" ">
<path fill="none" stroke="#63b8ff" d="M482.7,-219.95C472.09,-210.65 459.58,-199.68 449.64,-190.96"/>
<polygon fill="#63b8ff" stroke="#63b8ff" points="451.82,-188.22 441.99,-184.26 447.2,-193.48 451.82,-188.22"/>
</a>
</g>
</g>
<!-- Node18 -->
<g id="Node000018" class="node">
<title>Node18</title>
<g id="a_Node000018"><a xlink:title=" ">
<polygon fill="#e0e0e0" stroke="#999999" points="622.5,-129 569.5,-129 569.5,-110 622.5,-110 622.5,-129"/>
<text text-anchor="middle" x="596" y="-117" font-family="Helvetica,sans-Serif" font-size="10.00">stdint.h</text>
</a>
</g>
</g>
<!-- Node1&#45;&gt;Node18 -->
<g id="edge22_Node000001_Node000018" class="edge">
<title>Node1&#45;&gt;Node18</title>
<g id="a_edge22_Node000001_Node000018"><a xlink:title=" ">
<path fill="none" stroke="#63b8ff" d="M506.34,-219.74C508.31,-203.65 513.14,-181.05 525,-165 535.05,-151.41 550.6,-140.99 564.59,-133.66"/>
<polygon fill="#63b8ff" stroke="#63b8ff" points="566.5,-136.62 573.94,-129.08 563.42,-130.34 566.5,-136.62"/>
</a>
</g>
</g>
<!-- Node20 -->
<g id="Node000020" class="node">
<title>Node20</title>
<g id="a_Node000020"><a xlink:title=" ">
<polygon fill="#e0e0e0" stroke="#999999" points="586.5,-184 533.5,-184 533.5,-165 586.5,-165 586.5,-184"/>
<text text-anchor="middle" x="560" y="-172" font-family="Helvetica,sans-Serif" font-size="10.00">iterator</text>
</a>
</g>
</g>
<!-- Node1&#45;&gt;Node20 -->
<g id="edge23_Node000001_Node000020" class="edge">
<title>Node1&#45;&gt;Node20</title>
<g id="a_edge23_Node000001_Node000020"><a xlink:title=" ">
<path fill="none" stroke="#63b8ff" d="M521.8,-219.95C529.48,-211.02 538.47,-200.55 545.8,-192.02"/>
<polygon fill="#63b8ff" stroke="#63b8ff" points="548.61,-194.13 552.47,-184.26 543.3,-189.56 548.61,-194.13"/>
</a>
</g>
</g>
<!-- Node21 -->
<g id="Node000021" class="node">
<title>Node21</title>
<g id="a_Node000021"><a xlink:title=" ">
<polygon fill="#e0e0e0" stroke="#999999" points="707,-184 605,-184 605,-165 707,-165 707,-184"/>
<text text-anchor="middle" x="656" y="-172" font-family="Helvetica,sans-Serif" font-size="10.00">realm/nodeset.inl</text>
</a>
</g>
</g>
<!-- Node1&#45;&gt;Node21 -->
<g id="edge24_Node000001_Node000021" class="edge">
<title>Node1&#45;&gt;Node21</title>
<g id="a_edge24_Node000001_Node000021"><a xlink:title=" ">
<path fill="none" stroke="#63b8ff" d="M551.13,-219.95C575.64,-209.56 605.06,-197.09 626.49,-188.01"/>
<polygon fill="#63b8ff" stroke="#63b8ff" points="627.89,-191.22 635.73,-184.09 625.16,-184.77 627.89,-191.22"/>
</a>
</g>
</g>
<!-- Node3 -->
<g id="Node000003" class="node">
<title>Node3</title>
<g id="a_Node000003"><a xlink:href="realm__defines_8h.html" target="_top" xlink:title=" ">
<polygon fill="white" stroke="#666666" points="226.5,-19 131.5,-19 131.5,0 226.5,0 226.5,-19"/>
<text text-anchor="middle" x="179" y="-7" font-family="Helvetica,sans-Serif" font-size="10.00">realm_defines.h</text>
</a>
</g>
</g>
<!-- Node2&#45;&gt;Node3 -->
<g id="edge2_Node000002_Node000003" class="edge">
<title>Node2&#45;&gt;Node3</title>
<g id="a_edge2_Node000002_Node000003"><a xlink:title=" ">
<path fill="none" stroke="#63b8ff" d="M236.91,-54.98C226.51,-47 210.74,-34.88 198.28,-25.31"/>
<polygon fill="#63b8ff" stroke="#63b8ff" points="200.35,-22.49 190.29,-19.17 196.09,-28.04 200.35,-22.49"/>
</a>
</g>
</g>
<!-- Node4 -->
<g id="Node000004" class="node">
<title>Node4</title>
<g id="a_Node000004"><a xlink:href="compiler__support_8h.html" target="_top" xlink:title=" ">
<polygon fill="white" stroke="#666666" points="387,-19 245,-19 245,0 387,0 387,-19"/>
<text text-anchor="middle" x="316" y="-7" font-family="Helvetica,sans-Serif" font-size="10.00">realm/compiler_support.h</text>
</a>
</g>
</g>
<!-- Node2&#45;&gt;Node4 -->
<g id="edge3_Node000002_Node000004" class="edge">
<title>Node2&#45;&gt;Node4</title>
<g id="a_edge3_Node000002_Node000004"><a xlink:title=" ">
<path fill="none" stroke="#63b8ff" d="M258.93,-54.98C269.08,-47.07 284.42,-35.11 296.65,-25.58"/>
<polygon fill="#63b8ff" stroke="#63b8ff" points="299.14,-28.08 304.88,-19.17 294.84,-22.56 299.14,-28.08"/>
</a>
</g>
</g>
<!-- Node5&#45;&gt;Node2 -->
<g id="edge5_Node000005_Node000002" class="edge">
<title>Node5&#45;&gt;Node2</title>
<g id="a_edge5_Node000005_Node000002"><a xlink:title=" ">
<path fill="none" stroke="#63b8ff" d="M431.78,-164.75C430.96,-151.09 427.34,-124.73 412,-110 397.19,-95.77 350,-83.86 310.01,-75.95"/>
<polygon fill="#63b8ff" stroke="#63b8ff" points="310.51,-72.48 300.03,-74.03 309.19,-79.36 310.51,-72.48"/>
</a>
</g>
</g>
<!-- Node6 -->
<g id="Node000006" class="node">
<title>Node6</title>
<g id="a_Node000006"><a xlink:href="utils_8h.html" target="_top" xlink:title=" ">
<polygon fill="white" stroke="#666666" points="551,-129 473,-129 473,-110 551,-110 551,-129"/>
<text text-anchor="middle" x="512" y="-117" font-family="Helvetica,sans-Serif" font-size="10.00">realm/utils.h</text>
</a>
</g>
</g>
<!-- Node5&#45;&gt;Node6 -->
<g id="edge6_Node000005_Node000006" class="edge">
<title>Node5&#45;&gt;Node6</title>
<g id="a_edge6_Node000005_Node000006"><a xlink:title=" ">
<path fill="none" stroke="#63b8ff" d="M444.85,-164.98C457.14,-156.84 475.91,-144.41 490.48,-134.76"/>
<polygon fill="#63b8ff" stroke="#63b8ff" points="492.51,-137.61 498.91,-129.17 488.64,-131.78 492.51,-137.61"/>
</a>
</g>
</g>
<!-- Node15 -->
<g id="Node000015" class="node">
<title>Node15</title>
<g id="a_Node000015"><a xlink:href="atomics_8h.html" target="_top" xlink:title=" ">
<polygon fill="white" stroke="#666666" points="213,-129 117,-129 117,-110 213,-110 213,-129"/>
<text text-anchor="middle" x="165" y="-117" font-family="Helvetica,sans-Serif" font-size="10.00">realm/atomics.h</text>
</a>
</g>
</g>
<!-- Node5&#45;&gt;Node15 -->
<g id="edge16_Node000005_Node000015" class="edge">
<title>Node5&#45;&gt;Node15</title>
<g id="a_edge16_Node000005_Node000015"><a xlink:title=" ">
<path fill="none" stroke="#63b8ff" d="M389.1,-164.98C342.63,-155.76 268.41,-141.03 218.24,-131.07"/>
<polygon fill="#63b8ff" stroke="#63b8ff" points="218.72,-127.6 208.23,-129.08 217.36,-134.46 218.72,-127.6"/>
</a>
</g>
</g>
<!-- Node5&#45;&gt;Node18 -->
<g id="edge20_Node000005_Node000018" class="edge">
<title>Node5&#45;&gt;Node18</title>
<g id="a_edge20_Node000005_Node000018"><a xlink:title=" ">
<path fill="none" stroke="#63b8ff" d="M458.35,-164.98C485.76,-156.13 528.89,-142.19 559.56,-132.28"/>
<polygon fill="#63b8ff" stroke="#63b8ff" points="561,-135.49 569.44,-129.08 558.85,-128.83 561,-135.49"/>
</a>
</g>
</g>
<!-- Node19 -->
<g id="Node000019" class="node">
<title>Node19</title>
<g id="a_Node000019"><a xlink:title=" ">
<polygon fill="#e0e0e0" stroke="#999999" points="403.5,-129 308.5,-129 308.5,-110 403.5,-110 403.5,-129"/>
<text text-anchor="middle" x="356" y="-117" font-family="Helvetica,sans-Serif" font-size="10.00">realm/mutex.inl</text>
</a>
</g>
</g>
<!-- Node5&#45;&gt;Node19 -->
<g id="edge21_Node000005_Node000019" class="edge">
<title>Node5&#45;&gt;Node19</title>
<g id="a_edge21_Node000005_Node000019"><a xlink:title=" ">
<path fill="none" stroke="#63b8ff" d="M419.79,-164.98C408.22,-156.92 390.62,-144.65 376.84,-135.03"/>
<polygon fill="#63b8ff" stroke="#63b8ff" points="378.64,-132.02 368.43,-129.17 374.63,-137.76 378.64,-132.02"/>
</a>
</g>
</g>
<!-- Node6&#45;&gt;Node2 -->
<g id="edge7_Node000006_Node000002" class="edge">
<title>Node6&#45;&gt;Node2</title>
<g id="a_edge7_Node000006_Node000002"><a xlink:title=" ">
<path fill="none" stroke="#63b8ff" d="M472.76,-110.62C427.07,-101.45 351.4,-86.26 300.64,-76.07"/>
<polygon fill="#63b8ff" stroke="#63b8ff" points="301.01,-72.57 290.52,-74.04 299.63,-79.44 301.01,-72.57"/>
</a>
</g>
</g>
<!-- Node7 -->
<g id="Node000007" class="node">
<title>Node7</title>
<g id="a_Node000007"><a xlink:title=" ">
<polygon fill="#e0e0e0" stroke="#999999" points="472,-74 428,-74 428,-55 472,-55 472,-74"/>
<text text-anchor="middle" x="450" y="-62" font-family="Helvetica,sans-Serif" font-size="10.00">string</text>
</a>
</g>
</g>
<!-- Node6&#45;&gt;Node7 -->
<g id="edge8_Node000006_Node000007" class="edge">
<title>Node6&#45;&gt;Node7</title>
<g id="a_edge8_Node000006_Node000007"><a xlink:title=" ">
<path fill="none" stroke="#63b8ff" d="M502.04,-109.98C492.87,-102.15 479.06,-90.34 467.97,-80.86"/>
<polygon fill="#63b8ff" stroke="#63b8ff" points="470.02,-78.01 460.14,-74.17 465.47,-83.33 470.02,-78.01"/>
</a>
</g>
</g>
<!-- Node8 -->
<g id="Node000008" class="node">
<title>Node8</title>
<g id="a_Node000008"><a xlink:title=" ">
<polygon fill="#e0e0e0" stroke="#999999" points="547.5,-74 490.5,-74 490.5,-55 547.5,-55 547.5,-74"/>
<text text-anchor="middle" x="519" y="-62" font-family="Helvetica,sans-Serif" font-size="10.00">ostream</text>
</a>
</g>
</g>
<!-- Node6&#45;&gt;Node8 -->
<g id="edge9_Node000006_Node000008" class="edge">
<title>Node6&#45;&gt;Node8</title>
<g id="a_edge9_Node000006_Node000008"><a xlink:title=" ">
<path fill="none" stroke="#63b8ff" d="M513.16,-109.75C514.07,-102.8 515.39,-92.85 516.54,-84.13"/>
<polygon fill="#63b8ff" stroke="#63b8ff" points="520.03,-84.46 517.87,-74.09 513.09,-83.54 520.03,-84.46"/>
</a>
</g>
</g>
<!-- Node9 -->
<g id="Node000009" class="node">
<title>Node9</title>
<g id="a_Node000009"><a xlink:title=" ">
<polygon fill="#e0e0e0" stroke="#999999" points="612.5,-74 565.5,-74 565.5,-55 612.5,-55 612.5,-74"/>
<text text-anchor="middle" x="589" y="-62" font-family="Helvetica,sans-Serif" font-size="10.00">vector</text>
</a>
</g>
</g>
<!-- Node6&#45;&gt;Node9 -->
<g id="edge10_Node000006_Node000009" class="edge">
<title>Node6&#45;&gt;Node9</title>
<g id="a_edge10_Node000006_Node000009"><a xlink:title=" ">
<path fill="none" stroke="#63b8ff" d="M524.37,-109.98C536.09,-101.92 553.92,-89.65 567.89,-80.03"/>
<polygon fill="#63b8ff" stroke="#63b8ff" points="570.15,-82.72 576.4,-74.17 566.18,-76.96 570.15,-82.72"/>
</a>
</g>
</g>
<!-- Node10 -->
<g id="Node000010" class="node">
<title>Node10</title>
<g id="a_Node000010"><a xlink:title=" ">
<polygon fill="#e0e0e0" stroke="#999999" points="669,-74 631,-74 631,-55 669,-55 669,-74"/>
<text text-anchor="middle" x="650" y="-62" font-family="Helvetica,sans-Serif" font-size="10.00">map</text>
</a>
</g>
</g>
<!-- Node6&#45;&gt;Node10 -->
<g id="edge11_Node000006_Node000010" class="edge">
<title>Node6&#45;&gt;Node10</title>
<g id="a_edge11_Node000006_Node000010"><a xlink:title=" ">
<path fill="none" stroke="#63b8ff" d="M534.17,-109.98C557.85,-100.89 595.45,-86.45 621.36,-76.5"/>
<polygon fill="#63b8ff" stroke="#63b8ff" points="622.91,-79.65 630.99,-72.8 620.4,-73.12 622.91,-79.65"/>
</a>
</g>
</g>
<!-- Node11 -->
<g id="Node000011" class="node">
<title>Node11</title>
<g id="a_Node000011"><a xlink:title=" ">
<polygon fill="#e0e0e0" stroke="#999999" points="739,-74 687,-74 687,-55 739,-55 739,-74"/>
<text text-anchor="middle" x="713" y="-62" font-family="Helvetica,sans-Serif" font-size="10.00">cassert</text>
</a>
</g>
</g>
<!-- Node6&#45;&gt;Node11 -->
<g id="edge12_Node000006_Node000011" class="edge">
<title>Node6&#45;&gt;Node11</title>
<g id="a_edge12_Node000006_Node000011"><a xlink:title=" ">
<path fill="none" stroke="#63b8ff" d="M544.29,-109.98C580.51,-100.44 639.09,-84.99 676.82,-75.04"/>
<polygon fill="#63b8ff" stroke="#63b8ff" points="678.09,-78.32 686.87,-72.39 676.31,-71.56 678.09,-78.32"/>
</a>
</g>
</g>
<!-- Node12 -->
<g id="Node000012" class="node">
<title>Node12</title>
<g id="a_Node000012"><a xlink:title=" ">
<polygon fill="#e0e0e0" stroke="#999999" points="807,-74 757,-74 757,-55 807,-55 807,-74"/>
<text text-anchor="middle" x="782" y="-62" font-family="Helvetica,sans-Serif" font-size="10.00">cstdint</text>
</a>
</g>
</g>
<!-- Node6&#45;&gt;Node12 -->
<g id="edge13_Node000006_Node000012" class="edge">
<title>Node6&#45;&gt;Node12</title>
<g id="a_edge13_Node000006_Node000012"><a xlink:title=" ">
<path fill="none" stroke="#63b8ff" d="M551.41,-111.36C604.64,-101.67 697.7,-84.55 746.97,-74.1"/>
<polygon fill="#63b8ff" stroke="#63b8ff" points="747.75,-77.51 756.79,-71.98 746.27,-70.67 747.75,-77.51"/>
</a>
</g>
</g>
<!-- Node13 -->
<g id="Node000013" class="node">
<title>Node13</title>
<g id="a_Node000013"><a xlink:title=" ">
<polygon fill="#e0e0e0" stroke="#999999" points="881,-74 825,-74 825,-55 881,-55 881,-74"/>
<text text-anchor="middle" x="853" y="-62" font-family="Helvetica,sans-Serif" font-size="10.00">sstream</text>
</a>
</g>
</g>
<!-- Node6&#45;&gt;Node13 -->
<g id="edge14_Node000006_Node000013" class="edge">
<title>Node6&#45;&gt;Node13</title>
<g id="a_edge14_Node000006_Node000013"><a xlink:title=" ">
<path fill="none" stroke="#63b8ff" d="M551.03,-111.62C554.4,-111.06 557.76,-110.51 561,-110 670.87,-92.72 701.72,-94.7 814.68,-74.11"/>
<polygon fill="#63b8ff" stroke="#63b8ff" points="815.57,-77.5 824.77,-72.25 814.3,-70.62 815.57,-77.5"/>
</a>
</g>
</g>
<!-- Node14 -->
<g id="Node000014" class="node">
<title>Node14</title>
<g id="a_Node000014"><a xlink:title=" ">
<polygon fill="#e0e0e0" stroke="#999999" points="410,-74 326,-74 326,-55 410,-55 410,-74"/>
<text text-anchor="middle" x="368" y="-62" font-family="Helvetica,sans-Serif" font-size="10.00">realm/utils.inl</text>
</a>
</g>
</g>
<!-- Node6&#45;&gt;Node14 -->
<g id="edge15_Node000006_Node000014" class="edge">
<title>Node6&#45;&gt;Node14</title>
<g id="a_edge15_Node000006_Node000014"><a xlink:title=" ">
<path fill="none" stroke="#63b8ff" d="M488.86,-109.98C465.18,-101.27 428.13,-87.63 401.29,-77.75"/>
<polygon fill="#63b8ff" stroke="#63b8ff" points="402.15,-74.34 391.56,-74.17 399.73,-80.91 402.15,-74.34"/>
</a>
</g>
</g>
<!-- Node15&#45;&gt;Node2 -->
<g id="edge17_Node000015_Node000002" class="edge">
<title>Node15&#45;&gt;Node2</title>
<g id="a_edge17_Node000015_Node000002"><a xlink:title=" ">
<path fill="none" stroke="#63b8ff" d="M178.34,-109.98C191.09,-101.84 210.55,-89.41 225.67,-79.76"/>
<polygon fill="#63b8ff" stroke="#63b8ff" points="227.88,-82.5 234.42,-74.17 224.11,-76.6 227.88,-82.5"/>
</a>
</g>
</g>
<!-- Node16 -->
<g id="Node000016" class="node">
<title>Node16</title>
<g id="a_Node000016"><a xlink:title=" ">
<polygon fill="#e0e0e0" stroke="#999999" points="170,-74 120,-74 120,-55 170,-55 170,-74"/>
<text text-anchor="middle" x="145" y="-62" font-family="Helvetica,sans-Serif" font-size="10.00">atomic</text>
</a>
</g>
</g>
<!-- Node15&#45;&gt;Node16 -->
<g id="edge18_Node000015_Node000016" class="edge">
<title>Node15&#45;&gt;Node16</title>
<g id="a_edge18_Node000015_Node000016"><a xlink:title=" ">
<path fill="none" stroke="#63b8ff" d="M161.7,-109.75C159.02,-102.65 155.15,-92.4 151.81,-83.56"/>
<polygon fill="#63b8ff" stroke="#63b8ff" points="155.05,-82.21 148.24,-74.09 148.5,-84.68 155.05,-82.21"/>
</a>
</g>
</g>
<!-- Node17 -->
<g id="Node000017" class="node">
<title>Node17</title>
<g id="a_Node000017"><a xlink:title=" ">
<polygon fill="#e0e0e0" stroke="#999999" points="102,-74 0,-74 0,-55 102,-55 102,-74"/>
<text text-anchor="middle" x="51" y="-62" font-family="Helvetica,sans-Serif" font-size="10.00">realm/atomics.inl</text>
</a>
</g>
</g>
<!-- Node15&#45;&gt;Node17 -->
<g id="edge19_Node000015_Node000017" class="edge">
<title>Node15&#45;&gt;Node17</title>
<g id="a_edge19_Node000015_Node000017"><a xlink:title=" ">
<path fill="none" stroke="#63b8ff" d="M146.68,-109.98C128.34,-101.46 99.89,-88.23 78.77,-78.41"/>
<polygon fill="#63b8ff" stroke="#63b8ff" points="80.19,-75.21 69.65,-74.17 77.24,-81.56 80.19,-75.21"/>
</a>
</g>
</g>
</g>
</svg>
