<?xml version="1.0" encoding="UTF-8" standalone="no"?>
<!DOCTYPE svg PUBLIC "-//W3C//DTD SVG 1.1//EN"
 "http://www.w3.org/Graphics/SVG/1.1/DTD/svg11.dtd">
<!-- Generated by graphviz version 2.43.0 (0)
 -->
<!-- Title: /home/runner/work/realm/realm/realm&#45;src/src/realm/openmp/openmp_threadpool.h Pages: 1 -->
<svg width="1556pt" height="390pt"
 viewBox="0.00 0.00 1555.63 390.00" xmlns="http://www.w3.org/2000/svg" xmlns:xlink="http://www.w3.org/1999/xlink">
<g id="graph0" class="graph" transform="scale(1 1) rotate(0) translate(4 386)">
<title>/home/runner/work/realm/realm/realm&#45;src/src/realm/openmp/openmp_threadpool.h</title>
<!-- Node1 -->
<g id="Node000001" class="node">
<title>Node1</title>
<g id="a_Node000001"><a xlink:title=" ">
<polygon fill="#999999" stroke="#666666" points="735.13,-382 566.13,-382 566.13,-341 735.13,-341 735.13,-382"/>
<text text-anchor="start" x="574.13" y="-370" font-family="Helvetica,sans-Serif" font-size="10.00">/home/runner/work/realm</text>
<text text-anchor="start" x="574.13" y="-359" font-family="Helvetica,sans-Serif" font-size="10.00">/realm/realm&#45;src/src/realm</text>
<text text-anchor="middle" x="650.63" y="-348" font-family="Helvetica,sans-Serif" font-size="10.00">/openmp/openmp_threadpool.h</text>
</a>
</g>
</g>
<!-- Node2 -->
<g id="Node000002" class="node">
<title>Node2</title>
<g id="a_Node000002"><a xlink:href="processor_8h.html" target="_top" xlink:title=" ">
<polygon fill="white" stroke="#666666" points="662.63,-299.5 558.63,-299.5 558.63,-280.5 662.63,-280.5 662.63,-299.5"/>
<text text-anchor="middle" x="610.63" y="-287.5" font-family="Helvetica,sans-Serif" font-size="10.00">realm/processor.h</text>
</a>
</g>
</g>
<!-- Node1&#45;&gt;Node2 -->
<g id="edge1_Node000001_Node000002" class="edge">
<title>Node1&#45;&gt;Node2</title>
<g id="a_edge1_Node000001_Node000002"><a xlink:title=" ">
<path fill="none" stroke="#63b8ff" d="M639.28,-340.77C633.46,-330.66 626.43,-318.44 620.79,-308.64"/>
<polygon fill="#63b8ff" stroke="#63b8ff" points="623.73,-306.74 615.71,-299.82 617.66,-310.23 623.73,-306.74"/>
</a>
</g>
</g>
<!-- Node25 -->
<g id="Node000025" class="node">
<title>Node25</title>
<g id="a_Node000025"><a xlink:href="threads_8h.html" target="_top" xlink:title=" ">
<polygon fill="white" stroke="#666666" points="1103.63,-239 1009.63,-239 1009.63,-220 1103.63,-220 1103.63,-239"/>
<text text-anchor="middle" x="1056.63" y="-227" font-family="Helvetica,sans-Serif" font-size="10.00">realm/threads.h</text>
</a>
</g>
</g>
<!-- Node1&#45;&gt;Node25 -->
<g id="edge32_Node000001_Node000025" class="edge">
<title>Node1&#45;&gt;Node25</title>
<g id="a_edge32_Node000001_Node000025"><a xlink:title=" ">
<path fill="none" stroke="#63b8ff" d="M658.39,-340.89C667.46,-320.75 684.51,-290.26 709.63,-275 764.38,-241.74 932.13,-247.42 995.63,-239 996.88,-238.83 998.15,-238.67 999.43,-238.49"/>
<polygon fill="#63b8ff" stroke="#63b8ff" points="999.91,-241.96 1009.35,-237.15 998.97,-235.02 999.91,-241.96"/>
</a>
</g>
</g>
<!-- Node36 -->
<g id="Node000036" class="node">
<title>Node36</title>
<g id="a_Node000036"><a xlink:href="logging_8h.html" target="_top" xlink:title=" ">
<polygon fill="white" stroke="#666666" points="263.13,-184 170.13,-184 170.13,-165 263.13,-165 263.13,-184"/>
<text text-anchor="middle" x="216.63" y="-172" font-family="Helvetica,sans-Serif" font-size="10.00">realm/logging.h</text>
</a>
</g>
</g>
<!-- Node1&#45;&gt;Node36 -->
<g id="edge60_Node000001_Node000036" class="edge">
<title>Node1&#45;&gt;Node36</title>
<g id="a_edge60_Node000001_Node000036"><a xlink:title=" ">
<path fill="none" stroke="#63b8ff" d="M565.93,-345.29C486.84,-328.33 367.78,-295.54 277.63,-239 257.9,-226.62 240.05,-206.48 228.83,-192.21"/>
<polygon fill="#63b8ff" stroke="#63b8ff" points="231.58,-190.04 222.74,-184.2 226,-194.28 231.58,-190.04"/>
</a>
</g>
</g>
<!-- Node39 -->
<g id="Node000039" class="node">
<title>Node39</title>
<g id="a_Node000039"><a xlink:title=" ">
<polygon fill="#e0e0e0" stroke="#999999" points="850.13,-305 719.13,-305 719.13,-275 850.13,-275 850.13,-305"/>
<text text-anchor="start" x="727.13" y="-293" font-family="Helvetica,sans-Serif" font-size="10.00">realm/openmp/openmp</text>
<text text-anchor="middle" x="784.63" y="-282" font-family="Helvetica,sans-Serif" font-size="10.00">_threadpool.inl</text>
</a>
</g>
</g>
<!-- Node1&#45;&gt;Node39 -->
<g id="edge68_Node000001_Node000039" class="edge">
<title>Node1&#45;&gt;Node39</title>
<g id="a_edge68_Node000001_Node000039"><a xlink:title=" ">
<path fill="none" stroke="#63b8ff" d="M688.32,-340.96C707.12,-331.2 729.77,-319.46 748.38,-309.81"/>
<polygon fill="#63b8ff" stroke="#63b8ff" points="750.16,-312.82 757.42,-305.11 746.93,-306.61 750.16,-312.82"/>
</a>
</g>
</g>
<!-- Node3 -->
<g id="Node000003" class="node">
<title>Node3</title>
<g id="a_Node000003"><a xlink:href="realm__c_8h.html" target="_top" xlink:title=" ">
<polygon fill="white" stroke="#666666" points="1143.63,-129 1047.63,-129 1047.63,-110 1143.63,-110 1143.63,-129"/>
<text text-anchor="middle" x="1095.63" y="-117" font-family="Helvetica,sans-Serif" font-size="10.00">realm/realm_c.h</text>
</a>
</g>
</g>
<!-- Node2&#45;&gt;Node3 -->
<g id="edge2_Node000002_Node000003" class="edge">
<title>Node2&#45;&gt;Node3</title>
<g id="a_edge2_Node000002_Node000003"><a xlink:title=" ">
<path fill="none" stroke="#63b8ff" d="M645.96,-280.46C709.72,-264.59 847.8,-228.11 959.63,-184 998.71,-168.59 1042.5,-147.41 1069.57,-133.83"/>
<polygon fill="#63b8ff" stroke="#63b8ff" points="1071.4,-136.83 1078.75,-129.2 1068.25,-130.58 1071.4,-136.83"/>
</a>
</g>
</g>
<!-- Node9 -->
<g id="Node000009" class="node">
<title>Node9</title>
<g id="a_Node000009"><a xlink:href="event_8h.html" target="_top" xlink:title=" ">
<polygon fill="white" stroke="#666666" points="653.13,-239 568.13,-239 568.13,-220 653.13,-220 653.13,-239"/>
<text text-anchor="middle" x="610.63" y="-227" font-family="Helvetica,sans-Serif" font-size="10.00">realm/event.h</text>
</a>
</g>
</g>
<!-- Node2&#45;&gt;Node9 -->
<g id="edge8_Node000002_Node000009" class="edge">
<title>Node2&#45;&gt;Node9</title>
<g id="a_edge8_Node000002_Node000009"><a xlink:title=" ">
<path fill="none" stroke="#63b8ff" d="M610.63,-280.37C610.63,-272.25 610.63,-259.81 610.63,-249.39"/>
<polygon fill="#63b8ff" stroke="#63b8ff" points="614.13,-249.17 610.63,-239.17 607.13,-249.17 614.13,-249.17"/>
</a>
</g>
</g>
<!-- Node13 -->
<g id="Node000013" class="node">
<title>Node13</title>
<g id="a_Node000013"><a xlink:title=" ">
<polygon fill="#e0e0e0" stroke="#999999" points="309.13,-74 262.13,-74 262.13,-55 309.13,-55 309.13,-74"/>
<text text-anchor="middle" x="285.63" y="-62" font-family="Helvetica,sans-Serif" font-size="10.00">vector</text>
</a>
</g>
</g>
<!-- Node2&#45;&gt;Node13 -->
<g id="edge29_Node000002_Node000013" class="edge">
<title>Node2&#45;&gt;Node13</title>
<g id="a_edge29_Node000002_Node000013"><a xlink:title=" ">
<path fill="none" stroke="#63b8ff" d="M558.21,-287.81C510.15,-284.41 438.89,-273.34 387.63,-239 331.07,-201.1 301.52,-120.39 290.63,-83.99"/>
<polygon fill="#63b8ff" stroke="#63b8ff" points="293.95,-82.86 287.84,-74.21 287.22,-84.78 293.95,-82.86"/>
</a>
</g>
</g>
<!-- Node14 -->
<g id="Node000014" class="node">
<title>Node14</title>
<g id="a_Node000014"><a xlink:title=" ">
<polygon fill="#e0e0e0" stroke="#999999" points="680.63,-74 642.63,-74 642.63,-55 680.63,-55 680.63,-74"/>
<text text-anchor="middle" x="661.63" y="-62" font-family="Helvetica,sans-Serif" font-size="10.00">map</text>
</a>
</g>
</g>
<!-- Node2&#45;&gt;Node14 -->
<g id="edge30_Node000002_Node000014" class="edge">
<title>Node2&#45;&gt;Node14</title>
<g id="a_edge30_Node000002_Node000014"><a xlink:title=" ">
<path fill="none" stroke="#63b8ff" d="M558.57,-281.38C478.54,-267.38 339.21,-232.59 386.63,-165 388.5,-162.34 562.77,-100.47 632.89,-75.66"/>
<polygon fill="#63b8ff" stroke="#63b8ff" points="634.19,-78.91 642.45,-72.28 631.85,-72.31 634.19,-78.91"/>
</a>
</g>
</g>
<!-- Node24 -->
<g id="Node000024" class="node">
<title>Node24</title>
<g id="a_Node000024"><a xlink:title=" ">
<polygon fill="#e0e0e0" stroke="#999999" points="781.63,-239 671.63,-239 671.63,-220 781.63,-220 781.63,-239"/>
<text text-anchor="middle" x="726.63" y="-227" font-family="Helvetica,sans-Serif" font-size="10.00">realm/processor.inl</text>
</a>
</g>
</g>
<!-- Node2&#45;&gt;Node24 -->
<g id="edge31_Node000002_Node000024" class="edge">
<title>Node2&#45;&gt;Node24</title>
<g id="a_edge31_Node000002_Node000024"><a xlink:title=" ">
<path fill="none" stroke="#63b8ff" d="M627.75,-280.37C646.85,-270.73 678,-255.03 700.23,-243.81"/>
<polygon fill="#63b8ff" stroke="#63b8ff" points="702.09,-246.8 709.45,-239.17 698.94,-240.55 702.09,-246.8"/>
</a>
</g>
</g>
<!-- Node4 -->
<g id="Node000004" class="node">
<title>Node4</title>
<g id="a_Node000004"><a xlink:href="realm__config_8h.html" target="_top" xlink:title=" ">
<polygon fill="white" stroke="#666666" points="1155.63,-74 1035.63,-74 1035.63,-55 1155.63,-55 1155.63,-74"/>
<text text-anchor="middle" x="1095.63" y="-62" font-family="Helvetica,sans-Serif" font-size="10.00">realm/realm_config.h</text>
</a>
</g>
</g>
<!-- Node3&#45;&gt;Node4 -->
<g id="edge3_Node000003_Node000004" class="edge">
<title>Node3&#45;&gt;Node4</title>
<g id="a_edge3_Node000003_Node000004"><a xlink:title=" ">
<path fill="none" stroke="#63b8ff" d="M1095.63,-109.75C1095.63,-102.8 1095.63,-92.85 1095.63,-84.13"/>
<polygon fill="#63b8ff" stroke="#63b8ff" points="1099.13,-84.09 1095.63,-74.09 1092.13,-84.09 1099.13,-84.09"/>
</a>
</g>
</g>
<!-- Node7 -->
<g id="Node000007" class="node">
<title>Node7</title>
<g id="a_Node000007"><a xlink:title=" ">
<polygon fill="#e0e0e0" stroke="#999999" points="1013.63,-74 957.63,-74 957.63,-55 1013.63,-55 1013.63,-74"/>
<text text-anchor="middle" x="985.63" y="-62" font-family="Helvetica,sans-Serif" font-size="10.00">stddef.h</text>
</a>
</g>
</g>
<!-- Node3&#45;&gt;Node7 -->
<g id="edge6_Node000003_Node000007" class="edge">
<title>Node3&#45;&gt;Node7</title>
<g id="a_edge6_Node000003_Node000007"><a xlink:title=" ">
<path fill="none" stroke="#63b8ff" d="M1077.96,-109.98C1060.34,-101.5 1033.05,-88.35 1012.71,-78.54"/>
<polygon fill="#63b8ff" stroke="#63b8ff" points="1014.16,-75.36 1003.63,-74.17 1011.12,-81.66 1014.16,-75.36"/>
</a>
</g>
</g>
<!-- Node8 -->
<g id="Node000008" class="node">
<title>Node8</title>
<g id="a_Node000008"><a xlink:title=" ">
<polygon fill="#e0e0e0" stroke="#999999" points="1317.13,-74 1264.13,-74 1264.13,-55 1317.13,-55 1317.13,-74"/>
<text text-anchor="middle" x="1290.63" y="-62" font-family="Helvetica,sans-Serif" font-size="10.00">stdint.h</text>
</a>
</g>
</g>
<!-- Node3&#45;&gt;Node8 -->
<g id="edge7_Node000003_Node000008" class="edge">
<title>Node3&#45;&gt;Node8</title>
<g id="a_edge7_Node000003_Node000008"><a xlink:title=" ">
<path fill="none" stroke="#63b8ff" d="M1126.96,-109.98C1161.7,-100.54 1217.66,-85.33 1254.29,-75.38"/>
<polygon fill="#63b8ff" stroke="#63b8ff" points="1255.35,-78.72 1264.08,-72.72 1253.51,-71.96 1255.35,-78.72"/>
</a>
</g>
</g>
<!-- Node5 -->
<g id="Node000005" class="node">
<title>Node5</title>
<g id="a_Node000005"><a xlink:href="realm__defines_8h.html" target="_top" xlink:title=" ">
<polygon fill="white" stroke="#666666" points="1074.13,-19 979.13,-19 979.13,0 1074.13,0 1074.13,-19"/>
<text text-anchor="middle" x="1026.63" y="-7" font-family="Helvetica,sans-Serif" font-size="10.00">realm_defines.h</text>
</a>
</g>
</g>
<!-- Node4&#45;&gt;Node5 -->
<g id="edge4_Node000004_Node000005" class="edge">
<title>Node4&#45;&gt;Node5</title>
<g id="a_edge4_Node000004_Node000005"><a xlink:title=" ">
<path fill="none" stroke="#63b8ff" d="M1084.55,-54.98C1074.15,-47 1058.37,-34.88 1045.91,-25.31"/>
<polygon fill="#63b8ff" stroke="#63b8ff" points="1047.98,-22.49 1037.92,-19.17 1043.72,-28.04 1047.98,-22.49"/>
</a>
</g>
</g>
<!-- Node6 -->
<g id="Node000006" class="node">
<title>Node6</title>
<g id="a_Node000006"><a xlink:href="compiler__support_8h.html" target="_top" xlink:title=" ">
<polygon fill="white" stroke="#666666" points="1234.63,-19 1092.63,-19 1092.63,0 1234.63,0 1234.63,-19"/>
<text text-anchor="middle" x="1163.63" y="-7" font-family="Helvetica,sans-Serif" font-size="10.00">realm/compiler_support.h</text>
</a>
</g>
</g>
<!-- Node4&#45;&gt;Node6 -->
<g id="edge5_Node000004_Node000006" class="edge">
<title>Node4&#45;&gt;Node6</title>
<g id="a_edge5_Node000004_Node000006"><a xlink:title=" ">
<path fill="none" stroke="#63b8ff" d="M1106.56,-54.98C1116.71,-47.07 1132.05,-35.11 1144.28,-25.58"/>
<polygon fill="#63b8ff" stroke="#63b8ff" points="1146.77,-28.08 1152.51,-19.17 1142.47,-22.56 1146.77,-28.08"/>
</a>
</g>
</g>
<!-- Node9&#45;&gt;Node3 -->
<g id="edge9_Node000009_Node000003" class="edge">
<title>Node9&#45;&gt;Node3</title>
<g id="a_edge9_Node000009_Node000003"><a xlink:title=" ">
<path fill="none" stroke="#63b8ff" d="M653.19,-221.46C656.38,-220.95 659.56,-220.46 662.63,-220 778.42,-202.55 810.85,-215.5 923.63,-184 944.15,-178.27 947.78,-172.72 967.63,-165 998.21,-153.1 1033.47,-140.96 1059.23,-132.37"/>
<polygon fill="#63b8ff" stroke="#63b8ff" points="1060.56,-135.61 1068.95,-129.14 1058.36,-128.97 1060.56,-135.61"/>
</a>
</g>
</g>
<!-- Node10 -->
<g id="Node000010" class="node">
<title>Node10</title>
<g id="a_Node000010"><a xlink:href="utils_8h.html" target="_top" xlink:title=" ">
<polygon fill="white" stroke="#666666" points="473.63,-129 395.63,-129 395.63,-110 473.63,-110 473.63,-129"/>
<text text-anchor="middle" x="434.63" y="-117" font-family="Helvetica,sans-Serif" font-size="10.00">realm/utils.h</text>
</a>
</g>
</g>
<!-- Node9&#45;&gt;Node10 -->
<g id="edge10_Node000009_Node000010" class="edge">
<title>Node9&#45;&gt;Node10</title>
<g id="a_edge10_Node000009_Node000010"><a xlink:title=" ">
<path fill="none" stroke="#63b8ff" d="M596.53,-219.84C566.15,-201.2 494.3,-157.11 457.39,-134.46"/>
<polygon fill="#63b8ff" stroke="#63b8ff" points="459.16,-131.44 448.8,-129.2 455.5,-137.41 459.16,-131.44"/>
</a>
</g>
</g>
<!-- Node9&#45;&gt;Node13 -->
<g id="edge25_Node000009_Node000013" class="edge">
<title>Node9&#45;&gt;Node13</title>
<g id="a_edge25_Node000009_Node000013"><a xlink:title=" ">
<path fill="none" stroke="#63b8ff" d="M568.09,-228.22C520.73,-226.13 443.4,-217.3 386.63,-184 344.04,-159.02 310.81,-109.35 295.26,-82.95"/>
<polygon fill="#63b8ff" stroke="#63b8ff" points="298.19,-81.02 290.19,-74.07 292.11,-84.49 298.19,-81.02"/>
</a>
</g>
</g>
<!-- Node19 -->
<g id="Node000019" class="node">
<title>Node19</title>
<g id="a_Node000019"><a xlink:href="memory_8h.html" target="_top" xlink:title=" ">
<polygon fill="white" stroke="#666666" points="915.13,-184 818.13,-184 818.13,-165 915.13,-165 915.13,-184"/>
<text text-anchor="middle" x="866.63" y="-172" font-family="Helvetica,sans-Serif" font-size="10.00">realm/memory.h</text>
</a>
</g>
</g>
<!-- Node9&#45;&gt;Node19 -->
<g id="edge20_Node000009_Node000019" class="edge">
<title>Node9&#45;&gt;Node19</title>
<g id="a_edge20_Node000009_Node000019"><a xlink:title=" ">
<path fill="none" stroke="#63b8ff" d="M651.76,-219.98C696.23,-210.78 767.18,-196.09 815.28,-186.13"/>
<polygon fill="#63b8ff" stroke="#63b8ff" points="816.1,-189.54 825.18,-184.08 814.68,-182.68 816.1,-189.54"/>
</a>
</g>
</g>
<!-- Node20 -->
<g id="Node000020" class="node">
<title>Node20</title>
<g id="a_Node000020"><a xlink:title=" ">
<polygon fill="#e0e0e0" stroke="#999999" points="869.63,-129 809.63,-129 809.63,-110 869.63,-110 869.63,-129"/>
<text text-anchor="middle" x="839.63" y="-117" font-family="Helvetica,sans-Serif" font-size="10.00">iostream</text>
</a>
</g>
</g>
<!-- Node9&#45;&gt;Node20 -->
<g id="edge27_Node000009_Node000020" class="edge">
<title>Node9&#45;&gt;Node20</title>
<g id="a_edge27_Node000009_Node000020"><a xlink:title=" ">
<path fill="none" stroke="#63b8ff" d="M628.99,-219.84C669.12,-200.92 764.85,-155.77 812.18,-133.45"/>
<polygon fill="#63b8ff" stroke="#63b8ff" points="813.96,-136.48 821.51,-129.05 810.97,-130.15 813.96,-136.48"/>
</a>
</g>
</g>
<!-- Node22 -->
<g id="Node000022" class="node">
<title>Node22</title>
<g id="a_Node000022"><a xlink:title=" ">
<polygon fill="#e0e0e0" stroke="#999999" points="730.63,-74 698.63,-74 698.63,-55 730.63,-55 730.63,-74"/>
<text text-anchor="middle" x="714.63" y="-62" font-family="Helvetica,sans-Serif" font-size="10.00">set</text>
</a>
</g>
</g>
<!-- Node9&#45;&gt;Node22 -->
<g id="edge26_Node000009_Node000022" class="edge">
<title>Node9&#45;&gt;Node22</title>
<g id="a_edge26_Node000009_Node000022"><a xlink:title=" ">
<path fill="none" stroke="#63b8ff" d="M605.88,-219.81C595.13,-198.83 571.64,-144.59 595.63,-110 598.42,-105.98 654.63,-86.11 688.79,-74.33"/>
<polygon fill="#63b8ff" stroke="#63b8ff" points="690.27,-77.52 698.59,-70.96 688,-70.9 690.27,-77.52"/>
</a>
</g>
</g>
<!-- Node23 -->
<g id="Node000023" class="node">
<title>Node23</title>
<g id="a_Node000023"><a xlink:title=" ">
<polygon fill="#e0e0e0" stroke="#999999" points="487.13,-184 396.13,-184 396.13,-165 487.13,-165 487.13,-184"/>
<text text-anchor="middle" x="441.63" y="-172" font-family="Helvetica,sans-Serif" font-size="10.00">realm/event.inl</text>
</a>
</g>
</g>
<!-- Node9&#45;&gt;Node23 -->
<g id="edge28_Node000009_Node000023" class="edge">
<title>Node9&#45;&gt;Node23</title>
<g id="a_edge28_Node000009_Node000023"><a xlink:title=" ">
<path fill="none" stroke="#63b8ff" d="M583.48,-219.98C555.11,-211.09 510.4,-197.07 478.77,-187.15"/>
<polygon fill="#63b8ff" stroke="#63b8ff" points="479.59,-183.73 469,-184.08 477.49,-190.41 479.59,-183.73"/>
</a>
</g>
</g>
<!-- Node10&#45;&gt;Node4 -->
<g id="edge11_Node000010_Node000004" class="edge">
<title>Node10&#45;&gt;Node4</title>
<g id="a_edge11_Node000010_Node000004"><a xlink:title=" ">
<path fill="none" stroke="#63b8ff" d="M473.9,-116.08C568.47,-110.13 816.27,-93.81 1022.63,-74 1023.55,-73.91 1024.47,-73.82 1025.4,-73.73"/>
<polygon fill="#63b8ff" stroke="#63b8ff" points="1025.91,-77.2 1035.5,-72.7 1025.2,-70.23 1025.91,-77.2"/>
</a>
</g>
</g>
<!-- Node11 -->
<g id="Node000011" class="node">
<title>Node11</title>
<g id="a_Node000011"><a xlink:title=" ">
<polygon fill="#e0e0e0" stroke="#999999" points="243.63,-74 199.63,-74 199.63,-55 243.63,-55 243.63,-74"/>
<text text-anchor="middle" x="221.63" y="-62" font-family="Helvetica,sans-Serif" font-size="10.00">string</text>
</a>
</g>
</g>
<!-- Node10&#45;&gt;Node11 -->
<g id="edge12_Node000010_Node000011" class="edge">
<title>Node10&#45;&gt;Node11</title>
<g id="a_edge12_Node000010_Node000011"><a xlink:title=" ">
<path fill="none" stroke="#63b8ff" d="M398.3,-109.93C363.59,-101.68 309.57,-88.64 253.99,-74.3"/>
<polygon fill="#63b8ff" stroke="#63b8ff" points="254.52,-70.82 243.96,-71.7 252.77,-77.6 254.52,-70.82"/>
</a>
</g>
</g>
<!-- Node12 -->
<g id="Node000012" class="node">
<title>Node12</title>
<g id="a_Node000012"><a xlink:title=" ">
<polygon fill="#e0e0e0" stroke="#999999" points="384.13,-74 327.13,-74 327.13,-55 384.13,-55 384.13,-74"/>
<text text-anchor="middle" x="355.63" y="-62" font-family="Helvetica,sans-Serif" font-size="10.00">ostream</text>
</a>
</g>
</g>
<!-- Node10&#45;&gt;Node12 -->
<g id="edge13_Node000010_Node000012" class="edge">
<title>Node10&#45;&gt;Node12</title>
<g id="a_edge13_Node000010_Node000012"><a xlink:title=" ">
<path fill="none" stroke="#63b8ff" d="M421.94,-109.98C409.8,-101.84 391.27,-89.41 376.89,-79.76"/>
<polygon fill="#63b8ff" stroke="#63b8ff" points="378.81,-76.84 368.56,-74.17 374.91,-82.65 378.81,-76.84"/>
</a>
</g>
</g>
<!-- Node10&#45;&gt;Node13 -->
<g id="edge14_Node000010_Node000013" class="edge">
<title>Node10&#45;&gt;Node13</title>
<g id="a_edge14_Node000010_Node000013"><a xlink:title=" ">
<path fill="none" stroke="#63b8ff" d="M410.69,-109.98C385.93,-101.18 347.05,-87.35 319.22,-77.45"/>
<polygon fill="#63b8ff" stroke="#63b8ff" points="320.11,-74.05 309.51,-73.99 317.76,-80.64 320.11,-74.05"/>
</a>
</g>
</g>
<!-- Node10&#45;&gt;Node14 -->
<g id="edge15_Node000010_Node000014" class="edge">
<title>Node10&#45;&gt;Node14</title>
<g id="a_edge15_Node000010_Node000014"><a xlink:title=" ">
<path fill="none" stroke="#63b8ff" d="M473.73,-110.66C511.97,-102.79 572.02,-89.9 632.67,-74.1"/>
<polygon fill="#63b8ff" stroke="#63b8ff" points="633.63,-77.47 642.41,-71.54 631.85,-70.7 633.63,-77.47"/>
</a>
</g>
</g>
<!-- Node15 -->
<g id="Node000015" class="node">
<title>Node15</title>
<g id="a_Node000015"><a xlink:title=" ">
<polygon fill="#e0e0e0" stroke="#999999" points="454.63,-74 402.63,-74 402.63,-55 454.63,-55 454.63,-74"/>
<text text-anchor="middle" x="428.63" y="-62" font-family="Helvetica,sans-Serif" font-size="10.00">cassert</text>
</a>
</g>
</g>
<!-- Node10&#45;&gt;Node15 -->
<g id="edge16_Node000010_Node000015" class="edge">
<title>Node10&#45;&gt;Node15</title>
<g id="a_edge16_Node000010_Node000015"><a xlink:title=" ">
<path fill="none" stroke="#63b8ff" d="M433.64,-109.75C432.86,-102.8 431.73,-92.85 430.74,-84.13"/>
<polygon fill="#63b8ff" stroke="#63b8ff" points="434.21,-83.63 429.6,-74.09 427.25,-84.42 434.21,-83.63"/>
</a>
</g>
</g>
<!-- Node16 -->
<g id="Node000016" class="node">
<title>Node16</title>
<g id="a_Node000016"><a xlink:title=" ">
<polygon fill="#e0e0e0" stroke="#999999" points="522.63,-74 472.63,-74 472.63,-55 522.63,-55 522.63,-74"/>
<text text-anchor="middle" x="497.63" y="-62" font-family="Helvetica,sans-Serif" font-size="10.00">cstdint</text>
</a>
</g>
</g>
<!-- Node10&#45;&gt;Node16 -->
<g id="edge17_Node000010_Node000016" class="edge">
<title>Node10&#45;&gt;Node16</title>
<g id="a_edge17_Node000010_Node000016"><a xlink:title=" ">
<path fill="none" stroke="#63b8ff" d="M444.75,-109.98C454.07,-102.15 468.1,-90.34 479.37,-80.86"/>
<polygon fill="#63b8ff" stroke="#63b8ff" points="481.93,-83.29 487.33,-74.17 477.42,-77.93 481.93,-83.29"/>
</a>
</g>
</g>
<!-- Node17 -->
<g id="Node000017" class="node">
<title>Node17</title>
<g id="a_Node000017"><a xlink:title=" ">
<polygon fill="#e0e0e0" stroke="#999999" points="94.63,-74 38.63,-74 38.63,-55 94.63,-55 94.63,-74"/>
<text text-anchor="middle" x="66.63" y="-62" font-family="Helvetica,sans-Serif" font-size="10.00">sstream</text>
</a>
</g>
</g>
<!-- Node10&#45;&gt;Node17 -->
<g id="edge18_Node000010_Node000017" class="edge">
<title>Node10&#45;&gt;Node17</title>
<g id="a_edge18_Node000010_Node000017"><a xlink:title=" ">
<path fill="none" stroke="#63b8ff" d="M395.6,-112.88C324.69,-102.67 175.57,-81.19 105.09,-71.04"/>
<polygon fill="#63b8ff" stroke="#63b8ff" points="105.27,-67.53 94.88,-69.57 104.28,-74.46 105.27,-67.53"/>
</a>
</g>
</g>
<!-- Node18 -->
<g id="Node000018" class="node">
<title>Node18</title>
<g id="a_Node000018"><a xlink:title=" ">
<polygon fill="#e0e0e0" stroke="#999999" points="624.63,-74 540.63,-74 540.63,-55 624.63,-55 624.63,-74"/>
<text text-anchor="middle" x="582.63" y="-62" font-family="Helvetica,sans-Serif" font-size="10.00">realm/utils.inl</text>
</a>
</g>
</g>
<!-- Node10&#45;&gt;Node18 -->
<g id="edge19_Node000010_Node000018" class="edge">
<title>Node10&#45;&gt;Node18</title>
<g id="a_edge19_Node000010_Node000018"><a xlink:title=" ">
<path fill="none" stroke="#63b8ff" d="M458.41,-109.98C482.86,-101.23 521.17,-87.51 548.78,-77.62"/>
<polygon fill="#63b8ff" stroke="#63b8ff" points="550.19,-80.84 558.42,-74.17 547.83,-74.25 550.19,-80.84"/>
</a>
</g>
</g>
<!-- Node19&#45;&gt;Node3 -->
<g id="edge21_Node000019_Node000003" class="edge">
<title>Node19&#45;&gt;Node3</title>
<g id="a_edge21_Node000019_Node000003"><a xlink:title=" ">
<path fill="none" stroke="#63b8ff" d="M903.43,-164.98C942.87,-155.86 1005.61,-141.33 1048.61,-131.38"/>
<polygon fill="#63b8ff" stroke="#63b8ff" points="1049.6,-134.75 1058.55,-129.08 1048.02,-127.93 1049.6,-134.75"/>
</a>
</g>
</g>
<!-- Node19&#45;&gt;Node7 -->
<g id="edge22_Node000019_Node000007" class="edge">
<title>Node19&#45;&gt;Node7</title>
<g id="a_edge22_Node000019_Node000007"><a xlink:title=" ">
<path fill="none" stroke="#63b8ff" d="M899.95,-164.86C920.17,-158.09 945.17,-146.77 961.63,-129 973.13,-116.58 979.28,-98.11 982.47,-84.29"/>
<polygon fill="#63b8ff" stroke="#63b8ff" points="985.91,-84.9 984.43,-74.41 979.05,-83.53 985.91,-84.9"/>
</a>
</g>
</g>
<!-- Node19&#45;&gt;Node20 -->
<g id="edge23_Node000019_Node000020" class="edge">
<title>Node19&#45;&gt;Node20</title>
<g id="a_edge23_Node000019_Node000020"><a xlink:title=" ">
<path fill="none" stroke="#63b8ff" d="M862.17,-164.75C858.52,-157.57 853.22,-147.18 848.68,-138.27"/>
<polygon fill="#63b8ff" stroke="#63b8ff" points="851.67,-136.41 844.01,-129.09 845.43,-139.59 851.67,-136.41"/>
</a>
</g>
</g>
<!-- Node21 -->
<g id="Node000021" class="node">
<title>Node21</title>
<g id="a_Node000021"><a xlink:title=" ">
<polygon fill="#e0e0e0" stroke="#999999" points="953.13,-129 888.13,-129 888.13,-110 953.13,-110 953.13,-129"/>
<text text-anchor="middle" x="920.63" y="-117" font-family="Helvetica,sans-Serif" font-size="10.00">functional</text>
</a>
</g>
</g>
<!-- Node19&#45;&gt;Node21 -->
<g id="edge24_Node000019_Node000021" class="edge">
<title>Node19&#45;&gt;Node21</title>
<g id="a_edge24_Node000019_Node000021"><a xlink:title=" ">
<path fill="none" stroke="#63b8ff" d="M875.55,-164.75C883.41,-157.03 895.06,-145.6 904.55,-136.28"/>
<polygon fill="#63b8ff" stroke="#63b8ff" points="907.2,-138.59 911.88,-129.09 902.29,-133.6 907.2,-138.59"/>
</a>
</g>
</g>
<!-- Node25&#45;&gt;Node4 -->
<g id="edge33_Node000025_Node000004" class="edge">
<title>Node25&#45;&gt;Node4</title>
<g id="a_edge33_Node000025_Node000004"><a xlink:title=" ">
<path fill="none" stroke="#63b8ff" d="M1103.94,-226.12C1197.31,-220.94 1398.1,-207.21 1418.63,-184 1457.9,-139.61 1427.64,-146.32 1341.63,-110 1285.34,-86.23 1216.55,-75.14 1166.05,-69.98"/>
<polygon fill="#63b8ff" stroke="#63b8ff" points="1166.17,-66.48 1155.88,-69 1165.49,-73.44 1166.17,-66.48"/>
</a>
</g>
</g>
<!-- Node25&#45;&gt;Node7 -->
<g id="edge52_Node000025_Node000007" class="edge">
<title>Node25&#45;&gt;Node7</title>
<g id="a_edge52_Node000025_Node000007"><a xlink:title=" ">
<path fill="none" stroke="#63b8ff" d="M1057.22,-219.63C1058.53,-206.26 1062.81,-180.86 1076.63,-165 1104.02,-133.56 1178.04,-143.06 1152.63,-110 1148.62,-104.78 1071.61,-85.8 1023.58,-74.38"/>
<polygon fill="#63b8ff" stroke="#63b8ff" points="1024.35,-70.97 1013.81,-72.07 1022.74,-77.78 1024.35,-70.97"/>
</a>
</g>
</g>
<!-- Node25&#45;&gt;Node10 -->
<g id="edge44_Node000025_Node000010" class="edge">
<title>Node25&#45;&gt;Node10</title>
<g id="a_edge44_Node000025_Node000010"><a xlink:title=" ">
<path fill="none" stroke="#63b8ff" d="M1009.38,-227.39C928.03,-224.67 756.66,-215.39 615.63,-184 560.46,-171.72 498.87,-147.81 463.64,-133.09"/>
<polygon fill="#63b8ff" stroke="#63b8ff" points="464.58,-129.68 454.01,-129.02 461.85,-136.13 464.58,-129.68"/>
</a>
</g>
</g>
<!-- Node25&#45;&gt;Node11 -->
<g id="edge53_Node000025_Node000011" class="edge">
<title>Node25&#45;&gt;Node11</title>
<g id="a_edge53_Node000025_Node000011"><a xlink:title=" ">
<path fill="none" stroke="#63b8ff" d="M1009.58,-228.6C918.86,-227.87 713.96,-221.74 546.63,-184 523.04,-178.68 518.45,-173.02 495.63,-165 447.5,-148.09 434.68,-146.17 386.63,-129 339.48,-112.15 285.43,-90.99 252.41,-77.86"/>
<polygon fill="#63b8ff" stroke="#63b8ff" points="253.45,-74.51 242.87,-74.05 250.86,-81.01 253.45,-74.51"/>
</a>
</g>
</g>
<!-- Node25&#45;&gt;Node14 -->
<g id="edge56_Node000025_Node000014" class="edge">
<title>Node25&#45;&gt;Node14</title>
<g id="a_edge56_Node000025_Node000014"><a xlink:title=" ">
<path fill="none" stroke="#63b8ff" d="M1009.34,-226.04C901.56,-219.29 643.36,-196.29 595.63,-129 581.18,-108.62 609.34,-89.33 633.24,-77.48"/>
<polygon fill="#63b8ff" stroke="#63b8ff" points="634.86,-80.58 642.42,-73.16 631.89,-74.25 634.86,-80.58"/>
</a>
</g>
</g>
<!-- Node25&#45;&gt;Node20 -->
<g id="edge58_Node000025_Node000020" class="edge">
<title>Node25&#45;&gt;Node20</title>
<g id="a_edge58_Node000025_Node000020"><a xlink:title=" ">
<path fill="none" stroke="#63b8ff" d="M1009.37,-226.98C944.68,-223.79 833.72,-213.99 808.63,-184 796.66,-169.68 809.86,-149.96 822.55,-136.31"/>
<polygon fill="#63b8ff" stroke="#63b8ff" points="825.19,-138.61 829.77,-129.06 820.23,-133.67 825.19,-138.61"/>
</a>
</g>
</g>
<!-- Node25&#45;&gt;Node22 -->
<g id="edge55_Node000025_Node000022" class="edge">
<title>Node25&#45;&gt;Node22</title>
<g id="a_edge55_Node000025_Node000022"><a xlink:title=" ">
<path fill="none" stroke="#63b8ff" d="M1052.55,-219.84C1041.48,-197.42 1008.56,-137.36 961.63,-110 877.98,-61.22 839.08,-95.85 740.39,-73.71"/>
<polygon fill="#63b8ff" stroke="#63b8ff" points="741.19,-70.3 730.65,-71.39 739.57,-77.11 741.19,-70.3"/>
</a>
</g>
</g>
<!-- Node26 -->
<g id="Node000026" class="node">
<title>Node26</title>
<g id="a_Node000026"><a xlink:href="mutex_8h.html" target="_top" xlink:title=" ">
<polygon fill="white" stroke="#666666" points="1175.13,-184 1086.13,-184 1086.13,-165 1175.13,-165 1175.13,-184"/>
<text text-anchor="middle" x="1130.63" y="-172" font-family="Helvetica,sans-Serif" font-size="10.00">realm/mutex.h</text>
</a>
</g>
</g>
<!-- Node25&#45;&gt;Node26 -->
<g id="edge34_Node000025_Node000026" class="edge">
<title>Node25&#45;&gt;Node26</title>
<g id="a_edge34_Node000025_Node000026"><a xlink:title=" ">
<path fill="none" stroke="#63b8ff" d="M1068.52,-219.98C1079.78,-211.92 1096.92,-199.65 1110.34,-190.03"/>
<polygon fill="#63b8ff" stroke="#63b8ff" points="1112.43,-192.84 1118.53,-184.17 1108.36,-187.15 1112.43,-192.84"/>
</a>
</g>
</g>
<!-- Node27 -->
<g id="Node000027" class="node">
<title>Node27</title>
<g id="a_Node000027"><a xlink:href="atomics_8h.html" target="_top" xlink:title=" ">
<polygon fill="white" stroke="#666666" points="1523.63,-129 1427.63,-129 1427.63,-110 1523.63,-110 1523.63,-129"/>
<text text-anchor="middle" x="1475.63" y="-117" font-family="Helvetica,sans-Serif" font-size="10.00">realm/atomics.h</text>
</a>
</g>
</g>
<!-- Node25&#45;&gt;Node27 -->
<g id="edge43_Node000025_Node000027" class="edge">
<title>Node25&#45;&gt;Node27</title>
<g id="a_edge43_Node000025_Node000027"><a xlink:title=" ">
<path fill="none" stroke="#63b8ff" d="M1103.82,-229.16C1196.62,-229.51 1398.44,-225.35 1451.63,-184 1465.42,-173.28 1471.29,-153.69 1473.79,-139.09"/>
<polygon fill="#63b8ff" stroke="#63b8ff" points="1477.26,-139.5 1475.11,-129.13 1470.32,-138.58 1477.26,-139.5"/>
</a>
</g>
</g>
<!-- Node31 -->
<g id="Node000031" class="node">
<title>Node31</title>
<g id="a_Node000031"><a xlink:href="hardware__topology_8h.html" target="_top" xlink:title=" ">
<polygon fill="white" stroke="#666666" points="754.13,-129 605.13,-129 605.13,-110 754.13,-110 754.13,-129"/>
<text text-anchor="middle" x="679.63" y="-117" font-family="Helvetica,sans-Serif" font-size="10.00">realm/hardware_topology.h</text>
</a>
</g>
</g>
<!-- Node25&#45;&gt;Node31 -->
<g id="edge45_Node000025_Node000031" class="edge">
<title>Node25&#45;&gt;Node31</title>
<g id="a_edge45_Node000025_Node000031"><a xlink:title=" ">
<path fill="none" stroke="#63b8ff" d="M1009.3,-224.71C957.08,-219.52 871.1,-207.96 800.63,-184 763.95,-171.53 724.82,-149.13 701.3,-134.54"/>
<polygon fill="#63b8ff" stroke="#63b8ff" points="703.13,-131.55 692.8,-129.18 699.4,-137.48 703.13,-131.55"/>
</a>
</g>
</g>
<!-- Node33 -->
<g id="Node000033" class="node">
<title>Node33</title>
<g id="a_Node000033"><a xlink:title=" ">
<polygon fill="#e0e0e0" stroke="#999999" points="1225.63,-184 1193.63,-184 1193.63,-165 1225.63,-165 1225.63,-184"/>
<text text-anchor="middle" x="1209.63" y="-172" font-family="Helvetica,sans-Serif" font-size="10.00">list</text>
</a>
</g>
</g>
<!-- Node25&#45;&gt;Node33 -->
<g id="edge54_Node000025_Node000033" class="edge">
<title>Node25&#45;&gt;Node33</title>
<g id="a_edge54_Node000025_Node000033"><a xlink:title=" ">
<path fill="none" stroke="#63b8ff" d="M1081.21,-219.98C1109.35,-210.24 1155.23,-194.35 1183.86,-184.43"/>
<polygon fill="#63b8ff" stroke="#63b8ff" points="1185.26,-187.65 1193.56,-181.07 1182.96,-181.03 1185.26,-187.65"/>
</a>
</g>
</g>
<!-- Node34 -->
<g id="Node000034" class="node">
<title>Node34</title>
<g id="a_Node000034"><a xlink:title=" ">
<polygon fill="#e0e0e0" stroke="#999999" points="1291.13,-184 1244.13,-184 1244.13,-165 1291.13,-165 1291.13,-184"/>
<text text-anchor="middle" x="1267.63" y="-172" font-family="Helvetica,sans-Serif" font-size="10.00">deque</text>
</a>
</g>
</g>
<!-- Node25&#45;&gt;Node34 -->
<g id="edge57_Node000025_Node000034" class="edge">
<title>Node25&#45;&gt;Node34</title>
<g id="a_edge57_Node000025_Node000034"><a xlink:title=" ">
<path fill="none" stroke="#63b8ff" d="M1091.11,-219.96C1124.95,-211.56 1178.29,-198.27 1233.82,-184.19"/>
<polygon fill="#63b8ff" stroke="#63b8ff" points="1235.01,-187.5 1243.84,-181.65 1233.29,-180.72 1235.01,-187.5"/>
</a>
</g>
</g>
<!-- Node35 -->
<g id="Node000035" class="node">
<title>Node35</title>
<g id="a_Node000035"><a xlink:title=" ">
<polygon fill="#e0e0e0" stroke="#999999" points="1409.63,-184 1309.63,-184 1309.63,-165 1409.63,-165 1409.63,-184"/>
<text text-anchor="middle" x="1359.63" y="-172" font-family="Helvetica,sans-Serif" font-size="10.00">realm/threads.inl</text>
</a>
</g>
</g>
<!-- Node25&#45;&gt;Node35 -->
<g id="edge59_Node000025_Node000035" class="edge">
<title>Node25&#45;&gt;Node35</title>
<g id="a_edge59_Node000025_Node000035"><a xlink:title=" ">
<path fill="none" stroke="#63b8ff" d="M1103.64,-220.28C1156.8,-210.98 1243.42,-195.83 1300.97,-185.76"/>
<polygon fill="#63b8ff" stroke="#63b8ff" points="1301.76,-189.18 1311,-184.01 1300.55,-182.28 1301.76,-189.18"/>
</a>
</g>
</g>
<!-- Node26&#45;&gt;Node4 -->
<g id="edge35_Node000026_Node000004" class="edge">
<title>Node26&#45;&gt;Node4</title>
<g id="a_edge35_Node000026_Node000004"><a xlink:title=" ">
<path fill="none" stroke="#63b8ff" d="M1147.71,-164.96C1168.45,-153.39 1199.1,-131.68 1185.63,-110 1176.1,-94.65 1159.53,-84.44 1143.19,-77.71"/>
<polygon fill="#63b8ff" stroke="#63b8ff" points="1144.24,-74.37 1133.65,-74.15 1141.79,-80.93 1144.24,-74.37"/>
</a>
</g>
</g>
<!-- Node26&#45;&gt;Node8 -->
<g id="edge41_Node000026_Node000008" class="edge">
<title>Node26&#45;&gt;Node8</title>
<g id="a_edge41_Node000026_Node000008"><a xlink:title=" ">
<path fill="none" stroke="#63b8ff" d="M1175.24,-165.56C1235.58,-154.62 1336.36,-135.5 1341.63,-129 1355.38,-112.05 1334.01,-92.45 1314.87,-79.56"/>
<polygon fill="#63b8ff" stroke="#63b8ff" points="1316.68,-76.57 1306.37,-74.15 1312.92,-82.47 1316.68,-76.57"/>
</a>
</g>
</g>
<!-- Node26&#45;&gt;Node10 -->
<g id="edge36_Node000026_Node000010" class="edge">
<title>Node26&#45;&gt;Node10</title>
<g id="a_edge36_Node000026_Node000010"><a xlink:title=" ">
<path fill="none" stroke="#63b8ff" d="M1086.04,-170.1C962.03,-160.66 613.75,-134.14 484.09,-124.27"/>
<polygon fill="#63b8ff" stroke="#63b8ff" points="484.28,-120.77 474.05,-123.5 483.75,-127.75 484.28,-120.77"/>
</a>
</g>
</g>
<!-- Node26&#45;&gt;Node27 -->
<g id="edge37_Node000026_Node000027" class="edge">
<title>Node26&#45;&gt;Node27</title>
<g id="a_edge37_Node000026_Node000027"><a xlink:title=" ">
<path fill="none" stroke="#63b8ff" d="M1175.42,-166.43C1178.54,-165.95 1181.63,-165.47 1184.63,-165 1265.27,-152.49 1358.52,-138.27 1417.28,-129.35"/>
<polygon fill="#63b8ff" stroke="#63b8ff" points="1418.12,-132.76 1427.48,-127.8 1417.07,-125.84 1418.12,-132.76"/>
</a>
</g>
</g>
<!-- Node30 -->
<g id="Node000030" class="node">
<title>Node30</title>
<g id="a_Node000030"><a xlink:title=" ">
<polygon fill="#e0e0e0" stroke="#999999" points="1333.13,-129 1238.13,-129 1238.13,-110 1333.13,-110 1333.13,-129"/>
<text text-anchor="middle" x="1285.63" y="-117" font-family="Helvetica,sans-Serif" font-size="10.00">realm/mutex.inl</text>
</a>
</g>
</g>
<!-- Node26&#45;&gt;Node30 -->
<g id="edge42_Node000026_Node000030" class="edge">
<title>Node26&#45;&gt;Node30</title>
<g id="a_edge42_Node000026_Node000030"><a xlink:title=" ">
<path fill="none" stroke="#63b8ff" d="M1155.54,-164.98C1181.33,-156.16 1221.85,-142.31 1250.81,-132.41"/>
<polygon fill="#63b8ff" stroke="#63b8ff" points="1252.2,-135.63 1260.53,-129.08 1249.94,-129.01 1252.2,-135.63"/>
</a>
</g>
</g>
<!-- Node27&#45;&gt;Node4 -->
<g id="edge38_Node000027_Node000004" class="edge">
<title>Node27&#45;&gt;Node4</title>
<g id="a_edge38_Node000027_Node000004"><a xlink:title=" ">
<path fill="none" stroke="#63b8ff" d="M1427.51,-111.79C1361.37,-102.56 1241.97,-85.91 1165.86,-75.29"/>
<polygon fill="#63b8ff" stroke="#63b8ff" points="1166.26,-71.82 1155.88,-73.9 1165.3,-78.75 1166.26,-71.82"/>
</a>
</g>
</g>
<!-- Node28 -->
<g id="Node000028" class="node">
<title>Node28</title>
<g id="a_Node000028"><a xlink:title=" ">
<polygon fill="#e0e0e0" stroke="#999999" points="1547.63,-74 1497.63,-74 1497.63,-55 1547.63,-55 1547.63,-74"/>
<text text-anchor="middle" x="1522.63" y="-62" font-family="Helvetica,sans-Serif" font-size="10.00">atomic</text>
</a>
</g>
</g>
<!-- Node27&#45;&gt;Node28 -->
<g id="edge39_Node000027_Node000028" class="edge">
<title>Node27&#45;&gt;Node28</title>
<g id="a_edge39_Node000027_Node000028"><a xlink:title=" ">
<path fill="none" stroke="#63b8ff" d="M1483.39,-109.75C1490.1,-102.18 1499.97,-91.05 1508.14,-81.84"/>
<polygon fill="#63b8ff" stroke="#63b8ff" points="1511,-83.89 1515.02,-74.09 1505.76,-79.25 1511,-83.89"/>
</a>
</g>
</g>
<!-- Node29 -->
<g id="Node000029" class="node">
<title>Node29</title>
<g id="a_Node000029"><a xlink:title=" ">
<polygon fill="#e0e0e0" stroke="#999999" points="1479.63,-74 1377.63,-74 1377.63,-55 1479.63,-55 1479.63,-74"/>
<text text-anchor="middle" x="1428.63" y="-62" font-family="Helvetica,sans-Serif" font-size="10.00">realm/atomics.inl</text>
</a>
</g>
</g>
<!-- Node27&#45;&gt;Node29 -->
<g id="edge40_Node000027_Node000029" class="edge">
<title>Node27&#45;&gt;Node29</title>
<g id="a_edge40_Node000027_Node000029"><a xlink:title=" ">
<path fill="none" stroke="#63b8ff" d="M1467.87,-109.75C1461.16,-102.18 1451.29,-91.05 1443.13,-81.84"/>
<polygon fill="#63b8ff" stroke="#63b8ff" points="1445.5,-79.25 1436.25,-74.09 1440.27,-83.89 1445.5,-79.25"/>
</a>
</g>
</g>
<!-- Node31&#45;&gt;Node4 -->
<g id="edge46_Node000031_Node000004" class="edge">
<title>Node31&#45;&gt;Node4</title>
<g id="a_edge46_Node000031_Node000004"><a xlink:title=" ">
<path fill="none" stroke="#63b8ff" d="M746.47,-109.98C822.85,-100.25 947.32,-84.4 1025.18,-74.48"/>
<polygon fill="#63b8ff" stroke="#63b8ff" points="1025.9,-77.91 1035.38,-73.18 1025.02,-70.97 1025.9,-77.91"/>
</a>
</g>
</g>
<!-- Node31&#45;&gt;Node7 -->
<g id="edge47_Node000031_Node000007" class="edge">
<title>Node31&#45;&gt;Node7</title>
<g id="a_edge47_Node000031_Node000007"><a xlink:title=" ">
<path fill="none" stroke="#63b8ff" d="M728.8,-109.98C789.58,-99.46 891.78,-81.76 947.16,-72.16"/>
<polygon fill="#63b8ff" stroke="#63b8ff" points="948,-75.57 957.26,-70.41 946.81,-68.67 948,-75.57"/>
</a>
</g>
</g>
<!-- Node31&#45;&gt;Node13 -->
<g id="edge51_Node000031_Node000013" class="edge">
<title>Node31&#45;&gt;Node13</title>
<g id="a_edge51_Node000031_Node000013"><a xlink:title=" ">
<path fill="none" stroke="#63b8ff" d="M604.98,-112.34C533.76,-105.78 423.34,-93.83 319.36,-74.11"/>
<polygon fill="#63b8ff" stroke="#63b8ff" points="319.8,-70.63 309.31,-72.18 318.47,-77.51 319.8,-70.63"/>
</a>
</g>
</g>
<!-- Node31&#45;&gt;Node14 -->
<g id="edge50_Node000031_Node000014" class="edge">
<title>Node31&#45;&gt;Node14</title>
<g id="a_edge50_Node000031_Node000014"><a xlink:title=" ">
<path fill="none" stroke="#63b8ff" d="M676.66,-109.75C674.27,-102.72 670.84,-92.62 667.86,-83.84"/>
<polygon fill="#63b8ff" stroke="#63b8ff" points="671.08,-82.43 664.55,-74.09 664.45,-84.68 671.08,-82.43"/>
</a>
</g>
</g>
<!-- Node31&#45;&gt;Node22 -->
<g id="edge49_Node000031_Node000022" class="edge">
<title>Node31&#45;&gt;Node22</title>
<g id="a_edge49_Node000031_Node000022"><a xlink:title=" ">
<path fill="none" stroke="#63b8ff" d="M685.41,-109.75C690.25,-102.42 697.31,-91.73 703.28,-82.7"/>
<polygon fill="#63b8ff" stroke="#63b8ff" points="706.37,-84.36 708.96,-74.09 700.53,-80.5 706.37,-84.36"/>
</a>
</g>
</g>
<!-- Node32 -->
<g id="Node000032" class="node">
<title>Node32</title>
<g id="a_Node000032"><a xlink:title=" ">
<polygon fill="#e0e0e0" stroke="#999999" points="806.63,-74 748.63,-74 748.63,-55 806.63,-55 806.63,-74"/>
<text text-anchor="middle" x="777.63" y="-62" font-family="Helvetica,sans-Serif" font-size="10.00">memory</text>
</a>
</g>
</g>
<!-- Node31&#45;&gt;Node32 -->
<g id="edge48_Node000031_Node000032" class="edge">
<title>Node31&#45;&gt;Node32</title>
<g id="a_edge48_Node000031_Node000032"><a xlink:title=" ">
<path fill="none" stroke="#63b8ff" d="M695.38,-109.98C710.86,-101.61 734.73,-88.7 752.77,-78.95"/>
<polygon fill="#63b8ff" stroke="#63b8ff" points="754.47,-82.01 761.6,-74.17 751.14,-75.85 754.47,-82.01"/>
</a>
</g>
</g>
<!-- Node36&#45;&gt;Node4 -->
<g id="edge61_Node000036_Node000004" class="edge">
<title>Node36&#45;&gt;Node4</title>
<g id="a_edge61_Node000036_Node000004"><a xlink:title=" ">
<path fill="none" stroke="#63b8ff" d="M263.33,-170.72C386.71,-163.22 715.17,-142.26 762.63,-129 780.82,-123.92 782.63,-115.7 800.63,-110 821.65,-103.35 945.14,-85.87 1025.54,-74.9"/>
<polygon fill="#63b8ff" stroke="#63b8ff" points="1026.17,-78.35 1035.61,-73.53 1025.23,-71.41 1026.17,-78.35"/>
</a>
</g>
</g>
<!-- Node36&#45;&gt;Node10 -->
<g id="edge62_Node000036_Node000010" class="edge">
<title>Node36&#45;&gt;Node10</title>
<g id="a_edge62_Node000036_Node000010"><a xlink:title=" ">
<path fill="none" stroke="#63b8ff" d="M251.66,-164.98C289.13,-155.87 348.68,-141.4 389.61,-131.45"/>
<polygon fill="#63b8ff" stroke="#63b8ff" points="390.44,-134.85 399.33,-129.08 388.79,-128.04 390.44,-134.85"/>
</a>
</g>
</g>
<!-- Node36&#45;&gt;Node11 -->
<g id="edge65_Node000036_Node000011" class="edge">
<title>Node36&#45;&gt;Node11</title>
<g id="a_edge65_Node000036_Node000011"><a xlink:title=" ">
<path fill="none" stroke="#63b8ff" d="M217.04,-164.66C217.85,-147.17 219.67,-107.8 220.76,-84.27"/>
<polygon fill="#63b8ff" stroke="#63b8ff" points="224.27,-84.31 221.23,-74.16 217.27,-83.99 224.27,-84.31"/>
</a>
</g>
</g>
<!-- Node36&#45;&gt;Node13 -->
<g id="edge64_Node000036_Node000013" class="edge">
<title>Node36&#45;&gt;Node13</title>
<g id="a_edge64_Node000036_Node000013"><a xlink:title=" ">
<path fill="none" stroke="#63b8ff" d="M222.28,-164.66C233.71,-146.77 259.75,-106 274.65,-82.69"/>
<polygon fill="#63b8ff" stroke="#63b8ff" points="277.67,-84.47 280.1,-74.16 271.77,-80.7 277.67,-84.47"/>
</a>
</g>
</g>
<!-- Node36&#45;&gt;Node17 -->
<g id="edge66_Node000036_Node000017" class="edge">
<title>Node36&#45;&gt;Node17</title>
<g id="a_edge66_Node000036_Node000017"><a xlink:title=" ">
<path fill="none" stroke="#63b8ff" d="M169.72,-170.38C113.71,-165.57 25.02,-154.11 4.63,-129 -10.39,-110.5 15.38,-91.17 38.13,-78.77"/>
<polygon fill="#63b8ff" stroke="#63b8ff" points="39.97,-81.76 47.24,-74.06 36.75,-75.54 39.97,-81.76"/>
</a>
</g>
</g>
<!-- Node37 -->
<g id="Node000037" class="node">
<title>Node37</title>
<g id="a_Node000037"><a xlink:title=" ">
<polygon fill="#e0e0e0" stroke="#999999" points="69.63,-129 13.63,-129 13.63,-110 69.63,-110 69.63,-129"/>
<text text-anchor="middle" x="41.63" y="-117" font-family="Helvetica,sans-Serif" font-size="10.00">stdarg.h</text>
</a>
</g>
</g>
<!-- Node36&#45;&gt;Node37 -->
<g id="edge63_Node000036_Node000037" class="edge">
<title>Node36&#45;&gt;Node37</title>
<g id="a_edge63_Node000036_Node000037"><a xlink:title=" ">
<path fill="none" stroke="#63b8ff" d="M188.52,-164.98C158.92,-156.02 112.16,-141.86 79.37,-131.93"/>
<polygon fill="#63b8ff" stroke="#63b8ff" points="80.26,-128.54 69.68,-128.99 78.24,-135.24 80.26,-128.54"/>
</a>
</g>
</g>
<!-- Node38 -->
<g id="Node000038" class="node">
<title>Node38</title>
<g id="a_Node000038"><a xlink:title=" ">
<polygon fill="#e0e0e0" stroke="#999999" points="187.13,-129 88.13,-129 88.13,-110 187.13,-110 187.13,-129"/>
<text text-anchor="middle" x="137.63" y="-117" font-family="Helvetica,sans-Serif" font-size="10.00">realm/logging.inl</text>
</a>
</g>
</g>
<!-- Node36&#45;&gt;Node38 -->
<g id="edge67_Node000036_Node000038" class="edge">
<title>Node36&#45;&gt;Node38</title>
<g id="a_edge67_Node000036_Node000038"><a xlink:title=" ">
<path fill="none" stroke="#63b8ff" d="M203.94,-164.98C191.8,-156.84 173.27,-144.41 158.89,-134.76"/>
<polygon fill="#63b8ff" stroke="#63b8ff" points="160.81,-131.84 150.56,-129.17 156.91,-137.65 160.81,-131.84"/>
</a>
</g>
</g>
</g>
</svg>
