<?xml version="1.0" encoding="UTF-8" standalone="no"?>
<!DOCTYPE svg PUBLIC "-//W3C//DTD SVG 1.1//EN"
 "http://www.w3.org/Graphics/SVG/1.1/DTD/svg11.dtd">
<!-- Generated by graphviz version 2.43.0 (0)
 -->
<!-- Title: /home/runner/work/realm/realm/realm&#45;src/src/realm/operation.h Pages: 1 -->
<svg width="2289pt" height="434pt"
 viewBox="0.00 0.00 2289.00 434.00" xmlns="http://www.w3.org/2000/svg" xmlns:xlink="http://www.w3.org/1999/xlink">
<g id="graph0" class="graph" transform="scale(1 1) rotate(0) translate(4 430)">
<title>/home/runner/work/realm/realm/realm&#45;src/src/realm/operation.h</title>
<!-- Node1 -->
<g id="Node000001" class="node">
<title>Node1</title>
<g id="a_Node000001"><a xlink:title=" ">
<polygon fill="#999999" stroke="#666666" points="930,-426 784,-426 784,-385 930,-385 930,-426"/>
<text text-anchor="start" x="792" y="-414" font-family="Helvetica,sans-Serif" font-size="10.00">/home/runner/work/realm</text>
<text text-anchor="start" x="792" y="-403" font-family="Helvetica,sans-Serif" font-size="10.00">/realm/realm&#45;src/src/realm</text>
<text text-anchor="middle" x="857" y="-392" font-family="Helvetica,sans-Serif" font-size="10.00">/operation.h</text>
</a>
</g>
</g>
<!-- Node2 -->
<g id="Node000002" class="node">
<title>Node2</title>
<g id="a_Node000002"><a xlink:href="cuda__internal_8h.html" target="_top" xlink:title=" ">
<polygon fill="white" stroke="#666666" points="810,-118 664,-118 664,-77 810,-77 810,-118"/>
<text text-anchor="start" x="672" y="-106" font-family="Helvetica,sans-Serif" font-size="10.00">/home/runner/work/realm</text>
<text text-anchor="start" x="672" y="-95" font-family="Helvetica,sans-Serif" font-size="10.00">/realm/realm&#45;src/src/realm</text>
<text text-anchor="middle" x="737" y="-84" font-family="Helvetica,sans-Serif" font-size="10.00">/cuda/cuda_internal.h</text>
</a>
</g>
</g>
<!-- Node1&#45;&gt;Node2 -->
<g id="edge1_Node000001_Node000002" class="edge">
<title>Node1&#45;&gt;Node2</title>
<g id="a_edge1_Node000001_Node000002"><a xlink:title=" ">
<path fill="none" stroke="#63b8ff" d="M829.16,-377.45C805.36,-352.48 772.44,-313.14 756,-272 734.97,-219.38 734.53,-151.06 735.81,-118.05"/>
<polygon fill="#63b8ff" stroke="#63b8ff" points="826.74,-379.98 836.22,-384.72 831.76,-375.11 826.74,-379.98"/>
</a>
</g>
</g>
<!-- Node3 -->
<g id="Node000003" class="node">
<title>Node3</title>
<g id="a_Node000003"><a xlink:href="partitions_8h.html" target="_top" xlink:title=" ">
<polygon fill="white" stroke="#666666" points="1871,-349 1725,-349 1725,-308 1871,-308 1871,-349"/>
<text text-anchor="start" x="1733" y="-337" font-family="Helvetica,sans-Serif" font-size="10.00">/home/runner/work/realm</text>
<text text-anchor="start" x="1733" y="-326" font-family="Helvetica,sans-Serif" font-size="10.00">/realm/realm&#45;src/src/realm</text>
<text text-anchor="middle" x="1798" y="-315" font-family="Helvetica,sans-Serif" font-size="10.00">/deppart/partitions.h</text>
</a>
</g>
</g>
<!-- Node1&#45;&gt;Node3 -->
<g id="edge2_Node000001_Node000003" class="edge">
<title>Node1&#45;&gt;Node3</title>
<g id="a_edge2_Node000001_Node000003"><a xlink:title=" ">
<path fill="none" stroke="#63b8ff" d="M940.61,-399.67C1082.38,-391.23 1378.89,-372.41 1629,-349 1660.46,-346.06 1695.15,-342.17 1724.87,-338.64"/>
<polygon fill="#63b8ff" stroke="#63b8ff" points="940.04,-396.2 930.26,-400.29 940.45,-403.19 940.04,-396.2"/>
</a>
</g>
</g>
<!-- Node8 -->
<g id="Node000008" class="node">
<title>Node8</title>
<g id="a_Node000008"><a xlink:href="runtime__impl_8h.html" target="_top" xlink:title=" ">
<polygon fill="white" stroke="#666666" points="1391,-272 1245,-272 1245,-231 1391,-231 1391,-272"/>
<text text-anchor="start" x="1253" y="-260" font-family="Helvetica,sans-Serif" font-size="10.00">/home/runner/work/realm</text>
<text text-anchor="start" x="1253" y="-249" font-family="Helvetica,sans-Serif" font-size="10.00">/realm/realm&#45;src/src/realm</text>
<text text-anchor="middle" x="1318" y="-238" font-family="Helvetica,sans-Serif" font-size="10.00">/runtime_impl.h</text>
</a>
</g>
</g>
<!-- Node1&#45;&gt;Node8 -->
<g id="edge41_Node000001_Node000008" class="edge">
<title>Node1&#45;&gt;Node8</title>
<g id="a_edge41_Node000001_Node000008"><a xlink:title=" ">
<path fill="none" stroke="#63b8ff" d="M940.52,-383.33C977.11,-373.6 1020.41,-361.46 1059,-349 1133.2,-325.04 1217.56,-292.61 1269.28,-272.12"/>
<polygon fill="#63b8ff" stroke="#63b8ff" points="939.16,-380.07 930.39,-386.01 940.95,-386.84 939.16,-380.07"/>
</a>
</g>
</g>
<!-- Node9 -->
<g id="Node000009" class="node">
<title>Node9</title>
<g id="a_Node000009"><a xlink:href="proc__impl_8h.html" target="_top" xlink:title=" ">
<polygon fill="white" stroke="#666666" points="576,-195 430,-195 430,-154 576,-154 576,-195"/>
<text text-anchor="start" x="438" y="-183" font-family="Helvetica,sans-Serif" font-size="10.00">/home/runner/work/realm</text>
<text text-anchor="start" x="438" y="-172" font-family="Helvetica,sans-Serif" font-size="10.00">/realm/realm&#45;src/src/realm</text>
<text text-anchor="middle" x="503" y="-161" font-family="Helvetica,sans-Serif" font-size="10.00">/proc_impl.h</text>
</a>
</g>
</g>
<!-- Node1&#45;&gt;Node9 -->
<g id="edge40_Node000001_Node000009" class="edge">
<title>Node1&#45;&gt;Node9</title>
<g id="a_edge40_Node000001_Node000009"><a xlink:title=" ">
<path fill="none" stroke="#63b8ff" d="M773.74,-394.53C711.59,-385.54 633.37,-370.41 609,-349 567.06,-312.16 597.47,-277.1 566,-231 556.63,-217.28 543.11,-204.77 531,-195.12"/>
<polygon fill="#63b8ff" stroke="#63b8ff" points="773.56,-398.04 783.96,-395.98 774.54,-391.11 773.56,-398.04"/>
</a>
</g>
</g>
<!-- Node10 -->
<g id="Node000010" class="node">
<title>Node10</title>
<g id="a_Node000010"><a xlink:href="hip__internal_8h.html" target="_top" xlink:title=" ">
<polygon fill="white" stroke="#666666" points="646,-118 500,-118 500,-77 646,-77 646,-118"/>
<text text-anchor="start" x="508" y="-106" font-family="Helvetica,sans-Serif" font-size="10.00">/home/runner/work/realm</text>
<text text-anchor="start" x="508" y="-95" font-family="Helvetica,sans-Serif" font-size="10.00">/realm/realm&#45;src/src/realm</text>
<text text-anchor="middle" x="573" y="-84" font-family="Helvetica,sans-Serif" font-size="10.00">/hip/hip_internal.h</text>
</a>
</g>
</g>
<!-- Node1&#45;&gt;Node10 -->
<g id="edge25_Node000001_Node000010" class="edge">
<title>Node1&#45;&gt;Node10</title>
<g id="a_edge25_Node000001_Node000010"><a xlink:title=" ">
<path fill="none" stroke="#63b8ff" d="M814.51,-379.51C800.48,-370.55 785.11,-359.94 772,-349 686.27,-277.49 612.49,-163.85 584.74,-118.32"/>
<polygon fill="#63b8ff" stroke="#63b8ff" points="812.71,-382.51 823.04,-384.86 816.43,-376.58 812.71,-382.51"/>
</a>
</g>
</g>
<!-- Node20 -->
<g id="Node000020" class="node">
<title>Node20</title>
<g id="a_Node000020"><a xlink:href="transfer_8h.html" target="_top" xlink:title=" ">
<polygon fill="white" stroke="#666666" points="1688,-118 1542,-118 1542,-77 1688,-77 1688,-118"/>
<text text-anchor="start" x="1550" y="-106" font-family="Helvetica,sans-Serif" font-size="10.00">/home/runner/work/realm</text>
<text text-anchor="start" x="1550" y="-95" font-family="Helvetica,sans-Serif" font-size="10.00">/realm/realm&#45;src/src/realm</text>
<text text-anchor="middle" x="1615" y="-84" font-family="Helvetica,sans-Serif" font-size="10.00">/transfer/transfer.h</text>
</a>
</g>
</g>
<!-- Node1&#45;&gt;Node20 -->
<g id="edge45_Node000001_Node000020" class="edge">
<title>Node1&#45;&gt;Node20</title>
<g id="a_edge45_Node000001_Node000020"><a xlink:title=" ">
<path fill="none" stroke="#63b8ff" d="M940.35,-396.61C1050.8,-383.45 1249.26,-350.26 1400,-272 1481.31,-229.79 1560.97,-153.98 1596.18,-118.21"/>
<polygon fill="#63b8ff" stroke="#63b8ff" points="939.8,-393.15 930.27,-397.78 940.61,-400.1 939.8,-393.15"/>
</a>
</g>
</g>
<!-- Node21 -->
<g id="Node000021" class="node">
<title>Node21</title>
<g id="a_Node000021"><a xlink:href="mem__impl_8h.html" target="_top" xlink:title=" ">
<polygon fill="white" stroke="#666666" points="1050,-349 904,-349 904,-308 1050,-308 1050,-349"/>
<text text-anchor="start" x="912" y="-337" font-family="Helvetica,sans-Serif" font-size="10.00">/home/runner/work/realm</text>
<text text-anchor="start" x="912" y="-326" font-family="Helvetica,sans-Serif" font-size="10.00">/realm/realm&#45;src/src/realm</text>
<text text-anchor="middle" x="977" y="-315" font-family="Helvetica,sans-Serif" font-size="10.00">/mem_impl.h</text>
</a>
</g>
</g>
<!-- Node1&#45;&gt;Node21 -->
<g id="edge26_Node000001_Node000021" class="edge">
<title>Node1&#45;&gt;Node21</title>
<g id="a_edge26_Node000001_Node000021"><a xlink:title=" ">
<path fill="none" stroke="#63b8ff" d="M896.77,-379.64C912.62,-369.74 930.61,-358.5 945.52,-349.17"/>
<polygon fill="#63b8ff" stroke="#63b8ff" points="894.84,-376.72 888.22,-384.99 898.55,-382.66 894.84,-376.72"/>
</a>
</g>
</g>
<!-- Node25 -->
<g id="Node000025" class="node">
<title>Node25</title>
<g id="a_Node000025"><a xlink:href="tasks_8h.html" target="_top" xlink:title=" ">
<polygon fill="white" stroke="#666666" points="557,-272 411,-272 411,-231 557,-231 557,-272"/>
<text text-anchor="start" x="419" y="-260" font-family="Helvetica,sans-Serif" font-size="10.00">/home/runner/work/realm</text>
<text text-anchor="start" x="419" y="-249" font-family="Helvetica,sans-Serif" font-size="10.00">/realm/realm&#45;src/src/realm</text>
<text text-anchor="middle" x="484" y="-238" font-family="Helvetica,sans-Serif" font-size="10.00">/tasks.h</text>
</a>
</g>
</g>
<!-- Node1&#45;&gt;Node25 -->
<g id="edge42_Node000001_Node000025" class="edge">
<title>Node1&#45;&gt;Node25</title>
<g id="a_edge42_Node000001_Node000025"><a xlink:title=" ">
<path fill="none" stroke="#63b8ff" d="M773.71,-402.24C713.91,-397.42 633.23,-384.17 571,-349 538.01,-330.35 510.85,-294.62 496.08,-272.26"/>
<polygon fill="#63b8ff" stroke="#63b8ff" points="773.64,-405.74 783.87,-402.99 774.16,-398.76 773.64,-405.74"/>
</a>
</g>
</g>
<!-- Node4 -->
<g id="Node000004" class="node">
<title>Node4</title>
<g id="a_Node000004"><a xlink:href="byfield_8h.html" target="_top" xlink:title=" ">
<polygon fill="white" stroke="#666666" points="1789,-272 1643,-272 1643,-231 1789,-231 1789,-272"/>
<text text-anchor="start" x="1651" y="-260" font-family="Helvetica,sans-Serif" font-size="10.00">/home/runner/work/realm</text>
<text text-anchor="start" x="1651" y="-249" font-family="Helvetica,sans-Serif" font-size="10.00">/realm/realm&#45;src/src/realm</text>
<text text-anchor="middle" x="1716" y="-238" font-family="Helvetica,sans-Serif" font-size="10.00">/deppart/byfield.h</text>
</a>
</g>
</g>
<!-- Node3&#45;&gt;Node4 -->
<g id="edge3_Node000003_Node000004" class="edge">
<title>Node3&#45;&gt;Node4</title>
<g id="a_edge3_Node000003_Node000004"><a xlink:title=" ">
<path fill="none" stroke="#63b8ff" d="M1768.8,-300.79C1758.44,-291.32 1746.99,-280.84 1737.4,-272.07"/>
<polygon fill="#63b8ff" stroke="#63b8ff" points="1766.71,-303.63 1776.46,-307.79 1771.44,-298.46 1766.71,-303.63"/>
</a>
</g>
</g>
<!-- Node5 -->
<g id="Node000005" class="node">
<title>Node5</title>
<g id="a_Node000005"><a xlink:href="image_8h.html" target="_top" xlink:title=" ">
<polygon fill="white" stroke="#666666" points="1953,-272 1807,-272 1807,-231 1953,-231 1953,-272"/>
<text text-anchor="start" x="1815" y="-260" font-family="Helvetica,sans-Serif" font-size="10.00">/home/runner/work/realm</text>
<text text-anchor="start" x="1815" y="-249" font-family="Helvetica,sans-Serif" font-size="10.00">/realm/realm&#45;src/src/realm</text>
<text text-anchor="middle" x="1880" y="-238" font-family="Helvetica,sans-Serif" font-size="10.00">/deppart/image.h</text>
</a>
</g>
</g>
<!-- Node3&#45;&gt;Node5 -->
<g id="edge4_Node000003_Node000005" class="edge">
<title>Node3&#45;&gt;Node5</title>
<g id="a_edge4_Node000003_Node000005"><a xlink:title=" ">
<path fill="none" stroke="#63b8ff" d="M1827.2,-300.79C1837.56,-291.32 1849.01,-280.84 1858.6,-272.07"/>
<polygon fill="#63b8ff" stroke="#63b8ff" points="1824.56,-298.46 1819.54,-307.79 1829.29,-303.63 1824.56,-298.46"/>
</a>
</g>
</g>
<!-- Node6 -->
<g id="Node000006" class="node">
<title>Node6</title>
<g id="a_Node000006"><a xlink:href="preimage_8h.html" target="_top" xlink:title=" ">
<polygon fill="white" stroke="#666666" points="2117,-272 1971,-272 1971,-231 2117,-231 2117,-272"/>
<text text-anchor="start" x="1979" y="-260" font-family="Helvetica,sans-Serif" font-size="10.00">/home/runner/work/realm</text>
<text text-anchor="start" x="1979" y="-249" font-family="Helvetica,sans-Serif" font-size="10.00">/realm/realm&#45;src/src/realm</text>
<text text-anchor="middle" x="2044" y="-238" font-family="Helvetica,sans-Serif" font-size="10.00">/deppart/preimage.h</text>
</a>
</g>
</g>
<!-- Node3&#45;&gt;Node6 -->
<g id="edge5_Node000003_Node000006" class="edge">
<title>Node3&#45;&gt;Node6</title>
<g id="a_edge5_Node000003_Node000006"><a xlink:title=" ">
<path fill="none" stroke="#63b8ff" d="M1871.98,-304.94C1906.36,-294.46 1946.85,-282.12 1979.9,-272.04"/>
<polygon fill="#63b8ff" stroke="#63b8ff" points="1870.54,-301.73 1861.99,-307.99 1872.58,-308.42 1870.54,-301.73"/>
</a>
</g>
</g>
<!-- Node7 -->
<g id="Node000007" class="node">
<title>Node7</title>
<g id="a_Node000007"><a xlink:href="setops_8h.html" target="_top" xlink:title=" ">
<polygon fill="white" stroke="#666666" points="2281,-272 2135,-272 2135,-231 2281,-231 2281,-272"/>
<text text-anchor="start" x="2143" y="-260" font-family="Helvetica,sans-Serif" font-size="10.00">/home/runner/work/realm</text>
<text text-anchor="start" x="2143" y="-249" font-family="Helvetica,sans-Serif" font-size="10.00">/realm/realm&#45;src/src/realm</text>
<text text-anchor="middle" x="2208" y="-238" font-family="Helvetica,sans-Serif" font-size="10.00">/deppart/setops.h</text>
</a>
</g>
</g>
<!-- Node3&#45;&gt;Node7 -->
<g id="edge6_Node000003_Node000007" class="edge">
<title>Node3&#45;&gt;Node7</title>
<g id="a_edge6_Node000003_Node000007"><a xlink:title=" ">
<path fill="none" stroke="#63b8ff" d="M1881.21,-314.97C1947.68,-304.59 2043.1,-288.85 2126,-272 2128.87,-271.42 2131.79,-270.81 2134.74,-270.18"/>
<polygon fill="#63b8ff" stroke="#63b8ff" points="1880.55,-311.53 1871.21,-316.53 1881.63,-318.45 1880.55,-311.53"/>
</a>
</g>
</g>
<!-- Node3&#45;&gt;Node8 -->
<g id="edge7_Node000003_Node000008" class="edge">
<title>Node3&#45;&gt;Node8</title>
<g id="a_edge7_Node000003_Node000008"><a xlink:title=" ">
<path fill="none" stroke="#63b8ff" d="M1714.8,-314.5C1623.46,-300.23 1478.23,-277.54 1391.11,-263.92"/>
<polygon fill="#63b8ff" stroke="#63b8ff" points="1714.42,-317.98 1724.84,-316.07 1715.5,-311.07 1714.42,-317.98"/>
</a>
</g>
</g>
<!-- Node8&#45;&gt;Node9 -->
<g id="edge8_Node000008_Node000009" class="edge">
<title>Node8&#45;&gt;Node9</title>
<g id="a_edge8_Node000008_Node000009"><a xlink:title=" ">
<path fill="none" stroke="#63b8ff" d="M1234.62,-236.05C1222.36,-234.19 1209.87,-232.44 1198,-231 1079.18,-216.63 729.23,-191.34 576.12,-180.58"/>
<polygon fill="#63b8ff" stroke="#63b8ff" points="1234.42,-239.56 1244.84,-237.64 1235.49,-232.65 1234.42,-239.56"/>
</a>
</g>
</g>
<!-- Node14 -->
<g id="Node000014" class="node">
<title>Node14</title>
<g id="a_Node000014"><a xlink:href="channel_8h.html" target="_top" xlink:title=" ">
<polygon fill="white" stroke="#666666" points="1189,-195 1043,-195 1043,-154 1189,-154 1189,-195"/>
<text text-anchor="start" x="1051" y="-183" font-family="Helvetica,sans-Serif" font-size="10.00">/home/runner/work/realm</text>
<text text-anchor="start" x="1051" y="-172" font-family="Helvetica,sans-Serif" font-size="10.00">/realm/realm&#45;src/src/realm</text>
<text text-anchor="middle" x="1116" y="-161" font-family="Helvetica,sans-Serif" font-size="10.00">/transfer/channel.h</text>
</a>
</g>
</g>
<!-- Node8&#45;&gt;Node14 -->
<g id="edge14_Node000008_Node000014" class="edge">
<title>Node8&#45;&gt;Node14</title>
<g id="a_edge14_Node000008_Node000014"><a xlink:title=" ">
<path fill="none" stroke="#63b8ff" d="M1255.79,-227.4C1227.88,-217.04 1195.31,-204.95 1168.63,-195.04"/>
<polygon fill="#63b8ff" stroke="#63b8ff" points="1254.86,-230.79 1265.45,-230.99 1257.3,-224.23 1254.86,-230.79"/>
</a>
</g>
</g>
<!-- Node18 -->
<g id="Node000018" class="node">
<title>Node18</title>
<g id="a_Node000018"><a xlink:href="lowlevel__dma_8h.html" target="_top" xlink:title=" ">
<polygon fill="white" stroke="#666666" points="1524,-118 1378,-118 1378,-77 1524,-77 1524,-118"/>
<text text-anchor="start" x="1386" y="-106" font-family="Helvetica,sans-Serif" font-size="10.00">/home/runner/work/realm</text>
<text text-anchor="start" x="1386" y="-95" font-family="Helvetica,sans-Serif" font-size="10.00">/realm/realm&#45;src/src/realm</text>
<text text-anchor="middle" x="1451" y="-84" font-family="Helvetica,sans-Serif" font-size="10.00">/transfer/lowlevel_dma.h</text>
</a>
</g>
</g>
<!-- Node8&#45;&gt;Node18 -->
<g id="edge24_Node000008_Node000018" class="edge">
<title>Node8&#45;&gt;Node18</title>
<g id="a_edge24_Node000008_Node000018"><a xlink:title=" ">
<path fill="none" stroke="#63b8ff" d="M1341.79,-223.32C1368.14,-193.19 1410.03,-145.33 1433.53,-118.47"/>
<polygon fill="#63b8ff" stroke="#63b8ff" points="1339.07,-221.11 1335.12,-230.94 1344.33,-225.72 1339.07,-221.11"/>
</a>
</g>
</g>
<!-- Node9&#45;&gt;Node2 -->
<g id="edge9_Node000009_Node000002" class="edge">
<title>Node9&#45;&gt;Node2</title>
<g id="a_edge9_Node000009_Node000002"><a xlink:title=" ">
<path fill="none" stroke="#63b8ff" d="M573.79,-150.81C606.4,-140.36 644.72,-128.08 676.03,-118.04"/>
<polygon fill="#63b8ff" stroke="#63b8ff" points="572.32,-147.61 563.87,-153.99 574.46,-154.27 572.32,-147.61"/>
</a>
</g>
</g>
<!-- Node9&#45;&gt;Node10 -->
<g id="edge10_Node000009_Node000010" class="edge">
<title>Node9&#45;&gt;Node10</title>
<g id="a_edge10_Node000009_Node000010"><a xlink:title=" ">
<path fill="none" stroke="#63b8ff" d="M528.45,-146.23C537.15,-136.91 546.71,-126.67 554.73,-118.07"/>
<polygon fill="#63b8ff" stroke="#63b8ff" points="525.66,-144.1 521.39,-153.79 530.77,-148.87 525.66,-144.1"/>
</a>
</g>
</g>
<!-- Node11 -->
<g id="Node000011" class="node">
<title>Node11</title>
<g id="a_Node000011"><a xlink:href="kokkos__interop_8h.html" target="_top" xlink:title=" ">
<polygon fill="white" stroke="#666666" points="482,-118 336,-118 336,-77 482,-77 482,-118"/>
<text text-anchor="start" x="344" y="-106" font-family="Helvetica,sans-Serif" font-size="10.00">/home/runner/work/realm</text>
<text text-anchor="start" x="344" y="-95" font-family="Helvetica,sans-Serif" font-size="10.00">/realm/realm&#45;src/src/realm</text>
<text text-anchor="middle" x="409" y="-84" font-family="Helvetica,sans-Serif" font-size="10.00">/kokkos_interop.h</text>
</a>
</g>
</g>
<!-- Node9&#45;&gt;Node11 -->
<g id="edge11_Node000009_Node000011" class="edge">
<title>Node9&#45;&gt;Node11</title>
<g id="a_edge11_Node000009_Node000011"><a xlink:title=" ">
<path fill="none" stroke="#63b8ff" d="M470.22,-147.35C458.17,-137.73 444.74,-127.01 433.53,-118.07"/>
<polygon fill="#63b8ff" stroke="#63b8ff" points="468.3,-150.29 478.3,-153.79 472.67,-144.82 468.3,-150.29"/>
</a>
</g>
</g>
<!-- Node12 -->
<g id="Node000012" class="node">
<title>Node12</title>
<g id="a_Node000012"><a xlink:href="openmp__internal_8h.html" target="_top" xlink:title=" ">
<polygon fill="white" stroke="#666666" points="154,-118 0,-118 0,-77 154,-77 154,-118"/>
<text text-anchor="start" x="8" y="-106" font-family="Helvetica,sans-Serif" font-size="10.00">/home/runner/work/realm</text>
<text text-anchor="start" x="8" y="-95" font-family="Helvetica,sans-Serif" font-size="10.00">/realm/realm&#45;src/src/realm</text>
<text text-anchor="middle" x="77" y="-84" font-family="Helvetica,sans-Serif" font-size="10.00">/openmp/openmp_internal.h</text>
</a>
</g>
</g>
<!-- Node9&#45;&gt;Node12 -->
<g id="edge12_Node000009_Node000012" class="edge">
<title>Node9&#45;&gt;Node12</title>
<g id="a_edge12_Node000009_Node000012"><a xlink:title=" ">
<path fill="none" stroke="#63b8ff" d="M419.87,-161.38C350.88,-150.98 250.29,-135 163,-118 160.14,-117.44 157.24,-116.86 154.31,-116.26"/>
<polygon fill="#63b8ff" stroke="#63b8ff" points="419.4,-164.85 429.81,-162.88 420.44,-157.93 419.4,-164.85"/>
</a>
</g>
</g>
<!-- Node13 -->
<g id="Node000013" class="node">
<title>Node13</title>
<g id="a_Node000013"><a xlink:href="python__internal_8h.html" target="_top" xlink:title=" ">
<polygon fill="white" stroke="#666666" points="318,-118 172,-118 172,-77 318,-77 318,-118"/>
<text text-anchor="start" x="180" y="-106" font-family="Helvetica,sans-Serif" font-size="10.00">/home/runner/work/realm</text>
<text text-anchor="start" x="180" y="-95" font-family="Helvetica,sans-Serif" font-size="10.00">/realm/realm&#45;src/src/realm</text>
<text text-anchor="middle" x="245" y="-84" font-family="Helvetica,sans-Serif" font-size="10.00">/python/python_internal.h</text>
</a>
</g>
</g>
<!-- Node9&#45;&gt;Node13 -->
<g id="edge13_Node000009_Node000013" class="edge">
<title>Node9&#45;&gt;Node13</title>
<g id="a_edge13_Node000009_Node000013"><a xlink:title=" ">
<path fill="none" stroke="#63b8ff" d="M425.87,-151.08C389.72,-140.57 347.04,-128.16 312.22,-118.04"/>
<polygon fill="#63b8ff" stroke="#63b8ff" points="425.31,-154.56 435.89,-153.99 427.26,-147.84 425.31,-154.56"/>
</a>
</g>
</g>
<!-- Node14&#45;&gt;Node2 -->
<g id="edge15_Node000014_Node000002" class="edge">
<title>Node14&#45;&gt;Node2</title>
<g id="a_edge15_Node000014_Node000002"><a xlink:title=" ">
<path fill="none" stroke="#63b8ff" d="M1032.75,-159.06C973.09,-148.44 890.91,-133.26 819,-118 816.14,-117.39 813.22,-116.76 810.28,-116.11"/>
<polygon fill="#63b8ff" stroke="#63b8ff" points="1032.42,-162.56 1042.87,-160.86 1033.64,-155.67 1032.42,-162.56"/>
</a>
</g>
</g>
<!-- Node14&#45;&gt;Node10 -->
<g id="edge17_Node000014_Node000010" class="edge">
<title>Node14&#45;&gt;Node10</title>
<g id="a_edge17_Node000014_Node000010"><a xlink:title=" ">
<path fill="none" stroke="#63b8ff" d="M1032.68,-163.14C1008.58,-160.17 982.25,-156.94 958,-154 823.37,-137.69 788.52,-141.73 655,-118 652.12,-117.49 649.19,-116.94 646.23,-116.36"/>
<polygon fill="#63b8ff" stroke="#63b8ff" points="1032.5,-166.65 1042.85,-164.4 1033.36,-159.7 1032.5,-166.65"/>
</a>
</g>
</g>
<!-- Node15 -->
<g id="Node000015" class="node">
<title>Node15</title>
<g id="a_Node000015"><a xlink:href="hdf5__internal_8h.html" target="_top" xlink:title=" ">
<polygon fill="white" stroke="#666666" points="1524,-41 1378,-41 1378,0 1524,0 1524,-41"/>
<text text-anchor="start" x="1386" y="-29" font-family="Helvetica,sans-Serif" font-size="10.00">/home/runner/work/realm</text>
<text text-anchor="start" x="1386" y="-18" font-family="Helvetica,sans-Serif" font-size="10.00">/realm/realm&#45;src/src/realm</text>
<text text-anchor="middle" x="1451" y="-7" font-family="Helvetica,sans-Serif" font-size="10.00">/hdf5/hdf5_internal.h</text>
</a>
</g>
</g>
<!-- Node14&#45;&gt;Node15 -->
<g id="edge16_Node000014_Node000015" class="edge">
<title>Node14&#45;&gt;Node15</title>
<g id="a_edge16_Node000014_Node000015"><a xlink:title=" ">
<path fill="none" stroke="#63b8ff" d="M1137.02,-145.98C1157.79,-119.11 1187.51,-81.58 1195,-77 1250.47,-43.06 1323.85,-29.72 1377.82,-24.55"/>
<polygon fill="#63b8ff" stroke="#63b8ff" points="1134.23,-143.88 1130.9,-153.93 1139.77,-148.15 1134.23,-143.88"/>
</a>
</g>
</g>
<!-- Node16 -->
<g id="Node000016" class="node">
<title>Node16</title>
<g id="a_Node000016"><a xlink:href="addrsplit__channel_8h.html" target="_top" xlink:title=" ">
<polygon fill="white" stroke="#666666" points="984,-118 828,-118 828,-77 984,-77 984,-118"/>
<text text-anchor="start" x="836" y="-106" font-family="Helvetica,sans-Serif" font-size="10.00">/home/runner/work/realm</text>
<text text-anchor="start" x="836" y="-95" font-family="Helvetica,sans-Serif" font-size="10.00">/realm/realm&#45;src/src/realm</text>
<text text-anchor="middle" x="906" y="-84" font-family="Helvetica,sans-Serif" font-size="10.00">/transfer/addrsplit_channel.h</text>
</a>
</g>
</g>
<!-- Node14&#45;&gt;Node16 -->
<g id="edge18_Node000014_Node000016" class="edge">
<title>Node14&#45;&gt;Node16</title>
<g id="a_edge18_Node000014_Node000016"><a xlink:title=" ">
<path fill="none" stroke="#63b8ff" d="M1051.71,-150.54C1022.61,-140.15 988.57,-127.99 960.72,-118.04"/>
<polygon fill="#63b8ff" stroke="#63b8ff" points="1050.78,-153.92 1061.37,-153.99 1053.13,-147.33 1050.78,-153.92"/>
</a>
</g>
</g>
<!-- Node17 -->
<g id="Node000017" class="node">
<title>Node17</title>
<g id="a_Node000017"><a xlink:href="channel__disk_8h.html" target="_top" xlink:title=" ">
<polygon fill="white" stroke="#666666" points="1148,-118 1002,-118 1002,-77 1148,-77 1148,-118"/>
<text text-anchor="start" x="1010" y="-106" font-family="Helvetica,sans-Serif" font-size="10.00">/home/runner/work/realm</text>
<text text-anchor="start" x="1010" y="-95" font-family="Helvetica,sans-Serif" font-size="10.00">/realm/realm&#45;src/src/realm</text>
<text text-anchor="middle" x="1075" y="-84" font-family="Helvetica,sans-Serif" font-size="10.00">/transfer/channel_disk.h</text>
</a>
</g>
</g>
<!-- Node14&#45;&gt;Node17 -->
<g id="edge19_Node000014_Node000017" class="edge">
<title>Node14&#45;&gt;Node17</title>
<g id="a_edge19_Node000014_Node000017"><a xlink:title=" ">
<path fill="none" stroke="#63b8ff" d="M1100.33,-144.83C1095.44,-135.89 1090.16,-126.24 1085.7,-118.07"/>
<polygon fill="#63b8ff" stroke="#63b8ff" points="1097.36,-146.7 1105.23,-153.79 1103.5,-143.34 1097.36,-146.7"/>
</a>
</g>
</g>
<!-- Node14&#45;&gt;Node18 -->
<g id="edge20_Node000014_Node000018" class="edge">
<title>Node14&#45;&gt;Node18</title>
<g id="a_edge20_Node000014_Node000018"><a xlink:title=" ">
<path fill="none" stroke="#63b8ff" d="M1199.14,-155.64C1248.54,-144.94 1312.4,-130.94 1369,-118 1371.85,-117.35 1374.76,-116.68 1377.7,-116"/>
<polygon fill="#63b8ff" stroke="#63b8ff" points="1198.18,-152.27 1189.15,-157.81 1199.66,-159.11 1198.18,-152.27"/>
</a>
</g>
</g>
<!-- Node19 -->
<g id="Node000019" class="node">
<title>Node19</title>
<g id="a_Node000019"><a xlink:href="memcpy__channel_8h.html" target="_top" xlink:title=" ">
<polygon fill="white" stroke="#666666" points="1360,-118 1204,-118 1204,-77 1360,-77 1360,-118"/>
<text text-anchor="start" x="1212" y="-106" font-family="Helvetica,sans-Serif" font-size="10.00">/home/runner/work/realm</text>
<text text-anchor="start" x="1212" y="-95" font-family="Helvetica,sans-Serif" font-size="10.00">/realm/realm&#45;src/src/realm</text>
<text text-anchor="middle" x="1282" y="-84" font-family="Helvetica,sans-Serif" font-size="10.00">/transfer/memcpy_channel.h</text>
</a>
</g>
</g>
<!-- Node14&#45;&gt;Node19 -->
<g id="edge22_Node000014_Node000019" class="edge">
<title>Node14&#45;&gt;Node19</title>
<g id="a_edge22_Node000014_Node000019"><a xlink:title=" ">
<path fill="none" stroke="#63b8ff" d="M1168.33,-149.86C1190.99,-139.62 1217.21,-127.77 1238.75,-118.04"/>
<polygon fill="#63b8ff" stroke="#63b8ff" points="1166.85,-146.68 1159.18,-153.99 1169.74,-153.06 1166.85,-146.68"/>
</a>
</g>
</g>
<!-- Node14&#45;&gt;Node20 -->
<g id="edge23_Node000014_Node000020" class="edge">
<title>Node14&#45;&gt;Node20</title>
<g id="a_edge23_Node000014_Node000020"><a xlink:title=" ">
<path fill="none" stroke="#63b8ff" d="M1199.09,-164.95C1283.53,-155.67 1417.92,-139.28 1533,-118 1535.88,-117.47 1538.81,-116.9 1541.76,-116.3"/>
<polygon fill="#63b8ff" stroke="#63b8ff" points="1198.61,-161.48 1189.05,-166.04 1199.37,-168.44 1198.61,-161.48"/>
</a>
</g>
</g>
<!-- Node18&#45;&gt;Node15 -->
<g id="edge21_Node000018_Node000015" class="edge">
<title>Node18&#45;&gt;Node15</title>
<g id="a_edge21_Node000018_Node000015"><a xlink:title=" ">
<path fill="none" stroke="#63b8ff" d="M1451,-66.69C1451,-58.08 1451,-48.9 1451,-41.07"/>
<polygon fill="#63b8ff" stroke="#63b8ff" points="1447.5,-66.79 1451,-76.79 1454.5,-66.79 1447.5,-66.79"/>
</a>
</g>
</g>
<!-- Node21&#45;&gt;Node2 -->
<g id="edge27_Node000021_Node000002" class="edge">
<title>Node21&#45;&gt;Node2</title>
<g id="a_edge27_Node000021_Node000002"><a xlink:title=" ">
<path fill="none" stroke="#63b8ff" d="M983.05,-297.82C988.97,-259.71 992.67,-193.78 958,-154 956.72,-152.54 873.89,-131.99 810.02,-116.32"/>
<polygon fill="#63b8ff" stroke="#63b8ff" points="979.58,-297.34 981.35,-307.78 986.48,-298.51 979.58,-297.34"/>
</a>
</g>
</g>
<!-- Node21&#45;&gt;Node10 -->
<g id="edge29_Node000021_Node000010" class="edge">
<title>Node21&#45;&gt;Node10</title>
<g id="a_edge29_Node000021_Node000010"><a xlink:title=" ">
<path fill="none" stroke="#63b8ff" d="M893.98,-317.02C850.85,-309.07 798.44,-295.36 756,-272 690.75,-236.09 690.53,-205.79 637,-154 624.21,-141.63 609.21,-128.55 596.95,-118.2"/>
<polygon fill="#63b8ff" stroke="#63b8ff" points="893.42,-320.47 903.88,-318.77 894.64,-313.58 893.42,-320.47"/>
</a>
</g>
</g>
<!-- Node21&#45;&gt;Node14 -->
<g id="edge33_Node000021_Node000014" class="edge">
<title>Node21&#45;&gt;Node14</title>
<g id="a_edge33_Node000021_Node000014"><a xlink:title=" ">
<path fill="none" stroke="#63b8ff" d="M989.86,-298.55C999.89,-278.12 1015.24,-250.95 1034,-231 1047.19,-216.97 1064.53,-204.6 1079.87,-195.11"/>
<polygon fill="#63b8ff" stroke="#63b8ff" points="986.64,-297.16 985.5,-307.69 992.96,-300.17 986.64,-297.16"/>
</a>
</g>
</g>
<!-- Node21&#45;&gt;Node15 -->
<g id="edge28_Node000021_Node000015" class="edge">
<title>Node21&#45;&gt;Node15</title>
<g id="a_edge28_Node000021_Node000015"><a xlink:title=" ">
<path fill="none" stroke="#63b8ff" d="M1060.16,-325.08C1146.81,-320.61 1285.64,-307.93 1400,-272 1541.85,-227.43 1619.76,-245.05 1697,-118 1738.35,-49.99 1610.66,-29.84 1524.06,-23.92"/>
<polygon fill="#63b8ff" stroke="#63b8ff" points="1059.94,-321.59 1050.12,-325.57 1060.28,-328.58 1059.94,-321.59"/>
</a>
</g>
</g>
<!-- Node21&#45;&gt;Node19 -->
<g id="edge38_Node000021_Node000019" class="edge">
<title>Node21&#45;&gt;Node19</title>
<g id="a_edge38_Node000021_Node000019"><a xlink:title=" ">
<path fill="none" stroke="#63b8ff" d="M1060.12,-306.68C1122.72,-290.99 1197.82,-272.15 1198,-272 1247.84,-231.45 1270.17,-154.13 1278.22,-118.01"/>
<polygon fill="#63b8ff" stroke="#63b8ff" points="1059.05,-303.34 1050.2,-309.16 1060.75,-310.13 1059.05,-303.34"/>
</a>
</g>
</g>
<!-- Node22 -->
<g id="Node000022" class="node">
<title>Node22</title>
<g id="a_Node000022"><a xlink:href="inst__impl_8h.html" target="_top" xlink:title=" ">
<polygon fill="white" stroke="#666666" points="1189,-272 1043,-272 1043,-231 1189,-231 1189,-272"/>
<text text-anchor="start" x="1051" y="-260" font-family="Helvetica,sans-Serif" font-size="10.00">/home/runner/work/realm</text>
<text text-anchor="start" x="1051" y="-249" font-family="Helvetica,sans-Serif" font-size="10.00">/realm/realm&#45;src/src/realm</text>
<text text-anchor="middle" x="1116" y="-238" font-family="Helvetica,sans-Serif" font-size="10.00">/inst_impl.h</text>
</a>
</g>
</g>
<!-- Node21&#45;&gt;Node22 -->
<g id="edge30_Node000021_Node000022" class="edge">
<title>Node21&#45;&gt;Node22</title>
<g id="a_edge30_Node000021_Node000022"><a xlink:title=" ">
<path fill="none" stroke="#63b8ff" d="M1022.05,-303.19C1040.65,-293.15 1061.94,-281.67 1079.54,-272.17"/>
<polygon fill="#63b8ff" stroke="#63b8ff" points="1020.3,-300.16 1013.16,-307.99 1023.62,-306.32 1020.3,-300.16"/>
</a>
</g>
</g>
<!-- Node23 -->
<g id="Node000023" class="node">
<title>Node23</title>
<g id="a_Node000023"><a xlink:href="ib__memory_8h.html" target="_top" xlink:title=" ">
<polygon fill="white" stroke="#666666" points="911,-272 765,-272 765,-231 911,-231 911,-272"/>
<text text-anchor="start" x="773" y="-260" font-family="Helvetica,sans-Serif" font-size="10.00">/home/runner/work/realm</text>
<text text-anchor="start" x="773" y="-249" font-family="Helvetica,sans-Serif" font-size="10.00">/realm/realm&#45;src/src/realm</text>
<text text-anchor="middle" x="838" y="-238" font-family="Helvetica,sans-Serif" font-size="10.00">/transfer/ib_memory.h</text>
</a>
</g>
</g>
<!-- Node21&#45;&gt;Node23 -->
<g id="edge34_Node000021_Node000023" class="edge">
<title>Node21&#45;&gt;Node23</title>
<g id="a_edge34_Node000021_Node000023"><a xlink:title=" ">
<path fill="none" stroke="#63b8ff" d="M931.95,-303.19C913.35,-293.15 892.06,-281.67 874.46,-272.17"/>
<polygon fill="#63b8ff" stroke="#63b8ff" points="930.38,-306.32 940.84,-307.99 933.7,-300.16 930.38,-306.32"/>
</a>
</g>
</g>
<!-- Node24 -->
<g id="Node000024" class="node">
<title>Node24</title>
<g id="a_Node000024"><a xlink:href="ucp__internal_8h.html" target="_top" xlink:title=" ">
<polygon fill="white" stroke="#666666" points="949,-195 803,-195 803,-154 949,-154 949,-195"/>
<text text-anchor="start" x="811" y="-183" font-family="Helvetica,sans-Serif" font-size="10.00">/home/runner/work/realm</text>
<text text-anchor="start" x="811" y="-172" font-family="Helvetica,sans-Serif" font-size="10.00">/realm/realm&#45;src/src/realm</text>
<text text-anchor="middle" x="876" y="-161" font-family="Helvetica,sans-Serif" font-size="10.00">/ucx/ucp_internal.h</text>
</a>
</g>
</g>
<!-- Node21&#45;&gt;Node24 -->
<g id="edge39_Node000021_Node000024" class="edge">
<title>Node21&#45;&gt;Node24</title>
<g id="a_edge39_Node000021_Node000024"><a xlink:title=" ">
<path fill="none" stroke="#63b8ff" d="M961.41,-298.79C950.47,-279.25 935.15,-253.05 920,-231 911.51,-218.64 901.11,-205.45 892.56,-195.04"/>
<polygon fill="#63b8ff" stroke="#63b8ff" points="958.49,-300.75 966.4,-307.79 964.61,-297.35 958.49,-300.75"/>
</a>
</g>
</g>
<!-- Node22&#45;&gt;Node14 -->
<g id="edge31_Node000022_Node000014" class="edge">
<title>Node22&#45;&gt;Node14</title>
<g id="a_edge31_Node000022_Node000014"><a xlink:title=" ">
<path fill="none" stroke="#63b8ff" d="M1116,-220.69C1116,-212.08 1116,-202.9 1116,-195.07"/>
<polygon fill="#63b8ff" stroke="#63b8ff" points="1112.5,-220.79 1116,-230.79 1119.5,-220.79 1112.5,-220.79"/>
</a>
</g>
</g>
<!-- Node22&#45;&gt;Node18 -->
<g id="edge32_Node000022_Node000018" class="edge">
<title>Node22&#45;&gt;Node18</title>
<g id="a_edge32_Node000022_Node000018"><a xlink:title=" ">
<path fill="none" stroke="#63b8ff" d="M1168.5,-226.68C1234.49,-196.74 1346.51,-145.91 1407.79,-118.11"/>
<polygon fill="#63b8ff" stroke="#63b8ff" points="1166.77,-223.62 1159.11,-230.94 1169.66,-230 1166.77,-223.62"/>
</a>
</g>
</g>
<!-- Node23&#45;&gt;Node2 -->
<g id="edge35_Node000023_Node000002" class="edge">
<title>Node23&#45;&gt;Node2</title>
<g id="a_edge35_Node000023_Node000002"><a xlink:title=" ">
<path fill="none" stroke="#63b8ff" d="M814.95,-222.96C807.96,-214.21 800.44,-204.37 794,-195 776.37,-169.34 758.51,-138.06 747.6,-118.21"/>
<polygon fill="#63b8ff" stroke="#63b8ff" points="812.42,-225.4 821.44,-230.96 817.86,-220.99 812.42,-225.4"/>
</a>
</g>
</g>
<!-- Node23&#45;&gt;Node10 -->
<g id="edge36_Node000023_Node000010" class="edge">
<title>Node23&#45;&gt;Node10</title>
<g id="a_edge36_Node000023_Node000010"><a xlink:title=" ">
<path fill="none" stroke="#63b8ff" d="M796.87,-225.59C764.06,-205.86 716.82,-177.75 675,-154 653.61,-141.86 629.44,-128.68 610,-118.22"/>
<polygon fill="#63b8ff" stroke="#63b8ff" points="795.36,-228.77 805.73,-230.93 798.97,-222.77 795.36,-228.77"/>
</a>
</g>
</g>
<!-- Node23&#45;&gt;Node24 -->
<g id="edge37_Node000023_Node000024" class="edge">
<title>Node23&#45;&gt;Node24</title>
<g id="a_edge37_Node000023_Node000024"><a xlink:title=" ">
<path fill="none" stroke="#63b8ff" d="M852.53,-221.83C857.06,-212.89 861.95,-203.24 866.08,-195.07"/>
<polygon fill="#63b8ff" stroke="#63b8ff" points="849.38,-220.29 847.98,-230.79 855.63,-223.46 849.38,-220.29"/>
</a>
</g>
</g>
<!-- Node25&#45;&gt;Node9 -->
<g id="edge44_Node000025_Node000009" class="edge">
<title>Node25&#45;&gt;Node9</title>
<g id="a_edge44_Node000025_Node000009"><a xlink:title=" ">
<path fill="none" stroke="#63b8ff" d="M491.48,-220.98C493.68,-212.28 496.04,-202.98 498.04,-195.07"/>
<polygon fill="#63b8ff" stroke="#63b8ff" points="488.06,-220.24 488.99,-230.79 494.84,-221.96 488.06,-220.24"/>
</a>
</g>
</g>
<!-- Node25&#45;&gt;Node12 -->
<g id="edge43_Node000025_Node000012" class="edge">
<title>Node25&#45;&gt;Node12</title>
<g id="a_edge43_Node000025_Node000012"><a xlink:title=" ">
<path fill="none" stroke="#63b8ff" d="M422.18,-227.41C342.28,-197.57 204.56,-146.14 129.5,-118.11"/>
<polygon fill="#63b8ff" stroke="#63b8ff" points="421.03,-230.72 431.63,-230.94 423.48,-224.16 421.03,-230.72"/>
</a>
</g>
</g>
</g>
</svg>
