<?xml version="1.0" encoding="UTF-8" standalone="no"?>
<!DOCTYPE svg PUBLIC "-//W3C//DTD SVG 1.1//EN"
 "http://www.w3.org/Graphics/SVG/1.1/DTD/svg11.dtd">
<!-- Generated by graphviz version 2.43.0 (0)
 -->
<!-- Title: /home/runner/work/realm/realm/realm&#45;src/src/realm/ucx/bootstrap/p2p_comm.h Pages: 1 -->
<svg width="816pt" height="269pt"
 viewBox="0.00 0.00 815.50 269.00" xmlns="http://www.w3.org/2000/svg" xmlns:xlink="http://www.w3.org/1999/xlink">
<g id="graph0" class="graph" transform="scale(1 1) rotate(0) translate(4 265)">
<title>/home/runner/work/realm/realm/realm&#45;src/src/realm/ucx/bootstrap/p2p_comm.h</title>
<!-- Node1 -->
<g id="Node000001" class="node">
<title>Node1</title>
<g id="a_Node000001"><a xlink:title=" ">
<polygon fill="#999999" stroke="#666666" points="318,-261 166,-261 166,-220 318,-220 318,-261"/>
<text text-anchor="start" x="174" y="-249" font-family="Helvetica,sans-Serif" font-size="10.00">/home/runner/work/realm</text>
<text text-anchor="start" x="174" y="-238" font-family="Helvetica,sans-Serif" font-size="10.00">/realm/realm&#45;src/src/realm</text>
<text text-anchor="middle" x="242" y="-227" font-family="Helvetica,sans-Serif" font-size="10.00">/ucx/bootstrap/p2p_comm.h</text>
</a>
</g>
</g>
<!-- Node2 -->
<g id="Node000002" class="node">
<title>Node2</title>
<g id="a_Node000002"><a xlink:title=" ">
<polygon fill="#e0e0e0" stroke="#999999" points="52,-184 0,-184 0,-165 52,-165 52,-184"/>
<text text-anchor="middle" x="26" y="-172" font-family="Helvetica,sans-Serif" font-size="10.00">cassert</text>
</a>
</g>
</g>
<!-- Node1&#45;&gt;Node2 -->
<g id="edge1_Node000001_Node000002" class="edge">
<title>Node1&#45;&gt;Node2</title>
<g id="a_edge1_Node000001_Node000002"><a xlink:title=" ">
<path fill="none" stroke="#63b8ff" d="M176.02,-219.95C138.57,-208.85 93.13,-195.39 62.14,-186.21"/>
<polygon fill="#63b8ff" stroke="#63b8ff" points="62.8,-182.75 52.22,-183.27 60.81,-189.46 62.8,-182.75"/>
</a>
</g>
</g>
<!-- Node3 -->
<g id="Node000003" class="node">
<title>Node3</title>
<g id="a_Node000003"><a xlink:title=" ">
<polygon fill="#e0e0e0" stroke="#999999" points="120,-184 70,-184 70,-165 120,-165 120,-184"/>
<text text-anchor="middle" x="95" y="-172" font-family="Helvetica,sans-Serif" font-size="10.00">cstdint</text>
</a>
</g>
</g>
<!-- Node1&#45;&gt;Node3 -->
<g id="edge2_Node000001_Node000003" class="edge">
<title>Node1&#45;&gt;Node3</title>
<g id="a_edge2_Node000001_Node000003"><a xlink:title=" ">
<path fill="none" stroke="#63b8ff" d="M197.1,-219.95C173.33,-209.6 144.85,-197.2 124.01,-188.13"/>
<polygon fill="#63b8ff" stroke="#63b8ff" points="125.3,-184.87 114.73,-184.09 122.51,-191.29 125.3,-184.87"/>
</a>
</g>
</g>
<!-- Node4 -->
<g id="Node000004" class="node">
<title>Node4</title>
<g id="a_Node000004"><a xlink:title=" ">
<polygon fill="#e0e0e0" stroke="#999999" points="178,-19 118,-19 118,0 178,0 178,-19"/>
<text text-anchor="middle" x="148" y="-7" font-family="Helvetica,sans-Serif" font-size="10.00">iostream</text>
</a>
</g>
</g>
<!-- Node1&#45;&gt;Node4 -->
<g id="edge3_Node000001_Node000004" class="edge">
<title>Node1&#45;&gt;Node4</title>
<g id="a_edge3_Node000001_Node000004"><a xlink:title=" ">
<path fill="none" stroke="#63b8ff" d="M233.89,-219.99C229.47,-209.35 223.92,-195.96 219,-184 195.72,-127.47 168.37,-60.48 155.47,-28.82"/>
<polygon fill="#63b8ff" stroke="#63b8ff" points="158.55,-27.11 151.53,-19.17 152.07,-29.75 158.55,-27.11"/>
</a>
</g>
</g>
<!-- Node5 -->
<g id="Node000005" class="node">
<title>Node5</title>
<g id="a_Node000005"><a xlink:title=" ">
<polygon fill="#e0e0e0" stroke="#999999" points="254,-19 196,-19 196,0 254,0 254,-19"/>
<text text-anchor="middle" x="225" y="-7" font-family="Helvetica,sans-Serif" font-size="10.00">memory</text>
</a>
</g>
</g>
<!-- Node1&#45;&gt;Node5 -->
<g id="edge4_Node000001_Node000005" class="edge">
<title>Node1&#45;&gt;Node5</title>
<g id="a_edge4_Node000001_Node000005"><a xlink:title=" ">
<path fill="none" stroke="#63b8ff" d="M236.13,-219.87C227.28,-189.11 210.91,-127.55 205,-74 204.07,-65.61 203.23,-63.26 205,-55 206.97,-45.8 211,-36.2 214.93,-28.29"/>
<polygon fill="#63b8ff" stroke="#63b8ff" points="218.09,-29.79 219.68,-19.32 211.91,-26.51 218.09,-29.79"/>
</a>
</g>
</g>
<!-- Node6 -->
<g id="Node000006" class="node">
<title>Node6</title>
<g id="a_Node000006"><a xlink:href="client_8h.html" target="_top" xlink:title=" ">
<polygon fill="white" stroke="#666666" points="388.5,-129 335.5,-129 335.5,-110 388.5,-110 388.5,-129"/>
<text text-anchor="middle" x="362" y="-117" font-family="Helvetica,sans-Serif" font-size="10.00">client.h</text>
</a>
</g>
</g>
<!-- Node1&#45;&gt;Node6 -->
<g id="edge5_Node000001_Node000006" class="edge">
<title>Node1&#45;&gt;Node6</title>
<g id="a_edge5_Node000001_Node000006"><a xlink:title=" ">
<path fill="none" stroke="#63b8ff" d="M261.82,-219.85C285.41,-196.45 324.36,-157.83 346.09,-136.28"/>
<polygon fill="#63b8ff" stroke="#63b8ff" points="348.62,-138.7 353.25,-129.18 343.69,-133.73 348.62,-138.7"/>
</a>
</g>
</g>
<!-- Node11 -->
<g id="Node000011" class="node">
<title>Node11</title>
<g id="a_Node000011"><a xlink:href="logger_8h.html" target="_top" xlink:title=" ">
<polygon fill="white" stroke="#666666" points="270,-74 214,-74 214,-55 270,-55 270,-74"/>
<text text-anchor="middle" x="242" y="-62" font-family="Helvetica,sans-Serif" font-size="10.00">logger.h</text>
</a>
</g>
</g>
<!-- Node1&#45;&gt;Node11 -->
<g id="edge17_Node000001_Node000011" class="edge">
<title>Node1&#45;&gt;Node11</title>
<g id="a_edge17_Node000001_Node000011"><a xlink:title=" ">
<path fill="none" stroke="#63b8ff" d="M242,-219.88C242,-186.17 242,-117.69 242,-84.45"/>
<polygon fill="#63b8ff" stroke="#63b8ff" points="245.5,-84.27 242,-74.27 238.5,-84.27 245.5,-84.27"/>
</a>
</g>
</g>
<!-- Node13 -->
<g id="Node000013" class="node">
<title>Node13</title>
<g id="a_Node000013"><a xlink:href="types_8h.html" target="_top" xlink:title=" ">
<polygon fill="white" stroke="#666666" points="807.5,-74 754.5,-74 754.5,-55 807.5,-55 807.5,-74"/>
<text text-anchor="middle" x="781" y="-62" font-family="Helvetica,sans-Serif" font-size="10.00">types.h</text>
</a>
</g>
</g>
<!-- Node1&#45;&gt;Node13 -->
<g id="edge18_Node000001_Node000013" class="edge">
<title>Node1&#45;&gt;Node13</title>
<g id="a_edge18_Node000001_Node000013"><a xlink:title=" ">
<path fill="none" stroke="#63b8ff" d="M318.32,-229.69C407.81,-216.07 558.89,-186.34 677,-129 707.04,-114.42 739.57,-93.68 760.1,-79.92"/>
<polygon fill="#63b8ff" stroke="#63b8ff" points="762.32,-82.64 768.64,-74.13 758.39,-76.85 762.32,-82.64"/>
</a>
</g>
</g>
<!-- Node16 -->
<g id="Node000016" class="node">
<title>Node16</title>
<g id="a_Node000016"><a xlink:href="server_8h.html" target="_top" xlink:title=" ">
<polygon fill="white" stroke="#666666" points="631,-129 575,-129 575,-110 631,-110 631,-129"/>
<text text-anchor="middle" x="603" y="-117" font-family="Helvetica,sans-Serif" font-size="10.00">server.h</text>
</a>
</g>
</g>
<!-- Node1&#45;&gt;Node16 -->
<g id="edge19_Node000001_Node000016" class="edge">
<title>Node1&#45;&gt;Node16</title>
<g id="a_edge19_Node000001_Node000016"><a xlink:title=" ">
<path fill="none" stroke="#63b8ff" d="M318.1,-229.58C369.81,-221.24 439.08,-206.93 497,-184 529.14,-171.27 562.82,-149.41 583.37,-134.95"/>
<polygon fill="#63b8ff" stroke="#63b8ff" points="585.48,-137.74 591.58,-129.07 581.41,-132.05 585.48,-137.74"/>
</a>
</g>
</g>
<!-- Node18 -->
<g id="Node000018" class="node">
<title>Node18</title>
<g id="a_Node000018"><a xlink:href="worker_8h.html" target="_top" xlink:title=" ">
<polygon fill="white" stroke="#666666" points="488,-184 430,-184 430,-165 488,-165 488,-184"/>
<text text-anchor="middle" x="459" y="-172" font-family="Helvetica,sans-Serif" font-size="10.00">worker.h</text>
</a>
</g>
</g>
<!-- Node1&#45;&gt;Node18 -->
<g id="edge26_Node000001_Node000018" class="edge">
<title>Node1&#45;&gt;Node18</title>
<g id="a_edge26_Node000001_Node000018"><a xlink:title=" ">
<path fill="none" stroke="#63b8ff" d="M308.29,-219.95C344.9,-209.15 389.12,-196.11 420.16,-186.95"/>
<polygon fill="#63b8ff" stroke="#63b8ff" points="421.55,-190.19 430.15,-184.01 419.57,-183.48 421.55,-190.19"/>
</a>
</g>
</g>
<!-- Node7 -->
<g id="Node000007" class="node">
<title>Node7</title>
<g id="a_Node000007"><a xlink:title=" ">
<polygon fill="#e0e0e0" stroke="#999999" points="336,-74 288,-74 288,-55 336,-55 336,-74"/>
<text text-anchor="middle" x="312" y="-62" font-family="Helvetica,sans-Serif" font-size="10.00">thread</text>
</a>
</g>
</g>
<!-- Node6&#45;&gt;Node7 -->
<g id="edge6_Node000006_Node000007" class="edge">
<title>Node6&#45;&gt;Node7</title>
<g id="a_edge6_Node000006_Node000007"><a xlink:title=" ">
<path fill="none" stroke="#63b8ff" d="M353.74,-109.75C346.54,-102.11 335.89,-90.82 327.15,-81.56"/>
<polygon fill="#63b8ff" stroke="#63b8ff" points="329.51,-78.96 320.1,-74.09 324.42,-83.76 329.51,-78.96"/>
</a>
</g>
</g>
<!-- Node8 -->
<g id="Node000008" class="node">
<title>Node8</title>
<g id="a_Node000008"><a xlink:title=" ">
<polygon fill="#e0e0e0" stroke="#999999" points="602.5,-74 509.5,-74 509.5,-55 602.5,-55 602.5,-74"/>
<text text-anchor="middle" x="556" y="-62" font-family="Helvetica,sans-Serif" font-size="10.00">unordered_map</text>
</a>
</g>
</g>
<!-- Node6&#45;&gt;Node8 -->
<g id="edge7_Node000006_Node000008" class="edge">
<title>Node6&#45;&gt;Node8</title>
<g id="a_edge7_Node000006_Node000008"><a xlink:title=" ">
<path fill="none" stroke="#63b8ff" d="M388.57,-111.24C421.15,-102.34 476.72,-87.16 514.85,-76.74"/>
<polygon fill="#63b8ff" stroke="#63b8ff" points="515.9,-80.08 524.62,-74.07 514.05,-73.33 515.9,-80.08"/>
</a>
</g>
</g>
<!-- Node9 -->
<g id="Node000009" class="node">
<title>Node9</title>
<g id="a_Node000009"><a xlink:title=" ">
<polygon fill="#e0e0e0" stroke="#999999" points="491.5,-74 444.5,-74 444.5,-55 491.5,-55 491.5,-74"/>
<text text-anchor="middle" x="468" y="-62" font-family="Helvetica,sans-Serif" font-size="10.00">vector</text>
</a>
</g>
</g>
<!-- Node6&#45;&gt;Node9 -->
<g id="edge8_Node000006_Node000009" class="edge">
<title>Node6&#45;&gt;Node9</title>
<g id="a_edge8_Node000006_Node000009"><a xlink:title=" ">
<path fill="none" stroke="#63b8ff" d="M379.03,-109.98C395.93,-101.54 422.06,-88.47 441.64,-78.68"/>
<polygon fill="#63b8ff" stroke="#63b8ff" points="443.28,-81.77 450.66,-74.17 440.15,-75.51 443.28,-81.77"/>
</a>
</g>
</g>
<!-- Node10 -->
<g id="Node000010" class="node">
<title>Node10</title>
<g id="a_Node000010"><a xlink:title=" ">
<polygon fill="#e0e0e0" stroke="#999999" points="426,-74 354,-74 354,-55 426,-55 426,-74"/>
<text text-anchor="middle" x="390" y="-62" font-family="Helvetica,sans-Serif" font-size="10.00">netinet/in.h</text>
</a>
</g>
</g>
<!-- Node6&#45;&gt;Node10 -->
<g id="edge9_Node000006_Node000010" class="edge">
<title>Node6&#45;&gt;Node10</title>
<g id="a_edge9_Node000006_Node000010"><a xlink:title=" ">
<path fill="none" stroke="#63b8ff" d="M366.62,-109.75C370.46,-102.49 376.02,-91.95 380.76,-82.98"/>
<polygon fill="#63b8ff" stroke="#63b8ff" points="383.89,-84.57 385.46,-74.09 377.7,-81.3 383.89,-84.57"/>
</a>
</g>
</g>
<!-- Node6&#45;&gt;Node11 -->
<g id="edge10_Node000006_Node000011" class="edge">
<title>Node6&#45;&gt;Node11</title>
<g id="a_edge10_Node000006_Node000011"><a xlink:title=" ">
<path fill="none" stroke="#63b8ff" d="M342.72,-109.98C323.33,-101.42 293.19,-88.11 270.93,-78.28"/>
<polygon fill="#63b8ff" stroke="#63b8ff" points="272.19,-75.01 261.63,-74.17 269.36,-81.41 272.19,-75.01"/>
</a>
</g>
</g>
<!-- Node6&#45;&gt;Node13 -->
<g id="edge14_Node000006_Node000013" class="edge">
<title>Node6&#45;&gt;Node13</title>
<g id="a_edge14_Node000006_Node000013"><a xlink:title=" ">
<path fill="none" stroke="#63b8ff" d="M388.68,-111.63C391.48,-111.02 394.29,-110.47 397,-110 547.37,-84.11 590.49,-99.75 744.05,-74.12"/>
<polygon fill="#63b8ff" stroke="#63b8ff" points="745.05,-77.5 754.32,-72.37 743.88,-70.6 745.05,-77.5"/>
</a>
</g>
</g>
<!-- Node11&#45;&gt;Node4 -->
<g id="edge11_Node000011_Node000004" class="edge">
<title>Node11&#45;&gt;Node4</title>
<g id="a_edge11_Node000011_Node000004"><a xlink:title=" ">
<path fill="none" stroke="#63b8ff" d="M226.9,-54.98C212.18,-46.69 189.58,-33.94 172.33,-24.22"/>
<polygon fill="#63b8ff" stroke="#63b8ff" points="173.81,-21.03 163.38,-19.17 170.37,-27.13 173.81,-21.03"/>
</a>
</g>
</g>
<!-- Node11&#45;&gt;Node5 -->
<g id="edge12_Node000011_Node000005" class="edge">
<title>Node11&#45;&gt;Node5</title>
<g id="a_edge12_Node000011_Node000005"><a xlink:title=" ">
<path fill="none" stroke="#63b8ff" d="M239.19,-54.75C236.94,-47.72 233.7,-37.62 230.88,-28.84"/>
<polygon fill="#63b8ff" stroke="#63b8ff" points="234.14,-27.54 227.75,-19.09 227.48,-29.68 234.14,-27.54"/>
</a>
</g>
</g>
<!-- Node12 -->
<g id="Node000012" class="node">
<title>Node12</title>
<g id="a_Node000012"><a xlink:title=" ">
<polygon fill="#e0e0e0" stroke="#999999" points="327.5,-19 272.5,-19 272.5,0 327.5,0 327.5,-19"/>
<text text-anchor="middle" x="300" y="-7" font-family="Helvetica,sans-Serif" font-size="10.00">fstream</text>
</a>
</g>
</g>
<!-- Node11&#45;&gt;Node12 -->
<g id="edge13_Node000011_Node000012" class="edge">
<title>Node11&#45;&gt;Node12</title>
<g id="a_edge13_Node000011_Node000012"><a xlink:title=" ">
<path fill="none" stroke="#63b8ff" d="M251.32,-54.98C259.81,-47.23 272.56,-35.58 282.88,-26.14"/>
<polygon fill="#63b8ff" stroke="#63b8ff" points="285.49,-28.5 290.51,-19.17 280.77,-23.33 285.49,-28.5"/>
</a>
</g>
</g>
<!-- Node14 -->
<g id="Node000014" class="node">
<title>Node14</title>
<g id="a_Node000014"><a xlink:title=" ">
<polygon fill="#e0e0e0" stroke="#999999" points="804,-19 758,-19 758,0 804,0 804,-19"/>
<text text-anchor="middle" x="781" y="-7" font-family="Helvetica,sans-Serif" font-size="10.00">cstdio</text>
</a>
</g>
</g>
<!-- Node13&#45;&gt;Node14 -->
<g id="edge15_Node000013_Node000014" class="edge">
<title>Node13&#45;&gt;Node14</title>
<g id="a_edge15_Node000013_Node000014"><a xlink:title=" ">
<path fill="none" stroke="#63b8ff" d="M781,-54.75C781,-47.8 781,-37.85 781,-29.13"/>
<polygon fill="#63b8ff" stroke="#63b8ff" points="784.5,-29.09 781,-19.09 777.5,-29.09 784.5,-29.09"/>
</a>
</g>
</g>
<!-- Node15 -->
<g id="Node000015" class="node">
<title>Node15</title>
<g id="a_Node000015"><a xlink:title=" ">
<polygon fill="#e0e0e0" stroke="#999999" points="696,-19 652,-19 652,0 696,0 696,-19"/>
<text text-anchor="middle" x="674" y="-7" font-family="Helvetica,sans-Serif" font-size="10.00">string</text>
</a>
</g>
</g>
<!-- Node13&#45;&gt;Node15 -->
<g id="edge16_Node000013_Node000015" class="edge">
<title>Node13&#45;&gt;Node15</title>
<g id="a_edge16_Node000013_Node000015"><a xlink:title=" ">
<path fill="none" stroke="#63b8ff" d="M763.81,-54.98C746.75,-46.54 720.37,-33.47 700.6,-23.68"/>
<polygon fill="#63b8ff" stroke="#63b8ff" points="702.02,-20.47 691.5,-19.17 698.91,-26.75 702.02,-20.47"/>
</a>
</g>
</g>
<!-- Node16&#45;&gt;Node8 -->
<g id="edge21_Node000016_Node000008" class="edge">
<title>Node16&#45;&gt;Node8</title>
<g id="a_edge21_Node000016_Node000008"><a xlink:title=" ">
<path fill="none" stroke="#63b8ff" d="M595.24,-109.75C588.53,-102.18 578.66,-91.05 570.49,-81.84"/>
<polygon fill="#63b8ff" stroke="#63b8ff" points="572.87,-79.25 563.62,-74.09 567.63,-83.89 572.87,-79.25"/>
</a>
</g>
</g>
<!-- Node16&#45;&gt;Node9 -->
<g id="edge22_Node000016_Node000009" class="edge">
<title>Node16&#45;&gt;Node9</title>
<g id="a_edge22_Node000016_Node000009"><a xlink:title=" ">
<path fill="none" stroke="#63b8ff" d="M581.31,-109.98C559.2,-101.3 524.68,-87.75 499.55,-77.88"/>
<polygon fill="#63b8ff" stroke="#63b8ff" points="500.67,-74.57 490.08,-74.17 498.11,-81.08 500.67,-74.57"/>
</a>
</g>
</g>
<!-- Node16&#45;&gt;Node11 -->
<g id="edge24_Node000016_Node000011" class="edge">
<title>Node16&#45;&gt;Node11</title>
<g id="a_edge24_Node000016_Node000011"><a xlink:title=" ">
<path fill="none" stroke="#63b8ff" d="M574.88,-114.97C510.22,-106.79 351.65,-86.44 280.13,-74.03"/>
<polygon fill="#63b8ff" stroke="#63b8ff" points="280.69,-70.57 270.23,-72.26 279.46,-77.46 280.69,-70.57"/>
</a>
</g>
</g>
<!-- Node16&#45;&gt;Node13 -->
<g id="edge25_Node000016_Node000013" class="edge">
<title>Node16&#45;&gt;Node13</title>
<g id="a_edge25_Node000016_Node000013"><a xlink:title=" ">
<path fill="none" stroke="#63b8ff" d="M631.2,-110.1C661.85,-100.98 710.93,-86.36 744.5,-76.37"/>
<polygon fill="#63b8ff" stroke="#63b8ff" points="745.8,-79.63 754.38,-73.43 743.8,-72.93 745.8,-79.63"/>
</a>
</g>
</g>
<!-- Node16&#45;&gt;Node15 -->
<g id="edge20_Node000016_Node000015" class="edge">
<title>Node16&#45;&gt;Node15</title>
<g id="a_edge20_Node000016_Node000015"><a xlink:title=" ">
<path fill="none" stroke="#63b8ff" d="M608.81,-109.66C620.57,-91.77 647.37,-51 662.7,-27.69"/>
<polygon fill="#63b8ff" stroke="#63b8ff" points="665.74,-29.44 668.31,-19.16 659.89,-25.59 665.74,-29.44"/>
</a>
</g>
</g>
<!-- Node17 -->
<g id="Node000017" class="node">
<title>Node17</title>
<g id="a_Node000017"><a xlink:title=" ">
<polygon fill="#e0e0e0" stroke="#999999" points="736.5,-74 659.5,-74 659.5,-55 736.5,-55 736.5,-74"/>
<text text-anchor="middle" x="698" y="-62" font-family="Helvetica,sans-Serif" font-size="10.00">sys/socket.h</text>
</a>
</g>
</g>
<!-- Node16&#45;&gt;Node17 -->
<g id="edge23_Node000016_Node000017" class="edge">
<title>Node16&#45;&gt;Node17</title>
<g id="a_edge23_Node000016_Node000017"><a xlink:title=" ">
<path fill="none" stroke="#63b8ff" d="M618.26,-109.98C633.13,-101.69 655.98,-88.94 673.42,-79.22"/>
<polygon fill="#63b8ff" stroke="#63b8ff" points="675.43,-82.1 682.46,-74.17 672.02,-75.99 675.43,-82.1"/>
</a>
</g>
</g>
<!-- Node18&#45;&gt;Node6 -->
<g id="edge30_Node000018_Node000006" class="edge">
<title>Node18&#45;&gt;Node6</title>
<g id="a_edge30_Node000018_Node000006"><a xlink:title=" ">
<path fill="none" stroke="#63b8ff" d="M443.42,-164.98C428.23,-156.69 404.9,-143.94 387.1,-134.22"/>
<polygon fill="#63b8ff" stroke="#63b8ff" points="388.32,-130.89 377.87,-129.17 384.97,-137.04 388.32,-130.89"/>
</a>
</g>
</g>
<!-- Node18&#45;&gt;Node8 -->
<g id="edge28_Node000018_Node000008" class="edge">
<title>Node18&#45;&gt;Node8</title>
<g id="a_edge28_Node000018_Node000008"><a xlink:title=" ">
<path fill="none" stroke="#63b8ff" d="M478.17,-164.99C493.38,-157.41 514.3,-145.04 528,-129 539.23,-115.84 546.68,-97.46 551.04,-83.86"/>
<polygon fill="#63b8ff" stroke="#63b8ff" points="554.43,-84.75 553.9,-74.17 547.72,-82.77 554.43,-84.75"/>
</a>
</g>
</g>
<!-- Node18&#45;&gt;Node11 -->
<g id="edge31_Node000018_Node000011" class="edge">
<title>Node18&#45;&gt;Node11</title>
<g id="a_edge31_Node000018_Node000011"><a xlink:title=" ">
<path fill="none" stroke="#63b8ff" d="M429.89,-166.68C402.18,-159.52 359.82,-146.82 326,-129 300.66,-115.64 274.87,-94.85 258.68,-80.72"/>
<polygon fill="#63b8ff" stroke="#63b8ff" points="260.93,-78.05 251.13,-74.02 256.28,-83.28 260.93,-78.05"/>
</a>
</g>
</g>
<!-- Node18&#45;&gt;Node13 -->
<g id="edge33_Node000018_Node000013" class="edge">
<title>Node18&#45;&gt;Node13</title>
<g id="a_edge33_Node000018_Node000013"><a xlink:title=" ">
<path fill="none" stroke="#63b8ff" d="M488.31,-168.01C524.5,-160.84 587.69,-147.04 640,-129 681.55,-114.67 727.61,-92.7 755.43,-78.72"/>
<polygon fill="#63b8ff" stroke="#63b8ff" points="757.14,-81.78 764.47,-74.14 753.97,-75.54 757.14,-81.78"/>
</a>
</g>
</g>
<!-- Node18&#45;&gt;Node16 -->
<g id="edge32_Node000018_Node000016" class="edge">
<title>Node18&#45;&gt;Node16</title>
<g id="a_edge32_Node000018_Node000016"><a xlink:title=" ">
<path fill="none" stroke="#63b8ff" d="M482.14,-164.98C505.82,-156.27 542.87,-142.63 569.71,-132.75"/>
<polygon fill="#63b8ff" stroke="#63b8ff" points="571.27,-135.91 579.44,-129.17 568.85,-129.34 571.27,-135.91"/>
</a>
</g>
</g>
<!-- Node19 -->
<g id="Node000019" class="node">
<title>Node19</title>
<g id="a_Node000019"><a xlink:title=" ">
<polygon fill="#e0e0e0" stroke="#999999" points="453.5,-129 406.5,-129 406.5,-110 453.5,-110 453.5,-129"/>
<text text-anchor="middle" x="430" y="-117" font-family="Helvetica,sans-Serif" font-size="10.00">cmath</text>
</a>
</g>
</g>
<!-- Node18&#45;&gt;Node19 -->
<g id="edge27_Node000018_Node000019" class="edge">
<title>Node18&#45;&gt;Node19</title>
<g id="a_edge27_Node000018_Node000019"><a xlink:title=" ">
<path fill="none" stroke="#63b8ff" d="M454.21,-164.75C450.24,-157.49 444.47,-146.95 439.57,-137.98"/>
<polygon fill="#63b8ff" stroke="#63b8ff" points="442.57,-136.18 434.7,-129.09 436.43,-139.54 442.57,-136.18"/>
</a>
</g>
</g>
<!-- Node20 -->
<g id="Node000020" class="node">
<title>Node20</title>
<g id="a_Node000020"><a xlink:title=" ">
<polygon fill="#e0e0e0" stroke="#999999" points="518.5,-129 471.5,-129 471.5,-110 518.5,-110 518.5,-129"/>
<text text-anchor="middle" x="495" y="-117" font-family="Helvetica,sans-Serif" font-size="10.00">queue</text>
</a>
</g>
</g>
<!-- Node18&#45;&gt;Node20 -->
<g id="edge29_Node000018_Node000020" class="edge">
<title>Node18&#45;&gt;Node20</title>
<g id="a_edge29_Node000018_Node000020"><a xlink:title=" ">
<path fill="none" stroke="#63b8ff" d="M464.94,-164.75C469.98,-157.34 477.34,-146.5 483.51,-137.41"/>
<polygon fill="#63b8ff" stroke="#63b8ff" points="486.44,-139.33 489.17,-129.09 480.65,-135.39 486.44,-139.33"/>
</a>
</g>
</g>
</g>
</svg>
