<?xml version="1.0" encoding="UTF-8" standalone="no"?>
<!DOCTYPE svg PUBLIC "-//W3C//DTD SVG 1.1//EN"
 "http://www.w3.org/Graphics/SVG/1.1/DTD/svg11.dtd">
<!-- Generated by graphviz version 2.43.0 (0)
 -->
<!-- Title: /home/runner/work/realm/realm/realm&#45;src/src/realm/deppart/partitions.h Pages: 1 -->
<svg width="1060pt" height="280pt"
 viewBox="0.00 0.00 1060.00 280.00" xmlns="http://www.w3.org/2000/svg" xmlns:xlink="http://www.w3.org/1999/xlink">
<g id="graph0" class="graph" transform="scale(1 1) rotate(0) translate(4 276)">
<title>/home/runner/work/realm/realm/realm&#45;src/src/realm/deppart/partitions.h</title>
<!-- Node1 -->
<g id="Node000001" class="node">
<title>Node1</title>
<g id="a_Node000001"><a xlink:title=" ">
<polygon fill="#999999" stroke="#666666" points="474,-272 328,-272 328,-231 474,-231 474,-272"/>
<text text-anchor="start" x="336" y="-260" font-family="Helvetica,sans-Serif" font-size="10.00">/home/runner/work/realm</text>
<text text-anchor="start" x="336" y="-249" font-family="Helvetica,sans-Serif" font-size="10.00">/realm/realm&#45;src/src/realm</text>
<text text-anchor="middle" x="401" y="-238" font-family="Helvetica,sans-Serif" font-size="10.00">/deppart/partitions.h</text>
</a>
</g>
</g>
<!-- Node2 -->
<g id="Node000002" class="node">
<title>Node2</title>
<g id="a_Node000002"><a xlink:href="byfield_8h.html" target="_top" xlink:title=" ">
<polygon fill="white" stroke="#666666" points="146,-195 0,-195 0,-154 146,-154 146,-195"/>
<text text-anchor="start" x="8" y="-183" font-family="Helvetica,sans-Serif" font-size="10.00">/home/runner/work/realm</text>
<text text-anchor="start" x="8" y="-172" font-family="Helvetica,sans-Serif" font-size="10.00">/realm/realm&#45;src/src/realm</text>
<text text-anchor="middle" x="73" y="-161" font-family="Helvetica,sans-Serif" font-size="10.00">/deppart/byfield.h</text>
</a>
</g>
</g>
<!-- Node1&#45;&gt;Node2 -->
<g id="edge1_Node000001_Node000002" class="edge">
<title>Node1&#45;&gt;Node2</title>
<g id="a_edge1_Node000001_Node000002"><a xlink:title=" ">
<path fill="none" stroke="#63b8ff" d="M317.79,-231.98C270.1,-221.3 209.15,-207.55 155,-195 152.15,-194.34 149.24,-193.66 146.31,-192.98"/>
<polygon fill="#63b8ff" stroke="#63b8ff" points="317.23,-235.44 327.75,-234.21 318.76,-228.61 317.23,-235.44"/>
</a>
</g>
</g>
<!-- Node3 -->
<g id="Node000003" class="node">
<title>Node3</title>
<g id="a_Node000003"><a xlink:href="image_8h.html" target="_top" xlink:title=" ">
<polygon fill="white" stroke="#666666" points="310,-195 164,-195 164,-154 310,-154 310,-195"/>
<text text-anchor="start" x="172" y="-183" font-family="Helvetica,sans-Serif" font-size="10.00">/home/runner/work/realm</text>
<text text-anchor="start" x="172" y="-172" font-family="Helvetica,sans-Serif" font-size="10.00">/realm/realm&#45;src/src/realm</text>
<text text-anchor="middle" x="237" y="-161" font-family="Helvetica,sans-Serif" font-size="10.00">/deppart/image.h</text>
</a>
</g>
</g>
<!-- Node1&#45;&gt;Node3 -->
<g id="edge2_Node000001_Node000003" class="edge">
<title>Node1&#45;&gt;Node3</title>
<g id="a_edge2_Node000001_Node000003"><a xlink:title=" ">
<path fill="none" stroke="#63b8ff" d="M349.01,-226.72C326.68,-216.51 300.92,-204.73 279.73,-195.04"/>
<polygon fill="#63b8ff" stroke="#63b8ff" points="347.79,-230.01 358.34,-230.99 350.7,-223.65 347.79,-230.01"/>
</a>
</g>
</g>
<!-- Node4 -->
<g id="Node000004" class="node">
<title>Node4</title>
<g id="a_Node000004"><a xlink:href="preimage_8h.html" target="_top" xlink:title=" ">
<polygon fill="white" stroke="#666666" points="474,-195 328,-195 328,-154 474,-154 474,-195"/>
<text text-anchor="start" x="336" y="-183" font-family="Helvetica,sans-Serif" font-size="10.00">/home/runner/work/realm</text>
<text text-anchor="start" x="336" y="-172" font-family="Helvetica,sans-Serif" font-size="10.00">/realm/realm&#45;src/src/realm</text>
<text text-anchor="middle" x="401" y="-161" font-family="Helvetica,sans-Serif" font-size="10.00">/deppart/preimage.h</text>
</a>
</g>
</g>
<!-- Node1&#45;&gt;Node4 -->
<g id="edge3_Node000001_Node000004" class="edge">
<title>Node1&#45;&gt;Node4</title>
<g id="a_edge3_Node000001_Node000004"><a xlink:title=" ">
<path fill="none" stroke="#63b8ff" d="M401,-220.69C401,-212.08 401,-202.9 401,-195.07"/>
<polygon fill="#63b8ff" stroke="#63b8ff" points="397.5,-220.79 401,-230.79 404.5,-220.79 397.5,-220.79"/>
</a>
</g>
</g>
<!-- Node5 -->
<g id="Node000005" class="node">
<title>Node5</title>
<g id="a_Node000005"><a xlink:href="setops_8h.html" target="_top" xlink:title=" ">
<polygon fill="white" stroke="#666666" points="638,-195 492,-195 492,-154 638,-154 638,-195"/>
<text text-anchor="start" x="500" y="-183" font-family="Helvetica,sans-Serif" font-size="10.00">/home/runner/work/realm</text>
<text text-anchor="start" x="500" y="-172" font-family="Helvetica,sans-Serif" font-size="10.00">/realm/realm&#45;src/src/realm</text>
<text text-anchor="middle" x="565" y="-161" font-family="Helvetica,sans-Serif" font-size="10.00">/deppart/setops.h</text>
</a>
</g>
</g>
<!-- Node1&#45;&gt;Node5 -->
<g id="edge4_Node000001_Node000005" class="edge">
<title>Node1&#45;&gt;Node5</title>
<g id="a_edge4_Node000001_Node000005"><a xlink:title=" ">
<path fill="none" stroke="#63b8ff" d="M452.99,-226.72C475.32,-216.51 501.08,-204.73 522.27,-195.04"/>
<polygon fill="#63b8ff" stroke="#63b8ff" points="451.3,-223.65 443.66,-230.99 454.21,-230.01 451.3,-223.65"/>
</a>
</g>
</g>
<!-- Node6 -->
<g id="Node000006" class="node">
<title>Node6</title>
<g id="a_Node000006"><a xlink:href="runtime__impl_8h.html" target="_top" xlink:title=" ">
<polygon fill="white" stroke="#666666" points="802,-195 656,-195 656,-154 802,-154 802,-195"/>
<text text-anchor="start" x="664" y="-183" font-family="Helvetica,sans-Serif" font-size="10.00">/home/runner/work/realm</text>
<text text-anchor="start" x="664" y="-172" font-family="Helvetica,sans-Serif" font-size="10.00">/realm/realm&#45;src/src/realm</text>
<text text-anchor="middle" x="729" y="-161" font-family="Helvetica,sans-Serif" font-size="10.00">/runtime_impl.h</text>
</a>
</g>
</g>
<!-- Node1&#45;&gt;Node6 -->
<g id="edge5_Node000001_Node000006" class="edge">
<title>Node1&#45;&gt;Node6</title>
<g id="a_edge5_Node000001_Node000006"><a xlink:title=" ">
<path fill="none" stroke="#63b8ff" d="M484.21,-231.98C531.9,-221.3 592.85,-207.55 647,-195 649.85,-194.34 652.76,-193.66 655.69,-192.98"/>
<polygon fill="#63b8ff" stroke="#63b8ff" points="483.24,-228.61 474.25,-234.21 484.77,-235.44 483.24,-228.61"/>
</a>
</g>
</g>
<!-- Node7 -->
<g id="Node000007" class="node">
<title>Node7</title>
<g id="a_Node000007"><a xlink:href="proc__impl_8h.html" target="_top" xlink:title=" ">
<polygon fill="white" stroke="#666666" points="636,-118 490,-118 490,-77 636,-77 636,-118"/>
<text text-anchor="start" x="498" y="-106" font-family="Helvetica,sans-Serif" font-size="10.00">/home/runner/work/realm</text>
<text text-anchor="start" x="498" y="-95" font-family="Helvetica,sans-Serif" font-size="10.00">/realm/realm&#45;src/src/realm</text>
<text text-anchor="middle" x="563" y="-84" font-family="Helvetica,sans-Serif" font-size="10.00">/proc_impl.h</text>
</a>
</g>
</g>
<!-- Node6&#45;&gt;Node7 -->
<g id="edge6_Node000006_Node000007" class="edge">
<title>Node6&#45;&gt;Node7</title>
<g id="a_edge6_Node000006_Node000007"><a xlink:title=" ">
<path fill="none" stroke="#63b8ff" d="M676.67,-149.86C654.01,-139.62 627.79,-127.77 606.25,-118.04"/>
<polygon fill="#63b8ff" stroke="#63b8ff" points="675.26,-153.06 685.82,-153.99 678.15,-146.68 675.26,-153.06"/>
</a>
</g>
</g>
<!-- Node13 -->
<g id="Node000013" class="node">
<title>Node13</title>
<g id="a_Node000013"><a xlink:href="lowlevel__dma_8h.html" target="_top" xlink:title=" ">
<polygon fill="white" stroke="#666666" points="968,-118 822,-118 822,-77 968,-77 968,-118"/>
<text text-anchor="start" x="830" y="-106" font-family="Helvetica,sans-Serif" font-size="10.00">/home/runner/work/realm</text>
<text text-anchor="start" x="830" y="-95" font-family="Helvetica,sans-Serif" font-size="10.00">/realm/realm&#45;src/src/realm</text>
<text text-anchor="middle" x="895" y="-84" font-family="Helvetica,sans-Serif" font-size="10.00">/transfer/lowlevel_dma.h</text>
</a>
</g>
</g>
<!-- Node6&#45;&gt;Node13 -->
<g id="edge12_Node000006_Node000013" class="edge">
<title>Node6&#45;&gt;Node13</title>
<g id="a_edge12_Node000006_Node000013"><a xlink:title=" ">
<path fill="none" stroke="#63b8ff" d="M781.33,-149.86C803.99,-139.62 830.21,-127.77 851.75,-118.04"/>
<polygon fill="#63b8ff" stroke="#63b8ff" points="779.85,-146.68 772.18,-153.99 782.74,-153.06 779.85,-146.68"/>
</a>
</g>
</g>
<!-- Node8 -->
<g id="Node000008" class="node">
<title>Node8</title>
<g id="a_Node000008"><a xlink:href="cuda__internal_8h.html" target="_top" xlink:title=" ">
<polygon fill="white" stroke="#666666" points="224,-41 78,-41 78,0 224,0 224,-41"/>
<text text-anchor="start" x="86" y="-29" font-family="Helvetica,sans-Serif" font-size="10.00">/home/runner/work/realm</text>
<text text-anchor="start" x="86" y="-18" font-family="Helvetica,sans-Serif" font-size="10.00">/realm/realm&#45;src/src/realm</text>
<text text-anchor="middle" x="151" y="-7" font-family="Helvetica,sans-Serif" font-size="10.00">/cuda/cuda_internal.h</text>
</a>
</g>
</g>
<!-- Node7&#45;&gt;Node8 -->
<g id="edge7_Node000007_Node000008" class="edge">
<title>Node7&#45;&gt;Node8</title>
<g id="a_edge7_Node000007_Node000008"><a xlink:title=" ">
<path fill="none" stroke="#63b8ff" d="M479.93,-84.1C413.03,-73.74 316.67,-57.97 233,-41 230.13,-40.42 227.21,-39.81 224.26,-39.18"/>
<polygon fill="#63b8ff" stroke="#63b8ff" points="479.58,-87.59 489.99,-85.66 480.64,-80.67 479.58,-87.59"/>
</a>
</g>
</g>
<!-- Node9 -->
<g id="Node000009" class="node">
<title>Node9</title>
<g id="a_Node000009"><a xlink:href="hip__internal_8h.html" target="_top" xlink:title=" ">
<polygon fill="white" stroke="#666666" points="388,-41 242,-41 242,0 388,0 388,-41"/>
<text text-anchor="start" x="250" y="-29" font-family="Helvetica,sans-Serif" font-size="10.00">/home/runner/work/realm</text>
<text text-anchor="start" x="250" y="-18" font-family="Helvetica,sans-Serif" font-size="10.00">/realm/realm&#45;src/src/realm</text>
<text text-anchor="middle" x="315" y="-7" font-family="Helvetica,sans-Serif" font-size="10.00">/hip/hip_internal.h</text>
</a>
</g>
</g>
<!-- Node7&#45;&gt;Node9 -->
<g id="edge8_Node000007_Node000009" class="edge">
<title>Node7&#45;&gt;Node9</title>
<g id="a_edge8_Node000007_Node000009"><a xlink:title=" ">
<path fill="none" stroke="#63b8ff" d="M488.86,-74.08C454.11,-63.57 413.09,-51.16 379.62,-41.04"/>
<polygon fill="#63b8ff" stroke="#63b8ff" points="487.9,-77.45 498.49,-76.99 489.93,-70.75 487.9,-77.45"/>
</a>
</g>
</g>
<!-- Node10 -->
<g id="Node000010" class="node">
<title>Node10</title>
<g id="a_Node000010"><a xlink:href="kokkos__interop_8h.html" target="_top" xlink:title=" ">
<polygon fill="white" stroke="#666666" points="552,-41 406,-41 406,0 552,0 552,-41"/>
<text text-anchor="start" x="414" y="-29" font-family="Helvetica,sans-Serif" font-size="10.00">/home/runner/work/realm</text>
<text text-anchor="start" x="414" y="-18" font-family="Helvetica,sans-Serif" font-size="10.00">/realm/realm&#45;src/src/realm</text>
<text text-anchor="middle" x="479" y="-7" font-family="Helvetica,sans-Serif" font-size="10.00">/kokkos/kokkos_interop.h</text>
</a>
</g>
</g>
<!-- Node7&#45;&gt;Node10 -->
<g id="edge9_Node000007_Node000010" class="edge">
<title>Node7&#45;&gt;Node10</title>
<g id="a_edge9_Node000007_Node000010"><a xlink:title=" ">
<path fill="none" stroke="#63b8ff" d="M533.4,-70.07C522.71,-60.52 510.84,-49.93 500.92,-41.07"/>
<polygon fill="#63b8ff" stroke="#63b8ff" points="531.14,-72.75 540.93,-76.79 535.8,-67.52 531.14,-72.75"/>
</a>
</g>
</g>
<!-- Node11 -->
<g id="Node000011" class="node">
<title>Node11</title>
<g id="a_Node000011"><a xlink:href="openmp__internal_8h.html" target="_top" xlink:title=" ">
<polygon fill="white" stroke="#666666" points="724,-41 570,-41 570,0 724,0 724,-41"/>
<text text-anchor="start" x="578" y="-29" font-family="Helvetica,sans-Serif" font-size="10.00">/home/runner/work/realm</text>
<text text-anchor="start" x="578" y="-18" font-family="Helvetica,sans-Serif" font-size="10.00">/realm/realm&#45;src/src/realm</text>
<text text-anchor="middle" x="647" y="-7" font-family="Helvetica,sans-Serif" font-size="10.00">/openmp/openmp_internal.h</text>
</a>
</g>
</g>
<!-- Node7&#45;&gt;Node11 -->
<g id="edge10_Node000007_Node000011" class="edge">
<title>Node7&#45;&gt;Node11</title>
<g id="a_edge10_Node000007_Node000011"><a xlink:title=" ">
<path fill="none" stroke="#63b8ff" d="M592.6,-70.07C603.29,-60.52 615.16,-49.93 625.08,-41.07"/>
<polygon fill="#63b8ff" stroke="#63b8ff" points="590.2,-67.52 585.07,-76.79 594.86,-72.75 590.2,-67.52"/>
</a>
</g>
</g>
<!-- Node12 -->
<g id="Node000012" class="node">
<title>Node12</title>
<g id="a_Node000012"><a xlink:href="python__internal_8h.html" target="_top" xlink:title=" ">
<polygon fill="white" stroke="#666666" points="888,-41 742,-41 742,0 888,0 888,-41"/>
<text text-anchor="start" x="750" y="-29" font-family="Helvetica,sans-Serif" font-size="10.00">/home/runner/work/realm</text>
<text text-anchor="start" x="750" y="-18" font-family="Helvetica,sans-Serif" font-size="10.00">/realm/realm&#45;src/src/realm</text>
<text text-anchor="middle" x="815" y="-7" font-family="Helvetica,sans-Serif" font-size="10.00">/python/python_internal.h</text>
</a>
</g>
</g>
<!-- Node7&#45;&gt;Node12 -->
<g id="edge11_Node000007_Node000012" class="edge">
<title>Node7&#45;&gt;Node12</title>
<g id="a_edge11_Node000007_Node000012"><a xlink:title=" ">
<path fill="none" stroke="#63b8ff" d="M638.33,-74.08C673.65,-63.57 715.33,-51.16 749.34,-41.04"/>
<polygon fill="#63b8ff" stroke="#63b8ff" points="637.14,-70.78 628.55,-76.99 639.14,-77.49 637.14,-70.78"/>
</a>
</g>
</g>
<!-- Node14 -->
<g id="Node000014" class="node">
<title>Node14</title>
<g id="a_Node000014"><a xlink:href="hdf5__internal_8h.html" target="_top" xlink:title=" ">
<polygon fill="white" stroke="#666666" points="1052,-41 906,-41 906,0 1052,0 1052,-41"/>
<text text-anchor="start" x="914" y="-29" font-family="Helvetica,sans-Serif" font-size="10.00">/home/runner/work/realm</text>
<text text-anchor="start" x="914" y="-18" font-family="Helvetica,sans-Serif" font-size="10.00">/realm/realm&#45;src/src/realm</text>
<text text-anchor="middle" x="979" y="-7" font-family="Helvetica,sans-Serif" font-size="10.00">/hdf5/hdf5_internal.h</text>
</a>
</g>
</g>
<!-- Node13&#45;&gt;Node14 -->
<g id="edge13_Node000013_Node000014" class="edge">
<title>Node13&#45;&gt;Node14</title>
<g id="a_edge13_Node000013_Node000014"><a xlink:title=" ">
<path fill="none" stroke="#63b8ff" d="M924.6,-70.07C935.29,-60.52 947.16,-49.93 957.08,-41.07"/>
<polygon fill="#63b8ff" stroke="#63b8ff" points="922.2,-67.52 917.07,-76.79 926.86,-72.75 922.2,-67.52"/>
</a>
</g>
</g>
</g>
</svg>
