<?xml version="1.0" encoding="UTF-8" standalone="no"?>
<!DOCTYPE svg PUBLIC "-//W3C//DTD SVG 1.1//EN"
 "http://www.w3.org/Graphics/SVG/1.1/DTD/svg11.dtd">
<!-- Generated by graphviz version 2.43.0 (0)
 -->
<!-- Title: /home/runner/work/realm/realm/realm&#45;src/src/realm/point.h Pages: 1 -->
<svg width="1253pt" height="324pt"
 viewBox="0.00 0.00 1252.50 324.00" xmlns="http://www.w3.org/2000/svg" xmlns:xlink="http://www.w3.org/1999/xlink">
<g id="graph0" class="graph" transform="scale(1 1) rotate(0) translate(4 320)">
<title>/home/runner/work/realm/realm/realm&#45;src/src/realm/point.h</title>
<!-- Node1 -->
<g id="Node000001" class="node">
<title>Node1</title>
<g id="a_Node000001"><a xlink:title=" ">
<polygon fill="#999999" stroke="#666666" points="1016.5,-316 870.5,-316 870.5,-275 1016.5,-275 1016.5,-316"/>
<text text-anchor="start" x="878.5" y="-304" font-family="Helvetica,sans-Serif" font-size="10.00">/home/runner/work/realm</text>
<text text-anchor="start" x="878.5" y="-293" font-family="Helvetica,sans-Serif" font-size="10.00">/realm/realm&#45;src/src/realm</text>
<text text-anchor="middle" x="943.5" y="-282" font-family="Helvetica,sans-Serif" font-size="10.00">/point.h</text>
</a>
</g>
</g>
<!-- Node2 -->
<g id="Node000002" class="node">
<title>Node2</title>
<g id="a_Node000002"><a xlink:href="realm__config_8h.html" target="_top" xlink:title=" ">
<polygon fill="white" stroke="#666666" points="175.5,-74 55.5,-74 55.5,-55 175.5,-55 175.5,-74"/>
<text text-anchor="middle" x="115.5" y="-62" font-family="Helvetica,sans-Serif" font-size="10.00">realm/realm_config.h</text>
</a>
</g>
</g>
<!-- Node1&#45;&gt;Node2 -->
<g id="edge1_Node000001_Node000002" class="edge">
<title>Node1&#45;&gt;Node2</title>
<g id="a_edge1_Node000001_Node000002"><a xlink:title=" ">
<path fill="none" stroke="#63b8ff" d="M870.36,-281.47C809.56,-270.51 720.8,-254.25 643.5,-239 409.61,-192.87 273.12,-310.45 118.5,-129 108.11,-116.8 108.54,-98.02 110.86,-84.04"/>
<polygon fill="#63b8ff" stroke="#63b8ff" points="114.32,-84.58 112.95,-74.08 107.47,-83.14 114.32,-84.58"/>
</a>
</g>
</g>
<!-- Node5 -->
<g id="Node000005" class="node">
<title>Node5</title>
<g id="a_Node000005"><a xlink:href="event_8h.html" target="_top" xlink:title=" ">
<polygon fill="white" stroke="#666666" points="849,-239 764,-239 764,-220 849,-220 849,-239"/>
<text text-anchor="middle" x="806.5" y="-227" font-family="Helvetica,sans-Serif" font-size="10.00">realm/event.h</text>
</a>
</g>
</g>
<!-- Node1&#45;&gt;Node5 -->
<g id="edge4_Node000001_Node000005" class="edge">
<title>Node1&#45;&gt;Node5</title>
<g id="a_edge4_Node000001_Node000005"><a xlink:title=" ">
<path fill="none" stroke="#63b8ff" d="M901.65,-274.95C879.71,-264.7 853.44,-252.43 834.07,-243.38"/>
<polygon fill="#63b8ff" stroke="#63b8ff" points="835.43,-240.15 824.89,-239.09 832.47,-246.5 835.43,-240.15"/>
</a>
</g>
</g>
<!-- Node9 -->
<g id="Node000009" class="node">
<title>Node9</title>
<g id="a_Node000009"><a xlink:href="utils_8h.html" target="_top" xlink:title=" ">
<polygon fill="white" stroke="#666666" points="504.5,-184 426.5,-184 426.5,-165 504.5,-165 504.5,-184"/>
<text text-anchor="middle" x="465.5" y="-172" font-family="Helvetica,sans-Serif" font-size="10.00">realm/utils.h</text>
</a>
</g>
</g>
<!-- Node1&#45;&gt;Node9 -->
<g id="edge27_Node000001_Node000009" class="edge">
<title>Node1&#45;&gt;Node9</title>
<g id="a_edge27_Node000001_Node000009"><a xlink:title=" ">
<path fill="none" stroke="#63b8ff" d="M870.38,-276.3C769.83,-251.27 591.99,-206.99 509.63,-186.49"/>
<polygon fill="#63b8ff" stroke="#63b8ff" points="510.39,-183.07 499.84,-184.05 508.7,-189.86 510.39,-183.07"/>
</a>
</g>
</g>
<!-- Node19 -->
<g id="Node000019" class="node">
<title>Node19</title>
<g id="a_Node000019"><a xlink:title=" ">
<polygon fill="#e0e0e0" stroke="#999999" points="1032.5,-129 972.5,-129 972.5,-110 1032.5,-110 1032.5,-129"/>
<text text-anchor="middle" x="1002.5" y="-117" font-family="Helvetica,sans-Serif" font-size="10.00">iostream</text>
</a>
</g>
</g>
<!-- Node1&#45;&gt;Node19 -->
<g id="edge28_Node000001_Node000019" class="edge">
<title>Node1&#45;&gt;Node19</title>
<g id="a_edge28_Node000001_Node000019"><a xlink:title=" ">
<path fill="none" stroke="#63b8ff" d="M957.79,-274.96C972.33,-253.78 993.89,-218.39 1002.5,-184 1006.15,-169.43 1005.91,-152.37 1004.89,-139.61"/>
<polygon fill="#63b8ff" stroke="#63b8ff" points="1008.34,-138.88 1003.83,-129.29 1001.37,-139.6 1008.34,-138.88"/>
</a>
</g>
</g>
<!-- Node22 -->
<g id="Node000022" class="node">
<title>Node22</title>
<g id="a_Node000022"><a xlink:title=" ">
<polygon fill="#e0e0e0" stroke="#999999" points="1138,-239 1069,-239 1069,-220 1138,-220 1138,-239"/>
<text text-anchor="middle" x="1103.5" y="-227" font-family="Helvetica,sans-Serif" font-size="10.00">type_traits</text>
</a>
</g>
</g>
<!-- Node1&#45;&gt;Node22 -->
<g id="edge29_Node000001_Node000022" class="edge">
<title>Node1&#45;&gt;Node22</title>
<g id="a_edge29_Node000001_Node000022"><a xlink:title=" ">
<path fill="none" stroke="#63b8ff" d="M992.37,-274.95C1018.47,-264.51 1049.81,-251.98 1072.54,-242.88"/>
<polygon fill="#63b8ff" stroke="#63b8ff" points="1074.04,-246.06 1082.02,-239.09 1071.44,-239.56 1074.04,-246.06"/>
</a>
</g>
</g>
<!-- Node23 -->
<g id="Node000023" class="node">
<title>Node23</title>
<g id="a_Node000023"><a xlink:title=" ">
<polygon fill="#e0e0e0" stroke="#999999" points="1244.5,-239 1156.5,-239 1156.5,-220 1244.5,-220 1244.5,-239"/>
<text text-anchor="middle" x="1200.5" y="-227" font-family="Helvetica,sans-Serif" font-size="10.00">realm/point.inl</text>
</a>
</g>
</g>
<!-- Node1&#45;&gt;Node23 -->
<g id="edge30_Node000001_Node000023" class="edge">
<title>Node1&#45;&gt;Node23</title>
<g id="a_edge30_Node000001_Node000023"><a xlink:title=" ">
<path fill="none" stroke="#63b8ff" d="M1016.8,-276.25C1061.88,-265.02 1118.15,-251.01 1156.45,-241.47"/>
<polygon fill="#63b8ff" stroke="#63b8ff" points="1157.41,-244.84 1166.27,-239.02 1155.72,-238.04 1157.41,-244.84"/>
</a>
</g>
</g>
<!-- Node3 -->
<g id="Node000003" class="node">
<title>Node3</title>
<g id="a_Node000003"><a xlink:href="realm__defines_8h.html" target="_top" xlink:title=" ">
<polygon fill="white" stroke="#666666" points="95,-19 0,-19 0,0 95,0 95,-19"/>
<text text-anchor="middle" x="47.5" y="-7" font-family="Helvetica,sans-Serif" font-size="10.00">realm_defines.h</text>
</a>
</g>
</g>
<!-- Node2&#45;&gt;Node3 -->
<g id="edge2_Node000002_Node000003" class="edge">
<title>Node2&#45;&gt;Node3</title>
<g id="a_edge2_Node000002_Node000003"><a xlink:title=" ">
<path fill="none" stroke="#63b8ff" d="M104.57,-54.98C94.42,-47.07 79.08,-35.11 66.85,-25.58"/>
<polygon fill="#63b8ff" stroke="#63b8ff" points="68.66,-22.56 58.62,-19.17 64.36,-28.08 68.66,-22.56"/>
</a>
</g>
</g>
<!-- Node4 -->
<g id="Node000004" class="node">
<title>Node4</title>
<g id="a_Node000004"><a xlink:href="compiler__support_8h.html" target="_top" xlink:title=" ">
<polygon fill="white" stroke="#666666" points="255.5,-19 113.5,-19 113.5,0 255.5,0 255.5,-19"/>
<text text-anchor="middle" x="184.5" y="-7" font-family="Helvetica,sans-Serif" font-size="10.00">realm/compiler_support.h</text>
</a>
</g>
</g>
<!-- Node2&#45;&gt;Node4 -->
<g id="edge3_Node000002_Node000004" class="edge">
<title>Node2&#45;&gt;Node4</title>
<g id="a_edge3_Node000002_Node000004"><a xlink:title=" ">
<path fill="none" stroke="#63b8ff" d="M126.59,-54.98C136.99,-47 152.76,-34.88 165.22,-25.31"/>
<polygon fill="#63b8ff" stroke="#63b8ff" points="167.41,-28.04 173.21,-19.17 163.15,-22.49 167.41,-28.04"/>
</a>
</g>
</g>
<!-- Node6 -->
<g id="Node000006" class="node">
<title>Node6</title>
<g id="a_Node000006"><a xlink:href="realm__c_8h.html" target="_top" xlink:title=" ">
<polygon fill="white" stroke="#666666" points="813.5,-129 717.5,-129 717.5,-110 813.5,-110 813.5,-129"/>
<text text-anchor="middle" x="765.5" y="-117" font-family="Helvetica,sans-Serif" font-size="10.00">realm/realm_c.h</text>
</a>
</g>
</g>
<!-- Node5&#45;&gt;Node6 -->
<g id="edge5_Node000005_Node000006" class="edge">
<title>Node5&#45;&gt;Node6</title>
<g id="a_edge5_Node000005_Node000006"><a xlink:title=" ">
<path fill="none" stroke="#63b8ff" d="M763.95,-220.36C743.49,-214.08 720.79,-203.09 708.5,-184 696.27,-165.02 718.82,-146.12 739.06,-133.95"/>
<polygon fill="#63b8ff" stroke="#63b8ff" points="740.8,-136.98 747.78,-129 737.35,-130.89 740.8,-136.98"/>
</a>
</g>
</g>
<!-- Node5&#45;&gt;Node9 -->
<g id="edge9_Node000005_Node000009" class="edge">
<title>Node5&#45;&gt;Node9</title>
<g id="a_edge9_Node000005_Node000009"><a xlink:title=" ">
<path fill="none" stroke="#63b8ff" d="M763.66,-221.84C700.32,-212 582,-193.61 515.03,-183.2"/>
<polygon fill="#63b8ff" stroke="#63b8ff" points="515.16,-179.68 504.74,-181.6 514.08,-186.59 515.16,-179.68"/>
</a>
</g>
</g>
<!-- Node12 -->
<g id="Node000012" class="node">
<title>Node12</title>
<g id="a_Node000012"><a xlink:title=" ">
<polygon fill="#e0e0e0" stroke="#999999" points="699,-129 652,-129 652,-110 699,-110 699,-129"/>
<text text-anchor="middle" x="675.5" y="-117" font-family="Helvetica,sans-Serif" font-size="10.00">vector</text>
</a>
</g>
</g>
<!-- Node5&#45;&gt;Node12 -->
<g id="edge23_Node000005_Node000012" class="edge">
<title>Node5&#45;&gt;Node12</title>
<g id="a_edge23_Node000005_Node000012"><a xlink:title=" ">
<path fill="none" stroke="#63b8ff" d="M766.9,-219.95C744.86,-213.39 718.36,-202.27 700.5,-184 688.47,-171.7 682.05,-152.93 678.74,-138.98"/>
<polygon fill="#63b8ff" stroke="#63b8ff" points="682.14,-138.14 676.7,-129.04 675.28,-139.54 682.14,-138.14"/>
</a>
</g>
</g>
<!-- Node18 -->
<g id="Node000018" class="node">
<title>Node18</title>
<g id="a_Node000018"><a xlink:href="memory_8h.html" target="_top" xlink:title=" ">
<polygon fill="white" stroke="#666666" points="814,-184 717,-184 717,-165 814,-165 814,-184"/>
<text text-anchor="middle" x="765.5" y="-172" font-family="Helvetica,sans-Serif" font-size="10.00">realm/memory.h</text>
</a>
</g>
</g>
<!-- Node5&#45;&gt;Node18 -->
<g id="edge19_Node000005_Node000018" class="edge">
<title>Node5&#45;&gt;Node18</title>
<g id="a_edge19_Node000005_Node000018"><a xlink:title=" ">
<path fill="none" stroke="#63b8ff" d="M799.73,-219.75C793.94,-212.26 785.44,-201.28 778.36,-192.13"/>
<polygon fill="#63b8ff" stroke="#63b8ff" points="781.03,-189.86 772.14,-184.09 775.49,-194.14 781.03,-189.86"/>
</a>
</g>
</g>
<!-- Node5&#45;&gt;Node19 -->
<g id="edge25_Node000005_Node000019" class="edge">
<title>Node5&#45;&gt;Node19</title>
<g id="a_edge25_Node000005_Node000019"><a xlink:title=" ">
<path fill="none" stroke="#63b8ff" d="M849.31,-229.11C889.12,-227.33 947.55,-218.39 983.5,-184 995.57,-172.45 1000.06,-153.58 1001.69,-139.4"/>
<polygon fill="#63b8ff" stroke="#63b8ff" points="1005.19,-139.51 1002.47,-129.27 998.21,-138.97 1005.19,-139.51"/>
</a>
</g>
</g>
<!-- Node20 -->
<g id="Node000020" class="node">
<title>Node20</title>
<g id="a_Node000020"><a xlink:title=" ">
<polygon fill="#e0e0e0" stroke="#999999" points="864.5,-184 832.5,-184 832.5,-165 864.5,-165 864.5,-184"/>
<text text-anchor="middle" x="848.5" y="-172" font-family="Helvetica,sans-Serif" font-size="10.00">set</text>
</a>
</g>
</g>
<!-- Node5&#45;&gt;Node20 -->
<g id="edge24_Node000005_Node000020" class="edge">
<title>Node5&#45;&gt;Node20</title>
<g id="a_edge24_Node000005_Node000020"><a xlink:title=" ">
<path fill="none" stroke="#63b8ff" d="M813.44,-219.75C819.37,-212.26 828.07,-201.28 835.32,-192.13"/>
<polygon fill="#63b8ff" stroke="#63b8ff" points="838.23,-194.1 841.69,-184.09 832.74,-189.75 838.23,-194.1"/>
</a>
</g>
</g>
<!-- Node21 -->
<g id="Node000021" class="node">
<title>Node21</title>
<g id="a_Node000021"><a xlink:title=" ">
<polygon fill="#e0e0e0" stroke="#999999" points="974,-184 883,-184 883,-165 974,-165 974,-184"/>
<text text-anchor="middle" x="928.5" y="-172" font-family="Helvetica,sans-Serif" font-size="10.00">realm/event.inl</text>
</a>
</g>
</g>
<!-- Node5&#45;&gt;Node21 -->
<g id="edge26_Node000005_Node000021" class="edge">
<title>Node5&#45;&gt;Node21</title>
<g id="a_edge26_Node000005_Node000021"><a xlink:title=" ">
<path fill="none" stroke="#63b8ff" d="M826.1,-219.98C845.82,-211.42 876.45,-198.11 899.08,-188.28"/>
<polygon fill="#63b8ff" stroke="#63b8ff" points="900.76,-191.37 908.54,-184.17 897.98,-184.94 900.76,-191.37"/>
</a>
</g>
</g>
<!-- Node6&#45;&gt;Node2 -->
<g id="edge6_Node000006_Node000002" class="edge">
<title>Node6&#45;&gt;Node2</title>
<g id="a_edge6_Node000006_Node000002"><a xlink:title=" ">
<path fill="none" stroke="#63b8ff" d="M717.33,-111.06C714.35,-110.68 711.38,-110.32 708.5,-110 520.21,-88.92 297.13,-75.2 185.91,-69.11"/>
<polygon fill="#63b8ff" stroke="#63b8ff" points="186,-65.61 175.82,-68.57 185.62,-72.6 186,-65.61"/>
</a>
</g>
</g>
<!-- Node7 -->
<g id="Node000007" class="node">
<title>Node7</title>
<g id="a_Node000007"><a xlink:title=" ">
<polygon fill="#e0e0e0" stroke="#999999" points="867.5,-74 811.5,-74 811.5,-55 867.5,-55 867.5,-74"/>
<text text-anchor="middle" x="839.5" y="-62" font-family="Helvetica,sans-Serif" font-size="10.00">stddef.h</text>
</a>
</g>
</g>
<!-- Node6&#45;&gt;Node7 -->
<g id="edge7_Node000006_Node000007" class="edge">
<title>Node6&#45;&gt;Node7</title>
<g id="a_edge7_Node000006_Node000007"><a xlink:title=" ">
<path fill="none" stroke="#63b8ff" d="M777.39,-109.98C788.65,-101.92 805.79,-89.65 819.21,-80.03"/>
<polygon fill="#63b8ff" stroke="#63b8ff" points="821.3,-82.84 827.39,-74.17 817.23,-77.15 821.3,-82.84"/>
</a>
</g>
</g>
<!-- Node8 -->
<g id="Node000008" class="node">
<title>Node8</title>
<g id="a_Node000008"><a xlink:title=" ">
<polygon fill="#e0e0e0" stroke="#999999" points="792,-74 739,-74 739,-55 792,-55 792,-74"/>
<text text-anchor="middle" x="765.5" y="-62" font-family="Helvetica,sans-Serif" font-size="10.00">stdint.h</text>
</a>
</g>
</g>
<!-- Node6&#45;&gt;Node8 -->
<g id="edge8_Node000006_Node000008" class="edge">
<title>Node6&#45;&gt;Node8</title>
<g id="a_edge8_Node000006_Node000008"><a xlink:title=" ">
<path fill="none" stroke="#63b8ff" d="M765.5,-109.75C765.5,-102.8 765.5,-92.85 765.5,-84.13"/>
<polygon fill="#63b8ff" stroke="#63b8ff" points="769,-84.09 765.5,-74.09 762,-84.09 769,-84.09"/>
</a>
</g>
</g>
<!-- Node9&#45;&gt;Node2 -->
<g id="edge10_Node000009_Node000002" class="edge">
<title>Node9&#45;&gt;Node2</title>
<g id="a_edge10_Node000009_Node000002"><a xlink:title=" ">
<path fill="none" stroke="#63b8ff" d="M426.3,-173.39C348.34,-172.37 177.65,-165.86 134.5,-129 121.66,-118.03 117.3,-98.77 115.91,-84.33"/>
<polygon fill="#63b8ff" stroke="#63b8ff" points="119.39,-83.82 115.33,-74.03 112.4,-84.21 119.39,-83.82"/>
</a>
</g>
</g>
<!-- Node10 -->
<g id="Node000010" class="node">
<title>Node10</title>
<g id="a_Node000010"><a xlink:title=" ">
<polygon fill="#e0e0e0" stroke="#999999" points="289.5,-129 245.5,-129 245.5,-110 289.5,-110 289.5,-129"/>
<text text-anchor="middle" x="267.5" y="-117" font-family="Helvetica,sans-Serif" font-size="10.00">string</text>
</a>
</g>
</g>
<!-- Node9&#45;&gt;Node10 -->
<g id="edge11_Node000009_Node000010" class="edge">
<title>Node9&#45;&gt;Node10</title>
<g id="a_edge11_Node000009_Node000010"><a xlink:title=" ">
<path fill="none" stroke="#63b8ff" d="M433.15,-164.95C401.47,-156.57 351.56,-143.31 299.29,-129.2"/>
<polygon fill="#63b8ff" stroke="#63b8ff" points="300.08,-125.79 289.51,-126.56 298.25,-132.54 300.08,-125.79"/>
</a>
</g>
</g>
<!-- Node11 -->
<g id="Node000011" class="node">
<title>Node11</title>
<g id="a_Node000011"><a xlink:title=" ">
<polygon fill="#e0e0e0" stroke="#999999" points="365,-129 308,-129 308,-110 365,-110 365,-129"/>
<text text-anchor="middle" x="336.5" y="-117" font-family="Helvetica,sans-Serif" font-size="10.00">ostream</text>
</a>
</g>
</g>
<!-- Node9&#45;&gt;Node11 -->
<g id="edge12_Node000009_Node000011" class="edge">
<title>Node9&#45;&gt;Node11</title>
<g id="a_edge12_Node000009_Node000011"><a xlink:title=" ">
<path fill="none" stroke="#63b8ff" d="M444.77,-164.98C423.74,-156.34 390.95,-142.87 366.96,-133.02"/>
<polygon fill="#63b8ff" stroke="#63b8ff" points="368.18,-129.73 357.6,-129.17 365.52,-136.21 368.18,-129.73"/>
</a>
</g>
</g>
<!-- Node9&#45;&gt;Node12 -->
<g id="edge13_Node000009_Node000012" class="edge">
<title>Node9&#45;&gt;Node12</title>
<g id="a_edge13_Node000009_Node000012"><a xlink:title=" ">
<path fill="none" stroke="#63b8ff" d="M499.78,-164.94C533.42,-156.53 586.47,-143.24 641.74,-129.18"/>
<polygon fill="#63b8ff" stroke="#63b8ff" points="642.88,-132.5 651.71,-126.64 641.16,-125.72 642.88,-132.5"/>
</a>
</g>
</g>
<!-- Node13 -->
<g id="Node000013" class="node">
<title>Node13</title>
<g id="a_Node000013"><a xlink:title=" ">
<polygon fill="#e0e0e0" stroke="#999999" points="421.5,-129 383.5,-129 383.5,-110 421.5,-110 421.5,-129"/>
<text text-anchor="middle" x="402.5" y="-117" font-family="Helvetica,sans-Serif" font-size="10.00">map</text>
</a>
</g>
</g>
<!-- Node9&#45;&gt;Node13 -->
<g id="edge14_Node000009_Node000013" class="edge">
<title>Node9&#45;&gt;Node13</title>
<g id="a_edge14_Node000009_Node000013"><a xlink:title=" ">
<path fill="none" stroke="#63b8ff" d="M455.38,-164.98C446.06,-157.15 432.03,-145.34 420.76,-135.86"/>
<polygon fill="#63b8ff" stroke="#63b8ff" points="422.71,-132.93 412.81,-129.17 418.21,-138.29 422.71,-132.93"/>
</a>
</g>
</g>
<!-- Node14 -->
<g id="Node000014" class="node">
<title>Node14</title>
<g id="a_Node000014"><a xlink:title=" ">
<polygon fill="#e0e0e0" stroke="#999999" points="491.5,-129 439.5,-129 439.5,-110 491.5,-110 491.5,-129"/>
<text text-anchor="middle" x="465.5" y="-117" font-family="Helvetica,sans-Serif" font-size="10.00">cassert</text>
</a>
</g>
</g>
<!-- Node9&#45;&gt;Node14 -->
<g id="edge15_Node000009_Node000014" class="edge">
<title>Node9&#45;&gt;Node14</title>
<g id="a_edge15_Node000009_Node000014"><a xlink:title=" ">
<path fill="none" stroke="#63b8ff" d="M465.5,-164.75C465.5,-157.8 465.5,-147.85 465.5,-139.13"/>
<polygon fill="#63b8ff" stroke="#63b8ff" points="469,-139.09 465.5,-129.09 462,-139.09 469,-139.09"/>
</a>
</g>
</g>
<!-- Node15 -->
<g id="Node000015" class="node">
<title>Node15</title>
<g id="a_Node000015"><a xlink:title=" ">
<polygon fill="#e0e0e0" stroke="#999999" points="559.5,-129 509.5,-129 509.5,-110 559.5,-110 559.5,-129"/>
<text text-anchor="middle" x="534.5" y="-117" font-family="Helvetica,sans-Serif" font-size="10.00">cstdint</text>
</a>
</g>
</g>
<!-- Node9&#45;&gt;Node15 -->
<g id="edge16_Node000009_Node000015" class="edge">
<title>Node9&#45;&gt;Node15</title>
<g id="a_edge16_Node000009_Node000015"><a xlink:title=" ">
<path fill="none" stroke="#63b8ff" d="M476.59,-164.98C486.99,-157 502.76,-144.88 515.22,-135.31"/>
<polygon fill="#63b8ff" stroke="#63b8ff" points="517.41,-138.04 523.21,-129.17 513.15,-132.49 517.41,-138.04"/>
</a>
</g>
</g>
<!-- Node16 -->
<g id="Node000016" class="node">
<title>Node16</title>
<g id="a_Node000016"><a xlink:title=" ">
<polygon fill="#e0e0e0" stroke="#999999" points="633.5,-129 577.5,-129 577.5,-110 633.5,-110 633.5,-129"/>
<text text-anchor="middle" x="605.5" y="-117" font-family="Helvetica,sans-Serif" font-size="10.00">sstream</text>
</a>
</g>
</g>
<!-- Node9&#45;&gt;Node16 -->
<g id="edge17_Node000009_Node000016" class="edge">
<title>Node9&#45;&gt;Node16</title>
<g id="a_edge17_Node000009_Node000016"><a xlink:title=" ">
<path fill="none" stroke="#63b8ff" d="M487.99,-164.98C511.02,-156.27 547.04,-142.63 573.13,-132.75"/>
<polygon fill="#63b8ff" stroke="#63b8ff" points="574.48,-135.98 582.6,-129.17 572.01,-129.44 574.48,-135.98"/>
</a>
</g>
</g>
<!-- Node17 -->
<g id="Node000017" class="node">
<title>Node17</title>
<g id="a_Node000017"><a xlink:title=" ">
<polygon fill="#e0e0e0" stroke="#999999" points="227.5,-129 143.5,-129 143.5,-110 227.5,-110 227.5,-129"/>
<text text-anchor="middle" x="185.5" y="-117" font-family="Helvetica,sans-Serif" font-size="10.00">realm/utils.inl</text>
</a>
</g>
</g>
<!-- Node9&#45;&gt;Node17 -->
<g id="edge18_Node000009_Node000017" class="edge">
<title>Node9&#45;&gt;Node17</title>
<g id="a_edge18_Node000009_Node000017"><a xlink:title=" ">
<path fill="none" stroke="#63b8ff" d="M426.27,-166.07C376.96,-156.74 292.18,-140.69 237.51,-130.34"/>
<polygon fill="#63b8ff" stroke="#63b8ff" points="238.14,-126.9 227.66,-128.48 236.84,-133.78 238.14,-126.9"/>
</a>
</g>
</g>
<!-- Node18&#45;&gt;Node6 -->
<g id="edge20_Node000018_Node000006" class="edge">
<title>Node18&#45;&gt;Node6</title>
<g id="a_edge20_Node000018_Node000006"><a xlink:title=" ">
<path fill="none" stroke="#63b8ff" d="M765.5,-164.75C765.5,-157.8 765.5,-147.85 765.5,-139.13"/>
<polygon fill="#63b8ff" stroke="#63b8ff" points="769,-139.09 765.5,-129.09 762,-139.09 769,-139.09"/>
</a>
</g>
</g>
<!-- Node18&#45;&gt;Node7 -->
<g id="edge21_Node000018_Node000007" class="edge">
<title>Node18&#45;&gt;Node7</title>
<g id="a_edge21_Node000018_Node000007"><a xlink:title=" ">
<path fill="none" stroke="#63b8ff" d="M781.64,-164.85C794.56,-157.11 812.17,-144.6 822.5,-129 831.46,-115.47 835.71,-97.38 837.72,-83.97"/>
<polygon fill="#63b8ff" stroke="#63b8ff" points="841.2,-84.36 838.93,-74.01 834.25,-83.51 841.2,-84.36"/>
</a>
</g>
</g>
<!-- Node18&#45;&gt;Node19 -->
<g id="edge22_Node000018_Node000019" class="edge">
<title>Node18&#45;&gt;Node19</title>
<g id="a_edge22_Node000018_Node000019"><a xlink:title=" ">
<path fill="none" stroke="#63b8ff" d="M803.58,-164.98C847.16,-155.24 918.21,-139.35 962.56,-129.43"/>
<polygon fill="#63b8ff" stroke="#63b8ff" points="963.42,-132.83 972.41,-127.23 961.89,-126 963.42,-132.83"/>
</a>
</g>
</g>
</g>
</svg>
