<?xml version="1.0" encoding="UTF-8" standalone="no"?>
<!DOCTYPE svg PUBLIC "-//W3C//DTD SVG 1.1//EN"
 "http://www.w3.org/Graphics/SVG/1.1/DTD/svg11.dtd">
<!-- Generated by graphviz version 2.43.0 (0)
 -->
<!-- Title: /home/runner/work/realm/realm/realm&#45;src/src/realm/prealm/prealm.h Pages: 1 -->
<svg width="848pt" height="269pt"
 viewBox="0.00 0.00 848.00 269.00" xmlns="http://www.w3.org/2000/svg" xmlns:xlink="http://www.w3.org/1999/xlink">
<g id="graph0" class="graph" transform="scale(1 1) rotate(0) translate(4 265)">
<title>/home/runner/work/realm/realm/realm&#45;src/src/realm/prealm/prealm.h</title>
<!-- Node1 -->
<g id="Node000001" class="node">
<title>Node1</title>
<g id="a_Node000001"><a xlink:title=" ">
<polygon fill="#999999" stroke="#666666" points="424,-261 278,-261 278,-220 424,-220 424,-261"/>
<text text-anchor="start" x="286" y="-249" font-family="Helvetica,sans-Serif" font-size="10.00">/home/runner/work/realm</text>
<text text-anchor="start" x="286" y="-238" font-family="Helvetica,sans-Serif" font-size="10.00">/realm/realm&#45;src/src/realm</text>
<text text-anchor="middle" x="351" y="-227" font-family="Helvetica,sans-Serif" font-size="10.00">/prealm/prealm.h</text>
</a>
</g>
</g>
<!-- Node2 -->
<g id="Node000002" class="node">
<title>Node2</title>
<g id="a_Node000002"><a xlink:href="realm_8h.html" target="_top" xlink:title=" ">
<polygon fill="white" stroke="#666666" points="226,-184 172,-184 172,-165 226,-165 226,-184"/>
<text text-anchor="middle" x="199" y="-172" font-family="Helvetica,sans-Serif" font-size="10.00">realm.h</text>
</a>
</g>
</g>
<!-- Node1&#45;&gt;Node2 -->
<g id="edge1_Node000001_Node000002" class="edge">
<title>Node1&#45;&gt;Node2</title>
<g id="a_edge1_Node000001_Node000002"><a xlink:title=" ">
<path fill="none" stroke="#63b8ff" d="M304.57,-219.95C279.89,-209.56 250.28,-197.09 228.7,-188.01"/>
<polygon fill="#63b8ff" stroke="#63b8ff" points="229.98,-184.75 219.41,-184.09 227.26,-191.2 229.98,-184.75"/>
</a>
</g>
</g>
<!-- Node9 -->
<g id="Node000009" class="node">
<title>Node9</title>
<g id="a_Node000009"><a xlink:href="cmdline_8h.html" target="_top" xlink:title=" ">
<polygon fill="white" stroke="#666666" points="350,-184 254,-184 254,-165 350,-165 350,-184"/>
<text text-anchor="middle" x="302" y="-172" font-family="Helvetica,sans-Serif" font-size="10.00">realm/cmdline.h</text>
</a>
</g>
</g>
<!-- Node1&#45;&gt;Node9 -->
<g id="edge8_Node000001_Node000009" class="edge">
<title>Node1&#45;&gt;Node9</title>
<g id="a_edge8_Node000001_Node000009"><a xlink:title=" ">
<path fill="none" stroke="#63b8ff" d="M336.03,-219.95C329.26,-211.11 321.35,-200.77 314.85,-192.29"/>
<polygon fill="#63b8ff" stroke="#63b8ff" points="317.57,-190.07 308.71,-184.26 312.01,-194.33 317.57,-190.07"/>
</a>
</g>
</g>
<!-- Node13 -->
<g id="Node000013" class="node">
<title>Node13</title>
<g id="a_Node000013"><a xlink:href="id_8h.html" target="_top" xlink:title=" ">
<polygon fill="white" stroke="#666666" points="497,-184 431,-184 431,-165 497,-165 497,-184"/>
<text text-anchor="middle" x="464" y="-172" font-family="Helvetica,sans-Serif" font-size="10.00">realm/id.h</text>
</a>
</g>
</g>
<!-- Node1&#45;&gt;Node13 -->
<g id="edge14_Node000001_Node000013" class="edge">
<title>Node1&#45;&gt;Node13</title>
<g id="a_edge14_Node000001_Node000013"><a xlink:title=" ">
<path fill="none" stroke="#63b8ff" d="M385.52,-219.95C403.04,-210.03 423.9,-198.21 439.71,-189.25"/>
<polygon fill="#63b8ff" stroke="#63b8ff" points="441.85,-192.07 448.83,-184.09 438.4,-185.97 441.85,-192.07"/>
</a>
</g>
</g>
<!-- Node23 -->
<g id="Node000023" class="node">
<title>Node23</title>
<g id="a_Node000023"><a xlink:title=" ">
<polygon fill="#e0e0e0" stroke="#999999" points="581,-184 515,-184 515,-165 581,-165 581,-184"/>
<text text-anchor="middle" x="548" y="-172" font-family="Helvetica,sans-Serif" font-size="10.00">prealm.inl</text>
</a>
</g>
</g>
<!-- Node1&#45;&gt;Node23 -->
<g id="edge28_Node000001_Node000023" class="edge">
<title>Node1&#45;&gt;Node23</title>
<g id="a_edge28_Node000001_Node000023"><a xlink:title=" ">
<path fill="none" stroke="#63b8ff" d="M411.18,-219.95C444.13,-209.24 483.86,-196.34 512,-187.19"/>
<polygon fill="#63b8ff" stroke="#63b8ff" points="513.38,-190.43 521.81,-184.01 511.22,-183.77 513.38,-190.43"/>
</a>
</g>
</g>
<!-- Node3 -->
<g id="Node000003" class="node">
<title>Node3</title>
<g id="a_Node000003"><a xlink:href="realm__c_8h.html" target="_top" xlink:title=" ">
<polygon fill="white" stroke="#666666" points="217,-129 121,-129 121,-110 217,-110 217,-129"/>
<text text-anchor="middle" x="169" y="-117" font-family="Helvetica,sans-Serif" font-size="10.00">realm/realm_c.h</text>
</a>
</g>
</g>
<!-- Node2&#45;&gt;Node3 -->
<g id="edge2_Node000002_Node000003" class="edge">
<title>Node2&#45;&gt;Node3</title>
<g id="a_edge2_Node000002_Node000003"><a xlink:title=" ">
<path fill="none" stroke="#63b8ff" d="M194.05,-164.75C189.94,-157.49 183.97,-146.95 178.9,-137.98"/>
<polygon fill="#63b8ff" stroke="#63b8ff" points="181.83,-136.07 173.86,-129.09 175.74,-139.52 181.83,-136.07"/>
</a>
</g>
</g>
<!-- Node4 -->
<g id="Node000004" class="node">
<title>Node4</title>
<g id="a_Node000004"><a xlink:href="realm__config_8h.html" target="_top" xlink:title=" ">
<polygon fill="white" stroke="#666666" points="266,-74 146,-74 146,-55 266,-55 266,-74"/>
<text text-anchor="middle" x="206" y="-62" font-family="Helvetica,sans-Serif" font-size="10.00">realm/realm_config.h</text>
</a>
</g>
</g>
<!-- Node3&#45;&gt;Node4 -->
<g id="edge3_Node000003_Node000004" class="edge">
<title>Node3&#45;&gt;Node4</title>
<g id="a_edge3_Node000003_Node000004"><a xlink:title=" ">
<path fill="none" stroke="#63b8ff" d="M175.11,-109.75C180.28,-102.34 187.85,-91.5 194.19,-82.41"/>
<polygon fill="#63b8ff" stroke="#63b8ff" points="197.15,-84.29 200,-74.09 191.41,-80.29 197.15,-84.29"/>
</a>
</g>
</g>
<!-- Node7 -->
<g id="Node000007" class="node">
<title>Node7</title>
<g id="a_Node000007"><a xlink:title=" ">
<polygon fill="#e0e0e0" stroke="#999999" points="56,-74 0,-74 0,-55 56,-55 56,-74"/>
<text text-anchor="middle" x="28" y="-62" font-family="Helvetica,sans-Serif" font-size="10.00">stddef.h</text>
</a>
</g>
</g>
<!-- Node3&#45;&gt;Node7 -->
<g id="edge6_Node000003_Node000007" class="edge">
<title>Node3&#45;&gt;Node7</title>
<g id="a_edge6_Node000003_Node000007"><a xlink:title=" ">
<path fill="none" stroke="#63b8ff" d="M146.35,-109.98C123.15,-101.27 86.88,-87.63 60.6,-77.75"/>
<polygon fill="#63b8ff" stroke="#63b8ff" points="61.66,-74.41 51.07,-74.17 59.2,-80.97 61.66,-74.41"/>
</a>
</g>
</g>
<!-- Node8 -->
<g id="Node000008" class="node">
<title>Node8</title>
<g id="a_Node000008"><a xlink:title=" ">
<polygon fill="#e0e0e0" stroke="#999999" points="127.5,-74 74.5,-74 74.5,-55 127.5,-55 127.5,-74"/>
<text text-anchor="middle" x="101" y="-62" font-family="Helvetica,sans-Serif" font-size="10.00">stdint.h</text>
</a>
</g>
</g>
<!-- Node3&#45;&gt;Node8 -->
<g id="edge7_Node000003_Node000008" class="edge">
<title>Node3&#45;&gt;Node8</title>
<g id="a_edge7_Node000003_Node000008"><a xlink:title=" ">
<path fill="none" stroke="#63b8ff" d="M158.07,-109.98C147.92,-102.07 132.58,-90.11 120.35,-80.58"/>
<polygon fill="#63b8ff" stroke="#63b8ff" points="122.16,-77.56 112.12,-74.17 117.86,-83.08 122.16,-77.56"/>
</a>
</g>
</g>
<!-- Node5 -->
<g id="Node000005" class="node">
<title>Node5</title>
<g id="a_Node000005"><a xlink:href="realm__defines_8h.html" target="_top" xlink:title=" ">
<polygon fill="white" stroke="#666666" points="184.5,-19 89.5,-19 89.5,0 184.5,0 184.5,-19"/>
<text text-anchor="middle" x="137" y="-7" font-family="Helvetica,sans-Serif" font-size="10.00">realm_defines.h</text>
</a>
</g>
</g>
<!-- Node4&#45;&gt;Node5 -->
<g id="edge4_Node000004_Node000005" class="edge">
<title>Node4&#45;&gt;Node5</title>
<g id="a_edge4_Node000004_Node000005"><a xlink:title=" ">
<path fill="none" stroke="#63b8ff" d="M194.91,-54.98C184.51,-47 168.74,-34.88 156.28,-25.31"/>
<polygon fill="#63b8ff" stroke="#63b8ff" points="158.35,-22.49 148.29,-19.17 154.09,-28.04 158.35,-22.49"/>
</a>
</g>
</g>
<!-- Node6 -->
<g id="Node000006" class="node">
<title>Node6</title>
<g id="a_Node000006"><a xlink:href="compiler__support_8h.html" target="_top" xlink:title=" ">
<polygon fill="white" stroke="#666666" points="345,-19 203,-19 203,0 345,0 345,-19"/>
<text text-anchor="middle" x="274" y="-7" font-family="Helvetica,sans-Serif" font-size="10.00">realm/compiler_support.h</text>
</a>
</g>
</g>
<!-- Node4&#45;&gt;Node6 -->
<g id="edge5_Node000004_Node000006" class="edge">
<title>Node4&#45;&gt;Node6</title>
<g id="a_edge5_Node000004_Node000006"><a xlink:title=" ">
<path fill="none" stroke="#63b8ff" d="M216.93,-54.98C227.08,-47.07 242.42,-35.11 254.65,-25.58"/>
<polygon fill="#63b8ff" stroke="#63b8ff" points="257.14,-28.08 262.88,-19.17 252.84,-22.56 257.14,-28.08"/>
</a>
</g>
</g>
<!-- Node9&#45;&gt;Node3 -->
<g id="edge10_Node000009_Node000003" class="edge">
<title>Node9&#45;&gt;Node3</title>
<g id="a_edge10_Node000009_Node000003"><a xlink:title=" ">
<path fill="none" stroke="#63b8ff" d="M280.63,-164.98C258.85,-156.3 224.84,-142.75 200.08,-132.88"/>
<polygon fill="#63b8ff" stroke="#63b8ff" points="201.34,-129.62 190.76,-129.17 198.75,-136.12 201.34,-129.62"/>
</a>
</g>
</g>
<!-- Node9&#45;&gt;Node4 -->
<g id="edge9_Node000009_Node000004" class="edge">
<title>Node9&#45;&gt;Node4</title>
<g id="a_edge9_Node000009_Node000004"><a xlink:title=" ">
<path fill="none" stroke="#63b8ff" d="M294.14,-164.66C278.03,-146.54 241.03,-104.91 220.46,-81.77"/>
<polygon fill="#63b8ff" stroke="#63b8ff" points="222.96,-79.31 213.7,-74.16 217.72,-83.96 222.96,-79.31"/>
</a>
</g>
</g>
<!-- Node10 -->
<g id="Node000010" class="node">
<title>Node10</title>
<g id="a_Node000010"><a xlink:title=" ">
<polygon fill="#e0e0e0" stroke="#999999" points="331.5,-74 284.5,-74 284.5,-55 331.5,-55 331.5,-74"/>
<text text-anchor="middle" x="308" y="-62" font-family="Helvetica,sans-Serif" font-size="10.00">vector</text>
</a>
</g>
</g>
<!-- Node9&#45;&gt;Node10 -->
<g id="edge11_Node000009_Node000010" class="edge">
<title>Node9&#45;&gt;Node10</title>
<g id="a_edge11_Node000009_Node000010"><a xlink:title=" ">
<path fill="none" stroke="#63b8ff" d="M302.49,-164.66C303.46,-147.17 305.65,-107.8 306.96,-84.27"/>
<polygon fill="#63b8ff" stroke="#63b8ff" points="310.46,-84.34 307.52,-74.16 303.47,-83.95 310.46,-84.34"/>
</a>
</g>
</g>
<!-- Node11 -->
<g id="Node000011" class="node">
<title>Node11</title>
<g id="a_Node000011"><a xlink:title=" ">
<polygon fill="#e0e0e0" stroke="#999999" points="394,-74 350,-74 350,-55 394,-55 394,-74"/>
<text text-anchor="middle" x="372" y="-62" font-family="Helvetica,sans-Serif" font-size="10.00">string</text>
</a>
</g>
</g>
<!-- Node9&#45;&gt;Node11 -->
<g id="edge12_Node000009_Node000011" class="edge">
<title>Node9&#45;&gt;Node11</title>
<g id="a_edge12_Node000009_Node000011"><a xlink:title=" ">
<path fill="none" stroke="#63b8ff" d="M306.94,-164.73C313.98,-152.35 327.44,-129.11 340,-110 346.14,-100.66 353.39,-90.51 359.43,-82.28"/>
<polygon fill="#63b8ff" stroke="#63b8ff" points="362.26,-84.33 365.4,-74.21 356.64,-80.16 362.26,-84.33"/>
</a>
</g>
</g>
<!-- Node12 -->
<g id="Node000012" class="node">
<title>Node12</title>
<g id="a_Node000012"><a xlink:title=" ">
<polygon fill="#e0e0e0" stroke="#999999" points="451,-129 349,-129 349,-110 451,-110 451,-129"/>
<text text-anchor="middle" x="400" y="-117" font-family="Helvetica,sans-Serif" font-size="10.00">realm/cmdline.inl</text>
</a>
</g>
</g>
<!-- Node9&#45;&gt;Node12 -->
<g id="edge13_Node000009_Node000012" class="edge">
<title>Node9&#45;&gt;Node12</title>
<g id="a_edge13_Node000009_Node000012"><a xlink:title=" ">
<path fill="none" stroke="#63b8ff" d="M317.75,-164.98C333.23,-156.61 357.09,-143.7 375.14,-133.95"/>
<polygon fill="#63b8ff" stroke="#63b8ff" points="376.84,-137.01 383.97,-129.17 373.51,-130.85 376.84,-137.01"/>
</a>
</g>
</g>
<!-- Node13&#45;&gt;Node3 -->
<g id="edge15_Node000013_Node000003" class="edge">
<title>Node13&#45;&gt;Node3</title>
<g id="a_edge15_Node000013_Node000003"><a xlink:title=" ">
<path fill="none" stroke="#63b8ff" d="M430.73,-167.52C381.23,-158.63 287.51,-141.79 226.69,-130.86"/>
<polygon fill="#63b8ff" stroke="#63b8ff" points="226.94,-127.35 216.48,-129.03 225.7,-134.24 226.94,-127.35"/>
</a>
</g>
</g>
<!-- Node14 -->
<g id="Node000014" class="node">
<title>Node14</title>
<g id="a_Node000014"><a xlink:href="utils_8h.html" target="_top" xlink:title=" ">
<polygon fill="white" stroke="#666666" points="547,-129 469,-129 469,-110 547,-110 547,-129"/>
<text text-anchor="middle" x="508" y="-117" font-family="Helvetica,sans-Serif" font-size="10.00">realm/utils.h</text>
</a>
</g>
</g>
<!-- Node13&#45;&gt;Node14 -->
<g id="edge16_Node000013_Node000014" class="edge">
<title>Node13&#45;&gt;Node14</title>
<g id="a_edge16_Node000013_Node000014"><a xlink:title=" ">
<path fill="none" stroke="#63b8ff" d="M471.27,-164.75C477.54,-157.18 486.79,-146.05 494.43,-136.84"/>
<polygon fill="#63b8ff" stroke="#63b8ff" points="497.17,-139.02 500.87,-129.09 491.79,-134.55 497.17,-139.02"/>
</a>
</g>
</g>
<!-- Node21 -->
<g id="Node000021" class="node">
<title>Node21</title>
<g id="a_Node000021"><a xlink:title=" ">
<polygon fill="#e0e0e0" stroke="#999999" points="625,-129 565,-129 565,-110 625,-110 625,-129"/>
<text text-anchor="middle" x="595" y="-117" font-family="Helvetica,sans-Serif" font-size="10.00">iostream</text>
</a>
</g>
</g>
<!-- Node13&#45;&gt;Node21 -->
<g id="edge26_Node000013_Node000021" class="edge">
<title>Node13&#45;&gt;Node21</title>
<g id="a_edge26_Node000013_Node000021"><a xlink:title=" ">
<path fill="none" stroke="#63b8ff" d="M485.05,-164.98C506.41,-156.34 539.7,-142.87 564.06,-133.02"/>
<polygon fill="#63b8ff" stroke="#63b8ff" points="565.61,-136.17 573.57,-129.17 562.99,-129.68 565.61,-136.17"/>
</a>
</g>
</g>
<!-- Node22 -->
<g id="Node000022" class="node">
<title>Node22</title>
<g id="a_Node000022"><a xlink:title=" ">
<polygon fill="#e0e0e0" stroke="#999999" points="715,-129 643,-129 643,-110 715,-110 715,-129"/>
<text text-anchor="middle" x="679" y="-117" font-family="Helvetica,sans-Serif" font-size="10.00">realm/id.inl</text>
</a>
</g>
</g>
<!-- Node13&#45;&gt;Node22 -->
<g id="edge27_Node000013_Node000022" class="edge">
<title>Node13&#45;&gt;Node22</title>
<g id="a_edge27_Node000013_Node000022"><a xlink:title=" ">
<path fill="none" stroke="#63b8ff" d="M497.12,-165.33C533.93,-156.26 593.57,-141.56 634.45,-131.48"/>
<polygon fill="#63b8ff" stroke="#63b8ff" points="635.54,-134.82 644.41,-129.03 633.87,-128.02 635.54,-134.82"/>
</a>
</g>
</g>
<!-- Node14&#45;&gt;Node4 -->
<g id="edge17_Node000014_Node000004" class="edge">
<title>Node14&#45;&gt;Node4</title>
<g id="a_edge17_Node000014_Node000004"><a xlink:title=" ">
<path fill="none" stroke="#63b8ff" d="M468.97,-111.58C465.93,-111.05 462.92,-110.51 460,-110 393.04,-98.21 316.13,-84.74 264.65,-75.74"/>
<polygon fill="#63b8ff" stroke="#63b8ff" points="265.15,-72.28 254.7,-74 263.95,-79.17 265.15,-72.28"/>
</a>
</g>
</g>
<!-- Node14&#45;&gt;Node10 -->
<g id="edge20_Node000014_Node000010" class="edge">
<title>Node14&#45;&gt;Node10</title>
<g id="a_edge20_Node000014_Node000010"><a xlink:title=" ">
<path fill="none" stroke="#63b8ff" d="M475.87,-109.98C439.03,-100.22 378.92,-84.29 341.51,-74.38"/>
<polygon fill="#63b8ff" stroke="#63b8ff" points="342.16,-70.93 331.6,-71.75 340.37,-77.7 342.16,-70.93"/>
</a>
</g>
</g>
<!-- Node14&#45;&gt;Node11 -->
<g id="edge18_Node000014_Node000011" class="edge">
<title>Node14&#45;&gt;Node11</title>
<g id="a_edge18_Node000014_Node000011"><a xlink:title=" ">
<path fill="none" stroke="#63b8ff" d="M486.15,-109.98C463.88,-101.3 429.1,-87.75 403.78,-77.88"/>
<polygon fill="#63b8ff" stroke="#63b8ff" points="404.84,-74.54 394.25,-74.17 402.29,-81.06 404.84,-74.54"/>
</a>
</g>
</g>
<!-- Node15 -->
<g id="Node000015" class="node">
<title>Node15</title>
<g id="a_Node000015"><a xlink:title=" ">
<polygon fill="#e0e0e0" stroke="#999999" points="713.5,-74 656.5,-74 656.5,-55 713.5,-55 713.5,-74"/>
<text text-anchor="middle" x="685" y="-62" font-family="Helvetica,sans-Serif" font-size="10.00">ostream</text>
</a>
</g>
</g>
<!-- Node14&#45;&gt;Node15 -->
<g id="edge19_Node000014_Node000015" class="edge">
<title>Node14&#45;&gt;Node15</title>
<g id="a_edge19_Node000014_Node000015"><a xlink:title=" ">
<path fill="none" stroke="#63b8ff" d="M536.44,-109.98C566.28,-101.05 613.38,-86.94 646.53,-77.02"/>
<polygon fill="#63b8ff" stroke="#63b8ff" points="647.76,-80.3 656.34,-74.08 645.76,-73.6 647.76,-80.3"/>
</a>
</g>
</g>
<!-- Node16 -->
<g id="Node000016" class="node">
<title>Node16</title>
<g id="a_Node000016"><a xlink:title=" ">
<polygon fill="#e0e0e0" stroke="#999999" points="770,-74 732,-74 732,-55 770,-55 770,-74"/>
<text text-anchor="middle" x="751" y="-62" font-family="Helvetica,sans-Serif" font-size="10.00">map</text>
</a>
</g>
</g>
<!-- Node14&#45;&gt;Node16 -->
<g id="edge21_Node000014_Node000016" class="edge">
<title>Node14&#45;&gt;Node16</title>
<g id="a_edge21_Node000014_Node000016"><a xlink:title=" ">
<path fill="none" stroke="#63b8ff" d="M547.08,-111.51C588.33,-103.9 655.39,-90.82 721.97,-74.08"/>
<polygon fill="#63b8ff" stroke="#63b8ff" points="722.96,-77.44 731.78,-71.58 721.23,-70.66 722.96,-77.44"/>
</a>
</g>
</g>
<!-- Node17 -->
<g id="Node000017" class="node">
<title>Node17</title>
<g id="a_Node000017"><a xlink:title=" ">
<polygon fill="#e0e0e0" stroke="#999999" points="840,-74 788,-74 788,-55 840,-55 840,-74"/>
<text text-anchor="middle" x="814" y="-62" font-family="Helvetica,sans-Serif" font-size="10.00">cassert</text>
</a>
</g>
</g>
<!-- Node14&#45;&gt;Node17 -->
<g id="edge22_Node000014_Node000017" class="edge">
<title>Node14&#45;&gt;Node17</title>
<g id="a_edge22_Node000014_Node000017"><a xlink:title=" ">
<path fill="none" stroke="#63b8ff" d="M547.02,-111.54C550.06,-111.01 553.08,-110.49 556,-110 651.89,-93.77 678.92,-93.84 777.87,-74.1"/>
<polygon fill="#63b8ff" stroke="#63b8ff" points="778.56,-77.53 787.68,-72.13 777.18,-70.67 778.56,-77.53"/>
</a>
</g>
</g>
<!-- Node18 -->
<g id="Node000018" class="node">
<title>Node18</title>
<g id="a_Node000018"><a xlink:title=" ">
<polygon fill="#e0e0e0" stroke="#999999" points="462,-74 412,-74 412,-55 462,-55 462,-74"/>
<text text-anchor="middle" x="437" y="-62" font-family="Helvetica,sans-Serif" font-size="10.00">cstdint</text>
</a>
</g>
</g>
<!-- Node14&#45;&gt;Node18 -->
<g id="edge23_Node000014_Node000018" class="edge">
<title>Node14&#45;&gt;Node18</title>
<g id="a_edge23_Node000014_Node000018"><a xlink:title=" ">
<path fill="none" stroke="#63b8ff" d="M496.59,-109.98C485.89,-102 469.66,-89.88 456.84,-80.31"/>
<polygon fill="#63b8ff" stroke="#63b8ff" points="458.72,-77.35 448.61,-74.17 454.53,-82.96 458.72,-77.35"/>
</a>
</g>
</g>
<!-- Node19 -->
<g id="Node000019" class="node">
<title>Node19</title>
<g id="a_Node000019"><a xlink:title=" ">
<polygon fill="#e0e0e0" stroke="#999999" points="536,-74 480,-74 480,-55 536,-55 536,-74"/>
<text text-anchor="middle" x="508" y="-62" font-family="Helvetica,sans-Serif" font-size="10.00">sstream</text>
</a>
</g>
</g>
<!-- Node14&#45;&gt;Node19 -->
<g id="edge24_Node000014_Node000019" class="edge">
<title>Node14&#45;&gt;Node19</title>
<g id="a_edge24_Node000014_Node000019"><a xlink:title=" ">
<path fill="none" stroke="#63b8ff" d="M508,-109.75C508,-102.8 508,-92.85 508,-84.13"/>
<polygon fill="#63b8ff" stroke="#63b8ff" points="511.5,-84.09 508,-74.09 504.5,-84.09 511.5,-84.09"/>
</a>
</g>
</g>
<!-- Node20 -->
<g id="Node000020" class="node">
<title>Node20</title>
<g id="a_Node000020"><a xlink:title=" ">
<polygon fill="#e0e0e0" stroke="#999999" points="638,-74 554,-74 554,-55 638,-55 638,-74"/>
<text text-anchor="middle" x="596" y="-62" font-family="Helvetica,sans-Serif" font-size="10.00">realm/utils.inl</text>
</a>
</g>
</g>
<!-- Node14&#45;&gt;Node20 -->
<g id="edge25_Node000014_Node000020" class="edge">
<title>Node14&#45;&gt;Node20</title>
<g id="a_edge25_Node000014_Node000020"><a xlink:title=" ">
<path fill="none" stroke="#63b8ff" d="M522.14,-109.98C535.79,-101.77 556.69,-89.18 572.78,-79.49"/>
<polygon fill="#63b8ff" stroke="#63b8ff" points="574.84,-82.33 581.6,-74.17 571.23,-76.33 574.84,-82.33"/>
</a>
</g>
</g>
</g>
</svg>
