<?xml version="1.0" encoding="UTF-8" standalone="no"?>
<!DOCTYPE svg PUBLIC "-//W3C//DTD SVG 1.1//EN"
 "http://www.w3.org/Graphics/SVG/1.1/DTD/svg11.dtd">
<!-- Generated by graphviz version 2.43.0 (0)
 -->
<!-- Title: /home/runner/work/realm/realm/realm&#45;src/src/realm/processor.h Pages: 1 -->
<svg width="916pt" height="324pt"
 viewBox="0.00 0.00 916.00 324.00" xmlns="http://www.w3.org/2000/svg" xmlns:xlink="http://www.w3.org/1999/xlink">
<g id="graph0" class="graph" transform="scale(1 1) rotate(0) translate(4 320)">
<title>/home/runner/work/realm/realm/realm&#45;src/src/realm/processor.h</title>
<!-- Node1 -->
<g id="Node000001" class="node">
<title>Node1</title>
<g id="a_Node000001"><a xlink:title=" ">
<polygon fill="#999999" stroke="#666666" points="805,-316 659,-316 659,-275 805,-275 805,-316"/>
<text text-anchor="start" x="667" y="-304" font-family="Helvetica,sans-Serif" font-size="10.00">/home/runner/work/realm</text>
<text text-anchor="start" x="667" y="-293" font-family="Helvetica,sans-Serif" font-size="10.00">/realm/realm&#45;src/src/realm</text>
<text text-anchor="middle" x="732" y="-282" font-family="Helvetica,sans-Serif" font-size="10.00">/processor.h</text>
</a>
</g>
</g>
<!-- Node2 -->
<g id="Node000002" class="node">
<title>Node2</title>
<g id="a_Node000002"><a xlink:href="realm__c_8h.html" target="_top" xlink:title=" ">
<polygon fill="white" stroke="#666666" points="96,-129 0,-129 0,-110 96,-110 96,-129"/>
<text text-anchor="middle" x="48" y="-117" font-family="Helvetica,sans-Serif" font-size="10.00">realm/realm_c.h</text>
</a>
</g>
</g>
<!-- Node1&#45;&gt;Node2 -->
<g id="edge1_Node000001_Node000002" class="edge">
<title>Node1&#45;&gt;Node2</title>
<g id="a_edge1_Node000001_Node000002"><a xlink:title=" ">
<path fill="none" stroke="#63b8ff" d="M658.94,-289.94C509.58,-279.37 175.64,-248.97 84,-184 68.53,-173.03 58.84,-153.18 53.46,-138.59"/>
<polygon fill="#63b8ff" stroke="#63b8ff" points="56.78,-137.46 50.29,-129.09 50.14,-139.68 56.78,-137.46"/>
</a>
</g>
</g>
<!-- Node8 -->
<g id="Node000008" class="node">
<title>Node8</title>
<g id="a_Node000008"><a xlink:href="event_8h.html" target="_top" xlink:title=" ">
<polygon fill="white" stroke="#666666" points="483.5,-239 398.5,-239 398.5,-220 483.5,-220 483.5,-239"/>
<text text-anchor="middle" x="441" y="-227" font-family="Helvetica,sans-Serif" font-size="10.00">realm/event.h</text>
</a>
</g>
</g>
<!-- Node1&#45;&gt;Node8 -->
<g id="edge7_Node000001_Node000008" class="edge">
<title>Node1&#45;&gt;Node8</title>
<g id="a_edge7_Node000001_Node000008"><a xlink:title=" ">
<path fill="none" stroke="#63b8ff" d="M658.94,-278.43C605.93,-266.77 535.69,-251.32 489.46,-241.16"/>
<polygon fill="#63b8ff" stroke="#63b8ff" points="490.21,-237.74 479.69,-239.01 488.7,-244.58 490.21,-237.74"/>
</a>
</g>
</g>
<!-- Node12 -->
<g id="Node000012" class="node">
<title>Node12</title>
<g id="a_Node000012"><a xlink:title=" ">
<polygon fill="#e0e0e0" stroke="#999999" points="823.5,-129 776.5,-129 776.5,-110 823.5,-110 823.5,-129"/>
<text text-anchor="middle" x="800" y="-117" font-family="Helvetica,sans-Serif" font-size="10.00">vector</text>
</a>
</g>
</g>
<!-- Node1&#45;&gt;Node12 -->
<g id="edge27_Node000001_Node000012" class="edge">
<title>Node1&#45;&gt;Node12</title>
<g id="a_edge27_Node000001_Node000012"><a xlink:title=" ">
<path fill="none" stroke="#63b8ff" d="M739.67,-274.88C752.9,-241.02 779.84,-172.09 792.77,-139.01"/>
<polygon fill="#63b8ff" stroke="#63b8ff" points="796.19,-139.86 796.57,-129.27 789.67,-137.31 796.19,-139.86"/>
</a>
</g>
</g>
<!-- Node13 -->
<g id="Node000013" class="node">
<title>Node13</title>
<g id="a_Node000013"><a xlink:title=" ">
<polygon fill="#e0e0e0" stroke="#999999" points="758,-129 720,-129 720,-110 758,-110 758,-129"/>
<text text-anchor="middle" x="739" y="-117" font-family="Helvetica,sans-Serif" font-size="10.00">map</text>
</a>
</g>
</g>
<!-- Node1&#45;&gt;Node13 -->
<g id="edge28_Node000001_Node000013" class="edge">
<title>Node1&#45;&gt;Node13</title>
<g id="a_edge28_Node000001_Node000013"><a xlink:title=" ">
<path fill="none" stroke="#63b8ff" d="M732.79,-274.88C734.15,-241.17 736.9,-172.69 738.24,-139.45"/>
<polygon fill="#63b8ff" stroke="#63b8ff" points="741.74,-139.41 738.65,-129.27 734.75,-139.13 741.74,-139.41"/>
</a>
</g>
</g>
<!-- Node22 -->
<g id="Node000022" class="node">
<title>Node22</title>
<g id="a_Node000022"><a xlink:title=" ">
<polygon fill="#e0e0e0" stroke="#999999" points="908,-239 798,-239 798,-220 908,-220 908,-239"/>
<text text-anchor="middle" x="853" y="-227" font-family="Helvetica,sans-Serif" font-size="10.00">realm/processor.inl</text>
</a>
</g>
</g>
<!-- Node1&#45;&gt;Node22 -->
<g id="edge29_Node000001_Node000022" class="edge">
<title>Node1&#45;&gt;Node22</title>
<g id="a_edge29_Node000001_Node000022"><a xlink:title=" ">
<path fill="none" stroke="#63b8ff" d="M768.96,-274.95C787.9,-264.93 810.49,-252.99 827.47,-244"/>
<polygon fill="#63b8ff" stroke="#63b8ff" points="829.55,-246.86 836.76,-239.09 826.28,-240.67 829.55,-246.86"/>
</a>
</g>
</g>
<!-- Node3 -->
<g id="Node000003" class="node">
<title>Node3</title>
<g id="a_Node000003"><a xlink:href="realm__config_8h.html" target="_top" xlink:title=" ">
<polygon fill="white" stroke="#666666" points="489,-74 369,-74 369,-55 489,-55 489,-74"/>
<text text-anchor="middle" x="429" y="-62" font-family="Helvetica,sans-Serif" font-size="10.00">realm/realm_config.h</text>
</a>
</g>
</g>
<!-- Node2&#45;&gt;Node3 -->
<g id="edge2_Node000002_Node000003" class="edge">
<title>Node2&#45;&gt;Node3</title>
<g id="a_edge2_Node000002_Node000003"><a xlink:title=" ">
<path fill="none" stroke="#63b8ff" d="M96.25,-111.79C162.66,-102.55 282.63,-85.86 358.92,-75.25"/>
<polygon fill="#63b8ff" stroke="#63b8ff" points="359.5,-78.7 368.92,-73.86 358.54,-71.77 359.5,-78.7"/>
</a>
</g>
</g>
<!-- Node6 -->
<g id="Node000006" class="node">
<title>Node6</title>
<g id="a_Node000006"><a xlink:title=" ">
<polygon fill="#e0e0e0" stroke="#999999" points="150,-74 94,-74 94,-55 150,-55 150,-74"/>
<text text-anchor="middle" x="122" y="-62" font-family="Helvetica,sans-Serif" font-size="10.00">stddef.h</text>
</a>
</g>
</g>
<!-- Node2&#45;&gt;Node6 -->
<g id="edge5_Node000002_Node000006" class="edge">
<title>Node2&#45;&gt;Node6</title>
<g id="a_edge5_Node000002_Node000006"><a xlink:title=" ">
<path fill="none" stroke="#63b8ff" d="M59.89,-109.98C71.15,-101.92 88.29,-89.65 101.71,-80.03"/>
<polygon fill="#63b8ff" stroke="#63b8ff" points="103.8,-82.84 109.89,-74.17 99.73,-77.15 103.8,-82.84"/>
</a>
</g>
</g>
<!-- Node7 -->
<g id="Node000007" class="node">
<title>Node7</title>
<g id="a_Node000007"><a xlink:title=" ">
<polygon fill="#e0e0e0" stroke="#999999" points="74.5,-74 21.5,-74 21.5,-55 74.5,-55 74.5,-74"/>
<text text-anchor="middle" x="48" y="-62" font-family="Helvetica,sans-Serif" font-size="10.00">stdint.h</text>
</a>
</g>
</g>
<!-- Node2&#45;&gt;Node7 -->
<g id="edge6_Node000002_Node000007" class="edge">
<title>Node2&#45;&gt;Node7</title>
<g id="a_edge6_Node000002_Node000007"><a xlink:title=" ">
<path fill="none" stroke="#63b8ff" d="M48,-109.75C48,-102.8 48,-92.85 48,-84.13"/>
<polygon fill="#63b8ff" stroke="#63b8ff" points="51.5,-84.09 48,-74.09 44.5,-84.09 51.5,-84.09"/>
</a>
</g>
</g>
<!-- Node4 -->
<g id="Node000004" class="node">
<title>Node4</title>
<g id="a_Node000004"><a xlink:href="realm__defines_8h.html" target="_top" xlink:title=" ">
<polygon fill="white" stroke="#666666" points="407.5,-19 312.5,-19 312.5,0 407.5,0 407.5,-19"/>
<text text-anchor="middle" x="360" y="-7" font-family="Helvetica,sans-Serif" font-size="10.00">realm_defines.h</text>
</a>
</g>
</g>
<!-- Node3&#45;&gt;Node4 -->
<g id="edge3_Node000003_Node000004" class="edge">
<title>Node3&#45;&gt;Node4</title>
<g id="a_edge3_Node000003_Node000004"><a xlink:title=" ">
<path fill="none" stroke="#63b8ff" d="M417.91,-54.98C407.51,-47 391.74,-34.88 379.28,-25.31"/>
<polygon fill="#63b8ff" stroke="#63b8ff" points="381.35,-22.49 371.29,-19.17 377.09,-28.04 381.35,-22.49"/>
</a>
</g>
</g>
<!-- Node5 -->
<g id="Node000005" class="node">
<title>Node5</title>
<g id="a_Node000005"><a xlink:href="compiler__support_8h.html" target="_top" xlink:title=" ">
<polygon fill="white" stroke="#666666" points="568,-19 426,-19 426,0 568,0 568,-19"/>
<text text-anchor="middle" x="497" y="-7" font-family="Helvetica,sans-Serif" font-size="10.00">realm/compiler_support.h</text>
</a>
</g>
</g>
<!-- Node3&#45;&gt;Node5 -->
<g id="edge4_Node000003_Node000005" class="edge">
<title>Node3&#45;&gt;Node5</title>
<g id="a_edge4_Node000003_Node000005"><a xlink:title=" ">
<path fill="none" stroke="#63b8ff" d="M439.93,-54.98C450.08,-47.07 465.42,-35.11 477.65,-25.58"/>
<polygon fill="#63b8ff" stroke="#63b8ff" points="480.14,-28.08 485.88,-19.17 475.84,-22.56 480.14,-28.08"/>
</a>
</g>
</g>
<!-- Node8&#45;&gt;Node2 -->
<g id="edge8_Node000008_Node000002" class="edge">
<title>Node8&#45;&gt;Node2</title>
<g id="a_edge8_Node000008_Node000002"><a xlink:title=" ">
<path fill="none" stroke="#63b8ff" d="M398.44,-225.93C321.86,-220.78 164.25,-207.62 115,-184 92.53,-173.23 72.64,-152.12 60.48,-137.2"/>
<polygon fill="#63b8ff" stroke="#63b8ff" points="63.18,-134.97 54.26,-129.26 57.67,-139.29 63.18,-134.97"/>
</a>
</g>
</g>
<!-- Node9 -->
<g id="Node000009" class="node">
<title>Node9</title>
<g id="a_Node000009"><a xlink:href="utils_8h.html" target="_top" xlink:title=" ">
<polygon fill="white" stroke="#666666" points="517,-184 439,-184 439,-165 517,-165 517,-184"/>
<text text-anchor="middle" x="478" y="-172" font-family="Helvetica,sans-Serif" font-size="10.00">realm/utils.h</text>
</a>
</g>
</g>
<!-- Node8&#45;&gt;Node9 -->
<g id="edge9_Node000008_Node000009" class="edge">
<title>Node8&#45;&gt;Node9</title>
<g id="a_edge9_Node000008_Node000009"><a xlink:title=" ">
<path fill="none" stroke="#63b8ff" d="M447.11,-219.75C452.28,-212.34 459.85,-201.5 466.19,-192.41"/>
<polygon fill="#63b8ff" stroke="#63b8ff" points="469.15,-194.29 472,-184.09 463.41,-190.29 469.15,-194.29"/>
</a>
</g>
</g>
<!-- Node8&#45;&gt;Node12 -->
<g id="edge23_Node000008_Node000012" class="edge">
<title>Node8&#45;&gt;Node12</title>
<g id="a_edge23_Node000008_Node000012"><a xlink:title=" ">
<path fill="none" stroke="#63b8ff" d="M483.84,-220.49C523.46,-212.66 583.78,-199.65 635,-184 683.68,-169.13 738.54,-146.88 771.14,-133.05"/>
<polygon fill="#63b8ff" stroke="#63b8ff" points="772.69,-136.19 780.51,-129.04 769.93,-129.75 772.69,-136.19"/>
</a>
</g>
</g>
<!-- Node18 -->
<g id="Node000018" class="node">
<title>Node18</title>
<g id="a_Node000018"><a xlink:href="memory_8h.html" target="_top" xlink:title=" ">
<polygon fill="white" stroke="#666666" points="221.5,-184 124.5,-184 124.5,-165 221.5,-165 221.5,-184"/>
<text text-anchor="middle" x="173" y="-172" font-family="Helvetica,sans-Serif" font-size="10.00">realm/memory.h</text>
</a>
</g>
</g>
<!-- Node8&#45;&gt;Node18 -->
<g id="edge19_Node000008_Node000018" class="edge">
<title>Node8&#45;&gt;Node18</title>
<g id="a_edge19_Node000008_Node000018"><a xlink:title=" ">
<path fill="none" stroke="#63b8ff" d="M398.24,-220.04C351.51,-210.8 276.58,-195.99 226.12,-186"/>
<polygon fill="#63b8ff" stroke="#63b8ff" points="226.54,-182.52 216.05,-184.01 225.18,-189.39 226.54,-182.52"/>
</a>
</g>
</g>
<!-- Node19 -->
<g id="Node000019" class="node">
<title>Node19</title>
<g id="a_Node000019"><a xlink:title=" ">
<polygon fill="#e0e0e0" stroke="#999999" points="212,-129 152,-129 152,-110 212,-110 212,-129"/>
<text text-anchor="middle" x="182" y="-117" font-family="Helvetica,sans-Serif" font-size="10.00">iostream</text>
</a>
</g>
</g>
<!-- Node8&#45;&gt;Node19 -->
<g id="edge25_Node000008_Node000019" class="edge">
<title>Node8&#45;&gt;Node19</title>
<g id="a_edge25_Node000008_Node000019"><a xlink:title=" ">
<path fill="none" stroke="#63b8ff" d="M420.24,-219.84C374.57,-200.8 265.21,-155.2 212.04,-133.03"/>
<polygon fill="#63b8ff" stroke="#63b8ff" points="213.07,-129.67 202.5,-129.05 210.38,-136.13 213.07,-129.67"/>
</a>
</g>
</g>
<!-- Node20 -->
<g id="Node000020" class="node">
<title>Node20</title>
<g id="a_Node000020"><a xlink:title=" ">
<polygon fill="#e0e0e0" stroke="#999999" points="421,-184 389,-184 389,-165 421,-165 421,-184"/>
<text text-anchor="middle" x="405" y="-172" font-family="Helvetica,sans-Serif" font-size="10.00">set</text>
</a>
</g>
</g>
<!-- Node8&#45;&gt;Node20 -->
<g id="edge24_Node000008_Node000020" class="edge">
<title>Node8&#45;&gt;Node20</title>
<g id="a_edge24_Node000008_Node000020"><a xlink:title=" ">
<path fill="none" stroke="#63b8ff" d="M435.06,-219.75C430.02,-212.34 422.66,-201.5 416.49,-192.41"/>
<polygon fill="#63b8ff" stroke="#63b8ff" points="419.35,-190.39 410.83,-184.09 413.56,-194.33 419.35,-190.39"/>
</a>
</g>
</g>
<!-- Node21 -->
<g id="Node000021" class="node">
<title>Node21</title>
<g id="a_Node000021"><a xlink:title=" ">
<polygon fill="#e0e0e0" stroke="#999999" points="626.5,-184 535.5,-184 535.5,-165 626.5,-165 626.5,-184"/>
<text text-anchor="middle" x="581" y="-172" font-family="Helvetica,sans-Serif" font-size="10.00">realm/event.inl</text>
</a>
</g>
</g>
<!-- Node8&#45;&gt;Node21 -->
<g id="edge26_Node000008_Node000021" class="edge">
<title>Node8&#45;&gt;Node21</title>
<g id="a_edge26_Node000008_Node000021"><a xlink:title=" ">
<path fill="none" stroke="#63b8ff" d="M463.49,-219.98C486.52,-211.27 522.54,-197.63 548.63,-187.75"/>
<polygon fill="#63b8ff" stroke="#63b8ff" points="549.98,-190.98 558.1,-184.17 547.51,-184.44 549.98,-190.98"/>
</a>
</g>
</g>
<!-- Node9&#45;&gt;Node3 -->
<g id="edge10_Node000009_Node000003" class="edge">
<title>Node9&#45;&gt;Node3</title>
<g id="a_edge10_Node000009_Node000003"><a xlink:title=" ">
<path fill="none" stroke="#63b8ff" d="M517.28,-165.64C552.34,-157.73 599.83,-144.51 611,-129 615.93,-122.15 616.21,-116.64 611,-110 597,-92.16 544.24,-80.55 499.11,-73.68"/>
<polygon fill="#63b8ff" stroke="#63b8ff" points="499.42,-70.19 489.02,-72.2 498.41,-77.11 499.42,-70.19"/>
</a>
</g>
</g>
<!-- Node10 -->
<g id="Node000010" class="node">
<title>Node10</title>
<g id="a_Node000010"><a xlink:title=" ">
<polygon fill="#e0e0e0" stroke="#999999" points="702,-129 658,-129 658,-110 702,-110 702,-129"/>
<text text-anchor="middle" x="680" y="-117" font-family="Helvetica,sans-Serif" font-size="10.00">string</text>
</a>
</g>
</g>
<!-- Node9&#45;&gt;Node10 -->
<g id="edge11_Node000009_Node000010" class="edge">
<title>Node9&#45;&gt;Node10</title>
<g id="a_edge11_Node000009_Node000010"><a xlink:title=" ">
<path fill="none" stroke="#63b8ff" d="M510.45,-164.98C548.27,-155.06 610.37,-138.77 648,-128.9"/>
<polygon fill="#63b8ff" stroke="#63b8ff" points="649.14,-132.22 657.92,-126.29 647.36,-125.45 649.14,-132.22"/>
</a>
</g>
</g>
<!-- Node11 -->
<g id="Node000011" class="node">
<title>Node11</title>
<g id="a_Node000011"><a xlink:title=" ">
<polygon fill="#e0e0e0" stroke="#999999" points="287.5,-129 230.5,-129 230.5,-110 287.5,-110 287.5,-129"/>
<text text-anchor="middle" x="259" y="-117" font-family="Helvetica,sans-Serif" font-size="10.00">ostream</text>
</a>
</g>
</g>
<!-- Node9&#45;&gt;Node11 -->
<g id="edge12_Node000009_Node000011" class="edge">
<title>Node9&#45;&gt;Node11</title>
<g id="a_edge12_Node000009_Node000011"><a xlink:title=" ">
<path fill="none" stroke="#63b8ff" d="M442.81,-164.98C403.13,-155.38 338.8,-139.81 297.72,-129.87"/>
<polygon fill="#63b8ff" stroke="#63b8ff" points="298.35,-126.42 287.81,-127.47 296.7,-133.23 298.35,-126.42"/>
</a>
</g>
</g>
<!-- Node9&#45;&gt;Node12 -->
<g id="edge13_Node000009_Node000012" class="edge">
<title>Node9&#45;&gt;Node12</title>
<g id="a_edge13_Node000009_Node000012"><a xlink:title=" ">
<path fill="none" stroke="#63b8ff" d="M517.02,-166.5C520.06,-165.98 523.08,-165.48 526,-165 629.75,-148.07 659.16,-150.38 766.35,-128.93"/>
<polygon fill="#63b8ff" stroke="#63b8ff" points="767.17,-132.34 776.28,-126.92 765.78,-125.48 767.17,-132.34"/>
</a>
</g>
</g>
<!-- Node9&#45;&gt;Node13 -->
<g id="edge14_Node000009_Node000013" class="edge">
<title>Node9&#45;&gt;Node13</title>
<g id="a_edge14_Node000009_Node000013"><a xlink:title=" ">
<path fill="none" stroke="#63b8ff" d="M517.43,-166.49C570.02,-157.06 661.31,-140.38 709.84,-129.03"/>
<polygon fill="#63b8ff" stroke="#63b8ff" points="710.9,-132.38 719.79,-126.62 709.25,-125.57 710.9,-132.38"/>
</a>
</g>
</g>
<!-- Node14 -->
<g id="Node000014" class="node">
<title>Node14</title>
<g id="a_Node000014"><a xlink:title=" ">
<polygon fill="#e0e0e0" stroke="#999999" points="358,-129 306,-129 306,-110 358,-110 358,-129"/>
<text text-anchor="middle" x="332" y="-117" font-family="Helvetica,sans-Serif" font-size="10.00">cassert</text>
</a>
</g>
</g>
<!-- Node9&#45;&gt;Node14 -->
<g id="edge15_Node000009_Node000014" class="edge">
<title>Node9&#45;&gt;Node14</title>
<g id="a_edge15_Node000009_Node000014"><a xlink:title=" ">
<path fill="none" stroke="#63b8ff" d="M454.54,-164.98C430.42,-156.23 392.63,-142.51 365.4,-132.62"/>
<polygon fill="#63b8ff" stroke="#63b8ff" points="366.48,-129.29 355.88,-129.17 364.09,-135.87 366.48,-129.29"/>
</a>
</g>
</g>
<!-- Node15 -->
<g id="Node000015" class="node">
<title>Node15</title>
<g id="a_Node000015"><a xlink:title=" ">
<polygon fill="#e0e0e0" stroke="#999999" points="426,-129 376,-129 376,-110 426,-110 426,-129"/>
<text text-anchor="middle" x="401" y="-117" font-family="Helvetica,sans-Serif" font-size="10.00">cstdint</text>
</a>
</g>
</g>
<!-- Node9&#45;&gt;Node15 -->
<g id="edge16_Node000009_Node000015" class="edge">
<title>Node9&#45;&gt;Node15</title>
<g id="a_edge16_Node000009_Node000015"><a xlink:title=" ">
<path fill="none" stroke="#63b8ff" d="M465.63,-164.98C453.91,-156.92 436.08,-144.65 422.11,-135.03"/>
<polygon fill="#63b8ff" stroke="#63b8ff" points="423.82,-131.96 413.6,-129.17 419.85,-137.72 423.82,-131.96"/>
</a>
</g>
</g>
<!-- Node16 -->
<g id="Node000016" class="node">
<title>Node16</title>
<g id="a_Node000016"><a xlink:title=" ">
<polygon fill="#e0e0e0" stroke="#999999" points="500,-129 444,-129 444,-110 500,-110 500,-129"/>
<text text-anchor="middle" x="472" y="-117" font-family="Helvetica,sans-Serif" font-size="10.00">sstream</text>
</a>
</g>
</g>
<!-- Node9&#45;&gt;Node16 -->
<g id="edge17_Node000009_Node000016" class="edge">
<title>Node9&#45;&gt;Node16</title>
<g id="a_edge17_Node000009_Node000016"><a xlink:title=" ">
<path fill="none" stroke="#63b8ff" d="M477.01,-164.75C476.22,-157.8 475.1,-147.85 474.11,-139.13"/>
<polygon fill="#63b8ff" stroke="#63b8ff" points="477.58,-138.63 472.97,-129.09 470.62,-139.42 477.58,-138.63"/>
</a>
</g>
</g>
<!-- Node17 -->
<g id="Node000017" class="node">
<title>Node17</title>
<g id="a_Node000017"><a xlink:title=" ">
<polygon fill="#e0e0e0" stroke="#999999" points="602,-129 518,-129 518,-110 602,-110 602,-129"/>
<text text-anchor="middle" x="560" y="-117" font-family="Helvetica,sans-Serif" font-size="10.00">realm/utils.inl</text>
</a>
</g>
</g>
<!-- Node9&#45;&gt;Node17 -->
<g id="edge18_Node000009_Node000017" class="edge">
<title>Node9&#45;&gt;Node17</title>
<g id="a_edge18_Node000009_Node000017"><a xlink:title=" ">
<path fill="none" stroke="#63b8ff" d="M491.17,-164.98C503.77,-156.84 523,-144.41 537.94,-134.76"/>
<polygon fill="#63b8ff" stroke="#63b8ff" points="540.09,-137.54 546.59,-129.17 536.29,-131.66 540.09,-137.54"/>
</a>
</g>
</g>
<!-- Node18&#45;&gt;Node2 -->
<g id="edge20_Node000018_Node000002" class="edge">
<title>Node18&#45;&gt;Node2</title>
<g id="a_edge20_Node000018_Node000002"><a xlink:title=" ">
<path fill="none" stroke="#63b8ff" d="M152.92,-164.98C132.63,-156.38 101.04,-142.99 77.83,-133.15"/>
<polygon fill="#63b8ff" stroke="#63b8ff" points="79.02,-129.85 68.45,-129.17 76.29,-136.3 79.02,-129.85"/>
</a>
</g>
</g>
<!-- Node18&#45;&gt;Node6 -->
<g id="edge21_Node000018_Node000006" class="edge">
<title>Node18&#45;&gt;Node6</title>
<g id="a_edge21_Node000018_Node000006"><a xlink:title=" ">
<path fill="none" stroke="#63b8ff" d="M166.03,-164.74C159.39,-156.07 149.49,-142.22 143,-129 135.88,-114.49 130.29,-96.98 126.68,-84.03"/>
<polygon fill="#63b8ff" stroke="#63b8ff" points="129.97,-82.77 124.02,-74.01 123.2,-84.57 129.97,-82.77"/>
</a>
</g>
</g>
<!-- Node18&#45;&gt;Node19 -->
<g id="edge22_Node000018_Node000019" class="edge">
<title>Node18&#45;&gt;Node19</title>
<g id="a_edge22_Node000018_Node000019"><a xlink:title=" ">
<path fill="none" stroke="#63b8ff" d="M174.49,-164.75C175.67,-157.8 177.36,-147.85 178.84,-139.13"/>
<polygon fill="#63b8ff" stroke="#63b8ff" points="182.32,-139.53 180.54,-129.09 175.42,-138.36 182.32,-139.53"/>
</a>
</g>
</g>
</g>
</svg>
