<?xml version="1.0" encoding="UTF-8" standalone="no"?>
<!DOCTYPE svg PUBLIC "-//W3C//DTD SVG 1.1//EN"
 "http://www.w3.org/Graphics/SVG/1.1/DTD/svg11.dtd">
<!-- Generated by graphviz version 2.43.0 (0)
 -->
<!-- Title: /home/runner/work/realm/realm/realm&#45;src/src/realm/processor.h Pages: 1 -->
<svg width="982pt" height="324pt"
 viewBox="0.00 0.00 981.50 324.00" xmlns="http://www.w3.org/2000/svg" xmlns:xlink="http://www.w3.org/1999/xlink">
<g id="graph0" class="graph" transform="scale(1 1) rotate(0) translate(4 320)">
<title>/home/runner/work/realm/realm/realm&#45;src/src/realm/processor.h</title>
<!-- Node1 -->
<g id="Node000001" class="node">
<title>Node1</title>
<g id="a_Node000001"><a xlink:title=" ">
<polygon fill="#999999" stroke="#666666" points="640.5,-316 494.5,-316 494.5,-275 640.5,-275 640.5,-316"/>
<text text-anchor="start" x="502.5" y="-304" font-family="Helvetica,sans-Serif" font-size="10.00">/home/runner/work/realm</text>
<text text-anchor="start" x="502.5" y="-293" font-family="Helvetica,sans-Serif" font-size="10.00">/realm/realm&#45;src/src/realm</text>
<text text-anchor="middle" x="567.5" y="-282" font-family="Helvetica,sans-Serif" font-size="10.00">/processor.h</text>
</a>
</g>
</g>
<!-- Node2 -->
<g id="Node000002" class="node">
<title>Node2</title>
<g id="a_Node000002"><a xlink:href="realm__c_8h.html" target="_top" xlink:title=" ">
<polygon fill="white" stroke="#666666" points="907.5,-129 811.5,-129 811.5,-110 907.5,-110 907.5,-129"/>
<text text-anchor="middle" x="859.5" y="-117" font-family="Helvetica,sans-Serif" font-size="10.00">realm/realm_c.h</text>
</a>
</g>
</g>
<!-- Node1&#45;&gt;Node2 -->
<g id="edge1_Node000001_Node000002" class="edge">
<title>Node1&#45;&gt;Node2</title>
<g id="a_edge1_Node000001_Node000002"><a xlink:title=" ">
<path fill="none" stroke="#63b8ff" d="M628.87,-275C680.02,-256.79 753.06,-226.08 807.5,-184 824.17,-171.11 838.93,-151.93 848.43,-138.02"/>
<polygon fill="#63b8ff" stroke="#63b8ff" points="851.54,-139.65 854.12,-129.37 845.7,-135.8 851.54,-139.65"/>
</a>
</g>
</g>
<!-- Node8 -->
<g id="Node000008" class="node">
<title>Node8</title>
<g id="a_Node000008"><a xlink:href="event_8h.html" target="_top" xlink:title=" ">
<polygon fill="white" stroke="#666666" points="610,-239 525,-239 525,-220 610,-220 610,-239"/>
<text text-anchor="middle" x="567.5" y="-227" font-family="Helvetica,sans-Serif" font-size="10.00">realm/event.h</text>
</a>
</g>
</g>
<!-- Node1&#45;&gt;Node8 -->
<g id="edge7_Node000001_Node000008" class="edge">
<title>Node1&#45;&gt;Node8</title>
<g id="a_edge7_Node000001_Node000008"><a xlink:title=" ">
<path fill="none" stroke="#63b8ff" d="M567.5,-274.95C567.5,-266.85 567.5,-257.5 567.5,-249.47"/>
<polygon fill="#63b8ff" stroke="#63b8ff" points="571,-249.26 567.5,-239.26 564,-249.26 571,-249.26"/>
</a>
</g>
</g>
<!-- Node12 -->
<g id="Node000012" class="node">
<title>Node12</title>
<g id="a_Node000012"><a xlink:title=" ">
<polygon fill="#e0e0e0" stroke="#999999" points="47,-129 0,-129 0,-110 47,-110 47,-129"/>
<text text-anchor="middle" x="23.5" y="-117" font-family="Helvetica,sans-Serif" font-size="10.00">vector</text>
</a>
</g>
</g>
<!-- Node1&#45;&gt;Node12 -->
<g id="edge28_Node000001_Node000012" class="edge">
<title>Node1&#45;&gt;Node12</title>
<g id="a_edge28_Node000001_Node000012"><a xlink:title=" ">
<path fill="none" stroke="#63b8ff" d="M494.47,-275.87C455.43,-265.6 406.65,-252.27 363.5,-239 291.63,-216.9 274.51,-208.73 203.5,-184 152.15,-166.12 92.69,-145.07 56.6,-132.27"/>
<polygon fill="#63b8ff" stroke="#63b8ff" points="57.66,-128.93 47.07,-128.88 55.32,-135.53 57.66,-128.93"/>
</a>
</g>
</g>
<!-- Node13 -->
<g id="Node000013" class="node">
<title>Node13</title>
<g id="a_Node000013"><a xlink:title=" ">
<polygon fill="#e0e0e0" stroke="#999999" points="103.5,-129 65.5,-129 65.5,-110 103.5,-110 103.5,-129"/>
<text text-anchor="middle" x="84.5" y="-117" font-family="Helvetica,sans-Serif" font-size="10.00">map</text>
</a>
</g>
</g>
<!-- Node1&#45;&gt;Node13 -->
<g id="edge29_Node000001_Node000013" class="edge">
<title>Node1&#45;&gt;Node13</title>
<g id="a_edge29_Node000001_Node000013"><a xlink:title=" ">
<path fill="none" stroke="#63b8ff" d="M513.03,-274.88C410.56,-237.96 192.33,-159.35 113.59,-130.98"/>
<polygon fill="#63b8ff" stroke="#63b8ff" points="114.45,-127.57 103.85,-127.47 112.07,-134.15 114.45,-127.57"/>
</a>
</g>
</g>
<!-- Node23 -->
<g id="Node000023" class="node">
<title>Node23</title>
<g id="a_Node000023"><a xlink:title=" ">
<polygon fill="#e0e0e0" stroke="#999999" points="973.5,-239 863.5,-239 863.5,-220 973.5,-220 973.5,-239"/>
<text text-anchor="middle" x="918.5" y="-227" font-family="Helvetica,sans-Serif" font-size="10.00">realm/processor.inl</text>
</a>
</g>
</g>
<!-- Node1&#45;&gt;Node23 -->
<g id="edge30_Node000001_Node000023" class="edge">
<title>Node1&#45;&gt;Node23</title>
<g id="a_edge30_Node000001_Node000023"><a xlink:title=" ">
<path fill="none" stroke="#63b8ff" d="M640.65,-281.16C706.37,-269.18 801.51,-251.83 861.66,-240.86"/>
<polygon fill="#63b8ff" stroke="#63b8ff" points="862.53,-244.26 871.74,-239.03 861.28,-237.38 862.53,-244.26"/>
</a>
</g>
</g>
<!-- Node3 -->
<g id="Node000003" class="node">
<title>Node3</title>
<g id="a_Node000003"><a xlink:href="realm__config_8h.html" target="_top" xlink:title=" ">
<polygon fill="white" stroke="#666666" points="691.5,-74 571.5,-74 571.5,-55 691.5,-55 691.5,-74"/>
<text text-anchor="middle" x="631.5" y="-62" font-family="Helvetica,sans-Serif" font-size="10.00">realm/realm_config.h</text>
</a>
</g>
</g>
<!-- Node2&#45;&gt;Node3 -->
<g id="edge2_Node000002_Node000003" class="edge">
<title>Node2&#45;&gt;Node3</title>
<g id="a_edge2_Node000002_Node000003"><a xlink:title=" ">
<path fill="none" stroke="#63b8ff" d="M822.87,-109.98C783.59,-100.86 721.13,-86.33 678.31,-76.38"/>
<polygon fill="#63b8ff" stroke="#63b8ff" points="678.95,-72.94 668.42,-74.08 677.37,-79.76 678.95,-72.94"/>
</a>
</g>
</g>
<!-- Node6 -->
<g id="Node000006" class="node">
<title>Node6</title>
<g id="a_Node000006"><a xlink:title=" ">
<polygon fill="#e0e0e0" stroke="#999999" points="812.5,-74 756.5,-74 756.5,-55 812.5,-55 812.5,-74"/>
<text text-anchor="middle" x="784.5" y="-62" font-family="Helvetica,sans-Serif" font-size="10.00">stddef.h</text>
</a>
</g>
</g>
<!-- Node2&#45;&gt;Node6 -->
<g id="edge5_Node000002_Node000006" class="edge">
<title>Node2&#45;&gt;Node6</title>
<g id="a_edge5_Node000002_Node000006"><a xlink:title=" ">
<path fill="none" stroke="#63b8ff" d="M847.45,-109.98C836.04,-101.92 818.67,-89.65 805.07,-80.03"/>
<polygon fill="#63b8ff" stroke="#63b8ff" points="806.96,-77.08 796.77,-74.17 802.92,-82.8 806.96,-77.08"/>
</a>
</g>
</g>
<!-- Node7 -->
<g id="Node000007" class="node">
<title>Node7</title>
<g id="a_Node000007"><a xlink:title=" ">
<polygon fill="#e0e0e0" stroke="#999999" points="886,-74 833,-74 833,-55 886,-55 886,-74"/>
<text text-anchor="middle" x="859.5" y="-62" font-family="Helvetica,sans-Serif" font-size="10.00">stdint.h</text>
</a>
</g>
</g>
<!-- Node2&#45;&gt;Node7 -->
<g id="edge6_Node000002_Node000007" class="edge">
<title>Node2&#45;&gt;Node7</title>
<g id="a_edge6_Node000002_Node000007"><a xlink:title=" ">
<path fill="none" stroke="#63b8ff" d="M859.5,-109.75C859.5,-102.8 859.5,-92.85 859.5,-84.13"/>
<polygon fill="#63b8ff" stroke="#63b8ff" points="863,-84.09 859.5,-74.09 856,-84.09 863,-84.09"/>
</a>
</g>
</g>
<!-- Node4 -->
<g id="Node000004" class="node">
<title>Node4</title>
<g id="a_Node000004"><a xlink:href="realm__defines_8h.html" target="_top" xlink:title=" ">
<polygon fill="white" stroke="#666666" points="611,-19 516,-19 516,0 611,0 611,-19"/>
<text text-anchor="middle" x="563.5" y="-7" font-family="Helvetica,sans-Serif" font-size="10.00">realm_defines.h</text>
</a>
</g>
</g>
<!-- Node3&#45;&gt;Node4 -->
<g id="edge3_Node000003_Node000004" class="edge">
<title>Node3&#45;&gt;Node4</title>
<g id="a_edge3_Node000003_Node000004"><a xlink:title=" ">
<path fill="none" stroke="#63b8ff" d="M620.57,-54.98C610.42,-47.07 595.08,-35.11 582.85,-25.58"/>
<polygon fill="#63b8ff" stroke="#63b8ff" points="584.66,-22.56 574.62,-19.17 580.36,-28.08 584.66,-22.56"/>
</a>
</g>
</g>
<!-- Node5 -->
<g id="Node000005" class="node">
<title>Node5</title>
<g id="a_Node000005"><a xlink:href="compiler__support_8h.html" target="_top" xlink:title=" ">
<polygon fill="white" stroke="#666666" points="771.5,-19 629.5,-19 629.5,0 771.5,0 771.5,-19"/>
<text text-anchor="middle" x="700.5" y="-7" font-family="Helvetica,sans-Serif" font-size="10.00">realm/compiler_support.h</text>
</a>
</g>
</g>
<!-- Node3&#45;&gt;Node5 -->
<g id="edge4_Node000003_Node000005" class="edge">
<title>Node3&#45;&gt;Node5</title>
<g id="a_edge4_Node000003_Node000005"><a xlink:title=" ">
<path fill="none" stroke="#63b8ff" d="M642.59,-54.98C652.99,-47 668.76,-34.88 681.22,-25.31"/>
<polygon fill="#63b8ff" stroke="#63b8ff" points="683.41,-28.04 689.21,-19.17 679.15,-22.49 683.41,-28.04"/>
</a>
</g>
</g>
<!-- Node8&#45;&gt;Node2 -->
<g id="edge8_Node000008_Node000002" class="edge">
<title>Node8&#45;&gt;Node2</title>
<g id="a_edge8_Node000008_Node000002"><a xlink:title=" ">
<path fill="none" stroke="#63b8ff" d="M610.13,-225.23C654.07,-220.58 723.7,-209.55 778.5,-184 803.64,-172.28 828.08,-151.42 843.42,-136.82"/>
<polygon fill="#63b8ff" stroke="#63b8ff" points="846.25,-138.94 850.95,-129.45 841.36,-133.94 846.25,-138.94"/>
</a>
</g>
</g>
<!-- Node9 -->
<g id="Node000009" class="node">
<title>Node9</title>
<g id="a_Node000009"><a xlink:href="utils_8h.html" target="_top" xlink:title=" ">
<polygon fill="white" stroke="#666666" points="381.5,-184 303.5,-184 303.5,-165 381.5,-165 381.5,-184"/>
<text text-anchor="middle" x="342.5" y="-172" font-family="Helvetica,sans-Serif" font-size="10.00">realm/utils.h</text>
</a>
</g>
</g>
<!-- Node8&#45;&gt;Node9 -->
<g id="edge9_Node000008_Node000009" class="edge">
<title>Node8&#45;&gt;Node9</title>
<g id="a_edge9_Node000008_Node000009"><a xlink:title=" ">
<path fill="none" stroke="#63b8ff" d="M531.35,-219.98C492.59,-210.86 430.95,-196.33 388.7,-186.38"/>
<polygon fill="#63b8ff" stroke="#63b8ff" points="389.47,-182.97 378.93,-184.08 387.86,-189.78 389.47,-182.97"/>
</a>
</g>
</g>
<!-- Node8&#45;&gt;Node12 -->
<g id="edge24_Node000008_Node000012" class="edge">
<title>Node8&#45;&gt;Node12</title>
<g id="a_edge24_Node000008_Node000012"><a xlink:title=" ">
<path fill="none" stroke="#63b8ff" d="M524.79,-222.42C470.92,-214.56 375.54,-199.95 294.5,-184 191.1,-163.65 163.56,-155.26 57.13,-129.12"/>
<polygon fill="#63b8ff" stroke="#63b8ff" points="57.82,-125.68 47.28,-126.7 56.15,-132.48 57.82,-125.68"/>
</a>
</g>
</g>
<!-- Node18 -->
<g id="Node000018" class="node">
<title>Node18</title>
<g id="a_Node000018"><a xlink:href="memory_8h.html" target="_top" xlink:title=" ">
<polygon fill="white" stroke="#666666" points="769,-184 672,-184 672,-165 769,-165 769,-184"/>
<text text-anchor="middle" x="720.5" y="-172" font-family="Helvetica,sans-Serif" font-size="10.00">realm/memory.h</text>
</a>
</g>
</g>
<!-- Node8&#45;&gt;Node18 -->
<g id="edge19_Node000008_Node000018" class="edge">
<title>Node8&#45;&gt;Node18</title>
<g id="a_edge19_Node000008_Node000018"><a xlink:title=" ">
<path fill="none" stroke="#63b8ff" d="M592.08,-219.98C617.55,-211.16 657.54,-197.31 686.13,-187.41"/>
<polygon fill="#63b8ff" stroke="#63b8ff" points="687.42,-190.66 695.73,-184.08 685.13,-184.05 687.42,-190.66"/>
</a>
</g>
</g>
<!-- Node19 -->
<g id="Node000019" class="node">
<title>Node19</title>
<g id="a_Node000019"><a xlink:title=" ">
<polygon fill="#e0e0e0" stroke="#999999" points="671.5,-129 611.5,-129 611.5,-110 671.5,-110 671.5,-129"/>
<text text-anchor="middle" x="641.5" y="-117" font-family="Helvetica,sans-Serif" font-size="10.00">iostream</text>
</a>
</g>
</g>
<!-- Node8&#45;&gt;Node19 -->
<g id="edge26_Node000008_Node000019" class="edge">
<title>Node8&#45;&gt;Node19</title>
<g id="a_edge26_Node000008_Node000019"><a xlink:title=" ">
<path fill="none" stroke="#63b8ff" d="M582.37,-219.7C594.52,-211.79 611.31,-199.11 621.5,-184 630.59,-170.52 635.73,-152.69 638.51,-139.36"/>
<polygon fill="#63b8ff" stroke="#63b8ff" points="641.98,-139.87 640.33,-129.41 635.09,-138.61 641.98,-139.87"/>
</a>
</g>
</g>
<!-- Node21 -->
<g id="Node000021" class="node">
<title>Node21</title>
<g id="a_Node000021"><a xlink:title=" ">
<polygon fill="#e0e0e0" stroke="#999999" points="503.5,-184 471.5,-184 471.5,-165 503.5,-165 503.5,-184"/>
<text text-anchor="middle" x="487.5" y="-172" font-family="Helvetica,sans-Serif" font-size="10.00">set</text>
</a>
</g>
</g>
<!-- Node8&#45;&gt;Node21 -->
<g id="edge25_Node000008_Node000021" class="edge">
<title>Node8&#45;&gt;Node21</title>
<g id="a_edge25_Node000008_Node000021"><a xlink:title=" ">
<path fill="none" stroke="#63b8ff" d="M554.65,-219.98C542.36,-211.84 523.59,-199.41 509.02,-189.76"/>
<polygon fill="#63b8ff" stroke="#63b8ff" points="510.86,-186.78 500.59,-184.17 506.99,-192.61 510.86,-186.78"/>
</a>
</g>
</g>
<!-- Node22 -->
<g id="Node000022" class="node">
<title>Node22</title>
<g id="a_Node000022"><a xlink:title=" ">
<polygon fill="#e0e0e0" stroke="#999999" points="613,-184 522,-184 522,-165 613,-165 613,-184"/>
<text text-anchor="middle" x="567.5" y="-172" font-family="Helvetica,sans-Serif" font-size="10.00">realm/event.inl</text>
</a>
</g>
</g>
<!-- Node8&#45;&gt;Node22 -->
<g id="edge27_Node000008_Node000022" class="edge">
<title>Node8&#45;&gt;Node22</title>
<g id="a_edge27_Node000008_Node000022"><a xlink:title=" ">
<path fill="none" stroke="#63b8ff" d="M567.5,-219.75C567.5,-212.8 567.5,-202.85 567.5,-194.13"/>
<polygon fill="#63b8ff" stroke="#63b8ff" points="571,-194.09 567.5,-184.09 564,-194.09 571,-194.09"/>
</a>
</g>
</g>
<!-- Node9&#45;&gt;Node3 -->
<g id="edge10_Node000009_Node000003" class="edge">
<title>Node9&#45;&gt;Node3</title>
<g id="a_edge10_Node000009_Node000003"><a xlink:title=" ">
<path fill="none" stroke="#63b8ff" d="M381.56,-172.17C427.66,-169.17 505.52,-159.57 564.5,-129 586.62,-117.53 606.59,-96.57 618.86,-81.88"/>
<polygon fill="#63b8ff" stroke="#63b8ff" points="621.6,-84.05 625.15,-74.07 616.15,-79.66 621.6,-84.05"/>
</a>
</g>
</g>
<!-- Node10 -->
<g id="Node000010" class="node">
<title>Node10</title>
<g id="a_Node000010"><a xlink:title=" ">
<polygon fill="#e0e0e0" stroke="#999999" points="165.5,-129 121.5,-129 121.5,-110 165.5,-110 165.5,-129"/>
<text text-anchor="middle" x="143.5" y="-117" font-family="Helvetica,sans-Serif" font-size="10.00">string</text>
</a>
</g>
</g>
<!-- Node9&#45;&gt;Node10 -->
<g id="edge11_Node000009_Node000010" class="edge">
<title>Node9&#45;&gt;Node10</title>
<g id="a_edge11_Node000009_Node000010"><a xlink:title=" ">
<path fill="none" stroke="#63b8ff" d="M309.96,-164.97C278.08,-156.59 227.87,-143.35 175.34,-129.21"/>
<polygon fill="#63b8ff" stroke="#63b8ff" points="176.08,-125.78 165.51,-126.56 174.25,-132.54 176.08,-125.78"/>
</a>
</g>
</g>
<!-- Node11 -->
<g id="Node000011" class="node">
<title>Node11</title>
<g id="a_Node000011"><a xlink:title=" ">
<polygon fill="#e0e0e0" stroke="#999999" points="241,-129 184,-129 184,-110 241,-110 241,-129"/>
<text text-anchor="middle" x="212.5" y="-117" font-family="Helvetica,sans-Serif" font-size="10.00">ostream</text>
</a>
</g>
</g>
<!-- Node9&#45;&gt;Node11 -->
<g id="edge12_Node000009_Node000011" class="edge">
<title>Node9&#45;&gt;Node11</title>
<g id="a_edge12_Node000009_Node000011"><a xlink:title=" ">
<path fill="none" stroke="#63b8ff" d="M321.61,-164.98C300.42,-156.34 267.37,-142.87 243.2,-133.02"/>
<polygon fill="#63b8ff" stroke="#63b8ff" points="244.35,-129.7 233.77,-129.17 241.71,-136.19 244.35,-129.7"/>
</a>
</g>
</g>
<!-- Node9&#45;&gt;Node12 -->
<g id="edge13_Node000009_Node000012" class="edge">
<title>Node9&#45;&gt;Node12</title>
<g id="a_edge13_Node000009_Node000012"><a xlink:title=" ">
<path fill="none" stroke="#63b8ff" d="M303.43,-168.65C250.04,-161.76 151.16,-148.03 57.18,-128.95"/>
<polygon fill="#63b8ff" stroke="#63b8ff" points="57.73,-125.49 47.23,-126.91 56.32,-132.35 57.73,-125.49"/>
</a>
</g>
</g>
<!-- Node9&#45;&gt;Node13 -->
<g id="edge14_Node000009_Node000013" class="edge">
<title>Node9&#45;&gt;Node13</title>
<g id="a_edge14_Node000009_Node000013"><a xlink:title=" ">
<path fill="none" stroke="#63b8ff" d="M303.16,-167.17C259.22,-159.81 185.79,-146.68 113.85,-129.12"/>
<polygon fill="#63b8ff" stroke="#63b8ff" points="114.25,-125.62 103.71,-126.62 112.57,-132.41 114.25,-125.62"/>
</a>
</g>
</g>
<!-- Node14 -->
<g id="Node000014" class="node">
<title>Node14</title>
<g id="a_Node000014"><a xlink:title=" ">
<polygon fill="#e0e0e0" stroke="#999999" points="311.5,-129 259.5,-129 259.5,-110 311.5,-110 311.5,-129"/>
<text text-anchor="middle" x="285.5" y="-117" font-family="Helvetica,sans-Serif" font-size="10.00">cassert</text>
</a>
</g>
</g>
<!-- Node9&#45;&gt;Node14 -->
<g id="edge15_Node000009_Node000014" class="edge">
<title>Node9&#45;&gt;Node14</title>
<g id="a_edge15_Node000009_Node000014"><a xlink:title=" ">
<path fill="none" stroke="#63b8ff" d="M333.34,-164.98C325,-157.23 312.47,-145.58 302.32,-136.14"/>
<polygon fill="#63b8ff" stroke="#63b8ff" points="304.53,-133.42 294.82,-129.17 299.76,-138.54 304.53,-133.42"/>
</a>
</g>
</g>
<!-- Node15 -->
<g id="Node000015" class="node">
<title>Node15</title>
<g id="a_Node000015"><a xlink:title=" ">
<polygon fill="#e0e0e0" stroke="#999999" points="379.5,-129 329.5,-129 329.5,-110 379.5,-110 379.5,-129"/>
<text text-anchor="middle" x="354.5" y="-117" font-family="Helvetica,sans-Serif" font-size="10.00">cstdint</text>
</a>
</g>
</g>
<!-- Node9&#45;&gt;Node15 -->
<g id="edge16_Node000009_Node000015" class="edge">
<title>Node9&#45;&gt;Node15</title>
<g id="a_edge16_Node000009_Node000015"><a xlink:title=" ">
<path fill="none" stroke="#63b8ff" d="M344.48,-164.75C346.07,-157.72 348.36,-147.62 350.35,-138.84"/>
<polygon fill="#63b8ff" stroke="#63b8ff" points="353.76,-139.62 352.56,-129.09 346.93,-138.07 353.76,-139.62"/>
</a>
</g>
</g>
<!-- Node16 -->
<g id="Node000016" class="node">
<title>Node16</title>
<g id="a_Node000016"><a xlink:title=" ">
<polygon fill="#e0e0e0" stroke="#999999" points="453.5,-129 397.5,-129 397.5,-110 453.5,-110 453.5,-129"/>
<text text-anchor="middle" x="425.5" y="-117" font-family="Helvetica,sans-Serif" font-size="10.00">sstream</text>
</a>
</g>
</g>
<!-- Node9&#45;&gt;Node16 -->
<g id="edge17_Node000009_Node000016" class="edge">
<title>Node9&#45;&gt;Node16</title>
<g id="a_edge17_Node000009_Node000016"><a xlink:title=" ">
<path fill="none" stroke="#63b8ff" d="M355.84,-164.98C368.59,-156.84 388.05,-144.41 403.17,-134.76"/>
<polygon fill="#63b8ff" stroke="#63b8ff" points="405.38,-137.5 411.92,-129.17 401.61,-131.6 405.38,-137.5"/>
</a>
</g>
</g>
<!-- Node17 -->
<g id="Node000017" class="node">
<title>Node17</title>
<g id="a_Node000017"><a xlink:title=" ">
<polygon fill="#e0e0e0" stroke="#999999" points="555.5,-129 471.5,-129 471.5,-110 555.5,-110 555.5,-129"/>
<text text-anchor="middle" x="513.5" y="-117" font-family="Helvetica,sans-Serif" font-size="10.00">realm/utils.inl</text>
</a>
</g>
</g>
<!-- Node9&#45;&gt;Node17 -->
<g id="edge18_Node000009_Node000017" class="edge">
<title>Node9&#45;&gt;Node17</title>
<g id="a_edge18_Node000009_Node000017"><a xlink:title=" ">
<path fill="none" stroke="#63b8ff" d="M369.97,-164.98C398.68,-156.09 443.92,-142.07 475.92,-132.15"/>
<polygon fill="#63b8ff" stroke="#63b8ff" points="477.3,-135.39 485.81,-129.08 475.22,-128.7 477.3,-135.39"/>
</a>
</g>
</g>
<!-- Node18&#45;&gt;Node2 -->
<g id="edge20_Node000018_Node000002" class="edge">
<title>Node18&#45;&gt;Node2</title>
<g id="a_edge20_Node000018_Node000002"><a xlink:title=" ">
<path fill="none" stroke="#63b8ff" d="M742.83,-164.98C765.7,-156.27 801.46,-142.63 827.36,-132.75"/>
<polygon fill="#63b8ff" stroke="#63b8ff" points="828.66,-136 836.76,-129.17 826.17,-129.46 828.66,-136"/>
</a>
</g>
</g>
<!-- Node18&#45;&gt;Node6 -->
<g id="edge21_Node000018_Node000006" class="edge">
<title>Node18&#45;&gt;Node6</title>
<g id="a_edge21_Node000018_Node000006"><a xlink:title=" ">
<path fill="none" stroke="#63b8ff" d="M731.78,-164.76C741.69,-156.52 755.86,-143.33 764.5,-129 772.89,-115.08 778.1,-97.29 781.09,-84.09"/>
<polygon fill="#63b8ff" stroke="#63b8ff" points="784.52,-84.75 783.1,-74.26 777.67,-83.35 784.52,-84.75"/>
</a>
</g>
</g>
<!-- Node18&#45;&gt;Node19 -->
<g id="edge22_Node000018_Node000019" class="edge">
<title>Node18&#45;&gt;Node19</title>
<g id="a_edge22_Node000018_Node000019"><a xlink:title=" ">
<path fill="none" stroke="#63b8ff" d="M707.81,-164.98C695.67,-156.84 677.14,-144.41 662.75,-134.76"/>
<polygon fill="#63b8ff" stroke="#63b8ff" points="664.68,-131.84 654.42,-129.17 660.78,-137.65 664.68,-131.84"/>
</a>
</g>
</g>
<!-- Node20 -->
<g id="Node000020" class="node">
<title>Node20</title>
<g id="a_Node000020"><a xlink:title=" ">
<polygon fill="#e0e0e0" stroke="#999999" points="755,-129 690,-129 690,-110 755,-110 755,-129"/>
<text text-anchor="middle" x="722.5" y="-117" font-family="Helvetica,sans-Serif" font-size="10.00">functional</text>
</a>
</g>
</g>
<!-- Node18&#45;&gt;Node20 -->
<g id="edge23_Node000018_Node000020" class="edge">
<title>Node18&#45;&gt;Node20</title>
<g id="a_edge23_Node000018_Node000020"><a xlink:title=" ">
<path fill="none" stroke="#63b8ff" d="M720.83,-164.75C721.09,-157.8 721.47,-147.85 721.8,-139.13"/>
<polygon fill="#63b8ff" stroke="#63b8ff" points="725.3,-139.21 722.18,-129.09 718.3,-138.95 725.3,-139.21"/>
</a>
</g>
</g>
</g>
</svg>
