<?xml version="1.0" encoding="UTF-8" standalone="no"?>
<!DOCTYPE svg PUBLIC "-//W3C//DTD SVG 1.1//EN"
 "http://www.w3.org/Graphics/SVG/1.1/DTD/svg11.dtd">
<!-- Generated by graphviz version 2.43.0 (0)
 -->
<!-- Title: /home/runner/work/realm/realm/realm&#45;src/src/realm/profiling.h Pages: 1 -->
<svg width="1787pt" height="434pt"
 viewBox="0.00 0.00 1787.00 434.00" xmlns="http://www.w3.org/2000/svg" xmlns:xlink="http://www.w3.org/1999/xlink">
<g id="graph0" class="graph" transform="scale(1 1) rotate(0) translate(4 430)">
<title>/home/runner/work/realm/realm/realm&#45;src/src/realm/profiling.h</title>
<!-- Node1 -->
<g id="Node000001" class="node">
<title>Node1</title>
<g id="a_Node000001"><a xlink:title=" ">
<polygon fill="#999999" stroke="#666666" points="769.5,-426 623.5,-426 623.5,-385 769.5,-385 769.5,-426"/>
<text text-anchor="start" x="631.5" y="-414" font-family="Helvetica,sans-Serif" font-size="10.00">/home/runner/work/realm</text>
<text text-anchor="start" x="631.5" y="-403" font-family="Helvetica,sans-Serif" font-size="10.00">/realm/realm&#45;src/src/realm</text>
<text text-anchor="middle" x="696.5" y="-392" font-family="Helvetica,sans-Serif" font-size="10.00">/profiling.h</text>
</a>
</g>
</g>
<!-- Node2 -->
<g id="Node000002" class="node">
<title>Node2</title>
<g id="a_Node000002"><a xlink:title=" ">
<polygon fill="#e0e0e0" stroke="#999999" points="53,-349 0,-349 0,-330 53,-330 53,-349"/>
<text text-anchor="middle" x="26.5" y="-337" font-family="Helvetica,sans-Serif" font-size="10.00">limits.h</text>
</a>
</g>
</g>
<!-- Node1&#45;&gt;Node2 -->
<g id="edge1_Node000001_Node000002" class="edge">
<title>Node1&#45;&gt;Node2</title>
<g id="a_edge1_Node000001_Node000002"><a xlink:title=" ">
<path fill="none" stroke="#63b8ff" d="M623.06,-400.8C505.34,-394.25 267.33,-378.43 67.5,-349 66.21,-348.81 64.89,-348.6 63.56,-348.39"/>
<polygon fill="#63b8ff" stroke="#63b8ff" points="63.79,-344.87 53.33,-346.53 62.54,-351.76 63.79,-344.87"/>
</a>
</g>
</g>
<!-- Node3 -->
<g id="Node000003" class="node">
<title>Node3</title>
<g id="a_Node000003"><a xlink:title=" ">
<polygon fill="#e0e0e0" stroke="#999999" points="526,-129 479,-129 479,-110 526,-110 526,-129"/>
<text text-anchor="middle" x="502.5" y="-117" font-family="Helvetica,sans-Serif" font-size="10.00">vector</text>
</a>
</g>
</g>
<!-- Node1&#45;&gt;Node3 -->
<g id="edge2_Node000001_Node000003" class="edge">
<title>Node1&#45;&gt;Node3</title>
<g id="a_edge2_Node000001_Node000003"><a xlink:title=" ">
<path fill="none" stroke="#63b8ff" d="M623.42,-403.67C517.61,-397.88 326.74,-368.95 256.5,-239 210.86,-154.56 391.3,-129.56 468.75,-122.8"/>
<polygon fill="#63b8ff" stroke="#63b8ff" points="469.28,-126.27 478.96,-121.96 468.71,-119.29 469.28,-126.27"/>
</a>
</g>
</g>
<!-- Node4 -->
<g id="Node000004" class="node">
<title>Node4</title>
<g id="a_Node000004"><a xlink:title=" ">
<polygon fill="#e0e0e0" stroke="#999999" points="886.5,-184 854.5,-184 854.5,-165 886.5,-165 886.5,-184"/>
<text text-anchor="middle" x="870.5" y="-172" font-family="Helvetica,sans-Serif" font-size="10.00">set</text>
</a>
</g>
</g>
<!-- Node1&#45;&gt;Node4 -->
<g id="edge3_Node000001_Node000004" class="edge">
<title>Node1&#45;&gt;Node4</title>
<g id="a_edge3_Node000001_Node000004"><a xlink:title=" ">
<path fill="none" stroke="#63b8ff" d="M726.18,-384.93C777.73,-350.24 880.07,-277.93 898.5,-239 905.96,-223.25 896.05,-205.03 886.02,-192.16"/>
<polygon fill="#63b8ff" stroke="#63b8ff" points="888.41,-189.56 879.27,-184.19 883.07,-194.08 888.41,-189.56"/>
</a>
</g>
</g>
<!-- Node5 -->
<g id="Node000005" class="node">
<title>Node5</title>
<g id="a_Node000005"><a xlink:title=" ">
<polygon fill="#e0e0e0" stroke="#999999" points="377.5,-129 339.5,-129 339.5,-110 377.5,-110 377.5,-129"/>
<text text-anchor="middle" x="358.5" y="-117" font-family="Helvetica,sans-Serif" font-size="10.00">map</text>
</a>
</g>
</g>
<!-- Node1&#45;&gt;Node5 -->
<g id="edge4_Node000001_Node000005" class="edge">
<title>Node1&#45;&gt;Node5</title>
<g id="a_edge4_Node000001_Node000005"><a xlink:title=" ">
<path fill="none" stroke="#63b8ff" d="M623.22,-404.65C525.23,-402.99 347.1,-393.35 202.5,-349 144.44,-331.19 81.5,-346.23 81.5,-285.5 81.5,-285.5 81.5,-285.5 81.5,-228.5 81.5,-199.04 78.46,-184.54 100.5,-165 134.03,-135.27 268.94,-124.94 329.19,-121.76"/>
<polygon fill="#63b8ff" stroke="#63b8ff" points="329.38,-125.26 339.2,-121.26 329.04,-118.26 329.38,-125.26"/>
</a>
</g>
</g>
<!-- Node6 -->
<g id="Node000006" class="node">
<title>Node6</title>
<g id="a_Node000006"><a xlink:href="bytearray_8h.html" target="_top" xlink:title=" ">
<polygon fill="white" stroke="#666666" points="213,-184 110,-184 110,-165 213,-165 213,-184"/>
<text text-anchor="middle" x="161.5" y="-172" font-family="Helvetica,sans-Serif" font-size="10.00">realm/bytearray.h</text>
</a>
</g>
</g>
<!-- Node1&#45;&gt;Node6 -->
<g id="edge5_Node000001_Node000006" class="edge">
<title>Node1&#45;&gt;Node6</title>
<g id="a_edge5_Node000001_Node000006"><a xlink:title=" ">
<path fill="none" stroke="#63b8ff" d="M623.24,-405.06C506.1,-404.48 283.67,-396.88 223.5,-349 174.94,-310.36 164.38,-230.64 162.1,-194.3"/>
<polygon fill="#63b8ff" stroke="#63b8ff" points="165.59,-193.95 161.62,-184.13 158.6,-194.28 165.59,-193.95"/>
</a>
</g>
</g>
<!-- Node9 -->
<g id="Node000009" class="node">
<title>Node9</title>
<g id="a_Node000009"><a xlink:href="processor_8h.html" target="_top" xlink:title=" ">
<polygon fill="white" stroke="#666666" points="453.5,-294 349.5,-294 349.5,-275 453.5,-275 453.5,-294"/>
<text text-anchor="middle" x="401.5" y="-282" font-family="Helvetica,sans-Serif" font-size="10.00">realm/processor.h</text>
</a>
</g>
</g>
<!-- Node1&#45;&gt;Node9 -->
<g id="edge8_Node000001_Node000009" class="edge">
<title>Node1&#45;&gt;Node9</title>
<g id="a_edge8_Node000001_Node000009"><a xlink:title=" ">
<path fill="none" stroke="#63b8ff" d="M648.12,-384.98C586.97,-360.32 483.54,-318.59 432.24,-297.9"/>
<polygon fill="#63b8ff" stroke="#63b8ff" points="433.29,-294.55 422.71,-294.05 430.67,-301.04 433.29,-294.55"/>
</a>
</g>
</g>
<!-- Node23 -->
<g id="Node000023" class="node">
<title>Node23</title>
<g id="a_Node000023"><a xlink:href="memory_8h.html" target="_top" xlink:title=" ">
<polygon fill="white" stroke="#666666" points="1574,-184 1477,-184 1477,-165 1574,-165 1574,-184"/>
<text text-anchor="middle" x="1525.5" y="-172" font-family="Helvetica,sans-Serif" font-size="10.00">realm/memory.h</text>
</a>
</g>
</g>
<!-- Node1&#45;&gt;Node23 -->
<g id="edge39_Node000001_Node000023" class="edge">
<title>Node1&#45;&gt;Node23</title>
<g id="a_edge39_Node000001_Node000023"><a xlink:title=" ">
<path fill="none" stroke="#63b8ff" d="M769.74,-404.32C949.81,-402.41 1407.75,-388.17 1521.5,-294 1547.66,-272.35 1546,-253.51 1540.5,-220 1539.03,-211.05 1536.01,-201.47 1533.06,-193.51"/>
<polygon fill="#63b8ff" stroke="#63b8ff" points="1536.29,-192.16 1529.36,-184.15 1529.78,-194.74 1536.29,-192.16"/>
</a>
</g>
</g>
<!-- Node28 -->
<g id="Node000028" class="node">
<title>Node28</title>
<g id="a_Node000028"><a xlink:href="instance_8h.html" target="_top" xlink:title=" ">
<polygon fill="white" stroke="#666666" points="1065.5,-349 967.5,-349 967.5,-330 1065.5,-330 1065.5,-349"/>
<text text-anchor="middle" x="1016.5" y="-337" font-family="Helvetica,sans-Serif" font-size="10.00">realm/instance.h</text>
</a>
</g>
</g>
<!-- Node1&#45;&gt;Node28 -->
<g id="edge40_Node000001_Node000028" class="edge">
<title>Node1&#45;&gt;Node28</title>
<g id="a_edge40_Node000001_Node000028"><a xlink:title=" ">
<path fill="none" stroke="#63b8ff" d="M769.51,-389.9C828.78,-378.04 910.92,-361.62 963.9,-351.02"/>
<polygon fill="#63b8ff" stroke="#63b8ff" points="964.64,-354.44 973.76,-349.05 963.27,-347.58 964.64,-354.44"/>
</a>
</g>
</g>
<!-- Node40 -->
<g id="Node000040" class="node">
<title>Node40</title>
<g id="a_Node000040"><a xlink:href="faults_8h.html" target="_top" xlink:title=" ">
<polygon fill="white" stroke="#666666" points="1491,-294 1406,-294 1406,-275 1491,-275 1491,-294"/>
<text text-anchor="middle" x="1448.5" y="-282" font-family="Helvetica,sans-Serif" font-size="10.00">realm/faults.h</text>
</a>
</g>
</g>
<!-- Node1&#45;&gt;Node40 -->
<g id="edge71_Node000001_Node000040" class="edge">
<title>Node1&#45;&gt;Node40</title>
<g id="a_edge71_Node000001_Node000040"><a xlink:title=" ">
<path fill="none" stroke="#63b8ff" d="M769.74,-394.24C845.95,-383.45 968.7,-365.75 1074.5,-349 1189.2,-330.84 1323.33,-307.57 1395.7,-294.85"/>
<polygon fill="#63b8ff" stroke="#63b8ff" points="1396.68,-298.23 1405.92,-293.05 1395.47,-291.34 1396.68,-298.23"/>
</a>
</g>
</g>
<!-- Node41 -->
<g id="Node000041" class="node">
<title>Node41</title>
<g id="a_Node000041"><a xlink:title=" ">
<polygon fill="#e0e0e0" stroke="#999999" points="1779,-349 1676,-349 1676,-330 1779,-330 1779,-349"/>
<text text-anchor="middle" x="1727.5" y="-337" font-family="Helvetica,sans-Serif" font-size="10.00">realm/profiling.inl</text>
</a>
</g>
</g>
<!-- Node1&#45;&gt;Node41 -->
<g id="edge77_Node000001_Node000041" class="edge">
<title>Node1&#45;&gt;Node41</title>
<g id="a_edge77_Node000001_Node000041"><a xlink:title=" ">
<path fill="none" stroke="#63b8ff" d="M769.57,-402.06C930.82,-396.29 1329.2,-379.91 1661.5,-349 1662.79,-348.88 1664.1,-348.75 1665.42,-348.62"/>
<polygon fill="#63b8ff" stroke="#63b8ff" points="1666.09,-352.07 1675.66,-347.53 1665.34,-345.11 1666.09,-352.07"/>
</a>
</g>
</g>
<!-- Node7 -->
<g id="Node000007" class="node">
<title>Node7</title>
<g id="a_Node000007"><a xlink:title=" ">
<polygon fill="#e0e0e0" stroke="#999999" points="819.5,-74 763.5,-74 763.5,-55 819.5,-55 819.5,-74"/>
<text text-anchor="middle" x="791.5" y="-62" font-family="Helvetica,sans-Serif" font-size="10.00">stddef.h</text>
</a>
</g>
</g>
<!-- Node6&#45;&gt;Node7 -->
<g id="edge6_Node000006_Node000007" class="edge">
<title>Node6&#45;&gt;Node7</title>
<g id="a_edge6_Node000006_Node000007"><a xlink:title=" ">
<path fill="none" stroke="#63b8ff" d="M179.76,-164.81C210.23,-150.72 273.71,-123.17 330.5,-110 484.36,-74.33 673.52,-67.2 753.23,-65.81"/>
<polygon fill="#63b8ff" stroke="#63b8ff" points="753.34,-69.31 763.29,-65.66 753.23,-62.31 753.34,-69.31"/>
</a>
</g>
</g>
<!-- Node8 -->
<g id="Node000008" class="node">
<title>Node8</title>
<g id="a_Node000008"><a xlink:title=" ">
<polygon fill="#e0e0e0" stroke="#999999" points="216,-129 107,-129 107,-110 216,-110 216,-129"/>
<text text-anchor="middle" x="161.5" y="-117" font-family="Helvetica,sans-Serif" font-size="10.00">realm/bytearray.inl</text>
</a>
</g>
</g>
<!-- Node6&#45;&gt;Node8 -->
<g id="edge7_Node000006_Node000008" class="edge">
<title>Node6&#45;&gt;Node8</title>
<g id="a_edge7_Node000006_Node000008"><a xlink:title=" ">
<path fill="none" stroke="#63b8ff" d="M161.5,-164.75C161.5,-157.8 161.5,-147.85 161.5,-139.13"/>
<polygon fill="#63b8ff" stroke="#63b8ff" points="165,-139.09 161.5,-129.09 158,-139.09 165,-139.09"/>
</a>
</g>
</g>
<!-- Node9&#45;&gt;Node3 -->
<g id="edge36_Node000009_Node000003" class="edge">
<title>Node9&#45;&gt;Node3</title>
<g id="a_edge36_Node000009_Node000003"><a xlink:title=" ">
<path fill="none" stroke="#63b8ff" d="M403.6,-274.77C408.85,-254.14 424.1,-201.4 450.5,-165 458.89,-153.43 470.88,-142.9 481.23,-135"/>
<polygon fill="#63b8ff" stroke="#63b8ff" points="483.42,-137.74 489.43,-129.01 479.29,-132.08 483.42,-137.74"/>
</a>
</g>
</g>
<!-- Node9&#45;&gt;Node5 -->
<g id="edge37_Node000009_Node000005" class="edge">
<title>Node9&#45;&gt;Node5</title>
<g id="a_edge37_Node000009_Node000005"><a xlink:title=" ">
<path fill="none" stroke="#63b8ff" d="M349.46,-282.28C317.09,-278.48 277.71,-267.69 256.5,-239 226.78,-198.78 292.66,-155.08 331.94,-133.74"/>
<polygon fill="#63b8ff" stroke="#63b8ff" points="333.6,-136.82 340.81,-129.05 330.33,-130.63 333.6,-136.82"/>
</a>
</g>
</g>
<!-- Node10 -->
<g id="Node000010" class="node">
<title>Node10</title>
<g id="a_Node000010"><a xlink:href="realm__c_8h.html" target="_top" xlink:title=" ">
<polygon fill="white" stroke="#666666" points="1381.5,-129 1285.5,-129 1285.5,-110 1381.5,-110 1381.5,-129"/>
<text text-anchor="middle" x="1333.5" y="-117" font-family="Helvetica,sans-Serif" font-size="10.00">realm/realm_c.h</text>
</a>
</g>
</g>
<!-- Node9&#45;&gt;Node10 -->
<g id="edge9_Node000009_Node000010" class="edge">
<title>Node9&#45;&gt;Node10</title>
<g id="a_edge9_Node000009_Node000010"><a xlink:title=" ">
<path fill="none" stroke="#63b8ff" d="M453.72,-276.44C497.48,-269.62 561.16,-257.56 614.5,-239 632.33,-232.8 634.31,-225.06 652.5,-220 847.07,-165.84 907.02,-221.37 1105.5,-184 1134.24,-178.59 1140.38,-173.03 1168.5,-165 1209.87,-153.19 1257.31,-140.48 1290.67,-131.68"/>
<polygon fill="#63b8ff" stroke="#63b8ff" points="1291.77,-135.01 1300.55,-129.08 1289.99,-128.24 1291.77,-135.01"/>
</a>
</g>
</g>
<!-- Node15 -->
<g id="Node000015" class="node">
<title>Node15</title>
<g id="a_Node000015"><a xlink:href="event_8h.html" target="_top" xlink:title=" ">
<polygon fill="white" stroke="#666666" points="1339,-239 1254,-239 1254,-220 1339,-220 1339,-239"/>
<text text-anchor="middle" x="1296.5" y="-227" font-family="Helvetica,sans-Serif" font-size="10.00">realm/event.h</text>
</a>
</g>
</g>
<!-- Node9&#45;&gt;Node15 -->
<g id="edge15_Node000009_Node000015" class="edge">
<title>Node9&#45;&gt;Node15</title>
<g id="a_edge15_Node000009_Node000015"><a xlink:title=" ">
<path fill="none" stroke="#63b8ff" d="M453.82,-281.31C582.15,-275.8 922.8,-260.23 1206.5,-239 1218.6,-238.09 1231.61,-236.96 1243.87,-235.82"/>
<polygon fill="#63b8ff" stroke="#63b8ff" points="1244.33,-239.29 1253.95,-234.86 1243.67,-232.32 1244.33,-239.29"/>
</a>
</g>
</g>
<!-- Node27 -->
<g id="Node000027" class="node">
<title>Node27</title>
<g id="a_Node000027"><a xlink:title=" ">
<polygon fill="#e0e0e0" stroke="#999999" points="375.5,-239 265.5,-239 265.5,-220 375.5,-220 375.5,-239"/>
<text text-anchor="middle" x="320.5" y="-227" font-family="Helvetica,sans-Serif" font-size="10.00">realm/processor.inl</text>
</a>
</g>
</g>
<!-- Node9&#45;&gt;Node27 -->
<g id="edge38_Node000009_Node000027" class="edge">
<title>Node9&#45;&gt;Node27</title>
<g id="a_edge38_Node000009_Node000027"><a xlink:title=" ">
<path fill="none" stroke="#63b8ff" d="M388.49,-274.98C376.04,-266.84 357.04,-254.41 342.29,-244.76"/>
<polygon fill="#63b8ff" stroke="#63b8ff" points="344.04,-241.72 333.75,-239.17 340.2,-247.57 344.04,-241.72"/>
</a>
</g>
</g>
<!-- Node10&#45;&gt;Node7 -->
<g id="edge13_Node000010_Node000007" class="edge">
<title>Node10&#45;&gt;Node7</title>
<g id="a_edge13_Node000010_Node000007"><a xlink:title=" ">
<path fill="none" stroke="#63b8ff" d="M1285.4,-113.8C1179.15,-103.41 926.21,-78.67 829.76,-69.24"/>
<polygon fill="#63b8ff" stroke="#63b8ff" points="829.88,-65.74 819.59,-68.25 829.2,-72.7 829.88,-65.74"/>
</a>
</g>
</g>
<!-- Node11 -->
<g id="Node000011" class="node">
<title>Node11</title>
<g id="a_Node000011"><a xlink:href="realm__config_8h.html" target="_top" xlink:title=" ">
<polygon fill="white" stroke="#666666" points="1317.5,-74 1197.5,-74 1197.5,-55 1317.5,-55 1317.5,-74"/>
<text text-anchor="middle" x="1257.5" y="-62" font-family="Helvetica,sans-Serif" font-size="10.00">realm/realm_config.h</text>
</a>
</g>
</g>
<!-- Node10&#45;&gt;Node11 -->
<g id="edge10_Node000010_Node000011" class="edge">
<title>Node10&#45;&gt;Node11</title>
<g id="a_edge10_Node000010_Node000011"><a xlink:title=" ">
<path fill="none" stroke="#63b8ff" d="M1321.29,-109.98C1309.72,-101.92 1292.12,-89.65 1278.34,-80.03"/>
<polygon fill="#63b8ff" stroke="#63b8ff" points="1280.14,-77.02 1269.93,-74.17 1276.13,-82.76 1280.14,-77.02"/>
</a>
</g>
</g>
<!-- Node14 -->
<g id="Node000014" class="node">
<title>Node14</title>
<g id="a_Node000014"><a xlink:title=" ">
<polygon fill="#e0e0e0" stroke="#999999" points="1674,-74 1621,-74 1621,-55 1674,-55 1674,-74"/>
<text text-anchor="middle" x="1647.5" y="-62" font-family="Helvetica,sans-Serif" font-size="10.00">stdint.h</text>
</a>
</g>
</g>
<!-- Node10&#45;&gt;Node14 -->
<g id="edge14_Node000010_Node000014" class="edge">
<title>Node10&#45;&gt;Node14</title>
<g id="a_edge14_Node000010_Node000014"><a xlink:title=" ">
<path fill="none" stroke="#63b8ff" d="M1381.53,-110.39C1444.61,-99.75 1553.99,-81.28 1610.83,-71.69"/>
<polygon fill="#63b8ff" stroke="#63b8ff" points="1611.53,-75.12 1620.81,-70.01 1610.36,-68.22 1611.53,-75.12"/>
</a>
</g>
</g>
<!-- Node12 -->
<g id="Node000012" class="node">
<title>Node12</title>
<g id="a_Node000012"><a xlink:href="realm__defines_8h.html" target="_top" xlink:title=" ">
<polygon fill="white" stroke="#666666" points="1237,-19 1142,-19 1142,0 1237,0 1237,-19"/>
<text text-anchor="middle" x="1189.5" y="-7" font-family="Helvetica,sans-Serif" font-size="10.00">realm_defines.h</text>
</a>
</g>
</g>
<!-- Node11&#45;&gt;Node12 -->
<g id="edge11_Node000011_Node000012" class="edge">
<title>Node11&#45;&gt;Node12</title>
<g id="a_edge11_Node000011_Node000012"><a xlink:title=" ">
<path fill="none" stroke="#63b8ff" d="M1246.57,-54.98C1236.42,-47.07 1221.08,-35.11 1208.85,-25.58"/>
<polygon fill="#63b8ff" stroke="#63b8ff" points="1210.66,-22.56 1200.62,-19.17 1206.36,-28.08 1210.66,-22.56"/>
</a>
</g>
</g>
<!-- Node13 -->
<g id="Node000013" class="node">
<title>Node13</title>
<g id="a_Node000013"><a xlink:href="compiler__support_8h.html" target="_top" xlink:title=" ">
<polygon fill="white" stroke="#666666" points="1397.5,-19 1255.5,-19 1255.5,0 1397.5,0 1397.5,-19"/>
<text text-anchor="middle" x="1326.5" y="-7" font-family="Helvetica,sans-Serif" font-size="10.00">realm/compiler_support.h</text>
</a>
</g>
</g>
<!-- Node11&#45;&gt;Node13 -->
<g id="edge12_Node000011_Node000013" class="edge">
<title>Node11&#45;&gt;Node13</title>
<g id="a_edge12_Node000011_Node000013"><a xlink:title=" ">
<path fill="none" stroke="#63b8ff" d="M1268.59,-54.98C1278.99,-47 1294.76,-34.88 1307.22,-25.31"/>
<polygon fill="#63b8ff" stroke="#63b8ff" points="1309.41,-28.04 1315.21,-19.17 1305.15,-22.49 1309.41,-28.04"/>
</a>
</g>
</g>
<!-- Node15&#45;&gt;Node3 -->
<g id="edge32_Node000015_Node000003" class="edge">
<title>Node15&#45;&gt;Node3</title>
<g id="a_edge32_Node000015_Node000003"><a xlink:title=" ">
<path fill="none" stroke="#63b8ff" d="M1253.8,-222.06C1179.71,-210.87 1033.01,-188.57 1009.5,-184 973.2,-176.94 964.96,-171.16 928.5,-165 783.78,-140.57 609,-127.36 536.53,-122.59"/>
<polygon fill="#63b8ff" stroke="#63b8ff" points="536.4,-119.07 526.19,-121.92 535.95,-126.06 536.4,-119.07"/>
</a>
</g>
</g>
<!-- Node15&#45;&gt;Node4 -->
<g id="edge33_Node000015_Node000004" class="edge">
<title>Node15&#45;&gt;Node4</title>
<g id="a_edge33_Node000015_Node000004"><a xlink:title=" ">
<path fill="none" stroke="#63b8ff" d="M1253.7,-223.18C1166,-212.26 968.14,-187.65 896.78,-178.77"/>
<polygon fill="#63b8ff" stroke="#63b8ff" points="897.18,-175.29 886.82,-177.53 896.31,-182.24 897.18,-175.29"/>
</a>
</g>
</g>
<!-- Node15&#45;&gt;Node10 -->
<g id="edge16_Node000015_Node000010" class="edge">
<title>Node15&#45;&gt;Node10</title>
<g id="a_edge16_Node000015_Node000010"><a xlink:title=" ">
<path fill="none" stroke="#63b8ff" d="M1299.53,-219.66C1305.57,-202.01 1319.25,-162.09 1327.29,-138.64"/>
<polygon fill="#63b8ff" stroke="#63b8ff" points="1330.6,-139.75 1330.53,-129.16 1323.98,-137.48 1330.6,-139.75"/>
</a>
</g>
</g>
<!-- Node16 -->
<g id="Node000016" class="node">
<title>Node16</title>
<g id="a_Node000016"><a xlink:href="utils_8h.html" target="_top" xlink:title=" ">
<polygon fill="white" stroke="#666666" points="1096.5,-184 1018.5,-184 1018.5,-165 1096.5,-165 1096.5,-184"/>
<text text-anchor="middle" x="1057.5" y="-172" font-family="Helvetica,sans-Serif" font-size="10.00">realm/utils.h</text>
</a>
</g>
</g>
<!-- Node15&#45;&gt;Node16 -->
<g id="edge17_Node000015_Node000016" class="edge">
<title>Node15&#45;&gt;Node16</title>
<g id="a_edge17_Node000015_Node000016"><a xlink:title=" ">
<path fill="none" stroke="#63b8ff" d="M1258.1,-219.98C1216.76,-210.82 1150.9,-196.21 1106.01,-186.26"/>
<polygon fill="#63b8ff" stroke="#63b8ff" points="1106.72,-182.83 1096.2,-184.08 1105.21,-189.66 1106.72,-182.83"/>
</a>
</g>
</g>
<!-- Node15&#45;&gt;Node23 -->
<g id="edge27_Node000015_Node000023" class="edge">
<title>Node15&#45;&gt;Node23</title>
<g id="a_edge27_Node000015_Node000023"><a xlink:title=" ">
<path fill="none" stroke="#63b8ff" d="M1333.29,-219.98C1372.74,-210.86 1435.48,-196.33 1478.48,-186.38"/>
<polygon fill="#63b8ff" stroke="#63b8ff" points="1479.47,-189.75 1488.42,-184.08 1477.89,-182.93 1479.47,-189.75"/>
</a>
</g>
</g>
<!-- Node24 -->
<g id="Node000024" class="node">
<title>Node24</title>
<g id="a_Node000024"><a xlink:title=" ">
<polygon fill="#e0e0e0" stroke="#999999" points="1459.5,-129 1399.5,-129 1399.5,-110 1459.5,-110 1459.5,-129"/>
<text text-anchor="middle" x="1429.5" y="-117" font-family="Helvetica,sans-Serif" font-size="10.00">iostream</text>
</a>
</g>
</g>
<!-- Node15&#45;&gt;Node24 -->
<g id="edge34_Node000015_Node000024" class="edge">
<title>Node15&#45;&gt;Node24</title>
<g id="a_edge34_Node000015_Node000024"><a xlink:title=" ">
<path fill="none" stroke="#63b8ff" d="M1307.38,-219.66C1330.1,-201.22 1382.77,-158.45 1410.94,-135.57"/>
<polygon fill="#63b8ff" stroke="#63b8ff" points="1413.28,-138.18 1418.84,-129.16 1408.87,-132.75 1413.28,-138.18"/>
</a>
</g>
</g>
<!-- Node26 -->
<g id="Node000026" class="node">
<title>Node26</title>
<g id="a_Node000026"><a xlink:title=" ">
<polygon fill="#e0e0e0" stroke="#999999" points="1268,-184 1177,-184 1177,-165 1268,-165 1268,-184"/>
<text text-anchor="middle" x="1222.5" y="-172" font-family="Helvetica,sans-Serif" font-size="10.00">realm/event.inl</text>
</a>
</g>
</g>
<!-- Node15&#45;&gt;Node26 -->
<g id="edge35_Node000015_Node000026" class="edge">
<title>Node15&#45;&gt;Node26</title>
<g id="a_edge35_Node000015_Node000026"><a xlink:title=" ">
<path fill="none" stroke="#63b8ff" d="M1284.61,-219.98C1273.35,-211.92 1256.21,-199.65 1242.79,-190.03"/>
<polygon fill="#63b8ff" stroke="#63b8ff" points="1244.77,-187.15 1234.61,-184.17 1240.7,-192.84 1244.77,-187.15"/>
</a>
</g>
</g>
<!-- Node16&#45;&gt;Node3 -->
<g id="edge21_Node000016_Node000003" class="edge">
<title>Node16&#45;&gt;Node3</title>
<g id="a_edge21_Node000016_Node000003"><a xlink:title=" ">
<path fill="none" stroke="#63b8ff" d="M1018.47,-166.92C1013.77,-166.22 1009.03,-165.56 1004.5,-165 828.75,-143.15 617.09,-128.03 536.18,-122.66"/>
<polygon fill="#63b8ff" stroke="#63b8ff" points="536.29,-119.16 526.09,-122 535.83,-126.15 536.29,-119.16"/>
</a>
</g>
</g>
<!-- Node16&#45;&gt;Node5 -->
<g id="edge22_Node000016_Node000005" class="edge">
<title>Node16&#45;&gt;Node5</title>
<g id="a_edge22_Node000016_Node000005"><a xlink:title=" ">
<path fill="none" stroke="#63b8ff" d="M1018.28,-170.54C923.81,-163.42 676.21,-144.74 469.5,-129 441.84,-126.89 410.31,-124.48 387.94,-122.76"/>
<polygon fill="#63b8ff" stroke="#63b8ff" points="387.99,-119.26 377.75,-121.98 387.45,-126.23 387.99,-119.26"/>
</a>
</g>
</g>
<!-- Node16&#45;&gt;Node11 -->
<g id="edge18_Node000016_Node000011" class="edge">
<title>Node16&#45;&gt;Node11</title>
<g id="a_edge18_Node000016_Node000011"><a xlink:title=" ">
<path fill="none" stroke="#63b8ff" d="M1096.89,-165.97C1146.97,-156.07 1228.21,-138.79 1238.5,-129 1250.6,-117.48 1255.09,-98.61 1256.71,-84.42"/>
<polygon fill="#63b8ff" stroke="#63b8ff" points="1260.21,-84.52 1257.48,-74.28 1253.23,-83.99 1260.21,-84.52"/>
</a>
</g>
</g>
<!-- Node17 -->
<g id="Node000017" class="node">
<title>Node17</title>
<g id="a_Node000017"><a xlink:title=" ">
<polygon fill="#e0e0e0" stroke="#999999" points="801.5,-129 757.5,-129 757.5,-110 801.5,-110 801.5,-129"/>
<text text-anchor="middle" x="779.5" y="-117" font-family="Helvetica,sans-Serif" font-size="10.00">string</text>
</a>
</g>
</g>
<!-- Node16&#45;&gt;Node17 -->
<g id="edge19_Node000016_Node000017" class="edge">
<title>Node16&#45;&gt;Node17</title>
<g id="a_edge19_Node000016_Node000017"><a xlink:title=" ">
<path fill="none" stroke="#63b8ff" d="M1018.26,-166.02C962.81,-155.45 862.6,-136.34 811.43,-126.59"/>
<polygon fill="#63b8ff" stroke="#63b8ff" points="812.07,-123.15 801.59,-124.71 810.75,-130.02 812.07,-123.15"/>
</a>
</g>
</g>
<!-- Node18 -->
<g id="Node000018" class="node">
<title>Node18</title>
<g id="a_Node000018"><a xlink:title=" ">
<polygon fill="#e0e0e0" stroke="#999999" points="1159,-129 1102,-129 1102,-110 1159,-110 1159,-129"/>
<text text-anchor="middle" x="1130.5" y="-117" font-family="Helvetica,sans-Serif" font-size="10.00">ostream</text>
</a>
</g>
</g>
<!-- Node16&#45;&gt;Node18 -->
<g id="edge20_Node000016_Node000018" class="edge">
<title>Node16&#45;&gt;Node18</title>
<g id="a_edge20_Node000016_Node000018"><a xlink:title=" ">
<path fill="none" stroke="#63b8ff" d="M1069.23,-164.98C1080.23,-157 1096.92,-144.88 1110.1,-135.31"/>
<polygon fill="#63b8ff" stroke="#63b8ff" points="1112.52,-137.88 1118.56,-129.17 1108.41,-132.21 1112.52,-137.88"/>
</a>
</g>
</g>
<!-- Node19 -->
<g id="Node000019" class="node">
<title>Node19</title>
<g id="a_Node000019"><a xlink:title=" ">
<polygon fill="#e0e0e0" stroke="#999999" points="1229.5,-129 1177.5,-129 1177.5,-110 1229.5,-110 1229.5,-129"/>
<text text-anchor="middle" x="1203.5" y="-117" font-family="Helvetica,sans-Serif" font-size="10.00">cassert</text>
</a>
</g>
</g>
<!-- Node16&#45;&gt;Node19 -->
<g id="edge23_Node000016_Node000019" class="edge">
<title>Node16&#45;&gt;Node19</title>
<g id="a_edge23_Node000016_Node000019"><a xlink:title=" ">
<path fill="none" stroke="#63b8ff" d="M1080.96,-164.98C1105.08,-156.23 1142.87,-142.51 1170.1,-132.62"/>
<polygon fill="#63b8ff" stroke="#63b8ff" points="1171.41,-135.87 1179.62,-129.17 1169.02,-129.29 1171.41,-135.87"/>
</a>
</g>
</g>
<!-- Node20 -->
<g id="Node000020" class="node">
<title>Node20</title>
<g id="a_Node000020"><a xlink:title=" ">
<polygon fill="#e0e0e0" stroke="#999999" points="907.5,-129 857.5,-129 857.5,-110 907.5,-110 907.5,-129"/>
<text text-anchor="middle" x="882.5" y="-117" font-family="Helvetica,sans-Serif" font-size="10.00">cstdint</text>
</a>
</g>
</g>
<!-- Node16&#45;&gt;Node20 -->
<g id="edge24_Node000016_Node000020" class="edge">
<title>Node16&#45;&gt;Node20</title>
<g id="a_edge24_Node000016_Node000020"><a xlink:title=" ">
<path fill="none" stroke="#63b8ff" d="M1029.38,-164.98C998.91,-155.76 950.25,-141.02 917.37,-131.06"/>
<polygon fill="#63b8ff" stroke="#63b8ff" points="918.29,-127.68 907.71,-128.13 916.26,-134.38 918.29,-127.68"/>
</a>
</g>
</g>
<!-- Node21 -->
<g id="Node000021" class="node">
<title>Node21</title>
<g id="a_Node000021"><a xlink:title=" ">
<polygon fill="#e0e0e0" stroke="#999999" points="981.5,-129 925.5,-129 925.5,-110 981.5,-110 981.5,-129"/>
<text text-anchor="middle" x="953.5" y="-117" font-family="Helvetica,sans-Serif" font-size="10.00">sstream</text>
</a>
</g>
</g>
<!-- Node16&#45;&gt;Node21 -->
<g id="edge25_Node000016_Node000021" class="edge">
<title>Node16&#45;&gt;Node21</title>
<g id="a_edge25_Node000016_Node000021"><a xlink:title=" ">
<path fill="none" stroke="#63b8ff" d="M1040.79,-164.98C1024.29,-156.57 998.8,-143.59 979.62,-133.81"/>
<polygon fill="#63b8ff" stroke="#63b8ff" points="981.01,-130.59 970.51,-129.17 977.83,-136.83 981.01,-130.59"/>
</a>
</g>
</g>
<!-- Node22 -->
<g id="Node000022" class="node">
<title>Node22</title>
<g id="a_Node000022"><a xlink:title=" ">
<polygon fill="#e0e0e0" stroke="#999999" points="1083.5,-129 999.5,-129 999.5,-110 1083.5,-110 1083.5,-129"/>
<text text-anchor="middle" x="1041.5" y="-117" font-family="Helvetica,sans-Serif" font-size="10.00">realm/utils.inl</text>
</a>
</g>
</g>
<!-- Node16&#45;&gt;Node22 -->
<g id="edge26_Node000016_Node000022" class="edge">
<title>Node16&#45;&gt;Node22</title>
<g id="a_edge26_Node000016_Node000022"><a xlink:title=" ">
<path fill="none" stroke="#63b8ff" d="M1054.86,-164.75C1052.74,-157.72 1049.69,-147.62 1047.04,-138.84"/>
<polygon fill="#63b8ff" stroke="#63b8ff" points="1050.33,-137.65 1044.09,-129.09 1043.63,-139.67 1050.33,-137.65"/>
</a>
</g>
</g>
<!-- Node23&#45;&gt;Node7 -->
<g id="edge29_Node000023_Node000007" class="edge">
<title>Node23&#45;&gt;Node7</title>
<g id="a_edge29_Node000023_Node000007"><a xlink:title=" ">
<path fill="none" stroke="#63b8ff" d="M1520.6,-164.56C1512.14,-150.11 1493.28,-122.05 1468.5,-110 1411.06,-82.08 965.06,-69.53 830.08,-66.34"/>
<polygon fill="#63b8ff" stroke="#63b8ff" points="829.89,-62.84 819.81,-66.11 829.73,-69.84 829.89,-62.84"/>
</a>
</g>
</g>
<!-- Node23&#45;&gt;Node10 -->
<g id="edge28_Node000023_Node000010" class="edge">
<title>Node23&#45;&gt;Node10</title>
<g id="a_edge28_Node000023_Node000010"><a xlink:title=" ">
<path fill="none" stroke="#63b8ff" d="M1494.65,-164.98C1462,-155.97 1410.3,-141.7 1374.3,-131.76"/>
<polygon fill="#63b8ff" stroke="#63b8ff" points="1375.16,-128.37 1364.59,-129.08 1373.3,-135.12 1375.16,-128.37"/>
</a>
</g>
</g>
<!-- Node23&#45;&gt;Node24 -->
<g id="edge30_Node000023_Node000024" class="edge">
<title>Node23&#45;&gt;Node24</title>
<g id="a_edge30_Node000023_Node000024"><a xlink:title=" ">
<path fill="none" stroke="#63b8ff" d="M1510.08,-164.98C1495.05,-156.69 1471.96,-143.94 1454.34,-134.22"/>
<polygon fill="#63b8ff" stroke="#63b8ff" points="1455.65,-130.94 1445.2,-129.17 1452.27,-137.07 1455.65,-130.94"/>
</a>
</g>
</g>
<!-- Node25 -->
<g id="Node000025" class="node">
<title>Node25</title>
<g id="a_Node000025"><a xlink:title=" ">
<polygon fill="#e0e0e0" stroke="#999999" points="1581,-129 1516,-129 1516,-110 1581,-110 1581,-129"/>
<text text-anchor="middle" x="1548.5" y="-117" font-family="Helvetica,sans-Serif" font-size="10.00">functional</text>
</a>
</g>
</g>
<!-- Node23&#45;&gt;Node25 -->
<g id="edge31_Node000023_Node000025" class="edge">
<title>Node23&#45;&gt;Node25</title>
<g id="a_edge31_Node000023_Node000025"><a xlink:title=" ">
<path fill="none" stroke="#63b8ff" d="M1529.3,-164.75C1532.41,-157.57 1536.92,-147.18 1540.79,-138.27"/>
<polygon fill="#63b8ff" stroke="#63b8ff" points="1544,-139.66 1544.77,-129.09 1537.58,-136.87 1544,-139.66"/>
</a>
</g>
</g>
<!-- Node28&#45;&gt;Node3 -->
<g id="edge68_Node000028_Node000003" class="edge">
<title>Node28&#45;&gt;Node3</title>
<g id="a_edge68_Node000028_Node000003"><a xlink:title=" ">
<path fill="none" stroke="#63b8ff" d="M967.31,-337.27C848.63,-333.11 552.4,-315.15 498.5,-239 477.47,-209.29 487.4,-164.08 495.56,-138.96"/>
<polygon fill="#63b8ff" stroke="#63b8ff" points="498.96,-139.84 498.95,-129.25 492.35,-137.53 498.96,-139.84"/>
</a>
</g>
</g>
<!-- Node28&#45;&gt;Node9 -->
<g id="edge45_Node000028_Node000009" class="edge">
<title>Node28&#45;&gt;Node9</title>
<g id="a_edge45_Node000028_Node000009"><a xlink:title=" ">
<path fill="none" stroke="#63b8ff" d="M967.22,-335.29C871.01,-328.85 651.53,-313.3 467.5,-294 466.24,-293.87 464.97,-293.73 463.68,-293.59"/>
<polygon fill="#63b8ff" stroke="#63b8ff" points="464.04,-290.11 453.71,-292.46 463.25,-297.06 464.04,-290.11"/>
</a>
</g>
</g>
<!-- Node28&#45;&gt;Node10 -->
<g id="edge42_Node000028_Node000010" class="edge">
<title>Node28&#45;&gt;Node10</title>
<g id="a_edge42_Node000028_Node000010"><a xlink:title=" ">
<path fill="none" stroke="#63b8ff" d="M1064.94,-329.99C1118.99,-320.24 1202.88,-304.29 1233.5,-294 1287.2,-275.95 1318.29,-286.93 1348.5,-239 1368.14,-207.84 1353.3,-162.87 1342.38,-138.26"/>
<polygon fill="#63b8ff" stroke="#63b8ff" points="1345.47,-136.61 1338.05,-129.05 1339.14,-139.59 1345.47,-136.61"/>
</a>
</g>
</g>
<!-- Node28&#45;&gt;Node11 -->
<g id="edge41_Node000028_Node000011" class="edge">
<title>Node28&#45;&gt;Node11</title>
<g id="a_edge41_Node000028_Node000011"><a xlink:title=" ">
<path fill="none" stroke="#63b8ff" d="M1015.19,-329.79C1013,-317.07 1007.78,-292.98 997.5,-275 964.42,-217.11 944.81,-209.88 895.5,-165 871.72,-143.36 827.03,-133.93 848.5,-110 870.67,-85.28 1076.42,-73 1187.36,-68.12"/>
<polygon fill="#63b8ff" stroke="#63b8ff" points="1187.62,-71.61 1197.46,-67.69 1187.32,-64.62 1187.62,-71.61"/>
</a>
</g>
</g>
<!-- Node28&#45;&gt;Node14 -->
<g id="edge69_Node000028_Node000014" class="edge">
<title>Node28&#45;&gt;Node14</title>
<g id="a_edge69_Node000028_Node000014"><a xlink:title=" ">
<path fill="none" stroke="#63b8ff" d="M1065.61,-338.72C1156.72,-338.14 1357.56,-332.15 1521.5,-294 1597.63,-276.28 1685.5,-308.66 1685.5,-230.5 1685.5,-230.5 1685.5,-230.5 1685.5,-173.5 1685.5,-140.02 1669.05,-103.84 1657.8,-83.01"/>
<polygon fill="#63b8ff" stroke="#63b8ff" points="1660.74,-81.1 1652.78,-74.1 1654.63,-84.53 1660.74,-81.1"/>
</a>
</g>
</g>
<!-- Node28&#45;&gt;Node15 -->
<g id="edge43_Node000028_Node000015" class="edge">
<title>Node28&#45;&gt;Node15</title>
<g id="a_edge43_Node000028_Node000015"><a xlink:title=" ">
<path fill="none" stroke="#63b8ff" d="M1065.73,-331.83C1104.38,-325.41 1158.94,-313.7 1203.5,-294 1231.93,-281.43 1260.91,-259.98 1278.8,-245.53"/>
<polygon fill="#63b8ff" stroke="#63b8ff" points="1281.15,-248.13 1286.64,-239.07 1276.7,-242.73 1281.15,-248.13"/>
</a>
</g>
</g>
<!-- Node28&#45;&gt;Node23 -->
<g id="edge44_Node000028_Node000023" class="edge">
<title>Node28&#45;&gt;Node23</title>
<g id="a_edge44_Node000028_Node000023"><a xlink:title=" ">
<path fill="none" stroke="#63b8ff" d="M1065.6,-337.24C1182.21,-333.8 1468.47,-322.51 1500.5,-294 1528.55,-269.04 1529.63,-221.24 1527.72,-194.61"/>
<polygon fill="#63b8ff" stroke="#63b8ff" points="1531.17,-193.95 1526.75,-184.32 1524.2,-194.61 1531.17,-193.95"/>
</a>
</g>
</g>
<!-- Node29 -->
<g id="Node000029" class="node">
<title>Node29</title>
<g id="a_Node000029"><a xlink:href="point_8h.html" target="_top" xlink:title=" ">
<polygon fill="white" stroke="#666666" points="1194.5,-294 1112.5,-294 1112.5,-275 1194.5,-275 1194.5,-294"/>
<text text-anchor="middle" x="1153.5" y="-282" font-family="Helvetica,sans-Serif" font-size="10.00">realm/point.h</text>
</a>
</g>
</g>
<!-- Node28&#45;&gt;Node29 -->
<g id="edge46_Node000028_Node000029" class="edge">
<title>Node28&#45;&gt;Node29</title>
<g id="a_edge46_Node000028_Node000029"><a xlink:title=" ">
<path fill="none" stroke="#63b8ff" d="M1038.51,-329.98C1060.95,-321.3 1095.98,-307.75 1121.49,-297.88"/>
<polygon fill="#63b8ff" stroke="#63b8ff" points="1123.02,-301.04 1131.09,-294.17 1120.5,-294.51 1123.02,-301.04"/>
</a>
</g>
</g>
<!-- Node32 -->
<g id="Node000032" class="node">
<title>Node32</title>
<g id="a_Node000032"><a xlink:href="custom__serdez_8h.html" target="_top" xlink:title=" ">
<polygon fill="white" stroke="#666666" points="795,-294 664,-294 664,-275 795,-275 795,-294"/>
<text text-anchor="middle" x="729.5" y="-282" font-family="Helvetica,sans-Serif" font-size="10.00">realm/custom_serdez.h</text>
</a>
</g>
</g>
<!-- Node28&#45;&gt;Node32 -->
<g id="edge53_Node000028_Node000032" class="edge">
<title>Node28&#45;&gt;Node32</title>
<g id="a_edge53_Node000028_Node000032"><a xlink:title=" ">
<path fill="none" stroke="#63b8ff" d="M970.39,-329.98C920.22,-320.72 839.99,-305.9 786.06,-295.94"/>
<polygon fill="#63b8ff" stroke="#63b8ff" points="786.44,-292.46 775.97,-294.08 785.17,-299.34 786.44,-292.46"/>
</a>
</g>
</g>
<!-- Node39 -->
<g id="Node000039" class="node">
<title>Node39</title>
<g id="a_Node000039"><a xlink:title=" ">
<polygon fill="#e0e0e0" stroke="#999999" points="988.5,-294 884.5,-294 884.5,-275 988.5,-275 988.5,-294"/>
<text text-anchor="middle" x="936.5" y="-282" font-family="Helvetica,sans-Serif" font-size="10.00">realm/instance.inl</text>
</a>
</g>
</g>
<!-- Node28&#45;&gt;Node39 -->
<g id="edge70_Node000028_Node000039" class="edge">
<title>Node28&#45;&gt;Node39</title>
<g id="a_edge70_Node000028_Node000039"><a xlink:title=" ">
<path fill="none" stroke="#63b8ff" d="M1003.65,-329.98C991.36,-321.84 972.59,-309.41 958.02,-299.76"/>
<polygon fill="#63b8ff" stroke="#63b8ff" points="959.86,-296.78 949.59,-294.17 955.99,-302.61 959.86,-296.78"/>
</a>
</g>
</g>
<!-- Node29&#45;&gt;Node11 -->
<g id="edge47_Node000029_Node000011" class="edge">
<title>Node29&#45;&gt;Node11</title>
<g id="a_edge47_Node000029_Node000011"><a xlink:title=" ">
<path fill="none" stroke="#63b8ff" d="M1194.56,-279.98C1291.85,-270.75 1532.15,-242.41 1583.5,-184 1605.31,-159.19 1612.26,-134.86 1590.5,-110 1573.47,-90.54 1420.21,-76.69 1327.66,-70.01"/>
<polygon fill="#63b8ff" stroke="#63b8ff" points="1327.74,-66.51 1317.51,-69.29 1327.24,-73.49 1327.74,-66.51"/>
</a>
</g>
</g>
<!-- Node29&#45;&gt;Node15 -->
<g id="edge48_Node000029_Node000015" class="edge">
<title>Node29&#45;&gt;Node15</title>
<g id="a_edge48_Node000029_Node000015"><a xlink:title=" ">
<path fill="none" stroke="#63b8ff" d="M1176.48,-274.98C1200,-266.27 1236.79,-252.63 1263.44,-242.75"/>
<polygon fill="#63b8ff" stroke="#63b8ff" points="1264.95,-245.93 1273.11,-239.17 1262.51,-239.36 1264.95,-245.93"/>
</a>
</g>
</g>
<!-- Node29&#45;&gt;Node16 -->
<g id="edge49_Node000029_Node000016" class="edge">
<title>Node29&#45;&gt;Node16</title>
<g id="a_edge49_Node000029_Node000016"><a xlink:title=" ">
<path fill="none" stroke="#63b8ff" d="M1112.33,-282.75C1079.68,-279.71 1035.93,-269.67 1013.5,-239 1001.43,-222.5 1019.33,-203.14 1035.8,-190.17"/>
<polygon fill="#63b8ff" stroke="#63b8ff" points="1038.15,-192.78 1044.11,-184.02 1033.99,-187.15 1038.15,-192.78"/>
</a>
</g>
</g>
<!-- Node29&#45;&gt;Node24 -->
<g id="edge50_Node000029_Node000024" class="edge">
<title>Node29&#45;&gt;Node24</title>
<g id="a_edge50_Node000029_Node000024"><a xlink:title=" ">
<path fill="none" stroke="#63b8ff" d="M1194.65,-282.69C1236.67,-280.01 1302.14,-270.56 1348.5,-239 1385.61,-213.73 1410.61,-165.33 1422.16,-138.88"/>
<polygon fill="#63b8ff" stroke="#63b8ff" points="1425.53,-139.89 1426.16,-129.31 1419.07,-137.18 1425.53,-139.89"/>
</a>
</g>
</g>
<!-- Node30 -->
<g id="Node000030" class="node">
<title>Node30</title>
<g id="a_Node000030"><a xlink:title=" ">
<polygon fill="#e0e0e0" stroke="#999999" points="1091,-239 1022,-239 1022,-220 1091,-220 1091,-239"/>
<text text-anchor="middle" x="1056.5" y="-227" font-family="Helvetica,sans-Serif" font-size="10.00">type_traits</text>
</a>
</g>
</g>
<!-- Node29&#45;&gt;Node30 -->
<g id="edge51_Node000029_Node000030" class="edge">
<title>Node29&#45;&gt;Node30</title>
<g id="a_edge51_Node000029_Node000030"><a xlink:title=" ">
<path fill="none" stroke="#63b8ff" d="M1137.92,-274.98C1122.73,-266.69 1099.4,-253.94 1081.6,-244.22"/>
<polygon fill="#63b8ff" stroke="#63b8ff" points="1082.82,-240.89 1072.37,-239.17 1079.47,-247.04 1082.82,-240.89"/>
</a>
</g>
</g>
<!-- Node31 -->
<g id="Node000031" class="node">
<title>Node31</title>
<g id="a_Node000031"><a xlink:title=" ">
<polygon fill="#e0e0e0" stroke="#999999" points="1197.5,-239 1109.5,-239 1109.5,-220 1197.5,-220 1197.5,-239"/>
<text text-anchor="middle" x="1153.5" y="-227" font-family="Helvetica,sans-Serif" font-size="10.00">realm/point.inl</text>
</a>
</g>
</g>
<!-- Node29&#45;&gt;Node31 -->
<g id="edge52_Node000029_Node000031" class="edge">
<title>Node29&#45;&gt;Node31</title>
<g id="a_edge52_Node000029_Node000031"><a xlink:title=" ">
<path fill="none" stroke="#63b8ff" d="M1153.5,-274.75C1153.5,-267.8 1153.5,-257.85 1153.5,-249.13"/>
<polygon fill="#63b8ff" stroke="#63b8ff" points="1157,-249.09 1153.5,-239.09 1150,-249.09 1157,-249.09"/>
</a>
</g>
</g>
<!-- Node33 -->
<g id="Node000033" class="node">
<title>Node33</title>
<g id="a_Node000033"><a xlink:href="serialize_8h.html" target="_top" xlink:title=" ">
<polygon fill="white" stroke="#666666" points="605.5,-239 507.5,-239 507.5,-220 605.5,-220 605.5,-239"/>
<text text-anchor="middle" x="556.5" y="-227" font-family="Helvetica,sans-Serif" font-size="10.00">realm/serialize.h</text>
</a>
</g>
</g>
<!-- Node32&#45;&gt;Node33 -->
<g id="edge54_Node000032_Node000033" class="edge">
<title>Node32&#45;&gt;Node33</title>
<g id="a_edge54_Node000032_Node000033"><a xlink:title=" ">
<path fill="none" stroke="#63b8ff" d="M701.7,-274.98C672.53,-266.05 626.5,-251.94 594.1,-242.02"/>
<polygon fill="#63b8ff" stroke="#63b8ff" points="595.1,-238.66 584.51,-239.08 593.05,-245.36 595.1,-238.66"/>
</a>
</g>
</g>
<!-- Node37 -->
<g id="Node000037" class="node">
<title>Node37</title>
<g id="a_Node000037"><a xlink:title=" ">
<polygon fill="#e0e0e0" stroke="#999999" points="733.5,-239 661.5,-239 661.5,-220 733.5,-220 733.5,-239"/>
<text text-anchor="middle" x="697.5" y="-227" font-family="Helvetica,sans-Serif" font-size="10.00">sys/types.h</text>
</a>
</g>
</g>
<!-- Node32&#45;&gt;Node37 -->
<g id="edge66_Node000032_Node000037" class="edge">
<title>Node32&#45;&gt;Node37</title>
<g id="a_edge66_Node000032_Node000037"><a xlink:title=" ">
<path fill="none" stroke="#63b8ff" d="M724.22,-274.75C719.79,-267.42 713.34,-256.73 707.88,-247.7"/>
<polygon fill="#63b8ff" stroke="#63b8ff" points="710.85,-245.84 702.69,-239.09 704.86,-249.46 710.85,-245.84"/>
</a>
</g>
</g>
<!-- Node38 -->
<g id="Node000038" class="node">
<title>Node38</title>
<g id="a_Node000038"><a xlink:title=" ">
<polygon fill="#e0e0e0" stroke="#999999" points="889,-239 752,-239 752,-220 889,-220 889,-239"/>
<text text-anchor="middle" x="820.5" y="-227" font-family="Helvetica,sans-Serif" font-size="10.00">realm/custom_serdez.inl</text>
</a>
</g>
</g>
<!-- Node32&#45;&gt;Node38 -->
<g id="edge67_Node000032_Node000038" class="edge">
<title>Node32&#45;&gt;Node38</title>
<g id="a_edge67_Node000032_Node000038"><a xlink:title=" ">
<path fill="none" stroke="#63b8ff" d="M744.12,-274.98C758.36,-266.69 780.25,-253.94 796.95,-244.22"/>
<polygon fill="#63b8ff" stroke="#63b8ff" points="798.73,-247.23 805.61,-239.17 795.21,-241.18 798.73,-247.23"/>
</a>
</g>
</g>
<!-- Node33&#45;&gt;Node3 -->
<g id="edge59_Node000033_Node000003" class="edge">
<title>Node33&#45;&gt;Node3</title>
<g id="a_edge59_Node000033_Node000003"><a xlink:title=" ">
<path fill="none" stroke="#63b8ff" d="M548.18,-219.99C540.31,-211.51 528.65,-197.78 521.5,-184 514.12,-169.78 509.15,-152.25 506.15,-139.21"/>
<polygon fill="#63b8ff" stroke="#63b8ff" points="509.5,-138.16 504.01,-129.11 502.66,-139.61 509.5,-138.16"/>
</a>
</g>
</g>
<!-- Node33&#45;&gt;Node4 -->
<g id="edge61_Node000033_Node000004" class="edge">
<title>Node33&#45;&gt;Node4</title>
<g id="a_edge61_Node000033_Node000004"><a xlink:title=" ">
<path fill="none" stroke="#63b8ff" d="M605.7,-221.52C674.72,-211.61 796.75,-193.59 840.5,-184 841.78,-183.72 843.08,-183.42 844.4,-183.1"/>
<polygon fill="#63b8ff" stroke="#63b8ff" points="845.63,-186.39 854.4,-180.45 843.84,-179.63 845.63,-186.39"/>
</a>
</g>
</g>
<!-- Node33&#45;&gt;Node5 -->
<g id="edge62_Node000033_Node000005" class="edge">
<title>Node33&#45;&gt;Node5</title>
<g id="a_edge62_Node000033_Node000005"><a xlink:title=" ">
<path fill="none" stroke="#63b8ff" d="M507.5,-220.53C478.15,-214.08 441.12,-202.87 412.5,-184 394.26,-171.98 378.76,-152.06 369.11,-137.73"/>
<polygon fill="#63b8ff" stroke="#63b8ff" points="372,-135.77 363.64,-129.27 366.12,-139.56 372,-135.77"/>
</a>
</g>
</g>
<!-- Node33&#45;&gt;Node6 -->
<g id="edge56_Node000033_Node000006" class="edge">
<title>Node33&#45;&gt;Node6</title>
<g id="a_edge56_Node000033_Node000006"><a xlink:title=" ">
<path fill="none" stroke="#63b8ff" d="M507.27,-221.89C435.43,-212.25 301.89,-194.34 223.45,-183.81"/>
<polygon fill="#63b8ff" stroke="#63b8ff" points="223.61,-180.3 213.23,-182.44 222.68,-187.24 223.61,-180.3"/>
</a>
</g>
</g>
<!-- Node33&#45;&gt;Node7 -->
<g id="edge58_Node000033_Node000007" class="edge">
<title>Node33&#45;&gt;Node7</title>
<g id="a_edge58_Node000033_Node000007"><a xlink:title=" ">
<path fill="none" stroke="#63b8ff" d="M541.51,-219.8C508.65,-199.67 435.8,-148.68 469.5,-110 505.88,-68.25 675.75,-64.36 753.03,-64.82"/>
<polygon fill="#63b8ff" stroke="#63b8ff" points="753.27,-68.32 763.3,-64.91 753.33,-61.32 753.27,-68.32"/>
</a>
</g>
</g>
<!-- Node33&#45;&gt;Node11 -->
<g id="edge55_Node000033_Node000011" class="edge">
<title>Node33&#45;&gt;Node11</title>
<g id="a_edge55_Node000033_Node000011"><a xlink:title=" ">
<path fill="none" stroke="#63b8ff" d="M605.64,-221.54C665.27,-212.59 759.18,-196.7 769.5,-184 791.06,-157.47 725.4,-135.21 748.5,-110 777.56,-78.29 1054.74,-69.09 1187.4,-66.49"/>
<polygon fill="#63b8ff" stroke="#63b8ff" points="1187.54,-69.99 1197.47,-66.3 1187.4,-62.99 1187.54,-69.99"/>
</a>
</g>
</g>
<!-- Node33&#45;&gt;Node16 -->
<g id="edge57_Node000033_Node000016" class="edge">
<title>Node33&#45;&gt;Node16</title>
<g id="a_edge57_Node000033_Node000016"><a xlink:title=" ">
<path fill="none" stroke="#63b8ff" d="M605.66,-221.71C610.34,-221.11 615.01,-220.53 619.5,-220 760.25,-203.36 926.89,-187.48 1008.08,-179.99"/>
<polygon fill="#63b8ff" stroke="#63b8ff" points="1008.85,-183.43 1018.49,-179.03 1008.21,-176.46 1008.85,-183.43"/>
</a>
</g>
</g>
<!-- Node33&#45;&gt;Node17 -->
<g id="edge63_Node000033_Node000017" class="edge">
<title>Node33&#45;&gt;Node17</title>
<g id="a_edge63_Node000033_Node000017"><a xlink:title=" ">
<path fill="none" stroke="#63b8ff" d="M605.56,-221.26C675.5,-210.71 796.2,-191.55 802.5,-184 813.72,-170.57 804.03,-151.2 794.01,-137.4"/>
<polygon fill="#63b8ff" stroke="#63b8ff" points="796.52,-134.93 787.58,-129.24 791.02,-139.27 796.52,-134.93"/>
</a>
</g>
</g>
<!-- Node34 -->
<g id="Node000034" class="node">
<title>Node34</title>
<g id="a_Node000034"><a xlink:title=" ">
<polygon fill="#e0e0e0" stroke="#999999" points="760.5,-184 728.5,-184 728.5,-165 760.5,-165 760.5,-184"/>
<text text-anchor="middle" x="744.5" y="-172" font-family="Helvetica,sans-Serif" font-size="10.00">list</text>
</a>
</g>
</g>
<!-- Node33&#45;&gt;Node34 -->
<g id="edge60_Node000033_Node000034" class="edge">
<title>Node33&#45;&gt;Node34</title>
<g id="a_edge60_Node000033_Node000034"><a xlink:title=" ">
<path fill="none" stroke="#63b8ff" d="M590.08,-219.98C621.15,-211.94 668.83,-199.27 718.74,-184.1"/>
<polygon fill="#63b8ff" stroke="#63b8ff" points="719.87,-187.41 728.41,-181.13 717.82,-180.72 719.87,-187.41"/>
</a>
</g>
</g>
<!-- Node35 -->
<g id="Node000035" class="node">
<title>Node35</title>
<g id="a_Node000035"><a xlink:title=" ">
<polygon fill="#e0e0e0" stroke="#999999" points="588,-184 531,-184 531,-165 588,-165 588,-184"/>
<text text-anchor="middle" x="559.5" y="-172" font-family="Helvetica,sans-Serif" font-size="10.00">typeinfo</text>
</a>
</g>
</g>
<!-- Node33&#45;&gt;Node35 -->
<g id="edge64_Node000033_Node000035" class="edge">
<title>Node33&#45;&gt;Node35</title>
<g id="a_edge64_Node000033_Node000035"><a xlink:title=" ">
<path fill="none" stroke="#63b8ff" d="M557,-219.75C557.39,-212.8 557.95,-202.85 558.45,-194.13"/>
<polygon fill="#63b8ff" stroke="#63b8ff" points="561.94,-194.27 559.01,-184.09 554.95,-193.88 561.94,-194.27"/>
</a>
</g>
</g>
<!-- Node36 -->
<g id="Node000036" class="node">
<title>Node36</title>
<g id="a_Node000036"><a xlink:title=" ">
<polygon fill="#e0e0e0" stroke="#999999" points="710.5,-184 606.5,-184 606.5,-165 710.5,-165 710.5,-184"/>
<text text-anchor="middle" x="658.5" y="-172" font-family="Helvetica,sans-Serif" font-size="10.00">realm/serialize.inl</text>
</a>
</g>
</g>
<!-- Node33&#45;&gt;Node36 -->
<g id="edge65_Node000033_Node000036" class="edge">
<title>Node33&#45;&gt;Node36</title>
<g id="a_edge65_Node000033_Node000036"><a xlink:title=" ">
<path fill="none" stroke="#63b8ff" d="M572.89,-219.98C589.07,-211.57 614.07,-198.59 632.88,-188.81"/>
<polygon fill="#63b8ff" stroke="#63b8ff" points="634.55,-191.89 641.81,-184.17 631.33,-185.68 634.55,-191.89"/>
</a>
</g>
</g>
<!-- Node40&#45;&gt;Node3 -->
<g id="edge74_Node000040_Node000003" class="edge">
<title>Node40&#45;&gt;Node3</title>
<g id="a_edge74_Node000040_Node000003"><a xlink:title=" ">
<path fill="none" stroke="#63b8ff" d="M1405.7,-277.16C1364.05,-270.28 1299.35,-257.72 1245.5,-239 1227.29,-232.67 1224.97,-225.53 1206.5,-220 1087.15,-184.25 1046.54,-223.85 928.5,-184 912.47,-178.59 911.58,-170.28 895.5,-165 767.95,-123.07 605.96,-119.23 536.56,-119.76"/>
<polygon fill="#63b8ff" stroke="#63b8ff" points="536.2,-116.26 526.24,-119.87 536.28,-123.26 536.2,-116.26"/>
</a>
</g>
</g>
<!-- Node40&#45;&gt;Node6 -->
<g id="edge72_Node000040_Node000006" class="edge">
<title>Node40&#45;&gt;Node6</title>
<g id="a_edge72_Node000040_Node000006"><a xlink:title=" ">
<path fill="none" stroke="#63b8ff" d="M1405.75,-281.85C1232.72,-275.12 589.21,-249.62 498.5,-239 443.92,-232.61 292.82,-202.42 212.78,-186.07"/>
<polygon fill="#63b8ff" stroke="#63b8ff" points="213.41,-182.63 202.91,-184.05 212.01,-189.49 213.41,-182.63"/>
</a>
</g>
</g>
<!-- Node40&#45;&gt;Node14 -->
<g id="edge76_Node000040_Node000014" class="edge">
<title>Node40&#45;&gt;Node14</title>
<g id="a_edge76_Node000040_Node000014"><a xlink:title=" ">
<path fill="none" stroke="#63b8ff" d="M1470.17,-274.96C1503.37,-260.84 1566.8,-229.58 1603.5,-184 1627.73,-153.91 1639.44,-109.17 1644.39,-84.15"/>
<polygon fill="#63b8ff" stroke="#63b8ff" points="1647.86,-84.64 1646.22,-74.17 1640.98,-83.38 1647.86,-84.64"/>
</a>
</g>
</g>
<!-- Node40&#45;&gt;Node15 -->
<g id="edge73_Node000040_Node000015" class="edge">
<title>Node40&#45;&gt;Node15</title>
<g id="a_edge73_Node000040_Node000015"><a xlink:title=" ">
<path fill="none" stroke="#63b8ff" d="M1424.08,-274.98C1398.78,-266.16 1359.05,-252.31 1330.64,-242.41"/>
<polygon fill="#63b8ff" stroke="#63b8ff" points="1331.71,-239.07 1321.11,-239.08 1329.4,-245.68 1331.71,-239.07"/>
</a>
</g>
</g>
<!-- Node40&#45;&gt;Node24 -->
<g id="edge75_Node000040_Node000024" class="edge">
<title>Node40&#45;&gt;Node24</title>
<g id="a_edge75_Node000040_Node000024"><a xlink:title=" ">
<path fill="none" stroke="#63b8ff" d="M1447.48,-274.74C1444.51,-249.31 1435.86,-175.08 1431.74,-139.69"/>
<polygon fill="#63b8ff" stroke="#63b8ff" points="1435.16,-138.83 1430.53,-129.31 1428.21,-139.64 1435.16,-138.83"/>
</a>
</g>
</g>
</g>
</svg>
