<?xml version="1.0" encoding="UTF-8" standalone="no"?>
<!DOCTYPE svg PUBLIC "-//W3C//DTD SVG 1.1//EN"
 "http://www.w3.org/Graphics/SVG/1.1/DTD/svg11.dtd">
<!-- Generated by graphviz version 2.43.0 (0)
 -->
<!-- Title: /home/runner/work/realm/realm/realm&#45;src/src/realm/python/python_source.h Pages: 1 -->
<svg width="1093pt" height="335pt"
 viewBox="0.00 0.00 1093.00 335.00" xmlns="http://www.w3.org/2000/svg" xmlns:xlink="http://www.w3.org/1999/xlink">
<g id="graph0" class="graph" transform="scale(1 1) rotate(0) translate(4 331)">
<title>/home/runner/work/realm/realm/realm&#45;src/src/realm/python/python_source.h</title>
<!-- Node1 -->
<g id="Node000001" class="node">
<title>Node1</title>
<g id="a_Node000001"><a xlink:title=" ">
<polygon fill="#999999" stroke="#666666" points="907.5,-327 761.5,-327 761.5,-286 907.5,-286 907.5,-327"/>
<text text-anchor="start" x="769.5" y="-315" font-family="Helvetica,sans-Serif" font-size="10.00">/home/runner/work/realm</text>
<text text-anchor="start" x="769.5" y="-304" font-family="Helvetica,sans-Serif" font-size="10.00">/realm/realm&#45;src/src/realm</text>
<text text-anchor="middle" x="834.5" y="-293" font-family="Helvetica,sans-Serif" font-size="10.00">/python/python_source.h</text>
</a>
</g>
</g>
<!-- Node2 -->
<g id="Node000002" class="node">
<title>Node2</title>
<g id="a_Node000002"><a xlink:href="codedesc_8h.html" target="_top" xlink:title=" ">
<polygon fill="white" stroke="#666666" points="822,-244.5 719,-244.5 719,-225.5 822,-225.5 822,-244.5"/>
<text text-anchor="middle" x="770.5" y="-232.5" font-family="Helvetica,sans-Serif" font-size="10.00">realm/codedesc.h</text>
</a>
</g>
</g>
<!-- Node1&#45;&gt;Node2 -->
<g id="edge1_Node000001_Node000002" class="edge">
<title>Node1&#45;&gt;Node2</title>
<g id="a_edge1_Node000001_Node000002"><a xlink:title=" ">
<path fill="none" stroke="#63b8ff" d="M816.33,-285.77C806.63,-275.24 794.83,-262.42 785.63,-252.43"/>
<polygon fill="#63b8ff" stroke="#63b8ff" points="787.97,-249.81 778.62,-244.82 782.82,-254.55 787.97,-249.81"/>
</a>
</g>
</g>
<!-- Node25 -->
<g id="Node000025" class="node">
<title>Node25</title>
<g id="a_Node000025"><a xlink:title=" ">
<polygon fill="#e0e0e0" stroke="#999999" points="959,-250 840,-250 840,-220 959,-220 959,-250"/>
<text text-anchor="start" x="848" y="-238" font-family="Helvetica,sans-Serif" font-size="10.00">realm/python/python</text>
<text text-anchor="middle" x="899.5" y="-227" font-family="Helvetica,sans-Serif" font-size="10.00">_source.inl</text>
</a>
</g>
</g>
<!-- Node1&#45;&gt;Node25 -->
<g id="edge32_Node000001_Node000025" class="edge">
<title>Node1&#45;&gt;Node25</title>
<g id="a_edge32_Node000001_Node000025"><a xlink:title=" ">
<path fill="none" stroke="#63b8ff" d="M852.95,-285.77C861.2,-276.95 870.93,-266.54 879.37,-257.53"/>
<polygon fill="#63b8ff" stroke="#63b8ff" points="882.1,-259.73 886.37,-250.04 876.98,-254.95 882.1,-259.73"/>
</a>
</g>
</g>
<!-- Node3 -->
<g id="Node000003" class="node">
<title>Node3</title>
<g id="a_Node000003"><a xlink:href="realm__config_8h.html" target="_top" xlink:title=" ">
<polygon fill="white" stroke="#666666" points="693.5,-74 573.5,-74 573.5,-55 693.5,-55 693.5,-74"/>
<text text-anchor="middle" x="633.5" y="-62" font-family="Helvetica,sans-Serif" font-size="10.00">realm/realm_config.h</text>
</a>
</g>
</g>
<!-- Node2&#45;&gt;Node3 -->
<g id="edge2_Node000002_Node000003" class="edge">
<title>Node2&#45;&gt;Node3</title>
<g id="a_edge2_Node000002_Node000003"><a xlink:title=" ">
<path fill="none" stroke="#63b8ff" d="M763.52,-225.41C741.9,-198.83 675.82,-117.55 647.08,-82.21"/>
<polygon fill="#63b8ff" stroke="#63b8ff" points="649.66,-79.82 640.63,-74.27 644.23,-84.24 649.66,-79.82"/>
</a>
</g>
</g>
<!-- Node6 -->
<g id="Node000006" class="node">
<title>Node6</title>
<g id="a_Node000006"><a xlink:href="serialize_8h.html" target="_top" xlink:title=" ">
<polygon fill="white" stroke="#666666" points="471.5,-184 373.5,-184 373.5,-165 471.5,-165 471.5,-184"/>
<text text-anchor="middle" x="422.5" y="-172" font-family="Helvetica,sans-Serif" font-size="10.00">realm/serialize.h</text>
</a>
</g>
</g>
<!-- Node2&#45;&gt;Node6 -->
<g id="edge5_Node000002_Node000006" class="edge">
<title>Node2&#45;&gt;Node6</title>
<g id="a_edge5_Node000002_Node000006"><a xlink:title=" ">
<path fill="none" stroke="#63b8ff" d="M719.9,-225.49C656.69,-214.87 548.73,-196.72 481.74,-185.46"/>
<polygon fill="#63b8ff" stroke="#63b8ff" points="482.2,-181.99 471.76,-183.78 481.04,-188.89 482.2,-181.99"/>
</a>
</g>
</g>
<!-- Node8 -->
<g id="Node000008" class="node">
<title>Node8</title>
<g id="a_Node000008"><a xlink:title=" ">
<polygon fill="#e0e0e0" stroke="#999999" points="895.5,-74 839.5,-74 839.5,-55 895.5,-55 895.5,-74"/>
<text text-anchor="middle" x="867.5" y="-62" font-family="Helvetica,sans-Serif" font-size="10.00">stddef.h</text>
</a>
</g>
</g>
<!-- Node2&#45;&gt;Node8 -->
<g id="edge28_Node000002_Node000008" class="edge">
<title>Node2&#45;&gt;Node8</title>
<g id="a_edge28_Node000002_Node000008"><a xlink:title=" ">
<path fill="none" stroke="#63b8ff" d="M776.63,-225.24C788.91,-207.51 817.11,-165.91 837.5,-129 845.78,-114.01 854,-96.35 859.74,-83.47"/>
<polygon fill="#63b8ff" stroke="#63b8ff" points="862.95,-84.87 863.76,-74.3 856.54,-82.05 862.95,-84.87"/>
</a>
</g>
</g>
<!-- Node13 -->
<g id="Node000013" class="node">
<title>Node13</title>
<g id="a_Node000013"><a xlink:title=" ">
<polygon fill="#e0e0e0" stroke="#999999" points="47,-74 0,-74 0,-55 47,-55 47,-74"/>
<text text-anchor="middle" x="23.5" y="-62" font-family="Helvetica,sans-Serif" font-size="10.00">vector</text>
</a>
</g>
</g>
<!-- Node2&#45;&gt;Node13 -->
<g id="edge29_Node000002_Node000013" class="edge">
<title>Node2&#45;&gt;Node13</title>
<g id="a_edge29_Node000002_Node000013"><a xlink:title=" ">
<path fill="none" stroke="#63b8ff" d="M718.92,-230.14C580.45,-219.14 203.67,-184.75 93.5,-129 70.74,-117.48 49.8,-96.53 36.87,-81.85"/>
<polygon fill="#63b8ff" stroke="#63b8ff" points="39.38,-79.4 30.23,-74.06 34.05,-83.94 39.38,-79.4"/>
</a>
</g>
</g>
<!-- Node23 -->
<g id="Node000023" class="node">
<title>Node23</title>
<g id="a_Node000023"><a xlink:title=" ">
<polygon fill="#e0e0e0" stroke="#999999" points="957.5,-184 897.5,-184 897.5,-165 957.5,-165 957.5,-184"/>
<text text-anchor="middle" x="927.5" y="-172" font-family="Helvetica,sans-Serif" font-size="10.00">iostream</text>
</a>
</g>
</g>
<!-- Node2&#45;&gt;Node23 -->
<g id="edge30_Node000002_Node000023" class="edge">
<title>Node2&#45;&gt;Node23</title>
<g id="a_edge30_Node000002_Node000023"><a xlink:title=" ">
<path fill="none" stroke="#63b8ff" d="M793.33,-225.49C820.07,-215.53 864.58,-198.95 894.94,-187.63"/>
<polygon fill="#63b8ff" stroke="#63b8ff" points="896.49,-190.79 904.64,-184.02 894.05,-184.23 896.49,-190.79"/>
</a>
</g>
</g>
<!-- Node24 -->
<g id="Node000024" class="node">
<title>Node24</title>
<g id="a_Node000024"><a xlink:title=" ">
<polygon fill="#e0e0e0" stroke="#999999" points="1085,-184 976,-184 976,-165 1085,-165 1085,-184"/>
<text text-anchor="middle" x="1030.5" y="-172" font-family="Helvetica,sans-Serif" font-size="10.00">realm/codedesc.inl</text>
</a>
</g>
</g>
<!-- Node2&#45;&gt;Node24 -->
<g id="edge31_Node000002_Node000024" class="edge">
<title>Node2&#45;&gt;Node24</title>
<g id="a_edge31_Node000002_Node000024"><a xlink:title=" ">
<path fill="none" stroke="#63b8ff" d="M807.59,-225.45C815.48,-223.64 823.76,-221.75 831.5,-220 882.9,-208.35 941.83,-195.2 982.13,-186.24"/>
<polygon fill="#63b8ff" stroke="#63b8ff" points="982.96,-189.64 991.96,-184.05 981.44,-182.8 982.96,-189.64"/>
</a>
</g>
</g>
<!-- Node4 -->
<g id="Node000004" class="node">
<title>Node4</title>
<g id="a_Node000004"><a xlink:href="realm__defines_8h.html" target="_top" xlink:title=" ">
<polygon fill="white" stroke="#666666" points="612,-19 517,-19 517,0 612,0 612,-19"/>
<text text-anchor="middle" x="564.5" y="-7" font-family="Helvetica,sans-Serif" font-size="10.00">realm_defines.h</text>
</a>
</g>
</g>
<!-- Node3&#45;&gt;Node4 -->
<g id="edge3_Node000003_Node000004" class="edge">
<title>Node3&#45;&gt;Node4</title>
<g id="a_edge3_Node000003_Node000004"><a xlink:title=" ">
<path fill="none" stroke="#63b8ff" d="M622.41,-54.98C612.01,-47 596.24,-34.88 583.78,-25.31"/>
<polygon fill="#63b8ff" stroke="#63b8ff" points="585.85,-22.49 575.79,-19.17 581.59,-28.04 585.85,-22.49"/>
</a>
</g>
</g>
<!-- Node5 -->
<g id="Node000005" class="node">
<title>Node5</title>
<g id="a_Node000005"><a xlink:href="compiler__support_8h.html" target="_top" xlink:title=" ">
<polygon fill="white" stroke="#666666" points="772.5,-19 630.5,-19 630.5,0 772.5,0 772.5,-19"/>
<text text-anchor="middle" x="701.5" y="-7" font-family="Helvetica,sans-Serif" font-size="10.00">realm/compiler_support.h</text>
</a>
</g>
</g>
<!-- Node3&#45;&gt;Node5 -->
<g id="edge4_Node000003_Node000005" class="edge">
<title>Node3&#45;&gt;Node5</title>
<g id="a_edge4_Node000003_Node000005"><a xlink:title=" ">
<path fill="none" stroke="#63b8ff" d="M644.43,-54.98C654.58,-47.07 669.92,-35.11 682.15,-25.58"/>
<polygon fill="#63b8ff" stroke="#63b8ff" points="684.64,-28.08 690.38,-19.17 680.34,-22.56 684.64,-28.08"/>
</a>
</g>
</g>
<!-- Node6&#45;&gt;Node3 -->
<g id="edge6_Node000006_Node000003" class="edge">
<title>Node6&#45;&gt;Node3</title>
<g id="a_edge6_Node000006_Node000003"><a xlink:title=" ">
<path fill="none" stroke="#63b8ff" d="M471.6,-167.77C521.45,-160.99 594.11,-148.15 614.5,-129 626.68,-117.56 631.16,-98.68 632.75,-84.47"/>
<polygon fill="#63b8ff" stroke="#63b8ff" points="636.25,-84.54 633.5,-74.3 629.27,-84.02 636.25,-84.54"/>
</a>
</g>
</g>
<!-- Node7 -->
<g id="Node000007" class="node">
<title>Node7</title>
<g id="a_Node000007"><a xlink:href="bytearray_8h.html" target="_top" xlink:title=" ">
<polygon fill="white" stroke="#666666" points="803,-129 700,-129 700,-110 803,-110 803,-129"/>
<text text-anchor="middle" x="751.5" y="-117" font-family="Helvetica,sans-Serif" font-size="10.00">realm/bytearray.h</text>
</a>
</g>
</g>
<!-- Node6&#45;&gt;Node7 -->
<g id="edge7_Node000006_Node000007" class="edge">
<title>Node6&#45;&gt;Node7</title>
<g id="a_edge7_Node000006_Node000007"><a xlink:title=" ">
<path fill="none" stroke="#63b8ff" d="M471.75,-165.57C529.83,-156.21 626.41,-140.65 689.52,-130.48"/>
<polygon fill="#63b8ff" stroke="#63b8ff" points="690.42,-133.89 699.73,-128.84 689.31,-126.97 690.42,-133.89"/>
</a>
</g>
</g>
<!-- Node6&#45;&gt;Node8 -->
<g id="edge20_Node000006_Node000008" class="edge">
<title>Node6&#45;&gt;Node8</title>
<g id="a_edge20_Node000006_Node000008"><a xlink:title=" ">
<path fill="none" stroke="#63b8ff" d="M471.52,-172.3C562.7,-169.37 754.41,-159.64 812.5,-129 832.18,-118.62 847.94,-98.06 857.46,-83.13"/>
<polygon fill="#63b8ff" stroke="#63b8ff" points="860.62,-84.68 862.79,-74.31 854.63,-81.06 860.62,-84.68"/>
</a>
</g>
</g>
<!-- Node10 -->
<g id="Node000010" class="node">
<title>Node10</title>
<g id="a_Node000010"><a xlink:href="utils_8h.html" target="_top" xlink:title=" ">
<polygon fill="white" stroke="#666666" points="269.5,-129 191.5,-129 191.5,-110 269.5,-110 269.5,-129"/>
<text text-anchor="middle" x="230.5" y="-117" font-family="Helvetica,sans-Serif" font-size="10.00">realm/utils.h</text>
</a>
</g>
</g>
<!-- Node6&#45;&gt;Node10 -->
<g id="edge10_Node000006_Node000010" class="edge">
<title>Node6&#45;&gt;Node10</title>
<g id="a_edge10_Node000006_Node000010"><a xlink:title=" ">
<path fill="none" stroke="#63b8ff" d="M391.65,-164.98C359,-155.97 307.3,-141.7 271.3,-131.76"/>
<polygon fill="#63b8ff" stroke="#63b8ff" points="272.16,-128.37 261.59,-129.08 270.3,-135.12 272.16,-128.37"/>
</a>
</g>
</g>
<!-- Node11 -->
<g id="Node000011" class="node">
<title>Node11</title>
<g id="a_Node000011"><a xlink:title=" ">
<polygon fill="#e0e0e0" stroke="#999999" points="109.5,-74 65.5,-74 65.5,-55 109.5,-55 109.5,-74"/>
<text text-anchor="middle" x="87.5" y="-62" font-family="Helvetica,sans-Serif" font-size="10.00">string</text>
</a>
</g>
</g>
<!-- Node6&#45;&gt;Node11 -->
<g id="edge25_Node000006_Node000011" class="edge">
<title>Node6&#45;&gt;Node11</title>
<g id="a_edge25_Node000006_Node000011"><a xlink:title=" ">
<path fill="none" stroke="#63b8ff" d="M373.06,-170.2C323.36,-165.54 245.31,-154.54 182.5,-129 153.13,-117.05 123.4,-95.27 105.21,-80.59"/>
<polygon fill="#63b8ff" stroke="#63b8ff" points="107.2,-77.69 97.26,-74.03 102.74,-83.09 107.2,-77.69"/>
</a>
</g>
</g>
<!-- Node6&#45;&gt;Node13 -->
<g id="edge21_Node000006_Node000013" class="edge">
<title>Node6&#45;&gt;Node13</title>
<g id="a_edge21_Node000006_Node000013"><a xlink:title=" ">
<path fill="none" stroke="#63b8ff" d="M373.33,-170.72C316.28,-166.37 220.01,-155.49 141.5,-129 105.46,-116.84 67.33,-94.32 44.48,-79.62"/>
<polygon fill="#63b8ff" stroke="#63b8ff" points="46.23,-76.59 35.95,-74.04 42.4,-82.45 46.23,-76.59"/>
</a>
</g>
</g>
<!-- Node14 -->
<g id="Node000014" class="node">
<title>Node14</title>
<g id="a_Node000014"><a xlink:title=" ">
<polygon fill="#e0e0e0" stroke="#999999" points="555.5,-74 517.5,-74 517.5,-55 555.5,-55 555.5,-74"/>
<text text-anchor="middle" x="536.5" y="-62" font-family="Helvetica,sans-Serif" font-size="10.00">map</text>
</a>
</g>
</g>
<!-- Node6&#45;&gt;Node14 -->
<g id="edge24_Node000006_Node000014" class="edge">
<title>Node6&#45;&gt;Node14</title>
<g id="a_edge24_Node000006_Node000014"><a xlink:title=" ">
<path fill="none" stroke="#63b8ff" d="M381.14,-164.92C342.65,-155.07 294.31,-136.74 316.5,-110 369.94,-45.6 420.39,-91.08 507.36,-73.84"/>
<polygon fill="#63b8ff" stroke="#63b8ff" points="508.3,-77.22 517.3,-71.63 506.78,-70.39 508.3,-77.22"/>
</a>
</g>
</g>
<!-- Node19 -->
<g id="Node000019" class="node">
<title>Node19</title>
<g id="a_Node000019"><a xlink:title=" ">
<polygon fill="#e0e0e0" stroke="#999999" points="357.5,-129 325.5,-129 325.5,-110 357.5,-110 357.5,-129"/>
<text text-anchor="middle" x="341.5" y="-117" font-family="Helvetica,sans-Serif" font-size="10.00">list</text>
</a>
</g>
</g>
<!-- Node6&#45;&gt;Node19 -->
<g id="edge22_Node000006_Node000019" class="edge">
<title>Node6&#45;&gt;Node19</title>
<g id="a_edge22_Node000006_Node000019"><a xlink:title=" ">
<path fill="none" stroke="#63b8ff" d="M409.49,-164.98C397.04,-156.84 378.04,-144.41 363.29,-134.76"/>
<polygon fill="#63b8ff" stroke="#63b8ff" points="365.04,-131.72 354.75,-129.17 361.2,-137.57 365.04,-131.72"/>
</a>
</g>
</g>
<!-- Node20 -->
<g id="Node000020" class="node">
<title>Node20</title>
<g id="a_Node000020"><a xlink:title=" ">
<polygon fill="#e0e0e0" stroke="#999999" points="407.5,-129 375.5,-129 375.5,-110 407.5,-110 407.5,-129"/>
<text text-anchor="middle" x="391.5" y="-117" font-family="Helvetica,sans-Serif" font-size="10.00">set</text>
</a>
</g>
</g>
<!-- Node6&#45;&gt;Node20 -->
<g id="edge23_Node000006_Node000020" class="edge">
<title>Node6&#45;&gt;Node20</title>
<g id="a_edge23_Node000006_Node000020"><a xlink:title=" ">
<path fill="none" stroke="#63b8ff" d="M417.38,-164.75C413.14,-157.49 406.97,-146.95 401.72,-137.98"/>
<polygon fill="#63b8ff" stroke="#63b8ff" points="404.59,-135.95 396.52,-129.09 398.55,-139.49 404.59,-135.95"/>
</a>
</g>
</g>
<!-- Node21 -->
<g id="Node000021" class="node">
<title>Node21</title>
<g id="a_Node000021"><a xlink:title=" ">
<polygon fill="#e0e0e0" stroke="#999999" points="483,-129 426,-129 426,-110 483,-110 483,-129"/>
<text text-anchor="middle" x="454.5" y="-117" font-family="Helvetica,sans-Serif" font-size="10.00">typeinfo</text>
</a>
</g>
</g>
<!-- Node6&#45;&gt;Node21 -->
<g id="edge26_Node000006_Node000021" class="edge">
<title>Node6&#45;&gt;Node21</title>
<g id="a_edge26_Node000006_Node000021"><a xlink:title=" ">
<path fill="none" stroke="#63b8ff" d="M427.78,-164.75C432.21,-157.42 438.66,-146.73 444.12,-137.7"/>
<polygon fill="#63b8ff" stroke="#63b8ff" points="447.14,-139.46 449.31,-129.09 441.15,-135.84 447.14,-139.46"/>
</a>
</g>
</g>
<!-- Node22 -->
<g id="Node000022" class="node">
<title>Node22</title>
<g id="a_Node000022"><a xlink:title=" ">
<polygon fill="#e0e0e0" stroke="#999999" points="605.5,-129 501.5,-129 501.5,-110 605.5,-110 605.5,-129"/>
<text text-anchor="middle" x="553.5" y="-117" font-family="Helvetica,sans-Serif" font-size="10.00">realm/serialize.inl</text>
</a>
</g>
</g>
<!-- Node6&#45;&gt;Node22 -->
<g id="edge27_Node000006_Node000022" class="edge">
<title>Node6&#45;&gt;Node22</title>
<g id="a_edge27_Node000006_Node000022"><a xlink:title=" ">
<path fill="none" stroke="#63b8ff" d="M443.55,-164.98C464.91,-156.34 498.2,-142.87 522.56,-133.02"/>
<polygon fill="#63b8ff" stroke="#63b8ff" points="524.11,-136.17 532.07,-129.17 521.49,-129.68 524.11,-136.17"/>
</a>
</g>
</g>
<!-- Node7&#45;&gt;Node8 -->
<g id="edge8_Node000007_Node000008" class="edge">
<title>Node7&#45;&gt;Node8</title>
<g id="a_edge8_Node000007_Node000008"><a xlink:title=" ">
<path fill="none" stroke="#63b8ff" d="M770.14,-109.98C788.8,-101.46 817.75,-88.23 839.24,-78.41"/>
<polygon fill="#63b8ff" stroke="#63b8ff" points="840.88,-81.51 848.52,-74.17 837.97,-75.14 840.88,-81.51"/>
</a>
</g>
</g>
<!-- Node9 -->
<g id="Node000009" class="node">
<title>Node9</title>
<g id="a_Node000009"><a xlink:title=" ">
<polygon fill="#e0e0e0" stroke="#999999" points="821,-74 712,-74 712,-55 821,-55 821,-74"/>
<text text-anchor="middle" x="766.5" y="-62" font-family="Helvetica,sans-Serif" font-size="10.00">realm/bytearray.inl</text>
</a>
</g>
</g>
<!-- Node7&#45;&gt;Node9 -->
<g id="edge9_Node000007_Node000009" class="edge">
<title>Node7&#45;&gt;Node9</title>
<g id="a_edge9_Node000007_Node000009"><a xlink:title=" ">
<path fill="none" stroke="#63b8ff" d="M753.98,-109.75C755.96,-102.72 758.82,-92.62 761.31,-83.84"/>
<polygon fill="#63b8ff" stroke="#63b8ff" points="764.71,-84.66 764.07,-74.09 757.98,-82.76 764.71,-84.66"/>
</a>
</g>
</g>
<!-- Node10&#45;&gt;Node3 -->
<g id="edge11_Node000010_Node000003" class="edge">
<title>Node10&#45;&gt;Node3</title>
<g id="a_edge11_Node000010_Node000003"><a xlink:title=" ">
<path fill="none" stroke="#63b8ff" d="M269.51,-113.37C337.37,-104.45 478.03,-85.95 563.25,-74.74"/>
<polygon fill="#63b8ff" stroke="#63b8ff" points="563.9,-78.18 573.36,-73.41 562.99,-71.24 563.9,-78.18"/>
</a>
</g>
</g>
<!-- Node10&#45;&gt;Node11 -->
<g id="edge12_Node000010_Node000011" class="edge">
<title>Node10&#45;&gt;Node11</title>
<g id="a_edge12_Node000010_Node000011"><a xlink:title=" ">
<path fill="none" stroke="#63b8ff" d="M207.52,-109.98C183.72,-101.16 146.34,-87.31 119.61,-77.4"/>
<polygon fill="#63b8ff" stroke="#63b8ff" points="120.54,-74.01 109.95,-73.82 118.11,-80.58 120.54,-74.01"/>
</a>
</g>
</g>
<!-- Node12 -->
<g id="Node000012" class="node">
<title>Node12</title>
<g id="a_Node000012"><a xlink:title=" ">
<polygon fill="#e0e0e0" stroke="#999999" points="499,-74 442,-74 442,-55 499,-55 499,-74"/>
<text text-anchor="middle" x="470.5" y="-62" font-family="Helvetica,sans-Serif" font-size="10.00">ostream</text>
</a>
</g>
</g>
<!-- Node10&#45;&gt;Node12 -->
<g id="edge13_Node000010_Node000012" class="edge">
<title>Node10&#45;&gt;Node12</title>
<g id="a_edge13_Node000010_Node000012"><a xlink:title=" ">
<path fill="none" stroke="#63b8ff" d="M269.61,-109.92C308.24,-101.44 369.29,-88.02 431.82,-74.14"/>
<polygon fill="#63b8ff" stroke="#63b8ff" points="432.86,-77.5 441.87,-71.91 431.35,-70.66 432.86,-77.5"/>
</a>
</g>
</g>
<!-- Node10&#45;&gt;Node13 -->
<g id="edge14_Node000010_Node000013" class="edge">
<title>Node10&#45;&gt;Node13</title>
<g id="a_edge14_Node000010_Node000013"><a xlink:title=" ">
<path fill="none" stroke="#63b8ff" d="M197.14,-109.99C164.09,-101.55 111.78,-88.18 57.15,-74.16"/>
<polygon fill="#63b8ff" stroke="#63b8ff" points="57.85,-70.73 47.29,-71.63 56.11,-77.51 57.85,-70.73"/>
</a>
</g>
</g>
<!-- Node10&#45;&gt;Node14 -->
<g id="edge15_Node000010_Node000014" class="edge">
<title>Node10&#45;&gt;Node14</title>
<g id="a_edge15_Node000010_Node000014"><a xlink:title=" ">
<path fill="none" stroke="#63b8ff" d="M269.57,-112.23C274.27,-111.48 278.99,-110.72 283.5,-110 380.37,-94.48 408.1,-96.61 507.47,-73.97"/>
<polygon fill="#63b8ff" stroke="#63b8ff" points="508.35,-77.36 517.31,-71.7 506.78,-70.54 508.35,-77.36"/>
</a>
</g>
</g>
<!-- Node15 -->
<g id="Node000015" class="node">
<title>Node15</title>
<g id="a_Node000015"><a xlink:title=" ">
<polygon fill="#e0e0e0" stroke="#999999" points="179.5,-74 127.5,-74 127.5,-55 179.5,-55 179.5,-74"/>
<text text-anchor="middle" x="153.5" y="-62" font-family="Helvetica,sans-Serif" font-size="10.00">cassert</text>
</a>
</g>
</g>
<!-- Node10&#45;&gt;Node15 -->
<g id="edge16_Node000010_Node000015" class="edge">
<title>Node10&#45;&gt;Node15</title>
<g id="a_edge16_Node000010_Node000015"><a xlink:title=" ">
<path fill="none" stroke="#63b8ff" d="M218.13,-109.98C206.41,-101.92 188.58,-89.65 174.61,-80.03"/>
<polygon fill="#63b8ff" stroke="#63b8ff" points="176.32,-76.96 166.1,-74.17 172.35,-82.72 176.32,-76.96"/>
</a>
</g>
</g>
<!-- Node16 -->
<g id="Node000016" class="node">
<title>Node16</title>
<g id="a_Node000016"><a xlink:title=" ">
<polygon fill="#e0e0e0" stroke="#999999" points="247.5,-74 197.5,-74 197.5,-55 247.5,-55 247.5,-74"/>
<text text-anchor="middle" x="222.5" y="-62" font-family="Helvetica,sans-Serif" font-size="10.00">cstdint</text>
</a>
</g>
</g>
<!-- Node10&#45;&gt;Node16 -->
<g id="edge17_Node000010_Node000016" class="edge">
<title>Node10&#45;&gt;Node16</title>
<g id="a_edge17_Node000010_Node000016"><a xlink:title=" ">
<path fill="none" stroke="#63b8ff" d="M229.18,-109.75C228.13,-102.8 226.63,-92.85 225.31,-84.13"/>
<polygon fill="#63b8ff" stroke="#63b8ff" points="228.75,-83.45 223.8,-74.09 221.83,-84.5 228.75,-83.45"/>
</a>
</g>
</g>
<!-- Node17 -->
<g id="Node000017" class="node">
<title>Node17</title>
<g id="a_Node000017"><a xlink:title=" ">
<polygon fill="#e0e0e0" stroke="#999999" points="321.5,-74 265.5,-74 265.5,-55 321.5,-55 321.5,-74"/>
<text text-anchor="middle" x="293.5" y="-62" font-family="Helvetica,sans-Serif" font-size="10.00">sstream</text>
</a>
</g>
</g>
<!-- Node10&#45;&gt;Node17 -->
<g id="edge18_Node000010_Node000017" class="edge">
<title>Node10&#45;&gt;Node17</title>
<g id="a_edge18_Node000010_Node000017"><a xlink:title=" ">
<path fill="none" stroke="#63b8ff" d="M240.62,-109.98C249.94,-102.15 263.97,-90.34 275.24,-80.86"/>
<polygon fill="#63b8ff" stroke="#63b8ff" points="277.79,-83.29 283.19,-74.17 273.29,-77.93 277.79,-83.29"/>
</a>
</g>
</g>
<!-- Node18 -->
<g id="Node000018" class="node">
<title>Node18</title>
<g id="a_Node000018"><a xlink:title=" ">
<polygon fill="#e0e0e0" stroke="#999999" points="423.5,-74 339.5,-74 339.5,-55 423.5,-55 423.5,-74"/>
<text text-anchor="middle" x="381.5" y="-62" font-family="Helvetica,sans-Serif" font-size="10.00">realm/utils.inl</text>
</a>
</g>
</g>
<!-- Node10&#45;&gt;Node18 -->
<g id="edge19_Node000010_Node000018" class="edge">
<title>Node10&#45;&gt;Node18</title>
<g id="a_edge19_Node000010_Node000018"><a xlink:title=" ">
<path fill="none" stroke="#63b8ff" d="M254.76,-109.98C279.82,-101.19 319.13,-87.39 347.33,-77.49"/>
<polygon fill="#63b8ff" stroke="#63b8ff" points="348.52,-80.78 356.8,-74.17 346.2,-74.18 348.52,-80.78"/>
</a>
</g>
</g>
</g>
</svg>
