<?xml version="1.0" encoding="UTF-8" standalone="no"?>
<!DOCTYPE svg PUBLIC "-//W3C//DTD SVG 1.1//EN"
 "http://www.w3.org/Graphics/SVG/1.1/DTD/svg11.dtd">
<!-- Generated by graphviz version 2.43.0 (0)
 -->
<!-- Title: /home/runner/work/realm/realm/realm&#45;src/src/realm/reservation.h Pages: 1 -->
<svg width="1142pt" height="324pt"
 viewBox="0.00 0.00 1142.00 324.00" xmlns="http://www.w3.org/2000/svg" xmlns:xlink="http://www.w3.org/1999/xlink">
<g id="graph0" class="graph" transform="scale(1 1) rotate(0) translate(4 320)">
<title>/home/runner/work/realm/realm/realm&#45;src/src/realm/reservation.h</title>
<!-- Node1 -->
<g id="Node000001" class="node">
<title>Node1</title>
<g id="a_Node000001"><a xlink:title=" ">
<polygon fill="#999999" stroke="#666666" points="909,-316 763,-316 763,-275 909,-275 909,-316"/>
<text text-anchor="start" x="771" y="-304" font-family="Helvetica,sans-Serif" font-size="10.00">/home/runner/work/realm</text>
<text text-anchor="start" x="771" y="-293" font-family="Helvetica,sans-Serif" font-size="10.00">/realm/realm&#45;src/src/realm</text>
<text text-anchor="middle" x="836" y="-282" font-family="Helvetica,sans-Serif" font-size="10.00">/reservation.h</text>
</a>
</g>
</g>
<!-- Node2 -->
<g id="Node000002" class="node">
<title>Node2</title>
<g id="a_Node000002"><a xlink:href="realm__c_8h.html" target="_top" xlink:title=" ">
<polygon fill="white" stroke="#666666" points="934,-129 838,-129 838,-110 934,-110 934,-129"/>
<text text-anchor="middle" x="886" y="-117" font-family="Helvetica,sans-Serif" font-size="10.00">realm/realm_c.h</text>
</a>
</g>
</g>
<!-- Node1&#45;&gt;Node2 -->
<g id="edge1_Node000001_Node000002" class="edge">
<title>Node1&#45;&gt;Node2</title>
<g id="a_edge1_Node000001_Node000002"><a xlink:title=" ">
<path fill="none" stroke="#63b8ff" d="M841.64,-274.88C851.37,-241.02 871.18,-172.09 880.68,-139.01"/>
<polygon fill="#63b8ff" stroke="#63b8ff" points="884.08,-139.85 883.48,-129.27 877.35,-137.92 884.08,-139.85"/>
</a>
</g>
</g>
<!-- Node8 -->
<g id="Node000008" class="node">
<title>Node8</title>
<g id="a_Node000008"><a xlink:href="atomics_8h.html" target="_top" xlink:title=" ">
<polygon fill="white" stroke="#666666" points="220,-239 124,-239 124,-220 220,-220 220,-239"/>
<text text-anchor="middle" x="172" y="-227" font-family="Helvetica,sans-Serif" font-size="10.00">realm/atomics.h</text>
</a>
</g>
</g>
<!-- Node1&#45;&gt;Node8 -->
<g id="edge7_Node000001_Node000008" class="edge">
<title>Node1&#45;&gt;Node8</title>
<g id="a_edge7_Node000001_Node000008"><a xlink:title=" ">
<path fill="none" stroke="#63b8ff" d="M762.72,-287.44C629.83,-274.63 351.63,-247.81 230.48,-236.14"/>
<polygon fill="#63b8ff" stroke="#63b8ff" points="230.58,-232.63 220.29,-235.15 229.91,-239.6 230.58,-232.63"/>
</a>
</g>
</g>
<!-- Node11 -->
<g id="Node000011" class="node">
<title>Node11</title>
<g id="a_Node000011"><a xlink:href="event_8h.html" target="_top" xlink:title=" ">
<polygon fill="white" stroke="#666666" points="840.5,-239 755.5,-239 755.5,-220 840.5,-220 840.5,-239"/>
<text text-anchor="middle" x="798" y="-227" font-family="Helvetica,sans-Serif" font-size="10.00">realm/event.h</text>
</a>
</g>
</g>
<!-- Node1&#45;&gt;Node11 -->
<g id="edge11_Node000001_Node000011" class="edge">
<title>Node1&#45;&gt;Node11</title>
<g id="a_edge11_Node000001_Node000011"><a xlink:title=" ">
<path fill="none" stroke="#63b8ff" d="M824.39,-274.95C819.31,-266.39 813.39,-256.42 808.45,-248.1"/>
<polygon fill="#63b8ff" stroke="#63b8ff" points="811.32,-246.07 803.2,-239.26 805.3,-249.65 811.32,-246.07"/>
</a>
</g>
</g>
<!-- Node26 -->
<g id="Node000026" class="node">
<title>Node26</title>
<g id="a_Node000026"><a xlink:title=" ">
<polygon fill="#e0e0e0" stroke="#999999" points="1019.5,-239 900.5,-239 900.5,-220 1019.5,-220 1019.5,-239"/>
<text text-anchor="middle" x="960" y="-227" font-family="Helvetica,sans-Serif" font-size="10.00">realm/reservation.inl</text>
</a>
</g>
</g>
<!-- Node1&#45;&gt;Node26 -->
<g id="edge32_Node000001_Node000026" class="edge">
<title>Node1&#45;&gt;Node26</title>
<g id="a_edge32_Node000001_Node000026"><a xlink:title=" ">
<path fill="none" stroke="#63b8ff" d="M873.88,-274.95C893.47,-264.84 916.87,-252.76 934.33,-243.75"/>
<polygon fill="#63b8ff" stroke="#63b8ff" points="936.07,-246.79 943.35,-239.09 932.86,-240.57 936.07,-246.79"/>
</a>
</g>
</g>
<!-- Node3 -->
<g id="Node000003" class="node">
<title>Node3</title>
<g id="a_Node000003"><a xlink:href="realm__config_8h.html" target="_top" xlink:title=" ">
<polygon fill="white" stroke="#666666" points="540,-74 420,-74 420,-55 540,-55 540,-74"/>
<text text-anchor="middle" x="480" y="-62" font-family="Helvetica,sans-Serif" font-size="10.00">realm/realm_config.h</text>
</a>
</g>
</g>
<!-- Node2&#45;&gt;Node3 -->
<g id="edge2_Node000002_Node000003" class="edge">
<title>Node2&#45;&gt;Node3</title>
<g id="a_edge2_Node000002_Node000003"><a xlink:title=" ">
<path fill="none" stroke="#63b8ff" d="M837.81,-111.24C834.83,-110.81 831.87,-110.4 829,-110 732.55,-96.66 620.89,-82.68 550.37,-74.03"/>
<polygon fill="#63b8ff" stroke="#63b8ff" points="550.62,-70.53 540.27,-72.79 549.77,-77.48 550.62,-70.53"/>
</a>
</g>
</g>
<!-- Node6 -->
<g id="Node000006" class="node">
<title>Node6</title>
<g id="a_Node000006"><a xlink:title=" ">
<polygon fill="#e0e0e0" stroke="#999999" points="988,-74 932,-74 932,-55 988,-55 988,-74"/>
<text text-anchor="middle" x="960" y="-62" font-family="Helvetica,sans-Serif" font-size="10.00">stddef.h</text>
</a>
</g>
</g>
<!-- Node2&#45;&gt;Node6 -->
<g id="edge5_Node000002_Node000006" class="edge">
<title>Node2&#45;&gt;Node6</title>
<g id="a_edge5_Node000002_Node000006"><a xlink:title=" ">
<path fill="none" stroke="#63b8ff" d="M897.89,-109.98C909.15,-101.92 926.29,-89.65 939.71,-80.03"/>
<polygon fill="#63b8ff" stroke="#63b8ff" points="941.8,-82.84 947.89,-74.17 937.73,-77.15 941.8,-82.84"/>
</a>
</g>
</g>
<!-- Node7 -->
<g id="Node000007" class="node">
<title>Node7</title>
<g id="a_Node000007"><a xlink:title=" ">
<polygon fill="#e0e0e0" stroke="#999999" points="912.5,-74 859.5,-74 859.5,-55 912.5,-55 912.5,-74"/>
<text text-anchor="middle" x="886" y="-62" font-family="Helvetica,sans-Serif" font-size="10.00">stdint.h</text>
</a>
</g>
</g>
<!-- Node2&#45;&gt;Node7 -->
<g id="edge6_Node000002_Node000007" class="edge">
<title>Node2&#45;&gt;Node7</title>
<g id="a_edge6_Node000002_Node000007"><a xlink:title=" ">
<path fill="none" stroke="#63b8ff" d="M886,-109.75C886,-102.8 886,-92.85 886,-84.13"/>
<polygon fill="#63b8ff" stroke="#63b8ff" points="889.5,-84.09 886,-74.09 882.5,-84.09 889.5,-84.09"/>
</a>
</g>
</g>
<!-- Node4 -->
<g id="Node000004" class="node">
<title>Node4</title>
<g id="a_Node000004"><a xlink:href="realm__defines_8h.html" target="_top" xlink:title=" ">
<polygon fill="white" stroke="#666666" points="459.5,-19 364.5,-19 364.5,0 459.5,0 459.5,-19"/>
<text text-anchor="middle" x="412" y="-7" font-family="Helvetica,sans-Serif" font-size="10.00">realm_defines.h</text>
</a>
</g>
</g>
<!-- Node3&#45;&gt;Node4 -->
<g id="edge3_Node000003_Node000004" class="edge">
<title>Node3&#45;&gt;Node4</title>
<g id="a_edge3_Node000003_Node000004"><a xlink:title=" ">
<path fill="none" stroke="#63b8ff" d="M469.07,-54.98C458.92,-47.07 443.58,-35.11 431.35,-25.58"/>
<polygon fill="#63b8ff" stroke="#63b8ff" points="433.16,-22.56 423.12,-19.17 428.86,-28.08 433.16,-22.56"/>
</a>
</g>
</g>
<!-- Node5 -->
<g id="Node000005" class="node">
<title>Node5</title>
<g id="a_Node000005"><a xlink:href="compiler__support_8h.html" target="_top" xlink:title=" ">
<polygon fill="white" stroke="#666666" points="620,-19 478,-19 478,0 620,0 620,-19"/>
<text text-anchor="middle" x="549" y="-7" font-family="Helvetica,sans-Serif" font-size="10.00">realm/compiler_support.h</text>
</a>
</g>
</g>
<!-- Node3&#45;&gt;Node5 -->
<g id="edge4_Node000003_Node000005" class="edge">
<title>Node3&#45;&gt;Node5</title>
<g id="a_edge4_Node000003_Node000005"><a xlink:title=" ">
<path fill="none" stroke="#63b8ff" d="M491.09,-54.98C501.49,-47 517.26,-34.88 529.72,-25.31"/>
<polygon fill="#63b8ff" stroke="#63b8ff" points="531.91,-28.04 537.71,-19.17 527.65,-22.49 531.91,-28.04"/>
</a>
</g>
</g>
<!-- Node8&#45;&gt;Node3 -->
<g id="edge8_Node000008_Node000003" class="edge">
<title>Node8&#45;&gt;Node3</title>
<g id="a_edge8_Node000008_Node000003"><a xlink:title=" ">
<path fill="none" stroke="#63b8ff" d="M174.11,-219.82C180.3,-195.01 199.15,-124.67 217,-110 245.76,-86.37 342.1,-74.87 409.81,-69.58"/>
<polygon fill="#63b8ff" stroke="#63b8ff" points="410.29,-73.06 420,-68.82 409.76,-66.08 410.29,-73.06"/>
</a>
</g>
</g>
<!-- Node9 -->
<g id="Node000009" class="node">
<title>Node9</title>
<g id="a_Node000009"><a xlink:title=" ">
<polygon fill="#e0e0e0" stroke="#999999" points="170,-184 120,-184 120,-165 170,-165 170,-184"/>
<text text-anchor="middle" x="145" y="-172" font-family="Helvetica,sans-Serif" font-size="10.00">atomic</text>
</a>
</g>
</g>
<!-- Node8&#45;&gt;Node9 -->
<g id="edge9_Node000008_Node000009" class="edge">
<title>Node8&#45;&gt;Node9</title>
<g id="a_edge9_Node000008_Node000009"><a xlink:title=" ">
<path fill="none" stroke="#63b8ff" d="M167.54,-219.75C163.88,-212.57 158.59,-202.18 154.05,-193.27"/>
<polygon fill="#63b8ff" stroke="#63b8ff" points="157.03,-191.41 149.38,-184.09 150.8,-194.59 157.03,-191.41"/>
</a>
</g>
</g>
<!-- Node10 -->
<g id="Node000010" class="node">
<title>Node10</title>
<g id="a_Node000010"><a xlink:title=" ">
<polygon fill="#e0e0e0" stroke="#999999" points="102,-184 0,-184 0,-165 102,-165 102,-184"/>
<text text-anchor="middle" x="51" y="-172" font-family="Helvetica,sans-Serif" font-size="10.00">realm/atomics.inl</text>
</a>
</g>
</g>
<!-- Node8&#45;&gt;Node10 -->
<g id="edge10_Node000008_Node000010" class="edge">
<title>Node8&#45;&gt;Node10</title>
<g id="a_edge10_Node000008_Node000010"><a xlink:title=" ">
<path fill="none" stroke="#63b8ff" d="M152.56,-219.98C133.01,-211.42 102.62,-198.11 80.18,-188.28"/>
<polygon fill="#63b8ff" stroke="#63b8ff" points="81.36,-184.98 70.79,-184.17 78.55,-191.39 81.36,-184.98"/>
</a>
</g>
</g>
<!-- Node11&#45;&gt;Node2 -->
<g id="edge12_Node000011_Node000002" class="edge">
<title>Node11&#45;&gt;Node2</title>
<g id="a_edge12_Node000011_Node000002"><a xlink:title=" ">
<path fill="none" stroke="#63b8ff" d="M805.2,-219.66C819.91,-201.61 853.59,-160.28 872.49,-137.08"/>
<polygon fill="#63b8ff" stroke="#63b8ff" points="875.34,-139.12 878.95,-129.16 869.91,-134.7 875.34,-139.12"/>
</a>
</g>
</g>
<!-- Node12 -->
<g id="Node000012" class="node">
<title>Node12</title>
<g id="a_Node000012"><a xlink:href="utils_8h.html" target="_top" xlink:title=" ">
<polygon fill="white" stroke="#666666" points="671,-184 593,-184 593,-165 671,-165 671,-184"/>
<text text-anchor="middle" x="632" y="-172" font-family="Helvetica,sans-Serif" font-size="10.00">realm/utils.h</text>
</a>
</g>
</g>
<!-- Node11&#45;&gt;Node12 -->
<g id="edge13_Node000011_Node000012" class="edge">
<title>Node11&#45;&gt;Node12</title>
<g id="a_edge13_Node000011_Node000012"><a xlink:title=" ">
<path fill="none" stroke="#63b8ff" d="M771.33,-219.98C743.46,-211.09 699.55,-197.07 668.48,-187.15"/>
<polygon fill="#63b8ff" stroke="#63b8ff" points="669.47,-183.79 658.88,-184.08 667.34,-190.46 669.47,-183.79"/>
</a>
</g>
</g>
<!-- Node15 -->
<g id="Node000015" class="node">
<title>Node15</title>
<g id="a_Node000015"><a xlink:title=" ">
<polygon fill="#e0e0e0" stroke="#999999" points="819.5,-129 772.5,-129 772.5,-110 819.5,-110 819.5,-129"/>
<text text-anchor="middle" x="796" y="-117" font-family="Helvetica,sans-Serif" font-size="10.00">vector</text>
</a>
</g>
</g>
<!-- Node11&#45;&gt;Node15 -->
<g id="edge28_Node000011_Node000015" class="edge">
<title>Node11&#45;&gt;Node15</title>
<g id="a_edge28_Node000011_Node000015"><a xlink:title=" ">
<path fill="none" stroke="#63b8ff" d="M797.84,-219.66C797.51,-202.17 796.78,-162.8 796.35,-139.27"/>
<polygon fill="#63b8ff" stroke="#63b8ff" points="799.84,-139.09 796.16,-129.16 792.85,-139.22 799.84,-139.09"/>
</a>
</g>
</g>
<!-- Node21 -->
<g id="Node000021" class="node">
<title>Node21</title>
<g id="a_Node000021"><a xlink:href="memory_8h.html" target="_top" xlink:title=" ">
<polygon fill="white" stroke="#666666" points="1010.5,-184 913.5,-184 913.5,-165 1010.5,-165 1010.5,-184"/>
<text text-anchor="middle" x="962" y="-172" font-family="Helvetica,sans-Serif" font-size="10.00">realm/memory.h</text>
</a>
</g>
</g>
<!-- Node11&#45;&gt;Node21 -->
<g id="edge23_Node000011_Node000021" class="edge">
<title>Node11&#45;&gt;Node21</title>
<g id="a_edge23_Node000011_Node000021"><a xlink:title=" ">
<path fill="none" stroke="#63b8ff" d="M824.35,-219.98C851.76,-211.13 894.89,-197.19 925.56,-187.28"/>
<polygon fill="#63b8ff" stroke="#63b8ff" points="927,-190.49 935.44,-184.08 924.85,-183.83 927,-190.49"/>
</a>
</g>
</g>
<!-- Node22 -->
<g id="Node000022" class="node">
<title>Node22</title>
<g id="a_Node000022"><a xlink:title=" ">
<polygon fill="#e0e0e0" stroke="#999999" points="1134,-129 1074,-129 1074,-110 1134,-110 1134,-129"/>
<text text-anchor="middle" x="1104" y="-117" font-family="Helvetica,sans-Serif" font-size="10.00">iostream</text>
</a>
</g>
</g>
<!-- Node11&#45;&gt;Node22 -->
<g id="edge30_Node000011_Node000022" class="edge">
<title>Node11&#45;&gt;Node22</title>
<g id="a_edge30_Node000011_Node000022"><a xlink:title=" ">
<path fill="none" stroke="#63b8ff" d="M840.63,-225.63C886.63,-221.26 961.2,-210.44 1020,-184 1046.41,-172.13 1072.29,-150.64 1088.19,-135.98"/>
<polygon fill="#63b8ff" stroke="#63b8ff" points="1090.69,-138.43 1095.55,-129.02 1085.88,-133.35 1090.69,-138.43"/>
</a>
</g>
</g>
<!-- Node24 -->
<g id="Node000024" class="node">
<title>Node24</title>
<g id="a_Node000024"><a xlink:title=" ">
<polygon fill="#e0e0e0" stroke="#999999" points="465,-184 433,-184 433,-165 465,-165 465,-184"/>
<text text-anchor="middle" x="449" y="-172" font-family="Helvetica,sans-Serif" font-size="10.00">set</text>
</a>
</g>
</g>
<!-- Node11&#45;&gt;Node24 -->
<g id="edge29_Node000011_Node000024" class="edge">
<title>Node11&#45;&gt;Node24</title>
<g id="a_edge29_Node000011_Node000024"><a xlink:title=" ">
<path fill="none" stroke="#63b8ff" d="M755.33,-225.26C694.79,-220.09 580.51,-208.22 474.87,-183.77"/>
<polygon fill="#63b8ff" stroke="#63b8ff" points="475.54,-180.34 465.01,-181.45 473.94,-187.15 475.54,-180.34"/>
</a>
</g>
</g>
<!-- Node25 -->
<g id="Node000025" class="node">
<title>Node25</title>
<g id="a_Node000025"><a xlink:title=" ">
<polygon fill="#e0e0e0" stroke="#999999" points="574.5,-184 483.5,-184 483.5,-165 574.5,-165 574.5,-184"/>
<text text-anchor="middle" x="529" y="-172" font-family="Helvetica,sans-Serif" font-size="10.00">realm/event.inl</text>
</a>
</g>
</g>
<!-- Node11&#45;&gt;Node25 -->
<g id="edge31_Node000011_Node000025" class="edge">
<title>Node11&#45;&gt;Node25</title>
<g id="a_edge31_Node000011_Node000025"><a xlink:title=" ">
<path fill="none" stroke="#63b8ff" d="M755.38,-220.1C708.53,-210.87 633.2,-196.03 582.44,-186.03"/>
<polygon fill="#63b8ff" stroke="#63b8ff" points="582.8,-182.53 572.32,-184.03 581.45,-189.4 582.8,-182.53"/>
</a>
</g>
</g>
<!-- Node12&#45;&gt;Node3 -->
<g id="edge14_Node000012_Node000003" class="edge">
<title>Node12&#45;&gt;Node3</title>
<g id="a_edge14_Node000012_Node000003"><a xlink:title=" ">
<path fill="none" stroke="#63b8ff" d="M594.01,-164.92C559.61,-156.44 512.34,-142.77 499,-129 487.38,-117 482.83,-98.19 481.07,-84.15"/>
<polygon fill="#63b8ff" stroke="#63b8ff" points="484.55,-83.78 480.17,-74.13 477.57,-84.41 484.55,-83.78"/>
</a>
</g>
</g>
<!-- Node13 -->
<g id="Node000013" class="node">
<title>Node13</title>
<g id="a_Node000013"><a xlink:title=" ">
<polygon fill="#e0e0e0" stroke="#999999" points="552,-129 508,-129 508,-110 552,-110 552,-129"/>
<text text-anchor="middle" x="530" y="-117" font-family="Helvetica,sans-Serif" font-size="10.00">string</text>
</a>
</g>
</g>
<!-- Node12&#45;&gt;Node13 -->
<g id="edge15_Node000012_Node000013" class="edge">
<title>Node12&#45;&gt;Node13</title>
<g id="a_edge15_Node000012_Node000013"><a xlink:title=" ">
<path fill="none" stroke="#63b8ff" d="M615.61,-164.98C599.43,-156.57 574.43,-143.59 555.62,-133.81"/>
<polygon fill="#63b8ff" stroke="#63b8ff" points="557.17,-130.68 546.69,-129.17 553.95,-136.89 557.17,-130.68"/>
</a>
</g>
</g>
<!-- Node14 -->
<g id="Node000014" class="node">
<title>Node14</title>
<g id="a_Node000014"><a xlink:title=" ">
<polygon fill="#e0e0e0" stroke="#999999" points="627.5,-129 570.5,-129 570.5,-110 627.5,-110 627.5,-129"/>
<text text-anchor="middle" x="599" y="-117" font-family="Helvetica,sans-Serif" font-size="10.00">ostream</text>
</a>
</g>
</g>
<!-- Node12&#45;&gt;Node14 -->
<g id="edge16_Node000012_Node000014" class="edge">
<title>Node12&#45;&gt;Node14</title>
<g id="a_edge16_Node000012_Node000014"><a xlink:title=" ">
<path fill="none" stroke="#63b8ff" d="M626.55,-164.75C621.99,-157.42 615.33,-146.73 609.71,-137.7"/>
<polygon fill="#63b8ff" stroke="#63b8ff" points="612.6,-135.73 604.35,-129.09 606.66,-139.43 612.6,-135.73"/>
</a>
</g>
</g>
<!-- Node12&#45;&gt;Node15 -->
<g id="edge17_Node000012_Node000015" class="edge">
<title>Node12&#45;&gt;Node15</title>
<g id="a_edge17_Node000012_Node000015"><a xlink:title=" ">
<path fill="none" stroke="#63b8ff" d="M658.35,-164.98C686.66,-155.84 731.72,-141.27 762.52,-131.32"/>
<polygon fill="#63b8ff" stroke="#63b8ff" points="763.94,-134.54 772.38,-128.13 761.79,-127.88 763.94,-134.54"/>
</a>
</g>
</g>
<!-- Node16 -->
<g id="Node000016" class="node">
<title>Node16</title>
<g id="a_Node000016"><a xlink:title=" ">
<polygon fill="#e0e0e0" stroke="#999999" points="684,-129 646,-129 646,-110 684,-110 684,-129"/>
<text text-anchor="middle" x="665" y="-117" font-family="Helvetica,sans-Serif" font-size="10.00">map</text>
</a>
</g>
</g>
<!-- Node12&#45;&gt;Node16 -->
<g id="edge18_Node000012_Node000016" class="edge">
<title>Node12&#45;&gt;Node16</title>
<g id="a_edge18_Node000012_Node000016"><a xlink:title=" ">
<path fill="none" stroke="#63b8ff" d="M637.45,-164.75C642.01,-157.42 648.67,-146.73 654.29,-137.7"/>
<polygon fill="#63b8ff" stroke="#63b8ff" points="657.34,-139.43 659.65,-129.09 651.4,-135.73 657.34,-139.43"/>
</a>
</g>
</g>
<!-- Node17 -->
<g id="Node000017" class="node">
<title>Node17</title>
<g id="a_Node000017"><a xlink:title=" ">
<polygon fill="#e0e0e0" stroke="#999999" points="754,-129 702,-129 702,-110 754,-110 754,-129"/>
<text text-anchor="middle" x="728" y="-117" font-family="Helvetica,sans-Serif" font-size="10.00">cassert</text>
</a>
</g>
</g>
<!-- Node12&#45;&gt;Node17 -->
<g id="edge19_Node000012_Node000017" class="edge">
<title>Node12&#45;&gt;Node17</title>
<g id="a_edge19_Node000012_Node000017"><a xlink:title=" ">
<path fill="none" stroke="#63b8ff" d="M647.42,-164.98C662.45,-156.69 685.54,-143.94 703.16,-134.22"/>
<polygon fill="#63b8ff" stroke="#63b8ff" points="705.23,-137.07 712.3,-129.17 701.85,-130.94 705.23,-137.07"/>
</a>
</g>
</g>
<!-- Node18 -->
<g id="Node000018" class="node">
<title>Node18</title>
<g id="a_Node000018"><a xlink:title=" ">
<polygon fill="#e0e0e0" stroke="#999999" points="276,-129 226,-129 226,-110 276,-110 276,-129"/>
<text text-anchor="middle" x="251" y="-117" font-family="Helvetica,sans-Serif" font-size="10.00">cstdint</text>
</a>
</g>
</g>
<!-- Node12&#45;&gt;Node18 -->
<g id="edge20_Node000012_Node000018" class="edge">
<title>Node12&#45;&gt;Node18</title>
<g id="a_edge20_Node000012_Node000018"><a xlink:title=" ">
<path fill="none" stroke="#63b8ff" d="M592.98,-166.54C589.61,-166 586.25,-165.48 583,-165 454.23,-146.07 417.95,-152.87 286.24,-129.01"/>
<polygon fill="#63b8ff" stroke="#63b8ff" points="286.64,-125.53 276.17,-127.17 285.38,-132.41 286.64,-125.53"/>
</a>
</g>
</g>
<!-- Node19 -->
<g id="Node000019" class="node">
<title>Node19</title>
<g id="a_Node000019"><a xlink:title=" ">
<polygon fill="#e0e0e0" stroke="#999999" points="350,-129 294,-129 294,-110 350,-110 350,-129"/>
<text text-anchor="middle" x="322" y="-117" font-family="Helvetica,sans-Serif" font-size="10.00">sstream</text>
</a>
</g>
</g>
<!-- Node12&#45;&gt;Node19 -->
<g id="edge21_Node000012_Node000019" class="edge">
<title>Node12&#45;&gt;Node19</title>
<g id="a_edge21_Node000012_Node000019"><a xlink:title=" ">
<path fill="none" stroke="#63b8ff" d="M592.96,-166.68C589.59,-166.11 586.24,-165.54 583,-165 486.65,-148.9 459.64,-148.32 360.1,-129.11"/>
<polygon fill="#63b8ff" stroke="#63b8ff" points="360.72,-125.66 350.24,-127.19 359.39,-132.54 360.72,-125.66"/>
</a>
</g>
</g>
<!-- Node20 -->
<g id="Node000020" class="node">
<title>Node20</title>
<g id="a_Node000020"><a xlink:title=" ">
<polygon fill="#e0e0e0" stroke="#999999" points="452,-129 368,-129 368,-110 452,-110 452,-129"/>
<text text-anchor="middle" x="410" y="-117" font-family="Helvetica,sans-Serif" font-size="10.00">realm/utils.inl</text>
</a>
</g>
</g>
<!-- Node12&#45;&gt;Node20 -->
<g id="edge22_Node000012_Node000020" class="edge">
<title>Node12&#45;&gt;Node20</title>
<g id="a_edge22_Node000012_Node000020"><a xlink:title=" ">
<path fill="none" stroke="#63b8ff" d="M596.33,-164.98C558.17,-155.87 497.53,-141.4 455.85,-131.45"/>
<polygon fill="#63b8ff" stroke="#63b8ff" points="456.49,-128 445.95,-129.08 454.86,-134.81 456.49,-128"/>
</a>
</g>
</g>
<!-- Node21&#45;&gt;Node2 -->
<g id="edge24_Node000021_Node000002" class="edge">
<title>Node21&#45;&gt;Node2</title>
<g id="a_edge24_Node000021_Node000002"><a xlink:title=" ">
<path fill="none" stroke="#63b8ff" d="M949.79,-164.98C938.22,-156.92 920.62,-144.65 906.84,-135.03"/>
<polygon fill="#63b8ff" stroke="#63b8ff" points="908.64,-132.02 898.43,-129.17 904.63,-137.76 908.64,-132.02"/>
</a>
</g>
</g>
<!-- Node21&#45;&gt;Node6 -->
<g id="edge25_Node000021_Node000006" class="edge">
<title>Node21&#45;&gt;Node6</title>
<g id="a_edge25_Node000021_Node000006"><a xlink:title=" ">
<path fill="none" stroke="#63b8ff" d="M961.84,-164.66C961.51,-147.17 960.78,-107.8 960.35,-84.27"/>
<polygon fill="#63b8ff" stroke="#63b8ff" points="963.84,-84.09 960.16,-74.16 956.85,-84.22 963.84,-84.09"/>
</a>
</g>
</g>
<!-- Node21&#45;&gt;Node22 -->
<g id="edge26_Node000021_Node000022" class="edge">
<title>Node21&#45;&gt;Node22</title>
<g id="a_edge26_Node000021_Node000022"><a xlink:title=" ">
<path fill="none" stroke="#63b8ff" d="M984.81,-164.98C1008.17,-156.27 1044.7,-142.63 1071.17,-132.75"/>
<polygon fill="#63b8ff" stroke="#63b8ff" points="1072.63,-135.95 1080.77,-129.17 1070.18,-129.39 1072.63,-135.95"/>
</a>
</g>
</g>
<!-- Node23 -->
<g id="Node000023" class="node">
<title>Node23</title>
<g id="a_Node000023"><a xlink:title=" ">
<polygon fill="#e0e0e0" stroke="#999999" points="1055.5,-129 990.5,-129 990.5,-110 1055.5,-110 1055.5,-129"/>
<text text-anchor="middle" x="1023" y="-117" font-family="Helvetica,sans-Serif" font-size="10.00">functional</text>
</a>
</g>
</g>
<!-- Node21&#45;&gt;Node23 -->
<g id="edge27_Node000021_Node000023" class="edge">
<title>Node21&#45;&gt;Node23</title>
<g id="a_edge27_Node000021_Node000023"><a xlink:title=" ">
<path fill="none" stroke="#63b8ff" d="M971.8,-164.98C980.82,-157.15 994.41,-145.34 1005.32,-135.86"/>
<polygon fill="#63b8ff" stroke="#63b8ff" points="1007.77,-138.37 1013.02,-129.17 1003.18,-133.09 1007.77,-138.37"/>
</a>
</g>
</g>
</g>
</svg>
