<?xml version="1.0" encoding="UTF-8" standalone="no"?>
<!DOCTYPE svg PUBLIC "-//W3C//DTD SVG 1.1//EN"
 "http://www.w3.org/Graphics/SVG/1.1/DTD/svg11.dtd">
<!-- Generated by graphviz version 2.43.0 (0)
 -->
<!-- Title: /home/runner/work/realm/realm/realm&#45;src/src/realm/reservation.h Pages: 1 -->
<svg width="941pt" height="324pt"
 viewBox="0.00 0.00 940.50 324.00" xmlns="http://www.w3.org/2000/svg" xmlns:xlink="http://www.w3.org/1999/xlink">
<g id="graph0" class="graph" transform="scale(1 1) rotate(0) translate(4 320)">
<title>/home/runner/work/realm/realm/realm&#45;src/src/realm/reservation.h</title>
<!-- Node1 -->
<g id="Node000001" class="node">
<title>Node1</title>
<g id="a_Node000001"><a xlink:title=" ">
<polygon fill="#999999" stroke="#666666" points="788.5,-316 642.5,-316 642.5,-275 788.5,-275 788.5,-316"/>
<text text-anchor="start" x="650.5" y="-304" font-family="Helvetica,sans-Serif" font-size="10.00">/home/runner/work/realm</text>
<text text-anchor="start" x="650.5" y="-293" font-family="Helvetica,sans-Serif" font-size="10.00">/realm/realm&#45;src/src/realm</text>
<text text-anchor="middle" x="715.5" y="-282" font-family="Helvetica,sans-Serif" font-size="10.00">/reservation.h</text>
</a>
</g>
</g>
<!-- Node2 -->
<g id="Node000002" class="node">
<title>Node2</title>
<g id="a_Node000002"><a xlink:href="realm__c_8h.html" target="_top" xlink:title=" ">
<polygon fill="white" stroke="#666666" points="813.5,-129 717.5,-129 717.5,-110 813.5,-110 813.5,-129"/>
<text text-anchor="middle" x="765.5" y="-117" font-family="Helvetica,sans-Serif" font-size="10.00">realm/realm_c.h</text>
</a>
</g>
</g>
<!-- Node1&#45;&gt;Node2 -->
<g id="edge1_Node000001_Node000002" class="edge">
<title>Node1&#45;&gt;Node2</title>
<g id="a_edge1_Node000001_Node000002"><a xlink:title=" ">
<path fill="none" stroke="#63b8ff" d="M721.14,-274.88C730.87,-241.02 750.68,-172.09 760.18,-139.01"/>
<polygon fill="#63b8ff" stroke="#63b8ff" points="763.58,-139.85 762.98,-129.27 756.85,-137.92 763.58,-139.85"/>
</a>
</g>
</g>
<!-- Node8 -->
<g id="Node000008" class="node">
<title>Node8</title>
<g id="a_Node000008"><a xlink:href="atomics_8h.html" target="_top" xlink:title=" ">
<polygon fill="white" stroke="#666666" points="253.5,-239 157.5,-239 157.5,-220 253.5,-220 253.5,-239"/>
<text text-anchor="middle" x="205.5" y="-227" font-family="Helvetica,sans-Serif" font-size="10.00">realm/atomics.h</text>
</a>
</g>
</g>
<!-- Node1&#45;&gt;Node8 -->
<g id="edge7_Node000001_Node000008" class="edge">
<title>Node1&#45;&gt;Node8</title>
<g id="a_edge7_Node000001_Node000008"><a xlink:title=" ">
<path fill="none" stroke="#63b8ff" d="M642.43,-285.33C540.35,-272.52 357.12,-249.53 263.71,-237.8"/>
<polygon fill="#63b8ff" stroke="#63b8ff" points="263.95,-234.31 253.59,-236.53 263.08,-241.25 263.95,-234.31"/>
</a>
</g>
</g>
<!-- Node11 -->
<g id="Node000011" class="node">
<title>Node11</title>
<g id="a_Node000011"><a xlink:href="event_8h.html" target="_top" xlink:title=" ">
<polygon fill="white" stroke="#666666" points="720,-239 635,-239 635,-220 720,-220 720,-239"/>
<text text-anchor="middle" x="677.5" y="-227" font-family="Helvetica,sans-Serif" font-size="10.00">realm/event.h</text>
</a>
</g>
</g>
<!-- Node1&#45;&gt;Node11 -->
<g id="edge11_Node000001_Node000011" class="edge">
<title>Node1&#45;&gt;Node11</title>
<g id="a_edge11_Node000001_Node000011"><a xlink:title=" ">
<path fill="none" stroke="#63b8ff" d="M703.89,-274.95C698.81,-266.39 692.89,-256.42 687.95,-248.1"/>
<polygon fill="#63b8ff" stroke="#63b8ff" points="690.82,-246.07 682.7,-239.26 684.8,-249.65 690.82,-246.07"/>
</a>
</g>
</g>
<!-- Node25 -->
<g id="Node000025" class="node">
<title>Node25</title>
<g id="a_Node000025"><a xlink:title=" ">
<polygon fill="#e0e0e0" stroke="#999999" points="899,-239 780,-239 780,-220 899,-220 899,-239"/>
<text text-anchor="middle" x="839.5" y="-227" font-family="Helvetica,sans-Serif" font-size="10.00">realm/reservation.inl</text>
</a>
</g>
</g>
<!-- Node1&#45;&gt;Node25 -->
<g id="edge31_Node000001_Node000025" class="edge">
<title>Node1&#45;&gt;Node25</title>
<g id="a_edge31_Node000001_Node000025"><a xlink:title=" ">
<path fill="none" stroke="#63b8ff" d="M753.38,-274.95C772.97,-264.84 796.37,-252.76 813.83,-243.75"/>
<polygon fill="#63b8ff" stroke="#63b8ff" points="815.57,-246.79 822.85,-239.09 812.36,-240.57 815.57,-246.79"/>
</a>
</g>
</g>
<!-- Node3 -->
<g id="Node000003" class="node">
<title>Node3</title>
<g id="a_Node000003"><a xlink:href="realm__config_8h.html" target="_top" xlink:title=" ">
<polygon fill="white" stroke="#666666" points="175.5,-74 55.5,-74 55.5,-55 175.5,-55 175.5,-74"/>
<text text-anchor="middle" x="115.5" y="-62" font-family="Helvetica,sans-Serif" font-size="10.00">realm/realm_config.h</text>
</a>
</g>
</g>
<!-- Node2&#45;&gt;Node3 -->
<g id="edge2_Node000002_Node000003" class="edge">
<title>Node2&#45;&gt;Node3</title>
<g id="a_edge2_Node000002_Node000003"><a xlink:title=" ">
<path fill="none" stroke="#63b8ff" d="M717.33,-111.06C714.35,-110.68 711.38,-110.32 708.5,-110 520.21,-88.92 297.13,-75.2 185.91,-69.11"/>
<polygon fill="#63b8ff" stroke="#63b8ff" points="186,-65.61 175.82,-68.57 185.62,-72.6 186,-65.61"/>
</a>
</g>
</g>
<!-- Node6 -->
<g id="Node000006" class="node">
<title>Node6</title>
<g id="a_Node000006"><a xlink:title=" ">
<polygon fill="#e0e0e0" stroke="#999999" points="867.5,-74 811.5,-74 811.5,-55 867.5,-55 867.5,-74"/>
<text text-anchor="middle" x="839.5" y="-62" font-family="Helvetica,sans-Serif" font-size="10.00">stddef.h</text>
</a>
</g>
</g>
<!-- Node2&#45;&gt;Node6 -->
<g id="edge5_Node000002_Node000006" class="edge">
<title>Node2&#45;&gt;Node6</title>
<g id="a_edge5_Node000002_Node000006"><a xlink:title=" ">
<path fill="none" stroke="#63b8ff" d="M777.39,-109.98C788.65,-101.92 805.79,-89.65 819.21,-80.03"/>
<polygon fill="#63b8ff" stroke="#63b8ff" points="821.3,-82.84 827.39,-74.17 817.23,-77.15 821.3,-82.84"/>
</a>
</g>
</g>
<!-- Node7 -->
<g id="Node000007" class="node">
<title>Node7</title>
<g id="a_Node000007"><a xlink:title=" ">
<polygon fill="#e0e0e0" stroke="#999999" points="792,-74 739,-74 739,-55 792,-55 792,-74"/>
<text text-anchor="middle" x="765.5" y="-62" font-family="Helvetica,sans-Serif" font-size="10.00">stdint.h</text>
</a>
</g>
</g>
<!-- Node2&#45;&gt;Node7 -->
<g id="edge6_Node000002_Node000007" class="edge">
<title>Node2&#45;&gt;Node7</title>
<g id="a_edge6_Node000002_Node000007"><a xlink:title=" ">
<path fill="none" stroke="#63b8ff" d="M765.5,-109.75C765.5,-102.8 765.5,-92.85 765.5,-84.13"/>
<polygon fill="#63b8ff" stroke="#63b8ff" points="769,-84.09 765.5,-74.09 762,-84.09 769,-84.09"/>
</a>
</g>
</g>
<!-- Node4 -->
<g id="Node000004" class="node">
<title>Node4</title>
<g id="a_Node000004"><a xlink:href="realm__defines_8h.html" target="_top" xlink:title=" ">
<polygon fill="white" stroke="#666666" points="95,-19 0,-19 0,0 95,0 95,-19"/>
<text text-anchor="middle" x="47.5" y="-7" font-family="Helvetica,sans-Serif" font-size="10.00">realm_defines.h</text>
</a>
</g>
</g>
<!-- Node3&#45;&gt;Node4 -->
<g id="edge3_Node000003_Node000004" class="edge">
<title>Node3&#45;&gt;Node4</title>
<g id="a_edge3_Node000003_Node000004"><a xlink:title=" ">
<path fill="none" stroke="#63b8ff" d="M104.57,-54.98C94.42,-47.07 79.08,-35.11 66.85,-25.58"/>
<polygon fill="#63b8ff" stroke="#63b8ff" points="68.66,-22.56 58.62,-19.17 64.36,-28.08 68.66,-22.56"/>
</a>
</g>
</g>
<!-- Node5 -->
<g id="Node000005" class="node">
<title>Node5</title>
<g id="a_Node000005"><a xlink:href="compiler__support_8h.html" target="_top" xlink:title=" ">
<polygon fill="white" stroke="#666666" points="255.5,-19 113.5,-19 113.5,0 255.5,0 255.5,-19"/>
<text text-anchor="middle" x="184.5" y="-7" font-family="Helvetica,sans-Serif" font-size="10.00">realm/compiler_support.h</text>
</a>
</g>
</g>
<!-- Node3&#45;&gt;Node5 -->
<g id="edge4_Node000003_Node000005" class="edge">
<title>Node3&#45;&gt;Node5</title>
<g id="a_edge4_Node000003_Node000005"><a xlink:title=" ">
<path fill="none" stroke="#63b8ff" d="M126.59,-54.98C136.99,-47 152.76,-34.88 165.22,-25.31"/>
<polygon fill="#63b8ff" stroke="#63b8ff" points="167.41,-28.04 173.21,-19.17 163.15,-22.49 167.41,-28.04"/>
</a>
</g>
</g>
<!-- Node8&#45;&gt;Node3 -->
<g id="edge8_Node000008_Node000003" class="edge">
<title>Node8&#45;&gt;Node3</title>
<g id="a_edge8_Node000008_Node000003"><a xlink:title=" ">
<path fill="none" stroke="#63b8ff" d="M175.98,-220C158.07,-213.24 136.44,-201.88 124.5,-184 104.34,-153.79 107.65,-109.09 111.68,-84.12"/>
<polygon fill="#63b8ff" stroke="#63b8ff" points="115.15,-84.62 113.51,-74.15 108.26,-83.36 115.15,-84.62"/>
</a>
</g>
</g>
<!-- Node9 -->
<g id="Node000009" class="node">
<title>Node9</title>
<g id="a_Node000009"><a xlink:title=" ">
<polygon fill="#e0e0e0" stroke="#999999" points="183.5,-184 133.5,-184 133.5,-165 183.5,-165 183.5,-184"/>
<text text-anchor="middle" x="158.5" y="-172" font-family="Helvetica,sans-Serif" font-size="10.00">atomic</text>
</a>
</g>
</g>
<!-- Node8&#45;&gt;Node9 -->
<g id="edge9_Node000008_Node000009" class="edge">
<title>Node8&#45;&gt;Node9</title>
<g id="a_edge9_Node000008_Node000009"><a xlink:title=" ">
<path fill="none" stroke="#63b8ff" d="M197.74,-219.75C191.03,-212.18 181.16,-201.05 172.99,-191.84"/>
<polygon fill="#63b8ff" stroke="#63b8ff" points="175.37,-189.25 166.12,-184.09 170.13,-193.89 175.37,-189.25"/>
</a>
</g>
</g>
<!-- Node10 -->
<g id="Node000010" class="node">
<title>Node10</title>
<g id="a_Node000010"><a xlink:title=" ">
<polygon fill="#e0e0e0" stroke="#999999" points="303.5,-184 201.5,-184 201.5,-165 303.5,-165 303.5,-184"/>
<text text-anchor="middle" x="252.5" y="-172" font-family="Helvetica,sans-Serif" font-size="10.00">realm/atomics.inl</text>
</a>
</g>
</g>
<!-- Node8&#45;&gt;Node10 -->
<g id="edge10_Node000008_Node000010" class="edge">
<title>Node8&#45;&gt;Node10</title>
<g id="a_edge10_Node000008_Node000010"><a xlink:title=" ">
<path fill="none" stroke="#63b8ff" d="M213.26,-219.75C219.97,-212.18 229.84,-201.05 238.01,-191.84"/>
<polygon fill="#63b8ff" stroke="#63b8ff" points="240.87,-193.89 244.88,-184.09 235.63,-189.25 240.87,-193.89"/>
</a>
</g>
</g>
<!-- Node11&#45;&gt;Node2 -->
<g id="edge12_Node000011_Node000002" class="edge">
<title>Node11&#45;&gt;Node2</title>
<g id="a_edge12_Node000011_Node000002"><a xlink:title=" ">
<path fill="none" stroke="#63b8ff" d="M684.7,-219.66C699.41,-201.61 733.09,-160.28 751.99,-137.08"/>
<polygon fill="#63b8ff" stroke="#63b8ff" points="754.84,-139.12 758.45,-129.16 749.41,-134.7 754.84,-139.12"/>
</a>
</g>
</g>
<!-- Node12 -->
<g id="Node000012" class="node">
<title>Node12</title>
<g id="a_Node000012"><a xlink:href="utils_8h.html" target="_top" xlink:title=" ">
<polygon fill="white" stroke="#666666" points="453.5,-184 375.5,-184 375.5,-165 453.5,-165 453.5,-184"/>
<text text-anchor="middle" x="414.5" y="-172" font-family="Helvetica,sans-Serif" font-size="10.00">realm/utils.h</text>
</a>
</g>
</g>
<!-- Node11&#45;&gt;Node12 -->
<g id="edge13_Node000011_Node000012" class="edge">
<title>Node11&#45;&gt;Node12</title>
<g id="a_edge13_Node000011_Node000012"><a xlink:title=" ">
<path fill="none" stroke="#63b8ff" d="M635.24,-219.98C588.38,-210.54 512.88,-195.32 463.47,-185.37"/>
<polygon fill="#63b8ff" stroke="#63b8ff" points="464.14,-181.93 453.65,-183.39 462.76,-188.8 464.14,-181.93"/>
</a>
</g>
</g>
<!-- Node15 -->
<g id="Node000015" class="node">
<title>Node15</title>
<g id="a_Node000015"><a xlink:title=" ">
<polygon fill="#e0e0e0" stroke="#999999" points="699,-129 652,-129 652,-110 699,-110 699,-129"/>
<text text-anchor="middle" x="675.5" y="-117" font-family="Helvetica,sans-Serif" font-size="10.00">vector</text>
</a>
</g>
</g>
<!-- Node11&#45;&gt;Node15 -->
<g id="edge27_Node000011_Node000015" class="edge">
<title>Node11&#45;&gt;Node15</title>
<g id="a_edge27_Node000011_Node000015"><a xlink:title=" ">
<path fill="none" stroke="#63b8ff" d="M677.34,-219.66C677.01,-202.17 676.28,-162.8 675.85,-139.27"/>
<polygon fill="#63b8ff" stroke="#63b8ff" points="679.34,-139.09 675.66,-129.16 672.35,-139.22 679.34,-139.09"/>
</a>
</g>
</g>
<!-- Node21 -->
<g id="Node000021" class="node">
<title>Node21</title>
<g id="a_Node000021"><a xlink:href="memory_8h.html" target="_top" xlink:title=" ">
<polygon fill="white" stroke="#666666" points="877,-184 780,-184 780,-165 877,-165 877,-184"/>
<text text-anchor="middle" x="828.5" y="-172" font-family="Helvetica,sans-Serif" font-size="10.00">realm/memory.h</text>
</a>
</g>
</g>
<!-- Node11&#45;&gt;Node21 -->
<g id="edge23_Node000011_Node000021" class="edge">
<title>Node11&#45;&gt;Node21</title>
<g id="a_edge23_Node000011_Node000021"><a xlink:title=" ">
<path fill="none" stroke="#63b8ff" d="M701.76,-219.98C726.82,-211.19 766.13,-197.39 794.33,-187.49"/>
<polygon fill="#63b8ff" stroke="#63b8ff" points="795.52,-190.78 803.8,-184.17 793.2,-184.18 795.52,-190.78"/>
</a>
</g>
</g>
<!-- Node22 -->
<g id="Node000022" class="node">
<title>Node22</title>
<g id="a_Node000022"><a xlink:title=" ">
<polygon fill="#e0e0e0" stroke="#999999" points="932.5,-129 872.5,-129 872.5,-110 932.5,-110 932.5,-129"/>
<text text-anchor="middle" x="902.5" y="-117" font-family="Helvetica,sans-Serif" font-size="10.00">iostream</text>
</a>
</g>
</g>
<!-- Node11&#45;&gt;Node22 -->
<g id="edge29_Node000011_Node000022" class="edge">
<title>Node11&#45;&gt;Node22</title>
<g id="a_edge29_Node000011_Node000022"><a xlink:title=" ">
<path fill="none" stroke="#63b8ff" d="M720.01,-224.72C774.04,-219.05 863.13,-206.52 886.5,-184 898.39,-172.55 901.94,-153.66 902.78,-139.46"/>
<polygon fill="#63b8ff" stroke="#63b8ff" points="906.29,-139.37 902.99,-129.3 899.29,-139.23 906.29,-139.37"/>
</a>
</g>
</g>
<!-- Node23 -->
<g id="Node000023" class="node">
<title>Node23</title>
<g id="a_Node000023"><a xlink:title=" ">
<polygon fill="#e0e0e0" stroke="#999999" points="537.5,-184 505.5,-184 505.5,-165 537.5,-165 537.5,-184"/>
<text text-anchor="middle" x="521.5" y="-172" font-family="Helvetica,sans-Serif" font-size="10.00">set</text>
</a>
</g>
</g>
<!-- Node11&#45;&gt;Node23 -->
<g id="edge28_Node000011_Node000023" class="edge">
<title>Node11&#45;&gt;Node23</title>
<g id="a_edge28_Node000011_Node000023"><a xlink:title=" ">
<path fill="none" stroke="#63b8ff" d="M652.44,-219.98C623.62,-210.2 576.56,-194.21 547.4,-184.3"/>
<polygon fill="#63b8ff" stroke="#63b8ff" points="548.48,-180.97 537.89,-181.07 546.23,-187.6 548.48,-180.97"/>
</a>
</g>
</g>
<!-- Node24 -->
<g id="Node000024" class="node">
<title>Node24</title>
<g id="a_Node000024"><a xlink:title=" ">
<polygon fill="#e0e0e0" stroke="#999999" points="647,-184 556,-184 556,-165 647,-165 647,-184"/>
<text text-anchor="middle" x="601.5" y="-172" font-family="Helvetica,sans-Serif" font-size="10.00">realm/event.inl</text>
</a>
</g>
</g>
<!-- Node11&#45;&gt;Node24 -->
<g id="edge30_Node000011_Node000024" class="edge">
<title>Node11&#45;&gt;Node24</title>
<g id="a_edge30_Node000011_Node000024"><a xlink:title=" ">
<path fill="none" stroke="#63b8ff" d="M665.29,-219.98C653.72,-211.92 636.12,-199.65 622.34,-190.03"/>
<polygon fill="#63b8ff" stroke="#63b8ff" points="624.14,-187.02 613.93,-184.17 620.13,-192.76 624.14,-187.02"/>
</a>
</g>
</g>
<!-- Node12&#45;&gt;Node3 -->
<g id="edge14_Node000012_Node000003" class="edge">
<title>Node12&#45;&gt;Node3</title>
<g id="a_edge14_Node000012_Node000003"><a xlink:title=" ">
<path fill="none" stroke="#63b8ff" d="M375.22,-169.58C302.44,-161.99 152.37,-144.64 134.5,-129 121.93,-118 117.5,-99.05 116.03,-84.71"/>
<polygon fill="#63b8ff" stroke="#63b8ff" points="119.51,-84.19 115.38,-74.43 112.52,-84.64 119.51,-84.19"/>
</a>
</g>
</g>
<!-- Node13 -->
<g id="Node000013" class="node">
<title>Node13</title>
<g id="a_Node000013"><a xlink:title=" ">
<polygon fill="#e0e0e0" stroke="#999999" points="633.5,-129 589.5,-129 589.5,-110 633.5,-110 633.5,-129"/>
<text text-anchor="middle" x="611.5" y="-117" font-family="Helvetica,sans-Serif" font-size="10.00">string</text>
</a>
</g>
</g>
<!-- Node12&#45;&gt;Node13 -->
<g id="edge15_Node000012_Node000013" class="edge">
<title>Node12&#45;&gt;Node13</title>
<g id="a_edge15_Node000012_Node000013"><a xlink:title=" ">
<path fill="none" stroke="#63b8ff" d="M446.65,-164.94C478.14,-156.54 527.75,-143.28 579.75,-129.19"/>
<polygon fill="#63b8ff" stroke="#63b8ff" points="580.75,-132.55 589.49,-126.55 578.92,-125.79 580.75,-132.55"/>
</a>
</g>
</g>
<!-- Node14 -->
<g id="Node000014" class="node">
<title>Node14</title>
<g id="a_Node000014"><a xlink:title=" ">
<polygon fill="#e0e0e0" stroke="#999999" points="201,-129 144,-129 144,-110 201,-110 201,-129"/>
<text text-anchor="middle" x="172.5" y="-117" font-family="Helvetica,sans-Serif" font-size="10.00">ostream</text>
</a>
</g>
</g>
<!-- Node12&#45;&gt;Node14 -->
<g id="edge16_Node000012_Node000014" class="edge">
<title>Node12&#45;&gt;Node14</title>
<g id="a_edge16_Node000012_Node000014"><a xlink:title=" ">
<path fill="none" stroke="#63b8ff" d="M375.38,-165.03C336.31,-156.56 274.27,-143.07 210.9,-129.08"/>
<polygon fill="#63b8ff" stroke="#63b8ff" points="211.65,-125.66 201.13,-126.92 210.14,-132.5 211.65,-125.66"/>
</a>
</g>
</g>
<!-- Node12&#45;&gt;Node15 -->
<g id="edge17_Node000012_Node000015" class="edge">
<title>Node12&#45;&gt;Node15</title>
<g id="a_edge17_Node000012_Node000015"><a xlink:title=" ">
<path fill="none" stroke="#63b8ff" d="M453.78,-166.57C497.29,-158.72 569.73,-145.19 641.61,-129.09"/>
<polygon fill="#63b8ff" stroke="#63b8ff" points="642.76,-132.41 651.75,-126.8 641.22,-125.59 642.76,-132.41"/>
</a>
</g>
</g>
<!-- Node16 -->
<g id="Node000016" class="node">
<title>Node16</title>
<g id="a_Node000016"><a xlink:title=" ">
<polygon fill="#e0e0e0" stroke="#999999" points="257.5,-129 219.5,-129 219.5,-110 257.5,-110 257.5,-129"/>
<text text-anchor="middle" x="238.5" y="-117" font-family="Helvetica,sans-Serif" font-size="10.00">map</text>
</a>
</g>
</g>
<!-- Node12&#45;&gt;Node16 -->
<g id="edge18_Node000012_Node000016" class="edge">
<title>Node12&#45;&gt;Node16</title>
<g id="a_edge18_Node000012_Node000016"><a xlink:title=" ">
<path fill="none" stroke="#63b8ff" d="M386.12,-164.99C358.24,-156.63 314.25,-143.41 267.48,-129.29"/>
<polygon fill="#63b8ff" stroke="#63b8ff" points="268.36,-125.9 257.78,-126.36 266.34,-132.6 268.36,-125.9"/>
</a>
</g>
</g>
<!-- Node17 -->
<g id="Node000017" class="node">
<title>Node17</title>
<g id="a_Node000017"><a xlink:title=" ">
<polygon fill="#e0e0e0" stroke="#999999" points="327.5,-129 275.5,-129 275.5,-110 327.5,-110 327.5,-129"/>
<text text-anchor="middle" x="301.5" y="-117" font-family="Helvetica,sans-Serif" font-size="10.00">cassert</text>
</a>
</g>
</g>
<!-- Node12&#45;&gt;Node17 -->
<g id="edge19_Node000012_Node000017" class="edge">
<title>Node12&#45;&gt;Node17</title>
<g id="a_edge19_Node000012_Node000017"><a xlink:title=" ">
<path fill="none" stroke="#63b8ff" d="M396.34,-164.98C378.25,-156.5 350.22,-143.35 329.31,-133.54"/>
<polygon fill="#63b8ff" stroke="#63b8ff" points="330.53,-130.25 319.99,-129.17 327.55,-136.59 330.53,-130.25"/>
</a>
</g>
</g>
<!-- Node18 -->
<g id="Node000018" class="node">
<title>Node18</title>
<g id="a_Node000018"><a xlink:title=" ">
<polygon fill="#e0e0e0" stroke="#999999" points="395.5,-129 345.5,-129 345.5,-110 395.5,-110 395.5,-129"/>
<text text-anchor="middle" x="370.5" y="-117" font-family="Helvetica,sans-Serif" font-size="10.00">cstdint</text>
</a>
</g>
</g>
<!-- Node12&#45;&gt;Node18 -->
<g id="edge20_Node000012_Node000018" class="edge">
<title>Node12&#45;&gt;Node18</title>
<g id="a_edge20_Node000012_Node000018"><a xlink:title=" ">
<path fill="none" stroke="#63b8ff" d="M407.23,-164.75C400.96,-157.18 391.71,-146.05 384.07,-136.84"/>
<polygon fill="#63b8ff" stroke="#63b8ff" points="386.71,-134.55 377.63,-129.09 381.33,-139.02 386.71,-134.55"/>
</a>
</g>
</g>
<!-- Node19 -->
<g id="Node000019" class="node">
<title>Node19</title>
<g id="a_Node000019"><a xlink:title=" ">
<polygon fill="#e0e0e0" stroke="#999999" points="469.5,-129 413.5,-129 413.5,-110 469.5,-110 469.5,-129"/>
<text text-anchor="middle" x="441.5" y="-117" font-family="Helvetica,sans-Serif" font-size="10.00">sstream</text>
</a>
</g>
</g>
<!-- Node12&#45;&gt;Node19 -->
<g id="edge21_Node000012_Node000019" class="edge">
<title>Node12&#45;&gt;Node19</title>
<g id="a_edge21_Node000012_Node000019"><a xlink:title=" ">
<path fill="none" stroke="#63b8ff" d="M418.96,-164.75C422.62,-157.57 427.91,-147.18 432.45,-138.27"/>
<polygon fill="#63b8ff" stroke="#63b8ff" points="435.7,-139.59 437.12,-129.09 429.47,-136.41 435.7,-139.59"/>
</a>
</g>
</g>
<!-- Node20 -->
<g id="Node000020" class="node">
<title>Node20</title>
<g id="a_Node000020"><a xlink:title=" ">
<polygon fill="#e0e0e0" stroke="#999999" points="571.5,-129 487.5,-129 487.5,-110 571.5,-110 571.5,-129"/>
<text text-anchor="middle" x="529.5" y="-117" font-family="Helvetica,sans-Serif" font-size="10.00">realm/utils.inl</text>
</a>
</g>
</g>
<!-- Node12&#45;&gt;Node20 -->
<g id="edge22_Node000012_Node000020" class="edge">
<title>Node12&#45;&gt;Node20</title>
<g id="a_edge22_Node000012_Node000020"><a xlink:title=" ">
<path fill="none" stroke="#63b8ff" d="M432.98,-164.98C451.48,-156.46 480.18,-143.23 501.48,-133.41"/>
<polygon fill="#63b8ff" stroke="#63b8ff" points="503.07,-136.53 510.69,-129.17 500.14,-130.18 503.07,-136.53"/>
</a>
</g>
</g>
<!-- Node21&#45;&gt;Node2 -->
<g id="edge24_Node000021_Node000002" class="edge">
<title>Node21&#45;&gt;Node2</title>
<g id="a_edge24_Node000021_Node000002"><a xlink:title=" ">
<path fill="none" stroke="#63b8ff" d="M818.38,-164.98C809.06,-157.15 795.03,-145.34 783.76,-135.86"/>
<polygon fill="#63b8ff" stroke="#63b8ff" points="785.71,-132.93 775.81,-129.17 781.21,-138.29 785.71,-132.93"/>
</a>
</g>
</g>
<!-- Node21&#45;&gt;Node6 -->
<g id="edge25_Node000021_Node000006" class="edge">
<title>Node21&#45;&gt;Node6</title>
<g id="a_edge25_Node000021_Node000006"><a xlink:title=" ">
<path fill="none" stroke="#63b8ff" d="M829.4,-164.66C831.18,-147.17 835.19,-107.8 837.59,-84.27"/>
<polygon fill="#63b8ff" stroke="#63b8ff" points="841.09,-84.46 838.62,-74.16 834.12,-83.75 841.09,-84.46"/>
</a>
</g>
</g>
<!-- Node21&#45;&gt;Node22 -->
<g id="edge26_Node000021_Node000022" class="edge">
<title>Node21&#45;&gt;Node22</title>
<g id="a_edge26_Node000021_Node000022"><a xlink:title=" ">
<path fill="none" stroke="#63b8ff" d="M840.39,-164.98C851.65,-156.92 868.79,-144.65 882.21,-135.03"/>
<polygon fill="#63b8ff" stroke="#63b8ff" points="884.3,-137.84 890.39,-129.17 880.23,-132.15 884.3,-137.84"/>
</a>
</g>
</g>
</g>
</svg>
