<?xml version="1.0" encoding="UTF-8" standalone="no"?>
<!DOCTYPE svg PUBLIC "-//W3C//DTD SVG 1.1//EN"
 "http://www.w3.org/Graphics/SVG/1.1/DTD/svg11.dtd">
<!-- Generated by graphviz version 2.43.0 (0)
 -->
<!-- Title: /home/runner/work/realm/realm/realm&#45;src/src/realm/reservation.h Pages: 1 -->
<svg width="1746pt" height="511pt"
 viewBox="0.00 0.00 1746.10 511.00" xmlns="http://www.w3.org/2000/svg" xmlns:xlink="http://www.w3.org/1999/xlink">
<g id="graph0" class="graph" transform="scale(1 1) rotate(0) translate(4 507)">
<title>/home/runner/work/realm/realm/realm&#45;src/src/realm/reservation.h</title>
<!-- Node1 -->
<g id="Node000001" class="node">
<title>Node1</title>
<g id="a_Node000001"><a xlink:title=" ">
<polygon fill="#999999" stroke="#666666" points="698,-503 552,-503 552,-462 698,-462 698,-503"/>
<text text-anchor="start" x="560" y="-491" font-family="Helvetica,sans-Serif" font-size="10.00">/home/runner/work/realm</text>
<text text-anchor="start" x="560" y="-480" font-family="Helvetica,sans-Serif" font-size="10.00">/realm/realm&#45;src/src/realm</text>
<text text-anchor="middle" x="625" y="-469" font-family="Helvetica,sans-Serif" font-size="10.00">/reservation.h</text>
</a>
</g>
</g>
<!-- Node2 -->
<g id="Node000002" class="node">
<title>Node2</title>
<g id="a_Node000002"><a xlink:href="rsrv__impl_8h.html" target="_top" xlink:title=" ">
<polygon fill="white" stroke="#666666" points="780,-426 634,-426 634,-385 780,-385 780,-426"/>
<text text-anchor="start" x="642" y="-414" font-family="Helvetica,sans-Serif" font-size="10.00">/home/runner/work/realm</text>
<text text-anchor="start" x="642" y="-403" font-family="Helvetica,sans-Serif" font-size="10.00">/realm/realm&#45;src/src/realm</text>
<text text-anchor="middle" x="707" y="-392" font-family="Helvetica,sans-Serif" font-size="10.00">/rsrv_impl.h</text>
</a>
</g>
</g>
<!-- Node1&#45;&gt;Node2 -->
<g id="edge1_Node000001_Node000002" class="edge">
<title>Node1&#45;&gt;Node2</title>
<g id="a_edge1_Node000001_Node000002"><a xlink:title=" ">
<path fill="none" stroke="#63b8ff" d="M654.2,-454.79C664.56,-445.32 676.01,-434.84 685.6,-426.07"/>
<polygon fill="#63b8ff" stroke="#63b8ff" points="651.56,-452.46 646.54,-461.79 656.29,-457.63 651.56,-452.46"/>
</a>
</g>
</g>
<!-- Node21 -->
<g id="Node000021" class="node">
<title>Node21</title>
<g id="a_Node000021"><a xlink:href="subgraph_8h.html" target="_top" xlink:title=" ">
<polygon fill="white" stroke="#666666" points="616,-426 470,-426 470,-385 616,-385 616,-426"/>
<text text-anchor="start" x="478" y="-414" font-family="Helvetica,sans-Serif" font-size="10.00">/home/runner/work/realm</text>
<text text-anchor="start" x="478" y="-403" font-family="Helvetica,sans-Serif" font-size="10.00">/realm/realm&#45;src/src/realm</text>
<text text-anchor="middle" x="543" y="-392" font-family="Helvetica,sans-Serif" font-size="10.00">/subgraph.h</text>
</a>
</g>
</g>
<!-- Node1&#45;&gt;Node21 -->
<g id="edge36_Node000001_Node000021" class="edge">
<title>Node1&#45;&gt;Node21</title>
<g id="a_edge36_Node000001_Node000021"><a xlink:title=" ">
<path fill="none" stroke="#63b8ff" d="M595.8,-454.79C585.44,-445.32 573.99,-434.84 564.4,-426.07"/>
<polygon fill="#63b8ff" stroke="#63b8ff" points="593.71,-457.63 603.46,-461.79 598.44,-452.46 593.71,-457.63"/>
</a>
</g>
</g>
<!-- Node3 -->
<g id="Node000003" class="node">
<title>Node3</title>
<g id="a_Node000003"><a xlink:href="inst__impl_8h.html" target="_top" xlink:title=" ">
<polygon fill="white" stroke="#666666" points="780,-272 634,-272 634,-231 780,-231 780,-272"/>
<text text-anchor="start" x="642" y="-260" font-family="Helvetica,sans-Serif" font-size="10.00">/home/runner/work/realm</text>
<text text-anchor="start" x="642" y="-249" font-family="Helvetica,sans-Serif" font-size="10.00">/realm/realm&#45;src/src/realm</text>
<text text-anchor="middle" x="707" y="-238" font-family="Helvetica,sans-Serif" font-size="10.00">/inst_impl.h</text>
</a>
</g>
</g>
<!-- Node2&#45;&gt;Node3 -->
<g id="edge2_Node000002_Node000003" class="edge">
<title>Node2&#45;&gt;Node3</title>
<g id="a_edge2_Node000002_Node000003"><a xlink:title=" ">
<path fill="none" stroke="#63b8ff" d="M707,-374.58C707,-344.36 707,-298.53 707,-272.47"/>
<polygon fill="#63b8ff" stroke="#63b8ff" points="703.5,-374.94 707,-384.94 710.5,-374.94 703.5,-374.94"/>
</a>
</g>
</g>
<!-- Node13 -->
<g id="Node000013" class="node">
<title>Node13</title>
<g id="a_Node000013"><a xlink:href="mem__impl_8h.html" target="_top" xlink:title=" ">
<polygon fill="white" stroke="#666666" points="957,-349 811,-349 811,-308 957,-308 957,-349"/>
<text text-anchor="start" x="819" y="-337" font-family="Helvetica,sans-Serif" font-size="10.00">/home/runner/work/realm</text>
<text text-anchor="start" x="819" y="-326" font-family="Helvetica,sans-Serif" font-size="10.00">/realm/realm&#45;src/src/realm</text>
<text text-anchor="middle" x="884" y="-315" font-family="Helvetica,sans-Serif" font-size="10.00">/mem_impl.h</text>
</a>
</g>
</g>
<!-- Node2&#45;&gt;Node13 -->
<g id="edge14_Node000002_Node000013" class="edge">
<title>Node2&#45;&gt;Node13</title>
<g id="a_edge14_Node000002_Node000013"><a xlink:title=" ">
<path fill="none" stroke="#63b8ff" d="M762.47,-381C786.71,-370.72 814.81,-358.82 837.88,-349.04"/>
<polygon fill="#63b8ff" stroke="#63b8ff" points="760.88,-377.87 753.04,-384.99 763.62,-384.31 760.88,-377.87"/>
</a>
</g>
</g>
<!-- Node16 -->
<g id="Node000016" class="node">
<title>Node16</title>
<g id="a_Node000016"><a xlink:href="proc__impl_8h.html" target="_top" xlink:title=" ">
<polygon fill="white" stroke="#666666" points="1260,-195 1114,-195 1114,-154 1260,-154 1260,-195"/>
<text text-anchor="start" x="1122" y="-183" font-family="Helvetica,sans-Serif" font-size="10.00">/home/runner/work/realm</text>
<text text-anchor="start" x="1122" y="-172" font-family="Helvetica,sans-Serif" font-size="10.00">/realm/realm&#45;src/src/realm</text>
<text text-anchor="middle" x="1187" y="-161" font-family="Helvetica,sans-Serif" font-size="10.00">/proc_impl.h</text>
</a>
</g>
</g>
<!-- Node2&#45;&gt;Node16 -->
<g id="edge26_Node000002_Node000016" class="edge">
<title>Node2&#45;&gt;Node16</title>
<g id="a_edge26_Node000002_Node000016"><a xlink:title=" ">
<path fill="none" stroke="#63b8ff" d="M790.3,-403.31C890.41,-397.23 1056.79,-371.55 1152,-272 1172.32,-250.75 1180.99,-216.8 1184.58,-195.36"/>
<polygon fill="#63b8ff" stroke="#63b8ff" points="790.01,-399.82 780.22,-403.87 790.4,-406.81 790.01,-399.82"/>
</a>
</g>
</g>
<!-- Node20 -->
<g id="Node000020" class="node">
<title>Node20</title>
<g id="a_Node000020"><a xlink:href="runtime__impl_8h.html" target="_top" xlink:title=" ">
<polygon fill="white" stroke="#666666" points="616,-272 470,-272 470,-231 616,-231 616,-272"/>
<text text-anchor="start" x="478" y="-260" font-family="Helvetica,sans-Serif" font-size="10.00">/home/runner/work/realm</text>
<text text-anchor="start" x="478" y="-249" font-family="Helvetica,sans-Serif" font-size="10.00">/realm/realm&#45;src/src/realm</text>
<text text-anchor="middle" x="543" y="-238" font-family="Helvetica,sans-Serif" font-size="10.00">/runtime_impl.h</text>
</a>
</g>
</g>
<!-- Node2&#45;&gt;Node20 -->
<g id="edge32_Node000002_Node000020" class="edge">
<title>Node2&#45;&gt;Node20</title>
<g id="a_edge32_Node000002_Node000020"><a xlink:title=" ">
<path fill="none" stroke="#63b8ff" d="M686.45,-376.42C670.86,-356.15 648.21,-328.8 625,-308 610.15,-294.69 591.92,-282.05 576.43,-272.2"/>
<polygon fill="#63b8ff" stroke="#63b8ff" points="683.85,-378.79 692.68,-384.64 689.42,-374.55 683.85,-378.79"/>
</a>
</g>
</g>
<!-- Node4 -->
<g id="Node000004" class="node">
<title>Node4</title>
<g id="a_Node000004"><a xlink:href="channel_8h.html" target="_top" xlink:title=" ">
<polygon fill="white" stroke="#666666" points="681,-195 535,-195 535,-154 681,-154 681,-195"/>
<text text-anchor="start" x="543" y="-183" font-family="Helvetica,sans-Serif" font-size="10.00">/home/runner/work/realm</text>
<text text-anchor="start" x="543" y="-172" font-family="Helvetica,sans-Serif" font-size="10.00">/realm/realm&#45;src/src/realm</text>
<text text-anchor="middle" x="608" y="-161" font-family="Helvetica,sans-Serif" font-size="10.00">/transfer/channel.h</text>
</a>
</g>
</g>
<!-- Node3&#45;&gt;Node4 -->
<g id="edge3_Node000003_Node000004" class="edge">
<title>Node3&#45;&gt;Node4</title>
<g id="a_edge3_Node000003_Node000004"><a xlink:title=" ">
<path fill="none" stroke="#63b8ff" d="M673.1,-224.82C660.29,-215.11 645.93,-204.24 633.97,-195.17"/>
<polygon fill="#63b8ff" stroke="#63b8ff" points="671.16,-227.74 681.25,-230.99 675.39,-222.16 671.16,-227.74"/>
</a>
</g>
</g>
<!-- Node10 -->
<g id="Node000010" class="node">
<title>Node10</title>
<g id="a_Node000010"><a xlink:href="lowlevel__dma_8h.html" target="_top" xlink:title=" ">
<polygon fill="white" stroke="#666666" points="146,-118 0,-118 0,-77 146,-77 146,-118"/>
<text text-anchor="start" x="8" y="-106" font-family="Helvetica,sans-Serif" font-size="10.00">/home/runner/work/realm</text>
<text text-anchor="start" x="8" y="-95" font-family="Helvetica,sans-Serif" font-size="10.00">/realm/realm&#45;src/src/realm</text>
<text text-anchor="middle" x="73" y="-84" font-family="Helvetica,sans-Serif" font-size="10.00">/transfer/lowlevel_dma.h</text>
</a>
</g>
</g>
<!-- Node3&#45;&gt;Node10 -->
<g id="edge13_Node000003_Node000010" class="edge">
<title>Node3&#45;&gt;Node10</title>
<g id="a_edge13_Node000003_Node000010"><a xlink:title=" ">
<path fill="none" stroke="#63b8ff" d="M624.07,-230.62C499.26,-200.69 265.13,-144.56 146.26,-116.06"/>
<polygon fill="#63b8ff" stroke="#63b8ff" points="623.42,-234.06 633.96,-232.99 625.05,-227.25 623.42,-234.06"/>
</a>
</g>
</g>
<!-- Node5 -->
<g id="Node000005" class="node">
<title>Node5</title>
<g id="a_Node000005"><a xlink:href="cuda__internal_8h.html" target="_top" xlink:title=" ">
<polygon fill="white" stroke="#666666" points="1024,-118 878,-118 878,-77 1024,-77 1024,-118"/>
<text text-anchor="start" x="886" y="-106" font-family="Helvetica,sans-Serif" font-size="10.00">/home/runner/work/realm</text>
<text text-anchor="start" x="886" y="-95" font-family="Helvetica,sans-Serif" font-size="10.00">/realm/realm&#45;src/src/realm</text>
<text text-anchor="middle" x="951" y="-84" font-family="Helvetica,sans-Serif" font-size="10.00">/cuda/cuda_internal.h</text>
</a>
</g>
</g>
<!-- Node4&#45;&gt;Node5 -->
<g id="edge4_Node000004_Node000005" class="edge">
<title>Node4&#45;&gt;Node5</title>
<g id="a_edge4_Node000004_Node000005"><a xlink:title=" ">
<path fill="none" stroke="#63b8ff" d="M691.27,-156.32C742.58,-145.61 809.68,-131.36 869,-118 871.86,-117.36 874.76,-116.7 877.7,-116.02"/>
<polygon fill="#63b8ff" stroke="#63b8ff" points="690.3,-152.95 681.23,-158.42 691.73,-159.8 690.3,-152.95"/>
</a>
</g>
</g>
<!-- Node6 -->
<g id="Node000006" class="node">
<title>Node6</title>
<g id="a_Node000006"><a xlink:href="hdf5__internal_8h.html" target="_top" xlink:title=" ">
<polygon fill="white" stroke="#666666" points="575,-41 429,-41 429,0 575,0 575,-41"/>
<text text-anchor="start" x="437" y="-29" font-family="Helvetica,sans-Serif" font-size="10.00">/home/runner/work/realm</text>
<text text-anchor="start" x="437" y="-18" font-family="Helvetica,sans-Serif" font-size="10.00">/realm/realm&#45;src/src/realm</text>
<text text-anchor="middle" x="502" y="-7" font-family="Helvetica,sans-Serif" font-size="10.00">/hdf5/hdf5_internal.h</text>
</a>
</g>
</g>
<!-- Node4&#45;&gt;Node6 -->
<g id="edge5_Node000004_Node000006" class="edge">
<title>Node4&#45;&gt;Node6</title>
<g id="a_edge5_Node000004_Node000006"><a xlink:title=" ">
<path fill="none" stroke="#63b8ff" d="M553.93,-148.51C541.44,-140.41 529.37,-130.27 521,-118 505.31,-95.01 501.9,-62.17 501.49,-41.35"/>
<polygon fill="#63b8ff" stroke="#63b8ff" points="552.25,-151.59 562.61,-153.8 555.89,-145.61 552.25,-151.59"/>
</a>
</g>
</g>
<!-- Node7 -->
<g id="Node000007" class="node">
<title>Node7</title>
<g id="a_Node000007"><a xlink:href="hip__internal_8h.html" target="_top" xlink:title=" ">
<polygon fill="white" stroke="#666666" points="1688,-118 1542,-118 1542,-77 1688,-77 1688,-118"/>
<text text-anchor="start" x="1550" y="-106" font-family="Helvetica,sans-Serif" font-size="10.00">/home/runner/work/realm</text>
<text text-anchor="start" x="1550" y="-95" font-family="Helvetica,sans-Serif" font-size="10.00">/realm/realm&#45;src/src/realm</text>
<text text-anchor="middle" x="1615" y="-84" font-family="Helvetica,sans-Serif" font-size="10.00">/hip/hip_internal.h</text>
</a>
</g>
</g>
<!-- Node4&#45;&gt;Node7 -->
<g id="edge6_Node000004_Node000007" class="edge">
<title>Node4&#45;&gt;Node7</title>
<g id="a_edge6_Node000004_Node000007"><a xlink:title=" ">
<path fill="none" stroke="#63b8ff" d="M691.06,-167.81C750.16,-163.81 831.45,-158.41 903,-154 1182.93,-136.75 1255.5,-158.6 1533,-118 1535.9,-117.58 1538.84,-117.1 1541.81,-116.58"/>
<polygon fill="#63b8ff" stroke="#63b8ff" points="690.77,-164.32 681.03,-168.49 691.24,-171.31 690.77,-164.32"/>
</a>
</g>
</g>
<!-- Node8 -->
<g id="Node000008" class="node">
<title>Node8</title>
<g id="a_Node000008"><a xlink:href="addrsplit__channel_8h.html" target="_top" xlink:title=" ">
<polygon fill="white" stroke="#666666" points="686,-118 530,-118 530,-77 686,-77 686,-118"/>
<text text-anchor="start" x="538" y="-106" font-family="Helvetica,sans-Serif" font-size="10.00">/home/runner/work/realm</text>
<text text-anchor="start" x="538" y="-95" font-family="Helvetica,sans-Serif" font-size="10.00">/realm/realm&#45;src/src/realm</text>
<text text-anchor="middle" x="608" y="-84" font-family="Helvetica,sans-Serif" font-size="10.00">/transfer/addrsplit_channel.h</text>
</a>
</g>
</g>
<!-- Node4&#45;&gt;Node8 -->
<g id="edge7_Node000004_Node000008" class="edge">
<title>Node4&#45;&gt;Node8</title>
<g id="a_edge7_Node000004_Node000008"><a xlink:title=" ">
<path fill="none" stroke="#63b8ff" d="M608,-143.69C608,-135.08 608,-125.9 608,-118.07"/>
<polygon fill="#63b8ff" stroke="#63b8ff" points="604.5,-143.79 608,-153.79 611.5,-143.79 604.5,-143.79"/>
</a>
</g>
</g>
<!-- Node9 -->
<g id="Node000009" class="node">
<title>Node9</title>
<g id="a_Node000009"><a xlink:href="channel__disk_8h.html" target="_top" xlink:title=" ">
<polygon fill="white" stroke="#666666" points="310,-118 164,-118 164,-77 310,-77 310,-118"/>
<text text-anchor="start" x="172" y="-106" font-family="Helvetica,sans-Serif" font-size="10.00">/home/runner/work/realm</text>
<text text-anchor="start" x="172" y="-95" font-family="Helvetica,sans-Serif" font-size="10.00">/realm/realm&#45;src/src/realm</text>
<text text-anchor="middle" x="237" y="-84" font-family="Helvetica,sans-Serif" font-size="10.00">/transfer/channel_disk.h</text>
</a>
</g>
</g>
<!-- Node4&#45;&gt;Node9 -->
<g id="edge8_Node000004_Node000009" class="edge">
<title>Node4&#45;&gt;Node9</title>
<g id="a_edge8_Node000004_Node000009"><a xlink:title=" ">
<path fill="none" stroke="#63b8ff" d="M524.59,-158.48C466.76,-147.82 388.03,-132.83 319,-118 316.14,-117.39 313.22,-116.75 310.28,-116.09"/>
<polygon fill="#63b8ff" stroke="#63b8ff" points="524.31,-161.99 534.77,-160.35 525.57,-155.1 524.31,-161.99"/>
</a>
</g>
</g>
<!-- Node4&#45;&gt;Node10 -->
<g id="edge9_Node000004_Node000010" class="edge">
<title>Node4&#45;&gt;Node10</title>
<g id="a_edge9_Node000004_Node000010"><a xlink:title=" ">
<path fill="none" stroke="#63b8ff" d="M524.65,-166.1C433.46,-157.35 283.16,-141.02 155,-118 152.12,-117.48 149.19,-116.93 146.23,-116.34"/>
<polygon fill="#63b8ff" stroke="#63b8ff" points="524.37,-169.59 534.66,-167.05 525.03,-162.62 524.37,-169.59"/>
</a>
</g>
</g>
<!-- Node11 -->
<g id="Node000011" class="node">
<title>Node11</title>
<g id="a_Node000011"><a xlink:href="memcpy__channel_8h.html" target="_top" xlink:title=" ">
<polygon fill="white" stroke="#666666" points="860,-118 704,-118 704,-77 860,-77 860,-118"/>
<text text-anchor="start" x="712" y="-106" font-family="Helvetica,sans-Serif" font-size="10.00">/home/runner/work/realm</text>
<text text-anchor="start" x="712" y="-95" font-family="Helvetica,sans-Serif" font-size="10.00">/realm/realm&#45;src/src/realm</text>
<text text-anchor="middle" x="782" y="-84" font-family="Helvetica,sans-Serif" font-size="10.00">/transfer/memcpy_channel.h</text>
</a>
</g>
</g>
<!-- Node4&#45;&gt;Node11 -->
<g id="edge11_Node000004_Node000011" class="edge">
<title>Node4&#45;&gt;Node11</title>
<g id="a_edge11_Node000004_Node000011"><a xlink:title=" ">
<path fill="none" stroke="#63b8ff" d="M662.53,-150C686.36,-139.72 713.98,-127.82 736.66,-118.04"/>
<polygon fill="#63b8ff" stroke="#63b8ff" points="661.06,-146.82 653.26,-153.99 663.83,-153.25 661.06,-146.82"/>
</a>
</g>
</g>
<!-- Node12 -->
<g id="Node000012" class="node">
<title>Node12</title>
<g id="a_Node000012"><a xlink:href="transfer_8h.html" target="_top" xlink:title=" ">
<polygon fill="white" stroke="#666666" points="474,-118 328,-118 328,-77 474,-77 474,-118"/>
<text text-anchor="start" x="336" y="-106" font-family="Helvetica,sans-Serif" font-size="10.00">/home/runner/work/realm</text>
<text text-anchor="start" x="336" y="-95" font-family="Helvetica,sans-Serif" font-size="10.00">/realm/realm&#45;src/src/realm</text>
<text text-anchor="middle" x="401" y="-84" font-family="Helvetica,sans-Serif" font-size="10.00">/transfer/transfer.h</text>
</a>
</g>
</g>
<!-- Node4&#45;&gt;Node12 -->
<g id="edge12_Node000004_Node000012" class="edge">
<title>Node4&#45;&gt;Node12</title>
<g id="a_edge12_Node000004_Node000012"><a xlink:title=" ">
<path fill="none" stroke="#63b8ff" d="M544.63,-150.54C515.94,-140.15 482.39,-127.99 454.94,-118.04"/>
<polygon fill="#63b8ff" stroke="#63b8ff" points="543.56,-153.87 554.15,-153.99 545.94,-147.29 543.56,-153.87"/>
</a>
</g>
</g>
<!-- Node10&#45;&gt;Node6 -->
<g id="edge10_Node000010_Node000006" class="edge">
<title>Node10&#45;&gt;Node6</title>
<g id="a_edge10_Node000010_Node000006"><a xlink:title=" ">
<path fill="none" stroke="#63b8ff" d="M156.22,-76.82C256.11,-57.25 360.79,-41.32 428.94,-31.56"/>
<polygon fill="#63b8ff" stroke="#63b8ff" points="155.39,-73.42 146.26,-78.79 156.75,-80.29 155.39,-73.42"/>
</a>
</g>
</g>
<!-- Node13&#45;&gt;Node3 -->
<g id="edge18_Node000013_Node000003" class="edge">
<title>Node13&#45;&gt;Node3</title>
<g id="a_edge18_Node000013_Node000003"><a xlink:title=" ">
<path fill="none" stroke="#63b8ff" d="M828.53,-304C804.29,-293.72 776.19,-281.82 753.12,-272.04"/>
<polygon fill="#63b8ff" stroke="#63b8ff" points="827.38,-307.31 837.96,-307.99 830.12,-300.87 827.38,-307.31"/>
</a>
</g>
</g>
<!-- Node13&#45;&gt;Node4 -->
<g id="edge19_Node000013_Node000004" class="edge">
<title>Node13&#45;&gt;Node4</title>
<g id="a_edge19_Node000013_Node000004"><a xlink:title=" ">
<path fill="none" stroke="#63b8ff" d="M858.28,-300.02C833.02,-273.27 797.14,-235.94 789,-231 756.12,-211.05 715.49,-197.74 681.06,-189.18"/>
<polygon fill="#63b8ff" stroke="#63b8ff" points="856,-302.72 865.41,-307.59 861.1,-297.92 856,-302.72"/>
</a>
</g>
</g>
<!-- Node13&#45;&gt;Node5 -->
<g id="edge15_Node000013_Node000005" class="edge">
<title>Node13&#45;&gt;Node5</title>
<g id="a_edge15_Node000013_Node000005"><a xlink:title=" ">
<path fill="none" stroke="#63b8ff" d="M882.01,-297.57C880.8,-261.86 882.48,-201.07 903,-154 908.85,-140.57 919.13,-128.01 928.68,-118.24"/>
<polygon fill="#63b8ff" stroke="#63b8ff" points="878.53,-297.97 882.46,-307.8 885.52,-297.66 878.53,-297.97"/>
</a>
</g>
</g>
<!-- Node13&#45;&gt;Node6 -->
<g id="edge16_Node000013_Node000006" class="edge">
<title>Node13&#45;&gt;Node6</title>
<g id="a_edge16_Node000013_Node000006"><a xlink:title=" ">
<path fill="none" stroke="#63b8ff" d="M967.17,-327.91C1214.19,-326.63 1913.14,-303.41 1697,-77 1658.17,-36.32 829.39,-24.75 575.36,-22.15"/>
<polygon fill="#63b8ff" stroke="#63b8ff" points="967.15,-324.41 957.17,-327.96 967.18,-331.41 967.15,-324.41"/>
</a>
</g>
</g>
<!-- Node13&#45;&gt;Node7 -->
<g id="edge17_Node000013_Node000007" class="edge">
<title>Node13&#45;&gt;Node7</title>
<g id="a_edge17_Node000013_Node000007"><a xlink:title=" ">
<path fill="none" stroke="#63b8ff" d="M967.34,-313.67C1020.65,-303.98 1091,-289.63 1152,-272 1308.68,-226.71 1487.83,-153.08 1569.79,-118.12"/>
<polygon fill="#63b8ff" stroke="#63b8ff" points="966.48,-310.27 957.26,-315.48 967.72,-317.16 966.48,-310.27"/>
</a>
</g>
</g>
<!-- Node13&#45;&gt;Node11 -->
<g id="edge24_Node000013_Node000011" class="edge">
<title>Node13&#45;&gt;Node11</title>
<g id="a_edge24_Node000013_Node000011"><a xlink:title=" ">
<path fill="none" stroke="#63b8ff" d="M871.14,-298.62C850.1,-251.39 808.87,-158.83 790.82,-118.3"/>
<polygon fill="#63b8ff" stroke="#63b8ff" points="868.04,-300.26 875.3,-307.98 874.43,-297.42 868.04,-300.26"/>
</a>
</g>
</g>
<!-- Node14 -->
<g id="Node000014" class="node">
<title>Node14</title>
<g id="a_Node000014"><a xlink:href="ib__memory_8h.html" target="_top" xlink:title=" ">
<polygon fill="white" stroke="#666666" points="1143,-272 997,-272 997,-231 1143,-231 1143,-272"/>
<text text-anchor="start" x="1005" y="-260" font-family="Helvetica,sans-Serif" font-size="10.00">/home/runner/work/realm</text>
<text text-anchor="start" x="1005" y="-249" font-family="Helvetica,sans-Serif" font-size="10.00">/realm/realm&#45;src/src/realm</text>
<text text-anchor="middle" x="1070" y="-238" font-family="Helvetica,sans-Serif" font-size="10.00">/transfer/ib_memory.h</text>
</a>
</g>
</g>
<!-- Node13&#45;&gt;Node14 -->
<g id="edge20_Node000013_Node000014" class="edge">
<title>Node13&#45;&gt;Node14</title>
<g id="a_edge20_Node000013_Node000014"><a xlink:title=" ">
<path fill="none" stroke="#63b8ff" d="M941.95,-304.13C967.5,-293.83 997.19,-281.86 1021.54,-272.04"/>
<polygon fill="#63b8ff" stroke="#63b8ff" points="940.35,-301 932.38,-307.99 942.97,-307.5 940.35,-301"/>
</a>
</g>
</g>
<!-- Node15 -->
<g id="Node000015" class="node">
<title>Node15</title>
<g id="a_Node000015"><a xlink:href="ucp__internal_8h.html" target="_top" xlink:title=" ">
<polygon fill="white" stroke="#666666" points="1058,-195 912,-195 912,-154 1058,-154 1058,-195"/>
<text text-anchor="start" x="920" y="-183" font-family="Helvetica,sans-Serif" font-size="10.00">/home/runner/work/realm</text>
<text text-anchor="start" x="920" y="-172" font-family="Helvetica,sans-Serif" font-size="10.00">/realm/realm&#45;src/src/realm</text>
<text text-anchor="middle" x="985" y="-161" font-family="Helvetica,sans-Serif" font-size="10.00">/ucx/ucp_internal.h</text>
</a>
</g>
</g>
<!-- Node13&#45;&gt;Node15 -->
<g id="edge25_Node000013_Node000015" class="edge">
<title>Node13&#45;&gt;Node15</title>
<g id="a_edge25_Node000013_Node000015"><a xlink:title=" ">
<path fill="none" stroke="#63b8ff" d="M902.58,-299.54C922.62,-269.38 954.04,-222.1 971.73,-195.47"/>
<polygon fill="#63b8ff" stroke="#63b8ff" points="899.62,-297.67 897,-307.94 905.45,-301.55 899.62,-297.67"/>
</a>
</g>
</g>
<!-- Node14&#45;&gt;Node5 -->
<g id="edge21_Node000014_Node000005" class="edge">
<title>Node14&#45;&gt;Node5</title>
<g id="a_edge21_Node000014_Node000005"><a xlink:title=" ">
<path fill="none" stroke="#63b8ff" d="M1076.63,-220.97C1079.51,-200.54 1079.79,-173.61 1067,-154 1056.51,-137.92 1039.98,-126.38 1022.65,-118.14"/>
<polygon fill="#63b8ff" stroke="#63b8ff" points="1073.15,-220.55 1074.93,-230.99 1080.05,-221.71 1073.15,-220.55"/>
</a>
</g>
</g>
<!-- Node14&#45;&gt;Node7 -->
<g id="edge22_Node000014_Node000007" class="edge">
<title>Node14&#45;&gt;Node7</title>
<g id="a_edge22_Node000014_Node000007"><a xlink:title=" ">
<path fill="none" stroke="#63b8ff" d="M1149.87,-228.22C1256.39,-198.52 1443.27,-146.39 1544.7,-118.11"/>
<polygon fill="#63b8ff" stroke="#63b8ff" points="1148.83,-224.88 1140.13,-230.94 1150.71,-231.62 1148.83,-224.88"/>
</a>
</g>
</g>
<!-- Node14&#45;&gt;Node15 -->
<g id="edge23_Node000014_Node000015" class="edge">
<title>Node14&#45;&gt;Node15</title>
<g id="a_edge23_Node000014_Node000015"><a xlink:title=" ">
<path fill="none" stroke="#63b8ff" d="M1040.05,-224.07C1029.23,-214.52 1017.22,-203.93 1007.18,-195.07"/>
<polygon fill="#63b8ff" stroke="#63b8ff" points="1037.85,-226.8 1047.67,-230.79 1042.48,-221.55 1037.85,-226.8"/>
</a>
</g>
</g>
<!-- Node16&#45;&gt;Node5 -->
<g id="edge27_Node000016_Node000005" class="edge">
<title>Node16&#45;&gt;Node5</title>
<g id="a_edge27_Node000016_Node000005"><a xlink:title=" ">
<path fill="none" stroke="#63b8ff" d="M1116.03,-150.94C1083.05,-140.46 1044.2,-128.12 1012.49,-118.04"/>
<polygon fill="#63b8ff" stroke="#63b8ff" points="1115.02,-154.3 1125.61,-153.99 1117.14,-147.63 1115.02,-154.3"/>
</a>
</g>
</g>
<!-- Node16&#45;&gt;Node7 -->
<g id="edge28_Node000016_Node000007" class="edge">
<title>Node16&#45;&gt;Node7</title>
<g id="a_edge28_Node000016_Node000007"><a xlink:title=" ">
<path fill="none" stroke="#63b8ff" d="M1270.31,-161.91C1340.59,-151.71 1443.71,-135.75 1533,-118 1535.87,-117.43 1538.79,-116.83 1541.74,-116.21"/>
<polygon fill="#63b8ff" stroke="#63b8ff" points="1269.58,-158.48 1260.18,-163.38 1270.58,-165.41 1269.58,-158.48"/>
</a>
</g>
</g>
<!-- Node17 -->
<g id="Node000017" class="node">
<title>Node17</title>
<g id="a_Node000017"><a xlink:href="kokkos__interop_8h.html" target="_top" xlink:title=" ">
<polygon fill="white" stroke="#666666" points="1188,-118 1042,-118 1042,-77 1188,-77 1188,-118"/>
<text text-anchor="start" x="1050" y="-106" font-family="Helvetica,sans-Serif" font-size="10.00">/home/runner/work/realm</text>
<text text-anchor="start" x="1050" y="-95" font-family="Helvetica,sans-Serif" font-size="10.00">/realm/realm&#45;src/src/realm</text>
<text text-anchor="middle" x="1115" y="-84" font-family="Helvetica,sans-Serif" font-size="10.00">/kokkos/kokkos_interop.h</text>
</a>
</g>
</g>
<!-- Node16&#45;&gt;Node17 -->
<g id="edge29_Node000016_Node000017" class="edge">
<title>Node16&#45;&gt;Node17</title>
<g id="a_edge29_Node000016_Node000017"><a xlink:title=" ">
<path fill="none" stroke="#63b8ff" d="M1161.09,-146.51C1152.07,-137.11 1142.13,-126.76 1133.79,-118.07"/>
<polygon fill="#63b8ff" stroke="#63b8ff" points="1158.63,-149 1168.08,-153.79 1163.68,-144.16 1158.63,-149"/>
</a>
</g>
</g>
<!-- Node18 -->
<g id="Node000018" class="node">
<title>Node18</title>
<g id="a_Node000018"><a xlink:href="openmp__internal_8h.html" target="_top" xlink:title=" ">
<polygon fill="white" stroke="#666666" points="1360,-118 1206,-118 1206,-77 1360,-77 1360,-118"/>
<text text-anchor="start" x="1214" y="-106" font-family="Helvetica,sans-Serif" font-size="10.00">/home/runner/work/realm</text>
<text text-anchor="start" x="1214" y="-95" font-family="Helvetica,sans-Serif" font-size="10.00">/realm/realm&#45;src/src/realm</text>
<text text-anchor="middle" x="1283" y="-84" font-family="Helvetica,sans-Serif" font-size="10.00">/openmp/openmp_internal.h</text>
</a>
</g>
</g>
<!-- Node16&#45;&gt;Node18 -->
<g id="edge30_Node000016_Node000018" class="edge">
<title>Node16&#45;&gt;Node18</title>
<g id="a_edge30_Node000016_Node000018"><a xlink:title=" ">
<path fill="none" stroke="#63b8ff" d="M1219.88,-147.82C1232.29,-138.11 1246.22,-127.24 1257.82,-118.17"/>
<polygon fill="#63b8ff" stroke="#63b8ff" points="1217.7,-145.08 1211.97,-153.99 1222.01,-150.59 1217.7,-145.08"/>
</a>
</g>
</g>
<!-- Node19 -->
<g id="Node000019" class="node">
<title>Node19</title>
<g id="a_Node000019"><a xlink:href="python__internal_8h.html" target="_top" xlink:title=" ">
<polygon fill="white" stroke="#666666" points="1524,-118 1378,-118 1378,-77 1524,-77 1524,-118"/>
<text text-anchor="start" x="1386" y="-106" font-family="Helvetica,sans-Serif" font-size="10.00">/home/runner/work/realm</text>
<text text-anchor="start" x="1386" y="-95" font-family="Helvetica,sans-Serif" font-size="10.00">/realm/realm&#45;src/src/realm</text>
<text text-anchor="middle" x="1451" y="-84" font-family="Helvetica,sans-Serif" font-size="10.00">/python/python_internal.h</text>
</a>
</g>
</g>
<!-- Node16&#45;&gt;Node19 -->
<g id="edge31_Node000016_Node000019" class="edge">
<title>Node16&#45;&gt;Node19</title>
<g id="a_edge31_Node000016_Node000019"><a xlink:title=" ">
<path fill="none" stroke="#63b8ff" d="M1265.45,-151.21C1302.54,-140.68 1346.43,-128.21 1382.21,-118.04"/>
<polygon fill="#63b8ff" stroke="#63b8ff" points="1264.34,-147.89 1255.67,-153.99 1266.25,-154.62 1264.34,-147.89"/>
</a>
</g>
</g>
<!-- Node20&#45;&gt;Node4 -->
<g id="edge34_Node000020_Node000004" class="edge">
<title>Node20&#45;&gt;Node4</title>
<g id="a_edge34_Node000020_Node000004"><a xlink:title=" ">
<path fill="none" stroke="#63b8ff" d="M566.63,-223.23C574.71,-213.91 583.59,-203.67 591.04,-195.07"/>
<polygon fill="#63b8ff" stroke="#63b8ff" points="563.98,-220.95 560.08,-230.79 569.27,-225.53 563.98,-220.95"/>
</a>
</g>
</g>
<!-- Node20&#45;&gt;Node10 -->
<g id="edge35_Node000020_Node000010" class="edge">
<title>Node20&#45;&gt;Node10</title>
<g id="a_edge35_Node000020_Node000010"><a xlink:title=" ">
<path fill="none" stroke="#63b8ff" d="M460,-236.02C411.31,-226.52 348.96,-212.59 295,-195 228.87,-173.44 155.46,-139.43 111.82,-118.07"/>
<polygon fill="#63b8ff" stroke="#63b8ff" points="459.37,-239.46 469.86,-237.92 460.7,-232.59 459.37,-239.46"/>
</a>
</g>
</g>
<!-- Node20&#45;&gt;Node16 -->
<g id="edge33_Node000020_Node000016" class="edge">
<title>Node20&#45;&gt;Node16</title>
<g id="a_edge33_Node000020_Node000016"><a xlink:title=" ">
<path fill="none" stroke="#63b8ff" d="M626.22,-230.94C821.42,-200.72 874.6,-218.43 1067,-195 1082.19,-193.15 1098.4,-190.78 1113.84,-188.34"/>
<polygon fill="#63b8ff" stroke="#63b8ff" points="625.54,-227.5 616.21,-232.51 626.63,-234.41 625.54,-227.5"/>
</a>
</g>
</g>
<!-- Node22 -->
<g id="Node000022" class="node">
<title>Node22</title>
<g id="a_Node000022"><a xlink:href="subgraph__impl_8h.html" target="_top" xlink:title=" ">
<polygon fill="white" stroke="#666666" points="616,-349 470,-349 470,-308 616,-308 616,-349"/>
<text text-anchor="start" x="478" y="-337" font-family="Helvetica,sans-Serif" font-size="10.00">/home/runner/work/realm</text>
<text text-anchor="start" x="478" y="-326" font-family="Helvetica,sans-Serif" font-size="10.00">/realm/realm&#45;src/src/realm</text>
<text text-anchor="middle" x="543" y="-315" font-family="Helvetica,sans-Serif" font-size="10.00">/subgraph_impl.h</text>
</a>
</g>
</g>
<!-- Node21&#45;&gt;Node22 -->
<g id="edge37_Node000021_Node000022" class="edge">
<title>Node21&#45;&gt;Node22</title>
<g id="a_edge37_Node000021_Node000022"><a xlink:title=" ">
<path fill="none" stroke="#63b8ff" d="M543,-374.69C543,-366.08 543,-356.9 543,-349.07"/>
<polygon fill="#63b8ff" stroke="#63b8ff" points="539.5,-374.79 543,-384.79 546.5,-374.79 539.5,-374.79"/>
</a>
</g>
</g>
<!-- Node22&#45;&gt;Node20 -->
<g id="edge38_Node000022_Node000020" class="edge">
<title>Node22&#45;&gt;Node20</title>
<g id="a_edge38_Node000022_Node000020"><a xlink:title=" ">
<path fill="none" stroke="#63b8ff" d="M543,-297.69C543,-289.08 543,-279.9 543,-272.07"/>
<polygon fill="#63b8ff" stroke="#63b8ff" points="539.5,-297.79 543,-307.79 546.5,-297.79 539.5,-297.79"/>
</a>
</g>
</g>
</g>
</svg>
