<?xml version="1.0" encoding="UTF-8" standalone="no"?>
<!DOCTYPE svg PUBLIC "-//W3C//DTD SVG 1.1//EN"
 "http://www.w3.org/Graphics/SVG/1.1/DTD/svg11.dtd">
<!-- Generated by graphviz version 2.43.0 (0)
 -->
<!-- Title: /home/runner/work/realm/realm/realm&#45;src/src/realm/reservation.h Pages: 1 -->
<svg width="1354pt" height="665pt"
 viewBox="0.00 0.00 1354.00 665.00" xmlns="http://www.w3.org/2000/svg" xmlns:xlink="http://www.w3.org/1999/xlink">
<g id="graph0" class="graph" transform="scale(1 1) rotate(0) translate(4 661)">
<title>/home/runner/work/realm/realm/realm&#45;src/src/realm/reservation.h</title>
<!-- Node1 -->
<g id="Node000001" class="node">
<title>Node1</title>
<g id="a_Node000001"><a xlink:title=" ">
<polygon fill="#999999" stroke="#666666" points="259,-657 113,-657 113,-616 259,-616 259,-657"/>
<text text-anchor="start" x="121" y="-645" font-family="Helvetica,sans-Serif" font-size="10.00">/home/runner/work/realm</text>
<text text-anchor="start" x="121" y="-634" font-family="Helvetica,sans-Serif" font-size="10.00">/realm/realm&#45;src/src/realm</text>
<text text-anchor="middle" x="186" y="-623" font-family="Helvetica,sans-Serif" font-size="10.00">/reservation.h</text>
</a>
</g>
</g>
<!-- Node2 -->
<g id="Node000002" class="node">
<title>Node2</title>
<g id="a_Node000002"><a xlink:href="rsrv__impl_8h.html" target="_top" xlink:title=" ">
<polygon fill="white" stroke="#666666" points="347,-580 201,-580 201,-539 347,-539 347,-580"/>
<text text-anchor="start" x="209" y="-568" font-family="Helvetica,sans-Serif" font-size="10.00">/home/runner/work/realm</text>
<text text-anchor="start" x="209" y="-557" font-family="Helvetica,sans-Serif" font-size="10.00">/realm/realm&#45;src/src/realm</text>
<text text-anchor="middle" x="274" y="-546" font-family="Helvetica,sans-Serif" font-size="10.00">/rsrv_impl.h</text>
</a>
</g>
</g>
<!-- Node1&#45;&gt;Node2 -->
<g id="edge1_Node000001_Node000002" class="edge">
<title>Node1&#45;&gt;Node2</title>
<g id="a_edge1_Node000001_Node000002"><a xlink:title=" ">
<path fill="none" stroke="#63b8ff" d="M217.01,-609.07C228.21,-599.52 240.65,-588.93 251.03,-580.07"/>
<polygon fill="#63b8ff" stroke="#63b8ff" points="214.46,-606.64 209.12,-615.79 219,-611.97 214.46,-606.64"/>
</a>
</g>
</g>
<!-- Node21 -->
<g id="Node000021" class="node">
<title>Node21</title>
<g id="a_Node000021"><a xlink:href="subgraph_8h.html" target="_top" xlink:title=" ">
<polygon fill="white" stroke="#666666" points="177,-580 31,-580 31,-539 177,-539 177,-580"/>
<text text-anchor="start" x="39" y="-568" font-family="Helvetica,sans-Serif" font-size="10.00">/home/runner/work/realm</text>
<text text-anchor="start" x="39" y="-557" font-family="Helvetica,sans-Serif" font-size="10.00">/realm/realm&#45;src/src/realm</text>
<text text-anchor="middle" x="104" y="-546" font-family="Helvetica,sans-Serif" font-size="10.00">/subgraph.h</text>
</a>
</g>
</g>
<!-- Node1&#45;&gt;Node21 -->
<g id="edge37_Node000001_Node000021" class="edge">
<title>Node1&#45;&gt;Node21</title>
<g id="a_edge37_Node000001_Node000021"><a xlink:title=" ">
<path fill="none" stroke="#63b8ff" d="M156.8,-608.79C146.44,-599.32 134.99,-588.84 125.4,-580.07"/>
<polygon fill="#63b8ff" stroke="#63b8ff" points="154.71,-611.63 164.46,-615.79 159.44,-606.46 154.71,-611.63"/>
</a>
</g>
</g>
<!-- Node3 -->
<g id="Node000003" class="node">
<title>Node3</title>
<g id="a_Node000003"><a xlink:href="inst__impl_8h.html" target="_top" xlink:title=" ">
<polygon fill="white" stroke="#666666" points="486,-426 340,-426 340,-385 486,-385 486,-426"/>
<text text-anchor="start" x="348" y="-414" font-family="Helvetica,sans-Serif" font-size="10.00">/home/runner/work/realm</text>
<text text-anchor="start" x="348" y="-403" font-family="Helvetica,sans-Serif" font-size="10.00">/realm/realm&#45;src/src/realm</text>
<text text-anchor="middle" x="413" y="-392" font-family="Helvetica,sans-Serif" font-size="10.00">/inst_impl.h</text>
</a>
</g>
</g>
<!-- Node2&#45;&gt;Node3 -->
<g id="edge2_Node000002_Node000003" class="edge">
<title>Node2&#45;&gt;Node3</title>
<g id="a_edge2_Node000002_Node000003"><a xlink:title=" ">
<path fill="none" stroke="#63b8ff" d="M298.86,-531.32C326.41,-501.19 370.18,-453.33 394.74,-426.47"/>
<polygon fill="#63b8ff" stroke="#63b8ff" points="296.05,-529.2 291.89,-538.94 301.22,-533.92 296.05,-529.2"/>
</a>
</g>
</g>
<!-- Node13 -->
<g id="Node000013" class="node">
<title>Node13</title>
<g id="a_Node000013"><a xlink:href="runtime__impl_8h.html" target="_top" xlink:title=" ">
<polygon fill="white" stroke="#666666" points="372,-195 226,-195 226,-154 372,-154 372,-195"/>
<text text-anchor="start" x="234" y="-183" font-family="Helvetica,sans-Serif" font-size="10.00">/home/runner/work/realm</text>
<text text-anchor="start" x="234" y="-172" font-family="Helvetica,sans-Serif" font-size="10.00">/realm/realm&#45;src/src/realm</text>
<text text-anchor="middle" x="299" y="-161" font-family="Helvetica,sans-Serif" font-size="10.00">/runtime_impl.h</text>
</a>
</g>
</g>
<!-- Node2&#45;&gt;Node13 -->
<g id="edge36_Node000002_Node000013" class="edge">
<title>Node2&#45;&gt;Node13</title>
<g id="a_edge36_Node000002_Node000013"><a xlink:title=" ">
<path fill="none" stroke="#63b8ff" d="M274,-528.8C274,-498.16 274,-448.99 274,-406.5 274,-406.5 274,-406.5 274,-327.5 274,-279.36 286.36,-223.77 293.7,-195.01"/>
<polygon fill="#63b8ff" stroke="#63b8ff" points="270.5,-528.82 274,-538.82 277.5,-528.82 270.5,-528.82"/>
</a>
</g>
</g>
<!-- Node14 -->
<g id="Node000014" class="node">
<title>Node14</title>
<g id="a_Node000014"><a xlink:href="proc__impl_8h.html" target="_top" xlink:title=" ">
<polygon fill="white" stroke="#666666" points="347,-118 201,-118 201,-77 347,-77 347,-118"/>
<text text-anchor="start" x="209" y="-106" font-family="Helvetica,sans-Serif" font-size="10.00">/home/runner/work/realm</text>
<text text-anchor="start" x="209" y="-95" font-family="Helvetica,sans-Serif" font-size="10.00">/realm/realm&#45;src/src/realm</text>
<text text-anchor="middle" x="274" y="-84" font-family="Helvetica,sans-Serif" font-size="10.00">/proc_impl.h</text>
</a>
</g>
</g>
<!-- Node2&#45;&gt;Node14 -->
<g id="edge35_Node000002_Node000014" class="edge">
<title>Node2&#45;&gt;Node14</title>
<g id="a_edge35_Node000002_Node000014"><a xlink:title=" ">
<path fill="none" stroke="#63b8ff" d="M250.41,-530.92C228.1,-501.93 198,-454.03 198,-406.5 198,-406.5 198,-406.5 198,-250.5 198,-206.79 196.17,-192.43 217,-154 224.5,-140.16 236.63,-127.64 247.77,-118.01"/>
<polygon fill="#63b8ff" stroke="#63b8ff" points="247.8,-533.26 256.75,-538.93 253.29,-528.92 247.8,-533.26"/>
</a>
</g>
</g>
<!-- Node18 -->
<g id="Node000018" class="node">
<title>Node18</title>
<g id="a_Node000018"><a xlink:href="mem__impl_8h.html" target="_top" xlink:title=" ">
<polygon fill="white" stroke="#666666" points="1087,-503 941,-503 941,-462 1087,-462 1087,-503"/>
<text text-anchor="start" x="949" y="-491" font-family="Helvetica,sans-Serif" font-size="10.00">/home/runner/work/realm</text>
<text text-anchor="start" x="949" y="-480" font-family="Helvetica,sans-Serif" font-size="10.00">/realm/realm&#45;src/src/realm</text>
<text text-anchor="middle" x="1014" y="-469" font-family="Helvetica,sans-Serif" font-size="10.00">/mem_impl.h</text>
</a>
</g>
</g>
<!-- Node2&#45;&gt;Node18 -->
<g id="edge23_Node000002_Node000018" class="edge">
<title>Node2&#45;&gt;Node18</title>
<g id="a_edge23_Node000002_Node000018"><a xlink:title=" ">
<path fill="none" stroke="#63b8ff" d="M357.56,-550.03C503.52,-535.24 802.52,-504.93 940.83,-490.92"/>
<polygon fill="#63b8ff" stroke="#63b8ff" points="356.92,-546.58 347.32,-551.07 357.62,-553.54 356.92,-546.58"/>
</a>
</g>
</g>
<!-- Node4 -->
<g id="Node000004" class="node">
<title>Node4</title>
<g id="a_Node000004"><a xlink:href="channel_8h.html" target="_top" xlink:title=" ">
<polygon fill="white" stroke="#666666" points="937,-349 791,-349 791,-308 937,-308 937,-349"/>
<text text-anchor="start" x="799" y="-337" font-family="Helvetica,sans-Serif" font-size="10.00">/home/runner/work/realm</text>
<text text-anchor="start" x="799" y="-326" font-family="Helvetica,sans-Serif" font-size="10.00">/realm/realm&#45;src/src/realm</text>
<text text-anchor="middle" x="864" y="-315" font-family="Helvetica,sans-Serif" font-size="10.00">/transfer/channel.h</text>
</a>
</g>
</g>
<!-- Node3&#45;&gt;Node4 -->
<g id="edge3_Node000003_Node000004" class="edge">
<title>Node3&#45;&gt;Node4</title>
<g id="a_edge3_Node000003_Node000004"><a xlink:title=" ">
<path fill="none" stroke="#63b8ff" d="M496.29,-390.65C580.76,-376.6 710.22,-355.07 790.85,-341.66"/>
<polygon fill="#63b8ff" stroke="#63b8ff" points="495.5,-387.23 486.21,-392.32 496.65,-394.14 495.5,-387.23"/>
</a>
</g>
</g>
<!-- Node10 -->
<g id="Node000010" class="node">
<title>Node10</title>
<g id="a_Node000010"><a xlink:href="lowlevel__dma_8h.html" target="_top" xlink:title=" ">
<polygon fill="white" stroke="#666666" points="511,-118 365,-118 365,-77 511,-77 511,-118"/>
<text text-anchor="start" x="373" y="-106" font-family="Helvetica,sans-Serif" font-size="10.00">/home/runner/work/realm</text>
<text text-anchor="start" x="373" y="-95" font-family="Helvetica,sans-Serif" font-size="10.00">/realm/realm&#45;src/src/realm</text>
<text text-anchor="middle" x="438" y="-84" font-family="Helvetica,sans-Serif" font-size="10.00">/transfer/lowlevel_dma.h</text>
</a>
</g>
</g>
<!-- Node3&#45;&gt;Node10 -->
<g id="edge21_Node000003_Node000010" class="edge">
<title>Node3&#45;&gt;Node10</title>
<g id="a_edge21_Node000003_Node000010"><a xlink:title=" ">
<path fill="none" stroke="#63b8ff" d="M425.68,-375.4C436.44,-349 451.06,-308.71 457,-272 465.97,-216.51 451.97,-150.34 443.57,-118.1"/>
<polygon fill="#63b8ff" stroke="#63b8ff" points="422.38,-374.22 421.77,-384.8 428.84,-376.91 422.38,-374.22"/>
</a>
</g>
</g>
<!-- Node12 -->
<g id="Node000012" class="node">
<title>Node12</title>
<g id="a_Node000012"><a xlink:href="transfer_8h.html" target="_top" xlink:title=" ">
<polygon fill="white" stroke="#666666" points="448,-272 302,-272 302,-231 448,-231 448,-272"/>
<text text-anchor="start" x="310" y="-260" font-family="Helvetica,sans-Serif" font-size="10.00">/home/runner/work/realm</text>
<text text-anchor="start" x="310" y="-249" font-family="Helvetica,sans-Serif" font-size="10.00">/realm/realm&#45;src/src/realm</text>
<text text-anchor="middle" x="375" y="-238" font-family="Helvetica,sans-Serif" font-size="10.00">/transfer/transfer.h</text>
</a>
</g>
</g>
<!-- Node3&#45;&gt;Node12 -->
<g id="edge22_Node000003_Node000012" class="edge">
<title>Node3&#45;&gt;Node12</title>
<g id="a_edge22_Node000003_Node000012"><a xlink:title=" ">
<path fill="none" stroke="#63b8ff" d="M405.62,-374.98C398.07,-344.76 386.54,-298.64 379.99,-272.47"/>
<polygon fill="#63b8ff" stroke="#63b8ff" points="402.29,-376.09 408.11,-384.94 409.08,-374.39 402.29,-376.09"/>
</a>
</g>
</g>
<!-- Node5 -->
<g id="Node000005" class="node">
<title>Node5</title>
<g id="a_Node000005"><a xlink:href="cuda__internal_8h.html" target="_top" xlink:title=" ">
<polygon fill="white" stroke="#666666" points="1110,-41 964,-41 964,0 1110,0 1110,-41"/>
<text text-anchor="start" x="972" y="-29" font-family="Helvetica,sans-Serif" font-size="10.00">/home/runner/work/realm</text>
<text text-anchor="start" x="972" y="-18" font-family="Helvetica,sans-Serif" font-size="10.00">/realm/realm&#45;src/src/realm</text>
<text text-anchor="middle" x="1037" y="-7" font-family="Helvetica,sans-Serif" font-size="10.00">/cuda/cuda_internal.h</text>
</a>
</g>
</g>
<!-- Node4&#45;&gt;Node5 -->
<g id="edge4_Node000004_Node000005" class="edge">
<title>Node4&#45;&gt;Node5</title>
<g id="a_edge4_Node000004_Node000005"><a xlink:title=" ">
<path fill="none" stroke="#63b8ff" d="M909.26,-302.04C921.13,-293.69 933.09,-283.54 942,-272 998.99,-198.18 1024.98,-86.33 1033.58,-41.31"/>
<polygon fill="#63b8ff" stroke="#63b8ff" points="907.02,-299.32 900.67,-307.8 910.92,-305.14 907.02,-299.32"/>
</a>
</g>
</g>
<!-- Node6 -->
<g id="Node000006" class="node">
<title>Node6</title>
<g id="a_Node000006"><a xlink:href="hdf5__internal_8h.html" target="_top" xlink:title=" ">
<polygon fill="white" stroke="#666666" points="646,-41 500,-41 500,0 646,0 646,-41"/>
<text text-anchor="start" x="508" y="-29" font-family="Helvetica,sans-Serif" font-size="10.00">/home/runner/work/realm</text>
<text text-anchor="start" x="508" y="-18" font-family="Helvetica,sans-Serif" font-size="10.00">/realm/realm&#45;src/src/realm</text>
<text text-anchor="middle" x="573" y="-7" font-family="Helvetica,sans-Serif" font-size="10.00">/hdf5/hdf5_internal.h</text>
</a>
</g>
</g>
<!-- Node4&#45;&gt;Node6 -->
<g id="edge5_Node000004_Node000006" class="edge">
<title>Node4&#45;&gt;Node6</title>
<g id="a_edge5_Node000004_Node000006"><a xlink:title=" ">
<path fill="none" stroke="#63b8ff" d="M892.19,-300.21C899.02,-291.87 905.39,-282.19 909,-272 915.09,-254.82 917.84,-246.93 909,-231 851.71,-127.76 720.06,-68.75 639.61,-41.09"/>
<polygon fill="#63b8ff" stroke="#63b8ff" points="889.53,-297.94 885.58,-307.77 894.8,-302.55 889.53,-297.94"/>
</a>
</g>
</g>
<!-- Node7 -->
<g id="Node000007" class="node">
<title>Node7</title>
<g id="a_Node000007"><a xlink:href="hip__internal_8h.html" target="_top" xlink:title=" ">
<polygon fill="white" stroke="#666666" points="1346,-41 1200,-41 1200,0 1346,0 1346,-41"/>
<text text-anchor="start" x="1208" y="-29" font-family="Helvetica,sans-Serif" font-size="10.00">/home/runner/work/realm</text>
<text text-anchor="start" x="1208" y="-18" font-family="Helvetica,sans-Serif" font-size="10.00">/realm/realm&#45;src/src/realm</text>
<text text-anchor="middle" x="1273" y="-7" font-family="Helvetica,sans-Serif" font-size="10.00">/hip/hip_internal.h</text>
</a>
</g>
</g>
<!-- Node4&#45;&gt;Node7 -->
<g id="edge6_Node000004_Node000007" class="edge">
<title>Node4&#45;&gt;Node7</title>
<g id="a_edge6_Node000004_Node000007"><a xlink:title=" ">
<path fill="none" stroke="#63b8ff" d="M914.76,-303.31C932.38,-294.23 951.98,-283.34 969,-272 998.81,-252.14 1183.42,-97.02 1249.5,-41.33"/>
<polygon fill="#63b8ff" stroke="#63b8ff" points="913.08,-300.24 905.75,-307.89 916.25,-306.48 913.08,-300.24"/>
</a>
</g>
</g>
<!-- Node8 -->
<g id="Node000008" class="node">
<title>Node8</title>
<g id="a_Node000008"><a xlink:href="addrsplit__channel_8h.html" target="_top" xlink:title=" ">
<polygon fill="white" stroke="#666666" points="736,-272 580,-272 580,-231 736,-231 736,-272"/>
<text text-anchor="start" x="588" y="-260" font-family="Helvetica,sans-Serif" font-size="10.00">/home/runner/work/realm</text>
<text text-anchor="start" x="588" y="-249" font-family="Helvetica,sans-Serif" font-size="10.00">/realm/realm&#45;src/src/realm</text>
<text text-anchor="middle" x="658" y="-238" font-family="Helvetica,sans-Serif" font-size="10.00">/transfer/addrsplit_channel.h</text>
</a>
</g>
</g>
<!-- Node4&#45;&gt;Node8 -->
<g id="edge7_Node000004_Node000008" class="edge">
<title>Node4&#45;&gt;Node8</title>
<g id="a_edge7_Node000004_Node000008"><a xlink:title=" ">
<path fill="none" stroke="#63b8ff" d="M800.93,-304.54C772.39,-294.15 739,-281.99 711.68,-272.04"/>
<polygon fill="#63b8ff" stroke="#63b8ff" points="799.82,-307.86 810.41,-307.99 802.21,-301.28 799.82,-307.86"/>
</a>
</g>
</g>
<!-- Node9 -->
<g id="Node000009" class="node">
<title>Node9</title>
<g id="a_Node000009"><a xlink:href="channel__disk_8h.html" target="_top" xlink:title=" ">
<polygon fill="white" stroke="#666666" points="900,-272 754,-272 754,-231 900,-231 900,-272"/>
<text text-anchor="start" x="762" y="-260" font-family="Helvetica,sans-Serif" font-size="10.00">/home/runner/work/realm</text>
<text text-anchor="start" x="762" y="-249" font-family="Helvetica,sans-Serif" font-size="10.00">/realm/realm&#45;src/src/realm</text>
<text text-anchor="middle" x="827" y="-238" font-family="Helvetica,sans-Serif" font-size="10.00">/transfer/channel_disk.h</text>
</a>
</g>
</g>
<!-- Node4&#45;&gt;Node9 -->
<g id="edge8_Node000004_Node000009" class="edge">
<title>Node4&#45;&gt;Node9</title>
<g id="a_edge8_Node000004_Node000009"><a xlink:title=" ">
<path fill="none" stroke="#63b8ff" d="M849.72,-298.55C845.34,-289.69 840.64,-280.15 836.66,-272.07"/>
<polygon fill="#63b8ff" stroke="#63b8ff" points="846.72,-300.38 854.28,-307.79 852.99,-297.28 846.72,-300.38"/>
</a>
</g>
</g>
<!-- Node4&#45;&gt;Node10 -->
<g id="edge9_Node000004_Node000010" class="edge">
<title>Node4&#45;&gt;Node10</title>
<g id="a_edge9_Node000004_Node000010"><a xlink:title=" ">
<path fill="none" stroke="#63b8ff" d="M780.51,-318.84C706.42,-309.88 604.85,-294.09 571,-272 517.73,-237.23 529.86,-203.57 490,-154 479.99,-141.55 467.82,-128.47 457.78,-118.14"/>
<polygon fill="#63b8ff" stroke="#63b8ff" points="780.42,-322.35 790.77,-320.06 781.25,-315.4 780.42,-322.35"/>
</a>
</g>
</g>
<!-- Node11 -->
<g id="Node000011" class="node">
<title>Node11</title>
<g id="a_Node000011"><a xlink:href="memcpy__channel_8h.html" target="_top" xlink:title=" ">
<polygon fill="white" stroke="#666666" points="1188,-272 1032,-272 1032,-231 1188,-231 1188,-272"/>
<text text-anchor="start" x="1040" y="-260" font-family="Helvetica,sans-Serif" font-size="10.00">/home/runner/work/realm</text>
<text text-anchor="start" x="1040" y="-249" font-family="Helvetica,sans-Serif" font-size="10.00">/realm/realm&#45;src/src/realm</text>
<text text-anchor="middle" x="1110" y="-238" font-family="Helvetica,sans-Serif" font-size="10.00">/transfer/memcpy_channel.h</text>
</a>
</g>
</g>
<!-- Node4&#45;&gt;Node11 -->
<g id="edge11_Node000004_Node000011" class="edge">
<title>Node4&#45;&gt;Node11</title>
<g id="a_edge11_Node000004_Node000011"><a xlink:title=" ">
<path fill="none" stroke="#63b8ff" d="M937.98,-304.94C972.36,-294.46 1012.85,-282.12 1045.9,-272.04"/>
<polygon fill="#63b8ff" stroke="#63b8ff" points="936.54,-301.73 927.99,-307.99 938.58,-308.42 936.54,-301.73"/>
</a>
</g>
</g>
<!-- Node4&#45;&gt;Node12 -->
<g id="edge12_Node000004_Node000012" class="edge">
<title>Node4&#45;&gt;Node12</title>
<g id="a_edge12_Node000004_Node000012"><a xlink:title=" ">
<path fill="none" stroke="#63b8ff" d="M780.82,-314.74C687.46,-300.42 537.43,-277.41 448.31,-263.74"/>
<polygon fill="#63b8ff" stroke="#63b8ff" points="780.38,-318.22 790.79,-316.27 781.44,-311.3 780.38,-318.22"/>
</a>
</g>
</g>
<!-- Node10&#45;&gt;Node6 -->
<g id="edge10_Node000010_Node000006" class="edge">
<title>Node10&#45;&gt;Node6</title>
<g id="a_edge10_Node000010_Node000006"><a xlink:title=" ">
<path fill="none" stroke="#63b8ff" d="M482.25,-71.92C500.2,-61.95 520.65,-50.58 537.59,-41.17"/>
<polygon fill="#63b8ff" stroke="#63b8ff" points="480.16,-69.07 473.12,-76.99 483.56,-75.19 480.16,-69.07"/>
</a>
</g>
</g>
<!-- Node12&#45;&gt;Node13 -->
<g id="edge13_Node000012_Node000013" class="edge">
<title>Node12&#45;&gt;Node13</title>
<g id="a_edge13_Node000012_Node000013"><a xlink:title=" ">
<path fill="none" stroke="#63b8ff" d="M347.65,-223.51C338.13,-214.11 327.63,-203.76 318.83,-195.07"/>
<polygon fill="#63b8ff" stroke="#63b8ff" points="345.46,-226.26 355.03,-230.79 350.37,-221.28 345.46,-226.26"/>
</a>
</g>
</g>
<!-- Node13&#45;&gt;Node10 -->
<g id="edge20_Node000013_Node000010" class="edge">
<title>Node13&#45;&gt;Node10</title>
<g id="a_edge20_Node000013_Node000010"><a xlink:title=" ">
<path fill="none" stroke="#63b8ff" d="M344.05,-149.19C362.65,-139.15 383.94,-127.67 401.54,-118.17"/>
<polygon fill="#63b8ff" stroke="#63b8ff" points="342.3,-146.16 335.16,-153.99 345.62,-152.32 342.3,-146.16"/>
</a>
</g>
</g>
<!-- Node13&#45;&gt;Node14 -->
<g id="edge14_Node000013_Node000014" class="edge">
<title>Node13&#45;&gt;Node14</title>
<g id="a_edge14_Node000013_Node000014"><a xlink:title=" ">
<path fill="none" stroke="#63b8ff" d="M289.25,-144.26C286.33,-135.48 283.19,-126.07 280.52,-118.07"/>
<polygon fill="#63b8ff" stroke="#63b8ff" points="285.95,-145.41 292.43,-153.79 292.59,-143.2 285.95,-145.41"/>
</a>
</g>
</g>
<!-- Node14&#45;&gt;Node5 -->
<g id="edge15_Node000014_Node000005" class="edge">
<title>Node14&#45;&gt;Node5</title>
<g id="a_edge15_Node000014_Node000005"><a xlink:title=" ">
<path fill="none" stroke="#63b8ff" d="M357.26,-76.93C583.19,-41.77 840.36,-28.52 963.75,-23.82"/>
<polygon fill="#63b8ff" stroke="#63b8ff" points="356.54,-73.5 347.21,-78.51 357.63,-80.41 356.54,-73.5"/>
</a>
</g>
</g>
<!-- Node14&#45;&gt;Node7 -->
<g id="edge16_Node000014_Node000007" class="edge">
<title>Node14&#45;&gt;Node7</title>
<g id="a_edge16_Node000014_Node000007"><a xlink:title=" ">
<path fill="none" stroke="#63b8ff" d="M357.22,-76.98C693.91,-30.31 784.09,-70.06 1119,-41 1145.45,-38.71 1174.34,-35.29 1199.88,-31.96"/>
<polygon fill="#63b8ff" stroke="#63b8ff" points="356.61,-73.53 347.19,-78.38 357.58,-80.46 356.61,-73.53"/>
</a>
</g>
</g>
<!-- Node15 -->
<g id="Node000015" class="node">
<title>Node15</title>
<g id="a_Node000015"><a xlink:href="kokkos__interop_8h.html" target="_top" xlink:title=" ">
<polygon fill="white" stroke="#666666" points="146,-41 0,-41 0,0 146,0 146,-41"/>
<text text-anchor="start" x="8" y="-29" font-family="Helvetica,sans-Serif" font-size="10.00">/home/runner/work/realm</text>
<text text-anchor="start" x="8" y="-18" font-family="Helvetica,sans-Serif" font-size="10.00">/realm/realm&#45;src/src/realm</text>
<text text-anchor="middle" x="73" y="-7" font-family="Helvetica,sans-Serif" font-size="10.00">/kokkos/kokkos_interop.h</text>
</a>
</g>
</g>
<!-- Node14&#45;&gt;Node15 -->
<g id="edge17_Node000014_Node000015" class="edge">
<title>Node14&#45;&gt;Node15</title>
<g id="a_edge17_Node000014_Node000015"><a xlink:title=" ">
<path fill="none" stroke="#63b8ff" d="M212.1,-73.4C184.33,-63.04 151.92,-50.95 125.37,-41.04"/>
<polygon fill="#63b8ff" stroke="#63b8ff" points="211.12,-76.77 221.71,-76.99 213.57,-70.22 211.12,-76.77"/>
</a>
</g>
</g>
<!-- Node16 -->
<g id="Node000016" class="node">
<title>Node16</title>
<g id="a_Node000016"><a xlink:href="openmp__internal_8h.html" target="_top" xlink:title=" ">
<polygon fill="white" stroke="#666666" points="318,-41 164,-41 164,0 318,0 318,-41"/>
<text text-anchor="start" x="172" y="-29" font-family="Helvetica,sans-Serif" font-size="10.00">/home/runner/work/realm</text>
<text text-anchor="start" x="172" y="-18" font-family="Helvetica,sans-Serif" font-size="10.00">/realm/realm&#45;src/src/realm</text>
<text text-anchor="middle" x="241" y="-7" font-family="Helvetica,sans-Serif" font-size="10.00">/openmp/openmp_internal.h</text>
</a>
</g>
</g>
<!-- Node14&#45;&gt;Node16 -->
<g id="edge18_Node000014_Node000016" class="edge">
<title>Node14&#45;&gt;Node16</title>
<g id="a_edge18_Node000014_Node000016"><a xlink:title=" ">
<path fill="none" stroke="#63b8ff" d="M261.26,-67.55C257.36,-58.69 253.17,-49.15 249.61,-41.07"/>
<polygon fill="#63b8ff" stroke="#63b8ff" points="258.1,-69.05 265.33,-76.79 264.51,-66.23 258.1,-69.05"/>
</a>
</g>
</g>
<!-- Node17 -->
<g id="Node000017" class="node">
<title>Node17</title>
<g id="a_Node000017"><a xlink:href="python__internal_8h.html" target="_top" xlink:title=" ">
<polygon fill="white" stroke="#666666" points="482,-41 336,-41 336,0 482,0 482,-41"/>
<text text-anchor="start" x="344" y="-29" font-family="Helvetica,sans-Serif" font-size="10.00">/home/runner/work/realm</text>
<text text-anchor="start" x="344" y="-18" font-family="Helvetica,sans-Serif" font-size="10.00">/realm/realm&#45;src/src/realm</text>
<text text-anchor="middle" x="409" y="-7" font-family="Helvetica,sans-Serif" font-size="10.00">/python/python_internal.h</text>
</a>
</g>
</g>
<!-- Node14&#45;&gt;Node17 -->
<g id="edge19_Node000014_Node000017" class="edge">
<title>Node14&#45;&gt;Node17</title>
<g id="a_edge19_Node000014_Node000017"><a xlink:title=" ">
<path fill="none" stroke="#63b8ff" d="M318.25,-71.92C336.2,-61.95 356.65,-50.58 373.59,-41.17"/>
<polygon fill="#63b8ff" stroke="#63b8ff" points="316.16,-69.07 309.12,-76.99 319.56,-75.19 316.16,-69.07"/>
</a>
</g>
</g>
<!-- Node18&#45;&gt;Node3 -->
<g id="edge27_Node000018_Node000003" class="edge">
<title>Node18&#45;&gt;Node3</title>
<g id="a_edge27_Node000018_Node000003"><a xlink:title=" ">
<path fill="none" stroke="#63b8ff" d="M930.63,-475.41C828.63,-467.29 650.89,-450.97 500,-426 495.57,-425.27 491.03,-424.45 486.46,-423.58"/>
<polygon fill="#63b8ff" stroke="#63b8ff" points="930.63,-478.92 940.87,-476.22 931.18,-471.94 930.63,-478.92"/>
</a>
</g>
</g>
<!-- Node18&#45;&gt;Node4 -->
<g id="edge28_Node000018_Node000004" class="edge">
<title>Node18&#45;&gt;Node4</title>
<g id="a_edge28_Node000018_Node000004"><a xlink:title=" ">
<path fill="none" stroke="#63b8ff" d="M987.55,-454.7C957.85,-424.6 910.32,-376.44 883.71,-349.47"/>
<polygon fill="#63b8ff" stroke="#63b8ff" points="985.18,-457.28 994.7,-461.94 990.16,-452.36 985.18,-457.28"/>
</a>
</g>
</g>
<!-- Node18&#45;&gt;Node5 -->
<g id="edge24_Node000018_Node000005" class="edge">
<title>Node18&#45;&gt;Node5</title>
<g id="a_edge24_Node000018_Node000005"><a xlink:title=" ">
<path fill="none" stroke="#63b8ff" d="M1020.19,-452.01C1029.98,-407.99 1050.11,-328.09 1071,-308 1112.98,-267.63 1161.93,-318.5 1197,-272 1258.84,-190.02 1127.86,-84.12 1066.46,-41.03"/>
<polygon fill="#63b8ff" stroke="#63b8ff" points="1016.75,-451.34 1018.03,-461.86 1023.59,-452.84 1016.75,-451.34"/>
</a>
</g>
</g>
<!-- Node18&#45;&gt;Node6 -->
<g id="edge25_Node000018_Node000006" class="edge">
<title>Node18&#45;&gt;Node6</title>
<g id="a_edge25_Node000018_Node000006"><a xlink:title=" ">
<path fill="none" stroke="#63b8ff" d="M930.76,-473.51C788.54,-457.54 514,-415.55 514,-329.5 514,-329.5 514,-329.5 514,-250.5 514,-170.85 547.88,-80.41 564.29,-41.27"/>
<polygon fill="#63b8ff" stroke="#63b8ff" points="930.44,-477 940.76,-474.62 931.21,-470.04 930.44,-477"/>
</a>
</g>
</g>
<!-- Node18&#45;&gt;Node7 -->
<g id="edge26_Node000018_Node000007" class="edge">
<title>Node18&#45;&gt;Node7</title>
<g id="a_edge26_Node000018_Node000007"><a xlink:title=" ">
<path fill="none" stroke="#63b8ff" d="M1097.5,-474.88C1171.28,-467.38 1271.6,-452.57 1301,-426 1334.22,-395.97 1330,-374.28 1330,-329.5 1330,-329.5 1330,-329.5 1330,-173.5 1330,-123.33 1302.44,-69.44 1285.65,-41.26"/>
<polygon fill="#63b8ff" stroke="#63b8ff" points="1096.88,-471.43 1087.28,-475.89 1097.57,-478.39 1096.88,-471.43"/>
</a>
</g>
</g>
<!-- Node18&#45;&gt;Node11 -->
<g id="edge33_Node000018_Node000011" class="edge">
<title>Node18&#45;&gt;Node11</title>
<g id="a_edge33_Node000018_Node000011"><a xlink:title=" ">
<path fill="none" stroke="#63b8ff" d="M1011.53,-451.29C1009.98,-414.82 1012,-352.81 1038,-308 1046.48,-293.39 1060.44,-281.3 1073.83,-272.17"/>
<polygon fill="#63b8ff" stroke="#63b8ff" points="1008.06,-451.95 1012.11,-461.74 1015.05,-451.57 1008.06,-451.95"/>
</a>
</g>
</g>
<!-- Node19 -->
<g id="Node000019" class="node">
<title>Node19</title>
<g id="a_Node000019"><a xlink:href="ib__memory_8h.html" target="_top" xlink:title=" ">
<polygon fill="white" stroke="#666666" points="1292,-426 1146,-426 1146,-385 1292,-385 1292,-426"/>
<text text-anchor="start" x="1154" y="-414" font-family="Helvetica,sans-Serif" font-size="10.00">/home/runner/work/realm</text>
<text text-anchor="start" x="1154" y="-403" font-family="Helvetica,sans-Serif" font-size="10.00">/realm/realm&#45;src/src/realm</text>
<text text-anchor="middle" x="1219" y="-392" font-family="Helvetica,sans-Serif" font-size="10.00">/transfer/ib_memory.h</text>
</a>
</g>
</g>
<!-- Node18&#45;&gt;Node19 -->
<g id="edge29_Node000018_Node000019" class="edge">
<title>Node18&#45;&gt;Node19</title>
<g id="a_edge29_Node000018_Node000019"><a xlink:title=" ">
<path fill="none" stroke="#63b8ff" d="M1076.76,-458.54C1105.17,-448.15 1138.39,-435.99 1165.59,-426.04"/>
<polygon fill="#63b8ff" stroke="#63b8ff" points="1075.51,-455.27 1067.33,-461.99 1077.92,-461.84 1075.51,-455.27"/>
</a>
</g>
</g>
<!-- Node20 -->
<g id="Node000020" class="node">
<title>Node20</title>
<g id="a_Node000020"><a xlink:href="ucp__internal_8h.html" target="_top" xlink:title=" ">
<polygon fill="white" stroke="#666666" points="1226,-349 1080,-349 1080,-308 1226,-308 1226,-349"/>
<text text-anchor="start" x="1088" y="-337" font-family="Helvetica,sans-Serif" font-size="10.00">/home/runner/work/realm</text>
<text text-anchor="start" x="1088" y="-326" font-family="Helvetica,sans-Serif" font-size="10.00">/realm/realm&#45;src/src/realm</text>
<text text-anchor="middle" x="1153" y="-315" font-family="Helvetica,sans-Serif" font-size="10.00">/ucx/ucp_internal.h</text>
</a>
</g>
</g>
<!-- Node18&#45;&gt;Node20 -->
<g id="edge34_Node000018_Node000020" class="edge">
<title>Node18&#45;&gt;Node20</title>
<g id="a_edge34_Node000018_Node000020"><a xlink:title=" ">
<path fill="none" stroke="#63b8ff" d="M1039.72,-454.25C1048.14,-445.29 1057.5,-435.25 1066,-426 1090.27,-399.59 1117.95,-368.76 1135.45,-349.19"/>
<polygon fill="#63b8ff" stroke="#63b8ff" points="1036.92,-452.12 1032.62,-461.81 1042.02,-456.92 1036.92,-452.12"/>
</a>
</g>
</g>
<!-- Node19&#45;&gt;Node5 -->
<g id="edge30_Node000019_Node000005" class="edge">
<title>Node19&#45;&gt;Node5</title>
<g id="a_edge30_Node000019_Node000005"><a xlink:title=" ">
<path fill="none" stroke="#63b8ff" d="M1229.14,-375.09C1231.55,-366.76 1233.78,-357.61 1235,-349 1237.55,-330.96 1235.59,-326.21 1235,-308 1231.61,-203.62 1261.99,-154.51 1192,-77 1170.93,-53.66 1139.35,-40.14 1110.18,-32.29"/>
<polygon fill="#63b8ff" stroke="#63b8ff" points="1225.76,-374.17 1226.16,-384.76 1232.45,-376.23 1225.76,-374.17"/>
</a>
</g>
</g>
<!-- Node19&#45;&gt;Node7 -->
<g id="edge31_Node000019_Node000007" class="edge">
<title>Node19&#45;&gt;Node7</title>
<g id="a_edge31_Node000019_Node000007"><a xlink:title=" ">
<path fill="none" stroke="#63b8ff" d="M1247.41,-377.55C1255.04,-369.05 1262.65,-359.19 1268,-349 1288.55,-309.87 1292,-296.7 1292,-252.5 1292,-252.5 1292,-252.5 1292,-173.5 1292,-125.63 1282.61,-69.93 1277.03,-41.08"/>
<polygon fill="#63b8ff" stroke="#63b8ff" points="1244.76,-375.27 1240.47,-384.96 1249.86,-380.06 1244.76,-375.27"/>
</a>
</g>
</g>
<!-- Node19&#45;&gt;Node20 -->
<g id="edge32_Node000019_Node000020" class="edge">
<title>Node19&#45;&gt;Node20</title>
<g id="a_edge32_Node000019_Node000020"><a xlink:title=" ">
<path fill="none" stroke="#63b8ff" d="M1195.01,-377.23C1186.8,-367.91 1177.79,-357.67 1170.22,-349.07"/>
<polygon fill="#63b8ff" stroke="#63b8ff" points="1192.43,-379.6 1201.66,-384.79 1197.68,-374.98 1192.43,-379.6"/>
</a>
</g>
</g>
<!-- Node22 -->
<g id="Node000022" class="node">
<title>Node22</title>
<g id="a_Node000022"><a xlink:href="subgraph__impl_8h.html" target="_top" xlink:title=" ">
<polygon fill="white" stroke="#666666" points="170,-503 24,-503 24,-462 170,-462 170,-503"/>
<text text-anchor="start" x="32" y="-491" font-family="Helvetica,sans-Serif" font-size="10.00">/home/runner/work/realm</text>
<text text-anchor="start" x="32" y="-480" font-family="Helvetica,sans-Serif" font-size="10.00">/realm/realm&#45;src/src/realm</text>
<text text-anchor="middle" x="97" y="-469" font-family="Helvetica,sans-Serif" font-size="10.00">/subgraph_impl.h</text>
</a>
</g>
</g>
<!-- Node21&#45;&gt;Node22 -->
<g id="edge38_Node000021_Node000022" class="edge">
<title>Node21&#45;&gt;Node22</title>
<g id="a_edge38_Node000021_Node000022"><a xlink:title=" ">
<path fill="none" stroke="#63b8ff" d="M101.22,-528.69C100.41,-520.08 99.56,-510.9 98.83,-503.07"/>
<polygon fill="#63b8ff" stroke="#63b8ff" points="97.75,-529.16 102.16,-538.79 104.72,-528.51 97.75,-529.16"/>
</a>
</g>
</g>
<!-- Node22&#45;&gt;Node13 -->
<g id="edge39_Node000022_Node000013" class="edge">
<title>Node22&#45;&gt;Node13</title>
<g id="a_edge39_Node000022_Node000013"><a xlink:title=" ">
<path fill="none" stroke="#63b8ff" d="M114.95,-453.2C144.63,-406.57 206.04,-310.78 260,-231 268.12,-219 277.44,-205.72 284.93,-195.16"/>
<polygon fill="#63b8ff" stroke="#63b8ff" points="111.86,-451.54 109.45,-461.86 117.77,-455.3 111.86,-451.54"/>
</a>
</g>
</g>
</g>
</svg>
