<?xml version="1.0" encoding="UTF-8" standalone="no"?>
<!DOCTYPE svg PUBLIC "-//W3C//DTD SVG 1.1//EN"
 "http://www.w3.org/Graphics/SVG/1.1/DTD/svg11.dtd">
<!-- Generated by graphviz version 2.43.0 (0)
 -->
<!-- Title: /home/runner/work/realm/realm/realm&#45;src/src/realm/rsrv_impl.h Pages: 1 -->
<svg width="1365pt" height="588pt"
 viewBox="0.00 0.00 1365.17 588.00" xmlns="http://www.w3.org/2000/svg" xmlns:xlink="http://www.w3.org/1999/xlink">
<g id="graph0" class="graph" transform="scale(1 1) rotate(0) translate(4 584)">
<title>/home/runner/work/realm/realm/realm&#45;src/src/realm/rsrv_impl.h</title>
<!-- Node1 -->
<g id="Node000001" class="node">
<title>Node1</title>
<g id="a_Node000001"><a xlink:title=" ">
<polygon fill="#999999" stroke="#666666" points="418,-580 272,-580 272,-539 418,-539 418,-580"/>
<text text-anchor="start" x="280" y="-568" font-family="Helvetica,sans-Serif" font-size="10.00">/home/runner/work/realm</text>
<text text-anchor="start" x="280" y="-557" font-family="Helvetica,sans-Serif" font-size="10.00">/realm/realm&#45;src/src/realm</text>
<text text-anchor="middle" x="345" y="-546" font-family="Helvetica,sans-Serif" font-size="10.00">/rsrv_impl.h</text>
</a>
</g>
</g>
<!-- Node2 -->
<g id="Node000002" class="node">
<title>Node2</title>
<g id="a_Node000002"><a xlink:href="inst__impl_8h.html" target="_top" xlink:title=" ">
<polygon fill="white" stroke="#666666" points="488,-426 342,-426 342,-385 488,-385 488,-426"/>
<text text-anchor="start" x="350" y="-414" font-family="Helvetica,sans-Serif" font-size="10.00">/home/runner/work/realm</text>
<text text-anchor="start" x="350" y="-403" font-family="Helvetica,sans-Serif" font-size="10.00">/realm/realm&#45;src/src/realm</text>
<text text-anchor="middle" x="415" y="-392" font-family="Helvetica,sans-Serif" font-size="10.00">/inst_impl.h</text>
</a>
</g>
</g>
<!-- Node1&#45;&gt;Node2 -->
<g id="edge1_Node000001_Node000002" class="edge">
<title>Node1&#45;&gt;Node2</title>
<g id="a_edge1_Node000001_Node000002"><a xlink:title=" ">
<path fill="none" stroke="#63b8ff" d="M358.23,-529.76C372.14,-499.57 393.65,-452.87 405.8,-426.47"/>
<polygon fill="#63b8ff" stroke="#63b8ff" points="355.01,-528.39 354.01,-538.94 361.37,-531.32 355.01,-528.39"/>
</a>
</g>
</g>
<!-- Node12 -->
<g id="Node000012" class="node">
<title>Node12</title>
<g id="a_Node000012"><a xlink:href="runtime__impl_8h.html" target="_top" xlink:title=" ">
<polygon fill="white" stroke="#666666" points="355,-195 209,-195 209,-154 355,-154 355,-195"/>
<text text-anchor="start" x="217" y="-183" font-family="Helvetica,sans-Serif" font-size="10.00">/home/runner/work/realm</text>
<text text-anchor="start" x="217" y="-172" font-family="Helvetica,sans-Serif" font-size="10.00">/realm/realm&#45;src/src/realm</text>
<text text-anchor="middle" x="282" y="-161" font-family="Helvetica,sans-Serif" font-size="10.00">/runtime_impl.h</text>
</a>
</g>
</g>
<!-- Node1&#45;&gt;Node12 -->
<g id="edge35_Node000001_Node000012" class="edge">
<title>Node1&#45;&gt;Node12</title>
<g id="a_edge35_Node000001_Node000012"><a xlink:title=" ">
<path fill="none" stroke="#63b8ff" d="M323.32,-530.19C303.09,-500.89 276,-452.99 276,-406.5 276,-406.5 276,-406.5 276,-327.5 276,-279.96 278.97,-224.13 280.73,-195.17"/>
<polygon fill="#63b8ff" stroke="#63b8ff" points="320.7,-532.54 329.34,-538.66 326.4,-528.48 320.7,-532.54"/>
</a>
</g>
</g>
<!-- Node13 -->
<g id="Node000013" class="node">
<title>Node13</title>
<g id="a_Node000013"><a xlink:href="proc__impl_8h.html" target="_top" xlink:title=" ">
<polygon fill="white" stroke="#666666" points="355,-118 209,-118 209,-77 355,-77 355,-118"/>
<text text-anchor="start" x="217" y="-106" font-family="Helvetica,sans-Serif" font-size="10.00">/home/runner/work/realm</text>
<text text-anchor="start" x="217" y="-95" font-family="Helvetica,sans-Serif" font-size="10.00">/realm/realm&#45;src/src/realm</text>
<text text-anchor="middle" x="282" y="-84" font-family="Helvetica,sans-Serif" font-size="10.00">/proc_impl.h</text>
</a>
</g>
</g>
<!-- Node1&#45;&gt;Node13 -->
<g id="edge34_Node000001_Node000013" class="edge">
<title>Node1&#45;&gt;Node13</title>
<g id="a_edge34_Node000001_Node000013"><a xlink:title=" ">
<path fill="none" stroke="#63b8ff" d="M288.57,-534.29C241.13,-509.71 181,-466.68 181,-406.5 181,-406.5 181,-406.5 181,-250.5 181,-206.79 175.86,-190.44 200,-154 209.87,-139.1 225.26,-127.14 240.05,-118.2"/>
<polygon fill="#63b8ff" stroke="#63b8ff" points="287.06,-537.45 297.56,-538.82 290.2,-531.2 287.06,-537.45"/>
</a>
</g>
</g>
<!-- Node17 -->
<g id="Node000017" class="node">
<title>Node17</title>
<g id="a_Node000017"><a xlink:href="mem__impl_8h.html" target="_top" xlink:title=" ">
<polygon fill="white" stroke="#666666" points="1023,-503 877,-503 877,-462 1023,-462 1023,-503"/>
<text text-anchor="start" x="885" y="-491" font-family="Helvetica,sans-Serif" font-size="10.00">/home/runner/work/realm</text>
<text text-anchor="start" x="885" y="-480" font-family="Helvetica,sans-Serif" font-size="10.00">/realm/realm&#45;src/src/realm</text>
<text text-anchor="middle" x="950" y="-469" font-family="Helvetica,sans-Serif" font-size="10.00">/mem_impl.h</text>
</a>
</g>
</g>
<!-- Node1&#45;&gt;Node17 -->
<g id="edge22_Node000001_Node000017" class="edge">
<title>Node1&#45;&gt;Node17</title>
<g id="a_edge22_Node000001_Node000017"><a xlink:title=" ">
<path fill="none" stroke="#63b8ff" d="M428.43,-548.16C547.38,-533.41 763.82,-506.58 876.85,-492.57"/>
<polygon fill="#63b8ff" stroke="#63b8ff" points="427.77,-544.71 418.28,-549.42 428.63,-551.66 427.77,-544.71"/>
</a>
</g>
</g>
<!-- Node3 -->
<g id="Node000003" class="node">
<title>Node3</title>
<g id="a_Node000003"><a xlink:href="channel_8h.html" target="_top" xlink:title=" ">
<polygon fill="white" stroke="#666666" points="817,-349 671,-349 671,-308 817,-308 817,-349"/>
<text text-anchor="start" x="679" y="-337" font-family="Helvetica,sans-Serif" font-size="10.00">/home/runner/work/realm</text>
<text text-anchor="start" x="679" y="-326" font-family="Helvetica,sans-Serif" font-size="10.00">/realm/realm&#45;src/src/realm</text>
<text text-anchor="middle" x="744" y="-315" font-family="Helvetica,sans-Serif" font-size="10.00">/transfer/channel.h</text>
</a>
</g>
</g>
<!-- Node2&#45;&gt;Node3 -->
<g id="edge2_Node000002_Node000003" class="edge">
<title>Node2&#45;&gt;Node3</title>
<g id="a_edge2_Node000002_Node000003"><a xlink:title=" ">
<path fill="none" stroke="#63b8ff" d="M497.78,-385.63C551.05,-373.49 619.65,-357.85 670.9,-346.16"/>
<polygon fill="#63b8ff" stroke="#63b8ff" points="496.99,-382.22 488.02,-387.86 498.54,-389.04 496.99,-382.22"/>
</a>
</g>
</g>
<!-- Node9 -->
<g id="Node000009" class="node">
<title>Node9</title>
<g id="a_Node000009"><a xlink:href="lowlevel__dma_8h.html" target="_top" xlink:title=" ">
<polygon fill="white" stroke="#666666" points="523,-118 377,-118 377,-77 523,-77 523,-118"/>
<text text-anchor="start" x="385" y="-106" font-family="Helvetica,sans-Serif" font-size="10.00">/home/runner/work/realm</text>
<text text-anchor="start" x="385" y="-95" font-family="Helvetica,sans-Serif" font-size="10.00">/realm/realm&#45;src/src/realm</text>
<text text-anchor="middle" x="450" y="-84" font-family="Helvetica,sans-Serif" font-size="10.00">/transfer/lowlevel_dma.h</text>
</a>
</g>
</g>
<!-- Node2&#45;&gt;Node9 -->
<g id="edge20_Node000002_Node000009" class="edge">
<title>Node2&#45;&gt;Node9</title>
<g id="a_edge20_Node000002_Node000009"><a xlink:title=" ">
<path fill="none" stroke="#63b8ff" d="M387.11,-377.33C356.1,-343.66 312.86,-284.22 333,-231 333.66,-229.26 400.17,-154.45 432.6,-118.03"/>
<polygon fill="#63b8ff" stroke="#63b8ff" points="384.88,-380.06 394.29,-384.91 389.96,-375.24 384.88,-380.06"/>
</a>
</g>
</g>
<!-- Node11 -->
<g id="Node000011" class="node">
<title>Node11</title>
<g id="a_Node000011"><a xlink:href="transfer_8h.html" target="_top" xlink:title=" ">
<polygon fill="white" stroke="#666666" points="488,-272 342,-272 342,-231 488,-231 488,-272"/>
<text text-anchor="start" x="350" y="-260" font-family="Helvetica,sans-Serif" font-size="10.00">/home/runner/work/realm</text>
<text text-anchor="start" x="350" y="-249" font-family="Helvetica,sans-Serif" font-size="10.00">/realm/realm&#45;src/src/realm</text>
<text text-anchor="middle" x="415" y="-238" font-family="Helvetica,sans-Serif" font-size="10.00">/transfer/transfer.h</text>
</a>
</g>
</g>
<!-- Node2&#45;&gt;Node11 -->
<g id="edge21_Node000002_Node000011" class="edge">
<title>Node2&#45;&gt;Node11</title>
<g id="a_edge21_Node000002_Node000011"><a xlink:title=" ">
<path fill="none" stroke="#63b8ff" d="M415,-374.58C415,-344.36 415,-298.53 415,-272.47"/>
<polygon fill="#63b8ff" stroke="#63b8ff" points="411.5,-374.94 415,-384.94 418.5,-374.94 411.5,-374.94"/>
</a>
</g>
</g>
<!-- Node4 -->
<g id="Node000004" class="node">
<title>Node4</title>
<g id="a_Node000004"><a xlink:href="cuda__internal_8h.html" target="_top" xlink:title=" ">
<polygon fill="white" stroke="#666666" points="939,-41 793,-41 793,0 939,0 939,-41"/>
<text text-anchor="start" x="801" y="-29" font-family="Helvetica,sans-Serif" font-size="10.00">/home/runner/work/realm</text>
<text text-anchor="start" x="801" y="-18" font-family="Helvetica,sans-Serif" font-size="10.00">/realm/realm&#45;src/src/realm</text>
<text text-anchor="middle" x="866" y="-7" font-family="Helvetica,sans-Serif" font-size="10.00">/cuda/cuda_internal.h</text>
</a>
</g>
</g>
<!-- Node3&#45;&gt;Node4 -->
<g id="edge3_Node000003_Node000004" class="edge">
<title>Node3&#45;&gt;Node4</title>
<g id="a_edge3_Node000003_Node000004"><a xlink:title=" ">
<path fill="none" stroke="#63b8ff" d="M761.05,-299.03C765.86,-290.49 770.89,-280.99 775,-272 813.2,-188.47 846.87,-83.87 860.07,-41.09"/>
<polygon fill="#63b8ff" stroke="#63b8ff" points="757.93,-297.45 755.99,-307.87 764,-300.93 757.93,-297.45"/>
</a>
</g>
</g>
<!-- Node5 -->
<g id="Node000005" class="node">
<title>Node5</title>
<g id="a_Node000005"><a xlink:href="hdf5__internal_8h.html" target="_top" xlink:title=" ">
<polygon fill="white" stroke="#666666" points="646,-41 500,-41 500,0 646,0 646,-41"/>
<text text-anchor="start" x="508" y="-29" font-family="Helvetica,sans-Serif" font-size="10.00">/home/runner/work/realm</text>
<text text-anchor="start" x="508" y="-18" font-family="Helvetica,sans-Serif" font-size="10.00">/realm/realm&#45;src/src/realm</text>
<text text-anchor="middle" x="573" y="-7" font-family="Helvetica,sans-Serif" font-size="10.00">/hdf5/hdf5_internal.h</text>
</a>
</g>
</g>
<!-- Node3&#45;&gt;Node5 -->
<g id="edge4_Node000003_Node000005" class="edge">
<title>Node3&#45;&gt;Node5</title>
<g id="a_edge4_Node000003_Node000005"><a xlink:title=" ">
<path fill="none" stroke="#63b8ff" d="M661.34,-308.12C642.22,-299.94 623.77,-288.35 611,-272 582.91,-236.03 575.39,-93.8 573.55,-41.19"/>
<polygon fill="#63b8ff" stroke="#63b8ff" points="660.17,-311.42 670.75,-311.87 662.76,-304.92 660.17,-311.42"/>
</a>
</g>
</g>
<!-- Node6 -->
<g id="Node000006" class="node">
<title>Node6</title>
<g id="a_Node000006"><a xlink:href="hip__internal_8h.html" target="_top" xlink:title=" ">
<polygon fill="white" stroke="#666666" points="1235,-41 1089,-41 1089,0 1235,0 1235,-41"/>
<text text-anchor="start" x="1097" y="-29" font-family="Helvetica,sans-Serif" font-size="10.00">/home/runner/work/realm</text>
<text text-anchor="start" x="1097" y="-18" font-family="Helvetica,sans-Serif" font-size="10.00">/realm/realm&#45;src/src/realm</text>
<text text-anchor="middle" x="1162" y="-7" font-family="Helvetica,sans-Serif" font-size="10.00">/hip/hip_internal.h</text>
</a>
</g>
</g>
<!-- Node3&#45;&gt;Node6 -->
<g id="edge5_Node000003_Node000006" class="edge">
<title>Node3&#45;&gt;Node6</title>
<g id="a_edge5_Node000003_Node000006"><a xlink:title=" ">
<path fill="none" stroke="#63b8ff" d="M771.49,-300.73C792.57,-280.71 822.74,-253.09 851,-231 948.21,-155.04 1071.91,-76.74 1129.62,-41.19"/>
<polygon fill="#63b8ff" stroke="#63b8ff" points="768.97,-298.3 764.16,-307.74 773.81,-303.36 768.97,-298.3"/>
</a>
</g>
</g>
<!-- Node7 -->
<g id="Node000007" class="node">
<title>Node7</title>
<g id="a_Node000007"><a xlink:href="addrsplit__channel_8h.html" target="_top" xlink:title=" ">
<polygon fill="white" stroke="#666666" points="1016,-272 860,-272 860,-231 1016,-231 1016,-272"/>
<text text-anchor="start" x="868" y="-260" font-family="Helvetica,sans-Serif" font-size="10.00">/home/runner/work/realm</text>
<text text-anchor="start" x="868" y="-249" font-family="Helvetica,sans-Serif" font-size="10.00">/realm/realm&#45;src/src/realm</text>
<text text-anchor="middle" x="938" y="-238" font-family="Helvetica,sans-Serif" font-size="10.00">/transfer/addrsplit_channel.h</text>
</a>
</g>
</g>
<!-- Node3&#45;&gt;Node7 -->
<g id="edge6_Node000003_Node000007" class="edge">
<title>Node3&#45;&gt;Node7</title>
<g id="a_edge6_Node000003_Node000007"><a xlink:title=" ">
<path fill="none" stroke="#63b8ff" d="M804.09,-304.27C830.82,-293.94 861.94,-281.9 887.45,-272.04"/>
<polygon fill="#63b8ff" stroke="#63b8ff" points="802.53,-301.12 794.46,-307.99 805.05,-307.65 802.53,-301.12"/>
</a>
</g>
</g>
<!-- Node8 -->
<g id="Node000008" class="node">
<title>Node8</title>
<g id="a_Node000008"><a xlink:href="channel__disk_8h.html" target="_top" xlink:title=" ">
<polygon fill="white" stroke="#666666" points="766,-272 620,-272 620,-231 766,-231 766,-272"/>
<text text-anchor="start" x="628" y="-260" font-family="Helvetica,sans-Serif" font-size="10.00">/home/runner/work/realm</text>
<text text-anchor="start" x="628" y="-249" font-family="Helvetica,sans-Serif" font-size="10.00">/realm/realm&#45;src/src/realm</text>
<text text-anchor="middle" x="693" y="-238" font-family="Helvetica,sans-Serif" font-size="10.00">/transfer/channel_disk.h</text>
</a>
</g>
</g>
<!-- Node3&#45;&gt;Node8 -->
<g id="edge7_Node000003_Node000008" class="edge">
<title>Node3&#45;&gt;Node8</title>
<g id="a_edge7_Node000003_Node000008"><a xlink:title=" ">
<path fill="none" stroke="#63b8ff" d="M724.89,-299.39C718.7,-290.3 711.98,-280.41 706.31,-272.07"/>
<polygon fill="#63b8ff" stroke="#63b8ff" points="722.08,-301.49 730.6,-307.79 727.87,-297.56 722.08,-301.49"/>
</a>
</g>
</g>
<!-- Node3&#45;&gt;Node9 -->
<g id="edge8_Node000003_Node000009" class="edge">
<title>Node3&#45;&gt;Node9</title>
<g id="a_edge8_Node000003_Node000009"><a xlink:title=" ">
<path fill="none" stroke="#63b8ff" d="M660.97,-310.52C632.84,-302.08 602.4,-289.75 578,-272 520.18,-229.94 477.39,-154.06 459.38,-118.24"/>
<polygon fill="#63b8ff" stroke="#63b8ff" points="660.24,-313.95 670.81,-313.35 662.17,-307.23 660.24,-313.95"/>
</a>
</g>
</g>
<!-- Node10 -->
<g id="Node000010" class="node">
<title>Node10</title>
<g id="a_Node000010"><a xlink:href="memcpy__channel_8h.html" target="_top" xlink:title=" ">
<polygon fill="white" stroke="#666666" points="1228,-272 1072,-272 1072,-231 1228,-231 1228,-272"/>
<text text-anchor="start" x="1080" y="-260" font-family="Helvetica,sans-Serif" font-size="10.00">/home/runner/work/realm</text>
<text text-anchor="start" x="1080" y="-249" font-family="Helvetica,sans-Serif" font-size="10.00">/realm/realm&#45;src/src/realm</text>
<text text-anchor="middle" x="1150" y="-238" font-family="Helvetica,sans-Serif" font-size="10.00">/transfer/memcpy_channel.h</text>
</a>
</g>
</g>
<!-- Node3&#45;&gt;Node10 -->
<g id="edge10_Node000003_Node000010" class="edge">
<title>Node3&#45;&gt;Node10</title>
<g id="a_edge10_Node000003_Node000010"><a xlink:title=" ">
<path fill="none" stroke="#63b8ff" d="M826.97,-312.17C898.73,-298.92 1001.72,-279.89 1072,-266.91"/>
<polygon fill="#63b8ff" stroke="#63b8ff" points="826.25,-308.75 817.05,-314 827.52,-315.63 826.25,-308.75"/>
</a>
</g>
</g>
<!-- Node3&#45;&gt;Node11 -->
<g id="edge11_Node000003_Node000011" class="edge">
<title>Node3&#45;&gt;Node11</title>
<g id="a_edge11_Node000003_Node000011"><a xlink:title=" ">
<path fill="none" stroke="#63b8ff" d="M661.22,-308.63C607.95,-296.49 539.35,-280.85 488.1,-269.16"/>
<polygon fill="#63b8ff" stroke="#63b8ff" points="660.46,-312.04 670.98,-310.86 662.01,-305.22 660.46,-312.04"/>
</a>
</g>
</g>
<!-- Node9&#45;&gt;Node5 -->
<g id="edge9_Node000009_Node000005" class="edge">
<title>Node9&#45;&gt;Node5</title>
<g id="a_edge9_Node000009_Node000005"><a xlink:title=" ">
<path fill="none" stroke="#63b8ff" d="M490.76,-71.64C507.01,-61.74 525.45,-50.5 540.74,-41.17"/>
<polygon fill="#63b8ff" stroke="#63b8ff" points="488.71,-68.8 482,-76.99 492.36,-74.77 488.71,-68.8"/>
</a>
</g>
</g>
<!-- Node11&#45;&gt;Node12 -->
<g id="edge12_Node000011_Node000012" class="edge">
<title>Node11&#45;&gt;Node12</title>
<g id="a_edge12_Node000011_Node000012"><a xlink:title=" ">
<path fill="none" stroke="#63b8ff" d="M371.41,-225.92C353.72,-215.95 333.57,-204.58 316.89,-195.17"/>
<polygon fill="#63b8ff" stroke="#63b8ff" points="369.97,-229.13 380.4,-230.99 373.41,-223.03 369.97,-229.13"/>
</a>
</g>
</g>
<!-- Node12&#45;&gt;Node9 -->
<g id="edge19_Node000012_Node000009" class="edge">
<title>Node12&#45;&gt;Node9</title>
<g id="a_edge19_Node000012_Node000009"><a xlink:title=" ">
<path fill="none" stroke="#63b8ff" d="M334.96,-149.86C357.89,-139.62 384.43,-127.77 406.23,-118.04"/>
<polygon fill="#63b8ff" stroke="#63b8ff" points="333.41,-146.72 325.7,-153.99 336.26,-153.11 333.41,-146.72"/>
</a>
</g>
</g>
<!-- Node12&#45;&gt;Node13 -->
<g id="edge13_Node000012_Node000013" class="edge">
<title>Node12&#45;&gt;Node13</title>
<g id="a_edge13_Node000012_Node000013"><a xlink:title=" ">
<path fill="none" stroke="#63b8ff" d="M282,-143.69C282,-135.08 282,-125.9 282,-118.07"/>
<polygon fill="#63b8ff" stroke="#63b8ff" points="278.5,-143.79 282,-153.79 285.5,-143.79 278.5,-143.79"/>
</a>
</g>
</g>
<!-- Node13&#45;&gt;Node4 -->
<g id="edge14_Node000013_Node000004" class="edge">
<title>Node13&#45;&gt;Node4</title>
<g id="a_edge14_Node000013_Node000004"><a xlink:title=" ">
<path fill="none" stroke="#63b8ff" d="M365.21,-77.48C366.15,-77.32 367.08,-77.16 368,-77 447.78,-63.55 674.52,-40.35 792.55,-28.66"/>
<polygon fill="#63b8ff" stroke="#63b8ff" points="364.28,-74.09 355.08,-79.34 365.55,-80.98 364.28,-74.09"/>
</a>
</g>
</g>
<!-- Node13&#45;&gt;Node6 -->
<g id="edge15_Node000013_Node000006" class="edge">
<title>Node13&#45;&gt;Node6</title>
<g id="a_edge15_Node000013_Node000006"><a xlink:title=" ">
<path fill="none" stroke="#63b8ff" d="M365.2,-77.41C366.14,-77.27 367.07,-77.13 368,-77 623.66,-40.33 690.48,-60.72 948,-41 994.87,-37.41 1047.44,-32.63 1088.75,-28.7"/>
<polygon fill="#63b8ff" stroke="#63b8ff" points="364.33,-74.01 355.04,-79.1 365.48,-80.92 364.33,-74.01"/>
</a>
</g>
</g>
<!-- Node14 -->
<g id="Node000014" class="node">
<title>Node14</title>
<g id="a_Node000014"><a xlink:href="kokkos__interop_8h.html" target="_top" xlink:title=" ">
<polygon fill="white" stroke="#666666" points="310,-41 164,-41 164,0 310,0 310,-41"/>
<text text-anchor="start" x="172" y="-29" font-family="Helvetica,sans-Serif" font-size="10.00">/home/runner/work/realm</text>
<text text-anchor="start" x="172" y="-18" font-family="Helvetica,sans-Serif" font-size="10.00">/realm/realm&#45;src/src/realm</text>
<text text-anchor="middle" x="237" y="-7" font-family="Helvetica,sans-Serif" font-size="10.00">/kokkos/kokkos_interop.h</text>
</a>
</g>
</g>
<!-- Node13&#45;&gt;Node14 -->
<g id="edge16_Node000013_Node000014" class="edge">
<title>Node13&#45;&gt;Node14</title>
<g id="a_edge16_Node000013_Node000014"><a xlink:title=" ">
<path fill="none" stroke="#63b8ff" d="M264.97,-68.11C259.56,-59.09 253.7,-49.33 248.74,-41.07"/>
<polygon fill="#63b8ff" stroke="#63b8ff" points="262.03,-70.02 270.18,-76.79 268.03,-66.42 262.03,-70.02"/>
</a>
</g>
</g>
<!-- Node15 -->
<g id="Node000015" class="node">
<title>Node15</title>
<g id="a_Node000015"><a xlink:href="openmp__internal_8h.html" target="_top" xlink:title=" ">
<polygon fill="white" stroke="#666666" points="482,-41 328,-41 328,0 482,0 482,-41"/>
<text text-anchor="start" x="336" y="-29" font-family="Helvetica,sans-Serif" font-size="10.00">/home/runner/work/realm</text>
<text text-anchor="start" x="336" y="-18" font-family="Helvetica,sans-Serif" font-size="10.00">/realm/realm&#45;src/src/realm</text>
<text text-anchor="middle" x="405" y="-7" font-family="Helvetica,sans-Serif" font-size="10.00">/openmp/openmp_internal.h</text>
</a>
</g>
</g>
<!-- Node13&#45;&gt;Node15 -->
<g id="edge17_Node000013_Node000015" class="edge">
<title>Node13&#45;&gt;Node15</title>
<g id="a_edge17_Node000013_Node000015"><a xlink:title=" ">
<path fill="none" stroke="#63b8ff" d="M322.76,-71.64C339.01,-61.74 357.45,-50.5 372.74,-41.17"/>
<polygon fill="#63b8ff" stroke="#63b8ff" points="320.71,-68.8 314,-76.99 324.36,-74.77 320.71,-68.8"/>
</a>
</g>
</g>
<!-- Node16 -->
<g id="Node000016" class="node">
<title>Node16</title>
<g id="a_Node000016"><a xlink:href="python__internal_8h.html" target="_top" xlink:title=" ">
<polygon fill="white" stroke="#666666" points="146,-41 0,-41 0,0 146,0 146,-41"/>
<text text-anchor="start" x="8" y="-29" font-family="Helvetica,sans-Serif" font-size="10.00">/home/runner/work/realm</text>
<text text-anchor="start" x="8" y="-18" font-family="Helvetica,sans-Serif" font-size="10.00">/realm/realm&#45;src/src/realm</text>
<text text-anchor="middle" x="73" y="-7" font-family="Helvetica,sans-Serif" font-size="10.00">/python/python_internal.h</text>
</a>
</g>
</g>
<!-- Node13&#45;&gt;Node16 -->
<g id="edge18_Node000013_Node000016" class="edge">
<title>Node13&#45;&gt;Node16</title>
<g id="a_edge18_Node000013_Node000016"><a xlink:title=" ">
<path fill="none" stroke="#63b8ff" d="M218.02,-73.54C189.05,-63.15 155.18,-50.99 127.46,-41.04"/>
<polygon fill="#63b8ff" stroke="#63b8ff" points="217.04,-76.91 227.63,-76.99 219.4,-70.32 217.04,-76.91"/>
</a>
</g>
</g>
<!-- Node17&#45;&gt;Node2 -->
<g id="edge26_Node000017_Node000002" class="edge">
<title>Node17&#45;&gt;Node2</title>
<g id="a_edge26_Node000017_Node000002"><a xlink:title=" ">
<path fill="none" stroke="#63b8ff" d="M866.87,-470.75C783.99,-459.91 653.1,-442.47 540,-426 523.16,-423.55 505.05,-420.79 488,-418.14"/>
<polygon fill="#63b8ff" stroke="#63b8ff" points="866.62,-474.24 876.99,-472.07 867.52,-467.3 866.62,-474.24"/>
</a>
</g>
</g>
<!-- Node17&#45;&gt;Node3 -->
<g id="edge27_Node000017_Node000003" class="edge">
<title>Node17&#45;&gt;Node3</title>
<g id="a_edge27_Node000017_Node000003"><a xlink:title=" ">
<path fill="none" stroke="#63b8ff" d="M915.2,-455.82C874.4,-425.72 807.68,-376.49 770.73,-349.23"/>
<polygon fill="#63b8ff" stroke="#63b8ff" points="913.37,-458.82 923.49,-461.94 917.52,-453.19 913.37,-458.82"/>
</a>
</g>
</g>
<!-- Node17&#45;&gt;Node4 -->
<g id="edge23_Node000017_Node000004" class="edge">
<title>Node17&#45;&gt;Node4</title>
<g id="a_edge23_Node000017_Node000004"><a xlink:title=" ">
<path fill="none" stroke="#63b8ff" d="M945.91,-451.75C942.42,-415.08 941.64,-352.2 969,-308 984.57,-282.84 1010.82,-297.97 1025,-272 1033.73,-256.01 1030.81,-248.27 1025,-231 997.7,-149.86 925.09,-75.19 888.2,-41.04"/>
<polygon fill="#63b8ff" stroke="#63b8ff" points="942.44,-452.24 947,-461.8 949.4,-451.49 942.44,-452.24"/>
</a>
</g>
</g>
<!-- Node17&#45;&gt;Node5 -->
<g id="edge24_Node000017_Node000005" class="edge">
<title>Node17&#45;&gt;Node5</title>
<g id="a_edge24_Node000017_Node000005"><a xlink:title=" ">
<path fill="none" stroke="#63b8ff" d="M866.97,-466.97C750.84,-444.26 554,-395.96 554,-329.5 554,-329.5 554,-329.5 554,-173.5 554,-125.63 563.39,-69.93 568.97,-41.08"/>
<polygon fill="#63b8ff" stroke="#63b8ff" points="866.42,-470.43 876.91,-468.89 867.75,-463.56 866.42,-470.43"/>
</a>
</g>
</g>
<!-- Node17&#45;&gt;Node6 -->
<g id="edge25_Node000017_Node000006" class="edge">
<title>Node17&#45;&gt;Node6</title>
<g id="a_edge25_Node000017_Node000006"><a xlink:title=" ">
<path fill="none" stroke="#63b8ff" d="M1033.4,-480.42C1133.41,-477.32 1292.87,-466.02 1335,-426 1366.69,-395.89 1354,-373.21 1354,-329.5 1354,-329.5 1354,-329.5 1354,-173.5 1354,-123 1332.42,-109.78 1294,-77 1275.65,-61.35 1252.26,-49.59 1230.28,-41.02"/>
<polygon fill="#63b8ff" stroke="#63b8ff" points="1033.2,-476.92 1023.31,-480.71 1033.41,-483.92 1033.2,-476.92"/>
</a>
</g>
</g>
<!-- Node17&#45;&gt;Node10 -->
<g id="edge32_Node000017_Node000010" class="edge">
<title>Node17&#45;&gt;Node10</title>
<g id="a_edge32_Node000017_Node000010"><a xlink:title=" ">
<path fill="none" stroke="#63b8ff" d="M1003.28,-457.19C1045.39,-435.1 1102.08,-398.41 1133,-349 1147.71,-325.5 1150.58,-292.8 1150.72,-272.15"/>
<polygon fill="#63b8ff" stroke="#63b8ff" points="1001.56,-454.14 994.26,-461.82 1004.75,-460.37 1001.56,-454.14"/>
</a>
</g>
</g>
<!-- Node18 -->
<g id="Node000018" class="node">
<title>Node18</title>
<g id="a_Node000018"><a xlink:href="ib__memory_8h.html" target="_top" xlink:title=" ">
<polygon fill="white" stroke="#666666" points="1326,-426 1180,-426 1180,-385 1326,-385 1326,-426"/>
<text text-anchor="start" x="1188" y="-414" font-family="Helvetica,sans-Serif" font-size="10.00">/home/runner/work/realm</text>
<text text-anchor="start" x="1188" y="-403" font-family="Helvetica,sans-Serif" font-size="10.00">/realm/realm&#45;src/src/realm</text>
<text text-anchor="middle" x="1253" y="-392" font-family="Helvetica,sans-Serif" font-size="10.00">/transfer/ib_memory.h</text>
</a>
</g>
</g>
<!-- Node17&#45;&gt;Node18 -->
<g id="edge28_Node000017_Node000018" class="edge">
<title>Node17&#45;&gt;Node18</title>
<g id="a_edge28_Node000017_Node000018"><a xlink:title=" ">
<path fill="none" stroke="#63b8ff" d="M1033.27,-460.89C1079.16,-449.53 1135.61,-435.56 1179.8,-424.62"/>
<polygon fill="#63b8ff" stroke="#63b8ff" points="1032.21,-457.54 1023.35,-463.34 1033.9,-464.34 1032.21,-457.54"/>
</a>
</g>
</g>
<!-- Node19 -->
<g id="Node000019" class="node">
<title>Node19</title>
<g id="a_Node000019"><a xlink:href="ucp__internal_8h.html" target="_top" xlink:title=" ">
<polygon fill="white" stroke="#666666" points="1124,-349 978,-349 978,-308 1124,-308 1124,-349"/>
<text text-anchor="start" x="986" y="-337" font-family="Helvetica,sans-Serif" font-size="10.00">/home/runner/work/realm</text>
<text text-anchor="start" x="986" y="-326" font-family="Helvetica,sans-Serif" font-size="10.00">/realm/realm&#45;src/src/realm</text>
<text text-anchor="middle" x="1051" y="-315" font-family="Helvetica,sans-Serif" font-size="10.00">/ucx/ucp_internal.h</text>
</a>
</g>
</g>
<!-- Node17&#45;&gt;Node19 -->
<g id="edge33_Node000017_Node000019" class="edge">
<title>Node17&#45;&gt;Node19</title>
<g id="a_edge33_Node000017_Node000019"><a xlink:title=" ">
<path fill="none" stroke="#63b8ff" d="M968.58,-453.54C988.62,-423.38 1020.04,-376.1 1037.73,-349.47"/>
<polygon fill="#63b8ff" stroke="#63b8ff" points="965.62,-451.67 963,-461.94 971.45,-455.55 965.62,-451.67"/>
</a>
</g>
</g>
<!-- Node18&#45;&gt;Node4 -->
<g id="edge29_Node000018_Node000004" class="edge">
<title>Node18&#45;&gt;Node4</title>
<g id="a_edge29_Node000018_Node000004"><a xlink:title=" ">
<path fill="none" stroke="#63b8ff" d="M1253.93,-374.8C1254.81,-344.17 1256,-295 1256,-252.5 1256,-252.5 1256,-252.5 1256,-173.5 1256,-106.28 1052.33,-56.84 939.36,-34.58"/>
<polygon fill="#63b8ff" stroke="#63b8ff" points="1250.43,-374.73 1253.64,-384.83 1257.43,-374.93 1250.43,-374.73"/>
</a>
</g>
</g>
<!-- Node18&#45;&gt;Node6 -->
<g id="edge30_Node000018_Node000006" class="edge">
<title>Node18&#45;&gt;Node6</title>
<g id="a_edge30_Node000018_Node000006"><a xlink:title=" ">
<path fill="none" stroke="#63b8ff" d="M1265.79,-375.32C1277.82,-345.17 1294,-296.46 1294,-252.5 1294,-252.5 1294,-252.5 1294,-173.5 1294,-129.3 1297.44,-111.64 1270,-77 1257.56,-61.3 1239.49,-49.61 1221.66,-41.12"/>
<polygon fill="#63b8ff" stroke="#63b8ff" points="1262.46,-374.22 1261.9,-384.8 1268.93,-376.88 1262.46,-374.22"/>
</a>
</g>
</g>
<!-- Node18&#45;&gt;Node19 -->
<g id="edge31_Node000018_Node000019" class="edge">
<title>Node18&#45;&gt;Node19</title>
<g id="a_edge31_Node000018_Node000019"><a xlink:title=" ">
<path fill="none" stroke="#63b8ff" d="M1190.79,-381.4C1162.88,-371.04 1130.31,-358.95 1103.63,-349.04"/>
<polygon fill="#63b8ff" stroke="#63b8ff" points="1189.86,-384.79 1200.45,-384.99 1192.3,-378.23 1189.86,-384.79"/>
</a>
</g>
</g>
</g>
</svg>
