<?xml version="1.0" encoding="UTF-8" standalone="no"?>
<!DOCTYPE svg PUBLIC "-//W3C//DTD SVG 1.1//EN"
 "http://www.w3.org/Graphics/SVG/1.1/DTD/svg11.dtd">
<!-- Generated by graphviz version 2.43.0 (0)
 -->
<!-- Title: /home/runner/work/realm/realm/realm&#45;src/src/realm/rsrv_impl.h Pages: 1 -->
<svg width="1718pt" height="434pt"
 viewBox="0.00 0.00 1718.03 434.00" xmlns="http://www.w3.org/2000/svg" xmlns:xlink="http://www.w3.org/1999/xlink">
<g id="graph0" class="graph" transform="scale(1 1) rotate(0) translate(4 430)">
<title>/home/runner/work/realm/realm/realm&#45;src/src/realm/rsrv_impl.h</title>
<!-- Node1 -->
<g id="Node000001" class="node">
<title>Node1</title>
<g id="a_Node000001"><a xlink:title=" ">
<polygon fill="#999999" stroke="#666666" points="832,-426 686,-426 686,-385 832,-385 832,-426"/>
<text text-anchor="start" x="694" y="-414" font-family="Helvetica,sans-Serif" font-size="10.00">/home/runner/work/realm</text>
<text text-anchor="start" x="694" y="-403" font-family="Helvetica,sans-Serif" font-size="10.00">/realm/realm&#45;src/src/realm</text>
<text text-anchor="middle" x="759" y="-392" font-family="Helvetica,sans-Serif" font-size="10.00">/rsrv_impl.h</text>
</a>
</g>
</g>
<!-- Node2 -->
<g id="Node000002" class="node">
<title>Node2</title>
<g id="a_Node000002"><a xlink:href="inst__impl_8h.html" target="_top" xlink:title=" ">
<polygon fill="white" stroke="#666666" points="580,-272 434,-272 434,-231 580,-231 580,-272"/>
<text text-anchor="start" x="442" y="-260" font-family="Helvetica,sans-Serif" font-size="10.00">/home/runner/work/realm</text>
<text text-anchor="start" x="442" y="-249" font-family="Helvetica,sans-Serif" font-size="10.00">/realm/realm&#45;src/src/realm</text>
<text text-anchor="middle" x="507" y="-238" font-family="Helvetica,sans-Serif" font-size="10.00">/inst_impl.h</text>
</a>
</g>
</g>
<!-- Node1&#45;&gt;Node2 -->
<g id="edge1_Node000001_Node000002" class="edge">
<title>Node1&#45;&gt;Node2</title>
<g id="a_edge1_Node000001_Node000002"><a xlink:title=" ">
<path fill="none" stroke="#63b8ff" d="M717.98,-379.76C668.23,-349.75 585.37,-299.77 539.7,-272.23"/>
<polygon fill="#63b8ff" stroke="#63b8ff" points="716.2,-382.77 726.57,-384.94 719.82,-376.78 716.2,-382.77"/>
</a>
</g>
</g>
<!-- Node12 -->
<g id="Node000012" class="node">
<title>Node12</title>
<g id="a_Node000012"><a xlink:href="mem__impl_8h.html" target="_top" xlink:title=" ">
<polygon fill="white" stroke="#666666" points="921,-349 775,-349 775,-308 921,-308 921,-349"/>
<text text-anchor="start" x="783" y="-337" font-family="Helvetica,sans-Serif" font-size="10.00">/home/runner/work/realm</text>
<text text-anchor="start" x="783" y="-326" font-family="Helvetica,sans-Serif" font-size="10.00">/realm/realm&#45;src/src/realm</text>
<text text-anchor="middle" x="848" y="-315" font-family="Helvetica,sans-Serif" font-size="10.00">/mem_impl.h</text>
</a>
</g>
</g>
<!-- Node1&#45;&gt;Node12 -->
<g id="edge13_Node000001_Node000012" class="edge">
<title>Node1&#45;&gt;Node12</title>
<g id="a_edge13_Node000001_Node000012"><a xlink:title=" ">
<path fill="none" stroke="#63b8ff" d="M790.03,-378.35C801.45,-368.73 814.16,-358.01 824.77,-349.07"/>
<polygon fill="#63b8ff" stroke="#63b8ff" points="787.78,-375.67 782.38,-384.79 792.29,-381.03 787.78,-375.67"/>
</a>
</g>
</g>
<!-- Node15 -->
<g id="Node000015" class="node">
<title>Node15</title>
<g id="a_Node000015"><a xlink:href="proc__impl_8h.html" target="_top" xlink:title=" ">
<polygon fill="white" stroke="#666666" points="1325,-195 1179,-195 1179,-154 1325,-154 1325,-195"/>
<text text-anchor="start" x="1187" y="-183" font-family="Helvetica,sans-Serif" font-size="10.00">/home/runner/work/realm</text>
<text text-anchor="start" x="1187" y="-172" font-family="Helvetica,sans-Serif" font-size="10.00">/realm/realm&#45;src/src/realm</text>
<text text-anchor="middle" x="1252" y="-161" font-family="Helvetica,sans-Serif" font-size="10.00">/proc_impl.h</text>
</a>
</g>
</g>
<!-- Node1&#45;&gt;Node15 -->
<g id="edge25_Node000001_Node000015" class="edge">
<title>Node1&#45;&gt;Node15</title>
<g id="a_edge25_Node000001_Node000015"><a xlink:title=" ">
<path fill="none" stroke="#63b8ff" d="M835.36,-381.88C865.17,-372.49 899.46,-360.99 930,-349 1005.7,-319.28 1024.4,-310.57 1096,-272 1141.42,-247.53 1191.83,-215.39 1222.72,-195.08"/>
<polygon fill="#63b8ff" stroke="#63b8ff" points="833.93,-378.66 825.43,-384.98 836.02,-385.34 833.93,-378.66"/>
</a>
</g>
</g>
<!-- Node19 -->
<g id="Node000019" class="node">
<title>Node19</title>
<g id="a_Node000019"><a xlink:href="runtime__impl_8h.html" target="_top" xlink:title=" ">
<polygon fill="white" stroke="#666666" points="744,-272 598,-272 598,-231 744,-231 744,-272"/>
<text text-anchor="start" x="606" y="-260" font-family="Helvetica,sans-Serif" font-size="10.00">/home/runner/work/realm</text>
<text text-anchor="start" x="606" y="-249" font-family="Helvetica,sans-Serif" font-size="10.00">/realm/realm&#45;src/src/realm</text>
<text text-anchor="middle" x="671" y="-238" font-family="Helvetica,sans-Serif" font-size="10.00">/runtime_impl.h</text>
</a>
</g>
</g>
<!-- Node1&#45;&gt;Node19 -->
<g id="edge31_Node000001_Node000019" class="edge">
<title>Node1&#45;&gt;Node19</title>
<g id="a_edge31_Node000001_Node000019"><a xlink:title=" ">
<path fill="none" stroke="#63b8ff" d="M742.59,-376.15C725.12,-345.97 697.91,-298.98 682.56,-272.47"/>
<polygon fill="#63b8ff" stroke="#63b8ff" points="739.64,-378.04 747.68,-384.94 745.69,-374.53 739.64,-378.04"/>
</a>
</g>
</g>
<!-- Node3 -->
<g id="Node000003" class="node">
<title>Node3</title>
<g id="a_Node000003"><a xlink:href="channel_8h.html" target="_top" xlink:title=" ">
<polygon fill="white" stroke="#666666" points="681,-195 535,-195 535,-154 681,-154 681,-195"/>
<text text-anchor="start" x="543" y="-183" font-family="Helvetica,sans-Serif" font-size="10.00">/home/runner/work/realm</text>
<text text-anchor="start" x="543" y="-172" font-family="Helvetica,sans-Serif" font-size="10.00">/realm/realm&#45;src/src/realm</text>
<text text-anchor="middle" x="608" y="-161" font-family="Helvetica,sans-Serif" font-size="10.00">/transfer/channel.h</text>
</a>
</g>
</g>
<!-- Node2&#45;&gt;Node3 -->
<g id="edge2_Node000002_Node000003" class="edge">
<title>Node2&#45;&gt;Node3</title>
<g id="a_edge2_Node000002_Node000003"><a xlink:title=" ">
<path fill="none" stroke="#63b8ff" d="M541.59,-224.82C554.65,-215.11 569.3,-204.24 581.51,-195.17"/>
<polygon fill="#63b8ff" stroke="#63b8ff" points="539.21,-222.22 533.27,-230.99 543.39,-227.84 539.21,-222.22"/>
</a>
</g>
</g>
<!-- Node9 -->
<g id="Node000009" class="node">
<title>Node9</title>
<g id="a_Node000009"><a xlink:href="lowlevel__dma_8h.html" target="_top" xlink:title=" ">
<polygon fill="white" stroke="#666666" points="146,-118 0,-118 0,-77 146,-77 146,-118"/>
<text text-anchor="start" x="8" y="-106" font-family="Helvetica,sans-Serif" font-size="10.00">/home/runner/work/realm</text>
<text text-anchor="start" x="8" y="-95" font-family="Helvetica,sans-Serif" font-size="10.00">/realm/realm&#45;src/src/realm</text>
<text text-anchor="middle" x="73" y="-84" font-family="Helvetica,sans-Serif" font-size="10.00">/transfer/lowlevel_dma.h</text>
</a>
</g>
</g>
<!-- Node2&#45;&gt;Node9 -->
<g id="edge12_Node000002_Node000009" class="edge">
<title>Node2&#45;&gt;Node9</title>
<g id="a_edge12_Node000002_Node000009"><a xlink:title=" ">
<path fill="none" stroke="#63b8ff" d="M441.59,-227.59C356.48,-197.78 209.18,-146.19 128.98,-118.11"/>
<polygon fill="#63b8ff" stroke="#63b8ff" points="440.56,-230.94 451.15,-230.94 442.87,-224.33 440.56,-230.94"/>
</a>
</g>
</g>
<!-- Node4 -->
<g id="Node000004" class="node">
<title>Node4</title>
<g id="a_Node000004"><a xlink:href="cuda__internal_8h.html" target="_top" xlink:title=" ">
<polygon fill="white" stroke="#666666" points="1188,-118 1042,-118 1042,-77 1188,-77 1188,-118"/>
<text text-anchor="start" x="1050" y="-106" font-family="Helvetica,sans-Serif" font-size="10.00">/home/runner/work/realm</text>
<text text-anchor="start" x="1050" y="-95" font-family="Helvetica,sans-Serif" font-size="10.00">/realm/realm&#45;src/src/realm</text>
<text text-anchor="middle" x="1115" y="-84" font-family="Helvetica,sans-Serif" font-size="10.00">/cuda/cuda_internal.h</text>
</a>
</g>
</g>
<!-- Node3&#45;&gt;Node4 -->
<g id="edge3_Node000003_Node000004" class="edge">
<title>Node3&#45;&gt;Node4</title>
<g id="a_edge3_Node000003_Node000004"><a xlink:title=" ">
<path fill="none" stroke="#63b8ff" d="M691.27,-165.21C777.24,-156.04 915.08,-139.66 1033,-118 1035.88,-117.47 1038.81,-116.91 1041.76,-116.31"/>
<polygon fill="#63b8ff" stroke="#63b8ff" points="690.88,-161.73 681.31,-166.26 691.62,-168.69 690.88,-161.73"/>
</a>
</g>
</g>
<!-- Node5 -->
<g id="Node000005" class="node">
<title>Node5</title>
<g id="a_Node000005"><a xlink:href="hdf5__internal_8h.html" target="_top" xlink:title=" ">
<polygon fill="white" stroke="#666666" points="575,-41 429,-41 429,0 575,0 575,-41"/>
<text text-anchor="start" x="437" y="-29" font-family="Helvetica,sans-Serif" font-size="10.00">/home/runner/work/realm</text>
<text text-anchor="start" x="437" y="-18" font-family="Helvetica,sans-Serif" font-size="10.00">/realm/realm&#45;src/src/realm</text>
<text text-anchor="middle" x="502" y="-7" font-family="Helvetica,sans-Serif" font-size="10.00">/hdf5/hdf5_internal.h</text>
</a>
</g>
</g>
<!-- Node3&#45;&gt;Node5 -->
<g id="edge4_Node000003_Node000005" class="edge">
<title>Node3&#45;&gt;Node5</title>
<g id="a_edge4_Node000003_Node000005"><a xlink:title=" ">
<path fill="none" stroke="#63b8ff" d="M553.93,-148.51C541.44,-140.41 529.37,-130.27 521,-118 505.31,-95.01 501.9,-62.17 501.49,-41.35"/>
<polygon fill="#63b8ff" stroke="#63b8ff" points="552.25,-151.59 562.61,-153.8 555.89,-145.61 552.25,-151.59"/>
</a>
</g>
</g>
<!-- Node6 -->
<g id="Node000006" class="node">
<title>Node6</title>
<g id="a_Node000006"><a xlink:href="hip__internal_8h.html" target="_top" xlink:title=" ">
<polygon fill="white" stroke="#666666" points="1024,-118 878,-118 878,-77 1024,-77 1024,-118"/>
<text text-anchor="start" x="886" y="-106" font-family="Helvetica,sans-Serif" font-size="10.00">/home/runner/work/realm</text>
<text text-anchor="start" x="886" y="-95" font-family="Helvetica,sans-Serif" font-size="10.00">/realm/realm&#45;src/src/realm</text>
<text text-anchor="middle" x="951" y="-84" font-family="Helvetica,sans-Serif" font-size="10.00">/hip/hip_internal.h</text>
</a>
</g>
</g>
<!-- Node3&#45;&gt;Node6 -->
<g id="edge5_Node000003_Node000006" class="edge">
<title>Node3&#45;&gt;Node6</title>
<g id="a_edge5_Node000003_Node000006"><a xlink:title=" ">
<path fill="none" stroke="#63b8ff" d="M691.27,-156.32C742.58,-145.61 809.68,-131.36 869,-118 871.86,-117.36 874.76,-116.7 877.7,-116.02"/>
<polygon fill="#63b8ff" stroke="#63b8ff" points="690.3,-152.95 681.23,-158.42 691.73,-159.8 690.3,-152.95"/>
</a>
</g>
</g>
<!-- Node7 -->
<g id="Node000007" class="node">
<title>Node7</title>
<g id="a_Node000007"><a xlink:href="addrsplit__channel_8h.html" target="_top" xlink:title=" ">
<polygon fill="white" stroke="#666666" points="686,-118 530,-118 530,-77 686,-77 686,-118"/>
<text text-anchor="start" x="538" y="-106" font-family="Helvetica,sans-Serif" font-size="10.00">/home/runner/work/realm</text>
<text text-anchor="start" x="538" y="-95" font-family="Helvetica,sans-Serif" font-size="10.00">/realm/realm&#45;src/src/realm</text>
<text text-anchor="middle" x="608" y="-84" font-family="Helvetica,sans-Serif" font-size="10.00">/transfer/addrsplit_channel.h</text>
</a>
</g>
</g>
<!-- Node3&#45;&gt;Node7 -->
<g id="edge6_Node000003_Node000007" class="edge">
<title>Node3&#45;&gt;Node7</title>
<g id="a_edge6_Node000003_Node000007"><a xlink:title=" ">
<path fill="none" stroke="#63b8ff" d="M608,-143.69C608,-135.08 608,-125.9 608,-118.07"/>
<polygon fill="#63b8ff" stroke="#63b8ff" points="604.5,-143.79 608,-153.79 611.5,-143.79 604.5,-143.79"/>
</a>
</g>
</g>
<!-- Node8 -->
<g id="Node000008" class="node">
<title>Node8</title>
<g id="a_Node000008"><a xlink:href="channel__disk_8h.html" target="_top" xlink:title=" ">
<polygon fill="white" stroke="#666666" points="310,-118 164,-118 164,-77 310,-77 310,-118"/>
<text text-anchor="start" x="172" y="-106" font-family="Helvetica,sans-Serif" font-size="10.00">/home/runner/work/realm</text>
<text text-anchor="start" x="172" y="-95" font-family="Helvetica,sans-Serif" font-size="10.00">/realm/realm&#45;src/src/realm</text>
<text text-anchor="middle" x="237" y="-84" font-family="Helvetica,sans-Serif" font-size="10.00">/transfer/channel_disk.h</text>
</a>
</g>
</g>
<!-- Node3&#45;&gt;Node8 -->
<g id="edge7_Node000003_Node000008" class="edge">
<title>Node3&#45;&gt;Node8</title>
<g id="a_edge7_Node000003_Node000008"><a xlink:title=" ">
<path fill="none" stroke="#63b8ff" d="M524.59,-158.48C466.76,-147.82 388.03,-132.83 319,-118 316.14,-117.39 313.22,-116.75 310.28,-116.09"/>
<polygon fill="#63b8ff" stroke="#63b8ff" points="524.31,-161.99 534.77,-160.35 525.57,-155.1 524.31,-161.99"/>
</a>
</g>
</g>
<!-- Node3&#45;&gt;Node9 -->
<g id="edge8_Node000003_Node000009" class="edge">
<title>Node3&#45;&gt;Node9</title>
<g id="a_edge8_Node000003_Node000009"><a xlink:title=" ">
<path fill="none" stroke="#63b8ff" d="M524.42,-164.39C413.58,-152.12 223.91,-130.38 155,-118 152.12,-117.48 149.19,-116.93 146.23,-116.34"/>
<polygon fill="#63b8ff" stroke="#63b8ff" points="524.24,-167.89 534.57,-165.51 525.01,-160.94 524.24,-167.89"/>
</a>
</g>
</g>
<!-- Node10 -->
<g id="Node000010" class="node">
<title>Node10</title>
<g id="a_Node000010"><a xlink:href="memcpy__channel_8h.html" target="_top" xlink:title=" ">
<polygon fill="white" stroke="#666666" points="860,-118 704,-118 704,-77 860,-77 860,-118"/>
<text text-anchor="start" x="712" y="-106" font-family="Helvetica,sans-Serif" font-size="10.00">/home/runner/work/realm</text>
<text text-anchor="start" x="712" y="-95" font-family="Helvetica,sans-Serif" font-size="10.00">/realm/realm&#45;src/src/realm</text>
<text text-anchor="middle" x="782" y="-84" font-family="Helvetica,sans-Serif" font-size="10.00">/transfer/memcpy_channel.h</text>
</a>
</g>
</g>
<!-- Node3&#45;&gt;Node10 -->
<g id="edge10_Node000003_Node000010" class="edge">
<title>Node3&#45;&gt;Node10</title>
<g id="a_edge10_Node000003_Node000010"><a xlink:title=" ">
<path fill="none" stroke="#63b8ff" d="M662.53,-150C686.36,-139.72 713.98,-127.82 736.66,-118.04"/>
<polygon fill="#63b8ff" stroke="#63b8ff" points="661.06,-146.82 653.26,-153.99 663.83,-153.25 661.06,-146.82"/>
</a>
</g>
</g>
<!-- Node11 -->
<g id="Node000011" class="node">
<title>Node11</title>
<g id="a_Node000011"><a xlink:href="transfer_8h.html" target="_top" xlink:title=" ">
<polygon fill="white" stroke="#666666" points="474,-118 328,-118 328,-77 474,-77 474,-118"/>
<text text-anchor="start" x="336" y="-106" font-family="Helvetica,sans-Serif" font-size="10.00">/home/runner/work/realm</text>
<text text-anchor="start" x="336" y="-95" font-family="Helvetica,sans-Serif" font-size="10.00">/realm/realm&#45;src/src/realm</text>
<text text-anchor="middle" x="401" y="-84" font-family="Helvetica,sans-Serif" font-size="10.00">/transfer/transfer.h</text>
</a>
</g>
</g>
<!-- Node3&#45;&gt;Node11 -->
<g id="edge11_Node000003_Node000011" class="edge">
<title>Node3&#45;&gt;Node11</title>
<g id="a_edge11_Node000003_Node000011"><a xlink:title=" ">
<path fill="none" stroke="#63b8ff" d="M544.63,-150.54C515.94,-140.15 482.39,-127.99 454.94,-118.04"/>
<polygon fill="#63b8ff" stroke="#63b8ff" points="543.56,-153.87 554.15,-153.99 545.94,-147.29 543.56,-153.87"/>
</a>
</g>
</g>
<!-- Node9&#45;&gt;Node5 -->
<g id="edge9_Node000009_Node000005" class="edge">
<title>Node9&#45;&gt;Node5</title>
<g id="a_edge9_Node000009_Node000005"><a xlink:title=" ">
<path fill="none" stroke="#63b8ff" d="M156.22,-76.82C256.11,-57.25 360.79,-41.32 428.94,-31.56"/>
<polygon fill="#63b8ff" stroke="#63b8ff" points="155.39,-73.42 146.26,-78.79 156.75,-80.29 155.39,-73.42"/>
</a>
</g>
</g>
<!-- Node12&#45;&gt;Node2 -->
<g id="edge17_Node000012_Node000002" class="edge">
<title>Node12&#45;&gt;Node2</title>
<g id="a_edge17_Node000012_Node000002"><a xlink:title=" ">
<path fill="none" stroke="#63b8ff" d="M764.83,-310.17C713.98,-299.45 647.66,-285.26 589,-272 586.15,-271.35 583.24,-270.69 580.3,-270.02"/>
<polygon fill="#63b8ff" stroke="#63b8ff" points="764.27,-313.63 774.78,-312.27 765.72,-306.78 764.27,-313.63"/>
</a>
</g>
</g>
<!-- Node12&#45;&gt;Node3 -->
<g id="edge18_Node000012_Node000003" class="edge">
<title>Node12&#45;&gt;Node3</title>
<g id="a_edge18_Node000012_Node000003"><a xlink:title=" ">
<path fill="none" stroke="#63b8ff" d="M822.21,-300.13C796.9,-273.48 760.97,-236.21 753,-231 729.88,-215.87 702.03,-203.96 676.94,-195.12"/>
<polygon fill="#63b8ff" stroke="#63b8ff" points="819.94,-302.83 829.35,-307.68 825.02,-298.01 819.94,-302.83"/>
</a>
</g>
</g>
<!-- Node12&#45;&gt;Node4 -->
<g id="edge14_Node000012_Node000004" class="edge">
<title>Node12&#45;&gt;Node4</title>
<g id="a_edge14_Node000012_Node000004"><a xlink:title=" ">
<path fill="none" stroke="#63b8ff" d="M931.42,-315.17C970.49,-306.92 1016.55,-293.5 1054,-272 1096.25,-247.75 1113.21,-239.94 1132,-195 1142.56,-169.73 1133.12,-138.08 1124.65,-118.06"/>
<polygon fill="#63b8ff" stroke="#63b8ff" points="930.23,-311.84 921.13,-317.26 931.63,-318.7 930.23,-311.84"/>
</a>
</g>
</g>
<!-- Node12&#45;&gt;Node5 -->
<g id="edge15_Node000012_Node000005" class="edge">
<title>Node12&#45;&gt;Node5</title>
<g id="a_edge15_Node000012_Node000005"><a xlink:title=" ">
<path fill="none" stroke="#63b8ff" d="M931.58,-317.4C1166.47,-287.4 1808.36,-193.65 1697,-77 1658.17,-36.32 829.39,-24.75 575.36,-22.15"/>
<polygon fill="#63b8ff" stroke="#63b8ff" points="930.86,-313.96 921.38,-318.69 931.74,-320.9 930.86,-313.96"/>
</a>
</g>
</g>
<!-- Node12&#45;&gt;Node6 -->
<g id="edge16_Node000012_Node000006" class="edge">
<title>Node12&#45;&gt;Node6</title>
<g id="a_edge16_Node000012_Node000006"><a xlink:title=" ">
<path fill="none" stroke="#63b8ff" d="M851,-297.55C853.64,-278.07 858.46,-252.41 867,-231 884.26,-187.74 915.94,-143.16 935.08,-118.32"/>
<polygon fill="#63b8ff" stroke="#63b8ff" points="847.5,-297.32 849.74,-307.67 854.44,-298.18 847.5,-297.32"/>
</a>
</g>
</g>
<!-- Node12&#45;&gt;Node10 -->
<g id="edge23_Node000012_Node000010" class="edge">
<title>Node12&#45;&gt;Node10</title>
<g id="a_edge23_Node000012_Node000010"><a xlink:title=" ">
<path fill="none" stroke="#63b8ff" d="M839.59,-298.32C825.95,-251 799.36,-158.74 787.71,-118.3"/>
<polygon fill="#63b8ff" stroke="#63b8ff" points="836.24,-299.34 842.37,-307.98 842.97,-297.4 836.24,-299.34"/>
</a>
</g>
</g>
<!-- Node13 -->
<g id="Node000013" class="node">
<title>Node13</title>
<g id="a_Node000013"><a xlink:href="ib__memory_8h.html" target="_top" xlink:title=" ">
<polygon fill="white" stroke="#666666" points="1022,-272 876,-272 876,-231 1022,-231 1022,-272"/>
<text text-anchor="start" x="884" y="-260" font-family="Helvetica,sans-Serif" font-size="10.00">/home/runner/work/realm</text>
<text text-anchor="start" x="884" y="-249" font-family="Helvetica,sans-Serif" font-size="10.00">/realm/realm&#45;src/src/realm</text>
<text text-anchor="middle" x="949" y="-238" font-family="Helvetica,sans-Serif" font-size="10.00">/transfer/ib_memory.h</text>
</a>
</g>
</g>
<!-- Node12&#45;&gt;Node13 -->
<g id="edge19_Node000012_Node000013" class="edge">
<title>Node12&#45;&gt;Node13</title>
<g id="a_edge19_Node000012_Node000013"><a xlink:title=" ">
<path fill="none" stroke="#63b8ff" d="M882.59,-301.82C895.65,-292.11 910.3,-281.24 922.51,-272.17"/>
<polygon fill="#63b8ff" stroke="#63b8ff" points="880.21,-299.22 874.27,-307.99 884.39,-304.84 880.21,-299.22"/>
</a>
</g>
</g>
<!-- Node14 -->
<g id="Node000014" class="node">
<title>Node14</title>
<g id="a_Node000014"><a xlink:href="ucp__internal_8h.html" target="_top" xlink:title=" ">
<polygon fill="white" stroke="#666666" points="1123,-195 977,-195 977,-154 1123,-154 1123,-195"/>
<text text-anchor="start" x="985" y="-183" font-family="Helvetica,sans-Serif" font-size="10.00">/home/runner/work/realm</text>
<text text-anchor="start" x="985" y="-172" font-family="Helvetica,sans-Serif" font-size="10.00">/realm/realm&#45;src/src/realm</text>
<text text-anchor="middle" x="1050" y="-161" font-family="Helvetica,sans-Serif" font-size="10.00">/ucx/ucp_internal.h</text>
</a>
</g>
</g>
<!-- Node12&#45;&gt;Node14 -->
<g id="edge24_Node000012_Node000014" class="edge">
<title>Node12&#45;&gt;Node14</title>
<g id="a_edge24_Node000012_Node000014"><a xlink:title=" ">
<path fill="none" stroke="#63b8ff" d="M931.2,-321.09C966.68,-314.09 1005.65,-300.02 1031,-272 1050.02,-250.98 1052.36,-216.64 1051.66,-195.1"/>
<polygon fill="#63b8ff" stroke="#63b8ff" points="930.52,-317.65 921.3,-322.88 931.77,-324.54 930.52,-317.65"/>
</a>
</g>
</g>
<!-- Node13&#45;&gt;Node4 -->
<g id="edge20_Node000013_Node000004" class="edge">
<title>Node13&#45;&gt;Node4</title>
<g id="a_edge20_Node000013_Node000004"><a xlink:title=" ">
<path fill="none" stroke="#63b8ff" d="M947.65,-220.48C948.3,-199.6 952.51,-172.32 968,-154 978.66,-141.4 1012.08,-128.31 1044.37,-118.01"/>
<polygon fill="#63b8ff" stroke="#63b8ff" points="944.15,-220.72 947.6,-230.74 951.15,-220.76 944.15,-220.72"/>
</a>
</g>
</g>
<!-- Node13&#45;&gt;Node6 -->
<g id="edge21_Node000013_Node000006" class="edge">
<title>Node13&#45;&gt;Node6</title>
<g id="a_edge21_Node000013_Node000006"><a xlink:title=" ">
<path fill="none" stroke="#63b8ff" d="M940.18,-221.22C938.04,-212.83 936.07,-203.62 935,-195 932.75,-176.92 932.45,-172.04 935,-154 936.71,-141.89 940.43,-128.71 943.84,-118.24"/>
<polygon fill="#63b8ff" stroke="#63b8ff" points="936.82,-222.21 942.81,-230.95 943.58,-220.38 936.82,-222.21"/>
</a>
</g>
</g>
<!-- Node13&#45;&gt;Node14 -->
<g id="edge22_Node000013_Node000014" class="edge">
<title>Node13&#45;&gt;Node14</title>
<g id="a_edge22_Node000013_Node000014"><a xlink:title=" ">
<path fill="none" stroke="#63b8ff" d="M983.59,-224.82C996.65,-215.11 1011.3,-204.24 1023.51,-195.17"/>
<polygon fill="#63b8ff" stroke="#63b8ff" points="981.21,-222.22 975.27,-230.99 985.39,-227.84 981.21,-222.22"/>
</a>
</g>
</g>
<!-- Node15&#45;&gt;Node4 -->
<g id="edge26_Node000015_Node000004" class="edge">
<title>Node15&#45;&gt;Node4</title>
<g id="a_edge26_Node000015_Node000004"><a xlink:title=" ">
<path fill="none" stroke="#63b8ff" d="M1207.35,-149.06C1189.07,-139.05 1168.2,-127.63 1150.93,-118.17"/>
<polygon fill="#63b8ff" stroke="#63b8ff" points="1205.91,-152.26 1216.36,-153.99 1209.27,-146.12 1205.91,-152.26"/>
</a>
</g>
</g>
<!-- Node15&#45;&gt;Node6 -->
<g id="edge27_Node000015_Node000006" class="edge">
<title>Node15&#45;&gt;Node6</title>
<g id="a_edge27_Node000015_Node000006"><a xlink:title=" ">
<path fill="none" stroke="#63b8ff" d="M1168.93,-152.8C1123.52,-141.49 1067.79,-127.6 1024.05,-116.7"/>
<polygon fill="#63b8ff" stroke="#63b8ff" points="1168.2,-156.23 1178.75,-155.25 1169.89,-149.43 1168.2,-156.23"/>
</a>
</g>
</g>
<!-- Node16 -->
<g id="Node000016" class="node">
<title>Node16</title>
<g id="a_Node000016"><a xlink:href="kokkos__interop_8h.html" target="_top" xlink:title=" ">
<polygon fill="white" stroke="#666666" points="1516,-118 1370,-118 1370,-77 1516,-77 1516,-118"/>
<text text-anchor="start" x="1378" y="-106" font-family="Helvetica,sans-Serif" font-size="10.00">/home/runner/work/realm</text>
<text text-anchor="start" x="1378" y="-95" font-family="Helvetica,sans-Serif" font-size="10.00">/realm/realm&#45;src/src/realm</text>
<text text-anchor="middle" x="1443" y="-84" font-family="Helvetica,sans-Serif" font-size="10.00">/kokkos/kokkos_interop.h</text>
</a>
</g>
</g>
<!-- Node15&#45;&gt;Node16 -->
<g id="edge28_Node000015_Node000016" class="edge">
<title>Node15&#45;&gt;Node16</title>
<g id="a_edge28_Node000015_Node000016"><a xlink:title=" ">
<path fill="none" stroke="#63b8ff" d="M1311.17,-150.27C1337.48,-139.94 1368.12,-127.9 1393.23,-118.04"/>
<polygon fill="#63b8ff" stroke="#63b8ff" points="1309.71,-147.08 1301.68,-153.99 1312.27,-153.59 1309.71,-147.08"/>
</a>
</g>
</g>
<!-- Node17 -->
<g id="Node000017" class="node">
<title>Node17</title>
<g id="a_Node000017"><a xlink:href="openmp__internal_8h.html" target="_top" xlink:title=" ">
<polygon fill="white" stroke="#666666" points="1688,-118 1534,-118 1534,-77 1688,-77 1688,-118"/>
<text text-anchor="start" x="1542" y="-106" font-family="Helvetica,sans-Serif" font-size="10.00">/home/runner/work/realm</text>
<text text-anchor="start" x="1542" y="-95" font-family="Helvetica,sans-Serif" font-size="10.00">/realm/realm&#45;src/src/realm</text>
<text text-anchor="middle" x="1611" y="-84" font-family="Helvetica,sans-Serif" font-size="10.00">/openmp/openmp_internal.h</text>
</a>
</g>
</g>
<!-- Node15&#45;&gt;Node17 -->
<g id="edge29_Node000015_Node000017" class="edge">
<title>Node15&#45;&gt;Node17</title>
<g id="a_edge29_Node000015_Node000017"><a xlink:title=" ">
<path fill="none" stroke="#63b8ff" d="M1334.99,-157.13C1389.14,-146.33 1461.34,-131.69 1525,-118 1527.84,-117.39 1530.74,-116.76 1533.66,-116.12"/>
<polygon fill="#63b8ff" stroke="#63b8ff" points="1334.22,-153.72 1325.09,-159.1 1335.58,-160.58 1334.22,-153.72"/>
</a>
</g>
</g>
<!-- Node18 -->
<g id="Node000018" class="node">
<title>Node18</title>
<g id="a_Node000018"><a xlink:href="python__internal_8h.html" target="_top" xlink:title=" ">
<polygon fill="white" stroke="#666666" points="1352,-118 1206,-118 1206,-77 1352,-77 1352,-118"/>
<text text-anchor="start" x="1214" y="-106" font-family="Helvetica,sans-Serif" font-size="10.00">/home/runner/work/realm</text>
<text text-anchor="start" x="1214" y="-95" font-family="Helvetica,sans-Serif" font-size="10.00">/realm/realm&#45;src/src/realm</text>
<text text-anchor="middle" x="1279" y="-84" font-family="Helvetica,sans-Serif" font-size="10.00">/python/python_internal.h</text>
</a>
</g>
</g>
<!-- Node15&#45;&gt;Node18 -->
<g id="edge30_Node000015_Node000018" class="edge">
<title>Node15&#45;&gt;Node18</title>
<g id="a_edge30_Node000015_Node000018"><a xlink:title=" ">
<path fill="none" stroke="#63b8ff" d="M1262.53,-144.26C1265.69,-135.48 1269.08,-126.07 1271.95,-118.07"/>
<polygon fill="#63b8ff" stroke="#63b8ff" points="1259.19,-143.2 1259.09,-153.79 1265.77,-145.57 1259.19,-143.2"/>
</a>
</g>
</g>
<!-- Node19&#45;&gt;Node3 -->
<g id="edge33_Node000019_Node000003" class="edge">
<title>Node19&#45;&gt;Node3</title>
<g id="a_edge33_Node000019_Node000003"><a xlink:title=" ">
<path fill="none" stroke="#63b8ff" d="M647.86,-222.95C640.09,-213.7 631.59,-203.58 624.44,-195.07"/>
<polygon fill="#63b8ff" stroke="#63b8ff" points="645.34,-225.39 654.45,-230.79 650.7,-220.89 645.34,-225.39"/>
</a>
</g>
</g>
<!-- Node19&#45;&gt;Node9 -->
<g id="edge34_Node000019_Node000009" class="edge">
<title>Node19&#45;&gt;Node9</title>
<g id="a_edge34_Node000019_Node000009"><a xlink:title=" ">
<path fill="none" stroke="#63b8ff" d="M588.58,-228.29C514.28,-208.4 401.98,-178.65 304,-154 274.45,-146.57 202.06,-129.23 146.13,-115.89"/>
<polygon fill="#63b8ff" stroke="#63b8ff" points="587.79,-231.7 598.35,-230.91 589.6,-224.94 587.79,-231.7"/>
</a>
</g>
</g>
<!-- Node19&#45;&gt;Node15 -->
<g id="edge32_Node000019_Node000015" class="edge">
<title>Node19&#45;&gt;Node15</title>
<g id="a_edge32_Node000019_Node000015"><a xlink:title=" ">
<path fill="none" stroke="#63b8ff" d="M754.31,-241.52C846.74,-231.31 1000.25,-213.63 1132,-195 1147.15,-192.86 1163.35,-190.36 1178.78,-187.89"/>
<polygon fill="#63b8ff" stroke="#63b8ff" points="753.73,-238.06 744.18,-242.63 754.5,-245.02 753.73,-238.06"/>
</a>
</g>
</g>
</g>
</svg>
