<?xml version="1.0" encoding="UTF-8" standalone="no"?>
<!DOCTYPE svg PUBLIC "-//W3C//DTD SVG 1.1//EN"
 "http://www.w3.org/Graphics/SVG/1.1/DTD/svg11.dtd">
<!-- Generated by graphviz version 2.43.0 (0)
 -->
<!-- Title: /home/runner/work/realm/realm/realm&#45;src/src/realm/runtime.h Pages: 1 -->
<svg width="1573pt" height="379pt"
 viewBox="0.00 0.00 1572.50 379.00" xmlns="http://www.w3.org/2000/svg" xmlns:xlink="http://www.w3.org/1999/xlink">
<g id="graph0" class="graph" transform="scale(1 1) rotate(0) translate(4 375)">
<title>/home/runner/work/realm/realm/realm&#45;src/src/realm/runtime.h</title>
<!-- Node1 -->
<g id="Node000001" class="node">
<title>Node1</title>
<g id="a_Node000001"><a xlink:title=" ">
<polygon fill="#999999" stroke="#666666" points="850,-371 704,-371 704,-330 850,-330 850,-371"/>
<text text-anchor="start" x="712" y="-359" font-family="Helvetica,sans-Serif" font-size="10.00">/home/runner/work/realm</text>
<text text-anchor="start" x="712" y="-348" font-family="Helvetica,sans-Serif" font-size="10.00">/realm/realm&#45;src/src/realm</text>
<text text-anchor="middle" x="777" y="-337" font-family="Helvetica,sans-Serif" font-size="10.00">/runtime.h</text>
</a>
</g>
</g>
<!-- Node2 -->
<g id="Node000002" class="node">
<title>Node2</title>
<g id="a_Node000002"><a xlink:href="processor_8h.html" target="_top" xlink:title=" ">
<polygon fill="white" stroke="#666666" points="692,-294 588,-294 588,-275 692,-275 692,-294"/>
<text text-anchor="middle" x="640" y="-282" font-family="Helvetica,sans-Serif" font-size="10.00">realm/processor.h</text>
</a>
</g>
</g>
<!-- Node1&#45;&gt;Node2 -->
<g id="edge1_Node000001_Node000002" class="edge">
<title>Node1&#45;&gt;Node2</title>
<g id="a_edge1_Node000001_Node000002"><a xlink:title=" ">
<path fill="none" stroke="#63b8ff" d="M735.15,-329.95C713.21,-319.7 686.94,-307.43 667.57,-298.38"/>
<polygon fill="#63b8ff" stroke="#63b8ff" points="668.93,-295.15 658.39,-294.09 665.97,-301.5 668.93,-295.15"/>
</a>
</g>
</g>
<!-- Node24 -->
<g id="Node000024" class="node">
<title>Node24</title>
<g id="a_Node000024"><a xlink:href="redop_8h.html" target="_top" xlink:title=" ">
<polygon fill="white" stroke="#666666" points="1465.5,-294 1380.5,-294 1380.5,-275 1465.5,-275 1465.5,-294"/>
<text text-anchor="middle" x="1423" y="-282" font-family="Helvetica,sans-Serif" font-size="10.00">realm/redop.h</text>
</a>
</g>
</g>
<!-- Node1&#45;&gt;Node24 -->
<g id="edge31_Node000001_Node000024" class="edge">
<title>Node1&#45;&gt;Node24</title>
<g id="a_edge31_Node000001_Node000024"><a xlink:title=" ">
<path fill="none" stroke="#63b8ff" d="M850.16,-342.25C981.79,-329.21 1255.5,-302.09 1370.41,-290.71"/>
<polygon fill="#63b8ff" stroke="#63b8ff" points="1370.77,-294.19 1380.38,-289.72 1370.08,-287.23 1370.77,-294.19"/>
</a>
</g>
</g>
<!-- Node27 -->
<g id="Node000027" class="node">
<title>Node27</title>
<g id="a_Node000027"><a xlink:href="custom__serdez_8h.html" target="_top" xlink:title=" ">
<polygon fill="white" stroke="#666666" points="1018.5,-294 887.5,-294 887.5,-275 1018.5,-275 1018.5,-294"/>
<text text-anchor="middle" x="953" y="-282" font-family="Helvetica,sans-Serif" font-size="10.00">realm/custom_serdez.h</text>
</a>
</g>
</g>
<!-- Node1&#45;&gt;Node27 -->
<g id="edge35_Node000001_Node000027" class="edge">
<title>Node1&#45;&gt;Node27</title>
<g id="a_edge35_Node000001_Node000027"><a xlink:title=" ">
<path fill="none" stroke="#63b8ff" d="M830.76,-329.95C859.86,-319.37 894.86,-306.64 919.95,-297.52"/>
<polygon fill="#63b8ff" stroke="#63b8ff" points="921.17,-300.8 929.37,-294.09 918.78,-294.22 921.17,-300.8"/>
</a>
</g>
</g>
<!-- Node36 -->
<g id="Node000036" class="node">
<title>Node36</title>
<g id="a_Node000036"><a xlink:href="module__config_8h.html" target="_top" xlink:title=" ">
<polygon fill="white" stroke="#666666" points="394,-184 266,-184 266,-165 394,-165 394,-184"/>
<text text-anchor="middle" x="330" y="-172" font-family="Helvetica,sans-Serif" font-size="10.00">realm/module_config.h</text>
</a>
</g>
</g>
<!-- Node1&#45;&gt;Node36 -->
<g id="edge52_Node000001_Node000036" class="edge">
<title>Node1&#45;&gt;Node36</title>
<g id="a_edge52_Node000001_Node000036"><a xlink:title=" ">
<path fill="none" stroke="#63b8ff" d="M703.93,-331.29C666.27,-321.34 619.81,-308.16 579,-294 518.96,-273.16 504.34,-266.42 447,-239 413.83,-223.14 376.71,-202.47 353.35,-189.09"/>
<polygon fill="#63b8ff" stroke="#63b8ff" points="354.94,-185.97 344.52,-184.01 351.44,-192.03 354.94,-185.97"/>
</a>
</g>
</g>
<!-- Node3 -->
<g id="Node000003" class="node">
<title>Node3</title>
<g id="a_Node000003"><a xlink:href="realm__c_8h.html" target="_top" xlink:title=" ">
<polygon fill="white" stroke="#666666" points="212,-129 116,-129 116,-110 212,-110 212,-129"/>
<text text-anchor="middle" x="164" y="-117" font-family="Helvetica,sans-Serif" font-size="10.00">realm/realm_c.h</text>
</a>
</g>
</g>
<!-- Node2&#45;&gt;Node3 -->
<g id="edge2_Node000002_Node000003" class="edge">
<title>Node2&#45;&gt;Node3</title>
<g id="a_edge2_Node000002_Node000003"><a xlink:title=" ">
<path fill="none" stroke="#63b8ff" d="M587.67,-281.58C503.74,-276.34 336.49,-256.79 218,-184 199.39,-172.57 183.95,-152.54 174.42,-138.03"/>
<polygon fill="#63b8ff" stroke="#63b8ff" points="177.31,-136.05 169.03,-129.44 171.37,-139.77 177.31,-136.05"/>
</a>
</g>
</g>
<!-- Node9 -->
<g id="Node000009" class="node">
<title>Node9</title>
<g id="a_Node000009"><a xlink:href="event_8h.html" target="_top" xlink:title=" ">
<polygon fill="white" stroke="#666666" points="541.5,-239 456.5,-239 456.5,-220 541.5,-220 541.5,-239"/>
<text text-anchor="middle" x="499" y="-227" font-family="Helvetica,sans-Serif" font-size="10.00">realm/event.h</text>
</a>
</g>
</g>
<!-- Node2&#45;&gt;Node9 -->
<g id="edge8_Node000002_Node000009" class="edge">
<title>Node2&#45;&gt;Node9</title>
<g id="a_edge8_Node000002_Node000009"><a xlink:title=" ">
<path fill="none" stroke="#63b8ff" d="M617.35,-274.98C594.15,-266.27 557.88,-252.63 531.6,-242.75"/>
<polygon fill="#63b8ff" stroke="#63b8ff" points="532.66,-239.41 522.07,-239.17 530.2,-245.97 532.66,-239.41"/>
</a>
</g>
</g>
<!-- Node13 -->
<g id="Node000013" class="node">
<title>Node13</title>
<g id="a_Node000013"><a xlink:title=" ">
<polygon fill="#e0e0e0" stroke="#999999" points="579.5,-129 532.5,-129 532.5,-110 579.5,-110 579.5,-129"/>
<text text-anchor="middle" x="556" y="-117" font-family="Helvetica,sans-Serif" font-size="10.00">vector</text>
</a>
</g>
</g>
<!-- Node2&#45;&gt;Node13 -->
<g id="edge28_Node000002_Node000013" class="edge">
<title>Node2&#45;&gt;Node13</title>
<g id="a_edge28_Node000002_Node000013"><a xlink:title=" ">
<path fill="none" stroke="#63b8ff" d="M638.6,-274.87C635,-254.47 624.03,-202.2 601,-165 594.18,-153.99 584.1,-143.68 575.2,-135.76"/>
<polygon fill="#63b8ff" stroke="#63b8ff" points="577.38,-133.02 567.5,-129.21 572.85,-138.36 577.38,-133.02"/>
</a>
</g>
</g>
<!-- Node14 -->
<g id="Node000014" class="node">
<title>Node14</title>
<g id="a_Node000014"><a xlink:title=" ">
<polygon fill="#e0e0e0" stroke="#999999" points="1164,-129 1126,-129 1126,-110 1164,-110 1164,-129"/>
<text text-anchor="middle" x="1145" y="-117" font-family="Helvetica,sans-Serif" font-size="10.00">map</text>
</a>
</g>
</g>
<!-- Node2&#45;&gt;Node14 -->
<g id="edge29_Node000002_Node000014" class="edge">
<title>Node2&#45;&gt;Node14</title>
<g id="a_edge29_Node000002_Node000014"><a xlink:title=" ">
<path fill="none" stroke="#63b8ff" d="M642.74,-274.96C647.66,-261.11 659.34,-233.87 679,-220 742.11,-175.48 773.47,-200.1 849,-184 946.86,-163.14 1062.88,-138.19 1115.92,-126.77"/>
<polygon fill="#63b8ff" stroke="#63b8ff" points="1116.92,-130.13 1125.96,-124.6 1115.44,-123.29 1116.92,-130.13"/>
</a>
</g>
</g>
<!-- Node23 -->
<g id="Node000023" class="node">
<title>Node23</title>
<g id="a_Node000023"><a xlink:title=" ">
<polygon fill="#e0e0e0" stroke="#999999" points="798,-239 688,-239 688,-220 798,-220 798,-239"/>
<text text-anchor="middle" x="743" y="-227" font-family="Helvetica,sans-Serif" font-size="10.00">realm/processor.inl</text>
</a>
</g>
</g>
<!-- Node2&#45;&gt;Node23 -->
<g id="edge30_Node000002_Node000023" class="edge">
<title>Node2&#45;&gt;Node23</title>
<g id="a_edge30_Node000002_Node000023"><a xlink:title=" ">
<path fill="none" stroke="#63b8ff" d="M656.55,-274.98C672.89,-266.57 698.13,-253.59 717.13,-243.81"/>
<polygon fill="#63b8ff" stroke="#63b8ff" points="718.86,-246.86 726.15,-239.17 715.66,-240.63 718.86,-246.86"/>
</a>
</g>
</g>
<!-- Node4 -->
<g id="Node000004" class="node">
<title>Node4</title>
<g id="a_Node000004"><a xlink:href="realm__config_8h.html" target="_top" xlink:title=" ">
<polygon fill="white" stroke="#666666" points="1158,-74 1038,-74 1038,-55 1158,-55 1158,-74"/>
<text text-anchor="middle" x="1098" y="-62" font-family="Helvetica,sans-Serif" font-size="10.00">realm/realm_config.h</text>
</a>
</g>
</g>
<!-- Node3&#45;&gt;Node4 -->
<g id="edge3_Node000003_Node000004" class="edge">
<title>Node3&#45;&gt;Node4</title>
<g id="a_edge3_Node000003_Node000004"><a xlink:title=" ">
<path fill="none" stroke="#63b8ff" d="M212.16,-110.98C215.15,-110.62 218.11,-110.29 221,-110 519.88,-80.2 878.17,-69.91 1027.39,-66.75"/>
<polygon fill="#63b8ff" stroke="#63b8ff" points="1027.85,-70.24 1037.77,-66.54 1027.7,-63.25 1027.85,-70.24"/>
</a>
</g>
</g>
<!-- Node7 -->
<g id="Node000007" class="node">
<title>Node7</title>
<g id="a_Node000007"><a xlink:title=" ">
<polygon fill="#e0e0e0" stroke="#999999" points="451,-74 395,-74 395,-55 451,-55 451,-74"/>
<text text-anchor="middle" x="423" y="-62" font-family="Helvetica,sans-Serif" font-size="10.00">stddef.h</text>
</a>
</g>
</g>
<!-- Node3&#45;&gt;Node7 -->
<g id="edge6_Node000003_Node000007" class="edge">
<title>Node3&#45;&gt;Node7</title>
<g id="a_edge6_Node000003_Node000007"><a xlink:title=" ">
<path fill="none" stroke="#63b8ff" d="M205.61,-109.98C255.04,-99.87 336.8,-83.14 384.72,-73.33"/>
<polygon fill="#63b8ff" stroke="#63b8ff" points="385.6,-76.73 394.69,-71.29 384.19,-69.87 385.6,-76.73"/>
</a>
</g>
</g>
<!-- Node8 -->
<g id="Node000008" class="node">
<title>Node8</title>
<g id="a_Node000008"><a xlink:title=" ">
<polygon fill="#e0e0e0" stroke="#999999" points="190.5,-74 137.5,-74 137.5,-55 190.5,-55 190.5,-74"/>
<text text-anchor="middle" x="164" y="-62" font-family="Helvetica,sans-Serif" font-size="10.00">stdint.h</text>
</a>
</g>
</g>
<!-- Node3&#45;&gt;Node8 -->
<g id="edge7_Node000003_Node000008" class="edge">
<title>Node3&#45;&gt;Node8</title>
<g id="a_edge7_Node000003_Node000008"><a xlink:title=" ">
<path fill="none" stroke="#63b8ff" d="M164,-109.75C164,-102.8 164,-92.85 164,-84.13"/>
<polygon fill="#63b8ff" stroke="#63b8ff" points="167.5,-84.09 164,-74.09 160.5,-84.09 167.5,-84.09"/>
</a>
</g>
</g>
<!-- Node5 -->
<g id="Node000005" class="node">
<title>Node5</title>
<g id="a_Node000005"><a xlink:href="realm__defines_8h.html" target="_top" xlink:title=" ">
<polygon fill="white" stroke="#666666" points="1077.5,-19 982.5,-19 982.5,0 1077.5,0 1077.5,-19"/>
<text text-anchor="middle" x="1030" y="-7" font-family="Helvetica,sans-Serif" font-size="10.00">realm_defines.h</text>
</a>
</g>
</g>
<!-- Node4&#45;&gt;Node5 -->
<g id="edge4_Node000004_Node000005" class="edge">
<title>Node4&#45;&gt;Node5</title>
<g id="a_edge4_Node000004_Node000005"><a xlink:title=" ">
<path fill="none" stroke="#63b8ff" d="M1087.07,-54.98C1076.92,-47.07 1061.58,-35.11 1049.35,-25.58"/>
<polygon fill="#63b8ff" stroke="#63b8ff" points="1051.16,-22.56 1041.12,-19.17 1046.86,-28.08 1051.16,-22.56"/>
</a>
</g>
</g>
<!-- Node6 -->
<g id="Node000006" class="node">
<title>Node6</title>
<g id="a_Node000006"><a xlink:href="compiler__support_8h.html" target="_top" xlink:title=" ">
<polygon fill="white" stroke="#666666" points="1238,-19 1096,-19 1096,0 1238,0 1238,-19"/>
<text text-anchor="middle" x="1167" y="-7" font-family="Helvetica,sans-Serif" font-size="10.00">realm/compiler_support.h</text>
</a>
</g>
</g>
<!-- Node4&#45;&gt;Node6 -->
<g id="edge5_Node000004_Node000006" class="edge">
<title>Node4&#45;&gt;Node6</title>
<g id="a_edge5_Node000004_Node000006"><a xlink:title=" ">
<path fill="none" stroke="#63b8ff" d="M1109.09,-54.98C1119.49,-47 1135.26,-34.88 1147.72,-25.31"/>
<polygon fill="#63b8ff" stroke="#63b8ff" points="1149.91,-28.04 1155.71,-19.17 1145.65,-22.49 1149.91,-28.04"/>
</a>
</g>
</g>
<!-- Node9&#45;&gt;Node3 -->
<g id="edge9_Node000009_Node000003" class="edge">
<title>Node9&#45;&gt;Node3</title>
<g id="a_edge9_Node000009_Node000003"><a xlink:title=" ">
<path fill="none" stroke="#63b8ff" d="M456.4,-226.02C406.85,-221.94 323.36,-211.32 257,-184 228.1,-172.11 199.03,-150.31 181.27,-135.61"/>
<polygon fill="#63b8ff" stroke="#63b8ff" points="183.41,-132.83 173.51,-129.04 178.89,-138.18 183.41,-132.83"/>
</a>
</g>
</g>
<!-- Node10 -->
<g id="Node000010" class="node">
<title>Node10</title>
<g id="a_Node000010"><a xlink:href="utils_8h.html" target="_top" xlink:title=" ">
<polygon fill="white" stroke="#666666" points="840,-184 762,-184 762,-165 840,-165 840,-184"/>
<text text-anchor="middle" x="801" y="-172" font-family="Helvetica,sans-Serif" font-size="10.00">realm/utils.h</text>
</a>
</g>
</g>
<!-- Node9&#45;&gt;Node10 -->
<g id="edge10_Node000009_Node000010" class="edge">
<title>Node9&#45;&gt;Node10</title>
<g id="a_edge10_Node000009_Node000010"><a xlink:title=" ">
<path fill="none" stroke="#63b8ff" d="M541.63,-221.02C597,-211.3 693.46,-194.37 751.85,-184.12"/>
<polygon fill="#63b8ff" stroke="#63b8ff" points="752.7,-187.53 761.94,-182.35 751.49,-180.64 752.7,-187.53"/>
</a>
</g>
</g>
<!-- Node9&#45;&gt;Node13 -->
<g id="edge24_Node000009_Node000013" class="edge">
<title>Node9&#45;&gt;Node13</title>
<g id="a_edge24_Node000009_Node000013"><a xlink:title=" ">
<path fill="none" stroke="#63b8ff" d="M503.66,-219.66C513.06,-201.85 534.43,-161.37 546.76,-138.01"/>
<polygon fill="#63b8ff" stroke="#63b8ff" points="549.86,-139.64 551.43,-129.16 543.67,-136.37 549.86,-139.64"/>
</a>
</g>
</g>
<!-- Node19 -->
<g id="Node000019" class="node">
<title>Node19</title>
<g id="a_Node000019"><a xlink:href="memory_8h.html" target="_top" xlink:title=" ">
<polygon fill="white" stroke="#666666" points="164.5,-184 67.5,-184 67.5,-165 164.5,-165 164.5,-184"/>
<text text-anchor="middle" x="116" y="-172" font-family="Helvetica,sans-Serif" font-size="10.00">realm/memory.h</text>
</a>
</g>
</g>
<!-- Node9&#45;&gt;Node19 -->
<g id="edge20_Node000009_Node000019" class="edge">
<title>Node9&#45;&gt;Node19</title>
<g id="a_edge20_Node000009_Node000019"><a xlink:title=" ">
<path fill="none" stroke="#63b8ff" d="M456.18,-222.57C387.43,-213.06 252.3,-194.36 174.65,-183.62"/>
<polygon fill="#63b8ff" stroke="#63b8ff" points="174.93,-180.12 164.54,-182.22 173.97,-187.06 174.93,-180.12"/>
</a>
</g>
</g>
<!-- Node20 -->
<g id="Node000020" class="node">
<title>Node20</title>
<g id="a_Node000020"><a xlink:title=" ">
<polygon fill="#e0e0e0" stroke="#999999" points="60,-129 0,-129 0,-110 60,-110 60,-129"/>
<text text-anchor="middle" x="30" y="-117" font-family="Helvetica,sans-Serif" font-size="10.00">iostream</text>
</a>
</g>
</g>
<!-- Node9&#45;&gt;Node20 -->
<g id="edge26_Node000009_Node000020" class="edge">
<title>Node9&#45;&gt;Node20</title>
<g id="a_edge26_Node000009_Node000020"><a xlink:title=" ">
<path fill="none" stroke="#63b8ff" d="M456.12,-226.61C351.58,-221.66 89.8,-207.09 58,-184 43.55,-173.51 36.45,-153.88 33.03,-139.21"/>
<polygon fill="#63b8ff" stroke="#63b8ff" points="36.42,-138.34 31.07,-129.19 29.55,-139.68 36.42,-138.34"/>
</a>
</g>
</g>
<!-- Node21 -->
<g id="Node000021" class="node">
<title>Node21</title>
<g id="a_Node000021"><a xlink:title=" ">
<polygon fill="#e0e0e0" stroke="#999999" points="592,-184 560,-184 560,-165 592,-165 592,-184"/>
<text text-anchor="middle" x="576" y="-172" font-family="Helvetica,sans-Serif" font-size="10.00">set</text>
</a>
</g>
</g>
<!-- Node9&#45;&gt;Node21 -->
<g id="edge25_Node000009_Node000021" class="edge">
<title>Node9&#45;&gt;Node21</title>
<g id="a_edge25_Node000009_Node000021"><a xlink:title=" ">
<path fill="none" stroke="#63b8ff" d="M511.37,-219.98C523.09,-211.92 540.92,-199.65 554.89,-190.03"/>
<polygon fill="#63b8ff" stroke="#63b8ff" points="557.15,-192.72 563.4,-184.17 553.18,-186.96 557.15,-192.72"/>
</a>
</g>
</g>
<!-- Node22 -->
<g id="Node000022" class="node">
<title>Node22</title>
<g id="a_Node000022"><a xlink:title=" ">
<polygon fill="#e0e0e0" stroke="#999999" points="503.5,-184 412.5,-184 412.5,-165 503.5,-165 503.5,-184"/>
<text text-anchor="middle" x="458" y="-172" font-family="Helvetica,sans-Serif" font-size="10.00">realm/event.inl</text>
</a>
</g>
</g>
<!-- Node9&#45;&gt;Node22 -->
<g id="edge27_Node000009_Node000022" class="edge">
<title>Node9&#45;&gt;Node22</title>
<g id="a_edge27_Node000009_Node000022"><a xlink:title=" ">
<path fill="none" stroke="#63b8ff" d="M492.23,-219.75C486.44,-212.26 477.94,-201.28 470.86,-192.13"/>
<polygon fill="#63b8ff" stroke="#63b8ff" points="473.53,-189.86 464.64,-184.09 467.99,-194.14 473.53,-189.86"/>
</a>
</g>
</g>
<!-- Node10&#45;&gt;Node4 -->
<g id="edge11_Node000010_Node000004" class="edge">
<title>Node10&#45;&gt;Node4</title>
<g id="a_edge11_Node000010_Node000004"><a xlink:title=" ">
<path fill="none" stroke="#63b8ff" d="M840.07,-167.23C844.77,-166.48 849.49,-165.72 854,-165 904,-156.99 1040.91,-162.36 1079,-129 1091.57,-117.99 1095.99,-99.05 1097.47,-84.71"/>
<polygon fill="#63b8ff" stroke="#63b8ff" points="1100.98,-84.63 1098.12,-74.43 1093.99,-84.19 1100.98,-84.63"/>
</a>
</g>
</g>
<!-- Node11 -->
<g id="Node000011" class="node">
<title>Node11</title>
<g id="a_Node000011"><a xlink:title=" ">
<polygon fill="#e0e0e0" stroke="#999999" points="680,-129 636,-129 636,-110 680,-110 680,-129"/>
<text text-anchor="middle" x="658" y="-117" font-family="Helvetica,sans-Serif" font-size="10.00">string</text>
</a>
</g>
</g>
<!-- Node10&#45;&gt;Node11 -->
<g id="edge12_Node000010_Node000011" class="edge">
<title>Node10&#45;&gt;Node11</title>
<g id="a_edge12_Node000010_Node000011"><a xlink:title=" ">
<path fill="none" stroke="#63b8ff" d="M778.02,-164.98C754.22,-156.16 716.84,-142.31 690.11,-132.4"/>
<polygon fill="#63b8ff" stroke="#63b8ff" points="691.04,-129.01 680.45,-128.82 688.61,-135.58 691.04,-129.01"/>
</a>
</g>
</g>
<!-- Node12 -->
<g id="Node000012" class="node">
<title>Node12</title>
<g id="a_Node000012"><a xlink:title=" ">
<polygon fill="#e0e0e0" stroke="#999999" points="755.5,-129 698.5,-129 698.5,-110 755.5,-110 755.5,-129"/>
<text text-anchor="middle" x="727" y="-117" font-family="Helvetica,sans-Serif" font-size="10.00">ostream</text>
</a>
</g>
</g>
<!-- Node10&#45;&gt;Node12 -->
<g id="edge13_Node000010_Node000012" class="edge">
<title>Node10&#45;&gt;Node12</title>
<g id="a_edge13_Node000010_Node000012"><a xlink:title=" ">
<path fill="none" stroke="#63b8ff" d="M789.11,-164.98C777.85,-156.92 760.71,-144.65 747.29,-135.03"/>
<polygon fill="#63b8ff" stroke="#63b8ff" points="749.27,-132.15 739.11,-129.17 745.2,-137.84 749.27,-132.15"/>
</a>
</g>
</g>
<!-- Node10&#45;&gt;Node13 -->
<g id="edge14_Node000010_Node000013" class="edge">
<title>Node10&#45;&gt;Node13</title>
<g id="a_edge14_Node000010_Node000013"><a xlink:title=" ">
<path fill="none" stroke="#63b8ff" d="M761.91,-165.04C714.28,-154.74 634.62,-137.51 589.62,-127.77"/>
<polygon fill="#63b8ff" stroke="#63b8ff" points="590.28,-124.33 579.76,-125.64 588.8,-131.18 590.28,-124.33"/>
</a>
</g>
</g>
<!-- Node10&#45;&gt;Node14 -->
<g id="edge15_Node000010_Node000014" class="edge">
<title>Node10&#45;&gt;Node14</title>
<g id="a_edge15_Node000010_Node000014"><a xlink:title=" ">
<path fill="none" stroke="#63b8ff" d="M840.06,-167.14C844.76,-166.41 849.48,-165.68 854,-165 968.5,-147.83 998.42,-151.48 1112,-129 1113.27,-128.75 1114.57,-128.48 1115.88,-128.19"/>
<polygon fill="#63b8ff" stroke="#63b8ff" points="1116.97,-131.53 1125.89,-125.81 1115.35,-124.72 1116.97,-131.53"/>
</a>
</g>
</g>
<!-- Node15 -->
<g id="Node000015" class="node">
<title>Node15</title>
<g id="a_Node000015"><a xlink:title=" ">
<polygon fill="#e0e0e0" stroke="#999999" points="826,-129 774,-129 774,-110 826,-110 826,-129"/>
<text text-anchor="middle" x="800" y="-117" font-family="Helvetica,sans-Serif" font-size="10.00">cassert</text>
</a>
</g>
</g>
<!-- Node10&#45;&gt;Node15 -->
<g id="edge16_Node000010_Node000015" class="edge">
<title>Node10&#45;&gt;Node15</title>
<g id="a_edge16_Node000010_Node000015"><a xlink:title=" ">
<path fill="none" stroke="#63b8ff" d="M800.83,-164.75C800.7,-157.8 800.52,-147.85 800.35,-139.13"/>
<polygon fill="#63b8ff" stroke="#63b8ff" points="803.85,-139.02 800.16,-129.09 796.85,-139.15 803.85,-139.02"/>
</a>
</g>
</g>
<!-- Node16 -->
<g id="Node000016" class="node">
<title>Node16</title>
<g id="a_Node000016"><a xlink:title=" ">
<polygon fill="#e0e0e0" stroke="#999999" points="894,-129 844,-129 844,-110 894,-110 894,-129"/>
<text text-anchor="middle" x="869" y="-117" font-family="Helvetica,sans-Serif" font-size="10.00">cstdint</text>
</a>
</g>
</g>
<!-- Node10&#45;&gt;Node16 -->
<g id="edge17_Node000010_Node000016" class="edge">
<title>Node10&#45;&gt;Node16</title>
<g id="a_edge17_Node000010_Node000016"><a xlink:title=" ">
<path fill="none" stroke="#63b8ff" d="M811.93,-164.98C822.08,-157.07 837.42,-145.11 849.65,-135.58"/>
<polygon fill="#63b8ff" stroke="#63b8ff" points="852.14,-138.08 857.88,-129.17 847.84,-132.56 852.14,-138.08"/>
</a>
</g>
</g>
<!-- Node17 -->
<g id="Node000017" class="node">
<title>Node17</title>
<g id="a_Node000017"><a xlink:title=" ">
<polygon fill="#e0e0e0" stroke="#999999" points="968,-129 912,-129 912,-110 968,-110 968,-129"/>
<text text-anchor="middle" x="940" y="-117" font-family="Helvetica,sans-Serif" font-size="10.00">sstream</text>
</a>
</g>
</g>
<!-- Node10&#45;&gt;Node17 -->
<g id="edge18_Node000010_Node000017" class="edge">
<title>Node10&#45;&gt;Node17</title>
<g id="a_edge18_Node000010_Node000017"><a xlink:title=" ">
<path fill="none" stroke="#63b8ff" d="M823.33,-164.98C846.2,-156.27 881.96,-142.63 907.86,-132.75"/>
<polygon fill="#63b8ff" stroke="#63b8ff" points="909.16,-136 917.26,-129.17 906.67,-129.46 909.16,-136"/>
</a>
</g>
</g>
<!-- Node18 -->
<g id="Node000018" class="node">
<title>Node18</title>
<g id="a_Node000018"><a xlink:title=" ">
<polygon fill="#e0e0e0" stroke="#999999" points="1070,-129 986,-129 986,-110 1070,-110 1070,-129"/>
<text text-anchor="middle" x="1028" y="-117" font-family="Helvetica,sans-Serif" font-size="10.00">realm/utils.inl</text>
</a>
</g>
</g>
<!-- Node10&#45;&gt;Node18 -->
<g id="edge19_Node000010_Node000018" class="edge">
<title>Node10&#45;&gt;Node18</title>
<g id="a_edge19_Node000010_Node000018"><a xlink:title=" ">
<path fill="none" stroke="#63b8ff" d="M837.47,-164.98C876.57,-155.86 938.77,-141.33 981.39,-131.38"/>
<polygon fill="#63b8ff" stroke="#63b8ff" points="982.3,-134.76 991.24,-129.08 980.71,-127.95 982.3,-134.76"/>
</a>
</g>
</g>
<!-- Node19&#45;&gt;Node3 -->
<g id="edge21_Node000019_Node000003" class="edge">
<title>Node19&#45;&gt;Node3</title>
<g id="a_edge21_Node000019_Node000003"><a xlink:title=" ">
<path fill="none" stroke="#63b8ff" d="M123.93,-164.75C130.85,-157.11 141.07,-145.82 149.45,-136.56"/>
<polygon fill="#63b8ff" stroke="#63b8ff" points="152.1,-138.85 156.22,-129.09 146.91,-134.15 152.1,-138.85"/>
</a>
</g>
</g>
<!-- Node19&#45;&gt;Node7 -->
<g id="edge22_Node000019_Node000007" class="edge">
<title>Node19&#45;&gt;Node7</title>
<g id="a_edge22_Node000019_Node000007"><a xlink:title=" ">
<path fill="none" stroke="#63b8ff" d="M111.08,-164.93C104.09,-151.5 93.56,-125.46 107,-110 142.58,-69.06 308.57,-64.71 384.69,-64.93"/>
<polygon fill="#63b8ff" stroke="#63b8ff" points="384.79,-68.43 394.81,-64.99 384.83,-61.43 384.79,-68.43"/>
</a>
</g>
</g>
<!-- Node19&#45;&gt;Node20 -->
<g id="edge23_Node000019_Node000020" class="edge">
<title>Node19&#45;&gt;Node20</title>
<g id="a_edge23_Node000019_Node000020"><a xlink:title=" ">
<path fill="none" stroke="#63b8ff" d="M102.18,-164.98C88.85,-156.77 68.42,-144.18 52.69,-134.49"/>
<polygon fill="#63b8ff" stroke="#63b8ff" points="54.42,-131.44 44.07,-129.17 50.75,-137.4 54.42,-131.44"/>
</a>
</g>
</g>
<!-- Node24&#45;&gt;Node4 -->
<g id="edge32_Node000024_Node000004" class="edge">
<title>Node24&#45;&gt;Node4</title>
<g id="a_edge32_Node000024_Node000004"><a xlink:title=" ">
<path fill="none" stroke="#63b8ff" d="M1420.91,-274.64C1413.16,-242.45 1385.02,-132.34 1358,-110 1329.76,-86.65 1235.22,-75.1 1168.31,-69.73"/>
<polygon fill="#63b8ff" stroke="#63b8ff" points="1168.48,-66.23 1158.24,-68.95 1167.94,-73.21 1168.48,-66.23"/>
</a>
</g>
</g>
<!-- Node25 -->
<g id="Node000025" class="node">
<title>Node25</title>
<g id="a_Node000025"><a xlink:title=" ">
<polygon fill="#e0e0e0" stroke="#999999" points="1477.5,-239 1424.5,-239 1424.5,-220 1477.5,-220 1477.5,-239"/>
<text text-anchor="middle" x="1451" y="-227" font-family="Helvetica,sans-Serif" font-size="10.00">cstddef</text>
</a>
</g>
</g>
<!-- Node24&#45;&gt;Node25 -->
<g id="edge33_Node000024_Node000025" class="edge">
<title>Node24&#45;&gt;Node25</title>
<g id="a_edge33_Node000024_Node000025"><a xlink:title=" ">
<path fill="none" stroke="#63b8ff" d="M1427.62,-274.75C1431.46,-267.49 1437.02,-256.95 1441.76,-247.98"/>
<polygon fill="#63b8ff" stroke="#63b8ff" points="1444.89,-249.57 1446.46,-239.09 1438.7,-246.3 1444.89,-249.57"/>
</a>
</g>
</g>
<!-- Node26 -->
<g id="Node000026" class="node">
<title>Node26</title>
<g id="a_Node000026"><a xlink:title=" ">
<polygon fill="#e0e0e0" stroke="#999999" points="1564.5,-239 1495.5,-239 1495.5,-220 1564.5,-220 1564.5,-239"/>
<text text-anchor="middle" x="1530" y="-227" font-family="Helvetica,sans-Serif" font-size="10.00">type_traits</text>
</a>
</g>
</g>
<!-- Node24&#45;&gt;Node26 -->
<g id="edge34_Node000024_Node000026" class="edge">
<title>Node24&#45;&gt;Node26</title>
<g id="a_edge34_Node000024_Node000026"><a xlink:title=" ">
<path fill="none" stroke="#63b8ff" d="M1440.19,-274.98C1457.25,-266.54 1483.63,-253.47 1503.4,-243.68"/>
<polygon fill="#63b8ff" stroke="#63b8ff" points="1505.09,-246.75 1512.5,-239.17 1501.98,-240.47 1505.09,-246.75"/>
</a>
</g>
</g>
<!-- Node28 -->
<g id="Node000028" class="node">
<title>Node28</title>
<g id="a_Node000028"><a xlink:href="serialize_8h.html" target="_top" xlink:title=" ">
<polygon fill="white" stroke="#666666" points="1070,-239 972,-239 972,-220 1070,-220 1070,-239"/>
<text text-anchor="middle" x="1021" y="-227" font-family="Helvetica,sans-Serif" font-size="10.00">realm/serialize.h</text>
</a>
</g>
</g>
<!-- Node27&#45;&gt;Node28 -->
<g id="edge36_Node000027_Node000028" class="edge">
<title>Node27&#45;&gt;Node28</title>
<g id="a_edge36_Node000027_Node000028"><a xlink:title=" ">
<path fill="none" stroke="#63b8ff" d="M963.93,-274.98C974.08,-267.07 989.42,-255.11 1001.65,-245.58"/>
<polygon fill="#63b8ff" stroke="#63b8ff" points="1004.14,-248.08 1009.88,-239.17 999.84,-242.56 1004.14,-248.08"/>
</a>
</g>
</g>
<!-- Node34 -->
<g id="Node000034" class="node">
<title>Node34</title>
<g id="a_Node000034"><a xlink:title=" ">
<polygon fill="#e0e0e0" stroke="#999999" points="1160,-239 1088,-239 1088,-220 1160,-220 1160,-239"/>
<text text-anchor="middle" x="1124" y="-227" font-family="Helvetica,sans-Serif" font-size="10.00">sys/types.h</text>
</a>
</g>
</g>
<!-- Node27&#45;&gt;Node34 -->
<g id="edge50_Node000027_Node000034" class="edge">
<title>Node27&#45;&gt;Node34</title>
<g id="a_edge50_Node000027_Node000034"><a xlink:title=" ">
<path fill="none" stroke="#63b8ff" d="M980.47,-274.98C1009.18,-266.09 1054.42,-252.07 1086.42,-242.15"/>
<polygon fill="#63b8ff" stroke="#63b8ff" points="1087.8,-245.39 1096.31,-239.08 1085.72,-238.7 1087.8,-245.39"/>
</a>
</g>
</g>
<!-- Node35 -->
<g id="Node000035" class="node">
<title>Node35</title>
<g id="a_Node000035"><a xlink:title=" ">
<polygon fill="#e0e0e0" stroke="#999999" points="953.5,-239 816.5,-239 816.5,-220 953.5,-220 953.5,-239"/>
<text text-anchor="middle" x="885" y="-227" font-family="Helvetica,sans-Serif" font-size="10.00">realm/custom_serdez.inl</text>
</a>
</g>
</g>
<!-- Node27&#45;&gt;Node35 -->
<g id="edge51_Node000027_Node000035" class="edge">
<title>Node27&#45;&gt;Node35</title>
<g id="a_edge51_Node000027_Node000035"><a xlink:title=" ">
<path fill="none" stroke="#63b8ff" d="M942.07,-274.98C931.92,-267.07 916.58,-255.11 904.35,-245.58"/>
<polygon fill="#63b8ff" stroke="#63b8ff" points="906.16,-242.56 896.12,-239.17 901.86,-248.08 906.16,-242.56"/>
</a>
</g>
</g>
<!-- Node28&#45;&gt;Node4 -->
<g id="edge37_Node000028_Node000004" class="edge">
<title>Node28&#45;&gt;Node4</title>
<g id="a_edge37_Node000028_Node000004"><a xlink:title=" ">
<path fill="none" stroke="#63b8ff" d="M1070.05,-221.3C1073.08,-220.86 1076.08,-220.42 1079,-220 1135.43,-211.87 1293.71,-225.31 1333,-184 1355.72,-160.11 1359.08,-135.34 1338,-110 1316.73,-84.42 1231.27,-73.48 1168.36,-68.84"/>
<polygon fill="#63b8ff" stroke="#63b8ff" points="1168.3,-65.33 1158.08,-68.12 1167.81,-72.31 1168.3,-65.33"/>
</a>
</g>
</g>
<!-- Node28&#45;&gt;Node7 -->
<g id="edge42_Node000028_Node000007" class="edge">
<title>Node28&#45;&gt;Node7</title>
<g id="a_edge42_Node000028_Node000007"><a xlink:title=" ">
<path fill="none" stroke="#63b8ff" d="M971.93,-221.43C885.09,-208.9 713.38,-184.13 713,-184 652.11,-162.53 647.49,-135.08 588,-110 546.13,-92.35 495.3,-79.89 461.22,-72.73"/>
<polygon fill="#63b8ff" stroke="#63b8ff" points="461.71,-69.26 451.21,-70.68 460.3,-76.11 461.71,-69.26"/>
</a>
</g>
</g>
<!-- Node28&#45;&gt;Node10 -->
<g id="edge41_Node000028_Node000010" class="edge">
<title>Node28&#45;&gt;Node10</title>
<g id="a_edge41_Node000028_Node000010"><a xlink:title=" ">
<path fill="none" stroke="#63b8ff" d="M985.65,-219.98C947.84,-210.87 887.74,-196.4 846.43,-186.45"/>
<polygon fill="#63b8ff" stroke="#63b8ff" points="847.17,-183.02 836.62,-184.08 845.53,-189.83 847.17,-183.02"/>
</a>
</g>
</g>
<!-- Node28&#45;&gt;Node11 -->
<g id="edge47_Node000028_Node000011" class="edge">
<title>Node28&#45;&gt;Node11</title>
<g id="a_edge47_Node000028_Node000011"><a xlink:title=" ">
<path fill="none" stroke="#63b8ff" d="M971.72,-220.87C897.12,-209.23 763.09,-187.99 753,-184 723.52,-172.33 693.81,-150.48 675.66,-135.71"/>
<polygon fill="#63b8ff" stroke="#63b8ff" points="677.65,-132.81 667.73,-129.1 673.17,-138.19 677.65,-132.81"/>
</a>
</g>
</g>
<!-- Node28&#45;&gt;Node13 -->
<g id="edge43_Node000028_Node000013" class="edge">
<title>Node28&#45;&gt;Node13</title>
<g id="a_edge43_Node000028_Node000013"><a xlink:title=" ">
<path fill="none" stroke="#63b8ff" d="M971.75,-221.35C968.45,-220.89 965.18,-220.43 962,-220 837.68,-203.05 801.96,-220.76 682,-184 643.54,-172.22 602.58,-149.42 578.15,-134.59"/>
<polygon fill="#63b8ff" stroke="#63b8ff" points="579.69,-131.43 569.34,-129.15 576.01,-137.38 579.69,-131.43"/>
</a>
</g>
</g>
<!-- Node28&#45;&gt;Node14 -->
<g id="edge46_Node000028_Node000014" class="edge">
<title>Node28&#45;&gt;Node14</title>
<g id="a_edge46_Node000028_Node000014"><a xlink:title=" ">
<path fill="none" stroke="#63b8ff" d="M1002.79,-219.82C980.26,-207.92 946.75,-185.65 963,-165 1005.14,-111.47 1045.9,-145.5 1112,-129 1113.26,-128.69 1114.54,-128.36 1115.84,-128.04"/>
<polygon fill="#63b8ff" stroke="#63b8ff" points="1116.99,-131.35 1125.82,-125.49 1115.26,-124.57 1116.99,-131.35"/>
</a>
</g>
</g>
<!-- Node28&#45;&gt;Node21 -->
<g id="edge45_Node000028_Node000021" class="edge">
<title>Node28&#45;&gt;Node21</title>
<g id="a_edge45_Node000028_Node000021"><a xlink:title=" ">
<path fill="none" stroke="#63b8ff" d="M971.76,-221.29C968.46,-220.84 965.18,-220.41 962,-220 820.93,-201.86 785.24,-200.82 644,-184 630.29,-182.37 615.05,-180.47 602.47,-178.88"/>
<polygon fill="#63b8ff" stroke="#63b8ff" points="602.57,-175.37 592.21,-177.58 601.69,-182.31 602.57,-175.37"/>
</a>
</g>
</g>
<!-- Node29 -->
<g id="Node000029" class="node">
<title>Node29</title>
<g id="a_Node000029"><a xlink:href="bytearray_8h.html" target="_top" xlink:title=" ">
<polygon fill="white" stroke="#666666" points="1075.5,-184 972.5,-184 972.5,-165 1075.5,-165 1075.5,-184"/>
<text text-anchor="middle" x="1024" y="-172" font-family="Helvetica,sans-Serif" font-size="10.00">realm/bytearray.h</text>
</a>
</g>
</g>
<!-- Node28&#45;&gt;Node29 -->
<g id="edge38_Node000028_Node000029" class="edge">
<title>Node28&#45;&gt;Node29</title>
<g id="a_edge38_Node000028_Node000029"><a xlink:title=" ">
<path fill="none" stroke="#63b8ff" d="M1021.5,-219.75C1021.89,-212.8 1022.45,-202.85 1022.95,-194.13"/>
<polygon fill="#63b8ff" stroke="#63b8ff" points="1026.44,-194.27 1023.51,-184.09 1019.45,-193.88 1026.44,-194.27"/>
</a>
</g>
</g>
<!-- Node31 -->
<g id="Node000031" class="node">
<title>Node31</title>
<g id="a_Node000031"><a xlink:title=" ">
<polygon fill="#e0e0e0" stroke="#999999" points="1126,-184 1094,-184 1094,-165 1126,-165 1126,-184"/>
<text text-anchor="middle" x="1110" y="-172" font-family="Helvetica,sans-Serif" font-size="10.00">list</text>
</a>
</g>
</g>
<!-- Node28&#45;&gt;Node31 -->
<g id="edge44_Node000028_Node000031" class="edge">
<title>Node28&#45;&gt;Node31</title>
<g id="a_edge44_Node000028_Node000031"><a xlink:title=" ">
<path fill="none" stroke="#63b8ff" d="M1035.3,-219.98C1049.1,-211.77 1070.24,-199.18 1086.51,-189.49"/>
<polygon fill="#63b8ff" stroke="#63b8ff" points="1088.64,-192.29 1095.44,-184.17 1085.06,-186.28 1088.64,-192.29"/>
</a>
</g>
</g>
<!-- Node32 -->
<g id="Node000032" class="node">
<title>Node32</title>
<g id="a_Node000032"><a xlink:title=" ">
<polygon fill="#e0e0e0" stroke="#999999" points="1201.5,-184 1144.5,-184 1144.5,-165 1201.5,-165 1201.5,-184"/>
<text text-anchor="middle" x="1173" y="-172" font-family="Helvetica,sans-Serif" font-size="10.00">typeinfo</text>
</a>
</g>
</g>
<!-- Node28&#45;&gt;Node32 -->
<g id="edge48_Node000028_Node000032" class="edge">
<title>Node28&#45;&gt;Node32</title>
<g id="a_edge48_Node000028_Node000032"><a xlink:title=" ">
<path fill="none" stroke="#63b8ff" d="M1045.42,-219.98C1070.72,-211.16 1110.45,-197.31 1138.86,-187.41"/>
<polygon fill="#63b8ff" stroke="#63b8ff" points="1140.1,-190.68 1148.39,-184.08 1137.79,-184.07 1140.1,-190.68"/>
</a>
</g>
</g>
<!-- Node33 -->
<g id="Node000033" class="node">
<title>Node33</title>
<g id="a_Node000033"><a xlink:title=" ">
<polygon fill="#e0e0e0" stroke="#999999" points="1324,-184 1220,-184 1220,-165 1324,-165 1324,-184"/>
<text text-anchor="middle" x="1272" y="-172" font-family="Helvetica,sans-Serif" font-size="10.00">realm/serialize.inl</text>
</a>
</g>
</g>
<!-- Node28&#45;&gt;Node33 -->
<g id="edge49_Node000028_Node000033" class="edge">
<title>Node28&#45;&gt;Node33</title>
<g id="a_edge49_Node000028_Node000033"><a xlink:title=" ">
<path fill="none" stroke="#63b8ff" d="M1061.33,-219.98C1104.84,-210.8 1174.2,-196.15 1221.35,-186.19"/>
<polygon fill="#63b8ff" stroke="#63b8ff" points="1222.3,-189.57 1231.36,-184.08 1220.85,-182.72 1222.3,-189.57"/>
</a>
</g>
</g>
<!-- Node29&#45;&gt;Node7 -->
<g id="edge39_Node000029_Node000007" class="edge">
<title>Node29&#45;&gt;Node7</title>
<g id="a_edge39_Node000029_Node000007"><a xlink:title=" ">
<path fill="none" stroke="#63b8ff" d="M1074.81,-164.98C1113.13,-157.39 1161.06,-145.02 1173,-129 1178.04,-122.23 1178.79,-116.15 1173,-110 1148.37,-83.87 611.14,-69.77 461.42,-66.33"/>
<polygon fill="#63b8ff" stroke="#63b8ff" points="461.4,-62.83 451.33,-66.11 461.25,-69.83 461.4,-62.83"/>
</a>
</g>
</g>
<!-- Node30 -->
<g id="Node000030" class="node">
<title>Node30</title>
<g id="a_Node000030"><a xlink:title=" ">
<polygon fill="#e0e0e0" stroke="#999999" points="1329.5,-129 1220.5,-129 1220.5,-110 1329.5,-110 1329.5,-129"/>
<text text-anchor="middle" x="1275" y="-117" font-family="Helvetica,sans-Serif" font-size="10.00">realm/bytearray.inl</text>
</a>
</g>
</g>
<!-- Node29&#45;&gt;Node30 -->
<g id="edge40_Node000029_Node000030" class="edge">
<title>Node29&#45;&gt;Node30</title>
<g id="a_edge40_Node000029_Node000030"><a xlink:title=" ">
<path fill="none" stroke="#63b8ff" d="M1064.33,-164.98C1107.84,-155.8 1177.2,-141.15 1224.35,-131.19"/>
<polygon fill="#63b8ff" stroke="#63b8ff" points="1225.3,-134.57 1234.36,-129.08 1223.85,-127.72 1225.3,-134.57"/>
</a>
</g>
</g>
<!-- Node36&#45;&gt;Node4 -->
<g id="edge53_Node000036_Node000004" class="edge">
<title>Node36&#45;&gt;Node4</title>
<g id="a_edge53_Node000036_Node000004"><a xlink:title=" ">
<path fill="none" stroke="#63b8ff" d="M366.96,-164.93C398.76,-157.07 445.61,-144.35 485,-129 502.59,-122.14 504.8,-115.04 523,-110 616.1,-84.19 895.56,-72.01 1027.53,-67.57"/>
<polygon fill="#63b8ff" stroke="#63b8ff" points="1027.66,-71.07 1037.54,-67.24 1027.43,-64.07 1027.66,-71.07"/>
</a>
</g>
</g>
<!-- Node36&#45;&gt;Node11 -->
<g id="edge54_Node000036_Node000011" class="edge">
<title>Node36&#45;&gt;Node11</title>
<g id="a_edge54_Node000036_Node000011"><a xlink:title=" ">
<path fill="none" stroke="#63b8ff" d="M382.7,-164.98C451.26,-153.91 568.96,-134.89 625.63,-125.73"/>
<polygon fill="#63b8ff" stroke="#63b8ff" points="626.49,-129.14 635.8,-124.09 625.37,-122.23 626.49,-129.14"/>
</a>
</g>
</g>
<!-- Node36&#45;&gt;Node13 -->
<g id="edge56_Node000036_Node000013" class="edge">
<title>Node36&#45;&gt;Node13</title>
<g id="a_edge56_Node000036_Node000013"><a xlink:title=" ">
<path fill="none" stroke="#63b8ff" d="M366.31,-164.98C409.33,-154.9 480.43,-138.22 522.28,-128.41"/>
<polygon fill="#63b8ff" stroke="#63b8ff" points="523.32,-131.76 532.26,-126.07 521.72,-124.94 523.32,-131.76"/>
</a>
</g>
</g>
<!-- Node37 -->
<g id="Node000037" class="node">
<title>Node37</title>
<g id="a_Node000037"><a xlink:title=" ">
<polygon fill="#e0e0e0" stroke="#999999" points="323.5,-129 230.5,-129 230.5,-110 323.5,-110 323.5,-129"/>
<text text-anchor="middle" x="277" y="-117" font-family="Helvetica,sans-Serif" font-size="10.00">unordered_map</text>
</a>
</g>
</g>
<!-- Node36&#45;&gt;Node37 -->
<g id="edge55_Node000036_Node000037" class="edge">
<title>Node36&#45;&gt;Node37</title>
<g id="a_edge55_Node000036_Node000037"><a xlink:title=" ">
<path fill="none" stroke="#63b8ff" d="M321.25,-164.75C313.53,-157.03 302.1,-145.6 292.78,-136.28"/>
<polygon fill="#63b8ff" stroke="#63b8ff" points="295.14,-133.69 285.59,-129.09 290.19,-138.64 295.14,-133.69"/>
</a>
</g>
</g>
<!-- Node38 -->
<g id="Node000038" class="node">
<title>Node38</title>
<g id="a_Node000038"><a xlink:title=" ">
<polygon fill="#e0e0e0" stroke="#999999" points="476,-129 342,-129 342,-110 476,-110 476,-129"/>
<text text-anchor="middle" x="409" y="-117" font-family="Helvetica,sans-Serif" font-size="10.00">realm/module_config.inl</text>
</a>
</g>
</g>
<!-- Node36&#45;&gt;Node38 -->
<g id="edge57_Node000036_Node000038" class="edge">
<title>Node36&#45;&gt;Node38</title>
<g id="a_edge57_Node000036_Node000038"><a xlink:title=" ">
<path fill="none" stroke="#63b8ff" d="M342.69,-164.98C354.83,-156.84 373.36,-144.41 387.75,-134.76"/>
<polygon fill="#63b8ff" stroke="#63b8ff" points="389.72,-137.65 396.08,-129.17 385.82,-131.84 389.72,-137.65"/>
</a>
</g>
</g>
</g>
</svg>
