<?xml version="1.0" encoding="UTF-8" standalone="no"?>
<!DOCTYPE svg PUBLIC "-//W3C//DTD SVG 1.1//EN"
 "http://www.w3.org/Graphics/SVG/1.1/DTD/svg11.dtd">
<!-- Generated by graphviz version 2.43.0 (0)
 -->
<!-- Title: /home/runner/work/realm/realm/realm&#45;src/src/realm/runtime.h Pages: 1 -->
<svg width="1657pt" height="379pt"
 viewBox="0.00 0.00 1656.50 379.00" xmlns="http://www.w3.org/2000/svg" xmlns:xlink="http://www.w3.org/1999/xlink">
<g id="graph0" class="graph" transform="scale(1 1) rotate(0) translate(4 375)">
<title>/home/runner/work/realm/realm/realm&#45;src/src/realm/runtime.h</title>
<!-- Node1 -->
<g id="Node000001" class="node">
<title>Node1</title>
<g id="a_Node000001"><a xlink:title=" ">
<polygon fill="#999999" stroke="#666666" points="944,-371 798,-371 798,-330 944,-330 944,-371"/>
<text text-anchor="start" x="806" y="-359" font-family="Helvetica,sans-Serif" font-size="10.00">/home/runner/work/realm</text>
<text text-anchor="start" x="806" y="-348" font-family="Helvetica,sans-Serif" font-size="10.00">/realm/realm&#45;src/src/realm</text>
<text text-anchor="middle" x="871" y="-337" font-family="Helvetica,sans-Serif" font-size="10.00">/runtime.h</text>
</a>
</g>
</g>
<!-- Node2 -->
<g id="Node000002" class="node">
<title>Node2</title>
<g id="a_Node000002"><a xlink:href="processor_8h.html" target="_top" xlink:title=" ">
<polygon fill="white" stroke="#666666" points="711,-294 607,-294 607,-275 711,-275 711,-294"/>
<text text-anchor="middle" x="659" y="-282" font-family="Helvetica,sans-Serif" font-size="10.00">realm/processor.h</text>
</a>
</g>
</g>
<!-- Node1&#45;&gt;Node2 -->
<g id="edge1_Node000001_Node000002" class="edge">
<title>Node1&#45;&gt;Node2</title>
<g id="a_edge1_Node000001_Node000002"><a xlink:title=" ">
<path fill="none" stroke="#63b8ff" d="M806.24,-329.95C770.47,-319.15 727.27,-306.11 696.94,-296.95"/>
<polygon fill="#63b8ff" stroke="#63b8ff" points="697.77,-293.55 687.18,-294.01 695.74,-300.25 697.77,-293.55"/>
</a>
</g>
</g>
<!-- Node25 -->
<g id="Node000025" class="node">
<title>Node25</title>
<g id="a_Node000025"><a xlink:href="redop_8h.html" target="_top" xlink:title=" ">
<polygon fill="white" stroke="#666666" points="1549.5,-294 1464.5,-294 1464.5,-275 1549.5,-275 1549.5,-294"/>
<text text-anchor="middle" x="1507" y="-282" font-family="Helvetica,sans-Serif" font-size="10.00">realm/redop.h</text>
</a>
</g>
</g>
<!-- Node1&#45;&gt;Node25 -->
<g id="edge32_Node000001_Node000025" class="edge">
<title>Node1&#45;&gt;Node25</title>
<g id="a_edge32_Node000001_Node000025"><a xlink:title=" ">
<path fill="none" stroke="#63b8ff" d="M944.27,-342.13C1073.97,-329.07 1340.99,-302.21 1454.3,-290.8"/>
<polygon fill="#63b8ff" stroke="#63b8ff" points="1454.85,-294.27 1464.45,-289.78 1454.15,-287.3 1454.85,-294.27"/>
</a>
</g>
</g>
<!-- Node28 -->
<g id="Node000028" class="node">
<title>Node28</title>
<g id="a_Node000028"><a xlink:href="custom__serdez_8h.html" target="_top" xlink:title=" ">
<polygon fill="white" stroke="#666666" points="1216.5,-294 1085.5,-294 1085.5,-275 1216.5,-275 1216.5,-294"/>
<text text-anchor="middle" x="1151" y="-282" font-family="Helvetica,sans-Serif" font-size="10.00">realm/custom_serdez.h</text>
</a>
</g>
</g>
<!-- Node1&#45;&gt;Node28 -->
<g id="edge36_Node000001_Node000028" class="edge">
<title>Node1&#45;&gt;Node28</title>
<g id="a_edge36_Node000001_Node000028"><a xlink:title=" ">
<path fill="none" stroke="#63b8ff" d="M944.2,-332.77C994.71,-321.22 1060.37,-306.22 1104.01,-296.24"/>
<polygon fill="#63b8ff" stroke="#63b8ff" points="1104.82,-299.65 1113.79,-294 1103.26,-292.82 1104.82,-299.65"/>
</a>
</g>
</g>
<!-- Node37 -->
<g id="Node000037" class="node">
<title>Node37</title>
<g id="a_Node000037"><a xlink:href="module__config_8h.html" target="_top" xlink:title=" ">
<polygon fill="white" stroke="#666666" points="442,-184 314,-184 314,-165 442,-165 442,-184"/>
<text text-anchor="middle" x="378" y="-172" font-family="Helvetica,sans-Serif" font-size="10.00">realm/module_config.h</text>
</a>
</g>
</g>
<!-- Node1&#45;&gt;Node37 -->
<g id="edge53_Node000001_Node000037" class="edge">
<title>Node1&#45;&gt;Node37</title>
<g id="a_edge53_Node000001_Node000037"><a xlink:title=" ">
<path fill="none" stroke="#63b8ff" d="M797.75,-339.1C742.13,-330.13 664.2,-315.24 598,-294 540.98,-275.7 527.55,-267.71 475,-239 447.4,-223.92 417.36,-203.59 398.13,-190.04"/>
<polygon fill="#63b8ff" stroke="#63b8ff" points="400.04,-187.1 389.87,-184.16 395.99,-192.81 400.04,-187.1"/>
</a>
</g>
</g>
<!-- Node3 -->
<g id="Node000003" class="node">
<title>Node3</title>
<g id="a_Node000003"><a xlink:href="realm__c_8h.html" target="_top" xlink:title=" ">
<polygon fill="white" stroke="#666666" points="296,-129 200,-129 200,-110 296,-110 296,-129"/>
<text text-anchor="middle" x="248" y="-117" font-family="Helvetica,sans-Serif" font-size="10.00">realm/realm_c.h</text>
</a>
</g>
</g>
<!-- Node2&#45;&gt;Node3 -->
<g id="edge2_Node000002_Node000003" class="edge">
<title>Node2&#45;&gt;Node3</title>
<g id="a_edge2_Node000002_Node000003"><a xlink:title=" ">
<path fill="none" stroke="#63b8ff" d="M606.72,-283.51C526.8,-280.81 373.49,-264.57 278,-184 264.34,-172.47 256.48,-153.32 252.27,-139.06"/>
<polygon fill="#63b8ff" stroke="#63b8ff" points="255.63,-138.1 249.72,-129.31 248.86,-139.87 255.63,-138.1"/>
</a>
</g>
</g>
<!-- Node9 -->
<g id="Node000009" class="node">
<title>Node9</title>
<g id="a_Node000009"><a xlink:href="event_8h.html" target="_top" xlink:title=" ">
<polygon fill="white" stroke="#666666" points="569.5,-239 484.5,-239 484.5,-220 569.5,-220 569.5,-239"/>
<text text-anchor="middle" x="527" y="-227" font-family="Helvetica,sans-Serif" font-size="10.00">realm/event.h</text>
</a>
</g>
</g>
<!-- Node2&#45;&gt;Node9 -->
<g id="edge8_Node000002_Node000009" class="edge">
<title>Node2&#45;&gt;Node9</title>
<g id="a_edge8_Node000002_Node000009"><a xlink:title=" ">
<path fill="none" stroke="#63b8ff" d="M637.79,-274.98C616.27,-266.34 582.72,-252.87 558.17,-243.02"/>
<polygon fill="#63b8ff" stroke="#63b8ff" points="559.18,-239.65 548.59,-239.17 556.57,-246.14 559.18,-239.65"/>
</a>
</g>
</g>
<!-- Node13 -->
<g id="Node000013" class="node">
<title>Node13</title>
<g id="a_Node000013"><a xlink:title=" ">
<polygon fill="#e0e0e0" stroke="#999999" points="625.5,-129 578.5,-129 578.5,-110 625.5,-110 625.5,-129"/>
<text text-anchor="middle" x="602" y="-117" font-family="Helvetica,sans-Serif" font-size="10.00">vector</text>
</a>
</g>
</g>
<!-- Node2&#45;&gt;Node13 -->
<g id="edge29_Node000002_Node000013" class="edge">
<title>Node2&#45;&gt;Node13</title>
<g id="a_edge29_Node000002_Node000013"><a xlink:title=" ">
<path fill="none" stroke="#63b8ff" d="M654.16,-274.84C649.36,-266.01 642.03,-251.84 637,-239 623.5,-204.51 612.29,-162.64 606.42,-139.04"/>
<polygon fill="#63b8ff" stroke="#63b8ff" points="609.81,-138.18 604.05,-129.3 603.01,-139.84 609.81,-138.18"/>
</a>
</g>
</g>
<!-- Node14 -->
<g id="Node000014" class="node">
<title>Node14</title>
<g id="a_Node000014"><a xlink:title=" ">
<polygon fill="#e0e0e0" stroke="#999999" points="1414,-129 1376,-129 1376,-110 1414,-110 1414,-129"/>
<text text-anchor="middle" x="1395" y="-117" font-family="Helvetica,sans-Serif" font-size="10.00">map</text>
</a>
</g>
</g>
<!-- Node2&#45;&gt;Node14 -->
<g id="edge30_Node000002_Node000014" class="edge">
<title>Node2&#45;&gt;Node14</title>
<g id="a_edge30_Node000002_Node000014"><a xlink:title=" ">
<path fill="none" stroke="#63b8ff" d="M711.47,-279.2C846.36,-267.57 1202.11,-232.99 1309,-184 1335.44,-171.88 1361.73,-150.81 1378.15,-136.28"/>
<polygon fill="#63b8ff" stroke="#63b8ff" points="1380.72,-138.67 1385.79,-129.37 1376.02,-133.49 1380.72,-138.67"/>
</a>
</g>
</g>
<!-- Node24 -->
<g id="Node000024" class="node">
<title>Node24</title>
<g id="a_Node000024"><a xlink:title=" ">
<polygon fill="#e0e0e0" stroke="#999999" points="756,-239 646,-239 646,-220 756,-220 756,-239"/>
<text text-anchor="middle" x="701" y="-227" font-family="Helvetica,sans-Serif" font-size="10.00">realm/processor.inl</text>
</a>
</g>
</g>
<!-- Node2&#45;&gt;Node24 -->
<g id="edge31_Node000002_Node000024" class="edge">
<title>Node2&#45;&gt;Node24</title>
<g id="a_edge31_Node000002_Node000024"><a xlink:title=" ">
<path fill="none" stroke="#63b8ff" d="M665.94,-274.75C671.87,-267.26 680.57,-256.28 687.82,-247.13"/>
<polygon fill="#63b8ff" stroke="#63b8ff" points="690.73,-249.1 694.19,-239.09 685.24,-244.75 690.73,-249.1"/>
</a>
</g>
</g>
<!-- Node4 -->
<g id="Node000004" class="node">
<title>Node4</title>
<g id="a_Node000004"><a xlink:href="realm__config_8h.html" target="_top" xlink:title=" ">
<polygon fill="white" stroke="#666666" points="1408,-74 1288,-74 1288,-55 1408,-55 1408,-74"/>
<text text-anchor="middle" x="1348" y="-62" font-family="Helvetica,sans-Serif" font-size="10.00">realm/realm_config.h</text>
</a>
</g>
</g>
<!-- Node3&#45;&gt;Node4 -->
<g id="edge3_Node000003_Node000004" class="edge">
<title>Node3&#45;&gt;Node4</title>
<g id="a_edge3_Node000003_Node000004"><a xlink:title=" ">
<path fill="none" stroke="#63b8ff" d="M296.16,-110.95C299.15,-110.6 302.11,-110.28 305,-110 669.92,-75.1 1109.29,-67.57 1277.67,-65.95"/>
<polygon fill="#63b8ff" stroke="#63b8ff" points="1277.91,-69.44 1287.88,-65.85 1277.85,-62.44 1277.91,-69.44"/>
</a>
</g>
</g>
<!-- Node7 -->
<g id="Node000007" class="node">
<title>Node7</title>
<g id="a_Node000007"><a xlink:title=" ">
<polygon fill="#e0e0e0" stroke="#999999" points="516,-74 460,-74 460,-55 516,-55 516,-74"/>
<text text-anchor="middle" x="488" y="-62" font-family="Helvetica,sans-Serif" font-size="10.00">stddef.h</text>
</a>
</g>
</g>
<!-- Node3&#45;&gt;Node7 -->
<g id="edge6_Node000003_Node000007" class="edge">
<title>Node3&#45;&gt;Node7</title>
<g id="a_edge6_Node000003_Node000007"><a xlink:title=" ">
<path fill="none" stroke="#63b8ff" d="M286.56,-109.98C331.43,-100.08 405.06,-83.82 449.78,-73.94"/>
<polygon fill="#63b8ff" stroke="#63b8ff" points="450.67,-77.33 459.68,-71.75 449.16,-70.49 450.67,-77.33"/>
</a>
</g>
</g>
<!-- Node8 -->
<g id="Node000008" class="node">
<title>Node8</title>
<g id="a_Node000008"><a xlink:title=" ">
<polygon fill="#e0e0e0" stroke="#999999" points="274.5,-74 221.5,-74 221.5,-55 274.5,-55 274.5,-74"/>
<text text-anchor="middle" x="248" y="-62" font-family="Helvetica,sans-Serif" font-size="10.00">stdint.h</text>
</a>
</g>
</g>
<!-- Node3&#45;&gt;Node8 -->
<g id="edge7_Node000003_Node000008" class="edge">
<title>Node3&#45;&gt;Node8</title>
<g id="a_edge7_Node000003_Node000008"><a xlink:title=" ">
<path fill="none" stroke="#63b8ff" d="M248,-109.75C248,-102.8 248,-92.85 248,-84.13"/>
<polygon fill="#63b8ff" stroke="#63b8ff" points="251.5,-84.09 248,-74.09 244.5,-84.09 251.5,-84.09"/>
</a>
</g>
</g>
<!-- Node5 -->
<g id="Node000005" class="node">
<title>Node5</title>
<g id="a_Node000005"><a xlink:href="realm__defines_8h.html" target="_top" xlink:title=" ">
<polygon fill="white" stroke="#666666" points="1326.5,-19 1231.5,-19 1231.5,0 1326.5,0 1326.5,-19"/>
<text text-anchor="middle" x="1279" y="-7" font-family="Helvetica,sans-Serif" font-size="10.00">realm_defines.h</text>
</a>
</g>
</g>
<!-- Node4&#45;&gt;Node5 -->
<g id="edge4_Node000004_Node000005" class="edge">
<title>Node4&#45;&gt;Node5</title>
<g id="a_edge4_Node000004_Node000005"><a xlink:title=" ">
<path fill="none" stroke="#63b8ff" d="M1336.91,-54.98C1326.51,-47 1310.74,-34.88 1298.28,-25.31"/>
<polygon fill="#63b8ff" stroke="#63b8ff" points="1300.35,-22.49 1290.29,-19.17 1296.09,-28.04 1300.35,-22.49"/>
</a>
</g>
</g>
<!-- Node6 -->
<g id="Node000006" class="node">
<title>Node6</title>
<g id="a_Node000006"><a xlink:href="compiler__support_8h.html" target="_top" xlink:title=" ">
<polygon fill="white" stroke="#666666" points="1487,-19 1345,-19 1345,0 1487,0 1487,-19"/>
<text text-anchor="middle" x="1416" y="-7" font-family="Helvetica,sans-Serif" font-size="10.00">realm/compiler_support.h</text>
</a>
</g>
</g>
<!-- Node4&#45;&gt;Node6 -->
<g id="edge5_Node000004_Node000006" class="edge">
<title>Node4&#45;&gt;Node6</title>
<g id="a_edge5_Node000004_Node000006"><a xlink:title=" ">
<path fill="none" stroke="#63b8ff" d="M1358.93,-54.98C1369.08,-47.07 1384.42,-35.11 1396.65,-25.58"/>
<polygon fill="#63b8ff" stroke="#63b8ff" points="1399.14,-28.08 1404.88,-19.17 1394.84,-22.56 1399.14,-28.08"/>
</a>
</g>
</g>
<!-- Node9&#45;&gt;Node3 -->
<g id="edge9_Node000009_Node000003" class="edge">
<title>Node9&#45;&gt;Node3</title>
<g id="a_edge9_Node000009_Node000003"><a xlink:title=" ">
<path fill="none" stroke="#63b8ff" d="M484.14,-227.81C437.27,-225.34 361.33,-216.15 305,-184 285.37,-172.8 268.89,-152.39 258.78,-137.73"/>
<polygon fill="#63b8ff" stroke="#63b8ff" points="261.51,-135.51 253.09,-129.08 255.66,-139.36 261.51,-135.51"/>
</a>
</g>
</g>
<!-- Node10 -->
<g id="Node000010" class="node">
<title>Node10</title>
<g id="a_Node000010"><a xlink:href="utils_8h.html" target="_top" xlink:title=" ">
<polygon fill="white" stroke="#666666" points="1014,-184 936,-184 936,-165 1014,-165 1014,-184"/>
<text text-anchor="middle" x="975" y="-172" font-family="Helvetica,sans-Serif" font-size="10.00">realm/utils.h</text>
</a>
</g>
</g>
<!-- Node9&#45;&gt;Node10 -->
<g id="edge10_Node000009_Node000010" class="edge">
<title>Node9&#45;&gt;Node10</title>
<g id="a_edge10_Node000009_Node000010"><a xlink:title=" ">
<path fill="none" stroke="#63b8ff" d="M569.55,-223.47C652.96,-213.6 837.5,-191.77 925.91,-181.31"/>
<polygon fill="#63b8ff" stroke="#63b8ff" points="926.43,-184.77 935.95,-180.12 925.61,-177.82 926.43,-184.77"/>
</a>
</g>
</g>
<!-- Node9&#45;&gt;Node13 -->
<g id="edge25_Node000009_Node000013" class="edge">
<title>Node9&#45;&gt;Node13</title>
<g id="a_edge25_Node000009_Node000013"><a xlink:title=" ">
<path fill="none" stroke="#63b8ff" d="M533.72,-219.74C540.49,-210.83 551.17,-196.6 560,-184 570.76,-168.65 582.49,-150.81 590.81,-137.96"/>
<polygon fill="#63b8ff" stroke="#63b8ff" points="593.96,-139.53 596.44,-129.23 588.08,-135.74 593.96,-139.53"/>
</a>
</g>
</g>
<!-- Node19 -->
<g id="Node000019" class="node">
<title>Node19</title>
<g id="a_Node000019"><a xlink:href="memory_8h.html" target="_top" xlink:title=" ">
<polygon fill="white" stroke="#666666" points="197.5,-184 100.5,-184 100.5,-165 197.5,-165 197.5,-184"/>
<text text-anchor="middle" x="149" y="-172" font-family="Helvetica,sans-Serif" font-size="10.00">realm/memory.h</text>
</a>
</g>
</g>
<!-- Node9&#45;&gt;Node19 -->
<g id="edge20_Node000009_Node000019" class="edge">
<title>Node9&#45;&gt;Node19</title>
<g id="a_edge20_Node000009_Node000019"><a xlink:title=" ">
<path fill="none" stroke="#63b8ff" d="M484.37,-222.52C416.65,-213.03 284.32,-194.47 207.69,-183.73"/>
<polygon fill="#63b8ff" stroke="#63b8ff" points="208.1,-180.25 197.71,-182.33 207.13,-187.19 208.1,-180.25"/>
</a>
</g>
</g>
<!-- Node20 -->
<g id="Node000020" class="node">
<title>Node20</title>
<g id="a_Node000020"><a xlink:title=" ">
<polygon fill="#e0e0e0" stroke="#999999" points="60,-129 0,-129 0,-110 60,-110 60,-129"/>
<text text-anchor="middle" x="30" y="-117" font-family="Helvetica,sans-Serif" font-size="10.00">iostream</text>
</a>
</g>
</g>
<!-- Node9&#45;&gt;Node20 -->
<g id="edge27_Node000009_Node000020" class="edge">
<title>Node9&#45;&gt;Node20</title>
<g id="a_edge27_Node000009_Node000020"><a xlink:title=" ">
<path fill="none" stroke="#63b8ff" d="M484.43,-227.85C388.75,-225.81 159.65,-217.47 91,-184 69.83,-173.68 52.06,-152.79 41.25,-137.79"/>
<polygon fill="#63b8ff" stroke="#63b8ff" points="44,-135.61 35.46,-129.35 38.23,-139.58 44,-135.61"/>
</a>
</g>
</g>
<!-- Node22 -->
<g id="Node000022" class="node">
<title>Node22</title>
<g id="a_Node000022"><a xlink:title=" ">
<polygon fill="#e0e0e0" stroke="#999999" points="678,-184 646,-184 646,-165 678,-165 678,-184"/>
<text text-anchor="middle" x="662" y="-172" font-family="Helvetica,sans-Serif" font-size="10.00">set</text>
</a>
</g>
</g>
<!-- Node9&#45;&gt;Node22 -->
<g id="edge26_Node000009_Node000022" class="edge">
<title>Node9&#45;&gt;Node22</title>
<g id="a_edge26_Node000009_Node000022"><a xlink:title=" ">
<path fill="none" stroke="#63b8ff" d="M548.69,-219.98C572.64,-210.58 611.16,-195.46 636.53,-185.5"/>
<polygon fill="#63b8ff" stroke="#63b8ff" points="637.84,-188.74 645.87,-181.83 635.28,-182.23 637.84,-188.74"/>
</a>
</g>
</g>
<!-- Node23 -->
<g id="Node000023" class="node">
<title>Node23</title>
<g id="a_Node000023"><a xlink:title=" ">
<polygon fill="#e0e0e0" stroke="#999999" points="551.5,-184 460.5,-184 460.5,-165 551.5,-165 551.5,-184"/>
<text text-anchor="middle" x="506" y="-172" font-family="Helvetica,sans-Serif" font-size="10.00">realm/event.inl</text>
</a>
</g>
</g>
<!-- Node9&#45;&gt;Node23 -->
<g id="edge28_Node000009_Node000023" class="edge">
<title>Node9&#45;&gt;Node23</title>
<g id="a_edge28_Node000009_Node000023"><a xlink:title=" ">
<path fill="none" stroke="#63b8ff" d="M523.53,-219.75C520.72,-212.65 516.66,-202.4 513.15,-193.56"/>
<polygon fill="#63b8ff" stroke="#63b8ff" points="516.34,-192.1 509.4,-184.09 509.83,-194.68 516.34,-192.1"/>
</a>
</g>
</g>
<!-- Node10&#45;&gt;Node4 -->
<g id="edge11_Node000010_Node000004" class="edge">
<title>Node10&#45;&gt;Node4</title>
<g id="a_edge11_Node000010_Node000004"><a xlink:title=" ">
<path fill="none" stroke="#63b8ff" d="M1014.05,-167.06C1018.74,-166.33 1023.48,-165.63 1028,-165 1094.72,-155.66 1277.46,-172.37 1329,-129 1341.92,-118.13 1346.27,-98.85 1347.63,-84.38"/>
<polygon fill="#63b8ff" stroke="#63b8ff" points="1351.15,-84.23 1348.19,-74.06 1344.16,-83.85 1351.15,-84.23"/>
</a>
</g>
</g>
<!-- Node11 -->
<g id="Node000011" class="node">
<title>Node11</title>
<g id="a_Node000011"><a xlink:title=" ">
<polygon fill="#e0e0e0" stroke="#999999" points="930,-129 886,-129 886,-110 930,-110 930,-129"/>
<text text-anchor="middle" x="908" y="-117" font-family="Helvetica,sans-Serif" font-size="10.00">string</text>
</a>
</g>
</g>
<!-- Node10&#45;&gt;Node11 -->
<g id="edge12_Node000010_Node000011" class="edge">
<title>Node10&#45;&gt;Node11</title>
<g id="a_edge12_Node000010_Node000011"><a xlink:title=" ">
<path fill="none" stroke="#63b8ff" d="M964.24,-164.98C954.23,-157.07 939.11,-145.11 927.07,-135.58"/>
<polygon fill="#63b8ff" stroke="#63b8ff" points="928.97,-132.63 918.96,-129.17 924.63,-138.12 928.97,-132.63"/>
</a>
</g>
</g>
<!-- Node12 -->
<g id="Node000012" class="node">
<title>Node12</title>
<g id="a_Node000012"><a xlink:title=" ">
<polygon fill="#e0e0e0" stroke="#999999" points="1005.5,-129 948.5,-129 948.5,-110 1005.5,-110 1005.5,-129"/>
<text text-anchor="middle" x="977" y="-117" font-family="Helvetica,sans-Serif" font-size="10.00">ostream</text>
</a>
</g>
</g>
<!-- Node10&#45;&gt;Node12 -->
<g id="edge13_Node000010_Node000012" class="edge">
<title>Node10&#45;&gt;Node12</title>
<g id="a_edge13_Node000010_Node000012"><a xlink:title=" ">
<path fill="none" stroke="#63b8ff" d="M975.33,-164.75C975.59,-157.8 975.97,-147.85 976.3,-139.13"/>
<polygon fill="#63b8ff" stroke="#63b8ff" points="979.8,-139.21 976.68,-129.09 972.8,-138.95 979.8,-139.21"/>
</a>
</g>
</g>
<!-- Node10&#45;&gt;Node13 -->
<g id="edge14_Node000010_Node000013" class="edge">
<title>Node10&#45;&gt;Node13</title>
<g id="a_edge14_Node000010_Node000013"><a xlink:title=" ">
<path fill="none" stroke="#63b8ff" d="M935.79,-167.93C862.31,-157.49 705.09,-135.15 635.89,-125.32"/>
<polygon fill="#63b8ff" stroke="#63b8ff" points="636.34,-121.84 625.95,-123.9 635.36,-128.77 636.34,-121.84"/>
</a>
</g>
</g>
<!-- Node10&#45;&gt;Node14 -->
<g id="edge15_Node000010_Node000014" class="edge">
<title>Node10&#45;&gt;Node14</title>
<g id="a_edge15_Node000010_Node000014"><a xlink:title=" ">
<path fill="none" stroke="#63b8ff" d="M1014.04,-167C1018.74,-166.29 1023.47,-165.61 1028,-165 1175.98,-145.17 1215.1,-155.69 1362,-129 1363.28,-128.77 1364.58,-128.51 1365.89,-128.24"/>
<polygon fill="#63b8ff" stroke="#63b8ff" points="1366.96,-131.59 1375.91,-125.92 1365.38,-124.77 1366.96,-131.59"/>
</a>
</g>
</g>
<!-- Node15 -->
<g id="Node000015" class="node">
<title>Node15</title>
<g id="a_Node000015"><a xlink:title=" ">
<polygon fill="#e0e0e0" stroke="#999999" points="1076,-129 1024,-129 1024,-110 1076,-110 1076,-129"/>
<text text-anchor="middle" x="1050" y="-117" font-family="Helvetica,sans-Serif" font-size="10.00">cassert</text>
</a>
</g>
</g>
<!-- Node10&#45;&gt;Node15 -->
<g id="edge16_Node000010_Node000015" class="edge">
<title>Node10&#45;&gt;Node15</title>
<g id="a_edge16_Node000010_Node000015"><a xlink:title=" ">
<path fill="none" stroke="#63b8ff" d="M987.05,-164.98C998.46,-156.92 1015.83,-144.65 1029.43,-135.03"/>
<polygon fill="#63b8ff" stroke="#63b8ff" points="1031.58,-137.8 1037.73,-129.17 1027.54,-132.08 1031.58,-137.8"/>
</a>
</g>
</g>
<!-- Node16 -->
<g id="Node000016" class="node">
<title>Node16</title>
<g id="a_Node000016"><a xlink:title=" ">
<polygon fill="#e0e0e0" stroke="#999999" points="1144,-129 1094,-129 1094,-110 1144,-110 1144,-129"/>
<text text-anchor="middle" x="1119" y="-117" font-family="Helvetica,sans-Serif" font-size="10.00">cstdint</text>
</a>
</g>
</g>
<!-- Node10&#45;&gt;Node16 -->
<g id="edge17_Node000010_Node000016" class="edge">
<title>Node10&#45;&gt;Node16</title>
<g id="a_edge17_Node000010_Node000016"><a xlink:title=" ">
<path fill="none" stroke="#63b8ff" d="M998.14,-164.98C1021.82,-156.27 1058.87,-142.63 1085.71,-132.75"/>
<polygon fill="#63b8ff" stroke="#63b8ff" points="1087.27,-135.91 1095.44,-129.17 1084.85,-129.34 1087.27,-135.91"/>
</a>
</g>
</g>
<!-- Node17 -->
<g id="Node000017" class="node">
<title>Node17</title>
<g id="a_Node000017"><a xlink:title=" ">
<polygon fill="#e0e0e0" stroke="#999999" points="1218,-129 1162,-129 1162,-110 1218,-110 1218,-129"/>
<text text-anchor="middle" x="1190" y="-117" font-family="Helvetica,sans-Serif" font-size="10.00">sstream</text>
</a>
</g>
</g>
<!-- Node10&#45;&gt;Node17 -->
<g id="edge18_Node000010_Node000017" class="edge">
<title>Node10&#45;&gt;Node17</title>
<g id="a_edge18_Node000010_Node000017"><a xlink:title=" ">
<path fill="none" stroke="#63b8ff" d="M1009.54,-164.98C1048.5,-155.38 1111.66,-139.81 1151.99,-129.87"/>
<polygon fill="#63b8ff" stroke="#63b8ff" points="1152.85,-133.26 1161.72,-127.47 1151.17,-126.47 1152.85,-133.26"/>
</a>
</g>
</g>
<!-- Node18 -->
<g id="Node000018" class="node">
<title>Node18</title>
<g id="a_Node000018"><a xlink:title=" ">
<polygon fill="#e0e0e0" stroke="#999999" points="1320,-129 1236,-129 1236,-110 1320,-110 1320,-129"/>
<text text-anchor="middle" x="1278" y="-117" font-family="Helvetica,sans-Serif" font-size="10.00">realm/utils.inl</text>
</a>
</g>
</g>
<!-- Node10&#45;&gt;Node18 -->
<g id="edge19_Node000010_Node000018" class="edge">
<title>Node10&#45;&gt;Node18</title>
<g id="a_edge19_Node000010_Node000018"><a xlink:title=" ">
<path fill="none" stroke="#63b8ff" d="M1014.3,-166.63C1068.34,-157.17 1165.71,-140.14 1225.81,-129.63"/>
<polygon fill="#63b8ff" stroke="#63b8ff" points="1226.6,-133.04 1235.85,-127.87 1225.39,-126.15 1226.6,-133.04"/>
</a>
</g>
</g>
<!-- Node19&#45;&gt;Node3 -->
<g id="edge21_Node000019_Node000003" class="edge">
<title>Node19&#45;&gt;Node3</title>
<g id="a_edge21_Node000019_Node000003"><a xlink:title=" ">
<path fill="none" stroke="#63b8ff" d="M164.91,-164.98C180.55,-156.61 204.66,-143.7 222.88,-133.95"/>
<polygon fill="#63b8ff" stroke="#63b8ff" points="224.64,-136.98 231.8,-129.17 221.34,-130.8 224.64,-136.98"/>
</a>
</g>
</g>
<!-- Node19&#45;&gt;Node7 -->
<g id="edge22_Node000019_Node000007" class="edge">
<title>Node19&#45;&gt;Node7</title>
<g id="a_edge22_Node000019_Node000007"><a xlink:title=" ">
<path fill="none" stroke="#63b8ff" d="M136.2,-164.94C118.68,-152.21 91.09,-127.87 107,-110 129.57,-84.64 357.87,-71.45 449.88,-67.13"/>
<polygon fill="#63b8ff" stroke="#63b8ff" points="450.06,-70.62 459.89,-66.67 449.74,-63.63 450.06,-70.62"/>
</a>
</g>
</g>
<!-- Node19&#45;&gt;Node20 -->
<g id="edge23_Node000019_Node000020" class="edge">
<title>Node19&#45;&gt;Node20</title>
<g id="a_edge23_Node000019_Node000020"><a xlink:title=" ">
<path fill="none" stroke="#63b8ff" d="M129.88,-164.98C110.65,-156.42 80.77,-143.11 58.69,-133.28"/>
<polygon fill="#63b8ff" stroke="#63b8ff" points="60.03,-130.04 49.47,-129.17 57.18,-136.44 60.03,-130.04"/>
</a>
</g>
</g>
<!-- Node21 -->
<g id="Node000021" class="node">
<title>Node21</title>
<g id="a_Node000021"><a xlink:title=" ">
<polygon fill="#e0e0e0" stroke="#999999" points="181.5,-129 116.5,-129 116.5,-110 181.5,-110 181.5,-129"/>
<text text-anchor="middle" x="149" y="-117" font-family="Helvetica,sans-Serif" font-size="10.00">functional</text>
</a>
</g>
</g>
<!-- Node19&#45;&gt;Node21 -->
<g id="edge24_Node000019_Node000021" class="edge">
<title>Node19&#45;&gt;Node21</title>
<g id="a_edge24_Node000019_Node000021"><a xlink:title=" ">
<path fill="none" stroke="#63b8ff" d="M149,-164.75C149,-157.8 149,-147.85 149,-139.13"/>
<polygon fill="#63b8ff" stroke="#63b8ff" points="152.5,-139.09 149,-129.09 145.5,-139.09 152.5,-139.09"/>
</a>
</g>
</g>
<!-- Node25&#45;&gt;Node4 -->
<g id="edge33_Node000025_Node000004" class="edge">
<title>Node25&#45;&gt;Node4</title>
<g id="a_edge33_Node000025_Node000004"><a xlink:title=" ">
<path fill="none" stroke="#63b8ff" d="M1505.84,-274.75C1501.77,-247.13 1485.71,-160.67 1439,-110 1425.32,-95.16 1405.62,-84.69 1388.05,-77.64"/>
<polygon fill="#63b8ff" stroke="#63b8ff" points="1389.15,-74.31 1378.55,-74.07 1386.68,-80.87 1389.15,-74.31"/>
</a>
</g>
</g>
<!-- Node26 -->
<g id="Node000026" class="node">
<title>Node26</title>
<g id="a_Node000026"><a xlink:title=" ">
<polygon fill="#e0e0e0" stroke="#999999" points="1561.5,-239 1508.5,-239 1508.5,-220 1561.5,-220 1561.5,-239"/>
<text text-anchor="middle" x="1535" y="-227" font-family="Helvetica,sans-Serif" font-size="10.00">cstddef</text>
</a>
</g>
</g>
<!-- Node25&#45;&gt;Node26 -->
<g id="edge34_Node000025_Node000026" class="edge">
<title>Node25&#45;&gt;Node26</title>
<g id="a_edge34_Node000025_Node000026"><a xlink:title=" ">
<path fill="none" stroke="#63b8ff" d="M1511.62,-274.75C1515.46,-267.49 1521.02,-256.95 1525.76,-247.98"/>
<polygon fill="#63b8ff" stroke="#63b8ff" points="1528.89,-249.57 1530.46,-239.09 1522.7,-246.3 1528.89,-249.57"/>
</a>
</g>
</g>
<!-- Node27 -->
<g id="Node000027" class="node">
<title>Node27</title>
<g id="a_Node000027"><a xlink:title=" ">
<polygon fill="#e0e0e0" stroke="#999999" points="1648.5,-239 1579.5,-239 1579.5,-220 1648.5,-220 1648.5,-239"/>
<text text-anchor="middle" x="1614" y="-227" font-family="Helvetica,sans-Serif" font-size="10.00">type_traits</text>
</a>
</g>
</g>
<!-- Node25&#45;&gt;Node27 -->
<g id="edge35_Node000025_Node000027" class="edge">
<title>Node25&#45;&gt;Node27</title>
<g id="a_edge35_Node000025_Node000027"><a xlink:title=" ">
<path fill="none" stroke="#63b8ff" d="M1524.19,-274.98C1541.25,-266.54 1567.63,-253.47 1587.4,-243.68"/>
<polygon fill="#63b8ff" stroke="#63b8ff" points="1589.09,-246.75 1596.5,-239.17 1585.98,-240.47 1589.09,-246.75"/>
</a>
</g>
</g>
<!-- Node29 -->
<g id="Node000029" class="node">
<title>Node29</title>
<g id="a_Node000029"><a xlink:href="serialize_8h.html" target="_top" xlink:title=" ">
<polygon fill="white" stroke="#666666" points="1058,-239 960,-239 960,-220 1058,-220 1058,-239"/>
<text text-anchor="middle" x="1009" y="-227" font-family="Helvetica,sans-Serif" font-size="10.00">realm/serialize.h</text>
</a>
</g>
</g>
<!-- Node28&#45;&gt;Node29 -->
<g id="edge37_Node000028_Node000029" class="edge">
<title>Node28&#45;&gt;Node29</title>
<g id="a_edge37_Node000028_Node000029"><a xlink:title=" ">
<path fill="none" stroke="#63b8ff" d="M1128.19,-274.98C1104.83,-266.27 1068.3,-252.63 1041.83,-242.75"/>
<polygon fill="#63b8ff" stroke="#63b8ff" points="1042.82,-239.39 1032.23,-239.17 1040.37,-245.95 1042.82,-239.39"/>
</a>
</g>
</g>
<!-- Node35 -->
<g id="Node000035" class="node">
<title>Node35</title>
<g id="a_Node000035"><a xlink:title=" ">
<polygon fill="#e0e0e0" stroke="#999999" points="1452,-239 1380,-239 1380,-220 1452,-220 1452,-239"/>
<text text-anchor="middle" x="1416" y="-227" font-family="Helvetica,sans-Serif" font-size="10.00">sys/types.h</text>
</a>
</g>
</g>
<!-- Node28&#45;&gt;Node35 -->
<g id="edge51_Node000028_Node000035" class="edge">
<title>Node28&#45;&gt;Node35</title>
<g id="a_edge51_Node000028_Node000035"><a xlink:title=" ">
<path fill="none" stroke="#63b8ff" d="M1193.58,-274.98C1241.89,-265.32 1320.42,-249.62 1370.08,-239.68"/>
<polygon fill="#63b8ff" stroke="#63b8ff" points="1370.79,-243.11 1379.91,-237.72 1369.42,-236.25 1370.79,-243.11"/>
</a>
</g>
</g>
<!-- Node36 -->
<g id="Node000036" class="node">
<title>Node36</title>
<g id="a_Node000036"><a xlink:title=" ">
<polygon fill="#e0e0e0" stroke="#999999" points="1361.5,-239 1224.5,-239 1224.5,-220 1361.5,-220 1361.5,-239"/>
<text text-anchor="middle" x="1293" y="-227" font-family="Helvetica,sans-Serif" font-size="10.00">realm/custom_serdez.inl</text>
</a>
</g>
</g>
<!-- Node28&#45;&gt;Node36 -->
<g id="edge52_Node000028_Node000036" class="edge">
<title>Node28&#45;&gt;Node36</title>
<g id="a_edge52_Node000028_Node000036"><a xlink:title=" ">
<path fill="none" stroke="#63b8ff" d="M1173.81,-274.98C1197.17,-266.27 1233.7,-252.63 1260.17,-242.75"/>
<polygon fill="#63b8ff" stroke="#63b8ff" points="1261.63,-245.95 1269.77,-239.17 1259.18,-239.39 1261.63,-245.95"/>
</a>
</g>
</g>
<!-- Node29&#45;&gt;Node4 -->
<g id="edge38_Node000029_Node000004" class="edge">
<title>Node29&#45;&gt;Node4</title>
<g id="a_edge38_Node000029_Node000004"><a xlink:title=" ">
<path fill="none" stroke="#63b8ff" d="M1058.28,-224.94C1159.42,-216.41 1384.23,-190.74 1423,-129 1436.65,-107.25 1408.33,-89.13 1382.66,-77.88"/>
<polygon fill="#63b8ff" stroke="#63b8ff" points="1383.99,-74.64 1373.41,-74.06 1381.31,-81.11 1383.99,-74.64"/>
</a>
</g>
</g>
<!-- Node29&#45;&gt;Node7 -->
<g id="edge43_Node000029_Node000007" class="edge">
<title>Node29&#45;&gt;Node7</title>
<g id="a_edge43_Node000029_Node000007"><a xlink:title=" ">
<path fill="none" stroke="#63b8ff" d="M959.63,-224.56C909.02,-219.38 828.64,-207.95 763,-184 747.48,-178.34 649.17,-116.56 634,-110 598.54,-94.66 556.11,-82.36 526.15,-74.61"/>
<polygon fill="#63b8ff" stroke="#63b8ff" points="526.66,-71.13 516.11,-72.06 524.94,-77.91 526.66,-71.13"/>
</a>
</g>
</g>
<!-- Node29&#45;&gt;Node10 -->
<g id="edge42_Node000029_Node000010" class="edge">
<title>Node29&#45;&gt;Node10</title>
<g id="a_edge42_Node000029_Node000010"><a xlink:title=" ">
<path fill="none" stroke="#63b8ff" d="M1003.39,-219.75C998.68,-212.42 991.83,-201.73 986.03,-192.7"/>
<polygon fill="#63b8ff" stroke="#63b8ff" points="988.86,-190.62 980.51,-184.09 982.96,-194.4 988.86,-190.62"/>
</a>
</g>
</g>
<!-- Node29&#45;&gt;Node11 -->
<g id="edge48_Node000029_Node000011" class="edge">
<title>Node29&#45;&gt;Node11</title>
<g id="a_edge48_Node000029_Node000011"><a xlink:title=" ">
<path fill="none" stroke="#63b8ff" d="M981.78,-219.91C963.82,-212.93 941.09,-201.35 927,-184 916.68,-171.3 911.97,-153.12 909.81,-139.46"/>
<polygon fill="#63b8ff" stroke="#63b8ff" points="913.25,-138.76 908.54,-129.28 906.3,-139.63 913.25,-138.76"/>
</a>
</g>
</g>
<!-- Node29&#45;&gt;Node13 -->
<g id="edge44_Node000029_Node000013" class="edge">
<title>Node29&#45;&gt;Node13</title>
<g id="a_edge44_Node000029_Node000013"><a xlink:title=" ">
<path fill="none" stroke="#63b8ff" d="M959.83,-225.17C903.27,-220.31 808.14,-208.97 730,-184 719.52,-180.65 662.15,-151.47 627.87,-133.86"/>
<polygon fill="#63b8ff" stroke="#63b8ff" points="629.36,-130.69 618.87,-129.23 626.16,-136.91 629.36,-130.69"/>
</a>
</g>
</g>
<!-- Node29&#45;&gt;Node14 -->
<g id="edge47_Node000029_Node000014" class="edge">
<title>Node29&#45;&gt;Node14</title>
<g id="a_edge47_Node000029_Node000014"><a xlink:title=" ">
<path fill="none" stroke="#63b8ff" d="M1013.33,-219.73C1020.86,-205.52 1037.8,-177.81 1061,-165 1174.32,-102.46 1222.12,-149.02 1350,-129 1355.04,-128.21 1360.37,-127.28 1365.54,-126.34"/>
<polygon fill="#63b8ff" stroke="#63b8ff" points="1366.6,-129.7 1375.78,-124.41 1365.3,-122.82 1366.6,-129.7"/>
</a>
</g>
</g>
<!-- Node29&#45;&gt;Node22 -->
<g id="edge46_Node000029_Node000022" class="edge">
<title>Node29&#45;&gt;Node22</title>
<g id="a_edge46_Node000029_Node000022"><a xlink:title=" ">
<path fill="none" stroke="#63b8ff" d="M959.76,-223.7C897.12,-217.11 785.8,-203.78 692,-184 690.72,-183.73 689.41,-183.43 688.1,-183.12"/>
<polygon fill="#63b8ff" stroke="#63b8ff" points="688.65,-179.65 678.09,-180.5 686.88,-186.42 688.65,-179.65"/>
</a>
</g>
</g>
<!-- Node30 -->
<g id="Node000030" class="node">
<title>Node30</title>
<g id="a_Node000030"><a xlink:href="bytearray_8h.html" target="_top" xlink:title=" ">
<polygon fill="white" stroke="#666666" points="875.5,-184 772.5,-184 772.5,-165 875.5,-165 875.5,-184"/>
<text text-anchor="middle" x="824" y="-172" font-family="Helvetica,sans-Serif" font-size="10.00">realm/bytearray.h</text>
</a>
</g>
</g>
<!-- Node29&#45;&gt;Node30 -->
<g id="edge39_Node000029_Node000030" class="edge">
<title>Node29&#45;&gt;Node30</title>
<g id="a_edge39_Node000029_Node000030"><a xlink:title=" ">
<path fill="none" stroke="#63b8ff" d="M979.28,-219.98C947.95,-211.01 898.43,-196.82 863.76,-186.89"/>
<polygon fill="#63b8ff" stroke="#63b8ff" points="864.53,-183.47 853.96,-184.08 862.61,-190.2 864.53,-183.47"/>
</a>
</g>
</g>
<!-- Node32 -->
<g id="Node000032" class="node">
<title>Node32</title>
<g id="a_Node000032"><a xlink:title=" ">
<polygon fill="#e0e0e0" stroke="#999999" points="1102,-184 1070,-184 1070,-165 1102,-165 1102,-184"/>
<text text-anchor="middle" x="1086" y="-172" font-family="Helvetica,sans-Serif" font-size="10.00">list</text>
</a>
</g>
</g>
<!-- Node29&#45;&gt;Node32 -->
<g id="edge45_Node000029_Node000032" class="edge">
<title>Node29&#45;&gt;Node32</title>
<g id="a_edge45_Node000029_Node000032"><a xlink:title=" ">
<path fill="none" stroke="#63b8ff" d="M1021.37,-219.98C1033.09,-211.92 1050.92,-199.65 1064.89,-190.03"/>
<polygon fill="#63b8ff" stroke="#63b8ff" points="1067.15,-192.72 1073.4,-184.17 1063.18,-186.96 1067.15,-192.72"/>
</a>
</g>
</g>
<!-- Node33 -->
<g id="Node000033" class="node">
<title>Node33</title>
<g id="a_Node000033"><a xlink:title=" ">
<polygon fill="#e0e0e0" stroke="#999999" points="1177.5,-184 1120.5,-184 1120.5,-165 1177.5,-165 1177.5,-184"/>
<text text-anchor="middle" x="1149" y="-172" font-family="Helvetica,sans-Serif" font-size="10.00">typeinfo</text>
</a>
</g>
</g>
<!-- Node29&#45;&gt;Node33 -->
<g id="edge49_Node000029_Node000033" class="edge">
<title>Node29&#45;&gt;Node33</title>
<g id="a_edge49_Node000029_Node000033"><a xlink:title=" ">
<path fill="none" stroke="#63b8ff" d="M1031.49,-219.98C1054.52,-211.27 1090.54,-197.63 1116.63,-187.75"/>
<polygon fill="#63b8ff" stroke="#63b8ff" points="1117.98,-190.98 1126.1,-184.17 1115.51,-184.44 1117.98,-190.98"/>
</a>
</g>
</g>
<!-- Node34 -->
<g id="Node000034" class="node">
<title>Node34</title>
<g id="a_Node000034"><a xlink:title=" ">
<polygon fill="#e0e0e0" stroke="#999999" points="1300,-184 1196,-184 1196,-165 1300,-165 1300,-184"/>
<text text-anchor="middle" x="1248" y="-172" font-family="Helvetica,sans-Serif" font-size="10.00">realm/serialize.inl</text>
</a>
</g>
</g>
<!-- Node29&#45;&gt;Node34 -->
<g id="edge50_Node000029_Node000034" class="edge">
<title>Node29&#45;&gt;Node34</title>
<g id="a_edge50_Node000029_Node000034"><a xlink:title=" ">
<path fill="none" stroke="#63b8ff" d="M1047.4,-219.98C1088.74,-210.82 1154.6,-196.21 1199.49,-186.26"/>
<polygon fill="#63b8ff" stroke="#63b8ff" points="1200.29,-189.66 1209.3,-184.08 1198.78,-182.83 1200.29,-189.66"/>
</a>
</g>
</g>
<!-- Node30&#45;&gt;Node7 -->
<g id="edge40_Node000030_Node000007" class="edge">
<title>Node30&#45;&gt;Node7</title>
<g id="a_edge40_Node000030_Node000007"><a xlink:title=" ">
<path fill="none" stroke="#63b8ff" d="M805.59,-164.99C776.74,-151.89 718.89,-126.55 668,-110 619.73,-94.3 562.64,-81.06 525.9,-73.2"/>
<polygon fill="#63b8ff" stroke="#63b8ff" points="526.61,-69.78 516.1,-71.13 525.16,-76.62 526.61,-69.78"/>
</a>
</g>
</g>
<!-- Node31 -->
<g id="Node000031" class="node">
<title>Node31</title>
<g id="a_Node000031"><a xlink:title=" ">
<polygon fill="#e0e0e0" stroke="#999999" points="867.5,-129 758.5,-129 758.5,-110 867.5,-110 867.5,-129"/>
<text text-anchor="middle" x="813" y="-117" font-family="Helvetica,sans-Serif" font-size="10.00">realm/bytearray.inl</text>
</a>
</g>
</g>
<!-- Node30&#45;&gt;Node31 -->
<g id="edge41_Node000030_Node000031" class="edge">
<title>Node30&#45;&gt;Node31</title>
<g id="a_edge41_Node000030_Node000031"><a xlink:title=" ">
<path fill="none" stroke="#63b8ff" d="M822.18,-164.75C820.74,-157.8 818.68,-147.85 816.87,-139.13"/>
<polygon fill="#63b8ff" stroke="#63b8ff" points="820.24,-138.17 814.78,-129.09 813.39,-139.59 820.24,-138.17"/>
</a>
</g>
</g>
<!-- Node37&#45;&gt;Node3 -->
<g id="edge55_Node000037_Node000003" class="edge">
<title>Node37&#45;&gt;Node3</title>
<g id="a_edge55_Node000037_Node000003"><a xlink:title=" ">
<path fill="none" stroke="#63b8ff" d="M357.11,-164.98C335.92,-156.34 302.87,-142.87 278.7,-133.02"/>
<polygon fill="#63b8ff" stroke="#63b8ff" points="279.85,-129.7 269.27,-129.17 277.21,-136.19 279.85,-129.7"/>
</a>
</g>
</g>
<!-- Node37&#45;&gt;Node4 -->
<g id="edge54_Node000037_Node000004" class="edge">
<title>Node37&#45;&gt;Node4</title>
<g id="a_edge54_Node000037_Node000004"><a xlink:title=" ">
<path fill="none" stroke="#63b8ff" d="M426.97,-164.99C524.08,-148.13 733.11,-111.95 749,-110 939.46,-86.68 1165.59,-73.89 1277.71,-68.55"/>
<polygon fill="#63b8ff" stroke="#63b8ff" points="1278.05,-72.03 1287.88,-68.07 1277.72,-65.04 1278.05,-72.03"/>
</a>
</g>
</g>
<!-- Node37&#45;&gt;Node11 -->
<g id="edge56_Node000037_Node000011" class="edge">
<title>Node37&#45;&gt;Node11</title>
<g id="a_edge56_Node000037_Node000011"><a xlink:title=" ">
<path fill="none" stroke="#63b8ff" d="M442.08,-165.92C445.1,-165.6 448.08,-165.29 451,-165 636.39,-146.36 687.5,-160.94 875.78,-128.67"/>
<polygon fill="#63b8ff" stroke="#63b8ff" points="876.48,-132.11 885.73,-126.95 875.28,-125.21 876.48,-132.11"/>
</a>
</g>
</g>
<!-- Node37&#45;&gt;Node13 -->
<g id="edge58_Node000037_Node000013" class="edge">
<title>Node37&#45;&gt;Node13</title>
<g id="a_edge58_Node000037_Node000013"><a xlink:title=" ">
<path fill="none" stroke="#63b8ff" d="M415.75,-164.98C452.29,-156.67 509.49,-143.5 568.38,-129.11"/>
<polygon fill="#63b8ff" stroke="#63b8ff" points="569.34,-132.47 578.22,-126.69 567.68,-125.68 569.34,-132.47"/>
</a>
</g>
</g>
<!-- Node38 -->
<g id="Node000038" class="node">
<title>Node38</title>
<g id="a_Node000038"><a xlink:title=" ">
<polygon fill="#e0e0e0" stroke="#999999" points="407.5,-129 314.5,-129 314.5,-110 407.5,-110 407.5,-129"/>
<text text-anchor="middle" x="361" y="-117" font-family="Helvetica,sans-Serif" font-size="10.00">unordered_map</text>
</a>
</g>
</g>
<!-- Node37&#45;&gt;Node38 -->
<g id="edge57_Node000037_Node000038" class="edge">
<title>Node37&#45;&gt;Node38</title>
<g id="a_edge57_Node000037_Node000038"><a xlink:title=" ">
<path fill="none" stroke="#63b8ff" d="M375.19,-164.75C372.94,-157.72 369.7,-147.62 366.88,-138.84"/>
<polygon fill="#63b8ff" stroke="#63b8ff" points="370.14,-137.54 363.75,-129.09 363.48,-139.68 370.14,-137.54"/>
</a>
</g>
</g>
<!-- Node39 -->
<g id="Node000039" class="node">
<title>Node39</title>
<g id="a_Node000039"><a xlink:title=" ">
<polygon fill="#e0e0e0" stroke="#999999" points="560,-129 426,-129 426,-110 560,-110 560,-129"/>
<text text-anchor="middle" x="493" y="-117" font-family="Helvetica,sans-Serif" font-size="10.00">realm/module_config.inl</text>
</a>
</g>
</g>
<!-- Node37&#45;&gt;Node39 -->
<g id="edge59_Node000037_Node000039" class="edge">
<title>Node37&#45;&gt;Node39</title>
<g id="a_edge59_Node000037_Node000039"><a xlink:title=" ">
<path fill="none" stroke="#63b8ff" d="M396.48,-164.98C414.98,-156.46 443.68,-143.23 464.98,-133.41"/>
<polygon fill="#63b8ff" stroke="#63b8ff" points="466.57,-136.53 474.19,-129.17 463.64,-130.18 466.57,-136.53"/>
</a>
</g>
</g>
</g>
</svg>
