<?xml version="1.0" encoding="UTF-8" standalone="no"?>
<!DOCTYPE svg PUBLIC "-//W3C//DTD SVG 1.1//EN"
 "http://www.w3.org/Graphics/SVG/1.1/DTD/svg11.dtd">
<!-- Generated by graphviz version 2.43.0 (0)
 -->
<!-- Title: /home/runner/work/realm/realm/realm&#45;src/src/realm/sampling.h Pages: 1 -->
<svg width="1960pt" height="588pt"
 viewBox="0.00 0.00 1960.00 588.00" xmlns="http://www.w3.org/2000/svg" xmlns:xlink="http://www.w3.org/1999/xlink">
<g id="graph0" class="graph" transform="scale(1 1) rotate(0) translate(4 584)">
<title>/home/runner/work/realm/realm/realm&#45;src/src/realm/sampling.h</title>
<!-- Node1 -->
<g id="Node000001" class="node">
<title>Node1</title>
<g id="a_Node000001"><a xlink:title=" ">
<polygon fill="#999999" stroke="#666666" points="953,-580 807,-580 807,-539 953,-539 953,-580"/>
<text text-anchor="start" x="815" y="-568" font-family="Helvetica,sans-Serif" font-size="10.00">/home/runner/work/realm</text>
<text text-anchor="start" x="815" y="-557" font-family="Helvetica,sans-Serif" font-size="10.00">/realm/realm&#45;src/src/realm</text>
<text text-anchor="middle" x="880" y="-546" font-family="Helvetica,sans-Serif" font-size="10.00">/sampling.h</text>
</a>
</g>
</g>
<!-- Node2 -->
<g id="Node000002" class="node">
<title>Node2</title>
<g id="a_Node000002"><a xlink:href="mem__impl_8h.html" target="_top" xlink:title=" ">
<polygon fill="white" stroke="#666666" points="1623,-503 1477,-503 1477,-462 1623,-462 1623,-503"/>
<text text-anchor="start" x="1485" y="-491" font-family="Helvetica,sans-Serif" font-size="10.00">/home/runner/work/realm</text>
<text text-anchor="start" x="1485" y="-480" font-family="Helvetica,sans-Serif" font-size="10.00">/realm/realm&#45;src/src/realm</text>
<text text-anchor="middle" x="1550" y="-469" font-family="Helvetica,sans-Serif" font-size="10.00">/mem_impl.h</text>
</a>
</g>
</g>
<!-- Node1&#45;&gt;Node2 -->
<g id="edge1_Node000001_Node000002" class="edge">
<title>Node1&#45;&gt;Node2</title>
<g id="a_edge1_Node000001_Node000002"><a xlink:title=" ">
<path fill="none" stroke="#63b8ff" d="M963.38,-549.17C1095.66,-534.36 1351.44,-505.73 1476.94,-491.68"/>
<polygon fill="#63b8ff" stroke="#63b8ff" points="962.85,-545.7 953.3,-550.3 963.62,-552.66 962.85,-545.7"/>
</a>
</g>
</g>
<!-- Node13 -->
<g id="Node000013" class="node">
<title>Node13</title>
<g id="a_Node000013"><a xlink:href="runtime__impl_8h.html" target="_top" xlink:title=" ">
<polygon fill="white" stroke="#666666" points="1004,-195 858,-195 858,-154 1004,-154 1004,-195"/>
<text text-anchor="start" x="866" y="-183" font-family="Helvetica,sans-Serif" font-size="10.00">/home/runner/work/realm</text>
<text text-anchor="start" x="866" y="-172" font-family="Helvetica,sans-Serif" font-size="10.00">/realm/realm&#45;src/src/realm</text>
<text text-anchor="middle" x="931" y="-161" font-family="Helvetica,sans-Serif" font-size="10.00">/runtime_impl.h</text>
</a>
</g>
</g>
<!-- Node1&#45;&gt;Node13 -->
<g id="edge44_Node000001_Node000013" class="edge">
<title>Node1&#45;&gt;Node13</title>
<g id="a_edge44_Node000001_Node000013"><a xlink:title=" ">
<path fill="none" stroke="#63b8ff" d="M880,-528.8C880,-498.16 880,-448.99 880,-406.5 880,-406.5 880,-406.5 880,-327.5 880,-277.95 904.66,-223.82 919.68,-195.44"/>
<polygon fill="#63b8ff" stroke="#63b8ff" points="876.5,-528.82 880,-538.82 883.5,-528.82 876.5,-528.82"/>
</a>
</g>
</g>
<!-- Node14 -->
<g id="Node000014" class="node">
<title>Node14</title>
<g id="a_Node000014"><a xlink:href="proc__impl_8h.html" target="_top" xlink:title=" ">
<polygon fill="white" stroke="#666666" points="954,-118 808,-118 808,-77 954,-77 954,-118"/>
<text text-anchor="start" x="816" y="-106" font-family="Helvetica,sans-Serif" font-size="10.00">/home/runner/work/realm</text>
<text text-anchor="start" x="816" y="-95" font-family="Helvetica,sans-Serif" font-size="10.00">/realm/realm&#45;src/src/realm</text>
<text text-anchor="middle" x="881" y="-84" font-family="Helvetica,sans-Serif" font-size="10.00">/proc_impl.h</text>
</a>
</g>
</g>
<!-- Node1&#45;&gt;Node14 -->
<g id="edge43_Node000001_Node000014" class="edge">
<title>Node1&#45;&gt;Node14</title>
<g id="a_edge43_Node000001_Node000014"><a xlink:title=" ">
<path fill="none" stroke="#63b8ff" d="M864.35,-529.5C849.68,-499.58 830,-451.12 830,-406.5 830,-406.5 830,-406.5 830,-250.5 830,-206.79 833.65,-194.93 849,-154 853.72,-141.4 861.13,-128.31 867.63,-118.01"/>
<polygon fill="#63b8ff" stroke="#63b8ff" points="861.28,-531.18 868.9,-538.54 867.53,-528.03 861.28,-531.18"/>
</a>
</g>
</g>
<!-- Node20 -->
<g id="Node000020" class="node">
<title>Node20</title>
<g id="a_Node000020"><a xlink:href="pri__queue_8h.html" target="_top" xlink:title=" ">
<polygon fill="white" stroke="#666666" points="638,-349 492,-349 492,-308 638,-308 638,-349"/>
<text text-anchor="start" x="500" y="-337" font-family="Helvetica,sans-Serif" font-size="10.00">/home/runner/work/realm</text>
<text text-anchor="start" x="500" y="-326" font-family="Helvetica,sans-Serif" font-size="10.00">/realm/realm&#45;src/src/realm</text>
<text text-anchor="middle" x="565" y="-315" font-family="Helvetica,sans-Serif" font-size="10.00">/pri_queue.h</text>
</a>
</g>
</g>
<!-- Node1&#45;&gt;Node20 -->
<g id="edge33_Node000001_Node000020" class="edge">
<title>Node1&#45;&gt;Node20</title>
<g id="a_edge33_Node000001_Node000020"><a xlink:title=" ">
<path fill="none" stroke="#63b8ff" d="M845.05,-533.09C781.74,-487.07 649.38,-390.85 592.24,-349.3"/>
<polygon fill="#63b8ff" stroke="#63b8ff" points="843,-535.93 853.14,-538.98 847.11,-530.26 843,-535.93"/>
</a>
</g>
</g>
<!-- Node27 -->
<g id="Node000027" class="node">
<title>Node27</title>
<g id="a_Node000027"><a xlink:href="sampling__impl_8h.html" target="_top" xlink:title=" ">
<polygon fill="white" stroke="#666666" points="1787,-503 1641,-503 1641,-462 1787,-462 1787,-503"/>
<text text-anchor="start" x="1649" y="-491" font-family="Helvetica,sans-Serif" font-size="10.00">/home/runner/work/realm</text>
<text text-anchor="start" x="1649" y="-480" font-family="Helvetica,sans-Serif" font-size="10.00">/realm/realm&#45;src/src/realm</text>
<text text-anchor="middle" x="1714" y="-469" font-family="Helvetica,sans-Serif" font-size="10.00">/sampling_impl.h</text>
</a>
</g>
</g>
<!-- Node1&#45;&gt;Node27 -->
<g id="edge45_Node000001_Node000027" class="edge">
<title>Node1&#45;&gt;Node27</title>
<g id="a_edge45_Node000001_Node000027"><a xlink:title=" ">
<path fill="none" stroke="#63b8ff" d="M963.2,-556.7C1102.39,-552.71 1390.94,-540.31 1632,-503 1634.89,-502.55 1637.83,-502.06 1640.8,-501.52"/>
<polygon fill="#63b8ff" stroke="#63b8ff" points="962.93,-553.2 953.03,-556.98 963.13,-560.2 962.93,-553.2"/>
</a>
</g>
</g>
<!-- Node3 -->
<g id="Node000003" class="node">
<title>Node3</title>
<g id="a_Node000003"><a xlink:href="cuda__internal_8h.html" target="_top" xlink:title=" ">
<polygon fill="white" stroke="#666666" points="1272,-41 1126,-41 1126,0 1272,0 1272,-41"/>
<text text-anchor="start" x="1134" y="-29" font-family="Helvetica,sans-Serif" font-size="10.00">/home/runner/work/realm</text>
<text text-anchor="start" x="1134" y="-18" font-family="Helvetica,sans-Serif" font-size="10.00">/realm/realm&#45;src/src/realm</text>
<text text-anchor="middle" x="1199" y="-7" font-family="Helvetica,sans-Serif" font-size="10.00">/cuda/cuda_internal.h</text>
</a>
</g>
</g>
<!-- Node2&#45;&gt;Node3 -->
<g id="edge2_Node000002_Node000003" class="edge">
<title>Node2&#45;&gt;Node3</title>
<g id="a_edge2_Node000002_Node000003"><a xlink:title=" ">
<path fill="none" stroke="#63b8ff" d="M1466.54,-478.9C1389.68,-474.23 1273.58,-461.34 1179,-426 1059.58,-381.37 998.35,-383.76 937,-272 928.23,-256.03 927.26,-246.4 937,-231 956.99,-199.42 988.36,-223.1 1013,-195 1049.33,-153.58 1012.97,-116.87 1051,-77 1070.79,-56.25 1099.09,-43.19 1125.65,-35"/>
<polygon fill="#63b8ff" stroke="#63b8ff" points="1466.46,-482.41 1476.65,-479.48 1466.86,-475.42 1466.46,-482.41"/>
</a>
</g>
</g>
<!-- Node4 -->
<g id="Node000004" class="node">
<title>Node4</title>
<g id="a_Node000004"><a xlink:href="hdf5__internal_8h.html" target="_top" xlink:title=" ">
<polygon fill="white" stroke="#666666" points="1645,-41 1499,-41 1499,0 1645,0 1645,-41"/>
<text text-anchor="start" x="1507" y="-29" font-family="Helvetica,sans-Serif" font-size="10.00">/home/runner/work/realm</text>
<text text-anchor="start" x="1507" y="-18" font-family="Helvetica,sans-Serif" font-size="10.00">/realm/realm&#45;src/src/realm</text>
<text text-anchor="middle" x="1572" y="-7" font-family="Helvetica,sans-Serif" font-size="10.00">/hdf5/hdf5_internal.h</text>
</a>
</g>
</g>
<!-- Node2&#45;&gt;Node4 -->
<g id="edge3_Node000002_Node000004" class="edge">
<title>Node2&#45;&gt;Node4</title>
<g id="a_edge3_Node000002_Node000004"><a xlink:title=" ">
<path fill="none" stroke="#63b8ff" d="M1573.57,-454.06C1580.93,-445.24 1588.96,-435.33 1596,-426 1615.17,-400.62 1651.18,-326.58 1677,-308 1724.27,-273.98 1767.93,-318.5 1803,-272 1872.82,-179.43 1700.32,-81.77 1615.63,-41.08"/>
<polygon fill="#63b8ff" stroke="#63b8ff" points="1570.81,-451.91 1567.05,-461.81 1576.17,-456.41 1570.81,-451.91"/>
</a>
</g>
</g>
<!-- Node5 -->
<g id="Node000005" class="node">
<title>Node5</title>
<g id="a_Node000005"><a xlink:href="hip__internal_8h.html" target="_top" xlink:title=" ">
<polygon fill="white" stroke="#666666" points="1952,-41 1806,-41 1806,0 1952,0 1952,-41"/>
<text text-anchor="start" x="1814" y="-29" font-family="Helvetica,sans-Serif" font-size="10.00">/home/runner/work/realm</text>
<text text-anchor="start" x="1814" y="-18" font-family="Helvetica,sans-Serif" font-size="10.00">/realm/realm&#45;src/src/realm</text>
<text text-anchor="middle" x="1879" y="-7" font-family="Helvetica,sans-Serif" font-size="10.00">/hip/hip_internal.h</text>
</a>
</g>
</g>
<!-- Node2&#45;&gt;Node5 -->
<g id="edge4_Node000002_Node000005" class="edge">
<title>Node2&#45;&gt;Node5</title>
<g id="a_edge4_Node000002_Node000005"><a xlink:title=" ">
<path fill="none" stroke="#63b8ff" d="M1633.19,-462.12C1707.7,-452.11 1863.16,-464.46 1908,-426 1941.89,-396.92 1936,-374.16 1936,-329.5 1936,-329.5 1936,-329.5 1936,-173.5 1936,-123.33 1908.44,-69.44 1891.65,-41.26"/>
<polygon fill="#63b8ff" stroke="#63b8ff" points="1632.57,-458.67 1623.24,-463.69 1633.66,-465.59 1632.57,-458.67"/>
</a>
</g>
</g>
<!-- Node6 -->
<g id="Node000006" class="node">
<title>Node6</title>
<g id="a_Node000006"><a xlink:href="inst__impl_8h.html" target="_top" xlink:title=" ">
<polygon fill="white" stroke="#666666" points="1334,-426 1188,-426 1188,-385 1334,-385 1334,-426"/>
<text text-anchor="start" x="1196" y="-414" font-family="Helvetica,sans-Serif" font-size="10.00">/home/runner/work/realm</text>
<text text-anchor="start" x="1196" y="-403" font-family="Helvetica,sans-Serif" font-size="10.00">/realm/realm&#45;src/src/realm</text>
<text text-anchor="middle" x="1261" y="-392" font-family="Helvetica,sans-Serif" font-size="10.00">/inst_impl.h</text>
</a>
</g>
</g>
<!-- Node2&#45;&gt;Node6 -->
<g id="edge5_Node000002_Node000006" class="edge">
<title>Node2&#45;&gt;Node6</title>
<g id="a_edge5_Node000002_Node000006"><a xlink:title=" ">
<path fill="none" stroke="#63b8ff" d="M1466.8,-459.91C1424.92,-449.04 1374.62,-435.99 1334.22,-425.5"/>
<polygon fill="#63b8ff" stroke="#63b8ff" points="1466.14,-463.35 1476.7,-462.48 1467.9,-456.58 1466.14,-463.35"/>
</a>
</g>
</g>
<!-- Node7 -->
<g id="Node000007" class="node">
<title>Node7</title>
<g id="a_Node000007"><a xlink:href="channel_8h.html" target="_top" xlink:title=" ">
<polygon fill="white" stroke="#666666" points="1546,-349 1400,-349 1400,-308 1546,-308 1546,-349"/>
<text text-anchor="start" x="1408" y="-337" font-family="Helvetica,sans-Serif" font-size="10.00">/home/runner/work/realm</text>
<text text-anchor="start" x="1408" y="-326" font-family="Helvetica,sans-Serif" font-size="10.00">/realm/realm&#45;src/src/realm</text>
<text text-anchor="middle" x="1473" y="-315" font-family="Helvetica,sans-Serif" font-size="10.00">/transfer/channel.h</text>
</a>
</g>
</g>
<!-- Node2&#45;&gt;Node7 -->
<g id="edge26_Node000002_Node000007" class="edge">
<title>Node2&#45;&gt;Node7</title>
<g id="a_edge26_Node000002_Node000007"><a xlink:title=" ">
<path fill="none" stroke="#63b8ff" d="M1535.44,-452.76C1520.15,-422.57 1496.49,-375.87 1483.12,-349.47"/>
<polygon fill="#63b8ff" stroke="#63b8ff" points="1532.45,-454.6 1540.09,-461.94 1538.69,-451.44 1532.45,-454.6"/>
</a>
</g>
</g>
<!-- Node11 -->
<g id="Node000011" class="node">
<title>Node11</title>
<g id="a_Node000011"><a xlink:href="memcpy__channel_8h.html" target="_top" xlink:title=" ">
<polygon fill="white" stroke="#666666" points="1794,-272 1638,-272 1638,-231 1794,-231 1794,-272"/>
<text text-anchor="start" x="1646" y="-260" font-family="Helvetica,sans-Serif" font-size="10.00">/home/runner/work/realm</text>
<text text-anchor="start" x="1646" y="-249" font-family="Helvetica,sans-Serif" font-size="10.00">/realm/realm&#45;src/src/realm</text>
<text text-anchor="middle" x="1716" y="-238" font-family="Helvetica,sans-Serif" font-size="10.00">/transfer/memcpy_channel.h</text>
</a>
</g>
</g>
<!-- Node2&#45;&gt;Node11 -->
<g id="edge31_Node000002_Node000011" class="edge">
<title>Node2&#45;&gt;Node11</title>
<g id="a_edge31_Node000002_Node000011"><a xlink:title=" ">
<path fill="none" stroke="#63b8ff" d="M1561.3,-452.4C1576.4,-415.98 1605.73,-352.94 1644,-308 1655.66,-294.3 1671.22,-281.8 1684.88,-272.14"/>
<polygon fill="#63b8ff" stroke="#63b8ff" points="1557.95,-451.35 1557.43,-461.93 1564.44,-453.98 1557.95,-451.35"/>
</a>
</g>
</g>
<!-- Node18 -->
<g id="Node000018" class="node">
<title>Node18</title>
<g id="a_Node000018"><a xlink:href="ib__memory_8h.html" target="_top" xlink:title=" ">
<polygon fill="white" stroke="#666666" points="1899,-426 1753,-426 1753,-385 1899,-385 1899,-426"/>
<text text-anchor="start" x="1761" y="-414" font-family="Helvetica,sans-Serif" font-size="10.00">/home/runner/work/realm</text>
<text text-anchor="start" x="1761" y="-403" font-family="Helvetica,sans-Serif" font-size="10.00">/realm/realm&#45;src/src/realm</text>
<text text-anchor="middle" x="1826" y="-392" font-family="Helvetica,sans-Serif" font-size="10.00">/transfer/ib_memory.h</text>
</a>
</g>
</g>
<!-- Node2&#45;&gt;Node18 -->
<g id="edge27_Node000002_Node000018" class="edge">
<title>Node2&#45;&gt;Node18</title>
<g id="a_edge27_Node000002_Node000018"><a xlink:title=" ">
<path fill="none" stroke="#63b8ff" d="M1631.52,-459.35C1670.4,-448.78 1716.52,-436.25 1754.09,-426.04"/>
<polygon fill="#63b8ff" stroke="#63b8ff" points="1630.53,-455.99 1621.8,-461.99 1632.36,-462.75 1630.53,-455.99"/>
</a>
</g>
</g>
<!-- Node19 -->
<g id="Node000019" class="node">
<title>Node19</title>
<g id="a_Node000019"><a xlink:href="ucp__internal_8h.html" target="_top" xlink:title=" ">
<polygon fill="white" stroke="#666666" points="1832,-349 1686,-349 1686,-308 1832,-308 1832,-349"/>
<text text-anchor="start" x="1694" y="-337" font-family="Helvetica,sans-Serif" font-size="10.00">/home/runner/work/realm</text>
<text text-anchor="start" x="1694" y="-326" font-family="Helvetica,sans-Serif" font-size="10.00">/realm/realm&#45;src/src/realm</text>
<text text-anchor="middle" x="1759" y="-315" font-family="Helvetica,sans-Serif" font-size="10.00">/ucx/ucp_internal.h</text>
</a>
</g>
</g>
<!-- Node2&#45;&gt;Node19 -->
<g id="edge32_Node000002_Node000019" class="edge">
<title>Node2&#45;&gt;Node19</title>
<g id="a_edge32_Node000002_Node000019"><a xlink:title=" ">
<path fill="none" stroke="#63b8ff" d="M1614.82,-457.91C1634.13,-449.36 1654.74,-438.64 1672,-426 1702.03,-404.01 1729.49,-370.28 1745.22,-349.08"/>
<polygon fill="#63b8ff" stroke="#63b8ff" points="1613.27,-454.77 1605.46,-461.93 1616.03,-461.2 1613.27,-454.77"/>
</a>
</g>
</g>
<!-- Node6&#45;&gt;Node7 -->
<g id="edge6_Node000006_Node000007" class="edge">
<title>Node6&#45;&gt;Node7</title>
<g id="a_edge6_Node000006_Node000007"><a xlink:title=" ">
<path fill="none" stroke="#63b8ff" d="M1325.9,-381.54C1355.28,-371.15 1389.64,-358.99 1417.76,-349.04"/>
<polygon fill="#63b8ff" stroke="#63b8ff" points="1324.41,-378.36 1316.15,-384.99 1326.74,-384.95 1324.41,-378.36"/>
</a>
</g>
</g>
<!-- Node10 -->
<g id="Node000010" class="node">
<title>Node10</title>
<g id="a_Node000010"><a xlink:href="lowlevel__dma_8h.html" target="_top" xlink:title=" ">
<polygon fill="white" stroke="#666666" points="1206,-118 1060,-118 1060,-77 1206,-77 1206,-118"/>
<text text-anchor="start" x="1068" y="-106" font-family="Helvetica,sans-Serif" font-size="10.00">/home/runner/work/realm</text>
<text text-anchor="start" x="1068" y="-95" font-family="Helvetica,sans-Serif" font-size="10.00">/realm/realm&#45;src/src/realm</text>
<text text-anchor="middle" x="1133" y="-84" font-family="Helvetica,sans-Serif" font-size="10.00">/transfer/lowlevel_dma.h</text>
</a>
</g>
</g>
<!-- Node6&#45;&gt;Node10 -->
<g id="edge24_Node000006_Node000010" class="edge">
<title>Node6&#45;&gt;Node10</title>
<g id="a_edge24_Node000006_Node000010"><a xlink:title=" ">
<path fill="none" stroke="#63b8ff" d="M1227.86,-378.21C1200,-353.95 1161.93,-315.21 1144,-272 1122.37,-219.87 1126.47,-151.32 1130.25,-118.16"/>
<polygon fill="#63b8ff" stroke="#63b8ff" points="1225.9,-381.14 1235.78,-384.97 1230.44,-375.81 1225.9,-381.14"/>
</a>
</g>
</g>
<!-- Node12 -->
<g id="Node000012" class="node">
<title>Node12</title>
<g id="a_Node000012"><a xlink:href="transfer_8h.html" target="_top" xlink:title=" ">
<polygon fill="white" stroke="#666666" points="1092,-272 946,-272 946,-231 1092,-231 1092,-272"/>
<text text-anchor="start" x="954" y="-260" font-family="Helvetica,sans-Serif" font-size="10.00">/home/runner/work/realm</text>
<text text-anchor="start" x="954" y="-249" font-family="Helvetica,sans-Serif" font-size="10.00">/realm/realm&#45;src/src/realm</text>
<text text-anchor="middle" x="1019" y="-238" font-family="Helvetica,sans-Serif" font-size="10.00">/transfer/transfer.h</text>
</a>
</g>
</g>
<!-- Node6&#45;&gt;Node12 -->
<g id="edge25_Node000006_Node000012" class="edge">
<title>Node6&#45;&gt;Node12</title>
<g id="a_edge25_Node000006_Node000012"><a xlink:title=" ">
<path fill="none" stroke="#63b8ff" d="M1178.06,-383.2C1153.65,-374.77 1127.69,-363.54 1106,-349 1074.9,-328.15 1047.55,-293.77 1032.16,-272.16"/>
<polygon fill="#63b8ff" stroke="#63b8ff" points="1177.09,-386.57 1187.68,-386.41 1179.3,-379.93 1177.09,-386.57"/>
</a>
</g>
</g>
<!-- Node7&#45;&gt;Node3 -->
<g id="edge7_Node000007_Node000003" class="edge">
<title>Node7&#45;&gt;Node3</title>
<g id="a_edge7_Node000007_Node000003"><a xlink:title=" ">
<path fill="none" stroke="#63b8ff" d="M1389.66,-323.45C1311.77,-317.71 1203.6,-304.06 1177,-272 1153.96,-244.23 1204.47,-182.35 1215,-118 1217.94,-100.02 1217.55,-95.04 1215,-77 1213.29,-64.89 1209.57,-51.71 1206.16,-41.24"/>
<polygon fill="#63b8ff" stroke="#63b8ff" points="1389.73,-326.96 1399.95,-324.17 1390.22,-319.98 1389.73,-326.96"/>
</a>
</g>
</g>
<!-- Node7&#45;&gt;Node4 -->
<g id="edge8_Node000007_Node000004" class="edge">
<title>Node7&#45;&gt;Node4</title>
<g id="a_edge8_Node000007_Node000004"><a xlink:title=" ">
<path fill="none" stroke="#63b8ff" d="M1508.55,-301.15C1517.52,-292.8 1526.24,-282.87 1532,-272 1573.23,-194.17 1574.45,-85.05 1573.01,-41.04"/>
<polygon fill="#63b8ff" stroke="#63b8ff" points="1506.2,-298.55 1501,-307.79 1510.82,-303.81 1506.2,-298.55"/>
</a>
</g>
</g>
<!-- Node7&#45;&gt;Node5 -->
<g id="edge9_Node000007_Node000005" class="edge">
<title>Node7&#45;&gt;Node5</title>
<g id="a_edge9_Node000007_Node000005"><a xlink:title=" ">
<path fill="none" stroke="#63b8ff" d="M1511.19,-301.98C1524.81,-292.7 1540.2,-282.03 1554,-272 1668.37,-188.84 1800.78,-84.03 1854.49,-41.15"/>
<polygon fill="#63b8ff" stroke="#63b8ff" points="1508.83,-299.35 1502.52,-307.85 1512.76,-305.14 1508.83,-299.35"/>
</a>
</g>
</g>
<!-- Node8 -->
<g id="Node000008" class="node">
<title>Node8</title>
<g id="a_Node000008"><a xlink:href="addrsplit__channel_8h.html" target="_top" xlink:title=" ">
<polygon fill="white" stroke="#666666" points="1506,-272 1350,-272 1350,-231 1506,-231 1506,-272"/>
<text text-anchor="start" x="1358" y="-260" font-family="Helvetica,sans-Serif" font-size="10.00">/home/runner/work/realm</text>
<text text-anchor="start" x="1358" y="-249" font-family="Helvetica,sans-Serif" font-size="10.00">/realm/realm&#45;src/src/realm</text>
<text text-anchor="middle" x="1428" y="-238" font-family="Helvetica,sans-Serif" font-size="10.00">/transfer/addrsplit_channel.h</text>
</a>
</g>
</g>
<!-- Node7&#45;&gt;Node8 -->
<g id="edge10_Node000007_Node000008" class="edge">
<title>Node7&#45;&gt;Node8</title>
<g id="a_edge10_Node000007_Node000008"><a xlink:title=" ">
<path fill="none" stroke="#63b8ff" d="M1455.97,-299.11C1450.56,-290.09 1444.7,-280.33 1439.74,-272.07"/>
<polygon fill="#63b8ff" stroke="#63b8ff" points="1453.03,-301.02 1461.18,-307.79 1459.03,-297.42 1453.03,-301.02"/>
</a>
</g>
</g>
<!-- Node9 -->
<g id="Node000009" class="node">
<title>Node9</title>
<g id="a_Node000009"><a xlink:href="channel__disk_8h.html" target="_top" xlink:title=" ">
<polygon fill="white" stroke="#666666" points="1332,-272 1186,-272 1186,-231 1332,-231 1332,-272"/>
<text text-anchor="start" x="1194" y="-260" font-family="Helvetica,sans-Serif" font-size="10.00">/home/runner/work/realm</text>
<text text-anchor="start" x="1194" y="-249" font-family="Helvetica,sans-Serif" font-size="10.00">/realm/realm&#45;src/src/realm</text>
<text text-anchor="middle" x="1259" y="-238" font-family="Helvetica,sans-Serif" font-size="10.00">/transfer/channel_disk.h</text>
</a>
</g>
</g>
<!-- Node7&#45;&gt;Node9 -->
<g id="edge11_Node000007_Node000009" class="edge">
<title>Node7&#45;&gt;Node9</title>
<g id="a_edge11_Node000007_Node000009"><a xlink:title=" ">
<path fill="none" stroke="#63b8ff" d="M1407.87,-304.67C1378.13,-294.25 1343.27,-282.03 1314.76,-272.04"/>
<polygon fill="#63b8ff" stroke="#63b8ff" points="1406.74,-307.99 1417.33,-307.99 1409.05,-301.38 1406.74,-307.99"/>
</a>
</g>
</g>
<!-- Node7&#45;&gt;Node10 -->
<g id="edge12_Node000007_Node000010" class="edge">
<title>Node7&#45;&gt;Node10</title>
<g id="a_edge12_Node000007_Node000010"><a xlink:title=" ">
<path fill="none" stroke="#63b8ff" d="M1499.39,-299.87C1515.4,-279.67 1530.08,-252.2 1515,-231 1444.8,-132.34 1295.76,-106.48 1206,-100.11"/>
<polygon fill="#63b8ff" stroke="#63b8ff" points="1496.51,-297.86 1492.77,-307.78 1501.87,-302.36 1496.51,-297.86"/>
</a>
</g>
</g>
<!-- Node7&#45;&gt;Node11 -->
<g id="edge14_Node000007_Node000011" class="edge">
<title>Node7&#45;&gt;Node11</title>
<g id="a_edge14_Node000007_Node000011"><a xlink:title=" ">
<path fill="none" stroke="#63b8ff" d="M1546.08,-304.94C1580.04,-294.46 1620.03,-282.12 1652.68,-272.04"/>
<polygon fill="#63b8ff" stroke="#63b8ff" points="1544.73,-301.7 1536.21,-307.99 1546.8,-308.39 1544.73,-301.7"/>
</a>
</g>
</g>
<!-- Node7&#45;&gt;Node12 -->
<g id="edge15_Node000007_Node000012" class="edge">
<title>Node7&#45;&gt;Node12</title>
<g id="a_edge15_Node000007_Node000012"><a xlink:title=" ">
<path fill="none" stroke="#63b8ff" d="M1389.9,-313.77C1304.68,-299.69 1173.42,-278.01 1092.05,-264.57"/>
<polygon fill="#63b8ff" stroke="#63b8ff" points="1389.37,-317.23 1399.8,-315.41 1390.51,-310.33 1389.37,-317.23"/>
</a>
</g>
</g>
<!-- Node10&#45;&gt;Node4 -->
<g id="edge13_Node000010_Node000004" class="edge">
<title>Node10&#45;&gt;Node4</title>
<g id="a_edge13_Node000010_Node000004"><a xlink:title=" ">
<path fill="none" stroke="#63b8ff" d="M1216.7,-82.2C1298.21,-68.27 1420.87,-47.32 1498.65,-34.03"/>
<polygon fill="#63b8ff" stroke="#63b8ff" points="1215.75,-78.81 1206.48,-83.95 1216.93,-85.71 1215.75,-78.81"/>
</a>
</g>
</g>
<!-- Node12&#45;&gt;Node13 -->
<g id="edge16_Node000012_Node000013" class="edge">
<title>Node12&#45;&gt;Node13</title>
<g id="a_edge16_Node000012_Node000013"><a xlink:title=" ">
<path fill="none" stroke="#63b8ff" d="M987.99,-224.07C976.79,-214.52 964.35,-203.93 953.97,-195.07"/>
<polygon fill="#63b8ff" stroke="#63b8ff" points="986,-226.97 995.88,-230.79 990.54,-221.64 986,-226.97"/>
</a>
</g>
</g>
<!-- Node13&#45;&gt;Node10 -->
<g id="edge23_Node000013_Node000010" class="edge">
<title>Node13&#45;&gt;Node10</title>
<g id="a_edge23_Node000013_Node000010"><a xlink:title=" ">
<path fill="none" stroke="#63b8ff" d="M993.21,-150.4C1021.12,-140.04 1053.69,-127.95 1080.37,-118.04"/>
<polygon fill="#63b8ff" stroke="#63b8ff" points="991.7,-147.23 983.55,-153.99 994.14,-153.79 991.7,-147.23"/>
</a>
</g>
</g>
<!-- Node13&#45;&gt;Node14 -->
<g id="edge17_Node000013_Node000014" class="edge">
<title>Node13&#45;&gt;Node14</title>
<g id="a_edge17_Node000013_Node000014"><a xlink:title=" ">
<path fill="none" stroke="#63b8ff" d="M912.26,-145.39C906.2,-136.3 899.61,-126.41 894.05,-118.07"/>
<polygon fill="#63b8ff" stroke="#63b8ff" points="909.4,-147.42 917.86,-153.79 915.23,-143.53 909.4,-147.42"/>
</a>
</g>
</g>
<!-- Node14&#45;&gt;Node3 -->
<g id="edge18_Node000014_Node000003" class="edge">
<title>Node14&#45;&gt;Node3</title>
<g id="a_edge18_Node000014_Node000003"><a xlink:title=" ">
<path fill="none" stroke="#63b8ff" d="M964.19,-76.88C1014.3,-65.06 1077.52,-50.15 1125.74,-38.78"/>
<polygon fill="#63b8ff" stroke="#63b8ff" points="963.28,-73.5 954.35,-79.2 964.89,-80.31 963.28,-73.5"/>
</a>
</g>
</g>
<!-- Node14&#45;&gt;Node5 -->
<g id="edge19_Node000014_Node000005" class="edge">
<title>Node14&#45;&gt;Node5</title>
<g id="a_edge19_Node000014_Node000005"><a xlink:title=" ">
<path fill="none" stroke="#63b8ff" d="M964.14,-86.05C991.75,-82.82 1022.66,-79.47 1051,-77 1318.46,-53.69 1386.24,-60.59 1654,-41 1704.74,-37.29 1761.84,-32.33 1805.83,-28.34"/>
<polygon fill="#63b8ff" stroke="#63b8ff" points="963.65,-82.58 954.13,-87.23 964.47,-89.53 963.65,-82.58"/>
</a>
</g>
</g>
<!-- Node15 -->
<g id="Node000015" class="node">
<title>Node15</title>
<g id="a_Node000015"><a xlink:href="kokkos__interop_8h.html" target="_top" xlink:title=" ">
<polygon fill="white" stroke="#666666" points="1039,-41 893,-41 893,0 1039,0 1039,-41"/>
<text text-anchor="start" x="901" y="-29" font-family="Helvetica,sans-Serif" font-size="10.00">/home/runner/work/realm</text>
<text text-anchor="start" x="901" y="-18" font-family="Helvetica,sans-Serif" font-size="10.00">/realm/realm&#45;src/src/realm</text>
<text text-anchor="middle" x="966" y="-7" font-family="Helvetica,sans-Serif" font-size="10.00">/kokkos/kokkos_interop.h</text>
</a>
</g>
</g>
<!-- Node14&#45;&gt;Node15 -->
<g id="edge20_Node000014_Node000015" class="edge">
<title>Node14&#45;&gt;Node15</title>
<g id="a_edge20_Node000014_Node000015"><a xlink:title=" ">
<path fill="none" stroke="#63b8ff" d="M910.95,-70.07C921.77,-60.52 933.78,-49.93 943.82,-41.07"/>
<polygon fill="#63b8ff" stroke="#63b8ff" points="908.52,-67.55 903.33,-76.79 913.15,-72.8 908.52,-67.55"/>
</a>
</g>
</g>
<!-- Node16 -->
<g id="Node000016" class="node">
<title>Node16</title>
<g id="a_Node000016"><a xlink:href="openmp__internal_8h.html" target="_top" xlink:title=" ">
<polygon fill="white" stroke="#666666" points="545,-41 391,-41 391,0 545,0 545,-41"/>
<text text-anchor="start" x="399" y="-29" font-family="Helvetica,sans-Serif" font-size="10.00">/home/runner/work/realm</text>
<text text-anchor="start" x="399" y="-18" font-family="Helvetica,sans-Serif" font-size="10.00">/realm/realm&#45;src/src/realm</text>
<text text-anchor="middle" x="468" y="-7" font-family="Helvetica,sans-Serif" font-size="10.00">/openmp/openmp_internal.h</text>
</a>
</g>
</g>
<!-- Node14&#45;&gt;Node16 -->
<g id="edge21_Node000014_Node000016" class="edge">
<title>Node14&#45;&gt;Node16</title>
<g id="a_edge21_Node000014_Node000016"><a xlink:title=" ">
<path fill="none" stroke="#63b8ff" d="M797.46,-81.33C723.7,-67.93 617.03,-48.56 545.23,-35.53"/>
<polygon fill="#63b8ff" stroke="#63b8ff" points="797.18,-84.83 807.64,-83.18 798.43,-77.95 797.18,-84.83"/>
</a>
</g>
</g>
<!-- Node17 -->
<g id="Node000017" class="node">
<title>Node17</title>
<g id="a_Node000017"><a xlink:href="python__internal_8h.html" target="_top" xlink:title=" ">
<polygon fill="white" stroke="#666666" points="875,-41 729,-41 729,0 875,0 875,-41"/>
<text text-anchor="start" x="737" y="-29" font-family="Helvetica,sans-Serif" font-size="10.00">/home/runner/work/realm</text>
<text text-anchor="start" x="737" y="-18" font-family="Helvetica,sans-Serif" font-size="10.00">/realm/realm&#45;src/src/realm</text>
<text text-anchor="middle" x="802" y="-7" font-family="Helvetica,sans-Serif" font-size="10.00">/python/python_internal.h</text>
</a>
</g>
</g>
<!-- Node14&#45;&gt;Node17 -->
<g id="edge22_Node000014_Node000017" class="edge">
<title>Node14&#45;&gt;Node17</title>
<g id="a_edge22_Node000014_Node000017"><a xlink:title=" ">
<path fill="none" stroke="#63b8ff" d="M852.87,-69.79C842.89,-60.32 831.85,-49.84 822.62,-41.07"/>
<polygon fill="#63b8ff" stroke="#63b8ff" points="850.58,-72.45 860.24,-76.79 855.4,-67.37 850.58,-72.45"/>
</a>
</g>
</g>
<!-- Node18&#45;&gt;Node3 -->
<g id="edge28_Node000018_Node000003" class="edge">
<title>Node18&#45;&gt;Node3</title>
<g id="a_edge28_Node000018_Node000003"><a xlink:title=" ">
<path fill="none" stroke="#63b8ff" d="M1838.22,-375.54C1851.9,-338.05 1868.22,-272.61 1836,-231 1698.87,-53.93 1408.12,-24.68 1272.07,-21.08"/>
<polygon fill="#63b8ff" stroke="#63b8ff" points="1834.95,-374.3 1834.65,-384.89 1841.49,-376.79 1834.95,-374.3"/>
</a>
</g>
</g>
<!-- Node18&#45;&gt;Node5 -->
<g id="edge29_Node000018_Node000005" class="edge">
<title>Node18&#45;&gt;Node5</title>
<g id="a_edge29_Node000018_Node000005"><a xlink:title=" ">
<path fill="none" stroke="#63b8ff" d="M1853.82,-377.47C1861.29,-368.97 1868.75,-359.13 1874,-349 1894.35,-309.77 1898,-296.7 1898,-252.5 1898,-252.5 1898,-252.5 1898,-173.5 1898,-125.63 1888.61,-69.93 1883.03,-41.08"/>
<polygon fill="#63b8ff" stroke="#63b8ff" points="1851.2,-375.15 1847.02,-384.88 1856.36,-379.89 1851.2,-375.15"/>
</a>
</g>
</g>
<!-- Node18&#45;&gt;Node19 -->
<g id="edge30_Node000018_Node000019" class="edge">
<title>Node18&#45;&gt;Node19</title>
<g id="a_edge30_Node000018_Node000019"><a xlink:title=" ">
<path fill="none" stroke="#63b8ff" d="M1801.64,-377.23C1793.31,-367.91 1784.16,-357.67 1776.49,-349.07"/>
<polygon fill="#63b8ff" stroke="#63b8ff" points="1799.12,-379.67 1808.4,-384.79 1804.34,-375.01 1799.12,-379.67"/>
</a>
</g>
</g>
<!-- Node21 -->
<g id="Node000021" class="node">
<title>Node21</title>
<g id="a_Node000021"><a xlink:href="partitions_8h.html" target="_top" xlink:title=" ">
<polygon fill="white" stroke="#666666" points="638,-272 492,-272 492,-231 638,-231 638,-272"/>
<text text-anchor="start" x="500" y="-260" font-family="Helvetica,sans-Serif" font-size="10.00">/home/runner/work/realm</text>
<text text-anchor="start" x="500" y="-249" font-family="Helvetica,sans-Serif" font-size="10.00">/realm/realm&#45;src/src/realm</text>
<text text-anchor="middle" x="565" y="-238" font-family="Helvetica,sans-Serif" font-size="10.00">/deppart/partitions.h</text>
</a>
</g>
</g>
<!-- Node20&#45;&gt;Node21 -->
<g id="edge34_Node000020_Node000021" class="edge">
<title>Node20&#45;&gt;Node21</title>
<g id="a_edge34_Node000020_Node000021"><a xlink:title=" ">
<path fill="none" stroke="#63b8ff" d="M565,-297.69C565,-289.08 565,-279.9 565,-272.07"/>
<polygon fill="#63b8ff" stroke="#63b8ff" points="561.5,-297.79 565,-307.79 568.5,-297.79 561.5,-297.79"/>
</a>
</g>
</g>
<!-- Node26 -->
<g id="Node000026" class="node">
<title>Node26</title>
<g id="a_Node000026"><a xlink:href="tasks_8h.html" target="_top" xlink:title=" ">
<polygon fill="white" stroke="#666666" points="146,-195 0,-195 0,-154 146,-154 146,-195"/>
<text text-anchor="start" x="8" y="-183" font-family="Helvetica,sans-Serif" font-size="10.00">/home/runner/work/realm</text>
<text text-anchor="start" x="8" y="-172" font-family="Helvetica,sans-Serif" font-size="10.00">/realm/realm&#45;src/src/realm</text>
<text text-anchor="middle" x="73" y="-161" font-family="Helvetica,sans-Serif" font-size="10.00">/tasks.h</text>
</a>
</g>
</g>
<!-- Node20&#45;&gt;Node26 -->
<g id="edge40_Node000020_Node000026" class="edge">
<title>Node20&#45;&gt;Node26</title>
<g id="a_edge40_Node000020_Node000026"><a xlink:title=" ">
<path fill="none" stroke="#63b8ff" d="M492.02,-304.95C395.72,-275.2 227.75,-223.31 136.46,-195.11"/>
<polygon fill="#63b8ff" stroke="#63b8ff" points="491.1,-308.33 501.69,-307.94 493.17,-301.64 491.1,-308.33"/>
</a>
</g>
</g>
<!-- Node21&#45;&gt;Node13 -->
<g id="edge39_Node000021_Node000013" class="edge">
<title>Node21&#45;&gt;Node13</title>
<g id="a_edge39_Node000021_Node000013"><a xlink:title=" ">
<path fill="none" stroke="#63b8ff" d="M648.12,-233.47C711.3,-220.52 797.38,-202.88 857.94,-190.47"/>
<polygon fill="#63b8ff" stroke="#63b8ff" points="647.28,-230.07 638.19,-235.5 648.68,-236.92 647.28,-230.07"/>
</a>
</g>
</g>
<!-- Node22 -->
<g id="Node000022" class="node">
<title>Node22</title>
<g id="a_Node000022"><a xlink:href="byfield_8h.html" target="_top" xlink:title=" ">
<polygon fill="white" stroke="#666666" points="802,-195 656,-195 656,-154 802,-154 802,-195"/>
<text text-anchor="start" x="664" y="-183" font-family="Helvetica,sans-Serif" font-size="10.00">/home/runner/work/realm</text>
<text text-anchor="start" x="664" y="-172" font-family="Helvetica,sans-Serif" font-size="10.00">/realm/realm&#45;src/src/realm</text>
<text text-anchor="middle" x="729" y="-161" font-family="Helvetica,sans-Serif" font-size="10.00">/deppart/byfield.h</text>
</a>
</g>
</g>
<!-- Node21&#45;&gt;Node22 -->
<g id="edge35_Node000021_Node000022" class="edge">
<title>Node21&#45;&gt;Node22</title>
<g id="a_edge35_Node000021_Node000022"><a xlink:title=" ">
<path fill="none" stroke="#63b8ff" d="M616.99,-226.72C639.32,-216.51 665.08,-204.73 686.27,-195.04"/>
<polygon fill="#63b8ff" stroke="#63b8ff" points="615.3,-223.65 607.66,-230.99 618.21,-230.01 615.3,-223.65"/>
</a>
</g>
</g>
<!-- Node23 -->
<g id="Node000023" class="node">
<title>Node23</title>
<g id="a_Node000023"><a xlink:href="image_8h.html" target="_top" xlink:title=" ">
<polygon fill="white" stroke="#666666" points="310,-195 164,-195 164,-154 310,-154 310,-195"/>
<text text-anchor="start" x="172" y="-183" font-family="Helvetica,sans-Serif" font-size="10.00">/home/runner/work/realm</text>
<text text-anchor="start" x="172" y="-172" font-family="Helvetica,sans-Serif" font-size="10.00">/realm/realm&#45;src/src/realm</text>
<text text-anchor="middle" x="237" y="-161" font-family="Helvetica,sans-Serif" font-size="10.00">/deppart/image.h</text>
</a>
</g>
</g>
<!-- Node21&#45;&gt;Node23 -->
<g id="edge36_Node000021_Node000023" class="edge">
<title>Node21&#45;&gt;Node23</title>
<g id="a_edge36_Node000021_Node000023"><a xlink:title=" ">
<path fill="none" stroke="#63b8ff" d="M481.79,-231.98C434.1,-221.3 373.15,-207.55 319,-195 316.15,-194.34 313.24,-193.66 310.31,-192.98"/>
<polygon fill="#63b8ff" stroke="#63b8ff" points="481.23,-235.44 491.75,-234.21 482.76,-228.61 481.23,-235.44"/>
</a>
</g>
</g>
<!-- Node24 -->
<g id="Node000024" class="node">
<title>Node24</title>
<g id="a_Node000024"><a xlink:href="preimage_8h.html" target="_top" xlink:title=" ">
<polygon fill="white" stroke="#666666" points="474,-195 328,-195 328,-154 474,-154 474,-195"/>
<text text-anchor="start" x="336" y="-183" font-family="Helvetica,sans-Serif" font-size="10.00">/home/runner/work/realm</text>
<text text-anchor="start" x="336" y="-172" font-family="Helvetica,sans-Serif" font-size="10.00">/realm/realm&#45;src/src/realm</text>
<text text-anchor="middle" x="401" y="-161" font-family="Helvetica,sans-Serif" font-size="10.00">/deppart/preimage.h</text>
</a>
</g>
</g>
<!-- Node21&#45;&gt;Node24 -->
<g id="edge37_Node000021_Node000024" class="edge">
<title>Node21&#45;&gt;Node24</title>
<g id="a_edge37_Node000021_Node000024"><a xlink:title=" ">
<path fill="none" stroke="#63b8ff" d="M513.01,-226.72C490.68,-216.51 464.92,-204.73 443.73,-195.04"/>
<polygon fill="#63b8ff" stroke="#63b8ff" points="511.79,-230.01 522.34,-230.99 514.7,-223.65 511.79,-230.01"/>
</a>
</g>
</g>
<!-- Node25 -->
<g id="Node000025" class="node">
<title>Node25</title>
<g id="a_Node000025"><a xlink:href="setops_8h.html" target="_top" xlink:title=" ">
<polygon fill="white" stroke="#666666" points="638,-195 492,-195 492,-154 638,-154 638,-195"/>
<text text-anchor="start" x="500" y="-183" font-family="Helvetica,sans-Serif" font-size="10.00">/home/runner/work/realm</text>
<text text-anchor="start" x="500" y="-172" font-family="Helvetica,sans-Serif" font-size="10.00">/realm/realm&#45;src/src/realm</text>
<text text-anchor="middle" x="565" y="-161" font-family="Helvetica,sans-Serif" font-size="10.00">/deppart/setops.h</text>
</a>
</g>
</g>
<!-- Node21&#45;&gt;Node25 -->
<g id="edge38_Node000021_Node000025" class="edge">
<title>Node21&#45;&gt;Node25</title>
<g id="a_edge38_Node000021_Node000025"><a xlink:title=" ">
<path fill="none" stroke="#63b8ff" d="M565,-220.69C565,-212.08 565,-202.9 565,-195.07"/>
<polygon fill="#63b8ff" stroke="#63b8ff" points="561.5,-220.79 565,-230.79 568.5,-220.79 561.5,-220.79"/>
</a>
</g>
</g>
<!-- Node26&#45;&gt;Node14 -->
<g id="edge42_Node000026_Node000014" class="edge">
<title>Node26&#45;&gt;Node14</title>
<g id="a_edge42_Node000026_Node000014"><a xlink:title=" ">
<path fill="none" stroke="#63b8ff" d="M156.31,-153.93C399.74,-116.65 678.32,-104.3 807.92,-100.29"/>
<polygon fill="#63b8ff" stroke="#63b8ff" points="155.55,-150.5 146.2,-155.49 156.62,-157.42 155.55,-150.5"/>
</a>
</g>
</g>
<!-- Node26&#45;&gt;Node16 -->
<g id="edge41_Node000026_Node000016" class="edge">
<title>Node26&#45;&gt;Node16</title>
<g id="a_edge41_Node000026_Node000016"><a xlink:title=" ">
<path fill="none" stroke="#63b8ff" d="M133.47,-150.23C211.08,-120.36 344.35,-69.08 417.05,-41.11"/>
<polygon fill="#63b8ff" stroke="#63b8ff" points="131.91,-147.08 123.83,-153.94 134.42,-153.61 131.91,-147.08"/>
</a>
</g>
</g>
</g>
</svg>
