<?xml version="1.0" encoding="UTF-8" standalone="no"?>
<!DOCTYPE svg PUBLIC "-//W3C//DTD SVG 1.1//EN"
 "http://www.w3.org/Graphics/SVG/1.1/DTD/svg11.dtd">
<!-- Generated by graphviz version 2.43.0 (0)
 -->
<!-- Title: /home/runner/work/realm/realm/realm&#45;src/src/realm/ucx/bootstrap/server.h Pages: 1 -->
<svg width="554pt" height="159pt"
 viewBox="0.00 0.00 553.51 159.00" xmlns="http://www.w3.org/2000/svg" xmlns:xlink="http://www.w3.org/1999/xlink">
<g id="graph0" class="graph" transform="scale(1 1) rotate(0) translate(4 155)">
<title>/home/runner/work/realm/realm/realm&#45;src/src/realm/ucx/bootstrap/server.h</title>
<!-- Node1 -->
<g id="Node000001" class="node">
<title>Node1</title>
<g id="a_Node000001"><a xlink:title=" ">
<polygon fill="#999999" stroke="#666666" points="262.51,-151 116.51,-151 116.51,-110 262.51,-110 262.51,-151"/>
<text text-anchor="start" x="124.51" y="-139" font-family="Helvetica,sans-Serif" font-size="10.00">/home/runner/work/realm</text>
<text text-anchor="start" x="124.51" y="-128" font-family="Helvetica,sans-Serif" font-size="10.00">/realm/realm&#45;src/src/realm</text>
<text text-anchor="middle" x="189.51" y="-117" font-family="Helvetica,sans-Serif" font-size="10.00">/ucx/bootstrap/server.h</text>
</a>
</g>
</g>
<!-- Node2 -->
<g id="Node000002" class="node">
<title>Node2</title>
<g id="a_Node000002"><a xlink:title=" ">
<polygon fill="#e0e0e0" stroke="#999999" points="140.51,-19 96.51,-19 96.51,0 140.51,0 140.51,-19"/>
<text text-anchor="middle" x="118.51" y="-7" font-family="Helvetica,sans-Serif" font-size="10.00">string</text>
</a>
</g>
</g>
<!-- Node1&#45;&gt;Node2 -->
<g id="edge1_Node000001_Node000002" class="edge">
<title>Node1&#45;&gt;Node2</title>
<g id="a_edge1_Node000001_Node000002"><a xlink:title=" ">
<path fill="none" stroke="#63b8ff" d="M116.15,-127.4C76.62,-122.05 30.88,-108.15 5.51,-74 -18.3,-41.94 45.2,-23.82 86.41,-15.71"/>
<polygon fill="#63b8ff" stroke="#63b8ff" points="87.15,-19.13 96.34,-13.86 85.87,-12.25 87.15,-19.13"/>
</a>
</g>
</g>
<!-- Node3 -->
<g id="Node000003" class="node">
<title>Node3</title>
<g id="a_Node000003"><a xlink:title=" ">
<polygon fill="#e0e0e0" stroke="#999999" points="108.01,-74 15.01,-74 15.01,-55 108.01,-55 108.01,-74"/>
<text text-anchor="middle" x="61.51" y="-62" font-family="Helvetica,sans-Serif" font-size="10.00">unordered_map</text>
</a>
</g>
</g>
<!-- Node1&#45;&gt;Node3 -->
<g id="edge2_Node000001_Node000003" class="edge">
<title>Node1&#45;&gt;Node3</title>
<g id="a_edge2_Node000001_Node000003"><a xlink:title=" ">
<path fill="none" stroke="#63b8ff" d="M150.41,-109.95C130.19,-99.84 106.04,-87.76 88.02,-78.75"/>
<polygon fill="#63b8ff" stroke="#63b8ff" points="89.21,-75.43 78.7,-74.09 86.08,-81.69 89.21,-75.43"/>
</a>
</g>
</g>
<!-- Node4 -->
<g id="Node000004" class="node">
<title>Node4</title>
<g id="a_Node000004"><a xlink:title=" ">
<polygon fill="#e0e0e0" stroke="#999999" points="173.01,-74 126.01,-74 126.01,-55 173.01,-55 173.01,-74"/>
<text text-anchor="middle" x="149.51" y="-62" font-family="Helvetica,sans-Serif" font-size="10.00">vector</text>
</a>
</g>
</g>
<!-- Node1&#45;&gt;Node4 -->
<g id="edge3_Node000001_Node000004" class="edge">
<title>Node1&#45;&gt;Node4</title>
<g id="a_edge3_Node000001_Node000004"><a xlink:title=" ">
<path fill="none" stroke="#63b8ff" d="M177.3,-109.95C171.89,-101.3 165.58,-91.2 160.34,-82.82"/>
<polygon fill="#63b8ff" stroke="#63b8ff" points="163.26,-80.89 154.99,-74.26 157.32,-84.6 163.26,-80.89"/>
</a>
</g>
</g>
<!-- Node5 -->
<g id="Node000005" class="node">
<title>Node5</title>
<g id="a_Node000005"><a xlink:title=" ">
<polygon fill="#e0e0e0" stroke="#999999" points="268.01,-74 191.01,-74 191.01,-55 268.01,-55 268.01,-74"/>
<text text-anchor="middle" x="229.51" y="-62" font-family="Helvetica,sans-Serif" font-size="10.00">sys/socket.h</text>
</a>
</g>
</g>
<!-- Node1&#45;&gt;Node5 -->
<g id="edge4_Node000001_Node000005" class="edge">
<title>Node1&#45;&gt;Node5</title>
<g id="a_edge4_Node000001_Node000005"><a xlink:title=" ">
<path fill="none" stroke="#63b8ff" d="M201.73,-109.95C207.14,-101.3 213.45,-91.2 218.69,-82.82"/>
<polygon fill="#63b8ff" stroke="#63b8ff" points="221.71,-84.6 224.04,-74.26 215.77,-80.89 221.71,-84.6"/>
</a>
</g>
</g>
<!-- Node6 -->
<g id="Node000006" class="node">
<title>Node6</title>
<g id="a_Node000006"><a xlink:href="logger_8h.html" target="_top" xlink:title=" ">
<polygon fill="white" stroke="#666666" points="449.51,-74 393.51,-74 393.51,-55 449.51,-55 449.51,-74"/>
<text text-anchor="middle" x="421.51" y="-62" font-family="Helvetica,sans-Serif" font-size="10.00">logger.h</text>
</a>
</g>
</g>
<!-- Node1&#45;&gt;Node6 -->
<g id="edge5_Node000001_Node000006" class="edge">
<title>Node1&#45;&gt;Node6</title>
<g id="a_edge5_Node000001_Node000006"><a xlink:title=" ">
<path fill="none" stroke="#63b8ff" d="M260.38,-109.95C300.96,-98.76 350.26,-85.16 383.56,-75.97"/>
<polygon fill="#63b8ff" stroke="#63b8ff" points="384.65,-79.3 393.36,-73.27 382.79,-72.55 384.65,-79.3"/>
</a>
</g>
</g>
<!-- Node10 -->
<g id="Node000010" class="node">
<title>Node10</title>
<g id="a_Node000010"><a xlink:href="types_8h.html" target="_top" xlink:title=" ">
<polygon fill="white" stroke="#666666" points="339.01,-74 286.01,-74 286.01,-55 339.01,-55 339.01,-74"/>
<text text-anchor="middle" x="312.51" y="-62" font-family="Helvetica,sans-Serif" font-size="10.00">types.h</text>
</a>
</g>
</g>
<!-- Node1&#45;&gt;Node10 -->
<g id="edge9_Node000001_Node000010" class="edge">
<title>Node1&#45;&gt;Node10</title>
<g id="a_edge9_Node000001_Node000010"><a xlink:title=" ">
<path fill="none" stroke="#63b8ff" d="M227.09,-109.95C246.52,-99.84 269.73,-87.76 287.05,-78.75"/>
<polygon fill="#63b8ff" stroke="#63b8ff" points="288.75,-81.81 296,-74.09 285.51,-75.6 288.75,-81.81"/>
</a>
</g>
</g>
<!-- Node7 -->
<g id="Node000007" class="node">
<title>Node7</title>
<g id="a_Node000007"><a xlink:title=" ">
<polygon fill="#e0e0e0" stroke="#999999" points="469.51,-19 409.51,-19 409.51,0 469.51,0 469.51,-19"/>
<text text-anchor="middle" x="439.51" y="-7" font-family="Helvetica,sans-Serif" font-size="10.00">iostream</text>
</a>
</g>
</g>
<!-- Node6&#45;&gt;Node7 -->
<g id="edge6_Node000006_Node000007" class="edge">
<title>Node6&#45;&gt;Node7</title>
<g id="a_edge6_Node000006_Node000007"><a xlink:title=" ">
<path fill="none" stroke="#63b8ff" d="M424.49,-54.75C426.87,-47.72 430.3,-37.62 433.28,-28.84"/>
<polygon fill="#63b8ff" stroke="#63b8ff" points="436.69,-29.68 436.6,-19.09 430.07,-27.43 436.69,-29.68"/>
</a>
</g>
</g>
<!-- Node8 -->
<g id="Node000008" class="node">
<title>Node8</title>
<g id="a_Node000008"><a xlink:title=" ">
<polygon fill="#e0e0e0" stroke="#999999" points="545.51,-19 487.51,-19 487.51,0 545.51,0 545.51,-19"/>
<text text-anchor="middle" x="516.51" y="-7" font-family="Helvetica,sans-Serif" font-size="10.00">memory</text>
</a>
</g>
</g>
<!-- Node6&#45;&gt;Node8 -->
<g id="edge7_Node000006_Node000008" class="edge">
<title>Node6&#45;&gt;Node8</title>
<g id="a_edge7_Node000006_Node000008"><a xlink:title=" ">
<path fill="none" stroke="#63b8ff" d="M436.78,-54.98C451.65,-46.69 474.5,-33.94 491.93,-24.22"/>
<polygon fill="#63b8ff" stroke="#63b8ff" points="493.94,-27.1 500.97,-19.17 490.53,-20.99 493.94,-27.1"/>
</a>
</g>
</g>
<!-- Node9 -->
<g id="Node000009" class="node">
<title>Node9</title>
<g id="a_Node000009"><a xlink:title=" ">
<polygon fill="#e0e0e0" stroke="#999999" points="391.01,-19 336.01,-19 336.01,0 391.01,0 391.01,-19"/>
<text text-anchor="middle" x="363.51" y="-7" font-family="Helvetica,sans-Serif" font-size="10.00">fstream</text>
</a>
</g>
</g>
<!-- Node6&#45;&gt;Node9 -->
<g id="edge8_Node000006_Node000009" class="edge">
<title>Node6&#45;&gt;Node9</title>
<g id="a_edge8_Node000006_Node000009"><a xlink:title=" ">
<path fill="none" stroke="#63b8ff" d="M412.19,-54.98C403.71,-47.23 390.95,-35.58 380.63,-26.14"/>
<polygon fill="#63b8ff" stroke="#63b8ff" points="382.75,-23.33 373,-19.17 378.02,-28.5 382.75,-23.33"/>
</a>
</g>
</g>
<!-- Node10&#45;&gt;Node2 -->
<g id="edge11_Node000010_Node000002" class="edge">
<title>Node10&#45;&gt;Node2</title>
<g id="a_edge11_Node000010_Node000002"><a xlink:title=" ">
<path fill="none" stroke="#63b8ff" d="M285.95,-56.24C250.66,-46.6 188.39,-29.59 150.55,-19.25"/>
<polygon fill="#63b8ff" stroke="#63b8ff" points="151.13,-15.78 140.56,-16.52 149.29,-22.54 151.13,-15.78"/>
</a>
</g>
</g>
<!-- Node11 -->
<g id="Node000011" class="node">
<title>Node11</title>
<g id="a_Node000011"><a xlink:title=" ">
<polygon fill="#e0e0e0" stroke="#999999" points="317.51,-19 271.51,-19 271.51,0 317.51,0 317.51,-19"/>
<text text-anchor="middle" x="294.51" y="-7" font-family="Helvetica,sans-Serif" font-size="10.00">cstdio</text>
</a>
</g>
</g>
<!-- Node10&#45;&gt;Node11 -->
<g id="edge10_Node000010_Node000011" class="edge">
<title>Node10&#45;&gt;Node11</title>
<g id="a_edge10_Node000010_Node000011"><a xlink:title=" ">
<path fill="none" stroke="#63b8ff" d="M309.54,-54.75C307.16,-47.72 303.73,-37.62 300.74,-28.84"/>
<polygon fill="#63b8ff" stroke="#63b8ff" points="303.96,-27.43 297.43,-19.09 297.33,-29.68 303.96,-27.43"/>
</a>
</g>
</g>
</g>
</svg>
