<?xml version="1.0" encoding="UTF-8" standalone="no"?>
<!DOCTYPE svg PUBLIC "-//W3C//DTD SVG 1.1//EN"
 "http://www.w3.org/Graphics/SVG/1.1/DTD/svg11.dtd">
<!-- Generated by graphviz version 2.43.0 (0)
 -->
<!-- Title: /home/runner/work/realm/realm/realm&#45;src/src/realm/shm.h Pages: 1 -->
<svg width="757pt" height="203pt"
 viewBox="0.00 0.00 756.50 203.00" xmlns="http://www.w3.org/2000/svg" xmlns:xlink="http://www.w3.org/1999/xlink">
<g id="graph0" class="graph" transform="scale(1 1) rotate(0) translate(4 199)">
<title>/home/runner/work/realm/realm/realm&#45;src/src/realm/shm.h</title>
<!-- Node1 -->
<g id="Node000001" class="node">
<title>Node1</title>
<g id="a_Node000001"><a xlink:title=" ">
<polygon fill="#999999" stroke="#666666" points="305,-195 126,-195 126,-165 305,-165 305,-195"/>
<text text-anchor="start" x="134" y="-183" font-family="Helvetica,sans-Serif" font-size="10.00">/home/runner/work/realm</text>
<text text-anchor="middle" x="215.5" y="-172" font-family="Helvetica,sans-Serif" font-size="10.00">/realm/realm&#45;src/src/realm/shm.h</text>
</a>
</g>
</g>
<!-- Node2 -->
<g id="Node000002" class="node">
<title>Node2</title>
<g id="a_Node000002"><a xlink:href="realm__config_8h.html" target="_top" xlink:title=" ">
<polygon fill="white" stroke="#666666" points="175.5,-74 55.5,-74 55.5,-55 175.5,-55 175.5,-74"/>
<text text-anchor="middle" x="115.5" y="-62" font-family="Helvetica,sans-Serif" font-size="10.00">realm/realm_config.h</text>
</a>
</g>
</g>
<!-- Node1&#45;&gt;Node2 -->
<g id="edge1_Node000001_Node000002" class="edge">
<title>Node1&#45;&gt;Node2</title>
<g id="a_edge1_Node000001_Node000002"><a xlink:title=" ">
<path fill="none" stroke="#63b8ff" d="M202.83,-164.63C184.19,-143.47 149.47,-104.05 129.89,-81.83"/>
<polygon fill="#63b8ff" stroke="#63b8ff" points="132.43,-79.42 123.19,-74.23 127.18,-84.05 132.43,-79.42"/>
</a>
</g>
</g>
<!-- Node5 -->
<g id="Node000005" class="node">
<title>Node5</title>
<g id="a_Node000005"><a xlink:href="utils_8h.html" target="_top" xlink:title=" ">
<polygon fill="white" stroke="#666666" points="460.5,-129 382.5,-129 382.5,-110 460.5,-110 460.5,-129"/>
<text text-anchor="middle" x="421.5" y="-117" font-family="Helvetica,sans-Serif" font-size="10.00">realm/utils.h</text>
</a>
</g>
</g>
<!-- Node1&#45;&gt;Node5 -->
<g id="edge4_Node000001_Node000005" class="edge">
<title>Node1&#45;&gt;Node5</title>
<g id="a_edge4_Node000001_Node000005"><a xlink:title=" ">
<path fill="none" stroke="#63b8ff" d="M264.84,-164.99C300.55,-154.85 348.19,-141.32 381.52,-131.85"/>
<polygon fill="#63b8ff" stroke="#63b8ff" points="382.72,-135.15 391.38,-129.05 380.8,-128.42 382.72,-135.15"/>
</a>
</g>
</g>
<!-- Node6 -->
<g id="Node000006" class="node">
<title>Node6</title>
<g id="a_Node000006"><a xlink:title=" ">
<polygon fill="#e0e0e0" stroke="#999999" points="237.5,-74 193.5,-74 193.5,-55 237.5,-55 237.5,-74"/>
<text text-anchor="middle" x="215.5" y="-62" font-family="Helvetica,sans-Serif" font-size="10.00">string</text>
</a>
</g>
</g>
<!-- Node1&#45;&gt;Node6 -->
<g id="edge14_Node000001_Node000006" class="edge">
<title>Node1&#45;&gt;Node6</title>
<g id="a_edge14_Node000001_Node000006"><a xlink:title=" ">
<path fill="none" stroke="#63b8ff" d="M215.5,-164.63C215.5,-144.21 215.5,-106.81 215.5,-84.24"/>
<polygon fill="#63b8ff" stroke="#63b8ff" points="219,-84.23 215.5,-74.23 212,-84.23 219,-84.23"/>
</a>
</g>
</g>
<!-- Node3 -->
<g id="Node000003" class="node">
<title>Node3</title>
<g id="a_Node000003"><a xlink:href="realm__defines_8h.html" target="_top" xlink:title=" ">
<polygon fill="white" stroke="#666666" points="95,-19 0,-19 0,0 95,0 95,-19"/>
<text text-anchor="middle" x="47.5" y="-7" font-family="Helvetica,sans-Serif" font-size="10.00">realm_defines.h</text>
</a>
</g>
</g>
<!-- Node2&#45;&gt;Node3 -->
<g id="edge2_Node000002_Node000003" class="edge">
<title>Node2&#45;&gt;Node3</title>
<g id="a_edge2_Node000002_Node000003"><a xlink:title=" ">
<path fill="none" stroke="#63b8ff" d="M104.57,-54.98C94.42,-47.07 79.08,-35.11 66.85,-25.58"/>
<polygon fill="#63b8ff" stroke="#63b8ff" points="68.66,-22.56 58.62,-19.17 64.36,-28.08 68.66,-22.56"/>
</a>
</g>
</g>
<!-- Node4 -->
<g id="Node000004" class="node">
<title>Node4</title>
<g id="a_Node000004"><a xlink:href="compiler__support_8h.html" target="_top" xlink:title=" ">
<polygon fill="white" stroke="#666666" points="255.5,-19 113.5,-19 113.5,0 255.5,0 255.5,-19"/>
<text text-anchor="middle" x="184.5" y="-7" font-family="Helvetica,sans-Serif" font-size="10.00">realm/compiler_support.h</text>
</a>
</g>
</g>
<!-- Node2&#45;&gt;Node4 -->
<g id="edge3_Node000002_Node000004" class="edge">
<title>Node2&#45;&gt;Node4</title>
<g id="a_edge3_Node000002_Node000004"><a xlink:title=" ">
<path fill="none" stroke="#63b8ff" d="M126.59,-54.98C136.99,-47 152.76,-34.88 165.22,-25.31"/>
<polygon fill="#63b8ff" stroke="#63b8ff" points="167.41,-28.04 173.21,-19.17 163.15,-22.49 167.41,-28.04"/>
</a>
</g>
</g>
<!-- Node5&#45;&gt;Node2 -->
<g id="edge5_Node000005_Node000002" class="edge">
<title>Node5&#45;&gt;Node2</title>
<g id="a_edge5_Node000005_Node000002"><a xlink:title=" ">
<path fill="none" stroke="#63b8ff" d="M382.43,-111.73C329.86,-102.63 235.86,-86.35 174.61,-75.74"/>
<polygon fill="#63b8ff" stroke="#63b8ff" points="175.14,-72.28 164.69,-74.02 173.95,-79.18 175.14,-72.28"/>
</a>
</g>
</g>
<!-- Node5&#45;&gt;Node6 -->
<g id="edge6_Node000005_Node000006" class="edge">
<title>Node5&#45;&gt;Node6</title>
<g id="a_edge6_Node000005_Node000006"><a xlink:title=" ">
<path fill="none" stroke="#63b8ff" d="M387.25,-109.99C353.93,-101.67 301.64,-88.49 247.31,-74.18"/>
<polygon fill="#63b8ff" stroke="#63b8ff" points="248.06,-70.76 237.5,-71.59 246.28,-77.52 248.06,-70.76"/>
</a>
</g>
</g>
<!-- Node7 -->
<g id="Node000007" class="node">
<title>Node7</title>
<g id="a_Node000007"><a xlink:title=" ">
<polygon fill="#e0e0e0" stroke="#999999" points="415,-74 358,-74 358,-55 415,-55 415,-74"/>
<text text-anchor="middle" x="386.5" y="-62" font-family="Helvetica,sans-Serif" font-size="10.00">ostream</text>
</a>
</g>
</g>
<!-- Node5&#45;&gt;Node7 -->
<g id="edge7_Node000005_Node000007" class="edge">
<title>Node5&#45;&gt;Node7</title>
<g id="a_edge7_Node000005_Node000007"><a xlink:title=" ">
<path fill="none" stroke="#63b8ff" d="M415.72,-109.75C410.88,-102.42 403.82,-91.73 397.86,-82.7"/>
<polygon fill="#63b8ff" stroke="#63b8ff" points="400.6,-80.5 392.17,-74.09 394.76,-84.36 400.6,-80.5"/>
</a>
</g>
</g>
<!-- Node8 -->
<g id="Node000008" class="node">
<title>Node8</title>
<g id="a_Node000008"><a xlink:title=" ">
<polygon fill="#e0e0e0" stroke="#999999" points="480,-74 433,-74 433,-55 480,-55 480,-74"/>
<text text-anchor="middle" x="456.5" y="-62" font-family="Helvetica,sans-Serif" font-size="10.00">vector</text>
</a>
</g>
</g>
<!-- Node5&#45;&gt;Node8 -->
<g id="edge8_Node000005_Node000008" class="edge">
<title>Node5&#45;&gt;Node8</title>
<g id="a_edge8_Node000005_Node000008"><a xlink:title=" ">
<path fill="none" stroke="#63b8ff" d="M427.28,-109.75C432.12,-102.42 439.18,-91.73 445.14,-82.7"/>
<polygon fill="#63b8ff" stroke="#63b8ff" points="448.24,-84.36 450.83,-74.09 442.4,-80.5 448.24,-84.36"/>
</a>
</g>
</g>
<!-- Node9 -->
<g id="Node000009" class="node">
<title>Node9</title>
<g id="a_Node000009"><a xlink:title=" ">
<polygon fill="#e0e0e0" stroke="#999999" points="536.5,-74 498.5,-74 498.5,-55 536.5,-55 536.5,-74"/>
<text text-anchor="middle" x="517.5" y="-62" font-family="Helvetica,sans-Serif" font-size="10.00">map</text>
</a>
</g>
</g>
<!-- Node5&#45;&gt;Node9 -->
<g id="edge9_Node000005_Node000009" class="edge">
<title>Node5&#45;&gt;Node9</title>
<g id="a_edge9_Node000005_Node000009"><a xlink:title=" ">
<path fill="none" stroke="#63b8ff" d="M436.92,-109.98C451.95,-101.69 475.04,-88.94 492.66,-79.22"/>
<polygon fill="#63b8ff" stroke="#63b8ff" points="494.73,-82.07 501.8,-74.17 491.35,-75.94 494.73,-82.07"/>
</a>
</g>
</g>
<!-- Node10 -->
<g id="Node000010" class="node">
<title>Node10</title>
<g id="a_Node000010"><a xlink:title=" ">
<polygon fill="#e0e0e0" stroke="#999999" points="606.5,-74 554.5,-74 554.5,-55 606.5,-55 606.5,-74"/>
<text text-anchor="middle" x="580.5" y="-62" font-family="Helvetica,sans-Serif" font-size="10.00">cassert</text>
</a>
</g>
</g>
<!-- Node5&#45;&gt;Node10 -->
<g id="edge10_Node000005_Node000010" class="edge">
<title>Node5&#45;&gt;Node10</title>
<g id="a_edge10_Node000005_Node000010"><a xlink:title=" ">
<path fill="none" stroke="#63b8ff" d="M447.05,-109.98C473.62,-101.13 515.44,-87.19 545.17,-77.28"/>
<polygon fill="#63b8ff" stroke="#63b8ff" points="546.37,-80.56 554.75,-74.08 544.16,-73.92 546.37,-80.56"/>
</a>
</g>
</g>
<!-- Node11 -->
<g id="Node000011" class="node">
<title>Node11</title>
<g id="a_Node000011"><a xlink:title=" ">
<polygon fill="#e0e0e0" stroke="#999999" points="674.5,-74 624.5,-74 624.5,-55 674.5,-55 674.5,-74"/>
<text text-anchor="middle" x="649.5" y="-62" font-family="Helvetica,sans-Serif" font-size="10.00">cstdint</text>
</a>
</g>
</g>
<!-- Node5&#45;&gt;Node11 -->
<g id="edge11_Node000005_Node000011" class="edge">
<title>Node5&#45;&gt;Node11</title>
<g id="a_edge11_Node000005_Node000011"><a xlink:title=" ">
<path fill="none" stroke="#63b8ff" d="M459.83,-109.94C496.94,-101.6 555.03,-88.41 614.35,-74.24"/>
<polygon fill="#63b8ff" stroke="#63b8ff" points="615.35,-77.6 624.26,-71.87 613.72,-70.79 615.35,-77.6"/>
</a>
</g>
</g>
<!-- Node12 -->
<g id="Node000012" class="node">
<title>Node12</title>
<g id="a_Node000012"><a xlink:title=" ">
<polygon fill="#e0e0e0" stroke="#999999" points="748.5,-74 692.5,-74 692.5,-55 748.5,-55 748.5,-74"/>
<text text-anchor="middle" x="720.5" y="-62" font-family="Helvetica,sans-Serif" font-size="10.00">sstream</text>
</a>
</g>
</g>
<!-- Node5&#45;&gt;Node12 -->
<g id="edge12_Node000005_Node000012" class="edge">
<title>Node5&#45;&gt;Node12</title>
<g id="a_edge12_Node000005_Node000012"><a xlink:title=" ">
<path fill="none" stroke="#63b8ff" d="M460.69,-112.56C510.07,-104.93 597.77,-90.84 682.24,-74.16"/>
<polygon fill="#63b8ff" stroke="#63b8ff" points="683.13,-77.55 692.25,-72.17 681.76,-70.68 683.13,-77.55"/>
</a>
</g>
</g>
<!-- Node13 -->
<g id="Node000013" class="node">
<title>Node13</title>
<g id="a_Node000013"><a xlink:title=" ">
<polygon fill="#e0e0e0" stroke="#999999" points="339.5,-74 255.5,-74 255.5,-55 339.5,-55 339.5,-74"/>
<text text-anchor="middle" x="297.5" y="-62" font-family="Helvetica,sans-Serif" font-size="10.00">realm/utils.inl</text>
</a>
</g>
</g>
<!-- Node5&#45;&gt;Node13 -->
<g id="edge13_Node000005_Node000013" class="edge">
<title>Node5&#45;&gt;Node13</title>
<g id="a_edge13_Node000005_Node000013"><a xlink:title=" ">
<path fill="none" stroke="#63b8ff" d="M401.58,-109.98C381.45,-101.38 350.12,-87.99 327.09,-78.15"/>
<polygon fill="#63b8ff" stroke="#63b8ff" points="328.36,-74.88 317.79,-74.17 325.6,-81.32 328.36,-74.88"/>
</a>
</g>
</g>
</g>
</svg>
