<?xml version="1.0" encoding="UTF-8" standalone="no"?>
<!DOCTYPE svg PUBLIC "-//W3C//DTD SVG 1.1//EN"
 "http://www.w3.org/Graphics/SVG/1.1/DTD/svg11.dtd">
<!-- Generated by graphviz version 2.43.0 (0)
 -->
<!-- Title: /home/runner/work/realm/realm/realm&#45;src/src/realm/sparsity.h Pages: 1 -->
<svg width="2010pt" height="588pt"
 viewBox="0.00 0.00 2010.00 588.00" xmlns="http://www.w3.org/2000/svg" xmlns:xlink="http://www.w3.org/1999/xlink">
<g id="graph0" class="graph" transform="scale(1 1) rotate(0) translate(4 584)">
<title>/home/runner/work/realm/realm/realm&#45;src/src/realm/sparsity.h</title>
<!-- Node1 -->
<g id="Node000001" class="node">
<title>Node1</title>
<g id="a_Node000001"><a xlink:title=" ">
<polygon fill="#999999" stroke="#666666" points="462,-580 316,-580 316,-539 462,-539 462,-580"/>
<text text-anchor="start" x="324" y="-568" font-family="Helvetica,sans-Serif" font-size="10.00">/home/runner/work/realm</text>
<text text-anchor="start" x="324" y="-557" font-family="Helvetica,sans-Serif" font-size="10.00">/realm/realm&#45;src/src/realm</text>
<text text-anchor="middle" x="389" y="-546" font-family="Helvetica,sans-Serif" font-size="10.00">/sparsity.h</text>
</a>
</g>
</g>
<!-- Node2 -->
<g id="Node000002" class="node">
<title>Node2</title>
<g id="a_Node000002"><a xlink:href="partitions_8h.html" target="_top" xlink:title=" ">
<polygon fill="white" stroke="#666666" points="500,-349 354,-349 354,-308 500,-308 500,-349"/>
<text text-anchor="start" x="362" y="-337" font-family="Helvetica,sans-Serif" font-size="10.00">/home/runner/work/realm</text>
<text text-anchor="start" x="362" y="-326" font-family="Helvetica,sans-Serif" font-size="10.00">/realm/realm&#45;src/src/realm</text>
<text text-anchor="middle" x="427" y="-315" font-family="Helvetica,sans-Serif" font-size="10.00">/deppart/partitions.h</text>
</a>
</g>
</g>
<!-- Node1&#45;&gt;Node2 -->
<g id="edge1_Node000001_Node000002" class="edge">
<title>Node1&#45;&gt;Node2</title>
<g id="a_edge1_Node000001_Node000002"><a xlink:title=" ">
<path fill="none" stroke="#63b8ff" d="M359.89,-531.89C325.21,-496.86 275.67,-434.01 307,-385 317.88,-367.98 335.46,-356.1 353.85,-347.85"/>
<polygon fill="#63b8ff" stroke="#63b8ff" points="357.45,-534.4 367.03,-538.92 362.36,-529.41 357.45,-534.4"/>
</a>
</g>
</g>
<!-- Node21 -->
<g id="Node000021" class="node">
<title>Node21</title>
<g id="a_Node000021"><a xlink:href="sparsity__impl_8h.html" target="_top" xlink:title=" ">
<polygon fill="white" stroke="#666666" points="462,-426 316,-426 316,-385 462,-385 462,-426"/>
<text text-anchor="start" x="324" y="-414" font-family="Helvetica,sans-Serif" font-size="10.00">/home/runner/work/realm</text>
<text text-anchor="start" x="324" y="-403" font-family="Helvetica,sans-Serif" font-size="10.00">/realm/realm&#45;src/src/realm</text>
<text text-anchor="middle" x="389" y="-392" font-family="Helvetica,sans-Serif" font-size="10.00">/deppart/sparsity_impl.h</text>
</a>
</g>
</g>
<!-- Node1&#45;&gt;Node21 -->
<g id="edge24_Node000001_Node000021" class="edge">
<title>Node1&#45;&gt;Node21</title>
<g id="a_edge24_Node000001_Node000021"><a xlink:title=" ">
<path fill="none" stroke="#63b8ff" d="M389,-528.58C389,-498.36 389,-452.53 389,-426.47"/>
<polygon fill="#63b8ff" stroke="#63b8ff" points="385.5,-528.94 389,-538.94 392.5,-528.94 385.5,-528.94"/>
</a>
</g>
</g>
<!-- Node22 -->
<g id="Node000022" class="node">
<title>Node22</title>
<g id="a_Node000022"><a xlink:href="indexspace_8h.html" target="_top" xlink:title=" ">
<polygon fill="white" stroke="#666666" points="904,-503 758,-503 758,-462 904,-462 904,-503"/>
<text text-anchor="start" x="766" y="-491" font-family="Helvetica,sans-Serif" font-size="10.00">/home/runner/work/realm</text>
<text text-anchor="start" x="766" y="-480" font-family="Helvetica,sans-Serif" font-size="10.00">/realm/realm&#45;src/src/realm</text>
<text text-anchor="middle" x="831" y="-469" font-family="Helvetica,sans-Serif" font-size="10.00">/indexspace.h</text>
</a>
</g>
</g>
<!-- Node1&#45;&gt;Node22 -->
<g id="edge26_Node000001_Node000022" class="edge">
<title>Node1&#45;&gt;Node22</title>
<g id="a_edge26_Node000001_Node000022"><a xlink:title=" ">
<path fill="none" stroke="#63b8ff" d="M472.55,-544.32C554.81,-530.37 679.2,-509.26 757.71,-495.94"/>
<polygon fill="#63b8ff" stroke="#63b8ff" points="471.76,-540.91 462.48,-546.03 472.93,-547.81 471.76,-540.91"/>
</a>
</g>
</g>
<!-- Node3 -->
<g id="Node000003" class="node">
<title>Node3</title>
<g id="a_Node000003"><a xlink:href="byfield_8h.html" target="_top" xlink:title=" ">
<polygon fill="white" stroke="#666666" points="500,-272 354,-272 354,-231 500,-231 500,-272"/>
<text text-anchor="start" x="362" y="-260" font-family="Helvetica,sans-Serif" font-size="10.00">/home/runner/work/realm</text>
<text text-anchor="start" x="362" y="-249" font-family="Helvetica,sans-Serif" font-size="10.00">/realm/realm&#45;src/src/realm</text>
<text text-anchor="middle" x="427" y="-238" font-family="Helvetica,sans-Serif" font-size="10.00">/deppart/byfield.h</text>
</a>
</g>
</g>
<!-- Node2&#45;&gt;Node3 -->
<g id="edge2_Node000002_Node000003" class="edge">
<title>Node2&#45;&gt;Node3</title>
<g id="a_edge2_Node000002_Node000003"><a xlink:title=" ">
<path fill="none" stroke="#63b8ff" d="M427,-297.69C427,-289.08 427,-279.9 427,-272.07"/>
<polygon fill="#63b8ff" stroke="#63b8ff" points="423.5,-297.79 427,-307.79 430.5,-297.79 423.5,-297.79"/>
</a>
</g>
</g>
<!-- Node4 -->
<g id="Node000004" class="node">
<title>Node4</title>
<g id="a_Node000004"><a xlink:href="image_8h.html" target="_top" xlink:title=" ">
<polygon fill="white" stroke="#666666" points="702,-272 556,-272 556,-231 702,-231 702,-272"/>
<text text-anchor="start" x="564" y="-260" font-family="Helvetica,sans-Serif" font-size="10.00">/home/runner/work/realm</text>
<text text-anchor="start" x="564" y="-249" font-family="Helvetica,sans-Serif" font-size="10.00">/realm/realm&#45;src/src/realm</text>
<text text-anchor="middle" x="629" y="-238" font-family="Helvetica,sans-Serif" font-size="10.00">/deppart/image.h</text>
</a>
</g>
</g>
<!-- Node2&#45;&gt;Node4 -->
<g id="edge3_Node000002_Node000004" class="edge">
<title>Node2&#45;&gt;Node4</title>
<g id="a_edge3_Node000002_Node000004"><a xlink:title=" ">
<path fill="none" stroke="#63b8ff" d="M489.21,-304.4C517.12,-294.04 549.69,-281.95 576.37,-272.04"/>
<polygon fill="#63b8ff" stroke="#63b8ff" points="487.7,-301.23 479.55,-307.99 490.14,-307.79 487.7,-301.23"/>
</a>
</g>
</g>
<!-- Node5 -->
<g id="Node000005" class="node">
<title>Node5</title>
<g id="a_Node000005"><a xlink:href="preimage_8h.html" target="_top" xlink:title=" ">
<polygon fill="white" stroke="#666666" points="172,-272 26,-272 26,-231 172,-231 172,-272"/>
<text text-anchor="start" x="34" y="-260" font-family="Helvetica,sans-Serif" font-size="10.00">/home/runner/work/realm</text>
<text text-anchor="start" x="34" y="-249" font-family="Helvetica,sans-Serif" font-size="10.00">/realm/realm&#45;src/src/realm</text>
<text text-anchor="middle" x="99" y="-238" font-family="Helvetica,sans-Serif" font-size="10.00">/deppart/preimage.h</text>
</a>
</g>
</g>
<!-- Node2&#45;&gt;Node5 -->
<g id="edge4_Node000002_Node000005" class="edge">
<title>Node2&#45;&gt;Node5</title>
<g id="a_edge4_Node000002_Node000005"><a xlink:title=" ">
<path fill="none" stroke="#63b8ff" d="M343.79,-308.98C296.1,-298.3 235.15,-284.55 181,-272 178.15,-271.34 175.24,-270.66 172.31,-269.98"/>
<polygon fill="#63b8ff" stroke="#63b8ff" points="343.23,-312.44 353.75,-311.21 344.76,-305.61 343.23,-312.44"/>
</a>
</g>
</g>
<!-- Node6 -->
<g id="Node000006" class="node">
<title>Node6</title>
<g id="a_Node000006"><a xlink:href="setops_8h.html" target="_top" xlink:title=" ">
<polygon fill="white" stroke="#666666" points="336,-272 190,-272 190,-231 336,-231 336,-272"/>
<text text-anchor="start" x="198" y="-260" font-family="Helvetica,sans-Serif" font-size="10.00">/home/runner/work/realm</text>
<text text-anchor="start" x="198" y="-249" font-family="Helvetica,sans-Serif" font-size="10.00">/realm/realm&#45;src/src/realm</text>
<text text-anchor="middle" x="263" y="-238" font-family="Helvetica,sans-Serif" font-size="10.00">/deppart/setops.h</text>
</a>
</g>
</g>
<!-- Node2&#45;&gt;Node6 -->
<g id="edge5_Node000002_Node000006" class="edge">
<title>Node2&#45;&gt;Node6</title>
<g id="a_edge5_Node000002_Node000006"><a xlink:title=" ">
<path fill="none" stroke="#63b8ff" d="M375.01,-303.72C352.68,-293.51 326.92,-281.73 305.73,-272.04"/>
<polygon fill="#63b8ff" stroke="#63b8ff" points="373.79,-307.01 384.34,-307.99 376.7,-300.65 373.79,-307.01"/>
</a>
</g>
</g>
<!-- Node7 -->
<g id="Node000007" class="node">
<title>Node7</title>
<g id="a_Node000007"><a xlink:href="runtime__impl_8h.html" target="_top" xlink:title=" ">
<polygon fill="white" stroke="#666666" points="904,-272 758,-272 758,-231 904,-231 904,-272"/>
<text text-anchor="start" x="766" y="-260" font-family="Helvetica,sans-Serif" font-size="10.00">/home/runner/work/realm</text>
<text text-anchor="start" x="766" y="-249" font-family="Helvetica,sans-Serif" font-size="10.00">/realm/realm&#45;src/src/realm</text>
<text text-anchor="middle" x="831" y="-238" font-family="Helvetica,sans-Serif" font-size="10.00">/runtime_impl.h</text>
</a>
</g>
</g>
<!-- Node2&#45;&gt;Node7 -->
<g id="edge6_Node000002_Node000007" class="edge">
<title>Node2&#45;&gt;Node7</title>
<g id="a_edge6_Node000002_Node000007"><a xlink:title=" ">
<path fill="none" stroke="#63b8ff" d="M510.22,-312.05C583.09,-298.52 687.94,-279.06 757.7,-266.11"/>
<polygon fill="#63b8ff" stroke="#63b8ff" points="509.35,-308.65 500.16,-313.92 510.63,-315.53 509.35,-308.65"/>
</a>
</g>
</g>
<!-- Node8 -->
<g id="Node000008" class="node">
<title>Node8</title>
<g id="a_Node000008"><a xlink:href="proc__impl_8h.html" target="_top" xlink:title=" ">
<polygon fill="white" stroke="#666666" points="488,-195 342,-195 342,-154 488,-154 488,-195"/>
<text text-anchor="start" x="350" y="-183" font-family="Helvetica,sans-Serif" font-size="10.00">/home/runner/work/realm</text>
<text text-anchor="start" x="350" y="-172" font-family="Helvetica,sans-Serif" font-size="10.00">/realm/realm&#45;src/src/realm</text>
<text text-anchor="middle" x="415" y="-161" font-family="Helvetica,sans-Serif" font-size="10.00">/proc_impl.h</text>
</a>
</g>
</g>
<!-- Node7&#45;&gt;Node8 -->
<g id="edge7_Node000007_Node000008" class="edge">
<title>Node7&#45;&gt;Node8</title>
<g id="a_edge7_Node000007_Node000008"><a xlink:title=" ">
<path fill="none" stroke="#63b8ff" d="M747.57,-235.46C671.61,-221.76 560.56,-201.74 488.03,-188.67"/>
<polygon fill="#63b8ff" stroke="#63b8ff" points="747.12,-238.93 757.59,-237.26 748.36,-232.05 747.12,-238.93"/>
</a>
</g>
</g>
<!-- Node14 -->
<g id="Node000014" class="node">
<title>Node14</title>
<g id="a_Node000014"><a xlink:href="channel_8h.html" target="_top" xlink:title=" ">
<polygon fill="white" stroke="#666666" points="1075,-195 929,-195 929,-154 1075,-154 1075,-195"/>
<text text-anchor="start" x="937" y="-183" font-family="Helvetica,sans-Serif" font-size="10.00">/home/runner/work/realm</text>
<text text-anchor="start" x="937" y="-172" font-family="Helvetica,sans-Serif" font-size="10.00">/realm/realm&#45;src/src/realm</text>
<text text-anchor="middle" x="1002" y="-161" font-family="Helvetica,sans-Serif" font-size="10.00">/transfer/channel.h</text>
</a>
</g>
</g>
<!-- Node7&#45;&gt;Node14 -->
<g id="edge13_Node000007_Node000014" class="edge">
<title>Node7&#45;&gt;Node14</title>
<g id="a_edge13_Node000007_Node000014"><a xlink:title=" ">
<path fill="none" stroke="#63b8ff" d="M884.9,-226.86C908.25,-216.62 935.25,-204.77 957.44,-195.04"/>
<polygon fill="#63b8ff" stroke="#63b8ff" points="883.23,-223.77 875.48,-230.99 886.05,-230.18 883.23,-223.77"/>
</a>
</g>
</g>
<!-- Node18 -->
<g id="Node000018" class="node">
<title>Node18</title>
<g id="a_Node000018"><a xlink:href="lowlevel__dma_8h.html" target="_top" xlink:title=" ">
<polygon fill="white" stroke="#666666" points="974,-118 828,-118 828,-77 974,-77 974,-118"/>
<text text-anchor="start" x="836" y="-106" font-family="Helvetica,sans-Serif" font-size="10.00">/home/runner/work/realm</text>
<text text-anchor="start" x="836" y="-95" font-family="Helvetica,sans-Serif" font-size="10.00">/realm/realm&#45;src/src/realm</text>
<text text-anchor="middle" x="901" y="-84" font-family="Helvetica,sans-Serif" font-size="10.00">/transfer/lowlevel_dma.h</text>
</a>
</g>
</g>
<!-- Node7&#45;&gt;Node18 -->
<g id="edge23_Node000007_Node000018" class="edge">
<title>Node7&#45;&gt;Node18</title>
<g id="a_edge23_Node000007_Node000018"><a xlink:title=" ">
<path fill="none" stroke="#63b8ff" d="M844.23,-221.76C858.14,-191.57 879.65,-144.87 891.8,-118.47"/>
<polygon fill="#63b8ff" stroke="#63b8ff" points="841.01,-220.39 840.01,-230.94 847.37,-223.32 841.01,-220.39"/>
</a>
</g>
</g>
<!-- Node9 -->
<g id="Node000009" class="node">
<title>Node9</title>
<g id="a_Node000009"><a xlink:href="cuda__internal_8h.html" target="_top" xlink:title=" ">
<polygon fill="white" stroke="#666666" points="646,-118 500,-118 500,-77 646,-77 646,-118"/>
<text text-anchor="start" x="508" y="-106" font-family="Helvetica,sans-Serif" font-size="10.00">/home/runner/work/realm</text>
<text text-anchor="start" x="508" y="-95" font-family="Helvetica,sans-Serif" font-size="10.00">/realm/realm&#45;src/src/realm</text>
<text text-anchor="middle" x="573" y="-84" font-family="Helvetica,sans-Serif" font-size="10.00">/cuda/cuda_internal.h</text>
</a>
</g>
</g>
<!-- Node8&#45;&gt;Node9 -->
<g id="edge8_Node000008_Node000009" class="edge">
<title>Node8&#45;&gt;Node9</title>
<g id="a_edge8_Node000008_Node000009"><a xlink:title=" ">
<path fill="none" stroke="#63b8ff" d="M465.38,-149.59C486.82,-139.41 511.51,-127.69 531.83,-118.04"/>
<polygon fill="#63b8ff" stroke="#63b8ff" points="463.63,-146.54 456.1,-153.99 466.63,-152.86 463.63,-146.54"/>
</a>
</g>
</g>
<!-- Node10 -->
<g id="Node000010" class="node">
<title>Node10</title>
<g id="a_Node000010"><a xlink:href="hip__internal_8h.html" target="_top" xlink:title=" ">
<polygon fill="white" stroke="#666666" points="810,-118 664,-118 664,-77 810,-77 810,-118"/>
<text text-anchor="start" x="672" y="-106" font-family="Helvetica,sans-Serif" font-size="10.00">/home/runner/work/realm</text>
<text text-anchor="start" x="672" y="-95" font-family="Helvetica,sans-Serif" font-size="10.00">/realm/realm&#45;src/src/realm</text>
<text text-anchor="middle" x="737" y="-84" font-family="Helvetica,sans-Serif" font-size="10.00">/hip/hip_internal.h</text>
</a>
</g>
</g>
<!-- Node8&#45;&gt;Node10 -->
<g id="edge9_Node000008_Node000010" class="edge">
<title>Node8&#45;&gt;Node10</title>
<g id="a_edge9_Node000008_Node000010"><a xlink:title=" ">
<path fill="none" stroke="#63b8ff" d="M497.99,-154.44C544.23,-143.79 602.83,-130.24 655,-118 657.85,-117.33 660.75,-116.65 663.69,-115.96"/>
<polygon fill="#63b8ff" stroke="#63b8ff" points="496.98,-151.08 488.02,-156.74 498.55,-157.9 496.98,-151.08"/>
</a>
</g>
</g>
<!-- Node11 -->
<g id="Node000011" class="node">
<title>Node11</title>
<g id="a_Node000011"><a xlink:href="kokkos__interop_8h.html" target="_top" xlink:title=" ">
<polygon fill="white" stroke="#666666" points="482,-118 336,-118 336,-77 482,-77 482,-118"/>
<text text-anchor="start" x="344" y="-106" font-family="Helvetica,sans-Serif" font-size="10.00">/home/runner/work/realm</text>
<text text-anchor="start" x="344" y="-95" font-family="Helvetica,sans-Serif" font-size="10.00">/realm/realm&#45;src/src/realm</text>
<text text-anchor="middle" x="409" y="-84" font-family="Helvetica,sans-Serif" font-size="10.00">/kokkos/kokkos_interop.h</text>
</a>
</g>
</g>
<!-- Node8&#45;&gt;Node11 -->
<g id="edge10_Node000008_Node000011" class="edge">
<title>Node8&#45;&gt;Node11</title>
<g id="a_edge10_Node000008_Node000011"><a xlink:title=" ">
<path fill="none" stroke="#63b8ff" d="M412.62,-143.69C411.93,-135.08 411.19,-125.9 410.57,-118.07"/>
<polygon fill="#63b8ff" stroke="#63b8ff" points="409.14,-144.11 413.42,-153.79 416.11,-143.55 409.14,-144.11"/>
</a>
</g>
</g>
<!-- Node12 -->
<g id="Node000012" class="node">
<title>Node12</title>
<g id="a_Node000012"><a xlink:href="openmp__internal_8h.html" target="_top" xlink:title=" ">
<polygon fill="white" stroke="#666666" points="154,-118 0,-118 0,-77 154,-77 154,-118"/>
<text text-anchor="start" x="8" y="-106" font-family="Helvetica,sans-Serif" font-size="10.00">/home/runner/work/realm</text>
<text text-anchor="start" x="8" y="-95" font-family="Helvetica,sans-Serif" font-size="10.00">/realm/realm&#45;src/src/realm</text>
<text text-anchor="middle" x="77" y="-84" font-family="Helvetica,sans-Serif" font-size="10.00">/openmp/openmp_internal.h</text>
</a>
</g>
</g>
<!-- Node8&#45;&gt;Node12 -->
<g id="edge11_Node000008_Node000012" class="edge">
<title>Node8&#45;&gt;Node12</title>
<g id="a_edge11_Node000008_Node000012"><a xlink:title=" ">
<path fill="none" stroke="#63b8ff" d="M331.97,-155.35C282.82,-144.57 219.34,-130.59 163,-118 160.16,-117.37 157.27,-116.72 154.35,-116.06"/>
<polygon fill="#63b8ff" stroke="#63b8ff" points="331.4,-158.81 341.92,-157.53 332.9,-151.97 331.4,-158.81"/>
</a>
</g>
</g>
<!-- Node13 -->
<g id="Node000013" class="node">
<title>Node13</title>
<g id="a_Node000013"><a xlink:href="python__internal_8h.html" target="_top" xlink:title=" ">
<polygon fill="white" stroke="#666666" points="318,-118 172,-118 172,-77 318,-77 318,-118"/>
<text text-anchor="start" x="180" y="-106" font-family="Helvetica,sans-Serif" font-size="10.00">/home/runner/work/realm</text>
<text text-anchor="start" x="180" y="-95" font-family="Helvetica,sans-Serif" font-size="10.00">/realm/realm&#45;src/src/realm</text>
<text text-anchor="middle" x="245" y="-84" font-family="Helvetica,sans-Serif" font-size="10.00">/python/python_internal.h</text>
</a>
</g>
</g>
<!-- Node8&#45;&gt;Node13 -->
<g id="edge12_Node000008_Node000013" class="edge">
<title>Node8&#45;&gt;Node13</title>
<g id="a_edge12_Node000008_Node000013"><a xlink:title=" ">
<path fill="none" stroke="#63b8ff" d="M361.41,-149.86C338.2,-139.62 311.35,-127.77 289.3,-118.04"/>
<polygon fill="#63b8ff" stroke="#63b8ff" points="360.22,-153.16 370.78,-153.99 363.04,-146.75 360.22,-153.16"/>
</a>
</g>
</g>
<!-- Node14&#45;&gt;Node9 -->
<g id="edge14_Node000014_Node000009" class="edge">
<title>Node14&#45;&gt;Node9</title>
<g id="a_edge14_Node000014_Node000009"><a xlink:title=" ">
<path fill="none" stroke="#63b8ff" d="M918.79,-161.98C848.3,-151.79 744.69,-135.81 655,-118 652.13,-117.43 649.21,-116.83 646.26,-116.21"/>
<polygon fill="#63b8ff" stroke="#63b8ff" points="918.54,-165.48 928.94,-163.44 919.54,-158.55 918.54,-165.48"/>
</a>
</g>
</g>
<!-- Node14&#45;&gt;Node10 -->
<g id="edge16_Node000014_Node000010" class="edge">
<title>Node14&#45;&gt;Node10</title>
<g id="a_edge16_Node000014_Node000010"><a xlink:title=" ">
<path fill="none" stroke="#63b8ff" d="M923.26,-151.21C886.02,-140.68 841.96,-128.21 806.05,-118.04"/>
<polygon fill="#63b8ff" stroke="#63b8ff" points="922.49,-154.63 933.07,-153.99 924.4,-147.9 922.49,-154.63"/>
</a>
</g>
</g>
<!-- Node15 -->
<g id="Node000015" class="node">
<title>Node15</title>
<g id="a_Node000015"><a xlink:href="hdf5__internal_8h.html" target="_top" xlink:title=" ">
<polygon fill="white" stroke="#666666" points="1024,-41 878,-41 878,0 1024,0 1024,-41"/>
<text text-anchor="start" x="886" y="-29" font-family="Helvetica,sans-Serif" font-size="10.00">/home/runner/work/realm</text>
<text text-anchor="start" x="886" y="-18" font-family="Helvetica,sans-Serif" font-size="10.00">/realm/realm&#45;src/src/realm</text>
<text text-anchor="middle" x="951" y="-7" font-family="Helvetica,sans-Serif" font-size="10.00">/hdf5/hdf5_internal.h</text>
</a>
</g>
</g>
<!-- Node14&#45;&gt;Node15 -->
<g id="edge15_Node000014_Node000015" class="edge">
<title>Node14&#45;&gt;Node15</title>
<g id="a_edge15_Node000014_Node000015"><a xlink:title=" ">
<path fill="none" stroke="#63b8ff" d="M998.7,-143.67C995.93,-124.24 991.09,-98.58 983,-77 978.28,-64.4 970.87,-51.31 964.37,-41.01"/>
<polygon fill="#63b8ff" stroke="#63b8ff" points="995.26,-144.3 1000.03,-153.76 1002.2,-143.39 995.26,-144.3"/>
</a>
</g>
</g>
<!-- Node16 -->
<g id="Node000016" class="node">
<title>Node16</title>
<g id="a_Node000016"><a xlink:href="addrsplit__channel_8h.html" target="_top" xlink:title=" ">
<polygon fill="white" stroke="#666666" points="1578,-118 1422,-118 1422,-77 1578,-77 1578,-118"/>
<text text-anchor="start" x="1430" y="-106" font-family="Helvetica,sans-Serif" font-size="10.00">/home/runner/work/realm</text>
<text text-anchor="start" x="1430" y="-95" font-family="Helvetica,sans-Serif" font-size="10.00">/realm/realm&#45;src/src/realm</text>
<text text-anchor="middle" x="1500" y="-84" font-family="Helvetica,sans-Serif" font-size="10.00">/transfer/addrsplit_channel.h</text>
</a>
</g>
</g>
<!-- Node14&#45;&gt;Node16 -->
<g id="edge17_Node000014_Node000016" class="edge">
<title>Node14&#45;&gt;Node16</title>
<g id="a_edge17_Node000014_Node000016"><a xlink:title=" ">
<path fill="none" stroke="#63b8ff" d="M1085.22,-160.97C1178.9,-146.86 1329.95,-124.11 1421.6,-110.31"/>
<polygon fill="#63b8ff" stroke="#63b8ff" points="1084.58,-157.52 1075.21,-162.47 1085.62,-164.45 1084.58,-157.52"/>
</a>
</g>
</g>
<!-- Node17 -->
<g id="Node000017" class="node">
<title>Node17</title>
<g id="a_Node000017"><a xlink:href="channel__disk_8h.html" target="_top" xlink:title=" ">
<polygon fill="white" stroke="#666666" points="1176,-118 1030,-118 1030,-77 1176,-77 1176,-118"/>
<text text-anchor="start" x="1038" y="-106" font-family="Helvetica,sans-Serif" font-size="10.00">/home/runner/work/realm</text>
<text text-anchor="start" x="1038" y="-95" font-family="Helvetica,sans-Serif" font-size="10.00">/realm/realm&#45;src/src/realm</text>
<text text-anchor="middle" x="1103" y="-84" font-family="Helvetica,sans-Serif" font-size="10.00">/transfer/channel_disk.h</text>
</a>
</g>
</g>
<!-- Node14&#45;&gt;Node17 -->
<g id="edge18_Node000014_Node000017" class="edge">
<title>Node14&#45;&gt;Node17</title>
<g id="a_edge18_Node000014_Node000017"><a xlink:title=" ">
<path fill="none" stroke="#63b8ff" d="M1036.59,-147.82C1049.65,-138.11 1064.3,-127.24 1076.51,-118.17"/>
<polygon fill="#63b8ff" stroke="#63b8ff" points="1034.21,-145.22 1028.27,-153.99 1038.39,-150.84 1034.21,-145.22"/>
</a>
</g>
</g>
<!-- Node14&#45;&gt;Node18 -->
<g id="edge19_Node000014_Node000018" class="edge">
<title>Node14&#45;&gt;Node18</title>
<g id="a_edge19_Node000014_Node000018"><a xlink:title=" ">
<path fill="none" stroke="#63b8ff" d="M967.41,-147.82C954.35,-138.11 939.7,-127.24 927.49,-118.17"/>
<polygon fill="#63b8ff" stroke="#63b8ff" points="965.61,-150.84 975.73,-153.99 969.79,-145.22 965.61,-150.84"/>
</a>
</g>
</g>
<!-- Node19 -->
<g id="Node000019" class="node">
<title>Node19</title>
<g id="a_Node000019"><a xlink:href="memcpy__channel_8h.html" target="_top" xlink:title=" ">
<polygon fill="white" stroke="#666666" points="1350,-118 1194,-118 1194,-77 1350,-77 1350,-118"/>
<text text-anchor="start" x="1202" y="-106" font-family="Helvetica,sans-Serif" font-size="10.00">/home/runner/work/realm</text>
<text text-anchor="start" x="1202" y="-95" font-family="Helvetica,sans-Serif" font-size="10.00">/realm/realm&#45;src/src/realm</text>
<text text-anchor="middle" x="1272" y="-84" font-family="Helvetica,sans-Serif" font-size="10.00">/transfer/memcpy_channel.h</text>
</a>
</g>
</g>
<!-- Node14&#45;&gt;Node19 -->
<g id="edge21_Node000014_Node000019" class="edge">
<title>Node14&#45;&gt;Node19</title>
<g id="a_edge21_Node000014_Node000019"><a xlink:title=" ">
<path fill="none" stroke="#63b8ff" d="M1082.23,-151.21C1120.17,-140.68 1165.06,-128.21 1201.65,-118.04"/>
<polygon fill="#63b8ff" stroke="#63b8ff" points="1080.93,-147.94 1072.23,-153.99 1082.81,-154.69 1080.93,-147.94"/>
</a>
</g>
</g>
<!-- Node20 -->
<g id="Node000020" class="node">
<title>Node20</title>
<g id="a_Node000020"><a xlink:href="transfer_8h.html" target="_top" xlink:title=" ">
<polygon fill="white" stroke="#666666" points="1848,-118 1702,-118 1702,-77 1848,-77 1848,-118"/>
<text text-anchor="start" x="1710" y="-106" font-family="Helvetica,sans-Serif" font-size="10.00">/home/runner/work/realm</text>
<text text-anchor="start" x="1710" y="-95" font-family="Helvetica,sans-Serif" font-size="10.00">/realm/realm&#45;src/src/realm</text>
<text text-anchor="middle" x="1775" y="-84" font-family="Helvetica,sans-Serif" font-size="10.00">/transfer/transfer.h</text>
</a>
</g>
</g>
<!-- Node14&#45;&gt;Node20 -->
<g id="edge22_Node000014_Node000020" class="edge">
<title>Node14&#45;&gt;Node20</title>
<g id="a_edge22_Node000014_Node000020"><a xlink:title=" ">
<path fill="none" stroke="#63b8ff" d="M1085.45,-165.81C1198.97,-155.31 1408.39,-135.74 1587,-118 1624.88,-114.24 1667.03,-109.88 1701.8,-106.24"/>
<polygon fill="#63b8ff" stroke="#63b8ff" points="1085.07,-162.33 1075.44,-166.74 1085.72,-169.3 1085.07,-162.33"/>
</a>
</g>
</g>
<!-- Node18&#45;&gt;Node15 -->
<g id="edge20_Node000018_Node000015" class="edge">
<title>Node18&#45;&gt;Node15</title>
<g id="a_edge20_Node000018_Node000015"><a xlink:title=" ">
<path fill="none" stroke="#63b8ff" d="M919.74,-68.39C925.8,-59.3 932.39,-49.41 937.95,-41.07"/>
<polygon fill="#63b8ff" stroke="#63b8ff" points="916.77,-66.53 914.14,-76.79 922.6,-70.42 916.77,-66.53"/>
</a>
</g>
</g>
<!-- Node21&#45;&gt;Node2 -->
<g id="edge25_Node000021_Node000002" class="edge">
<title>Node21&#45;&gt;Node2</title>
<g id="a_edge25_Node000021_Node000002"><a xlink:title=" ">
<path fill="none" stroke="#63b8ff" d="M403.53,-375.83C408.06,-366.89 412.95,-357.24 417.08,-349.07"/>
<polygon fill="#63b8ff" stroke="#63b8ff" points="400.38,-374.29 398.98,-384.79 406.63,-377.46 400.38,-374.29"/>
</a>
</g>
</g>
<!-- Node22&#45;&gt;Node2 -->
<g id="edge30_Node000022_Node000002" class="edge">
<title>Node22&#45;&gt;Node2</title>
<g id="a_edge30_Node000022_Node000002"><a xlink:title=" ">
<path fill="none" stroke="#63b8ff" d="M748.42,-458.55C724.75,-450.15 699.53,-439.34 678,-426 655.55,-412.09 658.03,-397.92 635,-385 593.44,-361.69 541.68,-347.83 500.19,-339.79"/>
<polygon fill="#63b8ff" stroke="#63b8ff" points="747.51,-461.94 758.11,-461.89 749.79,-455.33 747.51,-461.94"/>
</a>
</g>
</g>
<!-- Node22&#45;&gt;Node9 -->
<g id="edge27_Node000022_Node000009" class="edge">
<title>Node22&#45;&gt;Node9</title>
<g id="a_edge27_Node000022_Node000009"><a xlink:title=" ">
<path fill="none" stroke="#63b8ff" d="M787.9,-456.62C714.86,-413.4 572.17,-324.12 547,-272 522.16,-220.57 547.66,-151.41 563.08,-118.07"/>
<polygon fill="#63b8ff" stroke="#63b8ff" points="786.49,-459.85 796.88,-461.91 790.04,-453.82 786.49,-459.85"/>
</a>
</g>
</g>
<!-- Node22&#45;&gt;Node10 -->
<g id="edge34_Node000022_Node000010" class="edge">
<title>Node22&#45;&gt;Node10</title>
<g id="a_edge34_Node000022_Node000010"><a xlink:title=" ">
<path fill="none" stroke="#63b8ff" d="M799.15,-454.89C769.54,-427 730,-380.25 730,-329.5 730,-329.5 730,-329.5 730,-250.5 730,-202.95 733.46,-147.12 735.52,-118.16"/>
<polygon fill="#63b8ff" stroke="#63b8ff" points="797.07,-457.73 806.81,-461.9 801.79,-452.57 797.07,-457.73"/>
</a>
</g>
</g>
<!-- Node22&#45;&gt;Node16 -->
<g id="edge49_Node000022_Node000016" class="edge">
<title>Node22&#45;&gt;Node16</title>
<g id="a_edge49_Node000022_Node000016"><a xlink:title=" ">
<path fill="none" stroke="#63b8ff" d="M914.39,-477.02C1147.68,-463.37 1790,-417.79 1790,-329.5 1790,-329.5 1790,-329.5 1790,-250.5 1790,-154.58 1663.99,-119.07 1578.1,-106.01"/>
<polygon fill="#63b8ff" stroke="#63b8ff" points="914.04,-473.53 904.26,-477.61 914.45,-480.52 914.04,-473.53"/>
</a>
</g>
</g>
<!-- Node22&#45;&gt;Node20 -->
<g id="edge50_Node000022_Node000020" class="edge">
<title>Node22&#45;&gt;Node20</title>
<g id="a_edge50_Node000022_Node000020"><a xlink:title=" ">
<path fill="none" stroke="#63b8ff" d="M914.48,-478.58C1085.55,-472.07 1470.59,-454.69 1599,-426 1706.79,-401.92 1828,-439.95 1828,-329.5 1828,-329.5 1828,-329.5 1828,-250.5 1828,-200.75 1802.38,-146.7 1786.76,-118.38"/>
<polygon fill="#63b8ff" stroke="#63b8ff" points="914.13,-475.09 904.27,-478.96 914.39,-482.08 914.13,-475.09"/>
</a>
</g>
</g>
<!-- Node22&#45;&gt;Node21 -->
<g id="edge33_Node000022_Node000021" class="edge">
<title>Node22&#45;&gt;Node21</title>
<g id="a_edge33_Node000022_Node000021"><a xlink:title=" ">
<path fill="none" stroke="#63b8ff" d="M747.88,-470.62C674.7,-460.58 565.39,-444.47 471,-426 468.13,-425.44 465.2,-424.84 462.25,-424.23"/>
<polygon fill="#63b8ff" stroke="#63b8ff" points="747.58,-474.11 757.96,-472 748.52,-467.18 747.58,-474.11"/>
</a>
</g>
</g>
<!-- Node23 -->
<g id="Node000023" class="node">
<title>Node23</title>
<g id="a_Node000023"><a xlink:href="inst__helper_8h.html" target="_top" xlink:title=" ">
<polygon fill="white" stroke="#666666" points="626,-426 480,-426 480,-385 626,-385 626,-426"/>
<text text-anchor="start" x="488" y="-414" font-family="Helvetica,sans-Serif" font-size="10.00">/home/runner/work/realm</text>
<text text-anchor="start" x="488" y="-403" font-family="Helvetica,sans-Serif" font-size="10.00">/realm/realm&#45;src/src/realm</text>
<text text-anchor="middle" x="553" y="-392" font-family="Helvetica,sans-Serif" font-size="10.00">/deppart/inst_helper.h</text>
</a>
</g>
</g>
<!-- Node22&#45;&gt;Node23 -->
<g id="edge28_Node000022_Node000023" class="edge">
<title>Node22&#45;&gt;Node23</title>
<g id="a_edge28_Node000022_Node000023"><a xlink:title=" ">
<path fill="none" stroke="#63b8ff" d="M748.89,-459.35C709.73,-448.78 663.27,-436.25 625.44,-426.04"/>
<polygon fill="#63b8ff" stroke="#63b8ff" points="748.12,-462.76 758.68,-461.99 749.94,-456.01 748.12,-462.76"/>
</a>
</g>
</g>
<!-- Node24 -->
<g id="Node000024" class="node">
<title>Node24</title>
<g id="a_Node000024"><a xlink:href="rectlist_8h.html" target="_top" xlink:title=" ">
<polygon fill="white" stroke="#666666" points="904,-349 758,-349 758,-308 904,-308 904,-349"/>
<text text-anchor="start" x="766" y="-337" font-family="Helvetica,sans-Serif" font-size="10.00">/home/runner/work/realm</text>
<text text-anchor="start" x="766" y="-326" font-family="Helvetica,sans-Serif" font-size="10.00">/realm/realm&#45;src/src/realm</text>
<text text-anchor="middle" x="831" y="-315" font-family="Helvetica,sans-Serif" font-size="10.00">/deppart/rectlist.h</text>
</a>
</g>
</g>
<!-- Node22&#45;&gt;Node24 -->
<g id="edge31_Node000022_Node000024" class="edge">
<title>Node22&#45;&gt;Node24</title>
<g id="a_edge31_Node000022_Node000024"><a xlink:title=" ">
<path fill="none" stroke="#63b8ff" d="M831,-451.58C831,-421.36 831,-375.53 831,-349.47"/>
<polygon fill="#63b8ff" stroke="#63b8ff" points="827.5,-451.94 831,-461.94 834.5,-451.94 827.5,-451.94"/>
</a>
</g>
</g>
<!-- Node25 -->
<g id="Node000025" class="node">
<title>Node25</title>
<g id="a_Node000025"><a xlink:href="idx__impl_8h.html" target="_top" xlink:title=" ">
<polygon fill="white" stroke="#666666" points="2002,-426 1856,-426 1856,-385 2002,-385 2002,-426"/>
<text text-anchor="start" x="1864" y="-414" font-family="Helvetica,sans-Serif" font-size="10.00">/home/runner/work/realm</text>
<text text-anchor="start" x="1864" y="-403" font-family="Helvetica,sans-Serif" font-size="10.00">/realm/realm&#45;src/src/realm</text>
<text text-anchor="middle" x="1929" y="-392" font-family="Helvetica,sans-Serif" font-size="10.00">/idx_impl.h</text>
</a>
</g>
</g>
<!-- Node22&#45;&gt;Node25 -->
<g id="edge35_Node000022_Node000025" class="edge">
<title>Node22&#45;&gt;Node25</title>
<g id="a_edge35_Node000022_Node000025"><a xlink:title=" ">
<path fill="none" stroke="#63b8ff" d="M914.11,-481.58C1087.46,-480.73 1499.92,-473.39 1842,-426 1846.45,-425.38 1851,-424.66 1855.58,-423.85"/>
<polygon fill="#63b8ff" stroke="#63b8ff" points="914.02,-478.08 904.04,-481.62 914.05,-485.08 914.02,-478.08"/>
</a>
</g>
</g>
<!-- Node26 -->
<g id="Node000026" class="node">
<title>Node26</title>
<g id="a_Node000026"><a xlink:href="inst__layout_8h.html" target="_top" xlink:title=" ">
<polygon fill="white" stroke="#666666" points="1314,-349 1168,-349 1168,-308 1314,-308 1314,-349"/>
<text text-anchor="start" x="1176" y="-337" font-family="Helvetica,sans-Serif" font-size="10.00">/home/runner/work/realm</text>
<text text-anchor="start" x="1176" y="-326" font-family="Helvetica,sans-Serif" font-size="10.00">/realm/realm&#45;src/src/realm</text>
<text text-anchor="middle" x="1241" y="-315" font-family="Helvetica,sans-Serif" font-size="10.00">/inst_layout.h</text>
</a>
</g>
</g>
<!-- Node22&#45;&gt;Node26 -->
<g id="edge36_Node000022_Node000026" class="edge">
<title>Node22&#45;&gt;Node26</title>
<g id="a_edge36_Node000022_Node000026"><a xlink:title=" ">
<path fill="none" stroke="#63b8ff" d="M914.12,-464.28C954.53,-454.84 1003.44,-441.83 1046,-426 1104.42,-404.27 1168.54,-370.47 1206.74,-349.18"/>
<polygon fill="#63b8ff" stroke="#63b8ff" points="913.27,-460.88 904.31,-466.54 914.84,-467.7 913.27,-460.88"/>
</a>
</g>
</g>
<!-- Node32 -->
<g id="Node000032" class="node">
<title>Node32</title>
<g id="a_Node000032"><a xlink:href="subgraph_8h.html" target="_top" xlink:title=" ">
<polygon fill="white" stroke="#666666" points="1037,-426 891,-426 891,-385 1037,-385 1037,-426"/>
<text text-anchor="start" x="899" y="-414" font-family="Helvetica,sans-Serif" font-size="10.00">/home/runner/work/realm</text>
<text text-anchor="start" x="899" y="-403" font-family="Helvetica,sans-Serif" font-size="10.00">/realm/realm&#45;src/src/realm</text>
<text text-anchor="middle" x="964" y="-392" font-family="Helvetica,sans-Serif" font-size="10.00">/subgraph.h</text>
</a>
</g>
</g>
<!-- Node22&#45;&gt;Node32 -->
<g id="edge44_Node000022_Node000032" class="edge">
<title>Node22&#45;&gt;Node32</title>
<g id="a_edge44_Node000022_Node000032"><a xlink:title=" ">
<path fill="none" stroke="#63b8ff" d="M874.59,-456.92C892.28,-446.95 912.43,-435.58 929.11,-426.17"/>
<polygon fill="#63b8ff" stroke="#63b8ff" points="872.59,-454.03 865.6,-461.99 876.03,-460.13 872.59,-454.03"/>
</a>
</g>
</g>
<!-- Node34 -->
<g id="Node000034" class="node">
<title>Node34</title>
<g id="a_Node000034"><a xlink:href="address__list_8h.html" target="_top" xlink:title=" ">
<polygon fill="white" stroke="#666666" points="1620,-349 1474,-349 1474,-308 1620,-308 1620,-349"/>
<text text-anchor="start" x="1482" y="-337" font-family="Helvetica,sans-Serif" font-size="10.00">/home/runner/work/realm</text>
<text text-anchor="start" x="1482" y="-326" font-family="Helvetica,sans-Serif" font-size="10.00">/realm/realm&#45;src/src/realm</text>
<text text-anchor="middle" x="1547" y="-315" font-family="Helvetica,sans-Serif" font-size="10.00">/transfer/address_list.h</text>
</a>
</g>
</g>
<!-- Node22&#45;&gt;Node34 -->
<g id="edge47_Node000022_Node000034" class="edge">
<title>Node22&#45;&gt;Node34</title>
<g id="a_edge47_Node000022_Node000034"><a xlink:title=" ">
<path fill="none" stroke="#63b8ff" d="M914,-465.12C968.6,-454.25 1041.61,-439.54 1106,-426 1235.62,-398.74 1386.29,-365.42 1473.73,-345.92"/>
<polygon fill="#63b8ff" stroke="#63b8ff" points="913.15,-461.72 904.02,-467.1 914.51,-468.58 913.15,-461.72"/>
</a>
</g>
</g>
<!-- Node23&#45;&gt;Node2 -->
<g id="edge29_Node000023_Node000002" class="edge">
<title>Node23&#45;&gt;Node2</title>
<g id="a_edge29_Node000023_Node000002"><a xlink:title=" ">
<path fill="none" stroke="#63b8ff" d="M511.24,-379.64C494.6,-369.74 475.71,-358.5 460.05,-349.17"/>
<polygon fill="#63b8ff" stroke="#63b8ff" points="509.84,-382.88 520.22,-384.99 513.42,-376.87 509.84,-382.88"/>
</a>
</g>
</g>
<!-- Node24&#45;&gt;Node4 -->
<g id="edge32_Node000024_Node000004" class="edge">
<title>Node24&#45;&gt;Node4</title>
<g id="a_edge32_Node000024_Node000004"><a xlink:title=" ">
<path fill="none" stroke="#63b8ff" d="M768.79,-304.4C740.88,-294.04 708.31,-281.95 681.63,-272.04"/>
<polygon fill="#63b8ff" stroke="#63b8ff" points="767.86,-307.79 778.45,-307.99 770.3,-301.23 767.86,-307.79"/>
</a>
</g>
</g>
<!-- Node27 -->
<g id="Node000027" class="node">
<title>Node27</title>
<g id="a_Node000027"><a xlink:href="cuda__access_8h.html" target="_top" xlink:title=" ">
<polygon fill="white" stroke="#666666" points="1724,-272 1578,-272 1578,-231 1724,-231 1724,-272"/>
<text text-anchor="start" x="1586" y="-260" font-family="Helvetica,sans-Serif" font-size="10.00">/home/runner/work/realm</text>
<text text-anchor="start" x="1586" y="-249" font-family="Helvetica,sans-Serif" font-size="10.00">/realm/realm&#45;src/src/realm</text>
<text text-anchor="middle" x="1651" y="-238" font-family="Helvetica,sans-Serif" font-size="10.00">/cuda/cuda_access.h</text>
</a>
</g>
</g>
<!-- Node26&#45;&gt;Node27 -->
<g id="edge37_Node000026_Node000027" class="edge">
<title>Node26&#45;&gt;Node27</title>
<g id="a_edge37_Node000026_Node000027"><a xlink:title=" ">
<path fill="none" stroke="#63b8ff" d="M1324.21,-314.97C1390.68,-304.59 1486.1,-288.85 1569,-272 1571.87,-271.42 1574.79,-270.81 1577.74,-270.18"/>
<polygon fill="#63b8ff" stroke="#63b8ff" points="1323.55,-311.53 1314.21,-316.53 1324.63,-318.45 1323.55,-311.53"/>
</a>
</g>
</g>
<!-- Node28 -->
<g id="Node000028" class="node">
<title>Node28</title>
<g id="a_Node000028"><a xlink:href="hdf5__access_8h.html" target="_top" xlink:title=" ">
<polygon fill="white" stroke="#666666" points="1232,-272 1086,-272 1086,-231 1232,-231 1232,-272"/>
<text text-anchor="start" x="1094" y="-260" font-family="Helvetica,sans-Serif" font-size="10.00">/home/runner/work/realm</text>
<text text-anchor="start" x="1094" y="-249" font-family="Helvetica,sans-Serif" font-size="10.00">/realm/realm&#45;src/src/realm</text>
<text text-anchor="middle" x="1159" y="-238" font-family="Helvetica,sans-Serif" font-size="10.00">/hdf5/hdf5_access.h</text>
</a>
</g>
</g>
<!-- Node26&#45;&gt;Node28 -->
<g id="edge38_Node000026_Node000028" class="edge">
<title>Node26&#45;&gt;Node28</title>
<g id="a_edge38_Node000026_Node000028"><a xlink:title=" ">
<path fill="none" stroke="#63b8ff" d="M1211.8,-300.79C1201.44,-291.32 1189.99,-280.84 1180.4,-272.07"/>
<polygon fill="#63b8ff" stroke="#63b8ff" points="1209.71,-303.63 1219.46,-307.79 1214.44,-298.46 1209.71,-303.63"/>
</a>
</g>
</g>
<!-- Node29 -->
<g id="Node000029" class="node">
<title>Node29</title>
<g id="a_Node000029"><a xlink:href="hip__access_8h.html" target="_top" xlink:title=" ">
<polygon fill="white" stroke="#666666" points="1396,-272 1250,-272 1250,-231 1396,-231 1396,-272"/>
<text text-anchor="start" x="1258" y="-260" font-family="Helvetica,sans-Serif" font-size="10.00">/home/runner/work/realm</text>
<text text-anchor="start" x="1258" y="-249" font-family="Helvetica,sans-Serif" font-size="10.00">/realm/realm&#45;src/src/realm</text>
<text text-anchor="middle" x="1323" y="-238" font-family="Helvetica,sans-Serif" font-size="10.00">/hip/hip_access.h</text>
</a>
</g>
</g>
<!-- Node26&#45;&gt;Node29 -->
<g id="edge39_Node000026_Node000029" class="edge">
<title>Node26&#45;&gt;Node29</title>
<g id="a_edge39_Node000026_Node000029"><a xlink:title=" ">
<path fill="none" stroke="#63b8ff" d="M1270.2,-300.79C1280.56,-291.32 1292.01,-280.84 1301.6,-272.07"/>
<polygon fill="#63b8ff" stroke="#63b8ff" points="1267.56,-298.46 1262.54,-307.79 1272.29,-303.63 1267.56,-298.46"/>
</a>
</g>
</g>
<!-- Node30 -->
<g id="Node000030" class="node">
<title>Node30</title>
<g id="a_Node000030"><a xlink:href="inst__impl_8h.html" target="_top" xlink:title=" ">
<polygon fill="white" stroke="#666666" points="1068,-272 922,-272 922,-231 1068,-231 1068,-272"/>
<text text-anchor="start" x="930" y="-260" font-family="Helvetica,sans-Serif" font-size="10.00">/home/runner/work/realm</text>
<text text-anchor="start" x="930" y="-249" font-family="Helvetica,sans-Serif" font-size="10.00">/realm/realm&#45;src/src/realm</text>
<text text-anchor="middle" x="995" y="-238" font-family="Helvetica,sans-Serif" font-size="10.00">/inst_impl.h</text>
</a>
</g>
</g>
<!-- Node26&#45;&gt;Node30 -->
<g id="edge40_Node000026_Node000030" class="edge">
<title>Node26&#45;&gt;Node30</title>
<g id="a_edge40_Node000026_Node000030"><a xlink:title=" ">
<path fill="none" stroke="#63b8ff" d="M1167.02,-304.94C1132.64,-294.46 1092.15,-282.12 1059.1,-272.04"/>
<polygon fill="#63b8ff" stroke="#63b8ff" points="1166.42,-308.42 1177.01,-307.99 1168.46,-301.73 1166.42,-308.42"/>
</a>
</g>
</g>
<!-- Node31 -->
<g id="Node000031" class="node">
<title>Node31</title>
<g id="a_Node000031"><a xlink:href="transfer__utils_8h.html" target="_top" xlink:title=" ">
<polygon fill="white" stroke="#666666" points="1560,-272 1414,-272 1414,-231 1560,-231 1560,-272"/>
<text text-anchor="start" x="1422" y="-260" font-family="Helvetica,sans-Serif" font-size="10.00">/home/runner/work/realm</text>
<text text-anchor="start" x="1422" y="-249" font-family="Helvetica,sans-Serif" font-size="10.00">/realm/realm&#45;src/src/realm</text>
<text text-anchor="middle" x="1487" y="-238" font-family="Helvetica,sans-Serif" font-size="10.00">/transfer/transfer_utils.h</text>
</a>
</g>
</g>
<!-- Node26&#45;&gt;Node31 -->
<g id="edge43_Node000026_Node000031" class="edge">
<title>Node26&#45;&gt;Node31</title>
<g id="a_edge43_Node000026_Node000031"><a xlink:title=" ">
<path fill="none" stroke="#63b8ff" d="M1314.98,-304.94C1349.36,-294.46 1389.85,-282.12 1422.9,-272.04"/>
<polygon fill="#63b8ff" stroke="#63b8ff" points="1313.54,-301.73 1304.99,-307.99 1315.58,-308.42 1313.54,-301.73"/>
</a>
</g>
</g>
<!-- Node30&#45;&gt;Node14 -->
<g id="edge41_Node000030_Node000014" class="edge">
<title>Node30&#45;&gt;Node14</title>
<g id="a_edge41_Node000030_Node000014"><a xlink:title=" ">
<path fill="none" stroke="#63b8ff" d="M997.78,-220.69C998.59,-212.08 999.44,-202.9 1000.17,-195.07"/>
<polygon fill="#63b8ff" stroke="#63b8ff" points="994.28,-220.51 996.84,-230.79 1001.25,-221.16 994.28,-220.51"/>
</a>
</g>
</g>
<!-- Node30&#45;&gt;Node18 -->
<g id="edge42_Node000030_Node000018" class="edge">
<title>Node30&#45;&gt;Node18</title>
<g id="a_edge42_Node000030_Node000018"><a xlink:title=" ">
<path fill="none" stroke="#63b8ff" d="M949.27,-224.94C938.17,-216.73 927.38,-206.67 920,-195 905.12,-171.48 901.49,-138.79 900.81,-118.14"/>
<polygon fill="#63b8ff" stroke="#63b8ff" points="947.57,-228.02 957.77,-230.87 951.57,-222.28 947.57,-228.02"/>
</a>
</g>
</g>
<!-- Node33 -->
<g id="Node000033" class="node">
<title>Node33</title>
<g id="a_Node000033"><a xlink:href="subgraph__impl_8h.html" target="_top" xlink:title=" ">
<polygon fill="white" stroke="#666666" points="1068,-349 922,-349 922,-308 1068,-308 1068,-349"/>
<text text-anchor="start" x="930" y="-337" font-family="Helvetica,sans-Serif" font-size="10.00">/home/runner/work/realm</text>
<text text-anchor="start" x="930" y="-326" font-family="Helvetica,sans-Serif" font-size="10.00">/realm/realm&#45;src/src/realm</text>
<text text-anchor="middle" x="995" y="-315" font-family="Helvetica,sans-Serif" font-size="10.00">/subgraph_impl.h</text>
</a>
</g>
</g>
<!-- Node32&#45;&gt;Node33 -->
<g id="edge45_Node000032_Node000033" class="edge">
<title>Node32&#45;&gt;Node33</title>
<g id="a_edge45_Node000032_Node000033"><a xlink:title=" ">
<path fill="none" stroke="#63b8ff" d="M975.97,-375.55C979.63,-366.69 983.57,-357.15 986.91,-349.07"/>
<polygon fill="#63b8ff" stroke="#63b8ff" points="972.73,-374.22 972.14,-384.79 979.2,-376.89 972.73,-374.22"/>
</a>
</g>
</g>
<!-- Node33&#45;&gt;Node7 -->
<g id="edge46_Node000033_Node000007" class="edge">
<title>Node33&#45;&gt;Node7</title>
<g id="a_edge46_Node000033_Node000007"><a xlink:title=" ">
<path fill="none" stroke="#63b8ff" d="M943.01,-303.72C920.68,-293.51 894.92,-281.73 873.73,-272.04"/>
<polygon fill="#63b8ff" stroke="#63b8ff" points="941.79,-307.01 952.34,-307.99 944.7,-300.65 941.79,-307.01"/>
</a>
</g>
</g>
<!-- Node34&#45;&gt;Node14 -->
<g id="edge48_Node000034_Node000014" class="edge">
<title>Node34&#45;&gt;Node14</title>
<g id="a_edge48_Node000034_Node000014"><a xlink:title=" ">
<path fill="none" stroke="#63b8ff" d="M1630.08,-313.34C1695.95,-298.69 1771.11,-272.11 1733,-231 1688.9,-183.43 1251.42,-176.43 1075.09,-175.55"/>
<polygon fill="#63b8ff" stroke="#63b8ff" points="1629.06,-309.98 1620.02,-315.5 1630.53,-316.82 1629.06,-309.98"/>
</a>
</g>
</g>
</g>
</svg>
