<?xml version="1.0" encoding="UTF-8" standalone="no"?>
<!DOCTYPE svg PUBLIC "-//W3C//DTD SVG 1.1//EN"
 "http://www.w3.org/Graphics/SVG/1.1/DTD/svg11.dtd">
<!-- Generated by graphviz version 2.43.0 (0)
 -->
<!-- Title: /home/runner/work/realm/realm/realm&#45;src/src/realm/sparsity.h Pages: 1 -->
<svg width="2077pt" height="588pt"
 viewBox="0.00 0.00 2077.00 588.00" xmlns="http://www.w3.org/2000/svg" xmlns:xlink="http://www.w3.org/1999/xlink">
<g id="graph0" class="graph" transform="scale(1 1) rotate(0) translate(4 584)">
<title>/home/runner/work/realm/realm/realm&#45;src/src/realm/sparsity.h</title>
<!-- Node1 -->
<g id="Node000001" class="node">
<title>Node1</title>
<g id="a_Node000001"><a xlink:title=" ">
<polygon fill="#999999" stroke="#666666" points="852,-580 706,-580 706,-539 852,-539 852,-580"/>
<text text-anchor="start" x="714" y="-568" font-family="Helvetica,sans-Serif" font-size="10.00">/home/runner/work/realm</text>
<text text-anchor="start" x="714" y="-557" font-family="Helvetica,sans-Serif" font-size="10.00">/realm/realm&#45;src/src/realm</text>
<text text-anchor="middle" x="779" y="-546" font-family="Helvetica,sans-Serif" font-size="10.00">/sparsity.h</text>
</a>
</g>
</g>
<!-- Node2 -->
<g id="Node000002" class="node">
<title>Node2</title>
<g id="a_Node000002"><a xlink:href="partitions_8h.html" target="_top" xlink:title=" ">
<polygon fill="white" stroke="#666666" points="928,-349 782,-349 782,-308 928,-308 928,-349"/>
<text text-anchor="start" x="790" y="-337" font-family="Helvetica,sans-Serif" font-size="10.00">/home/runner/work/realm</text>
<text text-anchor="start" x="790" y="-326" font-family="Helvetica,sans-Serif" font-size="10.00">/realm/realm&#45;src/src/realm</text>
<text text-anchor="middle" x="855" y="-315" font-family="Helvetica,sans-Serif" font-size="10.00">/deppart/partitions.h</text>
</a>
</g>
</g>
<!-- Node1&#45;&gt;Node2 -->
<g id="edge1_Node000001_Node000002" class="edge">
<title>Node1&#45;&gt;Node2</title>
<g id="a_edge1_Node000001_Node000002"><a xlink:title=" ">
<path fill="none" stroke="#63b8ff" d="M749.47,-531.7C714.01,-496.22 663.28,-432.58 697,-385 716.33,-357.72 750.18,-343.75 781.6,-336.64"/>
<polygon fill="#63b8ff" stroke="#63b8ff" points="747.17,-534.35 756.77,-538.83 752.06,-529.34 747.17,-534.35"/>
</a>
</g>
</g>
<!-- Node21 -->
<g id="Node000021" class="node">
<title>Node21</title>
<g id="a_Node000021"><a xlink:href="sparsity__impl_8h.html" target="_top" xlink:title=" ">
<polygon fill="white" stroke="#666666" points="852,-426 706,-426 706,-385 852,-385 852,-426"/>
<text text-anchor="start" x="714" y="-414" font-family="Helvetica,sans-Serif" font-size="10.00">/home/runner/work/realm</text>
<text text-anchor="start" x="714" y="-403" font-family="Helvetica,sans-Serif" font-size="10.00">/realm/realm&#45;src/src/realm</text>
<text text-anchor="middle" x="779" y="-392" font-family="Helvetica,sans-Serif" font-size="10.00">/deppart/sparsity_impl.h</text>
</a>
</g>
</g>
<!-- Node1&#45;&gt;Node21 -->
<g id="edge24_Node000001_Node000021" class="edge">
<title>Node1&#45;&gt;Node21</title>
<g id="a_edge24_Node000001_Node000021"><a xlink:title=" ">
<path fill="none" stroke="#63b8ff" d="M779,-528.58C779,-498.36 779,-452.53 779,-426.47"/>
<polygon fill="#63b8ff" stroke="#63b8ff" points="775.5,-528.94 779,-538.94 782.5,-528.94 775.5,-528.94"/>
</a>
</g>
</g>
<!-- Node22 -->
<g id="Node000022" class="node">
<title>Node22</title>
<g id="a_Node000022"><a xlink:href="indexspace_8h.html" target="_top" xlink:title=" ">
<polygon fill="white" stroke="#666666" points="1142,-503 996,-503 996,-462 1142,-462 1142,-503"/>
<text text-anchor="start" x="1004" y="-491" font-family="Helvetica,sans-Serif" font-size="10.00">/home/runner/work/realm</text>
<text text-anchor="start" x="1004" y="-480" font-family="Helvetica,sans-Serif" font-size="10.00">/realm/realm&#45;src/src/realm</text>
<text text-anchor="middle" x="1069" y="-469" font-family="Helvetica,sans-Serif" font-size="10.00">/indexspace.h</text>
</a>
</g>
</g>
<!-- Node1&#45;&gt;Node22 -->
<g id="edge26_Node000001_Node000022" class="edge">
<title>Node1&#45;&gt;Node22</title>
<g id="a_edge26_Node000001_Node000022"><a xlink:title=" ">
<path fill="none" stroke="#63b8ff" d="M861.89,-537.06C904.14,-526.14 955.06,-512.97 995.84,-502.42"/>
<polygon fill="#63b8ff" stroke="#63b8ff" points="860.98,-533.68 852.18,-539.57 862.74,-540.46 860.98,-533.68"/>
</a>
</g>
</g>
<!-- Node3 -->
<g id="Node000003" class="node">
<title>Node3</title>
<g id="a_Node000003"><a xlink:href="byfield_8h.html" target="_top" xlink:title=" ">
<polygon fill="white" stroke="#666666" points="1092,-272 946,-272 946,-231 1092,-231 1092,-272"/>
<text text-anchor="start" x="954" y="-260" font-family="Helvetica,sans-Serif" font-size="10.00">/home/runner/work/realm</text>
<text text-anchor="start" x="954" y="-249" font-family="Helvetica,sans-Serif" font-size="10.00">/realm/realm&#45;src/src/realm</text>
<text text-anchor="middle" x="1019" y="-238" font-family="Helvetica,sans-Serif" font-size="10.00">/deppart/byfield.h</text>
</a>
</g>
</g>
<!-- Node2&#45;&gt;Node3 -->
<g id="edge2_Node000002_Node000003" class="edge">
<title>Node2&#45;&gt;Node3</title>
<g id="a_edge2_Node000002_Node000003"><a xlink:title=" ">
<path fill="none" stroke="#63b8ff" d="M906.99,-303.72C929.32,-293.51 955.08,-281.73 976.27,-272.04"/>
<polygon fill="#63b8ff" stroke="#63b8ff" points="905.3,-300.65 897.66,-307.99 908.21,-307.01 905.3,-300.65"/>
</a>
</g>
</g>
<!-- Node4 -->
<g id="Node000004" class="node">
<title>Node4</title>
<g id="a_Node000004"><a xlink:href="image_8h.html" target="_top" xlink:title=" ">
<polygon fill="white" stroke="#666666" points="600,-272 454,-272 454,-231 600,-231 600,-272"/>
<text text-anchor="start" x="462" y="-260" font-family="Helvetica,sans-Serif" font-size="10.00">/home/runner/work/realm</text>
<text text-anchor="start" x="462" y="-249" font-family="Helvetica,sans-Serif" font-size="10.00">/realm/realm&#45;src/src/realm</text>
<text text-anchor="middle" x="527" y="-238" font-family="Helvetica,sans-Serif" font-size="10.00">/deppart/image.h</text>
</a>
</g>
</g>
<!-- Node2&#45;&gt;Node4 -->
<g id="edge3_Node000002_Node000004" class="edge">
<title>Node2&#45;&gt;Node4</title>
<g id="a_edge3_Node000002_Node000004"><a xlink:title=" ">
<path fill="none" stroke="#63b8ff" d="M771.79,-308.98C724.1,-298.3 663.15,-284.55 609,-272 606.15,-271.34 603.24,-270.66 600.31,-269.98"/>
<polygon fill="#63b8ff" stroke="#63b8ff" points="771.23,-312.44 781.75,-311.21 772.76,-305.61 771.23,-312.44"/>
</a>
</g>
</g>
<!-- Node5 -->
<g id="Node000005" class="node">
<title>Node5</title>
<g id="a_Node000005"><a xlink:href="preimage_8h.html" target="_top" xlink:title=" ">
<polygon fill="white" stroke="#666666" points="764,-272 618,-272 618,-231 764,-231 764,-272"/>
<text text-anchor="start" x="626" y="-260" font-family="Helvetica,sans-Serif" font-size="10.00">/home/runner/work/realm</text>
<text text-anchor="start" x="626" y="-249" font-family="Helvetica,sans-Serif" font-size="10.00">/realm/realm&#45;src/src/realm</text>
<text text-anchor="middle" x="691" y="-238" font-family="Helvetica,sans-Serif" font-size="10.00">/deppart/preimage.h</text>
</a>
</g>
</g>
<!-- Node2&#45;&gt;Node5 -->
<g id="edge4_Node000002_Node000005" class="edge">
<title>Node2&#45;&gt;Node5</title>
<g id="a_edge4_Node000002_Node000005"><a xlink:title=" ">
<path fill="none" stroke="#63b8ff" d="M803.01,-303.72C780.68,-293.51 754.92,-281.73 733.73,-272.04"/>
<polygon fill="#63b8ff" stroke="#63b8ff" points="801.79,-307.01 812.34,-307.99 804.7,-300.65 801.79,-307.01"/>
</a>
</g>
</g>
<!-- Node6 -->
<g id="Node000006" class="node">
<title>Node6</title>
<g id="a_Node000006"><a xlink:href="setops_8h.html" target="_top" xlink:title=" ">
<polygon fill="white" stroke="#666666" points="928,-272 782,-272 782,-231 928,-231 928,-272"/>
<text text-anchor="start" x="790" y="-260" font-family="Helvetica,sans-Serif" font-size="10.00">/home/runner/work/realm</text>
<text text-anchor="start" x="790" y="-249" font-family="Helvetica,sans-Serif" font-size="10.00">/realm/realm&#45;src/src/realm</text>
<text text-anchor="middle" x="855" y="-238" font-family="Helvetica,sans-Serif" font-size="10.00">/deppart/setops.h</text>
</a>
</g>
</g>
<!-- Node2&#45;&gt;Node6 -->
<g id="edge5_Node000002_Node000006" class="edge">
<title>Node2&#45;&gt;Node6</title>
<g id="a_edge5_Node000002_Node000006"><a xlink:title=" ">
<path fill="none" stroke="#63b8ff" d="M855,-297.69C855,-289.08 855,-279.9 855,-272.07"/>
<polygon fill="#63b8ff" stroke="#63b8ff" points="851.5,-297.79 855,-307.79 858.5,-297.79 851.5,-297.79"/>
</a>
</g>
</g>
<!-- Node7 -->
<g id="Node000007" class="node">
<title>Node7</title>
<g id="a_Node000007"><a xlink:href="runtime__impl_8h.html" target="_top" xlink:title=" ">
<polygon fill="white" stroke="#666666" points="1294,-272 1148,-272 1148,-231 1294,-231 1294,-272"/>
<text text-anchor="start" x="1156" y="-260" font-family="Helvetica,sans-Serif" font-size="10.00">/home/runner/work/realm</text>
<text text-anchor="start" x="1156" y="-249" font-family="Helvetica,sans-Serif" font-size="10.00">/realm/realm&#45;src/src/realm</text>
<text text-anchor="middle" x="1221" y="-238" font-family="Helvetica,sans-Serif" font-size="10.00">/runtime_impl.h</text>
</a>
</g>
</g>
<!-- Node2&#45;&gt;Node7 -->
<g id="edge6_Node000002_Node000007" class="edge">
<title>Node2&#45;&gt;Node7</title>
<g id="a_edge6_Node000002_Node000007"><a xlink:title=" ">
<path fill="none" stroke="#63b8ff" d="M938.12,-310.47C1001.3,-297.52 1087.38,-279.88 1147.94,-267.47"/>
<polygon fill="#63b8ff" stroke="#63b8ff" points="937.28,-307.07 928.19,-312.5 938.68,-313.92 937.28,-307.07"/>
</a>
</g>
</g>
<!-- Node8 -->
<g id="Node000008" class="node">
<title>Node8</title>
<g id="a_Node000008"><a xlink:href="proc__impl_8h.html" target="_top" xlink:title=" ">
<polygon fill="white" stroke="#666666" points="398,-195 252,-195 252,-154 398,-154 398,-195"/>
<text text-anchor="start" x="260" y="-183" font-family="Helvetica,sans-Serif" font-size="10.00">/home/runner/work/realm</text>
<text text-anchor="start" x="260" y="-172" font-family="Helvetica,sans-Serif" font-size="10.00">/realm/realm&#45;src/src/realm</text>
<text text-anchor="middle" x="325" y="-161" font-family="Helvetica,sans-Serif" font-size="10.00">/proc_impl.h</text>
</a>
</g>
</g>
<!-- Node7&#45;&gt;Node8 -->
<g id="edge7_Node000007_Node000008" class="edge">
<title>Node7&#45;&gt;Node8</title>
<g id="a_edge7_Node000007_Node000008"><a xlink:title=" ">
<path fill="none" stroke="#63b8ff" d="M1137.63,-235.96C1125.37,-234.11 1112.87,-232.39 1101,-231 843.59,-200.94 536.11,-184.76 398.22,-178.54"/>
<polygon fill="#63b8ff" stroke="#63b8ff" points="1137.43,-239.48 1147.85,-237.54 1138.5,-232.56 1137.43,-239.48"/>
</a>
</g>
</g>
<!-- Node14 -->
<g id="Node000014" class="node">
<title>Node14</title>
<g id="a_Node000014"><a xlink:href="channel_8h.html" target="_top" xlink:title=" ">
<polygon fill="white" stroke="#666666" points="1460,-195 1314,-195 1314,-154 1460,-154 1460,-195"/>
<text text-anchor="start" x="1322" y="-183" font-family="Helvetica,sans-Serif" font-size="10.00">/home/runner/work/realm</text>
<text text-anchor="start" x="1322" y="-172" font-family="Helvetica,sans-Serif" font-size="10.00">/realm/realm&#45;src/src/realm</text>
<text text-anchor="middle" x="1387" y="-161" font-family="Helvetica,sans-Serif" font-size="10.00">/transfer/channel.h</text>
</a>
</g>
</g>
<!-- Node7&#45;&gt;Node14 -->
<g id="edge13_Node000007_Node000014" class="edge">
<title>Node7&#45;&gt;Node14</title>
<g id="a_edge13_Node000007_Node000014"><a xlink:title=" ">
<path fill="none" stroke="#63b8ff" d="M1273.33,-226.86C1295.99,-216.62 1322.21,-204.77 1343.75,-195.04"/>
<polygon fill="#63b8ff" stroke="#63b8ff" points="1271.85,-223.68 1264.18,-230.99 1274.74,-230.06 1271.85,-223.68"/>
</a>
</g>
</g>
<!-- Node18 -->
<g id="Node000018" class="node">
<title>Node18</title>
<g id="a_Node000018"><a xlink:href="lowlevel__dma_8h.html" target="_top" xlink:title=" ">
<polygon fill="white" stroke="#666666" points="1294,-118 1148,-118 1148,-77 1294,-77 1294,-118"/>
<text text-anchor="start" x="1156" y="-106" font-family="Helvetica,sans-Serif" font-size="10.00">/home/runner/work/realm</text>
<text text-anchor="start" x="1156" y="-95" font-family="Helvetica,sans-Serif" font-size="10.00">/realm/realm&#45;src/src/realm</text>
<text text-anchor="middle" x="1221" y="-84" font-family="Helvetica,sans-Serif" font-size="10.00">/transfer/lowlevel_dma.h</text>
</a>
</g>
</g>
<!-- Node7&#45;&gt;Node18 -->
<g id="edge23_Node000007_Node000018" class="edge">
<title>Node7&#45;&gt;Node18</title>
<g id="a_edge23_Node000007_Node000018"><a xlink:title=" ">
<path fill="none" stroke="#63b8ff" d="M1221,-220.58C1221,-190.36 1221,-144.53 1221,-118.47"/>
<polygon fill="#63b8ff" stroke="#63b8ff" points="1217.5,-220.94 1221,-230.94 1224.5,-220.94 1217.5,-220.94"/>
</a>
</g>
</g>
<!-- Node9 -->
<g id="Node000009" class="node">
<title>Node9</title>
<g id="a_Node000009"><a xlink:href="cuda__internal_8h.html" target="_top" xlink:title=" ">
<polygon fill="white" stroke="#666666" points="646,-118 500,-118 500,-77 646,-77 646,-118"/>
<text text-anchor="start" x="508" y="-106" font-family="Helvetica,sans-Serif" font-size="10.00">/home/runner/work/realm</text>
<text text-anchor="start" x="508" y="-95" font-family="Helvetica,sans-Serif" font-size="10.00">/realm/realm&#45;src/src/realm</text>
<text text-anchor="middle" x="573" y="-84" font-family="Helvetica,sans-Serif" font-size="10.00">/cuda/cuda_internal.h</text>
</a>
</g>
</g>
<!-- Node8&#45;&gt;Node9 -->
<g id="edge8_Node000008_Node000009" class="edge">
<title>Node8&#45;&gt;Node9</title>
<g id="a_edge8_Node000008_Node000009"><a xlink:title=" ">
<path fill="none" stroke="#63b8ff" d="M399.14,-151.08C433.89,-140.57 474.91,-128.16 508.38,-118.04"/>
<polygon fill="#63b8ff" stroke="#63b8ff" points="398.07,-147.75 389.51,-153.99 400.1,-154.45 398.07,-147.75"/>
</a>
</g>
</g>
<!-- Node10 -->
<g id="Node000010" class="node">
<title>Node10</title>
<g id="a_Node000010"><a xlink:href="hip__internal_8h.html" target="_top" xlink:title=" ">
<polygon fill="white" stroke="#666666" points="1130,-118 984,-118 984,-77 1130,-77 1130,-118"/>
<text text-anchor="start" x="992" y="-106" font-family="Helvetica,sans-Serif" font-size="10.00">/home/runner/work/realm</text>
<text text-anchor="start" x="992" y="-95" font-family="Helvetica,sans-Serif" font-size="10.00">/realm/realm&#45;src/src/realm</text>
<text text-anchor="middle" x="1057" y="-84" font-family="Helvetica,sans-Serif" font-size="10.00">/hip/hip_internal.h</text>
</a>
</g>
</g>
<!-- Node8&#45;&gt;Node10 -->
<g id="edge9_Node000008_Node000010" class="edge">
<title>Node8&#45;&gt;Node10</title>
<g id="a_edge9_Node000008_Node000010"><a xlink:title=" ">
<path fill="none" stroke="#63b8ff" d="M408.33,-164.96C552.73,-150.17 847.08,-120.01 983.97,-105.98"/>
<polygon fill="#63b8ff" stroke="#63b8ff" points="407.79,-161.5 398.2,-166 408.51,-168.46 407.79,-161.5"/>
</a>
</g>
</g>
<!-- Node11 -->
<g id="Node000011" class="node">
<title>Node11</title>
<g id="a_Node000011"><a xlink:href="kokkos__interop_8h.html" target="_top" xlink:title=" ">
<polygon fill="white" stroke="#666666" points="146,-118 0,-118 0,-77 146,-77 146,-118"/>
<text text-anchor="start" x="8" y="-106" font-family="Helvetica,sans-Serif" font-size="10.00">/home/runner/work/realm</text>
<text text-anchor="start" x="8" y="-95" font-family="Helvetica,sans-Serif" font-size="10.00">/realm/realm&#45;src/src/realm</text>
<text text-anchor="middle" x="73" y="-84" font-family="Helvetica,sans-Serif" font-size="10.00">/kokkos_interop.h</text>
</a>
</g>
</g>
<!-- Node8&#45;&gt;Node11 -->
<g id="edge10_Node000008_Node000011" class="edge">
<title>Node8&#45;&gt;Node11</title>
<g id="a_edge10_Node000008_Node000011"><a xlink:title=" ">
<path fill="none" stroke="#63b8ff" d="M249.67,-151.08C214.35,-140.57 172.67,-128.16 138.66,-118.04"/>
<polygon fill="#63b8ff" stroke="#63b8ff" points="248.86,-154.49 259.45,-153.99 250.86,-147.78 248.86,-154.49"/>
</a>
</g>
</g>
<!-- Node12 -->
<g id="Node000012" class="node">
<title>Node12</title>
<g id="a_Node000012"><a xlink:href="openmp__internal_8h.html" target="_top" xlink:title=" ">
<polygon fill="white" stroke="#666666" points="318,-118 164,-118 164,-77 318,-77 318,-118"/>
<text text-anchor="start" x="172" y="-106" font-family="Helvetica,sans-Serif" font-size="10.00">/home/runner/work/realm</text>
<text text-anchor="start" x="172" y="-95" font-family="Helvetica,sans-Serif" font-size="10.00">/realm/realm&#45;src/src/realm</text>
<text text-anchor="middle" x="241" y="-84" font-family="Helvetica,sans-Serif" font-size="10.00">/openmp/openmp_internal.h</text>
</a>
</g>
</g>
<!-- Node8&#45;&gt;Node12 -->
<g id="edge11_Node000008_Node000012" class="edge">
<title>Node8&#45;&gt;Node12</title>
<g id="a_edge11_Node000008_Node000012"><a xlink:title=" ">
<path fill="none" stroke="#63b8ff" d="M295.4,-147.07C284.71,-137.52 272.84,-126.93 262.92,-118.07"/>
<polygon fill="#63b8ff" stroke="#63b8ff" points="293.14,-149.75 302.93,-153.79 297.8,-144.52 293.14,-149.75"/>
</a>
</g>
</g>
<!-- Node13 -->
<g id="Node000013" class="node">
<title>Node13</title>
<g id="a_Node000013"><a xlink:href="python__internal_8h.html" target="_top" xlink:title=" ">
<polygon fill="white" stroke="#666666" points="482,-118 336,-118 336,-77 482,-77 482,-118"/>
<text text-anchor="start" x="344" y="-106" font-family="Helvetica,sans-Serif" font-size="10.00">/home/runner/work/realm</text>
<text text-anchor="start" x="344" y="-95" font-family="Helvetica,sans-Serif" font-size="10.00">/realm/realm&#45;src/src/realm</text>
<text text-anchor="middle" x="409" y="-84" font-family="Helvetica,sans-Serif" font-size="10.00">/python/python_internal.h</text>
</a>
</g>
</g>
<!-- Node8&#45;&gt;Node13 -->
<g id="edge12_Node000008_Node000013" class="edge">
<title>Node8&#45;&gt;Node13</title>
<g id="a_edge12_Node000008_Node000013"><a xlink:title=" ">
<path fill="none" stroke="#63b8ff" d="M354.6,-147.07C365.29,-137.52 377.16,-126.93 387.08,-118.07"/>
<polygon fill="#63b8ff" stroke="#63b8ff" points="352.2,-144.52 347.07,-153.79 356.86,-149.75 352.2,-144.52"/>
</a>
</g>
</g>
<!-- Node14&#45;&gt;Node9 -->
<g id="edge14_Node000014_Node000009" class="edge">
<title>Node14&#45;&gt;Node9</title>
<g id="a_edge14_Node000014_Node000009"><a xlink:title=" ">
<path fill="none" stroke="#63b8ff" d="M1303.43,-165.8C1143.63,-151.08 797.16,-119.15 646,-105.23"/>
<polygon fill="#63b8ff" stroke="#63b8ff" points="1303.41,-169.31 1313.69,-166.75 1304.05,-162.34 1303.41,-169.31"/>
</a>
</g>
</g>
<!-- Node14&#45;&gt;Node10 -->
<g id="edge16_Node000014_Node000010" class="edge">
<title>Node14&#45;&gt;Node10</title>
<g id="a_edge16_Node000014_Node000010"><a xlink:title=" ">
<path fill="none" stroke="#63b8ff" d="M1304.2,-155.26C1255.97,-144.56 1194,-130.69 1139,-118 1136.15,-117.34 1133.24,-116.67 1130.31,-115.98"/>
<polygon fill="#63b8ff" stroke="#63b8ff" points="1303.44,-158.68 1313.96,-157.42 1304.96,-151.84 1303.44,-158.68"/>
</a>
</g>
</g>
<!-- Node15 -->
<g id="Node000015" class="node">
<title>Node15</title>
<g id="a_Node000015"><a xlink:href="hdf5__internal_8h.html" target="_top" xlink:title=" ">
<polygon fill="white" stroke="#666666" points="1431,-41 1285,-41 1285,0 1431,0 1431,-41"/>
<text text-anchor="start" x="1293" y="-29" font-family="Helvetica,sans-Serif" font-size="10.00">/home/runner/work/realm</text>
<text text-anchor="start" x="1293" y="-18" font-family="Helvetica,sans-Serif" font-size="10.00">/realm/realm&#45;src/src/realm</text>
<text text-anchor="middle" x="1358" y="-7" font-family="Helvetica,sans-Serif" font-size="10.00">/hdf5/hdf5_internal.h</text>
</a>
</g>
</g>
<!-- Node14&#45;&gt;Node15 -->
<g id="edge15_Node000014_Node000015" class="edge">
<title>Node14&#45;&gt;Node15</title>
<g id="a_edge15_Node000014_Node000015"><a xlink:title=" ">
<path fill="none" stroke="#63b8ff" d="M1446.88,-148.47C1458.92,-140.55 1470.02,-130.51 1477,-118 1485.88,-102.09 1486.79,-92.37 1477,-77 1466.34,-60.27 1449.19,-48.51 1431.18,-40.26"/>
<polygon fill="#63b8ff" stroke="#63b8ff" points="1444.72,-145.68 1437.98,-153.86 1448.35,-151.67 1444.72,-145.68"/>
</a>
</g>
</g>
<!-- Node16 -->
<g id="Node000016" class="node">
<title>Node16</title>
<g id="a_Node000016"><a xlink:href="addrsplit__channel_8h.html" target="_top" xlink:title=" ">
<polygon fill="white" stroke="#666666" points="1865,-118 1709,-118 1709,-77 1865,-77 1865,-118"/>
<text text-anchor="start" x="1717" y="-106" font-family="Helvetica,sans-Serif" font-size="10.00">/home/runner/work/realm</text>
<text text-anchor="start" x="1717" y="-95" font-family="Helvetica,sans-Serif" font-size="10.00">/realm/realm&#45;src/src/realm</text>
<text text-anchor="middle" x="1787" y="-84" font-family="Helvetica,sans-Serif" font-size="10.00">/transfer/addrsplit_channel.h</text>
</a>
</g>
</g>
<!-- Node14&#45;&gt;Node16 -->
<g id="edge17_Node000014_Node000016" class="edge">
<title>Node14&#45;&gt;Node16</title>
<g id="a_edge17_Node000014_Node000016"><a xlink:title=" ">
<path fill="none" stroke="#63b8ff" d="M1470.51,-157.84C1540.72,-144.68 1640.35,-126 1708.97,-113.13"/>
<polygon fill="#63b8ff" stroke="#63b8ff" points="1469.55,-154.46 1460.37,-159.74 1470.84,-161.34 1469.55,-154.46"/>
</a>
</g>
</g>
<!-- Node17 -->
<g id="Node000017" class="node">
<title>Node17</title>
<g id="a_Node000017"><a xlink:href="channel__disk_8h.html" target="_top" xlink:title=" ">
<polygon fill="white" stroke="#666666" points="1670,-118 1524,-118 1524,-77 1670,-77 1670,-118"/>
<text text-anchor="start" x="1532" y="-106" font-family="Helvetica,sans-Serif" font-size="10.00">/home/runner/work/realm</text>
<text text-anchor="start" x="1532" y="-95" font-family="Helvetica,sans-Serif" font-size="10.00">/realm/realm&#45;src/src/realm</text>
<text text-anchor="middle" x="1597" y="-84" font-family="Helvetica,sans-Serif" font-size="10.00">/transfer/channel_disk.h</text>
</a>
</g>
</g>
<!-- Node14&#45;&gt;Node17 -->
<g id="edge18_Node000014_Node000017" class="edge">
<title>Node14&#45;&gt;Node17</title>
<g id="a_edge18_Node000014_Node000017"><a xlink:title=" ">
<path fill="none" stroke="#63b8ff" d="M1451.29,-150.54C1480.39,-140.15 1514.43,-127.99 1542.28,-118.04"/>
<polygon fill="#63b8ff" stroke="#63b8ff" points="1449.87,-147.33 1441.63,-153.99 1452.22,-153.92 1449.87,-147.33"/>
</a>
</g>
</g>
<!-- Node14&#45;&gt;Node18 -->
<g id="edge19_Node000014_Node000018" class="edge">
<title>Node14&#45;&gt;Node18</title>
<g id="a_edge19_Node000014_Node000018"><a xlink:title=" ">
<path fill="none" stroke="#63b8ff" d="M1334.67,-149.86C1312.01,-139.62 1285.79,-127.77 1264.25,-118.04"/>
<polygon fill="#63b8ff" stroke="#63b8ff" points="1333.26,-153.06 1343.82,-153.99 1336.15,-146.68 1333.26,-153.06"/>
</a>
</g>
</g>
<!-- Node19 -->
<g id="Node000019" class="node">
<title>Node19</title>
<g id="a_Node000019"><a xlink:href="memcpy__channel_8h.html" target="_top" xlink:title=" ">
<polygon fill="white" stroke="#666666" points="1468,-118 1312,-118 1312,-77 1468,-77 1468,-118"/>
<text text-anchor="start" x="1320" y="-106" font-family="Helvetica,sans-Serif" font-size="10.00">/home/runner/work/realm</text>
<text text-anchor="start" x="1320" y="-95" font-family="Helvetica,sans-Serif" font-size="10.00">/realm/realm&#45;src/src/realm</text>
<text text-anchor="middle" x="1390" y="-84" font-family="Helvetica,sans-Serif" font-size="10.00">/transfer/memcpy_channel.h</text>
</a>
</g>
</g>
<!-- Node14&#45;&gt;Node19 -->
<g id="edge21_Node000014_Node000019" class="edge">
<title>Node14&#45;&gt;Node19</title>
<g id="a_edge21_Node000014_Node000019"><a xlink:title=" ">
<path fill="none" stroke="#63b8ff" d="M1388.19,-143.69C1388.54,-135.08 1388.9,-125.9 1389.22,-118.07"/>
<polygon fill="#63b8ff" stroke="#63b8ff" points="1384.69,-143.66 1387.79,-153.79 1391.69,-143.94 1384.69,-143.66"/>
</a>
</g>
</g>
<!-- Node20 -->
<g id="Node000020" class="node">
<title>Node20</title>
<g id="a_Node000020"><a xlink:href="transfer_8h.html" target="_top" xlink:title=" ">
<polygon fill="white" stroke="#666666" points="2069,-118 1923,-118 1923,-77 2069,-77 2069,-118"/>
<text text-anchor="start" x="1931" y="-106" font-family="Helvetica,sans-Serif" font-size="10.00">/home/runner/work/realm</text>
<text text-anchor="start" x="1931" y="-95" font-family="Helvetica,sans-Serif" font-size="10.00">/realm/realm&#45;src/src/realm</text>
<text text-anchor="middle" x="1996" y="-84" font-family="Helvetica,sans-Serif" font-size="10.00">/transfer/transfer.h</text>
</a>
</g>
</g>
<!-- Node14&#45;&gt;Node20 -->
<g id="edge22_Node000014_Node000020" class="edge">
<title>Node14&#45;&gt;Node20</title>
<g id="a_edge22_Node000014_Node000020"><a xlink:title=" ">
<path fill="none" stroke="#63b8ff" d="M1470.19,-165.17C1567.26,-155.19 1732.52,-137.36 1874,-118 1889.83,-115.83 1906.78,-113.28 1922.86,-110.74"/>
<polygon fill="#63b8ff" stroke="#63b8ff" points="1469.74,-161.7 1460.15,-166.2 1470.45,-168.66 1469.74,-161.7"/>
</a>
</g>
</g>
<!-- Node18&#45;&gt;Node15 -->
<g id="edge20_Node000018_Node000015" class="edge">
<title>Node18&#45;&gt;Node15</title>
<g id="a_edge20_Node000018_Node000015"><a xlink:title=" ">
<path fill="none" stroke="#63b8ff" d="M1265.65,-72.06C1283.93,-62.05 1304.8,-50.63 1322.07,-41.17"/>
<polygon fill="#63b8ff" stroke="#63b8ff" points="1263.73,-69.12 1256.64,-76.99 1267.09,-75.26 1263.73,-69.12"/>
</a>
</g>
</g>
<!-- Node21&#45;&gt;Node2 -->
<g id="edge25_Node000021_Node000002" class="edge">
<title>Node21&#45;&gt;Node2</title>
<g id="a_edge25_Node000021_Node000002"><a xlink:title=" ">
<path fill="none" stroke="#63b8ff" d="M806.35,-377.51C815.87,-368.11 826.37,-357.76 835.17,-349.07"/>
<polygon fill="#63b8ff" stroke="#63b8ff" points="803.63,-375.28 798.97,-384.79 808.54,-380.26 803.63,-375.28"/>
</a>
</g>
</g>
<!-- Node22&#45;&gt;Node2 -->
<g id="edge30_Node000022_Node000002" class="edge">
<title>Node22&#45;&gt;Node2</title>
<g id="a_edge30_Node000022_Node000002"><a xlink:title=" ">
<path fill="none" stroke="#63b8ff" d="M996.5,-458.13C976.2,-449.75 954.83,-439.06 937,-426 907.74,-404.56 882.13,-370.67 867.62,-349.29"/>
<polygon fill="#63b8ff" stroke="#63b8ff" points="995.46,-461.48 1006.04,-461.94 998.05,-454.98 995.46,-461.48"/>
</a>
</g>
</g>
<!-- Node22&#45;&gt;Node9 -->
<g id="edge27_Node000022_Node000009" class="edge">
<title>Node22&#45;&gt;Node9</title>
<g id="a_edge27_Node000022_Node000009"><a xlink:title=" ">
<path fill="none" stroke="#63b8ff" d="M985.73,-479.15C811.81,-471.97 426,-443.23 426,-329.5 426,-329.5 426,-329.5 426,-250.5 426,-188.83 489.31,-142.64 532.83,-118.17"/>
<polygon fill="#63b8ff" stroke="#63b8ff" points="985.73,-482.65 995.87,-479.55 986.01,-475.66 985.73,-482.65"/>
</a>
</g>
</g>
<!-- Node22&#45;&gt;Node10 -->
<g id="edge34_Node000022_Node000010" class="edge">
<title>Node22&#45;&gt;Node10</title>
<g id="a_edge34_Node000022_Node000010"><a xlink:title=" ">
<path fill="none" stroke="#63b8ff" d="M1087.67,-453.25C1092.61,-444.77 1097.53,-435.25 1101,-426 1116.35,-385.07 1120,-373.21 1120,-329.5 1120,-329.5 1120,-329.5 1120,-250.5 1120,-199.65 1089.54,-146.03 1070.98,-118.07"/>
<polygon fill="#63b8ff" stroke="#63b8ff" points="1084.57,-451.62 1082.37,-461.99 1090.55,-455.26 1084.57,-451.62"/>
</a>
</g>
</g>
<!-- Node22&#45;&gt;Node16 -->
<g id="edge46_Node000022_Node000016" class="edge">
<title>Node22&#45;&gt;Node16</title>
<g id="a_edge46_Node000022_Node000016"><a xlink:title=" ">
<path fill="none" stroke="#63b8ff" d="M1152.32,-476.29C1376.91,-461.13 1978,-412.77 1978,-329.5 1978,-329.5 1978,-329.5 1978,-250.5 1978,-182.8 1903.62,-140.4 1847.7,-118.09"/>
<polygon fill="#63b8ff" stroke="#63b8ff" points="1151.98,-472.8 1142.23,-476.96 1152.45,-479.79 1151.98,-472.8"/>
</a>
</g>
</g>
<!-- Node22&#45;&gt;Node20 -->
<g id="edge47_Node000022_Node000020" class="edge">
<title>Node22&#45;&gt;Node20</title>
<g id="a_edge47_Node000022_Node000020"><a xlink:title=" ">
<path fill="none" stroke="#63b8ff" d="M1152.73,-478.11C1315.54,-471 1669.2,-452.95 1788,-426 1895.31,-401.65 2016,-439.54 2016,-329.5 2016,-329.5 2016,-329.5 2016,-250.5 2016,-202.59 2006.11,-146.91 2000.24,-118.07"/>
<polygon fill="#63b8ff" stroke="#63b8ff" points="1152.13,-474.63 1142.29,-478.56 1152.43,-481.62 1152.13,-474.63"/>
</a>
</g>
</g>
<!-- Node22&#45;&gt;Node21 -->
<g id="edge33_Node000022_Node000021" class="edge">
<title>Node22&#45;&gt;Node21</title>
<g id="a_edge33_Node000022_Node000021"><a xlink:title=" ">
<path fill="none" stroke="#63b8ff" d="M986.11,-460.06C943.86,-449.14 892.94,-435.97 852.16,-425.42"/>
<polygon fill="#63b8ff" stroke="#63b8ff" points="985.26,-463.46 995.82,-462.57 987.02,-456.68 985.26,-463.46"/>
</a>
</g>
</g>
<!-- Node23 -->
<g id="Node000023" class="node">
<title>Node23</title>
<g id="a_Node000023"><a xlink:href="inst__helper_8h.html" target="_top" xlink:title=" ">
<polygon fill="white" stroke="#666666" points="1092,-426 946,-426 946,-385 1092,-385 1092,-426"/>
<text text-anchor="start" x="954" y="-414" font-family="Helvetica,sans-Serif" font-size="10.00">/home/runner/work/realm</text>
<text text-anchor="start" x="954" y="-403" font-family="Helvetica,sans-Serif" font-size="10.00">/realm/realm&#45;src/src/realm</text>
<text text-anchor="middle" x="1019" y="-392" font-family="Helvetica,sans-Serif" font-size="10.00">/deppart/inst_helper.h</text>
</a>
</g>
</g>
<!-- Node22&#45;&gt;Node23 -->
<g id="edge28_Node000022_Node000023" class="edge">
<title>Node22&#45;&gt;Node23</title>
<g id="a_edge28_Node000022_Node000023"><a xlink:title=" ">
<path fill="none" stroke="#63b8ff" d="M1050.26,-453.39C1044.2,-444.3 1037.61,-434.41 1032.05,-426.07"/>
<polygon fill="#63b8ff" stroke="#63b8ff" points="1047.4,-455.42 1055.86,-461.79 1053.23,-451.53 1047.4,-455.42"/>
</a>
</g>
</g>
<!-- Node24 -->
<g id="Node000024" class="node">
<title>Node24</title>
<g id="a_Node000024"><a xlink:href="rectlist_8h.html" target="_top" xlink:title=" ">
<polygon fill="white" stroke="#666666" points="682,-349 536,-349 536,-308 682,-308 682,-349"/>
<text text-anchor="start" x="544" y="-337" font-family="Helvetica,sans-Serif" font-size="10.00">/home/runner/work/realm</text>
<text text-anchor="start" x="544" y="-326" font-family="Helvetica,sans-Serif" font-size="10.00">/realm/realm&#45;src/src/realm</text>
<text text-anchor="middle" x="609" y="-315" font-family="Helvetica,sans-Serif" font-size="10.00">/deppart/rectlist.h</text>
</a>
</g>
</g>
<!-- Node22&#45;&gt;Node24 -->
<g id="edge31_Node000022_Node000024" class="edge">
<title>Node22&#45;&gt;Node24</title>
<g id="a_edge31_Node000022_Node000024"><a xlink:title=" ">
<path fill="none" stroke="#63b8ff" d="M985.91,-465.78C955.22,-457.33 921.3,-444.68 894,-426 874.7,-412.79 880.88,-397.32 861,-385 831.54,-366.74 745.61,-350.27 682.25,-340.11"/>
<polygon fill="#63b8ff" stroke="#63b8ff" points="985.18,-469.21 995.75,-468.38 986.97,-462.44 985.18,-469.21"/>
</a>
</g>
</g>
<!-- Node25 -->
<g id="Node000025" class="node">
<title>Node25</title>
<g id="a_Node000025"><a xlink:href="idx__impl_8h.html" target="_top" xlink:title=" ">
<polygon fill="white" stroke="#666666" points="1496,-426 1350,-426 1350,-385 1496,-385 1496,-426"/>
<text text-anchor="start" x="1358" y="-414" font-family="Helvetica,sans-Serif" font-size="10.00">/home/runner/work/realm</text>
<text text-anchor="start" x="1358" y="-403" font-family="Helvetica,sans-Serif" font-size="10.00">/realm/realm&#45;src/src/realm</text>
<text text-anchor="middle" x="1423" y="-392" font-family="Helvetica,sans-Serif" font-size="10.00">/idx_impl.h</text>
</a>
</g>
</g>
<!-- Node22&#45;&gt;Node25 -->
<g id="edge35_Node000022_Node000025" class="edge">
<title>Node22&#45;&gt;Node25</title>
<g id="a_edge35_Node000022_Node000025"><a xlink:title=" ">
<path fill="none" stroke="#63b8ff" d="M1152.14,-464.57C1204.86,-453.74 1274.48,-439.29 1336,-426 1340.54,-425.02 1345.21,-424 1349.92,-422.97"/>
<polygon fill="#63b8ff" stroke="#63b8ff" points="1151.25,-461.17 1142.16,-466.61 1152.66,-468.03 1151.25,-461.17"/>
</a>
</g>
</g>
<!-- Node26 -->
<g id="Node000026" class="node">
<title>Node26</title>
<g id="a_Node000026"><a xlink:href="inst__layout_8h.html" target="_top" xlink:title=" ">
<polygon fill="white" stroke="#666666" points="1622,-349 1476,-349 1476,-308 1622,-308 1622,-349"/>
<text text-anchor="start" x="1484" y="-337" font-family="Helvetica,sans-Serif" font-size="10.00">/home/runner/work/realm</text>
<text text-anchor="start" x="1484" y="-326" font-family="Helvetica,sans-Serif" font-size="10.00">/realm/realm&#45;src/src/realm</text>
<text text-anchor="middle" x="1549" y="-315" font-family="Helvetica,sans-Serif" font-size="10.00">/inst_layout.h</text>
</a>
</g>
</g>
<!-- Node22&#45;&gt;Node26 -->
<g id="edge36_Node000022_Node000026" class="edge">
<title>Node22&#45;&gt;Node26</title>
<g id="a_edge36_Node000022_Node000026"><a xlink:title=" ">
<path fill="none" stroke="#63b8ff" d="M1152.3,-473.81C1199.1,-466.62 1257.14,-452.76 1303,-426 1324.46,-413.48 1319.72,-397.82 1341,-385 1381.98,-360.32 1433.98,-346.44 1475.74,-338.74"/>
<polygon fill="#63b8ff" stroke="#63b8ff" points="1151.57,-470.38 1142.18,-475.28 1152.58,-477.3 1151.57,-470.38"/>
</a>
</g>
</g>
<!-- Node31 -->
<g id="Node000031" class="node">
<title>Node31</title>
<g id="a_Node000031"><a xlink:href="subgraph_8h.html" target="_top" xlink:title=" ">
<polygon fill="white" stroke="#666666" points="1294,-426 1148,-426 1148,-385 1294,-385 1294,-426"/>
<text text-anchor="start" x="1156" y="-414" font-family="Helvetica,sans-Serif" font-size="10.00">/home/runner/work/realm</text>
<text text-anchor="start" x="1156" y="-403" font-family="Helvetica,sans-Serif" font-size="10.00">/realm/realm&#45;src/src/realm</text>
<text text-anchor="middle" x="1221" y="-392" font-family="Helvetica,sans-Serif" font-size="10.00">/subgraph.h</text>
</a>
</g>
</g>
<!-- Node22&#45;&gt;Node31 -->
<g id="edge43_Node000022_Node000031" class="edge">
<title>Node22&#45;&gt;Node31</title>
<g id="a_edge43_Node000022_Node000031"><a xlink:title=" ">
<path fill="none" stroke="#63b8ff" d="M1117.74,-457.45C1138.31,-447.3 1161.93,-435.64 1181.39,-426.04"/>
<polygon fill="#63b8ff" stroke="#63b8ff" points="1115.96,-454.43 1108.54,-461.99 1119.06,-460.7 1115.96,-454.43"/>
</a>
</g>
</g>
<!-- Node23&#45;&gt;Node2 -->
<g id="edge29_Node000023_Node000002" class="edge">
<title>Node23&#45;&gt;Node2</title>
<g id="a_edge29_Node000023_Node000002"><a xlink:title=" ">
<path fill="none" stroke="#63b8ff" d="M967.01,-380.72C944.68,-370.51 918.92,-358.73 897.73,-349.04"/>
<polygon fill="#63b8ff" stroke="#63b8ff" points="965.79,-384.01 976.34,-384.99 968.7,-377.65 965.79,-384.01"/>
</a>
</g>
</g>
<!-- Node24&#45;&gt;Node4 -->
<g id="edge32_Node000024_Node000004" class="edge">
<title>Node24&#45;&gt;Node4</title>
<g id="a_edge32_Node000024_Node000004"><a xlink:title=" ">
<path fill="none" stroke="#63b8ff" d="M579.8,-300.79C569.44,-291.32 557.99,-280.84 548.4,-272.07"/>
<polygon fill="#63b8ff" stroke="#63b8ff" points="577.71,-303.63 587.46,-307.79 582.44,-298.46 577.71,-303.63"/>
</a>
</g>
</g>
<!-- Node27 -->
<g id="Node000027" class="node">
<title>Node27</title>
<g id="a_Node000027"><a xlink:href="cuda__access_8h.html" target="_top" xlink:title=" ">
<polygon fill="white" stroke="#666666" points="1622,-272 1476,-272 1476,-231 1622,-231 1622,-272"/>
<text text-anchor="start" x="1484" y="-260" font-family="Helvetica,sans-Serif" font-size="10.00">/home/runner/work/realm</text>
<text text-anchor="start" x="1484" y="-249" font-family="Helvetica,sans-Serif" font-size="10.00">/realm/realm&#45;src/src/realm</text>
<text text-anchor="middle" x="1549" y="-238" font-family="Helvetica,sans-Serif" font-size="10.00">/cuda/cuda_access.h</text>
</a>
</g>
</g>
<!-- Node26&#45;&gt;Node27 -->
<g id="edge37_Node000026_Node000027" class="edge">
<title>Node26&#45;&gt;Node27</title>
<g id="a_edge37_Node000026_Node000027"><a xlink:title=" ">
<path fill="none" stroke="#63b8ff" d="M1549,-297.69C1549,-289.08 1549,-279.9 1549,-272.07"/>
<polygon fill="#63b8ff" stroke="#63b8ff" points="1545.5,-297.79 1549,-307.79 1552.5,-297.79 1545.5,-297.79"/>
</a>
</g>
</g>
<!-- Node28 -->
<g id="Node000028" class="node">
<title>Node28</title>
<g id="a_Node000028"><a xlink:href="hdf5__access_8h.html" target="_top" xlink:title=" ">
<polygon fill="white" stroke="#666666" points="1786,-272 1640,-272 1640,-231 1786,-231 1786,-272"/>
<text text-anchor="start" x="1648" y="-260" font-family="Helvetica,sans-Serif" font-size="10.00">/home/runner/work/realm</text>
<text text-anchor="start" x="1648" y="-249" font-family="Helvetica,sans-Serif" font-size="10.00">/realm/realm&#45;src/src/realm</text>
<text text-anchor="middle" x="1713" y="-238" font-family="Helvetica,sans-Serif" font-size="10.00">/hdf5/hdf5_access.h</text>
</a>
</g>
</g>
<!-- Node26&#45;&gt;Node28 -->
<g id="edge38_Node000026_Node000028" class="edge">
<title>Node26&#45;&gt;Node28</title>
<g id="a_edge38_Node000026_Node000028"><a xlink:title=" ">
<path fill="none" stroke="#63b8ff" d="M1600.99,-303.72C1623.32,-293.51 1649.08,-281.73 1670.27,-272.04"/>
<polygon fill="#63b8ff" stroke="#63b8ff" points="1599.3,-300.65 1591.66,-307.99 1602.21,-307.01 1599.3,-300.65"/>
</a>
</g>
</g>
<!-- Node29 -->
<g id="Node000029" class="node">
<title>Node29</title>
<g id="a_Node000029"><a xlink:href="hip__access_8h.html" target="_top" xlink:title=" ">
<polygon fill="white" stroke="#666666" points="1950,-272 1804,-272 1804,-231 1950,-231 1950,-272"/>
<text text-anchor="start" x="1812" y="-260" font-family="Helvetica,sans-Serif" font-size="10.00">/home/runner/work/realm</text>
<text text-anchor="start" x="1812" y="-249" font-family="Helvetica,sans-Serif" font-size="10.00">/realm/realm&#45;src/src/realm</text>
<text text-anchor="middle" x="1877" y="-238" font-family="Helvetica,sans-Serif" font-size="10.00">/hip/hip_access.h</text>
</a>
</g>
</g>
<!-- Node26&#45;&gt;Node29 -->
<g id="edge39_Node000026_Node000029" class="edge">
<title>Node26&#45;&gt;Node29</title>
<g id="a_edge39_Node000026_Node000029"><a xlink:title=" ">
<path fill="none" stroke="#63b8ff" d="M1632.21,-308.98C1679.9,-298.3 1740.85,-284.55 1795,-272 1797.85,-271.34 1800.76,-270.66 1803.69,-269.98"/>
<polygon fill="#63b8ff" stroke="#63b8ff" points="1631.24,-305.61 1622.25,-311.21 1632.77,-312.44 1631.24,-305.61"/>
</a>
</g>
</g>
<!-- Node30 -->
<g id="Node000030" class="node">
<title>Node30</title>
<g id="a_Node000030"><a xlink:href="inst__impl_8h.html" target="_top" xlink:title=" ">
<polygon fill="white" stroke="#666666" points="1458,-272 1312,-272 1312,-231 1458,-231 1458,-272"/>
<text text-anchor="start" x="1320" y="-260" font-family="Helvetica,sans-Serif" font-size="10.00">/home/runner/work/realm</text>
<text text-anchor="start" x="1320" y="-249" font-family="Helvetica,sans-Serif" font-size="10.00">/realm/realm&#45;src/src/realm</text>
<text text-anchor="middle" x="1385" y="-238" font-family="Helvetica,sans-Serif" font-size="10.00">/inst_impl.h</text>
</a>
</g>
</g>
<!-- Node26&#45;&gt;Node30 -->
<g id="edge40_Node000026_Node000030" class="edge">
<title>Node26&#45;&gt;Node30</title>
<g id="a_edge40_Node000026_Node000030"><a xlink:title=" ">
<path fill="none" stroke="#63b8ff" d="M1497.01,-303.72C1474.68,-293.51 1448.92,-281.73 1427.73,-272.04"/>
<polygon fill="#63b8ff" stroke="#63b8ff" points="1495.79,-307.01 1506.34,-307.99 1498.7,-300.65 1495.79,-307.01"/>
</a>
</g>
</g>
<!-- Node30&#45;&gt;Node14 -->
<g id="edge41_Node000030_Node000014" class="edge">
<title>Node30&#45;&gt;Node14</title>
<g id="a_edge41_Node000030_Node000014"><a xlink:title=" ">
<path fill="none" stroke="#63b8ff" d="M1385.79,-220.69C1386.02,-212.08 1386.27,-202.9 1386.48,-195.07"/>
<polygon fill="#63b8ff" stroke="#63b8ff" points="1382.29,-220.7 1385.53,-230.79 1389.29,-220.89 1382.29,-220.7"/>
</a>
</g>
</g>
<!-- Node30&#45;&gt;Node18 -->
<g id="edge42_Node000030_Node000018" class="edge">
<title>Node30&#45;&gt;Node18</title>
<g id="a_edge42_Node000030_Node000018"><a xlink:title=" ">
<path fill="none" stroke="#63b8ff" d="M1344.47,-225.24C1331.35,-216.33 1317.08,-205.83 1305,-195 1278.2,-170.99 1251.68,-138.72 1235.82,-118.27"/>
<polygon fill="#63b8ff" stroke="#63b8ff" points="1342.62,-228.22 1352.88,-230.85 1346.5,-222.4 1342.62,-228.22"/>
</a>
</g>
</g>
<!-- Node32 -->
<g id="Node000032" class="node">
<title>Node32</title>
<g id="a_Node000032"><a xlink:href="subgraph__impl_8h.html" target="_top" xlink:title=" ">
<polygon fill="white" stroke="#666666" points="1294,-349 1148,-349 1148,-308 1294,-308 1294,-349"/>
<text text-anchor="start" x="1156" y="-337" font-family="Helvetica,sans-Serif" font-size="10.00">/home/runner/work/realm</text>
<text text-anchor="start" x="1156" y="-326" font-family="Helvetica,sans-Serif" font-size="10.00">/realm/realm&#45;src/src/realm</text>
<text text-anchor="middle" x="1221" y="-315" font-family="Helvetica,sans-Serif" font-size="10.00">/subgraph_impl.h</text>
</a>
</g>
</g>
<!-- Node31&#45;&gt;Node32 -->
<g id="edge44_Node000031_Node000032" class="edge">
<title>Node31&#45;&gt;Node32</title>
<g id="a_edge44_Node000031_Node000032"><a xlink:title=" ">
<path fill="none" stroke="#63b8ff" d="M1221,-374.69C1221,-366.08 1221,-356.9 1221,-349.07"/>
<polygon fill="#63b8ff" stroke="#63b8ff" points="1217.5,-374.79 1221,-384.79 1224.5,-374.79 1217.5,-374.79"/>
</a>
</g>
</g>
<!-- Node32&#45;&gt;Node7 -->
<g id="edge45_Node000032_Node000007" class="edge">
<title>Node32&#45;&gt;Node7</title>
<g id="a_edge45_Node000032_Node000007"><a xlink:title=" ">
<path fill="none" stroke="#63b8ff" d="M1221,-297.69C1221,-289.08 1221,-279.9 1221,-272.07"/>
<polygon fill="#63b8ff" stroke="#63b8ff" points="1217.5,-297.79 1221,-307.79 1224.5,-297.79 1217.5,-297.79"/>
</a>
</g>
</g>
</g>
</svg>
