<?xml version="1.0" encoding="UTF-8" standalone="no"?>
<!DOCTYPE svg PUBLIC "-//W3C//DTD SVG 1.1//EN"
 "http://www.w3.org/Graphics/SVG/1.1/DTD/svg11.dtd">
<!-- Generated by graphviz version 2.43.0 (0)
 -->
<!-- Title: /home/runner/work/realm/realm/realm&#45;src/src/realm/sparsity.h Pages: 1 -->
<svg width="1921pt" height="665pt"
 viewBox="0.00 0.00 1921.00 665.00" xmlns="http://www.w3.org/2000/svg" xmlns:xlink="http://www.w3.org/1999/xlink">
<g id="graph0" class="graph" transform="scale(1 1) rotate(0) translate(4 661)">
<title>/home/runner/work/realm/realm/realm&#45;src/src/realm/sparsity.h</title>
<!-- Node1 -->
<g id="Node000001" class="node">
<title>Node1</title>
<g id="a_Node000001"><a xlink:title=" ">
<polygon fill="#999999" stroke="#666666" points="525,-657 379,-657 379,-616 525,-616 525,-657"/>
<text text-anchor="start" x="387" y="-645" font-family="Helvetica,sans-Serif" font-size="10.00">/home/runner/work/realm</text>
<text text-anchor="start" x="387" y="-634" font-family="Helvetica,sans-Serif" font-size="10.00">/realm/realm&#45;src/src/realm</text>
<text text-anchor="middle" x="452" y="-623" font-family="Helvetica,sans-Serif" font-size="10.00">/sparsity.h</text>
</a>
</g>
</g>
<!-- Node2 -->
<g id="Node000002" class="node">
<title>Node2</title>
<g id="a_Node000002"><a xlink:href="partitions_8h.html" target="_top" xlink:title=" ">
<polygon fill="white" stroke="#666666" points="525,-426 379,-426 379,-385 525,-385 525,-426"/>
<text text-anchor="start" x="387" y="-414" font-family="Helvetica,sans-Serif" font-size="10.00">/home/runner/work/realm</text>
<text text-anchor="start" x="387" y="-403" font-family="Helvetica,sans-Serif" font-size="10.00">/realm/realm&#45;src/src/realm</text>
<text text-anchor="middle" x="452" y="-392" font-family="Helvetica,sans-Serif" font-size="10.00">/deppart/partitions.h</text>
</a>
</g>
</g>
<!-- Node1&#45;&gt;Node2 -->
<g id="edge1_Node000001_Node000002" class="edge">
<title>Node1&#45;&gt;Node2</title>
<g id="a_edge1_Node000001_Node000002"><a xlink:title=" ">
<path fill="none" stroke="#63b8ff" d="M428.25,-607.61C408.31,-582.23 381.3,-542.74 370,-503 365.02,-485.47 361.46,-478.1 370,-462 378.14,-446.66 392.62,-434.79 407.17,-426.03"/>
<polygon fill="#63b8ff" stroke="#63b8ff" points="425.73,-610.06 434.71,-615.66 431.18,-605.67 425.73,-610.06"/>
</a>
</g>
</g>
<!-- Node16 -->
<g id="Node000016" class="node">
<title>Node16</title>
<g id="a_Node000016"><a xlink:href="sparsity__impl_8h.html" target="_top" xlink:title=" ">
<polygon fill="white" stroke="#666666" points="525,-503 379,-503 379,-462 525,-462 525,-503"/>
<text text-anchor="start" x="387" y="-491" font-family="Helvetica,sans-Serif" font-size="10.00">/home/runner/work/realm</text>
<text text-anchor="start" x="387" y="-480" font-family="Helvetica,sans-Serif" font-size="10.00">/realm/realm&#45;src/src/realm</text>
<text text-anchor="middle" x="452" y="-469" font-family="Helvetica,sans-Serif" font-size="10.00">/deppart/sparsity_impl.h</text>
</a>
</g>
</g>
<!-- Node1&#45;&gt;Node16 -->
<g id="edge15_Node000001_Node000016" class="edge">
<title>Node1&#45;&gt;Node16</title>
<g id="a_edge15_Node000001_Node000016"><a xlink:title=" ">
<path fill="none" stroke="#63b8ff" d="M452,-605.58C452,-575.36 452,-529.53 452,-503.47"/>
<polygon fill="#63b8ff" stroke="#63b8ff" points="448.5,-605.94 452,-615.94 455.5,-605.94 448.5,-605.94"/>
</a>
</g>
</g>
<!-- Node23 -->
<g id="Node000023" class="node">
<title>Node23</title>
<g id="a_Node000023"><a xlink:href="indexspace_8h.html" target="_top" xlink:title=" ">
<polygon fill="white" stroke="#666666" points="1219,-580 1073,-580 1073,-539 1219,-539 1219,-580"/>
<text text-anchor="start" x="1081" y="-568" font-family="Helvetica,sans-Serif" font-size="10.00">/home/runner/work/realm</text>
<text text-anchor="start" x="1081" y="-557" font-family="Helvetica,sans-Serif" font-size="10.00">/realm/realm&#45;src/src/realm</text>
<text text-anchor="middle" x="1146" y="-546" font-family="Helvetica,sans-Serif" font-size="10.00">/indexspace.h</text>
</a>
</g>
</g>
<!-- Node1&#45;&gt;Node23 -->
<g id="edge29_Node000001_Node000023" class="edge">
<title>Node1&#45;&gt;Node23</title>
<g id="a_edge29_Node000001_Node000023"><a xlink:title=" ">
<path fill="none" stroke="#63b8ff" d="M535.31,-626.5C672.27,-611.7 942.75,-582.46 1072.8,-568.41"/>
<polygon fill="#63b8ff" stroke="#63b8ff" points="534.85,-623.03 525.29,-627.58 535.6,-629.99 534.85,-623.03"/>
</a>
</g>
</g>
<!-- Node3 -->
<g id="Node000003" class="node">
<title>Node3</title>
<g id="a_Node000003"><a xlink:href="byfield_8h.html" target="_top" xlink:title=" ">
<polygon fill="white" stroke="#666666" points="146,-349 0,-349 0,-308 146,-308 146,-349"/>
<text text-anchor="start" x="8" y="-337" font-family="Helvetica,sans-Serif" font-size="10.00">/home/runner/work/realm</text>
<text text-anchor="start" x="8" y="-326" font-family="Helvetica,sans-Serif" font-size="10.00">/realm/realm&#45;src/src/realm</text>
<text text-anchor="middle" x="73" y="-315" font-family="Helvetica,sans-Serif" font-size="10.00">/deppart/byfield.h</text>
</a>
</g>
</g>
<!-- Node2&#45;&gt;Node3 -->
<g id="edge2_Node000002_Node000003" class="edge">
<title>Node2&#45;&gt;Node3</title>
<g id="a_edge2_Node000002_Node000003"><a xlink:title=" ">
<path fill="none" stroke="#63b8ff" d="M368.75,-390.06C309.09,-379.44 226.91,-364.26 155,-349 152.14,-348.39 149.22,-347.76 146.28,-347.11"/>
<polygon fill="#63b8ff" stroke="#63b8ff" points="368.42,-393.56 378.87,-391.86 369.64,-386.67 368.42,-393.56"/>
</a>
</g>
</g>
<!-- Node4 -->
<g id="Node000004" class="node">
<title>Node4</title>
<g id="a_Node000004"><a xlink:href="image_8h.html" target="_top" xlink:title=" ">
<polygon fill="white" stroke="#666666" points="676,-349 530,-349 530,-308 676,-308 676,-349"/>
<text text-anchor="start" x="538" y="-337" font-family="Helvetica,sans-Serif" font-size="10.00">/home/runner/work/realm</text>
<text text-anchor="start" x="538" y="-326" font-family="Helvetica,sans-Serif" font-size="10.00">/realm/realm&#45;src/src/realm</text>
<text text-anchor="middle" x="603" y="-315" font-family="Helvetica,sans-Serif" font-size="10.00">/deppart/image.h</text>
</a>
</g>
</g>
<!-- Node2&#45;&gt;Node4 -->
<g id="edge3_Node000002_Node000004" class="edge">
<title>Node2&#45;&gt;Node4</title>
<g id="a_edge3_Node000002_Node000004"><a xlink:title=" ">
<path fill="none" stroke="#63b8ff" d="M500.42,-380.45C520.85,-370.3 544.32,-358.64 563.66,-349.04"/>
<polygon fill="#63b8ff" stroke="#63b8ff" points="498.68,-377.41 491.28,-384.99 501.79,-383.68 498.68,-377.41"/>
</a>
</g>
</g>
<!-- Node5 -->
<g id="Node000005" class="node">
<title>Node5</title>
<g id="a_Node000005"><a xlink:href="preimage_8h.html" target="_top" xlink:title=" ">
<polygon fill="white" stroke="#666666" points="310,-349 164,-349 164,-308 310,-308 310,-349"/>
<text text-anchor="start" x="172" y="-337" font-family="Helvetica,sans-Serif" font-size="10.00">/home/runner/work/realm</text>
<text text-anchor="start" x="172" y="-326" font-family="Helvetica,sans-Serif" font-size="10.00">/realm/realm&#45;src/src/realm</text>
<text text-anchor="middle" x="237" y="-315" font-family="Helvetica,sans-Serif" font-size="10.00">/deppart/preimage.h</text>
</a>
</g>
</g>
<!-- Node2&#45;&gt;Node5 -->
<g id="edge4_Node000002_Node000005" class="edge">
<title>Node2&#45;&gt;Node5</title>
<g id="a_edge4_Node000002_Node000005"><a xlink:title=" ">
<path fill="none" stroke="#63b8ff" d="M386.57,-381.67C356.69,-371.25 321.66,-359.03 293.02,-349.04"/>
<polygon fill="#63b8ff" stroke="#63b8ff" points="385.48,-385 396.07,-384.99 387.78,-378.39 385.48,-385"/>
</a>
</g>
</g>
<!-- Node6 -->
<g id="Node000006" class="node">
<title>Node6</title>
<g id="a_Node000006"><a xlink:href="setops_8h.html" target="_top" xlink:title=" ">
<polygon fill="white" stroke="#666666" points="474,-349 328,-349 328,-308 474,-308 474,-349"/>
<text text-anchor="start" x="336" y="-337" font-family="Helvetica,sans-Serif" font-size="10.00">/home/runner/work/realm</text>
<text text-anchor="start" x="336" y="-326" font-family="Helvetica,sans-Serif" font-size="10.00">/realm/realm&#45;src/src/realm</text>
<text text-anchor="middle" x="401" y="-315" font-family="Helvetica,sans-Serif" font-size="10.00">/deppart/setops.h</text>
</a>
</g>
</g>
<!-- Node2&#45;&gt;Node6 -->
<g id="edge5_Node000002_Node000006" class="edge">
<title>Node2&#45;&gt;Node6</title>
<g id="a_edge5_Node000002_Node000006"><a xlink:title=" ">
<path fill="none" stroke="#63b8ff" d="M432.89,-376.39C426.7,-367.3 419.98,-357.41 414.31,-349.07"/>
<polygon fill="#63b8ff" stroke="#63b8ff" points="430.08,-378.49 438.6,-384.79 435.87,-374.56 430.08,-378.49"/>
</a>
</g>
</g>
<!-- Node7 -->
<g id="Node000007" class="node">
<title>Node7</title>
<g id="a_Node000007"><a xlink:href="runtime__impl_8h.html" target="_top" xlink:title=" ">
<polygon fill="white" stroke="#666666" points="1145,-195 999,-195 999,-154 1145,-154 1145,-195"/>
<text text-anchor="start" x="1007" y="-183" font-family="Helvetica,sans-Serif" font-size="10.00">/home/runner/work/realm</text>
<text text-anchor="start" x="1007" y="-172" font-family="Helvetica,sans-Serif" font-size="10.00">/realm/realm&#45;src/src/realm</text>
<text text-anchor="middle" x="1072" y="-161" font-family="Helvetica,sans-Serif" font-size="10.00">/runtime_impl.h</text>
</a>
</g>
</g>
<!-- Node2&#45;&gt;Node7 -->
<g id="edge6_Node000002_Node000007" class="edge">
<title>Node2&#45;&gt;Node7</title>
<g id="a_edge6_Node000002_Node000007"><a xlink:title=" ">
<path fill="none" stroke="#63b8ff" d="M466.37,-375.84C478.38,-354.51 497.32,-326.06 521,-308 664.56,-198.52 885.41,-177.91 999,-175.02"/>
<polygon fill="#63b8ff" stroke="#63b8ff" points="463.21,-374.33 461.51,-384.79 469.36,-377.68 463.21,-374.33"/>
</a>
</g>
</g>
<!-- Node8 -->
<g id="Node000008" class="node">
<title>Node8</title>
<g id="a_Node000008"><a xlink:href="proc__impl_8h.html" target="_top" xlink:title=" ">
<polygon fill="white" stroke="#666666" points="1145,-118 999,-118 999,-77 1145,-77 1145,-118"/>
<text text-anchor="start" x="1007" y="-106" font-family="Helvetica,sans-Serif" font-size="10.00">/home/runner/work/realm</text>
<text text-anchor="start" x="1007" y="-95" font-family="Helvetica,sans-Serif" font-size="10.00">/realm/realm&#45;src/src/realm</text>
<text text-anchor="middle" x="1072" y="-84" font-family="Helvetica,sans-Serif" font-size="10.00">/proc_impl.h</text>
</a>
</g>
</g>
<!-- Node7&#45;&gt;Node8 -->
<g id="edge7_Node000007_Node000008" class="edge">
<title>Node7&#45;&gt;Node8</title>
<g id="a_edge7_Node000007_Node000008"><a xlink:title=" ">
<path fill="none" stroke="#63b8ff" d="M1072,-143.69C1072,-135.08 1072,-125.9 1072,-118.07"/>
<polygon fill="#63b8ff" stroke="#63b8ff" points="1068.5,-143.79 1072,-153.79 1075.5,-143.79 1068.5,-143.79"/>
</a>
</g>
</g>
<!-- Node14 -->
<g id="Node000014" class="node">
<title>Node14</title>
<g id="a_Node000014"><a xlink:href="lowlevel__dma_8h.html" target="_top" xlink:title=" ">
<polygon fill="white" stroke="#666666" points="1705,-118 1559,-118 1559,-77 1705,-77 1705,-118"/>
<text text-anchor="start" x="1567" y="-106" font-family="Helvetica,sans-Serif" font-size="10.00">/home/runner/work/realm</text>
<text text-anchor="start" x="1567" y="-95" font-family="Helvetica,sans-Serif" font-size="10.00">/realm/realm&#45;src/src/realm</text>
<text text-anchor="middle" x="1632" y="-84" font-family="Helvetica,sans-Serif" font-size="10.00">/transfer/lowlevel_dma.h</text>
</a>
</g>
</g>
<!-- Node7&#45;&gt;Node14 -->
<g id="edge13_Node000007_Node000014" class="edge">
<title>Node7&#45;&gt;Node14</title>
<g id="a_edge13_Node000007_Node000014"><a xlink:title=" ">
<path fill="none" stroke="#63b8ff" d="M1155.2,-162.36C1264.49,-147.72 1454.69,-122.25 1558.77,-108.31"/>
<polygon fill="#63b8ff" stroke="#63b8ff" points="1154.66,-158.9 1145.21,-163.7 1155.59,-165.84 1154.66,-158.9"/>
</a>
</g>
</g>
<!-- Node9 -->
<g id="Node000009" class="node">
<title>Node9</title>
<g id="a_Node000009"><a xlink:href="cuda__internal_8h.html" target="_top" xlink:title=" ">
<polygon fill="white" stroke="#666666" points="1397,-41 1251,-41 1251,0 1397,0 1397,-41"/>
<text text-anchor="start" x="1259" y="-29" font-family="Helvetica,sans-Serif" font-size="10.00">/home/runner/work/realm</text>
<text text-anchor="start" x="1259" y="-18" font-family="Helvetica,sans-Serif" font-size="10.00">/realm/realm&#45;src/src/realm</text>
<text text-anchor="middle" x="1324" y="-7" font-family="Helvetica,sans-Serif" font-size="10.00">/cuda/cuda_internal.h</text>
</a>
</g>
</g>
<!-- Node8&#45;&gt;Node9 -->
<g id="edge8_Node000008_Node000009" class="edge">
<title>Node8&#45;&gt;Node9</title>
<g id="a_edge8_Node000008_Node000009"><a xlink:title=" ">
<path fill="none" stroke="#63b8ff" d="M1147.33,-74.08C1182.65,-63.57 1224.33,-51.16 1258.34,-41.04"/>
<polygon fill="#63b8ff" stroke="#63b8ff" points="1146.14,-70.78 1137.55,-76.99 1148.14,-77.49 1146.14,-70.78"/>
</a>
</g>
</g>
<!-- Node10 -->
<g id="Node000010" class="node">
<title>Node10</title>
<g id="a_Node000010"><a xlink:href="hip__internal_8h.html" target="_top" xlink:title=" ">
<polygon fill="white" stroke="#666666" points="1844,-41 1698,-41 1698,0 1844,0 1844,-41"/>
<text text-anchor="start" x="1706" y="-29" font-family="Helvetica,sans-Serif" font-size="10.00">/home/runner/work/realm</text>
<text text-anchor="start" x="1706" y="-18" font-family="Helvetica,sans-Serif" font-size="10.00">/realm/realm&#45;src/src/realm</text>
<text text-anchor="middle" x="1771" y="-7" font-family="Helvetica,sans-Serif" font-size="10.00">/hip/hip_internal.h</text>
</a>
</g>
</g>
<!-- Node8&#45;&gt;Node10 -->
<g id="edge9_Node000008_Node000010" class="edge">
<title>Node8&#45;&gt;Node10</title>
<g id="a_edge9_Node000008_Node000010"><a xlink:title=" ">
<path fill="none" stroke="#63b8ff" d="M1155.57,-90.22C1268.3,-81.35 1475.21,-63.68 1651,-41 1666.18,-39.04 1682.38,-36.63 1697.81,-34.18"/>
<polygon fill="#63b8ff" stroke="#63b8ff" points="1154.99,-86.75 1145.29,-91.02 1155.54,-93.73 1154.99,-86.75"/>
</a>
</g>
</g>
<!-- Node11 -->
<g id="Node000011" class="node">
<title>Node11</title>
<g id="a_Node000011"><a xlink:href="kokkos__interop_8h.html" target="_top" xlink:title=" ">
<polygon fill="white" stroke="#666666" points="1061,-41 915,-41 915,0 1061,0 1061,-41"/>
<text text-anchor="start" x="923" y="-29" font-family="Helvetica,sans-Serif" font-size="10.00">/home/runner/work/realm</text>
<text text-anchor="start" x="923" y="-18" font-family="Helvetica,sans-Serif" font-size="10.00">/realm/realm&#45;src/src/realm</text>
<text text-anchor="middle" x="988" y="-7" font-family="Helvetica,sans-Serif" font-size="10.00">/kokkos/kokkos_interop.h</text>
</a>
</g>
</g>
<!-- Node8&#45;&gt;Node11 -->
<g id="edge10_Node000008_Node000011" class="edge">
<title>Node8&#45;&gt;Node11</title>
<g id="a_edge10_Node000008_Node000011"><a xlink:title=" ">
<path fill="none" stroke="#63b8ff" d="M1042.4,-70.07C1031.71,-60.52 1019.84,-49.93 1009.92,-41.07"/>
<polygon fill="#63b8ff" stroke="#63b8ff" points="1040.14,-72.75 1049.93,-76.79 1044.8,-67.52 1040.14,-72.75"/>
</a>
</g>
</g>
<!-- Node12 -->
<g id="Node000012" class="node">
<title>Node12</title>
<g id="a_Node000012"><a xlink:href="openmp__internal_8h.html" target="_top" xlink:title=" ">
<polygon fill="white" stroke="#666666" points="1233,-41 1079,-41 1079,0 1233,0 1233,-41"/>
<text text-anchor="start" x="1087" y="-29" font-family="Helvetica,sans-Serif" font-size="10.00">/home/runner/work/realm</text>
<text text-anchor="start" x="1087" y="-18" font-family="Helvetica,sans-Serif" font-size="10.00">/realm/realm&#45;src/src/realm</text>
<text text-anchor="middle" x="1156" y="-7" font-family="Helvetica,sans-Serif" font-size="10.00">/openmp/openmp_internal.h</text>
</a>
</g>
</g>
<!-- Node8&#45;&gt;Node12 -->
<g id="edge11_Node000008_Node000012" class="edge">
<title>Node8&#45;&gt;Node12</title>
<g id="a_edge11_Node000008_Node000012"><a xlink:title=" ">
<path fill="none" stroke="#63b8ff" d="M1101.6,-70.07C1112.29,-60.52 1124.16,-49.93 1134.08,-41.07"/>
<polygon fill="#63b8ff" stroke="#63b8ff" points="1099.2,-67.52 1094.07,-76.79 1103.86,-72.75 1099.2,-67.52"/>
</a>
</g>
</g>
<!-- Node13 -->
<g id="Node000013" class="node">
<title>Node13</title>
<g id="a_Node000013"><a xlink:href="python__internal_8h.html" target="_top" xlink:title=" ">
<polygon fill="white" stroke="#666666" points="897,-41 751,-41 751,0 897,0 897,-41"/>
<text text-anchor="start" x="759" y="-29" font-family="Helvetica,sans-Serif" font-size="10.00">/home/runner/work/realm</text>
<text text-anchor="start" x="759" y="-18" font-family="Helvetica,sans-Serif" font-size="10.00">/realm/realm&#45;src/src/realm</text>
<text text-anchor="middle" x="824" y="-7" font-family="Helvetica,sans-Serif" font-size="10.00">/python/python_internal.h</text>
</a>
</g>
</g>
<!-- Node8&#45;&gt;Node13 -->
<g id="edge12_Node000008_Node000013" class="edge">
<title>Node8&#45;&gt;Node13</title>
<g id="a_edge12_Node000008_Node000013"><a xlink:title=" ">
<path fill="none" stroke="#63b8ff" d="M997.86,-74.08C963.11,-63.57 922.09,-51.16 888.62,-41.04"/>
<polygon fill="#63b8ff" stroke="#63b8ff" points="996.9,-77.45 1007.49,-76.99 998.93,-70.75 996.9,-77.45"/>
</a>
</g>
</g>
<!-- Node15 -->
<g id="Node000015" class="node">
<title>Node15</title>
<g id="a_Node000015"><a xlink:href="hdf5__internal_8h.html" target="_top" xlink:title=" ">
<polygon fill="white" stroke="#666666" points="1642,-41 1496,-41 1496,0 1642,0 1642,-41"/>
<text text-anchor="start" x="1504" y="-29" font-family="Helvetica,sans-Serif" font-size="10.00">/home/runner/work/realm</text>
<text text-anchor="start" x="1504" y="-18" font-family="Helvetica,sans-Serif" font-size="10.00">/realm/realm&#45;src/src/realm</text>
<text text-anchor="middle" x="1569" y="-7" font-family="Helvetica,sans-Serif" font-size="10.00">/hdf5/hdf5_internal.h</text>
</a>
</g>
</g>
<!-- Node14&#45;&gt;Node15 -->
<g id="edge14_Node000014_Node000015" class="edge">
<title>Node14&#45;&gt;Node15</title>
<g id="a_edge14_Node000014_Node000015"><a xlink:title=" ">
<path fill="none" stroke="#63b8ff" d="M1608.86,-68.95C1601.09,-59.7 1592.59,-49.58 1585.44,-41.07"/>
<polygon fill="#63b8ff" stroke="#63b8ff" points="1606.34,-71.39 1615.45,-76.79 1611.7,-66.89 1606.34,-71.39"/>
</a>
</g>
</g>
<!-- Node16&#45;&gt;Node2 -->
<g id="edge16_Node000016_Node000002" class="edge">
<title>Node16&#45;&gt;Node2</title>
<g id="a_edge16_Node000016_Node000002"><a xlink:title=" ">
<path fill="none" stroke="#63b8ff" d="M452,-451.69C452,-443.08 452,-433.9 452,-426.07"/>
<polygon fill="#63b8ff" stroke="#63b8ff" points="448.5,-451.79 452,-461.79 455.5,-451.79 448.5,-451.79"/>
</a>
</g>
</g>
<!-- Node17 -->
<g id="Node000017" class="node">
<title>Node17</title>
<g id="a_Node000017"><a xlink:href="address__list_8h.html" target="_top" xlink:title=" ">
<polygon fill="white" stroke="#666666" points="862,-426 716,-426 716,-385 862,-385 862,-426"/>
<text text-anchor="start" x="724" y="-414" font-family="Helvetica,sans-Serif" font-size="10.00">/home/runner/work/realm</text>
<text text-anchor="start" x="724" y="-403" font-family="Helvetica,sans-Serif" font-size="10.00">/realm/realm&#45;src/src/realm</text>
<text text-anchor="middle" x="789" y="-392" font-family="Helvetica,sans-Serif" font-size="10.00">/transfer/address_list.h</text>
</a>
</g>
</g>
<!-- Node16&#45;&gt;Node17 -->
<g id="edge17_Node000016_Node000017" class="edge">
<title>Node16&#45;&gt;Node17</title>
<g id="a_edge17_Node000016_Node000017"><a xlink:title=" ">
<path fill="none" stroke="#63b8ff" d="M535.13,-461.76C601.67,-446.66 667.19,-432.45 715.82,-422.04"/>
<polygon fill="#63b8ff" stroke="#63b8ff" points="534.28,-458.36 525.3,-464 535.83,-465.19 534.28,-458.36"/>
</a>
</g>
</g>
<!-- Node18 -->
<g id="Node000018" class="node">
<title>Node18</title>
<g id="a_Node000018"><a xlink:href="channel_8h.html" target="_top" xlink:title=" ">
<polygon fill="white" stroke="#666666" points="1610,-349 1464,-349 1464,-308 1610,-308 1610,-349"/>
<text text-anchor="start" x="1472" y="-337" font-family="Helvetica,sans-Serif" font-size="10.00">/home/runner/work/realm</text>
<text text-anchor="start" x="1472" y="-326" font-family="Helvetica,sans-Serif" font-size="10.00">/realm/realm&#45;src/src/realm</text>
<text text-anchor="middle" x="1537" y="-315" font-family="Helvetica,sans-Serif" font-size="10.00">/transfer/channel.h</text>
</a>
</g>
</g>
<!-- Node17&#45;&gt;Node18 -->
<g id="edge18_Node000017_Node000018" class="edge">
<title>Node17&#45;&gt;Node18</title>
<g id="a_edge18_Node000017_Node000018"><a xlink:title=" ">
<path fill="none" stroke="#63b8ff" d="M872.33,-384.91C1092.4,-350.47 1342.36,-336.95 1463.64,-332.01"/>
<polygon fill="#63b8ff" stroke="#63b8ff" points="871.54,-381.49 862.21,-386.51 872.63,-388.41 871.54,-381.49"/>
</a>
</g>
</g>
<!-- Node22 -->
<g id="Node000022" class="node">
<title>Node22</title>
<g id="a_Node000022"><a xlink:href="transfer_8h.html" target="_top" xlink:title=" ">
<polygon fill="white" stroke="#666666" points="1145,-272 999,-272 999,-231 1145,-231 1145,-272"/>
<text text-anchor="start" x="1007" y="-260" font-family="Helvetica,sans-Serif" font-size="10.00">/home/runner/work/realm</text>
<text text-anchor="start" x="1007" y="-249" font-family="Helvetica,sans-Serif" font-size="10.00">/realm/realm&#45;src/src/realm</text>
<text text-anchor="middle" x="1072" y="-238" font-family="Helvetica,sans-Serif" font-size="10.00">/transfer/transfer.h</text>
</a>
</g>
</g>
<!-- Node17&#45;&gt;Node22 -->
<g id="edge28_Node000017_Node000022" class="edge">
<title>Node17&#45;&gt;Node22</title>
<g id="a_edge28_Node000017_Node000022"><a xlink:title=" ">
<path fill="none" stroke="#63b8ff" d="M834.37,-380.13C890.16,-350.17 983.77,-299.89 1035.27,-272.23"/>
<polygon fill="#63b8ff" stroke="#63b8ff" points="832.57,-377.12 825.42,-384.94 835.88,-383.29 832.57,-377.12"/>
</a>
</g>
</g>
<!-- Node18&#45;&gt;Node9 -->
<g id="edge19_Node000018_Node000009" class="edge">
<title>Node18&#45;&gt;Node9</title>
<g id="a_edge19_Node000018_Node000009"><a xlink:title=" ">
<path fill="none" stroke="#63b8ff" d="M1454.05,-309.29C1451.68,-308.85 1449.32,-308.42 1447,-308 1390.66,-297.93 1229.53,-315.2 1192,-272 1127.36,-197.59 1244.94,-86.08 1298.96,-41.22"/>
<polygon fill="#63b8ff" stroke="#63b8ff" points="1453.42,-312.74 1463.9,-311.19 1454.75,-305.86 1453.42,-312.74"/>
</a>
</g>
</g>
<!-- Node18&#45;&gt;Node10 -->
<g id="edge21_Node000018_Node000010" class="edge">
<title>Node18&#45;&gt;Node10</title>
<g id="a_edge21_Node000018_Node000010"><a xlink:title=" ">
<path fill="none" stroke="#63b8ff" d="M1560.74,-300.23C1568.5,-291.26 1577.14,-281.23 1585,-272 1642.87,-204.01 1662.46,-190.9 1714,-118 1731.97,-92.58 1749.75,-61.24 1760.55,-41.31"/>
<polygon fill="#63b8ff" stroke="#63b8ff" points="1558.09,-297.94 1554.18,-307.79 1563.38,-302.52 1558.09,-297.94"/>
</a>
</g>
</g>
<!-- Node18&#45;&gt;Node14 -->
<g id="edge24_Node000018_Node000014" class="edge">
<title>Node18&#45;&gt;Node14</title>
<g id="a_edge24_Node000018_Node000014"><a xlink:title=" ">
<path fill="none" stroke="#63b8ff" d="M1550.91,-298.66C1554.92,-290.12 1559.22,-280.73 1563,-272 1586.88,-216.81 1612.38,-150.51 1624.62,-118.17"/>
<polygon fill="#63b8ff" stroke="#63b8ff" points="1547.67,-297.32 1546.55,-307.85 1554,-300.31 1547.67,-297.32"/>
</a>
</g>
</g>
<!-- Node18&#45;&gt;Node15 -->
<g id="edge20_Node000018_Node000015" class="edge">
<title>Node18&#45;&gt;Node15</title>
<g id="a_edge20_Node000018_Node000015"><a xlink:title=" ">
<path fill="none" stroke="#63b8ff" d="M1535.89,-297.63C1534.73,-250.34 1534.83,-155.54 1550,-77 1552.36,-64.8 1556.78,-51.62 1560.77,-41.17"/>
<polygon fill="#63b8ff" stroke="#63b8ff" points="1532.4,-297.89 1536.18,-307.79 1539.4,-297.69 1532.4,-297.89"/>
</a>
</g>
</g>
<!-- Node19 -->
<g id="Node000019" class="node">
<title>Node19</title>
<g id="a_Node000019"><a xlink:href="addrsplit__channel_8h.html" target="_top" xlink:title=" ">
<polygon fill="white" stroke="#666666" points="1847,-272 1691,-272 1691,-231 1847,-231 1847,-272"/>
<text text-anchor="start" x="1699" y="-260" font-family="Helvetica,sans-Serif" font-size="10.00">/home/runner/work/realm</text>
<text text-anchor="start" x="1699" y="-249" font-family="Helvetica,sans-Serif" font-size="10.00">/realm/realm&#45;src/src/realm</text>
<text text-anchor="middle" x="1769" y="-238" font-family="Helvetica,sans-Serif" font-size="10.00">/transfer/addrsplit_channel.h</text>
</a>
</g>
</g>
<!-- Node18&#45;&gt;Node19 -->
<g id="edge22_Node000018_Node000019" class="edge">
<title>Node18&#45;&gt;Node19</title>
<g id="a_edge22_Node000018_Node000019"><a xlink:title=" ">
<path fill="none" stroke="#63b8ff" d="M1607.19,-304.81C1639.52,-294.36 1677.51,-282.08 1708.55,-272.04"/>
<polygon fill="#63b8ff" stroke="#63b8ff" points="1605.79,-301.58 1597.35,-307.99 1607.94,-308.24 1605.79,-301.58"/>
</a>
</g>
</g>
<!-- Node20 -->
<g id="Node000020" class="node">
<title>Node20</title>
<g id="a_Node000020"><a xlink:href="channel__disk_8h.html" target="_top" xlink:title=" ">
<polygon fill="white" stroke="#666666" points="1347,-272 1201,-272 1201,-231 1347,-231 1347,-272"/>
<text text-anchor="start" x="1209" y="-260" font-family="Helvetica,sans-Serif" font-size="10.00">/home/runner/work/realm</text>
<text text-anchor="start" x="1209" y="-249" font-family="Helvetica,sans-Serif" font-size="10.00">/realm/realm&#45;src/src/realm</text>
<text text-anchor="middle" x="1274" y="-238" font-family="Helvetica,sans-Serif" font-size="10.00">/transfer/channel_disk.h</text>
</a>
</g>
</g>
<!-- Node18&#45;&gt;Node20 -->
<g id="edge23_Node000018_Node000020" class="edge">
<title>Node18&#45;&gt;Node20</title>
<g id="a_edge23_Node000018_Node000020"><a xlink:title=" ">
<path fill="none" stroke="#63b8ff" d="M1458.85,-305.21C1421.9,-294.68 1378.17,-282.21 1342.53,-272.04"/>
<polygon fill="#63b8ff" stroke="#63b8ff" points="1458.01,-308.61 1468.59,-307.99 1459.93,-301.88 1458.01,-308.61"/>
</a>
</g>
</g>
<!-- Node21 -->
<g id="Node000021" class="node">
<title>Node21</title>
<g id="a_Node000021"><a xlink:href="memcpy__channel_8h.html" target="_top" xlink:title=" ">
<polygon fill="white" stroke="#666666" points="1521,-272 1365,-272 1365,-231 1521,-231 1521,-272"/>
<text text-anchor="start" x="1373" y="-260" font-family="Helvetica,sans-Serif" font-size="10.00">/home/runner/work/realm</text>
<text text-anchor="start" x="1373" y="-249" font-family="Helvetica,sans-Serif" font-size="10.00">/realm/realm&#45;src/src/realm</text>
<text text-anchor="middle" x="1443" y="-238" font-family="Helvetica,sans-Serif" font-size="10.00">/transfer/memcpy_channel.h</text>
</a>
</g>
</g>
<!-- Node18&#45;&gt;Node21 -->
<g id="edge25_Node000018_Node000021" class="edge">
<title>Node18&#45;&gt;Node21</title>
<g id="a_edge25_Node000018_Node000021"><a xlink:title=" ">
<path fill="none" stroke="#63b8ff" d="M1504.22,-301.35C1492.17,-291.73 1478.74,-281.01 1467.53,-272.07"/>
<polygon fill="#63b8ff" stroke="#63b8ff" points="1502.3,-304.29 1512.3,-307.79 1506.67,-298.82 1502.3,-304.29"/>
</a>
</g>
</g>
<!-- Node18&#45;&gt;Node22 -->
<g id="edge26_Node000018_Node000022" class="edge">
<title>Node18&#45;&gt;Node22</title>
<g id="a_edge26_Node000018_Node000022"><a xlink:title=" ">
<path fill="none" stroke="#63b8ff" d="M1453.34,-308.59C1452.22,-308.39 1451.11,-308.19 1450,-308 1321.6,-285.72 1287.4,-294.28 1159,-272 1154.58,-271.23 1150.04,-270.39 1145.47,-269.5"/>
<polygon fill="#63b8ff" stroke="#63b8ff" points="1453.05,-312.1 1463.53,-310.5 1454.35,-305.22 1453.05,-312.1"/>
</a>
</g>
</g>
<!-- Node22&#45;&gt;Node7 -->
<g id="edge27_Node000022_Node000007" class="edge">
<title>Node22&#45;&gt;Node7</title>
<g id="a_edge27_Node000022_Node000007"><a xlink:title=" ">
<path fill="none" stroke="#63b8ff" d="M1072,-220.69C1072,-212.08 1072,-202.9 1072,-195.07"/>
<polygon fill="#63b8ff" stroke="#63b8ff" points="1068.5,-220.79 1072,-230.79 1075.5,-220.79 1068.5,-220.79"/>
</a>
</g>
</g>
<!-- Node23&#45;&gt;Node2 -->
<g id="edge33_Node000023_Node000002" class="edge">
<title>Node23&#45;&gt;Node2</title>
<g id="a_edge33_Node000023_Node000002"><a xlink:title=" ">
<path fill="none" stroke="#63b8ff" d="M1062.89,-553.87C959.91,-547 791.29,-531.71 736,-503 713.95,-491.55 719.53,-474.4 698,-462 644.89,-431.4 576.3,-417.67 525.04,-411.51"/>
<polygon fill="#63b8ff" stroke="#63b8ff" points="1062.74,-557.36 1072.95,-554.53 1063.2,-550.38 1062.74,-557.36"/>
</a>
</g>
</g>
<!-- Node23&#45;&gt;Node9 -->
<g id="edge30_Node000023_Node000009" class="edge">
<title>Node23&#45;&gt;Node9</title>
<g id="a_edge30_Node000023_Node000009"><a xlink:title=" ">
<path fill="none" stroke="#63b8ff" d="M1229.25,-558.5C1420.51,-556.25 1875,-537.16 1875,-406.5 1875,-406.5 1875,-406.5 1875,-327.5 1875,-195.15 1831.17,-138.54 1714,-77 1700.13,-69.72 1506.28,-44.42 1397.23,-30.63"/>
<polygon fill="#63b8ff" stroke="#63b8ff" points="1229.2,-555 1219.24,-558.6 1229.27,-562 1229.2,-555"/>
</a>
</g>
</g>
<!-- Node23&#45;&gt;Node10 -->
<g id="edge37_Node000023_Node000010" class="edge">
<title>Node23&#45;&gt;Node10</title>
<g id="a_edge37_Node000023_Node000010"><a xlink:title=" ">
<path fill="none" stroke="#63b8ff" d="M1229.63,-558.18C1383.82,-556.49 1706.43,-547.56 1808,-503 1866.04,-477.54 1913,-469.88 1913,-406.5 1913,-406.5 1913,-406.5 1913,-173.5 1913,-112.47 1851.12,-65.78 1809.05,-41.09"/>
<polygon fill="#63b8ff" stroke="#63b8ff" points="1229.24,-554.68 1219.27,-558.28 1229.31,-561.68 1229.24,-554.68"/>
</a>
</g>
</g>
<!-- Node23&#45;&gt;Node16 -->
<g id="edge36_Node000023_Node000016" class="edge">
<title>Node23&#45;&gt;Node16</title>
<g id="a_edge36_Node000023_Node000016"><a xlink:title=" ">
<path fill="none" stroke="#63b8ff" d="M1062.49,-554.72C944.23,-548.5 721.48,-533.63 534,-503 531.11,-502.53 528.17,-502.01 525.21,-501.46"/>
<polygon fill="#63b8ff" stroke="#63b8ff" points="1062.4,-558.22 1072.56,-555.24 1062.76,-551.23 1062.4,-558.22"/>
</a>
</g>
</g>
<!-- Node23&#45;&gt;Node17 -->
<g id="edge51_Node000023_Node000017" class="edge">
<title>Node23&#45;&gt;Node17</title>
<g id="a_edge51_Node000023_Node000017"><a xlink:title=" ">
<path fill="none" stroke="#63b8ff" d="M1199.3,-533.48C1210.8,-525.44 1221.45,-515.34 1228,-503 1236.54,-486.9 1240.22,-475.52 1228,-462 1174.52,-402.86 949.63,-439.25 871,-426 868.11,-425.51 865.18,-424.98 862.22,-424.42"/>
<polygon fill="#63b8ff" stroke="#63b8ff" points="1197.32,-530.59 1190.83,-538.97 1201.12,-536.47 1197.32,-530.59"/>
</a>
</g>
</g>
<!-- Node23&#45;&gt;Node19 -->
<g id="edge52_Node000023_Node000019" class="edge">
<title>Node23&#45;&gt;Node19</title>
<g id="a_edge52_Node000023_Node000019"><a xlink:title=" ">
<path fill="none" stroke="#63b8ff" d="M1229.3,-551.26C1374.14,-536.86 1663.29,-499.48 1729,-426 1768.25,-382.11 1771.24,-307.46 1770.19,-272.14"/>
<polygon fill="#63b8ff" stroke="#63b8ff" points="1228.73,-547.8 1219.12,-552.26 1229.42,-554.77 1228.73,-547.8"/>
</a>
</g>
</g>
<!-- Node23&#45;&gt;Node22 -->
<g id="edge53_Node000023_Node000022" class="edge">
<title>Node23&#45;&gt;Node22</title>
<g id="a_edge53_Node000023_Node000022"><a xlink:title=" ">
<path fill="none" stroke="#63b8ff" d="M1229.51,-551.44C1364.83,-536.68 1609.05,-494.35 1527,-385 1524.03,-381.04 1267.59,-307.93 1141.06,-272.04"/>
<polygon fill="#63b8ff" stroke="#63b8ff" points="1228.74,-548 1219.16,-552.53 1229.48,-554.96 1228.74,-548"/>
</a>
</g>
</g>
<!-- Node24 -->
<g id="Node000024" class="node">
<title>Node24</title>
<g id="a_Node000024"><a xlink:href="inst__helper_8h.html" target="_top" xlink:title=" ">
<polygon fill="white" stroke="#666666" points="689,-503 543,-503 543,-462 689,-462 689,-503"/>
<text text-anchor="start" x="551" y="-491" font-family="Helvetica,sans-Serif" font-size="10.00">/home/runner/work/realm</text>
<text text-anchor="start" x="551" y="-480" font-family="Helvetica,sans-Serif" font-size="10.00">/realm/realm&#45;src/src/realm</text>
<text text-anchor="middle" x="616" y="-469" font-family="Helvetica,sans-Serif" font-size="10.00">/deppart/inst_helper.h</text>
</a>
</g>
</g>
<!-- Node23&#45;&gt;Node24 -->
<g id="edge31_Node000023_Node000024" class="edge">
<title>Node23&#45;&gt;Node24</title>
<g id="a_edge31_Node000023_Node000024"><a xlink:title=" ">
<path fill="none" stroke="#63b8ff" d="M1062.71,-550.47C973.4,-541.31 827.63,-524.72 703,-503 698.58,-502.23 694.04,-501.38 689.47,-500.49"/>
<polygon fill="#63b8ff" stroke="#63b8ff" points="1062.47,-553.97 1072.78,-551.5 1063.18,-547 1062.47,-553.97"/>
</a>
</g>
</g>
<!-- Node25 -->
<g id="Node000025" class="node">
<title>Node25</title>
<g id="a_Node000025"><a xlink:href="rectlist_8h.html" target="_top" xlink:title=" ">
<polygon fill="white" stroke="#666666" points="891,-503 745,-503 745,-462 891,-462 891,-503"/>
<text text-anchor="start" x="753" y="-491" font-family="Helvetica,sans-Serif" font-size="10.00">/home/runner/work/realm</text>
<text text-anchor="start" x="753" y="-480" font-family="Helvetica,sans-Serif" font-size="10.00">/realm/realm&#45;src/src/realm</text>
<text text-anchor="middle" x="818" y="-469" font-family="Helvetica,sans-Serif" font-size="10.00">/deppart/rectlist.h</text>
</a>
</g>
</g>
<!-- Node23&#45;&gt;Node25 -->
<g id="edge34_Node000023_Node000025" class="edge">
<title>Node23&#45;&gt;Node25</title>
<g id="a_edge34_Node000023_Node000025"><a xlink:title=" ">
<path fill="none" stroke="#63b8ff" d="M1062.79,-539.98C1015.1,-529.3 954.15,-515.55 900,-503 897.15,-502.34 894.24,-501.66 891.31,-500.98"/>
<polygon fill="#63b8ff" stroke="#63b8ff" points="1062.23,-543.44 1072.75,-542.21 1063.76,-536.61 1062.23,-543.44"/>
</a>
</g>
</g>
<!-- Node26 -->
<g id="Node000026" class="node">
<title>Node26</title>
<g id="a_Node000026"><a xlink:href="idx__impl_8h.html" target="_top" xlink:title=" ">
<polygon fill="white" stroke="#666666" points="1219,-503 1073,-503 1073,-462 1219,-462 1219,-503"/>
<text text-anchor="start" x="1081" y="-491" font-family="Helvetica,sans-Serif" font-size="10.00">/home/runner/work/realm</text>
<text text-anchor="start" x="1081" y="-480" font-family="Helvetica,sans-Serif" font-size="10.00">/realm/realm&#45;src/src/realm</text>
<text text-anchor="middle" x="1146" y="-469" font-family="Helvetica,sans-Serif" font-size="10.00">/idx_impl.h</text>
</a>
</g>
</g>
<!-- Node23&#45;&gt;Node26 -->
<g id="edge38_Node000023_Node000026" class="edge">
<title>Node23&#45;&gt;Node26</title>
<g id="a_edge38_Node000023_Node000026"><a xlink:title=" ">
<path fill="none" stroke="#63b8ff" d="M1146,-528.69C1146,-520.08 1146,-510.9 1146,-503.07"/>
<polygon fill="#63b8ff" stroke="#63b8ff" points="1142.5,-528.79 1146,-538.79 1149.5,-528.79 1142.5,-528.79"/>
</a>
</g>
</g>
<!-- Node27 -->
<g id="Node000027" class="node">
<title>Node27</title>
<g id="a_Node000027"><a xlink:href="inst__layout_8h.html" target="_top" xlink:title=" ">
<polygon fill="white" stroke="#666666" points="1421,-503 1275,-503 1275,-462 1421,-462 1421,-503"/>
<text text-anchor="start" x="1283" y="-491" font-family="Helvetica,sans-Serif" font-size="10.00">/home/runner/work/realm</text>
<text text-anchor="start" x="1283" y="-480" font-family="Helvetica,sans-Serif" font-size="10.00">/realm/realm&#45;src/src/realm</text>
<text text-anchor="middle" x="1348" y="-469" font-family="Helvetica,sans-Serif" font-size="10.00">/inst_layout.h</text>
</a>
</g>
</g>
<!-- Node23&#45;&gt;Node27 -->
<g id="edge39_Node000023_Node000027" class="edge">
<title>Node23&#45;&gt;Node27</title>
<g id="a_edge39_Node000023_Node000027"><a xlink:title=" ">
<path fill="none" stroke="#63b8ff" d="M1208.21,-535.4C1236.12,-525.04 1268.69,-512.95 1295.37,-503.04"/>
<polygon fill="#63b8ff" stroke="#63b8ff" points="1206.7,-532.23 1198.55,-538.99 1209.14,-538.79 1206.7,-532.23"/>
</a>
</g>
</g>
<!-- Node33 -->
<g id="Node000033" class="node">
<title>Node33</title>
<g id="a_Node000033"><a xlink:href="subgraph_8h.html" target="_top" xlink:title=" ">
<polygon fill="white" stroke="#666666" points="1055,-503 909,-503 909,-462 1055,-462 1055,-503"/>
<text text-anchor="start" x="917" y="-491" font-family="Helvetica,sans-Serif" font-size="10.00">/home/runner/work/realm</text>
<text text-anchor="start" x="917" y="-480" font-family="Helvetica,sans-Serif" font-size="10.00">/realm/realm&#45;src/src/realm</text>
<text text-anchor="middle" x="982" y="-469" font-family="Helvetica,sans-Serif" font-size="10.00">/subgraph.h</text>
</a>
</g>
</g>
<!-- Node23&#45;&gt;Node33 -->
<g id="edge48_Node000023_Node000033" class="edge">
<title>Node23&#45;&gt;Node33</title>
<g id="a_edge48_Node000023_Node000033"><a xlink:title=" ">
<path fill="none" stroke="#63b8ff" d="M1094.01,-534.72C1071.68,-524.51 1045.92,-512.73 1024.73,-503.04"/>
<polygon fill="#63b8ff" stroke="#63b8ff" points="1092.79,-538.01 1103.34,-538.99 1095.7,-531.65 1092.79,-538.01"/>
</a>
</g>
</g>
<!-- Node24&#45;&gt;Node2 -->
<g id="edge32_Node000024_Node000002" class="edge">
<title>Node24&#45;&gt;Node2</title>
<g id="a_edge32_Node000024_Node000002"><a xlink:title=" ">
<path fill="none" stroke="#63b8ff" d="M564.01,-457.72C541.68,-447.51 515.92,-435.73 494.73,-426.04"/>
<polygon fill="#63b8ff" stroke="#63b8ff" points="562.79,-461.01 573.34,-461.99 565.7,-454.65 562.79,-461.01"/>
</a>
</g>
</g>
<!-- Node25&#45;&gt;Node4 -->
<g id="edge35_Node000025_Node000004" class="edge">
<title>Node25&#45;&gt;Node4</title>
<g id="a_edge35_Node000025_Node000004"><a xlink:title=" ">
<path fill="none" stroke="#63b8ff" d="M735.59,-458.9C714.25,-450.68 692.18,-439.88 674,-426 646.56,-405.04 624.85,-370.69 612.98,-349.12"/>
<polygon fill="#63b8ff" stroke="#63b8ff" points="734.4,-462.19 745,-462.38 736.83,-455.63 734.4,-462.19"/>
</a>
</g>
</g>
<!-- Node28 -->
<g id="Node000028" class="node">
<title>Node28</title>
<g id="a_Node000028"><a xlink:href="cuda__access_8h.html" target="_top" xlink:title=" ">
<polygon fill="white" stroke="#666666" points="1026,-426 880,-426 880,-385 1026,-385 1026,-426"/>
<text text-anchor="start" x="888" y="-414" font-family="Helvetica,sans-Serif" font-size="10.00">/home/runner/work/realm</text>
<text text-anchor="start" x="888" y="-403" font-family="Helvetica,sans-Serif" font-size="10.00">/realm/realm&#45;src/src/realm</text>
<text text-anchor="middle" x="953" y="-392" font-family="Helvetica,sans-Serif" font-size="10.00">/cuda/cuda_access.h</text>
</a>
</g>
</g>
<!-- Node27&#45;&gt;Node28 -->
<g id="edge40_Node000027_Node000028" class="edge">
<title>Node27&#45;&gt;Node28</title>
<g id="a_edge40_Node000027_Node000028"><a xlink:title=" ">
<path fill="none" stroke="#63b8ff" d="M1264.88,-462.75C1263.58,-462.5 1262.28,-462.25 1261,-462 1161.1,-442.87 1134.77,-445.78 1035,-426 1032.13,-425.43 1029.21,-424.83 1026.26,-424.21"/>
<polygon fill="#63b8ff" stroke="#63b8ff" points="1264.47,-466.24 1274.97,-464.78 1265.86,-459.38 1264.47,-466.24"/>
</a>
</g>
</g>
<!-- Node29 -->
<g id="Node000029" class="node">
<title>Node29</title>
<g id="a_Node000029"><a xlink:href="hdf5__access_8h.html" target="_top" xlink:title=" ">
<polygon fill="white" stroke="#666666" points="1190,-426 1044,-426 1044,-385 1190,-385 1190,-426"/>
<text text-anchor="start" x="1052" y="-414" font-family="Helvetica,sans-Serif" font-size="10.00">/home/runner/work/realm</text>
<text text-anchor="start" x="1052" y="-403" font-family="Helvetica,sans-Serif" font-size="10.00">/realm/realm&#45;src/src/realm</text>
<text text-anchor="middle" x="1117" y="-392" font-family="Helvetica,sans-Serif" font-size="10.00">/hdf5/hdf5_access.h</text>
</a>
</g>
</g>
<!-- Node27&#45;&gt;Node29 -->
<g id="edge41_Node000027_Node000029" class="edge">
<title>Node27&#45;&gt;Node29</title>
<g id="a_edge41_Node000027_Node000029"><a xlink:title=" ">
<path fill="none" stroke="#63b8ff" d="M1278.11,-458.81C1245.92,-448.36 1208.1,-436.08 1177.19,-426.04"/>
<polygon fill="#63b8ff" stroke="#63b8ff" points="1277.32,-462.23 1287.91,-461.99 1279.48,-455.57 1277.32,-462.23"/>
</a>
</g>
</g>
<!-- Node30 -->
<g id="Node000030" class="node">
<title>Node30</title>
<g id="a_Node000030"><a xlink:href="hip__access_8h.html" target="_top" xlink:title=" ">
<polygon fill="white" stroke="#666666" points="1354,-426 1208,-426 1208,-385 1354,-385 1354,-426"/>
<text text-anchor="start" x="1216" y="-414" font-family="Helvetica,sans-Serif" font-size="10.00">/home/runner/work/realm</text>
<text text-anchor="start" x="1216" y="-403" font-family="Helvetica,sans-Serif" font-size="10.00">/realm/realm&#45;src/src/realm</text>
<text text-anchor="middle" x="1281" y="-392" font-family="Helvetica,sans-Serif" font-size="10.00">/hip/hip_access.h</text>
</a>
</g>
</g>
<!-- Node27&#45;&gt;Node30 -->
<g id="edge42_Node000027_Node000030" class="edge">
<title>Node27&#45;&gt;Node30</title>
<g id="a_edge42_Node000027_Node000030"><a xlink:title=" ">
<path fill="none" stroke="#63b8ff" d="M1323.64,-454.23C1315.31,-444.91 1306.16,-434.67 1298.49,-426.07"/>
<polygon fill="#63b8ff" stroke="#63b8ff" points="1321.12,-456.67 1330.4,-461.79 1326.34,-452.01 1321.12,-456.67"/>
</a>
</g>
</g>
<!-- Node31 -->
<g id="Node000031" class="node">
<title>Node31</title>
<g id="a_Node000031"><a xlink:href="inst__impl_8h.html" target="_top" xlink:title=" ">
<polygon fill="white" stroke="#666666" points="1720,-426 1574,-426 1574,-385 1720,-385 1720,-426"/>
<text text-anchor="start" x="1582" y="-414" font-family="Helvetica,sans-Serif" font-size="10.00">/home/runner/work/realm</text>
<text text-anchor="start" x="1582" y="-403" font-family="Helvetica,sans-Serif" font-size="10.00">/realm/realm&#45;src/src/realm</text>
<text text-anchor="middle" x="1647" y="-392" font-family="Helvetica,sans-Serif" font-size="10.00">/inst_impl.h</text>
</a>
</g>
</g>
<!-- Node27&#45;&gt;Node31 -->
<g id="edge43_Node000027_Node000031" class="edge">
<title>Node27&#45;&gt;Node31</title>
<g id="a_edge43_Node000027_Node000031"><a xlink:title=" ">
<path fill="none" stroke="#63b8ff" d="M1431.13,-460.65C1475.91,-449.41 1530.67,-435.68 1573.83,-424.85"/>
<polygon fill="#63b8ff" stroke="#63b8ff" points="1429.99,-457.33 1421.14,-463.15 1431.69,-464.11 1429.99,-457.33"/>
</a>
</g>
</g>
<!-- Node32 -->
<g id="Node000032" class="node">
<title>Node32</title>
<g id="a_Node000032"><a xlink:href="transfer__utils_8h.html" target="_top" xlink:title=" ">
<polygon fill="white" stroke="#666666" points="1518,-426 1372,-426 1372,-385 1518,-385 1518,-426"/>
<text text-anchor="start" x="1380" y="-414" font-family="Helvetica,sans-Serif" font-size="10.00">/home/runner/work/realm</text>
<text text-anchor="start" x="1380" y="-403" font-family="Helvetica,sans-Serif" font-size="10.00">/realm/realm&#45;src/src/realm</text>
<text text-anchor="middle" x="1445" y="-392" font-family="Helvetica,sans-Serif" font-size="10.00">/transfer/transfer_utils.h</text>
</a>
</g>
</g>
<!-- Node27&#45;&gt;Node32 -->
<g id="edge47_Node000027_Node000032" class="edge">
<title>Node27&#45;&gt;Node32</title>
<g id="a_edge47_Node000027_Node000032"><a xlink:title=" ">
<path fill="none" stroke="#63b8ff" d="M1381.22,-455.82C1393.77,-446.11 1407.83,-435.24 1419.56,-426.17"/>
<polygon fill="#63b8ff" stroke="#63b8ff" points="1379,-453.1 1373.23,-461.99 1383.28,-458.64 1379,-453.1"/>
</a>
</g>
</g>
<!-- Node31&#45;&gt;Node14 -->
<g id="edge45_Node000031_Node000014" class="edge">
<title>Node31&#45;&gt;Node14</title>
<g id="a_edge45_Node000031_Node000014"><a xlink:title=" ">
<path fill="none" stroke="#63b8ff" d="M1645.53,-374.59C1642.49,-312.41 1635.54,-170.62 1632.97,-118.34"/>
<polygon fill="#63b8ff" stroke="#63b8ff" points="1642.05,-375.08 1646.04,-384.89 1649.04,-374.73 1642.05,-375.08"/>
</a>
</g>
</g>
<!-- Node31&#45;&gt;Node18 -->
<g id="edge44_Node000031_Node000018" class="edge">
<title>Node31&#45;&gt;Node18</title>
<g id="a_edge44_Node000031_Node000018"><a xlink:title=" ">
<path fill="none" stroke="#63b8ff" d="M1609.74,-379.09C1595.4,-369.32 1579.28,-358.32 1565.85,-349.17"/>
<polygon fill="#63b8ff" stroke="#63b8ff" points="1608.15,-382.25 1618.39,-384.99 1612.1,-376.47 1608.15,-382.25"/>
</a>
</g>
</g>
<!-- Node31&#45;&gt;Node22 -->
<g id="edge46_Node000031_Node000022" class="edge">
<title>Node31&#45;&gt;Node22</title>
<g id="a_edge46_Node000031_Node000022"><a xlink:title=" ">
<path fill="none" stroke="#63b8ff" d="M1564.06,-384.69C1521.24,-373.64 1474.05,-359.94 1455,-349 1432.1,-335.85 1435.76,-319.52 1412,-308 1309.8,-258.45 1270.72,-292.44 1159,-272 1154.43,-271.16 1149.74,-270.26 1145.02,-269.31"/>
<polygon fill="#63b8ff" stroke="#63b8ff" points="1563.42,-388.14 1573.97,-387.22 1565.15,-381.36 1563.42,-388.14"/>
</a>
</g>
</g>
<!-- Node34 -->
<g id="Node000034" class="node">
<title>Node34</title>
<g id="a_Node000034"><a xlink:href="subgraph__impl_8h.html" target="_top" xlink:title=" ">
<polygon fill="white" stroke="#666666" points="885,-272 739,-272 739,-231 885,-231 885,-272"/>
<text text-anchor="start" x="747" y="-260" font-family="Helvetica,sans-Serif" font-size="10.00">/home/runner/work/realm</text>
<text text-anchor="start" x="747" y="-249" font-family="Helvetica,sans-Serif" font-size="10.00">/realm/realm&#45;src/src/realm</text>
<text text-anchor="middle" x="812" y="-238" font-family="Helvetica,sans-Serif" font-size="10.00">/subgraph_impl.h</text>
</a>
</g>
</g>
<!-- Node33&#45;&gt;Node34 -->
<g id="edge49_Node000033_Node000034" class="edge">
<title>Node33&#45;&gt;Node34</title>
<g id="a_edge49_Node000033_Node000034"><a xlink:title=" ">
<path fill="none" stroke="#63b8ff" d="M898.64,-462.08C842.84,-453.6 733.19,-457.53 707,-426 664.82,-375.22 740.75,-305.75 784.41,-272.21"/>
<polygon fill="#63b8ff" stroke="#63b8ff" points="898.26,-465.57 908.72,-463.89 899.5,-458.68 898.26,-465.57"/>
</a>
</g>
</g>
<!-- Node34&#45;&gt;Node7 -->
<g id="edge50_Node000034_Node000007" class="edge">
<title>Node34&#45;&gt;Node7</title>
<g id="a_edge50_Node000034_Node000007"><a xlink:title=" ">
<path fill="none" stroke="#63b8ff" d="M889.26,-228.21C925.79,-217.68 969.02,-205.21 1004.25,-195.04"/>
<polygon fill="#63b8ff" stroke="#63b8ff" points="888.27,-224.86 879.63,-230.99 890.21,-231.58 888.27,-224.86"/>
</a>
</g>
</g>
</g>
</svg>
