<?xml version="1.0" encoding="UTF-8" standalone="no"?>
<!DOCTYPE svg PUBLIC "-//W3C//DTD SVG 1.1//EN"
 "http://www.w3.org/Graphics/SVG/1.1/DTD/svg11.dtd">
<!-- Generated by graphviz version 2.43.0 (0)
 -->
<!-- Title: /home/runner/work/realm/realm/realm&#45;src/src/realm/sparsity.h Pages: 1 -->
<svg width="1184pt" height="324pt"
 viewBox="0.00 0.00 1183.50 324.00" xmlns="http://www.w3.org/2000/svg" xmlns:xlink="http://www.w3.org/1999/xlink">
<g id="graph0" class="graph" transform="scale(1 1) rotate(0) translate(4 320)">
<title>/home/runner/work/realm/realm/realm&#45;src/src/realm/sparsity.h</title>
<!-- Node1 -->
<g id="Node000001" class="node">
<title>Node1</title>
<g id="a_Node000001"><a xlink:title=" ">
<polygon fill="#999999" stroke="#666666" points="983,-316 837,-316 837,-275 983,-275 983,-316"/>
<text text-anchor="start" x="845" y="-304" font-family="Helvetica,sans-Serif" font-size="10.00">/home/runner/work/realm</text>
<text text-anchor="start" x="845" y="-293" font-family="Helvetica,sans-Serif" font-size="10.00">/realm/realm&#45;src/src/realm</text>
<text text-anchor="middle" x="910" y="-282" font-family="Helvetica,sans-Serif" font-size="10.00">/sparsity.h</text>
</a>
</g>
</g>
<!-- Node2 -->
<g id="Node000002" class="node">
<title>Node2</title>
<g id="a_Node000002"><a xlink:href="realm__config_8h.html" target="_top" xlink:title=" ">
<polygon fill="white" stroke="#666666" points="778,-74 658,-74 658,-55 778,-55 778,-74"/>
<text text-anchor="middle" x="718" y="-62" font-family="Helvetica,sans-Serif" font-size="10.00">realm/realm_config.h</text>
</a>
</g>
</g>
<!-- Node1&#45;&gt;Node2 -->
<g id="edge1_Node000001_Node000002" class="edge">
<title>Node1&#45;&gt;Node2</title>
<g id="a_edge1_Node000001_Node000002"><a xlink:title=" ">
<path fill="none" stroke="#63b8ff" d="M918.04,-274.97C931.73,-238.22 954.54,-158.17 916,-110 900.04,-90.05 838.63,-78.43 788.38,-72.09"/>
<polygon fill="#63b8ff" stroke="#63b8ff" points="788.52,-68.58 778.17,-70.86 787.68,-75.53 788.52,-68.58"/>
</a>
</g>
</g>
<!-- Node5 -->
<g id="Node000005" class="node">
<title>Node5</title>
<g id="a_Node000005"><a xlink:href="event_8h.html" target="_top" xlink:title=" ">
<polygon fill="white" stroke="#666666" points="403.5,-239 318.5,-239 318.5,-220 403.5,-220 403.5,-239"/>
<text text-anchor="middle" x="361" y="-227" font-family="Helvetica,sans-Serif" font-size="10.00">realm/event.h</text>
</a>
</g>
</g>
<!-- Node1&#45;&gt;Node5 -->
<g id="edge4_Node000001_Node000005" class="edge">
<title>Node1&#45;&gt;Node5</title>
<g id="a_edge4_Node000001_Node000005"><a xlink:title=" ">
<path fill="none" stroke="#63b8ff" d="M836.81,-285.97C724.46,-272.87 512.15,-248.12 413.65,-236.64"/>
<polygon fill="#63b8ff" stroke="#63b8ff" points="413.97,-233.15 403.63,-235.47 413.16,-240.1 413.97,-233.15"/>
</a>
</g>
</g>
<!-- Node12 -->
<g id="Node000012" class="node">
<title>Node12</title>
<g id="a_Node000012"><a xlink:title=" ">
<polygon fill="#e0e0e0" stroke="#999999" points="907.5,-129 860.5,-129 860.5,-110 907.5,-110 907.5,-129"/>
<text text-anchor="middle" x="884" y="-117" font-family="Helvetica,sans-Serif" font-size="10.00">vector</text>
</a>
</g>
</g>
<!-- Node1&#45;&gt;Node12 -->
<g id="edge33_Node000001_Node000012" class="edge">
<title>Node1&#45;&gt;Node12</title>
<g id="a_edge33_Node000001_Node000012"><a xlink:title=" ">
<path fill="none" stroke="#63b8ff" d="M907.07,-274.88C902.03,-241.17 891.8,-172.69 886.83,-139.45"/>
<polygon fill="#63b8ff" stroke="#63b8ff" points="890.25,-138.65 885.31,-129.27 883.33,-139.68 890.25,-138.65"/>
</a>
</g>
</g>
<!-- Node19 -->
<g id="Node000019" class="node">
<title>Node19</title>
<g id="a_Node000019"><a xlink:title=" ">
<polygon fill="#e0e0e0" stroke="#999999" points="296,-129 236,-129 236,-110 296,-110 296,-129"/>
<text text-anchor="middle" x="266" y="-117" font-family="Helvetica,sans-Serif" font-size="10.00">iostream</text>
</a>
</g>
</g>
<!-- Node1&#45;&gt;Node19 -->
<g id="edge32_Node000001_Node000019" class="edge">
<title>Node1&#45;&gt;Node19</title>
<g id="a_edge32_Node000001_Node000019"><a xlink:title=" ">
<path fill="none" stroke="#63b8ff" d="M844.71,-274.89C756.57,-248.66 594.5,-201.26 455,-165 404,-151.75 344.82,-138.09 306.46,-129.46"/>
<polygon fill="#63b8ff" stroke="#63b8ff" points="306.74,-125.94 296.22,-127.16 305.21,-132.77 306.74,-125.94"/>
</a>
</g>
</g>
<!-- Node23 -->
<g id="Node000023" class="node">
<title>Node23</title>
<g id="a_Node000023"><a xlink:href="atomics_8h.html" target="_top" xlink:title=" ">
<polygon fill="white" stroke="#666666" points="1056,-239 960,-239 960,-220 1056,-220 1056,-239"/>
<text text-anchor="middle" x="1008" y="-227" font-family="Helvetica,sans-Serif" font-size="10.00">realm/atomics.h</text>
</a>
</g>
</g>
<!-- Node1&#45;&gt;Node23 -->
<g id="edge28_Node000001_Node000023" class="edge">
<title>Node1&#45;&gt;Node23</title>
<g id="a_edge28_Node000001_Node000023"><a xlink:title=" ">
<path fill="none" stroke="#63b8ff" d="M939.94,-274.95C954.85,-265.21 972.54,-253.65 986.16,-244.76"/>
<polygon fill="#63b8ff" stroke="#63b8ff" points="988.38,-247.49 994.84,-239.09 984.56,-241.63 988.38,-247.49"/>
</a>
</g>
</g>
<!-- Node26 -->
<g id="Node000026" class="node">
<title>Node26</title>
<g id="a_Node000026"><a xlink:title=" ">
<polygon fill="#e0e0e0" stroke="#999999" points="1175.5,-239 1074.5,-239 1074.5,-220 1175.5,-220 1175.5,-239"/>
<text text-anchor="middle" x="1125" y="-227" font-family="Helvetica,sans-Serif" font-size="10.00">realm/sparsity.inl</text>
</a>
</g>
</g>
<!-- Node1&#45;&gt;Node26 -->
<g id="edge34_Node000001_Node000026" class="edge">
<title>Node1&#45;&gt;Node26</title>
<g id="a_edge34_Node000001_Node000026"><a xlink:title=" ">
<path fill="none" stroke="#63b8ff" d="M975.68,-274.95C1011.96,-264.15 1055.77,-251.11 1086.52,-241.95"/>
<polygon fill="#63b8ff" stroke="#63b8ff" points="1087.83,-245.22 1096.42,-239.01 1085.84,-238.51 1087.83,-245.22"/>
</a>
</g>
</g>
<!-- Node3 -->
<g id="Node000003" class="node">
<title>Node3</title>
<g id="a_Node000003"><a xlink:href="realm__defines_8h.html" target="_top" xlink:title=" ">
<polygon fill="white" stroke="#666666" points="696.5,-19 601.5,-19 601.5,0 696.5,0 696.5,-19"/>
<text text-anchor="middle" x="649" y="-7" font-family="Helvetica,sans-Serif" font-size="10.00">realm_defines.h</text>
</a>
</g>
</g>
<!-- Node2&#45;&gt;Node3 -->
<g id="edge2_Node000002_Node000003" class="edge">
<title>Node2&#45;&gt;Node3</title>
<g id="a_edge2_Node000002_Node000003"><a xlink:title=" ">
<path fill="none" stroke="#63b8ff" d="M706.91,-54.98C696.51,-47 680.74,-34.88 668.28,-25.31"/>
<polygon fill="#63b8ff" stroke="#63b8ff" points="670.35,-22.49 660.29,-19.17 666.09,-28.04 670.35,-22.49"/>
</a>
</g>
</g>
<!-- Node4 -->
<g id="Node000004" class="node">
<title>Node4</title>
<g id="a_Node000004"><a xlink:href="compiler__support_8h.html" target="_top" xlink:title=" ">
<polygon fill="white" stroke="#666666" points="857,-19 715,-19 715,0 857,0 857,-19"/>
<text text-anchor="middle" x="786" y="-7" font-family="Helvetica,sans-Serif" font-size="10.00">realm/compiler_support.h</text>
</a>
</g>
</g>
<!-- Node2&#45;&gt;Node4 -->
<g id="edge3_Node000002_Node000004" class="edge">
<title>Node2&#45;&gt;Node4</title>
<g id="a_edge3_Node000002_Node000004"><a xlink:title=" ">
<path fill="none" stroke="#63b8ff" d="M728.93,-54.98C739.08,-47.07 754.42,-35.11 766.65,-25.58"/>
<polygon fill="#63b8ff" stroke="#63b8ff" points="769.14,-28.08 774.88,-19.17 764.84,-22.56 769.14,-28.08"/>
</a>
</g>
</g>
<!-- Node6 -->
<g id="Node000006" class="node">
<title>Node6</title>
<g id="a_Node000006"><a xlink:href="realm__c_8h.html" target="_top" xlink:title=" ">
<polygon fill="white" stroke="#666666" points="96,-129 0,-129 0,-110 96,-110 96,-129"/>
<text text-anchor="middle" x="48" y="-117" font-family="Helvetica,sans-Serif" font-size="10.00">realm/realm_c.h</text>
</a>
</g>
</g>
<!-- Node5&#45;&gt;Node6 -->
<g id="edge5_Node000005_Node000006" class="edge">
<title>Node5&#45;&gt;Node6</title>
<g id="a_edge5_Node000005_Node000006"><a xlink:title=" ">
<path fill="none" stroke="#63b8ff" d="M318.12,-226.57C269.69,-223 189.51,-212.86 127,-184 101.93,-172.43 77.91,-151.18 63.07,-136.47"/>
<polygon fill="#63b8ff" stroke="#63b8ff" points="65.32,-133.76 55.82,-129.07 60.32,-138.66 65.32,-133.76"/>
</a>
</g>
</g>
<!-- Node9 -->
<g id="Node000009" class="node">
<title>Node9</title>
<g id="a_Node000009"><a xlink:href="utils_8h.html" target="_top" xlink:title=" ">
<polygon fill="white" stroke="#666666" points="647,-184 569,-184 569,-165 647,-165 647,-184"/>
<text text-anchor="middle" x="608" y="-172" font-family="Helvetica,sans-Serif" font-size="10.00">realm/utils.h</text>
</a>
</g>
</g>
<!-- Node5&#45;&gt;Node9 -->
<g id="edge9_Node000005_Node000009" class="edge">
<title>Node5&#45;&gt;Node9</title>
<g id="a_edge9_Node000005_Node000009"><a xlink:title=" ">
<path fill="none" stroke="#63b8ff" d="M400.68,-219.98C443.75,-210.74 512.57,-195.98 558.99,-186.02"/>
<polygon fill="#63b8ff" stroke="#63b8ff" points="559.78,-189.43 568.82,-183.91 558.31,-182.58 559.78,-189.43"/>
</a>
</g>
</g>
<!-- Node5&#45;&gt;Node12 -->
<g id="edge24_Node000005_Node000012" class="edge">
<title>Node5&#45;&gt;Node12</title>
<g id="a_edge24_Node000005_Node000012"><a xlink:title=" ">
<path fill="none" stroke="#63b8ff" d="M403.8,-223.71C461.45,-216.87 567.11,-203.01 656,-184 726.08,-169.01 806.5,-144.97 850.64,-131.17"/>
<polygon fill="#63b8ff" stroke="#63b8ff" points="851.79,-134.48 860.28,-128.14 849.69,-127.8 851.79,-134.48"/>
</a>
</g>
</g>
<!-- Node18 -->
<g id="Node000018" class="node">
<title>Node18</title>
<g id="a_Node000018"><a xlink:href="memory_8h.html" target="_top" xlink:title=" ">
<polygon fill="white" stroke="#666666" points="233.5,-184 136.5,-184 136.5,-165 233.5,-165 233.5,-184"/>
<text text-anchor="middle" x="185" y="-172" font-family="Helvetica,sans-Serif" font-size="10.00">realm/memory.h</text>
</a>
</g>
</g>
<!-- Node5&#45;&gt;Node18 -->
<g id="edge19_Node000005_Node000018" class="edge">
<title>Node5&#45;&gt;Node18</title>
<g id="a_edge19_Node000005_Node000018"><a xlink:title=" ">
<path fill="none" stroke="#63b8ff" d="M332.72,-219.98C303.05,-211.05 256.21,-196.94 223.25,-187.02"/>
<polygon fill="#63b8ff" stroke="#63b8ff" points="224.08,-183.61 213.5,-184.08 222.07,-190.32 224.08,-183.61"/>
</a>
</g>
</g>
<!-- Node5&#45;&gt;Node19 -->
<g id="edge26_Node000005_Node000019" class="edge">
<title>Node5&#45;&gt;Node19</title>
<g id="a_edge26_Node000005_Node000019"><a xlink:title=" ">
<path fill="none" stroke="#63b8ff" d="M343.64,-219.96C329.34,-212.21 309.31,-199.61 296,-184 284.64,-170.67 276.59,-152.32 271.7,-138.77"/>
<polygon fill="#63b8ff" stroke="#63b8ff" points="274.96,-137.48 268.46,-129.12 268.33,-139.71 274.96,-137.48"/>
</a>
</g>
</g>
<!-- Node21 -->
<g id="Node000021" class="node">
<title>Node21</title>
<g id="a_Node000021"><a xlink:title=" ">
<polygon fill="#e0e0e0" stroke="#999999" points="337,-184 305,-184 305,-165 337,-165 337,-184"/>
<text text-anchor="middle" x="321" y="-172" font-family="Helvetica,sans-Serif" font-size="10.00">set</text>
</a>
</g>
</g>
<!-- Node5&#45;&gt;Node21 -->
<g id="edge25_Node000005_Node000021" class="edge">
<title>Node5&#45;&gt;Node21</title>
<g id="a_edge25_Node000005_Node000021"><a xlink:title=" ">
<path fill="none" stroke="#63b8ff" d="M354.39,-219.75C348.74,-212.26 340.46,-201.28 333.55,-192.13"/>
<polygon fill="#63b8ff" stroke="#63b8ff" points="336.3,-189.96 327.48,-184.09 330.71,-194.18 336.3,-189.96"/>
</a>
</g>
</g>
<!-- Node22 -->
<g id="Node000022" class="node">
<title>Node22</title>
<g id="a_Node000022"><a xlink:title=" ">
<polygon fill="#e0e0e0" stroke="#999999" points="446.5,-184 355.5,-184 355.5,-165 446.5,-165 446.5,-184"/>
<text text-anchor="middle" x="401" y="-172" font-family="Helvetica,sans-Serif" font-size="10.00">realm/event.inl</text>
</a>
</g>
</g>
<!-- Node5&#45;&gt;Node22 -->
<g id="edge27_Node000005_Node000022" class="edge">
<title>Node5&#45;&gt;Node22</title>
<g id="a_edge27_Node000005_Node000022"><a xlink:title=" ">
<path fill="none" stroke="#63b8ff" d="M367.61,-219.75C373.26,-212.26 381.54,-201.28 388.45,-192.13"/>
<polygon fill="#63b8ff" stroke="#63b8ff" points="391.29,-194.18 394.52,-184.09 385.7,-189.96 391.29,-194.18"/>
</a>
</g>
</g>
<!-- Node6&#45;&gt;Node2 -->
<g id="edge6_Node000006_Node000002" class="edge">
<title>Node6&#45;&gt;Node2</title>
<g id="a_edge6_Node000006_Node000002"><a xlink:title=" ">
<path fill="none" stroke="#63b8ff" d="M96.32,-114.06C111.28,-112.72 127.82,-111.27 143,-110 324.96,-94.82 539.47,-78.68 647.82,-70.66"/>
<polygon fill="#63b8ff" stroke="#63b8ff" points="648.25,-74.14 657.97,-69.91 647.73,-67.16 648.25,-74.14"/>
</a>
</g>
</g>
<!-- Node7 -->
<g id="Node000007" class="node">
<title>Node7</title>
<g id="a_Node000007"><a xlink:title=" ">
<polygon fill="#e0e0e0" stroke="#999999" points="151,-74 95,-74 95,-55 151,-55 151,-74"/>
<text text-anchor="middle" x="123" y="-62" font-family="Helvetica,sans-Serif" font-size="10.00">stddef.h</text>
</a>
</g>
</g>
<!-- Node6&#45;&gt;Node7 -->
<g id="edge7_Node000006_Node000007" class="edge">
<title>Node6&#45;&gt;Node7</title>
<g id="a_edge7_Node000006_Node000007"><a xlink:title=" ">
<path fill="none" stroke="#63b8ff" d="M60.05,-109.98C71.46,-101.92 88.83,-89.65 102.43,-80.03"/>
<polygon fill="#63b8ff" stroke="#63b8ff" points="104.58,-82.8 110.73,-74.17 100.54,-77.08 104.58,-82.8"/>
</a>
</g>
</g>
<!-- Node8 -->
<g id="Node000008" class="node">
<title>Node8</title>
<g id="a_Node000008"><a xlink:title=" ">
<polygon fill="#e0e0e0" stroke="#999999" points="74.5,-74 21.5,-74 21.5,-55 74.5,-55 74.5,-74"/>
<text text-anchor="middle" x="48" y="-62" font-family="Helvetica,sans-Serif" font-size="10.00">stdint.h</text>
</a>
</g>
</g>
<!-- Node6&#45;&gt;Node8 -->
<g id="edge8_Node000006_Node000008" class="edge">
<title>Node6&#45;&gt;Node8</title>
<g id="a_edge8_Node000006_Node000008"><a xlink:title=" ">
<path fill="none" stroke="#63b8ff" d="M48,-109.75C48,-102.8 48,-92.85 48,-84.13"/>
<polygon fill="#63b8ff" stroke="#63b8ff" points="51.5,-84.09 48,-74.09 44.5,-84.09 51.5,-84.09"/>
</a>
</g>
</g>
<!-- Node9&#45;&gt;Node2 -->
<g id="edge10_Node000009_Node000002" class="edge">
<title>Node9&#45;&gt;Node2</title>
<g id="a_edge10_Node000009_Node000002"><a xlink:title=" ">
<path fill="none" stroke="#63b8ff" d="M576.61,-164.97C543.62,-154.46 499.06,-134.89 519,-110 535.11,-89.89 597.22,-78.27 647.83,-71.97"/>
<polygon fill="#63b8ff" stroke="#63b8ff" points="648.26,-75.45 657.78,-70.79 647.43,-68.5 648.26,-75.45"/>
</a>
</g>
</g>
<!-- Node10 -->
<g id="Node000010" class="node">
<title>Node10</title>
<g id="a_Node000010"><a xlink:title=" ">
<polygon fill="#e0e0e0" stroke="#999999" points="572,-129 528,-129 528,-110 572,-110 572,-129"/>
<text text-anchor="middle" x="550" y="-117" font-family="Helvetica,sans-Serif" font-size="10.00">string</text>
</a>
</g>
</g>
<!-- Node9&#45;&gt;Node10 -->
<g id="edge11_Node000009_Node000010" class="edge">
<title>Node9&#45;&gt;Node10</title>
<g id="a_edge11_Node000009_Node000010"><a xlink:title=" ">
<path fill="none" stroke="#63b8ff" d="M598.68,-164.98C590.19,-157.23 577.44,-145.58 567.12,-136.14"/>
<polygon fill="#63b8ff" stroke="#63b8ff" points="569.23,-133.33 559.49,-129.17 564.51,-138.5 569.23,-133.33"/>
</a>
</g>
</g>
<!-- Node11 -->
<g id="Node000011" class="node">
<title>Node11</title>
<g id="a_Node000011"><a xlink:title=" ">
<polygon fill="#e0e0e0" stroke="#999999" points="647.5,-129 590.5,-129 590.5,-110 647.5,-110 647.5,-129"/>
<text text-anchor="middle" x="619" y="-117" font-family="Helvetica,sans-Serif" font-size="10.00">ostream</text>
</a>
</g>
</g>
<!-- Node9&#45;&gt;Node11 -->
<g id="edge12_Node000009_Node000011" class="edge">
<title>Node9&#45;&gt;Node11</title>
<g id="a_edge12_Node000009_Node000011"><a xlink:title=" ">
<path fill="none" stroke="#63b8ff" d="M609.82,-164.75C611.26,-157.8 613.32,-147.85 615.13,-139.13"/>
<polygon fill="#63b8ff" stroke="#63b8ff" points="618.61,-139.59 617.22,-129.09 611.76,-138.17 618.61,-139.59"/>
</a>
</g>
</g>
<!-- Node9&#45;&gt;Node12 -->
<g id="edge13_Node000009_Node000012" class="edge">
<title>Node9&#45;&gt;Node12</title>
<g id="a_edge13_Node000009_Node000012"><a xlink:title=" ">
<path fill="none" stroke="#63b8ff" d="M647.31,-167.18C693.53,-159.56 772.75,-145.9 850.31,-129.01"/>
<polygon fill="#63b8ff" stroke="#63b8ff" points="851.24,-132.39 860.26,-126.83 849.74,-125.56 851.24,-132.39"/>
</a>
</g>
</g>
<!-- Node13 -->
<g id="Node000013" class="node">
<title>Node13</title>
<g id="a_Node000013"><a xlink:title=" ">
<polygon fill="#e0e0e0" stroke="#999999" points="704,-129 666,-129 666,-110 704,-110 704,-129"/>
<text text-anchor="middle" x="685" y="-117" font-family="Helvetica,sans-Serif" font-size="10.00">map</text>
</a>
</g>
</g>
<!-- Node9&#45;&gt;Node13 -->
<g id="edge14_Node000009_Node000013" class="edge">
<title>Node9&#45;&gt;Node13</title>
<g id="a_edge14_Node000009_Node000013"><a xlink:title=" ">
<path fill="none" stroke="#63b8ff" d="M620.37,-164.98C632.09,-156.92 649.92,-144.65 663.89,-135.03"/>
<polygon fill="#63b8ff" stroke="#63b8ff" points="666.15,-137.72 672.4,-129.17 662.18,-131.96 666.15,-137.72"/>
</a>
</g>
</g>
<!-- Node14 -->
<g id="Node000014" class="node">
<title>Node14</title>
<g id="a_Node000014"><a xlink:title=" ">
<polygon fill="#e0e0e0" stroke="#999999" points="774,-129 722,-129 722,-110 774,-110 774,-129"/>
<text text-anchor="middle" x="748" y="-117" font-family="Helvetica,sans-Serif" font-size="10.00">cassert</text>
</a>
</g>
</g>
<!-- Node9&#45;&gt;Node14 -->
<g id="edge15_Node000009_Node000014" class="edge">
<title>Node9&#45;&gt;Node14</title>
<g id="a_edge15_Node000009_Node000014"><a xlink:title=" ">
<path fill="none" stroke="#63b8ff" d="M630.49,-164.98C653.52,-156.27 689.54,-142.63 715.63,-132.75"/>
<polygon fill="#63b8ff" stroke="#63b8ff" points="716.98,-135.98 725.1,-129.17 714.51,-129.44 716.98,-135.98"/>
</a>
</g>
</g>
<!-- Node15 -->
<g id="Node000015" class="node">
<title>Node15</title>
<g id="a_Node000015"><a xlink:title=" ">
<polygon fill="#e0e0e0" stroke="#999999" points="842,-129 792,-129 792,-110 842,-110 842,-129"/>
<text text-anchor="middle" x="817" y="-117" font-family="Helvetica,sans-Serif" font-size="10.00">cstdint</text>
</a>
</g>
</g>
<!-- Node9&#45;&gt;Node15 -->
<g id="edge16_Node000009_Node000015" class="edge">
<title>Node9&#45;&gt;Node15</title>
<g id="a_edge16_Node000009_Node000015"><a xlink:title=" ">
<path fill="none" stroke="#63b8ff" d="M641.58,-164.98C680.03,-155.23 742.73,-139.33 781.84,-129.42"/>
<polygon fill="#63b8ff" stroke="#63b8ff" points="782.89,-132.76 791.72,-126.91 781.17,-125.98 782.89,-132.76"/>
</a>
</g>
</g>
<!-- Node16 -->
<g id="Node000016" class="node">
<title>Node16</title>
<g id="a_Node000016"><a xlink:title=" ">
<polygon fill="#e0e0e0" stroke="#999999" points="370,-129 314,-129 314,-110 370,-110 370,-129"/>
<text text-anchor="middle" x="342" y="-117" font-family="Helvetica,sans-Serif" font-size="10.00">sstream</text>
</a>
</g>
</g>
<!-- Node9&#45;&gt;Node16 -->
<g id="edge17_Node000009_Node000016" class="edge">
<title>Node9&#45;&gt;Node16</title>
<g id="a_edge17_Node000009_Node000016"><a xlink:title=" ">
<path fill="none" stroke="#63b8ff" d="M568.61,-166.27C524.97,-158.16 452.27,-144.38 380.39,-129.24"/>
<polygon fill="#63b8ff" stroke="#63b8ff" points="380.77,-125.74 370.26,-127.1 379.32,-132.59 380.77,-125.74"/>
</a>
</g>
</g>
<!-- Node17 -->
<g id="Node000017" class="node">
<title>Node17</title>
<g id="a_Node000017"><a xlink:title=" ">
<polygon fill="#e0e0e0" stroke="#999999" points="472,-129 388,-129 388,-110 472,-110 472,-129"/>
<text text-anchor="middle" x="430" y="-117" font-family="Helvetica,sans-Serif" font-size="10.00">realm/utils.inl</text>
</a>
</g>
</g>
<!-- Node9&#45;&gt;Node17 -->
<g id="edge18_Node000009_Node000017" class="edge">
<title>Node9&#45;&gt;Node17</title>
<g id="a_edge18_Node000009_Node000017"><a xlink:title=" ">
<path fill="none" stroke="#63b8ff" d="M579.4,-164.98C549.39,-156.05 502.02,-141.94 468.68,-132.02"/>
<polygon fill="#63b8ff" stroke="#63b8ff" points="469.41,-128.58 458.82,-129.08 467.41,-135.29 469.41,-128.58"/>
</a>
</g>
</g>
<!-- Node18&#45;&gt;Node6 -->
<g id="edge20_Node000018_Node000006" class="edge">
<title>Node18&#45;&gt;Node6</title>
<g id="a_edge20_Node000018_Node000006"><a xlink:title=" ">
<path fill="none" stroke="#63b8ff" d="M162.99,-164.98C140.55,-156.3 105.52,-142.75 80.01,-132.88"/>
<polygon fill="#63b8ff" stroke="#63b8ff" points="81,-129.51 70.41,-129.17 78.48,-136.04 81,-129.51"/>
</a>
</g>
</g>
<!-- Node18&#45;&gt;Node7 -->
<g id="edge21_Node000018_Node000007" class="edge">
<title>Node18&#45;&gt;Node7</title>
<g id="a_edge21_Node000018_Node000007"><a xlink:title=" ">
<path fill="none" stroke="#63b8ff" d="M174.62,-164.98C165.15,-156.69 151.39,-143.29 143,-129 134.77,-114.98 129.55,-97.2 126.51,-84.03"/>
<polygon fill="#63b8ff" stroke="#63b8ff" points="129.93,-83.29 124.46,-74.22 123.08,-84.73 129.93,-83.29"/>
</a>
</g>
</g>
<!-- Node18&#45;&gt;Node19 -->
<g id="edge22_Node000018_Node000019" class="edge">
<title>Node18&#45;&gt;Node19</title>
<g id="a_edge22_Node000018_Node000019"><a xlink:title=" ">
<path fill="none" stroke="#63b8ff" d="M198.01,-164.98C210.46,-156.84 229.46,-144.41 244.21,-134.76"/>
<polygon fill="#63b8ff" stroke="#63b8ff" points="246.3,-137.57 252.75,-129.17 242.46,-131.72 246.3,-137.57"/>
</a>
</g>
</g>
<!-- Node20 -->
<g id="Node000020" class="node">
<title>Node20</title>
<g id="a_Node000020"><a xlink:title=" ">
<polygon fill="#e0e0e0" stroke="#999999" points="217.5,-129 152.5,-129 152.5,-110 217.5,-110 217.5,-129"/>
<text text-anchor="middle" x="185" y="-117" font-family="Helvetica,sans-Serif" font-size="10.00">functional</text>
</a>
</g>
</g>
<!-- Node18&#45;&gt;Node20 -->
<g id="edge23_Node000018_Node000020" class="edge">
<title>Node18&#45;&gt;Node20</title>
<g id="a_edge23_Node000018_Node000020"><a xlink:title=" ">
<path fill="none" stroke="#63b8ff" d="M185,-164.75C185,-157.8 185,-147.85 185,-139.13"/>
<polygon fill="#63b8ff" stroke="#63b8ff" points="188.5,-139.09 185,-129.09 181.5,-139.09 188.5,-139.09"/>
</a>
</g>
</g>
<!-- Node23&#45;&gt;Node2 -->
<g id="edge29_Node000023_Node000002" class="edge">
<title>Node23&#45;&gt;Node2</title>
<g id="a_edge29_Node000023_Node000002"><a xlink:title=" ">
<path fill="none" stroke="#63b8ff" d="M1049.36,-219.94C1083.6,-211.91 1128.3,-198.94 1139,-184 1143.92,-177.14 1144.07,-171.75 1139,-165 1097.4,-109.57 897,-82.35 788.36,-71.47"/>
<polygon fill="#63b8ff" stroke="#63b8ff" points="788.44,-67.96 778.14,-70.47 787.76,-74.93 788.44,-67.96"/>
</a>
</g>
</g>
<!-- Node24 -->
<g id="Node000024" class="node">
<title>Node24</title>
<g id="a_Node000024"><a xlink:title=" ">
<polygon fill="#e0e0e0" stroke="#999999" points="1010,-184 960,-184 960,-165 1010,-165 1010,-184"/>
<text text-anchor="middle" x="985" y="-172" font-family="Helvetica,sans-Serif" font-size="10.00">atomic</text>
</a>
</g>
</g>
<!-- Node23&#45;&gt;Node24 -->
<g id="edge30_Node000023_Node000024" class="edge">
<title>Node23&#45;&gt;Node24</title>
<g id="a_edge30_Node000023_Node000024"><a xlink:title=" ">
<path fill="none" stroke="#63b8ff" d="M1004.2,-219.75C1001.09,-212.57 996.58,-202.18 992.71,-193.27"/>
<polygon fill="#63b8ff" stroke="#63b8ff" points="995.92,-191.87 988.73,-184.09 989.5,-194.66 995.92,-191.87"/>
</a>
</g>
</g>
<!-- Node25 -->
<g id="Node000025" class="node">
<title>Node25</title>
<g id="a_Node000025"><a xlink:title=" ">
<polygon fill="#e0e0e0" stroke="#999999" points="1130,-184 1028,-184 1028,-165 1130,-165 1130,-184"/>
<text text-anchor="middle" x="1079" y="-172" font-family="Helvetica,sans-Serif" font-size="10.00">realm/atomics.inl</text>
</a>
</g>
</g>
<!-- Node23&#45;&gt;Node25 -->
<g id="edge31_Node000023_Node000025" class="edge">
<title>Node23&#45;&gt;Node25</title>
<g id="a_edge31_Node000023_Node000025"><a xlink:title=" ">
<path fill="none" stroke="#63b8ff" d="M1019.41,-219.98C1030.11,-212 1046.34,-199.88 1059.16,-190.31"/>
<polygon fill="#63b8ff" stroke="#63b8ff" points="1061.47,-192.96 1067.39,-184.17 1057.28,-187.35 1061.47,-192.96"/>
</a>
</g>
</g>
</g>
</svg>
