<?xml version="1.0" encoding="UTF-8" standalone="no"?>
<!DOCTYPE svg PUBLIC "-//W3C//DTD SVG 1.1//EN"
 "http://www.w3.org/Graphics/SVG/1.1/DTD/svg11.dtd">
<!-- Generated by graphviz version 2.43.0 (0)
 -->
<!-- Title: /home/runner/work/realm/realm/realm&#45;src/src/realm/sparsity.h Pages: 1 -->
<svg width="1028pt" height="324pt"
 viewBox="0.00 0.00 1027.50 324.00" xmlns="http://www.w3.org/2000/svg" xmlns:xlink="http://www.w3.org/1999/xlink">
<g id="graph0" class="graph" transform="scale(1 1) rotate(0) translate(4 320)">
<title>/home/runner/work/realm/realm/realm&#45;src/src/realm/sparsity.h</title>
<!-- Node1 -->
<g id="Node000001" class="node">
<title>Node1</title>
<g id="a_Node000001"><a xlink:title=" ">
<polygon fill="#999999" stroke="#666666" points="660,-316 514,-316 514,-275 660,-275 660,-316"/>
<text text-anchor="start" x="522" y="-304" font-family="Helvetica,sans-Serif" font-size="10.00">/home/runner/work/realm</text>
<text text-anchor="start" x="522" y="-293" font-family="Helvetica,sans-Serif" font-size="10.00">/realm/realm&#45;src/src/realm</text>
<text text-anchor="middle" x="587" y="-282" font-family="Helvetica,sans-Serif" font-size="10.00">/sparsity.h</text>
</a>
</g>
</g>
<!-- Node2 -->
<g id="Node000002" class="node">
<title>Node2</title>
<g id="a_Node000002"><a xlink:href="realm__config_8h.html" target="_top" xlink:title=" ">
<polygon fill="white" stroke="#666666" points="893,-74 773,-74 773,-55 893,-55 893,-74"/>
<text text-anchor="middle" x="833" y="-62" font-family="Helvetica,sans-Serif" font-size="10.00">realm/realm_config.h</text>
</a>
</g>
</g>
<!-- Node1&#45;&gt;Node2 -->
<g id="edge1_Node000001_Node000002" class="edge">
<title>Node1&#45;&gt;Node2</title>
<g id="a_edge1_Node000001_Node000002"><a xlink:title=" ">
<path fill="none" stroke="#63b8ff" d="M660.19,-282.21C716.67,-268.55 791.47,-240.46 830,-184 849.02,-156.13 852.12,-143.35 847,-110 845.65,-101.19 842.87,-91.74 840.15,-83.82"/>
<polygon fill="#63b8ff" stroke="#63b8ff" points="843.34,-82.35 836.6,-74.18 836.77,-84.77 843.34,-82.35"/>
</a>
</g>
</g>
<!-- Node5 -->
<g id="Node000005" class="node">
<title>Node5</title>
<g id="a_Node000005"><a xlink:href="event_8h.html" target="_top" xlink:title=" ">
<polygon fill="white" stroke="#666666" points="321.5,-239 236.5,-239 236.5,-220 321.5,-220 321.5,-239"/>
<text text-anchor="middle" x="279" y="-227" font-family="Helvetica,sans-Serif" font-size="10.00">realm/event.h</text>
</a>
</g>
</g>
<!-- Node1&#45;&gt;Node5 -->
<g id="edge4_Node000001_Node000005" class="edge">
<title>Node1&#45;&gt;Node5</title>
<g id="a_edge4_Node000001_Node000005"><a xlink:title=" ">
<path fill="none" stroke="#63b8ff" d="M513.62,-279.25C457.02,-267.49 380.19,-251.53 330.12,-241.12"/>
<polygon fill="#63b8ff" stroke="#63b8ff" points="330.66,-237.66 320.16,-239.05 329.24,-244.51 330.66,-237.66"/>
</a>
</g>
</g>
<!-- Node12 -->
<g id="Node000012" class="node">
<title>Node12</title>
<g id="a_Node000012"><a xlink:title=" ">
<polygon fill="#e0e0e0" stroke="#999999" points="277.5,-129 230.5,-129 230.5,-110 277.5,-110 277.5,-129"/>
<text text-anchor="middle" x="254" y="-117" font-family="Helvetica,sans-Serif" font-size="10.00">vector</text>
</a>
</g>
</g>
<!-- Node1&#45;&gt;Node12 -->
<g id="edge32_Node000001_Node000012" class="edge">
<title>Node1&#45;&gt;Node12</title>
<g id="a_edge32_Node000001_Node000012"><a xlink:title=" ">
<path fill="none" stroke="#63b8ff" d="M569.46,-274.54C543.14,-245.87 490.58,-193.38 435,-165 377.42,-135.6 354.73,-144.52 287.56,-129.02"/>
<polygon fill="#63b8ff" stroke="#63b8ff" points="288.32,-125.61 277.78,-126.67 286.69,-132.41 288.32,-125.61"/>
</a>
</g>
</g>
<!-- Node19 -->
<g id="Node000019" class="node">
<title>Node19</title>
<g id="a_Node000019"><a xlink:title=" ">
<polygon fill="#e0e0e0" stroke="#999999" points="60,-129 0,-129 0,-110 60,-110 60,-129"/>
<text text-anchor="middle" x="30" y="-117" font-family="Helvetica,sans-Serif" font-size="10.00">iostream</text>
</a>
</g>
</g>
<!-- Node1&#45;&gt;Node19 -->
<g id="edge31_Node000001_Node000019" class="edge">
<title>Node1&#45;&gt;Node19</title>
<g id="a_edge31_Node000001_Node000019"><a xlink:title=" ">
<path fill="none" stroke="#63b8ff" d="M513.85,-288.27C384.85,-275.86 124.29,-243.93 58,-184 45.02,-172.27 37.76,-153.42 33.9,-139.3"/>
<polygon fill="#63b8ff" stroke="#63b8ff" points="37.22,-138.13 31.5,-129.22 30.41,-139.75 37.22,-138.13"/>
</a>
</g>
</g>
<!-- Node22 -->
<g id="Node000022" class="node">
<title>Node22</title>
<g id="a_Node000022"><a xlink:href="atomics_8h.html" target="_top" xlink:title=" ">
<polygon fill="white" stroke="#666666" points="752,-239 656,-239 656,-220 752,-220 752,-239"/>
<text text-anchor="middle" x="704" y="-227" font-family="Helvetica,sans-Serif" font-size="10.00">realm/atomics.h</text>
</a>
</g>
</g>
<!-- Node1&#45;&gt;Node22 -->
<g id="edge27_Node000001_Node000022" class="edge">
<title>Node1&#45;&gt;Node22</title>
<g id="a_edge27_Node000001_Node000022"><a xlink:title=" ">
<path fill="none" stroke="#63b8ff" d="M622.74,-274.95C641.05,-264.93 662.89,-252.99 679.32,-244"/>
<polygon fill="#63b8ff" stroke="#63b8ff" points="681.2,-246.96 688.29,-239.09 677.84,-240.82 681.2,-246.96"/>
</a>
</g>
</g>
<!-- Node25 -->
<g id="Node000025" class="node">
<title>Node25</title>
<g id="a_Node000025"><a xlink:title=" ">
<polygon fill="#e0e0e0" stroke="#999999" points="1019.5,-239 918.5,-239 918.5,-220 1019.5,-220 1019.5,-239"/>
<text text-anchor="middle" x="969" y="-227" font-family="Helvetica,sans-Serif" font-size="10.00">realm/sparsity.inl</text>
</a>
</g>
</g>
<!-- Node1&#45;&gt;Node25 -->
<g id="edge33_Node000001_Node000025" class="edge">
<title>Node1&#45;&gt;Node25</title>
<g id="a_edge33_Node000001_Node000025"><a xlink:title=" ">
<path fill="none" stroke="#63b8ff" d="M660.2,-282.24C732.22,-270.17 840.9,-251.96 908.27,-240.67"/>
<polygon fill="#63b8ff" stroke="#63b8ff" points="909.02,-244.1 918.31,-238.99 907.87,-237.19 909.02,-244.1"/>
</a>
</g>
</g>
<!-- Node3 -->
<g id="Node000003" class="node">
<title>Node3</title>
<g id="a_Node000003"><a xlink:href="realm__defines_8h.html" target="_top" xlink:title=" ">
<polygon fill="white" stroke="#666666" points="811.5,-19 716.5,-19 716.5,0 811.5,0 811.5,-19"/>
<text text-anchor="middle" x="764" y="-7" font-family="Helvetica,sans-Serif" font-size="10.00">realm_defines.h</text>
</a>
</g>
</g>
<!-- Node2&#45;&gt;Node3 -->
<g id="edge2_Node000002_Node000003" class="edge">
<title>Node2&#45;&gt;Node3</title>
<g id="a_edge2_Node000002_Node000003"><a xlink:title=" ">
<path fill="none" stroke="#63b8ff" d="M821.91,-54.98C811.51,-47 795.74,-34.88 783.28,-25.31"/>
<polygon fill="#63b8ff" stroke="#63b8ff" points="785.35,-22.49 775.29,-19.17 781.09,-28.04 785.35,-22.49"/>
</a>
</g>
</g>
<!-- Node4 -->
<g id="Node000004" class="node">
<title>Node4</title>
<g id="a_Node000004"><a xlink:href="compiler__support_8h.html" target="_top" xlink:title=" ">
<polygon fill="white" stroke="#666666" points="972,-19 830,-19 830,0 972,0 972,-19"/>
<text text-anchor="middle" x="901" y="-7" font-family="Helvetica,sans-Serif" font-size="10.00">realm/compiler_support.h</text>
</a>
</g>
</g>
<!-- Node2&#45;&gt;Node4 -->
<g id="edge3_Node000002_Node000004" class="edge">
<title>Node2&#45;&gt;Node4</title>
<g id="a_edge3_Node000002_Node000004"><a xlink:title=" ">
<path fill="none" stroke="#63b8ff" d="M843.93,-54.98C854.08,-47.07 869.42,-35.11 881.65,-25.58"/>
<polygon fill="#63b8ff" stroke="#63b8ff" points="884.14,-28.08 889.88,-19.17 879.84,-22.56 884.14,-28.08"/>
</a>
</g>
</g>
<!-- Node6 -->
<g id="Node000006" class="node">
<title>Node6</title>
<g id="a_Node000006"><a xlink:href="realm__c_8h.html" target="_top" xlink:title=" ">
<polygon fill="white" stroke="#666666" points="212,-129 116,-129 116,-110 212,-110 212,-129"/>
<text text-anchor="middle" x="164" y="-117" font-family="Helvetica,sans-Serif" font-size="10.00">realm/realm_c.h</text>
</a>
</g>
</g>
<!-- Node5&#45;&gt;Node6 -->
<g id="edge5_Node000005_Node000006" class="edge">
<title>Node5&#45;&gt;Node6</title>
<g id="a_edge5_Node000005_Node000006"><a xlink:title=" ">
<path fill="none" stroke="#63b8ff" d="M269.59,-219.66C250.12,-201.38 205.19,-159.18 180.68,-136.17"/>
<polygon fill="#63b8ff" stroke="#63b8ff" points="182.91,-133.45 173.22,-129.16 178.11,-138.56 182.91,-133.45"/>
</a>
</g>
</g>
<!-- Node9 -->
<g id="Node000009" class="node">
<title>Node9</title>
<g id="a_Node000009"><a xlink:href="utils_8h.html" target="_top" xlink:title=" ">
<polygon fill="white" stroke="#666666" points="592,-184 514,-184 514,-165 592,-165 592,-184"/>
<text text-anchor="middle" x="553" y="-172" font-family="Helvetica,sans-Serif" font-size="10.00">realm/utils.h</text>
</a>
</g>
</g>
<!-- Node5&#45;&gt;Node9 -->
<g id="edge9_Node000005_Node000009" class="edge">
<title>Node5&#45;&gt;Node9</title>
<g id="a_edge9_Node000005_Node000009"><a xlink:title=" ">
<path fill="none" stroke="#63b8ff" d="M321.51,-220.28C370.83,-210.74 452.01,-195.03 503.96,-184.99"/>
<polygon fill="#63b8ff" stroke="#63b8ff" points="504.79,-188.39 513.94,-183.06 503.46,-181.52 504.79,-188.39"/>
</a>
</g>
</g>
<!-- Node5&#45;&gt;Node12 -->
<g id="edge23_Node000005_Node000012" class="edge">
<title>Node5&#45;&gt;Node12</title>
<g id="a_edge23_Node000005_Node000012"><a xlink:title=" ">
<path fill="none" stroke="#63b8ff" d="M276.95,-219.66C272.89,-202.09 263.71,-162.45 258.27,-138.95"/>
<polygon fill="#63b8ff" stroke="#63b8ff" points="261.67,-138.11 256,-129.16 254.85,-139.69 261.67,-138.11"/>
</a>
</g>
</g>
<!-- Node18 -->
<g id="Node000018" class="node">
<title>Node18</title>
<g id="a_Node000018"><a xlink:href="memory_8h.html" target="_top" xlink:title=" ">
<polygon fill="white" stroke="#666666" points="190.5,-184 93.5,-184 93.5,-165 190.5,-165 190.5,-184"/>
<text text-anchor="middle" x="142" y="-172" font-family="Helvetica,sans-Serif" font-size="10.00">realm/memory.h</text>
</a>
</g>
</g>
<!-- Node5&#45;&gt;Node18 -->
<g id="edge19_Node000005_Node000018" class="edge">
<title>Node5&#45;&gt;Node18</title>
<g id="a_edge19_Node000005_Node000018"><a xlink:title=" ">
<path fill="none" stroke="#63b8ff" d="M256.99,-219.98C234.55,-211.3 199.52,-197.75 174.01,-187.88"/>
<polygon fill="#63b8ff" stroke="#63b8ff" points="175,-184.51 164.41,-184.17 172.48,-191.04 175,-184.51"/>
</a>
</g>
</g>
<!-- Node5&#45;&gt;Node19 -->
<g id="edge25_Node000005_Node000019" class="edge">
<title>Node5&#45;&gt;Node19</title>
<g id="a_edge25_Node000005_Node000019"><a xlink:title=" ">
<path fill="none" stroke="#63b8ff" d="M236.17,-226.47C194.6,-222.8 131.06,-212.54 84,-184 65.12,-172.55 49.56,-152.19 40.08,-137.61"/>
<polygon fill="#63b8ff" stroke="#63b8ff" points="42.99,-135.67 34.74,-129.02 37.04,-139.36 42.99,-135.67"/>
</a>
</g>
</g>
<!-- Node20 -->
<g id="Node000020" class="node">
<title>Node20</title>
<g id="a_Node000020"><a xlink:title=" ">
<polygon fill="#e0e0e0" stroke="#999999" points="317,-184 285,-184 285,-165 317,-165 317,-184"/>
<text text-anchor="middle" x="301" y="-172" font-family="Helvetica,sans-Serif" font-size="10.00">set</text>
</a>
</g>
</g>
<!-- Node5&#45;&gt;Node20 -->
<g id="edge24_Node000005_Node000020" class="edge">
<title>Node5&#45;&gt;Node20</title>
<g id="a_edge24_Node000005_Node000020"><a xlink:title=" ">
<path fill="none" stroke="#63b8ff" d="M282.63,-219.75C285.58,-212.65 289.83,-202.4 293.51,-193.56"/>
<polygon fill="#63b8ff" stroke="#63b8ff" points="296.83,-194.67 297.43,-184.09 290.37,-191.98 296.83,-194.67"/>
</a>
</g>
</g>
<!-- Node21 -->
<g id="Node000021" class="node">
<title>Node21</title>
<g id="a_Node000021"><a xlink:title=" ">
<polygon fill="#e0e0e0" stroke="#999999" points="426.5,-184 335.5,-184 335.5,-165 426.5,-165 426.5,-184"/>
<text text-anchor="middle" x="381" y="-172" font-family="Helvetica,sans-Serif" font-size="10.00">realm/event.inl</text>
</a>
</g>
</g>
<!-- Node5&#45;&gt;Node21 -->
<g id="edge26_Node000005_Node000021" class="edge">
<title>Node5&#45;&gt;Node21</title>
<g id="a_edge26_Node000005_Node000021"><a xlink:title=" ">
<path fill="none" stroke="#63b8ff" d="M295.39,-219.98C311.57,-211.57 336.57,-198.59 355.38,-188.81"/>
<polygon fill="#63b8ff" stroke="#63b8ff" points="357.05,-191.89 364.31,-184.17 353.83,-185.68 357.05,-191.89"/>
</a>
</g>
</g>
<!-- Node6&#45;&gt;Node2 -->
<g id="edge6_Node000006_Node000002" class="edge">
<title>Node6&#45;&gt;Node2</title>
<g id="a_edge6_Node000006_Node000002"><a xlink:title=" ">
<path fill="none" stroke="#63b8ff" d="M212.17,-111.06C215.15,-110.68 218.12,-110.32 221,-110 416.6,-88.34 648.59,-74.77 762.6,-68.89"/>
<polygon fill="#63b8ff" stroke="#63b8ff" points="763.11,-72.37 772.92,-68.36 762.76,-65.38 763.11,-72.37"/>
</a>
</g>
</g>
<!-- Node7 -->
<g id="Node000007" class="node">
<title>Node7</title>
<g id="a_Node000007"><a xlink:title=" ">
<polygon fill="#e0e0e0" stroke="#999999" points="118,-74 62,-74 62,-55 118,-55 118,-74"/>
<text text-anchor="middle" x="90" y="-62" font-family="Helvetica,sans-Serif" font-size="10.00">stddef.h</text>
</a>
</g>
</g>
<!-- Node6&#45;&gt;Node7 -->
<g id="edge7_Node000006_Node000007" class="edge">
<title>Node6&#45;&gt;Node7</title>
<g id="a_edge7_Node000006_Node000007"><a xlink:title=" ">
<path fill="none" stroke="#63b8ff" d="M152.11,-109.98C140.85,-101.92 123.71,-89.65 110.29,-80.03"/>
<polygon fill="#63b8ff" stroke="#63b8ff" points="112.27,-77.15 102.11,-74.17 108.2,-82.84 112.27,-77.15"/>
</a>
</g>
</g>
<!-- Node8 -->
<g id="Node000008" class="node">
<title>Node8</title>
<g id="a_Node000008"><a xlink:title=" ">
<polygon fill="#e0e0e0" stroke="#999999" points="190.5,-74 137.5,-74 137.5,-55 190.5,-55 190.5,-74"/>
<text text-anchor="middle" x="164" y="-62" font-family="Helvetica,sans-Serif" font-size="10.00">stdint.h</text>
</a>
</g>
</g>
<!-- Node6&#45;&gt;Node8 -->
<g id="edge8_Node000006_Node000008" class="edge">
<title>Node6&#45;&gt;Node8</title>
<g id="a_edge8_Node000006_Node000008"><a xlink:title=" ">
<path fill="none" stroke="#63b8ff" d="M164,-109.75C164,-102.8 164,-92.85 164,-84.13"/>
<polygon fill="#63b8ff" stroke="#63b8ff" points="167.5,-84.09 164,-74.09 160.5,-84.09 167.5,-84.09"/>
</a>
</g>
</g>
<!-- Node9&#45;&gt;Node2 -->
<g id="edge10_Node000009_Node000002" class="edge">
<title>Node9&#45;&gt;Node2</title>
<g id="a_edge10_Node000009_Node000002"><a xlink:title=" ">
<path fill="none" stroke="#63b8ff" d="M592.17,-168.1C656.38,-158.98 778.55,-140.42 795,-129 810.8,-118.04 821.11,-98.19 826.95,-83.59"/>
<polygon fill="#63b8ff" stroke="#63b8ff" points="830.28,-84.68 830.43,-74.09 823.71,-82.28 830.28,-84.68"/>
</a>
</g>
</g>
<!-- Node10 -->
<g id="Node000010" class="node">
<title>Node10</title>
<g id="a_Node000010"><a xlink:title=" ">
<polygon fill="#e0e0e0" stroke="#999999" points="340,-129 296,-129 296,-110 340,-110 340,-129"/>
<text text-anchor="middle" x="318" y="-117" font-family="Helvetica,sans-Serif" font-size="10.00">string</text>
</a>
</g>
</g>
<!-- Node9&#45;&gt;Node10 -->
<g id="edge11_Node000009_Node000010" class="edge">
<title>Node9&#45;&gt;Node10</title>
<g id="a_edge11_Node000009_Node000010"><a xlink:title=" ">
<path fill="none" stroke="#63b8ff" d="M513.75,-165.58C474.66,-157.55 412.72,-144.44 350.33,-129.23"/>
<polygon fill="#63b8ff" stroke="#63b8ff" points="350.86,-125.76 340.31,-126.77 349.19,-132.55 350.86,-125.76"/>
</a>
</g>
</g>
<!-- Node11 -->
<g id="Node000011" class="node">
<title>Node11</title>
<g id="a_Node000011"><a xlink:title=" ">
<polygon fill="#e0e0e0" stroke="#999999" points="591.5,-129 534.5,-129 534.5,-110 591.5,-110 591.5,-129"/>
<text text-anchor="middle" x="563" y="-117" font-family="Helvetica,sans-Serif" font-size="10.00">ostream</text>
</a>
</g>
</g>
<!-- Node9&#45;&gt;Node11 -->
<g id="edge12_Node000009_Node000011" class="edge">
<title>Node9&#45;&gt;Node11</title>
<g id="a_edge12_Node000009_Node000011"><a xlink:title=" ">
<path fill="none" stroke="#63b8ff" d="M554.65,-164.75C555.96,-157.8 557.84,-147.85 559.48,-139.13"/>
<polygon fill="#63b8ff" stroke="#63b8ff" points="562.96,-139.56 561.38,-129.09 556.09,-138.27 562.96,-139.56"/>
</a>
</g>
</g>
<!-- Node9&#45;&gt;Node12 -->
<g id="edge13_Node000009_Node000012" class="edge">
<title>Node9&#45;&gt;Node12</title>
<g id="a_edge13_Node000009_Node000012"><a xlink:title=" ">
<path fill="none" stroke="#63b8ff" d="M513.59,-167.99C463.42,-160.75 373.89,-147.01 287.68,-128.98"/>
<polygon fill="#63b8ff" stroke="#63b8ff" points="288.24,-125.52 277.74,-126.87 286.79,-132.37 288.24,-125.52"/>
</a>
</g>
</g>
<!-- Node13 -->
<g id="Node000013" class="node">
<title>Node13</title>
<g id="a_Node000013"><a xlink:title=" ">
<polygon fill="#e0e0e0" stroke="#999999" points="648,-129 610,-129 610,-110 648,-110 648,-129"/>
<text text-anchor="middle" x="629" y="-117" font-family="Helvetica,sans-Serif" font-size="10.00">map</text>
</a>
</g>
</g>
<!-- Node9&#45;&gt;Node13 -->
<g id="edge14_Node000009_Node000013" class="edge">
<title>Node9&#45;&gt;Node13</title>
<g id="a_edge14_Node000009_Node000013"><a xlink:title=" ">
<path fill="none" stroke="#63b8ff" d="M565.21,-164.98C576.78,-156.92 594.38,-144.65 608.16,-135.03"/>
<polygon fill="#63b8ff" stroke="#63b8ff" points="610.37,-137.76 616.57,-129.17 606.36,-132.02 610.37,-137.76"/>
</a>
</g>
</g>
<!-- Node14 -->
<g id="Node000014" class="node">
<title>Node14</title>
<g id="a_Node000014"><a xlink:title=" ">
<polygon fill="#e0e0e0" stroke="#999999" points="718,-129 666,-129 666,-110 718,-110 718,-129"/>
<text text-anchor="middle" x="692" y="-117" font-family="Helvetica,sans-Serif" font-size="10.00">cassert</text>
</a>
</g>
</g>
<!-- Node9&#45;&gt;Node14 -->
<g id="edge15_Node000009_Node000014" class="edge">
<title>Node9&#45;&gt;Node14</title>
<g id="a_edge15_Node000009_Node000014"><a xlink:title=" ">
<path fill="none" stroke="#63b8ff" d="M575.33,-164.98C598.2,-156.27 633.96,-142.63 659.86,-132.75"/>
<polygon fill="#63b8ff" stroke="#63b8ff" points="661.16,-136 669.26,-129.17 658.67,-129.46 661.16,-136"/>
</a>
</g>
</g>
<!-- Node15 -->
<g id="Node000015" class="node">
<title>Node15</title>
<g id="a_Node000015"><a xlink:title=" ">
<polygon fill="#e0e0e0" stroke="#999999" points="786,-129 736,-129 736,-110 786,-110 786,-129"/>
<text text-anchor="middle" x="761" y="-117" font-family="Helvetica,sans-Serif" font-size="10.00">cstdint</text>
</a>
</g>
</g>
<!-- Node9&#45;&gt;Node15 -->
<g id="edge16_Node000009_Node000015" class="edge">
<title>Node9&#45;&gt;Node15</title>
<g id="a_edge16_Node000009_Node000015"><a xlink:title=" ">
<path fill="none" stroke="#63b8ff" d="M586.42,-164.98C624.69,-155.23 687.09,-139.33 726.01,-129.42"/>
<polygon fill="#63b8ff" stroke="#63b8ff" points="727.01,-132.77 735.84,-126.91 725.29,-125.99 727.01,-132.77"/>
</a>
</g>
</g>
<!-- Node16 -->
<g id="Node000016" class="node">
<title>Node16</title>
<g id="a_Node000016"><a xlink:title=" ">
<polygon fill="#e0e0e0" stroke="#999999" points="414,-129 358,-129 358,-110 414,-110 414,-129"/>
<text text-anchor="middle" x="386" y="-117" font-family="Helvetica,sans-Serif" font-size="10.00">sstream</text>
</a>
</g>
</g>
<!-- Node9&#45;&gt;Node16 -->
<g id="edge17_Node000009_Node000016" class="edge">
<title>Node9&#45;&gt;Node16</title>
<g id="a_edge17_Node000009_Node000016"><a xlink:title=" ">
<path fill="none" stroke="#63b8ff" d="M526.17,-164.98C498.13,-156.09 453.95,-142.07 422.7,-132.15"/>
<polygon fill="#63b8ff" stroke="#63b8ff" points="423.63,-128.77 413.04,-129.08 421.51,-135.44 423.63,-128.77"/>
</a>
</g>
</g>
<!-- Node17 -->
<g id="Node000017" class="node">
<title>Node17</title>
<g id="a_Node000017"><a xlink:title=" ">
<polygon fill="#e0e0e0" stroke="#999999" points="516,-129 432,-129 432,-110 516,-110 516,-129"/>
<text text-anchor="middle" x="474" y="-117" font-family="Helvetica,sans-Serif" font-size="10.00">realm/utils.inl</text>
</a>
</g>
</g>
<!-- Node9&#45;&gt;Node17 -->
<g id="edge18_Node000009_Node000017" class="edge">
<title>Node9&#45;&gt;Node17</title>
<g id="a_edge18_Node000009_Node000017"><a xlink:title=" ">
<path fill="none" stroke="#63b8ff" d="M540.31,-164.98C528.17,-156.84 509.64,-144.41 495.25,-134.76"/>
<polygon fill="#63b8ff" stroke="#63b8ff" points="497.18,-131.84 486.92,-129.17 493.28,-137.65 497.18,-131.84"/>
</a>
</g>
</g>
<!-- Node18&#45;&gt;Node6 -->
<g id="edge20_Node000018_Node000006" class="edge">
<title>Node18&#45;&gt;Node6</title>
<g id="a_edge20_Node000018_Node000006"><a xlink:title=" ">
<path fill="none" stroke="#63b8ff" d="M145.63,-164.75C148.58,-157.65 152.83,-147.4 156.51,-138.56"/>
<polygon fill="#63b8ff" stroke="#63b8ff" points="159.83,-139.67 160.43,-129.09 153.37,-136.98 159.83,-139.67"/>
</a>
</g>
</g>
<!-- Node18&#45;&gt;Node7 -->
<g id="edge21_Node000018_Node000007" class="edge">
<title>Node18&#45;&gt;Node7</title>
<g id="a_edge21_Node000018_Node000007"><a xlink:title=" ">
<path fill="none" stroke="#63b8ff" d="M133.29,-164.71C125.36,-156.24 113.86,-142.71 107,-129 99.89,-114.79 95.48,-97.26 92.95,-84.22"/>
<polygon fill="#63b8ff" stroke="#63b8ff" points="96.35,-83.35 91.17,-74.11 89.45,-84.56 96.35,-83.35"/>
</a>
</g>
</g>
<!-- Node18&#45;&gt;Node19 -->
<g id="edge22_Node000018_Node000019" class="edge">
<title>Node18&#45;&gt;Node19</title>
<g id="a_edge22_Node000018_Node000019"><a xlink:title=" ">
<path fill="none" stroke="#63b8ff" d="M124.01,-164.98C106.07,-156.5 78.28,-143.35 57.57,-133.54"/>
<polygon fill="#63b8ff" stroke="#63b8ff" points="58.86,-130.28 48.32,-129.17 55.86,-136.61 58.86,-130.28"/>
</a>
</g>
</g>
<!-- Node22&#45;&gt;Node2 -->
<g id="edge28_Node000022_Node000002" class="edge">
<title>Node22&#45;&gt;Node2</title>
<g id="a_edge28_Node000022_Node000002"><a xlink:title=" ">
<path fill="none" stroke="#63b8ff" d="M749.93,-219.98C771.56,-213.63 795.88,-202.69 811,-184 834.28,-155.22 835.89,-109.63 834.66,-84.2"/>
<polygon fill="#63b8ff" stroke="#63b8ff" points="838.15,-83.81 833.97,-74.07 831.16,-84.29 838.15,-83.81"/>
</a>
</g>
</g>
<!-- Node23 -->
<g id="Node000023" class="node">
<title>Node23</title>
<g id="a_Node000023"><a xlink:title=" ">
<polygon fill="#e0e0e0" stroke="#999999" points="682,-184 632,-184 632,-165 682,-165 682,-184"/>
<text text-anchor="middle" x="657" y="-172" font-family="Helvetica,sans-Serif" font-size="10.00">atomic</text>
</a>
</g>
</g>
<!-- Node22&#45;&gt;Node23 -->
<g id="edge29_Node000022_Node000023" class="edge">
<title>Node22&#45;&gt;Node23</title>
<g id="a_edge29_Node000022_Node000023"><a xlink:title=" ">
<path fill="none" stroke="#63b8ff" d="M696.24,-219.75C689.53,-212.18 679.66,-201.05 671.49,-191.84"/>
<polygon fill="#63b8ff" stroke="#63b8ff" points="673.87,-189.25 664.62,-184.09 668.63,-193.89 673.87,-189.25"/>
</a>
</g>
</g>
<!-- Node24 -->
<g id="Node000024" class="node">
<title>Node24</title>
<g id="a_Node000024"><a xlink:title=" ">
<polygon fill="#e0e0e0" stroke="#999999" points="802,-184 700,-184 700,-165 802,-165 802,-184"/>
<text text-anchor="middle" x="751" y="-172" font-family="Helvetica,sans-Serif" font-size="10.00">realm/atomics.inl</text>
</a>
</g>
</g>
<!-- Node22&#45;&gt;Node24 -->
<g id="edge30_Node000022_Node000024" class="edge">
<title>Node22&#45;&gt;Node24</title>
<g id="a_edge30_Node000022_Node000024"><a xlink:title=" ">
<path fill="none" stroke="#63b8ff" d="M711.76,-219.75C718.47,-212.18 728.34,-201.05 736.51,-191.84"/>
<polygon fill="#63b8ff" stroke="#63b8ff" points="739.37,-193.89 743.38,-184.09 734.13,-189.25 739.37,-193.89"/>
</a>
</g>
</g>
</g>
</svg>
