<?xml version="1.0" encoding="UTF-8" standalone="no"?>
<!DOCTYPE svg PUBLIC "-//W3C//DTD SVG 1.1//EN"
 "http://www.w3.org/Graphics/SVG/1.1/DTD/svg11.dtd">
<!-- Generated by graphviz version 2.43.0 (0)
 -->
<!-- Title: /home/runner/work/realm/realm/realm&#45;src/src/realm/ucx/spinlock.h Pages: 1 -->
<svg width="204pt" height="203pt"
 viewBox="0.00 0.00 204.00 203.00" xmlns="http://www.w3.org/2000/svg" xmlns:xlink="http://www.w3.org/1999/xlink">
<g id="graph0" class="graph" transform="scale(1 1) rotate(0) translate(4 199)">
<title>/home/runner/work/realm/realm/realm&#45;src/src/realm/ucx/spinlock.h</title>
<!-- Node1 -->
<g id="Node000001" class="node">
<title>Node1</title>
<g id="a_Node000001"><a xlink:title=" ">
<polygon fill="#999999" stroke="#666666" points="196,-195 50,-195 50,-154 196,-154 196,-195"/>
<text text-anchor="start" x="58" y="-183" font-family="Helvetica,sans-Serif" font-size="10.00">/home/runner/work/realm</text>
<text text-anchor="start" x="58" y="-172" font-family="Helvetica,sans-Serif" font-size="10.00">/realm/realm&#45;src/src/realm</text>
<text text-anchor="middle" x="123" y="-161" font-family="Helvetica,sans-Serif" font-size="10.00">/ucx/spinlock.h</text>
</a>
</g>
</g>
<!-- Node2 -->
<g id="Node000002" class="node">
<title>Node2</title>
<g id="a_Node000002"><a xlink:href="ucp__context_8h.html" target="_top" xlink:title=" ">
<polygon fill="white" stroke="#666666" points="146,-118 0,-118 0,-77 146,-77 146,-118"/>
<text text-anchor="start" x="8" y="-106" font-family="Helvetica,sans-Serif" font-size="10.00">/home/runner/work/realm</text>
<text text-anchor="start" x="8" y="-95" font-family="Helvetica,sans-Serif" font-size="10.00">/realm/realm&#45;src/src/realm</text>
<text text-anchor="middle" x="73" y="-84" font-family="Helvetica,sans-Serif" font-size="10.00">/ucx/ucp_context.h</text>
</a>
</g>
</g>
<!-- Node1&#45;&gt;Node2 -->
<g id="edge1_Node000001_Node000002" class="edge">
<title>Node1&#45;&gt;Node2</title>
<g id="a_edge1_Node000001_Node000002"><a xlink:title=" ">
<path fill="none" stroke="#63b8ff" d="M104.26,-145.39C98.2,-136.3 91.61,-126.41 86.05,-118.07"/>
<polygon fill="#63b8ff" stroke="#63b8ff" points="101.4,-147.42 109.86,-153.79 107.23,-143.53 101.4,-147.42"/>
</a>
</g>
</g>
<!-- Node3 -->
<g id="Node000003" class="node">
<title>Node3</title>
<g id="a_Node000003"><a xlink:href="ucp__internal_8h.html" target="_top" xlink:title=" ">
<polygon fill="white" stroke="#666666" points="196,-41 50,-41 50,0 196,0 196,-41"/>
<text text-anchor="start" x="58" y="-29" font-family="Helvetica,sans-Serif" font-size="10.00">/home/runner/work/realm</text>
<text text-anchor="start" x="58" y="-18" font-family="Helvetica,sans-Serif" font-size="10.00">/realm/realm&#45;src/src/realm</text>
<text text-anchor="middle" x="123" y="-7" font-family="Helvetica,sans-Serif" font-size="10.00">/ucx/ucp_internal.h</text>
</a>
</g>
</g>
<!-- Node1&#45;&gt;Node3 -->
<g id="edge3_Node000001_Node000003" class="edge">
<title>Node1&#45;&gt;Node3</title>
<g id="a_edge3_Node000001_Node000003"><a xlink:title=" ">
<path fill="none" stroke="#63b8ff" d="M143.09,-145.21C147.96,-136.84 152.49,-127.39 155,-118 159.71,-100.4 159.71,-94.6 155,-77 151.58,-64.21 144.42,-51.32 137.74,-41.19"/>
<polygon fill="#63b8ff" stroke="#63b8ff" points="140.05,-143.47 137.74,-153.81 145.99,-147.16 140.05,-143.47"/>
</a>
</g>
</g>
<!-- Node2&#45;&gt;Node3 -->
<g id="edge2_Node000002_Node000003" class="edge">
<title>Node2&#45;&gt;Node3</title>
<g id="a_edge2_Node000002_Node000003"><a xlink:title=" ">
<path fill="none" stroke="#63b8ff" d="M91.74,-68.39C97.8,-59.3 104.39,-49.41 109.95,-41.07"/>
<polygon fill="#63b8ff" stroke="#63b8ff" points="88.77,-66.53 86.14,-76.79 94.6,-70.42 88.77,-66.53"/>
</a>
</g>
</g>
</g>
</svg>
