<?xml version="1.0" encoding="UTF-8" standalone="no"?>
<!DOCTYPE svg PUBLIC "-//W3C//DTD SVG 1.1//EN"
 "http://www.w3.org/Graphics/SVG/1.1/DTD/svg11.dtd">
<!-- Generated by graphviz version 2.43.0 (0)
 -->
<!-- Title: Realm::SubgraphDefinition::ReleaseDesc Pages: 1 -->
<svg width="247pt" height="104pt"
 viewBox="0.00 0.00 247.00 104.00" xmlns="http://www.w3.org/2000/svg" xmlns:xlink="http://www.w3.org/1999/xlink">
<g id="graph0" class="graph" transform="scale(1 1) rotate(0) translate(4 100)">
<title>Realm::SubgraphDefinition::ReleaseDesc</title>
<!-- Node1 -->
<g id="Node000001" class="node">
<title>Node1</title>
<g id="a_Node000001"><a xlink:title=" ">
<polygon fill="#999999" stroke="#666666" points="147,-30 0,-30 0,0 147,0 147,-30"/>
<text text-anchor="start" x="8" y="-18" font-family="Helvetica,sans-Serif" font-size="10.00">Realm::SubgraphDefinition</text>
<text text-anchor="middle" x="73.5" y="-7" font-family="Helvetica,sans-Serif" font-size="10.00">::ReleaseDesc</text>
</a>
</g>
</g>
<!-- Node2 -->
<g id="Node000002" class="node">
<title>Node2</title>
<g id="a_Node000002"><a xlink:href="classRealm_1_1Reservation.html" target="_top" xlink:title=" ">
<polygon fill="white" stroke="#666666" points="130,-96 17,-96 17,-77 130,-77 130,-96"/>
<text text-anchor="middle" x="73.5" y="-84" font-family="Helvetica,sans-Serif" font-size="10.00">Realm::Reservation</text>
</a>
</g>
</g>
<!-- Node2&#45;&gt;Node1 -->
<g id="edge1_Node000001_Node000002" class="edge">
<title>Node2&#45;&gt;Node1</title>
<g id="a_edge1_Node000001_Node000002"><a xlink:title=" ">
<path fill="none" stroke="#9a32cd" stroke-dasharray="5,2" d="M73.5,-66.71C73.5,-55.19 73.5,-40.68 73.5,-30.14"/>
<polygon fill="#9a32cd" stroke="#9a32cd" points="70,-66.98 73.5,-76.98 77,-66.98 70,-66.98"/>
</a>
</g>
<text text-anchor="middle" x="84.5" y="-51" font-family="Helvetica,sans-Serif" font-size="10.00" fill="grey"> rsrv</text>
</g>
<!-- Node2&#45;&gt;Node2 -->
<g id="edge2_Node000002_Node000002" class="edge">
<title>Node2&#45;&gt;Node2</title>
<g id="a_edge2_Node000002_Node000002"><a xlink:title=" ">
<path fill="none" stroke="#9a32cd" stroke-dasharray="5,2" d="M139.99,-90.97C144.95,-89.97 148,-88.48 148,-86.5 148,-83.41 140.57,-81.51 130.03,-80.81"/>
<polygon fill="#9a32cd" stroke="#9a32cd" points="139.53,-87.5 130.03,-92.19 140.38,-94.45 139.53,-87.5"/>
</a>
</g>
<text text-anchor="middle" x="193.5" y="-84" font-family="Helvetica,sans-Serif" font-size="10.00" fill="grey"> NO_RESERVATION</text>
</g>
</g>
</svg>
