<?xml version="1.0" encoding="UTF-8" standalone="no"?>
<!DOCTYPE svg PUBLIC "-//W3C//DTD SVG 1.1//EN"
 "http://www.w3.org/Graphics/SVG/1.1/DTD/svg11.dtd">
<!-- Generated by graphviz version 2.43.0 (0)
 -->
<!-- Title: Realm::ReservationImpl::LocalSharedInfo Pages: 1 -->
<svg width="797pt" height="136pt"
 viewBox="0.00 0.00 797.00 135.50" xmlns="http://www.w3.org/2000/svg" xmlns:xlink="http://www.w3.org/1999/xlink">
<g id="graph0" class="graph" transform="scale(1 1) rotate(0) translate(4 131.5)">
<title>Realm::ReservationImpl::LocalSharedInfo</title>
<!-- Node1 -->
<g id="Node000001" class="node">
<title>Node1</title>
<g id="a_Node000001"><a xlink:title=" ">
<polygon fill="#999999" stroke="#666666" points="789,-110 655,-110 655,-80 789,-80 789,-110"/>
<text text-anchor="start" x="663" y="-98" font-family="Helvetica,sans-Serif" font-size="10.00">Realm::ReservationImpl</text>
<text text-anchor="middle" x="722" y="-87" font-family="Helvetica,sans-Serif" font-size="10.00">::LocalSharedInfo</text>
</a>
</g>
</g>
<!-- Node2 -->
<g id="Node000002" class="node">
<title>Node2</title>
<g id="a_Node000002"><a xlink:href="classRealm_1_1IntrusiveList.html" target="_top" xlink:title=" ">
<polygon fill="white" stroke="#666666" points="579,-121 419,-121 419,-69 579,-69 579,-121"/>
<text text-anchor="start" x="427" y="-109" font-family="Helvetica,sans-Serif" font-size="10.00">Realm::IntrusiveList</text>
<text text-anchor="start" x="427" y="-98" font-family="Helvetica,sans-Serif" font-size="10.00">&lt; EventWaiter, REALM</text>
<text text-anchor="start" x="427" y="-87" font-family="Helvetica,sans-Serif" font-size="10.00">_PMTA_USE(EventWaiter,</text>
<text text-anchor="middle" x="499" y="-76" font-family="Helvetica,sans-Serif" font-size="10.00"> ew_list_link), DummyLock &gt;</text>
</a>
</g>
</g>
<!-- Node2&#45;&gt;Node1 -->
<g id="edge1_Node000001_Node000002" class="edge">
<title>Node2&#45;&gt;Node1</title>
<g id="a_edge1_Node000001_Node000002"><a xlink:title=" ">
<path fill="none" stroke="#9a32cd" stroke-dasharray="5,2" d="M589.44,-95C611.27,-95 634.25,-95 654.78,-95"/>
<polygon fill="#9a32cd" stroke="#9a32cd" points="589.16,-91.5 579.16,-95 589.16,-98.5 589.16,-91.5"/>
</a>
</g>
<text text-anchor="middle" x="617" y="-98" font-family="Helvetica,sans-Serif" font-size="10.00" fill="grey"> waiters</text>
</g>
<!-- Node3 -->
<g id="Node000003" class="node">
<title>Node3</title>
<g id="a_Node000003"><a xlink:href="classRealm_1_1DummyLock.html" target="_top" xlink:title=" ">
<polygon fill="white" stroke="#666666" points="336,-127.5 220,-127.5 220,-108.5 336,-108.5 336,-127.5"/>
<text text-anchor="middle" x="278" y="-115.5" font-family="Helvetica,sans-Serif" font-size="10.00">Realm::DummyLock</text>
</a>
</g>
</g>
<!-- Node3&#45;&gt;Node2 -->
<g id="edge2_Node000002_Node000003" class="edge">
<title>Node3&#45;&gt;Node2</title>
<g id="a_edge2_Node000002_Node000003"><a xlink:title=" ">
<path fill="none" stroke="#9a32cd" stroke-dasharray="5,2" d="M346.23,-110.94C369.18,-108.53 395.04,-105.81 418.84,-103.31"/>
<polygon fill="#9a32cd" stroke="#9a32cd" points="345.83,-107.46 336.25,-111.99 346.56,-114.42 345.83,-107.46"/>
</a>
</g>
<text text-anchor="middle" x="382.5" y="-111" font-family="Helvetica,sans-Serif" font-size="10.00" fill="grey"> lock</text>
</g>
<!-- Node4 -->
<g id="Node000004" class="node">
<title>Node4</title>
<g id="a_Node000004"><a xlink:href="structRealm_1_1IntrusiveListLink.html" target="_top" xlink:title=" ">
<polygon fill="white" stroke="#666666" points="345,-88 211,-88 211,-58 345,-58 345,-88"/>
<text text-anchor="start" x="219" y="-76" font-family="Helvetica,sans-Serif" font-size="10.00">Realm::IntrusiveListLink</text>
<text text-anchor="middle" x="278" y="-65" font-family="Helvetica,sans-Serif" font-size="10.00">&lt; EventWaiter &gt;</text>
</a>
</g>
</g>
<!-- Node4&#45;&gt;Node2 -->
<g id="edge3_Node000002_Node000004" class="edge">
<title>Node4&#45;&gt;Node2</title>
<g id="a_edge3_Node000002_Node000004"><a xlink:title=" ">
<path fill="none" stroke="#9a32cd" stroke-dasharray="5,2" d="M355.63,-71.23C370.7,-71.56 386.38,-72.37 401,-74 406.82,-74.65 412.81,-75.49 418.81,-76.47"/>
<polygon fill="#9a32cd" stroke="#9a32cd" points="355.36,-67.73 345.31,-71.08 355.26,-74.72 355.36,-67.73"/>
</a>
</g>
<text text-anchor="middle" x="382.5" y="-88" font-family="Helvetica,sans-Serif" font-size="10.00" fill="grey"> head</text>
<text text-anchor="middle" x="382.5" y="-77" font-family="Helvetica,sans-Serif" font-size="10.00" fill="grey">lastlink</text>
</g>
<!-- Node5 -->
<g id="Node000005" class="node">
<title>Node5</title>
<g id="a_Node000005"><a xlink:href="classRealm_1_1EventWaiter.html" target="_top" xlink:title=" ">
<polygon fill="white" stroke="#666666" points="113,-48.5 0,-48.5 0,-29.5 113,-29.5 113,-48.5"/>
<text text-anchor="middle" x="56.5" y="-36.5" font-family="Helvetica,sans-Serif" font-size="10.00">Realm::EventWaiter</text>
</a>
</g>
</g>
<!-- Node5&#45;&gt;Node4 -->
<g id="edge4_Node000004_Node000005" class="edge">
<title>Node5&#45;&gt;Node4</title>
<g id="a_edge4_Node000004_Node000005"><a xlink:title=" ">
<path fill="none" stroke="#9a32cd" stroke-dasharray="5,2" d="M123.16,-49.17C150.87,-53.46 183.08,-58.45 210.84,-62.75"/>
<polygon fill="#9a32cd" stroke="#9a32cd" points="123.59,-45.7 113.17,-47.62 122.52,-52.61 123.59,-45.7"/>
</a>
</g>
<text text-anchor="middle" x="161.5" y="-62" font-family="Helvetica,sans-Serif" font-size="10.00" fill="grey"> next</text>
</g>
<!-- Node6 -->
<g id="Node000006" class="node">
<title>Node6</title>
<g id="a_Node000006"><a xlink:href="structRealm_1_1IntrusiveListLink.html" target="_top" xlink:title=" ">
<polygon fill="white" stroke="#666666" points="346,-30 210,-30 210,0 346,0 346,-30"/>
<text text-anchor="start" x="218" y="-18" font-family="Helvetica,sans-Serif" font-size="10.00">Realm::IntrusiveListLink</text>
<text text-anchor="middle" x="278" y="-7" font-family="Helvetica,sans-Serif" font-size="10.00">&lt; Realm::EventWaiter &gt;</text>
</a>
</g>
</g>
<!-- Node5&#45;&gt;Node6 -->
<g id="edge6_Node000006_Node000005" class="edge">
<title>Node5&#45;&gt;Node6</title>
<g id="a_edge6_Node000006_Node000005"><a xlink:title=" ">
<path fill="none" stroke="#9a32cd" stroke-dasharray="5,2" d="M123.39,-31.8C150.65,-28.82 182.23,-25.36 209.64,-22.37"/>
<polygon fill="#9a32cd" stroke="#9a32cd" points="122.73,-28.35 113.17,-32.91 123.49,-35.31 122.73,-28.35"/>
</a>
</g>
<text text-anchor="middle" x="161.5" y="-34" font-family="Helvetica,sans-Serif" font-size="10.00" fill="grey"> next</text>
</g>
<!-- Node6&#45;&gt;Node5 -->
<g id="edge5_Node000005_Node000006" class="edge">
<title>Node6&#45;&gt;Node5</title>
<g id="a_edge5_Node000005_Node000006"><a xlink:title=" ">
<path fill="none" stroke="#9a32cd" stroke-dasharray="5,2" d="M199.8,-2.46C177.42,-0.91 153.07,-1.27 131,-6 110.07,-10.48 87.91,-21.39 73.46,-29.45"/>
<polygon fill="#9a32cd" stroke="#9a32cd" points="199.67,-5.96 209.93,-3.29 200.25,1.02 199.67,-5.96"/>
</a>
</g>
<text text-anchor="middle" x="161.5" y="-9" font-family="Helvetica,sans-Serif" font-size="10.00" fill="grey"> ew_list_link</text>
</g>
</g>
</svg>
