<?xml version="1.0" encoding="UTF-8" standalone="no"?>
<!DOCTYPE svg PUBLIC "-//W3C//DTD SVG 1.1//EN"
 "http://www.w3.org/Graphics/SVG/1.1/DTD/svg11.dtd">
<!-- Generated by graphviz version 2.43.0 (0)
 -->
<!-- Title: Realm::Node Pages: 1 -->
<svg width="334pt" height="214pt"
 viewBox="0.00 0.00 333.50 214.00" xmlns="http://www.w3.org/2000/svg" xmlns:xlink="http://www.w3.org/1999/xlink">
<g id="graph0" class="graph" transform="scale(1 1) rotate(0) translate(4 210)">
<title>Realm::Node</title>
<!-- Node1 -->
<g id="Node000001" class="node">
<title>Node1</title>
<g id="a_Node000001"><a xlink:title=" ">
<polygon fill="#999999" stroke="#666666" points="199,-19 119,-19 119,0 199,0 199,-19"/>
<text text-anchor="middle" x="159" y="-7" font-family="Helvetica,sans-Serif" font-size="10.00">Realm::Node</text>
</a>
</g>
</g>
<!-- Node2 -->
<g id="Node000002" class="node">
<title>Node2</title>
<g id="a_Node000002"><a xlink:href="classRealm_1_1DynamicTable.html" target="_top" xlink:title=" ">
<polygon fill="white" stroke="#666666" points="253.5,-129 64.5,-129 64.5,-99 253.5,-99 253.5,-129"/>
<text text-anchor="start" x="72.5" y="-117" font-family="Helvetica,sans-Serif" font-size="10.00">Realm::DynamicTable</text>
<text text-anchor="middle" x="159" y="-106" font-family="Helvetica,sans-Serif" font-size="10.00">&lt; Realm::DynamicTableAllocator &gt;</text>
</a>
</g>
</g>
<!-- Node2&#45;&gt;Node1 -->
<g id="edge1_Node000001_Node000002" class="edge">
<title>Node2&#45;&gt;Node1</title>
<g id="a_edge1_Node000001_Node000002"><a xlink:title=" ">
<path fill="none" stroke="#9a32cd" stroke-dasharray="5,2" d="M159,-88.66C159,-66.3 159,-34.42 159,-19.22"/>
<polygon fill="#9a32cd" stroke="#9a32cd" points="155.5,-88.75 159,-98.75 162.5,-88.75 155.5,-88.75"/>
</a>
</g>
<text text-anchor="middle" x="196" y="-73" font-family="Helvetica,sans-Serif" font-size="10.00" fill="grey"> barriers</text>
<text text-anchor="middle" x="196" y="-62" font-family="Helvetica,sans-Serif" font-size="10.00" fill="grey">compqueues</text>
<text text-anchor="middle" x="196" y="-51" font-family="Helvetica,sans-Serif" font-size="10.00" fill="grey">remote_events</text>
<text text-anchor="middle" x="196" y="-40" font-family="Helvetica,sans-Serif" font-size="10.00" fill="grey">reservations</text>
</g>
<!-- Node3 -->
<g id="Node000003" class="node">
<title>Node3</title>
<g id="a_Node000003"><a xlink:href="classRealm_1_1atomic.html" target="_top" xlink:title=" ">
<polygon fill="white" stroke="#666666" points="146,-200.5 0,-200.5 0,-181.5 146,-181.5 146,-200.5"/>
<text text-anchor="middle" x="73" y="-188.5" font-family="Helvetica,sans-Serif" font-size="10.00">Realm::atomic&lt; intptr_t &gt;</text>
</a>
</g>
</g>
<!-- Node3&#45;&gt;Node2 -->
<g id="edge2_Node000002_Node000003" class="edge">
<title>Node3&#45;&gt;Node2</title>
<g id="a_edge2_Node000002_Node000003"><a xlink:title=" ">
<path fill="none" stroke="#9a32cd" stroke-dasharray="5,2" d="M90.6,-174.65C105.91,-161.3 127.93,-142.09 142.82,-129.11"/>
<polygon fill="#9a32cd" stroke="#9a32cd" points="88.1,-172.19 82.87,-181.4 92.7,-177.46 88.1,-172.19"/>
</a>
</g>
<text text-anchor="middle" x="160" y="-150" font-family="Helvetica,sans-Serif" font-size="10.00" fill="grey"> root_and_level</text>
</g>
<!-- Node4 -->
<g id="Node000004" class="node">
<title>Node4</title>
<g id="a_Node000004"><a xlink:href="classRealm_1_1atomic.html" target="_top" xlink:title=" ">
<polygon fill="white" stroke="#666666" points="325.5,-206 164.5,-206 164.5,-176 325.5,-176 325.5,-206"/>
<text text-anchor="start" x="172.5" y="-194" font-family="Helvetica,sans-Serif" font-size="10.00">Realm::atomic&lt; Realm</text>
<text text-anchor="middle" x="245" y="-183" font-family="Helvetica,sans-Serif" font-size="10.00">::DynamicTableNodeBase * &gt;</text>
</a>
</g>
</g>
<!-- Node4&#45;&gt;Node2 -->
<g id="edge3_Node000002_Node000004" class="edge">
<title>Node4&#45;&gt;Node2</title>
<g id="a_edge3_Node000002_Node000004"><a xlink:title=" ">
<path fill="none" stroke="#9a32cd" stroke-dasharray="5,2" d="M224.8,-168.58C217.79,-161.48 209.74,-153.69 202,-147 194.82,-140.79 186.53,-134.45 179.16,-129.07"/>
<polygon fill="#9a32cd" stroke="#9a32cd" points="222.45,-171.19 231.93,-175.92 227.47,-166.31 222.45,-171.19"/>
</a>
</g>
<text text-anchor="middle" x="259" y="-150" font-family="Helvetica,sans-Serif" font-size="10.00" fill="grey"> first_alloced_node</text>
</g>
</g>
</svg>
