<?xml version="1.0" encoding="UTF-8" standalone="no"?>
<!DOCTYPE svg PUBLIC "-//W3C//DTD SVG 1.1//EN"
 "http://www.w3.org/Graphics/SVG/1.1/DTD/svg11.dtd">
<!-- Generated by graphviz version 2.43.0 (0)
 -->
<!-- Title: Realm::ProcGroupDestroyAckMessage Pages: 1 -->
<svg width="263pt" height="160pt"
 viewBox="0.00 0.00 263.00 160.00" xmlns="http://www.w3.org/2000/svg" xmlns:xlink="http://www.w3.org/1999/xlink">
<g id="graph0" class="graph" transform="scale(1 1) rotate(0) translate(4 156)">
<title>Realm::ProcGroupDestroyAckMessage</title>
<!-- Node1 -->
<g id="Node000001" class="node">
<title>Node1</title>
<g id="a_Node000001"><a xlink:title=" ">
<polygon fill="#999999" stroke="#666666" points="161,-30 0,-30 0,0 161,0 161,-30"/>
<text text-anchor="start" x="8" y="-18" font-family="Helvetica,sans-Serif" font-size="10.00">Realm::ProcGroupDestroyAck</text>
<text text-anchor="middle" x="80.5" y="-7" font-family="Helvetica,sans-Serif" font-size="10.00">Message</text>
</a>
</g>
</g>
<!-- Node2 -->
<g id="Node000002" class="node">
<title>Node2</title>
<g id="a_Node000002"><a xlink:href="classRealm_1_1ProcessorGroup.html" target="_top" xlink:title=" ">
<polygon fill="white" stroke="#666666" points="146,-96 15,-96 15,-77 146,-77 146,-96"/>
<text text-anchor="middle" x="80.5" y="-84" font-family="Helvetica,sans-Serif" font-size="10.00">Realm::ProcessorGroup</text>
</a>
</g>
</g>
<!-- Node2&#45;&gt;Node1 -->
<g id="edge1_Node000001_Node000002" class="edge">
<title>Node2&#45;&gt;Node1</title>
<g id="a_edge1_Node000001_Node000002"><a xlink:title=" ">
<path fill="none" stroke="#9a32cd" stroke-dasharray="5,2" d="M80.5,-66.71C80.5,-55.19 80.5,-40.68 80.5,-30.14"/>
<polygon fill="#9a32cd" stroke="#9a32cd" points="77,-66.98 80.5,-76.98 84,-66.98 77,-66.98"/>
</a>
</g>
<text text-anchor="middle" x="93" y="-51" font-family="Helvetica,sans-Serif" font-size="10.00" fill="grey"> pgrp</text>
</g>
<!-- Node2&#45;&gt;Node2 -->
<g id="edge4_Node000002_Node000002" class="edge">
<title>Node2&#45;&gt;Node2</title>
<g id="a_edge4_Node000002_Node000002"><a xlink:title=" ">
<path fill="none" stroke="#9a32cd" stroke-dasharray="5,2" d="M156.52,-90.16C161.19,-89.29 164,-88.07 164,-86.5 164,-83.98 156.81,-82.37 146.31,-81.67"/>
<polygon fill="#9a32cd" stroke="#9a32cd" points="155.84,-86.71 146.31,-91.33 156.64,-93.67 155.84,-86.71"/>
</a>
</g>
<text text-anchor="middle" x="209.5" y="-84" font-family="Helvetica,sans-Serif" font-size="10.00" fill="grey"> NO_PROC_GROUP</text>
</g>
<!-- Node3 -->
<g id="Node000003" class="node">
<title>Node3</title>
<g id="a_Node000003"><a xlink:href="classRealm_1_1Processor.html" target="_top" xlink:title=" ">
<polygon fill="white" stroke="#666666" points="131,-152 30,-152 30,-133 131,-133 131,-152"/>
<text text-anchor="middle" x="80.5" y="-140" font-family="Helvetica,sans-Serif" font-size="10.00">Realm::Processor</text>
</a>
</g>
</g>
<!-- Node3&#45;&gt;Node2 -->
<g id="edge2_Node000002_Node000003" class="edge">
<title>Node3&#45;&gt;Node2</title>
<g id="a_edge2_Node000002_Node000003"><a xlink:title=" ">
<path fill="none" stroke="#63b8ff" d="M80.5,-122.3C80.5,-113.41 80.5,-103.28 80.5,-96.25"/>
<polygon fill="#63b8ff" stroke="#63b8ff" points="77,-122.58 80.5,-132.58 84,-122.58 77,-122.58"/>
</a>
</g>
</g>
<!-- Node3&#45;&gt;Node3 -->
<g id="edge3_Node000003_Node000003" class="edge">
<title>Node3&#45;&gt;Node3</title>
<g id="a_edge3_Node000003_Node000003"><a xlink:title=" ">
<path fill="none" stroke="#9a32cd" stroke-dasharray="5,2" d="M141.43,-146.45C146.11,-145.58 149,-144.26 149,-142.5 149,-139.68 141.61,-138 131.28,-137.45"/>
<polygon fill="#9a32cd" stroke="#9a32cd" points="140.85,-142.99 131.28,-147.55 141.6,-149.95 140.85,-142.99"/>
</a>
</g>
<text text-anchor="middle" x="174.5" y="-140" font-family="Helvetica,sans-Serif" font-size="10.00" fill="grey"> NO_PROC</text>
</g>
</g>
</svg>
