<?xml version="1.0" encoding="UTF-8" standalone="no"?>
<!DOCTYPE svg PUBLIC "-//W3C//DTD SVG 1.1//EN"
 "http://www.w3.org/Graphics/SVG/1.1/DTD/svg11.dtd">
<!-- Generated by graphviz version 2.43.0 (0)
 -->
<!-- Title: Realm::ChunkedRecycler&lt; T, CHUNK_SIZE &gt;::WithPtr Pages: 1 -->
<svg width="351pt" height="181pt"
 viewBox="0.00 0.00 350.50 181.00" xmlns="http://www.w3.org/2000/svg" xmlns:xlink="http://www.w3.org/1999/xlink">
<g id="graph0" class="graph" transform="scale(1 1) rotate(0) translate(4 177)">
<title>Realm::ChunkedRecycler&lt; T, CHUNK_SIZE &gt;::WithPtr</title>
<!-- Node1 -->
<g id="Node000001" class="node">
<title>Node1</title>
<g id="a_Node000001"><a xlink:title=" ">
<polygon fill="#999999" stroke="#666666" points="156,-30 0,-30 0,0 156,0 156,-30"/>
<text text-anchor="start" x="8" y="-18" font-family="Helvetica,sans-Serif" font-size="10.00">Realm::ChunkedRecycler</text>
<text text-anchor="middle" x="78" y="-7" font-family="Helvetica,sans-Serif" font-size="10.00">&lt; T, CHUNK_SIZE &gt;::WithPtr</text>
</a>
</g>
</g>
<!-- Node2 -->
<g id="Node000002" class="node">
<title>Node2</title>
<g id="a_Node000002"><a xlink:href="structRealm_1_1ChunkedRecycler_1_1Chunk.html" target="_top" xlink:title=" ">
<polygon fill="white" stroke="#666666" points="264.5,-107 113.5,-107 113.5,-77 264.5,-77 264.5,-107"/>
<text text-anchor="start" x="121.5" y="-95" font-family="Helvetica,sans-Serif" font-size="10.00">Realm::ChunkedRecycler</text>
<text text-anchor="middle" x="189" y="-84" font-family="Helvetica,sans-Serif" font-size="10.00">&lt; T, CHUNK_SIZE &gt;::Chunk</text>
</a>
</g>
</g>
<!-- Node2&#45;&gt;Node1 -->
<g id="edge1_Node000001_Node000002" class="edge">
<title>Node2&#45;&gt;Node1</title>
<g id="a_edge1_Node000001_Node000002"><a xlink:title=" ">
<path fill="none" stroke="#9a32cd" stroke-dasharray="5,2" d="M157.62,-71.22C151.42,-67.22 144.98,-63.02 139,-59 125.02,-49.61 109.51,-38.66 97.62,-30.17"/>
<polygon fill="#9a32cd" stroke="#9a32cd" points="156.15,-74.43 166.46,-76.88 159.92,-68.54 156.15,-74.43"/>
</a>
</g>
<text text-anchor="middle" x="159" y="-51" font-family="Helvetica,sans-Serif" font-size="10.00" fill="grey"> backptr</text>
</g>
<!-- Node2&#45;&gt;Node2 -->
<g id="edge3_Node000002_Node000002" class="edge">
<title>Node2&#45;&gt;Node2</title>
<g id="a_edge3_Node000002_Node000002"><a xlink:title=" ">
<path fill="none" stroke="#9a32cd" stroke-dasharray="5,2" d="M274.6,-96.85C279.55,-95.69 282.5,-94.07 282.5,-92 282.5,-88.77 275.3,-86.64 264.57,-85.61"/>
<polygon fill="#9a32cd" stroke="#9a32cd" points="273.93,-93.42 264.57,-98.39 274.99,-100.34 273.93,-93.42"/>
</a>
</g>
<text text-anchor="middle" x="312.5" y="-89.5" font-family="Helvetica,sans-Serif" font-size="10.00" fill="grey"> next_chunk</text>
</g>
<!-- Node4 -->
<g id="Node000004" class="node">
<title>Node4</title>
<g id="a_Node000004"><a xlink:href="structRealm_1_1ChunkedRecycler_1_1WithPtr.html" target="_top" xlink:title=" ">
<polygon fill="white" stroke="#666666" points="330,-30 174,-30 174,0 330,0 330,-30"/>
<text text-anchor="start" x="182" y="-18" font-family="Helvetica,sans-Serif" font-size="10.00">Realm::ChunkedRecycler</text>
<text text-anchor="middle" x="252" y="-7" font-family="Helvetica,sans-Serif" font-size="10.00">&lt; T, CHUNK_SIZE &gt;::WithPtr</text>
</a>
</g>
</g>
<!-- Node2&#45;&gt;Node4 -->
<g id="edge5_Node000004_Node000002" class="edge">
<title>Node2&#45;&gt;Node4</title>
<g id="a_edge5_Node000004_Node000002"><a xlink:title=" ">
<path fill="none" stroke="#9a32cd" stroke-dasharray="5,2" d="M182.27,-66.48C181.8,-60.07 182.59,-53.44 186,-48 190.73,-40.45 197.81,-34.63 205.6,-30.17"/>
<polygon fill="#9a32cd" stroke="#9a32cd" points="178.89,-67.51 183.98,-76.8 185.79,-66.36 178.89,-67.51"/>
</a>
</g>
<text text-anchor="middle" x="206" y="-51" font-family="Helvetica,sans-Serif" font-size="10.00" fill="grey"> backptr</text>
</g>
<!-- Node3 -->
<g id="Node000003" class="node">
<title>Node3</title>
<g id="a_Node000003"><a xlink:href="classRealm_1_1atomic.html" target="_top" xlink:title=" ">
<polygon fill="white" stroke="#666666" points="266.5,-173 111.5,-173 111.5,-154 266.5,-154 266.5,-173"/>
<text text-anchor="middle" x="189" y="-161" font-family="Helvetica,sans-Serif" font-size="10.00">Realm::atomic&lt; unsigned &gt;</text>
</a>
</g>
</g>
<!-- Node3&#45;&gt;Node2 -->
<g id="edge2_Node000002_Node000003" class="edge">
<title>Node3&#45;&gt;Node2</title>
<g id="a_edge2_Node000002_Node000003"><a xlink:title=" ">
<path fill="none" stroke="#9a32cd" stroke-dasharray="5,2" d="M189,-143.71C189,-132.19 189,-117.68 189,-107.14"/>
<polygon fill="#9a32cd" stroke="#9a32cd" points="185.5,-143.98 189,-153.98 192.5,-143.98 185.5,-143.98"/>
</a>
</g>
<text text-anchor="middle" x="231.5" y="-128" font-family="Helvetica,sans-Serif" font-size="10.00" fill="grey"> remaining_count</text>
</g>
<!-- Node4&#45;&gt;Node2 -->
<g id="edge4_Node000002_Node000004" class="edge">
<title>Node4&#45;&gt;Node2</title>
<g id="a_edge4_Node000002_Node000004"><a xlink:title=" ">
<path fill="none" stroke="#9a32cd" stroke-dasharray="5,2" d="M242.31,-39.45C238.96,-46.13 234.81,-53.18 230,-59 224.48,-65.68 217.33,-71.85 210.56,-76.96"/>
<polygon fill="#9a32cd" stroke="#9a32cd" points="245.62,-40.63 246.65,-30.09 239.27,-37.69 245.62,-40.63"/>
</a>
</g>
<text text-anchor="middle" x="261.5" y="-51" font-family="Helvetica,sans-Serif" font-size="10.00" fill="grey"> elements</text>
</g>
</g>
</svg>
