<?xml version="1.0" encoding="UTF-8" standalone="no"?>
<!DOCTYPE svg PUBLIC "-//W3C//DTD SVG 1.1//EN"
 "http://www.w3.org/Graphics/SVG/1.1/DTD/svg11.dtd">
<!-- Generated by graphviz version 2.43.0 (0)
 -->
<!-- Title: Realm::ProfilingMeasurements::InstanceMemoryUsage Pages: 1 -->
<svg width="399pt" height="104pt"
 viewBox="0.00 0.00 399.00 104.00" xmlns="http://www.w3.org/2000/svg" xmlns:xlink="http://www.w3.org/1999/xlink">
<g id="graph0" class="graph" transform="scale(1 1) rotate(0) translate(4 100)">
<title>Realm::ProfilingMeasurements::InstanceMemoryUsage</title>
<!-- Node1 -->
<g id="Node000001" class="node">
<title>Node1</title>
<g id="a_Node000001"><a xlink:title=" ">
<polygon fill="#999999" stroke="#666666" points="244,-30 77,-30 77,0 244,0 244,-30"/>
<text text-anchor="start" x="85" y="-18" font-family="Helvetica,sans-Serif" font-size="10.00">Realm::ProfilingMeasurements</text>
<text text-anchor="middle" x="160.5" y="-7" font-family="Helvetica,sans-Serif" font-size="10.00">::InstanceMemoryUsage</text>
</a>
</g>
</g>
<!-- Node2 -->
<g id="Node000002" class="node">
<title>Node2</title>
<g id="a_Node000002"><a xlink:href="classRealm_1_1RegionInstance.html" target="_top" xlink:title=" ">
<polygon fill="white" stroke="#666666" points="129,-96 0,-96 0,-77 129,-77 129,-96"/>
<text text-anchor="middle" x="64.5" y="-84" font-family="Helvetica,sans-Serif" font-size="10.00">Realm::RegionInstance</text>
</a>
</g>
</g>
<!-- Node2&#45;&gt;Node1 -->
<g id="edge1_Node000001_Node000002" class="edge">
<title>Node2&#45;&gt;Node1</title>
<g id="a_edge1_Node000001_Node000002"><a xlink:title=" ">
<path fill="none" stroke="#9a32cd" stroke-dasharray="5,2" d="M84.7,-70.88C101.27,-58.88 124.59,-42 140.97,-30.14"/>
<polygon fill="#9a32cd" stroke="#9a32cd" points="82.32,-68.28 76.27,-76.98 86.42,-73.95 82.32,-68.28"/>
</a>
</g>
<text text-anchor="middle" x="138" y="-51" font-family="Helvetica,sans-Serif" font-size="10.00" fill="grey"> instance</text>
</g>
<!-- Node2&#45;&gt;Node2 -->
<g id="edge2_Node000002_Node000002" class="edge">
<title>Node2&#45;&gt;Node2</title>
<g id="a_edge2_Node000002_Node000002"><a xlink:title=" ">
<path fill="none" stroke="#9a32cd" stroke-dasharray="5,2" d="M139.1,-90.79C144.02,-89.79 147,-88.36 147,-86.5 147,-83.59 139.74,-81.74 129.18,-80.95"/>
<polygon fill="#9a32cd" stroke="#9a32cd" points="138.66,-87.31 129.18,-92.05 139.54,-94.26 138.66,-87.31"/>
</a>
</g>
<text text-anchor="middle" x="170" y="-84" font-family="Helvetica,sans-Serif" font-size="10.00" fill="grey"> NO_INST</text>
</g>
<!-- Node3 -->
<g id="Node000003" class="node">
<title>Node3</title>
<g id="a_Node000003"><a xlink:href="classRealm_1_1Memory.html" target="_top" xlink:title=" ">
<polygon fill="white" stroke="#666666" points="306,-96 211,-96 211,-77 306,-77 306,-96"/>
<text text-anchor="middle" x="258.5" y="-84" font-family="Helvetica,sans-Serif" font-size="10.00">Realm::Memory</text>
</a>
</g>
</g>
<!-- Node3&#45;&gt;Node1 -->
<g id="edge3_Node000001_Node000003" class="edge">
<title>Node3&#45;&gt;Node1</title>
<g id="a_edge3_Node000001_Node000003"><a xlink:title=" ">
<path fill="none" stroke="#9a32cd" stroke-dasharray="5,2" d="M237.88,-70.88C220.97,-58.88 197.16,-42 180.44,-30.14"/>
<polygon fill="#9a32cd" stroke="#9a32cd" points="236.3,-74.05 246.48,-76.98 240.35,-68.34 236.3,-74.05"/>
</a>
</g>
<text text-anchor="middle" x="240" y="-51" font-family="Helvetica,sans-Serif" font-size="10.00" fill="grey"> memory</text>
</g>
<!-- Node3&#45;&gt;Node3 -->
<g id="edge4_Node000003_Node000003" class="edge">
<title>Node3&#45;&gt;Node3</title>
<g id="a_edge4_Node000003_Node000003"><a xlink:title=" ">
<path fill="none" stroke="#9a32cd" stroke-dasharray="5,2" d="M316.36,-91.1C321.08,-90.1 324,-88.57 324,-86.5 324,-83.19 316.51,-81.25 306.19,-80.68"/>
<polygon fill="#9a32cd" stroke="#9a32cd" points="315.7,-87.66 306.19,-92.32 316.54,-94.61 315.7,-87.66"/>
</a>
</g>
<text text-anchor="middle" x="357.5" y="-84" font-family="Helvetica,sans-Serif" font-size="10.00" fill="grey"> NO_MEMORY</text>
</g>
</g>
</svg>
