<?xml version="1.0" encoding="UTF-8" standalone="no"?>
<!DOCTYPE svg PUBLIC "-//W3C//DTD SVG 1.1//EN"
 "http://www.w3.org/Graphics/SVG/1.1/DTD/svg11.dtd">
<!-- Generated by graphviz version 2.43.0 (0)
 -->
<!-- Title: Realm::ThreadPool::WorkerInfo Pages: 1 -->
<svg width="637pt" height="283pt"
 viewBox="0.00 0.00 637.32 283.00" xmlns="http://www.w3.org/2000/svg" xmlns:xlink="http://www.w3.org/1999/xlink">
<g id="graph0" class="graph" transform="scale(1 1) rotate(0) translate(4 279)">
<title>Realm::ThreadPool::WorkerInfo</title>
<!-- Node1 -->
<g id="Node000001" class="node">
<title>Node1</title>
<g id="a_Node000001"><a xlink:title=" ">
<polygon fill="#999999" stroke="#666666" points="139.82,-30 24.82,-30 24.82,0 139.82,0 139.82,-30"/>
<text text-anchor="start" x="32.82" y="-18" font-family="Helvetica,sans-Serif" font-size="10.00">Realm::ThreadPool::</text>
<text text-anchor="middle" x="82.32" y="-7" font-family="Helvetica,sans-Serif" font-size="10.00">WorkerInfo</text>
</a>
</g>
</g>
<!-- Node2 -->
<g id="Node000002" class="node">
<title>Node2</title>
<g id="a_Node000002"><a xlink:href="classRealm_1_1atomic.html" target="_top" xlink:title=" ">
<polygon fill="white" stroke="#666666" points="295.82,-275 172.82,-275 172.82,-256 295.82,-256 295.82,-275"/>
<text text-anchor="middle" x="234.32" y="-263" font-family="Helvetica,sans-Serif" font-size="10.00">Realm::atomic&lt; int &gt;</text>
</a>
</g>
</g>
<!-- Node2&#45;&gt;Node1 -->
<g id="edge1_Node000001_Node000002" class="edge">
<title>Node2&#45;&gt;Node1</title>
<g id="a_edge1_Node000001_Node000002"><a xlink:title=" ">
<path fill="none" stroke="#9a32cd" stroke-dasharray="5,2" d="M162.57,-259.49C113.13,-251.86 50.71,-233.03 18.32,-187 -9.81,-147.02 -0.93,-121.94 18.32,-77 26.78,-57.25 45.13,-40.85 60.02,-30.06"/>
<polygon fill="#9a32cd" stroke="#9a32cd" points="162.2,-262.97 172.59,-260.91 163.18,-256.04 162.2,-262.97"/>
</a>
</g>
<text text-anchor="middle" x="19.32" y="-128" font-family="Helvetica,sans-Serif" font-size="10.00" fill="grey"> status</text>
</g>
<!-- Node5 -->
<g id="Node000005" class="node">
<title>Node5</title>
<g id="a_Node000005"><a xlink:href="structRealm_1_1ThreadPool_1_1WorkItem.html" target="_top" xlink:title=" ">
<polygon fill="white" stroke="#666666" points="363.82,-107 248.82,-107 248.82,-77 363.82,-77 363.82,-107"/>
<text text-anchor="start" x="256.82" y="-95" font-family="Helvetica,sans-Serif" font-size="10.00">Realm::ThreadPool::</text>
<text text-anchor="middle" x="306.32" y="-84" font-family="Helvetica,sans-Serif" font-size="10.00">WorkItem</text>
</a>
</g>
</g>
<!-- Node2&#45;&gt;Node5 -->
<g id="edge7_Node000005_Node000002" class="edge">
<title>Node2&#45;&gt;Node5</title>
<g id="a_edge7_Node000005_Node000002"><a xlink:title=" ">
<path fill="none" stroke="#9a32cd" stroke-dasharray="5,2" d="M233.24,-245.96C232.66,-223.18 234.14,-183.89 248.32,-154 257.28,-135.12 274.33,-118.3 287.64,-107.13"/>
<polygon fill="#9a32cd" stroke="#9a32cd" points="229.74,-246.12 233.66,-255.97 236.74,-245.83 229.74,-246.12"/>
</a>
</g>
<text text-anchor="middle" x="295.32" y="-179" font-family="Helvetica,sans-Serif" font-size="10.00" fill="grey"> barrier_count</text>
<text text-anchor="middle" x="295.32" y="-168" font-family="Helvetica,sans-Serif" font-size="10.00" fill="grey">remaining_workers</text>
<text text-anchor="middle" x="295.32" y="-157" font-family="Helvetica,sans-Serif" font-size="10.00" fill="grey">single_winner</text>
</g>
<!-- Node7 -->
<g id="Node000007" class="node">
<title>Node7</title>
<g id="a_Node000007"><a xlink:href="classRealm_1_1LoopSchedule.html" target="_top" xlink:title=" ">
<polygon fill="white" stroke="#666666" points="569.32,-180 447.32,-180 447.32,-161 569.32,-161 569.32,-180"/>
<text text-anchor="middle" x="508.32" y="-168" font-family="Helvetica,sans-Serif" font-size="10.00">Realm::LoopSchedule</text>
</a>
</g>
</g>
<!-- Node2&#45;&gt;Node7 -->
<g id="edge12_Node000007_Node000002" class="edge">
<title>Node2&#45;&gt;Node7</title>
<g id="a_edge12_Node000007_Node000002"><a xlink:title=" ">
<path fill="none" stroke="#9a32cd" stroke-dasharray="5,2" d="M265.59,-252.13C297.68,-239.61 349.15,-220.02 394.32,-205 422.12,-195.76 454.16,-186.46 477.17,-180.02"/>
<polygon fill="#9a32cd" stroke="#9a32cd" points="263.93,-249.02 255.89,-255.93 266.48,-255.54 263.93,-249.02"/>
</a>
</g>
<text text-anchor="middle" x="425.32" y="-219" font-family="Helvetica,sans-Serif" font-size="10.00" fill="grey"> loop_barrier</text>
</g>
<!-- Node3 -->
<g id="Node000003" class="node">
<title>Node3</title>
<g id="a_Node000003"><a xlink:href="classRealm_1_1ThreadPool.html" target="_top" xlink:title=" ">
<polygon fill="white" stroke="#666666" points="136.82,-101.5 27.82,-101.5 27.82,-82.5 136.82,-82.5 136.82,-101.5"/>
<text text-anchor="middle" x="82.32" y="-89.5" font-family="Helvetica,sans-Serif" font-size="10.00">Realm::ThreadPool</text>
</a>
</g>
</g>
<!-- Node3&#45;&gt;Node1 -->
<g id="edge2_Node000001_Node000003" class="edge">
<title>Node3&#45;&gt;Node1</title>
<g id="a_edge2_Node000001_Node000003"><a xlink:title=" ">
<path fill="none" stroke="#9a32cd" stroke-dasharray="5,2" d="M82.32,-72.2C82.32,-59.14 82.32,-42.01 82.32,-30.11"/>
<polygon fill="#9a32cd" stroke="#9a32cd" points="78.82,-72.4 82.32,-82.4 85.82,-72.4 78.82,-72.4"/>
</a>
</g>
<text text-anchor="middle" x="94.82" y="-51" font-family="Helvetica,sans-Serif" font-size="10.00" fill="grey"> pool</text>
</g>
<!-- Node4 -->
<g id="Node000004" class="node">
<title>Node4</title>
<g id="a_Node000004"><a xlink:href="classRealm_1_1Processor.html" target="_top" xlink:title=" ">
<polygon fill="white" stroke="#666666" points="128.82,-180 27.82,-180 27.82,-161 128.82,-161 128.82,-180"/>
<text text-anchor="middle" x="78.32" y="-168" font-family="Helvetica,sans-Serif" font-size="10.00">Realm::Processor</text>
</a>
</g>
</g>
<!-- Node4&#45;&gt;Node3 -->
<g id="edge3_Node000003_Node000004" class="edge">
<title>Node4&#45;&gt;Node3</title>
<g id="a_edge3_Node000003_Node000004"><a xlink:title=" ">
<path fill="none" stroke="#9a32cd" stroke-dasharray="5,2" d="M79.31,-150.6C80.13,-134.97 81.25,-113.49 81.87,-101.67"/>
<polygon fill="#9a32cd" stroke="#9a32cd" points="75.81,-150.56 78.78,-160.72 82.8,-150.92 75.81,-150.56"/>
</a>
</g>
<text text-anchor="middle" x="92.82" y="-128" font-family="Helvetica,sans-Serif" font-size="10.00" fill="grey"> proc</text>
</g>
<!-- Node4&#45;&gt;Node4 -->
<g id="edge4_Node000004_Node000004" class="edge">
<title>Node4&#45;&gt;Node4</title>
<g id="a_edge4_Node000004_Node000004"><a xlink:title=" ">
<path fill="none" stroke="#9a32cd" stroke-dasharray="5,2" d="M139.25,-176.15C143.94,-174.9 146.82,-173.01 146.82,-170.5 146.82,-166.48 139.43,-164.07 129.11,-163.29"/>
<polygon fill="#9a32cd" stroke="#9a32cd" points="138.46,-172.73 129.11,-177.71 139.52,-179.65 138.46,-172.73"/>
</a>
</g>
<text text-anchor="middle" x="172.32" y="-168" font-family="Helvetica,sans-Serif" font-size="10.00" fill="grey"> NO_PROC</text>
</g>
<!-- Node5&#45;&gt;Node1 -->
<g id="edge5_Node000001_Node000005" class="edge">
<title>Node5&#45;&gt;Node1</title>
<g id="a_edge5_Node000001_Node000005"><a xlink:title=" ">
<path fill="none" stroke="#9a32cd" stroke-dasharray="5,2" d="M254.73,-73.72C215.19,-60.49 161.31,-42.45 124.37,-30.08"/>
<polygon fill="#9a32cd" stroke="#9a32cd" points="253.86,-77.12 264.45,-76.98 256.08,-70.49 253.86,-77.12"/>
</a>
</g>
<text text-anchor="middle" x="234.82" y="-51" font-family="Helvetica,sans-Serif" font-size="10.00" fill="grey"> work_item</text>
</g>
<!-- Node5&#45;&gt;Node5 -->
<g id="edge6_Node000005_Node000005" class="edge">
<title>Node5&#45;&gt;Node5</title>
<g id="a_edge6_Node000005_Node000005"><a xlink:title=" ">
<path fill="none" stroke="#9a32cd" stroke-dasharray="5,2" d="M373.86,-97.28C378.8,-96.09 381.82,-94.33 381.82,-92 381.82,-88.36 374.45,-86.12 363.93,-85.27"/>
<polygon fill="#9a32cd" stroke="#9a32cd" points="373.32,-93.82 363.93,-98.73 374.33,-100.74 373.32,-93.82"/>
</a>
</g>
<text text-anchor="middle" x="427.82" y="-89.5" font-family="Helvetica,sans-Serif" font-size="10.00" fill="grey"> parent_work_item</text>
</g>
<!-- Node6 -->
<g id="Node000006" class="node">
<title>Node6</title>
<g id="a_Node000006"><a xlink:href="classRealm_1_1atomic.html" target="_top" xlink:title=" ">
<polygon fill="white" stroke="#666666" points="466.32,-275 316.32,-275 316.32,-256 466.32,-256 466.32,-275"/>
<text text-anchor="middle" x="391.32" y="-263" font-family="Helvetica,sans-Serif" font-size="10.00">Realm::atomic&lt; uint64_t &gt;</text>
</a>
</g>
</g>
<!-- Node6&#45;&gt;Node5 -->
<g id="edge8_Node000005_Node000006" class="edge">
<title>Node6&#45;&gt;Node5</title>
<g id="a_edge8_Node000005_Node000006"><a xlink:title=" ">
<path fill="none" stroke="#9a32cd" stroke-dasharray="5,2" d="M382.39,-246.6C381,-243.73 379.61,-240.79 378.32,-238 361.37,-201.09 360.68,-190.23 342.32,-154 333.99,-137.55 323.06,-119.43 315.44,-107.25"/>
<polygon fill="#9a32cd" stroke="#9a32cd" points="379.32,-248.29 386.88,-255.72 385.6,-245.2 379.32,-248.29"/>
</a>
</g>
<text text-anchor="middle" x="389.82" y="-168" font-family="Helvetica,sans-Serif" font-size="10.00" fill="grey"> critical_flags</text>
</g>
<!-- Node6&#45;&gt;Node7 -->
<g id="edge10_Node000007_Node000006" class="edge">
<title>Node6&#45;&gt;Node7</title>
<g id="a_edge10_Node000007_Node000006"><a xlink:title=" ">
<path fill="none" stroke="#9a32cd" stroke-dasharray="5,2" d="M436.69,-252.18C445.13,-248.53 453.45,-243.88 460.32,-238 473.19,-227 469.52,-218.79 479.32,-205 485.65,-196.1 493.88,-186.76 499.96,-180.22"/>
<polygon fill="#9a32cd" stroke="#9a32cd" points="435.21,-249 427.16,-255.89 437.75,-255.52 435.21,-249"/>
</a>
</g>
<text text-anchor="middle" x="505.32" y="-224.5" font-family="Helvetica,sans-Serif" font-size="10.00" fill="grey"> loop_limit</text>
<text text-anchor="middle" x="505.32" y="-213.5" font-family="Helvetica,sans-Serif" font-size="10.00" fill="grey">loop_pos</text>
</g>
<!-- Node7&#45;&gt;Node5 -->
<g id="edge9_Node000005_Node000007" class="edge">
<title>Node7&#45;&gt;Node5</title>
<g id="a_edge9_Node000005_Node000007"><a xlink:title=" ">
<path fill="none" stroke="#9a32cd" stroke-dasharray="5,2" d="M475.97,-157.25C439.81,-143.55 381.35,-121.41 343.38,-107.03"/>
<polygon fill="#9a32cd" stroke="#9a32cd" points="474.95,-160.6 485.54,-160.87 477.43,-154.06 474.95,-160.6"/>
</a>
</g>
<text text-anchor="middle" x="442.82" y="-128" font-family="Helvetica,sans-Serif" font-size="10.00" fill="grey"> schedule</text>
</g>
<!-- Node8 -->
<g id="Node000008" class="node">
<title>Node8</title>
<g id="a_Node000008"><a xlink:href="classRealm_1_1atomic.html" target="_top" xlink:title=" ">
<polygon fill="white" stroke="#666666" points="629.32,-275 485.32,-275 485.32,-256 629.32,-256 629.32,-275"/>
<text text-anchor="middle" x="557.32" y="-263" font-family="Helvetica,sans-Serif" font-size="10.00">Realm::atomic&lt; int64_t &gt;</text>
</a>
</g>
</g>
<!-- Node8&#45;&gt;Node7 -->
<g id="edge11_Node000007_Node000008" class="edge">
<title>Node8&#45;&gt;Node7</title>
<g id="a_edge11_Node000007_Node000008"><a xlink:title=" ">
<path fill="none" stroke="#9a32cd" stroke-dasharray="5,2" d="M552.12,-245.79C548.36,-233.71 542.65,-217.91 535.32,-205 530.09,-195.78 522.35,-186.48 516.5,-180.03"/>
<polygon fill="#9a32cd" stroke="#9a32cd" points="548.84,-247.03 555.02,-255.64 555.56,-245.06 548.84,-247.03"/>
</a>
</g>
<text text-anchor="middle" x="576.32" y="-230" font-family="Helvetica,sans-Serif" font-size="10.00" fill="grey"> loop_base</text>
<text text-anchor="middle" x="576.32" y="-219" font-family="Helvetica,sans-Serif" font-size="10.00" fill="grey">loop_chunk</text>
<text text-anchor="middle" x="576.32" y="-208" font-family="Helvetica,sans-Serif" font-size="10.00" fill="grey">loop_incr</text>
</g>
</g>
</svg>
