<?xml version="1.0" encoding="UTF-8" standalone="no"?>
<!DOCTYPE svg PUBLIC "-//W3C//DTD SVG 1.1//EN"
 "http://www.w3.org/Graphics/SVG/1.1/DTD/svg11.dtd">
<!-- Generated by graphviz version 2.43.0 (0)
 -->
<!-- Title: Realm::Type::FunctionPointerFields Pages: 1 -->
<svg width="178pt" height="170pt"
 viewBox="0.00 0.00 178.00 170.00" xmlns="http://www.w3.org/2000/svg" xmlns:xlink="http://www.w3.org/1999/xlink">
<g id="graph0" class="graph" transform="scale(1 1) rotate(0) translate(4 166)">
<title>Realm::Type::FunctionPointerFields</title>
<!-- Node1 -->
<g id="Node000001" class="node">
<title>Node1</title>
<g id="a_Node000001"><a xlink:title=" ">
<polygon fill="#999999" stroke="#666666" points="158,-30 0,-30 0,0 158,0 158,-30"/>
<text text-anchor="start" x="8" y="-18" font-family="Helvetica,sans-Serif" font-size="10.00">Realm::Type::FunctionPointer</text>
<text text-anchor="middle" x="79" y="-7" font-family="Helvetica,sans-Serif" font-size="10.00">Fields</text>
</a>
</g>
</g>
<!-- Node2 -->
<g id="Node000002" class="node">
<title>Node2</title>
<g id="a_Node000002"><a xlink:href="structRealm_1_1Type_1_1CommonFields.html" target="_top" xlink:title=" ">
<polygon fill="white" stroke="#666666" points="156.5,-162 1.5,-162 1.5,-143 156.5,-143 156.5,-162"/>
<text text-anchor="middle" x="79" y="-150" font-family="Helvetica,sans-Serif" font-size="10.00">Realm::Type::CommonFields</text>
</a>
</g>
</g>
<!-- Node2&#45;&gt;Node1 -->
<g id="edge1_Node000001_Node000002" class="edge">
<title>Node2&#45;&gt;Node1</title>
<g id="a_edge1_Node000001_Node000002"><a xlink:title=" ">
<path fill="none" stroke="#63b8ff" d="M79,-132.34C79,-104.81 79,-54.71 79,-30.23"/>
<polygon fill="#63b8ff" stroke="#63b8ff" points="75.5,-132.61 79,-142.61 82.5,-132.61 75.5,-132.61"/>
</a>
</g>
</g>
<!-- Node3 -->
<g id="Node000003" class="node">
<title>Node3</title>
<g id="a_Node000003"><a xlink:href="classRealm_1_1Type.html" target="_top" xlink:title=" ">
<polygon fill="white" stroke="#666666" points="168.5,-96 91.5,-96 91.5,-77 168.5,-77 168.5,-96"/>
<text text-anchor="middle" x="130" y="-84" font-family="Helvetica,sans-Serif" font-size="10.00">Realm::Type</text>
</a>
</g>
</g>
<!-- Node2&#45;&gt;Node3 -->
<g id="edge3_Node000003_Node000002" class="edge">
<title>Node2&#45;&gt;Node3</title>
<g id="a_edge3_Node000003_Node000002"><a xlink:title=" ">
<path fill="none" stroke="#9a32cd" stroke-dasharray="5,2" d="M92.33,-134.77C102.12,-122.49 115.02,-106.3 122.9,-96.41"/>
<polygon fill="#9a32cd" stroke="#9a32cd" points="89.37,-132.87 85.88,-142.87 94.85,-137.23 89.37,-132.87"/>
</a>
</g>
<text text-anchor="middle" x="135.5" y="-117" font-family="Helvetica,sans-Serif" font-size="10.00" fill="grey"> f_common</text>
</g>
<!-- Node3&#45;&gt;Node1 -->
<g id="edge2_Node000001_Node000003" class="edge">
<title>Node3&#45;&gt;Node1</title>
<g id="a_edge2_Node000001_Node000003"><a xlink:title=" ">
<path fill="none" stroke="#9a32cd" stroke-dasharray="5,2" d="M117.77,-68.84C109.1,-57.02 97.6,-41.34 89.37,-30.14"/>
<polygon fill="#9a32cd" stroke="#9a32cd" points="115.01,-70.99 123.75,-76.98 120.65,-66.85 115.01,-70.99"/>
</a>
</g>
<text text-anchor="middle" x="140" y="-51" font-family="Helvetica,sans-Serif" font-size="10.00" fill="grey"> return_type</text>
</g>
</g>
</svg>
