<?xml version="1.0" encoding="UTF-8" standalone="no"?>
<!DOCTYPE svg PUBLIC "-//W3C//DTD SVG 1.1//EN"
 "http://www.w3.org/Graphics/SVG/1.1/DTD/svg11.dtd">
<!-- Generated by graphviz version 2.43.0 (0)
 -->
<!-- Title: Realm::Machine::ProcessorMemoryAffinity Pages: 1 -->
<svg width="376pt" height="104pt"
 viewBox="0.00 0.00 376.00 104.00" xmlns="http://www.w3.org/2000/svg" xmlns:xlink="http://www.w3.org/1999/xlink">
<g id="graph0" class="graph" transform="scale(1 1) rotate(0) translate(4 100)">
<title>Realm::Machine::ProcessorMemoryAffinity</title>
<!-- Node1 -->
<g id="Node000001" class="node">
<title>Node1</title>
<g id="a_Node000001"><a xlink:title=" ">
<polygon fill="#999999" stroke="#666666" points="217,-30 68,-30 68,0 217,0 217,-30"/>
<text text-anchor="start" x="76" y="-18" font-family="Helvetica,sans-Serif" font-size="10.00">Realm::Machine::Processor</text>
<text text-anchor="middle" x="142.5" y="-7" font-family="Helvetica,sans-Serif" font-size="10.00">MemoryAffinity</text>
</a>
</g>
</g>
<!-- Node2 -->
<g id="Node000002" class="node">
<title>Node2</title>
<g id="a_Node000002"><a xlink:href="classRealm_1_1Processor.html" target="_top" xlink:title=" ">
<polygon fill="white" stroke="#666666" points="101,-96 0,-96 0,-77 101,-77 101,-96"/>
<text text-anchor="middle" x="50.5" y="-84" font-family="Helvetica,sans-Serif" font-size="10.00">Realm::Processor</text>
</a>
</g>
</g>
<!-- Node2&#45;&gt;Node1 -->
<g id="edge1_Node000001_Node000002" class="edge">
<title>Node2&#45;&gt;Node1</title>
<g id="a_edge1_Node000001_Node000002"><a xlink:title=" ">
<path fill="none" stroke="#9a32cd" stroke-dasharray="5,2" d="M69.86,-70.88C85.74,-58.88 108.08,-42 123.79,-30.14"/>
<polygon fill="#9a32cd" stroke="#9a32cd" points="67.65,-68.16 61.78,-76.98 71.87,-73.74 67.65,-68.16"/>
</a>
</g>
<text text-anchor="middle" x="104.5" y="-51" font-family="Helvetica,sans-Serif" font-size="10.00" fill="grey"> p</text>
</g>
<!-- Node2&#45;&gt;Node2 -->
<g id="edge2_Node000002_Node000002" class="edge">
<title>Node2&#45;&gt;Node2</title>
<g id="a_edge2_Node000002_Node000002"><a xlink:title=" ">
<path fill="none" stroke="#9a32cd" stroke-dasharray="5,2" d="M111.43,-91.02C116.11,-90.02 119,-88.51 119,-86.5 119,-83.28 111.61,-81.36 101.28,-80.73"/>
<polygon fill="#9a32cd" stroke="#9a32cd" points="110.78,-87.57 101.28,-92.27 111.64,-94.52 110.78,-87.57"/>
</a>
</g>
<text text-anchor="middle" x="144.5" y="-84" font-family="Helvetica,sans-Serif" font-size="10.00" fill="grey"> NO_PROC</text>
</g>
<!-- Node3 -->
<g id="Node000003" class="node">
<title>Node3</title>
<g id="a_Node000003"><a xlink:href="classRealm_1_1Memory.html" target="_top" xlink:title=" ">
<polygon fill="white" stroke="#666666" points="283,-96 188,-96 188,-77 283,-77 283,-96"/>
<text text-anchor="middle" x="235.5" y="-84" font-family="Helvetica,sans-Serif" font-size="10.00">Realm::Memory</text>
</a>
</g>
</g>
<!-- Node3&#45;&gt;Node1 -->
<g id="edge3_Node000001_Node000003" class="edge">
<title>Node3&#45;&gt;Node1</title>
<g id="a_edge3_Node000001_Node000003"><a xlink:title=" ">
<path fill="none" stroke="#9a32cd" stroke-dasharray="5,2" d="M215.93,-70.88C199.88,-58.88 177.29,-42 161.42,-30.14"/>
<polygon fill="#9a32cd" stroke="#9a32cd" points="213.99,-73.8 224.1,-76.98 218.18,-68.19 213.99,-73.8"/>
</a>
</g>
<text text-anchor="middle" x="203" y="-51" font-family="Helvetica,sans-Serif" font-size="10.00" fill="grey"> m</text>
</g>
<!-- Node3&#45;&gt;Node3 -->
<g id="edge4_Node000003_Node000003" class="edge">
<title>Node3&#45;&gt;Node3</title>
<g id="a_edge4_Node000003_Node000003"><a xlink:title=" ">
<path fill="none" stroke="#9a32cd" stroke-dasharray="5,2" d="M293.36,-91.1C298.08,-90.1 301,-88.57 301,-86.5 301,-83.19 293.51,-81.25 283.19,-80.68"/>
<polygon fill="#9a32cd" stroke="#9a32cd" points="292.7,-87.66 283.19,-92.32 293.54,-94.61 292.7,-87.66"/>
</a>
</g>
<text text-anchor="middle" x="334.5" y="-84" font-family="Helvetica,sans-Serif" font-size="10.00" fill="grey"> NO_MEMORY</text>
</g>
</g>
</svg>
