<?xml version="1.0" encoding="UTF-8" standalone="no"?>
<!DOCTYPE svg PUBLIC "-//W3C//DTD SVG 1.1//EN"
 "http://www.w3.org/Graphics/SVG/1.1/DTD/svg11.dtd">
<!-- Generated by graphviz version 2.43.0 (0)
 -->
<!-- Title: Realm::PieceLookup::Instruction Pages: 1 -->
<svg width="301pt" height="182pt"
 viewBox="0.00 0.00 301.00 182.00" xmlns="http://www.w3.org/2000/svg" xmlns:xlink="http://www.w3.org/1999/xlink">
<g id="graph0" class="graph" transform="scale(1 1) rotate(0) translate(4 178)">
<title>Realm::PieceLookup::Instruction</title>
<!-- Node1 -->
<g id="Node000001" class="node">
<title>Node1</title>
<g id="a_Node000001"><a xlink:title=" ">
<polygon fill="#999999" stroke="#666666" points="115,-102 0,-102 0,-72 115,-72 115,-102"/>
<text text-anchor="start" x="8" y="-90" font-family="Helvetica,sans-Serif" font-size="10.00">Realm::PieceLookup</text>
<text text-anchor="middle" x="57.5" y="-79" font-family="Helvetica,sans-Serif" font-size="10.00">::Instruction</text>
</a>
</g>
</g>
<!-- Node2 -->
<g id="Node000002" class="node">
<title>Node2</title>
<g id="a_Node000002"><a xlink:href="structRealm_1_1PieceLookup_1_1AffinePiece.html" target="_top" xlink:title=" ">
<polygon fill="white" stroke="#666666" points="281.5,-174 162.5,-174 162.5,-144 281.5,-144 281.5,-174"/>
<text text-anchor="start" x="170.5" y="-162" font-family="Helvetica,sans-Serif" font-size="10.00">Realm::PieceLookup</text>
<text text-anchor="middle" x="222" y="-151" font-family="Helvetica,sans-Serif" font-size="10.00">::AffinePiece&lt; N, T &gt;</text>
</a>
</g>
</g>
<!-- Node1&#45;&gt;Node2 -->
<g id="edge1_Node000001_Node000002" class="edge">
<title>Node1&#45;&gt;Node2</title>
<g id="a_edge1_Node000001_Node000002"><a xlink:title=" ">
<path fill="none" stroke="#63b8ff" d="M94.1,-107.05C111.05,-116.19 131.77,-126.77 151,-135 158.32,-138.13 166.2,-141.16 173.94,-143.94"/>
<polygon fill="#63b8ff" stroke="#63b8ff" points="95.56,-103.86 85.11,-102.15 92.21,-110.01 95.56,-103.86"/>
</a>
</g>
</g>
<!-- Node3 -->
<g id="Node000003" class="node">
<title>Node3</title>
<g id="a_Node000003"><a xlink:href="structRealm_1_1PieceLookup_1_1CudaArrayPiece.html" target="_top" xlink:title=" ">
<polygon fill="white" stroke="#666666" points="293,-126 151,-126 151,-96 293,-96 293,-126"/>
<text text-anchor="start" x="159" y="-114" font-family="Helvetica,sans-Serif" font-size="10.00">Realm::PieceLookup</text>
<text text-anchor="middle" x="222" y="-103" font-family="Helvetica,sans-Serif" font-size="10.00">::CudaArrayPiece&lt; N, T &gt;</text>
</a>
</g>
</g>
<!-- Node1&#45;&gt;Node3 -->
<g id="edge2_Node000001_Node000003" class="edge">
<title>Node1&#45;&gt;Node3</title>
<g id="a_edge2_Node000001_Node000003"><a xlink:title=" ">
<path fill="none" stroke="#63b8ff" d="M125.41,-96.88C133.77,-98.12 142.35,-99.38 150.76,-100.63"/>
<polygon fill="#63b8ff" stroke="#63b8ff" points="125.74,-93.39 115.33,-95.39 124.72,-100.32 125.74,-93.39"/>
</a>
</g>
</g>
<!-- Node4 -->
<g id="Node000004" class="node">
<title>Node4</title>
<g id="a_Node000004"><a xlink:href="structRealm_1_1PieceLookup_1_1HDF5Piece.html" target="_top" xlink:title=" ">
<polygon fill="white" stroke="#666666" points="281,-78 163,-78 163,-48 281,-48 281,-78"/>
<text text-anchor="start" x="171" y="-66" font-family="Helvetica,sans-Serif" font-size="10.00">Realm::PieceLookup</text>
<text text-anchor="middle" x="222" y="-55" font-family="Helvetica,sans-Serif" font-size="10.00">::HDF5Piece&lt; N, T &gt;</text>
</a>
</g>
</g>
<!-- Node1&#45;&gt;Node4 -->
<g id="edge3_Node000001_Node000004" class="edge">
<title>Node1&#45;&gt;Node4</title>
<g id="a_edge3_Node000001_Node000004"><a xlink:title=" ">
<path fill="none" stroke="#63b8ff" d="M125.58,-77.09C137.94,-75.27 150.75,-73.38 162.82,-71.59"/>
<polygon fill="#63b8ff" stroke="#63b8ff" points="124.72,-73.68 115.33,-78.61 125.74,-80.61 124.72,-73.68"/>
</a>
</g>
</g>
<!-- Node5 -->
<g id="Node000005" class="node">
<title>Node5</title>
<g id="a_Node000005"><a xlink:href="structRealm_1_1PieceLookup_1_1SplitPlane.html" target="_top" xlink:title=" ">
<polygon fill="white" stroke="#666666" points="279.5,-30 164.5,-30 164.5,0 279.5,0 279.5,-30"/>
<text text-anchor="start" x="172.5" y="-18" font-family="Helvetica,sans-Serif" font-size="10.00">Realm::PieceLookup</text>
<text text-anchor="middle" x="222" y="-7" font-family="Helvetica,sans-Serif" font-size="10.00">::SplitPlane&lt; N, T &gt;</text>
</a>
</g>
</g>
<!-- Node1&#45;&gt;Node5 -->
<g id="edge4_Node000001_Node000005" class="edge">
<title>Node1&#45;&gt;Node5</title>
<g id="a_edge4_Node000001_Node000005"><a xlink:title=" ">
<path fill="none" stroke="#63b8ff" d="M94.1,-66.95C111.05,-57.81 131.77,-47.23 151,-39 158.32,-35.87 166.2,-32.84 173.94,-30.06"/>
<polygon fill="#63b8ff" stroke="#63b8ff" points="92.21,-63.99 85.11,-71.85 95.56,-70.14 92.21,-63.99"/>
</a>
</g>
</g>
</g>
</svg>
