<?xml version="1.0" encoding="UTF-8" standalone="no"?>
<!DOCTYPE svg PUBLIC "-//W3C//DTD SVG 1.1//EN"
 "http://www.w3.org/Graphics/SVG/1.1/DTD/svg11.dtd">
<!-- Generated by graphviz version 2.43.0 (0)
 -->
<!-- Title: Realm::CachingAllocator&lt; T, N &gt;::Block::BlockList Pages: 1 -->
<svg width="1113pt" height="348pt"
 viewBox="0.00 0.00 1113.00 348.00" xmlns="http://www.w3.org/2000/svg" xmlns:xlink="http://www.w3.org/1999/xlink">
<g id="graph0" class="graph" transform="scale(1 1) rotate(0) translate(4 344)">
<title>Realm::CachingAllocator&lt; T, N &gt;::Block::BlockList</title>
<!-- Node1 -->
<g id="Node000001" class="node">
<title>Node1</title>
<g id="a_Node000001"><a xlink:title=" ">
<polygon fill="#999999" stroke="#666666" points="1105,-285.5 963,-285.5 963,-255.5 1105,-255.5 1105,-285.5"/>
<text text-anchor="start" x="971" y="-273.5" font-family="Helvetica,sans-Serif" font-size="10.00">Realm::CachingAllocator</text>
<text text-anchor="middle" x="1034" y="-262.5" font-family="Helvetica,sans-Serif" font-size="10.00">&lt; T, N &gt;::Block::BlockList</text>
</a>
</g>
</g>
<!-- Node2 -->
<g id="Node000002" class="node">
<title>Node2</title>
<g id="a_Node000002"><a xlink:href="classRealm_1_1IntrusiveList.html" target="_top" xlink:title=" ">
<polygon fill="white" stroke="#666666" points="926,-291 771,-291 771,-250 926,-250 926,-291"/>
<text text-anchor="start" x="779" y="-279" font-family="Helvetica,sans-Serif" font-size="10.00">Realm::IntrusiveList</text>
<text text-anchor="start" x="779" y="-268" font-family="Helvetica,sans-Serif" font-size="10.00">&lt; Block, REALM_PMTA_USE</text>
<text text-anchor="middle" x="848.5" y="-257" font-family="Helvetica,sans-Serif" font-size="10.00">(Block, block_link), Mutex &gt;</text>
</a>
</g>
</g>
<!-- Node2&#45;&gt;Node1 -->
<g id="edge1_Node000001_Node000002" class="edge">
<title>Node2&#45;&gt;Node1</title>
<g id="a_edge1_Node000001_Node000002"><a xlink:title=" ">
<path fill="none" stroke="#63b8ff" d="M936.31,-270.5C945.25,-270.5 954.26,-270.5 962.99,-270.5"/>
<polygon fill="#63b8ff" stroke="#63b8ff" points="936.26,-267 926.26,-270.5 936.26,-274 936.26,-267"/>
</a>
</g>
</g>
<!-- Node3 -->
<g id="Node000003" class="node">
<title>Node3</title>
<g id="a_Node000003"><a xlink:href="classRealm_1_1UnfairMutex.html" target="_top" xlink:title=" ">
<polygon fill="white" stroke="#666666" points="614.5,-303 499.5,-303 499.5,-284 614.5,-284 614.5,-303"/>
<text text-anchor="middle" x="557" y="-291" font-family="Helvetica,sans-Serif" font-size="10.00">Realm::UnfairMutex</text>
</a>
</g>
</g>
<!-- Node3&#45;&gt;Node2 -->
<g id="edge2_Node000002_Node000003" class="edge">
<title>Node3&#45;&gt;Node2</title>
<g id="a_edge2_Node000002_Node000003"><a xlink:title=" ">
<path fill="none" stroke="#9a32cd" stroke-dasharray="5,2" d="M624.72,-288.2C668.33,-284.73 725.41,-280.2 770.87,-276.59"/>
<polygon fill="#9a32cd" stroke="#9a32cd" points="624.2,-284.73 614.51,-289.01 624.75,-291.71 624.2,-284.73"/>
</a>
</g>
<text text-anchor="middle" x="700" y="-288.5" font-family="Helvetica,sans-Serif" font-size="10.00" fill="grey"> lock</text>
</g>
<!-- Node4 -->
<g id="Node000004" class="node">
<title>Node4</title>
<g id="a_Node000004"><a xlink:href="classRealm_1_1noncopyable.html" target="_top" xlink:title=" ">
<polygon fill="white" stroke="#666666" points="396,-340 280,-340 280,-321 396,-321 396,-340"/>
<text text-anchor="middle" x="338" y="-328" font-family="Helvetica,sans-Serif" font-size="10.00">Realm::noncopyable</text>
</a>
</g>
</g>
<!-- Node4&#45;&gt;Node3 -->
<g id="edge3_Node000003_Node000004" class="edge">
<title>Node4&#45;&gt;Node3</title>
<g id="a_edge3_Node000003_Node000004"><a xlink:title=" ">
<path fill="none" stroke="#63b8ff" d="M404.95,-319.25C435.29,-314.08 470.91,-308.01 499.93,-303.06"/>
<polygon fill="#63b8ff" stroke="#63b8ff" points="404.15,-315.84 394.88,-320.97 405.33,-322.74 404.15,-315.84"/>
</a>
</g>
</g>
<!-- Node5 -->
<g id="Node000005" class="node">
<title>Node5</title>
<g id="a_Node000005"><a xlink:href="classRealm_1_1atomic.html" target="_top" xlink:title=" ">
<polygon fill="white" stroke="#666666" points="413,-303 263,-303 263,-284 413,-284 413,-303"/>
<text text-anchor="middle" x="338" y="-291" font-family="Helvetica,sans-Serif" font-size="10.00">Realm::atomic&lt; uint32_t &gt;</text>
</a>
</g>
</g>
<!-- Node5&#45;&gt;Node3 -->
<g id="edge4_Node000003_Node000005" class="edge">
<title>Node5&#45;&gt;Node3</title>
<g id="a_edge4_Node000003_Node000005"><a xlink:title=" ">
<path fill="none" stroke="#9a32cd" stroke-dasharray="5,2" d="M423.13,-293.5C448.67,-293.5 476.11,-293.5 499.39,-293.5"/>
<polygon fill="#9a32cd" stroke="#9a32cd" points="423.07,-290 413.07,-293.5 423.07,-297 423.07,-290"/>
</a>
</g>
<text text-anchor="middle" x="449" y="-296.5" font-family="Helvetica,sans-Serif" font-size="10.00" fill="grey"> state</text>
</g>
<!-- Node6 -->
<g id="Node000006" class="node">
<title>Node6</title>
<g id="a_Node000006"><a xlink:href="classRealm_1_1DoorbellList.html" target="_top" xlink:title=" ">
<polygon fill="white" stroke="#666666" points="394.5,-266 281.5,-266 281.5,-247 394.5,-247 394.5,-266"/>
<text text-anchor="middle" x="338" y="-254" font-family="Helvetica,sans-Serif" font-size="10.00">Realm::DoorbellList</text>
</a>
</g>
</g>
<!-- Node6&#45;&gt;Node3 -->
<g id="edge5_Node000003_Node000006" class="edge">
<title>Node6&#45;&gt;Node3</title>
<g id="a_edge5_Node000003_Node000006"><a xlink:title=" ">
<path fill="none" stroke="#9a32cd" stroke-dasharray="5,2" d="M404.71,-267.7C435.19,-272.9 471.02,-279.01 500.17,-283.98"/>
<polygon fill="#9a32cd" stroke="#9a32cd" points="405.05,-264.21 394.6,-265.98 403.87,-271.11 405.05,-264.21"/>
</a>
</g>
<text text-anchor="middle" x="449" y="-280.5" font-family="Helvetica,sans-Serif" font-size="10.00" fill="grey"> db_list</text>
</g>
<!-- Node7 -->
<g id="Node000007" class="node">
<title>Node7</title>
<g id="a_Node000007"><a xlink:href="classRealm_1_1atomic.html" target="_top" xlink:title=" ">
<polygon fill="white" stroke="#666666" points="152,-266 0,-266 0,-247 152,-247 152,-266"/>
<text text-anchor="middle" x="76" y="-254" font-family="Helvetica,sans-Serif" font-size="10.00">Realm::atomic&lt; uintptr_t &gt;</text>
</a>
</g>
</g>
<!-- Node7&#45;&gt;Node6 -->
<g id="edge6_Node000006_Node000007" class="edge">
<title>Node7&#45;&gt;Node6</title>
<g id="a_edge6_Node000006_Node000007"><a xlink:title=" ">
<path fill="none" stroke="#9a32cd" stroke-dasharray="5,2" d="M162.52,-256.5C201.61,-256.5 246.79,-256.5 281.38,-256.5"/>
<polygon fill="#9a32cd" stroke="#9a32cd" points="162.2,-253 152.2,-256.5 162.2,-260 162.2,-253"/>
</a>
</g>
<text text-anchor="middle" x="207.5" y="-259.5" font-family="Helvetica,sans-Serif" font-size="10.00" fill="grey"> head_or_count</text>
</g>
<!-- Node8 -->
<g id="Node000008" class="node">
<title>Node8</title>
<g id="a_Node000008"><a xlink:href="structRealm_1_1IntrusiveListLink.html" target="_top" xlink:title=" ">
<polygon fill="white" stroke="#666666" points="624,-229.5 490,-229.5 490,-199.5 624,-199.5 624,-229.5"/>
<text text-anchor="start" x="498" y="-217.5" font-family="Helvetica,sans-Serif" font-size="10.00">Realm::IntrusiveListLink</text>
<text text-anchor="middle" x="557" y="-206.5" font-family="Helvetica,sans-Serif" font-size="10.00">&lt; Block &gt;</text>
</a>
</g>
</g>
<!-- Node8&#45;&gt;Node2 -->
<g id="edge7_Node000002_Node000008" class="edge">
<title>Node8&#45;&gt;Node2</title>
<g id="a_edge7_Node000002_Node000008"><a xlink:title=" ">
<path fill="none" stroke="#9a32cd" stroke-dasharray="5,2" d="M634.01,-229.2C676.25,-237.37 728.66,-247.51 770.98,-255.7"/>
<polygon fill="#9a32cd" stroke="#9a32cd" points="634.54,-225.74 624.05,-227.28 633.21,-232.61 634.54,-225.74"/>
</a>
</g>
<text text-anchor="middle" x="700" y="-264.5" font-family="Helvetica,sans-Serif" font-size="10.00" fill="grey"> head</text>
<text text-anchor="middle" x="700" y="-253.5" font-family="Helvetica,sans-Serif" font-size="10.00" fill="grey">lastlink</text>
</g>
<!-- Node9 -->
<g id="Node000009" class="node">
<title>Node9</title>
<g id="a_Node000009"><a xlink:title=" ">
<polygon fill="white" stroke="#666666" points="917,-161.5 780,-161.5 780,-131.5 917,-131.5 917,-161.5"/>
<text text-anchor="start" x="788" y="-149.5" font-family="Helvetica,sans-Serif" font-size="10.00">Realm::CachingAllocator</text>
<text text-anchor="middle" x="848.5" y="-138.5" font-family="Helvetica,sans-Serif" font-size="10.00">&lt; T, N &gt;::Block</text>
</a>
</g>
</g>
<!-- Node8&#45;&gt;Node9 -->
<g id="edge14_Node000009_Node000008" class="edge">
<title>Node8&#45;&gt;Node9</title>
<g id="a_edge14_Node000009_Node000008"><a xlink:title=" ">
<path fill="none" stroke="#9a32cd" stroke-dasharray="5,2" d="M600.89,-195.51C615.32,-189.7 631.65,-183.73 647,-179.5 671.44,-172.76 731.66,-163.19 779.76,-156.08"/>
<polygon fill="#9a32cd" stroke="#9a32cd" points="599.15,-192.44 591.24,-199.49 601.82,-198.92 599.15,-192.44"/>
</a>
</g>
<text text-anchor="middle" x="700" y="-182.5" font-family="Helvetica,sans-Serif" font-size="10.00" fill="grey"> block_link</text>
</g>
<!-- Node9&#45;&gt;Node8 -->
<g id="edge8_Node000008_Node000009" class="edge">
<title>Node9&#45;&gt;Node8</title>
<g id="a_edge8_Node000008_Node000009"><a xlink:title=" ">
<path fill="none" stroke="#9a32cd" stroke-dasharray="5,2" d="M813.18,-166.73C795.73,-176.08 773.85,-186.45 753,-192.5 711.12,-204.66 662.37,-210.16 624.09,-212.62"/>
<polygon fill="#9a32cd" stroke="#9a32cd" points="815.3,-169.55 822.38,-161.66 811.93,-163.42 815.3,-169.55"/>
</a>
</g>
<text text-anchor="middle" x="700" y="-213.5" font-family="Helvetica,sans-Serif" font-size="10.00" fill="grey"> next</text>
</g>
<!-- Node10 -->
<g id="Node000010" class="node">
<title>Node10</title>
<g id="a_Node000010"><a xlink:href="classRealm_1_1atomic.html" target="_top" xlink:title=" ">
<polygon fill="white" stroke="#666666" points="629,-159 485,-159 485,-140 629,-140 629,-159"/>
<text text-anchor="middle" x="557" y="-147" font-family="Helvetica,sans-Serif" font-size="10.00">Realm::atomic&lt; ssize_t &gt;</text>
</a>
</g>
</g>
<!-- Node10&#45;&gt;Node9 -->
<g id="edge9_Node000009_Node000010" class="edge">
<title>Node10&#45;&gt;Node9</title>
<g id="a_edge9_Node000009_Node000010"><a xlink:title=" ">
<path fill="none" stroke="#9a32cd" stroke-dasharray="5,2" d="M639.67,-147.61C642.14,-147.57 644.59,-147.53 647,-147.5 691.2,-146.89 740.89,-146.64 779.75,-146.54"/>
<polygon fill="#9a32cd" stroke="#9a32cd" points="639.34,-144.11 629.41,-147.79 639.47,-151.11 639.34,-144.11"/>
</a>
</g>
<text text-anchor="middle" x="700" y="-150.5" font-family="Helvetica,sans-Serif" font-size="10.00" fill="grey"> num_alloced_chunks</text>
</g>
<!-- Node11 -->
<g id="Node000011" class="node">
<title>Node11</title>
<g id="a_Node000011"><a xlink:href="structRealm_1_1CachingAllocator_1_1Block_1_1Chunk.html" target="_top" xlink:title=" ">
<polygon fill="white" stroke="#666666" points="625.5,-52.5 488.5,-52.5 488.5,-22.5 625.5,-22.5 625.5,-52.5"/>
<text text-anchor="start" x="496.5" y="-40.5" font-family="Helvetica,sans-Serif" font-size="10.00">Realm::CachingAllocator</text>
<text text-anchor="middle" x="557" y="-29.5" font-family="Helvetica,sans-Serif" font-size="10.00">&lt; T, N &gt;::Block::Chunk</text>
</a>
</g>
</g>
<!-- Node11&#45;&gt;Node9 -->
<g id="edge10_Node000009_Node000011" class="edge">
<title>Node11&#45;&gt;Node9</title>
<g id="a_edge10_Node000009_Node000011"><a xlink:title=" ">
<path fill="none" stroke="#9a32cd" stroke-dasharray="5,2" d="M621.32,-55.49C659.86,-67.05 709.83,-83.12 753,-100.5 775.68,-109.63 800.51,-121.81 819.02,-131.34"/>
<polygon fill="#9a32cd" stroke="#9a32cd" points="621.85,-52 611.27,-52.5 619.86,-58.71 621.85,-52"/>
</a>
</g>
<text text-anchor="middle" x="700" y="-103.5" font-family="Helvetica,sans-Serif" font-size="10.00" fill="grey"> chunks</text>
</g>
<!-- Node12 -->
<g id="Node000012" class="node">
<title>Node12</title>
<g id="a_Node000012"><a xlink:href="structRealm_1_1IntrusiveListLink.html" target="_top" xlink:title=" ">
<polygon fill="white" stroke="#666666" points="922.5,-41 774.5,-41 774.5,0 922.5,0 922.5,-41"/>
<text text-anchor="start" x="782.5" y="-29" font-family="Helvetica,sans-Serif" font-size="10.00">Realm::IntrusiveListLink</text>
<text text-anchor="start" x="782.5" y="-18" font-family="Helvetica,sans-Serif" font-size="10.00">&lt; Realm::CachingAllocator</text>
<text text-anchor="middle" x="848.5" y="-7" font-family="Helvetica,sans-Serif" font-size="10.00">::Block::Chunk &gt;</text>
</a>
</g>
</g>
<!-- Node11&#45;&gt;Node12 -->
<g id="edge12_Node000012_Node000011" class="edge">
<title>Node11&#45;&gt;Node12</title>
<g id="a_edge12_Node000012_Node000011"><a xlink:title=" ">
<path fill="none" stroke="#9a32cd" stroke-dasharray="5,2" d="M635.66,-32.94C678.73,-30.41 731.97,-27.28 774.3,-24.8"/>
<polygon fill="#9a32cd" stroke="#9a32cd" points="635.29,-29.46 625.51,-33.54 635.7,-36.44 635.29,-29.46"/>
</a>
</g>
<text text-anchor="middle" x="700" y="-35.5" font-family="Helvetica,sans-Serif" font-size="10.00" fill="grey"> next</text>
</g>
<!-- Node12&#45;&gt;Node11 -->
<g id="edge11_Node000011_Node000012" class="edge">
<title>Node12&#45;&gt;Node11</title>
<g id="a_edge11_Node000011_Node000012"><a xlink:title=" ">
<path fill="none" stroke="#9a32cd" stroke-dasharray="5,2" d="M764.17,-4.33C727.96,0.24 685.17,2.35 647,-4.5 627.54,-7.99 606.76,-15.46 590.19,-22.41"/>
<polygon fill="#9a32cd" stroke="#9a32cd" points="763.82,-7.82 774.2,-5.69 764.76,-0.88 763.82,-7.82"/>
</a>
</g>
<text text-anchor="middle" x="700" y="-7.5" font-family="Helvetica,sans-Serif" font-size="10.00" fill="grey"> chunk_link</text>
</g>
<!-- Node13 -->
<g id="Node000013" class="node">
<title>Node13</title>
<g id="a_Node000013"><a xlink:href="classRealm_1_1atomic.html" target="_top" xlink:title=" ">
<polygon fill="white" stroke="#666666" points="626,-122 488,-122 488,-81 626,-81 626,-122"/>
<text text-anchor="start" x="496" y="-110" font-family="Helvetica,sans-Serif" font-size="10.00">Realm::atomic&lt; Realm</text>
<text text-anchor="start" x="496" y="-99" font-family="Helvetica,sans-Serif" font-size="10.00">::CachingAllocator::Block</text>
<text text-anchor="middle" x="557" y="-88" font-family="Helvetica,sans-Serif" font-size="10.00">::Chunk * &gt;</text>
</a>
</g>
</g>
<!-- Node13&#45;&gt;Node9 -->
<g id="edge13_Node000009_Node000013" class="edge">
<title>Node13&#45;&gt;Node9</title>
<g id="a_edge13_Node000009_Node000013"><a xlink:title=" ">
<path fill="none" stroke="#9a32cd" stroke-dasharray="5,2" d="M636.47,-113.48C672.05,-118.94 714.65,-125.51 753,-131.5 761.7,-132.86 770.85,-134.3 779.88,-135.73"/>
<polygon fill="#9a32cd" stroke="#9a32cd" points="636.56,-109.96 626.15,-111.9 635.5,-116.88 636.56,-109.96"/>
</a>
</g>
<text text-anchor="middle" x="700" y="-134.5" font-family="Helvetica,sans-Serif" font-size="10.00" fill="grey"> free_chunk_head</text>
</g>
</g>
</svg>
