<?xml version="1.0" encoding="UTF-8" standalone="no"?>
<!DOCTYPE svg PUBLIC "-//W3C//DTD SVG 1.1//EN"
 "http://www.w3.org/Graphics/SVG/1.1/DTD/svg11.dtd">
<!-- Generated by graphviz version 2.43.0 (0)
 -->
<!-- Title: Realm::MemoryImpl::InstanceList Pages: 1 -->
<svg width="430pt" height="104pt"
 viewBox="0.00 0.00 430.00 104.00" xmlns="http://www.w3.org/2000/svg" xmlns:xlink="http://www.w3.org/1999/xlink">
<g id="graph0" class="graph" transform="scale(1 1) rotate(0) translate(4 100)">
<title>Realm::MemoryImpl::InstanceList</title>
<!-- Node1 -->
<g id="Node000001" class="node">
<title>Node1</title>
<g id="a_Node000001"><a xlink:title=" ">
<polygon fill="#999999" stroke="#666666" points="122,-30 0,-30 0,0 122,0 122,-30"/>
<text text-anchor="start" x="8" y="-18" font-family="Helvetica,sans-Serif" font-size="10.00">Realm::MemoryImpl::</text>
<text text-anchor="middle" x="61" y="-7" font-family="Helvetica,sans-Serif" font-size="10.00">InstanceList</text>
</a>
</g>
</g>
<!-- Node2 -->
<g id="Node000002" class="node">
<title>Node2</title>
<g id="a_Node000002"><a xlink:href="classRealm_1_1RWLock.html" target="_top" xlink:title=" ">
<polygon fill="white" stroke="#666666" points="287.5,-96 194.5,-96 194.5,-77 287.5,-77 287.5,-96"/>
<text text-anchor="middle" x="241" y="-84" font-family="Helvetica,sans-Serif" font-size="10.00">Realm::RWLock</text>
</a>
</g>
</g>
<!-- Node2&#45;&gt;Node1 -->
<g id="edge1_Node000001_Node000002" class="edge">
<title>Node2&#45;&gt;Node1</title>
<g id="a_edge1_Node000001_Node000002"><a xlink:title=" ">
<path fill="none" stroke="#9a32cd" stroke-dasharray="5,2" d="M190.19,-74.49C174.2,-70.37 156.63,-65.17 141,-59 120.91,-51.07 99.41,-39.31 83.76,-30.09"/>
<polygon fill="#9a32cd" stroke="#9a32cd" points="189.37,-77.89 199.92,-76.91 191.06,-71.1 189.37,-77.89"/>
</a>
</g>
<text text-anchor="middle" x="158.5" y="-51" font-family="Helvetica,sans-Serif" font-size="10.00" fill="grey"> mutex</text>
</g>
<!-- Node3 -->
<g id="Node000003" class="node">
<title>Node3</title>
<g id="a_Node000003"><a xlink:href="structRealm_1_1RWLock_1_1Writer.html" target="_top" xlink:title=" ">
<polygon fill="white" stroke="#666666" points="269.5,-24.5 140.5,-24.5 140.5,-5.5 269.5,-5.5 269.5,-24.5"/>
<text text-anchor="middle" x="205" y="-12.5" font-family="Helvetica,sans-Serif" font-size="10.00">Realm::RWLock::Writer</text>
</a>
</g>
</g>
<!-- Node2&#45;&gt;Node3 -->
<g id="edge3_Node000003_Node000002" class="edge">
<title>Node2&#45;&gt;Node3</title>
<g id="a_edge3_Node000003_Node000002"><a xlink:title=" ">
<path fill="none" stroke="#9a32cd" stroke-dasharray="5,2" d="M195.99,-72.23C190.46,-68.78 185.52,-64.44 182,-59 174.64,-47.63 185.47,-33.67 194.62,-24.81"/>
<polygon fill="#9a32cd" stroke="#9a32cd" points="194.57,-75.44 205.06,-76.96 197.81,-69.23 194.57,-75.44"/>
</a>
</g>
<text text-anchor="middle" x="200" y="-51" font-family="Helvetica,sans-Serif" font-size="10.00" fill="grey"> rwlock</text>
</g>
<!-- Node4 -->
<g id="Node000004" class="node">
<title>Node4</title>
<g id="a_Node000004"><a xlink:href="structRealm_1_1RWLock_1_1Reader.html" target="_top" xlink:title=" ">
<polygon fill="white" stroke="#666666" points="422,-24.5 288,-24.5 288,-5.5 422,-5.5 422,-24.5"/>
<text text-anchor="middle" x="355" y="-12.5" font-family="Helvetica,sans-Serif" font-size="10.00">Realm::RWLock::Reader</text>
</a>
</g>
</g>
<!-- Node2&#45;&gt;Node4 -->
<g id="edge5_Node000004_Node000002" class="edge">
<title>Node2&#45;&gt;Node4</title>
<g id="a_edge5_Node000004_Node000002"><a xlink:title=" ">
<path fill="none" stroke="#9a32cd" stroke-dasharray="5,2" d="M259.93,-70.81C269.59,-63.58 281.67,-54.96 293,-48 307.25,-39.25 324.15,-30.64 336.71,-24.55"/>
<polygon fill="#9a32cd" stroke="#9a32cd" points="257.68,-68.13 251.83,-76.96 261.91,-73.7 257.68,-68.13"/>
</a>
</g>
<text text-anchor="middle" x="311" y="-51" font-family="Helvetica,sans-Serif" font-size="10.00" fill="grey"> rwlock</text>
</g>
<!-- Node3&#45;&gt;Node2 -->
<g id="edge2_Node000002_Node000003" class="edge">
<title>Node3&#45;&gt;Node2</title>
<g id="a_edge2_Node000002_Node000003"><a xlink:title=" ">
<path fill="none" stroke="#9a32cd" stroke-dasharray="5,2" d="M214.15,-33.66C221.33,-47.53 231.03,-66.24 236.59,-76.98"/>
<polygon fill="#9a32cd" stroke="#9a32cd" points="217.16,-31.86 209.45,-24.59 210.94,-35.08 217.16,-31.86"/>
</a>
</g>
<text text-anchor="middle" x="243" y="-51" font-family="Helvetica,sans-Serif" font-size="10.00" fill="grey"> writer</text>
</g>
<!-- Node4&#45;&gt;Node2 -->
<g id="edge4_Node000002_Node000004" class="edge">
<title>Node4&#45;&gt;Node2</title>
<g id="a_edge4_Node000002_Node000004"><a xlink:title=" ">
<path fill="none" stroke="#9a32cd" stroke-dasharray="5,2" d="M349.5,-34.22C346.04,-42.85 340.73,-52.63 333,-59 320.17,-69.57 303.33,-75.93 287.56,-79.75"/>
<polygon fill="#9a32cd" stroke="#9a32cd" points="352.87,-35.17 352.84,-24.57 346.26,-32.87 352.87,-35.17"/>
</a>
</g>
<text text-anchor="middle" x="359.5" y="-51" font-family="Helvetica,sans-Serif" font-size="10.00" fill="grey"> reader</text>
</g>
</g>
</svg>
