<?xml version="1.0" encoding="UTF-8" standalone="no"?>
<!DOCTYPE svg PUBLIC "-//W3C//DTD SVG 1.1//EN"
 "http://www.w3.org/Graphics/SVG/1.1/DTD/svg11.dtd">
<!-- Generated by graphviz version 2.43.0 (0)
 -->
<!-- Title: Realm::CachingAllocator&lt; T, N &gt;::Block::Chunk Pages: 1 -->
<svg width="301pt" height="126pt"
 viewBox="0.00 0.00 301.00 126.00" xmlns="http://www.w3.org/2000/svg" xmlns:xlink="http://www.w3.org/1999/xlink">
<g id="graph0" class="graph" transform="scale(1 1) rotate(0) translate(4 122)">
<title>Realm::CachingAllocator&lt; T, N &gt;::Block::Chunk</title>
<!-- Node1 -->
<g id="Node000001" class="node">
<title>Node1</title>
<g id="a_Node000001"><a xlink:title=" ">
<polygon fill="#999999" stroke="#666666" points="137,-30 0,-30 0,0 137,0 137,-30"/>
<text text-anchor="start" x="8" y="-18" font-family="Helvetica,sans-Serif" font-size="10.00">Realm::CachingAllocator</text>
<text text-anchor="middle" x="68.5" y="-7" font-family="Helvetica,sans-Serif" font-size="10.00">&lt; T, N &gt;::Block::Chunk</text>
</a>
</g>
</g>
<!-- Node2 -->
<g id="Node000002" class="node">
<title>Node2</title>
<g id="a_Node000002"><a xlink:href="structRealm_1_1IntrusiveListLink.html" target="_top" xlink:title=" ">
<polygon fill="white" stroke="#666666" points="221.5,-118 73.5,-118 73.5,-77 221.5,-77 221.5,-118"/>
<text text-anchor="start" x="81.5" y="-106" font-family="Helvetica,sans-Serif" font-size="10.00">Realm::IntrusiveListLink</text>
<text text-anchor="start" x="81.5" y="-95" font-family="Helvetica,sans-Serif" font-size="10.00">&lt; Realm::CachingAllocator</text>
<text text-anchor="middle" x="147.5" y="-84" font-family="Helvetica,sans-Serif" font-size="10.00">::Block::Chunk &gt;</text>
</a>
</g>
</g>
<!-- Node2&#45;&gt;Node1 -->
<g id="edge1_Node000001_Node000002" class="edge">
<title>Node2&#45;&gt;Node1</title>
<g id="a_edge1_Node000001_Node000002"><a xlink:title=" ">
<path fill="none" stroke="#9a32cd" stroke-dasharray="5,2" d="M91.41,-70.89C86.98,-67.35 82.9,-63.4 79.5,-59 73.09,-50.71 70.38,-39.09 69.26,-30.02"/>
<polygon fill="#9a32cd" stroke="#9a32cd" points="89.55,-73.86 99.73,-76.82 93.62,-68.17 89.55,-73.86"/>
</a>
</g>
<text text-anchor="middle" x="107.5" y="-51" font-family="Helvetica,sans-Serif" font-size="10.00" fill="grey"> chunk_link</text>
</g>
<!-- Node3 -->
<g id="Node000003" class="node">
<title>Node3</title>
<g id="a_Node000003"><a xlink:href="structRealm_1_1CachingAllocator_1_1Block_1_1Chunk.html" target="_top" xlink:title=" ">
<polygon fill="white" stroke="#666666" points="293,-30 156,-30 156,0 293,0 293,-30"/>
<text text-anchor="start" x="164" y="-18" font-family="Helvetica,sans-Serif" font-size="10.00">Realm::CachingAllocator</text>
<text text-anchor="middle" x="224.5" y="-7" font-family="Helvetica,sans-Serif" font-size="10.00">&lt; T, N &gt;::Block::Chunk</text>
</a>
</g>
</g>
<!-- Node2&#45;&gt;Node3 -->
<g id="edge3_Node000003_Node000002" class="edge">
<title>Node2&#45;&gt;Node3</title>
<g id="a_edge3_Node000003_Node000002"><a xlink:title=" ">
<path fill="none" stroke="#9a32cd" stroke-dasharray="5,2" d="M139.81,-66.52C139.67,-59.98 140.84,-53.41 144.5,-48 149.7,-40.32 157.07,-34.48 165.26,-30.05"/>
<polygon fill="#9a32cd" stroke="#9a32cd" points="136.35,-67.06 140.96,-76.6 143.31,-66.27 136.35,-67.06"/>
</a>
</g>
<text text-anchor="middle" x="172.5" y="-51" font-family="Helvetica,sans-Serif" font-size="10.00" fill="grey"> chunk_link</text>
</g>
<!-- Node3&#45;&gt;Node2 -->
<g id="edge2_Node000002_Node000003" class="edge">
<title>Node3&#45;&gt;Node2</title>
<g id="a_edge2_Node000002_Node000003"><a xlink:title=" ">
<path fill="none" stroke="#9a32cd" stroke-dasharray="5,2" d="M216.29,-39.71C213.25,-46.41 209.34,-53.39 204.5,-59 198.69,-65.73 191.4,-71.73 183.98,-76.86"/>
<polygon fill="#9a32cd" stroke="#9a32cd" points="219.59,-40.88 220.11,-30.3 213.11,-38.24 219.59,-40.88"/>
</a>
</g>
<text text-anchor="middle" x="224" y="-51" font-family="Helvetica,sans-Serif" font-size="10.00" fill="grey"> next</text>
</g>
</g>
</svg>
