<?xml version="1.0" encoding="UTF-8" standalone="no"?>
<!DOCTYPE svg PUBLIC "-//W3C//DTD SVG 1.1//EN"
 "http://www.w3.org/Graphics/SVG/1.1/DTD/svg11.dtd">
<!-- Generated by graphviz version 2.43.0 (0)
 -->
<!-- Title: Realm::TransferGraph::XDTemplate Pages: 1 -->
<svg width="410pt" height="104pt"
 viewBox="0.00 0.00 410.00 104.00" xmlns="http://www.w3.org/2000/svg" xmlns:xlink="http://www.w3.org/1999/xlink">
<g id="graph0" class="graph" transform="scale(1 1) rotate(0) translate(4 100)">
<title>Realm::TransferGraph::XDTemplate</title>
<!-- Node1 -->
<g id="Node000001" class="node">
<title>Node1</title>
<g id="a_Node000001"><a xlink:title=" ">
<polygon fill="#999999" stroke="#666666" points="279,-30 157,-30 157,0 279,0 279,-30"/>
<text text-anchor="start" x="165" y="-18" font-family="Helvetica,sans-Serif" font-size="10.00">Realm::TransferGraph</text>
<text text-anchor="middle" x="218" y="-7" font-family="Helvetica,sans-Serif" font-size="10.00">::XDTemplate</text>
</a>
</g>
</g>
<!-- Node2 -->
<g id="Node000002" class="node">
<title>Node2</title>
<g id="a_Node000002"><a xlink:href="classRealm_1_1XferDesFactory.html" target="_top" xlink:title=" ">
<polygon fill="white" stroke="#666666" points="128,-96 0,-96 0,-77 128,-77 128,-96"/>
<text text-anchor="middle" x="64" y="-84" font-family="Helvetica,sans-Serif" font-size="10.00">Realm::XferDesFactory</text>
</a>
</g>
</g>
<!-- Node2&#45;&gt;Node1 -->
<g id="edge1_Node000001_Node000002" class="edge">
<title>Node2&#45;&gt;Node1</title>
<g id="a_edge1_Node000001_Node000002"><a xlink:title=" ">
<path fill="none" stroke="#9a32cd" stroke-dasharray="5,2" d="M92.1,-72.82C118.91,-60.72 159.22,-42.53 186.96,-30.01"/>
<polygon fill="#9a32cd" stroke="#9a32cd" points="90.56,-69.67 82.88,-76.98 93.44,-76.05 90.56,-69.67"/>
</a>
</g>
<text text-anchor="middle" x="165" y="-51" font-family="Helvetica,sans-Serif" font-size="10.00" fill="grey"> factory</text>
</g>
<!-- Node3 -->
<g id="Node000003" class="node">
<title>Node3</title>
<g id="a_Node000003"><a xlink:href="structRealm_1_1XferDesRedopInfo.html" target="_top" xlink:title=" ">
<polygon fill="white" stroke="#666666" points="289.5,-96 146.5,-96 146.5,-77 289.5,-77 289.5,-96"/>
<text text-anchor="middle" x="218" y="-84" font-family="Helvetica,sans-Serif" font-size="10.00">Realm::XferDesRedopInfo</text>
</a>
</g>
</g>
<!-- Node3&#45;&gt;Node1 -->
<g id="edge2_Node000001_Node000003" class="edge">
<title>Node3&#45;&gt;Node1</title>
<g id="a_edge2_Node000001_Node000003"><a xlink:title=" ">
<path fill="none" stroke="#9a32cd" stroke-dasharray="5,2" d="M218,-66.71C218,-55.19 218,-40.68 218,-30.14"/>
<polygon fill="#9a32cd" stroke="#9a32cd" points="214.5,-66.98 218,-76.98 221.5,-66.98 214.5,-66.98"/>
</a>
</g>
<text text-anchor="middle" x="233.5" y="-51" font-family="Helvetica,sans-Serif" font-size="10.00" fill="grey"> redop</text>
</g>
<!-- Node4 -->
<g id="Node000004" class="node">
<title>Node4</title>
<g id="a_Node000004"><a xlink:href="classRealm_1_1Channel.html" target="_top" xlink:title=" ">
<polygon fill="white" stroke="#666666" points="402,-96 308,-96 308,-77 402,-77 402,-96"/>
<text text-anchor="middle" x="355" y="-84" font-family="Helvetica,sans-Serif" font-size="10.00">Realm::Channel</text>
</a>
</g>
</g>
<!-- Node4&#45;&gt;Node1 -->
<g id="edge3_Node000001_Node000004" class="edge">
<title>Node4&#45;&gt;Node1</title>
<g id="a_edge3_Node000001_Node000004"><a xlink:title=" ">
<path fill="none" stroke="#9a32cd" stroke-dasharray="5,2" d="M329.05,-72.34C305.21,-60.24 269.97,-42.36 245.61,-30.01"/>
<polygon fill="#9a32cd" stroke="#9a32cd" points="327.7,-75.58 338.2,-76.98 330.87,-69.33 327.7,-75.58"/>
</a>
</g>
<text text-anchor="middle" x="319" y="-51" font-family="Helvetica,sans-Serif" font-size="10.00" fill="grey"> channel</text>
</g>
</g>
</svg>
