<?xml version="1.0" encoding="UTF-8" standalone="no"?>
<!DOCTYPE svg PUBLIC "-//W3C//DTD SVG 1.1//EN"
 "http://www.w3.org/Graphics/SVG/1.1/DTD/svg11.dtd">
<!-- Generated by graphviz version 2.43.0 (0)
 -->
<!-- Title: Realm::XferDesCreateMessageBase Pages: 1 -->
<svg width="340pt" height="93pt"
 viewBox="0.00 0.00 339.50 93.00" xmlns="http://www.w3.org/2000/svg" xmlns:xlink="http://www.w3.org/1999/xlink">
<g id="graph0" class="graph" transform="scale(1 1) rotate(0) translate(4 89)">
<title>Realm::XferDesCreateMessageBase</title>
<!-- Node1 -->
<g id="Node000001" class="node">
<title>Node1</title>
<g id="a_Node000001"><a xlink:title=" ">
<polygon fill="#999999" stroke="#666666" points="260.5,-85 67.5,-85 67.5,-66 260.5,-66 260.5,-85"/>
<text text-anchor="middle" x="164" y="-73" font-family="Helvetica,sans-Serif" font-size="10.00">Realm::XferDesCreateMessageBase</text>
</a>
</g>
</g>
<!-- Node2 -->
<g id="Node000002" class="node">
<title>Node2</title>
<g id="a_Node000002"><a xlink:href="structRealm_1_1AddressSplitXferDesCreateMessage.html" target="_top" xlink:title=" ">
<polygon fill="white" stroke="#666666" points="154,-30 0,-30 0,0 154,0 154,-30"/>
<text text-anchor="start" x="8" y="-18" font-family="Helvetica,sans-Serif" font-size="10.00">Realm::AddressSplitXferDes</text>
<text text-anchor="middle" x="77" y="-7" font-family="Helvetica,sans-Serif" font-size="10.00">CreateMessage&lt; N, T &gt;</text>
</a>
</g>
</g>
<!-- Node1&#45;&gt;Node2 -->
<g id="edge1_Node000001_Node000002" class="edge">
<title>Node1&#45;&gt;Node2</title>
<g id="a_edge1_Node000001_Node000002"><a xlink:title=" ">
<path fill="none" stroke="#63b8ff" d="M142.48,-60.03C128.91,-50.9 111.46,-39.17 97.99,-30.11"/>
<polygon fill="#63b8ff" stroke="#63b8ff" points="140.91,-63.19 151.16,-65.87 144.82,-57.38 140.91,-63.19"/>
</a>
</g>
</g>
<!-- Node3 -->
<g id="Node000003" class="node">
<title>Node3</title>
<g id="a_Node000003"><a xlink:href="structRealm_1_1SimpleXferDesCreateMessage.html" target="_top" xlink:title=" ">
<polygon fill="white" stroke="#666666" points="331.5,-30 172.5,-30 172.5,0 331.5,0 331.5,-30"/>
<text text-anchor="start" x="180.5" y="-18" font-family="Helvetica,sans-Serif" font-size="10.00">Realm::SimpleXferDesCreate</text>
<text text-anchor="middle" x="252" y="-7" font-family="Helvetica,sans-Serif" font-size="10.00">Message</text>
</a>
</g>
</g>
<!-- Node1&#45;&gt;Node3 -->
<g id="edge2_Node000001_Node000003" class="edge">
<title>Node1&#45;&gt;Node3</title>
<g id="a_edge2_Node000001_Node000003"><a xlink:title=" ">
<path fill="none" stroke="#63b8ff" d="M185.37,-60.29C199.16,-51.13 217.01,-39.26 230.77,-30.11"/>
<polygon fill="#63b8ff" stroke="#63b8ff" points="183.37,-57.42 176.98,-65.87 187.25,-63.25 183.37,-57.42"/>
</a>
</g>
</g>
</g>
</svg>
