<?xml version="1.0" encoding="UTF-8" standalone="no"?>
<!DOCTYPE svg PUBLIC "-//W3C//DTD SVG 1.1//EN"
 "http://www.w3.org/Graphics/SVG/1.1/DTD/svg11.dtd">
<!-- Generated by graphviz version 2.43.0 (0)
 -->
<!-- Title: Realm::SparsityMapRefCounter::SparsityMapAddReferenceMessage Pages: 1 -->
<svg width="221pt" height="104pt"
 viewBox="0.00 0.00 220.50 104.00" xmlns="http://www.w3.org/2000/svg" xmlns:xlink="http://www.w3.org/1999/xlink">
<g id="graph0" class="graph" transform="scale(1 1) rotate(0) translate(4 100)">
<title>Realm::SparsityMapRefCounter::SparsityMapAddReferenceMessage</title>
<!-- Node1 -->
<g id="Node000001" class="node">
<title>Node1</title>
<g id="a_Node000001"><a xlink:title=" ">
<polygon fill="#999999" stroke="#666666" points="195,-30 0,-30 0,0 195,0 195,-30"/>
<text text-anchor="start" x="8" y="-18" font-family="Helvetica,sans-Serif" font-size="10.00">Realm::SparsityMapRefCounter</text>
<text text-anchor="middle" x="97.5" y="-7" font-family="Helvetica,sans-Serif" font-size="10.00">::SparsityMapAddReferenceMessage</text>
</a>
</g>
</g>
<!-- Node2 -->
<g id="Node000002" class="node">
<title>Node2</title>
<g id="a_Node000002"><a xlink:href="classRealm_1_1Event.html" target="_top" xlink:title=" ">
<polygon fill="white" stroke="#666666" points="138.5,-96 56.5,-96 56.5,-77 138.5,-77 138.5,-96"/>
<text text-anchor="middle" x="97.5" y="-84" font-family="Helvetica,sans-Serif" font-size="10.00">Realm::Event</text>
</a>
</g>
</g>
<!-- Node2&#45;&gt;Node1 -->
<g id="edge1_Node000001_Node000002" class="edge">
<title>Node2&#45;&gt;Node1</title>
<g id="a_edge1_Node000001_Node000002"><a xlink:title=" ">
<path fill="none" stroke="#9a32cd" stroke-dasharray="5,2" d="M97.5,-66.71C97.5,-55.19 97.5,-40.68 97.5,-30.14"/>
<polygon fill="#9a32cd" stroke="#9a32cd" points="94,-66.98 97.5,-76.98 101,-66.98 94,-66.98"/>
</a>
</g>
<text text-anchor="middle" x="118.5" y="-51" font-family="Helvetica,sans-Serif" font-size="10.00" fill="grey"> wait_on</text>
</g>
<!-- Node2&#45;&gt;Node2 -->
<g id="edge2_Node000002_Node000002" class="edge">
<title>Node2&#45;&gt;Node2</title>
<g id="a_edge2_Node000002_Node000002"><a xlink:title=" ">
<path fill="none" stroke="#9a32cd" stroke-dasharray="5,2" d="M148.76,-91.29C153.51,-90.31 156.5,-88.71 156.5,-86.5 156.5,-82.97 148.84,-81 138.58,-80.58"/>
<polygon fill="#9a32cd" stroke="#9a32cd" points="148.14,-87.84 138.58,-92.42 148.91,-94.8 148.14,-87.84"/>
</a>
</g>
<text text-anchor="middle" x="184.5" y="-84" font-family="Helvetica,sans-Serif" font-size="10.00" fill="grey"> NO_EVENT</text>
</g>
</g>
</svg>
