<?xml version="1.0" encoding="UTF-8" standalone="no"?>
<!DOCTYPE svg PUBLIC "-//W3C//DTD SVG 1.1//EN"
 "http://www.w3.org/Graphics/SVG/1.1/DTD/svg11.dtd">
<!-- Generated by graphviz version 2.43.0 (0)
 -->
<!-- Title: Realm::MemStorageAllocRequest Pages: 1 -->
<svg width="574pt" height="93pt"
 viewBox="0.00 0.00 573.50 93.00" xmlns="http://www.w3.org/2000/svg" xmlns:xlink="http://www.w3.org/1999/xlink">
<g id="graph0" class="graph" transform="scale(1 1) rotate(0) translate(4 89)">
<title>Realm::MemStorageAllocRequest</title>
<!-- Node1 -->
<g id="Node000001" class="node">
<title>Node1</title>
<g id="a_Node000001"><a xlink:title=" ">
<polygon fill="#999999" stroke="#666666" points="352.5,-19 172.5,-19 172.5,0 352.5,0 352.5,-19"/>
<text text-anchor="middle" x="262.5" y="-7" font-family="Helvetica,sans-Serif" font-size="10.00">Realm::MemStorageAllocRequest</text>
</a>
</g>
</g>
<!-- Node2 -->
<g id="Node000002" class="node">
<title>Node2</title>
<g id="a_Node000002"><a xlink:href="classRealm_1_1Memory.html" target="_top" xlink:title=" ">
<polygon fill="white" stroke="#666666" points="95,-85 0,-85 0,-66 95,-66 95,-85"/>
<text text-anchor="middle" x="47.5" y="-73" font-family="Helvetica,sans-Serif" font-size="10.00">Realm::Memory</text>
</a>
</g>
</g>
<!-- Node2&#45;&gt;Node1 -->
<g id="edge1_Node000001_Node000002" class="edge">
<title>Node2&#45;&gt;Node1</title>
<g id="a_edge1_Node000001_Node000002"><a xlink:title=" ">
<path fill="none" stroke="#9a32cd" stroke-dasharray="5,2" d="M86.19,-62.98C128.58,-50.37 195.59,-30.42 233.62,-19.1"/>
<polygon fill="#9a32cd" stroke="#9a32cd" points="85.08,-59.66 76.5,-65.87 87.08,-66.37 85.08,-59.66"/>
</a>
</g>
<text text-anchor="middle" x="191" y="-40" font-family="Helvetica,sans-Serif" font-size="10.00" fill="grey"> memory</text>
</g>
<!-- Node2&#45;&gt;Node2 -->
<g id="edge2_Node000002_Node000002" class="edge">
<title>Node2&#45;&gt;Node2</title>
<g id="a_edge2_Node000002_Node000002"><a xlink:title=" ">
<path fill="none" stroke="#9a32cd" stroke-dasharray="5,2" d="M105.36,-80.1C110.08,-79.1 113,-77.57 113,-75.5 113,-72.19 105.51,-70.25 95.19,-69.68"/>
<polygon fill="#9a32cd" stroke="#9a32cd" points="104.7,-76.66 95.19,-81.32 105.54,-83.61 104.7,-76.66"/>
</a>
</g>
<text text-anchor="middle" x="146.5" y="-73" font-family="Helvetica,sans-Serif" font-size="10.00" fill="grey"> NO_MEMORY</text>
</g>
<!-- Node3 -->
<g id="Node000003" class="node">
<title>Node3</title>
<g id="a_Node000003"><a xlink:href="classRealm_1_1RegionInstance.html" target="_top" xlink:title=" ">
<polygon fill="white" stroke="#666666" points="327,-85 198,-85 198,-66 327,-66 327,-85"/>
<text text-anchor="middle" x="262.5" y="-73" font-family="Helvetica,sans-Serif" font-size="10.00">Realm::RegionInstance</text>
</a>
</g>
</g>
<!-- Node3&#45;&gt;Node1 -->
<g id="edge3_Node000001_Node000003" class="edge">
<title>Node3&#45;&gt;Node1</title>
<g id="a_edge3_Node000001_Node000003"><a xlink:title=" ">
<path fill="none" stroke="#9a32cd" stroke-dasharray="5,2" d="M262.5,-55.58C262.5,-43.63 262.5,-28.72 262.5,-19.41"/>
<polygon fill="#9a32cd" stroke="#9a32cd" points="259,-55.87 262.5,-65.87 266,-55.87 259,-55.87"/>
</a>
</g>
<text text-anchor="middle" x="273.5" y="-40" font-family="Helvetica,sans-Serif" font-size="10.00" fill="grey"> inst</text>
</g>
<!-- Node3&#45;&gt;Node3 -->
<g id="edge4_Node000003_Node000003" class="edge">
<title>Node3&#45;&gt;Node3</title>
<g id="a_edge4_Node000003_Node000003"><a xlink:title=" ">
<path fill="none" stroke="#9a32cd" stroke-dasharray="5,2" d="M337.1,-79.79C342.02,-78.79 345,-77.36 345,-75.5 345,-72.59 337.74,-70.74 327.18,-69.95"/>
<polygon fill="#9a32cd" stroke="#9a32cd" points="336.66,-76.31 327.18,-81.05 337.54,-83.26 336.66,-76.31"/>
</a>
</g>
<text text-anchor="middle" x="368" y="-73" font-family="Helvetica,sans-Serif" font-size="10.00" fill="grey"> NO_INST</text>
</g>
<!-- Node4 -->
<g id="Node000004" class="node">
<title>Node4</title>
<g id="a_Node000004"><a xlink:href="classRealm_1_1Event.html" target="_top" xlink:title=" ">
<polygon fill="white" stroke="#666666" points="491.5,-85 409.5,-85 409.5,-66 491.5,-66 491.5,-85"/>
<text text-anchor="middle" x="450.5" y="-73" font-family="Helvetica,sans-Serif" font-size="10.00">Realm::Event</text>
</a>
</g>
</g>
<!-- Node4&#45;&gt;Node1 -->
<g id="edge5_Node000001_Node000004" class="edge">
<title>Node4&#45;&gt;Node1</title>
<g id="a_edge5_Node000001_Node000004"><a xlink:title=" ">
<path fill="none" stroke="#9a32cd" stroke-dasharray="5,2" d="M415.25,-62.5C378.13,-49.86 320.59,-30.28 287.75,-19.1"/>
<polygon fill="#9a32cd" stroke="#9a32cd" points="414.55,-65.96 425.15,-65.87 416.81,-59.33 414.55,-65.96"/>
</a>
</g>
<text text-anchor="middle" x="399.5" y="-40" font-family="Helvetica,sans-Serif" font-size="10.00" fill="grey"> precondition</text>
</g>
<!-- Node4&#45;&gt;Node4 -->
<g id="edge6_Node000004_Node000004" class="edge">
<title>Node4&#45;&gt;Node4</title>
<g id="a_edge6_Node000004_Node000004"><a xlink:title=" ">
<path fill="none" stroke="#9a32cd" stroke-dasharray="5,2" d="M501.76,-80.29C506.51,-79.31 509.5,-77.71 509.5,-75.5 509.5,-71.97 501.84,-70 491.58,-69.58"/>
<polygon fill="#9a32cd" stroke="#9a32cd" points="501.14,-76.84 491.58,-81.42 501.91,-83.8 501.14,-76.84"/>
</a>
</g>
<text text-anchor="middle" x="537.5" y="-73" font-family="Helvetica,sans-Serif" font-size="10.00" fill="grey"> NO_EVENT</text>
</g>
</g>
</svg>
