<?xml version="1.0" encoding="UTF-8" standalone="no"?>
<!DOCTYPE svg PUBLIC "-//W3C//DTD SVG 1.1//EN"
 "http://www.w3.org/Graphics/SVG/1.1/DTD/svg11.dtd">
<!-- Generated by graphviz version 2.43.0 (0)
 -->
<!-- Title: Realm::SubgraphDefinition::TaskDesc Pages: 1 -->
<svg width="466pt" height="160pt"
 viewBox="0.00 0.00 466.00 160.00" xmlns="http://www.w3.org/2000/svg" xmlns:xlink="http://www.w3.org/1999/xlink">
<g id="graph0" class="graph" transform="scale(1 1) rotate(0) translate(4 156)">
<title>Realm::SubgraphDefinition::TaskDesc</title>
<!-- Node1 -->
<g id="Node000001" class="node">
<title>Node1</title>
<g id="a_Node000001"><a xlink:title=" ">
<polygon fill="#999999" stroke="#666666" points="313,-30 166,-30 166,0 313,0 313,-30"/>
<text text-anchor="start" x="174" y="-18" font-family="Helvetica,sans-Serif" font-size="10.00">Realm::SubgraphDefinition</text>
<text text-anchor="middle" x="239.5" y="-7" font-family="Helvetica,sans-Serif" font-size="10.00">::TaskDesc</text>
</a>
</g>
</g>
<!-- Node2 -->
<g id="Node000002" class="node">
<title>Node2</title>
<g id="a_Node000002"><a xlink:href="classRealm_1_1Processor.html" target="_top" xlink:title=" ">
<polygon fill="white" stroke="#666666" points="101,-96 0,-96 0,-77 101,-77 101,-96"/>
<text text-anchor="middle" x="50.5" y="-84" font-family="Helvetica,sans-Serif" font-size="10.00">Realm::Processor</text>
</a>
</g>
</g>
<!-- Node2&#45;&gt;Node1 -->
<g id="edge1_Node000001_Node000002" class="edge">
<title>Node2&#45;&gt;Node1</title>
<g id="a_edge1_Node000001_Node000002"><a xlink:title=" ">
<path fill="none" stroke="#9a32cd" stroke-dasharray="5,2" d="M83.27,-73.45C116.15,-61.36 166.76,-42.75 201.41,-30.01"/>
<polygon fill="#9a32cd" stroke="#9a32cd" points="81.85,-70.24 73.68,-76.98 84.27,-76.81 81.85,-70.24"/>
</a>
</g>
<text text-anchor="middle" x="164" y="-51" font-family="Helvetica,sans-Serif" font-size="10.00" fill="grey"> proc</text>
</g>
<!-- Node2&#45;&gt;Node2 -->
<g id="edge2_Node000002_Node000002" class="edge">
<title>Node2&#45;&gt;Node2</title>
<g id="a_edge2_Node000002_Node000002"><a xlink:title=" ">
<path fill="none" stroke="#9a32cd" stroke-dasharray="5,2" d="M111.43,-90.45C116.11,-89.58 119,-88.26 119,-86.5 119,-83.68 111.61,-82 101.28,-81.45"/>
<polygon fill="#9a32cd" stroke="#9a32cd" points="110.85,-86.99 101.28,-91.55 111.6,-93.95 110.85,-86.99"/>
</a>
</g>
<text text-anchor="middle" x="144.5" y="-84" font-family="Helvetica,sans-Serif" font-size="10.00" fill="grey"> NO_PROC</text>
</g>
<!-- Node3 -->
<g id="Node000003" class="node">
<title>Node3</title>
<g id="a_Node000003"><a xlink:href="classRealm_1_1ByteArray.html" target="_top" xlink:title=" ">
<polygon fill="white" stroke="#666666" points="291,-96 188,-96 188,-77 291,-77 291,-96"/>
<text text-anchor="middle" x="239.5" y="-84" font-family="Helvetica,sans-Serif" font-size="10.00">Realm::ByteArray</text>
</a>
</g>
</g>
<!-- Node3&#45;&gt;Node1 -->
<g id="edge3_Node000001_Node000003" class="edge">
<title>Node3&#45;&gt;Node1</title>
<g id="a_edge3_Node000001_Node000003"><a xlink:title=" ">
<path fill="none" stroke="#9a32cd" stroke-dasharray="5,2" d="M239.5,-66.71C239.5,-55.19 239.5,-40.68 239.5,-30.14"/>
<polygon fill="#9a32cd" stroke="#9a32cd" points="236,-66.98 239.5,-76.98 243,-66.98 236,-66.98"/>
</a>
</g>
<text text-anchor="middle" x="252" y="-51" font-family="Helvetica,sans-Serif" font-size="10.00" fill="grey"> args</text>
</g>
<!-- Node4 -->
<g id="Node000004" class="node">
<title>Node4</title>
<g id="a_Node000004"><a xlink:href="classRealm_1_1ByteArrayRef.html" target="_top" xlink:title=" ">
<polygon fill="white" stroke="#666666" points="299,-152 180,-152 180,-133 299,-133 299,-152"/>
<text text-anchor="middle" x="239.5" y="-140" font-family="Helvetica,sans-Serif" font-size="10.00">Realm::ByteArrayRef</text>
</a>
</g>
</g>
<!-- Node4&#45;&gt;Node3 -->
<g id="edge4_Node000003_Node000004" class="edge">
<title>Node4&#45;&gt;Node3</title>
<g id="a_edge4_Node000003_Node000004"><a xlink:title=" ">
<path fill="none" stroke="#63b8ff" d="M239.5,-122.3C239.5,-113.41 239.5,-103.28 239.5,-96.25"/>
<polygon fill="#63b8ff" stroke="#63b8ff" points="236,-122.58 239.5,-132.58 243,-122.58 236,-122.58"/>
</a>
</g>
</g>
<!-- Node5 -->
<g id="Node000005" class="node">
<title>Node5</title>
<g id="a_Node000005"><a xlink:href="classRealm_1_1ProfilingRequestSet.html" target="_top" xlink:title=" ">
<polygon fill="white" stroke="#666666" points="458,-96 309,-96 309,-77 458,-77 458,-96"/>
<text text-anchor="middle" x="383.5" y="-84" font-family="Helvetica,sans-Serif" font-size="10.00">Realm::ProfilingRequestSet</text>
</a>
</g>
</g>
<!-- Node5&#45;&gt;Node1 -->
<g id="edge5_Node000001_Node000005" class="edge">
<title>Node5&#45;&gt;Node1</title>
<g id="a_edge5_Node000001_Node000005"><a xlink:title=" ">
<path fill="none" stroke="#9a32cd" stroke-dasharray="5,2" d="M356.56,-72.5C331.49,-60.4 294.24,-42.42 268.52,-30.01"/>
<polygon fill="#9a32cd" stroke="#9a32cd" points="355.32,-75.78 365.84,-76.98 358.36,-69.48 355.32,-75.78"/>
</a>
</g>
<text text-anchor="middle" x="334" y="-51" font-family="Helvetica,sans-Serif" font-size="10.00" fill="grey"> prs</text>
</g>
</g>
</svg>
