<?xml version="1.0" encoding="UTF-8" standalone="no"?>
<!DOCTYPE svg PUBLIC "-//W3C//DTD SVG 1.1//EN"
 "http://www.w3.org/Graphics/SVG/1.1/DTD/svg11.dtd">
<!-- Generated by graphviz version 2.43.0 (0)
 -->
<!-- Title: Realm::PieceLookup::HDF5Piece&lt; N, T &gt; Pages: 1 -->
<svg width="266pt" height="115pt"
 viewBox="0.00 0.00 266.00 115.00" xmlns="http://www.w3.org/2000/svg" xmlns:xlink="http://www.w3.org/1999/xlink">
<g id="graph0" class="graph" transform="scale(1 1) rotate(0) translate(4 111)">
<title>Realm::PieceLookup::HDF5Piece&lt; N, T &gt;</title>
<!-- Node1 -->
<g id="Node000001" class="node">
<title>Node1</title>
<g id="a_Node000001"><a xlink:title=" ">
<polygon fill="#999999" stroke="#666666" points="185.5,-30 67.5,-30 67.5,0 185.5,0 185.5,-30"/>
<text text-anchor="start" x="75.5" y="-18" font-family="Helvetica,sans-Serif" font-size="10.00">Realm::PieceLookup</text>
<text text-anchor="middle" x="126.5" y="-7" font-family="Helvetica,sans-Serif" font-size="10.00">::HDF5Piece&lt; N, T &gt;</text>
</a>
</g>
</g>
<!-- Node2 -->
<g id="Node000002" class="node">
<title>Node2</title>
<g id="a_Node000002"><a xlink:href="structRealm_1_1PieceLookup_1_1Instruction.html" target="_top" xlink:title=" ">
<polygon fill="white" stroke="#666666" points="115,-107 0,-107 0,-77 115,-77 115,-107"/>
<text text-anchor="start" x="8" y="-95" font-family="Helvetica,sans-Serif" font-size="10.00">Realm::PieceLookup</text>
<text text-anchor="middle" x="57.5" y="-84" font-family="Helvetica,sans-Serif" font-size="10.00">::Instruction</text>
</a>
</g>
</g>
<!-- Node2&#45;&gt;Node1 -->
<g id="edge1_Node000001_Node000002" class="edge">
<title>Node2&#45;&gt;Node1</title>
<g id="a_edge1_Node000001_Node000002"><a xlink:title=" ">
<path fill="none" stroke="#63b8ff" d="M77.32,-69.46C88.98,-56.79 103.38,-41.13 113.58,-30.04"/>
<polygon fill="#63b8ff" stroke="#63b8ff" points="74.67,-67.16 70.48,-76.89 79.82,-71.9 74.67,-67.16"/>
</a>
</g>
</g>
<!-- Node3 -->
<g id="Node000003" class="node">
<title>Node3</title>
<g id="a_Node000003"><a xlink:href="structRealm_1_1Point.html" target="_top" xlink:title=" ">
<polygon fill="white" stroke="#666666" points="258,-107 133,-107 133,-77 258,-77 258,-107"/>
<text text-anchor="start" x="141" y="-95" font-family="Helvetica,sans-Serif" font-size="10.00">Realm::Point&lt; N, hdf5</text>
<text text-anchor="middle" x="195.5" y="-84" font-family="Helvetica,sans-Serif" font-size="10.00">_size_t &gt;</text>
</a>
</g>
</g>
<!-- Node3&#45;&gt;Node1 -->
<g id="edge2_Node000001_Node000003" class="edge">
<title>Node3&#45;&gt;Node1</title>
<g id="a_edge2_Node000001_Node000003"><a xlink:title=" ">
<path fill="none" stroke="#9a32cd" stroke-dasharray="5,2" d="M175.68,-69.46C164.02,-56.79 149.62,-41.13 139.42,-30.04"/>
<polygon fill="#9a32cd" stroke="#9a32cd" points="173.18,-71.9 182.52,-76.89 178.33,-67.16 173.18,-71.9"/>
</a>
</g>
<text text-anchor="middle" x="180" y="-51" font-family="Helvetica,sans-Serif" font-size="10.00" fill="grey"> offset</text>
</g>
</g>
</svg>
