<?xml version="1.0" encoding="UTF-8" standalone="no"?>
<!DOCTYPE svg PUBLIC "-//W3C//DTD SVG 1.1//EN"
 "http://www.w3.org/Graphics/SVG/1.1/DTD/svg11.dtd">
<!-- Generated by graphviz version 2.43.0 (0)
 -->
<!-- Title: Realm::InstanceMetadataPrefetchRequest Pages: 1 -->
<svg width="376pt" height="104pt"
 viewBox="0.00 0.00 375.50 104.00" xmlns="http://www.w3.org/2000/svg" xmlns:xlink="http://www.w3.org/1999/xlink">
<g id="graph0" class="graph" transform="scale(1 1) rotate(0) translate(4 100)">
<title>Realm::InstanceMetadataPrefetchRequest</title>
<!-- Node1 -->
<g id="Node000001" class="node">
<title>Node1</title>
<g id="a_Node000001"><a xlink:title=" ">
<polygon fill="#999999" stroke="#666666" points="248.5,-30 66.5,-30 66.5,0 248.5,0 248.5,-30"/>
<text text-anchor="start" x="74.5" y="-18" font-family="Helvetica,sans-Serif" font-size="10.00">Realm::InstanceMetadataPrefetch</text>
<text text-anchor="middle" x="157.5" y="-7" font-family="Helvetica,sans-Serif" font-size="10.00">Request</text>
</a>
</g>
</g>
<!-- Node2 -->
<g id="Node000002" class="node">
<title>Node2</title>
<g id="a_Node000002"><a xlink:href="classRealm_1_1RegionInstance.html" target="_top" xlink:title=" ">
<polygon fill="white" stroke="#666666" points="129,-96 0,-96 0,-77 129,-77 129,-96"/>
<text text-anchor="middle" x="64.5" y="-84" font-family="Helvetica,sans-Serif" font-size="10.00">Realm::RegionInstance</text>
</a>
</g>
</g>
<!-- Node2&#45;&gt;Node1 -->
<g id="edge1_Node000001_Node000002" class="edge">
<title>Node2&#45;&gt;Node1</title>
<g id="a_edge1_Node000001_Node000002"><a xlink:title=" ">
<path fill="none" stroke="#9a32cd" stroke-dasharray="5,2" d="M84.07,-70.88C100.12,-58.88 122.71,-42 138.58,-30.14"/>
<polygon fill="#9a32cd" stroke="#9a32cd" points="81.82,-68.19 75.9,-76.98 86.01,-73.8 81.82,-68.19"/>
</a>
</g>
<text text-anchor="middle" x="125.5" y="-51" font-family="Helvetica,sans-Serif" font-size="10.00" fill="grey"> inst</text>
</g>
<!-- Node2&#45;&gt;Node2 -->
<g id="edge2_Node000002_Node000002" class="edge">
<title>Node2&#45;&gt;Node2</title>
<g id="a_edge2_Node000002_Node000002"><a xlink:title=" ">
<path fill="none" stroke="#9a32cd" stroke-dasharray="5,2" d="M139.1,-90.79C144.02,-89.79 147,-88.36 147,-86.5 147,-83.59 139.74,-81.74 129.18,-80.95"/>
<polygon fill="#9a32cd" stroke="#9a32cd" points="138.66,-87.31 129.18,-92.05 139.54,-94.26 138.66,-87.31"/>
</a>
</g>
<text text-anchor="middle" x="170" y="-84" font-family="Helvetica,sans-Serif" font-size="10.00" fill="grey"> NO_INST</text>
</g>
<!-- Node3 -->
<g id="Node000003" class="node">
<title>Node3</title>
<g id="a_Node000003"><a xlink:href="classRealm_1_1Event.html" target="_top" xlink:title=" ">
<polygon fill="white" stroke="#666666" points="293.5,-96 211.5,-96 211.5,-77 293.5,-77 293.5,-96"/>
<text text-anchor="middle" x="252.5" y="-84" font-family="Helvetica,sans-Serif" font-size="10.00">Realm::Event</text>
</a>
</g>
</g>
<!-- Node3&#45;&gt;Node1 -->
<g id="edge3_Node000001_Node000003" class="edge">
<title>Node3&#45;&gt;Node1</title>
<g id="a_edge3_Node000001_Node000003"><a xlink:title=" ">
<path fill="none" stroke="#9a32cd" stroke-dasharray="5,2" d="M232.51,-70.88C216.12,-58.88 193.04,-42 176.82,-30.14"/>
<polygon fill="#9a32cd" stroke="#9a32cd" points="230.71,-73.9 240.85,-76.98 234.85,-68.25 230.71,-73.9"/>
</a>
</g>
<text text-anchor="middle" x="244" y="-51" font-family="Helvetica,sans-Serif" font-size="10.00" fill="grey"> valid_event</text>
</g>
<!-- Node3&#45;&gt;Node3 -->
<g id="edge4_Node000003_Node000003" class="edge">
<title>Node3&#45;&gt;Node3</title>
<g id="a_edge4_Node000003_Node000003"><a xlink:title=" ">
<path fill="none" stroke="#9a32cd" stroke-dasharray="5,2" d="M303.76,-91.29C308.51,-90.31 311.5,-88.71 311.5,-86.5 311.5,-82.97 303.84,-81 293.58,-80.58"/>
<polygon fill="#9a32cd" stroke="#9a32cd" points="303.14,-87.84 293.58,-92.42 303.91,-94.8 303.14,-87.84"/>
</a>
</g>
<text text-anchor="middle" x="339.5" y="-84" font-family="Helvetica,sans-Serif" font-size="10.00" fill="grey"> NO_EVENT</text>
</g>
</g>
</svg>
