<?xml version="1.0" encoding="UTF-8" standalone="no"?>
<!DOCTYPE svg PUBLIC "-//W3C//DTD SVG 1.1//EN"
 "http://www.w3.org/Graphics/SVG/1.1/DTD/svg11.dtd">
<!-- Generated by graphviz version 2.43.0 (0)
 -->
<!-- Title: Realm::Machine::MemoryMemoryAffinity Pages: 1 -->
<svg width="232pt" height="115pt"
 viewBox="0.00 0.00 231.50 115.00" xmlns="http://www.w3.org/2000/svg" xmlns:xlink="http://www.w3.org/1999/xlink">
<g id="graph0" class="graph" transform="scale(1 1) rotate(0) translate(4 111)">
<title>Realm::Machine::MemoryMemoryAffinity</title>
<!-- Node1 -->
<g id="Node000001" class="node">
<title>Node1</title>
<g id="a_Node000001"><a xlink:title=" ">
<polygon fill="#999999" stroke="#666666" points="182,-30 0,-30 0,0 182,0 182,-30"/>
<text text-anchor="start" x="8" y="-18" font-family="Helvetica,sans-Serif" font-size="10.00">Realm::Machine::MemoryMemory</text>
<text text-anchor="middle" x="91" y="-7" font-family="Helvetica,sans-Serif" font-size="10.00">Affinity</text>
</a>
</g>
</g>
<!-- Node2 -->
<g id="Node000002" class="node">
<title>Node2</title>
<g id="a_Node000002"><a xlink:href="classRealm_1_1Memory.html" target="_top" xlink:title=" ">
<polygon fill="white" stroke="#666666" points="138.5,-107 43.5,-107 43.5,-88 138.5,-88 138.5,-107"/>
<text text-anchor="middle" x="91" y="-95" font-family="Helvetica,sans-Serif" font-size="10.00">Realm::Memory</text>
</a>
</g>
</g>
<!-- Node2&#45;&gt;Node1 -->
<g id="edge1_Node000001_Node000002" class="edge">
<title>Node2&#45;&gt;Node1</title>
<g id="a_edge1_Node000001_Node000002"><a xlink:title=" ">
<path fill="none" stroke="#9a32cd" stroke-dasharray="5,2" d="M91,-77.6C91,-63.1 91,-43.4 91,-30.22"/>
<polygon fill="#9a32cd" stroke="#9a32cd" points="87.5,-77.89 91,-87.89 94.5,-77.89 87.5,-77.89"/>
</a>
</g>
<text text-anchor="middle" x="100.5" y="-62" font-family="Helvetica,sans-Serif" font-size="10.00" fill="grey"> m1</text>
<text text-anchor="middle" x="100.5" y="-51" font-family="Helvetica,sans-Serif" font-size="10.00" fill="grey">m2</text>
</g>
<!-- Node2&#45;&gt;Node2 -->
<g id="edge2_Node000002_Node000002" class="edge">
<title>Node2&#45;&gt;Node2</title>
<g id="a_edge2_Node000002_Node000002"><a xlink:title=" ">
<path fill="none" stroke="#9a32cd" stroke-dasharray="5,2" d="M148.86,-102.97C153.58,-101.78 156.5,-99.96 156.5,-97.5 156.5,-93.57 149.01,-91.26 138.69,-90.59"/>
<polygon fill="#9a32cd" stroke="#9a32cd" points="148.1,-99.54 138.69,-104.41 149.08,-106.47 148.1,-99.54"/>
</a>
</g>
<text text-anchor="middle" x="190" y="-95" font-family="Helvetica,sans-Serif" font-size="10.00" fill="grey"> NO_MEMORY</text>
</g>
</g>
</svg>
