<?xml version="1.0" encoding="UTF-8" standalone="no"?>
<!DOCTYPE svg PUBLIC "-//W3C//DTD SVG 1.1//EN"
 "http://www.w3.org/Graphics/SVG/1.1/DTD/svg11.dtd">
<!-- Generated by graphviz version 2.43.0 (0)
 -->
<!-- Title: Realm::SpawnTaskMessage Pages: 1 -->
<svg width="353pt" height="93pt"
 viewBox="0.00 0.00 352.50 93.00" xmlns="http://www.w3.org/2000/svg" xmlns:xlink="http://www.w3.org/1999/xlink">
<g id="graph0" class="graph" transform="scale(1 1) rotate(0) translate(4 89)">
<title>Realm::SpawnTaskMessage</title>
<!-- Node1 -->
<g id="Node000001" class="node">
<title>Node1</title>
<g id="a_Node000001"><a xlink:title=" ">
<polygon fill="#999999" stroke="#666666" points="215.5,-19 63.5,-19 63.5,0 215.5,0 215.5,-19"/>
<text text-anchor="middle" x="139.5" y="-7" font-family="Helvetica,sans-Serif" font-size="10.00">Realm::SpawnTaskMessage</text>
</a>
</g>
</g>
<!-- Node2 -->
<g id="Node000002" class="node">
<title>Node2</title>
<g id="a_Node000002"><a xlink:href="classRealm_1_1Processor.html" target="_top" xlink:title=" ">
<polygon fill="white" stroke="#666666" points="101,-85 0,-85 0,-66 101,-66 101,-85"/>
<text text-anchor="middle" x="50.5" y="-73" font-family="Helvetica,sans-Serif" font-size="10.00">Realm::Processor</text>
</a>
</g>
</g>
<!-- Node2&#45;&gt;Node1 -->
<g id="edge1_Node000001_Node000002" class="edge">
<title>Node2&#45;&gt;Node1</title>
<g id="a_edge1_Node000001_Node000002"><a xlink:title=" ">
<path fill="none" stroke="#9a32cd" stroke-dasharray="5,2" d="M70.89,-59.83C88.35,-47.28 112.89,-29.63 127.4,-19.2"/>
<polygon fill="#9a32cd" stroke="#9a32cd" points="68.58,-57.19 62.5,-65.87 72.67,-62.87 68.58,-57.19"/>
</a>
</g>
<text text-anchor="middle" x="113" y="-40" font-family="Helvetica,sans-Serif" font-size="10.00" fill="grey"> proc</text>
</g>
<!-- Node2&#45;&gt;Node2 -->
<g id="edge2_Node000002_Node000002" class="edge">
<title>Node2&#45;&gt;Node2</title>
<g id="a_edge2_Node000002_Node000002"><a xlink:title=" ">
<path fill="none" stroke="#9a32cd" stroke-dasharray="5,2" d="M111.43,-80.02C116.11,-79.02 119,-77.51 119,-75.5 119,-72.28 111.61,-70.36 101.28,-69.73"/>
<polygon fill="#9a32cd" stroke="#9a32cd" points="110.78,-76.57 101.28,-81.27 111.64,-83.52 110.78,-76.57"/>
</a>
</g>
<text text-anchor="middle" x="144.5" y="-73" font-family="Helvetica,sans-Serif" font-size="10.00" fill="grey"> NO_PROC</text>
</g>
<!-- Node3 -->
<g id="Node000003" class="node">
<title>Node3</title>
<g id="a_Node000003"><a xlink:href="classRealm_1_1Event.html" target="_top" xlink:title=" ">
<polygon fill="white" stroke="#666666" points="270.5,-85 188.5,-85 188.5,-66 270.5,-66 270.5,-85"/>
<text text-anchor="middle" x="229.5" y="-73" font-family="Helvetica,sans-Serif" font-size="10.00">Realm::Event</text>
</a>
</g>
</g>
<!-- Node3&#45;&gt;Node1 -->
<g id="edge3_Node000001_Node000003" class="edge">
<title>Node3&#45;&gt;Node1</title>
<g id="a_edge3_Node000001_Node000003"><a xlink:title=" ">
<path fill="none" stroke="#9a32cd" stroke-dasharray="5,2" d="M208.88,-59.83C191.22,-47.28 166.4,-29.63 151.73,-19.2"/>
<polygon fill="#9a32cd" stroke="#9a32cd" points="207.18,-62.93 217.36,-65.87 211.24,-57.22 207.18,-62.93"/>
</a>
</g>
<text text-anchor="middle" x="221" y="-40" font-family="Helvetica,sans-Serif" font-size="10.00" fill="grey"> finish_event</text>
</g>
<!-- Node3&#45;&gt;Node3 -->
<g id="edge4_Node000003_Node000003" class="edge">
<title>Node3&#45;&gt;Node3</title>
<g id="a_edge4_Node000003_Node000003"><a xlink:title=" ">
<path fill="none" stroke="#9a32cd" stroke-dasharray="5,2" d="M280.76,-80.29C285.51,-79.31 288.5,-77.71 288.5,-75.5 288.5,-71.97 280.84,-70 270.58,-69.58"/>
<polygon fill="#9a32cd" stroke="#9a32cd" points="280.14,-76.84 270.58,-81.42 280.91,-83.8 280.14,-76.84"/>
</a>
</g>
<text text-anchor="middle" x="316.5" y="-73" font-family="Helvetica,sans-Serif" font-size="10.00" fill="grey"> NO_EVENT</text>
</g>
</g>
</svg>
