<?xml version="1.0" encoding="UTF-8" standalone="no"?>
<!DOCTYPE svg PUBLIC "-//W3C//DTD SVG 1.1//EN"
 "http://www.w3.org/Graphics/SVG/1.1/DTD/svg11.dtd">
<!-- Generated by graphviz version 2.43.0 (0)
 -->
<!-- Title: Realm::RWLock::Writer Pages: 1 -->
<svg width="142pt" height="159pt"
 viewBox="0.00 0.00 142.00 159.00" xmlns="http://www.w3.org/2000/svg" xmlns:xlink="http://www.w3.org/1999/xlink">
<g id="graph0" class="graph" transform="scale(1 1) rotate(0) translate(4 155)">
<title>Realm::RWLock::Writer</title>
<!-- Node1 -->
<g id="Node000001" class="node">
<title>Node1</title>
<g id="a_Node000001"><a xlink:title=" ">
<polygon fill="#999999" stroke="#666666" points="131.5,-151 2.5,-151 2.5,-132 131.5,-132 131.5,-151"/>
<text text-anchor="middle" x="67" y="-139" font-family="Helvetica,sans-Serif" font-size="10.00">Realm::RWLock::Writer</text>
</a>
</g>
</g>
<!-- Node2 -->
<g id="Node000002" class="node">
<title>Node2</title>
<g id="a_Node000002"><a xlink:href="classRealm_1_1RWLock.html" target="_top" xlink:title=" ">
<polygon fill="white" stroke="#666666" points="113.5,-85 20.5,-85 20.5,-66 113.5,-66 113.5,-85"/>
<text text-anchor="middle" x="67" y="-73" font-family="Helvetica,sans-Serif" font-size="10.00">Realm::RWLock</text>
</a>
</g>
</g>
<!-- Node1&#45;&gt;Node2 -->
<g id="edge2_Node000002_Node000001" class="edge">
<title>Node1&#45;&gt;Node2</title>
<g id="a_edge2_Node000002_Node000001"><a xlink:title=" ">
<path fill="none" stroke="#9a32cd" stroke-dasharray="5,2" d="M45.23,-125.45C41.89,-122.09 38.92,-118.25 37,-114 32,-102.9 42.46,-92.27 52.37,-85.17"/>
<polygon fill="#9a32cd" stroke="#9a32cd" points="43,-128.14 52.87,-131.99 47.55,-122.82 43,-128.14"/>
</a>
</g>
<text text-anchor="middle" x="53" y="-106" font-family="Helvetica,sans-Serif" font-size="10.00" fill="grey"> writer</text>
</g>
<!-- Node2&#45;&gt;Node1 -->
<g id="edge1_Node000001_Node000002" class="edge">
<title>Node2&#45;&gt;Node1</title>
<g id="a_edge1_Node000001_Node000002"><a xlink:title=" ">
<path fill="none" stroke="#9a32cd" stroke-dasharray="5,2" d="M71.78,-95.23C72.29,-97.83 72.72,-100.47 73,-103 74.11,-112.96 71.79,-124.31 69.72,-131.89"/>
<polygon fill="#9a32cd" stroke="#9a32cd" points="75.14,-94.22 69.5,-85.25 68.32,-95.78 75.14,-94.22"/>
</a>
</g>
<text text-anchor="middle" x="91" y="-106" font-family="Helvetica,sans-Serif" font-size="10.00" fill="grey"> rwlock</text>
</g>
<!-- Node3 -->
<g id="Node000003" class="node">
<title>Node3</title>
<g id="a_Node000003"><a xlink:href="structRealm_1_1RWLock_1_1Reader.html" target="_top" xlink:title=" ">
<polygon fill="white" stroke="#666666" points="134,-19 0,-19 0,0 134,0 134,-19"/>
<text text-anchor="middle" x="67" y="-7" font-family="Helvetica,sans-Serif" font-size="10.00">Realm::RWLock::Reader</text>
</a>
</g>
</g>
<!-- Node2&#45;&gt;Node3 -->
<g id="edge4_Node000003_Node000002" class="edge">
<title>Node2&#45;&gt;Node3</title>
<g id="a_edge4_Node000003_Node000002"><a xlink:title=" ">
<path fill="none" stroke="#9a32cd" stroke-dasharray="5,2" d="M43.62,-59.48C40.13,-56.15 37.02,-52.3 35,-48 29.68,-36.69 40.84,-26.09 51.41,-19.06"/>
<polygon fill="#9a32cd" stroke="#9a32cd" points="41.64,-62.38 51.62,-65.95 46.04,-56.94 41.64,-62.38"/>
</a>
</g>
<text text-anchor="middle" x="53" y="-40" font-family="Helvetica,sans-Serif" font-size="10.00" fill="grey"> rwlock</text>
</g>
<!-- Node3&#45;&gt;Node2 -->
<g id="edge3_Node000002_Node000003" class="edge">
<title>Node3&#45;&gt;Node2</title>
<g id="a_edge3_Node000002_Node000003"><a xlink:title=" ">
<path fill="none" stroke="#9a32cd" stroke-dasharray="5,2" d="M73.61,-28.92C75.06,-34.97 75.92,-41.74 75,-48 74.1,-54.09 72.1,-60.71 70.33,-65.81"/>
<polygon fill="#9a32cd" stroke="#9a32cd" points="76.88,-27.63 70.62,-19.08 70.18,-29.67 76.88,-27.63"/>
</a>
</g>
<text text-anchor="middle" x="92.5" y="-40" font-family="Helvetica,sans-Serif" font-size="10.00" fill="grey"> reader</text>
</g>
</g>
</svg>
