<?xml version="1.0" encoding="UTF-8" standalone="no"?>
<!DOCTYPE svg PUBLIC "-//W3C//DTD SVG 1.1//EN"
 "http://www.w3.org/Graphics/SVG/1.1/DTD/svg11.dtd">
<!-- Generated by graphviz version 2.43.0 (0)
 -->
<!-- Title: Realm::Cuda::GPUProcessor::GPUTaskTableEntry Pages: 1 -->
<svg width="307pt" height="171pt"
 viewBox="0.00 0.00 307.00 171.00" xmlns="http://www.w3.org/2000/svg" xmlns:xlink="http://www.w3.org/1999/xlink">
<g id="graph0" class="graph" transform="scale(1 1) rotate(0) translate(4 167)">
<title>Realm::Cuda::GPUProcessor::GPUTaskTableEntry</title>
<!-- Node1 -->
<g id="Node000001" class="node">
<title>Node1</title>
<g id="a_Node000001"><a xlink:title=" ">
<polygon fill="#999999" stroke="#666666" points="221,-30 68,-30 68,0 221,0 221,-30"/>
<text text-anchor="start" x="76" y="-18" font-family="Helvetica,sans-Serif" font-size="10.00">Realm::Cuda::GPUProcessor</text>
<text text-anchor="middle" x="144.5" y="-7" font-family="Helvetica,sans-Serif" font-size="10.00">::GPUTaskTableEntry</text>
</a>
</g>
</g>
<!-- Node2 -->
<g id="Node000002" class="node">
<title>Node2</title>
<g id="a_Node000002"><a xlink:href="classRealm_1_1Processor.html" target="_top" xlink:title=" ">
<polygon fill="white" stroke="#666666" points="101,-107 0,-107 0,-88 101,-88 101,-107"/>
<text text-anchor="middle" x="50.5" y="-95" font-family="Helvetica,sans-Serif" font-size="10.00">Realm::Processor</text>
</a>
</g>
</g>
<!-- Node2&#45;&gt;Node1 -->
<g id="edge1_Node000001_Node000002" class="edge">
<title>Node2&#45;&gt;Node1</title>
<g id="a_edge1_Node000001_Node000002"><a xlink:title=" ">
<path fill="none" stroke="#9a32cd" stroke-dasharray="5,2" d="M66,-80.82C75.88,-71.07 89.11,-58.43 101.5,-48 108.76,-41.89 117.06,-35.56 124.42,-30.17"/>
<polygon fill="#9a32cd" stroke="#9a32cd" points="63.48,-78.39 58.87,-87.94 68.42,-83.35 63.48,-78.39"/>
</a>
</g>
<text text-anchor="middle" x="151" y="-62" font-family="Helvetica,sans-Serif" font-size="10.00" fill="grey"> fnptr</text>
<text text-anchor="middle" x="151" y="-51" font-family="Helvetica,sans-Serif" font-size="10.00" fill="grey">stream_aware_fnptr</text>
</g>
<!-- Node2&#45;&gt;Node2 -->
<g id="edge2_Node000002_Node000002" class="edge">
<title>Node2&#45;&gt;Node2</title>
<g id="a_edge2_Node000002_Node000002"><a xlink:title=" ">
<path fill="none" stroke="#9a32cd" stroke-dasharray="5,2" d="M111.43,-101.45C116.11,-100.58 119,-99.26 119,-97.5 119,-94.68 111.61,-93 101.28,-92.45"/>
<polygon fill="#9a32cd" stroke="#9a32cd" points="110.85,-97.99 101.28,-102.55 111.6,-104.95 110.85,-97.99"/>
</a>
</g>
<text text-anchor="middle" x="144.5" y="-95" font-family="Helvetica,sans-Serif" font-size="10.00" fill="grey"> NO_PROC</text>
</g>
<!-- Node3 -->
<g id="Node000003" class="node">
<title>Node3</title>
<g id="a_Node000003"><a xlink:href="classRealm_1_1ByteArray.html" target="_top" xlink:title=" ">
<polygon fill="white" stroke="#666666" points="291,-107 188,-107 188,-88 291,-88 291,-107"/>
<text text-anchor="middle" x="239.5" y="-95" font-family="Helvetica,sans-Serif" font-size="10.00">Realm::ByteArray</text>
</a>
</g>
</g>
<!-- Node3&#45;&gt;Node1 -->
<g id="edge3_Node000001_Node000003" class="edge">
<title>Node3&#45;&gt;Node1</title>
<g id="a_edge3_Node000001_Node000003"><a xlink:title=" ">
<path fill="none" stroke="#9a32cd" stroke-dasharray="5,2" d="M228.25,-79.48C221.1,-69.51 211.2,-57.13 200.5,-48 192.49,-41.17 182.82,-35.04 173.77,-30.02"/>
<polygon fill="#9a32cd" stroke="#9a32cd" points="225.42,-81.55 233.98,-87.79 231.19,-77.57 225.42,-81.55"/>
</a>
</g>
<text text-anchor="middle" x="245.5" y="-56.5" font-family="Helvetica,sans-Serif" font-size="10.00" fill="grey"> user_data</text>
</g>
<!-- Node4 -->
<g id="Node000004" class="node">
<title>Node4</title>
<g id="a_Node000004"><a xlink:href="classRealm_1_1ByteArrayRef.html" target="_top" xlink:title=" ">
<polygon fill="white" stroke="#666666" points="299,-163 180,-163 180,-144 299,-144 299,-163"/>
<text text-anchor="middle" x="239.5" y="-151" font-family="Helvetica,sans-Serif" font-size="10.00">Realm::ByteArrayRef</text>
</a>
</g>
</g>
<!-- Node4&#45;&gt;Node3 -->
<g id="edge4_Node000003_Node000004" class="edge">
<title>Node4&#45;&gt;Node3</title>
<g id="a_edge4_Node000003_Node000004"><a xlink:title=" ">
<path fill="none" stroke="#63b8ff" d="M239.5,-133.3C239.5,-124.41 239.5,-114.28 239.5,-107.25"/>
<polygon fill="#63b8ff" stroke="#63b8ff" points="236,-133.58 239.5,-143.58 243,-133.58 236,-133.58"/>
</a>
</g>
</g>
</g>
</svg>
