<?xml version="1.0" encoding="UTF-8" standalone="no"?>
<!DOCTYPE svg PUBLIC "-//W3C//DTD SVG 1.1//EN"
 "http://www.w3.org/Graphics/SVG/1.1/DTD/svg11.dtd">
<!-- Generated by graphviz version 2.43.0 (0)
 -->
<!-- Title: Realm::ProcGroupCreateMessage Pages: 1 -->
<svg width="273pt" height="149pt"
 viewBox="0.00 0.00 272.50 149.00" xmlns="http://www.w3.org/2000/svg" xmlns:xlink="http://www.w3.org/1999/xlink">
<g id="graph0" class="graph" transform="scale(1 1) rotate(0) translate(4 145)">
<title>Realm::ProcGroupCreateMessage</title>
<!-- Node1 -->
<g id="Node000001" class="node">
<title>Node1</title>
<g id="a_Node000001"><a xlink:title=" ">
<polygon fill="#999999" stroke="#666666" points="180,-19 0,-19 0,0 180,0 180,-19"/>
<text text-anchor="middle" x="90" y="-7" font-family="Helvetica,sans-Serif" font-size="10.00">Realm::ProcGroupCreateMessage</text>
</a>
</g>
</g>
<!-- Node2 -->
<g id="Node000002" class="node">
<title>Node2</title>
<g id="a_Node000002"><a xlink:href="classRealm_1_1ProcessorGroup.html" target="_top" xlink:title=" ">
<polygon fill="white" stroke="#666666" points="155.5,-85 24.5,-85 24.5,-66 155.5,-66 155.5,-85"/>
<text text-anchor="middle" x="90" y="-73" font-family="Helvetica,sans-Serif" font-size="10.00">Realm::ProcessorGroup</text>
</a>
</g>
</g>
<!-- Node2&#45;&gt;Node1 -->
<g id="edge1_Node000001_Node000002" class="edge">
<title>Node2&#45;&gt;Node1</title>
<g id="a_edge1_Node000001_Node000002"><a xlink:title=" ">
<path fill="none" stroke="#9a32cd" stroke-dasharray="5,2" d="M90,-55.58C90,-43.63 90,-28.72 90,-19.41"/>
<polygon fill="#9a32cd" stroke="#9a32cd" points="86.5,-55.87 90,-65.87 93.5,-55.87 86.5,-55.87"/>
</a>
</g>
<text text-anchor="middle" x="102.5" y="-40" font-family="Helvetica,sans-Serif" font-size="10.00" fill="grey"> pgrp</text>
</g>
<!-- Node2&#45;&gt;Node2 -->
<g id="edge4_Node000002_Node000002" class="edge">
<title>Node2&#45;&gt;Node2</title>
<g id="a_edge4_Node000002_Node000002"><a xlink:title=" ">
<path fill="none" stroke="#9a32cd" stroke-dasharray="5,2" d="M166.02,-79.16C170.69,-78.29 173.5,-77.07 173.5,-75.5 173.5,-72.98 166.31,-71.37 155.81,-70.67"/>
<polygon fill="#9a32cd" stroke="#9a32cd" points="165.34,-75.71 155.81,-80.33 166.14,-82.67 165.34,-75.71"/>
</a>
</g>
<text text-anchor="middle" x="219" y="-73" font-family="Helvetica,sans-Serif" font-size="10.00" fill="grey"> NO_PROC_GROUP</text>
</g>
<!-- Node3 -->
<g id="Node000003" class="node">
<title>Node3</title>
<g id="a_Node000003"><a xlink:href="classRealm_1_1Processor.html" target="_top" xlink:title=" ">
<polygon fill="white" stroke="#666666" points="140.5,-141 39.5,-141 39.5,-122 140.5,-122 140.5,-141"/>
<text text-anchor="middle" x="90" y="-129" font-family="Helvetica,sans-Serif" font-size="10.00">Realm::Processor</text>
</a>
</g>
</g>
<!-- Node3&#45;&gt;Node2 -->
<g id="edge2_Node000002_Node000003" class="edge">
<title>Node3&#45;&gt;Node2</title>
<g id="a_edge2_Node000002_Node000003"><a xlink:title=" ">
<path fill="none" stroke="#63b8ff" d="M90,-111.3C90,-102.41 90,-92.28 90,-85.25"/>
<polygon fill="#63b8ff" stroke="#63b8ff" points="86.5,-111.58 90,-121.58 93.5,-111.58 86.5,-111.58"/>
</a>
</g>
</g>
<!-- Node3&#45;&gt;Node3 -->
<g id="edge3_Node000003_Node000003" class="edge">
<title>Node3&#45;&gt;Node3</title>
<g id="a_edge3_Node000003_Node000003"><a xlink:title=" ">
<path fill="none" stroke="#9a32cd" stroke-dasharray="5,2" d="M150.93,-135.45C155.61,-134.58 158.5,-133.26 158.5,-131.5 158.5,-128.68 151.11,-127 140.78,-126.45"/>
<polygon fill="#9a32cd" stroke="#9a32cd" points="150.35,-131.99 140.78,-136.55 151.1,-138.95 150.35,-131.99"/>
</a>
</g>
<text text-anchor="middle" x="184" y="-129" font-family="Helvetica,sans-Serif" font-size="10.00" fill="grey"> NO_PROC</text>
</g>
</g>
</svg>
