<?xml version="1.0" encoding="UTF-8" standalone="no"?>
<!DOCTYPE svg PUBLIC "-//W3C//DTD SVG 1.1//EN"
 "http://www.w3.org/Graphics/SVG/1.1/DTD/svg11.dtd">
<!-- Generated by graphviz version 2.43.0 (0)
 -->
<!-- Title: Realm::FieldDataDescriptor&lt; IS, FT &gt; Pages: 1 -->
<svg width="212pt" height="104pt"
 viewBox="0.00 0.00 212.00 104.00" xmlns="http://www.w3.org/2000/svg" xmlns:xlink="http://www.w3.org/1999/xlink">
<g id="graph0" class="graph" transform="scale(1 1) rotate(0) translate(4 100)">
<title>Realm::FieldDataDescriptor&lt; IS, FT &gt;</title>
<!-- Node1 -->
<g id="Node000001" class="node">
<title>Node1</title>
<g id="a_Node000001"><a xlink:title=" ">
<polygon fill="#999999" stroke="#666666" points="151,-30 0,-30 0,0 151,0 151,-30"/>
<text text-anchor="start" x="8" y="-18" font-family="Helvetica,sans-Serif" font-size="10.00">Realm::FieldDataDescriptor</text>
<text text-anchor="middle" x="75.5" y="-7" font-family="Helvetica,sans-Serif" font-size="10.00">&lt; IS, FT &gt;</text>
</a>
</g>
</g>
<!-- Node2 -->
<g id="Node000002" class="node">
<title>Node2</title>
<g id="a_Node000002"><a xlink:href="classRealm_1_1RegionInstance.html" target="_top" xlink:title=" ">
<polygon fill="white" stroke="#666666" points="140,-96 11,-96 11,-77 140,-77 140,-96"/>
<text text-anchor="middle" x="75.5" y="-84" font-family="Helvetica,sans-Serif" font-size="10.00">Realm::RegionInstance</text>
</a>
</g>
</g>
<!-- Node2&#45;&gt;Node1 -->
<g id="edge1_Node000001_Node000002" class="edge">
<title>Node2&#45;&gt;Node1</title>
<g id="a_edge1_Node000001_Node000002"><a xlink:title=" ">
<path fill="none" stroke="#9a32cd" stroke-dasharray="5,2" d="M75.5,-66.71C75.5,-55.19 75.5,-40.68 75.5,-30.14"/>
<polygon fill="#9a32cd" stroke="#9a32cd" points="72,-66.98 75.5,-76.98 79,-66.98 72,-66.98"/>
</a>
</g>
<text text-anchor="middle" x="86.5" y="-51" font-family="Helvetica,sans-Serif" font-size="10.00" fill="grey"> inst</text>
</g>
<!-- Node2&#45;&gt;Node2 -->
<g id="edge2_Node000002_Node000002" class="edge">
<title>Node2&#45;&gt;Node2</title>
<g id="a_edge2_Node000002_Node000002"><a xlink:title=" ">
<path fill="none" stroke="#9a32cd" stroke-dasharray="5,2" d="M150.1,-90.79C155.02,-89.79 158,-88.36 158,-86.5 158,-83.59 150.74,-81.74 140.18,-80.95"/>
<polygon fill="#9a32cd" stroke="#9a32cd" points="149.66,-87.31 140.18,-92.05 150.54,-94.26 149.66,-87.31"/>
</a>
</g>
<text text-anchor="middle" x="181" y="-84" font-family="Helvetica,sans-Serif" font-size="10.00" fill="grey"> NO_INST</text>
</g>
</g>
</svg>
