<?xml version="1.0" encoding="UTF-8" standalone="no"?>
<!DOCTYPE svg PUBLIC "-//W3C//DTD SVG 1.1//EN"
 "http://www.w3.org/Graphics/SVG/1.1/DTD/svg11.dtd">
<!-- Generated by graphviz version 2.43.0 (0)
 -->
<!-- Title: Realm::SubgraphDefinition::InstantiationDesc Pages: 1 -->
<svg width="494pt" height="160pt"
 viewBox="0.00 0.00 493.50 160.00" xmlns="http://www.w3.org/2000/svg" xmlns:xlink="http://www.w3.org/1999/xlink">
<g id="graph0" class="graph" transform="scale(1 1) rotate(0) translate(4 156)">
<title>Realm::SubgraphDefinition::InstantiationDesc</title>
<!-- Node1 -->
<g id="Node000001" class="node">
<title>Node1</title>
<g id="a_Node000001"><a xlink:title=" ">
<polygon fill="#999999" stroke="#666666" points="340.5,-30 193.5,-30 193.5,0 340.5,0 340.5,-30"/>
<text text-anchor="start" x="201.5" y="-18" font-family="Helvetica,sans-Serif" font-size="10.00">Realm::SubgraphDefinition</text>
<text text-anchor="middle" x="267" y="-7" font-family="Helvetica,sans-Serif" font-size="10.00">::InstantiationDesc</text>
</a>
</g>
</g>
<!-- Node2 -->
<g id="Node000002" class="node">
<title>Node2</title>
<g id="a_Node000002"><a xlink:href="classRealm_1_1Subgraph.html" target="_top" xlink:title=" ">
<polygon fill="white" stroke="#666666" points="100,-96 0,-96 0,-77 100,-77 100,-96"/>
<text text-anchor="middle" x="50" y="-84" font-family="Helvetica,sans-Serif" font-size="10.00">Realm::Subgraph</text>
</a>
</g>
</g>
<!-- Node2&#45;&gt;Node1 -->
<g id="edge1_Node000001_Node000002" class="edge">
<title>Node2&#45;&gt;Node1</title>
<g id="a_edge1_Node000001_Node000002"><a xlink:title=" ">
<path fill="none" stroke="#9a32cd" stroke-dasharray="5,2" d="M86.17,-73.91C123.88,-61.84 182.97,-42.91 223.27,-30.01"/>
<polygon fill="#9a32cd" stroke="#9a32cd" points="85.06,-70.59 76.61,-76.98 87.2,-77.26 85.06,-70.59"/>
</a>
</g>
<text text-anchor="middle" x="190.5" y="-51" font-family="Helvetica,sans-Serif" font-size="10.00" fill="grey"> subgraph</text>
</g>
<!-- Node2&#45;&gt;Node2 -->
<g id="edge2_Node000002_Node000002" class="edge">
<title>Node2&#45;&gt;Node2</title>
<g id="a_edge2_Node000002_Node000002"><a xlink:title=" ">
<path fill="none" stroke="#9a32cd" stroke-dasharray="5,2" d="M110.35,-90.48C115.08,-89.6 118,-88.28 118,-86.5 118,-83.66 110.52,-81.97 100.11,-81.43"/>
<polygon fill="#9a32cd" stroke="#9a32cd" points="109.69,-87.03 100.11,-91.57 110.43,-93.99 109.69,-87.03"/>
</a>
</g>
<text text-anchor="middle" x="157.5" y="-84" font-family="Helvetica,sans-Serif" font-size="10.00" fill="grey"> NO_SUBGRAPH</text>
</g>
<!-- Node3 -->
<g id="Node000003" class="node">
<title>Node3</title>
<g id="a_Node000003"><a xlink:href="classRealm_1_1ByteArray.html" target="_top" xlink:title=" ">
<polygon fill="white" stroke="#666666" points="318.5,-96 215.5,-96 215.5,-77 318.5,-77 318.5,-96"/>
<text text-anchor="middle" x="267" y="-84" font-family="Helvetica,sans-Serif" font-size="10.00">Realm::ByteArray</text>
</a>
</g>
</g>
<!-- Node3&#45;&gt;Node1 -->
<g id="edge3_Node000001_Node000003" class="edge">
<title>Node3&#45;&gt;Node1</title>
<g id="a_edge3_Node000001_Node000003"><a xlink:title=" ">
<path fill="none" stroke="#9a32cd" stroke-dasharray="5,2" d="M267,-66.71C267,-55.19 267,-40.68 267,-30.14"/>
<polygon fill="#9a32cd" stroke="#9a32cd" points="263.5,-66.98 267,-76.98 270.5,-66.98 263.5,-66.98"/>
</a>
</g>
<text text-anchor="middle" x="279.5" y="-51" font-family="Helvetica,sans-Serif" font-size="10.00" fill="grey"> args</text>
</g>
<!-- Node4 -->
<g id="Node000004" class="node">
<title>Node4</title>
<g id="a_Node000004"><a xlink:href="classRealm_1_1ByteArrayRef.html" target="_top" xlink:title=" ">
<polygon fill="white" stroke="#666666" points="326.5,-152 207.5,-152 207.5,-133 326.5,-133 326.5,-152"/>
<text text-anchor="middle" x="267" y="-140" font-family="Helvetica,sans-Serif" font-size="10.00">Realm::ByteArrayRef</text>
</a>
</g>
</g>
<!-- Node4&#45;&gt;Node3 -->
<g id="edge4_Node000003_Node000004" class="edge">
<title>Node4&#45;&gt;Node3</title>
<g id="a_edge4_Node000003_Node000004"><a xlink:title=" ">
<path fill="none" stroke="#63b8ff" d="M267,-122.3C267,-113.41 267,-103.28 267,-96.25"/>
<polygon fill="#63b8ff" stroke="#63b8ff" points="263.5,-122.58 267,-132.58 270.5,-122.58 263.5,-122.58"/>
</a>
</g>
</g>
<!-- Node5 -->
<g id="Node000005" class="node">
<title>Node5</title>
<g id="a_Node000005"><a xlink:href="classRealm_1_1ProfilingRequestSet.html" target="_top" xlink:title=" ">
<polygon fill="white" stroke="#666666" points="485.5,-96 336.5,-96 336.5,-77 485.5,-77 485.5,-96"/>
<text text-anchor="middle" x="411" y="-84" font-family="Helvetica,sans-Serif" font-size="10.00">Realm::ProfilingRequestSet</text>
</a>
</g>
</g>
<!-- Node5&#45;&gt;Node1 -->
<g id="edge5_Node000001_Node000005" class="edge">
<title>Node5&#45;&gt;Node1</title>
<g id="a_edge5_Node000001_Node000005"><a xlink:title=" ">
<path fill="none" stroke="#9a32cd" stroke-dasharray="5,2" d="M384.06,-72.5C358.99,-60.4 321.74,-42.42 296.02,-30.01"/>
<polygon fill="#9a32cd" stroke="#9a32cd" points="382.82,-75.78 393.34,-76.98 385.86,-69.48 382.82,-75.78"/>
</a>
</g>
<text text-anchor="middle" x="360.5" y="-51" font-family="Helvetica,sans-Serif" font-size="10.00" fill="grey"> prs</text>
</g>
</g>
</svg>
