<?xml version="1.0" encoding="UTF-8" standalone="no"?>
<!DOCTYPE svg PUBLIC "-//W3C//DTD SVG 1.1//EN"
 "http://www.w3.org/Graphics/SVG/1.1/DTD/svg11.dtd">
<!-- Generated by graphviz version 2.43.0 (0)
 -->
<!-- Title: Realm::ChunkedRecycler&lt; T, CHUNK_SIZE &gt;::Chunk Pages: 1 -->
<svg width="948pt" height="108pt"
 viewBox="0.00 0.00 948.00 108.00" xmlns="http://www.w3.org/2000/svg" xmlns:xlink="http://www.w3.org/1999/xlink">
<g id="graph0" class="graph" transform="scale(1 1) rotate(0) translate(4 104)">
<title>Realm::ChunkedRecycler&lt; T, CHUNK_SIZE &gt;::Chunk</title>
<!-- Node1 -->
<g id="Node000001" class="node">
<title>Node1</title>
<g id="a_Node000001"><a xlink:title=" ">
<polygon fill="#999999" stroke="#666666" points="940,-81 789,-81 789,-51 940,-51 940,-81"/>
<text text-anchor="start" x="797" y="-69" font-family="Helvetica,sans-Serif" font-size="10.00">Realm::ChunkedRecycler</text>
<text text-anchor="middle" x="864.5" y="-58" font-family="Helvetica,sans-Serif" font-size="10.00">&lt; T, CHUNK_SIZE &gt;::Chunk</text>
</a>
</g>
</g>
<!-- Node2 -->
<g id="Node000002" class="node">
<title>Node2</title>
<g id="a_Node000002"><a xlink:href="classRealm_1_1atomic.html" target="_top" xlink:title=" ">
<polygon fill="white" stroke="#666666" points="155,-80.5 0,-80.5 0,-61.5 155,-61.5 155,-80.5"/>
<text text-anchor="middle" x="77.5" y="-68.5" font-family="Helvetica,sans-Serif" font-size="10.00">Realm::atomic&lt; unsigned &gt;</text>
</a>
</g>
</g>
<!-- Node2&#45;&gt;Node1 -->
<g id="edge1_Node000001_Node000002" class="edge">
<title>Node2&#45;&gt;Node1</title>
<g id="a_edge1_Node000001_Node000002"><a xlink:title=" ">
<path fill="none" stroke="#9a32cd" stroke-dasharray="5,2" d="M165.33,-80.1C199.75,-83.28 239.7,-86.44 276,-88 460.32,-95.92 677.24,-81.69 788.83,-72.64"/>
<polygon fill="#9a32cd" stroke="#9a32cd" points="165.59,-76.6 155.31,-79.15 164.94,-83.57 165.59,-76.6"/>
</a>
</g>
<text text-anchor="middle" x="487.5" y="-92" font-family="Helvetica,sans-Serif" font-size="10.00" fill="grey"> remaining_count</text>
</g>
<!-- Node3 -->
<g id="Node000003" class="node">
<title>Node3</title>
<g id="a_Node000003"><a xlink:href="structRealm_1_1ChunkedRecycler_1_1Chunk.html" target="_top" xlink:title=" ">
<polygon fill="white" stroke="#666666" points="427,-50 276,-50 276,-20 427,-20 427,-50"/>
<text text-anchor="start" x="284" y="-38" font-family="Helvetica,sans-Serif" font-size="10.00">Realm::ChunkedRecycler</text>
<text text-anchor="middle" x="351.5" y="-27" font-family="Helvetica,sans-Serif" font-size="10.00">&lt; T, CHUNK_SIZE &gt;::Chunk</text>
</a>
</g>
</g>
<!-- Node2&#45;&gt;Node3 -->
<g id="edge3_Node000003_Node000002" class="edge">
<title>Node2&#45;&gt;Node3</title>
<g id="a_edge3_Node000003_Node000002"><a xlink:title=" ">
<path fill="none" stroke="#9a32cd" stroke-dasharray="5,2" d="M160.49,-60.15C197.18,-55.29 240.13,-49.61 275.9,-44.87"/>
<polygon fill="#9a32cd" stroke="#9a32cd" points="159.77,-56.71 150.32,-61.49 160.69,-63.65 159.77,-56.71"/>
</a>
</g>
<text text-anchor="middle" x="215.5" y="-61" font-family="Helvetica,sans-Serif" font-size="10.00" fill="grey"> remaining_count</text>
</g>
<!-- Node3&#45;&gt;Node1 -->
<g id="edge2_Node000001_Node000003" class="edge">
<title>Node3&#45;&gt;Node1</title>
<g id="a_edge2_Node000001_Node000003"><a xlink:title=" ">
<path fill="none" stroke="#9a32cd" stroke-dasharray="5,2" d="M437.31,-41.48C439.9,-41.66 442.47,-41.83 445,-42 565.18,-49.99 704.88,-57.68 788.63,-62.12"/>
<polygon fill="#9a32cd" stroke="#9a32cd" points="437.43,-37.98 427.21,-40.77 436.94,-44.96 437.43,-37.98"/>
</a>
</g>
<text text-anchor="middle" x="626" y="-60" font-family="Helvetica,sans-Serif" font-size="10.00" fill="grey"> next_chunk</text>
</g>
<!-- Node3&#45;&gt;Node3 -->
<g id="edge4_Node000003_Node000003" class="edge">
<title>Node3&#45;&gt;Node3</title>
<g id="a_edge4_Node000003_Node000003"><a xlink:title=" ">
<path fill="none" stroke="#9a32cd" stroke-dasharray="5,2" d="M327.69,-60.6C330.95,-64.97 338.88,-68 351.5,-68 372.75,-68 380.72,-59.41 375.41,-50.28"/>
<polygon fill="#9a32cd" stroke="#9a32cd" points="331.19,-60.24 327.59,-50.28 324.19,-60.31 331.19,-60.24"/>
</a>
</g>
<text text-anchor="middle" x="351.5" y="-71" font-family="Helvetica,sans-Serif" font-size="10.00" fill="grey"> next_chunk</text>
</g>
<!-- Node4 -->
<g id="Node000004" class="node">
<title>Node4</title>
<g id="a_Node000004"><a xlink:href="structRealm_1_1ChunkedRecycler_1_1WithPtr.html" target="_top" xlink:title=" ">
<polygon fill="white" stroke="#666666" points="704,-30 548,-30 548,0 704,0 704,-30"/>
<text text-anchor="start" x="556" y="-18" font-family="Helvetica,sans-Serif" font-size="10.00">Realm::ChunkedRecycler</text>
<text text-anchor="middle" x="626" y="-7" font-family="Helvetica,sans-Serif" font-size="10.00">&lt; T, CHUNK_SIZE &gt;::WithPtr</text>
</a>
</g>
</g>
<!-- Node3&#45;&gt;Node4 -->
<g id="edge6_Node000004_Node000003" class="edge">
<title>Node3&#45;&gt;Node4</title>
<g id="a_edge6_Node000004_Node000003"><a xlink:title=" ">
<path fill="none" stroke="#9a32cd" stroke-dasharray="5,2" d="M437.61,-28.75C472.91,-26.16 513.57,-23.18 547.97,-20.65"/>
<polygon fill="#9a32cd" stroke="#9a32cd" points="437.04,-25.29 427.32,-29.51 437.55,-32.27 437.04,-25.29"/>
</a>
</g>
<text text-anchor="middle" x="487.5" y="-30" font-family="Helvetica,sans-Serif" font-size="10.00" fill="grey"> backptr</text>
</g>
<!-- Node4&#45;&gt;Node1 -->
<g id="edge7_Node000001_Node000004" class="edge">
<title>Node4&#45;&gt;Node1</title>
<g id="a_edge7_Node000001_Node000004"><a xlink:title=" ">
<path fill="none" stroke="#9a32cd" stroke-dasharray="5,2" d="M714.24,-29.52C733.03,-32.99 752.72,-36.89 771,-41 783.98,-43.92 797.89,-47.46 810.86,-50.94"/>
<polygon fill="#9a32cd" stroke="#9a32cd" points="714.68,-26.04 704.22,-27.69 713.43,-32.93 714.68,-26.04"/>
</a>
</g>
<text text-anchor="middle" x="746.5" y="-44" font-family="Helvetica,sans-Serif" font-size="10.00" fill="grey"> elements</text>
</g>
<!-- Node4&#45;&gt;Node3 -->
<g id="edge5_Node000003_Node000004" class="edge">
<title>Node4&#45;&gt;Node3</title>
<g id="a_edge5_Node000003_Node000004"><a xlink:title=" ">
<path fill="none" stroke="#9a32cd" stroke-dasharray="5,2" d="M537.68,-1.89C508.11,0.49 474.99,0.89 445,-4 425.94,-7.11 405.52,-13.6 388.72,-19.84"/>
<polygon fill="#9a32cd" stroke="#9a32cd" points="537.71,-5.4 547.98,-2.81 538.33,1.57 537.71,-5.4"/>
</a>
</g>
<text text-anchor="middle" x="487.5" y="-7" font-family="Helvetica,sans-Serif" font-size="10.00" fill="grey"> elements</text>
</g>
</g>
</svg>
