<?xml version="1.0" encoding="UTF-8" standalone="no"?>
<!DOCTYPE svg PUBLIC "-//W3C//DTD SVG 1.1//EN"
 "http://www.w3.org/Graphics/SVG/1.1/DTD/svg11.dtd">
<!-- Generated by graphviz version 2.43.0 (0)
 -->
<!-- Title: Realm::MemStorageReleaseRequest Pages: 1 -->
<svg width="574pt" height="104pt"
 viewBox="0.00 0.00 573.50 104.00" xmlns="http://www.w3.org/2000/svg" xmlns:xlink="http://www.w3.org/1999/xlink">
<g id="graph0" class="graph" transform="scale(1 1) rotate(0) translate(4 100)">
<title>Realm::MemStorageReleaseRequest</title>
<!-- Node1 -->
<g id="Node000001" class="node">
<title>Node1</title>
<g id="a_Node000001"><a xlink:title=" ">
<polygon fill="#999999" stroke="#666666" points="340,-30 185,-30 185,0 340,0 340,-30"/>
<text text-anchor="start" x="193" y="-18" font-family="Helvetica,sans-Serif" font-size="10.00">Realm::MemStorageRelease</text>
<text text-anchor="middle" x="262.5" y="-7" font-family="Helvetica,sans-Serif" font-size="10.00">Request</text>
</a>
</g>
</g>
<!-- Node2 -->
<g id="Node000002" class="node">
<title>Node2</title>
<g id="a_Node000002"><a xlink:href="classRealm_1_1Memory.html" target="_top" xlink:title=" ">
<polygon fill="white" stroke="#666666" points="95,-96 0,-96 0,-77 95,-77 95,-96"/>
<text text-anchor="middle" x="47.5" y="-84" font-family="Helvetica,sans-Serif" font-size="10.00">Realm::Memory</text>
</a>
</g>
</g>
<!-- Node2&#45;&gt;Node1 -->
<g id="edge1_Node000001_Node000002" class="edge">
<title>Node2&#45;&gt;Node1</title>
<g id="a_edge1_Node000001_Node000002"><a xlink:title=" ">
<path fill="none" stroke="#9a32cd" stroke-dasharray="5,2" d="M83.82,-73.76C121.19,-61.68 179.41,-42.86 219.17,-30.01"/>
<polygon fill="#9a32cd" stroke="#9a32cd" points="82.3,-70.57 73.86,-76.98 84.46,-77.23 82.3,-70.57"/>
</a>
</g>
<text text-anchor="middle" x="184" y="-51" font-family="Helvetica,sans-Serif" font-size="10.00" fill="grey"> memory</text>
</g>
<!-- Node2&#45;&gt;Node2 -->
<g id="edge2_Node000002_Node000002" class="edge">
<title>Node2&#45;&gt;Node2</title>
<g id="a_edge2_Node000002_Node000002"><a xlink:title=" ">
<path fill="none" stroke="#9a32cd" stroke-dasharray="5,2" d="M105.36,-91.1C110.08,-90.1 113,-88.57 113,-86.5 113,-83.19 105.51,-81.25 95.19,-80.68"/>
<polygon fill="#9a32cd" stroke="#9a32cd" points="104.7,-87.66 95.19,-92.32 105.54,-94.61 104.7,-87.66"/>
</a>
</g>
<text text-anchor="middle" x="146.5" y="-84" font-family="Helvetica,sans-Serif" font-size="10.00" fill="grey"> NO_MEMORY</text>
</g>
<!-- Node3 -->
<g id="Node000003" class="node">
<title>Node3</title>
<g id="a_Node000003"><a xlink:href="classRealm_1_1RegionInstance.html" target="_top" xlink:title=" ">
<polygon fill="white" stroke="#666666" points="327,-96 198,-96 198,-77 327,-77 327,-96"/>
<text text-anchor="middle" x="262.5" y="-84" font-family="Helvetica,sans-Serif" font-size="10.00">Realm::RegionInstance</text>
</a>
</g>
</g>
<!-- Node3&#45;&gt;Node1 -->
<g id="edge3_Node000001_Node000003" class="edge">
<title>Node3&#45;&gt;Node1</title>
<g id="a_edge3_Node000001_Node000003"><a xlink:title=" ">
<path fill="none" stroke="#9a32cd" stroke-dasharray="5,2" d="M262.5,-66.71C262.5,-55.19 262.5,-40.68 262.5,-30.14"/>
<polygon fill="#9a32cd" stroke="#9a32cd" points="259,-66.98 262.5,-76.98 266,-66.98 259,-66.98"/>
</a>
</g>
<text text-anchor="middle" x="273.5" y="-51" font-family="Helvetica,sans-Serif" font-size="10.00" fill="grey"> inst</text>
</g>
<!-- Node3&#45;&gt;Node3 -->
<g id="edge4_Node000003_Node000003" class="edge">
<title>Node3&#45;&gt;Node3</title>
<g id="a_edge4_Node000003_Node000003"><a xlink:title=" ">
<path fill="none" stroke="#9a32cd" stroke-dasharray="5,2" d="M337.1,-90.79C342.02,-89.79 345,-88.36 345,-86.5 345,-83.59 337.74,-81.74 327.18,-80.95"/>
<polygon fill="#9a32cd" stroke="#9a32cd" points="336.66,-87.31 327.18,-92.05 337.54,-94.26 336.66,-87.31"/>
</a>
</g>
<text text-anchor="middle" x="368" y="-84" font-family="Helvetica,sans-Serif" font-size="10.00" fill="grey"> NO_INST</text>
</g>
<!-- Node4 -->
<g id="Node000004" class="node">
<title>Node4</title>
<g id="a_Node000004"><a xlink:href="classRealm_1_1Event.html" target="_top" xlink:title=" ">
<polygon fill="white" stroke="#666666" points="491.5,-96 409.5,-96 409.5,-77 491.5,-77 491.5,-96"/>
<text text-anchor="middle" x="450.5" y="-84" font-family="Helvetica,sans-Serif" font-size="10.00">Realm::Event</text>
</a>
</g>
</g>
<!-- Node4&#45;&gt;Node1 -->
<g id="edge5_Node000001_Node000004" class="edge">
<title>Node4&#45;&gt;Node1</title>
<g id="a_edge5_Node000001_Node000004"><a xlink:title=" ">
<path fill="none" stroke="#9a32cd" stroke-dasharray="5,2" d="M417.9,-73.45C385.19,-61.36 334.85,-42.75 300.39,-30.01"/>
<polygon fill="#9a32cd" stroke="#9a32cd" points="416.85,-76.79 427.45,-76.98 419.28,-70.23 416.85,-76.79"/>
</a>
</g>
<text text-anchor="middle" x="404.5" y="-51" font-family="Helvetica,sans-Serif" font-size="10.00" fill="grey"> precondition</text>
</g>
<!-- Node4&#45;&gt;Node4 -->
<g id="edge6_Node000004_Node000004" class="edge">
<title>Node4&#45;&gt;Node4</title>
<g id="a_edge6_Node000004_Node000004"><a xlink:title=" ">
<path fill="none" stroke="#9a32cd" stroke-dasharray="5,2" d="M501.76,-91.29C506.51,-90.31 509.5,-88.71 509.5,-86.5 509.5,-82.97 501.84,-81 491.58,-80.58"/>
<polygon fill="#9a32cd" stroke="#9a32cd" points="501.14,-87.84 491.58,-92.42 501.91,-94.8 501.14,-87.84"/>
</a>
</g>
<text text-anchor="middle" x="537.5" y="-84" font-family="Helvetica,sans-Serif" font-size="10.00" fill="grey"> NO_EVENT</text>
</g>
</g>
</svg>
