<?xml version="1.0" encoding="UTF-8" standalone="no"?>
<!DOCTYPE svg PUBLIC "-//W3C//DTD SVG 1.1//EN"
 "http://www.w3.org/Graphics/SVG/1.1/DTD/svg11.dtd">
<!-- Generated by graphviz version 2.43.0 (0)
 -->
<!-- Title: Realm::RWLock::Reader Pages: 1 -->
<svg width="142pt" height="159pt"
 viewBox="0.00 0.00 142.00 159.00" xmlns="http://www.w3.org/2000/svg" xmlns:xlink="http://www.w3.org/1999/xlink">
<g id="graph0" class="graph" transform="scale(1 1) rotate(0) translate(4 155)">
<title>Realm::RWLock::Reader</title>
<!-- Node1 -->
<g id="Node000001" class="node">
<title>Node1</title>
<g id="a_Node000001"><a xlink:title=" ">
<polygon fill="#999999" stroke="#666666" points="134,-151 0,-151 0,-132 134,-132 134,-151"/>
<text text-anchor="middle" x="67" y="-139" font-family="Helvetica,sans-Serif" font-size="10.00">Realm::RWLock::Reader</text>
</a>
</g>
</g>
<!-- Node2 -->
<g id="Node000002" class="node">
<title>Node2</title>
<g id="a_Node000002"><a xlink:href="classRealm_1_1RWLock.html" target="_top" xlink:title=" ">
<polygon fill="white" stroke="#666666" points="113.5,-85 20.5,-85 20.5,-66 113.5,-66 113.5,-85"/>
<text text-anchor="middle" x="67" y="-73" font-family="Helvetica,sans-Serif" font-size="10.00">Realm::RWLock</text>
</a>
</g>
</g>
<!-- Node1&#45;&gt;Node2 -->
<g id="edge4_Node000002_Node000001" class="edge">
<title>Node1&#45;&gt;Node2</title>
<g id="a_edge4_Node000002_Node000001"><a xlink:title=" ">
<path fill="none" stroke="#9a32cd" stroke-dasharray="5,2" d="M43.62,-125.48C40.13,-122.15 37.02,-118.3 35,-114 29.68,-102.69 40.84,-92.09 51.41,-85.06"/>
<polygon fill="#9a32cd" stroke="#9a32cd" points="41.64,-128.38 51.62,-131.95 46.04,-122.94 41.64,-128.38"/>
</a>
</g>
<text text-anchor="middle" x="52.5" y="-106" font-family="Helvetica,sans-Serif" font-size="10.00" fill="grey"> reader</text>
</g>
<!-- Node2&#45;&gt;Node1 -->
<g id="edge1_Node000001_Node000002" class="edge">
<title>Node2&#45;&gt;Node1</title>
<g id="a_edge1_Node000001_Node000002"><a xlink:title=" ">
<path fill="none" stroke="#9a32cd" stroke-dasharray="5,2" d="M72.78,-94.94C74.06,-100.99 74.81,-107.76 74,-114 73.22,-120.04 71.47,-126.67 69.91,-131.78"/>
<polygon fill="#9a32cd" stroke="#9a32cd" points="76.12,-93.86 70.17,-85.1 69.36,-95.66 76.12,-93.86"/>
</a>
</g>
<text text-anchor="middle" x="92" y="-106" font-family="Helvetica,sans-Serif" font-size="10.00" fill="grey"> rwlock</text>
</g>
<!-- Node3 -->
<g id="Node000003" class="node">
<title>Node3</title>
<g id="a_Node000003"><a xlink:href="structRealm_1_1RWLock_1_1Writer.html" target="_top" xlink:title=" ">
<polygon fill="white" stroke="#666666" points="131.5,-19 2.5,-19 2.5,0 131.5,0 131.5,-19"/>
<text text-anchor="middle" x="67" y="-7" font-family="Helvetica,sans-Serif" font-size="10.00">Realm::RWLock::Writer</text>
</a>
</g>
</g>
<!-- Node2&#45;&gt;Node3 -->
<g id="edge3_Node000003_Node000002" class="edge">
<title>Node2&#45;&gt;Node3</title>
<g id="a_edge3_Node000003_Node000002"><a xlink:title=" ">
<path fill="none" stroke="#9a32cd" stroke-dasharray="5,2" d="M43.62,-59.48C40.13,-56.15 37.02,-52.3 35,-48 29.68,-36.69 40.84,-26.09 51.41,-19.06"/>
<polygon fill="#9a32cd" stroke="#9a32cd" points="41.64,-62.38 51.62,-65.95 46.04,-56.94 41.64,-62.38"/>
</a>
</g>
<text text-anchor="middle" x="53" y="-40" font-family="Helvetica,sans-Serif" font-size="10.00" fill="grey"> rwlock</text>
</g>
<!-- Node3&#45;&gt;Node2 -->
<g id="edge2_Node000002_Node000003" class="edge">
<title>Node3&#45;&gt;Node2</title>
<g id="a_edge2_Node000002_Node000003"><a xlink:title=" ">
<path fill="none" stroke="#9a32cd" stroke-dasharray="5,2" d="M73.61,-28.92C75.06,-34.97 75.92,-41.74 75,-48 74.1,-54.09 72.1,-60.71 70.33,-65.81"/>
<polygon fill="#9a32cd" stroke="#9a32cd" points="76.88,-27.63 70.62,-19.08 70.18,-29.67 76.88,-27.63"/>
</a>
</g>
<text text-anchor="middle" x="91" y="-40" font-family="Helvetica,sans-Serif" font-size="10.00" fill="grey"> writer</text>
</g>
</g>
</svg>
