<?xml version="1.0" encoding="UTF-8" standalone="no"?>
<!DOCTYPE svg PUBLIC "-//W3C//DTD SVG 1.1//EN"
 "http://www.w3.org/Graphics/SVG/1.1/DTD/svg11.dtd">
<!-- Generated by graphviz version 2.43.0 (0)
 -->
<!-- Title: Realm::RuntimeShutdownRequest Pages: 1 -->
<svg width="215pt" height="93pt"
 viewBox="0.00 0.00 214.50 93.00" xmlns="http://www.w3.org/2000/svg" xmlns:xlink="http://www.w3.org/1999/xlink">
<g id="graph0" class="graph" transform="scale(1 1) rotate(0) translate(4 89)">
<title>Realm::RuntimeShutdownRequest</title>
<!-- Node1 -->
<g id="Node000001" class="node">
<title>Node1</title>
<g id="a_Node000001"><a xlink:title=" ">
<polygon fill="#999999" stroke="#666666" points="183,-19 0,-19 0,0 183,0 183,-19"/>
<text text-anchor="middle" x="91.5" y="-7" font-family="Helvetica,sans-Serif" font-size="10.00">Realm::RuntimeShutdownRequest</text>
</a>
</g>
</g>
<!-- Node2 -->
<g id="Node000002" class="node">
<title>Node2</title>
<g id="a_Node000002"><a xlink:href="classRealm_1_1Event.html" target="_top" xlink:title=" ">
<polygon fill="white" stroke="#666666" points="132.5,-85 50.5,-85 50.5,-66 132.5,-66 132.5,-85"/>
<text text-anchor="middle" x="91.5" y="-73" font-family="Helvetica,sans-Serif" font-size="10.00">Realm::Event</text>
</a>
</g>
</g>
<!-- Node2&#45;&gt;Node1 -->
<g id="edge1_Node000001_Node000002" class="edge">
<title>Node2&#45;&gt;Node1</title>
<g id="a_edge1_Node000001_Node000002"><a xlink:title=" ">
<path fill="none" stroke="#9a32cd" stroke-dasharray="5,2" d="M91.5,-55.58C91.5,-43.63 91.5,-28.72 91.5,-19.41"/>
<polygon fill="#9a32cd" stroke="#9a32cd" points="88,-55.87 91.5,-65.87 95,-55.87 88,-55.87"/>
</a>
</g>
<text text-anchor="middle" x="112.5" y="-40" font-family="Helvetica,sans-Serif" font-size="10.00" fill="grey"> wait_on</text>
</g>
<!-- Node2&#45;&gt;Node2 -->
<g id="edge2_Node000002_Node000002" class="edge">
<title>Node2&#45;&gt;Node2</title>
<g id="a_edge2_Node000002_Node000002"><a xlink:title=" ">
<path fill="none" stroke="#9a32cd" stroke-dasharray="5,2" d="M142.76,-80.29C147.51,-79.31 150.5,-77.71 150.5,-75.5 150.5,-71.97 142.84,-70 132.58,-69.58"/>
<polygon fill="#9a32cd" stroke="#9a32cd" points="142.14,-76.84 132.58,-81.42 142.91,-83.8 142.14,-76.84"/>
</a>
</g>
<text text-anchor="middle" x="178.5" y="-73" font-family="Helvetica,sans-Serif" font-size="10.00" fill="grey"> NO_EVENT</text>
</g>
</g>
</svg>
