<?xml version="1.0" encoding="UTF-8" standalone="no"?>
<!DOCTYPE svg PUBLIC "-//W3C//DTD SVG 1.1//EN"
 "http://www.w3.org/Graphics/SVG/1.1/DTD/svg11.dtd">
<!-- Generated by graphviz version 2.43.0 (0)
 -->
<!-- Title: Realm::MachineMemInfo Pages: 1 -->
<svg width="439pt" height="174pt"
 viewBox="0.00 0.00 439.00 174.00" xmlns="http://www.w3.org/2000/svg" xmlns:xlink="http://www.w3.org/1999/xlink">
<g id="graph0" class="graph" transform="scale(1 1) rotate(0) translate(4 170)">
<title>Realm::MachineMemInfo</title>
<!-- Node1 -->
<g id="Node000001" class="node">
<title>Node1</title>
<g id="a_Node000001"><a xlink:title=" ">
<polygon fill="#999999" stroke="#666666" points="431,-89 292,-89 292,-70 431,-70 431,-89"/>
<text text-anchor="middle" x="361.5" y="-77" font-family="Helvetica,sans-Serif" font-size="10.00">Realm::MachineMemInfo</text>
</a>
</g>
</g>
<!-- Node2 -->
<g id="Node000002" class="node">
<title>Node2</title>
<g id="a_Node000002"><a xlink:href="classRealm_1_1Memory.html" target="_top" xlink:title=" ">
<polygon fill="white" stroke="#666666" points="149.5,-137 54.5,-137 54.5,-118 149.5,-118 149.5,-137"/>
<text text-anchor="middle" x="102" y="-125" font-family="Helvetica,sans-Serif" font-size="10.00">Realm::Memory</text>
</a>
</g>
</g>
<!-- Node2&#45;&gt;Node1 -->
<g id="edge1_Node000001_Node000002" class="edge">
<title>Node2&#45;&gt;Node1</title>
<g id="a_edge1_Node000001_Node000002"><a xlink:title=" ">
<path fill="none" stroke="#9a32cd" stroke-dasharray="5,2" d="M159.4,-117.58C173.94,-114.99 189.56,-112.17 204,-109.5 240.04,-102.83 280.7,-95.03 311.54,-89.05"/>
<polygon fill="#9a32cd" stroke="#9a32cd" points="158.77,-114.14 149.53,-119.34 159.99,-121.03 158.77,-114.14"/>
</a>
</g>
<text text-anchor="middle" x="248" y="-108.5" font-family="Helvetica,sans-Serif" font-size="10.00" fill="grey"> m</text>
</g>
<!-- Node2&#45;&gt;Node2 -->
<g id="edge2_Node000002_Node000002" class="edge">
<title>Node2&#45;&gt;Node2</title>
<g id="a_edge2_Node000002_Node000002"><a xlink:title=" ">
<path fill="none" stroke="#9a32cd" stroke-dasharray="5,2" d="M74.84,-146.19C76.32,-151.2 85.38,-155 102,-155 127.95,-155 135.45,-145.73 124.5,-137.08"/>
<polygon fill="#9a32cd" stroke="#9a32cd" points="78.06,-147.58 79.5,-137.08 71.83,-144.39 78.06,-147.58"/>
</a>
</g>
<text text-anchor="middle" x="102" y="-158" font-family="Helvetica,sans-Serif" font-size="10.00" fill="grey"> NO_MEMORY</text>
</g>
<!-- Node3 -->
<g id="Node000003" class="node">
<title>Node3</title>
<g id="a_Node000003"><a xlink:href="structRealm_1_1MachineAffinityInfo.html" target="_top" xlink:title=" ">
<polygon fill="white" stroke="#666666" points="204,-100 0,-100 0,-59 204,-59 204,-100"/>
<text text-anchor="start" x="8" y="-88" font-family="Helvetica,sans-Serif" font-size="10.00">Realm::MachineAffinityInfo</text>
<text text-anchor="start" x="8" y="-77" font-family="Helvetica,sans-Serif" font-size="10.00">&lt; Realm::Processor, Realm</text>
<text text-anchor="middle" x="102" y="-66" font-family="Helvetica,sans-Serif" font-size="10.00">::Machine::ProcessorMemoryAffinity &gt;</text>
</a>
</g>
</g>
<!-- Node3&#45;&gt;Node1 -->
<g id="edge3_Node000001_Node000003" class="edge">
<title>Node3&#45;&gt;Node1</title>
<g id="a_edge3_Node000001_Node000003"><a xlink:title=" ">
<path fill="none" stroke="#9a32cd" stroke-dasharray="5,2" d="M214.11,-79.5C240.55,-79.5 268.01,-79.5 291.9,-79.5"/>
<polygon fill="#9a32cd" stroke="#9a32cd" points="214.03,-76 204.03,-79.5 214.03,-83 214.03,-76"/>
</a>
</g>
<text text-anchor="middle" x="248" y="-82.5" font-family="Helvetica,sans-Serif" font-size="10.00" fill="grey"> pmas</text>
</g>
<!-- Node4 -->
<g id="Node000004" class="node">
<title>Node4</title>
<g id="a_Node000004"><a xlink:href="structRealm_1_1MachineAffinityInfo.html" target="_top" xlink:title=" ">
<polygon fill="white" stroke="#666666" points="197.5,-41 6.5,-41 6.5,0 197.5,0 197.5,-41"/>
<text text-anchor="start" x="14.5" y="-29" font-family="Helvetica,sans-Serif" font-size="10.00">Realm::MachineAffinityInfo</text>
<text text-anchor="start" x="14.5" y="-18" font-family="Helvetica,sans-Serif" font-size="10.00">&lt; Realm::Memory, Realm::</text>
<text text-anchor="middle" x="102" y="-7" font-family="Helvetica,sans-Serif" font-size="10.00">Machine::MemoryMemoryAffinity &gt;</text>
</a>
</g>
</g>
<!-- Node4&#45;&gt;Node1 -->
<g id="edge4_Node000001_Node000004" class="edge">
<title>Node4&#45;&gt;Node1</title>
<g id="a_edge4_Node000001_Node000004"><a xlink:title=" ">
<path fill="none" stroke="#9a32cd" stroke-dasharray="5,2" d="M207.9,-39C229.83,-43.36 252.74,-48.27 274,-53.5 293.34,-58.26 314.78,-64.7 331.47,-69.97"/>
<polygon fill="#9a32cd" stroke="#9a32cd" points="208.38,-35.53 197.9,-37.04 207.04,-42.4 208.38,-35.53"/>
</a>
</g>
<text text-anchor="middle" x="248" y="-67.5" font-family="Helvetica,sans-Serif" font-size="10.00" fill="grey"> mmas_in</text>
<text text-anchor="middle" x="248" y="-56.5" font-family="Helvetica,sans-Serif" font-size="10.00" fill="grey">mmas_out</text>
</g>
</g>
</svg>
