<?xml version="1.0" encoding="UTF-8" standalone="no"?>
<!DOCTYPE svg PUBLIC "-//W3C//DTD SVG 1.1//EN"
 "http://www.w3.org/Graphics/SVG/1.1/DTD/svg11.dtd">
<!-- Generated by graphviz version 2.43.0 (0)
 -->
<!-- Title: Realm::RemoteIBAllocRequestSingle Pages: 1 -->
<svg width="224pt" height="104pt"
 viewBox="0.00 0.00 223.50 104.00" xmlns="http://www.w3.org/2000/svg" xmlns:xlink="http://www.w3.org/1999/xlink">
<g id="graph0" class="graph" transform="scale(1 1) rotate(0) translate(4 100)">
<title>Realm::RemoteIBAllocRequestSingle</title>
<!-- Node1 -->
<g id="Node000001" class="node">
<title>Node1</title>
<g id="a_Node000001"><a xlink:title=" ">
<polygon fill="#999999" stroke="#666666" points="166,-30 0,-30 0,0 166,0 166,-30"/>
<text text-anchor="start" x="8" y="-18" font-family="Helvetica,sans-Serif" font-size="10.00">Realm::RemoteIBAllocRequest</text>
<text text-anchor="middle" x="83" y="-7" font-family="Helvetica,sans-Serif" font-size="10.00">Single</text>
</a>
</g>
</g>
<!-- Node2 -->
<g id="Node000002" class="node">
<title>Node2</title>
<g id="a_Node000002"><a xlink:href="classRealm_1_1Memory.html" target="_top" xlink:title=" ">
<polygon fill="white" stroke="#666666" points="130.5,-96 35.5,-96 35.5,-77 130.5,-77 130.5,-96"/>
<text text-anchor="middle" x="83" y="-84" font-family="Helvetica,sans-Serif" font-size="10.00">Realm::Memory</text>
</a>
</g>
</g>
<!-- Node2&#45;&gt;Node1 -->
<g id="edge1_Node000001_Node000002" class="edge">
<title>Node2&#45;&gt;Node1</title>
<g id="a_edge1_Node000001_Node000002"><a xlink:title=" ">
<path fill="none" stroke="#9a32cd" stroke-dasharray="5,2" d="M83,-66.71C83,-55.19 83,-40.68 83,-30.14"/>
<polygon fill="#9a32cd" stroke="#9a32cd" points="79.5,-66.98 83,-76.98 86.5,-66.98 79.5,-66.98"/>
</a>
</g>
<text text-anchor="middle" x="105.5" y="-51" font-family="Helvetica,sans-Serif" font-size="10.00" fill="grey"> memory</text>
</g>
<!-- Node2&#45;&gt;Node2 -->
<g id="edge2_Node000002_Node000002" class="edge">
<title>Node2&#45;&gt;Node2</title>
<g id="a_edge2_Node000002_Node000002"><a xlink:title=" ">
<path fill="none" stroke="#9a32cd" stroke-dasharray="5,2" d="M140.86,-91.1C145.58,-90.1 148.5,-88.57 148.5,-86.5 148.5,-83.19 141.01,-81.25 130.69,-80.68"/>
<polygon fill="#9a32cd" stroke="#9a32cd" points="140.2,-87.66 130.69,-92.32 141.04,-94.61 140.2,-87.66"/>
</a>
</g>
<text text-anchor="middle" x="182" y="-84" font-family="Helvetica,sans-Serif" font-size="10.00" fill="grey"> NO_MEMORY</text>
</g>
</g>
</svg>
