<?xml version="1.0" encoding="UTF-8" standalone="no"?>
<!DOCTYPE svg PUBLIC "-//W3C//DTD SVG 1.1//EN"
 "http://www.w3.org/Graphics/SVG/1.1/DTD/svg11.dtd">
<!-- Generated by graphviz version 2.43.0 (0)
 -->
<!-- Title: Realm::Type::CommonFields Pages: 1 -->
<svg width="357pt" height="198pt"
 viewBox="0.00 0.00 357.00 197.50" xmlns="http://www.w3.org/2000/svg" xmlns:xlink="http://www.w3.org/1999/xlink">
<g id="graph0" class="graph" transform="scale(1 1) rotate(0) translate(4 193.5)">
<title>Realm::Type::CommonFields</title>
<!-- Node1 -->
<g id="Node000001" class="node">
<title>Node1</title>
<g id="a_Node000001"><a xlink:title=" ">
<polygon fill="#999999" stroke="#666666" points="155,-93 0,-93 0,-74 155,-74 155,-93"/>
<text text-anchor="middle" x="77.5" y="-81" font-family="Helvetica,sans-Serif" font-size="10.00">Realm::Type::CommonFields</text>
</a>
</g>
</g>
<!-- Node2 -->
<g id="Node000002" class="node">
<title>Node2</title>
<g id="a_Node000002"><a xlink:href="structRealm_1_1Type_1_1FloatingPointFields.html" target="_top" xlink:title=" ">
<polygon fill="white" stroke="#666666" points="343.5,-189.5 196.5,-189.5 196.5,-159.5 343.5,-159.5 343.5,-189.5"/>
<text text-anchor="start" x="204.5" y="-177.5" font-family="Helvetica,sans-Serif" font-size="10.00">Realm::Type::FloatingPoint</text>
<text text-anchor="middle" x="270" y="-166.5" font-family="Helvetica,sans-Serif" font-size="10.00">Fields</text>
</a>
</g>
</g>
<!-- Node1&#45;&gt;Node2 -->
<g id="edge1_Node000001_Node000002" class="edge">
<title>Node1&#45;&gt;Node2</title>
<g id="a_edge1_Node000001_Node000002"><a xlink:title=" ">
<path fill="none" stroke="#63b8ff" d="M100.45,-98.73C122.53,-113.52 157.95,-135.83 191,-150.5 198.38,-153.78 206.34,-156.78 214.26,-159.48"/>
<polygon fill="#63b8ff" stroke="#63b8ff" points="102.37,-95.8 92.13,-93.08 98.44,-101.59 102.37,-95.8"/>
</a>
</g>
</g>
<!-- Node3 -->
<g id="Node000003" class="node">
<title>Node3</title>
<g id="a_Node000003"><a xlink:href="structRealm_1_1Type_1_1FunctionPointerFields.html" target="_top" xlink:title=" ">
<polygon fill="white" stroke="#666666" points="349,-141.5 191,-141.5 191,-111.5 349,-111.5 349,-141.5"/>
<text text-anchor="start" x="199" y="-129.5" font-family="Helvetica,sans-Serif" font-size="10.00">Realm::Type::FunctionPointer</text>
<text text-anchor="middle" x="270" y="-118.5" font-family="Helvetica,sans-Serif" font-size="10.00">Fields</text>
</a>
</g>
</g>
<!-- Node1&#45;&gt;Node3 -->
<g id="edge2_Node000001_Node000003" class="edge">
<title>Node1&#45;&gt;Node3</title>
<g id="a_edge2_Node000001_Node000003"><a xlink:title=" ">
<path fill="none" stroke="#63b8ff" d="M130.67,-95.28C152.85,-100.28 178.98,-106.18 202.52,-111.49"/>
<polygon fill="#63b8ff" stroke="#63b8ff" points="131.3,-91.83 120.78,-93.04 129.76,-98.66 131.3,-91.83"/>
</a>
</g>
</g>
<!-- Node4 -->
<g id="Node000004" class="node">
<title>Node4</title>
<g id="a_Node000004"><a xlink:href="structRealm_1_1Type_1_1IntegerFields.html" target="_top" xlink:title=" ">
<polygon fill="white" stroke="#666666" points="343,-93 197,-93 197,-74 343,-74 343,-93"/>
<text text-anchor="middle" x="270" y="-81" font-family="Helvetica,sans-Serif" font-size="10.00">Realm::Type::IntegerFields</text>
</a>
</g>
</g>
<!-- Node1&#45;&gt;Node4 -->
<g id="edge3_Node000001_Node000004" class="edge">
<title>Node1&#45;&gt;Node4</title>
<g id="a_edge3_Node000001_Node000004"><a xlink:title=" ">
<path fill="none" stroke="#63b8ff" d="M165.23,-83.5C175.79,-83.5 186.5,-83.5 196.82,-83.5"/>
<polygon fill="#63b8ff" stroke="#63b8ff" points="165.16,-80 155.16,-83.5 165.16,-87 165.16,-80"/>
</a>
</g>
</g>
<!-- Node5 -->
<g id="Node000005" class="node">
<title>Node5</title>
<g id="a_Node000005"><a xlink:href="structRealm_1_1Type_1_1OpaqueFields.html" target="_top" xlink:title=" ">
<polygon fill="white" stroke="#666666" points="344.5,-56 195.5,-56 195.5,-37 344.5,-37 344.5,-56"/>
<text text-anchor="middle" x="270" y="-44" font-family="Helvetica,sans-Serif" font-size="10.00">Realm::Type::OpaqueFields</text>
</a>
</g>
</g>
<!-- Node1&#45;&gt;Node5 -->
<g id="edge4_Node000001_Node000005" class="edge">
<title>Node1&#45;&gt;Node5</title>
<g id="a_edge4_Node000001_Node000005"><a xlink:title=" ">
<path fill="none" stroke="#63b8ff" d="M137.44,-72.05C163.85,-66.92 194.63,-60.94 219.78,-56.06"/>
<polygon fill="#63b8ff" stroke="#63b8ff" points="136.71,-68.63 127.56,-73.97 138.04,-75.5 136.71,-68.63"/>
</a>
</g>
</g>
<!-- Node6 -->
<g id="Node000006" class="node">
<title>Node6</title>
<g id="a_Node000006"><a xlink:href="structRealm_1_1Type_1_1PointerFields.html" target="_top" xlink:title=" ">
<polygon fill="white" stroke="#666666" points="343,-19 197,-19 197,0 343,0 343,-19"/>
<text text-anchor="middle" x="270" y="-7" font-family="Helvetica,sans-Serif" font-size="10.00">Realm::Type::PointerFields</text>
</a>
</g>
</g>
<!-- Node1&#45;&gt;Node6 -->
<g id="edge5_Node000001_Node000006" class="edge">
<title>Node1&#45;&gt;Node6</title>
<g id="a_edge5_Node000001_Node000006"><a xlink:title=" ">
<path fill="none" stroke="#63b8ff" d="M104,-69.05C126.37,-56.87 160.05,-39.69 191,-28.5 201.09,-24.85 212.17,-21.68 222.73,-19.03"/>
<polygon fill="#63b8ff" stroke="#63b8ff" points="102.22,-66.04 95.15,-73.94 105.6,-72.17 102.22,-66.04"/>
</a>
</g>
</g>
</g>
</svg>
