<?xml version="1.0" encoding="UTF-8" standalone="no"?>
<!DOCTYPE svg PUBLIC "-//W3C//DTD SVG 1.1//EN"
 "http://www.w3.org/Graphics/SVG/1.1/DTD/svg11.dtd">
<!-- Generated by graphviz version 2.43.0 (0)
 -->
<!-- Title: Realm::AutoMessageRegistrar&lt; UserHdr &gt; Pages: 1 -->
<svg width="272pt" height="193pt"
 viewBox="0.00 0.00 271.50 193.00" xmlns="http://www.w3.org/2000/svg" xmlns:xlink="http://www.w3.org/1999/xlink">
<g id="graph0" class="graph" transform="scale(1 1) rotate(0) translate(4 189)">
<title>Realm::AutoMessageRegistrar&lt; UserHdr &gt;</title>
<!-- Node1 -->
<g id="Node000001" class="node">
<title>Node1</title>
<g id="a_Node000001"><a xlink:title=" ">
<polygon fill="#999999" stroke="#666666" points="177,-30 13,-30 13,0 177,0 177,-30"/>
<text text-anchor="start" x="21" y="-18" font-family="Helvetica,sans-Serif" font-size="10.00">Realm::AutoMessageRegistrar</text>
<text text-anchor="middle" x="95" y="-7" font-family="Helvetica,sans-Serif" font-size="10.00">&lt; UserHdr &gt;</text>
</a>
</g>
</g>
<!-- Node2 -->
<g id="Node000002" class="node">
<title>Node2</title>
<g id="a_Node000002"><a xlink:href="classRealm_1_1ActiveMessageHandlerReg.html" target="_top" xlink:title=" ">
<polygon fill="white" stroke="#666666" points="190,-118 0,-118 0,-77 190,-77 190,-118"/>
<text text-anchor="start" x="8" y="-106" font-family="Helvetica,sans-Serif" font-size="10.00">Realm::ActiveMessageHandler</text>
<text text-anchor="start" x="8" y="-95" font-family="Helvetica,sans-Serif" font-size="10.00">Reg&lt; Realm::WrappedWithFragInfo</text>
<text text-anchor="middle" x="95" y="-84" font-family="Helvetica,sans-Serif" font-size="10.00">&lt; UserHdr &gt;, UserHdr &gt;</text>
</a>
</g>
</g>
<!-- Node2&#45;&gt;Node1 -->
<g id="edge1_Node000001_Node000002" class="edge">
<title>Node2&#45;&gt;Node1</title>
<g id="a_edge1_Node000001_Node000002"><a xlink:title=" ">
<path fill="none" stroke="#9a32cd" stroke-dasharray="5,2" d="M95,-66.26C95,-53.96 95,-40.33 95,-30.37"/>
<polygon fill="#9a32cd" stroke="#9a32cd" points="91.5,-66.6 95,-76.6 98.5,-66.6 91.5,-66.6"/>
</a>
</g>
<text text-anchor="middle" x="104.5" y="-51" font-family="Helvetica,sans-Serif" font-size="10.00" fill="grey"> reg</text>
</g>
<!-- Node3 -->
<g id="Node000003" class="node">
<title>Node3</title>
<g id="a_Node000003"><a xlink:href="classRealm_1_1ActiveMessageHandlerRegBase.html" target="_top" xlink:title=" ">
<polygon fill="white" stroke="#666666" points="178.5,-185 11.5,-185 11.5,-155 178.5,-155 178.5,-185"/>
<text text-anchor="start" x="19.5" y="-173" font-family="Helvetica,sans-Serif" font-size="10.00">Realm::ActiveMessageHandler</text>
<text text-anchor="middle" x="95" y="-162" font-family="Helvetica,sans-Serif" font-size="10.00">RegBase</text>
</a>
</g>
</g>
<!-- Node3&#45;&gt;Node2 -->
<g id="edge2_Node000002_Node000003" class="edge">
<title>Node3&#45;&gt;Node2</title>
<g id="a_edge2_Node000002_Node000003"><a xlink:title=" ">
<path fill="none" stroke="#63b8ff" d="M95,-144.48C95,-135.85 95,-126.26 95,-118.09"/>
<polygon fill="#63b8ff" stroke="#63b8ff" points="91.5,-144.73 95,-154.73 98.5,-144.73 91.5,-144.73"/>
</a>
</g>
</g>
<!-- Node3&#45;&gt;Node3 -->
<g id="edge3_Node000003_Node000003" class="edge">
<title>Node3&#45;&gt;Node3</title>
<g id="a_edge3_Node000003_Node000003"><a xlink:title=" ">
<path fill="none" stroke="#9a32cd" stroke-dasharray="5,2" d="M188.65,-173.95C193.58,-172.98 196.5,-171.66 196.5,-170 196.5,-167.41 189.39,-165.65 178.62,-164.74"/>
<polygon fill="#9a32cd" stroke="#9a32cd" points="188.08,-170.49 178.62,-175.26 188.99,-177.44 188.08,-170.49"/>
</a>
</g>
<text text-anchor="middle" x="230" y="-167.5" font-family="Helvetica,sans-Serif" font-size="10.00" fill="grey"> next_handler</text>
</g>
</g>
</svg>
