<?xml version="1.0" encoding="UTF-8" standalone="no"?>
<!DOCTYPE svg PUBLIC "-//W3C//DTD SVG 1.1//EN"
 "http://www.w3.org/Graphics/SVG/1.1/DTD/svg11.dtd">
<!-- Generated by graphviz version 2.43.0 (0)
 -->
<!-- Title: Realm::ProfilingMeasurements::OperationEventWaits::WaitInterval Pages: 1 -->
<svg width="219pt" height="104pt"
 viewBox="0.00 0.00 218.50 104.00" xmlns="http://www.w3.org/2000/svg" xmlns:xlink="http://www.w3.org/1999/xlink">
<g id="graph0" class="graph" transform="scale(1 1) rotate(0) translate(4 100)">
<title>Realm::ProfilingMeasurements::OperationEventWaits::WaitInterval</title>
<!-- Node1 -->
<g id="Node000001" class="node">
<title>Node1</title>
<g id="a_Node000001"><a xlink:title=" ">
<polygon fill="#999999" stroke="#666666" points="191,-30 0,-30 0,0 191,0 191,-30"/>
<text text-anchor="start" x="8" y="-18" font-family="Helvetica,sans-Serif" font-size="10.00">Realm::ProfilingMeasurements</text>
<text text-anchor="middle" x="95.5" y="-7" font-family="Helvetica,sans-Serif" font-size="10.00">::OperationEventWaits::WaitInterval</text>
</a>
</g>
</g>
<!-- Node2 -->
<g id="Node000002" class="node">
<title>Node2</title>
<g id="a_Node000002"><a xlink:href="classRealm_1_1Event.html" target="_top" xlink:title=" ">
<polygon fill="white" stroke="#666666" points="136.5,-96 54.5,-96 54.5,-77 136.5,-77 136.5,-96"/>
<text text-anchor="middle" x="95.5" y="-84" font-family="Helvetica,sans-Serif" font-size="10.00">Realm::Event</text>
</a>
</g>
</g>
<!-- Node2&#45;&gt;Node1 -->
<g id="edge1_Node000001_Node000002" class="edge">
<title>Node2&#45;&gt;Node1</title>
<g id="a_edge1_Node000001_Node000002"><a xlink:title=" ">
<path fill="none" stroke="#9a32cd" stroke-dasharray="5,2" d="M95.5,-66.71C95.5,-55.19 95.5,-40.68 95.5,-30.14"/>
<polygon fill="#9a32cd" stroke="#9a32cd" points="92,-66.98 95.5,-76.98 99,-66.98 92,-66.98"/>
</a>
</g>
<text text-anchor="middle" x="124.5" y="-51" font-family="Helvetica,sans-Serif" font-size="10.00" fill="grey"> wait_event</text>
</g>
<!-- Node2&#45;&gt;Node2 -->
<g id="edge2_Node000002_Node000002" class="edge">
<title>Node2&#45;&gt;Node2</title>
<g id="a_edge2_Node000002_Node000002"><a xlink:title=" ">
<path fill="none" stroke="#9a32cd" stroke-dasharray="5,2" d="M146.76,-91.29C151.51,-90.31 154.5,-88.71 154.5,-86.5 154.5,-82.97 146.84,-81 136.58,-80.58"/>
<polygon fill="#9a32cd" stroke="#9a32cd" points="146.14,-87.84 136.58,-92.42 146.91,-94.8 146.14,-87.84"/>
</a>
</g>
<text text-anchor="middle" x="182.5" y="-84" font-family="Helvetica,sans-Serif" font-size="10.00" fill="grey"> NO_EVENT</text>
</g>
</g>
</svg>
