<?xml version="1.0" encoding="UTF-8" standalone="no"?>
<!DOCTYPE svg PUBLIC "-//W3C//DTD SVG 1.1//EN"
 "http://www.w3.org/Graphics/SVG/1.1/DTD/svg11.dtd">
<!-- Generated by graphviz version 2.43.0 (0)
 -->
<!-- Title: Realm::SubgraphDefinition::CopyDesc Pages: 1 -->
<svg width="335pt" height="170pt"
 viewBox="0.00 0.00 334.50 170.00" xmlns="http://www.w3.org/2000/svg" xmlns:xlink="http://www.w3.org/1999/xlink">
<g id="graph0" class="graph" transform="scale(1 1) rotate(0) translate(4 166)">
<title>Realm::SubgraphDefinition::CopyDesc</title>
<!-- Node1 -->
<g id="Node000001" class="node">
<title>Node1</title>
<g id="a_Node000001"><a xlink:title=" ">
<polygon fill="#999999" stroke="#666666" points="241.5,-30 94.5,-30 94.5,0 241.5,0 241.5,-30"/>
<text text-anchor="start" x="102.5" y="-18" font-family="Helvetica,sans-Serif" font-size="10.00">Realm::SubgraphDefinition</text>
<text text-anchor="middle" x="168" y="-7" font-family="Helvetica,sans-Serif" font-size="10.00">::CopyDesc</text>
</a>
</g>
</g>
<!-- Node2 -->
<g id="Node000002" class="node">
<title>Node2</title>
<g id="a_Node000002"><a xlink:href="classRealm_1_1IndexSpaceGeneric.html" target="_top" xlink:title=" ">
<polygon fill="white" stroke="#666666" points="159,-96 11,-96 11,-77 159,-77 159,-96"/>
<text text-anchor="middle" x="85" y="-84" font-family="Helvetica,sans-Serif" font-size="10.00">Realm::IndexSpaceGeneric</text>
</a>
</g>
</g>
<!-- Node2&#45;&gt;Node1 -->
<g id="edge1_Node000001_Node000002" class="edge">
<title>Node2&#45;&gt;Node1</title>
<g id="a_edge1_Node000001_Node000002"><a xlink:title=" ">
<path fill="none" stroke="#9a32cd" stroke-dasharray="5,2" d="M102.86,-70.54C117.16,-58.57 137.08,-41.89 151.12,-30.14"/>
<polygon fill="#9a32cd" stroke="#9a32cd" points="100.6,-67.87 95.18,-76.98 105.09,-73.24 100.6,-67.87"/>
</a>
</g>
<text text-anchor="middle" x="145" y="-51" font-family="Helvetica,sans-Serif" font-size="10.00" fill="grey"> space</text>
</g>
<!-- Node3 -->
<g id="Node000003" class="node">
<title>Node3</title>
<g id="a_Node000003"><a xlink:href="classRealm_1_1IndexSpaceGenericImpl.html" target="_top" xlink:title=" ">
<polygon fill="white" stroke="#666666" points="170,-162 0,-162 0,-143 170,-143 170,-162"/>
<text text-anchor="middle" x="85" y="-150" font-family="Helvetica,sans-Serif" font-size="10.00">Realm::IndexSpaceGenericImpl</text>
</a>
</g>
</g>
<!-- Node3&#45;&gt;Node2 -->
<g id="edge2_Node000002_Node000003" class="edge">
<title>Node3&#45;&gt;Node2</title>
<g id="a_edge2_Node000002_Node000003"><a xlink:title=" ">
<path fill="none" stroke="#9a32cd" stroke-dasharray="5,2" d="M85,-132.58C85,-120.63 85,-105.72 85,-96.41"/>
<polygon fill="#9a32cd" stroke="#9a32cd" points="81.5,-132.87 85,-142.87 88.5,-132.87 81.5,-132.87"/>
</a>
</g>
<text text-anchor="middle" x="97.5" y="-117" font-family="Helvetica,sans-Serif" font-size="10.00" fill="grey"> impl</text>
</g>
<!-- Node4 -->
<g id="Node000004" class="node">
<title>Node4</title>
<g id="a_Node000004"><a xlink:href="classRealm_1_1ProfilingRequestSet.html" target="_top" xlink:title=" ">
<polygon fill="white" stroke="#666666" points="326.5,-96 177.5,-96 177.5,-77 326.5,-77 326.5,-96"/>
<text text-anchor="middle" x="252" y="-84" font-family="Helvetica,sans-Serif" font-size="10.00">Realm::ProfilingRequestSet</text>
</a>
</g>
</g>
<!-- Node4&#45;&gt;Node1 -->
<g id="edge3_Node000001_Node000004" class="edge">
<title>Node4&#45;&gt;Node1</title>
<g id="a_edge3_Node000001_Node000004"><a xlink:title=" ">
<path fill="none" stroke="#9a32cd" stroke-dasharray="5,2" d="M233.92,-70.54C219.45,-58.57 199.29,-41.89 185.09,-30.14"/>
<polygon fill="#9a32cd" stroke="#9a32cd" points="231.76,-73.3 241.7,-76.98 236.23,-67.91 231.76,-73.3"/>
</a>
</g>
<text text-anchor="middle" x="226.5" y="-51" font-family="Helvetica,sans-Serif" font-size="10.00" fill="grey"> prs</text>
</g>
</g>
</svg>
