<?xml version="1.0" encoding="UTF-8" standalone="no"?>
<!DOCTYPE svg PUBLIC "-//W3C//DTD SVG 1.1//EN"
 "http://www.w3.org/Graphics/SVG/1.1/DTD/svg11.dtd">
<!-- Generated by graphviz version 2.43.0 (0)
 -->
<!-- Title: PRealm::CopySrcDstField Pages: 1 -->
<svg width="591pt" height="215pt"
 viewBox="0.00 0.00 590.50 215.00" xmlns="http://www.w3.org/2000/svg" xmlns:xlink="http://www.w3.org/1999/xlink">
<g id="graph0" class="graph" transform="scale(1 1) rotate(0) translate(4 211)">
<title>PRealm::CopySrcDstField</title>
<!-- Node1 -->
<g id="Node000001" class="node">
<title>Node1</title>
<g id="a_Node000001"><a xlink:title=" ">
<polygon fill="#999999" stroke="#666666" points="448.5,-19 308.5,-19 308.5,0 448.5,0 448.5,-19"/>
<text text-anchor="middle" x="378.5" y="-7" font-family="Helvetica,sans-Serif" font-size="10.00">PRealm::CopySrcDstField</text>
</a>
</g>
</g>
<!-- Node2 -->
<g id="Node000002" class="node">
<title>Node2</title>
<g id="a_Node000002"><a xlink:href="classPRealm_1_1RegionInstance.html" target="_top" xlink:title=" ">
<polygon fill="white" stroke="#666666" points="227,-85 92,-85 92,-66 227,-66 227,-85"/>
<text text-anchor="middle" x="159.5" y="-73" font-family="Helvetica,sans-Serif" font-size="10.00">PRealm::RegionInstance</text>
</a>
</g>
</g>
<!-- Node2&#45;&gt;Node1 -->
<g id="edge1_Node000001_Node000002" class="edge">
<title>Node2&#45;&gt;Node1</title>
<g id="a_edge1_Node000001_Node000002"><a xlink:title=" ">
<path fill="none" stroke="#9a32cd" stroke-dasharray="5,2" d="M198.63,-63.06C241.8,-50.45 310.26,-30.44 349.08,-19.1"/>
<polygon fill="#9a32cd" stroke="#9a32cd" points="197.65,-59.7 189.04,-65.87 199.62,-66.42 197.65,-59.7"/>
</a>
</g>
<text text-anchor="middle" x="293.5" y="-40" font-family="Helvetica,sans-Serif" font-size="10.00" fill="grey"> inst</text>
</g>
<!-- Node2&#45;&gt;Node2 -->
<g id="edge4_Node000002_Node000002" class="edge">
<title>Node2&#45;&gt;Node2</title>
<g id="a_edge4_Node000002_Node000002"><a xlink:title=" ">
<path fill="none" stroke="#9a32cd" stroke-dasharray="5,2" d="M237.5,-79.65C242.19,-78.66 245,-77.28 245,-75.5 245,-72.66 237.8,-70.82 227.23,-70"/>
<polygon fill="#9a32cd" stroke="#9a32cd" points="236.69,-76.22 227.23,-81 237.6,-83.16 236.69,-76.22"/>
</a>
</g>
<text text-anchor="middle" x="268" y="-73" font-family="Helvetica,sans-Serif" font-size="10.00" fill="grey"> NO_INST</text>
</g>
<!-- Node3 -->
<g id="Node000003" class="node">
<title>Node3</title>
<g id="a_Node000003"><a xlink:href="classRealm_1_1RegionInstance.html" target="_top" xlink:title=" ">
<polygon fill="white" stroke="#666666" points="129,-151 0,-151 0,-132 129,-132 129,-151"/>
<text text-anchor="middle" x="64.5" y="-139" font-family="Helvetica,sans-Serif" font-size="10.00">Realm::RegionInstance</text>
</a>
</g>
</g>
<!-- Node3&#45;&gt;Node2 -->
<g id="edge2_Node000002_Node000003" class="edge">
<title>Node3&#45;&gt;Node2</title>
<g id="a_edge2_Node000002_Node000003"><a xlink:title=" ">
<path fill="none" stroke="#63b8ff" d="M85.76,-126.18C104.42,-113.61 130.96,-95.73 146.59,-85.2"/>
<polygon fill="#63b8ff" stroke="#63b8ff" points="83.65,-123.38 77.31,-131.87 87.56,-129.18 83.65,-123.38"/>
</a>
</g>
</g>
<!-- Node3&#45;&gt;Node3 -->
<g id="edge3_Node000003_Node000003" class="edge">
<title>Node3&#45;&gt;Node3</title>
<g id="a_edge3_Node000003_Node000003"><a xlink:title=" ">
<path fill="none" stroke="#9a32cd" stroke-dasharray="5,2" d="M139.46,-145.19C144.16,-144.32 147,-143.09 147,-141.5 147,-138.96 139.74,-137.34 129.18,-136.64"/>
<polygon fill="#9a32cd" stroke="#9a32cd" points="138.72,-141.75 129.18,-146.36 139.51,-148.7 138.72,-141.75"/>
</a>
</g>
<text text-anchor="middle" x="170" y="-139" font-family="Helvetica,sans-Serif" font-size="10.00" fill="grey"> NO_INST</text>
</g>
<!-- Node4 -->
<g id="Node000004" class="node">
<title>Node4</title>
<g id="a_Node000004"><a xlink:href="classPRealm_1_1Event.html" target="_top" xlink:title=" ">
<polygon fill="white" stroke="#666666" points="299.5,-151 211.5,-151 211.5,-132 299.5,-132 299.5,-151"/>
<text text-anchor="middle" x="255.5" y="-139" font-family="Helvetica,sans-Serif" font-size="10.00">PRealm::Event</text>
</a>
</g>
</g>
<!-- Node4&#45;&gt;Node2 -->
<g id="edge5_Node000002_Node000004" class="edge">
<title>Node4&#45;&gt;Node2</title>
<g id="a_edge5_Node000002_Node000004"><a xlink:title=" ">
<path fill="none" stroke="#9a32cd" stroke-dasharray="5,2" d="M234.02,-126.18C215.16,-113.61 188.34,-95.73 172.55,-85.2"/>
<polygon fill="#9a32cd" stroke="#9a32cd" points="232.29,-129.23 242.55,-131.87 236.17,-123.41 232.29,-129.23"/>
</a>
</g>
<text text-anchor="middle" x="248.5" y="-106" font-family="Helvetica,sans-Serif" font-size="10.00" fill="grey"> unique_event</text>
</g>
<!-- Node4&#45;&gt;Node4 -->
<g id="edge8_Node000004_Node000004" class="edge">
<title>Node4&#45;&gt;Node4</title>
<g id="a_edge8_Node000004_Node000004"><a xlink:title=" ">
<path fill="none" stroke="#9a32cd" stroke-dasharray="5,2" d="M309.76,-145.63C314.52,-144.75 317.5,-143.38 317.5,-141.5 317.5,-138.49 309.87,-136.78 299.52,-136.35"/>
<polygon fill="#9a32cd" stroke="#9a32cd" points="309.13,-142.17 299.52,-146.65 309.82,-149.14 309.13,-142.17"/>
</a>
</g>
<text text-anchor="middle" x="345.5" y="-139" font-family="Helvetica,sans-Serif" font-size="10.00" fill="grey"> NO_EVENT</text>
</g>
<!-- Node5 -->
<g id="Node000005" class="node">
<title>Node5</title>
<g id="a_Node000005"><a xlink:href="classRealm_1_1Event.html" target="_top" xlink:title=" ">
<polygon fill="white" stroke="#666666" points="296.5,-207 214.5,-207 214.5,-188 296.5,-188 296.5,-207"/>
<text text-anchor="middle" x="255.5" y="-195" font-family="Helvetica,sans-Serif" font-size="10.00">Realm::Event</text>
</a>
</g>
</g>
<!-- Node5&#45;&gt;Node4 -->
<g id="edge6_Node000004_Node000005" class="edge">
<title>Node5&#45;&gt;Node4</title>
<g id="a_edge6_Node000004_Node000005"><a xlink:title=" ">
<path fill="none" stroke="#63b8ff" d="M255.5,-177.3C255.5,-168.41 255.5,-158.28 255.5,-151.25"/>
<polygon fill="#63b8ff" stroke="#63b8ff" points="252,-177.58 255.5,-187.58 259,-177.58 252,-177.58"/>
</a>
</g>
</g>
<!-- Node5&#45;&gt;Node5 -->
<g id="edge7_Node000005_Node000005" class="edge">
<title>Node5&#45;&gt;Node5</title>
<g id="a_edge7_Node000005_Node000005"><a xlink:title=" ">
<path fill="none" stroke="#9a32cd" stroke-dasharray="5,2" d="M306.76,-201.7C311.51,-200.83 314.5,-199.43 314.5,-197.5 314.5,-194.41 306.84,-192.68 296.58,-192.32"/>
<polygon fill="#9a32cd" stroke="#9a32cd" points="306.2,-198.23 296.58,-202.68 306.87,-205.2 306.2,-198.23"/>
</a>
</g>
<text text-anchor="middle" x="342.5" y="-195" font-family="Helvetica,sans-Serif" font-size="10.00" fill="grey"> NO_EVENT</text>
</g>
<!-- Node6 -->
<g id="Node000006" class="node">
<title>Node6</title>
<g id="a_Node000006"><a xlink:title=" ">
<polygon fill="white" stroke="#666666" points="359.5,-85 309.5,-85 309.5,-66 359.5,-66 359.5,-85"/>
<text text-anchor="middle" x="334.5" y="-73" font-family="Helvetica,sans-Serif" font-size="10.00">FieldID</text>
</a>
</g>
</g>
<!-- Node6&#45;&gt;Node1 -->
<g id="edge9_Node000001_Node000006" class="edge">
<title>Node6&#45;&gt;Node1</title>
<g id="a_edge9_Node000001_Node000006"><a xlink:title=" ">
<path fill="none" stroke="#9a32cd" stroke-dasharray="5,2" d="M346.25,-57.41C354.66,-45.18 365.64,-29.2 372.38,-19.41"/>
<polygon fill="#9a32cd" stroke="#9a32cd" points="343.22,-55.65 340.43,-65.87 348.98,-59.61 343.22,-55.65"/>
</a>
</g>
<text text-anchor="middle" x="378" y="-40" font-family="Helvetica,sans-Serif" font-size="10.00" fill="grey"> field_id</text>
</g>
<!-- Node7 -->
<g id="Node000007" class="node">
<title>Node7</title>
<g id="a_Node000007"><a xlink:title=" ">
<polygon fill="white" stroke="#666666" points="467,-85 378,-85 378,-66 467,-66 467,-85"/>
<text text-anchor="middle" x="422.5" y="-73" font-family="Helvetica,sans-Serif" font-size="10.00">ReductionOpID</text>
</a>
</g>
</g>
<!-- Node7&#45;&gt;Node1 -->
<g id="edge10_Node000001_Node000007" class="edge">
<title>Node7&#45;&gt;Node1</title>
<g id="a_edge10_Node000001_Node000007"><a xlink:title=" ">
<path fill="none" stroke="#9a32cd" stroke-dasharray="5,2" d="M412.89,-56.78C409.23,-50.4 404.88,-43.24 400.5,-37 396.1,-30.73 390.6,-24.11 386.2,-19.05"/>
<polygon fill="#9a32cd" stroke="#9a32cd" points="410.06,-58.89 417.98,-65.92 416.17,-55.48 410.06,-58.89"/>
</a>
</g>
<text text-anchor="middle" x="430.5" y="-40" font-family="Helvetica,sans-Serif" font-size="10.00" fill="grey"> redop_id</text>
</g>
<!-- Node8 -->
<g id="Node000008" class="node">
<title>Node8</title>
<g id="a_Node000008"><a xlink:title=" ">
<polygon fill="white" stroke="#666666" points="582.5,-85 484.5,-85 484.5,-66 582.5,-66 582.5,-85"/>
<text text-anchor="middle" x="533.5" y="-73" font-family="Helvetica,sans-Serif" font-size="10.00">CustomSerdezID</text>
</a>
</g>
</g>
<!-- Node8&#45;&gt;Node1 -->
<g id="edge11_Node000001_Node000008" class="edge">
<title>Node8&#45;&gt;Node1</title>
<g id="a_edge11_Node000001_Node000008"><a xlink:title=" ">
<path fill="none" stroke="#9a32cd" stroke-dasharray="5,2" d="M508.83,-61.27C494.15,-53.67 475.02,-44.22 457.5,-37 441.05,-30.22 422.17,-23.84 406.99,-19.03"/>
<polygon fill="#9a32cd" stroke="#9a32cd" points="507.29,-64.42 517.77,-65.96 510.54,-58.22 507.29,-64.42"/>
</a>
</g>
<text text-anchor="middle" x="505.5" y="-40" font-family="Helvetica,sans-Serif" font-size="10.00" fill="grey"> serdez_id</text>
</g>
</g>
</svg>
