<?xml version="1.0" encoding="UTF-8" standalone="no"?>
<!DOCTYPE svg PUBLIC "-//W3C//DTD SVG 1.1//EN"
 "http://www.w3.org/Graphics/SVG/1.1/DTD/svg11.dtd">
<!-- Generated by graphviz version 2.43.0 (0)
 -->
<!-- Title: Realm::DestroyLockMessage Pages: 1 -->
<svg width="405pt" height="104pt"
 viewBox="0.00 0.00 404.50 104.00" xmlns="http://www.w3.org/2000/svg" xmlns:xlink="http://www.w3.org/1999/xlink">
<g id="graph0" class="graph" transform="scale(1 1) rotate(0) translate(4 100)">
<title>Realm::DestroyLockMessage</title>
<!-- Node1 -->
<g id="Node000001" class="node">
<title>Node1</title>
<g id="a_Node000001"><a xlink:title=" ">
<polygon fill="#999999" stroke="#666666" points="247.5,-19 89.5,-19 89.5,0 247.5,0 247.5,-19"/>
<text text-anchor="middle" x="168.5" y="-7" font-family="Helvetica,sans-Serif" font-size="10.00">Realm::DestroyLockMessage</text>
</a>
</g>
</g>
<!-- Node2 -->
<g id="Node000002" class="node">
<title>Node2</title>
<g id="a_Node000002"><a xlink:href="classRealm_1_1Reservation.html" target="_top" xlink:title=" ">
<polygon fill="white" stroke="#666666" points="113,-96 0,-96 0,-77 113,-77 113,-96"/>
<text text-anchor="middle" x="56.5" y="-84" font-family="Helvetica,sans-Serif" font-size="10.00">Realm::Reservation</text>
</a>
</g>
</g>
<!-- Node2&#45;&gt;Node1 -->
<g id="edge1_Node000001_Node000002" class="edge">
<title>Node2&#45;&gt;Node1</title>
<g id="a_edge1_Node000001_Node000002"><a xlink:title=" ">
<path fill="none" stroke="#9a32cd" stroke-dasharray="5,2" d="M77.77,-71.26C100.81,-55.83 136.82,-31.72 155.8,-19"/>
<polygon fill="#9a32cd" stroke="#9a32cd" points="75.71,-68.42 69.35,-76.9 79.6,-74.24 75.71,-68.42"/>
</a>
</g>
<text text-anchor="middle" x="145.5" y="-51" font-family="Helvetica,sans-Serif" font-size="10.00" fill="grey"> actual</text>
<text text-anchor="middle" x="145.5" y="-40" font-family="Helvetica,sans-Serif" font-size="10.00" fill="grey">dummy</text>
</g>
<!-- Node2&#45;&gt;Node2 -->
<g id="edge2_Node000002_Node000002" class="edge">
<title>Node2&#45;&gt;Node2</title>
<g id="a_edge2_Node000002_Node000002"><a xlink:title=" ">
<path fill="none" stroke="#9a32cd" stroke-dasharray="5,2" d="M122.99,-91.81C127.95,-90.62 131,-88.85 131,-86.5 131,-82.83 123.57,-80.57 113.03,-79.74"/>
<polygon fill="#9a32cd" stroke="#9a32cd" points="122.42,-88.36 113.03,-93.26 123.42,-95.28 122.42,-88.36"/>
</a>
</g>
<text text-anchor="middle" x="176.5" y="-84" font-family="Helvetica,sans-Serif" font-size="10.00" fill="grey"> NO_RESERVATION</text>
</g>
<!-- Node3 -->
<g id="Node000003" class="node">
<title>Node3</title>
<g id="a_Node000003"><a xlink:href="classRealm_1_1Event.html" target="_top" xlink:title=" ">
<polygon fill="white" stroke="#666666" points="322.5,-96 240.5,-96 240.5,-77 322.5,-77 322.5,-96"/>
<text text-anchor="middle" x="281.5" y="-84" font-family="Helvetica,sans-Serif" font-size="10.00">Realm::Event</text>
</a>
</g>
</g>
<!-- Node3&#45;&gt;Node1 -->
<g id="edge3_Node000001_Node000003" class="edge">
<title>Node3&#45;&gt;Node1</title>
<g id="a_edge3_Node000001_Node000003"><a xlink:title=" ">
<path fill="none" stroke="#9a32cd" stroke-dasharray="5,2" d="M260.04,-71.26C236.79,-55.83 200.46,-31.72 181.31,-19"/>
<polygon fill="#9a32cd" stroke="#9a32cd" points="258.27,-74.28 268.54,-76.9 262.14,-68.45 258.27,-74.28"/>
</a>
</g>
<text text-anchor="middle" x="258.5" y="-45.5" font-family="Helvetica,sans-Serif" font-size="10.00" fill="grey"> wait_on</text>
</g>
<!-- Node3&#45;&gt;Node3 -->
<g id="edge4_Node000003_Node000003" class="edge">
<title>Node3&#45;&gt;Node3</title>
<g id="a_edge4_Node000003_Node000003"><a xlink:title=" ">
<path fill="none" stroke="#9a32cd" stroke-dasharray="5,2" d="M332.76,-92.19C337.51,-91.02 340.5,-89.12 340.5,-86.5 340.5,-82.31 332.84,-79.96 322.58,-79.47"/>
<polygon fill="#9a32cd" stroke="#9a32cd" points="332.04,-88.76 322.58,-93.53 332.95,-95.7 332.04,-88.76"/>
</a>
</g>
<text text-anchor="middle" x="368.5" y="-84" font-family="Helvetica,sans-Serif" font-size="10.00" fill="grey"> NO_EVENT</text>
</g>
</g>
</svg>
