<?xml version="1.0" encoding="UTF-8" standalone="no"?>
<!DOCTYPE svg PUBLIC "-//W3C//DTD SVG 1.1//EN"
 "http://www.w3.org/Graphics/SVG/1.1/DTD/svg11.dtd">
<!-- Generated by graphviz version 2.43.0 (0)
 -->
<!-- Title: Realm::ChannelCopyInfo Pages: 1 -->
<svg width="209pt" height="115pt"
 viewBox="0.00 0.00 209.00 115.00" xmlns="http://www.w3.org/2000/svg" xmlns:xlink="http://www.w3.org/1999/xlink">
<g id="graph0" class="graph" transform="scale(1 1) rotate(0) translate(4 111)">
<title>Realm::ChannelCopyInfo</title>
<!-- Node1 -->
<g id="Node000001" class="node">
<title>Node1</title>
<g id="a_Node000001"><a xlink:title=" ">
<polygon fill="#999999" stroke="#666666" points="137,-19 0,-19 0,0 137,0 137,-19"/>
<text text-anchor="middle" x="68.5" y="-7" font-family="Helvetica,sans-Serif" font-size="10.00">Realm::ChannelCopyInfo</text>
</a>
</g>
</g>
<!-- Node2 -->
<g id="Node000002" class="node">
<title>Node2</title>
<g id="a_Node000002"><a xlink:href="classRealm_1_1Memory.html" target="_top" xlink:title=" ">
<polygon fill="white" stroke="#666666" points="116,-107 21,-107 21,-88 116,-88 116,-107"/>
<text text-anchor="middle" x="68.5" y="-95" font-family="Helvetica,sans-Serif" font-size="10.00">Realm::Memory</text>
</a>
</g>
</g>
<!-- Node2&#45;&gt;Node1 -->
<g id="edge1_Node000001_Node000002" class="edge">
<title>Node2&#45;&gt;Node1</title>
<g id="a_edge1_Node000001_Node000002"><a xlink:title=" ">
<path fill="none" stroke="#9a32cd" stroke-dasharray="5,2" d="M68.5,-77.91C68.5,-59.67 68.5,-32.65 68.5,-19.03"/>
<polygon fill="#9a32cd" stroke="#9a32cd" points="65,-77.94 68.5,-87.94 72,-77.94 65,-77.94"/>
</a>
</g>
<text text-anchor="middle" x="93" y="-62" font-family="Helvetica,sans-Serif" font-size="10.00" fill="grey"> dst_mem</text>
<text text-anchor="middle" x="93" y="-51" font-family="Helvetica,sans-Serif" font-size="10.00" fill="grey">ind_mem</text>
<text text-anchor="middle" x="93" y="-40" font-family="Helvetica,sans-Serif" font-size="10.00" fill="grey">src_mem</text>
</g>
<!-- Node2&#45;&gt;Node2 -->
<g id="edge2_Node000002_Node000002" class="edge">
<title>Node2&#45;&gt;Node2</title>
<g id="a_edge2_Node000002_Node000002"><a xlink:title=" ">
<path fill="none" stroke="#9a32cd" stroke-dasharray="5,2" d="M126.36,-103.83C131.08,-102.46 134,-100.35 134,-97.5 134,-92.95 126.51,-90.28 116.19,-89.49"/>
<polygon fill="#9a32cd" stroke="#9a32cd" points="125.49,-100.43 116.19,-105.51 126.63,-107.33 125.49,-100.43"/>
</a>
</g>
<text text-anchor="middle" x="167.5" y="-95" font-family="Helvetica,sans-Serif" font-size="10.00" fill="grey"> NO_MEMORY</text>
</g>
</g>
</svg>
