<?xml version="1.0" encoding="UTF-8" standalone="no"?>
<!DOCTYPE svg PUBLIC "-//W3C//DTD SVG 1.1//EN"
 "http://www.w3.org/Graphics/SVG/1.1/DTD/svg11.dtd">
<!-- Generated by graphviz version 2.43.0 (0)
 -->
<!-- Title: Realm::SparsityMapRefCounter::SparsityMapRemoveReferencesMessage Pages: 1 -->
<svg width="234pt" height="104pt"
 viewBox="0.00 0.00 234.00 104.00" xmlns="http://www.w3.org/2000/svg" xmlns:xlink="http://www.w3.org/1999/xlink">
<g id="graph0" class="graph" transform="scale(1 1) rotate(0) translate(4 100)">
<title>Realm::SparsityMapRefCounter::SparsityMapRemoveReferencesMessage</title>
<!-- Node1 -->
<g id="Node000001" class="node">
<title>Node1</title>
<g id="a_Node000001"><a xlink:title=" ">
<polygon fill="#999999" stroke="#666666" points="222,-30 0,-30 0,0 222,0 222,-30"/>
<text text-anchor="start" x="8" y="-18" font-family="Helvetica,sans-Serif" font-size="10.00">Realm::SparsityMapRefCounter</text>
<text text-anchor="middle" x="111" y="-7" font-family="Helvetica,sans-Serif" font-size="10.00">::SparsityMapRemoveReferencesMessage</text>
</a>
</g>
</g>
<!-- Node2 -->
<g id="Node000002" class="node">
<title>Node2</title>
<g id="a_Node000002"><a xlink:href="classRealm_1_1Event.html" target="_top" xlink:title=" ">
<polygon fill="white" stroke="#666666" points="152,-96 70,-96 70,-77 152,-77 152,-96"/>
<text text-anchor="middle" x="111" y="-84" font-family="Helvetica,sans-Serif" font-size="10.00">Realm::Event</text>
</a>
</g>
</g>
<!-- Node2&#45;&gt;Node1 -->
<g id="edge1_Node000001_Node000002" class="edge">
<title>Node2&#45;&gt;Node1</title>
<g id="a_edge1_Node000001_Node000002"><a xlink:title=" ">
<path fill="none" stroke="#9a32cd" stroke-dasharray="5,2" d="M111,-66.71C111,-55.19 111,-40.68 111,-30.14"/>
<polygon fill="#9a32cd" stroke="#9a32cd" points="107.5,-66.98 111,-76.98 114.5,-66.98 107.5,-66.98"/>
</a>
</g>
<text text-anchor="middle" x="132" y="-51" font-family="Helvetica,sans-Serif" font-size="10.00" fill="grey"> wait_on</text>
</g>
<!-- Node2&#45;&gt;Node2 -->
<g id="edge2_Node000002_Node000002" class="edge">
<title>Node2&#45;&gt;Node2</title>
<g id="a_edge2_Node000002_Node000002"><a xlink:title=" ">
<path fill="none" stroke="#9a32cd" stroke-dasharray="5,2" d="M162.26,-91.29C167.01,-90.31 170,-88.71 170,-86.5 170,-82.97 162.34,-81 152.08,-80.58"/>
<polygon fill="#9a32cd" stroke="#9a32cd" points="161.64,-87.84 152.08,-92.42 162.41,-94.8 161.64,-87.84"/>
</a>
</g>
<text text-anchor="middle" x="198" y="-84" font-family="Helvetica,sans-Serif" font-size="10.00" fill="grey"> NO_EVENT</text>
</g>
</g>
</svg>
