<?xml version="1.0" encoding="UTF-8" standalone="no"?>
<!DOCTYPE svg PUBLIC "-//W3C//DTD SVG 1.1//EN"
 "http://www.w3.org/Graphics/SVG/1.1/DTD/svg11.dtd">
<!-- Generated by graphviz version 2.43.0 (0)
 -->
<!-- Title: Realm::Cuda::AffineCopyInfo&lt; N, Offset_t, MAX_RECTS &gt; Pages: 1 -->
<svg width="165pt" height="203pt"
 viewBox="0.00 0.00 165.00 203.00" xmlns="http://www.w3.org/2000/svg" xmlns:xlink="http://www.w3.org/1999/xlink">
<g id="graph0" class="graph" transform="scale(1 1) rotate(0) translate(4 199)">
<title>Realm::Cuda::AffineCopyInfo&lt; N, Offset_t, MAX_RECTS &gt;</title>
<!-- Node1 -->
<g id="Node000001" class="node">
<title>Node1</title>
<g id="a_Node000001"><a xlink:title=" ">
<polygon fill="#999999" stroke="#666666" points="157,-30 0,-30 0,0 157,0 157,-30"/>
<text text-anchor="start" x="8" y="-18" font-family="Helvetica,sans-Serif" font-size="10.00">Realm::Cuda::AffineCopyInfo</text>
<text text-anchor="middle" x="78.5" y="-7" font-family="Helvetica,sans-Serif" font-size="10.00">&lt; N, Offset_t, MAX_RECTS &gt;</text>
</a>
</g>
</g>
<!-- Node2 -->
<g id="Node000002" class="node">
<title>Node2</title>
<g id="a_Node000002"><a xlink:href="structRealm_1_1Cuda_1_1AffineCopyPair.html" target="_top" xlink:title=" ">
<polygon fill="white" stroke="#666666" points="156.5,-107 0.5,-107 0.5,-77 156.5,-77 156.5,-107"/>
<text text-anchor="start" x="8.5" y="-95" font-family="Helvetica,sans-Serif" font-size="10.00">Realm::Cuda::AffineCopyPair</text>
<text text-anchor="middle" x="78.5" y="-84" font-family="Helvetica,sans-Serif" font-size="10.00">&lt; N, size_t &gt;</text>
</a>
</g>
</g>
<!-- Node2&#45;&gt;Node1 -->
<g id="edge1_Node000001_Node000002" class="edge">
<title>Node2&#45;&gt;Node1</title>
<g id="a_edge1_Node000001_Node000002"><a xlink:title=" ">
<path fill="none" stroke="#9a32cd" stroke-dasharray="5,2" d="M78.5,-66.54C78.5,-54.45 78.5,-40.29 78.5,-30.04"/>
<polygon fill="#9a32cd" stroke="#9a32cd" points="75,-66.89 78.5,-76.89 82,-66.89 75,-66.89"/>
</a>
</g>
<text text-anchor="middle" x="101" y="-51" font-family="Helvetica,sans-Serif" font-size="10.00" fill="grey"> subrects</text>
</g>
<!-- Node3 -->
<g id="Node000003" class="node">
<title>Node3</title>
<g id="a_Node000003"><a xlink:href="structRealm_1_1Cuda_1_1AffineSubRect.html" target="_top" xlink:title=" ">
<polygon fill="white" stroke="#666666" points="155,-195 2,-195 2,-165 155,-165 155,-195"/>
<text text-anchor="start" x="10" y="-183" font-family="Helvetica,sans-Serif" font-size="10.00">Realm::Cuda::AffineSubRect</text>
<text text-anchor="middle" x="78.5" y="-172" font-family="Helvetica,sans-Serif" font-size="10.00">&lt; N, size_t &gt;</text>
</a>
</g>
</g>
<!-- Node3&#45;&gt;Node2 -->
<g id="edge2_Node000002_Node000003" class="edge">
<title>Node3&#45;&gt;Node2</title>
<g id="a_edge2_Node000002_Node000003"><a xlink:title=" ">
<path fill="none" stroke="#9a32cd" stroke-dasharray="5,2" d="M78.5,-154.49C78.5,-139.2 78.5,-120.05 78.5,-107.22"/>
<polygon fill="#9a32cd" stroke="#9a32cd" points="75,-154.8 78.5,-164.8 82,-154.8 75,-154.8"/>
</a>
</g>
<text text-anchor="middle" x="88" y="-139" font-family="Helvetica,sans-Serif" font-size="10.00" fill="grey"> dst</text>
<text text-anchor="middle" x="88" y="-128" font-family="Helvetica,sans-Serif" font-size="10.00" fill="grey">src</text>
</g>
</g>
</svg>
