<?xml version="1.0" encoding="UTF-8" standalone="no"?>
<!DOCTYPE svg PUBLIC "-//W3C//DTD SVG 1.1//EN"
 "http://www.w3.org/Graphics/SVG/1.1/DTD/svg11.dtd">
<!-- Generated by graphviz version 2.43.0 (0)
 -->
<!-- Title: Realm::ProfilingMeasurements::InstanceStatus Pages: 1 -->
<svg width="175pt" height="160pt"
 viewBox="0.00 0.00 175.00 160.00" xmlns="http://www.w3.org/2000/svg" xmlns:xlink="http://www.w3.org/1999/xlink">
<g id="graph0" class="graph" transform="scale(1 1) rotate(0) translate(4 156)">
<title>Realm::ProfilingMeasurements::InstanceStatus</title>
<!-- Node1 -->
<g id="Node000001" class="node">
<title>Node1</title>
<g id="a_Node000001"><a xlink:title=" ">
<polygon fill="#999999" stroke="#666666" points="167,-30 0,-30 0,0 167,0 167,-30"/>
<text text-anchor="start" x="8" y="-18" font-family="Helvetica,sans-Serif" font-size="10.00">Realm::ProfilingMeasurements</text>
<text text-anchor="middle" x="83.5" y="-7" font-family="Helvetica,sans-Serif" font-size="10.00">::InstanceStatus</text>
</a>
</g>
</g>
<!-- Node2 -->
<g id="Node000002" class="node">
<title>Node2</title>
<g id="a_Node000002"><a xlink:href="classRealm_1_1ByteArray.html" target="_top" xlink:title=" ">
<polygon fill="white" stroke="#666666" points="135,-96 32,-96 32,-77 135,-77 135,-96"/>
<text text-anchor="middle" x="83.5" y="-84" font-family="Helvetica,sans-Serif" font-size="10.00">Realm::ByteArray</text>
</a>
</g>
</g>
<!-- Node2&#45;&gt;Node1 -->
<g id="edge1_Node000001_Node000002" class="edge">
<title>Node2&#45;&gt;Node1</title>
<g id="a_edge1_Node000001_Node000002"><a xlink:title=" ">
<path fill="none" stroke="#9a32cd" stroke-dasharray="5,2" d="M83.5,-66.71C83.5,-55.19 83.5,-40.68 83.5,-30.14"/>
<polygon fill="#9a32cd" stroke="#9a32cd" points="80,-66.98 83.5,-76.98 87,-66.98 80,-66.98"/>
</a>
</g>
<text text-anchor="middle" x="116" y="-51" font-family="Helvetica,sans-Serif" font-size="10.00" fill="grey"> error_details</text>
</g>
<!-- Node3 -->
<g id="Node000003" class="node">
<title>Node3</title>
<g id="a_Node000003"><a xlink:href="classRealm_1_1ByteArrayRef.html" target="_top" xlink:title=" ">
<polygon fill="white" stroke="#666666" points="143,-152 24,-152 24,-133 143,-133 143,-152"/>
<text text-anchor="middle" x="83.5" y="-140" font-family="Helvetica,sans-Serif" font-size="10.00">Realm::ByteArrayRef</text>
</a>
</g>
</g>
<!-- Node3&#45;&gt;Node2 -->
<g id="edge2_Node000002_Node000003" class="edge">
<title>Node3&#45;&gt;Node2</title>
<g id="a_edge2_Node000002_Node000003"><a xlink:title=" ">
<path fill="none" stroke="#63b8ff" d="M83.5,-122.3C83.5,-113.41 83.5,-103.28 83.5,-96.25"/>
<polygon fill="#63b8ff" stroke="#63b8ff" points="80,-122.58 83.5,-132.58 87,-122.58 80,-122.58"/>
</a>
</g>
</g>
</g>
</svg>
