<?xml version="1.0" encoding="UTF-8" standalone="no"?>
<!DOCTYPE svg PUBLIC "-//W3C//DTD SVG 1.1//EN"
 "http://www.w3.org/Graphics/SVG/1.1/DTD/svg11.dtd">
<!-- Generated by graphviz version 2.43.0 (0)
 -->
<!-- Title: /home/runner/work/realm/realm/realm&#45;src/src/realm/threads.h Pages: 1 -->
<svg width="1372pt" height="269pt"
 viewBox="0.00 0.00 1372.00 269.00" xmlns="http://www.w3.org/2000/svg" xmlns:xlink="http://www.w3.org/1999/xlink">
<g id="graph0" class="graph" transform="scale(1 1) rotate(0) translate(4 265)">
<title>/home/runner/work/realm/realm/realm&#45;src/src/realm/threads.h</title>
<!-- Node1 -->
<g id="Node000001" class="node">
<title>Node1</title>
<g id="a_Node000001"><a xlink:title=" ">
<polygon fill="#999999" stroke="#666666" points="1039,-261 893,-261 893,-220 1039,-220 1039,-261"/>
<text text-anchor="start" x="901" y="-249" font-family="Helvetica,sans-Serif" font-size="10.00">/home/runner/work/realm</text>
<text text-anchor="start" x="901" y="-238" font-family="Helvetica,sans-Serif" font-size="10.00">/realm/realm&#45;src/src/realm</text>
<text text-anchor="middle" x="966" y="-227" font-family="Helvetica,sans-Serif" font-size="10.00">/threads.h</text>
</a>
</g>
</g>
<!-- Node2 -->
<g id="Node000002" class="node">
<title>Node2</title>
<g id="a_Node000002"><a xlink:href="realm__config_8h.html" target="_top" xlink:title=" ">
<polygon fill="white" stroke="#666666" points="651,-74 531,-74 531,-55 651,-55 651,-74"/>
<text text-anchor="middle" x="591" y="-62" font-family="Helvetica,sans-Serif" font-size="10.00">realm/realm_config.h</text>
</a>
</g>
</g>
<!-- Node1&#45;&gt;Node2 -->
<g id="edge1_Node000001_Node000002" class="edge">
<title>Node1&#45;&gt;Node2</title>
<g id="a_edge1_Node000001_Node000002"><a xlink:title=" ">
<path fill="none" stroke="#63b8ff" d="M892.66,-225.75C851.03,-216.62 798.51,-202.81 754,-184 710.47,-165.6 701.1,-156.96 663,-129 642.78,-114.16 621.46,-94.83 607.31,-81.41"/>
<polygon fill="#63b8ff" stroke="#63b8ff" points="609.51,-78.67 599.87,-74.27 604.67,-83.72 609.51,-78.67"/>
</a>
</g>
</g>
<!-- Node5 -->
<g id="Node000005" class="node">
<title>Node5</title>
<g id="a_Node000005"><a xlink:href="mutex_8h.html" target="_top" xlink:title=" ">
<polygon fill="white" stroke="#666666" points="557.5,-184 468.5,-184 468.5,-165 557.5,-165 557.5,-184"/>
<text text-anchor="middle" x="513" y="-172" font-family="Helvetica,sans-Serif" font-size="10.00">realm/mutex.h</text>
</a>
</g>
</g>
<!-- Node1&#45;&gt;Node5 -->
<g id="edge4_Node000001_Node000005" class="edge">
<title>Node1&#45;&gt;Node5</title>
<g id="a_edge4_Node000001_Node000005"><a xlink:title=" ">
<path fill="none" stroke="#63b8ff" d="M892.97,-229.18C802.13,-216.35 649.12,-194.73 567.74,-183.23"/>
<polygon fill="#63b8ff" stroke="#63b8ff" points="568.1,-179.75 557.71,-181.82 567.12,-186.68 568.1,-179.75"/>
</a>
</g>
</g>
<!-- Node6 -->
<g id="Node000006" class="node">
<title>Node6</title>
<g id="a_Node000006"><a xlink:href="utils_8h.html" target="_top" xlink:title=" ">
<polygon fill="white" stroke="#666666" points="317,-129 239,-129 239,-110 317,-110 317,-129"/>
<text text-anchor="middle" x="278" y="-117" font-family="Helvetica,sans-Serif" font-size="10.00">realm/utils.h</text>
</a>
</g>
</g>
<!-- Node1&#45;&gt;Node6 -->
<g id="edge23_Node000001_Node000006" class="edge">
<title>Node1&#45;&gt;Node6</title>
<g id="a_edge23_Node000001_Node000006"><a xlink:title=" ">
<path fill="none" stroke="#63b8ff" d="M892.99,-240.06C747.47,-240.05 427.01,-234.13 331,-184 311.58,-173.86 296.48,-153.25 287.45,-138.25"/>
<polygon fill="#63b8ff" stroke="#63b8ff" points="290.39,-136.34 282.41,-129.37 284.3,-139.8 290.39,-136.34"/>
</a>
</g>
</g>
<!-- Node7 -->
<g id="Node000007" class="node">
<title>Node7</title>
<g id="a_Node000007"><a xlink:title=" ">
<polygon fill="#e0e0e0" stroke="#999999" points="434,-74 390,-74 390,-55 434,-55 434,-74"/>
<text text-anchor="middle" x="412" y="-62" font-family="Helvetica,sans-Serif" font-size="10.00">string</text>
</a>
</g>
</g>
<!-- Node1&#45;&gt;Node7 -->
<g id="edge32_Node000001_Node000007" class="edge">
<title>Node1&#45;&gt;Node7</title>
<g id="a_edge32_Node000001_Node000007"><a xlink:title=" ">
<path fill="none" stroke="#63b8ff" d="M892.99,-235.23C772.56,-227.57 537.77,-209.84 459,-184 412.64,-168.8 388.37,-171.27 364,-129 353.65,-111.06 371.87,-92.36 388.76,-79.94"/>
<polygon fill="#63b8ff" stroke="#63b8ff" points="391.06,-82.61 397.31,-74.05 387.09,-76.84 391.06,-82.61"/>
</a>
</g>
</g>
<!-- Node10 -->
<g id="Node000010" class="node">
<title>Node10</title>
<g id="a_Node000010"><a xlink:title=" ">
<polygon fill="#e0e0e0" stroke="#999999" points="929,-74 891,-74 891,-55 929,-55 929,-74"/>
<text text-anchor="middle" x="910" y="-62" font-family="Helvetica,sans-Serif" font-size="10.00">map</text>
</a>
</g>
</g>
<!-- Node1&#45;&gt;Node10 -->
<g id="edge35_Node000001_Node000010" class="edge">
<title>Node1&#45;&gt;Node10</title>
<g id="a_edge35_Node000001_Node000010"><a xlink:title=" ">
<path fill="none" stroke="#63b8ff" d="M995.66,-219.83C1030.71,-194.14 1080.94,-147.95 1053,-110 1026.92,-74.57 972.85,-66.54 939.18,-65.16"/>
<polygon fill="#63b8ff" stroke="#63b8ff" points="939.11,-61.66 929.03,-64.92 938.94,-68.65 939.11,-61.66"/>
</a>
</g>
</g>
<!-- Node15 -->
<g id="Node000015" class="node">
<title>Node15</title>
<g id="a_Node000015"><a xlink:href="atomics_8h.html" target="_top" xlink:title=" ">
<polygon fill="white" stroke="#666666" points="768,-129 672,-129 672,-110 768,-110 768,-129"/>
<text text-anchor="middle" x="720" y="-117" font-family="Helvetica,sans-Serif" font-size="10.00">realm/atomics.h</text>
</a>
</g>
</g>
<!-- Node1&#45;&gt;Node15 -->
<g id="edge22_Node000001_Node000015" class="edge">
<title>Node1&#45;&gt;Node15</title>
<g id="a_edge22_Node000001_Node000015"><a xlink:title=" ">
<path fill="none" stroke="#63b8ff" d="M893,-227C857.1,-218.61 814.29,-205.11 780,-184 760.32,-171.88 742.81,-151.69 731.86,-137.33"/>
<polygon fill="#63b8ff" stroke="#63b8ff" points="734.67,-135.25 725.93,-129.27 729.04,-139.4 734.67,-135.25"/>
</a>
</g>
</g>
<!-- Node20 -->
<g id="Node000020" class="node">
<title>Node20</title>
<g id="a_Node000020"><a xlink:href="hardware__topology_8h.html" target="_top" xlink:title=" ">
<polygon fill="white" stroke="#666666" points="938.5,-184 789.5,-184 789.5,-165 938.5,-165 938.5,-184"/>
<text text-anchor="middle" x="864" y="-172" font-family="Helvetica,sans-Serif" font-size="10.00">realm/hardware_topology.h</text>
</a>
</g>
</g>
<!-- Node1&#45;&gt;Node20 -->
<g id="edge24_Node000001_Node000020" class="edge">
<title>Node1&#45;&gt;Node20</title>
<g id="a_edge24_Node000001_Node000020"><a xlink:title=" ">
<path fill="none" stroke="#63b8ff" d="M934.84,-219.95C919.18,-210.12 900.55,-198.43 886.33,-189.51"/>
<polygon fill="#63b8ff" stroke="#63b8ff" points="888.02,-186.44 877.69,-184.09 884.3,-192.37 888.02,-186.44"/>
</a>
</g>
</g>
<!-- Node21 -->
<g id="Node000021" class="node">
<title>Node21</title>
<g id="a_Node000021"><a xlink:title=" ">
<polygon fill="#e0e0e0" stroke="#999999" points="994,-129 938,-129 938,-110 994,-110 994,-129"/>
<text text-anchor="middle" x="966" y="-117" font-family="Helvetica,sans-Serif" font-size="10.00">stddef.h</text>
</a>
</g>
</g>
<!-- Node1&#45;&gt;Node21 -->
<g id="edge31_Node000001_Node000021" class="edge">
<title>Node1&#45;&gt;Node21</title>
<g id="a_edge31_Node000001_Node000021"><a xlink:title=" ">
<path fill="none" stroke="#63b8ff" d="M966,-219.85C966,-197.48 966,-161.19 966,-139.21"/>
<polygon fill="#63b8ff" stroke="#63b8ff" points="969.5,-139.18 966,-129.18 962.5,-139.18 969.5,-139.18"/>
</a>
</g>
</g>
<!-- Node23 -->
<g id="Node000023" class="node">
<title>Node23</title>
<g id="a_Node000023"><a xlink:title=" ">
<polygon fill="#e0e0e0" stroke="#999999" points="1044,-129 1012,-129 1012,-110 1044,-110 1044,-129"/>
<text text-anchor="middle" x="1028" y="-117" font-family="Helvetica,sans-Serif" font-size="10.00">set</text>
</a>
</g>
</g>
<!-- Node1&#45;&gt;Node23 -->
<g id="edge34_Node000001_Node000023" class="edge">
<title>Node1&#45;&gt;Node23</title>
<g id="a_edge34_Node000001_Node000023"><a xlink:title=" ">
<path fill="none" stroke="#63b8ff" d="M976.24,-219.85C988.06,-197.17 1007.32,-160.19 1018.72,-138.31"/>
<polygon fill="#63b8ff" stroke="#63b8ff" points="1021.96,-139.66 1023.48,-129.18 1015.76,-136.43 1021.96,-139.66"/>
</a>
</g>
</g>
<!-- Node24 -->
<g id="Node000024" class="node">
<title>Node24</title>
<g id="a_Node000024"><a xlink:title=" ">
<polygon fill="#e0e0e0" stroke="#999999" points="1102,-184 1070,-184 1070,-165 1102,-165 1102,-184"/>
<text text-anchor="middle" x="1086" y="-172" font-family="Helvetica,sans-Serif" font-size="10.00">list</text>
</a>
</g>
</g>
<!-- Node1&#45;&gt;Node24 -->
<g id="edge33_Node000001_Node000024" class="edge">
<title>Node1&#45;&gt;Node24</title>
<g id="a_edge33_Node000001_Node000024"><a xlink:title=" ">
<path fill="none" stroke="#63b8ff" d="M1002.66,-219.95C1021.44,-209.93 1043.84,-197.99 1060.68,-189"/>
<polygon fill="#63b8ff" stroke="#63b8ff" points="1062.71,-191.89 1069.89,-184.09 1059.42,-185.71 1062.71,-191.89"/>
</a>
</g>
</g>
<!-- Node25 -->
<g id="Node000025" class="node">
<title>Node25</title>
<g id="a_Node000025"><a xlink:title=" ">
<polygon fill="#e0e0e0" stroke="#999999" points="1167.5,-184 1120.5,-184 1120.5,-165 1167.5,-165 1167.5,-184"/>
<text text-anchor="middle" x="1144" y="-172" font-family="Helvetica,sans-Serif" font-size="10.00">deque</text>
</a>
</g>
</g>
<!-- Node1&#45;&gt;Node25 -->
<g id="edge36_Node000001_Node000025" class="edge">
<title>Node1&#45;&gt;Node25</title>
<g id="a_edge36_Node000001_Node000025"><a xlink:title=" ">
<path fill="none" stroke="#63b8ff" d="M1020.37,-219.95C1049.8,-209.37 1085.2,-196.64 1110.57,-187.52"/>
<polygon fill="#63b8ff" stroke="#63b8ff" points="1111.88,-190.77 1120.1,-184.09 1109.51,-184.18 1111.88,-190.77"/>
</a>
</g>
</g>
<!-- Node26 -->
<g id="Node000026" class="node">
<title>Node26</title>
<g id="a_Node000026"><a xlink:title=" ">
<polygon fill="#e0e0e0" stroke="#999999" points="1246,-184 1186,-184 1186,-165 1246,-165 1246,-184"/>
<text text-anchor="middle" x="1216" y="-172" font-family="Helvetica,sans-Serif" font-size="10.00">iostream</text>
</a>
</g>
</g>
<!-- Node1&#45;&gt;Node26 -->
<g id="edge37_Node000001_Node000026" class="edge">
<title>Node1&#45;&gt;Node26</title>
<g id="a_edge37_Node000001_Node000026"><a xlink:title=" ">
<path fill="none" stroke="#63b8ff" d="M1039.32,-220.73C1083.96,-209.3 1139.28,-195.14 1176.01,-185.74"/>
<polygon fill="#63b8ff" stroke="#63b8ff" points="1177.03,-189.09 1185.85,-183.22 1175.29,-182.31 1177.03,-189.09"/>
</a>
</g>
</g>
<!-- Node27 -->
<g id="Node000027" class="node">
<title>Node27</title>
<g id="a_Node000027"><a xlink:title=" ">
<polygon fill="#e0e0e0" stroke="#999999" points="1364,-184 1264,-184 1264,-165 1364,-165 1364,-184"/>
<text text-anchor="middle" x="1314" y="-172" font-family="Helvetica,sans-Serif" font-size="10.00">realm/threads.inl</text>
</a>
</g>
</g>
<!-- Node1&#45;&gt;Node27 -->
<g id="edge38_Node000001_Node000027" class="edge">
<title>Node1&#45;&gt;Node27</title>
<g id="a_edge38_Node000001_Node000027"><a xlink:title=" ">
<path fill="none" stroke="#63b8ff" d="M1039.38,-226.01C1104.51,-214.03 1198.29,-196.78 1257.67,-185.86"/>
<polygon fill="#63b8ff" stroke="#63b8ff" points="1258.42,-189.28 1267.62,-184.03 1257.15,-182.4 1258.42,-189.28"/>
</a>
</g>
</g>
<!-- Node3 -->
<g id="Node000003" class="node">
<title>Node3</title>
<g id="a_Node000003"><a xlink:href="realm__defines_8h.html" target="_top" xlink:title=" ">
<polygon fill="white" stroke="#666666" points="569.5,-19 474.5,-19 474.5,0 569.5,0 569.5,-19"/>
<text text-anchor="middle" x="522" y="-7" font-family="Helvetica,sans-Serif" font-size="10.00">realm_defines.h</text>
</a>
</g>
</g>
<!-- Node2&#45;&gt;Node3 -->
<g id="edge2_Node000002_Node000003" class="edge">
<title>Node2&#45;&gt;Node3</title>
<g id="a_edge2_Node000002_Node000003"><a xlink:title=" ">
<path fill="none" stroke="#63b8ff" d="M579.91,-54.98C569.51,-47 553.74,-34.88 541.28,-25.31"/>
<polygon fill="#63b8ff" stroke="#63b8ff" points="543.35,-22.49 533.29,-19.17 539.09,-28.04 543.35,-22.49"/>
</a>
</g>
</g>
<!-- Node4 -->
<g id="Node000004" class="node">
<title>Node4</title>
<g id="a_Node000004"><a xlink:href="compiler__support_8h.html" target="_top" xlink:title=" ">
<polygon fill="white" stroke="#666666" points="730,-19 588,-19 588,0 730,0 730,-19"/>
<text text-anchor="middle" x="659" y="-7" font-family="Helvetica,sans-Serif" font-size="10.00">realm/compiler_support.h</text>
</a>
</g>
</g>
<!-- Node2&#45;&gt;Node4 -->
<g id="edge3_Node000002_Node000004" class="edge">
<title>Node2&#45;&gt;Node4</title>
<g id="a_edge3_Node000002_Node000004"><a xlink:title=" ">
<path fill="none" stroke="#63b8ff" d="M601.93,-54.98C612.08,-47.07 627.42,-35.11 639.65,-25.58"/>
<polygon fill="#63b8ff" stroke="#63b8ff" points="642.14,-28.08 647.88,-19.17 637.84,-22.56 642.14,-28.08"/>
</a>
</g>
</g>
<!-- Node5&#45;&gt;Node2 -->
<g id="edge5_Node000005_Node000002" class="edge">
<title>Node5&#45;&gt;Node2</title>
<g id="a_edge5_Node000005_Node000002"><a xlink:title=" ">
<path fill="none" stroke="#63b8ff" d="M520.16,-164.78C527.37,-155.91 538.72,-141.7 548,-129 559.25,-113.6 571.37,-95.55 579.87,-82.64"/>
<polygon fill="#63b8ff" stroke="#63b8ff" points="582.81,-84.55 585.35,-74.26 576.95,-80.72 582.81,-84.55"/>
</a>
</g>
</g>
<!-- Node5&#45;&gt;Node6 -->
<g id="edge6_Node000005_Node000006" class="edge">
<title>Node5&#45;&gt;Node6</title>
<g id="a_edge6_Node000005_Node000006"><a xlink:title=" ">
<path fill="none" stroke="#63b8ff" d="M475.24,-164.98C434.68,-155.84 370.11,-141.27 325.97,-131.32"/>
<polygon fill="#63b8ff" stroke="#63b8ff" points="326.58,-127.87 316.05,-129.08 325.04,-134.7 326.58,-127.87"/>
</a>
</g>
</g>
<!-- Node5&#45;&gt;Node15 -->
<g id="edge16_Node000005_Node000015" class="edge">
<title>Node5&#45;&gt;Node15</title>
<g id="a_edge16_Node000005_Node000015"><a xlink:title=" ">
<path fill="none" stroke="#63b8ff" d="M546.26,-164.98C581.61,-155.93 637.67,-141.58 676.51,-131.64"/>
<polygon fill="#63b8ff" stroke="#63b8ff" points="677.66,-134.95 686.48,-129.08 675.93,-128.17 677.66,-134.95"/>
</a>
</g>
</g>
<!-- Node18 -->
<g id="Node000018" class="node">
<title>Node18</title>
<g id="a_Node000018"><a xlink:title=" ">
<polygon fill="#e0e0e0" stroke="#999999" points="426.5,-129 373.5,-129 373.5,-110 426.5,-110 426.5,-129"/>
<text text-anchor="middle" x="400" y="-117" font-family="Helvetica,sans-Serif" font-size="10.00">stdint.h</text>
</a>
</g>
</g>
<!-- Node5&#45;&gt;Node18 -->
<g id="edge20_Node000005_Node000018" class="edge">
<title>Node5&#45;&gt;Node18</title>
<g id="a_edge20_Node000005_Node000018"><a xlink:title=" ">
<path fill="none" stroke="#63b8ff" d="M494.84,-164.98C476.75,-156.5 448.72,-143.35 427.81,-133.54"/>
<polygon fill="#63b8ff" stroke="#63b8ff" points="429.03,-130.25 418.49,-129.17 426.05,-136.59 429.03,-130.25"/>
</a>
</g>
</g>
<!-- Node19 -->
<g id="Node000019" class="node">
<title>Node19</title>
<g id="a_Node000019"><a xlink:title=" ">
<polygon fill="#e0e0e0" stroke="#999999" points="539.5,-129 444.5,-129 444.5,-110 539.5,-110 539.5,-129"/>
<text text-anchor="middle" x="492" y="-117" font-family="Helvetica,sans-Serif" font-size="10.00">realm/mutex.inl</text>
</a>
</g>
</g>
<!-- Node5&#45;&gt;Node19 -->
<g id="edge21_Node000005_Node000019" class="edge">
<title>Node5&#45;&gt;Node19</title>
<g id="a_edge21_Node000005_Node000019"><a xlink:title=" ">
<path fill="none" stroke="#63b8ff" d="M509.53,-164.75C506.72,-157.65 502.66,-147.4 499.15,-138.56"/>
<polygon fill="#63b8ff" stroke="#63b8ff" points="502.34,-137.1 495.4,-129.09 495.83,-139.68 502.34,-137.1"/>
</a>
</g>
</g>
<!-- Node6&#45;&gt;Node2 -->
<g id="edge7_Node000006_Node000002" class="edge">
<title>Node6&#45;&gt;Node2</title>
<g id="a_edge7_Node000006_Node000002"><a xlink:title=" ">
<path fill="none" stroke="#63b8ff" d="M317.01,-111.89C370.56,-102.83 467.38,-86.43 530.41,-75.76"/>
<polygon fill="#63b8ff" stroke="#63b8ff" points="531.34,-79.15 540.61,-74.03 530.17,-72.25 531.34,-79.15"/>
</a>
</g>
</g>
<!-- Node6&#45;&gt;Node7 -->
<g id="edge8_Node000006_Node000007" class="edge">
<title>Node6&#45;&gt;Node7</title>
<g id="a_edge8_Node000006_Node000007"><a xlink:title=" ">
<path fill="none" stroke="#63b8ff" d="M299.53,-109.98C321.47,-101.3 355.74,-87.75 380.69,-77.88"/>
<polygon fill="#63b8ff" stroke="#63b8ff" points="382.07,-81.1 390.08,-74.17 379.49,-74.59 382.07,-81.1"/>
</a>
</g>
</g>
<!-- Node8 -->
<g id="Node000008" class="node">
<title>Node8</title>
<g id="a_Node000008"><a xlink:title=" ">
<polygon fill="#e0e0e0" stroke="#999999" points="233.5,-74 176.5,-74 176.5,-55 233.5,-55 233.5,-74"/>
<text text-anchor="middle" x="205" y="-62" font-family="Helvetica,sans-Serif" font-size="10.00">ostream</text>
</a>
</g>
</g>
<!-- Node6&#45;&gt;Node8 -->
<g id="edge9_Node000006_Node000008" class="edge">
<title>Node6&#45;&gt;Node8</title>
<g id="a_edge9_Node000006_Node000008"><a xlink:title=" ">
<path fill="none" stroke="#63b8ff" d="M266.27,-109.98C255.27,-102 238.58,-89.88 225.4,-80.31"/>
<polygon fill="#63b8ff" stroke="#63b8ff" points="227.09,-77.21 216.94,-74.17 222.98,-82.88 227.09,-77.21"/>
</a>
</g>
</g>
<!-- Node9 -->
<g id="Node000009" class="node">
<title>Node9</title>
<g id="a_Node000009"><a xlink:title=" ">
<polygon fill="#e0e0e0" stroke="#999999" points="506.5,-74 459.5,-74 459.5,-55 506.5,-55 506.5,-74"/>
<text text-anchor="middle" x="483" y="-62" font-family="Helvetica,sans-Serif" font-size="10.00">vector</text>
</a>
</g>
</g>
<!-- Node6&#45;&gt;Node9 -->
<g id="edge10_Node000006_Node000009" class="edge">
<title>Node6&#45;&gt;Node9</title>
<g id="a_edge10_Node000006_Node000009"><a xlink:title=" ">
<path fill="none" stroke="#63b8ff" d="M310.94,-109.98C348.9,-100.17 410.98,-84.12 449.28,-74.22"/>
<polygon fill="#63b8ff" stroke="#63b8ff" points="450.6,-77.49 459.41,-71.6 448.85,-70.71 450.6,-77.49"/>
</a>
</g>
</g>
<!-- Node6&#45;&gt;Node10 -->
<g id="edge11_Node000006_Node000010" class="edge">
<title>Node6&#45;&gt;Node10</title>
<g id="a_edge11_Node000006_Node000010"><a xlink:title=" ">
<path fill="none" stroke="#63b8ff" d="M317.37,-114.41C332,-112.94 348.75,-111.32 364,-110 578.9,-91.39 633.49,-96.66 848,-74 858.67,-72.87 870.32,-71.35 880.62,-69.91"/>
<polygon fill="#63b8ff" stroke="#63b8ff" points="881.37,-73.34 890.77,-68.45 880.37,-66.41 881.37,-73.34"/>
</a>
</g>
</g>
<!-- Node11 -->
<g id="Node000011" class="node">
<title>Node11</title>
<g id="a_Node000011"><a xlink:title=" ">
<polygon fill="#e0e0e0" stroke="#999999" points="304,-74 252,-74 252,-55 304,-55 304,-74"/>
<text text-anchor="middle" x="278" y="-62" font-family="Helvetica,sans-Serif" font-size="10.00">cassert</text>
</a>
</g>
</g>
<!-- Node6&#45;&gt;Node11 -->
<g id="edge12_Node000006_Node000011" class="edge">
<title>Node6&#45;&gt;Node11</title>
<g id="a_edge12_Node000006_Node000011"><a xlink:title=" ">
<path fill="none" stroke="#63b8ff" d="M278,-109.75C278,-102.8 278,-92.85 278,-84.13"/>
<polygon fill="#63b8ff" stroke="#63b8ff" points="281.5,-84.09 278,-74.09 274.5,-84.09 281.5,-84.09"/>
</a>
</g>
</g>
<!-- Node12 -->
<g id="Node000012" class="node">
<title>Node12</title>
<g id="a_Node000012"><a xlink:title=" ">
<polygon fill="#e0e0e0" stroke="#999999" points="372,-74 322,-74 322,-55 372,-55 372,-74"/>
<text text-anchor="middle" x="347" y="-62" font-family="Helvetica,sans-Serif" font-size="10.00">cstdint</text>
</a>
</g>
</g>
<!-- Node6&#45;&gt;Node12 -->
<g id="edge13_Node000006_Node000012" class="edge">
<title>Node6&#45;&gt;Node12</title>
<g id="a_edge13_Node000006_Node000012"><a xlink:title=" ">
<path fill="none" stroke="#63b8ff" d="M289.09,-109.98C299.49,-102 315.26,-89.88 327.72,-80.31"/>
<polygon fill="#63b8ff" stroke="#63b8ff" points="329.91,-83.04 335.71,-74.17 325.65,-77.49 329.91,-83.04"/>
</a>
</g>
</g>
<!-- Node13 -->
<g id="Node000013" class="node">
<title>Node13</title>
<g id="a_Node000013"><a xlink:title=" ">
<polygon fill="#e0e0e0" stroke="#999999" points="56,-74 0,-74 0,-55 56,-55 56,-74"/>
<text text-anchor="middle" x="28" y="-62" font-family="Helvetica,sans-Serif" font-size="10.00">sstream</text>
</a>
</g>
</g>
<!-- Node6&#45;&gt;Node13 -->
<g id="edge14_Node000006_Node000013" class="edge">
<title>Node6&#45;&gt;Node13</title>
<g id="a_edge14_Node000006_Node000013"><a xlink:title=" ">
<path fill="none" stroke="#63b8ff" d="M238.69,-110.53C198,-102.23 132.33,-88.68 66.42,-74.28"/>
<polygon fill="#63b8ff" stroke="#63b8ff" points="66.79,-70.78 56.27,-72.05 65.29,-77.61 66.79,-70.78"/>
</a>
</g>
</g>
<!-- Node14 -->
<g id="Node000014" class="node">
<title>Node14</title>
<g id="a_Node000014"><a xlink:title=" ">
<polygon fill="#e0e0e0" stroke="#999999" points="158,-74 74,-74 74,-55 158,-55 158,-74"/>
<text text-anchor="middle" x="116" y="-62" font-family="Helvetica,sans-Serif" font-size="10.00">realm/utils.inl</text>
</a>
</g>
</g>
<!-- Node6&#45;&gt;Node14 -->
<g id="edge15_Node000006_Node000014" class="edge">
<title>Node6&#45;&gt;Node14</title>
<g id="a_edge15_Node000006_Node000014"><a xlink:title=" ">
<path fill="none" stroke="#63b8ff" d="M251.97,-109.98C224.89,-101.13 182.29,-87.19 151.99,-77.28"/>
<polygon fill="#63b8ff" stroke="#63b8ff" points="152.82,-73.87 142.23,-74.08 150.65,-80.52 152.82,-73.87"/>
</a>
</g>
</g>
<!-- Node15&#45;&gt;Node2 -->
<g id="edge17_Node000015_Node000002" class="edge">
<title>Node15&#45;&gt;Node2</title>
<g id="a_edge17_Node000015_Node000002"><a xlink:title=" ">
<path fill="none" stroke="#63b8ff" d="M699.27,-109.98C678.24,-101.34 645.45,-87.87 621.46,-78.02"/>
<polygon fill="#63b8ff" stroke="#63b8ff" points="622.68,-74.73 612.1,-74.17 620.02,-81.21 622.68,-74.73"/>
</a>
</g>
</g>
<!-- Node16 -->
<g id="Node000016" class="node">
<title>Node16</title>
<g id="a_Node000016"><a xlink:title=" ">
<polygon fill="#e0e0e0" stroke="#999999" points="839,-74 789,-74 789,-55 839,-55 839,-74"/>
<text text-anchor="middle" x="814" y="-62" font-family="Helvetica,sans-Serif" font-size="10.00">atomic</text>
</a>
</g>
</g>
<!-- Node15&#45;&gt;Node16 -->
<g id="edge18_Node000015_Node000016" class="edge">
<title>Node15&#45;&gt;Node16</title>
<g id="a_edge18_Node000015_Node000016"><a xlink:title=" ">
<path fill="none" stroke="#63b8ff" d="M735.1,-109.98C749.82,-101.69 772.42,-88.94 789.67,-79.22"/>
<polygon fill="#63b8ff" stroke="#63b8ff" points="791.63,-82.13 798.62,-74.17 788.19,-76.03 791.63,-82.13"/>
</a>
</g>
</g>
<!-- Node17 -->
<g id="Node000017" class="node">
<title>Node17</title>
<g id="a_Node000017"><a xlink:title=" ">
<polygon fill="#e0e0e0" stroke="#999999" points="771,-74 669,-74 669,-55 771,-55 771,-74"/>
<text text-anchor="middle" x="720" y="-62" font-family="Helvetica,sans-Serif" font-size="10.00">realm/atomics.inl</text>
</a>
</g>
</g>
<!-- Node15&#45;&gt;Node17 -->
<g id="edge19_Node000015_Node000017" class="edge">
<title>Node15&#45;&gt;Node17</title>
<g id="a_edge19_Node000015_Node000017"><a xlink:title=" ">
<path fill="none" stroke="#63b8ff" d="M720,-109.75C720,-102.8 720,-92.85 720,-84.13"/>
<polygon fill="#63b8ff" stroke="#63b8ff" points="723.5,-84.09 720,-74.09 716.5,-84.09 723.5,-84.09"/>
</a>
</g>
</g>
<!-- Node20&#45;&gt;Node2 -->
<g id="edge25_Node000020_Node000002" class="edge">
<title>Node20&#45;&gt;Node2</title>
<g id="a_edge25_Node000020_Node000002"><a xlink:title=" ">
<path fill="none" stroke="#63b8ff" d="M854.64,-164.68C839.51,-150.92 808.24,-124.43 777,-110 740.49,-93.14 696.9,-82.27 661.09,-75.5"/>
<polygon fill="#63b8ff" stroke="#63b8ff" points="661.68,-72.05 651.21,-73.7 660.42,-78.94 661.68,-72.05"/>
</a>
</g>
</g>
<!-- Node20&#45;&gt;Node9 -->
<g id="edge30_Node000020_Node000009" class="edge">
<title>Node20&#45;&gt;Node9</title>
<g id="a_edge30_Node000020_Node000009"><a xlink:title=" ">
<path fill="none" stroke="#63b8ff" d="M818.1,-164.99C777.1,-156.99 715.58,-144.03 663,-129 609.85,-113.8 549.54,-91.45 513.96,-77.72"/>
<polygon fill="#63b8ff" stroke="#63b8ff" points="515.2,-74.44 504.61,-74.09 512.67,-80.97 515.2,-74.44"/>
</a>
</g>
</g>
<!-- Node20&#45;&gt;Node10 -->
<g id="edge29_Node000020_Node000010" class="edge">
<title>Node20&#45;&gt;Node10</title>
<g id="a_edge29_Node000020_Node000010"><a xlink:title=" ">
<path fill="none" stroke="#63b8ff" d="M870.07,-164.99C876.05,-156.29 885.13,-142.21 891,-129 897.43,-114.52 902.44,-97.25 905.7,-84.38"/>
<polygon fill="#63b8ff" stroke="#63b8ff" points="909.17,-84.92 908.1,-74.38 902.36,-83.29 909.17,-84.92"/>
</a>
</g>
</g>
<!-- Node20&#45;&gt;Node21 -->
<g id="edge26_Node000020_Node000021" class="edge">
<title>Node20&#45;&gt;Node21</title>
<g id="a_edge26_Node000020_Node000021"><a xlink:title=" ">
<path fill="none" stroke="#63b8ff" d="M880.39,-164.98C896.57,-156.57 921.57,-143.59 940.38,-133.81"/>
<polygon fill="#63b8ff" stroke="#63b8ff" points="942.05,-136.89 949.31,-129.17 938.83,-130.68 942.05,-136.89"/>
</a>
</g>
</g>
<!-- Node22 -->
<g id="Node000022" class="node">
<title>Node22</title>
<g id="a_Node000022"><a xlink:title=" ">
<polygon fill="#e0e0e0" stroke="#999999" points="882,-129 824,-129 824,-110 882,-110 882,-129"/>
<text text-anchor="middle" x="853" y="-117" font-family="Helvetica,sans-Serif" font-size="10.00">memory</text>
</a>
</g>
</g>
<!-- Node20&#45;&gt;Node22 -->
<g id="edge27_Node000020_Node000022" class="edge">
<title>Node20&#45;&gt;Node22</title>
<g id="a_edge27_Node000020_Node000022"><a xlink:title=" ">
<path fill="none" stroke="#63b8ff" d="M862.18,-164.75C860.74,-157.8 858.68,-147.85 856.87,-139.13"/>
<polygon fill="#63b8ff" stroke="#63b8ff" points="860.24,-138.17 854.78,-129.09 853.39,-139.59 860.24,-138.17"/>
</a>
</g>
</g>
<!-- Node20&#45;&gt;Node23 -->
<g id="edge28_Node000020_Node000023" class="edge">
<title>Node20&#45;&gt;Node23</title>
<g id="a_edge28_Node000020_Node000023"><a xlink:title=" ">
<path fill="none" stroke="#63b8ff" d="M891.21,-164.95C917.35,-156.7 958.19,-143.72 1002.15,-129.24"/>
<polygon fill="#63b8ff" stroke="#63b8ff" points="1003.48,-132.49 1011.88,-126.03 1001.28,-125.84 1003.48,-132.49"/>
</a>
</g>
</g>
</g>
</svg>
