<?xml version="1.0" encoding="UTF-8" standalone="no"?>
<!DOCTYPE svg PUBLIC "-//W3C//DTD SVG 1.1//EN"
 "http://www.w3.org/Graphics/SVG/1.1/DTD/svg11.dtd">
<!-- Generated by graphviz version 2.43.0 (0)
 -->
<!-- Title: /home/runner/work/realm/realm/realm&#45;src/src/realm/transfer/transfer_utils.h Pages: 1 -->
<svg width="1147pt" height="390pt"
 viewBox="0.00 0.00 1147.00 390.00" xmlns="http://www.w3.org/2000/svg" xmlns:xlink="http://www.w3.org/1999/xlink">
<g id="graph0" class="graph" transform="scale(1 1) rotate(0) translate(4 386)">
<title>/home/runner/work/realm/realm/realm&#45;src/src/realm/transfer/transfer_utils.h</title>
<!-- Node1 -->
<g id="Node000001" class="node">
<title>Node1</title>
<g id="a_Node000001"><a xlink:title=" ">
<polygon fill="#999999" stroke="#666666" points="981,-382 835,-382 835,-341 981,-341 981,-382"/>
<text text-anchor="start" x="843" y="-370" font-family="Helvetica,sans-Serif" font-size="10.00">/home/runner/work/realm</text>
<text text-anchor="start" x="843" y="-359" font-family="Helvetica,sans-Serif" font-size="10.00">/realm/realm&#45;src/src/realm</text>
<text text-anchor="middle" x="908" y="-348" font-family="Helvetica,sans-Serif" font-size="10.00">/transfer/transfer_utils.h</text>
</a>
</g>
</g>
<!-- Node2 -->
<g id="Node000002" class="node">
<title>Node2</title>
<g id="a_Node000002"><a xlink:href="point_8h.html" target="_top" xlink:title=" ">
<polygon fill="white" stroke="#666666" points="888,-299.5 806,-299.5 806,-280.5 888,-280.5 888,-299.5"/>
<text text-anchor="middle" x="847" y="-287.5" font-family="Helvetica,sans-Serif" font-size="10.00">realm/point.h</text>
</a>
</g>
</g>
<!-- Node1&#45;&gt;Node2 -->
<g id="edge1_Node000001_Node000002" class="edge">
<title>Node1&#45;&gt;Node2</title>
<g id="a_edge1_Node000001_Node000002"><a xlink:title=" ">
<path fill="none" stroke="#63b8ff" d="M890.68,-340.77C881.44,-330.24 870.19,-317.42 861.42,-307.43"/>
<polygon fill="#63b8ff" stroke="#63b8ff" points="863.97,-305.03 854.74,-299.82 858.71,-309.64 863.97,-305.03"/>
</a>
</g>
</g>
<!-- Node26 -->
<g id="Node000026" class="node">
<title>Node26</title>
<g id="a_Node000026"><a xlink:title=" ">
<polygon fill="#e0e0e0" stroke="#999999" points="1034,-305 906,-305 906,-275 1034,-275 1034,-305"/>
<text text-anchor="start" x="914" y="-293" font-family="Helvetica,sans-Serif" font-size="10.00">realm/transfer/transfer</text>
<text text-anchor="middle" x="970" y="-282" font-family="Helvetica,sans-Serif" font-size="10.00">_utils.inl</text>
</a>
</g>
</g>
<!-- Node1&#45;&gt;Node26 -->
<g id="edge33_Node000001_Node000026" class="edge">
<title>Node1&#45;&gt;Node26</title>
<g id="a_edge33_Node000001_Node000026"><a xlink:title=" ">
<path fill="none" stroke="#63b8ff" d="M925.6,-340.77C933.46,-331.95 942.75,-321.54 950.8,-312.53"/>
<polygon fill="#63b8ff" stroke="#63b8ff" points="953.43,-314.83 957.48,-305.04 948.21,-310.17 953.43,-314.83"/>
</a>
</g>
</g>
<!-- Node3 -->
<g id="Node000003" class="node">
<title>Node3</title>
<g id="a_Node000003"><a xlink:href="realm__config_8h.html" target="_top" xlink:title=" ">
<polygon fill="white" stroke="#666666" points="643,-74 523,-74 523,-55 643,-55 643,-74"/>
<text text-anchor="middle" x="583" y="-62" font-family="Helvetica,sans-Serif" font-size="10.00">realm/realm_config.h</text>
</a>
</g>
</g>
<!-- Node2&#45;&gt;Node3 -->
<g id="edge2_Node000002_Node000003" class="edge">
<title>Node2&#45;&gt;Node3</title>
<g id="a_edge2_Node000002_Node000003"><a xlink:title=" ">
<path fill="none" stroke="#63b8ff" d="M855.75,-280.46C883.19,-252.68 962.94,-163.63 916,-110 898.97,-90.54 745.71,-76.69 653.16,-70.01"/>
<polygon fill="#63b8ff" stroke="#63b8ff" points="653.24,-66.51 643.01,-69.29 652.74,-73.49 653.24,-66.51"/>
</a>
</g>
</g>
<!-- Node6 -->
<g id="Node000006" class="node">
<title>Node6</title>
<g id="a_Node000006"><a xlink:href="event_8h.html" target="_top" xlink:title=" ">
<polygon fill="white" stroke="#666666" points="341.5,-239 256.5,-239 256.5,-220 341.5,-220 341.5,-239"/>
<text text-anchor="middle" x="299" y="-227" font-family="Helvetica,sans-Serif" font-size="10.00">realm/event.h</text>
</a>
</g>
</g>
<!-- Node2&#45;&gt;Node6 -->
<g id="edge5_Node000002_Node000006" class="edge">
<title>Node2&#45;&gt;Node6</title>
<g id="a_edge5_Node000002_Node000006"><a xlink:title=" ">
<path fill="none" stroke="#63b8ff" d="M805.81,-284.6C707.79,-274.14 460.74,-247.77 351.89,-236.15"/>
<polygon fill="#63b8ff" stroke="#63b8ff" points="352.11,-232.65 341.8,-235.07 351.37,-239.61 352.11,-232.65"/>
</a>
</g>
</g>
<!-- Node10 -->
<g id="Node000010" class="node">
<title>Node10</title>
<g id="a_Node000010"><a xlink:href="utils_8h.html" target="_top" xlink:title=" ">
<polygon fill="white" stroke="#666666" points="622,-184 544,-184 544,-165 622,-165 622,-184"/>
<text text-anchor="middle" x="583" y="-172" font-family="Helvetica,sans-Serif" font-size="10.00">realm/utils.h</text>
</a>
</g>
</g>
<!-- Node2&#45;&gt;Node10 -->
<g id="edge29_Node000002_Node000010" class="edge">
<title>Node2&#45;&gt;Node10</title>
<g id="a_edge29_Node000002_Node000010"><a xlink:title=" ">
<path fill="none" stroke="#63b8ff" d="M827.16,-280.47C781.1,-260.67 666.74,-211.5 612.48,-188.17"/>
<polygon fill="#63b8ff" stroke="#63b8ff" points="613.64,-184.86 603.07,-184.13 610.88,-191.3 613.64,-184.86"/>
</a>
</g>
</g>
<!-- Node20 -->
<g id="Node000020" class="node">
<title>Node20</title>
<g id="a_Node000020"><a xlink:title=" ">
<polygon fill="#e0e0e0" stroke="#999999" points="60,-129 0,-129 0,-110 60,-110 60,-129"/>
<text text-anchor="middle" x="30" y="-117" font-family="Helvetica,sans-Serif" font-size="10.00">iostream</text>
</a>
</g>
</g>
<!-- Node2&#45;&gt;Node20 -->
<g id="edge30_Node000002_Node000020" class="edge">
<title>Node2&#45;&gt;Node20</title>
<g id="a_edge30_Node000002_Node000020"><a xlink:title=" ">
<path fill="none" stroke="#63b8ff" d="M805.95,-288.02C708.37,-285.17 455.11,-274.65 247,-239 151.9,-222.71 100.05,-257.03 37,-184 26.48,-171.81 25.64,-153.02 26.88,-139.04"/>
<polygon fill="#63b8ff" stroke="#63b8ff" points="30.36,-139.45 28.18,-129.08 23.42,-138.54 30.36,-139.45"/>
</a>
</g>
</g>
<!-- Node24 -->
<g id="Node000024" class="node">
<title>Node24</title>
<g id="a_Node000024"><a xlink:title=" ">
<polygon fill="#e0e0e0" stroke="#999999" points="1032.5,-239 963.5,-239 963.5,-220 1032.5,-220 1032.5,-239"/>
<text text-anchor="middle" x="998" y="-227" font-family="Helvetica,sans-Serif" font-size="10.00">type_traits</text>
</a>
</g>
</g>
<!-- Node2&#45;&gt;Node24 -->
<g id="edge31_Node000002_Node000024" class="edge">
<title>Node2&#45;&gt;Node24</title>
<g id="a_edge31_Node000002_Node000024"><a xlink:title=" ">
<path fill="none" stroke="#63b8ff" d="M868.96,-280.49C894.68,-270.53 937.48,-253.95 966.68,-242.63"/>
<polygon fill="#63b8ff" stroke="#63b8ff" points="967.96,-245.89 976.02,-239.02 965.43,-239.37 967.96,-245.89"/>
</a>
</g>
</g>
<!-- Node25 -->
<g id="Node000025" class="node">
<title>Node25</title>
<g id="a_Node000025"><a xlink:title=" ">
<polygon fill="#e0e0e0" stroke="#999999" points="1139,-239 1051,-239 1051,-220 1139,-220 1139,-239"/>
<text text-anchor="middle" x="1095" y="-227" font-family="Helvetica,sans-Serif" font-size="10.00">realm/point.inl</text>
</a>
</g>
</g>
<!-- Node2&#45;&gt;Node25 -->
<g id="edge32_Node000002_Node000025" class="edge">
<title>Node2&#45;&gt;Node25</title>
<g id="a_edge32_Node000002_Node000025"><a xlink:title=" ">
<path fill="none" stroke="#63b8ff" d="M876.54,-280.45C883.25,-278.59 890.36,-276.68 897,-275 946.92,-262.41 1004.36,-249.7 1044.47,-241.1"/>
<polygon fill="#63b8ff" stroke="#63b8ff" points="1045.23,-244.52 1054.28,-239.01 1043.77,-237.67 1045.23,-244.52"/>
</a>
</g>
</g>
<!-- Node4 -->
<g id="Node000004" class="node">
<title>Node4</title>
<g id="a_Node000004"><a xlink:href="realm__defines_8h.html" target="_top" xlink:title=" ">
<polygon fill="white" stroke="#666666" points="561.5,-19 466.5,-19 466.5,0 561.5,0 561.5,-19"/>
<text text-anchor="middle" x="514" y="-7" font-family="Helvetica,sans-Serif" font-size="10.00">realm_defines.h</text>
</a>
</g>
</g>
<!-- Node3&#45;&gt;Node4 -->
<g id="edge3_Node000003_Node000004" class="edge">
<title>Node3&#45;&gt;Node4</title>
<g id="a_edge3_Node000003_Node000004"><a xlink:title=" ">
<path fill="none" stroke="#63b8ff" d="M571.91,-54.98C561.51,-47 545.74,-34.88 533.28,-25.31"/>
<polygon fill="#63b8ff" stroke="#63b8ff" points="535.35,-22.49 525.29,-19.17 531.09,-28.04 535.35,-22.49"/>
</a>
</g>
</g>
<!-- Node5 -->
<g id="Node000005" class="node">
<title>Node5</title>
<g id="a_Node000005"><a xlink:href="compiler__support_8h.html" target="_top" xlink:title=" ">
<polygon fill="white" stroke="#666666" points="722,-19 580,-19 580,0 722,0 722,-19"/>
<text text-anchor="middle" x="651" y="-7" font-family="Helvetica,sans-Serif" font-size="10.00">realm/compiler_support.h</text>
</a>
</g>
</g>
<!-- Node3&#45;&gt;Node5 -->
<g id="edge4_Node000003_Node000005" class="edge">
<title>Node3&#45;&gt;Node5</title>
<g id="a_edge4_Node000003_Node000005"><a xlink:title=" ">
<path fill="none" stroke="#63b8ff" d="M593.93,-54.98C604.08,-47.07 619.42,-35.11 631.65,-25.58"/>
<polygon fill="#63b8ff" stroke="#63b8ff" points="634.14,-28.08 639.88,-19.17 629.84,-22.56 634.14,-28.08"/>
</a>
</g>
</g>
<!-- Node7 -->
<g id="Node000007" class="node">
<title>Node7</title>
<g id="a_Node000007"><a xlink:href="realm__c_8h.html" target="_top" xlink:title=" ">
<polygon fill="white" stroke="#666666" points="174,-129 78,-129 78,-110 174,-110 174,-129"/>
<text text-anchor="middle" x="126" y="-117" font-family="Helvetica,sans-Serif" font-size="10.00">realm/realm_c.h</text>
</a>
</g>
</g>
<!-- Node6&#45;&gt;Node7 -->
<g id="edge6_Node000006_Node000007" class="edge">
<title>Node6&#45;&gt;Node7</title>
<g id="a_edge6_Node000006_Node000007"><a xlink:title=" ">
<path fill="none" stroke="#63b8ff" d="M275.77,-219.88C255.55,-211.9 225.81,-199.03 202,-184 179.67,-169.91 156.79,-149.87 142.04,-136.1"/>
<polygon fill="#63b8ff" stroke="#63b8ff" points="144.41,-133.51 134.75,-129.16 139.59,-138.59 144.41,-133.51"/>
</a>
</g>
</g>
<!-- Node6&#45;&gt;Node10 -->
<g id="edge10_Node000006_Node000010" class="edge">
<title>Node6&#45;&gt;Node10</title>
<g id="a_edge10_Node000006_Node000010"><a xlink:title=" ">
<path fill="none" stroke="#63b8ff" d="M341.52,-220.57C392.98,-210.96 479.47,-194.82 533.77,-184.69"/>
<polygon fill="#63b8ff" stroke="#63b8ff" points="534.67,-188.08 543.85,-182.81 533.38,-181.2 534.67,-188.08"/>
</a>
</g>
</g>
<!-- Node13 -->
<g id="Node000013" class="node">
<title>Node13</title>
<g id="a_Node000013"><a xlink:title=" ">
<polygon fill="#e0e0e0" stroke="#999999" points="360.5,-129 313.5,-129 313.5,-110 360.5,-110 360.5,-129"/>
<text text-anchor="middle" x="337" y="-117" font-family="Helvetica,sans-Serif" font-size="10.00">vector</text>
</a>
</g>
</g>
<!-- Node6&#45;&gt;Node13 -->
<g id="edge25_Node000006_Node000013" class="edge">
<title>Node6&#45;&gt;Node13</title>
<g id="a_edge25_Node000006_Node000013"><a xlink:title=" ">
<path fill="none" stroke="#63b8ff" d="M302.79,-219.71C306.59,-210.79 312.49,-196.55 317,-184 322.38,-169.02 327.76,-151.79 331.58,-139.06"/>
<polygon fill="#63b8ff" stroke="#63b8ff" points="335.01,-139.78 334.5,-129.2 328.3,-137.79 335.01,-139.78"/>
</a>
</g>
</g>
<!-- Node19 -->
<g id="Node000019" class="node">
<title>Node19</title>
<g id="a_Node000019"><a xlink:href="memory_8h.html" target="_top" xlink:title=" ">
<polygon fill="white" stroke="#666666" points="308.5,-184 211.5,-184 211.5,-165 308.5,-165 308.5,-184"/>
<text text-anchor="middle" x="260" y="-172" font-family="Helvetica,sans-Serif" font-size="10.00">realm/memory.h</text>
</a>
</g>
</g>
<!-- Node6&#45;&gt;Node19 -->
<g id="edge20_Node000006_Node000019" class="edge">
<title>Node6&#45;&gt;Node19</title>
<g id="a_edge20_Node000006_Node000019"><a xlink:title=" ">
<path fill="none" stroke="#63b8ff" d="M292.56,-219.75C287.11,-212.34 279.14,-201.5 272.44,-192.41"/>
<polygon fill="#63b8ff" stroke="#63b8ff" points="275.07,-190.07 266.32,-184.09 269.43,-194.22 275.07,-190.07"/>
</a>
</g>
</g>
<!-- Node6&#45;&gt;Node20 -->
<g id="edge27_Node000006_Node000020" class="edge">
<title>Node6&#45;&gt;Node20</title>
<g id="a_edge27_Node000006_Node000020"><a xlink:title=" ">
<path fill="none" stroke="#63b8ff" d="M256.49,-225.77C194.7,-220.98 84.14,-209.11 54,-184 40.85,-173.05 34.9,-154.09 32.21,-139.74"/>
<polygon fill="#63b8ff" stroke="#63b8ff" points="35.61,-138.82 30.67,-129.45 28.69,-139.86 35.61,-138.82"/>
</a>
</g>
</g>
<!-- Node22 -->
<g id="Node000022" class="node">
<title>Node22</title>
<g id="a_Node000022"><a xlink:title=" ">
<polygon fill="#e0e0e0" stroke="#999999" points="397,-184 365,-184 365,-165 397,-165 397,-184"/>
<text text-anchor="middle" x="381" y="-172" font-family="Helvetica,sans-Serif" font-size="10.00">set</text>
</a>
</g>
</g>
<!-- Node6&#45;&gt;Node22 -->
<g id="edge26_Node000006_Node000022" class="edge">
<title>Node6&#45;&gt;Node22</title>
<g id="a_edge26_Node000006_Node000022"><a xlink:title=" ">
<path fill="none" stroke="#63b8ff" d="M312.17,-219.98C324.77,-211.84 344,-199.41 358.94,-189.76"/>
<polygon fill="#63b8ff" stroke="#63b8ff" points="361.09,-192.54 367.59,-184.17 357.29,-186.66 361.09,-192.54"/>
</a>
</g>
</g>
<!-- Node23 -->
<g id="Node000023" class="node">
<title>Node23</title>
<g id="a_Node000023"><a xlink:title=" ">
<polygon fill="#e0e0e0" stroke="#999999" points="154.5,-184 63.5,-184 63.5,-165 154.5,-165 154.5,-184"/>
<text text-anchor="middle" x="109" y="-172" font-family="Helvetica,sans-Serif" font-size="10.00">realm/event.inl</text>
</a>
</g>
</g>
<!-- Node6&#45;&gt;Node23 -->
<g id="edge28_Node000006_Node000023" class="edge">
<title>Node6&#45;&gt;Node23</title>
<g id="a_edge28_Node000006_Node000023"><a xlink:title=" ">
<path fill="none" stroke="#63b8ff" d="M268.47,-219.98C236.3,-211.01 185.44,-196.82 149.83,-186.89"/>
<polygon fill="#63b8ff" stroke="#63b8ff" points="150.34,-183.4 139.77,-184.08 148.46,-190.14 150.34,-183.4"/>
</a>
</g>
</g>
<!-- Node7&#45;&gt;Node3 -->
<g id="edge7_Node000007_Node000003" class="edge">
<title>Node7&#45;&gt;Node3</title>
<g id="a_edge7_Node000007_Node000003"><a xlink:title=" ">
<path fill="none" stroke="#63b8ff" d="M174.04,-112.93C254.97,-103.54 418.81,-84.54 512.69,-73.65"/>
<polygon fill="#63b8ff" stroke="#63b8ff" points="513.13,-77.13 522.66,-72.5 512.33,-70.17 513.13,-77.13"/>
</a>
</g>
</g>
<!-- Node8 -->
<g id="Node000008" class="node">
<title>Node8</title>
<g id="a_Node000008"><a xlink:title=" ">
<polygon fill="#e0e0e0" stroke="#999999" points="229,-74 173,-74 173,-55 229,-55 229,-74"/>
<text text-anchor="middle" x="201" y="-62" font-family="Helvetica,sans-Serif" font-size="10.00">stddef.h</text>
</a>
</g>
</g>
<!-- Node7&#45;&gt;Node8 -->
<g id="edge8_Node000007_Node000008" class="edge">
<title>Node7&#45;&gt;Node8</title>
<g id="a_edge8_Node000007_Node000008"><a xlink:title=" ">
<path fill="none" stroke="#63b8ff" d="M138.05,-109.98C149.46,-101.92 166.83,-89.65 180.43,-80.03"/>
<polygon fill="#63b8ff" stroke="#63b8ff" points="182.58,-82.8 188.73,-74.17 178.54,-77.08 182.58,-82.8"/>
</a>
</g>
</g>
<!-- Node9 -->
<g id="Node000009" class="node">
<title>Node9</title>
<g id="a_Node000009"><a xlink:title=" ">
<polygon fill="#e0e0e0" stroke="#999999" points="152.5,-74 99.5,-74 99.5,-55 152.5,-55 152.5,-74"/>
<text text-anchor="middle" x="126" y="-62" font-family="Helvetica,sans-Serif" font-size="10.00">stdint.h</text>
</a>
</g>
</g>
<!-- Node7&#45;&gt;Node9 -->
<g id="edge9_Node000007_Node000009" class="edge">
<title>Node7&#45;&gt;Node9</title>
<g id="a_edge9_Node000007_Node000009"><a xlink:title=" ">
<path fill="none" stroke="#63b8ff" d="M126,-109.75C126,-102.8 126,-92.85 126,-84.13"/>
<polygon fill="#63b8ff" stroke="#63b8ff" points="129.5,-84.09 126,-74.09 122.5,-84.09 129.5,-84.09"/>
</a>
</g>
</g>
<!-- Node10&#45;&gt;Node3 -->
<g id="edge11_Node000010_Node000003" class="edge">
<title>Node10&#45;&gt;Node3</title>
<g id="a_edge11_Node000010_Node000003"><a xlink:title=" ">
<path fill="none" stroke="#63b8ff" d="M583,-164.66C583,-147.17 583,-107.8 583,-84.27"/>
<polygon fill="#63b8ff" stroke="#63b8ff" points="586.5,-84.16 583,-74.16 579.5,-84.16 586.5,-84.16"/>
</a>
</g>
</g>
<!-- Node11 -->
<g id="Node000011" class="node">
<title>Node11</title>
<g id="a_Node000011"><a xlink:title=" ">
<polygon fill="#e0e0e0" stroke="#999999" points="831,-129 787,-129 787,-110 831,-110 831,-129"/>
<text text-anchor="middle" x="809" y="-117" font-family="Helvetica,sans-Serif" font-size="10.00">string</text>
</a>
</g>
</g>
<!-- Node10&#45;&gt;Node11 -->
<g id="edge12_Node000010_Node000011" class="edge">
<title>Node10&#45;&gt;Node11</title>
<g id="a_edge12_Node000010_Node000011"><a xlink:title=" ">
<path fill="none" stroke="#63b8ff" d="M622.34,-165.05C659.72,-156.9 717.76,-143.94 776.81,-129.22"/>
<polygon fill="#63b8ff" stroke="#63b8ff" points="777.83,-132.57 786.68,-126.74 776.13,-125.78 777.83,-132.57"/>
</a>
</g>
</g>
<!-- Node12 -->
<g id="Node000012" class="node">
<title>Node12</title>
<g id="a_Node000012"><a xlink:title=" ">
<polygon fill="#e0e0e0" stroke="#999999" points="906.5,-129 849.5,-129 849.5,-110 906.5,-110 906.5,-129"/>
<text text-anchor="middle" x="878" y="-117" font-family="Helvetica,sans-Serif" font-size="10.00">ostream</text>
</a>
</g>
</g>
<!-- Node10&#45;&gt;Node12 -->
<g id="edge13_Node000010_Node000012" class="edge">
<title>Node10&#45;&gt;Node12</title>
<g id="a_edge13_Node000010_Node000012"><a xlink:title=" ">
<path fill="none" stroke="#63b8ff" d="M622.3,-167.31C670.88,-159.51 756.33,-145.37 839.53,-129.01"/>
<polygon fill="#63b8ff" stroke="#63b8ff" points="840.27,-132.43 849.4,-127.05 838.91,-125.56 840.27,-132.43"/>
</a>
</g>
</g>
<!-- Node10&#45;&gt;Node13 -->
<g id="edge14_Node000010_Node000013" class="edge">
<title>Node10&#45;&gt;Node13</title>
<g id="a_edge14_Node000010_Node000013"><a xlink:title=" ">
<path fill="none" stroke="#63b8ff" d="M543.62,-165.84C502.79,-157.77 436.88,-144.39 370.55,-129.04"/>
<polygon fill="#63b8ff" stroke="#63b8ff" points="371.29,-125.62 360.76,-126.76 369.71,-132.44 371.29,-125.62"/>
</a>
</g>
</g>
<!-- Node14 -->
<g id="Node000014" class="node">
<title>Node14</title>
<g id="a_Node000014"><a xlink:title=" ">
<polygon fill="#e0e0e0" stroke="#999999" points="417,-129 379,-129 379,-110 417,-110 417,-129"/>
<text text-anchor="middle" x="398" y="-117" font-family="Helvetica,sans-Serif" font-size="10.00">map</text>
</a>
</g>
</g>
<!-- Node10&#45;&gt;Node14 -->
<g id="edge15_Node000010_Node000014" class="edge">
<title>Node10&#45;&gt;Node14</title>
<g id="a_edge15_Node000010_Node000014"><a xlink:title=" ">
<path fill="none" stroke="#63b8ff" d="M552.27,-164.97C522.56,-156.69 476.04,-143.61 427.09,-129.28"/>
<polygon fill="#63b8ff" stroke="#63b8ff" points="427.85,-125.86 417.27,-126.4 425.88,-132.57 427.85,-125.86"/>
</a>
</g>
</g>
<!-- Node15 -->
<g id="Node000015" class="node">
<title>Node15</title>
<g id="a_Node000015"><a xlink:title=" ">
<polygon fill="#e0e0e0" stroke="#999999" points="487,-129 435,-129 435,-110 487,-110 487,-129"/>
<text text-anchor="middle" x="461" y="-117" font-family="Helvetica,sans-Serif" font-size="10.00">cassert</text>
</a>
</g>
</g>
<!-- Node10&#45;&gt;Node15 -->
<g id="edge16_Node000010_Node000015" class="edge">
<title>Node10&#45;&gt;Node15</title>
<g id="a_edge16_Node000010_Node000015"><a xlink:title=" ">
<path fill="none" stroke="#63b8ff" d="M563.4,-164.98C543.68,-156.42 513.05,-143.11 490.42,-133.28"/>
<polygon fill="#63b8ff" stroke="#63b8ff" points="491.52,-129.94 480.96,-129.17 488.74,-136.37 491.52,-129.94"/>
</a>
</g>
</g>
<!-- Node16 -->
<g id="Node000016" class="node">
<title>Node16</title>
<g id="a_Node000016"><a xlink:title=" ">
<polygon fill="#e0e0e0" stroke="#999999" points="555,-129 505,-129 505,-110 555,-110 555,-129"/>
<text text-anchor="middle" x="530" y="-117" font-family="Helvetica,sans-Serif" font-size="10.00">cstdint</text>
</a>
</g>
</g>
<!-- Node10&#45;&gt;Node16 -->
<g id="edge17_Node000010_Node000016" class="edge">
<title>Node10&#45;&gt;Node16</title>
<g id="a_edge17_Node000010_Node000016"><a xlink:title=" ">
<path fill="none" stroke="#63b8ff" d="M574.25,-164.75C566.53,-157.03 555.1,-145.6 545.78,-136.28"/>
<polygon fill="#63b8ff" stroke="#63b8ff" points="548.14,-133.69 538.59,-129.09 543.19,-138.64 548.14,-133.69"/>
</a>
</g>
</g>
<!-- Node17 -->
<g id="Node000017" class="node">
<title>Node17</title>
<g id="a_Node000017"><a xlink:title=" ">
<polygon fill="#e0e0e0" stroke="#999999" points="667,-129 611,-129 611,-110 667,-110 667,-129"/>
<text text-anchor="middle" x="639" y="-117" font-family="Helvetica,sans-Serif" font-size="10.00">sstream</text>
</a>
</g>
</g>
<!-- Node10&#45;&gt;Node17 -->
<g id="edge18_Node000010_Node000017" class="edge">
<title>Node10&#45;&gt;Node17</title>
<g id="a_edge18_Node000010_Node000017"><a xlink:title=" ">
<path fill="none" stroke="#63b8ff" d="M592,-164.98C600.19,-157.23 612.51,-145.58 622.47,-136.14"/>
<polygon fill="#63b8ff" stroke="#63b8ff" points="624.98,-138.59 629.84,-129.17 620.17,-133.5 624.98,-138.59"/>
</a>
</g>
</g>
<!-- Node18 -->
<g id="Node000018" class="node">
<title>Node18</title>
<g id="a_Node000018"><a xlink:title=" ">
<polygon fill="#e0e0e0" stroke="#999999" points="769,-129 685,-129 685,-110 769,-110 769,-129"/>
<text text-anchor="middle" x="727" y="-117" font-family="Helvetica,sans-Serif" font-size="10.00">realm/utils.inl</text>
</a>
</g>
</g>
<!-- Node10&#45;&gt;Node18 -->
<g id="edge19_Node000010_Node000018" class="edge">
<title>Node10&#45;&gt;Node18</title>
<g id="a_edge19_Node000010_Node000018"><a xlink:title=" ">
<path fill="none" stroke="#63b8ff" d="M606.14,-164.98C629.82,-156.27 666.87,-142.63 693.71,-132.75"/>
<polygon fill="#63b8ff" stroke="#63b8ff" points="695.27,-135.91 703.44,-129.17 692.85,-129.34 695.27,-135.91"/>
</a>
</g>
</g>
<!-- Node19&#45;&gt;Node7 -->
<g id="edge21_Node000019_Node000007" class="edge">
<title>Node19&#45;&gt;Node7</title>
<g id="a_edge21_Node000019_Node000007"><a xlink:title=" ">
<path fill="none" stroke="#63b8ff" d="M238.47,-164.98C216.53,-156.3 182.26,-142.75 157.31,-132.88"/>
<polygon fill="#63b8ff" stroke="#63b8ff" points="158.51,-129.59 147.92,-129.17 155.93,-136.1 158.51,-129.59"/>
</a>
</g>
</g>
<!-- Node19&#45;&gt;Node8 -->
<g id="edge22_Node000019_Node000008" class="edge">
<title>Node19&#45;&gt;Node8</title>
<g id="a_edge22_Node000019_Node000008"><a xlink:title=" ">
<path fill="none" stroke="#63b8ff" d="M250.39,-164.83C241.62,-156.44 228.86,-142.97 221,-129 213.11,-114.98 207.89,-97.42 204.76,-84.33"/>
<polygon fill="#63b8ff" stroke="#63b8ff" points="208.1,-83.19 202.54,-74.17 201.26,-84.69 208.1,-83.19"/>
</a>
</g>
</g>
<!-- Node19&#45;&gt;Node20 -->
<g id="edge23_Node000019_Node000020" class="edge">
<title>Node19&#45;&gt;Node20</title>
<g id="a_edge23_Node000019_Node000020"><a xlink:title=" ">
<path fill="none" stroke="#63b8ff" d="M223.05,-164.98C181.2,-155.34 113.23,-139.68 70.12,-129.74"/>
<polygon fill="#63b8ff" stroke="#63b8ff" points="70.78,-126.31 60.25,-127.47 69.21,-133.13 70.78,-126.31"/>
</a>
</g>
</g>
<!-- Node21 -->
<g id="Node000021" class="node">
<title>Node21</title>
<g id="a_Node000021"><a xlink:title=" ">
<polygon fill="#e0e0e0" stroke="#999999" points="295.5,-129 230.5,-129 230.5,-110 295.5,-110 295.5,-129"/>
<text text-anchor="middle" x="263" y="-117" font-family="Helvetica,sans-Serif" font-size="10.00">functional</text>
</a>
</g>
</g>
<!-- Node19&#45;&gt;Node21 -->
<g id="edge24_Node000019_Node000021" class="edge">
<title>Node19&#45;&gt;Node21</title>
<g id="a_edge24_Node000019_Node000021"><a xlink:title=" ">
<path fill="none" stroke="#63b8ff" d="M260.5,-164.75C260.89,-157.8 261.45,-147.85 261.95,-139.13"/>
<polygon fill="#63b8ff" stroke="#63b8ff" points="265.44,-139.27 262.51,-129.09 258.45,-138.88 265.44,-139.27"/>
</a>
</g>
</g>
</g>
</svg>
