<?xml version="1.0" encoding="UTF-8" standalone="no"?>
<!DOCTYPE svg PUBLIC "-//W3C//DTD SVG 1.1//EN"
 "http://www.w3.org/Graphics/SVG/1.1/DTD/svg11.dtd">
<!-- Generated by graphviz version 2.43.0 (0)
 -->
<!-- Title: /home/runner/work/realm/realm/realm&#45;src/src/realm/ucx/ucp_context.h Pages: 1 -->
<svg width="1139pt" height="269pt"
 viewBox="0.00 0.00 1138.50 269.00" xmlns="http://www.w3.org/2000/svg" xmlns:xlink="http://www.w3.org/1999/xlink">
<g id="graph0" class="graph" transform="scale(1 1) rotate(0) translate(4 265)">
<title>/home/runner/work/realm/realm/realm&#45;src/src/realm/ucx/ucp_context.h</title>
<!-- Node1 -->
<g id="Node000001" class="node">
<title>Node1</title>
<g id="a_Node000001"><a xlink:title=" ">
<polygon fill="#999999" stroke="#666666" points="852,-261 706,-261 706,-220 852,-220 852,-261"/>
<text text-anchor="start" x="714" y="-249" font-family="Helvetica,sans-Serif" font-size="10.00">/home/runner/work/realm</text>
<text text-anchor="start" x="714" y="-238" font-family="Helvetica,sans-Serif" font-size="10.00">/realm/realm&#45;src/src/realm</text>
<text text-anchor="middle" x="779" y="-227" font-family="Helvetica,sans-Serif" font-size="10.00">/ucx/ucp_context.h</text>
</a>
</g>
</g>
<!-- Node2 -->
<g id="Node000002" class="node">
<title>Node2</title>
<g id="a_Node000002"><a xlink:href="ucp__utils_8h.html" target="_top" xlink:title=" ">
<polygon fill="white" stroke="#666666" points="453.5,-184 332.5,-184 332.5,-165 453.5,-165 453.5,-184"/>
<text text-anchor="middle" x="393" y="-172" font-family="Helvetica,sans-Serif" font-size="10.00">realm/ucx/ucp_utils.h</text>
</a>
</g>
</g>
<!-- Node1&#45;&gt;Node2 -->
<g id="edge1_Node000001_Node000002" class="edge">
<title>Node1&#45;&gt;Node2</title>
<g id="a_edge1_Node000001_Node000002"><a xlink:title=" ">
<path fill="none" stroke="#63b8ff" d="M705.94,-227.39C633.28,-215.34 523.05,-197.06 454.67,-185.72"/>
<polygon fill="#63b8ff" stroke="#63b8ff" points="454.91,-182.22 444.48,-184.03 453.77,-189.12 454.91,-182.22"/>
</a>
</g>
</g>
<!-- Node3 -->
<g id="Node000003" class="node">
<title>Node3</title>
<g id="a_Node000003"><a xlink:href="mpool_8h.html" target="_top" xlink:title=" ">
<polygon fill="white" stroke="#666666" points="792,-184 684,-184 684,-165 792,-165 792,-184"/>
<text text-anchor="middle" x="738" y="-172" font-family="Helvetica,sans-Serif" font-size="10.00">realm/ucx/mpool.h</text>
</a>
</g>
</g>
<!-- Node1&#45;&gt;Node3 -->
<g id="edge2_Node000001_Node000003" class="edge">
<title>Node1&#45;&gt;Node3</title>
<g id="a_edge2_Node000001_Node000003"><a xlink:title=" ">
<path fill="none" stroke="#63b8ff" d="M766.48,-219.95C760.93,-211.3 754.47,-201.2 749.1,-192.82"/>
<polygon fill="#63b8ff" stroke="#63b8ff" points="751.95,-190.79 743.61,-184.26 746.06,-194.57 751.95,-190.79"/>
</a>
</g>
</g>
<!-- Node7 -->
<g id="Node000007" class="node">
<title>Node7</title>
<g id="a_Node000007"><a xlink:title=" ">
<polygon fill="#e0e0e0" stroke="#999999" points="912.5,-129 819.5,-129 819.5,-110 912.5,-110 912.5,-129"/>
<text text-anchor="middle" x="866" y="-117" font-family="Helvetica,sans-Serif" font-size="10.00">unordered_map</text>
</a>
</g>
</g>
<!-- Node1&#45;&gt;Node7 -->
<g id="edge31_Node000001_Node000007" class="edge">
<title>Node1&#45;&gt;Node7</title>
<g id="a_edge31_Node000001_Node000007"><a xlink:title=" ">
<path fill="none" stroke="#63b8ff" d="M793.37,-219.85C810.17,-196.86 837.72,-159.18 853.62,-137.43"/>
<polygon fill="#63b8ff" stroke="#63b8ff" points="856.58,-139.31 859.66,-129.18 850.93,-135.18 856.58,-139.31"/>
</a>
</g>
</g>
<!-- Node8 -->
<g id="Node000008" class="node">
<title>Node8</title>
<g id="a_Node000008"><a xlink:href="spinlock_8h.html" target="_top" xlink:title=" ">
<polygon fill="white" stroke="#666666" points="966,-184 848,-184 848,-165 966,-165 966,-184"/>
<text text-anchor="middle" x="907" y="-172" font-family="Helvetica,sans-Serif" font-size="10.00">realm/ucx/spinlock.h</text>
</a>
</g>
</g>
<!-- Node1&#45;&gt;Node8 -->
<g id="edge7_Node000001_Node000008" class="edge">
<title>Node1&#45;&gt;Node8</title>
<g id="a_edge7_Node000001_Node000008"><a xlink:title=" ">
<path fill="none" stroke="#63b8ff" d="M818.1,-219.95C838.32,-209.84 862.47,-197.76 880.5,-188.75"/>
<polygon fill="#63b8ff" stroke="#63b8ff" points="882.44,-191.69 889.82,-184.09 879.31,-185.43 882.44,-191.69"/>
</a>
</g>
</g>
<!-- Node10 -->
<g id="Node000010" class="node">
<title>Node10</title>
<g id="a_Node000010"><a xlink:href="atomics_8h.html" target="_top" xlink:title=" ">
<polygon fill="white" stroke="#666666" points="657,-129 561,-129 561,-110 657,-110 657,-129"/>
<text text-anchor="middle" x="609" y="-117" font-family="Helvetica,sans-Serif" font-size="10.00">realm/atomics.h</text>
</a>
</g>
</g>
<!-- Node1&#45;&gt;Node10 -->
<g id="edge9_Node000001_Node000010" class="edge">
<title>Node1&#45;&gt;Node10</title>
<g id="a_edge9_Node000001_Node000010"><a xlink:title=" ">
<path fill="none" stroke="#63b8ff" d="M736.18,-220C716.76,-210.33 693.96,-197.77 675,-184 655.61,-169.92 636.17,-150.41 623.47,-136.74"/>
<polygon fill="#63b8ff" stroke="#63b8ff" points="625.81,-134.12 616.49,-129.09 620.64,-138.83 625.81,-134.12"/>
</a>
</g>
</g>
<!-- Node16 -->
<g id="Node000016" class="node">
<title>Node16</title>
<g id="a_Node000016"><a xlink:href="mutex_8h.html" target="_top" xlink:title=" ">
<polygon fill="white" stroke="#666666" points="560.5,-184 471.5,-184 471.5,-165 560.5,-165 560.5,-184"/>
<text text-anchor="middle" x="516" y="-172" font-family="Helvetica,sans-Serif" font-size="10.00">realm/mutex.h</text>
</a>
</g>
</g>
<!-- Node1&#45;&gt;Node16 -->
<g id="edge15_Node000001_Node000016" class="edge">
<title>Node1&#45;&gt;Node16</title>
<g id="a_edge15_Node000001_Node000016"><a xlink:title=" ">
<path fill="none" stroke="#63b8ff" d="M705.74,-221.67C659.32,-210.38 600.77,-196.13 561.07,-186.47"/>
<polygon fill="#63b8ff" stroke="#63b8ff" points="561.7,-183.02 551.15,-184.05 560.04,-189.82 561.7,-183.02"/>
</a>
</g>
</g>
<!-- Node26 -->
<g id="Node000026" class="node">
<title>Node26</title>
<g id="a_Node000026"><a xlink:title=" ">
<polygon fill="#e0e0e0" stroke="#999999" points="1065.5,-184 984.5,-184 984.5,-165 1065.5,-165 1065.5,-184"/>
<text text-anchor="middle" x="1025" y="-172" font-family="Helvetica,sans-Serif" font-size="10.00">ucp/api/ucp.h</text>
</a>
</g>
</g>
<!-- Node1&#45;&gt;Node26 -->
<g id="edge30_Node000001_Node000026" class="edge">
<title>Node1&#45;&gt;Node26</title>
<g id="a_edge30_Node000001_Node000026"><a xlink:title=" ">
<path fill="none" stroke="#63b8ff" d="M852.14,-220.47C894.42,-209.47 946.16,-196.01 981.96,-186.7"/>
<polygon fill="#63b8ff" stroke="#63b8ff" points="983.27,-189.97 992.07,-184.07 981.51,-183.2 983.27,-189.97"/>
</a>
</g>
</g>
<!-- Node27 -->
<g id="Node000027" class="node">
<title>Node27</title>
<g id="a_Node000027"><a xlink:title=" ">
<polygon fill="#e0e0e0" stroke="#999999" points="1130.5,-184 1083.5,-184 1083.5,-165 1130.5,-165 1130.5,-184"/>
<text text-anchor="middle" x="1107" y="-172" font-family="Helvetica,sans-Serif" font-size="10.00">queue</text>
</a>
</g>
</g>
<!-- Node1&#45;&gt;Node27 -->
<g id="edge32_Node000001_Node000027" class="edge">
<title>Node1&#45;&gt;Node27</title>
<g id="a_edge32_Node000001_Node000027"><a xlink:title=" ">
<path fill="none" stroke="#63b8ff" d="M852.3,-227.32C910.04,-217.36 992.76,-202.31 1073.45,-184.23"/>
<polygon fill="#63b8ff" stroke="#63b8ff" points="1074.3,-187.63 1083.28,-182.01 1072.76,-180.8 1074.3,-187.63"/>
</a>
</g>
</g>
<!-- Node4 -->
<g id="Node000004" class="node">
<title>Node4</title>
<g id="a_Node000004"><a xlink:title=" ">
<polygon fill="#e0e0e0" stroke="#999999" points="813,-74 769,-74 769,-55 813,-55 813,-74"/>
<text text-anchor="middle" x="791" y="-62" font-family="Helvetica,sans-Serif" font-size="10.00">string</text>
</a>
</g>
</g>
<!-- Node3&#45;&gt;Node4 -->
<g id="edge3_Node000003_Node000004" class="edge">
<title>Node3&#45;&gt;Node4</title>
<g id="a_edge3_Node000003_Node000004"><a xlink:title=" ">
<path fill="none" stroke="#63b8ff" d="M746.06,-164.95C753.71,-156.43 765.02,-142.69 772,-129 779.28,-114.73 784.26,-97.2 787.29,-84.18"/>
<polygon fill="#63b8ff" stroke="#63b8ff" points="790.78,-84.6 789.46,-74.09 783.93,-83.13 790.78,-84.6"/>
</a>
</g>
</g>
<!-- Node5 -->
<g id="Node000005" class="node">
<title>Node5</title>
<g id="a_Node000005"><a xlink:title=" ">
<polygon fill="#e0e0e0" stroke="#999999" points="763,-129 713,-129 713,-110 763,-110 763,-129"/>
<text text-anchor="middle" x="738" y="-117" font-family="Helvetica,sans-Serif" font-size="10.00">climits</text>
</a>
</g>
</g>
<!-- Node3&#45;&gt;Node5 -->
<g id="edge4_Node000003_Node000005" class="edge">
<title>Node3&#45;&gt;Node5</title>
<g id="a_edge4_Node000003_Node000005"><a xlink:title=" ">
<path fill="none" stroke="#63b8ff" d="M738,-164.75C738,-157.8 738,-147.85 738,-139.13"/>
<polygon fill="#63b8ff" stroke="#63b8ff" points="741.5,-139.09 738,-129.09 734.5,-139.09 741.5,-139.09"/>
</a>
</g>
</g>
<!-- Node6 -->
<g id="Node000006" class="node">
<title>Node6</title>
<g id="a_Node000006"><a xlink:title=" ">
<polygon fill="#e0e0e0" stroke="#999999" points="631,-74 581,-74 581,-55 631,-55 631,-74"/>
<text text-anchor="middle" x="606" y="-62" font-family="Helvetica,sans-Serif" font-size="10.00">cstdint</text>
</a>
</g>
</g>
<!-- Node3&#45;&gt;Node6 -->
<g id="edge5_Node000003_Node000006" class="edge">
<title>Node3&#45;&gt;Node6</title>
<g id="a_edge5_Node000003_Node000006"><a xlink:title=" ">
<path fill="none" stroke="#63b8ff" d="M728.44,-164.61C714.86,-152.07 689.06,-128.66 666,-110 653.15,-99.6 638.21,-88.52 626.46,-80.02"/>
<polygon fill="#63b8ff" stroke="#63b8ff" points="628.34,-77.06 618.18,-74.07 624.26,-82.75 628.34,-77.06"/>
</a>
</g>
</g>
<!-- Node3&#45;&gt;Node7 -->
<g id="edge6_Node000003_Node000007" class="edge">
<title>Node3&#45;&gt;Node7</title>
<g id="a_edge6_Node000003_Node000007"><a xlink:title=" ">
<path fill="none" stroke="#63b8ff" d="M758.57,-164.98C779.43,-156.34 811.97,-142.87 835.77,-133.02"/>
<polygon fill="#63b8ff" stroke="#63b8ff" points="837.16,-136.23 845.06,-129.17 834.48,-129.76 837.16,-136.23"/>
</a>
</g>
</g>
<!-- Node9 -->
<g id="Node000009" class="node">
<title>Node9</title>
<g id="a_Node000009"><a xlink:title=" ">
<polygon fill="#e0e0e0" stroke="#999999" points="993.5,-129 930.5,-129 930.5,-110 993.5,-110 993.5,-129"/>
<text text-anchor="middle" x="962" y="-117" font-family="Helvetica,sans-Serif" font-size="10.00">pthread.h</text>
</a>
</g>
</g>
<!-- Node8&#45;&gt;Node9 -->
<g id="edge8_Node000008_Node000009" class="edge">
<title>Node8&#45;&gt;Node9</title>
<g id="a_edge8_Node000008_Node000009"><a xlink:title=" ">
<path fill="none" stroke="#63b8ff" d="M916.08,-164.75C924.09,-157.03 935.96,-145.6 945.62,-136.28"/>
<polygon fill="#63b8ff" stroke="#63b8ff" points="948.31,-138.55 953.09,-129.09 943.46,-133.51 948.31,-138.55"/>
</a>
</g>
</g>
<!-- Node11 -->
<g id="Node000011" class="node">
<title>Node11</title>
<g id="a_Node000011"><a xlink:href="realm__config_8h.html" target="_top" xlink:title=" ">
<polygon fill="white" stroke="#666666" points="563,-74 443,-74 443,-55 563,-55 563,-74"/>
<text text-anchor="middle" x="503" y="-62" font-family="Helvetica,sans-Serif" font-size="10.00">realm/realm_config.h</text>
</a>
</g>
</g>
<!-- Node10&#45;&gt;Node11 -->
<g id="edge10_Node000010_Node000011" class="edge">
<title>Node10&#45;&gt;Node11</title>
<g id="a_edge10_Node000010_Node000011"><a xlink:title=" ">
<path fill="none" stroke="#63b8ff" d="M591.97,-109.98C575.07,-101.54 548.94,-88.47 529.36,-78.68"/>
<polygon fill="#63b8ff" stroke="#63b8ff" points="530.85,-75.51 520.34,-74.17 527.72,-81.77 530.85,-75.51"/>
</a>
</g>
</g>
<!-- Node14 -->
<g id="Node000014" class="node">
<title>Node14</title>
<g id="a_Node000014"><a xlink:title=" ">
<polygon fill="#e0e0e0" stroke="#999999" points="881,-74 831,-74 831,-55 881,-55 881,-74"/>
<text text-anchor="middle" x="856" y="-62" font-family="Helvetica,sans-Serif" font-size="10.00">atomic</text>
</a>
</g>
</g>
<!-- Node10&#45;&gt;Node14 -->
<g id="edge13_Node000010_Node000014" class="edge">
<title>Node10&#45;&gt;Node14</title>
<g id="a_edge13_Node000010_Node000014"><a xlink:title=" ">
<path fill="none" stroke="#63b8ff" d="M652.35,-109.96C693.36,-101.76 756.87,-88.77 820.91,-74.18"/>
<polygon fill="#63b8ff" stroke="#63b8ff" points="821.81,-77.57 830.78,-71.92 820.25,-70.74 821.81,-77.57"/>
</a>
</g>
</g>
<!-- Node15 -->
<g id="Node000015" class="node">
<title>Node15</title>
<g id="a_Node000015"><a xlink:title=" ">
<polygon fill="#e0e0e0" stroke="#999999" points="751,-74 649,-74 649,-55 751,-55 751,-74"/>
<text text-anchor="middle" x="700" y="-62" font-family="Helvetica,sans-Serif" font-size="10.00">realm/atomics.inl</text>
</a>
</g>
</g>
<!-- Node10&#45;&gt;Node15 -->
<g id="edge14_Node000010_Node000015" class="edge">
<title>Node10&#45;&gt;Node15</title>
<g id="a_edge14_Node000010_Node000015"><a xlink:title=" ">
<path fill="none" stroke="#63b8ff" d="M623.62,-109.98C637.86,-101.69 659.75,-88.94 676.45,-79.22"/>
<polygon fill="#63b8ff" stroke="#63b8ff" points="678.23,-82.23 685.11,-74.17 674.71,-76.18 678.23,-82.23"/>
</a>
</g>
</g>
<!-- Node12 -->
<g id="Node000012" class="node">
<title>Node12</title>
<g id="a_Node000012"><a xlink:href="realm__defines_8h.html" target="_top" xlink:title=" ">
<polygon fill="white" stroke="#666666" points="481.5,-19 386.5,-19 386.5,0 481.5,0 481.5,-19"/>
<text text-anchor="middle" x="434" y="-7" font-family="Helvetica,sans-Serif" font-size="10.00">realm_defines.h</text>
</a>
</g>
</g>
<!-- Node11&#45;&gt;Node12 -->
<g id="edge11_Node000011_Node000012" class="edge">
<title>Node11&#45;&gt;Node12</title>
<g id="a_edge11_Node000011_Node000012"><a xlink:title=" ">
<path fill="none" stroke="#63b8ff" d="M491.91,-54.98C481.51,-47 465.74,-34.88 453.28,-25.31"/>
<polygon fill="#63b8ff" stroke="#63b8ff" points="455.35,-22.49 445.29,-19.17 451.09,-28.04 455.35,-22.49"/>
</a>
</g>
</g>
<!-- Node13 -->
<g id="Node000013" class="node">
<title>Node13</title>
<g id="a_Node000013"><a xlink:href="compiler__support_8h.html" target="_top" xlink:title=" ">
<polygon fill="white" stroke="#666666" points="642,-19 500,-19 500,0 642,0 642,-19"/>
<text text-anchor="middle" x="571" y="-7" font-family="Helvetica,sans-Serif" font-size="10.00">realm/compiler_support.h</text>
</a>
</g>
</g>
<!-- Node11&#45;&gt;Node13 -->
<g id="edge12_Node000011_Node000013" class="edge">
<title>Node11&#45;&gt;Node13</title>
<g id="a_edge12_Node000011_Node000013"><a xlink:title=" ">
<path fill="none" stroke="#63b8ff" d="M513.93,-54.98C524.08,-47.07 539.42,-35.11 551.65,-25.58"/>
<polygon fill="#63b8ff" stroke="#63b8ff" points="554.14,-28.08 559.88,-19.17 549.84,-22.56 554.14,-28.08"/>
</a>
</g>
</g>
<!-- Node16&#45;&gt;Node10 -->
<g id="edge27_Node000016_Node000010" class="edge">
<title>Node16&#45;&gt;Node10</title>
<g id="a_edge27_Node000016_Node000010"><a xlink:title=" ">
<path fill="none" stroke="#63b8ff" d="M530.94,-164.98C545.5,-156.69 567.87,-143.94 584.93,-134.22"/>
<polygon fill="#63b8ff" stroke="#63b8ff" points="586.83,-137.16 593.79,-129.17 583.36,-131.08 586.83,-137.16"/>
</a>
</g>
</g>
<!-- Node16&#45;&gt;Node11 -->
<g id="edge16_Node000016_Node000011" class="edge">
<title>Node16&#45;&gt;Node11</title>
<g id="a_edge16_Node000016_Node000011"><a xlink:title=" ">
<path fill="none" stroke="#63b8ff" d="M505.84,-164.81C497.1,-156.6 485.1,-143.43 480,-129 474.4,-113.17 482.26,-95.17 490.28,-82.39"/>
<polygon fill="#63b8ff" stroke="#63b8ff" points="493.19,-84.34 495.96,-74.11 487.42,-80.38 493.19,-84.34"/>
</a>
</g>
</g>
<!-- Node17 -->
<g id="Node000017" class="node">
<title>Node17</title>
<g id="a_Node000017"><a xlink:href="utils_8h.html" target="_top" xlink:title=" ">
<polygon fill="white" stroke="#666666" points="433,-129 355,-129 355,-110 433,-110 433,-129"/>
<text text-anchor="middle" x="394" y="-117" font-family="Helvetica,sans-Serif" font-size="10.00">realm/utils.h</text>
</a>
</g>
</g>
<!-- Node16&#45;&gt;Node17 -->
<g id="edge17_Node000016_Node000017" class="edge">
<title>Node16&#45;&gt;Node17</title>
<g id="a_edge17_Node000016_Node000017"><a xlink:title=" ">
<path fill="none" stroke="#63b8ff" d="M496.4,-164.98C476.68,-156.42 446.05,-143.11 423.42,-133.28"/>
<polygon fill="#63b8ff" stroke="#63b8ff" points="424.52,-129.94 413.96,-129.17 421.74,-136.37 424.52,-129.94"/>
</a>
</g>
</g>
<!-- Node24 -->
<g id="Node000024" class="node">
<title>Node24</title>
<g id="a_Node000024"><a xlink:title=" ">
<polygon fill="#e0e0e0" stroke="#999999" points="542.5,-129 489.5,-129 489.5,-110 542.5,-110 542.5,-129"/>
<text text-anchor="middle" x="516" y="-117" font-family="Helvetica,sans-Serif" font-size="10.00">stdint.h</text>
</a>
</g>
</g>
<!-- Node16&#45;&gt;Node24 -->
<g id="edge28_Node000016_Node000024" class="edge">
<title>Node16&#45;&gt;Node24</title>
<g id="a_edge28_Node000016_Node000024"><a xlink:title=" ">
<path fill="none" stroke="#63b8ff" d="M516,-164.75C516,-157.8 516,-147.85 516,-139.13"/>
<polygon fill="#63b8ff" stroke="#63b8ff" points="519.5,-139.09 516,-129.09 512.5,-139.09 519.5,-139.09"/>
</a>
</g>
</g>
<!-- Node25 -->
<g id="Node000025" class="node">
<title>Node25</title>
<g id="a_Node000025"><a xlink:title=" ">
<polygon fill="#e0e0e0" stroke="#999999" points="336.5,-129 241.5,-129 241.5,-110 336.5,-110 336.5,-129"/>
<text text-anchor="middle" x="289" y="-117" font-family="Helvetica,sans-Serif" font-size="10.00">realm/mutex.inl</text>
</a>
</g>
</g>
<!-- Node16&#45;&gt;Node25 -->
<g id="edge29_Node000016_Node000025" class="edge">
<title>Node16&#45;&gt;Node25</title>
<g id="a_edge29_Node000016_Node000025"><a xlink:title=" ">
<path fill="none" stroke="#63b8ff" d="M479.53,-164.98C440.43,-155.86 378.23,-141.33 335.61,-131.38"/>
<polygon fill="#63b8ff" stroke="#63b8ff" points="336.29,-127.95 325.76,-129.08 334.7,-134.76 336.29,-127.95"/>
</a>
</g>
</g>
<!-- Node17&#45;&gt;Node4 -->
<g id="edge19_Node000017_Node000004" class="edge">
<title>Node17&#45;&gt;Node4</title>
<g id="a_edge19_Node000017_Node000004"><a xlink:title=" ">
<path fill="none" stroke="#63b8ff" d="M433.19,-114.47C510.64,-106.39 681.75,-87.95 758.55,-73.96"/>
<polygon fill="#63b8ff" stroke="#63b8ff" points="759.57,-77.33 768.74,-72.02 758.26,-70.46 759.57,-77.33"/>
</a>
</g>
</g>
<!-- Node17&#45;&gt;Node6 -->
<g id="edge24_Node000017_Node000006" class="edge">
<title>Node17&#45;&gt;Node6</title>
<g id="a_edge24_Node000017_Node000006"><a xlink:title=" ">
<path fill="none" stroke="#63b8ff" d="M428.06,-109.98C467.36,-100.16 531.64,-84.09 571.24,-74.19"/>
<polygon fill="#63b8ff" stroke="#63b8ff" points="572.13,-77.57 580.98,-71.75 570.43,-70.78 572.13,-77.57"/>
</a>
</g>
</g>
<!-- Node17&#45;&gt;Node11 -->
<g id="edge18_Node000017_Node000011" class="edge">
<title>Node17&#45;&gt;Node11</title>
<g id="a_edge18_Node000017_Node000011"><a xlink:title=" ">
<path fill="none" stroke="#63b8ff" d="M411.51,-109.98C428.97,-101.5 456.01,-88.35 476.17,-78.54"/>
<polygon fill="#63b8ff" stroke="#63b8ff" points="477.71,-81.69 485.17,-74.17 474.64,-75.4 477.71,-81.69"/>
</a>
</g>
</g>
<!-- Node18 -->
<g id="Node000018" class="node">
<title>Node18</title>
<g id="a_Node000018"><a xlink:title=" ">
<polygon fill="#e0e0e0" stroke="#999999" points="359.5,-74 302.5,-74 302.5,-55 359.5,-55 359.5,-74"/>
<text text-anchor="middle" x="331" y="-62" font-family="Helvetica,sans-Serif" font-size="10.00">ostream</text>
</a>
</g>
</g>
<!-- Node17&#45;&gt;Node18 -->
<g id="edge20_Node000017_Node000018" class="edge">
<title>Node17&#45;&gt;Node18</title>
<g id="a_edge20_Node000017_Node000018"><a xlink:title=" ">
<path fill="none" stroke="#63b8ff" d="M383.88,-109.98C374.56,-102.15 360.53,-90.34 349.26,-80.86"/>
<polygon fill="#63b8ff" stroke="#63b8ff" points="351.21,-77.93 341.31,-74.17 346.71,-83.29 351.21,-77.93"/>
</a>
</g>
</g>
<!-- Node19 -->
<g id="Node000019" class="node">
<title>Node19</title>
<g id="a_Node000019"><a xlink:title=" ">
<polygon fill="#e0e0e0" stroke="#999999" points="424.5,-74 377.5,-74 377.5,-55 424.5,-55 424.5,-74"/>
<text text-anchor="middle" x="401" y="-62" font-family="Helvetica,sans-Serif" font-size="10.00">vector</text>
</a>
</g>
</g>
<!-- Node17&#45;&gt;Node19 -->
<g id="edge21_Node000017_Node000019" class="edge">
<title>Node17&#45;&gt;Node19</title>
<g id="a_edge21_Node000017_Node000019"><a xlink:title=" ">
<path fill="none" stroke="#63b8ff" d="M395.16,-109.75C396.07,-102.8 397.39,-92.85 398.54,-84.13"/>
<polygon fill="#63b8ff" stroke="#63b8ff" points="402.03,-84.46 399.87,-74.09 395.09,-83.54 402.03,-84.46"/>
</a>
</g>
</g>
<!-- Node20 -->
<g id="Node000020" class="node">
<title>Node20</title>
<g id="a_Node000020"><a xlink:title=" ">
<polygon fill="#e0e0e0" stroke="#999999" points="38,-74 0,-74 0,-55 38,-55 38,-74"/>
<text text-anchor="middle" x="19" y="-62" font-family="Helvetica,sans-Serif" font-size="10.00">map</text>
</a>
</g>
</g>
<!-- Node17&#45;&gt;Node20 -->
<g id="edge22_Node000017_Node000020" class="edge">
<title>Node17&#45;&gt;Node20</title>
<g id="a_edge22_Node000017_Node000020"><a xlink:title=" ">
<path fill="none" stroke="#63b8ff" d="M354.98,-111.54C351.61,-111 348.25,-110.48 345,-110 216.23,-91.07 179.34,-100.97 48.19,-73.9"/>
<polygon fill="#63b8ff" stroke="#63b8ff" points="48.67,-70.43 38.17,-71.8 47.23,-77.28 48.67,-70.43"/>
</a>
</g>
</g>
<!-- Node21 -->
<g id="Node000021" class="node">
<title>Node21</title>
<g id="a_Node000021"><a xlink:title=" ">
<polygon fill="#e0e0e0" stroke="#999999" points="108,-74 56,-74 56,-55 108,-55 108,-74"/>
<text text-anchor="middle" x="82" y="-62" font-family="Helvetica,sans-Serif" font-size="10.00">cassert</text>
</a>
</g>
</g>
<!-- Node17&#45;&gt;Node21 -->
<g id="edge23_Node000017_Node000021" class="edge">
<title>Node17&#45;&gt;Node21</title>
<g id="a_edge23_Node000017_Node000021"><a xlink:title=" ">
<path fill="none" stroke="#63b8ff" d="M354.96,-111.67C351.59,-111.1 348.24,-110.54 345,-110 246.95,-93.76 219.31,-94.08 118.33,-74.13"/>
<polygon fill="#63b8ff" stroke="#63b8ff" points="118.81,-70.66 108.32,-72.14 117.44,-77.52 118.81,-70.66"/>
</a>
</g>
</g>
<!-- Node22 -->
<g id="Node000022" class="node">
<title>Node22</title>
<g id="a_Node000022"><a xlink:title=" ">
<polygon fill="#e0e0e0" stroke="#999999" points="182,-74 126,-74 126,-55 182,-55 182,-74"/>
<text text-anchor="middle" x="154" y="-62" font-family="Helvetica,sans-Serif" font-size="10.00">sstream</text>
</a>
</g>
</g>
<!-- Node17&#45;&gt;Node22 -->
<g id="edge25_Node000017_Node000022" class="edge">
<title>Node17&#45;&gt;Node22</title>
<g id="a_edge25_Node000017_Node000022"><a xlink:title=" ">
<path fill="none" stroke="#63b8ff" d="M354.68,-110C315.84,-101.58 254.48,-88.21 192.26,-74.27"/>
<polygon fill="#63b8ff" stroke="#63b8ff" points="192.8,-70.8 182.28,-72.03 191.27,-77.63 192.8,-70.8"/>
</a>
</g>
</g>
<!-- Node23 -->
<g id="Node000023" class="node">
<title>Node23</title>
<g id="a_Node000023"><a xlink:title=" ">
<polygon fill="#e0e0e0" stroke="#999999" points="284,-74 200,-74 200,-55 284,-55 284,-74"/>
<text text-anchor="middle" x="242" y="-62" font-family="Helvetica,sans-Serif" font-size="10.00">realm/utils.inl</text>
</a>
</g>
</g>
<!-- Node17&#45;&gt;Node23 -->
<g id="edge26_Node000017_Node000023" class="edge">
<title>Node17&#45;&gt;Node23</title>
<g id="a_edge26_Node000017_Node000023"><a xlink:title=" ">
<path fill="none" stroke="#63b8ff" d="M369.58,-109.98C344.28,-101.16 304.55,-87.31 276.14,-77.41"/>
<polygon fill="#63b8ff" stroke="#63b8ff" points="277.21,-74.07 266.61,-74.08 274.9,-80.68 277.21,-74.07"/>
</a>
</g>
</g>
</g>
</svg>
